<?xml version="1.0" encoding="utf-8"?>
<!-- Generator: Adobe Illustrator 22.0.1, SVG Export Plug-In . SVG Version: 6.00 Build 0)  -->
<svg version="1.1" xmlns="http://www.w3.org/2000/svg" xmlns:xlink="http://www.w3.org/1999/xlink" x="0px" y="0px"
	 viewBox="0 0 131.4 155.8" style="enable-background:new 0 0 131.4 155.8;" xml:space="preserve">
<style type="text/css">
	.st0{fill-rule:evenodd;clip-rule:evenodd;fill:#8EC3D4;}
	.st1{fill-rule:evenodd;clip-rule:evenodd;fill:#6092A3;}
	.st2{fill-rule:evenodd;clip-rule:evenodd;fill:#B8332E;}
	.st3{fill-rule:evenodd;clip-rule:evenodd;fill:#4D4D4D;}
	.st4{fill-rule:evenodd;clip-rule:evenodd;fill:#FFFFFF;}
	.st5{fill-rule:evenodd;clip-rule:evenodd;fill:#DB4743;}
	.st6{fill:#FD9325;}
	.st7{fill-rule:evenodd;clip-rule:evenodd;fill:#F7C8B4;}
	.st8{fill:#4D4D4D;}
	.st9{fill-rule:evenodd;clip-rule:evenodd;fill:#F1ABA1;}
	.st10{fill:#F1ABA1;}
	.st11{fill-rule:evenodd;clip-rule:evenodd;fill:#FAC2B9;}
	.st12{fill-rule:evenodd;clip-rule:evenodd;fill:#FFB463;}
	.st13{fill-rule:evenodd;clip-rule:evenodd;fill:#EB963B;}
	.st14{fill-rule:evenodd;clip-rule:evenodd;fill:#C9EAF5;}
	.st15{fill-rule:evenodd;clip-rule:evenodd;fill:#B5DDEB;}
	.st16{fill-rule:evenodd;clip-rule:evenodd;fill:#FFD67F;}
	.st17{fill-rule:evenodd;clip-rule:evenodd;fill:#E0B24E;}
	.st18{fill-rule:evenodd;clip-rule:evenodd;fill:#F5B99F;}
	.st19{fill-rule:evenodd;clip-rule:evenodd;fill:#854E4C;}
	.st20{fill-rule:evenodd;clip-rule:evenodd;fill:#999999;}
	.st21{fill-rule:evenodd;clip-rule:evenodd;fill:#EDBC51;}
	.st22{fill-rule:evenodd;clip-rule:evenodd;fill:#B8332E;stroke:#B8332E;stroke-width:0.216;stroke-miterlimit:22.9256;}
	.st23{fill-rule:evenodd;clip-rule:evenodd;fill:#BEAEA1;}
	.st24{fill:#648691;}
</style>
<g id="BACKGROUND">
</g>
<g id="OBJECTS">
	<g>
		<ellipse class="st1" cx="50.9" cy="144" rx="46.6" ry="8"/>
		<g>
			<g>
				<path class="st2" d="M76.9,92.4l16.7-7.8c3.8,2.3,5.4,5.7,4.8,10.2l-16.5,7.8C74.1,106,69,96.1,76.9,92.4z"/>
				<path class="st3" d="M99.6,81.4c3.2-2.6,6.2-2.9,5.1,1c1.5-0.9,5.3-1.9,6.5,0.6c2.2,5-3.4,8.5-9.6,9C97.8,92.4,94,86,99.6,81.4z
					"/>
				<path class="st4" d="M97.9,94.9c-0.6-3.4-2.9-8.1-4.8-10.1c-0.6-0.6,0-1.2,0.5-1.4c1.4-0.7,2.9-1.3,3.8-0.4
					c2.5,2.5,4.3,6.5,4.6,9.8c0.1,1.3-1.4,2.1-2.7,2.6C98.8,95.7,98.1,95.5,97.9,94.9z"/>
			</g>
			<g>
				<path class="st3" d="M28.1,124.4c-1,0.6-3.5-0.7-5.4,1c-1.9,1.7-3.1,4.3,2.3,9.3c5.1,4.6,8.6,2.5,10.9-1.1
					C38.3,130,31.4,122.5,28.1,124.4z"/>
				
					<rect x="30.7" y="110.3" transform="matrix(0.765 -0.644 0.644 0.765 -64.0651 57.3001)" class="st2" width="31.5" height="12.4"/>
				<path class="st4" d="M40,129.9c-3.1-2.1-6.7-6.6-7.8-9.3c-0.4-0.8-1.2-0.5-1.7-0.2c-0.3,0.2-0.6,0.4-0.8,0.7
					c-1.3,1.1-2.5,2.3-2.1,3.6c1.3,3.6,4.4,7.2,7.7,9c1.2,0.7,2.7-0.5,3.9-1.5c0.2-0.2,0.5-0.4,0.7-0.6
					C40.4,131.1,40.6,130.3,40,129.9z"/>
			</g>
			<g>
				<path class="st3" d="M66.2,138.4c-0.1,1.2,2,2.9,1.2,5.4c-0.8,2.5-2.7,4.6-9.4,1.6c-6.3-2.8-5.7-6.9-3.4-10.5
					C57,131.3,66.6,134.6,66.2,138.4z"/>
				
					<rect x="50.4" y="112.2" transform="matrix(0.282 -0.9594 0.9594 0.282 -66.112 148.4596)" class="st2" width="31.5" height="12.4"/>
				<path class="st4" d="M56.4,129.8c3.2,2,8.7,3.5,11.7,3.4c0.9,0,1,0.9,0.8,1.4c-0.1,0.3-0.2,0.7-0.3,1c-0.4,1.6-1,3.2-2.5,3.3
					c-3.8,0.3-8.3-1.1-11.4-3.4c-1.1-0.8-0.7-2.7-0.2-4.2c0.1-0.3,0.2-0.6,0.3-0.9C55.2,129.8,55.8,129.4,56.4,129.8z"/>
			</g>
			<g>
				<path class="st2" d="M37.6,92.4L22.2,82.2c-4.1,1.7-6.1,4.9-6.3,9.4l15.2,10.2C38.3,106.4,44.9,97.4,37.6,92.4z"/>
				<path class="st3" d="M16.8,78.2c-2.8-3.1-5.7-3.7-5.2,0.3c-1.4-1.2-5-2.7-6.5-0.4c-3,4.6,2,8.9,8.2,10.4
					C16.9,89.3,21.7,83.6,16.8,78.2z"/>
				<path class="st4" d="M16.4,91.8c1.1-3.3,4.1-7.6,6.2-9.3c0.6-0.5,0.2-1.2-0.3-1.5c-1.3-0.9-2.6-1.7-3.7-0.9
					c-2.8,2.1-5.2,5.8-6,9c-0.3,1.2,1.1,2.2,2.3,3C15.5,92.5,16.2,92.4,16.4,91.8z"/>
			</g>
			<g>
				<path class="st5" d="M61.5,125.8c16,0,29.1-11.3,29.1-25.1c0-13.8-13.1-25.1-29.1-25.1c-16,0-29.1,11.3-29.1,25.1
					C32.4,114.6,45.5,125.8,61.5,125.8z"/>
				<path class="st3" d="M82.5,118.1c-12.5,5.5-29.4,5.5-42.1-0.1c-2.4-2.2-4.3-4.7-5.7-7.5c15.1,9.6,38.6,9.6,53.6,0
					C86.9,113.3,85,115.9,82.5,118.1z"/>
				<path class="st6" d="M61.5,115.5h2.9c0.7,0,1.3,0.3,1.8,0.7l0,0c0.5,0.5,0.7,1.1,0.7,1.8v3.6c0,0.7-0.3,1.3-0.7,1.8l0,0
					c-0.5,0.5-1.1,0.7-1.8,0.7h-2.9V122h2.9c0.1,0,0.2,0,0.3-0.1l0,0c0.1-0.1,0.1-0.2,0.1-0.3v-3.6c0-0.1,0-0.2-0.1-0.3l0,0
					c-0.1-0.1-0.2-0.1-0.3-0.1h-2.9V115.5z M58.6,115.5h2.9v2.2h-2.9c-0.1,0-0.2,0-0.3,0.1l0,0c-0.1,0.1-0.1,0.2-0.1,0.3v3.6
					c0,0.1,0,0.2,0.1,0.3l0,0c0.1,0.1,0.2,0.1,0.3,0.1h2.9v2.2h-2.9c-0.7,0-1.3-0.3-1.8-0.7l0,0c-0.5-0.5-0.7-1.1-0.7-1.8v-3.6
					c0-0.7,0.3-1.3,0.7-1.8l0,0C57.3,115.8,57.9,115.5,58.6,115.5z"/>
			</g>
			<g>
				
					<ellipse transform="matrix(0.9646 -0.2637 0.2637 0.9646 -17.6572 17.4032)" class="st4" cx="56" cy="74.5" rx="33.3" ry="20.1"/>
				<path class="st4" d="M33.4,68.5c7-1.9,14.1,1.8,15.8,8.2c1.8,6.5-2.5,13.2-9.4,15.1c-7,1.9-14.1-1.8-15.8-8.2
					C22.2,77.2,26.5,70.5,33.4,68.5z"/>
				<path class="st7" d="M49.9,52.2c12.5-3.4,25.1,2.6,28,13.5c3,10.9-4.8,22.4-17.3,25.8c-12.5,3.4-25.1-2.6-28-13.5
					C29.6,67.1,37.4,55.6,49.9,52.2z"/>
				<g>
					<path class="st4" d="M44.2,72.7c7.4-2,14.8,1.6,16.6,8C62.6,87.2,58,94,50.6,96.1c-7.4,2-14.8-1.6-16.6-8
						C32.3,81.6,36.8,74.7,44.2,72.7z"/>
					<path class="st4" d="M65.2,66.9c-7.4,2-12,8.9-10.2,15.4c1.8,6.5,9.2,10,16.6,8c7.4-2,12-8.9,10.2-15.4
						C80.1,68.5,72.6,64.9,65.2,66.9z"/>
				</g>
				<path class="st4" d="M37.3,80.9c7-1.9,14.2,2.2,16.1,9.2c1.9,7-2.2,14.2-9.2,16.2c-7,1.9-14.2-2.2-16.1-9.2
					C26.2,90,30.3,82.8,37.3,80.9z"/>
				<path class="st4" d="M74.8,74.3c-7,1.9-11.1,9.1-9.2,16.2c1.9,7,9.1,11.2,16.1,9.2c7-1.9,11.1-9.1,9.2-16.2S81.8,72.4,74.8,74.3
					z"/>
				<path class="st4" d="M59.5,87.2c-7,1.9-11.1,9.1-9.2,16.2c1.9,7,9.1,11.2,16.1,9.2c7-1.9,11.1-9.1,9.2-16.2
					C73.7,89.5,66.5,85.3,59.5,87.2z"/>
				<path class="st8" d="M41.4,69.5c0,0.3-0.3,0.5-0.6,0.4c-0.3,0-0.5-0.3-0.4-0.6c0.1-0.4,0.3-0.9,0.6-1.3c0.6-0.7,1.5-1.3,2.6-1.7
					c1.1-0.4,2.2-0.6,3.2-0.5c0.7,0.1,1.3,0.3,1.8,0.7c0.2,0.2,0.2,0.5,0.1,0.7c-0.2,0.2-0.5,0.2-0.7,0.1c-0.3-0.3-0.8-0.4-1.2-0.5
					c-0.9-0.1-1.9,0.1-2.8,0.4c-0.9,0.3-1.7,0.8-2.2,1.4C41.6,69,41.5,69.2,41.4,69.5z"/>
				<path class="st9" d="M53.5,65.2c3.4-0.9,6.9,1.1,7.9,4.5c0.9,3.4-1.1,6.9-4.5,7.9c-3.4,0.9-6.9-1.1-7.9-4.5
					C48,69.6,50.1,66.1,53.5,65.2z"/>
				<path class="st4" d="M61.9,56.4c-3.3-0.1-6.1,1.2-6.1,2.8c0,1.6,2.9,0,6.3,0.1c3.3,0.1,5.8,1.7,5.9,0.1
					C68,57.8,65.3,56.5,61.9,56.4z"/>
				<path class="st4" d="M42.1,61.9c2.9-1.8,5.8-2.1,6.7-0.7c0.8,1.4-2.5,1.5-5.3,3.3c-2.9,1.8-4.2,4.4-5,3.1
					C37.6,66.1,39.2,63.6,42.1,61.9z"/>
				<path class="st10" d="M51.3,80.2c-0.2-0.2-0.2-0.5,0-0.7c0.2-0.2,0.5-0.2,0.7,0c0.3,0.3,0.8,0.5,1.4,0.7
					c1.2,0.3,2.7,0.3,4.2-0.1c1.5-0.4,2.8-1,3.7-2c0.4-0.4,0.6-0.9,0.8-1.4c0.1-0.3,0.3-0.4,0.6-0.4c0.3,0.1,0.4,0.3,0.4,0.6
					c-0.2,0.7-0.5,1.2-1,1.8c-1,1.1-2.6,1.9-4.2,2.3c-1.6,0.4-3.4,0.5-4.7,0.1C52.4,80.9,51.8,80.6,51.3,80.2z"/>
				<path class="st5" d="M67.3,44c-6.2-14.6-17.4-25-32.8-11.2C19.1,46.6,14,53.1,31.7,49.7C49.2,46.2,55.5,47.5,67.3,44z"/>
				<path class="st2" d="M35.8,48.5c-1.1-3.2,2.4-12.3,9.2-13.8C51.7,33.1,37.9,35.9,35.8,48.5z"/>
				<path class="st4" d="M17.4,38.1c5.1-1.4,10.4,1.6,11.8,6.7c1.4,5.1-1.6,10.4-6.7,11.8c-5.1,1.4-10.4-1.6-11.8-6.7
					C9.3,44.7,12.3,39.5,17.4,38.1z"/>
				<path class="st4" d="M46.6,40c14-3.8,28.1,2.9,31.4,15.1c0.8,2.8,0.9,5.7,0.5,8.4c-5.9-7.2-16.7-10.5-27.5-7.6
					c-10.8,2.9-18.4,11.3-19.8,20.5c-1.8-2.2-3.1-4.7-3.9-7.5C23.9,56.8,32.6,43.8,46.6,40z"/>
				<path class="st11" d="M51.8,67.5c0.9-0.3,1.9,0.3,2.1,1.2c0.3,0.9-0.3,1.9-1.2,2.1c-0.9,0.3-1.9-0.3-2.1-1.2
					C50.4,68.7,50.9,67.7,51.8,67.5z"/>
				<path class="st8" d="M67.1,62c0.2,0.2,0.1,0.5-0.1,0.7c-0.2,0.2-0.5,0.1-0.7-0.1c-0.1-0.2-0.4-0.3-0.7-0.4
					C65,62,64,61.9,63.1,62.1c-1,0.2-1.9,0.5-2.6,1.1c-0.4,0.3-0.7,0.7-0.8,1.1c-0.1,0.3-0.4,0.4-0.6,0.3c-0.3-0.1-0.4-0.4-0.3-0.6
					c0.2-0.6,0.6-1.1,1.2-1.5c0.8-0.6,1.9-1.1,3-1.2c1.1-0.2,2.3-0.2,3.1,0.1C66.5,61.4,66.9,61.7,67.1,62z"/>
			</g>
			<g>
				<g>
					<path class="st5" d="M121,61.2c0.8-0.6,4.7-1.3,5.3-1c0.7,0.3,0.2,4.2-0.5,4.5c-0.8,0.3-4.5-1.1-5.1-1.7
						C120,62.4,120.3,61.8,121,61.2z"/>
					<path class="st2" d="M120.6,62c0.2-0.7,2.4-1.2,2.4-0.6c0,0.6-2,0-2,0.6c0,0.6,1.3,0.6,1,1.2C121.7,63.7,120.4,62.7,120.6,62z"
						/>
					<path class="st5" d="M118.6,59.8c0.1-1-1.2-4.6-1.9-5c-0.6-0.4-3.9,2-3.7,2.8c0.1,0.8,3.3,3.2,4.1,3.4
						C118.1,61.2,118.5,60.6,118.6,59.8z"/>
					<path class="st2" d="M118.2,60.5c0.6-0.5-0.1-2.6-0.7-2.3c-0.6,0.3,1,1.6,0.5,2c-0.5,0.3-1.2-0.8-1.5-0.2
						C116.2,60.5,117.6,61,118.2,60.5z"/>
					<path class="st2" d="M120.1,60.5c0.9,0.6,1.3,0.8,0.8,1.6c-0.5,0.8-0.4,1.2-2,0.3c-1.6-0.8-1.7-1.2-1.1-1.9
						C118.4,59.9,118.7,59.6,120.1,60.5z"/>
					<path class="st5" d="M120,60.6c0.8,0.5,1.2,0.7,0.7,1.4c-0.4,0.7-0.3,1-1.8,0.2c-1.4-0.7-1.5-1-1-1.6
						C118.5,60.1,118.7,59.8,120,60.6z"/>
				</g>
				<g>
					
						<rect x="100.9" y="60.9" transform="matrix(0.4916 -0.8708 0.8708 0.4916 -6.4486 135.261)" class="st12" width="23.4" height="24.4"/>
					
						<rect x="116.1" y="53.6" transform="matrix(0.4916 -0.8708 0.8708 0.4916 2.0238 135.1372)" class="st13" width="1.4" height="24.4"/>
					
						<rect x="116" y="49.3" transform="matrix(0.4916 -0.8708 0.8708 0.4916 4.8742 135.0961)" class="st12" width="4.3" height="28.1"/>
				</g>
				
					<rect x="100.5" y="70.9" transform="matrix(0.4916 -0.8708 0.8708 0.4916 -5.6068 135.2386)" class="st5" width="25.1" height="3"/>
			</g>
			<g>
				<g>
					<path class="st5" d="M103.6,31.1c0.1-1,2.3-4.3,3-4.5c0.7-0.3,3.2,2.8,2.9,3.5c-0.3,0.8-3.9,2.5-4.8,2.5
						C103.8,32.7,103.5,32,103.6,31.1z"/>
					<path class="st2" d="M103.8,32c-0.4-0.6,0.7-2.6,1.2-2.2c0.5,0.4-1.3,1.4-1,1.9c0.4,0.5,1.3-0.5,1.5,0.1
						C105.8,32.3,104.3,32.6,103.8,32z"/>
					<path class="st5" d="M100.9,31.8c-0.6-0.8-4.1-2.3-4.9-2.1c-0.7,0.2-1.2,4.2-0.6,4.6c0.7,0.5,4.5-0.2,5.3-0.7
						C101.6,33.2,101.4,32.5,100.9,31.8z"/>
					<path class="st2" d="M101.1,32.7c0-0.8-2-1.7-2.2-1.1c-0.2,0.6,1.9,0.4,1.8,1c-0.1,0.6-1.4,0.3-1.2,0.9
						C99.7,34.1,101.1,33.5,101.1,32.7z"/>
					<path class="st2" d="M102.4,31.3c1-0.2,1.5-0.4,1.7,0.5c0.2,1,0.5,1.1-1.2,1.7c-1.7,0.6-2,0.4-2.1-0.5
						C100.8,32.1,100.8,31.7,102.4,31.3z"/>
					<path class="st5" d="M102.4,31.4c0.9-0.2,1.3-0.4,1.5,0.4c0.2,0.8,0.5,0.9-1.1,1.4c-1.5,0.5-1.8,0.4-1.8-0.4
						C101,32.2,101,31.8,102.4,31.4z"/>
				</g>
				<g>
					
						<rect x="94.2" y="33.8" transform="matrix(0.9574 -0.2889 0.2889 0.9574 -8.5919 32.6717)" class="st14" width="24.4" height="23.4"/>
					
						<rect x="91.7" y="36.7" transform="matrix(0.9574 -0.2889 0.2889 0.9574 -6.3715 31.6279)" class="st15" width="24.4" height="1.4"/>
					
						<rect x="89.1" y="32.6" transform="matrix(0.9574 -0.2889 0.2889 0.9574 -5.6246 31.2769)" class="st14" width="28.1" height="4.3"/>
				</g>
				
					<rect x="104.7" y="32.1" transform="matrix(0.9574 -0.2889 0.2889 0.9574 -8.3699 32.5679)" class="st5" width="3" height="25.1"/>
			</g>
			<g>
				<g>
					<path class="st5" d="M116.7,4.4c0.5-0.9,3.8-3,4.6-2.9c0.7,0.1,1.8,3.8,1.2,4.4c-0.6,0.6-4.6,0.6-5.4,0.3
						C116.3,5.9,116.3,5.1,116.7,4.4z"/>
					<path class="st2" d="M116.6,5.2c-0.1-0.8,1.7-2,2-1.5c0.3,0.6-1.8,0.7-1.6,1.3c0.2,0.6,1.4,0,1.3,0.7
						C118.2,6.4,116.7,6,116.6,5.2z"/>
					<path class="st5" d="M114,3.9c-0.3-1-2.8-3.8-3.6-3.9c-0.7-0.1-2.8,3.3-2.4,4c0.4,0.7,4.2,1.7,5.1,1.6
						C114,5.5,114.2,4.8,114,3.9z"/>
					<path class="st2" d="M113.8,4.8c0.3-0.7-1.1-2.4-1.5-1.9c-0.4,0.5,1.5,1.1,1.2,1.6c-0.3,0.5-1.4-0.3-1.5,0.4
						C111.9,5.5,113.5,5.5,113.8,4.8z"/>
					<path class="st2" d="M115.6,4.1c1,0.2,1.5,0.2,1.3,1.2c-0.2,1,0,1.2-1.7,1.1c-1.8-0.2-2-0.5-1.7-1.3
						C113.8,4.2,113.9,3.8,115.6,4.1z"/>
					<path class="st5" d="M115.5,4.2c0.9,0.2,1.3,0.2,1.2,1c-0.1,0.8,0,1-1.6,0.9c-1.6-0.1-1.8-0.4-1.5-1.1
						C113.9,4.3,114.1,3.9,115.5,4.2z"/>
				</g>
				<g>
					
						<rect x="101.7" y="6.4" transform="matrix(0.1317 -0.9913 0.9913 0.1317 80.0203 128.5172)" class="st12" width="23.4" height="24.4"/>
					
						<rect x="113.8" y="-2" transform="matrix(0.1316 -0.9913 0.9913 0.1316 89.2399 122.381)" class="st13" width="1.4" height="24.4"/>
					
						<rect x="112.7" y="-6.6" transform="matrix(0.1316 -0.9913 0.9913 0.1316 92.3405 120.3168)" class="st12" width="4.3" height="28.1"/>
				</g>
				
					<rect x="101" y="16.3" transform="matrix(0.1316 -0.9913 0.9913 0.1316 80.9448 127.9044)" class="st5" width="25.1" height="3"/>
			</g>
		</g>
	</g>
</g>
<g id="DESIGNED_BY_FREEPIK">
</g>
</svg>
