<svg xmlns="http://www.w3.org/2000/svg" viewBox="0 0 64 64"><path d="M59 55H5a2 2 0 0 1-2-2V11a2 2 0 0 1 2-2h54a2 2 0 0 1 2 2v42a2 2 0 0 1-2 2z" fill="#c5e4fa"/><path d="M37.105 55L60 32.105V14l1.105-3.895L16.215 55zM57.7 9.941L12.64 55H4.29l46-46H56c.71 0 1.34.379 1.7.941zM46.71 9L4 51.71v-3.96L42.75 9z" fill="#e3f2ff"/><path d="M3 43h58v12H3z" fill="#ced8ed"/><path d="M56 51H28c-.55 0-1-.45-1-1v-2c0-.55.45-1 1-1h28c.55 0 1 .45 1 1v2c0 .55-.45 1-1 1z" fill="#faefde"/><path d="M10 49a1.999 1.999 0 1 1-4 0 1.999 1.999 0 1 1 4 0z" fill="#ed7899"/><path d="M16 49a1.999 1.999 0 1 1-4 0 1.999 1.999 0 1 1 4 0z" fill="#ffeb9b"/><path d="M22 49a1.999 1.999 0 1 1-4 0 1.999 1.999 0 1 1 4 0z" fill="#72caaf"/><path d="M59 8H5c-1.652 0-3 1.348-3 3v42c0 1.652 1.348 3 3 3h54c1.652 0 3-1.348 3-3V11c0-1.652-1.348-3-3-3zM4 11c0-.55.45-1 1-1h54c.55 0 1 .45 1 1v31H4zm55 43H5c-.55 0-1-.45-1-1v-9h56v9c0 .55-.45 1-1 1z" fill="#8d6c9f"/><path d="M17 12a1 1 0 0 0-1 1v2a1 1 0 1 0 2 0v-2a1 1 0 0 0-1-1zm-5 0a1 1 0 0 0-1 1v2a1 1 0 1 0 2 0v-2a1 1 0 0 0-1-1zm-5 0a1 1 0 0 0-1 1v2a1 1 0 1 0 2 0v-2a1 1 0 0 0-1-1zm15 0a1 1 0 0 0-1 1v2a1 1 0 1 0 2 0v-2a1 1 0 0 0-1-1zm5 0a1 1 0 0 0-1 1v2a1 1 0 1 0 2 0v-2a1 1 0 0 0-1-1zm5 0a1 1 0 0 0-1 1v2a1 1 0 1 0 2 0v-2a1 1 0 0 0-1-1zm5 0a1 1 0 0 0-1 1v2a1 1 0 1 0 2 0v-2a1 1 0 0 0-1-1zm5 0a1 1 0 0 0-1 1v2a1 1 0 1 0 2 0v-2a1 1 0 0 0-1-1zm5 0a1 1 0 0 0-1 1v2a1 1 0 1 0 2 0v-2a1 1 0 0 0-1-1zm5 0a1 1 0 0 0-1 1v2a1 1 0 1 0 2 0v-2a1 1 0 0 0-1-1zm5 0a1 1 0 0 0-1 1v2a1 1 0 1 0 2 0v-2a1 1 0 0 0-1-1zm-1 34H28c-1.102 0-2 .898-2 2v2c0 1.102.898 2 2 2h28c1.102 0 2-.898 2-2v-2c0-1.102-.898-2-2-2zm-28 4v-2h28v2z" fill="#8d6c9f"/><path d="M16.664 20.832l1.238 2.266 2.266 1.238-2.266 1.238-1.238 2.266-1.238-2.266-2.266-1.238 2.266-1.238zM50.582 19l.855 1.563 1.563.855-1.563.855-.855 1.567-.855-1.567-1.567-.855 1.567-.855zm-8.773 15.543l.586 1.062 1.062.586-1.062.582-.586 1.067-.582-1.067-1.067-.582 1.067-.586z" fill="#fff8f8"/></svg>