<svg xmlns="http://www.w3.org/2000/svg" viewBox="0 0 16 16"><path style="line-height:normal;text-indent:0;text-align:start;text-decoration-line:none;text-decoration-style:solid;text-decoration-color:#000;text-transform:none;block-progression:tb;isolation:auto;mix-blend-mode:normal" d="M3.5 2C2.677 2 2 2.677 2 3.5V7h1V3.5c0-.281.219-.5.5-.5h9c.281 0 .5.219.5.5V7h1V3.5c0-.823-.677-1.5-1.5-1.5h-9zm-2 6C.677 8 0 8.677 0 9.5V13h1V9.5c0-.281.219-.5.5-.5s.5.219.5.5V13h1V9.5c0-.281.219-.5.5-.5s.5.219.5.5v3c0 .823.677 1.5 1.5 1.5.176 0 .343-.037.5-.094v.594a.5.5 0 0 1-.5.5H4.092c.207.581.757 1 1.408 1 .827 0 1.5-.673 1.5-1.5V11H6v1.5c0 .281-.219.5-.5.5a.493.493 0 0 1-.5-.5v-3C5 8.677 4.323 8 3.5 8c-.384 0-.733.151-1 .393A1.488 1.488 0 0 0 1.5 8zm7 0c-.59 0-.935.238-1.121.44-.411.442-.381 1.032-.377 1.06 0 .808.734 1.172 1.271 1.44.426.21.727.374.727.568 0 .002-.01.244-.14.377-.03.029-.113.115-.36.115H7.092c.06.191.156.403.338.588.185.188.521.412 1.07.412s.886-.225 1.072-.414c.426-.433.427-1.028.426-1.086 0-.82-.74-1.188-1.281-1.457-.42-.208-.714-.37-.715-.574 0-.002-.009-.227.111-.352C8.187 9.04 8.318 9 8.5 9h1.414c-.168-.503-.598-1-1.414-1zm4 0c-.823 0-1.5.677-1.5 1.5v2c0 .757.576 1.384 1.309 1.48l.566 1.02H14l-.67-1.256c.402-.27.67-.728.67-1.244v-2c0-.823-.677-1.5-1.5-1.5zM15 8v5h1V8h-1zm-2.5 1c.281 0 .5.219.5.5v2c0 .281-.219.5-.5.5a.493.493 0 0 1-.5-.5v-2c0-.281.219-.5.5-.5z" font-weight="400" font-family="sans-serif" white-space="normal" overflow="visible"/></svg>