<svg xmlns="http://www.w3.org/2000/svg" viewBox="0 0 16 16"><path style="line-height:normal;text-indent:0;text-align:start;text-decoration-line:none;text-decoration-style:solid;text-decoration-color:#000;text-transform:none;block-progression:tb;isolation:auto;mix-blend-mode:normal" d="M4.5 2C3.677 2 3 2.677 3 3.5V8h1V3.5c0-.281.219-.5.5-.5H9v3h3v2h1V5.293L9.707 2H4.5zM10 3.707L11.293 5H10V3.707zM3 9v5h1v-2h.5c.823 0 1.5-.677 1.5-1.5S5.323 9 4.5 9H3zm4 0v5h1v-2.643L9 14h1V9H9v2.643L8 9H7zm5.5 0c-.823 0-1.5.677-1.5 1.5v2c0 .823.677 1.5 1.5 1.5s1.5-.677 1.5-1.5V12h-1.5v1a.493.493 0 0 1-.5-.5v-2c0-.281.219-.5.5-.5s.5.219.5.5h1c0-.823-.677-1.5-1.5-1.5zM4 10h.5c.281 0 .5.219.5.5s-.219.5-.5.5H4v-1z"/></svg>