<svg xmlns="http://www.w3.org/2000/svg" viewBox="0 0 16 16"><path style="line-height:normal;text-indent:0;text-align:start;text-decoration-line:none;text-decoration-style:solid;text-decoration-color:#000;text-transform:none;block-progression:tb;isolation:auto;mix-blend-mode:normal" d="M3.5 2C2.677 2 2 2.677 2 3.5V8h1V3.5c0-.281.219-.5.5-.5h9c.281 0 .5.219.5.5v9c0 .281-.219.5-.5.5H9v1h3.5c.823 0 1.5-.677 1.5-1.5v-9c0-.823-.677-1.5-1.5-1.5h-9zM2 9v5h1v-2h.5c.823 0 1.5-.677 1.5-1.5S4.323 9 3.5 9H2zm4 0l1 2.5V14h1v-2.5L9 9H8l-.5 1.25L7 9H6zm-3 1h.5c.281 0 .5.219.5.5s-.219.5-.5.5H3v-1z" font-weight="400" font-family="sans-serif" white-space="normal" overflow="visible"/></svg>