<svg xmlns="http://www.w3.org/2000/svg" viewBox="0 0 16 16"><path style="line-height:normal;text-indent:0;text-align:start;text-decoration-line:none;text-decoration-style:solid;text-decoration-color:#000;text-transform:none;block-progression:tb;isolation:auto;mix-blend-mode:normal" d="M4.5 2C3.677 2 3 2.677 3 3.5V8h1V3.5c0-.281.219-.5.5-.5H9v3h3v2h1V5.293L9.707 2H4.5zM10 3.707L11.293 5H10V3.707zM4.5 9C3.677 9 3 9.677 3 10.5v2c0 .757.576 1.384 1.309 1.48L4.875 15H6l-.67-1.256c.402-.27.67-.728.67-1.244v-2C6 9.677 5.323 9 4.5 9zM7 9v1h1v4h1v-4h1V9H7zm4 0v5h1V9h-1zm-6.5 1c.281 0 .5.219.5.5v2c0 .281-.219.5-.5.5a.493.493 0 0 1-.5-.5v-2c0-.281.219-.5.5-.5z"/></svg>