<svg xmlns="http://www.w3.org/2000/svg" viewBox="0 0 16 16"><path style="line-height:normal;text-indent:0;text-align:start;text-decoration-line:none;text-decoration-style:solid;text-decoration-color:#000;text-transform:none;block-progression:tb;isolation:auto;mix-blend-mode:normal" d="M4.5 2C3.677 2 3 2.677 3 3.5V8h1V3.5c0-.281.219-.5.5-.5H9v3h3v2h1V5.293L9.707 2H4.5zM10 3.707L11.293 5H10V3.707zM3 9v5h1v-1.459L4.875 14H6l-1.217-2.03A1.508 1.508 0 0 0 6 10.5C6 9.677 5.323 9 4.5 9H3zm5.5 0C7.677 9 7 9.677 7 10.5V14h1v-1.002l1-.002V14h1v-3.5C10 9.677 9.323 9 8.5 9zM11 9v5h1v-1.459L12.875 14H14l-1.217-2.03A1.508 1.508 0 0 0 14 10.5c0-.823-.677-1.5-1.5-1.5H11zm-7 1h.5c.281 0 .5.219.5.5s-.219.5-.5.5H4v-1zm4.5 0c.281 0 .5.219.5.5v1.496l-1 .002V10.5c0-.281.219-.5.5-.5zm3.5 0h.5c.281 0 .5.219.5.5s-.219.5-.5.5H12v-1z"/></svg>