<svg xmlns="http://www.w3.org/2000/svg" viewBox="0 0 40 40"><path d="M8.5 2.5h27v31h-27z" fill="#dff0fe"/><path d="M35 3v30H9V3h26m1-1H8v32h28z" fill="#4788c7"/><path d="M5.5 35V5c0-1.379 1.121-2.5 2.5-2.5h.5V35z" fill="#4788c7"/><path d="M8 3v31.5H6V5c0-1.102.898-2 2-2m1-1H8a3 3 0 0 0-3 3v30.5h4z" fill="#4788c7"/><path d="M9 3H8a2 2 0 0 0-2 2v30.23h3z" fill="#98ccfd"/><path d="M7.5 37.5c-1.102 0-2-.898-2-2 0-1.102.898-2 2-2h28v.34c-.18.273-.5.87-.5 1.66 0 .79.32 1.387.5 1.66v.34z" fill="#fff"/><path d="M34.84 34c-.176.371-.34.883-.34 1.5s.164 1.129.34 1.5H7.5a1.5 1.5 0 0 1 0-3h27.34M36 33H7.5A2.497 2.497 0 0 0 5 35.5C5 36.883 6.117 38 7.5 38H36v-1s-.5-.598-.5-1.5.5-1.5.5-1.5z" fill="#4788c7"/></svg>