<svg xmlns="http://www.w3.org/2000/svg" viewBox="0 0 16 16"><path style="line-height:normal;text-indent:0;text-align:start;text-decoration-line:none;text-decoration-style:solid;text-decoration-color:#000;text-transform:none;block-progression:tb;isolation:auto;mix-blend-mode:normal" d="M4.5 2C3.677 2 3 2.677 3 3.5v9c0 .823.677 1.5 1.5 1.5H8v1.5a.5.5 0 0 0 .5.5h7a.5.5 0 0 0 .5-.5v-5a.5.5 0 0 0-.146-.354l-2-2A.5.5 0 0 0 13.5 8H13V5.293L9.707 2H4.5zm0 1H7v1h1V3h1.293L12 5.707V8H8V7H7v3a1 1 0 0 0 1 1v2H4.5a.493.493 0 0 1-.5-.5v-9c0-.281.219-.5.5-.5zM8 7h1V6H8v1zm0-1V5H7v1h1zm0-1h1V4H8v1zm1 4h4.293L15 10.707V15H9V9zm1 1v1h3v-1h-3zm2 2a1 1 0 0 0-1 1 1 1 0 0 0 1 1 1 1 0 0 0 1-1 1 1 0 0 0-1-1z"/></svg>