<svg xmlns="http://www.w3.org/2000/svg" viewBox="0 0 16 16"><path style="line-height:normal;text-indent:0;text-align:start;text-decoration-line:none;text-decoration-style:solid;text-decoration-color:#000;text-transform:none;block-progression:tb;isolation:auto;mix-blend-mode:normal" d="M4.5 2C3.677 2 3 2.677 3 3.5v9c0 .823.677 1.5 1.5 1.5h7c.823 0 1.5-.677 1.5-1.5V5.293l-.146-.147L9.707 2H4.5zm0 1H9v3h3v6.5c0 .281-.219.5-.5.5h-7a.493.493 0 0 1-.5-.5v-9c0-.281.219-.5.5-.5zm5.5.707L11.293 5H10V3.707zM6.5 7l1.38 1.38c-.14.106-.383.282-.77.618-.245.211-.49.44-.692.668-.202.228-.418.396-.418.834 0 .379.159.72.379.941.22.223.48.344.717.42.473.154.914.139.914.139H9v-1H7.99s-.309 0-.586-.09a.824.824 0 0 1-.314-.172.272.272 0 0 1-.08-.168c.014-.002.053-.125.158-.244.15-.17.373-.38.598-.574.41-.356.754-.61.824-.662L10 10.5V7H6.5z" font-weight="400" font-family="sans-serif" white-space="normal" overflow="visible"/></svg>