<svg xmlns="http://www.w3.org/2000/svg" viewBox="0 0 16 16"><path d="M3.5 2C2.677 2 2 2.677 2 3.5V8h1V3.5c0-.281.219-.5.5-.5h9c.281 0 .5.219.5.5V8h1V3.5c0-.823-.677-1.5-1.5-1.5h-9zm1 7c-.59 0-.935.238-1.121.44-.411.442-.38 1.032-.377 1.06 0 .808.734 1.172 1.271 1.44.426.21.727.374.727.568 0 .002-.01.244-.14.377-.03.029-.113.115-.36.115H3.092c.06.191.156.403.338.588.185.188.521.412 1.07.412s.886-.225 1.072-.414c.426-.433.427-1.028.426-1.086 0-.82-.74-1.188-1.281-1.457-.42-.208-.714-.37-.715-.574 0-.002-.009-.227.111-.352.074-.077.205-.117.387-.117h1.414c-.168-.503-.598-1-1.414-1zm4 0C7.677 9 7 9.677 7 10.5v2c0 .757.576 1.384 1.309 1.48L8.875 15H10l-.67-1.256c.402-.27.67-.728.67-1.244v-2C10 9.677 9.323 9 8.5 9zM11 9v5h2v-1h-1V9h-1zm-2.5 1c.281 0 .5.219.5.5v2c0 .281-.219.5-.5.5a.493.493 0 0 1-.5-.5v-2c0-.281.219-.5.5-.5z"/></svg>