<svg xmlns="http://www.w3.org/2000/svg" viewBox="0 0 16 16"><path style="line-height:normal;text-indent:0;text-align:start;text-decoration-line:none;text-decoration-style:solid;text-decoration-color:#000;text-transform:none;block-progression:tb;isolation:auto;mix-blend-mode:normal" d="M6.5 2c-.647 0-1.198.421-1.406 1H4.5c-.647 0-1.198.421-1.406 1H2.5C1.677 4 1 4.677 1 5.5v5c0 .823.677 1.5 1.5 1.5h.594c.208.579.76 1 1.406 1h.594c.208.579.76 1 1.406 1h7c.823 0 1.5-.677 1.5-1.5v-9c0-.823-.677-1.5-1.5-1.5h-7zm0 1h7c.281 0 .5.219.5.5v9c0 .281-.219.5-.5.5h-7a.493.493 0 0 1-.5-.5v-9c0-.281.219-.5.5-.5zm-2 1H5v8h-.5a.493.493 0 0 1-.5-.5v-7c0-.281.219-.5.5-.5zm-2 1H3v6h-.5a.493.493 0 0 1-.5-.5v-5c0-.281.219-.5.5-.5z" font-weight="400" font-family="sans-serif" white-space="normal" overflow="visible"/></svg>