<svg xmlns="http://www.w3.org/2000/svg" viewBox="0 0 64 64"><linearGradient id="a" gradientUnits="userSpaceOnUse" x1="32" y1="11" x2="32" y2="53" gradientTransform="matrix(-1 0 0 1 64 0)" spreadMethod="reflect"><stop offset="0" stop-color="#1a6dff"/><stop offset="1" stop-color="#c822ff"/></linearGradient><path d="M57 11v2H7v-2h50zm0 20H7v2h50v-2zM43 21H7v2h36v-2zm0 20H7v2h36v-2zm14 10H7v2h50v-2z" fill="url(#a)"/><linearGradient id="b" gradientUnits="userSpaceOnUse" x1="9" y1="16" x2="9" y2="48" spreadMethod="reflect"><stop offset="0" stop-color="#6dc7ff"/><stop offset="1" stop-color="#e6abff"/></linearGradient><path d="M11 16v2H7v-2h4zm0 10v2H7v-2h4zm0 10v2H7v-2h4zm0 10v2H7v-2h4z" fill="url(#b)"/></svg>