<svg xmlns="http://www.w3.org/2000/svg" viewBox="0 0 64 64"><linearGradient id="a" gradientUnits="userSpaceOnUse" x1="36" y1="26" x2="36" y2="31.876" spreadMethod="reflect"><stop offset="0" stop-color="#6dc7ff"/><stop offset="1" stop-color="#e6abff"/></linearGradient><circle cx="36" cy="29" r="3" fill="url(#a)"/><linearGradient id="b" gradientUnits="userSpaceOnUse" x1="32" y1="7" x2="32" y2="57" spreadMethod="reflect"><stop offset="0" stop-color="#1a6dff"/><stop offset="1" stop-color="#c822ff"/></linearGradient><path d="M47.414 7H7v39.384L16.555 57H57V16.586L47.414 7zm6.172 9H17.414l-7-7h36.172l7 7zM9 10.414l7 7v35.98l-7-7.778V10.414zM18 55V18h37v29h-4v2h4v2h-6v2h6v2H18z" fill="url(#b)"/><linearGradient id="c" gradientUnits="userSpaceOnUse" x1="36" y1="30.017" x2="36" y2="48.606" spreadMethod="reflect"><stop offset="0" stop-color="#1a6dff"/><stop offset="1" stop-color="#c822ff"/></linearGradient><path d="M42.649 38.587l-4.811-7.561c-.402-.632-1.09-1.009-1.839-1.009s-1.437.377-1.839 1.009l-4.811 7.56A2.222 2.222 0 0 0 31.225 42H33v5c0 1.103.897 2 2 2h2c1.103 0 2-.897 2-2v-5h1.775c.812 0 1.558-.441 1.947-1.152a2.217 2.217 0 0 0-.073-2.261zm-1.679 1.298a.212.212 0 0 1-.195.115H37v7h-2v-7h-3.775a.21.21 0 0 1-.194-.115.21.21 0 0 1 .008-.225l4.811-7.56c.035-.055.086-.083.151-.083s.116.028.151.083l4.811 7.561a.21.21 0 0 1 .007.224z" fill="url(#c)"/><linearGradient id="d" gradientUnits="userSpaceOnUse" x1="36" y1="35" x2="36" y2="37.938" spreadMethod="reflect"><stop offset="0" stop-color="#6dc7ff"/><stop offset="1" stop-color="#e6abff"/></linearGradient><polygon points="38,38 34,38 36,35" fill="url(#d)"/></svg>