<svg xmlns="http://www.w3.org/2000/svg" viewBox="0 0 16 16"><path style="line-height:normal;text-indent:0;text-align:start;text-decoration-line:none;text-decoration-style:solid;text-decoration-color:#000;text-transform:none;block-progression:tb;isolation:auto;mix-blend-mode:normal" d="M3.5 2C2.677 2 2 2.677 2 3.5V8h1V3.5c0-.281.219-.5.5-.5h9c.281 0 .5.219.5.5V8h1V3.5c0-.823-.677-1.5-1.5-1.5h-9zM2 9l1 2.5L2 14h1l.5-1.25L4 14h1l-1-2.5L5 9H4l-.5 1.25L3 9H2zm5.5 0C6.677 9 6 9.677 6 10.5V14h1v-3.5c0-.281.219-.5.5-.5s.5.219.5.5V14h1v-3.5c0-.281.219-.5.5-.5s.5.219.5.5V14h1v-3.5c0-.823-.677-1.5-1.5-1.5-.384 0-.733.151-1 .393A1.488 1.488 0 0 0 7.5 9zM12 9v5h2v-1h-1V9h-1z" font-weight="400" font-family="sans-serif" white-space="normal" overflow="visible"/></svg>