<svg xmlns="http://www.w3.org/2000/svg" viewBox="0 0 64 64"><path d="M55 3.04a5.926 5.926 0 0 0-4.219 1.741L47.86 7.703a4.903 4.903 0 0 0-2.761-.836c-.504 0-.993.094-1.461.242-2.742-1.714-6.27-1.355-8.59.97l-12.73 12.726a.967.967 0 0 0 0 1.363.974.974 0 0 0 1.367 0l12.722-12.73c1.39-1.387 3.457-1.79 5.242-1.165-.02.016-.039.028-.054.047L12.44 37.47a17.05 17.05 0 0 0-4.097 6.629L5.688 52.07a2.946 2.946 0 0 0 .125 2.176l-1.938 4.566a.998.998 0 0 0 .215 1.098.996.996 0 0 0 1.098.215l4.57-1.938c.387.18.805.282 1.226.282.317 0 .637-.051.946-.157l7.972-2.656a17.05 17.05 0 0 0 6.63-4.097L55.68 22.406a4.917 4.917 0 0 0 1.457-3.504c0-1-.297-1.953-.84-2.761l2.918-2.922A5.924 5.924 0 0 0 60.965 9c0-1.594-.621-3.09-1.746-4.219A5.933 5.933 0 0 0 55 3.04zm0 1.92a4.01 4.01 0 0 1 2.855 1.188A3.997 3.997 0 0 1 59.035 9c0 1.078-.418 2.09-1.18 2.855L55 14.707 49.293 9l2.852-2.852A4.01 4.01 0 0 1 55 4.961zm-9.902 3.83c.812 0 1.574.32 2.148.89l7.07 7.074c.575.574.891 1.332.891 2.144 0 .813-.316 1.575-.89 2.149l-6.391 6.39-11.364-11.363 6.391-6.394a3.03 3.03 0 0 1 2.145-.89zm-1.493 3.534c-.253 0-.511.098-.707.29l-1.414 1.417a.995.995 0 0 0 0 1.41c.196.196.45.293.707.293a.993.993 0 0 0 .707-.293l1.414-1.41a1.004 1.004 0 0 0 0-1.418.98.98 0 0 0-.707-.289zm3.536 3.535a.985.985 0 0 0-.703.293l-1.418 1.41a1.004 1.004 0 0 0 0 1.418 1.015 1.015 0 0 0 1.417 0l1.41-1.418a.988.988 0 0 0 0-1.41.962.962 0 0 0-.706-.293zm-11.938 1.575l11.363 11.363-20.535 20.531-11.363-11.363zm15.473 1.96a1 1 0 0 0-.707.294l-1.41 1.414a.993.993 0 0 0 0 1.414.987.987 0 0 0 .707.293.985.985 0 0 0 .703-.293l1.418-1.414a1 1 0 0 0-.711-1.707zM35 20.767a.967.967 0 0 0-.684.28l-3 3A.962.962 0 0 0 32 25.689c.246 0 .492-.09.684-.282l3-3a.962.962 0 0 0-.684-1.64zm-6 6a.967.967 0 0 0-.684.28l-9.27 9.27a.963.963 0 0 0 0 1.364.971.971 0 0 0 .684.285.973.973 0 0 0 .676-.281l9.278-9.274a.967.967 0 0 0 0-1.363.974.974 0 0 0-.684-.281zM13.285 39.41L24.59 50.715c-1.535 1.379-3.34 2.46-5.297 3.113l-7.973 2.656a.966.966 0 0 1-.445.036 1.065 1.065 0 0 0-.168-.227l-3-3a1.054 1.054 0 0 0-.23-.168 1.024 1.024 0 0 1 .039-.445l2.656-7.973c.652-1.957 1.734-3.762 3.113-5.297z"/></svg>