<svg xmlns="http://www.w3.org/2000/svg" viewBox="0 0 40 40"><path d="M28.309 4.77l-1.332-1.332a2.998 2.998 0 0 0-4.524.324c-2.234 3.004-4.91 7.004-5.965 8.058-2.113 2.114-3.675 1.68-4.988 1.68" fill="none" stroke="#4788c7" stroke-miterlimit="10"/><path d="M6 35.246L4.754 34l-2.496 2.492a.886.886 0 0 0 0 1.25.886.886 0 0 0 1.25 0z" fill="#4788c7"/><path d="M3.906 34.473c.149-1.153 1.09-6.594 5.942-11.45l18.8-18.789C29.801 3.082 30.992 2.5 32.191 2.5c.844 0 2.149.3 3.582 1.734.836.836 3.309 3.82 0 7.125L16.977 30.15c-5.243 5.242-10.375 5.878-11.438 5.956z" fill="#dff0fe"/><path d="M32.191 3c.75 0 1.918.273 3.23 1.59.966.965 2.895 3.52 0 6.418l-.98.976-17.82 17.813c-4.805 4.805-9.527 5.644-10.894 5.789l-1.29-1.29c.227-1.48 1.297-6.452 5.766-10.917l.98-.98 17.82-17.81C30.06 3.536 31.13 3 32.192 3m0-1c-1.156 0-2.488.473-3.894 1.883L10.477 21.69l-.98.98c-5.645 5.645-6.11 11.985-6.11 11.985l1.957 1.957s5.914-.039 11.984-6.11l17.82-17.812.98-.976c3.778-3.777.599-7.238 0-7.836C35.747 3.5 34.247 2 32.192 2zM13 12.5a1.5 1.5 0 1 1-3 0 1.5 1.5 0 0 1 3 0z" fill="#4788c7"/><path d="M35.422 11.008L29.004 4.59l-17.82 17.808-.98.98 6.417 6.419 17.82-17.813z" fill="#98ccfd"/><path d="M28.297 5.293l.707-.707 6.418 6.422-.707.707z" fill="#4788c7"/></svg>