<svg xmlns="http://www.w3.org/2000/svg" viewBox="0 0 64 64"><linearGradient id="a" gradientUnits="userSpaceOnUse" x1="44" y1="9.038" x2="44" y2="34.81" spreadMethod="reflect"><stop offset="0" stop-color="#6dc7ff"/><stop offset="1" stop-color="#e6abff"/></linearGradient><rect x="36" y="9" width="16" height="26" fill="url(#a)"/><linearGradient id="b" gradientUnits="userSpaceOnUse" x1="32" y1="8" x2="32" y2="56" spreadMethod="reflect"><stop offset="0" stop-color="#1a6dff"/><stop offset="1" stop-color="#c822ff"/></linearGradient><path d="M7 8v2h4v43a3 3 0 0 0 3 3h12a3 3 0 0 0 3-3V10h6v23a3 3 0 0 0 3 3h12a3 3 0 0 0 3-3V10h4V8H7zm20 45a1 1 0 0 1-1 1H14a1 1 0 0 1-1-1V10h14v43zm24-20a1 1 0 0 1-1 1H38a1 1 0 0 1-1-1V10h14v23z" fill="url(#b)"/></svg>