<svg xmlns="http://www.w3.org/2000/svg" viewBox="0 0 50 50"><path d="M45.219 2c-1.668-.027-3.742 1.043-5.844 2.281l6.344 6.344c1.8-3.055 3.246-6.098 1.5-7.844-.547-.547-1.242-.77-2-.781zm-9.063 1.219c-2.148.097-5.613.926-9.156 4.469-3.621 3.617-5.207 6.57-6.25 8.53-.504.95-.91 1.684-1.344 2.157-.832.906-1.972.516-2.093.469a1 1 0 0 0-1.313.531 1 1 0 0 0 .531 1.313c.051.019.703.28 1.563.28.48 0 1.02-.097 1.562-.343a180.84 180.84 0 0 1 2.219-2.313c.207-.359.398-.73.625-1.156 1.047-1.968 2.496-4.656 5.906-8.062 3.242-3.239 6.317-3.899 8-3.938.246-.195.496-.347.688-.5l.687-.562.844-.532c-.094-.07-.172-.152-.281-.187-.082-.027-.899-.215-2.188-.156zm1.563 2.219A155.434 155.434 0 0 0 24.094 17.5C17.78 23.813 10.629 32.2 8.53 34.688l6.781 6.78c2.489-2.093 10.876-9.25 17.188-15.562a154.848 154.848 0 0 0 12.063-13.625zm-30.282 31C4.547 40.8 3.825 43.82 3.626 45c0 .004-.031-.004-.031 0L2.25 46.313c-.39.39-.39 1.046 0 1.437.195.195.46.281.719.281.258 0 .523-.086.719-.281L5 46.406c.004 0-.004-.031 0-.031 1.18-.2 4.203-.922 8.563-3.813z"/></svg>