<svg xmlns="http://www.w3.org/2000/svg" viewBox="0 0 64 64"><path d="M13.137 38.133l21.996-21.996 12.73 12.726-22 21.996z" fill="#ed7899"/><path d="M13.14 38.145l22-21.997 2.856 2.856-21.996 22z" fill="#f283a5"/><path d="M23.145 48.145L45.14 26.148 48 29.004l-22 22z" fill="#e0678f"/><path d="M58.531 5.469a4.998 4.998 0 0 1 0 7.07l-3.535 3.535-7.07-7.07 3.535-3.535a4.998 4.998 0 0 1 7.07 0z" fill="#f9dd8f"/><path d="M13.14 38.14l12.731 12.731a16.088 16.088 0 0 1-6.25 3.86l-8 2.66a2.007 2.007 0 0 1-2-.48l-2.5-2.5a1.992 1.992 0 0 1-.48-2l2.66-8a16.014 16.014 0 0 1 3.86-6.25z" fill="#72caaf"/><path d="M23 47.469l-.11 1.402a16.088 16.088 0 0 1-6.25 3.86l-8 2.66a2.16 2.16 0 0 1-.468.09l1.43 1.43a2.01 2.01 0 0 0 2 .48l8-2.66a16.088 16.088 0 0 0 6.25-3.86z" fill="#5dbc9d"/><path d="M9.602 55.379l2.66-8a16.042 16.042 0 0 1 3.86-6.25l-3-3a16.023 16.023 0 0 0-3.86 6.27l-2.66 8a1.997 1.997 0 0 0 .476 2l2.5 2.5c.094.081.188.152.293.21a1.988 1.988 0 0 1-.27-1.73z" fill="#82d8bb"/><path d="M55 21.73l-7.129 7.141-12.73-12.73L42.27 9a4.006 4.006 0 0 1 5.66 0L55 16.07a4.004 4.004 0 0 1 0 5.66z" fill="#72caaf"/><path d="M55 16.07L47.93 9a4.024 4.024 0 0 0-2.102-1.102L52 14.07a4.004 4.004 0 0 1 0 5.66l-6.629 6.641 2.5 2.5L55 21.731a4.006 4.006 0 0 0 0-5.66z" fill="#5dbc9d"/><path d="M50.93 12l-3-3a4.004 4.004 0 0 0-5.66 0l-7.13 7.14 3 3L45.27 12a4.006 4.006 0 0 1 5.66 0z" fill="#82d8bb"/><path d="M42.898 12.621L41.488 14a1 1 0 1 0 1.41 1.41l1.41-1.41c.34-.398.317-.988-.05-1.36a1.004 1.004 0 0 0-1.36-.05zm3.543 3.527L45 17.57A1.011 1.011 0 0 0 46.43 19l1.422-1.422a.996.996 0 0 0-.055-1.355.995.995 0 0 0-1.356-.051zM50 19.691l-1.441 1.41a1.006 1.006 0 0 0 .015 1.422A1.01 1.01 0 0 0 50 22.512l1.41-1.41c.34-.399.317-.989-.05-1.36a1.004 1.004 0 0 0-1.36-.05zM35.68 21a1 1 0 0 0-1.36 0l-3 3c-.37.207-.57.625-.5 1.043.07.418.399.746.817.816.418.07.836-.129 1.043-.5l3-3a1 1 0 0 0 0-1.359zm-7.36 6L19 36.32a.994.994 0 0 0 .168 1.192c.316.316.8.386 1.191.168l9.27-9.27A1 1 0 0 0 28.32 27z" fill="#8d6c9f"/><path d="M61 9a5.911 5.911 0 0 0-1.75-4.219 5.996 5.996 0 0 0-8.43 0L47.86 7.7a4.813 4.813 0 0 0-4.231-.597 6.898 6.898 0 0 0-8.59 1L22.32 20.8c-.37.207-.57.625-.5 1.043.07.418.399.746.817.816.418.07.836-.129 1.043-.5L36.41 9.441a5.072 5.072 0 0 1 5.238-1.171h-.058L12.44 37.469a17 17 0 0 0-4.101 6.633l-2.66 8a2.933 2.933 0 0 0 .12 2.168L3.88 58.809c-.156.375-.07.808.215 1.097.289.285.722.371 1.097.215l4.57-1.941a2.905 2.905 0 0 0 2.169.129l8-2.66c2.5-.833 4.77-2.239 6.629-4.098l29.12-29.14a5 5 0 0 0 .622-6.27l2.918-2.922A5.912 5.912 0 0 0 61 9zM26 49.328L14.672 38l20.527-20.57L46.57 28.8zm-6.738 4.5l-8 2.66a.987.987 0 0 1-.453 0 .948.948 0 0 0-.168-.226l-3-3a.985.985 0 0 0-.23-.172.97.97 0 0 1 0-.45l2.66-8a15.107 15.107 0 0 1 3.109-5.3l11.3 11.3a15.07 15.07 0 0 1-5.19 3.188zM54.32 21l-6.39 6.39-11.371-11.32L43 9.68a2.99 2.99 0 0 1 2.145-.903 2.99 2.99 0 0 1 2.144.903l7.07 7.07a2.99 2.99 0 0 1 .903 2.145 2.99 2.99 0 0 1-.903 2.144zm3.532-9.191L55 14.71 49.29 9l2.858-2.852a4.004 4.004 0 0 1 2.856-1.195 4 4 0 0 1 2.855 1.195 4.001 4.001 0 0 1 0 5.71z" fill="#8d6c9f"/></svg>