<svg xmlns="http://www.w3.org/2000/svg" viewBox="0 0 64 64"><path d="M61.05 4.172l-.71-.703-.711-.707a6 6 0 0 0-8.48 0l-1.297 1.297A43.834 43.834 0 0 0 42.5 13.8a8 8 0 0 1-1.34 1.77l-.7.699a1.998 1.998 0 0 1-2.339.359L29 11.89a4.003 4.003 0 0 0-4.672.718L20 16.9l26.91 26.87 4.29-4.289a4.003 4.003 0 0 0 .722-4.68l-4.75-9.12a1.992 1.992 0 0 1 .36-2.34l.698-.7A8.31 8.31 0 0 1 50 21.31 44.204 44.204 0 0 0 59.75 14l1.3-1.3a6 6 0 0 0 0-8.528zm-4.24 5.656a2 2 0 1 1 0-2.828 1.986 1.986 0 0 1 0 2.828z" fill="#cda1a7"/><path d="M44.078 46.602L33.441 61a2.02 2.02 0 0 1-1.449.797 2.004 2.004 0 0 1-1.55-.567L2.59 33.39a2.012 2.012 0 0 1-.567-1.554 2.005 2.005 0 0 1 .797-1.445l14.4-10.641z" fill="#f9e3ae"/><path d="M25.672 56.422l12.406-16.563 6 6.743L32.922 61.5H30.77z" fill="#f6d397"/><path d="M24.11 26.281L28.5 31.2 14.46 45.08l-5.788-5.74z" fill="#faefde"/><path d="M61.05 12.66L59.75 14A44.204 44.204 0 0 1 50 21.309a8.25 8.25 0 0 0-1.781 1.332l-.7.699a1.998 1.998 0 0 0-.359 2.34l4.75 9.12a4.002 4.002 0 0 1-.719 4.68l-4.293 4.29-13.43-13.442L54 9.828h2.828V7l3.531-3.531.711.703a6 6 0 0 1-.02 8.488z" fill="#c4939c"/><path d="M44.078 46.602L17.211 19.73a2.008 2.008 0 0 1 0-2.832 1.999 1.999 0 0 1 2.828 0L46.91 43.77a2.008 2.008 0 0 1 0 2.832 1.999 1.999 0 0 1-1.414.586 2.015 2.015 0 0 1-1.418-.586z" fill="#acb7d0"/><path d="M61.75 3.46l-1.41-1.41a6.997 6.997 0 0 0-9.899 0l-1.3 1.302a44.951 44.951 0 0 0-7.512 10 6.943 6.943 0 0 1-1.168 1.546l-.7.704a1.008 1.008 0 0 1-1.171.18L29.46 11a5.005 5.005 0 0 0-5.839.898l-3.723 3.723a3.072 3.072 0 0 0-3.398.57 2.998 2.998 0 0 0-.64 3.29L2.218 29.558c-.7.52-1.14 1.32-1.207 2.187a3.019 3.019 0 0 0 .867 2.344L29.71 61.93a2.996 2.996 0 0 0 2.117.879h.223a2.977 2.977 0 0 0 2.187-1.207L44.32 47.949a3 3 0 0 0 3.871-4l3.707-3.71a4.998 4.998 0 0 0 .903-5.84l-4.742-9.118c-.2-.39-.13-.863.18-1.172l.702-.699a7.08 7.08 0 0 1 1.547-1.172 44.816 44.816 0 0 0 10-7.508l1.301-1.3a6.996 6.996 0 0 0-.04-9.969zM32.629 60.399a.999.999 0 0 1-1.508.114L27 56.398l3.719-5A.998.998 0 1 0 29.12 50.2L25.578 55l-9.789-9.79 4.95-4.948a1 1 0 0 0-1.41-1.41l-4.95 4.949-4.18-4.211 8.36-7.078c.32-.215.492-.594.437-.977A1 1 0 1 0 17.27 31l-8.488 7.172L3.29 32.68a1 1 0 0 1 .11-1.508L17.108 21l25.653 25.7zm13.57-14.507c-.39.386-1.02.386-1.41 0L31.352 32.46 17.91 19a1.004 1.004 0 0 1 .05-1.36c.372-.367.962-.39 1.36-.05L46.2 44.48c.386.391.386 1.02 0 1.41zM60.34 12L59 13.25a42.896 42.896 0 0 1-9.52 7.18 9.052 9.052 0 0 0-2 1.5l-.699.699a3 3 0 0 0-.543 3.512L51 35.27a3.006 3.006 0 0 1-.54 3.511l-3.58 3.579L21.449 16.9 25 13.32a2.994 2.994 0 0 1 3.512-.539l9.117 4.739a3.008 3.008 0 0 0 3.543-.52l.7-.7a9.144 9.144 0 0 0 1.5-2 42.896 42.896 0 0 1 7.179-9.519l1.3-1.3a4.998 4.998 0 0 1 7.07 0l1.407 1.41A4.996 4.996 0 0 1 60.34 12z" fill="#8d6c9f"/><path d="M53.27 6.29a3.004 3.004 0 0 0 0 4.245 2.999 2.999 0 0 0 4.242 0 3.004 3.004 0 0 0 0-4.246 3.073 3.073 0 0 0-4.242 0zm2.832 2.831a1.002 1.002 0 0 1-1.633-1.09c.156-.375.52-.62.926-.62a1.004 1.004 0 0 1 .707 1.71zm-29.704 5.66L25 16.191a1 1 0 1 0 1.41 1.41l1.41-1.41a1 1 0 0 0-1.41-1.41zm3.543 3.528l-1.421 1.41a1 1 0 0 0-.32.996 1 1 0 0 0 .738.738c.363.086.75-.039.992-.324l1.422-1.41a.996.996 0 0 0-.055-1.356.996.996 0 0 0-1.356-.054zm3.528 3.543l-1.41 1.41a1 1 0 1 0 1.41 1.41l1.41-1.41c.34-.399.316-.989-.05-1.36a1 1 0 0 0-1.36-.05zM37 25.379L35.59 26.8a.993.993 0 0 0-.32.992.988.988 0 0 0 .738.738.996.996 0 0 0 .992-.32l1.41-1.41a1 1 0 0 0 .004-1.414A1 1 0 0 0 37 25.379zm3.54 3.543l-1.411 1.418a.996.996 0 0 0-.32.992.988.988 0 0 0 .738.738c.363.09.75-.035.992-.32L42 30.328a1 1 0 0 0-1.41-1.406zm3.538 3.538l-1.406 1.411a.996.996 0 0 0 .414 1.73.99.99 0 0 0 .992-.32l1.41-1.41a1 1 0 0 0-1.41-1.41zm2.122 6.36c.39.387 1.019.387 1.41 0L49 37.41A1 1 0 0 0 47.61 36l-1.41 1.41a1.002 1.002 0 0 0 0 1.41zM22.86 37.7a.988.988 0 0 0 .71-.29L25 36c.34-.398.316-.988-.05-1.36a1.004 1.004 0 0 0-1.36-.05L22.16 36a.998.998 0 0 0-.219 1.094c.157.375.524.617.93.617z" fill="#8d6c9f"/></svg>