<svg xmlns="http://www.w3.org/2000/svg" viewBox="0 0 50 50"><path d="M33.094.125a1.005 1.005 0 0 0-.594.313l-7.438 7.437c-.16.098-.289.238-.375.406l-5.343 5.344c-.14.086-.258.203-.344.344a1.302 1.302 0 0 0-.063.094.466.466 0 0 0-.03.062v.031l-6.282 13.969-5.063 5.063a.999.999 0 0 0 0 1.437l.563.563-7.844 7.874a1 1 0 0 0 .344 1.657l11.313 4.343c.367.141.78.055 1.062-.218l4.375-4.407.625.626a.997.997 0 0 0 1.406 0l5.094-5.094 13.969-6.25a.995.995 0 0 0 .281-.157.913.913 0 0 0 .188-.218l5.437-5.438a.949.949 0 0 0 .125-.093l.031-.032a.913.913 0 0 0 .188-.218l4.843-4.813a1.006 1.006 0 0 0-1.406-1.438l-4.312 4.313L27 8.75l6.906-6.906a1 1 0 0 0-.813-1.719zm-7.532 10.063L42.438 27.03l-4.343 4.344L21.25 14.5zm-5.437 6.062l16.219 16.219-12.813 5.75a1.025 1.025 0 0 0-.312.187l-4.532 4.532-.562-.563-.031-.031-3.907-3.907-3.968-4a1.302 1.302 0 0 0-.094-.062l-.438-.469 4.5-4.5a.963.963 0 0 0 .22-.312zM9.562 36.625L16 43.063l-3.938 3.906-9.25-3.563z"/></svg>