<svg xmlns="http://www.w3.org/2000/svg" viewBox="0 0 26 26"><path d="M0 0v26h10V0zm2 2h6v4.563L6.812 5.438l-1.437.718L3.531 3.97 2 5.28zm10 0v2h13V2zm-5.5.844a.65.65 0 0 0-.656.656.65.65 0 0 0 .656.656.65.65 0 0 0 .656-.656.65.65 0 0 0-.656-.656zM12 6v1h13V6zM2 10h6v6H2zm10 0v2h13v-2zm-6.406 1.063c-.407.058-.813.437-.813.437s-.027-.023-.093-.063c-.227-.132-.793-.382-1.157-.03-.469.456 0 1.25 0 1.25s-.715.542-.5 1.124a.63.63 0 0 0 .281.313c.36.207.907.125.907.125s.226.508.593.719a.61.61 0 0 0 .344.062c.555-.031.782-.969.782-.969s.882-.082 1.03-.656c.134-.512-.507-.945-.655-1.031-.02-.012-.032 0-.032 0s.192-.93-.312-1.219a.549.549 0 0 0-.375-.063zm-.282 1c.032-.008.09.011.125.03.282.16-.375.75-.375.75s.864-.077.813.25c-.047.329-.844-.124-.844-.124s.36.789.032.844c-.329.05-.157-.844-.157-.844s-.68.601-.781.312c-.102-.293.75-.406.75-.406s-.785-.445-.531-.656c.254-.211.625.594.625.594s.117-.692.343-.75zM12 14v1h13v-1zM2 18h6v6H2zm10 0v2h13v-2zm-7 1s-.238.715-.469.813c-.23.097-.937-.22-.937-.22s.297.704.219.938C3.757 20.7 3 21 3 21s.762.27.813.469c.078.297-.22.937-.22.937s.657-.367.876-.25C4.687 22.273 5 23 5 23s.238-.715.469-.813c.23-.097.937.22.937.22s-.3-.704-.218-.938C6.25 21.285 7 21 7 21s-.754-.285-.813-.469c-.097-.293.22-.937.22-.937s-.657.367-.876.25C5.313 19.727 5 19 5 19zm0 1.094c.508 0 .906.398.906.906a.897.897 0 0 1-.906.906.897.897 0 0 1-.906-.906c0-.508.398-.906.906-.906zM12 22v1h13v-1z"/></svg>