<svg xmlns="http://www.w3.org/2000/svg" viewBox="0 0 64 64"><linearGradient id="a" gradientUnits="userSpaceOnUse" x1="32" y1="5.625" x2="32" y2="58.65" spreadMethod="reflect"><stop offset="0" stop-color="#1a6dff"/><stop offset="1" stop-color="#c822ff"/></linearGradient><path d="M50 15h-5V9c0-1.654-1.346-3-3-3h-8c-1.654 0-3 1.346-3 3v6H14c-1.654 0-3 1.346-3 3v37c0 1.654 1.345 3 3 3h36c1.654 0 3-1.346 3-3V18c0-1.654-1.346-3-3-3zm-8.514 23.686c-2.318-.905-4.655-.905-6.972 0l-1.052-1.404c3.045-1.702 6.032-1.702 9.077 0l-1.053 1.404zm-1.26 1.68l-1.422 1.897c-.383.51-1.225.51-1.607 0l-1.422-1.897a7.173 7.173 0 0 1 4.451 0zM39 17v17.049c-1-.067-1-.067-2 0V17h2zm2 17.455V17h2v18.259c-1-.337-1-.602-2-.804zM33 15v-2h10v2H33zm2 2v17.455c-1 .202-1 .467-2 .804V17h2zm.597 26.462c.572.765 1.448 1.202 2.403 1.202s1.831-.438 2.403-1.202L45 37.333V21h2v27H17V21h14v16.333l4.597 6.129zM34 8h8a1 1 0 0 1 1 1v2H33V9a1 1 0 0 1 1-1zm16 48H14a1 1 0 0 1-1-1v-1.185c0 .113.647.185 1 .185h36c.352 0 1-.072 1-.184V55c0 .552-.449 1-1 1zm0-4H14a1 1 0 0 1-1-1V18a1 1 0 0 1 1-1h17v2H17c-1.103 0-2 .897-2 2v27c0 1.103.897 2 2 2h30c1.103 0 2-.897 2-2V21c0-1.103-.898-2-2-2h-2v-2h5a1 1 0 0 1 1 1v33c0 .552-.449 1-1 1z" fill="url(#a)"/><linearGradient id="b" gradientUnits="userSpaceOnUse" x1="23" y1="22.5" x2="23" y2="31.392" spreadMethod="reflect"><stop offset="0" stop-color="#6dc7ff"/><stop offset="1" stop-color="#e6abff"/></linearGradient><path d="M19 31v-7a1 1 0 0 1 1-1h7l-8 8z" fill="url(#b)"/></svg>