<svg xmlns="http://www.w3.org/2000/svg" viewBox="0 0 64 64"><path d="M5 9h46a2 2 0 0 1 2 2v46a2 2 0 0 1-2 2H5a2 2 0 0 1-2-2V11a2 2 0 0 1 2-2z" fill="#cce7fc"/><path d="M7 34h42c2.21 0 4 1.79 4 4v18a3 3 0 0 1-3 3H6a3 3 0 0 1-3-3V38c0-2.21 1.79-4 4-4z" fill="#bbdef9"/><path d="M11 15h34a2 2 0 0 1 2 2v34a2 2 0 0 1-2 2H11a2 2 0 0 1-2-2V17a2 2 0 0 1 2-2z" fill="#faefde"/><path d="M42.121 13.875l10 10-19.625 19.621-9.996-10z" fill="#f9e3ae"/><path d="M45.113 17.879l6.5 6.496-18.617 18.621-6.5-6.5z" fill="#f6d397"/><path d="M56.148 4.152l5.727 5.727a3.004 3.004 0 0 1 0 4.246l-3.371 3.371-9.973-9.969 3.375-3.375a2.999 2.999 0 0 1 4.242 0z" fill="#ed7899"/><path d="M48.121 7.879l10 10-6.617 6.617-10-9.996z" fill="#c2cde7"/><path d="M21 42.64l.79-8.64 5.5.79.78 2.35 2.29 1.18L32 44.21h-9.43z" fill="#faefde"/><path d="M64 11.66a4.013 4.013 0 0 0-1.172-2.832l-5.656-5.656a4.084 4.084 0 0 0-5.66 0l-2.774 2.777-.457.461-1.66 1.66A.971.971 0 0 0 46.29 8H5a3 3 0 0 0-3 3v46a3 3 0 0 0 3 3h46a3 3 0 0 0 3-3V23.328L59.29 18l3.53-3.531A3.992 3.992 0 0 0 64 11.66zm-8.238 7.078a1.008 1.008 0 0 0-1.39 0L53 20.16a1 1 0 0 0 0 1.39L51.52 23 43 14.488l5.648-5.66 8.48 8.48zm-30 25.114l-3.563-3.563.57-4.86 4.461.47v1.93c0 .554.446 1 1 1h1.93l.469 4.51zM32.5 42.09l-.5-4.371a.998.998 0 0 0-1-.899h-1.82v-1.41L34.54 30a1.006 1.006 0 0 0-.052-1.36 1.004 1.004 0 0 0-1.36-.05l-5.32 5.32L24 33.55l17.602-17.64 8.476 8.48zM52 57c0 .55-.45 1-1 1H5c-.55 0-1-.45-1-1V11c0-.55.45-1 1-1h39.691L41 13.75 21.14 33.61c-.16.16-.261.367-.288.59l-.73 6.312-.712 4.949a1.002 1.002 0 0 0 1 1.14h.14l4.919-.703 6.39-.68a.984.984 0 0 0 .602-.288L52 25.328zm9.41-43.93l-2.82 2.828-8.488-8.488.046-.05 2.782-2.782a2.008 2.008 0 0 1 2.832 0l5.66 5.66a2.008 2.008 0 0 1 0 2.832z" fill="#8d6c9f"/><path d="M47.29 11.68l-1.411 1.41a.996.996 0 0 0-.32.992.988.988 0 0 0 .738.738c.363.09.75-.035.992-.32l1.41-1.41a1 1 0 0 0-1.41-1.41zm3.538 3.53l-1.406 1.411A.998.998 0 1 0 50.828 18l1.41-1.41a1 1 0 0 0-1.41-1.41zM40.2 23a1.002 1.002 0 0 0-1.41 0L36 25.8a.993.993 0 0 0-.32.993.988.988 0 0 0 .738.738.996.996 0 0 0 .992-.32l2.828-2.832A.997.997 0 0 0 40.2 23zM43 54h3a2 2 0 0 0 2-2V35.078c0-.55-.45-1-1-1s-1 .45-1 1V52h-3c-.55 0-1 .45-1 1s.45 1 1 1zm-30-2h-3V16h25.328a1 1 0 1 0 0-2H10a2 2 0 0 0-2 2v36a2 2 0 0 0 2 2h3c.55 0 1-.45 1-1s-.45-1-1-1zm10-2c-.55 0-1 .45-1 1v2c0 .55.45 1 1 1s1-.45 1-1v-2c0-.55-.45-1-1-1zm5 0c-.55 0-1 .45-1 1v2c0 .55.45 1 1 1s1-.45 1-1v-2c0-.55-.45-1-1-1zm4 1v2c0 .55.45 1 1 1s1-.45 1-1v-2c0-.55-.45-1-1-1s-1 .45-1 1zm6 3c.55 0 1-.45 1-1v-2c0-.55-.45-1-1-1s-1 .45-1 1v2c0 .55.45 1 1 1zm-20-4c-.55 0-1 .45-1 1v2c0 .55.45 1 1 1s1-.45 1-1v-2c0-.55-.45-1-1-1z" fill="#8d6c9f"/></svg>