<svg xmlns="http://www.w3.org/2000/svg" viewBox="0 0 40 40"><path d="M1.5 1.5h11v11h-11z" fill="#fff"/><path d="M12 2v10H2V2h10m1-1H1v12h12z" fill="#4788c7"/><path d="M1.5 14.5h11v11h-11z" fill="#b6dcfe"/><path d="M12 15v10H2V15h10m1-1H1v12h12z" fill="#4788c7"/><path d="M1.5 27.5h11v11h-11z" fill="#dff0fe"/><path d="M12 28v10H2V28h10m1-1H1v12h12z" fill="#4788c7"/><path d="M3 33l4-4 4 4-4 4z" fill="#98ccfd"/><path d="M4 30h6v6H4zM9.07 6.926L7 8.848 9.848 12H12V9.652zM11 4c0 .55-.45 1-1 1s-1-.45-1-1 .45-1 1-1 1 .45 1 1z" fill="#98ccfd"/><path d="M10.465 12H2V9.5l3.332-3.332z" fill="#b6dcfe"/><path d="M7 20l-1.164-1.941C5.289 17.152 5.946 16 7 16a1.358 1.358 0 0 1 1.164 2.059zm0 0l1.164 1.941C8.711 22.848 8.054 24 7 24a1.358 1.358 0 0 1-1.164-2.059z" fill="#fff"/><path d="M7 20l-2.266.04A1.36 1.36 0 0 1 3.535 18c.527-.914 1.852-.902 2.367.02zm0 0l2.266-.04A1.36 1.36 0 0 1 10.465 22c-.527.914-1.852.902-2.367-.02z" fill="#fff"/><path d="M7 20l-1.098 1.98c-.515.922-1.84.934-2.367.02a1.36 1.36 0 0 1 1.2-2.04zm0 0l1.098-1.98c.515-.922 1.84-.934 2.367-.02a1.36 1.36 0 0 1-1.2 2.04z" fill="#fff"/><path d="M8.5 20a1.5 1.5 0 1 1-3 0 1.5 1.5 0 0 1 3 0z" fill="#b6dcfe"/><path d="M8.5 33a1.5 1.5 0 1 1-3 0 1.5 1.5 0 0 1 3 0z" fill="#fff"/><path d="M25.5 7h-8a.498.498 0 0 1-.5-.5c0-.277.223-.5.5-.5h8a.499.499 0 1 1 0 1zm0 13h-8a.498.498 0 0 1-.5-.5c0-.277.223-.5.5-.5h8a.499.499 0 1 1 0 1zm0 13h-8a.498.498 0 0 1-.5-.5c0-.277.223-.5.5-.5h8a.499.499 0 1 1 0 1zm13-26h-8a.498.498 0 0 1-.5-.5c0-.277.223-.5.5-.5h8a.499.499 0 1 1 0 1zm0 13h-8a.498.498 0 0 1-.5-.5c0-.277.223-.5.5-.5h8a.499.499 0 1 1 0 1zm0 13h-8a.498.498 0 0 1-.5-.5c0-.277.223-.5.5-.5h8a.499.499 0 1 1 0 1z" fill="#4788c7"/></svg>