<svg xmlns="http://www.w3.org/2000/svg" viewBox="0 0 64 64"><linearGradient id="a" gradientUnits="userSpaceOnUse" x1="22" y1="49.833" x2="22" y2="52.168" spreadMethod="reflect"><stop offset="0" stop-color="#6dc7ff"/><stop offset="1" stop-color="#e6abff"/></linearGradient><rect x="17" y="50" width="10" height="2" fill="url(#a)"/><linearGradient id="b" gradientUnits="userSpaceOnUse" x1="23" y1="41.75" x2="23" y2="44.083" spreadMethod="reflect"><stop offset="0" stop-color="#6dc7ff"/><stop offset="1" stop-color="#e6abff"/></linearGradient><rect x="19" y="42" width="8" height="2" fill="url(#b)"/><linearGradient id="c" gradientUnits="userSpaceOnUse" x1="24" y1="33.917" x2="24" y2="36.123" spreadMethod="reflect"><stop offset="0" stop-color="#6dc7ff"/><stop offset="1" stop-color="#e6abff"/></linearGradient><rect x="21" y="34" width="6" height="2" fill="url(#c)"/><linearGradient id="d" gradientUnits="userSpaceOnUse" x1="32" y1="7.333" x2="32" y2="56.674" spreadMethod="reflect"><stop offset="0" stop-color="#1a6dff"/><stop offset="1" stop-color="#c822ff"/></linearGradient><path d="M56 36V11c0-1.654-1.346-3-3-3H35c-1.654 0-3 1.346-3 3v25c-1.103 0-2 .897-2 2v2c0 1.103.897 2 2 2v9c0 1.13.391 2.162 1.025 3H6v2h45c2.757 0 5-2.243 5-5v-9c1.103 0 2-.897 2-2v-2c0-1.103-.897-2-2-2zm-2-25v25h-3V10h2a1 1 0 0 1 1 1zM39 36V10h4v26h-4zm6-26h4v26h-4V10zm-11 1a1 1 0 0 1 1-1h2v26h-3V11zm20 40c0 1.654-1.346 3-3 3H37c-1.654 0-3-1.346-3-3v-9h20v9zm2-11H32v-2h24v2z" fill="url(#d)"/><linearGradient id="e" gradientUnits="userSpaceOnUse" x1="18" y1="7.333" x2="18" y2="56.674" spreadMethod="reflect"><stop offset="0" stop-color="#1a6dff"/><stop offset="1" stop-color="#c822ff"/></linearGradient><rect x="9" y="46" width="18" height="2" fill="url(#e)"/><linearGradient id="f" gradientUnits="userSpaceOnUse" x1="20.5" y1="7.333" x2="20.5" y2="56.674" spreadMethod="reflect"><stop offset="0" stop-color="#1a6dff"/><stop offset="1" stop-color="#c822ff"/></linearGradient><rect x="14" y="38" width="13" height="2" fill="url(#f)"/><linearGradient id="g" gradientUnits="userSpaceOnUse" x1="22.5" y1="7.333" x2="22.5" y2="56.674" spreadMethod="reflect"><stop offset="0" stop-color="#1a6dff"/><stop offset="1" stop-color="#c822ff"/></linearGradient><rect x="18" y="30" width="9" height="2" fill="url(#g)"/><linearGradient id="h" gradientUnits="userSpaceOnUse" x1="24" y1="26.167" x2="24" y2="28" spreadMethod="reflect"><stop offset="0" stop-color="#6dc7ff"/><stop offset="1" stop-color="#e6abff"/></linearGradient><rect x="21" y="26" width="6" height="2" fill="url(#h)"/><linearGradient id="i" gradientUnits="userSpaceOnUse" x1="44" y1="43.833" x2="44" y2="52.335" spreadMethod="reflect"><stop offset="0" stop-color="#6dc7ff"/><stop offset="1" stop-color="#e6abff"/></linearGradient><path d="M50 52H38a2 2 0 0 1-2-2v-6h16v6a2 2 0 0 1-2 2z" fill="url(#i)"/></svg>