<svg xmlns="http://www.w3.org/2000/svg" viewBox="0 0 64 64"><linearGradient id="a" gradientUnits="userSpaceOnUse" x1="34.971" y1="19.5" x2="34.971" y2="39.305" spreadMethod="reflect"><stop offset="0" stop-color="#6dc7ff"/><stop offset="1" stop-color="#e6abff"/></linearGradient><polygon points="42.749,38.223 25.778,21.252 27.192,19.838 44.163,36.809" fill="url(#a)"/><linearGradient id="b" gradientUnits="userSpaceOnUse" x1="32.142" y1="19.5" x2="32.142" y2="39.305" spreadMethod="reflect"><stop offset="0" stop-color="#6dc7ff"/><stop offset="1" stop-color="#e6abff"/></linearGradient><polygon points="39.92,41.051 22.95,24.08 24.364,22.666 41.334,39.637" fill="url(#b)"/><linearGradient id="c" gradientUnits="userSpaceOnUse" x1="32" y1="8.75" x2="32" y2="55.256" spreadMethod="reflect"><stop offset="0" stop-color="#1a6dff"/><stop offset="1" stop-color="#c822ff"/></linearGradient><path d="M33.997 48l18.044-18.124a5.025 5.025 0 0 0 0-7.076L40.76 11.469C39.817 10.521 38.563 10 37.23 10s-2.587.521-3.529 1.469l-19.742 19.83a5.024 5.024 0 0 0 0 7.075L23.542 48H6v2h52v-2H33.997zm-18.62-11.036a3.021 3.021 0 0 1 0-4.255l19.742-19.83c1.127-1.133 3.096-1.133 4.223 0L50.623 24.21a3.023 3.023 0 0 1 0 4.256L31.174 48h-4.81L15.377 36.964z" fill="url(#c)"/><linearGradient id="d" gradientUnits="userSpaceOnUse" x1="21.243" y1="8.75" x2="21.243" y2="55.256" spreadMethod="reflect"><stop offset="0" stop-color="#1a6dff"/><stop offset="1" stop-color="#c822ff"/></linearGradient><path d="M25.071 29.03l-1.414-1.414L18 33.272a2.001 2.001 0 0 0 0 2.828l2.828 2.829 1.414-1.414-2.828-2.829 5.657-5.656z" fill="url(#d)"/><linearGradient id="e" gradientUnits="userSpaceOnUse" x1="32" y1="8.75" x2="32" y2="55.256" spreadMethod="reflect"><stop offset="0" stop-color="#1a6dff"/><stop offset="1" stop-color="#c822ff"/></linearGradient><rect x="12" y="52" width="40" height="2" fill="url(#e)"/><linearGradient id="f" gradientUnits="userSpaceOnUse" x1="37" y1="13.5" x2="37" y2="18.333" spreadMethod="reflect"><stop offset="0" stop-color="#6dc7ff"/><stop offset="1" stop-color="#e6abff"/></linearGradient><path d="M41.243 18l-3.536-3.535a.999.999 0 0 0-1.414 0L32.757 18h8.486z" fill="url(#f)"/></svg>