<svg xmlns="http://www.w3.org/2000/svg" viewBox="0 0 40 40"><path d="M37.5 39h-23a.498.498 0 0 1-.5-.5c0-.277.223-.5.5-.5h23a.499.499 0 1 1 0 1z" fill="#4788c7"/><path d="M14.34 38.5a2.367 2.367 0 0 1-1.688-.7L2.2 27.349a2.39 2.39 0 0 1 0-3.375L23.973 2.199A2.36 2.36 0 0 1 25.66 1.5c.637 0 1.235.246 1.688.7l10.457 10.456c.914.914.914 2.457 0 3.371L16.027 37.801a2.358 2.358 0 0 1-1.687.699z" fill="#dff0fe"/><path d="M25.66 2c.504 0 .977.195 1.332.55L37.45 13.009c.336.336.531.82.535 1.324.004.516-.187.992-.535 1.344L15.676 37.449c-.36.356-.832.551-1.336.551a1.87 1.87 0 0 1-1.332-.55L2.55 26.991A1.87 1.87 0 0 1 2 25.66c0-.504.195-.976.55-1.336L24.325 2.551c.36-.356.832-.551 1.336-.551m0-1a2.89 2.89 0 0 0-2.043.844L1.844 23.617a2.89 2.89 0 0 0 0 4.082L12.3 38.156a2.89 2.89 0 0 0 4.082 0l21.773-21.773c1.125-1.13 1.082-2.996 0-4.082L27.7 1.844A2.875 2.875 0 0 0 25.66 1z" fill="#4788c7"/><path d="M13.035 13.137L23.973 2.199A2.36 2.36 0 0 1 25.66 1.5c.637 0 1.235.246 1.688.7l10.457 10.456c.777.778.949 2.422 0 3.371L26.863 26.965z" fill="#98ccfd"/><path d="M25.66 2c.504 0 .977.195 1.332.55L37.45 13.009c.293.293.485.785.504 1.281.016.316-.035.914-.504 1.387L26.863 26.258l-13.12-13.121L24.323 2.55c.36-.356.832-.551 1.336-.551m0-1a2.89 2.89 0 0 0-2.043.844L12.328 13.137l14.535 14.535 11.293-11.29c1.188-1.19.942-3.14 0-4.081L27.7 1.844A2.875 2.875 0 0 0 25.66 1z" fill="#4788c7"/><path d="M37.45 15.676l-1.24 1.234L23.09 3.79l1.234-1.24c.36-.355.832-.55 1.336-.55.5 0 .977.195 1.332.55L37.45 13.009c.356.355.551.828.551 1.332 0 .504-.195.976-.55 1.336z" fill="#b6dcfe"/></svg>