<svg xmlns="http://www.w3.org/2000/svg" viewBox="0 0 26 26"><path d="M21.828 3.688l-2.578-2.58c-1.242-1.246-3.41-1.246-4.652-.004L3.98 11.727a3.265 3.265 0 0 0-.964 2.324v6.613l.004-.004a3.28 3.28 0 0 0 .96 2.3l1.903 1.9a3.26 3.26 0 0 0 2.328.964c.879 0 1.703-.34 2.324-.96l11.442-11.442a3.26 3.26 0 0 0 .957-2.266c0 .004.007.016.007.016V6.16c-.222-.914-.492-1.851-1.113-2.473zM9.383 23.313a1.564 1.564 0 0 1-2.21 0l-1.81-1.81a1.557 1.557 0 0 1-.457-1.108v-5.86c0-.629.114-1.258.742-1.887l4.73-4.722-.019 6.476 3.91 3.91z"/></svg>