<?xml version="1.0" encoding="utf-8"?>
<!-- Generator: Adobe Illustrator 22.0.1, SVG Export Plug-In . SVG Version: 6.00 Build 0)  -->
<svg version="1.1" xmlns="http://www.w3.org/2000/svg" xmlns:xlink="http://www.w3.org/1999/xlink" x="0px" y="0px"
	 viewBox="0 0 142.8 147.8" style="enable-background:new 0 0 142.8 147.8;" xml:space="preserve">
<style type="text/css">
	.st0{fill-rule:evenodd;clip-rule:evenodd;fill:#8EC3D4;}
	.st1{fill-rule:evenodd;clip-rule:evenodd;fill:#6092A3;}
	.st2{fill-rule:evenodd;clip-rule:evenodd;fill:#B8332E;}
	.st3{fill-rule:evenodd;clip-rule:evenodd;fill:#4D4D4D;}
	.st4{fill-rule:evenodd;clip-rule:evenodd;fill:#FFFFFF;}
	.st5{fill-rule:evenodd;clip-rule:evenodd;fill:#DB4743;}
	.st6{fill:#FD9325;}
	.st7{fill-rule:evenodd;clip-rule:evenodd;fill:#F7C8B4;}
	.st8{fill:#4D4D4D;}
	.st9{fill-rule:evenodd;clip-rule:evenodd;fill:#F1ABA1;}
	.st10{fill:#F1ABA1;}
	.st11{fill-rule:evenodd;clip-rule:evenodd;fill:#FAC2B9;}
	.st12{fill-rule:evenodd;clip-rule:evenodd;fill:#FFB463;}
	.st13{fill-rule:evenodd;clip-rule:evenodd;fill:#EB963B;}
	.st14{fill-rule:evenodd;clip-rule:evenodd;fill:#C9EAF5;}
	.st15{fill-rule:evenodd;clip-rule:evenodd;fill:#B5DDEB;}
	.st16{fill-rule:evenodd;clip-rule:evenodd;fill:#FFD67F;}
	.st17{fill-rule:evenodd;clip-rule:evenodd;fill:#E0B24E;}
	.st18{fill-rule:evenodd;clip-rule:evenodd;fill:#F5B99F;}
	.st19{fill-rule:evenodd;clip-rule:evenodd;fill:#854E4C;}
	.st20{fill-rule:evenodd;clip-rule:evenodd;fill:#999999;}
	.st21{fill-rule:evenodd;clip-rule:evenodd;fill:#EDBC51;}
	.st22{fill-rule:evenodd;clip-rule:evenodd;fill:#B8332E;stroke:#B8332E;stroke-width:0.216;stroke-miterlimit:22.9256;}
	.st23{fill-rule:evenodd;clip-rule:evenodd;fill:#BEAEA1;}
	.st24{fill:#648691;}
</style>
<g id="BACKGROUND">
</g>
<g id="OBJECTS">
	<g>
		<path class="st8" d="M131.4,22.9l5.1-1.2v5.6c0,0.3-0.1,0.5-0.2,0.6c-0.1,0.1-0.3,0.1-0.6,0.2c-0.2,0-0.4,0.1-0.6,0.1
			c-0.2,0.1-0.5,0.1-0.7,0.3c-0.7,0.3-1.3,0.8-1.7,1.3c-0.4,0.4-0.6,0.9-0.7,1.4c-0.1,0.4,0,0.8,0.2,1.1c0.2,0.3,0.5,0.4,0.9,0.4
			c1.1,0,2.1-0.4,3-1.3c0.8-0.8,1.2-1.7,1.2-2.7V15.3l-5.9,1.3v2.6l5.1-1.2v1.2l-5.1,1.2V22.9z M125.5,17.9v11.9
			c0,0.4-0.1,0.7-0.3,0.9c-0.1,0.1-0.4,0.2-0.8,0.3c-0.2,0-0.4,0.1-0.6,0.1c-0.2,0.1-0.4,0.1-0.6,0.2c-0.8,0.3-1.3,0.7-1.8,1.2
			c-0.4,0.4-0.6,0.9-0.7,1.3c-0.1,0.4,0,0.8,0.2,1.1c0.2,0.3,0.5,0.4,0.9,0.4c1.3,0,2.4-0.5,3.3-1.6c0.8-1,1.2-2,1.2-3.2v-6.4
			l5.1-1.1v-2.5l-5.1,1.2v-1.3l5.1-1.2v-2.6L125.5,17.9z"/>
		<g>
			<ellipse class="st1" cx="68.4" cy="135.4" rx="46.6" ry="8"/>
			<g>
				<path class="st8" d="M107.2,7.1L107.2,7.1h-0.3v15.1c0,0.2-0.1,0.3-0.2,0.3c-0.1,0-0.3,0-0.5,0c-0.3,0-0.5,0-0.7,0
					c-0.3,0-0.6,0.1-0.9,0.2c-0.5,0.2-1,0.5-1.4,0.9c-0.4,0.4-0.6,0.8-0.8,1.3c-0.1,0.5-0.1,0.8,0.1,1.1c0.2,0.3,0.7,0.5,1.3,0.5
					c0.9,0,1.7-0.5,2.6-1.4c0.8-0.9,1.2-1.8,1.2-2.7v-11c0.4,0.4,0.8,0.8,1.3,1.2c0.3,0.2,0.7,0.5,1.3,0.9c0.9,0.6,1.5,1.1,1.8,1.4
					c0.5,0.6,0.7,1.2,0.7,2c0,0.8-0.3,1.7-0.9,2.7c-0.4,0.8-1,1.6-1.6,2.4l0.2,0.2c1.5-1,2.6-2.3,3.2-3.9c0.8-2,0.5-3.8-0.8-5.4
					c-0.5-0.5-0.9-0.9-1.4-1.4c-0.3-0.2-0.7-0.6-1.2-1c-0.7-0.6-1.3-1-1.7-1.4C108.2,8.6,107.7,7.9,107.2,7.1z"/>
				<g>
					<path class="st2" d="M48.5,76.3L33.1,66.1c-4.1,1.7-6.1,4.9-6.3,9.4L42,85.6C49.2,90.3,55.8,81.2,48.5,76.3z"/>
					<path class="st3" d="M27.7,62.1C25,59,22,58.3,22.6,62.3c-1.4-1.2-5-2.7-6.5-0.4c-3,4.6,2,8.9,8.2,10.4
						C27.8,73.2,32.6,67.5,27.7,62.1z"/>
					<path class="st4" d="M27.3,75.7c1.1-3.3,4.1-7.6,6.2-9.3c0.6-0.5,0.2-1.2-0.3-1.5C32,64,30.6,63.1,29.5,64
						c-2.8,2.1-5.2,5.8-6,9c-0.3,1.2,1.1,2.2,2.3,3C26.4,76.4,27.1,76.3,27.3,75.7z"/>
				</g>
				<g>
					<path class="st2" d="M90,76.3l15.3-10.3c4.1,1.7,6.1,4.9,6.3,9.4L96.4,85.6C89.2,90.3,82.6,81.2,90,76.3z"/>
					<path class="st3" d="M110.7,62.1c2.8-3.1,5.7-3.7,5.2,0.3c1.4-1.2,5-2.7,6.5-0.4c3,4.6-2,8.9-8.2,10.4
						C110.6,73.2,105.8,67.5,110.7,62.1z"/>
					<path class="st4" d="M111.1,75.7c-1.1-3.3-4.1-7.6-6.2-9.3c-0.6-0.5-0.2-1.2,0.3-1.5c1.3-0.9,2.6-1.7,3.7-0.9
						c2.8,2.1,5.2,5.8,6,9c0.3,1.2-1.1,2.2-2.3,3C112,76.4,111.3,76.3,111.1,75.7z"/>
				</g>
				<g>
					<g>
						<path class="st3" d="M87.2,130.4c0.2,1.2,2.8,2.2,2.7,4.8c-0.1,2.6-1.3,5.2-8.6,4.2c-6.8-0.9-7.4-5-6.2-9.1
							C76.3,126.2,86.5,126.7,87.2,130.4z"/>
						<rect x="75.3" y="95.5" class="st2" width="12.4" height="31.5"/>
						<path class="st4" d="M75.3,124.9c3.6,1,9.4,0.9,12.2,0c0.9-0.3,1.2,0.6,1.2,1.2c0,0.4,0,0.7,0,1.1c0,1.7-0.1,3.4-1.4,3.9
							c-3.6,1.3-8.3,1.3-11.8,0c-1.3-0.5-1.4-2.4-1.3-4c0-0.3,0-0.6,0-0.9C74.1,125.3,74.6,124.7,75.3,124.9z"/>
					</g>
					<g>
						<path class="st3" d="M56.7,130.4c-0.2,1.2-2.8,2.2-2.7,4.8c0.1,2.6,1.3,5.2,8.6,4.2c6.8-0.9,7.4-5,6.2-9.1
							C67.6,126.2,57.5,126.7,56.7,130.4z"/>
						<rect x="56.3" y="95.5" class="st2" width="12.4" height="31.5"/>
						<path class="st4" d="M68.6,124.9c-3.6,1-9.4,0.9-12.2,0c-0.9-0.3-1.2,0.6-1.2,1.2c0,0.4,0,0.7,0,1.1c0,1.7,0.1,3.4,1.4,3.9
							c3.6,1.3,8.3,1.3,11.8,0c1.3-0.5,1.4-2.4,1.3-4c0-0.3,0-0.6,0-0.9C69.8,125.3,69.3,124.7,68.6,124.9z"/>
					</g>
				</g>
				<g>
					<ellipse class="st5" cx="72.4" cy="92.2" rx="29.1" ry="25.1"/>
					<path class="st3" d="M93.4,109.6c-12.5,5.5-29.4,5.5-42.1-0.1c-2.4-2.2-4.3-4.7-5.7-7.5c15.1,9.6,38.6,9.6,53.6,0
						C97.8,104.8,95.9,107.4,93.4,109.6z"/>
					<path class="st6" d="M72.4,107h2.9c0.7,0,1.3,0.3,1.8,0.7l0,0c0.5,0.5,0.7,1.1,0.7,1.8v3.6c0,0.7-0.3,1.3-0.7,1.8l0,0
						c-0.5,0.5-1.1,0.7-1.8,0.7h-2.9v-2.2h2.9c0.1,0,0.2,0,0.3-0.1l0,0c0.1-0.1,0.1-0.2,0.1-0.3v-3.6c0-0.1,0-0.2-0.1-0.3l0,0
						c-0.1-0.1-0.2-0.1-0.3-0.1h-2.9V107z M69.5,107h2.9v2.2h-2.9c-0.1,0-0.2,0-0.3,0.1l0,0c-0.1,0.1-0.1,0.2-0.1,0.3v3.6
						c0,0.1,0,0.2,0.1,0.3l0,0c0.1,0.1,0.2,0.1,0.3,0.1h2.9v2.2h-2.9c-0.7,0-1.3-0.3-1.8-0.7l0,0c-0.5-0.5-0.7-1.1-0.7-1.8v-3.6
						c0-0.7,0.3-1.3,0.7-1.8l0,0C68.2,107.3,68.8,107,69.5,107z"/>
				</g>
				<path class="st4" d="M71.1,42.9c-18.4-0.1-33.3,8.8-33.4,19.9C37.7,73.9,52.5,82.9,70.9,83c18.4,0.1,33.3-8.8,33.4-19.9
					S89.5,43,71.1,42.9z"/>
				<path class="st4" d="M50.9,51.2c7.2,0,13.1,5.5,13,12.2c0,6.7-5.9,12.1-13.2,12.1c-7.2,0-13.1-5.5-13-12.2
					C37.8,56.5,43.7,51.1,50.9,51.2z"/>
				
					<ellipse transform="matrix(4.605833e-03 -1 1 4.605833e-03 10.5403 130.9335)" class="st7" cx="71" cy="60.2" rx="20.4" ry="23.5"/>
				<g>
					<path class="st4" d="M60.2,53.4c7.7,0,13.9,5.5,13.8,12.2c0,6.7-6.3,12.1-14,12.1c-7.7,0-13.9-5.5-13.8-12.2
						C46.2,58.8,52.5,53.4,60.2,53.4z"/>
					<path class="st4" d="M81.9,53.5c-7.7,0-13.9,5.4-14,12.1c0,6.7,6.2,12.1,13.8,12.2c7.7,0,13.9-5.4,14-12.1
						C95.8,59,89.6,53.5,81.9,53.5z"/>
				</g>
				<path class="st4" d="M51.3,64.1c7.2,0,13.1,6,13,13.2c0,7.3-5.9,13.1-13.2,13.1c-7.2,0-13.1-6-13-13.2
					C38.2,69.9,44.1,64.1,51.3,64.1z"/>
				<path class="st4" d="M89.2,67.8c-7.2,0-13.1,5.8-13.2,13.1c0,7.3,5.8,13.2,13,13.2c7.2,0,13.1-5.8,13.2-13.1
					C102.2,73.8,96.4,67.9,89.2,67.8z"/>
				<path class="st4" d="M71,71.1c-7.2,0-13.1,5.8-13.2,13.1c0,7.3,5.8,13.2,13,13.2c7.2,0,13.1-5.8,13.2-13.1
					C84,77,78.2,71.1,71,71.1z"/>
				<path class="st8" d="M58.3,49.8c-0.1,0.3-0.4,0.4-0.7,0.3c-0.3-0.1-0.4-0.4-0.3-0.7c0.2-0.4,0.5-0.8,0.9-1.1
					c0.7-0.5,1.8-0.8,3-0.9c1.1-0.1,2.3,0,3.3,0.4c0.6,0.3,1.2,0.6,1.5,1.2c0.2,0.2,0.1,0.5-0.1,0.7c-0.2,0.2-0.5,0.1-0.7-0.1
					c-0.2-0.4-0.6-0.6-1.1-0.8c-0.8-0.3-1.8-0.4-2.8-0.3c-1,0.1-1.9,0.4-2.5,0.8C58.6,49.4,58.4,49.6,58.3,49.8z"/>
				<path class="st9" d="M71.1,47.2c3.5,0,6.4,2.9,6.4,6.4c0,3.5-2.9,6.4-6.4,6.4c-3.5,0-6.4-2.9-6.4-6.4
					C64.7,50,67.5,47.1,71.1,47.2z"/>
				<path class="st4" d="M81.6,43.3c-3.2-1-6.2-0.5-6.6,1c-0.5,1.5,2.8,0.8,6,1.8c3.2,1,5.2,3.2,5.6,1.7
					C87,46.3,84.8,44.3,81.6,43.3z"/>
				<path class="st4" d="M61,43.2c3.2-0.9,6.2-0.4,6.6,1.1c0.4,1.5-2.8,0.8-6,1.7c-3.2,0.9-5.2,3.2-5.6,1.6
					C55.5,46.1,57.8,44.2,61,43.2z"/>
				<path class="st5" d="M90.1,36.6C88,20.8,80.1,7.8,61.5,17C43,26.2,36.3,31.1,54.2,32.5C72.1,33.9,77.8,36.8,90.1,36.6z"/>
				<path class="st2" d="M58.5,32.5c-0.2-3.4,5.6-11.2,12.5-10.9C78,21.9,63.9,20.9,58.5,32.5z"/>
				<path class="st4" d="M43.6,17.5c5.3,0,9.5,4.3,9.5,9.6c0,5.3-4.3,9.5-9.6,9.5c-5.3,0-9.5-4.3-9.5-9.6
					C34,21.8,38.3,17.5,43.6,17.5z"/>
				<path class="st4" d="M71.2,27.2c14.5,0.1,26.3,10.3,26.2,22.9c0,2.9-0.7,5.7-1.8,8.2C86.3,34,54.5,34.1,46.5,58.1
					c-1.1-2.6-1.8-5.4-1.7-8.3C44.8,37.3,56.7,27.1,71.2,27.2z"/>
				<path class="st11" d="M68.9,48.9c1,0,1.7,0.8,1.7,1.7c0,1-0.8,1.7-1.7,1.7c-1,0-1.7-0.8-1.7-1.7C67.1,49.7,67.9,48.9,68.9,48.9z
					"/>
				<path class="st8" d="M85.1,49.6c0.1,0.3,0,0.5-0.3,0.6c-0.3,0.1-0.5,0-0.7-0.3c-0.1-0.2-0.3-0.4-0.6-0.6
					c-0.6-0.4-1.5-0.7-2.5-0.8c-1-0.1-2,0-2.8,0.3c-0.5,0.2-0.8,0.5-1.1,0.8c-0.2,0.2-0.5,0.3-0.7,0.1c-0.2-0.2-0.3-0.5-0.1-0.7
					c0.4-0.5,0.9-0.9,1.5-1.2c0.9-0.4,2.1-0.5,3.3-0.4c1.1,0.1,2.2,0.4,2.9,1C84.6,48.8,84.9,49.1,85.1,49.6z"/>
				<ellipse class="st9" cx="71.1" cy="68.6" rx="2.9" ry="7.2"/>
				<path class="st8" d="M16,16.1l5.1-1.1v5.6c0,0.3-0.1,0.5-0.2,0.6c-0.1,0.1-0.3,0.1-0.6,0.2c-0.2,0-0.4,0.1-0.6,0.1
					c-0.2,0.1-0.5,0.1-0.7,0.3c-0.7,0.3-1.3,0.8-1.7,1.3c-0.4,0.4-0.6,0.9-0.7,1.4c-0.1,0.4,0,0.8,0.2,1.1c0.2,0.3,0.5,0.4,0.9,0.4
					c1.1,0,2.1-0.4,3-1.3c0.8-0.8,1.2-1.7,1.2-2.7V8.4L16,9.7v2.6l5.1-1.2v1.2L16,13.5V16.1z M10.1,11v11.9c0,0.4-0.1,0.7-0.3,0.9
					C9.6,23.9,9.4,23.9,9,24c-0.2,0-0.4,0.1-0.6,0.1c-0.2,0.1-0.4,0.1-0.6,0.2C7,24.7,6.4,25.1,6,25.6c-0.4,0.4-0.6,0.9-0.7,1.3
					c-0.1,0.4,0,0.8,0.2,1.1c0.2,0.3,0.5,0.4,0.9,0.4c1.3,0,2.4-0.5,3.3-1.6c0.8-1,1.2-2,1.2-3.2v-6.4l5.1-1.2v-2.5l-5.1,1.2v-1.3
					l5.1-1.2V9.7L10.1,11z"/>
				<path class="st8" d="M18.8,32.4L18.8,32.4h-0.3v15.1c0,0.2-0.1,0.3-0.2,0.3c-0.1,0-0.3,0-0.5,0c-0.3,0-0.5,0-0.7,0
					c-0.3,0-0.6,0.1-0.9,0.2c-0.5,0.2-1,0.5-1.4,0.9c-0.4,0.4-0.6,0.8-0.8,1.3c-0.1,0.5-0.1,0.8,0.1,1.1c0.2,0.3,0.7,0.5,1.3,0.5
					c0.9,0,1.7-0.5,2.6-1.4c0.8-0.9,1.2-1.8,1.2-2.7v-11c0.4,0.4,0.8,0.8,1.3,1.2c0.3,0.2,0.7,0.5,1.3,0.9c0.9,0.6,1.5,1.1,1.8,1.4
					c0.5,0.6,0.7,1.2,0.7,2c0,0.8-0.3,1.7-0.9,2.7c-0.4,0.8-1,1.6-1.6,2.4l0.2,0.2c1.5-1,2.6-2.3,3.2-3.9c0.8-2,0.5-3.8-0.8-5.4
					c-0.5-0.5-0.9-0.9-1.4-1.4c-0.3-0.2-0.7-0.6-1.2-1c-0.7-0.6-1.3-1-1.7-1.4C19.8,33.9,19.3,33.2,18.8,32.4z"/>
			</g>
		</g>
	</g>
</g>
<g id="DESIGNED_BY_FREEPIK">
</g>
</svg>
