<svg xmlns="http://www.w3.org/2000/svg" viewBox="0 0 64 64"><linearGradient id="a" gradientUnits="userSpaceOnUse" x1="50.501" y1="8" x2="50.501" y2="19.091" spreadMethod="reflect"><stop offset="0" stop-color="#6dc7ff"/><stop offset="1" stop-color="#e6abff"/></linearGradient><path d="M45.019 10.995a.5.5 0 0 1 .361-.36l9.79-2.611a.654.654 0 0 1 .635.17c.081.081.26.305.172.636l-2.611 9.79-.001.001a.498.498 0 0 1-.359.36.501.501 0 0 1-.493-.132l-7.361-7.361a.5.5 0 0 1-.133-.493z" fill="url(#a)"/><linearGradient id="b" gradientUnits="userSpaceOnUse" x1="13.499" y1="45.001" x2="13.499" y2="56.093" spreadMethod="reflect"><stop offset="0" stop-color="#6dc7ff"/><stop offset="1" stop-color="#e6abff"/></linearGradient><path d="M18.981 53.005a.5.5 0 0 1-.361.36l-9.79 2.611a.64.64 0 0 1-.635-.17.649.649 0 0 1-.172-.636l2.611-9.79.001-.001a.498.498 0 0 1 .359-.36.49.49 0 0 1 .494.131l7.361 7.361a.503.503 0 0 1 .132.494z" fill="url(#b)"/><linearGradient id="c" gradientUnits="userSpaceOnUse" x1="50.5" y1="45.001" x2="50.5" y2="56.093" spreadMethod="reflect"><stop offset="0" stop-color="#6dc7ff"/><stop offset="1" stop-color="#e6abff"/></linearGradient><path d="M55.805 55.806a.637.637 0 0 1-.635.17l-9.79-2.611a.5.5 0 0 1-.361-.36.504.504 0 0 1 .132-.493l7.361-7.361a.5.5 0 0 1 .493-.132.5.5 0 0 1 .36.361l2.61 9.79a.647.647 0 0 1-.17.636z" fill="url(#c)"/><linearGradient id="d" gradientUnits="userSpaceOnUse" x1="13.5" y1="8" x2="13.5" y2="19.091" spreadMethod="reflect"><stop offset="0" stop-color="#6dc7ff"/><stop offset="1" stop-color="#e6abff"/></linearGradient><path d="M11.488 18.85a.503.503 0 0 1-.493.132.5.5 0 0 1-.36-.361l-2.61-9.79a.646.646 0 0 1 .171-.636.647.647 0 0 1 .634-.171l9.79 2.611a.5.5 0 0 1 .361.36.504.504 0 0 1-.132.493l-7.361 7.362z" fill="url(#d)"/><linearGradient id="e" gradientUnits="userSpaceOnUse" x1="32" y1="28.06" x2="32" y2="35.953" spreadMethod="reflect"><stop offset="0" stop-color="#6dc7ff"/><stop offset="1" stop-color="#e6abff"/></linearGradient><circle cx="32" cy="32" r="4" fill="url(#e)"/><linearGradient id="f" gradientUnits="userSpaceOnUse" x1="32" y1="5.999" x2="32" y2="58.434" spreadMethod="reflect"><stop offset="0" stop-color="#1a6dff"/><stop offset="1" stop-color="#c822ff"/></linearGradient><path d="M41.707 23.707l6.417-6.417 2.974 2.974a2.479 2.479 0 0 0 2.427.65 2.48 2.48 0 0 0 1.772-1.777l2.612-9.791a2.632 2.632 0 0 0-.69-2.565 2.629 2.629 0 0 0-2.564-.688l-9.79 2.611c-.877.234-1.542.897-1.777 1.774s.008 1.784.649 2.426l2.974 2.974-6.417 6.417 1.413 1.412zm3.312-12.712a.5.5 0 0 1 .361-.36l9.79-2.611a.654.654 0 0 1 .635.17c.081.081.26.305.172.636l-2.611 9.79-.001.001a.498.498 0 0 1-.359.36.501.501 0 0 1-.493-.132l-7.361-7.361a.5.5 0 0 1-.133-.493zM22.293 40.293l-6.417 6.417-2.974-2.974a2.483 2.483 0 0 0-2.427-.649 2.48 2.48 0 0 0-1.772 1.777l-2.612 9.791a2.632 2.632 0 0 0 .69 2.565 2.632 2.632 0 0 0 2.564.689l9.79-2.611c.877-.234 1.542-.897 1.777-1.774s-.008-1.784-.649-2.426l-2.974-2.974 6.417-6.417-1.413-1.414zm-3.312 12.712a.5.5 0 0 1-.361.36l-9.79 2.611a.64.64 0 0 1-.635-.17.649.649 0 0 1-.172-.636l2.611-9.79.001-.001a.498.498 0 0 1 .359-.36.49.49 0 0 1 .494.131l7.361 7.361a.503.503 0 0 1 .132.494zm36.317-8.14a2.483 2.483 0 0 0-1.773-1.778 2.484 2.484 0 0 0-2.427.649l-2.974 2.974-6.417-6.417-1.414 1.414 6.417 6.417-2.974 2.974c-.642.642-.885 1.549-.649 2.426s.9 1.541 1.777 1.774l9.79 2.611a2.628 2.628 0 0 0 2.564-.689c.68-.679.938-1.638.689-2.566l-2.609-9.789zm.507 10.941a.637.637 0 0 1-.635.17l-9.79-2.611a.5.5 0 0 1-.361-.36.504.504 0 0 1 .132-.493l7.361-7.361a.5.5 0 0 1 .493-.132.5.5 0 0 1 .36.361l2.61 9.79a.647.647 0 0 1-.17.636zM20.264 12.902c.642-.642.885-1.549.649-2.426s-.9-1.541-1.777-1.774l-9.79-2.611a2.633 2.633 0 0 0-2.565.689 2.627 2.627 0 0 0-.689 2.566l2.61 9.789a2.483 2.483 0 0 0 1.773 1.778 2.482 2.482 0 0 0 2.427-.65l2.974-2.974 6.417 6.417 1.414-1.414-6.417-6.417 2.974-2.973zm-8.776 5.948a.503.503 0 0 1-.493.132.5.5 0 0 1-.36-.361l-2.61-9.79a.646.646 0 0 1 .171-.636.647.647 0 0 1 .634-.171l9.79 2.611a.5.5 0 0 1 .361.36.504.504 0 0 1-.132.493l-7.361 7.362zM38.586 24L40 25.414l-1.414 1.414-1.414-1.414L38.586 24zM25.414 40L24 38.586l1.414-1.414 1.414 1.414L25.414 40zM40 38.586L38.586 40l-1.414-1.414 1.414-1.414L40 38.586zM24 25.414L25.414 24l1.414 1.414-1.414 1.414L24 25.414z" fill="url(#f)"/></svg>