<svg xmlns="http://www.w3.org/2000/svg" viewBox="0 0 64 64"><linearGradient id="a" gradientUnits="userSpaceOnUse" x1="31.218" y1="3.5" x2="31.218" y2="57.89" spreadMethod="reflect"><stop offset="0" stop-color="#1a6dff"/><stop offset="1" stop-color="#c822ff"/></linearGradient><path d="M23.207 3.793l-1.414 1.414L25.586 9 8.744 25.843C7.633 26.953 7.021 28.43 7.021 30s.611 3.047 1.722 4.157l20.099 20.1c1.146 1.146 2.652 1.719 4.158 1.719s3.011-.572 4.158-1.719L55.414 36 23.207 3.793zm12.537 49.05a3.886 3.886 0 0 1-5.487 0l-20.099-20.1c-.733-.732-1.137-1.707-1.137-2.743s.403-2.011 1.136-2.743L27 10.414 52.586 36 35.744 52.843z" fill="url(#a)"/><linearGradient id="b" gradientUnits="userSpaceOnUse" x1="56" y1="3.5" x2="56" y2="57.89" spreadMethod="reflect"><stop offset="0" stop-color="#1a6dff"/><stop offset="1" stop-color="#c822ff"/></linearGradient><path d="M56.823 45.432L56 44.24l-.823 1.191C54.479 46.441 51 51.601 51 54c0 2.757 2.243 5 5 5s5-2.243 5-5c0-2.399-3.479-7.559-4.177-8.568z" fill="url(#b)"/><linearGradient id="c" gradientUnits="userSpaceOnUse" x1="33" y1="37.051" x2="33" y2="51.883" spreadMethod="reflect"><stop offset="0" stop-color="#6dc7ff"/><stop offset="1" stop-color="#e6abff"/></linearGradient><path d="M17.243 37L31.67 51.429a1.882 1.882 0 0 0 2.659-.001L48.757 37H17.243z" fill="url(#c)"/><linearGradient id="d" gradientUnits="userSpaceOnUse" x1="56" y1="22.435" x2="56" y2="56.309" spreadMethod="reflect"><stop offset="0" stop-color="#6dc7ff"/><stop offset="1" stop-color="#e6abff"/></linearGradient><path d="M56 57c-1.654 0-3-1.346-3-3 0-1.092 1.561-3.942 3-6.192 1.439 2.249 3 5.099 3 6.192 0 1.654-1.346 3-3 3z" fill="url(#d)"/></svg>