<svg xmlns="http://www.w3.org/2000/svg" viewBox="0 0 80 80"><path d="M57 10.598V17H9v2h48v6.402l1.504-.882L69.637 18zm2 3.492L65.68 18 59 21.91zM9 31.75V71H5v2h70v-2h-4V31.75H61V71h-3V31.75H48V71h-3V31.75H35V71h-3V31.75H22V71h-3V31.75zm2 2h6V35c-.55 0-1 .45-1 1s.45 1 1 1v4c-.55 0-1 .45-1 1s.45 1 1 1v4c-.55 0-1 .45-1 1s.45 1 1 1v4c-.55 0-1 .45-1 1s.45 1 1 1v4c-.55 0-1 .45-1 1s.45 1 1 1v4c-.55 0-1 .45-1 1s.45 1 1 1v4h-6v-4c.55 0 1-.45 1-1s-.45-1-1-1v-4c.55 0 1-.45 1-1s-.45-1-1-1v-4c.55 0 1-.45 1-1s-.45-1-1-1v-4c.55 0 1-.45 1-1s-.45-1-1-1v-4c.55 0 1-.45 1-1s-.45-1-1-1v-4c.55 0 1-.45 1-1s-.45-1-1-1zm13 0h6V71h-6zm13 0h6V35c-.55 0-1 .45-1 1s.45 1 1 1v4c-.55 0-1 .45-1 1s.45 1 1 1v4c-.55 0-1 .45-1 1s.45 1 1 1v4c-.55 0-1 .45-1 1s.45 1 1 1v4c-.55 0-1 .45-1 1s.45 1 1 1v4c-.55 0-1 .45-1 1s.45 1 1 1v4h-6v-4c.55 0 1-.45 1-1s-.45-1-1-1v-4c.55 0 1-.45 1-1s-.45-1-1-1v-4c.55 0 1-.45 1-1s-.45-1-1-1v-4c.55 0 1-.45 1-1s-.45-1-1-1v-4c.55 0 1-.45 1-1s-.45-1-1-1v-4c.55 0 1-.45 1-1s-.45-1-1-1zm13 0h6V71h-6zm13 0h6V35c-.55 0-1 .45-1 1s.45 1 1 1v4c-.55 0-1 .45-1 1s.45 1 1 1v4c-.55 0-1 .45-1 1s.45 1 1 1v4c-.55 0-1 .45-1 1s.45 1 1 1v4c-.55 0-1 .45-1 1s.45 1 1 1v4c-.55 0-1 .45-1 1s.45 1 1 1v4h-6v-4c.55 0 1-.45 1-1s-.45-1-1-1v-4c.55 0 1-.45 1-1s-.45-1-1-1v-4c.55 0 1-.45 1-1s-.45-1-1-1v-4c.55 0 1-.45 1-1s-.45-1-1-1v-4c.55 0 1-.45 1-1s-.45-1-1-1v-4c.55 0 1-.45 1-1s-.45-1-1-1zM14 38c-.55 0-1 .45-1 1s.45 1 1 1 1-.45 1-1-.45-1-1-1zm26 0c-.55 0-1 .45-1 1s.45 1 1 1 1-.45 1-1-.45-1-1-1zm26 0c-.55 0-1 .45-1 1s.45 1 1 1 1-.45 1-1-.45-1-1-1zm-52 6c-.55 0-1 .45-1 1s.45 1 1 1 1-.45 1-1-.45-1-1-1zm26 0c-.55 0-1 .45-1 1s.45 1 1 1 1-.45 1-1-.45-1-1-1zm26 0c-.55 0-1 .45-1 1s.45 1 1 1 1-.45 1-1-.45-1-1-1zm-52 6c-.55 0-1 .45-1 1s.45 1 1 1 1-.45 1-1-.45-1-1-1zm26 0c-.55 0-1 .45-1 1s.45 1 1 1 1-.45 1-1-.45-1-1-1zm26 0c-.55 0-1 .45-1 1s.45 1 1 1 1-.45 1-1-.45-1-1-1zm-52 6c-.55 0-1 .45-1 1s.45 1 1 1 1-.45 1-1-.45-1-1-1zm26 0c-.55 0-1 .45-1 1s.45 1 1 1 1-.45 1-1-.45-1-1-1zm26 0c-.55 0-1 .45-1 1s.45 1 1 1 1-.45 1-1-.45-1-1-1zm-52 6c-.55 0-1 .45-1 1s.45 1 1 1 1-.45 1-1-.45-1-1-1zm26 0c-.55 0-1 .45-1 1s.45 1 1 1 1-.45 1-1-.45-1-1-1zm26 0c-.55 0-1 .45-1 1s.45 1 1 1 1-.45 1-1-.45-1-1-1zm-52 6c-.55 0-1 .45-1 1s.45 1 1 1 1-.45 1-1-.45-1-1-1zm26 0c-.55 0-1 .45-1 1s.45 1 1 1 1-.45 1-1-.45-1-1-1zm26 0c-.55 0-1 .45-1 1s.45 1 1 1 1-.45 1-1-.45-1-1-1z"/></svg>