<svg xmlns="http://www.w3.org/2000/svg" viewBox="0 0 64 64"><path d="M18 9l5.29-5.29a1.002 1.002 0 0 1 1.41 0l4.3 4.7z" fill="#85cbf8"/><path d="M27 9l7.75-7.75a.854.854 0 0 1 .61-.254c.23 0 .449.09.609.254L43.71 9" fill="#faefde"/><path d="M9 9h44a2 2 0 0 1 2 2v6a2 2 0 0 1-2 2H9a2 2 0 0 1-2-2v-6a2 2 0 0 1 2-2zm6 48h32a1.999 1.999 0 1 1 0 4H15a1.999 1.999 0 1 1 0-4z" fill="#f9e3ae"/><path d="M47 57H15l-5-38h42z" fill="#c2cde7"/><path d="M25 57H15l-5-38h14z" fill="#ced8ed"/><path d="M11 19v2a3 3 0 0 0 3 3h24l-1 33h10l5-38z" fill="#b5c4e0"/><path d="M16 12c-.55 0-1 .45-1 1v2c0 .55.45 1 1 1s1-.45 1-1v-2c0-.55-.45-1-1-1zm-5 0c-.55 0-1 .45-1 1v2c0 .55.45 1 1 1s1-.45 1-1v-2c0-.55-.45-1-1-1zm10 0c-.55 0-1 .45-1 1v2c0 .55.45 1 1 1s1-.45 1-1v-2c0-.55-.45-1-1-1zm5 0c-.55 0-1 .45-1 1v2c0 .55.45 1 1 1s1-.45 1-1v-2c0-.55-.45-1-1-1zm5 0c-.55 0-1 .45-1 1v2c0 .55.45 1 1 1s1-.45 1-1v-2c0-.55-.45-1-1-1zm5 0c-.55 0-1 .45-1 1v2c0 .55.45 1 1 1s1-.45 1-1v-2c0-.55-.45-1-1-1zm5 0c-.55 0-1 .45-1 1v2c0 .55.45 1 1 1s1-.45 1-1v-2c0-.55-.45-1-1-1zm5 0c-.55 0-1 .45-1 1v2c0 .55.45 1 1 1s1-.45 1-1v-2c0-.55-.45-1-1-1zm5 0c-.55 0-1 .45-1 1v2c0 .55.45 1 1 1s1-.45 1-1v-2c0-.55-.45-1-1-1z" fill="#8d6c9f"/><path d="M53 8h-8.871L36.679.55A1.905 1.905 0 0 0 34 .55l-5.5 5.54L25.41 3a1.999 1.999 0 0 0-1.414-.586c-.531 0-1.039.211-1.418.586l-5 5H9a3 3 0 0 0-3 3v6a3 3 0 0 0 3 3c0 .27 4.89 36.219 4.89 36.219a3.003 3.003 0 0 0-1.82 3.347A2.999 2.999 0 0 0 15 62h32a2.999 2.999 0 0 0 2.93-2.434 3.003 3.003 0 0 0-1.82-3.347l2.28-17.297c.06-.152.079-.313.06-.473L52.921 20H53a3 3 0 0 0 3-3v-6a3 3 0 0 0-3-3zM35.36 2.059L41.3 8H29.41zM24 4.41l3.09 3.09-.5.5h-6.18zM11.531 22.941L13.59 25 12 26.578zM11.411 20h7.167L15 23.59zm2.448 20.719l-1.53-11.64L21.41 20h3.168l5 5-4.777 4.781a1 1 0 0 0-.324.992 1 1 0 0 0 .738.739 1 1 0 0 0 .996-.32L31 26.41 37.59 33 31 39.59 17.89 26.48a1.004 1.004 0 0 0-1.359.051c-.367.371-.39.961-.05 1.36L21.59 33zM27.41 20h7.168L31 23.59zm-9.52 22.48a1.004 1.004 0 0 0-1.359.051c-.367.371-.39.961-.05 1.36L21.59 49l-5.86 5.86-1.53-11.641 8.8-8.797L29.59 41 23 47.59zM28.59 56H17.41L23 50.41zM47 60H15c-.55 0-1-.45-1-1s.45-1 1-1h32c.55 0 1 .45 1 1s-.45 1-1 1zm-13.59-4L39 50.41 44.59 56zm12.86-1.14L40.41 49 48 41.371zm2.199-16.75L38.3 48.28 31 55.59 24.41 49 31 42.41l4.422 4.418a.996.996 0 1 0 1.406-1.406L32.41 41 39 34.41l5.14 5.14a.996.996 0 0 0 1.356-.054.996.996 0 0 0 .055-1.355L40.41 33 47 26.41l2.672 2.668zM50 26.577L48.41 25l2.059-2.059zm-11 5L32.41 25l5-5h3.168l3.332 3.328c.399.34.988.32 1.356-.05a.996.996 0 0 0 .054-1.356L43.41 20h7.168zM54 17c0 .55-.45 1-1 1H9c-.55 0-1-.45-1-1v-6c0-.55.45-1 1-1h44c.55 0 1 .45 1 1z" fill="#8d6c9f"/></svg>