<svg xmlns="http://www.w3.org/2000/svg" viewBox="0 0 26 26"><path d="M10.875 0a1.008 1.008 0 0 0-.594.281L5.562 5H3c-.55 0-1 .45-1 1v2c0 .55.45 1 1 1h.25l2.281 13.719v.062c.164.79.469 1.54 1.032 2.157A3.254 3.254 0 0 0 8.938 26h8.124c.95 0 1.805-.418 2.375-1.031.57-.614.883-1.407 1.032-2.219v-.031L22.78 9H23c.55 0 1-.45 1-1V6c0-.55-.45-1-1-1h-1.563l-2.812-3.5a.815.815 0 0 0-.719-.313.85.85 0 0 0-.343.125L14.688 3.25 11.717.281A1.009 1.009 0 0 0 10.876 0zM11 2.438L13.563 5H8.436zm6.844.656L19.375 5h-2.938l-.593-.594zM5.25 9h.688l1.187 1.188-1.438 1.406zm2.094 0h.937l-.469.469zm2.312 0h1.688l.906.906-2 2-1.75-1.75zm3.125 0h.344l-.156.188zm1.781 0h1.688l1.156 1.156-1.75 1.75-2-2.031zm3.063 0h.938l-.47.469zm2.344 0h.812l-.437 2.688-1.532-1.532zm-7.032 1.594l2.032 2-2.031 2-2-2zm-5.124.281l1.718 1.719-2 2-1.625-1.625-.031-.156zm10.28 0l2 2-1.718 1.75-2-2.031zm-7.843 2.438l2 2-2 2-2-2zm5.406 0l2.031 2-2 2-2.03-2zm4.188 1.25l-.219 1.312-.563-.563zm-13.657.093l.657.656-.469.47zM7.532 16l2 2-2 2.031-.562-.562-.407-2.5zm5.407 0l2.03 2.031-2 2L10.939 18zm5.437 0l1.063 1.063-.407 2.28-.656.657-2-2zm-8.125 2.719l2 2-2 2.031-2-2zm5.406 0l2 2-2 2-2-2zm-8.094 2.718l2 2L9 24h-.063c-.39 0-.62-.129-.874-.406-.247-.27-.489-.7-.594-1.188v-.031l-.125-.75zm5.407 0l2 2-.563.563H11.5l-.563-.563zm5.406 0l.281.282-.125.656c0 .012.004.02 0 .031-.093.489-.316.922-.562 1.188-.25.27-.508.406-.907.406h-.125l-.562-.563z"/></svg>