<svg xmlns="http://www.w3.org/2000/svg" viewBox="0 0 50 50"><path d="M19.875 2a.997.997 0 0 0-.5.219L12.344 8H7.813A1 1 0 0 0 7 9v4c0 .55.45 1 1 1h.188l2.937 15.75c-.02.207.023.414.125.594l1.344 7.187a.971.971 0 0 0 .094.469l.718 3.875v.031C13.898 44.234 15.922 46 18.312 46h13.375c2.383 0 4.516-1.738 4.907-4.125v-.031L37.312 38v-.031l.032-.063c.047-.129.07-.27.062-.406l1.344-7.125a.99.99 0 0 0 .125-.656L41.813 14H42c.55 0 1-.45 1-1V9c0-.55-.45-1-1-1h-3l-6.531-4.656a.814.814 0 0 0-.625-.156.768.768 0 0 0-.157.062L25.282 6l-4.656-3.781c-.21-.172-.48-.25-.75-.219zM20 4.281L24.594 8H15.5zm11.906.657L36.22 8h-8.47l-1.031-.844zM9 10h32v2h-8.781a.936.936 0 0 0-.313-.031.88.88 0 0 0-.093.031h-10.72a1.024 1.024 0 0 0-.218 0H9zm3.438 4h3.124L14 15.563zm6 0h2.125l3 3-4.063 4.063L15.437 17zm5 0h3.125L25 15.563zm6 0h2.125l3 3-4.063 4.063L26.437 17zm5 0h3.124L36 15.563zm-24.094.781L12.563 17l-1.5 1.531zm29.312 0l-.687 3.781L37.437 17zM14 18.406l4.094 4.094L14 26.594 12.406 25a.954.954 0 0 0-.156-.125l-.75-3.969zm11 .032l4.094 4.062L25 26.594 20.937 22.5zm11 0l2.5 2.468-.719 3.938a.906.906 0 0 0-.187.156L36 26.594 31.906 22.5zm-16.5 5.468L23.594 28 19.5 32.094 15.406 28zm11 0L34.594 28 30.5 32.094 26.406 28zm-16.5 5.5l4.094 4.094-3.563 3.563-1.281-6.907zm11 0l4.094 4.094L25 37.594 20.906 33.5zm11 0l.75.75-1.281 6.907-3.563-3.563zm-16.5 5.5L23.594 39 20 42.594 15.906 38.5zm11 0l3.594 3.594L30 42.594 26.406 39zm-5.5 5.5L28.594 44h-7.188zm-9.781.219L18.594 44h-.282c-1.41 0-2.628-1.027-2.937-2.5zm19.562 0l-.156.875v.031C34.402 42.93 33.098 44 31.687 44h-.28z"/></svg>