<svg xmlns="http://www.w3.org/2000/svg" viewBox="0 0 16 16"><path d="M3.5 2C2.676 2 2 2.676 2 3.5V4h.21c.161.406.446.75.833.906l.863 7.762c.082.754.73 1.332 1.489 1.332h5.21c.758 0 1.407-.578 1.489-1.332v-.004l.863-7.758c.387-.156.672-.5.836-.906H14v-.5c0-.824-.676-1.5-1.5-1.5zm0 1h9c.281 0 .5.219.5.5s-.219.5-.5.5h-9a.494.494 0 0 1-.5-.5c0-.281.219-.5.5-.5zm.559 2h7.882l-.273 2.473-1.277-.57-.891.89L8.707 7H7.191l-.828 1.656-.754-.754-1.171.528zm3.75 3h.484L9.5 9.207l1.11-1.11.94.419-.448 4.039a.493.493 0 0 1-.497.445h-5.21a.493.493 0 0 1-.497-.445l-.343-3.082.836-.375 1.246 1.246z"/></svg>