<svg xmlns="http://www.w3.org/2000/svg" viewBox="0 0 50 50"><path d="M24.98 1a.98.98 0 0 0-.75.363s-4.035 4.88-8.07 11.106C12.125 18.699 8 26.19 8 32.019 8 41.388 15.621 49 25 49s17-7.613 17-16.98c0-5.829-4.125-13.32-8.16-19.551-4.035-6.227-8.07-11.106-8.07-11.106A.99.99 0 0 0 24.98 1zM24 4.883v42.066c-7.828-.515-14-6.98-14-14.93 0-4.824 3.875-12.343 7.84-18.46A122.928 122.928 0 0 1 24 4.883zm2.777 1.015c.446.59.93 1.239 1.485 2-.04.114-.063.23-.063.352 0 .57.473 1.035 1.059 1.04a124.124 124.124 0 0 1 2.902 4.269 85.7 85.7 0 0 1 3.63 6.152 1.073 1.073 0 0 0-.875.297 1.018 1.018 0 0 0-.001 1.472c.2.196.469.305.754.305.383 0 .738-.203.926-.527.437.87.84 1.734 1.21 2.586 0 .008-.003.015-.003.023l.023.024c.852 1.968 1.524 3.87 1.88 5.578a1.086 1.086 0 0 0-.837-.39c-.59 0-1.066.464-1.066 1.038 0 .574.476 1.04 1.066 1.04.453 0 .86-.282 1.008-.7.074.543.125 1.07.125 1.563 0 1.226-.164 2.41-.441 3.554a1.08 1.08 0 0 0-.692-.25c-.59 0-1.066.465-1.066 1.04a1.053 1.053 0 0 0 1.187 1.034 14.971 14.971 0 0 1-8.695 8.63 1.06 1.06 0 0 0 .039-.294c.004-.574-.477-1.039-1.066-1.039-.282 0-.555.11-.754.305a1.021 1.021 0 0 0 .09 1.547c-.844.21-1.711.351-2.602.414v-3.309c.023 0 .043.004.066.004.286 0 .555-.11.754-.304a1.023 1.023 0 0 0 0-1.477 1.053 1.053 0 0 0-.82-.297v-4.172h.066c.286 0 .555-.11.754-.304.203-.196.317-.461.317-.739 0-.273-.114-.539-.317-.734a1.073 1.073 0 0 0-.82-.3v-4.173c.023 0 .043.004.066 0 .286.004.555-.105.754-.3a1.023 1.023 0 0 0 0-1.477 1.053 1.053 0 0 0-.754-.3H26v-4.173a1.073 1.073 0 0 0 .82-.3 1.02 1.02 0 0 0 .317-.735c0-.277-.114-.543-.317-.738a1.073 1.073 0 0 0-.82-.301v-4.176a1.073 1.073 0 0 0 .82-.3 1.02 1.02 0 0 0 .317-.735c0-.277-.114-.543-.317-.738a1.073 1.073 0 0 0-.82-.301V12.41c.023 0 .043.004.066 0 .286.004.555-.105.754-.3a1.023 1.023 0 0 0 0-1.477 1.073 1.073 0 0 0-.754-.305c-.023.004-.043.004-.066.004V6.164h.066c.262 0 .516-.094.711-.266zm2.489 7.555c-.282 0-.555.11-.754.305a1.03 1.03 0 0 0 0 1.476c.199.196.472.305.754.301.59 0 1.07-.465 1.066-1.039.004-.574-.477-1.039-1.066-1.043zm3.203 3.125c-.59 0-1.07.465-1.067 1.043-.004.574.477 1.04 1.067 1.04.586 0 1.066-.466 1.062-1.04.004-.578-.476-1.043-1.062-1.043zm-3.203 3.125c-.282 0-.555.11-.754.305-.2.195-.313.46-.313.738 0 .274.113.54.313.734.199.196.472.305.754.305.59 0 1.07-.465 1.066-1.039.004-.578-.477-1.043-1.066-1.043zm3.203 3.125c-.59 0-1.07.465-1.067 1.043-.004.574.477 1.04 1.067 1.04.586 0 1.066-.466 1.062-1.04.004-.578-.476-1.043-1.062-1.043zm-3.203 3.125a1.06 1.06 0 0 0-.754.3 1.03 1.03 0 0 0 0 1.477c.199.196.472.305.754.301.59 0 1.07-.465 1.066-1.039.004-.574-.477-1.039-1.066-1.039zm6.402 0a1.053 1.053 0 0 0-.754.3 1.023 1.023 0 0 0 0 1.477c.2.196.469.305.754.301.59 0 1.066-.465 1.066-1.039 0-.574-.476-1.039-1.066-1.039zm-3.2 3.125c-.59 0-1.07.465-1.066 1.04-.004.573.477 1.038 1.067 1.038.586 0 1.066-.465 1.062-1.039.004-.574-.476-1.039-1.062-1.039zM29.267 32.2c-.282 0-.555.11-.754.305-.2.195-.313.46-.313.734 0 .278.113.543.313.739.199.195.472.304.754.304.59 0 1.07-.465 1.066-1.043.004-.574-.477-1.039-1.066-1.039zm6.402 0c-.285 0-.555.11-.754.305a1.02 1.02 0 0 0-.316.734c0 .278.113.543.316.739.2.195.469.304.754.304.59 0 1.066-.465 1.066-1.043 0-.574-.476-1.039-1.066-1.039zm-3.2 3.125c-.59 0-1.07.465-1.066 1.04-.004.577.477 1.042 1.067 1.042.586 0 1.066-.465 1.062-1.043.004-.574-.476-1.039-1.062-1.039zm-3.202 3.125a1.06 1.06 0 0 0-.754.301 1.03 1.03 0 0 0 0 1.477c.199.195.472.304.754.304.59-.004 1.07-.468 1.066-1.043.004-.574-.477-1.039-1.066-1.039zm6.402 0a1.053 1.053 0 0 0-.754.301 1.023 1.023 0 0 0 0 1.477c.2.195.469.304.754.304.59-.004 1.066-.468 1.066-1.043 0-.574-.476-1.039-1.066-1.039zm-3.2 3.125c-.59 0-1.07.465-1.066 1.04-.004.574.477 1.038 1.067 1.042.586-.004 1.066-.468 1.062-1.043.004-.574-.476-1.039-1.062-1.039z"/></svg>