<svg xmlns="http://www.w3.org/2000/svg" viewBox="0 0 26 26"><path d="M0 0v26h26V0zm2 2h10v7.781L9.719 7.625 7.53 8.719l-2.718-3.25L2 7.875zm12 0h10v10H14zm5 .719s-.54 1.57-1.031 1.781c-.492.21-2-.531-2-.531S16.664 5.496 16.5 6c-.117.352-1.7.98-1.75 1 .05.02 1.578.578 1.688 1 .164.637-.47 2.031-.47 2.031s1.438-.781 1.907-.531C18.34 9.75 19 11.281 19 11.281s.54-1.57 1.031-1.781c.492-.21 2 .531 2 .531S21.324 8.5 21.5 8c.137-.387 1.781-1 1.781-1s-1.59-.61-1.718-1c-.208-.625.468-2.031.468-2.031s-1.437.781-1.906.531C19.656 4.25 19 2.719 19 2.719zM10 4c-.55 0-1 .45-1 1s.45 1 1 1 1-.45 1-1-.45-1-1-1zm9 1.031c1.082 0 1.969.887 1.969 1.969A1.976 1.976 0 0 1 19 8.969 1.976 1.976 0 0 1 17.031 7c0-1.082.887-1.969 1.969-1.969zM2 14h10v10H2zm12 0h10v10H14zm3 1c-.55 0-1 .45-1 1s.45 1 1 1 1-.45 1-1-.45-1-1-1zm-8.844.156c-.793.117-1.562.813-1.562.813s-.086-.051-.219-.125c-.445-.254-1.48-.75-2.188-.063-.914.887-.062 2.438-.062 2.438s-1.36 1.113-.938 2.25c.102.273.31.465.532.593.703.403 1.781.22 1.781.22s.441.964 1.156 1.374c.203.117.45.2.688.188 1.082-.059 1.468-1.938 1.468-1.938s1.774-.16 2.063-1.281c.258-.992-1.02-1.8-1.313-1.969-.035-.02-.062-.031-.062-.031s.418-1.781-.563-2.344a1.19 1.19 0 0 0-.78-.125zm-.5 1.969a.238.238 0 0 1 .188.031c.55.317-.719 1.469-.719 1.469s1.688-.172 1.594.469c-.094.636-1.656-.25-1.656-.25s.73 1.554.093 1.656c-.636.102-.312-1.625-.312-1.625s-1.36 1.16-1.563.594c-.199-.567 1.5-.782 1.5-.782s-1.558-.902-1.062-1.312c.496-.41 1.218 1.156 1.218 1.156s.278-1.293.72-1.406zm12.125 0a2 2 0 0 0-1.687.906c-.856-.093-1.57.457-1.782 1.219a1.37 1.37 0 0 0-1.28 1.375c0 .758.616 1.375 1.374 1.375h4.875c.926 0 1.688-.762 1.688-1.688 0-.773-.516-1.406-1.25-1.593-.188-.907-.992-1.594-1.938-1.594z"/></svg>