<svg xmlns="http://www.w3.org/2000/svg" viewBox="0 0 64 64"><linearGradient id="a" gradientUnits="userSpaceOnUse" x1="32" y1="27.961" x2="32" y2="35.662" spreadMethod="reflect"><stop offset="0" stop-color="#6dc7ff"/><stop offset="1" stop-color="#e6abff"/></linearGradient><circle cx="32" cy="32" r="4" fill="url(#a)"/><linearGradient id="b" gradientUnits="userSpaceOnUse" x1="32" y1="4.361" x2="32" y2="59.899" spreadMethod="reflect"><stop offset="0" stop-color="#1a6dff"/><stop offset="1" stop-color="#c822ff"/></linearGradient><path d="M33.796 5.01c-.387-.628-1.058-1.003-1.796-1.003s-1.409.375-1.796 1.003l-5.864 9.529v.001a2.24 2.24 0 0 0-.048 2.297A2.244 2.244 0 0 0 26.274 18H31v3h2v-3h4.726c.834 0 1.575-.435 1.982-1.163a2.242 2.242 0 0 0-.048-2.298L33.796 5.01zM37.726 46H33v-3h-2v3h-4.726c-.834 0-1.575.435-1.982 1.163a2.242 2.242 0 0 0 .048 2.298l5.864 9.529c.387.628 1.058 1.003 1.796 1.003s1.409-.375 1.796-1.003l5.864-9.529v-.001a2.24 2.24 0 0 0 .048-2.297A2.244 2.244 0 0 0 37.726 46zM58.99 30.204l-9.529-5.864h-.001a2.245 2.245 0 0 0-2.297-.048A2.244 2.244 0 0 0 46 26.274V31h-3v2h3v4.726c0 .834.435 1.575 1.163 1.982.35.195.729.293 1.109.293.41 0 .819-.113 1.188-.341l9.529-5.864c.628-.387 1.003-1.058 1.003-1.796s-.374-1.409-1.002-1.796zM18 26.274c0-.834-.435-1.575-1.163-1.982a2.244 2.244 0 0 0-2.298.048L5.01 30.204c-.628.387-1.003 1.058-1.003 1.796s.375 1.409 1.003 1.796l9.529 5.864h.001a2.25 2.25 0 0 0 2.297.048A2.244 2.244 0 0 0 18 37.726V33h3v-2h-3v-4.726zM33 25h-2v-2h2v2zm0 16h-2v-2h2v2zm6-8v-2h2v2h-2zm-16 0v-2h2v2h-2z" fill="url(#b)"/><linearGradient id="c" gradientUnits="userSpaceOnUse" x1="32" y1="6.365" x2="32" y2="57.876" spreadMethod="reflect"><stop offset="0" stop-color="#6dc7ff"/><stop offset="1" stop-color="#e6abff"/></linearGradient><path d="M37.957 15.587a.258.258 0 0 1 .005.274.256.256 0 0 1-.236.139H26.274a.255.255 0 0 1-.236-.139.258.258 0 0 1 .005-.274l5.864-9.528c.018-.029.168-.029.186 0l5.864 9.528zM37.726 48H26.274a.255.255 0 0 0-.236.139.258.258 0 0 0 .005.274l5.864 9.528c.018.029.168.029.186 0l5.864-9.528a.258.258 0 0 0 .005-.274.256.256 0 0 0-.236-.139zm20.215-16.093l-9.528-5.864a.276.276 0 0 0-.141-.042.282.282 0 0 0-.134.037.257.257 0 0 0-.138.236v11.451c0 .132.075.201.139.236.062.035.16.062.274-.005l9.528-5.864c.015-.009.052-.032.052-.093s-.037-.083-.052-.092zm-42.08-5.869a.258.258 0 0 0-.274.005l-9.528 5.864a.1.1 0 0 0-.052.093.1.1 0 0 0 .052.093l9.528 5.864a.26.26 0 0 0 .274.005.256.256 0 0 0 .139-.236V26.274a.256.256 0 0 0-.139-.236z" fill="url(#c)"/></svg>