<svg xmlns="http://www.w3.org/2000/svg" viewBox="0 0 64 64"><path d="M32 .117c-2.059 0-4.121.64-5.879 1.922L23.421 4H9a3.01 3.01 0 0 0-3 3v52c0 1.648 1.352 3 3 3h46c1.648 0 3-1.352 3-3V7c0-1.648-1.352-3-3-3H40.578l-2.7-1.96A9.996 9.996 0 0 0 32 .116zm0 2.008c1.648 0 3.3.512 4.71 1.535l.47.34 2.742 2 .84.61A2.996 2.996 0 0 1 42 9.04V11c0 .55-.45 1-1 1H23c-.55 0-1-.45-1-1V9.04c0-.962.46-1.872 1.238-2.43l.84-.61 2.742-2 .47-.34A8.011 8.011 0 0 1 32 2.125zM32 4a1.999 1.999 0 1 0 0 4 1.999 1.999 0 1 0 0-4zM9 6h12.031A4.999 4.999 0 0 0 20 9.04V10h-6c-1.102 0-2 .898-2 2v42c0 1.102.898 2 2 2h28.172c.797 0 1.558-.313 2.117-.879l6.832-6.832c.566-.559.879-1.32.879-2.117V12c0-1.102-.898-2-2-2h-6v-.96c0-1.11-.371-2.18-1.031-3.04H55c.55 0 1 .45 1 1v52c0 .55-.45 1-1 1H9c-.55 0-1-.45-1-1V7c0-.55.45-1 1-1zm5 6h6.18A3 3 0 0 0 23 14h18a3 3 0 0 0 2.82-2H50v34h-6c-1.102 0-2 .898-2 2v6H14zm3 4c-.55 0-1 .45-1 1v2c0 .55.45 1 1 1s1-.45 1-1v-2c0-.55-.45-1-1-1zm5 0c-.55 0-1 .45-1 1v2c0 .55.45 1 1 1s1-.45 1-1v-2c0-.55-.45-1-1-1zm5 0c-.55 0-1 .45-1 1v2c0 .55.45 1 1 1s1-.45 1-1v-2c0-.55-.45-1-1-1zm5 0c-.55 0-1 .45-1 1v2c0 .55.45 1 1 1s1-.45 1-1v-2c0-.55-.45-1-1-1zm5 0c-.55 0-1 .45-1 1v2c0 .55.45 1 1 1s1-.45 1-1v-2c0-.55-.45-1-1-1zm5 0c-.55 0-1 .45-1 1v2c0 .55.45 1 1 1s1-.45 1-1v-2c0-.55-.45-1-1-1zm5 0c-.55 0-1 .45-1 1v2c0 .55.45 1 1 1s1-.45 1-1v-2c0-.55-.45-1-1-1zm-24.953 6.953a.935.935 0 0 0-.488.102l-1.98.976a1.003 1.003 0 0 0 .886 1.797l.535-.265v3.39c0 .55.45 1 1 1s1-.45 1-1v-5c0-.348-.18-.668-.473-.851a1.004 1.004 0 0 0-.48-.149zM27 26c-.55 0-1 .45-1 1s.45 1 1 1h18c.55 0 1-.45 1-1s-.45-1-1-1zm-6.516 5.95c-.55 0-1 .448-1 1 0 .55.45 1 1 1h1.5v.5h-.668a1.835 1.835 0 0 0-1.832 1.831v.832c0 1.012.82 1.836 1.832 1.836h1.668c.551 0 1-.449 1-1 0-.55-.449-1-1-1h-1.5v-.5h.668a1.838 1.838 0 0 0 1.832-1.836v-.832a1.837 1.837 0 0 0-1.832-1.832zM27 34c-.55 0-1 .45-1 1s.45 1 1 1h14c.55 0 1-.45 1-1s-.45-1-1-1zm-6.531 6.95a1.001 1.001 0 0 0 0 2H22v.573h-.688c-.55 0-1 .45-1 1 0 .551.45 1 1 1H22v.489h-1.531c-.551 0-1 .449-1 1 0 .55.449 1 1 1h1.687A1.847 1.847 0 0 0 24 46.168v-3.375a1.847 1.847 0 0 0-1.844-1.844zM27 42c-.55 0-1 .45-1 1s.45 1 1 1h16c.55 0 1-.45 1-1s-.45-1-1-1zm17 6h4.59L44 52.59z"/></svg>