<svg xmlns="http://www.w3.org/2000/svg" viewBox="0 0 64 64"><linearGradient id="a" gradientUnits="userSpaceOnUse" x1="23" y1="11" x2="23" y2="53" spreadMethod="reflect"><stop offset="0" stop-color="#1a6dff"/><stop offset="1" stop-color="#c822ff"/></linearGradient><path d="M25 11v2H7v-2h18zm14 8v2H7v-2h32zM7 37h32v-2H7v2zm0-8h32v-2H7v2zm0 16h32v-2H7v2zm0 8h18v-2H7v2z" fill="url(#a)"/><linearGradient id="b" gradientUnits="userSpaceOnUse" x1="50.963" y1="23.625" x2="50.963" y2="39.962" gradientTransform="rotate(180 50.988 32)" spreadMethod="reflect"><stop offset="0" stop-color="#6dc7ff"/><stop offset="1" stop-color="#e6abff"/></linearGradient><path d="M45 25.186c0-.818.697-1.186 1.192-1.186.24 0 .469.077.679.229l9.799 7.077c.309.223.355.53.355.694s-.046.471-.355.694l-9.799 7.077a1.145 1.145 0 0 1-.68.229C45.697 40 45 39.632 45 38.814V25.186z" fill="url(#b)"/></svg>