<svg xmlns="http://www.w3.org/2000/svg" viewBox="0 0 40 40"><path d="M6.363 37.5a.876.876 0 0 1-.863-.887V3.387c0-.489.387-.887.863-.887H16.54a3.156 3.156 0 0 0-.039.5c0 1.93 1.57 3.5 3.5 3.5s3.5-1.57 3.5-3.5c0-.164-.012-.332-.04-.5h10.177c.476 0 .863.398.863.887v33.226a.876.876 0 0 1-.863.887z" fill="#b6dcfe"/><path d="M33.637 3c.199 0 .363.172.363.387v33.23a.375.375 0 0 1-.363.383H6.363C6.164 37 6 36.828 6 36.613V3.387C6 3.172 6.164 3 6.363 3H16c0 2.207 1.793 4 4 4s4-1.793 4-4h9.637m0-1h-10.82c.113.313.183.648.183 1a3 3 0 0 1-6 0c0-.352.07-.688.184-1H6.364C5.608 2 5 2.621 5 3.387v33.23C5 37.38 5.61 38 6.363 38h27.274C34.39 38 35 37.379 35 36.613V3.387C35 2.62 34.39 2 33.637 2z" fill="#4788c7"/><path d="M8 5h24v30H8z" fill="#fff"/><path d="M20 1c1.102 0 2 .898 2 2 0 1.102-.898 2-2 2-1.102 0-2-.898-2-2 0-1.102.898-2 2-2m0-1a3 3 0 1 0 .002 6.002A3 3 0 0 0 20 0z" fill="#4788c7"/><path d="M15 7.5A1.5 1.5 0 0 1 13.5 6V2.5h4.035l.04-.105A2.502 2.502 0 0 0 20 5.5a2.502 2.502 0 0 0 2.425-3.105l.039.105H26.5V6A1.5 1.5 0 0 1 25 7.5zm4.996-7z" fill="#98ccfd"/><path d="M26 3v3c0 .55-.45 1-1 1H15c-.55 0-1-.45-1-1V3h3c0 1.652 1.348 3 3 3s3-1.348 3-3h3m-6-3a2.99 2.99 0 0 0-2.816 2H13v4a2 2 0 0 0 2 2h10a2 2 0 0 0 2-2V2h-4.184A2.99 2.99 0 0 0 20 0zm0 5c-1.102 0-2-.898-2-2 0-1.102.898-2 2-2 1.102 0 2 .898 2 2 0 1.102-.898 2-2 2z" fill="#4788c7"/><path d="M18 14.5c0 1.379-1.121 2.5-2.5 2.5a2.502 2.502 0 0 1-2.5-2.5c0-1.379 1.121-2.5 2.5-2.5s2.5 1.121 2.5 2.5zM15.5 18c-2.484 0-4.5 1.79-4.5 4h9c0-2.21-2.016-4-4.5-4z" fill="#98ccfd"/><path d="M28.5 14h-6a.504.504 0 0 1-.5-.5c0-.273.227-.5.5-.5h6c.273 0 .5.227.5.5s-.227.5-.5.5zm0 4h-6a.504.504 0 0 1-.5-.5c0-.273.227-.5.5-.5h6c.273 0 .5.227.5.5s-.227.5-.5.5zm0 4h-6a.504.504 0 0 1-.5-.5c0-.273.227-.5.5-.5h6c.273 0 .5.227.5.5s-.227.5-.5.5zm0 4h-17a.504.504 0 0 1-.5-.5c0-.273.227-.5.5-.5h17c.273 0 .5.227.5.5s-.227.5-.5.5zm0 4h-17a.504.504 0 0 1-.5-.5c0-.273.227-.5.5-.5h17c.273 0 .5.227.5.5s-.227.5-.5.5z" fill="#4788c7"/></svg>