<svg xmlns="http://www.w3.org/2000/svg" viewBox="0 0 64 64"><linearGradient id="a" gradientUnits="userSpaceOnUse" x1="32" y1="5.836" x2="32" y2="58.67" spreadMethod="reflect"><stop offset="0" stop-color="#1a6dff"/><stop offset="1" stop-color="#c822ff"/></linearGradient><path d="M54 6c-2.206 0-4 1.794-4 4 0 1.239.578 2.334 1.465 3.068l-3.736 8.006A3.978 3.978 0 0 0 47 21c-1.366 0-2.572.69-3.294 1.738l-14.744-5.361c.012-.126.038-.248.038-.377 0-2.206-1.794-4-4-4s-4 1.794-4 4 1.794 4 4 4c.287 0 .566-.033.836-.091L36.382 42c-.309.27-.575.581-.79.933l-12.608-3.782c.003-.051.016-.099.016-.151 0-2.206-1.794-4-4-4s-4 1.794-4 4c0 1.091.441 2.08 1.153 2.803l-5.027 8.378A3.965 3.965 0 0 0 10 50c-2.206 0-4 1.794-4 4s1.794 4 4 4 4-1.794 4-4c0-1.091-.441-2.08-1.152-2.802l5.027-8.379c.359.106.732.181 1.125.181 1.447 0 2.705-.78 3.408-1.934l12.608 3.782c-.003.052-.016.1-.016.152 0 2.206 1.794 4 4 4s4-1.794 4-4-1.794-4-4-4c-.287 0-.566.033-.836.091L27.618 20c.252-.22.485-.461.676-.738l14.744 5.362c-.012.125-.038.247-.038.376 0 2.206 1.794 4 4 4s4-1.794 4-4c0-1.239-.578-2.334-1.465-3.068l3.736-8.005c.237.043.479.073.729.073 2.206 0 4-1.794 4-4s-1.794-4-4-4z" fill="url(#a)"/><linearGradient id="b" gradientUnits="userSpaceOnUse" x1="54" y1="8" x2="54" y2="12.02" spreadMethod="reflect"><stop offset="0" stop-color="#6dc7ff"/><stop offset="1" stop-color="#e6abff"/></linearGradient><circle cx="54" cy="10" r="2" fill="url(#b)"/><linearGradient id="c" gradientUnits="userSpaceOnUse" x1="47" y1="23" x2="47" y2="27.02" spreadMethod="reflect"><stop offset="0" stop-color="#6dc7ff"/><stop offset="1" stop-color="#e6abff"/></linearGradient><circle cx="47" cy="25" r="2" fill="url(#c)"/><linearGradient id="d" gradientUnits="userSpaceOnUse" x1="25" y1="15" x2="25" y2="19.02" spreadMethod="reflect"><stop offset="0" stop-color="#6dc7ff"/><stop offset="1" stop-color="#e6abff"/></linearGradient><circle cx="25" cy="17" r="2" fill="url(#d)"/><linearGradient id="e" gradientUnits="userSpaceOnUse" x1="39" y1="43" x2="39" y2="47.02" spreadMethod="reflect"><stop offset="0" stop-color="#6dc7ff"/><stop offset="1" stop-color="#e6abff"/></linearGradient><circle cx="39" cy="45" r="2" fill="url(#e)"/><linearGradient id="f" gradientUnits="userSpaceOnUse" x1="19" y1="37" x2="19" y2="41.02" spreadMethod="reflect"><stop offset="0" stop-color="#6dc7ff"/><stop offset="1" stop-color="#e6abff"/></linearGradient><circle cx="19" cy="39" r="2" fill="url(#f)"/><linearGradient id="g" gradientUnits="userSpaceOnUse" x1="10" y1="52" x2="10" y2="56.02" spreadMethod="reflect"><stop offset="0" stop-color="#6dc7ff"/><stop offset="1" stop-color="#e6abff"/></linearGradient><circle cx="10" cy="54" r="2" fill="url(#g)"/></svg>