<svg xmlns="http://www.w3.org/2000/svg" viewBox="0 0 50 50"><path d="M32.844 3.094a.994.994 0 0 0-.782.703c-.105.367.004.758.282 1.015L41.53 14H26c-6.348 0-11.125 1.605-14.313 4.469C8.5 21.332 7 25.406 7 30c0 8.965 4.156 15.531 4.156 15.531.176.332.524.54.899.535a.996.996 0 0 0 .883-.558.999.999 0 0 0-.094-1.04S9 38.349 9 30c0-4.164 1.305-7.582 4.031-10.031C15.758 17.519 19.992 16 26 16h15.531l-9.187 9.188a1.004 1.004 0 0 0-.348 1.003c.086.372.379.664.75.75.375.086.762-.05 1.004-.347l10.906-10.875.688-.719-.688-.719L33.75 3.406a1.004 1.004 0 0 0-.813-.312h-.093z"/></svg>