<svg xmlns="http://www.w3.org/2000/svg" viewBox="0 0 80 80"><path d="M49 8.586V22H34c-13.242 0-24 10.758-24 24v1h.102C10.637 59.77 21.098 70 34 70h9V54h-9c-4.43 0-8-3.57-8-8s3.57-8 8-8h15v13.414L70.414 30zm2 4.828L67.586 30 51 46.586V36H34c-5.512 0-10 4.488-10 10v1h.203c.527 5.02 4.64 9 9.797 9h7v12h-7c-12.164 0-22-9.836-22-22s9.836-22 22-22h17zM54 20c-.55 0-1 .45-1 1s.45 1 1 1 1-.45 1-1-.45-1-1-1zm3 3c-.55 0-1 .45-1 1s.45 1 1 1 1-.45 1-1-.45-1-1-1zm-23 3c-.55 0-1 .45-1 1s.45 1 1 1 1-.45 1-1-.45-1-1-1zm4 0c-.55 0-1 .45-1 1s.45 1 1 1 1-.45 1-1-.45-1-1-1zm4 0c-.55 0-1 .45-1 1s.45 1 1 1 1-.45 1-1-.45-1-1-1zm4 0c-.55 0-1 .45-1 1s.45 1 1 1 1-.45 1-1-.45-1-1-1zm14 0c-.55 0-1 .45-1 1s.45 1 1 1 1-.45 1-1-.45-1-1-1zm-29.703.363a.867.867 0 0 0-.2.024.998.998 0 0 0 .39 1.957.994.994 0 0 0 .786-1.172 1.003 1.003 0 0 0-.976-.809zm-3.563 1.082c-.132 0-.265.024-.39.075-.508.214-.75.796-.54 1.308a.999.999 0 0 0 1.305.543 1.001 1.001 0 1 0-.375-1.926zM63 29c-.55 0-1 .45-1 1s.45 1 1 1 1-.45 1-1-.45-1-1-1zm-39.547.203a.962.962 0 0 0-.562.168.992.992 0 0 0-.278 1.383 1 1 0 1 0 1.664-1.11.995.995 0 0 0-.824-.44zm-2.875 2.36a.976.976 0 0 0-.719.296.995.995 0 0 0 0 1.41.995.995 0 0 0 1.41 0 .995.995 0 0 0 0-1.41 1 1 0 0 0-.69-.297zm-2.36 2.878a1 1 0 0 0-.847.45 1 1 0 0 0 .274 1.386c.222.145.492.2.753.149a.989.989 0 0 0 .637-.426.984.984 0 0 0 .149-.75.997.997 0 0 0-.965-.809zm-1.75 3.29a.992.992 0 0 0-.945.613c-.21.511.032 1.097.54 1.308a1.002 1.002 0 0 0 1.308-.543.999.999 0 0 0-.902-1.379zm-1.077 3.566a.99.99 0 0 0-1.004.8 1 1 0 0 0 .785 1.18 1.003 1.003 0 0 0 1.172-.789.998.998 0 0 0-.782-1.175.853.853 0 0 0-.171-.016zM15 45c-.55 0-1 .45-1 1s.45 1 1 1 1-.45 1-1-.45-1-1-1zm.371 3.707a.998.998 0 0 0-.984 1.195.998.998 0 0 0 1.957-.39.999.999 0 0 0-.973-.805zm1.082 3.563c-.133 0-.265.023-.39.074a1.004 1.004 0 0 0 0 1.851 1 1 0 1 0 .39-1.925zm1.762 3.285a1 1 0 0 0-.207 1.98.99.99 0 0 0 1.176-.785.977.977 0 0 0-.149-.75.997.997 0 0 0-.82-.445zm2.363 2.883a.969.969 0 0 0-.719.289.987.987 0 0 0 0 1.414.995.995 0 0 0 1.41 0 .987.987 0 0 0 0-1.414.976.976 0 0 0-.69-.29zm2.887 2.359a1 1 0 0 0-.574 1.832A1 1 0 1 0 24 60.965a.996.996 0 0 0-.535-.168zm3.285 1.754a.997.997 0 0 0-.941.62.994.994 0 0 0 .539 1.306 1.004 1.004 0 0 0 1.308-.54 1.002 1.002 0 0 0-.906-1.386zm3.57 1.086a.997.997 0 0 0-.222 1.976c.543.11 1.07-.242 1.18-.785a1 1 0 0 0-.958-1.191zM34 64c-.55 0-1 .45-1 1s.45 1 1 1 1-.45 1-1-.45-1-1-1zm4 0c-.55 0-1 .45-1 1s.45 1 1 1 1-.45 1-1-.45-1-1-1z"/></svg>