<svg xmlns="http://www.w3.org/2000/svg" viewBox="0 0 26 26"><path d="M12.813 0a.427.427 0 0 0-.22.094c-.1.101-2.679 2.508-4.28 4.906a.617.617 0 0 0 0 .594c.101.3.3.406.5.406H11v5H6V8.812a.566.566 0 0 0-.313-.5.814.814 0 0 0-.687 0C2.602 9.915.195 12.492.094 12.595c0 .101-.094.304-.094.406 0 .102-.008.305.094.406.101.102 2.406 2.68 4.906 4.281.2.102.488.102.688 0a.564.564 0 0 0 .312-.5V15h5v5H8.812a.566.566 0 0 0-.5.313.617.617 0 0 0 0 .593c1.602 2.399 4.18 4.805 4.282 4.907.101.101.207.093.406.093.2 0 .305.008.406-.093.102-.102 2.68-2.407 4.281-4.907.102-.101.102-.394 0-.593a.566.566 0 0 0-.5-.313H15v-5h5v2.188c0 .199.113.398.313.5a.618.618 0 0 0 .593 0c2.399-1.602 4.805-4.18 4.907-4.282.101-.101.093-.207.093-.406 0-.2.008-.305-.093-.406-.102-.102-2.407-2.68-4.907-4.281a.617.617 0 0 0-.593 0c-.2.101-.313.3-.313.5V11h-5V6h2.188a.566.566 0 0 0 .5-.313.617.617 0 0 0 0-.593C16.085 2.695 13.508.289 13.405.187A.737.737 0 0 0 13 0c-.05 0-.113-.012-.188 0z"/></svg>