<svg xmlns="http://www.w3.org/2000/svg" viewBox="0 0 50 50"><path d="M25 .063L13.687 11.374a2.003 2.003 0 0 0 .864 3.383 1.997 1.997 0 0 0 1.949-.54l6.5-6.5v34.594l-6.5-6.5a1.998 1.998 0 0 0-3.32.743 1.995 1.995 0 0 0 .508 2.101l9.656 9.625.031.094.063.063.156.124c.093.106.199.2.312.282L25 49.969l1-1.032a1.95 1.95 0 0 0 .313-.25 2.39 2.39 0 0 0 .28-.28c.036-.052.067-.102.095-.157l9.625-9.594a2.003 2.003 0 0 0-.864-3.383 1.997 1.997 0 0 0-1.949.54l-6.5 6.5V7.718l6.5 6.5c.504.52 1.25.726 1.95.539a2.003 2.003 0 0 0 .863-3.383z"/></svg>