<svg xmlns="http://www.w3.org/2000/svg" viewBox="0 0 64 64"><linearGradient id="a" gradientUnits="userSpaceOnUse" x1="34.999" y1="26.75" x2="34.999" y2="37.262" spreadMethod="reflect"><stop offset="0" stop-color="#6dc7ff"/><stop offset="1" stop-color="#e6abff"/></linearGradient><circle cx="34.999" cy="32" r="5" fill="url(#a)"/><linearGradient id="b" gradientUnits="userSpaceOnUse" x1="26.702" y1="8" x2="26.702" y2="57.001" spreadMethod="reflect"><stop offset="0" stop-color="#1a6dff"/><stop offset="1" stop-color="#c822ff"/></linearGradient><path d="M24.646 52.543a22.903 22.903 0 0 0 3.518 1.424l.594-1.91a20.948 20.948 0 0 1-3.211-1.299l-.901 1.785z" fill="url(#b)"/><linearGradient id="c" gradientUnits="userSpaceOnUse" x1="20.57" y1="8" x2="20.57" y2="57.001" spreadMethod="reflect"><stop offset="0" stop-color="#1a6dff"/><stop offset="1" stop-color="#c822ff"/></linearGradient><path d="M18.546 48.073a23.14 23.14 0 0 0 2.865 2.486l1.182-1.613a20.936 20.936 0 0 1-2.615-2.27l-1.432 1.397z" fill="url(#c)"/><linearGradient id="d" gradientUnits="userSpaceOnUse" x1="16.135" y1="8" x2="16.135" y2="57.001" spreadMethod="reflect"><stop offset="0" stop-color="#1a6dff"/><stop offset="1" stop-color="#c822ff"/></linearGradient><path d="M14.507 42.455c.475.93 1.019 1.834 1.615 2.689L17.763 44a20.947 20.947 0 0 1-1.475-2.455l-1.781.91z" fill="url(#d)"/><linearGradient id="e" gradientUnits="userSpaceOnUse" x1="32" y1="8" x2="32" y2="57.001" spreadMethod="reflect"><stop offset="0" stop-color="#1a6dff"/><stop offset="1" stop-color="#c822ff"/></linearGradient><path d="M34.999 9C23.848 9 14.286 17.112 12.37 28H7.964a1.94 1.94 0 0 0-1.686.975 2.04 2.04 0 0 0-.02 2.021L10.47 38.5c.527.939 1.473 1.5 2.528 1.5 1.057 0 2.002-.561 2.529-1.5l4.21-7.504c.352-.626.345-1.4-.019-2.021A1.934 1.934 0 0 0 18.034 28h-3.632c1.888-9.766 10.533-17 20.597-17 11.579 0 21 9.421 21 21s-9 21-21 21c-1 0-1.921-.064-2.858-.193l-.272 1.982C32.897 54.929 34 55 35 55c13 0 23-10.317 23-23S47.681 9 34.999 9zM13.784 37.521a.887.887 0 0 1-.785.479.887.887 0 0 1-.784-.479L7.964 30l10.029.018-4.209 7.503z" fill="url(#e)"/><linearGradient id="f" gradientUnits="userSpaceOnUse" x1="34.999" y1="8" x2="34.999" y2="57.001" spreadMethod="reflect"><stop offset="0" stop-color="#1a6dff"/><stop offset="1" stop-color="#c822ff"/></linearGradient><path d="M40.999 32c0-3.309-2.691-6-6-6s-6 2.691-6 6 2.691 6 6 6 6-2.691 6-6zm-10 0c0-2.206 1.794-4 4-4s4 1.794 4 4-1.794 4-4 4-4-1.794-4-4z" fill="url(#f)"/></svg>