<svg xmlns="http://www.w3.org/2000/svg" viewBox="0 0 26 26"><path d="M5.188.125c-.22.027-.43.184-.563.5L1.031 9.281c-.265.633.07 1.063.75.969l9.188-1.313c.68-.093.652-.539.25-1.093L9.625 5.656A8.867 8.867 0 0 1 13 5a8.977 8.977 0 0 1 9 9.156l-.063.844-.125.75.375 1.25 1.22.5 1.124-.625.25-.656.157-.907v-.156L25 14.094V14c0-6.61-5.39-12-12-12a12.01 12.01 0 0 0-5.188 1.188L5.845.5C5.64.223 5.406.098 5.187.125zM3.5 15.563l-1.281.062-.781 1.031.062.719.125.5.063.125.343.844.063.125.219.5 1.03.781 1.25-.281.563-1.157L5 18.125l-.25-.5L4.5 17l-.125-.5zm18.375 3.562l-1.281.031-.563.438-.031.062-.031.032-.063.093-.5.532-.093.093-.47.407-.468 1.218.625 1.125 1.25.219.625-.344.563-.5.093-.093.688-.75.093-.125.125-.188.25-1.25zm-15.438 2L5.5 22l.094 1.281.468.5.72.5.124.063.813.437.125.063.187.062 1.281-.031.782-1.031-.313-1.25-.562-.438-.094-.031-.094-.063-.594-.312-.124-.063-.594-.406zm9.344 1.594l-.687.031-.219.063h-.031l-.094.03-.75.095-.594.03-1.125.626-.25 1.25.844 1 .688.125.593-.032h.156l1.032-.156.156-.031.344-.094.969-.843V23.53z"/></svg>