<svg xmlns="http://www.w3.org/2000/svg" viewBox="0 0 26 26"><path d="M19 .063a.784.784 0 0 0-.188.03.778.778 0 0 0-.375.22L.313 18.438a.798.798 0 0 0 0 1.093l6.157 6.157a.8.8 0 0 0 .656.218.82.82 0 0 0 .438-.218L25.688 7.563a.798.798 0 0 0 0-1.094L19.53.312a.472.472 0 0 0-.06-.062l-.032-.031a.828.828 0 0 0-.28-.125A.693.693 0 0 0 19 .062zm-.031 1.968l5 4.969L7 23.969 2 19l1.219-1.219 1.531 1.532c.188.23.488.34.781.28a.768.768 0 0 0 .157-.062.466.466 0 0 0 .062-.031.79.79 0 0 0 .156-.094l.032-.031a.632.632 0 0 0 .125-.125.8.8 0 0 0-.188-1.063l-1.531-1.53 1-1 1.531 1.53c.188.231.488.34.781.282a.768.768 0 0 0 .157-.063.466.466 0 0 0 .062-.031.79.79 0 0 0 .156-.094l.031-.031a.632.632 0 0 0 .126-.125A.8.8 0 0 0 8 16.062l-1.531-1.53 1-1 2.906 2.937a.799.799 0 0 0 .25.187.75.75 0 0 0 .156.063.61.61 0 0 0 .063.031c.101.02.21.02.312 0a.768.768 0 0 0 .156-.063.466.466 0 0 0 .063-.03.79.79 0 0 0 .156-.095l.031-.03a.632.632 0 0 0 .126-.126.8.8 0 0 0-.188-1.062l-2.906-2.938.969-.969 1.53 1.5c.208.22.524.305.813.22a.826.826 0 0 0 .406-.282.805.805 0 0 0-.062-1.063l-1.531-1.53.969-.97 1.53 1.5c.208.22.524.305.813.22a.826.826 0 0 0 .406-.282.805.805 0 0 0-.062-1.063l-1.531-1.53.969-.97 2.937 2.907c.105.12.25.21.406.25a.61.61 0 0 0 .063.031c.101.02.21.02.312 0a.768.768 0 0 0 .157-.063.466.466 0 0 0 .062-.03.79.79 0 0 0 .156-.095l.032-.03a.632.632 0 0 0 .125-.126.8.8 0 0 0-.188-1.062l-2.938-2.906 1-1 1.532 1.53c.195.196.48.282.75.22a.768.768 0 0 0 .156-.063.466.466 0 0 0 .063-.031.949.949 0 0 0 .125-.094.805.805 0 0 0 .03-1.188l-1.53-1.5z"/></svg>