<svg xmlns="http://www.w3.org/2000/svg" viewBox="0 0 40 40"><rect x=".213" y="14.624" transform="rotate(-45.001 20 20)" width="39.573" height="10.753" fill="#8bb7f0"/><path d="M30.189 2.914l6.896 6.896L9.811 37.086 2.915 30.19 30.189 2.914m0-1.414L1.5 30.189 9.811 38.5 38.5 9.811 30.189 1.5z" fill="#4e7ab5"/><line x1="25.261" y1="7.399" x2="27.813" y2="9.951" fill="none" stroke="#4e7ab5" stroke-miterlimit="10"/><line x1="22.71" y1="9.951" x2="24.144" y2="11.386" fill="none" stroke="#4e7ab5" stroke-miterlimit="10"/><line x1="27.813" y1="4.848" x2="29.248" y2="6.282" fill="none" stroke="#4e7ab5" stroke-miterlimit="10"/><line x1="20.158" y1="12.503" x2="22.71" y2="15.055" fill="none" stroke="#4e7ab5" stroke-miterlimit="10"/><line x1="17.606" y1="15.055" x2="19.041" y2="16.489" fill="none" stroke="#4e7ab5" stroke-miterlimit="10"/><line x1="12.503" y1="20.158" x2="13.937" y2="21.592" fill="none" stroke="#4e7ab5" stroke-miterlimit="10"/><line x1="9.951" y1="22.71" x2="12.503" y2="25.261" fill="none" stroke="#4e7ab5" stroke-miterlimit="10"/><line x1="15.055" y1="17.606" x2="17.606" y2="20.158" fill="none" stroke="#4e7ab5" stroke-miterlimit="10"/><line x1="7.399" y1="25.261" x2="8.834" y2="26.696" fill="none" stroke="#4e7ab5" stroke-miterlimit="10"/><line x1="4.848" y1="27.813" x2="7.399" y2="30.365" fill="none" stroke="#4e7ab5" stroke-miterlimit="10"/></svg>