<svg xmlns="http://www.w3.org/2000/svg" viewBox="0 0 40 40"><rect x="28.5" y="1.5" width="10" height="10" fill="#c2e8ff"/><path d="M38 2v9h-9V2h9m1-1H28v11h11V1z" fill="#7496c4"/><circle cx="36" cy="4" r="1" fill="#fff"/><rect x="2.5" y="1.5" width="10" height="10" fill="#ffc49c"/><path d="M12 2v9H3V2h9m1-1H2v11h11V1z" fill="#a16a4a"/><rect x="2.5" y="27.5" width="10" height="10" fill="#bae0bd"/><path d="M12 28v9H3v-9h9m1-1H2v11h11V27z" fill="#5e9c76"/><rect x="2.5" y="14.5" width="10" height="10" fill="#8bb7f0"/><path d="M12 15v9H3v-9h9m1-1H2v11h11V14z" fill="#4e7ab5"/><rect x="5.025" y="17.025" transform="rotate(-45.001 7.5 19.5)" width="4.95" height="4.95" fill="#ffeea3"/><rect x="5.025" y="17.025" width="4.95" height="4.95" fill="#ffeea3"/><polygon points="9.363,6.432 7.5,8.161 10.062,11 12,11 12,8.886" fill="#a16a4a"/><circle cx="10" cy="4" r="1" fill="#fff"/><polygon points="10.617,11 3,11 3,8.75 6,5.75" fill="#e09367"/><rect x="15.5" y="14.5" width="10" height="10" fill="#ffc49c"/><path d="M25 15v9h-9v-9h9m1-1H15v11h11V14z" fill="#a16a4a"/><polygon points="22.363,19.432 20.5,21.161 23.062,24 25,24 25,21.886" fill="#a16a4a"/><circle cx="23" cy="17" r="1" fill="#fff"/><polygon points="23.617,24 16,24 16,21.75 19,18.75" fill="#e09367"/><path d="M7.5 32.5l-1.02-1.699a1.19 1.19 0 0 1 2.04 0L7.5 32.5zm0 0l1.02 1.699a1.19 1.19 0 0 1-2.04 0L7.5 32.5z" fill="#fff"/><path d="M7.5 32.5l-1.981.033a1.189 1.189 0 0 1 1.019-1.766L7.5 32.5zm0 0l1.981-.033a1.189 1.189 0 0 1-1.019 1.766L7.5 32.5z" fill="#fff"/><path d="M7.5 32.5l-.962 1.733a1.189 1.189 0 0 1-1.019-1.766L7.5 32.5zm0 0l.962-1.733a1.189 1.189 0 0 1 1.019 1.766L7.5 32.5z" fill="#fff"/><circle cx="7.5" cy="32.5" r="1.5" fill="#ffeea3"/><rect x="28.5" y="27.5" width="10" height="10" fill="#bae0bd"/><path d="M38 28v9h-9v-9h9m1-1H28v11h11V27z" fill="#5e9c76"/><path d="M33.5 32.5l-1.02-1.699a1.19 1.19 0 0 1 2.04 0L33.5 32.5zm0 0l1.02 1.699a1.19 1.19 0 0 1-2.04 0L33.5 32.5z" fill="#fff"/><path d="M33.5 32.5l-1.981.033a1.189 1.189 0 0 1 1.019-1.766L33.5 32.5zm0 0l1.981-.033a1.189 1.189 0 0 1-1.019 1.766L33.5 32.5z" fill="#fff"/><path d="M33.5 32.5l-.962 1.733a1.189 1.189 0 0 1-1.019-1.766l1.981.033zm0 0l.962-1.733a1.189 1.189 0 0 1 1.019 1.766L33.5 32.5z" fill="#fff"/><circle cx="33.5" cy="32.5" r="1.5" fill="#ffeea3"/><circle cx="7.5" cy="19.5" r="1.5" fill="#fff"/><rect x="28.5" y="14.5" width="10" height="10" fill="#8bb7f0"/><path d="M38 15v9h-9v-9h9m1-1H28v11h11V14z" fill="#4e7ab5"/><rect x="31.025" y="17.025" transform="rotate(-45.001 33.5 19.5)" width="4.95" height="4.95" fill="#ffeea3"/><rect x="31.025" y="17.025" width="4.95" height="4.95" fill="#ffeea3"/><circle cx="33.5" cy="19.5" r="1.5" fill="#fff"/><rect x="15.5" y="1.5" width="10" height="10" fill="#8bb7f0"/><path d="M25 2v9h-9V2h9m1-1H15v11h11V1z" fill="#4e7ab5"/><rect x="18.025" y="4.025" transform="rotate(-45.001 20.5 6.5)" width="4.95" height="4.95" fill="#ffeea3"/><rect x="18.025" y="4.025" width="4.95" height="4.95" fill="#ffeea3"/><circle cx="20.5" cy="6.5" r="1.5" fill="#fff"/><circle cx="36" cy="9" r="1" fill="#fff"/><circle cx="31.5" cy="8.5" r="1.5" fill="#fff"/><circle cx="32.5" cy="7.5" r="1.5" fill="#fff"/><circle cx="34.5" cy="8.5" r="1.5" fill="#fff"/><rect x="31.5" y="8" width="3" height="2" fill="#fff"/><rect x="34.5" y="9" transform="rotate(-180 35.25 9.5)" width="1.5" height="1" fill="#fff"/><rect x="15.5" y="27.5" width="10" height="10" fill="#c2e8ff"/><path d="M25 28v9h-9v-9h9m1-1H15v11h11V27z" fill="#7496c4"/><circle cx="23" cy="30" r="1" fill="#fff"/><circle cx="23" cy="35" r="1" fill="#fff"/><circle cx="18.5" cy="34.5" r="1.5" fill="#fff"/><circle cx="19.5" cy="33.5" r="1.5" fill="#fff"/><circle cx="21.5" cy="34.5" r="1.5" fill="#fff"/><rect x="18.5" y="34" width="3" height="2" fill="#fff"/><rect x="21.5" y="35" transform="rotate(-180 22.25 35.5)" width="1.5" height="1" fill="#fff"/></svg>