<svg xmlns="http://www.w3.org/2000/svg" viewBox="0 0 64 64"><path d="M7 8c-1.652 0-3 1.348-3 3v42c0 1.652 1.348 3 3 3h50c1.652 0 3-1.348 3-3V11c0-1.652-1.348-3-3-3zm0 2h50c.55 0 1 .45 1 1v7H6v-7c0-.55.45-1 1-1zm2 2a1 1 0 0 0-1 1v2a1 1 0 1 0 2 0v-2a1 1 0 0 0-1-1zm5 0a1 1 0 0 0-1 1v2a1 1 0 1 0 2 0v-2a1 1 0 0 0-1-1zm5 0a1 1 0 0 0-1 1v2a1 1 0 1 0 2 0v-2a1 1 0 0 0-1-1zm5 0a1 1 0 0 0-1 1v2a1 1 0 1 0 2 0v-2a1 1 0 0 0-1-1zm5 0a1 1 0 0 0-1 1v2a1 1 0 1 0 2 0v-2a1 1 0 0 0-1-1zm5 0a1 1 0 0 0-1 1v2a1 1 0 1 0 2 0v-2a1 1 0 0 0-1-1zm5 0a1 1 0 0 0-1 1v2a1 1 0 1 0 2 0v-2a1 1 0 0 0-1-1zm5 0a1 1 0 0 0-1 1v2a1 1 0 1 0 2 0v-2a1 1 0 0 0-1-1zm5 0a1 1 0 0 0-1 1v2a1 1 0 1 0 2 0v-2a1 1 0 0 0-1-1zm5 0a1 1 0 0 0-1 1v2a1 1 0 1 0 2 0v-2a1 1 0 0 0-1-1zM6 20h52v33c0 .55-.45 1-1 1H7c-.55 0-1-.45-1-1zm8 4.121c-1.102 0-2 .899-2 2v8c0 1.102.898 2 2 2h8c1.102 0 2-.898 2-2v-8c0-1.101-.898-2-2-2zm14 0c-1.102 0-2 .899-2 2v8c0 1.102.898 2 2 2h8c1.102 0 2-.898 2-2v-8c0-1.101-.898-2-2-2zm14 0c-1.102 0-2 .899-2 2v8c0 1.102.898 2 2 2h8c1.102 0 2-.898 2-2v-8c0-1.101-.898-2-2-2zm-28 2h8v8h-8zm14 0h8v8h-8zm14 0h8v8h-8zm-28 12c-1.102 0-2 .899-2 2v8c0 1.102.898 2 2 2h8c1.102 0 2-.898 2-2v-8c0-1.101-.898-2-2-2zm14 0c-1.102 0-2 .899-2 2v8c0 1.102.898 2 2 2h8c1.102 0 2-.898 2-2v-8c0-1.101-.898-2-2-2zm14 0c-1.102 0-2 .899-2 2v8c0 1.102.898 2 2 2h8c1.102 0 2-.898 2-2v-8c0-1.101-.898-2-2-2zm-28 2h8v8h-8zm14 0h8v8h-8zm14 0h8v8h-8z"/></svg>