<svg xmlns="http://www.w3.org/2000/svg" viewBox="0 0 40 40"><path d="M15.5 2.5h9v9h-9z" fill="#dff0fe"/><path d="M24 3v8h-8V3h8m1-1H15v10h10z" fill="#4788c7"/><path d="M28.5 2.5h9v9h-9z" fill="#dff0fe"/><path d="M37 3v8h-8V3h8m1-1H28v10h10z" fill="#4788c7"/><path d="M2.5 2.5h9v9h-9z" fill="#dff0fe"/><path d="M11 3v8H3V3h8m1-1H2v10h10z" fill="#4788c7"/><path d="M15.5 28.5h9v9h-9z" fill="#dff0fe"/><path d="M24 29v8h-8v-8h8m1-1H15v10h10z" fill="#4788c7"/><path d="M28.5 28.5h9v9h-9z" fill="#dff0fe"/><path d="M37 29v8h-8v-8h8m1-1H28v10h10z" fill="#4788c7"/><path d="M2.5 28.5h9v9h-9z" fill="#dff0fe"/><path d="M11 29v8H3v-8h8m1-1H2v10h10z" fill="#4788c7"/><path d="M15.5 15.5h9v9h-9z" fill="#dff0fe"/><path d="M24 16v8h-8v-8h8m1-1H15v10h10z" fill="#4788c7"/><path d="M28.5 15.5h9v9h-9z" fill="#dff0fe"/><path d="M37 16v8h-8v-8h8m1-1H28v10h10z" fill="#4788c7"/><path d="M2.5 15.5h9v9h-9z" fill="#dff0fe"/><path d="M11 16v8H3v-8h8m1-1H2v10h10z" fill="#4788c7"/></svg>