<svg xmlns="http://www.w3.org/2000/svg" viewBox="0 0 40 40"><rect x="1.5" y="2.5" width="15" height="15" fill="#ffc49c"/><path d="M16 3v14H2V3h14m1-1H1v16h16V2z" fill="#a16a4a"/><rect x="1.5" y="22.5" width="15" height="15" fill="#bae0bd"/><path d="M16 23v14H2V23h14m1-1H1v16h16V22z" fill="#5e9c76"/><rect x="21" y="8" width="18" height="1" fill="#788b9c"/><rect x="21" y="11" width="13" height="1" fill="#788b9c"/><rect x="21" y="28" width="18" height="1" fill="#788b9c"/><rect x="21" y="31" width="13" height="1" fill="#788b9c"/><polygon points="11.897,9.894 9,12.584 12.985,17 16,17 16,13.712" fill="#a16a4a"/><circle cx="13" cy="6" r="1" fill="#fff"/><polygon points="13.849,17 2,17 2,13.5 6.667,8.833" fill="#e09367"/><path d="M9 30l-1.457-2.428C6.864 26.44 7.68 25 9 25s2.136 1.44 1.457 2.572L9 30zm0 0l1.457 2.428C11.136 33.56 10.32 35 9 35s-2.136-1.44-1.457-2.572L9 30z" fill="#fff"/><path d="M9 30l-2.831.048c-1.32.022-2.16-1.404-1.5-2.548.66-1.143 2.315-1.129 2.956.025L9 30zm0 0l2.831-.048c1.32-.022 2.16 1.404 1.5 2.548-.66 1.143-2.315 1.129-2.956-.025L9 30z" fill="#fff"/><path d="M9 30l-1.374 2.475c-.641 1.154-2.296 1.168-2.956.025-.66-1.143.179-2.57 1.5-2.548L9 30zm0 0l1.374-2.475c.641-1.154 2.296-1.168 2.956-.025.66 1.143-.179 2.57-1.5 2.548L9 30z" fill="#fff"/><circle cx="9" cy="30" r="2" fill="#ffeea3"/></svg>