<svg xmlns="http://www.w3.org/2000/svg" viewBox="0 0 64 64"><linearGradient id="a" gradientUnits="userSpaceOnUse" x1="32" y1="4.933" x2="32" y2="57.09" spreadMethod="reflect"><stop offset="0" stop-color="#1a6dff"/><stop offset="1" stop-color="#c822ff"/></linearGradient><path d="M57 49c-.243 0-.479.03-.71.072L34.8 11.85A3.988 3.988 0 0 0 36 9c0-2.206-1.794-4-4-4s-4 1.794-4 4c0 1.115.461 2.123 1.2 2.85L7.71 49.072A3.956 3.956 0 0 0 7 49c-2.206 0-4 1.794-4 4s1.794 4 4 4c1.858 0 3.411-1.28 3.858-3h42.284c.447 1.72 2 3 3.858 3 2.206 0 4-1.794 4-4s-1.794-4-4-4zM30.938 12.839c.341.094.692.161 1.062.161s.721-.067 1.062-.161l21.412 37.086A3.977 3.977 0 0 0 53.143 52H10.858a3.989 3.989 0 0 0-1.331-2.075l21.411-37.086z" fill="url(#a)"/><linearGradient id="b" gradientUnits="userSpaceOnUse" x1="32" y1="7" x2="32" y2="11.02" spreadMethod="reflect"><stop offset="0" stop-color="#6dc7ff"/><stop offset="1" stop-color="#e6abff"/></linearGradient><circle cx="32" cy="9" r="2" fill="url(#b)"/><linearGradient id="c" gradientUnits="userSpaceOnUse" x1="57" y1="51" x2="57" y2="55.02" spreadMethod="reflect"><stop offset="0" stop-color="#6dc7ff"/><stop offset="1" stop-color="#e6abff"/></linearGradient><circle cx="57" cy="53" r="2" fill="url(#c)"/><linearGradient id="d" gradientUnits="userSpaceOnUse" x1="7" y1="51" x2="7" y2="55.02" spreadMethod="reflect"><stop offset="0" stop-color="#6dc7ff"/><stop offset="1" stop-color="#e6abff"/></linearGradient><circle cx="7" cy="53" r="2" fill="url(#d)"/></svg>