<svg xmlns="http://www.w3.org/2000/svg" viewBox="0 0 40 40"><path d="M20.5 34.5v-4H27c4.137 0 7.5-3.363 7.5-7.5 0-4.137-3.363-7.5-7.5-7.5H10.5v6.336L1.727 13.5 10.5 5.164V11.5H27c6.34 0 11.5 5.16 11.5 11.5S33.34 34.5 27 34.5z" fill="#dff0fe"/><path d="M10 6.328V12h17c6.066 0 11 4.934 11 11s-4.934 11-11 11h-6v-3h6c4.41 0 8-3.59 8-8s-3.59-8-8-8H10v5.672L2.453 13.5 10 6.328M11 4L1 13.5 11 23v-7h16c3.867 0 7 3.133 7 7s-3.133 7-7 7h-7v5h7c6.629 0 12-5.371 12-12s-5.371-12-12-12H11z" fill="#4788c7"/></svg>