<svg xmlns="http://www.w3.org/2000/svg" viewBox="0 0 64 64"><linearGradient id="a" gradientUnits="userSpaceOnUse" x1="18.5" y1="19.44" x2="18.5" y2="40.994" spreadMethod="reflect"><stop offset="0" stop-color="#6dc7ff"/><stop offset="1" stop-color="#e6abff"/></linearGradient><path d="M28 19H9v2h13.852C15.276 24.479 10 32.133 10 41h2c0-9.659 6.882-17.739 16-19.597V19z" fill="url(#a)"/><linearGradient id="b" gradientUnits="userSpaceOnUse" x1="45.5" y1="19.44" x2="45.5" y2="40.994" spreadMethod="reflect"><stop offset="0" stop-color="#6dc7ff"/><stop offset="1" stop-color="#e6abff"/></linearGradient><path d="M41.148 21H55v-2H36v2.403C45.118 23.261 52 31.341 52 41h2c0-8.867-5.276-16.521-12.852-20z" fill="url(#b)"/><linearGradient id="c" gradientUnits="userSpaceOnUse" x1="58" y1="14.939" x2="58" y2="49.543" spreadMethod="reflect"><stop offset="0" stop-color="#1a6dff"/><stop offset="1" stop-color="#c822ff"/></linearGradient><path d="M58 16c-2.206 0-4 1.794-4 4s1.794 4 4 4 4-1.794 4-4-1.794-4-4-4z" fill="url(#c)"/><linearGradient id="d" gradientUnits="userSpaceOnUse" x1="11" y1="16.939" x2="11" y2="51.543" spreadMethod="reflect"><stop offset="0" stop-color="#1a6dff"/><stop offset="1" stop-color="#c822ff"/></linearGradient><path d="M13 41H9c-1.654 0-3 1.346-3 3v4c0 1.654 1.346 3 3 3h4c1.654 0 3-1.346 3-3v-4c0-1.654-1.346-3-3-3zm1 7c0 .552-.449 1-1 1H9c-.551 0-1-.448-1-1v-4c0-.552.449-1 1-1h4c.551 0 1 .448 1 1v4z" fill="url(#d)"/><linearGradient id="e" gradientUnits="userSpaceOnUse" x1="53" y1="16.939" x2="53" y2="51.543" spreadMethod="reflect"><stop offset="0" stop-color="#1a6dff"/><stop offset="1" stop-color="#c822ff"/></linearGradient><path d="M55 41h-4c-1.654 0-3 1.346-3 3v4c0 1.654 1.346 3 3 3h4c1.654 0 3-1.346 3-3v-4c0-1.654-1.346-3-3-3zm1 7c0 .552-.449 1-1 1h-4c-.551 0-1-.448-1-1v-4c0-.552.449-1 1-1h4c.551 0 1 .448 1 1v4z" fill="url(#e)"/><linearGradient id="f" gradientUnits="userSpaceOnUse" x1="32" y1="14.939" x2="32" y2="49.543" spreadMethod="reflect"><stop offset="0" stop-color="#1a6dff"/><stop offset="1" stop-color="#c822ff"/></linearGradient><path d="M34 15h-4c-1.654 0-3 1.346-3 3v4c0 1.654 1.346 3 3 3h4c1.654 0 3-1.346 3-3v-4c0-1.654-1.346-3-3-3zm1 7c0 .552-.449 1-1 1h-4c-.551 0-1-.448-1-1v-4c0-.552.449-1 1-1h4c.551 0 1 .448 1 1v4z" fill="url(#f)"/><linearGradient id="g" gradientUnits="userSpaceOnUse" x1="58" y1="18.125" x2="58" y2="21.875" spreadMethod="reflect"><stop offset="0" stop-color="#6dc7ff"/><stop offset="1" stop-color="#e6abff"/></linearGradient><circle cx="58" cy="20" r="2" fill="url(#g)"/><linearGradient id="h" gradientUnits="userSpaceOnUse" x1="6" y1="14.939" x2="6" y2="49.543" spreadMethod="reflect"><stop offset="0" stop-color="#1a6dff"/><stop offset="1" stop-color="#c822ff"/></linearGradient><path d="M6 16c-2.206 0-4 1.794-4 4s1.794 4 4 4 4-1.794 4-4-1.794-4-4-4z" fill="url(#h)"/><linearGradient id="i" gradientUnits="userSpaceOnUse" x1="6" y1="18.125" x2="6" y2="21.875" spreadMethod="reflect"><stop offset="0" stop-color="#6dc7ff"/><stop offset="1" stop-color="#e6abff"/></linearGradient><circle cx="6" cy="20" r="2" fill="url(#i)"/></svg>