<svg xmlns="http://www.w3.org/2000/svg" viewBox="0 0 24 24"><path d="M2.313 4A2.317 2.317 0 0 0 0 6.313v12.375A2.317 2.317 0 0 0 2.313 21h19.375A2.317 2.317 0 0 0 24 18.687V6.313A2.317 2.317 0 0 0 21.687 4zm0 2h19.375c.19 0 .312.121.312.313V10h-1.25l-1.219 1.344L18.375 10H14.25v4.25h4l1.25-1.406 1.219 1.437H22v4.406c0 .192-.121.313-.313.313H2.313c-.19 0-.312-.121-.312-.313V14.25h1.031l.406-.938h2.094l.407.938h2.125v-3.156l1.374 3.156h.97l1.437-3.094v3.094h1.031V10H11.22l-1.281 2.875L8.655 10H7v4.094L5.187 10H3.782L2 14.094V6.313C2 6.12 2.121 6 2.313 6zM22 10.063v4.156l-1.813-2.125zm-17.531.843l.625 1.5h-1.25zm10.812 0l2.531.031 1.032 1.157-1.157 1.281h-2.406v-.844h2.313v-.812H15.28z"/></svg>