<svg xmlns="http://www.w3.org/2000/svg" viewBox="0 0 64 64"><linearGradient id="a" gradientUnits="userSpaceOnUse" x1="32" y1="9.5" x2="32" y2="16.375" spreadMethod="reflect"><stop offset="0" stop-color="#6dc7ff"/><stop offset="1" stop-color="#e6abff"/></linearGradient><circle cx="32" cy="13" r="3" fill="url(#a)"/><linearGradient id="b" gradientUnits="userSpaceOnUse" x1="32" y1="5.25" x2="32" y2="59.287" spreadMethod="reflect"><stop offset="0" stop-color="#1a6dff"/><stop offset="1" stop-color="#c822ff"/></linearGradient><path d="M54.998 10h-11.38L43 8.763A4.974 4.974 0 0 0 38.528 6H25.472A4.974 4.974 0 0 0 21 8.763L20.382 10H9.002A3.006 3.006 0 0 0 6 13.002V49c0 1.654 1.346 3 3 3h11v3c0 1.654 1.346 3 3 3h18c1.654 0 3-1.346 3-3v-3h11c1.654 0 3-1.346 3-3V13.002A3.006 3.006 0 0 0 54.998 10zM9 50c-.552 0-1-.449-1-1v-1.185c.315.113.649.185 1.002.185H20v2H9zm33 .08A7.005 7.005 0 0 0 36.08 56h-8.16A7.005 7.005 0 0 0 22 50.08V36h20v14.08zM22 55v-2.899A5.016 5.016 0 0 1 25.899 56H23c-.552 0-1-.449-1-1zm19 1h-2.899A5.016 5.016 0 0 1 42 52.101V55c0 .551-.448 1-1 1zm14-6H44v-2h10.998c.353 0 .687-.072 1.002-.185V49c0 .551-.448 1-1 1zm1-5.002C56 45.55 55.551 46 54.998 46H44v-6c1.103 0 2-.897 2-2v-2c0-1.103-.897-2-2-2H20c-1.103 0-2 .897-2 2v2c0 1.103.897 2 2 2v6H9.002C8.449 46 8 45.55 8 44.998V13.002C8 12.45 8.449 12 9.002 12h12.616l1.171-2.342A2.983 2.983 0 0 1 25.472 8h13.057c1.144 0 2.171.635 2.683 1.658L42.382 12h12.616c.553 0 1.002.45 1.002 1.002v31.996z" fill="url(#b)"/><linearGradient id="c" gradientUnits="userSpaceOnUse" x1="32" y1="5.25" x2="32" y2="59.287" spreadMethod="reflect"><stop offset="0" stop-color="#1a6dff"/><stop offset="1" stop-color="#c822ff"/></linearGradient><path d="M42 18H22c-1.103 0-2 .897-2 2v10c0 1.103.897 2 2 2h20c1.103 0 2-.897 2-2V20c0-1.103-.897-2-2-2zm0 12H22V20h20v10z" fill="url(#c)"/><linearGradient id="d" gradientUnits="userSpaceOnUse" x1="49" y1="5.25" x2="49" y2="59.287" spreadMethod="reflect"><stop offset="0" stop-color="#1a6dff"/><stop offset="1" stop-color="#c822ff"/></linearGradient><path d="M50 18h-2c-1.103 0-2 .897-2 2v2c0 1.103.897 2 2 2h2c1.103 0 2-.897 2-2v-2c0-1.103-.897-2-2-2zm0 4h-2v-2h2v2z" fill="url(#d)"/><linearGradient id="e" gradientUnits="userSpaceOnUse" x1="49" y1="5.25" x2="49" y2="59.287" spreadMethod="reflect"><stop offset="0" stop-color="#1a6dff"/><stop offset="1" stop-color="#c822ff"/></linearGradient><path d="M50 26h-2c-1.103 0-2 .897-2 2v2c0 1.103.897 2 2 2h2c1.103 0 2-.897 2-2v-2c0-1.103-.897-2-2-2zm0 4h-2v-2h2v2z" fill="url(#e)"/><linearGradient id="f" gradientUnits="userSpaceOnUse" x1="15" y1="5.25" x2="15" y2="59.287" spreadMethod="reflect"><stop offset="0" stop-color="#1a6dff"/><stop offset="1" stop-color="#c822ff"/></linearGradient><path d="M16 18h-2c-1.103 0-2 .897-2 2v2c0 1.103.897 2 2 2h2c1.103 0 2-.897 2-2v-2c0-1.103-.897-2-2-2zm0 4h-2v-2h2v2z" fill="url(#f)"/><linearGradient id="g" gradientUnits="userSpaceOnUse" x1="15" y1="5.25" x2="15" y2="59.287" spreadMethod="reflect"><stop offset="0" stop-color="#1a6dff"/><stop offset="1" stop-color="#c822ff"/></linearGradient><path d="M16 26h-2c-1.103 0-2 .897-2 2v2c0 1.103.897 2 2 2h2c1.103 0 2-.897 2-2v-2c0-1.103-.897-2-2-2zm0 4h-2v-2h2v2z" fill="url(#g)"/><linearGradient id="h" gradientUnits="userSpaceOnUse" x1="32" y1="5.25" x2="32" y2="59.287" spreadMethod="reflect"><stop offset="0" stop-color="#1a6dff"/><stop offset="1" stop-color="#c822ff"/></linearGradient><path d="M32 50c2.757 0 5-2.243 5-5s-2.243-5-5-5-5 2.243-5 5 2.243 5 5 5zm0-8c1.654 0 3 1.346 3 3s-1.346 3-3 3-3-1.346-3-3 1.346-3 3-3z" fill="url(#h)"/><linearGradient id="i" gradientUnits="userSpaceOnUse" x1="27.5" y1="21.313" x2="27.5" y2="24.734" spreadMethod="reflect"><stop offset="0" stop-color="#6dc7ff"/><stop offset="1" stop-color="#e6abff"/></linearGradient><rect x="24" y="22" width="7" height="2" fill="url(#i)"/><linearGradient id="j" gradientUnits="userSpaceOnUse" x1="36.5" y1="21.313" x2="36.5" y2="24.734" spreadMethod="reflect"><stop offset="0" stop-color="#6dc7ff"/><stop offset="1" stop-color="#e6abff"/></linearGradient><rect x="33" y="22" width="7" height="2" fill="url(#j)"/><linearGradient id="k" gradientUnits="userSpaceOnUse" x1="27.5" y1="25.75" x2="27.5" y2="28.448" spreadMethod="reflect"><stop offset="0" stop-color="#6dc7ff"/><stop offset="1" stop-color="#e6abff"/></linearGradient><rect x="24" y="26" width="7" height="2" fill="url(#k)"/><linearGradient id="l" gradientUnits="userSpaceOnUse" x1="36.5" y1="25.75" x2="36.5" y2="28.448" spreadMethod="reflect"><stop offset="0" stop-color="#6dc7ff"/><stop offset="1" stop-color="#e6abff"/></linearGradient><rect x="33" y="26" width="7" height="2" fill="url(#l)"/></svg>