<svg xmlns="http://www.w3.org/2000/svg" viewBox="0 0 64 64"><path d="M7 2C4.242 2 2 4.242 2 7v43.188C.84 50.602 0 51.703 0 53c0 1.648 1.352 3 3 3h13v5c0 1.648 1.352 3 3 3h26c1.648 0 3-1.352 3-3v-5h13c1.648 0 3-1.352 3-3 0-1.297-.84-2.398-2-2.813V7c0-2.758-2.242-5-5-5zm0 2h50c1.652 0 3 1.348 3 3v43H48v-6h3c2.207 0 4-1.793 4-4s-1.793-4-4-4H13c-2.207 0-4 1.793-4 4s1.793 4 4 4h3v6H4V7c0-1.652 1.348-3 3-3zm3 6c-1.102 0-2 .898-2 2v2c0 1.102.898 2 2 2h2c1.102 0 2-.898 2-2v-2c0-1.102-.898-2-2-2zm8 0c-1.102 0-2 .898-2 2v18c0 1.102.898 2 2 2h28c1.102 0 2-.898 2-2V12c0-1.102-.898-2-2-2zm34 0c-1.102 0-2 .898-2 2v2c0 1.102.898 2 2 2h2c1.102 0 2-.898 2-2v-2c0-1.102-.898-2-2-2zm-42 2h2v2h-2zm8 0h28v18H18zm34 0h2v2h-2zm-42 6c-1.102 0-2 .898-2 2v2c0 1.102.898 2 2 2h2c1.102 0 2-.898 2-2v-2c0-1.102-.898-2-2-2zm42 0c-1.102 0-2 .898-2 2v2c0 1.102.898 2 2 2h2c1.102 0 2-.898 2-2v-2c0-1.102-.898-2-2-2zm-42 2h2v2h-2zm42 0h2v2h-2zm-42 6c-1.102 0-2 .898-2 2v2c0 1.102.898 2 2 2h2c1.102 0 2-.898 2-2v-2c0-1.102-.898-2-2-2zm42 0c-1.102 0-2 .898-2 2v2c0 1.102.898 2 2 2h2c1.102 0 2-.898 2-2v-2c0-1.102-.898-2-2-2zm-42 2h2v2h-2zm42 0h2v2h-2zM13 38h3v4h-3c-1.102 0-2-.898-2-2 0-1.102.898-2 2-2zm5 0h4.258A8.186 8.186 0 0 0 22 40h-1a1 1 0 1 0 0 2h1.258c1.015 4.004 4.992 7 9.742 7 4.75 0 8.727-2.996 9.742-7H43a1 1 0 1 0 0-2h-1c0-.68-.094-1.348-.258-2H46v23c0 .55-.45 1-1 1H19c-.55 0-1-.45-1-1zm6.34 0h15.328c.219.645.332 1.316.332 2 0 3.86-3.59 7-8 7s-8-3.14-8-7c0-.684.117-1.352.34-2zM48 38h3c1.102 0 2 .898 2 2 0 1.102-.898 2-2 2h-3zm-27 7a1 1 0 1 0 0 2h2a1 1 0 1 0 0-2zm20 0a1 1 0 1 0 0 2h2a1 1 0 1 0 0-2zm-20 5a1 1 0 1 0 0 2h2a1 1 0 1 0 0-2zm20 0a1 1 0 1 0 0 2h2a1 1 0 1 0 0-2zM3 52h13v2H3c-.55 0-1-.45-1-1s.45-1 1-1zm29 0c-2.207 0-4 1.793-4 4s1.793 4 4 4 4-1.793 4-4-1.793-4-4-4zm16 0h13c.55 0 1 .45 1 1s-.45 1-1 1H48zm-16 1.668A2.336 2.336 0 0 1 34.332 56 2.333 2.333 0 0 1 32 58.332 2.336 2.336 0 0 1 29.668 56 2.336 2.336 0 0 1 32 53.668zM21 55a1 1 0 0 0-1 1v3a1 1 0 1 0 2 0v-3a1 1 0 0 0-1-1zm22 0a1 1 0 0 0-1 1v3a1 1 0 1 0 2 0v-3a1 1 0 0 0-1-1z"/></svg>