<svg xmlns="http://www.w3.org/2000/svg" viewBox="0 0 16 16"><path d="M6.5 1A5.508 5.508 0 0 0 1 6.5a5.502 5.502 0 0 0 2.793 4.781C4.785 12.961 6.566 14 8.5 14c3.031 0 5.5-2.469 5.5-5.5 0-1.934-1.04-3.715-2.719-4.707A5.502 5.502 0 0 0 6.5 1zm0 1c1.629 0 3.043.879 3.832 2.18l.105.183c.145.27.254.543.344.82.031.094.067.188.09.286.02.09.035.183.05.273.044.25.079.5.079.758C11 8.98 8.98 11 6.5 11c-.258 0-.508-.035-.758-.078-.09-.016-.183-.031-.273-.05-.098-.024-.192-.06-.285-.09-.278-.09-.551-.2-.82-.345l-.38-.207A4.502 4.502 0 0 1 2 6.5C2 4.02 4.02 2 6.5 2zm-.512 2c0 .563-.308 1-.988 1v1c.375 0 .715-.105 1-.273V9h1V4zm5.934 1.602A4.448 4.448 0 0 1 13 8.5c0 2.48-2.02 4.5-4.5 4.5a4.448 4.448 0 0 1-2.898-1.078c.02.004.039.004.054.004.278.043.555.074.844.074.379 0 .75-.04 1.11-.11a5.484 5.484 0 0 0 1.96-.831A5.496 5.496 0 0 0 12 6.5c0-.29-.031-.566-.074-.844 0-.015 0-.035-.004-.054z"/></svg>