<svg xmlns="http://www.w3.org/2000/svg" viewBox="0 0 40 40"><path d="M8 24.5A1.5 1.5 0 0 1 6.5 23V4A1.5 1.5 0 0 1 8 2.5h29A1.5 1.5 0 0 1 38.5 4v19a1.5 1.5 0 0 1-1.5 1.5z" fill="#98ccfd"/><path d="M37 3c.55 0 1 .45 1 1v19c0 .55-.45 1-1 1H8c-.55 0-1-.45-1-1V4c0-.55.45-1 1-1h29m0-1H8a2 2 0 0 0-2 2v19a2 2 0 0 0 2 2h29a2 2 0 0 0 2-2V4a2 2 0 0 0-2-2z" fill="#4788c7"/><path d="M9 12h27v2H9z" fill="#fff"/><path d="M6 6h33v4H6z" fill="#4788c7"/><path d="M3 37.5A1.5 1.5 0 0 1 1.5 36V17A1.5 1.5 0 0 1 3 15.5h29a1.5 1.5 0 0 1 1.5 1.5v19a1.5 1.5 0 0 1-1.5 1.5z" fill="#b6dcfe"/><path d="M32 16c.55 0 1 .45 1 1v19c0 .55-.45 1-1 1H3c-.55 0-1-.45-1-1V17c0-.55.45-1 1-1h29m0-1H3a2 2 0 0 0-2 2v19a2 2 0 0 0 2 2h29a2 2 0 0 0 2-2V17a2 2 0 0 0-2-2z" fill="#4788c7"/><path d="M5 20h7v5H5z" fill="#dff0fe"/><path d="M16 19h14v4H16z" fill="#fff"/><path d="M8.5 30h-3a.504.504 0 0 1-.5-.5c0-.273.227-.5.5-.5h3c.273 0 .5.227.5.5s-.227.5-.5.5zm7 0h-3a.504.504 0 0 1-.5-.5c0-.273.227-.5.5-.5h3c.273 0 .5.227.5.5s-.227.5-.5.5zm7 0h-3a.504.504 0 0 1-.5-.5c0-.273.227-.5.5-.5h3c.273 0 .5.227.5.5s-.227.5-.5.5zm7 0h-3a.504.504 0 0 1-.5-.5c0-.273.227-.5.5-.5h3c.273 0 .5.227.5.5s-.227.5-.5.5zm-10 4h-14a.504.504 0 0 1-.5-.5c0-.273.227-.5.5-.5h14c.273 0 .5.227.5.5s-.227.5-.5.5z" fill="#4788c7"/></svg>