<svg xmlns="http://www.w3.org/2000/svg" viewBox="0 0 40 40"><path d="M8 24.5c-.827 0-1.5-.673-1.5-1.5V4c0-.827.673-1.5 1.5-1.5h29c.827 0 1.5.673 1.5 1.5v19c0 .827-.673 1.5-1.5 1.5H8z" fill="#f78f8f"/><path d="M37 3c.551 0 1 .449 1 1v19c0 .551-.449 1-1 1H8c-.551 0-1-.449-1-1V4c0-.551.449-1 1-1h29m0-1H8a2 2 0 0 0-2 2v19a2 2 0 0 0 2 2h29a2 2 0 0 0 2-2V4a2 2 0 0 0-2-2z" fill="#c74343"/><rect x="9" y="12" width="27" height="2" fill="#fff"/><rect x="6" y="6" width="33" height="4" fill="#36404d"/><path d="M3 37.5c-.827 0-1.5-.673-1.5-1.5V17c0-.827.673-1.5 1.5-1.5h29c.827 0 1.5.673 1.5 1.5v19c0 .827-.673 1.5-1.5 1.5H3z" fill="#8bb7f0"/><path d="M32 16c.551 0 1 .449 1 1v19c0 .551-.449 1-1 1H3c-.551 0-1-.449-1-1V17c0-.551.449-1 1-1h29m0-1H3a2 2 0 0 0-2 2v19a2 2 0 0 0 2 2h29a2 2 0 0 0 2-2V17a2 2 0 0 0-2-2z" fill="#4e7ab5"/><rect x="5.5" y="20.5" width="6" height="4" fill="#ffeea3"/><path d="M11 21v3H6v-3h5m1-1H5v5h7v-5z" fill="#ba9b48"/><rect x="5" y="28" width="4" height="2" fill="#ffeea3"/><rect x="12" y="28" width="4" height="2" fill="#ffeea3"/><rect x="19" y="28" width="4" height="2" fill="#ffeea3"/><rect x="26" y="28" width="4" height="2" fill="#ffeea3"/><rect x="16" y="19" width="14" height="4" fill="#e1ebf2"/><rect x="5" y="32" width="15" height="2" fill="#ffeea3"/></svg>