<?xml version="1.0" encoding="utf-8"?>
<!-- Generator: Adobe Illustrator 22.0.1, SVG Export Plug-In . SVG Version: 6.00 Build 0)  -->
<svg version="1.1" xmlns="http://www.w3.org/2000/svg" xmlns:xlink="http://www.w3.org/1999/xlink" x="0px" y="0px"
	 viewBox="0 0 126.2 176" style="enable-background:new 0 0 126.2 176;" xml:space="preserve">
<style type="text/css">
	.st0{fill-rule:evenodd;clip-rule:evenodd;fill:#D4CCBA;}
	.st1{fill-rule:evenodd;clip-rule:evenodd;fill:#A89D86;}
	.st2{fill-rule:evenodd;clip-rule:evenodd;fill:#BEB5A0;}
	.st3{fill-rule:evenodd;clip-rule:evenodd;fill:#B8332E;}
	.st4{fill-rule:evenodd;clip-rule:evenodd;fill:#4D4D4D;}
	.st5{fill-rule:evenodd;clip-rule:evenodd;fill:#FFFFFF;}
	.st6{fill-rule:evenodd;clip-rule:evenodd;fill:#DB4743;}
	.st7{fill:#FFB463;}
	.st8{fill-rule:evenodd;clip-rule:evenodd;fill:#F7C8B4;}
	.st9{fill:#4D4D4D;}
	.st10{fill-rule:evenodd;clip-rule:evenodd;fill:#F1ABA1;}
	.st11{fill:#F1ABA1;}
	.st12{fill-rule:evenodd;clip-rule:evenodd;fill:#FAC2B9;}
	.st13{fill-rule:evenodd;clip-rule:evenodd;fill:#FFD67F;}
	.st14{fill-rule:evenodd;clip-rule:evenodd;fill:#E0B24E;}
	.st15{fill-rule:evenodd;clip-rule:evenodd;fill:#FFE8B5;}
	.st16{fill-rule:evenodd;clip-rule:evenodd;fill:none;stroke:#FFFFFF;stroke-width:1.1999;stroke-miterlimit:22.9256;}
	.st17{fill-rule:evenodd;clip-rule:evenodd;fill:#FFB463;}
	.st18{fill:#FFFFFF;}
	.st19{fill-rule:evenodd;clip-rule:evenodd;fill:#74AB9F;}
	.st20{fill-rule:evenodd;clip-rule:evenodd;fill:#A3D6CB;}
	.st21{fill-rule:evenodd;clip-rule:evenodd;fill:#F06358;}
	.st22{fill-rule:evenodd;clip-rule:evenodd;fill:#E6E6E6;}
	
		.st23{fill-rule:evenodd;clip-rule:evenodd;fill:none;stroke:#FFFFFF;stroke-width:0.5669;stroke-linecap:round;stroke-linejoin:round;stroke-miterlimit:22.9256;}
	.st24{fill-rule:evenodd;clip-rule:evenodd;fill:#CC271E;}
	.st25{fill-rule:evenodd;clip-rule:evenodd;fill:#E93D33;}
	.st26{fill:#A89D86;}
</style>
<g id="BACKGROUND">
</g>
<g id="OBJECTS">
	<g>
		<ellipse class="st2" cx="45.2" cy="166" rx="35.6" ry="9.9"/>
		<g>
			<line class="st16" x1="43.1" y1="0" x2="43.1" y2="107.1"/>
			<g>
				<path class="st3" d="M69,96.3l17.2-6.6c1-4.3-0.4-7.8-4-10.6l-17.1,6.5C57.1,88.8,60.7,99.4,69,96.3z"/>
				<path class="st4" d="M92.6,87.6c4.1-0.5,6.3-2.5,2.8-4.4c1.7-0.4,5.1-2.5,4-5.1c-2-5.1-8.4-3.5-13.2,0.7
					C83.4,81.3,85.4,88.5,92.6,87.6z"/>
				<path class="st5" d="M81.7,79.4c2.1,2.8,3.8,7.7,4,10.4c0.1,0.8,0.9,0.8,1.4,0.7c1.5-0.5,3-1.2,2.9-2.5
					c-0.1-3.5-1.7-7.6-3.9-10.1c-0.8-1-2.5-0.4-3.8,0.1C81.7,78.3,81.3,78.9,81.7,79.4z"/>
			</g>
			<g>
				<path class="st3" d="M43.7,123.3l-12.2,13.8c-4.4-0.6-7.2-3.1-8.5-7.5l12.1-13.7C40.9,109.6,49.6,116.7,43.7,123.3z"/>
				<path class="st4" d="M27.3,142.4c-1.9,3.7-4.6,5.1-5.1,1.1c-1,1.5-4.1,3.9-6.2,2c-4-3.7-0.3-9.1,5.3-12.1
					C24.6,131.5,30.6,135.9,27.3,142.4z"/>
				<path class="st5" d="M23.5,129.3c1.9,2.9,5.9,6.3,8.4,7.4c0.8,0.3,0.5,1.1,0.1,1.5c-1,1.2-2.1,2.4-3.4,1.8
					c-3.3-1.4-6.5-4.2-8.1-7.2c-0.6-1.1,0.5-2.4,1.4-3.5C22.4,128.9,23.1,128.7,23.5,129.3z"/>
			</g>
			<g>
				<path class="st4" d="M10.7,89.1c-1.2-0.1-2.9,1.9-5.4,1.1c-2.4-0.9-4.5-2.8-1.3-9.5c3-6.2,7-5.6,10.5-3.1
					C18,80.1,14.5,89.6,10.7,89.1z"/>
				
					<rect x="24.5" y="73.8" transform="matrix(0.3077 -0.9515 0.9515 0.3077 -63.9881 91.2269)" class="st3" width="12.4" height="31.5"/>
				<path class="st5" d="M19.6,79.6c-2.1,3.2-3.7,8.6-3.7,11.6c0,0.9-0.9,0.9-1.5,0.8c-0.3-0.1-0.7-0.2-1-0.3
					c-1.6-0.5-3.2-1.1-3.3-2.6c-0.1-3.8,1.3-8.3,3.7-11.3c0.9-1.1,2.7-0.6,4.2-0.1c0.3,0.1,0.6,0.2,0.9,0.3
					C19.6,78.3,20,79,19.6,79.6z"/>
			</g>
			<g>
				<path class="st4" d="M47.2,58.3c0-1.2,2.3-2.7,1.8-5.2c-0.5-2.5-2.2-4.8-9.2-2.6c-6.5,2.1-6.4,6.2-4.5,10
					C37.2,64.4,47.1,62.1,47.2,58.3z"/>
				
					<rect x="38.8" y="62.5" transform="matrix(0.9836 -0.1806 0.1806 0.9836 -13.3875 9.4088)" class="st3" width="12.4" height="31.5"/>
				<path class="st5" d="M36.5,65.9c3.4-1.7,9.1-2.5,12-2.2c0.9,0.1,1.1-0.8,1-1.4c-0.1-0.3-0.1-0.7-0.2-1c-0.3-1.7-0.7-3.3-2.1-3.6
					c-3.8-0.6-8.4,0.2-11.6,2.2c-1.2,0.7-0.9,2.6-0.6,4.2c0,0.3,0.1,0.6,0.2,0.9C35.3,65.7,35.9,66.3,36.5,65.9z"/>
			</g>
			<g>
				<path class="st6" d="M67.1,115.6c-11.5,11.3-28.6,12.4-38.3,2.5c-9.7-9.9-8.3-27,3.2-38.3c11.5-11.3,28.6-12.4,38.3-2.5
					C80,87.2,78.6,104.4,67.1,115.6z"/>
				<path class="st4" d="M22.4,100c5.1-12.7,17.1-24.5,30.1-29.4c3.2-0.1,6.4,0.3,9.4,1.4c-17.5,3.7-34.2,20.2-38.3,37.6
					C22.6,106.6,22.2,103.3,22.4,100z"/>
				<path class="st7" d="M41.2,85.1l-4.1,4c-0.3,0.3-0.6,0.5-1,0.6v-2.7l3.6-3.5c0.1-0.1,0.1-0.2,0.1-0.3v0c0-0.1,0-0.2-0.1-0.3
					l-2.5-2.6c-0.1-0.1-0.2-0.1-0.3-0.1h0c-0.1,0-0.2,0-0.3,0.1L36.1,81v-2.7c0.3-0.1,0.5-0.1,0.8-0.1l0,0c0.7,0,1.3,0.3,1.8,0.8
					l2.5,2.6c0.5,0.5,0.7,1.2,0.7,1.8v0C42,84,41.7,84.7,41.2,85.1z M36.1,89.8c-0.3,0.1-0.5,0.1-0.8,0.1h0c-0.7,0-1.3-0.3-1.8-0.8
					L31,86.6c-0.5-0.5-0.7-1.2-0.7-1.8l0,0c0-0.7,0.3-1.3,0.8-1.8l4.1-4c0.3-0.3,0.6-0.5,1-0.6V81l-3.6,3.5
					c-0.1,0.1-0.1,0.2-0.1,0.3l0,0c0,0.1,0,0.2,0.1,0.3l2.5,2.6c0.1,0.1,0.2,0.1,0.3,0.1l0,0c0.1,0,0.2,0,0.3-0.1l0.5-0.5V89.8z"/>
			</g>
			<g>
				<g>
					
						<ellipse transform="matrix(0.1531 -0.9882 0.9882 0.1531 -56.4718 181.0663)" class="st5" cx="77.4" cy="123.5" rx="33.3" ry="20.1"/>
					<path class="st5" d="M85.8,145.2c1.1-7.1-3.4-13.8-10-14.8c-6.6-1-12.9,3.9-14,11.1c-1.1,7.1,3.4,13.8,10,14.8
						C78.5,157.3,84.7,152.4,85.8,145.2z"/>
					<path class="st8" d="M100.3,127c2-12.8-5.4-24.6-16.5-26.3C72.6,99,62,108,60,120.8c-2,12.8,5.4,24.6,16.5,26.3
						C87.7,148.8,98.3,139.8,100.3,127z"/>
					<g>
						<path class="st5" d="M80.5,135c1.2-7.6-3.2-14.6-9.8-15.6c-6.6-1-12.9,4.3-14.1,11.9c-1.2,7.6,3.2,14.6,9.8,15.6
							C73,147.9,79.3,142.6,80.5,135z"/>
						<path class="st5" d="M83.9,113.5c-1.2,7.6-7.5,12.9-14.1,11.9c-6.6-1-11-8-9.8-15.6c1.2-7.6,7.5-12.9,14.1-11.9
							C80.6,98.9,85,105.9,83.9,113.5z"/>
					</g>
					<path class="st5" d="M69.9,140.7c1.1-7.1-3.8-13.8-11-15c-7.2-1.1-13.9,3.8-15,10.9c-1.1,7.1,3.8,13.8,11,15
						C62,152.8,68.8,147.9,69.9,140.7z"/>
					<path class="st5" d="M75.4,104.8c-1.1,7.1-7.8,12-15,10.9c-7.2-1.1-12.1-7.8-11-15c1.1-7.1,7.8-12,15-10.9
						C71.6,90.9,76.6,97.6,75.4,104.8z"/>
					<path class="st5" d="M66.9,126.7c-1.1,7.1-7.8,12-15,10.9c-7.2-1.1-12.1-7.8-11-15c1.1-7.1,7.8-12,15-10.9
						C63.1,112.8,68,119.5,66.9,126.7z"/>
					<path class="st9" d="M84,137.4c-0.3,0.1-0.4,0.3-0.4,0.6c0.1,0.3,0.3,0.4,0.6,0.4c0.4-0.1,0.8-0.4,1.2-0.7
						c0.6-0.7,1.1-1.7,1.4-2.8c0.3-1.1,0.3-2.3,0.1-3.3c-0.2-0.7-0.5-1.2-0.9-1.7c-0.2-0.2-0.5-0.2-0.7,0c-0.2,0.2-0.2,0.5,0,0.7
						c0.3,0.3,0.5,0.7,0.6,1.2c0.2,0.8,0.1,1.9-0.1,2.8c-0.2,0.9-0.6,1.8-1.1,2.3C84.5,137.2,84.3,137.3,84,137.4z"/>
					<path class="st10" d="M86.9,125c0.5-3.5-1.9-6.8-5.3-7.3c-3.5-0.5-6.8,1.9-7.3,5.3c-0.5,3.5,1.9,6.8,5.3,7.3
						C83.1,130.8,86.4,128.4,86.9,125z"/>
					<path class="st5" d="M94.7,115.6c0.4,3.3-0.5,6.2-2.1,6.4c-1.6,0.2-0.4-2.9-0.8-6.2c-0.4-3.3-2.4-5.6-0.8-5.8
						C92.6,109.7,94.2,112.2,94.7,115.6z"/>
					<path class="st5" d="M91.5,135.9c1.4-3,1.4-6,0-6.7c-1.4-0.7-1.2,2.6-2.6,5.7c-1.4,3-3.9,4.6-2.5,5.3
						C87.8,140.8,90.1,138.9,91.5,135.9z"/>
					<path class="st6" d="M106.5,108.8c15.2,4.5,26.8,14.5,14.8,31.3c-12,16.9-17.9,22.7-16.5,4.7
						C106.2,127,104.3,120.9,106.5,108.8z"/>
					<path class="st3" d="M105.5,140.6c3.3,0.7,12-3.7,12.7-10.7C119,123,117.8,137.1,105.5,140.6z"/>
					<path class="st5" d="M117.9,157.7c0.8-5.2-2.8-10.1-8-10.9c-5.2-0.8-10.1,2.8-10.9,8c-0.8,5.2,2.8,10.1,8,10.9
						C112.2,166.5,117.1,162.9,117.9,157.7z"/>
					<path class="st5" d="M112.8,129c2.2-14.4-6.1-27.6-18.5-29.5c-2.9-0.4-5.7-0.2-8.4,0.5c7.8,5.1,12.3,15.4,10.6,26.5
						c-1.7,11-9.1,19.6-18.1,22c2.4,1.5,5,2.6,7.9,3C98.6,153.4,110.5,143.3,112.8,129z"/>
					<path class="st12" d="M84.8,126.8c0.1-0.9-0.5-1.8-1.5-2c-0.9-0.1-1.8,0.5-2,1.5c-0.1,0.9,0.5,1.8,1.5,2
						C83.8,128.4,84.7,127.8,84.8,126.8z"/>
					<path class="st9" d="M88.5,111c-0.2-0.1-0.5-0.1-0.7,0.2c-0.1,0.2-0.1,0.5,0.2,0.7c0.2,0.1,0.4,0.4,0.5,0.6
						c0.3,0.7,0.4,1.6,0.4,2.6c-0.1,1-0.3,2-0.8,2.7c-0.3,0.4-0.6,0.8-1,0.9c-0.2,0.1-0.4,0.4-0.2,0.7c0.1,0.2,0.4,0.4,0.7,0.2
						c0.6-0.3,1-0.7,1.4-1.3c0.5-0.9,0.8-2,0.9-3.2c0.1-1.1-0.1-2.3-0.5-3.1C89.2,111.6,88.9,111.2,88.5,111z"/>
				</g>
				<path class="st10" d="M65.7,124.5c1.7,0.9,3.8,0.3,4.8-1.5c1-1.8,0.5-4-1.2-4.9c-1.7-0.9-3.8-0.3-4.8,1.5
					C63.5,121.4,64,123.6,65.7,124.5z"/>
			</g>
			<g>
				<path class="st17" d="M40.7,7.2c1.7,2.1,1.5,5.2-0.6,7c-2.1,1.7-5.2,1.5-7-0.6c-1.7-2.1-1.5-5.2,0.6-7
					C35.8,4.8,38.9,5.1,40.7,7.2z"/>
				<path class="st18" d="M42.6,5.6c0.2,0.2,0.3,0.5,0.2,0.7l0,0c0,0.3-0.2,0.5-0.4,0.7c-0.2,0.2-0.4,0.2-0.7,0.2V6.8
					c0.1,0,0.2,0,0.3-0.1c0.1-0.1,0.2-0.2,0.2-0.3l0,0c0-0.1,0-0.3-0.1-0.4c-0.1-0.1-0.2-0.2-0.3-0.2h0l0,0V5.3c0,0,0.1,0,0.1,0l0,0
					C42.1,5.3,42.4,5.4,42.6,5.6z M41.8,7.3C41.8,7.3,41.7,7.3,41.8,7.3c-0.4,0-0.6-0.2-0.8-0.4c-0.2-0.2-0.3-0.5-0.2-0.7v0l0,0
					c0-0.3,0.1-0.5,0.4-0.7c0.2-0.2,0.4-0.2,0.7-0.2v0.5c-0.1,0-0.2,0-0.3,0.1c-0.1,0.1-0.2,0.2-0.2,0.3h0c0,0.1,0,0.3,0.1,0.4
					c0.1,0.1,0.2,0.2,0.3,0.2l0,0V7.3z"/>
				<path class="st5" d="M39.8,6.5c-0.1,0.1,0,0.3,0.2,0.2c0.1-0.1,0.3,0.1,0.2,0.2c-0.1,0.1,0,0.3,0.2,0.2c0.1-0.1,0.3,0.1,0.2,0.2
					c-0.1,0.1,0,0.3,0.2,0.2c0.1-0.1,0.3,0.1,0.2,0.2c-0.1,0.1,0,0.3,0.2,0.2C41,7.7,41.2,7.9,41,8c-0.1,0.1,0,0.3,0.2,0.2l0.8-0.6
					C42,7.5,42,7.4,42,7.3l-1.2-1.4c-0.1-0.1-0.2-0.1-0.2,0L39.8,6.5z"/>
				<path class="st13" d="M38.8,7c0.5,0.6,0.4,1.5-0.2,2c-0.6,0.5-1.5,0.4-2-0.2c-0.5-0.6-0.4-1.5,0.2-2C37.4,6.3,38.3,6.4,38.8,7z"
					/>
			</g>
			<g>
				<path class="st19" d="M45.2,18.9c1.7-2.1,4.9-2.4,7-0.7s2.4,4.9,0.7,7c-1.7,2.1-4.9,2.4-7,0.7C43.8,24.1,43.5,21,45.2,18.9z"/>
				<path class="st18" d="M44.1,16.9c0.2,0,0.5,0.1,0.7,0.2c0.2,0.2,0.3,0.4,0.4,0.7c0,0.3,0,0.5-0.2,0.7c-0.2,0.2-0.4,0.3-0.7,0.4
					h0v0c0,0-0.1,0-0.1,0v-0.5l0,0l0,0c0.1,0,0.2-0.1,0.3-0.2c0.1-0.1,0.1-0.2,0.1-0.4c0-0.1-0.1-0.2-0.2-0.3
					c-0.1-0.1-0.2-0.1-0.3-0.1V16.9z M43.3,17.3c0.2-0.2,0.4-0.3,0.7-0.4l0,0c0,0,0,0,0.1,0v0.5l0,0l0,0c-0.1,0-0.2,0.1-0.3,0.2
					c-0.1,0.1-0.1,0.2-0.1,0.4v0c0,0.1,0.1,0.2,0.2,0.3c0.1,0.1,0.2,0.1,0.3,0.1v0.5c-0.2,0-0.5-0.1-0.7-0.2
					c-0.2-0.2-0.3-0.4-0.4-0.7v0C43.1,17.8,43.1,17.5,43.3,17.3z"/>
				<path class="st5" d="M44.7,19.8c0.1,0.1,0.3-0.1,0.2-0.2c-0.1-0.1,0-0.3,0.2-0.2c0.1,0.1,0.3-0.1,0.2-0.2
					c-0.1-0.1,0-0.3,0.2-0.2c0.1,0.1,0.3-0.1,0.2-0.2c-0.1-0.1,0-0.3,0.2-0.2c0.1,0.1,0.3-0.1,0.2-0.2c-0.1-0.1,0-0.3,0.2-0.2
					c0.1,0.1,0.3-0.1,0.2-0.2l-0.8-0.6c-0.1-0.1-0.2,0-0.2,0L43.9,19c-0.1,0.1,0,0.2,0,0.2L44.7,19.8z"/>
				<path class="st20" d="M45.8,19c0.5-0.6,1.4-0.7,2-0.2c0.6,0.5,0.7,1.4,0.2,2c-0.5,0.6-1.4,0.7-2,0.2
					C45.4,20.6,45.3,19.6,45.8,19z"/>
			</g>
			<g>
				<path class="st3" d="M40.7,30.8c1.7,2.1,1.5,5.2-0.6,7c-2.1,1.7-5.2,1.5-7-0.6c-1.7-2.1-1.5-5.2,0.6-7
					C35.8,28.4,38.9,28.6,40.7,30.8z"/>
				<path class="st18" d="M42.6,29.2c0.2,0.2,0.3,0.5,0.2,0.7l0,0c0,0.3-0.2,0.5-0.4,0.7c-0.2,0.2-0.4,0.2-0.7,0.2v-0.5
					c0.1,0,0.2,0,0.3-0.1c0.1-0.1,0.2-0.2,0.2-0.3l0,0c0-0.1,0-0.3-0.1-0.4c-0.1-0.1-0.2-0.2-0.3-0.2h0l0,0v-0.5c0,0,0.1,0,0.1,0
					l0,0C42.1,28.8,42.4,29,42.6,29.2z M41.8,30.8C41.8,30.8,41.7,30.8,41.8,30.8c-0.4,0-0.6-0.2-0.8-0.4c-0.2-0.2-0.3-0.5-0.2-0.7
					v0l0,0c0-0.3,0.1-0.5,0.4-0.7c0.2-0.2,0.4-0.2,0.7-0.2v0.5c-0.1,0-0.2,0-0.3,0.1c-0.1,0.1-0.2,0.2-0.2,0.3h0
					c0,0.1,0,0.3,0.1,0.4c0.1,0.1,0.2,0.2,0.3,0.2l0,0V30.8z"/>
				<path class="st5" d="M39.8,30.1c-0.1,0.1,0,0.3,0.2,0.2c0.1-0.1,0.3,0.1,0.2,0.2c-0.1,0.1,0,0.3,0.2,0.2
					c0.1-0.1,0.3,0.1,0.2,0.2c-0.1,0.1,0,0.3,0.2,0.2c0.1-0.1,0.3,0.1,0.2,0.2c-0.1,0.1,0,0.3,0.2,0.2c0.1-0.1,0.3,0.1,0.2,0.2
					c-0.1,0.1,0,0.3,0.2,0.2l0.8-0.6c0.1-0.1,0.1-0.2,0-0.2l-1.2-1.4c-0.1-0.1-0.2-0.1-0.2,0L39.8,30.1z"/>
				<path class="st6" d="M38.8,30.5c0.5,0.6,0.4,1.5-0.2,2c-0.6,0.5-1.5,0.4-2-0.2c-0.5-0.6-0.4-1.5,0.2-2
					C37.4,29.8,38.3,29.9,38.8,30.5z"/>
			</g>
		</g>
	</g>
</g>
<g id="DESIGNED_BY_FREEPIK">
</g>
</svg>
