<svg xmlns="http://www.w3.org/2000/svg" viewBox="0 0 50 50"><path d="M39.293 2.293L33.586 8l5.707 5.707 1.414-1.414L37.414 9H41c2.755 0 5 2.245 5 5v5h2v-5c0-3.845-3.155-7-7-7h-3.586l3.293-3.293-1.414-1.414zM6 6.996A4.02 4.02 0 0 0 1.996 11v14A4.02 4.02 0 0 0 6 29.004h12.996V39A4.02 4.02 0 0 0 23 43.004h21A4.02 4.02 0 0 0 48.004 39V25A4.02 4.02 0 0 0 44 20.996H31.004V11A4.02 4.02 0 0 0 27 6.996H6zm0 2.008h21A1.98 1.98 0 0 1 28.996 11v2H4.004v-2A1.98 1.98 0 0 1 6 9.004zM4.004 17h24.992v3.996H23c-1.925 0-3.546 1.382-3.922 3.201-.054.26-.082.528-.082.803v1.996H6A1.98 1.98 0 0 1 4.004 25v-8zM23 23.004h21A1.98 1.98 0 0 1 45.996 25v2H21.004v-2A1.977 1.977 0 0 1 23 23.004zM2 31v5c0 3.845 3.155 7 7 7h3.586l-3.293 3.293 1.414 1.414L16.414 42l-5.707-5.707-1.414 1.414L12.586 41H9c-2.755 0-5-2.245-5-5v-5H2zm19.004 0h24.992v8A1.98 1.98 0 0 1 44 40.996H23A1.98 1.98 0 0 1 21.004 39v-8z"/></svg>