<svg xmlns="http://www.w3.org/2000/svg" viewBox="0 0 64 64"><path d="M3 2C1.348 2 0 3.348 0 5s1.348 3 3 3a2.988 2.988 0 0 0 2.578-1.492c1.57.746 2.719 2.273 2.863 4.097l2.793 35.262c.391 4.961 4.114 8.98 8.844 9.918C20.461 58.168 22.512 60 25 60a5.01 5.01 0 0 0 4.898-4h10.204A5.01 5.01 0 0 0 45 60c2.758 0 5-2.242 5-5s-2.242-5-5-5a5.01 5.01 0 0 0-4.898 4H29.898A5.01 5.01 0 0 0 25 50c-2.324 0-4.266 1.602-4.824 3.754A9.069 9.069 0 0 1 13.719 48h38.664a3.016 3.016 0 0 0 2.933-2.371L60.81 20H61c1.652 0 3-1.348 3-3s-1.348-3-3-3H38V3c0-.55-.45-1-1-1h-6c-.55 0-1 .45-1 1v11H10.719l-.281-3.55c-.22-2.747-2.04-5.036-4.493-5.981A2.995 2.995 0 0 0 3 2zm0 1.797a1.204 1.204 0 1 1-.001 2.407A1.204 1.204 0 0 1 3 3.797zM32 4h4v28a1 1 0 0 0 1.707.707L41 29.414 43.586 32 34 41.586 24.414 32 27 29.414l3.293 3.293A1 1 0 1 0 32 32zM10.875 16H30v13.586l-2.293-2.293a1 1 0 0 0-1.414 0l-4 4A.993.993 0 0 0 22 32c0 .258.098.512.293.707l11 11a1 1 0 0 0 1.414 0l11-11a1 1 0 0 0 0-1.414l-4-4a1 1 0 0 0-1.414 0L38 29.586V16h23c.55 0 1 .45 1 1s-.45 1-1 1H41.062c-.55 0-1 .45-1 1s.45 1 1 1h17.7l-5.403 25.207a1.001 1.001 0 0 1-.976.793H13.262c-.012-.098-.028-.191-.035-.29L11.66 25.935c.106.035.219.066.34.066.55 0 1-.45 1-1v-2c0-.55-.45-1-1-1a.994.994 0 0 0-.633.242L11.191 20H27c.55 0 1-.45 1-1s-.45-1-1-1H11.031zM17 22c-.55 0-1 .45-1 1v2c0 .55.45 1 1 1s1-.45 1-1v-2c0-.55-.45-1-1-1zm5 0c-.55 0-1 .45-1 1v2c0 .55.45 1 1 1s1-.45 1-1v-2c0-.55-.45-1-1-1zm5 0c-.55 0-1 .45-1 1v2c0 .55.45 1 1 1s1-.45 1-1v-2c0-.55-.45-1-1-1zm14 0c-.55 0-1 .45-1 1v2c0 .55.45 1 1 1s1-.45 1-1v-2c0-.55-.45-1-1-1zm5 0c-.55 0-1 .45-1 1v2c0 .55.45 1 1 1s1-.45 1-1v-2c0-.55-.45-1-1-1zm5 0c-.55 0-1 .45-1 1v2c0 .55.45 1 1 1s1-.45 1-1v-2c0-.55-.45-1-1-1zm5 0c-.55 0-1 .45-1 1v2c0 .55.45 1 1 1s1-.45 1-1v-2c0-.55-.45-1-1-1zM45 51.813A3.19 3.19 0 0 1 48.188 55 3.19 3.19 0 0 1 45 58.188 3.19 3.19 0 0 1 41.812 55 3.19 3.19 0 0 1 45 51.812zm-20 .03A3.163 3.163 0 0 1 28.156 55 3.163 3.163 0 0 1 25 58.156 3.163 3.163 0 0 1 21.844 55 3.163 3.163 0 0 1 25 51.844z"/></svg>