<svg xmlns="http://www.w3.org/2000/svg" viewBox="0 0 24 24"><path d="M2.324 4A2.337 2.337 0 0 0 0 6.324v12.352A2.337 2.337 0 0 0 2.324 21h19.352A2.337 2.337 0 0 0 24 18.676V6.324A2.337 2.337 0 0 0 21.676 4zm0 2h19.352a.31.31 0 0 1 .324.324V8H2V6.324A.31.31 0 0 1 2.324 6zM2 11h20v7.676a.31.31 0 0 1-.324.324H2.324A.31.31 0 0 1 2 18.676zm4.5 1c-.824 0-1.5.676-1.5 1.5v3c0 .824.676 1.5 1.5 1.5h1c.824 0 1.5-.676 1.5-1.5V16H8v.5c0 .281-.219.5-.5.5h-1a.494.494 0 0 1-.5-.5v-3c0-.281.219-.5.5-.5h1c.281 0 .5.219.5.5v.5h1v-.5c0-.824-.676-1.5-1.5-1.5zm5.5 0c-1.098 0-2 .902-2 2 0 .355.137.781.488 1.07.352.29.848.43 1.512.43.516 0 .77.113.875.203.102.086.125.16.125.297 0 .559-.441 1-1 1-.559 0-1-.441-1-1h-1c0 1.098.902 2 2 2 1.098 0 2-.902 2-2 0-.355-.14-.781-.488-1.07-.352-.29-.852-.43-1.512-.43-.52 0-.77-.113-.875-.203-.102-.086-.125-.16-.125-.297 0-.559.441-1 1-1 .559 0 1 .441 1 1h1c0-1.098-.902-2-2-2zm4.5 0c-.824 0-1.5.676-1.5 1.5v3c0 .824.676 1.5 1.5 1.5h1c.824 0 1.5-.676 1.5-1.5V16h-1v.5c0 .281-.219.5-.5.5h-1a.494.494 0 0 1-.5-.5v-3c0-.281.219-.5.5-.5h1c.281 0 .5.219.5.5v.5h1v-.5c0-.824-.676-1.5-1.5-1.5z"/></svg>