<svg xmlns="http://www.w3.org/2000/svg" viewBox="0 0 80 80"><path d="M11 16c-2.75 0-5 2.25-5 5v38c0 2.75 2.25 5 5 5h11.984c3.34 5.96 9.707 10 17.016 10 7.309 0 13.676-4.04 17.016-10H69c2.75 0 5-2.25 5-5V21c0-2.75-2.25-5-5-5zm0 2h58c1.668 0 3 1.332 3 3v5H8v-5c0-1.668 1.332-3 3-3zM8 30h64v29c0 1.668-1.332 3-3 3H58a19.411 19.411 0 0 0 1.5-7.5C59.5 43.742 50.758 35 40 35s-19.5 8.742-19.5 19.5c0 2.656.535 5.191 1.5 7.5H11c-1.668 0-3-1.332-3-3zm4 5c-.55 0-1 .45-1 1s.45 1 1 1 1-.45 1-1-.45-1-1-1zm4 0c-.55 0-1 .45-1 1s.45 1 1 1 1-.45 1-1-.45-1-1-1zm4 0c-.55 0-1 .45-1 1s.45 1 1 1 1-.45 1-1-.45-1-1-1zm4 0c-.55 0-1 .45-1 1s.45 1 1 1 1-.45 1-1-.45-1-1-1zm16 2a17.45 17.45 0 0 1 13.375 6.219 1.002 1.002 0 1 0 1.203 1.598A17.422 17.422 0 0 1 57.5 54.5c0 3.95-1.316 7.578-3.516 10.5a1.004 1.004 0 0 0-.968 1.176C49.813 69.746 45.18 72 40 72c-9.676 0-17.5-7.824-17.5-17.5S30.324 37 40 37zm-10 6c-.55 0-1 .45-1 1s.45 1 1 1 1-.45 1-1-.45-1-1-1zm4 0c-.55 0-1 .45-1 1s.45 1 1 1 1-.45 1-1-.45-1-1-1zm4 0c-.55 0-1 .45-1 1s.45 1 1 1 1-.45 1-1-.45-1-1-1zm4 0c-.55 0-1 .45-1 1s.45 1 1 1 1-.45 1-1-.45-1-1-1zm4 0c-.55 0-1 .45-1 1s.45 1 1 1 1-.45 1-1-.45-1-1-1zm4 0c-.55 0-1 .45-1 1s.45 1 1 1 1-.45 1-1-.45-1-1-1zm-19.691 7.559c-2.536 0-4.09 1.691-4.09 4.453 0 2.761 1.558 4.457 4.09 4.457 2.168 0 3.738-1.364 3.808-3.297H32.06c-.125.906-.817 1.504-1.743 1.504-1.183 0-1.906-1.02-1.906-2.672 0-1.645.723-2.652 1.902-2.652.922 0 1.622.62 1.735 1.539h2.062c-.062-1.914-1.672-3.332-3.8-3.332zm5.394.226l2.723 8.453h2.719l2.652-8.453H41.48l-1.578 6.227h-.109l-1.625-6.227zm9.55 0l2.727 8.453h2.72l2.652-8.453h-2.32l-1.579 6.227h-.11l-1.624-6.227zM30 65c-.55 0-1 .45-1 1s.45 1 1 1 1-.45 1-1-.45-1-1-1zm4 0c-.55 0-1 .45-1 1s.45 1 1 1 1-.45 1-1-.45-1-1-1zm4 0c-.55 0-1 .45-1 1s.45 1 1 1 1-.45 1-1-.45-1-1-1zm4 0c-.55 0-1 .45-1 1s.45 1 1 1 1-.45 1-1-.45-1-1-1zm4 0c-.55 0-1 .45-1 1s.45 1 1 1 1-.45 1-1-.45-1-1-1zm4 0c-.55 0-1 .45-1 1s.45 1 1 1 1-.45 1-1-.45-1-1-1z"/></svg>