<svg xmlns="http://www.w3.org/2000/svg" viewBox="0 0 50 50"><path d="M26 2C13.3 2 8.398 10.2 8 18v6.688c-.7.8-1 1.824-1 3.125 0 2.3 1.488 4.187 3.688 4.687C13.288 39.3 17.602 48 25 48c3.684 0 6.594-2.21 8.906-5.219.39-.437.88-1.12 1.344-1.875A7.988 7.988 0 0 0 42 33v-1c1.652 0 3-1.348 3-3v-4c0-1.652-1.348-3-3-3h-2a1 1 0 0 0-1 1v8c0 .555.445 1 1 1v1c0 2.39-1.34 4.406-3.313 5.375a99.89 99.89 0 0 0 1.094-2.063c.008-.007.024.008.032 0 .394-.855.726-1.707 1.062-2.53a3.008 3.008 0 0 1-1.594-1.532 65.11 65.11 0 0 1-1.937 4.375 4.36 4.36 0 0 0-.25.438A22.76 22.76 0 0 1 34 39h-4.188c-.417-1.156-1.511-2-2.812-2h-2c-1.652 0-3 1.348-3 3s1.348 3 3 3h2c1.3 0 2.395-.844 2.813-2h2.812c-.316.426-.719 1-.719 1-2.199 2.7-4.5 4-7 4-4.8 0-8.918-4.813-12.718-14.813L12 30.595l-.594-.094C10.106 30.5 9 29.312 9 27.812c0-.667.121-1.25.344-1.656l2.344.782c.304.101.644.062.906-.125A.992.992 0 0 0 13 26v-6.063c2.883-.246 11.465-1.312 15.875-5.375 2.477 3.102 6.469 4.653 8.125 5.188V23a2.994 2.994 0 0 1 2.469-2.938c.172-.035.351-.062.531-.062h2v-2c-.398-8.8-5.293-13.8-13.594-14l-2-2z"/></svg>