<svg xmlns="http://www.w3.org/2000/svg" viewBox="0 0 16 16"><path d="M2.5 3C1.676 3 1 3.676 1 4.5v7c0 .82.676 1.5 1.5 1.5h11c.824 0 1.5-.676 1.5-1.5v-7c0-.824-.68-1.5-1.5-1.5zm0 1h11c.281 0 .5.219.5.5V5H2v-.5c0-.285.215-.5.5-.5zM2 6h12v5.5c0 .281-.219.5-.5.5h-11a.494.494 0 0 1-.5-.5zm1.5 1c-.277 0-.5.223-.5.5v3c0 .277.223.5.5.5H5v-1H4V8h1V7zM6 7v1c0 .055.008.113.027.164l.875 2.504a.5.5 0 0 0 .473.332h.25c.21 0 .402-.133.473-.332l.875-2.504C8.993 8.114 9 8.054 9 8V7H8v.914l-.5 1.43-.5-1.43V7zm4 0v1c0 .055.008.113.027.164l.875 2.504a.5.5 0 0 0 .473.332h.25c.21 0 .402-.133.473-.332l.875-2.504c.02-.05.027-.11.027-.164V7h-1v.914l-.5 1.43-.5-1.43V7z"/></svg>