<svg xmlns="http://www.w3.org/2000/svg" viewBox="0 0 80 80"><path d="M34 6.383l-3 1.5-2-1-2 1-2-1-2 1-2-1-3 1.5V14h-3.14a3.013 3.013 0 0 0-2.993 2.781L9 55.965V67c0 1.645 1.355 3 3 3h56c1.645 0 3-1.355 3-3V55.965l-2.344-31.852c.219-.32.344-.703.344-1.113V12c0-1.094-.906-2-2-2H45c-1.094 0-2 .906-2 2v2h-9zM21 9.117l2 1 2-1 2 1 2-1 2 1 1-.5V24.5H20V9.617zM45 12h22v11H45zm-30.14 4H18v7a1.999 1.999 0 1 0 0 4h16a1.999 1.999 0 1 0 0-4v-7h9v7c0 1.094.906 2 2 2h7v3h2v-3h4v3h2v-3h6.715L69 56.035V67c0 .566-.434 1-1 1H12c-.566 0-1-.434-1-1V56.035l2.86-39.11a.99.99 0 0 1 1-.925zM56 19c-.55 0-1 .45-1 1s.45 1 1 1 1-.45 1-1-.45-1-1-1zm4 0c-.55 0-1 .45-1 1s.45 1 1 1 1-.45 1-1-.45-1-1-1zm4 0c-.55 0-1 .45-1 1s.45 1 1 1 1-.45 1-1-.45-1-1-1zM20 34c-.55 0-1 .45-1 1v5c0 .55.45 1 1 1h5c.55 0 1-.45 1-1v-5c0-.55-.45-1-1-1zm10 0c-.55 0-1 .45-1 1v5c0 .55.45 1 1 1h5c.55 0 1-.45 1-1v-5c0-.55-.45-1-1-1zm10 0c-.55 0-1 .45-1 1v5c0 .55.45 1 1 1h5c.55 0 1-.45 1-1v-5c0-.55-.45-1-1-1zm15 0c-.55 0-1 .45-1 1v5c0 .55.45 1 1 1h5c.55 0 1-.45 1-1v-5c0-.55-.45-1-1-1zm-34 2h3v3h-3zm10 0h3v3h-3zm10 0h3v3h-3zm15 0h3v3h-3zm-36 8c-.55 0-1 .45-1 1v5c0 .55.45 1 1 1h5c.55 0 1-.45 1-1v-5c0-.55-.45-1-1-1zm10 0c-.55 0-1 .45-1 1v5c0 .55.45 1 1 1h5c.55 0 1-.45 1-1v-5c0-.55-.45-1-1-1zm10 0c-.55 0-1 .45-1 1v5c0 .55.45 1 1 1h5c.55 0 1-.45 1-1v-5c0-.55-.45-1-1-1zm15 0c-.55 0-1 .45-1 1v5c0 .55.45 1 1 1h5c.55 0 1-.45 1-1v-5c0-.55-.45-1-1-1zm-34 2h3v3h-3zm10 0h3v3h-3zm10 0h3v3h-3zm15 0h3v3h-3zM14 56c-.55 0-1 .45-1 1s.45 1 1 1 1-.45 1-1-.45-1-1-1zm4 0c-.55 0-1 .45-1 1s.45 1 1 1 1-.45 1-1-.45-1-1-1zm4 0c-.55 0-1 .45-1 1s.45 1 1 1 1-.45 1-1-.45-1-1-1zm4 0c-.55 0-1 .45-1 1s.45 1 1 1 1-.45 1-1-.45-1-1-1zm4 0c-.55 0-1 .45-1 1s.45 1 1 1 1-.45 1-1-.45-1-1-1zm4 0c-.55 0-1 .45-1 1s.45 1 1 1 1-.45 1-1-.45-1-1-1zm4 0c-.55 0-1 .45-1 1s.45 1 1 1 1-.45 1-1-.45-1-1-1zm4 0c-.55 0-1 .45-1 1s.45 1 1 1 1-.45 1-1-.45-1-1-1zm4 0c-.55 0-1 .45-1 1s.45 1 1 1 1-.45 1-1-.45-1-1-1zm4 0c-.55 0-1 .45-1 1s.45 1 1 1 1-.45 1-1-.45-1-1-1zm4 0c-.55 0-1 .45-1 1s.45 1 1 1 1-.45 1-1-.45-1-1-1zm4 0c-.55 0-1 .45-1 1s.45 1 1 1 1-.45 1-1-.45-1-1-1zm4 0c-.55 0-1 .45-1 1s.45 1 1 1 1-.45 1-1-.45-1-1-1zm4 0c-.55 0-1 .45-1 1s.45 1 1 1 1-.45 1-1-.45-1-1-1zm-26 5a1.999 1.999 0 1 0 0 4 1.999 1.999 0 1 0 0-4z"/></svg>