<svg xmlns="http://www.w3.org/2000/svg" viewBox="0 0 64 64"><linearGradient id="a" gradientUnits="userSpaceOnUse" x1="32" y1="24" x2="32" y2="47.001" spreadMethod="reflect"><stop offset="0" stop-color="#6dc7ff"/><stop offset="1" stop-color="#e6abff"/></linearGradient><path d="M29 28h9v-2h-5v-2h-2v2h-2c-1.654 0-3 1.346-3 3v4c0 1.654 1.346 3 3 3h6a1 1 0 0 1 1 1v4a1 1 0 0 1-1 1h-9v2h5v2h2v-2h2c1.654 0 3-1.346 3-3v-4c0-1.654-1.346-3-3-3h-6a1 1 0 0 1-1-1v-4a1 1 0 0 1 1-1z" fill="url(#a)"/><linearGradient id="b" gradientUnits="userSpaceOnUse" x1="32" y1="4.5" x2="32" y2="60.064" spreadMethod="reflect"><stop offset="0" stop-color="#1a6dff"/><stop offset="1" stop-color="#c822ff"/></linearGradient><path d="M51 16.056V16h-.04A23.163 23.163 0 0 0 45 10.04V10h-.055A22.87 22.87 0 0 0 32 6c-7.861 0-14.811 3.966-18.96 10H13v.056C10.478 19.746 9 24.203 9 29v6c0 12.683 10.317 23 23 23s23-10.317 23-23v-6c0-4.797-1.478-9.254-4-12.944zm-2 .665v2.804a23.18 23.18 0 0 0-4.055-3.524H45v-3.46a21.109 21.109 0 0 1 4 4.18zm-28-1.915v-3.661a20.863 20.863 0 0 1 4-1.92v3.868a22.886 22.886 0 0 0-4 1.713zm6-6.179a20.92 20.92 0 0 1 4-.576v3.975c-1.368.059-2.704.24-4 .528V8.627zm6-.576a20.92 20.92 0 0 1 4 .576v3.927a22.801 22.801 0 0 0-4-.528V8.051zm6 1.174c1.409.5 2.747 1.146 4 1.92v3.661a22.811 22.811 0 0 0-4-1.713V9.225zM19 12.54v3.5a23.114 23.114 0 0 0-4 3.485v-2.804a21.141 21.141 0 0 1 4-4.181zm-6 7.574V22h.04c-.59.857-1.12 1.757-1.591 2.692.335-1.603.871-3.13 1.551-4.578zM32 56c-11.579 0-21-9.421-21-21s9.421-21 21-21 21 9.421 21 21-9.421 21-21 21zm18.96-34H51v-1.886a20.81 20.81 0 0 1 1.552 4.578A22.966 22.966 0 0 0 50.96 22z" fill="url(#b)"/><linearGradient id="c" gradientUnits="userSpaceOnUse" x1="32" y1="4.5" x2="32" y2="60.064" spreadMethod="reflect"><stop offset="0" stop-color="#1a6dff"/><stop offset="1" stop-color="#c822ff"/></linearGradient><path d="M32 16c-10.477 0-19 8.523-19 19s8.523 19 19 19 19-8.523 19-19-8.523-19-19-19zm0 36c-9.374 0-17-7.626-17-17s7.626-17 17-17 17 7.626 17 17-7.626 17-17 17z" fill="url(#c)"/></svg>