<svg xmlns="http://www.w3.org/2000/svg" viewBox="0 0 64 64"><path d="M11 58V9l4 3 4-3 4 3 4-3 4 3 4-3 4 3 4-3 4 3 4-3 2 2v47z" fill="#faefde"/><path d="M56 53H8a3 3 0 0 0 0 6h48a3 3 0 0 0 0-6z" fill="#7e8189"/><path d="M11 50h42v9H11z" fill="#efd8be"/><path d="M56 52h-2V11a1 1 0 0 0-.293-.707l-2-2a1.004 1.004 0 0 0-1.309-.094L47 10.75 43.602 8.2a1.002 1.002 0 0 0-1.2 0L39 10.75 35.602 8.2a1.008 1.008 0 0 0-1.204 0L31 10.75 27.602 8.2a1.008 1.008 0 0 0-1.204 0L23 10.75 19.602 8.2a1.008 1.008 0 0 0-1.204 0L15 10.75 11.602 8.2a.996.996 0 0 0-1.047-.095A.998.998 0 0 0 10 9v43H8c-2.207 0-4 1.793-4 4s1.793 4 4 4h48c2.207 0 4-1.793 4-4s-1.793-4-4-4zM8 58c-1.102 0-2-.898-2-2 0-1.102.898-2 2-2h2v4zm4 0v-6c.55 0 1-.45 1-1v-2c0-.55-.45-1-1-1V11l2.398 1.8c.356.266.848.266 1.204 0L19 10.25l3.398 2.55c.356.266.848.266 1.204 0L27 10.25l3.398 2.55c.356.266.848.266 1.204 0L35 10.25l3.398 2.55c.356.266.848.266 1.204 0L43 10.25l3.398 2.55c.356.266.848.266 1.204 0l3.304-2.48L52 11.414V48c-.55 0-1 .45-1 1v2c0 .55.45 1 1 1v6zm44 0h-2v-4h2c1.102 0 2 .898 2 2 0 1.102-.898 2-2 2z" fill="#8d6c9f"/><path d="M17 48c-.55 0-1 .45-1 1v2c0 .55.45 1 1 1s1-.45 1-1v-2c0-.55-.45-1-1-1zm5 0c-.55 0-1 .45-1 1v2c0 .55.45 1 1 1s1-.45 1-1v-2c0-.55-.45-1-1-1zm5 0c-.55 0-1 .45-1 1v2c0 .55.45 1 1 1s1-.45 1-1v-2c0-.55-.45-1-1-1zm5 0c-.55 0-1 .45-1 1v2c0 .55.45 1 1 1s1-.45 1-1v-2c0-.55-.45-1-1-1zm5 0c-.55 0-1 .45-1 1v2c0 .55.45 1 1 1s1-.45 1-1v-2c0-.55-.45-1-1-1zm5 0c-.55 0-1 .45-1 1v2c0 .55.45 1 1 1s1-.45 1-1v-2c0-.55-.45-1-1-1zm5 0c-.55 0-1 .45-1 1v2c0 .55.45 1 1 1s1-.45 1-1v-2c0-.55-.45-1-1-1z" fill="#8d6c9f"/><path d="M39 20h6c.55 0 1-.45 1-1s-.45-1-1-1h-6c-.55 0-1 .45-1 1s.45 1 1 1zm-4-2H19c-.55 0-1 .45-1 1s.45 1 1 1h16c.55 0 1-.45 1-1s-.45-1-1-1zm-16 6h11c.55 0 1-.45 1-1s-.45-1-1-1H19c-.55 0-1 .45-1 1s.45 1 1 1zm0 8h10c.55 0 1-.45 1-1s-.45-1-1-1H19c-.55 0-1 .45-1 1s.45 1 1 1z" fill="#a5bac6"/><path d="M29 38h-2c-.55 0-1 .45-1 1s.45 1 1 1h2c.55 0 1-.45 1-1s-.45-1-1-1zm-6 0h-4c-.55 0-1 .45-1 1s.45 1 1 1h4c.55 0 1-.45 1-1s-.45-1-1-1zm9-4H19c-.55 0-1 .45-1 1s.45 1 1 1h13c.55 0 1-.45 1-1s-.45-1-1-1z" fill="#eb9697"/><path d="M46 36c0-1.652-1.348-3-3-3h-2c-.55 0-1-.45-1-1v-3c0-.55.45-1 1-1h2c.55 0 1 .45 1 1v1c0 .55.45 1 1 1s1-.45 1-1v-1c0-1.652-1.348-3-3-3v-1c0-.55-.45-1-1-1s-1 .45-1 1v1c-1.652 0-3 1.348-3 3v3c0 1.652 1.348 3 3 3h2c.55 0 1 .45 1 1v3c0 .55-.45 1-1 1h-2c-.55 0-1-.45-1-1v-1c0-.55-.45-1-1-1s-1 .45-1 1v1c0 1.652 1.348 3 3 3v1c0 .55.45 1 1 1s1-.45 1-1v-1c1.652 0 3-1.348 3-3z" fill="#98c77c"/></svg>