<svg xmlns="http://www.w3.org/2000/svg" viewBox="0 0 50 50"><path d="M15.844 6a.99.99 0 0 0-.563.313l-15 16a1 1 0 0 0-.031 1.343l7 8a.99.99 0 0 0 .719.352c.281.012.55-.094.75-.29L11 29.439V44c0 .55.45 1 1 1h26c.55 0 1-.45 1-1V29.437l1.281 1.282a.999.999 0 0 0 1.438 0l8-8a.999.999 0 0 0 0-1.438l-15-15a1.004 1.004 0 0 0-1.157-.187S29.523 8 25 8s-8.563-1.906-8.563-1.906A1.005 1.005 0 0 0 15.845 6zm.437 2.156C17.195 8.562 20.566 10 25 10c4.434 0 7.805-1.438 8.719-1.844L47.562 22 41 28.563l-2.281-2.282A1.002 1.002 0 0 0 37 27v16H13V27a1.002 1.002 0 0 0-1.719-.719l-3.25 3.25-5.687-6.5z"/></svg>