<svg xmlns="http://www.w3.org/2000/svg" viewBox="0 0 16 16"><path d="M6.5 1A5.508 5.508 0 0 0 1 6.5a5.502 5.502 0 0 0 2.793 4.781 5.52 5.52 0 0 0 1.988 1.98C6.77 14.954 8.56 16 10.5 16c3.031 0 5.5-2.469 5.5-5.5 0-1.941-1.047-3.73-2.738-4.719a5.52 5.52 0 0 0-1.98-1.988A5.502 5.502 0 0 0 6.5 1zm0 1c1.629 0 3.043.879 3.832 2.18l.105.183c.145.27.254.543.344.82.031.094.067.188.09.286.02.09.035.183.05.273.044.25.079.5.079.758C11 8.98 8.98 11 6.5 11c-.258 0-.508-.035-.758-.078-.09-.016-.183-.031-.273-.05-.098-.024-.192-.06-.285-.09-.278-.09-.551-.2-.82-.345l-.38-.207A4.502 4.502 0 0 1 2 6.5C2 4.02 4.02 2 6.5 2zM6 3v1h-.5C4.687 4 4 4.688 4 5.5 4 6.313 4.688 7 5.5 7h2c.258 0 .5.242.5.5s-.242.5-.5.5H4v1h2v1h1V9h.5C8.313 9 9 8.312 9 7.5 9 6.687 8.312 6 7.5 6h-2a.525.525 0 0 1-.5-.5c0-.258.242-.5.5-.5H8V4H7V3zm5.922 2.602c.16.183.293.382.418.585l.098.176c.152.282.265.57.359.864.031.109.066.218.09.335A4.448 4.448 0 0 1 13 8.5c0 2.48-2.02 4.5-4.5 4.5a4.36 4.36 0 0 1-.937-.113c-.118-.024-.227-.059-.336-.09a4.985 4.985 0 0 1-.864-.36l-.176-.097a4.328 4.328 0 0 1-.585-.418c.02.004.039.004.054.004.278.043.555.074.844.074.379 0 .75-.04 1.11-.11a5.484 5.484 0 0 0 1.96-.831A5.496 5.496 0 0 0 12 6.5c0-.29-.031-.566-.074-.844 0-.015 0-.035-.004-.054zm2 2A4.448 4.448 0 0 1 15 10.5c0 2.48-2.02 4.5-4.5 4.5a4.448 4.448 0 0 1-2.898-1.078c.02.004.043.004.062.008.274.043.55.07.836.07 3.031 0 5.5-2.469 5.5-5.5 0-.285-.027-.563-.07-.836-.004-.02-.004-.043-.008-.062z"/></svg>