<svg xmlns="http://www.w3.org/2000/svg" viewBox="0 0 24 24"><path d="M5.5 5A5.498 5.498 0 0 0 1 13.656v6.469c0 .48.395.875.875.875H4a3 3 0 0 0 6 0h2.125a.88.88 0 0 0 .875-.875V7.875A.879.879 0 0 0 12.125 7H9.75A5.5 5.5 0 0 0 5.5 5zm0 1.563A3.941 3.941 0 0 1 9.438 10.5 3.941 3.941 0 0 1 5.5 14.438 3.941 3.941 0 0 1 1.562 10.5 3.941 3.941 0 0 1 5.5 6.562zm-.406.75L4.906 10.5l.063.375 2 1.719.406-.438-1.531-1.687-.188-3.156zM14.656 9a.658.658 0 0 0-.656.656v10.688c0 .27.172.496.406.593.078.032.16.063.25.063H16a3 3 0 0 0 6 0h1.344c.09 0 .172-.027.25-.063a.644.644 0 0 0 .343-.343.606.606 0 0 0 .063-.25v-5.157c0-.128-.055-.234-.125-.343L20.187 9.28a.627.627 0 0 0-.53-.281zM17 11h2.531l2.657 4H17zM3.906 15.75c.164.05.332.09.5.125.18.035.348.074.532.094-.184-.02-.356-.059-.532-.094a5.195 5.195 0 0 1-.5-.125zM7 19.5a1.5 1.5 0 1 1 0 3 1.5 1.5 0 0 1 0-3zm12 0a1.5 1.5 0 1 1 0 3 1.5 1.5 0 0 1 0-3z"/></svg>