<svg xmlns="http://www.w3.org/2000/svg" viewBox="0 0 48 48"><path d="M24 3l4.3 4.8 6.2-2 1.398 6.302L42.2 13.5l-2 6.2L45 24l-4.8 4.3 2 6.2-6.302 1.398L34.5 42.2l-6.2-2L24 45l-4.3-4.8-6.2 2-1.398-6.302L5.8 34.5l2-6.2L3 24l4.8-4.3-2-6.2 6.302-1.398L13.5 5.8l6.2 2z" fill="#f44336"/><path d="M20 32.3l-1.7-1L28 15.7l1.7 1zM19 14c-1.8 0-4 1.102-4 4v1c0 1.8 1.102 4 4 4 2.102 0 4-1.398 4-4v-1c0-2.5-1.7-4-4-4zm1.8 5c0 1.3-.698 2-1.8 2-.898 0-1.8-.602-1.8-2v-1c0-1.398.902-2.102 1.8-2.102 1.398 0 1.8 1.301 1.8 2.102zM29 34c1.8 0 4-1.102 4-4v-1c0-1.8-1.102-4-4-4-2.102 0-4 1.398-4 4v1c0 2.5 1.7 4 4 4zm-1.8-5c0-1.3.698-2 1.8-2 .898 0 1.8.602 1.8 2v1c0 1.398-.902 2.102-1.8 2.102-1.398 0-1.8-1.301-1.8-2.102z" fill="#fff"/></svg>