<svg xmlns="http://www.w3.org/2000/svg" viewBox="0 0 64 64"><path d="M37 3C23.746 3 13 13.746 13 27s10.746 24 24 24 24-10.746 24-24S50.254 3 37 3z" fill="#ffefca"/><path d="M31 9C17.746 9 7 19.746 7 33s10.746 24 24 24 24-10.746 24-24S44.254 9 31 9z" fill="#f9e3ae"/><path d="M47 39c0 12.148-9.852 22-22 22S3 51.148 3 39s9.852-22 22-22 22 9.852 22 22z" fill="#f9e3ae"/><path d="M21.309 60.691L46.69 35.31A21.903 21.903 0 0 0 42 25L11 56a21.903 21.903 0 0 0 10.309 4.691zM6.34 50.66A22.139 22.139 0 0 0 9 54l31-31a22.176 22.176 0 0 0-3.39-2.61zm-2.68-6.32c.317 1.273.75 2.515 1.29 3.71l29.1-29.1a21.845 21.845 0 0 0-3.71-1.29z" fill="#ffefca"/><path d="M13.5 31l1.238 2.262L17 34.5l-2.262 1.238L13.5 38l-1.238-2.262L10 34.5l2.262-1.238zm23.922-1l.848 1.559 1.57.863-1.57.848-.848 1.57-.863-1.57L35 32.422l1.559-.863zm-2.07 16.7l.59 1.07 1.058.582-1.059.59-.59 1.058-.581-1.059-1.07-.59 1.07-.581z" fill="#fff8f8"/><path d="M37 2a24.998 24.998 0 0 0-22 13.102 23.803 23.803 0 0 1 4.75-3.313 22.997 22.997 0 0 1 22.785-7.238 23 23 0 0 1 16.906 16.906A23.003 23.003 0 0 1 52.2 44.238 23.939 23.939 0 0 1 48.9 49a25.003 25.003 0 0 0 12.363-28.137C58.449 9.762 48.453 1.988 37 2zm5.54 10c.82.445 1.608.941 2.37 1.48" fill="#8d6c9f"/><path d="M44.91 14.441a1.046 1.046 0 0 1-.582-.191 23.023 23.023 0 0 0-2.27-1.422 1.012 1.012 0 0 1-.374-1.375c.277-.48.894-.648 1.375-.375a25.06 25.06 0 0 1 2.46 1.55 1 1 0 0 1-.578 1.813zM55.64 28.77a24.84 24.84 0 0 0-7.1-13.59 1 1 0 1 0-1.4 1.43c8.032 7.906 9.15 20.468 2.641 29.671a23.318 23.318 0 0 1-3.57 4A24.124 24.124 0 0 1 42.879 55 25.003 25.003 0 0 0 55.64 28.77zM13.738 17.8a23.007 23.007 0 0 1 25.372-6.33.996.996 0 0 0 1.29-.578.996.996 0 0 0-.579-1.29c-10.656-4.007-22.672-.304-29.23 9a25.254 25.254 0 0 0-1.59 2.5 24.058 24.058 0 0 1 4.738-3.3z" fill="#8d6c9f"/><path d="M25 15C11.746 15 1 25.746 1 39s10.746 24 24 24 24-10.746 24-24-10.746-24-24-24zm0 42.86a18.86 18.86 0 1 1 13-32.508l.578.578c.223.234.438.468.652.71a18.853 18.853 0 0 1 2.915 20.18A18.855 18.855 0 0 1 25 57.86z" fill="#f6d397"/><path d="M25 64C11.191 64 0 52.809 0 39s11.191-25 25-25 25 11.191 25 25-11.191 25-25 25zm0-48C12.297 16 2 26.297 2 39s10.297 23 23 23 23-10.297 23-23-10.297-23-23-23z" fill="#8d6c9f"/><path d="M25 59A20.006 20.006 0 0 1 7.137 48.027 20.002 20.002 0 0 1 28.32 19.281c.551.09.926.614.836 1.164a1.02 1.02 0 0 1-1.168.836c-8.832-1.496-17.422 3.73-20.148 12.262-2.73 8.535 1.234 17.777 9.297 21.684 8.062 3.906 17.77 1.289 22.773-6.141 5.008-7.43 3.79-17.41-2.86-23.414a1.008 1.008 0 0 1-.355-.973.995.995 0 0 1 .692-.765.997.997 0 0 1 1.004.257A19.998 19.998 0 0 1 25 59z" fill="#8d6c9f"/><path d="M34.512 23.55c-.176 0-.348-.042-.5-.128a17.517 17.517 0 0 0-2.41-1.16 1.012 1.012 0 0 1-.665-.785 1.006 1.006 0 0 1 .375-.954.994.994 0 0 1 1.016-.125c.922.364 1.817.79 2.672 1.282.395.226.59.687.473 1.129a.996.996 0 0 1-.973.742zM17.871 52.21a1.015 1.015 0 0 1-.5-.14 15.216 15.216 0 0 1-7.121-9.66 1.001 1.001 0 1 1 1.941-.41 13.192 13.192 0 0 0 6.18 8.379c.387.23.57.691.453 1.125a1.003 1.003 0 0 1-.965.734zM26 49h-2c-2.21 0-4-1.79-4-4 0-.55.45-1 1-1s1 .45 1 1a2 2 0 0 0 2 2h2a2 2 0 0 0 2-2v-3a2 2 0 0 0-2-2h-2c-2.21 0-4-1.79-4-4v-3c0-2.21 1.79-4 4-4h2c2.21 0 4 1.79 4 4 0 .55-.45 1-1 1s-1-.45-1-1a2 2 0 0 0-2-2h-2a2 2 0 0 0-2 2v3a2 2 0 0 0 2 2h2c2.21 0 4 1.79 4 4v3c0 2.21-1.79 4-4 4z" fill="#8d6c9f"/><path d="M25 30c-.55 0-1-.45-1-1v-2c0-.55.45-1 1-1s1 .45 1 1v2c0 .55-.45 1-1 1zm0 19c-.55 0-1-.45-1-1v-6c0-.55.45-1 1-1s1 .45 1 1v6c0 .55-.45 1-1 1zm0-9c-.55 0-1-.45-1-1v-6c0-.55.45-1 1-1s1 .45 1 1v6c0 .55-.45 1-1 1z" fill="#8d6c9f"/><path d="M25 52c-.55 0-1-.45-1-1v-2c0-.55.45-1 1-1s1 .45 1 1v2c0 .55-.45 1-1 1z" fill="#8d6c9f"/></svg>