<svg xmlns="http://www.w3.org/2000/svg" viewBox="0 0 40 40"><path d="M.816 19.941L14.094 6.676l3.699 3.699-2.121 2.121-1.578-1.574-.367.344-2.313 2.324-2.828 2.824L5.3 19.691h.004l-.25.243 9.156 9.152 3.875-3.875L12.879 20 15 17.879l7.332 7.332-8.125 8.117z" fill="#dff0fe"/><path d="M14.094 7.383l2.992 2.992-1.418 1.414-.883-.883-.707-.703-.707.707-2.309 2.324-2.832 2.829L5.3 18.98l-.296.305-.664.64.723.723L13.5 29.09l.707.707 4.586-4.586-.707-.707-2.383-2.379L13.586 20 15 18.586l6.625 6.625-2.121 2.121-5.297 5.293-2.121-2.121-8.438-8.442-2.125-2.12 2.122-2.126 8.324-8.312 2.125-2.121m0-1.414l-2.832 2.828-8.32 8.312-2.833 2.832 2.832 2.829 8.438 8.44 2.828 2.83 6.004-6 2.828-2.83L15 17.173 12.172 20 15 22.828l2.379 2.383-3.168 3.168L5.77 19.94l.25-.242-.008-.008 2.93-2.921 2.828-2.829 2.312-2.324.012.012 1.574 1.578 2.832-2.832z" fill="#4788c7"/><path d="M22.355 29.477l2.125-2.125 1.582 1.585.364-.347 2.27-2.281 6.113-6.102-.004-.004.25-.238-9.157-9.152-3.875 3.874 5.211 5.211-2.125 2.122-7.332-7.332 8.125-8.122 13.391 13.391-13.23 13.223z" fill="#dff0fe"/><path d="M25.902 7.273l12.684 12.684-2.121 2.121-8.281 8.274-2.122 2.12-3-2.995 1.418-1.418.887.886.707.703.707-.707 2.266-2.277 2.832-2.828 2.93-2.922.296-.305.665-.636-.723-.723-8.438-8.441-.71-.707-.708.707-3.168 3.171-.707.707 5.211 5.211-1.418 1.415-6.625-6.625 2.121-2.126 5.297-5.289m0-1.414l-6.004 5.996-2.828 2.832 8.04 8.04 2.831-2.829-5.21-5.21 3.167-3.172 8.442 8.441-.25.238.012.012-2.93 2.922-2.832 2.828-2.27 2.281-.011-.011-1.579-1.582-2.832 2.832 4.41 4.41 2.833-2.828 8.28-8.274L40 19.957z" fill="#4788c7"/></svg>