<svg xmlns="http://www.w3.org/2000/svg" viewBox="0 0 50 50"><path d="M33.344 2a.993.993 0 0 0-.969 1.219c.012.054.723 3.328 1.438 7.687 3.07 4.313 10.48 15.953 12.78 30.844C47.306 38.098 48 32.621 48 25.125c0-11.633-2.906-22.3-2.938-22.406A.99.99 0 0 0 44.094 2zm-13.282 8a.999.999 0 0 0-.875.531c-.175.32-.136.692.063 1 .129.2 12.895 19.992 13.75 35.532A.993.993 0 0 0 34 48h10.156c.278 0 .563-.11.75-.313a.974.974 0 0 0 .25-.75C43.766 26.5 31.461 11.023 30.938 10.376a1.016 1.016 0 0 0-.782-.375zm-1.5 4.25a85.661 85.661 0 0 1-1.03 5.406c2.292 3.242 5.945 9.375 8.25 18.157a77.233 77.233 0 0 0 1.812-5.126c-3-8.054-7.149-15.316-9.032-18.437zM3 18c-.383 0-.738.219-.906.563-.168.343-.11.761.125 1.062.074.098 7.535 9.781 9.719 19.594a.99.99 0 0 0 .968.781H23a.975.975 0 0 0 .781-.375c.192-.242.262-.574.188-.875-3.328-13.074-9.73-20.145-10-20.438A.944.944 0 0 0 13.25 18z"/></svg>