<?xml version="1.0" encoding="utf-8"?>
<!-- Generator: Adobe Illustrator 22.0.1, SVG Export Plug-In . SVG Version: 6.00 Build 0)  -->
<svg version="1.1" xmlns="http://www.w3.org/2000/svg" xmlns:xlink="http://www.w3.org/1999/xlink" x="0px" y="0px"
	 viewBox="0 0 120.9 125.3" style="enable-background:new 0 0 120.9 125.3;" xml:space="preserve">
<style type="text/css">
	.st0{fill-rule:evenodd;clip-rule:evenodd;fill:#D4CCBA;}
	.st1{fill-rule:evenodd;clip-rule:evenodd;fill:#A89D86;}
	.st2{fill-rule:evenodd;clip-rule:evenodd;fill:#BEB5A0;}
	.st3{fill-rule:evenodd;clip-rule:evenodd;fill:#B8332E;}
	.st4{fill-rule:evenodd;clip-rule:evenodd;fill:#4D4D4D;}
	.st5{fill-rule:evenodd;clip-rule:evenodd;fill:#FFFFFF;}
	.st6{fill-rule:evenodd;clip-rule:evenodd;fill:#DB4743;}
	.st7{fill:#FFB463;}
	.st8{fill-rule:evenodd;clip-rule:evenodd;fill:#F7C8B4;}
	.st9{fill:#4D4D4D;}
	.st10{fill-rule:evenodd;clip-rule:evenodd;fill:#F1ABA1;}
	.st11{fill:#F1ABA1;}
	.st12{fill-rule:evenodd;clip-rule:evenodd;fill:#FAC2B9;}
	.st13{fill-rule:evenodd;clip-rule:evenodd;fill:#FFD67F;}
	.st14{fill-rule:evenodd;clip-rule:evenodd;fill:#E0B24E;}
	.st15{fill-rule:evenodd;clip-rule:evenodd;fill:#FFE8B5;}
	.st16{fill-rule:evenodd;clip-rule:evenodd;fill:none;stroke:#FFFFFF;stroke-width:1.1999;stroke-miterlimit:22.9256;}
	.st17{fill-rule:evenodd;clip-rule:evenodd;fill:#FFB463;}
	.st18{fill:#FFFFFF;}
	.st19{fill-rule:evenodd;clip-rule:evenodd;fill:#74AB9F;}
	.st20{fill-rule:evenodd;clip-rule:evenodd;fill:#A3D6CB;}
	.st21{fill-rule:evenodd;clip-rule:evenodd;fill:#F06358;}
	.st22{fill-rule:evenodd;clip-rule:evenodd;fill:#E6E6E6;}
	
		.st23{fill-rule:evenodd;clip-rule:evenodd;fill:none;stroke:#FFFFFF;stroke-width:0.5669;stroke-linecap:round;stroke-linejoin:round;stroke-miterlimit:22.9256;}
	.st24{fill-rule:evenodd;clip-rule:evenodd;fill:#CC271E;}
	.st25{fill-rule:evenodd;clip-rule:evenodd;fill:#E93D33;}
	.st26{fill:#A89D86;}
</style>
<g id="BACKGROUND">
</g>
<g id="OBJECTS">
	<g>
		<ellipse class="st2" cx="62.6" cy="115" rx="35.6" ry="9.9"/>
		<g>
			<path class="st16" d="M1.1,72.9c3.5-7,7.8-18,9.4-28.5"/>
			<path class="st16" d="M120.9,74c-5.6-8.9-10.7-19-12.4-29.5"/>
			<g>
				<path class="st3" d="M37.9,59L22.5,48.8c-4.1,1.7-6.1,4.9-6.2,9.4l15.3,10.1C38.7,72.9,45.2,63.8,37.9,59z"/>
				<path class="st4" d="M17,44.9c-2.8-3.1-5.7-3.7-5.2,0.3c-1.4-1.2-5-2.6-6.5-0.3c-2.9,4.6,2.1,8.9,8.2,10.3
					C17.2,56,21.9,50.2,17,44.9z"/>
				<path class="st5" d="M16.7,58.5c1.1-3.3,4.1-7.6,6.1-9.3c0.6-0.5,0.1-1.2-0.3-1.5c-1.3-0.9-2.7-1.7-3.7-0.9
					c-2.8,2.2-5.2,5.8-5.9,9.1c-0.3,1.2,1.1,2.2,2.3,3C15.8,59.2,16.5,59.1,16.7,58.5z"/>
			</g>
			<g>
				<path class="st4" d="M73.6,109c0.2,1.2,2.8,2.2,2.7,4.8c-0.1,2.6-1.3,5.2-8.6,4.2c-6.8-0.9-7.4-5-6.2-9.1
					C62.7,104.8,72.9,105.2,73.6,109z"/>
				<rect x="61.7" y="74" class="st3" width="12.4" height="31.5"/>
				<path class="st5" d="M61.7,103.4c3.6,1,9.4,0.9,12.2,0c0.9-0.3,1.2,0.6,1.2,1.2c0,0.4,0,0.7,0,1.1c0,1.7-0.1,3.4-1.4,3.9
					c-3.6,1.3-8.3,1.3-11.8,0c-1.3-0.5-1.4-2.4-1.3-4c0-0.3,0-0.6,0-0.9C60.5,103.8,61,103.2,61.7,103.4z"/>
			</g>
			<g>
				<path class="st4" d="M47.5,109c-0.2,1.2-2.8,2.2-2.7,4.8c0.1,2.6,1.3,5.2,8.6,4.2c6.8-0.9,7.4-5,6.2-9.1
					C58.3,104.8,48.2,105.2,47.5,109z"/>
				<rect x="47" y="74" class="st3" width="12.4" height="31.5"/>
				<path class="st5" d="M59.3,103.4c-3.6,1-9.4,0.9-12.2,0c-0.9-0.3-1.2,0.6-1.2,1.2c0,0.4,0,0.7,0,1.1c0,1.7,0.1,3.4,1.4,3.9
					c3.6,1.3,8.3,1.3,11.8,0c1.3-0.5,1.4-2.4,1.3-4c0-0.3,0-0.6,0-0.9C60.5,103.8,60,103.2,59.3,103.4z"/>
			</g>
			<g>
				<path class="st3" d="M81.5,59l15.4-10.1c4.1,1.7,6.1,4.9,6.2,9.4L87.9,68.3C80.7,72.9,74.2,63.8,81.5,59z"/>
				<path class="st4" d="M102.4,44.9c2.8-3.1,5.7-3.7,5.2,0.3c1.4-1.2,5-2.6,6.5-0.3c2.9,4.6-2.1,8.9-8.2,10.3
					C102.2,56,97.5,50.2,102.4,44.9z"/>
				<path class="st5" d="M102.7,58.5c-1.1-3.3-4.1-7.6-6.1-9.3c-0.6-0.5-0.1-1.2,0.3-1.5c1.3-0.9,2.7-1.7,3.7-0.9
					c2.8,2.2,5.2,5.8,5.9,9.1c0.3,1.2-1.1,2.2-2.3,3C103.6,59.2,102.9,59.1,102.7,58.5z"/>
			</g>
			<g>
				<ellipse class="st6" cx="60.1" cy="75.1" rx="29.1" ry="25.1"/>
				<path class="st4" d="M81.1,92.5C68.6,98,51.7,98,39,92.4c-2.4-2.2-4.3-4.7-5.7-7.5c15.1,9.6,38.6,9.6,53.6,0
					C85.5,87.7,83.6,90.3,81.1,92.5z"/>
				<path class="st7" d="M60.1,89.9H63c0.7,0,1.3,0.3,1.8,0.7l0,0c0.5,0.5,0.7,1.1,0.7,1.8v3.6c0,0.7-0.3,1.3-0.7,1.8l0,0
					c-0.5,0.5-1.1,0.7-1.8,0.7h-2.9v-2.2H63c0.1,0,0.2,0,0.3-0.1l0,0c0.1-0.1,0.1-0.2,0.1-0.3v-3.6c0-0.1,0-0.2-0.1-0.3l0,0
					c-0.1-0.1-0.2-0.1-0.3-0.1h-2.9V89.9z M57.2,89.9h2.9v2.2h-2.9c-0.1,0-0.2,0-0.3,0.1l0,0c-0.1,0.1-0.1,0.2-0.1,0.3v3.6
					c0,0.1,0,0.2,0.1,0.3l0,0c0.1,0.1,0.2,0.1,0.3,0.1h2.9v2.2h-2.9c-0.7,0-1.3-0.3-1.8-0.7l0,0c-0.5-0.5-0.7-1.1-0.7-1.8v-3.6
					c0-0.7,0.3-1.3,0.7-1.8l0,0C55.9,90.2,56.5,89.9,57.2,89.9z"/>
			</g>
			<g>
				<ellipse class="st5" cx="60.1" cy="49" rx="33.3" ry="20.1"/>
				<path class="st5" d="M39.9,61.6c7.2,0,13.1-5.4,13.1-12.1s-5.9-12.1-13.1-12.1s-13.1,5.4-13.1,12.1S32.7,61.6,39.9,61.6z"/>
				<ellipse class="st8" cx="60.1" cy="46.2" rx="23.5" ry="20.4"/>
				<g>
					<ellipse class="st5" cx="49.2" cy="56.3" rx="13.9" ry="12.1"/>
					<path class="st5" d="M71,68.4c7.7,0,13.9-5.4,13.9-12.1c0-6.7-6.2-12.1-13.9-12.1c-7.7,0-13.9,5.4-13.9,12.1
						C57.1,63,63.3,68.4,71,68.4z"/>
				</g>
				<path class="st5" d="M41.9,80.1C49.1,80.1,55,74.2,55,67s-5.9-13.2-13.1-13.2S28.8,59.7,28.8,67S34.7,80.1,41.9,80.1z"/>
				<path class="st5" d="M78.3,80.1c7.2,0,13.1-5.9,13.1-13.2s-5.9-13.2-13.1-13.2S65.2,59.7,65.2,67S71.1,80.1,78.3,80.1z"/>
				<path class="st5" d="M55.3,85.2c7.2,0,13.1-5.9,13.1-13.2c0-7.3-5.9-13.2-13.1-13.2c-7.2,0-13.1,5.9-13.1,13.2
					C42.2,79.3,48.1,85.2,55.3,85.2z"/>
				<path class="st9" d="M47.4,40.3c-0.1,0.3-0.4,0.4-0.7,0.3c-0.3-0.1-0.4-0.4-0.3-0.7c0.2-0.4,0.5-0.8,0.9-1.1
					c0.7-0.5,1.8-0.8,3-0.9c1.1-0.1,2.3,0,3.3,0.4c0.6,0.3,1.2,0.6,1.5,1.2c0.2,0.2,0.1,0.5-0.1,0.7c-0.2,0.2-0.5,0.1-0.7-0.1
					c-0.2-0.3-0.6-0.6-1.1-0.8c-0.8-0.3-1.8-0.4-2.8-0.3c-1,0.1-1.9,0.4-2.5,0.8C47.7,39.9,47.5,40.1,47.4,40.3z"/>
				<circle class="st10" cx="60.1" cy="45.8" r="6.4"/>
				<path class="st5" d="M70.6,33.1c-3.2-0.9-6.2-0.5-6.6,1.1c-0.4,1.5,2.8,0.8,6,1.7c3.2,0.9,5.2,3.2,5.6,1.7
					C76,36.1,73.8,34.1,70.6,33.1z"/>
				<path class="st5" d="M50,33.1c3.2-0.9,6.2-0.5,6.6,1.1c0.4,1.5-2.8,0.8-6,1.7c-3.2,0.9-5.2,3.2-5.6,1.7
					C44.6,36.1,46.8,34.1,50,33.1z"/>
				<path class="st11" d="M54,53.3c-0.1-0.2-0.1-0.5,0.2-0.7c0.2-0.1,0.5-0.1,0.7,0.2c0.2,0.4,0.6,0.7,1.1,1c1.1,0.6,2.6,1,4.1,1
					c1.5,0,3-0.3,4.1-0.9c0.5-0.3,0.8-0.7,1.1-1.1c0.1-0.2,0.4-0.3,0.7-0.2c0.2,0.1,0.3,0.4,0.2,0.7c-0.3,0.6-0.8,1.1-1.4,1.4
					c-1.2,0.8-3,1.1-4.6,1.1c-1.7,0-3.4-0.4-4.6-1.2C54.9,54.3,54.4,53.8,54,53.3z"/>
				<path class="st6" d="M79.1,22.5C76.9,6.8,68.9-6.2,50.4,3.1c-18.5,9.3-25.2,14.2-7.2,15.5C61,20,66.7,22.9,79.1,22.5z"/>
				<path class="st3" d="M47.5,18.6C47.3,15.2,53,7.3,60,7.6C66.9,7.9,52.8,7,47.5,18.6z"/>
				<path class="st5" d="M32.5,22.9c5.3,0,9.6-4.3,9.6-9.6c0-5.3-4.3-9.6-9.6-9.6c-5.3,0-9.6,4.3-9.6,9.6
					C22.9,18.6,27.2,22.9,32.5,22.9z"/>
				<path class="st5" d="M60.1,13.2c14.5,0,26.3,10.2,26.3,22.8c0,2.9-0.6,5.7-1.8,8.3c-3.8-8.5-13.4-14.6-24.5-14.6
					c-11.2,0-20.7,6-24.5,14.6c-1.1-2.6-1.8-5.3-1.8-8.3C33.8,23.4,45.6,13.2,60.1,13.2z"/>
				<path class="st12" d="M57.9,44.6c1,0,1.7-0.8,1.7-1.7c0-1-0.8-1.7-1.7-1.7c-1,0-1.7,0.8-1.7,1.7C56.2,43.8,57,44.6,57.9,44.6z"
					/>
				<path class="st9" d="M74.1,39.9c0.1,0.3,0,0.5-0.3,0.7c-0.3,0.1-0.5,0-0.7-0.3c-0.1-0.2-0.3-0.4-0.6-0.6
					c-0.6-0.4-1.5-0.7-2.5-0.8c-1-0.1-2,0-2.8,0.3c-0.5,0.2-0.8,0.5-1.1,0.8c-0.2,0.2-0.5,0.3-0.7,0.1c-0.2-0.2-0.3-0.5-0.1-0.7
					c0.4-0.5,0.9-0.9,1.5-1.2c0.9-0.4,2.1-0.5,3.3-0.4c1.1,0.1,2.2,0.4,3,0.9C73.6,39.2,74,39.5,74.1,39.9z"/>
			</g>
			<path class="st16" d="M11.5,44.6c14.7,72.4,84.7,73.4,96.3,1.4"/>
			<g>
				<path class="st19" d="M116.5,69.5c2.7,0.4,4.6,2.9,4.2,5.6c-0.4,2.7-2.9,4.6-5.6,4.2c-2.7-0.4-4.6-2.9-4.2-5.6
					C111.2,71,113.7,69.1,116.5,69.5z"/>
				<path class="st18" d="M116.8,67c0.3,0,0.5,0.2,0.7,0.4l0,0c0.1,0.2,0.2,0.5,0.2,0.7c0,0.3-0.2,0.5-0.4,0.7
					c-0.2,0.1-0.4,0.2-0.6,0.2v-0.5c0.1,0,0.2,0,0.3-0.1c0.1-0.1,0.2-0.2,0.2-0.3c0-0.1,0-0.3-0.1-0.4l0,0c-0.1-0.1-0.2-0.2-0.3-0.2
					c0,0,0,0-0.1,0V67C116.7,67,116.8,67,116.8,67z M116.7,69.1c0,0-0.1,0-0.1,0c-0.3,0-0.5-0.2-0.7-0.4l0,0l0,0
					c-0.2-0.2-0.2-0.5-0.2-0.8c0-0.3,0.2-0.5,0.4-0.7l0,0c0.2-0.1,0.4-0.2,0.6-0.2v0.5c-0.1,0-0.2,0-0.3,0.1l0,0
					c-0.1,0.1-0.2,0.2-0.2,0.3c0,0.1,0,0.3,0.1,0.4l0,0c0.1,0.1,0.2,0.2,0.3,0.2c0,0,0,0,0.1,0V69.1z"/>
				<path class="st5" d="M115.4,69.5c0,0.2,0.2,0.2,0.2,0c0-0.2,0.3-0.1,0.2,0c0,0.2,0.2,0.2,0.2,0c0-0.2,0.3-0.1,0.2,0
					c0,0.2,0.2,0.2,0.2,0c0-0.2,0.3-0.1,0.2,0c0,0.2,0.2,0.2,0.2,0c0-0.2,0.3-0.1,0.2,0c0,0.2,0.2,0.2,0.2,0l0.1-1
					c0-0.1,0-0.2-0.1-0.2l-1.8-0.3c-0.1,0-0.2,0-0.2,0.1L115.4,69.5z"/>
				<path class="st20" d="M116.6,70.1c0.8,0.1,1.3,0.8,1.2,1.6c-0.1,0.8-0.8,1.3-1.6,1.2c-0.8-0.1-1.3-0.8-1.2-1.6
					C115.1,70.5,115.8,69.9,116.6,70.1z"/>
			</g>
			<g>
				<path class="st17" d="M105.7,62.3c2.3-1.4,5.4-0.7,6.8,1.6c1.4,2.3,0.7,5.4-1.6,6.8c-2.3,1.4-5.4,0.7-6.8-1.6
					C102.7,66.8,103.4,63.7,105.7,62.3z"/>
				<path class="st18" d="M105,60c0.1,0,0.2,0,0.2,0l0,0c0.2,0.1,0.5,0.2,0.6,0.5c0.1,0.2,0.2,0.5,0.1,0.8c-0.1,0.3-0.2,0.5-0.5,0.6
					c-0.2,0.1-0.4,0.2-0.5,0.2v-0.5c0.1,0,0.2,0,0.3-0.1c0.1-0.1,0.2-0.2,0.2-0.3c0-0.1,0-0.3-0.1-0.4c-0.1-0.1-0.2-0.2-0.3-0.2l0,0
					c0,0-0.1,0-0.1,0V60z M104.4,60.2c0.2-0.1,0.4-0.2,0.5-0.2v0.5c-0.1,0-0.2,0-0.3,0.1c-0.1,0.1-0.2,0.2-0.2,0.3l0,0
					c0,0.1,0,0.3,0.1,0.4c0.1,0.1,0.2,0.2,0.3,0.2l0,0c0,0,0.1,0,0.1,0v0.5c-0.1,0-0.2,0-0.2,0h0l0,0c-0.3-0.1-0.5-0.2-0.6-0.5
					c-0.1-0.2-0.2-0.5-0.1-0.8l0,0C104,60.6,104.2,60.3,104.4,60.2z"/>
				<path class="st5" d="M104.9,63c0.1,0.1,0.3,0,0.2-0.1c-0.1-0.1,0.1-0.3,0.2-0.1c0.1,0.1,0.3,0,0.2-0.1c-0.1-0.1,0.1-0.3,0.2-0.1
					c0.1,0.1,0.3,0,0.2-0.1c-0.1-0.1,0.1-0.3,0.2-0.1c0.1,0.1,0.3,0,0.2-0.1c-0.1-0.1,0.1-0.3,0.2-0.1c0.1,0.1,0.3,0,0.2-0.1
					l-0.5-0.8c0-0.1-0.1-0.1-0.2-0.1l-1.6,1c-0.1,0-0.1,0.1-0.1,0.2L104.9,63z"/>
				<path class="st13" d="M105.2,64.1c0.7-0.4,1.6-0.2,2,0.5c0.4,0.7,0.2,1.6-0.5,2c-0.7,0.4-1.6,0.2-2-0.5
					C104.3,65.4,104.5,64.5,105.2,64.1z"/>
			</g>
			<g>
				<path class="st3" d="M99.5,77c2.4-1.3,5.4-0.5,6.8,1.9c1.3,2.4,0.5,5.4-1.9,6.8c-2.4,1.3-5.4,0.5-6.8-1.9
					C96.2,81.4,97.1,78.4,99.5,77z"/>
				<path class="st18" d="M98.8,74.7c0.1,0,0.2,0,0.3,0l0,0c0.2,0.1,0.5,0.2,0.6,0.5c0.1,0.2,0.2,0.5,0.1,0.8
					c-0.1,0.3-0.2,0.5-0.5,0.6c-0.2,0.1-0.3,0.1-0.5,0.1v-0.5c0.1,0,0.2,0,0.2-0.1c0.1-0.1,0.2-0.2,0.2-0.3c0-0.1,0-0.3,0-0.4
					c-0.1-0.1-0.2-0.2-0.3-0.2l0,0c0,0-0.1,0-0.1,0V74.7z M98.3,74.9c0.2-0.1,0.3-0.1,0.5-0.1v0.5c-0.1,0-0.2,0-0.2,0.1
					c-0.1,0.1-0.2,0.2-0.2,0.3l0,0c0,0.1,0,0.3,0,0.4c0.1,0.1,0.2,0.2,0.3,0.2l0,0c0,0,0.1,0,0.1,0v0.5c-0.1,0-0.2,0-0.3,0l0,0l0,0
					c-0.3-0.1-0.5-0.2-0.6-0.5c-0.1-0.2-0.2-0.5-0.1-0.8l0,0C97.8,75.2,98,75,98.3,74.9z"/>
				<path class="st5" d="M98.6,77.7c0.1,0.1,0.3,0,0.2-0.1c-0.1-0.1,0.1-0.3,0.2-0.1c0.1,0.1,0.3,0,0.2-0.1
					c-0.1-0.1,0.1-0.3,0.2-0.1c0.1,0.1,0.3,0,0.2-0.1c-0.1-0.1,0.1-0.3,0.2-0.1c0.1,0.1,0.3,0,0.2-0.1c-0.1-0.1,0.1-0.3,0.2-0.1
					c0.1,0.1,0.3,0,0.2-0.1l-0.5-0.9c0-0.1-0.1-0.1-0.2-0.1l-1.6,0.9c-0.1,0-0.1,0.1-0.1,0.2L98.6,77.7z"/>
				<path class="st6" d="M98.9,78.8c0.7-0.4,1.6-0.1,2,0.6c0.4,0.7,0.1,1.6-0.6,2c-0.7,0.4-1.6,0.1-2-0.5
					C97.9,80.1,98.2,79.2,98.9,78.8z"/>
			</g>
			<g>
				<path class="st19" d="M70.3,100.4c2.7-0.7,5.4,0.9,6,3.6c0.7,2.7-0.9,5.4-3.6,6c-2.7,0.7-5.4-0.9-6-3.6
					C66,103.8,67.6,101.1,70.3,100.4z"/>
				<path class="st18" d="M69.9,98c0.2,0,0.4,0.1,0.5,0.1l0,0c0.2,0.1,0.4,0.4,0.4,0.6c0.1,0.3,0,0.5-0.1,0.8
					c-0.1,0.2-0.4,0.4-0.6,0.5c-0.1,0-0.2,0-0.2,0v-0.5c0,0,0.1,0,0.1,0c0.1,0,0.2-0.1,0.3-0.2c0.1-0.1,0.1-0.2,0.1-0.4
					c0-0.1-0.1-0.2-0.2-0.3l0,0c-0.1,0-0.2-0.1-0.3-0.1V98z M69.7,98c0.1,0,0.2,0,0.2,0v0.5c0,0-0.1,0-0.1,0c-0.1,0-0.2,0.1-0.3,0.2
					l0,0c-0.1,0.1-0.1,0.2-0.1,0.4c0,0.1,0.1,0.2,0.2,0.3v0c0.1,0,0.2,0.1,0.3,0.1v0.5c-0.2,0-0.4-0.1-0.5-0.1l0,0l0,0
					c-0.2-0.1-0.4-0.4-0.5-0.6c-0.1-0.3,0-0.5,0.1-0.8l0,0C69.2,98.3,69.4,98.1,69.7,98z"/>
				<path class="st5" d="M69.3,100.9c0,0.2,0.3,0.1,0.2-0.1c0-0.2,0.2-0.2,0.2-0.1c0,0.2,0.3,0.1,0.2-0.1c0-0.2,0.2-0.2,0.2-0.1
					c0,0.2,0.3,0.1,0.2-0.1c0-0.2,0.2-0.2,0.2-0.1c0,0.2,0.3,0.1,0.2-0.1c0-0.2,0.2-0.2,0.2-0.1c0,0.2,0.3,0.1,0.2-0.1l-0.2-1
					c0-0.1-0.1-0.1-0.2-0.1l-1.8,0.4c-0.1,0-0.1,0.1-0.1,0.2L69.3,100.9z"/>
				<path class="st20" d="M70.7,100.9c0.8-0.2,1.6,0.3,1.8,1c0.2,0.8-0.3,1.6-1.1,1.8c-0.8,0.2-1.6-0.3-1.8-1.1
					C69.4,101.9,69.9,101.1,70.7,100.9z"/>
			</g>
			<g>
				<path class="st17" d="M86.8,91.4c2.3-1.4,5.4-0.7,6.8,1.6c1.4,2.3,0.7,5.4-1.6,6.8c-2.3,1.4-5.4,0.7-6.8-1.6
					C83.8,95.9,84.5,92.8,86.8,91.4z"/>
				<path class="st18" d="M86,89.1c0.1,0,0.2,0,0.2,0l0,0c0.2,0.1,0.5,0.2,0.6,0.5c0.1,0.2,0.2,0.5,0.1,0.8
					c-0.1,0.3-0.2,0.5-0.5,0.6c-0.2,0.1-0.4,0.2-0.5,0.2v-0.5c0.1,0,0.2,0,0.3-0.1c0.1-0.1,0.2-0.2,0.2-0.3c0-0.1,0-0.3-0.1-0.4
					c-0.1-0.1-0.2-0.2-0.3-0.2l0,0c0,0-0.1,0-0.1,0V89.1z M85.5,89.3c0.2-0.1,0.4-0.2,0.5-0.2v0.5c-0.1,0-0.2,0-0.3,0.1
					c-0.1,0.1-0.2,0.2-0.2,0.3l0,0c0,0.1,0,0.3,0.1,0.4c0.1,0.1,0.2,0.2,0.3,0.2l0,0c0,0,0.1,0,0.1,0v0.5c-0.1,0-0.2,0-0.2,0h0l0,0
					c-0.3-0.1-0.5-0.2-0.6-0.5c-0.1-0.2-0.2-0.5-0.1-0.8l0,0C85.1,89.6,85.3,89.4,85.5,89.3z"/>
				<path class="st5" d="M86,92.1c0.1,0.1,0.3,0,0.2-0.1c-0.1-0.1,0.1-0.3,0.2-0.1c0.1,0.1,0.3,0,0.2-0.1c-0.1-0.1,0.1-0.3,0.2-0.1
					c0.1,0.1,0.3,0,0.2-0.1c-0.1-0.1,0.1-0.3,0.2-0.1c0.1,0.1,0.3,0,0.2-0.1c-0.1-0.1,0.1-0.3,0.2-0.1c0.1,0.1,0.3,0,0.2-0.1
					l-0.5-0.8c0-0.1-0.1-0.1-0.2-0.1l-1.6,1c-0.1,0-0.1,0.1-0.1,0.2L86,92.1z"/>
				<path class="st13" d="M86.3,93.1c0.7-0.4,1.6-0.2,2,0.5c0.4,0.7,0.2,1.6-0.5,2c-0.7,0.4-1.6,0.2-2-0.5
					C85.4,94.4,85.6,93.6,86.3,93.1z"/>
			</g>
			<g>
				<path class="st17" d="M50.5,99.3c2.7,0.6,4.4,3.2,3.8,5.9c-0.6,2.7-3.2,4.4-5.9,3.8c-2.7-0.6-4.4-3.2-3.8-5.9
					C45.2,100.4,47.9,98.7,50.5,99.3z"/>
				<path class="st18" d="M51.1,96.9c0.3,0.1,0.5,0.2,0.6,0.4l0,0c0.1,0.2,0.2,0.5,0.1,0.7c-0.1,0.3-0.2,0.5-0.4,0.6
					c-0.2,0.1-0.4,0.2-0.5,0.2v-0.5c0.1,0,0.2,0,0.3-0.1c0.1-0.1,0.2-0.2,0.2-0.3c0-0.1,0-0.3-0.1-0.4l0,0c-0.1-0.1-0.2-0.2-0.3-0.2
					c0,0-0.1,0-0.1,0v-0.5C50.9,96.8,51,96.8,51.1,96.9z M50.9,98.9c-0.1,0-0.1,0-0.2,0c-0.3-0.1-0.5-0.2-0.6-0.4l0,0l0,0
					c-0.1-0.2-0.2-0.5-0.1-0.8c0.1-0.3,0.2-0.5,0.4-0.6l0,0c0.2-0.1,0.3-0.2,0.5-0.2v0.5c-0.1,0-0.2,0-0.3,0.1l0,0
					c-0.1,0.1-0.2,0.2-0.2,0.3c0,0.1,0,0.3,0.1,0.4l0,0c0.1,0.1,0.2,0.2,0.3,0.2c0,0,0.1,0,0.1,0V98.9z"/>
				<path class="st5" d="M49.4,99.3c0,0.2,0.2,0.2,0.2,0.1c0-0.2,0.3-0.1,0.2,0.1c0,0.2,0.2,0.2,0.2,0.1c0-0.2,0.3-0.1,0.2,0.1
					c0,0.2,0.2,0.2,0.2,0.1c0-0.2,0.3-0.1,0.2,0.1c0,0.2,0.2,0.2,0.2,0.1c0-0.2,0.3-0.1,0.2,0.1c0,0.2,0.2,0.2,0.2,0.1l0.2-1
					c0-0.1,0-0.2-0.1-0.2l-1.8-0.4c-0.1,0-0.2,0-0.2,0.1L49.4,99.3z"/>
				<path class="st13" d="M48.9,100.2c0.8,0.2,1.3,0.9,1.1,1.7c-0.2,0.8-0.9,1.3-1.7,1.1c-0.8-0.2-1.3-0.9-1.1-1.7
					C47.4,100.5,48.2,100,48.9,100.2z"/>
			</g>
			<g>
				<path class="st3" d="M33.7,90.9c2.6,0.9,4,3.7,3,6.3c-0.9,2.6-3.7,4-6.3,3c-2.6-0.9-3.9-3.7-3-6.3C28.3,91.4,31.1,90,33.7,90.9z
					"/>
				<path class="st18" d="M34.5,88.6c0.3,0.1,0.5,0.3,0.6,0.5l0,0c0.1,0.2,0.1,0.5,0,0.8c-0.1,0.3-0.3,0.5-0.5,0.6
					c-0.1,0.1-0.3,0.1-0.4,0.1V90c0.1,0,0.1,0,0.2,0c0.1-0.1,0.2-0.2,0.3-0.3c0-0.1,0-0.3,0-0.4l0,0c-0.1-0.1-0.2-0.2-0.3-0.3
					c-0.1,0-0.1,0-0.2,0v-0.5C34.3,88.5,34.4,88.5,34.5,88.6z M34.2,90.6c-0.1,0-0.2,0-0.3-0.1c-0.3-0.1-0.5-0.3-0.6-0.5l0,0h0
					c-0.1-0.2-0.1-0.5,0-0.8c0.1-0.3,0.3-0.5,0.5-0.6l0,0c0.1-0.1,0.3-0.1,0.4-0.1V89c-0.1,0-0.1,0-0.2,0l0,0
					c-0.1,0.1-0.2,0.2-0.3,0.3c0,0.1,0,0.3,0,0.4l0,0c0.1,0.1,0.2,0.2,0.3,0.3c0.1,0,0.1,0,0.2,0V90.6z"/>
				<path class="st5" d="M32.6,90.8c-0.1,0.1,0.2,0.2,0.2,0.1c0.1-0.1,0.3-0.1,0.2,0.1c-0.1,0.1,0.2,0.2,0.2,0.1
					c0.1-0.1,0.3-0.1,0.2,0.1c-0.1,0.1,0.2,0.2,0.2,0.1c0.1-0.1,0.3-0.1,0.2,0.1c-0.1,0.1,0.2,0.2,0.2,0.1c0.1-0.1,0.3-0.1,0.2,0.1
					c-0.1,0.1,0.2,0.2,0.2,0.1l0.3-0.9c0-0.1,0-0.2-0.1-0.2l-1.7-0.6c-0.1,0-0.2,0-0.2,0.1L32.6,90.8z"/>
				<path class="st6" d="M32,91.6c0.8,0.3,1.2,1.1,0.9,1.8c-0.3,0.8-1.1,1.2-1.8,0.9c-0.8-0.3-1.2-1.1-0.9-1.8
					C30.4,91.8,31.3,91.4,32,91.6z"/>
			</g>
			<g>
				<path class="st19" d="M22,77.7c2.5,1.2,3.5,4.2,2.3,6.6c-1.2,2.5-4.2,3.5-6.6,2.3c-2.5-1.2-3.5-4.2-2.3-6.6
					C16.5,77.5,19.5,76.5,22,77.7z"/>
				<path class="st18" d="M23.1,75.4c0.3,0.1,0.4,0.3,0.5,0.6l0,0c0.1,0.2,0.1,0.5-0.1,0.8c-0.1,0.3-0.3,0.4-0.6,0.5
					c-0.1,0-0.2,0.1-0.3,0.1v-0.5c0.1,0,0.1,0,0.2,0c0.1,0,0.2-0.1,0.3-0.3c0.1-0.1,0.1-0.2,0-0.4l0,0c0-0.1-0.1-0.2-0.3-0.3
					c-0.1,0-0.1-0.1-0.2-0.1v-0.5C22.8,75.3,22.9,75.4,23.1,75.4z M22.6,77.4c-0.1,0-0.3,0-0.4-0.1c-0.3-0.1-0.4-0.3-0.5-0.6v0l0,0
					c-0.1-0.2-0.1-0.5,0-0.8c0.1-0.3,0.3-0.4,0.6-0.5h0c0.1,0,0.2-0.1,0.3-0.1v0.5c-0.1,0-0.1,0-0.2,0l0,0c-0.1,0-0.2,0.1-0.3,0.3
					c-0.1,0.1-0.1,0.3,0,0.4l0,0c0,0.1,0.1,0.2,0.3,0.3c0.1,0,0.1,0,0.2,0V77.4z"/>
				<path class="st5" d="M20.9,77.4c-0.1,0.1,0.1,0.2,0.2,0.1c0.1-0.1,0.3,0,0.2,0.1c-0.1,0.1,0.1,0.2,0.2,0.1
					c0.1-0.1,0.3,0,0.2,0.1c-0.1,0.1,0.1,0.2,0.2,0.1c0.1-0.1,0.3,0,0.2,0.1c-0.1,0.1,0.1,0.2,0.2,0.1c0.1-0.1,0.3,0,0.2,0.1
					c-0.1,0.1,0.1,0.2,0.2,0.1l0.4-0.9c0-0.1,0-0.2-0.1-0.2l-1.6-0.8c-0.1,0-0.2,0-0.2,0.1L20.9,77.4z"/>
				<path class="st20" d="M21.9,78.3c0.7,0.3,1,1.2,0.7,1.9c-0.3,0.7-1.2,1-1.9,0.7c-0.7-0.3-1-1.2-0.7-1.9
					C20.3,78.2,21.2,77.9,21.9,78.3z"/>
			</g>
			<g>
				<path class="st17" d="M14.8,62c2.3,1.5,3,4.5,1.6,6.8c-1.5,2.3-4.5,3-6.8,1.6c-2.3-1.5-3-4.5-1.6-6.8
					C9.4,61.3,12.5,60.6,14.8,62z"/>
				<path class="st18" d="M16.1,59.9c0.2,0.1,0.4,0.4,0.5,0.6l0,0c0.1,0.2,0,0.5-0.1,0.7c-0.1,0.2-0.4,0.4-0.6,0.5
					c-0.1,0-0.2,0-0.2,0v-0.5c0,0,0.1,0,0.1,0c0.1,0,0.2-0.1,0.3-0.2c0.1-0.1,0.1-0.2,0.1-0.4l0,0c0-0.1-0.1-0.2-0.2-0.3
					c-0.1-0.1-0.2-0.1-0.3-0.1v-0.5C15.8,59.8,15.9,59.8,16.1,59.9z M15.6,61.8c-0.2,0-0.4-0.1-0.5-0.2c-0.2-0.1-0.4-0.4-0.5-0.6
					l0,0l0,0c-0.1-0.3,0-0.5,0.1-0.8c0.1-0.2,0.4-0.4,0.6-0.5l0,0c0.1,0,0.2,0,0.2,0v0.5c0,0-0.1,0-0.1,0l0,0
					c-0.1,0-0.2,0.1-0.3,0.2c-0.1,0.1-0.1,0.3-0.1,0.4h0c0,0.1,0.1,0.2,0.2,0.3c0.1,0.1,0.2,0.1,0.3,0.1V61.8z"/>
				<path class="st5" d="M13.8,61.6c-0.1,0.1,0.1,0.3,0.2,0.1c0.1-0.1,0.3,0,0.2,0.1c-0.1,0.1,0.1,0.3,0.2,0.1
					c0.1-0.1,0.3,0,0.2,0.1c-0.1,0.1,0.1,0.3,0.2,0.1c0.1-0.1,0.3,0,0.2,0.1c-0.1,0.1,0.1,0.3,0.2,0.1c0.1-0.1,0.3,0,0.2,0.1
					c-0.1,0.1,0.1,0.3,0.2,0.1l0.5-0.8c0-0.1,0-0.2-0.1-0.2l-1.6-1c-0.1,0-0.2,0-0.2,0.1L13.8,61.6z"/>
				<path class="st13" d="M13,62.4c0.7,0.4,0.9,1.3,0.5,2c-0.4,0.7-1.3,0.9-2,0.5c-0.7-0.4-0.9-1.3-0.5-2
					C11.4,62.1,12.3,61.9,13,62.4z"/>
			</g>
			<g>
				<path class="st3" d="M3.8,71.3c2.7-0.6,5.3,1,6,3.7c0.6,2.7-1,5.3-3.7,6c-2.7,0.6-5.3-1-6-3.7C-0.5,74.6,1.1,71.9,3.8,71.3z"/>
				<path class="st18" d="M3.5,68.8c0.2,0,0.4,0.1,0.5,0.2l0,0c0.2,0.1,0.4,0.4,0.4,0.6c0.1,0.3,0,0.5-0.1,0.8
					c-0.1,0.2-0.4,0.4-0.6,0.5c-0.1,0-0.2,0-0.2,0v-0.5c0,0,0.1,0,0.1,0c0.1,0,0.2-0.1,0.3-0.2C3.9,70,4,69.9,3.9,69.7
					c0-0.1-0.1-0.2-0.2-0.3l0,0c-0.1,0-0.2-0.1-0.3-0.1V68.8z M3.2,68.8c0.1,0,0.2,0,0.2,0v0.5c0,0-0.1,0-0.1,0
					c-0.1,0-0.2,0.1-0.3,0.2l0,0C3,69.7,2.9,69.8,3,70c0,0.1,0.1,0.2,0.2,0.3l0,0c0.1,0,0.2,0.1,0.3,0.1v0.5c-0.2,0-0.4-0.1-0.5-0.2
					l0,0l0,0c-0.2-0.1-0.4-0.4-0.5-0.6c-0.1-0.3,0-0.5,0.1-0.8l0,0C2.7,69.1,2.9,68.9,3.2,68.8z"/>
				<path class="st5" d="M2.8,71.7c0,0.2,0.3,0.1,0.2-0.1c0-0.2,0.2-0.2,0.2-0.1c0,0.2,0.3,0.1,0.2-0.1c0-0.2,0.2-0.2,0.2-0.1
					c0,0.2,0.3,0.1,0.2-0.1c0-0.2,0.2-0.2,0.2-0.1c0,0.2,0.3,0.1,0.2-0.1c0-0.2,0.2-0.2,0.2-0.1c0,0.2,0.3,0.1,0.2-0.1l-0.2-1
					c0-0.1-0.1-0.1-0.2-0.1l-1.8,0.4c-0.1,0-0.1,0.1-0.1,0.2L2.8,71.7z"/>
				<path class="st6" d="M2.8,72.8c0.8-0.2,1.6,0.3,1.7,1.1c0.2,0.8-0.3,1.6-1.1,1.7c-0.8,0.2-1.6-0.3-1.7-1.1
					C1.5,73.8,2,73,2.8,72.8z"/>
			</g>
		</g>
	</g>
</g>
<g id="DESIGNED_BY_FREEPIK">
</g>
</svg>
