<svg xmlns="http://www.w3.org/2000/svg" viewBox="0 0 32 32"><path d="M16 3c-1.094 0-2 .906-2 2 0 .063-.004.125 0 .188-4.496.82-7.719 4.093-7.719 4.093l-.25.25A3.995 3.995 0 0 0 4 9H3v2h1c1.137 0 1.457.422 1.719.938C5.977 12.44 6 12.973 6 13v5c0 1.648.543 2.996 1.5 3.844.129.117.266.215.406.312L5.625 29h20.75l-.438-1.313-1.875-5.656c.153-.11.301-.215.438-.343.93-.875 1.5-2.172 1.5-3.688v-5.031s.008-.531.25-1.031c.242-.5.535-.938 1.75-.938h1V9h-1c-.813 0-1.504.188-2.063.5l-.218-.219S22.496 6.008 18 5.187c.004-.062 0-.125 0-.187 0-1.094-.906-2-2-2zm0 4c2.41 0 4.488 1 6.031 2H9.97c1.543-1 3.62-2 6.031-2zm-8.531 4h17a.466.466 0 0 0-.032.063c-.48.984-.437 1.91-.437 1.937v5c0 1.047-.324 1.734-.844 2.219-.52.484-1.273.781-2.156.781H11c-.93 0-1.664-.223-2.156-.656C8.352 19.91 8 19.234 8 18v-5.031s0-.922-.5-1.906c-.012-.02-.02-.043-.031-.063zM16 13c-1.191 0-2.176.61-2.906 1.438-.367-.16-.668-.438-1.094-.438-1.645 0-3 1.355-3 3h2c0-.566.434-1 1-1 .273 0 .504.105.688.281l.937.907.625-1.157A1.977 1.977 0 0 1 16 15c.758 0 1.406.406 1.75 1.031l.625 1.157.938-.907A.972.972 0 0 1 20 16c.566 0 1 .434 1 1h2c0-1.645-1.355-3-3-3-.426 0-.727.277-1.094.438C18.176 13.608 17.191 13 16 13zM9.719 23H22.28l1.344 4H8.375zM16 24c-.55 0-1 .45-1 1s.45 1 1 1 1-.45 1-1-.45-1-1-1z"/></svg>