<svg xmlns="http://www.w3.org/2000/svg" viewBox="0 0 48 48"><path d="M42 16H6v1.898h1.8c.4 0 .598.403.7.602l1.102 8.8c.199 2.098 2.097 3.802 4.199 3.802h20.3c2.098 0 4-1.704 4.2-3.801l1.097-8.801c.102-.398.301-.7.704-.7h1.796z" fill="#e0f2f1"/><path d="M24 8.7C14.2 8.7 7.602 16 7.602 16H40.3c.097 0-6.5-7.3-16.301-7.3z" fill="#f44336"/><path d="M25.8 10.602h-3.6l-1.098-2.903c0-.398.199-.699.699-.699h4.5c.398 0 .699.398.5.7zM39 42H9c-1.3 0-2.3-1.3-1.898-2.602l1.796-6c.301-.796 1-1.398 1.903-1.398h26.398c.903 0 1.7.602 1.903 1.398l1.796 6C41.301 40.7 40.301 42 39 42z" fill="#f44336"/><path d="M24 34c-1.7 0-3 1.3-3 3s1.3 3 3 3 3-1.3 3-3-1.3-3-3-3zm1.8 2.102L23 38.898c-.2.204-.602.204-.898 0-.204-.199-.204-.597 0-.898l2.796-2.8c.204-.2.602-.2.903 0 .3.198.3.6 0 .902z" fill="#fff"/><path d="M36 22c-.7 0-1.3.2-1.8.602-.7-1-1.9-1.602-3.2-1.602-1.102 0-2.102.5-2.898 1.2C27.199 20.897 25.699 20 24 20c-1.7 0-3.2.898-4.102 2.2-.796-.7-1.796-1.2-2.898-1.2-1.3 0-2.5.602-3.2 1.602-.5-.403-1.1-.602-1.8-.602-1.7 0-3 1.3-3 3l1.2 3.5c.5 1.5 1.902 2.5 3.5 2.5h20.698c1.602 0 3-1 3.5-2.5L39 25c0-1.7-1.3-3-3-3z" fill="#80cbc4"/><path d="M43 16h-1.898c-1.301 0-2.403 1-2.704 2.398L37.2 27.801C37 29 35.9 30 34.7 30H13.301c-1.2 0-2.301-1-2.5-2.2l-1.2-9.402C9.302 17 8.2 16 6.899 16H5v2h1.898c.403 0 .704.398.704.7L8.8 28c.2 2.2 2.2 4 4.5 4h21.398c2.2 0 4.2-1.8 4.403-4l1.199-9.3c.097-.4.398-.802.8-.802H43z" fill="#009688"/></svg>