<svg xmlns="http://www.w3.org/2000/svg" viewBox="0 0 64 64"><path d="M19 2c-1.652 0-3 1.348-3 3v31H7.633c-.84 0-1.574.508-1.875 1.29a1.993 1.993 0 0 0 .543 2.206l24.37 21.66c.38.336.852.504 1.329.504s.95-.168 1.328-.504L57.7 39.496a1.992 1.992 0 0 0 .54-2.207A1.986 1.986 0 0 0 56.37 36H48V5c0-1.652-1.348-3-3-3zm0 2h26c.55 0 1 .45 1 1v7H18V5c0-.55.45-1 1-1zm3 2a1 1 0 0 0-1 1v2a1 1 0 1 0 2 0V7a1 1 0 0 0-1-1zm5 0a1 1 0 0 0-1 1v2a1 1 0 1 0 2 0V7a1 1 0 0 0-1-1zm5 0a1 1 0 0 0-1 1v2a1 1 0 1 0 2 0V7a1 1 0 0 0-1-1zm5 0a1 1 0 0 0-1 1v2a1 1 0 1 0 2 0V7a1 1 0 0 0-1-1zm5 0a1 1 0 0 0-1 1v2a1 1 0 1 0 2 0V7a1 1 0 0 0-1-1zm-24 8h28v23a1 1 0 0 0 1 1h9.371L32 59.66 7.633 38H17a1 1 0 0 0 1-1zm14 3a1 1 0 0 0-1 1v3h-1c-2.758 0-5 2.242-5 5v2c0 2.758 2.242 5 5 5h4c1.652 0 3 1.348 3 3v2c0 1.652-1.348 3-3 3h-1v-6a1 1 0 1 0-2 0v6h-1c-1.652 0-3-1.348-3-3a1 1 0 1 0-2 0c0 2.758 2.242 5 5 5h1v3a1 1 0 1 0 2 0v-3h1c2.758 0 5-2.242 5-5v-2c0-2.758-2.242-5-5-5h-1v-6a1 1 0 1 0-2 0v6h-1c-1.652 0-3-1.348-3-3v-2c0-1.652 1.348-3 3-3h4c1.652 0 3 1.348 3 3a1 1 0 1 0 2 0c0-2.758-2.242-5-5-5h-1v-3a1 1 0 0 0-1-1z"/></svg>