<svg xmlns="http://www.w3.org/2000/svg" viewBox="0 0 40 40"><path d="M2.125 18.5H8.5v-17h23v17h6.375L20 38.254z" fill="#98ccfd"/><path d="M31 2v17h5.746L20 37.508 3.254 19H9V2h22m1-1H8v17H1l19 21 19-21h-7z" fill="#4788c7"/><path d="M26 22h-6.555A6.5 6.5 0 0 0 20 19.36v-7.262c0-1.203.23-1.438.344-1.547.36-.367.918-.551 1.656-.551.555 0 3 .77 3 .77V7.602C24.16 7.262 23.02 7 22 7c-1.516 0-2.832.477-3.785 1.434-.95.953-1.215 2.175-1.215 3.664V15h-2v2h2v2.36c0 1.8-1.305 3.128-3 3.64v2h12z" fill="#fff"/><path d="M15 15h8v2h-8z" fill="#fff"/></svg>