<svg xmlns="http://www.w3.org/2000/svg" viewBox="0 0 64 64"><linearGradient id="a" gradientUnits="userSpaceOnUse" x1="32" y1="7.5" x2="32" y2="56.884" spreadMethod="reflect"><stop offset="0" stop-color="#1a6dff"/><stop offset="1" stop-color="#c822ff"/></linearGradient><path d="M32 55.995a4.962 4.962 0 0 1-3.392-1.331L6.963 34.457A3.045 3.045 0 0 1 6 32.239v-1.146C6 29.391 7.346 28 9 28h6.002A2.997 2.997 0 0 0 18 25.007V11.005A3.008 3.008 0 0 1 21 8h22c1.654 0 3 1.351 3 3.005v14.061A2.938 2.938 0 0 0 48.939 28H55c1.654 0 3 1.391 3 3.094v1.146c0 .838-.351 1.646-.963 2.218L35.392 54.664A4.962 4.962 0 0 1 32 55.995zM9 30c-.532 0-1 .514-1 1.094v1.146c0 .286.119.561.327.755l21.646 20.207a2.976 2.976 0 0 0 4.053 0l21.646-20.207c.209-.195.328-.471.328-.756v-1.146c0-.579-.468-1.093-1-1.093h-6.061A4.941 4.941 0 0 1 44 25.065v-14.06c0-.552-.448-1.005-1-1.005H21c-.552 0-1 .453-1 1.005v14.002A5 5 0 0 1 15.002 30H9z" fill="url(#a)"/><linearGradient id="b" gradientUnits="userSpaceOnUse" x1="51" y1="7.5" x2="51" y2="56.879" spreadMethod="reflect"><stop offset="0" stop-color="#1a6dff"/><stop offset="1" stop-color="#c822ff"/></linearGradient><path d="M54 26h-4c-1.103 0-2-.893-2-1.995V13h2v11h4v2z" fill="url(#b)"/><linearGradient id="c" gradientUnits="userSpaceOnUse" x1="13" y1="7.5" x2="13" y2="56.879" spreadMethod="reflect"><stop offset="0" stop-color="#1a6dff"/><stop offset="1" stop-color="#c822ff"/></linearGradient><path d="M14 26h-4v-2h4V13h2v11.005A1.998 1.998 0 0 1 14 26z" fill="url(#c)"/><linearGradient id="d" gradientUnits="userSpaceOnUse" x1="32" y1="19.75" x2="32" y2="38.625" spreadMethod="reflect"><stop offset="0" stop-color="#6dc7ff"/><stop offset="1" stop-color="#e6abff"/></linearGradient><path d="M38 24v-.995A3.008 3.008 0 0 0 35 20h-4c-1.654 0-3 1.351-3 3.005V29h-2v2h2v5h-2v2h12v-2h-8v-5h4v-2h-4v-5.995c0-.552.448-1.005 1-1.005h4c.552 0 1 .453 1 1.005V24h2z" fill="url(#d)"/></svg>