<svg xmlns="http://www.w3.org/2000/svg" viewBox="0 0 64 64"><path d="M3 13h56a2 2 0 0 1 2 2v36a2 2 0 0 1-2 2H3a2 2 0 0 1-2-2V15a2 2 0 0 1 2-2z" fill="#ed7899"/><path d="M3 47.95h56c1.105 0 2 .894 2 2V51a2 2 0 0 1-2 2H3a2 2 0 0 1-2-2v-1.05c0-1.106.895-2 2-2z" fill="#ed7899"/><path d="M3 47.95h56c1.105 0 2 .894 2 2V51a2 2 0 0 1-2 2H3a2 2 0 0 1-2-2v-1.05c0-1.106.895-2 2-2z" fill="#e0678f"/><path d="M36 46c-.55 0-1 .45-1 1v2c0 .55.45 1 1 1s1-.45 1-1v-2c0-.55-.45-1-1-1zm-5 0c-.55 0-1 .45-1 1v2c0 .55.45 1 1 1s1-.45 1-1v-2c0-.55-.45-1-1-1zm-5 0c-.55 0-1 .45-1 1v2c0 .55.45 1 1 1s1-.45 1-1v-2c0-.55-.45-1-1-1zm-15 0c-.55 0-1 .45-1 1v2c0 .55.45 1 1 1s1-.45 1-1v-2c0-.55-.45-1-1-1zm5 0c-.55 0-1 .45-1 1v2c0 .55.45 1 1 1s1-.45 1-1v-2c0-.55-.45-1-1-1zm5 0c-.55 0-1 .45-1 1v2c0 .55.45 1 1 1s1-.45 1-1v-2c0-.55-.45-1-1-1zM6 46c-.55 0-1 .45-1 1v2c0 .55.45 1 1 1s1-.45 1-1v-2c0-.55-.45-1-1-1zm35 0c-.55 0-1 .45-1 1v2c0 .55.45 1 1 1s1-.45 1-1v-2c0-.55-.45-1-1-1zm5 0c-.55 0-1 .45-1 1v2c0 .55.45 1 1 1s1-.45 1-1v-2c0-.55-.45-1-1-1zm5 0c-.55 0-1 .45-1 1v2c0 .55.45 1 1 1s1-.45 1-1v-2c0-.55-.45-1-1-1zm5 0c-.55 0-1 .45-1 1v2c0 .55.45 1 1 1s1-.45 1-1v-2c0-.55-.45-1-1-1z" fill="#8d6c9f"/><path d="M59 12H3a3 3 0 0 0-3 3v36a3 3 0 0 0 3 3h56a3 3 0 0 0 3-3V15a3 3 0 0 0-3-3zm1 39c0 .55-.45 1-1 1H3c-.55 0-1-.45-1-1V15c0-.55.45-1 1-1h56c.55 0 1 .45 1 1z" fill="#8d6c9f"/><path d="M14 27v-2a3 3 0 0 0-6 0v2a3 3 0 0 0 6 0zm-4 0v-2c0-.55.45-1 1-1s1 .45 1 1v2c0 .55-.45 1-1 1s-1-.45-1-1zm11 5a3 3 0 0 0-3 3v2a3 3 0 0 0 6 0v-2a3 3 0 0 0-3-3zm1 5c0 .55-.45 1-1 1s-1-.45-1-1v-2c0-.55.45-1 1-1s1 .45 1 1zm9-11h14c.55 0 1-.45 1-1s-.45-1-1-1H31c-.55 0-1 .45-1 1s.45 1 1 1zm22-2h-4c-.55 0-1 .45-1 1s.45 1 1 1h4c.55 0 1-.45 1-1s-.45-1-1-1zm-4 6h-6c-.55 0-1 .45-1 1s.45 1 1 1h6c.55 0 1-.45 1-1s-.45-1-1-1zm-18 2h8c.55 0 1-.45 1-1s-.45-1-1-1h-8c-.55 0-1 .45-1 1s.45 1 1 1zm12 4H31c-.55 0-1 .45-1 1s.45 1 1 1h12c.55 0 1-.45 1-1s-.45-1-1-1zm-32.5 3.852a1.003 1.003 0 0 0 1.379-.32l10-16a1.002 1.002 0 1 0-1.7-1.063l-10 16a.995.995 0 0 0-.124.758.997.997 0 0 0 .445.625z" fill="#f9efde"/></svg>