<svg xmlns="http://www.w3.org/2000/svg" viewBox="0 0 50 50"><path d="M7 9c-2.758 0-5 2.242-5 5v22c0 2.758 2.242 5 5 5h36c2.758 0 5-2.242 5-5V14c0-2.758-2.242-5-5-5zm22.063 7c.128.008.25.031.375.094.492.246.714.851.468 1.343l-8 16a1.024 1.024 0 0 1-1.343.47c-.493-.247-.715-.852-.47-1.344l8-16c.188-.372.579-.586.97-.563zM20 17c1.652 0 3 1.348 3 3v1c0 1.652-1.348 3-3 3s-3-1.348-3-3v-1c0-1.652 1.348-3 3-3zm0 2c-.55 0-1 .45-1 1v1c0 .55.45 1 1 1s1-.45 1-1v-1c0-.55-.45-1-1-1zm10 7c1.652 0 3 1.348 3 3v1c0 1.652-1.348 3-3 3s-3-1.348-3-3v-1c0-1.652 1.348-3 3-3zm0 2c-.55 0-1 .45-1 1v1c0 .55.45 1 1 1s1-.45 1-1v-1c0-.55-.45-1-1-1z"/></svg>