<svg xmlns="http://www.w3.org/2000/svg" viewBox="0 0 32 32"><path d="M16 2.594l-.688.687-2.624 2.531-3.594-.5-.969-.156-.156.969-.625 3.594-3.219 1.687-.844.469.406.844L5.282 16l-1.593 3.281-.407.844.844.469 3.219 1.687.625 3.594.156.969.969-.157 3.594-.5 2.624 2.532.688.687.688-.687 2.625-2.532 3.593.5.969.157.156-.969.625-3.563 3.219-1.718.875-.469-.438-.844L26.72 16l1.593-3.281.438-.844-.875-.469-3.219-1.719-.625-3.562-.156-.969-.969.157-3.593.5-2.625-2.532zm0 2.781l2.281 2.219.344.343.5-.062 3.094-.469.562 3.125.094.469.438.25 2.78 1.5-1.374 2.813L24.5 16l.219.438 1.375 2.812-2.782 1.5-.437.25-.094.469-.562 3.125-3.094-.469-.5-.063-.344.344L16 26.625l-2.281-2.219-.344-.343-.469.062-3.125.469-.562-3.125L9.125 21l-.406-.25-2.781-1.469 1.375-2.843L7.53 16l-.218-.438-1.375-2.843 2.78-1.469.407-.25.094-.469.562-3.125 3.125.469.469.063.344-.344zM10 14v4h1v-1.656l1 .843V18h1v-4h-1v1.656l-1-.844V14zm4 0v4h3v-1h-2v-.5h1.781v-1H15V15h2v-1zm4 0v.5l1.156 3.188.157.312h.718l.469-1.344.375 1 .156.344h.688l1.25-3.313L23 14h-1v.406l-.625 1.719L21 15.094l-.188-.344h-.687l-.5 1.375L19 14.406V14z"/></svg>