<svg xmlns="http://www.w3.org/2000/svg" viewBox="0 0 64 64"><path d="M32 1.914c-.672 0-1.344.219-1.89.664l-4.58 3.707a.982.982 0 0 1-.785.211l-5.824-.926a3.019 3.019 0 0 0-3.27 1.89l-2.113 5.505a.99.99 0 0 1-.574.574L7.46 15.652a3.019 3.019 0 0 0-1.89 3.27l.925 5.824c.043.277-.031.563-.21.785L2.577 30.11a3.014 3.014 0 0 0 0 3.778l3.707 4.582a.98.98 0 0 1 .211.785l-.926 5.824a3.019 3.019 0 0 0 1.89 3.27l5.505 2.109c.265.105.473.313.574.578l2.113 5.5a3.013 3.013 0 0 0 3.27 1.89l5.824-.921c.277-.043.563.031.785.21l4.578 3.708a3.003 3.003 0 0 0 3.778 0l4.582-3.707a1 1 0 0 1 .785-.215l5.824.926a3.017 3.017 0 0 0 3.27-1.89l2.109-5.505a1.02 1.02 0 0 1 .578-.574l5.5-2.11a3.014 3.014 0 0 0 1.89-3.269l-.921-5.824a1.004 1.004 0 0 1 .21-.785l3.708-4.578a3.02 3.02 0 0 0 0-3.782l-3.707-4.578a.985.985 0 0 1-.211-.785l.922-5.824a3.014 3.014 0 0 0-1.89-3.27l-5.5-2.113a.99.99 0 0 1-.575-.574L48.348 7.46a3.023 3.023 0 0 0-3.27-1.89l-5.824.925a1.004 1.004 0 0 1-.785-.21L33.89 2.577A2.994 2.994 0 0 0 32 1.914zm0 1.996a.99.99 0 0 1 .629.223l4.582 3.71c.66.532 1.52.766 2.355.634l5.825-.926a.999.999 0 0 1 1.09.629l2.113 5.504c.3.793.93 1.418 1.722 1.722l5.504 2.114c.438.168.703.625.63 1.09l-.923 5.824a3.013 3.013 0 0 0 .63 2.355l3.71 4.582a1 1 0 0 1 0 1.258l-3.71 4.582a3.013 3.013 0 0 0-.63 2.355l.922 5.825c.074.464-.191.922-.629 1.09l-5.504 2.113a2.98 2.98 0 0 0-1.722 1.722L46.48 55.82a.999.999 0 0 1-1.09.63l-5.824-.923a3.013 3.013 0 0 0-2.355.63l-4.582 3.71a1 1 0 0 1-1.258 0l-4.582-3.71a3.01 3.01 0 0 0-1.89-.669c-.157 0-.313.012-.465.04l-5.825.921a1.003 1.003 0 0 1-1.09-.629l-2.113-5.504a2.984 2.984 0 0 0-1.722-1.722L8.18 46.48a1.008 1.008 0 0 1-.63-1.09l.927-5.824a3.02 3.02 0 0 0-.633-2.359l-3.711-4.578a1 1 0 0 1 0-1.258l3.71-4.586a2.992 2.992 0 0 0 .634-2.355l-.926-5.82a1.003 1.003 0 0 1 .629-1.09l5.504-2.114a2.98 2.98 0 0 0 1.722-1.722L17.52 8.18a1.006 1.006 0 0 1 1.09-.63l5.824.923a3.013 3.013 0 0 0 2.355-.63l4.582-3.71A.998.998 0 0 1 32 3.91zM32 11c-.55 0-1 .45-1 1v2c0 .55.45 1 1 1s1-.45 1-1v-2c0-.55-.45-1-1-1zm-5.043.688a1.05 1.05 0 0 0-.395.027.997.997 0 0 0-.707 1.223l.52 1.933a1.004 1.004 0 0 0 1.223.707c.535-.144.851-.691.71-1.223l-.523-1.933a1.003 1.003 0 0 0-.828-.735zm10.082 0a1.003 1.003 0 0 0-.828.734l-.52 1.933a1.002 1.002 0 0 0 .965 1.258c.442 0 .848-.297.969-.742l.516-1.934a.998.998 0 0 0-1.102-1.25zm-15.164 2a.998.998 0 0 0-.738 1.492l1 1.73a.999.999 0 0 0 1.363.367.997.997 0 0 0 .363-1.367l-1-1.73a.995.995 0 0 0-.988-.492zm20.25 0a.992.992 0 0 0-.988.492l-1 1.73a.997.997 0 1 0 1.726 1l1-1.73a1.002 1.002 0 0 0-.363-1.367 1.063 1.063 0 0 0-.375-.126zm-24.266 3.171a.978.978 0 0 0-.707.293.988.988 0 0 0 0 1.41l1.41 1.418a1.013 1.013 0 0 0 1.418 0 1.004 1.004 0 0 0 0-1.418l-1.418-1.41a.975.975 0 0 0-.703-.293zm28.282 0a.975.975 0 0 0-.703.293l-1.418 1.41a1.004 1.004 0 0 0 0 1.418 1.015 1.015 0 0 0 1.417 0l1.41-1.418a.988.988 0 0 0 0-1.41.978.978 0 0 0-.706-.293zM21 24c-.55 0-1 .45-1 1v10.234l-6.133-10.73a1 1 0 0 0-1.125-.473A1.003 1.003 0 0 0 12 25v14c0 .55.45 1 1 1s1-.45 1-1V28.766l6.133 10.73A1 1 0 0 0 22 39V25c0-.55-.45-1-1-1zm6 0c-.55 0-1 .45-1 1v14c0 .55.45 1 1 1h7c.55 0 1-.45 1-1s-.45-1-1-1h-6v-6h5c.55 0 1-.45 1-1s-.45-1-1-1h-5v-4h6c.55 0 1-.45 1-1s-.45-1-1-1zm12.188.016a1.005 1.005 0 0 0-1.168 1.191l3 14c.101.457.496.785.964.793a.98.98 0 0 0 .985-.758L45 31.125l2.031 8.117c.11.446.512.758.969.758h.016c.468-.008.863-.336.964-.793l3-14a1.003 1.003 0 0 0-.773-1.187 1.003 1.003 0 0 0-1.187.773l-2.098 9.785-1.953-7.82A.995.995 0 0 0 45 26c-.46 0-.86.313-.969.758l-1.957 7.82-2.094-9.789c-.09-.406-.41-.7-.792-.773zM19.27 43.73a1 1 0 0 0-.707.29l-1.41 1.417a.988.988 0 0 0 0 1.41c.19.196.449.294.706.294a.985.985 0 0 0 .703-.293l1.418-1.41a1.004 1.004 0 0 0 0-1.418 1.002 1.002 0 0 0-.71-.29zm25.46 0c-.257 0-.511.094-.71.29a1.004 1.004 0 0 0 0 1.417l1.417 1.41c.192.196.45.294.704.294a.987.987 0 0 0 .707-.293.988.988 0 0 0 0-1.41l-1.41-1.418c-.2-.196-.454-.29-.708-.29zm-3.855 2.864a.954.954 0 0 0-.375.129.997.997 0 0 0-.363 1.367l1 1.73a.995.995 0 0 0 1.363.367c.48-.277.64-.89.363-1.367l-1-1.73a1.002 1.002 0 0 0-.988-.496zm-17.75 0a.995.995 0 0 0-.988.496l-1 1.73a1.002 1.002 0 0 0 .363 1.367.999.999 0 0 0 1.363-.367l1-1.73a.997.997 0 0 0-.363-1.367 1.046 1.046 0 0 0-.375-.13zm4.078 1.8a1.003 1.003 0 0 0-.828.735l-.516 1.934a.998.998 0 1 0 1.926.515l.524-1.933a1.002 1.002 0 0 0-.711-1.223.97.97 0 0 0-.395-.027zm9.594 0a.97.97 0 0 0-.395.028 1.002 1.002 0 0 0-.71 1.223l.519 1.933a1.004 1.004 0 0 0 1.227.707.998.998 0 0 0 .703-1.222l-.516-1.934a.998.998 0 0 0-.828-.734zM32 49c-.55 0-1 .45-1 1v2c0 .55.45 1 1 1s1-.45 1-1v-2c0-.55-.45-1-1-1z"/></svg>