<svg xmlns="http://www.w3.org/2000/svg" viewBox="0 0 48 48"><path d="M6 13h36v24H6z" fill="#546e7a"/><path d="M8 15h32v19H8z" fill="#bbdefb"/><path d="M21 37h6v3h-6zm12 3H15c-2 0-2 2-2 2v1h22v-1s0-2-2-2z" fill="#455a64"/><path d="M37 26c0 .55-.45 1-1 1H12c-.55 0-1-.45-1-1v-4c0-.55.45-1 1-1h24c.55 0 1 .45 1 1z" fill="#263238"/><path d="M13 5h22v19H13z" fill="#a5d6a7"/><path d="M13 22h22v2H13z" fill="#66bb6a"/><path d="M13 5v19h2V12a5 5 0 0 0 5-5h8a5 5 0 0 0 5 5v12h2V5z" fill="#388e3c"/><path d="M26 13a1.999 1.999 0 1 1-4 0 1.999 1.999 0 1 1 4 0z" fill="#388e3c"/><path d="M13 22h2v2h-2zm20 0h2v2h-2z" fill="#2e7d32"/><path d="M24 19c5 0 6 5 6 5H18s1-5 6-5z" fill="#388e3c"/><path d="M18.813 22c-.618 1.059-.813 1.992-.813 2h12c-.004-.008-.195-.941-.813-2z" fill="#2e7d32"/></svg>