<svg xmlns="http://www.w3.org/2000/svg" viewBox="0 0 50 50"><path d="M21 7c-1.652 0-3 1.348-3 3v5c0 1.652 1.348 3 3 3h8c1.652 0 3-1.348 3-3v-5c0-1.652-1.348-3-3-3zm3 13v2H11c-2.758 0-5 2.242-5 5v3h2v-3c0-1.652 1.348-3 3-3h13v6h2v-6h13c1.652 0 3 1.348 3 3v3h2v-3c0-2.758-2.242-5-5-5H26v-2zM3 32c-1.652 0-3 1.348-3 3v5c0 1.652 1.348 3 3 3h8c1.652 0 3-1.348 3-3v-5c0-1.652-1.348-3-3-3zm18 0c-1.652 0-3 1.348-3 3v5c0 1.652 1.348 3 3 3h8c1.652 0 3-1.348 3-3v-5c0-1.652-1.348-3-3-3zm18 0c-1.652 0-3 1.348-3 3v5c0 1.652 1.348 3 3 3h8c1.652 0 3-1.348 3-3v-5c0-1.652-1.348-3-3-3z"/></svg>