<svg xmlns="http://www.w3.org/2000/svg" viewBox="0 0 50 50"><path d="M24.781 2a1.008 1.008 0 0 0-.593.281L11.563 15H2c-.523 0-1.059.184-1.438.563C.184 15.94 0 16.477 0 17v4c0 .523.184 1.059.563 1.438C.94 22.816 1.477 23 2 23h.156l5.375 17.875c.008.02.02.043.032.063.421 1.124 1.5 2.062 2.843 2.062h29c1.32 0 2.496-.84 2.844-2.094.004-.008-.004-.023 0-.031l.031-.031L47.844 23H48c.523 0 1.059-.184 1.438-.563.378-.378.562-.914.562-1.437v-4c0-.523-.184-1.059-.563-1.438C49.06 15.184 48.523 15 48 15h-9.563L25.595 2.281A.994.994 0 0 0 24.78 2zm.125 2.438L35.563 15H14.436zM2 17h35.906c.074.008.145.008.219 0H48v4h-.906a.999.999 0 0 0-.938.688l-5.812 18.625v.03c-.078.305-.48.657-.938.657h-29c-.445 0-.758-.293-.937-.75h-.031L3.843 21.719A.995.995 0 0 0 2.906 21H2zm31 5.594l-.719.687L23 32.563l-4.281-4.282-.719-.687L16.594 29l.687.719 5 5 .719.687.719-.687 10-10 .687-.719z"/></svg>