<svg xmlns="http://www.w3.org/2000/svg" viewBox="0 0 64 64"><path d="M30.3 61h-9.76a1.537 1.537 0 0 1-1.65-1.89c.481-3.13 1-6.25 1.481-9.38.832-5.28 1.664-10.558 2.488-15.84.66-4.14 1.332-8.288 2-12.43.48-3.062 22.313-5.75 25.332-3.741A10.065 10.065 0 0 1 54.54 24a17.17 17.17 0 0 1-.54 8.32 26.655 26.655 0 0 1-1.52 4.301c-2.69 5.809-5.18 5.617-6 6.55-3.27.548-7.128 1.61-10.41 1.688a3.509 3.509 0 0 0-.808.082 3.401 3.401 0 0 0-2.703 2.649c-.45 2.648-.489 2.34-.918 5-.43 2.66-.88 5.57-1.34 8.41z" fill="#ace3ff"/><path d="M19.3 54H8.54a1.552 1.552 0 0 1-1.302-.52 1.55 1.55 0 0 1-.34-1.359c.48-3.133 1-6.25 1.48-9.383.837-5.277 1.665-10.558 2.493-15.84.66-4.136 1.328-8.289 2-12.43.48-3.058 1-6.097 1.418-9.16A2.72 2.72 0 0 1 16.922 3c6.418 0 12.848-.121 19.27 0 3.48.09 7 .629 10 2.648A10.077 10.077 0 0 1 50.538 12 17.17 17.17 0 0 1 50 20.32a26.655 26.655 0 0 1-1.52 4.301c-2.69 5.809-7.43 8.82-13.601 9.879-3.27.55-6.559.281-9.84.36a3.53 3.53 0 0 0-.809.081 3.055 3.055 0 0 0-2.351 2.7c-.45 2.648-.848 5.289-1.27 7.949-.418 2.66-.847 5.57-1.308 8.41z" fill="#85cbf8"/><path d="M22 38l3.16-20 2.09-1.2s21.61-.269 23.219 1.509c0 0-1.438 10.171-9.899 14.43-8.46 4.261-15 1.71-15 1.71l-1.87.672z" fill="#7bbeeb"/><path d="M19.3 55H8.54a2.68 2.68 0 0 1-2.08-.89A2.635 2.635 0 0 1 5.91 52c.32-2.074.652-4.148 1-6.23L10.48 23c.461-2.887.918-5.773 1.372-8.66.476-3.059 1-6.102 1.418-9.16A3.713 3.713 0 0 1 16.922 2h5.668c4.469 0 9.082 0 13.629.07 3 .078 7 .48 10.511 2.809a11.015 11.015 0 0 1 4.782 6.883c.55 2.933.375 5.957-.512 8.808-.398 1.52-.93 3-1.578 4.43-2.672 5.762-7.492 9.27-14.344 10.441-2.336.329-4.7.454-7.058.368H25a3.026 3.026 0 0 0-.46 0 2.082 2.082 0 0 0-1.63 1.91c-.3 1.793-.582 3.59-.87 5.39l-.4 2.551c-.43 2.77-.878 5.559-1.34 8.41-.038.524-.476.93-1 .93zm8.95-51H16.922a1.719 1.719 0 0 0-1.672 1.422 2471.422 2471.422 0 0 1-2.8 17.828L8.86 46c-.325 2.074-.66 4.148-1 6.219a.736.736 0 0 0 .09.55.738.738 0 0 0 .562.192h9.91c.406-2.55.808-5.063 1.2-7.563l.398-2.539c.28-1.808.57-3.609.87-5.418A4.001 4.001 0 0 1 24 34c.293-.07.598-.11.898-.11H28a38.555 38.555 0 0 0 6.71-.34c6.29-1.1 10.49-4.152 12.9-9.34a25.549 25.549 0 0 0 1.46-4.14c.797-2.53.97-5.218.5-7.832a9.103 9.103 0 0 0-3.94-5.668C43.21 5 40.3 4.2 36.172 4.09 33.539 4 30.879 4 28.25 4z" fill="#8d6c9f"/><path d="M46.34 18.328h-.13a25.66 25.66 0 0 0-2.491-.18 1 1 0 1 1 0-2c1 0 1.87.09 2.691.204.55.03.973.507.942 1.058a1.01 1.01 0 0 1-1.063.942zM23 31.781h-.16A1.003 1.003 0 0 1 22 30.63c.207-1.277.41-2.559.61-3.84.421-2.629.82-5.258 1.23-7.89a3.341 3.341 0 0 1 3.281-2.797h12.457a1 1 0 1 1 0 2H27.14a1.335 1.335 0 0 0-1.3 1.109c-.41 2.629-.809 5.258-1.23 7.89-.2 1.266-.403 2.547-.61 3.84a1.001 1.001 0 0 1-1 .84zM24.879 62h-4.61a2.711 2.711 0 0 1-2.148-.871 2.784 2.784 0 0 1-.543-2.32l.742-5a1.01 1.01 0 0 1 2 .3l-.742 5a1.01 1.01 0 0 0 .082.73.936.936 0 0 0 .649.173h7.863c1.297 0 1.598-.274 1.816-1.532a517.01 517.01 0 0 0 1.782-11.289A3.471 3.471 0 0 1 35.309 44a24.2 24.2 0 0 0 8-1 13.511 13.511 0 0 0 8-6.3 20.293 20.293 0 0 0 2.543-8.9 10.302 10.302 0 0 0-1.141-5.75A6.728 6.728 0 0 0 50 19.423a1.007 1.007 0 0 1-.375-1.375c.277-.485.89-.652 1.375-.375a8.696 8.696 0 0 1 3.488 3.5A12.225 12.225 0 0 1 55.871 28a22.273 22.273 0 0 1-2.8 9.762A15.64 15.64 0 0 1 43.93 45a26.375 26.375 0 0 1-8.66 1 1.489 1.489 0 0 0-1.54 1.41c-.582 4-1.23 8-1.789 11.328C31.56 61 30.43 62 28.161 62z" fill="#8d6c9f"/><path d="M28 58c-.55 0-1-.45-1-1v-2c0-.55.45-1 1-1s1 .45 1 1v2c0 .55-.45 1-1 1zm-5 0c-.55 0-1-.45-1-1v-2c0-.55.45-1 1-1s1 .45 1 1v2c0 .55-.45 1-1 1zm-7-7c-.55 0-1-.45-1-1v-2c0-.55.45-1 1-1s1 .45 1 1v2c0 .55-.45 1-1 1zm-5 0c-.55 0-1-.45-1-1v-2c0-.55.45-1 1-1s1 .45 1 1v2c0 .55-.45 1-1 1z" fill="#8d6c9f"/></svg>