<svg xmlns="http://www.w3.org/2000/svg" viewBox="0 0 40 40"><path d="M20 38.5c-5.93 0-10.664-1.008-11.82-1.277-.336-1.145-1.617-5.852-1.672-11.418l-.008-.672-.64.199a3.466 3.466 0 0 1-1.02.152 3.32 3.32 0 0 1-2.356-.968 3.379 3.379 0 0 1 0-4.762l4.903-4.899.023-.164c.434-3.109.863-5.433.867-5.457l.047-.242-.168-.183c-.125-.141-2.972-3.399-.867-7.305 2.086.058 4.813.726 7.906 1.937l.196.079.191-.086A10.687 10.687 0 0 1 20 2.5c1.55 0 3.04.313 4.418.934l.191.086.196-.079c3.097-1.214 5.824-1.878 7.91-1.937 2.11 3.809-.848 7.273-.875 7.312l-.16.18.043.238c.004.024.441 2.348.875 5.461l.023.168 4.895 4.895a3.367 3.367 0 0 1 0 4.758 3.308 3.308 0 0 1-2.356.972 3.44 3.44 0 0 1-1.015-.152l-.641-.2-.008.673c-.059 5.628-1.336 10.285-1.676 11.418-1.152.265-5.886 1.273-11.82 1.273z" fill="#b6dcfe"/><path d="M32.418 2.016c1.648 3.367-.848 6.34-.957 6.468l-.32.368.09.476c.003.024.437 2.332.87 5.434l.047.332.235.238 4.777 4.777c.543.543.84 1.262.84 2.028 0 .761-.297 1.484-.84 2.023a2.81 2.81 0 0 1-2 .824c-.297 0-.59-.043-.87-.129l-1.282-.398-.016 1.344c-.05 5.183-1.152 9.535-1.57 11C29.926 37.133 25.488 38 20 38c-5.477 0-9.922-.867-11.422-1.2-.418-1.48-1.52-5.859-1.57-11l-.016-1.343-1.281.398a2.975 2.975 0 0 1-.867.133 2.8 2.8 0 0 1-2.004-.828A2.836 2.836 0 0 1 2 22.137c0-.766.297-1.489.84-2.028l5.02-5.02.042-.331c.434-3.094.864-5.41.868-5.434l.09-.484-.333-.367C8.5 8.44 5.922 5.516 7.59 2.016c1.984.113 4.531.757 7.422 1.89l.39.153.383-.172A10.298 10.298 0 0 1 20 3c1.48 0 2.898.3 4.215.887l.383.172.39-.153c2.895-1.133 5.446-1.781 7.43-1.89M33 1c-2.66 0-5.832.977-8.379 1.977A11.273 11.273 0 0 0 20 2a11.26 11.26 0 0 0-4.621.977C12.832 1.977 9.66 1 7 1c-2.594 4.395.785 8.145.785 8.145s-.433 2.32-.87 5.476l-4.782 4.781a3.86 3.86 0 0 0 0 5.465 3.809 3.809 0 0 0 2.707 1.121c.394 0 .789-.058 1.168-.175.062 6.539 1.777 11.832 1.777 11.832S13.043 39 20 39s12.215-1.355 12.215-1.355 1.715-5.22 1.777-11.836c.38.117.774.175 1.168.175.98 0 1.957-.367 2.707-1.117a3.86 3.86 0 0 0 0-5.465l-4.777-4.777c-.442-3.164-.875-5.484-.875-5.484S35.598 5.26 33 1z" fill="#4788c7"/><path d="M20.73 13h-1.46c-3.524.004-6.27.117-6.27 2.805C13 18.672 16.133 21 20 21s7-2.328 7-5.195c0-2.688-2.746-2.801-6.27-2.805zm10.122 25.5c-1.204 0-2.309-.441-3.11-1.242-.875-.875-1.312-2.082-1.234-3.406.082-1.344.68-2.641 1.691-3.653 1.082-1.078 2.52-1.699 3.95-1.699 1.203 0 2.308.441 3.109 1.242.875.875 1.312 2.086 1.234 3.406-.082 1.344-.68 2.641-1.691 3.653-1.082 1.082-2.52 1.699-3.95 1.699z" fill="#fff"/><path d="M32.148 29c1.07 0 2.047.39 2.754 1.098 1.625 1.625 1.422 4.472-.457 6.347-.984.989-2.297 1.555-3.593 1.555-1.07 0-2.047-.39-2.754-1.098-1.625-1.625-1.422-4.472.457-6.347.984-.989 2.297-1.555 3.593-1.555m0-1c-1.507 0-3.078.625-4.3 1.848-2.274 2.27-2.477 5.746-.457 7.761.93.934 2.172 1.391 3.46 1.391 1.508 0 3.079-.625 4.301-1.848 2.274-2.27 2.477-5.746.457-7.761-.93-.934-2.172-1.391-3.46-1.391z" fill="#4788c7"/><path d="M9.148 38.5c-1.43 0-2.867-.617-3.949-1.7-1.011-1.01-1.61-2.308-1.691-3.652-.078-1.32.36-2.53 1.234-3.406.801-.8 1.906-1.242 3.11-1.242 1.43 0 2.867.621 3.949 1.7 1.011 1.01 1.61 2.308 1.691 3.652.078 1.324-.36 2.53-1.234 3.406-.801.8-1.906 1.242-3.11 1.242z" fill="#fff"/><path d="M7.852 29c1.296 0 2.609.566 3.593 1.555 1.88 1.875 2.082 4.722.457 6.347C11.195 37.61 10.22 38 9.148 38c-1.296 0-2.609-.566-3.593-1.555-1.88-1.875-2.082-4.722-.457-6.347C5.805 29.39 6.78 29 7.852 29m0-1c-1.29 0-2.532.457-3.461 1.39-2.02 2.016-1.817 5.493.457 7.762C6.066 38.375 7.64 39 9.148 39c1.29 0 2.532-.457 3.461-1.39 2.02-2.016 1.817-5.493-.457-7.762C10.934 28.625 9.36 28 7.852 28zM27 9.5a1.5 1.5 0 1 1-3 0 1.5 1.5 0 0 1 3 0zm-11 0a1.5 1.5 0 1 1-3 0 1.5 1.5 0 0 1 3 0zm4 6L17.5 13h5z" fill="#4788c7"/></svg>