<svg xmlns="http://www.w3.org/2000/svg" viewBox="0 0 32 32"><path d="M6.031 3.906L6 4.97s-.16 3.02 1.344 5.5a15.048 15.048 0 0 0-1.032 3.781l-3.125 2.344a2.98 2.98 0 0 0-1.156 1.968 3.05 3.05 0 0 0 .563 2.25A2.992 2.992 0 0 0 5 22c.383 0 .77-.082 1.125-.219C6.059 22.171 6 22.578 6 23c0 1.273.3 2.426.875 3.344C7.449 27.262 8.379 28 9.5 28c.656 0 1.227-.266 1.719-.656 1.469.488 3.086.656 4.781.656 1.691 0 3.309-.172 4.781-.656.492.39 1.063.656 1.719.656 1.121 0 2.05-.738 2.625-1.656.574-.918.875-2.07.875-3.344 0-.422-.059-.828-.125-1.219.355.137.746.219 1.125.219.945 0 1.84-.434 2.406-1.188a3.08 3.08 0 0 0 .563-2.25 2.974 2.974 0 0 0-1.157-1.968l-3.125-2.344a15.048 15.048 0 0 0-1.03-3.781C26.16 7.989 26 4.969 26 4.969l-.031-1.063L24.906 4s-.875.094-1.968.375c-.926.238-2.032.672-3 1.344A10.938 10.938 0 0 0 16 5c-1.5 0-2.797.285-3.938.719-.968-.672-2.074-1.106-3-1.344C7.97 4.094 7.095 4 7.095 4zM8.094 6.22c.219.043.203.023.469.093.937.243 2.062.68 2.718 1.25l.469.407.594-.25C13.316 7.273 14.5 7 16 7s2.684.273 3.656.719l.594.25.469-.407c.656-.57 1.781-1.007 2.718-1.25.266-.07.25-.05.47-.093-.09 1.015-.321 2.398-1.126 3.531l-.343.5.28.531c.575 1.172.938 2.606 1.126 4.219l.031.406.344.281 3.375 2.5a.983.983 0 0 1 .406.657.987.987 0 0 1-.188.75A1.048 1.048 0 0 1 27 20a.921.921 0 0 1-.594-.188l-.843-.625-.094-.062c-.114-.105-1.055-.953-2.563-1.094A2.313 2.313 0 0 0 22.5 18c-1.121 0-2.05.738-2.625 1.656-.574.918-.875 2.07-.875 3.344 0 .965.164 1.879.5 2.656-1.031.242-2.215.344-3.5.344-1.285 0-2.469-.102-3.5-.344.336-.777.5-1.691.5-2.656 0-1.273-.3-2.426-.875-3.344C11.551 18.738 10.621 18 9.5 18c-1.75 0-2.848 1.012-2.969 1.125l-.093.063-.844.625A.929.929 0 0 1 5 20a1.06 1.06 0 0 1-.813-.406.992.992 0 0 1 .219-1.406l3.375-2.5.344-.282.031-.406c.188-1.613.551-3.047 1.125-4.219l.281-.531-.343-.5c-.805-1.133-1.035-2.516-1.125-3.531zM12.5 11a1.5 1.5 0 1 0 0 3 1.5 1.5 0 0 0 0-3zm7 0a1.5 1.5 0 1 0 0 3 1.5 1.5 0 0 0 0-3zM16 15c-1.105 0-2 .45-2 1s.895 1 2 1 2-.45 2-1-.895-1-2-1zm-6.5 5c.258 0 .574.156.906.688.332.53.594 1.375.594 2.312 0 .938-.262 1.781-.594 2.313-.332.53-.648.687-.906.687s-.574-.156-.906-.688C8.262 24.782 8 23.938 8 23c0-.938.262-1.781.594-2.313.25-.398.472-.585.687-.656.07-.008.145-.031.219-.031zm13 0c.258 0 .574.156.906.688.332.53.594 1.375.594 2.312 0 .938-.262 1.781-.594 2.313-.332.53-.648.687-.906.687s-.574-.156-.906-.688C21.262 24.782 21 23.938 21 23c0-.938.262-1.781.594-2.313.332-.53.648-.687.906-.687z"/></svg>