<svg xmlns="http://www.w3.org/2000/svg" viewBox="0 0 32 32"><path d="M11.5 3C6.812 3 3 6.813 3 11.5c0 3.988 2.766 7.336 6.477 8.246l1.757-1.762A6.496 6.496 0 0 1 5 11.5C5 7.914 7.914 5 11.5 5c3.496 0 6.344 2.773 6.484 6.234l1.762-1.757C18.832 5.766 15.488 3 11.5 3zM28 3c-.55 0-1 .45-1 1s.45 1 1 1 1-.45 1-1-.45-1-1-1zm-3 3c-.55 0-1 .45-1 1s.45 1 1 1 1-.45 1-1-.45-1-1-1zM9.703 8l-.39 3.488 1.171.301c0-.074.329-.371.954-.371.23 0 1.171-.004 1.171 1.187 0 .149-.011 1.278-1.03 1.278-.782 0-1.024-.61-1.024-.906h-1.39c-.08.671.542 2.023 2.417 2.023C13.222 15 14 13.863 14 12.672c0-.371-.063-2.3-2.172-2.3-.625 0-1.023.233-1.101.233l.148-1.488h2.906V8zM22 9c-.55 0-1 .45-1 1s.45 1 1 1 1-.45 1-1-.45-1-1-1zm-3 3c-.55 0-1 .45-1 1s.45 1 1 1 1-.45 1-1-.45-1-1-1zm3.758.313l-1.715 1.714C24.375 14.305 27 17.097 27 20.5c0 3.586-2.914 6.5-6.5 6.5-3.402 0-6.195-2.625-6.473-5.953l-1.714 1.71C13.305 26.353 16.598 29 20.5 29c4.688 0 8.5-3.813 8.5-8.5 0-3.902-2.648-7.195-6.242-8.188zM16 15c-.55 0-1 .45-1 1s.45 1 1 1 1-.45 1-1-.45-1-1-1zm5.36 2c-.25.145-1.337.75-2.86 1.14v1.032c1.121-.227 1.7-.406 1.977-.563V24H22v-7zM13 18c-.55 0-1 .45-1 1s.45 1 1 1 1-.45 1-1-.45-1-1-1zm-3 3c-.55 0-1 .45-1 1s.45 1 1 1 1-.45 1-1-.45-1-1-1zm-3 3c-.55 0-1 .45-1 1s.45 1 1 1 1-.45 1-1-.45-1-1-1zm-3 3c-.55 0-1 .45-1 1s.45 1 1 1 1-.45 1-1-.45-1-1-1z"/></svg>