<svg xmlns="http://www.w3.org/2000/svg" viewBox="0 0 16 16"><path d="M4.5 0C2.02 0 0 2.02 0 4.5S2.02 9 4.5 9c.172 0 .336-.031.5-.05v-1c-.164.023-.328.05-.5.05C2.57 8 1 6.43 1 4.5S2.57 1 4.5 1 8 2.57 8 4.5c0 .172-.027.336-.05.5h1c.019-.164.05-.328.05-.5C9 2.02 6.98 0 4.5 0zm-1 2c-.277 0-.5.223-.5.5v2c0 .277.223.5.5.5h1c.281 0 .5.219.5.5s-.219.5-.5.5H3v1h1.5C5.324 7 6 6.324 6 5.5S5.324 4 4.5 4H4V3h2V2zm9 0a.499.499 0 1 0 0 1 .499.499 0 1 0 0-1zm-2 2a.499.499 0 1 0 0 1 .499.499 0 1 0 0-1zm-2 2a.499.499 0 1 0 0 1 .499.499 0 1 0 0-1zm2 0c-.172 0-.336.031-.5.05v1c.164-.023.328-.05.5-.05 1.93 0 3.5 1.57 3.5 3.5S12.43 14 10.5 14 7 12.43 7 10.5c0-.172.027-.336.05-.5h-1c-.019.164-.05.328-.05.5 0 2.48 2.02 4.5 4.5 4.5s4.5-2.02 4.5-4.5S12.98 6 10.5 6zm-4 2a.499.499 0 1 0 0 1 .499.499 0 1 0 0-1zM10 8c0 .563-.313 1-1 1v1c.379 0 .71-.105 1-.273V13h1V8zm-5.5 2a.499.499 0 1 0 0 1 .499.499 0 1 0 0-1zm-2 2a.499.499 0 1 0 0 1 .499.499 0 1 0 0-1z"/></svg>