<svg xmlns="http://www.w3.org/2000/svg" viewBox="0 0 50 50"><path d="M24.906 3.969a.88.88 0 0 0-.093.031H10.812a.987.987 0 0 0-.437.219L4.469 9.156l-.094.063a.949.949 0 0 0-.125.094l-.031.03v.032h-.032v.063a1.302 1.302 0 0 0-.156.28A1.044 1.044 0 0 0 4 9.907a.753.753 0 0 0 0 .188V45c0 .55.45 1 1 1h40c.55 0 1-.45 1-1V10.156c.004-.05.004-.105 0-.156v-.156l-.031-.031v-.094a.466.466 0 0 0-.032-.063l-.03-.031v-.063l-.032-.03a.466.466 0 0 0-.031-.063l-.032-.031-.03-.032a.466.466 0 0 0-.032-.062l-.031-.031-.032-.032-.03-.031-.032-.031-.094-.063a.472.472 0 0 0-.062-.062l-5.844-4.875A1.006 1.006 0 0 0 39 4H25.219a.936.936 0 0 0-.313-.031zM11.375 6H24v3H7.781zM26 6h12.625l3.594 3H26zM6 11h38v33H6zm15.5 4a2.497 2.497 0 0 0-2.5 2.5c0 1.383 1.117 2.5 2.5 2.5h7c1.383 0 2.5-1.117 2.5-2.5S29.883 15 28.5 15zm0 2h7c.215 0 .5.285.5.5 0 .215-.285.5-.5.5h-7c-.215 0-.5-.285-.5-.5 0-.215.285-.5.5-.5zM31 31l-3 3h2v4h2v-4h2zm7 0l-3 3h2v4h2v-4h2zm-10 8v2h13v-2z"/></svg>