<svg xmlns="http://www.w3.org/2000/svg" viewBox="0 0 40 40"><path d="M9.5 38.5v-37h29V34c0 2.48-2.02 4.5-4.5 4.5z" fill="#fff"/><path d="M38 2v32c0 2.207-1.793 4-4 4H10V2h28m1-1H9v38h25a5 5 0 0 0 5-5z" fill="#4788c7"/><path d="M6 38.5c-2.48 0-4.5-2.02-4.5-4.5v-3.5h28V34a4.508 4.508 0 0 0 4 4.473v.027z" fill="#dff0fe"/><path d="M29 31v3c0 1.633.79 3.086 2.004 4H6c-2.207 0-4-1.793-4-4v-3h27m1-1H1v4a5 5 0 0 0 5 5h28v-1c-2.21 0-4-1.79-4-4z" fill="#4788c7"/><path d="M32.5 9.5h-12m-4 0h-1m17 5h-12m-4 0h-1m17 5h-12m-4 0h-1m17 5h-12m-4 0h-1" fill="none" stroke-linecap="round" stroke="#4788c7" stroke-miterlimit="10"/></svg>