<svg xmlns="http://www.w3.org/2000/svg" viewBox="0 0 64 64"><path d="M54 49H13l-3-28h50z" fill="#c2cde7"/><path d="M10 17h52v4H10z" fill="#f9e3ae"/><path d="M5 7a1.999 1.999 0 1 1-4 0 1.999 1.999 0 1 1 4 0z" fill="#f283a5"/><path d="M29 57c0 2.21-1.79 4-4 4s-4-1.79-4-4 1.79-4 4-4 4 1.79 4 4z" fill="#ed7899"/><path d="M27 57a1.999 1.999 0 1 1-4 0 1.999 1.999 0 1 1 4 0z" fill="#f283a5"/><path d="M49 57c0 2.21-1.79 4-4 4s-4-1.79-4-4 1.79-4 4-4 4 1.79 4 4z" fill="#ed7899"/><path d="M22 49H12l-2-28h11z" fill="#ced8ed"/><path d="M10 21v2a3 3 0 0 0 3 3h31l-2 23h12l6-28z" fill="#b5c4e0"/><path d="M47 57a1.999 1.999 0 1 1-4 0 1.999 1.999 0 1 1 4 0z" fill="#f283a5"/><path d="M15 24c-.55 0-1 .45-1 1v2c0 .55.45 1 1 1s1-.45 1-1v-2c0-.55-.45-1-1-1zm5 0c-.55 0-1 .45-1 1v2c0 .55.45 1 1 1s1-.45 1-1v-2c0-.55-.45-1-1-1zm5 0c-.55 0-1 .45-1 1v2c0 .55.45 1 1 1s1-.45 1-1v-2c0-.55-.45-1-1-1zm5 0c-.55 0-1 .45-1 1v2c0 .55.45 1 1 1s1-.45 1-1v-2c0-.55-.45-1-1-1zm9 3c0 .55.45 1 1 1s1-.45 1-1v-2c0-.55-.45-1-1-1s-1 .45-1 1zm6 1c.55 0 1-.45 1-1v-2c0-.55-.45-1-1-1s-1 .45-1 1v2c0 .55.45 1 1 1zm5 0c.55 0 1-.45 1-1v-2c0-.55-.45-1-1-1s-1 .45-1 1v2c0 .55.45 1 1 1zm5 0c.55 0 1-.45 1-1v-2c0-.55-.45-1-1-1s-1 .45-1 1v2c0 .55.45 1 1 1z" fill="#8d6c9f"/><path d="M61 16H36V3.41l6.29 6.29c.398.34.987.316 1.358-.052.368-.37.391-.96.051-1.359l-8-8a1.002 1.002 0 0 0-1.41 0l-8 8A1 1 0 0 0 27.7 9.7L34 3.41V16H10.719l-.278-3.55a7.008 7.008 0 0 0-4.492-6 3 3 0 1 0-.371 2 5.002 5.002 0 0 1 2.863 4.1l2.79 35.259a11.064 11.064 0 0 0 8.847 9.921 5 5 0 1 0 9.82.27h10.204A4.999 4.999 0 0 0 50 57a4.999 4.999 0 1 0-9.898-1H29.898a5 5 0 0 0-4.761-3.957 5 5 0 0 0-4.957 3.707A9.082 9.082 0 0 1 13.719 50h38.66a2.997 2.997 0 0 0 2.93-2.371L60.809 22H61a3 3 0 0 0 0-6zM3 8c-.55 0-1-.45-1-1s.45-1 1-1 1 .45 1 1-.45 1-1 1zm42 46a3 3 0 1 1-.002 6.002A3 3 0 0 1 45 54zm-20 0a3 3 0 1 1-.002 6.002A3 3 0 0 1 25 54zm36-34H40.059c-.551 0-1 .45-1 1s.449 1 1 1h18.703l-5.403 25.21a.999.999 0 0 1-1 .79H13.262v-.29L11.192 22H30c.55 0 1-.45 1-1s-.45-1-1-1H11l-.16-2H34v23c0 .55.45 1 1 1s1-.45 1-1V18h25c.55 0 1 .45 1 1s-.45 1-1 1z" fill="#8d6c9f"/></svg>