<svg xmlns="http://www.w3.org/2000/svg" viewBox="0 0 50 50"><path d="M6.906 0c-.21.023-.43.129-.593.281a.967.967 0 0 0-.22 1.156C6.122 1.498 9 7.301 9 12c0 2.418-.777 4.094-1.531 5.719A38.37 38.37 0 0 0 6.906 19H4c-2.207 0-4 1.793-4 4v27h50V23c0-2.207-1.793-4-4-4h-5.125c.16-.355.355-.71.531-1.063C42.196 16.36 43 14.735 43 12 43 6.824 40.031.816 39.906.562a1.052 1.052 0 0 0-.75-.562c-.32-.05-.648.055-.875.281L35.844 2.75 31.53.156c-.394-.234-.926-.199-1.25.125L27.844 2.75 23.53.156c-.394-.234-.926-.199-1.25.125L19.844 2.75 15.5.156c-.395-.234-.895-.199-1.219.125L11.844 2.75 7.5.156C7.309.043 7.117-.024 6.906 0zm8.25 2.25L19.5 4.844c.395.234.895.199 1.219-.125l2.437-2.469L27.5 4.844c.395.234.895.199 1.219-.125l2.437-2.469L35.5 4.844c.395.234.895.199 1.219-.125l1.968-2C39.532 4.699 41 8.637 41 12c0 2.266-.688 3.629-1.406 5.063C38.804 18.64 38 20.265 38 23c0 3.715 1.523 7.86 2.438 10H10.655C9.95 31.242 8 26.09 8 23c0-1.668.594-2.953 1.281-4.438C10.086 16.825 11 14.86 11 12c0-2.996-1.012-6.285-1.875-8.563L11.5 4.845c.395.234.895.199 1.219-.125zM9.312 37h31.5c.7 0 1.282.613 1.282 1.313v5.5c-.102.601-.707 1.187-1.407 1.187H9.314C8.613 45 8 44.387 8 43.687v-5.5c0-.6.613-1.187 1.313-1.187zM15 39.094c-.5 0-.906.406-.906.906v2.094c0 .5.406.906.906.906h2.094c.5 0 .906-.406.906-.906V40c0-.5-.406-.906-.906-.906zm9 0c-.5 0-.906.406-.906.906v2.094c0 .5.406.906.906.906h2.094c.5 0 .906-.406.906-.906V40c0-.5-.406-.906-.906-.906zm9 0c-.5 0-.906.406-.906.906v2.094c0 .5.406.906.906.906h2.094c.5 0 .906-.406.906-.906V40c0-.5-.406-.906-.906-.906z"/></svg>