<svg xmlns="http://www.w3.org/2000/svg" viewBox="0 0 80 80"><path d="M46 4.586L33.586 17H42v19h8V17h8.414zm0 2.828L53.586 15H48v19h-4V15h-5.586zM10 8c-2.2 0-4 1.8-4 4s1.8 4 4 4 4-1.8 4-4c0-.61-.148-1.18-.395-1.7a8.99 8.99 0 0 1 6.551 7.137l7.5 42.606c.473 2.691 2.723 4.684 5.41 4.91C32.41 65.801 32 66.852 32 68c0 2.75 2.25 5 5 5s5-2.25 5-5c0-1.129-.395-2.16-1.031-3H54.03A4.948 4.948 0 0 0 53 68c0 2.75 2.25 5 5 5s5-2.25 5-5c0-1.129-.395-2.16-1.031-3H67v-2H33.566a3.991 3.991 0 0 1-3.941-3.309L28.27 52h32a6.984 6.984 0 0 0 6.808-5.363l5.168-21.54L55 23.692V25.7l14.754 1.203-4.625 19.266A4.978 4.978 0 0 1 60.269 50H27.923l-4.738-26.902L39 24.39v-2.004l-16.176-1.325-.699-3.968A11.01 11.01 0 0 0 11.293 8zm0 2c1.117 0 2 .883 2 2s-.883 2-2 2-2-.883-2-2 .883-2 2-2zm22 36c-.55 0-1 .45-1 1s.45 1 1 1 1-.45 1-1-.45-1-1-1zm4 0c-.55 0-1 .45-1 1s.45 1 1 1 1-.45 1-1-.45-1-1-1zm4 0c-.55 0-1 .45-1 1s.45 1 1 1 1-.45 1-1-.45-1-1-1zm4 0c-.55 0-1 .45-1 1s.45 1 1 1 1-.45 1-1-.45-1-1-1zm4 0c-.55 0-1 .45-1 1s.45 1 1 1 1-.45 1-1-.45-1-1-1zm4 0c-.55 0-1 .45-1 1s.45 1 1 1 1-.45 1-1-.45-1-1-1zm4 0c-.55 0-1 .45-1 1s.45 1 1 1 1-.45 1-1-.45-1-1-1zm4 0c-.55 0-1 .45-1 1s.45 1 1 1 1-.45 1-1-.45-1-1-1zM37 65c1.668 0 3 1.332 3 3s-1.332 3-3 3-3-1.332-3-3 1.332-3 3-3zm21 0c1.668 0 3 1.332 3 3s-1.332 3-3 3-3-1.332-3-3 1.332-3 3-3zm-21 2c-.55 0-1 .45-1 1s.45 1 1 1 1-.45 1-1-.45-1-1-1zm21 0c-.55 0-1 .45-1 1s.45 1 1 1 1-.45 1-1-.45-1-1-1z"/></svg>