<svg xmlns="http://www.w3.org/2000/svg" viewBox="0 0 40 40"><polygon points="2.5,35.527 2.5,19.207 19.207,2.5 35.527,2.5 37.47,37.47" fill="#f75252"/><path d="M35.054 3l1.886 33.94L3 35.054v-15.64L19.414 3h15.64M36 2H19L2 19v17l36 2-2-36z" fill="#c74343"/><polygon points="3.145,35.563 35.562,3.145 37.47,37.47" fill="#f76d6d"/><path d="M35.126 4.289L36.94 36.94 4.289 35.126 35.126 4.289M36 2L2 36l36 2-2-36z" fill="#c74343"/><polygon points="11.268,26.569 2.729,18.979 18.979,2.729 26.569,11.268 37.089,37.089" fill="#f78f8f"/><path d="M18.957 3.457l7.181 8.079 10.039 24.642-24.641-10.039-8.079-7.181 15.5-15.501M19 2L2 19l9 8 27 11-11-27-8-9z" fill="#c74343"/><polygon points="11.5,11.5 27.043,11.5 11.5,27.043" fill="#f7a3a3"/><path d="M25.836 12L12 25.836V12h13.836m2.414-1H11v17.25L28.25 11z" fill="#c74343"/></svg>