<?xml version="1.0" encoding="utf-8"?>
<!-- Generator: Adobe Illustrator 22.0.1, SVG Export Plug-In . SVG Version: 6.00 Build 0)  -->
<svg version="1.1" xmlns="http://www.w3.org/2000/svg" xmlns:xlink="http://www.w3.org/1999/xlink" x="0px" y="0px"
	 viewBox="0 0 180.3 126.6" style="enable-background:new 0 0 180.3 126.6;" xml:space="preserve">
<style type="text/css">
	.st0{fill-rule:evenodd;clip-rule:evenodd;fill:#D4CCBA;}
	.st1{fill-rule:evenodd;clip-rule:evenodd;fill:#A89D86;}
	.st2{fill-rule:evenodd;clip-rule:evenodd;fill:#BEB5A0;}
	.st3{fill-rule:evenodd;clip-rule:evenodd;fill:#B8332E;}
	.st4{fill-rule:evenodd;clip-rule:evenodd;fill:#4D4D4D;}
	.st5{fill-rule:evenodd;clip-rule:evenodd;fill:#FFFFFF;}
	.st6{fill-rule:evenodd;clip-rule:evenodd;fill:#DB4743;}
	.st7{fill:#FFB463;}
	.st8{fill-rule:evenodd;clip-rule:evenodd;fill:#F7C8B4;}
	.st9{fill:#4D4D4D;}
	.st10{fill-rule:evenodd;clip-rule:evenodd;fill:#F1ABA1;}
	.st11{fill:#F1ABA1;}
	.st12{fill-rule:evenodd;clip-rule:evenodd;fill:#FAC2B9;}
	.st13{fill-rule:evenodd;clip-rule:evenodd;fill:#FFD67F;}
	.st14{fill-rule:evenodd;clip-rule:evenodd;fill:#E0B24E;}
	.st15{fill-rule:evenodd;clip-rule:evenodd;fill:#FFE8B5;}
	.st16{fill-rule:evenodd;clip-rule:evenodd;fill:none;stroke:#FFFFFF;stroke-width:1.1999;stroke-miterlimit:22.9256;}
	.st17{fill-rule:evenodd;clip-rule:evenodd;fill:#FFB463;}
	.st18{fill:#FFFFFF;}
	.st19{fill-rule:evenodd;clip-rule:evenodd;fill:#74AB9F;}
	.st20{fill-rule:evenodd;clip-rule:evenodd;fill:#A3D6CB;}
	.st21{fill-rule:evenodd;clip-rule:evenodd;fill:#F06358;}
	.st22{fill-rule:evenodd;clip-rule:evenodd;fill:#E6E6E6;}
	
		.st23{fill-rule:evenodd;clip-rule:evenodd;fill:none;stroke:#FFFFFF;stroke-width:0.5669;stroke-linecap:round;stroke-linejoin:round;stroke-miterlimit:22.9256;}
	.st24{fill-rule:evenodd;clip-rule:evenodd;fill:#CC271E;}
	.st25{fill-rule:evenodd;clip-rule:evenodd;fill:#E93D33;}
	.st26{fill:#A89D86;}
</style>
<g id="BACKGROUND">
</g>
<g id="OBJECTS">
	<g>
		<ellipse class="st2" cx="92" cy="115.8" rx="77.3" ry="9.9"/>
		<g>
			<g>
				<path class="st3" d="M63.3,64.7l18,4c1.6,4.1,0.7,7.8-2.4,11L61,75.8C52.7,73.8,54.7,62.8,63.3,64.7z"/>
				<path class="st4" d="M87.9,69.9c4.2-0.1,6.6,1.5,3.4,3.9c1.8,0.2,5.4,1.7,4.7,4.4c-1.3,5.3-7.8,4.7-13.1,1.3
					C79.8,77.5,80.6,70.1,87.9,69.9z"/>
				<path class="st5" d="M78.4,79.6c1.6-3.1,2.6-8.2,2.4-10.9c-0.1-0.8,0.8-0.9,1.3-0.8c1.5,0.3,3.1,0.7,3.2,2.1
					c0.4,3.5-0.6,7.7-2.4,10.6c-0.7,1.1-2.4,0.8-3.8,0.4C78.5,80.7,78,80.2,78.4,79.6z"/>
			</g>
			<g>
				<g>
					<path class="st4" d="M77.1,105.9c0.7,1,3.4,0.9,4.4,3.3c1,2.4,0.9,5.2-6.3,7.2c-6.6,1.8-8.8-1.6-9.3-5.9
						C65.5,106.3,75,102.7,77.1,105.9z"/>
					
						<rect x="58.1" y="74.8" transform="matrix(0.9193 -0.3936 0.3936 0.9193 -30.4403 32.6164)" class="st3" width="12.4" height="31.5"/>
					<path class="st5" d="M64.1,105.4c3.7-0.5,8.9-2.9,11.2-4.8c0.7-0.6,1.3,0.1,1.6,0.6c0.1,0.3,0.3,0.6,0.4,1
						c0.7,1.5,1.3,3.2,0.2,4.1c-2.8,2.6-7.1,4.4-10.9,4.6c-1.4,0.1-2.2-1.6-2.8-3.1c-0.1-0.3-0.3-0.6-0.4-0.9
						C63.1,106.3,63.3,105.5,64.1,105.4z"/>
				</g>
				<g>
					<path class="st4" d="M69.5,107.3c0.7,1,3.4,0.9,4.4,3.3c1,2.4,0.9,5.2-6.3,7.2c-6.6,1.8-8.8-1.6-9.3-5.9
						C57.9,107.7,67.4,104.1,69.5,107.3z"/>
					
						<rect x="50.5" y="76.2" transform="matrix(0.9193 -0.3936 0.3936 0.9193 -31.6078 29.749)" class="st3" width="12.4" height="31.5"/>
					<path class="st5" d="M56.5,106.9c3.7-0.5,8.9-2.9,11.2-4.8c0.7-0.6,1.3,0.1,1.6,0.6c0.1,0.3,0.3,0.6,0.4,1
						c0.7,1.5,1.3,3.2,0.2,4.1c-2.8,2.6-7.1,4.4-10.9,4.6c-1.4,0.1-2.2-1.6-2.8-3.1c-0.1-0.3-0.3-0.6-0.4-0.9
						C55.5,107.7,55.7,106.9,56.5,106.9z"/>
				</g>
			</g>
			<g>
				<path class="st6" d="M53,50.6c-15.9,2-27.5,14.7-25.8,28.4c1.7,13.8,16,23.3,31.9,21.4c15.9-2,27.5-14.7,25.8-28.4
					C83.2,58.2,69,48.6,53,50.6z"/>
				<path class="st4" d="M37.3,95.3c13.1,3.9,29.8,1.8,41.8-5.2c2.1-2.5,3.7-5.2,4.7-8.2C70.1,93.2,46.8,96,30.6,88.4
					C32.3,91,34.6,93.4,37.3,95.3z"/>
				<path class="st7" d="M70.6,87.3L68.4,88v2.2l2.5-0.7c0.1,0,0.2,0,0.3,0l0,0c0.1,0,0.1,0.1,0.1,0.2l0.4,3.6c0,0.1,0,0.2-0.1,0.3
					l0,0c-0.1,0.1-0.1,0.1-0.2,0.2l-3.1,0.9v2.2l3.3-1c0.7-0.2,1.3-0.7,1.7-1.2l0,0c0.4-0.6,0.6-1.3,0.5-2l-0.4-3.6
					c-0.1-0.7-0.4-1.2-0.9-1.6l0,0C72,87.2,71.3,87.1,70.6,87.3z M68.4,88l-3.3,1c-0.7,0.2-1.3,0.7-1.7,1.2l0,0
					c-0.4,0.6-0.6,1.3-0.5,2l0.4,3.6c0.1,0.7,0.4,1.2,0.9,1.6l0,0c0.5,0.3,1.2,0.4,1.8,0.2l2.3-0.6v-2.2l-2.5,0.7
					c-0.1,0-0.2,0-0.3,0l0,0c-0.1,0-0.1-0.1-0.1-0.2L65,91.5c0-0.1,0-0.2,0.1-0.3l0,0c0.1-0.1,0.1-0.1,0.2-0.2l3.1-0.9V88z"/>
			</g>
			<g>
				<path class="st5" d="M43.3,27.6c16.8-4.2,32.6,1.1,35.3,11.9c2.7,10.8-8.8,22.9-25.6,27.1c-16.8,4.2-32.6-1.1-35.3-11.9
					C15,44,26.5,31.8,43.3,27.6z"/>
				<path class="st8" d="M46,23.8c-11.7,2.9-19,14.2-16.3,25.1c2.7,10.9,14.4,17.4,26.2,14.4c11.7-2.9,19-14.2,16.3-25.1
					C69.4,27.3,57.7,20.9,46,23.8z"/>
				<g>
					<path class="st5" d="M63.4,38.3c-5.2,1.3-8.1,7.6-6.5,14.1c1.6,6.5,7.2,10.7,12.4,9.4c5.2-1.3,8.1-7.6,6.5-14.1
						C74.2,41.2,68.7,37,63.4,38.3z"/>
					<path class="st5" d="M42.4,43.6c9.7-2.4,18.9,0.9,20.5,7.4c1.6,6.5-4.9,13.7-14.6,16.1c-9.7,2.4-18.9-0.9-20.5-7.4
						C26.1,53.2,32.7,46,42.4,43.6z"/>
				</g>
				
					<ellipse transform="matrix(0.9702 -0.2423 0.2423 0.9702 -12.5291 18.6416)" class="st5" cx="69.5" cy="60.3" rx="13.1" ry="13.2"/>
				<path class="st5" d="M35.7,54.2c7-1.8,14.1,2.5,15.9,9.6c1.8,7.1-2.5,14.2-9.5,16c-7,1.8-14.1-2.5-15.9-9.6
					C24.4,63.1,28.7,55.9,35.7,54.2z"/>
				<path class="st5" d="M55,56.5c7-1.8,14.1,2.5,15.9,9.6c1.8,7.1-2.5,14.2-9.5,16c-7,1.8-14.1-2.5-15.9-9.6
					C43.7,65.4,48,58.3,55,56.5z"/>
				<path class="st9" d="M66.9,33.5c0.2,0.2,0.5,0.3,0.7,0.1c0.2-0.2,0.3-0.5,0.1-0.7c-0.3-0.4-0.7-0.6-1.1-0.8
					c-0.8-0.3-2-0.4-3.1-0.2c-1.1,0.2-2.2,0.6-3.1,1.2c-0.5,0.4-1,0.9-1.2,1.5c-0.1,0.3,0,0.5,0.3,0.6c0.3,0.1,0.5,0,0.6-0.3
					c0.1-0.4,0.5-0.7,0.8-1c0.7-0.5,1.7-0.9,2.6-1c1-0.1,1.9-0.1,2.6,0.1C66.5,33.1,66.7,33.3,66.9,33.5z"/>
				<path class="st10" d="M54.9,35.5c-3.4,0.9-5.5,4.3-4.7,7.8c0.9,3.4,4.3,5.5,7.8,4.7c3.4-0.9,5.5-4.3,4.7-7.8
					C61.8,36.7,58.3,34.6,54.9,35.5z"/>
				<path class="st5" d="M44.1,31.8c2.9-1.7,5.9-1.9,6.7-0.6c0.8,1.4-2.5,1.4-5.4,3.1c-2.9,1.7-4.2,4.3-5,3
					C39.5,35.9,41.2,33.5,44.1,31.8z"/>
				<path class="st5" d="M61.8,27c-3.3-0.1-6.1,1.1-6.2,2.6c-0.1,1.6,2.9,0.1,6.3,0.2c3.3,0.1,5.8,1.8,5.9,0.3
					C67.8,28.6,65.1,27.2,61.8,27z"/>
				<path class="st11" d="M64.4,47.5c0.1-0.3-0.1-0.5-0.3-0.6c-0.3-0.1-0.5,0.1-0.6,0.3c-0.1,0.4-0.4,0.9-0.8,1.3
					c-0.9,0.9-2.3,1.6-3.7,2c-1.5,0.4-3,0.5-4.2,0.1c-0.5-0.2-1-0.4-1.3-0.8c-0.2-0.2-0.5-0.2-0.7,0c-0.2,0.2-0.2,0.5,0,0.7
					c0.5,0.5,1.1,0.8,1.7,1c1.4,0.5,3.1,0.4,4.8-0.1c1.6-0.4,3.2-1.3,4.2-2.2C63.8,48.6,64.2,48.1,64.4,47.5z"/>
				<path class="st6" d="M58.6,14.2C49.9,1,37-7.3,24.3,9.1C11.6,25.4,7.7,32.8,24.5,26.2C41.2,19.7,47.6,19.8,58.6,14.2z"/>
				<path class="st3" d="M31.8,25.3C29.5,22.8,29,13.1,34.6,9C40.2,4.8,28.6,13,31.8,25.3z"/>
				<path class="st5" d="M7.2,22.3c-5.1,1.3-8.2,6.5-7,11.6c1.3,5.1,6.5,8.2,11.6,7c5.1-1.3,8.2-6.5,7-11.6
					C17.6,24.1,12.4,21,7.2,22.3z"/>
				<path class="st5" d="M41.3,11.9c-14.1,3.5-23,16.3-20,28.5c0.7,2.8,2,5.4,3.7,7.6c1.6-9.2,13.5-21.9,28.1-22.3
					c11.2-0.3,14.8,3.2,18.5,11C77.7,16.5,57,8,41.3,11.9z"/>
				<path class="st12" d="M56.8,36.9c-0.9,0.2-1.5,1.2-1.3,2.1c0.2,0.9,1.2,1.5,2.1,1.3c0.9-0.2,1.5-1.2,1.3-2.1
					C58.6,37.2,57.7,36.6,56.8,36.9z"/>
				<path class="st9" d="M41.8,39.3c0,0.3,0.1,0.5,0.4,0.6c0.3,0,0.5-0.1,0.6-0.4c0-0.2,0.2-0.5,0.4-0.7c0.5-0.5,1.3-1,2.2-1.4
					c0.9-0.3,1.9-0.5,2.8-0.4c0.5,0.1,0.9,0.2,1.2,0.5c0.2,0.2,0.5,0.2,0.7,0c0.2-0.2,0.2-0.5,0-0.7c-0.5-0.4-1.1-0.7-1.8-0.8
					c-1-0.2-2.2,0-3.3,0.4c-1.1,0.4-2,1-2.6,1.6C42.1,38.5,41.9,38.9,41.8,39.3z"/>
			</g>
			<path class="st13" d="M66.9,74.4c14.8,5,17.5,32.3,53.7,41.3s65.2-5.6,59-34.7c-7.7-36-48-47.5-66.9-23.9
				c-18.9,23.5-30.8,22.2-29.9,13C84.9,47.8,54,70.1,66.9,74.4z"/>
			<path class="st14" d="M83.2,76.6c5.4,5.3,18.4,6.4,18.2,2.3C101.1,74.7,92.3,80.9,83.2,76.6z"/>
			<path class="st14" d="M82.4,78.3c4.5,7.3,20.8,14.3,21.4,9.1C104.4,82.1,92.1,86.1,82.4,78.3z"/>
			<path class="st14" d="M81.4,80.3c1.5,6.6,11.6,15,13.7,12.3C97,89.8,86.6,88.6,81.4,80.3z"/>
			<g>
				<path class="st3" d="M53.5,72.6l18.4-1.2c2.7,3.5,2.9,7.3,0.7,11.3l-18.2,1.1C45.8,84.3,44.7,73.2,53.5,72.6z"/>
				<path class="st4" d="M78.6,70.7c4-1.3,6.9-0.9,4.4,2.3c1.8-0.3,4-0.6,4.1,2.2c0.2,5.5-4.7,8-10.7,6.2
					C72.9,80.3,71.7,73,78.6,70.7z"/>
				<path class="st5" d="M72.1,82.7c0.7-3.4,0.2-8.6-0.7-11.1c-0.3-0.8,0.5-1.1,1-1.2c1.5-0.1,3.2-0.2,3.7,1.1
					c1.3,3.3,1.6,7.6,0.7,10.8c-0.4,1.2-2.1,1.4-3.5,1.5C72.5,83.8,72,83.4,72.1,82.7z"/>
			</g>
		</g>
	</g>
</g>
<g id="DESIGNED_BY_FREEPIK">
</g>
</svg>
