<svg xmlns="http://www.w3.org/2000/svg" viewBox="0 0 40 40"><rect x="2.5" y="11" width="35" height="27.5" fill="#dbf2ff"/><path d="M37 11.5V38H3V11.5h34m1-1H2V39h36V10.5z" fill="#7496c4"/><rect x="3" y="34" width="34" height="4" fill="#b5ddf5"/><rect x="21.5" y="21.5" width="11" height="17" fill="#8bb7f0"/><path d="M32 22v16H22V22h10m1-1H21v18h12V21z" fill="#4e7ab5"/><rect x="7.5" y="21.5" width="9" height="8" fill="#8bb7f0"/><path d="M16 22v7H8v-7h8m1-1H7v9h10v-9z" fill="#4e7ab5"/><path d="M36 18.5c-1.93 0-3.5-1.57-3.5-3.5a.5.5 0 0 0-1 0c0 1.93-1.57 3.5-3.5 3.5s-3.5-1.57-3.5-3.5a.5.5 0 0 0-1 0c0 1.93-1.57 3.5-3.5 3.5s-3.5-1.57-3.5-3.5a.5.5 0 0 0-1 0c0 1.93-1.57 3.5-3.5 3.5S8.5 16.93 8.5 15a.5.5 0 0 0-1 0 3.504 3.504 0 0 1-3.845 3.484C1.886 18.314.5 16.709.5 14.828v-3.702l2.94-5.462a.502.502 0 0 0 .06-.237V3c0-.827.673-1.5 1.5-1.5h30c.827 0 1.5.673 1.5 1.5v2.427c0 .083.021.164.06.237l2.94 5.462v3.702c0 1.881-1.386 3.486-3.155 3.656A3.651 3.651 0 0 1 36 18.5z" fill="#f78f8f"/><path d="M35 2c.551 0 1 .449 1 1v2.427c0 .165.041.328.119.474L39 11.252v3.576c0 1.626-1.187 3.013-2.702 3.158A3.004 3.004 0 0 1 33 15a1 1 0 0 0-2 0c0 1.654-1.346 3-3 3s-3-1.346-3-3a1 1 0 0 0-2 0c0 1.654-1.346 3-3 3s-3-1.346-3-3a1 1 0 0 0-2 0c0 1.654-1.346 3-3 3s-3-1.346-3-3a1 1 0 0 0-2 0 3.004 3.004 0 0 1-3.298 2.986C2.187 17.841 1 16.454 1 14.828v-3.576l2.881-5.351A1 1 0 0 0 4 5.427V3c0-.551.449-1 1-1h30m0-1H5a2 2 0 0 0-2 2v2.427L0 11v3.828c0 2.089 1.527 3.955 3.607 4.153A4 4 0 0 0 8 15a4 4 0 0 0 8 0 4 4 0 0 0 8 0 4 4 0 0 0 8 0 4 4 0 0 0 4.393 3.981c2.08-.198 3.607-2.064 3.607-4.153V11l-3-5.573V3a2 2 0 0 0-2-2z" fill="#c74343"/><rect x="3" y="5" width="34" height="1" fill="#c74343"/><polygon points="1.136,11 38.864,11 36.173,6 3.827,6" fill="#f7a8a8"/><rect y="11" width="40" height="1" fill="#c74343"/><circle cx="29.5" cy="30" r="1" fill="#fff"/></svg>