<svg xmlns="http://www.w3.org/2000/svg" viewBox="0 0 80 80"><path d="M19 9c-1.094 0-2 .906-2 2v3c-1.094 0-2 .906-2 2v47.902l-1 5V71h52v-2.098l-1-5.007V16c0-1.094-.906-2-2-2v-3c0-1.094-.906-2-2-2zm0 2h42v3H19zm-2 5h46v48.094L63.98 69H16.02l.98-4.902zm13 5a1.999 1.999 0 0 0-1 3.73V28c0 6.063 4.938 11 11 11 6.063 0 11-4.938 11-11v-3.27A1.999 1.999 0 0 0 50 21a1.999 1.999 0 0 0-1 3.73V28c0 4.984-4.016 9-9 9s-9-4.016-9-9v-3.27A1.999 1.999 0 0 0 30 21zM20 63c-.55 0-1 .45-1 1s.45 1 1 1 1-.45 1-1-.45-1-1-1zm4 0c-.55 0-1 .45-1 1s.45 1 1 1 1-.45 1-1-.45-1-1-1zm4 0c-.55 0-1 .45-1 1s.45 1 1 1 1-.45 1-1-.45-1-1-1zm4 0c-.55 0-1 .45-1 1s.45 1 1 1 1-.45 1-1-.45-1-1-1zm4 0c-.55 0-1 .45-1 1s.45 1 1 1 1-.45 1-1-.45-1-1-1zm4 0c-.55 0-1 .45-1 1s.45 1 1 1 1-.45 1-1-.45-1-1-1zm4 0c-.55 0-1 .45-1 1s.45 1 1 1 1-.45 1-1-.45-1-1-1zm4 0c-.55 0-1 .45-1 1s.45 1 1 1 1-.45 1-1-.45-1-1-1zm4 0c-.55 0-1 .45-1 1s.45 1 1 1 1-.45 1-1-.45-1-1-1zm4 0c-.55 0-1 .45-1 1s.45 1 1 1 1-.45 1-1-.45-1-1-1zm4 0c-.55 0-1 .45-1 1s.45 1 1 1 1-.45 1-1-.45-1-1-1z"/></svg>