<svg xmlns="http://www.w3.org/2000/svg" viewBox="0 0 64 64"><path d="M28 0c-1.7 0-3 1.3-3 3 0 .5.102 1 .402 1.398L17.598 14H3c-1.7 0-3 1.3-3 3v6c0 1.398.898 2.5 2.102 2.902V26l4.597 25.5C7 53 8.2 54 9.7 54h44.703c1.5 0 2.7-1 3-2.5L61.801 26v-.098C63 25.5 63.902 24.398 63.902 23v-6C64 15.3 62.7 14 61 14H46.402l-7.804-9.602C38.898 4 39 3.5 39 3c0-1.7-1.3-3-3-3s-3 1.3-3 3 1.3 3 3 3c.398 0 .8-.098 1.098-.2L43.8 14H20.199l6.703-8.2c.297.102.7.2 1.098.2 1.7 0 3-1.3 3-3s-1.3-3-3-3zm0 1.602c.8 0 1.402.597 1.402 1.398 0 .8-.601 1.398-1.402 1.398-.8 0-1.402-.597-1.402-1.398 0-.8.601-1.398 1.402-1.398zm8 0c.8 0 1.402.597 1.402 1.398 0 .8-.601 1.398-1.402 1.398-.8 0-1.402-.597-1.402-1.398 0-.8.601-1.398 1.402-1.398zM3 16h13l-2.7 3.402c-.3.399-.3 1.098.102 1.399.2.199.399.199.598.199.3 0 .602-.102.8-.402L18.599 16H45.5l3.8 4.598c.2.203.5.402.798.402.203 0 .402-.098.601-.2.399-.3.5-1 .102-1.398L48 16h13c.602 0 1 .398 1 1v6c0 .602-.398 1-1 1-.5 0-.898.3-1 .8l-.2 1.2-4.5 25.2c-.1.5-.5.8-1 .8H9.7c-.5 0-.9-.3-1-.8L4.2 26H49c.602 0 1-.398 1-1s-.398-1-1-1H3c-.602 0-1-.398-1-1v-6c0-.602.398-1 1-1zm50 8c-.602 0-1 .398-1 1s.398 1 1 1h4c.602 0 1-.398 1-1s-.398-1-1-1zM9 28c-.602 0-1 .398-1 1v2c0 .602.398 1 1 1s1-.398 1-1v-2c0-.602-.398-1-1-1zm5 0c-.602 0-1 .398-1 1v2c0 .602.398 1 1 1s1-.398 1-1v-2c0-.602-.398-1-1-1zm5 0c-.602 0-1 .398-1 1v2c0 .602.398 1 1 1s1-.398 1-1v-2c0-.602-.398-1-1-1zm5 0c-.602 0-1 .398-1 1v2c0 .602.398 1 1 1s1-.398 1-1v-2c0-.602-.398-1-1-1zm5 0c-.602 0-1 .398-1 1v2c0 .602.398 1 1 1s1-.398 1-1v-2c0-.602-.398-1-1-1zm6 0c-.602 0-1 .398-1 1v2c0 .602.398 1 1 1s1-.398 1-1v-2c0-.602-.398-1-1-1zm5 0c-.602 0-1 .398-1 1v2c0 .602.398 1 1 1s1-.398 1-1v-2c0-.602-.398-1-1-1zm5 0c-.602 0-1 .398-1 1v2c0 .602.398 1 1 1s1-.398 1-1v-2c0-.602-.398-1-1-1zm5 0c-.602 0-1 .398-1 1v2c0 .602.398 1 1 1s1-.398 1-1v-2c0-.602-.398-1-1-1zm5 0c-.602 0-1 .398-1 1v2c0 .602.398 1 1 1s1-.398 1-1v-2c0-.602-.398-1-1-1zM12 48c-.602 0-1 .398-1 1s.398 1 1 1h31c.602 0 1-.398 1-1s-.398-1-1-1zm35 0c-.602 0-1 .398-1 1s.398 1 1 1h4c.602 0 1-.398 1-1s-.398-1-1-1z"/></svg>