<svg xmlns="http://www.w3.org/2000/svg" viewBox="0 0 40 40"><path d="M12.91 25.5L9.844 7.828l28.523 3.856-3.469 12.71a1.497 1.497 0 0 1-1.445 1.106z" fill="#dff0fe"/><path d="M10.453 8.418l27.281 3.684-3.316 12.16a1.003 1.003 0 0 1-.965.738H13.332L10.453 8.418M9.234 7.242L12.488 26h20.965c.902 0 1.692-.605 1.93-1.473L39 11.262z" fill="#4788c7"/><path d="M4.5 3a1.5 1.5 0 1 1-3 0 1.5 1.5 0 0 1 3 0z" fill="#dff0fe"/><path d="M3 2c.55 0 1 .45 1 1s-.45 1-1 1-1-.45-1-1 .45-1 1-1m0-1a1.999 1.999 0 1 0 0 4 1.999 1.999 0 1 0 0-4z" fill="#4788c7"/><path d="M33.5 36.5a1.999 1.999 0 1 1-4 0 1.999 1.999 0 1 1 4 0z" fill="#98ccfd"/><path d="M31.5 35a1.5 1.5 0 1 1 0 3 1.5 1.5 0 0 1 0-3m0-1a2.497 2.497 0 0 0-2.5 2.5c0 1.383 1.117 2.5 2.5 2.5s2.5-1.117 2.5-2.5-1.117-2.5-2.5-2.5z" fill="#4788c7"/><path d="M20.5 36.5a1.999 1.999 0 1 1-4 0 1.999 1.999 0 1 1 4 0z" fill="#98ccfd"/><path d="M18.5 35a1.5 1.5 0 1 1 0 3 1.5 1.5 0 0 1 0-3m0-1a2.497 2.497 0 0 0-2.5 2.5c0 1.383 1.117 2.5 2.5 2.5s2.5-1.117 2.5-2.5-1.117-2.5-2.5-2.5z" fill="#4788c7"/><path d="M18.5 21.5v-7m4 7v-7m4 7v-7m4 7v-7M3 1.5h2.117A4.305 4.305 0 0 1 9.36 5.066l4.5 25.868a4.304 4.304 0 0 0 4.239 3.566H35.5" fill="none" stroke-linecap="round" stroke="#4788c7" stroke-miterlimit="10"/></svg>