<svg xmlns="http://www.w3.org/2000/svg" viewBox="0 0 32 32"><path d="M16 4C9.937 4 5 8.938 5 15c0 3.41 1.555 6.45 4 8.469V25H7v3h18v-3h-2v-1.531c2.445-2.02 4-5.059 4-8.469 0-6.063-4.938-11-11-11zm0 2c4.98 0 9 4.02 9 9 0 2.266-.84 4.332-2.219 5.906C22.34 19.796 21.258 19 20 19c-.2 0-.344.117-.531.156C18.914 17.961 17.899 17 16.5 17c-.176 0-.332.008-.5.031v-4.437l-.281-.313L14 10.562V9h-2v1.563l-1.719 1.718-.281.313V18c-.824 0-1.582.332-2.125.875A8.855 8.855 0 0 1 7 15c0-4.98 4.02-9 9-9zm-1 1v2h2V7zm3 2v2h2V9zm3 2v2h2v-2zm-8 1.438l1 1v4.937a1.13 1.13 0 0 0 0 .281V22h-2v-8.563zM18 13v2h2v-2zm3 2v2h2v-2zm-4.5 4c.793 0 1.402.598 1.469 1.375l1.531.781A.953.953 0 0 1 20 21c.566 0 1 .434 1 1h-5v-2.906c.152-.055.328-.094.5-.094zM10 20v1.656c-.332-.3-.684-.59-.969-.937A.987.987 0 0 1 10 20z"/></svg>