<svg xmlns="http://www.w3.org/2000/svg" viewBox="0 0 40 40"><path d="M20 38.5C9.8 38.5 1.5 30.2 1.5 20S9.8 1.5 20 1.5 38.5 9.8 38.5 20 30.2 38.5 20 38.5z" fill="#98ccfd"/><path d="M20 2c9.926 0 18 8.074 18 18s-8.074 18-18 18S2 29.926 2 20 10.074 2 20 2m0-1C9.508 1 1 9.508 1 20s8.508 19 19 19 19-8.508 19-19S30.492 1 20 1z" fill="#4788c7"/><path d="M35 17.5c0 .277-.223.5-.5.5a.498.498 0 0 1-.5-.5.499.499 0 1 1 1 0zm-2-2c0 .277-.223.5-.5.5a.498.498 0 0 1-.5-.5.499.499 0 1 1 1 0zm-2-2c0 .277-.223.5-.5.5a.498.498 0 0 1-.5-.5.499.499 0 1 1 1 0zm-2-2c0 .277-.223.5-.5.5a.498.498 0 0 1-.5-.5.499.499 0 1 1 1 0zm-2-2c0 .277-.223.5-.5.5a.498.498 0 0 1-.5-.5.499.499 0 1 1 1 0zm-2-2c0 .277-.223.5-.5.5a.498.498 0 0 1-.5-.5.499.499 0 1 1 1 0zm-2-2c0 .277-.223.5-.5.5a.498.498 0 0 1-.5-.5.499.499 0 1 1 1 0zm3 0c0 .277-.223.5-.5.5a.498.498 0 0 1-.5-.5.499.499 0 1 1 1 0zm3 0c0 .277-.223.5-.5.5a.498.498 0 0 1-.5-.5.499.499 0 1 1 1 0zm2 2c0 .277-.223.5-.5.5a.498.498 0 0 1-.5-.5.499.499 0 1 1 1 0zm2 2c0 .277-.223.5-.5.5a.498.498 0 0 1-.5-.5.499.499 0 1 1 1 0zm2 2c0 .277-.223.5-.5.5a.498.498 0 0 1-.5-.5.499.499 0 1 1 1 0zm-7-4c0 .277-.223.5-.5.5a.498.498 0 0 1-.5-.5.499.499 0 1 1 1 0zm2 2c0 .277-.223.5-.5.5a.498.498 0 0 1-.5-.5.499.499 0 1 1 1 0zm2 2c0 .277-.223.5-.5.5a.498.498 0 0 1-.5-.5.499.499 0 1 1 1 0zm2 2c0 .277-.223.5-.5.5a.498.498 0 0 1-.5-.5.499.499 0 1 1 1 0zm2 2c0 .277-.223.5-.5.5a.498.498 0 0 1-.5-.5.499.499 0 1 1 1 0zm-25.5 15V10.41L14 7.637l3.5 2.773V30.5z" fill="#fff"/><path d="M14 8.273l3 2.375V30h-6V10.652l3-2.379M14 7l-4 3.168V31h8V10.168z" fill="#4788c7"/><path d="M15.5 13h-3a.498.498 0 0 1-.5-.5c0-.277.223-.5.5-.5h3a.499.499 0 1 1 0 1zm0 2h-3a.498.498 0 0 1-.5-.5c0-.277.223-.5.5-.5h3a.499.499 0 1 1 0 1zm0 2h-3a.498.498 0 0 1-.5-.5c0-.277.223-.5.5-.5h3a.499.499 0 1 1 0 1zm0 2h-3a.498.498 0 0 1-.5-.5c0-.277.223-.5.5-.5h3a.499.499 0 1 1 0 1zm0 2h-3a.498.498 0 0 1-.5-.5c0-.277.223-.5.5-.5h3a.499.499 0 1 1 0 1zm0 2h-3a.498.498 0 0 1-.5-.5c0-.277.223-.5.5-.5h3a.499.499 0 1 1 0 1zm0 2h-3a.498.498 0 0 1-.5-.5c0-.277.223-.5.5-.5h3a.499.499 0 1 1 0 1zm0 2h-3a.498.498 0 0 1-.5-.5c0-.277.223-.5.5-.5h3a.499.499 0 1 1 0 1z" fill="#4788c7"/><path d="M24 35.5a3.494 3.494 0 0 1-2.625-1.21L21 33.86l-.375.43A3.494 3.494 0 0 1 18 35.5a3.502 3.502 0 0 1-3.04-1.797l-.163-.297-.445.063c-.118.011-.23.031-.352.031a3.447 3.447 0 0 1-1.75-.488l-.25-.145-.25.145A3.447 3.447 0 0 1 10 33.5c-1.93 0-3.5-1.57-3.5-3.5s1.57-3.5 3.5-3.5a3.45 3.45 0 0 1 1.75.488l.25.145.25-.145A3.447 3.447 0 0 1 14 26.5c.703 0 1.379.207 1.96.602l.536.363.215-.613A3.497 3.497 0 0 1 20 24.5c.703 0 1.379.207 1.96.602l.536.363.215-.613A3.497 3.497 0 0 1 26 22.5c1.93 0 3.5 1.57 3.5 3.5 0 .27-.04.55-.129.887l-.172.652.7-.023.097-.012A3.5 3.5 0 0 1 33.5 31c0 1.93-1.57 3.5-3.5 3.5-.82 0-1.602-.293-2.254-.844l-.45-.383-.3.508A3.47 3.47 0 0 1 24 35.5z" fill="#dff0fe"/><path d="M26 23c1.652 0 3 1.348 3 3 0 .227-.035.469-.113.762l-.344 1.3 1.348-.046c.05-.004.097-.008.152-.016A3.005 3.005 0 0 1 33 31c0 1.652-1.348 3-3 3-.887 0-1.54-.395-1.93-.727l-.898-.761-.606 1.015A2.975 2.975 0 0 1 24 35c-.863 0-1.66-.367-2.246-1.04L21 33.103l-.754.859A2.947 2.947 0 0 1 18 35c-1.07 0-2.066-.59-2.602-1.543l-.332-.59-.671.086-.106.016A1.77 1.77 0 0 1 14 33a2.94 2.94 0 0 1-1.496-.418L12 32.289l-.504.293c-.476.277-.98.418-1.496.418-1.652 0-3-1.348-3-3s1.348-3 3-3c.516 0 1.02.14 1.496.418l.504.293.504-.293a2.948 2.948 0 0 1 3.176.094l1.074.73.43-1.226A2.995 2.995 0 0 1 20 25c.602 0 1.184.18 1.68.512l1.074.73.43-1.226A2.995 2.995 0 0 1 26 23m0-1a3.99 3.99 0 0 0-3.762 2.684 3.99 3.99 0 0 0-6 2A3.997 3.997 0 0 0 14 26c-.73 0-1.41.21-2 .555A3.961 3.961 0 0 0 10 26c-2.21 0-4 1.79-4 4s1.79 4 4 4c.73 0 1.41-.21 2-.555A3.96 3.96 0 0 0 14 34c.18 0 .352-.031.527-.055C15.211 35.165 16.504 36 18 36c1.203 0 2.266-.54 3-1.379A3.968 3.968 0 0 0 24 36c1.46 0 2.727-.793 3.426-1.965.695.594 1.59.965 2.574.965 2.21 0 4-1.79 4-4s-1.79-4-4-4c-.05 0-.098.012-.145.016.086-.328.145-.664.145-1.016 0-2.21-1.79-4-4-4z" fill="#4788c7"/><path d="M5.5 35.5h29v3h-29z" fill="#b6dcfe"/><path d="M34 36v2H6v-2h28m1-1H5v4h30z" fill="#4788c7"/><path d="M6.5 32.5h27v3h-27z" fill="#b6dcfe"/><path d="M33 33v2H7v-2h26m1-1H6v4h28z" fill="#4788c7"/></svg>