<svg xmlns="http://www.w3.org/2000/svg" viewBox="0 0 50 50"><path d="M25 2C13.453 2 4 11.453 4 23a20.804 20.804 0 0 0 6 14.688V41h30v-3c0-.098-.027-.184-.031-.281C43.727 33.914 46 28.75 46 23c0-11.547-9.453-21-21-21zm0 2c0 .55.45 1 1 1 .516 0 .918-.402.969-.906 2.61.27 5.058 1.086 7.25 2.312A.971.971 0 0 0 34 7c0 .55.45 1 1 1 .39 0 .71-.238.875-.563.684.481 1.324 1.032 1.938 1.594A.996.996 0 0 0 37 10c0 .55.45 1 1 1a.996.996 0 0 0 .969-.813c.562.614 1.113 1.254 1.593 1.938-.324.164-.562.484-.562.875 0 .55.45 1 1 1a.97.97 0 0 0 .594-.219c.265.473.492.969.718 1.469A1.017 1.017 0 0 0 42 16c0 .55.45 1 1 1 .438 1.297.762 2.629.906 4.031-.504.051-.906.453-.906.969 0 .55.45 1 1 1 0 4.816-1.742 9.152-4.688 12.5a4.948 4.948 0 0 0-3.843-2.469A3.975 3.975 0 0 0 32 31a4.57 4.57 0 0 0-.938.094c-.726-1.012-1.843-1.711-3.062-1.969V37h-2V16.594l-5-5V9a1 1 0 0 0-1.094-1.031c-.043.008-.086.02-.125.031A1.002 1.002 0 0 0 19 9v2.594l-4.906 5.219L14 37h-1.813c-.066-.059-.12-.125-.187-.188l.031-3.28a3.927 3.927 0 0 0-1.594 1.656C7.649 31.883 6 27.672 6 23 6 12.547 14.547 4 25 4zm4 2c-.55 0-1 .45-1 1s.45 1 1 1 1-.45 1-1-.45-1-1-1zm3 3c-.55 0-1 .45-1 1s.45 1 1 1 1-.45 1-1-.45-1-1-1zm-3 3c-.55 0-1 .45-1 1s.45 1 1 1 1-.45 1-1-.45-1-1-1zm6 0c-.55 0-1 .45-1 1s.45 1 1 1 1-.45 1-1-.45-1-1-1zm-3 3c-.55 0-1 .45-1 1s.45 1 1 1 1-.45 1-1-.45-1-1-1zm6 0c-.55 0-1 .45-1 1s.45 1 1 1 1-.45 1-1-.45-1-1-1zm-3 3c-.55 0-1 .45-1 1s.45 1 1 1 1-.45 1-1-.45-1-1-1zm6 0c-.55 0-1 .45-1 1s.45 1 1 1 1-.45 1-1-.45-1-1-1zm-23 1h4v2h-4zm14 2c-.55 0-1 .45-1 1s.45 1 1 1 1-.45 1-1-.45-1-1-1zm6 0c-.55 0-1 .45-1 1s.45 1 1 1 1-.45 1-1-.45-1-1-1zm-20 2h4v2h-4zm17 1c-.55 0-1 .45-1 1s.45 1 1 1 1-.45 1-1-.45-1-1-1zm6 0c-.55 0-1 .45-1 1s.45 1 1 1 1-.45 1-1-.45-1-1-1zm-23 3h4v2h-4zm20 0c-.55 0-1 .45-1 1s.45 1 1 1 1-.45 1-1-.45-1-1-1zM7 43a1 1 0 0 0-1 1v2a1 1 0 0 0 1 1h36c.555 0 1-.445 1-1v-2c0-.555-.445-1-1-1z"/></svg>