<svg xmlns="http://www.w3.org/2000/svg" viewBox="0 0 50 50"><path d="M5 5C3.348 5 2 6.348 2 8v34c0 1.652 1.348 3 3 3h40c1.652 0 3-1.348 3-3V8c0-1.652-1.348-3-3-3zm20 13c3.879 0 7 3.121 7 7s-3.121 7-7 7-7-3.121-7-7 3.121-7 7-7zm-6.188.469A8.969 8.969 0 0 0 16 25a8.969 8.969 0 0 0 2.813 6.531C13.718 29.223 10 25 10 25s3.719-4.223 8.813-6.531zm12.375 0C36.282 20.777 40 25 40 25s-3.719 4.223-8.813 6.531A8.969 8.969 0 0 0 34 25a8.969 8.969 0 0 0-2.813-6.531zM25 21c-2.207 0-4 1.793-4 4s1.793 4 4 4 4-1.793 4-4-1.793-4-4-4z"/></svg>