<svg xmlns="http://www.w3.org/2000/svg" viewBox="0 0 50 50"><path d="M6 8c-2.75 0-5 2.25-5 5v24c0 2.75 2.25 5 5 5h38c2.75 0 5-2.25 5-5V13c0-2.75-2.25-5-5-5zm0 2h38c1.668 0 3 1.332 3 3v24c0 1.668-1.332 3-3 3H6c-1.668 0-3-1.332-3-3V13c0-1.668 1.332-3 3-3zm9 4c-1.094 0-2 .906-2 2v2H8c-1.094 0-2 .906-2 2v14c0 1.094.906 2 2 2h19c1.094 0 2-.906 2-2V20c0-1.094-.906-2-2-2h-5v-2c0-1.094-.906-2-2-2zm0 2h5v2h-5zm-7 4h2v14H8zm4 0h11v14H12zm13 0h2v14h-2zm7 13c-.55 0-1 .45-1 1s.45 1 1 1 1-.45 1-1-.45-1-1-1zm3 0c-.55 0-1 .45-1 1s.45 1 1 1 1-.45 1-1-.45-1-1-1zm3 0c-.55 0-1 .45-1 1s.45 1 1 1 1-.45 1-1-.45-1-1-1zm3 0c-.55 0-1 .45-1 1s.45 1 1 1 1-.45 1-1-.45-1-1-1z"/></svg>