<svg xmlns="http://www.w3.org/2000/svg" viewBox="0 0 24 24"><path d="M18.2 10.5l.402 2.102h-1.204zM22 6v12c0 1.102-.898 2-2 2H4c-1.102 0-2-.898-2-2V6c0-1.102.898-2 2-2h16c1.102 0 2 .898 2 2zM6.5 11.898l-.5-2.5s-.2-.5-.8-.5H3s2.898.903 3.5 3zm.8 2.5l2.098-5.597H8l-1.3 4s-.098-.301-.098-.5c-.704-1.7-1.903-2.403-1.903-2.403l1.102 4.5zm4.2-5.5H10L9.2 14.5h1.402zm3.898 3.704c0-1.403-2-1.5-2-2.204 0-.296.204-.597.903-.597.5 0 1 .398 1 .398L15.6 9s-.703-.3-1.3-.3c-1.5 0-2.2.8-2.2 1.698 0 1.801 2 1.5 2 2.403 0 .199-.101.5-.902.5-.8 0-1.398-.301-1.398-.301l-.2 1.2s.5.3 1.5.3c.899.102 2.297-.7 2.297-1.898zm4.903 1.796l-1.102-5.597h-1.5l-2.3 5.597H16.8l.3-.796h1.797l.204.796z"/></svg>