<svg xmlns="http://www.w3.org/2000/svg" viewBox="0 0 64 64"><linearGradient id="a" gradientUnits="userSpaceOnUse" x1="32" y1="10.667" x2="32" y2="53.503" spreadMethod="reflect"><stop offset="0" stop-color="#1a6dff"/><stop offset="1" stop-color="#c822ff"/></linearGradient><path d="M58 52H6c-1.654 0-3-1.346-3-3V19c0-1.654 1.346-3 3-3h52c1.654 0 3 1.346 3 3v30c0 1.654-1.346 3-3 3zM6 18a1 1 0 0 0-1 1v30a1 1 0 0 0 1 1h52a1 1 0 0 0 1-1V19a1 1 0 0 0-1-1H6z" fill="url(#a)"/><linearGradient id="b" gradientUnits="userSpaceOnUse" x1="32" y1="10.667" x2="32" y2="53.503" spreadMethod="reflect"><stop offset="0" stop-color="#1a6dff"/><stop offset="1" stop-color="#c822ff"/></linearGradient><rect x="5" y="12" width="54" height="2" fill="url(#b)"/><linearGradient id="c" gradientUnits="userSpaceOnUse" x1="28.29" y1="26.5" x2="28.29" y2="42.347" spreadMethod="reflect"><stop offset="0" stop-color="#6dc7ff"/><stop offset="1" stop-color="#e6abff"/></linearGradient><polygon points="25.311,41 27.603,27 31.27,27 28.976,41" fill="url(#c)"/><linearGradient id="d" gradientUnits="userSpaceOnUse" x1="36.773" y1="26.5" x2="36.773" y2="42.347" spreadMethod="reflect"><stop offset="0" stop-color="#6dc7ff"/><stop offset="1" stop-color="#e6abff"/></linearGradient><path d="M42.274 27.565c-.727-.273-1.865-.565-3.287-.565-3.623 0-6.175 1.824-6.197 4.439-.02 1.933 1.822 3.011 3.213 3.655 1.427.659 1.907 1.08 1.9 1.669-.009.902-1.14 1.314-2.194 1.314-1.468 0-2.247-.204-3.451-.706l-.472-.214-.515 3.011c.856.375 2.44.701 4.084.718 3.854 0 6.356-1.803 6.385-4.596.014-1.53-.963-2.695-3.078-3.655-1.282-.622-2.066-1.037-2.058-1.668 0-.559.664-1.157 2.1-1.157a6.767 6.767 0 0 1 2.744.515l.329.155.497-2.915" fill="url(#d)"/><linearGradient id="e" gradientUnits="userSpaceOnUse" x1="48.06" y1="26.5" x2="48.06" y2="42.347" spreadMethod="reflect"><stop offset="0" stop-color="#6dc7ff"/><stop offset="1" stop-color="#e6abff"/></linearGradient><path d="M52 27h-3.158c-.878 0-1.534.518-1.92 1.394L41.477 41h3.85s.63-1.813.772-2.177c.421 0 4.161.083 4.696.083.109.472.446 2.094.446 2.094h3.402l-2.789-14m-4.7 9c.303-1 1.461-3.802 1.461-3.802-.022.036.301-.8.486-1.305l.248 1.191s.702 2.915.849 3.915h-3.044z" fill="url(#e)"/><linearGradient id="f" gradientUnits="userSpaceOnUse" x1="17.738" y1="26.5" x2="17.738" y2="42.347" spreadMethod="reflect"><stop offset="0" stop-color="#6dc7ff"/><stop offset="1" stop-color="#e6abff"/></linearGradient><path d="M23 27h-.586l-3.679 9.295-.427-1.803c-.025-.081-.066-.163-.095-.244l-1.235-6.023c-.222-.853-.687-1.225-1.483-1.225H9.404l-.047.397c1.451.351 2.728.88 3.862 1.521L16.643 41h4l5.476-14H23z" fill="url(#f)"/></svg>