<svg xmlns="http://www.w3.org/2000/svg" viewBox="0 0 64 64"><path d="M31.559 25.61L30.262 34l-1.434 9.219a2.2 2.2 0 0 1-2.156 1.902H24.09a2.212 2.212 0 0 1-1.64-.762 2.322 2.322 0 0 1-.52-1.84L23.25 34l1-6.559L21.68 34l-3.79 9.61a2.184 2.184 0 0 1-2 1.402h-3.492a2.203 2.203 0 0 1-2.117-1.692L8 34l-1.512-6a1.46 1.46 0 0 0-.707-1 17.564 17.564 0 0 0-3.883-1.55 1.21 1.21 0 0 1 .372-2.38h7.652a3.17 3.17 0 0 1 3.387 2.692l1.472 8 3.48-10.14a.996.996 0 0 1 1-.68h4.65a.993.993 0 0 1 .773.347.995.995 0 0 1 .226.82v.243a2.165 2.165 0 0 1 2-1.391h2.57a2.158 2.158 0 0 1 1.649.758c.414.539.57 1.23.43 1.89zM63 42.422L61.29 34l-1.83-9.191A2.21 2.21 0 0 0 57.32 23h-3A3.31 3.31 0 0 0 51 25.129L47.512 34l-1.621 4v-.469A5.828 5.828 0 0 0 44.738 34a11.931 11.931 0 0 0-3.879-3c-.71-.398-1.91-1.078-1.91-1.398 0-.32 1-.692 2-.692a8.718 8.718 0 0 1 2.473.371c.2.067.414.102.629.098a2.154 2.154 0 0 0 2.12-1.84l.298-1.8a2.2 2.2 0 0 0-1.528-2.5 14.017 14.017 0 0 0-3.77-.579c-3.23 0-9.343 1.602-9.343 7.66a5.55 5.55 0 0 0 1.3 3.68 11.723 11.723 0 0 0 3.474 2.559c1.078.613 2.109 1.18 2.109 1.742 0 .73-1.492.918-2.36.918a9.153 9.153 0 0 1-3.171-.578 2.035 2.035 0 0 0-.82-.16 2.168 2.168 0 0 0-2.13 1.828l-.308 1.882a2.206 2.206 0 0 0 1.437 2.457c1.61.551 3.301.829 5 .82 2.532 0 5.88-.917 7.86-3.198a2.27 2.27 0 0 0 .312 1.89 2.18 2.18 0 0 0 1.797 1h2.57c.961 0 1.809-.617 2.102-1.531l.469-1.348c.02-.082.09-.14.172-.152h4.53a.224.224 0 0 1 .188.191l.192 1a2.218 2.218 0 0 0 2.148 1.809h2.14a2.13 2.13 0 0 0 1.673-.8c.441-.528.62-1.231.488-1.907zM53.621 36l.7-2 .238-.7.14.7.39 2z" fill="#9fddff"/><path d="M8 34h13.68l-3.79 9.61a2.184 2.184 0 0 1-2 1.402h-3.492a2.203 2.203 0 0 1-2.117-1.692zm22.262 0l-1.434 9.219a2.2 2.2 0 0 1-2.156 1.902H24.09a2.212 2.212 0 0 1-1.64-.762 2.322 2.322 0 0 1-.52-1.84L23.25 34zM62.48 44.32a2.135 2.135 0 0 1-1.671.801h-2.137a2.222 2.222 0 0 1-2.152-1.812l-.192-1a.216.216 0 0 0-.187-.188h-4.532a.196.196 0 0 0-.168.149L51 43.629a2.203 2.203 0 0 1-2.059 1.492H46.34a2.182 2.182 0 0 1-1.8-1 2.282 2.282 0 0 1-.31-1.89c-2 2.28-5.332 3.199-7.859 3.199-1.703.008-3.39-.27-5-.82a2.211 2.211 0 0 1-1.441-2.462l.308-1.878a2.172 2.172 0 0 1 2.133-1.829 2.05 2.05 0 0 1 .82.16 9.132 9.132 0 0 0 3.168.579c.871 0 2.36-.192 2.36-.918 0-.563-1-1.133-2.11-1.742A11.732 11.732 0 0 1 33.13 34h28.16L63 42.422a2.272 2.272 0 0 1-.52 1.898z" fill="#85cbf8"/><path d="M54.672 31.14a.579.579 0 0 0-.563.41L52.5 36.173a.626.626 0 0 0 .063.562c.113.168.296.27.496.278h2.511a.625.625 0 0 0 .465-.242.623.623 0 0 0 .113-.508l-.898-4.621a.584.584 0 0 0-.578-.5z" fill="#8d6c9f"/><path d="M63.941 42.23l-3.5-17.62a3.22 3.22 0 0 0-3.12-2.61h-3a4.348 4.348 0 0 0-4.18 2.809l-3.88 9.71c-1.12-2.28-3.363-3.55-4.87-4.398L41 29.898c.73.008 1.453.118 2.148.332a3.16 3.16 0 0 0 4.05-2.54l.302-1.8a3.211 3.211 0 0 0-2.23-3.62 14.957 14.957 0 0 0-4.051-.63c-2.43 0-6.328.829-8.578 3.508a3.285 3.285 0 0 0-.79-2A3.159 3.159 0 0 0 29.392 22h-2.57a3.12 3.12 0 0 0-1.66.48 2.007 2.007 0 0 0-1.302-.492h-4.648a2.003 2.003 0 0 0-1.89 1.352l-2.243 6.52-.777-4.301a4.216 4.216 0 0 0-4.371-3.5H2.27a2.216 2.216 0 0 0-2.23 1.894 2.207 2.207 0 0 0 1.6 2.445 16.96 16.96 0 0 1 3.65 1.524.49.49 0 0 1 .23.316l3.789 15.32A3.19 3.19 0 0 0 12.399 46h3.46a3.164 3.164 0 0 0 3-2l3.09-7.84-1 6.23a3.28 3.28 0 0 0 .742 2.61 3.152 3.152 0 0 0 2.399 1.11h2.57c1.18 0 2.262-.653 2.809-1.7.375.547.91.965 1.531 1.192 1.719.582 3.523.875 5.34.867a12.15 12.15 0 0 0 7.082-2.2 3.174 3.174 0 0 0 2.879 1.86h2.57a3.2 3.2 0 0 0 3-2.16l.29-.82h3.269l.07.37a3.207 3.207 0 0 0 3.129 2.622h2.14A3.177 3.177 0 0 0 63.263 45a3.29 3.29 0 0 0 .68-2.77zm-47 1a1.193 1.193 0 0 1-1.09.77h-3.453a1.197 1.197 0 0 1-1.148-.93l-3.79-15.3a2.51 2.51 0 0 0-1.198-1.59 19.012 19.012 0 0 0-4.102-1.7c-.191-.05-.281-.41.11-.41h7.652a2.187 2.187 0 0 1 2.398 1.809l1.75 9.652a.578.578 0 1 0 1.129.098L19.2 24h4.653v.129a3.226 3.226 0 0 0-.172.633l-.371 2.398zm13.63-17.77L27.84 43.07a1.21 1.21 0 0 1-1.168 1.051H24.09a1.229 1.229 0 0 1-1.168-1.45l2.34-15.112v-.149l.468-2.71c.192-.43.622-.704 1.09-.7h2.57c.36.008.7.176.93.457.227.281.317.648.25 1.004zm.827 7.68c1 2.239 3.16 3.43 4.711 4.301.36.2.84.47 1.2.7a5.032 5.032 0 0 1-1 .078 7.77 7.77 0 0 1-2.797-.52 3.2 3.2 0 0 0-1.192-.23c-.605 0-1.199.172-1.71.5zm5 11.329a14.493 14.493 0 0 1-4.687-.758 1.22 1.22 0 0 1-.77-1.36l.309-1.882c.078-.574.57-1 1.148-1 .153.004.301.035.442.09a9.958 9.958 0 0 0 3.539.66c1.812 0 3.371-.559 3.371-1.93 0-2.73-6.89-2.789-6.89-8 0-5.52 5.87-6.66 8.35-6.66a13.02 13.02 0 0 1 3.49.55c.577.188.929.774.82 1.372l-.301 1.8a1.172 1.172 0 0 1-1.13 1c-.112 0-.23-.019-.339-.05a9.402 9.402 0 0 0-2.77-.43c-1.609 0-3 .48-3 1.7 0 2.269 7 2.757 7 8-.082 5.05-5.21 6.898-8.609 6.898zm24.442-.348h-2.168a1.212 1.212 0 0 1-1.172-1l-.191-1a1.204 1.204 0 0 0-1.168-1h-4.532c-.511.004-.96.332-1.12.82L50 43.301c-.16.484-.61.816-1.121.82h-2.54a1.258 1.258 0 0 1-1-.578 1.257 1.257 0 0 1-.1-1.152L52 25.5a2.313 2.313 0 0 1 2.3-1.5h3c.579.012 1.071.43 1.169 1L62 42.621a1.244 1.244 0 0 1-1.191 1.5zM9 20.059a1 1 0 0 0 1-1v-2c0-.551-.45-1-1-1s-1 .449-1 1v2a1 1 0 0 0 1 1zm-5 0a1 1 0 0 0 1-1v-2c0-.551-.45-1-1-1s-1 .449-1 1v2a1 1 0 0 0 1 1zm10 0a1 1 0 0 0 1-1v-2c0-.551-.45-1-1-1s-1 .449-1 1v2a1 1 0 0 0 1 1zm5 0a1 1 0 0 0 1-1v-2c0-.551-.45-1-1-1s-1 .449-1 1v2a1 1 0 0 0 1 1zm5 0a1 1 0 0 0 1-1v-2c0-.551-.45-1-1-1s-1 .449-1 1v2a1 1 0 0 0 1 1zm5 0a1 1 0 0 0 1-1v-2c0-.551-.45-1-1-1s-1 .449-1 1v2a1 1 0 0 0 1 1zm5 0a1 1 0 0 0 1-1v-2c0-.551-.45-1-1-1s-1 .449-1 1v2a1 1 0 0 0 1 1zm5 0a1 1 0 0 0 1-1v-2c0-.551-.45-1-1-1s-1 .449-1 1v2a1 1 0 0 0 1 1zm5 0a1 1 0 0 0 1-1v-2c0-.551-.45-1-1-1s-1 .449-1 1v2a1 1 0 0 0 1 1zm5 0a1 1 0 0 0 1-1v-2c0-.551-.45-1-1-1s-1 .449-1 1v2a1 1 0 0 0 1 1zm5 0a1 1 0 0 0 1-1v-2c0-.551-.45-1-1-1s-1 .449-1 1v2a1 1 0 0 0 1 1zm5 0a1 1 0 0 0 1-1v-2c0-.551-.45-1-1-1s-1 .449-1 1v2a1 1 0 0 0 1 1z" fill="#8d6c9f"/></svg>