<svg xmlns="http://www.w3.org/2000/svg" viewBox="0 0 48 48"><path d="M33 43H15v-1s8-1 8-3 2-2 2 0 8 3 8 3z" fill="#90caf9"/><path d="M27 32.676c2 0-8 .015-6 .015S23 39 23 39h2s0-6.324 2-6.324z" fill="#90caf9"/><path d="M16.098 5C15.109 11-1.195 33 24 33s8.895-22 7.902-28z" fill="#90caf9"/><path d="M10.48 20c-1.55 6.746.086 13 13.52 13s15.066-6.254 13.52-13z" fill="#9b2310"/><path d="M15.395 20c.789-3.133 2.074-6.352 3.171-8.785.73-1.625 1.36-3.024 1.774-4.215h-2.82c-.415 1.191-1.043 2.59-1.774 4.215-1.2 2.652-2.617 5.808-3.375 8.785z" fill="#fafafa"/><path d="M15.395 20H12.37c-.723 2.82-.855 5.48.375 7.383.723 1.117 1.953 1.969 3.64 2.57a5.204 5.204 0 0 1-.82-.953c-1.336-2.066-1.066-5.48-.171-9z" fill="#ff3d00"/></svg>