<svg xmlns="http://www.w3.org/2000/svg" viewBox="0 0 48 48"><path d="M29.254 16.512c-.117-.188-1.152-1.899-1.152-3.528 0-.976.378-1.586.652-2.023.219-.356.348-.566.348-.977 0-.898-.614-2.09-.848-2.472l-.285-.457L29.664 6l.29.457c.116.188 1.148 1.898 1.148 3.527 0 .98-.375 1.586-.649 2.028-.219.351-.351.562-.351.972 0 .899.613 2.09.851 2.473zm-4.984 0c-.118-.188-1.153-1.899-1.153-3.528 0-.976.38-1.586.653-2.023.218-.356.347-.566.347-.977 0-.898-.61-2.09-.847-2.472l-.286-.457L24.68 6l.289.457c.117.188 1.148 1.898 1.148 3.527 0 .98-.375 1.586-.648 2.028-.219.351-.352.562-.352.972 0 .899.613 2.09.852 2.473zm-4.985 0c-.117-.188-1.152-1.899-1.152-3.528 0-.976.379-1.586.652-2.023.219-.356.348-.566.348-.977 0-.898-.613-2.09-.852-2.472L18 7.055 19.695 6l.29.457c.117.188 1.148 1.898 1.148 3.527 0 .98-.375 1.586-.649 2.028-.218.351-.351.562-.351.972 0 .899.613 2.09.851 2.473z" fill="#bcaaa4"/><path d="M30 33s7.738-4.719 10.5-7.293c3.98-3.707 2.5-5.707.586-6.5-2.309-.95-5.023 2.105-7.086 3.793" fill="none" stroke-width="2" stroke-linecap="round" stroke="#f50057"/><path d="M17.777 37h12.446c7-4.582 7.777-22 7.777-22H10s1.555 17.418 7.777 22z" fill="#f50057"/><path d="M4.3 36c1.59 2.836 9.794 6 19.7 6 9.906 0 18.11-3.164 19.7-6z" fill="#ad1457"/></svg>