<svg xmlns="http://www.w3.org/2000/svg" viewBox="0 0 48 48"><path d="M27 14c12 0 13 3 13 3s2 4 2 8c0 7.215-2 17-15 17s-15-9.785-15-17c0-4 2-8 2-8s1-3 13-3z" fill="#795548"/><path d="M27 13c-7.18 0-13 2.016-13 4.5S19.82 22 27 22s13-2.016 13-4.5S34.18 13 27 13z" fill="#4e342e"/><path d="M37.941 17.5C37.281 16.687 33.54 15 27 15c-6.54 0-10.281 1.688-10.941 2.5.66.813 4.402 2.5 10.941 2.5 1.246 0 2.395-.063 3.438-.168l2.289 1.7c.96 1.726 1.628 4.183 1.98 6.917l.008-.02c.07-.765.355-5.23-.285-8.452-.063-.266-.114-.528-.184-.797l-.098.011c2.149-.546 3.434-1.25 3.793-1.691z" fill="#fafafa"/><path d="M34.246 19.18c.879 3.226.547 8.422.469 9.25.21 1.093.316 6.062.27 7.664.484-1.047.976-2.82.976-2.82.074-.262 1.617-5.794.57-12.712z" fill="#3e2723"/><path d="M30.281 19.848l6.414-12.024L42 5.894 41.367 4l-5.683 2.05a1.01 1.01 0 0 0-.567.481l-7.176 13.453a32.32 32.32 0 0 0 2.34-.136z" fill="#ff1744"/><path d="M14.54 16.223a88.15 88.15 0 0 0 1.519 1.277c.43.527 2.175 1.426 5.14 1.988A8 8 0 1 0 6 16a7.994 7.994 0 0 0 6.063 7.754c.336-3.543 2-7.223 2.477-7.531z" fill="#ffeb3b"/><path d="M27 42c-1.61.078-3.223-.45-4.633-1.281a10.914 10.914 0 0 1-3.566-3.403c-.922-1.382-1.512-2.953-1.813-4.539-.297-1.59-.316-3.21.012-4.773.504 1.516.945 2.965 1.488 4.344a21.393 21.393 0 0 0 1.98 3.867C22.036 38.605 24.2 40.535 27 42zm.5-10.957c.406.918.602 1.84.742 2.758.13.922.172 1.844.145 2.761-.028.918-.13 1.84-.325 2.754-.222.907-.46 1.848-1.062 2.684-.23-.96-.414-1.855-.512-2.77a19.36 19.36 0 0 1-.097-2.73c.027-.91.117-1.82.285-2.73.176-.91.398-1.817.824-2.727z" fill="#5d4037"/><path d="M13 9h2v7h-2z" fill="#fffde7"/><path d="M9.758 10.344l-1.414 1.414 5.011 5.031 1.415-1.414z" fill="#fffde7"/><path d="M14.54 16.223c.355.304.667.566.917.777h5.668v-2H7v2h7c.086-.266.324-.527.54-.777z" fill="#fffde7"/><path d="M14.54 16.223c.144.125.28.242.413.351l4.703-4.816-1.414-1.414-9.898 9.898 1.414 1.414 3.902-3.902c.34-.856.676-1.29.88-1.531z" fill="#fffde7"/><path d="M7.5 16c0-3.586 2.914-6.5 6.5-6.5s6.5 2.914 6.5 6.5a6.426 6.426 0 0 1-.824 3.145c.465.125.972.238 1.523.343A8 8 0 1 0 6 16a7.994 7.994 0 0 0 6.063 7.754c.051-.508.122-1.008.215-1.492C9.527 21.504 7.5 18.984 7.5 16z" fill="#ffc107"/></svg>