<svg xmlns="http://www.w3.org/2000/svg" viewBox="0 0 50 50"><path d="M39.012 1.992a1.17 1.17 0 0 0-.364.07l-3.48 1.31-.184-.481a.987.987 0 0 0-.914-.657.988.988 0 0 0-.843.422 1.001 1.001 0 0 0-.114.942l.188.496a9.986 9.986 0 0 0-4.781 4.312l-.473.856-1.05 1.89-1.56 2.805c-.472.023-.945.043-1.437.043-2.41 0-4.594-.277-6.094-.695-.754-.207-1.336-.461-1.652-.668-.106-.07-.125-.098-.164-.137.605-.566 3.305-1.5 7.91-1.5.273 0 .52.016.781.02l1.09-1.965A34.35 34.35 0 0 0 24 9c-3.629 0-8.328.633-9.625 2.406C14.352 11.441 12 14.684 12 16c0 .07.023.129.031.2C7.492 19.98 5 25.91 5 33c0 8.55 8.383 15 19.5 15C35.434 48 44 41.41 44 33c0-7.215-2.844-13.258-8.016-17.098-.097-1.355-2.297-4.41-2.355-4.492-.598-.816-1.914-1.387-3.508-1.77l.145-.261a8.033 8.033 0 0 1 3.738-3.418l.148.39a1 1 0 0 0 1.871-.703l-.152-.406 3.48-1.304A1.01 1.01 0 0 0 40 2.82a1.005 1.005 0 0 0-.988-.828zm-9.907 9.48c1.524.313 2.477.72 2.813 1.028-.04.035-.063.063-.172.137-.316.207-.898.46-1.652.668a17.35 17.35 0 0 1-2.25.433zm3.93 2.688c.48.774.914 1.524.965 1.79v.007c-.082.184-.367.402-.844.629-1.203.559-3.617 1.168-7 1.355a37.652 37.652 0 0 1-4.222 0 18.27 18.27 0 0 1-1.012-.078c-.285-.02-.582-.039-.848-.066-.457-.05-.879-.11-1.289-.172-.098-.016-.207-.027-.3-.047-2.512-.414-4.11-1.066-4.465-1.594.078-.328.484-1.058.949-1.82.062.047.125.102.187.145.598.39 1.336.68 2.215.921 1.754.489 4.07.77 6.629.77 2.559 0 4.875-.281 6.629-.77.879-.242 1.617-.53 2.215-.921.066-.043.125-.102.191-.149z"/></svg>