<svg xmlns="http://www.w3.org/2000/svg" viewBox="0 0 50 50"><path d="M7 7c-.547 0-1 .422-1 .969-.004 9.203 3.895 22.02 5.906 28.031h21.188c.293-.883.644-1.95 1-3.094a32.12 32.12 0 0 0 6.625-2.093c1.738-.778 3.523-1.77 4.906-3.125C47.008 26.331 48 24.563 48 22.468 48 18.91 45.09 16 41.531 16c-1.23 0-2.422.344-3.437.938.547-3.133.906-6.235.906-8.97C39 7.423 38.547 7 38 7zm34.531 11A4.453 4.453 0 0 1 46 22.469c0 1.468-.66 2.68-1.781 3.781-1.121 1.102-2.711 2.035-4.313 2.75a31.052 31.052 0 0 1-5.156 1.75c.902-3.04 1.84-6.598 2.625-10.25.004-.012.027-.02.031-.031v-.032c.719-1.41 2.38-2.437 4.125-2.437zM3 38c-.406 0-.781.25-.938.625-.156.375-.066.809.22 1.094l2.28 2.25A10.3 10.3 0 0 0 11.875 45h21.25c2.758 0 5.363-1.082 7.313-3.031l2.28-2.25c.286-.285.376-.719.22-1.094A1.023 1.023 0 0 0 42 38z"/></svg>