<svg xmlns="http://www.w3.org/2000/svg" viewBox="0 0 16 16"><path d="M5.082 1a.497.497 0 0 0-.434.25S4 2.387 4 4.21c0 1.188.484 2.177.922 3.11.437.938.828 1.825.828 2.848 0 1.418-.531 2.746-.727 3.617C4.887 14.398 5.38 15 6 15h4c.625 0 1.113-.602.973-1.215v-.004c-.192-.87-.723-2.199-.723-3.613 0-1.027.39-1.91.828-2.848.438-.933.922-1.925.922-3.113 0-1.82-.652-2.957-.652-2.957a.495.495 0 0 0-.43-.25zm.379 1h5.074c.082.148.41.73.45 2H7v1h3.895c-.141.621-.415 1.238-.723 1.898-.442.946-.922 1.989-.922 3.27 0 1.66.598 3.16.75 3.832H6c.152-.672.75-2.172.75-3.832 0-1.277-.48-2.324-.922-3.27C5.52 6.234 5.246 5.621 5.102 5H6V4h-.984c.039-1.27.367-1.852.445-2z"/></svg>