<svg xmlns="http://www.w3.org/2000/svg" viewBox="0 0 80 80"><path style="line-height:normal;text-indent:0;text-align:start;text-decoration-line:none;text-decoration-style:solid;text-decoration-color:#000;text-transform:none;block-progression:tb;isolation:auto;mix-blend-mode:normal" d="M9 14v1c0 7.755.984 17.292 3.639 25.979 2.494 8.162 6.549 15.502 12.709 19.894C22.754 62.679 21 65.607 21 69v1h34v-1c0-3.393-1.754-6.32-4.348-8.127 4.526-3.227 7.912-8.049 10.381-13.615 0 .012-.004.023-.004.035a1 1 0 1 0 2 0c0-.82.7-1.784 2.112-2.89 1.41-1.107 3.397-2.274 5.42-3.59 2.022-1.317 4.09-2.786 5.695-4.608C77.86 34.383 79 32.155 79 29.5c0-4.13-3.37-7.5-7.5-7.5a7.459 7.459 0 0 0-4.912 1.85c.28-3.095.412-6.088.412-8.85v-1H9zm2.066 2h53.868c-.077 7.414-1.014 16.31-3.485 24.395-2.575 8.425-6.75 15.844-12.978 19.7l-1.528.946 1.61.799c2.343 1.165 3.959 3.458 4.304 6.16H23.143c.345-2.702 1.961-4.995 4.304-6.16l1.61-.799-1.528-.945c-6.228-3.857-10.403-11.276-12.978-19.701C12.08 32.309 11.143 23.414 11.066 16zM14 20a1 1 0 0 0-1 1 1 1 0 0 0 1 1 1 1 0 0 0 1-1 1 1 0 0 0-1-1zm4 0a1 1 0 0 0-1 1 1 1 0 0 0 1 1 1 1 0 0 0 1-1 1 1 0 0 0-1-1zm4 0a1 1 0 0 0-1 1 1 1 0 0 0 1 1 1 1 0 0 0 1-1 1 1 0 0 0-1-1zm4 0a1 1 0 0 0-1 1 1 1 0 0 0 1 1 1 1 0 0 0 1-1 1 1 0 0 0-1-1zm4 0a1 1 0 0 0-1 1 1 1 0 0 0 1 1 1 1 0 0 0 1-1 1 1 0 0 0-1-1zm4 0a1 1 0 0 0-1 1 1 1 0 0 0 1 1 1 1 0 0 0 1-1 1 1 0 0 0-1-1zm4 0a1 1 0 0 0-1 1 1 1 0 0 0 1 1 1 1 0 0 0 1-1 1 1 0 0 0-1-1zm4 0a1 1 0 0 0-1 1 1 1 0 0 0 1 1 1 1 0 0 0 1-1 1 1 0 0 0-1-1zm4 0a1 1 0 0 0-1 1 1 1 0 0 0 1 1 1 1 0 0 0 1-1 1 1 0 0 0-1-1zm4 0a1 1 0 0 0-1 1 1 1 0 0 0 1 1 1 1 0 0 0 1-1 1 1 0 0 0-1-1zm4 0a1 1 0 0 0-1 1 1 1 0 0 0 1 1 1 1 0 0 0 1-1 1 1 0 0 0-1-1zm4 0a1 1 0 0 0-1 1 1 1 0 0 0 1 1 1 1 0 0 0 1-1 1 1 0 0 0-1-1zm4 0a1 1 0 0 0-1 1 1 1 0 0 0 1 1 1 1 0 0 0 1-1 1 1 0 0 0-1-1zm9.5 4c3.05 0 5.5 2.45 5.5 5.5 0 2.095-.856 3.805-2.246 5.383-1.39 1.578-3.315 2.971-5.285 4.254-1.97 1.282-3.977 2.45-5.56 3.691-.662.519-1.265 1.068-1.753 1.66a58.66 58.66 0 0 0 1.205-3.51c1.084-3.546 1.878-7.231 2.452-10.882A1 1 0 0 0 66 29.5c0-3.05 2.45-5.5 5.5-5.5zM30 61a1 1 0 0 0-1 1 1 1 0 0 0 1 1 1 1 0 0 0 1-1 1 1 0 0 0-1-1zm4 0a1 1 0 0 0-1 1 1 1 0 0 0 1 1 1 1 0 0 0 1-1 1 1 0 0 0-1-1zm4 0a1 1 0 0 0-1 1 1 1 0 0 0 1 1 1 1 0 0 0 1-1 1 1 0 0 0-1-1zm4 0a1 1 0 0 0-1 1 1 1 0 0 0 1 1 1 1 0 0 0 1-1 1 1 0 0 0-1-1zm4 0a1 1 0 0 0-1 1 1 1 0 0 0 1 1 1 1 0 0 0 1-1 1 1 0 0 0-1-1z"/></svg>