<svg xmlns="http://www.w3.org/2000/svg" viewBox="0 0 16 16"><path style="line-height:normal;text-indent:0;text-align:start;text-decoration-line:none;text-decoration-style:solid;text-decoration-color:#000;text-transform:none;block-progression:tb;isolation:auto;mix-blend-mode:normal" d="M2.5 1C1.677 1 1 1.677 1 2.5v10c0 .823.677 1.5 1.5 1.5h10c.823 0 1.5-.677 1.5-1.5v-10c0-.823-.677-1.5-1.5-1.5h-10zm0 1h10c.281 0 .5.219.5.5v10c0 .281-.219.5-.5.5h-10a.493.493 0 0 1-.5-.5v-10c0-.281.219-.5.5-.5zM4 4v1h7V4H4zm3 2v1h4V6H7zM4 8v1h7V8H4zm3 2v1h4v-1H7z" font-weight="400" font-family="sans-serif" white-space="normal" overflow="visible"/></svg>