<svg xmlns="http://www.w3.org/2000/svg" viewBox="0 0 40 40"><g fill="#4788c7"><path d="M12.5 16C5.598 16 0 17.344 0 19s5.598 3 12.5 3S25 20.656 25 19s-5.598-3-12.5-3zm0 4C9.46 20 7 19.55 7 19s2.46-1 5.5-1 5.5.45 5.5 1-2.46 1-5.5 1z"/><path d="M5 18l3.363-1.555c.88-1.37 2.637-4.277 2.637-4.277v-.082L10.918 12H4a221.358 221.358 0 0 0-3.855 6.543s.73.125.855.457c.176.262.488.578 1 .902zm15.512-6.996c-.004 0-.008-.004-.012-.004h-1c-.273 0-.5.227-.5.5s.227.5.5.5h.5c6.008 0 14 1.629 14 7 0 4.387-6.695 9-24 9h-.5c-.273 0-.5.227-.5.5s.227.5.5.5H14c9.605 0 26-1.559 26-10 0-6.914-13.191-7.945-19.488-7.996z"/></g></svg>