<svg xmlns="http://www.w3.org/2000/svg" viewBox="0 0 24 24"><path d="M11.25 6c-.023.012-.063.043-.063.094 0 .101.024.093.126.093 3.601 0 9.48 1.72 9.28 5.22-.198 2.898-4.679 6.28-15.28 6.28 0 .102-.102.114 0 .313 0 0 18.289.898 18.687-6.5C24.3 5.398 11.312 6 11.312 6s-.039-.012-.062 0zM2.5 7C1.398 8.8.793 9.914.094 11.313L0 11.5v.094c-.102.101 0 .304 0 .406.398.7 2.602 1.5 7.5 1.5 3.7 0 7.594-.7 7.594-2 0-1.2-3.793-2-7.594-2-1.2 0-2.512.21-2.813.313C4.989 9.21 6.407 7 6.407 7zm5.094 4c2.199 0 3.593.395 3.593.594 0 .3-1.394.594-3.593.594-2.301 0-3.594-.293-3.594-.594S5.293 11 7.594 11z"/></svg>