<svg xmlns="http://www.w3.org/2000/svg" viewBox="0 0 50 50"><path d="M22.25 12.027c-.023 0-.184-.02-.45.07a1.153 1.153 0 0 0-.488.313 1.23 1.23 0 0 0-.289.754c0 .238.086.649.403.918.32.273.637.273.777.273 3.574 0 8.442.93 12.293 2.711 1.922.895 3.59 1.997 4.738 3.243 1.145 1.246 1.778 2.593 1.778 4.144 0 2.2-2.078 4.992-7.11 7.238-5.03 2.247-12.859 3.875-23.699 3.875-.406 0-.656.172-.836.352-.183.18-.36.383-.363.832-.004.707.547 1.078.984 1.176l.106.023h.11c.26.004 2.917.098 6.632.016 3.723-.086 8.566-.344 13.394-1.047 4.829-.703 9.633-1.84 13.344-3.758 3.711-1.914 6.422-4.793 6.426-8.722.004-3.258-1.957-5.75-4.637-7.47-2.675-1.718-6.113-2.796-9.523-3.519-6.824-1.445-13.582-1.422-13.586-1.422zM6.309 14a1.51 1.51 0 0 0-1.34.828L.172 24.344l-.016.035a1.994 1.994 0 0 0 .157 1.797c.695 1.277 2.234 2.039 4.804 2.703C7.723 29.55 11.43 30 16.516 30c3.804 0 7.726-.316 10.777-1.004 1.523-.344 2.832-.773 3.848-1.367C32.156 27.039 33 26.152 33 24.98c0-1.12-.79-1.984-1.75-2.57-.96-.582-2.2-1.012-3.656-1.363C24.676 20.347 20.875 20 17 20c-1.3 0-2.7.059-3.871.137-.29.02-.387.047-.64.066.71-1.39 1.53-3.004 2.046-4.035.48-.961-.277-2.168-1.344-2.168zm29.472 1.5c3.149.695 6.258 1.71 8.504 3.152 2.34 1.5 3.719 3.301 3.715 5.785-.004 3.032-1.98 5.208-5.344 6.95-2.89 1.492-6.781 2.465-10.797 3.164.98-.336 2.012-.656 2.86-1.035 5.402-2.41 8.293-5.68 8.293-9.063 0-2.11-.91-3.976-2.309-5.5-1.289-1.402-3.02-2.52-4.922-3.453zM6.617 16h5.758a431.067 431.067 0 0 1-2.484 4.914l-1.008 1.898 2.101-.453c.172-.035 1.149-.152 2.282-.23A59.59 59.59 0 0 1 17 22c3.754 0 7.453.348 10.125.988 1.34.325 2.422.727 3.082 1.133.664.402.793.684.793.86 0 .203-.152.507-.871.925-.715.414-1.867.82-3.277 1.14-2.817.634-6.641.954-10.336.954-4.965 0-8.532-.45-10.899-1.059-2.363-.609-3.46-1.507-3.578-1.734l-.02-.035-.015-.024zm9.899 8C11.879 24 9 24.582 9 24.988 9 25.438 11.879 26 16.516 26 21.148 26 24 25.437 24 24.988c0-.406-2.852-.988-7.484-.988zM1.992 25.133c.004.004.004.031.012.008L2 25.145z"/></svg>