<svg xmlns="http://www.w3.org/2000/svg" viewBox="0 0 26 26"><path d="M12.25 8.375c-.012 0-.125.016-.125.094 0 .066.074.094.125.094 3.902 0 10.238 1.546 10.031 4.906-.168 2.734-5.125 5.937-16.531 5.937-.066 0-.094.051-.094.094 0 .043.012.086.094.094 0 0 19.828.8 20.25-6.125.344-5.617-13.738-5.094-13.75-5.094zm-9.5.938a.147.147 0 0 0-.063.03C1.536 10.966.845 12.075.126 13.407l-.094.188A.403.403 0 0 0 .063 14c.425.664 2.824 1.438 8.156 1.438 3.976 0 8.187-.626 8.187-1.813 0-1.148-4.16-1.844-8.187-1.844-1.34 0-2.649.192-3.031.25.363-.562 1.859-2.605 1.875-2.625.007-.008.03-.02.03-.031 0-.008-.027-.023-.03-.031-.012-.016-.012-.031-.032-.031zm5.469 3.718c2.433 0 3.937.348 3.937.594s-1.504.594-3.937.594c-2.438 0-3.938-.348-3.938-.594s1.5-.594 3.938-.594z"/></svg>