<svg xmlns="http://www.w3.org/2000/svg" viewBox="0 0 26 26"><path d="M23.5 0A2.497 2.497 0 0 0 21 2.5C21 3.883 22.117 5 23.5 5S26 3.883 26 2.5 24.883 0 23.5 0zm-5.625.031a.992.992 0 0 0-.824.68.998.998 0 0 0 .262 1.039l.25.25H16c-2.695 0-5.828.645-8.406 2.219C5.789 5.32 4.285 6.96 3.53 9.062 1.543 9.297 0 10.95 0 13c0 2.05 1.543 3.703 3.531 3.938.754 2.105 2.258 3.742 4.063 4.843C10.172 23.355 13.304 24 16 24h1.625l-.281.281a.998.998 0 0 0 .441 1.742c.375.079.762-.066.996-.367l1.938-2a1.001 1.001 0 0 0-.032-1.406l-2-1.938a.994.994 0 0 0-.53-.28.996.996 0 0 0 .624-.376l1.938-2a1.001 1.001 0 0 0-.032-1.406l-2-1.938a.994.994 0 0 0-.812-.28.992.992 0 0 0-.824.679.998.998 0 0 0 .262 1.039l.25.25H16c-2.328 0-3.598-.645-5.375-1.406-.777-.332-1.656-.684-2.688-.969.012-.082.024-.164.032-.25 1.015-.281 1.886-.637 2.656-.969C12.402 11.645 13.672 11 16 11h1.625l-.281.281a.998.998 0 0 0 .441 1.742c.375.079.762-.066.996-.367l1.938-2a1.001 1.001 0 0 0-.032-1.406l-2-1.938a.994.994 0 0 0-.812-.28.992.992 0 0 0-.824.679.998.998 0 0 0 .262 1.039l.25.25H16c-2.723 0-4.469.855-6.188 1.594-.671.289-1.382.55-2.156.781a3.964 3.964 0 0 0-2.125-2.063c.61-1.425 1.703-2.527 3.094-3.374C10.785 4.617 13.645 4 16 4h1.625l-.281.281a.998.998 0 0 0 .441 1.742c.375.079.762-.066.996-.367l1.938-2a1.001 1.001 0 0 0-.032-1.406l-2-1.938a.994.994 0 0 0-.812-.28zM23.5 2a.499.499 0 1 1 0 1 .498.498 0 0 1-.5-.5c0-.277.223-.5.5-.5zm0 5A2.497 2.497 0 0 0 21 9.5c0 1.383 1.117 2.5 2.5 2.5S26 10.883 26 9.5 24.883 7 23.5 7zm0 2a.499.499 0 1 1 0 1 .498.498 0 0 1-.5-.5c0-.277.223-.5.5-.5zm0 5a2.497 2.497 0 0 0-2.5 2.5c0 1.383 1.117 2.5 2.5 2.5s2.5-1.117 2.5-2.5-1.117-2.5-2.5-2.5zM7.125 15.5c1.004.25 1.871.555 2.688.906C11.53 17.145 13.277 18 16 18h1.625l-.281.281a.999.999 0 0 0 .5 1.75 1 1 0 0 0-.531 1.719l.25.25H16c-2.355 0-5.215-.617-7.375-1.938-1.398-.851-2.488-1.937-3.094-3.375A4.047 4.047 0 0 0 7.125 15.5zM23.5 16a.499.499 0 1 1 0 1 .498.498 0 0 1-.5-.5c0-.277.223-.5.5-.5zm0 5a2.497 2.497 0 0 0-2.5 2.5c0 1.383 1.117 2.5 2.5 2.5s2.5-1.117 2.5-2.5-1.117-2.5-2.5-2.5zm0 2a.499.499 0 1 1 0 1 .498.498 0 0 1-.5-.5c0-.277.223-.5.5-.5z"/></svg>