<svg xmlns="http://www.w3.org/2000/svg" viewBox="0 0 50 50"><path d="M32 1c-5.266 0-7.945 2.273-9.652 4.367-.852 1.051-1.504 2.028-2.157 2.668C19.54 8.675 18.984 9 18 9c-1.168 0-1.477-.438-1.73-.945A2.85 2.85 0 0 1 16 7V5.3l-1.484.825S5 11.527 5 24.641c0 7.46 4.84 14.047 4.91 14.14C13.121 43.723 18.68 47 25 47c6.336 0 11.906-3.297 15.113-8.254a.696.696 0 0 0 .082-.105s4.434-6.243 4.434-14.414c0-9.707-6.902-16.915-6.902-16.915l-.891-.937-.684 1.094S35.27 9 33 9c-.59 0-1.508-.484-1.852-1.457-.343-.973-.234-2.586 1.633-4.918L34.078 1zm-1.746 2.172c-1.035 1.914-1.469 3.683-.992 5.035C29.887 9.984 31.469 11 33 11c1.926 0 3.09-.762 3.871-1.469.977 1.114 5.758 6.766 5.758 14.696 0 .34-.016.668-.035 1C40.855 17.105 33.633 11 25 11c-9.168 0-16.738 6.887-17.844 15.762A15.32 15.32 0 0 1 7 24.64c0-9.676 5.203-14.426 7.402-16.024.055.164-.004.164.078.328C14.977 9.937 16.168 11 18 11c1.516 0 2.71-.676 3.59-1.535.879-.86 1.539-1.883 2.312-2.832C25.227 5 26.867 3.57 30.254 3.172zM25 13c8.848 0 16 7.152 16 16 0 8.848-7.152 16-16 16a15.97 15.97 0 0 1-13.313-7.117 1.005 1.005 0 0 0-.14-.242s-.121-.196-.145-.23A15.884 15.884 0 0 1 9 29c0-8.848 7.152-16 16-16zm0 8c-4.406 0-8 3.594-8 8 0 4.406 3.594 8 8 8 4.406 0 8-3.594 8-8 0-4.406-3.594-8-8-8zm0 2c3.324 0 6 2.676 6 6s-2.676 6-6 6-6-2.676-6-6 2.676-6 6-6zm0 4a1.999 1.999 0 1 0 0 4 1.999 1.999 0 1 0 0-4z"/></svg>