<svg xmlns="http://www.w3.org/2000/svg" viewBox="0 0 50 50"><path d="M25 2.008C12.312 2.008 2.008 12.312 2.008 25S12.313 47.996 25 47.996c12.688 0 22.996-10.309 22.996-22.996C47.996 12.312 37.687 2.008 25 2.008zm0 1.984c2.59 0 5.066.473 7.355 1.328l-4.75 11.075A8.964 8.964 0 0 0 25 16.004c-4.957 0-8.996 4.039-8.996 8.996 0 .906.14 1.781.39 2.605L5.32 32.355A20.964 20.964 0 0 1 3.992 25C3.992 13.387 13.387 3.992 25 3.992zm9.172 2.13a21.028 21.028 0 0 1 9.707 9.706l-11.066 4.738a9.05 9.05 0 0 0-3.38-3.378zm10.512 11.523A21.048 21.048 0 0 1 46.004 25c0 11.613-9.39 21.004-21.004 21.004-2.59 0-5.066-.469-7.355-1.32l4.75-11.079c.824.25 1.699.391 2.605.391 4.957 0 8.996-4.039 8.996-8.996 0-.906-.14-1.781-.39-2.605zM25 17.996A6.985 6.985 0 0 1 32.004 25 6.985 6.985 0 0 1 25 32.004 6.985 6.985 0 0 1 17.996 25 6.985 6.985 0 0 1 25 17.996zM25 22a3 3 0 1 0 .002 6.002A3 3 0 0 0 25 22zm-7.813 7.434a9.05 9.05 0 0 0 3.38 3.378l-4.74 11.068a21.028 21.028 0 0 1-9.707-9.707z"/></svg>