<svg xmlns="http://www.w3.org/2000/svg" viewBox="0 0 64 64"><path d="M31 2C15.008 2 2 15.008 2 31s13.008 29 29 29 29-13.008 29-29S46.992 2 31 2zm0 2c14.887 0 27 12.113 27 27S45.887 58 31 58 4 45.887 4 31 16.113 4 31 4zm-.438 4.008a23.065 23.065 0 0 0-15.824 6.726C10.395 19.082 8 24.855 8 31c0 6.145 2.39 11.918 6.734 16.266.196.191.454.293.707.293a1.004 1.004 0 0 0 .711-1.711A20.848 20.848 0 0 1 10 31a20.85 20.85 0 0 1 6.152-14.848 21.057 21.057 0 0 1 18.188-5.886.994.994 0 0 0 1.144-.829 1.003 1.003 0 0 0-.828-1.148 22.598 22.598 0 0 0-4.093-.281zm8.098 1.375a1.01 1.01 0 0 0-.894.652 1 1 0 0 0 .586 1.29c.71.265 1.418.573 2.097.913a1.004 1.004 0 0 0 1.348-.441 1.005 1.005 0 0 0-.445-1.344c-.747-.375-1.52-.71-2.301-1.004a1.028 1.028 0 0 0-.39-.066zm5.774 3.293a.998.998 0 0 0-.496 1.777 21.206 21.206 0 0 1 1.91 1.7A20.848 20.848 0 0 1 52 31a20.85 20.85 0 0 1-6.152 14.848 1.004 1.004 0 0 0 0 1.418c.195.191.453.293.71.293.255 0 .512-.102.708-.293A22.858 22.858 0 0 0 54 31c0-6.145-2.39-11.918-6.734-16.266a24.022 24.022 0 0 0-2.094-1.855 1.008 1.008 0 0 0-.738-.203zm-14.012 1.886a2.414 2.414 0 0 0-2.395 2.067 2.64 2.64 0 0 0-1.07-.227 2.61 2.61 0 0 0-2.625 2.563l-.238 9.226a5.012 5.012 0 0 0-2.649-1.808 1.895 1.895 0 0 0-1.761.379 1.905 1.905 0 0 0-.672 1.675l.52 4.77c.218 1.988.726 3.66 1.609 5.305.132.222 3.34 5.535 7.77 5.535h5.64c2.648 0 4.945-1.695 5.695-4.145.031-.074.727-1.84.738-4.453 0-3.445-.722-12.941-.75-13.32a2.652 2.652 0 0 0-3.683-2.3l-.028-.872a2.616 2.616 0 0 0-2.632-2.555c-.38 0-.743.082-1.07.227a2.412 2.412 0 0 0-2.4-2.067zm.004 2c.226 0 .414.18.418.41l.375 10.95c.015.539.504.965 1.043.965.55 0 1-.45 1-1V19.03a.628.628 0 0 1 1.258-.015l.277 8.902c.02.539.46.969 1 .969h.14c.551 0 1-.45 1-1v-5.621a.65.65 0 0 1 .653-.649c.344 0 .629.27.648.637.008.101.746 9.824.746 13.187-.007 2.204-.59 3.704-.62 3.793a3.968 3.968 0 0 1-3.813 2.813h-5.64c-3.29 0-6.024-4.516-6.032-4.52-.746-1.39-1.168-2.789-1.36-4.539l-.503-4.644a3.027 3.027 0 0 1 1.875 1.75l1.27 3.12a5.569 5.569 0 0 0 5.183 3.485 1 1 0 1 0 0-2 3.576 3.576 0 0 1-3.328-2.242l-.032-.066.348-13.38a.627.627 0 1 1 1.254.016v8.86c0 .55.496 1 1.047 1a1 1 0 0 0 1-.965l.37-10.953a.42.42 0 0 1 .423-.407zm-9.051 29.833a.992.992 0 0 0-.988.492l-1 1.734a.997.997 0 0 0 .363 1.363.995.995 0 0 0 1.363-.363l1-1.734a.998.998 0 0 0-.738-1.492zm19.25 0a1.002 1.002 0 0 0-.738 1.496l1 1.73a.995.995 0 0 0 1.363.363.993.993 0 0 0 .363-1.363l-1-1.73a1.002 1.002 0 0 0-.988-.496zm-14.813 1.949a1.007 1.007 0 0 0-.828.734l-.515 1.934a1 1 0 0 0 1.933.515l.516-1.933a.996.996 0 0 0-.703-1.223.946.946 0 0 0-.402-.027zm10.375 0a.946.946 0 0 0-.402.027c-.531.14-.847.691-.707 1.223l.52 1.933a1.004 1.004 0 0 0 1.226.707c.531-.144.848-.691.707-1.222l-.515-1.934a1.007 1.007 0 0 0-.828-.734zM31 49c-.55 0-1 .45-1 1v2c0 .55.45 1 1 1s1-.45 1-1v-2c0-.55-.45-1-1-1z"/></svg>