<svg xmlns="http://www.w3.org/2000/svg" viewBox="0 0 64 64"><path d="M44.848 2a13.168 13.168 0 0 0-9.567 4H10.676a2.99 2.99 0 0 0-2.95 2.477L2.079 40.48c-.05.286-.078.583-.078.872V55c0 1.652 1.348 3 3 3h50c1.652 0 3-1.348 3-3V41.352c0-.29-.027-.582-.078-.868l-1.496-8.5c4.058-.172 7.422-3.414 7.57-7.39.121-3.348-1.96-6.309-4.941-7.461-.028-.012-.043-.035-.07-.043-.126-.05-.258-.078-.387-.117a4.957 4.957 0 0 0-.227-.067 5.594 5.594 0 0 0-.547-.136c-.004 0-.004-.004-.008-.004a13.5 13.5 0 0 0-.02-3.391 13.114 13.114 0 0 0-11.358-11.27A13.694 13.694 0 0 0 44.847 2zm-.086 2c.472 0 .949.031 1.43.094 4.921.617 8.968 4.633 9.62 9.547a11.314 11.314 0 0 1 0 2.996 7.593 7.593 0 0 0-.84.086c-.542.097-.91.613-.816 1.156.098.547.617.906 1.157.812a5.913 5.913 0 0 1 1.816-.011.765.765 0 0 1 .11.02c2.777.46 4.863 2.948 4.757 5.82-.113 3.023-2.758 5.48-5.902 5.48H35.277c-4.797 0-8.75-3.625-9.004-8.25-.207-3.77 2.067-7.219 5.461-8.594a13.322 13.322 0 0 0-.168 2.016 1 1 0 1 0 2 0c0-1.082.157-2.14.461-3.16 0-.008.004-.008.004-.012.067-.23.149-.45.23-.672.032-.094.063-.191.102-.285A11.156 11.156 0 0 1 44.762 4zM10.676 8h23.02c-.407.625-.758 1.29-1.06 1.992-.011.02-.027.035-.034.055-.075.176-.13.355-.196.535-.039.098-.078.188-.113.285-4.883 1.27-8.293 5.895-8.016 10.992.309 5.688 5.141 10.141 11 10.141h19.118l1.414 8H4.19L9.695 8.828a.994.994 0 0 1 .98-.828zM4 42h52v13c0 .55-.45 1-1 1H5c-.55 0-1-.45-1-1zm7 4c-1.652 0-3 1.348-3 3s1.348 3 3 3 3-1.348 3-3-1.348-3-3-3zm20 1a1 1 0 0 0-1 1v2a1 1 0 1 0 2 0v-2a1 1 0 0 0-1-1zm5 0a1 1 0 0 0-1 1v2a1 1 0 1 0 2 0v-2a1 1 0 0 0-1-1zm5 0a1 1 0 0 0-1 1v2a1 1 0 1 0 2 0v-2a1 1 0 0 0-1-1zm5 0a1 1 0 0 0-1 1v2a1 1 0 1 0 2 0v-2a1 1 0 0 0-1-1zm5 0a1 1 0 0 0-1 1v2a1 1 0 1 0 2 0v-2a1 1 0 0 0-1-1zm-40 .793A1.21 1.21 0 0 1 12.207 49 1.208 1.208 0 1 1 11 47.793zM17 48a1 1 0 1 0 0 2h4a1 1 0 1 0 0-2z"/></svg>