<svg xmlns="http://www.w3.org/2000/svg" viewBox="0 0 50 50"><path d="M45 2a2 2 0 0 0-2 2c0 .293.074.563.188.813l-8 11.187c-.063-.004-.126 0-.188 0-.398 0-.781.11-1.094.313L27 12.874A2.005 2.005 0 0 0 25 11a2 2 0 0 0-2 2c0 .105.016.21.031.313l-7.312 5.812A1.987 1.987 0 0 0 15 19c-1 0-1.82.73-1.969 1.688l-6.812 2.75A1.975 1.975 0 0 0 5 23a1.999 1.999 0 1 0 0 4 1.989 1.989 0 0 0 1.969-1.719l6.812-2.718c.34.265.758.437 1.219.437a2 2 0 0 0 2-2c0-.105-.016-.21-.031-.313l7.312-5.812c.223.086.465.125.719.125.398 0 .781-.11 1.094-.313L33 18.125A2.005 2.005 0 0 0 35 20a2 2 0 0 0 2-2c0-.293-.074-.563-.188-.813l8-11.187c.063.004.126 0 .188 0a1.999 1.999 0 1 0 0-4zm-4 13v35h8V15zm2 2h4v31h-4zm-22 7v26h8V24zm2 2h4v22h-4zm8 3v21h8V29zm2 2h4v17h-4zm-22 1v18h8V32zm2 2h4v14h-4zM1 36v14h8V36zm2 2h4v10H3z"/></svg>