<svg xmlns="http://www.w3.org/2000/svg" viewBox="0 0 26 26"><path d="M4.813 6.688c-.2 0-.407.207-.407.406V10H.594c-.301 0-.594.387-.594.688v7.718c0 .301.293.594.594.594h5.812c.2 0 .407-.207.407-.406V7.187c.101-.3-.114-.5-.313-.5zm4.28 0c-.6 0-.905.207-.905.906V8c0 .602.207.906.906.906h.219c.601 0 .874-.207.874-.906H9.5v.094c0 .199-.113.312-.313.312-.3 0-.28-.105-.28-.406v-.406c0-.301-.02-.407.28-.407.2 0 .313.114.313.313h.594c0-.602-.207-.813-.906-.813zm2.5 0c-.6 0-.905.207-.905.906V8c0 .602.207.906.906.906h.312c.602 0 .906-.304.906-.906v-.406c0-.7-.207-.907-.906-.907zm1.907 0v2.218h.594V7.312l.406 1.594h.594l.5-1.594v1.594h.594V6.687h-.875l-.5 1.625-.407-1.624zm3.5 0v2.218h.594v-.594H18c.602 0 .813-.218.813-.718v-.188c0-.5-.211-.718-.813-.718zm2.688 0l-.594 2.218h.593l.125-.406h.782l.093.406h.625l-.625-2.219zm2.906 0c-.602 0-.907.207-.907.906V8c0 .602.208.906.907.906h.218c.602 0 .875-.207.875-.906h-.593v.094c0 .199-.082.312-.282.312-.3 0-.312-.105-.312-.406v-.406c0-.301.012-.407.313-.407.199 0 .28.114.28.313h.595c0-.602-.176-.813-.875-.813zm1.593 0v.5h.625v1.718h.594V7.187H26v-.5zm-12.5.5h.22c.3 0 .28.105.28.406V8c0 .3.02.406-.28.406h-.22c-.3 0-.28-.105-.28-.406v-.406c0-.301-.02-.407.28-.407zm5.907 0H18c.2 0 .313.117.313.218v.188h-.125c0 .199-.086.312-.188.312h-.406zm2.593 0l.22.906H20zM8.908 10c-.302 0-.509.207-.407.406V18.5c0 .2.207.406.406.406H10.5c.2 0 .406-.207.406-.406v-8.094c0-.199-.207-.406-.406-.406zm3.78 0c-.199 0-.374.207-.374.406v4.781c0 .2.273.407.374.407h3.72V17h-3.72c-.199 0-.374.207-.374.406V18.5c0 .2.273.406.374.406h5.407c.101 0 .406-.207.406-.406v-4.813c0-.101-.207-.374-.406-.374h-3.688v-1.407h3.406c.102 0 .375-.207.375-.406v-1.094c0-.199-.175-.406-.375-.406zm7.407.094c-.2 0-.407.207-.407.406v8.094c0 .199.305.406.407.406H25.5c.2 0 .406-.207.406-.406v-3.282h-2V17c0 .2-.207.406-.406.406h-1.406c-.102 0-.407-.207-.407-.406v-5c0-.2.208-.406.407-.406H23.5c.5 0 .406.406.406.406v1.906h2V10.5s-.207-.406-.406-.406zM2.906 11.813h1.406c.2 0 .375.175.375.374V17c0 .2-.175.406-.375.406H2.907c-.199 0-.406-.207-.406-.406v-4.813c0-.199.207-.374.406-.374z"/></svg>