<svg xmlns="http://www.w3.org/2000/svg" viewBox="0 0 50 50"><path d="M9.906 12c-.5 0-.906.41-.906.813V18H1.187C.587 18 0 18.613 0 19.219V35.78C0 36.387.586 37 1.188 37h12a.808.808 0 0 0 .812-.813V12.814a.808.808 0 0 0-.813-.813zm7.688 1.188c-1.2 0-1.594.417-1.594 1.718v.781c0 1.2.395 1.72 1.594 1.72H18c1.102 0 1.5-.5 1.5-1.5v-.095h-1.094v.094c0 .399-.093.594-.593.594s-.625-.21-.625-.813V15c0-.602.023-.813.625-.813.398 0 .593.102.593.5v.126H19.5v-.126c0-1.101-.395-1.5-1.594-1.5zm25.093 0c-1.199 0-1.593.417-1.593 1.718v.781c0 1.2.394 1.72 1.593 1.72h.407c1.101 0 1.5-.5 1.5-1.5v-.095H43.5v.094c0 .399-.094.594-.594.594s-.593-.21-.593-.813V15c0-.602-.008-.813.593-.813.399 0 .594.102.594.5v.126h1.094v-.126c0-1.101-.395-1.5-1.594-1.5zm-20.812.124c-.879.094-1.188.551-1.188 1.688v.813c0 1.199.426 1.687 1.625 1.687h.594c1.2 0 1.594-.488 1.594-1.688V15c0-1.3-.395-1.688-1.594-1.688h-.593c-.149 0-.313-.011-.438 0zm3.938 0v4h1.093v-3l.782 3h1.125l.875-2.906v2.906h1v-4h-1.594l-.782 2.876-.906-2.875zm6.375 0v4h1.124v-1.125h.782c1.101 0 1.5-.375 1.5-1.375V14.5c0-.898-.403-1.188-1.5-1.188zm5.124 0l-1.218 4h1.218l.188-.718h1.406l.188.718h1.218l-1.218-4zm8.376 0v.876h1v3.124h1.124v-3.125h1.094v-.874zm-7.376.782l.376 1.719h-.782zm-15.812.094h.188c.601 0 .625.21.625.812v.594c0 .601-.024.812-.625.812H22.5c-.602 0-.594-.21-.594-.812V15c0-.602-.008-.813.594-.813zm10.813 0H34c.398 0 .5.105.5.406v.312c0 .399-.105.5-.406.5h-.782zM17.813 19c-.5 0-.883.313-.782.813v16.375c0 .398.383.812.782.812h2.375c.398 0 .812-.414.812-.813V19.814a.81.81 0 0 0-.813-.813zm7 0a.81.81 0 0 0-.813.813v9.375c0 .402.48.812.813.812H31v3h-6.188a.81.81 0 0 0-.812.813v2.374c0 .399.387.813.813.813h9.375c.378 0 .812-.414.812-.813v-9.374c0-.2-.313-.813-.813-.813H28v-3h6.188c.535 0 .812-.512.812-.813v-2.375c0-.398-.414-.812-.813-.812zm14.03 0c-.398 0-.843.313-.843.813v16.375c0 .398.613.812.813.812h10.374c.403 0 .813-.414.813-.813V29h-4v3.188c0 .398-.414.812-.813.812h-2.374c-.301 0-.813-.414-.813-.813v-8.374a.81.81 0 0 1 .813-.813h2.374c.899 0 .813.813.813.813V26h4v-6.188c0-.8-.813-.812-.813-.812zm-33.03 3h2.375c.5 0 .812.414.812.813v9.468c0 .399-.414.813-.813.813H5.813c-.399 0-.813-.414-.813-.813v-9.468A.81.81 0 0 1 5.813 22z"/></svg>