<svg xmlns="http://www.w3.org/2000/svg" viewBox="0 0 16 16"><path style="line-height:normal;text-indent:0;text-align:start;text-decoration-line:none;text-decoration-style:solid;text-decoration-color:#000;text-transform:none;block-progression:tb;isolation:auto;mix-blend-mode:normal" d="M2.5 3C1.677 3 1 3.677 1 4.5v7c0 .823.677 1.5 1.5 1.5h10c.823 0 1.5-.677 1.5-1.5v-7c0-.823-.677-1.5-1.5-1.5h-10zm0 1H4v2H2V4.5c0-.281.219-.5.5-.5zM5 4h2v2H5V4zm3 0h2v2H8V4zm3 0h1.5c.281 0 .5.219.5.5V6h-2V4zM2 7h2v2H2V7zm3 0h2v2H5V7zm3 0h2v2H8V7zm3 0h2v2h-2V7zm-9 3h2v2H2.5a.493.493 0 0 1-.5-.5V10zm3 0h2v2H5v-2zm3 0h2v2H8v-2zm3 0h2v1.5c0 .281-.219.5-.5.5H11v-2z"/></svg>