<svg xmlns="http://www.w3.org/2000/svg" viewBox="0 0 16 16"><path style="line-height:normal;text-indent:0;text-align:start;text-decoration-line:none;text-decoration-style:solid;text-decoration-color:#000;text-transform:none;block-progression:tb;isolation:auto;mix-blend-mode:normal" d="M2.5 1C1.677 1 1 1.677 1 2.5v10c0 .823.677 1.5 1.5 1.5h10c.823 0 1.5-.677 1.5-1.5v-10c0-.823-.677-1.5-1.5-1.5h-10zm0 1H5v3H2V2.5c0-.281.219-.5.5-.5zM6 2h3v3H6V2zm4 0h2.5c.281 0 .5.219.5.5V5h-3V2zM3 3v1h1V3H3zm4 0v1h1V3H7zm4 0v1h1V3h-1zM2 6h3v3H2V6zm4 0h3v3H6V6zm4 0h3v3h-3V6zM3 7v1h1V7H3zm-1 3h3v3H2.5a.493.493 0 0 1-.5-.5V10zm4 0h3v3H6v-3zm4 0h3v2.5c0 .281-.219.5-.5.5H10v-3zm-7 1v1h1v-1H3z"/></svg>