<svg xmlns="http://www.w3.org/2000/svg" viewBox="0 0 64 64"><linearGradient id="a" gradientUnits="userSpaceOnUse" x1="42" y1="10.833" x2="42" y2="32.365" spreadMethod="reflect"><stop offset="0" stop-color="#6dc7ff"/><stop offset="1" stop-color="#e6abff"/></linearGradient><path d="M52 32h-2c0-9.925-8.075-18-18-18v-2c11.028 0 20 8.972 20 20z" fill="url(#a)"/><linearGradient id="b" gradientUnits="userSpaceOnUse" x1="32" y1="4.75" x2="32" y2="59.014" spreadMethod="reflect"><stop offset="0" stop-color="#1a6dff"/><stop offset="1" stop-color="#c822ff"/></linearGradient><path d="M32 6C17.664 6 6 17.664 6 32s11.664 26 26 26 26-11.664 26-26S46.336 6 32 6zm10.568 35.154A13.921 13.921 0 0 0 45.949 33h10.025a23.905 23.905 0 0 1-6.322 15.239l-7.084-7.085zM20 32c0-6.617 5.383-12 12-12s12 5.383 12 12-5.383 12-12 12-12-5.383-12-12zm35.975-1H45.949C45.457 24.079 39.921 18.543 33 18.051V8.025C45.439 8.538 55.462 18.561 55.975 31zM31 8.025V18.05c-7.253.517-13 6.568-13 13.95 0 3.501 1.3 6.697 3.432 9.154l-7.084 7.084C10.41 43.962 8 38.258 8 32 8 19.102 18.229 8.552 31 8.025zM15.761 49.653l7.084-7.084a13.922 13.922 0 0 0 18.309-.001l7.084 7.084C43.962 53.59 38.258 56 32 56s-11.962-2.41-16.239-6.347z" fill="url(#b)"/><linearGradient id="c" gradientUnits="userSpaceOnUse" x1="32" y1="22.833" x2="32" y2="40.716" spreadMethod="reflect"><stop offset="0" stop-color="#6dc7ff"/><stop offset="1" stop-color="#e6abff"/></linearGradient><circle cx="32" cy="32" r="8" fill="url(#c)"/></svg>