<svg xmlns="http://www.w3.org/2000/svg" viewBox="0 0 32 32"><path d="M16 3C8.832 3 3 8.832 3 16s5.832 13 13 13 13-5.832 13-13S23.168 3 16 3zm-1.125 2.063c.043-.004.082.003.125 0v6.03c-2.273.47-4 2.5-4 4.907 0 2.75 2.25 5 5 5 .746 0 1.453-.172 2.094-.469l4.375 4.375A10.94 10.94 0 0 1 16 27C9.914 27 5 22.086 5 16a10.98 10.98 0 0 1 9.875-10.938zm2.125 0A10.956 10.956 0 0 1 26.938 15h-6.032A5.06 5.06 0 0 0 17 11.094zM16 13c1.668 0 3 1.332 3 3s-1.332 3-3 3-3-1.332-3-3 1.332-3 3-3zm4.906 4h6.032A10.927 10.927 0 0 1 24 23.563l-4.281-4.282c.57-.644 1.008-1.41 1.187-2.281z"/></svg>