<svg xmlns="http://www.w3.org/2000/svg" viewBox="0 0 64 64"><path d="M6 8.07a1 1 0 0 0-1 1v2.004a1 1 0 1 0 2 0V9.07a1 1 0 0 0-1-1zm5 0a1 1 0 0 0-1 1v2.004a1 1 0 1 0 2 0V9.07a1 1 0 0 0-1-1zm5 0a1 1 0 0 0-1 1v2.004a1 1 0 1 0 2 0V9.07a1 1 0 0 0-1-1zm5 0a1 1 0 0 0-1 1v2.004a1 1 0 1 0 2 0V9.07a1 1 0 0 0-1-1zm5 0a1 1 0 0 0-1 1v2.004a1 1 0 1 0 2 0V9.07a1 1 0 0 0-1-1zm5 0a1 1 0 0 0-1 1v2.004a1 1 0 1 0 2 0V9.07a1 1 0 0 0-1-1zm5 0a1 1 0 0 0-1 1v2.004a1 1 0 1 0 2 0V9.07a1 1 0 0 0-1-1zm5 0a1 1 0 0 0-1 1v2.004a1 1 0 1 0 2 0V9.07a1 1 0 0 0-1-1zm5 0a1 1 0 0 0-1 1v2.004a1 1 0 1 0 2 0V9.07a1 1 0 0 0-1-1zm5 0a1 1 0 0 0-1 1v2.004a1 1 0 1 0 2 0V9.07a1 1 0 0 0-1-1zm5 0a1 1 0 0 0-1 1v2.004a1 1 0 1 0 2 0V9.07a1 1 0 0 0-1-1zm5 0a1 1 0 0 0-1 1v2.004a1 1 0 1 0 2 0V9.07a1 1 0 0 0-1-1zM8.047 16.055a3 3 0 0 0-2.75 1.804l-1.215 2.797c-.137.309-.102.664.082.95.184.277.5.449.836.394h9c1.934.055 3 .766 3 2.082.004.148.059 3.684-4 3.973h-2.719l.688-2.758A.997.997 0 0 0 10 24.055H4c-.418 0-.79.258-.938.648L1.079 30a2.996 2.996 0 0 0 .344 2.766c.558.804 1.48 1.289 2.465 1.234h7.086c.574.086 7.355.324 11.43-3.527a9.13 9.13 0 0 0 2.363-3.625l2.148 5.578a2.982 2.982 0 0 0 2.805 1.922c.828 0 1.617-.34 2.191-.957L42.437 22H53c1.934.055 3 .766 3 2.082.004.148.059 3.684-4 3.973h-2.719l.688-2.758A.997.997 0 0 0 49 24.055h-6c-.418 0-.79.258-.938.648L40.078 30a2.996 2.996 0 0 0 .344 2.766 2.994 2.994 0 0 0 2.465 1.289l7.039-.004c.297.023 7.285.496 11.32-3.254C63.074 29.105 64 26.832 64 24.055c0-5.086-3.645-8-10-8H40.89c-.85 0-1.663.363-2.23.992l-7.328 8.144-2.898-7.253a2.992 2.992 0 0 0-2.79-1.883zm0 1.945h17.598c.41.055.777.3.93.684l3.495 8.742a1 1 0 0 0 1.672.297l8.406-9.336c.188-.211.461-.332.743-.387H54c3.648.055 8 1.094 8 6.055 0 2.199-.707 3.972-2.11 5.273-3.39 3.156-9.753 2.735-9.89 2.727h-7.113a.994.994 0 0 1-.934-1.352l1.738-4.648h4.028l-.688 2.758A.997.997 0 0 0 48 30.055l4.07-.004c4.817-.336 5.985-4.09 5.93-5.996 0-1.934-1.313-4-5-4H42a1.01 1.01 0 0 0-.734.32l-10.82 11.652a.988.988 0 0 1-.919.301.988.988 0 0 1-.746-.625l-3.472-9.008a1.005 1.005 0 0 0-1.118-.625c-.472.09-.816.504-.816.985 0 2.48-.79 4.488-2.344 5.96-3.531 3.344-9.91 3.04-9.98 3.044-.016-.004-.035-.004-.051-.004H3.887a.994.994 0 0 1-.934-1.352l1.742-4.648H8.72l-.688 2.758A.996.996 0 0 0 9 30.055l4.07-.004c4.817-.34 5.985-4.09 5.93-5.996 0-1.934-1.313-4-5-4H6.523l.606-1.399c.16-.367.52-.601.918-.656zM31 40.055c-10.375 0-30 1.465-30 7s19.625 7 30 7 30-1.465 30-7-19.625-7-30-7zm0 2c18.117 0 28 3.304 28 5 0 1.695-9.883 5-28 5s-28-3.305-28-5c0-1.696 9.883-5 28-5zm-5 4c-.555 0-1 .445-1 1 0 .554.445 1 1 1h9c.555 0 1-.446 1-1 0-.555-.445-1-1-1z"/></svg>