<svg xmlns="http://www.w3.org/2000/svg" viewBox="0 0 16 16"><path style="line-height:normal;text-indent:0;text-align:start;text-decoration-line:none;text-decoration-style:solid;text-decoration-color:#000;text-transform:none;block-progression:tb;isolation:auto;mix-blend-mode:normal" d="M3.5 1C2.677 1 2 1.677 2 2.5v10c0 .823.677 1.5 1.5 1.5h9c.823 0 1.5-.677 1.5-1.5v-10c0-.823-.677-1.5-1.5-1.5h-9zm0 1h9c.281 0 .5.219.5.5V5H3V2.5c0-.281.219-.5.5-.5zM7 3v1h2V3H7zM3 6h10v3H3V6zm4 1v1h2V7H7zm-4 3h10v2.5c0 .281-.219.5-.5.5h-9a.493.493 0 0 1-.5-.5V10zm4 1v1h2v-1H7z"/></svg>