<svg xmlns="http://www.w3.org/2000/svg" viewBox="0 0 64 64"><path d="M23 4c-1.652 0-3 1.348-3 3v12c0 1.652 1.348 3 3 3h7v6H11c-1.652 0-3 1.348-3 3v3H3c-1.652 0-3 1.348-3 3v14c0 1.652 1.348 3 3 3h12c1.652 0 3-1.348 3-3V37c0-1.652-1.348-3-3-3h-5v-3c0-.55.45-1 1-1h19v10h-5c-1.652 0-3 1.348-3 3v14c0 1.652 1.348 3 3 3h12c1.652 0 3-1.348 3-3V43c0-1.652-1.348-3-3-3h-5V30h19c.55 0 1 .45 1 1v3h-5c-1.652 0-3 1.348-3 3v14c0 1.652 1.348 3 3 3h12c1.652 0 3-1.348 3-3V37c0-1.652-1.348-3-3-3h-5v-3c0-1.652-1.348-3-3-3H32v-6h7c1.652 0 3-1.348 3-3V7c0-1.652-1.348-3-3-3zm0 2h16c.55 0 1 .45 1 1v12c0 .55-.45 1-1 1H23c-.55 0-1-.45-1-1V7c0-.55.45-1 1-1zm3 8a1 1 0 0 0-1 1v2a1 1 0 1 0 2 0v-2a1 1 0 0 0-1-1zm5 0a1 1 0 0 0-1 1v2a1 1 0 1 0 2 0v-2a1 1 0 0 0-1-1zm5 0a1 1 0 0 0-1 1v2a1 1 0 1 0 2 0v-2a1 1 0 0 0-1-1zM3 36h12c.55 0 1 .45 1 1v14c0 .55-.45 1-1 1H3c-.55 0-1-.45-1-1V37c0-.55.45-1 1-1zm44 0h12c.55 0 1 .45 1 1v14c0 .55-.45 1-1 1H47c-.55 0-1-.45-1-1V37c0-.55.45-1 1-1zm-22 6h12c.55 0 1 .45 1 1v14c0 .55-.45 1-1 1H25c-.55 0-1-.45-1-1V43c0-.55.45-1 1-1zM5 48a1 1 0 1 0 0 2h8a1 1 0 1 0 0-2zm44 0a1 1 0 1 0 0 2h8a1 1 0 1 0 0-2zm-22 6a1 1 0 1 0 0 2h8a1 1 0 1 0 0-2z"/></svg>