<svg xmlns="http://www.w3.org/2000/svg" viewBox="0 0 40 40"><path d="M1.84 23.5A18.4 18.4 0 0 1 6.453 7.43l.328-.356L4.207 4.5H12.5v8.293L9.605 9.898l-.351.391A14.436 14.436 0 0 0 5.5 20c0 1.176.145 2.348.434 3.5z" fill="#dff0fe"/><path d="M12 5v6.586l-2.41-2.41-.707.777A14.944 14.944 0 0 0 5.305 23H2.258A17.783 17.783 0 0 1 2 20c0-4.547 1.71-8.89 4.82-12.23l.657-.707L5.414 5H12m1-1H3l3.086 3.086C2.937 10.476 1 15.008 1 20c0 1.371.152 2.71.43 4h5.16a13.917 13.917 0 0 1 3.035-13.375L13 14z" fill="#4788c7"/><path d="M27.207 12.5l2.895-2.895-.391-.351A14.436 14.436 0 0 0 20 5.5c-1.176 0-2.348.145-3.5.434V1.84a18.392 18.392 0 0 1 16.07 4.613l.356.328L35.5 4.207V12.5z" fill="#dff0fe"/><path d="M20 2c4.547 0 8.89 1.71 12.23 4.82l.708.657L35 5.414V12h-6.586l2.41-2.41-.777-.707A14.944 14.944 0 0 0 17 5.305V2.258A17.783 17.783 0 0 1 20 2m0-1c-1.371 0-2.71.152-4 .43v5.16a13.917 13.917 0 0 1 13.375 3.035L26 13h10V3l-3.086 3.086C29.524 2.937 24.992 1 20 1z" fill="#4788c7"/><path d="M27.5 35.5v-8.293l2.895 2.895.351-.391A14.436 14.436 0 0 0 34.5 20c0-1.176-.145-2.348-.434-3.5h4.094a18.4 18.4 0 0 1-4.613 16.07l-.328.356 2.574 2.574z" fill="#dff0fe"/><path d="M37.742 17a17.892 17.892 0 0 1-4.562 15.23l-.657.708L34.586 35H28v-6.586l2.41 2.41.707-.777A14.944 14.944 0 0 0 34.695 17h3.047m.828-1h-5.16a13.917 13.917 0 0 1-3.035 13.375L27 26v10h10l-3.086-3.086C37.062 29.524 39 24.992 39 20c0-1.371-.152-2.71-.43-4z" fill="#4788c7"/><path d="M20 38.5c-4.672 0-9.14-1.758-12.57-4.953l-.356-.328L4.5 35.793V27.5h8.293l-2.895 2.895.391.351A14.436 14.436 0 0 0 20 34.5c1.176 0 2.348-.145 3.5-.434v4.094c-1.168.227-2.344.34-3.5.34z" fill="#dff0fe"/><path d="M11.586 28l-2.41 2.41.777.707A14.944 14.944 0 0 0 23 34.695v3.047A17.783 17.783 0 0 1 20 38c-4.547 0-8.89-1.71-12.23-4.82l-.707-.657L5 34.586V28h6.586M14 27H4v10l3.086-3.086C10.476 37.062 15.008 39 20 39c1.371 0 2.71-.152 4-.43v-5.16a13.917 13.917 0 0 1-13.375-3.035z" fill="#4788c7"/></svg>