<svg xmlns="http://www.w3.org/2000/svg" viewBox="0 0 64 64"><path d="M9 2C7.348 2 6 3.348 6 5v35.84c0 .883.234 1.75.676 2.512l1.867 3.21c.184.317.18.708-.008 1.02l-1.824 3.04A4.994 4.994 0 0 0 6 53.191V59c0 1.652 1.348 3 3 3h46c1.652 0 3-1.348 3-3v-5.809c0-.906-.246-1.796-.715-2.574L55.47 47.59a1.001 1.001 0 0 1 0-1.024l1.84-3.117c.453-.77.691-1.648.691-2.543V5c0-1.652-1.348-3-3-3zm0 2h46c.55 0 1 .45 1 1v35.906c0 .535-.145 1.063-.418 1.528l-1.84 3.113a3.004 3.004 0 0 0 .012 3.07l1.82 3.028c.278.468.426 1.003.426 1.546V59c0 .55-.45 1-1 1H9c-.55 0-1-.45-1-1v-3h5.48c.032.09.06.176.098.266A2.977 2.977 0 0 0 16.301 58h5.37a2.998 2.998 0 0 0 2.767-1.836l.07-.164H46c.555 0 1-.445 1-1 0-.555-.445-1-1-1H25.348l2.695-6.402A20 20 0 0 0 32 48c11.027 0 20-8.973 20-20S43.027 8 32 8s-20 8.973-20 20c0 6.781 3.375 13 9.035 16.719l-7.031 8.347c-.238.282-.41.602-.531.934H8v-.809c0-.543.148-1.078.43-1.546l1.82-3.036a2.99 2.99 0 0 0 .02-3.047l-1.864-3.218A2.985 2.985 0 0 1 8 40.84V5c0-.55.45-1 1-1zm4 3a1.999 1.999 0 1 0 0 4 1.999 1.999 0 1 0 0-4zm38 0a1.999 1.999 0 1 0 0 4 1.999 1.999 0 1 0 0-4zm-19 3c9.926 0 18 8.074 18 18s-8.074 18-18 18c-1.066 0-2.125-.094-3.164-.281L31.03 40.5a2.53 2.53 0 0 0-.218-2.375A2.526 2.526 0 0 0 28.71 37h-.004c-.746 0-1.45.328-1.926.895l-4.453 5.289C17.113 39.855 14 34.184 14 28c0-9.926 8.074-18 18-18zm-.078 4a14.19 14.19 0 0 0-4.457.75 1 1 0 0 0-.621 1.27c.14.418.531.68.945.68.106 0 .219-.02.324-.06 2.45-.84 5.188-.85 7.653-.038.52.175 1.09-.11 1.265-.633a1.002 1.002 0 0 0-.64-1.266A13.995 13.995 0 0 0 31.92 14zm8.015 2.8a1.01 1.01 0 0 0-.671.372 1.004 1.004 0 0 0 .168 1.406c.574.453 1.113.969 1.597 1.52.2.23.477.343.754.343a1.002 1.002 0 0 0 .75-1.66 13.761 13.761 0 0 0-1.863-1.77.988.988 0 0 0-.734-.21zM32 20c-4.41 0-8 3.59-8 8s3.59 8 8 8 8-3.59 8-8-3.59-8-8-8zm0 2c3.309 0 6 2.691 6 6s-2.691 6-6 6-6-2.691-6-6 2.691-6 6-6zm-12.172.34a1 1 0 0 0-.324 1.934l1.867.714a.98.98 0 0 0 .36.07 1 1 0 0 0 .359-1.933l-1.867-.719a.988.988 0 0 0-.395-.066zM32 26a1.999 1.999 0 1 0 0 4 1.999 1.999 0 1 0 0-4zm-11.016 1.191l-2 .036c-.55.011-.992.464-.984 1.02.012.542.457.98 1 .98h.02l2-.036a.996.996 0 0 0 .98-1.015c-.008-.555-.445-.946-1.016-.985zm.887 4.106a1.12 1.12 0 0 0-.387.078l-1.843.781a1.005 1.005 0 0 0-.532 1.313 1.003 1.003 0 0 0 1.313.531l1.844-.781c.507-.215.746-.805.53-1.313a1.005 1.005 0 0 0-.925-.61zm2.348 3.48a.991.991 0 0 0-.703.293l-1.414 1.414a1 1 0 1 0 1.414 1.414l1.414-1.414a1 1 0 0 0-.711-1.707zM28.707 39h.004c.242 0 .375.145.434.234.058.086.14.262.043.485l-6.594 15.668c-.157.37-.52.613-.922.613h-5.375a.986.986 0 0 1-.906-.578.98.98 0 0 1 .144-1.063l12.777-15.172a.504.504 0 0 1 .395-.187zM51 53a1.999 1.999 0 1 0 0 4 1.999 1.999 0 1 0 0-4z"/></svg>