<svg xmlns="http://www.w3.org/2000/svg" viewBox="0 0 80 80"><path d="M35.168 5.148a.993.993 0 0 0-.727.297 1.007 1.007 0 0 0 0 1.414 1.011 1.011 0 0 0 1.418 0 1.007 1.007 0 0 0 0-1.414 1.015 1.015 0 0 0-.691-.297zm31.695.004a1 1 0 1 0-.016 2c.266 0 .52-.105.712-.293a1.007 1.007 0 0 0 0-1.414 1.013 1.013 0 0 0-.696-.293zM51 7c-7.719 0-14 6.281-14 14 0 4.758 1.945 7.602 3.77 9.559.914.976 1.78 1.757 2.367 2.468.582.707.863 1.266.863 1.973v6c0 2.2 1.8 4 4 4h1.277c.348.594.985 1 1.723 1 .738 0 1.375-.406 1.723-1H54c2.2 0 4-1.8 4-4v-6c0-.707.281-1.266.863-1.973.586-.71 1.453-1.492 2.367-2.468C63.055 28.602 65 25.758 65 21c0-7.719-6.281-14-14-14zm13.035.977a.991.991 0 0 0-.722.296 1 1 0 0 0 0 1.415c.39.386 1.023.386 1.414 0a1 1 0 0 0 0-1.415 1 1 0 0 0-.692-.296zm-26.039.003a1.006 1.006 0 0 0-.726.293 1.007 1.007 0 0 0 0 1.415c.39.39 1.027.39 1.417 0a1.007 1.007 0 0 0 0-1.415 1.01 1.01 0 0 0-.69-.293zM51 9c6.64 0 12 5.36 12 12 0 4.242-1.555 6.398-3.23 8.191-.836.899-1.72 1.68-2.446 2.563C56.594 32.64 56 33.707 56 35h-2V23.582c1.105-.441 2-1.324 2-2.582 0-1.645-1.355-3-3-3-.777 0-1.465.34-2 .832-.535-.492-1.223-.832-2-.832-1.645 0-3 1.355-3 3 0 1.258.895 2.14 2 2.582V35h-2c0-1.293-.594-2.36-1.324-3.246-.727-.883-1.61-1.664-2.446-2.563C40.555 27.398 39 25.242 39 21c0-6.64 5.36-12 12-12zm16.715 4.492c-.137 0-.27.024-.39.074a1.003 1.003 0 0 0 .765 1.852c.508-.215.75-.797.539-1.309a1 1 0 0 0-.914-.617zm-33.403.004a.99.99 0 0 0-.94.613c-.212.512.03 1.094.538 1.309a1.003 1.003 0 0 0 .766-1.852.955.955 0 0 0-.364-.07zM29 20c-.55 0-1 .45-1 1s.45 1 1 1 1-.45 1-1-.45-1-1-1zm4 0c-.55 0-1 .45-1 1s.45 1 1 1 1-.45 1-1-.45-1-1-1zm16 0c.566 0 1 .434 1 1h2c0-.566.434-1 1-1 .566 0 1 .434 1 1 0 .566-.434 1-1 1h-1v13h-2V22h-1c-.566 0-1-.434-1-1 0-.566.434-1 1-1zm20 0c-.55 0-1 .45-1 1s.45 1 1 1 1-.45 1-1-.45-1-1-1zm4 0c-.55 0-1 .45-1 1s.45 1 1 1 1-.45 1-1-.45-1-1-1zm-5.27 6.504a.997.997 0 0 0-.406 1.922.992.992 0 0 0 1.305-.54.998.998 0 0 0-.899-1.382zm-33.43 0a1.003 1.003 0 0 0-.93 1.387 1 1 0 1 0 .93-1.387zm3.696 5.516a1.006 1.006 0 0 0-.726.292 1.012 1.012 0 0 0 0 1.418 1.01 1.01 0 0 0 1.417 0 1.012 1.012 0 0 0 0-1.417 1.028 1.028 0 0 0-.69-.293zm26.04 0a1.003 1.003 0 0 0-.724 1.71 1.007 1.007 0 0 0 1.415 0 1 1 0 0 0-.691-1.71zm-28.872 2.828a1.003 1.003 0 0 0-1.016 1c0 .265.106.52.293.71a1.011 1.011 0 0 0 1.418 0 1 1 0 0 0-.695-1.71zm31.7 0a1.003 1.003 0 1 0 .695 1.71 1.012 1.012 0 0 0 0-1.417 1.013 1.013 0 0 0-.696-.293zM46 37h10v2h-6v2h6c0 1.117-.883 2-2 2h-6c-1.117 0-2-.883-2-2h2v-2h-2zm-23 2a7.9 7.9 0 0 0-2.781.512c-.032.004.008-.016-.106.02l.028-.009c-2.164.657-12.407 3.512-12.407 3.512a.998.998 0 0 0-.734.711 1 1 0 0 0 1.266 1.219s10.015-2.79 12.386-3.508a.952.952 0 0 0 .207-.055 5.939 5.939 0 0 1 5.145.41c.035.024.074.04.11.055l.023.012c6.3 2.976 19.101 9.383 19.133 9.402h.007c-.062-.031-.054-.027.067.051l.066.043c.95.512 1.59 1.48 1.59 2.625a2.96 2.96 0 0 1-.48 1.621c-.88 1.367-2.583 1.656-4.172.89a.188.188 0 0 1-.055-.027l-.684-.277a.996.996 0 0 0-1.011.121.997.997 0 0 0-.383.942 1 1 0 0 0 .64.792l.68.278-.055-.028c2.012.97 4.47.75 6.04-.78l1.09.745a1 1 0 0 0 .949.098l16.406-6.781-.418-.832a1 1 0 0 0 1.285.472A2.97 2.97 0 0 1 68 51c1.668 0 3 1.332 3 3 0 1.14-.637 2.105-1.574 2.621a.994.994 0 0 0-.43 1.281l-.375-.843-19.715 10.464c.032-.015.004-.003-.043.012-.047.016-.093.031-.136.055A3.97 3.97 0 0 1 47 68c-.59 0-1.145-.137-1.66-.375-.024-.008-.047-.02-.07-.027-.075-.028-.086-.035-.036-.008L20.391 57.078a1.003 1.003 0 0 0-.707-.027l-12 4a1.001 1.001 0 0 0 .632 1.898l11.641-3.883L44.43 69.418c.152.07.183.07.148.055.73.328 1.55.527 2.422.527.941 0 1.82-.234 2.594-.61.058-.019.113-.03.187-.07.012-.004.024-.011.032-.015L70.379 58.39a.999.999 0 0 0 .398-.387C72.067 57.105 73 55.695 73 54c0-2.75-2.25-5-5-5-.547 0-1.055.148-1.547.313h-.004a.938.938 0 0 0-.386.078l-16.77 6.93-.824-.56c.23-.57.531-1.113.531-1.761 0-1.898-1.082-3.547-2.64-4.387l.07.043c.035.02-.032-.043-.211-.14a.19.19 0 0 0-.028-.012s-12.863-6.445-19.222-9.445a.085.085 0 0 1-.02-.012 1.025 1.025 0 0 0-.07-.027A7.941 7.941 0 0 0 23 39zm6 13c-.55 0-1 .45-1 1s.45 1 1 1 1-.45 1-1-.45-1-1-1zm3 1c-.55 0-1 .45-1 1s.45 1 1 1 1-.45 1-1-.45-1-1-1zm3 1c-.55 0-1 .45-1 1s.45 1 1 1 1-.45 1-1-.45-1-1-1zm3 1c-.55 0-1 .45-1 1s.45 1 1 1 1-.45 1-1-.45-1-1-1z"/></svg>