<svg xmlns="http://www.w3.org/2000/svg" viewBox="0 0 64 64"><linearGradient id="a" gradientUnits="userSpaceOnUse" x1="31.716" y1="11.17" x2="32.216" y2="53.045" spreadMethod="reflect"><stop offset="0" stop-color="#1a6dff"/><stop offset="1" stop-color="#c822ff"/></linearGradient><path d="M56 39h-2v11H43V39.899A5.009 5.009 0 0 0 47 35c0-1.328-.529-2.53-1.378-3.427l6.606-8.257A5.983 5.983 0 0 0 54 23.91V35h2V23.91c2.833-.478 5-2.942 5-5.91 0-3.309-2.691-6-6-6s-6 2.691-6 6c0 1.588.625 3.03 1.635 4.104l-6.649 8.312a4.969 4.969 0 0 0-4.739.417l-9.362-9.362A5.961 5.961 0 0 0 31 18c0-3.309-2.691-6-6-6s-6 2.691-6 6c0 1.294.416 2.49 1.115 3.471l-9.362 9.362A4.969 4.969 0 0 0 8 30c-2.757 0-5 2.243-5 5a5.01 5.01 0 0 0 4 4.899V50H3v2h58v-2h-5V39zm-1-25c2.206 0 4 1.794 4 4s-1.794 4-4 4-4-1.794-4-4 1.794-4 4-4zM42 32c1.654 0 3 1.346 3 3s-1.346 3-3 3-3-1.346-3-3 1.346-3 3-3zM25 14c2.206 0 4 1.794 4 4s-1.794 4-4 4-4-1.794-4-4 1.794-4 4-4zM5 35c0-1.654 1.346-3 3-3s3 1.346 3 3-1.346 3-3 3-3-1.346-3-3zm4 4.899A5.009 5.009 0 0 0 13 35a4.969 4.969 0 0 0-.833-2.753l9.362-9.362A5.964 5.964 0 0 0 24 23.91V35h2V23.91a5.964 5.964 0 0 0 2.471-1.025l9.362 9.362A4.969 4.969 0 0 0 37 35a5.01 5.01 0 0 0 4 4.899V50H26V39h-2v11H9V39.899z" fill="url(#a)"/><linearGradient id="b" gradientUnits="userSpaceOnUse" x1="25" y1="15.667" x2="25" y2="20.692" spreadMethod="reflect"><stop offset="0" stop-color="#6dc7ff"/><stop offset="1" stop-color="#e6abff"/></linearGradient><circle cx="25" cy="18" r="2" fill="url(#b)"/><linearGradient id="c" gradientUnits="userSpaceOnUse" x1="55" y1="15.667" x2="55" y2="20.692" spreadMethod="reflect"><stop offset="0" stop-color="#6dc7ff"/><stop offset="1" stop-color="#e6abff"/></linearGradient><circle cx="55" cy="18" r="2" fill="url(#c)"/><linearGradient id="d" gradientUnits="userSpaceOnUse" x1="42" y1="31.833" x2="42" y2="38.342" spreadMethod="reflect"><stop offset="0" stop-color="#6dc7ff"/><stop offset="1" stop-color="#e6abff"/></linearGradient><circle cx="42" cy="35" r="3" fill="url(#d)"/><linearGradient id="e" gradientUnits="userSpaceOnUse" x1="8" y1="31.833" x2="8" y2="38.342" spreadMethod="reflect"><stop offset="0" stop-color="#6dc7ff"/><stop offset="1" stop-color="#e6abff"/></linearGradient><circle cx="8" cy="35" r="3" fill="url(#e)"/></svg>