<svg xmlns="http://www.w3.org/2000/svg" viewBox="0 0 80 80"><path d="M27 12c-2.75 0-5 2.25-5 5 0 .879.25 1.691.652 2.41l-6.605 5.66A4.929 4.929 0 0 0 13 24c-2.75 0-5 2.25-5 5s2.25 5 5 5 5-2.25 5-5a4.91 4.91 0 0 0-.652-2.41l6.605-5.66A4.929 4.929 0 0 0 27 22c.95 0 1.828-.281 2.586-.746l6.36 6.848A4.946 4.946 0 0 0 35 31c0 2.75 2.25 5 5 5s5-2.25 5-5a4.96 4.96 0 0 0-.441-2.027l6.05-4.325A4.967 4.967 0 0 0 54 26c1.883 0 3.508-1.066 4.36-2.61l3.663 1.126A5.015 5.015 0 0 0 67 30c2.75 0 5-2.25 5-5s-2.25-5-5-5c-1.883 0-3.508 1.066-4.36 2.61l-3.663-1.126A5.015 5.015 0 0 0 54 16c-2.75 0-5 2.25-5 5 0 .723.164 1.406.441 2.027l-6.05 4.325A4.967 4.967 0 0 0 40 26c-.95 0-1.828.281-2.586.746l-6.36-6.848c.59-.82.946-1.816.946-2.898 0-2.75-2.25-5-5-5zm0 2c1.668 0 3 1.332 3 3s-1.332 3-3 3-3-1.332-3-3 1.332-3 3-3zm0 2c-.55 0-1 .45-1 1s.45 1 1 1 1-.45 1-1-.45-1-1-1zm27 2c1.668 0 3 1.332 3 3s-1.332 3-3 3-3-1.332-3-3 1.332-3 3-3zm0 2c-.55 0-1 .45-1 1s.45 1 1 1 1-.45 1-1-.45-1-1-1zm13 2c1.668 0 3 1.332 3 3s-1.332 3-3 3-3-1.332-3-3 1.332-3 3-3zm0 2c-.55 0-1 .45-1 1s.45 1 1 1 1-.45 1-1-.45-1-1-1zm-54 2c1.668 0 3 1.332 3 3s-1.332 3-3 3-3-1.332-3-3 1.332-3 3-3zm0 2c-.55 0-1 .45-1 1s.45 1 1 1 1-.45 1-1-.45-1-1-1zm27 0c1.668 0 3 1.332 3 3s-1.332 3-3 3-3-1.332-3-3 1.332-3 3-3zm0 2c-.55 0-1 .45-1 1s.45 1 1 1 1-.45 1-1-.45-1-1-1zm27 10c-2.75 0-5 2.25-5 5 0 1.344.543 2.566 1.418 3.469l-7.477 10.926h-.004A4.92 4.92 0 0 0 54 59c-1.227 0-2.34.465-3.21 1.203l-6.337-4.98A4.958 4.958 0 0 0 45 53c0-2.75-2.25-5-5-5-1.762 0-3.309.93-4.2 2.313l-3.874-1.489A4.79 4.79 0 0 0 32 48c0-2.75-2.25-5-5-5s-5 2.25-5 5c0 .543.11 1.059.27 1.547l-5.536 3.168C15.816 51.672 14.488 51 13 51c-2.75 0-5 2.25-5 5s2.25 5 5 5 5-2.25 5-5c0-.543-.11-1.059-.27-1.55l5.536-3.165C24.184 52.328 25.512 53 27 53a4.991 4.991 0 0 0 4.2-2.313l3.874 1.489A4.79 4.79 0 0 0 35 53c0 2.75 2.25 5 5 5 1.227 0 2.34-.465 3.21-1.203l6.337 4.976A4.936 4.936 0 0 0 49 64c0 2.75 2.25 5 5 5s5-2.25 5-5a4.973 4.973 0 0 0-1.418-3.469l7.477-10.926h.004A4.92 4.92 0 0 0 67 50c2.75 0 5-2.25 5-5s-2.25-5-5-5zm0 2c1.668 0 3 1.332 3 3s-1.332 3-3 3-3-1.332-3-3 1.332-3 3-3zm0 2c-.55 0-1 .45-1 1s.45 1 1 1 1-.45 1-1-.45-1-1-1zm-40 1c1.668 0 3 1.332 3 3s-1.332 3-3 3-3-1.332-3-3 1.332-3 3-3zm0 2c-.55 0-1 .45-1 1s.45 1 1 1 1-.45 1-1-.45-1-1-1zm13 3c1.668 0 3 1.332 3 3s-1.332 3-3 3-3-1.332-3-3 1.332-3 3-3zm0 2c-.55 0-1 .45-1 1s.45 1 1 1 1-.45 1-1-.45-1-1-1zm-27 1c1.668 0 3 1.332 3 3s-1.332 3-3 3-3-1.332-3-3 1.332-3 3-3zm0 2c-.55 0-1 .45-1 1s.45 1 1 1 1-.45 1-1-.45-1-1-1zm41 6c1.668 0 3 1.332 3 3s-1.332 3-3 3-3-1.332-3-3 1.332-3 3-3zm0 2c-.55 0-1 .45-1 1s.45 1 1 1 1-.45 1-1-.45-1-1-1z"/></svg>