<svg xmlns="http://www.w3.org/2000/svg" viewBox="0 0 64 64"><path d="M7 8c-1.652 0-3 1.348-3 3v42c0 1.652 1.348 3 3 3h50c1.652 0 3-1.348 3-3V11c0-1.652-1.348-3-3-3zm0 2h50c.55 0 1 .45 1 1v42c0 .55-.45 1-1 1H7c-.55 0-1-.45-1-1v-3.586l5.715-5.715c.39.188.824.301 1.285.301.918 0 1.73-.426 2.281-1.078l2.723 1.023c0 .02-.004.035-.004.055 0 1.652 1.348 3 3 3s3-1.348 3-3c0-.355-.074-.691-.188-1.012l6.641-5.43c.453.274.98.442 1.547.442.613 0 1.184-.188 1.66-.504l3.492 2.613c-.09.286-.152.578-.152.891 0 1.652 1.348 3 3 3s3-1.348 3-3c0-.613-.188-1.184-.504-1.66l5.613-7.492c.286.09.578.152.891.152 1.652 0 3-1.348 3-3s-1.348-3-3-3-3 1.348-3 3c0 .613.188 1.184.504 1.66l-5.613 7.492A2.938 2.938 0 0 0 40 38c-.613 0-1.184.188-1.66.504l-3.492-2.613c.09-.286.152-.578.152-.891 0-1.652-1.348-3-3-3s-3 1.348-3 3c0 .355.074.691.188 1.012l-6.641 5.43A2.988 2.988 0 0 0 21 41c-.918 0-1.73.426-2.281 1.078l-2.723-1.023c0-.02.004-.035.004-.055 0-1.652-1.348-3-3-3s-3 1.348-3 3c0 .46.113.895.3 1.285l-4.3 4.3V20h41a1 1 0 1 0 0-2H6v-7c0-.55.45-1 1-1zm3 2a1 1 0 0 0-1 1v2a1 1 0 1 0 2 0v-2a1 1 0 0 0-1-1zm5 0a1 1 0 0 0-1 1v2a1 1 0 1 0 2 0v-2a1 1 0 0 0-1-1zm5 0a1 1 0 0 0-1 1v2a1 1 0 1 0 2 0v-2a1 1 0 0 0-1-1zm5 0a1 1 0 0 0-1 1v2a1 1 0 1 0 2 0v-2a1 1 0 0 0-1-1zm5 0a1 1 0 0 0-1 1v2a1 1 0 1 0 2 0v-2a1 1 0 0 0-1-1zm5 0a1 1 0 0 0-1 1v2a1 1 0 1 0 2 0v-2a1 1 0 0 0-1-1zm5 0a1 1 0 0 0-1 1v2a1 1 0 1 0 2 0v-2a1 1 0 0 0-1-1zm5 0a1 1 0 0 0-1 1v2a1 1 0 1 0 2 0v-2a1 1 0 0 0-1-1zm5 0a1 1 0 0 0-1 1v2a1 1 0 1 0 2 0v-2a1 1 0 0 0-1-1zm5 0a1 1 0 0 0-1 1v2a1 1 0 1 0 2 0v-2a1 1 0 0 0-1-1zm-4 6a1 1 0 1 0 0 2h4a1 1 0 1 0 0-2zm-2 9.832a1.169 1.169 0 1 1-.001 2.337A1.169 1.169 0 0 1 49 27.832zm-17 6.023a1.144 1.144 0 1 1 0 2.29 1.144 1.144 0 1 1 0-2.29zm-19 5.977a1.169 1.169 0 1 1-.001 2.337A1.169 1.169 0 0 1 13 39.832zm27 0a1.169 1.169 0 1 1-.001 2.337A1.169 1.169 0 0 1 40 39.832zm-19 3a1.169 1.169 0 1 1-.001 2.337A1.169 1.169 0 0 1 21 42.832z"/></svg>