<svg xmlns="http://www.w3.org/2000/svg" viewBox="0 0 26 26"><path d="M3 0a3 3 0 1 0 1.75 5.438l4.406 4.406a4.917 4.917 0 0 0-.344 5.875L5 18.78A2.969 2.969 0 0 0 3 18a3 3 0 1 0 3 3c0-.54-.16-1.031-.406-1.469l3.843-3.062C10.348 17.402 11.595 18 13 18a4.9 4.9 0 0 0 1.781-.344l1.469 2.907A3 3 0 1 0 18 20c-.313 0-.594.07-.875.156l-1.469-2.937a5.048 5.048 0 0 0 2.094-2.75l2.25.437V15a3 3 0 1 0 3-3c-1.277 0-2.348.813-2.781 1.938l-2.25-.47c.015-.155.031-.308.031-.468 0-1.918-1.102-3.566-2.688-4.406l1.063-2.656c.203.042.406.062.625.062a3 3 0 1 0-1.563-.438L14.376 8.22A4.845 4.845 0 0 0 13 8a4.917 4.917 0 0 0-3.156 1.156L5.438 4.75A3 3 0 0 0 3 0z"/></svg>