<svg xmlns="http://www.w3.org/2000/svg" viewBox="0 0 50 50"><path d="M.906-.031C.863-.023.82-.011.781 0A1.002 1.002 0 0 0 0 1v49h49c.36.004.695-.184.879-.496a1.01 1.01 0 0 0 0-1.008c-.184-.312-.52-.5-.879-.496h-.5c-4.113 0-6.527-1.824-8.375-4.75-1.848-2.926-2.96-6.98-3.938-11.125-.976-4.145-1.835-8.36-3.374-11.656-.77-1.649-1.715-3.082-3-4.125-1.286-1.043-2.91-1.657-4.813-1.657-1.902 0-3.523.614-4.813 1.657-1.289 1.043-2.257 2.476-3.03 4.125-1.548 3.293-2.391 7.511-3.376 11.656-.984 4.145-2.094 8.2-3.937 11.125-1.766 2.8-4.067 4.57-7.844 4.719V1A1 1 0 0 0 .906-.031zM25 16.687c1.496 0 2.602.442 3.563 1.22.96.777 1.75 1.933 2.437 3.405 1.375 2.95 2.266 7.102 3.25 11.282s2.094 8.433 4.188 11.75c.917 1.453 2.054 2.695 3.437 3.656H8.094c1.379-.96 2.523-2.203 3.437-3.656 2.09-3.317 3.196-7.57 4.188-11.75.992-4.18 1.867-8.332 3.25-11.282.691-1.472 1.508-2.628 2.468-3.406.961-.777 2.067-1.218 3.563-1.218z"/></svg>