<svg xmlns="http://www.w3.org/2000/svg" viewBox="0 0 40 40"><path d="M32 8H2c-.55 0-1 .45-1 1s.45 1 1 1h30v6l7-7-7-7z" fill="#4788c7"/><path d="M1.5 30.5h37" fill="none" stroke-linecap="round" stroke="#4788c7" stroke-miterlimit="10"/><path d="M9.5 30.5a3 3 0 1 1-6.002-.002A3 3 0 0 1 9.5 30.5z" fill="#dff0fe"/><path d="M6.5 28C7.879 28 9 29.121 9 30.5S7.879 33 6.5 33A2.502 2.502 0 0 1 4 30.5C4 29.121 5.121 28 6.5 28m0-1a3.5 3.5 0 1 0 0 7 3.5 3.5 0 1 0 0-7z" fill="#4788c7"/><path d="M18.5 30.5a3 3 0 1 1-6.002-.002 3 3 0 0 1 6.002.002z" fill="#dff0fe"/><path d="M15.5 28c1.379 0 2.5 1.121 2.5 2.5S16.879 33 15.5 33a2.502 2.502 0 0 1-2.5-2.5c0-1.379 1.121-2.5 2.5-2.5m0-1a3.5 3.5 0 1 0 0 7 3.5 3.5 0 1 0 0-7z" fill="#4788c7"/><path d="M27.5 30.5a3 3 0 1 1-6.002-.002 3 3 0 0 1 6.002.002z" fill="#dff0fe"/><path d="M24.5 28c1.379 0 2.5 1.121 2.5 2.5S25.879 33 24.5 33a2.502 2.502 0 0 1-2.5-2.5c0-1.379 1.121-2.5 2.5-2.5m0-1a3.5 3.5 0 1 0 0 7 3.5 3.5 0 1 0 0-7z" fill="#4788c7"/><path d="M36.5 30.5a3 3 0 1 1-6.002-.002 3 3 0 0 1 6.002.002z" fill="#dff0fe"/><path d="M33.5 28c1.379 0 2.5 1.121 2.5 2.5S34.879 33 33.5 33a2.502 2.502 0 0 1-2.5-2.5c0-1.379 1.121-2.5 2.5-2.5m0-1a3.5 3.5 0 1 0 0 7 3.5 3.5 0 1 0 0-7z" fill="#4788c7"/></svg>