<svg xmlns="http://www.w3.org/2000/svg" viewBox="0 0 40 40"><path d="M5.5 38.5v-34h17.293l8.707 8.707V38.5z" fill="#b6dcfe"/><path d="M22.586 5L31 13.414V38H6V5h16.586M23 4H5v35h27V13z" fill="#4788c7"/><path d="M8.5 35.5v-34h17.293l8.707 8.707V35.5z" fill="#fff"/><path d="M25.586 2L34 10.414V35H9V2h16.586M26 1H8v35h27V10z" fill="#4788c7"/><path d="M25.5 10.5v-9h.293l8.707 8.707v.293z" fill="#dff0fe"/><path d="M26 2.414L33.586 10H26V2.414M26 1h-1v10h10v-1zm-3 27.5a1.5 1.5 0 1 1-3 0 1.5 1.5 0 0 1 3 0z" fill="#4788c7"/><path d="M18.535 18v-.43a3.572 3.572 0 0 1 7.145 0c0 3.317-4.29 3.453-4.29 7.43" fill="none" stroke-width="2" stroke="#4788c7" stroke-miterlimit="10"/></svg>