<svg xmlns="http://www.w3.org/2000/svg" viewBox="0 0 26 26"><path d="M18.656 2.219a.578.578 0 0 0-.625.594v2.624S.938 5.845.72 6c-.32.227-.531.387-.531 1s.21.805.53 1.031c.22.156 17.313.438 17.313.438v2.687c0 .227.114.426.313.531a.61.61 0 0 0 .625-.03c2.418-1.634 6.726-4.173 6.812-4.282A.606.606 0 0 0 25.938 7a.615.615 0 0 0-.157-.375c-.086-.11-4.394-2.68-6.812-4.313a.597.597 0 0 0-.313-.093zM5 16c-1.293 0-2.395.844-2.813 2H.095v2h2.094c.417 1.156 1.519 2 2.812 2s2.395-.844 2.813-2h2.375c.417 1.156 1.519 2 2.812 2s2.395-.844 2.813-2h2.374c.418 1.156 1.52 2 2.813 2 1.293 0 2.395-.844 2.813-2h2.093v-2h-2.093c-.418-1.156-1.52-2-2.813-2-1.293 0-2.395.844-2.813 2h-2.375c-.417-1.156-1.519-2-2.812-2s-2.395.844-2.813 2H7.813c-.418-1.156-1.52-2-2.813-2zm0 2c.563 0 1 .438 1 1 0 .563-.438 1-1 1-.563 0-1-.438-1-1 0-.563.438-1 1-1zm8 0c.563 0 1 .438 1 1 0 .563-.438 1-1 1-.563 0-1-.438-1-1 0-.563.438-1 1-1zm8 0c.563 0 1 .438 1 1 0 .563-.438 1-1 1-.563 0-1-.438-1-1 0-.563.438-1 1-1z"/></svg>