<svg xmlns="http://www.w3.org/2000/svg" viewBox="0 0 50 50"><path d="M6 0c-.55 0-1 .45-1 1v44a1 1 0 0 0 1 1h34c.555 0 1-.445 1-1V1a1 1 0 0 0-1-1zm37 4v41c0 1.652-1.348 3-3 3H9v1a1 1 0 0 0 1 1h34c.555 0 1-.445 1-1V5a1 1 0 0 0-1-1zm-19.813 6.5c3.899 0 6.5 2.492 6.5 6.094 0 1.699-.582 3.02-1.78 4.718L25.5 24.595c-.7 1-.906 1.52-.906 2.718v1.094c0 .2-.106.407-.407.407h-2.375c-.101 0-.312-.208-.312-.407v-1.5c0-1.398.293-2.218 1.094-3.218L25 20.405c1.3-1.699 1.688-2.511 1.688-3.812 0-2-1.399-3.282-3.5-3.282-2 0-3.29 1.176-3.688 3.376 0 .199-.207.312-.406.312l-2.282-.406c-.199 0-.312-.207-.312-.407.5-3.398 2.988-5.687 6.688-5.687zm-1.375 21H24.5c.2 0 .406.105.406.406V35c0 .2-.105.406-.406.406h-2.688c-.199 0-.406-.105-.406-.406v-3.094c0-.199.106-.406.407-.406z"/></svg>