<svg xmlns="http://www.w3.org/2000/svg" viewBox="0 0 48 48"><path d="M27 17.5a8.5 8.5 0 0 1-8.5 8.5 8.499 8.499 0 0 1-8.5-8.5c0-4.695 3.805-8.5 8.5-8.5s8.5 3.805 8.5 8.5z" fill="#bbdefb"/><path d="M26 32c0 3.867-3.133 7-7 7s-7-3.133-7-7 3.133-7 7-7 7 3.133 7 7z" fill="#bbdefb"/><path d="M18 26c0 3.867-3.133 7-7 7s-7-3.133-7-7 3.133-7 7-7 7 3.133 7 7zm26-1c0 3.313-2.688 6-6 6-3.313 0-6-2.688-6-6 0-3.313 2.688-6 6-6 3.313 0 6 2.688 6 6z" fill="#bbdefb"/><path d="M36 30c0 3.313-2.688 6-6 6-3.313 0-6-2.688-6-6 0-3.313 2.688-6 6-6 3.313 0 6 2.688 6 6z" fill="#bbdefb"/><path d="M37 18.5a6.5 6.5 0 1 1-13 0 6.5 6.5 0 0 1 13 0z" fill="#bbdefb"/><path d="M30 24c0 3.867-3.133 7-7 7s-7-3.133-7-7 3.133-7 7-7 7 3.133 7 7z" fill="#bbdefb"/><path d="M27 22c0 2.21-1.79 4-4 4s-4-1.79-4-4 1.79-4 4-4 4 1.79 4 4z" fill="#3f51b5"/><path d="M25 29a1.999 1.999 0 1 1-4 0v-6a1.999 1.999 0 1 1 4 0z" fill="#3f51b5"/></svg>