<svg xmlns="http://www.w3.org/2000/svg" viewBox="0 0 16 16"><path style="line-height:normal;text-indent:0;text-align:start;text-decoration-line:none;text-decoration-style:solid;text-decoration-color:#000;text-transform:none;block-progression:tb;isolation:auto;mix-blend-mode:normal" d="M6 2C2.692 2 0 4.692 0 8s2.692 6 6 6a5.95 5.95 0 0 0 2-.35 5.95 5.95 0 0 0 2 .35c3.308 0 6-2.692 6-6s-2.692-6-6-6a5.95 5.95 0 0 0-2 .35A5.954 5.954 0 0 0 6 2zm2 1.42c1.767.77 3 2.525 3 4.58a4.988 4.988 0 0 1-3 4.58A4.988 4.988 0 0 1 5 8a4.988 4.988 0 0 1 3-4.58z" font-weight="400" font-family="sans-serif" white-space="normal" overflow="visible"/></svg>