<svg xmlns="http://www.w3.org/2000/svg" viewBox="0 0 16 16"><path style="line-height:normal;text-indent:0;text-align:start;text-decoration-line:none;text-decoration-style:solid;text-decoration-color:#000;text-transform:none;block-progression:tb;isolation:auto;mix-blend-mode:normal" d="M2.5 2C1.673 2 1 2.673 1 3.5v4c0 .651.419 1.201 1 1.408V3.5a.5.5 0 0 1 .5-.5h9.408c-.207-.581-.757-1-1.408-1h-8zm2 2C3.677 4 3 4.677 3 5.5v4c0 .823.677 1.5 1.5 1.5h2.55c-.018.166-.05.329-.05.5 0 2.48 2.02 4.5 4.5 4.5s4.5-2.02 4.5-4.5a4.5 4.5 0 0 0-2-3.738V5.5c0-.823-.677-1.5-1.5-1.5h-8zm0 1h8c.281 0 .5.219.5.5v1.775A4.443 4.443 0 0 0 11.5 7c-1.951 0-3.603 1.258-4.225 3H4.5a.493.493 0 0 1-.5-.5v-4c0-.281.219-.5.5-.5zm7 3c1.939 0 3.5 1.561 3.5 3.5S13.439 15 11.5 15A3.492 3.492 0 0 1 8 11.5C8 9.561 9.561 8 11.5 8zM11 9v2H9v1h2v2h1v-2h2v-1h-2V9h-1z" font-weight="400" font-family="sans-serif" white-space="normal" overflow="visible"/></svg>