<svg xmlns="http://www.w3.org/2000/svg" viewBox="0 0 40 40"><path d="M9 38.5A2.502 2.502 0 0 1 6.5 36V8.207L13.207 1.5H32c1.379 0 2.5 1.121 2.5 2.5v32c0 1.379-1.121 2.5-2.5 2.5z" fill="#98ccfd"/><path d="M32 2c1.102 0 2 .898 2 2v32c0 1.102-.898 2-2 2H9c-1.102 0-2-.898-2-2V8.414L13.414 2H32m0-1H13L6 8v28a3 3 0 0 0 3 3h23a3 3 0 0 0 3-3V4a3 3 0 0 0-3-3z" fill="#4788c7"/><path d="M18.012 29.016l-.328.984H14.21c-.426 0-1.54.047-1.54.477 0 .78 3.997.675 3.997 2.668 0 1.355-1.211 1.714-2.59 1.82-.59.035-1.21 0-1.8 0-1.9 0-3.278-.106-3.278-.106l.621-1.78s1.082.14 1.77.14c.656 0 2.558.215 2.558-.215 0-.711-3.148-.676-3.148-2.492 0-.926 1.77-1.426 3.277-1.426 1.543 0 3.934-.07 3.934-.07zm7.68.96l-3.243.926a.842.842 0 0 1 0 .395c-.36 1.21-3.57 1.351-3.57 1.351L18.125 35s8.059-.035 8.848-3.277c.164-.606-.395-1.246-1.282-1.746zm-2.817-.855c-1.441-.18-2.816-.105-2.816-.105l-.297.996s.851 0 1.574.215zm1.41.285l-2.328 1.032c.098.039.195.109.262.144l2.656-.96c-.195-.106-.395-.145-.59-.216zM29 4h3v7h-3zm-5 0h3v7h-3zm-5 0h3v7h-3zm-5 0h3v7h-3zm-2 2.242l-3 3V11h3z" fill="#fff"/></svg>