<svg xmlns="http://www.w3.org/2000/svg" viewBox="0 0 32 32"><path d="M6.219 6L3 18.875V26h26v-7.125L25.781 6zM7.78 8h16.44l2.5 10H5.28zm4.782 1c-2.208 0-4 1.793-4 4s1.792 4 4 4a3.958 3.958 0 0 0 3.218-1.656A3.958 3.958 0 0 0 19 17c2.207 0 4-1.793 4-4s-1.793-4-4-4a3.958 3.958 0 0 0-3.219 1.656A3.958 3.958 0 0 0 12.562 9zm0 2H19c1.102 0 2 .898 2 2 0 1.102-.898 2-2 2h-6.438c-1.101 0-2-.898-2-2 0-1.102.899-2 2-2zM13 12v2h6v-2zm-8 8h22v4H5zm19 1c-.55 0-1 .45-1 1s.45 1 1 1 1-.45 1-1-.45-1-1-1z"/></svg>