<svg xmlns="http://www.w3.org/2000/svg" viewBox="0 0 50 50"><path d="M40 3H13.586L7 9.586V45c0 1.102.898 2 2 2h31c1.102 0 2-.898 2-2V5c0-1.102-.898-2-2-2zM26 7h2v7h-2zm.875 29.621l-2.656.961c-.067-.035-.164-.105-.262-.145l2.328-1.03c.195.07.395.109.59.214zm-3.54.606c-.722-.215-1.573-.215-1.573-.215l.297-.996s1.375-.075 2.816.105zM21 7h2v7h-2zm-5 0h2v7h-2zm-5 3.852l2-2.008V14h-2zm6.078 31.113c-.59.035-1.215 0-1.805 0-1.898 0-3.277-.106-3.277-.106l.625-1.78s1.082.14 1.77.14c.656 0 2.554.215 2.554-.215 0-.711-3.144-.676-3.144-2.492 0-.926 1.77-1.426 3.273-1.426 1.543 0 3.934-.07 3.934-.07l-.324 1.03H17.21c-.43 0-1.543 0-1.543.43 0 .782 3.996.676 3.996 2.669 0 1.355-1.21 1.714-2.586 1.82zm11.895-3.242C28.183 41.965 20.125 42 20.125 42l.754-2.352s3.21-.14 3.57-1.351a.842.842 0 0 0 0-.395l3.242-.925c.887.5 1.446 1.14 1.282 1.746zM33 14h-2V7h2zm5 0h-2V7h2z"/></svg>