<svg xmlns="http://www.w3.org/2000/svg" viewBox="0 0 48 48"><path d="M8 10l6-6h25c.555 0 1 .445 1 1v37c0 .555-.445 1-1 1H9a1 1 0 0 1-1-1z" fill="#3f51b5"/><path d="M21.008 33.016l-.324 1.03H17.21c-.43 0-1.543 0-1.543.43 0 .782 3.996.676 3.996 2.669 0 1.355-1.21 1.714-2.586 1.82-.59.035-1.215 0-1.805 0-1.898 0-3.277-.106-3.277-.106l.625-1.78s1.082.14 1.77.14c.656 0 2.554.215 2.554-.215 0-.711-3.144-.676-3.144-2.492 0-.926 1.77-1.426 3.273-1.426 1.543 0 3.934-.07 3.934-.07zm6.683.96l-3.242.926a.842.842 0 0 1 0 .395c-.36 1.21-3.57 1.351-3.57 1.351L20.125 39s8.059-.035 8.848-3.277c.164-.606-.395-1.246-1.282-1.746zm-2.816-.855c-1.441-.18-2.816-.105-2.816-.105l-.297.996s.851 0 1.574.215zm1.41.285l-2.328 1.032c.098.039.195.109.262.144l2.656-.96c-.195-.106-.395-.145-.59-.216z" fill-rule="evenodd" fill="#fff"/><path d="M35 6h3v7h-3zm-5 0h3v7h-3zm-5 0h3v7h-3zm-5 0h3v7h-3zm-10 4.855V13h3V7.844zM15 6h3v7h-3z" fill-rule="evenodd" fill="#fdd835"/></svg>