<svg xmlns="http://www.w3.org/2000/svg" viewBox="0 0 64 64"><path d="M21.098 8c-1.7 0-3.196.8-4.196 2.2l-2.5 3.8H13c-1.7 0-3 1.3-3 3v4c0 .602.398 1 1 1h2v2h-2c-.602 0-1 .398-1 1v30c0 1.7 1.3 3 3 3h38c1.7 0 3-1.3 3-3V11c0-.8-.3-1.602-.902-2.102C52.5 8.301 51.8 8 51 8zm0 2H51c.3 0 .5.102.7.3.198.2.3.4.3.7v9.098h-2c-1.102 0-2 .902-2 2v6c0 1.101.898 2 2 2h2v25c0 .5-.398.902-1 .902H13c-.602 0-1-.398-1-1V26h1c1.102 0 2-.898 2-2v-2c0-1.102-.898-2-2-2h-1v-3c0-.602.398-1 1-1h2c.3 0 .602-.2.8-.402l2.798-4.297c.601-.801 1.5-1.301 2.5-1.301zM24 12c-.602 0-1 .398-1 1v2c0 .602.398 1 1 1s1-.398 1-1v-2c0-.602-.398-1-1-1zm5 0c-.602 0-1 .398-1 1v2c0 .602.398 1 1 1s1-.398 1-1v-2c0-.602-.398-1-1-1zm5 0c-.602 0-1 .398-1 1v2c0 .602.398 1 1 1s1-.398 1-1v-2c0-.602-.398-1-1-1zm5 0c-.602 0-1 .398-1 1v2c0 .602.398 1 1 1s1-.398 1-1v-2c0-.602-.398-1-1-1zm5 0c-.602 0-1 .398-1 1v2c0 .602.398 1 1 1s1-.398 1-1v-2c0-.602-.398-1-1-1zm5 0c-.602 0-1 .398-1 1v2c0 .602.398 1 1 1s1-.398 1-1v-2c0-.602-.398-1-1-1zm-30 3c-.602 0-1 .398-1 1v2c0 .602.398 1 1 1s1-.398 1-1v-2c0-.602-.398-1-1-1zm-1 7c-.602 0-1 .398-1 1s.5 1 1 1h27c.602 0 1-.398 1-1s-.5-1-1-1zm32 0h2v6h-2zm-15 8c-1.7 0-3 1.3-3 3v10c0 1.7 1.3 3 3 3h2c1.7 0 3-1.3 3-3v-3c0-.8-.3-1.598-.902-2.098C38.598 37.301 37.8 37 37 37h-3v-4c0-.602.398-1 1-1h1c.602 0 1 .398 1 1s.398 1 1 1 1-.398 1-1c0-1.7-1.3-3-3-3zm-7.898.004c-.297-.043-.575.07-.801.297l-3 3a.967.967 0 0 0 0 1.398.967.967 0 0 0 1.398 0L26 33.402V44h-1c-.5 0-1 .398-1 1s.398 1 1 1h4c.602 0 1-.398 1-1s-.398-1-1-1h-1V31c0-.398-.2-.8-.598-.902a1.158 1.158 0 0 0-.3-.094zM34 39h3c.3 0 .5.102.7.3.198.2.3.4.3.7v3c0 .602-.398 1-1 1h-2c-.602 0-1-.398-1-1zM15.098 50c-.5 0-1 .398-1 1s.402 1 1 1h34c.5 0 1-.398 1-1s-.399-1-1-1z"/></svg>