<svg xmlns="http://www.w3.org/2000/svg" viewBox="0 0 64 64"><path d="M5 41h54v16H5z" fill="#c2cde7"/><path d="M59 57H5v-4c0-2.21 1.79-4 4-4h46c2.21 0 4 1.79 4 4z" fill="#b5c4e0"/><path d="M15 49a1.999 1.999 0 1 1-4 0 1.999 1.999 0 1 1 4 0z" fill="#72caaf"/><path d="M59 41H5l6-34h42z" fill="#ced8ed"/><path d="M54.059 13L53 7H11l-1.059 6z" fill="#dae2ef"/><path d="M59.926 40.48l-5.649-32A2.997 2.997 0 0 0 51.32 6H12.68a2.997 2.997 0 0 0-2.957 2.48l-5.649 32a5.43 5.43 0 0 0-.074.872V55c0 1.652 1.348 3 3 3h50c1.652 0 3-1.348 3-3V41.352a5.43 5.43 0 0 0-.074-.872zM11.69 8.824c.086-.476.5-.824.989-.824h38.644c.485 0 .899.348.985.824L57.809 40H6.19zM57 56H7c-.55 0-1-.45-1-1V42h52v13c0 .55-.45 1-1 1z" fill="#8d6c9f"/><path d="M33 47c-.55 0-1 .45-1 1v2c0 .55.45 1 1 1s1-.45 1-1v-2c0-.55-.45-1-1-1zm5 0c-.55 0-1 .45-1 1v2c0 .55.45 1 1 1s1-.45 1-1v-2c0-.55-.45-1-1-1zm5 0c-.55 0-1 .45-1 1v2c0 .55.45 1 1 1s1-.45 1-1v-2c0-.55-.45-1-1-1zm5 0c-.55 0-1 .45-1 1v2c0 .55.45 1 1 1s1-.45 1-1v-2c0-.55-.45-1-1-1zm5 0c-.55 0-1 .45-1 1v2c0 .55.45 1 1 1s1-.45 1-1v-2c0-.55-.45-1-1-1zm-40-1c-1.652 0-3 1.348-3 3s1.348 3 3 3 3-1.348 3-3-1.348-3-3-3zm0 4.332A1.334 1.334 0 0 1 11.668 49c0-.734.598-1.332 1.332-1.332.734 0 1.332.598 1.332 1.332 0 .734-.598 1.332-1.332 1.332zM23 48h-4c-.55 0-1 .45-1 1s.45 1 1 1h4c.55 0 1-.45 1-1s-.45-1-1-1zm15.082-26H41c2.758 0 5 2.242 5 5s-2.242 5-5 5h-6c-2.758 0-5-2.242-5-5a4.98 4.98 0 0 1 1.281-3.34 1.005 1.005 0 0 0-.078-1.414 1.004 1.004 0 0 0-1.41.074A6.996 6.996 0 0 0 28 27c0 3.86 3.14 7 7 7h6c3.86 0 7-3.14 7-7s-3.14-7-7-7h-2.918c-.55 0-1 .45-1 1s.45 1 1 1z" fill="#8d6c9f"/><path d="M23 32h2.918c.55 0 1-.45 1-1s-.45-1-1-1H23c-2.758 0-5-2.242-5-5s2.242-5 5-5h6c2.758 0 5 2.242 5 5a4.978 4.978 0 0 1-1.281 3.34 1.005 1.005 0 0 0 .078 1.414 1 1 0 0 0 1.41-.074A6.996 6.996 0 0 0 36 25c0-3.86-3.14-7-7-7h-6c-3.86 0-7 3.14-7 7s3.14 7 7 7z" fill="#8d6c9f"/></svg>