<svg xmlns="http://www.w3.org/2000/svg" viewBox="0 0 26 26"><path d="M6 0a3 3 0 0 0-3 3L0 19.031C.84 18.398 1.871 18 3 18h20c1.129 0 2.16.398 3 1.031L23 3a3 3 0 0 0-3-3zm10.094 3a2.754 2.754 0 0 1 2.093.813A2.76 2.76 0 0 1 19 5.781c0 .801-.34 1.594-.938 2.188l-2.343 2.343a3.079 3.079 0 0 1-2.188.907c-.722 0-1.437-.25-1.969-.781a.783.783 0 0 1 0-1.094.783.783 0 0 1 1.094 0c.52.52 1.414.465 2-.125L17 6.875a1.53 1.53 0 0 0 .469-1.094c0-.238-.043-.605-.344-.906-.324-.324-.71-.355-.969-.344A1.52 1.52 0 0 0 15.125 5l-1.344 1.344c-.312-.313-1.62-.54-1.969-.188l2.22-2.218A3.136 3.136 0 0 1 16.093 3zm-3.625 3.781c.719 0 1.437.25 1.969.782a.783.783 0 0 1 0 1.093.783.783 0 0 1-1.094 0c-.52-.515-1.41-.465-2 .125L9 11.125a1.53 1.53 0 0 0-.469 1.094c0 .238.043.605.344.906.324.324.71.355.969.344A1.54 1.54 0 0 0 10.875 13l1.344-1.344c.312.313 1.617.54 1.969.188l-2.22 2.219c-.562.566-1.3.902-2.062.937a2.754 2.754 0 0 1-2.094-.813A2.765 2.765 0 0 1 7 12.22c0-.801.344-1.594.938-2.188l2.343-2.344a3.079 3.079 0 0 1 2.188-.906zM3 19a3 3 0 0 0-3 3v1a3 3 0 0 0 3 3h20a3 3 0 0 0 3-3v-1a3 3 0 0 0-3-3zm18.5 2a1.5 1.5 0 1 1 0 3 1.5 1.5 0 0 1 0-3z"/></svg>