<svg xmlns="http://www.w3.org/2000/svg" viewBox="0 0 16 16"><path style="line-height:normal;text-indent:0;text-align:start;text-decoration-line:none;text-decoration-style:solid;text-decoration-color:#000;text-transform:none;block-progression:tb;isolation:auto;mix-blend-mode:normal" d="M1 2v6.5c0 .823.677 1.5 1.5 1.5H7v2H5l2.5 2.5L10 12H8v-2h4.5c.823 0 1.5-.677 1.5-1.5V2h-1v6.5c0 .281-.219.5-.5.5h-10a.493.493 0 0 1-.5-.5V2H1zm8.203.004a1.254 1.254 0 0 0-.894.377h-.002L5.645 5.125l-.696 2.924 2.924-.695.098-.096 2.646-2.567V4.69c.5-.486.505-1.302.012-1.794l-.525-.526a1.257 1.257 0 0 0-.9-.365zm.008.994a.26.26 0 0 1 .185.078l.526.526a.255.255 0 0 1-.002.37L7.375 6.444l-1.078.258.256-1.076 2.472-2.547a.262.262 0 0 1 .186-.08z" font-weight="400" font-family="sans-serif" white-space="normal" overflow="visible"/></svg>