<svg xmlns="http://www.w3.org/2000/svg" viewBox="0 0 16 16"><path style="line-height:normal;text-indent:0;text-align:start;text-decoration-line:none;text-decoration-style:solid;text-decoration-color:#000;text-transform:none;block-progression:tb;isolation:auto;mix-blend-mode:normal" d="M2.5 1C1.677 1 1 1.677 1 2.5v3a.5.5 0 0 0 .5.5h12a.5.5 0 0 0 .5-.5v-3c0-.823-.677-1.5-1.5-1.5h-10zm0 1H7v3H2V2.5c0-.281.219-.5.5-.5zM8 2h4.5c.281 0 .5.219.5.5V5H8V2zM1 7v5.5c0 .823.677 1.5 1.5 1.5h10c.823 0 1.5-.677 1.5-1.5V7h-1v2H8V7H7v2H2V7H1zm1 3h5v3H2.5a.493.493 0 0 1-.5-.5V10zm6 0h5v2.5c0 .281-.219.5-.5.5H8v-3z" font-weight="400" font-family="sans-serif" white-space="normal" overflow="visible"/></svg>