<svg xmlns="http://www.w3.org/2000/svg" viewBox="0 0 48 48"><path d="M6 42V6h36v36zm4-4h28V10H10z" fill="#90caf9"/><path d="M24 41.5a2 2 0 0 1-2-2V9a1.999 1.999 0 1 1 4 0v30.5a2 2 0 0 1-2 2z" fill="#90caf9"/><path d="M39 21H9a1.999 1.999 0 1 1 0-4h30a1.999 1.999 0 1 1 0 4zm0 10H9a1.999 1.999 0 1 1 0-4h30a1.999 1.999 0 1 1 0 4z" fill="#90caf9"/><path d="M48 38c0 5.5-4.5 10-10 10s-10-4.5-10-10 4.5-10 10-10 10 4.5 10 10" fill="#43a047"/><path d="M44 36h-4v-4h-4v4h-4v4h4v4h4v-4h4z" fill="#fff"/></svg>