<svg xmlns="http://www.w3.org/2000/svg" viewBox="0 0 16 16"><path style="line-height:normal;text-indent:0;text-align:start;text-decoration-line:none;text-decoration-style:solid;text-decoration-color:#000;text-transform:none;block-progression:tb;isolation:auto;mix-blend-mode:normal" d="M2.5 1C1.677 1 1 1.677 1 2.5v10c0 .823.677 1.5 1.5 1.5H8V6h5v2h1V2.5c0-.823-.677-1.5-1.5-1.5h-10zm0 1H7v3H2V2.5c0-.281.219-.5.5-.5zM8 2h4.5c.281 0 .5.219.5.5V5H8V2zM2 6h5v3H2V6zm10 3v1.055a2.46 2.46 0 0 0-.871.367l-.775-.776-.708.708.776.775a2.48 2.48 0 0 0-.371.871H9v1h1.05c.066.317.198.61.372.871l-.776.775.708.708.775-.776c.262.174.554.302.871.367V16h1v-1.055c.307-.063.59-.184.846-.35l.783.866.742-.672-.81-.893c.182-.268.32-.568.388-.896H16v-1h-1.05a2.482 2.482 0 0 0-.368-.867l.768-.756-.7-.713-.775.762a2.473 2.473 0 0 0-.875-.371V9h-1zM2 10h5v3H2.5a.493.493 0 0 1-.5-.5V10zm10.5 1c.834 0 1.5.666 1.5 1.5s-.666 1.5-1.5 1.5-1.5-.666-1.5-1.5.666-1.5 1.5-1.5z"/></svg>