<svg xmlns="http://www.w3.org/2000/svg" viewBox="0 0 40 40"><rect x="1.5" y="26.5" width="12" height="12" fill="#8bb7f0"/><path d="M13 27v11H2V27h11m1-1H1v13h13V26z" fill="#4e7ab5"/><rect x="27.77" y="2.77" transform="rotate(-45.001 32.5 7.5)" width="9.46" height="9.46" fill="#f5ce85"/><path d="M32.5 1.518L38.482 7.5 32.5 13.482 26.518 7.5 32.5 1.518m0-1.415L25.103 7.5l7.397 7.397L39.897 7.5 32.5.103z" fill="#967a44"/><circle cx="7.5" cy="7.5" r="6" fill="#bae0bd"/><path d="M7.5 2C10.533 2 13 4.467 13 7.5S10.533 13 7.5 13 2 10.533 2 7.5 4.467 2 7.5 2m0-1a6.5 6.5 0 1 0 0 13 6.5 6.5 0 0 0 0-13z" fill="#5e9c76"/><circle cx="32.5" cy="32.5" r="6" fill="#f78f8f"/><path d="M32.5 27c3.033 0 5.5 2.467 5.5 5.5S35.533 38 32.5 38 27 35.533 27 32.5s2.467-5.5 5.5-5.5m0-1a6.5 6.5 0 1 0 0 13 6.5 6.5 0 0 0 0-13z" fill="#c74343"/><rect x="7" y="17" width="1" height="7" fill="#36404d"/><polygon points="7.5,15.6 5.5,18 9.5,18" fill="#36404d"/><rect x="18.5" y="4.5" transform="rotate(90 19 7.5)" width="1" height="6" fill="#36404d"/><polygon points="23.4,7.5 21,5.5 21,9.5" fill="#36404d"/><rect x="32" y="16" transform="rotate(-180 32.5 19.5)" width="1" height="7" fill="#36404d"/><polygon points="32.5,24.4 34.5,22 30.5,22" fill="#36404d"/></svg>