<svg xmlns="http://www.w3.org/2000/svg" viewBox="0 0 64 64"><path d="M49 5c-6.617 0-12 5.383-12 12 0 6.277 4.852 11.438 11 11.95v5.636l-2.293-2.293a1 1 0 1 0-1.414 1.414l3.941 3.941a2.902 2.902 0 0 0-1.355.743l-8.484 8.488a2.982 2.982 0 0 0-.88 2.121c0 .8.313 1.555.88 2.121l8.484 8.484c.566.567 1.32.88 2.121.88.805 0 1.555-.313 2.121-.88l8.488-8.484c.567-.566.875-1.32.875-2.121 0-.8-.308-1.555-.875-2.121l-8.488-8.484a2.868 2.868 0 0 0-1.355-.743l3.941-3.945a.995.995 0 0 0 0-1.41.993.993 0 0 0-1.414 0L50 34.586v-5.637c6.148-.512 11-5.672 11-11.949 0-6.617-5.383-12-12-12zM37 17a.997.997 0 0 0-.078-.383 1 1 0 0 0-.215-.324l-4-4a1 1 0 1 0-1.414 1.414L33.586 16H26V9c0-1.652-1.348-3-3-3H7C5.348 6 4 7.348 4 9v16c0 1.652 1.348 3 3 3h16c1.652 0 3-1.348 3-3v-7h7.586l-2.293 2.293a1 1 0 1 0 1.414 1.414l4-4a1 1 0 0 0 .215-.324c.05-.121.078-.254.078-.383zM15 28a.997.997 0 0 0-.383.078 1 1 0 0 0-.324.215l-4 4a1 1 0 1 0 1.414 1.414L14 31.414V38c0 .086.027.164.047.242a2 2 0 0 0-.777.754L4 55.027a1.99 1.99 0 0 0 0 2c.363.625 1.008.973 1.734.973h18.532c.722 0 1.37-.348 1.734-.973a1.99 1.99 0 0 0 0-2l-9.27-16.03a2 2 0 0 0-.777-.755c.02-.078.047-.156.047-.242v-6.586l2.293 2.293c.195.195.45.293.707.293a1 1 0 0 0 .707-1.707l-4-4a1 1 0 0 0-.324-.215A1.001 1.001 0 0 0 15 28zM49 7c5.516 0 10 4.484 10 10s-4.484 10-10 10-10-4.484-10-10S43.484 7 49 7zM7 8h16c.55 0 1 .45 1 1v16c0 .55-.45 1-1 1H7c-.55 0-1-.45-1-1V9c0-.55.45-1 1-1zm42 31.516c.27 0 .52.105.707.293l8.484 8.488a.993.993 0 0 1 0 1.41l-8.488 8.484a1.017 1.017 0 0 1-1.41 0l-8.484-8.484a.977.977 0 0 1-.293-.707c0-.27.101-.52.293-.707l8.484-8.484a.993.993 0 0 1 .707-.293zM15 40l9.266 16.027H5.734zm10 7c-.55 0-1 .45-1 1v2c0 .55.45 1 1 1s1-.45 1-1v-2c0-.55-.45-1-1-1zm5 0c-.55 0-1 .45-1 1v2c0 .55.45 1 1 1s1-.45 1-1v-2c0-.55-.45-1-1-1zm5 0c-.55 0-1 .45-1 1v2c0 .55.45 1 1 1s1-.45 1-1v-2c0-.55-.45-1-1-1z"/></svg>