<svg xmlns="http://www.w3.org/2000/svg" viewBox="0 0 40 40"><path d="M14.5 38.5v-5.649l-9.099-9.099a3.057 3.057 0 0 1-.901-2.175c0-.822.32-1.595.901-2.176s1.354-.901 2.176-.901c.821 0 1.594.32 2.175.901L13.5 23.15V6c0-1.378 1.121-2.5 2.5-2.5.617 0 1.215.236 1.683.664l.766.701.071-1.035A2.502 2.502 0 0 1 21 1.5c1.036 0 1.976.659 2.337 1.64l.281.765.554-.598A2.473 2.473 0 0 1 26 2.5c1.379 0 2.5 1.122 2.5 2.5v2.902l.835-.752A2.49 2.49 0 0 1 31 6.5c1.379 0 2.5 1.122 2.5 2.5v23c0 .535-.61 1.383-.805 1.532l-.195.15V38.5h-18z" fill="#bae0bd"/><path d="M21 2c.828 0 1.578.528 1.868 1.313l.564 1.529 1.108-1.195A1.974 1.974 0 0 1 26 3c1.103 0 2 .897 2 2v4.026l1.669-1.504C29.933 7.284 30.379 7 31 7c1.103 0 2 .897 2 2v23c0 .284-.407.951-.609 1.135l-.391.3V38H15v-5.356l-.293-.293-8.953-8.953A2.56 2.56 0 0 1 5 21.576c0-.688.268-1.335.755-1.822.486-.486 1.133-.754 1.821-.754s1.335.268 1.822.755l2.895 2.895L14 24.356V6c0-1.103.897-2 2-2 .493 0 .97.189 1.345.533l1.531 1.404.142-2.073A2 2 0 0 1 21 2m0-1a2.99 2.99 0 0 0-2.979 2.796A2.98 2.98 0 0 0 16 3a3 3 0 0 0-3 3v15.942l-2.895-2.895C9.407 18.349 8.492 18 7.576 18s-1.831.349-2.529 1.048a3.576 3.576 0 0 0 0 5.058L14 33.058V39h19v-5.071c.273-.209 1-1.193 1-1.929V9a3 3 0 0 0-3-3c-.772 0-1.468.3-2 .779V5a3 3 0 0 0-3-3c-.87 0-1.646.376-2.194.967A2.992 2.992 0 0 0 21 1z" fill="#5e9c76"/><line x1="28.5" y1="17" x2="28.5" y2="7.5" fill="none" stroke="#5e9c76" stroke-miterlimit="10"/><line x1="23.5" y1="17" x2="23.5" y2="3.5" fill="none" stroke="#5e9c76" stroke-miterlimit="10"/><line x1="18.5" y1="17" x2="18.5" y2="4.055" fill="none" stroke="#5e9c76" stroke-miterlimit="10"/><path d="M20.003 25.38c0-1.655 1.342-4.38 2.997-4.38s2.997 2.725 2.997 4.38a2.997 2.997 0 0 1-5.994 0z" fill="#fff"/><path d="M20.1 29.665c-1.574-.512-3.751-2.63-3.24-4.204s3.518-2.008 5.092-1.497a2.997 2.997 0 1 1-1.852 5.701z" fill="#fff"/><path d="M24.205 30.896c-.973 1.339-3.66 2.755-4.999 1.782-1.339-.973-.823-3.966.15-5.305a2.997 2.997 0 1 1 4.849 3.523z" fill="#fff"/><path d="M26.644 27.372c.973 1.339 1.489 4.333.15 5.305-1.339.973-4.027-.443-4.999-1.782a2.997 2.997 0 1 1 4.849-3.523z" fill="#fff"/><path d="M24.047 23.964c1.574-.512 4.581-.077 5.092 1.497s-1.666 3.693-3.24 4.204a2.998 2.998 0 0 1-1.852-5.701z" fill="#fff"/><circle cx="23" cy="27.215" r="2.825" fill-rule="evenodd" clip-rule="evenodd" fill="#f2d75c"/></svg>