<svg xmlns="http://www.w3.org/2000/svg" viewBox="0 0 40 40"><path d="M19 5.5h2v4h-2z" fill="#4788c7"/><path d="M9.5 17.5v-6.21l6.512-3.79h7.976l6.512 3.79v6.21z" fill="#dff0fe"/><path d="M23.855 8L30 11.574V17H10v-5.426L16.145 8h7.71m.27-1h-8.25L9 11v7h22v-7z" fill="#4788c7"/><path d="M9.5 11.5h21v27h-21z" fill="#98ccfd"/><path d="M30 12v26H10V12h20m1-1H9v28h22z" fill="#4788c7"/><path d="M17.5 5.5c-.55 0-1-.45-1-1v-2c0-.55.45-1 1-1h5c.55 0 1 .45 1 1v2c0 .55-.45 1-1 1z" fill="#dff0fe"/><path d="M22.5 2c.277 0 .5.223.5.5v2c0 .277-.223.5-.5.5h-5a.498.498 0 0 1-.5-.5v-2c0-.277.223-.5.5-.5h5m0-1h-5A1.5 1.5 0 0 0 16 2.5v2A1.5 1.5 0 0 0 17.5 6h5A1.5 1.5 0 0 0 24 4.5v-2A1.5 1.5 0 0 0 22.5 1z" fill="#4788c7"/><path d="M26 25c0 3.313-2.688 6-6 6-3.313 0-6-2.688-6-6 0-3.313 2.688-6 6-6 3.313 0 6 2.688 6 6zm-10 4l8-8" fill="none" stroke-width="2" stroke="#fff" stroke-miterlimit="10"/><path d="M26 2.5c0 .277-.223.5-.5.5a.498.498 0 0 1-.5-.5.499.499 0 1 1 1 0zm2 0c0 .277-.223.5-.5.5a.498.498 0 0 1-.5-.5.499.499 0 1 1 1 0zm2 2c0 .277-.223.5-.5.5a.498.498 0 0 1-.5-.5.499.499 0 1 1 1 0zm2 2c0 .277-.223.5-.5.5a.498.498 0 0 1-.5-.5.499.499 0 1 1 1 0zm2 0c0 .277-.223.5-.5.5a.498.498 0 0 1-.5-.5.499.499 0 1 1 1 0zm0 2c0 .277-.223.5-.5.5a.498.498 0 0 1-.5-.5.499.499 0 1 1 1 0zm-4-6c0 .277-.223.5-.5.5a.498.498 0 0 1-.5-.5.499.499 0 1 1 1 0zm2 0c0 .277-.223.5-.5.5a.498.498 0 0 1-.5-.5.499.499 0 1 1 1 0zm2 0c0 .277-.223.5-.5.5a.498.498 0 0 1-.5-.5.499.499 0 1 1 1 0zm0 2c0 .277-.223.5-.5.5a.498.498 0 0 1-.5-.5.499.499 0 1 1 1 0zm2 2c0 .277-.223.5-.5.5a.498.498 0 0 1-.5-.5.499.499 0 1 1 1 0zm0 2c0 .277-.223.5-.5.5a.498.498 0 0 1-.5-.5.499.499 0 1 1 1 0zm0 2c0 .277-.223.5-.5.5a.498.498 0 0 1-.5-.5.499.499 0 1 1 1 0zm0-8c0 .277-.223.5-.5.5a.498.498 0 0 1-.5-.5.499.499 0 1 1 1 0zm2 0c0 .277-.223.5-.5.5a.498.498 0 0 1-.5-.5.499.499 0 1 1 1 0zm-2 2c0 .277-.223.5-.5.5a.498.498 0 0 1-.5-.5.499.499 0 1 1 1 0zm2 4c0 .277-.223.5-.5.5a.498.498 0 0 1-.5-.5.499.499 0 1 1 1 0zm0 2c0 .277-.223.5-.5.5a.498.498 0 0 1-.5-.5.499.499 0 1 1 1 0zm0 2c0 .277-.223.5-.5.5a.498.498 0 0 1-.5-.5.499.499 0 1 1 1 0zm0-8c0 .277-.223.5-.5.5a.498.498 0 0 1-.5-.5.499.499 0 1 1 1 0zm0 2c0 .277-.223.5-.5.5a.498.498 0 0 1-.5-.5.499.499 0 1 1 1 0zm-6-2c0 .277-.223.5-.5.5a.498.498 0 0 1-.5-.5.499.499 0 1 1 1 0z" fill="#4788c7"/></svg>