<svg xmlns="http://www.w3.org/2000/svg" viewBox="0 0 32 32"><path d="M17 2c-1.383 0-2.531.969-2.875 2.25C13.773 4.105 13.402 4 13 4c-1.645 0-3 1.355-3 3v8.75l-.875-.875a3.023 3.023 0 0 0-4.25 0 3.023 3.023 0 0 0 0 4.25l6.781 6.781c.114.11.23.211.344.313V30h14v-4.25c1.184-1.254 2-2.89 2-4.75V10c0-1.645-1.355-3-3-3a2.95 2.95 0 0 0-1 .188V7c0-1.645-1.355-3-3-3-.402 0-.773.105-1.125.25C19.531 2.969 18.383 2 17 2zm0 2c.566 0 1 .434 1 1v9h2V7c0-.566.434-1 1-1 .566 0 1 .434 1 1v7h2v-4c0-.566.434-1 1-1 .566 0 1 .434 1 1v11c0 1.484-.633 2.8-1.656 3.719L24 25.03V28H14v-2.75l-.375-.313a5.683 5.683 0 0 1-.531-.468l-6.813-6.75a1.014 1.014 0 0 1 0-1.438 1.014 1.014 0 0 1 1.438 0l.062.063 2.5 2.531L12 20.594V7c0-.566.434-1 1-1 .566 0 1 .434 1 1v7h2V5c0-.566.434-1 1-1zm1.938 12a1.89 1.89 0 0 0-1.72 1.125l-.187.406-.406.063c-1.594.261-2.203 2.27-1.031 3.406l.312.281-.062.407c-.25 1.628 1.426 2.851 2.844 2.062l.375-.188.343.188c1.438.746 3.11-.535 2.813-2.156l-.094-.407.313-.28c1.14-1.169.472-3.16-1.125-3.376l-.407-.062-.187-.375A1.96 1.96 0 0 0 18.937 16zM19 19c.55 0 1 .45 1 1a1 1 0 1 1-2 0 .997.997 0 0 1 1-1z"/></svg>