<svg xmlns="http://www.w3.org/2000/svg" viewBox="0 0 50 50"><path d="M41 0a1.999 1.999 0 1 0 0 4 1.999 1.999 0 1 0 0-4zM14.812 1A1 1 0 0 0 14 2v11.094C9.879 14.996 7 19.176 7 24v23.156C7 48.707 8.297 50 9.844 50h18.312C29.707 50 31 48.707 31 47.156V24c0-4.824-2.879-9.004-7-10.906V2c0-.55-.45-1-1-1h-8.188zM16 3h6v3.281c-.598.348-1 .98-1 1.719 0 .738.402 1.371 1 1.719v2.687c-.965-.25-1.96-.406-3-.406s-2.035.156-3 .406zm19 0a1.999 1.999 0 1 0 0 4 1.999 1.999 0 1 0 0-4zm-6 3a1.999 1.999 0 1 0 0 4 1.999 1.999 0 1 0 0-4zm12 0a1.999 1.999 0 1 0 0 4 1.999 1.999 0 1 0 0-4zm-6 4a1.999 1.999 0 1 0 0 4 1.999 1.999 0 1 0 0-4zm6 3a1.999 1.999 0 1 0 0 4 1.999 1.999 0 1 0 0-4zm-22 1c5.54 0 10 4.46 10 10v23.156a.83.83 0 0 1-.844.844H9.844A.83.83 0 0 1 9 47.156V24c0-5.54 4.46-10 10-10zm0 11c-4.406 0-8 3.594-8 8a7.98 7.98 0 0 0 2.156 5.438l.031.03c.008.02.02.044.032.063a.923.923 0 0 0 .125.125c.047.059.097.11.156.157.031.023.063.042.094.062A7.968 7.968 0 0 0 19 41c4.406 0 8-3.594 8-8 0-4.406-3.594-8-8-8zm0 2c1.297 0 2.488.434 3.469 1.125l-8.344 8.344C13.434 35.489 13 34.297 13 33c0-3.324 2.676-6 6-6zm4.875 2.531C24.566 30.511 25 31.703 25 33c0 3.324-2.676 6-6 6-1.297 0-2.488-.434-3.469-1.125z"/></svg>