<svg xmlns="http://www.w3.org/2000/svg" viewBox="0 0 24 24"><path d="M20 0c-.55 0-1 .45-1 1s.45 1 1 1 1-.45 1-1-.45-1-1-1zM8 1v6h4V5c-.602 0-1-.398-1-1s.398-1 1-1V1zm9 0c-.55 0-1 .45-1 1s.45 1 1 1 1-.45 1-1-.45-1-1-1zm-3 2c-.55 0-1 .45-1 1s.45 1 1 1 1-.45 1-1-.45-1-1-1zm6 0c-.55 0-1 .45-1 1s.45 1 1 1 1-.45 1-1-.45-1-1-1zm-3 2c-.55 0-1 .45-1 1s.45 1 1 1 1-.45 1-1-.45-1-1-1zm3 1c-.55 0-1 .45-1 1s.45 1 1 1 1-.45 1-1-.45-1-1-1zM7.812 8A3.818 3.818 0 0 0 4 11.813V24h12V11.812A3.818 3.818 0 0 0 12.187 8zM10 12c2.2 0 4 1.8 4 4s-1.8 4-4 4-4-1.8-4-4 1.8-4 4-4zm0 1.5A2.478 2.478 0 0 0 7.5 16c0 .398.113.793.313 1.094l3.375-3.407c-.399-.101-.79-.187-1.188-.187zm2.188 1.406l-3.282 3.281c.301.2.696.313 1.094.313 1.398 0 2.5-1.102 2.5-2.5a2.01 2.01 0 0 0-.313-1.094z"/></svg>