<svg xmlns="http://www.w3.org/2000/svg" viewBox="0 0 80 80"><path d="M12 9c-1.094 0-2 .906-2 2v7H8v2h2v7c0 1.094.906 2 2 2h52c1.094 0 2-.906 2-2v-7h1c.566 0 1 .434 1 1v9.45c0 .46-.305.85-.75.968L37 39.223V44h-3v3c-1.094 0-2 .906-2 2v18c0 1.094.906 2 2 2h8c1.094 0 2-.906 2-2V49c0-1.094-.906-2-2-2v-3h-3v-3.223l28.75-7.422A3.009 3.009 0 0 0 70 30.45V21c0-1.645-1.355-3-3-3h-1v-7c0-1.094-.906-2-2-2zm0 2h52v16H12zm4 3c-.55 0-1 .45-1 1s.45 1 1 1 1-.45 1-1-.45-1-1-1zm4 0c-.55 0-1 .45-1 1s.45 1 1 1 1-.45 1-1-.45-1-1-1zm4 0c-.55 0-1 .45-1 1s.45 1 1 1 1-.45 1-1-.45-1-1-1zm4 0c-.55 0-1 .45-1 1s.45 1 1 1 1-.45 1-1-.45-1-1-1zm4 0c-.55 0-1 .45-1 1s.45 1 1 1 1-.45 1-1-.45-1-1-1zm4 0c-.55 0-1 .45-1 1s.45 1 1 1 1-.45 1-1-.45-1-1-1zm4 0c-.55 0-1 .45-1 1s.45 1 1 1 1-.45 1-1-.45-1-1-1zm4 0c-.55 0-1 .45-1 1s.45 1 1 1 1-.45 1-1-.45-1-1-1zm4 0c-.55 0-1 .45-1 1s.45 1 1 1 1-.45 1-1-.45-1-1-1zm4 0c-.55 0-1 .45-1 1s.45 1 1 1 1-.45 1-1-.45-1-1-1zm4 0c-.55 0-1 .45-1 1s.45 1 1 1 1-.45 1-1-.45-1-1-1zm4 0c-.55 0-1 .45-1 1s.45 1 1 1 1-.45 1-1-.45-1-1-1zM36 46h4v3h2v18h-8V49h2zm2 1c-.55 0-1 .45-1 1s.45 1 1 1 1-.45 1-1-.45-1-1-1z"/></svg>