<svg xmlns="http://www.w3.org/2000/svg" viewBox="0 0 48 48"><path d="M32.45 29.094l-13.18 7.828c-.024 0 3.074 4.027 3.074 4.027l12.605-7.648a2.444 2.444 0 0 0 .848-3.336 2.444 2.444 0 0 0-3.348-.871" fill="#e39d36"/><path d="M32.73 13.156C31.148 8.504 23.766 5.691 22.031 5c.754 2.883-4.761 8.824-2.468 13.207 1.617 3.105 4.582 3.984 7.992.762 3.761.953 6.3-2.516 5.175-5.813z" fill="#689f38"/><path d="M23.879 12.55C27.579 16.782 27 25 27 25" fill="none" stroke-width="2" stroke-linecap="round" stroke="#8bc34a"/><path d="M19.563 18.207C17.27 13.824 22.785 7.883 22.03 5c1.516 1.68 3.461 5.504 5.547 13.973-.008 0-.015 0-.02-.004-3.413 3.222-6.374 2.343-7.995-.762z" fill="#8bc34a"/><path d="M27 27a3 3 0 1 1-6.002-.002A3 3 0 0 1 27 27zm6 5a3 3 0 1 1-6.002-.002A3 3 0 0 1 33 32z" fill="#795548"/><path d="M30 29c0-1.656-1.566-3-3.5-3S23 27.344 23 29s1.566 3 3.5 3 3.5-1.344 3.5-3zm-7-1a3 3 0 1 1-6.002-.002A3 3 0 0 1 23 28z" fill="#795548"/><path d="M31 26.5c0 1.379-1.121 2.5-2.5 2.5a2.502 2.502 0 0 1-2.5-2.5c0-1.379 1.121-2.5 2.5-2.5s2.5 1.121 2.5 2.5zm5 3.5a1.999 1.999 0 1 1-4 0 1.999 1.999 0 1 1 4 0z" fill="#795548"/><path d="M34 27.5c0 1.379-1.121 2.5-2.5 2.5a2.502 2.502 0 0 1-2.5-2.5c0-1.379 1.121-2.5 2.5-2.5s2.5 1.121 2.5 2.5z" fill="#795548"/><path d="M38.898 30.43l-12.355 7.34c-.027 0 .031 0 0 0l-5.867-3.36 2.949 1.61c1.29.703 2.938.48 3.895-.63a3.093 3.093 0 0 0-.844-4.745l-12.352-6.77a3.78 3.78 0 0 0-3.683.027L5.039 27.09a.588.588 0 0 1-.039.066v10.688l4.047-2.551 15.105 8.246a3.765 3.765 0 0 0 3.758-.082l13.77-8.348a2.717 2.717 0 0 0 .941-3.71 2.724 2.724 0 0 0-3.723-.97" fill="#ffb74d"/><path d="M27.52 35.39c-.743.86-1.899 1.18-2.98.958l-.235.136 2.238 1.286 12.355-7.34c.106-.063.22-.102.329-.149a2.435 2.435 0 0 0-3.247-.73l-7.824 4.644a3.122 3.122 0 0 1-.636 1.196z" fill="#eda740"/><path d="M26.492 37.797l.055-.027-1.371-.875-10.684-6.043 8.035 6.59a3.544 3.544 0 0 0 3.965.355" fill="#eda740"/><path d="M24.45 35.16c-.903-.465-.575-1.273-.11-2.176.469-.902.894-1.554 1.797-1.09a1.838 1.838 0 0 1-1.688 3.266" fill="#ffcc80"/></svg>