<svg xmlns="http://www.w3.org/2000/svg" viewBox="0 0 40 40"><path d="M6 7h28v26H6v1h29V6H6z" fill="#4788c7"/><path d="M30.5 15.5h8v8h-8z" fill="#dff0fe"/><path d="M38 16v7h-7v-7h7m1-1h-9v9h9z" fill="#4788c7"/><path d="M1.5 2.5h8v8h-8z" fill="#dff0fe"/><path d="M9 3v7H2V3h7m1-1H1v9h9z" fill="#4788c7"/><path d="M17.5 2.5h8v8h-8z" fill="#dff0fe"/><path d="M25 3v7h-7V3h7m1-1h-9v9h9z" fill="#4788c7"/><path d="M1.5 29.5h8v8h-8z" fill="#dff0fe"/><path d="M9 30v7H2v-7h7m1-1H1v9h9z" fill="#4788c7"/><path d="M17.5 29.5h8v8h-8z" fill="#dff0fe"/><path d="M25 30v7h-7v-7h7m1-1h-9v9h9z" fill="#4788c7"/></svg>