<svg xmlns="http://www.w3.org/2000/svg" viewBox="0 0 16 16"><path style="line-height:normal;text-indent:0;text-align:start;text-decoration-line:none;text-decoration-style:solid;text-decoration-color:#000;text-transform:none;block-progression:tb;isolation:auto;mix-blend-mode:normal" d="M8.25 1C8.25 3.238 7 4.06 7 5.2 7 6.295 7.575 7 8.719 7h.27c-.004.317 0 .257 0 1h1c0-.735-.004-.681 0-1h.136C11.089 7 12 6.518 12 5.2 12 2.545 8.25 1 8.25 1zM5 8c-.55 0-1.143.148-1.143.148a.5.5 0 0 0-.052.016l-2.471.863a.5.5 0 0 0-.309.631l1 3a.5.5 0 0 0 .66.307l2.294-.918 3.175 1.566-.056-.031c.73.486 1.664.551 2.457.176a.5.5 0 0 0 .066-.037l4.158-2.807.414-.28-.558-.827-.414.279-4.104 2.768a1.498 1.498 0 0 1-1.465-.106.5.5 0 0 0-.056-.031L5.22 11.05a.5.5 0 0 0-.407-.016l-2.007.803-.676-2.03 1.973-.689C4.127 9.114 4.656 9 5 9c.462 0 .71.014 1.191.393.86.675 1.243 1.078 1.829 1.332.585.253 1.222.275 2.48.275h.5v-1h-.5c-1.242 0-1.73-.04-2.082-.193-.352-.153-.72-.5-1.61-1.2C6.164 8.1 5.539 8 5 8z" font-weight="400" font-family="sans-serif" white-space="normal" overflow="visible"/></svg>