<svg xmlns="http://www.w3.org/2000/svg" viewBox="0 0 40 40"><path d="M25.5 2C32.395 2 38 7.605 38 14.5S32.395 27 25.5 27 13 21.395 13 14.5 18.605 2 25.5 2m0-1C18.043 1 12 7.043 12 14.5S18.043 28 25.5 28 39 21.957 39 14.5 32.957 1 25.5 1z" fill="#4788c7"/><path d="M14 38.5a1.5 1.5 0 0 1-1.5-1.5v-2.434L1.648 16.296l1.993-1.608L12.5 24.43V14c0-1.379 1.121-2.5 2.5-2.5h17a1.5 1.5 0 0 1 1.5 1.5v24a1.5 1.5 0 0 1-1.5 1.5z" fill="#98ccfd"/><path d="M32 12c.55 0 1 .45 1 1v24c0 .55-.45 1-1 1H14c-.55 0-1-.45-1-1v-2.57l-.14-.235L2.3 16.415l1.29-1.044 7.668 8.438L13 25.723V14c0-1.102.898-2 2-2h17m0-1H15a3 3 0 0 0-3 3v9.137L3.691 14 1 16.184l11 18.52V37a2 2 0 0 0 2 2h18a2 2 0 0 0 2-2V13a2 2 0 0 0-2-2z" fill="#4788c7"/><path d="M12 15.5h22" fill="none" stroke="#4788c7" stroke-miterlimit="10"/><path d="M19.727 25.23c0-1.804 1.464-4.78 3.273-4.78 1.809 0 3.273 2.976 3.273 4.78a3.273 3.273 0 1 1-6.546 0z" fill="#fff"/><path d="M19.836 29.91c-1.723-.558-4.098-2.87-3.54-4.59.56-1.718 3.84-2.195 5.56-1.636a3.274 3.274 0 0 1 2.101 4.125 3.27 3.27 0 0 1-4.121 2.101z" fill="#fff"/><path d="M24.316 31.254c-1.062 1.46-3.996 3.008-5.457 1.945-1.464-1.062-.898-4.332.164-5.793a3.272 3.272 0 0 1 5.293 3.848z" fill="#fff"/><path d="M26.98 27.406c1.06 1.461 1.625 4.73.165 5.793-1.465 1.063-4.399-.484-5.461-1.945a3.269 3.269 0 0 1 .726-4.57 3.273 3.273 0 0 1 4.57.722z" fill="#fff"/><path d="M24.145 23.684c1.718-.555 5-.082 5.558 1.636.559 1.72-1.82 4.032-3.539 4.59a3.27 3.27 0 0 1-4.121-2.101 3.274 3.274 0 0 1 2.102-4.125z" fill="#fff"/><path d="M26.086 27.234A3.087 3.087 0 0 1 23 30.32a3.084 3.084 0 0 1 0-6.168 3.084 3.084 0 0 1 3.086 3.082z" fill-rule="evenodd" fill="#b6dcfe"/></svg>