<svg xmlns="http://www.w3.org/2000/svg" viewBox="0 0 16 16"><path style="line-height:normal;text-indent:0;text-align:start;text-decoration-line:none;text-decoration-style:solid;text-decoration-color:#000;text-transform:none;block-progression:tb;isolation:auto;mix-blend-mode:normal" d="M10.5 1c-.83 0-1.425.58-1.725 1.305C8.521 2.185 8.3 2 8 2c-1.099 0-2 .901-2 2h-.5a.5.5 0 0 0-.5.5v3.193l-2.07-3.45A.5.5 0 0 0 2.5 4H0v1h2.217L5 9.64v.57A2.796 2.796 0 0 0 7.79 13h.005a2.79 2.79 0 0 0 2.299-1.21l.894-1.302.62 1.082A1.994 1.994 0 0 0 11 13c0 1.099.901 2 2 2s2-.901 2-2-.901-2-2-2c-.181 0-.354.032-.521.078l-.862-1.504 3.295-4.79A.5.5 0 0 0 14.5 4H14v-.5c0-.823-.677-1.5-1.5-1.5-.135 0-.22.073-.336.107C11.824 1.484 11.255 1 10.5 1zm0 1c.484 0 .877.337.975.785a.5.5 0 0 0 .761.313A.475.475 0 0 1 12.5 3c.281 0 .5.219.5.5V4H7a.993.993 0 0 1 1.672-.734.5.5 0 0 0 .838-.334A.988.988 0 0 1 10.5 2zM6 5h7.549l-2.75 4H6V5zm0 5h4.111l-.841 1.225A1.786 1.786 0 0 1 7.795 12h-.006A1.78 1.78 0 0 1 6 10.21V10zm7 2c.558 0 1 .442 1 1s-.442 1-1 1-1-.442-1-1 .442-1 1-1z" font-weight="400" font-family="sans-serif" white-space="normal" overflow="visible"/></svg>