<svg xmlns="http://www.w3.org/2000/svg" viewBox="0 0 40 40"><path d="M14.5 19.5v-3h2.043c.082.54.316 1.402.984 2.07.508.516 1.172.817 1.973.903v.027z" fill="#4788c7"/><path d="M16.133 17c.14.582.433 1.316 1.039 1.926.027.023.05.05.078.074H15v-2h1.133M17 16h-3v4h6v-1c-3.012 0-3-3-3-3z" fill="#4788c7"/><path d="M4 15.5c-.133 0-3.164-.059-3.477-3H3c.555 0 .895-.227 1.078-.418.18-.184.281-.395.344-.582H5.5v4z" fill="#98ccfd"/><path d="M5 12v3H4c-.266 0-2.34-.066-2.875-2H3c.73 0 1.184-.309 1.438-.566.132-.137.238-.286.316-.434H5m1-1H4s.023 1-1 1-3-.004-3-.004C0 15.996 4 16 4 16h2z" fill="#4788c7"/><path d="M23 14v5c0 2.2-1.8 4-4 4h-6" fill="none" stroke-width="2" stroke="#4788c7" stroke-miterlimit="10"/><path d="M7.5 8.5v-1h2.293l.5.5-.5.5z" fill="#4788c7"/><path d="M10 7H7v2h3l1-1zm23.5 1.5v-1h2.293l.5.5-.5.5z" fill="#4788c7"/><path d="M36 7h-3v2h3l1-1zm1.832 3.164H39.5v4.332h-1.668z" fill="#4788c7"/><path d="M39 10.664v3.332h-.668v-3.332H39m1-1h-2.668v5.332H40z" fill="#4788c7"/><path d="M8.73 34.5c-.175 0-.351-.023-.527-.066l-6.07-1.375a2.135 2.135 0 0 1-1.324-.985 2.148 2.148 0 0 1-.243-1.636L4.5 16.395V10A1.5 1.5 0 0 1 6 8.5h32.5v7H16.559l-1 8h-.145a3.159 3.159 0 0 0-3.07 2.398l-1.516 6.977A2.16 2.16 0 0 1 8.73 34.5z" fill="#dff0fe"/><path d="M38 9v6H16.117l-.11.875-.89 7.137a3.671 3.671 0 0 0-3.265 2.793l-1.504 6.933a1.667 1.667 0 0 1-2.043 1.207l-6.043-1.367a1.667 1.667 0 0 1-1.024-.762 1.622 1.622 0 0 1-.195-1.23l3.922-13.988.035-.133V10c0-.55.45-1 1-1h32m1-1H6a2 2 0 0 0-2 2v6.328L.078 30.316a2.668 2.668 0 0 0 1.942 3.23l6.062 1.376a2.666 2.666 0 0 0 3.234-1.941l1.512-6.961A2.666 2.666 0 0 1 15.414 24H16l1-8h22z" fill="#4788c7"/><path d="M13 10.496a.498.498 0 0 1-.5-.5V8.5h6v1.496c0 .277-.223.5-.5.5z" fill="#98ccfd"/><path d="M18 9v.996h-5V9h5m1-1h-7v1.996c0 .55.45 1 1 1h5c.55 0 1-.45 1-1zM8 12h31v1H8z" fill="#4788c7"/><path d="M39 12H8v1h31zm-8.348 3.5l1.5-1H38.5v1z" fill="#4788c7"/><path d="M39 14h-7l-3 2h10z" fill="#4788c7"/><path d="M8.148 31.813l-4.726-1.07a.147.147 0 0 1-.106-.079.156.156 0 0 1-.02-.129l4.25-15.039h4.474L8.348 31.687a.168.168 0 0 1-.164.13c-.012 0-.024 0-.036-.005z" fill="#98ccfd"/><path d="M11.395 15.996L7.934 31.254l-4.059-.922 4.05-14.336h3.47m1.25-1H7.168L2.816 30.398a.669.669 0 0 0 .497.832l4.722 1.07a.67.67 0 0 0 .8-.5z" fill="#4788c7"/><path d="M7 29c0 .55-.45 1-1 1s-1-.45-1-1 .45-1 1-1 1 .45 1 1zm3-11a1 1 0 1 1-2.001.001A1 1 0 0 1 10 18z" fill="#fff"/><path d="M8.5 13h-1a.504.504 0 0 1-.5-.5c0-.273.227-.5.5-.5h1c.273 0 .5.227.5.5s-.227.5-.5.5z" fill="#4788c7"/></svg>