<svg xmlns="http://www.w3.org/2000/svg" viewBox="0 0 24 24"><path d="M8 2a1.999 1.999 0 1 0 0 4 1.999 1.999 0 1 0 0-4zm4.094.469l-.469 3.156-1.875.719h-.094l-2.531.375c-.293.043-.555.195-.781.406h-.032v-.031l-2.093 2a1.504 1.504 0 0 0-.344 1.656l1.375 3.344 1.844-.75-1.25-3.031 1.062-1c.969 3.199 2.907 3.246 3.625 5.812.012.04.02.059.031.094l.5 1.906L9.97 22h2.062l1-4.438a2.057 2.057 0 0 0-.031-.937l-1.031-4.031L20.5 8.5l-.875-1.813-6.406 3.094a1.148 1.148 0 0 0-.219.094l-.063.031c-.957.41-2.093-.176-2.53-1.687l2.218-.844c.512-.191.89-.648.969-1.188l.5-3.437z"/></svg>