<svg xmlns="http://www.w3.org/2000/svg" viewBox="0 0 32 32"><path d="M15.5 4A3.514 3.514 0 0 0 12 7.5c0 .71.223 1.352.594 1.906-.281.328-2.594 3.09-2.594 6.156l1.219 5.5L9.125 28h2.094l2.062-6.781L12 15.469c.05-2.301 1.918-4.574 2.094-4.781.433.195.902.312 1.406.312 1.375 0 2.555-.836 3.125-2H25V7h-6.031c-.25-1.68-1.723-3-3.469-3zm0 2c.84 0 1.5.66 1.5 1.5S16.34 9 15.5 9 14 8.34 14 7.5 14.66 6 15.5 6zm4.781 5.313l-2.5 2.593-3-1.625-.937 1.75 3.344 1.813c.59.32 1.347.207 1.812-.281l2.719-2.876zm-5.5 8.656l-1.062 3.093.906 4.938h2.031l-1.281-6.719z"/></svg>