<svg xmlns="http://www.w3.org/2000/svg" viewBox="0 0 80 80"><path d="M39.387 8c-2.535 0-4.723 1.36-6.297 2.64a17.983 17.983 0 0 0-2.578 2.579l-.903 1.156 1.407.418s.129.027.359.262c.23.234.508.629.508 1.558 0 1.547.242 2.914.332 3.407-.074.19-.215.328-.215.554 0 .453.11.703.188.965.039.129.074.246.093.324.02.078.012.168.012-.031 0 .582.348 1.012.797 1.316.195 2.055 1.324 3.766 2.91 4.915v1.097c-.324.094-2.04.563-4.11 1.54-1.124.53-2.269 1.175-3.19 1.968-.927.793-1.7 1.809-1.7 3.078v1.566c-1.363-.53-2.773-1.082-3-1.148v-1.102c1.59-1.148 2.715-2.859 2.91-4.914.45-.304.797-.734.797-1.316 0 .2-.008.11.012.031.02-.078.054-.195.093-.324.079-.262.188-.512.188-.965 0-.222-.145-.363-.219-.554.094-.63.469-3.122.469-4.739 0-1.86-.715-3.273-1.703-4.14-.832-.73-1.79-1.028-2.676-1.121-.172-.258-.234-.454-.73-.844C22.363 15.57 21.12 15 19.387 15c-2.535 0-4.723 1.36-6.297 2.64a17.983 17.983 0 0 0-2.578 2.579l-.903 1.156 1.407.418s.129.027.359.262c.23.234.508.629.508 1.558 0 1.547.242 2.914.332 3.407-.074.19-.215.328-.215.554 0 .453.11.703.188.965.039.129.074.246.093.324.02.078.012.168.012-.031 0 .582.348 1.012.797 1.316.195 2.055 1.324 3.766 2.91 4.915v1.097c-.324.094-2.04.563-4.11 1.54-1.124.53-2.269 1.175-3.195 1.968C7.773 40.461 7 41.477 7 42.746V56c0 3.77 2.32 7.164 6.016 9.852 3.695 2.687 8.812 4.75 14.785 5.96l1.199.243V69c.55 0 1-.45 1-1 0-.457-.313-.855-.754-.969.16-.261.41-.55.754-.847a8.603 8.603 0 0 1 1.09-.778.998.998 0 1 0 1.754-.941c1.98-.922 3.87-1.453 3.965-1.48H38V60c.55 0 1-.45 1-1s-.45-1-1-1a.99.99 0 0 0-.895.563 4.992 4.992 0 0 1-1.527-1.75A.991.991 0 0 0 36 56c0-.54-.426-.977-.965-1-.012-.156-.031-.313-.031-.473L35 53.555l-.754-.02c-.016-.05-.023-.144-.035-.195a23.49 23.49 0 0 0-.106-.367c-.058-.196-.078-.328-.09-.332l.278-.309-.09-.48c-.062-.332-.32-1.836-.32-3.239 0-1.36-.5-2.328-1.047-2.91.312-.36.602-.707 1.258-1.277a1.002 1.002 0 1 0 1.574-1.172C36.813 42.539 38.113 42 39.387 42c1.308 0 2.062.395 2.523.754.461.36.574.621.574.621l.278.559h.62c.52 0 1.278.21 1.845.71.566.5 1.023 1.262 1.023 2.637 0 1.313-.39 4.117-.46 4.602l-.071.469.265.289c-.011.004-.03.136-.09.332l-.105.367c-.012.05-.02.144-.035.191l-.754.02-.004.972a4.98 4.98 0 0 1-2.496 4.301l-.5.29v3.87h1.191c.098.028 2.047.57 4.063 1.524 1.031.488 2.047 1.074 2.746 1.676.695.601 1 1.148 1 1.562v4.309l1.2-.243c5.972-1.21 11.09-3.273 14.784-5.96C70.68 63.164 73 59.77 73 56V42.746c0-1.27-.773-2.281-1.7-3.074-.921-.797-2.066-1.438-3.19-1.969-2.07-.976-3.786-1.45-4.11-1.543v-1.097c1.59-1.149 2.715-2.86 2.91-4.915.45-.304.797-.73.797-1.316 0 .203-.008.11.012.031.02-.074.054-.195.094-.324.078-.262.187-.508.187-.965 0-.222-.145-.36-.219-.55.094-.63.469-3.126.469-4.743 0-1.86-.715-3.273-1.703-4.14-.832-.73-1.79-1.028-2.676-1.121-.172-.258-.234-.454-.73-.84-.778-.606-2.02-1.18-3.754-1.18-2.535 0-4.723 1.36-6.297 2.64a17.983 17.983 0 0 0-2.578 2.579l-.903 1.156 1.407.418s.129.027.359.262c.23.234.508.629.508 1.558 0 1.551.242 2.918.332 3.414-.07.188-.215.325-.215.547 0 .453.11.703.188.965.039.129.074.246.093.324.02.078.012.168.012-.031 0 .582.348 1.012.797 1.316.195 2.055 1.324 3.766 2.91 4.915v1.101c-.227.066-1.637.617-3 1.148v-1.566c0-1.27-.773-2.285-1.7-3.078-.921-.793-2.066-1.438-3.19-1.969-2.07-.976-3.786-1.445-4.11-1.539v-1.098c1.59-1.148 2.715-2.859 2.91-4.914.45-.304.797-.734.797-1.316 0 .2-.008.11.012.031.02-.078.054-.195.093-.324.079-.262.188-.512.188-.965 0-.222-.145-.363-.219-.554.094-.63.469-3.122.469-4.739 0-1.86-.715-3.273-1.703-4.14-.832-.73-1.79-1.028-2.676-1.121-.172-.258-.234-.454-.73-.84C42.363 8.57 41.12 8 39.387 8zM51 71c0-.55-.45-1-1-1s-1 .45-1 1 .45 1 1 1 1-.45 1-1zm-9-9c0-.55-.45-1-1-1s-1 .45-1 1 .45 1 1 1 1-.45 1-1zm-2.613-52c1.308 0 2.062.395 2.523.754.461.36.574.621.574.621l.278.559h.62c.52 0 1.278.21 1.845.71.566.5 1.023 1.262 1.023 2.637 0 1.313-.39 4.117-.46 4.602l-.071.469.265.289c-.011.004-.03.136-.09.332l-.105.367c-.012.05-.02.144-.035.195l-.754.02-.004.972a4.97 4.97 0 0 1-2.496 4.297l-.5.29v3.87h1.191c.098.028 2.047.57 4.063 1.524 1.031.488 2.047 1.074 2.746 1.676.695.601 1 1.148 1 1.562v4.625l1.441-.71a28.372 28.372 0 0 1 4.371-1.677H58v-3.87l-.5-.29a4.98 4.98 0 0 1-2.496-4.3L55 28.55l-.754-.02c-.016-.047-.023-.14-.035-.191a23.49 23.49 0 0 0-.106-.367c-.058-.196-.078-.328-.09-.332l.278-.305-.09-.484c-.062-.332-.32-1.836-.32-3.239 0-1.355-.5-2.328-1.047-2.91.36-.414.586-.754 1.52-1.512 1.385-1.13 3.241-2.19 5.029-2.19 1.31 0 2.063.395 2.524.754.461.363.574.621.574.621l.278.559h.62c.52 0 1.278.21 1.845.71.566.5 1.023 1.262 1.023 2.637 0 1.313-.39 4.121-.46 4.606l-.071.465.265.289c-.011 0-.03.14-.09.336-.035.117-.07.238-.105.363-.012.05-.02.148-.035.195l-.754.02-.004.972a4.981 4.981 0 0 1-2.496 4.301l-.5.285v3.871h1.188c.09.028 2.046.575 4.066 1.528 1.031.484 2.047 1.074 2.746 1.675.695.598 1 1.145 1 1.56V56c0 2.945-1.816 5.777-5.191 8.234C62.69 66.504 58.19 68.31 53 69.5v-1.754c0-1.27-.773-2.285-1.7-3.078-.921-.793-2.066-1.438-3.19-1.969-2.07-.976-3.786-1.445-4.11-1.539v-1.097c1.586-1.149 2.715-2.86 2.91-4.915.45-.304.797-.734.797-1.316 0 .2-.008.11.012.031.02-.078.054-.195.093-.324.079-.262.188-.512.188-.965 0-.222-.145-.363-.219-.554.094-.63.469-3.122.469-4.739 0-1.86-.715-3.273-1.703-4.14-.832-.73-1.79-1.028-2.676-1.121-.172-.258-.234-.454-.73-.844C42.363 40.57 41.12 40 39.387 40c-2.535 0-4.723 1.36-6.297 2.64a17.983 17.983 0 0 0-2.578 2.579l-.903 1.156 1.407.418s.129.027.359.262c.23.234.508.629.508 1.558a19.3 19.3 0 0 0 .332 3.407c-.074.19-.215.328-.215.554 0 .453.11.703.188.965.039.129.074.246.093.324.02.078.012.168.012-.031 0 .582.348 1.012.797 1.316.195 2.055 1.32 3.766 2.91 4.914v1.098c-.324.094-2.04.563-4.11 1.54-1.124.53-2.269 1.175-3.19 1.968-.927.793-1.7 1.809-1.7 3.078V69.5c-5.191-1.191-9.691-2.996-12.809-5.266C10.816 61.777 9 58.945 9 56V42.746c0-.414.305-.96 1-1.562.7-.602 1.715-1.188 2.746-1.676 2.016-.953 3.965-1.496 4.063-1.524H18v-3.87l-.5-.29a4.98 4.98 0 0 1-2.496-4.3L15 28.55l-.754-.02c-.016-.047-.023-.14-.035-.191a23.49 23.49 0 0 0-.106-.367c-.058-.196-.078-.328-.09-.332l.278-.309-.09-.48c-.062-.332-.32-1.836-.32-3.239 0-1.36-.5-2.328-1.047-2.91.36-.414.586-.754 1.52-1.512 1.385-1.13 3.241-2.19 5.029-2.19 1.31 0 2.063.395 2.524.754.461.36.574.621.574.621l.278.559h.62c.52 0 1.278.21 1.845.71.566.5 1.023 1.262 1.023 2.637 0 1.313-.39 4.117-.46 4.602l-.071.469.265.289c-.011.004-.03.136-.09.332l-.105.367c-.012.05-.02.144-.035.195l-.754.02-.004.972a4.97 4.97 0 0 1-2.496 4.297l-.5.29v3.87h1.188c.097.028 2.261.637 4.37 1.676l1.442.711v-4.625c0-.414.305-.96 1-1.562.7-.602 1.715-1.188 2.746-1.676 2.016-.953 3.965-1.496 4.063-1.524H38v-3.87l-.5-.29a4.98 4.98 0 0 1-2.496-4.3L35 21.55l-.754-.02c-.016-.047-.023-.14-.035-.191a23.49 23.49 0 0 0-.106-.367c-.058-.196-.078-.328-.09-.332l.278-.309-.09-.48c-.062-.332-.32-1.836-.32-3.239 0-1.36-.5-2.328-1.047-2.91.36-.414.586-.754 1.52-1.512 1.385-1.13 3.241-2.19 5.029-2.19zM41 43c-.55 0-1 .45-1 1s.45 1 1 1 1-.45 1-1-.45-1-1-1zm-3 3c-.55 0-1 .45-1 1s.45 1 1 1 1-.45 1-1-.45-1-1-1zm6 0c-.55 0-1 .45-1 1s.45 1 1 1 1-.45 1-1-.45-1-1-1zm-9 3c-.55 0-1 .45-1 1s.45 1 1 1 1-.45 1-1-.45-1-1-1zm6 0c-.55 0-1 .45-1 1s.45 1 1 1 1-.45 1-1-.45-1-1-1zm-3 3c-.55 0-1 .45-1 1s.45 1 1 1 1-.45 1-1-.45-1-1-1zm6 0c-.55 0-1 .45-1 1s.45 1 1 1 1-.45 1-1-.45-1-1-1zm-3 3c-.55 0-1 .45-1 1s.45 1 1 1 1-.45 1-1-.45-1-1-1zm-3 9c-.55 0-1 .45-1 1s.45 1 1 1 1-.45 1-1-.45-1-1-1zm6 0c-.55 0-1 .45-1 1s.45 1 1 1 1-.45 1-1-.45-1-1-1zm-9 3c-.55 0-1 .45-1 1s.45 1 1 1 1-.45 1-1-.45-1-1-1zm6 0c-.55 0-1 .45-1 1s.45 1 1 1 1-.45 1-1-.45-1-1-1zm6 0c-.55 0-1 .45-1 1s.45 1 1 1 1-.45 1-1-.45-1-1-1zm-15 3c-.55 0-1 .45-1 1s.45 1 1 1 1-.45 1-1-.45-1-1-1zm6 0c-.55 0-1 .45-1 1s.45 1 1 1 1-.45 1-1-.45-1-1-1zm6 0c-.55 0-1 .45-1 1s.45 1 1 1 1-.45 1-1-.45-1-1-1z"/></svg>