<svg xmlns="http://www.w3.org/2000/svg" viewBox="0 0 24 24"><path d="M18 22H6c-.55 0-1-.45-1-1s.45-1 1-1h12c.55 0 1 .45 1 1s-.45 1-1 1zm0-3H6c-.55 0-1-.45-1-1s.45-1 1-1h12c.55 0 1 .45 1 1s-.45 1-1 1zm-7.95-7.531c.071.07-.046-.09 0 0zM6.45 16h4.355c.086-.953.195-2.273.195-2.5 0-.71-.297-1.379-.95-2.031L7 8.293a1 1 0 1 0-1.414 1.414l2.293 2.414c-.91-.219-1.98-.547-2.367-.918a13.57 13.57 0 0 1-.918-.95 2.006 2.006 0 0 1 0-2.827C4.605 7.418 4 3 4 3c0-.55-.45-1-1-1s-1 .45-1 1v7.5c0 .7.29 1.328.75 1.781v.004l3.11 2.352c.355.355.542.73.59 1.363zm6.5-4.531c-.071.07.046-.09 0 0zM16.55 16h-4.355c-.086-.953-.195-2.273-.195-2.5 0-.71.297-1.379.95-2.031L16 8.293a1 1 0 1 1 1.414 1.414l-2.293 2.414c.91-.219 1.98-.547 2.367-.918.637-.613.918-.95.918-.95a2.006 2.006 0 0 0 0-2.827C18.395 7.418 19 3 19 3c0-.55.45-1 1-1s1 .45 1 1v7.5c0 .7-.29 1.328-.75 1.781v.004l-3.11 2.352c-.355.355-.542.73-.59 1.363z"/></svg>