<svg xmlns="http://www.w3.org/2000/svg" viewBox="0 0 48 48"><g fill="#03a9f4"><path d="M6.633 16.602a.095.095 0 0 0-.07.035c-1.95 2.738-3.125 4.593-4.34 6.843l-.125.247-.035.082c-.106.214-.079.457.07.687.719 1.125 4.758 2.438 13.781 2.438 6.723 0 13.871-1.082 13.871-3.09 0-1.942-7.058-3.098-13.87-3.098-2.267 0-4.509.313-5.153.418.617-.95 3.175-4.394 3.203-4.426.012-.02.02-.031.02-.05 0-.016-.005-.028-.008-.043-.02-.024-.051-.047-.082-.047H6.633m2.629 7.246c0-.418 2.527-1 6.652-1 4.121 0 6.645.582 6.645 1 0 .422-2.524 1.004-6.645 1.004-4.125 0-6.652-.582-6.652-1.004"/><path d="M11.738 33.95s33.535 1.362 34.25-10.337c.582-9.496-23.238-8.59-23.261-8.59-.024 0-.184.012-.184.145 0 .117.086.152.172.152 6.601 0 17.351 2.621 17 8.297-.281 4.621-8.668 10.031-27.969 10.031-.113 0-.191.079-.191.149.004.074.043.14.183.152"/></g></svg>