<svg xmlns="http://www.w3.org/2000/svg" viewBox="0 0 50 50"><path style="line-height:normal;text-indent:0;text-align:start;text-decoration-line:none;text-decoration-style:solid;text-decoration-color:#000;text-transform:none;block-progression:tb;isolation:auto;mix-blend-mode:normal" d="M11 7c-2.75 0-5 2.25-5 5v26c0 2.75 2.25 5 5 5h28c2.75 0 5-2.25 5-5V12c0-2.75-2.25-5-5-5H11zm0 2h28c1.668 0 3 1.332 3 3v26c0 1.668-1.332 3-3 3H11c-1.668 0-3-1.332-3-3V12c0-1.668 1.332-3 3-3zm7.504 8.293a1 1 0 0 0-.725.305l-5.5 5.709A1 1 0 0 0 13 25h2v3a1 1 0 0 0 1 1h5a1 1 0 0 0 1-1v-3h2a1 1 0 0 0 .72-1.693l-5.5-5.71a1 1 0 0 0-.716-.304zm-.004 2.441L21.646 23H21a1 1 0 0 0-1 1v3h-3v-3a1 1 0 0 0-1-1h-.646l3.146-3.266zM16 31a1 1 0 0 0-1 1v4a1 1 0 0 0 1 1h5a1 1 0 0 0 1-1v-4a1 1 0 0 0-1-1h-5zm1 2h3v2h-3v-2z" font-weight="400" font-family="sans-serif" white-space="normal" overflow="visible"/></svg>