<svg xmlns="http://www.w3.org/2000/svg" viewBox="0 0 80 80"><path d="M9 10v62h62V10zm2 2h58v58H11zm19 2c-.55 0-1 .45-1 1s.45 1 1 1 1-.45 1-1-.45-1-1-1zm20 0c-.55 0-1 .45-1 1s.45 1 1 1 1-.45 1-1-.45-1-1-1zm-10 1c-.55 0-1 .45-1 1s.45 1 1 1 1-.45 1-1-.45-1-1-1zm24.5 0a1.5 1.5 0 1 0 0 3 1.5 1.5 0 0 0 0-3zm-28.02 1.465a1.006 1.006 0 0 0-.726.293 1.007 1.007 0 0 0 0 1.414c.39.39 1.027.39 1.418 0a1.007 1.007 0 0 0 0-1.414 1.01 1.01 0 0 0-.692-.293zm7.07 0a1 1 0 1 0 .691.293.996.996 0 0 0-.69-.293zM24.5 17a1.5 1.5 0 1 0 0 3 1.5 1.5 0 0 0 0-3zm5.5 1c-.55 0-1 .45-1 1s.45 1 1 1 1-.45 1-1-.45-1-1-1zm10 0c-1.645 0-3 1.355-3 3s1.355 3 3 3 3-1.355 3-3-1.355-3-3-3zm10 0c-.55 0-1 .45-1 1s.45 1 1 1 1-.45 1-1-.45-1-1-1zm8.5 0a3.514 3.514 0 0 0-3.5 3.5c0 .14.043.242.059.371C54.457 22.418 54 23.125 54 24c0 1.645 1.355 3 3 3h6c1.645 0 3-1.355 3-3 0-1.371-1.027-2.352-2.297-2.703C63.352 20.027 62.371 19 61 19c-.063 0-.11.016-.172.02-.625-.586-1.406-1.02-2.328-1.02zM35 20c-.55 0-1 .45-1 1s.45 1 1 1 1-.45 1-1-.45-1-1-1zm5 0c.563 0 1 .438 1 1 0 .563-.438 1-1 1-.563 0-1-.438-1-1 0-.563.438-1 1-1zm5 0c-.55 0-1 .45-1 1s.45 1 1 1 1-.45 1-1-.45-1-1-1zm13.5 0c.512 0 .95.25 1.219.637l.39.55.657-.156A.982.982 0 0 1 62 22v1h1c.566 0 1 .434 1 1 0 .566-.434 1-1 1h-6c-.566 0-1-.434-1-1a.98.98 0 0 1 .563-.89l.753-.376-.242-.808A1.457 1.457 0 0 1 57 21.5c0-.84.66-1.5 1.5-1.5zm-41.063 1.64l-3.746 2.446 1.098 1.676 2.508-1.645 2.902 2.395 2.38-1.832 2.546 2.093 1.27-1.546-3.782-3.102-2.375 1.828zM30 22c-.55 0-1 .45-1 1s.45 1 1 1 1-.45 1-1-.45-1-1-1zm20 0c-.55 0-1 .45-1 1s.45 1 1 1 1-.45 1-1-.45-1-1-1zm-13.52 1.535a1 1 0 1 0 .691.293 1.003 1.003 0 0 0-.69-.293zm7.07 0a1 1 0 1 0 .691.293.996.996 0 0 0-.69-.293zM40 25c-.55 0-1 .45-1 1s.45 1 1 1 1-.45 1-1-.45-1-1-1zm-10 1c-.55 0-1 .45-1 1s.45 1 1 1 1-.45 1-1-.45-1-1-1zm20 0c-.55 0-1 .45-1 1s.45 1 1 1 1-.45 1-1-.45-1-1-1zm-36 4c-.55 0-1 .45-1 1s.45 1 1 1 1-.45 1-1-.45-1-1-1zm4 0c-.55 0-1 .45-1 1s.45 1 1 1 1-.45 1-1-.45-1-1-1zm4 0c-.55 0-1 .45-1 1s.45 1 1 1 1-.45 1-1-.45-1-1-1zm4 0c-.55 0-1 .45-1 1s.45 1 1 1 1-.45 1-1-.45-1-1-1zm4 0c-.55 0-1 .45-1 1s.45 1 1 1 1-.45 1-1-.45-1-1-1zm4 0c-.55 0-1 .45-1 1s.45 1 1 1 1-.45 1-1-.45-1-1-1zm4 0c-.55 0-1 .45-1 1s.45 1 1 1 1-.45 1-1-.45-1-1-1zm4 0c-.55 0-1 .45-1 1s.45 1 1 1 1-.45 1-1-.45-1-1-1zm4 0c-.55 0-1 .45-1 1s.45 1 1 1 1-.45 1-1-.45-1-1-1zm4 0c-.55 0-1 .45-1 1s.45 1 1 1 1-.45 1-1-.45-1-1-1zm4 0c-.55 0-1 .45-1 1s.45 1 1 1 1-.45 1-1-.45-1-1-1zm4 0c-.55 0-1 .45-1 1s.45 1 1 1 1-.45 1-1-.45-1-1-1zm4 0c-.55 0-1 .45-1 1s.45 1 1 1 1-.45 1-1-.45-1-1-1zm4 0c-.55 0-1 .45-1 1s.45 1 1 1 1-.45 1-1-.45-1-1-1zm-36 4c-.55 0-1 .45-1 1s.45 1 1 1 1-.45 1-1-.45-1-1-1zm20 0c-.55 0-1 .45-1 1s.45 1 1 1 1-.45 1-1-.45-1-1-1zm10 1c-.55 0-1 .45-1 1s.45 1 1 1 1-.45 1-1-.45-1-1-1zm-40 1a2 2 0 0 0-2 2c0 .094.031.207.059.316a1.45 1.45 0 0 0-.293-.144 2 2 0 0 0-1.239 3.8c.09.032.196.048.309.055a1.457 1.457 0 0 0-.219.223 2.003 2.003 0 0 0 3.238 2.355c.055-.078.098-.175.145-.277.043.102.09.2.145.277a2 2 0 1 0 3.234-2.355 1.295 1.295 0 0 0-.219-.223c.113-.007.223-.023.309-.054a1.994 1.994 0 0 0 1.285-2.52 2.001 2.001 0 0 0-2.52-1.281 1.45 1.45 0 0 0-.293.144c.028-.109.059-.222.059-.316a2 2 0 0 0-2-2zm24.5 0a1.5 1.5 0 1 0 0 3 1.5 1.5 0 0 0 0-3zm19.047.465a1.006 1.006 0 0 0-.719.289c-.39.39-.39 1.027 0 1.418.39.387 1.024.387 1.414 0 .39-.39.39-1.027 0-1.418a.985.985 0 0 0-.695-.29zm-7.067 0a1.006 1.006 0 0 0-.726.293 1.007 1.007 0 0 0 0 1.414c.39.39 1.027.39 1.418 0a1.007 1.007 0 0 0 0-1.414 1.01 1.01 0 0 0-.692-.293zM30 38c-.55 0-1 .45-1 1s.45 1 1 1 1-.45 1-1-.45-1-1-1zm20 0c-.55 0-1 .45-1 1s.45 1 1 1 1-.45 1-1-.45-1-1-1zm10 0c-1.645 0-3 1.355-3 3s1.355 3 3 3 3-1.355 3-3-1.355-3-3-3zm-40 1a1.999 1.999 0 1 1 0 4 1.999 1.999 0 1 1 0-4zm35 1c-.55 0-1 .45-1 1s.45 1 1 1 1-.45 1-1-.45-1-1-1zm5 0c.563 0 1 .438 1 1 0 .563-.438 1-1 1-.563 0-1-.438-1-1 0-.563.438-1 1-1zm5 0c-.55 0-1 .45-1 1s.45 1 1 1 1-.45 1-1-.45-1-1-1zm-27.563.64l-3.746 2.446 1.098 1.676 2.508-1.645 2.902 2.395 2.38-1.832 2.546 2.093 1.27-1.546-3.782-3.102-2.375 1.828zM30 42c-.55 0-1 .45-1 1s.45 1 1 1 1-.45 1-1-.45-1-1-1zm20 0c-.55 0-1 .45-1 1s.45 1 1 1 1-.45 1-1-.45-1-1-1zm6.48 1.535a1 1 0 1 0 .691.293 1.003 1.003 0 0 0-.69-.293zm7.067 0a1 1 0 1 0 .695.293 1.005 1.005 0 0 0-.695-.293zM60 45c-.55 0-1 .45-1 1s.45 1 1 1 1-.45 1-1-.45-1-1-1zm-30 1c-.55 0-1 .45-1 1s.45 1 1 1 1-.45 1-1-.45-1-1-1zm20 0c-.55 0-1 .45-1 1s.45 1 1 1 1-.45 1-1-.45-1-1-1zm-36 4c-.55 0-1 .45-1 1s.45 1 1 1 1-.45 1-1-.45-1-1-1zm4 0c-.55 0-1 .45-1 1s.45 1 1 1 1-.45 1-1-.45-1-1-1zm4 0c-.55 0-1 .45-1 1s.45 1 1 1 1-.45 1-1-.45-1-1-1zm4 0c-.55 0-1 .45-1 1s.45 1 1 1 1-.45 1-1-.45-1-1-1zm4 0c-.55 0-1 .45-1 1s.45 1 1 1 1-.45 1-1-.45-1-1-1zm4 0c-.55 0-1 .45-1 1s.45 1 1 1 1-.45 1-1-.45-1-1-1zm4 0c-.55 0-1 .45-1 1s.45 1 1 1 1-.45 1-1-.45-1-1-1zm4 0c-.55 0-1 .45-1 1s.45 1 1 1 1-.45 1-1-.45-1-1-1zm4 0c-.55 0-1 .45-1 1s.45 1 1 1 1-.45 1-1-.45-1-1-1zm4 0c-.55 0-1 .45-1 1s.45 1 1 1 1-.45 1-1-.45-1-1-1zm4 0c-.55 0-1 .45-1 1s.45 1 1 1 1-.45 1-1-.45-1-1-1zm4 0c-.55 0-1 .45-1 1s.45 1 1 1 1-.45 1-1-.45-1-1-1zm4 0c-.55 0-1 .45-1 1s.45 1 1 1 1-.45 1-1-.45-1-1-1zm4 0c-.55 0-1 .45-1 1s.45 1 1 1 1-.45 1-1-.45-1-1-1zm-36 4c-.55 0-1 .45-1 1s.45 1 1 1 1-.45 1-1-.45-1-1-1zm20 0c-.55 0-1 .45-1 1s.45 1 1 1 1-.45 1-1-.45-1-1-1zm-29 1c-.55 0-1 .45-1 1s.45 1 1 1 1-.45 1-1-.45-1-1-1zm23.5 0a1.5 1.5 0 1 0 0 3 1.5 1.5 0 0 0 0-3zM60 56a2 2 0 0 0-2 2c0 .094.031.207.059.316a1.45 1.45 0 0 0-.293-.144 2 2 0 0 0-1.239 3.8c.09.032.196.048.309.055a1.457 1.457 0 0 0-.219.223 2.003 2.003 0 0 0 3.238 2.355c.055-.078.098-.175.145-.277.043.102.09.2.145.277a2 2 0 1 0 3.234-2.355 1.295 1.295 0 0 0-.219-.223c.113-.007.223-.023.309-.054a1.994 1.994 0 0 0 1.285-2.52 2.001 2.001 0 0 0-2.52-1.281 1.45 1.45 0 0 0-.293.144c.028-.109.059-.222.059-.316a2 2 0 0 0-2-2zm-35.453.465a1.006 1.006 0 0 0-.719.289c-.39.39-.39 1.027 0 1.418.39.387 1.024.387 1.414 0 .39-.39.39-1.027 0-1.418a.985.985 0 0 0-.695-.29zm-7.067 0a1.006 1.006 0 0 0-.726.293 1.007 1.007 0 0 0 0 1.414c.39.39 1.027.39 1.418 0a1.007 1.007 0 0 0 0-1.414 1.01 1.01 0 0 0-.692-.293zM21 58c-1.645 0-3 1.355-3 3s1.355 3 3 3 3-1.355 3-3-1.355-3-3-3zm9 0c-.55 0-1 .45-1 1s.45 1 1 1 1-.45 1-1-.45-1-1-1zm8.5 0a3.514 3.514 0 0 0-3.5 3.5c0 .14.043.242.059.371C34.457 62.418 34 63.125 34 64c0 1.645 1.355 3 3 3h6c1.645 0 3-1.355 3-3 0-1.371-1.027-2.352-2.297-2.703C43.352 60.027 42.371 59 41 59c-.063 0-.11.016-.172.02-.625-.586-1.406-1.02-2.328-1.02zM50 58c-.55 0-1 .45-1 1s.45 1 1 1 1-.45 1-1-.45-1-1-1zm10 1a1.999 1.999 0 1 1 0 4 1.999 1.999 0 1 1 0-4zm-44 1c-.55 0-1 .45-1 1s.45 1 1 1 1-.45 1-1-.45-1-1-1zm5 0c.563 0 1 .438 1 1 0 .563-.438 1-1 1-.563 0-1-.438-1-1 0-.563.438-1 1-1zm5 0c-.55 0-1 .45-1 1s.45 1 1 1 1-.45 1-1-.45-1-1-1zm12.5 0c.512 0 .95.25 1.219.637l.39.55.657-.156A.982.982 0 0 1 42 62v1h1c.566 0 1 .434 1 1 0 .566-.434 1-1 1h-6c-.566 0-1-.434-1-1a.98.98 0 0 1 .563-.89l.753-.376-.242-.808A1.457 1.457 0 0 1 37 61.5c0-.84.66-1.5 1.5-1.5zM30 62c-.55 0-1 .45-1 1s.45 1 1 1 1-.45 1-1-.45-1-1-1zm20 0c-.55 0-1 .45-1 1s.45 1 1 1 1-.45 1-1-.45-1-1-1zm-32.52 1.535a1 1 0 1 0 .691.293 1.003 1.003 0 0 0-.69-.293zm7.07 0a1 1 0 1 0 .691.293.996.996 0 0 0-.69-.293zM21 65c-.55 0-1 .45-1 1s.45 1 1 1 1-.45 1-1-.45-1-1-1zm9 1c-.55 0-1 .45-1 1s.45 1 1 1 1-.45 1-1-.45-1-1-1zm20 0c-.55 0-1 .45-1 1s.45 1 1 1 1-.45 1-1-.45-1-1-1z"/></svg>