<svg xmlns="http://www.w3.org/2000/svg" viewBox="0 0 40 40"><path d="M38.082 12.984h.961v-2.699H40V9.5h-2.785v.785h.867zm-1.555-1.312h-.992v.086c0 .332-.086.496-.5.496-.414 0-.496-.164-.496-.664v-.582c0-.496 0-.664.496-.664.332 0 .5.086.5.418v.082h.91v-.082c0-.914-.332-1.246-1.324-1.246h-.25c-.996 0-1.328.332-1.328 1.41v.664c0 .996.332 1.41 1.328 1.41h.332c.914 0 1.242-.414 1.242-1.246v-.082zM23.906 9.516l-.695 2.527-.785-2.527H21.03V13h.957v-2.613L22.684 13h.96l.782-2.523V13h.87V9.516zm8.008 0h-1.566L29.305 13h1.043l.172-.61h1.218l.176.61h1.043zm-.695 2.18h-.352l.352-1.481.343 1.48zm-3.481-2.18h-1.652V13h.96v-.957h.696c.957 0 1.305-.348 1.305-1.219v-.261c0-.786-.352-1.047-1.309-1.047zm.352 1.394c0 .348-.09.434-.352.434h-.691V10.3h.605c.352 0 .438.086.438.347zm-9.344-1.394h-.496c-.996 0-1.324.336-1.324 1.41v.664c0 .996.332 1.41 1.324 1.41h.496c.996 0 1.328-.414 1.328-1.41v-.664c0-1.074-.332-1.41-1.328-1.41zm.332 1.91c0 .496 0 .664-.496.664h-.164c-.496 0-.496-.168-.496-.664v-.5c0-.496 0-.664.496-.664h.164c.496 0 .496.168.496.664zm-3.094.25h-.996v.082c0 .332-.082.496-.496.496s-.496-.164-.496-.664v-.578c0-.5 0-.664.496-.664.332 0 .496.082.496.414v.082h.914v-.082c0-.914-.332-1.246-1.324-1.246h-.25c-.996 0-1.328.332-1.328 1.41v.664c0 .996.332 1.41 1.328 1.41h.332c.91 0 1.242-.414 1.242-1.242v-.086z" fill="#4788c7"/><path d="M14 29.5a.504.504 0 0 1-.5-.5V15c0-.273.227-.5.5-.5h2c.273 0 .5.227.5.5v14c0 .273-.227.5-.5.5z" fill="#dff0fe"/><path d="M16 15v14h-2V15h2m0-1h-2c-.55 0-1 .45-1 1v14c0 .55.45 1 1 1h2c.55 0 1-.45 1-1V15c0-.55-.45-1-1-1z" fill="#4788c7"/><path d="M19 29.5a.504.504 0 0 1-.5-.5v-2c0-.273.227-.5.5-.5h5.5v-3H19a.504.504 0 0 1-.5-.5v-8c0-.273.227-.5.5-.5h8c.273 0 .5.227.5.5v2c0 .273-.227.5-.5.5h-5.5v3H27c.273 0 .5.227.5.5v8c0 .273-.227.5-.5.5z" fill="#dff0fe"/><path d="M27 15v2h-6v4h6v8h-8v-2h6v-4h-6v-8h8m0-1h-8c-.55 0-1 .45-1 1v8c0 .55.45 1 1 1h5v2h-5c-.55 0-1 .45-1 1v2c0 .55.45 1 1 1h8c.55 0 1-.45 1-1v-8c0-.55-.45-1-1-1h-5v-2h5c.55 0 1-.45 1-1v-2c0-.55-.45-1-1-1z" fill="#4788c7"/><path d="M1 29.5a.504.504 0 0 1-.5-.5V15c0-.273.227-.5.5-.5h7.5V10c0-.273.227-.5.5-.5h2c.273 0 .5.227.5.5v19c0 .273-.227.5-.5.5zm2.5-3h5v-9h-5z" fill="#dff0fe"/><path d="M11 10v19H1V15h8v-5h2M3 27h6V17H3v10m8-18H9c-.55 0-1 .45-1 1v4H1c-.55 0-1 .45-1 1v14c0 .55.45 1 1 1h10c.55 0 1-.45 1-1V10c0-.55-.45-1-1-1zM4 26v-8h4v8z" fill="#4788c7"/><path d="M30 29.5a.504.504 0 0 1-.5-.5V15c0-.273.227-.5.5-.5h9c.273 0 .5.227.5.5v5.5h-3v-3h-4v9h4v-3h3V29c0 .273-.227.5-.5.5z" fill="#dff0fe"/><path d="M39 15v5h-2v-3h-5v10h5v-3h2v5h-9V15h9m0-1h-9c-.55 0-1 .45-1 1v14c0 .55.45 1 1 1h9c.55 0 1-.45 1-1v-6h-4v3h-3v-8h3v3h4v-6c0-.55-.45-1-1-1z" fill="#4788c7"/></svg>