<svg xmlns="http://www.w3.org/2000/svg" viewBox="0 0 16 16"><path d="M4.234 4A.252.252 0 0 0 4 4.234V7H1.352C1.176 7 1 7.234 1 7.41v4.238c0 .176.176.352.352.352H4.75a.252.252 0 0 0 .234-.234L5 4.293C5 4.059 4.926 4 4.809 4h-.575zm2.221 1C6.152 5 6 5.09 6 5.408v.184c0 .273.101.408.455.408h.102c.304 0 .455-.09.455-.408h-.356v.045c0 .09-.05.134-.15.134-.152 0-.152-.044-.152-.181v-.182c0-.136 0-.181.152-.181.1 0 .15.045.15.136h.305C6.96 5.091 6.86 5 6.506 5h-.05zM7.72 5c-.303 0-.455.09-.455.408v.184c0 .273.1.408.455.408h.152c.303 0 .455-.135.455-.408v-.184c0-.318-.1-.408-.455-.408H7.72zm.96 0v1h.303v-.727L9.186 6h.302l.254-.727V6h.303V5H9.59l-.252.727L9.135 5H8.68zm1.77 0v1h.303v-.273h.202c.303 0 .404-.092.404-.319v-.09c.001-.227-.1-.318-.404-.318h-.506zm1.365 0l-.302 1h.302l.051-.182h.405l.05.182h.303l-.303-1h-.506zm1.467 0c-.303 0-.455.09-.455.408v.184c0 .273.101.408.455.408h.102c.303 0 .455-.09.455-.408h-.305v.045c0 .09-.05.134-.15.134-.152 0-.153-.044-.153-.181v-.182c0-.136 0-.181.153-.181.1 0 .15.045.15.136h.305c0-.272-.101-.363-.455-.363h-.102zm.809 0v.227h.303V6h.304v-.773H15V5h-.91zm-6.32.227h.101c.152 0 .152.044.152.181v.184h-.002c0 .136 0 .181-.152.181h-.1c-.152 0-.153-.044-.153-.181v-.184c0-.136 0-.181.153-.181zm2.982 0h.202c.101 0 .152.045.152.091v.09h-.05c0 .091-.052.137-.102.137h-.203v-.318zm1.314 0l.102.41h-.202l.1-.41zM6.248 7a.265.265 0 0 0-.246.246v4.508c0 .123.123.246.246.246h.504c.124 0 .248-.123.248-.246V7.246A.265.265 0 0 0 6.754 7h-.506zm1.977 0A.24.24 0 0 0 8 7.225v2.55c0 .113.169.225.225.225H10v1H8.225a.241.241 0 0 0-.225.225v.55c0 .113.169.225.225.225h2.55c.056 0 .225-.113.225-.225v-2.55c0-.056-.112-.225-.225-.225H9V8h1.775c.056 0 .225-.113.225-.225v-.55A.241.241 0 0 0 10.775 7h-2.55zm4.017 0a.243.243 0 0 0-.226.225v4.55c0 .113.168.225.224.225h2.535a.24.24 0 0 0 .225-.225V10h-1v.775a.241.241 0 0 1-.225.225h-.55c-.056 0-.225-.113-.225-.225v-2.55c0-.113.113-.225.225-.225h.55c.281 0 .225.225.225.225V9h1V7.225A.222.222 0 0 0 14.775 7h-2.533zM2.234 8h1.532A.25.25 0 0 1 4 8.234v2.532a.252.252 0 0 1-.234.234H2.234A.252.252 0 0 1 2 10.766V8.234C2 8.117 2.117 8 2.234 8z"/></svg>