<svg xmlns="http://www.w3.org/2000/svg" viewBox="0 0 64 64"><path d="M3 6C1.348 6 0 7.348 0 9v48c0 1.652 1.348 3 3 3h58c1.652 0 3-1.348 3-3V9c0-1.652-1.348-3-3-3zm0 2h58c.55 0 1 .45 1 1v48c0 .55-.45 1-1 1H3c-.55 0-1-.45-1-1V9c0-.55.45-1 1-1zm2 2c-.555 0-1 .445-1 1v38c0 .555.445 1 1 1h54c.555 0 1-.445 1-1V11c0-.555-.445-1-1-1zm1 2h52v36H6zm14 4c-.555 0-1 .445-1 1 0 .555.445 1 1 1h6c.555 0 1-.445 1-1 0-.555-.445-1-1-1zm18 0c-.555 0-1 .445-1 1 0 .555.445 1 1 1h6c.555 0 1-.445 1-1 0-.555-.445-1-1-1zm-21 2c-.555 0-1 .445-1 1v8c0 .555.445 1 1 1 .555 0 1-.445 1-1v-8c0-.555-.445-1-1-1zm12 0c-.555 0-1 .445-1 1v8c0 .555.445 1 1 1 .555 0 1-.445 1-1v-8c0-.555-.445-1-1-1zm6 0c-.555 0-1 .445-1 1v8c0 .555.445 1 1 1 .555 0 1-.445 1-1v-8c0-.555-.445-1-1-1zm12 0c-.555 0-1 .445-1 1v8c0 .555.445 1 1 1 .555 0 1-.445 1-1v-8c0-.555-.445-1-1-1zM20 28c-.555 0-1 .445-1 1 0 .555.445 1 1 1h6c.555 0 1-.445 1-1 0-.555-.445-1-1-1zm18 0c-.555 0-1 .445-1 1 0 .555.445 1 1 1h6c.555 0 1-.445 1-1 0-.555-.445-1-1-1zm-21 2c-.555 0-1 .445-1 1v10c0 .555.445 1 1 1 .555 0 1-.445 1-1V31c0-.555-.445-1-1-1zm12 0c-.555 0-1 .445-1 1v10c0 .555.445 1 1 1 .555 0 1-.445 1-1V31c0-.555-.445-1-1-1zm6 0c-.555 0-1 .445-1 1v10c0 .555.445 1 1 1 .555 0 1-.445 1-1V31c0-.555-.445-1-1-1zm12 0c-.555 0-1 .445-1 1v10c0 .555.445 1 1 1 .555 0 1-.445 1-1V31c0-.555-.445-1-1-1zM20 42c-.555 0-1 .445-1 1 0 .555.445 1 1 1h6c.555 0 1-.445 1-1 0-.555-.445-1-1-1zm18 0c-.555 0-1 .445-1 1 0 .555.445 1 1 1h6c.555 0 1-.445 1-1 0-.555-.445-1-1-1zM5 52c-.555 0-1 .445-1 1v2c0 .555.445 1 1 1 .555 0 1-.445 1-1v-2c0-.555-.445-1-1-1zm5 0c-.555 0-1 .445-1 1v2c0 .555.445 1 1 1 .555 0 1-.445 1-1v-2c0-.555-.445-1-1-1zm5 0c-.555 0-1 .445-1 1v2c0 .555.445 1 1 1 .555 0 1-.445 1-1v-2c0-.555-.445-1-1-1zm5 0c-.555 0-1 .445-1 1v2c0 .555.445 1 1 1 .555 0 1-.445 1-1v-2c0-.555-.445-1-1-1zm5 0c-.555 0-1 .445-1 1v2c0 .555.445 1 1 1 .555 0 1-.445 1-1v-2c0-.555-.445-1-1-1zm5 0c-.555 0-1 .445-1 1v2c0 .555.445 1 1 1 .555 0 1-.445 1-1v-2c0-.555-.445-1-1-1zm5 0c-.555 0-1 .445-1 1v2c0 .555.445 1 1 1 .555 0 1-.445 1-1v-2c0-.555-.445-1-1-1zm5 0c-.555 0-1 .445-1 1v2c0 .555.445 1 1 1 .555 0 1-.445 1-1v-2c0-.555-.445-1-1-1zm12.04 0c-1.106 0-2 .895-2 2s.894 2 2 2a1.999 1.999 0 1 0 0-4zm6 0c-1.106 0-2 .895-2 2s.894 2 2 2a1.999 1.999 0 1 0 0-4z"/></svg>