<svg xmlns="http://www.w3.org/2000/svg" viewBox="0 0 64 64"><linearGradient id="a" gradientUnits="userSpaceOnUse" x1="32" y1="21" x2="32" y2="31.5" spreadMethod="reflect"><stop offset="0" stop-color="#6dc7ff"/><stop offset="1" stop-color="#e6abff"/></linearGradient><circle cx="32" cy="25.999" r="4" fill="url(#a)"/><linearGradient id="b" gradientUnits="userSpaceOnUse" x1="32" y1="7.167" x2="32" y2="58.22" spreadMethod="reflect"><stop offset="0" stop-color="#1a6dff"/><stop offset="1" stop-color="#c822ff"/></linearGradient><path d="M57.833 43.14l-7.16-32.222A4.974 4.974 0 0 0 45.789 7H18.211a4.973 4.973 0 0 0-4.884 3.918l-7.16 32.221A6.986 6.986 0 0 0 6 44.658V54c0 1.654 1.346 3 3 3h46c1.654 0 3-1.346 3-3v-9.342a6.97 6.97 0 0 0-.167-1.518zM15.279 11.352A2.986 2.986 0 0 1 18.211 9h27.577c1.418 0 2.624.967 2.932 2.352L53.976 35H50v2h4.42l.444 2H46v2h9.309l.47 2.115A2.993 2.993 0 0 0 55 43H39.597L37.4 38.919a13.955 13.955 0 0 0 8.6-12.92c0-7.72-6.28-14-14-14s-14 6.28-14 14c0 5.706 3.411 10.76 8.6 12.92L24.403 43H9c-.271 0-.529.048-.779.115L8.691 41H18v-2H9.135l.444-2H14v-2h-3.976l5.255-23.648zm19.358 22.435c-.523-.971-1.534-1.574-2.637-1.574s-2.114.604-2.637 1.575l-1.807 3.357A11.963 11.963 0 0 1 20 25.999c0-6.617 5.383-12 12-12s12 5.383 12 12c0 4.958-3.006 9.337-7.555 11.146l-1.808-3.358zm-3.513.949c.254-.473.698-.523.876-.523s.622.051.876.522L37.327 43H26.673l4.451-8.264zM56 54c0 .552-.449 1-1 1H9c-.551 0-1-.448-1-1v-8c0-.552.449-1 1-1h46c.551 0 1 .448 1 1v8z" fill="url(#b)"/><linearGradient id="c" gradientUnits="userSpaceOnUse" x1="48" y1="7.167" x2="48" y2="58.22" spreadMethod="reflect"><stop offset="0" stop-color="#1a6dff"/><stop offset="1" stop-color="#c822ff"/></linearGradient><path d="M52 47h-8c-1.103 0-2 .897-2 2v2c0 1.103.897 2 2 2h8c1.103 0 2-.897 2-2v-2c0-1.103-.897-2-2-2zm0 4h-8v-2h8v2z" fill="url(#c)"/><linearGradient id="d" gradientUnits="userSpaceOnUse" x1="13" y1="7.167" x2="13" y2="58.22" spreadMethod="reflect"><stop offset="0" stop-color="#1a6dff"/><stop offset="1" stop-color="#c822ff"/></linearGradient><path d="M14 47h-2c-1.103 0-2 .897-2 2v2c0 1.103.897 2 2 2h2c1.103 0 2-.897 2-2v-2c0-1.103-.897-2-2-2zm0 4h-2v-2h2v2z" fill="url(#d)"/><linearGradient id="e" gradientUnits="userSpaceOnUse" x1="21" y1="7.167" x2="21" y2="58.22" spreadMethod="reflect"><stop offset="0" stop-color="#1a6dff"/><stop offset="1" stop-color="#c822ff"/></linearGradient><path d="M22 47h-2c-1.103 0-2 .897-2 2v2c0 1.103.897 2 2 2h2c1.103 0 2-.897 2-2v-2c0-1.103-.897-2-2-2zm0 4h-2v-2h2v2z" fill="url(#e)"/><linearGradient id="f" gradientUnits="userSpaceOnUse" x1="29" y1="7.167" x2="29" y2="58.22" spreadMethod="reflect"><stop offset="0" stop-color="#1a6dff"/><stop offset="1" stop-color="#c822ff"/></linearGradient><path d="M30 47h-2c-1.103 0-2 .897-2 2v2c0 1.103.897 2 2 2h2c1.103 0 2-.897 2-2v-2c0-1.103-.897-2-2-2zm0 4h-2v-2h2v2z" fill="url(#f)"/></svg>