<svg xmlns="http://www.w3.org/2000/svg" viewBox="0 0 16 16"><path d="M3.5 2a.502.502 0 0 0-.48.363l-2 7A.525.525 0 0 0 1 9.5v4c0 .277.223.5.5.5h13c.277 0 .5-.223.5-.5v-4a.525.525 0 0 0-.02-.137l-2-7A.502.502 0 0 0 12.5 2zm.375 1h8.25l1.715 6h-3.024a3.007 3.007 0 0 0-1.379-1.617C9.781 7.023 10 6.535 10 6c0-1.098-.902-2-2-2-1.098 0-2 .902-2 2 0 .535.219 1.023.563 1.383A3.007 3.007 0 0 0 5.183 9H2.165zM8 5c.559 0 1 .441 1 1 0 .559-.441 1-1 1-.559 0-1-.441-1-1 0-.559.441-1 1-1zm0 3a1.99 1.99 0 0 1 1.727 1H6.273c.348-.598.985-1 1.727-1zm-6 2h12v3H2zm10.5 1a.499.499 0 1 0 0 1 .499.499 0 1 0 0-1z"/></svg>