<svg xmlns="http://www.w3.org/2000/svg" viewBox="0 0 26 26"><path d="M6 0a3 3 0 0 0-3 3L0 19.031C.84 18.398 1.871 18 3 18h20c1.129 0 2.16.398 3 1.031L23 3a3 3 0 0 0-3-3zm7 3c.55 0 1 .45 1 1a.98.98 0 0 1-.563.875l2.22 4.469 2.53-1.781A.972.972 0 0 1 18 7c0-.55.45-1 1-1s1 .45 1 1-.45 1-1 1c-.066 0-.125-.02-.188-.031L18 12H8l-.813-4.031C7.125 7.98 7.067 8 7 8c-.55 0-1-.45-1-1s.45-1 1-1 1 .45 1 1a.962.962 0 0 1-.188.563l2.532 1.78 2.219-4.468A.98.98 0 0 1 12 4c0-.55.45-1 1-1zM8 13h10v1H8zm-5 6a3 3 0 0 0-3 3v1a3 3 0 0 0 3 3h20a3 3 0 0 0 3-3v-1a3 3 0 0 0-3-3zm18.5 2a1.5 1.5 0 1 1 0 3 1.5 1.5 0 0 1 0-3z"/></svg>