<svg xmlns="http://www.w3.org/2000/svg" viewBox="0 0 40 40"><polygon points="1.5,38.5 1.5,29 5.434,1.5 34.566,1.5 38.505,29.071 38.5,38.5" fill="#8bb7f0"/><path d="M34.133 2L38 29.071V38H2v-8.929L5.867 2h28.266M35 1H5L1 29v10h38V29L35 1z" fill="#4e7ab5"/><polygon points="37.951,29 2.01,29 5.803,2 34.073,2" fill="#c2e8ff"/><circle cx="33.5" cy="33.5" r="1.5" fill="#fff"/><circle cx="10.5" cy="33.5" r="1.5" fill="#fff"/><circle cx="14.5" cy="33.5" r="1.5" fill="#fff"/><circle cx="6.5" cy="33.5" r="1.5" fill="#fff"/><circle cx="20" cy="11" r="4" fill="#4e7ab5"/><path d="M27 24a7 7 0 1 0-14 0h14z" fill="#4e7ab5"/></svg>