<svg xmlns="http://www.w3.org/2000/svg" viewBox="0 0 50 50"><path d="M34 .938c-6.016 0-10.945 4.855-11.063 10.843-.578.91-8.246 12.996-14.28 19.032l.03.03c-.082.063-.374.235-.562.72-.215.554-.043 1.488.563 2.093l1.406 1.407-1.688 1.687C6.68 38.477 5.91 40.434 5.97 42.281c.058 1.848.886 3.543 2.156 4.75 2.535 2.414 6.965 2.973 10.25-.312L32.094 33c2.668-2.668 5.586-2.117 7.375-.375.894.871 1.472 2.05 1.5 3.313.027 1.261-.453 2.64-1.844 4.03l-6.344 6.344a1.06 1.06 0 0 0 1.5 1.5l6.313-6.343c1.726-1.727 2.508-3.707 2.468-5.563-.039-1.855-.867-3.558-2.124-4.781a7.113 7.113 0 0 0-4.844-2c-1.848-.023-3.785.691-5.469 2.375L16.906 45.219c-2.562 2.562-5.5 2.008-7.312.281-.906-.863-1.492-2.04-1.531-3.281-.04-1.242.421-2.61 1.812-4l.094-.063 1.594-1.593.75.718c.597.598 1.421.824 2 .657.503-.145.68-.477.75-.563l.062.063c5.883-5.887 18.18-13.79 19.094-14.376C40.21 22.945 45.062 18.02 45.062 12 45.063 5.91 40.087.937 34 .937zm0 2.125A8.918 8.918 0 0 1 42.938 12a8.89 8.89 0 0 1-1.72 5.281l-12.5-12.5A8.897 8.897 0 0 1 34 3.063zm-6.813 3.156l12.625 12.593A8.906 8.906 0 0 1 34 20.938 8.913 8.913 0 0 1 25.062 12c0-2.215.801-4.223 2.125-5.781zm-3.843 8.687c1.035 3.778 4.027 6.77 7.812 7.781-4.074 2.688-12.562 8.458-17.375 13.25-.015-.019-.011-.011-.062-.062l-3.625-3.656c4.89-4.903 10.597-13.254 13.25-17.313zm-.157 6.625c-.3 0-.617.117-.843.344l-2.688 2.719a1.172 1.172 0 0 0 0 1.656l.094.094c.453.457 1.2.457 1.656 0l2.719-2.719c.457-.453.453-1.2 0-1.656L24 21.875a1.136 1.136 0 0 0-.813-.344z"/></svg>