<svg xmlns="http://www.w3.org/2000/svg" viewBox="0 0 26 26"><path d="M17.5.188A5.313 5.313 0 0 0 12.187 5.5c0 .27.024.523.063.781-.074-.27-.164-.558-.219-.843 0 0-5.355 8.011-9 11.656L5.906 20c3.555-3.559 11.657-9.063 11.657-9.063a7.972 7.972 0 0 1-1.125-.218c.347.07.695.094 1.062.094a5.313 5.313 0 0 0 0-10.626zm0 1.53A3.797 3.797 0 0 1 21.281 5.5c0 1.008-.418 1.918-1.062 2.594L14.906 2.78c.676-.644 1.586-1.062 2.594-1.062zM14 4.126L18.875 9c-.426.168-.89.281-1.375.281A3.794 3.794 0 0 1 13.719 5.5c0-.484.113-.95.281-1.375zm-2.281 6c.277 0 .539.102.75.313l.094.093c.421.422.421 1.11 0 1.531l-1.5 1.5a1.085 1.085 0 0 1-1.532 0l-.094-.093a1.085 1.085 0 0 1 0-1.531l1.5-1.5c.211-.211.504-.313.782-.313zm5.469 4.969a3.981 3.981 0 0 0-2.907 1.187l-6 6c-2.11 2.11-3.719 1.938-4.562 1.313-.844-.625-1.156-1.719 0-2.875a1.014 1.014 0 0 0 0-1.438 1.014 1.014 0 0 0-1.438 0c-1.86 1.86-1.492 4.617.25 5.907 1.742 1.289 4.625 1.093 7.188-1.47l6-6c1.035-1.034 2.039-.773 2.719-.124.34.324.546.746.562 1.187.016.442-.113.926-.688 1.5l-3.53 3.5a1.014 1.014 0 0 0 0 1.438 1.014 1.014 0 0 0 1.437 0l3.5-3.532c.894-.894 1.312-1.953 1.281-2.968-.031-1.016-.504-1.942-1.188-2.594-.683-.652-1.628-1.02-2.625-1.031z"/></svg>