<svg xmlns="http://www.w3.org/2000/svg" viewBox="0 0 64 64"><path d="M31 0C18.652 0 8.55 9.781 8.023 22H7c-2.758 0-5 2.242-5 5v14c0 2.758 2.242 5 5 5h3.184c.414 1.16 1.515 2 2.816 2 1.652 0 3-1.348 3-3V23c0-1.652-1.348-3-3-3a3 3 0 0 0-2.816 2h-.133a20.878 20.878 0 0 1 4.426-11.918l4.527 4.445a4.012 4.012 0 0 0 2.808 1.157c.891 0 1.782-.301 2.516-.91a11.998 11.998 0 0 1 15.324-.016c1.57 1.3 3.86 1.187 5.328-.262l4.508-4.457A20.875 20.875 0 0 1 53.95 22h-.136A2.985 2.985 0 0 0 51 20a3 3 0 0 0-3 3v22c0 1.652 1.344 3 3 3 1.3 0 2.402-.84 2.813-2H55v2c0 4.96-4.035 9-9 9h-6.14c-.45-1.723-2-3-3.86-3h-2c-2.207 0-4 1.793-4 4 0 2.203 1.793 4 4 4h2c1.86 0 3.41-1.281 3.86-3H46c6.066 0 11-4.938 11-11v-2c2.758 0 5-2.246 5-5V27c0-2.758-2.242-5-5-5h-1.027C55.449 9.781 45.348 0 33 0zm0 2h2c5.969 0 11.352 2.516 15.176 6.523l-4.602 4.551a1.975 1.975 0 0 1-2.648.145A14.004 14.004 0 0 0 32 10a14.027 14.027 0 0 0-8.953 3.234c-.77.641-1.906.586-2.64-.136l-4.622-4.532C19.613 4.531 25.012 2 31 2zm1 2c-.555 0-1 .445-1 1v2c0 .555.445 1 1 1 .555 0 1-.445 1-1V5c0-.555-.445-1-1-1zm5.426.742a.997.997 0 0 0-.828.73l-.52 1.934c-.14.532.176 1.082.707 1.227.09.02.176.031.262.031.441 0 .848-.293.969-.742l.515-1.93a1.002 1.002 0 0 0-1.105-1.25zm-10.852 0a1.002 1.002 0 0 0-1.105 1.25l.515 1.93a1 1 0 0 0 .97.742c.085 0 .171-.012.26-.031.532-.145.849-.692.708-1.227l-.52-1.93a1.007 1.007 0 0 0-.828-.734zm-5.449 2.145a.954.954 0 0 0-.375.129.997.997 0 0 0-.363 1.367l1 1.726c.183.325.52.5.863.5a.992.992 0 0 0 .5-.129c.48-.277.64-.89.363-1.37l-1-1.727a.998.998 0 0 0-.988-.496zm21.75.004a.986.986 0 0 0-.988.492l-1 1.73a.998.998 0 1 0 1.726 1l1-1.73a1 1 0 0 0-.738-1.492zM13 22c.55 0 1 .45 1 1v22c0 .55-.45 1-1 1s-1-.45-1-1V23c0-.55.45-1 1-1zm38 0c.55 0 1 .45 1 1v22c0 .55-.45 1-1 1s-1-.45-1-1V23c0-.55.45-1 1-1zM7 24h3v20H7c-1.652 0-3-1.348-3-3V27c0-1.652 1.348-3 3-3zm47 0h3c1.652 0 3 1.348 3 3v14c0 1.652-1.348 3-3 3h-3zM34 56h2c1.102 0 2 .898 2 2 0 1.102-.898 2-2 2h-2c-1.102 0-2-.898-2-2 0-1.102.898-2 2-2z"/></svg>