<svg xmlns="http://www.w3.org/2000/svg" viewBox="0 0 64 64"><path d="M63 17v30c0 1.102-.898 2-2 2H34c-.55 0-1-.45-1-1v-3c0-1.102-.898-2-2-2H21c-1.102 0-2 .898-2 2v3c0 .39-.219.73-.55.89A.99.99 0 0 1 18 49H9V15h52c1.102 0 2 .898 2 2z" fill="#5dbc9d"/><path d="M50.621 15l-28 28H21c-1.102 0-2 .898-2 2v1.621l-.469.469-.082 1.8V49L10 49.191 44.191 15zM63 17v7.969L38.93 49H34c-.55 0-1-.45-1-1v-3c0-1.102-.898-2-2-2h-2.129l28.04-28H61c1.102 0 2 .898 2 2zm-23.09-2L9.121 45.8v-5.359L34.551 15z" fill="#72caaf"/><path d="M1 5c0 1.105.895 2 2 2s2 .895 2 2v50a1.999 1.999 0 1 0 4 0V7c0-2.21-1.79-4-4-4H3a2 2 0 0 0-2 2z" fill="#ffeb9b"/><path d="M51 35h-8a2 2 0 0 1-2-2v-8a2 2 0 0 1 2-2h8a2 2 0 0 1 2 2v8a2 2 0 0 1-2 2zm-38 2H9V23h4a2 2 0 0 1 2 2v10a2 2 0 0 1-2 2z" fill="#8b8e98"/><path d="M61 14H10V7c0-2.758-2.242-5-5-5H3C1.348 2 0 3.348 0 5s1.348 3 3 3c.55 0 1 .45 1 1v50c0 1.652 1.348 3 3 3s3-1.348 3-3v-9h8c1.102 0 2-.898 2-2v-3c0-.55.45-1 1-1h10c.55 0 1 .45 1 1v3c0 1.102.898 2 2 2h27c1.652 0 3-1.348 3-3V17c0-1.652-1.348-3-3-3zM8 59c0 .55-.45 1-1 1s-1-.45-1-1V9c0-1.652-1.348-3-3-3-.55 0-1-.45-1-1s.45-1 1-1h2c1.652 0 3 1.348 3 3zm2-35h3c.55 0 1 .45 1 1v10c0 .55-.45 1-1 1h-3zm52 23c0 .55-.45 1-1 1H34v-3c0-1.652-1.348-3-3-3H21c-1.652 0-3 1.348-3 3v3h-8V38h3c1.652 0 3-1.348 3-3V25c0-1.652-1.348-3-3-3h-3v-6h51c.55 0 1 .45 1 1z" fill="#8d6c9f"/><path d="M24 23a1.999 1.999 0 1 1-4 0 1.999 1.999 0 1 1 4 0z" fill="#faefde"/><path d="M42 43a1 1 0 0 0-1 1v2a1 1 0 1 0 2 0v-2a1 1 0 0 0-1-1zm15 0a1 1 0 0 0-1 1v2a1 1 0 1 0 2 0v-2a1 1 0 0 0-1-1zm-5 0a1 1 0 0 0-1 1v2a1 1 0 1 0 2 0v-2a1 1 0 0 0-1-1zm-5 0a1 1 0 0 0-1 1v2a1 1 0 1 0 2 0v-2a1 1 0 0 0-1-1zm-10 0a1 1 0 0 0-1 1v2a1 1 0 1 0 2 0v-2a1 1 0 0 0-1-1z" fill="#8d6c9f"/><path d="M31 28H21a1 1 0 1 0 0 2h10a1 1 0 1 0 0-2zm-4 4h-6a1 1 0 1 0 0 2h6a1 1 0 1 0 0-2z" fill="#faefde"/><path d="M56 34a1 1 0 1 0 0-2h-2v-2h2a1 1 0 1 0 0-2h-2v-2h2a1 1 0 1 0 0-2h-2.184A2.989 2.989 0 0 0 52 22.184V20a1 1 0 1 0-2 0v2h-2v-2a1 1 0 1 0-2 0v2h-2v-2a1 1 0 1 0-2 0v2.184c-.848.3-1.516.968-1.816 1.816H38a1 1 0 1 0 0 2h2v2h-2a1 1 0 1 0 0 2h2v2h-2a1 1 0 1 0 0 2h2.184c.3.848.968 1.516 1.816 1.816V38a1 1 0 1 0 2 0v-2h2v2a1 1 0 1 0 2 0v-2h2v2a1 1 0 1 0 2 0v-2.184A2.989 2.989 0 0 0 53.816 34zm-5 0h-8c-.55 0-1-.45-1-1v-8c0-.55.45-1 1-1h8c.55 0 1 .45 1 1v8c0 .55-.45 1-1 1z" fill="#8d6c9f"/><path d="M47 25.496l1.238 2.266L50.504 29l-2.266 1.238L47 32.504l-1.238-2.266L43.496 29l2.266-1.238z" fill="#faefde"/></svg>