<svg xmlns="http://www.w3.org/2000/svg" viewBox="0 0 64 64"><path d="M11 9h42c2.21 0 4 1.79 4 4v38c0 2.21-1.79 4-4 4H11c-2.21 0-4-1.79-4-4V13c0-2.21 1.79-4 4-4z" fill="#72caaf"/><path d="M14 15h36c.55 0 1 .45 1 1v32c0 .55-.45 1-1 1H14c-.55 0-1-.45-1-1V16c0-.55.45-1 1-1z" fill="#8b8e98"/><path d="M51 16v2.621L20.621 49 14 49.191 48.191 15H50c.55 0 1 .45 1 1zm0 6.922v16.047L40.93 49H24.86zM43.91 15L13.121 45.8v-5.359L38.551 15z" fill="#989ba3"/><path d="M50 14H14a2 2 0 0 0-2 2v32a2 2 0 0 0 2 2h36a2 2 0 0 0 2-2V16a2 2 0 0 0-2-2zm0 34H14V16h36z" fill="#8d6c9f"/><path d="M61 24c.55 0 1-.45 1-1s-.45-1-1-1h-3v-4h3c.55 0 1-.45 1-1s-.45-1-1-1h-3v-3a5 5 0 0 0-5-5h-5V5c0-.55-.45-1-1-1s-1 .45-1 1v3h-4V5c0-.55-.45-1-1-1s-1 .45-1 1v3h-4V5c0-.55-.45-1-1-1s-1 .45-1 1v3h-4V5c0-.55-.45-1-1-1s-1 .45-1 1v3h-4V5c0-.55-.45-1-1-1s-1 .45-1 1v3h-4V5c0-.55-.45-1-1-1s-1 .45-1 1v3h-5a5 5 0 0 0-5 5v3H3c-.55 0-1 .45-1 1s.45 1 1 1h3v4H3c-.55 0-1 .45-1 1s.45 1 1 1h3v4H3c-.55 0-1 .45-1 1s.45 1 1 1h3v4H3c-.55 0-1 .45-1 1s.45 1 1 1h3v4H3c-.55 0-1 .45-1 1s.45 1 1 1h3v4H3c-.55 0-1 .45-1 1s.45 1 1 1h3v3a5 5 0 0 0 5 5h5v3c0 .55.45 1 1 1s1-.45 1-1v-3h4v3c0 .55.45 1 1 1s1-.45 1-1v-3h4v3c0 .55.45 1 1 1s1-.45 1-1v-3h4v3c0 .55.45 1 1 1s1-.45 1-1v-3h4v3c0 .55.45 1 1 1s1-.45 1-1v-3h4v3c0 .55.45 1 1 1s1-.45 1-1v-3h5a5 5 0 0 0 5-5v-3h3c.55 0 1-.45 1-1s-.45-1-1-1h-3v-4h3c.55 0 1-.45 1-1s-.45-1-1-1h-3v-4h3c.55 0 1-.45 1-1s-.45-1-1-1h-3v-4h3c.55 0 1-.45 1-1s-.45-1-1-1h-3v-4zm-5 27a3 3 0 0 1-3 3H11a3 3 0 0 1-3-3V13a3 3 0 0 1 3-3h42a3 3 0 0 1 3 3z" fill="#8d6c9f"/><path d="M27 42c-.55 0-1 .45-1 1v2c0 .55.45 1 1 1s1-.45 1-1v-2c0-.55-.45-1-1-1zm-5 0c-.55 0-1 .45-1 1v2c0 .55.45 1 1 1s1-.45 1-1v-2c0-.55-.45-1-1-1zm10 0c-.55 0-1 .45-1 1v2c0 .55.45 1 1 1s1-.45 1-1v-2c0-.55-.45-1-1-1zm-15 4c.55 0 1-.45 1-1v-2c0-.55-.45-1-1-1s-1 .45-1 1v2c0 .55.45 1 1 1zm30 0c.55 0 1-.45 1-1v-2c0-.55-.45-1-1-1s-1 .45-1 1v2c0 .55.45 1 1 1zm-6-3v2c0 .55.45 1 1 1s1-.45 1-1v-2c0-.55-.45-1-1-1s-1 .45-1 1zm-4-1c-.55 0-1 .45-1 1v2c0 .55.45 1 1 1s1-.45 1-1v-2c0-.55-.45-1-1-1z" fill="#faefde"/><path d="M23 23a1.999 1.999 0 1 1-4 0 1.999 1.999 0 1 1 4 0z" fill="#ed7899"/><path d="M21 26a3.003 3.003 0 0 0 2.945-2.414 2.993 2.993 0 0 0-1.793-3.356 2.997 2.997 0 0 0-3.644 1.102A2.998 2.998 0 1 0 21 26zm-.71-3.71a1.004 1.004 0 0 1 1.71.707.998.998 0 0 1-.621.921.993.993 0 0 1-1.09-.219 1.002 1.002 0 0 1 0-1.41z" fill="#8d6c9f"/><path d="M25 36h5c.55 0 1-.45 1-1s-.45-1-1-1h-5c-.55 0-1 .45-1 1s.45 1 1 1zm12-1c0-.55-.45-1-1-1h-2c-.55 0-1 .45-1 1s.45 1 1 1h2c.55 0 1-.45 1-1zm-12-3h16c.55 0 1-.45 1-1s-.45-1-1-1H25c-.55 0-1 .45-1 1s.45 1 1 1z" fill="#faefde"/><path d="M38.5 19l1.238 2.262L42 22.5l-2.262 1.238L38.5 26l-1.238-2.262L35 22.5l2.262-1.238zM19.422 30l.848 1.559 1.57.863-1.57.848-.848 1.57-.863-1.57L17 32.422l1.559-.863zm20.226 8l.582 1.059 1.07.59-1.07.581-.582 1.07-.59-1.07L38 39.648l1.059-.59z" fill="#ddd"/></svg>