<svg xmlns="http://www.w3.org/2000/svg" viewBox="0 0 40 40"><path d="M28.5 1.5h3v37h-3z" fill="#dff0fe"/><path d="M31 2v36h-2V2h2m1-1h-4v38h4z" fill="#4788c7"/><path d="M23.5 1.5h3v37h-3z" fill="#dff0fe"/><path d="M26 2v36h-2V2h2m1-1h-4v38h4z" fill="#4788c7"/><path d="M18.5 1.5h3v37h-3z" fill="#dff0fe"/><path d="M21 2v36h-2V2h2m1-1h-4v38h4z" fill="#4788c7"/><path d="M13.5 1.5h3v37h-3z" fill="#dff0fe"/><path d="M16 2v36h-2V2h2m1-1h-4v38h4z" fill="#4788c7"/><path d="M8.5 1.5h3v37h-3z" fill="#dff0fe"/><path d="M11 2v36H9V2h2m1-1H8v38h4z" fill="#4788c7"/><path d="M1.5 28.5h37v3h-37z" fill="#dff0fe"/><path d="M38 29v2H2v-2h36m1-1H1v4h38z" fill="#4788c7"/><path d="M1.5 23.5h37v3h-37z" fill="#dff0fe"/><path d="M38 24v2H2v-2h36m1-1H1v4h38z" fill="#4788c7"/><path d="M1.5 18.5h37v3h-37z" fill="#dff0fe"/><path d="M38 19v2H2v-2h36m1-1H1v4h38z" fill="#4788c7"/><path d="M1.5 13.5h37v3h-37z" fill="#dff0fe"/><path d="M38 14v2H2v-2h36m1-1H1v4h38z" fill="#4788c7"/><path d="M1.5 8.5h37v3h-37z" fill="#dff0fe"/><path d="M38 9v2H2V9h36m1-1H1v4h38z" fill="#4788c7"/><path d="M7 34.5A1.5 1.5 0 0 1 5.5 33V7A1.5 1.5 0 0 1 7 5.5h26A1.5 1.5 0 0 1 34.5 7v26a1.5 1.5 0 0 1-1.5 1.5z" fill="#98ccfd"/><path d="M33 6c.55 0 1 .45 1 1v26c0 .55-.45 1-1 1H7c-.55 0-1-.45-1-1V7c0-.55.45-1 1-1h26m0-1H7a2 2 0 0 0-2 2v26a2 2 0 0 0 2 2h26a2 2 0 0 0 2-2V7a2 2 0 0 0-2-2z" fill="#4788c7"/><path d="M12 10.5a1.5 1.5 0 1 1-3 0 1.5 1.5 0 0 1 3 0zm19 0a1.5 1.5 0 1 1-3 0 1.5 1.5 0 0 1 3 0zm0 19a1.5 1.5 0 1 1-3 0 1.5 1.5 0 0 1 3 0zm-19 0a1.5 1.5 0 1 1-3 0 1.5 1.5 0 0 1 3 0z" fill="#fff"/></svg>