<svg xmlns="http://www.w3.org/2000/svg" viewBox="0 0 40 40"><path d="M20 38.5C9.8 38.5 1.5 30.2 1.5 20A18.456 18.456 0 0 1 7.95 6l.405-.352L4.207 1.5H16.5v12.293l-3.875-3.875-.348.273C9.242 12.582 7.5 16.156 7.5 20c0 6.895 5.605 12.5 12.5 12.5S32.5 26.895 32.5 20c0-5.152-3.2-9.79-8-11.648V2.059c8.148 2.039 14 9.488 14 17.941 0 10.2-8.3 18.5-18.5 18.5z" fill="#dff0fe"/><path d="M16 2v10.586L12.664 9.25l-.695.55C8.813 12.286 7 16.005 7 20c0 7.168 5.832 13 13 13s13-5.832 13-13c0-5.242-3.188-9.973-8-11.984V2.71c7.602 2.2 13 9.282 13 17.29 0 9.926-8.074 18-18 18S2 29.926 2 20C2 14.77 4.285 9.805 8.273 6.383l.82-.703L5.415 2H16m1-1H3l4.621 4.621C3.574 9.101 1 14.242 1 20c0 10.492 8.508 19 19 19s19-8.508 19-19c0-9.121-6.43-16.73-15-18.57V8.7c4.652 1.652 8 6.085 8 11.3 0 6.617-5.383 12-12 12S8 26.617 8 20c0-3.82 1.797-7.219 4.586-9.414L17 15z" fill="#4788c7"/></svg>