<svg xmlns="http://www.w3.org/2000/svg" viewBox="0 0 26 26"><path d="M13 0C5.82 0 0 5.82 0 13s5.82 13 13 13 13-5.82 13-13S20.18 0 13 0zM9.816 6.336c1.114-1.656 2.852-3.133 2.926-3.191a.414.414 0 0 1 .516 0c.074.058 1.812 1.535 2.926 3.19a.415.415 0 0 1 .02.43.42.42 0 0 1-.368.22h-1.457c-.152.91-.258 2.46-.363 2.609-.153.219-.598.37-1.016.37-.422 0-.922-.152-1.078-.37-.106-.149-.152-1.7-.305-2.61h-1.453a.42.42 0 0 1-.367-.218.415.415 0 0 1 .02-.43zm-3.152 9.848a.415.415 0 0 1-.43.02.42.42 0 0 1-.218-.368v-1.453c-.91-.153-2.461-.2-2.61-.305-.219-.156-.37-.656-.37-1.078 0-.418.151-.86.37-1.016.149-.105 1.7-.21 2.61-.363v-1.457a.42.42 0 0 1 .218-.367.415.415 0 0 1 .43.02c1.656 1.113 3.133 2.851 3.191 2.925a.414.414 0 0 1 0 .516c-.058.074-1.535 1.812-3.19 2.926zm9.52 3.48c-1.114 1.656-2.852 3.133-2.926 3.191a.414.414 0 0 1-.516 0c-.074-.058-1.812-1.535-2.926-3.19a.415.415 0 0 1-.02-.43.42.42 0 0 1 .368-.22h1.453c.153-.91.2-2.46.305-2.609.156-.218.656-.37 1.078-.37.418 0 .86.151 1.016.37.105.149.21 1.7.363 2.61h1.457a.42.42 0 0 1 .367.218.413.413 0 0 1-.02.43zm3.8-5.281v1.453a.415.415 0 0 1-.222.367.408.408 0 0 1-.426-.02c-1.656-1.113-3.133-2.851-3.191-2.925a.392.392 0 0 1-.09-.258.39.39 0 0 1 .09-.258c.058-.074 1.535-1.812 3.19-2.926a.408.408 0 0 1 .427-.02.419.419 0 0 1 .222.368v1.457c.91.152 2.461.258 2.61.363.218.153.367.598.367 1.016 0 .422-.148.922-.367 1.078-.149.106-1.7.152-2.61.305z"/></svg>