<svg xmlns="http://www.w3.org/2000/svg" viewBox="0 0 64 64"><path d="M58 27.602L62.36 39.3a9.96 9.96 0 0 1 .64 3.508V53c0 2.21-1.79 4-4 4H5c-2.21 0-4-1.79-4-4V42.809c0-1.2.219-2.387.64-3.508L6 27.6A4 4 0 0 1 9.77 25h44.46A4 4 0 0 1 58 27.602z" fill="#ced8ed"/><path d="M1 41h62v12c0 2.21-1.79 4-4 4H5c-2.21 0-4-1.79-4-4z" fill="#c2cde7"/><path d="M5 49h54c2.21 0 4 1.79 4 4s-1.79 4-4 4H5c-2.21 0-4-1.79-4-4s1.79-4 4-4z" fill="#b5c4e0"/><path d="M59 29H5l4-4h46z" fill="#dae2ef"/><path d="M57 49a1.999 1.999 0 1 1-4 0 1.999 1.999 0 1 1 4 0zm-8 0a1.999 1.999 0 1 1-4 0 1.999 1.999 0 1 1 4 0z" fill="#97e0bb"/><path d="M13.441 1h-.082a1.991 1.991 0 0 0-1.543.695 2.006 2.006 0 0 0-.457 1.633L15 25h6L15.379 2.512A1.997 1.997 0 0 0 13.44 1zM50.64 1h-.081c-.914 0-1.715.621-1.938 1.512L43 25h6l3.61-21.672A2 2 0 0 0 50.64 1z" fill="#8b8e98"/><path d="M63.3 39l-4.39-11.75A4.997 4.997 0 0 0 54.23 24h-4l3.372-20.512a3 3 0 0 0-3-3.488h-.082a3.004 3.004 0 0 0-2.91 2.27L42.218 24H21.78L16.35 2.27A3.004 3.004 0 0 0 13.442 0h-.082a3.015 3.015 0 0 0-2.316 1.043 3.007 3.007 0 0 0-.684 2.445L13.82 24h-4a4.996 4.996 0 0 0-4.68 3.238L.7 39a11.03 11.03 0 0 0-.7 3.809V53a5 5 0 0 0 5 5h54a5 5 0 0 0 5-5V42.809A11.03 11.03 0 0 0 63.3 39zM49.59 2.762a1.002 1.002 0 0 1 1-.762h.082a1.003 1.003 0 0 1 1 1.172L48.148 24h-3.867zm-37.219.41c-.05-.297.031-.594.223-.82A1.01 1.01 0 0 1 13.37 2h.078a.998.998 0 0 1 1 .762L19.72 24h-3.867zM7 27.949A2.995 2.995 0 0 1 9.77 26h44.46A2.995 2.995 0 0 1 57 27.95l4.39 11.71c0 .11.07.23.11.352H2.46c0-.121.071-.23.11-.352zM62 53a3 3 0 0 1-3 3H5a3 3 0 0 1-3-3V42h60v.809z" fill="#8d6c9f"/><path d="M7 47c-.55 0-1 .45-1 1v2c0 .55.45 1 1 1s1-.45 1-1v-2c0-.55-.45-1-1-1zm5 0c-.55 0-1 .45-1 1v2c0 .55.45 1 1 1s1-.45 1-1v-2c0-.55-.45-1-1-1zm5 0c-.55 0-1 .45-1 1v2c0 .55.45 1 1 1s1-.45 1-1v-2c0-.55-.45-1-1-1zm5 0c-.55 0-1 .45-1 1v2c0 .55.45 1 1 1s1-.45 1-1v-2c0-.55-.45-1-1-1zm5 0c-.55 0-1 .45-1 1v2c0 .55.45 1 1 1s1-.45 1-1v-2c0-.55-.45-1-1-1zm28-1a3 3 0 1 0 .002 6.002A3 3 0 0 0 55 46zm0 4c-.55 0-1-.45-1-1s.45-1 1-1 1 .45 1 1-.45 1-1 1zm-8-4a3 3 0 1 0 .002 6.002A3 3 0 0 0 47 46zm0 4c-.55 0-1-.45-1-1s.45-1 1-1 1 .45 1 1-.45 1-1 1zM10 30h36c.55 0 1-.45 1-1s-.45-1-1-1H10c-.55 0-1 .45-1 1s.45 1 1 1zm40 0h4c.55 0 1-.45 1-1s-.45-1-1-1h-4c-.55 0-1 .45-1 1s.45 1 1 1z" fill="#8d6c9f"/></svg>