<svg xmlns="http://www.w3.org/2000/svg" viewBox="0 0 16 16"><path style="line-height:normal;text-indent:0;text-align:start;text-decoration-line:none;text-decoration-style:solid;text-decoration-color:#000;text-transform:none;block-progression:tb;isolation:auto;mix-blend-mode:normal" d="M5.875 1c-.397 0-.779.156-1.06.44L2.4 3.853a1.5 1.5 0 0 0-.44 1.06V12.5c0 .823.678 1.5 1.5 1.5h8.04c.823 0 1.5-.677 1.5-1.5v-10c0-.823-.677-1.5-1.5-1.5H5.875zm0 1H11.5c.281 0 .5.219.5.5v10c0 .281-.219.5-.5.5H3.46a.493.493 0 0 1-.5-.5V4.914a.5.5 0 0 1 .147-.353l2.414-2.415h.002A.496.496 0 0 1 5.875 2zM6 3v2h1V3H6zm2 0v2h1V3H8zm2 0v2h1V3h-1z" font-weight="400" font-family="sans-serif" white-space="normal" overflow="visible"/></svg>