<svg xmlns="http://www.w3.org/2000/svg" viewBox="0 0 50 50"><path d="M14 0c-.984 0-1.813.5-2.406 1.094a.472.472 0 0 0-.063.062L9.687 3.438c-.046.035-.082.082-.124.124a1.839 1.839 0 0 0-.344.5c-.024.04-.043.083-.063.125-.004.012-.027.02-.031.032v.062C9.047 4.511 9 4.758 9 5v43c0 .523.184 1.059.563 1.438.378.378.914.562 1.437.562h28c.523 0 1.059-.184 1.438-.563.378-.378.562-.914.562-1.437V5a2.07 2.07 0 0 0-.469-1.313.466.466 0 0 0-.031-.062l-.031-.031a.949.949 0 0 0-.094-.125l-1.969-2.375c-.004-.008-.027.008-.031 0-.004-.004.004-.028 0-.032C37.835.368 37.012 0 36.094 0zm0 2h22.094c.265 0 .66.234.718.313l.032.03.531.657H12.594L13 2.5h.031c.383-.383.567-.5.969-.5zm-3 3h28v43H11zm5 4c-.523 0-1.059.184-1.438.563C14.184 9.94 14 10.476 14 11v5c0 .344.086.691.25 1-.164.309-.25.656-.25 1v5c0 .523.184 1.059.563 1.438.378.378.914.562 1.437.562h18c.523 0 1.059-.184 1.438-.563.378-.378.562-.914.562-1.437v-5c0-.344-.086-.691-.25-1 .164-.309.25-.656.25-1v-5c0-.523-.184-1.059-.563-1.438C35.06 9.184 34.523 9 34 9zm0 2h18v5H16zm0 7h18v5H16zm9 14c-1.102 0-2 .898-2 2 0 1.102.898 2 2 2 1.102 0 2-.898 2-2 0-1.102-.898-2-2-2zm0 7c-1.102 0-2 .898-2 2 0 1.102.898 2 2 2 1.102 0 2-.898 2-2 0-1.102-.898-2-2-2z"/></svg>