<svg xmlns="http://www.w3.org/2000/svg" viewBox="0 0 24 24"><path d="M5.688 2c-.977 0-1.81.691-1.97 1.656L2.032 15.75A2.988 2.988 0 0 1 4 15h16c.754 0 1.441.29 1.969.75L20.28 3.656A1.983 1.983 0 0 0 18.313 2zm8.53 2c.512 0 1.048.203 1.438.594a1.987 1.987 0 0 1 0 2.812l-2.125 2.125c-.39.39-.894.594-1.406.594a2.056 2.056 0 0 1-1.438-.594 1.876 1.876 0 0 1-.218-.281l.906-.875c.04.117.066.223.156.313.149.148.38.218.594.218.215 0 .414-.07.563-.219l2.124-2.124a.778.778 0 0 0 .22-.563.778.778 0 0 0-.22-.563.881.881 0 0 0-.593-.25.807.807 0 0 0-.563.25l-.75.75c-.41-.222-.754-.449-1.219-.468l1.126-1.125c.39-.39.894-.594 1.406-.594zm-2.905 2.469c.511 0 1.046.203 1.437.593l-.844.844a.881.881 0 0 0-.594-.25.807.807 0 0 0-.562.25l-2.531 2.532A.778.778 0 0 0 8 11c0 .215.07.414.219.563.148.148.347.25.562.25a.807.807 0 0 0 .563-.25l1.156-1.126c.344.235.742.426 1.219.438l-1.531 1.531c-.387.39-.895.594-1.407.594a1.984 1.984 0 0 1-1.406-.594 1.987 1.987 0 0 1 0-2.812l2.531-2.531c.39-.391.895-.594 1.406-.594zM4 16a2 2 0 0 0-2 2v2a2 2 0 0 0 2 2h16a2 2 0 0 0 2-2v-2a2 2 0 0 0-2-2zm14 1.594A1.41 1.41 0 0 1 19.406 19 1.41 1.41 0 0 1 18 20.406 1.41 1.41 0 0 1 16.594 19 1.41 1.41 0 0 1 18 17.594z"/></svg>