<svg xmlns="http://www.w3.org/2000/svg" viewBox="0 0 64 64"><path d="M12.64 2a3.014 3.014 0 0 0-2.945 2.414l-5.52 27.613A8.962 8.962 0 0 0 4 33.793V47c0 1.652 1.348 3 3 3h21v4h-3a3 3 0 0 0-2.816 2H11c-.55 0-1 .45-1 1s.45 1 1 1h11v2H9c-.55 0-1 .45-1 1s.45 1 1 1h13.184c.414 1.16 1.515 2 2.816 2h14a3 3 0 0 0 2.816-2H53c.55 0 1-.45 1-1s-.45-1-1-1H42v-2h13c.55 0 1-.45 1-1s-.45-1-1-1H41.816A2.999 2.999 0 0 0 39 54h-3v-4h21c1.652 0 3-1.348 3-3V33.793c0-.59-.059-1.184-.176-1.766L54.301 4.414A3.007 3.007 0 0 0 51.359 2zm0 2h38.72c.476 0 .89.34.984.805L57.78 32H6.22l5.437-27.195c.094-.465.508-.805.985-.805zm19.344 7c-6.89.02-11.152 1.332-13.812 4.258-2.281 2.504-2.195 4.91-2.156 6.015.027.946.547 1.946 1.418 2.739.207.191.406.351.535.453.894.836 1.527.906 2.812.3l1.313-.624c1.18-.559 2.957-1.403 3.168-1.489.77-.316 1.254-.808 1.422-1.43.168-.546.18-.902.195-1.452a11.39 11.39 0 0 0 0-.633 8.636 8.636 0 0 1 .012-.77c0-.062.004-.148.011-.21.262-.083 2.485-.77 5.078-.731h.016c2.461-.028 4.606.59 5.078.734.008.067.012.164.016.262.015.254.012.484.004.715 0 .207-.004.414.004.726.015.453.023.809.183 1.325.18.656.66 1.148 1.434 1.464.21.086 1.988.93 3.164 1.489l1.312.625c.57.265 1.012.402 1.399.402.488 0 .894-.219 1.363-.656.18-.149.379-.309.59-.5.871-.793 1.387-1.793 1.422-2.813.035-1.027.12-3.433-2.16-5.941-2.664-2.926-6.926-4.238-13.82-4.258zm0 2c8.047.023 10.825 1.938 12.34 3.605 1.735 1.903 1.668 3.672 1.637 4.602-.012.398-.305.906-.762 1.324-.18.16-.351.301-.554.469-.07.066-.122.113-.16.14a4.15 4.15 0 0 1-.438-.187l-1.313-.621c-1.757-.836-3.023-1.434-3.265-1.535-.211-.086-.258-.14-.266-.164-.09-.29-.094-.438-.11-.922-.003-.191 0-.367 0-.543a9.395 9.395 0 0 0-.011-.871c-.016-.48-.055-1.617-1.41-2.047-.277-.086-2.734-.824-5.567-.824h-.12c-2.876-.059-5.403.738-5.688.824-1.352.434-1.39 1.566-1.406 2.043-.02.312-.016.594-.012.875a8.19 8.19 0 0 1 0 .543l-.004.102c-.012.386-.016.53-.11.84-.003.003-.046.058-.261.144-.242.101-1.508.7-3.27 1.535l-1.304.621c-.23.106-.364.16-.446.188a3.693 3.693 0 0 1-.207-.188c-.152-.121-.32-.262-.5-.422-.46-.418-.75-.926-.765-1.406-.032-.848-.094-2.621 1.636-4.52 1.52-1.668 4.29-3.582 12.336-3.605zM6 34h52v13c0 .55-.45 1-1 1H7c-.55 0-1-.45-1-1zm7 4c-1.652 0-3 1.348-3 3s1.348 3 3 3 3-1.348 3-3-1.348-3-3-3zm8 0c-1.652 0-3 1.348-3 3s1.348 3 3 3 3-1.348 3-3-1.348-3-3-3zm8 0c-1.652 0-3 1.348-3 3s1.348 3 3 3 3-1.348 3-3-1.348-3-3-3zm22 0c-1.652 0-3 1.348-3 3s1.348 3 3 3 3-1.348 3-3-1.348-3-3-3zm-38 1.8c.66 0 1.2.54 1.2 1.2 0 .66-.54 1.2-1.2 1.2-.66 0-1.2-.54-1.2-1.2 0-.66.54-1.2 1.2-1.2zm8 0c.66 0 1.2.54 1.2 1.2 0 .66-.54 1.2-1.2 1.2-.66 0-1.2-.54-1.2-1.2 0-.66.54-1.2 1.2-1.2zm8 0c.66 0 1.2.54 1.2 1.2 0 .66-.54 1.2-1.2 1.2-.66 0-1.2-.54-1.2-1.2 0-.66.54-1.2 1.2-1.2zm22 0c.66 0 1.2.54 1.2 1.2 0 .66-.54 1.2-1.2 1.2-.66 0-1.2-.54-1.2-1.2 0-.66.54-1.2 1.2-1.2zM30 50h4v4h-4zm-5 6h14c.55 0 1 .45 1 1v4c0 .55-.45 1-1 1H25c-.55 0-1-.45-1-1v-4c0-.55.45-1 1-1z"/></svg>