<svg xmlns="http://www.w3.org/2000/svg" viewBox="0 0 50 50"><path d="M8.844 0C7.914 0 7.242.57 7 1.438L.187 26.188c-.003.011-.027.019-.03.03v.063A1.908 1.908 0 0 0 0 27v10c0 1.094.906 2 2 2h22v5H6.906c-.55.027-.98.496-.953 1.047.027.55.496.98 1.047.953h36c.36.004.695-.184.879-.496a1.01 1.01 0 0 0 0-1.008c-.184-.312-.52-.5-.879-.496H26v-5h22c1.094 0 2-.906 2-2V27c0-.254-.066-.496-.156-.719v-.062c-.004-.012-.028-.02-.032-.032v-.03L43 1.436C42.762.568 42.086 0 41.156 0zm.062 2h32.188l6.312 23H2.594zM25 9c-8.727 0-11.082 2.523-11.656 3.063-.574.539-.278 3.464-.156 4.156.12.691.617 1.031.968.968.352-.062 4.465-.917 4.938-1.03.312-.075.605-.434.75-.907.148-.473.656-2.313.656-2.313s1.277-.878 4.5-.874c3.223 0 4.5.874 4.5.874s.508 1.84.656 2.313c.145.473.438.867.75.938.461.101 4.547.937 4.938 1 .343.054.843-.278.968-.97.122-.69.418-3.616-.156-4.155C36.082 11.523 33.726 9 25 9zM2 27h46v10H25.187a1.016 1.016 0 0 0-.406 0H2zm5 3a1.999 1.999 0 1 0 0 4 1.999 1.999 0 1 0 0-4zm6 0a1.999 1.999 0 1 0 0 4 1.999 1.999 0 1 0 0-4zm6 0a1.999 1.999 0 1 0 0 4 1.999 1.999 0 1 0 0-4zm24 0a1.999 1.999 0 1 0 0 4 1.999 1.999 0 1 0 0-4zM6.812 48c-.55.05-.957.543-.906 1.094.051.55.543.957 1.094.906h36c.36.004.695-.184.879-.496a1.01 1.01 0 0 0 0-1.008c-.184-.312-.52-.5-.879-.496H6.813z"/></svg>