<svg xmlns="http://www.w3.org/2000/svg" viewBox="0 0 80 80"><path d="M15 10c-2.75 0-5 2.25-5 5v50c0 2.75 2.25 5 5 5h50c2.75 0 5-2.25 5-5V15c0-2.75-2.25-5-5-5H15zm0 2h50c1.668 0 3 1.332 3 3v24a1 1 0 0 0-1 1 1 1 0 0 0 1 1v24c0 1.668-1.332 3-3 3H15c-1.668 0-3-1.332-3-3V41a1 1 0 0 0 1-1 1 1 0 0 0-1-1V15c0-1.668 1.332-3 3-3zm25 8c-10.698 0-19.452 8.43-19.975 19A1 1 0 0 0 20 39a1 1 0 0 0-1 1 1 1 0 0 0 1 1 1 1 0 0 0 .025-.002C20.547 51.569 29.301 60 40 60c10.698 0 19.452-8.43 19.975-19A1 1 0 0 0 60 41a1 1 0 0 0 1-1 1 1 0 0 0-1-1 1 1 0 0 0-.025.002C59.453 28.431 50.699 20 40 20zm0 2c9.953 0 18 8.047 18 18s-8.047 18-18 18-18-8.047-18-18 8.047-18 18-18zm0 4a1 1 0 0 0-1 1 1 1 0 0 0 1 1 1 1 0 0 0 1-1 1 1 0 0 0-1-1zm-4.967.988a1 1 0 0 0-.39.076 1 1 0 0 0-.541 1.307 1 1 0 0 0 1.306.541 1 1 0 0 0 .541-1.307 1 1 0 0 0-.916-.617zm9.965 0a1 1 0 0 0-.947.617 1 1 0 0 0 .54 1.307 1 1 0 0 0 1.307-.54 1 1 0 0 0-.54-1.308 1 1 0 0 0-.36-.076zm-14.176 2.82a1 1 0 0 0-.722.294 1 1 0 0 0 0 1.414 1 1 0 0 0 1.414 0 1 1 0 0 0 0-1.414 1 1 0 0 0-.692-.293zm18.385 0a1 1 0 0 0-.723.294 1 1 0 0 0 0 1.414 1 1 0 0 0 1.414 0 1 1 0 0 0 0-1.414 1 1 0 0 0-.691-.293zm2.81 4.215a1 1 0 0 0-.39.077 1 1 0 0 0-.541 1.306 1 1 0 0 0 1.307.541 1 1 0 0 0 .54-1.306 1 1 0 0 0-.915-.618zm-24.005.002a1 1 0 0 0-.946.618 1 1 0 0 0 .541 1.306 1 1 0 0 0 1.307-.543 1 1 0 0 0-.541-1.306 1 1 0 0 0-.361-.075zM16 39a1 1 0 0 0-1 1 1 1 0 0 0 1 1 1 1 0 0 0 1-1 1 1 0 0 0-1-1zm11 0a1 1 0 0 0-1 1 1 1 0 0 0 1 1 1 1 0 0 0 1-1 1 1 0 0 0-1-1zm26 0a1 1 0 0 0-1 1 1 1 0 0 0 1 1 1 1 0 0 0 1-1 1 1 0 0 0-1-1zm11 0a1 1 0 0 0-1 1 1 1 0 0 0 1 1 1 1 0 0 0 1-1 1 1 0 0 0-1-1zm-36.004 4.975a1 1 0 0 0-.389.076 1 1 0 0 0-.54 1.306 1 1 0 0 0 1.306.541 1 1 0 0 0 .541-1.306 1 1 0 0 0-.918-.617zm24.037 0a1 1 0 0 0-.945.617 1 1 0 0 0 .54 1.306 1 1 0 0 0 1.308-.54 1 1 0 0 0-.541-1.307 1 1 0 0 0-.362-.076zM30.82 48.193a1 1 0 0 0-.72.291 1 1 0 0 0 0 1.414 1 1 0 0 0 1.414 0 1 1 0 0 0 0-1.414 1 1 0 0 0-.694-.29zm18.385 0a1 1 0 0 0-.72.291 1 1 0 0 0 0 1.414 1 1 0 0 0 1.413 0 1 1 0 0 0 0-1.414 1 1 0 0 0-.693-.29zm-4.223 2.815a1 1 0 0 0-.388.076 1 1 0 0 0-.543 1.307 1 1 0 0 0 1.306.54 1 1 0 0 0 .541-1.304 1 1 0 0 0-.916-.62zm-9.935.002a1 1 0 0 0-.947.617 1 1 0 0 0 .543 1.307 1 1 0 0 0 1.306-.541 1 1 0 0 0-.543-1.307 1 1 0 0 0-.36-.076zM40 52a1 1 0 0 0-1 1 1 1 0 0 0 1 1 1 1 0 0 0 1-1 1 1 0 0 0-1-1z"/></svg>