<svg xmlns="http://www.w3.org/2000/svg" viewBox="0 0 26 26"><path d="M13 .188c-1.535 0-2.992.328-4.313.906-.214.093-.417.203-.624.312C4.57 3.2 2.186 6.805 2.186 11c0 5.293 3.793 9.688 8.813 10.625V23H6c-.96 0-1 1-1 1v2h16v-2c0-.55-.45-1-1-1h-5v-1.375c5.02-.938 8.813-5.332 8.813-10.625 0-4.195-2.383-7.8-5.875-9.594-.208-.11-.41-.218-.625-.312A10.724 10.724 0 0 0 13 .187zm0 1c1.277 0 2.473.269 3.594.718A5.306 5.306 0 0 1 13 3.313a5.306 5.306 0 0 1-3.594-1.407c1.121-.449 2.317-.718 3.594-.718zm0 4.5A5.31 5.31 0 0 1 18.313 11 5.31 5.31 0 0 1 13 16.313 5.308 5.308 0 0 1 7.687 11 5.308 5.308 0 0 1 13 5.687zm0 2.5a2.84 2.84 0 0 0-1.469.406c.133-.04.293-.063.438-.063.789 0 1.406.649 1.406 1.438 0 .785-.617 1.406-1.406 1.406-.79 0-1.438-.621-1.438-1.406 0-.145.024-.305.063-.438A2.803 2.803 0 0 0 10.188 11 2.81 2.81 0 0 0 13 13.813 2.81 2.81 0 0 0 15.813 11 2.81 2.81 0 0 0 13 8.187z"/></svg>