<svg xmlns="http://www.w3.org/2000/svg" viewBox="0 0 50 50"><path d="M8 2C4.7 2 2 4.7 2 8v34c0 3.3 2.7 6 6 6h34c3.3 0 6-2.7 6-6V8c0-3.3-2.7-6-6-6zm0 2h34c2.219 0 4 1.781 4 4v34c0 2.219-1.781 4-4 4H8c-2.219 0-4-1.781-4-4V8c0-2.219 1.781-4 4-4zm17 5C16.176 9 9 16.176 9 25s7.176 16 16 16 16-7.176 16-16S33.824 9 25 9zm0 2c7.742 0 14 6.254 14 14s-6.258 14-14 14-14-6.254-14-14 6.258-14 14-14zm0 2.938c-6.09 0-11.063 4.968-11.063 11.062 0 6.094 4.973 11.063 11.063 11.063 6.09 0 11.063-4.97 11.063-11.063 0-6.094-4.973-11.063-11.063-11.063zm0 2.124A8.916 8.916 0 0 1 33.938 25 8.916 8.916 0 0 1 25 33.938 8.916 8.916 0 0 1 16.062 25 8.916 8.916 0 0 1 25 16.062z"/></svg>