<svg xmlns="http://www.w3.org/2000/svg" viewBox="0 0 80 80"><path d="M40 8C23.996 8 11 20.996 11 37c0 9.384 4.472 17.73 11.395 23.031C18.27 60.343 15 63.798 15 68v2h50v-2c0-4.202-3.27-7.657-7.395-7.969C64.528 54.73 69 46.384 69 37 69 20.996 56.004 8 40 8zm0 2c14.924 0 27 12.076 27 27S54.924 64 40 64 13 51.924 13 37s12.076-27 27-27zm0 3a2 2 0 0 0-2 2 2 2 0 0 0 2 2 2 2 0 0 0 2-2 2 2 0 0 0-2-2zm0 7c-9.377 0-17 7.623-17 17 0 9.377 7.623 17 17 17 9.377 0 17-7.623 17-17 0-9.377-7.623-17-17-17zm0 2c8.296 0 15 6.704 15 15s-6.704 15-15 15-15-6.704-15-15 6.704-15 15-15zm0 3a1 1 0 0 0-1 1 1 1 0 0 0 1 1 1 1 0 0 0 1-1 1 1 0 0 0-1-1zm-4.203.836a1 1 0 0 0-.389.076 1 1 0 0 0-.54 1.307 1 1 0 0 0 1.306.54 1 1 0 0 0 .54-1.306 1 1 0 0 0-.917-.617zm8.433.002a1 1 0 0 0-.945.617 1 1 0 0 0 .541 1.307 1 1 0 0 0 1.307-.543 1 1 0 0 0-.541-1.305 1 1 0 0 0-.362-.076zM32.236 28.22a1 1 0 0 0-.722.293 1 1 0 0 0 0 1.414 1 1 0 0 0 1.416 0 1 1 0 0 0 0-1.414 1 1 0 0 0-.694-.293zm15.555.002a1 1 0 0 0-.72.293 1 1 0 0 0 0 1.414 1 1 0 0 0 1.413 0 1 1 0 0 0 0-1.414 1 1 0 0 0-.693-.293zm2.379 3.566a1 1 0 0 0-.39.076 1 1 0 0 0-.542 1.307 1 1 0 0 0 1.307.54 1 1 0 0 0 .54-1.306 1 1 0 0 0-.915-.617zm-20.31.002a1 1 0 0 0-.946.617 1 1 0 0 0 .541 1.307 1 1 0 0 0 1.307-.543 1 1 0 0 0-.543-1.307 1 1 0 0 0-.36-.074zM29 36a1 1 0 0 0-1 1 1 1 0 0 0 1 1 1 1 0 0 0 1-1 1 1 0 0 0-1-1zm22 0a1 1 0 0 0-1 1 1 1 0 0 0 1 1 1 1 0 0 0 1-1 1 1 0 0 0-1-1zm-21.154 4.209a1 1 0 0 0-.39.076 1 1 0 0 0-.542 1.307 1 1 0 0 0 1.307.54 1 1 0 0 0 .54-1.306 1 1 0 0 0-.915-.617zm20.34 0a1 1 0 0 0-.948.617 1 1 0 0 0 .541 1.307 1 1 0 0 0 1.307-.541 1 1 0 0 0-.541-1.307 1 1 0 0 0-.36-.076zm-17.95 3.568a1 1 0 0 0-.722.293 1 1 0 0 0 0 1.414 1 1 0 0 0 1.414 0 1 1 0 0 0 0-1.414 1 1 0 0 0-.692-.293zm15.555.002a1 1 0 0 0-.72.291 1 1 0 0 0 0 1.416 1 1 0 0 0 1.413 0 1 1 0 0 0 0-1.416 1 1 0 0 0-.693-.29zm-11.978 2.383a1 1 0 0 0-.946.617 1 1 0 0 0 .541 1.307 1 1 0 0 0 1.307-.541 1 1 0 0 0-.541-1.307 1 1 0 0 0-.361-.076zm8.404 0a1 1 0 0 0-.389.076 1 1 0 0 0-.543 1.307 1 1 0 0 0 1.307.54 1 1 0 0 0 .543-1.306 1 1 0 0 0-.918-.617zM40 47a1 1 0 0 0-1 1 1 1 0 0 0 1 1 1 1 0 0 0 1-1 1 1 0 0 0-1-1zM25.26 61.967A28.84 28.84 0 0 0 40 66c5.38 0 10.418-1.474 14.738-4.031A1 1 0 0 0 55 62h2c3.326 0 6 2.674 6 6H17c0-3.326 2.674-6 6-6h2a1 1 0 0 0 .26-.033z"/></svg>