<svg xmlns="http://www.w3.org/2000/svg" viewBox="0 0 26 26"><path d="M8.438.125c-1.282 0-2.336.785-3.47 1.031-1.132.246-1.038-.027-2.25.219-.69.14-.655.707-.655 2.563 0 .8.027 5.042-.032 6-.035.546-.164 1.574-.344 2.124 0 0 4.422 1.907 5.97 5.563-2.532-3.094-6.157-4.11-6.532-4.125-.64 1.281-1.031 2.75-1.031 4.25 0 1.102.25 1.594.25 1.594s.601.32 2.844.656c1 .148 3.16.297 4.656.75 4.676 1.414 7.523 1.355 11.187 1 4.09-.395 6.344-2.031 6.344-2.031s.035-1.45-.594-2.313c-.601-.832-1.746-1.312-2.656-1.281-1.605.059-1.582.79-2.719.438-.699-.215-1-.438-1-.438s-.3 2.496-2.125 3.156c.492-.87.446-1.84.563-2.75.172-1.36.172-2.297-1.282-2.562-1.011-.184-1.746-.246-2.78-.938-1.036-.691-1.485-1.695-1.75-3.875-.317-2.582-.036-7.066-.126-7.719C10.816.785 9.72.125 8.437.125zm.656 1.688c.355 0 .656.3.656.656 0 .355-.3.625-.656.625-.356 0-.656-.266-.656-.625a.66.66 0 0 1 .656-.656zM9.03 4.655c.356 0 .656.27.656.625 0 .356-.3.657-.656.657-.355 0-.625-.301-.625-.657 0-.355.27-.625.625-.625zm.094 2.657c.355 0 .656.269.656.625 0 .355-.3.656-.656.656a.663.663 0 0 1-.656-.656c0-.356.3-.625.656-.625zm.406 2.937c.356 0 .625.3.625.656 0 .356-.27.656-.625.656a.665.665 0 0 1-.656-.656c0-.355.3-.656.656-.656zm1.281 2.344c.356 0 .626.3.626.656a.61.61 0 0 1-.626.625c-.355 0-.656-.27-.656-.625s.301-.656.656-.656zm2 1.469c.356 0 .657.269.657.624a.663.663 0 0 1-.656.657c-.356 0-.626-.301-.626-.656 0-.356.27-.626.626-.626zm2.532.812c.355 0 .656.27.656.625a.663.663 0 0 1-.656.656c-.356 0-.625-.3-.625-.656 0-.355.27-.625.625-.625zM.28 20.438c-.16-.012-.187.14-.156.28l.156 3.907s-.015.281.344.281c.23 0 1.156.032 1.156.032s.22-.04.22-.158v-1.06s-.016-.317.5-.282c.469.032.531.375.531.375v.782c0 .144-.035.343.25.343h2.406s.25-.046.25-.218v-2.094s-.07-.305.188-.219 4.688.969 4.688.969.23-.004.25.219c.019.207-.032.687-.032.687s.055.145.25.188c.281.062 1.281.156 1.281.156s.344-.012.344-.125.063-.5.063-.5-.004-.121.281-.094c.285.028.563-.031.563-.031s.25.074.25.188c0 .113.062.53.062.53s.008.27.313.25c.117-.007 1.312.063 1.312.063s.172-.015.188-.218c.011-.157 0-.47 0-.47s.039-.25.187-.25c.281 0 1.508-.015 1.656 0a.615.615 0 0 1 .282.126l.03.687s.106.13.22.157c.113.027 1.28-.094 1.28-.094s.157-.32.126-.375c-.028-.059.25-.657.25-.657s.043-.066.187-.093c.145-.028.875-.188.875-.188s.16.035.219.094.344.5.344.5.011.152.125.125c.113-.027 1.125-.219 1.125-.219l.187-.218.063-.594s.008-.313.093-.313c.086 0 .782-.312.782-.312l.281.031.313.531s.132.063.218.032c.086-.028 1-.47 1-.47s.121-.257.094-.343c-.027-.086-.25-1.5-.25-1.5s-.195-.145-.281-.031c-.086.113-3.012 1.64-6.094 1.968-3.027.325-5.324.833-11.563-1.062-1.554-.473-6.343-.805-7.187-1.25a.523.523 0 0 0-.219-.063z"/></svg>