<svg xmlns="http://www.w3.org/2000/svg" viewBox="0 0 16 16"><path d="M6.898 3C4.23 3 2 5.02 2 7.54v2.698a33.439 33.439 0 0 1-1.336-.363.498.498 0 0 0-.328.941S3.719 12 8.046 12c4.325 0 7.622-1.184 7.622-1.184a.5.5 0 1 0-.336-.941s-.555.172-1.332.371V7.54C14 5.02 11.77 3 9.102 3zm0 1h2.204C11.27 4 13 5.613 13 7.54v.741c-.023.004-.05.008-.074.016C11.719 8.597 10.246 9 8 9s-3.762-.402-4.984-.7L3 8.298V7.54C3 5.613 4.73 4 6.898 4zM13 9.305v1.18c-1.285.265-3 .515-4.953.515-1.98 0-3.735-.258-5.047-.527V9.328c1.188.29 2.766.672 5 .672 2.266 0 3.824-.398 5-.695z"/></svg>