<svg xmlns="http://www.w3.org/2000/svg" viewBox="0 0 50 50"><path d="M18.813 1a1.056 1.056 0 0 0-.188.063l-10 4c-.277.109-.488.34-.582.625-.09.28-.047.593.113.843 0 0 1.364 2.149 1.813 4.938.449 2.789.09 6.039-3.563 8.719A.998.998 0 0 0 6 21v4h-.094A.996.996 0 0 0 5 26v4c0 .55.45 1 1 1v4h-.094A.996.996 0 0 0 5 36v4c0 .55.45 1 1 1v5a.999.999 0 0 0 .688.938S13.085 49 25 49c11.914 0 18.313-2.063 18.313-2.063A.999.999 0 0 0 44 46v-5c.55 0 1-.45 1-1v-4c0-.55-.45-1-1-1v-4c.55 0 1-.45 1-1v-4c0-.55-.45-1-1-1v-3.813a.986.986 0 0 0-.344-.75c-3.535-2.976-3.945-6.324-3.531-9.093.414-2.77 1.719-4.813 1.719-4.813.16-.25.203-.562.113-.843a1.004 1.004 0 0 0-.582-.625l-10-4a1 1 0 0 0-1.281.5S28.332 5 25 5c-3.332 0-5.094-3.438-5.094-3.438a1 1 0 0 0-1-.562h-.093zm-.125 2.219C19.328 4.293 21.136 7 25 7c3.863 0 5.672-2.707 6.313-3.781l8.28 3.312c-.484.946-1.116 2.403-1.437 4.532-.468 3.117.153 7.171 3.844 10.53V25h-1.094A.996.996 0 0 0 40 26v4c0 .55.45 1 1 1h1v4h-1.094A.996.996 0 0 0 40 36v4c0 .55.45 1 1 1h1v4.219C41.148 45.477 35.785 47 25 47S8.852 45.477 8 45.219V41h1c.55 0 1-.45 1-1v-4c0-.55-.45-1-1-1H8v-4h1c.55 0 1-.45 1-1v-4c0-.55-.45-1-1-1H8v-3.594c3.805-3.078 4.441-7.12 3.938-10.25-.352-2.187-1.024-3.664-1.532-4.625zM16 21c-.523 0-1.059.184-1.438.563-.378.378-.562.914-.562 1.437v18c0 .523.184 1.059.563 1.438.378.378.914.562 1.437.562h18c.523 0 1.059-.184 1.438-.563.378-.378.562-.914.562-1.437V23c0-.523-.184-1.059-.563-1.438C35.06 21.184 34.523 21 34 21zm0 2h18v18H16zm-9 4a.668.668 0 0 0 .125 0H8v2h-.813A1.044 1.044 0 0 0 7 28.969zm35 0h1v1.969a1.019 1.019 0 0 0-.219.031H42zM7 37a.668.668 0 0 0 .125 0H8v2h-.813A1.044 1.044 0 0 0 7 38.969zm35 0h1v2h-1z"/></svg>