<svg xmlns="http://www.w3.org/2000/svg" viewBox="0 0 50 50"><path d="M25 2c-3.5 0-6.813 1.7-8.813 4.5-1.1-.3-2.085-.5-3.187-.5C6.898 6 2 10.898 2 17c0 4.602 2.8 8.586 7 10.188V38h32V27.187c4.2-1.6 7-5.687 7-10.187 0-6.102-4.898-11-11-11-1.102 0-2.086.2-3.188.5C31.813 3.7 28.5 2 25 2zm-7 25c.602 0 1 .398 1 1v3c0 .602-.398 1-1 1s-1-.398-1-1v-3c0-.602.398-1 1-1zm7 0c.602 0 1 .398 1 1v4c0 .602-.398 1-1 1s-1-.398-1-1v-4c0-.602.398-1 1-1zm7 0c.602 0 1 .398 1 1v3c0 .602-.398 1-1 1s-1-.398-1-1v-3c0-.602.398-1 1-1zM9 40v7c0 .602.398 1 1 1h30c.602 0 1-.398 1-1v-7z"/></svg>