<svg xmlns="http://www.w3.org/2000/svg" viewBox="0 0 16 16"><path d="M8 2a2.978 2.978 0 0 0-2.852 2.09C4.938 4.03 4.718 4 4.5 4A2.502 2.502 0 0 0 2 6.5c0 1.207.86 2.219 2 2.45v4.55c0 .277.223.5.5.5h7c.277 0 .5-.223.5-.5V8.95c1.14-.231 2-1.243 2-2.45C14 5.121 12.879 4 11.5 4c-.219 0-.438.031-.652.09A2.97 2.97 0 0 0 8 2zm0 1c1.04 0 1.89.785 1.98 1.828l.067.805.687-.414c.243-.145.5-.219.766-.219a1.5 1.5 0 0 1 0 3h-1a.499.499 0 1 0 0 1h.5v2H5V9h.5a.499.499 0 1 0 0-1h-1a1.5 1.5 0 0 1 0-3c.266 0 .523.074.766.219l.687.414.067-.805A1.981 1.981 0 0 1 8 3zm-3 9h6v1H5z"/></svg>