<svg xmlns="http://www.w3.org/2000/svg" viewBox="0 0 32 32"><path d="M11.438 6l-.282.5s-2.87 4.777-4.937 9.781c-.918.434-3.172 1.703-4.157 4.375l-.187.5.313.438s.289.355.78.781c.493.426 1.243.992 2.313 1.531C7.426 24.98 10.84 26 16 26c5.16 0 8.574-1.02 10.719-2.094a11.193 11.193 0 0 0 2.312-1.531c.492-.426.782-.781.782-.781l.312-.438-.188-.5c-.777-2.11-2.378-3.379-3.468-4.031C27.339 15.27 28 13.43 28 11V9.781l-1.188.25s-1.527.297-2.968 1.594c-.032.027-.063.063-.094.094a84.47 84.47 0 0 0-2.906-5.25L20.562 6h-1.937l-.313.25s-.519.5-1.125.969a8.944 8.944 0 0 1-.875.593A2.527 2.527 0 0 1 16 7.97a2.527 2.527 0 0 1-.313-.157 8.944 8.944 0 0 1-.874-.593c-.606-.469-1.126-.969-1.126-.969L13.376 6zm1.124 2h.063c.188.168.45.379.969.781.344.266.715.559 1.094.781.378.223.703.438 1.312.438.61 0 .934-.215 1.313-.438.378-.222.75-.515 1.093-.78.52-.403.782-.614.969-.782.004-.004.027.004.031 0a71.02 71.02 0 0 1 2.969 5.438c-.703 1.187-1.23 2.765-1.344 4.78-1.246.434-2.87.782-5.031.782-3.102 0-5.172-.695-6.469-1.375-.949-.496-1.082-.703-1.281-.906C10.059 12.44 12.172 8.668 12.563 8zm13.094 4.813c-.363 1.8-1.031 3.171-1.843 3.937-.243.227-.247.121-.47.281.368-1.86 1.028-3.234 1.813-3.937.262-.235.262-.133.5-.281zM6.844 18.218c.398.332.98.754 1.75 1.156C10.168 20.195 12.59 21 16 21c1.996 0 3.652-.293 5-.688l.281-.062c.055-.02.102-.043.157-.063l.843-.218s1.446-.43 2.844-1.719l.031-.031c.668.39 1.864 1.215 2.594 2.625-.023.02-.008.008-.031.031-.375.324-.985.758-1.907 1.219C23.97 23.02 20.895 24 16 24s-7.969-.98-9.813-1.906c-.921-.461-1.53-.895-1.906-1.219-.023-.023-.008-.012-.031-.031.73-1.41 1.926-2.235 2.594-2.625z"/></svg>