<svg xmlns="http://www.w3.org/2000/svg" viewBox="0 0 40 40"><polygon points="11.5,37.5 11.5,26.118 12.559,24 11.5,21.882 11.5,15.195 7.79,21.377 3.704,19.743 11.376,5.357 16.139,2.5 24.861,2.5 29.624,5.357 37.296,19.743 33.21,21.377 29.5,15.195 29.5,21.882 28.441,24 29.5,26.118 29.5,37.5" fill="#e1ebf2"/><path d="M24.723 3l4.525 2.715 7.345 13.771-3.173 1.269-2.562-4.27L29 13.39v8.374l-.894 1.789-.224.447.224.447.894 1.789V37H12V26.236l.894-1.789.224-.447-.224-.447L12 21.764V13.39l-1.857 3.096-2.562 4.27-3.173-1.269 7.345-13.771L16.277 3h8.446M25 2h-9l-5 3-8 15 5 2 3-5v5l1 2-1 2v12h19V26l-1-2 1-2v-5l3 5 5-2-8-15-5-3z" fill="#788b9c"/><polygon points="20,12 16,3 18,3 23.952,2.669 25,3" fill="#788b9c"/><polyline points="18.5,23 18.5,15.5 25.29,2.669" fill="none" stroke="#788b9c"/><line x1="18.5" y1="22.5" x2="28.5" y2="4.5" fill="#c2e8ff" stroke="#788b9c"/><line x1="19.938" y1="11.372" x2="16.5" y2="3.5" fill="#c2e8ff" stroke="#788b9c" stroke-linecap="square"/><line x1="18.6" y1="15.386" x2="13.249" y2="4.007" fill="#c2e8ff" stroke="#788b9c"/><line x1="12" y1="23.5" x2="29" y2="23.5" fill="#c2e8ff" stroke="#36404d"/><g fill="#36404d"><circle cx="18.5" cy="23.5" r="1"/><path d="M18.5 23a.5.5 0 1 1 0 1 .5.5 0 0 1 0-1m0-1a1.5 1.5 0 1 0 .001 3.001A1.5 1.5 0 0 0 18.5 22z"/></g><line x1="18.5" y1="23.5" x2="20.5" y2="35.5" fill="#e1ebf2" stroke="#36404d" stroke-miterlimit="10"/><line x1="17.5" y1="33.5" x2="18.5" y2="23.5" fill="#e1ebf2" stroke="#36404d" stroke-miterlimit="10"/></svg>