<svg xmlns="http://www.w3.org/2000/svg" viewBox="0 0 16 16"><path style="line-height:normal;text-indent:0;text-align:start;text-decoration-line:none;text-decoration-style:solid;text-decoration-color:#000;text-transform:none;block-progression:tb;isolation:auto;mix-blend-mode:normal" d="M6.25 2a.5.5 0 0 0-.182.033l-4.75 1.848A.5.5 0 0 0 1 4.346V7.5a.5.5 0 0 0 .658.475L4 7.193V13.5a.5.5 0 0 0 .5.5h7a.5.5 0 0 0 .5-.5V7.193l2.342.782A.5.5 0 0 0 15 7.5V4.346a.5.5 0 0 0-.318-.465l-4.75-1.848A.5.5 0 0 0 9.75 2h-3.5zm-.064 1.06l1.277 3.19-.428 1.064A.497.497 0 0 0 7 7.5V9H5V6.5a.5.5 0 0 0-.658-.475L2 6.807v-2.12l4.186-1.626zm3.628 0L14 4.688v2.12l-2.342-.782A.5.5 0 0 0 11 6.5V9H9v1h2v3H8V7.596L9.814 3.06zM5 10h2v3H5v-3z" font-weight="400" font-family="sans-serif" white-space="normal" overflow="visible"/></svg>