<svg xmlns="http://www.w3.org/2000/svg" viewBox="0 0 50 50"><path d="M25.098 3c-3.567 0-6.77 1.79-8.676 4.813-4.383.234-9.223 3.671-9.774 8.296C4.293 17.668 3 20.47 3 23.402c0 1.27.082 2.528.664 3.832C3.098 28.238 3 29.426 3 30.7c0 3.59 2.422 7.563 6 8.203V43h2v-7.43c.055-.465.27-.883.816-1.414.563-.547 1.465-1.152 2.684-1.828 2.344-1.293 5.973-2.926 10.5-5.21 4.613 2.339 8.23 3.976 10.535 5.257 1.203.668 2.082 1.262 2.633 1.797.539.52.758.941.832 1.426V43h2v-4.098c3.578-.64 6-4.613 6-8.203 0-1.133-.11-2.336-.68-3.437.5-1.157.598-2.434.68-3.805-.027-4.434-2.383-6.621-3.633-7.371-.437-4.719-5.082-7.91-9.582-8.172C31.895 4.828 28.688 3 25.098 3zM25 8c.55 0 1 .45 1 1s-.45 1-1 1-1-.45-1-1 .45-1 1-1zm2 1c.55 0 1 .45 1 1s-.45 1-1 1c.55 0 1 .45 1 1s-.45 1-1 1-1-.45-1-1 .45-1 1-1c-.55 0-1-.45-1-1s.45-1 1-1zm-3.91.004c.254.023.5.14.676.355a.994.994 0 0 1-.125 1.407.994.994 0 0 1-1.407-.125.994.994 0 0 1 .125-1.407.996.996 0 0 1 .73-.23zm0 2c.254.023.5.14.676.355a.994.994 0 0 1-.125 1.407.994.994 0 0 1-1.407-.125.994.994 0 0 1 .125-1.407.996.996 0 0 1 .73-.23zM15 12c.55 0 1 .45 1 1s-.45 1-1 1-1-.45-1-1 .45-1 1-1zm10 0c.55 0 1 .45 1 1s-.45 1-1 1-1-.45-1-1 .45-1 1-1zm10 0c.55 0 1 .45 1 1s-.45 1-1 1-1-.45-1-1 .45-1 1-1zm-18 1c.55 0 1 .45 1 1s-.45 1-1 1c.55 0 1 .45 1 1s-.45 1-1 1-1-.45-1-1 .45-1 1-1c-.55 0-1-.45-1-1s.45-1 1-1zm20 0c.55 0 1 .45 1 1s-.45 1-1 1c.55 0 1 .45 1 1s-.45 1-1 1-1-.45-1-1 .45-1 1-1c-.55 0-1-.45-1-1s.45-1 1-1zm-23.91.004c.254.023.5.14.676.355a.994.994 0 0 1-.125 1.407.994.994 0 0 1-1.407-.125.994.994 0 0 1 .125-1.407.996.996 0 0 1 .73-.23zm20 0c.254.023.5.14.676.355a.994.994 0 0 1-.125 1.407.994.994 0 0 1-1.407-.125.994.994 0 0 1 .125-1.407.996.996 0 0 1 .73-.23zm-20 2c.254.023.5.14.676.355a.994.994 0 0 1-.125 1.407.994.994 0 0 1-1.407-.125.994.994 0 0 1 .125-1.407.996.996 0 0 1 .73-.23zm20 0c.254.023.5.14.676.355a.994.994 0 0 1-.125 1.407.994.994 0 0 1-1.407-.125.994.994 0 0 1 .125-1.407.996.996 0 0 1 .73-.23zM15 16c.55 0 1 .45 1 1s-.45 1-1 1-1-.45-1-1 .45-1 1-1zm20 0c.55 0 1 .45 1 1s-.45 1-1 1-1-.45-1-1 .45-1 1-1zm-10 2c3.379 0 6.398 1.332 8.766 3.473 2.254 2.136 3.832 5.043 4.75 8.132.207.844.355 1.707.422 2.586-.668-.53-1.477-1.035-2.434-1.566-2.547-1.414-6.18-3.027-11.05-5.516L25 24.875l-.453.234c-4.77 2.426-8.426 4.04-11.016 5.47-.965.538-1.789 1.046-2.469 1.585.18-2.203.801-4.32 1.778-6.223 1.45-2.648 3.48-4.941 6.09-6.375.152-.082.297-.171.453-.25.164-.082.336-.144.504-.218.265-.118.531-.243.808-.344.188-.067.387-.117.582-.176.254-.078.508-.164.77-.226.36-.086.738-.145 1.113-.2.106-.015.203-.043.309-.058.496-.059 1.008-.09 1.531-.094zm0 2c-.55 0-1 .45-1 1s.45 1 1 1 1-.45 1-1-.45-1-1-1zm-7 2c-.55 0-1 .45-1 1s.45 1 1 1 1-.45 1-1-.45-1-1-1zm5 0c-.55 0-1 .45-1 1s.45 1 1 1 1-.45 1-1-.45-1-1-1zm4 0c-.55 0-1 .45-1 1s.45 1 1 1 1-.45 1-1-.45-1-1-1zm5 0c-.55 0-1 .45-1 1s.45 1 1 1 1-.45 1-1-.45-1-1-1zM8.5 23a1.5 1.5 0 1 1 0 3 1.5 1.5 0 0 1 0-3zm33 0a1.5 1.5 0 1 1 0 3 1.5 1.5 0 0 1 0-3zM17 25c-.55 0-1 .45-1 1s.45 1 1 1 1-.45 1-1-.45-1-1-1zm16 0c-.55 0-1 .45-1 1s.45 1 1 1 1-.45 1-1-.45-1-1-1zM10 44a1.999 1.999 0 1 0 0 4 1.999 1.999 0 1 0 0-4zm30 0a1.999 1.999 0 1 0 0 4 1.999 1.999 0 1 0 0-4z"/></svg>