<svg xmlns="http://www.w3.org/2000/svg" viewBox="0 0 32 32"><path d="M7 4v3.945L5.766 19.687 4.8 18.402l-1.602 1.196L5 22H3v2h2.313l-.422 4h8.89L16 19.125 18.219 28h8.89l-.422-4H29v-2h-2l1.8-2.402-1.6-1.196-.966 1.285L25 7.945V4zm2 2h2v6l1 1 1-1V9.8l3 1.2 3-1.2V12l1 1 1-1V6h2v2l1.469 14H18.78l-1.75-7h-2.06l-1.75 7H7.53L8.992 8.102zm5 0c.55 0 1 .45 1 1s-.45 1-1 1-1-.45-1-1 .45-1 1-1zm4 0c.55 0 1 .45 1 1s-.45 1-1 1-1-.45-1-1 .45-1 1-1zM7.32 24h5.399l-.5 2h-5.11zm11.961 0h5.399l.21 2h-5.109z"/></svg>