<svg xmlns="http://www.w3.org/2000/svg" viewBox="0 0 80 80"><path d="M38 7c-14.18 0-25.625 9.219-25.625 9.219l-.758.605 3.102 4.145C14.094 21.89 10 28.125 10 36c0 1.277.117 2.543.25 3.8-.66.22-1.246.552-1.61 1.055-.542.758-.722 1.672-.609 2.536a60.637 60.637 0 0 0 3.332 13.101 7.029 7.029 0 0 0 5.184 4.406c19.816 3.95 33.156 8.164 40.258 11.22 1.351.581 2.75.105 3.793-.825 1.457.77 2.902 1.574 2.902 1.574l.535.309.516-.344S71 68.445 71 59v-.617l-1.723-.863C70.047 55.613 72 50.219 72 44c0-9.8-3.125-15.484-3.125-15.484l-.29-.516h-1.94C62.98 16.39 50.828 7 38 7zm0 2c11.613 0 22.914 8.598 26.54 19H41.577A6.93 6.93 0 0 0 38 27c-3.855 0-7 3.145-7 7 0 3.75 2.98 6.824 6.695 6.984l30.746 18.45.04-.075.425.215c-.234 7.004-3.949 10.418-5.011 11.23a75.487 75.487 0 0 0-2.016-1.1l.148-.204.043-.09-.008-.894-.722-.532-.86.266-.207.281-.043.094.004.219-.043-.02-.484.785a1.682 1.682 0 0 1-2.113.672c-7.32-3.152-20.742-7.375-40.657-11.344a5.012 5.012 0 0 1-3.703-3.156c-1.949-5.133-2.847-9.867-3.218-12.656-.051-.387.046-.82.25-1.102.203-.28.453-.464 1.03-.464h1.138l-.024-.176.078-.012.418-.797-.39-.808-.305-.157A34.87 34.87 0 0 1 12 36c0-7.668 4.719-14.55 4.719-14.55l.41-.59-.117-.16.332.042.308-.172.078-.062.364-.817-.434-.785-.89-.12-.305.171-.078.063-.235.527-1.742-2.328C16.355 15.777 26.05 9 38 9zm1.96 2l-.1.004-.782.434-.129.886.637.63.352.05.097-.004.785-.434.125-.882-.633-.633zm-4.151.285l-.102.012-.754.48-.066.895.675.586.348.027.102-.012.754-.48.066-.895-.676-.585zm-3.809.68l-.352.015-.097.02-.692.57.04.899.742.5.351-.016.098-.02.691-.57-.039-.894zm-4.035 1.062l-.352.043-.093.028-.645.62.11.891.78.446.348-.043.094-.032.648-.62-.109-.891zM24 14.497l-.344.093-.09.039-.55.707.234.867.832.328.34-.093.094-.043.55-.707-.238-.864zm-3.746 1.913l-.328.133-.082.05-.469.766.328.828.867.235.328-.129.086-.055.47-.761-.333-.832zM38 29c2.77 0 5 2.227 5 5s-2.23 5-5 5c-2.773 0-5-2.227-5-5s2.227-5 5-5zm5.73 1h23.59c.344.656 2.68 5.266 2.68 14 0 6.21-1.96 11.14-2.531 12.516l-26.77-16.063C43.22 39.395 45 36.898 45 34a6.95 6.95 0 0 0-1.27-4zM38 31c-1.648 0-3 1.355-3 3s1.352 3 3 3c1.645 0 3-1.355 3-3s-1.355-3-3-3zm0 2c.563 0 1 .438 1 1 0 .563-.438 1-1 1-.566 0-1-.438-1-1 0-.563.434-1 1-1zm-21.98 7.797l-.883.144-.414.793.386.809.313.16.098.031.886-.144.41-.793-.39-.809-.313-.16zm3.918 1.297l-.887.12-.438.782.367.816.31.172.093.032.887-.118.437-.785-.363-.816-.313-.172zm3.894 1.375l-.89.093-.458.77.344.824.3.184.095.035.89-.094.461-.77-.344-.827-.304-.184zm3.863 1.449l-.894.066-.477.762.32.836.297.188.094.039.895-.075.476-.754-.32-.84-.3-.187zm3.801 1.539l-.894.074-.477.754.316.84.301.188.09.035.898-.067.473-.761-.316-.836-.301-.188zm3.79 1.629l-.895.05-.5.743.3.844.293.199.094.035.89-.047.5-.742-.296-.844-.297-.199zm3.753 1.71l-.898.024-.516.73.281.856.285.203.094.043.895-.027.515-.734-.277-.852-.29-.203zm3.715 1.786l-.895.008-.535.719.258.859.281.207.09.047.899-.004.535-.719-.262-.86-.281-.21zm2.777 1.86l-.55.71.238.864.277.214.086.047.898.02.551-.711-.238-.863-.277-.22-.09-.046zm3.625 1.945l-.566.691.219.871.273.223.09.047.89.039.567-.696-.219-.87-.27-.223-.09-.047zm3.574 2.031l-.578.68.196.875.27.23.085.047.895.059.582-.684-.2-.871-.27-.227-.085-.054zm3.532 2.133l-.61.656.16.883.262.238.082.055.89.097.61-.656-.16-.886-.262-.235-.082-.058zm3.437 2.27l-.629.636.133.887.25.25.082.054.887.122.629-.633-.13-.887-.25-.25-.081-.059zm3.434 2.476l-.856.266-.207.285-.043.09.008.894.727.527.851-.261.211-.285.043-.09-.008-.895z"/></svg>