<svg xmlns="http://www.w3.org/2000/svg" viewBox="0 0 40 40"><path d="M20 19.5c-4.523 0-9.402-5.059-9.5-13.254.613-.406 3.113-1.746 9.496-1.746 6.363 0 8.875 1.336 9.5 1.746C29.363 11.04 25.484 19.5 20 19.5z" fill="#98ccfd"/><path d="M.996 16.938S6.402 8.039 10 6c.805 1.773 3.664 4.64 6.996 5.5.16 1.824 3 4.566 3 4.566s2.84-2.742 3-4.566c3.328-.86 6.2-3.727 7.004-5.5 3.598 2.04 8.996 10.938 8.996 10.938S38.73 18.367 36 20c.777 1.82 1 3 1 3s-2.152 2.625-5 3c0 2.363-1.535 7.668-12.004 9.898C9.523 33.668 8 28.363 8 26c-2.848-.375-5-3-5-3s.223-1.18 1-3C1.27 18.367.996 16.937.996 16.937z" fill="#dff0fe"/><path d="M1.281 17.063s1.696-2.997 3.907-6.032c0 0 .582 1.364 1.562 2.078l-.719 2.922c.73 1.145 2.672 1.828 3.547 2.11l-.64 3.39c2.742 3.75 7.394 6.317 11.062 6.407 3.645-.09 8.09-3.258 10.844-6.97-.028-.23-.657-2.874-.657-2.874 1.25-.344 3.239-1.324 3.97-2.469l-.985-2.484c.89-.891 1.453-2.172 1.453-2.172C36.84 14.004 39 17.039 39 17.039s-.27 1.328-3 2.961c.777 1.82 1 3 1 3s-2.152 2.625-5 3c0 2.363-1.531 7.77-12 10C9.531 33.77 8 28.363 8 26c-2.848-.375-5-3-5-3s.223-1.18 1-3c-2-2-2.719-2.938-2.719-2.938z" fill="#b6dcfe"/><path d="M38.996 16.938S37.786 15.308 37 14c-1 1-3 2-3 2l1 3c-.836 1.914-3.313 2.543-4 3l.496 3.5C28.606 29.883 25.523 31.031 20 32c-5.523-.969-8.617-2.117-11.504-6.5L9 22c-1-.5-3.164-1.086-4-3l1-3s-1.64-1.219-2-3c-.785 1.309-3.004 4-3.004 4S1.27 18.367 4 20c-.777 1.82 0 3 0 3s1.152 2.625 4 3c0 2.363 1.527 7.77 11.996 10C30.465 33.77 32 28.363 32 26c2.848-.375 5-3 5-3s-.223-1.18-1-3c2.73-1.633 2.996-3.063 2.996-3.063z" fill="#98ccfd"/><path d="M9.66 7.379c1.2 1.668 3.574 3.516 6.485 4.418.578 1.969 2.656 4.36 3.109 4.867L20 17.5l.746-.832c.453-.508 2.527-2.902 3.11-4.871 2.91-.902 5.285-2.75 6.484-4.418 2.77 1.996 6.125 7.215 7.543 9.68-.246.402-.875 1.18-2.39 2.086l-.798.472.414.828c.54 1.086.754 1.832.836 2.227-.62.64-2.215 2.094-4.074 2.34l-.867.113V26c0 .594-.133 2.71-1.863 4.938-1.883 2.421-4.957 4.117-9.137 5.039-10.692-2.364-11-9.2-11-9.977v-.879l-.867-.113c-1.871-.246-3.461-1.692-4.082-2.336.086-.399.3-1.145.843-2.223l.418-.832-.796-.476c-1.532-.914-2.16-1.7-2.403-2.082 1.414-2.465 4.774-7.684 7.543-9.68M30 6c-.805 1.773-3.672 4.14-7 5-.16 1.824-3 5-3 5s-2.84-3.176-3-5c-3.328-.86-6.195-3.227-7-5-4 2-9 11-9 11s.273 1.367 3.004 3C3 22 3 23 3 23s2.16 2.625 5.004 3c0 2.363 1.531 8.77 12 11 10.473-2.23 12-8.637 12-11C34.852 25.625 37 23 37 23s0-1-.996-3C38.734 18.367 39 17 39 17s-5-9-9-11z" fill="#4788c7"/><path d="M10.668 6.742C10.688 6.727 12.789 5 19.996 5c7.207 0 9.317 1.727 9.32 1.727 0 0 .493.312.622.39C29.977 6.73 30 6.352 30 6c0 0-2.125-2-10.004-2C12.113 4 10 6 10 6c0 .379.016.754.04 1.133.136-.086.628-.39.628-.39z" fill="#4788c7"/><path d="M4.5 19.906l2.031-6.375m1.875 12.063l1.063-7m22 6.937l-1.032-7.062m4.907 1.125L33.496 13.5" fill="none" stroke-linecap="round" stroke="#4788c7"/></svg>