<svg xmlns="http://www.w3.org/2000/svg" viewBox="0 0 50 50"><path style="line-height:normal;text-indent:0;text-align:start;text-decoration-line:none;text-decoration-style:solid;text-decoration-color:#000;text-transform:none;block-progression:tb;isolation:auto;mix-blend-mode:normal" d="M24.984 2.986A1 1 0 0 0 24 4v6a1 1 0 1 0 2 0V4a1 1 0 0 0-1.016-1.014zM3.98 7.99a1 1 0 0 0-.604 1.791l5 4a1 1 0 1 0 1.25-1.562l-5-4a1 1 0 0 0-.646-.229zm42.013.002a1 1 0 0 0-.617.227l-5 4a1 1 0 1 0 1.25 1.562l5-4a1 1 0 0 0-.633-1.789zm-33.021 7.996a1 1 0 0 0-.856.522l-6.77 8.78a1 1 0 0 0-.005.003 1 1 0 0 0 .08 1.484L24.113 46.52a1 1 0 0 0 .928.513 1 1 0 0 0 .004 0 1 1 0 0 0 .008 0 1 1 0 0 0 .83-.508l18.754-19.742a1 1 0 0 0 .064-1.51 1 1 0 0 0-.002-.002l-6.814-8.763a1 1 0 0 0-.887-.52 1 1 0 0 0-.137.012H25.145a1 1 0 0 0-.03-.004 1 1 0 0 0-.1-.008 1 1 0 0 0-.17.012H13.142a1 1 0 0 0-.17-.012zM14.7 18h8.254l-4.814 6.191L14.7 18zm12.342 0h8.256l-3.44 6.191L27.043 18zM25 18.627L29.957 25h-9.914L25 18.627zm12.14.182L41.956 25h-8.254l3.44-6.191zm-24.277.007L16.3 25H8.096l4.767-6.184zM8.385 27h8.906l5.22 14.916L8.386 27zm11.023 0h11.184L25 42.977 19.408 27zm13.301 0h8.96L27.48 41.938 32.71 27z"/></svg>