<svg xmlns="http://www.w3.org/2000/svg" viewBox="0 0 50 50"><path d="M1.406 4.313c-.511.046-1.004.464-1.187.906-.18.433-.192.879-.125 1.375v.031c.851 6.11 2.453 9.754 4.531 12.063 1.227 1.363 2.594 2.238 3.969 2.906A13.493 13.493 0 0 0 8 25.469V34.5c0 1.23.621 2.348 1.563 3.25.94.902 2.218 1.66 3.75 2.281C16.37 41.273 20.473 42 25 42c4.527 0 8.629-.727 11.688-1.969 1.53-.62 2.808-1.379 3.75-2.281.94-.902 1.562-2.02 1.562-3.25v-8.844c.004-.05.004-.105 0-.156v-.125a13.443 13.443 0 0 0-.594-3.781c1.375-.668 2.742-1.543 3.969-2.907 2.078-2.308 3.68-5.953 4.531-12.062v-.031c.067-.496.055-.942-.125-1.375-.183-.442-.676-.86-1.187-.907-.512-.046-.89.157-1.188.407-.297.25-.535.558-.687.937-1.864 4.625-3.84 6.735-5.938 7.875-1.156.63-2.394.965-3.718 1.219-1.864-1.723-4.243-3.05-7.063-3.594v-.062c0-.086-.012-.168-.031-.25 0 0-.133-.348-.313-.563a2.589 2.589 0 0 0-.812-.625C28.098 9.273 26.945 9 25 9c-1.941 0-3.098.273-3.844.656-.37.192-.633.41-.812.625-.18.215-.313.563-.313.563-.02.082-.031.164-.031.25v.062c-2.82.543-5.2 1.871-7.063 3.594-1.324-.254-2.562-.59-3.718-1.219-2.098-1.14-4.074-3.25-5.938-7.875a2.373 2.373 0 0 0-.687-.937c-.297-.25-.676-.453-1.188-.407zm1.157 4.156c1.718 3.37 3.624 5.672 5.718 6.812 1.414.77 2.852 1.164 4.281 1.438a.999.999 0 0 0 .844.156c.57.094 1.125.164 1.688.25-.074 1.008-.446 1.918-1.063 2.594-.738.804-1.687 1.144-2.031 1.125a58.553 58.553 0 0 1-1.625-.657.472.472 0 0 0-.063-.062c-.03-.012-.062-.02-.093-.031a1.169 1.169 0 0 0-.125-.032c-1.446-.636-2.785-1.402-3.969-2.718-1.469-1.633-2.703-4.547-3.563-8.875zm44.874 0c-.859 4.328-2.093 7.242-3.562 8.875-1.215 1.351-2.605 2.101-4.094 2.75-.031.02-.062.039-.093.062-.551.239-1.106.457-1.688.688-.344.02-1.293-.32-2.031-1.125-.617-.676-.989-1.586-1.063-2.594.555-.086 1.098-.16 1.657-.25h.03c.02-.004.044.004.063 0a.998.998 0 0 0 .75-.156c1.442-.274 2.89-.664 4.313-1.438 2.093-1.14 4-3.441 5.718-6.812zM25 11c1.746 0 2.605.266 2.938.438.05.027.03.011.062.03a1.002 1.002 0 0 0 0 1.063v13.281c-.004.36.184.696.496.88.313.18.695.18 1.008 0 .312-.184.5-.52.496-.88V13.188c1.7.376 3.188 1.086 4.469 2-.274.043-.535.079-.813.126a1.003 1.003 0 0 0-.812.874c-.227 1.961.57 3.688 1.656 4.875 1.086 1.188 2.422 1.993 3.844 1.782.074-.012.148-.035.218-.063.317-.125.645-.277.97-.406.292 1.023.456 2.047.468 3v.219c-.027.539-.293 1.101-.938 1.718-.68.653-1.757 1.29-3.124 1.844C33.206 30.266 29.308 31 25 31c-4.309 0-8.207-.734-10.938-1.844-1.367-.554-2.445-1.191-3.124-1.843-.657-.63-.918-1.204-.938-1.75v-.157c.008-.96.172-1.996.469-3.031.324.129.652.281.969.406.07.028.144.051.218.063 1.422.21 2.758-.594 3.844-1.782 1.086-1.187 1.883-2.914 1.656-4.875a1.003 1.003 0 0 0-.812-.875c-.278-.046-.54-.082-.813-.124a12.172 12.172 0 0 1 4.469-2v12.624c-.004.36.184.696.496.88.313.18.695.18 1.008 0 .312-.184.5-.52.496-.88V12.156a1.048 1.048 0 0 0 0-.312v-.375c.031-.02.012-.004.063-.031C22.395 11.265 23.258 11 25 11zM10 29.031a11.945 11.945 0 0 0 3.313 2C16.37 32.273 20.473 33 25 33c4.527 0 8.629-.727 11.688-1.969a11.945 11.945 0 0 0 3.312-2V34.5c0 .566-.258 1.16-.938 1.813-.68.652-1.757 1.289-3.124 1.843C33.206 39.266 29.308 40 25 40c-4.309 0-8.207-.734-10.938-1.844-1.367-.554-2.445-1.191-3.124-1.843-.68-.653-.938-1.247-.938-1.813zm2.063 2.782c-.622 0-1.126.808-1.126 1.78 0 .973.504 1.75 1.126 1.75.62 0 1.124-.777 1.124-1.75 0-.972-.503-1.78-1.124-1.78zm25.874 0c-.62 0-1.124.808-1.124 1.78 0 .973.503 1.75 1.124 1.75.622 0 1.126-.777 1.126-1.75 0-.972-.504-1.78-1.126-1.78zm-20.312 2.03c-.879 0-1.594.794-1.594 1.782s.719 1.813 1.594 1.813c.879 0 1.563-.825 1.563-1.813s-.688-1.781-1.563-1.781zm14.75 0c-.879 0-1.563.794-1.563 1.782s.688 1.813 1.563 1.813 1.594-.825 1.594-1.813-.719-1.781-1.594-1.781zm-7.375.47c-1.02 0-1.844.824-1.844 1.843 0 1.02.824 1.844 1.844 1.844s1.844-.824 1.844-1.844-.824-1.843-1.844-1.843z"/></svg>