<svg xmlns="http://www.w3.org/2000/svg" viewBox="0 0 26 26"><path d="M8.906-.031c-.043.008-.086.02-.125.031A1.002 1.002 0 0 0 8 1v2.75c-.488.324-.781.625-.781.625A1.01 1.01 0 0 0 7 5c0 1.418.816 2.508 1.531 3.25.188.195.2.16.375.313-.84.671-2 1.683-3.406 3.28C3.293 14.353 1 17.868 1 21.907a1 1 0 0 0 .188.563s.152.218.375.406c.222.188.546.414 1 .625.855.398 2.222.746 4.156.781.218.18.492.457 1.343.844 1.106.504 2.743.969 4.938.969s3.832-.465 4.938-.969c.851-.387 1.125-.664 1.343-.844 1.934-.035 3.301-.383 4.157-.781.453-.21.777-.438 1-.625.222-.188.375-.406.375-.406a1 1 0 0 0 .187-.563c0-4.039-2.29-7.52-4.5-10a25.787 25.787 0 0 0-3.438-3.25c.192-.172.2-.148.407-.375C18.176 7.516 19 6.418 19 5c0-.227-.078-.45-.219-.625 0 0-.293-.3-.781-.625V1a.998.998 0 0 0-.367-.797A.997.997 0 0 0 16.78 0 1.002 1.002 0 0 0 16 1v2.031C15.867 3.02 15.734 3 15.594 3A4.181 4.181 0 0 0 13 3.875 4.181 4.181 0 0 0 10.406 3c-.14 0-.273.02-.406.031V1A1 1 0 0 0 8.906-.031zM10.406 5c1.102 0 1.813.844 1.813.844a.998.998 0 0 0 1.562 0S14.492 5 15.594 5c.59 0 .992.156 1.25.313a3.38 3.38 0 0 1-.813 1.593 7.593 7.593 0 0 1-1.093.969 1.003 1.003 0 0 0 0 1.656S16.96 10.926 19 13.22c1.95 2.187 3.77 5.148 3.938 8.25-.102.07-.18.129-.375.218-.489.227-1.317.5-2.625.594-.274-3.676-2.063-6.781-2.063-6.781a1 1 0 0 0-1.125-.5 1.013 1.013 0 0 0-.7.59c-.12.297-.093.637.075.91 0 0 1.715 3.102 1.844 6.313a5.544 5.544 0 0 1-.844.468c-.867.395-2.223.813-4.125.813-1.902 0-3.258-.418-4.125-.813a5.542 5.542 0 0 1-.844-.468c.133-3.118 1.844-6.313 1.844-6.313.207-.34.195-.773-.035-1.102A1.011 1.011 0 0 0 8.813 15a.993.993 0 0 0-.688.5s-1.785 3.172-2.063 6.781c-1.308-.093-2.136-.367-2.625-.593-.195-.09-.273-.149-.374-.22.167-3.1 1.988-6.066 3.937-8.28 2.043-2.32 4.063-3.782 4.063-3.782a1.01 1.01 0 0 0 .425-.836 1.007 1.007 0 0 0-.457-.82s-.527-.348-1.062-.906a3.211 3.211 0 0 1-.813-1.532c.258-.156.66-.312 1.25-.312z"/></svg>