<svg xmlns="http://www.w3.org/2000/svg" viewBox="0 0 16 16"><path d="M8 2a.5.5 0 0 0-.46.305l-4.325 10.21c-1.559-.304-2.55-.64-2.55-.64a.498.498 0 0 0-.328.941c-.001 0 1.124.383 2.87.715a.49.49 0 0 0 .414.078A26.17 26.17 0 0 0 8.047 14a25.56 25.56 0 0 0 4.332-.379c.144.04.3.008.422-.082 1.754-.332 2.867-.723 2.867-.723a.5.5 0 1 0-.336-.941s-.98.344-2.539.652l-3.754-8.98 1.629-.578a.493.493 0 0 0 .32-.555A.495.495 0 0 0 10.5 2zm.031 1.719l2.957 7.082A23.38 23.38 0 0 1 8.047 11c-1.094 0-2.094-.09-3.016-.203zm-3.406 8.035c.727.101 1.531.168 2.375.203v1.012a25.886 25.886 0 0 1-2.773-.278zm6.766.012l.39.937c-.828.125-1.761.223-2.781.266v-1.004a26.26 26.26 0 0 0 2.39-.2z"/></svg>