<svg xmlns="http://www.w3.org/2000/svg" viewBox="0 0 50 50"><path d="M38.602 32.5C35.699 22.2 31.5 13 31.5 13s-.102-.2-.2-.398c-.1-.301-.1-.903.098-1.204.102-.097.204-.398.602-.398 1.898 0 2 3.2 2 4.102 0 1.097.898 1.898 2 1.898.8 0 1.5-.398 1.8-.898 1.5-2.602 1.5-6.5.302-8.204C37.102 6 34.898 4 30 4c-9.898 0-15.7 14.8-18.898 28.602C6.3 33.898 3 35.898 3 38.5 3 43.398 14.3 46 25 46s22-2.602 22-7.5c0-2.7-3.5-4.7-8.398-6zM25 41c-10.2 0-15.102-2.398-15.102-2.398s.602-3.403.801-4c.403.199 3 1 3.602 1.199C16.8 36.5 20.3 37 25 37c4.8 0 8.398-.602 11-1.2.5-.1 2.7-.8 3.2-1 .198.7.902 3.802.902 3.802S35.3 41 25 41z"/></svg>