<svg xmlns="http://www.w3.org/2000/svg" viewBox="0 0 50 50"><path d="M30 4.102c-12.398 0-18.898 25.3-20.7 33.3C12.103 39 16.3 40 25 40s12.7-.898 15.598-2.5c-3.7-11.5-9-24.3-9-24.402V13l-.196-.402c-.101-.297-.101-.899.098-1.196.102-.101.2-.304.598-.304 1.902 0 2 3.101 2 4.101 0 1.102.902 1.899 2 1.899.8 0 1.402-.5 1.703-1 1.5-2.598 1.699-5.797.297-8.2-1-1.699-3.2-3.796-8.098-3.796zM22 19l.598 1.3 1.5.2-1.098 1 .2 1.402-1.2-.601-1.3.699.202-1.402-1.101-1 1.5-.297zm6.7 5c.698 0 1.398.2 2 .5-2 .2-3.602 1.898-3.602 4 0 2.102 1.601 3.8 3.601 4-.601.3-1.3.5-2 .5-2.5 0-4.5-2-4.5-4.5s2.102-4.5 4.5-4.5zM19 28l.598 1.3 1.5.2-1.098 1 .2 1.402-1.2-.601-1.3.699.202-1.402-1.101-1 1.5-.196zM7.898 38.902c-.097.098-.296.297-.398.5-.5.598-.602 1.399-.5 2.196.2.8.602 1.504 1.3 1.902.9.602 4.7 2.5 16.7 2.5s15.8-1.898 16.7-2.5c.698-.398 1.1-1.102 1.3-1.902.2-.797 0-1.598-.402-2.297-.2-.2-.297-.301-.5-.399C39 40.902 34.699 42 25 42c-9.5 0-14-1.2-17.102-3.098z"/></svg>