<svg xmlns="http://www.w3.org/2000/svg" viewBox="0 0 64 64"><path d="M55.828 2a8.945 8.945 0 0 0-6.363 2.637l-12.82 12.816-29.63-6.582a2.974 2.974 0 0 0-2.773.805l-1.86 1.86a1.987 1.987 0 0 0-.573 1.652c.074.613.418 1.148.945 1.468L24.402 29.86l-8.351 10.114-8.996-2.2a3.028 3.028 0 0 0-2.836.79L3.125 39.66a1.982 1.982 0 0 0-.563 1.692 1.976 1.976 0 0 0 1.008 1.472l11.32 6.285 6.286 11.32c.308.555.844.923 1.472 1.008a2.002 2.002 0 0 0 1.692-.562l1.098-1.098a3.023 3.023 0 0 0 .789-2.836l-2.2-8.992 10.114-8.355 13.203 21.652c.32.524.855.871 1.468.941a1.999 1.999 0 0 0 1.652-.566l1.86-1.86a2.987 2.987 0 0 0 .805-2.773l-6.582-29.633 12.816-12.82A8.938 8.938 0 0 0 62 8.172V5c0-1.652-1.348-3-3-3zm0 2H59c.55 0 1 .45 1 1v3.172a6.96 6.96 0 0 1-2.05 4.95L44.745 26.327c-.242.238-.344.59-.273.922l6.707 30.172a.994.994 0 0 1-.27.922l-1.86 1.86-13.394-21.962 2.98-2.976a1.004 1.004 0 0 0 0-1.418 1 1 0 0 0-1.413 0l-3.504 3.504-11.45 9.457a.99.99 0 0 0-.331 1.007l2.347 9.606a1 1 0 0 1-.265.941l-1.094 1.098-6.063-10.91 4.844-4.844a1 1 0 0 0-1.41-1.414l-4.844 4.844L4.54 41.074l1.098-1.094a.987.987 0 0 1 .941-.261l9.61 2.343a.986.986 0 0 0 1.003-.332l9.461-11.449 2.938-2.937c.39-.395.39-1.024 0-1.418a1 1 0 0 0-1.414 0l-2.418 2.418L3.797 14.949l1.86-1.86a.994.994 0 0 1 .921-.269l30.172 6.707a.994.994 0 0 0 .922-.27L50.879 6.052A6.962 6.962 0 0 1 55.829 4zM41.363 20.223a1 1 0 0 0-.707 1.707l1.414 1.414c.196.195.45.293.707.293a1 1 0 0 0 .707-1.707l-1.414-1.414a1 1 0 0 0-.707-.293zm-3.535 3.53a1.004 1.004 0 0 0-.707 1.712l1.414 1.414c.195.195.45.293.707.293a1 1 0 0 0 .707-1.707l-1.414-1.414a1.004 1.004 0 0 0-.707-.297zm-3.535 3.54A1 1 0 0 0 33.586 29L35 30.414c.195.195.45.293.707.293A1 1 0 0 0 36.414 29L35 27.586a.993.993 0 0 0-.707-.293zm-3.535 3.535a1 1 0 0 0-.707 1.707l1.414 1.414c.195.196.45.293.707.293a1 1 0 0 0 .707-1.707l-1.414-1.414a1 1 0 0 0-.707-.293zM25.5 37.5a1 1 0 0 0-.707.293l-1.5 1.5a1 1 0 1 0 1.414 1.414l1.5-1.5A1 1 0 0 0 25.5 37.5z"/></svg>