<svg xmlns="http://www.w3.org/2000/svg" viewBox="0 0 40 40"><path d="M20.5 7v6.535" fill="none" stroke-linejoin="round" stroke="#4788c7" stroke-miterlimit="10"/><path d="M6.5 19.5V13c0-1.379 1.121-2.5 2.5-2.5h8.672a3.01 3.01 0 0 0 2.828 2 3.01 3.01 0 0 0 2.828-2H32c1.379 0 2.5 1.121 2.5 2.5v6.5z" fill="#dff0fe"/><path d="M32 11c1.102 0 2 .898 2 2v6H7v-6c0-1.102.898-2 2-2h8.34a3.507 3.507 0 0 0 3.16 2 3.507 3.507 0 0 0 3.16-2H32m0-1h-9.05a2.498 2.498 0 0 1-4.9 0H9a3 3 0 0 0-3 3v7h29v-7a3 3 0 0 0-3-3z" fill="#4788c7"/><path d="M23.5 7.5h-6" fill="none" stroke-linecap="round" stroke-linejoin="round" stroke="#4788c7" stroke-miterlimit="10"/><path d="M6.5 25.5c-2.207 0-4-1.793-4-4s1.793-4 4-4h28c2.207 0 4 1.793 4 4s-1.793 4-4 4z" fill="#98ccfd"/><path d="M34.5 18c1.93 0 3.5 1.57 3.5 3.5S36.43 25 34.5 25h-28C4.57 25 3 23.43 3 21.5S4.57 18 6.5 18h28m0-1h-28a4.501 4.501 0 0 0 0 9h28a4.501 4.501 0 0 0 0-9z" fill="#4788c7"/><path d="M1 34h38v-9.121c-1.309-.266-2.852-.879-4-.879-1.457 0-3.563 1-5 1-1.438 0-3.543-1-5-1-1.457 0-3.563 1-5 1-1.438 0-3.543-1-5-1-1.457 0-3.563 1-5 1-1.438 0-3.543-1-5-1-1.148 0-2.691.613-4 .879z" fill="#b6dcfe"/><path d="M1.5 25.277c.363-.086.738-.191 1.113-.297.848-.234 1.723-.48 2.387-.48.664 0 1.535.246 2.383.484.898.254 1.832.516 2.617.516.785 0 1.719-.262 2.617-.516.848-.238 1.719-.484 2.383-.484.664 0 1.535.246 2.383.484.898.254 1.832.516 2.617.516.785 0 1.719-.262 2.617-.516.848-.238 1.719-.484 2.383-.484.664 0 1.535.246 2.383.484.898.254 1.832.516 2.617.516.785 0 1.719-.262 2.617-.516.848-.238 1.719-.484 2.383-.484.664 0 1.54.246 2.387.48.375.106.75.211 1.113.297" fill="none" stroke-linecap="round" stroke="#4788c7" stroke-miterlimit="10"/></svg>