<svg xmlns="http://www.w3.org/2000/svg" viewBox="0 0 32 32"><path d="M13 8v2h2v1h2v-1h2V8zm-4 3c-1.094 0-2 .906-2 2v2c-2.2 0-4 1.8-4 4 0 1.184.547 2.234 1.375 2.969A2.913 2.913 0 0 1 4 22c-.633 0-1.203-.188-1.563-.438C2.079 21.313 2 21.044 2 21H0c0 .941.59 1.684 1.313 2.188C2.034 23.69 2.96 24 4 24c1.035 0 1.96-.309 2.688-.813.09-.062.171-.12.25-.187H7v-.063c.102.086.203.176.313.25C8.034 23.692 8.96 24 10 24c1.035 0 1.96-.309 2.688-.813.113-.078.207-.16.312-.25.102.086.203.176.313.25.722.504 1.648.813 2.687.813 1.035 0 1.96-.309 2.688-.813.113-.078.207-.16.312-.25.102.086.203.176.313.25.722.504 1.648.813 2.687.813 1.035 0 1.96-.309 2.688-.813.113-.078.207-.16.312-.25V23h.063c.078.066.164.129.25.188.722.503 1.648.812 2.687.812 1.035 0 1.96-.309 2.688-.813C31.413 22.684 32 21.942 32 21h-2c0 .059-.082.316-.438.563-.355.246-.925.437-1.562.437-.117 0-.234-.02-.344-.031C28.47 21.234 29 20.172 29 19c0-2.2-1.8-4-4-4v-2c0-1.094-.906-2-2-2h-5.219l-.312.344A1.933 1.933 0 0 1 16 12c-.59 0-1.098-.242-1.469-.656L14.22 11zm0 2h4.5c.688.574 1.531 1 2.5 1 .969 0 1.813-.426 2.5-1H23v2H9zm-2 4h18c1.117 0 2 .883 2 2 0 .645-.285 1.195-.75 1.563A2.026 2.026 0 0 1 25 21h-1c0 .059-.082.316-.438.563-.355.246-.925.437-1.562.437-.633 0-1.203-.188-1.563-.438-.359-.25-.437-.519-.437-.562h-2c0 .059-.082.316-.438.563-.355.246-.925.437-1.562.437-.633 0-1.203-.188-1.563-.438-.359-.25-.437-.519-.437-.562h-2c0 .059-.082.316-.438.563-.355.246-.925.437-1.562.437-.633 0-1.203-.188-1.563-.438C8.079 21.313 8 21.044 8 21H7c-1.117 0-2-.883-2-2s.883-2 2-2z"/></svg>