<svg xmlns="http://www.w3.org/2000/svg" viewBox="0 0 40 40"><path d="M12.5 11.5h15v16h-15z" fill="#dff0fe"/><path d="M27 12v15H13V12h14m1-1H12v17h16z" fill="#4788c7"/><path d="M7.5 38.5V23.367L20 19.523l12.5 3.844V38.5z" fill="#dff0fe"/><path d="M20 20.047l12 3.691V38H8V23.738l12-3.691M20 19L7 23v16h26V23z" fill="#4788c7"/><path d="M29.5 25L20 22.148 10.5 25z" fill="#b6dcfe"/><path d="M13.5 38.5V34c0-3.586 2.914-6.5 6.5-6.5s6.5 2.914 6.5 6.5v4.5z" fill="#98ccfd"/><path d="M20 28c3.309 0 6 2.691 6 6v4H14v-4c0-3.309 2.691-6 6-6m0-1c-3.867 0-7 3.133-7 7v5h14v-5c0-3.867-3.133-7-7-7z" fill="#4788c7"/><path d="M23 17h-6v-1a3 3 0 0 1 6 0zm-10.5-5.5V9.89c0-2.878 5.184-6.812 7.5-8.296 2.316 1.488 7.5 5.418 7.5 8.297V11.5z" fill="#98ccfd"/><path d="M20 2.188c2.906 1.906 7 5.394 7 7.703V11H13V9.89c0-2.308 4.094-5.796 7-7.703M20 1s-8 4.96-8 8.89V12h16V9.89C28 5.96 20 1 20 1z" fill="#4788c7"/><path d="M23 11h-6c0-6.14 3-8.805 3-8.805S23 4.816 23 11z" fill="#b6dcfe"/><path d="M32.5 15.5h6v23h-6z" fill="#dff0fe"/><path d="M38 16v22h-5V16h5m1-1h-7v24h7z" fill="#4788c7"/><path d="M32.5 15.5V15c0-2.305 2.25-3.938 3-4.414.75.476 3 2.105 3 4.414v.5z" fill="#98ccfd"/><path d="M35.5 11.184c.844.59 2.5 1.98 2.5 3.816h-5c0-1.836 1.656-3.227 2.5-3.816m0-1.184S32 11.906 32 15v1h7v-1c0-3.094-3.5-5-3.5-5z" fill="#4788c7"/><path d="M34 21h2v-3c0-.55-.45-1-1-1s-1 .45-1 1z" fill="#98ccfd"/><path d="M1.5 15.5h6v23h-6z" fill="#dff0fe"/><path d="M7 16v22H2V16h5m1-1H1v24h7z" fill="#4788c7"/><path d="M1.5 15.5V15c0-2.305 2.25-3.938 3-4.414.75.476 3 2.105 3 4.414v.5z" fill="#98ccfd"/><path d="M4.5 11.184c.844.59 2.5 1.98 2.5 3.816H2c0-1.836 1.656-3.227 2.5-3.816M4.5 10S1 11.906 1 15v1h7v-1c0-3.094-3.5-5-3.5-5z" fill="#4788c7"/><path d="M6 21H4v-3c0-.55.45-1 1-1s1 .45 1 1zm21-7.816A2.99 2.99 0 0 0 25 16v1h2zm-14 0V17h2v-1a2.99 2.99 0 0 0-2-2.816zM2 17v4h1v-3c0-.55-.45-1-1-1zm36 0c-.55 0-1 .45-1 1v3h1z" fill="#98ccfd"/></svg>