<svg xmlns="http://www.w3.org/2000/svg" viewBox="0 0 50 50"><path d="M24.906 9.969c-.043.008-.086.02-.125.031h-4.875c-.55.027-.98.496-.953 1.047.027.55.496.98 1.047.953h4v5c-.004.36.184.695.496.879.313.18.695.18 1.008 0 .312-.184.5-.52.496-.879v-5h4c.36.004.695-.184.879-.496a1.01 1.01 0 0 0 0-1.008c-.184-.312-.52-.5-.879-.496h-4.813a.972.972 0 0 0-.28-.031zM12 15c-2.75 0-5 2.25-5 5v2.031c-2.793.254-5 2.61-5 5.469a5.45 5.45 0 0 0 2.188 4.375c-.497.09-.958.125-1.344.125-.621 0-1.14-.063-1.656-.156a1.002 1.002 0 0 0-.375 1.968 11.43 11.43 0 0 0 2.03.188c1.563 0 3.72-.54 5.532-1.875C10.191 33.477 12.371 34 13.938 34c1.562 0 3.687-.54 5.5-1.875C21.253 33.473 23.433 34 25 34c1.566 0 3.746-.523 5.563-1.875C32.374 33.461 34.5 34 36.063 34c1.566 0 3.746-.523 5.562-1.875C43.438 33.461 45.594 34 47.156 34c.883 0 1.617-.16 2.219-.406.52-.207.77-.793.563-1.313a1.008 1.008 0 0 0-1.313-.562c-.383.156-.84.281-1.469.281-.386 0-.847-.035-1.343-.125A5.453 5.453 0 0 0 48 27.5c0-2.86-2.207-5.215-5-5.469V20c0-2.75-2.25-5-5-5h-9c-.55 0-1 .45-1 1 0 1.668-1.332 3-3 3s-3-1.332-3-3c0-.55-.45-1-1-1zm0 2h8.219c.48 2.258 2.386 4 4.781 4 2.395 0 4.3-1.742 4.781-4H38c1.668 0 3 1.332 3 3v2H9v-2c0-1.668 1.332-3 3-3zm-4.5 7h35c1.945 0 3.5 1.555 3.5 3.5 0 1.71-1.2 3.094-2.813 3.406a5.417 5.417 0 0 1-.906-.656.996.996 0 0 0-1.343 0C39.574 31.508 37.386 32 36.062 32c-1.324 0-3.48-.492-4.843-1.75a.996.996 0 0 0-1.344 0C28.512 31.508 26.325 32 25 32c-1.324 0-3.512-.492-4.875-1.75a.996.996 0 0 0-1.344 0c-1.363 1.258-3.52 1.75-4.843 1.75-1.325 0-3.512-.492-4.876-1.75A.996.996 0 0 0 8.22 30c-.188.035-.36.121-.5.25a5.39 5.39 0 0 1-.907.656A3.447 3.447 0 0 1 4 27.5C4 25.555 5.555 24 7.5 24zm.719 12c-.188.035-.36.121-.5.25C6.355 37.508 4.168 38 2.844 38c-.621 0-1.14-.063-1.656-.156a1.002 1.002 0 0 0-.375 1.968 11.43 11.43 0 0 0 2.03.188c1.563 0 3.72-.54 5.532-1.875C10.191 39.477 12.371 40 13.938 40c1.562 0 3.687-.54 5.5-1.875C21.253 39.473 23.433 40 25 40c1.566 0 3.746-.523 5.563-1.875C32.374 39.461 34.5 40 36.063 40c1.566 0 3.746-.523 5.562-1.875C43.438 39.461 45.594 40 47.156 40c.883 0 1.617-.16 2.219-.406.52-.207.77-.793.563-1.313a1.008 1.008 0 0 0-1.313-.562c-.383.156-.84.281-1.469.281-1.324 0-3.511-.492-4.875-1.75a.996.996 0 0 0-1.343 0C39.574 37.508 37.386 38 36.062 38c-1.324 0-3.48-.492-4.843-1.75a.996.996 0 0 0-1.344 0C28.512 37.508 26.325 38 25 38c-1.324 0-3.512-.492-4.875-1.75a.996.996 0 0 0-1.344 0c-1.363 1.258-3.52 1.75-4.843 1.75-1.325 0-3.512-.492-4.876-1.75A.996.996 0 0 0 8.22 36z"/></svg>