<svg xmlns="http://www.w3.org/2000/svg" viewBox="0 0 64 64"><path d="M53.07 26.21l-4.148 19A14.59 14.59 0 0 1 48 48a14.843 14.843 0 0 1-4.762 6c-.472.363-.965.695-1.476 1H21.52c-.508-.3-.997-.633-1.461-1a14.79 14.79 0 0 1-4.75-6c-.34-.758-.614-1.55-.809-2.36L9.648 26.239a1 1 0 0 1 1-1.238H52.09c.3 0 .59.137.781.371.188.234.262.543.2.84z" fill="#ed7899"/><path d="M46.11 51.2c-.82 1.058-1.786 2-2.86 2.8H20.059a14.938 14.938 0 0 1-2.86-2.8 2.006 2.006 0 0 1-.187-2.098A2.003 2.003 0 0 1 18.809 48h25.703c.754 0 1.449.43 1.789 1.105a2 2 0 0 1-.192 2.094z" fill="#e0678f"/><path d="M10 25h43c0 2.21-1.79 4-4 4H14c-2.21 0-4-1.79-4-4z" fill="#f98cb3"/><path d="M52.191 59h-42c-1.89 0-3.668-.89-4.8-2.398L4.19 55h54L57 56.602A6.003 6.003 0 0 1 52.191 59z" fill="#85cbf8"/><path d="M49.129 47.852C52.512 47.23 58 46 59.94 44a7 7 0 0 0 1.047-8.688 6.997 6.997 0 0 0-8.25-2.921l1.313-6a2.002 2.002 0 0 0-2-2.43H10.62a1.998 1.998 0 0 0-1.941 2.488l4.851 19.403a16.053 16.053 0 0 0 5 8.117H4.191a.998.998 0 0 0-.894.554.996.996 0 0 0 .094 1.047l1.199 1.602a7 7 0 0 0 5.601 2.797h42a6.993 6.993 0 0 0 5.598-2.797L59 55.602a.996.996 0 0 0 .094-1.047.998.998 0 0 0-.895-.555H44.83a15.996 15.996 0 0 0 4.3-6.148zM58.53 35.5a4.998 4.998 0 0 1 0 7.11c-1.222 1.218-5.07 2.34-8.71 3.07 0-.09.05-.168.07-.258l2.308-10.55a5.002 5.002 0 0 1 6.332.628zM52.191 58h-42a4.999 4.999 0 0 1-4-2h50a5.004 5.004 0 0 1-4 2zm-30.34-4a14.075 14.075 0 0 1-6.39-8.602L10.62 26h41.47l-4.15 19a14.015 14.015 0 0 1-6.48 9z" fill="#8d6c9f"/><path d="M48 30c.55 0 1-.45 1-1s-.45-1-1-1H23c-.55 0-1 .45-1 1s.45 1 1 1zm-29-2h-4c-.55 0-1 .45-1 1s.45 1 1 1h4c.55 0 1-.45 1-1s-.45-1-1-1zM34.71 4.59c.196.297.22.68.06 1l-1 1.93a3 3 0 0 0 .18 3l.628 1a.99.99 0 0 1 0 1.109l-.527.793a2.996 2.996 0 0 0 0 3.308l.527.81a.99.99 0 0 1 0 1.108l-1.25 1.832a1.001 1.001 0 0 0 .766 1.629.998.998 0 0 0 .906-.55l1.25-1.829a3.004 3.004 0 0 0 0-3.34l-.531-.812a1 1 0 0 1 0-1.098l.531-.789a3.001 3.001 0 0 0 0-3.32l-.629-1a.997.997 0 0 1-.062-1l1-1.93a3 3 0 0 0-.188-3L35 1.45a.999.999 0 0 0-1.766.086.998.998 0 0 0 .106 1.024zm-6.089 6.879c.223.336.223.773 0 1.11l-.531.792a2.996 2.996 0 0 0 0 3.309l.531.808c.223.336.223.778 0 1.114l-1.25 1.828a.994.994 0 0 0-.18 1.058.999.999 0 0 0 1.809.07l1.25-1.828a3.004 3.004 0 0 0 0-3.34l-.531-.812a1 1 0 0 1 0-1.098l.531-.789a3.001 3.001 0 0 0 0-3.32L29 8.45a1 1 0 0 0-1.672 1.102zm-6 6.019c.223.336.223.778 0 1.114l-1.25 1.828a.994.994 0 0 0-.18 1.058.999.999 0 0 0 1.809.07l1.25-1.828a3.004 3.004 0 0 0 0-3.34L23 14.48a1.01 1.01 0 0 0-.898-.464c-.36.02-.684.234-.844.558a.995.995 0 0 0 .07 1.004zM40.191 22a1 1 0 0 0 .829-.441l1.25-1.829a3.004 3.004 0 0 0 0-3.34l-.532-.812a1.005 1.005 0 0 1 0-1.11L43 12.59a1 1 0 0 0-1.66-1.11l-1.262 1.899a3.018 3.018 0 0 0 0 3.312l.531.809a.99.99 0 0 1 0 1.11l-1.25 1.831A1.001 1.001 0 0 0 40.191 22zM19 46c-.55 0-1 .45-1 1v2c0 .55.45 1 1 1s1-.45 1-1v-2c0-.55-.45-1-1-1zm5 0c-.55 0-1 .45-1 1v2c0 .55.45 1 1 1s1-.45 1-1v-2c0-.55-.45-1-1-1zm5 0c-.55 0-1 .45-1 1v2c0 .55.45 1 1 1s1-.45 1-1v-2c0-.55-.45-1-1-1zm5 0c-.55 0-1 .45-1 1v2c0 .55.45 1 1 1s1-.45 1-1v-2c0-.55-.45-1-1-1zm5 0c-.55 0-1 .45-1 1v2c0 .55.45 1 1 1s1-.45 1-1v-2c0-.55-.45-1-1-1zm6 3v-2c0-.55-.45-1-1-1s-1 .45-1 1v2c0 .55.45 1 1 1s1-.45 1-1z" fill="#8d6c9f"/></svg>