<svg xmlns="http://www.w3.org/2000/svg" viewBox="0 0 26 26"><path d="M12 .094c1.094 3.465-3.797 2.586-1 5.843-.781-3.324 3.828-2.437 1-5.843zM8 .78c1.094 3.063-3.797 2.274-1 5.157-.781-2.942 3.828-2.145 1-5.157zm8 0c1.094 3.063-3.797 2.274-1 5.157-.781-2.942 3.828-2.145 1-5.157zM4 7c-.55 0-1 .45-1 1v17c0 .55.45 1 1 1h14c.55 0 1-.45 1-1v-2.875c.004-.05.004-.105 0-.156 0-.485.172-.805.625-1.25.453-.446 1.168-.903 1.938-1.438.769-.535 1.609-1.156 2.28-2A5.205 5.205 0 0 0 25 14c0-.691-.172-1.617-.781-2.469C23.609 10.68 22.489 10 21 10a6.27 6.27 0 0 0-2 .313V8c0-.55-.45-1-1-1zm17 5c.938 0 1.309.32 1.594.719.285.398.406.972.406 1.281 0 .883-.266 1.465-.719 2.031-.453.567-1.113 1.086-1.843 1.594-.477.328-.965.664-1.438 1.031V12.5a4.3 4.3 0 0 1 2-.5z"/></svg>