<svg xmlns="http://www.w3.org/2000/svg" viewBox="0 0 50 50"><path d="M1 6v10h2v28h2V16h40v28h2V16h2V6zm7 4h2v2H8zm6 0h2v2h-2zm6 0h10v2H20zm14 0h2v2h-2zm6 0h2v2h-2zM19.488 21a4.98 4.98 0 0 0-4.636 3.129l-1.649 4.09-.723.718A5.024 5.024 0 0 0 11 32.489V42c0 1.102.898 2 2 2h1c1.102 0 2-.898 2-2v-.5c2.527.332 5.547.5 9 .5 3.453 0 6.473-.168 9-.5v.5c0 1.102.898 2 2 2h1c1.102 0 2-.898 2-2v-9.512c0-1.324-.54-2.62-1.48-3.55l-.723-.72-1.649-4.09A4.983 4.983 0 0 0 30.512 21zM16.5 33a1.5 1.5 0 1 1 0 3 1.5 1.5 0 0 1 0-3zm17 0a1.5 1.5 0 1 1 0 3 1.5 1.5 0 0 1 0-3zM21 34h8v2h-8z"/></svg>