<svg xmlns="http://www.w3.org/2000/svg" viewBox="0 0 50 50"><path d="M25 .031a.975.975 0 0 0-.844.469L18.438 10h13.125L25.843.5A.975.975 0 0 0 25 .031zM18 12v9.031l5-2.5V17c0-1.102.898-2 2-2 1.102 0 2 .898 2 2v1.531l5 2.5V12zm7 7.906a.95.95 0 0 0-.438.094l-15 7.5c-.34.172-.562.527-.562.906V49a1 1 0 0 0 1 1h9a1 1 0 0 0 1-1V39c0-2.758 2.242-5 5-5s5 2.242 5 5v10c0 .555.445 1 1 1h9c.555 0 1-.445 1-1V28.406c0-.379-.223-.734-.563-.906l-15-7.5a.95.95 0 0 0-.437-.094zM13 37h3v5h-3zm21 0h3v5h-3z"/></svg>