<svg xmlns="http://www.w3.org/2000/svg" viewBox="0 0 50 50"><path d="M24.875 0a.997.997 0 0 0-.75.5l-10 18A.971.971 0 0 0 14 19v11.469L3.312 38.094a1 1 0 1 0 1.157 1.625L7 37.906V49c0 .55.45 1 1 1h12c.55 0 1-.45 1-1v-7c0-2.277 1.723-4 4-4s4 1.723 4 4v7c0 .55.45 1 1 1h12c.55 0 1-.45 1-1V37.906l2.531 1.813c.29.242.688.3 1.032.152a1 1 0 1 0 .125-1.777L36 30.469V19a.971.971 0 0 0-.125-.5l-10-18c-.2-.355-.598-.55-1-.5zM25 3.063l9 16.218V31a.998.998 0 0 0 .406.813L41 36.5V48H31v-6c0-3.324-2.676-6-6-6s-6 2.676-6 6v6H9V36.5l6.594-4.688A.998.998 0 0 0 16 31V19.281zM25 19c-2.75 0-5 2.25-5 5s2.25 5 5 5 5-2.25 5-5-2.25-5-5-5zm0 2c1.668 0 3 1.332 3 3s-1.332 3-3 3-3-1.332-3-3 1.332-3 3-3z"/></svg>