<svg xmlns="http://www.w3.org/2000/svg" viewBox="0 0 24 24"><path d="M19 0a5.066 5.066 0 0 0-2.875.906 4.018 4.018 0 0 0-2.313-.719c-1.492 0-2.64.907-3.343 2.063C10.012 2.145 9.609 2 9 2 5.676 2 3 4.676 3 8c0 .578.145 1.125.313 1.656A4.963 4.963 0 0 0 2 13c0 1.55.828 2.855 2 3.781-.004.07 0 .168 0 .219 0 .277.04.55.094.813l-4 5.5c-.301.398.195.894.594.593l5-3.656C6.34 20.71 7.14 21 8 21c.887 0 1.66-.387 2.344-.906.77.52 1.64.906 2.656.906 2.059 0 3.762-1.305 4.531-3.094.172.024.278.094.469.094 2.21 0 4-1.79 4-4 0-.512-.172-.867-.313-1.25C22.419 12.05 23 11.152 23 10c0-.57-.305-1.059-.531-1.563C23.379 7.532 24 6.337 24 5c0-2.746-2.254-5-5-5zm0 2a3 3 0 0 1 3 3c0 .992-.473 1.875-1.188 2.375a.99.99 0 0 0-.402.68c-.035.27.043.543.215.758.258.32.375.68.375 1.187 0 .738-.402 1.324-.938 1.656a.997.997 0 0 0-.406 1.219c.2.5.344.89.344 1.125 0 1.191-.809 2-2 2-.234 0-.543-.078-.781-.156a1.011 1.011 0 0 0-.809.09 1.012 1.012 0 0 0-.473.66C15.637 17.949 14.41 19 13 19c-.86 0-1.469-.281-2-.813-.2-.195-.469-.3-.75-.289a.99.99 0 0 0-.719.352c-.437.508-.926.75-1.531.75-1.191 0-2-.809-2-2v-.031a1 1 0 0 0-.438-1.344C4.566 15.09 4 14.145 4 13a3 3 0 0 1 3-3V8c-.688 0-1.34.152-1.938.406C5.048 8.27 5 8.13 5 8c0-2.277 1.723-4 4-4 .824 0 1.277.105 1.438.188a1 1 0 0 0 .832.039.994.994 0 0 0 .574-.602c.273-.82.996-1.438 1.969-1.438 1.19 0 2 .81 2 2h2a3.97 3.97 0 0 0-.407-1.718C17.88 2.195 18.461 2 19 2zm-4 6c0 .555-.445 1-1 1-.383 0-.785-.32-.906-.563l-1.781.907A2.991 2.991 0 0 0 14 11c1.645 0 3-1.355 3-3z"/></svg>