<svg xmlns="http://www.w3.org/2000/svg" viewBox="0 0 50 50"><path d="M41.313 0a8.701 8.701 0 0 0-5.563 2C34.559.96 33.016.312 31.312.312c-2.69 0-5.05 1.555-6.125 3.876a13.02 13.02 0 0 0-3.093-.375c-5.84 0-10.594 4.753-10.594 10.593 0 1.254.273 2.469.719 3.625-1.469.832-2.625 2.211-2.625 4.063 0 1.265.594 2.355 1.406 3.218-.84 1.329-1.406 2.852-1.406 4.5 0 1.946.644 3.758 1.75 5.22l-10.25 12.78c-.5.7.3 1.5 1 1l13.531-10.75a8.61 8.61 0 0 0 2.688.438A8.7 8.7 0 0 0 24 36.406a8.704 8.704 0 0 0 5.688 2.094c3.875 0 7.132-2.531 8.28-5.969a6.81 6.81 0 0 0 1.438.157 6.785 6.785 0 0 0 6.782-6.782c0-.91-.36-1.734-.72-2.531 1.532-1.227 2.626-3.027 2.626-5.188 0-1.269-.426-2.378-1-3.375C48.82 13.235 50 11.087 50 8.595 50 3.855 46.14 0 41.312 0zm0 2C45.086 2 48 4.934 48 8.594c0 2.18-1.027 4.09-2.688 5.312a1 1 0 0 0-.218 1.375c.613.875 1 1.864 1 2.906 0 1.75-.903 3.239-2.219 4.063a.999.999 0 0 0-.313 1.375c.399.637.626 1.48.626 2.281a4.756 4.756 0 0 1-4.782 4.782 4.47 4.47 0 0 1-1.031-.125 7.97 7.97 0 0 0 .031-.75c0-2.145-.773-4.168-2.031-5.657a.999.999 0 0 0-.906-.375 1.01 1.01 0 0 0-.813.64.995.995 0 0 0 .188 1.017c.941 1.113 1.562 2.718 1.562 4.375 0 .457-.035.91-.125 1.343v.032c-.629 3.015-3.316 5.312-6.593 5.312a6.706 6.706 0 0 1-4.532-1.75.99.99 0 0 0-.367-.691 1.006 1.006 0 0 0-.758-.215 1 1 0 0 0-1.187.937c-1.18 1.074-2.79 1.719-4.532 1.719a6.694 6.694 0 0 1-6.718-6.688c0-1.464.531-2.859 1.406-4a.998.998 0 0 0 .2-.765.985.985 0 0 0-.419-.672c-.75-.527-1.187-1.29-1.187-2.281 0-1.356.863-2.367 2.094-2.75a.983.983 0 0 0 .62-.567.988.988 0 0 0-.027-.84c-.52-1.039-.781-2.273-.781-3.53a8.579 8.579 0 0 1 8.594-8.595c1.273 0 2.218.208 3 .438.23.195.535.281.832.227.297-.055.554-.243.699-.508l.031-.032a.466.466 0 0 0 .032-.062l.03-.031V5.78l.032-.031v-.063a.88.88 0 0 1 .031-.093c.012-.032.024-.063.032-.094.636-1.879 2.406-3.188 4.5-3.188a4.75 4.75 0 0 1 3.468 1.5v.032a.93.93 0 0 0 .125.156c.063.082.137.156.219.219.02.023.04.043.063.062a4.77 4.77 0 0 1 .906 2.813c-.004.36.183.695.496.879.312.18.695.18 1.008 0 .312-.184.5-.52.496-.88 0-1.323-.375-2.55-1.032-3.593a6.666 6.666 0 0 1 4.25-1.5zm-9.72 13.375a1 1 0 0 0-.905 1.031 2.753 2.753 0 0 1-2.782 2.782 1.006 1.006 0 0 0-.879.496 1.01 1.01 0 0 0 0 1.007c.184.313.52.5.88.497 2.64 0 4.78-2.141 4.78-4.782a.999.999 0 0 0-1-1.031h-.093z"/></svg>