<svg xmlns="http://www.w3.org/2000/svg" viewBox="0 0 50 50"><path d="M15.875-.031a1.027 1.027 0 0 0-.594.312c-.433.434-.554.86-.625 1.375-.02.153.063.34.063.5-.66.16-1.207.38-1.531.75-.461.528-.532.856-.5.844-.008.008-.024-.008-.032 0v.031c-1.148 1.047-2.12 1.61-2.937 2.063-.828.457-1.692.777-2.094 1.781v.063c-.21.628-.156 1.105-.156 1.406v.094a2.594 2.594 0 0 0 1.218 1.937c.606.36 1.227.488 1.813.594.418.082.938-.114 1.188-.344.25-.23.332-.402.406-.531.074-.13.117-.176.125-.188.972-.226 2.265.184 3.687.25.153.656.23 1.473.188 2.281a7.527 7.527 0 0 1-.313 1.782c-.504-.008-1.008-.031-2.094-.031-.761 0-1.55.011-2.218.03-.578.016-.973.028-1.375.095-.04 0-.028.027-.063.03-.047.009-.11-.011-.156 0v.032c-.238.055-.465.148-.563.219-.136.094-.222.172-.312.25a3.29 3.29 0 0 1-.375.281.466.466 0 0 0-.063.031 23.31 23.31 0 0 1-2.656 1.344c-.375.164-.695.309-.937.406-.242.098-.297.102-.532.219-.101.047-.199.11-.28.188-.208.207-.196.253-.25.343-.055.09-.106.196-.157.282-.035.062-.066.109-.094.156a19.042 19.042 0 0 0-2.312 1.343 1.035 1.035 0 0 0 .094 1.688s.886.598 1.75.969a.512.512 0 0 0 .062.031c1.012.379 1.938.375 1.938.375.28.004.554-.11.75-.313l1.093-1.125c.008 0 .059-.023.157-.062.16-.066.464-.29.718-.563l.032.032c.042-.043.027-.082.062-.125l.031-.032h.031c.13-.171.235-.367.282-.468.027-.063.047-.063.062-.094.078-.04.18-.11.344-.188.39-.18.945-.445 1.469-.968.043-.043.058-.035.094-.063h.03c.165.032.337.07.532.094.195.023.434.043.656.063-.062.05-.172.148-.219.187a3.71 3.71 0 0 1-.25.188c-.101.05-.425.214-.78.468-.4.285-1.032.692-1.032 1.625 0 .715.242 1.485.813 2.282.46.644 1.656 2.464 2.874 4 .016.023.047.039.063.062.348.488.867.875 1.594.875.004.008.035.008.031 0-.004 0 0 .031 0 .031.09.262.281.473.531.594l1.906.875c.31.152.672.14.97-.031 0 0 .292-.2.53-.5.239-.301.489-.782.563-1.375a4.29 4.29 0 0 0-.156-1.813 1.033 1.033 0 0 0-.407-.468s-.12-.106-.28-.22c-.16-.113-.368-.273-.345-.25a1.04 1.04 0 0 0-.28-.187c-.34-.168-.352-.074-.5-.062-.098-.27-.204-.645-.688-.969-.504-.336-.754-.328-1.063-.438-.207-.074-.355-.171-.375-.156-.043-.07-.207-.328-.344-.562 1.016-.18 1.708-.297 2.22-.469.597 1.023 2.96 4.816 7.843 6.75-.21.715-.195 1.336-.031 1.906.101.36.242.79.531 1.188-.004.187.004.37.031.625.074.656.274 1.547.782 2.562.203.407.292.89.25 1.282-.043.39-.231.632-.22.624a.472.472 0 0 0-.062.063c-.363.313-1.176 1-1.906 1.656-.367.328-.7.653-.969.907-.136.128-.246.214-.343.312-.047.047-.11.105-.157.156-.047.051-.074.051-.187.282-.051.101-.102.21-.157.343-.015.04-.042.145-.062.188.004-.008.016-.004 0 .031-.016.02-.035.059-.063.094-.015.02-.015.015-.03.031-.052.035-.032.031-.032.031-.766.235-1.375.73-1.625 1.219-.117.227-.2.438-.25.625H.906A.996.996 0 0 0 0 45v4c0 .55.45 1 1 1h48c.55 0 1-.45 1-1v-4c0-.55-.45-1-1-1H34.219c.058-.02.074-.023.156-.063.094-.058.18-.132.25-.218.102-.102.234-.219.375-.407.14-.187.344-.46.344-.906 0-.273-.02-.426-.032-.625-.007-.148.016-.312 0-.312a.987.987 0 0 0 .032-.282c0 .012.215-.874.531-1.624.29-.692.574-1.262.75-1.813.016-.047.05-.11.063-.156h-.032c.074-.266.09-.489.063-.594-.032-.133-.09-.207-.125-.281a3.356 3.356 0 0 0-.219-.407c-.168-.265-.367-.57-.594-.874-.453-.61-.988-1.25-1.187-1.5-.098-.122-.235-.38-.375-.626.379-.14.808-.3 1.343-.593 1.2-.653 2.563-1.926 3.282-4.032h.031c.04-.054.082-.054.094-.062.644-.121.89-.066 1.125.188.258.28.55.96.781 1.906.434 1.773.832 4.316 2.313 6.406.003.008-.004.023 0 .031.093.13.117.282.218.407a.913.913 0 0 0 .219.187c.074.164.145.469.219.594.238.418.52.648.562.687.04.184.059.356.125.532.04.097.067.195.25.406.09.105.242.273.594.343s.793-.105.969-.28c.445-.446 1.5-1.895 1.5-5.22 0-4.273-.707-7.3-2.407-9.093a4.9 4.9 0 0 0-3.218-1.5c-1.082-.074-2.215.195-3.407.687-.042-.136-.035-.097-.093-.281a7.178 7.178 0 0 0-.813-1.719c-.816-1.254-2.332-2.61-5-3.468l-.093-.032c-.098-.043-1.91-.89-3.782-2.5.086 0 .121.047.219.032a1.03 1.03 0 0 0 .719-.465 1.03 1.03 0 0 0 .125-.848c-.059-.207-.18-.566-.282-.875.313-.23.47-.617.407-1-.094-.656-.395-1.188-.813-1.688-.035-.042-.086-.082-.125-.124a1.02 1.02 0 0 0 .13-.79 1.025 1.025 0 0 0-.474-.648c-.128-.078-.445-.25-.718-.406.218-.168.445-.258.656-.5.281-.32.34-.778.148-1.156A1.042 1.042 0 0 0 28 7.875c.066-.008-.297-.152-.469-.219a1.037 1.037 0 0 0 .375-1.593c-.691-.864-1.707-1.43-2.781-1.907.133-.265.14-.578.027-.851a1.034 1.034 0 0 0-.62-.586c-.419-.14-.774-.13-1.157-.156.055-.102.145-.176.188-.282A1.036 1.036 0 0 0 22.468.875a22.948 22.948 0 0 1-1.875-.156c-.852-.11-1.59-.25-2.188-.25-.48 0-.832.18-1.218.312-.133-.18-.243-.402-.625-.656a1.036 1.036 0 0 0-.688-.156zm2.531 2.562c.102 0 1.063.106 1.938.219-.16.352-.11.758.125 1.063.383.507.785.535 1.093.593.137.028.27.047.407.063.008.082-.028.14 0 .218.203.586.566.637.718.688.715.223 1.09.605 1.72.938-.278.37-.407.898-.313 1.312.07.34.304.621.625.75-.086-.035.117.066.343.219.168.113.403.261.625.406-.05.004-.058-.012-.125 0-.148.023-.378.023-.656.25-.277.227-.437.668-.437.938a1.03 1.03 0 0 0 .843 1.03c.657.126.813.329 1.188.5a1.035 1.035 0 0 0 .656 1.25 1.033 1.033 0 0 0-.277.934c.066.34.3.621.621.754-.008-.004.031.059.031.063-.07.031-.117.082-.187.125-.168-.184-.453-.406-.688-.625-.023-.02-.039-.043-.062-.063-.157-.133-.2-.258-.438-.375a1.037 1.037 0 0 0-1.343 1.469c2.62 4.262 7.28 6.094 7.28 6.094a.879.879 0 0 0 .094.031c2.364.742 3.426 1.777 4 2.656.286.438.45.864.563 1.219.113.355.082.543.313 1 .105.21.234.43.437.625.063.063.191.07.281.125-.222.148-.449.223-.656.531a1.067 1.067 0 0 0-.125.282c-.52 1.777-1.469 2.55-2.406 3.062-.469.254-.946.45-1.344.594-.2.074-.363.125-.563.218-.18.086-.468.211-.687.657h-.031c-.008.015.008.015 0 .031-.004.012.004.02 0 .031-.137.32-.114.52-.094.657.023.148.055.265.094.374.074.215.172.415.281.626.219.421.477.843.75 1.187.2.25.672.871 1.094 1.438.191.253.351.476.468.656-.12.297-.324.793-.593 1.437-.293.696-.547 1.34-.625 2.094h-.032c-.023.07.016.094 0 .156-.003.059-.062.094-.062.157h.031c-.035.257-.074.527-.062.718.004.086-.004.078 0 .157-.098.003-.219 0-.219 0a1.045 1.045 0 0 0-.797.39 1.04 1.04 0 0 0-.203.86s.047.222.094.468c.02.102.023.14.031.219h-.969c.414-.43.492-.797.657-1.125.183-.367.148-.887.062-1.188.012-.015.012-.003.094-.124.129-.192.328-.47.562-.782.469-.625 1.067-1.445 1.375-2.5v-.031a1.13 1.13 0 0 0-.125-.844c-.086-.16-.172-.226-.25-.312a4.077 4.077 0 0 0-.5-.469c-.375-.29-.855-.621-1.406-1-.336-.23-.727-.488-1.094-.75l-.031-.031a1.035 1.035 0 0 0-.781-.563 22.33 22.33 0 0 1-2.532-2.218 1.027 1.027 0 0 0-.25-.313c-.14-.191-.156-.2-.25-.531.024.082-.027-.606.313-1.344.34-.738.996-1.648 2.344-2.5.351-.176.574-.535.57-.93 0-.394-.223-.754-.578-.925a1.032 1.032 0 0 0-1.086.105c-1.164.738-1.992 1.586-2.563 2.406-4.902-1.894-7.468-6.625-7.468-6.625a1.037 1.037 0 0 0-1.282-.468s-2 .714-3.75.812h-.03a1.084 1.084 0 0 0-.97.781c-.085.301-.05.43-.03.532.034.203.077.292.124.406.098.23.211.472.344.718-.262-.375-.715-.96-.875-1.187-.348-.484-.398-.602-.406-.875.008-.008.023-.086.125-.156.199-.14.433-.262.594-.344.359-.18.37-.223.593-.406a32 32 0 0 0 .906-.782c.22-.195.696-.652.97-.906l.03-.031c.016-.012.047-.02.063-.031.156-.09.285-.219.375-.375.625-.578 1.098-1 2-1.844a.913.913 0 0 0 .188-.219c.03-.05.066-.101.093-.156.36-.238.532-.672.438-1.094a9.517 9.517 0 0 0 .468-2.5c.051-1-.023-1.976-.25-2.875.22-.148.45-.3.625-.531.614-.805.848-1.914.875-3.469a1.037 1.037 0 1 0-2.062-.031c-.023 1.344-.27 2-.438 2.219-.167.219-.285.254-.75.25-.93-.008-2.738-.711-4.687-.125h-.031c-.606.203-.778.597-.938.875-.312-.074-.644-.168-.781-.25-.195-.117-.195-.094-.219-.344.012-.285.067-.645.063-.656.02-.016.304-.235 1.125-.688a16.848 16.848 0 0 0 3.375-2.406l.031-.031c.543-.543.582-.89.625-.938.043-.047.137-.207 1.094-.25.285-.008.554-.133.742-.347.187-.211.281-.493.258-.778.039.004.015.031.062.031.164-.003.324-.046.469-.124.277-.137.809-.282 1.031-.282zM13.688 17h.53c-.206.191-.378.36-.562.531a50.46 50.46 0 0 1-1.312-.093 27.49 27.49 0 0 1-1.219-.125 7.286 7.286 0 0 1-.375-.063c-.008-.004.008.035 0 .031-.254-.125-.406.008-.625.032.059-.051.172-.118.219-.157.02-.015.015-.015.031-.031.043-.004.555-.078 1.156-.094A72.91 72.91 0 0 1 13.687 17zm-6.813 2.125a.283.283 0 0 0-.125.094 4.12 4.12 0 0 0-.313.562.466.466 0 0 0-.03.063c-.106.043-.407.093-.75.437l-.813.813c-.192-.016-.387-.016-.75-.125.308-.18.332-.27.687-.407.13-.05.246-.125.344-.218.207-.207.227-.254.281-.344.055-.09.106-.195.157-.281.023-.04.042-.059.062-.094.074-.031.04-.027.125-.063.254-.101.598-.23 1-.406.031-.015.082-.011.125-.031zm6.719 6.406c.39.383.765.602 1.094.719.218.078.433.168.562.219.047.129.047.246.219.593.05.106.11.204.187.282-.265-.133-.52-.262-.937-.282.004.004-.035.008-.063-.03-.02-.032-.039-.063-.062-.095-.41-.515-.614-.87-1-1.406zm28.5.75c.75.051 1.32.29 1.843.844 1.051 1.11 1.813 3.664 1.813 7.688 0 .683-.137.93-.219 1.406a.98.98 0 0 0-.281-.063c-.047-.16-.082-.176-.125-.375a1.041 1.041 0 0 0-.688-.75c-.714-1.449-1.128-3.148-1.53-4.781-.255-1.043-.555-2.055-1.282-2.844-.32-.351-.766-.562-1.25-.718.594-.165 1.27-.438 1.719-.407zm-26.032 1.344c.114.05.235.082.313.094.219.039.336.008.438 0l.218.156c.02.066.043.191.032.469l-.657-.313c-.008-.011-.023-.02-.031-.031-.082-.133-.18-.234-.313-.375zm12.032 8c.156.121.312.258.468.375.008.336.024.664.032 1.344.008.484.004.976 0 1.343 0 .145.004.25 0 .344-.04.051-.024 0-.125.094a7.978 7.978 0 0 1-.782.625c-.921.656-1.476 1.57-1.53 1.625a.954.954 0 0 0-.126.156c-.277.414-.3.762-.375 1.125-.086-.031-.16-.07-.281-.093A1.39 1.39 0 0 0 25 42.53c-.102.004-.27.145-.438.219l-.03-.063c-.071.036-.04.086-.095.126-.058.039-.093.003-.156.062l.063.063c-.145.152-.336.296-.375.406a1.615 1.615 0 0 0-.094.406c-.004.035 0 .059 0 .094-.148.008-.055.031-.281.031-.078 0-.157-.023-.25-.031.093-.063.136-.11.187-.157.102-.097.172-.187.25-.28a3.16 3.16 0 0 0 .219-.313c.035-.055.086-.106.125-.188.023-.05.066-.195.094-.312.008-.02.015-.063.031-.094-.004.004-.027-.004-.031 0 .004-.05.031-.023.031-.094 0 .145.008.074 0 .094.008-.012.023-.016.031-.031.063-.063.157-.164.282-.282.25-.234.609-.554.968-.874.692-.622 1.426-1.254 1.782-1.563.007-.004.023-.027.03-.031.012-.008.02-.024.032-.032.652-.507.918-1.242 1-2a4.485 4.485 0 0 0-.281-2.062zm2.593 1.875c.375.262.731.508.97.688-.216.472-.458.945-.782 1.374-.215.286-.43.56-.625.844-.195.285-.398.57-.469 1.063a1.427 1.427 0 0 0-.031.125c0 .316.063.37.125.5-.125.246-.25.5-.219.468.024-.023-.129.141-.312.282-.184.14-.39.156-.657.687-.078.157-.132.27-.218.469h-1.125c.043-.148.078-.293.093-.438l.094.032c.098-.485.215-.856.219-.875v-.032c.438-.476.727-.94 1.156-1.25a9.4 9.4 0 0 0 .969-.78c.266-.25.453-.372.656-.782.16-.32.117-.36.125-.438.008-.078-.004-.144 0-.218.008-.149.028-.301.032-.5.003-.348.003-.79 0-1.219zm-8.312 4.563c-.059.011-.098.046-.156.062.004-.008-.004-.023 0-.031.015-.016.12-.012.156-.032zM2 46h27.406c.059.012.09.023.157.031.417.059 1.046.094 1.937.094.523 0 .945-.031 1.313-.125H48v2H2z"/></svg>