<svg xmlns="http://www.w3.org/2000/svg" viewBox="0 0 80 80"><path d="M12.309 9L0 41.816V59c0 3.3 2.7 6 6 6h5.059c.5 4.488 4.32 8 8.941 8s8.441-3.512 8.941-8H50.06c.5 4.488 4.32 8 8.941 8s8.441-3.512 8.941-8H78c1.094 0 2-.906 2-2v-4c0-.707-.438-1.227-1-1.582V43.547L72.414 26.48A7.006 7.006 0 0 0 65.887 22H47V9zm1.382 2H19c0 .55.45 1 1 1s1-.45 1-1h6c0 .55.45 1 1 1s1-.45 1-1h6c0 .55.45 1 1 1s1-.45 1-1h8v52H28.941c-.5-4.488-4.32-8-8.941-8s-8.441 3.512-8.941 8H6c-2.219 0-4-1.781-4-4V42.184zM20 14c-.55 0-1 .45-1 1s.45 1 1 1 1-.45 1-1-.45-1-1-1zm8 0c-.55 0-1 .45-1 1s.45 1 1 1 1-.45 1-1-.45-1-1-1zm8 0c-.55 0-1 .45-1 1s.45 1 1 1 1-.45 1-1-.45-1-1-1zm-16 4c-.55 0-1 .45-1 1s.45 1 1 1 1-.45 1-1-.45-1-1-1zm8 0c-.55 0-1 .45-1 1s.45 1 1 1 1-.45 1-1-.45-1-1-1zm8 0c-.55 0-1 .45-1 1s.45 1 1 1 1-.45 1-1-.45-1-1-1zm-16 4c-.55 0-1 .45-1 1s.45 1 1 1 1-.45 1-1-.45-1-1-1zm8 0c-.55 0-1 .45-1 1s.45 1 1 1 1-.45 1-1-.45-1-1-1zm8 0c-.55 0-1 .45-1 1s.45 1 1 1 1-.45 1-1-.45-1-1-1zm11 2h14v14c0 2.2 1.8 4 4 4h1.395a1.99 1.99 0 0 1 1.664.89l.218.329A4.001 4.001 0 0 0 71.605 45H77v2h-2c-2.2 0-4 1.8-4 4v1h.203c.457 1.707 1.953 3 3.797 3h2v2c-.55 0-1 .45-1 1s.45 1 1 1h1v4H67.941c-.5-4.488-4.32-8-8.941-8s-8.441 3.512-8.941 8H47zm16 0h2.887a4.99 4.99 0 0 1 4.66 3.2L76.645 43h-5.04a1.99 1.99 0 0 1-1.664-.89l-.222-.329A3.99 3.99 0 0 0 66.395 40H65c-1.117 0-2-.883-2-2zm-43 2c-.55 0-1 .45-1 1s.45 1 1 1 1-.45 1-1-.45-1-1-1zm8 0c-.55 0-1 .45-1 1s.45 1 1 1 1-.45 1-1-.45-1-1-1zm8 0c-.55 0-1 .45-1 1s.45 1 1 1 1-.45 1-1-.45-1-1-1zm17 1c-1.645 0-3 1.355-3 3v9c0 1.645 1.355 3 3 3h2c1.645 0 3-1.355 3-3v-9c0-1.645-1.355-3-3-3zm0 2h2c.566 0 1 .434 1 1v9c0 .566-.434 1-1 1h-2c-.566 0-1-.434-1-1v-9c0-.566.434-1 1-1zm-33 1c-.55 0-1 .45-1 1s.45 1 1 1 1-.45 1-1-.45-1-1-1zm8 0c-.55 0-1 .45-1 1s.45 1 1 1 1-.45 1-1-.45-1-1-1zm8 0c-.55 0-1 .45-1 1s.45 1 1 1 1-.45 1-1-.45-1-1-1zm-16 4c-.55 0-1 .45-1 1s.45 1 1 1 1-.45 1-1-.45-1-1-1zm8 0c-.55 0-1 .45-1 1s.45 1 1 1 1-.45 1-1-.45-1-1-1zm8 0c-.55 0-1 .45-1 1s.45 1 1 1 1-.45 1-1-.45-1-1-1zm-16 4c-.55 0-1 .45-1 1s.45 1 1 1 1-.45 1-1-.45-1-1-1zm8 0c-.55 0-1 .45-1 1s.45 1 1 1 1-.45 1-1-.45-1-1-1zm8 0c-.55 0-1 .45-1 1s.45 1 1 1 1-.45 1-1-.45-1-1-1zm-16 4c-.55 0-1 .45-1 1s.45 1 1 1 1-.45 1-1-.45-1-1-1zm8 0c-.55 0-1 .45-1 1s.45 1 1 1 1-.45 1-1-.45-1-1-1zm8 0c-.55 0-1 .45-1 1s.45 1 1 1 1-.45 1-1-.45-1-1-1zm-16 4c-.55 0-1 .45-1 1s.45 1 1 1 1-.45 1-1-.45-1-1-1zm8 0c-.55 0-1 .45-1 1s.45 1 1 1 1-.45 1-1-.45-1-1-1zm8 0c-.55 0-1 .45-1 1s.45 1 1 1 1-.45 1-1-.45-1-1-1zm39 3h2v4h-2c-1.117 0-2-.883-2-2s.883-2 2-2zm-55 8c3.879 0 7 3.121 7 7s-3.121 7-7 7-7-3.121-7-7 3.121-7 7-7zm39 0c3.879 0 7 3.121 7 7s-3.121 7-7 7-7-3.121-7-7 3.121-7 7-7zm10 0c-.55 0-1 .45-1 1s.45 1 1 1 1-.45 1-1-.45-1-1-1zm4 0c-.55 0-1 .45-1 1s.45 1 1 1 1-.45 1-1-.45-1-1-1zm-53 4c-1.645 0-3 1.355-3 3s1.355 3 3 3 3-1.355 3-3-1.355-3-3-3zm39 0c-1.645 0-3 1.355-3 3s1.355 3 3 3 3-1.355 3-3-1.355-3-3-3zm-39 2c.563 0 1 .438 1 1 0 .563-.438 1-1 1-.563 0-1-.438-1-1 0-.563.438-1 1-1zm39 0c.563 0 1 .438 1 1 0 .563-.438 1-1 1-.563 0-1-.438-1-1 0-.563.438-1 1-1z"/></svg>