<svg xmlns="http://www.w3.org/2000/svg" viewBox="0 0 40 40"><polygon points="1.5,38.5 1.5,20.268 12.5,12.934 12.5,19.911 23.5,12.911 23.5,19.5 34.499,19.5 34.465,38.5" fill="#f78f8f"/><path d="M23 13.822V20h10.998l-.032 18H2V20.535l10-6.667v6.954l1.537-.978L23 13.822M24 12l-11 7v-7L1 20v19h33.964L35 19H24v-7z" fill="#c74343"/><polygon points="28.527,38.5 30.475,1.5 36.526,1.5 38.508,38.5" fill="#c74343"/><path d="M36.052 2l1.928 36h-8.926l1.895-36h5.103M37 1h-7l-2 38h11.035L37 1z" fill="#ab3434"/><rect x="5" y="24" width="4" height="4" fill="#ffeea3"/><rect x="12" y="24" width="4" height="4" fill="#ffeea3"/><rect x="5" y="31" width="4" height="4" fill="#ffeea3"/><rect x="12" y="31" width="4" height="4" fill="#ffeea3"/><rect x="19" y="24" width="4" height="4" fill="#ffeea3"/><rect x="19" y="31" width="4" height="4" fill="#ffeea3"/></svg>