<svg xmlns="http://www.w3.org/2000/svg" viewBox="0 0 24 24"><path d="M5 2C3.355 2 2 3.355 2 5v14c0 1.645 1.355 3 3 3h7c1.645 0 3-1.355 3-3v-4h1v2c0 1.645 1.355 3 3 3s3-1.355 3-3V9.812c0-.14-.043-.265-.063-.406a3.076 3.076 0 0 0-.843-1.719l-4-4-1.407 1.407 2.157 2.156C16.77 7.707 16 8.766 16 10c0 1.645 1.355 3 3 3a2.95 2.95 0 0 0 1-.188V17c0 .555-.445 1-1 1-.555 0-1-.445-1-1v-2c0-.523-.184-1.059-.563-1.438C17.06 13.184 16.523 13 16 13h-1V5c0-1.645-1.355-3-3-3zm0 2h7c.555 0 1 .445 1 1v3c0 .555-.445 1-1 1H5c-.555 0-1-.445-1-1V5c0-.555.445-1 1-1zm14 5c.563 0 1 .438 1 1 0 .563-.438 1-1 1-.563 0-1-.438-1-1 0-.563.438-1 1-1z"/></svg>