<svg xmlns="http://www.w3.org/2000/svg" viewBox="0 0 64 64"><linearGradient id="a" gradientUnits="userSpaceOnUse" x1="28" y1="5.25" x2="28" y2="58.35" spreadMethod="reflect"><stop offset="0" stop-color="#1a6dff"/><stop offset="1" stop-color="#c822ff"/></linearGradient><path d="M18 27h20c1.103 0 2-.897 2-2v-7c0-1.103-.897-2-2-2H18c-1.103 0-2 .897-2 2v7c0 1.103.897 2 2 2zm0-9h20v7H18l-.002-7H18z" fill="url(#a)"/><linearGradient id="b" gradientUnits="userSpaceOnUse" x1="32" y1="5.25" x2="32" y2="58.35" spreadMethod="reflect"><stop offset="0" stop-color="#1a6dff"/><stop offset="1" stop-color="#c822ff"/></linearGradient><path d="M55.952 19.643l-6.302-5.401-1.301 1.518L51 18.031v5.971A3.002 3.002 0 0 0 53.998 27H55v6c-1.103 0-2 .897-2 2v4c0 1.103.897 2 2 2v12c0 1.654-1.346 3-3 3h-3v-3a5.003 5.003 0 0 0-3-4.576V15c0-2.757-2.243-5-5-5V9c0-1.654-1.346-3-3-3H18c-1.654 0-3 1.346-3 3v1c-2.757 0-5 2.243-5 5v3c-1.103 0-2 .897-2 2v5c0 1.103.897 2 2 2v4c-1.103 0-2 .897-2 2v5c0 1.103.897 2 2 2v8.424A5.003 5.003 0 0 0 7 53v5h45c2.757 0 5-2.243 5-5V21.919c0-.877-.382-1.706-1.048-2.276zM17 9a1 1 0 0 1 1-1h20a1 1 0 0 1 1 1v1H17V9zm-5 6c0-1.654 1.346-3 3-3h26c1.654 0 3 1.346 3 3v33h-4V34c0-1.654-1.346-3-3-3H19c-1.654 0-3 1.346-3 3v14h-4V15zm26 20.184A2.966 2.966 0 0 0 37 35H19c-.352 0-.686.072-1 .184V34a1 1 0 0 1 1-1h18a1 1 0 0 1 1 1v1.184zM18 38a1 1 0 0 1 1-1h18a1 1 0 0 1 1 1v10H18V38zm29 18h-9c0-1.103-.897-2-2-2H20c-1.103 0-2 .897-2 2H9v-3c0-1.654 1.346-3 3-3h32c1.654 0 3 1.346 3 3v3zm6.998-31a.998.998 0 0 1-.998-.998v-4.256l1.651 1.416a.992.992 0 0 1 .349.757V25h-1.002z" fill="url(#b)"/><linearGradient id="c" gradientUnits="userSpaceOnUse" x1="28" y1="5.25" x2="28" y2="58.35" spreadMethod="reflect"><stop offset="0" stop-color="#1a6dff"/><stop offset="1" stop-color="#c822ff"/></linearGradient><rect x="20" y="39" width="16" height="2" fill="url(#c)"/><linearGradient id="d" gradientUnits="userSpaceOnUse" x1="28" y1="5.25" x2="28" y2="58.35" spreadMethod="reflect"><stop offset="0" stop-color="#1a6dff"/><stop offset="1" stop-color="#c822ff"/></linearGradient><rect x="22" y="43" width="12" height="2" fill="url(#d)"/><linearGradient id="e" gradientUnits="userSpaceOnUse" x1="28" y1="19.167" x2="28" y2="24.18" spreadMethod="reflect"><stop offset="0" stop-color="#6dc7ff"/><stop offset="1" stop-color="#e6abff"/></linearGradient><path d="M35 23H21a1 1 0 0 1-1-1v-1a1 1 0 0 1 1-1h14a1 1 0 0 1 1 1v1a1 1 0 0 1-1 1z" fill="url(#e)"/></svg>