<svg xmlns="http://www.w3.org/2000/svg" viewBox="0 0 64 64"><path d="M19.371-.266a15.44 15.44 0 0 0-10.95 4.532c-6.038 6.039-6.038 15.859 0 21.898l21.505 21.508c.336.332.746.562 1.183.7a12.55 12.55 0 0 0 1.368 6.194l.265.528a10.56 10.56 0 0 1 .774 7.64.998.998 0 1 0 1.922.532c.847-3.04.523-6.266-.915-9.082l-.265-.524a10.505 10.505 0 0 1-1.137-5.406 2.85 2.85 0 0 0 .856-.582l21.488-21.508c6.039-6.039 6.039-15.86 0-21.898-6.04-6.036-15.863-6.036-21.903 0l-1.28 1.285h-.005l-.336.336-1.617-1.621A15.447 15.447 0 0 0 19.371-.266zm.004 2c3.45 0 6.902 1.317 9.531 3.946l1.625 1.62-1.105 1.102a1 1 0 0 0 .71 1.707 1 1 0 0 0 .708-.293l1.097-1.101 3.04-3.035c5.253-5.258 13.812-5.258 19.07 0 5.258 5.258 5.258 13.812 0 19.07L32.562 46.254a.878.878 0 0 1-1.218 0L9.836 24.75c-5.258-5.258-5.258-13.813 0-19.07a13.437 13.437 0 0 1 9.539-3.946zm32.594 15.88a.991.991 0 0 0-.703.292.997.997 0 0 0 0 1.418l1.41 1.41c.195.196.453.297.71.297a1.002 1.002 0 0 0 .707-1.707l-1.417-1.418a.993.993 0 0 0-.707-.293zm-3.532 3.538a.997.997 0 0 0-.707 1.707l1.41 1.41a1 1 0 0 0 1.419 0 .995.995 0 0 0 0-1.41l-1.418-1.418a.987.987 0 0 0-.703-.289zm-3.539 3.535a.984.984 0 0 0-.707.293.995.995 0 0 0 0 1.41l1.414 1.419a1.006 1.006 0 0 0 1.415 0c.39-.395.39-1.024 0-1.418l-1.415-1.41a.984.984 0 0 0-.707-.294zm-3.535 3.536a1 1 0 0 0-.707 1.707l1.418 1.414a.99.99 0 0 0 .707.293.985.985 0 0 0 .703-.293.993.993 0 0 0 0-1.414l-1.414-1.414a1 1 0 0 0-.707-.293zm-3.535 3.53a1.004 1.004 0 0 0-.707 1.712l1.414 1.414c.195.195.45.293.707.293a1 1 0 0 0 .707-1.707l-1.414-1.414a1.004 1.004 0 0 0-.707-.297zm-3.535 3.54A1 1 0 0 0 33.586 37L35 38.414c.195.195.45.293.707.293A1 1 0 0 0 36.414 37L35 35.586a1 1 0 0 0-.707-.293zm-3.535 3.535a1 1 0 0 0-.707 1.707l1.414 1.414c.195.196.45.293.707.293a1 1 0 0 0 .707-1.707l-1.414-1.414a1 1 0 0 0-.707-.293z"/></svg>