<svg xmlns="http://www.w3.org/2000/svg" viewBox="0 0 48 48"><path d="M28.398 4.3l.801 1.9 2.102.198L29.699 7.7l.5 2.102-1.8-1.102-1.797 1.102.5-2.102L25.5 6.4l2.102-.2zM36 7.7l.7 1.8 1.902.102-1.403 1.199.403 1.898-1.602-1-1.602 1 .403-1.898-1.403-1.2 1.903-.101zM19.602 4.3L18.8 6.2l-2.102.198L18.301 7.7l-.5 2.102 1.8-1.102 1.797 1.102-.5-2.102L22.5 6.4l-2.102-.2zM12 7.7l-.7 1.8-1.902.102 1.403 1.199-.403 1.898 1.602-1 1.602 1-.403-1.898 1.403-1.2-1.903-.101z" fill="#3f51b5"/><path d="M42 41H6V17l18-6 18 6z" fill="#2196f3"/><path d="M31 22h6v5h-6zm-10 0h6v5h-6zm-10 0h6v5h-6zm20 8h6v5h-6zm-20 0h6v5h-6zm9 0h8v13h-8zm4-21L6 15v2l18-6 18 6v-2z" fill="#7ac0f8"/><path d="M6 41h36v2H6z" fill="#7ac0f8"/></svg>