<svg xmlns="http://www.w3.org/2000/svg" viewBox="0 0 32 32"><path d="M3.719 2.281L2.28 3.72l26 26 1.438-1.438-11.25-11.25 3.343-1.281 2.032-7.063 3.593-1.78-.875-1.813-4.406 2.218-1.968 6.938-3.282 1.219-.968-.969 3.593-1.313-1.75-4.812-5.5 2c-.11.04-.21.102-.312.156zm12.844 8.656l.406 1.032-2.594.969-.875-.876zM8.219 13a3.067 3.067 0 0 0-3.063 3.063 3.067 3.067 0 0 0 3.063 3.062c1.687 0 3.094-1.371 3.094-3.063 0-.23-.047-.437-.094-.656l-2.313-2.312A3.102 3.102 0 0 0 8.22 13zm0 2c.586 0 1.094.477 1.094 1.063 0 .585-.508 1.062-1.094 1.062a1.064 1.064 0 0 1 0-2.125zm4.594 2l-.407.156-6.156 7.188 1.5 1.312 5.844-6.812.781-.282z"/></svg>