<svg xmlns="http://www.w3.org/2000/svg" viewBox="0 0 48 48"><path d="M11.5 46A2.478 2.478 0 0 1 9 43.5v-12c0-1.398 1.102-2.5 2.5-2.5s2.5 1.102 2.5 2.5v12c0 1.398-1.102 2.5-2.5 2.5zM39 43.5v-12c0-1.398-1.102-2.5-2.5-2.5a2.478 2.478 0 0 0-2.5 2.5v12c0 1.398 1.102 2.5 2.5 2.5s2.5-1.102 2.5-2.5z" fill="#455a64"/><path d="M14 7l3-2 7 1 7-1 3 2" fill="none" stroke-width="2" stroke-linecap="round" stroke-linejoin="round" stroke="#37474f" stroke-miterlimit="10"/><path d="M15 36h18v2H15z" fill="#c5cae9"/><path d="M25 31h-2V5c0-.602.398-1 1-1s1 .398 1 1z" fill="#9fa8da"/><path d="M36 27c-4.2 0-4 5-4 5v6h-6V28c0-.5-.5-1-1-1h-2c-.5 0-1 .5-1 1v10h-6v-6s.2-5-4-5h-2l4 14h20l4-14h-2z" fill="#f44336"/></svg>