<svg xmlns="http://www.w3.org/2000/svg" viewBox="0 0 40 40"><polygon points="4.5,36.071 4.5,7.115 15.714,4.624 15.714,36.071" fill="#dcd5f2"/><path d="M15.214 5.247v30.325H5V7.516l10.214-2.269m1-1.247L4 6.714v29.857h12.214V4z" fill="#8b75a1"/><rect x="1.5" y="9.5" width="18" height="29" fill="#dcd5f2"/><path d="M19 10v28H2V10h17m1-1H1v30h19V9z" fill="#8b75a1"/><rect x="2" y="36" transform="rotate(-180 9.5 37.5)" width="15" height="3" fill="#dcd5f2"/><polygon points="8,39 20.929,39 20.929,3.454 8,6.188" fill="#8b75a1"/><rect x="25.5" y="7.5" width="10" height="29" fill="#8bb7f0"/><path d="M35 8v28h-9V8h9m1-1H25v30h11V7z" fill="#4e7ab5"/><rect x="22.5" y="9.5" width="16" height="29" fill="#8bb7f0"/><path d="M38 10v28H23V10h15m1-1H22v30h17V9z" fill="#4e7ab5"/><rect x="24" y="36" width="14" height="3" fill="#8bb7f0"/><rect x="19" y="7" width="14" height="32" fill="#4e7ab5"/><rect x="14.5" y="1.5" width="12" height="33.667" fill="#dbf2ff"/><path d="M26 2v32.667H15V2h11m1-1H14v34.667h13V1z" fill="#7496c4"/><rect x="11.5" y="3.5" width="18" height="35" fill="#dbf2ff"/><path d="M29 4v34H12V4h17m1-1H11v36h19V3z" fill="#7496c4"/><rect x="12" y="36" width="17" height="3" fill="#dbf2ff"/><path d="M16 7h1V6h-1v1zm2 0h1V6h-1v1zm2 0h1V6h-1v1zm-6 0h1V6h-1v1zm8 0h1V6h-1v1zm-6 2h1V8h-1v1zm2 0h1V8h-1v1zm2 0h1V8h-1v1zm-6 0h1V8h-1v1zm8 0h1V8h-1v1zm-6 2h1v-1h-1v1zm2 0h1v-1h-1v1zm2 0h1v-1h-1v1zm-6 0h1v-1h-1v1zm8 0h1v-1h-1v1zm-6 2h1v-1h-1v1zm2 0h1v-1h-1v1zm2 0h1v-1h-1v1zm-6 0h1v-1h-1v1zm8 0h1v-1h-1v1zm-6 2h1v-1h-1v1zm2 0h1v-1h-1v1zm2 0h1v-1h-1v1zm-6 0h1v-1h-1v1zm8 0h1v-1h-1v1zm-6 2h1v-1h-1v1zm2 0h1v-1h-1v1zm2 0h1v-1h-1v1zm-6 0h1v-1h-1v1zm8 0h1v-1h-1v1zm-6 2h1v-1h-1v1zm2 0h1v-1h-1v1zm2 0h1v-1h-1v1zm-6 0h1v-1h-1v1zm8 0h1v-1h-1v1zm-6 2h1v-1h-1v1zm2 0h1v-1h-1v1zm2 0h1v-1h-1v1zm-6 0h1v-1h-1v1zm8 0h1v-1h-1v1zm-6 2h1v-1h-1v1zm2 0h1v-1h-1v1zm2 0h1v-1h-1v1zm-6 0h1v-1h-1v1zm8 0h1v-1h-1v1zm-6 2h1v-1h-1v1zm2 0h1v-1h-1v1zm2 0h1v-1h-1v1zm-6 0h1v-1h-1v1zm8 0h1v-1h-1v1zm-6 2h1v-1h-1v1zm2 0h1v-1h-1v1zm2 0h1v-1h-1v1zm-6 0h1v-1h-1v1zm8 0h1v-1h-1v1zm-6 2h1v-1h-1v1zm2 0h1v-1h-1v1zm2 0h1v-1h-1v1zm-6 0h1v-1h-1v1zm8 0h1v-1h-1v1zm2-22h1V6h-1v1zm2-1v1h1V6h-1zm-2 3h1V8h-1v1zm2 0h1V8h-1v1zm-2 2h1v-1h-1v1zm2 0h1v-1h-1v1zm-2 2h1v-1h-1v1zm2 0h1v-1h-1v1zm-2 2h1v-1h-1v1zm2 0h1v-1h-1v1zm-2 2h1v-1h-1v1zm2 0h1v-1h-1v1zm-2 2h1v-1h-1v1zm2 0h1v-1h-1v1zm-2 2h1v-1h-1v1zm2 0h1v-1h-1v1zm-2 2h1v-1h-1v1zm2 0h1v-1h-1v1zm-2 2h1v-1h-1v1zm2 0h1v-1h-1v1zm-2 2h1v-1h-1v1zm2 0h1v-1h-1v1zm-2 2h1v-1h-1v1zm2 0h1v-1h-1v1zm-10 2h1v-1h-1v1zm2 0h1v-1h-1v1zm2 0h1v-1h-1v1zm-6 0h1v-1h-1v1zm8 0h1v-1h-1v1zm-6 2h1v-1h-1v1zm2 0h1v-1h-1v1zm2 0h1v-1h-1v1zm-6 0h1v-1h-1v1zm8 0h1v-1h-1v1zm-6 2h1v-1h-1v1zm2 0h1v-1h-1v1zm2 0h1v-1h-1v1zm-6 0h1v-1h-1v1zm8 0h1v-1h-1v1zm-6 2h1v-1h-1v1zm2 0h1v-1h-1v1zm2 0h1v-1h-1v1zm-6 0h1v-1h-1v1zm8 0h1v-1h-1v1zm2-6h1v-1h-1v1zm2 0h1v-1h-1v1zm-2 2h1v-1h-1v1zm2 0h1v-1h-1v1zm-2 2h1v-1h-1v1zm2 0h1v-1h-1v1zm-2 2h1v-1h-1v1zm2 0h1v-1h-1v1zm-10 2h1v-1h-1v1zm2 0h1v-1h-1v1zm2 0h1v-1h-1v1zm-6 0h1v-1h-1v1zm8 0h1v-1h-1v1zm2 0h1v-1h-1v1zm2 0h1v-1h-1v1z" fill="#7496c4"/><path d="M33 13h1v-1h-1v1zm2-1v1h1v-1h-1zm-2 3h1v-1h-1v1zm2 0h1v-1h-1v1zm-2 2h1v-1h-1v1zm2 0h1v-1h-1v1zm-2 2h1v-1h-1v1zm2 0h1v-1h-1v1zm-2 2h1v-1h-1v1zm2 0h1v-1h-1v1zm-2 2h1v-1h-1v1zm2 0h1v-1h-1v1zm-2 2h1v-1h-1v1zm2 0h1v-1h-1v1zm-2 2h1v-1h-1v1zm2 0h1v-1h-1v1zm-2 2h1v-1h-1v1zm2 0h1v-1h-1v1zm-2 2h1v-1h-1v1zm2 0h1v-1h-1v1zm-2 2h1v-1h-1v1zm2 0h1v-1h-1v1zm-2 2h1v-1h-1v1zm2 0h1v-1h-1v1zm-2 2h1v-1h-1v1zm2 0h1v-1h-1v1zm-2 2h1v-1h-1v1zm2 0h1v-1h-1v1z" fill="#dbf2ff"/><path d="M4 13h1v-1H4v1zm2-1v1h1v-1H6zm-2 3h1v-1H4v1zm2 0h1v-1H6v1zm-2 2h1v-1H4v1zm2 0h1v-1H6v1zm-2 2h1v-1H4v1zm2 0h1v-1H6v1zm-2 2h1v-1H4v1zm2 0h1v-1H6v1zm-2 2h1v-1H4v1zm2 0h1v-1H6v1zm-2 2h1v-1H4v1zm2 0h1v-1H6v1zm-2 2h1v-1H4v1zm2 0h1v-1H6v1zm-2 2h1v-1H4v1zm2 0h1v-1H6v1zm-2 2h1v-1H4v1zm2 0h1v-1H6v1zm-2 2h1v-1H4v1zm2 0h1v-1H6v1zm-2 2h1v-1H4v1zm2 0h1v-1H6v1zm-2 2h1v-1H4v1zm2 0h1v-1H6v1zm-2 2h1v-1H4v1zm2 0h1v-1H6v1z" fill="#fff"/><path d="M31 12v1h1v-1h-1zm0 3h1v-1h-1v1zm0 2h1v-1h-1v1zm0 2h1v-1h-1v1zm0 2h1v-1h-1v1zm0 2h1v-1h-1v1zm0 2h1v-1h-1v1zm0 2h1v-1h-1v1zm0 2h1v-1h-1v1zm0 2h1v-1h-1v1zm0 2h1v-1h-1v1zm0 2h1v-1h-1v1zm0 2h1v-1h-1v1zm0 2h1v-1h-1v1z" fill="#8bb7f0"/><path d="M9 11.904v1.004h1v-1.004H9zm0 3.01h1V13.91H9v1.004zm0 2.008h1v-1.004H9v1.004zm0 2.007h1v-1.004H9v1.004zm0 2.007h1v-1.004H9v1.004zm0 2.007h1v-1.004H9v1.004zm0 2.007h1v-1.004H9v1.004zm0 2.007h1v-1.004H9v1.004zm0 2.007h1V27.96H9v1.004zm0 2.007h1v-1.004H9v1.004zm0 2.008h1v-1.004H9v1.004zm0 2.007h1v-1.004H9v1.004zm0 2.007h1v-1.004H9v1.004zM9 39h1v-1.004H9V39z" fill="#dcd5f2"/></svg>