<svg xmlns="http://www.w3.org/2000/svg" viewBox="0 0 26 26"><path d="M13 0c-1 0-1.508.695-1.406 2.094 0 .3.117.406.219.406.101.602.374.79.374 1.188 0 .3-.199.425-1 .624-.5.2-1.074.774-1.374 1.375C9.413 6.587 9 7.5 9 8c0 .5 1.113 1.398 1.813 2 0 0-.227 1.398.374 4 .102 2.102.5 4.3.5 6h2.5c0-1.7.399-3.898.5-6 .602-2.602.407-4 .407-4C15.894 9.398 17 8.5 17 8s-.414-1.387-.813-2.188c-.3-.699-.875-1.304-1.375-1.406-.699-.3-1-.293-1-.593 0-.399.274-.52.376-1.22.101-.1.218-.206.218-.405C14.508.688 14 0 13 0zm-3 21a1 1 0 0 0-1 1v1h8v-1c0-.602-.398-1-1-1zm-1.188 3c-1 0-1.812.813-1.812 1.813V26h12v-.188c0-1-.805-1.812-1.906-1.812z"/></svg>