<svg xmlns="http://www.w3.org/2000/svg" viewBox="0 0 40 40"><path d="M17.07 30.5l-.761-10.695-1.809-1.266V13c0-1.93 1.57-3.5 3.5-3.5h.5v-3h3v3h.5c1.93 0 3.5 1.57 3.5 3.5v5.54l-1.809 1.269L22.93 30.5z" fill="#dff0fe"/><path d="M21 7v3h1c1.652 0 3 1.348 3 3v5.277l-1.398.98-.391.274-.035.477L22.46 30h-4.922l-.715-9.992-.035-.477-.39-.27-1.399-.98V13c0-1.652 1.348-3 3-3h1V7h2m1-1h-4v3c-2.21 0-4 1.79-4 4v5.8l1.828 1.278L16.605 31h6.79l.777-10.922L26 18.801V13c0-2.21-1.79-4-4-4z" fill="#4788c7"/><path d="M20 8.5c-1.238 0-2.5-2.426-2.5-4.168C17.5 2.77 18.621 1.5 20 1.5s2.5 1.27 2.5 2.832C22.5 6.074 21.238 8.5 20 8.5z" fill="#dff0fe"/><path d="M20 2c1.102 0 2 1.047 2 2.332C22 5.875 20.84 8 20 8c-.84 0-2-2.125-2-3.668C18 3.047 18.898 2 20 2m0-1c-1.656 0-3 1.492-3 3.332C17 6.176 18.344 9 20 9s3-2.824 3-4.668C23 2.492 21.656 1 20 1z" fill="#4788c7"/><path d="M11.5 30.5h17v5h-17z" fill="#b6dcfe"/><path d="M28 31v4H12v-4h16m1-1H11v6h18z" fill="#4788c7"/><path d="M9.5 35.5h21v3h-21z" fill="#98ccfd"/><path d="M30 36v2H10v-2h20m1-1H9v4h22z" fill="#4788c7"/></svg>