<svg xmlns="http://www.w3.org/2000/svg" viewBox="0 0 50 50"><path d="M30.645 0c-.254 0-.508.098-.707.293L15.823 14.41l4.281 4.277A7.925 7.925 0 0 1 25 17c4.41 0 8 3.59 8 8a7.945 7.945 0 0 1-1.688 4.898l4.282 4.278 14.113-14.114a1.008 1.008 0 0 0 0-1.418l-3.719-3.718-6.281 6.281A.993.993 0 0 1 39 21.5a.993.993 0 0 1-.707-.293l-9.5-9.5a1 1 0 0 1 0-1.414l6.281-6.281L31.355.293a1.009 1.009 0 0 0-.71-.293zm5.843 5.43L30.914 11 39 19.086l5.574-5.57zM14.406 15.824L.293 29.938a1.008 1.008 0 0 0 0 1.418l3.719 3.718 6.281-6.281a1 1 0 0 1 1.414 0l9.5 9.5c.39.39.39 1.02 0 1.41l-6.281 6.281 3.719 3.72a1 1 0 0 0 1.418.004L34.176 35.59l-4.278-4.278A7.945 7.945 0 0 1 25 33c-4.41 0-8-3.59-8-8a7.94 7.94 0 0 1 1.688-4.898zM25 19a5.98 5.98 0 0 0-3.469 1.113l8.356 8.356A5.98 5.98 0 0 0 31 25c0-3.309-2.691-6-6-6zm-4.887 2.531A5.98 5.98 0 0 0 19 25c0 3.309 2.691 6 6 6a5.98 5.98 0 0 0 3.469-1.113zM11 30.914l-5.574 5.574 8.086 8.086L19.086 39z"/></svg>