<svg xmlns="http://www.w3.org/2000/svg" viewBox="0 0 40 40"><path d="M5.5 38.5V16.137L20 5.617l14.5 10.52V38.5z" fill="#dff0fe"/><path d="M20 6.234l14 10.157V38H6V16.39L20 6.235M20 5L5 15.879V39h30V15.879z" fill="#4788c7"/><path d="M20 5L5 15.879v1.355L20 6.352l15 10.882V15.88z" fill="#4788c7"/><path d="M15 38h10v-6a5 5 0 1 0-10 0z" fill="#98ccfd"/><path d="M20 10.93l1.176 2.035h2.351L22.352 15l1.175 2.035h-2.351L20 19.07l-1.176-2.035h-2.351L17.648 15l-1.175-2.035h2.351z" fill="#4788c7"/><path d="M36 8.5c-1.742 0-3.5-.73-3.5-2.355 0-1.09 2.027-3.215 3.5-4.489 1.473 1.274 3.5 3.399 3.5 4.489C39.5 7.77 37.742 8.5 36 8.5z" fill="#98ccfd"/><path d="M36 2.32c1.547 1.39 3 3.102 3 3.82C39 7.427 37.492 8 36 8s-3-.574-3-1.855c0-.72 1.453-2.434 3-3.825M36 1s-4 3.3-4 5.145C32 7.985 33.79 9 36 9s4-1.016 4-2.855C40 4.3 36 1 36 1z" fill="#4788c7"/><path d="M33.5 8.5h5v30h-5z" fill="#dff0fe"/><path d="M38 9v29h-4V9h4m1-1h-6v31h6z" fill="#4788c7"/><path d="M32.5 8.5h7" fill="none" stroke-linecap="round" stroke-linejoin="round" stroke="#4788c7" stroke-miterlimit="10"/><path d="M4 8.5C2.258 8.5.5 7.77.5 6.145.5 5.055 2.527 2.93 4 1.656 5.473 2.93 7.5 5.055 7.5 6.145 7.5 7.77 5.742 8.5 4 8.5z" fill="#98ccfd"/><path d="M4 2.32c1.547 1.39 3 3.102 3 3.82C7 7.427 5.492 8 4 8s-3-.574-3-1.855c0-.72 1.453-2.434 3-3.825M4 1S0 4.3 0 6.145C0 7.985 1.79 9 4 9s4-1.016 4-2.855C8 4.3 4 1 4 1z" fill="#4788c7"/><path d="M1.5 8.5h5v30h-5z" fill="#dff0fe"/><path d="M6 9v29H2V9h4m1-1H1v31h6z" fill="#4788c7"/><path d="M.5 8.5h7" fill="none" stroke-linecap="round" stroke-linejoin="round" stroke="#4788c7" stroke-miterlimit="10"/></svg>