<svg xmlns="http://www.w3.org/2000/svg" viewBox="0 0 26 26"><path d="M3 0c-.898 1.3-3 1.5-3 4 0 1.398 1 2 1 2h4s1-.602 1-2c0-2.602-2-2.7-3-4zm20 0c-.898 1.3-3 1.5-3 4 0 1.398 1 2 1 2h4s1-.602 1-2c0-2.602-2-2.7-3-4zM13 6l-7 6v14h5v-4c0-1.102.898-2 2-2 1.102 0 2 .898 2 2v4h5V12zM0 7v1l.313.313c.5.5.687.992.687 1.593V26h4V9.906c0-.601.188-1.195.688-1.594L6 8V7zm20 0v1l.313.313c.398.398.687.992.687 1.593V26h4V9.906c0-.601.188-1.195.688-1.594L26 8V7zm-7 3.5l.906 1.5h1.688l-.906 1.5.906 1.5h-1.688L13 16.5l-.906-1.5h-1.688l.906-1.5-.906-1.5h1.688z"/></svg>