<svg xmlns="http://www.w3.org/2000/svg" viewBox="0 0 50 50"><path d="M27.875-.031c-.563.02-1.121.187-1.563.594l-.03.03c-.376.376-.884 1.024-1.595 1.938-.71.914-1.535 2.035-2.375 3.156-1.68 2.243-3.277 4.399-3.656 4.97-.09.14-.144.3-.156.468-.16.398-.207.844-.156 1.219.07.496.27.988.5 1.5-.39.523-.418.547-.844 1.125-.79 1.062-1.59 2.144-2.219 3-.398.543-.562.754-.781 1.062a1.441 1.441 0 0 0-.313.25.954.954 0 0 0-.124.157c-.286.425-.313.921-.25 1.312.035.219.105.426.187.625-.39.613-.496.773-1 1.563-.543.851-1.082 1.718-1.5 2.375-.195.304-.371.55-.5.75-.05.035-.11.078-.156.125a1.343 1.343 0 0 0-.375.937c0 .281.07.535.156.75.172.426.457.8.813 1.156.355.356.699.61 1.124.782.215.085.47.156.75.156.211 0 .481-.043.72-.188a.472.472 0 0 0 .062-.062l.062-.032c.035-.027.063-.062.094-.093l4.688-3.344c.222.078.433.133.656.156.129.012.27.012.406 0 .168.032.34.02.5-.031v2.344l-10.844 16.75a1.005 1.005 0 0 0-.027 1.015A.998.998 0 0 0 11 47h3.688c.343 0 .66-.18.843-.469L21 38v11c0 .55.45 1 1 1h3c.55 0 1-.45 1-1V38l5.469 8.531c.183.29.5.469.843.469H36a1 1 0 0 0 .844-1.531L26 28.719V22.75c.371-.273.684-.52 1.031-.781.508.215.996.386 1.469.437.617.07 1.29.024 1.813-.5.023-.023.042-.039.062-.062.41-.25.86-.574 1.531-1.063.907-.656 2.04-1.496 3.157-2.343A185.986 185.986 0 0 0 38.187 16c.907-.719 1.543-1.23 1.907-1.594.57-.57.683-1.367.593-2.094-.09-.726-.347-1.496-.75-2.312-.804-1.633-2.144-3.469-3.906-5.281L36 4.687C34.234 2.923 32.418 1.555 30.781.75c-.82-.402-1.605-.664-2.343-.75a3.373 3.373 0 0 0-.563-.031zM27.812 2c.083-.012.208-.023.407 0 .398.047.976.227 1.656.563 1.363.671 3.086 1.898 4.719 3.53 1.64 1.688 2.86 3.446 3.531 4.813.336.684.547 1.274.594 1.656.047.383-.051.458-.032.438-.136.137-.859.734-1.75 1.438a193.64 193.64 0 0 1-3.093 2.406c-1.11.84-2.207 1.672-3.094 2.312-.05.035-.059.04-.094.063-.058-.176-.172-.352-.25-.532v-.062c-.004-.008.004-.023 0-.031a.842.842 0 0 0-.093-.188 1.243 1.243 0 0 0-.063-.125l-.031-.031c-.016-.031-.016-.063-.032-.094-.68-1.32-1.824-2.793-3.28-4.25-1.458-1.457-2.93-2.601-4.25-3.281-.052-.027-.106-.035-.157-.063a1.302 1.302 0 0 0-.094-.062c-.02-.012-.043-.02-.062-.031a.918.918 0 0 0-.282-.094c-.18-.074-.355-.164-.53-.219.683-.945 1.253-1.785 2.374-3.281a251.12 251.12 0 0 1 2.375-3.125c.684-.879 1.266-1.574 1.407-1.719A.39.39 0 0 1 27.813 2zm-5.625 10.688c.981.578 2.16 1.472 3.313 2.624 1.18 1.18 2.078 2.36 2.656 3.344-.226.18-.484.375-.812.625-.219.164-.532.41-.782.594-.007.004-.023-.004-.03 0a.998.998 0 0 0-.438.344c-.532.39-1.02.734-1.594 1.156-1.031.754-2.066 1.504-2.875 2.094-.074.054-.086.043-.156.093-.016-.03-.016-.062-.032-.093-.398-.762-1.039-1.57-1.843-2.375-.793-.793-1.563-1.414-2.313-1.813.047-.066.043-.058.094-.125.625-.851 1.43-1.937 2.219-3 1.316-1.777 2.21-2.953 2.593-3.468zm-5.343 8.718c.406.266.847.598 1.343 1.094a8.01 8.01 0 0 1 1.125 1.406l-.28.188a1.01 1.01 0 0 0-.595.406l-3.843 2.75a3.675 3.675 0 0 0-.406-.5c-.157-.156-.336-.254-.5-.375.417-.656.957-1.527 1.5-2.375.835-1.305 1.32-2.066 1.656-2.594zM24 24.22v4.562a1.016 1.016 0 0 0 0 .407v5.093a.986.986 0 0 0 0 .5V48h-1V34.875a.668.668 0 0 0 0-.125.952.952 0 0 0 0-.469v-5.125a1.13 1.13 0 0 0 0-.281v-3.906c.293-.215.664-.504 1-.75zm-3 8.156v1.938L14.156 45h-1.312zm5 0L34.156 45h-1.312L26 34.312z"/></svg>