<svg xmlns="http://www.w3.org/2000/svg" viewBox="0 0 64 64"><path d="M60.398 28.488A9.454 9.454 0 0 1 54 31.16a23.004 23.004 0 0 1-6.785 23.957A23.001 23.001 0 1 1 10 31.16a9.472 9.472 0 0 1-6.398-2.672C-.7 24.191.25 16.281 5.719 10.808c5.472-5.468 13.383-6.417 17.68-2.117a9.587 9.587 0 0 1 2.671 7.079 23.172 23.172 0 0 1 11.852 0 9.64 9.64 0 0 1 2.68-7.079c4.296-4.3 12.207-3.351 17.68 2.118 5.468 5.472 6.417 13.382 2.116 17.68z" fill="#7e8189"/><path d="M58.281 10.809a16.48 16.48 0 0 0-8-4.5 3.006 3.006 0 0 0-2.976.968 3.006 3.006 0 0 0-.496 3.094 2.915 2.915 0 0 0 2.07 1.77c1.953.46 3.73 1.476 5.121 2.918a10.71 10.71 0 0 1 2.809 4.73c.18.695.601 1.3 1.191 1.711a2.995 2.995 0 0 0 3.445 0 3 3 0 0 0 1.176-3.238 16.603 16.603 0 0 0-4.34-7.453zm-52.801 0a16.463 16.463 0 0 1 8-4.5 3.009 3.009 0 0 1 2.977.968c.73.86.922 2.051.492 3.094a2.908 2.908 0 0 1-2.07 1.77 10.448 10.448 0 0 0-5.117 2.91 10.66 10.66 0 0 0-2.813 4.73A2.995 2.995 0 0 1 5.73 21.5a3 3 0 0 1-4.628-3.238 16.565 16.565 0 0 1 4.378-7.453zM55 38c0 12.703-10.297 23-23 23S9 50.703 9 38s10.297-23 23-23 23 10.297 23 23z" fill="#8b8e98"/><path d="M55 38c0 12.703-10.297 23-23 23S9 50.703 9 38s10.297-23 23-23 23 10.297 23 23z" fill="#8b8e98"/><path d="M10.672 46.621c-.832-3.531 4.219-5.793 7.629-6a19.475 19.475 0 0 1-.653-5c0-7 3.461-12.59 7.73-12.59 2.821 0 5.282 2.457 6.634 6.117C33.359 25.461 35.828 23 38.64 23c4.28 0 7.73 5.64 7.73 12.59 0 1.687-.219 3.367-.652 5 3.281.191 8.73 4.191 6.84 7.09C44.46 60.172 40.3 61 32 61s-19.64-7.148-21.328-14.379z" fill="#faefde"/><path d="M47.55 50.32a2.85 2.85 0 0 1 .24 3.95C42.468 60.488 38.511 61 32 61c-5 0-11.18-2.629-15.621-6.309a2.852 2.852 0 0 1-.996-2.117 2.853 2.853 0 0 1 .926-2.144l.132-.121a2.868 2.868 0 0 1 3.918.062c6.532 6.164 16.739 6.164 23.27 0a2.873 2.873 0 0 1 3.922-.062z" fill="#efd8be"/><path d="M64 20a17.02 17.02 0 0 0-5-9.871C53.14 4.262 44.57 3.309 39.89 8A10.392 10.392 0 0 0 37 14.52c-.5-.11-1-.192-1.5-.258h-.281a24.067 24.067 0 0 0-8.16.297A10.37 10.37 0 0 0 24.109 8C19.43 3.309 10.86 4.262 5 10.11-.86 15.96-1.79 24.52 2.89 29.2A10.14 10.14 0 0 0 8.75 32c-.059.238-.11.48-.16.719-.05.242-.07.261-.102.402-.027.14 0 0 0 0A24.065 24.065 0 0 0 8 38a23.84 23.84 0 0 0 1.738 9v.11c4.586 11.995 17.797 18.257 29.985 14.214C51.91 57.277 58.753 44.355 55.25 32a10.171 10.171 0 0 0 5.852-2.84A10.885 10.885 0 0 0 64 20zM32 60a22.005 22.005 0 0 1-20.23-13.371 7.825 7.825 0 0 1 6.59-5c.3-.016.578-.168.757-.41.176-.246.23-.559.153-.848a18.383 18.383 0 0 1-.622-4.793c0-6.277 3.082-11.59 6.73-11.59 2.27 0 4.45 2.09 5.692 5.461.145.395.52.66.942.66.418 0 .793-.265.937-.66C34.191 26.09 36.371 24 38.641 24c3.648 0 6.73 5.309 6.73 11.59a18.353 18.353 0 0 1-.621 4.789.992.992 0 0 0 .156.848.99.99 0 0 0 .754.414 7.867 7.867 0 0 1 6.59 4.937A22.003 22.003 0 0 1 32 60zm21.922-29.84a1 1 0 0 0-.91 1.3 21.992 21.992 0 0 1 .129 12.618A9.738 9.738 0 0 0 47 39.79c.281-1.383.422-2.789.422-4.2C47.379 28 43.539 22 38.64 22c-2.621 0-5 1.719-6.63 4.691-1.632-3-4-4.691-6.632-4.691-4.899 0-8.73 6-8.73 13.59a20.78 20.78 0 0 0 .421 4.2 9.645 9.645 0 0 0-6.21 4.3 21.85 21.85 0 0 1-.348-10.79c.047-.25.117-.491.18-.741a21.915 21.915 0 0 1 1.957-5.04 1.012 1.012 0 0 0-1.758-1 23.841 23.841 0 0 0-1.551 3.583 8.264 8.264 0 0 1-5-2.313A8.928 8.928 0 0 1 2 20.211a14.974 14.974 0 0 1 4.441-8.691 15.02 15.02 0 0 1 8.688-4.442c.457-.05.914-.078 1.371-.078a8.571 8.571 0 0 1 6.2 2.398 8.55 8.55 0 0 1 2.378 6.364c-.008.316.133.617.379.816.25.195.578.266.883.184a22.111 22.111 0 0 1 10.21-.262l.72.172a21.717 21.717 0 0 1 5 1.867.996.996 0 0 0 1.328-.43.998.998 0 0 0-.399-1.34A23.712 23.712 0 0 0 38.941 15a8.38 8.38 0 0 1 2.368-5.602C45.21 5.5 52.512 6.45 57.579 11.52A14.993 14.993 0 0 1 62 20.21a8.92 8.92 0 0 1-2.32 7.58 8.44 8.44 0 0 1-5.758 2.37z" fill="#8d6c9f"/><path d="M46.719 19a.997.997 0 0 0-1.403.176 1 1 0 0 0 .172 1.402 23.152 23.152 0 0 1 2.282 2 .996.996 0 0 0 1.359-.031.996.996 0 0 0 .07-1.356A24.03 24.03 0 0 0 46.72 19zM32 53c-.55 0-1 .45-1 1v2c0 .55.45 1 1 1s1-.45 1-1v-2c0-.55-.45-1-1-1zm6 .078a1 1 0 0 0-1.93.524l.52 1.93A1.007 1.007 0 0 0 38.53 55zM22.75 50.52a1.017 1.017 0 0 0-.762-.102c-.258.07-.476.242-.61.473l-1 1.73a1.001 1.001 0 0 0 1.731 1l1-1.73a1 1 0 0 0-.359-1.371zm19.871.37a.998.998 0 0 0-1.344-.328.996.996 0 0 0-.386 1.329l1 1.73a1 1 0 0 0 1.73-1zM27.21 52.371a1.001 1.001 0 0 0-1.222.707L25.468 55a1.001 1.001 0 0 0 1.227 1.258.999.999 0 0 0 .703-.738l.524-1.93a1.003 1.003 0 0 0-.711-1.219z" fill="#8d6c9f"/></svg>