<svg xmlns="http://www.w3.org/2000/svg" viewBox="0 0 48 48"><path d="M38 28c0 7.73-6.27 14-14 14s-14-6.27-14-14 6.27-14 14-14 14 6.27 14 14z" fill="#455a64"/><path d="M42.7 9.3c3.698 3.7 4.402 9 1.5 11.9-2.9 2.902-8.2 2.198-11.9-1.5-3.698-3.7-4.402-9-1.5-11.9 2.9-2.902 8.2-2.198 11.9 1.5zm-37.4 0c-3.698 3.7-4.402 9-1.5 11.9 2.9 2.902 8.2 2.198 11.9-1.5 3.698-3.7 4.402-9 1.5-11.9C14.3 4.899 9 5.603 5.3 9.3z" fill="#455a64"/><path d="M35.2 30.602c-1.098-1.102-2-.903-3.098-.301 1.199-2.602 2-6 2-7.602 0-2.8-2.301-5-5-5-2.801 0-5 2.301-5 5 0-2.8-2.301-5-5-5-2.801 0-5 2.301-5 5 0 1.602.796 5 2 7.602-1.204-.602-2.102-.7-3.102.3C10.5 33.102 17.2 41 24.2 41c7 0 13.6-7.898 11-10.398z" fill="#ffe0b2"/><path d="M27.102 34.398c0-1.101-1.254-2-2.801-2-1.547 0-2.801.899-2.801 2 0 1.106 1.254 2 2.8 2 1.548 0 2.802-.894 2.802-2zM28 28c0-1.656-.45-3-1-3s-1 1.344-1 3 .45 3 1 3 1-1.344 1-3zm-6 0c0-1.656-.45-3-1-3s-1 1.344-1 3 .45 3 1 3 1-1.344 1-3z" fill="#263238"/><path d="M25.2 34.2c0-.497-.536-.9-1.2-.9-.664 0-1.2.403-1.2.9 0 .495.536.902 1.2.902.664 0 1.2-.407 1.2-.903z" fill="#607d8b"/></svg>