<svg xmlns="http://www.w3.org/2000/svg" viewBox="0 0 40 40"><path d="M10 18h20v12H10z" fill="#4788c7"/><path d="M23 26c0 2.422-1.344 4-3 4s-3-1.578-3-4v-3.309h6z" fill="#b6dcfe"/><path d="M4.512 38.5c.297-6.234 6.117-11.21 11.562-12.004h.446c.195 2.52 1.863 4.004 3.48 4.004s3.285-1.484 3.48-4H24c5.473.871 11.203 5.574 11.488 12z" fill="#dff0fe"/><path d="M16.074 27c.38 2.523 2.18 4 3.926 4s3.547-1.477 3.926-4c5.168.855 10.48 5.129 11.027 11H5.051c.57-5.715 5.953-10.223 11.023-11M24 26h-1c0 2.422-1.484 4-3 4s-3-1.578-3-4h-1c-5.805.848-12 6.23-12 13h32c0-6.77-5.867-12.031-12-13z" fill="#4788c7"/><path d="M20 26c-3.574 0-8-5.156-8-10V6h16v9.95C28 20.792 23.574 26 20 26z" fill="#fff"/><path d="M20 22.5c-1.684 0-2.242-.836-2.426-1.29.524-.343 1.211-.71 1.551-.71.293 0 .367.352.383.422l.988-.031c.02-.145.106-.391.473-.391.46 0 1.117.422 1.488.703-.129.434-.613 1.297-2.457 1.297z" fill="#4788c7"/><path d="M21 20.95a.176.176 0 0 1-.074.054s.012-.004.043-.004c.187 0 .527.16.851.367-.218.293-.715.633-1.82.633-.977 0-1.484-.316-1.742-.621.37-.215.719-.371.867-.379a.135.135 0 0 1-.05-.012L21 20.95m-.031-.95c-.89 0-.969.844-.969.844S19.875 20 19.125 20 17 21 17 21s.281 2 3 2c2.906 0 3-2 3-2s-1.14-1-2.031-1z" fill="#4788c7"/><path d="M21 14s1.387 1 3 1 3-.223 3-1-.969-1.309-2.582-1.309C22.801 12.691 21 14 21 14z" fill="#dff0fe"/><path d="M25 14c0-.602-.398-1-1-1s-1 .398-1 1 .398 1 1 1 1-.398 1-1" fill="#4788c7"/><path d="M21.5 11.5c1.04-.805 2.488-1 5.5-1m-8.5 1c-1.04-.805-2.488-1-5.5-1" fill="none" stroke-linecap="round" stroke="#4788c7" stroke-miterlimit="10"/><path d="M28 14c.094-.195 0-1.043 0-1.043S27.203 12 25 12c-2.59 0-4 2-4 2s1.363-.563 2.98-.563c1.235 0 3.641-.019 4.02.563z" fill="#4788c7"/><path d="M19 14s-1.387 1-3 1-3-.223-3-1 .969-1.309 2.582-1.309C17.199 12.691 19 14 19 14z" fill="#dff0fe"/><path d="M15 14c0-.602.398-1 1-1s1 .398 1 1-.398 1-1 1-1-.398-1-1" fill="#4788c7"/><path d="M12 14c-.094-.195 0-1.043 0-1.043S12.797 12 15 12c2.59 0 4 2 4 2s-1.45-.645-3.063-.645c-1.234 0-3.558.063-3.937.645z" fill="#4788c7"/><path d="M28.098 38.5c-.32-.145-1.598-.813-1.598-2.5 0-1.898.84-2.383.875-2.402a.508.508 0 0 0 .262-.47.498.498 0 0 0-.305-.437c-.074-.03-1.832-.785-1.832-2.691 0-1.91 1.652-2.523 1.668-2.527a.5.5 0 0 0 .328-.43.486.486 0 0 0-.25-.477c-1.95-1.105-1.816-2.996-1.766-3.398.168-.293.34-.547.504-.79.813-1.202 1.516-2.241 1.516-6.378 0-6.215-2.594-9.5-7.5-9.5-4.906 0-7.5 3.285-7.5 9.5 0 4.137.703 5.176 1.516 6.379.164.242.336.496.504.789a3.371 3.371 0 0 1-1.766 3.395.495.495 0 0 0-.25.48c.016.195.144.36.328.426.066.027 1.668.64 1.668 2.531 0 1.926-1.813 2.684-1.832 2.691a.498.498 0 0 0-.031.91c.023.016.863.5.863 2.399 0 1.68-1.281 2.355-1.602 2.5H.52c.113-1.422.73-2.04 1.554-2.863l.285-.29a.502.502 0 0 0-.214-.827C2.078 34.5.5 33.984.5 32.07c0-1.89 2.117-2.586 2.14-2.593a.505.505 0 0 0 .348-.43.506.506 0 0 0-.261-.488C2.68 28.535 1.5 27.848 1.5 26c0-1.809 2.113-2.598 2.133-2.605a.497.497 0 1 0 .02-.934C3.608 22.44 2.5 21.934 2.5 20c0-1.902 1.465-2.465 1.59-2.508a.505.505 0 0 0 .39-.351c.012-.043 1.352-4.543 3.95-8.883C11.852 2.3 16.2 1.5 20 1.5c3.8 0 8.148.8 11.566 6.75 2.606 4.348 3.942 8.848 3.954 8.89a.505.505 0 0 0 .39.352c.125.043 1.59.606 1.59 2.508 0 1.934-1.11 2.441-1.156 2.46a.513.513 0 0 0-.305.477.508.508 0 0 0 .328.458c.02.007 2.133.8 2.133 2.605 0 1.848-1.18 2.535-1.23 2.563a.51.51 0 0 0-.254.488.512.512 0 0 0 .343.426c.086.03 2.141.718 2.141 2.593 0 1.918-1.578 2.434-1.645 2.453a.502.502 0 0 0-.21.828l.285.286c.82.824 1.437 1.445 1.55 2.863z" fill="#98ccfd"/><path d="M20 2c3.656 0 7.84.773 11.14 6.516 2.567 4.28 3.887 8.722 3.9 8.765.105.352.39.614.733.692.16.062 1.227.539 1.227 2.027 0 1.547-.777 1.965-.84 1.996a.997.997 0 0 0-.62.942c.007.414.269.78.651.925.02.004 1.809.688 1.809 2.137 0 1.531-.941 2.105-.965 2.121a1.002 1.002 0 0 0 .168 1.828c.074.028 1.797.613 1.797 2.121 0 1.504-1.164 1.934-1.285 1.973a1 1 0 0 0-.43 1.656l.29.29c.667.671 1.14 1.144 1.331 2.011H28.207c-.336-.172-1.207-.734-1.207-2 0-1.406.496-1.871.61-1.957.37-.148.57-.484.578-.887.011-.41-.286-.765-.66-.926C27.464 32.203 26 31.563 26 30a2.18 2.18 0 0 1 1.336-2.059.999.999 0 0 0 .156-1.812c-1.562-.887-1.574-2.324-1.527-2.8.14-.235.281-.45.433-.673C27.223 21.438 28 20.29 28 16c0-6.45-2.84-10-8-10s-8 3.55-8 10c0 4.29.777 5.438 1.602 6.656.148.223.293.438.433.672.043.488.031 1.918-1.527 2.8a1.01 1.01 0 0 0-.504.958c.031.39.293.723.66.855A2.185 2.185 0 0 1 14 30c0 1.563-1.465 2.203-1.52 2.227-.382.156-.68.511-.671.925.007.403.21.743.582.891.113.086.609.55.609 1.957a2.17 2.17 0 0 1-1.207 2h-10.7c.192-.867.665-1.34 1.333-2.012l.289-.289a.996.996 0 0 0 .25-.937 1.004 1.004 0 0 0-.664-.715C2.164 34.004 1 33.574 1 32.07c0-1.508 1.723-2.093 1.79-2.117.382-.121.655-.46.694-.86a1.006 1.006 0 0 0-.52-.972C2.955 28.117 2 27.555 2 26c0-1.45 1.79-2.133 1.8-2.137.391-.14.669-.5.677-.914a.983.983 0 0 0-.61-.941C3.777 21.965 3 21.547 3 20c0-1.488 1.066-1.965 1.227-2.027.343-.078.628-.34.734-.692.012-.043 1.324-4.476 3.906-8.785C12.16 2.773 16.344 2 20 2m0-1c-3.137 0-8.2.39-12 7-2.664 4.453-4 9-4 9-.094 0-2 .672-2 3s1.465 2.922 1.465 2.922S1 23.809 1 26s1.488 3 1.488 3S0 29.793 0 32.07C0 34.402 2 35 2 35c-1.047 1.07-2 1.809-2 4h12s2-.715 2-3-1.145-2.848-1.145-2.848S15 32.285 15 30s-2-3-2-3c2.5-1.414 2-4 2-4-.977-1.738-2-2.047-2-7 0-5.297 1.965-9 7-9s7 3.703 7 9c0 4.953-1.023 5.262-2 7 0 0-.5 2.586 2 4 0 0-2 .715-2 3s2.145 3.152 2.145 3.152S26 33.715 26 36s2 3 2 3h12c0-2.191-.953-2.93-2-4 0 0 2-.598 2-2.93 0-2.277-2.488-3.07-2.488-3.07S39 28.191 39 26s-2.465-3.078-2.465-3.078S38 22.328 38 20c0-2.328-1.906-3-2-3 0 0-1.336-4.547-4-9-3.8-6.61-8.863-7-12-7z" fill="#4788c7"/><path d="M11.77 38l-10.676.004L1 39h8.988z" fill="#4788c7"/><path d="M7.5 18a.499.499 0 1 0 0-1c-.875 0-2.5.672-2.5 3s1.605 2.922 1.605 2.922S4 23.809 4 26s1.633 3 1.633 3S3 29.723 3 32c0 2.332 2.145 3 2.145 3C4.098 36.07 3 36.809 3 39h1c0-1.617.898-2.34 1.57-3.012l.29-.289c.242-.25.34-.61.25-.949a.993.993 0 0 0-.68-.707C5.418 34.039 4 33.57 4 32c0-1.504 1.867-2.023 1.934-2.047a1 1 0 0 0 .683-.844 1.014 1.014 0 0 0-.492-.98C6.085 28.105 5 27.53 5 26c0-1.45 1.934-2.133 1.945-2.137.39-.14.668-.5.676-.914a.981.981 0 0 0-.613-.941C6.922 21.965 6 21.547 6 20c0-1.488 1.188-2 1.5-2zm4 2a.499.499 0 1 0 0-1c-.875 0-2.5.672-2.5 3s1.605 2.922 1.605 2.922S8 25.809 8 28s1.633 3 1.633 3S7 31.723 7 34c0 2.332 2.145 3 2.145 3-.641.652-1.297 1.188-1.711 2H8.64c.289-.395.629-.71.93-1.012l.288-.289a1 1 0 0 0-.43-1.656C9.419 36.039 8 35.57 8 34c0-1.504 1.867-2.023 1.934-2.047a1 1 0 0 0 .683-.844 1.014 1.014 0 0 0-.492-.98C10.085 30.105 9 29.53 9 28c0-1.45 1.934-2.133 1.945-2.137.39-.14.668-.5.676-.914a.981.981 0 0 0-.613-.941C10.922 23.965 10 23.547 10 22c0-1.488 1.188-2 1.5-2zm16.73 18l10.676.004L39 39h-8.988z" fill="#4788c7"/><path d="M32.5 18a.498.498 0 0 1-.5-.5c0-.277.223-.5.5-.5.875 0 2.5.672 2.5 3s-1.605 2.922-1.605 2.922S36 23.809 36 26s-1.633 3-1.633 3S37 29.723 37 32c0 2.332-2.145 3-2.145 3C35.902 36.07 37 36.809 37 39h-1c0-1.617-.898-2.34-1.57-3.012l-.29-.289a.998.998 0 0 1-.25-.949.993.993 0 0 1 .68-.707C34.582 34.039 36 33.57 36 32c0-1.504-1.867-2.023-1.934-2.047a1 1 0 0 1-.683-.844 1.014 1.014 0 0 1 .492-.98C33.915 28.105 35 27.53 35 26c0-1.45-1.934-2.133-1.945-2.137-.39-.14-.668-.5-.676-.914a.981.981 0 0 1 .613-.941C33.078 21.965 34 21.547 34 20c0-1.488-1.188-2-1.5-2zm-4 2a.498.498 0 0 1-.5-.5c0-.277.223-.5.5-.5.875 0 2.5.672 2.5 3s-1.605 2.922-1.605 2.922S32 25.809 32 28s-1.633 3-1.633 3S33 31.723 33 34c0 2.332-2.145 3-2.145 3 .641.652 1.297 1.188 1.711 2H31.36c-.289-.395-.629-.71-.93-1.012l-.288-.289a1 1 0 0 1 .43-1.656C30.581 36.039 32 35.57 32 34c0-1.504-1.867-2.023-1.934-2.047a1 1 0 0 1-.683-.844 1.014 1.014 0 0 1 .492-.98C29.915 30.105 31 29.53 31 28c0-1.45-1.934-2.133-1.945-2.137-.39-.14-.668-.5-.676-.914a.981.981 0 0 1 .613-.941C29.078 23.965 30 23.547 30 22c0-1.488-1.188-2-1.5-2z" fill="#4788c7"/></svg>