<svg xmlns="http://www.w3.org/2000/svg" viewBox="0 0 50 50"><path d="M9.5 9.969a1.99 1.99 0 0 0-1.063.469S0 17.07 0 29c0 3.746 1.297 7.047 3.625 9.375C5.953 40.703 9.254 42 13 42c4.984 0 9.512-2.348 12-6.188C27.488 39.653 32.016 42 37 42c3.746 0 7.047-1.297 9.375-3.625C48.703 36.047 50 32.746 50 29c0-11.922-8.375-18.563-8.375-18.563-.36-.3-.813-.468-1.281-.468a2.004 2.004 0 0 0-1.88 1.37 2.009 2.009 0 0 0 .692 2.223S46 18.922 46 29c0 2.855-.918 5.043-2.438 6.563C42.044 37.081 39.855 38 37 38c-5.71 0-10-3.492-10-9 0-2.035.188-3.938.781-5.063a2.017 2.017 0 0 0-.379-2.39A2.019 2.019 0 0 0 25 21.25a2.019 2.019 0 0 0-2.402.297 2.017 2.017 0 0 0-.38 2.39C22.814 25.063 23 26.965 23 29c0 5.508-4.29 9-10 9-2.855 0-5.043-.918-6.563-2.438C4.918 34.044 4 31.855 4 29c0-10.07 6.906-15.438 6.906-15.438a1.993 1.993 0 0 0 .684-2.234 1.997 1.997 0 0 0-1.902-1.36 1.502 1.502 0 0 0-.188 0z"/></svg>