<svg xmlns="http://www.w3.org/2000/svg" viewBox="0 0 50 50"><path d="M8.844 9.969c-.2.031-.383.117-.531.25 0 0-8.344 7.281-8.344 18.781 0 7.164 5.867 13.031 13.031 13.031 5.371 0 10.016-3.297 12-7.968 1.984 4.671 6.629 7.968 12 7.968 7.164 0 13.031-5.867 13.031-13.031 0-11.5-8.343-18.781-8.343-18.781a1.036 1.036 0 0 0-.876-.25 1.04 1.04 0 0 0-.832.746c-.105.39.024.805.333 1.066 0 0 7.656 6.719 7.656 17.219 0 6.035-4.934 10.969-10.969 10.969-6.035 0-10.969-4.934-10.969-10.969 0-2.066.133-4.129.875-5.531.246-.328.274-.77.07-1.13a1.04 1.04 0 0 0-1.003-.519c-.407.043-.754.32-.88.711-.038.07-.058.145-.093.219-.035-.074-.055-.148-.094-.219a1.036 1.036 0 0 0-.879-.71 1.034 1.034 0 1 0-.934 1.648c.743 1.402.876 3.465.876 5.531 0 6.035-4.934 10.969-10.969 10.969-6.035 0-10.969-4.934-10.969-10.969 0-10.5 7.656-17.219 7.656-17.219.36-.3.473-.804.278-1.23-.2-.426-.66-.664-1.121-.582z"/></svg>