<svg xmlns="http://www.w3.org/2000/svg" viewBox="0 0 32 32"><path d="M2 7v7h1c1.191 0 2 .809 2 2 0 1.191-.809 2-2 2H2v7h14.063c.5 3.934 3.87 7 7.937 7 4.406 0 8-3.594 8-8 0-3.297-2.02-6.152-4.875-7.375A1.577 1.577 0 0 1 27 16c0-1.191.809-2 2-2h1V7zm2 2h24v3.188c-1.715.449-3 1.957-3 3.812v.063A7.723 7.723 0 0 0 24 16c-4.066 0-7.438 3.066-7.938 7H4v-3.188c1.715-.449 3-1.957 3-3.812 0-1.855-1.285-3.363-3-3.813zm20 9c3.324 0 6 2.676 6 6s-2.676 6-6 6-6-2.676-6-6 2.676-6 6-6zm-2.281 2.281L20.28 21.72 22.563 24l-2.282 2.281 1.438 1.438L24 25.437l2.281 2.282 1.438-1.438L25.437 24l2.282-2.281-1.438-1.438L24 22.563z"/></svg>