<svg xmlns="http://www.w3.org/2000/svg" viewBox="0 0 40 40"><path d="M36.5 38.5a1.973 1.973 0 0 1-1.41-.586L17.7 19.691l1.98-1.984 18.242 17.39c.773.77.773 2.04-.008 2.817a1.982 1.982 0 0 1-1.414.586z" fill="#98ccfd"/><path d="M19.691 18.406l17.872 17.035a1.507 1.507 0 0 1 0 2.121A1.5 1.5 0 0 1 36.5 38a1.48 1.48 0 0 1-1.043-.422L18.398 19.7l1.293-1.293m-.02-1.398L17 19.684 34.734 38.27A2.49 2.49 0 0 0 36.5 39c.64 0 1.281-.242 1.77-.73a2.506 2.506 0 0 0 0-3.536z" fill="#4788c7"/><path d="M14 26.5C7.105 26.5 1.5 20.895 1.5 14S7.105 1.5 14 1.5 26.5 7.105 26.5 14 20.895 26.5 14 26.5z" fill="#dff0fe"/><path d="M14 2c6.617 0 12 5.383 12 12s-5.383 12-12 12S2 20.617 2 14 7.383 2 14 2m0-1C6.82 1 1 6.82 1 14s5.82 13 13 13 13-5.82 13-13S21.18 1 14 1z" fill="#4788c7"/><path d="M14 20.5c-5.063 0-9.383-5.207-10.375-6.5.996-1.293 5.32-6.5 10.375-6.5 5.063 0 9.383 5.207 10.375 6.5-.996 1.293-5.32 6.5-10.375 6.5z" fill="#fff"/><path d="M14 8c4.5 0 8.45 4.398 9.738 6-1.285 1.605-5.226 6-9.738 6-4.5 0-8.45-4.398-9.738-6C5.547 12.395 9.488 8 14 8m0-1C7.926 7 3 14 3 14s4.926 7 11 7 11-7 11-7-4.926-7-11-7z" fill="#4788c7"/><path d="M19 14a5 5 0 1 1-10 0 5 5 0 0 1 10 0z" fill="#98ccfd"/><path d="M16 14a1.999 1.999 0 1 1-4 0 1.999 1.999 0 1 1 4 0z" fill="#4788c7"/><path d="M18 11a1.999 1.999 0 1 1-4 0 1.999 1.999 0 1 1 4 0z" fill="#fff"/></svg>