<svg xmlns="http://www.w3.org/2000/svg" viewBox="0 0 48 48"><path d="M44 24c0 11.047-8.953 20-20 20S4 35.047 4 24 12.953 4 24 4s20 8.953 20 20z" fill="#ffe082"/><path d="M24 4c-6.543 0-12.336 3.156-15.984 8.016C11.359 9.508 15.496 8 20 8c11.047 0 20 8.953 20 20 0 4.504-1.508 8.64-4.016 11.984C40.844 36.336 44 30.543 44 24c0-11.047-8.953-20-20-20z" fill="#ffd54f"/><path d="M16 26.5c0 1.379-1.121 2.5-2.5 2.5a2.502 2.502 0 0 1-2.5-2.5c0-1.379 1.121-2.5 2.5-2.5s2.5 1.121 2.5 2.5zm23 5c0 1.379-1.121 2.5-2.5 2.5a2.502 2.502 0 0 1-2.5-2.5c0-1.379 1.121-2.5 2.5-2.5s2.5 1.121 2.5 2.5zM25 15c0 2.21-1.79 4-4 4s-4-1.79-4-4 1.79-4 4-4 4 1.79 4 4zm1 17.5a3.5 3.5 0 1 1-7 0 3.5 3.5 0 1 1 7 0z" fill="#ffca28"/><path d="M22.5 18.5a3.5 3.5 0 1 1 0-7c.168 0 .328.027.488.05A3.943 3.943 0 0 0 21 11c-2.21 0-4 1.79-4 4s1.79 4 4 4c.73 0 1.402-.21 1.988-.55-.16.023-.32.05-.488.05zm13.5 13a2.5 2.5 0 0 1 1.5-2.29A2.497 2.497 0 0 0 34 31.5a2.497 2.497 0 0 0 3.5 2.29A2.5 2.5 0 0 1 36 31.5zm-23-5a2.5 2.5 0 0 1 1.5-2.29A2.497 2.497 0 0 0 11 26.5a2.497 2.497 0 0 0 3.5 2.29A2.5 2.5 0 0 1 13 26.5zm8 6c0-1.582 1.059-2.902 2.5-3.34a3.502 3.502 0 0 0-1-.16 3.5 3.5 0 1 0 0 7c.352 0 .684-.066 1-.16-1.441-.438-2.5-1.758-2.5-3.34z" fill="#e5b223"/></svg>