<svg xmlns="http://www.w3.org/2000/svg" viewBox="0 0 24 24"><path d="M7.7 3.5L2 9.102 3.398 10.5l5.704-5.7c1.199-1.198 3.097-1.198 4.199 0l2.8 2.802c1.2 1.199 1.2 3.097 0 4.199l-2.8 2.8a.972.972 0 0 1-1.403 0 .972.972 0 0 1 0-1.402l1.403-1.398c1.199-1.2 1.199-3.102 0-4.2-1.2-1.101-3.102-1.203-4.2 0l-2.8 2.797c-1.903 1.903-1.903 5.102 0 7.102l2.8 2.8c1.899 1.9 5.098 1.9 7.098 0l5.7-5.698-1.399-1.403L14.7 19c-1.2 1.2-3.098 1.2-4.2 0l-2.8-2.8c-1.2-1.2-1.2-3.098 0-4.2l2.8-2.8a.967.967 0 0 1 1.398 0c.403.402.403 1 0 1.402L10.5 12c-1.2 1.2-1.2 3.102 0 4.2 1.2 1.1 3.102 1.198 4.2 0l2.8-2.802c1.898-1.898 1.898-5.097 0-7.097L14.7 3.5c-1.9-2-5.098-2-7 0z"/></svg>