<svg xmlns="http://www.w3.org/2000/svg" viewBox="0 0 50 50"><path d="M31.969 0C26.418-.035 19.28 2.602 11.875 10.188 4.66 17.605 1.711 24.348.594 29.25c-1.117 4.902-.375 8.094-.375 8.094a1.013 1.013 0 0 0 1.968-.469s-.66-2.64.376-7.188c.41-1.808 1.109-3.925 2.218-6.25.008-.011.024-.019.032-.03.117-.095.214-.212.28-.345 4.188-7.742 10.282-12.48 15.938-14.656C26.688 6.23 31.797 6.758 34 9c2.105 2.148 2.86 5.16 2.156 8.75-.703 3.59-2.93 7.707-6.875 11.75-1.27 1.309-2.226 1.125-2.5.875-.136-.125-.258-.29-.187-.719.066-.422.398-1.086 1.125-1.843v-.032c.199-.199.304-.304.281-.312.094-.051.176-.114.25-.188 1.742-1.898 3.336-4.422 4.031-7.093.696-2.672.407-5.606-1.75-7.875a6.626 6.626 0 0 0-4.437-2.063c-1.586-.098-3.172.29-4.688.938-3.023 1.292-5.765 3.601-7.5 5.437h-.031C2.941 27.675 2.656 40.035 9.094 46.688c4.554 4.667 16.39 6.074 29.031-6.876 7.215-7.417 10.164-14.16 11.281-19.062 1.117-4.902.375-8.094.375-8.094a1.013 1.013 0 0 0-1.968.469s.66 2.64-.376 7.188a29.087 29.087 0 0 1-1.28 4.156c0 .004-.032-.004-.032 0a.959.959 0 0 0-.219.406c-4.445 9.332-11.054 14.492-17.125 16.688-6.07 2.195-11.578 1.273-13.781-.97-2.09-2.136-2.633-4.972-1.719-8.468.914-3.496 3.38-7.563 7.344-11.625 1.27-1.309 2.227-1.125 2.5-.875.137.125.258.29.188.719-.07.43-.38 1.105-1.125 1.875-.204.203-.329.308-.313.312a.913.913 0 0 0-.219.188c-1.742 1.898-3.336 4.422-4.031 7.093-.695 2.672-.406 5.606 1.75 7.875a6.626 6.626 0 0 0 4.438 2.063c1.585.098 3.171-.29 4.687-.938 3.02-1.289 5.766-3.574 7.5-5.406l.031-.031C47.051 22.332 47.34 9.961 40.906 3.312 39.2 1.563 36.476.273 33.063.033A19.986 19.986 0 0 0 31.968 0zm-.657 2c3.766-.121 6.649 1.145 8.157 2.688C45.027 10.434 45.14 21.453 34.594 32h-.032c-1.566 1.66-4.203 3.84-6.843 4.969-1.32.562-2.621.855-3.782.781-1.16-.074-2.19-.46-3.125-1.438-1.644-1.73-1.828-3.773-1.25-6 .579-2.226 2.004-4.55 3.563-6.25l-.031-.03c.195-.18.445-.384.5-.438h.031c.953-.98 1.5-1.973 1.656-2.938.157-.965-.148-1.93-.812-2.531-1.324-1.203-3.551-.82-5.282.969-4.136 4.238-6.804 8.554-7.843 12.531-1.04 3.977-.36 7.71 2.25 10.375 3.097 3.156 9.297 3.816 15.875 1.438a26.691 26.691 0 0 0 3.343-1.5c-10.48 8.457-19.207 6.523-22.28 3.374-5.56-5.746-5.669-16.765 4.78-27.312 1.567-1.66 4.235-3.84 6.876-4.969 1.32-.562 2.62-.855 3.78-.781 1.16.074 2.16.46 3.095 1.438 1.644 1.73 1.859 3.773 1.28 6-.577 2.226-2.034 4.55-3.593 6.25l.031.03c-.187.177-.449.387-.5.438-.953.98-1.5 1.973-1.656 2.938-.156.965.148 1.93.813 2.531 1.324 1.203 3.55.82 5.28-.969 4.157-4.258 6.61-8.695 7.407-12.781.797-4.086-.121-7.879-2.719-10.531C33.856 6.016 31.621 5.168 29 5c-2.621-.168-5.598.355-8.656 1.531-.973.375-1.957.832-2.938 1.344C22.66 3.699 27.453 2.121 31.313 2z"/></svg>