<svg xmlns="http://www.w3.org/2000/svg" viewBox="0 0 26 26"><path d="M16.438 0c-2.801.102-6.356 1.523-10.125 5.406-7.7 7.899-6.22 14.188-6.22 14.188s-.8-5.5 6.5-13c3.803-3.899 8.51-5.18 11.407-2.282 2.602 2.602 2.21 7-2.188 11.5-1.699 1.602-3.519.18-1.718-1.718.199-.2.375-.399.531-.594 1.672-1.969 2.96-5.008.969-7-2.399-2.5-6.48.414-8.281 2.313-5.7 5.898-5.825 12.195-2.625 15.593 2.199 2.2 8.207 3.082 14.906-3.718 7.699-7.9 6.218-14.188 6.218-14.188s.801 5.5-6.5 13c-3.8 3.898-8.507 5.21-11.406 2.313-2.601-2.602-2.21-7 2.188-11.5 1.8-1.7 3.613-.305 1.812 1.593-.199.2-.375.399-.531.594-1.672 1.969-2.96 5.008-.969 7 2.399 2.5 6.383-.512 8.281-2.313 5.801-5.898 5.825-12.195 2.625-15.593C20.352.633 18.617-.078 16.438 0z"/></svg>