<svg xmlns="http://www.w3.org/2000/svg" viewBox="0 0 80 80"><path d="M33.785 12.422l-8.633 8.023c-.18.078-3.215 1.399-6.914 3.742-3.77 2.395-8.07 5.727-10.222 9.825A9.93 9.93 0 0 0 6 40v15c0 6.617 5.383 12 12 12h24c2.75 0 5-2.25 5-5 0-1.328-.543-2.527-1.398-3.426C47.59 57.746 49 55.781 49 53.5a5.471 5.471 0 0 0-1.266-3.5H51v5c0 1.645 1.355 3 3 3h5.129l.293-.5c.523-.898 1.465-1.5 2.578-1.5 1.113 0 2.055.602 2.578 1.5l.293.5H70c1.645 0 3-1.355 3-3V16c0-1.645-1.355-3-3-3h-5.129l-.293.5c-.523.898-1.465 1.5-2.578 1.5-1.113 0-2.055-.602-2.578-1.5l-.293-.5H54c-1.645 0-3 1.355-3 3v14H31.027l4.657-4.543c3.12-3.043 3.132-8.09.023-11.145zM54 15h4.188c.91 1.156 2.226 2 3.812 2 1.586 0 2.902-.844 3.813-2H70c.566 0 1 .434 1 1v39c0 .566-.434 1-1 1h-4.188c-.91-1.156-2.226-2-3.812-2-1.586 0-2.902.844-3.813 2H54c-.566 0-1-.434-1-1V41h10.5c3.027 0 5.5-2.473 5.5-5.5S66.527 30 63.5 30H53V16c0-.566.434-1 1-1zm-1 8c0 .55.45 1 1 1s1-.45 1-1-.45-1-1-1-1 .45-1 1zm18 0c0-.55-.45-1-1-1s-1 .45-1 1 .45 1 1 1 1-.45 1-1zm-37.25-7.813l.559.551a5.785 5.785 0 0 1-.024 8.29L26.11 32H63.5c1.945 0 3.5 1.555 3.5 3.5S65.445 39 63.5 39H51c-.55 0-1 .45-1 1s.45 1 1 1v7h-9v2h1.5c1.945 0 3.5 1.555 3.5 3.5S45.445 57 43.5 57H42v2c1.668 0 3 1.332 3 3s-1.332 3-3 3H18c-5.535 0-10-4.465-10-10V40c0-1.816.61-3.48 1.633-4.828l.055-.067.039-.078c1.816-3.53 5.918-6.824 9.585-9.152 3.665-2.324 6.84-3.703 6.84-3.703l.157-.07zM58 22c-.55 0-1 .45-1 1s.45 1 1 1 1-.45 1-1-.45-1-1-1zm4 0c-.55 0-1 .45-1 1s.45 1 1 1 1-.45 1-1-.45-1-1-1zm4 0c-.55 0-1 .45-1 1s.45 1 1 1 1-.45 1-1-.45-1-1-1zM43 39c-.55 0-1 .45-1 1s.45 1 1 1 1-.45 1-1-.45-1-1-1zm4 0c-.55 0-1 .45-1 1s.45 1 1 1 1-.45 1-1-.45-1-1-1z"/></svg>