<svg xmlns="http://www.w3.org/2000/svg" viewBox="0 0 40 40"><path d="M20 38.5C9.8 38.5 1.5 30.2 1.5 20S9.8 1.5 20 1.5 38.5 9.8 38.5 20 30.2 38.5 20 38.5z" fill="#dff0fe"/><path d="M20 2c9.926 0 18 8.074 18 18s-8.074 18-18 18S2 29.926 2 20 10.074 2 20 2m0-1C9.508 1 1 9.508 1 20s8.508 19 19 19 19-8.508 19-19S30.492 1 20 1z" fill="#4788c7"/><path d="M26.441 12.906c-7.543-7.125-18.285-4.457-22.91.168L2.47 14.137" fill="none" stroke="#4788c7" stroke-miterlimit="10"/><path d="M19.54 10.43c-10.372.293-16.083 9.777-16.083 16.316v1.508" fill="none" stroke="#4788c7" stroke-miterlimit="10"/><path d="M12.906 13.559c-7.125 7.543-4.457 18.285.168 22.91l1.063 1.062" fill="none" stroke="#4788c7" stroke-miterlimit="10"/><path d="M10.43 20.46c.293 10.372 9.777 16.083 16.316 16.083h1.508" fill="none" stroke="#4788c7" stroke-miterlimit="10"/><path d="M13.559 27.094c7.543 7.125 18.285 4.457 22.91-.168l1.062-1.063" fill="none" stroke="#4788c7" stroke-miterlimit="10"/><path d="M20.46 29.57c10.372-.293 16.083-9.777 16.083-16.316v-1.508" fill="none" stroke="#4788c7" stroke-miterlimit="10"/><path d="M27.094 26.441c7.125-7.543 4.457-18.285-.168-22.91L25.863 2.47" fill="none" stroke="#4788c7" stroke-miterlimit="10"/><path d="M29.57 19.54C29.277 9.167 19.793 3.456 13.254 3.456h-1.508" fill="none" stroke="#4788c7" stroke-miterlimit="10"/><path d="M20 29.5c-5.238 0-9.5-4.262-9.5-9.5s4.262-9.5 9.5-9.5 9.5 4.262 9.5 9.5-4.262 9.5-9.5 9.5z" fill="#fff"/><path d="M20 11c4.973 0 9 4.027 9 9s-4.027 9-9 9-9-4.027-9-9 4.027-9 9-9m0-1c-5.516 0-10 4.484-10 10s4.484 10 10 10 10-4.484 10-10-4.484-10-10-10z" fill="#4788c7"/><path d="M19.078 18.7c.043.01.094.019.14.019h.536l.101-.317.184 1.282.621-2.477a3.78 3.78 0 0 0 .07-.41c.043.004.086.008.122.008a31.322 31.322 0 0 1 .125.816 31.31 31.31 0 0 1-.434.149v7.671c-.074-.898-.105-2.168-.059-2.414.067-.261.02-.535-.039-.847a6.12 6.12 0 0 1-.12-1.18l-.993-.082c-.07.422-.535 3.676-.715 4.918zm.535-1.59h-1.082c.028-.262.067-.57.114-.883l.039.003c.27 0 .445-.171.539-.27l.011-.01c.2.413.403.921.446 1.206l.015.117zm.055-3.051l-.035-.02v-.082a3.34 3.34 0 0 1 0-.281h.222l-.007.422-.086.086v.207l-.032.03z" fill="#4788c7"/><path d="M19.523 19.594l.188 1.312-.273-.02.085-1.292M18.781 13h-.086l-.086.781v.09h-.086v.348c-.09 0-.09 0-.175.086 0 .086-.086.261-.086.347 0 .348 0 .696.347.696.086 0 .172-.086.262-.086v.347c-.062.063-.125.125-.183.125-.028 0-.051-.011-.079-.039-.261 0-.347-.172-.261-.347 0 0-.086 0-.086.09-.086.519-.262 1.648-.262 2.171 0 .348.348.61.434.61h.175l-.523 8.086s.176.433.348.433c.347 0 .609-.347.609-.347s.695-4.868.785-5.391c0 1.043.262 1.566.172 1.914-.086.348 0 2.871.176 3.477 0 0 .695.09.87.09.161.023.306.03.43.03.34 0 .524-.077.524-.206 0-.086-.52-.086-.957-.524V18.13s.262-.086.348-.172c.09-.09.09-.262.09-.348 0-.09-.262-1.652-.262-1.742 0-.172-.086-.258-.348-.347-.09-.086-.695-.348-.695-.348V15h-.09v-.176c.176-.172.176-.433.176-.433.086-.086.086-.172.086-.348v-.086c0-.262.086-.785-.348-.785 0 0 0-.086-.086-.086-.059-.008-.11-.008-.16-.008-.7 0-.625.555-.625.879 0 0-.086 0-.086.086s0 .262.176.348l.086.523c.261.086.261.172.261.172h-.09l.176.348.262-.258s.172.086.262.086c.172.52.086 1.476 0 1.824-.09-.61-.785-2.086-1.043-2.172 0 0-.176.086-.262.172.086-.348 0-.434 0-.52l-.176-.175h.086c.09 0 .09-.172 0-.172h-.086v-.348h.086l.09-.785zm2.09 3.305s-.262 0-.348-.086v-.176s.348.086.348.262zm-1.652 1.914s-.09 0-.09-.09c.09-.172 0-.434-.086-.52h.262c.086.172.172.348.086.61zm-.785-2.676v.066-.066zm.87 2.55v.079-.079z" fill="#4788c7"/></svg>