<svg xmlns="http://www.w3.org/2000/svg" viewBox="0 0 50 50"><path d="M25 1C11.758 1 1 11.758 1 25c0 7.984 3.93 15.043 9.938 19.406.03.024.062.043.093.063C14.973 47.305 19.781 49 25 49c12.34 0 22.516-9.355 23.844-21.344v-.093c.09-.848.156-1.692.156-2.563 0-7.918-3.855-14.941-9.781-19.313-.024-.015-.04-.046-.063-.062a.842.842 0 0 0-.187-.094C35.027 2.695 30.219 1 25 1zm0 2a21.91 21.91 0 0 1 12.75 4.063c.156.269 2.574 4.484 2.969 9.937.265 3.64-.332 7.75-3.219 11.594A13.146 13.146 0 0 0 38 25c0-11.02-5.652-16.71-11.219-19.406-2.297-1.114-4.57-1.73-6.468-2.094C21.823 3.172 23.39 3 25 3zm-9.188 2c.262-.004 5.149-.02 10.094 2.375 3.29 1.594 6.547 4.191 8.438 8.625a13.189 13.189 0 0 0-2.563-2.063l-.031-.03c-.012-.009-.02-.024-.031-.032a.933.933 0 0 0-.219-.125c-.11-.063-.207-.129-.313-.188-.14-.078-.292-.117-.437-.187-4.48-2.43-8.547-3.242-12.125-3-3.773.254-7.004 1.637-9.563 3.375-2.07 1.402-3.714 3.027-4.968 4.469A22.058 22.058 0 0 1 15.812 5zm25.5 5.219A21.977 21.977 0 0 1 47 25c0 .707-.059 1.402-.125 2.094-.207.363-2.598 4.468-7.063 7.5-3.011 2.043-6.867 3.554-11.624 3a12.73 12.73 0 0 0 4.062-1.813c8.89-5.472 10.906-12.933 10.469-18.937-.184-2.535-.774-4.805-1.407-6.625zm-21.28 2.062c.577.008 1.171.055 1.78.125-1.144.29-2.218.711-3.218 1.281a1.4 1.4 0 0 0-.094.063c-.258.148-.504.305-.75.469C8.86 19.69 6.844 27.152 7.281 33.156c.184 2.535.774 4.805 1.407 6.625A21.977 21.977 0 0 1 3 25c0-.707.059-1.402.125-2.094.207-.363 2.598-4.468 7.063-7.5 2.628-1.781 5.898-3.168 9.843-3.125zM25 14c1.777 0 3.453.41 4.938 1.156.19.106.37.203.562.313A10.98 10.98 0 0 1 36 25v.094a10.988 10.988 0 0 1-4.781 9c-.239.148-.469.293-.719.437a.842.842 0 0 0-.188.094c-.023.016-.039.05-.062.063A10.989 10.989 0 0 1 25 36c-1.777 0-3.453-.41-4.938-1.156-.19-.106-.37-.203-.562-.313a.949.949 0 0 0-.125-.093C16.16 32.52 14 29.023 14 25a.753.753 0 0 0 0-.188 11 11 0 0 1 4.781-8.906c.02-.011.043-.02.063-.031.21-.145.433-.277.656-.406.031-.02.063-.04.094-.063A10.98 10.98 0 0 1 25 14zm-1.625.594c-.031.008-.063.047-.063.062l-.125 1.188c-.003.02.024.047.063.062l-.031.094a.078.078 0 0 0-.063.063l-.062.5c-.09.007-.18.039-.219.125-.055.109-.156.328-.156.5 0 .527.047 1.093.5 1.093.18 0 .332-.152.406-.218 0 .117.008.41-.031.53-.102.15-.274.196-.438.188-.422-.011-.46-.289-.437-.5 0 0-.102.032-.125.188-.114.707-.407 2.394-.407 3.218 0 .524.461.844.594.844.184 0 .282-.031.282-.031l-.625 11.75s.18.656.53.656c.509 0 .876-.562.876-.562s1.015-7.215 1.093-7.969c-.035 1.508.442 2.281.313 2.844-.129.562.078 4.187.219 5.125 0 0 .953.133 1.218.156.836.078 1.438-.043 1.438-.219 0-.254-.64-.172-1.281-.812l-.032-11.25s.336-.125.563-.282c.14-.097.137-.34.125-.562-.004-.102-.348-2.379-.375-2.563-.031-.21-.117-.37-.469-.53-.16-.075-1.062-.47-1.062-.47l-.063-.218-.187-.032v-.218c.222-.2.281-.719.281-.719.102-.105.156-.262.188-.438.019-.105-.032-.125-.032-.125.059-.437.09-1.12-.531-1.187 0 0-.023-.098-.063-.125-1.292-.168-1.19.848-1.156 1.281 0 0-.093.024-.093.063 0 .117.019.445.218.562l.094.75c.324.16.375.282.375.282l-.094.03.25.532.438-.313s.195.102.375.157c.199.797.086 2.113.031 2.625h-.031c-.114-.914-1.192-3.067-1.5-3.157 0 0-.2.075-.407.188.141-.52.04-.629-.03-.719-.052-.062-.098-.14-.22-.187v-.063s.067.004.094 0c.18-.035.184-.258.032-.25-.043.004-.09 0-.094 0l.031-.437c.004-.02-.023-.047-.063-.063l.032-.093a.078.078 0 0 0 .062-.063l.125-1.188c.004-.035-.058-.082-.156-.093a.443.443 0 0 0-.125 0zm-.438 3.75c-.03.02-.05.047-.03.093.019.047.062.083.093.063.031-.02.05-.078.031-.125-.02-.047-.062-.05-.093-.031zm3.125.843c.04 0 .563.09.563.344a3.073 3.073 0 0 1-.563-.125zM12.5 21.407c-.309 1.07-.48 2.21-.5 3.374A1.024 1.024 0 0 0 12 25c0 11.02 5.652 16.71 11.219 19.406 2.297 1.114 4.57 1.73 6.468 2.094-1.511.328-3.078.5-4.687.5a21.91 21.91 0 0 1-12.75-4.063c-.156-.269-2.574-4.484-2.969-9.937-.265-3.64.332-7.75 3.219-11.594zm11.781.03c.13.22.235.551.125.907l-.281.031a.198.198 0 0 1-.094-.094c.164-.242-.004-.586-.093-.812zm-.031.657c-.031.004-.059.047-.063.093-.003.047 0 .098.032.094.031-.004.058-.047.062-.093.004-.047 0-.098-.031-.094zm21.656 9.687A22.058 22.058 0 0 1 34.188 45c-.262.004-5.149.02-10.094-2.375-3.29-1.594-6.547-4.191-8.438-8.625.77.797 1.645 1.512 2.594 2.094.074.062.16.117.25.156.02.012.043.02.063.031.226.13.453.227.687.344 9.203 4.988 16.7 3.008 21.688-.375 2.07-1.402 3.714-3.027 4.968-4.469z"/></svg>