<svg xmlns="http://www.w3.org/2000/svg" viewBox="0 0 48 48"><path d="M18.7 25.2L6.397 37.5c-1.097 1.102-1.097 2.2 0 3.3L8.3 42.7c1.3 1.3 7.398-1.5 10.097-4.098 2.704-2.704 5.704-7.903 4.602-9z" fill="#3f51b5"/><path d="M42.3 5S39 8.398 35.399 8.398A99472.727 99472.727 0 0 1 18.301 25.5l8.3 8.3c18-17.902 15.7-28.8 15.7-28.8z" fill="#90a4ae"/><path d="M11 39c0 .55-.45 1-1 1s-1-.45-1-1 .45-1 1-1 1 .45 1 1zm9-9c0 .55-.45 1-1 1s-1-.45-1-1 .45-1 1-1 1 .45 1 1z" fill="#9fa8da"/><path d="M23.2 25.5c-.302-.3-.302-.7 0-1l16-16-.098 2.102L24.199 25.5c-.3.3-.699.3-1 0z" fill="#78909c"/><path d="M38.898 7.5c-.898 1-2.296 1.8-2.097 3.102.5 2.597.5 4.296-1.5 5.296s-2 2.301-1.7 4.301C34.2 24 31.102 28 29.399 31c13.403-14.5 13.204-23.8 13-25.7V5c-.097 0-1.5 1.5-3.5 2.5z" fill="#c62828"/><path d="M34.102 24s-1.204.7-2.301 4.2c1.5-1.9 2-.7 1 1.402.898.296.5-1.204 2-.704-1-2.898 1.3-6.097 1.898-7.199-.398-.8-2.597 2.301-2.597 2.301zM32 37.5c0 .8-.7 1.5-1.5 1.5s-1.5-.7-1.5-1.5 1.5-3.5 1.5-3.5 1.5 2.7 1.5 3.5z" fill="#c62828"/><path d="M36 32c0 1.102-.898 2-2 2-1.102 0-2-.898-2-2 0-1.102 2-4.7 2-4.7s2 3.598 2 4.7z" fill="#c62828"/></svg>