<svg xmlns="http://www.w3.org/2000/svg" viewBox="0 0 48 48"><path d="M24 5C13.523 5 5 13.523 5 24s8.523 19 19 19 19-8.523 19-19S34.477 5 24 5zm0 28a9 9 0 1 1 0-18 9 9 0 1 1 0 18z" fill="#37474f"/><path d="M34 24c0 5.523-4.477 10-10 10s-10-4.477-10-10 4.477-10 10-10 10 4.477 10 10z" fill="#fff"/><path d="M23.445 21.793c0 .035-.02.07-.047.07-.027.004-.046-.02-.043-.058 0-.035.024-.067.047-.07.028-.005.047.023.043.058zm-1.074-2.918c-.016-.035-.008-.078.016-.094.023-.015.054.004.07.04.016.038.008.077-.016.093-.023.016-.054-.004-.07-.039z"/><path d="M25.434 30.629l-.024-8.793s.262-.11.442-.23c.109-.079.12-.27.113-.442-.004-.078-.274-1.867-.293-2.012-.027-.164-.11-.285-.387-.41-.125-.058-.828-.36-.828-.36l-.043-.183-.144-.015-.008-.184c.175-.156.238-.543.238-.543.078-.082.121-.215.145-.352.015-.082-.04-.101-.04-.101.043-.344.075-.883-.414-.938 0 0-.027-.054-.054-.078-1.012-.129-.926.645-.899.985 0 0-.062.03-.062.062 0 .094 0 .344.156.434l.094.593c.254.125.277.22.277.22l-.074.03.207.41.332-.253s.152.082.293.125c.156.625.062 1.652.02 2.054h-.012c-.086-.714-.93-2.41-1.168-2.48 0 0-.156.07-.32.156.109-.402.03-.48-.028-.55-.039-.047-.09-.118-.183-.157v-.008l.007-.03.082-.017c.145-.027.125-.199.004-.195-.031 0-.062.004-.066.004l.039-.344c.004-.015-.02-.03-.05-.047l.01-.082c.032-.003.056-.015.056-.03l.109-.942c0-.028-.059-.055-.133-.063-.074-.008-.14.004-.14.035l-.11.938c0 .016.02.031.05.047l-.007.082c-.035.004-.058.015-.058.031l-.043.395h-.004c-.07.004-.137.03-.168.097-.043.082-.133.262-.133.395 0 .414.043.847.398.847.14 0 .246-.093.305-.148 0 .094.012.32-.02.414-.078.117-.214.152-.343.149-.332-.008-.36-.235-.34-.399 0 0-.078.012-.098.137-.086.55-.328 1.875-.328 2.52 0 .41.371.671.473.671.144 0 .215-.039.215-.039l-.485 9.211s.153.496.43.496c.394 0 .672-.437.672-.437s.789-5.649.851-6.239h.016c-.027 1.18.344 1.797.242 2.239-.098.437.05 3.277.16 4.008 0 0 .754.113.961.132.653.059 1.133-.047 1.133-.183-.004-.2-.523-.133-1.023-.633zm-1.895-8.715l-.23.035a.15.15 0 0 1-.07-.082c.128-.187-.009-.449-.079-.629l.274-.02c.097.169.195.419.105.696zm1.285-2.297v-.164c.031 0 .438.059.438.262a2.552 2.552 0 0 1-.438-.098z"/><path d="M29.336 11.488C24.348 6.723 17.254 6.988 17 7c-.074 0-.68.004-1.586.074a18.818 18.818 0 0 0-3.91 2.649C14.25 9.02 16.977 9 17.047 9c.062-.004 6.527-.246 10.906 3.938 2.473 2.359 4.652 5.761 4.98 10.011.04.34.063.684.067 1.031v.024C33 28.973 28.969 33 24 33c6.398 0 11-3.5 11-8.941 0-5.344-2.57-9.61-5.664-12.57z" fill="#90a4ae"/><path d="M37.563 23.02c1.957-6.618-1.524-12.801-1.649-13.024-.035-.062-.312-.601-.793-1.375a19.006 19.006 0 0 0-4.144-2.266c1.882 2.122 3.144 4.536 3.18 4.598.03.055 3.202 5.695 1.488 11.5-.97 3.277-2.997 6.774-6.622 9.008a8.784 8.784 0 0 1-.89.531l-.016.012h-.004a8.998 8.998 0 0 1-12.117-3.883c2.93 5.692 8.145 8.18 12.984 5.688 4.754-2.446 7.372-6.684 8.582-10.79z" fill="#90a4ae"/><path d="M31.422 35.398c6.734-1.492 10.465-7.527 10.598-7.746.039-.058.375-.562.82-1.355.191-1.578.18-3.164-.024-4.727-.945 2.676-2.445 4.95-2.484 5.008-.031.055-3.434 5.559-9.344 6.867-3.34.739-7.379.657-11.09-1.437a9.041 9.041 0 0 1-.894-.524c-.008 0-.012-.004-.016-.007h-.004c-4.125-2.77-5.226-8.36-2.46-12.489-3.563 5.317-3.22 11.086 1.304 14.117 4.438 2.973 9.41 3.215 13.594 2.293z" fill="#90a4ae"/><path d="M17.926 36.168c4.691 5.055 11.785 5.219 12.043 5.223.07.004.676.035 1.586.02A18.99 18.99 0 0 0 35.617 39c-2.781.54-5.504.395-5.574.39-.066 0-6.531-.148-10.652-4.581-2.328-2.508-4.297-6.032-4.371-10.293a9.144 9.144 0 0 1-.004-1.036v-.02c.296-4.96 4.562-8.741 9.523-8.444-6.39-.383-11.191 2.836-11.52 8.27-.316 5.331 1.993 9.741 4.907 12.882z" fill="#90a4ae"/><path d="M10.45 25.137c-1.88 6.64 1.667 12.785 1.8 13.004.031.062.32.597.805 1.367 1.3.914 2.699 1.656 4.172 2.215-1.91-2.094-3.2-4.496-3.235-4.559-.031-.055-3.27-5.656-1.62-11.48.929-3.29 2.917-6.809 6.519-9.086a9.29 9.29 0 0 1 .882-.543c.004 0 .008-.004.016-.008 4.395-2.324 9.84-.649 12.164 3.742-2.992-5.656-8.238-8.086-13.05-5.539-4.72 2.5-7.29 6.77-8.454 10.887z" fill="#90a4ae"/><path d="M16.578 12.602C9.844 14.094 6.113 20.129 5.98 20.348c-.039.062-.375.566-.82 1.359-.191 1.574-.18 3.16.024 4.723.945-2.672 2.445-4.95 2.484-5.008.031-.055 3.434-5.559 9.344-6.867 3.34-.739 7.379-.653 11.09 1.437.304.156.601.328.894.524.008.004.012.004.016.007h.004c4.125 2.77 5.226 8.36 2.46 12.489 3.563-5.317 3.22-11.086-1.304-14.117-4.438-2.973-9.41-3.215-13.594-2.293z" fill="#90a4ae"/></svg>