<svg xmlns="http://www.w3.org/2000/svg" viewBox="0 0 24 24"><path d="M12 1.906C6.5 1.906 2 6.398 2 12c0 5.602 4.5 10 10 10s10-4.5 10-10S17.602 1.906 12 1.906zM11.187 4a9.609 9.609 0 0 1 2.907 2.406C14.492 6.207 15 6 15.5 6 16.898 6 18 7.102 18 8.5c0 1.2-.895 2.3-2.094 2.5 0 .3.094.7.094 1 0 3.5-2.012 6.5-4.813 8-4-.398-7.187-3.8-7.187-8s3.086-7.5 7.188-8zM7.5 7a1.5 1.5 0 1 0 0 3 1.5 1.5 0 0 0 0-3zm2 5A2.502 2.502 0 0 0 7 14.5C7 15.879 8.121 17 9.5 17s2.5-1.121 2.5-2.5S10.879 12 9.5 12zm8.5 3c.602 0 1 .398 1 1s-.398 1-1 1-1-.398-1-1 .398-1 1-1z"/></svg>