<svg xmlns="http://www.w3.org/2000/svg" viewBox="0 0 40 40"><path d="M10 13h20v18H10z" fill="#4788c7"/><path d="M23 27h-6S5 28.004 5 39h30c0-10.945-12-12-12-12z" fill="#dff0fe"/><path d="M17.047 28h5.906c.817.078 10.336 1.207 11.008 10l.016 1H35c0-10.941-12-12-12-12h-6S5 28.004 5 39h1.027l.008-1c.676-8.82 10.215-9.926 11.012-10z" fill="#4788c7"/><path d="M30 39c-.578-2.336-2.59-4-5-4s-4.422 1.664-5 4zm-10 0c-.578-2.336-2.59-4-5-4s-4.422 1.664-5 4z" fill="#fff"/><path d="M24.012 38.5C25.55 37.496 27.5 35.695 27.5 33v-4.27c.016.004.031.012.047.016a13.633 13.633 0 0 1 2.953 1.727V38.5z" fill="#98ccfd"/><path d="M28 29.508c.727.355 1.395.762 2 1.215V38h-4.5c1.297-1.133 2.5-2.781 2.5-5v-3.492M27 28v5c0 4.07-5 6-5 6h9v-8.77a14.14 14.14 0 0 0-3.281-1.953c-.246-.09-.485-.18-.719-.277z" fill="#4788c7"/><path d="M9.5 38.5v-8.027a13.62 13.62 0 0 1 3-1.743V33c0 2.695 1.95 4.496 3.488 5.5z" fill="#98ccfd"/><path d="M12 29.508V33c0 2.219 1.203 3.867 2.5 5H10v-7.277c.605-.453 1.273-.86 2-1.215M13 28c-.234.098-.473.188-.719.277-1.086.47-2.23 1.102-3.281 1.953V39h9s-5-1.93-5-6v-5z" fill="#4788c7"/><path d="M23 22.57V28s-.68 2-3 2-3-2-3-2v-5.43z" fill="#dff0fe"/><path d="M27 9c.055-6.648-14-6.594-14 0v9c0 4.633 4.45 9 7 9s7-4.367 7-9z" fill="#fff"/><path d="M21 22c-.996 0-1 1-1 1s0-1-1-1-2 1-2 1 1.2 2 3 2 3-2 3-2-1.2-1-2-1z" fill="#4788c7"/><path d="M21.484 13.5S22.988 12 27 12m-8.484 1.5S16.859 12 13 12" fill="none" stroke-linecap="round" stroke="#4788c7" stroke-miterlimit="10"/><path d="M13 14.05v2.016c.84.508 2.05.934 3 .934 1.613 0 3-1 3-1s-2.637-1.656-6-1.95z" fill="#b6dcfe"/><path d="M15 16c0-.602.398-1 1-1s1 .398 1 1-.398 1-1 1-1-.398-1-1" fill="#4788c7"/><path d="M27 14.05v2.016c-.84.508-2.05.934-3 .934-1.613 0-3-1-3-1s2.637-1.656 6-1.95z" fill="#b6dcfe"/><path d="M25 16c0-.602-.398-1-1-1s-1 .398-1 1 .398 1 1 1 1-.398 1-1" fill="#4788c7"/><path d="M6.5 38.5V23C6.5 4.293 14.957 1.5 20 1.5h.793l1 1H22c11.188 0 11.5 19.305 11.5 19.5v10.184c-1.652-2.375-4.043-3.754-6-4.54V15.868l-.066-.117c-2.622-4.543-6.899-8.918-7.079-9.102l-.296-.304-.348.246C19.418 6.8 12.5 11.78 12.5 19v19.5z" fill="#98ccfd"/><path d="M20.586 2l1 1H22c10.7 0 11 18.809 11 19v8.754c-1.52-1.68-3.379-2.758-5-3.442V15.73l-.133-.23c-2.652-4.598-6.972-9.016-7.152-9.203l-.598-.606-.695.493C19.117 6.398 12 11.524 12 19v19H7V23C7 5.645 14.07 2 20 2h.586M21 1h-1C14.086 1 6 4.555 6 23v16h7V19c0-7.043 7-12 7-12s4.383 4.457 7 9v11.988c2.484.934 5.477 2.719 7 6.086V22c0-3.707-1.434-20-12-20z" fill="#4788c7"/><path d="M7 37h5v2H7zm26-4.66V25h-5v3.402c1.758.797 3.633 2.032 5 3.938z" fill="#98ccfd"/></svg>