<svg xmlns="http://www.w3.org/2000/svg" viewBox="0 0 50 50"><path d="M25 4a21.164 21.164 0 0 0-11.656 3.469 1 1 0 0 0-.406 1.156c.058.172.062.176.062.375 0 2.277-1.723 4-4 4-.2 0-.203-.004-.375-.063a1 1 0 0 0-1.156.407A21.164 21.164 0 0 0 4 25c0 11.547 9.453 21 21 21a20.907 20.907 0 0 0 20.594-17.125 1 1 0 0 0-.313-.906C44.488 27.258 44 26.234 44 25c0-1.234.488-2.258 1.281-2.969a1 1 0 0 0 .313-.906A20.907 20.907 0 0 0 25 4zm0 2c1.441 0 2.84.168 4.188.469-.102.156-.188.328-.188.531 0 .55.45 1 1 1s1-.45 1-1a18.81 18.81 0 0 1 11.688 11.25A1.013 1.013 0 0 0 42 18c-.55 0-1 .45-1 1s.45 1 1 1c.516 0 .918-.402.969-.906.215.664.422 1.336.562 2.031-.71.816-1.238 1.797-1.437 2.906-.035-.004-.059-.031-.094-.031-.55 0-1 .45-1 1s.45 1 1 1c.035 0 .059-.027.094-.031.199 1.11.726 2.09 1.437 2.906-.14.695-.347 1.367-.562 2.031-.051-.504-.453-.906-.969-.906-.55 0-1 .45-1 1s.45 1 1 1c.262 0 .508-.086.688-.25A18.81 18.81 0 0 1 31 43c0-.55-.45-1-1-1s-1 .45-1 1c0 .203.086.375.188.531A19.191 19.191 0 0 1 25 44c-.285 0-.563-.02-.844-.031A.99.99 0 0 0 25 43c0-.55-.45-1-1-1s-1 .45-1 1c0 .46.328.82.75.938C13.875 43.285 6 35.03 6 25c0-3.695 1.074-7.094 2.875-10.031.031 0 .102.031.125.031 3.324 0 6-2.676 6-6 0-.023-.031-.094-.031-.125a19.094 19.094 0 0 1 8.812-2.813C23.344 6.168 23 6.527 23 7c0 .55.45 1 1 1s1-.45 1-1a.99.99 0 0 0-.844-.969C24.438 6.02 24.715 6 25 6zm2 3c-.55 0-1 .45-1 1s.45 1 1 1 1-.45 1-1-.45-1-1-1zm6 0c-.55 0-1 .45-1 1s.45 1 1 1 1-.45 1-1-.45-1-1-1zm-3 3c-.55 0-1 .45-1 1s.45 1 1 1 1-.45 1-1-.45-1-1-1zm6 0c-.55 0-1 .45-1 1s.45 1 1 1 1-.45 1-1-.45-1-1-1zm-14.5 3a3.514 3.514 0 0 0-3.5 3.5c0 1.922 1.578 3.5 3.5 3.5.566 0 1.012-.148 1.313-.25a1.002 1.002 0 1 0-.625-1.906c-.301.101-.454.156-.688.156-.875 0-1.5-.625-1.5-1.5s.625-1.5 1.5-1.5c.234 0 .387.055.688.156a1.002 1.002 0 1 0 .625-1.906c-.301-.102-.747-.25-1.313-.25zM33 15c-.55 0-1 .45-1 1s.45 1 1 1 1-.45 1-1-.45-1-1-1zm6 0c-.55 0-1 .45-1 1s.45 1 1 1 1-.45 1-1-.45-1-1-1zm-3 3c-.55 0-1 .45-1 1s.45 1 1 1 1-.45 1-1-.45-1-1-1zm-3 3c-.55 0-1 .45-1 1s.45 1 1 1 1-.45 1-1-.45-1-1-1zm6 0c-.55 0-1 .45-1 1s.45 1 1 1 1-.45 1-1-.45-1-1-1zm-3 3c-.55 0-1 .45-1 1s.45 1 1 1 1-.45 1-1-.45-1-1-1zm-3 3c-.55 0-1 .45-1 1s.45 1 1 1 1-.45 1-1-.45-1-1-1zm6 0c-.55 0-1 .45-1 1s.45 1 1 1 1-.45 1-1-.45-1-1-1zm-20.5 1c-2.46 0-4.5 2.04-4.5 4.5s2.04 4.5 4.5 4.5c.633 0 1.266-.117 1.844-.406.332-.153.558-.477.582-.844a1.002 1.002 0 0 0-1.488-.938c-.223.11-.57.188-.938.188-1.34 0-2.5-1.16-2.5-2.5s1.16-2.5 2.5-2.5c.367 0 .715.078.938.188a1.002 1.002 0 0 0 1.488-.938 1.002 1.002 0 0 0-.582-.844C19.766 28.117 19.133 28 18.5 28zM36 30c-.55 0-1 .45-1 1s.45 1 1 1 1-.45 1-1-.45-1-1-1zm-3 3c-.55 0-1 .45-1 1s.45 1 1 1 1-.45 1-1-.45-1-1-1zm6 0c-.55 0-1 .45-1 1s.45 1 1 1 1-.45 1-1-.45-1-1-1zm-9 3c-.55 0-1 .45-1 1s.45 1 1 1 1-.45 1-1-.45-1-1-1zm6 0c-.55 0-1 .45-1 1s.45 1 1 1 1-.45 1-1-.45-1-1-1zm-9 3c-.55 0-1 .45-1 1s.45 1 1 1 1-.45 1-1-.45-1-1-1zm6 0c-.55 0-1 .45-1 1s.45 1 1 1 1-.45 1-1-.45-1-1-1z"/></svg>