<svg xmlns="http://www.w3.org/2000/svg" viewBox="0 0 24 24"><path d="M20.156 2.281a2.12 2.12 0 0 0-.468.031l-10 1.376c-1 .199-1.688 1-1.688 2v1.125A.753.753 0 0 0 8 7v8.094c-.594-.156-1.27-.168-2 0-2.2.5-4 2.414-4 4.312 0 1.899 1.8 2.907 4 2.407s4-2.415 4-4.313v-.094a1.024 1.024 0 0 0 0-.218v-8.47l10-1.437v5.813c-.594-.156-1.27-.168-2 0-2.2.5-4 2.414-4 4.312 0 1.899 1.8 2.907 4 2.407s4-2.415 4-4.313v-.094a1.024 1.024 0 0 0 0-.219V5a.753.753 0 0 0 0-.188v-.5c0-1.05-.828-1.957-1.844-2.03z"/></svg>