<svg xmlns="http://www.w3.org/2000/svg" viewBox="0 0 64 64"><path d="M6 9h52c.55 0 1 .45 1 1v8c0 .55-.45 1-1 1H6c-.55 0-1-.45-1-1v-8c0-.55.45-1 1-1z" fill="#ced8ed"/><path d="M5 19h54v35H5z" fill="#c5e4fa"/><path d="M39.762 55L59 35.762V19.078h-2.57L20.512 55zM8.898 55h7.704L52.52 19.078h-7.7zM5 53.2v.8h.48l34.918-34.922h-1.277z" fill="#e3f2ff"/><path d="M28 25.121h8a1 1 0 0 1 1 1v8c0 .55-.45 1-1 1h-8c-.55 0-1-.45-1-1v-8a1 1 0 0 1 1-1z" fill="#ffeb9b"/><path d="M42 25.121h8a1 1 0 0 1 1 1v8c0 .55-.45 1-1 1h-8c-.55 0-1-.45-1-1v-8a1 1 0 0 1 1-1z" fill="#ed7899"/><path d="M14 25.121h8a1 1 0 0 1 1 1v8c0 .55-.45 1-1 1h-8c-.55 0-1-.45-1-1v-8a1 1 0 0 1 1-1z" fill="#72caaf"/><path d="M28 39.121h8a1 1 0 0 1 1 1v8c0 .55-.45 1-1 1h-8c-.55 0-1-.45-1-1v-8a1 1 0 0 1 1-1z" fill="#ed7899"/><path d="M42 39.121h8a1 1 0 0 1 1 1v8c0 .55-.45 1-1 1h-8c-.55 0-1-.45-1-1v-8a1 1 0 0 1 1-1z" fill="#72caaf"/><path d="M14 39.121h8a1 1 0 0 1 1 1v8c0 .55-.45 1-1 1h-8c-.55 0-1-.45-1-1v-8a1 1 0 0 1 1-1z" fill="#85cbf8"/><path d="M57 8H7a3 3 0 0 0-3 3v42a3 3 0 0 0 3 3h50a3 3 0 0 0 3-3V11a3 3 0 0 0-3-3zM7 10h50c.55 0 1 .45 1 1v7H6v-7c0-.55.45-1 1-1zm50 44H7c-.55 0-1-.45-1-1V20h52v33c0 .55-.45 1-1 1z" fill="#8d6c9f"/><path d="M19 16c.55 0 1-.45 1-1v-2c0-.55-.45-1-1-1s-1 .45-1 1v2c0 .55.45 1 1 1zm-5 0c.55 0 1-.45 1-1v-2c0-.55-.45-1-1-1s-1 .45-1 1v2c0 .55.45 1 1 1zm-5 0c.55 0 1-.45 1-1v-2c0-.55-.45-1-1-1s-1 .45-1 1v2c0 .55.45 1 1 1zm25 0c.55 0 1-.45 1-1v-2c0-.55-.45-1-1-1s-1 .45-1 1v2c0 .55.45 1 1 1zm5 0c.55 0 1-.45 1-1v-2c0-.55-.45-1-1-1s-1 .45-1 1v2c0 .55.45 1 1 1zm5 0c.55 0 1-.45 1-1v-2c0-.55-.45-1-1-1s-1 .45-1 1v2c0 .55.45 1 1 1zm5 0c.55 0 1-.45 1-1v-2c0-.55-.45-1-1-1s-1 .45-1 1v2c0 .55.45 1 1 1zm5 0c.55 0 1-.45 1-1v-2c0-.55-.45-1-1-1s-1 .45-1 1v2c0 .55.45 1 1 1zm-30 0c.55 0 1-.45 1-1v-2c0-.55-.45-1-1-1s-1 .45-1 1v2c0 .55.45 1 1 1zm5 0c.55 0 1-.45 1-1v-2c0-.55-.45-1-1-1s-1 .45-1 1v2c0 .55.45 1 1 1zm-7 8.121h-8a2 2 0 0 0-2 2v8c0 1.102.895 2 2 2h8c1.105 0 2-.898 2-2v-8a2 2 0 0 0-2-2zm-8 10v-8h8v8zm22-10h-8a2 2 0 0 0-2 2v8c0 1.102.895 2 2 2h8c1.105 0 2-.898 2-2v-8a2 2 0 0 0-2-2zm-8 10v-8h8v8zm-6 4h-8a2 2 0 0 0-2 2v8c0 1.102.895 2 2 2h8c1.105 0 2-.898 2-2v-8a2 2 0 0 0-2-2zm-8 10v-8h8v8zm22-10h-8a2 2 0 0 0-2 2v8c0 1.102.895 2 2 2h8c1.105 0 2-.898 2-2v-8a2 2 0 0 0-2-2zm-8 10v-8h8v8zm22-10h-8a2 2 0 0 0-2 2v8c0 1.102.895 2 2 2h8c1.105 0 2-.898 2-2v-8a2 2 0 0 0-2-2zm-8 10v-8h8v8zm8-24h-8a2 2 0 0 0-2 2v8c0 1.102.895 2 2 2h8c1.105 0 2-.898 2-2v-8a2 2 0 0 0-2-2zm-8 10v-8h8v8z" fill="#8d6c9f"/></svg>