<svg xmlns="http://www.w3.org/2000/svg" viewBox="0 0 40 40"><path d="M10.5 18.645h19v12.21h-19z" fill="#4788c7"/><path d="M31.508 38.5c-2.211 0-4.008-1.867-4.008-4.168v-6.809c1.406.094 5.41.606 7.152 3.286 1.207 1.859 1.121 4.445-.254 7.691z" fill="#98ccfd"/><path d="M28 28.066c1.621.172 4.785.79 6.23 3.012 1.079 1.656 1.024 3.98-.164 6.922h-2.558C29.574 38 28 36.355 28 34.332v-6.266M27 27v7.332C27 36.91 29.02 39 31.508 39h3.219C40.039 27 27 27 27 27z" fill="#4788c7"/><path d="M31.508 32.5c-2.211 0-4.008-1.867-4.008-4.168v-6.809c1.406.094 5.41.606 7.152 3.286 1.207 1.859 1.121 4.445-.254 7.691z" fill="#98ccfd"/><path d="M28 22.066c1.621.172 4.785.79 6.23 3.012 1.079 1.656 1.024 3.98-.164 6.922h-2.558C29.574 32 28 30.355 28 28.332v-6.266M27 21v7.332C27 30.91 29.02 33 31.508 33h3.219C40.039 21 27 21 27 21z" fill="#4788c7"/><path d="M23 27s.367 4-3 4-3-4-3-4v-3h6z" fill="#dff0fe"/><path d="M5.512 38.5c.285-5.922 5.613-10.297 10.558-11.004h.442C16.692 30.965 18.75 31.5 20 31.5s3.309-.535 3.488-4H24c4.918.766 10.215 4.867 10.488 11z" fill="#b6dcfe"/><path d="M16.05 28.004C16.435 31.586 18.896 32 20 32s3.563-.41 3.95-3.996c4.616.758 9.476 4.457 10.003 9.996H6.051c.547-5.363 5.43-9.3 10-9.996M24 27h-1c0 2.25-.75 4-3 4s-3-1.75-3-4h-1c-5.512.79-11 5.715-11 12h30c0-6.285-5.176-11.098-11-12z" fill="#4788c7"/><path d="M20 27.5c-.852 0-1.637-.414-2.176-1.145-3.387-1.27-5.324-3.94-5.324-7.355V9.066c0-2.359 1.723-4.28 3.836-4.28h7.328c2.113 0 3.836 1.921 3.836 4.28V19c0 3.414-1.938 6.086-5.324 7.355-.54.73-1.324 1.145-2.176 1.145z" fill="#fff"/><path d="M23.664 5.285C25.508 5.285 27 6.98 27 9.066V19c0 3.637-2.234 5.898-5.14 6.941C21.433 26.578 20.761 27 20 27s-1.434-.422-1.86-1.059C15.235 24.898 13 22.637 13 19V9.066c0-2.09 1.492-3.78 3.336-3.78h7.328m0-1h-7.328C13.946 4.285 12 6.43 12 9.065V19c0 3.59 2.004 6.406 5.516 7.773C18.145 27.547 19.05 28 20 28s1.855-.453 2.484-1.227C25.996 25.406 28 22.59 28 19V9.066c0-2.636-1.945-4.78-4.336-4.78z" fill="#4788c7"/><path d="M26.5 14h-5a.498.498 0 0 1-.5-.5c0-.277.223-.5.5-.5h5a.499.499 0 1 1 0 1zm-8 0h-5a.498.498 0 0 1-.5-.5c0-.277.223-.5.5-.5h5a.499.499 0 1 1 0 1zm1.5 9.5c-1.602 0-2.188-1.25-2.395-2h.895c.398 0 .93.457 1.125.676l.414.465.367-.504c0-.004.477-.637 1.094-.637h.93c-.16.746-.692 2-2.43 2z" fill="#4788c7"/><path d="M21.738 22a1.725 1.725 0 0 1-1.316.965l.39-.535c.047-.067.38-.43.688-.43h.238M18.5 22c.145 0 .527.258.754.508l.414.469c-.68-.11-1.086-.536-1.328-.977h.16m4.5-1h-1.5c-.89 0-1.5.844-1.5.844S19.25 21 18.5 21H17s.281 3 3 3c2.906 0 3-3 3-3z" fill="#4788c7"/><path d="M5.602 38.5c-1.375-3.246-1.461-5.832-.254-7.691 1.742-2.68 5.746-3.188 7.152-3.286v6.813c0 2.297-1.797 4.164-4.008 4.164z" fill="#98ccfd"/><path d="M12 28.066v6.266C12 36.355 10.426 38 8.492 38H5.934c-1.184-2.938-1.243-5.262-.168-6.914 1.437-2.219 4.609-2.844 6.234-3.02M13 27S-.04 27 5.273 39h3.22C10.98 39 13 36.91 13 34.332V27z" fill="#4788c7"/><path d="M5.602 32.5c-1.375-3.246-1.461-5.832-.254-7.691 1.742-2.68 5.746-3.188 7.152-3.286v6.813c0 2.297-1.797 4.164-4.008 4.164z" fill="#98ccfd"/><path d="M12 22.066v6.266C12 30.355 10.426 32 8.492 32H5.934c-1.184-2.938-1.243-5.262-.168-6.914 1.437-2.219 4.609-2.844 6.234-3.02M13 21S-.04 21 5.273 33h3.22C10.98 33 13 30.91 13 28.332V21z" fill="#4788c7"/><path d="M24 17c2.773 0 3-2 3-2h-3c-3.031 0-3 2-3 2h3z" fill="#b6dcfe"/><path d="M25 16c0-.602-.398-1-1-1s-1 .398-1 1 .398 1 1 1 1-.398 1-1" fill="#4788c7"/><path d="M19 17s.031-2-3-2h-3s.223 2 3 2h3z" fill="#b6dcfe"/><path d="M15 16c0 .602.398 1 1 1s1-.398 1-1-.398-1-1-1-1 .398-1 1" fill="#4788c7"/><path d="M31.535 26.285a4.21 4.21 0 0 1-3.781-2.344c-.05-.312-.254-1.804-.254-4.941v-2.434c0-4.304-5.508-6.125-9.531-7.453a77.625 77.625 0 0 1-1.801-.613l-.672-.242v.71c0 3.204-.918 4.345-1.73 5.356-.649.813-1.266 1.578-1.266 3.086V19c0 4.008-.242 4.914-.254 4.953-.687 1.41-2.148 2.332-3.781 2.332h-3.07c-2.043-4.781.23-8.058.988-8.965 1.031-1.226 1.246-2.187 1.52-3.402a28.8 28.8 0 0 1 .273-1.133C10.187 5.297 14.164 1.5 20 1.5c7.535 0 10.7 6.469 12.023 11.895.153.488.247.875.332 1.226.22.906.41 1.684 1.262 2.7.758.906 3.031 4.183.985 8.964z" fill="#98ccfd"/><path d="M20 2c5.79 0 9.672 3.871 11.535 11.512l.024.07c.136.43.226.8.312 1.156.227.926.438 1.797 1.363 2.907.696.828 2.746 3.785 1.036 8.14h-2.735c-1.39 0-2.64-.762-3.297-2C28.176 23.363 28 21.895 28 19v-2.434c0-4.668-5.707-6.55-9.875-7.93-.645-.21-1.246-.41-1.785-.605l-1.344-.488v1.426c0 3.023-.824 4.05-1.621 5.043-.645.8-1.375 1.715-1.375 3.398V19c0 3.406-.176 4.527-.219 4.746a3.709 3.709 0 0 1-3.316 2.04H5.73c-1.71-4.356.34-7.313 1.036-8.141 1.109-1.325 1.347-2.387 1.629-3.618.074-.336.156-.703.265-1.113C10.602 5.672 14.418 2 20 2m0-1C12.707 1 9.27 6.773 7.695 12.656 7.2 14.512 7.235 15.527 6 17c-1.508 1.797-2.977 5.32-.93 9.785h3.395c1.883 0 3.492-1.101 4.262-2.691 0 0 .273-.844.273-5.094v-1.59c0-3.152 2.996-2.586 2.996-8.441C19.816 10.359 27 11.965 27 16.566V19c0 3.656.273 5.094.273 5.094.77 1.59 2.38 2.691 4.262 2.691h3.395c2.047-4.465.578-7.988-.93-9.785-1.094-1.305-.973-2.11-1.492-3.723C31.078 7.418 27.746 1 20 1z" fill="#4788c7"/></svg>