<svg xmlns="http://www.w3.org/2000/svg" viewBox="0 0 48 48"><path d="M34 34c-9.2 9.2-22.102 11.2-26.7 6.7C2.7 36.2 4.8 23.2 14 14S36.2 2.8 40.7 7.3c4.5 4.5 2.5 17.5-6.7 26.7z" fill="#d84315"/><path d="M34 34c-9.2 9.2-22.102 11.2-26.7 6.7 7 0 16.2-9.802 19.9-13.5 3.698-3.7 13.5-13.5 13.5-19.9 4.5 4.5 2.5 17.5-6.7 26.7z" fill="#bf360c"/><path d="M17.5 30.5l13-13" fill="none" stroke-width="3" stroke-linecap="round" stroke="#ff8a65" stroke-miterlimit="10"/><path d="M29 27a1.999 1.999 0 1 1-4 0 1.999 1.999 0 1 1 4 0zm-6-6a1.999 1.999 0 1 1-4 0 1.999 1.999 0 1 1 4 0z" fill="#872f14"/><path d="M21 21l6 6" fill="none" stroke-width="2" stroke-linecap="round" stroke="#ffab91" stroke-miterlimit="10"/><path d="M33 23a1.999 1.999 0 1 1-4 0 1.999 1.999 0 1 1 4 0zm-6-6a1.999 1.999 0 1 1-4 0 1.999 1.999 0 1 1 4 0z" fill="#872f14"/><path d="M25 17l6 6" fill="none" stroke-width="2" stroke-linecap="round" stroke="#ffab91" stroke-miterlimit="10"/><path d="M25 31a1.999 1.999 0 1 1-4 0 1.999 1.999 0 1 1 4 0zm-6-6a1.999 1.999 0 1 1-4 0 1.999 1.999 0 1 1 4 0z" fill="#872f14"/><path d="M17 25l6 6" fill="none" stroke-width="2" stroke-linecap="round" stroke="#ffab91" stroke-miterlimit="10"/></svg>