<svg xmlns="http://www.w3.org/2000/svg" viewBox="0 0 50 50"><path d="M27 2.969c-5.262 0-10.188 1.219-13.64 5.574C9.901 12.898 7.968 20.133 7.968 32c-.004.57.46 1.035 1.031 1.031 0 0 6.254.098 9.969.875v.824c-.324.754-1.008 1.286-2.145 1.77-1.187.508-2.746.902-4.32 1.445-1.57.543-3.188 1.242-4.45 2.508C6.794 41.715 5.97 43.555 5.97 46c-.004.57.46 1.035 1.031 1.031h36c.57.004 1.035-.46 1.031-1.031 0-2.523-.812-4.398-2.078-5.684-1.27-1.285-2.894-1.976-4.469-2.5-1.578-.523-3.14-.886-4.324-1.367-1.133-.465-1.808-.972-2.129-1.722v-.825c4.485-.968 9.93-.87 9.93-.87.281.011.555-.09.758-.286a1.03 1.03 0 0 0 .312-.746c0-11.867-1.886-18.57-4.652-22.418-2.57-3.578-5.914-4.453-8.629-4.566L27.902 3.5A1.033 1.033 0 0 0 27 2.969zm-.586 2.101l.797 1.43c.184.328.527.531.902.531 2.485 0 5.235.48 7.59 3.754 2.274 3.168 4.098 9.27 4.219 20.192-1.29-.028-4.953-.024-8.828.761.113-.144.23-.285.343-.437 1.446-1.977 2.508-4.41 3.372-6.649.5-.172 1.039-.285 1.39-.668.528-.586.801-1.379.801-2.218 0-1.38-.871-2.344-1.672-2.625-.433-.153-.535-.078-.816-.067-.153-.14-1.102-1.008-2.207-2.512C31.117 14.95 30 12.832 30 11c0-.066-.004-.133-.016-.2a1.552 1.552 0 0 0-.058-.19.76.76 0 0 0-.094-.176.533.533 0 0 0-.059-.082.566.566 0 0 0-.066-.07.705.705 0 0 0-.156-.13.935.935 0 0 0-.27-.125.878.878 0 0 0-.097-.027 1.141 1.141 0 0 0-.2-.016 1.163 1.163 0 0 0-.386.086.902.902 0 0 0-.254.16l-.074.07a.907.907 0 0 0-.118.157 1.044 1.044 0 0 0-.12.277.658.658 0 0 0-.02.094L28 10.93V11c0-.05-.254.773-.895 1.633-.644.86-1.601 1.875-2.757 2.832C22.039 17.37 18.938 19 15.918 19c0 0-.672-.016-1.383.316A2.775 2.775 0 0 0 13 21.79c0 .84.273 1.633.809 2.211.351.387.894.5 1.394.664.89 2.277 2.125 4.719 3.742 6.684.125.156.262.3.395.449-3.508-.735-7.902-.793-9.262-.8.121-10.97 2.004-17.524 4.899-21.169 2.867-3.613 6.753-4.672 11.437-4.758zm2.254 8.801c.523 1.441 1.227 2.793 2.027 3.879.07.094.137.168.207.262-.43-.02-.902-.008-1.402-.008-1.617 0-2.965-.125-3.367 1.121A5.714 5.714 0 0 0 25 19c-.406 0-.781.055-1.133.125a1.43 1.43 0 0 0-.344-.59c.75-.476 1.454-.996 2.102-1.531 1.258-1.035 2.29-2.133 3.043-3.133zm4.305 6.516c.109.101.351.351.351.351.23.211.547.301.856.246 0 0 .289-.027.492.043.2.07.328-.015.328.739 0 .43-.117.687-.285.875-.168.183-.414.324-.82.363a1.01 1.01 0 0 0-.833.64c-.851 2.25-1.925 4.684-3.238 6.481C28.508 31.918 27.066 33 25.348 33c-1.72 0-3.375-1.117-4.86-2.922-1.48-1.805-2.715-4.223-3.55-6.433a1.015 1.015 0 0 0-.836-.641c-.41-.04-.66-.176-.82-.356-.165-.18-.282-.43-.282-.859 0-.539.133-.543.379-.66.25-.117.539-.129.539-.129.387 0 .773-.031 1.156-.074C17.332 22.688 18.38 24 20.5 24c2.016 0 3.055-1.188 3.375-2.816A3.81 3.81 0 0 1 25 21a3.7 3.7 0 0 1 1.133.188C26.477 22.813 27.559 24 29.5 24c2.25 0 3.352-1.59 3.473-3.613zM21.03 33.402C22.3 34.375 23.741 35 25.347 35c1.359 0 2.562-.469 3.62-1.207V35a.942.942 0 0 0 .063.36c.121.328.285.62.469.89-.754.742-2.2 1.75-4.5 1.75-2.297 0-3.742-1.004-4.5-1.75.184-.27.348-.563.469-.89a.942.942 0 0 0 .062-.36zm9.887 4.207c.457.297.957.547 1.46.75 1.423.578 3 .938 4.454 1.418 1.453.48 2.75 1.082 3.648 1.989.715.73 1.141 1.789 1.32 3.203H26v-5.032a8.462 8.462 0 0 0 4.918-2.328zm-11.82.012A8.434 8.434 0 0 0 24 39.937v5.032H8.203c.184-1.332.602-2.344 1.313-3.059.902-.898 2.207-1.508 3.664-2.012 1.457-.503 3.039-.89 4.457-1.496a8.887 8.887 0 0 0 1.46-.78z"/></svg>