<svg xmlns="http://www.w3.org/2000/svg" viewBox="0 0 50 50"><path d="M27.023 3.004C17.613 3.004 7.996 6.418 8 32c0 .273.11.54.305.73.191.192.453.301.726.301.067 0 6.156.051 9.969.828v.973c-.633 1.32-1.793 1.941-4.078 2.594C10.945 38.562 6 39.937 6 46c0 .57.43 1 1 1h17v-9.04a6.147 6.147 0 0 1-3.457-1.683c.18-.27.336-.558.457-.879a1.02 1.02 0 0 0 .063-.359v-1.617c1.261.973 2.699 1.613 4.316 1.613 1.363 0 2.558-.445 3.621-1.183v1.183c0 .125.02.246.063.36a4.2 4.2 0 0 0 .457.882 6.31 6.31 0 0 1-3.489 1.68L26 47l17-.004c.57 0 1.031-.46 1.031-1.031 0-6.305-4.8-7.637-8.332-8.664-2.156-.63-4.031-1.172-4.636-2.473v-.973c4.496-.976 9.808-.828 9.867-.824A1.033 1.033 0 0 0 42 32c-.004-18.04-4.176-26.621-13.25-26.984l-.824-1.48a1.033 1.033 0 0 0-.903-.532zm2.004 10.031c.66 1.774 1.668 3.63 2.551 5.078-.578-.097-1.281-.07-2.05-.07-1.618 0-2.97-.129-3.368 1.117a5.714 5.714 0 0 0-1.133-.125c-.406 0-.78.055-1.136.125-.121-.375-.325-.629-.606-.797 2.426-1.629 4.504-3.707 5.742-5.328zm3.985 7.266c.133.191.316.445.343.469.23.214.543.308.852.246.055-.008.82.02.824 1.52 0 .734-.281 1.421-1 1.495-.375.04-.699.29-.832.64-1.527 4.02-4.09 8.364-7.824 8.364-3.582.004-6.797-3.836-8.516-8.36a.994.994 0 0 0-.828-.636c-.734-.074-1-.746-1-1.477 0-1.113.504-1.511.914-1.523.383 0 .766-.031 1.153-.086.257 1.77 1.304 3.086 3.43 3.082 2.015 0 3.054-1.187 3.378-2.816.332-.102.7-.184 1.121-.184.426 0 .797.086 1.133.188.344 1.625 1.426 2.812 3.367 2.812 2.293 0 3.395-1.648 3.485-3.734z"/></svg>