<svg xmlns="http://www.w3.org/2000/svg" viewBox="0 0 26 26"><path d="M24.102 14.3c-1.704-.8-2.801.302-4.403 1.598C18.301 17 17.2 18 17.102 17.2c-.204-1.3-.204-1.898-.204-3.699 0-1.398.403-4.602.801-7 .403-2.898.602-4.602-.898-4.7-1.403-.1-1.403.598-1.903 4.598-.398 3-1 5.102-1.296 5.102-.301 0 .699-2.7 1.097-5.5.801-4.898.5-5.5-.8-5.7C12.8 0 12.5 1 11.8 6c-.403 2.602-1.301 5.2-1.5 5.2-.3 0-1.3-2.599-2-5.303C7 .7 6.1.898 5.6 1.102c-.703.199-1.3.699 0 5.597.797 2.903 1.297 4.7.899 4.801-.2 0-.602-1.602-1.102-3.898C4.7 3.699 3.7 3.699 3.102 3.898c-.602.204-.704.602.097 4.403C4 12 3.801 12.6 4 17.5c.3 6.3 2 6.398 2 8.5h8.5c.3-.602.8-1 2.2-2.398 1.402-1.403 4.6-5.704 7.1-7 1.802-.903 1.098-1.903.302-2.301z"/></svg>