<svg xmlns="http://www.w3.org/2000/svg" viewBox="0 0 64 64"><path d="M4 53h56a3 3 0 0 0 3-3v-8l-9-6v-8l9-6v-8a3 3 0 0 0-3-3H4a3 3 0 0 0-3 3v8l9 6v8l-9 6v8a3 3 0 0 0 3 3z" fill="#72caaf"/><path d="M54 36v-8l9-6v-8a3 3 0 0 0-3-3H49.25l-21 42H47.5l8-16zM24.25 53H19l21-42h5.25zm-10.5 0H12l21-42h1.75z" fill="#84d5b5"/><path d="M4 53h14a3 3 0 0 0 3-3V14a3 3 0 0 0-3-3H4a3 3 0 0 0-3 3v8l9 6v8l-9 6v8a3 3 0 0 0 3 3z" fill="#ffefb8"/><path d="M38.496 42.996l1.238 2.266L42 46.496l-2.266 1.238L38.496 50l-1.234-2.266-2.266-1.238 2.266-1.234zM28.418 17l.855 1.563 1.567.855-1.567.855-.855 1.567-.855-1.567L26 19.418l1.563-.855zm24.934 23.703l.582 1.067 1.066.582-1.066.582L53.352 44l-.582-1.066-1.067-.582 1.067-.582z" fill="#adead0"/><path d="M38 20.27l2.96 7.257 8.04.735-6.066 5.304 1.863 7.625L38 36.984l-6.797 4.207 1.863-7.625L27 28.262l8.04-.735z" fill="#f6d397"/><path d="M61.574 24.125C62.98 23.875 64 22.637 64 21.187V13c0-1.652-1.348-3-3-3H3c-1.652 0-3 1.348-3 3v8.188c0 1.449 1.02 2.687 2.426 2.937A7.991 7.991 0 0 1 9 32a7.991 7.991 0 0 1-6.574 7.875C1.02 40.125 0 41.363 0 42.813V51c0 1.652 1.348 3 3 3h58c1.652 0 3-1.348 3-3v-8.188c0-1.449-1.02-2.687-2.426-2.937A7.991 7.991 0 0 1 55 32a7.991 7.991 0 0 1 6.574-7.875zM53 32a9.99 9.99 0 0 0 8.223 9.844c.449.082.777.488.777.968V51c0 .55-.45 1-1 1H18a1 1 0 0 0-1-1h-2a1 1 0 0 0-1 1H3c-.55 0-1-.45-1-1v-8.188c0-.48.328-.89.777-.968A9.99 9.99 0 0 0 11 32a9.99 9.99 0 0 0-8.223-9.844c-.449-.082-.777-.488-.777-.968V13c0-.55.45-1 1-1h11a1 1 0 0 0 1 1h2a1 1 0 0 0 1-1h43c.55 0 1 .45 1 1v8.188c0 .48-.328.89-.777.968A9.99 9.99 0 0 0 53 32z" fill="#8d6c9f"/><path d="M17 16h-2a1 1 0 1 0 0 2h2a1 1 0 1 0 0-2zm0 5h-2a1 1 0 1 0 0 2h2a1 1 0 1 0 0-2zm0 5h-2a1 1 0 1 0 0 2h2a1 1 0 1 0 0-2zm0 5h-2a1 1 0 1 0 0 2h2a1 1 0 1 0 0-2zm0 5h-2a1 1 0 1 0 0 2h2a1 1 0 1 0 0-2zm0 5h-2a1 1 0 1 0 0 2h2a1 1 0 1 0 0-2zm0 5h-2a1 1 0 1 0 0 2h2a1 1 0 1 0 0-2zm4-32a1 1 0 0 0-1 1v34a1 1 0 1 0 2 0V15a1 1 0 0 0-1-1zm28.09 13.266l-7.43-.676-2.734-6.7a1 1 0 0 0-1.852 0l-2.734 6.7-7.43.676a.991.991 0 0 0-.86.687.995.995 0 0 0 .294 1.063l5.605 4.902-1.719 7.035a.997.997 0 1 0 1.496 1.09L38 38.16l6.273 3.883c.16.098.344.148.524.148a.994.994 0 0 0 .59-.191c.328-.238.476-.652.383-1.047l-1.72-7.035 5.606-4.906a.99.99 0 0 0 .293-1.063.993.993 0 0 0-.86-.683zm-6.817 5.547a1 1 0 0 0-.312.992l1.285 5.25-4.719-2.922a.99.99 0 0 0-.527-.149 1.02 1.02 0 0 0-.527.149l-4.72 2.922 1.286-5.25a1 1 0 0 0-.312-.992l-4.313-3.77 5.715-.52c.371-.035.691-.27.836-.617L38 22.914l2.035 4.992a.998.998 0 0 0 .836.617l5.715.524z" fill="#8d6c9f"/></svg>