<svg xmlns="http://www.w3.org/2000/svg" viewBox="0 0 48 48"><path d="M44 20v-7c0-2.2-1.8-4-4-4h-5.5c0 .8-.7 1.5-1.5 1.5s-1.5-.7-1.5-1.5H8c-2.2 0-4 1.8-4 4v7c2.2 0 4 1.8 4 4s-1.8 4-4 4v7c0 2.2 1.8 4 4 4h23.5c0-.8.7-1.5 1.5-1.5s1.5.7 1.5 1.5H40c2.2 0 4-1.8 4-4v-7c-2.2 0-4-1.8-4-4s1.8-4 4-4zM33 35.5c-.8 0-1.5-.7-1.5-1.5s.7-1.5 1.5-1.5 1.5.7 1.5 1.5-.7 1.5-1.5 1.5zm0-5c-.8 0-1.5-.7-1.5-1.5s.7-1.5 1.5-1.5 1.5.7 1.5 1.5-.7 1.5-1.5 1.5zm0-5c-.8 0-1.5-.7-1.5-1.5s.7-1.5 1.5-1.5 1.5.7 1.5 1.5-.7 1.5-1.5 1.5zm0-5c-.8 0-1.5-.7-1.5-1.5s.7-1.5 1.5-1.5 1.5.7 1.5 1.5-.7 1.5-1.5 1.5zm0-5c-.8 0-1.5-.7-1.5-1.5s.7-1.5 1.5-1.5 1.5.7 1.5 1.5-.7 1.5-1.5 1.5z" fill="#ffa726"/><path d="M21 17l2.3 4.602 5.098.699-3.699 3.597L25.5 31 21 28.602 16.5 31l.8-5.102-3.698-3.597 5.097-.7z" fill="#f44336"/></svg>