<svg xmlns="http://www.w3.org/2000/svg" viewBox="0 0 26 26"><path d="M25.602 8.102L24 6.398c-.5.403-1.2.704-2 .704A3.12 3.12 0 0 1 18.898 4c0-.7.301-1.398.704-2L18 .398a.967.967 0 0 0-1.398 0L13.8 3.2c.097 0 .199.102.199.102l.3.3c.2.2.2.5 0 .7-.1.097-.198.097-.402.097-.199 0-.296 0-.398-.097L13.3 4c-.1-.102-.1-.102-.1-.2L.397 16.603a.967.967 0 0 0 0 1.398L2 19.7c.5-.5 1.2-.7 2-.7 1.7 0 3.102 1.398 3.102 3.102 0 .796-.301 1.5-.704 2L8 25.699a.961.961 0 0 0 1.398 0L22.2 12.9s-.097 0-.097-.098L21.8 12.5c-.2-.2-.2-.5 0-.7a.486.486 0 0 1 .699 0l.3.302s0 .097.098.097L25.602 9.5c.398-.398.398-1.102 0-1.398zM15 5c.2-.2.5-.2.7 0l.3.3c.2.2.2.5 0 .7-.102.102-.2.102-.398.102-.204 0-.301 0-.403-.102L15 5.7c-.2-.2-.2-.5 0-.7zm1.7 10.3c0 .098-.2.2-.302.2L13.7 16l-1.2 2.398c-.102.102-.2.204-.3.204-.098 0-.2 0-.2-.102l-.102-.102L10.7 16 8 15.602c-.102 0-.2-.102-.3-.204 0-.097 0-.296.1-.398l1.9-1.898-.5-2.602c0-.102 0-.3.1-.398.098-.102.302-.102.4 0l2.402 1.199 2.398-1.2c.2-.101.602.098.5.399l-.5 2.602L16.398 15c.301 0 .301.2.301.3zm1-7.6c-.098.1-.2.1-.4.1-.198 0-.3 0-.402-.1l-.296-.302a.477.477 0 0 1 0-.699.484.484 0 0 1 .699 0l.398.301c.2.2.2.5 0 .7zm1.698 1.698C19.301 9.5 19.2 9.5 19 9.5s-.3 0-.398-.102l-.301-.296c-.2-.204-.2-.5 0-.704a.484.484 0 0 1 .699 0l.3.301c.302.2.302.5.098.7zm1.704 1.704c-.102.097-.204.097-.403.097-.199 0-.3 0-.398-.097L20 10.8c-.2-.2-.2-.5 0-.7.2-.203.5-.203.7 0l.3.297c.3.204.3.5.102.704z"/></svg>