<svg xmlns="http://www.w3.org/2000/svg" viewBox="0 0 64 64"><path d="M15 8a3.01 3.01 0 0 0-3 3v6.23c0 .27.031.52.098.77H3a3.01 3.01 0 0 0-3 3v6.23c0 1.41.96 2.61 2.34 2.922A5.962 5.962 0 0 1 7 36c0 2.82-1.922 5.23-4.66 5.848A2.98 2.98 0 0 0 0 44.77V51c0 1.648 1.352 3 3 3h46c1.648 0 3-1.352 3-3v-6.23c0-.27-.031-.52-.098-.77H61c1.648 0 3-1.352 3-3v-6.23c0-1.41-.96-2.61-2.34-2.922A5.962 5.962 0 0 1 57 26c0-2.82 1.922-5.23 4.66-5.848A2.98 2.98 0 0 0 64 17.23V11c0-1.648-1.352-3-3-3zm0 2h46c.55 0 1 .45 1 1v6.23c0 .47-.32.86-.781.97A7.956 7.956 0 0 0 55 26a7.956 7.956 0 0 0 6.219 7.8c.46.11.781.5.781.97V41c0 .55-.45 1-1 1H15c-.55 0-1-.45-1-1v-6.23c0-.47.32-.86.781-.97A7.956 7.956 0 0 0 21 26a7.941 7.941 0 0 0-2.7-6 7.981 7.981 0 0 0-3.519-1.8 1.147 1.147 0 0 1-.41-.2.972.972 0 0 1-.371-.77V11c0-.55.45-1 1-1zm10 2a1 1 0 1 0 0 2h2a1 1 0 1 0 0-2zm6 0a1 1 0 0 0-1 1v26a1 1 0 1 0 2 0V13a1 1 0 0 0-1-1zm-6 5a1 1 0 1 0 0 2h2a1 1 0 1 0 0-2zM3 20h10.84c.16.059.328.11.5.152A5.962 5.962 0 0 1 19 26c0 2.82-1.922 5.23-4.66 5.848A2.98 2.98 0 0 0 12 34.77V41c0 1.648 1.352 3 3 3h34.629c.23.18.371.46.371.77V51c0 .55-.45 1-1 1H3c-.55 0-1-.45-1-1v-6.23c0-.47.32-.86.781-.97A7.956 7.956 0 0 0 9 36a7.956 7.956 0 0 0-6.219-7.8.993.993 0 0 1-.781-.97V21c0-.55.45-1 1-1zm22 2a1 1 0 1 0 0 2h2a1 1 0 1 0 0-2zm12 0a1 1 0 1 0 0 2h12a1 1 0 1 0 0-2zm-12 5a1 1 0 1 0 0 2h2a1 1 0 1 0 0-2zm12 1a1 1 0 1 0 0 2h4a1 1 0 1 0 0-2zm8 0a1 1 0 1 0 0 2h2a1 1 0 1 0 0-2zm-20 4a1 1 0 1 0 0 2h2a1 1 0 1 0 0-2zm0 5a1 1 0 1 0 0 2h2a1 1 0 1 0 0-2z"/></svg>