<svg xmlns="http://www.w3.org/2000/svg" viewBox="0 0 32 32"><path d="M20.469 4c-2.64 0-3.82 1.43-4.282 2.063-4.863.144-8.027 2.437-9.812 4.906A13.711 13.711 0 0 0 4.5 14.594C4.137 15.668 4 16.426 4 17h2c0-.031.098-.836.406-1.75A11.93 11.93 0 0 1 8 12.125C9.555 9.977 12.094 8 16.625 8h.594l.281-.531s.46-.899 1.781-1.282C19.141 6.813 19 7.075 19 8v.406l.281.313s1.856 1.828 2.25 2.219c.508.507.434.863.688 1.906.254 1.043.847 2.46 2.562 4.125l.219.187.281.063c.2.039.36.156.5.375.14.218.219.535.219.781v1.156c-.266.203-.75.469-1.656.469-.567 0-.824-.262-1.063-.594a2.032 2.032 0 0 1-.312-.656l-.25-.969-.969.25s-.8.196-1.688.094c-.886-.102-1.671-.371-2.125-1.5l-.468-1.156-1.032.687c-1 .672-1.671 1.461-2.03 2.313-.36.851-.407 1.707-.407 2.562 0 1.32.29 2.215.531 3.125.242.91.469 1.922.469 3.844h2c0-2.09-.273-3.395-.531-4.375S16 22.07 16 21.031c0-.761.055-1.316.25-1.781.11-.254.477-.523.719-.781.851.949 1.914 1.547 2.875 1.656.851.098 1.133-.016 1.562-.094.102.23.051.285.25.563.477.668 1.403 1.406 2.688 1.406 2.09 0 3.375-1.313 3.375-1.313l.281-.28v-2.032c0-.645-.191-1.3-.563-1.875-.277-.43-.792-.668-1.312-.906l.063-.063c-1.5-1.453-1.833-2.332-2.032-3.156-.199-.824-.25-1.879-1.218-2.844l-.063-.062 4.375-4.531-.469-.563L21.5 8.063c-.152-.157-.344-.344-.438-.438.086-1.098.375-2.344.375-2.344L21.813 4zm.437 8.469a.766.766 0 0 0-.75.75c0 .402.348.719.75.719a.712.712 0 0 0 .719-.72c0-.402-.316-.75-.719-.75z"/></svg>