<svg xmlns="http://www.w3.org/2000/svg" viewBox="0 0 50 50"><path d="M33.656 4.031a1.93 1.93 0 0 0-1.375.563L31.094 5.78l2.562 2.563c.899.898 1.149 2.246.625 3.375.395-.184.813-.25 1.25-.25a2.97 2.97 0 0 1 2.125.875l4.188 4.187A3.89 3.89 0 0 1 43 19.313a3.92 3.92 0 0 1-1.156 2.812l-3.657 3.656L36.5 27.5 20.75 43.219l.188.187c.37.371.878.594 1.406.594a1.9 1.9 0 0 0 1.375-.563L47.437 19.72A1.9 1.9 0 0 0 48 18.345c0-.528-.191-1.035-.563-1.407L43.22 12.75a1 1 0 0 0-1.22-.156c-.73.437-1.707.32-2.313-.281a1.879 1.879 0 0 1-.28-2.313 1 1 0 0 0-.157-1.219l-4.188-4.187a2.002 2.002 0 0 0-1.406-.563zm-6.968 1c-.512 0-1.036.16-1.407.532L21.594 9.25c.062.04.133.07.187.125l.719.719a.99.99 0 0 1 0 1.406c-.195.195-.46.281-.719.281a.938.938 0 0 1-.687-.281l-.719-.719c-.055-.054-.086-.125-.125-.187L1.562 29.28a1.967 1.967 0 0 0 0 2.782l4.22 4.187A.994.994 0 0 0 7 36.406a1.913 1.913 0 0 1 2.313.282c.617.617.734 1.558.28 2.312a1 1 0 0 0 .157 1.219l4.188 4.187c.37.371.878.594 1.406.594a1.9 1.9 0 0 0 1.375-.563L35.406 25.72c-.05-.035-.11-.047-.156-.094l-.688-.719a.99.99 0 0 1 0-1.406.99.99 0 0 1 1.407 0l.718.719c.047.047.06.105.094.156l3.657-3.656c.37-.375.562-.88.562-1.407 0-.523-.191-1.007-.563-1.375L36.25 13.75a1.04 1.04 0 0 0-1.25-.156 1.919 1.919 0 0 1-2.313-.281 1.879 1.879 0 0 1-.28-2.313 1 1 0 0 0-.157-1.219l-4.188-4.219c-.37-.37-.863-.53-1.375-.53zm-2.782 6.875c.254 0 .524.086.719.281l.688.72a.99.99 0 0 1 0 1.405c-.196.196-.43.313-.688.313a1.04 1.04 0 0 1-.719-.313l-.718-.687a1.028 1.028 0 0 1 0-1.438c.195-.195.464-.28.718-.28zm2.844 2.844c.254 0 .492.086.688.281l.718.719a.99.99 0 0 1 0 1.406c-.195.196-.46.282-.718.282a.938.938 0 0 1-.688-.282l-.719-.718a.99.99 0 0 1 0-1.407c.196-.195.465-.281.719-.281zm2.813 2.813c.253 0 .523.085.718.28l.688.72a.99.99 0 0 1 0 1.406c-.196.195-.43.312-.688.312a1.04 1.04 0 0 1-.718-.312l-.72-.688a1.028 1.028 0 0 1 0-1.437c.196-.196.466-.282.72-.282zm2.843 2.843c.254 0 .492.086.688.282l.718.718a.99.99 0 0 1 0 1.407c-.195.195-.46.28-.718.28a.938.938 0 0 1-.688-.28l-.718-.72a.99.99 0 0 1 0-1.405 1.01 1.01 0 0 1 .718-.282z"/></svg>