<svg xmlns="http://www.w3.org/2000/svg" viewBox="0 0 40 40"><path d="M20 38.488c-2.34 0-11.5-4.304-11.5-16.496 0-9.613 7.309-17.285 10.45-20.137a1.492 1.492 0 0 1 1.003-.367c.383 0 .738.13 1.004.367C24.125 4.742 31.5 12.488 31.5 21.992c0 12.192-9.16 16.496-11.5 16.496z" fill="#dff0fe"/><path d="M19.953 1.988c.258 0 .5.086.664.239C23.738 5.07 31 12.687 31 21.992c0 11.82-8.762 15.996-11 15.996-2.238 0-11-4.175-11-15.996 0-9.414 7.195-16.96 10.285-19.762a.987.987 0 0 1 .668-.242m0-1a1.99 1.99 0 0 0-1.336.496C15.477 4.336 8 12.214 8 21.992c0 12.438 9.414 16.996 12 16.996 2.586 0 12-4.558 12-16.996 0-9.777-7.477-17.562-10.707-20.508a2.006 2.006 0 0 0-1.34-.496z" fill="#4788c7"/><path d="M20.75 35.629c-.418.496-1.082.496-1.418 0C17.918 34.035 15 29.96 15 23s2.918-11.035 4.25-12.629c.418-.496 1.082-.496 1.418 0C22.082 11.965 25 16.04 25 23s-2.918 11.035-4.25 12.629z" fill="#98ccfd"/><path d="M20 33.5c-.04 0-.145-.008-.21-.094-.56-.582-2.29-2.668-2.29-6.406 0-3.738 1.73-5.824 2.262-6.371.097-.121.199-.129.238-.129.04 0 .145.008.21.094.56.582 2.29 2.668 2.29 6.406 0 3.738-1.73 5.824-2.262 6.371-.093.121-.199.129-.238.129z" fill="#4788c7"/><path d="M20 21.102c.598.668 2 2.593 2 5.898 0 3.305-1.402 5.23-2 5.898-.598-.668-2-2.593-2-5.898 0-3.305 1.402-5.23 2-5.898M20 20a.768.768 0 0 0-.602.281C18.5 21.215 17 23.453 17 27s1.5 5.785 2.398 6.719A.768.768 0 0 0 20 34c.227 0 .45-.094.602-.281C21.5 32.785 23 30.547 23 27s-1.5-5.785-2.398-6.719A.768.768 0 0 0 20 20z" fill="#4788c7"/><path d="M21 14c0 .55-.45 1-1 1s-1-.45-1-1 .45-1 1-1 1 .45 1 1z" fill="#fff"/></svg>