<svg xmlns="http://www.w3.org/2000/svg" viewBox="0 0 40 40"><path d="M12.914 34.5a1.59 1.59 0 0 1-1.5-1.07l-2.02-5.903-4.816-5.023 3.89-1.602 3.595 4.727c.144.191.257.406.335.637l2.02 6.156c.16.488.082 1.008-.223 1.422-.3.418-.765.656-1.28.656z" fill="#b6dcfe"/><path d="M8.305 21.512l3.36 4.418c.112.148.198.312.257.492l2.023 6.152c.11.336.055.692-.152.977a1.076 1.076 0 0 1-.879.449 1.09 1.09 0 0 1-1.027-.734l-1.985-5.797-.074-.207-.148-.16-4.23-4.415 2.855-1.175m.328-1.215L3.71 22.32l5.242 5.473 1.988 5.797a2.086 2.086 0 0 0 3.954-1.324l-2.024-6.157a2.647 2.647 0 0 0-.41-.785z" fill="#4788c7"/><path d="M29.145 34.332a1.637 1.637 0 0 1-1.61-1.969l1.192-5.808a2.13 2.13 0 0 1 .418-.907l4.882-6.214 2.961 1.656-5.066 6.496-1.172 5.45a1.653 1.653 0 0 1-1.605 1.296z" fill="#98ccfd"/><path d="M34.156 20.078l2.078 1.164-4.636 5.945-.141.18-.047.227-1.148 5.34a1.149 1.149 0 0 1-1.117.902 1.13 1.13 0 0 1-.887-.422 1.127 1.127 0 0 1-.235-.95l1.192-5.812c.05-.25.164-.492.32-.691l4.621-5.883m-.258-1.289l-5.148 6.55a2.63 2.63 0 0 0-.516 1.11l-1.191 5.813a2.14 2.14 0 0 0 2.098 2.57 2.145 2.145 0 0 0 2.097-1.691l1.149-5.34 5.351-6.863z" fill="#4788c7"/><path d="M17.5 7.5a3 3 0 1 1-6.002-.002A3 3 0 0 1 17.5 7.5z" fill="#dff0fe"/><path d="M14.5 5C15.879 5 17 6.121 17 7.5S15.879 10 14.5 10A2.502 2.502 0 0 1 12 7.5C12 6.121 13.121 5 14.5 5m0-1a3.5 3.5 0 1 0 0 7 3.5 3.5 0 1 0 0-7z" fill="#4788c7"/><path d="M2.145 34.5a1.63 1.63 0 0 1-1.336-.684 1.618 1.618 0 0 1-.223-1.48L2.62 26.3l-.871-4.766a4.833 4.833 0 0 1 .68-3.48l3.824-6.028A3.288 3.288 0 0 1 9.039 10.5c.559 0 1.11.145 1.602.414l.836.469 3.386 5.117H19a1.5 1.5 0 0 1 0 3h-5.25c-.68 0-1.32-.3-1.754-.828l-1.484-1.8-3.727 6.116-.582 3.985-2.531 6.484A1.634 1.634 0 0 1 2.145 34.5z" fill="#b6dcfe"/><path d="M9.04 11c.472 0 .94.121 1.355.352l.734.41 3.168 4.789.297.449H19c.55 0 1 .45 1 1s-.45 1-1 1h-5.25a1.762 1.762 0 0 1-1.367-.645l-1.04-1.257-.894-1.086-.73 1.199-3.309 5.43-.105.175-.028.2-.558 3.828-2.516 6.43c-.172.44-.59.726-1.062.726-.371 0-.707-.172-.926-.477a1.11 1.11 0 0 1-.153-1.027l1.993-5.914.082-.242-.047-.254-.848-4.64a4.365 4.365 0 0 1 .61-3.122l3.828-6.027A2.781 2.781 0 0 1 9.04 11m0-1a3.791 3.791 0 0 0-3.204 1.762l-3.828 6.027a5.356 5.356 0 0 0-.75 3.84l.847 4.637-1.992 5.91a2.141 2.141 0 0 0 4.024 1.465L6.69 27.1l.575-3.94 3.308-5.43 1.035 1.261A2.782 2.782 0 0 0 13.75 20H19a1.999 1.999 0 1 0 0-4h-3.867l-3.305-4.996-.945-.524A3.788 3.788 0 0 0 9.039 10z" fill="#4788c7"/><path d="M29.5 8.5a3 3 0 1 1-6.002-.002A3 3 0 0 1 29.5 8.5z" fill="#dff0fe"/><path d="M26.5 6C27.879 6 29 7.121 29 8.5S27.879 11 26.5 11A2.502 2.502 0 0 1 24 8.5C24 7.121 25.121 6 26.5 6m0-1a3.5 3.5 0 1 0 0 7 3.5 3.5 0 1 0 0-7z" fill="#4788c7"/><path d="M37.824 34.5a1.68 1.68 0 0 1-1.515-.96l-3.075-6.536.844-5.488-3.98-3.489-1.832 3.172a2.183 2.183 0 0 1-1.063.93l-3.121 1.27a1.672 1.672 0 0 1-.629.124c-.707 0-1.34-.449-1.574-1.113-.29-.82.11-1.734.906-2.082l2.871-1.25 2.29-5.496 1.929-1.543a2.49 2.49 0 0 1 3.234.117l3.825 3.625a4.864 4.864 0 0 1 1.332 5.063l-1.305 5.222 2.422 6.145a1.67 1.67 0 0 1-1.559 2.29z" fill="#98ccfd"/><path d="M31.426 12c.5 0 .976.188 1.336.516l3.84 3.636a4.363 4.363 0 0 1 1.187 4.54l-.012.03-.007.036-1.254 5.031-.078.313.117.296 2.363 5.997c.145.367.098.765-.121 1.09a1.165 1.165 0 0 1-.973.515c-.453 0-.87-.266-1.062-.676l-3.012-6.398.781-5.067.082-.543-.414-.359-3.312-2.906-.918-.801-.61 1.055-1.527 2.644a1.65 1.65 0 0 1-.816.711l-3.125 1.277a1.166 1.166 0 0 1-1.54-.695c-.203-.57.079-1.21.633-1.457l2.688-1.168.367-.164.156-.371 2.16-5.191 1.832-1.461a1.97 1.97 0 0 1 1.239-.43m0-1c-.656 0-1.317.215-1.86.652l-2.035 1.618-2.258 5.43-2.687 1.171a2.163 2.163 0 0 0-1.176 2.703 2.16 2.16 0 0 0 2.86 1.29l3.125-1.274a2.691 2.691 0 0 0 1.304-1.14l1.528-2.645 3.312 2.906-.824 5.367 3.14 6.672a2.178 2.178 0 0 0 1.97 1.25 2.177 2.177 0 0 0 2.023-2.973l-2.364-5.996L38.738 21a5.346 5.346 0 0 0-1.46-5.582l-3.829-3.629A2.99 2.99 0 0 0 31.426 11z" fill="#4788c7"/></svg>