<svg xmlns="http://www.w3.org/2000/svg" viewBox="0 0 24 24"><path d="M9.5 4a1.5 1.5 0 1 0 0 3 1.5 1.5 0 0 0 0-3zm4 2a1.5 1.5 0 1 0 0 3 1.5 1.5 0 0 0 0-3zM7.281 7.031c-.156.02-.316.04-.468.094a2.1 2.1 0 0 0-1.282 1.313l-1.25 3.593A5.086 5.086 0 0 0 4 13.687v2.563L2 20h1.906l1.813-3.531A2.96 2.96 0 0 0 6 15.187V14.5l1.844 1.688L8.625 20h1.813L9.5 15.625a1.904 1.904 0 0 0-.344-.75L7.594 12.75l.875-2.469.5.938c.265.472.77.781 1.312.781h2.25l.406-2h-2.343L9.313 7.75l-.657-.438c-.414-.257-.902-.335-1.375-.28zm9 .969a1.89 1.89 0 0 0-1.375.594l-.969 1.031-.687 2.781-2.406 1.375 1 1.75 2.406-1.375a2.01 2.01 0 0 0 .938-1.281L15.655 11l1.719 1.688-2.219 2.468c-.246.27-.398.606-.469.969L13.938 20H16l.656-3.5 1.407-1.563-.313 1.344a1.993 1.993 0 0 0 .25 1.75L19.375 20h2.438l-2.157-3.125 1.063-2.813c.441-1.148.176-2.43-.719-3.28l-2.313-2.188A1.965 1.965 0 0 0 16.282 8z"/></svg>