<svg xmlns="http://www.w3.org/2000/svg" viewBox="0 0 50 50"><path d="M7 2v46h27.037A9.925 9.925 0 0 0 40 50c5.5 0 10-4.5 10-10 0-4.455-2.954-8.253-7-9.535V14.6L30.4 2H7zm23 2.4L40.6 15H30V4.4zM27 19a9 9 0 0 1 9 9h-9v-9zm-4 4v9h9c0 .893-.135 1.754-.377 2.568a9.974 9.974 0 0 0-1.176 2.485A9 9 0 0 1 14 32a9 9 0 0 1 9-9zm17 9c4.4 0 8 3.6 8 8s-3.6 8-8 8-8-3.6-8-8 3.6-8 8-8zm0 2.1c-.6 0-1 .4-1 1V39h-3.9c-.6 0-1 .4-1 1s.4 1 1 1H39v3.9c0 .6.4 1 1 1s1-.4 1-1V41h3.9c.6 0 1-.4 1-1s-.4-1-1-1H41v-3.9c0-.6-.4-1-1-1z"/></svg>