<svg xmlns="http://www.w3.org/2000/svg" viewBox="0 0 24 24"><path d="M20.875 0a.997.997 0 0 0-.688.406S15.418 7 8 7H1.812C.813 7 0 7.813 0 8.813v4.374C0 14.188.813 15 1.813 15H8c7.418 0 12.188 6.594 12.188 6.594A.999.999 0 0 0 22 21v-8c1.102 0 2-.898 2-2 0-1.102-.898-2-2-2V1a1.004 1.004 0 0 0-1.125-1zM20 3.563v14.874c-2.047-2.07-5.773-5.062-11-5.406V8.97c5.227-.344 8.953-3.336 11-5.406zM2 16v1c1.2 2.398 2 4.887 2 5.688C4 23.387 4.613 24 5.313 24h2.375c1.101 0 1.32-.914 1.218-1.313 0-.5-.3-1.187-1-1.687-2.398-1.7-2.312-5-2.312-5z"/></svg>