<svg xmlns="http://www.w3.org/2000/svg" viewBox="0 0 40 40"><polygon points="5.5,38.5 5.5,4.5 22.793,4.5 31.5,13.207 31.5,38.5" fill="#e1ebf2"/><path d="M22.586 5L31 13.414V38H6V5h16.586M23 4H5v35h27V13l-9-9z" fill="#788b9c"/><polygon points="8.5,35.5 8.5,1.5 25.793,1.5 34.5,10.207 34.5,35.5" fill="#fff"/><path d="M25.586 2L34 10.414V35H9V2h16.586M26 1H8v35h27V10l-9-9z" fill="#788b9c"/><polygon points="25.5,10.5 25.5,1.5 25.793,1.5 34.5,10.207 34.5,10.5" fill="#fff"/><path d="M26 2.414L33.586 10H26V2.414M26 1h-1v10h10v-1l-9-9z" fill="#788b9c"/><circle cx="21.5" cy="27.5" r="1.5" fill="#5e9c76"/><rect x="20" y="13" width="3" height="11" fill="#5e9c76"/></svg>