<svg xmlns="http://www.w3.org/2000/svg" viewBox="0 0 50 50"><path d="M20.094 3.5a.98.98 0 0 0-.469.25L16.25 6.875l-4.5.75a1 1 0 0 0-.781.594l-1.719 4.25-3.719 2.625a1 1 0 0 0-.437.875l.281 4.594-2.25 3.937a.995.995 0 0 0 0 1l2.25 3.938-.281 4.593a1 1 0 0 0 .437.875l3.719 2.625 1.719 4.25a1 1 0 0 0 .781.594l4.5.75 3.375 3.125a.999.999 0 0 0 .969.219L25 45.156l4.406 1.313c.34.105.707.02.969-.219l3.375-3.125 4.5-.75a1 1 0 0 0 .781-.594l1.719-4.25 3.719-2.625a1 1 0 0 0 .437-.875l-.281-4.593 2.25-3.938a.995.995 0 0 0 0-1l-2.25-3.938.281-4.593a1 1 0 0 0-.437-.875l-3.719-2.625-1.719-4.25a1 1 0 0 0-.781-.594l-4.5-.75-3.375-3.125a.999.999 0 0 0-.969-.219L25 4.844 20.594 3.53a1.02 1.02 0 0 0-.407-.031h-.093zm.468 2.125l4.157 1.219a.985.985 0 0 0 .562 0l4.157-1.219 3.187 2.906c.14.13.313.215.5.25l4.25.719 1.594 3.969c.07.176.191.328.343.437l3.563 2.5-.281 4.344c-.008.184.035.371.125.531L44.844 25l-2.125 3.719c-.09.16-.133.347-.125.531l.281 4.344-3.563 2.5a.998.998 0 0 0-.343.437L37.375 40.5l-4.25.719a.999.999 0 0 0-.5.25l-3.188 2.906-4.156-1.219a.985.985 0 0 0-.562 0l-4.157 1.219-3.187-2.906a1.013 1.013 0 0 0-.5-.25l-4.25-.719-1.594-3.969a.998.998 0 0 0-.344-.437l-3.562-2.5.281-4.344a1.007 1.007 0 0 0-.125-.531L5.156 25l2.125-3.719c.09-.16.133-.347.125-.531l-.281-4.344 3.563-2.5a.998.998 0 0 0 .343-.437L12.625 9.5l4.25-.719a.999.999 0 0 0 .5-.25zm13.5 8.844l-10.937 17-7.344-6.625-1.344 1.5 8.188 7.406.875.781.625-1 11.625-18z"/></svg>