<svg xmlns="http://www.w3.org/2000/svg" viewBox="0 0 50 50"><path d="M26.313 0c-6.055 0-11.891 1.879-16.22 5.813C5.767 9.745 3 15.71 3 23.688 3 36.703 13.082 50 27.406 50h.219a12.821 12.821 0 0 0 4.57-.906 12.122 12.122 0 0 1-1.527-1.574c-.969.296-2.004.46-3.074.48h-.188C14.328 48 5 35.668 5 23.687c0-7.523 2.54-12.863 6.438-16.406C15.335 3.738 20.668 2 26.312 2c7.598 0 12.5 2.285 15.532 5.031C44.875 9.777 46 13.094 46 14.906c.047 6.73-2.96 9.227-5.875 11.344-.953.691-1.906 1.316-2.73 2.035A11.94 11.94 0 0 1 40 28c.363 0 .719.016 1.074.047a9.08 9.08 0 0 0 .239-.172c3.035-2.207 6.738-5.602 6.687-12.969 0-2.586-1.422-6.242-4.844-9.344C39.734 2.462 34.316 0 26.313 0zm.187 5c-1.313 0-2.465.71-3.25 1.719C22.465 7.727 22 9.047 22 10.5c0 1.453.465 2.773 1.25 3.781C24.035 15.29 25.188 16 26.5 16c1.313 0 2.465-.71 3.25-1.719.785-1.008 1.25-2.328 1.25-3.781 0-1.453-.465-2.773-1.25-3.781C28.965 5.71 27.812 5 26.5 5zm0 2c.617 0 1.203.316 1.688.938.484.62.812 1.53.812 2.562 0 1.031-.328 1.941-.813 2.563-.484.62-1.07.937-1.687.937s-1.207-.32-1.688-.938c-.484-.62-.812-1.53-.812-2.562 0-1.031.328-1.945.813-2.563.48-.62 1.07-.937 1.687-.937zm-11 3c-1.313 0-2.465.71-3.25 1.719C11.465 12.727 11 14.047 11 15.5c0 1.453.465 2.773 1.25 3.781C13.035 20.29 14.188 21 15.5 21c1.313 0 2.465-.71 3.25-1.719.785-1.008 1.25-2.328 1.25-3.781 0-1.453-.465-2.773-1.25-3.781C17.965 10.71 16.812 10 15.5 10zm22 0c-1.313 0-2.465.71-3.25 1.719C33.465 12.727 33 14.047 33 15.5c0 1.453.465 2.773 1.25 3.781C35.035 20.29 36.188 21 37.5 21c1.313 0 2.465-.71 3.25-1.719.785-1.008 1.25-2.328 1.25-3.781 0-1.453-.465-2.773-1.25-3.781C39.965 10.71 38.812 10 37.5 10zm-22 2c.617 0 1.207.32 1.688.938.484.62.812 1.53.812 2.562 0 1.031-.328 1.941-.813 2.563-.484.62-1.07.937-1.687.937s-1.203-.316-1.688-.938c-.484-.62-.812-1.53-.812-2.562 0-1.031.328-1.945.813-2.563.48-.62 1.07-.937 1.687-.937zm22 0c.617 0 1.207.32 1.688.938.484.62.812 1.53.812 2.562 0 1.031-.328 1.941-.813 2.563-.484.62-1.07.937-1.687.937s-1.203-.316-1.688-.938c-.484-.62-.812-1.53-.812-2.562 0-1.031.328-1.945.813-2.563.48-.62 1.07-.937 1.687-.937zm-23 11c-1.313 0-2.465.71-3.25 1.719C10.465 25.727 10 27.047 10 28.5c0 1.453.465 2.773 1.25 3.781C12.035 33.29 13.188 34 14.5 34c1.313 0 2.465-.71 3.25-1.719.785-1.008 1.25-2.328 1.25-3.781 0-1.453-.465-2.773-1.25-3.781C16.965 23.71 15.812 23 14.5 23zm0 2c.617 0 1.203.316 1.688.938.484.62.812 1.53.812 2.562 0 1.031-.328 1.941-.813 2.563-.484.62-1.07.937-1.687.937s-1.203-.316-1.688-.938c-.484-.62-.812-1.53-.812-2.562 0-1.031.328-1.945.813-2.563.48-.62 1.07-.937 1.687-.937zM40 30c-5.5 0-10 4.5-10 10s4.5 10 10 10 10-4.5 10-10-4.5-10-10-10zm0 2c4.398 0 8 3.602 8 8s-3.602 8-8 8-8-3.602-8-8 3.602-8 8-8zm-13 1c-3.324 0-6 2.676-6 6s2.676 6 6 6c.684 0 1.344-.113 1.953-.324a11.738 11.738 0 0 1-.625-1.887A4.2 4.2 0 0 1 27 43c-2.277 0-4-1.723-4-4s1.723-4 4-4c.695 0 1.34.16 1.902.453.25-.617.555-1.203.903-1.766A6.029 6.029 0 0 0 27 33zm12.7.402v1.5c-.9 0-2.798.696-2.798 2.797 0 3.5 4.5 2.602 4.5 4.801 0 .2-.004 1.2-1.304 1.2-1.5 0-1.5-1.4-1.5-1.7h-2c0 3 2.601 3.3 3 3.3v1.4h1.101v-1.4c.399 0 2.801-.3 2.801-2.8 0-3.5-4.5-2.7-4.5-4.8 0-.2 0-1.2 1.098-1.298 1.203 0 1.304 1.098 1.304 1.696h2c0-2.598-1.902-3.098-2.601-3.196v-1.5z"/></svg>