<svg xmlns="http://www.w3.org/2000/svg" viewBox="0 0 24 24"><path d="M12 2c-4.445 0-8.453 2.566-7.969 8.563C4.023 10.71 4 10.848 4 11c0 .195.047.441.063.656C3.487 12.09 3 12.672 3 13.5c0 1.176.875 2.012 1.969 2.281.593 1.543 1.426 3.008 2.531 4.125C8.719 21.141 10.266 22 12 22c.492 0 1.203-.082 1.875-.156.672-.074 1.25-.157 1.25-.157l-.25-1.968s-.566.05-1.219.125c-.652.074-1.449.156-1.656.156-1.066 0-2.105-.531-3.063-1.5-.957-.969-1.773-2.34-2.28-3.813L6.406 14H5.5c-.215 0-.5-.285-.5-.5 0-.223.121-.344.406-.438l.875-.312-.218-.906C5.992 11.559 6 11.398 6 11c0-.441.035-.828.094-1.188 1.152-.898 2.054-.136 3.5-2.406 1.5 2.73 5.668 1.035 8.156 1.782A6.41 6.41 0 0 1 18 11v5h.688c-.055.258-.102.48-.157.656a2.36 2.36 0 0 1-.125.344h-4.5a1.48 1.48 0 0 0-1.406-1 1.5 1.5 0 0 0 0 3c.074 0 .148-.02.219-.031.09.023.187.035.281.031h6c.242 0 .477-.09.656-.25 0 0 .235-.23.375-.469a4.59 4.59 0 0 0 .438-1.031c.113-.367.226-.848.312-1.406A2.003 2.003 0 0 0 22 14v-2c0-1.102-.898-2-2-2 .145-5.594-3.695-8-8-8zm-2.5 9a1.5 1.5 0 1 0 0 3 1.5 1.5 0 0 0 0-3zm5 0a1.5 1.5 0 1 0 0 3 1.5 1.5 0 0 0 0-3z"/></svg>