<svg xmlns="http://www.w3.org/2000/svg" viewBox="0 0 64 64"><path d="M7 8c-1.652 0-3 1.348-3 3v42c0 1.652 1.348 3 3 3h50c1.652 0 3-1.348 3-3V11c0-1.652-1.348-3-3-3zm0 2h50c.55 0 1 .45 1 1v42c0 .55-.45 1-1 1H7c-.55 0-1-.45-1-1V20h41a1 1 0 1 0 0-2H6v-7c0-.55.45-1 1-1zm3 2a1 1 0 0 0-1 1v2a1 1 0 1 0 2 0v-2a1 1 0 0 0-1-1zm5 0a1 1 0 0 0-1 1v2a1 1 0 1 0 2 0v-2a1 1 0 0 0-1-1zm5 0a1 1 0 0 0-1 1v2a1 1 0 1 0 2 0v-2a1 1 0 0 0-1-1zm5 0a1 1 0 0 0-1 1v2a1 1 0 1 0 2 0v-2a1 1 0 0 0-1-1zm5 0a1 1 0 0 0-1 1v2a1 1 0 1 0 2 0v-2a1 1 0 0 0-1-1zm5 0a1 1 0 0 0-1 1v2a1 1 0 1 0 2 0v-2a1 1 0 0 0-1-1zm5 0a1 1 0 0 0-1 1v2a1 1 0 1 0 2 0v-2a1 1 0 0 0-1-1zm5 0a1 1 0 0 0-1 1v2a1 1 0 1 0 2 0v-2a1 1 0 0 0-1-1zm5 0a1 1 0 0 0-1 1v2a1 1 0 1 0 2 0v-2a1 1 0 0 0-1-1zm5 0a1 1 0 0 0-1 1v2a1 1 0 1 0 2 0v-2a1 1 0 0 0-1-1zm-4 6a1 1 0 1 0 0 2h4a1 1 0 1 0 0-2zm-20 6a1 1 0 0 0-1 1v15h-4v-3a1 1 0 0 0-1-1h-6a1 1 0 0 0-1 1v11h-5a1 1 0 1 0 0 2h36a1 1 0 1 0 0-2h-5V31a1 1 0 0 0-1-1h-5v-5a1 1 0 0 0-1-1zm1 2h4v22h-4zm6 6h4v16h-4zm-18 6h4v10h-4zm6 4h4v6h-4z"/></svg>