<svg xmlns="http://www.w3.org/2000/svg" viewBox="0 0 50 50"><path d="M16.781 0c-1.285.16-2.386 1.156-2.656 2.375C13.812 3.648 11 14.855 11 19.313V26.5c0 2.438 2.063 4.5 4.5 4.5 1.355 0 2.5 1.145 2.5 2.5v10.313c0 3.175 2.32 5.8 5.406 6.156.203.02.38.023.594.031 1.605 0 3.113-.602 4.25-1.75A6.017 6.017 0 0 0 30 44v-1.813c0-3.058-2.113-5.601-5-6.062a5.299 5.299 0 0 0-2 0V19.312c0-3.992-1.805-13.148-2.625-16.937A3.014 3.014 0 0 0 17.406 0h-.5c-.043 0-.086-.008-.125 0zM28 0a1 1 0 1 0 0 2h9v2h-9a1 1 0 1 0 0 2h9v2h-9a1 1 0 1 0 0 2h9v2h-9a1 1 0 1 0 0 2h9v2h-9a1 1 0 1 0 0 2h9v2h-9a1 1 0 1 0 0 2h9v2h-9a1 1 0 1 0 0 2h9v2h-9c-.555 0-1 .445-1 1 0 .555.445 1 1 1h9v15.5c0 2.438 2.063 4.5 4.5 4.5 2.438 0 4.5-2.063 4.5-4.5V5c0-2.758-2.242-5-5-5zM17 24a1.999 1.999 0 1 1 0 4 1.999 1.999 0 1 1 0-4zm-6 7.125v4.969A5.231 5.231 0 0 0 10 36c-3.363 0-6 2.637-6 6v2c0 3.363 2.637 6 6 6s6-2.637 6-6V33.5c0-.254-.246-.5-.5-.5-1.727 0-3.32-.73-4.5-1.875zM10 40c1.102 0 2 .898 2 2v2c0 1.102-.898 2-2 2-1.102 0-2-.898-2-2v-2c0-1.102.898-2 2-2zm14 0c1.102 0 2 .898 2 2v2c0 1.102-.898 2-2 2-1.102 0-2-.898-2-2v-2c0-1.102.898-2 2-2z"/></svg>