<svg xmlns="http://www.w3.org/2000/svg" viewBox="0 0 80 80"><path d="M6 17v46h68V17zm2 2h64v4c-.55 0-1 .45-1 1s.45 1 1 1v36H8V25c.55 0 1-.45 1-1s-.45-1-1-1zm4 4c-.55 0-1 .45-1 1s.45 1 1 1 1-.45 1-1-.45-1-1-1zm4 0c-.55 0-1 .45-1 1s.45 1 1 1 1-.45 1-1-.45-1-1-1zm4 0c-.55 0-1 .45-1 1s.45 1 1 1 1-.45 1-1-.45-1-1-1zm4 0c-.55 0-1 .45-1 1s.45 1 1 1 1-.45 1-1-.45-1-1-1zm4 0c-.55 0-1 .45-1 1s.45 1 1 1 1-.45 1-1-.45-1-1-1zm4 0c-.55 0-1 .45-1 1s.45 1 1 1 1-.45 1-1-.45-1-1-1zm4 0c-.55 0-1 .45-1 1s.45 1 1 1 1-.45 1-1-.45-1-1-1zm4 0c-.55 0-1 .45-1 1s.45 1 1 1 1-.45 1-1-.45-1-1-1zm4 0c-.55 0-1 .45-1 1s.45 1 1 1 1-.45 1-1-.45-1-1-1zm4 0c-.55 0-1 .45-1 1s.45 1 1 1 1-.45 1-1-.45-1-1-1zm4 0c-.55 0-1 .45-1 1s.45 1 1 1 1-.45 1-1-.45-1-1-1zm4 0c-.55 0-1 .45-1 1s.45 1 1 1 1-.45 1-1-.45-1-1-1zm4 0c-.55 0-1 .45-1 1s.45 1 1 1 1-.45 1-1-.45-1-1-1zm4 0c-.55 0-1 .45-1 1s.45 1 1 1 1-.45 1-1-.45-1-1-1zm4 0c-.55 0-1 .45-1 1s.45 1 1 1 1-.45 1-1-.45-1-1-1zM20.797 37.047c-2.945 0-4.797 2.21-4.797 5.992 0 3.781 1.828 6.043 4.797 6.043 2.957 0 4.793-2.27 4.793-6.035 0-3.797-1.86-6-4.793-6zm38.656.762v.937c-2.223.156-3.504 1.281-3.504 3.059 0 1.508.934 2.484 2.676 2.87l.828.173v2.187c-.723-.074-1.25-.547-1.281-1.14h-2.406c.007 1.75 1.359 2.843 3.687 2.964v.852h.988v-.867C62.72 48.66 64 47.543 64 45.734c0-1.543-.922-2.5-2.734-2.843l-.825-.153v-2.113c.575.098 1.012.57 1.028 1.105h2.324c-.02-1.636-1.316-2.785-3.352-2.98v-.941zm-23.266.707c-2.574 0-4.195 1.93-4.195 5.238 0 3.312 1.598 5.293 4.195 5.293 2.59 0 4.2-1.988 4.2-5.281 0-3.325-1.63-5.25-4.2-5.25zm10.11 0c-2.574 0-4.195 1.93-4.195 5.238 0 3.312 1.597 5.293 4.195 5.293 2.59 0 4.195-1.988 4.195-5.281 0-3.325-1.625-5.25-4.195-5.25zm-25.5.765c1.105 0 1.848 1.25 1.848 3.758 0 2.523-.743 3.816-1.848 3.816-1.11 0-1.844-1.292-1.844-3.816 0-2.508.735-3.758 1.844-3.758zm15.39 1.188c.97 0 1.622 1.093 1.622 3.285 0 2.21-.653 3.34-1.621 3.34-.97 0-1.614-1.13-1.614-3.34 0-2.191.645-3.285 1.614-3.285zm10.11 0c.969 0 1.621 1.093 1.621 3.285 0 2.21-.652 3.34-1.621 3.34s-1.613-1.13-1.613-3.34c0-2.191.644-3.285 1.613-3.285zm13.156.152v1.914c-.7-.144-1.066-.484-1.066-.972 0-.524.433-.91 1.066-.942zm.988 4.402c.797.145 1.184.47 1.184.997 0 .574-.45.957-1.184 1.015zm-31.218 1.34c-.871 0-1.395.543-1.395 1.325 0 .777.524 1.316 1.395 1.316.879 0 1.398-.543 1.398-1.316 0-.782-.52-1.325-1.398-1.325z"/></svg>