<svg xmlns="http://www.w3.org/2000/svg" viewBox="0 0 24 24"><path d="M12 2c-4.445 0-8.453 2.566-7.969 8.563C4.023 10.71 4 10.848 4 11c0 .195.047.441.063.656C3.487 12.09 3 12.672 3 13.5c0 1.176.875 2.012 1.969 2.281.593 1.543 1.426 3.008 2.531 4.125C8.719 21.141 10.266 22 12 22s3.266-.863 4.469-2.094c1.093-1.12 1.933-2.59 2.562-4.125C20.125 15.511 21 14.676 21 13.5c0-.828-.488-1.41-1.063-1.844.028-.191.063-.316.063-.656 0-.25-.012-.48-.031-.719-.004-.05.004-.105 0-.156C20.172 4.441 16.336 2 12 2zM9.594 7.406c1.5 2.73 5.668 1.035 8.156 1.782A6.41 6.41 0 0 1 18 11c0 .234-.094.527-.094 1.094v.719l.688.25c.285.093.406.214.406.437 0 .215-.285.5-.5.5h-.906l-.219.656c-.559 1.492-1.398 2.875-2.344 3.844-.945.969-1.965 1.5-3.031 1.5s-2.105-.531-3.063-1.5c-.957-.969-1.773-2.34-2.28-3.813L6.406 14H5.5c-.215 0-.5-.285-.5-.5 0-.223.121-.344.406-.438l.875-.312-.218-.906C5.992 11.559 6 11.398 6 11c0-.441.035-.828.094-1.188 1.152-.898 2.054-.136 3.5-2.406zM9.5 11a1.5 1.5 0 1 0 0 3 1.5 1.5 0 0 0 0-3zm5 0a1.5 1.5 0 1 0 0 3 1.5 1.5 0 0 0 0-3z"/></svg>