<svg xmlns="http://www.w3.org/2000/svg" viewBox="0 0 48 48"><path d="M24 37l-5-6v-6h10v6z" fill="#ff9800"/><path d="M35 19a1.999 1.999 0 1 1-4 0 1.999 1.999 0 1 1 4 0zm-18 0a1.999 1.999 0 1 1-4 0 1.999 1.999 0 1 1 4 0z" fill="#ffa726"/><path d="M33 13c0-7.602-18-5-18 0v7c0 5 4 9 9 9s9-4 9-9v-7z" fill="#ffb74d"/><path d="M24 4c-6.102 0-10 4.898-10 11v2.3l2 1.7v-5l12-4 4 4v5l2-1.7V15c0-4-1-8-6-9l-1-2z" fill="#424242"/><path d="M29 19c0 .55-.45 1-1 1s-1-.45-1-1 .45-1 1-1 1 .45 1 1zm-8 0c0 .55-.45 1-1 1s-1-.45-1-1 .45-1 1-1 1 .45 1 1z" fill="#784719"/><path d="M24 43l-5-12 5 1 5-1z" fill="#fff"/><path d="M23 35l-.7 4.5 1.7 4 1.7-4L25 35l1-1-2-2-2 2z" fill="#d32f2f"/><path d="M29 31l-5 12-5-12S8 33 8 44h32c0-11-11-13-11-13z" fill="#546e7a"/></svg>