<svg xmlns="http://www.w3.org/2000/svg" viewBox="0 0 80 80"><path d="M38.727 9c-4.84 0-9.192 2.648-12.348 5.223-3.156 2.578-5.168 5.164-5.168 5.164l-.902 1.156 1.41.414s.547.152 1.203.824c.652.668 1.351 1.809 1.351 3.969 0 2.8.43 5.063.645 6.02A2.741 2.741 0 0 0 24 33.8c0 .65.195 1.204.355 1.747.079.273.157.527.207.719.051.191.063.379.063.234 0 1.39 1.18 2.5 2.563 2.5h.058A13.004 13.004 0 0 0 32 47.516v3.027l-3.043 2.629c-2.262.988-5.828 2.578-8.926 4.535-1.578.996-3.031 2.078-4.133 3.266C14.797 62.16 14 63.5 14 65v6h52v-6c0-1.5-.797-2.84-1.898-4.027-1.102-1.188-2.555-2.27-4.133-3.266-3.098-1.957-6.664-3.547-8.926-4.535L48 50.543V47.52c2.563-2.055 4.309-5.079 4.754-8.52h.059c1.382 0 2.562-1.11 2.562-2.5 0 .145.012-.043.063-.234.05-.192.128-.446.207-.72.16-.542.355-1.097.355-1.745 0-.82-.371-1.543-.941-2.055.183-1.055.941-5.57.941-8.746 0-3.594-1.344-6.168-3.156-7.766-1.63-1.43-3.543-2.004-5.239-2.125-.273-.433-.757-1.113-1.761-1.898C44.402 10.09 42.09 9 38.727 9zm0 2c2.937 0 4.761.91 5.882 1.79 1.125.878 1.496 1.651 1.496 1.651l.274.559H47c1.332 0 3.125.508 4.52 1.738C52.918 17.968 54 19.891 54 23c0 2.79-.664 6.86-.86 8h-.015c-.086 0-.07.02-.125.027V28c0-3.422-1.398-5.723-2.805-7.086-1.406-1.363-2.879-1.863-2.879-1.863l-.57-.192-.437.418s-.63.618-2.149 1.313C42.64 21.285 40.29 22 37 22c-1.8 0-4.172.637-6.23 2.074-2.051 1.434-3.758 3.778-3.766 6.957-.055-.008-.043-.031-.129-.031-.023 0-.047.008-.07.008a25.783 25.783 0 0 1-.532-5.258c0-2.617-.937-4.355-1.918-5.363-.418-.43-.511-.356-.875-.57.692-.813 1.977-2.255 4.165-4.04C30.617 13.352 34.633 11 38.727 11zM47 21.156c.242.094.875.293 1.805 1.192C49.898 23.41 51 25.105 51 28v6.305l1.504-.883c.258-.149.496-.281.664-.367.02-.012.027-.012.047-.024.457.047.785.367.785.77 0 .074-.117.66-.27 1.183-.078.258-.156.52-.222.758-.067.238-.133.406-.133.758 0 .266-.219.5-.563.5H51.02l-.047.95a10.988 10.988 0 0 1-9.032 10.237l-.285.047-.215.2c-.39.355-.882.566-1.441.566s-1.05-.215-1.445-.57l-.211-.196-.285-.047a10.988 10.988 0 0 1-9.032-10.238l-.05-.949h-1.79c-.343 0-.562-.234-.562-.5 0-.352-.066-.52-.133-.758-.066-.238-.144-.5-.222-.758-.153-.523-.27-1.109-.27-1.183 0-.403.328-.723.785-.77.02.012.027.012.047.024.168.086.406.218.664.367l1.504.883V31.05c0-2.492 1.242-4.168 2.914-5.336C33.586 24.547 35.711 24 37 24c3.582 0 6.23-.785 7.992-1.59 1.309-.598 1.653-.965 2.008-1.254zM34.5 33a1.5 1.5 0 1 0 0 3 1.5 1.5 0 0 0 0-3zm11 0a1.5 1.5 0 1 0 0 3 1.5 1.5 0 0 0 0-3zM34 48.828c1.07.567 2.227.992 3.453 1.238.703.555 1.574.934 2.547.934.973 0 1.836-.379 2.54-.934 1.23-.242 2.39-.671 3.46-1.238v2.582a20.784 20.784 0 0 1-1.574 1.906C43.094 54.734 41.34 56 40 56c-1.34 0-3.094-1.266-4.426-2.684A20.784 20.784 0 0 1 34 51.41zm-1.496 3.922a22.52 22.52 0 0 0 1.61 1.934c.949 1.011 2.109 2.078 3.449 2.722l1.18 2.95L38.077 69h-3.582l-4.254-5.617 1.79-2.504L30 58.617v-3.715l.04-.02zm14.992 0l2.465 2.133.039.02v3.714l-2.031 2.262 1.789 2.504L45.504 69h-3.582l-.664-8.645 1.18-2.949c1.34-.644 2.5-1.71 3.449-2.722a22.52 22.52 0 0 0 1.61-1.934zM28 55.785v3.598l1.469 1.64-1.711 2.395L31.988 69H16v-4c0-.762.453-1.684 1.367-2.668.914-.984 2.242-1.996 3.727-2.934 2.234-1.41 4.812-2.664 6.906-3.613zm24 0c2.094.95 4.672 2.203 6.906 3.613 1.485.938 2.813 1.95 3.727 2.934C63.547 63.316 64 64.238 64 65v4H48.012l4.23-5.582-1.71-2.395L52 59.383z"/></svg>