<svg xmlns="http://www.w3.org/2000/svg" viewBox="0 0 64 64"><path d="M30.824 0C22.801 0 15.977 5.469 14.23 13.297L11.781 24.27a18.969 18.969 0 0 1-2.68 6.32l-1.664 2.52a2.995 2.995 0 0 0-.363 2.527c.266.86.895 1.55 1.73 1.898 1.294.535 2.755 1.035 4.34 1.5L8.25 41.38C4.46 43.199 2 47.089 2 51.3V59c0 1.648 1.352 3 3 3h54c1.648 0 3-1.352 3-3v-7.7c0-4.21-2.46-8.1-6.25-9.921l-4.938-2.363c1.614-.461 3.094-.957 4.387-1.485a3.01 3.01 0 0 0 1.727-1.886c.27-.86.136-1.782-.356-2.536l-1.86-2.847a18.94 18.94 0 0 1-2.616-6.153l-2.27-9.906C48.137 6.848 41.75 1.477 34.23 1.047A6.076 6.076 0 0 0 30.824 0zm0 2a4.14 4.14 0 0 1 2.473.828.95.95 0 0 0 .555.195c6.75.27 12.515 5.051 14.023 11.625l2.27 9.907a21.002 21.002 0 0 0 2.89 6.8l1.86 2.844a.997.997 0 0 1-.458 1.477c-1.789.734-3.949 1.406-6.402 2.011l-5.555-2.656a23.31 23.31 0 0 0 2.532-5.3c1.226-.461 2.347-1.961 2.89-3.95.309-1.183.38-2.37.176-3.351-.25-1.211-.879-2.02-1.789-2.258a1.72 1.72 0 0 0-.43-.063 14.214 14.214 0 0 0-.53-2.359 1.002 1.002 0 0 0-1.259-.652.99.99 0 0 0-.648 1.25c.316 1 .5 2.03.547 3.082.023.36.222.68.543.851a.999.999 0 0 0 1-.062c.18-.11.27-.121.27-.121.027.011.218.183.34.73.128.672.077 1.563-.153 2.434-.25.918-.61 1.578-.95 2-.328.418-.64.617-.789.617-.44 0-.832.289-.96.719a21.26 21.26 0 0 1-2.59 5.574c-.371.578-.77 1.129-1.211 1.64C37.429 38.29 34.829 40 32 40c-2.828 0-5.43-1.71-7.469-4.188a14.454 14.454 0 0 1-1.21-1.64 21.26 21.26 0 0 1-2.59-5.574 1.003 1.003 0 0 0-.961-.72c-.301 0-1.239-.776-1.739-2.616-.23-.871-.281-1.762-.152-2.434.121-.558.312-.719.332-.73.012 0 .09.011.277.12a.994.994 0 0 0 1 .063c.32-.172.52-.492.543-.851.047-1.04.23-2.07.547-3.059a1.015 1.015 0 0 0-.656-1.262 1.003 1.003 0 0 0-1.25.66c-.242.762-.422 1.54-.531 2.34-.16 0-.309.032-.43.063-.91.238-1.54 1.047-1.79 2.258-.202.98-.132 2.168.177 3.351.543 1.989 1.664 3.489 2.89 3.95a23.31 23.31 0 0 0 2.532 5.3l-5.614 2.688c-2.402-.602-4.539-1.282-6.336-2.032a1.01 1.01 0 0 1-.586-.636.99.99 0 0 1 .125-.844l1.66-2.52a20.982 20.982 0 0 0 2.965-6.984l2.45-10.973C17.727 6.824 23.746 2 30.824 2zm-4.297 10.125a2 2 0 0 0-1.843.89l-1.606 2.434a1.002 1.002 0 0 0 1.672 1.102l1.605-2.434 1.563.762A21.107 21.107 0 0 0 37.109 17h2.559a1 1 0 1 0 0-2h-2.559a19.06 19.06 0 0 1-8.316-1.922l-1.563-.762a1.988 1.988 0 0 0-.703-.191zM22.7 36.688C25.15 39.8 28.41 42 32 42s6.852-2.2 9.3-5.313l.641.31-4.851 13.948-2.012-4.023.871-2.606a1 1 0 1 0-1.898-.633L33.28 46h-2.56l-.77-2.316a1.001 1.001 0 0 0-1.898.633l.87 2.605-2.015 4.023L22.06 37zm-2.457 1.175L27.942 60H25.5l-8.25-11 2.55-3.402a.98.98 0 0 0 .188-.739l-.918-6.437zm23.516 0l1.172.563-.918 6.433a.993.993 0 0 0 .187.743l2.531 3.37-8.507 10.395a.993.993 0 0 0-.207.633H36.06zM17.18 39.328l.773 5.402-2.754 3.672a.996.996 0 0 0 0 1.196L23 60H5c-.55 0-1-.45-1-1v-7.7a9.053 9.053 0 0 1 5.117-8.12zm29.64 0l8.059 3.856A9.044 9.044 0 0 1 60 51.3V59c0 .55-.45 1-1 1H40.293l8.484-10.367a.996.996 0 0 0 .024-1.23l-2.754-3.669zM30.617 48h2.766l2.722 5.45c.02.038.051.07.079.109l-2.125 6.113a.954.954 0 0 0-.047.328h-4.024a.95.95 0 0 0-.043-.328l-2.133-6.125c.028-.035.063-.059.083-.098zM7 54a1 1 0 0 0-1 1v2a1 1 0 1 0 2 0v-2a1 1 0 0 0-1-1zm5 0a1 1 0 0 0-1 1v2a1 1 0 1 0 2 0v-2a1 1 0 0 0-1-1zm5 0a1 1 0 0 0-1 1v2a1 1 0 1 0 2 0v-2a1 1 0 0 0-1-1zm30 0a1 1 0 0 0-1 1v2a1 1 0 1 0 2 0v-2a1 1 0 0 0-1-1zm5 0a1 1 0 0 0-1 1v2a1 1 0 1 0 2 0v-2a1 1 0 0 0-1-1zm5 0a1 1 0 0 0-1 1v2a1 1 0 1 0 2 0v-2a1 1 0 0 0-1-1z"/></svg>