<svg xmlns="http://www.w3.org/2000/svg" viewBox="0 0 48 48"><path d="M24 3C12.398 3 3 12.398 3 24s9.398 21 21 21c.3 0 .7 0 1-.102V3.102C24.7 3 24.3 3 24 3z" fill="#cfd8dc"/><path d="M25 3.102V45c4.102-.2 7.898-1.5 11-3.7V6.8c-3.102-2.198-6.898-3.6-11-3.698z" fill="#37474f"/><path d="M20.5 13c-6.398.3-11.602 5.7-11.5 12.102 0 2.796 1 5.398 2.7 7.5C13.101 34.3 14 36.5 14 38.699V42.5c3 1.602 6.398 2.5 10 2.5.3 0 .7 0 1-.102.7 0 1.3-.097 2-.199v-9.398c3.602-2.102 6-5.903 6-10.403C33 18.2 27.398 12.7 20.5 13z" fill="#ffb74d"/><path d="M29 38.602L25 38v-9h8l-.7 7c-.198 1.602-1.6 2.8-3.3 2.602z" fill="#ffb74d"/><path d="M39 29l-7 2-1-5 1-4z" fill="#ffb74d"/><path d="M31 25.5a1.5 1.5 0 1 1-3 0 1.5 1.5 0 0 1 3 0z" fill="#784719"/><path d="M21 12c-7.2 0-13 5.8-13 13 0 7.602 5.102 9 6 13l4-3v-8l5-2 1-4c3.2 0 6-3.898 6-6.102C27.898 13 24.398 12 21 12z" fill="#ff5722"/><path d="M22 27a3 3 0 1 1-6.002-.002A3 3 0 0 1 22 27z" fill="#ffb74d"/><path d="M45 24c0-7.102-3.602-13.398-9-17.2v34.4c5.398-3.802 9-10.098 9-17.2z" fill="#cfd8dc"/><path d="M20 44.602c1.3.199 2.602.398 4 .398.3 0 .7 0 1-.102.7 0 1.3-.097 2-.199v-6.5l-7-1z" fill="#ff9800"/></svg>