<svg xmlns="http://www.w3.org/2000/svg" viewBox="0 0 50 50"><path d="M3 0v2h2c5.617 0 9.953 1.547 12.969 4.094 3.015 2.547 4.746 6.11 5.031 10.375l.031.468.375.282L36 26.5v4.563l-9.625 1.75h-.063v.03A2.7 2.7 0 0 0 24 35.5V37h-7.5v2H24v.906C24 44.36 20.36 48 15.906 48H3v2h12.906c1.125 0 2.207-.219 3.219-.563.164.325.484.563.875.563.55 0 1-.45 1-1 0-.129-.05-.23-.094-.344a10.152 10.152 0 0 0 2.157-1.687c.519-.04.937-.442.937-.969 0-.023-.031-.04-.031-.063a10.14 10.14 0 0 0 1.281-2.28c.184.21.45.343.75.343.55 0 1-.45 1-1s-.45-1-1-1c-.094 0-.164.04-.25.063.152-.696.25-1.418.25-2.157V38c.55 0 1-.45 1-1s-.45-1-1-1v-.5c0-.457.188-.672.625-.719h.063l1.312-.25V50h2V34.187l6-1.093V50h2V0h-2v24l-6-4.406V0h-2v18.125l-3.094-2.281a18.302 18.302 0 0 0-1.218-5.094c.199-.184.312-.457.312-.75 0-.55-.45-1-1-1-.047 0-.082.023-.125.031-.914-1.683-2.098-3.203-3.594-4.469a17.592 17.592 0 0 0-4.656-2.812A.967.967 0 0 0 15 1c0-.55-.45-1-1-1s-1 .45-1 1c0 .066.02.125.031.188C10.652.421 7.97 0 5 0zm17 0c-.55 0-1 .45-1 1s.45 1 1 1 1-.45 1-1-.45-1-1-1zm6 0c-.55 0-1 .45-1 1s.45 1 1 1 1-.45 1-1-.45-1-1-1zm17 0c-.55 0-1 .45-1 1s.45 1 1 1 1-.45 1-1-.45-1-1-1zM23 3c-.55 0-1 .45-1 1s.45 1 1 1 1-.45 1-1-.45-1-1-1zm17 0c-.55 0-1 .45-1 1s.45 1 1 1 1-.45 1-1-.45-1-1-1zm6 0c-.55 0-1 .45-1 1s.45 1 1 1 1-.45 1-1-.45-1-1-1zM26 6c-.55 0-1 .45-1 1s.45 1 1 1 1-.45 1-1-.45-1-1-1zm17 0c-.55 0-1 .45-1 1s.45 1 1 1 1-.45 1-1-.45-1-1-1zm-3 3c-.55 0-1 .45-1 1s.45 1 1 1 1-.45 1-1-.45-1-1-1zm6 0c-.55 0-1 .45-1 1s.45 1 1 1 1-.45 1-1-.45-1-1-1zm-20 3c-.55 0-1 .45-1 1s.45 1 1 1 1-.45 1-1-.45-1-1-1zm17 0c-.55 0-1 .45-1 1s.45 1 1 1 1-.45 1-1-.45-1-1-1zm-3 3c-.55 0-1 .45-1 1s.45 1 1 1 1-.45 1-1-.45-1-1-1zm6 0c-.55 0-1 .45-1 1s.45 1 1 1 1-.45 1-1-.45-1-1-1zm-28 2.5a3.514 3.514 0 0 0-3.5 3.5c0 1.922 1.578 3.5 3.5 3.5s3.5-1.578 3.5-3.5-1.578-3.5-3.5-3.5zm25 .5c-.55 0-1 .45-1 1s.45 1 1 1 1-.45 1-1-.45-1-1-1zm-25 1.5c.84 0 1.5.66 1.5 1.5s-.66 1.5-1.5 1.5-1.5-.66-1.5-1.5.66-1.5 1.5-1.5zM40 21c-.55 0-1 .45-1 1s.45 1 1 1 1-.45 1-1-.45-1-1-1zm6 0c-.55 0-1 .45-1 1s.45 1 1 1 1-.45 1-1-.45-1-1-1zm-3 3c-.55 0-1 .45-1 1s.45 1 1 1 1-.45 1-1-.45-1-1-1zm-3 3c-.55 0-1 .45-1 1s.45 1 1 1 1-.45 1-1-.45-1-1-1zm6 0c-.55 0-1 .45-1 1s.45 1 1 1 1-.45 1-1-.45-1-1-1zm-3 3c-.55 0-1 .45-1 1s.45 1 1 1 1-.45 1-1-.45-1-1-1zm-3 3c-.55 0-1 .45-1 1s.45 1 1 1 1-.45 1-1-.45-1-1-1zm6 0c-.55 0-1 .45-1 1s.45 1 1 1 1-.45 1-1-.45-1-1-1zm-3 3c-.55 0-1 .45-1 1s.45 1 1 1 1-.45 1-1-.45-1-1-1zm-3 3c-.55 0-1 .45-1 1s.45 1 1 1 1-.45 1-1-.45-1-1-1zm6 0c-.55 0-1 .45-1 1s.45 1 1 1 1-.45 1-1-.45-1-1-1zm-3 3c-.55 0-1 .45-1 1s.45 1 1 1 1-.45 1-1-.45-1-1-1zm-3 3c-.55 0-1 .45-1 1s.45 1 1 1 1-.45 1-1-.45-1-1-1zm6 0c-.55 0-1 .45-1 1s.45 1 1 1 1-.45 1-1-.45-1-1-1zm-20 3c-.55 0-1 .45-1 1s.45 1 1 1 1-.45 1-1-.45-1-1-1zm17 0c-.55 0-1 .45-1 1s.45 1 1 1 1-.45 1-1-.45-1-1-1z"/></svg>