<svg xmlns="http://www.w3.org/2000/svg" viewBox="0 0 80 80"><path d="M13 10v2c16.531 0 25 11.504 25 22.89v.301l7 10.532v2.465l-7 3.167V60c0 3.879-3.121 7-7 7h-6c-1.75 0-4.2-.703-6.148-1.438-1.95-.73-3.403-1.457-3.403-1.457l-.898 1.79s1.547.773 3.597 1.543C20.2 68.203 22.75 69 25 69h6c4.957 0 9-4.043 9-9v-7.355l5-2.266V70h2v-4c.55 0 1-.45 1-1s-.45-1-1-1v-4c.55 0 1-.45 1-1s-.45-1-1-1v-4c.55 0 1-.45 1-1s-.45-1-1-1v-4c.55 0 1-.45 1-1s-.45-1-1-1v-4c.55 0 1-.45 1-1s-.45-1-1-1v-4c.55 0 1-.45 1-1s-.45-1-1-1v-4c.55 0 1-.45 1-1s-.45-1-1-1v-4c.55 0 1-.45 1-1s-.45-1-1-1v-4c.55 0 1-.45 1-1s-.45-1-1-1v-4c.55 0 1-.45 1-1s-.45-1-1-1h-2v32.11l-5.031-7.57a24.66 24.66 0 0 0-3.168-11.7V10h-2v.02a1 1 0 0 0 0 1.96v4.04a1 1 0 0 0 0 1.96v1.852c-2.707-3.48-6.453-6.328-11.18-8.05A.996.996 0 0 0 24 11c0-.55-.45-1-1-1s-1 .45-1 1c0 .086.012.172.035.254a29.575 29.575 0 0 0-4.3-.93A.988.988 0 0 0 17 10c-.2 0-.398.063-.563.172A34.974 34.974 0 0 0 13 10zm16 0c-.55 0-1 .45-1 1s.45 1 1 1 1-.45 1-1-.45-1-1-1zm24 0c-.55 0-1 .45-1 1s.45 1 1 1 1-.45 1-1-.45-1-1-1zm6 0c-.55 0-1 .45-1 1s.45 1 1 1 1-.45 1-1-.45-1-1-1zm6 0c-.55 0-1 .45-1 1s.45 1 1 1 1-.45 1-1-.45-1-1-1zm-33 3c-.55 0-1 .45-1 1s.45 1 1 1 1-.45 1-1-.45-1-1-1zm18 0c-.55 0-1 .45-1 1s.45 1 1 1 1-.45 1-1-.45-1-1-1zm6 0c-.55 0-1 .45-1 1s.45 1 1 1 1-.45 1-1-.45-1-1-1zm6 0c-.55 0-1 .45-1 1s.45 1 1 1 1-.45 1-1-.45-1-1-1zm-9 3c-.55 0-1 .45-1 1s.45 1 1 1 1-.45 1-1-.45-1-1-1zm6 0c-.55 0-1 .45-1 1s.45 1 1 1 1-.45 1-1-.45-1-1-1zm6 0c-.55 0-1 .45-1 1s.45 1 1 1 1-.45 1-1-.45-1-1-1zm-15 3c-.55 0-1 .45-1 1s.45 1 1 1 1-.45 1-1-.45-1-1-1zm6 0c-.55 0-1 .45-1 1s.45 1 1 1 1-.45 1-1-.45-1-1-1zm6 0c-.55 0-1 .45-1 1s.45 1 1 1 1-.45 1-1-.45-1-1-1zm-9 3c-.55 0-1 .45-1 1s.45 1 1 1 1-.45 1-1-.45-1-1-1zm6 0c-.55 0-1 .45-1 1s.45 1 1 1 1-.45 1-1-.45-1-1-1zm6 0c-.55 0-1 .45-1 1s.45 1 1 1 1-.45 1-1-.45-1-1-1zm-15 3c-.55 0-1 .45-1 1s.45 1 1 1 1-.45 1-1-.45-1-1-1zm6 0c-.55 0-1 .45-1 1s.45 1 1 1 1-.45 1-1-.45-1-1-1zm6 0c-.55 0-1 .45-1 1s.45 1 1 1 1-.45 1-1-.45-1-1-1zm-9 3c-.55 0-1 .45-1 1s.45 1 1 1 1-.45 1-1-.45-1-1-1zm6 0c-.55 0-1 .45-1 1s.45 1 1 1 1-.45 1-1-.45-1-1-1zm6 0c-.55 0-1 .45-1 1s.45 1 1 1 1-.45 1-1-.45-1-1-1zm-39 3a1.006 1.006 0 0 0-.879.496 1.01 1.01 0 0 0 0 1.008c.184.312.52.5.879.496 4.734 0 7.445 1.832 7.445 1.832a1.003 1.003 0 0 0 1.567-.766 1 1 0 0 0-.457-.898S31.265 31 26 31zm24 0c-.55 0-1 .45-1 1s.45 1 1 1 1-.45 1-1-.45-1-1-1zm6 0c-.55 0-1 .45-1 1s.45 1 1 1 1-.45 1-1-.45-1-1-1zm6 0c-.55 0-1 .45-1 1s.45 1 1 1 1-.45 1-1-.45-1-1-1zm-9 3c-.55 0-1 .45-1 1s.45 1 1 1 1-.45 1-1-.45-1-1-1zm6 0c-.55 0-1 .45-1 1s.45 1 1 1 1-.45 1-1-.45-1-1-1zm6 0c-.55 0-1 .45-1 1s.45 1 1 1 1-.45 1-1-.45-1-1-1zm-35 3a3 3 0 0 0 0 6c1.11 0 2.07-.613 2.59-1.512-.031.004-.059.012-.09.012a1.5 1.5 0 0 1 0-3c.031 0 .059.008.09.012A2.994 2.994 0 0 0 30 37zm20 0c-.55 0-1 .45-1 1s.45 1 1 1 1-.45 1-1-.45-1-1-1zm6 0c-.55 0-1 .45-1 1s.45 1 1 1 1-.45 1-1-.45-1-1-1zm6 0c-.55 0-1 .45-1 1s.45 1 1 1 1-.45 1-1-.45-1-1-1zm-9 3c-.55 0-1 .45-1 1s.45 1 1 1 1-.45 1-1-.45-1-1-1zm6 0c-.55 0-1 .45-1 1s.45 1 1 1 1-.45 1-1-.45-1-1-1zm6 0c-.55 0-1 .45-1 1s.45 1 1 1 1-.45 1-1-.45-1-1-1zm-15 3c-.55 0-1 .45-1 1s.45 1 1 1 1-.45 1-1-.45-1-1-1zm6 0c-.55 0-1 .45-1 1s.45 1 1 1 1-.45 1-1-.45-1-1-1zm6 0c-.55 0-1 .45-1 1s.45 1 1 1 1-.45 1-1-.45-1-1-1zm-9 3c-.55 0-1 .45-1 1s.45 1 1 1 1-.45 1-1-.45-1-1-1zm6 0c-.55 0-1 .45-1 1s.45 1 1 1 1-.45 1-1-.45-1-1-1zm6 0c-.55 0-1 .45-1 1s.45 1 1 1 1-.45 1-1-.45-1-1-1zm-15 3c-.55 0-1 .45-1 1s.45 1 1 1 1-.45 1-1-.45-1-1-1zm6 0c-.55 0-1 .45-1 1s.45 1 1 1 1-.45 1-1-.45-1-1-1zm6 0c-.55 0-1 .45-1 1s.45 1 1 1 1-.45 1-1-.45-1-1-1zm-9 3c-.55 0-1 .45-1 1s.45 1 1 1 1-.45 1-1-.45-1-1-1zm6 0c-.55 0-1 .45-1 1s.45 1 1 1 1-.45 1-1-.45-1-1-1zm6 0c-.55 0-1 .45-1 1s.45 1 1 1 1-.45 1-1-.45-1-1-1zm-15 3c-.55 0-1 .45-1 1s.45 1 1 1 1-.45 1-1-.45-1-1-1zm6 0c-.55 0-1 .45-1 1s.45 1 1 1 1-.45 1-1-.45-1-1-1zm6 0c-.55 0-1 .45-1 1s.45 1 1 1 1-.45 1-1-.45-1-1-1zm-9 3c-.55 0-1 .45-1 1s.45 1 1 1 1-.45 1-1-.45-1-1-1zm6 0c-.55 0-1 .45-1 1s.45 1 1 1 1-.45 1-1-.45-1-1-1zm6 0c-.55 0-1 .45-1 1s.45 1 1 1 1-.45 1-1-.45-1-1-1zm-15 3c-.55 0-1 .45-1 1s.45 1 1 1 1-.45 1-1-.45-1-1-1zm6 0c-.55 0-1 .45-1 1s.45 1 1 1 1-.45 1-1-.45-1-1-1zm6 0c-.55 0-1 .45-1 1s.45 1 1 1 1-.45 1-1-.45-1-1-1zm-9 3c-.55 0-1 .45-1 1s.45 1 1 1 1-.45 1-1-.45-1-1-1zm6 0c-.55 0-1 .45-1 1s.45 1 1 1 1-.45 1-1-.45-1-1-1zm6 0c-.55 0-1 .45-1 1s.45 1 1 1 1-.45 1-1-.45-1-1-1zm-15 3c-.55 0-1 .45-1 1s.45 1 1 1 1-.45 1-1-.45-1-1-1zm6 0c-.55 0-1 .45-1 1s.45 1 1 1 1-.45 1-1-.45-1-1-1zm6 0c-.55 0-1 .45-1 1s.45 1 1 1 1-.45 1-1-.45-1-1-1z"/></svg>