<svg xmlns="http://www.w3.org/2000/svg" viewBox="0 0 64 64"><path d="M20 12C8.973 12 0 20.973 0 32s8.973 20 20 20a19.82 19.82 0 0 0 8.777-2.059c.094.028.184.059.285.059h17.063c9.926 0 18-8.074 18-18s-8.074-18-18-18H29c-.086 0-.16.027-.238.047A19.882 19.882 0 0 0 20 12zm0 2c9.926 0 18 8.074 18 18s-8.074 18-18 18S2 41.926 2 32s8.074-18 18-18zm11.95 2h14.175c8.82 0 16 7.18 16 16s-7.18 16-16 16H31.949C36.824 44.348 40 38.547 40 32c0-6.547-3.176-12.348-8.05-16zM20 17c-8.27 0-15 6.73-15 15 0 2.047.402 4.031 1.203 5.895a1 1 0 1 0 1.84-.786A12.923 12.923 0 0 1 7 32c0-7.168 5.832-13 13-13 .621 0 1.246.043 1.855.129.54.074 1.055-.3 1.13-.848a.994.994 0 0 0-.844-1.129A15.09 15.09 0 0 0 20 17zm6.078 1.363a.998.998 0 0 0-.95.57 1 1 0 0 0 .47 1.333c.668.316 1.312.695 1.918 1.125a.995.995 0 0 0 .578.183 1 1 0 0 0 .578-1.813 14.736 14.736 0 0 0-2.207-1.3 1.066 1.066 0 0 0-.387-.098zm5.05 3.996a1 1 0 0 0-.902 1.61A12.872 12.872 0 0 1 33 32c0 3.46-1.344 6.723-3.785 9.172a1.004 1.004 0 0 0 0 1.418 1.006 1.006 0 0 0 1.414-.004A14.909 14.909 0 0 0 35 32a14.84 14.84 0 0 0-3.203-9.266.982.982 0 0 0-.668-.375zM11.646 39.633a.988.988 0 0 0-.7.304l-1.39 1.438a1.008 1.008 0 0 0 .023 1.418 1.004 1.004 0 0 0 1.418-.027l1.387-1.438a1.008 1.008 0 0 0-.024-1.418 1.002 1.002 0 0 0-.714-.277zm12.867 2.492a.915.915 0 0 0-.39.074.996.996 0 0 0-.556 1.301l.75 1.855a1.003 1.003 0 0 0 1.305.551.998.998 0 0 0 .55-1.3l-.75-1.856a1.002 1.002 0 0 0-.91-.625zm-9.024 0a.998.998 0 0 0-.91.625l-.75 1.855a.997.997 0 0 0 .926 1.375c.394 0 .77-.234.93-.625l.75-1.855a1.004 1.004 0 0 0-.946-1.375zM20 43c-.55 0-1 .45-1 1v2c0 .55.45 1 1 1s1-.45 1-1v-2c0-.55-.45-1-1-1z"/></svg>