<svg xmlns="http://www.w3.org/2000/svg" viewBox="0 0 64 64"><path d="M28.879 49H46c9.39 0 17-7.61 17-17s-7.61-17-17-17H28.941" fill="#ed7899"/><path d="M58.371 32a3.992 3.992 0 0 1 3.242 1.648 3.992 3.992 0 0 1 .567 3.59A17 17 0 0 1 46 49H28.879V32z" fill="#e0678f"/><path d="M39 32c0 10.492-8.508 19-19 19S1 42.492 1 32s8.508-19 19-19 19 8.508 19 19z" fill="#c2cde7"/><path d="M34 32c0 7.73-6.27 14-14 14S6 39.73 6 32s6.27-14 14-14 14 6.27 14 14z" fill="#d6dff2"/><path d="M46.121 14H29a1.214 1.214 0 0 0-.238 0c-8.41-4.137-18.57-1.883-24.434 5.43a20.01 20.01 0 0 0 0 25.03c5.863 7.31 16.024 9.567 24.434 5.43.09.032.183.055.277.06h17.082c9.941 0 18-8.06 18-18 0-9.942-8.058-18-18-18zM2 32c0-9.941 8.059-18 18-18s18 8.059 18 18-8.059 18-18 18S2 41.941 2 32zm44.121 16H31.95a19.92 19.92 0 0 0 0-32h14.172c8.836 0 16 7.164 16 16s-7.164 16-16 16z" fill="#8d6c9f"/><path d="M31.8 22.738c-.347-.433-.98-.5-1.413-.152-.434.348-.504.98-.157 1.414a13 13 0 0 1-1 17.2 1 1 0 0 0 .004 1.413.996.996 0 0 0 1.414-.004c5.356-5.379 5.852-13.91 1.153-19.87zm-3.128-2.976c-.7-.496-1.442-.934-2.211-1.301a.993.993 0 0 0-1.043.031.995.995 0 0 0-.445.938.99.99 0 0 0 .629.832c.668.32 1.312.699 1.918 1.129a1 1 0 0 0 1.16-1.63zm-6.532-2.614a14.99 14.99 0 0 0-11.96 3.512A14.99 14.99 0 0 0 5 32a14.927 14.927 0 0 0 1.2 5.898A1 1 0 0 0 8 37.11 12.998 12.998 0 0 1 20 19c.621 0 1.242.043 1.86.129a1.007 1.007 0 0 0 1.14-.86 1.012 1.012 0 0 0-.86-1.14zM20 43c-.55 0-1 .45-1 1v2c0 .55.45 1 1 1s1-.45 1-1v-2c0-.55-.45-1-1-1zm-4.121-.8a1.001 1.001 0 0 0-1.3.55l-.75 1.852a.996.996 0 0 0 .1 1.027.999.999 0 0 0 1.75-.277l.75-1.852a.998.998 0 0 0-.55-1.3zm9.543.55a1.004 1.004 0 0 0-1.281-.496c-.489.2-.739.746-.57 1.246l.75 1.852a.998.998 0 0 0 1.277.492 1 1 0 0 0 .574-1.242zm-14.481-2.809L9.56 41.38a1.005 1.005 0 0 0 .027 1.418A1 1 0 0 0 11 42.77l1.39-1.442a1 1 0 1 0-1.44-1.387z" fill="#8d6c9f"/></svg>