<svg xmlns="http://www.w3.org/2000/svg" viewBox="0 0 64 64"><linearGradient id="a" gradientUnits="userSpaceOnUse" x1="11" y1="50" x2="11" y2="55.871" spreadMethod="reflect"><stop offset="0" stop-color="#6dc7ff"/><stop offset="1" stop-color="#e6abff"/></linearGradient><rect x="10" y="51" width="2" height="4" fill="url(#a)"/><linearGradient id="b" gradientUnits="userSpaceOnUse" x1="25" y1="41.167" x2="25" y2="55.452" spreadMethod="reflect"><stop offset="0" stop-color="#6dc7ff"/><stop offset="1" stop-color="#e6abff"/></linearGradient><rect x="24" y="41" width="2" height="14" fill="url(#b)"/><linearGradient id="c" gradientUnits="userSpaceOnUse" x1="39" y1="48.333" x2="39" y2="55.335" spreadMethod="reflect"><stop offset="0" stop-color="#6dc7ff"/><stop offset="1" stop-color="#e6abff"/></linearGradient><rect x="38" y="49" width="2" height="6" fill="url(#c)"/><linearGradient id="d" gradientUnits="userSpaceOnUse" x1="53" y1="32.167" x2="53" y2="55.688" spreadMethod="reflect"><stop offset="0" stop-color="#6dc7ff"/><stop offset="1" stop-color="#e6abff"/></linearGradient><rect x="52" y="33" width="2" height="22" fill="url(#d)"/><linearGradient id="e" gradientUnits="userSpaceOnUse" x1="25" y1="15.833" x2="25" y2="20" spreadMethod="reflect"><stop offset="0" stop-color="#1a6dff"/><stop offset="1" stop-color="#c822ff"/></linearGradient><circle cx="25" cy="18" r="1.5" fill="url(#e)"/><linearGradient id="f" gradientUnits="userSpaceOnUse" x1="53" y1="10.667" x2="53" y2="13.838" spreadMethod="reflect"><stop offset="0" stop-color="#1a6dff"/><stop offset="1" stop-color="#c822ff"/></linearGradient><circle cx="53" cy="12" r="1.5" fill="url(#f)"/><linearGradient id="g" gradientUnits="userSpaceOnUse" x1="11" y1="6.667" x2="11" y2="57.334" spreadMethod="reflect"><stop offset="0" stop-color="#1a6dff"/><stop offset="1" stop-color="#c822ff"/></linearGradient><path d="M14 43H8c-1.103 0-2 .897-2 2v12h10V45c0-1.103-.897-2-2-2zm0 2v2H8v-2h6zM8 55v-6h6v6H8z" fill="url(#g)"/><linearGradient id="h" gradientUnits="userSpaceOnUse" x1="25" y1="6.667" x2="25" y2="57.334" spreadMethod="reflect"><stop offset="0" stop-color="#1a6dff"/><stop offset="1" stop-color="#c822ff"/></linearGradient><path d="M28 33h-6c-1.103 0-2 .897-2 2v22h10V35c0-1.103-.897-2-2-2zm0 2v2h-6v-2h6zm-6 20V39h6v16h-6z" fill="url(#h)"/><linearGradient id="i" gradientUnits="userSpaceOnUse" x1="39" y1="6.667" x2="39" y2="57.334" spreadMethod="reflect"><stop offset="0" stop-color="#1a6dff"/><stop offset="1" stop-color="#c822ff"/></linearGradient><path d="M42 41h-6c-1.103 0-2 .897-2 2v14h10V43c0-1.103-.897-2-2-2zm0 2v2h-6v-2h6zm-6 12v-8h6v8h-6z" fill="url(#i)"/><linearGradient id="j" gradientUnits="userSpaceOnUse" x1="53" y1="6.667" x2="53" y2="57.334" spreadMethod="reflect"><stop offset="0" stop-color="#1a6dff"/><stop offset="1" stop-color="#c822ff"/></linearGradient><path d="M56 25h-6c-1.103 0-2 .897-2 2v30h10V27c0-1.103-.897-2-2-2zm0 2v2h-6v-2h6zm-6 28V31h6v24h-6z" fill="url(#j)"/><linearGradient id="k" gradientUnits="userSpaceOnUse" x1="32" y1="6.667" x2="32" y2="57.334" spreadMethod="reflect"><stop offset="0" stop-color="#1a6dff"/><stop offset="1" stop-color="#c822ff"/></linearGradient><path d="M51.048 16.602c.6.256 1.26.398 1.952.398 2.757 0 5-2.243 5-5s-2.243-5-5-5-5 2.243-5 5c0 1.344.539 2.56 1.405 3.46l-7.743 10.324A4.95 4.95 0 0 0 39 25c-1.195 0-2.278.438-3.139 1.14L29.2 20.691c.501-.779.8-1.699.8-2.691 0-2.757-2.243-5-5-5s-5 2.243-5 5c0 .849.233 1.637.608 2.339l-6.58 5.71A4.95 4.95 0 0 0 11 25c-2.757 0-5 2.243-5 5s2.243 5 5 5 5-2.243 5-5c0-.89-.253-1.715-.663-2.44l6.547-5.682C22.742 22.569 23.816 23 25 23c1.04 0 2.006-.32 2.807-.866l6.787 5.553A4.93 4.93 0 0 0 34 30c0 2.757 2.243 5 5 5s5-2.243 5-5c0-1.049-.327-2.02-.881-2.825l7.929-10.573zM53 9c1.654 0 3 1.346 3 3s-1.346 3-3 3-3-1.346-3-3 1.346-3 3-3zM11 33c-1.654 0-3-1.346-3-3s1.346-3 3-3 3 1.346 3 3-1.346 3-3 3zm14-12c-1.654 0-3-1.346-3-3s1.346-3 3-3 3 1.346 3 3-1.346 3-3 3zm14 12c-1.654 0-3-1.346-3-3s1.346-3 3-3 3 1.346 3 3-1.346 3-3 3z" fill="url(#k)"/></svg>