<svg xmlns="http://www.w3.org/2000/svg" viewBox="0 0 48 48"><path d="M37 18h6v24h-6zm-8 8h6v16h-6zm-8-4h6v20h-6zm-8 10h6v10h-6zm-8-4h6v14H5z" fill="#00bcd4"/><path d="M11 16a3 3 0 1 1-6.002-.002A3 3 0 0 1 11 16zm8 2a3 3 0 1 1-6.002-.002A3 3 0 0 1 19 18zm8-7a3 3 0 1 1-6.002-.002A3 3 0 0 1 27 11zm8 2a3 3 0 1 1-6.002-.002A3 3 0 0 1 35 13zm8-4a3 3 0 1 1-6.002-.002A3 3 0 0 1 43 9z" fill="#3f51b5"/><path d="M39.102 7.2L31.8 10.897l-8.3-2.096-8 7-7-1.7-1 3.797 9 2.301 8-7 7.7 1.903 8.698-4.301z" fill="#3f51b5"/></svg>