<svg xmlns="http://www.w3.org/2000/svg" viewBox="0 0 64 64"><path d="M7 6C5.348 6 4 7.348 4 9v42c0 1.652 1.348 3 3 3h50c1.652 0 3-1.348 3-3V9c0-1.652-1.348-3-3-3zm0 2h50c.55 0 1 .45 1 1v42c0 .55-.45 1-1 1H7c-.55 0-1-.45-1-1V18h41a1 1 0 1 0 0-2H6V9c0-.55.45-1 1-1zm3 2a1 1 0 0 0-1 1v2a1 1 0 1 0 2 0v-2a1 1 0 0 0-1-1zm5 0a1 1 0 0 0-1 1v2a1 1 0 1 0 2 0v-2a1 1 0 0 0-1-1zm5 0a1 1 0 0 0-1 1v2a1 1 0 1 0 2 0v-2a1 1 0 0 0-1-1zm5 0a1 1 0 0 0-1 1v2a1 1 0 1 0 2 0v-2a1 1 0 0 0-1-1zm5 0a1 1 0 0 0-1 1v2a1 1 0 1 0 2 0v-2a1 1 0 0 0-1-1zm5 0a1 1 0 0 0-1 1v2a1 1 0 1 0 2 0v-2a1 1 0 0 0-1-1zm5 0a1 1 0 0 0-1 1v2a1 1 0 1 0 2 0v-2a1 1 0 0 0-1-1zm5 0a1 1 0 0 0-1 1v2a1 1 0 1 0 2 0v-2a1 1 0 0 0-1-1zm5 0a1 1 0 0 0-1 1v2a1 1 0 1 0 2 0v-2a1 1 0 0 0-1-1zm5 0a1 1 0 0 0-1 1v2a1 1 0 1 0 2 0v-2a1 1 0 0 0-1-1zm-4 6a1 1 0 1 0 0 2h4a1 1 0 1 0 0-2zm4 5a1 1 0 0 0-.707.293l-7.008 7.008A2.96 2.96 0 0 0 46 28a2.97 2.97 0 0 0-1.895.695l-5.167-3.097c.039-.192.062-.395.062-.598 0-1.652-1.348-3-3-3s-3 1.348-3 3c0 .406.082.793.23 1.148l-5.808 5.227A2.978 2.978 0 0 0 26 31c-.895 0-1.691.402-2.238 1.027l-4.774-1.91c.004-.039.012-.078.012-.117 0-1.652-1.348-3-3-3s-3 1.348-3 3c0 .285.055.559.129.824l-4.707 3.363a.997.997 0 0 0-.235 1.391.99.99 0 0 0 1.39.234l4.704-3.359A2.97 2.97 0 0 0 16 33c.895 0 1.691-.402 2.238-1.027l4.774 1.91c-.004.039-.012.078-.012.117 0 1.652 1.348 3 3 3s3-1.348 3-3a2.97 2.97 0 0 0-.23-1.148l5.808-5.227c.426.23.906.375 1.422.375a2.97 2.97 0 0 0 1.895-.695l5.167 3.097A3.025 3.025 0 0 0 43 31c0 1.652 1.348 3 3 3s3-1.348 3-3c0-.46-.113-.895-.3-1.285l7.007-7.008A1 1 0 0 0 55 21zm-19 2.832a1.169 1.169 0 1 1-.001 2.337A1.169 1.169 0 0 1 36 23.832zm-20 5a1.169 1.169 0 1 1-.001 2.337A1.169 1.169 0 0 1 16 28.832zm30 .961A1.208 1.208 0 1 1 44.793 31 1.21 1.21 0 0 1 46 29.793zm-20 3.039a1.169 1.169 0 1 1-.001 2.337A1.169 1.169 0 0 1 26 32.832zM33 34a1 1 0 0 0-1 1v13h-2v-5a1 1 0 0 0-1-1h-6a1 1 0 0 0-1 1v5h-2v-9a1 1 0 0 0-1-1h-6a1 1 0 0 0-1 1v9h-1a1 1 0 1 0 0 2h40a1 1 0 1 0 0-2h-1v-7a1 1 0 0 0-1-1h-6a1 1 0 0 0-1 1v7h-2V35a1 1 0 0 0-1-1zm1 2h4v12h-4zm-20 4h4v8h-4zm30 2h4v6h-4zm-20 2h4v4h-4z"/></svg>