<svg xmlns="http://www.w3.org/2000/svg" viewBox="0 0 48 48"><path d="M34.3 42H13.7c-1 0-1.802-.7-2-1.602L8 21h32l-3.7 19.398a2.04 2.04 0 0 1-2 1.602z" fill="#ff8a65"/><path d="M23 19h2v21h-2zm15.102 0h-1l-4 21h1zm-6.204 0h-1.5l-2 21h1.5zm-22 0h1l4 21h-1zm6.204 0h1.5l2 21h-1.5z" fill="#f0744d"/><path d="M8.398 23l1.704 8.898c1.097 1.204 3.796 3.602 8.796 3.602 11.704 0 13.602-8.102 17.301-8.102.903 0 1.801 1 2.102 2.204L39.6 23z" fill="#f0744d"/><path d="M12.5 16.898C10.3 16.102 6 19.2 6 23.602 6 29 10.602 33 19.2 33c8.8 0 11.198-4.2 13.8-5.398 1.602-.801 5.602-1 5.5 1.296C40 28.301 42 26.602 42 22.5c0-3.7-3.898-8-9.3-9.3-1-5.4-5.5-8.5-8.7-9.302 0 3.5-5 2.602-5 6.204-7 .097-6.5 6.796-6.5 6.796z" fill="#f8bbd0"/><path d="M10 17.2c4 7.698 15.898 6 15.898 6s-11.097.198-13.398-6.4c-.7-.198-1.602 0-2.5.4zm24.5-3.302l-1.8-.597v-.102c-2.4 3.7-5.4 4.2-5.4 4.2s4.802.3 7.2-3.5zM19 10.2c-.898 0-1.7.1-2.398.3 2 4.102 7.5 2.898 7.5 2.898S19.8 13.7 19 10.2z" fill="#f48fb1"/></svg>