<svg xmlns="http://www.w3.org/2000/svg" viewBox="0 0 24 24"><path d="M12 1a3 3 0 1 0 .002 6.002A3 3 0 0 0 12 1zM4 3a3 3 0 1 0 .002 6.002A3 3 0 0 0 4 3zm16 0a3 3 0 1 0 .002 6.002A3 3 0 0 0 20 3zm-9.688 4.594C9.227 7.879 8.392 8.55 8 10v1c-.25-1.219-2.313-1.406-2.313-1.406A3.532 3.532 0 0 1 4 10a3.555 3.555 0 0 1-1.688-.406C1.23 9.879.391 10.55 0 12v4c0 3.016 2.496 5.637 6.188 7H7c.484-1.813 1.555-2.645 2.906-3a4.396 4.396 0 0 0 4.188 0c1.351.355 2.422 1.188 2.906 3h.813C21.503 21.637 24 19.016 24 16v-4c-.39-1.45-1.23-2.121-2.313-2.406-.5.27-1.078.406-1.687.406a3.555 3.555 0 0 1-1.688-.406S16.392 9.78 16 11v-1c-.39-1.45-1.23-2.121-2.313-2.406-.5.27-1.078.406-1.687.406a3.555 3.555 0 0 1-1.688-.406zM12 13a3 3 0 1 1-.002 6.002A3 3 0 0 1 12 13z"/></svg>