<svg xmlns="http://www.w3.org/2000/svg" viewBox="0 0 50 50"><path d="M24.938.031c-2.649.047-4.516 1.192-5.282 2.938-.703 1.597-.543 3.488-.093 5.437-.266.395-.45.895-.375 1.531.085.723.292 1.266.625 1.688.132.168.335.172.5.281.117.547.242 1.114.468 1.563.149.293.297.55.469.781.035.05.121.078.156.125.004.559-.02 1.05-.062 1.625-.121.262-.352.516-.875.813-.563.32-1.344.64-2.188 1.062-1.375.688-2.89 1.813-3.687 3.719-.324-.211-.852-.434-.938-.625a19.971 19.971 0 0 1-.062-1.594c.035-.047.12-.074.156-.125.172-.23.32-.488.469-.781.226-.45.351-1.016.469-1.563.164-.11.367-.113.5-.281.332-.422.539-.965.624-1.688a2.199 2.199 0 0 0-.374-1.53c.449-1.95.605-3.837-.094-5.438-.766-1.75-2.633-2.922-5.281-2.969-1.137 0-2.157.348-2.876 1.063-.976.199-1.789.664-2.28 1.343-.536.742-.747 1.602-.813 2.438-.11 1.418.172 2.715.437 3.625a2.198 2.198 0 0 0-.343 1.469c.085.722.292 1.265.625 1.687.125.16.312.172.468.281.114.543.25 1.082.469 1.532.14.292.3.578.469.812.035.05.12.078.156.125.004.559-.02 1.05-.063 1.625-.14.316-.359.59-.843.875-.52.309-1.266.602-2.032 1-1.535.8-3.269 2.25-3.437 5.063V39c.004.063.016.125.031.188 0 0 .434 2.078 2.375 4.374 1.942 2.297 5.387 4.91 11.344 6.376a1.001 1.001 0 0 0 1.25-.969V48c.078-1.09.43-1.781.969-2.344.55-.574 1.34-1.015 2.219-1.406.878-.39 1.84-.707 2.718-1.156.88-.45 1.77-1.082 2.157-2.125.03-.082.05-.164.062-.25.09-1.016.031-1.715.031-2.563a.996.996 0 0 0-.531-.906c.164.086.063.031-.031-.094a3.609 3.609 0 0 1-.313-.531c-.226-.453-.422-1.035-.468-1.469a1.003 1.003 0 0 0-.813-.875v-.031c-.05-.066-.188-.27-.25-.781-.02-.172.035-.246.063-.282a.998.998 0 0 0 .375-1.062c-.543-2.094-.579-3.977-.063-5.156.516-1.176 1.469-1.918 3.813-1.969h.03c1.098.012 1.712.355 1.813.531a.99.99 0 0 0 .719.5c.73.102 1.105.344 1.375.719s.418.934.469 1.594c.101 1.32-.29 2.984-.532 3.718a.995.995 0 0 0 .375 1.126c.02.035.051.109.032.28-.063.532-.176.755-.219.813a1.003 1.003 0 0 0-.813.875 4.768 4.768 0 0 1-.437 1.469 4.23 4.23 0 0 1-.313.563.597.597 0 0 1-.125.124 1.012 1.012 0 0 0-.437.844c0 .844-.063 1.547.031 2.563.012.086.032.168.063.25.386 1.043 1.281 1.676 2.156 2.125.875.449 1.813.765 2.688 1.156.875.39 1.671.832 2.218 1.406.535.563.89 1.254.969 2.344v.969a1.001 1.001 0 0 0 1.25.968c5.957-1.464 9.402-4.078 11.344-6.374 1.941-2.297 2.375-4.376 2.375-4.376A1.09 1.09 0 0 0 50 39V27.937c-.168-2.812-1.902-4.261-3.438-5.062-.765-.398-1.511-.691-2.03-1-.485-.285-.704-.559-.844-.875a19.071 19.071 0 0 1-.063-1.625c.035-.047.121-.074.156-.125a5.56 5.56 0 0 0 .469-.813c.219-.449.355-.988.469-1.53.156-.11.343-.122.468-.282.333-.422.54-.965.626-1.688a2.198 2.198 0 0 0-.344-1.468c.265-.91.547-2.211.437-3.625-.066-.836-.277-1.696-.812-2.438-.492-.68-1.305-1.144-2.282-1.343C42.094 5.348 41.075 5 39.938 5c-2.649.047-4.516 1.219-5.282 2.969-.699 1.601-.543 3.488-.093 5.437a2.2 2.2 0 0 0-.376 1.531c.086.723.293 1.266.626 1.688.132.168.335.172.5.281.117.547.242 1.114.468 1.563.149.293.297.55.469.781.035.05.121.078.156.125a19.97 19.97 0 0 1-.062 1.594c-.086.191-.614.414-.938.625-.793-1.907-2.285-3.032-3.656-3.719-.84-.422-1.625-.742-2.188-1.063-.523-.296-.753-.55-.875-.812a19.071 19.071 0 0 1-.062-1.625c.035-.047.121-.074.156-.125a5.56 5.56 0 0 0 .469-.813c.219-.449.355-.988.469-1.53.156-.11.343-.122.468-.282.333-.422.54-.965.625-1.688a2.198 2.198 0 0 0-.343-1.468c.265-.91.547-2.211.437-3.625-.066-.836-.277-1.696-.812-2.438-.492-.68-1.305-1.144-2.282-1.344-.718-.714-1.746-1.03-2.875-1.03zm0 2h.03c.997.012 1.528.293 1.595.406a.994.994 0 0 0 .75.5c.652.09.917.329 1.156.657.238.328.422.808.468 1.406.094 1.195-.277 2.707-.5 3.375-.125.402.012.836.344 1.094.016.02.047.074.032.219-.055.457-.184.64-.22.687a.995.995 0 0 0-.718.875c-.043.395-.238.902-.438 1.313-.101.203-.203.39-.28.5-.079.109-.18.156 0 .062a1.001 1.001 0 0 0-.532.875c0 .773-.023 1.434.063 2.375.011.086.03.168.062.25.344.922 1.074 1.516 1.813 1.938.738.421 1.539.722 2.28 1.093 1.489.746 2.696 1.555 3.063 3.657.051.3.239.562.508.707.266.144.586.16.867.043 1.192-.485 2.489-1.06 3-2.438.032-.082.051-.164.063-.25.086-.941.062-1.602.062-2.375a1.012 1.012 0 0 0-.437-.844c.004.004-.032 0-.032 0-.023-.02-.058-.047-.093-.093a3.742 3.742 0 0 1-.282-.5c-.207-.41-.394-.926-.437-1.313a.995.995 0 0 0-.719-.875c-.035-.047-.164-.23-.218-.688-.016-.144.015-.199.03-.218.321-.239.466-.645.376-1.031-.496-1.918-.555-3.63-.094-4.688.46-1.05 1.309-1.703 3.438-1.75h.03c.989.012 1.528.316 1.594.438.157.277.434.46.75.5.653.09.918.328 1.157.656.238.328.422.808.468 1.406.094 1.195-.277 2.707-.5 3.375-.124.402.012.836.344 1.094.016.02.047.074.032.219-.055.457-.184.64-.22.687a.995.995 0 0 0-.718.875c-.043.395-.238.902-.438 1.313-.101.203-.203.39-.28.5-.079.109-.18.156 0 .062a1.001 1.001 0 0 0-.532.875c0 .773-.023 1.438.063 2.375.011.086.03.168.062.25.344.926 1.07 1.547 1.781 1.969.711.422 1.438.687 2.094 1.031 1.297.676 2.23 1.316 2.375 3.375v10.906c-.027.13-.344 1.489-1.938 3.375-1.539 1.824-4.335 3.938-9.124 5.344-.153-1.39-.696-2.531-1.47-3.344-.835-.875-1.866-1.41-2.843-1.843-.977-.434-1.906-.77-2.594-1.126-.648-.332-.976-.64-1.125-.968-.05-.66-.035-1.203-.031-1.844.04-.05.117-.102.156-.156.18-.25.348-.528.5-.844.242-.492.41-1.094.532-1.688.171-.113.363-.136.5-.312.347-.441.562-1.004.656-1.781.078-.653-.114-1.157-.375-1.563.289-.984.62-2.426.5-3.968-.07-.899-.305-1.805-.875-2.594-.52-.719-1.371-1.223-2.407-1.438-.753-.8-1.87-1.156-3.125-1.156-2.859.05-4.835 1.281-5.656 3.156-.758 1.73-.59 3.809-.093 5.938a2.25 2.25 0 0 0-.407 1.625c.094.777.309 1.37.657 1.812.14.18.355.164.53.282.126.597.255 1.226.5 1.718.157.317.348.598.532.844.04.05.117.078.156.125.004.64.02 1.184-.031 1.844-.148.328-.473.633-1.125.968-.691.356-1.645.692-2.625 1.126-.98.433-2.004.968-2.844 1.843-.777.813-1.312 1.95-1.469 3.344-4.789-1.406-7.585-3.52-9.124-5.344-1.594-1.886-1.91-3.246-1.938-3.375V28c.145-2.059 1.078-2.7 2.375-3.375.656-.344 1.383-.61 2.094-1.031.71-.422 1.437-1.043 1.781-1.969.031-.082.05-.164.063-.25.085-.941.062-1.602.062-2.375a1.012 1.012 0 0 0-.438-.844c.004.004-.027 0-.03 0-.02-.02-.032-.047-.063-.093a3.938 3.938 0 0 1-.282-.5c-.199-.41-.394-.918-.437-1.313a.995.995 0 0 0-.719-.875c-.035-.047-.164-.23-.218-.688-.016-.144.015-.199.03-.218.333-.258.47-.692.345-1.094-.223-.668-.594-2.18-.5-3.375.046-.598.199-1.078.437-1.406.238-.328.535-.567 1.188-.656a.997.997 0 0 0 .75-.5c.066-.122.605-.426 1.593-.438h.031c2.13.047 2.977.7 3.438 1.75.46 1.059.402 2.77-.094 4.688-.097.402.063.828.406 1.062.016.035.012.086 0 .188-.054.457-.183.64-.218.687a.995.995 0 0 0-.719.875c-.043.387-.23.902-.438 1.313-.101.203-.199.39-.28.5-.083.109-.208.152-.032.062a1.001 1.001 0 0 0-.531.875c0 .777-.024 1.434.062 2.375.012.086.031.168.063.25.511 1.379 1.808 1.953 3 2.438.281.117.601.101.867-.043a.99.99 0 0 0 .508-.707c.367-2.102 1.566-2.91 3.062-3.657.746-.37 1.57-.672 2.313-1.093.742-.422 1.468-1.012 1.812-1.938.032-.082.051-.164.063-.25.086-.941.062-1.602.062-2.375a1.012 1.012 0 0 0-.437-.844c.004.004-.032 0-.032 0-.023-.02-.058-.047-.093-.094a3.742 3.742 0 0 1-.282-.5c-.207-.41-.394-.925-.437-1.312a.995.995 0 0 0-.719-.875c-.035-.047-.164-.23-.218-.688-.016-.144.015-.199.03-.218.321-.239.466-.645.376-1.031-.5-1.918-.555-3.602-.094-4.657.46-1.047 1.305-1.703 3.438-1.75z"/></svg>