<svg xmlns="http://www.w3.org/2000/svg" viewBox="0 0 50 50"><path d="M16 0C7.16 0 0 7.16 0 16s7.16 16 16 16c.734 0 1.45-.027 2.156-.125-.093.7-.156 1.402-.156 2.125 0 8.824 7.176 16 16 16s16-7.176 16-16-7.176-16-16-16c-.723 0-1.426.063-2.125.156.098-.707.125-1.422.125-2.156 0-8.84-7.16-16-16-16zm24.281.281l-5 5-.687.719.687.719 5 5 1.438-1.438L38.437 7H43c2.754 0 5 2.246 5 5v6h2v-6c0-3.844-3.156-7-7-7h-4.563l3.282-3.281zM16 2c7.762 0 14 6.238 14 14 0 .941-.074 1.773-.25 2.594A16.028 16.028 0 0 0 18.594 29.75c-.82.176-1.653.25-2.594.25-7.762 0-14-6.238-14-14S8.238 2 16 2zm1.094 5.906c-1.801 0-3.18.582-4.282 1.782-1 1.101-1.601 2.511-2 4.312H9.595L9 15.313h1.594v1.093h-1L9 17.688h1.688c.699 4.3 2.804 6.406 6.406 6.406 1.3 0 2.406-.399 3.406-1v-2.282c-.602.602-1.102.989-1.5 1.188-.602.3-1.207.406-1.906.406-2.301 0-3.688-1.613-4.188-4.812h4.781l.625-1.282h-5.5v-1.125h5.782l.593-1.28h-6.28c.198-1.302.585-2.2 1.187-3 .699-.9 1.617-1.407 2.719-1.407C17.913 9.5 19 10 20 11l1.094-1.688c-1.301-.898-2.7-1.406-4-1.406zM34 20c7.742 0 14 6.258 14 14s-6.258 14-14 14-14-6.258-14-14 6.258-14 14-14zm-.406 4.188v1.5c-.602 0-1.18.207-1.782.406-.601.3-1.101.601-1.5 1-.398.5-.8.898-1 1.5-.3.5-.406 1.113-.406 1.812 0 .7.082 1.188.282 1.688.101.5.414.918.812 1.218.398.301.805.583 1.406.782.5.199 1.2.394 2 .593v5.907c-.898-.2-1.617-.492-2.218-1.094-.5-.5-.883-1.305-.782-2.406H28.5c.102 1.601.602 2.82 1.5 3.718.8.899 2 1.493 3.5 1.594v1.782h1.188v-1.782c.8 0 1.398-.207 2-.406.601-.3 1.101-.602 1.5-1 .398-.398.8-.898 1-1.5.3-.5.406-1.207.406-1.906 0-.7-.106-1.282-.407-1.782-.199-.5-.476-.917-.874-1.218-.399-.399-.82-.582-1.22-.782a7.178 7.178 0 0 0-1-.406L34.814 33v-5.5c1.398.3 2.199 1.094 2.5 2.594h1.874c-.3-1.301-.8-2.395-1.5-3.094-.699-.7-1.675-1.21-2.874-1.313v-1.5zm-.188 3.406v5.218c-.3-.101-.699-.304-1-.406-.3-.199-.613-.3-.812-.5-.2-.199-.399-.418-.5-.718-.102-.301-.188-.602-.188-1 0-.801.188-1.477.688-1.875.5-.5 1.21-.72 1.812-.72zM0 32v6c0 3.844 3.156 7 7 7h4.563L8.28 48.281l1.44 1.439 5-5 .687-.719-.687-.719-5-5-1.44 1.438L11.562 43H7a5.01 5.01 0 0 1-5-5v-6zm34.688 3.094c.398.101.726.304 1.124.406.301.102.575.3.876.5.3.2.523.387.624.688.102.3.188.726.188 1.124 0 .399-.086.887-.188 1.188a1.508 1.508 0 0 1-.624.906c-.2.2-.575.399-.876.5-.3.102-.726.18-1.124.282z"/></svg>