<svg xmlns="http://www.w3.org/2000/svg" viewBox="0 0 48 48"><path d="M33 18c0 8.285-6.715 15-15 15S3 26.285 3 18 9.715 3 18 3s15 6.715 15 15z" fill="#3f51b5"/><path d="M20.3 16v1.7h-3.8v1.402h3.8V20.8h-3.8c0 .597.102 1.199.3 1.597.2.403.4.801.7 1 .3.301.7.403 1.102.602a5.8 5.8 0 0 0 1.398.2c.398 0 .7 0 1.102-.098.398-.102.699-.102 1-.301l.398 2.7a5.8 5.8 0 0 1-1.398.2c-.5.1-1 .1-1.5.1-.903 0-1.801-.1-2.602-.402-.8-.199-1.5-.597-2-1.097-.602-.5-1-1.102-1.398-1.903-.301-.699-.5-1.597-.5-2.597h-1.903v-1.7h1.903V17.7h-1.903V16h1.903a9.8 9.8 0 0 1 .597-2.602c.403-.699.801-1.398 1.403-1.898.597-.5 1.296-.898 2.097-1.102C18 10.102 18.9 10 19.801 10c.398 0 .898 0 1.3.102.399.097.899.097 1.297.296L22 13.102c-.3-.102-.602-.204-1-.301-.398-.102-.7-.102-1.102-.102-.5 0-1 .102-1.398.2-.398.101-.8.3-1 .601-.3.3-.5.602-.7 1-.198.398-.3.898-.3 1.5z" fill="#fff59d"/><path d="M45 30c0 8.285-6.715 15-15 15s-15-6.715-15-15 6.715-15 15-15 15 6.715 15 15z" fill="#4caf50"/><path d="M28.398 27c.102.2.204.398.403.602.199.199.398.398.699.5.3.199.7.296 1.102.5.699.296 1.398.597 2 .898.597.3 1.097.7 1.5 1.102.398.398.796.898 1 1.398.199.5.398 1.2.398 1.898 0 .704-.102 1.301-.3 1.801-.2.5-.5 1-.9 1.403a4.233 4.233 0 0 1-1.402.898c-.597.2-1.199.398-1.796.5v2.2H29.3v-2.2c-.602-.102-1.2-.2-1.801-.398-.602-.204-1.102-.5-1.5-1-.5-.403-.8-1-1.102-1.602-.296-.602-.398-1.398-.398-2.3h3.3c0 .5.098 1 .2 1.3.102.398.3.602.602.898.199.204.5.403.796.5.301.102.602.102.903.102.398 0 .699 0 .898-.102.301-.097.5-.199.7-.398.203-.2.3-.398.402-.602.097-.199.097-.5.097-.796 0-.301 0-.602-.097-.801-.102-.2-.2-.5-.403-.7-.199-.203-.398-.402-.699-.5-.3-.203-.699-.3-1.097-.5-.704-.3-1.403-.601-2-.902a5.82 5.82 0 0 1-1.5-1.097c-.403-.403-.801-.903-1-1.403-.204-.5-.403-1.199-.403-1.898 0-.602.102-1.2.301-1.7.2-.5.5-1 .898-1.402.403-.398.903-.699 1.403-1a9.67 9.67 0 0 1 1.8-.5v-2.398h1.797v2.398a6.35 6.35 0 0 1 1.801.602c.5.3 1 .597 1.301 1.097.398.403.7 1 .898 1.602.204.602.301 1.3.301 2h-3.3c0-.898-.2-1.602-.598-2-.403-.398-.903-.7-1.5-.7-.301 0-.602.098-.903.2-.199.102-.398.2-.597.398-.2.204-.301.403-.301.602-.102.2-.102.5-.102.8-.097.2 0 .5 0 .7z" fill="#fff"/></svg>