<svg xmlns="http://www.w3.org/2000/svg" viewBox="0 0 48 48"><path d="M29 43v-4.602l2.602.5c2.898.602 5.597-1.5 5.796-4.398L38 28l2.898-1.2c1-.402 1.403-1.6.801-2.6L38 18c-.602-7.602-4.898-15-16-15C10.602 3 5 11.398 5 20c0 3.7 1.3 6.898 3.3 9.602 1.802 2.5 2.7 5.5 2.7 8.5v4.796h18z" fill="#ffb74d"/><path d="M29 43v-4.602L22 37v6z" fill="#ff9800"/><path d="M35 21.5a1.5 1.5 0 1 1-3 0 1.5 1.5 0 0 1 3 0z" fill="#784719"/><path d="M21.398 3C12.301 3 5 10.3 5 19.398 5 30.5 11 30.801 11 38l2.602-.898c2.097-.704 3.898-2.301 4.699-4.403l2.8-6.8L27 23v-6s7-3.8 7-10.3C31 4.2 25.7 3 21.398 3z" fill="#ff5722"/><path d="M21 2.102c-.602 0-1 .398-1 1V17c0 .602.398 1 1 1s1-.398 1-1V3.102c0-.602-.398-1-1-1zm15.898 29.796C29 31.898 26.602 27 26.5 26.801c-.2-.5-.8-.7-1.3-.5-.5.199-.7.8-.5 1.3.1.297 3 6.297 12.198 6.297.602 0 1-.398 1-1 0-.597-.5-1-1-1z" fill="#546e7a"/><path d="M39 33a1.999 1.999 0 1 1-4 0 1.999 1.999 0 1 1 4 0zM28 23c0 3.867-3.133 7-7 7s-7-3.133-7-7 3.133-7 7-7 7 3.133 7 7z" fill="#37474f"/><path d="M25 23c0 2.21-1.79 4-4 4s-4-1.79-4-4 1.79-4 4-4 4 1.79 4 4z" fill="#546e7a"/></svg>