<svg xmlns="http://www.w3.org/2000/svg" viewBox="0 0 64 64"><path d="M35.121 49H18C8.61 49 1 41.39 1 32s7.61-17 17-17h17.059" fill="#7dd8ba"/><path d="M5.629 32a3.992 3.992 0 0 0-3.242 1.648 3.992 3.992 0 0 0-.567 3.59A17 17 0 0 0 18 49h17.121V32z" fill="#72caaf"/><path d="M63 32c0 10.492-8.508 19-19 19s-19-8.508-19-19 8.508-19 19-19 19 8.508 19 19z" fill="#c2cde7"/><path d="M58 32c0 7.73-6.27 14-14 14s-14-6.27-14-14 6.27-14 14-14 14 6.27 14 14z" fill="#d6dff2"/><path d="M44 12a19.859 19.859 0 0 0-8.738 2 .883.883 0 0 0-.203 0H18C8.059 14 0 22.059 0 32s8.059 18 18 18h17.121c.05.004.098.004.149 0a20.006 20.006 0 0 0 22.296-3.316 19.993 19.993 0 0 0 5.047-21.97A19.995 19.995 0 0 0 44 12zM18 48C9.164 48 2 40.836 2 32s7.164-16 16-16h14.05a19.92 19.92 0 0 0 0 32zm26 2c-9.941 0-18-8.059-18-18s8.059-18 18-18 18 8.059 18 18-8.059 18-18 18z" fill="#8d6c9f"/><path d="M55.8 22.738c-.347-.433-.98-.5-1.413-.152-.434.348-.504.98-.157 1.414a13 13 0 0 1-1 17.2 1 1 0 0 0 .004 1.413.996.996 0 0 0 1.414-.004c5.356-5.379 5.852-13.91 1.153-19.87zm-3.128-2.976c-.7-.496-1.442-.934-2.211-1.301a.993.993 0 0 0-1.043.031.995.995 0 0 0-.445.938.99.99 0 0 0 .629.832c.668.32 1.312.699 1.918 1.129a1 1 0 0 0 1.16-1.63zm-6.532-2.614a14.99 14.99 0 0 0-11.96 3.512A14.99 14.99 0 0 0 29 32a14.927 14.927 0 0 0 1.2 5.898 1 1 0 0 0 1.8-.789A12.998 12.998 0 0 1 44 19c.621 0 1.242.043 1.86.129a1.007 1.007 0 0 0 1.14-.86 1.012 1.012 0 0 0-.86-1.14zM44 43c-.55 0-1 .45-1 1v2c0 .55.45 1 1 1s1-.45 1-1v-2c0-.55-.45-1-1-1zm-4.121-.8a1.001 1.001 0 0 0-1.3.55l-.75 1.852a.996.996 0 0 0 .1 1.027.999.999 0 0 0 1.75-.277l.75-1.852a.998.998 0 0 0-.55-1.3zm9.543.55a1.004 1.004 0 0 0-1.281-.496c-.489.2-.739.746-.57 1.246l.75 1.852a.998.998 0 0 0 1.277.492 1 1 0 0 0 .574-1.242zm-14.481-2.809l-1.39 1.438a1.01 1.01 0 0 0 .027 1.422c.402.383 1.04.37 1.422-.031l1.39-1.442a1 1 0 1 0-1.44-1.387z" fill="#8d6c9f"/></svg>