<svg xmlns="http://www.w3.org/2000/svg" viewBox="0 0 40 40"><rect x="1.5" y="3.5" width="7" height="35" fill="#bae0bd"/><path d="M8 4v34H2V4h6m1-1H1v36h8V3z" fill="#5e9c76"/><rect x="11.5" y="17.5" width="7" height="21" fill="#bae0bd"/><path d="M18 18v20h-6V18h6m1-1h-8v22h8V17z" fill="#5e9c76"/><rect x="21.5" y="24.5" width="7" height="14" fill="#bae0bd"/><path d="M28 25v13h-6V25h6m1-1h-8v15h8V24z" fill="#5e9c76"/><rect x="31.5" y="30.5" width="7" height="8" fill="#bae0bd"/><path d="M38 31v7h-6v-7h6m1-1h-8v9h8v-9z" fill="#5e9c76"/><polygon points="35.464,15.05 23.686,3.272 22.272,4.686 34.05,16.464 30.515,20 39,20 39,11.515" fill="#4e7ab5"/></svg>