<svg xmlns="http://www.w3.org/2000/svg" viewBox="0 0 48 48"><path d="M10 12c-2.8 0-5-2.2-5-5s2.2-5 5-5 5 2.2 5 5-2.2 5-5 5z" fill="#ffb74d"/><path d="M2 22v8l3 2 1 14h8l1-14 3-2v-8c0-4.398-3.602-8-8-8s-8 3.602-8 8z" fill="#607d8b"/><path d="M22.398 40.398c-.597 2.5-1 3.602-2.398 3.602-.602 0-1.2-.5-1.898-1.102C17.102 42.102 15.898 41 14 41v2c1.102 0 1.898.7 2.8 1.398.9.704 1.9 1.602 3.2 1.602 3.102 0 3.8-2.898 4.398-5.2.602-2.6 1-3.8 2.602-3.8v-2c-3.3 0-4.102 3.102-4.602 5.398z" fill="#263238"/><path d="M14.398 40H10v4h4.102z" fill="#263238"/><path d="M46 36c0 5.523-4.477 10-10 10s-10-4.477-10-10 4.477-10 10-10 10 4.477 10 10z" fill="#4caf50"/><path d="M35 34c.102.2.102.3.3.398.098.102.302.204.5.403.2.097.5.199.802.3.5.2.898.399 1.296.598.403.2.704.403 1 .7.301.3.5.601.704.902.199.398.199.8.199 1.3 0 .399-.102.797-.2 1.2-.101.398-.3.699-.601.898-.3.301-.602.5-.898.602-.403.199-.801.3-1.204.3v1.5H35.7v-1.5c-.398 0-.8-.101-1.199-.3-.398-.2-.7-.403-1-.602-.3-.3-.5-.597-.7-1.097-.198-.403-.3-.903-.3-1.5h2.2c0 .398 0 .699.1.898.098.2.2.398.4.602.198.097.3.199.5.296.198.102.402.102.6.102.2 0 .4 0 .598-.102.204-.097.301-.199.403-.296.097-.102.199-.301.3-.403.098-.199.098-.3.098-.5 0-.199 0-.398-.097-.597-.102-.204-.102-.301-.301-.403-.102-.097-.301-.3-.5-.398-.2-.102-.403-.2-.7-.301-.5-.2-.902-.398-1.3-.602a3.505 3.505 0 0 1-1-.699c-.301-.3-.5-.597-.7-.898-.203-.403-.203-.801-.203-1.301 0-.398.102-.8.204-1.2.097-.3.296-.698.597-.902.301-.296.602-.5.903-.597.398-.2.796-.301 1.199-.301v-1.602H37V30.5c.398.102.8.2 1.2.398.402.204.6.403.902.704.199.296.398.597.597 1 .102.398.2.898.2 1.398h-2.2c0-.602-.097-1-.398-1.3-.2-.302-.602-.4-1-.4-.2 0-.403 0-.602.098-.199.102-.3.204-.398.301-.2 0-.301.102-.301.301 0 .2-.102.3-.102.5s0 .398.102.5z" fill="#fff"/></svg>