<svg xmlns="http://www.w3.org/2000/svg" viewBox="0 0 48 48"><path d="M42 36H28V16c0-1.102.898-2 2-2h8c.602 0 1.2.3 1.602.8l6 7.7c.296.398.398.8.398 1.2V32c0 2.2-1.8 4-4 4z" fill="#ffc107"/><path d="M6 36h22V12c0-2.2-1.8-4-4-4H7c-2.8 0-5 2.2-5 5v19c0 2.2 1.8 4 4 4z" fill="#9575cd"/><path d="M42 36a5 5 0 1 1-10 0 5 5 0 0 1 10 0zm-23 0a5 5 0 1 1-10 0 5 5 0 0 1 10 0z" fill="#37474f"/><path d="M39.5 36c0 1.379-1.121 2.5-2.5 2.5a2.502 2.502 0 0 1-2.5-2.5c0-1.379 1.121-2.5 2.5-2.5s2.5 1.121 2.5 2.5zm-23 0c0 1.379-1.121 2.5-2.5 2.5a2.502 2.502 0 0 1-2.5-2.5c0-1.379 1.121-2.5 2.5-2.5s2.5 1.121 2.5 2.5z" fill="#78909c"/><path d="M42 26h-3.602c-.296 0-.5-.102-.699-.3l-1.398-1.4c-.2-.198-.403-.3-.7-.3H32c-.602 0-1-.398-1-1v-6c0-.602.398-1 1-1h5.5c.3 0 .602.102.8.398l4.5 5.403c.098.199.2.398.2.597V25c0 .602-.398 1-1 1z" fill="#455a64"/><path d="M15 11c-5 0-9 4-9 9s4 9 9 9 9-4 9-9-4-9-9-9zm0 10c-.602 0-1-.398-1-1s.398-1 1-1 1 .398 1 1-.398 1-1 1z" fill="#fff"/><path d="M16.898 20.5c0-.2.102-.3.102-.5 0-.7-.398-1.398-1-1.7V13h-2v5.3c-.602.302-1 1-1 1.7 0 1.102.898 2 2 2 .2 0 .3 0 .5-.102l2.3 2.301 1.4-1.398zM15 21c-.602 0-1-.398-1-1s.398-1 1-1 1 .398 1 1-.398 1-1 1z" fill="#37474f"/></svg>