<svg xmlns="http://www.w3.org/2000/svg" viewBox="0 0 50 50"><path d="M25 2c-6.617 0-12 5.383-12 12s5.383 12 12 12 12-5.383 12-12S31.617 2 25 2zm0 2c5.535 0 10 4.465 10 10s-4.465 10-10 10-10-4.465-10-10S19.465 4 25 4zm-3.563 4l-.562 6.531h2.094c.39-.633 1.062-1 1.937-1 1.196 0 2.032.82 2.032 2.063 0 1.226-.82 2.031-2.032 2.031-1.07 0-1.898-.625-2.031-1.563h-2.188c.07 2.016 1.735 3.5 4.188 3.5 2.586 0 4.313-1.64 4.313-4.03 0-2.212-1.516-3.782-3.657-3.782-1.117 0-1.898.406-2.375 1.094H23l.25-2.875h5.25V8zM.813 19c-.55.05-.957.543-.906 1.094.051.55.543.957 1.094.906h2v26c0 .55.45 1 1 1h42c.55 0 1-.45 1-1V21h2c.36.004.695-.184.879-.496a1.01 1.01 0 0 0 0-1.008c-.184-.312-.52-.5-.879-.496h-3c-.55 0-1 .45-1 1v26H5V20c0-.55-.45-1-1-1H.812zM24 28v10.563l-3.281-3.282A1.007 1.007 0 0 0 19.78 35a.994.994 0 0 0-.781.703c-.105.367.004.758.281 1.016l5 5a.999.999 0 0 0 1.438 0l5-5a1.014 1.014 0 0 0 0-1.438 1.014 1.014 0 0 0-1.438 0L26 38.563V28z"/></svg>