<svg xmlns="http://www.w3.org/2000/svg" viewBox="0 0 40 40"><path d="M7.746 17.813l4.633 9.011 8.625-3.539 3.988-11.52-13.449.708z" fill="#b6dcfe"/><path d="M17.5 31c0 4.14-3.36 7.5-7.5 7.5-4.14 0-7.5-3.36-7.5-7.5 0-4.14 3.36-7.5 7.5-7.5 4.14 0 7.5 3.36 7.5 7.5z" fill="#b6dcfe"/><path d="M10 24c3.86 0 7 3.14 7 7s-3.14 7-7 7-7-3.14-7-7 3.14-7 7-7m0-1a8 8 0 1 0 0 16 8 8 0 0 0 0-16z" fill="#4788c7"/><path d="M9 27h2v8H9z" fill="#4788c7"/><path d="M12.402 31.559c-1.636 0-2.773-.7-3.382-2.082-1.157-2.637 1.144-4.688 1.644-4.985l9.649-5.707-.008-3.851-.657.218c-.007 0-.859.282-1.878.282-.786 0-1.457-.16-1.993-.48l-.527-.313-.2.582c-.874 2.574-3.66 3.668-3.687 3.68l-.508.19 1.551 3.208-2.117 1.219a5.292 5.292 0 0 0-.5-.024c-1.434 0-3.016.582-4.41 1.617l-1.79-2.863a6.29 6.29 0 0 1 .263-6.992l4.414-6.121a7.979 7.979 0 0 1 4.289-3.012l15.898-4.543 8.762 12.973c-1.211 1.355-1.813 3.027-2.39 4.644-.934 2.598-1.813 5.051-5.063 6.434-2.973 1.262-13.461 5.015-14.813 5.469-.62.207-1.566.457-2.547.457z" fill="#fff"/><path d="M28.242 2.16l8.348 12.356c-1.11 1.367-1.684 2.96-2.238 4.511-.891 2.493-1.735 4.844-4.786 6.141-3.015 1.281-13.382 4.988-14.777 5.457-.586.195-1.476.434-2.387.434-1.437 0-2.394-.582-2.925-1.786-.997-2.27 1.027-4.105 1.441-4.347.535-.317 1.484-.875 2.578-1.524l.07-.043c2.891-1.707 6.754-3.996 6.754-3.996l.492-.293v-.57l-.003-2.879-.008-1.379-1.309.434a6.1 6.1 0 0 1-1.722.258c-.696 0-1.278-.141-1.735-.41l-1.062-.63-.395 1.165c-.797 2.34-3.367 3.363-3.39 3.37l-1.024.387.477.985 1.113 2.297-1.578.91a4.125 4.125 0 0 0-.383-.016c-1.39 0-2.898.504-4.27 1.406L4.02 21.984a5.794 5.794 0 0 1 .238-6.437l4.414-6.121a7.506 7.506 0 0 1 4.02-2.824l15.55-4.442M28.664 1l-16.25 4.64a8.486 8.486 0 0 0-4.555 3.2l-4.414 6.12a6.806 6.806 0 0 0-.277 7.552l2.082 3.336c1.34-1.118 3.004-1.856 4.543-1.856.203 0 .406.016.605.04l2.594-1.493a.588.588 0 0 0 .067-.039l-1.516-3.137s3.016-1.144 3.98-3.98c.711.422 1.524.55 2.247.55 1.125 0 2.039-.308 2.039-.308l.003 2.879L13.06 22.5l-.07.04a576.77 576.77 0 0 1-2.579 1.523c-.824.488-3.086 2.796-1.848 5.613.813 1.847 2.348 2.383 3.84 2.383 1 0 1.977-.243 2.707-.485 1.508-.508 11.88-4.226 14.848-5.488 5.742-2.438 4.563-8.148 7.895-11.484z" fill="#4788c7"/><path d="M14.023 29.457l-1.652-3.809c-.258.114-.71.356-.71.356a2.077 2.077 0 0 0 1.652 3.809s.453-.247.71-.356z" fill="#b6dcfe"/><path d="M12.191 23l-.543-1.121L10 23c.633 0 1.242.082 1.836.219z" fill="#fff"/></svg>