<svg xmlns="http://www.w3.org/2000/svg" viewBox="0 0 50 50"><path d="M30.688.094a.982.982 0 0 0-.532.156c-.996.633-5.14 2.074-8.812 3.344-5.555 1.922-8.063 2.828-8.782 3.437C11.32 8.082 5.5 16.203 5.5 18.813c0 .824 1.879 6.535 4.031 10.968.938-3.105 3.715-5.492 6.281-7.093a9.29 9.29 0 0 0-.562-1.813c1.996-.879 3.414-2.645 4.156-3.75 1.504.8 3.442.89 5.032.781-1.348 1.633-2.833 3.64-3.375 4.375-.68.27-2.415 1.012-4.25 2.157-2.848 1.78-5.938 4.539-5.625 8.062.019.203.105.395.156.594.035.136.047.27.094.406.058.16.144.316.218.469.063.129.114.281.188.406.09.148.176.262.281.406.086.114.156.235.25.344.117.137.273.277.406.406a7.25 7.25 0 0 0 .75.625c.114.078.223.18.344.25.172.102.352.164.531.25.117.055.254.11.375.157.203.078.41.132.625.187.106.027.203.07.313.094.324.058.636.093.969.093 3.101 0 5.937-2.433 8-4.218.542-.473 1.027-.887 1.437-1.188.117-.09.242-.16.406-.25.078-.043.192-.082.282-.125.093-.047.175-.11.28-.156.137-.059.286-.125.438-.188.07-.027.145-.035.219-.062.27-.105.547-.23.844-.344 2.441-.93 5.785-2.199 8.75-5.375 2.062-2.21 3.152-5.418 4.218-8.531 1.145-3.344 2.243-6.527 4.313-7.938a.988.988 0 0 0 .313-1.28C43.5 2.378 33.883.093 30.688.093zm-2.5 32.875c-.391.16-.711.304-.844.406h-.032v.031c-.34.25-.777.598-1.312 1.063-2.172 1.879-5.469 4.718-9.313 4.718-3.378 0-6.476-2.46-7.28-5.562A10.877 10.877 0 0 0 8 39c0 6.066 4.934 11 11 11s11-4.934 11-11c0-2.195-.656-4.27-1.813-6.031z"/></svg>