<svg xmlns="http://www.w3.org/2000/svg" viewBox="0 0 24 24"><path d="M12 2C6.465 2 2 6.465 2 12s4.465 10 10 10 10-4.465 10-10S17.535 2 12 2zm0 2v4c-2.21 0-4 1.79-4 4s1.79 4 4 4c.73 0 1.41-.223 2-.563l2.906 2.907A7.972 7.972 0 0 1 12 20c-4.465 0-8-3.535-8-8s3.535-8 8-8zm6.188 2.906A7.96 7.96 0 0 1 19.938 11 1.004 1.004 0 0 0 19 12c0 .531.414.965.938 1a7.954 7.954 0 0 1-1.594 3.906L15.437 14c.188-.32.348-.66.438-1.031.043.008.078.031.125.031.55 0 1-.45 1-1s-.45-1-1-1c-.047 0-.082.023-.125.031a3.983 3.983 0 0 0-.781-1.562zM18 9c-.55 0-1 .45-1 1s.45 1 1 1 1-.45 1-1-.45-1-1-1zm-6 1c1.191 0 2 .809 2 2 0 1.191-.809 2-2 2-1.191 0-2-.809-2-2 0-1.191.809-2 2-2zm6 3c-.55 0-1 .45-1 1s.45 1 1 1 1-.45 1-1-.45-1-1-1z"/></svg>