<svg xmlns="http://www.w3.org/2000/svg" viewBox="0 0 50 50"><path d="M7 2v46h21.268l-.206.725c-.2.5.1 1.1.7 1.2.2.1.4.1.5 0l6-1.6c.2 0 .3-.1.5-.3l12.8-12.8.3-.2c1.6-1.6 1.6-4.2 0-5.8-.8-.9-1.9-1.2-2.9-1.2s-1.9.4-2.7 1.1l-.2.1-.062.062V14.6L30.4 2H7zm23 2.4L40.6 15H30V4.4zM36 23a2 2 0 1 1 0 4c-.101 0-.199-.014-.297-.03l-5.844 7.305c.088.225.141.469.141.725a2 2 0 1 1-4 0c0-.219.044-.424.11-.621l-5.706-6.418c-.13.026-.266.039-.404.039-.178 0-.347-.031-.512-.074l-3.562 3.562c.044.164.074.334.074.512a2 2 0 1 1-2-2c.178 0 .347.031.512.074l3.562-3.562A1.965 1.965 0 0 1 18 26a2 2 0 1 1 4 0c0 .219-.044.424-.11.621l5.706 6.418a1.823 1.823 0 0 1 .701-.009l5.844-7.305A2.006 2.006 0 0 1 34 25a2 2 0 0 1 2-2zm9.963 7.025c.5 0 1.1.2 1.5.6.8.8.8 2 .1 2.8l-2.9-2.9c.4-.3.8-.5 1.3-.5zm-2.8 1.9l3 3-10.901 10.9-3-2.9 10.9-11zm-11.901 12.9l2.1 2.1-2.9.8.8-2.9z"/></svg>