<svg xmlns="http://www.w3.org/2000/svg" viewBox="0 0 26 26"><path d="M8 0C3.602 0 0 3.602 0 8s3.602 8 8 8h.5l1.406-2.313C9.207 13.887 8.602 14 8 14c-3.3 0-6-2.7-6-6s2.7-6 6-6c3.102 0 5.7 2.398 6 5.5.398-.3 1-.5 1.5-.5h.406C15.406 3 12 0 8 0zm0 3c-.398 0-.5.207-.5.406l-.156 3.625A1.15 1.15 0 0 0 6.812 8c0 .035.028.059.032.094L5.406 9.813c-.101.101-.207.386.094.687.3.3.586.195.688.094l1.625-1.438c.062.012.12.031.187.031.664 0 1.188-.523 1.188-1.187 0-.355-.16-.656-.407-.875L8.5 3.406C8.5 3.207 8.3 3 8 3zm7.438 5.031c-.676 0-1.344.43-1.844 1.281L5.406 23c-1 1.7-.218 3 1.782 3h16.5c2.101 0 2.906-1.398 1.906-3L17.312 9.312c-.5-.851-1.199-1.28-1.875-1.28zm.062 4.563c.5 0 .793.199 1.094.5.3.3.406.695.406 1.094 0 .398-.613 3.304-.813 5.406h-1.5c-.199-2.102-.78-5.008-.78-5.407 0-.398.198-.792.5-1.093.3-.301.695-.5 1.093-.5zm0 7.906c.398 0 .793.105 1.094.406.3.301.5.696.5 1.094 0 .5-.2.793-.5 1.094-.301.3-.696.406-1.094.406-.398 0-.793-.105-1.094-.406-.3-.301-.5-.594-.5-1.094 0-.398.2-.793.5-1.094.301-.3.696-.406 1.094-.406z"/></svg>