<svg xmlns="http://www.w3.org/2000/svg" viewBox="0 0 26 26"><path d="M13 0c-1.7 0-3 1.3-3 3v6c0 1.7 1.3 3 3 3h6l4 4v-4c1.7 0 3-1.3 3-3V3c0-1.7-1.3-3-3-3zm4.188 3h1.718l1.688 6h-1.5l-.407-1.5h-1.5L16.813 9H15.5zM18 4c-.102.398-.21.887-.313 1.188l-.28 1.312h1.187l-.282-1.313C18.113 4.888 18 4.399 18 4zM3 10c-1.7 0-3 1.3-3 3v6c0 1.7 1.3 3 3 3v4l4-4h6c1.7 0 3-1.3 3-3v-6h-3c-1.898 0-3.406-1.3-3.906-3zm4.594 2.906c1.699 0 2.5 1.399 2.5 3 0 1.399-.48 2.29-1.281 2.688.398.199.874.304 1.374.406l-.374 1c-.7-.2-1.426-.512-2.126-.813-.101-.101-.273-.093-.375-.093C6.114 18.992 5 18 5 16c0-1.7.992-3.094 2.594-3.094zm0 1.094c-.801 0-1.188.898-1.188 2 0 1.2.387 2 1.188 2 .8 0 1.218-.898 1.218-2 0-1.102-.417-2-1.218-2z"/></svg>