<svg xmlns="http://www.w3.org/2000/svg" viewBox="0 0 40 40"><rect x="29.5" y="28.5" width="8" height="10" fill="#bae0bd"/><path d="M37 29v9h-7v-9h7m1-1h-9v11h9V28z" fill="#5e9c76"/><rect x="1.5" y="28.5" width="8" height="10" fill="#bae0bd"/><path d="M9 29v9H2v-9h7m1-1H1v11h9V28z" fill="#5e9c76"/><rect x="15.5" y="28.5" width="8" height="10" fill="#bae0bd"/><path d="M23 29v9h-7v-9h7m1-1h-9v11h9V28z" fill="#5e9c76"/><rect x="12.5" y="1.5" width="14" height="10" fill="#8bb7f0"/><path d="M26 2v9H13V2h13m1-1H12v11h15V1z" fill="#4e7ab5"/><polygon points="6,28 6,20 33,20 33,28 34,28 34,19 5,19 5,28" fill="#66798f"/><rect x="19" y="12" width="1" height="16" fill="#66798f"/></svg>