<svg xmlns="http://www.w3.org/2000/svg" viewBox="0 0 40 40"><path d="M13.5 15.5v-.797L16.164 6.5h7.672l2.664 8.203v.797z" fill="#b6dcfe"/><path d="M23.473 7L26 14.781V15H14v-.219L16.527 7h6.946m.726-1h-8.398L13 14.625V16h14v-1.375z" fill="#4788c7"/><path d="M16.527 7l-.648 2h8.242l-.648-2z" fill="#dff0fe"/><path d="M6.5 24.5v-.797L9.164 15.5h7.672l2.664 8.203v.797z" fill="#b6dcfe"/><path d="M16.473 16L19 23.781V24H7v-.219L9.527 16h6.946m.726-1H8.801L6 23.625V25h14v-1.375z" fill="#4788c7"/><path d="M9.527 16l-.648 2h8.242l-.648-2z" fill="#dff0fe"/><path d="M20.5 24.5v-.797l2.664-8.203h7.672l2.664 8.203v.797z" fill="#b6dcfe"/><path d="M30.473 16L33 23.781V24H21v-.219L23.527 16h6.946m.726-1h-8.398L20 23.625V25h14v-1.375z" fill="#4788c7"/><path d="M23.527 16l-.648 2h8.242l-.648-2z" fill="#dff0fe"/><path d="M13.5 33.5v-.797l2.664-8.203h7.672l2.664 8.203v.797z" fill="#b6dcfe"/><path d="M23.473 25L26 32.781V33H14v-.219L16.527 25h6.946m.726-1h-8.398L13 32.625V34h14v-1.375z" fill="#4788c7"/><path d="M16.527 25l-.648 2h8.242l-.648-2z" fill="#dff0fe"/><path d="M26.5 33.5v-.797l2.664-8.203h7.672l2.664 8.203v.797z" fill="#b6dcfe"/><path d="M36.473 25L39 32.781V33H27v-.219L29.527 25h6.946m.726-1h-8.398L26 32.625V34h14v-1.375z" fill="#4788c7"/><path d="M29.527 25l-.648 2h8.242l-.648-2z" fill="#dff0fe"/><path d="M.5 33.5v-.797L3.164 24.5h7.672l2.664 8.203v.797z" fill="#b6dcfe"/><path d="M10.473 25L13 32.781V33H1v-.219L3.527 25h6.946m.726-1H2.801L0 32.625V34h14v-1.375z" fill="#4788c7"/><path d="M3.527 25l-.648 2h8.242l-.648-2z" fill="#dff0fe"/></svg>