<svg xmlns="http://www.w3.org/2000/svg" viewBox="0 0 48 48"><path d="M8 28l2.5-8.3c.102-.4.5-.7.898-.7h9.204c.398 0 .796.3.898.7L24 28zm32 0l-2.5-8.3c-.2-.4-.5-.7-.898-.7h-9.204c-.398 0-.796.3-.898.7L24 28zm-8-9l-2.5-8.3c-.2-.4-.5-.7-.898-.7h-9.204c-.398 0-.796.3-.898.7L16 19zM16 37l-2.5-8.3c-.2-.4-.5-.7-.898-.7H3.398c-.398 0-.796.3-.898.7L0 37zm16 0l-2.5-8.3c-.2-.4-.5-.7-.898-.7h-9.204c-.398 0-.796.3-.898.7L16 37zm16 0l-2.5-8.3c-.2-.4-.5-.7-.898-.7h-9.204c-.398 0-.796.3-.898.7L32 37z" fill="#ffc107"/><path d="M37.3 19.398L24 28l2.5-8.3c.102-.4.5-.7.898-.7h9.204c.296 0 .5.102.699.398zM20.603 19h-9.204c-.398 0-.796.3-.898.7L8 28l13.3-8.602c-.198-.296-.402-.398-.698-.398zm8 9h-9.204c-.398 0-.796.3-.898.7L16 37l13.3-8.602c-.198-.296-.402-.398-.698-.398zm16 0h-9.204c-.398 0-.796.3-.898.7L32 37l13.3-8.602c-.198-.296-.402-.398-.698-.398zm-32 0H3.398c-.398 0-.796.3-.898.7L0 37l13.3-8.602c-.198-.296-.402-.398-.698-.398zm16-18h-9.204c-.398 0-.796.3-.898.7L16 19l13.3-8.602c-.198-.296-.402-.398-.698-.398z" fill="#ffd740"/></svg>