<svg xmlns="http://www.w3.org/2000/svg" viewBox="0 0 48 48"><path d="M44 22c0 11.047-8.953 20-20 20S4 33.047 4 22 12.953 2 24 2s20 8.953 20 20z" fill="#fff59d"/><path d="M37 22c0-7.7-6.602-13.8-14.5-12.898-6 .699-10.8 5.5-11.398 11.5-.5 4.597 1.398 8.699 4.597 11.296C17.102 33.102 18 34.801 18 36.7v.3h12v-.102c0-1.796.8-3.597 2.2-4.796 2.902-2.403 4.8-6 4.8-10.102z" fill="#fbc02d"/><path d="M30.602 20.2l-3-2c-.301-.2-.801-.2-1.102 0L24 19.8l-2.398-1.6c-.301-.2-.801-.2-1.102 0l-3 2c-.2.198-.398.402-.398.698 0 .301 0 .602.199.801l3.8 4.7V37h2V26c0-.2-.101-.398-.203-.602l-3.296-4.097 1.5-1 2.398 1.597c.3.204.8.204 1.102 0L27 20.301l1.5 1-3.3 4.097c-.098.204-.2.403-.2.602v11h2V26.398l3.8-4.699c.2-.199.302-.5.2-.8-.102-.297-.2-.598-.398-.7z" fill="#fff59d"/><path d="M27 44a3 3 0 1 1-6.002-.002A3 3 0 0 1 27 44z" fill="#5c6bc0"/><path d="M26 45h-4c-2.2 0-4-1.8-4-4v-5h12v5c0 2.2-1.8 4-4 4z" fill="#9fa8da"/><path d="M30 41l-11.602 1.602A3.985 3.985 0 0 0 20 44.398l9.398-1.296C29.801 42.5 30 41.8 30 41zm-12-2.3v2L30 39v-2z" fill="#5c6bc0"/></svg>