<svg xmlns="http://www.w3.org/2000/svg" viewBox="0 0 40 40"><path d="M14.5 29.832V28c0-1.914-1.168-3.762-2.52-5.898-1.632-2.579-3.48-5.5-3.48-9.102C8.5 6.66 13.66 1.5 20 1.5S31.5 6.66 31.5 13c0 3.602-1.848 6.523-3.48 9.102-1.352 2.136-2.52 3.984-2.52 5.898v1.832z" fill="#b6dcfe"/><path d="M20 2c6.066 0 11 4.934 11 11 0 3.457-1.809 6.316-3.402 8.836C26.262 23.946 25 25.94 25 28v1.332H15V28c0-2.059-1.262-4.055-2.598-6.164C10.81 19.316 9 16.457 9 13 9 6.934 13.934 2 20 2m0-1C13.371 1 8 6.371 8 13c0 6.668 6 10.957 6 15v2.332h12V28c0-4.043 6-8.332 6-15 0-6.629-5.371-12-12-12z" fill="#4788c7"/><path d="M22.715 11.336a1.877 1.877 0 0 1 1.328 3.207L22 16.586V29h-4V16.586l-2.043-2.043a1.877 1.877 0 0 1 1.328-3.207c.504 0 .977.195 1.328.55l.68.68.707.704.707-.707.68-.676a1.858 1.858 0 0 1 1.328-.551m0-1a2.86 2.86 0 0 0-2.035.844l-.68.675-.68-.675a2.866 2.866 0 0 0-2.035-.844c-.738 0-1.473.281-2.035.844a2.876 2.876 0 0 0 0 4.07L17 17v13h6V17l1.75-1.75a2.876 2.876 0 0 0 0-4.07 2.872 2.872 0 0 0-2.035-.844z" fill="#fff"/><path d="M24 35c0 2.21-1.79 4-4 4s-4-1.79-4-4 1.79-4 4-4 4 1.79 4 4z" fill="#4788c7"/><path d="M17 36.5a2.502 2.502 0 0 1-2.5-2.5v-5.5h11V34c0 1.379-1.121 2.5-2.5 2.5z" fill="#dff0fe"/><path d="M25 29v5c0 1.102-.898 2-2 2h-6c-1.102 0-2-.898-2-2v-5h10m1-1H14v6a3 3 0 0 0 3 3h6a3 3 0 0 0 3-3z" fill="#4788c7"/><path d="M25.5 31h-6a.504.504 0 0 1-.5-.5c0-.273.227-.5.5-.5h6c.273 0 .5.227.5.5s-.227.5-.5.5zm0 2h-6a.504.504 0 0 1-.5-.5c0-.273.227-.5.5-.5h6c.273 0 .5.227.5.5s-.227.5-.5.5zm0 2h-6a.504.504 0 0 1-.5-.5c0-.273.227-.5.5-.5h6c.273 0 .5.227.5.5s-.227.5-.5.5zm-9-2h-2a.504.504 0 0 1-.5-.5c0-.273.227-.5.5-.5h2c.273 0 .5.227.5.5s-.227.5-.5.5zm0 2H15c-.55 0-1-.45-1-1h2.5c.273 0 .5.227.5.5s-.227.5-.5.5zm0-4h-2a.504.504 0 0 1-.5-.5c0-.273.227-.5.5-.5h2c.273 0 .5.227.5.5s-.227.5-.5.5z" fill="#4788c7"/></svg>