<svg xmlns="http://www.w3.org/2000/svg" viewBox="0 0 64 64"><linearGradient id="a" gradientUnits="userSpaceOnUse" x1="32" y1="25.667" x2="32" y2="53.365" spreadMethod="reflect"><stop offset="0" stop-color="#1a6dff"/><stop offset="1" stop-color="#c822ff"/></linearGradient><polygon points="55,51 55,30 53,30 53,51 49,51 49,26 47,26 47,51 43,51 43,33 41,33 41,51 35,51 35,37 33,37 33,51 29,51 29,42 27,42 27,51 23,51 23,30 21,30 21,51 17,51 17,46 15,46 15,51 11,51 11,42 9,42 9,51 6,51 6,53 58,53 58,51" fill="url(#a)"/><linearGradient id="b" gradientUnits="userSpaceOnUse" x1="31.146" y1="10.5" x2="31.146" y2="29.883" spreadMethod="reflect"><stop offset="0" stop-color="#6dc7ff"/><stop offset="1" stop-color="#e6abff"/></linearGradient><path d="M50.812 11.065l-5.178 1.436a.864.864 0 0 0-.38 1.445l1.693 1.693-10.826 10.826a3.002 3.002 0 0 1-4.242 0l-6.344-6.344a5.005 5.005 0 0 0-7.07 0l-9.172 9.172 1.414 1.414 9.172-9.172a3.002 3.002 0 0 1 4.242 0l6.344 6.344a5.005 5.005 0 0 0 7.07 0l10.826-10.826 1.693 1.693a.864.864 0 0 0 1.445-.381l1.436-5.178c.359-1.292-.83-2.481-2.123-2.122z" fill="url(#b)"/></svg>