<svg xmlns="http://www.w3.org/2000/svg" viewBox="0 0 26 26"><path d="M13.002 2a.43.43 0 0 0-.26.088c-.069.054-1.655 1.412-2.683 2.941a.305.305 0 0 0-.057.174.392.392 0 0 0 .027.201c.065.126.207.23.348.23h1.355c.141.84.238 2.883.336 3.02.143.202.566.346.952.346s.836-.144.98-.346c.097-.137.131-2.18.271-3.02h1.327c.14 0 .277-.104.345-.23.07-.126.08-.256 0-.375-1.028-1.529-2.642-2.89-2.71-2.943A.349.349 0 0 0 13.001 2zM2 11v13h22V11H2zm4 2h14l.25.25c-.016.082-.063.16-.063.25a1.32 1.32 0 0 0 1.313 1.313c.09 0 .168-.047.25-.063L22 15v5l-.25.25c-.082-.016-.16-.063-.25-.063-.719 0-1.313.596-1.313 1.315 0 .09.047.168.063.25L20 22H6l-.25-.25c.016-.082.063-.16.063-.25A1.32 1.32 0 0 0 4.5 20.187c-.09 0-.168.047-.25.063L4 20v-5l.25-.25c.082.016.16.063.25.063A1.32 1.32 0 0 0 5.813 13.5c0-.09-.047-.168-.063-.25L6 13zm7 1.094A3.938 3.406 0 0 0 9.062 17.5 3.938 3.406 0 0 0 13 20.906a3.938 3.406 0 0 0 3.938-3.406A3.938 3.406 0 0 0 13 14.094zm-6.5 2.094c-.715 0-1.313.599-1.313 1.314 0 .715.598 1.312 1.313 1.312s1.313-.597 1.313-1.312c0-.715-.598-1.314-1.313-1.314zm13 0a1.313 1.313 0 0 0-1.313 1.312 1.313 1.313 0 0 0 1.313 1.313 1.313 1.313 0 0 0 1.313-1.313 1.313 1.313 0 0 0-1.313-1.313z"/></svg>