<svg xmlns="http://www.w3.org/2000/svg" viewBox="0 0 80 80"><path d="M14.707 10.293l-1.414 1.414 7.242 7.242A4.996 4.996 0 0 1 22 22.484v16.102l-5.293-5.293-1.414 1.414L23 42.414l7.707-7.707-1.414-1.414L24 38.586V22.484a7.014 7.014 0 0 0-2.047-4.949zm50.586 0l-7.246 7.242A7.014 7.014 0 0 0 56 22.485v16.1l-5.293-5.292-1.414 1.414L57 42.414l7.707-7.707-1.414-1.414L58 38.586V22.484c0-1.328.527-2.597 1.465-3.535l7.242-7.242zM39 11v41.586l-5.293-5.293-1.414 1.414L40 56.414l7.707-7.707-1.414-1.414L41 52.586V11zM10 49v16c0 2.75 2.25 5 5 5h50c2.75 0 5-2.25 5-5V49h-2v16c0 1.668-1.332 3-3 3H15c-1.668 0-3-1.332-3-3V49zm8 0c-.55 0-1 .45-1 1s.45 1 1 1 1-.45 1-1-.45-1-1-1zm44 0c-.55 0-1 .45-1 1s.45 1 1 1 1-.45 1-1-.45-1-1-1zm-44 4c-.55 0-1 .45-1 1s.45 1 1 1 1-.45 1-1-.45-1-1-1zm44 0c-.55 0-1 .45-1 1s.45 1 1 1 1-.45 1-1-.45-1-1-1zm-44 4c-.55 0-1 .45-1 1s.45 1 1 1 1-.45 1-1-.45-1-1-1zm44 0c-.55 0-1 .45-1 1s.45 1 1 1 1-.45 1-1-.45-1-1-1zm-44 4c-.55 0-1 .45-1 1s.45 1 1 1 1-.45 1-1-.45-1-1-1zm4 0c-.55 0-1 .45-1 1s.45 1 1 1 1-.45 1-1-.45-1-1-1zm4 0c-.55 0-1 .45-1 1s.45 1 1 1 1-.45 1-1-.45-1-1-1zm4 0c-.55 0-1 .45-1 1s.45 1 1 1 1-.45 1-1-.45-1-1-1zm4 0c-.55 0-1 .45-1 1s.45 1 1 1 1-.45 1-1-.45-1-1-1zm4 0c-.55 0-1 .45-1 1s.45 1 1 1 1-.45 1-1-.45-1-1-1zm4 0c-.55 0-1 .45-1 1s.45 1 1 1 1-.45 1-1-.45-1-1-1zm4 0c-.55 0-1 .45-1 1s.45 1 1 1 1-.45 1-1-.45-1-1-1zm4 0c-.55 0-1 .45-1 1s.45 1 1 1 1-.45 1-1-.45-1-1-1zm4 0c-.55 0-1 .45-1 1s.45 1 1 1 1-.45 1-1-.45-1-1-1zm4 0c-.55 0-1 .45-1 1s.45 1 1 1 1-.45 1-1-.45-1-1-1zm4 0c-.55 0-1 .45-1 1s.45 1 1 1 1-.45 1-1-.45-1-1-1z"/></svg>