<svg xmlns="http://www.w3.org/2000/svg" viewBox="0 0 50 50"><path d="M35 6c-1.645 0-3 1.355-3 3v3.5L18 23v-2c0-1.645-1.355-3-3-3H3c-1.645 0-3 1.355-3 3v8c0 1.645 1.355 3 3 3h12c1.645 0 3-1.355 3-3v-2l14 10.5V41c0 1.645 1.355 3 3 3h12c1.645 0 3-1.355 3-3v-8c0-1.645-1.355-3-3-3H35c-1.645 0-3 1.355-3 3v2L18.687 25 32 15v2c0 1.645 1.355 3 3 3h12c1.645 0 3-1.355 3-3V9c0-1.645-1.355-3-3-3zm0 2h12c.555 0 1 .445 1 1v8c0 .555-.445 1-1 1H35c-.555 0-1-.445-1-1V9c0-.555.445-1 1-1zM3 20h12c.555 0 1 .445 1 1v8c0 .555-.445 1-1 1H3c-.555 0-1-.445-1-1v-8c0-.555.445-1 1-1zm32 12h12c.555 0 1 .445 1 1v8c0 .555-.445 1-1 1H35c-.555 0-1-.445-1-1v-8c0-.555.445-1 1-1z"/></svg>