<svg xmlns="http://www.w3.org/2000/svg" viewBox="0 0 64 64"><linearGradient id="a" gradientUnits="userSpaceOnUse" x1="32" y1="20" x2="32" y2="35.774" spreadMethod="reflect"><stop offset="0" stop-color="#6dc7ff"/><stop offset="1" stop-color="#e6abff"/></linearGradient><polygon points="39,27 33,27 33,21 31,21 31,27 25,27 25,29 31,29 31,35 33,35 33,29 39,29" fill="url(#a)"/><linearGradient id="b" gradientUnits="userSpaceOnUse" x1="32" y1="6.667" x2="32" y2="58.693" spreadMethod="reflect"><stop offset="0" stop-color="#1a6dff"/><stop offset="1" stop-color="#c822ff"/></linearGradient><path d="M55.772 26.215L53 23.027v-8.025A3.006 3.006 0 0 0 49.999 12h-9.886l-4.776-3.85c-1.901-1.535-4.77-1.538-6.673-.001L23.887 12h-9.886A3.006 3.006 0 0 0 11 15.002v8.881l-2.384 2.193A5.015 5.015 0 0 0 7 29.758V52c0 2.757 2.245 5 5.001 5h39.997A5.008 5.008 0 0 0 57 52V29.498a5.01 5.01 0 0 0-1.228-3.283zm-1.51 1.313l.018.024-1.28.817v-2.293l1.262 1.452zM29.919 9.707c1.166-.941 2.996-.942 4.162-.001L36.927 12h-9.854l2.846-2.293zM14.001 14h35.997c.552 0 1.002.451 1.002 1.002v14.643L33.557 40.781a3.015 3.015 0 0 1-3.236-.002L13 29.688V15.002c0-.551.45-1.002 1.001-1.002zM11 26.601v1.806l-1.142-.732c.04-.041.07-.088.112-.127l1.03-.947zM55 52c0 1.654-1.347 3-3.001 3H12.001A3.005 3.005 0 0 1 9 52V29.758c0-.082.019-.161.026-.242l20.217 12.947a5.014 5.014 0 0 0 5.389.003l20.364-13c0 .011.004.021.004.032V52z" fill="url(#b)"/><linearGradient id="c" gradientUnits="userSpaceOnUse" x1="16" y1="6.667" x2="16" y2="58.693" spreadMethod="reflect"><stop offset="0" stop-color="#1a6dff"/><stop offset="1" stop-color="#c822ff"/></linearGradient><rect x="11" y="51" width="10" height="2" fill="url(#c)"/><linearGradient id="d" gradientUnits="userSpaceOnUse" x1="15" y1="6.667" x2="15" y2="58.693" spreadMethod="reflect"><stop offset="0" stop-color="#1a6dff"/><stop offset="1" stop-color="#c822ff"/></linearGradient><rect x="11" y="47" width="8" height="2" fill="url(#d)"/><linearGradient id="e" gradientUnits="userSpaceOnUse" x1="44" y1="6.667" x2="44" y2="58.693" spreadMethod="reflect"><stop offset="0" stop-color="#1a6dff"/><stop offset="1" stop-color="#c822ff"/></linearGradient><rect x="43" y="49" width="2" height="4" fill="url(#e)"/><linearGradient id="f" gradientUnits="userSpaceOnUse" x1="48" y1="6.667" x2="48" y2="58.693" spreadMethod="reflect"><stop offset="0" stop-color="#1a6dff"/><stop offset="1" stop-color="#c822ff"/></linearGradient><rect x="47" y="49" width="2" height="4" fill="url(#f)"/><linearGradient id="g" gradientUnits="userSpaceOnUse" x1="52" y1="6.667" x2="52" y2="58.693" spreadMethod="reflect"><stop offset="0" stop-color="#1a6dff"/><stop offset="1" stop-color="#c822ff"/></linearGradient><rect x="51" y="49" width="2" height="4" fill="url(#g)"/><linearGradient id="h" gradientUnits="userSpaceOnUse" x1="40" y1="6.667" x2="40" y2="58.693" spreadMethod="reflect"><stop offset="0" stop-color="#1a6dff"/><stop offset="1" stop-color="#c822ff"/></linearGradient><rect x="39" y="49" width="2" height="4" fill="url(#h)"/></svg>