<svg xmlns="http://www.w3.org/2000/svg" viewBox="0 0 50 50"><path d="M46.5 2.5a3.5 3.5 0 0 0-3.406 4.313l-7.313 6.78A3.685 3.685 0 0 0 35 13.5c-.508 0-1 .117-1.438.313L28.47 10.75A3.48 3.48 0 0 0 25 7.5a3.5 3.5 0 0 0-3.5 3.5c0 .074.027.145.031.219l-5.562 4.437A3.59 3.59 0 0 0 15 15.5a3.485 3.485 0 0 0-3.438 2.875l-6 2.781A3.506 3.506 0 0 0 3.5 20.5a3.5 3.5 0 1 0 0 7 3.47 3.47 0 0 0 3.344-2.531l6.406-2.938A3.5 3.5 0 0 0 18.5 19c0-.074-.027-.145-.031-.219l5.562-4.437c.305.086.633.156.969.156.5 0 .977-.125 1.406-.313l5.125 3.063A3.48 3.48 0 0 0 35 20.5a3.5 3.5 0 0 0 3.469-3.969l7.656-7.062c.121.011.25.031.375.031a3.5 3.5 0 1 0 0-7zm0 26A3.5 3.5 0 0 0 43 32c0 .285.027.578.094.844l-7.313 6.75A3.685 3.685 0 0 0 35 39.5c-.21 0-.426.027-.625.063l-5.938-5.938c.036-.2.063-.414.063-.625a3.5 3.5 0 1 0-7 0c0 .074.027.145.031.219L16 37.656a3.544 3.544 0 0 0-1-.156c-1 0-1.895.422-2.531 1.094l-5.719-.907A3.49 3.49 0 0 0 3.5 35.5a3.5 3.5 0 1 0 0 7c.895 0 1.695-.355 2.313-.906l6.062.937A3.461 3.461 0 0 0 15 44.5a3.5 3.5 0 0 0 3.5-3.5c0-.074-.027-.145-.031-.219l5.562-4.437c.305.086.633.156.969.156.21 0 .426-.027.625-.063l5.938 5.938A3.57 3.57 0 0 0 31.5 43a3.5 3.5 0 1 0 6.969-.469l7.687-7.062c.114.011.227.031.344.031a3.5 3.5 0 1 0 0-7z"/></svg>