<svg xmlns="http://www.w3.org/2000/svg" viewBox="0 0 50 50"><path d="M6 0C2.691 0 0 2.691 0 6s2.691 6 6 6a5.925 5.925 0 0 0 3.469-1.125l7.781 7.813a9.922 9.922 0 0 0-.656 11.687l-6.563 5.188A5.979 5.979 0 0 0 6 34c-3.309 0-6 2.691-6 6s2.691 6 6 6 6-2.691 6-6a5.921 5.921 0 0 0-.719-2.844l6.563-5.218C19.664 33.813 22.187 35 25 35c1.32 0 2.566-.254 3.719-.719l2.625 4.969A5.992 5.992 0 0 0 29 44c0 3.309 2.691 6 6 6s6-2.691 6-6-2.691-6-6-6c-.656 0-1.285.117-1.875.313l-2.625-4.97a10.044 10.044 0 0 0 4.031-5.312L38 28.75c-.004.082 0 .168 0 .25 0 3.309 2.691 6 6 6s6-2.691 6-6-2.691-6-6-6a6.009 6.009 0 0 0-5.594 3.813l-3.468-.75c.035-.348.062-.708.062-1.063 0-3.95-2.324-7.344-5.656-8.969l1.531-4.125c.36.067.746.094 1.125.094 3.309 0 6-2.691 6-6s-2.691-6-6-6-6 2.691-6 6c0 2.219 1.234 4.148 3.031 5.188l-1.562 4.124A9.897 9.897 0 0 0 25 15c-2.395 0-4.59.84-6.313 2.25l-7.812-7.781A5.925 5.925 0 0 0 12 6c0-3.309-2.691-6-6-6z"/></svg>