<svg xmlns="http://www.w3.org/2000/svg" viewBox="0 0 40 40"><line x1="35" y1="16" x2="20" y2="20" fill="none" stroke="#66798f" stroke-miterlimit="10"/><polyline points="30,35 20,20 23,5" fill="none" stroke="#66798f" stroke-miterlimit="10"/><polyline points="5,16 20,20 12,35" fill="none" stroke="#66798f" stroke-miterlimit="10"/><circle cx="20" cy="20" r="4.5" fill="#8bb7f0"/><path d="M20 16c2.206 0 4 1.794 4 4s-1.794 4-4 4-4-1.794-4-4 1.794-4 4-4m0-1a5 5 0 1 0 .001 10.001A5 5 0 0 0 20 15z" fill="#4e7ab5"/><circle cx="23" cy="5" r="3.5" fill="#bae0bd"/><path d="M23 2c1.654 0 3 1.346 3 3s-1.346 3-3 3-3-1.346-3-3 1.346-3 3-3m0-1a4 4 0 1 0 0 8 4 4 0 0 0 0-8z" fill="#5e9c76"/><circle cx="35" cy="16" r="3.5" fill="#bae0bd"/><path d="M35 13c1.654 0 3 1.346 3 3s-1.346 3-3 3-3-1.346-3-3 1.346-3 3-3m0-1a4 4 0 1 0 0 8 4 4 0 0 0 0-8z" fill="#5e9c76"/><circle cx="30" cy="35" r="3.5" fill="#bae0bd"/><path d="M30 32c1.654 0 3 1.346 3 3s-1.346 3-3 3-3-1.346-3-3 1.346-3 3-3m0-1a4 4 0 1 0 0 8 4 4 0 0 0 0-8z" fill="#5e9c76"/><circle cx="12" cy="35" r="3.5" fill="#bae0bd"/><path d="M12 32c1.654 0 3 1.346 3 3s-1.346 3-3 3-3-1.346-3-3 1.346-3 3-3m0-1a4 4 0 1 0 0 8 4 4 0 0 0 0-8z" fill="#5e9c76"/><circle cx="5" cy="16" r="3.5" fill="#bae0bd"/><path d="M5 13c1.654 0 3 1.346 3 3s-1.346 3-3 3-3-1.346-3-3 1.346-3 3-3m0-1a4 4 0 1 0 0 8 4 4 0 0 0 0-8z" fill="#5e9c76"/></svg>