<svg xmlns="http://www.w3.org/2000/svg" viewBox="0 0 32 32"><path d="M11 6c-1.766 0-3.445.336-5 .938v2.187A11.854 11.854 0 0 1 11 8c1.594 0 3.156.328 4.625.938l.375.156.375-.156A12.05 12.05 0 0 1 21 8c1.785 0 3.477.418 5 1.125V6.937A13.805 13.805 0 0 0 21 6c-1.723 0-3.402.324-5 .938A13.901 13.901 0 0 0 11 6zm0 4a9.966 9.966 0 0 0-7 2.875v3.25A7.987 7.987 0 0 1 11 12c1.59 0 3.121.46 4.438 1.344l.562.375.563-.375A7.927 7.927 0 0 1 21 12a7.987 7.987 0 0 1 7 4.125v-3.25a9.966 9.966 0 0 0-12-1.531A9.961 9.961 0 0 0 11 10zm0 4c-3.3 0-6 2.7-6 6s2.7 6 6 6c2.09 0 3.926-1.09 5-2.719C17.074 24.911 18.91 26 21 26c3.3 0 6-2.7 6-6s-2.7-6-6-6c-2.09 0-3.926 1.09-5 2.719C14.926 15.089 13.09 14 11 14zm0 2c2.223 0 4 1.777 4 4s-1.777 4-4 4-4-1.777-4-4 1.777-4 4-4zm10 0c2.223 0 4 1.777 4 4s-1.777 4-4 4-4-1.777-4-4 1.777-4 4-4z"/></svg>