<svg xmlns="http://www.w3.org/2000/svg" viewBox="0 0 50 50"><path d="M12 0v8.938L1.625 18.062C.742 18.849.227 19.84.062 21L10 28.813l2 1.593 2 1.563V10.406c0-1.71 1.074-2.316 2.719-3.031.648-.281 1.265-.547 1.687-.969.489-.488.79-1.238 1.094-2.031C20.05 2.941 20.473 2 21.313 2h7.375c.84 0 1.265.941 1.812 2.375.305.793.605 1.543 1.094 2.031.422.422 1.039.688 1.687.969C34.926 8.09 36 8.695 36 10.406V32l2-1.563 2-1.593 9.938-7.782c-.176-1.12-.735-2.18-1.563-2.906L38 8.47V0zm13 5a3 3 0 1 0 .002 6.002A3 3 0 0 0 25 5zm0 10c-4.96 0-9 3.629-9 8.094v.125c0 3.086 1.926 5.789 4.75 7.156C22.645 29.121 24.465 29 25 29c.906 0 2.625.207 4.281 1.375C32.098 29.004 34 26.328 34 23.25v-.156C34 18.629 29.965 15 25 15zM0 23.469V46.53c3.793-2.953 10.078-7.87 14.688-11.468zm50 .093l-14.688 11.5C39.996 38.72 46.388 43.715 50 46.532zM25 31c-.293 0-1.84.07-3.406 1.219C20.39 33.184 5.57 44.69 0 49.03c.023.532.465.969 1 .969h48c.531 0 .969-.414 1-.938-5.027-3.917-20.355-15.859-21.625-16.874A5.425 5.425 0 0 0 25 31z"/></svg>