<svg xmlns="http://www.w3.org/2000/svg" viewBox="0 0 64 64"><linearGradient id="a" gradientUnits="userSpaceOnUse" x1="37" y1="25.75" x2="37" y2="30.37" spreadMethod="reflect"><stop offset="0" stop-color="#6dc7ff"/><stop offset="1" stop-color="#e6abff"/></linearGradient><circle cx="37" cy="28" r="2" fill="url(#a)"/><linearGradient id="b" gradientUnits="userSpaceOnUse" x1="27" y1="25.75" x2="27" y2="30.37" spreadMethod="reflect"><stop offset="0" stop-color="#6dc7ff"/><stop offset="1" stop-color="#e6abff"/></linearGradient><circle cx="27" cy="28" r="2" fill="url(#b)"/><linearGradient id="c" gradientUnits="userSpaceOnUse" x1="32" y1="31.083" x2="32" y2="35.251" spreadMethod="reflect"><stop offset="0" stop-color="#6dc7ff"/><stop offset="1" stop-color="#e6abff"/></linearGradient><path d="M34 31h-4a1 1 0 0 0-1 1 3 3 0 1 0 6 0 1 1 0 0 0-1-1z" fill="url(#c)"/><linearGradient id="d" gradientUnits="userSpaceOnUse" x1="32" y1="5" x2="32" y2="59.002" spreadMethod="reflect"><stop offset="0" stop-color="#1a6dff"/><stop offset="1" stop-color="#c822ff"/></linearGradient><path d="M48 12h-3v-1c0-1.103-.897-2-2-2h-6.424C35.802 7.237 34.045 6 32 6s-3.802 1.237-4.576 3H20c-1.103 0-2 .897-2 2v1h-2c-2.206 0-4 1.794-4 4v38c0 2.206 1.794 4 4 4h32c2.206 0 4-1.794 4-4V16c0-2.206-1.794-4-4-4zm-11-1h6v1h-6v-1zm-8 0c0-1.654 1.346-3 3-3s3 1.346 3 3l.002 7H29v-7zm0 9h6c1.103 0 2-.897 2-2h9v22H18V18h9c0 1.103.897 2 2 2zm17 22v10H18V42h28zM20 11h7v1h-7v-1zm30 43c0 1.103-.897 2-2 2H16c-1.103 0-2-.897-2-2V16c0-1.103.897-2 2-2h11v2h-9c-1.103 0-2 .897-2 2v34c0 1.103.897 2 2 2h28c1.103 0 2-.897 2-2V18c0-1.103-.897-2-2-2h-9v-2h11c1.103 0 2 .897 2 2v38z" fill="url(#d)"/><linearGradient id="e" gradientUnits="userSpaceOnUse" x1="24" y1="5" x2="24" y2="59.002" spreadMethod="reflect"><stop offset="0" stop-color="#1a6dff"/><stop offset="1" stop-color="#c822ff"/></linearGradient><rect x="20" y="44" width="8" height="2" fill="url(#e)"/><linearGradient id="f" gradientUnits="userSpaceOnUse" x1="24" y1="5" x2="24" y2="59.002" spreadMethod="reflect"><stop offset="0" stop-color="#1a6dff"/><stop offset="1" stop-color="#c822ff"/></linearGradient><rect x="20" y="48" width="8" height="2" fill="url(#f)"/><linearGradient id="g" gradientUnits="userSpaceOnUse" x1="39" y1="5" x2="39" y2="59.002" spreadMethod="reflect"><stop offset="0" stop-color="#1a6dff"/><stop offset="1" stop-color="#c822ff"/></linearGradient><rect x="38" y="46" width="2" height="4" fill="url(#g)"/><linearGradient id="h" gradientUnits="userSpaceOnUse" x1="43" y1="5" x2="43" y2="59.002" spreadMethod="reflect"><stop offset="0" stop-color="#1a6dff"/><stop offset="1" stop-color="#c822ff"/></linearGradient><rect x="42" y="46" width="2" height="4" fill="url(#h)"/><linearGradient id="i" gradientUnits="userSpaceOnUse" x1="35" y1="5" x2="35" y2="59.002" spreadMethod="reflect"><stop offset="0" stop-color="#1a6dff"/><stop offset="1" stop-color="#c822ff"/></linearGradient><rect x="34" y="46" width="2" height="4" fill="url(#i)"/><linearGradient id="j" gradientUnits="userSpaceOnUse" x1="40" y1="10.25" x2="40" y2="13.335" spreadMethod="reflect"><stop offset="0" stop-color="#6dc7ff"/><stop offset="1" stop-color="#e6abff"/></linearGradient><rect x="37" y="11" width="6" height="1" fill="url(#j)"/><linearGradient id="k" gradientUnits="userSpaceOnUse" x1="23.5" y1="10.25" x2="23.5" y2="13.335" spreadMethod="reflect"><stop offset="0" stop-color="#6dc7ff"/><stop offset="1" stop-color="#e6abff"/></linearGradient><rect x="20" y="11" width="7" height="1" fill="url(#k)"/></svg>