<svg xmlns="http://www.w3.org/2000/svg" viewBox="0 0 48 48"><path d="M36 6H26c0 1.102-.898 2-2 2-1.102 0-2-.898-2-2H12c-2.2 0-4 1.8-4 4v32c0 2.2 1.8 4 4 4h24c2.2 0 4-1.8 4-4V10c0-2.2-1.8-4-4-4" fill="#455a64"/><path d="M36 43H12c-.602 0-1-.398-1-1V10c0-.602.398-1 1-1h24c.602 0 1 .398 1 1v32c0 .602-.398 1-1 1" fill="#fff"/><path d="M24 2c-2.2 0-4 1.8-4 4v4c0 1.102.898 2 2 2h4c1.102 0 2-.898 2-2V6c0-2.2-1.8-4-4-4zm0 2c1.102 0 2 .898 2 2 0 1.102-.898 2-2 2-1.102 0-2-.898-2-2 0-1.102.898-2 2-2z" fill="#90a4ae"/><path d="M16 37h16v2H16z" fill="#03a9f4"/><path d="M24 32c-2.398 0-2.5-3.5-2.5-3.5v-3h5v3S26.398 32 24 32" fill="#ff9800"/><path d="M29.5 22.5c0 .602-.398 1-1 1s-1-.398-1-1 .398-1 1-1 1 .398 1 1m-9 0c0-.602-.398-1-1-1s-1 .398-1 1 .398 1 1 1 1-.398 1-1" fill="#ffa726"/><path d="M28.5 19.5c0-3.8-9-2.5-9 0V23c0 2.5 2 4.5 4.5 4.5s4.5-2 4.5-4.5z" fill="#ffb74d"/><path d="M24 15c-3 0-5 2.5-5 5.5v1.102l1 .898V20l6-2 2 2v2.5l1-.898V20.5c0-2-.5-4-3-4.5l-.5-1z" fill="#424242"/><path d="M25.5 22.5c0-.3.2-.5.5-.5s.5.2.5.5-.2.5-.5.5-.5-.2-.5-.5m-4 0c0 .3.2.5.5.5s.5-.2.5-.5-.2-.5-.5-.5-.5.2-.5.5" fill="#784719"/><path d="M26.5 28.5s-.898 1-2.5 1c-1.602 0-2.5-1-2.5-1S16 29.5 16 35h16c0-5.5-5.5-6.5-5.5-6.5" fill="#2196f3"/></svg>