<svg xmlns="http://www.w3.org/2000/svg" viewBox="0 0 40 40"><path d="M33 7H2c-.55 0-1 .45-1 1s.45 1 1 1h31v5l6-6-6-6z" fill="#4788c7"/><path d="M1.5 19.5h7v19h-7z" fill="#dff0fe"/><path d="M8 20v18H2V20h6m1-1H1v20h8z" fill="#4788c7"/><path d="M11.5 19.5h7v19h-7z" fill="#dff0fe"/><path d="M18 20v18h-6V20h6m1-1h-8v20h8z" fill="#4788c7"/><path d="M21.5 19.5h7v19h-7z" fill="#dff0fe"/><path d="M28 20v18h-6V20h6m1-1h-8v20h8z" fill="#4788c7"/><path d="M31.5 19.5h7v19h-7z" fill="#dff0fe"/><path d="M38 20v18h-6V20h6m1-1h-8v20h8z" fill="#4788c7"/></svg>