<svg xmlns="http://www.w3.org/2000/svg" viewBox="0 0 64 64"><linearGradient id="a" gradientUnits="userSpaceOnUse" x1="37.5" y1="17.75" x2="37.5" y2="28.132" spreadMethod="reflect"><stop offset="0" stop-color="#6dc7ff"/><stop offset="1" stop-color="#e6abff"/></linearGradient><path d="M33 18a9 9 0 0 1 9 9h-9v-9z" fill="url(#a)"/><linearGradient id="b" gradientUnits="userSpaceOnUse" x1="32" y1="5.5" x2="32" y2="58.877" spreadMethod="reflect"><stop offset="0" stop-color="#1a6dff"/><stop offset="1" stop-color="#c822ff"/></linearGradient><path d="M51 44c-1.654 0-3-1.346-3-3V27c0-6.885-4.667-12.685-11-14.442V9c0-1.654-1.346-3-3-3h-2c-1.654 0-3 1.346-3 3v3.556a15.089 15.089 0 0 0-9.277 7.481A9.112 9.112 0 0 0 19 20c-4.963 0-9 4.037-9 9 0 4.625 3.507 8.442 8 8.941V41c0 1.654-1.346 3-3 3s-3 1.346-3 3 1.346 3 3 3h9.059c.499 4.493 4.316 8 8.941 8s8.442-3.507 8.941-8H51c1.654 0 3-1.346 3-3s-1.346-3-3-3zM31 9a1 1 0 0 1 1-1h2a1 1 0 0 1 1 1v3.149c-.33-.044-.663-.076-1-.099V10a1 1 0 1 0-2 0v2.036c-.336.023-.669.059-1 .104V9zM12 29c0-3.859 3.141-7 7-7s7 3.141 7 7v7h-7c-3.859 0-7-3.141-7-7zm8 12v-3h8v-9c0-3.993-2.615-7.382-6.221-8.556C24.094 16.498 28.381 14 33 14c7.168 0 13 5.832 13 13.001V41c0 1.13.391 2.162 1.026 3H18.974A4.948 4.948 0 0 0 20 41zm13 15c-3.519 0-6.432-2.614-6.92-6h2.021c.465 2.279 2.484 4 4.899 4s4.434-1.721 4.899-4h2.021c-.488 3.386-3.401 6-6.92 6zm-2.816-6h5.631c-.414 1.161-1.514 2-2.816 2s-2.401-.839-2.815-2zM51 48H15a1 1 0 0 1 0-2h36a1 1 0 0 1 0 2z" fill="url(#b)"/><linearGradient id="c" gradientUnits="userSpaceOnUse" x1="19" y1="5.5" x2="19" y2="58.877" spreadMethod="reflect"><stop offset="0" stop-color="#1a6dff"/><stop offset="1" stop-color="#c822ff"/></linearGradient><path d="M23 29c0-2.206-1.794-4-4-4s-4 1.794-4 4 1.794 4 4 4 4-1.794 4-4zm-6 0c0-1.103.897-2 2-2s2 .897 2 2-.897 2-2 2-2-.897-2-2z" fill="url(#c)"/><linearGradient id="d" gradientUnits="userSpaceOnUse" x1="37.5" y1="5.5" x2="37.5" y2="58.877" spreadMethod="reflect"><stop offset="0" stop-color="#1a6dff"/><stop offset="1" stop-color="#c822ff"/></linearGradient><rect x="33" y="40" width="9" height="2" fill="url(#d)"/><linearGradient id="e" gradientUnits="userSpaceOnUse" x1="38.5" y1="5.5" x2="38.5" y2="58.877" spreadMethod="reflect"><stop offset="0" stop-color="#1a6dff"/><stop offset="1" stop-color="#c822ff"/></linearGradient><rect x="35" y="36" width="7" height="2" fill="url(#e)"/><linearGradient id="f" gradientUnits="userSpaceOnUse" x1="39.5" y1="5.5" x2="39.5" y2="58.877" spreadMethod="reflect"><stop offset="0" stop-color="#1a6dff"/><stop offset="1" stop-color="#c822ff"/></linearGradient><rect x="37" y="32" width="5" height="2" fill="url(#f)"/></svg>