<svg xmlns="http://www.w3.org/2000/svg" viewBox="0 0 80 80"><path d="M40 5c-2.2 0-4 1.8-4 4v1.469c-6.922 1.578-12.363 7.148-13.688 14.242-1.414.758-2.511 2.062-2.69 3.754l-3.079 28.457A4.558 4.558 0 0 1 12 61h-1v6h22c0 3.855 3.145 7 7 7s7-3.145 7-7h22v-6h-1a4.558 4.558 0 0 1-4.543-4.078l-3.078-28.457c-.18-1.692-1.277-2.996-2.691-3.754A18.027 18.027 0 0 0 44 10.469V9c0-2.2-1.8-4-4-4zm0 2c1.117 0 2 .883 2 2v1.125A17.791 17.791 0 0 0 40 10c-.676 0-1.344.05-2 .125V9c0-1.117.883-2 2-2zm0 5c7.926 0 14.559 5.758 15.813 13.418l.097.57.543.203a2.99 2.99 0 0 1 1.938 2.485l3.078 28.46c.035.321.101.626.183.926a1 1 0 1 0 .813 1.825A6.667 6.667 0 0 0 67 62.812V65H13v-2.188a6.667 6.667 0 0 0 4.535-2.925A1.002 1.002 0 0 0 19 59a1 1 0 0 0-.652-.938c.082-.3.148-.605.183-.925l3.078-28.461a2.99 2.99 0 0 1 1.938-2.485l.543-.203.098-.57C25.44 17.758 32.074 12 40 12zM26 24c-.55 0-1 .45-1 1s.45 1 1 1 1-.45 1-1-.45-1-1-1zm4 0c-.55 0-1 .45-1 1s.45 1 1 1 1-.45 1-1-.45-1-1-1zm4 0c-.55 0-1 .45-1 1s.45 1 1 1 1-.45 1-1-.45-1-1-1zm4 0c-.55 0-1 .45-1 1s.45 1 1 1 1-.45 1-1-.45-1-1-1zm4 0c-.55 0-1 .45-1 1s.45 1 1 1 1-.45 1-1-.45-1-1-1zm4 0c-.55 0-1 .45-1 1s.45 1 1 1 1-.45 1-1-.45-1-1-1zm4 0c-.55 0-1 .45-1 1s.45 1 1 1 1-.45 1-1-.45-1-1-1zm4 0c-.55 0-1 .45-1 1s.45 1 1 1 1-.45 1-1-.45-1-1-1zM22 58c-.55 0-1 .45-1 1s.45 1 1 1 1-.45 1-1-.45-1-1-1zm4 0c-.55 0-1 .45-1 1s.45 1 1 1 1-.45 1-1-.45-1-1-1zm4 0c-.55 0-1 .45-1 1s.45 1 1 1 1-.45 1-1-.45-1-1-1zm4 0c-.55 0-1 .45-1 1s.45 1 1 1 1-.45 1-1-.45-1-1-1zm4 0c-.55 0-1 .45-1 1s.45 1 1 1 1-.45 1-1-.45-1-1-1zm4 0c-.55 0-1 .45-1 1s.45 1 1 1 1-.45 1-1-.45-1-1-1zm4 0c-.55 0-1 .45-1 1s.45 1 1 1 1-.45 1-1-.45-1-1-1zm4 0c-.55 0-1 .45-1 1s.45 1 1 1 1-.45 1-1-.45-1-1-1zm4 0c-.55 0-1 .45-1 1s.45 1 1 1 1-.45 1-1-.45-1-1-1zm4 0c-.55 0-1 .45-1 1s.45 1 1 1 1-.45 1-1-.45-1-1-1zm-23 9h10c0 2.773-2.227 5-5 5s-5-2.227-5-5z"/></svg>