<svg xmlns="http://www.w3.org/2000/svg" viewBox="0 0 40 40"><path d="M20 23h-.898a.515.515 0 0 0-.094.21.492.492 0 0 0-.406-.21h-.153a.501.501 0 0 0 0 1h.153a.505.505 0 0 0 .46-.309.497.497 0 0 0 .547.247.513.513 0 0 0 .243.062H20zm-2.8 0h-.15a.499.499 0 1 0 0 1h.15a.499.499 0 1 0 0-1zm-1.4 0h-.152a.501.501 0 0 0 0 1h.153a.501.501 0 0 0 0-1zm-1.402 0h-.148a.499.499 0 1 0 0 1h.148c.278 0 .5-.223.5-.5s-.222-.5-.5-.5zM13 23h-.148c-.278 0-.5.223-.5.5s.222.5.5.5H13a.499.499 0 1 0 0-1zm-1.398 0h-.153a.501.501 0 0 0 0 1h.153a.501.501 0 0 0 0-1zm-1.403 0h-.148c-.278 0-.5.223-.5.5s.222.5.5.5h.148c.278 0 .5-.223.5-.5s-.222-.5-.5-.5zm-1.398 0h-.153a.507.507 0 0 0-.347.14.505.505 0 0 0-.301.462v.148a.499.499 0 0 0 .945.23A.501.501 0 0 0 8.8 23zM8.5 24.5c-.277 0-.5.223-.5.5v.148c0 .278.223.5.5.5s.5-.222.5-.5V25c0-.277-.223-.5-.5-.5zm0 1.398c-.277 0-.5.227-.5.5v.153a.501.501 0 0 0 1 0v-.153c0-.273-.223-.5-.5-.5zm0 1.403c-.277 0-.5.222-.5.5v.148c0 .278.223.5.5.5s.5-.222.5-.5v-.148c0-.278-.223-.5-.5-.5zm0 1.398c-.277 0-.5.227-.5.5v.153a.501.501 0 0 0 1 0v-.153c0-.273-.223-.5-.5-.5zm0 1.403c-.277 0-.5.222-.5.5v.148a.499.499 0 1 0 1 0v-.148c0-.278-.223-.5-.5-.5zm0 1.398c-.277 0-.5.223-.5.5v.148c0 .278.223.5.5.5s.5-.222.5-.5V32c0-.277-.223-.5-.5-.5zm.008 1.367h-.035a.495.495 0 0 0-.461.52v.011c.004.02.004.04.004.055v.02c.004.03.007.058.007.09a.498.498 0 0 0 .493.445c.015 0 .03-.004.046-.004a.508.508 0 0 0 .458-.543l-.008-.125a.51.51 0 0 0-.504-.469zm.23 1.262a.674.674 0 0 0-.148.02.498.498 0 0 0-.328.613c0 .004.004.008.004.011l.046.141c0 .008.004.012.004.016a.487.487 0 0 0 .621.3.503.503 0 0 0 .32-.632l-.034-.121a.511.511 0 0 0-.485-.348zm.52 1.172a.494.494 0 0 0-.434.738c.004.004.004.008.008.012a1.77 1.77 0 0 0 .086.137.493.493 0 0 0 .676.152.51.51 0 0 0 .164-.692l-.067-.109a.509.509 0 0 0-.433-.238zm.781 1.015a.49.49 0 0 0-.351.145.492.492 0 0 0-.02.691c.004.004.008.008.012.008a.223.223 0 0 0 .03.035c.005 0 .005 0 .005.004l.004.004.004.004.07.07a.485.485 0 0 0 .34.137.49.49 0 0 0 .351-.144.505.505 0 0 0 0-.711l-.086-.09a.5.5 0 0 0-.359-.153zm.992.817a.502.502 0 0 0-.426.23.486.486 0 0 0 .141.676l.012.012h.004v.004h.004l.004.004c.011.007.023.011.035.02l.004.003h.004v.004h.003c.024.016.047.027.07.043.005.004.009.004.012.008a.495.495 0 0 0 .672-.168.51.51 0 0 0-.164-.696l-.105-.062a.5.5 0 0 0-.27-.078zm1.153.558a.512.512 0 0 0-.48.34.495.495 0 0 0 .335.64c0 .005 0 .005.004.005h.016v.004h.007c.004 0 .004.004.004.004h.008v.004h.008l.004.003h.008v.004h.007v.004h.008c.016.004.028.012.043.016.004 0 .008.004.012.004a.497.497 0 0 0 .617-.32.513.513 0 0 0-.32-.637l-.117-.04a.434.434 0 0 0-.164-.03zm1.25.282a.502.502 0 0 0-.504.453.49.49 0 0 0 .43.539c.062.008.12.012.18.015.01.004.019.004.03.004a.497.497 0 0 0 .492-.457.508.508 0 0 0-.46-.543l-.125-.011h-.043zm1.406-.035c-.024 0-.047 0-.07.003l-.125.016a.505.505 0 0 0-.43.566c.031.25.242.43.484.43h.059c.004-.004.008-.004.012-.004.05-.004.101-.011.148-.02.008 0 .012-.003.016-.003a.494.494 0 0 0 .406-.563.507.507 0 0 0-.5-.425zm1.234-.34a.427.427 0 0 0-.183.035l-.118.043a.51.51 0 0 0-.289.652.491.491 0 0 0 .63.29c.058-.02.113-.044.167-.067a.49.49 0 0 0 .262-.64.504.504 0 0 0-.469-.313zm1.121-.621a.506.506 0 0 0-.289.093l-.101.07a.507.507 0 0 0-.13.7.491.491 0 0 0 .68.137c.004-.004.008-.004.008-.008.008-.004.016-.008.02-.016h.004c.004 0 .004 0 .004-.004 0 0 .004 0 .004-.004.023-.015.05-.03.074-.05.008-.004.011-.008.02-.012l.011-.012a.49.49 0 0 0 .105-.684.495.495 0 0 0-.41-.21zm.953-.86a.51.51 0 0 0-.378.168l-.082.094a.509.509 0 0 0 .035.71.494.494 0 0 0 .691-.026c.008-.008.016-.012.02-.024h.003v-.004h.004c0-.004.004-.004.004-.004s0-.004.004-.004c.012-.015.028-.03.043-.047.012-.015.028-.03.04-.046a.497.497 0 1 0-.383-.816zm.727-1.058a.507.507 0 0 0-.445.265l-.063.11a.508.508 0 0 0 .442.746.482.482 0 0 0 .425-.246c.004-.004.004-.008.008-.012.004-.008.008-.016.012-.02v-.004l.004-.003v-.004h.004v-.004s0-.004.004-.004c.011-.024.023-.043.035-.067 0-.004.004-.004.004-.004.004-.007.004-.015.008-.019.003-.004.003-.008.007-.012a.491.491 0 0 0-.21-.66.469.469 0 0 0-.235-.062zm.46-1.196a.513.513 0 0 0-.491.375l-.032.121c-.07.27.086.543.352.621a.565.565 0 0 0 .137.016c.21 0 .406-.137.472-.351a1.88 1.88 0 0 0 .043-.172.486.486 0 0 0-.355-.59.362.362 0 0 0-.125-.02zm.169-1.27a.508.508 0 0 0-.504.493l-.004.125a.505.505 0 0 0 .484.52h.02a.49.49 0 0 0 .492-.465v-.012c.004-.02.004-.04.004-.059v-.105a.497.497 0 0 0-.484-.496h-.008zm-.004-1.39c-.277 0-.5.223-.5.5v.149a.499.499 0 1 0 1 0v-.149c0-.277-.223-.5-.5-.5zm0-1.402a.5.5 0 0 0-.5.5v.152a.501.501 0 0 0 1 0v-.152a.5.5 0 0 0-.5-.5zm0-1.399c-.277 0-.5.223-.5.5v.149a.499.499 0 1 0 1 0v-.149c0-.277-.223-.5-.5-.5zm0-1.398c-.277 0-.5.223-.5.5v.148c0 .278.223.5.5.5s.5-.222.5-.5v-.148c0-.277-.223-.5-.5-.5zm0-1.402c-.277 0-.5.222-.5.5v.152a.501.501 0 0 0 1 0v-.152c0-.278-.223-.5-.5-.5zm0-1.399c-.277 0-.5.223-.5.5v.149a.499.499 0 1 0 1 0v-.149c0-.277-.223-.5-.5-.5z" fill="#4788c7"/><path d="M16 32.5a2.502 2.502 0 0 1-2.5-2.5V4c0-1.379 1.121-2.5 2.5-2.5h19c1.379 0 2.5 1.121 2.5 2.5v26c0 1.379-1.121 2.5-2.5 2.5z" fill="#98ccfd"/><path d="M35 2c1.102 0 2 .898 2 2v26c0 1.102-.898 2-2 2H16c-1.102 0-2-.898-2-2V4c0-1.102.898-2 2-2h19m0-1H16a3 3 0 0 0-3 3v26a3 3 0 0 0 3 3h19a3 3 0 0 0 3-3V4a3 3 0 0 0-3-3z" fill="#4788c7"/><path d="M32 15.5a1.5 1.5 0 1 1-3 0 1.5 1.5 0 0 1 3 0zm-5 0a1.5 1.5 0 1 1-3 0 1.5 1.5 0 0 1 3 0zm-5 0a1.5 1.5 0 1 1-3 0 1.5 1.5 0 0 1 3 0zm10 5a1.5 1.5 0 1 1-3 0 1.5 1.5 0 0 1 3 0zm-5 0a1.5 1.5 0 1 1-3 0 1.5 1.5 0 0 1 3 0zm-5 0a1.5 1.5 0 1 1-3 0 1.5 1.5 0 0 1 3 0zm10 5a1.5 1.5 0 1 1-3 0 1.5 1.5 0 0 1 3 0zm-5 0a1.5 1.5 0 1 1-3 0 1.5 1.5 0 0 1 3 0zm-5 0a1.5 1.5 0 1 1-3 0 1.5 1.5 0 0 1 3 0z" fill="#fff"/><path d="M5 32.5A2.502 2.502 0 0 1 2.5 30v-4.344c0-.933.363-1.812 1.023-2.472l.977-.977V11.793l-.977-.977A3.475 3.475 0 0 1 2.5 8.344V4c0-1.379 1.121-2.5 2.5-2.5h6c1.379 0 2.5 1.121 2.5 2.5v4.344c0 .933-.363 1.812-1.023 2.472l-.977.977v10.414l.977.977a3.474 3.474 0 0 1 1.023 2.472V30c0 1.379-1.121 2.5-2.5 2.5z" fill="#98ccfd"/><path d="M11 2c1.102 0 2 .898 2 2v4.344c0 .8-.313 1.554-.879 2.12L11 11.587v10.828l1.121 1.121c.566.567.879 1.32.879 2.121V30c0 1.102-.898 2-2 2H5c-1.102 0-2-.898-2-2v-4.344c0-.8.313-1.554.879-2.12L5 22.413V11.586l-1.121-1.121A2.982 2.982 0 0 1 3 8.344V4c0-1.102.898-2 2-2h6m0-1H5a3 3 0 0 0-3 3v4.344c0 1.058.422 2.078 1.172 2.828L4 12v10l-.828.828A4.004 4.004 0 0 0 2 25.656V30a3 3 0 0 0 3 3h6a3 3 0 0 0 3-3v-4.344a4.004 4.004 0 0 0-1.172-2.828L12 22V12l.828-.828A4.004 4.004 0 0 0 14 8.344V4a3 3 0 0 0-3-3z" fill="#4788c7"/><path d="M18 6h15v5H18z" fill="#dff0fe"/></svg>