<svg xmlns="http://www.w3.org/2000/svg" viewBox="0 0 64 64"><linearGradient id="a" gradientUnits="userSpaceOnUse" x1="32" y1="4.833" x2="32" y2="58.834" spreadMethod="reflect"><stop offset="0" stop-color="#1a6dff"/><stop offset="1" stop-color="#c822ff"/></linearGradient><path d="M53 10h-7V8c0-1.103-.897-2-2-2H20c-1.103 0-2 .897-2 2v2h-7c-1.654 0-3 1.346-3 3v32c0 1.654 1.346 3 3 3h15v4h-4c-1.654 0-3 1.346-3 3v1h-4v2h34v-2h-4v-1c0-1.654-1.346-3-3-3h-4v-4h15c1.654 0 3-1.346 3-3V13c0-1.654-1.346-3-3-3zm-7 26V16h4v24H14V16h4v20h28zm-10-2V8h2v26h-2zm8 0h-4V8h4v26zM20 8h14v26H20V8zm22 46a1 1 0 0 1 1 1v1H21v-1a1 1 0 0 1 1-1h20zm-6-2h-8v-4h8v4zm18-7a1 1 0 0 1-1 1H11a1 1 0 0 1-1-1V13a1 1 0 0 1 1-1h7v2h-4c-1.103 0-2 .897-2 2v24c0 1.103.897 2 2 2h36c1.103 0 2-.897 2-2V16c0-1.103-.897-2-2-2h-4v-2h7a1 1 0 0 1 1 1v32z" fill="url(#a)"/><linearGradient id="b" gradientUnits="userSpaceOnUse" x1="31" y1="4.833" x2="31" y2="58.834" spreadMethod="reflect"><stop offset="0" stop-color="#1a6dff"/><stop offset="1" stop-color="#c822ff"/></linearGradient><rect x="30" y="14" width="2" height="10" fill="url(#b)"/><linearGradient id="c" gradientUnits="userSpaceOnUse" x1="27" y1="4.833" x2="27" y2="58.834" spreadMethod="reflect"><stop offset="0" stop-color="#1a6dff"/><stop offset="1" stop-color="#c822ff"/></linearGradient><rect x="26" y="14" width="2" height="8" fill="url(#c)"/><linearGradient id="d" gradientUnits="userSpaceOnUse" x1="37" y1="7.833" x2="37" y2="35.192" spreadMethod="reflect"><stop offset="0" stop-color="#6dc7ff"/><stop offset="1" stop-color="#e6abff"/></linearGradient><rect x="36" y="8" width="2" height="26" fill="url(#d)"/></svg>