<svg xmlns="http://www.w3.org/2000/svg" viewBox="0 0 64 64"><linearGradient id="a" gradientUnits="userSpaceOnUse" x1="37.5" y1="33.126" x2="37.5" y2="38.75" spreadMethod="reflect"><stop offset="0" stop-color="#6dc7ff"/><stop offset="1" stop-color="#e6abff"/></linearGradient><circle cx="37.5" cy="36" r="2.5" fill="url(#a)"/><linearGradient id="b" gradientUnits="userSpaceOnUse" x1="26.5" y1="33.126" x2="26.5" y2="38.75" spreadMethod="reflect"><stop offset="0" stop-color="#6dc7ff"/><stop offset="1" stop-color="#e6abff"/></linearGradient><circle cx="26.5" cy="36" r="2.5" fill="url(#b)"/><linearGradient id="c" gradientUnits="userSpaceOnUse" x1="32" y1="40.75" x2="32" y2="45.266" spreadMethod="reflect"><stop offset="0" stop-color="#6dc7ff"/><stop offset="1" stop-color="#e6abff"/></linearGradient><path d="M28 41c0 2 1.791 4 4 4s4-2 4-4h-8z" fill="url(#c)"/><linearGradient id="d" gradientUnits="userSpaceOnUse" x1="32" y1="5.751" x2="32" y2="58.809" spreadMethod="reflect"><stop offset="0" stop-color="#1a6dff"/><stop offset="1" stop-color="#c822ff"/></linearGradient><path d="M51 32.001c0-1.302-1-2.402-2-2.816v-1.184c0-4.694-2-8.949-5-12.029V8.877c0-.932-.489-1.777-1.343-2.319-1.033-.658-2.377-.74-3.506-.213L35.2 8.192c-.87-.732-1.977-1.191-3.2-1.191s-2.33.459-3.2 1.191l-3.951-1.846a3.678 3.678 0 0 0-3.506.212C20.489 7.1 20 7.946 20 8.877v7.095c-3 3.079-5 7.334-5 12.029v1.184c-1 .414-2 1.514-2 2.816-1.103 0-2 .897-2 2s.897 2 2 2c0 1.302 1 2.402 2 2.816V45c0 1.654 1.346 3 3 3h5v-.028C25 49.864 28.621 51 32 51s6-1.136 9-3.028V48h5c1.654 0 3-1.346 3-3v-6.184c1-.414 2-1.514 2-2.816 1.103 0 2-.897 2-2a2.002 2.002 0 0 0-2-1.999zM39.999 8.157a1.692 1.692 0 0 1 1.585.089c.155.098.416.311.416.631v5.407c-2-1.104-3.198-1.976-5.026-2.537a4.953 4.953 0 0 0-.504-1.941l3.529-1.649zM32 9.001c1.4 0 2.569.967 2.898 2.266A16.983 16.983 0 0 0 32 11.001c-.99 0-1.955.103-2.898.266A2.996 2.996 0 0 1 32 9.001zm-10-.124c0-.32.261-.533.416-.632a1.687 1.687 0 0 1 1.585-.088l3.529 1.649a4.944 4.944 0 0 0-.504 1.94C25.198 12.308 23 13.18 22 14.284V8.877zm10 4.124c8.271 0 15 6.728 15 15V29H36c-4.411 0-8-3.588-8-7.999V19h-2v2.001C26 25.412 22.411 29 18 29h-1v-.999c0-8.272 6.729-15 15-15zm-17 19c0-.552.449-1 1.001-1H17v6h-1c-.551-.001-1-.449-1-1.001v-3.999zM17 45v-6h.303c.542 3 1.801 5 3.549 7H18c-.551 0-1-.448-1-1zm2-9v-5.05c3-.353 6.52-2.556 8-5.62 1.618 3.349 5.039 5.67 9 5.67h9v5c0 7.168-5.832 13-13 13s-13-5.832-13-13zm27 10h-2.851c1.748-2 3.007-4 3.549-7H47v6c0 .552-.449 1-1 1zm3-10c0 .552-.449 1-1 1h-1v-6h1c.552 0 1 .449 1 1v4z" fill="url(#d)"/><linearGradient id="e" gradientUnits="userSpaceOnUse" x1="40" y1="5.75" x2="40" y2="58.809" spreadMethod="reflect"><stop offset="0" stop-color="#1a6dff"/><stop offset="1" stop-color="#c822ff"/></linearGradient><path d="M49 51c0 1.654-1.346 3-3 3h-7.184c-.414-1-1.514-2-2.816-2h-4c-1.654 0-3 1.346-3 3s1.346 3 3 3h4c1.302 0 2.402-1 2.816-2H46c2.757 0 5-2.243 5-5v-3h-2v3zm-13 5h-4a1 1 0 0 1 0-2h4a1 1 0 0 1 0 2z" fill="url(#e)"/><linearGradient id="f" gradientUnits="userSpaceOnUse" x1="21" y1="5.749" x2="21" y2="58.813" spreadMethod="reflect"><stop offset="0" stop-color="#1a6dff"/><stop offset="1" stop-color="#c822ff"/></linearGradient><path d="M24 21h-2c0 2-2 4.001-4 4.001v2c3 0 6-2.001 6-6.001z" fill="url(#f)"/><linearGradient id="g" gradientUnits="userSpaceOnUse" x1="36.5" y1="5.75" x2="36.5" y2="58.809" spreadMethod="reflect"><stop offset="0" stop-color="#1a6dff"/><stop offset="1" stop-color="#c822ff"/></linearGradient><path d="M36 27h7v-2h-7c-2.206 0-4-2-4-4h-2c0 4 2.691 6 6 6z" fill="url(#g)"/></svg>