<svg xmlns="http://www.w3.org/2000/svg" viewBox="0 0 48 48"><path d="M14 26c0 2.21-1.79 4-4 4s-4-1.79-4-4 1.79-4 4-4 4 1.79 4 4zm28 0c0 2.21-1.79 4-4 4s-4-1.79-4-4 1.79-4 4-4 4 1.79 4 4z" fill="#ffa726"/><path d="M39 19c0-12.7-30-8.3-30 0v10c0 8.3 6.7 15 15 15s15-6.7 15-15V19z" fill="#ffb74d"/><path d="M24 3C14.602 3 7 10.602 7 20v3.398L9 25v-3l21-9.8 9 9.8v3l2-1.602V20c0-8-5.7-17-17-17z" fill="#ff5722"/><path d="M33 26a1.999 1.999 0 1 1-4 0 1.999 1.999 0 1 1 4 0zm-14 0a1.999 1.999 0 1 1-4 0 1.999 1.999 0 1 1 4 0z" fill="#784719"/><path d="M43 24c-.602 0-1 .398-1 1v-7c0-8.8-7.2-16-16-16h-7c-.602 0-1 .398-1 1s.398 1 1 1h7c7.7 0 14 6.3 14 14v10c0 .602.398 1 1 1s1-.398 1-1v2c0 3.898-3.102 7-7 7H24c-.602 0-1 .398-1 1s.398 1 1 1h11c5 0 9-4 9-9v-5c0-.602-.398-1-1-1z" fill="#757575"/><path d="M43 22h-1c-1.102 0-2 .898-2 2v4c0 1.102.898 2 2 2h1c1.102 0 2-.898 2-2v-4c0-1.102-.898-2-2-2zM26 38a1.999 1.999 0 1 1-4 0 1.999 1.999 0 1 1 4 0z" fill="#37474f"/></svg>