<svg xmlns="http://www.w3.org/2000/svg" viewBox="0 0 16 16"><path d="M7 1C2.258 1 2.016 4.121 2 6.602c-.578.226-1 .78-1 1.398 0 .797.598 2 1.5 2 .078 0 .16-.008.242-.016C3.477 12.262 5.29 14 7 14c.816 0 1.656-.406 2.395-1.078A5.797 5.797 0 0 1 8.5 13H7c-1.176 0-2.816-1.457-3.39-3.625l-.165-.57-.468.117C2.687 8.996 2.539 9 2.5 9c-.16-.02-.5-.59-.5-1 0-.242.254-.484.531-.5L3 7.469V7c0-3.11.27-5 4-5l2.445.008-.34.691c-.05.121-.234.528-.87 1.051C7.5 4.36 6.226 5 4 5v1c2.422 0 3.957-.723 4.875-1.477.488-.406.785-.804.973-1.113C10.875 3.934 11 4.973 11 7v2.465C10.887 10.723 9.16 11 8.5 11H8c0-.55-.45-1-1-1s-1 .45-1 1 .45 1 1 1h1.5c1.379 0 2.898-.586 3.363-1.875h.637c.824 0 1.5-.676 1.5-1.5V7.5c0-.824-.676-1.5-1.5-1.5h-.52c-.05-1.434-.296-2.781-1.668-3.484l.743-1.5-.805-.004L7 1zM5.5 7a.499.499 0 1 0 0 1 .499.499 0 1 0 0-1zm3 0a.499.499 0 1 0 0 1 .499.499 0 1 0 0-1zM12 7h.5c.281 0 .5.219.5.5v1.125c0 .281-.219.5-.5.5H12z"/></svg>