<svg xmlns="http://www.w3.org/2000/svg" viewBox="0 0 40 40"><path d="M31 9v22H9V9h22m1-1H8v24h24z" fill="#4788c7"/><path d="M2.5 2.5h12v12h-12z" fill="#98ccfd"/><path d="M14 3v11H3V3h11m1-1H2v13h13z" fill="#4788c7"/><path d="M25.5 2.5h12v12h-12z" fill="#dff0fe"/><path d="M37 3v11H26V3h11m1-1H25v13h13z" fill="#4788c7"/><path d="M2.5 25.5h12v12h-12z" fill="#dff0fe"/><path d="M14 26v11H3V26h11m1-1H2v13h13z" fill="#4788c7"/><path d="M25.5 25.5h12v12h-12z" fill="#dff0fe"/><path d="M37 26v11H26V26h11m1-1H25v13h13z" fill="#4788c7"/></svg>