<svg xmlns="http://www.w3.org/2000/svg" viewBox="0 0 80 80"><path d="M38.727 9c-4.84 0-9.192 2.648-12.348 5.223a27.04 27.04 0 0 0-.926.793c-.172-.008-.34-.016-.515-.016-4.098 0-7.747 2.234-10.391 4.39-2.649 2.16-4.336 4.329-4.336 4.329l-.926 1.187 1.453.39s.504.13 1.078.669c.579.539 1.184 1.418 1.184 3.16V36h.012c.027.508.168.926.289 1.336.066.227.133.437.172.598.043.156.047.312.047.148 0 .965.699 1.621 1.55 1.95A10.932 10.932 0 0 0 19 48.05v3.238c-1.332.402-4.063 1.29-6.86 2.582-1.937.899-3.894 1.98-5.421 3.27C5.187 58.434 4 60.004 4 61.883V67h10v4h52v-4h10v-5.117c0-1.88-1.188-3.45-2.719-4.742-1.527-1.29-3.484-2.371-5.422-3.27-2.796-1.293-5.527-2.18-6.859-2.582v-3.242a10.925 10.925 0 0 0 3.93-8.02c.851-.324 1.55-.984 1.55-1.945 0 .16.004.008.047-.148.04-.16.106-.371.172-.598.121-.41.262-.828.29-1.336H67v-9.168c0-5.703-3.445-8.473-6.535-8.73-.203-.282-.473-.758-1.465-1.43C57.738 15.82 55.754 15 52.937 15c-.124 0-.25.008-.374.012-1.567-1.262-3.36-1.79-4.958-1.903-.273-.433-.757-1.113-1.761-1.898C44.402 10.09 42.09 9 38.727 9zm0 2c2.937 0 4.761.91 5.882 1.79 1.125.878 1.496 1.651 1.496 1.651l.274.559H47c1.332 0 3.125.508 4.52 1.738C52.918 17.968 54 19.891 54 23c0 2.79-.664 6.86-.86 8h-.015c-.086 0-.07.02-.125.027V28c0-3.422-1.398-5.723-2.805-7.086-1.406-1.363-2.879-1.863-2.879-1.863l-.57-.192-.437.418s-.63.618-2.149 1.313C42.64 21.285 40.29 22 37 22c-1.8 0-4.172.637-6.23 2.074-2.051 1.434-3.758 3.778-3.766 6.957-.055-.008-.043-.031-.129-.031-.023 0-.047.008-.07.008a25.783 25.783 0 0 1-.532-5.258c0-2.617-.937-4.355-1.918-5.363-.418-.43-.511-.356-.875-.57.692-.813 1.977-2.255 4.165-4.04C30.617 13.352 34.633 11 38.727 11zm15.683 6.094c1.61.207 2.723.73 3.469 1.234.957.649 1.266 1.188 1.266 1.188l.292.484H60c2.055 0 5 1.648 5 6.832V31c0-5.77-4.484-8.523-4.484-8.523l-.754-.454-.543.688s-1.055 1.336-3.301 2.266c.047-.684.082-1.36.082-1.977 0-2.434-.625-4.39-1.59-5.906zm-31.222.093a37.103 37.103 0 0 0-1.977 2.2l-.902 1.156 1.41.414s.547.152 1.203.824c.652.668 1.351 1.809 1.351 3.969 0 .023 0 .04.004.059-.254.015-.511.023-.777.023-1.543 0-3.54.54-5.285 1.762C16.465 28.812 15 30.828 15 33.547v-4.422c0-2.242-.895-3.758-1.816-4.621-.29-.266-.329-.188-.598-.352.476-.574 1.25-1.601 3.223-3.21 2.03-1.657 4.644-3.243 7.379-3.755zM47 21.157c.242.093.875.292 1.805 1.19C49.898 23.41 51 25.106 51 28v6.305l1.504-.883c.258-.149.496-.281.664-.367.02-.012.027-.012.047-.024.457.047.785.367.785.766v.004c0 .074-.121.66-.273 1.183-.079.258-.157.52-.223.758-.063.238-.129.406-.129.758 0 .266-.219.5-.563.5H51v1.367c0 5.422-3.91 9.903-9.059 10.82l-.285.047-.215.2c-.39.355-.882.566-1.441.566s-1.05-.21-1.441-.566l-.215-.2-.285-.047C32.91 48.27 29 43.79 29 38.367V37h-1.813c-.343 0-.562-.234-.562-.5 0-.352-.066-.52-.133-.758-.066-.238-.144-.5-.222-.758-.153-.523-.27-1.109-.27-1.183 0-.403.328-.723.785-.77.02.012.027.012.047.024.168.086.406.218.664.367l1.504.883V31.05c0-2.492 1.242-4.168 2.914-5.336C33.586 24.547 35.711 24 37 24c3.582 0 6.23-.785 7.992-1.59 1.309-.598 1.653-.965 2.008-1.254zm13.012 3.515C60.77 25.207 63 26.953 63 31v5.176l1.469-.77a.117.117 0 0 1 .031-.015c.281.043.5.207.5.441 0 .016-.094.508-.219.938-.066.218-.129.433-.187.636-.055.207-.114.34-.114.676 0 .125-.101.25-.304.25H63v1.309c0 4.437-3.2 8.097-7.41 8.847l-.285.055-.211.191a1.593 1.593 0 0 1-2.188 0l-.21-.191-.286-.055a8.963 8.963 0 0 1-3.097-1.18 12.944 12.944 0 0 0 3.578-8.34c1.343-.046 2.484-1.109 2.484-2.468 0 .145.012-.043.063-.234.05-.192.128-.446.207-.72.16-.542.355-1.097.355-1.745 0-.82-.371-1.543-.941-2.055.105-.625.41-2.5.644-4.562 2.344-.747 3.606-1.82 4.309-2.512zm-35.664 3.133a27.46 27.46 0 0 0 .57 3.965A2.741 2.741 0 0 0 24 33.8c0 .65.195 1.204.355 1.747.079.273.157.527.207.719.051.191.063.379.063.234 0 1.36 1.14 2.422 2.484 2.469a12.915 12.915 0 0 0 3.578 8.332 8.935 8.935 0 0 1-3.097 1.191l-.285.051-.211.191a1.593 1.593 0 0 1-2.188 0l-.21-.191-.286-.05C20.2 47.742 17 44.077 17 39.64v-1.309h-1.176c-.203 0-.304-.121-.304-.25 0-.336-.06-.469-.114-.676a34.887 34.887 0 0 0-.187-.633 9.866 9.866 0 0 1-.219-.941c0-.234.223-.398.5-.441.016.007.02.007.031.015l1.469.778v-2.637c0-2.024.996-3.363 2.36-4.313 1.359-.953 3.109-1.402 4.14-1.402.29 0 .574-.012.848-.027zM34.5 33a1.5 1.5 0 1 0 0 3 1.5 1.5 0 0 0 0-3zm11 0a1.5 1.5 0 1 0 0 3 1.5 1.5 0 0 0 0-3zm-24 2a1.5 1.5 0 1 0 0 3 1.5 1.5 0 0 0 0-3zm37 0a1.5 1.5 0 1 0 0 3 1.5 1.5 0 0 0 0-3zM32 48.828v3.422c-1.441.438-4.902 1.555-8.426 3.219-.332.156-.656.324-.984.488-1.027-.707-1.485-1.492-1.59-1.68v-4.906c.875.45 1.813.793 2.805.996.61.473 1.355.801 2.195.801.816 0 1.543-.316 2.14-.766A11.013 11.013 0 0 0 32 48.828zm16 .004a11.032 11.032 0 0 0 3.848 1.559c.601.457 1.332.777 2.152.777.84 0 1.594-.328 2.203-.805A10.878 10.878 0 0 0 59 49.371v4.906c-.105.196-.586.961-1.61 1.672-.324-.16-.64-.328-.964-.48-3.524-1.664-6.985-2.782-8.426-3.219zm-14 .992c1.066.559 2.219.989 3.441 1.235.707.562 1.582.941 2.559.941.973 0 1.844-.379 2.547-.938A12.72 12.72 0 0 0 46 49.828v5.86C45.879 55.93 44.297 59 40 59s-5.879-3.07-6-3.313zm-15 3.563v1.422l.105.207s.497.984 1.582 1.968c-1.277.735-2.492 1.54-3.527 2.43C15.36 60.964 14 62.82 14 65H6v-3.117c0-1.004.703-2.113 2.008-3.211 1.305-1.102 3.129-2.133 4.972-2.984 2.356-1.09 4.618-1.86 6.02-2.301zm42 0c1.402.441 3.664 1.21 6.02 2.3 1.843.852 3.668 1.883 4.972 2.985C73.297 59.77 74 60.879 74 61.882V65h-8c0-2.18-1.36-4.035-3.16-5.586-1.035-.89-2.246-1.691-3.524-2.43 1.086-.98 1.579-1.968 1.579-1.968l.105-.207zm-29 .968v1.88l.105.214S34.465 61 40 61s7.895-4.55 7.895-4.55l.105-.216v-1.879c1.605.504 4.547 1.497 7.574 2.926 2.2 1.04 4.387 2.293 5.961 3.649C63.11 62.285 64 63.68 64 65v4H16v-4c0-1.32.89-2.715 2.465-4.07 1.574-1.356 3.762-2.61 5.96-3.649 3.028-1.43 5.97-2.422 7.575-2.926zM8 61c-.55 0-1 .45-1 1s.45 1 1 1 1-.45 1-1-.45-1-1-1zm4 0c-.55 0-1 .45-1 1s.45 1 1 1 1-.45 1-1-.45-1-1-1zm55 0c-.55 0-1 .45-1 1s.45 1 1 1 1-.45 1-1-.45-1-1-1zm4 0c-.55 0-1 .45-1 1s.45 1 1 1 1-.45 1-1-.45-1-1-1zm-51 4c-.55 0-1 .45-1 1s.45 1 1 1 1-.45 1-1-.45-1-1-1zm4 0c-.55 0-1 .45-1 1s.45 1 1 1 1-.45 1-1-.45-1-1-1zm4 0c-.55 0-1 .45-1 1s.45 1 1 1 1-.45 1-1-.45-1-1-1zm4 0c-.55 0-1 .45-1 1s.45 1 1 1 1-.45 1-1-.45-1-1-1zm4 0c-.55 0-1 .45-1 1s.45 1 1 1 1-.45 1-1-.45-1-1-1zm4 0c-.55 0-1 .45-1 1s.45 1 1 1 1-.45 1-1-.45-1-1-1zm4 0c-.55 0-1 .45-1 1s.45 1 1 1 1-.45 1-1-.45-1-1-1zm4 0c-.55 0-1 .45-1 1s.45 1 1 1 1-.45 1-1-.45-1-1-1zm4 0c-.55 0-1 .45-1 1s.45 1 1 1 1-.45 1-1-.45-1-1-1zm4 0c-.55 0-1 .45-1 1s.45 1 1 1 1-.45 1-1-.45-1-1-1zm4 0c-.55 0-1 .45-1 1s.45 1 1 1 1-.45 1-1-.45-1-1-1z"/></svg>