<svg xmlns="http://www.w3.org/2000/svg" viewBox="0 0 40 40"><path d="M20 38.5C9.8 38.5 1.5 30.2 1.5 20S9.8 1.5 20 1.5 38.5 9.8 38.5 20 30.2 38.5 20 38.5z" fill="#98ccfd"/><path d="M20 2c9.926 0 18 8.074 18 18s-8.074 18-18 18S2 29.926 2 20 10.074 2 20 2m0-1C9.508 1 1 9.508 1 20s8.508 19 19 19 19-8.508 19-19S30.492 1 20 1z" fill="#4788c7"/><path d="M20.5 19.793v-3.375l17.563-.43A18.49 18.49 0 0 1 38.5 20c0 4.773-1.797 9.273-5.07 12.723z" fill="#fff"/><path d="M37.66 16.5c.227 1.148.34 2.32.34 3.5 0 4.473-1.621 8.695-4.586 12.004L21 19.586v-2.68l16.66-.406m.8-1.02L20 15.93V20l13.434 13.434A18.941 18.941 0 0 0 39 20c0-1.559-.188-3.07-.54-4.52z" fill="#4788c7"/><path d="M20.5 19.5V1.508c9.805.262 17.73 8.187 17.992 17.992z" fill="#dff0fe"/><path d="M21 2.027c9.133.504 16.469 7.84 16.973 16.973H21V2.027M20 1v19h19C39 9.508 30.492 1 20 1z" fill="#4788c7"/></svg>