<svg xmlns="http://www.w3.org/2000/svg" viewBox="0 0 32 32"><path style="line-height:normal;text-indent:0;text-align:start;text-decoration-line:none;text-decoration-style:solid;text-decoration-color:#000;text-transform:none;block-progression:tb;isolation:auto;mix-blend-mode:normal" d="M6 3v26h20V9.586L19.414 3H6zm2 2h10v6h6v16H8V5zm12 1.414L22.586 9H20V6.414zM16 12c-3.302 0-6 2.698-6 6s2.698 6 6 6 6-2.698 6-6-2.698-6-6-6zm0 2v4h4c0 2.221-1.779 4-4 4s-4-1.779-4-4 1.779-4 4-4z" font-weight="400" font-family="sans-serif" white-space="normal" overflow="visible"/></svg>