<svg xmlns="http://www.w3.org/2000/svg" viewBox="0 0 26 26"><path d="M7 0c-.55 0-1 .45-1 1v3c0 .55.45 1 1 1s1-.45 1-1V1c0-.55-.45-1-1-1zm12 0c-.55 0-1 .45-1 1v3c0 .55.45 1 1 1s1-.45 1-1V1c0-.55-.45-1-1-1zM3 2a3 3 0 0 0-3 3v18a3 3 0 0 0 3 3h20a3 3 0 0 0 3-3V5a3 3 0 0 0-3-3h-2v2c0 1.102-.895 2-2 2s-2-.898-2-2V2H9v2c0 1.102-.895 2-2 2s-2-.898-2-2V2zM2 9h22v14c0 .55-.45 1-1 1H3c-.55 0-1-.45-1-1zm2.344 2a.498.498 0 0 0-.344.5v2.719a.508.508 0 0 0 0 .562v3.5a.505.505 0 0 0 0 .438V21.5c0 .277.223.5.5.5h17c.277 0 .5-.223.5-.5v-2.875a.516.516 0 0 0 0-.219v-3.781a.516.516 0 0 0 0-.219V11.5c0-.277-.223-.5-.5-.5h-17a.376.376 0 0 0-.094 0h-.062zM5 12h3v1.094a1.433 1.433 0 0 0-.906.906H5zm4 0h4v1H9zm5 0h3v2h-2.094a1.433 1.433 0 0 0-.906-.906zm4 0h3v2h-3zM5 15h2v3H5zm4 0h4v3H9zm6 0h2v3h-2zm3 0h3v3h-3zM5 19h2.094c.148.434.472.758.906.906V21H5zm9.906 0H17v2h-3v-1.094c.434-.148.758-.472.906-.906zM18 19h3v2h-3zm-9 1h4v1H9z"/></svg>