<svg xmlns="http://www.w3.org/2000/svg" viewBox="0 0 50 50"><path d="M7 2v46h25v.1c0 1 .9 1.9 1.9 1.9.1 0 .3 0 .4-.1l14.1-7c.4-.2 1.6-.8 1.6-1.9 0-1.1-1.2-1.7-1.6-1.9L43 36.418V14.6L30.4 2H7zm23 2.4L40.6 15H30V4.4zM36 23a2 2 0 1 1 0 4c-.101 0-.199-.014-.297-.03l-5.844 7.305c.088.225.141.469.141.725a2 2 0 1 1-4 0c0-.219.044-.424.11-.621l-5.706-6.418c-.13.026-.266.039-.404.039-.178 0-.347-.031-.512-.074l-3.562 3.562c.044.164.074.334.074.512a2 2 0 1 1-2-2c.178 0 .347.031.512.074l3.562-3.562A1.965 1.965 0 0 1 18 26a2 2 0 1 1 4 0c0 .219-.044.424-.11.621l5.706 6.418a1.823 1.823 0 0 1 .701-.009l5.844-7.305A2.006 2.006 0 0 1 34 25a2 2 0 0 1 2-2zm-2 11.2L47.6 41c.1 0 .1.1.2.1-.1 0-.1.1-.2.1L34 47.9V34.2z"/></svg>