<svg xmlns="http://www.w3.org/2000/svg" viewBox="0 0 50 50"><path style="line-height:normal;text-indent:0;text-align:start;text-decoration-line:none;text-decoration-style:solid;text-decoration-color:#000;text-transform:none;block-progression:tb;isolation:auto;mix-blend-mode:normal" d="M7 2v46h23v-2H9V4h20v12h12v17.193l2 .993v-19.6L30.414 2H7zm24 3.414L39.586 14H31V5.414zM36 23a2 2 0 0 0-2 2c0 .256.053.499.14.723l-5.845 7.306C28.198 33.015 28.1 33 28 33c-.138 0-.272.014-.402.041l-5.707-6.418c.065-.198.109-.404.109-.623a2 2 0 1 0-4 0c0 .178.031.347.074.512l-3.562 3.562A1.965 1.965 0 0 0 14 30a2 2 0 1 0 2 2c0-.178-.031-.347-.074-.512l3.562-3.562c.164.044.334.074.512.074.138 0 .272-.014.402-.041l5.705 6.42A1.994 1.994 0 0 0 26 35a2 2 0 1 0 4 0c0-.256-.054-.5-.14-.725l.14-.173V33.9a3.898 3.898 0 0 1 3.227-3.832l2.478-3.097c.097.015.194.029.295.029a2 2 0 1 0 0-4zm-2.1 9c-1.1 0-1.9.9-1.9 1.9v14.2c0 1 .9 1.9 1.9 1.9.1 0 .3 0 .4-.1l14.1-7c.4-.2 1.6-.8 1.6-1.9 0-1.1-1.2-1.7-1.6-1.9l-14.1-7c-.1-.1-.3-.1-.4-.1zm.1 2.2L47.6 41c.1 0 .1.1.2.1-.1 0-.1.1-.2.1L34 47.9V34.2z" font-weight="400" font-family="sans-serif" white-space="normal" overflow="visible"/></svg>