<svg xmlns="http://www.w3.org/2000/svg" viewBox="0 0 32 32"><path style="line-height:normal;text-indent:0;text-align:start;text-decoration-line:none;text-decoration-style:solid;text-decoration-color:#000;text-transform:none;block-progression:tb;isolation:auto;mix-blend-mode:normal" d="M6 3v26h12v-2H8V5h10v6h6v6.143l2 1.25V9.586L19.414 3H6zm14 3.414L22.586 9H20V6.414zM16 12c-3.309 0-6 2.691-6 6s2.691 6 6 6c.702 0 1.373-.128 2-.35v-2.207A3.96 3.96 0 0 1 16 22c-2.206 0-4-1.794-4-4s1.794-4 4-4v4h2v-3h3.188A5.998 5.998 0 0 0 16 12zm4 5v15l12-7.5L20 17zm2 3.61l6.23 3.89L22 28.39v-7.78z" font-weight="400" font-family="sans-serif" white-space="normal" overflow="visible"/></svg>