<svg xmlns="http://www.w3.org/2000/svg" viewBox="0 0 50 50"><path d="M14 10c-4.957 0-9 4.043-9 9 0 4.617 3.516 8.43 8 8.938v13.625L6.719 35.28a1.004 1.004 0 0 0-.813-.312c-.043.008-.086.02-.125.031a.994.994 0 0 0-.781.703c-.105.367.004.758.281 1.016l8 8 .719.687.719-.687 8-8a1.014 1.014 0 0 0 0-1.438 1.014 1.014 0 0 0-1.438 0L15 41.563V27.937c4.484-.507 8-4.32 8-8.937 0-4.957-4.043-9-9-9zm22 0c-4.957 0-9 4.043-9 9 0 4.617 3.516 8.43 8 8.938v13.625l-6.281-6.282A1.007 1.007 0 0 0 27.78 35a.994.994 0 0 0-.781.703c-.105.367.004.758.281 1.016l8 8 .719.687.719-.687 8-8a1.014 1.014 0 0 0 0-1.438 1.014 1.014 0 0 0-1.438 0L37 41.563V27.937c4.484-.507 8-4.32 8-8.937 0-4.957-4.043-9-9-9zm-22 2c3.879 0 7 3.121 7 7a6.992 6.992 0 0 1-6.688 7h-.124a.972.972 0 0 0-.282-.031.466.466 0 0 0-.062.031h-.063A6.99 6.99 0 0 1 7 19c0-3.879 3.121-7 7-7zm22 0c3.879 0 7 3.121 7 7a6.986 6.986 0 0 1-6.813 7h-.03a.994.994 0 0 0-.344 0h-.032A6.99 6.99 0 0 1 29 19c0-3.879 3.121-7 7-7z"/></svg>