<?xml version="1.0" encoding="utf-8"?>
<!-- Generator: Adobe Illustrator 22.0.1, SVG Export Plug-In . SVG Version: 6.00 Build 0)  -->
<svg version="1.1" xmlns="http://www.w3.org/2000/svg" xmlns:xlink="http://www.w3.org/1999/xlink" x="0px" y="0px"
	 viewBox="0 0 330.393 196.627" enable-background="new 0 0 330.393 196.627" xml:space="preserve">
<g id="Background">
</g>
<g id="Objects">
	<g>
		<path d="M305.7,187.027c0.166-0.122,0.809,0.453,0.715,0.619c-1.748,3.282-4.002,6.173-6.639,8.713
			c-0.871,0.396-1.702,0.278-2.572,0.128c-0.237-0.128-0.456-0.27-0.649-0.388c-0.415-0.27-0.813-0.555-1.184-0.856
			c-0.762-0.598-1.457-1.263-2.087-1.996c-1.257-1.456-2.253-3.149-2.924-4.993c-0.055-0.141,0.631-0.626,0.746-0.53
			c1.448,1.265,2.796,2.545,4.022,3.915c0.608,0.686,1.202,1.397,1.754,2.148c0.197,0.261,0.386,0.534,0.576,0.807
			c-0.245-2.76-0.762-5.495-1.354-8.243c-0.634-3.262-1.573-6.297-2.998-9.214c-0.353-0.738-0.731-1.449-1.12-2.168
			c-0.385-0.699-0.795-1.331-1.258-1.97c-0.938-1.244-2.06-2.352-3.328-3.301c-2.517-1.902-5.605-3.142-8.855-3.395
			c-0.536-0.045-0.595-0.885,0.005-0.917c3.451-0.196,7.006,0.766,9.979,2.682c1.496,0.955,2.852,2.14,3.998,3.519
			c0.56,0.698,1.082,1.457,1.53,2.202c0.436,0.738,0.856,1.501,1.238,2.273c1.569,3.088,2.546,6.535,2.997,9.893
			c0.425,2.654,0.726,5.39,0.688,8.126C300.846,191.419,303.045,189.026,305.7,187.027z"/>
		<g>
			<path d="M325.666,47.36c0.14-0.01,0.24,0.39,0.1,0.44c-3.28,1.23-6.73,1.98-10.25,1.98c-0.15,0-0.2-0.42-0.07-0.47
				C318.796,48.27,322.176,47.64,325.666,47.36z"/>
			<path d="M324.446,34.17c0.2-0.09,0.41,0.27,0.23,0.39c-4.62,3.13-9.42,5.94-14.51,8.21c-0.21,0.1-0.41-0.29-0.23-0.41
				C314.506,39.17,319.366,36.45,324.446,34.17z"/>
			<path d="M321.126,56.77c0.07,0.03,0,0.44-0.08,0.45c-2.07,0.09-4.07-0.19-5.96-1.07c-0.08-0.04,0-0.46,0.09-0.46
				C317.246,55.53,319.236,55.91,321.126,56.77z"/>
			<path d="M319.416,14.7c0.21-0.25,0.55-0.01,0.37,0.27c-4.56,7.05-9.42,13.89-14.77,20.36c-0.22,0.27-0.56,0-0.38-0.28
				C309.126,27.96,314.076,21.18,319.416,14.7z"/>
			<path d="M307.526,5.46c0.04,0.03,0.01,0.07-0.03,0.08c-0.02,0-0.05-0.01-0.07-0.03C307.446,5.47,307.486,5.45,307.526,5.46z"/>
			<path d="M307.366,5.47c0.01,0.01,0.03,0.02,0.05,0.04c-0.02,0.03-0.04,0.07-0.06,0.12l-0.14,0.41l-0.3,0.81l-0.59,1.62
				c-0.41,1.07-0.81,2.15-1.21,3.22c-0.82,2.15-1.67,4.28-2.54,6.41c-1.75,4.24-3.61,8.44-5.62,12.58
				c-0.16,0.35-0.55,0.16-0.43-0.18c1.51-4.34,3.15-8.63,4.92-12.87c0.88-2.13,1.79-4.23,2.73-6.33c0.48-1.04,0.95-2.09,1.43-3.13
				l0.74-1.56l0.37-0.78l0.18-0.39c0.06-0.14,0.22-0.38,0.39-0.36c0.09,0.05-0.03,0.13,0.04,0.28
				C307.306,5.44,307.326,5.43,307.366,5.47z"/>
			<path d="M293.906-0.07c0.06-0.37,0.47-0.35,0.45,0.04c-0.47,9.79-1.92,19.57-4.56,29.01c-0.11,0.39-0.53,0.28-0.46-0.11
				C290.936,19.23,292.476,9.61,293.906-0.07z"/>
			<path d="M279.746,4.1c1.31,7.49,2.02,15.1,1.88,22.7c0,0.32-0.44,0.32-0.47,0.02c-0.91-7.54-1.51-15.08-1.87-22.67
				C279.276,3.86,279.696,3.8,279.746,4.1z"/>
			<path d="M275.066,25.94c0.05,0.23,0.12,0.54-0.04,0.85c-0.13,0.2-0.44-0.14-0.44-0.18c0.04-0.24-0.25-0.63-0.45-1.02
				c-0.2-0.38-0.4-0.77-0.6-1.17c-0.38-0.78-0.73-1.58-1.06-2.39c-0.64-1.63-1.17-3.3-1.58-5.01c-0.04-0.13,0.35-0.29,0.42-0.17
				c0.86,1.53,1.64,3.11,2.3,4.72c0.33,0.81,0.63,1.63,0.9,2.46c0.14,0.42,0.26,0.84,0.38,1.26
				C274.956,25.5,275.016,25.72,275.066,25.94z"/>
			<path d="M269.406,26.86c0.02,0.07-0.34,0.31-0.39,0.27c-1.34-1-2.24-2.31-2.73-3.9c-0.02-0.06,0.33-0.31,0.38-0.26
				C267.946,24,268.926,25.26,269.406,26.86z"/>
		</g>
		<g>
			<path d="M273.991,172.02c0.62,0.84-0.76,1.87-1.44,1.11c-2.43-2.71-1.71-7.18-1.07-10.43c0.25-1.22,1.38-3.81-0.6-1.88
				c-0.92,0.89-1.64,2.02-2.38,3.06c-0.8,1.13-1.53,2.35-2.38,3.46c-0.09,0.12-0.17,0.23-0.24,0.35c-0.27,0.45-0.53,1.03-0.96,1.33
				c-0.02,0.02-0.05,0-0.07,0c-0.49,0.27-1.27,0.01-1.23-0.68c0.09-1.5,0.25-3.32,0.6-4.94c0-0.11,0.01-0.22,0.02-0.33
				c0.01-0.08,0.03-0.19,0.05-0.31c0.01-0.1,0.02-0.2,0.03-0.3v-0.01c0.01-0.05,0.01-0.11,0.02-0.16c0-0.15-0.01-0.29-0.05-0.42
				c-1.52,1.37-2.71,3-3.92,4.66c-0.82,1.14-1.71,2.86-2.98,3.64c-0.41,0.41-0.89,0.65-1.57,0.42c-0.34-0.12-0.59-0.41-0.59-0.78
				c-0.04-2.29,0.01-4.84,0.58-7.18c-0.81,0.91-1.7,1.75-2.43,2.44c-1.91,1.85-4.03,3.55-6.44,4.7c-0.3,0.14-0.66-0.24-0.37-0.49
				c1.9-1.62,3.85-3.15,5.57-4.97c0.97-1.03,1.88-2.11,2.72-3.25c0.65-0.89,1.14-1.87,2.01-2.56c0.09-0.07,0.18-0.1,0.28-0.13
				c0.02-0.02,0.04-0.05,0.07-0.07c0.07-0.04,0.13-0.09,0.2-0.13c0.18-0.12,0.42-0.06,0.57,0.07c0.81,0.74,0.2,2.34,0.06,3.3
				c-0.32,2.18-0.65,4.36-1.02,6.53c1.06-1.55,2.85-4.46,3.13-4.84c1.06-1.36,2.69-3.34,4.43-3.87c1.16-0.35,1.86,0.35,1.89,1.5
				c0.02,1.08-0.35,2.25-0.51,3.33c-0.04,0.25-0.08,0.5-0.11,0.75c0.82-1.4,1.84-2.74,2.74-3.93c0.76-1,2.44-3.39,3.99-3
				c1.43,0.36,1.13,2.33,0.97,3.4C273.071,164.8,271.751,168.95,273.991,172.02z"/>
			<path d="M260.331,153.15c0.32,0.43,0.45,1,0.2,1.63c-0.09,0.24-0.24,0.44-0.41,0.6c-0.15,0.2-0.33,0.38-0.56,0.51
				c-0.82,0.49-1.86,0.26-2.41-0.52c-0.53-0.77-0.4-1.81,0.26-2.47c0.26-0.25,0.56-0.41,0.87-0.49
				C259.081,151.84,259.961,152.36,260.331,153.15z"/>
		</g>
		<path d="M241.687,165.679c1.06,0.17,0.794,2.001-0.26,1.87c-7.742-0.962-12.984-1.52-13.53,0.65c0,1.47-0.21,2.9-0.61,4.09
			c-0.62,1.87-4.24,7.35-6.6,4.36c-1.13-1.42-0.21-3.96,0.54-5.33c1.06-1.92,2.79-3.38,4.76-4.3c-0.3-2.16-1.22-4.01-1.97-6.1
			c-4.47,2.12-8.47,5.05-12.14,8.35c-0.34,2.03-0.69,4.05-1.08,6.04c-0.8,4.04-1.89,9.47-6.65,10.37c-0.5,0.09-1.02-0.14-1.16-0.66
			c-1.51-5.55,1.2-10.72,5-14.66c0.7-0.73,1.43-1.44,2.18-2.13c0.26-1.6,0.55-3.21,0.94-4.78c-1.24,1.87-2.58,3.7-3.85,5.47
			c-1.13,1.57-2.9,3.75-5.12,3.44c-3.29-0.44-2.67-4.57-1.24-8.22c-1.22,1.67-2.43,3.35-3.68,5.02c-1.28,1.73-3.33,4.92-5.9,4.62
			c-2.89-0.33-3.12-3.67-2.32-7.06c-0.26,0.37-0.52,0.73-0.77,1.08c-1.06,1.51-2.22,2.97-3.53,4.27c-0.64,0.63-1.58,1.6-2.59,1.58
			c-0.93,0.34-2-0.23-2.46-1.38c-0.06-0.15-0.08-0.32-0.13-0.47c-1.62,1.27-4.04,1.14-5.18-0.93c-0.84-1.53-1.01-3.18-0.78-4.79
			c-1.08,1.61-2.23,3.18-3.31,4.73c-1.19,1.7-2.97,3.57-5.27,2.81c-2.63-0.87-2.97-4.16-2.47-7.42c-1.04,1.6-2.12,3.17-3.13,4.71
			c-1.17,1.8-2.87,3.77-5.28,3.33c-2.89-0.53-3.58-2.89-3.3-5.47c-0.14,0.2-0.28,0.41-0.42,0.61c-1.22,1.77-2.62,3.8-4.65,4.72
			c-3.57,1.59-5.87-1.32-6.8-4.39c-0.9,0.74-1.87,1.34-2.91,1.7c-0.05,0.14-0.13,0.26-0.25,0.34c-3.18,2.22-5.05-3.02-5.36-5.32
			c-0.17-1.26-0.2-2.79-0.05-4.36c-0.07,0.11-0.14,0.22-0.2,0.34c-1.39,2.5-2.72,5.08-4.26,7.48c-0.67,1.04-1.57,2.2-2.95,2.09
			c-0.19-0.02-0.36-0.06-0.52-0.11c-0.23,0.17-0.54,0.23-0.81,0.07c-2.04-1.26-1.56-5.28-1.29-7.28c0.39-3.02,1.57-5.9,3.4-8.33
			c1.31-1.75,3.81-4.51,6.21-2.87c1.01,0.68,1.42,1.78,1.45,2.93c0.46-0.77,0.96-1.49,1.52-2.14c0.45-0.51,1.24,0.03,1.09,0.63
			c-0.15,0.58-0.37,1.16-0.62,1.73c-0.26,1.76-0.97,3.55-1.17,5.28c-0.32,2.74-0.39,7.51,2.77,8.5c1.21-0.85,2.39-1.84,3.52-2.94
			c-0.53-4.76,0.81-10,2.95-14.21c0.87-1.7,4.21-7.88,6.88-6.58c0.41-0.11,0.91,0.06,1.06,0.54c1.49,4.93-1.87,10.8-4.43,14.82
			c-1.21,1.9-2.69,4.3-4.51,6.25c0.2,1.2,0.58,2.39,1.34,3.21c2.39,2.55,4.72-0.11,6.17-2.04c1.91-2.54,3.12-5.39,4.73-8.1
			c0.5-0.84,1.84-0.28,1.57,0.66c-0.28,1-0.68,1.98-1.16,2.94c-0.3,1.15-0.55,2.31-0.6,3.46c-0.21,0.84-0.29,1.75-0.11,2.54
			c0.2,0.82,0.97,1.67,1.87,1.56c0.15-0.02,0.29-0.06,0.43-0.12c1.33,0.14,2.38-1.44,3.04-2.44c2.28-3.45,4.11-7.34,6.74-10.54
			c0.17-0.21,0.36-0.29,0.55-0.29c0.07-0.03,0.15-0.04,0.22-0.02c1.14,0.44,0.88,1.5,0.69,2.51c-0.27,1.46-0.59,2.91-0.86,4.37
			c-0.28,1.51-0.89,3.26-0.2,4.73c1.6,1.04,2.77,0.87,3.51-0.55c2.41-3.21,4.21-6.89,6.78-9.98c0.66-0.8,1.8,0.23,1.37,1.06
			c-0.21,0.39-0.43,0.79-0.65,1.18c-0.2,1.29-0.41,2.59-0.48,3.87c-0.05,0.85-0.18,2.11,0.28,2.87c1.49,2.5,2.5,1.23,3.64,0.32
			c0.14-1.9,0.86-3.91,1.59-5.34c1.07-2.1,3-4.56,5.56-4.78c1.54-0.14,2.94,0.65,3.38,2c0.64-0.83,1.34-1.61,2.12-2.29
			c0.83-0.73,1.85,0.35,1.19,1.18c-0.17,0.2-0.32,0.41-0.49,0.62c-0.52,2.05-1.39,3.99-1.7,6.11c-0.22,1.49-0.57,2.88,0.58,3.94
			c1.06,0.98,1.17,0.51,2.06-0.39c0.39-0.38,0.74-0.82,1.08-1.24c2.8-3.43,4.77-7.92,8.29-10.71c0.9-0.71,1.99,0.36,1.26,1.25
			c-0.04,0.04-0.07,0.09-0.1,0.13c-0.5,1.8-1.22,3.53-1.72,5.34c-0.25,0.92-1.02,2.97-0.64,3.84c1.07,2.53,2.73,0.3,3.49-0.66
			c2.6-3.32,4.47-7.22,7.19-10.46c0.64-0.76,1.73,0.22,1.31,1.02c-0.19,0.36-0.39,0.73-0.6,1.09c-0.24,2.05-0.51,4.11-0.82,6.18
			c3.42-2.89,7.21-5.41,11.21-7.25c0.79-0.37,1.5,0.38,1.42,1.01c1.61,1.5,2.51,3.84,2.81,6.25
			C232.137,164.859,237.317,164.959,241.687,165.679z M226.057,169.189c0.01-0.05,0-0.1,0.01-0.15c-1.3,0.76-2.41,1.79-3.22,3.23
			c-0.2,0.36-1.12,2.21-0.77,2.73c0.77,1.14,2.34-1.09,2.59-1.47C225.507,172.259,225.947,170.689,226.057,169.189z
			 M204.597,183.569c3.92-1.66,4.42-8.44,5.05-12.2C206.407,174.699,203.777,178.829,204.597,183.569z M189.237,162.169
			c-2.17-3.01-5.38,0.34-6.55,2.54c-0.31,0.6-2.67,7.58-0.46,7.16c0.01,0,0.03,0,0.05,0c1.51-2,3.09-3.93,4.49-6.02
			C187.577,164.649,188.367,163.369,189.237,162.169z M140.247,165.629c4.44-4.98,7.69-11.57,7.51-17.81
			c-1.51,0.6-2.96,3.13-3.62,4.2c-0.8,1.3-1.48,2.69-2.03,4.12C140.957,159.109,140.187,162.429,140.247,165.629z M130.127,157.389
			c0.22-1.2-0.27-1.85-1.5-1.95c-1.62-0.71-1.76-0.35-2.81,0.82c-1.26,1.41-2.25,3.14-2.9,4.9c-0.91,2.48-1.86,6.75-0.52,9.33
			c2.26-0.2,5.5-7.41,6.09-8.5c0.53-0.97,1.02-2.01,1.53-3.05C130.077,158.429,130.117,157.909,130.127,157.389z"/>
		<path d="M111.84,167.344c0.45-0.9,1.8-0.24,1.57,0.67c-0.88,3.56-5.08,7.4-8.48,8.6c-3.23,1.13-6.23,0.03-8.05-2.56
			c-0.98,1.04-2.07,1.96-3.32,2.68c-3.22,1.83-7.55,2.06-8.33-2.37c-0.47-2.67-0.23-5.44,0.11-8.1c0.08-0.65,0.93-5.6,1.13-7.84
			c-0.89,0.61-1.78,1.2-2.59,1.96c-1.11,1.03-2.13,2.17-3.29,3.16c-1.06,0.91-2.42,1.91-3.87,2.4c-0.04,0.17-0.07,0.34-0.1,0.49
			c-0.77,4.29-2.09,8.7-5.01,12.05c-2.5,2.86-5.78,2.72-7.2-1c-0.83-2.17-0.91-4.73-1.05-7.03c-0.03-0.5-0.06-1.01-0.08-1.52
			c-0.53,2.48-1.15,4.94-1.94,7.34c-0.46,1.45-1.32,4.5-3.01,5.28c-0.05,0.24-0.21,0.47-0.49,0.58c-5.31,2.02-3.13-13.3-2.29-15.45
			c0.65-1.64,2.19-4.8,4.49-3.75c1.31,0.6,1.9,2.25,2.16,3.87c0.29-1.49,0.55-2.99,0.77-4.49c0.09-0.62,0.72-0.65,1.12-0.35
			c0.11,0.03,0.21,0.09,0.23,0.23c0,0.02,0,0.05,0.01,0.07c0.06,0.13,0.1,0.27,0.07,0.44c0,0.04-0.01,0.07-0.02,0.11
			c0.35,3,0.33,6.06,0.66,9.08c0.18,1.58,0.29,3.27,0.85,4.78c0.6,1.61,2.15,2.51,3.95,1.09c0.6-0.48,1.1-1.26,1.52-1.89
			c1.61-2.41,2.52-5.19,3.15-7.99c0.11-0.48,0.24-1.04,0.38-1.63c-0.42,0-0.85-0.06-1.27-0.2c-4.34-1.45-4.08-10.2,0.2-9.55
			c0.14-0.06,0.29-0.08,0.47-0.04c3.34,0.8,3.24,4.46,2.77,7.52c1.23-0.6,2.31-1.64,3.25-2.55c1.86-1.8,3.95-4.65,6.65-5.18
			c0.63-0.12,1.32,0.68,0.81,1.2c0.22,1.18,0.09,2.93,0.06,3.19c-0.18,2.19-0.55,4.37-0.76,6.56c-0.19,2.07-0.62,5,0.05,7.02
			c1.47,4.37,5.95,0.88,8.72-2.16c-1.56-3.81-1.5-8.4-0.29-12.27c0.55-1.75,2.53-6.69,4.98-5.54c0.24-0.11,0.51-0.13,0.77,0
			c3.88,1.94,1.29,9.16,0.2,12.05c-0.82,2.19-1.94,4.38-3.38,6.29C102.08,179.214,109.67,171.704,111.84,167.344z M97.92,169.404
			c1.62-2.77,5.45-11.04,2.31-13.77c-0.04-0.04-0.07-0.09-0.1-0.13c-2.63,0.67-3.56,7.23-3.65,9.07c-0.09,1.91,0.08,4.01,0.7,5.91
			C97.5,170.054,97.76,169.684,97.92,169.404z M75.27,164.484c0.47-2.58,0.54-5.38-1.6-6.57c-0.1-0.05-0.17-0.12-0.23-0.19
			c-1.33,0.91-1.94,2.31-1.46,4.1C72.43,163.474,73.51,164.584,75.27,164.484z M60.75,173.224c0.34-1.29,0.64-2.58,0.93-3.88
			c-0.24-1.7-0.87-5.8-3.6-4.29c-1,0.55-1.51,3.36-1.73,4.45c-0.3,1.54-1.63,11.12,1.3,11.21c0.01,0,0.01,0,0.02,0
			c0.58-0.86,1.3-1.61,1.69-2.67C59.94,176.484,60.33,174.834,60.75,173.224z"/>
		<g>
			<path d="M303.796,40.79c0,0.01,0,0.01,0,0.02l-0.03,0.13l-0.1,0.53l-0.21,1.05c-0.13,0.7-0.27,1.4-0.4,2.09
				c-0.27,1.39-0.54,2.76-0.81,4.13c-0.52,2.66-1.09,5.3-1.73,7.99c0.02,0.05,0.03,0.09,0.01,0.12l-0.07,0.13
				c0,0.01,0,0.02-0.01,0.03l-0.15,0.29l-0.21,0.41l-0.73-0.51l-0.02-0.26c-0.29-2.91-0.1-5.86,0.52-8.7
				c0.32-1.43,0.74-2.83,1.27-4.19c0.26-0.68,0.55-1.35,0.87-2.01c0.16-0.33,0.32-0.65,0.48-0.97c-12.31-0.62-24.49-1.56-36.77-2.73
				c-0.11-0.01-0.19-0.06-0.25-0.13l-0.8-0.01c0.2-0.52,0.52-0.63,0.69-0.36c0.02-0.2,0.13-0.4,0.37-0.41
				c12.49-0.74,25.1,0.02,37.33,2.7c0.06-0.05,0.13-0.1,0.24-0.14c0.04-0.02,0.1-0.03,0.18-0.03c0.05,0,0.03,0,0.04,0l0.05,0.01
				l0.07,0.01c0.2,0.04,0.36,0.28,0.35,0.4c0.02,0.16-0.02,0.24-0.08,0.31C303.866,40.72,303.836,40.75,303.796,40.79z"/>
			<path fill="#65C8D0" d="M276.476,90.07c0,0,0-0.01-0.01,0c0-0.03-0.01-0.07-0.05-0.11c-0.15-0.16-0.49-0.11-0.61,0.05
				c-0.04,0.06-0.08,0.12-0.11,0.19c-0.08,0.04-0.15,0.1-0.19,0.2c-0.05,0.15-0.1,0.29-0.15,0.44c-3.88,11.51-6.44,23.44-7.48,35.54
				c0,0.04-0.01,0.08-0.01,0.12c-0.01,0.14,0.05,0.25,0.14,0.33c-0.04,0.24-0.03,0.54,0.08,0.58c2.32,0.75,4.61,1.38,6.92,1.87
				c1.16,0.24,2.32,0.45,3.5,0.63c0.59,0.08,1.18,0.17,1.78,0.24c0.35,0.03,0.77,0.09,1.21,0.08c-1.61,4.59-2.71,9.1-3.26,13.96
				c-0.01,0.08,0.12,0.17,0.27,0.24l-0.12,0.08c-0.02-0.01-0.06-0.03-0.12-0.1c-0.01-0.03-0.05-0.07-0.07-0.1
				c0-0.01-0.01-0.02-0.01-0.02h-0.04c-0.04,0-0.08,0-0.12-0.01c-0.04,0-0.13-0.05-0.3-0.11l-0.91-0.32l-1.83-0.63
				c-1.23-0.4-2.46-0.78-3.7-1.13c-2.48-0.71-4.98-1.32-7.51-1.84c-4.89-1.01-9.86-1.67-14.85-2.04c0.03-0.08,0.05-0.14,0.07-0.24
				c6.53-32.87,11.86-66,16.45-99.23c0.03-0.22,0.03-0.38,0.01-0.53c0.06,0.07,0.14,0.12,0.25,0.13
				c12.28,1.17,24.46,2.11,36.77,2.73c-0.16,0.32-0.32,0.64-0.48,0.97c-0.32,0.66-0.61,1.33-0.87,2.01
				c-0.53,1.36-0.95,2.76-1.27,4.19c-0.62,2.84-0.81,5.79-0.52,8.7l0.02,0.26c-2.94-0.58-5.88-0.96-8.82-1.09
				c-1.57-0.08-3.14-0.08-4.71-0.02c-0.79,0.03-1.58,0.07-2.37,0.14c-0.39,0.03-0.79,0.07-1.19,0.1l-0.46,0.05v-0.62l-0.71,0.31
				c-0.21,0.09-0.35,0.29-0.38,0.45c-0.01,0.04,0,0.07-0.01,0.11c-0.03,0.06-0.04,0.13-0.03,0.22c-1.77,5.31-2.67,10.83-2.56,16.45
				c0.01,0.16,0.43,0.27,0.71,0.24c0.08,0.02,0.16,0.05,0.24,0.06c4.95,1.41,10.06,1.98,15.2,1.64c-1.94,4.77-2.92,9.83-2.81,14.98
				l-0.31-0.03c-0.34-0.03-0.68-0.06-1.02-0.1c-0.68-0.05-1.35-0.1-2.01-0.16c-1.34-0.08-2.68-0.14-4.02-0.16
				c-1.33-0.02-2.67,0-4.01,0.05c-0.67,0.04-1.34,0.08-2.02,0.11c-0.34,0.03-0.68,0.05-1.02,0.08l-0.51,0.04
				C276.496,90.06,276.486,90.06,276.476,90.07z"/>
			<path d="M300.086,57.71c0.01,0.24-0.05,0.49-0.19,0.5c-0.02,0.01-0.05,0.01-0.07,0.01l-0.31,0.6l-0.05-0.57
				c-3.01,0.29-6.04,0.41-9.05,0.3c-1.57-0.06-3.15-0.18-4.72-0.36c-0.78-0.1-1.57-0.21-2.35-0.34c-0.38-0.07-0.77-0.13-1.17-0.2
				l-0.4-0.08c-0.11,5.1-0.81,10.07-2.41,14.92l-0.3,1.11c-0.08-0.01-0.16-0.04-0.24-0.06c-0.28,0.03-0.7-0.08-0.71-0.24
				c-0.11-5.62,0.79-11.14,2.56-16.45c-0.01-0.09,0-0.16,0.03-0.22c0.01-0.04,0-0.07,0.01-0.11c0.03-0.16,0.17-0.36,0.38-0.45
				l0.71-0.31v0.62l0.46-0.05c0.4-0.03,0.8-0.07,1.19-0.1c0.79-0.07,1.58-0.11,2.37-0.14c1.57-0.06,3.14-0.06,4.71,0.02
				c2.94,0.13,5.88,0.51,8.82,1.09L300.086,57.71z"/>
			<path d="M276.426,90.21c-0.03,0.03-0.04,0.05-0.07,0.07c-0.02,0.02-0.03,0.03-0.05,0.04c0.02,0.02,0.02,0.04,0.03,0.05
				c0.01,0,0.02-0.02,0.04-0.04C276.396,90.3,276.416,90.26,276.426,90.21z M295.196,74.38c0.16,0.06,0.3,0.14,0.29,0.24
				c-0.38,5.52-1.21,10.86-2.94,16.12c0.06,0.15,0.01,0.32-0.09,0.38c-0.01,0.01-0.02,0-0.03,0c-0.01,0.02-0.01,0.03-0.02,0.05
				c-0.04,0.12-0.32,0.13-0.56,0.08c-0.03,0.07-0.02,0.02-0.04,0.04c-0.04,0.01,0,0.02-0.08,0.04l-0.5,0.11l-1.01,0.21
				c-0.68,0.12-1.36,0.23-2.04,0.31c-1.36,0.17-2.73,0.26-4.11,0.26c-1.37-0.01-2.74-0.1-4.1-0.3c-0.68-0.09-1.35-0.21-2.03-0.36
				c-0.33-0.07-0.67-0.15-1-0.24l-0.5-0.13c-0.04-0.01-0.09-0.03-0.14-0.04l-0.94-0.31c0.05-0.15,0.1-0.29,0.15-0.44
				c0.04-0.1,0.11-0.16,0.19-0.2c0.03-0.07,0.07-0.13,0.11-0.19c0.12-0.16,0.46-0.21,0.61-0.05c0.04,0.04,0.05,0.08,0.05,0.11
				c0.01-0.01,0.01,0,0.01,0c0.01-0.01,0.02-0.01,0.06-0.02l0.51-0.04c0.34-0.03,0.68-0.05,1.02-0.08c0.68-0.03,1.35-0.07,2.02-0.11
				c1.34-0.05,2.68-0.07,4.01-0.05c1.34,0.02,2.68,0.08,4.02,0.16c0.66,0.06,1.33,0.11,2.01,0.16c0.34,0.04,0.68,0.07,1.02,0.1
				l0.31,0.03c-0.11-5.15,0.87-10.21,2.81-14.98c-5.14,0.34-10.25-0.23-15.2-1.64l0.3-1.11c5.35-0.23,10.57,0.21,15.73,1.76
				C295.136,74.27,295.166,74.32,295.196,74.38z"/>
			<path d="M282.556,129.89c0.21,5.08-0.82,10.19-3.42,14.6c-0.03,0.05-0.1,0.06-0.19,0.06l-0.56-0.04l0.12-0.08
				c-0.15-0.07-0.28-0.16-0.27-0.24c0.55-4.86,1.65-9.37,3.26-13.96c-0.44,0.01-0.86-0.05-1.21-0.08c-0.6-0.07-1.19-0.16-1.78-0.24
				c-1.18-0.18-2.34-0.39-3.5-0.63c-2.31-0.49-4.6-1.12-6.92-1.87c-0.11-0.04-0.12-0.34-0.08-0.58c-0.09-0.08-0.15-0.19-0.14-0.33
				c0-0.04,0.01-0.08,0.01-0.12l0.97,0.09c2.24-0.13,4.48-0.02,6.66,0.41c1.2,0.24,2.38,0.57,3.53,0.99
				c0.58,0.21,1.15,0.45,1.7,0.71c0.58,0.26,1.01,0.52,1.45,0.58c0.08,0.01,0.23,0.34,0.26,0.61
				C282.506,129.81,282.556,129.84,282.556,129.89z"/>
			<path d="M278.946,144.55c0.03,0.15-0.01,0.38-0.16,0.48c-0.27,0.22-0.48,0.26-0.72,0.3c-0.27,0.03-0.49-0.04-0.63-0.06
				l-0.95-0.15l-1.9-0.31c-1.26-0.23-2.53-0.45-3.78-0.67c-2.52-0.47-5.03-0.97-7.53-1.5c-5.01-1.06-9.98-2.25-14.96-3.57
				c-0.19-0.05-0.26-0.28-0.23-0.5c-0.02-0.08-0.04-0.19-0.05-0.32l0.89-0.04c4.99,0.37,9.96,1.03,14.85,2.04
				c2.53,0.52,5.03,1.13,7.51,1.84c1.24,0.35,2.47,0.73,3.7,1.13l1.83,0.63l0.91,0.32c0.17,0.06,0.26,0.11,0.3,0.11
				c0.04,0.01,0.08,0.01,0.12,0.01h0.04c0,0,0.01,0.01,0.01,0.02c0.02,0.03,0.06,0.07,0.07,0.1c0.06,0.07,0.1,0.09,0.12,0.1
				L278.946,144.55z"/>
			<path d="M275.356,90.84l0.94,0.31c-2.06,11.89-4.39,23.65-7.45,35.32l-0.97-0.09C268.916,114.28,271.476,102.35,275.356,90.84z"
				/>
			<path d="M265.456,38.21c0.02,0.15,0.02,0.31-0.01,0.53c-4.59,33.23-9.92,66.36-16.45,99.23c-0.02,0.1-0.04,0.16-0.07,0.24
				l-0.89,0.04c-0.01-0.12,0-0.27,0.02-0.43c4.45-33.22,9.99-66.34,16.49-99.23c0.03-0.15,0.07-0.28,0.11-0.39L265.456,38.21z"/>
			<path d="M245.456,121.41c0.07,0.05,0.1,0.11,0.09,0.16c-0.62,2.8-1.18,5.56-1.99,8.3c-0.81,2.73-1.87,5.45-3.43,7.94
				c-0.02,0.04-0.09,0.06-0.16,0.06l-0.68-0.59c0.54-2.75,1.11-5.45,1.93-8.12c0.78-2.55,1.81-5.07,3.2-7.41
				c-0.5-0.02-0.97-0.09-1.4-0.14c-0.7-0.07-1.4-0.16-2.1-0.26c-1.38-0.21-2.75-0.48-4.1-0.81c-2.68-0.69-5.37-1.54-8-2.65
				c-0.2-0.08-0.03-0.9,0.2-0.89c0.26,0.02,0.52,0.04,0.79,0.06l0.2,0.01c2.5,0.18,4.96,0.5,7.39,1.09
				c1.38,0.33,2.74,0.71,4.08,1.16c0.67,0.22,1.34,0.46,1.99,0.72c0.67,0.28,1.23,0.59,1.82,0.71
				C245.406,120.77,245.486,121.14,245.456,121.41z"/>
			<path fill="#65C8D0" d="M243.016,121.61c0.43,0.05,0.9,0.12,1.4,0.14c-1.39,2.34-2.42,4.86-3.2,7.41
				c-0.82,2.67-1.39,5.37-1.93,8.12c-9.4-2.25-18.79-3.87-28.21-5.93c0.03-0.1,0.05-0.21,0.06-0.34c3.08-32.21,4.5-64.61,5.35-96.98
				c0-0.14-0.01-0.26-0.02-0.37c1.35-0.23,2.74-0.02,4.23,0.06c1.51,0.11,3.03,0.18,4.54,0.22c2.86,0.08,5.73,0.03,8.65-0.13
				c-0.01,0.06-0.02,0.12-0.02,0.19c0.18,13.72-0.85,27.38-1.9,41.07c-1.07,13.7-1.92,27.43-2.48,41.15
				c-0.02,0.47,0.13,0.75,0.32,0.84c-0.27-0.02-0.53-0.04-0.79-0.06c-0.23-0.01-0.4,0.81-0.2,0.89c2.63,1.11,5.32,1.96,8,2.65
				c1.35,0.33,2.72,0.6,4.1,0.81C241.616,121.45,242.316,121.54,243.016,121.61z"/>
			<path d="M239.286,137.28l0.68,0.59c-0.02,0.23-0.15,0.46-0.36,0.46c-9.94-0.23-19.89-2.16-29.06-6.17
				c-0.13-0.05-0.18-0.2-0.17-0.36c-0.05-0.08-0.1-0.18-0.13-0.31l0.83-0.14C220.496,133.41,229.886,135.03,239.286,137.28z"/>
			<path d="M234.776,33.96c1.15,13.75,0.65,27.59-0.37,41.31c-1.04,13.71-2.37,27.38-3.98,41.03c-0.05,0.47-0.23,0.71-0.42,0.77
				l-0.2-0.01c-0.19-0.09-0.34-0.37-0.32-0.84c0.56-13.72,1.41-27.45,2.48-41.15c1.05-13.69,2.08-27.35,1.9-41.07
				c0-0.07,0.01-0.13,0.02-0.19c-2.92,0.16-5.79,0.21-8.65,0.13c-1.51-0.04-3.03-0.11-4.54-0.22c-1.49-0.08-2.88-0.29-4.23-0.06
				l-0.77-0.22c0.06-0.15,0.13-0.25,0.21-0.31c-0.02-0.13-0.01-0.25,0.07-0.3c1.49-0.83,3.18-0.97,4.68-1.14
				c1.54-0.15,3.09-0.22,4.64-0.19c3.1,0.05,6.19,0.48,9.18,1.35c0.13,0.04,0.16,0.29,0.13,0.52
				C234.696,33.5,234.756,33.69,234.776,33.96z"/>
			<path d="M216.466,33.66c0.01,0.11,0.02,0.23,0.02,0.37c-0.85,32.37-2.27,64.77-5.35,96.98c-0.01,0.13-0.03,0.24-0.06,0.34
				l-0.83,0.14c-0.04-0.14-0.07-0.32-0.06-0.53c0.98-32.36,2.61-64.71,5.39-96.96c0.02-0.23,0.06-0.41,0.12-0.56L216.466,33.66z"/>
			<path d="M199.666,47.41c1.73,26.25,1.13,52.67-1.62,78.8c-0.05,0.57-0.31,0.8-0.54,0.76l-0.37-0.47
				c-0.02-0.1-0.03-0.22-0.03-0.35c0.64-26.25,1.44-52.46,1.65-78.71c0-0.08,0.02-0.13,0.02-0.2c-0.01,0-0.02-0.01-0.03-0.02
				c-5.97,1.06-12.04,0.93-17.98-0.3l-0.84-0.12c0.06-0.26,0.19-0.42,0.32-0.47c0.02-0.2,0.09-0.38,0.21-0.39
				c6.28-0.57,12.45-0.67,18.71,0.17l0.45,0.06l0.09,0.38c0.04,0.15-0.02,0.34-0.11,0.47C199.626,47.13,199.656,47.25,199.666,47.41
				z"/>
			<path d="M198.906,28.08c0.7,3.65,0.71,7.27-0.44,10.83l-0.13-0.07c0.05,0.1,0.08,0.19,0.05,0.23l-0.13,0.18
				c-0.02,0.05-0.04,0.09-0.08,0.1c0,0,0,0-0.01,0.01l-0.54,0.7l-0.11-0.48c-1.29,0.42-2.61,0.57-3.86,0.75
				c-1.49,0.18-2.98,0.3-4.47,0.35c-2.86,0.11-5.75-0.04-8.63-0.4l0.12-1.04c2.8-0.52,5.61-0.87,8.42-1
				c1.49-0.07,2.99-0.08,4.48-0.01c1.28,0.03,2.51,0.19,3.71,0.2c-0.66-3.36-0.43-6.7,0.58-9.98l0.86-0.47
				C198.826,28,198.896,28.03,198.906,28.08z"/>
			<path fill="#65C8D0" d="M198.746,47.22c0.01,0.01,0.02,0.02,0.03,0.02c0,0.07-0.02,0.12-0.02,0.2
				c-0.21,26.25-1.01,52.46-1.65,78.71c0,0.13,0.01,0.25,0.03,0.35c-5.42-0.4-10.56,0.41-15.82,0.97
				c0.2-26.78-0.14-53.56-0.53-80.37c0-0.07-0.01-0.12-0.02-0.18C186.706,48.15,192.776,48.28,198.746,47.22z"/>
			<path d="M198.586,27.52c0.12,0.04,0.16,0.25,0.14,0.46l-0.86,0.47c-6.25,0.16-12.26,0.5-18.5,0.66c0.01,0.04,0.03,0.09,0.04,0.12
				c0.08,0.24,0.15,0.47,0.23,0.71c0.15,0.46,0.28,0.93,0.4,1.4c0.25,0.94,0.44,1.89,0.56,2.85c0.13,0.95,0.2,1.92,0.2,2.89
				c0,0.48-0.02,0.97-0.06,1.46c-0.02,0.23-0.04,0.46-0.06,0.7l-0.12,1.04c-0.03,0-0.05-0.01-0.08-0.01
				c-0.16,0.06-0.31,0.07-0.47,0.03c-0.05-0.02-0.1-0.04-0.17-0.09c-0.02-0.01-0.02-0.01-0.03-0.01l-0.07-0.06
				c-0.06-0.06-0.12-0.12-0.15-0.18c-0.16-0.26-0.17-0.43-0.22-0.52c-0.08-0.24-0.17-0.47-0.25-0.7c-0.15-0.47-0.29-0.94-0.41-1.41
				c-0.25-0.94-0.42-1.89-0.54-2.85c-0.11-0.96-0.16-1.92-0.14-2.89c0.01-0.49,0.03-0.98,0.07-1.47c0.02-0.24,0.04-0.49,0.07-0.73
				l0.04-0.39c0.01-0.1-0.01-0.24,0.13-0.47c0.04-0.05,0.08-0.1,0.14-0.15c0.02-0.09,0.05-0.16,0.12-0.18
				C184.976,25.93,192.056,25.73,198.586,27.52z"/>
			<path d="M197.506,126.97c0.02,0.22-0.01,0.44-0.12,0.48c-2.67,0.83-5.39,1.41-8.16,1.62c-2.69,0.2-5.44,0.06-8.11-0.59
				c-0.27,0.3-0.7,0.08-0.75-0.67c-1.91-26.84-2.03-53.85-0.49-80.72c0.01-0.11,0.02-0.21,0.05-0.29l0.84,0.12
				c0.01,0.06,0.02,0.11,0.02,0.18c0.39,26.81,0.73,53.59,0.53,80.37c5.26-0.56,10.4-1.37,15.82-0.97L197.506,126.97z"/>
			<path fill="#65C8D0" d="M197.866,28.45c-1.01,3.28-1.24,6.62-0.58,9.98c-1.2-0.01-2.43-0.17-3.71-0.2
				c-1.49-0.07-2.99-0.06-4.48,0.01c-2.81,0.13-5.62,0.48-8.42,1c0.02-0.24,0.04-0.47,0.06-0.7c0.04-0.49,0.06-0.98,0.06-1.46
				c0-0.97-0.07-1.94-0.2-2.89c-0.12-0.96-0.31-1.91-0.56-2.85c-0.12-0.47-0.25-0.94-0.4-1.4c-0.08-0.24-0.15-0.47-0.23-0.71
				c-0.01-0.03-0.03-0.08-0.04-0.12C185.606,28.95,191.616,28.61,197.866,28.45z"/>
			<path d="M173.866,127.08c0.22,0.12,0.44,0.32,0.35,0.49c-0.56,0.93-1.57,1.25-2.36,1.48c-0.8,0.23-1.57,0.42-2.36,0.6
				c-1.58,0.35-3.17,0.61-4.77,0.79c-3.2,0.36-6.44,0.38-9.67,0.06c-0.04,0-0.07-0.02-0.09-0.05c-0.24,0.26-0.69,0.14-0.79-0.39
				c-3.4-18.62-5.77-37.45-7.22-56.33l1.04-0.18c3.22,18.58,5.72,37.23,7.09,56.02c3.13-0.64,6.24-1.18,9.37-1.56
				c1.57-0.19,3.16-0.34,4.75-0.45c0.79-0.05,1.6-0.09,2.38-0.11c0.75-0.04,1.43-0.09,1.87-0.45L173.866,127.08z"/>
			<path d="M174.136,126.08c0.11,0.62-0.05,0.96-0.27,1l-0.41-0.08c0.03-0.02,0.08-0.02,0.14-0.01c-0.15-0.12-0.3-0.35-0.38-0.72
				c-3.65-14.82-5.56-30.02-7.11-45.16c-1.54-15.15-2.74-30.3-4.98-45.33c-0.02-0.14-0.03-0.27-0.02-0.38l0.72-0.3
				c0.08,0.13,0.15,0.29,0.19,0.51c3.21,14.93,4.95,30.13,6.53,45.26S171.546,111.11,174.136,126.08z"/>
			<path fill="#65C8D0" d="M173.596,126.99c-0.06-0.01-0.11-0.01-0.14,0.01c-0.44,0.36-1.12,0.41-1.87,0.45
				c-0.78,0.02-1.59,0.06-2.38,0.11c-1.59,0.11-3.18,0.26-4.75,0.45c-3.13,0.38-6.24,0.92-9.37,1.56
				c-1.37-18.79-3.87-37.44-7.09-56.02c-0.08-0.5-0.17-1.01-0.26-1.51c-0.06-0.36-0.29-0.52-0.5-0.51
				c-0.22-0.18-0.63-0.22-0.73,0.01c-3.89,8.83-6.3,18.29-6.99,27.91c-2.35-0.33-4.69-0.12-6.92,0.3c-2.15,0.4-4.21,1.02-6.31,1.59
				c-0.08-0.04-0.17-0.03-0.27,0c-3.65-6.3-7.93-12.07-12.58-17.69c-0.12-0.14-0.43-0.02-0.62,0.15c-0.24-0.02-0.5,0.16-0.5,0.52
				c0,0.42,0,0.85,0.01,1.27c0.03,8.12,0.28,16.21,0.76,24.3c0.26,4.26,0.58,8.51,0.97,12.76c0.21,2.12,0.42,4.24,0.63,6.36
				l0.35,3.18l0.19,1.59l0.09,0.79l0.05,0.41c0.01,0.01,0.01,0.03,0.01,0.04c-0.45,0.22-1,0.29-1.59,0.32
				c-0.81,0.04-1.61,0.07-2.41,0.1c-1.62,0.09-3.23,0.22-4.84,0.39c-3.13,0.33-6.24,0.82-9.36,1.39c0.01-0.11,0.02-0.25,0.01-0.4
				c-1.77-30.62-4.73-61.18-8.45-91.65c-0.01-0.12-0.04-0.2-0.06-0.29c6.99,0.3,13.84-0.35,20.68-1.7c0,0.03,0,0.07,0.02,0.11
				c2.76,6.65,5.86,13.15,9.3,19.48c1.72,3.16,3.52,6.27,5.41,9.34c0.94,1.53,1.9,3.05,2.89,4.56l1.49,2.25l0.76,1.11l0.19,0.28
				c0.08,0.1,0.09,0.15,0.25,0.35c0.16,0.15,0.33,0.27,0.6,0.3c0.08,0.01,0.16,0.01,0.25-0.02c0.07-0.01,0.14-0.04,0.2-0.07
				c0.03-0.02,0.04-0.03,0.07-0.05c0.26,0.14,0.65,0.04,0.7-0.34c2.04-14.18,3.7-28.3,5.49-42.52c8.14,0.15,16.17-0.85,24.13-2.56
				c-0.01,0.11,0,0.24,0.02,0.38c2.24,15.03,3.44,30.18,4.98,45.33c1.55,15.14,3.46,30.34,7.11,45.16
				C173.296,126.64,173.446,126.87,173.596,126.99z"/>
			<path d="M161.566,34.38c0.23,0.01,0.35,0.46,0.26,0.72l-0.72,0.3c-7.96,1.71-15.99,2.71-24.13,2.56l-0.89-0.21
				c0.06-0.25,0.27-0.35,0.47-0.33c0-0.19,0.06-0.37,0.2-0.4C144.906,35.09,153.186,34.25,161.566,34.38z"/>
			<path d="M147.736,72.04c0.09,0.5,0.18,1.01,0.26,1.51l-1.04,0.18c-1.93,8.77-3.95,17.41-6.52,26.03
				c-0.06,0.2-0.31,0.25-0.54,0.19l-0.38-0.5c0.69-9.62,3.1-19.08,6.99-27.91c0.1-0.23,0.51-0.19,0.73-0.01
				C147.446,71.52,147.676,71.68,147.736,72.04z"/>
			<path d="M139.896,99.95c0.01,0.22-0.03,0.44-0.11,0.47c-2.26,0.67-4.45,1.33-6.76,1.74c-2.27,0.39-4.66,0.56-7.05,0.22
				c-0.03,0.02-0.05,0.04-0.08,0.05l-0.29,0.13l-0.29-0.3c-4.89-4.86-8.89-10.51-11.94-16.68l-1.05,0.01
				c-0.01-0.42-0.01-0.85-0.01-1.27c0-0.36,0.26-0.54,0.5-0.52c0.19-0.17,0.5-0.29,0.62-0.15c4.65,5.62,8.93,11.39,12.58,17.69
				c0.1-0.03,0.19-0.04,0.27,0c2.1-0.57,4.16-1.19,6.31-1.59c2.23-0.42,4.57-0.63,6.92-0.3L139.896,99.95z"/>
			<path d="M130.436,80.32h-0.01V80c0.01-0.01,0.01-0.02,0.02-0.03l-0.05-0.14c0.02-0.01,0.04-0.02,0.07-0.03
				c0.03,0,0.06,0,0.08,0.01c-0.01-14.18,1.89-28.37,5.54-42.06l0.89,0.21c-1.79,14.22-3.45,28.34-5.49,42.52
				c-0.05,0.38-0.44,0.48-0.7,0.34c-0.03,0.02-0.04,0.03-0.07,0.05c-0.06,0.03-0.13,0.06-0.2,0.07l-0.1-0.61
				C130.426,80.32,130.426,80.32,130.436,80.32z"/>
			<path d="M130.376,80.24c0.01-0.03,0.02-0.04,0.02-0.05c-0.01-0.01-0.01-0.01-0.02-0.02C130.366,80.2,130.376,80.22,130.376,80.24
				z M130.416,80.33l0.1,0.61c-0.09,0.03-0.17,0.03-0.25,0.02c-0.27-0.03-0.44-0.15-0.6-0.3c-0.16-0.2-0.17-0.25-0.25-0.35
				l-0.19-0.28l-0.76-1.11l-1.49-2.25c-0.99-1.51-1.95-3.03-2.89-4.56c-1.89-3.07-3.69-6.18-5.41-9.34
				c-3.44-6.33-6.54-12.83-9.3-19.48c-0.02-0.04-0.02-0.08-0.02-0.11l0.22-0.46c0.2-0.11,0.46-0.1,0.61,0.16
				c3.63,6.21,7.19,12.44,10.64,18.72c1.72,3.14,3.42,6.3,5.09,9.47c0.82,1.59,1.64,3.18,2.47,4.78l1.22,2.4l0.6,1.21l0.15,0.3
				l0.04,0.07l0.05,0.14c-0.01,0.01-0.01,0.02-0.02,0.03v0.32c-0.01,0-0.01,0-0.02,0C130.416,80.32,130.416,80.33,130.416,80.33z"/>
			<path d="M116.446,135.03c0.07,0.1,0.16,0.19,0.09,0.44c-0.02,0.06-0.07,0.14-0.16,0.21c-0.04,0.03-0.13,0.07-0.2,0.09
				c-0.01,0-0.02,0-0.03,0c-0.57,0.62-1.37,0.97-2.07,1.18c-0.86,0.24-1.62,0.41-2.44,0.58c-1.61,0.33-3.23,0.58-4.86,0.73
				c-3.27,0.32-6.57,0.29-9.86-0.07c-0.12-0.02-0.19-0.21-0.21-0.42c-0.15-0.05-0.3-0.21-0.4-0.51l0.87-0.04
				c3.12-0.57,6.23-1.06,9.36-1.39c1.61-0.17,3.22-0.3,4.84-0.39c0.8-0.03,1.6-0.06,2.41-0.1c0.59-0.03,1.14-0.1,1.59-0.32
				c0-0.01,0-0.03-0.01-0.04l-0.05-0.41l-0.09-0.79l-0.19-1.59l-0.35-3.18c-0.21-2.12-0.42-4.24-0.63-6.36
				c-0.39-4.25-0.71-8.5-0.97-12.76c-0.48-8.09-0.73-16.18-0.76-24.3l1.05-0.01c0.9,8.04,1.64,16.1,2.16,24.17
				c0.27,4.25,0.48,8.51,0.62,12.77c0.07,2.13,0.12,4.26,0.16,6.39l0.04,3.2v1.6l0.01,0.8v0.39v0.05
				C116.396,134.98,116.426,135,116.446,135.03z"/>
			<path d="M109.576,42.72l-0.22,0.46c-6.84,1.35-13.69,2-20.68,1.7c0.02,0.09,0.05,0.17,0.06,0.29
				c3.72,30.47,6.68,61.03,8.45,91.65c0.01,0.15,0,0.29-0.01,0.4l-0.87,0.04c-0.03-0.1-0.05-0.22-0.07-0.35
				c-3.87-30.43-6.62-61.03-8.41-91.66c-0.03-0.59,0.16-0.92,0.37-0.94c0.01-0.17,0.06-0.32,0.17-0.35
				c6.87-1.6,13.9-2.47,20.98-1.73C109.496,42.24,109.576,42.48,109.576,42.72z"/>
			<path d="M87.476,100.05c2.22,6.37,2.57,13.34,1.08,19.91c-0.76,3.28-2.05,6.51-4.03,9.3c-1.95,2.81-4.46,5.13-7.18,7.08
				c-5.49,3.84-11.78,6.33-18.28,7.53c-6.51,1.2-13.24,1.11-19.64-0.38c-1.56-0.38-1.8-0.9-1.06-1.01c0.28-0.04,0.7-0.03,1.25,0.08
				c6.33,1.21,12.88,1.05,19.13-0.29c6.24-1.34,12.26-3.9,17.37-7.64c2.53-1.88,4.82-4.09,6.55-6.66c1.75-2.55,2.9-5.49,3.58-8.55
				c1.34-6.13,0.98-12.65-1.09-18.58c-2.01-5.96-5.86-11.2-11.04-14.79c-5.15-3.66-11.23-5.97-17.3-8.22
				c-1.54-0.56-3.12-1.17-4.62-2.05c-1.48-0.87-2.96-2.07-3.77-3.81c-0.84-1.72-0.73-3.79-0.01-5.44c0.69-1.68,1.95-3.06,3.36-4.04
				c1.42-1.01,2.97-1.7,4.53-2.27c1.55-0.57,3.15-1.04,4.78-1.37c3.24-0.67,6.57-0.86,9.85-0.55c0.25,0.03,0.47,0.07,0.65,0.11
				l0.07,0.8c-0.21,0.01-0.46,0.03-0.78,0c-3.2-0.18-6.42,0.12-9.53,0.87c-1.55,0.37-3.07,0.86-4.54,1.46
				c-1.48,0.59-2.9,1.29-4.12,2.21c-1.22,0.91-2.19,2.07-2.71,3.42c-0.52,1.35-0.54,2.81,0.09,4.03c0.61,1.23,1.78,2.18,3.1,2.92
				c1.34,0.74,2.81,1.28,4.34,1.81c6.14,2.13,12.43,4.38,17.97,8.22C81.056,87.93,85.326,93.68,87.476,100.05z"/>
			<path fill="#65C8D0" d="M85.156,100.84c2.07,5.93,2.43,12.45,1.09,18.58c-0.68,3.06-1.83,6-3.58,8.55
				c-1.73,2.57-4.02,4.78-6.55,6.66c-5.11,3.74-11.13,6.3-17.37,7.64c-6.25,1.34-12.8,1.5-19.13,0.29
				c-0.55-0.11-0.97-0.12-1.25-0.08l-0.01-0.06c0.12-0.06,0.22-0.13,0.22-0.21c-0.2-5.71-0.72-11.14-1.67-16.76
				c0.26,0.05,0.59,0.08,1.03,0.06c6.79-0.22,13.75,0.7,20.67-0.9c3.42-0.78,6.8-2.22,9.56-4.62c2.69-2.42,4.67-5.74,5.12-9.47
				c0.24-1.85,0.01-3.79-0.66-5.56c-0.69-1.77-1.79-3.32-3.08-4.63c-2.62-2.63-6-4.2-9.3-5.33c-3.33-1.12-6.61-2.02-9.9-3.02
				l-4.94-1.47c-1.65-0.49-3.27-0.97-4.81-1.56c-3.1-1.14-5.76-2.94-7.68-5.55c-1.95-2.56-3.21-5.67-3.87-8.88
				c-0.67-3.23-0.72-6.53,0.25-9.62c0.95-3.09,2.72-5.94,4.97-8.35c2.26-2.42,4.98-4.41,7.89-6.09c2.92-1.67,6.01-3.09,9.2-4.18
				c6.39-2.21,13.26-3.13,20.01-2.38c0.39,0.05,0.71,0.06,0.97,0.05c-1.3,4.72-1.58,9.63-0.75,14.46c-0.18-0.04-0.4-0.08-0.65-0.11
				c-3.28-0.31-6.61-0.12-9.85,0.55c-1.63,0.33-3.23,0.8-4.78,1.37c-1.56,0.57-3.11,1.26-4.53,2.27c-1.41,0.98-2.67,2.36-3.36,4.04
				c-0.72,1.65-0.83,3.72,0.01,5.44c0.81,1.74,2.29,2.94,3.77,3.81c1.5,0.88,3.08,1.49,4.62,2.05c6.07,2.25,12.15,4.56,17.3,8.22
				C79.296,89.64,83.146,94.88,85.156,100.84z"/>
			<path d="M73.396,43.46c0.41,5.35,0.33,10.54-0.71,15.82c-0.04,0.22-0.91,0.21-0.95,0c0-0.03-0.01-0.05-0.01-0.08
				c-0.02,0-0.05,0-0.07,0.01l-0.07-0.8c-0.83-4.83-0.55-9.74,0.75-14.46c-0.26,0.01-0.58,0-0.97-0.05
				c-6.75-0.75-13.62,0.17-20.01,2.38c-3.19,1.09-6.28,2.51-9.2,4.18c-2.91,1.68-5.63,3.67-7.89,6.09
				c-2.25,2.41-4.02,5.26-4.97,8.35c-0.97,3.09-0.92,6.39-0.25,9.62c0.66,3.21,1.92,6.32,3.87,8.88c1.92,2.61,4.58,4.41,7.68,5.55
				c1.54,0.59,3.16,1.07,4.81,1.56l4.94,1.47c3.29,1,6.57,1.9,9.9,3.02c3.3,1.13,6.68,2.7,9.3,5.33c1.29,1.31,2.39,2.86,3.08,4.63
				c0.67,1.77,0.9,3.71,0.66,5.56c-0.45,3.73-2.43,7.05-5.12,9.47c-2.76,2.4-6.14,3.84-9.56,4.62c-6.92,1.6-13.88,0.68-20.67,0.9
				c-0.44,0.02-0.77-0.01-1.03-0.06c0.95,5.62,1.47,11.05,1.67,16.76c0,0.08-0.1,0.15-0.22,0.21c-0.24,0.1-0.61,0.13-0.67-0.01
				c-2.13-5.5-2.91-11.55-1.79-17.38c0.03-0.15,0.4-0.2,0.67-0.15c0.25-0.12,0.67-0.23,1.33-0.28c6.88-0.45,13.83,0.22,20.35-1.51
				c3.23-0.82,6.31-2.27,8.71-4.45c2.34-2.21,4.01-5.22,4.31-8.35c0.17-1.57-0.05-3.13-0.62-4.56c-0.59-1.44-1.53-2.73-2.67-3.84
				c-2.29-2.25-5.32-3.64-8.5-4.69c-3.19-1.04-6.55-1.94-9.83-2.92l-4.94-1.44c-1.65-0.48-3.33-0.97-5-1.61
				c-1.66-0.64-3.32-1.43-4.82-2.52c-1.51-1.08-2.83-2.39-3.92-3.86c-2.21-2.93-3.56-6.37-4.25-9.88c-0.7-3.48-0.73-7.27,0.42-10.75
				c1.12-3.47,3.13-6.56,5.61-9.12c2.49-2.57,5.41-4.62,8.48-6.3c3.08-1.66,6.3-3.04,9.63-4.07c6.65-2.09,13.76-2.8,20.63-1.77
				c0.52,0.09,0.9,0.2,1.16,0.31C72.906,43.22,73.386,43.3,73.396,43.46z"/>
		</g>
		<path d="M49.216,151.77c0.72-0.13,0.92,0.68,0.21,0.89c-4.46,1.3-8.82,2.96-13.06,4.81c-2.12,0.93-4.2,1.93-6.17,3.05
			c-0.99,0.56-1.94,1.17-2.81,1.81c-0.39,0.34-0.85,0.67-1.14,1.03l-0.25,0.26c-0.07,0.09-0.1,0.17-0.15,0.25
			c-0.1,0.15-0.22,0.3-0.3,0.56c-0.36,0.93-0.45,1.82-0.21,2.66c0.24,0.85,0.81,1.66,1.54,2.31c0.72,0.65,1.65,1.14,2.65,1.53
			c1.01,0.38,2.1,0.69,3.15,0.86c2.19,0.33,4.52,0.39,6.82,0.39c2.32-0.01,4.64-0.09,6.94-0.31c0.77-0.08,0.89,0.77,0.15,0.93
			c-2.32,0.49-4.66,0.81-7.01,1.01c-2.37,0.19-4.73,0.3-7.18,0.07c-1.27-0.14-2.45-0.43-3.64-0.82c-1.19-0.41-2.39-0.98-3.44-1.87
			c-1.03-0.88-1.9-2.02-2.32-3.43c-0.43-1.42-0.23-2.98,0.27-4.21c0.09-0.3,0.3-0.65,0.51-0.99c0.11-0.16,0.22-0.35,0.33-0.48
			l0.36-0.38c0.47-0.53,0.98-0.89,1.48-1.3c1.02-0.73,2.06-1.36,3.13-1.92c2.13-1.13,4.31-2.06,6.53-2.89
			C40.036,153.94,44.576,152.62,49.216,151.77z"/>
		<g>
			<path d="M70.716,32.67c0.05-0.04,0.4,0.2,0.37,0.26c-0.53,1.56-1.37,2.91-2.72,3.91c-0.05,0.04-0.4-0.21-0.38-0.27
				C68.456,34.97,69.386,33.68,70.716,32.67z"/>
			<path d="M66.066,26.55c0.07-0.12,0.46,0.03,0.42,0.17c-0.44,1.71-0.96,3.38-1.6,5c-0.32,0.82-0.67,1.62-1.05,2.41
				c-0.19,0.39-0.38,0.78-0.59,1.17c-0.2,0.39-0.48,0.78-0.45,0.99c0.01,0.05-0.31,0.38-0.44,0.18c-0.15-0.3-0.09-0.59-0.04-0.83
				c0.06-0.22,0.12-0.43,0.17-0.65c0.12-0.42,0.24-0.84,0.38-1.26c0.26-0.83,0.56-1.65,0.89-2.46
				C64.406,29.65,65.176,28.08,66.066,26.55z"/>
			<path d="M57.636,13.8c0.05-0.29,0.47-0.25,0.46,0.05c-0.41,7.59-0.95,15.13-1.86,22.67c-0.04,0.32-0.47,0.28-0.47-0.02
				C55.616,28.89,56.266,21.28,57.636,13.8z"/>
			<path d="M48.056,38.56c0.07,0.41-0.36,0.48-0.46,0.11c-2.64-9.44-4.16-19.21-4.57-29c-0.02-0.38,0.39-0.43,0.45-0.04
				C44.856,19.31,46.456,28.92,48.056,38.56z"/>
			<path d="M40.866,40.19c0.13,0.36-0.28,0.5-0.44,0.18c-2-4.14-3.88-8.33-5.63-12.58c-0.88-2.12-1.73-4.26-2.55-6.4
				c-0.4-1.07-0.8-2.15-1.21-3.23l-0.58-1.62l-0.29-0.81l-0.15-0.41c-0.02-0.04-0.03-0.09-0.05-0.12c0.01-0.02,0.03-0.03,0.04-0.04
				c0.04-0.05,0.07-0.04,0.05-0.11c0.08-0.17-0.06-0.23,0.03-0.28c0.17-0.02,0.34,0.22,0.4,0.36l0.18,0.39l0.37,0.78l0.72,1.56
				c0.48,1.05,0.95,2.1,1.43,3.14c0.94,2.1,1.85,4.21,2.74,6.32C37.696,31.56,39.356,35.85,40.866,40.19z"/>
			<path d="M32.746,44.73c0.19,0.3-0.17,0.54-0.38,0.28c-5.35-6.47-10.26-13.28-14.77-20.36c-0.18-0.27,0.16-0.52,0.37-0.27
				C23.256,30.9,28.256,37.64,32.746,44.73z"/>
			<path d="M29.956,15.2c-0.03,0.01-0.05,0.03-0.08,0.02c-0.04,0-0.07-0.04-0.03-0.08C29.896,15.13,29.926,15.15,29.956,15.2z"/>
			<path d="M27.436,52.03c0.2,0.14-0.03,0.51-0.23,0.42c-5.09-2.27-9.92-5.03-14.51-8.2c-0.17-0.13,0.03-0.49,0.23-0.4
				C17.986,46.18,22.866,48.85,27.436,52.03z"/>
			<path d="M22.186,65.36c0.09,0.01,0.16,0.43,0.09,0.46c-1.89,0.88-3.88,1.22-5.96,1.08c-0.08-0.01-0.15-0.42-0.08-0.45
				C18.136,65.64,20.116,65.2,22.186,65.36z"/>
			<path d="M21.926,58.99c0.14,0.04,0.06,0.47-0.07,0.47c-3.52-0.01-6.99-0.69-10.26-1.98c-0.12-0.05-0.03-0.46,0.11-0.44
				C15.186,57.38,18.576,57.95,21.926,58.99z"/>
		</g>
	</g>
</g>
<g id="Designed_by_Freepik">
</g>
</svg>
