<svg xmlns="http://www.w3.org/2000/svg" viewBox="0 0 50 50"><path d="M25 1c-6.617 0-12 5.383-12 12v3h2v-3c0-5.516 4.484-10 10-10s10 4.484 10 10v3h2v-3c0-6.617-5.383-12-12-12zM9 18c-1.652 0-3 1.348-3 3v24c0 1.652 1.348 3 3 3h32c1.652 0 3-1.348 3-3V21c0-1.652-1.348-3-3-3zm16 8c3.867 0 7 3.133 7 7s-3.133 7-7 7-7-3.133-7-7 3.133-7 7-7zm0 3c-2.2 0-4 1.8-4 4s1.8 4 4 4 4-1.8 4-4c0-.398-.086-.79-.188-1.188A1.98 1.98 0 0 1 27 33c-1.102 0-2-.898-2-2 0-.8.488-1.512 1.188-1.813-.399-.101-.79-.187-1.188-.187z"/></svg>