<svg xmlns="http://www.w3.org/2000/svg" viewBox="0 0 32 32"><path d="M17 3v2h2.586L16 8.586l-2-2L8.586 12h2.828L14 9.414l2 2 5-5V9h2V3zM3 13v16h26V13zm3.914 2H25.09a1.44 1.44 0 0 0-.09.5 1.5 1.5 0 0 0 1.5 1.5c.172 0 .34-.031.5-.09v8.18a1.451 1.451 0 0 0-.5-.09 1.5 1.5 0 0 0-1.5 1.5c0 .172.031.34.09.5H6.914A1.5 1.5 0 0 0 5.5 25c-.172 0-.34.031-.5.09v-8.18c.16.059.328.09.5.09a1.5 1.5 0 0 0 1.414-2zM16 17c-2.21 0-4 1.79-4 4v1h.203c.45 1.71 1.942 3 3.797 3 1.855 0 3.348-1.29 3.797-3H20v-1c0-2.21-1.79-4-4-4zm0 2c1.191 0 2 .809 2 2 0 1.191-.809 2-2 2-1.191 0-2-.809-2-2 0-1.191.809-2 2-2zm-7 .5a1.5 1.5 0 1 0 0 3 1.5 1.5 0 0 0 0-3zm14 0a1.5 1.5 0 1 0 0 3 1.5 1.5 0 0 0 0-3z"/></svg>