<svg xmlns="http://www.w3.org/2000/svg" viewBox="0 0 24 24"><path d="M15 2l1.793 1.793L13.5 7.086l-4-4-5.457 5.457 1.414 1.414L9.5 5.914l4 4 4.707-4.707L20 7V2zM2 12v10h20V12zm3.5 2h13a1.5 1.5 0 0 0 1.5 1.5v3a1.5 1.5 0 0 0-1.5 1.5h-13A1.5 1.5 0 0 0 4 18.5v-3A1.5 1.5 0 0 0 5.5 14zm6.5.5a2.45 2.45 0 0 0-1.227.324h-.003l-.016.004-.016.016-.008.004h-.007v.004a2.515 2.515 0 0 0-1.2 1.793v.039c-.003.003-.003.007-.003.011v.004h-.004v.055l-.004.004v.004l-.004.031a2.63 2.63 0 0 0 0 .43l.004.007v.008c0 .008.004.012.004.016v.047h.004v.012l.003.003v.043h.004v.012l.004.004v.035l.004.004v.008l.004.004v.015l.004.012v.008l.004.004v.027l.004.008v.004l.004.004v.008c.039.195.101.382.187.558v.004l.008.008v.004l.004.008.004.004v.007l.008.008v.008h.004l.003.016.008.011v.004l.008.004v.012l.008.004v.008l.008.007v.008l.004.004h.004v.012l.007.008c.117.207.262.394.43.558l.004.008.004.004h.004l.004.004v.004l.004.004.007.004v.003h.004l.004.008.004.004h.004l.016.016v.004l.011.004.008.011.008.004.016.016h.003l.004.008v.004h.004l.008.004h.004v.007l.008.004h.004c.18.157.383.282.605.38l.012.01h.012l.004.005h.007l.008.008h.008l.004.003h.012v.004h.007l.004.004.012.008.016.004c.28.11.586.168.902.168h.093c.333-.016.65-.09.938-.219l.012-.008.004-.003.008-.004h.008l.003-.004h.004l.008-.004v-.004h.004l.008-.004h.004l.004-.004.007-.004.004-.004.008-.004c.215-.105.414-.246.59-.406l.012-.012v-.003l.004-.004h.004l.003-.004.004-.008h.004v-.004l.008-.004v-.004h.004l.008-.008.008-.011.011-.008.004-.004.004-.008h.004l.008-.008v-.004l.008-.004.023-.023v-.004c.16-.172.3-.371.406-.586l.004-.008.004-.004h.004v-.007l.004-.004v-.004l.004-.008v-.004h.004l.004-.008v-.004l.004-.003v-.008l.004-.008.003-.004.008-.016v-.011h.004v-.004l.004-.004v-.004l.008-.008v-.012l.004-.004v-.007h.004l.004-.004v-.004a2.41 2.41 0 0 0 .16-.574v-.004l.004-.008v-.016c.004-.004.004-.008.004-.011v-.008l.003-.008v-.02l.004-.011v-.047l.004-.004v-.036l.004-.007v-.004c.012-.129.012-.254.004-.383v-.008l-.008-.035-.004-.047c0-.015 0-.03-.004-.047v-.015c-.003-.016-.003-.031-.007-.047l-.004-.02-.004-.043-.012-.035-.008-.047-.004-.02a2.512 2.512 0 0 0-1.254-1.663l-.015-.004-.031-.02-.02-.007a2.523 2.523 0 0 0-1.059-.266H12z"/></svg>