<svg xmlns="http://www.w3.org/2000/svg" viewBox="0 0 64 64"><linearGradient id="a" gradientUnits="userSpaceOnUse" x1="32" y1="32" x2="32" y2="49.94" spreadMethod="reflect"><stop offset="0" stop-color="#6dc7ff"/><stop offset="1" stop-color="#e6abff"/></linearGradient><path d="M45 50H19v-1c0-2.206-1.794-4-4-4h-1v-8h1c2.206 0 4-1.794 4-4v-1h26v1c0 2.206 1.794 4 4 4h1v8h-1c-2.206 0-4 1.794-4 4v1zm-24.083-2h22.166A6.017 6.017 0 0 1 48 43.083v-4.166A6.017 6.017 0 0 1 43.083 34H20.917A6.017 6.017 0 0 1 16 38.917v4.166A6.017 6.017 0 0 1 20.917 48z" fill="url(#a)"/><linearGradient id="b" gradientUnits="userSpaceOnUse" x1="32" y1="36.833" x2="32" y2="45.51" spreadMethod="reflect"><stop offset="0" stop-color="#6dc7ff"/><stop offset="1" stop-color="#e6abff"/></linearGradient><circle cx="32" cy="41" r="4" fill="url(#b)"/><linearGradient id="c" gradientUnits="userSpaceOnUse" x1="32" y1="6.167" x2="32" y2="58.291" spreadMethod="reflect"><stop offset="0" stop-color="#1a6dff"/><stop offset="1" stop-color="#c822ff"/></linearGradient><path d="M51 28H13c-1.654 0-3 1.346-3 3v24c0 1.654 1.346 3 3 3h38c1.654 0 3-1.346 3-3V31c0-1.654-1.346-3-3-3zm0 28H13a1 1 0 0 1-1-1v-1.184c.314.112.647.184 1 .184h38c.353 0 .686-.072 1-.184V55a1 1 0 0 1-1 1zm0-4H13a1 1 0 0 1-1-1V31a1 1 0 0 1 1-1h38a1 1 0 0 1 1 1v20a1 1 0 0 1-1 1z" fill="url(#c)"/><linearGradient id="d" gradientUnits="userSpaceOnUse" x1="32" y1="6.167" x2="32" y2="58.291" spreadMethod="reflect"><stop offset="0" stop-color="#1a6dff"/><stop offset="1" stop-color="#c822ff"/></linearGradient><polygon points="51,24 51,6 49,6 49,24 45,24 45,10 43,10 43,24 39,24 39,14 37,14 37,24 33,24 33,14 31,14 31,24 27,24 27,10 25,10 25,24 21,24 21,14 19,14 19,24 15,24 15,18 13,18 13,24 10,24 10,26 54,26 54,24" fill="url(#d)"/><linearGradient id="e" gradientUnits="userSpaceOnUse" x1="32" y1="6.167" x2="32" y2="58.291" spreadMethod="reflect"><stop offset="0" stop-color="#1a6dff"/><stop offset="1" stop-color="#c822ff"/></linearGradient><path d="M32 36c-2.757 0-5 2.243-5 5s2.243 5 5 5 5-2.243 5-5-2.243-5-5-5zm0 8c-1.654 0-3-1.346-3-3s1.346-3 3-3 3 1.346 3 3-1.346 3-3 3z" fill="url(#e)"/></svg>