<svg xmlns="http://www.w3.org/2000/svg" viewBox="0 0 64 64"><path d="M11 57V11a2 2 0 0 1 2-2h25.34c1.062 0 2.078.422 2.832 1.172l8.656 8.656A4.013 4.013 0 0 1 51 21.66V57a2 2 0 0 1-2 2H13a2 2 0 0 1-2-2z" fill="#efd8be"/><path d="M15 53V7a2 2 0 0 1 2-2h25.34c1.062 0 2.078.422 2.832 1.172l8.656 8.656A4.013 4.013 0 0 1 55 17.66V53a2 2 0 0 1-2 2H17a2 2 0 0 1-2-2z" fill="#faefde"/><path d="M55.102 36.898V17.66L51.398 17 15.25 53.14A3.002 3.002 0 0 0 18 54.942h19.059zM46.43 11.57L15 43v6l35.238-35.238c-.297-1.07-3.808-2.192-3.808-2.192zM14.852 37.148L43 9h3L14.852 40.148z" fill="#fff7f0"/><path d="M23.5 10l1.238 2.262L27 13.5l-2.262 1.238L23.5 17l-1.238-2.262L20 13.5l2.262-1.238z" fill="#fff"/><path d="M43.34 4.809v9.613a2.39 2.39 0 0 0 2.39 2.387h9.61z" fill="#f9e3ae"/><path d="M44.422 26l.848 1.559 1.57.863-1.57.848-.848 1.57-.863-1.57L42 28.422l1.559-.863zM24.648 38l.582 1.059 1.07.59-1.07.581-.582 1.07-.578-1.07-1.07-.582 1.07-.59z" fill="#fff"/><path d="M54.54 14.121l-8.661-8.66A4.985 4.985 0 0 0 42.339 4H17a3 3 0 0 0-3 3v1h-1a3 3 0 0 0-3 3v46a3 3 0 0 0 3 3h36a3 3 0 0 0 3-3v-1h1a3 3 0 0 0 3-3V17.66a4.985 4.985 0 0 0-1.46-3.539zm-1.411 1.41c.144.14.27.293.383.457H45a1 1 0 0 1-1-1V6.5c.164.11.32.238.46.379zM50 57c0 .55-.45 1-1 1H13c-.55 0-1-.45-1-1V11c0-.55.45-1 1-1h1v43a3 3 0 0 0 3 3h33zm3-3H17c-.55 0-1-.45-1-1V7c0-.55.45-1 1-1h25v9a3 3 0 0 0 3 3h9v35c0 .55-.45 1-1 1z" fill="#8d6c9f"/><path d="M20 46c-.55 0-1 .45-1 1v2c0 .55.45 1 1 1s1-.45 1-1v-2c0-.55-.45-1-1-1zm5 0c-.55 0-1 .45-1 1v2c0 .55.45 1 1 1s1-.45 1-1v-2c0-.55-.45-1-1-1zm5 0c-.55 0-1 .45-1 1v2c0 .55.45 1 1 1s1-.45 1-1v-2c0-.55-.45-1-1-1zm5 0c-.55 0-1 .45-1 1v2c0 .55.45 1 1 1s1-.45 1-1v-2c0-.55-.45-1-1-1zm5 0c-.55 0-1 .45-1 1v2c0 .55.45 1 1 1s1-.45 1-1v-2c0-.55-.45-1-1-1zm5 0c-.55 0-1 .45-1 1v2c0 .55.45 1 1 1s1-.45 1-1v-2c0-.55-.45-1-1-1zm5 0c-.55 0-1 .45-1 1v2c0 .55.45 1 1 1s1-.45 1-1v-2c0-.55-.45-1-1-1zm-15-7a1.999 1.999 0 1 1-4 0 1.999 1.999 0 1 1 4 0zm5-16a5 5 0 0 0-5-5h-3a5 5 0 0 0-5 5c0 .55.45 1 1 1s1-.45 1-1a3 3 0 0 1 3-3h3a3 3 0 0 1 3 3v.84a3.38 3.38 0 0 1-2.32 3.21A5.374 5.374 0 0 0 32 32.16V34c0 .55.45 1 1 1s1-.45 1-1v-1.84a3.38 3.38 0 0 1 2.32-3.21A5.374 5.374 0 0 0 40 23.84z" fill="#8d6c9f"/></svg>