<svg xmlns="http://www.w3.org/2000/svg" viewBox="0 0 26 26"><path d="M.906-.031C.863-.023.82-.011.781 0A1.002 1.002 0 0 0 0 1v24c0 .55.45 1 1 1h24c.36.004.695-.184.879-.496a1.01 1.01 0 0 0 0-1.008c-.184-.312-.52-.5-.879-.496H2V1A1 1 0 0 0 .906-.031zM24 2a1.999 1.999 0 1 0 0 4 1.999 1.999 0 1 0 0-4zm-6 2a1.999 1.999 0 1 0 0 4 1.999 1.999 0 1 0 0-4zm4 4a1.999 1.999 0 1 0 0 4 1.999 1.999 0 1 0 0-4zm-6 1a1.999 1.999 0 1 0 0 4 1.999 1.999 0 1 0 0-4zm-6 2a1.999 1.999 0 1 0 0 4 1.999 1.999 0 1 0 0-4zm10 2a1.999 1.999 0 1 0 0 4 1.999 1.999 0 1 0 0-4zm-6 1a1.999 1.999 0 1 0 0 4 1.999 1.999 0 1 0 0-4zm-8 2a1.999 1.999 0 1 0 0 4 1.999 1.999 0 1 0 0-4zm5 2a1.999 1.999 0 1 0 0 4 1.999 1.999 0 1 0 0-4z"/></svg>