<svg xmlns="http://www.w3.org/2000/svg" viewBox="0 0 64 64"><path d="M9 11h52v46H9z" fill="#85cbf8"/><path d="M13 51h44c2.21 0 4 1.79 4 4v1c0 .55-.45 1-1 1H10c-.55 0-1-.45-1-1v-1c0-2.21 1.79-4 4-4z" fill="#ed7899"/><path d="M12 11h46a3 3 0 0 1 3 3v5a3 3 0 0 1-3 3H12a3 3 0 0 1-3-3v-5a3 3 0 0 1 3-3z" fill="#ace3ff"/><path d="M35 5a2 2 0 0 1 2 2v8a1.999 1.999 0 1 1-4 0V7a2 2 0 0 1 2-2zm16 0a2 2 0 0 1 2 2v8a1.999 1.999 0 1 1-4 0V7a2 2 0 0 1 2-2z" fill="#ffefb8"/><path d="M21.5 27l1.238 2.262L25 30.5l-2.262 1.238L21.5 34l-1.238-2.262L18 30.5l2.262-1.238zm25.922 7l.848 1.559 1.57.863-1.57.848-.848 1.57-.863-1.57L45 36.422l1.559-.863zm-5.07 11l.59 1.059 1.058.59-1.059.581-.59 1.07-.581-1.07-1.07-.582 1.07-.59z" fill="#9fddff"/><path d="M25 13c0 6.629-5.371 12-12 12S1 19.629 1 13 6.371 1 13 1s12 5.371 12 12z" fill="#faefde"/><path d="M25 24c.55 0 1-.45 1-1v-2c0-.55-.45-1-1-1s-1 .45-1 1v2c0 .55.45 1 1 1zm5 0c.55 0 1-.45 1-1v-2c0-.55-.45-1-1-1s-1 .45-1 1v2c0 .55.45 1 1 1zm5 0c.55 0 1-.45 1-1v-2c0-.55-.45-1-1-1s-1 .45-1 1v2c0 .55.45 1 1 1zm5 0c.55 0 1-.45 1-1v-2c0-.55-.45-1-1-1s-1 .45-1 1v2c0 .55.45 1 1 1zm5 0c.55 0 1-.45 1-1v-2c0-.55-.45-1-1-1s-1 .45-1 1v2c0 .55.45 1 1 1zm5 0c.55 0 1-.45 1-1v-2c0-.55-.45-1-1-1s-1 .45-1 1v2c0 .55.45 1 1 1zm5 0c.55 0 1-.45 1-1v-2c0-.55-.45-1-1-1s-1 .45-1 1v2c0 .55.45 1 1 1zm2 26H13c-.55 0-1 .45-1 1s.45 1 1 1h44c.55 0 1-.45 1-1s-.45-1-1-1zM12.29 13.71l5 5a1 1 0 0 0 1.41-1.41L14 12.59V6c0-.55-.45-1-1-1s-1 .45-1 1v7c0 .266.102.52.29.71z" fill="#8d6c9f"/><path d="M59 10h-5V7a3 3 0 0 0-6 0v3H38V7a3 3 0 0 0-6 0v3h-6.36a13.002 13.002 0 0 0-25.43.602A13 13 0 0 0 8 25v30a3 3 0 0 0 3 3h48a3 3 0 0 0 3-3V13a3 3 0 0 0-3-3zm-9-3c0-.55.45-1 1-1s1 .45 1 1v8c0 .55-.45 1-1 1s-1-.45-1-1zM34 7c0-.55.45-1 1-1s1 .45 1 1v8c0 .55-.45 1-1 1s-1-.45-1-1zM2 13C2 6.926 6.926 2 13 2s11 4.926 11 11-4.926 11-11 11S2 19.074 2 13zm58 42c0 .55-.45 1-1 1H11c-.55 0-1-.45-1-1V25.64c3.867.919 7.941.016 11.059-2.449A13.01 13.01 0 0 0 26 13c0-.352 0-.691-.05-1H32v3a3 3 0 0 0 6 0v-3h10v3a3 3 0 0 0 6 0v-3h5c.55 0 1 .45 1 1v7c-.55 0-1 .45-1 1v2c0 .55.45 1 1 1z" fill="#8d6c9f"/><path d="M38.602 35.469A2.98 2.98 0 0 0 39 34v-3a3 3 0 0 0-3-3h-2a3 3 0 0 0-3 3v3a2.98 2.98 0 0 0 .398 1.469A3.012 3.012 0 0 0 30 38v5a3 3 0 0 0 3 3h4a3 3 0 0 0 3-3v-5a3.012 3.012 0 0 0-1.398-2.531zM33 31c0-.55.45-1 1-1h2c.55 0 1 .45 1 1v3c0 .55-.45 1-1 1h-2c-.55 0-1-.45-1-1zm5 12c0 .55-.45 1-1 1h-4c-.55 0-1-.45-1-1v-5c0-.55.45-1 1-1h4c.55 0 1 .45 1 1z" fill="#fff"/></svg>