<svg xmlns="http://www.w3.org/2000/svg" viewBox="0 0 40 40"><rect x="2.5" y="2.5" width="35" height="35" fill="#e1ebf2"/><path d="M37 3v34H3V3h34m1-1H2v36h36V2z" fill="#788b9c"/><rect x="6" y="6" width="28" height="19" fill="#8bb7f0"/><path d="M25 31a3 3 0 0 0 3 3c.353 0-.353 0 0 0a3 3 0 0 0 3-3h-6z" fill="#36404d"/><rect x="6" y="31" width="12" height="1" fill="#36404d"/><rect x="22" y="31" width="12" height="1" fill="#36404d"/><rect x="21" y="9" width="10" height="3" fill="#c2e8ff"/><rect x="21" y="14" width="10" height="3" fill="#c2e8ff"/><rect x="21" y="19" width="10" height="3" fill="#c2e8ff"/><rect x="9" y="9" width="10" height="3" fill="#c2e8ff"/><rect x="9" y="14" width="10" height="3" fill="#c2e8ff"/><rect x="9" y="19" width="10" height="3" fill="#c2e8ff"/></svg>