<svg xmlns="http://www.w3.org/2000/svg" viewBox="0 0 26 26"><path d="M1 1c-.55 0-1 .45-1 1v10c0 .55.45 1 1 1h4c.55 0 1-.45 1-1V8h3v2c0 .55.45 1 1 1h4c.55 0 1-.45 1-1V8h3.156A3.944 3.944 0 0 0 21 10.844V17h-1c-.55 0-1 .45-1 1v2h-4.156c-.446-1.723-1.98-3-3.844-3-2.21 0-4 1.79-4 4s1.79 4 4 4c1.863 0 3.398-1.277 3.844-3H19v2c0 .55.45 1 1 1h4c.55 0 1-.45 1-1v-6c0-.55-.45-1-1-1h-1v-6.156c1.723-.446 3-1.98 3-3.844 0-2.21-1.79-4-4-4-1.863 0-3.398 1.277-3.844 3H15V4c0-.55-.45-1-1-1h-4c-.55 0-1 .45-1 1v2H6V2c0-.55-.45-1-1-1z"/></svg>