<svg xmlns="http://www.w3.org/2000/svg" viewBox="0 0 64 64"><path d="M19 .059c-.55 0-1 .445-1 .996V10H9c-1.652 0-3 1.348-3 3a2.99 2.99 0 0 0 1.57 2.621L2.395 25.973a4.996 4.996 0 0 0 .937 5.773l.281.281A6.885 6.885 0 0 0 6 33.562V56H3a1 1 0 1 0 0 2h58a1 1 0 1 0 0-2h-3V33.562a6.885 6.885 0 0 0 2.387-1.535l.281-.28a4.996 4.996 0 0 0 .937-5.774L56.43 15.62A2.99 2.99 0 0 0 58 13c0-1.652-1.348-3-3-3H24V6.055c0-.551-.45-1-1-1s-1 .449-1 1V10h-2V1.055a.999.999 0 0 0-1-.996zM9 12h46c.55 0 1 .45 1 1s-.45 1-1 1H9c-.55 0-1-.45-1-1s.45-1 1-1zm.617 4h7.371l-1.965 8.84a.998.998 0 0 0 .758 1.191.86.86 0 0 0 .219.028c.46 0 .875-.32.977-.786l2-9c.02-.093.011-.183.003-.273h26.036c-.004.09-.012.18.007.273l2 9c.106.465.516.786.977.786.07 0 .145-.012.219-.028a.996.996 0 0 0 .754-1.191L47.012 16h7.37l5.434 10.867a3 3 0 0 1-.562 3.465l-.281.281a5.02 5.02 0 0 1-6.535.465l-2.637-1.98a3.024 3.024 0 0 0-3.602 0L43 31.5a5.028 5.028 0 0 1-6 0l-3.2-2.398a2.985 2.985 0 0 0-.8-.426v-8.617a1 1 0 1 0-2 0v8.617a2.985 2.985 0 0 0-.8.426L27 31.5a5.028 5.028 0 0 1-6 0l-3.2-2.398a3.012 3.012 0 0 0-3.6 0l-2.637 1.976c-1.977 1.48-4.79 1.281-6.54-.465l-.28-.281a2.993 2.993 0 0 1-.56-3.46zM16 30.5a.99.99 0 0 1 .598.2l3.203 2.398a7.031 7.031 0 0 0 8.398 0l3.203-2.399a.996.996 0 0 1 1.196 0l3.203 2.399A6.983 6.983 0 0 0 40 34.488c1.48 0 2.965-.46 4.2-1.39l3.202-2.399a.996.996 0 0 1 1.196 0l2.636 1.977A6.992 6.992 0 0 0 56 34.039v11.934h-3a1 1 0 1 0 0 2h3V56H28v-8h3.168a1 1 0 1 0 0-2H28v-8c0-1.102-.898-2-2-2H16c-1.102 0-2 .898-2 2v8H8V34.035a6.968 6.968 0 0 0 4.766-1.36l2.636-1.976A.99.99 0 0 1 16 30.5zM36 36c-1.102 0-2 .898-2 2v7.95c0 1.1.898 2 2 2h12c1.102 0 2-.9 2-2V38c0-1.102-.898-2-2-2zm-20 2h10v17.95H16zm20 0h12v7.95H36zm-13 7a1 1 0 0 0-1 1v2a1 1 0 1 0 2 0v-2a1 1 0 0 0-1-1zM8 48h6v8H8zm3 2a1 1 0 0 0-1 1v2a1 1 0 1 0 2 0v-2a1 1 0 0 0-1-1zm21 0a1 1 0 0 0-1 1v2a1 1 0 1 0 2 0v-2a1 1 0 0 0-1-1zm5 0a1 1 0 0 0-1 1v2a1 1 0 1 0 2 0v-2a1 1 0 0 0-1-1zm5 0a1 1 0 0 0-1 1v2a1 1 0 1 0 2 0v-2a1 1 0 0 0-1-1zm5 0a1 1 0 0 0-1 1v2a1 1 0 1 0 2 0v-2a1 1 0 0 0-1-1zm5 0a1 1 0 0 0-1 1v2a1 1 0 1 0 2 0v-2a1 1 0 0 0-1-1z"/></svg>