<svg xmlns="http://www.w3.org/2000/svg" viewBox="0 0 80 80"><path d="M9 14c-2.2 0-4 1.8-4 4v44c0 2.2 1.8 4 4 4h62c2.2 0 4-1.8 4-4V18c0-2.2-1.8-4-4-4zm0 2h62c1.117 0 2 .883 2 2v44c0 1.117-.883 2-2 2H9c-1.117 0-2-.883-2-2V18c0-1.117.883-2 2-2zm44 12c-3.855 0-7 3.145-7 7a7 7 0 0 0 3.09 5.797C45.516 42.324 43 45.875 43 50h2c0-4.43 3.57-8 8-8s8 3.57 8 8h2c0-4.125-2.516-7.676-6.09-9.203A7.002 7.002 0 0 0 60 35c0-3.855-3.145-7-7-7zm0 2c2.773 0 5 2.227 5 5s-2.227 5-5 5-5-2.227-5-5 2.227-5 5-5zm-33 4c-1.094 0-2 .906-2 2v8c0 1.094.906 2 2 2h11c1.094 0 2-.906 2-2v-8c0-1.094-.906-2-2-2zm-6 2l-4 4 4 4zm6 0h11v8H20zM10 59c-.55 0-1 .45-1 1s.45 1 1 1 1-.45 1-1-.45-1-1-1zm4 0c-.55 0-1 .45-1 1s.45 1 1 1 1-.45 1-1-.45-1-1-1zm4 0c-.55 0-1 .45-1 1s.45 1 1 1 1-.45 1-1-.45-1-1-1zm4 0c-.55 0-1 .45-1 1s.45 1 1 1 1-.45 1-1-.45-1-1-1zm4 0c-.55 0-1 .45-1 1s.45 1 1 1 1-.45 1-1-.45-1-1-1zm4 0c-.55 0-1 .45-1 1s.45 1 1 1 1-.45 1-1-.45-1-1-1zm4 0c-.55 0-1 .45-1 1s.45 1 1 1 1-.45 1-1-.45-1-1-1zm4 0c-.55 0-1 .45-1 1s.45 1 1 1 1-.45 1-1-.45-1-1-1zm4 0c-.55 0-1 .45-1 1s.45 1 1 1 1-.45 1-1-.45-1-1-1zm4 0c-.55 0-1 .45-1 1s.45 1 1 1 1-.45 1-1-.45-1-1-1zm4 0c-.55 0-1 .45-1 1s.45 1 1 1 1-.45 1-1-.45-1-1-1zm4 0c-.55 0-1 .45-1 1s.45 1 1 1 1-.45 1-1-.45-1-1-1zm4 0c-.55 0-1 .45-1 1s.45 1 1 1 1-.45 1-1-.45-1-1-1zm4 0c-.55 0-1 .45-1 1s.45 1 1 1 1-.45 1-1-.45-1-1-1zm4 0c-.55 0-1 .45-1 1s.45 1 1 1 1-.45 1-1-.45-1-1-1zm4 0c-.55 0-1 .45-1 1s.45 1 1 1 1-.45 1-1-.45-1-1-1z"/></svg>