<svg xmlns="http://www.w3.org/2000/svg" viewBox="0 0 64 64"><path d="M3 12c-1.652 0-3 1.348-3 3v36c0 1.652 1.348 3 3 3h58c1.652 0 3-1.348 3-3V15c0-1.652-1.348-3-3-3zm0 2h58c.55 0 1 .45 1 1v29c-.55 0-1 .45-1 1v2c0 .55.45 1 1 1v3c0 .55-.45 1-1 1H3c-.55 0-1-.45-1-1v-3c.55 0 1-.45 1-1v-2c0-.55-.45-1-1-1V15c0-.55.45-1 1-1zm41.031 6c-3.293 0-5.968 2.531-5.968 5.652v1.317c0 1.031.289 2.12.816 3.11C34.82 31.628 32 34.96 32 38.811c0 .63.512 1.149 1.152 1.149.63 0 1.137-.52 1.137-1.148 0-3.07 2.48-5.704 6.012-6.813 1.02.969 2.308 1.61 3.73 1.61 1.418 0 2.707-.641 3.73-1.622 3.54 1.114 6.028 3.754 6.028 6.825 0 .628.52 1.148 1.148 1.148.633 0 1.141-.52 1.141-1.148 0-3.864-2.828-7.192-6.898-8.743.53-.988.82-2.07.82-3.101v-1.317C50 22.532 47.32 20 44.031 20zm0 2C46.22 22 48 23.64 48 25.652v1.317c0 .832-.29 1.742-.77 2.52-.558.91-1.378 1.671-2.32 1.972a2.73 2.73 0 0 1-1.75.008c-.941-.297-1.77-1.059-2.32-1.98-.488-.778-.778-1.688-.778-2.52v-1.317c0-2.011 1.778-3.652 3.97-3.652zM16 26c-1.102 0-2 .898-2 2v6c0 1.102.898 2 2 2h8c1.102 0 2-.898 2-2v-6c0-1.102-.898-2-2-2zm-5 1a1 1 0 0 0-.707.293l-3 3a1 1 0 0 0 0 1.414l3 3c.195.195.45.293.707.293a1 1 0 0 0 .707-1.707L9.414 31l2.293-2.293A1 1 0 0 0 11 27zm5 1h8v6h-8zM7 44c-.55 0-1 .45-1 1v2c0 .55.45 1 1 1s1-.45 1-1v-2c0-.55-.45-1-1-1zm5 0c-.55 0-1 .45-1 1v2c0 .55.45 1 1 1s1-.45 1-1v-2c0-.55-.45-1-1-1zm5 0c-.55 0-1 .45-1 1v2c0 .55.45 1 1 1s1-.45 1-1v-2c0-.55-.45-1-1-1zm5 0c-.55 0-1 .45-1 1v2c0 .55.45 1 1 1s1-.45 1-1v-2c0-.55-.45-1-1-1zm5 0c-.55 0-1 .45-1 1v2c0 .55.45 1 1 1s1-.45 1-1v-2c0-.55-.45-1-1-1zm5 0c-.55 0-1 .45-1 1v2c0 .55.45 1 1 1s1-.45 1-1v-2c0-.55-.45-1-1-1zm5 0c-.55 0-1 .45-1 1v2c0 .55.45 1 1 1s1-.45 1-1v-2c0-.55-.45-1-1-1zm5 0c-.55 0-1 .45-1 1v2c0 .55.45 1 1 1s1-.45 1-1v-2c0-.55-.45-1-1-1zm5 0c-.55 0-1 .45-1 1v2c0 .55.45 1 1 1s1-.45 1-1v-2c0-.55-.45-1-1-1zm5 0c-.55 0-1 .45-1 1v2c0 .55.45 1 1 1s1-.45 1-1v-2c0-.55-.45-1-1-1zm5 0c-.55 0-1 .45-1 1v2c0 .55.45 1 1 1s1-.45 1-1v-2c0-.55-.45-1-1-1z"/></svg>