<svg xmlns="http://www.w3.org/2000/svg" viewBox="0 0 50 50"><path d="M5 7c-2.75 0-5 2.25-5 5v26c0 2.75 2.25 5 5 5h40c2.75 0 5-2.25 5-5V12c0-2.75-2.25-5-5-5zm0 2h40c1.668 0 3 1.332 3 3v26c0 1.668-1.332 3-3 3H5c-1.668 0-3-1.332-3-3V12c0-1.668 1.332-3 3-3zm28.969 6c-2.043 0-3.602.95-4.25 2.375-.582 1.273-.485 2.773-.157 4.281a1.9 1.9 0 0 0-.28 1.25c.07.586.238 1.067.53 1.438.09.113.235.101.344.187.098.422.2.844.375 1.188.117.234.23.433.375.625.016.02.047.043.063.062.004.36-.008.7-.032 1.063-.066.133-.21.312-.656.531-.48.238-1.176.469-1.906.781-.73.313-1.5.715-2.156 1.375-.657.66-1.149 1.614-1.219 2.782V34c0 .55.45 1 1 1h16c.55 0 1-.45 1-1v-1.063a4.286 4.286 0 0 0-1.219-2.78c-.656-.665-1.426-1.063-2.156-1.376-.73-.312-1.43-.543-1.906-.781-.442-.219-.59-.398-.657-.531a13.843 13.843 0 0 1-.03-1.063c.019-.027.073-.035.093-.062.14-.196.258-.422.375-.657.168-.343.25-.742.344-1.156.11-.086.254-.074.343-.187.293-.371.461-.852.532-1.438a1.915 1.915 0 0 0-.282-1.281c.204-.719.461-1.602.376-2.688-.051-.671-.239-1.378-.688-2-.41-.566-1.074-.957-1.875-1.125-.613-.55-1.41-.812-2.281-.812zm0 2c.754 0 1.074.242 1.062.219a.99.99 0 0 0 .719.5c.457.062.633.203.781.406.149.203.246.535.282.969.066.867-.211 2.008-.376 2.5-.124.379-.015.797.282 1.062v.032c-.035.289-.082.324-.094.343a1 1 0 0 0-.625.844c-.027.266-.168.64-.313.938-.074.148-.136.273-.187.343a1 1 0 0 0-.469.875c0 .59-.004 1.106.063 1.844 0 .086.011.168.031.25.32.852 1.055 1.324 1.719 1.656.664.332 1.367.574 2 .844s1.168.574 1.531.938c.348.347.535.761.594 1.437H27.03c.059-.676.246-1.086.594-1.438.363-.367.93-.667 1.563-.937.632-.27 1.332-.512 2-.844.667-.332 1.367-.804 1.687-1.656.031-.082.05-.164.063-.25.066-.738.03-1.254.03-1.844a.99.99 0 0 0-.374-.812.46.46 0 0 1-.063-.032 1.302 1.302 0 0 0-.093-.062c.05.027.07.02.093.031a2.135 2.135 0 0 1-.218-.343c-.149-.297-.286-.68-.313-.938a1 1 0 0 0-.625-.844c-.008-.015-.059-.082-.094-.375a.996.996 0 0 0 .282-.968c-.375-1.434-.344-2.711 0-3.47.343-.757.886-1.218 2.406-1.218zM11 20c-1.094 0-2 .906-2 2v6c0 1.094.906 2 2 2h7c1.094 0 2-.906 2-2v-6c0-1.094-.906-2-2-2zm-4 2l-3 3 3 3zm4 0h7v6h-7z"/></svg>