<svg xmlns="http://www.w3.org/2000/svg" viewBox="0 0 50 50"><path d="M43 4H7C4.242 4 2 6.242 2 9v24c0 2.758 2.242 5 5 5h4.14c.34 2.895-.515 4.86-2.656 6.145-.382.23-.566.69-.449 1.12.121.434.516.735.965.735 2.559 0 8.707-.797 11.684-8H43c2.758 0 5-2.242 5-5V9c0-2.758-2.242-5-5-5zM10 31c-.55 0-1-.45-1-1s.45-1 1-1 1 .45 1 1-.45 1-1 1zm0-6c-.55 0-1-.45-1-1s.45-1 1-1 1 .45 1 1-.45 1-1 1zm0-6c-.55 0-1-.45-1-1s.45-1 1-1 1 .45 1 1-.45 1-1 1zm0-6c-.55 0-1-.45-1-1s.45-1 1-1 1 .45 1 1-.45 1-1 1zm23 18H16c-.555 0-1-.445-1-1 0-.555.445-1 1-1h17c.555 0 1 .445 1 1 0 .555-.445 1-1 1zm7-6H16c-.555 0-1-.445-1-1 0-.555.445-1 1-1h24c.555 0 1 .445 1 1 0 .555-.445 1-1 1zm0-6H16c-.555 0-1-.445-1-1 0-.555.445-1 1-1h24c.555 0 1 .445 1 1 0 .555-.445 1-1 1zm0-6H16c-.555 0-1-.445-1-1 0-.555.445-1 1-1h24c.555 0 1 .445 1 1 0 .555-.445 1-1 1z"/></svg>