<svg xmlns="http://www.w3.org/2000/svg" viewBox="0 0 50 50"><path d="M7 4C4.254 4 2 6.254 2 9v24c0 2.746 2.254 5 5 5h4.086c.137 1.2.121 2.316-.184 3.25-.382 1.145-1.093 2.098-2.418 2.89A1.002 1.002 0 0 0 9 46c4.246 0 9.125-2.207 11.578-8H43c2.746 0 5-2.254 5-5V9c0-2.746-2.254-5-5-5zm0 2h36a3 3 0 0 1 3 3v24a3 3 0 0 1-3 3H20a.996.996 0 0 0-.938.656c-1.558 4.25-4.343 6.258-7.234 6.996.395-.566.762-1.14.969-1.777.523-1.574.508-3.297.187-5.055A.998.998 0 0 0 12 36H7a3 3 0 0 1-3-3V9a3 3 0 0 1 3-3zm3 5c-.55 0-1 .45-1 1s.45 1 1 1 1-.45 1-1-.45-1-1-1zm6 0a1.006 1.006 0 0 0-.879.496 1.01 1.01 0 0 0 0 1.008c.184.312.52.5.879.496h24c.36.004.695-.184.879-.496a1.01 1.01 0 0 0 0-1.008c-.184-.312-.52-.5-.879-.496zm-6 6c-.55 0-1 .45-1 1s.45 1 1 1 1-.45 1-1-.45-1-1-1zm6 0a1.006 1.006 0 0 0-.879.496 1.01 1.01 0 0 0 0 1.008c.184.312.52.5.879.496h24c.36.004.695-.184.879-.496a1.01 1.01 0 0 0 0-1.008c-.184-.312-.52-.5-.879-.496zm-6 6c-.55 0-1 .45-1 1s.45 1 1 1 1-.45 1-1-.45-1-1-1zm6 0a1.006 1.006 0 0 0-.879.496 1.01 1.01 0 0 0 0 1.008c.184.312.52.5.879.496h24c.36.004.695-.184.879-.496a1.01 1.01 0 0 0 0-1.008c-.184-.312-.52-.5-.879-.496zm-6 6c-.55 0-1 .45-1 1s.45 1 1 1 1-.45 1-1-.45-1-1-1zm6 0a1.006 1.006 0 0 0-.879.496 1.01 1.01 0 0 0 0 1.008c.184.312.52.5.879.496h17c.36.004.695-.184.879-.496a1.01 1.01 0 0 0 0-1.008c-.184-.312-.52-.5-.879-.496z"/></svg>