<svg xmlns="http://www.w3.org/2000/svg" viewBox="0 0 32 32"><path style="line-height:normal;text-indent:0;text-align:start;text-decoration-line:none;text-decoration-style:solid;text-decoration-color:#000;text-transform:none;block-progression:tb;isolation:auto;mix-blend-mode:normal" d="M6 3v26h11v-2H8V5h10v6h6v6h2V9.586L19.414 3H6zm14 3.414L22.586 9H20V6.414zM16 12c-3.302 0-6 2.698-6 6s2.698 6 6 6c1.092 0 2.116-.3 3-.814V32h13V19H21.908c.056-.326.092-.659.092-1 0-3.302-2.698-6-6-6zm0 2v4h4c0 2.221-1.779 4-4 4s-4-1.779-4-4 1.779-4 4-4zm5.186 7H30v9h-9v-8.695c.066-.1.126-.202.186-.305z" font-weight="400" font-family="sans-serif" white-space="normal" overflow="visible"/></svg>