<svg xmlns="http://www.w3.org/2000/svg" viewBox="0 0 50 50"><path d="M7 2v46h25c0 1.1.8 2 1.9 2h14.2c1 0 1.9-.9 1.9-1.9V33.9c0-1-.8-1.9-1.9-1.9H43V14.6L30.4 2H7zm23 2.4L40.6 15H30V4.4zM36 23a2 2 0 1 1 0 4c-.101 0-.199-.014-.297-.03l-5.844 7.305c.088.225.141.469.141.725a2 2 0 1 1-4 0c0-.219.044-.424.11-.621l-5.706-6.418c-.13.026-.266.039-.404.039-.178 0-.347-.031-.512-.074l-3.562 3.562c.044.164.074.334.074.512a2 2 0 1 1-2-2c.178 0 .347.031.512.074l3.562-3.562A1.965 1.965 0 0 1 18 26a2 2 0 1 1 4 0c0 .219-.044.424-.11.621l5.706 6.418a1.823 1.823 0 0 1 .701-.009l5.844-7.305A2.006 2.006 0 0 1 34 25a2 2 0 0 1 2-2zm-2 11h14v14H34V34z"/></svg>