<svg xmlns="http://www.w3.org/2000/svg" viewBox="0 0 50 50"><path style="line-height:normal;text-indent:0;text-align:start;text-decoration-line:none;text-decoration-style:solid;text-decoration-color:#000;text-transform:none;block-progression:tb;isolation:auto;mix-blend-mode:normal" d="M7 2v46h23v-2H9V4h20v12h12v14h2V14.586L30.414 2H7zm24 3.414L39.586 14H31V5.414zM27 18a1 1 0 0 0-1 1v9a1 1 0 0 0 1 1h9a1 1 0 0 0 1-1c0-5.511-4.489-10-10-10zm1 2.201c3.59.466 6.333 3.21 6.799 6.799H28v-6.799zM23 22c-5.514 0-10 4.486-10 10s4.486 10 10 10a9.963 9.963 0 0 0 7-2.871v-3.27C28.635 38.324 26.011 40 23 40c-4.411 0-8-3.589-8-8 0-4.072 3.059-7.444 7-7.938V32a1 1 0 0 0 1 1h7.115a3.884 3.884 0 0 1 1.201-2H24v-8a1 1 0 0 0-1-1zm10.9 10c-1.1 0-1.9.9-1.9 1.9V48c0 1.1.8 2 1.9 2h14.2c1 0 1.9-.9 1.9-1.9V33.9c0-1-.8-1.9-1.9-1.9H33.9zm.1 2h14v14H34V34z" font-weight="400" font-family="sans-serif" white-space="normal" overflow="visible"/></svg>