<svg xmlns="http://www.w3.org/2000/svg" viewBox="0 0 50 50"><path style="line-height:normal;text-indent:0;text-align:start;text-decoration-line:none;text-decoration-style:solid;text-decoration-color:#000;text-transform:none;block-progression:tb;isolation:auto;mix-blend-mode:normal" d="M7 2v46h23v-2H9V4h20v12h12v14h2V14.586L30.414 2H7zm24 3.414L39.586 14H31V5.414zM36 23a2 2 0 0 0-2 2c0 .256.053.5.14.725l-5.845 7.304A1.914 1.914 0 0 0 28 33c-.138 0-.272.014-.402.041l-5.707-6.418c.065-.198.109-.404.109-.623a2 2 0 1 0-4 0c0 .178.031.347.074.512l-3.562 3.562A1.965 1.965 0 0 0 14 30a2 2 0 1 0 2 2c0-.178-.031-.347-.074-.512l3.562-3.562c.164.044.334.074.512.074.138 0 .272-.014.402-.041l5.705 6.42A1.994 1.994 0 0 0 26 35a2 2 0 1 0 4 0c0-.256-.053-.5-.14-.725l.14-.173V33.9a3.9 3.9 0 0 1 3.227-3.832l2.476-3.097c.098.015.196.029.297.029a2 2 0 1 0 0-4zm-2.1 9c-1.1 0-1.9.9-1.9 1.9V48c0 1.1.8 2 1.9 2h14.2c1 0 1.9-.9 1.9-1.9V33.9c0-1-.8-1.9-1.9-1.9H33.9zm.1 2h14v14H34V34z" font-weight="400" font-family="sans-serif" white-space="normal" overflow="visible"/></svg>