<svg xmlns="http://www.w3.org/2000/svg" viewBox="0 0 26 26"><path d="M15.906 3.969c-.043.008-.086.02-.125.031a.994.994 0 0 0-.781.703c-.105.367.004.758.281 1.016L16.562 7h-5.718C10.398 5.277 8.864 4 7 4 4.79 4 3 5.79 3 8s1.79 4 4 4c1.863 0 3.398-1.277 3.844-3h5.719l-1.282 1.281a1.014 1.014 0 0 0 0 1.438c.399.398 1.04.398 1.438 0l3-3a.999.999 0 0 0 0-1.438l-3-3a1.004 1.004 0 0 0-.813-.312zm4 10c-.043.008-.086.02-.125.031a.994.994 0 0 0-.781.703c-.105.367.004.758.281 1.016L20.563 17h-5.72c-.445-1.723-1.98-3-3.843-3-2.21 0-4 1.79-4 4s1.79 4 4 4c1.863 0 3.398-1.277 3.844-3h5.719l-1.282 1.281a1.014 1.014 0 0 0 0 1.438c.399.398 1.04.398 1.438 0l3-3a.999.999 0 0 0 0-1.438l-3-3a1.004 1.004 0 0 0-.813-.312z"/></svg>