<svg xmlns="http://www.w3.org/2000/svg" viewBox="0 0 80 80"><path d="M27 6c-4.953 0-9 4.047-9 9s4.047 9 9 9c.492 0 .953-.09 1.422-.168L32.586 28l-5 5H8v36h64V33H52.414l-5-5 4.164-4.168c.469.078.93.168 1.422.168 4.953 0 9-4.047 9-9s-4.047-9-9-9-9 4.047-9 9c0 .492.09.953.168 1.422L40 20.586l-4.168-4.164c.078-.469.168-.93.168-1.422 0-4.953-4.047-9-9-9zm0 2c3.867 0 7 3.133 7 7a7.01 7.01 0 0 1-.184 1.566l-.125.543 22.672 22.668A9 9 0 0 1 59 46.141v5.445L29.11 21.69l-.544.125A7.01 7.01 0 0 1 27 22c-3.867 0-7-3.133-7-7s3.133-7 7-7zm26 0c3.867 0 7 3.133 7 7s-3.133 7-7 7a7.01 7.01 0 0 1-1.566-.184l-.543-.125L46 26.586 41.414 22l4.895-4.89-.125-.544A7.01 7.01 0 0 1 46 15c0-3.867 3.133-7 7-7zm-26 2c-2.75 0-5 2.25-5 5s2.25 5 5 5 5-2.25 5-5-2.25-5-5-5zm26 0c-2.75 0-5 2.25-5 5s2.25 5 5 5 5-2.25 5-5-2.25-5-5-5zm-26 2c1.668 0 3 1.332 3 3s-1.332 3-3 3-3-1.332-3-3 1.332-3 3-3zm26 0c1.668 0 3 1.332 3 3s-1.332 3-3 3-3-1.332-3-3 1.332-3 3-3zM40 26c-.55 0-1 .45-1 1s.45 1 1 1 1-.45 1-1-.45-1-1-1zm-6 3.414L37.586 33h-7.172zM10 35h29a1.002 1.002 0 0 0 1.469.883L61 56.414V46.141c0-2.914-1.16-5.715-3.223-7.778L54.414 35H70v32H41c0-.55-.45-1-1-1s-1 .45-1 1H10zm9 2c-.55 0-1 .45-1 1s.45 1 1 1 1-.45 1-1-.45-1-1-1zm42 0c-.55 0-1 .45-1 1s.45 1 1 1 1-.45 1-1-.45-1-1-1zm-21 1c-.55 0-1 .45-1 1s.45 1 1 1 1-.45 1-1-.45-1-1-1zm-22 2c-.55 0-1 .45-1 1s.45 1 1 1 1-.45 1-1-.45-1-1-1zm44 0c-.55 0-1 .45-1 1s.45 1 1 1 1-.45 1-1-.45-1-1-1zm-22 1c-5.512 0-10 4.488-10 10s4.488 10 10 10c.031 0 .063-.004.094-.004C45.562 60.941 50 56.48 50 51c0-5.512-4.488-10-10-10zm-24 1c-.55 0-1 .45-1 1s.45 1 1 1 1-.45 1-1-.45-1-1-1zm48 0c-.55 0-1 .45-1 1s.45 1 1 1 1-.45 1-1-.45-1-1-1zm-51 1c-.55 0-1 .45-1 1s.45 1 1 1 1-.45 1-1-.45-1-1-1zm27 0c4.43 0 8 3.57 8 8s-3.57 8-8 8-8-3.57-8-8 3.57-8 8-8zm27 0c-.55 0-1 .45-1 1s.45 1 1 1 1-.45 1-1-.45-1-1-1zm-27 1c-.55 0-1 .45-1 1s.45 1 1 1 1-.45 1-1-.45-1-1-1zm-18 3c-2.2 0-4 1.8-4 4s1.8 4 4 4 4-1.8 4-4-1.8-4-4-4zm18 1c-.55 0-1 .45-1 1s.45 1 1 1 1-.45 1-1-.45-1-1-1zm-18 1c1.117 0 2 .883 2 2s-.883 2-2 2-2-.883-2-2 .883-2 2-2zm18 3c-.55 0-1 .45-1 1s.45 1 1 1 1-.45 1-1-.45-1-1-1zm0 4c-.55 0-1 .45-1 1s.45 1 1 1 1-.45 1-1-.45-1-1-1zm-27 1c-.55 0-1 .45-1 1s.45 1 1 1 1-.45 1-1-.45-1-1-1zm54 0c-.55 0-1 .45-1 1s.45 1 1 1 1-.45 1-1-.45-1-1-1zm-51 1c-.55 0-1 .45-1 1s.45 1 1 1 1-.45 1-1-.45-1-1-1zm48 0c-.55 0-1 .45-1 1s.45 1 1 1 1-.45 1-1-.45-1-1-1zm-46 2c-.55 0-1 .45-1 1s.45 1 1 1 1-.45 1-1-.45-1-1-1zm44 0c-.55 0-1 .45-1 1s.45 1 1 1 1-.45 1-1-.45-1-1-1zm-22 2c-.55 0-1 .45-1 1s.45 1 1 1 1-.45 1-1-.45-1-1-1zm-21 1c-.55 0-1 .45-1 1s.45 1 1 1 1-.45 1-1-.45-1-1-1zm42 0c-.55 0-1 .45-1 1s.45 1 1 1 1-.45 1-1-.45-1-1-1zm-21 8c-.55 0-1 .45-1 1s.45 1 1 1 1-.45 1-1-.45-1-1-1z"/></svg>