<svg xmlns="http://www.w3.org/2000/svg" viewBox="0 0 24 24"><path d="M8.398 3a2.4 2.4 0 1 0 0 4.8c.356 0 .688-.077.985-.214L10.8 9l-2 2H2v10h20V11h-6.8L14 10l-3 3h8c.098.555.625.996 1 1v4c-.605.063-1.016.578-1 1H5c-.023-.46-.285-.969-1-1v-4c.355.02 1.004-.355 1-1h1.8l-.8.8v1.798h.602L9.199 13h.02l2-2h-.02l3.414-3.414c.301.137.633.215.985.215a2.4 2.4 0 1 0-2.399-2.403c0 .356.078.688.219.985L12 7.8l-1.418-1.418c.14-.297.219-.63.219-.985A2.4 2.4 0 0 0 8.398 3zm0 1.2c.668 0 1.204.542 1.204 1.198 0 .66-.536 1.204-1.204 1.204a1.202 1.202 0 0 1 0-2.402zm7.2 0c.668 0 1.203.542 1.203 1.198a1.2 1.2 0 0 1-2.398 0c0-.656.53-1.199 1.195-1.199zM12 14a1.999 1.999 0 1 0 0 4 1.999 1.999 0 1 0 0-4z" fill-rule="evenodd"/></svg>