<svg xmlns="http://www.w3.org/2000/svg" viewBox="0 0 80 80"><path d="M19 15c-4.957 0-9 4.043-9 9s4.043 9 9 9c4.621 0 8.441-3.512 8.941-8.004.02 0 .04.004.059.004.55 0 1-.45 1-1s-.45-1-1-1h-.059c-.5-4.488-4.32-8-8.941-8zm23.707 1.293l-1.414 1.414L47.586 24l-6.293 6.293 1.414 1.414L50.414 24zM19 17c3.879 0 7 3.121 7 7s-3.121 7-7 7-7-3.121-7-7 3.121-7 7-7zm13 6c-.55 0-1 .45-1 1s.45 1 1 1 1-.45 1-1-.45-1-1-1zm4 0c-.55 0-1 .45-1 1s.45 1 1 1 1-.45 1-1-.45-1-1-1zm4 0c-.55 0-1 .45-1 1s.45 1 1 1 1-.45 1-1-.45-1-1-1zm4 0c-.55 0-1 .45-1 1s.45 1 1 1 1-.45 1-1-.45-1-1-1zm-6 24c-4.957 0-9 4.043-9 9s4.043 9 9 9c4.621 0 8.441-3.512 8.941-8H47c.55 0 1-.45 1-1s-.45-1-1-1c-.02 0-.04.004-.059.004C46.441 50.512 42.621 47 38 47zm23.707 1.293l-1.414 1.414L66.586 56l-6.293 6.293 1.414 1.414L69.414 56zM38 49c3.879 0 7 3.121 7 7s-3.121 7-7 7-7-3.121-7-7 3.121-7 7-7zm13 6c-.55 0-1 .45-1 1s.45 1 1 1 1-.45 1-1-.45-1-1-1zm4 0c-.55 0-1 .45-1 1s.45 1 1 1 1-.45 1-1-.45-1-1-1zm4 0c-.55 0-1 .45-1 1s.45 1 1 1 1-.45 1-1-.45-1-1-1zm4 0c-.55 0-1 .45-1 1s.45 1 1 1 1-.45 1-1-.45-1-1-1z"/></svg>