<svg xmlns="http://www.w3.org/2000/svg" viewBox="0 0 50 50"><path d="M34.063 3.031A5.02 5.02 0 0 0 30.5 4.5l-2 2c-.988.988-1.398 2.316-1.344 3.656l-2.187 2.188-2.125-2.094c.043-1.328-.364-2.676-1.344-3.656l-2-2a5.02 5.02 0 0 0-3.563-1.469 4.95 4.95 0 0 0-3.53 1.469 5.036 5.036 0 0 0 0 7.125l2 2c.972.972 2.277 1.347 3.593 1.312L22 19H3v26h44V19H31.625l-1.844-1.844L32 14.938c1.316.035 2.621-.372 3.594-1.344l2-2a4.998 4.998 0 0 0 0-7.094 4.95 4.95 0 0 0-3.532-1.469zm0 1.938c.761 0 1.507.32 2.124.937 1.231 1.23 1.231 3.051 0 4.282l-2 2a2.983 2.983 0 0 1-2.53.812.998.998 0 0 0-.876.281l-2.437 2.438-1.969-1.969 2.438-2.438a.998.998 0 0 0 .28-.874 2.983 2.983 0 0 1 .813-2.532l2-2c.617-.617 1.395-.937 2.157-.937zm-18.126.125c.762 0 1.54.289 2.157.906l2 2c.664.664.957 1.66.812 2.531a.999.999 0 0 0 .282.875L35.53 25.75c.989.906 1.469 2.086 1.469 3.438v1.875l-4.281-4.25v-.032l-.125-.093-1.969-1.938-11.406-11.344a.998.998 0 0 0-.875-.281c-.871.145-1.867-.18-2.532-.844l-2-2c-1.23-1.23-1.23-3.05 0-4.281.618-.617 1.364-.906 2.126-.906zm.626 2.062c-.375 0-.762.137-1.063.438-.602.601-.602 1.492 0 2.093l1 1c.5.5 1.492.5 2.094 0 .601-.601.601-1.492 0-2.093l-1-1a1.425 1.425 0 0 0-1.032-.438zm16.875 0c-.376 0-.731.137-1.032.438l-1 1c-.5.5-.5 1.492 0 2.094.602.601 1.492.601 2.094 0l1-1c.602-.602.602-1.493 0-2.094a1.492 1.492 0 0 0-1.063-.438zM25 16c-.61 0-1.094.484-1.094 1.094 0 .61.485 1.093 1.094 1.093.61 0 1.094-.484 1.094-1.093 0-.61-.485-1.094-1.094-1.094zM5 21h2.344c-.219.39-.375.758-.5 1.031-.102.23-.211.375-.219.407v.03l-.031.032c.027-.027-.192.121-.5.25-.301.125-.684.281-1.094.469zm5.594 0h13.375l.031.031v1.032c-4.535.546-8 4.824-8 9.937 0 5.113 3.469 9.387 8 9.938V43H10.594c-.903 0-1.106-.3-1.438-.875-.164-.29-.316-.64-.469-1-.152-.36-.3-.738-.687-1.125l-.063-.063c-.386-.332-.726-.425-1.093-.562-.367-.137-.75-.27-1.063-.406-.312-.137-.543-.293-.656-.407-.113-.113-.125-.12-.125-.25V25.688c0-.067.016-.094.031-.125a.433.433 0 0 1 .094-.125c.117-.118.371-.262.688-.407.316-.144.687-.281 1.062-.437.352-.145.71-.301 1.063-.625v-.032c.019-.015.042-.015.062-.03.375-.352.54-.735.688-1.063.156-.352.273-.688.437-.969.082-.14.168-.266.25-.375a1.28 1.28 0 0 1 .281-.281c.211-.149.485-.219.938-.219zm23.031 0h5.781c.903 0 1.137.309 1.469.875.164.281.281.617.438.969.148.328.312.71.687 1.062.02.02.043.012.063.032.007.007-.008.023 0 .03.351.325.71.481 1.062.626.375.156.746.293 1.063.437.316.145.57.29.687.407.117.117.125.12.125.25v12.5c0 .128-.008.164-.125.28-.117.118-.371.262-.688.407-.316.145-.687.281-1.062.438-.375.156-.746.308-1.125.687-.387.387-.535.766-.688 1.125-.152.36-.304.71-.468 1-.332.574-.535.875-1.438.875H26v-1.063c4.531-.55 8-4.824 8-9.937 0-.379-.059-.754-.094-1.125l3.375 3.344A1.002 1.002 0 0 0 39 33.5v-4.313c0-.23-.008-.46-.031-.687a6.579 6.579 0 0 0-2.063-4.219zm9.031 0H45v2.219c-.41-.188-.793-.344-1.094-.469-.308-.129-.527-.277-.5-.25l-.031-.031v-.032c-.008-.03-.117-.175-.219-.406-.125-.273-.281-.64-.5-1.031zM24 24.094V27h2v-2.875c.547.11 1.102.281 1.625.531l2.219 2.157 1.25 1.218v.032C31.652 29.172 32 30.53 32 32c0 4.117-2.66 7.355-6 7.906V37h-2v2.906c-3.34-.55-6-3.789-6-7.906 0-4.117 2.66-7.355 6-7.906zM24 29v6h2v-6zm21 11.688V43h-2.344c.219-.406.375-.8.5-1.094.14-.324.285-.535.25-.5-.027.028.192-.12.5-.25.301-.125.684-.281 1.094-.468zM5 40.78c.414.18.813.32 1.125.438.297.11.5.226.5.218-.008 0 .09.168.219.47.125.292.281.687.5 1.093H5z"/></svg>