<svg xmlns="http://www.w3.org/2000/svg" viewBox="0 0 40 40"><path d="M6.5 26c.105-2.094.984-3.14 1.953-4.11L21.816 8.524l3.536 3.536L6.504 30.773c0-.98-.004-2.57-.004-4.773z" fill="#b6dcfe"/><path d="M21.816 9.23l2.829 2.829L7.004 29.574C7 28.66 7 27.488 7 26.051c.098-1.946.875-2.875 1.809-3.809L21.816 9.23m0-1.414L8.102 21.536C7.055 22.581 6.113 23.73 6 26c0 4 .012 5.969.012 5.969l20.05-19.91z" fill="#4788c7"/><path d="M20.914 9.43l1.727-1.727-.047-.262A4.93 4.93 0 0 1 22.5 6.5c0-2.758 2.242-5 5-5s5 2.242 5 5-2.242 5-5 5c-.367 0-.75-.047-1.133-.133l-.27-.062-1.652 1.652zM27.5 4.168A2.336 2.336 0 0 0 25.168 6.5 2.336 2.336 0 0 0 27.5 8.832 2.336 2.336 0 0 0 29.832 6.5 2.336 2.336 0 0 0 27.5 4.168z" fill="#98ccfd"/><path d="M27.5 2C29.98 2 32 4.02 32 6.5S29.98 11 27.5 11c-.328 0-.672-.04-1.02-.121l-.543-.125-.39.39-1.102 1.106-2.824-2.82 1.563-1.563-.102-.52A4.576 4.576 0 0 1 23 6.5C23 4.02 25.02 2 27.5 2m0 7C28.879 9 30 7.879 30 6.5S28.879 4 27.5 4A2.502 2.502 0 0 0 25 6.5C25 7.879 26.121 9 27.5 9m0-8C24.46 1 22 3.46 22 6.5c0 .355.035.7.102 1.035l-1.891 1.89 4.234 4.235 1.809-1.808c.402.093.816.148 1.246.148 3.04 0 5.5-2.46 5.5-5.5S30.54 1 27.5 1zm0 7a1.5 1.5 0 1 1 0-3 1.5 1.5 0 0 1 0 3z" fill="#4788c7"/><path d="M1.5 19.5h36v19h-36z" fill="#98ccfd"/><path d="M37 20v18H2V20h35m1-1H1v20h37z" fill="#4788c7"/><path d="M26 29c0-3.867-2.91-7-6.5-7S13 25.133 13 29s2.91 7 6.5 7 6.5-3.133 6.5-7zm-16 0a3 3 0 1 1-6.002-.002A3 3 0 0 1 10 29zm25 0a3 3 0 1 1-6.002-.002A3 3 0 0 1 35 29z" fill="#fff"/><path d="M12.648 12.059l3.536-3.536 13.363 13.368c.969.968 1.848 2.015 1.953 4.132 0 2.192-.004 3.774-.004 4.75z" fill="#dff0fe"/><path d="M16.184 9.23L29.19 22.242c.934.934 1.711 1.863 1.809 3.758.145 1.5 0 2.652-.004 3.574L13.356 12.06l2.828-2.829m0-1.414l-4.247 4.247 20.051 19.91C31.992 31.969 32 30 32 26c-.113-2.27-1.055-3.418-2.102-4.465z" fill="#4788c7"/><path d="M11.902 11.305l-.27.062a5.205 5.205 0 0 1-1.132.133c-2.758 0-5-2.242-5-5s2.242-5 5-5 5 2.242 5 5c0 .305-.031.621-.094.941l-.047.262 1.727 1.727-3.527 3.527zM10.5 4.168A2.336 2.336 0 0 0 8.168 6.5 2.336 2.336 0 0 0 10.5 8.832 2.336 2.336 0 0 0 12.832 6.5 2.336 2.336 0 0 0 10.5 4.168z" fill="#98ccfd"/><path d="M10.5 2C12.98 2 15 4.02 15 6.5c0 .273-.027.559-.082.848l-.102.52.375.374 1.188 1.184-2.824 2.82-1.492-1.492-.543.125A4.452 4.452 0 0 1 10.5 11C8.02 11 6 8.98 6 6.5S8.02 2 10.5 2m0 7C11.879 9 13 7.879 13 6.5S11.879 4 10.5 4A2.502 2.502 0 0 0 8 6.5C8 7.879 9.121 9 10.5 9m0-8C7.46 1 5 3.46 5 6.5S7.46 12 10.5 12c.43 0 .844-.055 1.246-.148l1.809 1.812 4.234-4.234-1.89-1.895A5.498 5.498 0 0 0 10.5 1zm0 7a1.5 1.5 0 1 1 0-3 1.5 1.5 0 0 1 0 3zm9.5 7c0 .55-.45 1-1 1s-1-.45-1-1 .45-1 1-1 1 .45 1 1zm-.5 19a.504.504 0 0 1-.5-.5v-3c0-.273.227-.5.5-.5s.5.227.5.5v3c0 .273-.227.5-.5.5zm0-6a.504.504 0 0 1-.5-.5v-3c0-.273.227-.5.5-.5s.5.227.5.5v3c0 .273-.227.5-.5.5zm0 11a.504.504 0 0 1-.5-.5v-2c0-.273.227-.5.5-.5s.5.227.5.5v2c0 .273-.227.5-.5.5zm0-17a.504.504 0 0 1-.5-.5v-2c0-.273.227-.5.5-.5s.5.227.5.5v2c0 .273-.227.5-.5.5z" fill="#4788c7"/></svg>