<svg xmlns="http://www.w3.org/2000/svg" viewBox="0 0 64 64"><linearGradient id="a" gradientUnits="userSpaceOnUse" x1="12" y1="11.167" x2="12" y2="17" spreadMethod="reflect"><stop offset="0" stop-color="#6dc7ff"/><stop offset="1" stop-color="#e6abff"/></linearGradient><circle cx="12" cy="14" r="2" fill="url(#a)"/><linearGradient id="b" gradientUnits="userSpaceOnUse" x1="12" y1="29" x2="12" y2="34.5" spreadMethod="reflect"><stop offset="0" stop-color="#6dc7ff"/><stop offset="1" stop-color="#e6abff"/></linearGradient><circle cx="12" cy="32" r="2" fill="url(#b)"/><linearGradient id="c" gradientUnits="userSpaceOnUse" x1="12" y1="46.833" x2="12" y2="53.009" spreadMethod="reflect"><stop offset="0" stop-color="#6dc7ff"/><stop offset="1" stop-color="#e6abff"/></linearGradient><circle cx="12" cy="50" r="2" fill="url(#c)"/><linearGradient id="d" gradientUnits="userSpaceOnUse" x1="31.562" y1="7.167" x2="31.562" y2="57.68" spreadMethod="reflect"><stop offset="0" stop-color="#1a6dff"/><stop offset="1" stop-color="#c822ff"/></linearGradient><path d="M25.802 19.303a3.007 3.007 0 0 0 1.923.697H39c1.654 0 3-1.346 3-3v-6c0-1.654-1.346-3-3-3H27.725c-.702 0-1.385.248-1.922.696l-3.599 2.999c-.686.572-1.08 1.412-1.08 2.305s.394 1.733 1.08 2.305l3.598 2.998zM40 11v6c0 .551-.449 1-1 1h-1.184c.112-.314.184-.648.184-1v-6c0-.352-.072-.686-.184-1H39c.551 0 1 .449 1 1zm-16.516 2.231l3.599-2.999a1.01 1.01 0 0 1 .642-.232H35c.551 0 1 .449 1 1v6c0 .551-.449 1-1 1h-7.275a1.01 1.01 0 0 1-.642-.232l-3.599-2.999c-.313-.261-.36-.594-.36-.769s.047-.508.36-.769z" fill="url(#d)"/><linearGradient id="e" gradientUnits="userSpaceOnUse" x1="12" y1="7.167" x2="12" y2="57.68" spreadMethod="reflect"><stop offset="0" stop-color="#1a6dff"/><stop offset="1" stop-color="#c822ff"/></linearGradient><path d="M12 8c-3.309 0-6 2.691-6 6s2.691 6 6 6 6-2.691 6-6-2.691-6-6-6zm0 10c-2.206 0-4-1.794-4-4s1.794-4 4-4 4 1.794 4 4-1.794 4-4 4z" fill="url(#e)"/><linearGradient id="f" gradientUnits="userSpaceOnUse" x1="35.562" y1="7.167" x2="35.562" y2="57.68" spreadMethod="reflect"><stop offset="0" stop-color="#1a6dff"/><stop offset="1" stop-color="#c822ff"/></linearGradient><path d="M25.802 37.303a3.007 3.007 0 0 0 1.923.697H47c1.654 0 3-1.346 3-3v-6c0-1.654-1.346-3-3-3H27.725c-.702 0-1.385.248-1.922.696l-3.599 2.999c-.686.572-1.08 1.412-1.08 2.305s.394 1.733 1.08 2.305l3.598 2.998zM48 29v6c0 .551-.449 1-1 1h-1.184c.112-.314.184-.648.184-1v-6c0-.352-.072-.686-.184-1H47c.551 0 1 .449 1 1zm-24.516 2.231l3.599-2.999a1.01 1.01 0 0 1 .642-.232H43c.551 0 1 .449 1 1v6c0 .551-.449 1-1 1H27.725a1.01 1.01 0 0 1-.642-.232l-3.599-2.999c-.313-.261-.36-.594-.36-.769s.047-.508.36-.769z" fill="url(#f)"/><linearGradient id="g" gradientUnits="userSpaceOnUse" x1="12" y1="7.167" x2="12" y2="57.68" spreadMethod="reflect"><stop offset="0" stop-color="#1a6dff"/><stop offset="1" stop-color="#c822ff"/></linearGradient><path d="M12 26c-3.309 0-6 2.691-6 6s2.691 6 6 6 6-2.691 6-6-2.691-6-6-6zm0 10c-2.206 0-4-1.794-4-4s1.794-4 4-4 4 1.794 4 4-1.794 4-4 4z" fill="url(#g)"/><linearGradient id="h" gradientUnits="userSpaceOnUse" x1="39.562" y1="7.167" x2="39.562" y2="57.68" spreadMethod="reflect"><stop offset="0" stop-color="#1a6dff"/><stop offset="1" stop-color="#c822ff"/></linearGradient><path d="M55 44H27.725c-.702 0-1.385.248-1.922.696l-3.599 2.999c-.686.572-1.08 1.412-1.08 2.305s.394 1.733 1.08 2.305l3.598 2.998a3.007 3.007 0 0 0 1.923.697H55c1.654 0 3-1.346 3-3v-6c0-1.654-1.346-3-3-3zM27.725 54a1.01 1.01 0 0 1-.642-.232l-3.599-2.999c-.313-.261-.36-.594-.36-.769s.047-.508.36-.769l3.599-2.999a1.01 1.01 0 0 1 .642-.232H51c.551 0 1 .449 1 1v6c0 .551-.449 1-1 1H27.725zM56 53c0 .551-.449 1-1 1h-1.184c.112-.314.184-.648.184-1v-6c0-.352-.072-.686-.184-1H55c.551 0 1 .449 1 1v6z" fill="url(#h)"/><linearGradient id="i" gradientUnits="userSpaceOnUse" x1="12" y1="7.167" x2="12" y2="57.68" spreadMethod="reflect"><stop offset="0" stop-color="#1a6dff"/><stop offset="1" stop-color="#c822ff"/></linearGradient><path d="M12 44c-3.309 0-6 2.691-6 6s2.691 6 6 6 6-2.691 6-6-2.691-6-6-6zm0 10c-2.206 0-4-1.794-4-4s1.794-4 4-4 4 1.794 4 4-1.794 4-4 4z" fill="url(#i)"/></svg>