<svg xmlns="http://www.w3.org/2000/svg" viewBox="0 0 26 26"><path style="line-height:normal;text-indent:0;text-align:start;text-decoration-line:none;text-decoration-style:solid;text-decoration-color:#000;text-transform:none;block-progression:tb;isolation:auto;mix-blend-mode:normal" d="M2 2v2h3V2H2zm5 0v2h9V2H7zm11 0v2h2V2h-2zm4 0v2h2V2h-2zM2 7v2h3V7H2zm5 0v2h9V7H7zm15 0v2h2V7h-2zM2 12v2h3v-2H2zm5 0v2h9v-2H7zm15 0v2h2v-2h-2zM2 17v2h3v-2H2zm5 0v2h9v-2H7zm11 0v2h2v-2h-2zm4 0v2h2v-2h-2zM2 22v2h3v-2H2zm5 0v2h9v-2H7zm15 0v2h2v-2h-2z"/></svg>