<svg xmlns="http://www.w3.org/2000/svg" viewBox="0 0 40 40"><rect x="24.5" y="28.5" width="14" height="10" fill="#8bb7f0"/><path d="M38 29v9H25v-9h13m1-1H24v11h15V28z" fill="#4e7ab5"/><rect x="24.5" y="13.5" width="14" height="10" fill="#8bb7f0"/><path d="M38 14v9H25v-9h13m1-1H24v11h15V13z" fill="#4e7ab5"/><rect x="1.5" y="1.5" width="14" height="10" fill="#f78f8f"/><path d="M15 2v9H2V2h13m1-1H1v11h15V1z" fill="#c74343"/><polygon points="24,33 9,33 9,12 8,12 8,34 24,34" fill="#66798f"/><rect x="15.5" y="10.5" transform="rotate(-90 16 18.5)" width="1" height="16" fill="#66798f"/></svg>