<svg xmlns="http://www.w3.org/2000/svg" viewBox="0 0 24 24"><path d="M13.441 2.344a2.55 2.55 0 0 0-.914.195c-.203.082-.39.191-.558.328a.07.07 0 0 0-.028.02h-.004v.004c-.007.004-.015.011-.027.015a.141.141 0 0 0-.02.024h-.003l-.012.007-.063.063-.011.008a3.51 3.51 0 0 0-.121.125l-.008.015-.012.008-.004.004v.004l-.015.016v.004l-.016.015v.004h-.004l-.012.016-.004.008-.023.023-.02.023v.008l-.007.008-.008.016h-.004v.004a.069.069 0 0 0-.016.02l-.004.007-.007.008v.004l-.004.004a2.774 2.774 0 0 0-.45 1.195v.016l-.003.007v.004c-.004.012-.004.02-.004.031v.004l-.004.004c0 .012 0 .024-.004.035v.04a4.752 4.752 0 0 0 .113 1.593v.008l.004.008.004.02.004.011v.008l.004.016.008.02v.01l.011.044a7 7 0 0 0 .43 1.199v.004l.012.016.008.023.003.004v.004l.008.011.016.032v.004l.004.004.011.03.004.009c.012.015.016.03.024.046.035.075.074.145.113.22.082.167.18.335.293.507.008.008.012.016.02.024a.085.085 0 0 0 .02.03v.005c.35.511.777.968 1.226 1.39l.004.004.004.008.015.016.012.004c.027.03.058.058.09.09l.008.003.007.008c.012.012.028.024.043.04l.043.042.032.024.027.023v.004c.11.094.215.187.328.277v.004h.004l.023.02.008.008c.02.015.035.027.05.042l.005.004h.004c.633.524 1.304.996 1.926 1.391.558-.352 1.156-.77 1.726-1.223.29-.23.57-.468.836-.718l.04-.032.003-.007.02-.02.011-.008a8.97 8.97 0 0 0 1.172-1.324l.004-.004a.196.196 0 0 1 .027-.031l.016-.031a4.42 4.42 0 0 0 .332-.555c.059-.106.113-.219.168-.328l.02-.047.003-.004.008-.02.012-.023v-.004l.004-.004.012-.027.003-.012v-.004l.008-.011.012-.028v-.004h.004c.215-.484.379-.988.477-1.508v-.007c.003-.012.003-.024.003-.04l.012-.042V5.93c.004-.012.004-.024.004-.04l.004-.003.004-.02v-.015l.004-.008.004-.04v-.007c.004-.012.004-.024.007-.04v-.023l.004-.015V5.71c.004-.012 0-.024.004-.035v-.024l.004-.02h.004V5.63c0-.012 0-.027.004-.04v-.042c.004-.016.004-.027.004-.043V5.5l.004-.008v-.02l.004-.007v-.05l.004-.009v-.05a5.253 5.253 0 0 0 0-.497v-.007l-.008-.079-.004-.011c-.043-.508-.188-1.008-.484-1.426l-.02-.031a.082.082 0 0 1-.016-.024l-.047-.054-.015-.024-.027-.027-.02-.028-.047-.046-.02-.028L20.235 3l-.027-.023-.023-.024-.055-.047-.024-.02-.027-.019-.027-.023-.055-.04-.027-.023-.032-.015-.027-.02c-.008-.008-.02-.012-.027-.02l-.028-.015-.062-.04-.016-.007-.011-.008-.188-.094-.031-.011-.035-.016-.063-.023-.035-.012-.035-.016-.035-.007c-.008-.008-.016-.008-.028-.012l-.023-.008a2.578 2.578 0 0 0-1.48-.012h-.004l-.012.004-.008.004a2.725 2.725 0 0 0-1.129.672l-.015.016a.069.069 0 0 1-.016.02h-.004A3.627 3.627 0 0 0 16.02 4c-.399-.762-.954-1.234-1.543-1.469l-.024-.008-.043-.02a2.628 2.628 0 0 0-.969-.16zM21.18 12.46c-.176-.02-.364 0-.547.039a1.91 1.91 0 0 0-.871.5l-4.38 4h-3.82l-.812-.828 3.207-.652c.469-.098.93-.579.95-1.02.027-.754-.427-1.5-1.13-1.5H7.953c-.883 0-1.734.55-2.36 1.188L1.978 17.87l3.8 3.629 1.38-1.246a.832.832 0 0 1 .59-.254h7.737c.446 0 .864-.188 1.176-.504l5.012-5.105a1.217 1.217 0 0 0-.04-1.746.802.802 0 0 0-.452-.184z" fill-rule="evenodd"/></svg>