<svg xmlns="http://www.w3.org/2000/svg" viewBox="0 0 48 48"><path d="M32.398 28.102L19.2 35.898l3.102 4L35 32.301c1.102-.7 1.5-2.2.8-3.301a2.464 2.464 0 0 0-3.402-.898z" fill="#e39d36"/><path d="M36 28.5l-13.2 7.8 3.098 4L38.5 32.7c1.102-.7 1.5-2.2.8-3.302-.698-1.097-2.198-1.5-3.3-.898z" fill="#eda740"/><path d="M38.898 29.398L26.5 36.7l-5.898-3.398 2.898 1.597c1.3.704 2.898.5 3.898-.597 1.301-1.5.903-3.801-.796-4.7l-12.403-6.8c-1.097-.602-2.5-.602-3.699 0L5 26.1v10.8l4-2.5 15.102 8.203c1.199.597 2.597.597 3.796-.102L41.7 34.2c1.301-.802 1.7-2.4.903-3.7-.704-1.398-2.403-1.8-3.704-1.102z" fill="#ffb74d"/><path d="M26.5 36.8l-1.3-.902-10.7-6 8 6.602c1.2.898 2.7 1 4 .3z" fill="#eda740"/><path d="M24.398 34.2c-.898-.5-.597-1.302-.097-2.2.5-.898.898-1.602 1.8-1.102.899.5 1.297 1.602.797 2.5-.398.903-1.5 1.204-2.5.801z" fill="#ffcc80"/><path d="M36.5 15.102c.898-1.102 1.5-2.5 1.5-4C38 7.8 35.2 5 31.7 5 29.2 5 27 6.398 26 8.602 25 6.398 22.8 5 20.3 5 16.8 5 14 7.8 14 11.2c0 1.6.602 3 1.602 4.1C20.898 21.399 26 25 26 25s5.3-3.5 10.5-9.898z" fill="#ff3d00"/></svg>