<svg xmlns="http://www.w3.org/2000/svg" viewBox="0 0 16 16"><path d="M1 1v1h13V1zm11.5 1a.499.499 0 1 0 0 1 .499.499 0 1 0 0-1zm-5 0a.499.499 0 1 0 0 1 .499.499 0 1 0 0-1zm-5 0a.499.499 0 1 0 0 1 .499.499 0 1 0 0-1zm0 2a.499.499 0 1 0 0 1 .499.499 0 1 0 0-1zm5 0a.499.499 0 1 0 0 1 .499.499 0 1 0 0-1zm4 0c-.277 0-.5.223-.5.5v3c0 .277.223.5.5.5h.5v5H8v-3h.5c.277 0 .5-.223.5-.5v-3c0-.277-.223-.5-.5-.5h-2c-.277 0-.5.223-.5.5v3c0 .277.223.5.5.5H7v3H3.016v-1H3.5c.277 0 .5-.223.5-.5v-3c0-.277-.223-.5-.5-.5h-2c-.277 0-.5.223-.5.5v3c0 .277.223.5.5.5h.516v1H1v1h13v-1h-1V8h.5c.277 0 .5-.223.5-.5v-3c0-.277-.223-.5-.5-.5zm.5 1h1v2h-1zM2.5 6a.499.499 0 1 0 0 1 .499.499 0 1 0 0-1zM7 7h1v2H7zM2 9h1v2H2z"/></svg>