<svg xmlns="http://www.w3.org/2000/svg" viewBox="0 0 40 40"><rect x="1.5" y="6.5" width="37" height="27" fill="#f78f8f"/><path d="M38 7v26H2V7h36m1-1H1v28h38V6z" fill="#c74343"/><path d="M16.452 14.298l-3.928 11.403h-2.91L5.733 14.298H8.5l2.378 7.936c.127.429.204.808.231 1.137h.048a6.36 6.36 0 0 1 .247-1.169l2.362-7.904h2.686zm5.494 11.404h-2.568V14.298h2.568v11.404zm6.556-3.929v3.928h-2.568V14.298h4.024c2.873 0 4.31 1.211 4.31 3.634 0 1.145-.412 2.071-1.237 2.779-.824.708-1.926 1.062-3.304 1.062h-1.225zm0-5.502v3.555h1.01c1.368 0 2.052-.599 2.052-1.797 0-1.172-.684-1.757-2.052-1.757h-1.01z" fill="#fff"/></svg>