<svg xmlns="http://www.w3.org/2000/svg" viewBox="0 0 26 26"><path d="M19.5 0c-2.238 0-3.945.89-5 2.094C13.445 3.297 13 4.75 13 6c0 1.883.96 3.426 2.219 4.438C16.477 11.448 18.03 12 19.5 12c1.46 0 3.02-.523 4.281-1.531C25.043 9.46 26 7.899 26 6c0-3.04-2.605-6-6.5-6zm0 2C22.402 2 24 4.094 24 6c0 1.242-.582 2.2-1.469 2.906C21.645 9.613 20.45 10 19.5 10c-.945 0-2.145-.41-3.031-1.125C15.582 8.16 15 7.219 15 6c0-.734.297-1.793 1-2.594.703-.8 1.77-1.406 3.5-1.406zM7.437 6.063c-1.007 0-2.16.464-2.875 1.75-.71 1.285-.96 3.039-.406 4.468-.02.106-.187-.097-.25.563-.062.636.223 1.547.531 1.969.137.18.348.308.5.374 0 0 .184 1.149 1.063 2.22.203.847-.656 1.28-.656 1.28-2.766.54-5.313 2.075-5.313 3.75v1.313c0 1.82 4.219 2.219 8 2.219 3.781 0 7.938-1.106 7.938-2.219v-1.281c0-1.676-2.516-3.246-5.281-3.782 0 0-1.028-.222-.532-1.28.614-.833.969-1.786 1-2.095 0 0 .946-.746 1-1.874.059-1.126-.187-1.188-.187-1.188.398-1.227.492-5.676-2.438-5.125-.207-.605-1.086-1.063-2.094-1.063zM16.5 12a1.5 1.5 0 1 0 0 3 1.5 1.5 0 0 0 0-3zM14 15c-.55 0-1 .45-1 1s.45 1 1 1 1-.45 1-1-.45-1-1-1z"/></svg>