<svg xmlns="http://www.w3.org/2000/svg" viewBox="0 0 48 48"><path d="M31 12l-7-7-7 7h5v8h4v-8z" fill="#1b5e20"/><path d="M43 18c-2.2 0-4 1.8-4 4v17H9V22c0-2.2-1.8-4-4-4H3v4h2v17c0 2.2 1.8 4 4 4h30c2.2 0 4-1.8 4-4V22h2v-4z" fill="#8bc34a"/><path d="M34 27c0 5.523-4.477 10-10 10s-10-4.477-10-10 4.477-10 10-10 10 4.477 10 10z" fill="#ffc107"/><path d="M20.2 27l.698-6H27.5v2h-4.7l-.3 2.5c.602-.3 1.2-.398 1.8-.398 1.098 0 2 .398 2.7 1 .602.699 1 1.699 1 2.898 0 .8-.2 1.398-.5 2.102a3.18 3.18 0 0 1-1.398 1.398c-.602.3-1.301.5-2.102.5-.7 0-1.398-.102-2-.398a4.415 4.415 0 0 1-1.5-1.204c-.398-.5-.5-1.097-.602-1.796H22.2c0 .5.2.898.5 1.199.301.3.7.398 1.2.398s.902-.199 1.203-.597c.296-.403.398-.903.398-1.602 0-.7-.2-1.2-.5-1.5-.3-.398-.8-.5-1.398-.5-.602 0-1 .102-1.403.398l-.199.204z" fill="#fff8e1"/></svg>