<svg xmlns="http://www.w3.org/2000/svg" viewBox="0 0 50 50"><path d="M6 2v46h26.582a24.408 24.408 0 0 1-2.434-2H8V4h34v25.152A8.33 8.33 0 0 1 43.5 29c.168 0 .336.016.5.027V2zm7 12v2h4v-2zm7 0v2h17v-2zm-7 6v2h4v-2zm7 0v2h17v-2zm-7 6v2h4v-2zm7 0v2h17v-2zm14.5 5c-3.602 0-6.5 2.855-6.5 6.3 0 5.415 5 8.665 8.2 10.731.898.59 1.6.985 2.1 1.48l.602.489.598-.492c.5-.395 1.3-.887 2.098-1.477C45 45.867 50 42.715 50 37.301 50 33.855 47.102 31 43.5 31c-1.7 0-3.3.688-4.5 1.77-1.2-1.083-2.8-1.77-4.5-1.77zM13 32v2h4v-2zm7 0v2h6.703a8.316 8.316 0 0 1 1.262-2zm14.5.969c1.5 0 2.8.718 3.7 2L39 36l.8-1.031c.802-1.18 2.2-2 3.7-2 2.5 0 4.5 1.968 4.5 4.332 0 4.332-4.2 7.086-7.3 9.058-.7.391-1.2.786-1.7 1.082-.5-.394-1-.691-1.7-1.082-3.1-1.972-7.3-4.726-7.3-9.058 0-2.364 2-4.332 4.5-4.332z"/></svg>