<svg xmlns="http://www.w3.org/2000/svg" viewBox="0 0 64 64"><linearGradient id="a" gradientUnits="userSpaceOnUse" x1="32" y1="9.167" x2="32" y2="54.686" spreadMethod="reflect"><stop offset="0" stop-color="#1a6dff"/><stop offset="1" stop-color="#c822ff"/></linearGradient><path d="M58 33v-1c0-4.794-4.206-9-9-9-4.275 0-7.855 2.998-8.768 7H32v-8h8c1.103 0 2-.897 2-2v-8c0-1.103-.897-2-2-2H23c-6.065 0-11 4.935-11 11v1h10v8H9c-1.654 0-3 1.346-3 3v4c0 1.654 1.346 3 3 3h13v11c0 1.654 1.346 3 3 3h4c1.654 0 3-1.346 3-3V40h8.232c.913 4.002 4.494 7 8.768 7 4.794 0 9-4.206 9-9v-1l-8-.031.031-3.969H58zM39 12h1v8h-2v-8h1zm-16 0h13v8H14.056c.499-4.494 4.319-8 8.944-8zm7 10v2h-6v-2h6zM9 38c-.552 0-1-.449-1-1v-4c0-.551.448-1 1-1h13v2h-8v2h8v2H9zm20 14h-4c-.552 0-1-.449-1-1V26h2v10h2V26h2v25c0 .551-.448 1-1 1zm21.031-13h5.881c-.521 3.007-3.307 6-6.912 6-3.859 0-7-3.14-7-7H32v-2h8v-2h-8v-2h10c0-3.86 3.141-7 7-7 3.605 0 6.391 2.993 6.912 6h-5.881c-1.12 0-2.031.911-2.031 2.031v3.938c0 1.12.911 2.031 2.031 2.031z" fill="url(#a)"/><linearGradient id="b" gradientUnits="userSpaceOnUse" x1="39" y1="11.5" x2="39" y2="20.896" spreadMethod="reflect"><stop offset="0" stop-color="#6dc7ff"/><stop offset="1" stop-color="#e6abff"/></linearGradient><rect x="38" y="12" width="2" height="8" fill="url(#b)"/></svg>