<svg xmlns="http://www.w3.org/2000/svg" viewBox="0 0 48 48"><path d="M7 31h10v10H7zm28.3-11.7l-5.6-5.6a.967.967 0 0 1 0-1.4l5.6-5.6a.967.967 0 0 1 1.4 0l5.6 5.6c.4.4.4 1 0 1.4l-5.6 5.6a.967.967 0 0 1-1.4 0z" fill="#00bcd4"/><path d="M18 13c0 3.313-2.688 6-6 6-3.313 0-6-2.688-6-6 0-3.313 2.688-6 6-6 3.313 0 6 2.688 6 6z" fill="#3f51b5"/><path d="M42 36c0 3.313-2.688 6-6 6-3.313 0-6-2.688-6-6 0-3.313 2.688-6 6-6 3.313 0 6 2.688 6 6z" fill="#448aff"/><path d="M11 24h2v5h-2z" fill="#90a4ae"/><path d="M12 21l-3 4h6zm8-9h5v2h-5z" fill="#90a4ae"/><path d="M28 13l-4-3v6zm7 8h2v5h-2z" fill="#90a4ae"/><path d="M36 29l3-4h-6z" fill="#90a4ae"/></svg>