<svg xmlns="http://www.w3.org/2000/svg" viewBox="0 0 64 64"><path d="M7 7h16a2 2 0 0 1 2 2v16a2 2 0 0 1-2 2H7a2 2 0 0 1-2-2V9a2 2 0 0 1 2-2z" fill="#f9e3ae"/><path d="M7 27h8V7H7a2 2 0 0 0-2 2v16a2 2 0 0 0 2 2z" fill="#faefde"/><path d="M39.098 47.586l8.484-8.484a2 2 0 0 1 2.828 0l8.485 8.484a2 2 0 0 1 0 2.828l-8.485 8.484a2 2 0 0 1-2.828 0l-8.484-8.484a2 2 0 0 1 0-2.828z" fill="#72caaf"/><path d="M60 17c0 6.074-4.926 11-11 11s-11-4.926-11-11S42.926 6 49 6s11 4.926 11 11z" fill="#f283a5"/><path d="M56 17c0 3.867-3.133 7-7 7s-7-3.133-7-7 3.133-7 7-7 7 3.133 7 7z" fill="#ed7899"/><path d="M14.129 39.5l-9.27 16A1 1 0 0 0 5.73 57h18.54a1 1 0 0 0 .87-1.5l-9.269-16a1.008 1.008 0 0 0-.871-.508c-.36 0-.691.196-.871.508z" fill="#85cbf8"/><path d="M58.422 50.41l-8.5 8.488a1.993 1.993 0 0 1-1.41.582v-21c.527 0 1.035.208 1.41.579l8.488 8.492c.387.375.606.89.606 1.426a1.994 1.994 0 0 1-.594 1.433z" fill="#5dbc9d"/><path d="M5.73 57H15V39a1 1 0 0 0-.871.5l-9.258 16a.997.997 0 0 0 .86 1.5z" fill="#6fc6f0"/><path d="M24 48v2c0 .55.45 1 1 1s1-.45 1-1v-2c0-.55-.45-1-1-1s-1 .45-1 1zm6-1c-.55 0-1 .45-1 1v2c0 .55.45 1 1 1s1-.45 1-1v-2c0-.55-.45-1-1-1zm5 0c-.55 0-1 .45-1 1v2c0 .55.45 1 1 1s1-.45 1-1v-2c0-.55-.45-1-1-1zm16.121-8.61a2.912 2.912 0 0 0-1.36-.742l3.938-3.937c.34-.398.317-.988-.05-1.36a1.004 1.004 0 0 0-1.36-.05L50 34.59v-5.64c6.41-.536 11.258-6.032 10.988-12.458-.265-6.43-5.554-11.5-11.988-11.5-6.434 0-11.723 5.07-11.988 11.5C36.742 22.918 41.59 28.414 48 28.95v5.64l-2.29-2.288a1.004 1.004 0 0 0-1.358.05 1.004 1.004 0 0 0-.051 1.36l3.937 3.937c-.511.122-.98.375-1.36.743l-8.487 8.48a2.994 2.994 0 0 0 0 4.238l8.48 8.493a3.001 3.001 0 0 0 4.238 0l8.493-8.493a3.001 3.001 0 0 0 0-4.238zM39 17c0-5.523 4.477-10 10-10s10 4.477 10 10-4.477 10-10 10-10-4.477-10-10zm19.191 32.71L49.7 58.2c-.39.386-1.02.386-1.41 0l-8.488-8.49a1.002 1.002 0 0 1 0-1.41l8.488-8.491a1.002 1.002 0 0 1 1.41 0l8.492 8.492c.387.39.387 1.02 0 1.41z" fill="#8d6c9f"/><path d="M36.71 16.29l-4-4a1 1 0 0 0-1.41 1.41l2.29 2.3H26V9a3 3 0 0 0-3-3H7a3 3 0 0 0-3 3v16a3 3 0 0 0 3 3h16a3 3 0 0 0 3-3v-7h7.59l-2.29 2.29a1.01 1.01 0 0 0-.323.995c.09.363.375.649.738.738.367.086.75-.039.996-.324l4-4c.387-.39.387-1.02 0-1.41zM24 25c0 .55-.45 1-1 1H7c-.55 0-1-.45-1-1V9c0-.55.45-1 1-1h16c.55 0 1 .45 1 1z" fill="#8d6c9f"/><path d="M14.29 28.29l-4 4a1 1 0 0 0 1.41 1.41l2.3-2.29V38c-.008.078-.008.16 0 .238a2.03 2.03 0 0 0-.781.75L4 55a1.998 1.998 0 1 0 1.73 3h18.54A1.998 1.998 0 0 0 26 55l-9.27-16a2.002 2.002 0 0 0-.78-.75A1.12 1.12 0 0 0 16 38v-6.59l2.29 2.29c.398.34.987.316 1.358-.052.368-.37.391-.96.051-1.359l-4-4a1.002 1.002 0 0 0-1.41 0zM24.27 56H5.73L15 40z" fill="#8d6c9f"/></svg>