<svg xmlns="http://www.w3.org/2000/svg" viewBox="0 0 48 48"><path d="M18 16h12v28H18z" fill="#e0e0e0"/><path d="M30 18l-12 5.5v3.234l12-5.5zm0 16.234V31l-12 5.5v3.234z" fill="#f44336"/><path d="M30 24.266l-12 5.5V33l12-5.5zM27.086 42L30 40.734V37.5L20.184 42zm-7.961-26L18 16.602V20l8.277-4z" fill="#3f51b5"/><path d="M24 48c3.313 0 6-2.688 6-6H18c0 3.313 2.688 6 6 6zm3.313-38h-6.625A5.984 5.984 0 0 0 18 15h12a5.984 5.984 0 0 0-2.688-5z" fill="#b71c1c"/><path d="M32 41c0-.555-.445-1-1-1H17c-.555 0-1 .445-1 1v1c0 .555.445 1 1 1h14c.555 0 1-.445 1-1zm0-25c0 .555-.445 1-1 1H17c-.555 0-1-.445-1-1v-1c0-.555.445-1 1-1h14c.555 0 1 .445 1 1z" fill="#d32f2f"/><path d="M29 5a5 5 0 1 1-10 0 5 5 0 0 1 10 0z" fill="#ffd54f"/><path d="M26 8a1.999 1.999 0 1 1-4 0 1.999 1.999 0 1 1 4 0z" fill="#ffecb3"/></svg>