<svg xmlns="http://www.w3.org/2000/svg" viewBox="0 0 64 64"><linearGradient id="a" gradientUnits="userSpaceOnUse" x1="32" y1="51" x2="32" y2="13" gradientTransform="matrix(1 0 0 -1 0 64)" spreadMethod="reflect"><stop offset="0" stop-color="#1a6dff"/><stop offset="1" stop-color="#c822ff"/></linearGradient><path d="M42 38h-2v-3h-2.8c-1.1 1.8-3 3-5.2 3s-4.1-1.2-5.2-3H24v3h-2v-3h-2.7L16 37.2 12.7 35H9v2H7V27h2v2h3.7l3.3-2.2 3.3 2.2H22v-3h2v3h2.8c1.1-1.8 3-3 5.2-3s4.1 1.2 5.2 3H40v-3h2v3h2.7l3.3-2.2 3.3 2.2H55v-2h2v10h-2v-2h-3.7L48 37.2 44.7 35H42v3zm-18-5h4.1l.3.6c.6 1.5 2.1 2.4 3.7 2.4s3-.9 3.7-2.4l.3-.6h9.4l2.7 1.8 2.7-1.8h4.3v-2h-4.3l-2.7-1.8-2.7 1.8h-9.4l-.3-.6c-.6-1.5-2.1-2.4-3.7-2.4s-3 .9-3.7 2.4l-.3.6h-9.4L16 29.2 13.3 31H9v2h4.3l2.7 1.8 2.7-1.8H24zm28 18H12c-2.2 0-4-1.8-4-4v-2H6c-2.2 0-4-1.8-4-4V23c0-2.2 1.8-4 4-4h2v-2c0-2.2 1.8-4 4-4h40c2.2 0 4 1.8 4 4v2h2c2.2 0 4 1.8 4 4v18c0 2.2-1.8 4-4 4h-2v2c0 2.2-1.8 4-4 4zM6 21c-1.1 0-2 .9-2 2v18c0 1.1.9 2 2 2h4v4c0 1.1.9 2 2 2h40c1.1 0 2-.9 2-2v-4h4c1.1 0 2-.9 2-2V23c0-1.1-.9-2-2-2h-4v-4c0-1.1-.9-2-2-2H12c-1.1 0-2 .9-2 2v4H6zm28-2H14v2h20v-2zm-4 26h20v-2H30v2z" fill="url(#a)"/><linearGradient id="b" gradientUnits="userSpaceOnUse" x1="16" y1="-362.75" x2="16" y2="-353.996" gradientTransform="translate(0 402)" spreadMethod="reflect"><stop offset="0" stop-color="#6dc7ff"/><stop offset="1" stop-color="#e6abff"/></linearGradient><path d="M12 39v6c0 1.1.9 2 2 2h6l-8-8z" fill="url(#b)"/></svg>