<svg xmlns="http://www.w3.org/2000/svg" viewBox="0 0 80 80"><path d="M25 27c-.55 0-1 .45-1 1s.45 1 1 1 1-.45 1-1-.45-1-1-1zm30 0c-.55 0-1 .45-1 1s.45 1 1 1 1-.45 1-1-.45-1-1-1zm-34.39.578c-.024 0-.047.004-.075.004a1 1 0 0 0-.902 1.258 1 1 0 0 0 1.832.242.991.991 0 0 0 .101-.758 1.006 1.006 0 0 0-.957-.746zm8.78 0a1.002 1.002 0 0 0-.25 1.969c.258.07.532.031.758-.102a1 1 0 0 0-.508-1.867zm21.22 0c-.024 0-.047.004-.07.004a1 1 0 0 0-.902 1.258.993.993 0 0 0 1.221.707.997.997 0 0 0 .707-1.223 1.006 1.006 0 0 0-.957-.746zm8.78 0a.998.998 0 0 0-.953.746.998.998 0 1 0 1.93.516 1 1 0 0 0-.976-1.262zm-42.913 1.7c-.168.003-.332.05-.477.132-.23.133-.398.352-.469.61a1.01 1.01 0 0 0 .102.757c.133.23.351.399.61.465.253.07.527.035.757-.101a.996.996 0 0 0 .363-1.364.993.993 0 0 0-.886-.5zm29.996 0zm-13.02.003A.998.998 0 0 0 33 31.144a.996.996 0 0 0 1.363-.363.982.982 0 0 0 .102-.761.988.988 0 0 0-1.012-.739zm30 0a1 1 0 0 0-.922 1.258.99.99 0 0 0 .469.606.997.997 0 0 0 1.363-.363 1 1 0 0 0-.91-1.5zm-50.46 2.7a1.016 1.016 0 0 0-.723.289 1.012 1.012 0 0 0 0 1.417c.39.387 1.027.387 1.418 0a1.012 1.012 0 0 0 0-1.417.992.992 0 0 0-.696-.29zm24.042 0a.984.984 0 0 0-.722.289 1.003 1.003 0 0 0 0 1.417c.39.387 1.023.387 1.414 0 .39-.39.39-1.027 0-1.417a.992.992 0 0 0-.692-.29zm5.957 0a1.016 1.016 0 0 0-.722.289 1.012 1.012 0 0 0 0 1.417 1.01 1.01 0 0 0 1.417 0 1.012 1.012 0 0 0 0-1.417.992.992 0 0 0-.695-.29zm24.043 0a.984.984 0 0 0-.722.289 1.003 1.003 0 0 0 0 1.417c.39.387 1.023.387 1.414 0 .39-.39.39-1.027 0-1.417a.992.992 0 0 0-.692-.29zM25 35c-5.512 0-10 4.488-10 10s4.488 10 10 10 10-4.488 10-10-4.488-10-10-10zm15 0c-.55 0-1 .45-1 1s.45 1 1 1 1-.45 1-1-.45-1-1-1zm15 0c-5.512 0-10 4.488-10 10s4.488 10 10 10 10-4.488 10-10-4.488-10-10-10zm-44.77.5a.997.997 0 0 0-.453 1.863.996.996 0 0 0 1.364-.363.975.975 0 0 0 .101-.758.998.998 0 0 0-1.012-.742zm59.47 0c-.169.004-.333.05-.481.133a1.016 1.016 0 0 0-.465.61.975.975 0 0 0 .101.757.97.97 0 0 0 .606.465.97.97 0 0 0 .758-.102.994.994 0 0 0 .367-1.363 1.001 1.001 0 0 0-.887-.5zM25 37c4.43 0 8 3.57 8 8s-3.57 8-8 8-8-3.57-8-8 3.57-8 8-8zm30 0c4.43 0 8 3.57 8 8s-3.57 8-8 8-8-3.57-8-8 3.57-8 8-8zM8.57 39.602a1 1 0 0 0-.957.742.993.993 0 0 0 .707 1.222 1 1 0 1 0 .25-1.964zm62.887 0a1 1 0 1 0 .223 1.965.997.997 0 0 0 .707-1.223.997.997 0 0 0-.93-.742zM8 44c-.55 0-1 .45-1 1s.45 1 1 1 1-.45 1-1-.45-1-1-1zm64 0c-.55 0-1 .45-1 1s.45 1 1 1 1-.45 1-1-.45-1-1-1z"/></svg>