<svg xmlns="http://www.w3.org/2000/svg" id="Layer_1" viewBox="0 0 64 64"><style>.st0{fill:url(#SVGID_1__55871)}.st1{fill:url(#SVGID_2__55871)}.st2{fill:url(#SVGID_3__55871)}</style><linearGradient id="SVGID_1__55871" gradientUnits="userSpaceOnUse" x1="314.469" y1="-334.878" x2="314.469" y2="-286.38" gradientTransform="rotate(-45.001 572.996 209.008)" spreadMethod="reflect"><stop offset="0" stop-color="#1a6dff"/><stop offset="1" stop-color="#c822ff"/></linearGradient><path class="st0" d="M50.6 17.9c.4.4.4 1 0 1.4-.4.4-1 .4-1.4 0s-.4-1 0-1.4 1-.4 1.4 0zm8.3 1.4h-.3c-.1 0-.1-.1-.2-.1l-3.1-.8c0-.9-.4-1.8-1.1-2.6l-1.4-1.4c-1.8-1.8-4.2-1.5-6.5.8l-.7.7L8.9 6.1c-1.6-.4-3.3.5-3.7 2.1l-1.1 3.9c-.4 1.6.5 3.3 2.1 3.7l22.3 5.9c2.7.7 3.7-.4 4.6-1.4.7-.8 1.3-1.5 3.1-1.9.6-.1 2.9.1 6.1.5l-30.2 29c-2 2-2 5.2-.1 7.2l1.4 1.4c2 2 5.2 2 7.2-.1l32.7-34.2c.5-.5.9-1.1 1.3-1.6.8.1 1.5.2 2.3.4.1.6.5 1.1 1.1 1.2.8.2 1.6-.3 1.9-1.1.3-.7-.2-1.5-1-1.8zm-23.1-2.8c-2.4.5-3.4 1.7-4.2 2.5-.8.9-1 1.2-2.5.8L6.8 13.9c-.5-.1-.9-.7-.7-1.2l1.1-3.9c0-.6.6-.9 1.1-.8l33 8.7c-2.7-.2-4.8-.4-5.5-.2zM52 20.8L42.3 31 40 28.6 38.6 30l2.4 2.4-2.8 2.9-2.4-2.4-1.4 1.4 2.5 2.5-2.8 2.9-2.5-2.5-1.4 1.4 2.6 2.6-2.8 2.9-3-2.6-1.4 1.5 2.7 2.7-2.8 2.9-2.7-2.7-1.4 1.4 2.7 2.7-4.9 5c-1.2 1.2-3.1 1.2-4.3.1l-1.4-1.4c-1.2-1.2-1.2-3.1 0-4.3l34.2-32.8c2.2-2.2 3.3-1.1 3.6-.8l1.4 1.4c.4.4 1.5 1.5-.7 3.6z"/><linearGradient id="SVGID_2__55871" gradientUnits="userSpaceOnUse" x1="20.23" y1="11.295" x2="20.23" y2="19.967" spreadMethod="reflect"><stop offset="0" stop-color="#6dc7ff"/><stop offset="1" stop-color="#e6abff"/></linearGradient><path class="st1" d="M31.6 19c.4-.5.9-1 1.6-1.5L10 11.4c-1.1-.3-2.2.4-2.5 1.4L7.2 14l21.9 5.8c1.5.4 1.8.1 2.5-.8z"/><linearGradient id="SVGID_3__55871" gradientUnits="userSpaceOnUse" x1="292.66" y1="-296.893" x2="289.802" y2="-294.035" gradientTransform="rotate(-45.001 572.996 209.008)" spreadMethod="reflect"><stop offset="0" stop-color="#6dc7ff"/><stop offset="1" stop-color="#e6abff"/></linearGradient><circle class="st2" cx="17" cy="51.5" r="2"/></svg>