<svg xmlns="http://www.w3.org/2000/svg" viewBox="0 0 40 40"><path d="M20 36.5c-6.895 0-12.5-5.605-12.5-12.5 0-1.758.367-3.469 1.09-5.09l.426-.95-1.008.267a8.614 8.614 0 0 1-2.18.293c-1.094 0-2.64-.25-3.793-1.422C-.457 14.566.172 9.805 3.437 6.484 5.301 4.586 7.665 3.5 9.915 3.5c1.578 0 2.941.54 3.941 1.555 1.543 1.57 1.942 4.05 1.07 6.636l-.34 1.004.99-.375c1.437-.543 2.929-.82 4.425-.82s2.98.273 4.418.82l.988.371-.34-1c-.87-2.582-.468-5.062 1.079-6.632 1-1.02 2.363-1.559 3.937-1.559 2.254 0 4.613 1.09 6.48 2.984 3.266 3.32 3.895 8.082 1.403 10.614-.91.93-2.32 1.437-3.969 1.437a8.59 8.59 0 0 1-1.976-.234l-.977-.23.402.917A12.407 12.407 0 0 1 32.5 24c0 6.895-5.605 12.5-12.5 12.5z" fill="#b6dcfe"/><path d="M30.086 4c2.117 0 4.348 1.031 6.121 2.832 3.074 3.129 3.703 7.574 1.402 9.914-.82.832-2.101 1.29-3.613 1.29a8.218 8.218 0 0 1-1.86-.22l-1.952-.46.804 1.835A11.868 11.868 0 0 1 32 24c0 6.617-5.383 12-12 12S8 30.617 8 24c0-1.688.352-3.328 1.047-4.883l.851-1.906-2.02.531a8.079 8.079 0 0 1-2.05.278c-1 0-2.402-.223-3.437-1.274C.09 14.406.719 9.961 3.793 6.832 5.566 5.032 7.797 4 9.914 4c1.441 0 2.68.488 3.586 1.406 1.406 1.434 1.762 3.723.95 6.13l-.677 2.003 1.98-.75A11.933 11.933 0 0 1 20 12c1.434 0 2.86.266 4.238.785l1.98.75-.675-2.004c-.813-2.402-.453-4.691.957-6.125C27.406 4.484 28.645 4 30.086 4m0-1c-1.645 0-3.168.555-4.3 1.703-1.743 1.777-2.087 4.496-1.192 7.149A12.897 12.897 0 0 0 20 11c-1.621 0-3.168.313-4.602.855.895-2.652.563-5.375-1.187-7.148C13.082 3.555 11.559 3 9.914 3 7.621 3 5.098 4.082 3.082 6.133c-3.46 3.52-4.117 8.558-1.402 11.316 1.074 1.09 2.558 1.57 4.148 1.57.758 0 1.535-.109 2.305-.312A12.939 12.939 0 0 0 7 24c0 7.18 5.82 13 13 13s13-5.82 13-13c0-1.855-.395-3.613-1.094-5.21a9.23 9.23 0 0 0 2.09.245c1.652 0 3.238-.48 4.324-1.586 2.715-2.758 2.059-7.8-1.402-11.316C34.902 4.082 32.378 3 30.086 3z" fill="#4788c7"/><path d="M28 26c-.262 0-.508.055-.734.145C28.32 23.906 29 20.94 29 19.5a4.501 4.501 0 0 0-9 0 4.501 4.501 0 0 0-9 0c0 1.441.68 4.406 1.734 6.645A1.984 1.984 0 0 0 12 26a2 2 0 0 0-2 2c-.031 3.074 3.102 8 10 8s9.887-4.887 10-8a2 2 0 0 0-2-2z" fill="#fff"/><path d="M23 29c0-1.105-1.344-2-3-2s-3 .895-3 2 1.344 2 3 2 3-.895 3-2z" fill="#4788c7"/><path d="M21 28.5c0-.277-.45-.5-1-.5s-1 .223-1 .5.45.5 1 .5 1-.223 1-.5z" fill="#dff0fe"/><path d="M24 23c0-1.656-.672-3-1.5-3S21 21.344 21 23s.672 3 1.5 3 1.5-1.344 1.5-3zm-5 0c0-1.656-.672-3-1.5-3S16 21.344 16 23s.672 3 1.5 3 1.5-1.344 1.5-3z" fill="#4788c7"/></svg>