<svg xmlns="http://www.w3.org/2000/svg" viewBox="0 0 50 50"><path d="M18 7.969a1.006 1.006 0 0 0-.156.031.466.466 0 0 0-.063.031s-.98.207-1.906.938a4.952 4.952 0 0 0-1.594 2.281 4.026 4.026 0 0 0-1.875-1.313c-1.023-.34-1.969-.28-1.969-.28-.55.034-.972.511-.937 1.062.035.55.512.972 1.063.937 0 0 .605-.015 1.218.188.285.094.543.23.75.406-5.476 1.074-10.039 5.594-10.437 11-.207.082-.414.148-.656.313C.718 24.047 0 25.063 0 26.5c0 1.46 1.059 2.527 2.375 2.969 1.395 5.062 5.984 7.824 10.156 8.593.688.555 1.524.938 2.469.938.945 0 1.781-.383 2.469-.938 2.633-.488 5.441-1.753 7.5-3.906 2.082 2.16 4.886 3.414 7.531 3.907.688.562 1.543.937 2.5.937.945 0 1.781-.383 2.469-.938 4.172-.769 8.761-3.53 10.156-8.593C48.941 29.027 50 27.96 50 26.5c0-1.36-.723-2.344-1.406-2.844a3.708 3.708 0 0 0-.782-.437c-.703-5.754-5.66-10.614-11.687-11.157.191-.726.582-1.171 1-1.5.574-.449 1.094-.593 1.094-.593A1.005 1.005 0 1 0 37.844 8a.466.466 0 0 0-.063.031s-.98.207-1.906.938a4.952 4.952 0 0 0-1.594 2.281 4.026 4.026 0 0 0-1.875-1.313c-1.023-.34-1.968-.28-1.968-.28a1.003 1.003 0 0 0-.938 1.062c.035.55.512.972 1.063.937 0 0 .605-.015 1.218.188.293.097.57.219.782.406a13.69 13.69 0 0 0-7.688 4.438c-2.156-2.54-5.27-4.313-8.75-4.625.191-.727.582-1.172 1-1.5.574-.45 1.094-.594 1.094-.594a1.005 1.005 0 1 0-.219-2zM14.812 14c.075.008.145.008.22 0 5.671.016 10.679 4.809 10.968 10.063l.063.937h.812c.027.008.055.016.094.031a2 2 0 0 1 .437.25c.317.23.594.496.594 1.219 0 .715-.55 1.262-1.25 1.313l-.719.062-.187.719c-1.02 4.472-5.149 6.918-8.907 7.562l-.312.032-.219.218A1.99 1.99 0 0 1 15 37a1.99 1.99 0 0 1-1.406-.594l-.219-.218-.313-.032c-3.757-.644-7.886-3.09-8.906-7.562l-.187-.719-.719-.063C2.55 27.762 2 27.215 2 26.5c0-.86.281-1.09.563-1.281a1.471 1.471 0 0 1 .53-.219H4v-1c0-4.848 4.54-9.262 9.719-9.906.258.086.539.062.781-.063.105-.004.207-.031.313-.031zm20 0c.075.008.145.008.22 0h.187c5.597.121 10.496 4.867 10.781 10.063l.063.937h.812c.027.008.055.016.094.031a2 2 0 0 1 .437.25c.317.23.594.496.594 1.219 0 .715-.55 1.262-1.25 1.313l-.719.062-.187.719c-1.02 4.472-5.149 6.918-8.907 7.562l-.312.032-.219.218A1.99 1.99 0 0 1 35 37a1.99 1.99 0 0 1-1.406-.594l-.219-.218-.313-.032c-2.433-.418-5.054-1.644-6.843-3.625.597-.91 1.09-1.922 1.406-3.062 1.191-.399 2.168-1.309 2.344-2.563.16.059.347.094.531.094a1.5 1.5 0 0 0 0-3 1.5 1.5 0 0 0-1.125.5c-.238-.348-.508-.645-.781-.844a3.708 3.708 0 0 0-.782-.437c-.21-1.723-.828-3.371-1.718-4.844 1.793-2.25 4.578-3.89 7.562-4.281h.063c.258.086.539.062.781-.063.105-.004.207-.031.313-.031zM10.5 24a1.5 1.5 0 1 0 0 3 1.5 1.5 0 0 0 0-3zm9 0a1.5 1.5 0 1 0 0 3 1.5 1.5 0 0 0 0-3zm20 0a1.5 1.5 0 1 0 0 3 1.5 1.5 0 0 0 0-3zm-28.125 5.938a1 1 0 0 0-.5 1.78S12.504 33 15 33s4.125-1.281 4.125-1.281a1 1 0 1 0-1.25-1.563S16.852 31 15 31s-2.875-.844-2.875-.844a.996.996 0 0 0-.75-.218zm20 0a1 1 0 0 0-.5 1.78S32.504 33 35 33s4.125-1.281 4.125-1.281a1 1 0 1 0-1.25-1.563S36.852 31 35 31s-2.875-.844-2.875-.844a.996.996 0 0 0-.75-.218z"/></svg>