<svg xmlns="http://www.w3.org/2000/svg" viewBox="0 0 24 24"><path d="M5.313 2v2c1.3 0 1.886.895 2.187 1.594-3.3.5-5.793 3.21-6.094 6.812C.606 12.805 0 13.711 0 14.812c0 1.102.688 2.075 1.688 2.376.601 1.199 2.5 3.812 7 3.812 1.3 0 2.32-.2 3.218-.5 1 .398 2.106.594 3.406.594 4.602 0 6.399-2.582 7-3.782 1-.3 1.688-1.207 1.688-2.406 0-1.101-.605-2.008-1.406-2.406-.301-3.5-2.707-6.086-5.907-6.688.2-.3.618-.625 1.22-.625v-2c-1 0-1.813.407-2.313.907C14.894 2.992 13.804 2 11.906 2v2c1.399 0 1.989 1.012 2.188 1.813-.7.101-1.399.292-2 .593-.602-.3-1.207-.52-1.906-.718.199-.301.624-.5 1.124-.5v-2c-1 0-1.812.406-2.312.906C8.3 2.992 7.21 2 5.312 2zm10 5.5c3.5 0 5.28 2.79 5.28 5.688v1h1c.302 0 .407.3.407.5 0 .398-.105.624-.406.624h-.688l-.218.688s-.977 3-5.375 3c-.301 0-.7.008-1-.094.699-.699 1.175-1.406 1.374-1.906 1-.3 1.72-1.207 1.72-2.406 0-.414-.102-.77-.25-1.094.175.293.48.5.843.5.55 0 1-.45 1-1s-.45-1-1-1-1 .45-1 1c0 .137.043.254.094.375A2.456 2.456 0 0 0 16 12.312c-.2-1.8-.898-3.425-2-4.624.398-.102.914-.188 1.313-.188zm-6.626.094c3.5 0 5.313 2.82 5.313 5.718v1h1c.3 0 .406.301.406.5 0 .2-.105.5-.406.5h-.688l-.218.688c0 .102-1.106 3-5.406 3-4.301 0-5.274-2.898-5.376-3l-.218-.688h-.688c-.199 0-.406-.3-.406-.5 0-.199.105-.5.406-.5h1v-1c0-2.8 1.781-5.718 5.281-5.718zM6 12c-.55 0-1 .45-1 1s.45 1 1 1 1-.45 1-1-.45-1-1-1zm5 0c-.55 0-1 .45-1 1s.45 1 1 1 1-.45 1-1-.45-1-1-1z"/></svg>