<?xml version="1.0" encoding="utf-8"?>
<!-- Generator: Adobe Illustrator 22.0.1, SVG Export Plug-In . SVG Version: 6.00 Build 0)  -->
<svg version="1.1" xmlns="http://www.w3.org/2000/svg" xmlns:xlink="http://www.w3.org/1999/xlink" x="0px" y="0px"
	 viewBox="0 0 339.091 385.588" enable-background="new 0 0 339.091 385.588" xml:space="preserve">
<g id="Background">
</g>
<g id="Objects">
	<g>
		<g id="XMLID_9_">
			<g>
				<path fill="#FFFFFF" d="M291.294,47.003c-0.023,0.094-0.053,0.181-0.076,0.268c-2.19,0.27-4.371,0.54-6.388,0.784
					c-1.798-1.8-3.502-3.498-5.205-5.204c0.978-1.469,2.779-2.152,4.528-1.523c1.032,0.368,2.089,0.854,2.904,1.555
					C288.559,44.151,289.892,45.616,291.294,47.003z"/>
				<path fill="#FFFFFF" d="M274.261,29.218c-1.211,0.804-2.302,1.818-3.315,2.864c-0.639,0.673-1.158,1.526-1.52,2.385
					c-1.286,3.059-2.014,6.255-2.292,9.557c-0.507,5.991-0.206,11.959,0.261,17.933c0.141,1.821,0.219,3.643,0.321,5.457
					c0.074,1.303-0.318,2.407-1.252,3.342c-1.036,1.038-2.347,1.159-3.533,0.281c-0.925-0.676-1.949-1.956-2.763-3.441
					c0.665-1.286,1.315-2.423,1.863-3.598c0.995-2.153,0.991-4.486,0.98-6.772c-0.007-2.655-0.194-5.301-0.358-7.955
					c-0.226-3.518,0.052-6.953,1.249-10.302c0.591-1.647,1.048-3.332,1.994-4.825c1.621-2.543,3.907-4.338,6.527-5.735
					c1.799-0.966,3.735-1.524,5.751-1.8c0.29-0.042,0.589,0.011,0.778,0.009C277.413,27.456,275.761,28.224,274.261,29.218z"/>
				<path fill="#FFFFFF" d="M259.259,12.69c0.023-0.008,0.063,0.039,0.126,0.085c-2.993,4.723-5.986,9.446-9.002,14.201
					c-0.048-0.102-0.151-0.227-0.184-0.36c-0.472-1.929-0.92-3.85-1.415-5.77c-0.13-0.502-0.07-0.911,0.154-1.36
					c0.765-1.515,1.491-3.061,2.271-4.568c0.147-0.268,0.467-0.554,0.757-0.619C254.389,13.736,256.828,13.213,259.259,12.69z"/>
				<path fill="#FFFFFF" d="M254.673,59.716c-0.32,0.262-0.523,0.444-0.741,0.603c-2.514,1.852-5.044,3.696-7.542,5.578
					c-0.492,0.366-0.899,0.495-1.513,0.343c-0.394-0.091-0.787-0.174-1.196-0.241c-0.763-0.143-1.55-0.254-2.384-0.404
					c0.209-0.347,0.348-0.616,0.519-0.861c1.591-2.268,3.207-4.521,4.782-6.804c0.31-0.45,0.639-0.657,1.166-0.544
					c0.464,0.106,0.936,0.165,1.385,0.303c1.323,0.413,2.647,0.842,3.947,1.295c0.126,0.046,0.252,0.1,0.378,0.154
					C253.853,59.306,254.231,59.507,254.673,59.716z"/>
				<path fill="#FFFFFF" d="M253.129,77.884c1.121,1.593,2.631,2.688,4.133,3.838c-8.067-1.684-13.531-6.808-17.931-13.425
					c-0.024-0.023-0.04-0.055-0.056-0.078c1.653-2.434,1.052-2.004,3.724-1.854c0.212,0.014,0.409,0.036,0.598,0.074
					c1.306,0.24,2.067,1.02,2.855,2.223C248.529,71.834,250.935,74.784,253.129,77.884z"/>
				<path fill="#3A2C43" d="M284.829,48.055c2.017-0.245,4.199-0.515,6.388-0.784c0.023-0.087,0.054-0.173,0.076-0.268
					c-1.402-1.387-2.734-2.852-4.238-4.12c-0.815-0.7-1.872-1.186-2.904-1.555c-1.749-0.629-3.551,0.053-4.528,1.523
					C281.327,44.557,283.031,46.255,284.829,48.055z M263.903,38.969c-1.197,3.349-1.475,6.784-1.249,10.302
					c0.164,2.654,0.351,5.3,0.358,7.955c0.011,2.286,0.015,4.619-0.98,6.772c-0.548,1.175-1.198,2.312-1.863,3.598
					c0.814,1.486,1.838,2.766,2.763,3.441c1.186,0.878,2.497,0.757,3.533-0.281c0.935-0.935,1.326-2.038,1.252-3.342
					c-0.102-1.814-0.18-3.636-0.321-5.457c-0.467-5.975-0.768-11.943-0.261-17.933c0.279-3.302,1.006-6.498,2.292-9.557
					c0.362-0.859,0.881-1.712,1.52-2.385c1.013-1.046,2.104-2.06,3.315-2.864c1.5-0.995,3.151-1.763,4.692-2.601
					c-0.189,0.002-0.488-0.051-0.778-0.009c-2.017,0.276-3.952,0.835-5.751,1.8c-2.62,1.397-4.907,3.192-6.527,5.735
					C264.951,35.637,264.494,37.322,263.903,38.969z M239.332,68.298c4.4,6.617,9.864,11.741,17.931,13.425
					c-1.502-1.15-3.012-2.245-4.133-3.838c-2.194-3.1-4.6-6.05-6.677-9.222c-0.788-1.203-1.549-1.982-2.855-2.223l0.083-0.441
					c0.409,0.067,0.803,0.15,1.196,0.241c0.614,0.152,1.021,0.023,1.513-0.343c2.498-1.883,5.028-3.727,7.542-5.578
					c0.219-0.159,0.421-0.341,0.741-0.603c-0.442-0.208-0.82-0.409-1.199-0.579l0.216-0.512c0.465,0.192,0.915,0.409,1.357,0.641
					c0.323,0.162,0.601,0.498,0.792,0.818c1.052,1.814,2.073,3.651,3.11,5.481c0.199,0.336,0.414,0.664,0.685,1.102
					c0.257-0.309,0.475-0.522,0.63-0.767c1.256-1.99,1.984-4.157,1.988-6.514c0.008-2.805,0.055-5.633-0.189-8.428
					c-0.435-5.04,0.216-9.861,2.085-14.559c1.654-4.154,4.719-6.859,8.623-8.754c3.74-1.807,7.636-1.926,11.603-0.97
					c0.614,0.144,1.182,0.446,1.758,0.716c3.107,1.443,6.091,3.107,8.407,5.704c1.499,1.676,2.842,3.504,4.286,5.235
					c0.468,0.577,0.37,1.034-0.034,1.587c-1.569,2.15-3.264,4.175-5.126,6.084c-1.176,1.204-2.435,1.906-4.115,2.038
					c-1.452,0.106-2.904,0.378-4.339,0.657c-0.565,0.107-0.841-0.071-1.206-0.461c-1.229-1.341-2.52-2.634-3.796-3.928
					c-0.269-0.273-0.609-0.474-0.933-0.723c-0.575,0.806-0.788,1.609-0.741,2.449c0.12,2.167,0.296,4.342,0.455,6.509
					c0.238,3.078,0.507,6.155,0.706,9.241c0.11,1.853,0.322,3.737-0.15,5.563c-0.54,2.063-1.049,4.157-1.818,6.143
					c-0.83,2.144-2.506,3.729-4.19,5.252c-2.206,1.998-4.86,3.097-7.739,3.695c-1.396,0.287-2.808,0.55-4.221,0.703
					c-0.848,0.101-1.743,0.093-2.577-0.065c-5.272-0.969-9.98-3.129-13.869-6.852c-2.091-2.001-3.995-4.185-5.571-6.639
					c-0.191-0.289-0.382-0.578-0.653-0.992L239.332,68.298z"/>
				<path fill="#FFFFFF" d="M238.912,40.876c0.017,0.11-0.037,0.236-0.067,0.417c-0.251,0.041-0.51,0.122-0.769,0.116
					c-1.43-0.035-2.853-0.102-4.283-0.113c-0.691-0.01-1.094-0.266-1.257-0.971c-0.644-2.815-1.414-5.605-1.972-8.444
					c-0.853-4.306-1.565-8.644-2.356-12.974c-0.305-1.71-0.657-3.42-0.978-5.138c-0.058-0.306-0.068-0.628-0.118-0.942
					c-0.14-0.808,0.209-1.298,0.889-1.744c1.484-0.987,2.897-2.067,4.35-3.108c0.242-0.175,0.516-0.319,0.797-0.502
					C235.089,18.714,237.005,29.799,238.912,40.876z"/>
				<path fill="#FFFFFF" d="M233.877,41.853c1.572,0.128,3.167,0.091,4.958,0.131c-0.648,1.443-1.265,2.76-1.835,4.101
					c-2.003,4.715-4.629,9.113-6.908,13.681c-0.549,1.104-1.05,2.224-1.504,3.367c-0.231,0.568-0.495,0.884-1.154,0.984
					c-2.417,0.35-4.825,0.779-7.241,1.176c-0.032-0.094-0.064-0.18-0.104-0.274c0.54-0.295,1.055-0.614,1.611-0.878
					c0.086-0.04,0.172-0.088,0.258-0.136c0.806-0.431,1.335-1.001,1.357-2.093c0.021-1.226,0.42-2.376,1.079-3.474
					c0.69-1.145,1.158-2.422,1.745-3.636c1.151-2.343,2.333-4.678,3.476-7.029c0.541-1.104,1.026-2.232,1.543-3.344
					c0.216-0.465,0.464-0.923,0.68-1.388C232.23,42.149,232.839,41.767,233.877,41.853z"/>
				<path fill="#FFFFFF" d="M236.776,69.883c-0.753,0.163-1.372,0.318-2.007,0.441c-1.623,0.328-3.255,0.664-4.886,0.96
					c-0.361,0.058-0.809,0.062-1.116-0.093c-2.738-1.383-5.212-3.154-7.577-5.09c-0.087-0.07-0.151-0.179-0.389-0.476
					c0.91-0.118,1.648-0.21,2.386-0.303c1.57-0.202,3.139-0.419,4.709-0.582c0.361-0.034,0.825,0.048,1.094,0.266
					c2.27,1.827,4.811,3.188,7.391,4.502C236.475,69.563,236.546,69.665,236.776,69.883z"/>
				<path fill="#FFFFFF" d="M211.976,19.647c0.72-0.367,1.344-0.915,2.14-1.479c-0.352,4.889-0.689,9.567-1.027,14.268
					c-1.446-0.027-2.774-0.055-4.204-0.083c0.134-0.897,0.246-1.628,0.365-2.36c0.418-2.62,0.875-5.232,1.246-7.859
					C210.652,21.064,210.92,20.182,211.976,19.647z"/>
				<path fill="#3A2C43" d="M251.209,14.918c-0.781,1.507-1.506,3.053-2.271,4.568c-0.224,0.45-0.283,0.859-0.154,1.36
					c0.495,1.921,0.944,3.842,1.415,5.77c0.033,0.133,0.136,0.258,0.184,0.36c3.016-4.755,6.009-9.478,9.002-14.201
					c-0.063-0.047-0.103-0.093-0.126-0.085c-2.431,0.523-4.87,1.047-7.293,1.609C251.676,14.364,251.356,14.649,251.209,14.918z
					 M232.537,40.324c0.163,0.706,0.566,0.962,1.257,0.971c1.43,0.012,2.852,0.078,4.283,0.113c0.259,0.006,0.518-0.075,0.769-0.116
					c0.03-0.181,0.084-0.307,0.067-0.417c-1.908-11.077-3.824-22.161-5.764-33.403c-0.281,0.183-0.555,0.327-0.797,0.502
					c-1.452,1.041-2.865,2.122-4.35,3.108c-0.68,0.446-1.029,0.936-0.889,1.744c0.05,0.314,0.06,0.636,0.118,0.942
					c0.321,1.718,0.673,3.427,0.978,5.138c0.791,4.33,1.503,8.668,2.356,12.974C231.122,34.719,231.892,37.509,232.537,40.324z
					 M221.189,66.101c2.365,1.936,4.839,3.707,7.577,5.09c0.308,0.155,0.755,0.151,1.116,0.093c1.632-0.297,3.263-0.632,4.886-0.96
					c0.635-0.123,1.255-0.278,2.007-0.441c-0.23-0.218-0.301-0.32-0.396-0.374c-2.58-1.314-5.121-2.675-7.391-4.502
					c-0.269-0.218-0.733-0.3-1.094-0.266c-1.57,0.162-3.139,0.38-4.709,0.582c-0.738,0.093-1.475,0.185-2.386,0.303
					C221.038,65.922,221.102,66.031,221.189,66.101z M219.843,65.806c-0.387-0.295-0.788-0.331-1.21-0.061
					c-1.375,0.884-2.86,0.912-4.448,0.752c-2.776-0.291-5.566-0.456-8.357-0.66l0.035-0.511c3.498,0.198,6.995,0.397,10.493,0.58
					c0.307,0.013,0.636-0.068,0.918-0.196c1.503-0.688,2.989-1.4,4.484-2.096l0.2,0.391c-0.086,0.048-0.172,0.096-0.258,0.136
					c-0.556,0.264-1.071,0.583-1.611,0.878c0.04,0.094,0.072,0.18,0.104,0.274c2.416-0.397,4.825-0.826,7.241-1.176
					c0.659-0.1,0.924-0.416,1.154-0.984c0.454-1.143,0.955-2.263,1.504-3.367c2.279-4.568,4.905-8.966,6.908-13.681
					c0.57-1.34,1.188-2.658,1.835-4.101c-1.792-0.04-3.386-0.003-4.958-0.131c-1.038-0.086-1.647,0.297-2.04,1.188
					c-0.216,0.465-0.464,0.923-0.68,1.388l-0.473-0.224c0.332-0.702,0.656-1.404,0.988-2.098c0.27-0.552,0.392-1.08,0.213-1.714
					c-1.612-5.729-2.588-11.59-3.556-17.458c-0.505-3.083-1.073-6.166-1.61-9.241c-0.008-0.039-0.024-0.078-0.025-0.118
					c-0.078-0.824-0.145-1.334-0.148-1.688c-0.006-0.77,0.308-0.796,1.62-1.671c1.25-0.835,2.468-1.726,3.694-2.6
					c1.023-0.731,2.08-1.204,3.408-1.066c2.917,0.298,5.849,0.477,8.766,0.735c1.36,0.122,1.598,0.324,1.931,1.673
					c0.716,2.924,1.385,5.865,2.077,8.789c0.09,0.376,0.211,0.745,0.405,1.395c0.681-1.208,1.246-2.21,1.811-3.213
					c0.077-0.142,0.131-0.292,0.185-0.441c0.406-1.26,1.226-1.849,2.583-2.041c1.993-0.276,3.985-0.693,5.913-1.26
					c1.254-0.364,2.238-0.097,3.218,0.57c1.77,1.211,3.54,2.421,5.31,3.624c1.043,0.714,2.094,1.42,3.152,2.126
					c0.687,0.45,0.783,0.598,0.42,1.348c-0.44,0.884-0.944,1.744-1.463,2.589c-2.472,4.012-4.961,8.016-7.836,11.772
					c-1.01,1.313-1.76,2.827-2.651,4.225c-3.652,5.711-7.32,11.414-10.98,17.117c-0.233,0.355-0.426,0.726-0.604,1.034
					c1.749,0.543,3.403,1.032,5.041,1.584c0.386,0.13,0.764,0.276,1.143,0.446l-0.216,0.512c-0.126-0.054-0.252-0.108-0.378-0.154
					c-1.3-0.453-2.624-0.881-3.947-1.295c-0.449-0.138-0.921-0.197-1.385-0.303c-0.527-0.113-0.856,0.094-1.166,0.544
					c-1.576,2.284-3.191,4.536-4.782,6.804c-0.171,0.245-0.31,0.513-0.519,0.861c0.834,0.15,1.621,0.261,2.384,0.404l-0.083,0.441
					c-0.189-0.038-0.385-0.06-0.598-0.074c-2.672-0.15-2.071-0.58-3.724,1.854c0.016,0.023,0.032,0.055,0.056,0.078l-0.422,0.294
					c-1.123,1.871-2.936,2.169-4.748,2.507c-1.435,0.263-2.871,0.55-4.298,0.869c-0.58,0.131-1.044,0.064-1.581-0.222
					c-2.77-1.493-5.315-3.302-7.689-5.364C220.357,66.171,220.096,65.993,219.843,65.806z"/>
				<path fill="#FFFFFF" d="M221.757,63.614c-1.495,0.696-2.981,1.408-4.484,2.096c-0.282,0.128-0.611,0.209-0.918,0.196
					c-3.498-0.183-6.995-0.381-10.493-0.58c-0.024-0.094-0.049-0.188-0.073-0.282c0.446-0.2,0.884-0.416,1.338-0.6
					c0.986-0.401,2.005-0.732,2.967-1.188c0.892-0.432,1.787-0.534,2.754-0.471c2.767,0.181,5.526,0.323,8.292,0.472
					c0.189,0.014,0.37,0.044,0.55,0.066C221.716,63.418,221.733,63.512,221.757,63.614z"/>
				<path fill="#FFFFFF" d="M204.381,64.687c0.768-6.81,1.615-13.479,2.839-20.261c1.676,0.3,3.187,0.57,4.744,0.848
					c0.033,0.243,0.098,0.431,0.092,0.612c-0.216,4.268-0.423,8.535-0.654,12.803c-0.047,0.943-0.196,1.887-0.29,2.831
					c-0.043,0.44-0.269,0.725-0.676,0.878C208.476,63.136,206.526,63.876,204.381,64.687z"/>
				<path fill="#FFFFFF" d="M203.826,1.497c-0.053,0.268-0.059,0.417-0.113,0.551c-3.848,9.53-6.664,19.374-9.401,29.265
					c-1.487,5.386-2.706,10.825-4.09,16.234c-0.578,2.26-0.881,4.58-1.293,6.885c-0.068,0.362-0.128,0.661-0.495,0.868
					c-1.861,1.045-3.706,2.121-5.567,3.181c-0.055,0.032-0.149,0.001-0.338-0.005c0.241-1.212,0.483-2.4,0.716-3.596
					c2.345-11.733,5.24-23.322,8.498-34.827c1.213-4.268,2.387-8.544,3.537-12.82c0.282-1.055,0.771-1.79,1.811-2.286
					c2.003-0.952,3.927-2.052,5.89-3.09C203.215,1.738,203.466,1.649,203.826,1.497z"/>
				<path fill="#FFFFFF" d="M200.583,58.756c-1.386,1.489-3.044,2.351-4.687,3.205c-0.274,0.144-0.698,0.084-1.029,0.017
					c-3.101-0.657-6.194-1.338-9.287-2.012c-0.874-0.197-1.747-0.378-2.794-0.605c0.297-0.238,0.429-0.381,0.585-0.468
					c1.642-0.886,3.285-1.764,4.919-2.642c0.43-0.231,0.83-0.384,1.35-0.2c3.412,1.197,6.945,1.914,10.509,2.488
					C200.252,58.563,200.347,58.64,200.583,58.756z"/>
				<path fill="#3A2C43" d="M214.116,18.168c-0.797,0.564-1.42,1.112-2.14,1.479c-1.056,0.535-1.324,1.417-1.48,2.487
					c-0.371,2.627-0.828,5.239-1.246,7.859c-0.12,0.732-0.231,1.463-0.365,2.36c1.43,0.027,2.758,0.055,4.204,0.083
					C213.427,27.734,213.764,23.057,214.116,18.168z M211.267,19.417c0.906-0.589,1.805-1.178,2.703-1.767
					c-0.016-0.078-0.025-0.149-0.041-0.227c-0.786-0.08-1.573-0.167-2.438-0.254c-0.174,0.787-0.318,1.464-0.469,2.141
					C211.109,19.348,211.188,19.379,211.267,19.417z M204.381,64.687c2.146-0.812,4.096-1.551,6.054-2.29
					c0.407-0.153,0.633-0.437,0.676-0.878c0.094-0.944,0.243-1.888,0.29-2.831c0.231-4.268,0.439-8.535,0.654-12.803
					c0.006-0.181-0.058-0.369-0.092-0.612c-1.558-0.278-3.068-0.548-4.744-0.848C205.996,51.208,205.148,57.877,204.381,64.687z
					 M189.705,24.493c1.341-4.929,2.761-9.836,4.165-14.75c0.374-1.339,0.834-2.647,1.239-3.97c0.145-0.48,0.402-0.813,0.863-1.068
					c2.424-1.34,4.864-2.665,7.248-4.083c0.946-0.566,1.895-0.692,2.949-0.59c4.859,0.446,9.68,1.128,14.465,2.086
					c0.354,0.068,0.708,0.112,1.054,0.195c1.165,0.281,2.026,0.871,2.179,2.181c0.236,1.923,0.653,3.844,0.701,5.768
					c0.013,0.558,0.025,1.115,0.03,1.665c0.134,6.582,0.111,13.158,0.315,19.724c0.181,5.655-0.455,11.238-0.801,16.858
					c-0.187,3.042-0.145,6.09-0.213,9.248c0.163-0.221,0.327-0.396,0.435-0.601c1.893-3.834,3.785-7.668,5.67-11.51
					c0.232-0.481,0.463-0.962,0.679-1.443l0.473,0.224c-0.517,1.112-1.002,2.24-1.543,3.344c-1.143,2.351-2.325,4.686-3.476,7.029
					c-0.587,1.215-1.055,2.491-1.745,3.636c-0.659,1.098-1.057,2.248-1.079,3.474c-0.022,1.092-0.552,1.662-1.357,2.093l-0.2-0.391
					c-0.024-0.102-0.041-0.196-0.065-0.29c-0.181-0.022-0.362-0.052-0.55-0.066c-2.767-0.15-5.525-0.291-8.292-0.472
					c-0.967-0.063-1.862,0.039-2.754,0.471c-0.962,0.456-1.981,0.787-2.967,1.188c-0.454,0.185-0.892,0.4-1.338,0.6
					c0.024,0.094,0.049,0.188,0.073,0.282l-0.035,0.511c-0.369-0.028-0.747-0.057-1.116-0.085c-0.346-0.029-0.684-0.112-1.18-0.202
					c0.907-7.086,1.775-14.101,3.217-21.097c-0.323-0.092-0.575-0.16-0.906-0.252c-0.116,0.26-0.255,0.497-0.316,0.749
					c-1.058,4.023-2.148,8.031-3.112,12.077c-0.349,1.472-1.157,2.492-2.337,3.272c-1.258,0.835-2.571,1.577-3.829,2.405
					c-0.539,0.358-1.067,0.221-1.602,0.092c-2.928-0.675-5.856-1.365-8.785-2.071c-1.079-0.266-2.157-0.548-3.213-0.869
					c-1.126-0.344-1.206-0.477-0.98-1.618c0.316-1.629,0.711-3.251,1.035-4.88C184.634,43.642,187.107,34.052,189.705,24.493z
					 M189.641,56.051c-0.52-0.184-0.919-0.032-1.35,0.2c-1.635,0.878-3.277,1.756-4.919,2.642c-0.156,0.088-0.289,0.23-0.585,0.468
					c1.047,0.227,1.92,0.408,2.794,0.605c3.093,0.673,6.186,1.354,9.287,2.012c0.331,0.068,0.755,0.127,1.029-0.017
					c1.643-0.854,3.301-1.717,4.687-3.205c-0.237-0.116-0.332-0.194-0.434-0.216C196.586,57.965,193.052,57.248,189.641,56.051z
					 M188.432,55.3c0.368-0.207,0.428-0.506,0.495-0.868c0.413-2.305,0.715-4.625,1.293-6.885c1.384-5.409,2.603-10.848,4.09-16.234
					c2.737-9.89,5.553-19.734,9.401-29.265c0.054-0.134,0.06-0.283,0.113-0.551c-0.36,0.152-0.611,0.241-0.845,0.361
					c-1.963,1.038-3.887,2.138-5.89,3.09c-1.041,0.496-1.529,1.231-1.811,2.286c-1.15,4.276-2.324,8.551-3.537,12.82
					c-3.258,11.505-6.154,23.094-8.498,34.827c-0.233,1.196-0.475,2.384-0.716,3.596c0.189,0.006,0.283,0.037,0.338,0.005
					C184.726,57.42,186.571,56.344,188.432,55.3z"/>
				<path fill="#FFFFFF" d="M167.883,6.953c2.037-1.541,4.115-3.043,6.184-4.561c0.086,0.007,0.173,0.014,0.267,0.021
					c-1.818,8.987-1.702,18.138-2.528,27.259c-0.08-0.156-0.183-0.313-0.24-0.477c-1.208-3.478-2.462-6.94-3.592-10.434
					c-0.307-0.956-0.3-2.032-0.332-3.053c-0.069-2.608-0.091-5.216-0.097-7.832C167.542,7.561,167.664,7.127,167.883,6.953z"/>
				<path fill="#FFFFFF" d="M159.275,63.362c-0.346,0.019-0.691-0.01-1.241-0.021c0.312-0.325,0.467-0.538,0.662-0.689
					c1.959-1.541,3.91-3.097,5.901-4.59c0.39-0.294,0.931-0.479,1.41-0.515c1.657-0.124,3.322-0.13,4.979-0.246
					c2.489-0.17,4.977-0.403,7.458-0.597c0.463-0.035,0.927-0.031,1.61-0.053c-0.233,0.363-0.302,0.505-0.403,0.616
					c-1.511,1.56-3.03,3.121-4.549,4.673c-0.436,0.444-0.985,0.59-1.613,0.618c-2.049,0.119-4.098,0.302-6.156,0.413
					C164.647,63.128,161.961,63.237,159.275,63.362z"/>
				<path fill="#FFFFFF" d="M164.392,57.128c-0.863,1.076-5.662,4.981-7.007,5.684c-0.128-0.282-0.28-0.555-0.376-0.853
					c-1.121-3.416-2.249-6.84-3.339-10.271c-0.137-0.431-0.157-0.949-0.059-1.39c0.712-3.172,0.991-6.403,1.31-9.635
					c0.275-2.838,0.589-5.669,0.895-8.5c0.007-0.055,0.086-0.103,0.218-0.261C159.073,40.274,161.047,48.931,164.392,57.128z"/>
				<path fill="#FFFFFF" d="M150.121,59.4c0.04,0.07,0.08,0.133,0.112,0.195c-0.117,0.095-0.226,0.198-0.343,0.294
					c-0.686,0.587-1.365,1.166-2.067,1.73c-0.367,0.302-0.829,0.494-1.164,0.819c-1.208,1.181-2.697,1.531-4.314,1.717
					c-4.285,0.484-8.57,1.062-12.855,1.569c-1.413,0.169-2.834,0.252-4.435,0.391c0.312-0.254,0.515-0.452,0.741-0.595
					c1.532-0.987,3.103-1.927,4.602-2.953c0.828-0.573,1.73-0.761,2.671-0.887c3.335-0.468,6.67-0.928,10.005-1.373
					C145.42,59.99,147.775,59.703,150.121,59.4z"/>
				<path fill="#FFFFFF" d="M144.887,5.041c0.054-0.095,0.164-0.151,0.445-0.381c-0.593,8.945-1.163,17.67-1.774,26.388
					c-0.112,1.596-0.437,3.185-0.84,4.791c-0.144-0.352-0.304-0.704-0.433-1.065c-1.023-3.04-2.047-6.079-3.046-9.119
					c-0.137-0.407-0.188-0.855-0.191-1.279c-0.034-3.087-0.052-6.174-0.039-9.262c-0.003-0.408,0.103-0.881,0.32-1.228
					C141.158,10.925,143.027,7.987,144.887,5.041z"/>
				<path fill="#FFFFFF" d="M117.313,7.912c0.17,0.588,0.283,0.925,0.372,1.27c0.724,2.956,1.464,5.911,2.164,8.883
					c1.189,5.049,2.355,10.107,3.529,15.164c0.945,4.046,1.867,8.108,2.852,12.145c1.253,5.159,2.553,10.302,3.862,15.452
					c0.179,0.713,0.073,1.186-0.576,1.6c-1.329,0.836-2.649,1.703-4.032,2.611c-0.492,0.326-0.992,0.653-1.5,0.987
					c-0.114-0.439-0.202-0.698-0.236-0.964c-0.277-2.166-0.829-4.275-1.515-6.343c-1.628-4.889-3.327-9.753-4.814-14.682
					c-1.536-5.117-2.883-10.299-4.262-15.464c-0.13-0.494-0.252-0.996-0.366-1.497c-0.391-1.615-0.711-3.254-1.109-4.861
					c-0.163-0.659-0.097-1.24,0.165-1.84c1.041-2.35,2.082-4.708,3.107-7.065c0.64-1.451,1.256-2.909,1.88-4.368
					C116.942,8.685,117.066,8.44,117.313,7.912z"/>
				<path fill="#FFFFFF" d="M117.227,63.126c0.141-0.025,0.29-0.042,0.675-0.092c-0.991,0.77-1.763,1.445-2.599,2.025
					c-1.172,0.811-2.367,1.591-3.586,2.316c-0.532,0.319-1.15,0.567-1.754,0.675c-4.479,0.792-8.967,1.544-13.446,2.313
					c-0.973,0.157-1.938,0.315-3.193,0.522c0.731-0.925,1.267-1.645,1.842-2.317c0.692-0.815,1.456-1.568,2.14-2.391
					c0.366-0.435,0.789-0.572,1.33-0.624c3.932-0.418,7.873-0.813,11.797-1.309C112.709,63.957,114.96,63.498,117.227,63.126z"/>
				<path fill="#3A2C43" d="M174.066,2.391c-2.069,1.518-4.146,3.02-6.184,4.561c-0.219,0.175-0.341,0.608-0.338,0.922
					c0.006,2.616,0.028,5.224,0.097,7.832c0.032,1.021,0.025,2.097,0.332,3.053c1.129,3.494,2.384,6.956,3.592,10.434
					c0.056,0.165,0.16,0.321,0.24,0.477c0.827-9.12,0.711-18.272,2.528-27.259C174.239,2.406,174.153,2.398,174.066,2.391z
					 M157.385,62.812c1.345-0.703,6.144-4.608,7.007-5.684c-3.345-8.197-5.319-16.854-8.359-25.227
					c-0.132,0.158-0.21,0.206-0.218,0.261c-0.306,2.831-0.62,5.662-0.895,8.5c-0.319,3.232-0.598,6.463-1.31,9.635
					c-0.098,0.441-0.078,0.959,0.059,1.39c1.089,3.432,2.218,6.855,3.339,10.271C157.105,62.256,157.257,62.53,157.385,62.812z
					 M158.034,63.341c0.55,0.011,0.896,0.04,1.241,0.021c2.686-0.125,5.372-0.234,8.057-0.39c2.057-0.112,4.106-0.294,6.156-0.413
					c0.628-0.029,1.177-0.175,1.613-0.618c1.519-1.553,3.038-3.113,4.549-4.673c0.101-0.111,0.171-0.253,0.403-0.616
					c-0.683,0.021-1.147,0.017-1.61,0.053c-2.481,0.194-4.969,0.427-7.458,0.597c-1.657,0.116-3.322,0.122-4.979,0.246
					c-0.479,0.035-1.019,0.221-1.41,0.515c-1.991,1.494-3.942,3.05-5.901,4.59C158.501,62.802,158.345,63.016,158.034,63.341z
					 M139.009,15.114c-0.013,3.088,0.005,6.175,0.039,9.262c0.004,0.424,0.054,0.872,0.191,1.279c1,3.04,2.023,6.079,3.046,9.119
					c0.129,0.36,0.289,0.712,0.433,1.065c0.403-1.606,0.727-3.196,0.84-4.791c0.61-8.718,1.181-17.443,1.774-26.388
					c-0.281,0.23-0.39,0.286-0.445,0.381c-1.861,2.946-3.729,5.884-5.558,8.846C139.112,14.234,139.006,14.706,139.009,15.114z
					 M117.313,7.912c-0.247,0.528-0.371,0.773-0.478,1.025c-0.624,1.459-1.24,2.917-1.88,4.368
					c-1.025,2.358-2.066,4.715-3.107,7.065c-0.262,0.599-0.328,1.181-0.165,1.84c0.398,1.607,0.719,3.246,1.109,4.861l-0.502,0.122
					c-0.415-1.733-0.815-3.466-1.285-5.182c-0.17-0.611-0.19-1.138,0.072-1.721c1.119-2.445,2.221-4.905,3.324-7.358
					c0.717-1.593,1.474-3.163,2.128-4.771c0.4-0.985,0.89-1.547,2.067-1.761c3.93-0.724,7.827-1.645,11.74-2.487
					c1.208-0.262,1.255-0.262,1.704,0.826c0.457,1.096,0.804,2.24,1.183,3.368c1.515,4.544,3.03,9.088,4.553,13.639
					c0.097,0.282,0.248,0.54,0.48,1.064c0.05-2.444,0.173-4.605,0.108-6.757c-0.033-1.131,0.187-2.076,0.792-3.016
					c1.606-2.457,3.211-4.914,4.698-7.44c0.736-1.247,1.807-1.869,3.101-2.179c4.32-1.034,8.714-1.637,13.117-2.2
					c0.777-0.101,1.219,0.123,1.499,0.804c0.369,0.877,0.784,1.73,1.114,2.622c1.037,2.827,2.043,5.671,3.072,8.498
					c0.322,0.885,0.683,1.762,1.24,2.629c0.004-0.432,0.016-0.856,0.021-1.289c0.011-2.381,0.031-4.761,0.019-7.134
					c0.003-0.534,0.228-0.89,0.642-1.192c1.53-1.136,3.053-2.273,4.575-3.417c0.57-0.429,1.132-0.866,1.678-1.318
					c0.538-0.444,1.133-0.732,1.848-0.723c4.314,0.074,8.638-0.418,12.948,0.119c0.236,0.029,0.464,0.059,0.779,0.103
					c0.034,0.322,0.123,0.635,0.094,0.926c-0.503,5.527-0.928,11.061-1.566,16.566c-0.549,4.726-1.209,9.438-2.05,14.119
					c-1.141,6.31-2.51,12.583-3.785,18.871c-0.158,0.779-0.427,1.536-0.538,2.314c-0.282,1.966-1.195,3.585-2.543,4.986
					c-1.262,1.315-2.547,2.598-3.817,3.897c-0.592,0.618-1.337,0.805-2.153,0.843c-2.332,0.106-4.665,0.236-7.005,0.318
					c-2.372,0.091-4.752,0.142-7.124,0.209c-0.204,0.01-0.401,0.011-0.597,0.005c-1.461-0.027-1.651-0.143-2.103-1.569
					c-0.904-2.828-1.776-5.673-2.664-8.509c-0.121-0.368-0.25-0.729-0.475-1.371c-0.191,0.591-0.322,0.93-0.413,1.284
					c-0.388,1.496-0.737,2.999-1.172,4.48c-0.137,0.473-0.408,0.946-0.727,1.326c-0.202,0.237-0.413,0.459-0.631,0.681l-0.349-0.413
					c0.117-0.095,0.226-0.198,0.343-0.294c-0.032-0.063-0.072-0.125-0.112-0.195c-2.346,0.303-4.701,0.589-7.047,0.908
					c-3.335,0.444-6.67,0.905-10.005,1.373c-0.942,0.126-1.844,0.314-2.671,0.887c-1.5,1.026-3.071,1.966-4.602,2.953l-0.31-0.484
					c1.383-0.907,2.703-1.775,4.032-2.611c0.649-0.414,0.755-0.886,0.576-1.6c-1.308-5.15-2.608-10.293-3.862-15.452
					c-0.985-4.038-1.906-8.099-2.852-12.145c-1.174-5.057-2.34-10.115-3.529-15.164c-0.701-2.972-1.44-5.927-2.164-8.883
					C117.596,8.837,117.483,8.5,117.313,7.912z"/>
				<path fill="#FFFFFF" d="M97.328,64.149c0.161,0.517,0.102,0.871-0.264,1.283c-0.81,0.895-1.595,1.805-2.389,2.715
					c-0.373,0.435-0.755,0.871-1.136,1.306c-0.093,0.111-0.226,0.198-0.46,0.389c-0.362-1.003-0.715-1.919-1.022-2.843
					c-1.798-5.453-3.549-10.922-5.378-16.366c-0.975-2.891-2.083-5.733-3.128-8.592c-0.627-1.715-1.286-3.414-1.882-5.138
					c-1.924-5.491-3.808-10.998-5.74-16.489c-0.274-0.768-0.208-1.404,0.155-2.13c0.973-1.949,1.86-3.936,2.802-5.908
					c0.216-0.45,0.495-0.876,0.875-1.555c0.257,0.65,0.449,1.065,0.594,1.496c1.377,4.05,2.739,8.108,4.132,12.158
					c1.739,5.053,3.589,10.073,5.242,15.158c2.016,6.182,4.251,12.283,5.86,18.586C96.101,60.216,96.723,62.183,97.328,64.149z"/>
				<path fill="#3A2C43" d="M89.495,62.141c0.008,0.023,0.008,0.047,0.016,0.071c-0.008-0.016-0.024-0.039-0.032-0.055
					c-0.016-0.047-0.024-0.094-0.04-0.141C89.462,62.055,89.479,62.102,89.495,62.141z"/>
				<path fill="#FFFFFF" d="M79.117,77.147c0.333-0.6,0.573-0.987,0.782-1.397c0.618-1.239,1.212-2.493,1.854-3.716
					c0.193-0.371,0.449-0.805,0.793-0.981c2.542-1.286,5.109-2.518,7.793-3.829c-0.076,0.354-0.089,0.621-0.197,0.842
					c-0.649,1.357-1.289,2.713-2.001,4.031c-0.217,0.395-0.598,0.767-0.99,0.975c-2.44,1.317-4.912,2.587-7.368,3.864
					C79.658,77.001,79.509,77.026,79.117,77.147z"/>
				<path fill="#FFFFFF" d="M81.635,71.093c-1.191,2.225-2.304,4.435-3.824,6.733c-1.345-3.909-2.554-7.575-3.873-11.21
					c-1.319-3.642-2.748-7.244-4.186-11.011c1.175-0.466,2.38-0.947,3.743-1.485C76.065,59.866,78.33,65.731,81.635,71.093z"/>
				<path fill="#3A2C43" d="M77.895,13.051c0.448-0.884,0.944-1.752,1.51-2.558c0.28-0.387,0.74-0.729,1.194-0.913
					c1.276-0.521,2.592-0.965,3.9-1.415c1.355-0.467,2.695-0.942,4.066-1.346c1.136-0.34,2.297-0.593,3.457-0.854
					c0.525-0.122,0.936,0.086,1.168,0.579c0.496,1.041,1.062,2.049,1.448,3.122c2.084,5.906,4.114,11.82,5.861,17.839
					c1.537,5.282,3.341,10.491,5.042,15.733c0.581,1.802,1.217,3.596,1.877,5.546c3.398-0.398,6.757-0.795,10.211-1.194
					c-0.05-0.369-0.06-0.636-0.125-0.879c-1.589-5.816-3.185-11.616-4.766-17.432c-0.186-0.682-0.287-1.396-0.45-2.086l0.502-0.122
					c0.114,0.502,0.236,1.004,0.366,1.497c1.379,5.166,2.727,10.347,4.262,15.464c1.487,4.929,3.185,9.793,4.814,14.682
					c0.685,2.068,1.237,4.177,1.515,6.343c0.034,0.267,0.122,0.525,0.236,0.964c0.508-0.334,1.008-0.661,1.5-0.987l0.31,0.484
					c-0.227,0.143-0.429,0.341-0.741,0.595c1.601-0.139,3.023-0.222,4.435-0.391c4.285-0.507,8.57-1.085,12.855-1.569
					c1.617-0.186,3.107-0.537,4.314-1.717c0.335-0.325,0.797-0.517,1.164-0.819c0.702-0.564,1.381-1.143,2.067-1.73l0.349,0.413
					c-1.495,1.545-3.253,2.793-5.034,4.002c-0.344,0.239-0.79,0.376-1.206,0.434c-5.697,0.755-11.378,1.596-17.135,1.802
					c-0.793,0.03-1.578,0.178-2.363,0.24c-1.028,0.095-1.273-0.076-1.463-1.088c-0.23-1.208-0.319-2.448-0.628-3.632
					c-0.471-1.795-1.059-3.566-1.616-5.344c-0.694-2.233-1.404-4.458-2.114-6.684c-0.113-0.36-0.297-0.697-0.574-1.001
					c-0.006,0.267-0.027,0.542-0.009,0.809c0.231,3.196,0.478,6.399,0.717,9.602c0.062,0.785,0.108,1.578,0.224,2.363
					c0.108,0.722-0.163,1.188-0.733,1.609c-1.609,1.153-3.265,2.259-4.747,3.559c-1.614,1.412-3.511,1.907-5.52,2.215
					c-4.543,0.698-9.086,1.365-13.629,2.047c-0.235,0.033-0.479,0.043-0.715,0.045c-0.149,0.001-0.283,0.002-0.393-0.005l0.02-0.393
					c1.255-0.207,2.22-0.364,3.193-0.522c4.479-0.768,8.967-1.521,13.446-2.313c0.604-0.107,1.223-0.356,1.754-0.675
					c1.219-0.725,2.415-1.505,3.586-2.316c0.836-0.581,1.608-1.255,2.599-2.025c-0.385,0.05-0.534,0.067-0.675,0.092
					c-2.267,0.373-4.518,0.831-6.794,1.118c-3.924,0.496-7.864,0.891-11.797,1.309c-0.542,0.052-0.965,0.189-1.33,0.624
					c-0.684,0.823-1.448,1.576-2.14,2.391l-0.491-0.42c0.794-0.91,1.579-1.82,2.389-2.715c0.366-0.412,0.426-0.766,0.264-1.283
					c-0.606-1.967-1.227-3.933-1.739-5.932c-1.608-6.303-3.844-12.404-5.86-18.586c-1.653-5.085-3.502-10.105-5.242-15.158
					c-1.393-4.05-2.755-8.108-4.132-12.158c-0.145-0.431-0.337-0.846-0.594-1.496c-0.379,0.679-0.658,1.105-0.875,1.555
					c-0.942,1.972-1.829,3.959-2.802,5.908c-0.363,0.726-0.428,1.363-0.155,2.13l-0.439,0.153c-0.008-0.024-0.016-0.039-0.024-0.063
					c-0.338-1.003-0.283-1.907,0.212-2.854C76.46,16.143,77.13,14.566,77.895,13.051z"/>
				<path fill="#FFFFFF" d="M66.979,33.192c1.549,3.852,3.073,7.642,4.638,11.557c-2.224,0.796-4.222,1.52-6.344,2.284
					c-0.187-0.8-0.367-1.552-0.522-2.313c-0.245-1.161-0.499-2.321-0.689-3.49c-0.066-0.408-0.062-0.887,0.084-1.266
					c0.838-2.175,1.731-4.335,2.601-6.495C66.777,33.406,66.847,33.35,66.979,33.192z"/>
				<path fill="#FFFFFF" d="M66.705,32.409c-1.056,2.444-1.988,4.613-2.928,6.781c-0.071,0.001-0.149,0.001-0.228,0.002
					c-0.383-1.615-0.758-3.223-1.165-4.947C63.801,33.643,65.124,33.082,66.705,32.409z"/>
				<path fill="#FFFFFF" d="M63.893,78.218c1.717-0.447,3.328-1.261,4.988-1.912c0.243-0.096,0.494-0.169,0.879-0.102
					c-0.822,1.232-1.605,2.496-2.483,3.69c-0.225,0.308-0.743,0.415-1.15,0.567c-3.359,1.293-6.727,2.571-10.086,3.856
					c-0.509,0.193-1.01,0.409-1.511,0.618c-0.048-0.07-0.096-0.148-0.143-0.227c0.912-0.872,1.871-1.697,2.72-2.623
					C58.967,80.066,61.251,78.9,63.893,78.218z"/>
				<path fill="#FFFFFF" d="M52.944,85.003c-0.519-2.918-1.045-5.632-1.5-8.362c-0.497-3.013-1.001-6.017-1.38-9.047
					c-0.439-3.579-0.736-7.166-1.12-10.754c-0.281-2.637-0.579-5.274-0.891-7.912c-0.5-4.285-1.015-8.578-1.546-12.863
					c-0.202-1.648-0.491-3.288-0.701-4.936c-0.05-0.369-0.038-0.809,0.108-1.132c1.296-2.847,2.623-5.678,3.951-8.518
					c0.1-0.205,0.225-0.395,0.418-0.726c0.106,0.431,0.194,0.69,0.228,0.957c0.644,4.59,1.287,9.181,1.899,13.772
					c0.779,5.815,1.473,11.638,2.299,17.445c0.551,3.923,1.268,7.822,1.945,11.729c0.793,4.605,1.625,9.202,2.449,13.806
					c0.083,0.471,0.031,0.825-0.336,1.173c-1.754,1.657-3.499,3.337-5.245,5.009C53.413,84.748,53.264,84.804,52.944,85.003z"/>
				<path fill="#3A2C43" d="M79.899,75.75c-0.209,0.41-0.449,0.797-0.782,1.397c0.392-0.121,0.541-0.146,0.666-0.21
					c2.456-1.278,4.928-2.548,7.368-3.864c0.391-0.208,0.773-0.58,0.99-0.975c0.712-1.318,1.352-2.675,2.001-4.031
					c0.108-0.221,0.122-0.488,0.197-0.842c-2.684,1.311-5.25,2.542-7.793,3.829c-0.344,0.176-0.6,0.61-0.793,0.981
					C81.111,73.257,80.517,74.512,79.899,75.75z M81.635,71.093c-3.305-5.362-5.57-11.227-8.14-16.972
					c-1.362,0.538-2.568,1.019-3.743,1.485c1.438,3.767,2.867,7.369,4.186,11.011c1.319,3.634,2.528,7.301,3.873,11.21
					C79.331,75.527,80.444,73.318,81.635,71.093z M66.746,33.469c-0.87,2.16-1.763,4.32-2.601,6.495
					c-0.146,0.378-0.15,0.858-0.084,1.266c0.191,1.169,0.444,2.33,0.689,3.49c0.156,0.761,0.335,1.513,0.522,2.313
					c2.123-0.764,4.12-1.488,6.344-2.284c-1.565-3.915-3.089-7.704-4.638-11.557C66.847,33.35,66.777,33.406,66.746,33.469z
					 M66.127,80.462c0.407-0.153,0.925-0.259,1.15-0.567c0.878-1.194,1.661-2.457,2.483-3.69c-0.386-0.067-0.636,0.005-0.879,0.102
					c-1.66,0.65-3.272,1.465-4.988,1.912c-2.642,0.682-4.926,1.848-6.787,3.867c-0.849,0.926-1.808,1.751-2.72,2.623
					c0.048,0.078,0.096,0.156,0.143,0.227c0.501-0.208,1.002-0.425,1.511-0.618C59.4,83.032,62.768,81.755,66.127,80.462z
					 M63.777,39.19c0.94-2.168,1.873-4.337,2.928-6.781c-1.581,0.673-2.904,1.234-4.321,1.835c0.407,1.725,0.782,3.332,1.165,4.947
					C63.628,39.191,63.706,39.19,63.777,39.19z M51.443,76.641c0.455,2.73,0.981,5.444,1.5,8.362
					c0.32-0.199,0.469-0.255,0.578-0.358c1.746-1.672,3.491-3.353,5.245-5.009c0.366-0.349,0.418-0.703,0.336-1.173
					c-0.824-4.605-1.656-9.201-2.449-13.806c-0.677-3.907-1.393-7.805-1.945-11.729c-0.827-5.807-1.52-11.63-2.299-17.445
					c-0.612-4.591-1.256-9.181-1.899-13.772c-0.034-0.267-0.122-0.525-0.228-0.957c-0.194,0.332-0.318,0.521-0.418,0.726
					c-1.327,2.839-2.655,5.671-3.951,8.518c-0.147,0.323-0.159,0.763-0.108,1.132c0.21,1.648,0.499,3.288,0.701,4.936
					c0.531,4.285,1.046,8.578,1.546,12.863c0.313,2.637,0.61,5.274,0.891,7.912c0.384,3.587,0.681,7.175,1.12,10.754
					C50.442,70.624,50.947,73.629,51.443,76.641z M53.366,85.754c-0.855,0.156-1.045,0.001-1.217-0.87
					c-0.377-1.906-0.763-3.804-1.077-5.726c-0.613-3.789-1.258-7.578-1.746-11.392c-0.47-3.61-0.744-7.253-1.128-10.871
					c-0.282-2.684-0.595-5.361-0.9-8.037c-0.686-5.941-1.388-11.883-2.035-17.824c-0.068-0.596,0.052-1.289,0.299-1.825
					c1.258-2.697,2.595-5.348,3.876-8.03c0.525-1.089,1.257-1.872,2.44-2.267c3.862-1.297,7.716-2.65,11.586-3.939
					c1.496-0.5,3.033-0.882,4.694-1.359c0.533,0.813,1.097,1.57,1.56,2.383c2.815,4.981,5.035,10.241,7.271,15.494
					c1.443,3.39,2.721,6.851,4.132,10.249c1.323,3.186,2.654,6.365,4.118,9.479c1.344,2.848,2.304,5.818,3.342,8.771
					c0.242,0.697,0.569,1.354,0.858,2.028c0.016,0.047,0.024,0.094,0.04,0.141c0.008,0.016,0.024,0.039,0.032,0.055
					c0.065,0.29,0.146,0.58,0.212,0.87c0.086-0.032,0.172-0.064,0.258-0.096c-0.159-0.266-0.311-0.516-0.47-0.774
					c-0.008-0.024-0.008-0.047-0.016-0.071c-0.016-0.039-0.032-0.086-0.056-0.125c-0.405-1.474-0.763-2.971-1.231-4.421
					c-1.355-4.145-2.733-8.281-4.158-12.393c-1.948-5.616-3.959-11.209-5.916-16.817c-0.91-2.593-1.741-5.225-2.643-7.818
					l0.439-0.153c1.932,5.491,3.816,10.998,5.74,16.489c0.596,1.723,1.254,3.423,1.882,5.138c1.045,2.859,2.153,5.701,3.128,8.592
					c1.829,5.445,3.58,10.914,5.378,16.366c0.306,0.924,0.66,1.841,1.022,2.843c0.234-0.191,0.367-0.278,0.46-0.389
					c0.381-0.435,0.763-0.871,1.136-1.306l0.491,0.42c-0.576,0.673-1.112,1.392-1.842,2.317l-0.02,0.393
					c-0.511-0.043-0.662-0.23-0.895-0.912c-0.394-1.112-0.765-2.24-1.224-3.564c-0.192,0.481-0.292,0.757-0.408,1.025
					c-0.756,1.703-1.488,3.406-2.298,5.079c-0.162,0.347-0.6,0.618-0.975,0.802c-2.973,1.486-5.962,2.949-8.958,4.412
					c-0.344,0.168-0.736,0.25-1.246,0.419c-0.256-0.587-0.528-1.103-0.713-1.644c-1.224-3.604-2.417-7.215-3.65-10.811
					c-0.975-2.851-1.988-5.687-2.986-8.522c-0.201-0.564-0.426-1.112-0.683-1.793c-0.572,0.178-1.113,0.347-1.763,0.549
					c0.174,1.083,0.308,2.087,0.489,3.091c0.742,4.134,1.499,8.26,2.265,12.386c0.148,0.784,0.351,1.545,0.546,2.313
					c0.179,0.69,0.129,1.319-0.259,1.935c-0.791,1.24-1.527,2.511-2.318,3.743c-0.667,1.027-1.787,1.413-2.86,1.815
					c-3.235,1.19-6.477,2.348-9.728,3.499C54.895,85.356,54.135,85.614,53.366,85.754z"/>
			</g>
		</g>
	</g>
	<g>
		<path fill="#3A2C43" d="M232.476,364.364c-0.547,0.409-0.945,0.702-1.338,1.002c-4.106,3.137-8.385,6.004-13.278,7.762
			c-1.638,0.589-3.42,0.995-5.153,1.065c-5.194,0.209-9.155-2.749-10.579-7.753c-0.394-1.385-0.538-2.841-0.822-4.404
			c-0.506,0.291-0.98,0.548-1.439,0.829c-2.462,1.506-5.011,2.819-7.786,3.664c-1.371,0.418-2.76,0.605-4.185,0.459
			c-3.13-0.32-5.08-2.014-5.831-5.072c-0.649-2.643-0.477-5.311-0.192-7.979c0.036-0.337,0.072-0.674-0.11-1.13
			c-0.4,0.556-0.814,1.103-1.197,1.67c-2.325,3.441-4.848,6.717-8.055,9.395c-1.003,0.838-2.081,1.596-3.182,2.301
			c-0.538,0.345-1.188,0.572-1.819,0.702c-2.123,0.438-3.798-0.463-4.623-2.47c-0.808-1.966-0.824-4.049-0.697-6.117
			c0.16-2.618,0.445-5.229,0.657-7.844c0.076-0.936,0.094-1.878,0.155-3.152c-1.02,0.435-1.775,0.682-2.456,1.061
			c-3.427,1.905-6.054,4.701-8.315,7.825c-1.714,2.368-3.221,4.885-4.822,7.334c-0.276,0.421-0.528,0.865-0.853,1.245
			c-0.42,0.49-0.986,0.724-1.624,0.495c-0.7-0.251-1.032-0.795-0.964-1.538c0.11-1.206,0.254-2.408,0.371-3.613
			c0.229-2.359,0.469-4.718,0.661-7.08c0.048-0.595-0.017-1.213-0.12-1.805c-0.217-1.243-0.65-1.52-1.906-1.218
			c-1.503,0.361-2.786,1.164-3.977,2.118c-3.677,2.943-6.589,6.537-8.832,10.655c-1.592,2.924-3.073,5.91-3.86,9.184
			c-0.089,0.372-0.303,0.766-0.576,1.03c-0.779,0.757-1.858,0.413-2.012-0.66c-0.106-0.741-0.087-1.512-0.025-2.262
			c0.264-3.233,0.321-6.46-0.362-9.647c-0.252-1.176-0.601-2.357-1.094-3.45c-1.12-2.486-2.933-3.531-5.606-3.067
			c-1.671,0.289-3.359,0.777-4.896,1.487c-5.442,2.512-10.044,6.153-13.898,10.75c-0.607,0.724-0.769,1.395-0.577,2.341
			c0.47,2.321,0.942,4.661,1.117,7.016c0.133,1.785-0.095,3.618-0.341,5.404c-0.18,1.308-0.847,2.478-1.75,3.472
			c-1.523,1.677-3.673,1.62-5.103-0.146c-0.926-1.143-1.285-2.499-1.351-3.942c-0.112-2.462,0.36-4.839,1.295-7.094
			c0.693-1.671,1.557-3.277,2.42-4.87c0.379-0.699,0.582-1.343,0.44-2.149c-0.577-3.279-1.104-6.567-1.657-9.851
			c-0.032-0.19-0.136-0.367-0.262-0.695c-0.36,0.314-0.673,0.535-0.924,0.813c-8.134,9.009-17.65,16.253-28.262,22.088
			c-4.302,2.366-8.766,4.354-13.537,5.592c-0.42,0.109-0.854,0.163-1.604,0.302c0.368-0.472,0.491-0.741,0.7-0.877
			c0.506-0.329,1.028-0.654,1.584-0.88c8.207-3.333,15.5-8.211,22.614-13.384c6.639-4.828,12.652-10.343,18.039-16.543
			c0.686-0.79,0.952-1.558,0.825-2.598c-0.393-3.211-0.617-6.432-0.052-9.654c0.345-1.968,0.979-3.823,2.267-5.379
			c0.508-0.614,1.098-1.204,1.76-1.638c2.142-1.407,4.789-0.499,5.417,1.983c0.323,1.277,0.325,2.718,0.124,4.031
			c-0.601,3.93-2.415,7.403-4.789,10.504c-1.353,1.767-1.794,3.425-1.302,5.557c0.544,2.355,0.832,4.769,1.245,7.155
			c0.066,0.38,0.201,0.747,0.345,1.269c1.319-1.297,2.485-2.542,3.753-3.671c3.988-3.55,8.308-6.587,13.462-8.223
			c1.049-0.333,2.16-0.536,3.257-0.635c3.17-0.287,5.603,0.966,7.23,3.714c1.284,2.169,1.858,4.564,2.171,7.037
			c0.044,0.348,0.098,0.695,0.155,1.041c0.006,0.039,0.062,0.07,0.176,0.189c0.478-0.21,0.587-0.735,0.8-1.135
			c2.133-3.999,4.822-7.572,8.141-10.662c2.09-1.946,4.345-3.617,7.24-4.183c2.152-0.421,3.675,0.449,4.309,2.529
			c0.495,1.625,0.407,3.294,0.284,4.959c-0.083,1.13-0.184,2.259-0.276,3.389c0.096,0.029,0.193,0.059,0.289,0.088
			c0.286-0.388,0.585-0.766,0.856-1.164c2.424-3.562,5.055-6.938,8.562-9.524c1.425-1.051,2.896-2.018,4.628-2.52
			c2.58-0.748,4.004,0.214,3.933,2.863c-0.073,2.721-0.385,5.435-0.486,8.155c-0.071,1.909,0.022,3.825,0.077,5.738
			c0.011,0.393,0.136,0.8,0.284,1.17c0.369,0.924,0.995,1.264,1.926,0.914c0.697-0.262,1.361-0.666,1.967-1.106
			c2.93-2.13,5.285-4.826,7.427-7.715c1.562-2.108,3.037-4.282,4.625-6.371c0.663-0.873,1.452-1.685,2.315-2.355
			c0.402-0.312,1.205-0.44,1.67-0.256c0.662,0.261,0.665,1.08,0.598,1.735c-0.051,0.495-0.264,0.971-0.388,1.46
			c-0.883,3.491-1.479,7.012-1.029,10.632c0.044,0.35,0.091,0.702,0.176,1.044c0.531,2.144,1.77,3.192,3.998,3.168
			c1.04-0.011,2.115-0.203,3.11-0.518c3.352-1.062,6.319-2.889,9.225-4.824c0.555-0.37,0.76-0.851,0.843-1.502
			c0.505-3.961,1.286-7.867,2.591-11.65c1.24-3.597,2.81-7.045,5.16-10.057c0.949-1.216,2.063-2.394,3.33-3.254
			c3.281-2.229,6.924-0.301,7.074,3.673c0.135,3.552-1.098,6.755-2.844,9.756c-2.982,5.126-6.972,9.395-11.623,13.029
			c-1.102,0.861-1.545,1.767-1.376,3.083c0.128,0.998,0.113,2.027,0.353,2.995c1.241,5.012,5.169,7.469,10.173,6.271
			c1.751-0.419,3.484-1.062,5.105-1.849c3.917-1.903,7.519-4.316,10.888-7.087c0.865-0.711,1.195-1.456,1.169-2.579
			c-0.075-3.203,0.364-6.34,1.606-9.33c0.684-1.647,1.569-3.163,2.81-4.455c0.244-0.255,0.489-0.514,0.764-0.734
			c1.304-1.044,2.732-1.59,4.338-0.761c1.637,0.845,2.014,2.377,1.732,4.008c-0.246,1.425-0.647,2.861-1.23,4.182
			c-1.444,3.272-3.691,6.016-6.168,8.553c-0.766,0.785-0.883,1.467-0.474,2.412c1.046,2.418,2.876,3.845,5.424,4.366
			c2.663,0.545,5.317,0.395,7.962-0.171c4.578-0.979,8.84-2.811,13.021-4.844c4.129-2.008,8.218-4.1,12.345-6.114
			c1.402-0.684,2.834-1.341,4.314-1.821c0.769-0.25,1.712-0.256,2.506-0.071c1.175,0.274,1.377,1.698,0.432,2.475
			c-0.27,0.222-0.584,0.4-0.9,0.552c-4.59,2.209-9.156,4.472-13.786,6.594c-4.079,1.869-8.181,3.71-12.366,5.32
			c-3.694,1.421-7.566,2.157-11.577,1.753c-2.563-0.258-4.934-0.973-6.957-2.659C234.177,367.804,233.289,366.243,232.476,364.364z
			 M204.826,355.756c0.348-0.19,0.589-0.264,0.754-0.419c1.281-1.209,2.606-2.378,3.805-3.665c2.719-2.92,5.213-6.015,6.825-9.716
			c0.771-1.769,1.283-3.607,1.239-5.558c-0.047-2.059-1.543-2.873-3.285-1.793c-0.34,0.211-0.688,0.449-0.942,0.751
			c-0.904,1.077-1.867,2.123-2.631,3.296c-3.16,4.853-4.781,10.282-5.763,15.931C204.772,354.908,204.824,355.253,204.826,355.756z
			 M94.171,347.762c2.143-2.931,3.84-6.026,4.256-9.671c0.045-0.396,0.083-0.831-0.035-1.196c-0.141-0.441-0.364-0.989-0.719-1.183
			c-0.253-0.138-0.935,0.111-1.162,0.396c-0.678,0.852-1.403,1.739-1.791,2.736C93.599,341.714,93.765,344.72,94.171,347.762z
			 M234.74,358.06c2.099-2.134,3.816-4.472,4.988-7.174c0.258-0.594,0.426-1.237,0.552-1.874c0.142-0.713,0.541-1.63-0.308-2.047
			c-0.809-0.398-1.373,0.397-1.881,0.933c-1.568,1.654-2.424,3.692-2.962,5.861C234.784,355.151,234.483,356.567,234.74,358.06z
			 M94.866,371.123c-0.148,0.043-0.292,0.04-0.325,0.1c-1.568,2.818-2.613,5.777-2.239,9.065c0.072,0.63,0.311,1.28,0.627,1.834
			c0.447,0.785,1.064,0.808,1.487,0.027c0.448-0.827,0.87-1.737,1.001-2.654C95.817,376.681,95.572,373.884,94.866,371.123z"/>
		<path fill="#3A2C43" d="M188.776,341.942c-2.15,0.004-3.025-1.451-1.959-3.123c0.474-0.744,1.177-1.359,1.847-1.953
			c0.421-0.373,0.967-0.453,1.554-0.211c2.295,0.946,2.524,1.769,1.145,3.712C190.7,341.301,189.856,341.995,188.776,341.942z"/>
	</g>
	<g>
		<g>
			<path fill="#3A2C43" d="M54.603,367.671c-8.818-2.805-17.168-7.278-24.486-13.053c-7.318-5.775-13.608-12.855-18.41-20.764
				c-0.38-0.607,0.302-1.09,0.752-0.516c11.141,14.566,25.825,25.918,42.483,33.448C55.637,367.11,55.299,367.903,54.603,367.671z"
				/>
		</g>
		<g>
			<path fill="#3A2C43" d="M47.111,373.607c-14.94-3.833-28.634-13.023-37.923-25.325c-0.366-0.47,0.258-1.026,0.688-0.599
				c10.701,10.879,23.481,19.203,37.535,25.025C47.999,372.959,47.701,373.768,47.111,373.607z"/>
		</g>
		<g>
			<path fill="#3A2C43" d="M54.793,357.719c-10.159-3.477-19.211-10.416-25.293-19.255c-0.239-0.339,0.396-0.882,0.697-0.588
				c7.518,7.472,15.883,13.622,24.991,18.981C55.57,357.086,55.194,357.861,54.793,357.719z"/>
		</g>
	</g>
	<g>
		<g>
			<path fill="#3A2C43" d="M288.394,366.829c16.68-7.542,31.276-18.988,42.493-33.474c0.44-0.554,1.148-0.107,0.752,0.516
				c-4.854,7.885-11.136,14.959-18.442,20.748c-7.305,5.786-15.641,10.288-24.464,13.095
				C287.995,367.961,287.737,367.136,288.394,366.829z"/>
		</g>
		<g>
			<path fill="#3A2C43" d="M295.922,372.753c14.074-5.831,26.775-14.255,37.545-25.048c0.42-0.412,1.069,0.116,0.688,0.599
				c-9.376,12.231-22.974,21.504-37.933,25.349C295.597,373.822,295.367,372.99,295.922,372.753z"/>
		</g>
		<g>
			<path fill="#3A2C43" d="M288.149,356.9c9.124-5.369,17.404-11.613,24.996-19.003c0.295-0.283,0.948,0.241,0.697,0.588
				c-6.167,8.767-15.124,15.789-25.298,19.276C288.12,357.913,287.79,357.116,288.149,356.9z"/>
		</g>
	</g>
	<g>
		<g>
			<path fill="#3A2C43" d="M37.337,71.057c-0.147-0.357-0.269-0.72-0.376-1.086C22.109,78.713,9.486,91.225,0.086,105.629
				c-0.384,0.579,0.625,1.324,1.083,0.837C12.621,94.102,24.603,82.66,37.346,71.669C37.346,71.466,37.351,71.264,37.337,71.057z"/>
		</g>
		<g>
			<path fill="#3A2C43" d="M36.918,69.846c-0.551-0.324-1.101-0.651-1.657-0.966c-7.199,0.797-14.019,2.999-20.583,6.111
				c-0.287,0.136,0.057,1.342,0.365,1.318c7.729-0.596,15.101-2.544,22.047-5.964C37.035,70.179,36.965,70.015,36.918,69.846z"/>
		</g>
		<g>
			<path fill="#3A2C43" d="M36.981,70.029c-0.358-0.161-0.882-0.235-0.973-0.051c-3.74,7.428-5.619,15.62-5.318,23.942
				c0.011,0.33,1.286,0.546,1.405,0.22c2.762-7.611,4.23-15.283,5.168-23.298C37.158,70.574,37.063,70.303,36.981,70.029z"/>
		</g>
	</g>
	<g>
		<g>
			<path fill="#3A2C43" d="M327.186,105.629c-9.166-14.045-21.404-26.28-35.777-34.987c-0.237,0.082-0.47,0.18-0.695,0.302
				c-0.238,0.263-0.422,0.575-0.566,0.92c12.659,10.932,24.57,22.31,35.955,34.601C326.561,106.953,327.571,106.208,327.186,105.629
				z"/>
		</g>
		<g>
			<path fill="#3A2C43" d="M312.594,76.481c-6.469-3.067-13.19-5.236-20.275-6.06c-0.558,0.092-1.099,0.248-1.604,0.523
				c-0.229,0.254-0.406,0.554-0.548,0.883c6.951,3.424,14.327,5.375,22.062,5.972C312.536,77.823,312.88,76.617,312.594,76.481z"/>
		</g>
		<g>
			<path fill="#3A2C43" d="M290.714,70.944c-0.242,0.268-0.429,0.585-0.574,0.936c0.943,7.639,2.394,14.979,5.036,22.26
				c0.119,0.326,1.394,0.11,1.405-0.22c0.293-8.093-1.49-16.056-5.028-23.32C291.267,70.691,290.985,70.797,290.714,70.944z"/>
		</g>
	</g>
</g>
<g id="Designed_by_Freepik">
</g>
</svg>
