<svg xmlns="http://www.w3.org/2000/svg" viewBox="0 0 24 24"><path d="M10.438 0C9.796.07 9.18.543 8.905 1.281c-.367.985.016 2.035.844 2.344.828.309 1.79-.234 2.156-1.219.367-.984-.015-2.035-.844-2.344A1.31 1.31 0 0 0 10.438 0zM6.594.625c-.496.02-.871.59-.844 1.25.027.66.473 1.176.969 1.156.496-.02.87-.558.843-1.219-.027-.66-.472-1.207-.968-1.187zm-2.438.625a.687.687 0 0 0-.343.031c-.418.145-.602.739-.407 1.313.196.574.707.926 1.125.781.418-.145.602-.738.407-1.313-.149-.43-.458-.746-.782-.812zM2 2.5a.562.562 0 0 0-.281.094c-.375.23-.477.808-.188 1.281.29.473.844.668 1.219.438.375-.231.445-.81.156-1.282-.215-.351-.582-.55-.906-.531zm4.094 1.688c-2.5 0-5 2.21-5 5.312 0 2.5 1 9.5 5.5 9.5C8.594 19 9 17.488 9 16.687c0-2.101-1.813-2.082-1.813-4.28 0-1.802 3.125-2.919 3.125-5.22 0-2.3-1.617-3-4.218-3zm-5.657.187a.56.56 0 0 0-.25.125c-.292.25-.257.777.063 1.156.32.38.8.469 1.094.219.293-.25.289-.777-.032-1.156-.242-.285-.593-.403-.875-.344zm12.876.656c-.106.012-.211.055-.313.094-.828.309-1.18 1.36-.813 2.344.368.984 1.329 1.527 2.157 1.218.828-.308 1.18-1.359.812-2.343-.32-.86-1.097-1.403-1.844-1.313zm4.062.532c-.496-.02-.91.496-.938 1.156-.027.66.348 1.199.844 1.218.496.02.942-.496.969-1.156.027-.66-.379-1.199-.875-1.218zm2.469.656c-.324.066-.633.351-.782.781-.195.574-.011 1.168.407 1.313.418.144.898-.208 1.093-.782.196-.574.043-1.168-.375-1.312a.683.683 0 0 0-.343 0zm2.25 1.281c-.324-.02-.692.18-.907.531-.289.473-.218 1.02.157 1.25.375.23.93.067 1.218-.406.29-.473.22-1.05-.156-1.281a.678.678 0 0 0-.312-.094zm-4.188 1.688c-2.601 0-4.218.699-4.218 3 0 2.3 3.124 3.417 3.124 5.218 0 2.2-1.812 2.18-1.812 4.282 0 .8.406 2.312 2.406 2.312 4.5 0 5.5-7 5.5-9.5 0-3.102-2.5-5.313-5-5.313zm5.375.312a1.096 1.096 0 0 0-.593.344c-.32.379-.325.875-.032 1.125.293.25.774.16 1.094-.219.32-.379.355-.906.063-1.156-.149-.125-.329-.137-.532-.094z"/></svg>