<svg xmlns="http://www.w3.org/2000/svg" viewBox="0 0 26 26"><path d="M15.063-.063a1.116 1.116 0 0 0-.25.063.967.967 0 0 0-.25.094s-.723.379-1.344 1.156a5.603 5.603 0 0 0-1 2.031 3.682 3.682 0 0 0-1.563-1.031C9.75 1.95 8.937 2 8.937 2h-.093a1.005 1.005 0 1 0 .219 2s.472-.008.968.156c.14.047.258.098.375.157-4.383 1.03-7.699 4.613-8.219 9.03C.98 13.73 0 14.673 0 16c0 1.285.918 2.203 2.063 2.625.707 2.531 2.25 4.422 4.187 5.594C8.305 25.46 10.71 26 13 26s4.695-.54 6.75-1.781c1.938-1.172 3.48-3.063 4.188-5.594C25.081 18.203 26 17.285 26 16c0-1.328-.98-2.27-2.188-2.656-.582-4.918-4.628-8.801-9.75-9.281a3.408 3.408 0 0 1 .72-1.563c.378-.469.655-.594.655-.594a1.002 1.002 0 0 0-.374-1.968zM12.563 6c.082-.004.167 0 .25 0 .105.016.207.016.312 0 4.79.063 8.602 3.633 8.844 8.063l.062.937H23c.563 0 1 .438 1 1 0 .54-.41.96-.938 1l-.718.031-.188.719c-.511 2.242-1.773 3.773-3.437 4.781C17.055 23.54 14.977 24 13 24c-1.977 0-4.055-.46-5.719-1.469-1.664-1.008-2.926-2.539-3.437-4.781l-.188-.719L2.937 17A.998.998 0 0 1 2 16c0-.563.438-1 1-1h.969l.062-.938c.223-4.058 3.434-7.39 7.657-7.968.289.105.613.07.874-.094zM9 13a1.999 1.999 0 1 0 0 4 1.999 1.999 0 1 0 0-4zm8 0a1.999 1.999 0 1 0 0 4 1.999 1.999 0 1 0 0-4zm-7.125 6.094a1 1 0 0 0-.5 1.781S10.816 22 13 22s3.625-1.125 3.625-1.125a1 1 0 1 0-1.25-1.563S14.539 20 13 20c-1.54 0-2.375-.688-2.375-.688a1 1 0 0 0-.75-.218z"/></svg>