<svg xmlns="http://www.w3.org/2000/svg" viewBox="0 0 50 50"><path d="M28.938 0a.932.932 0 0 0-.375.094c-.176.086-4.098 2.12-4.5 7.937-.086.004-.168.028-.25.031-1.086-3.42-4.895-4.163-6.875-4.062-.551.027-.965.512-.938 1.063.027.55.527.964 1.063.937.16-.012 3.523-.156 4.656 2.25-9.336 1.402-16.676 8.66-17.594 17.813A5.025 5.025 0 0 0 0 31c0 2.348 1.668 4.34 3.906 4.844C6.664 46.266 16.918 50 25 50s18.336-3.734 21.094-14.156C48.336 35.34 50 33.348 50 31a5.025 5.025 0 0 0-4.125-4.938c-.988-9.875-9.46-17.515-19.844-18 .364-4.539 3.282-6.09 3.407-6.156.496-.246.714-.847.468-1.343A1.023 1.023 0 0 0 28.938 0zM17 26a3 3 0 1 1-.002 6.002A3 3 0 0 1 17 26zm16 0a3 3 0 1 1-.002 6.002A3 3 0 0 1 33 26zM18.875 38.219c.254-.032.535.015.75.187C19.645 38.418 21.699 40 25 40c3.34 0 5.355-1.578 5.375-1.594.434-.343 1.063-.246 1.406.188a.962.962 0 0 1-.156 1.375C31.52 40.05 29.027 42 25 42s-6.52-1.95-6.625-2.031a.962.962 0 0 1-.156-1.375.989.989 0 0 1 .656-.375z"/></svg>