<svg xmlns="http://www.w3.org/2000/svg" viewBox="0 0 40 40"><line x1="17.5" y1="33" x2="17.5" y2="13" fill="none" stroke="#a16a4a" stroke-miterlimit="10"/><line x1="22.5" y1="33" x2="22.5" y2="13" fill="none" stroke="#a16a4a" stroke-miterlimit="10"/><line x1="27.5" y1="33" x2="27.5" y2="13" fill="none" stroke="#a16a4a" stroke-miterlimit="10"/><line x1="32.5" y1="33" x2="32.5" y2="13" fill="none" stroke="#a16a4a" stroke-miterlimit="10"/><line x1="7.5" y1="33" x2="7.5" y2="13" fill="none" stroke="#a16a4a" stroke-miterlimit="10"/><line x1="12.5" y1="33" x2="12.5" y2="13" fill="none" stroke="#a16a4a" stroke-miterlimit="10"/><rect x="2.5" y="10.5" width="35" height="3" fill="#ffc49c"/><path d="M37 11v2H3v-2h34m1-1H2v4h36v-4z" fill="#a16a4a"/><rect x="2.5" y="32.5" width="35" height="3" fill="#ffc49c"/><path d="M37 33v2H3v-2h34m1-1H2v4h36v-4z" fill="#a16a4a"/><rect x="35.5" y="4.5" width="3" height="34" fill="#f5ce85"/><path d="M38 5v33h-2V5h2m1-1h-4v35h4V4z" fill="#967a44"/><circle cx="37" cy="4" r="2.5" fill="#ffc49c"/><path d="M37 2c1.103 0 2 .897 2 2s-.897 2-2 2-2-.897-2-2 .897-2 2-2m0-1a3 3 0 1 0 0 6 3 3 0 0 0 0-6z" fill="#a16a4a"/><rect x="1.5" y="4.5" width="3" height="34" fill="#f5ce85"/><path d="M4 5v33H2V5h2m1-1H1v35h4V4z" fill="#967a44"/><circle cx="3" cy="4" r="2.5" fill="#ffc49c"/><path d="M3 2c1.103 0 2 .897 2 2s-.897 2-2 2-2-.897-2-2 .897-2 2-2m0-1a3 3 0 1 0 0 6 3 3 0 0 0 0-6z" fill="#a16a4a"/></svg>