<svg xmlns="http://www.w3.org/2000/svg" viewBox="0 0 64 64"><path d="M20 3c-3.309 0-6 2.691-6 6s2.691 6 6 6 6-2.691 6-6-2.691-6-6-6zm22 0c-3.309 0-6 2.691-6 6s2.691 6 6 6 6-2.691 6-6-2.691-6-6-6zM20 5c2.207 0 4 1.793 4 4s-1.793 4-4 4-4-1.793-4-4 1.793-4 4-4zm22 0c2.207 0 4 1.793 4 4s-1.793 4-4 4-4-1.793-4-4 1.793-4 4-4zM16.75 16a7.994 7.994 0 0 0-6.66 3.563A12.36 12.36 0 0 0 8 26.46v10.25c0 1.93 1.57 3.5 3.5 3.5a3.51 3.51 0 0 0 1.379-.293l-.738 16.906a3.956 3.956 0 0 0 1.105 2.942A3.96 3.96 0 0 0 16.141 61 3.997 3.997 0 0 0 20 58.059 3.998 3.998 0 0 0 23.863 61a4.07 4.07 0 0 0 2.953-1.277A3.487 3.487 0 0 0 29.5 61c.98 0 1.86-.402 2.5-1.05a3.496 3.496 0 0 0 4.738.237 2.943 2.943 0 0 0 2.043.813c.867 0 1.66-.34 2.23-.89.567.55 1.36.89 2.208.89 1.523 0 2.8-1.14 2.98-2.66L47.672 45h2.59c.578 0 1.129-.25 1.508-.68a2.06 2.06 0 0 0 .48-1.59l-.387-2.84a4.772 4.772 0 0 0 3.086-5.16l-1.57-11c-.629-4.41-4.457-7.73-8.91-7.73h-4.121c-3.528 0-6.676 2.09-8.118 5.16a4.495 4.495 0 0 0-.73-.062c-.371 0-.738.043-1.09.113l-.55-1.012A7.975 7.975 0 0 0 22.82 16zm0 2h6.07a5.98 5.98 0 0 1 5.278 3.152l.453.828a5.378 5.378 0 0 0-2.453 4.52 5.406 5.406 0 0 0 5.402 5.402 5.406 5.406 0 0 0 5.402-5.402 5.406 5.406 0 0 0-2.761-4.71c1.172-2.263 3.55-3.79 6.207-3.79h4.12c3.462 0 6.442 2.578 6.934 6.012l1.567 11a2.787 2.787 0 0 1-1.387 2.816l-1.91-14.078a.994.994 0 0 0-1.121-.86c-.551.079-.93.579-.864 1.13L50.263 43H40v-4c0-3.86-3.14-7-7-7h-2c-3.86 0-7 3.14-7 7v7c0 1.3.84 2.422 2 2.828v7.942C26 58 25.043 59 23.86 59a2.001 2.001 0 0 1-2-1.906L21 40.16a1 1 0 0 0-1-.945.997.997 0 0 0-1 .945l-.863 16.934a1.999 1.999 0 0 1-2 1.906 1.996 1.996 0 0 1-2-2.09L15 37.215v-12.59c0-.55-.45-1-1-1s-1 .45-1 1v12.086a1.5 1.5 0 0 1-3 0V26.46c0-2.059.61-4.07 1.75-5.79a6.01 6.01 0 0 1 5-2.671zm14.75 4.902c.031 0 .07-.004.098.008a3.47 3.47 0 0 1 1.914.61 3.596 3.596 0 0 1 1.586 2.98 3.606 3.606 0 0 1-3.598 3.598 3.606 3.606 0 0 1-3.598-3.598c0-1.148.547-2.18 1.399-2.84a3.401 3.401 0 0 1 1.86-.738c.109-.012.23-.02.339-.02zM1 31c-.55 0-1 .45-1 1v2c0 .55.45 1 1 1s1-.45 1-1v-2c0-.55-.45-1-1-1zm5 0c-.55 0-1 .45-1 1v2c0 .55.45 1 1 1s1-.45 1-1v-2c0-.55-.45-1-1-1zm50 0c-.55 0-1 .45-1 1v2c0 .55.45 1 1 1s1-.45 1-1v-2c0-.55-.45-1-1-1zm5 0c-.55 0-1 .45-1 1v2c0 .55.45 1 1 1s1-.45 1-1v-2c0-.55-.45-1-1-1zm-30 3h2a5 5 0 0 1 5 5v7c0 .55-.45 1-1 1-.148 0-.3.04-.43.098A.994.994 0 0 0 36 48v9.5c0 .281-.07.531-.21.75-.25.45-.74.75-1.29.75a1.5 1.5 0 0 1-1.5-1.5V49c0-.55-.45-1-1-1s-1 .45-1 1v8.5a1.5 1.5 0 0 1-3 0V48c0-.55-.45-1-1-1s-1-.45-1-1v-7a5 5 0 0 1 5-5zm11 11h3.66l-1.45 13.121c-.05.5-.48.879-.991.879C42.55 59 42 58.45 42 57.781zm-2 1v11.781C40 58.45 39.45 59 38.781 59c-.402 0-.754-.238-.91-.578A3.13 3.13 0 0 0 38 57.5v-8.672c1.16-.406 2-1.527 2-2.828z"/></svg>