<svg xmlns="http://www.w3.org/2000/svg" viewBox="0 0 32 32"><path d="M9 6c-2.75 0-5 2.25-5 5 0 1.516.707 2.863 1.781 3.781C3.543 15.953 2 18.316 2 21h2c0-2.754 2.246-5 5-5 1.383 0 2.5.477 3.375 1.344A3.942 3.942 0 0 0 12 19c0 1.113.477 2.117 1.219 2.844A5.041 5.041 0 0 0 11 26h2a3 3 0 0 1 6 0h2a5.041 5.041 0 0 0-2.219-4.156C19.523 21.117 20 20.114 20 19c0-.59-.14-1.148-.375-1.656C20.5 16.477 21.617 16 23 16c2.754 0 5 2.246 5 5h2c0-2.684-1.543-5.047-3.781-6.219C27.293 13.863 28 12.516 28 11c0-2.75-2.25-5-5-5s-5 2.25-5 5c0 1.516.707 2.863 1.781 3.781-.515.27-.976.637-1.406 1.031A3.92 3.92 0 0 0 16 15a3.92 3.92 0 0 0-2.375.813c-.43-.395-.89-.762-1.406-1.032C13.293 13.863 14 12.516 14 11c0-2.75-2.25-5-5-5zm0 2c1.668 0 3 1.332 3 3s-1.332 3-3 3-3-1.332-3-3 1.332-3 3-3zm14 0c1.668 0 3 1.332 3 3s-1.332 3-3 3-3-1.332-3-3 1.332-3 3-3zm-7 9c1.117 0 2 .883 2 2s-.883 2-2 2-2-.883-2-2 .883-2 2-2z"/></svg>