<svg xmlns="http://www.w3.org/2000/svg" viewBox="0 0 40 40"><path d="M19.5 35.5V28c0-4.688 3.813-8.5 8.5-8.5h2c4.688 0 8.5 3.813 8.5 8.5v7.5z" fill="#b6dcfe"/><path d="M30 20c4.41 0 8 3.59 8 8v7H20v-7c0-4.41 3.59-8 8-8h2m0-1h-2c-4.973 0-9 4.027-9 9v8h20v-8c0-4.973-4.027-9-9-9z" fill="#4788c7"/><path d="M1.5 35.5V26c0-3.586 2.914-6.5 6.5-6.5h6c3.586 0 6.5 2.914 6.5 6.5v9.5z" fill="#b6dcfe"/><path d="M14 20c3.309 0 6 2.691 6 6v9H2v-9c0-3.309 2.691-6 6-6h6m0-1H8c-3.867 0-7 3.133-7 7v10h20V26c0-3.867-3.133-7-7-7z" fill="#4788c7"/><path d="M13.5 38.5V38c0-3.031 2.469-5.5 5.5-5.5h2c3.031 0 5.5 2.469 5.5 5.5v.5z" fill="#98ccfd"/><path d="M21 33c2.758 0 5 2.242 5 5H14c0-2.758 2.242-5 5-5h2m0-1h-2c-3.313 0-6 2.688-6 6v1h14v-1c0-3.313-2.688-6-6-6z" fill="#4788c7"/><path d="M11 21.5c-1.379 0-2.191-.492-2.5-.73v-5.555h5v5.555c-.305.234-1.117.73-2.5.73z" fill="#dff0fe"/><path d="M13 15.715v4.789c-.344.21-1 .496-2 .496-1.004 0-1.66-.29-2-.492v-4.793h4m1-1H8V21s.965 1 3 1 3-1 3-1z" fill="#4788c7"/><path d="M15.145 13.93a1.216 1.216 0 0 1-1.215-1.215c0-.668.543-1.215 1.215-1.215 1.355 0 1.355.434 1.355.645 0 .703-.727 1.785-1.355 1.785zm-8.575 0c-.55 0-1.07-1.008-1.07-1.785 0-.399.05-.645 1.07-.645.668 0 1.215.547 1.215 1.215S7.242 13.93 6.57 13.93z" fill="#dff0fe"/><path d="M15.145 12c.558 0 .785.086.855.121v.024c0 .523-.602 1.285-.855 1.285a.715.715 0 0 1 0-1.43M6.57 12a.715.715 0 0 1 0 1.43c-.175-.035-.57-.68-.57-1.285 0-.04.004-.07.004-.094.074-.02.238-.051.566-.051m8.575-1a1.715 1.715 0 1 0 0 3.43c.945 0 1.855-1.34 1.855-2.285 0-.95-.91-1.145-1.855-1.145zM6.57 11C5.625 11 5 11.195 5 12.145c0 .945.625 2.285 1.57 2.285a1.715 1.715 0 1 0 0-3.43z" fill="#4788c7"/><path d="M11 18.5c-.422 0-.813-.2-1.07-.547l-.098-.129-.156-.047C7.777 17.187 6.5 15.47 6.5 13.5V7.453c0-1.039.844-1.883 1.883-1.883h5.234c1.04 0 1.883.844 1.883 1.883V13.5c0 1.969-1.277 3.688-3.176 4.277l-.156.047-.098.13A1.325 1.325 0 0 1 11 18.5z" fill="#dff0fe"/><path d="M13.617 6.07c.762 0 1.383.621 1.383 1.383V13.5c0 1.75-1.137 3.273-2.824 3.8l-.309.095-.195.261A.833.833 0 0 1 11 18a.833.833 0 0 1-.672-.344l-.195-.261-.309-.094C8.137 16.773 7 15.25 7 13.5V7.453c0-.762.621-1.383 1.383-1.383h5.234m0-1H8.383A2.382 2.382 0 0 0 6 7.453V13.5c0 2.246 1.488 4.121 3.527 4.754.336.45.868.746 1.473.746.605 0 1.137-.297 1.473-.746C14.512 17.62 16 15.746 16 13.5V7.453a2.382 2.382 0 0 0-2.383-2.383z" fill="#4788c7"/><path d="M29 21.5c-1.379 0-2.191-.492-2.5-.73v-5.555h5v5.555c-.305.234-1.117.73-2.5.73z" fill="#dff0fe"/><path d="M31 15.715v4.789c-.344.21-1 .496-2 .496-1.004 0-1.66-.29-2-.492v-4.793h4m1-1h-6V21s.965 1 3 1 3-1 3-1z" fill="#4788c7"/><path d="M29 18.5c-.344 0-.672-.133-.926-.375l-.094-.09-.125-.031a4.496 4.496 0 0 1-3.355-4.332v-5.05c0-1.036.844-1.884 1.883-1.884h5.234c1.04 0 1.883.848 1.883 1.883v5.047a4.497 4.497 0 0 1-3.355 4.336l-.125.031-.094.09A1.336 1.336 0 0 1 29 18.5z" fill="#dff0fe"/><path d="M31.617 7.238c.762 0 1.383.621 1.383 1.383v5.047a3.995 3.995 0 0 1-2.984 3.852l-.25.066-.188.18A.843.843 0 0 1 29 18a.843.843 0 0 1-.578-.234l-.188-.18-.25-.066A3.994 3.994 0 0 1 25 13.672v-5.05c0-.763.621-1.384 1.383-1.384h5.234m0-1h-5.234A2.382 2.382 0 0 0 24 8.621v5.047c0 2.32 1.586 4.254 3.73 4.816a1.817 1.817 0 0 0 2.54 0c2.144-.562 3.73-2.496 3.73-4.812v-5.05a2.382 2.382 0 0 0-2.383-2.384z" fill="#4788c7"/><path d="M15.5 12.133v-1.707c0-2.34-1.09-3.52-1.137-3.567l-.406-.43-.355.47C13.555 6.96 12.309 8.5 9 8.5c-2.074 0-2.5 1.215-2.5 3.035v.598h-.168C6.074 11.493 5.5 9.852 5.5 8c0-3.445 2.09-5.5 5.586-5.5 2.129 0 2.934 1.691 2.941 1.71l.133.29h.32c1.207 0 2.02 1.406 2.02 3.5 0 .73-.566 2.969-.883 4.133z" fill="#98ccfd"/><path d="M11.086 3a2.778 2.778 0 0 1 2.488 1.418L13.84 5h.64C15.375 5 16 6.234 16 8c0 .195-.055.547-.137.98-.308-1.546-1.035-2.359-1.136-2.464l-.793-.813-.72.883C13.169 6.64 12.028 8 9 8c-1.766 0-2.512.836-2.809 1.879A9.71 9.71 0 0 1 6 8c0-3.18 1.852-5 5.086-5m0-1C7.488 2 5 4.105 5 8c0 2.523 1 4.633 1 4.633h1v-1.098C7 9.63 7.48 9 9 9c3.633 0 5-1.797 5-1.797s1 1.055 1 3.223v2.207h1S17 9.063 17 8c0-2.496-1.082-4-2.52-4 0 0-.921-2-3.394-2z" fill="#4788c7"/><path d="M33.852 18.145c-1.336 0-2.192-.422-2.637-.727.512-.586 1.285-1.79 1.285-3.672v-1.113c0-1.723-.441-2.559-.492-2.649l-.313-.558-.468.437c-.008.012-1.188 1.082-3.711 1.543-1.871.34-2.016 2.356-2.016 2.961 0 1.809.652 2.715 1.23 3.16-.507.29-1.351.614-2.543.614-1.257 0-2.578-.578-3.316-.961.656-.63 1.629-1.828 1.629-3.375v-2.813c0-4.004 2.484-6.492 6.488-6.492 2.266 0 3.348 1.484 3.356 1.5l.148.21h.262c1.691 0 2.746 1.837 2.746 4.79v2.805c0 1.433.996 2.375 1.676 2.851-.656.567-1.942 1.489-3.324 1.489z" fill="#b6dcfe"/><path d="M28.988 5c1.969 0 2.914 1.246 2.95 1.29l.3.42h.516C34.14 6.71 35 8.356 35 11v2.805c0 1.304.703 2.25 1.375 2.851-.645.473-1.566.989-2.523.989-.84 0-1.465-.184-1.895-.38.508-.738 1.043-1.902 1.043-3.519v-1.113c0-1.813-.465-2.73-.555-2.895l-.625-1.086-.93.844c-.007.012-1.109.988-3.464 1.418C25.93 11.188 25 12.512 25 14.371c0 1.45.395 2.39.871 3-.43.152-.988.274-1.683.274-.872 0-1.793-.313-2.489-.622.633-.75 1.301-1.859 1.301-3.218v-2.813C23 7.238 25.238 5 28.988 5m0-1C25.051 4 22 6.367 22 10.992v2.813c0 2.05-1.996 3.457-1.996 3.457s2.137 1.379 4.183 1.379c2.344 0 3.489-1.188 3.489-1.188S26 17.153 26 14.371c0-.457.086-2.195 1.605-2.473 2.73-.496 3.965-1.668 3.965-1.668s.43.762.43 2.403v1.117c0 2.531-1.523 3.7-1.523 3.7s1.05 1.195 3.375 1.195c2.238 0 4.144-2.075 4.144-2.075S36 15.64 36 13.805V11c0-3.77-1.566-5.29-3.246-5.29 0 0-1.215-1.71-3.766-1.71zM18 33v-3.855h4V33s-.64 1-2 1c-1.36 0-2-1-2-1z" fill="#4788c7"/><path d="M23.652 29.055c-.32 0-.593-.367-.593-.801 0-.438.273-.805.593-.805.325 0 .598.367.598.805 0 .433-.273.8-.598.8zm-7.304 0c-.325 0-.598-.367-.598-.801 0-.438.273-.805.598-.805.32 0 .593.367.593.805 0 .433-.273.8-.593.8z" fill="#dff0fe"/><path d="M23.652 27.965c.04.039.098.137.098.289 0 .183-.09.289-.074.305-.031-.016-.117-.122-.117-.305 0-.152.058-.25.093-.29m-7.304 0c.035.04.093.138.093.29 0 .183-.086.289-.074.305-.027-.016-.117-.122-.117-.305 0-.152.059-.25.098-.29m7.304-1.015c-.601 0-1.093.586-1.093 1.305 0 .715.492 1.3 1.093 1.3.606 0 1.098-.585 1.098-1.3 0-.719-.492-1.305-1.098-1.305zm-7.304 0c-.606 0-1.098.586-1.098 1.305 0 .715.492 1.3 1.098 1.3.601 0 1.093-.585 1.093-1.3 0-.719-.488-1.305-1.093-1.305z" fill="#4788c7"/><path d="M20 32.5c-1.93 0-3.5-1.57-3.5-3.5v-3.5h7V29c0 1.93-1.57 3.5-3.5 3.5z" fill="#dff0fe"/><path d="M23 26v3c0 1.652-1.348 3-3 3s-3-1.348-3-3v-3h6m1-1h-8v4c0 2.21 1.79 4 4 4s4-1.79 4-4z" fill="#4788c7"/><path d="M23.5 28.5v-.797a2.206 2.206 0 0 0-2.203-2.203h-2.594a2.206 2.206 0 0 0-2.203 2.203v.797h-.121c-.14-.523-.379-1.543-.379-2.41 0-1.735 1.605-3.59 4-3.59s4 1.855 4 3.59c0 .887-.234 1.894-.375 2.41z" fill="#b6dcfe"/><path d="M20 23c2.094 0 3.5 1.598 3.5 3.09v.05A2.7 2.7 0 0 0 21.297 25h-2.594a2.7 2.7 0 0 0-2.203 1.14v-.05c0-1.492 1.406-3.09 3.5-3.09m0-1c-2.648 0-4.5 2.055-4.5 4.09 0 1.316.5 2.91.5 2.91h1v-1.297c0-.941.762-1.703 1.703-1.703h2.594c.941 0 1.703.762 1.703 1.703V29h1s.5-1.563.5-2.91c0-2.043-1.852-4.09-4.5-4.09z" fill="#4788c7"/></svg>