<svg xmlns="http://www.w3.org/2000/svg" viewBox="0 0 64 64"><path d="M41 57.781A2.217 2.217 0 0 1 38.781 60a1.998 1.998 0 0 1-2-1.77L35 42h6z" fill="#faefde"/><path d="M43.219 60A2.217 2.217 0 0 1 41 57.781V42h6l-1.79 16.23A2.003 2.003 0 0 1 43.22 60z" fill="#faefde"/><path d="M54 34.871l-1.57-11A7.999 7.999 0 0 0 44.469 17h-4.117a8.001 8.001 0 0 0-7.922 6.871l-7.871 19c-.079.598 9.39 1.129 10 1.129h15.703a1.003 1.003 0 0 0 1-1.129l-.614-4.473.762.614a3.796 3.796 0 0 0 2.59-4.14z" fill="#ed7899"/><path d="M32 28.352l-2.09-6-.91-1.68A7 7 0 0 0 22.82 17h-6.07a7 7 0 0 0-5.82 3.121A11.443 11.443 0 0 0 9 26.461v10.25c0 1.379 1.121 2.5 2.5 2.5s2.5-1.121 2.5-2.5v.5l-.86 19.66a2.996 2.996 0 0 0 .833 2.203 3.002 3.002 0 0 0 5.168-1.934L20 40.21l.86 16.93a3.002 3.002 0 0 0 3 2.86A3.19 3.19 0 0 0 27 56.77z" fill="#85cbf8"/><path d="M47 9a5 5 0 1 1-10 0 5 5 0 0 1 10 0zM25 9a5 5 0 1 1-10 0 5 5 0 0 1 10 0zm11 17.5a4.501 4.501 0 0 1-9 0 4.501 4.501 0 0 1 9 0z" fill="#faefde"/><path d="M32 51v6.5c0 1.379 1.121 2.5 2.5 2.5a2.507 2.507 0 0 0 2.5-2.5V48a2 2 0 0 0 2-2v-7c0-3.313-2.688-6-6-6h-2c-3.313 0-6 2.688-6 6v7a2 2 0 0 0 2 2v9.5a2.507 2.507 0 0 0 2.5 2.5c1.379 0 2.5-1.121 2.5-2.5V49" fill="#72caaf"/><path d="M6 31c-.55 0-1 .45-1 1v2c0 .55.45 1 1 1s1-.45 1-1v-2c0-.55-.45-1-1-1zm-5 0c-.55 0-1 .45-1 1v2c0 .55.45 1 1 1s1-.45 1-1v-2c0-.55-.45-1-1-1zm55 0c-.55 0-1 .45-1 1v2c0 .55.45 1 1 1s1-.45 1-1v-2c0-.55-.45-1-1-1zm5 0c-.55 0-1 .45-1 1v2c0 .55.45 1 1 1s1-.45 1-1v-2c0-.55-.45-1-1-1zM42 15c3.313 0 6-2.688 6-6 0-3.313-2.688-6-6-6-3.313 0-6 2.688-6 6 0 3.313 2.688 6 6 6zm0-10c2.21 0 4 1.79 4 4s-1.79 4-4 4-4-1.79-4-4 1.79-4 4-4zm11.379 18.73a8.999 8.999 0 0 0-8.91-7.73h-4.117a9.002 9.002 0 0 0-8.122 5.16 4.568 4.568 0 0 0-.73-.058c-.367 0-.73.035-1.09.109l-.55-1a7.996 7.996 0 0 0-7-4.2h-6.11a7.99 7.99 0 0 0-6.66 3.56A12.397 12.397 0 0 0 8 26.46v10.25a3.48 3.48 0 0 0 4.879 3.21l-.738 16.907A4 4 0 0 0 20 58.058 3.995 3.995 0 0 0 23.871 61a4.06 4.06 0 0 0 3-1.281 3.48 3.48 0 0 0 2.504 1.273A3.497 3.497 0 0 0 32 60a3.499 3.499 0 0 0 4.738.238 2.95 2.95 0 0 0 2 .813A3.203 3.203 0 0 0 41 60.109c.594.57 1.387.891 2.21.891a3 3 0 0 0 3-2.66L47.673 45h2.59a1.993 1.993 0 0 0 1.508-.68 2.05 2.05 0 0 0 .48-1.59l-.39-2.84A4.782 4.782 0 0 0 55 34.73zm-22.219-.808h.442c.68.008 1.347.219 1.91.61a3.601 3.601 0 1 1-1.89 6.586 3.597 3.597 0 1 1-2.32-6.445 3.427 3.427 0 0 1 1.858-.751zM34.5 59a1.5 1.5 0 0 1-1.5-1.5V49c0-.55-.45-1-1-1s-1 .45-1 1v8.5a1.5 1.5 0 0 1-3 0V48c0-.55-.45-1-1-1s-1-.45-1-1v-7a5 5 0 0 1 5-5h2a5 5 0 0 1 5 5v7c0 .55-.45 1-1 1a.965.965 0 0 0-.43.102A.996.996 0 0 0 36 48v9.5a1.37 1.37 0 0 1-.21.75c-.263.465-.755.75-1.29.75zm4.281 0c-.39 0-.746-.227-.91-.578.09-.3.133-.61.129-.922v-8.672c1.2-.422 2-1.555 2-2.828v11.781A1.22 1.22 0 0 1 38.781 59zm5.43-.879a1.001 1.001 0 0 1-1 .879A1.219 1.219 0 0 1 42 57.781V45h3.66zm7.367-20.293L49.672 23.75a1.001 1.001 0 0 0-1.121-.86.996.996 0 0 0-.86 1.11l2.57 19H40v-4c0-3.867-3.133-7-7-7h-2c-3.867 0-7 3.133-7 7v7c0 1.273.8 2.406 2 2.828v7.942A2.189 2.189 0 0 1 23.86 59a2 2 0 0 1-2-1.91L21 40.16c0-.55-.45-1-1-1s-1 .45-1 1l-.86 16.942a2.006 2.006 0 0 1-2.09 1.91 2.003 2.003 0 0 1-1.91-2.09L15 37.21V24.629c0-.55-.45-1-1-1s-1 .45-1 1v12a1.5 1.5 0 0 1-3 0V26.46c0-2.063.61-4.074 1.75-5.79a5.996 5.996 0 0 1 5-2.671h6.07c2.203 0 4.23 1.21 5.282 3.148l.449.832a5.398 5.398 0 0 0 3.133 9.918 5.407 5.407 0 0 0 5.066-4.12 5.406 5.406 0 0 0-2.61-5.989A6.998 6.998 0 0 1 40.353 18h4.117a6.999 6.999 0 0 1 6.93 6L53 35a2.77 2.77 0 0 1-1.422 2.828zM20 15c3.313 0 6-2.688 6-6 0-3.313-2.688-6-6-6-3.313 0-6 2.688-6 6 0 3.313 2.688 6 6 6zm0-10c2.21 0 4 1.79 4 4s-1.79 4-4 4-4-1.79-4-4 1.79-4 4-4z" fill="#8d6c9f"/></svg>