<svg xmlns="http://www.w3.org/2000/svg" viewBox="0 0 48 48"><path d="M5 40c-.508 0-.941-.387-.996-.898a1.003 1.003 0 0 1 .894-1.098c9.16-.914 11.079-6.106 11.157-6.328a.992.992 0 0 1 1.265-.617c.52.175.801.738.63 1.257-.09.27-2.329 6.625-12.852 7.68-.032 0-.067.004-.098.004z" fill="#ff3d00"/><path d="M9 39c-2.348 0-3.574-1.16-3.707-1.293a1 1 0 0 1 1.402-1.426C6.75 36.328 7.504 37 9 37a1 1 0 1 1 0 2zm26.012-21s7.996-.262 8.988 1.113l-10.988 1.715V19z" fill="#ff3d00"/><path d="M19.809 23.91c.656.785 1.382 1.512 2.191 2.09-.57-.813-.992-1.691-1.328-2.594-.067-.183-.113-.367-.172-.55a10.943 10.943 0 0 0-1.582-.133c.281.41.574.808.89 1.187z" fill="#78909c"/><path d="M22 23.96c-6-1-5.293-8.21-6-9-.402-.448-2.285-.714-4.203-1.589C10.34 12.707 8 11.77 8 11.77c-1 3 0 11.5 5 16.19 0 0 7 0 9-4z" fill="#b0bec5"/><path d="M29.012 17.96c0 1.395-.364 3.177-1.028 4.895-.441.641-1.074 1.106-1.984 1.106-2 0-6-2-9-1s-7 7-10 7c0 2 5.875 4.441 9 2 4.645 0 8.645-1.234 10.707-3.297.02-.02.035-.043.055-.062 1.125-.895 4.332-3.864 5.254-7.645z" fill="#b0bec5"/><path d="M33.012 18.96l2-1c0-1.66-1.34-3-3-3-1.657 0-3 1.34-3 3 0 1.653 1.343 3 3 3 .355 0 .687-.073 1-.187z" fill="#b0bec5"/><path d="M13.125 19.402c-2.695-1.562-1.75-5.277-.352-5.593C11.04 13.168 9 12 8 11c-1 5-1 12 5 17 0 0 2.195 0 4.48-.703-.351-.43-4.918-3.297-4.355-7.895z" fill="#455a64"/><path d="M11 14.145c-.684.37-1.488.265-2.172.015-.687-.265-1.273-.723-1.734-1.258a5.099 5.099 0 0 1-.989-1.816C5.922 10.426 5.84 9.734 6 9c.617.434 1.059.887 1.48 1.32.415.442.782.864 1.133 1.285l1.063 1.235c.375.418.75.84 1.324 1.305z" fill="#455a64"/><path d="M10 15c-.383.574-1.094.777-1.742.766-.66-.02-1.281-.274-1.781-.633a3.71 3.71 0 0 1-1.145-1.36C5.078 13.238 4.926 12.664 5 12c.633.215 1.09.488 1.52.742.421.266.793.52 1.132.774l1.008.734c.356.246.73.512 1.34.75z" fill="#455a64"/><path d="M11 17c-.52.43-1.066.688-1.684.813a3.86 3.86 0 0 1-1.87-.098C6.222 17.34 5.151 16.355 5 15c.684.113 1.191.277 1.68.402l1.351.399c.434.133.875.273 1.364.445.48.192 1.03.352 1.605.754z" fill="#455a64"/><path d="M10 18c-.082.61-.527 1.023-.984 1.285a2.83 2.83 0 0 1-1.504.328 3.023 3.023 0 0 1-1.403-.441c-.414-.274-.78-.621-1.015-1.172.554-.227.996-.297 1.41-.352a6.144 6.144 0 0 1 1.125-.03c.348.019.68.07 1.043.14.371.07.746.176 1.328.242z" fill="#455a64"/><path d="M12.207 20.563c-.445.519-1.031.73-1.574.882-.559.133-1.11.16-1.649.102a4.94 4.94 0 0 1-1.57-.426c-.5-.242-.984-.547-1.414-1.058.594-.31 1.137-.422 1.664-.497a6.7 6.7 0 0 1 1.531-.007c.496.054.985.16 1.473.32.496.164.96.379 1.539.683z" fill="#455a64"/><path d="M12.207 22.5c-.46.395-.91.57-1.36.7a4 4 0 0 1-1.335.113 3.988 3.988 0 0 1-1.309-.344C7.781 22.762 7.355 22.492 7 22a4.19 4.19 0 0 1 3.957-.363c.422.187.84.425 1.25.863z" fill="#455a64"/><path d="M8 23.965a5.77 5.77 0 0 1 1.281-.582 4.87 4.87 0 0 1 1.117-.207c.368-.02.735 0 1.13.07.402.078.82.184 1.347.442-.25.53-.629.855-1.035 1.101-.414.23-.867.36-1.324.383a3.09 3.09 0 0 1-1.36-.227c-.43-.199-.855-.468-1.156-.98z" fill="#455a64"/><path d="M9.105 26.047a4.293 4.293 0 0 1 2.051-1.297c.324-.094.64-.137.977-.156.347-.02.683.015 1.242-.094.16.57-.14 1.11-.477 1.469-.351.36-.773.59-1.203.707a2.868 2.868 0 0 1-1.312.047c-.438-.102-.871-.27-1.278-.676z" fill="#455a64"/><path d="M15.188 26.688c-.336.511-.72.816-1.114 1.078a4.277 4.277 0 0 1-2.586.648A3.85 3.85 0 0 1 10 28c.313-.527.703-.844 1.098-1.11a4.34 4.34 0 0 1 1.25-.535 4.337 4.337 0 0 1 1.355-.109c.469.047.953.145 1.485.442z" fill="#455a64"/><path d="M33.805 17.5c0-.277-.45-.5-1-.5-.555 0-1 .223-1 .5s.445.5 1 .5c.55 0 1-.223 1-.5z" fill="#37474f"/></svg>