<svg xmlns="http://www.w3.org/2000/svg" viewBox="0 0 48 48"><path d="M24 33c0 2.258-1 3.098-1 4.59 0 1.73 2 2.789 2 4.41 0 2.164-1.363 3.348-1.363 3.348" fill="none" stroke-width="2" stroke-linejoin="round" stroke="#b0bec5" stroke-miterlimit="10"/><path d="M26 34h-1l-1 1-1-1h-1l1-4h2z" fill="#c51162"/><path d="M30.094 2A9.82 9.82 0 0 0 24 4.121 9.818 9.818 0 0 0 17.906 2C12.434 2 8 6.465 8 11.973 8 20 18.98 29.023 24 31c4.945-2.04 16-10.938 16-19.027C40 6.465 35.566 2 30.094 2z" fill="#ff4081"/><path d="M17.906 6c1.317 0 2.567.438 3.617 1.266L24 9.219l2.477-1.953C27.527 6.437 29.684 6 31 6c3.559 0 3.52.277 5.68 1.57C35.262 5.422 32.84 4 30.094 4c-1.77 0-3.45.586-4.856 1.695L24 6.672l-1.238-.977A7.773 7.773 0 0 0 17.906 4C13.546 4 10 7.578 10 11.973c0 3.105 2.078 6.515 4.758 9.496C13.12 19.062 12 16.004 12 11.973 12 8.68 14.648 6 17.906 6z" fill="#fce4ec"/></svg>