<svg xmlns="http://www.w3.org/2000/svg" viewBox="0 0 80 80"><path d="M40 10a16.889 16.889 0 0 0-10.105 3.36c-.336.09-3.57 1.019-6.88 3.656C19.524 19.8 16 24.563 16 32v9.344c-1.168.55-2 1.699-2 3.058 0 .77.246 1.512.457 2.235.105.36.211.699.281.96.07.266.094.512.094.403 0 1.668 1.414 3 3.086 3h1.172c.473 9.863 7.71 17.938 17.21 19.637C37.32 71.449 38.583 72 40 72c1.418 0 2.68-.55 3.7-1.363 9.5-1.7 16.737-9.774 17.21-19.637h1.172c1.668 0 3.086-1.332 3.086-3 0 .11.023-.137.094-.402.07-.262.175-.602.281-.961.21-.723.457-1.465.457-2.235 0-1.359-.832-2.507-2-3.058V32c0-7.438-3.523-12.2-7.016-14.984-3.308-2.637-6.543-3.567-6.879-3.657A16.889 16.889 0 0 0 40 10zm0 2c8.297 0 15 6.703 15 15v8.234l4.496 8.989.895-.461c.832-.43 1.832-.762 2.109-.762.863 0 1.5.637 1.5 1.398v.004c0 .196-.172.973-.375 1.672-.105.348-.21.692-.297 1.004-.082.309-.16.535-.16.922 0 .543-.453 1-1.086 1H59v1c0 5.96-2.746 11.262-7.035 14.734A1.003 1.003 0 0 0 51 64c-.55 0-1 .45-1 1 0 .336.168.652.453.836a18.965 18.965 0 0 1-7.281 2.879l-.285.047-.219.195A3.952 3.952 0 0 1 40 70a3.952 3.952 0 0 1-2.668-1.043l-.219-.195-.285-.047a18.965 18.965 0 0 1-7.281-2.88A.993.993 0 0 0 30 65a1 1 0 1 0-1.965-.266C23.746 61.262 21 55.961 21 50v-1h-3.082c-.633 0-1.086-.457-1.086-1 0-.387-.078-.613-.164-.922a40.93 40.93 0 0 0-.293-1.004c-.203-.699-.375-1.476-.375-1.672 0-.765.637-1.402 1.5-1.402.277 0 1.277.332 2.11.762l.894.46L25 35.235V27c0-8.297 6.703-15 15-15zm-13.98 5.344A16.925 16.925 0 0 0 23 27v7.766l-3.395 6.793c-.515-.235-1.046-.438-1.605-.516V32c0-6.816 3.113-10.91 6.262-13.422a18.874 18.874 0 0 1 1.758-1.234zm27.96 0a18.72 18.72 0 0 1 1.758 1.234C58.887 21.09 62 25.184 62 32v9.043c-.559.078-1.09.281-1.605.516L57 34.766V27a16.92 16.92 0 0 0-3.02-9.656zM32 27c-.55 0-1 .45-1 1s.45 1 1 1 1-.45 1-1-.45-1-1-1zm4 0c-.55 0-1 .45-1 1s.45 1 1 1 1-.45 1-1-.45-1-1-1zm4 0c-.55 0-1 .45-1 1s.45 1 1 1 1-.45 1-1-.45-1-1-1zm4 0c-.55 0-1 .45-1 1s.45 1 1 1 1-.45 1-1-.45-1-1-1zm4 0c-.55 0-1 .45-1 1s.45 1 1 1 1-.45 1-1-.45-1-1-1zm-16 6c-.55 0-1 .45-1 1s.45 1 1 1 1-.45 1-1-.45-1-1-1zm4 0c-.55 0-1 .45-1 1s.45 1 1 1 1-.45 1-1-.45-1-1-1zm4 0c-.55 0-1 .45-1 1s.45 1 1 1 1-.45 1-1-.45-1-1-1zm4 0c-.55 0-1 .45-1 1s.45 1 1 1 1-.45 1-1-.45-1-1-1zm4 0c-.55 0-1 .45-1 1s.45 1 1 1 1-.45 1-1-.45-1-1-1zm-21 9c-1.094 0-2 .906-2 2v3c0 2.75 2.25 5 5 5h2c2.676 0 4.871-2.133 4.988-4.781.094-.27.836-2.219 3.012-2.219s2.918 1.95 3.012 2.219C43.129 49.867 45.324 52 48 52h2c2.75 0 5-2.25 5-5v-3c0-1.094-.906-2-2-2h-8c-1.094 0-2 .906-2 2v.031A4.759 4.759 0 0 0 40 43c-1.273 0-2.254.45-3 1.031V44c0-1.094-.906-2-2-2zm0 2h8v3c0 1.668-1.332 3-3 3h-2c-1.668 0-3-1.332-3-3zm18 0h8v3c0 1.668-1.332 3-3 3h-2c-1.668 0-3-1.332-3-3zM33 62c-.55 0-1 .45-1 1s.45 1 1 1 1-.45 1-1-.45-1-1-1zm14 0c-.55 0-1 .45-1 1s.45 1 1 1 1-.45 1-1-.45-1-1-1z"/></svg>