<svg xmlns="http://www.w3.org/2000/svg" viewBox="0 0 32 32"><path d="M16 5c-2.98 0-5.61 1.477-7.25 3.719-2.89 1.379-4.633 4.36-3.281 7.875C5.187 16.996 5 17.454 5 18c0 1.258.89 2.152 2 2.594V21c0 3.3 2.7 6 6 6h.906c.543.574 1.242 1 2.094 1 .852 0 1.55-.426 2.094-1H19c3.3 0 6-2.7 6-6v-.406c1.11-.442 2-1.336 2-2.594 0-.547-.188-1.004-.469-1.406 1.352-3.516-.39-6.496-3.281-7.875C21.61 6.477 18.98 5 16 5zm0 2c3.879 0 7 3.121 7 7v3h1c.566 0 1 .434 1 1 0 .566-.434 1-1 1h-1v2c0 2.219-1.781 4-4 4h-1.844l-.312.5c-.18.305-.469.5-.844.5a.95.95 0 0 1-.844-.5l-.312-.5H13c-2.219 0-4-1.781-4-4v-2H8c-.566 0-1-.434-1-1 0-.566.434-1 1-1h1v-3c0-3.879 3.121-7 7-7zm-4 8c-1.094 0-2 .906-2 2v2c0 1.094.906 2 2 2h2c1.094 0 2-.906 2-2 0 1.094.906 2 2 2h2c1.094 0 2-.906 2-2v-2c0-1.094-.906-2-2-2h-2c-1.094 0-2 .906-2 2 0-1.094-.906-2-2-2zm0 2h2v2h-2zm6 0h2v2h-2z"/></svg>