<svg xmlns="http://www.w3.org/2000/svg" viewBox="0 0 50 50"><path d="M25 10c-3.32 0-6.559 1.293-9.25 3.344-2.398.445-6.012 2.191-8.406 5.687-2.125 3.102-2.813 6.903-2.032 11.032A5.18 5.18 0 0 0 5 31.813c0 2.238 1.934 4.011 4 4.593V37.5c0 5.941 4.469 10.594 10.188 10.594h1.906c.949 1.199 2.34 1.906 3.812 1.906 1.473 0 2.864-.707 3.813-1.906h1.875c5.718 0 10.218-4.649 10.218-10.594v-1.094c2.067-.582 4-2.37 4-4.562.032-.594-.058-1.125-.187-1.625.016-.043.055-.082.063-.125 1.101-5.332-.477-9.063-2-11.25-2.41-3.465-6.032-5.106-8.438-5.5C31.559 11.293 28.32 10 25 10zm0 2c7.195 0 14 6.805 14 14v2c0 .27.121.531.313.719A.966.966 0 0 0 40 29h.031c.024-.008 1.39-.012 2.188.813.433.449.64 1.097.593 2 0 1.421-1.66 2.628-3.124 2.78a.99.99 0 0 0-.876 1V37.5c0 4.902-3.542 8.594-8.218 8.594h-2.407c-.343 0-.66.18-.843.468-.57.899-1.473 1.438-2.438 1.438-.965 0-1.898-.54-2.468-1.438a1.002 1.002 0 0 0-.844-.468h-2.407C14.59 46.094 11 42.324 11 37.5v-1.906c0-.512-.398-.946-.906-1C8.629 34.437 7 33.23 7 31.812c0-2.62 2.727-2.8 3.031-2.812A.996.996 0 0 0 11 28v-2c0-7.195 6.805-14 14-14zm-9 16c-1.16 0-2 .84-2 2v4c0 1.16.84 2 2 2h6c1.16 0 2-.84 2-2v-4c0-1.16-.84-2-2-2zm12 0c-1.16 0-2 .84-2 2v4c0 1.16.84 2 2 2h6c1.16 0 2-.84 2-2v-4c0-1.16-.84-2-2-2z"/></svg>