<svg xmlns="http://www.w3.org/2000/svg" viewBox="0 0 40 40"><path d="M28.5 10a8.5 8.5 0 0 1-8.5 8.5 8.499 8.499 0 0 1-8.5-8.5c0-4.695 3.805-8.5 8.5-8.5s8.5 3.805 8.5 8.5z" fill="#b6dcfe"/><path d="M20 2c4.41 0 8 3.59 8 8s-3.59 8-8 8-8-3.59-8-8 3.59-8 8-8m0-1c-4.973 0-9 4.027-9 9s4.027 9 9 9 9-4.027 9-9-4.027-9-9-9z" fill="#4788c7"/><path d="M32.215 26.285a3.574 3.574 0 0 1-3.57-3.57 3.574 3.574 0 0 1 3.57-3.57c2.57 0 3.57.62 3.57 2.214 0 1.946-1.597 4.926-3.57 4.926z" fill="#dff0fe"/><path d="M32.215 19.645c2.836 0 3.07.808 3.07 1.71 0 1.856-1.547 4.43-3.07 4.43a3.07 3.07 0 0 1 0-6.14m0-1c-2.25 0-4.07 1.82-4.07 4.07s1.82 4.07 4.07 4.07c2.246 0 4.07-3.18 4.07-5.43 0-2.25-1.82-2.71-4.07-2.71z" fill="#4788c7"/><path d="M7.785 26.285c-1.969 0-3.57-2.98-3.57-4.93 0-1.59 1-2.21 3.57-2.21a3.574 3.574 0 0 1 3.57 3.57 3.574 3.574 0 0 1-3.57 3.57z" fill="#dff0fe"/><path d="M7.785 19.645a3.07 3.07 0 0 1 0 6.14c-1.523 0-3.07-2.578-3.07-4.43 0-.902.234-1.71 3.07-1.71m0-1c-2.25 0-4.07.464-4.07 2.71 0 2.25 1.824 5.43 4.07 5.43 2.25 0 4.07-1.82 4.07-4.07s-1.82-4.07-4.07-4.07z" fill="#4788c7"/><path d="M20 38.5a3.492 3.492 0 0 1-2.934-1.602l-.101-.156-.184-.05c-5.43-1.512-9.035-6.497-8.765-12.122l.34-9.144a7.146 7.146 0 0 1 7.148-6.813h8.992a7.147 7.147 0 0 1 7.149 6.82l.34 9.133c.269 5.633-3.337 10.614-8.766 12.125l-.184.051-.101.156A3.492 3.492 0 0 1 20 38.5z" fill="#fff"/><path d="M24.496 9.113a6.647 6.647 0 0 1 6.649 6.332l.34 9.153c.257 5.39-3.2 10.164-8.403 11.613l-.363.098-.207.32a2.987 2.987 0 0 1-5.024 0l-.207-.316-.367-.102c-5.203-1.45-8.656-6.223-8.402-11.625l.34-9.129a6.654 6.654 0 0 1 6.652-6.344h8.992m0-1h-8.992a7.66 7.66 0 0 0-7.649 7.297l-.34 9.14c-.285 5.966 3.657 11.102 9.133 12.622A3.994 3.994 0 0 0 20 39c1.406 0 2.637-.73 3.352-1.828 5.472-1.52 9.418-6.656 9.132-12.621l-.34-9.14a7.66 7.66 0 0 0-7.648-7.298z" fill="#4788c7"/><path d="M12.71 34.61c-6-1.391-11.21-8.93-11.21-14.9C1.5 9.942 10.793 5.57 20 5.57s18.5 4.371 18.5 14.14c0 5.974-5.223 13.52-11.223 14.864 1.625-1.367 3.985-3.984 4.684-8.07.48-.492 2.11-2.356 2.11-4.992 0-1.27-.72-2.028-1.926-2.028-.122 0-.235.004-.34.02-.207-5.535-3.262-6.219-6.223-6.883-1.86-.414-3.785-.844-5.207-2.453L20 9.746l-.375.422c-1.426 1.61-3.348 2.039-5.207 2.457-2.961.66-6.02 1.344-6.223 6.879a3.066 3.066 0 0 0-.34-.02c-1.207 0-1.93.758-1.93 2.028 0 2.64 1.645 4.508 2.126 4.996.785 4.203 3.054 6.762 4.66 8.101z" fill="#b6dcfe"/><path d="M20 6.07c8.96 0 18 4.22 18 13.64 0 5.102-3.918 11.388-8.809 13.68a13.781 13.781 0 0 0 3.235-6.652c.62-.675 2.144-2.59 2.144-5.226 0-1.512-.875-2.469-2.293-2.524-.386-5.468-3.672-6.203-6.586-6.851-1.867-.418-3.625-.813-4.945-2.301L20 8.992l-.75.844c-1.316 1.488-3.078 1.883-4.941 2.3-2.918.65-6.2 1.384-6.586 6.852C6.305 19.043 5.43 20 5.43 21.512c0 2.644 1.539 4.566 2.16 5.23.582 2.98 1.894 5.156 3.195 6.664C5.898 31.078 2 24.805 2 19.711c0-9.422 9.04-13.64 18-13.64m0-1c-10.066 0-19 5.027-19 14.64 0 7.004 6.715 15.625 13.64 15.625 0 0-4.968-2.504-6.124-9.074 0 0-2.086-1.91-2.086-4.75 0-1.27.785-1.528 1.425-1.528.45 0 .829.125.829.125 0-9.25 7.332-5.113 11.316-9.613 3.984 4.5 11.316.363 11.316 9.613 0 0 .38-.125.829-.125.64 0 1.425.258 1.425 1.528 0 2.84-2.078 4.75-2.078 4.75-.988 6.234-6.066 9.02-6.066 9.02C32.352 35.281 39 26.714 39 19.71c0-9.61-8.934-14.64-19-14.64z" fill="#4788c7"/><path d="M17.5 23.5s1.012-1 2.5-1 2.5 1 2.5 1" fill="none" stroke="#4788c7" stroke-miterlimit="10"/><path d="M29.5 25h-5a.498.498 0 0 1-.5-.5c0-.277.223-.5.5-.5h5a.499.499 0 1 1 0 1zm-14 0h-5a.498.498 0 0 1-.5-.5c0-.277.223-.5.5-.5h5a.499.499 0 1 1 0 1z" fill="#4788c7"/><path d="M23 28.5a1.5 1.5 0 0 1-1.5-1.5v-4c0-.277.223-.5.5-.5h6c.277 0 .5.223.5.5v4a1.5 1.5 0 0 1-1.5 1.5z" fill="#b6dcfe"/><path d="M28 23v4c0 .55-.45 1-1 1h-4c-.55 0-1-.45-1-1v-4h6m0-1h-6c-.55 0-1 .45-1 1v4a2 2 0 0 0 2 2h4a2 2 0 0 0 2-2v-4c0-.55-.45-1-1-1z" fill="#4788c7"/><path d="M13 28.5a1.5 1.5 0 0 1-1.5-1.5v-4c0-.277.223-.5.5-.5h6c.277 0 .5.223.5.5v4a1.5 1.5 0 0 1-1.5 1.5z" fill="#b6dcfe"/><path d="M18 23v4c0 .55-.45 1-1 1h-4c-.55 0-1-.45-1-1v-4h6m0-1h-6c-.55 0-1 .45-1 1v4a2 2 0 0 0 2 2h4a2 2 0 0 0 2-2v-4c0-.55-.45-1-1-1zm-.5-2h-6a.504.504 0 0 1-.5-.5c0-.273.227-.5.5-.5h6c.273 0 .5.227.5.5s-.227.5-.5.5zm11 0h-6a.504.504 0 0 1-.5-.5c0-.273.227-.5.5-.5h6c.273 0 .5.227.5.5s-.227.5-.5.5z" fill="#4788c7"/></svg>