<svg xmlns="http://www.w3.org/2000/svg" viewBox="0 0 48 48"><path d="M24 33c0 2.258-1 3.098-1 4.59 0 1.73 2 2.789 2 4.41 0 2.164-1.363 3.348-1.363 3.348" fill="none" stroke-width="2" stroke-linejoin="round" stroke="#b0bec5" stroke-miterlimit="10"/><path d="M26 34h-1l-1 1-1-1h-1l1-4h2z" fill="#dd2c00"/><path d="M24 31c-6.848 0-12-10.21-12-16.832C12 7.461 17.383 2 24 2s12 5.46 12 12.168C36 20.789 30.848 31 24 31z" fill="#ff3d00"/><path d="M16 16.5C16 10.7 20.7 6 26.5 6c.672 0 1.324.07 1.96.188A8.997 8.997 0 0 0 16.188 18.46 10.8 10.8 0 0 1 16 16.5z" fill="#fbe9e7"/></svg>