<svg xmlns="http://www.w3.org/2000/svg" viewBox="0 0 24 24"><path d="M12 2c-1.602 0-2.988.914-3.688 2.313-.5.699-.718 1.601-.718 2.5 0 2.101 1.207 4.593 2.906 5.593.164.098.336.145.5.219v6.469l-3.469-5.282c.574-.195 1.063-.562 1.563-1.124-1.7-1-2.688-3.774-2.688-5.876 0-1 .094-1.925.594-2.625h-.594C4.008 4.188 2 6.103 2 8.5c0 2.188 1.54 4.766 3.531 5.375L10.406 22h3.188l4.875-8.125C20.46 13.265 22 10.687 22 8.5c0-2.398-2.008-4.313-4.406-4.313H17c.398.801.594 1.727.594 2.625 0 2.102-.989 4.875-2.688 5.875.508.57.98.93 1.563 1.126L13 19.093v-6.437c.18-.078.36-.144.5-.25 1.7-1 2.906-3.492 2.906-5.594 0-1-.32-1.824-.718-2.625A4.175 4.175 0 0 0 12 2z"/></svg>