<svg xmlns="http://www.w3.org/2000/svg" viewBox="0 0 50 50"><path d="M25 0c-4.508 0-7.992 2.36-9.375 6.094C18.438 5.387 21.551 5 25 5c3.465 0 6.602.379 9.406 1.063C33.031 2.354 29.523 0 25 0zm0 7C9.523 7 1 14.43 1 27.906c0 3.36 2.637 5 4.344 5.5.648 1.465 2.117 2.567 3.656 3V37.5c0 5.941 4.469 10.594 10.188 10.594h1.906c.949 1.199 2.34 1.906 3.812 1.906 1.473 0 2.864-.707 3.813-1.906h1.875c5.718 0 10.218-4.649 10.218-10.594v-1.094c1.528-.43 2.97-1.511 3.626-2.937 1.69-.422 4.562-2.067 4.562-5.563C49 14.234 40.7 7 25 7zm-7.156 13.781c1.062 0 2.195.043 3.343.094 2.493.117 5.137.117 7.625 0 3.731-.172 7.262-.32 8.938 1.281.836.801 1.25 2.055 1.25 3.844v2c0 .27.121.531.313.719A.966.966 0 0 0 40 29h.031c.024-.008 1.39-.012 2.188.813.433.449.64 1.097.593 2 0 1.421-1.66 2.628-3.124 2.78a.99.99 0 0 0-.876 1V37.5c0 4.902-3.542 8.594-8.218 8.594h-2.407c-.343 0-.66.18-.843.468-.57.899-1.473 1.438-2.438 1.438-.965 0-1.898-.54-2.468-1.438a1.002 1.002 0 0 0-.844-.468h-2.407C14.59 46.094 11 42.324 11 37.5v-1.906c0-.512-.398-.946-.906-1C8.629 34.437 7 33.23 7 31.812c0-2.62 2.727-2.8 3.031-2.812A.996.996 0 0 0 11 28v-2c0-1.79.414-3.043 1.25-3.844 1.16-1.11 3.203-1.375 5.594-1.375zM19 27c-2.758 0-5 2.242-5 5s2.242 5 5 5 5-2.242 5-5-2.242-5-5-5zm12 0c-2.758 0-5 2.242-5 5s2.242 5 5 5 5-2.242 5-5-2.242-5-5-5z"/></svg>