<svg xmlns="http://www.w3.org/2000/svg" viewBox="0 0 40 40"><path d="M20 25.992c0 2.031-.5 3.16-.5 4.508 0 1.559 1 2.902 1 4.5 0 1.598-1 3.5-1 3.5" fill="none" stroke-linecap="round" stroke="#4788c7" stroke-miterlimit="10"/><path d="M20 26.5c-5.695 0-10.5-9.055-10.5-14.742C9.5 6.102 14.21 1.5 20 1.5s10.5 4.602 10.5 10.258C30.5 17.445 25.695 26.5 20 26.5z" fill="#dff0fe"/><path d="M20 2c5.516 0 10 4.379 10 9.758C30 17.254 25.426 26 20 26s-10-8.746-10-14.242C10 6.378 14.484 2 20 2m0-1C13.926 1 9 5.816 9 11.758 9 17.699 13.926 27 20 27s11-9.3 11-15.242S26.074 1 20 1z" fill="#4788c7"/><path d="M22 29h-4l.8-2.398h2.4z" fill="#4788c7"/></svg>