<svg xmlns="http://www.w3.org/2000/svg" viewBox="0 0 50 50"><path d="M25 2c-7.168 0-13 5.832-13 13 0 6.512 4.723 16.254 11.25 17.781L22.5 35h1.188c-.04.121-.083.254-.125.375-.239.684-.563 1.441-.563 2.438 0 1.273.594 2.355 1.094 3.343.5.989.906 1.887.906 2.344 0 1.973-.781 2.875-.781 2.875a1 1 0 1 0 1.562 1.25S27 46.059 27 43.5c0-1.242-.598-2.266-1.094-3.25-.496-.984-.906-1.898-.906-2.438 0-.57.18-1.042.438-1.78.105-.302.214-.645.312-1.032h1.75l-.75-2.219C33.277 31.254 38 21.511 38 15c0-7.168-5.832-13-13-13z"/></svg>