<svg xmlns="http://www.w3.org/2000/svg" viewBox="0 0 48 48"><path d="M24 27v17m0 0l-5.309-14.16M24 44l5-16" fill="none" stroke-width="2" stroke-linejoin="round" stroke="#b0bec5" stroke-miterlimit="10"/><path d="M26 30h-1l-1 1-1-1h-1l1-3.75h2z" fill="#ffa000"/><path d="M21.617 31.77l-.926.375-.55 1.304-1.301-.55-.93.378-.484-3.851 1.851-.754z" fill="#558b2f"/><path d="M21.953 15.41c1.953 4.559 1.324 13.176-3.152 15.164-4.48 1.992-11.11-3.394-13.063-7.957-1.953-4.558.09-9.87 4.57-11.86 4.477-1.991 9.688.09 11.645 4.653z" fill="#7cb342"/><path d="M28.61 26.39l1.855.755-.488 3.851-.926-.379-1.305.551-.55-1.305-.926-.375z" fill="#dd2c00"/><path d="M25.105 11.664c-2.062 4.781-1.394 13.805 3.329 15.89 4.726 2.087 11.722-3.558 13.785-8.335 2.062-4.778-.098-10.344-4.824-12.43-4.723-2.082-10.227.098-12.29 4.875z" fill="#ff3d00"/><path d="M20.605 29.188a7.793 7.793 0 0 0 1.102-1.692C17.293 25.617 14 18.734 14 14c0-1.398.293-2.73.813-3.938-.153-.015-.301-.03-.454-.039a8.667 8.667 0 0 0-1.707.11A11.851 11.851 0 0 0 12 14c0 5.336 3.465 12.777 8.605 15.188z" fill="#558b2f"/><path d="M8.895 23.621a8.426 8.426 0 0 1 4.355-11.09 8.547 8.547 0 0 1 1.504-.488 7.153 7.153 0 0 0-3.664.559 7.214 7.214 0 0 0-3.73 9.503A7.172 7.172 0 0 0 9.663 25a8.441 8.441 0 0 1-.77-1.379z" fill="#f1f8e9"/><path d="M34 14c0 5.523-4.477 14-10 14s-10-8.477-10-14S18.477 4 24 4s10 4.477 10 10z" fill="#ffc107"/><path d="M36 14c0-3.059-1.16-5.848-3.05-7.969a9.174 9.174 0 0 0-2.321.496A9.968 9.968 0 0 1 34 14c0 4.332-2.758 10.46-6.61 12.914.325.25.669.473 1.044.64.34.15.699.25 1.058.325C33.453 24.695 36 18.57 36 14z" fill="#dd2c00"/><path d="M17.008 16.336a9.359 9.359 0 0 1 9.36-9.363c.597 0 1.179.062 1.745.168a8.006 8.006 0 0 0-3.976-1.059 8.023 8.023 0 0 0-8.024 8.023c0 1.45.39 2.801 1.063 3.977a9.19 9.19 0 0 1-.168-1.746z" fill="#fffde7"/></svg>