<svg xmlns="http://www.w3.org/2000/svg" viewBox="0 0 64 64"><path d="M31 2C15.012 2 2 15.008 2 31s13.012 29 29 29 29-13.008 29-29S46.988 2 31 2zm0 2c14.55 0 26.445 11.574 26.973 26H40.949a10.44 10.44 0 0 0-.328-1.742 1.01 1.01 0 0 0-1.234-.692 1.002 1.002 0 0 0-.692 1.235 7.994 7.994 0 0 1-4.172 9.344c-3.957 1.945-8.761.312-10.71-3.645-1.946-3.96-.31-8.766 3.652-10.71a7.945 7.945 0 0 1 2.625-.774 1 1 0 0 0 .879-1.106 1.005 1.005 0 0 0-1.11-.879 9.923 9.923 0 0 0-3.28.965c-3.216 1.578-5.196 4.676-5.524 8.004H4.023C4.555 15.574 16.45 4 31 4zm-.41 4.004a23.079 23.079 0 0 0-6.68 1.113 1 1 0 1 0 .617 1.898 21.192 21.192 0 0 1 9.813-.75 1 1 0 0 0 .316-1.976 23.24 23.24 0 0 0-4.066-.285zm8.07 1.383a.998.998 0 0 0-.894.648.999.999 0 0 0 .586 1.29c.714.265 1.418.573 2.101.913a.97.97 0 0 0 .45.11c.363 0 .714-.2.894-.551a1.005 1.005 0 0 0-.445-1.344c-.743-.375-1.52-.71-2.301-1.004a1.05 1.05 0 0 0-.39-.062zm-4.375 12.21a1.01 1.01 0 0 0-.91.637c-.2.512.05 1.094.563 1.297a7.929 7.929 0 0 1 2.605 1.668.985.985 0 0 0 .691.281.998.998 0 0 0 .72-.308.996.996 0 0 0-.028-1.414 9.901 9.901 0 0 0-3.25-2.086 1.065 1.065 0 0 0-.39-.074zM31 26c-2.758 0-5 2.242-5 5s2.242 5 5 5 5-2.242 5-5-2.242-5-5-5zm0 2c1.652 0 3 1.348 3 3s-1.348 3-3 3-3-1.348-3-3 1.348-3 3-3zM4.023 32H21.06a9.934 9.934 0 0 0 .957 3.379c1.738 3.535 5.297 5.59 8.992 5.59A9.997 9.997 0 0 0 40.934 32h17.039C57.445 46.426 45.55 58 31 58 16.45 58 4.555 46.426 4.023 32zm11.375 10a.98.98 0 0 0-.746.18l-1.617 1.18a.999.999 0 1 0 1.18 1.613l1.613-1.176a1.001 1.001 0 0 0-.43-1.797zm3.247 3.68a1.005 1.005 0 0 0-.672.367l-1.254 1.555a1 1 0 1 0 1.554 1.257l1.258-1.558a1.003 1.003 0 0 0-.152-1.406 1.003 1.003 0 0 0-.734-.215zm4.468 2.648a.993.993 0 0 0-.93.594l-.812 1.828a1.001 1.001 0 0 0 1.828.813l.813-1.829a1.005 1.005 0 0 0-.512-1.324.97.97 0 0 0-.387-.082zm5.024 1.45a.997.997 0 0 0-1.145.831l-.308 1.977a1 1 0 0 0 .832 1.144c.05.008.101.008.156.008.48 0 .906-.347.984-.843l.313-1.973a1 1 0 0 0-.832-1.145zm4.828.117a1 1 0 0 0-.89 1.101l.21 1.988c.059.512.488.895.996.895a1.004 1.004 0 0 0 .996-1.11l-.215-1.988a1 1 0 0 0-1.097-.886z"/></svg>