<svg xmlns="http://www.w3.org/2000/svg" viewBox="0 0 40 40"><path d="M19.5 37.5c-9.926 0-18-8.074-18-18s8.074-18 18-18 18 8.074 18 18-8.074 18-18 18z" fill="#fff"/><path d="M19.5 2C29.148 2 37 9.852 37 19.5S29.148 37 19.5 37 2 29.148 2 19.5 9.852 2 19.5 2m0-1C9.281 1 1 9.281 1 19.5S9.281 38 19.5 38 38 29.719 38 19.5 29.719 1 19.5 1z" fill="#4788c7"/><path d="M19.5 2C9.836 2 2 9.836 2 19.5h35C37 9.836 29.164 2 19.5 2z" fill="#b6dcfe"/><path d="M2 19h35v1H2z" fill="#4788c7"/><path d="M24.5 19.5a5 5 0 1 1-10 0 5 5 0 0 1 10 0z" fill="#fff"/><path d="M19.5 15c2.48 0 4.5 2.02 4.5 4.5S21.98 24 19.5 24 15 21.98 15 19.5s2.02-4.5 4.5-4.5m0-1c-3.04 0-5.5 2.46-5.5 5.5s2.46 5.5 5.5 5.5 5.5-2.46 5.5-5.5-2.46-5.5-5.5-5.5z" fill="#4788c7"/><path d="M21 19.5a1.5 1.5 0 1 1-3 0 1.5 1.5 0 0 1 3 0z" fill="#4788c7"/></svg>