<svg xmlns="http://www.w3.org/2000/svg" viewBox="0 0 64 64"><path d="M57 40a24.913 24.913 0 0 0-7.11-17.46c.45-.419.91-.86 1.348-1.302C57.73 14.762 61.781 7.352 62.66 1.34c-6 .89-13.422 4.93-19.91 11.422a50.79 50.79 0 0 0-3.129 3.43 25.035 25.035 0 0 0-15.25 0c-1-1.16-2-2.313-3.133-3.43C14.762 6.27 7.352 2.219 1.34 1.34c.89 6 4.93 13.422 11.422 19.91.449.45.898.879 1.347 1.3a24.902 24.902 0 0 0-6.968 20.052c.05.52-.098 1.039-.41 1.457A8.33 8.33 0 0 0 5 49c0 7.73 12.09 14 27 14s27-6.27 27-14a8.33 8.33 0 0 0-1.73-4.941 2.095 2.095 0 0 1-.41-1.457c.093-.864.14-1.735.14-2.602z" fill="#f9dd8f"/><path d="M55 49c0 4.719-9.84 10-23 10S9 53.719 9 49l-2.898 3.871S12.27 62.72 32 63c19.73.281 25.77-9.3 26.371-10.309C58.97 51.68 55 49 55 49z" fill="#f6d397"/><path d="M53.672 4c.828 4.238.5 14.309.5 14.309S62.34 7 62.66 1.879zm-43.102.621A27.305 27.305 0 0 0 1.34 1.34c-9.23-3.281 3 11.129 7.512 15.531L9 8.101z" fill="#989ba3"/><path d="M11 49c0-2.762-1.344-5-3-5s-3 2.238-3 5 1.344 5 3 5 3-2.238 3-5z" fill="#ed7899"/><path d="M23 39a3 3 0 1 1-6.002-.002A3 3 0 0 1 23 39zm24 0a3 3 0 1 1-6.002-.002A3 3 0 0 1 47 39z" fill="#8b8e98"/><path d="M59 49c0-2.762-1.344-5-3-5s-3 2.238-3 5 1.344 5 3 5 3-2.238 3-5z" fill="#ed7899"/><path d="M46 38.5a1.5 1.5 0 1 1-3 0 1.5 1.5 0 0 1 3 0zm-24 0a1.5 1.5 0 1 1-3 0 1.5 1.5 0 0 1 3 0zm8 4.5h4.422v2.578l-2.211 2L29.25 44.5z" fill="#989ba3"/><path d="M28.82 51.879A17.178 17.178 0 0 1 32 49.5l3.059 2L34 55.41l-2.648.469-2.102-1.59z" fill="#ed7899"/><path d="M57.86 42.71a25.915 25.915 0 0 0-6.56-20.12l.65-.64c.82-.821 1.609-1.66 2.359-2.52 5.07-5.801 8.48-12.309 9.312-17.899a1.006 1.006 0 0 0-.254-.87.996.996 0 0 0-.847-.31c-6.442.95-14.09 5.32-20.47 11.7a48.599 48.599 0 0 0-2.76 3 26.177 26.177 0 0 0-14.571 0c-.89-1-1.82-2-2.758-3C15.57 5.67 7.92 1.3 1.48.35a.99.99 0 0 0-.848.282.99.99 0 0 0-.281.847C1.172 7.07 4.59 13.59 9.66 19.38c.754.86 1.54 1.7 2.36 2.52l.652.64A25.853 25.853 0 0 0 6 40c.004.902.05 1.805.148 2.7.028.277-.05.55-.218.769A9.306 9.306 0 0 0 4 49c0 8.41 12.3 15 28 15s28-6.59 28-15a9.29 9.29 0 0 0-1.922-5.52 1.135 1.135 0 0 1-.219-.77zm-2.141-28.28A22.9 22.9 0 0 0 56 11c0-2.07-.285-4.129-.852-6.121a27.95 27.95 0 0 1 6.262-2.3 33.537 33.537 0 0 1-5.691 11.85zM8.852 4.879A22.373 22.373 0 0 0 8 11c.008 1.148.102 2.297.281 3.43A33.63 33.63 0 0 1 2.578 2.578a28.042 28.042 0 0 1 6.274 2.3zM32 62C17.91 62 6 56 6 49a7.33 7.33 0 0 1 1.52-4.309A4.998 4.998 0 0 1 9.328 51.5a1.002 1.002 0 0 0 .86 1.535.994.994 0 0 0 .87-.535 6.983 6.983 0 0 0 .637-5.5 6.985 6.985 0 0 0-3.554-4.238v-.274A24.023 24.023 0 0 1 8 40a23.886 23.886 0 0 1 6.828-16.762.99.99 0 0 0 0-1.43 47.268 47.268 0 0 1-3.477-3.57 20.366 20.366 0 0 1-.703-12.398 47.036 47.036 0 0 1 9.883 7.62 50.945 50.945 0 0 1 3.07 3.368 1 1 0 0 0 1.07.313 24.127 24.127 0 0 1 14.638 0 1 1 0 0 0 1.07-.313c1-1.18 2-2.308 3.07-3.367a47.113 47.113 0 0 1 9.88-7.621c.44 1.683.667 3.418.671 5.16a20.344 20.344 0 0 1-1.32 7.25 38.855 38.855 0 0 1-2.149 2.29c-.441.44-.883.858-1.332 1.28a1.002 1.002 0 0 0 0 1.43 23.908 23.908 0 0 1 6.672 19.25v.262a7 7 0 0 0-2.93 9.738.996.996 0 0 0 1.344.328 1 1 0 0 0 .387-1.328 4.996 4.996 0 0 1 1.816-6.809A7.295 7.295 0 0 1 58 49c0 7-11.91 13-26 13z" fill="#8d6c9f"/><path d="M24 39c0-2.21-1.79-4-4-4s-4 1.79-4 4 1.79 4 4 4 4-1.79 4-4zm-6 0a1.999 1.999 0 1 1 4 0 1.999 1.999 0 1 1-4 0zm24.36 10.29A5.335 5.335 0 0 1 38 51c-2.93 0-4.898-1.16-5-2.89a1.95 1.95 0 0 0 .55-.462l1.919-2.398A2 2 0 0 0 33.922 42h-3.844a2 2 0 0 0-1.8 1.133 2.004 2.004 0 0 0 .242 2.117l1.921 2.398c.153.188.34.344.547.461C30.898 49.84 28.93 51 26 51a5.335 5.335 0 0 1-4.36-1.71 1.005 1.005 0 0 0-1.359.062 1.004 1.004 0 0 0-.043 1.359A7.323 7.323 0 0 0 26 53c.672 0 1.34-.055 2-.172A4.22 4.22 0 0 0 32 57a4.22 4.22 0 0 0 4-4.172c.66.117 1.328.172 2 .172a7.321 7.321 0 0 0 5.77-2.29.996.996 0 0 0 .003-1.413 1 1 0 0 0-1.414-.008zM30.077 44h3.844L32 46.398zM34 52.5a2.29 2.29 0 0 1-2 2.5 2.29 2.29 0 0 1-2-2.5v-.281a5.465 5.465 0 0 0 2-1.469 5.465 5.465 0 0 0 2 1.469v.281zM44 35c-2.21 0-4 1.79-4 4s1.79 4 4 4 4-1.79 4-4-1.79-4-4-4zm0 6a1.999 1.999 0 1 1 0-4 1.999 1.999 0 1 1 0 4zM32 23c.55 0 1-.45 1-1v-2c0-.55-.45-1-1-1s-1 .45-1 1v2c0 .55.45 1 1 1zm-6-.078a1.003 1.003 0 0 0 1.691.469.998.998 0 0 0 .239-.993l-.52-1.93a.997.997 0 0 0-1.215-.671.999.999 0 0 0-.715 1.191zm15.25 2.558c.23.133.504.168.762.102.258-.07.476-.242.61-.473l1-1.73a1.001 1.001 0 0 0-1.731-1l-1 1.73a1 1 0 0 0 .359 1.371zm-19.871-.37a.998.998 0 0 0 1.344.328.996.996 0 0 0 .386-1.329l-1-1.73a1 1 0 0 0-1.73 1zm15.411-1.481a.998.998 0 0 0 1.21-.707L38.531 21a1.002 1.002 0 0 0-.715-1.191.997.997 0 0 0-1.214.671l-.524 1.93c-.137.531.18 1.078.711 1.219z" fill="#8d6c9f"/></svg>