<svg xmlns="http://www.w3.org/2000/svg" viewBox="0 0 50 50"><path d="M10 0C6.691 0 4 2.691 4 6s2.691 6 6 6 6-2.691 6-6-2.691-6-6-6zm28.031 0c-3.3 0-6 2.7-6 6s2.7 6 6 6c3.301 0 6-2.7 6-6s-2.699-6-6-6zM22.594 6.906c-1 0-1.594.79-1.594 1.688 0 1.8 3.5 4.406 3.5 4.406S28 10.395 28 8.594c0-.899-.813-1.688-1.813-1.688s-1.78.907-1.78.907-.813-.907-1.813-.907zM5.5 13A5.508 5.508 0 0 0 0 18.5V33c0 1.105.898 2 2 2 1.102 0 2-.895 2-2V21c0-.27.23-.5.5-.5s.5.23.5.5v26.313C5 48.874 5.84 50 7.406 50 8.886 50 10 48.852 10 47.312V33.688c0-.278.223-.5.5-.5s.5.222.5.5v13.906c.004.008.027-.008.031 0 .137 1.383 1.18 2.406 2.563 2.406C15.156 50 16 48.875 16 47.312V21c0-.27.23-.5.5-.5s.453.2.594.5l4.062 8c.492.86.899 1.938 2 2 1.375.078 2.84-1.098 1.969-3.219-.238-.57-5.063-11.281-5.063-11.281-.753-1.938-2.507-3.262-4.562-3.5zm29.313 0c-1.766 0-3.493.988-4.376 2.5-.265.45-.558.953-.875 1.5 0 0-.07.11-.187.313-.238.41-.496.84-.75 1.28-.8 1.384-1.965 3.462-3.031 5.313a252.78 252.78 0 0 1 1.375 3.125c.215.52.324 1 .375 1.438l3.281-4.813c.008-.027 1.3-1.914 1.313-1.937v-.032a.49.49 0 0 1 .437-.28c.277 0 .5.222.5.5 0 .038-.023.085-.031.124l-4.75 13.563c-.102.3-.02.605.125.906.199.3.476.5.875.5h16.875c.398 0 .707-.2.906-.5.145-.3.191-.605.094-.906l-4.75-13.563c-.008-.039 0-.054 0-.093 0-.278.222-.5.5-.5.195 0 .355.085.437.25v.03c.012.024.024.036.032.063l3.312 9.407c.3.601.621 1.218 1.719 1.218 1.902 0 2.031-1.508 1.531-2.906 0-.102-4-12.5-4-12.5-.602-2.2-1.992-4-5.094-4zM33.03 38v10c0 1.102.899 2 2 2 1.102 0 2-.898 2-2V38zm5 0v10c0 1.102.899 2 2 2 1.102 0 2-.898 2-2V38z"/></svg>