<svg xmlns="http://www.w3.org/2000/svg" viewBox="0 0 16 16"><path d="M6.484 1c-.015 0-.035 0-.05.004a.474.474 0 0 0-.145.043c-.016.004-.027.012-.039.016L2.29 2.921a.5.5 0 0 0-.29.453V5.5c0 .277.223.5.5.5h1.453c-.094.738-.367 3.086.055 5.582A.5.5 0 0 0 4.5 12c.84 0 1.102.34 1.281.715.18.375.176.77.176.77a.495.495 0 0 0 .14.363.496.496 0 0 0 .36.152h3.035a.506.506 0 0 0 .356-.148.493.493 0 0 0 .144-.352s.004-.398.195-.777c.192-.38.47-.723 1.313-.723.242 0 .45-.176.492-.414.39-2.219.13-4.832.047-5.586H13.5a.503.503 0 0 0 .5-.5V3.375a.5.5 0 0 0-.29-.453L9.75 1.066a.575.575 0 0 0-.086-.039c-.012-.004-.027-.011-.047-.011-.012-.008-.027-.008-.043-.012h-.012C9.547 1.004 9.536 1 9.52 1H6.484zM7 2h2c-.004.023-.023.273-.148.523C8.715 2.781 8.555 3 8 3c-.555 0-.715-.219-.852-.477-.125-.25-.144-.5-.148-.523zm-.938.258c.016.156.008.355.196.719A1.933 1.933 0 0 0 8 4c.898 0 1.488-.531 1.742-1.023.188-.364.18-.563.195-.72L13 3.696V5h-1.5a.503.503 0 0 0-.5.559s.348 3.296.016 5.578c-.848.168-1.465.625-1.723 1.14-.184.368-.148.489-.176.723H6.844c-.024-.234.015-.352-.157-.715-.25-.52-.859-.976-1.707-1.144-.378-2.621.012-5.57.012-5.57A.494.494 0 0 0 4.5 5H3V3.695z"/></svg>