<svg xmlns="http://www.w3.org/2000/svg" viewBox="0 0 24 24"><path d="M12.594 0c-1.5 0-1.492 1.492-1.094 2.094.3.601 3.012 6.101 1.813 7.5C12.413 10.594 11 9 8.5 9 6 9 4.398 10.7 3 9c0 2.7 2.688 3.594 2.688 3.594s1.8-1.281 4.5-1.281C7.288 12.113 6 13.5 5 15c.3.2 2.8 1 5 1 3.602 0 5-5 5-6.5 0-1.898-1.3-5.992-1.5-6.594 2-.699 6.594-1.594 6.594-1.594C17.695 1.113 14 1 14 1s-.105-1-1.406-1zM8.813 16.906l-.407.688a.617.617 0 0 0 0 .593l1.938 4.344C9.547 23.125 9.313 24 9.313 24s1.175-.688 2.374-.688c1.801 0 3.813.688 3.813.688-.523-.676-1.047-1.02-1.656-1.188.5.094.844.188.844.188s-.79-1-2.688-1c-.207 0-.387.031-.563.063l-2.03-3.875 1-1.188H10c-.398 0-.79.008-1.188-.094z"/></svg>