<svg xmlns="http://www.w3.org/2000/svg" viewBox="0 0 32 32"><path d="M19.844 4.469c-.703 0-1.543.207-2.313.375a30.18 30.18 0 0 0-1.406.343l-1.375.344.813 1.188s.64.972 1.25 2.187L18.625 8c-.34-.68-.45-.781-.719-1.219.032-.008.032.008.063 0 .726-.16 1.636-.312 1.875-.312.875 0 1.562.687 1.562 1.562 0 .457-.539 1.078-1.312 1.563a9.94 9.94 0 0 1-1.563.781l-.781.25.094.813c.164 1.332.277 3.515-.407 5.718-2.863.477-5.488-.351-7.718-2-2.23-1.648-4.043-4.136-5.125-6.812l-.25-.625H2.78l-.281.5S1 10.945 1 15.28c0 4.309 3.45 7.313 7.156 7.313v-2C5.516 20.594 3 18.539 3 15.28c0-2.027.332-3.531.656-4.562 1.215 2.332 2.79 4.488 4.875 6.031 2.258 1.668 4.985 2.691 7.938 2.531-.047.082-.074.172-.125.25C14.473 22.411 10.559 25 2 25v2c8.973 0 13.719-2.867 16-6.375 2.078-3.191 2.043-6.563 1.844-8.688.367-.144.648-.207 1.312-.624.867-.547 1.914-1.407 2.188-2.657 1.308-.277 3.289-.758 5.062-1.406-.437.543-.761 1.172-1 1.875-.418 1.234-.707 2.629-1.093 4.031a18.957 18.957 0 0 1-.938 2.688A2.502 2.502 0 0 0 21 17.5c0 .863.43 1.613 1.094 2.063-.149.078-.278.18-.438.25l-1.062.5.625.968S22.87 24 25.844 24c1.082 0 2.144-.41 2.875-1.219.73-.808 1.18-1.914 1.5-3.343C30.859 16.581 31 12.323 31 6h-8.25a3.529 3.529 0 0 0-2.906-1.531zm9.062 6.812c-.093 3.305-.285 6.055-.656 7.719-.277 1.246-.629 2.027-1 2.438-.371.41-.742.562-1.406.562-.989 0-1.719-.547-2.25-1.063 2.715-1.75 3.941-4.648 4.656-7.25.25-.906.453-1.62.656-2.406z"/></svg>