<svg xmlns="http://www.w3.org/2000/svg" viewBox="0 0 40 40"><path d="M32.5 37.5h7m-39 0h7" fill="none" stroke-linecap="round" stroke-linejoin="round" stroke="#4788c7" stroke-miterlimit="10"/><path d="M34.5 37.5V6c0-.277-.223-.5-.5-.5H6c-.277 0-.5.223-.5.5v31.5h-3V6c0-1.93 1.57-3.5 3.5-3.5h28c1.93 0 3.5 1.57 3.5 3.5v31.5z" fill="#b6dcfe"/><path d="M34 3c1.652 0 3 1.348 3 3v31h-2V6c0-.55-.45-1-1-1H6c-.55 0-1 .45-1 1v31H3V6c0-1.652 1.348-3 3-3h28m0-1H6C3.79 2 2 3.79 2 6v32h4V6h28v32h4V6c0-2.21-1.79-4-4-4z" fill="#4788c7"/><path d="M25 3h3v2h-3zM12 3h3v2h-3z" fill="#fff"/><path d="M27 6.5c0 .277-.223.5-.5.5a.498.498 0 0 1-.5-.5.499.499 0 1 1 1 0z" fill="#4788c7"/><path d="M27 7.5c0 .277-.223.5-.5.5a.498.498 0 0 1-.5-.5.499.499 0 1 1 1 0z" fill="#4788c7"/><path d="M27 8.5c0 .277-.223.5-.5.5a.498.498 0 0 1-.5-.5.499.499 0 1 1 1 0z" fill="#4788c7"/><path d="M27 9.5c0 .277-.223.5-.5.5a.498.498 0 0 1-.5-.5.499.499 0 1 1 1 0z" fill="#4788c7"/><path d="M27 10.5c0 .277-.223.5-.5.5a.498.498 0 0 1-.5-.5.499.499 0 1 1 1 0z" fill="#4788c7"/><path d="M27 11.5c0 .277-.223.5-.5.5a.498.498 0 0 1-.5-.5.499.499 0 1 1 1 0z" fill="#4788c7"/><path d="M27 12.5c0 .277-.223.5-.5.5a.498.498 0 0 1-.5-.5.499.499 0 1 1 1 0z" fill="#4788c7"/><path d="M27 13.5c0 .277-.223.5-.5.5a.498.498 0 0 1-.5-.5.499.499 0 1 1 1 0z" fill="#4788c7"/><path d="M27 14.5c0 .277-.223.5-.5.5a.498.498 0 0 1-.5-.5.499.499 0 1 1 1 0z" fill="#4788c7"/><path d="M27 15.5c0 .277-.223.5-.5.5a.498.498 0 0 1-.5-.5.499.499 0 1 1 1 0z" fill="#4788c7"/><path d="M27 16.5c0 .277-.223.5-.5.5a.498.498 0 0 1-.5-.5.499.499 0 1 1 1 0z" fill="#4788c7"/><path d="M27 17.5c0 .277-.223.5-.5.5a.498.498 0 0 1-.5-.5.499.499 0 1 1 1 0z" fill="#4788c7"/><path d="M27 18.5c0 .277-.223.5-.5.5a.498.498 0 0 1-.5-.5.499.499 0 1 1 1 0z" fill="#4788c7"/><path d="M27 19.5c0 .277-.223.5-.5.5a.498.498 0 0 1-.5-.5.499.499 0 1 1 1 0z" fill="#4788c7"/><path d="M27 20.5c0 .277-.223.5-.5.5a.498.498 0 0 1-.5-.5.499.499 0 1 1 1 0z" fill="#4788c7"/><path d="M27 21.5c0 .277-.223.5-.5.5a.498.498 0 0 1-.5-.5.499.499 0 1 1 1 0z" fill="#4788c7"/><path d="M27 22.5c0 .277-.223.5-.5.5a.498.498 0 0 1-.5-.5.499.499 0 1 1 1 0z" fill="#4788c7"/><path d="M27 23.5c0 .277-.223.5-.5.5a.498.498 0 0 1-.5-.5.499.499 0 1 1 1 0z" fill="#4788c7"/><path d="M27 24.5c0 .277-.223.5-.5.5a.498.498 0 0 1-.5-.5.499.499 0 1 1 1 0z" fill="#4788c7"/><path d="M27 25.5c0 .277-.223.5-.5.5a.498.498 0 0 1-.5-.5.499.499 0 1 1 1 0z" fill="#4788c7"/><path d="M27 26.5c0 .277-.223.5-.5.5a.498.498 0 0 1-.5-.5.499.499 0 1 1 1 0z" fill="#4788c7"/><path d="M27 27.5c0 .277-.223.5-.5.5a.498.498 0 0 1-.5-.5.499.499 0 1 1 1 0z" fill="#4788c7"/><path d="M27 28.5c0 .277-.223.5-.5.5a.498.498 0 0 1-.5-.5.499.499 0 1 1 1 0z" fill="#4788c7"/><path d="M27 29.5c0 .277-.223.5-.5.5a.498.498 0 0 1-.5-.5.499.499 0 1 1 1 0zm-13-23c0 .277-.223.5-.5.5a.498.498 0 0 1-.5-.5.499.499 0 1 1 1 0z" fill="#4788c7"/><path d="M14 7.5c0 .277-.223.5-.5.5a.498.498 0 0 1-.5-.5.499.499 0 1 1 1 0z" fill="#4788c7"/><path d="M14 8.5c0 .277-.223.5-.5.5a.498.498 0 0 1-.5-.5.499.499 0 1 1 1 0z" fill="#4788c7"/><path d="M14 9.5c0 .277-.223.5-.5.5a.498.498 0 0 1-.5-.5.499.499 0 1 1 1 0z" fill="#4788c7"/><path d="M14 10.5c0 .277-.223.5-.5.5a.498.498 0 0 1-.5-.5.499.499 0 1 1 1 0z" fill="#4788c7"/><path d="M14 11.5c0 .277-.223.5-.5.5a.498.498 0 0 1-.5-.5.499.499 0 1 1 1 0z" fill="#4788c7"/><path d="M14 12.5c0 .277-.223.5-.5.5a.498.498 0 0 1-.5-.5.499.499 0 1 1 1 0z" fill="#4788c7"/><path d="M14 13.5c0 .277-.223.5-.5.5a.498.498 0 0 1-.5-.5.499.499 0 1 1 1 0z" fill="#4788c7"/><path d="M14 14.5c0 .277-.223.5-.5.5a.498.498 0 0 1-.5-.5.499.499 0 1 1 1 0z" fill="#4788c7"/><path d="M14 15.5c0 .277-.223.5-.5.5a.498.498 0 0 1-.5-.5.499.499 0 1 1 1 0z" fill="#4788c7"/><path d="M14 16.5c0 .277-.223.5-.5.5a.498.498 0 0 1-.5-.5.499.499 0 1 1 1 0z" fill="#4788c7"/><path d="M14 17.5c0 .277-.223.5-.5.5a.498.498 0 0 1-.5-.5.499.499 0 1 1 1 0z" fill="#4788c7"/><path d="M14 18.5c0 .277-.223.5-.5.5a.498.498 0 0 1-.5-.5.499.499 0 1 1 1 0z" fill="#4788c7"/><path d="M14 19.5c0 .277-.223.5-.5.5a.498.498 0 0 1-.5-.5.499.499 0 1 1 1 0z" fill="#4788c7"/><path d="M14 20.5c0 .277-.223.5-.5.5a.498.498 0 0 1-.5-.5.499.499 0 1 1 1 0z" fill="#4788c7"/><path d="M14 21.5c0 .277-.223.5-.5.5a.498.498 0 0 1-.5-.5.499.499 0 1 1 1 0z" fill="#4788c7"/><path d="M14 22.5c0 .277-.223.5-.5.5a.498.498 0 0 1-.5-.5.499.499 0 1 1 1 0z" fill="#4788c7"/><path d="M14 23.5c0 .277-.223.5-.5.5a.498.498 0 0 1-.5-.5.499.499 0 1 1 1 0z" fill="#4788c7"/><path d="M14 24.5c0 .277-.223.5-.5.5a.498.498 0 0 1-.5-.5.499.499 0 1 1 1 0z" fill="#4788c7"/><path d="M14 25.5c0 .277-.223.5-.5.5a.498.498 0 0 1-.5-.5.499.499 0 1 1 1 0z" fill="#4788c7"/><path d="M14 26.5c0 .277-.223.5-.5.5a.498.498 0 0 1-.5-.5.499.499 0 1 1 1 0z" fill="#4788c7"/><path d="M14 27.5c0 .277-.223.5-.5.5a.498.498 0 0 1-.5-.5.499.499 0 1 1 1 0z" fill="#4788c7"/><path d="M14 28.5c0 .277-.223.5-.5.5a.498.498 0 0 1-.5-.5.499.499 0 1 1 1 0z" fill="#4788c7"/><path d="M14 29.5c0 .277-.223.5-.5.5a.498.498 0 0 1-.5-.5.499.499 0 1 1 1 0z" fill="#4788c7"/><path d="M20 34.5c-2.629 0-5.234-.754-6.23-1.078-.165-.05-.27-.18-.27-.324v-3.559c0-.059.074-.102.137-.102C14.969 29.84 17.48 30.5 20 30.5c2.52 0 5.031-.66 6.309-1.055h.027c.105 0 .164.04.164.094v3.559c0 .144-.105.273-.266.328-1 .32-3.605 1.074-6.234 1.074z" fill="#dff0fe"/><path d="M26 30.059v2.914C24.973 33.3 22.492 34 20 34s-4.973-.7-6-1.027v-2.914c1.39.402 3.688.941 6 .941 2.313 0 4.61-.54 6-.941m.363-1.122a.612.612 0 0 0-.203.032C24.91 29.355 22.457 30 20 30c-2.457 0-4.91-.645-6.16-1.031a.612.612 0 0 0-.203-.032c-.34 0-.637.258-.637.602v3.559c0 .363.246.683.613.8C14.758 34.27 17.348 35 20 35c2.652 0 5.242-.73 6.387-1.102.367-.117.613-.437.613-.8v-3.559c0-.344-.297-.602-.637-.602z" fill="#4788c7"/></svg>