<svg xmlns="http://www.w3.org/2000/svg" viewBox="0 0 40 40"><path d="M30.934 17.875H9.512s.105 2.145.105 14.965H30.38c.004-12.774.555-14.965.555-14.965z" fill="#4788c7"/><path d="M3.508 38.5c.336-10.148 10.8-11.988 10.906-12.008l11.254.008c.355.066 10.496 1.906 10.824 12z" fill="#98ccfd"/><path d="M25.578 27c.992.188 9.774 2.105 10.387 11H4.035c.613-8.934 9.406-10.816 10.387-11h11.156m.09-1H14.332S3 27.863 3 39h34c0-11.098-11.332-13-11.332-13z" fill="#4788c7"/><path d="M14.527 28.059v-5.532h10.946v5.285l-5.48 6.848z" fill="#fff"/><path d="M24.941 23.059v4.57l-4.957 6.195-4.925-5.957V23.06h9.882M26 22H14v6.25l6 7.25 6-7.5z" fill="#4788c7"/><path d="M20 26.5a2.488 2.488 0 0 1-1.688-.668l-.085-.078-.11-.031A6.463 6.463 0 0 1 13.5 19.5v-8.137a2.84 2.84 0 0 1 2.836-2.836h7.328a2.84 2.84 0 0 1 2.836 2.836V19.5a6.463 6.463 0 0 1-4.617 6.223l-.11.03-.085.079A2.488 2.488 0 0 1 20 26.5z" fill="#fff"/><path d="M23.664 9.027A2.337 2.337 0 0 1 26 11.363V19.5c0 2.621-1.754 4.984-4.262 5.742l-.222.067-.168.156A1.993 1.993 0 0 1 20 26c-.496 0-.973-.191-1.348-.535l-.172-.156-.218-.067C15.754 24.484 14 22.122 14 19.5v-8.137a2.337 2.337 0 0 1 2.336-2.336h7.328m0-1h-7.328A3.334 3.334 0 0 0 13 11.363V19.5a7.005 7.005 0 0 0 4.973 6.7c.535.491 1.242.8 2.027.8.785 0 1.492-.309 2.027-.8A7.005 7.005 0 0 0 27 19.5v-8.137a3.334 3.334 0 0 0-3.336-3.336z" fill="#4788c7"/><path d="M14.02 38.5A7.375 7.375 0 0 1 12.5 34c0-4.137 3.363-7.5 7.5-7.5 4.137 0 7.5 3.363 7.5 7.5a7.375 7.375 0 0 1-1.52 4.5z" fill="#dff0fe"/><path d="M20 27c3.86 0 7 3.14 7 7a6.879 6.879 0 0 1-1.273 4H14.273A6.87 6.87 0 0 1 13 34c0-3.86 3.14-7 7-7m0-1a8 8 0 0 0-8 8 7.94 7.94 0 0 0 1.777 5h12.446A7.93 7.93 0 0 0 28 34a8 8 0 0 0-8-8z" fill="#4788c7"/><path d="M19.5 32.5c0 .55-.45 1-1 1s-1-.45-1-1 .45-1 1-1 1 .45 1 1zm3.5 3a1.5 1.5 0 1 1-3 0 1.5 1.5 0 0 1 3 0z" fill="#fff"/><path d="M32.254 29.578c-.75-.629-1.57-1.07-2.18-1.402l-.27-.145a3.045 3.045 0 0 1-.39-1.488c0-.211.027-.43.082-.668l.086-.398-.367-.165a3.054 3.054 0 0 1-1.8-2.769c0-.414.081-.813.237-1.184l.149-.343-.285-.239a3.02 3.02 0 0 1-1.102-2.316c0-.203.023-.406.063-.606l.078-.39-.36-.164a3.045 3.045 0 0 1-1.543-3.934l.235-.562-.594-.121c-2.477-.516-4.996-2.73-6.05-3.75 1.562-.625 5.421-2.082 7.487-2.082.985 0 .985.308.985.425 0 .418.152.785.3 1.094l.063.125.113.074a2.324 2.324 0 0 1 1.059 1.95c0 .175-.027.359-.082.578l-.113.437.43.156A3.044 3.044 0 0 1 30.5 14.54c0 .2-.02.406-.063.606l-.078.39.36.164a3.047 3.047 0 0 1 1.781 2.758c0 .41-.082.809-.238 1.184l-.149.343.285.239c.7.586 1.102 1.43 1.102 2.316 0 .211-.027.43-.078.668l-.09.398.371.168A3.047 3.047 0 0 1 35.5 26.54a3.044 3.044 0 0 1-3.043 3.043c-.066 0-.137 0-.203-.004z" fill="#b6dcfe"/><path d="M25.73 7.355c.25 0 .403.024.489.047.027.465.199.875.347 1.188l.122.25.23.148c.52.344.832.914.832 1.532 0 .132-.023.277-.066.453l-.227.882.855.305A2.547 2.547 0 0 1 30 14.543c0 .168-.016.336-.05.504l-.157.777.719.328A2.555 2.555 0 0 1 32 18.457c0 .344-.066.68-.2.992l-.288.68.566.476c.586.489.922 1.196.922 1.938 0 .172-.023.355-.066.555l-.18.797.742.335A2.54 2.54 0 0 1 35 26.543a2.548 2.548 0 0 1-2.543 2.543h-.02c-.746-.602-1.535-1.027-2.124-1.348-.047-.023-.09-.05-.137-.074a2.577 2.577 0 0 1-.258-1.121c0-.176.02-.355.066-.559l.176-.793-.742-.336c-.91-.41-1.5-1.32-1.5-2.312 0-.344.066-.676.2-.988l.288-.684-.566-.473a2.536 2.536 0 0 1-.922-1.937c0-.168.016-.34.05-.508l.157-.773-.723-.332a2.55 2.55 0 0 1-1.488-2.305c0-.34.066-.668.2-.98l.468-1.122-1.187-.246c-1.985-.414-4.032-2.004-5.235-3.082 1.973-.758 4.957-1.758 6.57-1.758m0-1c-2.753 0-8.37 2.403-8.37 2.403s3.41 3.703 6.831 4.414a3.532 3.532 0 0 0 1.797 4.582 3.515 3.515 0 0 0 1.207 3.406c-.18.426-.277.89-.277 1.383 0 1.437.86 2.668 2.09 3.223a3.51 3.51 0 0 0 .438 2.637c.632.359 1.699.863 2.6 1.656.138.015.274.027.415.027a3.54 3.54 0 1 0 1.45-6.77c.054-.25.089-.507.089-.773a3.515 3.515 0 0 0-1.277-2.703c.18-.426.277-.89.277-1.383a3.53 3.53 0 0 0-2.07-3.21 3.53 3.53 0 0 0-2.277-4.023 2.82 2.82 0 0 0 .097-.704c0-.989-.512-1.86-1.281-2.368-.14-.28-.25-.574-.25-.875 0-.668-.594-.922-1.489-.922z" fill="#4788c7"/><path d="M7.543 29.582A3.044 3.044 0 0 1 4.5 26.539a3.04 3.04 0 0 1 1.797-2.766l.371-.168-.09-.394a3.004 3.004 0 0 1-.078-.668c0-.883.395-1.723 1.082-2.309l.273-.23-.132-.336a3.011 3.011 0 0 1 1.512-3.86l.363-.175-.09-.39a2.952 2.952 0 0 1-.094-.7 3.04 3.04 0 0 1 2.277-2.934l.47-.12-.106-.47a2.32 2.32 0 0 1 1.035-2.465l.16-.1.05-.188c.106-.368.872-.586 2.06-.586 2.054 0 4.902.625 6.324.972-1.22 1.086-3.887 3.293-6.133 3.989l-.535.168.226.511a3.02 3.02 0 0 1-1.477 3.957l-.363.172.094.39c.059.259.09.485.09.7 0 .883-.395 1.723-1.082 2.309l-.274.23.133.336c.149.367.223.746.223 1.125a3.042 3.042 0 0 1-1.797 2.77l-.371.168.09.398c.055.238.078.457.078.664 0 .54-.14 1.063-.406 1.523-.93.426-1.766 1.032-2.387 1.481l-.055.035c-.062.004-.129.004-.195.004z" fill="#b6dcfe"/><path d="M15.355 8.18c1.622 0 3.758.402 5.258.734-1.343 1.129-3.43 2.695-5.215 3.25l-1.07.332.453 1.027a2.508 2.508 0 0 1-1.234 3.3l-.727.353.188.781c.05.219.074.41.074.586 0 .73-.328 1.434-.906 1.926l-.547.465.266.668c.125.308.187.625.187.941 0 .992-.59 1.902-1.504 2.312l-.742.336.18.793c.043.203.066.383.066.559 0 .398-.094.785-.27 1.137-.87.422-1.648.972-2.246 1.406H7.54A2.55 2.55 0 0 1 5 26.543c0-.996.59-1.902 1.504-2.313l.742-.335-.18-.797A2.642 2.642 0 0 1 7 22.543c0-.734.328-1.438.906-1.926l.547-.465-.265-.668A2.497 2.497 0 0 1 8 18.543c0-.98.555-1.855 1.453-2.285l.727-.348-.188-.785a2.526 2.526 0 0 1-.074-.582 2.54 2.54 0 0 1 1.902-2.45l.934-.241-.207-.938a1.822 1.822 0 0 1 .813-1.938l.324-.203.09-.335c.074-.051.425-.258 1.581-.258m0-1c-1.316 0-2.34.246-2.535.953a2.825 2.825 0 0 0-1.32 2.387c0 .21.027.41.066.609a3.533 3.533 0 0 0-2.652 3.414c0 .281.043.55.106.812A3.532 3.532 0 0 0 7 18.543c0 .465.094.906.258 1.312A3.522 3.522 0 0 0 6 22.543c0 .266.035.523.09.773a3.54 3.54 0 0 0 1.832 6.747c.652-.47 1.586-1.168 2.601-1.606a3.53 3.53 0 0 0 .563-1.914c0-.27-.035-.527-.094-.777a3.537 3.537 0 0 0 2.094-3.223c0-.465-.098-.906-.262-1.313.766-.652 1.262-1.605 1.262-2.687 0-.281-.043-.555-.106-.816A3.531 3.531 0 0 0 16 14.543c0-.508-.11-.988-.3-1.426 3.155-.976 7-4.722 7-4.722S18.296 7.18 15.354 7.18z" fill="#4788c7"/><path d="M10.5 11c0-5.238 4.262-9.5 9.5-9.5s9.5 4.262 9.5 9.5v.39c-1.488-.285-5.492-.976-9.418-.976-3.941 0-8.066.695-9.582.98z" fill="#98ccfd"/><path d="M20 2c4.89 0 8.883 3.922 8.996 8.785-1.8-.324-5.348-.867-8.914-.867-3.59 0-7.242.55-9.078.875C11.114 5.926 15.105 2 20 2m0-1c-5.477 0-10 4.523-10 10v1s5.152-1.082 10.082-1.082C25.012 10.918 30 12 30 12v-1c0-5.477-4.523-10-10-10z" fill="#4788c7"/></svg>