<svg xmlns="http://www.w3.org/2000/svg" viewBox="0 0 40 40"><path d="M20 30.855V38" fill="none" stroke-width="2" stroke-linecap="round" stroke="#4788c7" stroke-miterlimit="10"/><path d="M20 32.48l-6.734 1.805 1.336-4.531-10.805-2.215a5.374 5.374 0 0 0-.281-5.809l-1.63-2.277 2.774-.383a5.373 5.373 0 0 0 4.414-3.789l6.121 4.285-2.52-12.171c.247.035.497.05.743.05a5.827 5.827 0 0 0 4.965-2.804L20 1.969l1.617 2.672a5.827 5.827 0 0 0 4.965 2.804c.246 0 .496-.015.742-.05l-2.52 12.171 6.122-4.285a5.378 5.378 0 0 0 4.414 3.793l2.77.383-1.63 2.277a5.39 5.39 0 0 0-.28 5.809l-10.802 2.21 1.336 4.532z" fill="#dff0fe"/><path d="M20 2.934l1.188 1.964a6.337 6.337 0 0 0 5.394 3.047c.04 0 .082 0 .121-.004l-2.133 10.29-.508 2.468 2.063-1.445 4.555-3.188a5.882 5.882 0 0 0 4.59 3.5l1.957.27-1.149 1.605a5.87 5.87 0 0 0-.613 5.739l-9.63 1.976-1.065.215.308 1.043.926 3.156-5.742-1.539-.262-.066-.258.07-5.746 1.54.93-3.157.308-1.043-1.066-.219-9.629-1.972a5.889 5.889 0 0 0-.613-5.743L2.777 19.84l1.953-.27a5.887 5.887 0 0 0 4.594-3.504l4.555 3.192 2.062 1.441-.511-2.465-2.133-10.293h.121a6.334 6.334 0 0 0 5.395-3.043L20 2.934M20 1l-2.043 3.383a5.312 5.312 0 0 1-5.613 2.453l-.313-.066 2.418 11.664-5.695-3.985-.059.285a4.868 4.868 0 0 1-4.101 3.844L1 19.07l2.11 2.953a4.873 4.873 0 0 1 .03 5.622l-.167.238 10.992 2.254L12.535 35 20 33l7.465 2-1.434-4.863 10.996-2.254-.168-.238a4.867 4.867 0 0 1 .028-5.622l2.11-2.949-3.59-.496a4.872 4.872 0 0 1-4.106-3.844l-.059-.285-5.691 3.985L27.965 6.77l-.309.066a5.306 5.306 0 0 1-5.613-2.453z" fill="#4788c7"/></svg>