<svg xmlns="http://www.w3.org/2000/svg" viewBox="0 0 50 50"><path d="M25 0c-4.969 0-9 4.031-9 9s4.031 9 9 9 9-4.031 9-9-4.031-9-9-9zm0 19c-6.438 0-13.313 2.594-13.313 2.594v.031c-2.203.414-3.953 1.95-4.593 3.969h-.032c-1.019 2.52-4.488 12.812-5.625 15.281-.855 1.855-.578 5.09 1.657 5.906.933.34 1.902.38 3.719.282.257-.036.507-.094.78-.157 1.212-.27 3.305-.922 5.313-1.562 1.492-.477 2.91-.942 3.938-1.219.23-.063.437-.113.625-.156.008-.004.023 0 .031 0A2.988 2.988 0 0 0 20 41c0-1.652-1.348-3-3-3-.438 0-.992.059-1.594.125-2.27.254-5.246.836-5.281.844a1.01 1.01 0 0 1-1.188-.782c-.109-.539.243-1.042.782-1.156.164-.035 3.312-.691 5.719-.937C16.68 31.988 20.488 29 25 29c3.727 0 6.969 2.043 8.688 5.063 2.644.367 7.613 2.515 8.218 2.78a.987.987 0 0 1 .5 1.313.987.987 0 0 1-1.312.5c-1.89-.824-4.989-2.02-6.907-2.468C33.712 36.074 33.29 36 33 36c-1.652 0-3 1.348-3 3a3 3 0 0 0 2.219 2.906.66.66 0 0 1 .093.032c.028.011.067.019.094.03.473.223.992.47 1.532.72 3.515 1.632 8.058 3.69 8.75 3.874 2.378.633 3.082.477 3.874.188a.927.927 0 0 1 .438-.031c2.129-.883 2.402-4.024 1.563-5.844-1.137-2.473-4.606-12.758-5.626-15.281h-.03c-.65-2.043-2.454-3.606-4.688-4C37.043 21.164 30.805 19 25 19zm8.281 25.594C31.481 47.254 28.453 49 25 49a9.945 9.945 0 0 1-7.188-3.063c-.957.235-2.664.786-4.312 1.313-.52.168-1.047.336-1.563.5V49c.004.55.45 1 1 1h.032c.55-.004 19.543 0 23.968 0h.032a.973.973 0 0 0 .968-1v-2.281a604.686 604.686 0 0 1-4.656-2.125z"/></svg>