<svg xmlns="http://www.w3.org/2000/svg" viewBox="0 0 26 26"><path d="M8.188 2C7.062 2.012 5.8 2.508 5 3.906c-.8 1.5-1.008 3.399-.406 5-.102.102-.18-.105-.282.594-.101.7.293 1.688.594 2.188.102.199.399.3.5.5 0 0 .188 1.207 1.188 2.406.199.898-.688 1.406-.688 1.406C2.805 16.602 0 18.29 0 20.188v1.406c0 2 4.707 2.414 8.906 2.312 4.2 0 8.906-1.207 8.906-2.406v-1.406c0-1.899-2.804-3.586-5.906-4.188 0 0-1.195-.207-.594-1.406.602-.898 1.094-2.012 1.094-2.313 0 0 .992-.894 1.094-2.093.102-1.2-.188-1.281-.188-1.281.399-1.301.583-6.415-2.718-5.813-.301-.55-1.281-1.012-2.406-1zM15.5 7c0 .602-.094 1.195-.094 1.594 0 .101-.008.207.094.406H26V7zm-.5 5c-.2.5-.512 1.012-.813 1.313-.101.199-.18.488-.28.687H26v-2zm3.406 5c.5.602.989 1.3 1.188 2H26v-2z"/></svg>