<svg xmlns="http://www.w3.org/2000/svg" viewBox="0 0 16 16"><path style="line-height:normal;text-indent:0;text-align:start;text-decoration-line:none;text-decoration-style:solid;text-decoration-color:#000;text-transform:none;block-progression:tb;isolation:auto;mix-blend-mode:normal" d="M13.492 1.992a.5.5 0 0 0-.074.008H9.5a.5.5 0 1 0 0 1h2.791L8.428 6.854c-1.567-1.214-3.83-1.12-5.268.318a4.007 4.007 0 0 0 0 5.656 4.007 4.007 0 0 0 5.656 0c1.437-1.437 1.532-3.7.319-5.267L13 3.705V6.5a.5.5 0 1 0 1 0V2.58a.5.5 0 0 0-.035-.281.5.5 0 0 0-.022-.04.5.5 0 0 0-.002-.005.5.5 0 0 0-.023-.037.5.5 0 0 0-.002-.004.5.5 0 0 0 0-.002.5.5 0 0 0-.03-.035.5.5 0 0 0-.001-.004.5.5 0 0 0-.031-.033.5.5 0 0 0-.002-.002.5.5 0 0 0-.002 0 .5.5 0 0 0-.034-.032.5.5 0 0 0-.002-.001.5.5 0 0 0-.002 0 .5.5 0 0 0-.035-.028.5.5 0 0 0-.004-.002.5.5 0 0 0-.039-.023.5.5 0 0 0-.242-.059zM5.988 6.996a2.99 2.99 0 0 1 2.076.846.5.5 0 0 0 .084.084 2.989 2.989 0 0 1-.039 4.195 2.992 2.992 0 0 1-4.242 0 2.992 2.992 0 0 1 0-4.242 2.991 2.991 0 0 1 2.121-.883z" font-weight="400" font-family="sans-serif" white-space="normal" overflow="visible"/></svg>