<svg xmlns="http://www.w3.org/2000/svg" viewBox="0 0 40 40"><path d="M17.156 38.5c-2.386 0-6.746-.488-9.11-3.766-1.26-1.668-7.151-10.453-.007-20.707 2.59-3.714 5.352-6.34 8.211-7.804l-.383-.922C10.965 6.898 4.586 11.406.695 23.598 2.602 3.176 17.797 1.5 22.665 1.5c5.694 0 8.648 2.96 8.675 2.992l.441.48c1.38 1.696 7.63 10.395.235 21-.493.821-1.118 1.633-1.93 2.512-1.832 2.184-3.746 3.844-5.703 4.961l.441.895c3.387-1.414 10.817-5.649 14.309-16.438-2.492 18.899-16.977 20.567-21.7 20.594z" fill="#98ccfd"/><path d="M22.664 2c5.461 0 8.203 2.727 8.297 2.82l.441.48.043.048c1.285 1.586 7.352 10.027.16 20.34l-.015.027-.02.027c-.457.766-1.062 1.551-1.883 2.442-1.777 2.117-3.644 3.742-5.55 4.828l.883 1.789c2.878-1.203 8.628-4.403 12.52-11.793C33.39 36.656 21.573 37.977 17.43 38h-.27c-2.293 0-6.473-.46-8.723-3.574-1.214-1.61-6.933-10.145.012-20.114 2.543-3.644 5.242-6.218 8.028-7.644l-.766-1.84C11.363 6.242 5.883 9.883 1.926 18.902 3.328 12.7 6.328 8.117 10.89 5.23 14.23 3.117 18.3 2 22.664 2m0-1C20.054 1 0 1.027 0 28 3.777 12.047 11.352 7.297 16.02 5.777c-2.922 1.5-5.73 4.149-8.387 7.965C.324 24.222 6.23 33.16 7.64 35.027 10.16 38.516 14.789 39 17.16 39h.171C19.145 38.98 40 39.313 40 12c-2.129 13.918-10.234 19.734-15.367 21.879 2-1.14 3.941-2.816 5.816-5.055.762-.82 1.446-1.68 1.977-2.566 8.023-11.508.379-20.817-.215-21.551l-.027-.031-.036-.04-.449-.491S28.668 1 22.664 1z" fill="#4788c7"/><path d="M27 33c2-1.14 9.063-8.313 9-17l.008-.328C35.633 7.52 32.184 5.227 32 5c-.293-.32-2-1-2-1s3.168 2.855 3 9c-.305 11.105-7.75 18-13 18-.91 0-6 .313-6-4 0-6.063 3.246-7.777 4.867-8.645a2.71 2.71 0 0 0 .942-.425c.07-.028.12-.043.12-.043S21 17.184 21 15.715c0-1.5-1.195-2.715-2.668-2.715h-.059a2.6 2.6 0 0 0-1.085.242C14.53 14.09 9 17.902 9 27c0 7.129 6.375 9 11 9 7.332 0 12.063-5.988 12.5-6.613a20.255 20.255 0 0 0 1.91-3.403C31.254 30.274 29.852 31.81 27 33z" fill="#dff0fe"/><path d="M33.629 9c.781 1.8 1.254 4.07 1.379 6.684l-.008.324C35.059 24.308 28 34 20 35c-2.348 0-10-.578-10-8 0-10.293 7.188-12.71 7.492-12.809l.059-.015.05-.028c.22-.097.446-.148.672-.148h.059c.922 0 1.668.77 1.668 1.715 0 .71-.39 1.137-.55 1.281l-.106.04-.117.081a1.71 1.71 0 0 1-.582.266l-.149.039-.117.062C16.633 18.418 13 20.36 13 27c0 1.504.633 5.004 6.473 5.004h.367L20 32c5.629 0 13.676-7.219 14-18.973A16.175 16.175 0 0 0 33.629 9M30 4s3.168 2.855 3 9c-.305 11.105-7.75 18-13 18-.113 0-.297.004-.527.004-1.59 0-5.473-.238-5.473-4.004 0-6.063 3.246-7.777 4.867-8.645a2.71 2.71 0 0 0 .942-.425c.07-.028.12-.043.12-.043S21 17.184 21 15.715c0-1.5-1.195-2.715-2.668-2.715h-.059a2.6 2.6 0 0 0-1.085.242C14.53 14.09 9 17.902 9 27c0 7.129 6.375 9 11 9 7.332 0 12.063-5.988 12.5-6.613a20.255 20.255 0 0 0 1.91-3.403C31.254 30.274 29.852 31.81 27 33c2-1.14 9.063-8.313 9-17l.008-.328C35.633 7.52 32.184 5.227 32 5c-.293-.32-2-1-2-1z" fill="#4788c7"/><path d="M13.008 7c-2 1.14-9.063 8.313-9 17L4 24.328C4.379 32.48 7.824 34.773 8.008 35c.293.32 2 1 2 1s-3.168-2.855-3-9c.304-11.105 7.75-18 13-18 .91 0 6-.313 6 4 0 6.063-3.246 7.777-4.867 8.645a2.71 2.71 0 0 0-.942.425c-.07.028-.12.043-.12.043s-1.071.703-1.071 2.172c0 1.5 1.195 2.715 2.668 2.715h.058c.387 0 .754-.09 1.086-.238 2.66-.852 8.188-4.664 8.188-13.762 0-7.129-6.375-9-11-9-7.332 0-12.063 5.988-12.5 6.613a19.957 19.957 0 0 0-1.906 3.403C8.754 9.726 10.156 8.19 13.008 7z" fill="#dff0fe"/><path d="M20.008 5c2.347 0 10 .578 10 8 0 10.293-7.188 12.71-7.492 12.809l-.055.015-.055.028a1.644 1.644 0 0 1-.672.148h-.058c-.918 0-1.668-.77-1.668-1.715 0-.71.39-1.137.55-1.281l.106-.04.117-.081c.18-.125.375-.215.582-.266l.149-.039.117-.062c1.746-.934 5.379-2.875 5.379-9.516 0-1.504-.63-5.004-6.473-5.004h-.363L20.008 8c-5.63 0-13.676 7.219-14 18.973-.043 1.527.11 2.867.37 4.027-.78-1.8-1.253-4.07-1.378-6.684l.008-.324c-.059-8.3 7.242-18.242 15-18.992 0 0-5.445 0 0 0m0-1c-7.332 0-12.063 5.988-12.5 6.613a19.957 19.957 0 0 0-1.906 3.403C8.754 9.726 10.156 8.19 13.008 7c-2 1.14-9.063 8.313-9 17L4 24.328C4.379 32.48 7.824 34.773 8.008 35c.293.32 2 1 2 1s-3.168-2.855-3-9c.304-11.105 7.75-18 13-18 .113 0 .297-.004.527-.004 1.59 0 5.473.238 5.473 4.004 0 6.063-3.246 7.777-4.867 8.645a2.71 2.71 0 0 0-.942.425c-.07.028-.12.043-.12.043s-1.071.703-1.071 2.172c0 1.5 1.191 2.715 2.668 2.715h.054c.391 0 .758-.09 1.09-.238 2.657-.852 8.188-4.664 8.188-13.762 0-7.129-6.375-9-11-9z" fill="#4788c7"/><path d="M16 12.5c0 .277-.223.5-.5.5a.498.498 0 0 1-.5-.5.499.499 0 1 1 1 0zm8 3.5c0 .55-.45 1-1 1s-1-.45-1-1 .45-1 1-1 1 .45 1 1zm-5 10.5a1.5 1.5 0 1 1-3 0 1.5 1.5 0 0 1 3 0zm-8-9c0 .277-.223.5-.5.5a.498.498 0 0 1-.5-.5.499.499 0 1 1 1 0zm10 11c0 .277-.223.5-.5.5a.498.498 0 0 1-.5-.5.499.499 0 1 1 1 0zm-2-7c0 .277-.223.5-.5.5a.498.498 0 0 1-.5-.5.499.499 0 1 1 1 0zm4-10a1.5 1.5 0 1 1-3 0 1.5 1.5 0 0 1 3 0z" fill="#fff"/></svg>