<svg xmlns="http://www.w3.org/2000/svg" viewBox="0 0 16 16"><path style="line-height:normal;text-indent:0;text-align:start;text-decoration-line:none;text-decoration-style:solid;text-decoration-color:#000;text-transform:none;block-progression:tb;isolation:auto;mix-blend-mode:normal" d="M10.492.992A.5.5 0 0 0 10 1.5V9H5.383C7.473 7.412 8 5.114 8 3.5A2.52 2.52 0 0 0 5.5 1 2.519 2.519 0 0 0 3 3.5a.5.5 0 1 0 1 0C4 2.696 4.696 2 5.5 2S7 2.696 7 3.5c0 1.734-.569 4.222-3.666 5.525a.5.5 0 0 0-.072.034.5.5 0 0 0-.012.005.5.5 0 0 0 .324.936H10v3.5a.5.5 0 1 0 1 0V10h2.5a.5.5 0 1 0 0-1H11V1.5a.5.5 0 0 0-.508-.508z" font-weight="400" font-family="sans-serif" white-space="normal" overflow="visible"/></svg>