<svg xmlns="http://www.w3.org/2000/svg" viewBox="0 0 40 40"><path d="M20 38.5C9.8 38.5 1.5 30.2 1.5 20A18.48 18.48 0 0 1 5.79 8.18c.37.21.788.32 1.21.32 1.379 0 2.5-1.121 2.5-2.5 0-.363-.078-.719-.23-1.043A18.287 18.287 0 0 1 20 1.5c10.2 0 18.5 8.3 18.5 18.5 0 2.59-.54 5.11-1.605 7.504A2.5 2.5 0 0 0 34.5 30c0 .39.09.77.266 1.113C31.273 35.746 25.777 38.5 20 38.5z" fill="#dff0fe"/><path d="M20 2c9.926 0 18 8.074 18 18 0 2.422-.488 4.785-1.45 7.031a3.007 3.007 0 0 0-2.362 4.016C30.785 35.41 25.523 38 20 38c-9.926 0-18-8.074-18-18 0-4.07 1.39-8.016 3.934-11.2.34.13.699.2 1.066.2 1.652 0 3-1.348 3-3a2.9 2.9 0 0 0-.129-.86A17.848 17.848 0 0 1 20 2m0-1c-4.281 0-8.215 1.434-11.39 3.82A2 2 0 0 1 9 6a2 2 0 0 1-2 2c-.496 0-.945-.188-1.297-.488C2.781 10.852 1 15.215 1 20c0 10.492 8.508 19 19 19 6.324 0 11.91-3.102 15.363-7.855A1.999 1.999 0 0 1 37 28c.07 0 .137.016.207.02A18.917 18.917 0 0 0 39 20C39 9.508 30.492 1 20 1z" fill="#4788c7"/><path d="M17 27.5a3.5 3.5 0 1 1-7 0 3.5 3.5 0 1 1 7 0zM25 17a3 3 0 1 1-6.002-.002A3 3 0 0 1 25 17zm-12-3a1.999 1.999 0 1 1-4 0 1.999 1.999 0 1 1 4 0z" fill="#98ccfd"/><path d="M38 20c0-9.926-8.074-18-18-18-1.422 0-2.82.172-4.176.496 4.969 1.184 9.13 4.434 11.551 8.785.34-.176.719-.281 1.125-.281a2.494 2.494 0 1 1 .656 4.902c.086.364.16.735.227 1.11.039-.004.078-.012.117-.012a1.5 1.5 0 0 1 1.5 1.5c0 .777-.594 1.41-1.355 1.484V20c0 8.504-5.903 15.605-13.829 17.488C17.164 37.813 18.56 38 20 38c5.523 0 10.785-2.59 14.188-6.953a3.007 3.007 0 0 1 2.363-4.016A17.809 17.809 0 0 0 38 20z" fill="#98ccfd"/></svg>