<svg xmlns="http://www.w3.org/2000/svg" viewBox="0 0 26 26"><path d="M9.5.063l-.625 2.28-2.25-.593L8.25 3.469 6.625 5.156l2.25-.593.625 2.312.625-2.313 2.25.594L10.75 3.47l1.625-1.719-2.25.594zM2.469 6.5l-.5 1.813-1.813-.47L1.47 9.189.156 10.53l1.813-.469.5 1.813L3 10.062l1.813.47L3.5 9.186l1.313-1.343L3 8.312zm15.625.688a8.276 8.276 0 0 1 4.937 7.593c0 4.582-3.683 8.281-8.25 8.281a8.29 8.29 0 0 1-7.594-4.968 9.39 9.39 0 0 0 9.25 7.718c5.18 0 9.375-4.18 9.375-9.375a9.397 9.397 0 0 0-7.718-9.25z"/></svg>