<svg xmlns="http://www.w3.org/2000/svg" viewBox="0 0 50 50"><path d="M19.875 3.313c-3.684.082-6.375 1.207-8 3.343-1.926 2.532-2.305 6.399-1.094 11.532-.414.53-.785 1.37-.687 2.53.297 2.165 1.14 3.075 1.812 3.438.34 1.805 1.305 3.692 2.188 4.594.004.223.027.445.031.656.02.957.031 1.782-.094 2.844-.55 1.402-2.59 2.227-4.937 3.156C5.19 36.953.332 38.867 0 44.938L-.063 46h40.126L40 44.937c-.336-6.09-5.215-8.015-9.125-9.562-2.336-.922-4.367-1.7-5-3.094-.078-1.32-.063-2.312-.063-3.531.868-.914 1.774-2.828 2.157-4.563.718-.34 1.605-1.214 1.812-3.5.094-1.125-.199-1.964-.625-2.5.848-2.726 1.578-7.402-.218-10.375-.852-1.41-2.125-2.28-3.844-2.625-.965-1.218-2.797-1.875-5.219-1.875zM33 16v2h17v-2zm-2 8v2h19v-2zm2 8v2h17v-2z"/></svg>