<svg xmlns="http://www.w3.org/2000/svg" viewBox="0 0 16 16"><path style="line-height:normal;text-indent:0;text-align:start;text-decoration-line:none;text-decoration-style:solid;text-decoration-color:#000;text-transform:none;block-progression:tb;isolation:auto;mix-blend-mode:normal" d="M7.492.992A.5.5 0 0 0 7 1.5V5H5.959c-.201-1.955-1.544-3.564-3.346-3.986a.5.5 0 0 0-.097-.016.5.5 0 0 0-.13.988C3.863 2.332 5 3.757 5 5.5c0 1.743-1.138 3.168-2.613 3.514a.5.5 0 1 0 .226.972C4.415 9.564 5.758 7.956 5.96 6H7v5.094c-.579.208-1 .76-1 1.406 0 .823.677 1.5 1.5 1.5S9 13.323 9 12.5c0-.647-.421-1.198-1-1.406V6h1.041c.201 1.955 1.544 3.564 3.346 3.986a.5.5 0 1 0 .226-.972C11.138 8.668 10 7.243 10 5.5c0-1.743 1.138-3.168 2.613-3.514a.5.5 0 0 0-.093-.988.5.5 0 0 0-.133.016C10.585 1.436 9.242 3.044 9.04 5H8V1.5a.5.5 0 0 0-.508-.508zM7.47 12.006a.5.5 0 0 0 .062 0A.49.49 0 0 1 8 12.5c0 .282-.218.5-.5.5a.493.493 0 0 1-.5-.5.49.49 0 0 1 .469-.494z" font-weight="400" font-family="sans-serif" white-space="normal" overflow="visible"/></svg>