<svg xmlns="http://www.w3.org/2000/svg" viewBox="0 0 40 40"><path d="M1.602 13.281l6.976-1.672 1.356 5.653-6.977 1.672z" fill="#98ccfd"/><path d="M8.21 12.21l1.126 4.68-6.008 1.442-1.121-4.68 6.004-1.441m.738-1.203L1 12.914l1.59 6.625 7.95-1.91z" fill="#4788c7"/><path d="M3.07 19.41l-1.59-6.625" fill="none" stroke-linecap="round" stroke="#4788c7" stroke-miterlimit="10"/><path d="M5.258 11.004l6.98-1.672 1.989 8.3-6.977 1.673z" fill="#b6dcfe"/><path d="M11.867 9.934l1.762 7.328-6.008 1.441-1.758-7.332 6.004-1.437m.738-1.207l-7.949 1.91 2.227 9.273 7.949-1.906z" fill="#4788c7"/><path d="M20.5 38.5v-14m-3 4h6m-3 1l-7 8m7-8l7 8" fill="none" stroke-linecap="round" stroke="#4788c7" stroke-miterlimit="10"/><path d="M20.5 24.5c-1.652 0-3-1.348-3-3v-5.8h6v5.8c0 1.652-1.348 3-3 3z" fill="#b6dcfe"/><path d="M23 16.2v5.3c0 1.379-1.121 2.5-2.5 2.5a2.502 2.502 0 0 1-2.5-2.5v-5.3h5m1-1h-7v6.3a3.5 3.5 0 1 0 7 0z" fill="#4788c7"/><path d="M11.566 8.09L35.77 2.28l2.628 10.953-24.203 5.809z" fill="#dff0fe"/><path d="M35.398 2.883l2.395 9.98-23.23 5.575-2.395-9.981 23.23-5.574m.739-1.203L10.965 7.719l2.86 11.926L39 13.602z" fill="#4788c7"/><path d="M38.504 13.707L35.64 1.781" fill="none" stroke-linecap="round" stroke="#4788c7" stroke-miterlimit="10"/><path d="M21.5 21.5c0 .55-.45 1-1 1s-1-.45-1-1 .45-1 1-1 1 .45 1 1z" fill="#4788c7"/></svg>