<svg xmlns="http://www.w3.org/2000/svg" viewBox="0 0 40 40"><path d="M1.5 6.5h37v27h-37z" fill="#98ccfd"/><path d="M38 7v26H2V7h36m1-1H1v28h38z" fill="#4788c7"/><path d="M16.453 14.297l-3.93 11.402h-2.91L5.734 14.297H8.5l2.379 7.937c.125.43.203.809.23 1.137h.047a6.74 6.74 0 0 1 .246-1.168l2.364-7.906zm5.492 11.406H19.38V14.297h2.566zm6.559-3.93V25.7h-2.57V14.297h4.023c2.875 0 4.313 1.21 4.313 3.637 0 1.144-.415 2.07-1.239 2.777-.824.707-1.926 1.062-3.304 1.062zm0-5.503v3.554h1.008c1.367 0 2.05-.597 2.05-1.797 0-1.172-.683-1.754-2.05-1.754h-1.008z" fill="#fff"/></svg>