<svg xmlns="http://www.w3.org/2000/svg" viewBox="0 0 32 32"><path d="M13.313 4c-.247.016-.922.45-1.47 1.125-1.058.3-1.788 1.156-2.187 1.969C9.164 8.094 9 9.03 9 9.687c0 .516.117 1.008.313 1.47A2.812 2.812 0 0 0 7.063 10c-.106 0-.211.02-.313.031-.137-.566-.281-1.043-.438-1.031-.3.02-.769.656-1.03 1.594a2.92 2.92 0 0 0-.563.531A3.4 3.4 0 0 0 4 13.25c0 .91.277 1.766.781 2.469C5.285 16.422 6.09 17 7.063 17c.828 0 1.64-.352 2.156-.969.515-.617.742-1.402.781-2.281a4.546 4.546 0 0 0-.281-1.844C10.172 12.508 10.89 13 11.75 13c.762 0 1.527-.27 2.156-.813.121-.101.239-.218.344-.343.09.297.18.574.344.844C15.066 13.464 16 14 17 14c.727 0 1.477-.336 2.031-.969.102 1.59 1.262 2.969 2.844 2.969.273 0 .54-.047.781-.125-.406.684-.656 1.426-.656 2.156C22 19.633 23.2 21 24.719 21c.996 0 1.824-.504 2.375-1.156.55-.653.87-1.453.906-2.282.027-.718-.059-1.464-.375-2.156a2.59 2.59 0 0 0-.625-.844c-.059-.984-.383-1.542-.688-1.562-.156-.012-.527.445-.843 1a3.025 3.025 0 0 0-.969.219 4.176 4.176 0 0 0 .5-1.813c.031-.808-.117-1.605-.594-2.281A2.524 2.524 0 0 0 24 9.687c-.04-1.062-.371-1.664-.688-1.687-.16-.012-.554.457-.875 1.031C22.332 9.02 22.23 9 22.125 9c-.84 0-1.59.352-2.125.906a5.253 5.253 0 0 0-.5-2.312 3.686 3.686 0 0 0-.531-.782C18.91 5.668 18.504 5 18.312 5c-.156-.012-.527.445-.843 1h-.094c-1.063 0-1.871.629-2.438 1.375-.035.047-.058.105-.093.156a5.915 5.915 0 0 0-.219-.843c-.14-.422-.328-.797-.656-1.125a1.81 1.81 0 0 0-.406-.313c.007-.68-.094-1.262-.25-1.25zm-.75 3.031c.03.043.09.117.156.313.156.465.281 1.324.281 2.406 0 .453-.16.695-.406.906-.246.211-.598.344-.844.344-.133 0-.266-.078-.438-.313a1.809 1.809 0 0 1-.312-1c0-.187.121-1.078.438-1.718.3-.61.617-.907 1.124-.938zM17.375 8c-.008 0 .152.031.344.438.191.406.3 1.046.281 1.53V10c0 .93-.234 1.434-.438 1.688-.203.253-.37.312-.562.312-.46 0-.527-.078-.688-.344-.16-.265-.312-.84-.312-1.656 0-.402.219-.992.531-1.406.313-.414.653-.594.844-.594zm4.75 3c.398 0 .52.09.656.281.137.192.239.57.219 1.063-.016.414-.215.898-.469 1.219-.254.32-.515.437-.656.437-.516 0-.875-.363-.875-1.188 0-.722.168-1.222.344-1.468.176-.246.304-.344.781-.344zM7.062 12c.34 0 .481.082.657.344.176.261.304.75.281 1.312-.023.582-.172.926-.313 1.094-.14.168-.269.25-.625.25-.214 0-.425-.117-.656-.438A2.357 2.357 0 0 1 6 13.25c0-.277.129-.64.313-.875.183-.234.363-.375.75-.375zm7.313 3c-1.996 0-3.242 1.027-3.906 1.875-.332.422-.551.793-.719.969-.168.176-.148.156-.25.156A4.516 4.516 0 0 0 5 22.5C5 24.973 7.027 27 9.5 27c.773 0 1.871-.063 2.906-.094 1.035-.031 2.063-.008 2.375.063.285.062 1.203.328 2.188.562.984.235 2.062.469 3.031.469 2.2 0 4-1.8 4-4s-1.8-4-4-4c-.207 0-.152.04-.344-.281-.191-.32-.414-.942-.718-1.625-.305-.684-.727-1.477-1.47-2.094-.741-.617-1.78-1-3.093-1zm11.25 1c.078 0 .063-.05.188.219.125.27.207.777.187 1.25-.016.367-.164.808-.406 1.093-.242.286-.508.438-.875.438-.332 0-.719-.273-.719-.969 0-.36.188-.957.5-1.375.313-.418.656-.656 1.125-.656zm-11.25 1c.945 0 1.43.242 1.813.563.382.32.652.777.906 1.343.254.567.472 1.196.843 1.813C18.31 21.336 19.063 22 20 22c1.117 0 2 .883 2 2s-.883 2-2 2c-.621 0-1.637-.184-2.563-.406-.925-.223-1.738-.457-2.218-.563-.813-.18-1.801-.156-2.875-.125-1.074.032-2.188.094-2.844.094C8.11 25 7 23.89 7 22.5S8.11 20 9.5 20c.715 0 1.32-.395 1.688-.781.367-.387.617-.766.874-1.094.512-.652.903-1.125 2.313-1.125z"/></svg>