<svg xmlns="http://www.w3.org/2000/svg" viewBox="0 0 64 64"><path d="M61 15v34c0 2.21-1.79 4-4 4H7a3.966 3.966 0 0 1-1.64-.36 3.988 3.988 0 0 1-2.258-2.742A4.338 4.338 0 0 1 3 49V15c0-2.21 1.79-4 4-4h50c2.21 0 4 1.79 4 4z" fill="#f9dd8f"/><path d="M61 15v11L34 53H19l40.828-40.828A3.997 3.997 0 0 1 61 15zm-4-4L15 53H9l42-42zm-10 0L5.36 52.64a3.988 3.988 0 0 1-2.258-2.742L42 11z" fill="#ffefb8"/><path d="M61 49c0 2.21-1.79 4-4 4H7a3.966 3.966 0 0 1-1.64-.36 3.988 3.988 0 0 1-2.258-2.742A4.338 4.338 0 0 1 3 49v-1h57c.55 0 1 .45 1 1z" fill="#f5c872"/><path d="M57 10H7a5 5 0 0 0-5 5v34a5 5 0 0 0 5 5h50a5 5 0 0 0 5-5V15a5 5 0 0 0-5-5zm3 39a3 3 0 0 1-3 3H7a3 3 0 0 1-3-3V15a3 3 0 0 1 3-3h50a3 3 0 0 1 3 3z" fill="#8d6c9f"/><path d="M7 46c-.55 0-1 .45-1 1v2c0 .55.45 1 1 1s1-.45 1-1v-2c0-.55-.45-1-1-1zm5 0c-.55 0-1 .45-1 1v2c0 .55.45 1 1 1s1-.45 1-1v-2c0-.55-.45-1-1-1zm5 0c-.55 0-1 .45-1 1v2c0 .55.45 1 1 1s1-.45 1-1v-2c0-.55-.45-1-1-1zm5 0c-.55 0-1 .45-1 1v2c0 .55.45 1 1 1s1-.45 1-1v-2c0-.55-.45-1-1-1zm5 0c-.55 0-1 .45-1 1v2c0 .55.45 1 1 1s1-.45 1-1v-2c0-.55-.45-1-1-1zm5 0c-.55 0-1 .45-1 1v2c0 .55.45 1 1 1s1-.45 1-1v-2c0-.55-.45-1-1-1zm5 0c-.55 0-1 .45-1 1v2c0 .55.45 1 1 1s1-.45 1-1v-2c0-.55-.45-1-1-1zm5 0c-.55 0-1 .45-1 1v2c0 .55.45 1 1 1s1-.45 1-1v-2c0-.55-.45-1-1-1zm5 0c-.55 0-1 .45-1 1v2c0 .55.45 1 1 1s1-.45 1-1v-2c0-.55-.45-1-1-1zm5 0c-.55 0-1 .45-1 1v2c0 .55.45 1 1 1s1-.45 1-1v-2c0-.55-.45-1-1-1zm5 0c-.55 0-1 .45-1 1v2c0 .55.45 1 1 1s1-.45 1-1v-2c0-.55-.45-1-1-1zM28.32 22.05a1.002 1.002 0 0 0-1.27.63L22 37.84l-5.05-15.16a.998.998 0 0 0-1.266-.633.995.995 0 0 0-.633 1.262l6 18v.07l.058.121c.04.07.086.133.141.191l.078.079c.086.07.18.12.281.16a.993.993 0 0 0 .621 0c.102-.04.196-.09.282-.16l.078-.079a.966.966 0 0 0 .14-.191l.06-.121v-.07l6-18a.997.997 0 0 0-.47-1.258zM33 22c-.55 0-1 .45-1 1v18c0 .55.45 1 1 1s1-.45 1-1V23c0-.55-.45-1-1-1zm12 0h-6c-.55 0-1 .45-1 1v18c0 .55.45 1 1 1s1-.45 1-1v-7h5a5 5 0 0 0 5-5v-2a5 5 0 0 0-5-5zm3 7a3 3 0 0 1-3 3h-5v-8h5a3 3 0 0 1 3 3z" fill="#8d6c9f"/><path d="M50.34 14l-1.238 2.262-2.274 1.238 2.274 1.238L50.34 21l1.23-2.262 2.27-1.238-2.27-1.238zm-38.93 5l-.851 1.559L9 21.422l1.559.848.851 1.57.86-1.57 1.558-.848-1.558-.863zm36.07 18.7l-.582 1.07-1.07.582 1.07.59L47.48 41l.579-1.059 1.07-.59-1.07-.581z" fill="#fff8f8"/></svg>