<svg xmlns="http://www.w3.org/2000/svg" viewBox="0 0 50 50"><path d="M18.156 2c-2.453 0-4.351 1.371-5.5 3.125C11.508 6.879 11 9.02 11 10.969c0 1.797.64 4.125 1.781 6.156C13.921 19.156 15.648 21 17.97 21c1.218 0 2.3-.414 3.125-1.125.824-.71 1.394-1.68 1.812-2.75.84-2.137 1.094-4.79 1.094-7.344 0-2-.656-3.883-1.688-5.312C21.282 3.039 19.828 2 18.157 2zM33.75 2c-2.57 0-4.57 1.387-5.844 3.125C26.633 6.863 26 8.941 26 10.75c0 1.688.316 4.32 1.188 6.656.433 1.168.992 2.262 1.812 3.125.82.864 1.95 1.469 3.25 1.469 2.586 0 4.617-1.64 5.875-3.813C39.383 16.017 40 13.258 40 10.563 40 5.066 36.61 2 33.75 2zM18.156 4c.801 0 1.758.582 2.532 1.656C21.46 6.73 22 8.223 22 9.781c0 2.418-.262 4.903-.938 6.625-.34.864-.785 1.512-1.28 1.938-.497.426-1.032.656-1.813.656-1.184 0-2.469-1.152-3.438-2.875C13.562 14.402 13 12.227 13 10.969c0-1.582.465-3.406 1.344-4.75C15.223 4.875 16.406 4 18.156 4zM33.75 4C34.98 4 38 5.906 38 10.563c0 2.382-.566 4.851-1.594 6.624C35.38 18.962 34.02 20 32.25 20c-.71 0-1.238-.273-1.781-.844-.543-.57-1.032-1.465-1.407-2.468C28.313 14.68 28 12.175 28 10.75c0-1.313.535-3.078 1.531-4.438C30.527 4.954 31.875 4 33.75 4zM6.719 18c-1.824 0-3.399 1.297-4.625 3.063C.867 22.828 0 25.18 0 27.655c0 1.723.629 3.668 1.719 5.313C2.809 34.613 4.469 36 6.562 36c2.07 0 3.715-1.46 4.782-3.375C12.41 30.711 13 28.235 13 25.687c0-1.972-.742-3.832-1.875-5.25C9.992 19.02 8.43 18 6.719 18zM45 18c-1.227.059-2.45.617-3.531 1.5-1.442 1.18-2.758 2.953-3.969 5.219-1.438 2.695-1.816 5.176-1.281 7.187.535 2.012 2.062 3.508 4.031 3.969 1.973.465 3.926-.36 5.469-1.781 1.543-1.422 2.797-3.453 3.687-5.813.754-2.004.774-4.261.25-6.156-.523-1.895-1.633-3.574-3.437-4A4.445 4.445 0 0 0 45 18zM6.719 20c.855 0 1.949.61 2.812 1.688.864 1.078 1.469 2.554 1.469 4 0 2.234-.55 4.43-1.406 5.968C8.738 33.196 7.695 34 6.563 34c-1.204 0-2.325-.824-3.188-2.125C2.512 30.575 2 28.867 2 27.656c0-2.008.719-4 1.719-5.437 1-1.438 2.258-2.219 3-2.219zm38.343 0c.235-.012.458.008.688.063.746.175 1.563 1.113 1.969 2.593.406 1.48.39 3.364-.188 4.907-.804 2.128-1.96 3.933-3.187 5.062-1.227 1.129-2.414 1.566-3.625 1.281-1.309-.304-2.196-1.12-2.563-2.5-.367-1.379-.14-3.379 1.125-5.75 1.13-2.113 2.336-3.668 3.469-4.593.852-.696 1.605-1.028 2.313-1.063zM24.22 27c-2.172 0-3.856 1.148-5.282 2.594-1.425 1.445-2.703 3.207-4.28 4.843-1.552 1.61-3.095 2.575-4.376 3.75C9 39.364 8 40.914 8 43.157c0 1.284.445 2.718 1.5 3.874C10.555 48.188 12.234 49 14.406 49c2.266 0 3.965-.504 5.5-.969 1.535-.465 2.89-.875 4.657-.875 3.636 0 6.628 1.282 10.343 1.282 2.192 0 3.95-.395 5.219-1.376 1.27-.98 1.875-2.566 1.875-4.374 0-1.215-.52-2.22-1.25-2.938-.73-.719-1.613-1.2-2.531-1.625-1.832-.852-3.735-1.57-4.782-2.844-1.406-1.71-2.472-3.644-3.78-5.281-1.31-1.637-3.024-3-5.438-3zm0 2c1.718 0 2.734.824 3.875 2.25 1.14 1.426 2.218 3.414 3.781 5.313 1.527 1.855 3.805 2.585 5.5 3.374.848.395 1.535.793 1.969 1.22.433.425.656.812.656 1.53 0 1.403-.352 2.208-1.094 2.782-.742.574-2.054.968-4 .968-3.226 0-6.265-1.28-10.343-1.28-2.086 0-3.696.507-5.22.968-1.523.46-2.96.875-4.937.875-1.695 0-2.722-.563-3.406-1.313-.684-.75-1-1.738-1-2.53 0-1.723.547-2.481 1.625-3.47 1.078-.988 2.742-2.054 4.469-3.843 1.699-1.762 2.988-3.567 4.25-4.844 1.261-1.277 2.383-2 3.875-2z"/></svg>