<svg xmlns="http://www.w3.org/2000/svg" viewBox="0 0 24 24"><path d="M20.398 20.3c0 1.598-1 2.4-3 2.4-1.699 0-3.199-.598-5.199-.598-1.898 0-3 .898-5.097.898-1.903 0-2.704-1.398-2.704-2.398 0-2 1.5-2.301 3.204-4C9.199 14.898 10.199 13 12 13c2.102 0 2.7 2.2 4.2 4 1.3 1.5 4.198 1.398 4.198 3.3zm-4.5-10.402c2.204 0 3.403-2.597 3.403-5.199C19.3 2.2 17.699 1 16.6 1c-2.3 0-3.402 2.3-3.402 3.8 0 1.598.602 5.098 2.7 5.098zM8 9.898c2 0 2.5-2.597 2.5-5.199 0-1.8-1.2-3.398-2.398-3.398C6 1.3 5 3.5 5 5.3c-.102 1.597 1.2 4.597 3 4.597zm-2.3 2.5C5.7 10.7 4.3 9.102 3 9.102c-1.3 0-3 2.097-3 4.296C0 14.801 1.2 17 2.898 17 4.5 17 5.7 14.8 5.7 12.398zm16.8-3.296c-1.3-.301-2.7.898-3.898 3-1.403 2.5-.602 4.398 1.097 4.796 1.602.403 3.2-1.199 4.102-3.398.597-1.8 0-4.102-1.301-4.398z"/></svg>