<svg xmlns="http://www.w3.org/2000/svg" viewBox="0 0 48 48"><path d="M36 36.012c0 2.476-1.402 3.578-4.633 3.578-2.664 0-4.91-.965-7.719-.965-2.804 0-4.492 1.375-7.578 1.375-2.945 0-4.07-2.066-4.07-3.578 0-3.027 2.246-3.442 4.77-6.059C19.3 27.753 20.703 25 23.367 25c3.09 0 4.074 3.305 6.317 5.918 1.964 2.477 6.316 2.2 6.316 5.094zM30.016 21C33.34 21 35 16.812 35 12.918 35 9.023 32.645 7 31.121 7 27.801 7 26 10.61 26 13.063 26 15.37 26.969 21 30.016 21zm-11.133-1C22.238 20 23 15.945 23 12.172 23 9.375 21.016 7 19.031 7 15.523 7 14 10.355 14 13.148 14 15.387 15.984 20 18.883 20zM15 24.023C15 21.512 12.785 19 10.723 19 8.656 19 6 22.07 6 25.418 6 27.652 7.77 31 10.574 31 13.23 31 15 27.512 15 24.023zm24.734-4.96c-1.937-.418-4.02 1.257-5.68 4.601-2.077 3.77-.831 6.695 1.524 7.254 2.356.559 4.707-1.813 5.953-5.3 1.11-2.65.14-6.138-1.797-6.555z" fill="#8d6e63"/><path d="M18.21 31.758a41.878 41.878 0 0 0 1.856-2.094c1.438-1.7 2.297-2.664 3.301-2.664 1.04 0 1.668.785 2.965 2.719 3.355 5.75 8.543 4.156 9.668 6.293 0-2.895-4.352-2.617-6.316-5.094C27.437 28.305 26.457 25 23.367 25c-2.664 0-4.066 2.754-6.594 5.363C14.246 32.98 12 33.395 12 36.422c0 .043.012.09.012.137.265-2.32 4.32-2.954 6.199-4.801zM31.11 9c1.28.094 3.68 3.262 3.73 6.004.105-.688.16-1.39.16-2.086C35 9.02 32.645 7 31.121 7 27.801 7 26 10.61 26 13.063c0 .558.059 1.32.188 2.144v-.012c0-1.976 2.312-6.164 4.921-6.195zM19.031 9c.688 0 3.914 1.848 3.871 5.328.07-.71.098-1.437.098-2.156C23 9.375 21.016 7 19.031 7 15.523 7 14 10.355 14 13.148c0 .57.129 1.293.367 2.055a1.155 1.155 0 0 1-.023-.203c0-1.438 2.289-6 4.687-6zm-8.308 12c2.84 0 4.218 4.09 4.218 4.09.036-.356.059-.707.059-1.067C15 21.512 12.785 19 10.723 19 8.656 19 6 22.07 6 25.418c0 .57.117 1.219.34 1.86a.78.78 0 0 1-.027-.192c0-2.414 2.734-6.086 4.41-6.086zm29.011-1.937a2.779 2.779 0 0 0-.59-.063c-1.765 0-3.593 1.656-5.09 4.664-.784 1.43-1.093 2.73-1.046 3.836.476-1.715 3.797-6.555 6.137-6.5.054.004.113.008.144.012 1.668.43 1.727 4.992 1.145 6.933a12.7 12.7 0 0 0 1.101-2.328c1.106-2.648.137-6.137-1.8-6.555z" fill="#6d4c41"/></svg>