<svg xmlns="http://www.w3.org/2000/svg" viewBox="0 0 50 50"><path d="M45 3a1.999 1.999 0 1 0 0 4 1.999 1.999 0 1 0 0-4zm-12 .813a.738.738 0 0 0-.313.093L28.5 5.187c-2.898-.898-5.988 1.618-6.188 1.72-.199.1-.312.382-.312.78 0 .301.2.614.5.813l3.906 2.094-2 3.906-13.718 8.813-3.5-.407c-1.4-.199-2.576.794-2.875 2.094-.102.7 0 1.398.5 2 .398.602.988.898 1.687 1l2.094.313c.3 1.199 1.094 3.593 3.094 5.593-.801 1.7-3.075 6.2-4.376 9-.398.801-.519 1.79-.218 2.688.3.898.914 1.601 1.812 2H9c.5.199 1 .312 1.5.312 1.3 0 2.492-.707 3.094-1.906l7.094-14.188a44.88 44.88 0 0 0 9.718-5.625l13.5 2.907c1.801.398 3.602-.7 4-2.5.301-.801.086-1.7-.312-2.5-.5-.801-1.29-1.395-2.188-1.594l-9.718-2.188c-.102-1.699-1-2.898-1.5-3.5l1-3L40.5 11c.3-.2.5-.508.5-.906V6.406c0-.5-.406-.898-.906-1L36 4.906l-2.688-1A.738.738 0 0 0 33 3.812zM34 7c.602 0 1 .398 1 1s-.398 1-1 1-1-.398-1-1 .398-1 1-1zm9.75 7.969a3.082 3.082 0 0 0-.656.031l-6.688 1.188-.093.218c.398.602.8 1.29 1 2.188l8.5 1.906c.101 0 .187.094.187.094.102-.102.305-.301.406-.5.5-.7.7-1.7.5-2.5-.351-1.489-1.687-2.574-3.156-2.625zM8.187 32.687L3 37.594c-.602.601-1 1.508-1 2.406 0 .898.398 1.805 1 2.406.602.602 1.293.907 2.094.907.101-.399.207-.82.406-1.22 1.102-2.3 2.813-5.679 3.813-7.78-.399-.5-.825-1.126-1.126-1.626z"/></svg>