<svg xmlns="http://www.w3.org/2000/svg" viewBox="0 0 50 50"><path d="M16.84 2.016c-.281.02-.55.09-.781.207-.93.468-1.305 1.34-1.461 2.12-.082.427-.067.805-.067 1.294 0 .488.008 1.05-.011 1.652-.036 1.125-.188 2.383-.598 3.496-.543.367-1.172.762-1.985 1.215-3.988 2.219-6.453 6.055-7.933 9.625C2.524 25.191 2 28.441 2 30c0 2.977-.055 8.473 5.242 14.652 3.32 3.871 8.793 4.578 13.754 4.176 4.961-.398 9.465-1.879 11.473-2.945 6.676-3.54 10.66-8.176 12.793-12.36 1.062-2.093 1.668-4.07 1.922-5.761.254-1.696.187-3.086-.262-4.153C45.266 19.715 46 17.383 46 15c0-1.363-.582-3.227-1.223-5.094-.64-1.867-1.285-3.5-1.765-4.304-.383-.641-.91-1.415-1.754-1.915-.422-.253-.98-.433-1.574-.32-.594.117-1.118.516-1.496 1.051-.45.625-1.692 1.894-2.774 2.918a46.838 46.838 0 0 1-1.648 1.508c-.786-.266-3.52-1.102-7.11-.57a12.29 12.29 0 0 0-1.61-.485l.017-.031s-2.79-1.324-5.825-4.574c-.492-.528-.992-.891-1.55-1.07a2.169 2.169 0 0 0-.848-.098zm23.223 3.32c-.004 0 .03-.016.171.07.286.168.77.739 1.063 1.227.195.32.973 2.129 1.59 3.922C43.5 12.348 44 14.363 44 15c0 .723-.11 1.617-.148 2.684a31.106 31.106 0 0 0-3.278-2.27 6.561 6.561 0 0 1-.953-1.285c-.39-.676-.527-1.098-.578-1.246.148-.54.918-3.477.457-6.91.105-.13.227-.27.313-.391.183-.254.253-.25.25-.246zM12.265 19c.773 0 1.527.672 1.918 1.074-.407-.207-.91-.406-1.434-.433-.734.5-1.191 1.168-1.191 1.91 0 .316.097.617.25.898.078.008.16.016.25.016.52 0 .984-.172 1.39-.406-.457.562-1.043 1.05-1.734 1.05-1.645 0-1.64-2.468-1.64-2.468S11.167 19 12.264 19zM24.5 20c.738 0 1.77 0 2.781 1.012.051.05.074.078.121.129-.82-.391-1.617-.453-2.257-.457-.84.832-1.329 1.836-1.329 2.91 0 .101.016.195.024.293.453.183.992.293 1.613.242a4.927 4.927 0 0 0 1.762-.5c-.559.543-1.3 1.066-2.211 1.18-2.024.253-3.11-2.247-3.11-2.247S22 20 24.5 20zm14.582 2.11c2.035-.044 3.793.765 4.918 1.89a7.275 7.275 0 0 1 1.3 1.746c.02.492 0 1.067-.097 1.719-.215 1.453-.754 3.238-1.726 5.148-1.946 3.825-5.618 8.149-11.946 11.504-1.55.82-6.047 2.344-10.699 2.719-4.648.375-9.395-.36-12.074-3.488C3.836 37.605 4 33.023 4 30c0-.914.363-3.52 1.375-6.375.941.336 2.57 1.156 3.133 2.61-.606.242-1.172.796-1.36 1.91-.257 1.558 1.297 3.886 2.594 3.886 0 0 .422.133 1.457-.125 1.035-.261 2.953-1.687 3.727-3.761.254-.672-.125-1.133-.793-1.446 1.816-.71 4.37-1.449 7.867.301 6 3 9.117-.836 12-3 1.75-1.313 3.5-1.86 5.082-1.89zM10.375 33.042c-1.563-.078-2.813 1.52-2.813 1.52s1.895 1.203 3.813 1.644c7.855 1.809 10.438-1.582 10.438-1.582s-3.243 1.031-6.805.605c-2.137-.257-3.387-2.125-4.633-2.187zm.328 4.762a.998.998 0 0 0-.687 1.718c.972.97 2.629 1.715 4.543 1.715a.995.995 0 0 0 .875-.496.99.99 0 0 0 0-1.008.995.995 0 0 0-.875-.496c-1.329 0-2.68-.68-3.137-1.133a1.004 1.004 0 0 0-.719-.3z"/></svg>