<svg xmlns="http://www.w3.org/2000/svg" viewBox="0 0 40 40"><path d="M33.5 28c0 1.379-1.121 2.5-2.5 2.5a2.502 2.502 0 0 1-2.5-2.5c0-1.379 1.121-2.5 2.5-2.5s2.5 1.121 2.5 2.5z" fill="#dff0fe"/><path d="M31 26c1.102 0 2 .898 2 2 0 1.102-.898 2-2 2-1.102 0-2-.898-2-2 0-1.102.898-2 2-2m0-1a3 3 0 1 0 .002 6.002A3 3 0 0 0 31 25z" fill="#4788c7"/><path d="M34.29 34.496c-1.618 0-3.118-1.059-3.83-2.695-.745-1.711.282-2.836 2.895-5.446C34.88 24.828 35.5 22.695 35.5 19l.004-2.43c.004-3.02.008-7.703 0-10.07h1.027c.184 2.852.582 6.672.965 10.371.527 5.043 1.024 9.809 1.004 12.125-.016 2.027-.39 3.34-1.176 4.125-.898.902-1.949 1.375-3.035 1.375z" fill="#fff"/><path d="M36.063 7c.199 2.8.574 6.41.937 9.914.5 4.813 1.02 9.79 1 12.078-.016 1.863-.352 3.098-1.027 3.778-.809.804-1.735 1.23-2.684 1.23-1.418 0-2.738-.941-3.371-2.398-.574-1.325.055-2.16 2.789-4.895C35.336 25.078 36 22.847 36 19l.004-2.43c0-2.734.008-7.07 0-9.57h.059M37 6h-2c.016 2.86 0 11.125 0 13 0 3.629-.61 5.61-2 7-2.547 2.547-3.895 3.938-3 6 .79 1.813 2.469 2.996 4.29 2.996 1.136 0 2.327-.46 3.39-1.52.953-.956 1.304-2.503 1.32-4.476.031-4.2-1.613-16.477-2-23z" fill="#4788c7"/><path d="M19 25.5c-5.063 0-9.5-4.906-9.5-10.5 0-2.633.86-5.18 2.387-7.098 3.355 6.645 8.656 10.746 13.96 10.754.227.367.575 1.707.22 3.125-.27 1.086-1.051 2.52-3.212 3.18-1.175.355-2.472.539-3.855.539z" fill="#b6dcfe"/><path d="M11.813 8.848c3.39 6.257 8.515 10.136 13.707 10.304.18.532.359 1.711-.043 2.864-.418 1.203-1.352 2.035-2.766 2.464-1.129.344-2.379.52-3.711.52-4.793 0-9-4.672-9-10 0-2.242.648-4.414 1.813-6.152M12 7c-1.832 1.98-3 4.89-3 8 0 5.996 4.754 11 10 11 1.5 0 2.824-.203 4-.563 5.137-1.562 3.672-7.28 3-7.28h-.137C20.598 18.156 15.23 13.831 12 7z" fill="#4788c7"/><path d="M11 15c0-2.367.68-4.613 1.809-6.43A29.596 29.596 0 0 1 12 7c-1.832 1.98-3 4.89-3 8 0 5.996 4.754 11 10 11 .39 0 .758-.023 1.125-.05C15.235 25.43 11 20.66 11 15zm17-5l11-4H28z" fill="#4788c7"/><path d="M3.586 32.5c4.902-2.242 9.047-5.223 9.004-10.695 1.215 1.12 2.238 1.61 3.3 1.61.93 0 1.786-.38 2.778-.817.453-.203.95-.422 1.508-.63C23.852 20.606 24.5 16.379 24.5 8v-.137l-.07-.12c-.356-.598-.696-1.177-.992-1.677a75.982 75.982 0 0 0-.61-1.035l.25-.039 3.969-.465c.148-.02.285-.027.422-.027 1.449 0 2.742 1.094 2.937 2.488.215 1.516-.828 2.782-2.476 3.016l-.43.062V19.5c0 8.504-6.05 13-17.5 13z" fill="#fff"/><path d="M27.465 5c1.207 0 2.281.902 2.445 2.059.086.605-.066 1.16-.437 1.605-.375.453-.95.75-1.614.848l-.859.12V19.5C27 27.68 21.121 32 10 32H5.777c3.25-1.734 6.809-4.512 7.258-9.168.996.746 1.906 1.082 2.856 1.082 1.035 0 1.937-.398 2.98-.86a23.38 23.38 0 0 1 1.477-.616C24.305 20.973 25 16.613 25 8v-.277l-.14-.235c-.352-.593-.688-1.164-.981-1.664-.086-.14-.164-.273-.234-.394l3.484-.407c.11-.015.223-.023.336-.023m0-1c-.156 0-.317.012-.477.031L23 4.5l-1 .156c.16.192 1.012 1.688 2 3.344 0 8.293-.625 12.25-4 13.5-1.738.645-2.887 1.414-4.11 1.414-1.081 0-2.226-.598-3.89-2.414.867 6.93-4.98 10.043-10.164 12.219-.27.113-.559.191-.836.281h9c13.29 0 18-5.922 18-13.5v-9c1.848-.262 3.16-1.734 2.898-3.582C30.66 5.23 29.137 4 27.465 4z" fill="#4788c7"/><path d="M29 7c0 .55-.45 1-1 1s-1-.45-1-1 .45-1 1-1 1 .45 1 1z" fill="#4788c7"/><path d="M11 28.5c-5.063 0-9.5-4.906-9.5-10.5 0-2.633.86-5.18 2.387-7.098 3.36 6.653 8.668 10.754 13.98 10.754.758 0 1.512-.086 2.246-.258a8.05 8.05 0 0 0 2.524-1.046C20.629 24.613 17.512 28.5 11 28.5z" fill="#dff0fe"/><path d="M3.813 11.848c3.464 6.398 8.746 10.308 14.05 10.308.797 0 1.59-.09 2.364-.27a8.696 8.696 0 0 0 1.265-.394C19.532 25.04 16.54 28 11 28c-4.793 0-9-4.672-9-10 0-2.242.648-4.414 1.813-6.152M4 10c-1.832 1.98-3 4.89-3 8 0 5.996 4.754 11 10 11 8.059 0 11.09-5.863 12.84-10.145-.442.184-1.465 1.508-3.84 2.06a9.401 9.401 0 0 1-2.133.241C12.597 21.156 7.23 16.832 4 10z" fill="#4788c7"/><path d="M3 18c0-2.367.68-4.613 1.809-6.43A29.596 29.596 0 0 1 4 10c-1.832 1.98-3 4.89-3 8 0 5.996 4.754 11 10 11 .39 0 .758-.023 1.125-.05C7.235 28.43 3 23.66 3 18z" fill="#4788c7"/></svg>