<svg xmlns="http://www.w3.org/2000/svg" viewBox="0 0 64 64"><linearGradient id="a" gradientUnits="userSpaceOnUse" x1="19.061" y1="28" x2="19.061" y2="39" spreadMethod="reflect"><stop offset="0" stop-color="#6dc7ff"/><stop offset="1" stop-color="#e6abff"/></linearGradient><path d="M30.121 32.44C28.061 36.34 25 39 20 39c-6.251 0-12-6-12-11 5.29 1.68 15.701 4.73 22.121 4.44z" fill="url(#a)"/><linearGradient id="b" gradientUnits="userSpaceOnUse" x1="44.14" y1="12" x2="44.14" y2="15" spreadMethod="reflect"><stop offset="0" stop-color="#6dc7ff"/><stop offset="1" stop-color="#e6abff"/></linearGradient><circle cx="44.14" cy="13.5" r="1.5" fill="url(#b)"/><linearGradient id="c" gradientUnits="userSpaceOnUse" x1="32.072" y1="7.967" x2="31.947" y2="55.592" spreadMethod="reflect"><stop offset="0" stop-color="#1a6dff"/><stop offset="1" stop-color="#c822ff"/></linearGradient><path d="M56.97 13.02c.01 0 .02-.01.03-.02 1-1 1-2 0-2h-7.6c-.9-1.78-2.75-3-4.88-3H28v2h6v16.71c-6.83-4.94-16.56-16.25-16.66-16.36a1.02 1.02 0 0 0-.73-.35c-.28-.02-.55.1-.75.3-.74.77-1.41 1.62-1.99 2.53-2.35 3.68-2.93 7.91-1.71 12.31-2.46-.69-4.81-1.41-6.84-2.09a.995.995 0 0 0-.9.14c-.27.19-.42.49-.42.81v3c0 4.49 1.89 8.8 5.2 11.82 1.4 1.28 2.98 2.27 4.67 2.97C15.94 47.31 21.34 51 27.44 51 35.47 51 42 44.72 42 37V19h2.52c2.08 0 3.89-1.16 4.81-2.88 1.12-.23 3.59-.79 5.57-1.74-.13 3.79-1.33 13.26-3.55 20.27-1.15-.5-2.42-.62-3.7-.34-2.29.51-4.12 2.41-4.55 4.73-.28 1.58.05 3.16.9 4.43v3.13c0 5.18 3.59 9.4 8 9.4 4.34 0 8-4.3 8-9.4 0-8.15-2.67-30.55-3.03-33.58zm-43.36 6.37c.37.4.76.83 1.18 1.29l1.47-1.36c-.82-.89-1.55-1.69-2.14-2.35.16-.51.35-1.01.58-1.5.66.76 1.77 2.01 3.14 3.49l1.47-1.36c-1.74-1.88-3.05-3.38-3.56-3.97.25-.39.53-.77.82-1.12 2.42 2.76 10.13 11.34 16.09 15.71-3.18.91-10.92-.54-18.21-2.46-.79-2.22-1.07-4.35-.84-6.37zm-3.06 17.95A14.035 14.035 0 0 1 6 27v-1.62c5.14 1.64 21.64 6.61 27.6 4.61-1.39 5.85-6.29 10.41-12.3 10.95-4.01.36-7.82-.92-10.75-3.6zM44.52 17H40v20c0 6.62-5.63 12-12.56 12-4.67 0-8.88-2.5-11.01-6.39 1.15.26 2.34.39 3.55.39.49 0 1-.02 1.5-.07 7.91-.7 14.16-7.5 14.51-15.61.01-.11.01-.21.01-.32V10h8.52c1.92 0 3.48 1.56 3.48 3.52 0 1.92-1.56 3.48-3.48 3.48zm5.46-3.11c.01-.14.02-.27.02-.41 0-.16-.01-.32-.03-.48h2.93c-1 .35-2.04.66-2.92.89zM45.07 39.4c.28-1.54 1.49-2.8 3.01-3.13.92-.2 1.83-.1 2.63.28-1.27 3.4-2.81 5.91-4.63 6.34-.86-.92-1.25-2.2-1.01-3.49zM52 54c-3.31 0-6-3.32-6-7.4v-1.66c.05-.01.09-.01.14-.02 5.82-.83 8.64-13.62 9.89-22.5.88 8.05 1.97 19.1 1.97 24.18 0 3.94-2.8 7.4-6 7.4z" fill="url(#c)"/><linearGradient id="d" gradientUnits="userSpaceOnUse" x1="22.507" y1="8.68" x2="22.507" y2="55.68" spreadMethod="reflect"><stop offset="0" stop-color="#1a6dff"/><stop offset="1" stop-color="#c822ff"/></linearGradient><path d="M14.015 56.013v-2c13.771 0 15.006-4.963 15.015-5.013l1.97.337c-.046.273-1.322 6.676-16.985 6.676z" fill="url(#d)"/><linearGradient id="e" gradientUnits="userSpaceOnUse" x1="21.948" y1="8.177" x2="22.115" y2="55.51" spreadMethod="reflect"><stop offset="0" stop-color="#1a6dff"/><stop offset="1" stop-color="#c822ff"/></linearGradient><path d="M19.985 55.613c-2.322 0-5.441-1.989-6.791-3.924l1.641-1.145c1.234 1.769 4.147 3.248 5.389 3.052 8.007-1.207 8.8-4.563 8.806-4.597l1.97.338c-.033.195-.928 4.798-10.478 6.237a3.471 3.471 0 0 1-.537.039z" fill="url(#e)"/></svg>