<svg xmlns="http://www.w3.org/2000/svg" viewBox="0 0 50 50"><path d="M25 1c-4.23 0-8.156.969-11.063 3.188C11.031 6.405 9.22 9.913 9.22 14.563c0 5.417 2.183 9.23 3.844 12.843.445 1.934-.133 2.746-.97 3.344-.886.633-2.335.86-3.124.781-2.168-.215-4-2.11-4-4.062 0-1.57.531-2.032.937-2.188.407-.156.938.02 1.219.375.223.282.371.356.563.469.19.113.347.223.718.281.39.059.895-.082 1.188-.375.293-.293.383-.656.406-.968.07-.93-.371-1.438-.531-1.688-.492-.773-1.25-1.54-2.281-2a4.073 4.073 0 0 0-1.75-.344 4.31 4.31 0 0 0-1.938.532C1.121 22.848 0 25.245 0 27.593c0 2.368.695 5.489 2.969 7.97 2.035 2.218 5.328 3.785 10.187 3.75-.234.374-.472.718-.75 1-.8.816-1.879 1.667-2.906 2.28-1.027.614-2.086.938-2.375.938-1.945 0-2.797-.742-3.406-1.531A7.874 7.874 0 0 1 3 40.844c-.098-.184-.172-.367-.313-.563-.14-.195-.398-.562-1.03-.562-.337 0-.708.097-.97.312-.261.215-.386.496-.468.719-.164.45-.157.82-.157 1.063 0 1.882.461 3.628 1.72 4.937 1.257 1.309 3.198 2.055 5.843 2.219 6.266.386 11.68-3.356 14.313-6.875.57-.766 1.101-1.371 1.593-1.782.473-.394.895-.605 1.469-.656.586.055 1.031.246 1.5.625.488.395.996.992 1.563 1.75 2.625 3.516 8.039 7.324 14.312 6.938 2.645-.164 4.586-.91 5.844-2.219 1.258-1.309 1.718-3.055 1.718-4.938 0-.242.008-.613-.156-1.062-.082-.223-.207-.504-.468-.719-.262-.215-.633-.312-.97-.312-.632 0-.89.367-1.03.562-.141.196-.215.38-.313.563A7.874 7.874 0 0 1 46.281 42c-.61.79-1.46 1.531-3.406 1.531-.926 0-3.348-.855-5.219-3.156-.316-.387-.558-.879-.781-1.406 5.063.152 8.414-1.352 10.406-3.563C49.461 32.984 50 29.922 50 27.594c0-1.157-.223-2.418-.781-3.563-.559-1.144-1.496-2.191-2.844-2.718a4.311 4.311 0 0 0-2.844-.094c-.918.281-1.765.863-2.312 1.718a3.57 3.57 0 0 0-.313.625c-.097.25-.199.5-.125.97.059.386.227.69.5.937.274.246.711.445 1.188.375.62-.09.86-.438.937-.5.196-.16.887-.414 1.094-.375.102.02.11.004.219.187.11.184.25.625.25 1.407 0 2.386-1.66 4.437-3.844 4.437-.887 0-2.242-.234-3.125-.844s-1.453-1.41-1.094-3.343c.492-1.618 1.215-2.95 1.938-4.407.984-1.98 1.937-4.18 1.937-7.281 0-4.898-1.808-8.543-4.718-10.844C33.153 1.981 29.233 1 25 1zm0 2c3.922 0 7.379.918 9.813 2.844 2.433 1.926 3.968 4.851 3.968 9.281 0 2.707-.765 4.488-1.718 6.406-.696 1.403-1.493 2.867-2.063 4.688a.88.88 0 0 0-.031.093c-.004.012-.028.02-.032.032v.062a15.155 15.155 0 0 0-.468 1.969c-.887 5.574-.766 10.344 1.625 13.281 2.218 2.727 4.894 3.875 6.781 3.875 2.438 0 3.957-1.125 4.844-2.218-.176.808-.426 1.53-.938 2.062-.808.844-2.195 1.45-4.531 1.594-5.375.332-10.36-3.137-12.594-6.125-.593-.797-1.18-1.535-1.906-2.125-.727-.59-1.637-1.024-2.688-1.094a.668.668 0 0 0-.125 0c-1.062.07-1.964.52-2.687 1.125-.723.605-1.316 1.367-1.906 2.156-2.23 2.985-7.215 6.395-12.594 6.063-2.336-.145-3.723-.75-4.531-1.594-.512-.531-.762-1.254-.938-2.063.887 1.094 2.406 2.22 4.844 2.22 1.117 0 2.195-.516 3.375-1.22 1.18-.703 2.395-1.624 3.344-2.593 2.863-2.922 3.726-8.461 1.875-13.188-.258-.664-.524-1.3-.813-1.937l-.031-.125a.987.987 0 0 0-.219-.438c-.011-.02-.02-.043-.031-.062l-.031-.032c-1.61-3.464-3.375-6.785-3.375-11.375 0-4.148 1.5-6.921 3.937-8.78C17.594 3.921 21.074 3 25 3zm-3.688 11.875c-1.019 0-1.843 1.227-1.843 2.75s.824 2.781 1.843 2.781c1.02 0 1.844-1.258 1.844-2.781 0-1.523-.824-2.75-1.843-2.75zm7.375 0c-1.019 0-1.843 1.227-1.843 2.75s.824 2.781 1.843 2.781c1.02 0 1.844-1.258 1.844-2.781 0-1.523-.824-2.75-1.843-2.75zM5.5 23a1.99 1.99 0 0 1 .875.188c.078.035.11.144.188.187-.465-.05-.942-.148-1.407.031-1.281.496-2.187 1.977-2.187 4.063 0 3.125 2.648 5.715 5.812 6.031 1.246.125 3-.043 4.469-1.094a4.264 4.264 0 0 0 1.156-1.218 12.748 12.748 0 0 1-.344 6.093c-4.964.258-7.874-1.152-9.624-3.062C2.604 32.219 2 29.562 2 27.594c0-1.739.75-3.352 2.469-4.282.394-.214.722-.304 1.031-.312zm39.906.156c.09-.011.168 0 .25.032.82.32 1.36.917 1.75 1.718.39.801.594 1.801.594 2.688 0 2.008-.5 4.59-2.219 6.5-1.64 1.824-4.465 3.156-9.5 2.843-.289-1.605-.328-3.554-.125-5.75.223.235.465.45.719.625 1.41.97 3.066 1.188 4.25 1.188 3.406 0 5.844-3.094 5.844-6.438 0-1.003-.164-1.78-.532-2.406-.308-.523-.812-.797-1.312-.968.09.011.191-.02.281-.032z"/></svg>