<svg xmlns="http://www.w3.org/2000/svg" viewBox="0 0 24 24"><path d="M20 20.5c-1.277 0-2.293-.625-2.98-1.535C20.32 18.656 22 16.297 22 14c0-.633-.043-3-2-3-.707 0-2 .484-2 2 2.328-2.328 2.992 1.008 2 2-.555.555-.969 1-2 1-.785 0-1.434-.57-1.902-1.43A15.29 15.29 0 0 1 17 11c.516-1.313 1-2.61 1-3.5C18 4.46 15.312 2 12 2 8.687 2 6 4.46 6 7.5c0 .89.484 2.188 1 3.5v.004c.477 1.207.766 2.5.902 3.566C7.434 15.43 6.785 16 6 16c-1.031 0-1.445-.445-2-1-.992-.992-.328-4.328 2-2 0-1.516-1.293-2-2-2-1.957 0-2 2.367-2 3 0 2.297 1.68 4.656 4.98 4.965-.687.91-1.703 1.535-2.98 1.535-.621 0-2-.875-2-1.5 0 1.707 1.738 3 4 3 3.75 0 4.379-4 6-4 1.621 0 1.688 4 6 4 2.262 0 4-1.344 4-3 0 .656-1.379 1.5-2 1.5zM11 11c0 .55-.45 1-1 1s-1-.45-1-1v-1c0-.55.45-1 1-1s1 .45 1 1zm4 0c0 .55-.45 1-1 1s-1-.45-1-1v-1c0-.55.45-1 1-1s1 .45 1 1z"/></svg>