<svg xmlns="http://www.w3.org/2000/svg" viewBox="0 0 24 24"><path d="M5 2v4.531l.438.313L7.75 8.375 5.5 8.062l-1.781-1.78L2.28 7.718l2 2 .25.219.313.062 2.312.344-2.437.687-.25.094-.188.156-2 2 1.44 1.44 1.812-1.813 2.313-.656-3.5 3-.344.281V22h2v-5.531l2.28-1.969C8.094 14.96 8 15.473 8 16v2c0 2.2 1.8 4 4 4s4-1.8 4-4v-2c0-.527-.094-1.04-.281-1.5L18 16.469V22h2v-6.469l-.344-.281-3.406-2.938 2.031.594 2.063 1.844 1.312-1.5-2.25-2-.156-.156-.219-.063-2.437-.687L18.906 10l.282-.063.218-.187 2.25-2-1.312-1.5-2 1.781-2 .281 2.218-1.468L19 6.53V2h-2v3.438l-3 2V7c0-1.102-.898-2-2-2-1.102 0-2 .898-2 2v.438l-3-2V2z"/></svg>