<?xml version="1.0" encoding="utf-8"?>
<!-- Generator: Adobe Illustrator 22.0.1, SVG Export Plug-In . SVG Version: 6.00 Build 0)  -->
<svg version="1.1" xmlns="http://www.w3.org/2000/svg" xmlns:xlink="http://www.w3.org/1999/xlink" x="0px" y="0px"
	 viewBox="0 0 370 217.214" enable-background="new 0 0 370 217.214" xml:space="preserve">
<g id="ARTBOARD2">
</g>
<g id="ARTBOARD1">
	<g>
		<path fill="#131833" d="M320,179.714c0,3.59-2.91,6.5-6.5,6.5h-271c-3.59,0-6.5-2.91-6.5-6.5l0,0c0-3.59,2.91-6.5,6.5-6.5h271
			C317.09,173.214,320,176.124,320,179.714L320,179.714z"/>
		<path fill="#131833" d="M340,191.214c0,3.313-2.687,6-6,6H62c-3.314,0-6-2.687-6-6l0,0c0-3.314,2.686-6,6-6h272
			C337.313,185.214,340,187.9,340,191.214L340,191.214z"/>
		<path fill="#131833" d="M370,179.214c0,3.313-2.687,6-6,6h-14c-3.314,0-6-2.687-6-6l0,0c0-3.314,2.686-6,6-6h14
			C367.313,173.214,370,175.9,370,179.214L370,179.214z"/>
		<path fill="#131833" d="M31,193.214c0,3.313-2.687,6-6,6H11c-3.313,0-6-2.687-6-6l0,0c0-3.314,2.687-6,6-6h14
			C28.313,187.214,31,189.9,31,193.214L31,193.214z"/>
		<path fill="#131833" d="M205,201.222c0,4.966-4.026,8.992-8.992,8.992h-51.016c-4.966,0-8.992-4.026-8.992-8.992v-0.016
			c0-4.966,4.026-8.992,8.992-8.992h51.016c4.966,0,8.992,4.026,8.992,8.992V201.222z"/>
		<g>
			<path fill="#DD0E71" d="M56.541,63.081c-24.503,0-44.367,19.864-44.367,44.367c0,24.503,19.864,44.366,44.367,44.366
				s44.367-19.863,44.367-44.366C100.908,82.945,81.044,63.081,56.541,63.081z M56.541,134.768
				c-15.088,0-27.319-12.231-27.319-27.319c0-15.089,12.231-27.32,27.319-27.32c15.087,0,27.319,12.231,27.319,27.32
				C83.86,122.536,71.628,134.768,56.541,134.768z"/>
			<path fill="#DD0E71" d="M51.91,41.824c-1.97,10.538-3.033,21.11-3.033,32.436c0,43.124,15.369,80.398,37.827,98.811h63.335
				c22.458-18.413,37.827-55.687,37.827-98.811c0-11.325-1.063-21.897-3.033-32.436H51.91z"/>
			<path fill="#F980C2" d="M68.037,74.26c0-11.325,1.063-21.897,3.033-32.436h-9.58c-1.971,10.538-3.033,21.11-3.033,32.436
				c0,43.124,15.369,80.398,37.827,98.811h9.58C83.406,154.658,68.037,117.384,68.037,74.26z"/>
			<path fill="#A30C5B" d="M184.833,41.824h-19.16c1.971,10.538,3.033,21.11,3.033,32.436c0,43.124-15.369,80.398-37.827,98.811
				h19.16c22.458-18.413,37.827-55.687,37.827-98.811C187.866,62.935,186.804,52.362,184.833,41.824z"/>
			<path fill="none" stroke="#131833" stroke-width="4" stroke-linecap="round" stroke-linejoin="round" stroke-miterlimit="10" d="
				M90.885,87.667c0-3.764,3.051-6.815,6.815-6.815c3.763,0,6.813,3.052,6.813,6.815"/>
			<path fill="none" stroke="#131833" stroke-width="4" stroke-linecap="round" stroke-linejoin="round" stroke-miterlimit="10" d="
				M132.465,87.667c0-3.764,3.051-6.815,6.814-6.815c3.764,0,6.813,3.052,6.813,6.815"/>
			<path fill="#FFFFFF" d="M131.352,119.595c0,7.157-5.801,12.958-12.957,12.958c-7.156,0-12.956-5.801-12.956-12.958"/>
			<path opacity="0.5" fill="#B50007" d="M97.962,102.564c0,2.485-4.922,4.499-10.994,4.499c-6.072,0-10.993-2.014-10.993-4.499
				c0-2.485,4.921-4.499,10.993-4.499C93.04,98.065,97.962,100.078,97.962,102.564z"/>
			<path opacity="0.5" fill="#B50007" d="M161.191,102.564c0,2.485-4.922,4.499-10.994,4.499c-6.072,0-10.993-2.014-10.993-4.499
				c0-2.485,4.921-4.499,10.993-4.499C156.269,98.065,161.191,100.078,161.191,102.564z"/>
			<path fill="none" stroke="#FFFFFF" stroke-width="3" stroke-linecap="round" stroke-linejoin="round" stroke-miterlimit="10" d="
				M98.223,16.552c0,0-3.264,1.54-3.264,5.393c0,4.638,6.568,7.223,4.351,14.132"/>
			<path fill="none" stroke="#FFFFFF" stroke-width="3" stroke-linecap="round" stroke-linejoin="round" stroke-miterlimit="10" d="
				M117.383,6.971c0,0-3.264,1.54-3.264,5.393c0,4.638,6.568,7.223,4.351,14.132"/>
			<path fill="none" stroke="#FFFFFF" stroke-width="3" stroke-linecap="round" stroke-linejoin="round" stroke-miterlimit="10" d="
				M136.543,16.552c0,0-3.264,1.54-3.264,5.393c0,4.638,6.568,7.223,4.351,14.132"/>
		</g>
		<g>
			<path fill="#9E05C4" d="M324.045,63.081c-24.503,0-44.367,19.864-44.367,44.367c0,24.503,19.864,44.366,44.367,44.366
				c24.503,0,44.366-19.863,44.366-44.366C368.411,82.945,348.548,63.081,324.045,63.081z M324.045,134.768
				c-15.088,0-27.319-12.231-27.319-27.319c0-15.089,12.231-27.32,27.319-27.32s27.318,12.231,27.318,27.32
				C351.363,122.536,339.133,134.768,324.045,134.768z"/>
			<path fill="#9E05C4" d="M196.568,41.824c-1.97,10.538-3.032,21.11-3.032,32.436c0,43.124,15.369,80.398,37.827,98.811h63.335
				c22.458-18.413,37.827-55.687,37.827-98.811c0-11.325-1.063-21.897-3.033-32.436H196.568z"/>
			<path fill="#BD2DE0" d="M212.696,74.26c0-11.325,1.063-21.897,3.033-32.436h-9.58c-1.971,10.538-3.033,21.11-3.033,32.436
				c0,43.124,15.369,80.398,37.827,98.811h9.58C228.065,154.658,212.696,117.384,212.696,74.26z"/>
			<path fill="#7F009E" d="M329.492,41.824h-19.16c1.971,10.538,3.033,21.11,3.033,32.436c0,43.124-15.369,80.398-37.827,98.811
				h19.16c22.458-18.413,37.827-55.687,37.827-98.811C332.525,62.935,331.463,52.362,329.492,41.824z"/>
			<path fill="#7A0009" d="M276.011,119.595c0,7.157-5.801,12.958-12.956,12.958c-7.156,0-12.957-5.801-12.957-12.958"/>
			<path fill="#AF0935" d="M271.479,129.427c-2.267-1.943-5.205-3.126-8.425-3.126c-3.221,0-6.159,1.183-8.426,3.126
				c2.267,1.944,5.205,3.126,8.426,3.126C266.274,132.553,269.213,131.371,271.479,129.427z"/>
			<path opacity="0.4" fill="#B50007" d="M239.712,101.887c0,2.157-4.271,3.904-9.538,3.904c-5.269,0-9.538-1.747-9.538-3.904
				c0-2.155,4.27-3.903,9.538-3.903C235.441,97.983,239.712,99.732,239.712,101.887z"/>
			<path opacity="0.4" fill="#B50007" d="M307.027,101.887c0,2.157-4.271,3.904-9.539,3.904c-5.269,0-9.538-1.747-9.538-3.904
				c0-2.155,4.27-3.903,9.538-3.903C302.756,97.983,307.027,99.732,307.027,101.887z"/>
			<rect x="250" y="117.214" fill="#F8FFF2" width="26" height="5"/>
			<path fill="none" stroke="#FFFFFF" stroke-width="3" stroke-linecap="round" stroke-linejoin="round" stroke-miterlimit="10" d="
				M244.797,16.552c0,0-3.263,1.54-3.263,5.393c0,4.638,6.567,7.223,4.351,14.132"/>
			<path fill="none" stroke="#FFFFFF" stroke-width="3" stroke-linecap="round" stroke-linejoin="round" stroke-miterlimit="10" d="
				M263.957,6.971c0,0-3.264,1.54-3.264,5.393c0,4.638,6.568,7.223,4.352,14.132"/>
			<path fill="none" stroke="#FFFFFF" stroke-width="3" stroke-linecap="round" stroke-linejoin="round" stroke-miterlimit="10" d="
				M283.117,16.552c0,0-3.264,1.54-3.264,5.393c0,4.638,6.568,7.223,4.352,14.132"/>
			<path fill="#131833" d="M272.833,107.544c-2.59,0-7.244-1.433-7.244-1.433s0,0-2.484-1.275c-0.857,0.176-2.483,1.275-2.483,1.275
				s-4.654,1.433-7.244,1.433c-3.195,0-6.182-0.78-8.734-2.137c1.101,4.286,5.414,7.484,10.578,7.484
				c3.107,0,5.904-1.159,7.884-3.017c1.98,1.858,4.777,3.017,7.884,3.017c5.165,0,9.479-3.198,10.579-7.484
				C279.014,106.764,276.026,107.544,272.833,107.544z"/>
			<path fill="#131833" d="M252,84.714c0,3.037-2.463,5.5-5.5,5.5l0,0c-3.037,0-5.5-2.463-5.5-5.5v-5c0-3.037,2.463-5.5,5.5-5.5l0,0
				c3.037,0,5.5,2.463,5.5,5.5V84.714z"/>
			<path fill="#131833" d="M287,84.714c0,3.037-2.463,5.5-5.5,5.5l0,0c-3.037,0-5.5-2.463-5.5-5.5v-5c0-3.037,2.463-5.5,5.5-5.5l0,0
				c3.037,0,5.5,2.463,5.5,5.5V84.714z"/>
			<path fill="#FFFFFF" d="M250.393,78.94c0,1.626-1.318,2.945-2.946,2.945c-1.626,0-2.945-1.319-2.945-2.945
				c0-1.628,1.319-2.945,2.945-2.945C249.074,75.994,250.393,77.312,250.393,78.94z"/>
			<path fill="#FFFFFF" d="M285.839,78.94c0,1.626-1.318,2.945-2.946,2.945c-1.626,0-2.945-1.319-2.945-2.945
				c0-1.628,1.319-2.945,2.945-2.945C284.52,75.994,285.839,77.312,285.839,78.94z"/>
			<path fill="#131833" d="M251.858,64.589c0.188,1.074-0.528,2.097-1.603,2.285l-12.441,2.182
				c-1.074,0.188-2.097-0.529-2.285-1.604l0,0c-0.188-1.074,0.528-2.097,1.602-2.284l12.442-2.182
				C250.647,62.798,251.671,63.516,251.858,64.589L251.858,64.589z"/>
			<path fill="#131833" d="M276.724,64.589c-0.188,1.074,0.528,2.097,1.603,2.285l12.441,2.182c1.074,0.188,2.097-0.529,2.285-1.604
				l0,0c0.188-1.074-0.528-2.097-1.603-2.284l-12.442-2.182C277.935,62.798,276.912,63.516,276.724,64.589L276.724,64.589z"/>
		</g>
	</g>
</g>
</svg>
