<svg xmlns="http://www.w3.org/2000/svg" viewBox="0 0 50 50"><path d="M5 6c-1.076 0-2.998.41-3.213.457a1 1 0 0 0-.766 1.18C1.545 10.202 4.401 23 9.096 23c.429 0 .889-.024 1.361-.055-.969 1.231-1.7 2.803-2.396 4.711a1 1 0 0 0 .328 1.135c.005.004.546.458.59 1.07.032.444-.204.93-.7 1.446a.998.998 0 0 0 .29 1.595c1.023.49.48 2.325.476 2.34a.999.999 0 0 0 .785 1.285c.152.026.814.226 1.024.659.174.359.055.95-.336 1.668-.023.042-.025.087-.041.13-.838.67-1.726 1.786-2.416 3.67a1 1 0 0 0 1.878.69C11.164 40 12.865 40.006 13 40c.841 0 1.057.352 1.063.352a1.002 1.002 0 0 0 1.796.158c.575-.972 1.487-.694 1.74-.592a.996.996 0 0 0 .948-.082A.998.998 0 0 0 19 39c0-2.159 1.464-3.11 1.518-3.145A.998.998 0 0 0 21 35c0-6.492 1.945-10.017 3-11.457V30c0 .55.45 1 1 1s1-.45 1-1v-6.457c1.054 1.44 3 4.965 3 11.457 0 .35.182.674.482.855C29.536 35.89 31 36.841 31 39a.999.999 0 0 0 1.398.918c.254-.103 1.166-.38 1.74.592a1 1 0 1 0 1.797-.158c.007 0 .225-.352 1.065-.352.135.006 1.836-.001 3.06 3.344a1.002 1.002 0 0 0 1.284.593 1 1 0 0 0 .595-1.283c-.69-1.884-1.578-3-2.416-3.67-.016-.043-.019-.088-.04-.13-.392-.718-.51-1.31-.337-1.668.21-.433.872-.633 1.024-.659a1 1 0 0 0 .785-1.285c-.004-.015-.547-1.85.477-2.34a1 1 0 0 0 .289-1.595c-.496-.515-.732-1-.7-1.446.044-.612.585-1.066.59-1.07.344-.267.477-.726.328-1.135-.696-1.908-1.427-3.48-2.396-4.71.472.03.931.054 1.361.054 4.693 0 7.551-12.798 8.076-15.363a1.002 1.002 0 0 0-.767-1.18C47.997 6.41 46.077 6 45 6c-8.569 0-16.56 8.567-19 11.436V16c0-.55-.45-1-1-1s-1 .45-1 1v1.436C21.56 14.567 13.57 6 5 6zm1.283 2.086c1.547.176 3.077.666 4.553 1.336a24.977 24.977 0 0 0-.832 4.488 1 1 0 1 0 1.992.18c.15-1.669.432-2.885.662-3.735.432.246.856.503 1.272.772-.24.883-.93 3.624-.93 5.873a1 1 0 1 0 2 0c0-1.574.433-3.498.709-4.637.603.452 1.152.915 1.701 1.38-.045.149-.473 1.57-.85 4.306a318.531 318.531 0 0 1 2.08-.373 35.4 35.4 0 0 1 .456-2.446 47.66 47.66 0 0 1 3.67 3.842c-1.2.12-2.727.387-4.393.686v-.002c-.206.037-.404.071-.615.11-1.181.212-5.394.883-5.996.952-2.678-3.303-4.728-10.022-5.479-12.732zm37.434 0c-.751 2.71-2.8 9.431-5.479 12.734-.592-.068-4.641-.713-5.898-.937l-.098-.018c-.21-.038-.409-.072-.615-.11v.005c-1.666-.3-3.193-.57-4.393-.69a47.649 47.649 0 0 1 3.67-3.841c.128.564.292 1.376.455 2.447a318.531 318.531 0 0 1 2.08.373c-.376-2.737-.804-4.157-.85-4.307.55-.464 1.099-.927 1.702-1.379.276 1.139.709 3.063.709 4.637a1 1 0 1 0 2 0c0-2.249-.691-4.99-.93-5.873.416-.269.84-.526 1.272-.772.23.85.512 2.066.662 3.735a1 1 0 1 0 1.992-.18 25.018 25.018 0 0 0-.83-4.488c1.475-.67 3.004-1.16 4.55-1.336zM24 21v.01a.983.983 0 0 0-.658.236c-.164.144-3.759 3.399-4.276 11.73C14.627 32.75 14 30.856 14 29c0-2.448-.635-4.901-.918-5.875L13 22.719c.818-.127 2.01-.343 3.168-.547A71.439 71.439 0 0 0 16 27a1 1 0 0 0 2 0c0-1.984.09-3.654.205-5.18 2.34-.423 4.546-.82 5.795-.82zm2 0c1.249 0 3.454.396 5.795.818C31.91 23.345 32 25.015 32 27a1 1 0 0 0 2 0 71.25 71.25 0 0 0-.17-4.83c1.158.204 2.352.422 3.17.549l-.082.406C36.635 24.099 36 26.552 36 29c0 1.855-.626 3.748-5.064 3.977-.517-8.332-4.114-11.586-4.278-11.729A.983.983 0 0 0 26 21.01V21z"/></svg>