<svg xmlns="http://www.w3.org/2000/svg" viewBox="0 0 50 50"><path d="M25 2C12.316 2 2 12.316 2 25s10.316 23 23 23 23-10.316 23-23S37.684 2 25 2zm0 6a3 3 0 1 1-.002 6.002A3 3 0 0 1 25 8zm12.523 10.523L29 21.56V29l2.535 10.137A1.5 1.5 0 0 1 30.078 41a1.496 1.496 0 0 1-1.418-1.023L24.996 29 21.34 39.977A1.496 1.496 0 0 1 19.922 41a1.5 1.5 0 0 1-1.457-1.863L21 29v-7.441l-8.523-3.036a1.592 1.592 0 0 1-.98-2.007 1.599 1.599 0 0 1 2.019-1.012L21 18h8l7.484-2.496a1.599 1.599 0 0 1 2.02 1.012 1.592 1.592 0 0 1-.98 2.007z"/></svg>