<?xml version="1.0" encoding="utf-8"?>
<!-- Generator: Adobe Illustrator 22.0.1, SVG Export Plug-In . SVG Version: 6.00 Build 0)  -->
<svg version="1.1" xmlns="http://www.w3.org/2000/svg" xmlns:xlink="http://www.w3.org/1999/xlink" x="0px" y="0px"
	 viewBox="0 0 346.644 381.15" enable-background="new 0 0 346.644 381.15" xml:space="preserve">
<g id="BACKGROUND_2">
</g>
<g id="BACKGROUND_1">
	<g>
		<g>
			<path fill-rule="evenodd" clip-rule="evenodd" fill="#FCA7BE" d="M182.973,328.581c-29.374-30.172-59.425-61.129-79.47-97.958
				c-12.198-23.729-26.058-64.508,1.88-83.749c16.301-11.284,34.1-3.323,44.817,10.729c12.748,16.412,18.581,36.718,27.56,54.318
				c1.833-14.58,6.537-28.208,14.165-41.616c7.633-13.408,18.354-28.792,34.783-31.971c10.463-2.157,23.415,1.76,29.286,11.768
				c7.79,13.831,1.183,33.203-2.845,47.617c-9.9,33.843-26.168,64.263-42.492,95.414c-7.686,14.141-15.315,27.547-22.948,40.955
				L182.973,328.581z"/>
			<g>
				<path fill="#FCA7BE" d="M184.685,326.868c-20.735-21.3-41.515-42.7-59.263-66.615c-14.399-19.4-27.051-40.623-32.237-64.463
					c-2.242-10.303-2.587-21.209,1.04-31.23c4.183-11.553,15.726-20.568,28.106-20.613c14.34-0.051,24.732,12.323,31.621,23.378
					c7.487,12.017,12.324,25.494,18.129,38.347c1.138,2.518,2.344,5.004,3.586,7.472c1.213,2.412,4.23,0.901,4.515-1.223
					c1.92-14.331,6.786-27.803,13.834-40.394c5.59-9.984,12.338-19.872,22.019-26.274c9.864-6.524,22.568-6.748,32.349-0.034
					c11.384,7.814,9.374,24.094,6.808,35.66c-5.932,26.735-16.856,52.227-28.922,76.691c-12.626,25.6-26.536,50.497-40.652,75.295
					c1.269-0.164,2.536-0.327,3.805-0.49C187.844,330.538,186.265,328.703,184.685,326.868c-2.041-2.373-5.452,1.07-3.426,3.426
					c1.578,1.836,3.157,3.671,4.736,5.506c1.022,1.189,3.073,0.795,3.805-0.49c15.323-26.918,30.389-53.968,43.862-81.871
					c6.456-13.369,12.337-27.02,17.295-41.018c4.395-12.405,8.769-25.635,10.469-38.73c1.49-11.485,0.225-23.491-9.038-31.456
					c-7.956-6.842-19.317-8.166-29.165-5.552c-10.947,2.905-19.292,11.61-25.788,20.418c-7.848,10.641-13.857,22.869-17.921,35.422
					c-2.043,6.315-3.298,12.831-4.178,19.399c1.505-0.407,3.01-0.815,4.515-1.223c-11.423-22.698-18.315-53.051-41.604-66.963
					c-19.861-11.864-42.766,1.374-49.459,21.75c-6.233,18.979,0.995,40.821,8.714,58.232c10.951,24.694,28.6,46.593,46.291,66.762
					c12.018,13.702,24.755,26.759,37.466,39.814C183.442,332.536,186.865,329.107,184.685,326.868z"/>
			</g>
		</g>
		<g>
			<g>
				<g>
					<path fill-rule="evenodd" clip-rule="evenodd" fill="#222222" d="M166.346,69.739c0.08,1.245,0.157,2.491,0.234,3.735
						c0.464,7.564,0.877,15.132,1.289,22.697c0.1,1.817,0.293,3.63,0.49,5.44c0.081,0.753-0.174,1.114-0.715,1.536
						c-1.806,1.413-3.844,1.171-5.788,1.322c-1.839-4.429-2.041-9.063-2.261-13.696c-0.242-4.891-0.491-9.784-0.753-14.672
						c-0.327-6.103-0.697-12.204-1.002-18.309c-0.063-1.276,0.108-2.561,0.182-3.965c2.372-0.021,4.677,0.128,6.954,0.001
						c2.21-0.123,4.208,0.366,6.084,1.29c0.555,0.274,1.177,0.795,1.334,1.306c0.564,1.826,0.858,3.714,1.374,5.55
						c0.816,2.891,1.669,5.771,2.529,8.643c0.833,2.783,1.722,5.549,2.563,8.425c0.307-1.714,0.625-3.396,0.924-5.084
						c1.08-6.108,2.201-12.214,3.447-18.3c0.063-0.307,0.542-0.648,0.915-0.766c4.191-1.328,8.523-0.791,12.788,0.166
						c0.832,0.186,0.87,0.658,0.854,1.286c-0.093,3.283-0.219,6.567-0.234,9.853c-0.012,3.402,0.091,6.809,0.101,10.213
						c0,2.996-0.053,5.99-0.066,8.986c-0.027,5.346-0.01,10.69-0.239,16.025c-0.07,1.649-0.625,3.28-0.935,4.841
						c-2.334-0.245-4.461-0.431-6.694-0.588c-0.17-11.797-0.608-23.516-1.301-35.237c-0.064-0.008-0.129-0.017-0.194-0.025
						c-0.713,2.881-1.415,5.762-2.076,8.651c-1.355,5.92-2.603,11.86-3.848,17.793c-0.467,2.225-1.082,4.414-1.599,6.626
						c-0.165,0.703-0.505,1.004-1.165,0.821c-0.273-0.075-0.58-0.108-0.856-0.055c-2.03,0.396-3.319-0.896-4.184-2.644
						c-0.53-1.075-0.596-2.474-0.741-3.744c-1.046-9.087-3.105-17.969-6.576-26.534c-0.219-0.543-0.432-1.087-0.652-1.631
						C166.468,69.709,166.406,69.724,166.346,69.739z"/>
					<path fill-rule="evenodd" clip-rule="evenodd" fill="#222222" d="M243.355,88.061c1.336-0.131,2.351-0.071,3.271-0.317
						c4.917-1.319,8.968-3.911,11.662-8.124c1.38-2.158,2.195-4.673,3.191-7.059c0.269-0.633,0.623-0.833,1.368-0.947
						c2.511-0.383,4.819,0.504,7.104,1.57c0.914,0.423,1.949,2.994,1.591,3.948c-2.068,5.537-5.481,10.111-10.31,13.6
						c-1.27,0.917-2.856,1.425-4.223,2.224c-0.388,0.227-0.703,0.704-0.867,1.139c-0.851,2.262-0.518,4.618-0.435,6.972
						c0.153,4.131,0.005,8.249-0.032,12.341c-0.026,2.68,0.109,5.349,0.106,8.131c-1.058,0.598-2.002-0.227-2.957-0.494
						c-1.452-0.407-2.96-0.895-4.167-1.761c-1.279-0.92-2.55-2.028-2.429-4.193c0.304-5.403,0.335-10.84,0.252-16.301
						c-0.013-0.8-0.134-1.6-0.208-2.358c-2.885-0.367-4.696,1.486-6.639,2.932c-0.242,0.184-0.322,0.632-0.427,0.974
						c-1.072,3.484-2.186,6.956-3.206,10.455c-0.443,1.514-1.669,2.16-2.57,3.162c-0.11,0.12-0.413,0.079-0.613,0.042
						c-0.428-0.078-0.845-0.295-1.273-0.288c-2.029,0.038-2.77-1.399-3.247-3.217c-0.065-0.238-0.034-0.548,0.044-0.795
						c1.01-3.111,2.111-6.194,3.057-9.327c2.464-8.177,4.874-16.373,7.205-24.589c0.96-3.388,1.685-6.844,2.578-10.251
						c0.273-1.045,0.738-2.051,1.261-2.999c0.149-0.267,0.869-0.469,1.235-0.357c2.572,0.788,5.004,1.934,7.002,3.708
						c0.302,0.265,0.493,0.909,0.376,1.245c-1.181,3.356-2.431,6.689-3.662,10.027C246.092,80.675,244.785,84.192,243.355,88.061z"
						/>
					<path fill-rule="evenodd" clip-rule="evenodd" fill="#222222" d="M220.818,80.191c0.302-2.457,0.479-4.959,0.911-7.408
						c0.358-2.003-1.349-3.071-2.143-4.55c-0.09-0.168-0.538-0.286-0.795-0.26c-2.377,0.231-4.669,0.658-6.045,2.729
						c-0.283,0.428-0.703,0.771-1.045,1.139c-2.62-1.419-4.661-3.228-5.795-5.863c-0.145-0.337-0.095-0.873,0.099-1.182
						c2.666-4.225,7.049-6.185,12.393-6.406c3.153-0.135,6.349,0.699,8.89,2.479c1.684,1.176,3.093,3.037,3.861,4.833
						c1.204,2.806,1.807,5.786,1.149,8.786c-0.924,4.23-1.729,8.488-2.701,12.706c-1.526,6.632-3.17,13.234-4.77,19.847
						c-0.185,0.755-0.486,1.24-1.16,1.468c-0.176,0.06-0.373,0.118-0.513,0.24c-1.892,1.645-3.786,0.762-5.318-0.152
						c-0.969-0.58-1.636-0.403-2.452-0.218c-2.252,0.514-4.276-0.228-6.327-0.907c-3.982-1.312-6.309-4.653-8.207-8.51
						c-0.653-1.333-0.729-3.134-0.722-4.721c0.018-3.204,0.236-6.53,2.366-9.041c1.428-1.68,3.16-3.217,5.567-3.778
						c3.585-0.835,7.245-1.393,11.011-1.293C219.564,80.142,220.052,80.161,220.818,80.191z M220.105,88.435
						c-2.798-0.035-5.453-0.118-8.073,0.083c-2.015,0.159-3.085,1.85-4.189,3.327c-0.145,0.199-0.086,0.633-0.014,0.929
						c0.488,1.98,0.963,3.958,1.464,5.922c0.063,0.25,0.425,0.544,0.678,0.579c1.706,0.239,3.428,0.41,5.136,0.691
						c0.692,0.115,1.064-0.157,1.505-0.734C218.992,96.132,219.314,92.347,220.105,88.435z"/>
					<path fill-rule="evenodd" clip-rule="evenodd" fill="#222222" d="M263.534,98.888c1.776-3.484,3.545-7.543,5.859-11.263
						c1.578-2.53,3.659-4.89,6.066-6.729c3.056-2.334,6.959-3.183,11.301-1.083c2.669,1.295,5.33,2.637,7.462,4.824
						c2.09,2.143,3.113,4.619,3.521,7.228c0.769,4.942-1.662,8.45-5.074,11.147c-2.062,1.629-4.744,2.481-7.504,2.962
						c-3.798,0.658-7.387,0.503-10.976-1.077c-1.262-0.557-4.052,0.587-4.617,1.801c-0.728,1.539-1.345,3.144-2.2,4.605
						c-1.033,1.774-1.307,3.622-0.999,5.576c0.073,0.474,0.427,0.93,0.742,1.32c1.734,2.164,3.97,1.816,6.295,1.239
						c0.325-0.08,0.641-0.293,0.91-0.51c0.435-0.35,0.826-0.757,1.24-1.137c2.004-1.843,4.143-1.899,6.349-0.119
						c0.764,0.617,1.498,1.269,2.261,1.884c0.568,0.458,0.458,0.856,0.032,1.328c-2.686,2.977-5.574,5.671-9.13,7.478
						c-0.337,0.172-0.714,0.313-1.078,0.359c-4.3,0.532-7.723-1.275-10.933-3.527c-1.423-1-2.417-2.673-3.24-4.482
						c-1.677-3.682-1.017-7.373-0.013-11.027C260.768,106.188,262.179,102.816,263.534,98.888z M275.034,95.646
						c2.805,1.472,5.403,1.876,8.066,2.122c0.322,0.03,0.704,0.017,0.962-0.125c2.078-1.146,4.271-2.209,4.35-5.037
						c0.009-0.278,0.226-0.528,0.253-0.809c0.027-0.266,0.032-0.624-0.129-0.827c-1.032-1.299-2.092-2.584-3.243-3.796
						c-0.286-0.301-0.992-0.601-1.287-0.485c-1.794,0.701-3.861,0.953-4.926,2.809C277.863,91.603,276.406,93.57,275.034,95.646z"/>
				</g>
				<g>
					<path fill-rule="evenodd" clip-rule="evenodd" fill="#222222" d="M39.043,97.992c0.082-2.023,1.701-2.8,3.394-3.575
						c1.755-0.805,3.473-1.694,5.178-2.582c0.966-0.503,1.712-0.432,2.588,0.017c5.033,2.585,9.967,5.258,14.746,8.092
						c0.35,0.208,0.708,0.401,1.217,0.691c-0.387-3.264-0.712-6.395-0.999-9.537c-0.263-2.865-0.478-5.741-0.701-8.622
						c-0.066-0.864,0.221-1.163,1.206-1.572c2.214-0.917,4.296-2.152,6.445-3.226c0.474-0.237,0.914-0.538,1.419-0.836
						c0.799,0.894,1.567,1.686,2.222,2.554c0.213,0.284,0.218,0.765,0.183,1.153c-0.697,7.744-1.146,15.446-1.112,23.082
						c0.008,2.143,0.52,4.213,1.717,6.159c2.673,4.348,5.173,8.799,7.622,13.274c0.861,1.575,1.451,3.295,2.154,4.913
						c-2.033,2.039-4.479,2.792-7,3.486c-0.224,0.062-0.738-0.36-0.949-0.672c-2.282-3.394-4.551-6.799-6.845-10.188
						c-2.364-3.489-4.559-7.111-7.221-10.372c-1.239-1.521-3.238-2.611-5.14-3.402c-4.366-1.815-8.462-4.077-12.668-6.268
						c-2.204-1.149-4.834-1.642-7.312-2.371C39.139,98.123,39.092,98.057,39.043,97.992z"/>
					<path fill-rule="evenodd" clip-rule="evenodd" fill="#222222" d="M107.588,62.906c3.1-1.17,6.101-2.022,9.238-1.391
						c0.361,0.073,0.912,0.622,0.852,0.855c-1.071,4.325,1.423,7.944,2.493,11.819c1.273,4.518,2.804,8.972,4.291,13.431
						c1.01,3.025,2.03,6.068,3.336,8.964c0.67,1.482,2.012,2.656,3.051,3.957c0.104,0.13,0.405,0.129,0.605,0.112
						c0.218-0.02,0.429-0.12,0.638-0.196c0.852-0.317,2.275-0.406,2.449-0.979c0.485-1.603,0.973-3.526,0.583-5.113
						c-2.053-8.374-4.483-16.66-6.922-24.944c-0.924-3.151-1.878-6.295-2.764-9.456c-0.078-0.277,0.317-0.882,0.646-1.013
						c2.41-0.955,4.898-1.302,7.471-0.579c0.762,0.215,1.297,0.435,1.528,1.1c0.901,2.607,1.947,5.183,2.583,7.847
						c1.132,4.729,2.161,9.491,2.903,14.285c0.918,5.816,2.11,11.604,1.932,17.553c-0.094,3.353-1.151,6.106-2.687,8.707
						c-0.281,0.474-0.892,0.687-1.344,1.027c-2.55,1.913-5.362,1.643-8.357,1.297c-3.36-0.386-5.526-2.665-7.35-5.505
						c-2.726-4.243-4.798-8.882-6.433-13.661c-2.628-7.658-5.083-15.377-7.611-23.072C108.19,66.347,107.968,64.65,107.588,62.906z"
						/>
					<path fill-rule="evenodd" clip-rule="evenodd" fill="#222222" d="M83.003,96.67c-0.873-2.905-1.873-5.959-2.651-9.07
						c-0.533-2.132-0.945-4.322-1.087-6.523c-0.201-3.043,1.276-5.769,3.788-7.788c5.212-4.187,11.55-4.821,17.598-3.313
						c1.916,0.475,3.434,2.324,4.899,3.745c3.235,3.155,3.788,7.316,4.344,11.45c0.215,1.635,0.446,3.267,0.711,4.894
						c0.419,2.583,0.353,5.174-0.286,7.622c-0.545,2.083-1.559,3.989-3.14,5.486c-2.807,2.656-6.196,3.606-9.931,3.717
						c-4.629,0.133-8.562-1.527-11.308-5.792C85.026,99.674,84.078,98.272,83.003,96.67z M90.526,92.071
						c0.112-0.028,0.224-0.055,0.336-0.083c0.18,0.407,0.362,0.815,0.539,1.224c1.203,2.762,2.861,4.845,6.281,4.489
						c0.234-0.025,0.48,0.074,0.717,0.062c0.385-0.021,0.838,0.029,1.139-0.15c0.948-0.565,1.878-1.176,2.751-1.854
						c0.284-0.221,0.491-0.729,0.486-1.106c-0.033-2.599,0.038-5.213-0.165-7.807c-0.218-2.805-1.256-5.408-2.88-7.758
						c-0.19-0.277-0.569-0.453-0.89-0.631c-2.361-1.307-4.902-1.812-7.653-0.792c-0.4,0.148-1.095,0.137-1.195,0.363
						c-0.691,1.536-1.844,3.196-1.677,4.67C88.67,85.874,89.734,88.957,90.526,92.071z"/>
					<path fill-rule="evenodd" clip-rule="evenodd" fill="#222222" d="M97.377,120.009c-1.187-2.343-2.374-4.51-2.457-7.024
						c-0.01-0.309,0.202-0.775,0.444-0.884c4.995-2.255,10.093-4.246,15.243-6.06c0.856-0.301,1.41-0.16,1.747,0.849
						c0.718,2.143,1.483,4.272,2.233,6.445c-1.347,1.177-2.941,1.794-4.737,1.948c-3.636,0.315-6.794,2.085-10.053,3.491
						C99.005,119.116,98.257,119.55,97.377,120.009z"/>
				</g>
			</g>
		</g>
		<g>
			<path fill-rule="evenodd" clip-rule="evenodd" fill="#222222" d="M196.186,10.297c-0.356,0.483-0.679,0.994-1.073,1.443
				c-1.636,1.858-3.288,3.7-4.945,5.541c-0.971,1.078-0.78,1.976-0.128,3.296c1.41,2.862,2.42,5.922,3.564,8.914
				c0.104,0.266-0.007,0.613-0.028,1.194c-0.743-0.405-1.315-0.656-1.825-1.002c-2.483-1.693-4.978-3.375-7.413-5.14
				c-1.034-0.752-2.002-0.793-2.947-0.052c-2.48,1.94-4.913,3.938-7.371,5.907c-0.15,0.121-0.342,0.192-0.777,0.43
				c0.047-1.3-0.079-2.422,0.161-3.458c0.509-2.192,1.128-4.37,1.873-6.492c0.376-1.07,0.098-1.574-0.802-2.064
				c-2.074-1.127-4.125-2.299-6.167-3.486c-0.579-0.337-1.093-0.787-1.637-1.186c0.022-0.146,0.044-0.294,0.067-0.44
				c0.635-0.1,1.27-0.214,1.908-0.293c2.869-0.357,5.743-0.668,8.6-1.102c0.337-0.051,0.731-0.721,0.83-1.164
				c0.697-3.091,1.314-6.199,1.978-9.298c0.118-0.549,0.324-1.077,0.563-1.846c1.202,2.979,2.239,5.689,3.387,8.35
				c1.267,2.94,2.114,3.304,5.307,2.677c2.182-0.428,4.377-0.785,6.567-1.174C195.978,10,196.083,10.147,196.186,10.297z"/>
			<path fill-rule="evenodd" clip-rule="evenodd" fill="#222222" d="M148.81,34.459c-0.742-0.34-1.508-0.636-2.221-1.03
				c-2.679-1.48-5.344-2.987-8.007-4.499c-1.033-0.588-1.751-0.299-2.726,0.397c-2.726,1.945-5.619,3.656-8.446,5.459
				c-0.146-0.102-0.292-0.203-0.438-0.304c0.185-0.785,0.309-1.589,0.567-2.349c0.775-2.288,1.535-4.586,2.441-6.822
				c0.427-1.056,0.094-1.632-0.738-2.122c-2.839-1.671-5.686-3.331-8.681-5.082c0.482-0.134,1.115-0.41,1.771-0.474
				c2.945-0.285,5.905-0.438,8.837-0.813c0.605-0.077,1.454-0.795,1.615-1.376c0.77-2.795,1.336-5.646,1.99-8.474
				c0.101-0.436,0.281-0.854,0.474-1.43c0.353,0.263,0.596,0.348,0.661,0.506c1.118,2.728,2.252,5.449,3.292,8.208
				c0.399,1.062,0.952,1.562,2.129,1.442c2.409-0.244,4.825-0.433,7.243-0.58c0.971-0.06,1.951,0.055,2.927,0.09
				c0.033,0.137,0.066,0.274,0.099,0.412c-0.726,0.616-1.509,1.179-2.17,1.858c-1.911,1.967-3.796,3.958-5.618,6.005
				c-0.205,0.231-0.075,0.953,0.128,1.321c1.393,2.538,2.848,5.042,4.281,7.558c0.319,0.56,0.633,1.125,0.95,1.688
				C149.049,34.186,148.931,34.322,148.81,34.459z"/>
			<path fill-rule="evenodd" clip-rule="evenodd" fill="#222222" d="M245.176,22.976c-0.538,0.181-1.084,0.337-1.607,0.549
				c-2.58,1.046-5.157,2.099-7.73,3.166c-1.112,0.462-0.81,1.423-0.632,2.223c0.643,2.882,1.37,5.746,2.037,8.623
				c0.118,0.506,0.105,1.043,0.154,1.592c-0.295-0.011-0.514,0.049-0.595-0.031c-2.619-2.556-5.26-5.093-7.813-7.713
				c-0.767-0.787-1.438-1.188-2.528-0.751c-2.931,1.179-5.881,2.308-8.83,3.447c-0.556,0.215-1.128,0.385-1.854,0.277
				c1.137-1.542,2.36-3.026,3.389-4.637c3.743-5.875,3.387-3.601-1.235-8.688c-1.023-1.125-2.367-1.96-3.464-3.321
				c0.6-0.029,1.203-0.102,1.803-0.078c2.749,0.109,5.497,0.229,8.246,0.381c1.1,0.061,1.694-0.309,2.172-1.404
				c1.22-2.794,2.645-5.498,4.004-8.23c0.13-0.263,0.364-0.476,0.878-1.131c0.342,1.852,0.642,3.285,0.863,4.73
				c0.312,2.018,0.492,4.059,0.891,6.057c0.1,0.505,0.741,1.133,1.257,1.285c2.885,0.844,5.813,1.536,8.713,2.339
				c0.672,0.188,1.285,0.605,1.925,0.919C245.204,22.71,245.189,22.843,245.176,22.976z"/>
		</g>
		<g>
			<path fill-rule="evenodd" clip-rule="evenodd" fill="#222222" d="M169.966,354.709c0.593-0.089,1.183-0.224,1.779-0.262
				c2.472-0.157,4.944-0.29,7.416-0.421c1.447-0.076,1.948-0.845,2.423-2.239c1.025-3.021,2.476-5.9,3.781-8.825
				c0.116-0.26,0.438-0.427,0.861-0.824c0.243,0.812,0.471,1.395,0.583,1.997c0.56,2.955,1.134,5.91,1.608,8.878
				c0.202,1.265,0.857,1.978,2.047,2.123c3.126,0.382,6.261,0.689,9.392,1.034c0.19,0.021,0.376,0.105,0.85,0.244
				c-0.952,0.887-1.654,1.773-2.558,2.333c-1.912,1.189-3.886,2.293-5.914,3.266c-1.022,0.492-1.182,1.046-0.891,2.027
				c0.668,2.265,1.29,4.542,1.893,6.824c0.173,0.65,0.219,1.332,0.322,1.997c-0.121,0.089-0.24,0.177-0.361,0.264
				c-0.517-0.379-1.046-0.747-1.555-1.142c-2.282-1.776-4.533-3.589-6.861-5.303c-0.274-0.201-1.026-0.006-1.409,0.237
				c-2.679,1.692-5.315,3.452-7.973,5.175c-0.47,0.307-0.992,0.533-1.703,0.909c1.257-2.957,2.439-5.605,3.511-8.299
				c1.181-2.976,0.839-3.832-1.861-5.644c-1.845-1.243-3.65-2.542-5.474-3.814C169.904,355.068,169.934,354.888,169.966,354.709z"/>
			<path fill-rule="evenodd" clip-rule="evenodd" fill="#222222" d="M229.417,328.136c0.34,0.742,0.728,1.467,1.009,2.23
				c1.06,2.871,2.092,5.754,3.118,8.639c0.399,1.12,1.13,1.369,2.322,1.481c3.335,0.309,6.644,0.906,9.961,1.388
				c0.044,0.173,0.088,0.347,0.133,0.517c-0.652,0.473-1.273,1.002-1.965,1.407c-2.081,1.224-4.158,2.467-6.306,3.568
				c-1.014,0.518-1.14,1.172-0.829,2.088c1.056,3.121,2.127,6.236,3.251,9.521c-0.454-0.214-1.115-0.419-1.651-0.799
				c-2.416-1.708-4.756-3.527-7.221-5.162c-0.508-0.334-1.619-0.348-2.121-0.013c-2.409,1.613-4.702,3.399-7.044,5.112
				c-0.362,0.265-0.771,0.463-1.292,0.772c-0.098-0.43-0.224-0.652-0.17-0.815c0.938-2.796,1.856-5.597,2.872-8.363
				c0.393-1.064,0.3-1.804-0.669-2.483c-1.982-1.391-3.934-2.827-5.861-4.295c-0.772-0.59-1.439-1.317-2.155-1.982
				c0.064-0.125,0.13-0.251,0.195-0.376c0.953,0.008,1.912,0.095,2.855,0.011c2.732-0.239,5.461-0.512,8.177-0.87
				c0.307-0.04,0.681-0.672,0.769-1.083c0.603-2.831,1.141-5.679,1.699-8.52c0.126-0.634,0.256-1.265,0.385-1.897
				C229.058,328.188,229.238,328.162,229.417,328.136z"/>
			<path fill-rule="evenodd" clip-rule="evenodd" fill="#222222" d="M124.681,354.882c0.277-0.493,0.579-0.974,0.828-1.48
				c1.222-2.503,2.437-5.006,3.637-7.521c0.52-1.088-0.347-1.6-1.015-2.077c-2.406-1.714-4.858-3.358-7.278-5.053
				c-0.426-0.299-0.774-0.707-1.177-1.082c0.226-0.19,0.349-0.381,0.463-0.375c3.657,0.152,7.315,0.275,10.965,0.521
				c1.096,0.072,1.864-0.076,2.382-1.131c1.395-2.836,2.837-5.648,4.268-8.464c0.271-0.53,0.583-1.04,1.195-1.443
				c0.186,1.904,0.266,3.828,0.578,5.714c1.14,6.871-0.115,4.941,6.721,5.638c1.513,0.155,3.071-0.124,4.797,0.158
				c-0.428,0.423-0.827,0.88-1.288,1.262c-2.12,1.757-4.246,3.503-6.392,5.225c-0.858,0.69-1.054,1.363-0.678,2.498
				c0.959,2.892,1.705,5.858,2.52,8.797c0.079,0.284,0.047,0.597,0.103,1.43c-1.492-1.15-2.672-2.016-3.803-2.942
				c-1.579-1.294-3.077-2.692-4.709-3.913c-0.412-0.31-1.309-0.347-1.794-0.115c-2.71,1.297-5.351,2.741-8.043,4.078
				c-0.628,0.313-1.362,0.409-2.048,0.605C124.836,355.1,124.759,354.992,124.681,354.882z"/>
		</g>
		<g>
			<path fill-rule="evenodd" clip-rule="evenodd" fill="#FCA7BE" d="M60.742,144.705c-5.128-1.133-6.271,7.162-6.918,10.51
				c-0.292,1.51-0.426,3.077-0.801,4.564c-0.008,0.032-5.623-2.156-6.075-2.34c-3.034-1.234-7.029-2.902-10.033-0.669
				c-1.247,0.926-2.267,2.534-2.493,4.123c-0.27,2.014,0.772,3.732,2.122,5.021c1.89,1.804,4.296,3.069,6.75,4.173
				c2.615,1.155,5.438,2.198,8.15,3.034c5.001,1.627,10.101,2.935,15.14,3.875c-0.049-0.009-0.259-9.747-0.289-10.64
				c-0.2-6.163,0.939-13.833-2.496-19.317C62.986,145.738,61.881,144.958,60.742,144.705z"/>
			<g>
				<path fill="#FCA7BE" d="M60.742,144.115c-5.452-0.589-6.593,6.158-7.35,10.212c-0.146,0.749-0.276,1.501-0.391,2.255
					c-0.128,0.769,0.216,2.648-0.413,2.414c-1.331-0.495-2.651-1.019-3.974-1.534c-2.702-1.052-6.094-3.01-9.085-2.322
					c-6.748,1.554-6.888,8.207-2.21,12.212c3.364,2.88,8.212,4.388,12.33,5.813c5.467,1.892,11.104,3.297,16.778,4.4
					c0.343,0.066,0.786-0.161,0.747-0.569c-0.468-4.951-0.356-10.13-0.286-15.102c0.08-5.72,0.559-15.249-5.99-17.758
					c-0.712-0.272-1.017,0.869-0.313,1.139c7.333,2.809,5.013,16.554,5.157,22.53c0.053,2.209,0.104,4.418,0.162,6.627
					c0.018,0.695,0.039,1.391,0.063,2.086c-0.004-0.107-3.286-0.928-4.279-1.151c-8.288-1.868-18.156-4.244-24.726-9.869
					c-7.186-6.152,3.142-9.658,7.039-8.552c1.229,0.349,2.406,0.913,3.595,1.38c1.746,0.685,3.488,1.435,5.271,2.023
					c0.291,0.096,0.664-0.108,0.726-0.413c0.825-4.018,1.109-15.292,7.15-14.64C61.498,145.377,61.491,144.196,60.742,144.115z"/>
			</g>
		</g>
		<g>
			<path fill-rule="evenodd" clip-rule="evenodd" fill="#FCA7BE" d="M326.159,216.28c0.773-4.2-6.002-4.89-8.741-5.317
				c-1.236-0.196-2.514-0.256-3.731-0.52c-0.026-0.006,1.588-4.633,1.725-5.006c0.916-2.502,2.155-5.798,0.253-8.174
				c-0.789-0.985-2.126-1.768-3.423-1.906c-1.646-0.162-3.011,0.736-4.021,1.87c-1.412,1.588-2.37,3.58-3.198,5.608
				c-0.861,2.158-1.627,4.482-2.228,6.713c-1.176,4.109-2.092,8.293-2.71,12.415c0.007-0.038,7.914-0.494,8.641-0.542
				c5.003-0.341,11.269,0.362,15.626-2.588C325.387,218.134,325.987,217.213,326.159,216.28z"/>
			<g>
				<path fill="#FCA7BE" d="M326.64,216.28c0.192-4.408-4.924-5.143-8.332-5.666c-1.308-0.2-4.492,0.931-3.919-0.775
					c0.374-1.115,0.767-2.225,1.154-3.335c0.703-2.015,2.018-4.544,1.567-6.749c-1.002-4.91-5.688-6.091-9.229-2.866
					c-2.419,2.202-3.498,6.169-4.533,9.149c-1.771,5.1-2.875,10.478-3.726,15.798c-0.044,0.274,0.123,0.646,0.463,0.608
					c4.267-0.481,8.661-0.595,12.951-0.684c4.51-0.094,11.822-0.192,13.586-5.352c0.201-0.588-0.727-0.838-0.926-0.256
					c-2.058,6.021-12.95,4.549-17.862,4.844c-1.572,0.094-3.145,0.186-4.717,0.282c-0.814,0.05-1.627,0.102-2.44,0.155
					c-0.623,0.042,0.353-2.215,0.473-2.887c1.255-6.982,2.994-15.29,7.411-20.98c6.119,0.813,8.404,2.957,6.856,6.434
					c-0.228,0.743-0.54,1.507-0.8,2.248c-0.474,1.35-0.979,2.697-1.394,4.066c-0.069,0.229,0.081,0.552,0.335,0.591
					c3.069,0.471,12.336,0.45,12.12,5.374C325.652,216.899,326.612,216.896,326.64,216.28z"/>
			</g>
		</g>
		<g>
			<g>
				<path fill="#222222" d="M208.538,219.786c-0.446,0-0.908-0.046-1.544-0.154c-0.95-0.162-1.85-0.56-2.301-0.782
					c-2.198-1.083-3.671-3.294-3.842-5.771c-0.039-0.547,0.001-1.113,0.116-1.686c0.036-0.431,0.101-0.976,0.255-1.529
					c0.374-1.36,0.864-2.154,1.583-3.064c0.694-0.874,1.973-1.689,3.042-1.942c0.735-0.174,1.373-0.258,1.951-0.258
					c0.595,0,1.138,0.091,1.614,0.271c1.183,0.442,1.7,0.636,2.802,1.557c0.518,0.432,0.91,0.947,1.257,1.402l0.117,0.154
					c0.587,0.76,1.079,1.747,1.381,2.774c0.218,0.743,0.66,2.635,0.102,4.22c-0.331,0.946-0.707,2.021-1.682,2.891
					c-0.778,0.698-1.716,1.464-2.956,1.692C209.716,219.692,209.16,219.786,208.538,219.786z"/>
				<path fill="#FFFEF8" d="M207.799,206.026c0.387,0,0.767,0.049,1.108,0.179c1.111,0.416,1.462,0.54,2.393,1.317
					c0.447,0.373,0.815,0.886,1.156,1.33c0.518,0.67,0.908,1.506,1.145,2.309c0.284,0.973,0.474,2.35,0.124,3.342
					c-0.297,0.849-0.587,1.677-1.285,2.3c-0.639,0.572-1.384,1.191-2.265,1.354c-0.699,0.129-1.148,0.202-1.637,0.202
					c-0.37,0-0.764-0.042-1.305-0.134c-0.642-0.109-1.356-0.383-1.909-0.655c-1.777-0.876-2.913-2.628-3.049-4.589
					c-0.033-0.476,0.012-0.938,0.108-1.383c0.036-0.458,0.092-0.913,0.214-1.352c0.296-1.075,0.653-1.708,1.328-2.562
					c0.483-0.608,1.489-1.259,2.25-1.438C206.669,206.129,207.24,206.026,207.799,206.026 M207.799,203.17
					c-0.69,0-1.436,0.097-2.28,0.297c-1.369,0.323-2.943,1.327-3.828,2.441c-0.816,1.032-1.408,1.989-1.846,3.58
					c-0.174,0.624-0.25,1.224-0.292,1.704c-0.129,0.671-0.171,1.339-0.126,1.987c0.206,2.98,1.982,5.643,4.635,6.951
					c0.521,0.257,1.565,0.717,2.692,0.908c0.72,0.123,1.253,0.175,1.784,0.175c0.743,0,1.362-0.104,2.155-0.25
					c1.737-0.319,2.982-1.436,3.651-2.034c1.245-1.111,1.725-2.482,2.075-3.483c0.694-1.971,0.177-4.214-0.078-5.086
					c-0.251-0.851-0.734-2.099-1.626-3.254l-0.108-0.142c-0.372-0.489-0.836-1.099-1.479-1.635c-1.232-1.03-1.897-1.304-3.167-1.779
					l-0.054-0.02C209.28,203.292,208.567,203.17,207.799,203.17L207.799,203.17z"/>
			</g>
			<g>
				<path fill="#222222" d="M46.018,341.535c-6.078,0-11.05-1.795-14.001-5.056c-2.457-2.715-3.482-6.309-3.044-10.68
					c1.173-11.737,7.289-23.161,13.995-34.805c4.819-8.37,10.247-16.508,15.497-24.377c2.248-3.371,4.574-6.856,6.817-10.31
					c1.465-2.259,2.915-4.575,4.18-6.616c-1.906-3.767-3.892-7.463-5.926-11.228c-4.284-7.931-8.014-15.129-10.289-22.922
					c-1.886-6.455-3.433-14.67,1.385-20.944c2.694-3.508,6.852-5.44,11.707-5.44c3.806,0,7.785,1.246,10.917,3.417
					c7.498,5.201,13.891,14.453,9.348,24.823c-0.893,2.039-2.594,3.208-4.665,3.208c-2.002,0-4.04-1.141-5.195-2.906
					c-1.104-1.689-1.262-3.741-0.435-5.63c0.877-2-0.021-4.075-0.929-5.464c-2.118-3.239-6.45-5.977-9.459-5.977
					c-1.471,0-2.308,0.651-2.633,2.05c-1.612,6.932,2.95,15.833,6.28,22.333l0.743,1.453c1.319,2.598,2.682,5.213,4.055,7.849
					c0.701,1.345,1.404,2.695,2.105,4.051c3.368-5.364,7.048-10.957,11.213-16.268c3.027-3.858,6.795-8.659,12.406-9.8
					c0.664-0.135,1.349-0.203,2.036-0.203c3.992,0,7.9,2.278,9.957,5.804c2.095,3.592,3.558,7.744,4.606,13.153
					c1.973-2.936,4.431-5.835,7.449-7.407c1.572-0.819,3.114-1.234,4.581-1.234c4.017,0,7.139,3.045,8.352,8.145
					c0.289,1.216,0.56,2.446,0.815,3.706c0.101-0.235,0.202-0.472,0.303-0.706c2.778-6.481,5.372-11.828,8.995-16.854
					c2.996-4.154,8.573-11.886,15.692-11.886c0.796,0,1.599,0.098,2.385,0.29c11.193,2.733,11.839,19.172,11.597,26.112
					c-0.236,6.771-0.824,13.641-1.392,20.283c-0.36,4.214-0.733,8.57-1.011,12.846c-0.074,1.146-0.168,2.354-0.266,3.607
					c-0.626,8.067-1.402,18.056,2.138,24.792c0.61-0.784,1.246-1.679,1.641-2.332c3.79-6.251,6.632-13.14,8.997-19.106
					c2.856-7.198,5.55-14.835,7.713-20.971c0.378-1.071,0.741-2.162,1.107-3.259c0.945-2.837,1.923-5.769,3.191-8.526
					c0.636-3.233,3.584-4.923,6.225-4.923c1.601,0,3.068,0.6,4.028,1.646c0.653,0.711,1.397,1.976,1.228,3.957l-0.006,0.072
					c0.098,0.729,0.043,1.473-0.164,2.219c-0.301,4.705-0.182,8.502,0.375,11.935c0.482,2.974,2.02,9.94,5.88,10.397
					c0.215,0.025,0.429,0.038,0.643,0.038c2.067,0,4.454-1.105,7.282-3.376c-4.511-24.1-4.07-47.179,1.283-66.792
					c3.709-13.595,15.533-39.307,33.729-39.307c4.553,0,9.189,1.641,13.778,4.876c17.19,12.114,11.458,35.645,6.511,48.592
					c-4.438,11.608-10.568,22.442-18.224,32.198c-7.545,9.618-16.196,17.528-24.46,24.793c0.501,2.122,1.036,4.196,1.596,6.178
					c2.148,7.63,7.618,15.783,16.527,15.783c2.111-0.001,4.338-0.463,6.618-1.374c5.155-2.061,10.155-5.486,14.874-10.19
					c-2.58-7.545-3.148-14.867-3.253-18.64c-0.32-11.452,1.414-20.11,5.303-26.47c3.02-4.938,9.277-10.251,15.877-10.251
					c3.289,0,6.215,1.28,8.697,3.807c9.438,9.608,4.536,23.405,0.028,32.947c-3.615,7.655-7.988,14.614-13.006,20.697
					c2.406,3.733,5.729,6.038,8.741,6.038c2.018,0,3.858-1.034,5.47-3.074c4.588-5.805,6.799-13.364,8.938-20.677l0.298-1.02
					c0.759-2.583,2.91-4.188,5.615-4.188c1.94,0,3.81,0.887,4.878,2.314c0.99,1.323,1.255,3.008,0.745,4.744l-0.324,1.109
					c-3.572,12.229-9.553,32.699-25.165,32.699c-0.001,0,0.001,0,0,0c-0.478,0-0.964-0.02-1.46-0.061
					c-6.421-0.526-11.779-3.646-15.949-9.276c-0.61,0.551-1.191,1.057-1.75,1.527c-4.947,4.158-14.854,11.133-25.623,11.133
					c-1.622,0-3.227-0.16-4.77-0.474c-10.707-2.182-19.089-11.07-22.422-23.776c-0.175-0.665-0.344-1.335-0.51-2.006
					c-2.96,1.602-6.84,3.15-10.778,3.15c-4.063,0-7.453-1.604-10.076-4.768c-1.674-2.019-3.081-4.269-4.208-6.72
					c-0.494,1.449-1.005,2.9-1.531,4.299c-2.917,7.765-5.61,14.749-9.02,21.585l-0.251,0.505
					c-2.329,4.678-5.227,10.499-9.958,13.647c-1.683,1.119-3.456,1.686-5.271,1.686c-3.698,0-7.245-2.478-9.256-6.469
					c-4.71-9.342-4.603-20.287-4.131-29.813c0.418-8.453,1.117-17.017,1.793-25.299c0.175-2.147,0.533-6.591,0.533-6.591
					c0.51-6.399,1.087-13.652-1.493-19.583c-0.322-0.74-0.529-1.123-0.658-1.322c-0.163,0.099-0.466,0.301-0.976,0.705
					c-4.989,3.969-8.54,10.863-10.777,15.704c-4.682,10.136-9.989,21.624-10.051,32.992c-0.02,3.755-3.07,5.781-5.929,5.781
					c-2.761,0-5.593-1.888-5.665-5.496c-0.185-9.33-0.497-18.443-2.276-27.355c0,0-0.31-1.57-0.37-1.873
					c-3.521,4.437-7.755,11.213-7.198,15.967c0.245,2.085-0.503,3.42-1.172,4.173c-0.97,1.091-2.465,1.716-4.102,1.716
					c-2.616,0-5.7-1.635-6.291-5.226c-0.486-2.948-0.843-5.962-1.189-8.876c-0.514-4.332-1.046-8.811-2.004-13.085
					c-0.057-0.256-0.123-0.583-0.199-0.961c-1.328-6.629-2.398-6.965-2.599-6.965c-0.1,0-0.38,0.105-0.8,0.498
					c-7.607,7.124-13.254,16.693-18.691,25.996c6.553,13.905,12.807,30.521,10.498,48.794c-2.752,21.783-19.72,38.662-42.224,42.003
					C49.16,341.415,47.572,341.535,46.018,341.535z M75.273,262.257c-2.549,3.981-5.21,7.924-7.796,11.758
					c-3.698,5.48-7.521,11.147-10.991,16.885c-3.054,5.053-6.974,11.773-10.206,18.946c-0.44,0.978-0.93,1.995-1.435,3.043
					c-1.961,4.073-4.185,8.69-4.286,12.821c-0.089,3.601,0.625,4.195,2.967,4.256c0.59,0.017,1.184,0.027,1.781,0.027
					c1.93,0,3.452-0.125,4.79-0.393c5.578-1.116,10.079-2.734,13.761-4.947c9.208-5.532,15.298-14.025,17.15-23.916
					C83.148,289.318,81.327,277.033,75.273,262.257z M294.345,231.536c-0.176,0-0.36,0.015-0.556,0.043
					c-8.051,1.192-8.71,18.277-8.759,20.222c-0.112,4.53,0.126,8.681,0.71,12.387c0.643-0.952,1.275-1.93,1.894-2.926
					c4.614-7.432,7.336-13.367,8.823-19.247c0.699-2.77,1.031-7.775-0.481-9.718C295.565,231.77,295.062,231.536,294.345,231.536z
					 M258.752,166.239c-2.265,0-4.283,0.706-5.999,2.098c-9.759,7.919-14.261,22.347-15.743,28.183
					c-2.99,11.759-3.614,23.634-3.823,32.666c-0.169,7.314,0.304,14.891,1.405,22.555c1.675-1.43,3.354-2.907,4.944-4.472
					c17.117-16.844,27.949-34.501,32.195-52.479c1.638-6.931,2.905-14.78-0.116-20.451
					C269.154,169.721,263.625,166.239,258.752,166.239z"/>
				<path fill="#FFFEF8" d="M259.478,155.847c4.042,0,8.373,1.385,12.956,4.615c15.345,10.814,11.827,31.662,5.999,46.915
					c-4.39,11.485-10.418,22.148-18.013,31.827c-7.408,9.443-15.978,17.318-24.922,25.165c0.549,2.382,1.149,4.742,1.807,7.074
					c2.651,9.415,8.995,16.822,17.901,16.822c2.229,0,4.617-0.464,7.148-1.476c6.052-2.418,11.373-6.412,15.987-11.146
					c-2.297-6.346-3.31-13.307-3.47-19.048c-0.237-8.486,0.549-18.252,5.094-25.685c3.036-4.963,8.886-9.569,14.659-9.568
					c2.671,0,5.327,0.986,7.679,3.38c8.676,8.832,4.392,21.524-0.244,31.336c-3.526,7.469-8.036,14.748-13.459,21.169
					c0.103,0.176,0.197,0.355,0.302,0.527c2.48,4.037,6.323,7.077,10.184,7.077c2.283,0,4.573-1.064,6.59-3.616
					c4.982-6.304,7.261-14.596,9.485-22.18c0.646-2.2,2.448-3.163,4.245-3.163c2.603,0,5.195,2.02,4.253,5.228
					c-3.341,11.384-9.1,32.783-24.119,32.783c-0.439,0-0.887-0.018-1.343-0.056c-7.097-0.582-12.225-4.553-15.833-10.01
					c-0.948,0.889-1.911,1.758-2.902,2.591c-6.674,5.609-15.639,10.798-24.704,10.798c-1.495,0-2.993-0.142-4.484-0.445
					c-11.346-2.311-18.522-12.051-21.326-22.739c-0.333-1.268-0.645-2.55-0.955-3.831c-3.606,2.209-7.769,3.91-11.714,3.91
					c-3.293,0-6.436-1.186-8.977-4.252c-2.543-3.067-4.268-6.448-5.408-10.018c-0.904,2.747-1.811,5.462-2.767,8.005
					c-2.722,7.243-5.504,14.519-8.961,21.45c-2.369,4.751-5.148,10.557-9.723,13.601c-1.503,1-3.023,1.447-4.48,1.447
					c-3.298,0-6.273-2.294-7.982-5.684c-4.477-8.878-4.461-19.381-3.98-29.1c0.524-10.583,1.472-21.137,2.312-31.697
					c0.531-6.67,1.148-14.11-1.595-20.415c-0.675-1.551-1.131-2.27-1.811-2.27c-0.497,0-1.112,0.383-2.02,1.104
					c-4.965,3.949-8.562,10.548-11.185,16.223c-4.783,10.354-10.119,21.98-10.183,33.583c-0.015,2.879-2.281,4.361-4.501,4.361
					c-2.111,0-4.182-1.341-4.237-4.097c-0.182-9.196-0.497-18.558-2.303-27.605c-0.313-1.567-0.609-3.165-0.985-4.736
					c-0.032,0.03-0.063,0.062-0.088,0.09c-3.928,4.406-10.032,13.053-9.313,19.186c0.337,2.878-1.671,4.295-3.856,4.295
					c-2.137,0-4.442-1.357-4.882-4.029c-1.204-7.31-1.588-14.811-3.208-22.042c-0.464-2.071-1.495-9.041-4.191-9.041
					c-0.526,0-1.115,0.266-1.775,0.884c-7.938,7.433-13.764,17.445-19.328,26.968c7.294,15.362,12.87,31.468,10.693,48.686
					c-2.738,21.674-19.643,37.597-41.017,40.77c-1.479,0.22-3,0.338-4.51,0.338c-8.482,0-16.668-3.729-15.625-14.166
					c1.196-11.964,7.906-23.978,13.812-34.233c6.856-11.91,14.795-23.109,22.274-34.622c1.572-2.423,3.1-4.87,4.618-7.322
					c-2.072-4.125-4.226-8.128-6.306-11.978c-3.904-7.227-7.863-14.726-10.174-22.643c-1.851-6.334-3.192-14.023,1.147-19.674
					c2.612-3.4,6.54-4.882,10.575-4.882c3.562,0,7.207,1.155,10.103,3.163c7.627,5.291,12.89,13.865,8.854,23.077
					c-0.729,1.663-2.019,2.354-3.358,2.354c-2.815,0-5.847-3.055-4.322-6.535c2.623-5.987-6.147-13.441-11.696-13.441
					c-1.951,0-3.504,0.923-4.023,3.154c-1.857,7.987,3.66,17.9,7.141,24.756c2.363,4.652,4.865,9.363,7.315,14.139
					c3.889-6.263,7.887-12.448,12.455-18.272c2.999-3.821,6.544-8.261,11.567-9.281c0.582-0.118,1.168-0.175,1.752-0.175
					c3.51,0,6.943,2.044,8.723,5.096c2.857,4.899,4.209,10.572,5.06,16.393c2.259-3.876,5.132-8.143,8.889-10.1
					c1.414-0.737,2.728-1.073,3.921-1.073c3.501,0,5.975,2.893,6.963,7.047c0.66,2.775,1.206,5.565,1.665,8.367
					c0.703-1.726,1.425-3.439,2.153-5.134c2.488-5.803,5.131-11.436,8.841-16.582c3.207-4.446,8.308-11.293,14.534-11.293
					c0.669,0,1.352,0.079,2.046,0.249c9.696,2.368,10.786,16.719,10.509,24.676c-0.384,11.028-1.685,22.066-2.401,33.086
					c-0.579,8.934-2.345,21.598,2.365,29.758c0.219,0.382,0.436,0.811,0.691,1.212c0.805-0.796,2.336-2.8,3.104-4.07
					c3.689-6.085,6.484-12.716,9.103-19.319c2.755-6.941,5.249-13.98,7.732-21.022c1.374-3.903,2.564-8.048,4.323-11.826
					c0.424-2.591,2.724-3.929,4.853-3.929c2.117,0.001,4.066,1.323,3.833,4.053c-0.008,0.082-0.013,0.164-0.02,0.246
					c0.104,0.601,0.065,1.247-0.142,1.917c-0.272,4.132-0.281,8.335,0.38,12.413c0.615,3.795,2.367,11.023,7.121,11.587
					c0.27,0.032,0.54,0.048,0.811,0.048c3.166,0,6.33-2.118,8.842-4.239c-4.221-22.015-4.76-45.507,1.101-66.98
					C231.194,179.196,242.888,155.846,259.478,155.847 M233.565,254.48c2.375-2.003,4.748-4.008,6.972-6.193
					c14.842-14.605,27.728-32.607,32.584-53.169c1.548-6.55,3.108-15.154-0.246-21.451c-2.613-4.905-8.466-8.856-14.123-8.856
					c-2.426,0-4.816,0.727-6.898,2.416c-8.393,6.811-13.634,18.731-16.228,28.94c-2.747,10.803-3.609,21.871-3.867,32.984
					C231.565,237.542,232.211,246.081,233.565,254.48 M284.977,267.76c1.38-1.887,2.67-3.815,3.869-5.746
					c3.795-6.111,7.22-12.635,8.994-19.649c0.76-3.006,1.807-12.258-3.496-12.257c-0.242,0-0.496,0.019-0.765,0.059
					c-8.186,1.212-9.821,15.393-9.977,21.598C283.475,256.893,283.757,262.487,284.977,267.76 M45.308,331.421
					c1.701,0,3.417-0.089,5.07-0.42c4.953-0.991,9.862-2.507,14.216-5.124c9.172-5.511,15.826-14.238,17.818-24.877
					c2.692-14.363-1.145-28.573-6.883-41.813c-6.544,10.456-13.878,20.414-20.264,30.975c-3.739,6.187-7.314,12.502-10.286,19.099
					c-2.216,4.916-5.711,10.891-5.846,16.415c-0.085,3.455,0.518,5.619,4.357,5.719C44.091,331.41,44.699,331.421,45.308,331.421
					 M176.618,295.888c-0.03-0.048-0.029-0.076-0.009-0.091c-0.023,0-0.044,0-0.083-0.005
					C176.555,295.826,176.585,295.857,176.618,295.888 M259.479,152.991v2.855V152.991c-8.284,0-16.305,5.094-23.196,14.732
					c-4.98,6.967-9.434,16.547-11.911,25.626c-5.346,19.587-5.848,42.572-1.468,66.573c-2.244,1.688-4.164,2.542-5.72,2.542
					c-0.16,0-0.319-0.01-0.473-0.027c-1.95-0.231-3.77-3.846-4.641-9.209c-0.533-3.291-0.65-6.944-0.368-11.476
					c0.212-0.829,0.273-1.661,0.183-2.482c0.179-2.464-0.77-4.054-1.605-4.963c-1.229-1.339-3.081-2.106-5.08-2.106
					c-3.185-0.001-6.738,2.024-7.59,5.901c-1.268,2.784-2.24,5.7-3.181,8.523c-0.363,1.089-0.724,2.172-1.099,3.236
					c-2.746,7.788-5.057,14.274-7.693,20.917c-2.345,5.914-5.158,12.737-8.89,18.893c-0.037,0.061-0.077,0.125-0.118,0.19
					c-2.223-6.28-1.563-14.783-1.018-21.799c0.098-1.259,0.192-2.473,0.267-3.626c0.276-4.26,0.648-8.609,1.008-12.815
					c0.57-6.66,1.159-13.548,1.396-20.355c0.141-4.025-0.029-9.956-1.631-15.347c-2.517-8.469-7.4-11.311-11.054-12.202
					c-0.896-0.22-1.813-0.331-2.724-0.331c-7.85,0-13.705,8.117-16.85,12.479c-3.166,4.391-5.599,9.157-7.702,13.824
					c-1.456-5.387-5.1-8.708-9.605-8.708c-1.699,0-3.462,0.47-5.241,1.396c-2.366,1.232-4.357,3.124-6.075,5.264
					c-1.013-4.099-2.336-7.461-4.087-10.463c-2.308-3.956-6.7-6.513-11.19-6.513c-0.782,0-1.563,0.078-2.32,0.232
					c-6.126,1.244-10.241,6.487-13.245,10.316c-3.661,4.667-6.944,9.54-9.968,14.285c-0.321-0.617-0.642-1.233-0.962-1.848
					c-1.344-2.579-2.733-5.246-4.047-7.834c-0.24-0.472-0.489-0.959-0.745-1.458c-3.23-6.304-7.654-14.936-6.16-21.358
					c0.165-0.709,0.368-0.945,1.242-0.945c2.261,0,6.211,2.189,8.265,5.33c0.715,1.094,1.437,2.694,0.816,4.11
					c-1.024,2.338-0.825,4.884,0.548,6.982c1.411,2.159,3.919,3.554,6.39,3.554c2.625,0,4.858-1.519,5.973-4.063
					c4.092-9.34,0.321-19.52-9.842-26.569c-3.414-2.368-7.58-3.672-11.73-3.672c-5.309,0-9.869,2.13-12.84,5.998
					c-2.523,3.286-5.437,9.164-1.623,22.214c2.313,7.927,6.08,15.197,10.403,23.2c1.9,3.517,3.758,6.974,5.546,10.479
					c-1.183,1.904-2.437,3.9-3.741,5.909c-2.238,3.445-4.561,6.928-6.807,10.295c-5.262,7.889-10.704,16.046-15.546,24.457
					c-6.786,11.783-12.977,23.355-14.178,35.374c-0.479,4.79,0.667,8.753,3.407,11.78c3.225,3.563,8.573,5.525,15.06,5.525
					c1.623,0,3.282-0.124,4.93-0.369c23.143-3.435,40.596-20.81,43.43-43.236c2.317-18.334-3.781-34.947-10.303-48.9
					c5.166-8.832,10.558-17.847,17.629-24.622c0.377,0.822,0.865,2.386,1.449,5.301c0.078,0.391,0.146,0.729,0.206,0.992
					c0.941,4.203,1.469,8.646,1.979,12.941c0.348,2.931,0.707,5.96,1.198,8.94c0.693,4.215,4.398,6.421,7.699,6.421
					c2.044,0,3.928-0.8,5.169-2.194c1.221-1.373,1.762-3.251,1.523-5.288c-0.377-3.221,1.957-8.041,4.993-12.377
					c1.542,8.396,1.831,17.014,2.005,25.832c0.08,3.996,3.063,6.896,7.092,6.896c3.548,0,7.332-2.523,7.357-7.201
					c0.061-11.059,5.299-22.397,9.92-32.401c2.108-4.562,5.405-10.99,9.929-14.823c2.295,5.555,1.743,12.482,1.255,18.607
					l-0.012,0.149c-0.171,2.146-0.346,4.291-0.521,6.437c-0.677,8.294-1.377,16.869-1.797,25.346
					c-0.48,9.709-0.585,20.874,4.283,30.526c2.256,4.475,6.291,7.254,10.531,7.254c2.102,0,4.141-0.647,6.062-1.926
					c5.049-3.358,8.041-9.369,10.445-14.199l0.251-0.504c3.439-6.896,6.146-13.917,9.078-21.721
					c0.152-0.405,0.304-0.814,0.453-1.227c0.848,1.435,1.799,2.789,2.851,4.058c2.865,3.457,6.729,5.285,11.175,5.285
					c3.525,0,6.974-1.139,9.832-2.497c0.025,0.097,0.05,0.192,0.075,0.288c3.474,13.243,12.266,22.52,23.518,24.811
					c1.637,0.334,3.337,0.503,5.055,0.503c11.222,0,21.446-7.185,26.541-11.468c0.213-0.178,0.428-0.361,0.646-0.55
					c4.267,5.149,9.749,8.115,16.02,8.629c0.527,0.044,1.059,0.065,1.576,0.065c16.685,0,23.093-21.94,26.535-33.728l0.324-1.107
					c0.64-2.178,0.294-4.31-0.973-6.001c-1.352-1.808-3.603-2.887-6.02-2.887c-3.313,0-6.055,2.047-6.985,5.214l-0.299,1.021
					c-2.1,7.181-4.271,14.605-8.687,20.192c-1.327,1.68-2.791,2.531-4.35,2.531c-2.271,0-4.904-1.745-6.958-4.538
					c4.809-5.974,9.013-12.746,12.514-20.161c4.69-9.927,9.763-24.311-0.301-34.556c-2.722-2.771-6.081-4.234-9.716-4.234
					c-7.188-0.001-13.766,5.491-17.095,10.934c-4.038,6.602-5.841,15.518-5.513,27.255c0.104,3.712,0.646,10.789,3.045,18.204
					c-4.395,4.251-9.02,7.361-13.768,9.259c-2.111,0.844-4.16,1.272-6.089,1.272c-8.111,0-13.146-7.615-15.152-14.742
					c-0.481-1.703-0.944-3.475-1.383-5.287c8.118-7.153,16.572-14.953,23.996-24.415c7.743-9.869,13.945-20.828,18.433-32.57
					c8.798-23.026,6.305-40.878-7.021-50.269C269.244,154.719,264.331,152.991,259.479,152.991L259.479,152.991z M235.654,248.927
					c-0.839-6.695-1.188-13.304-1.041-19.71c0.208-8.956,0.825-20.726,3.78-32.346c1.447-5.698,5.832-19.775,15.26-27.426
					c1.454-1.18,3.17-1.778,5.099-1.778c4.384,0,9.372,3.157,11.603,7.343c2.798,5.252,1.564,12.78-0.014,19.451
					c-4.183,17.712-14.885,35.137-31.808,51.79C237.601,247.167,236.635,248.058,235.654,248.927L235.654,248.927z M286.682,260.084
					c-0.222-2.573-0.298-5.329-0.225-8.249c0.215-8.57,2.666-18.123,7.54-18.845c0.127-0.019,0.243-0.027,0.347-0.027
					c0.34,0,0.405,0.083,0.504,0.21c1.008,1.294,0.947,5.627,0.224,8.492C293.651,247.284,291.057,252.981,286.682,260.084
					L286.682,260.084z M45.308,328.566c-0.584,0-1.166-0.011-1.742-0.026c-1.428-0.037-1.646-0.043-1.579-2.794
					c0.094-3.824,2.246-8.294,4.145-12.237c0.514-1.067,1-2.075,1.45-3.074c3.2-7.104,7.093-13.776,10.126-18.796
					c3.451-5.707,7.264-11.358,10.952-16.824c2.086-3.092,4.22-6.255,6.308-9.455c5.128,13.377,6.6,24.64,4.637,35.115
					c-1.775,9.484-7.629,17.637-16.482,22.956c-3.539,2.127-7.891,3.688-13.305,4.771C48.575,328.451,47.142,328.566,45.308,328.566
					L45.308,328.566z"/>
			</g>
		</g>
		<g>
			<g>
				<path fill-rule="evenodd" clip-rule="evenodd" fill="#222222" d="M151.015,144.423c0.02-1.807,0.023-3.61-0.056-5.417
					c-0.303-6.725-0.963-13.442-1.245-20.343c-0.036-0.87,0.102-1.748,0.175-2.729c1.196-0.039,2.378-0.069,3.558-0.078
					c2.022-0.014,4.077-0.104,5.876,0.944c0.34,0.198,0.734,0.511,0.826,0.833c0.41,1.431,0.642,2.89,1.069,4.296
					c0.66,2.178,1.398,4.319,2.078,6.447c0.543,1.698,1.09,3.38,1.6,5.037c0.029-0.053,0.136-0.168,0.159-0.3
					c0.856-5.128,1.737-10.395,2.784-15.927c0.05-0.265,0.336-0.603,0.603-0.7c2.984-1.089,6.087-0.789,9.128-0.192
					c0.52,0.102,0.587,0.41,0.575,0.852c-0.078,2.683-0.165,5.309-0.163,7.887c0.002,2.146,0.127,4.257,0.174,6.346
					c0.049,2.088,0.06,4.153,0.118,6.201c0.101,3.607,0.282,7.161,0.358,10.712c0.023,1.076-0.304,2.162-0.464,3.227
					c-1.74-0.062-3.365-0.12-5.057-0.182c-0.42-7.848-0.899-15.617-1.497-23.809c-0.045-0.004-0.089-0.007-0.134-0.011
					c-0.601,2.59-1.181,5.131-1.729,7.647c-0.765,3.502-1.467,6.953-2.242,10.376c-0.33,1.454-0.778,2.878-1.165,4.319
					c-0.148,0.55-0.46,0.73-1.004,0.579c-0.179-0.05-0.381-0.071-0.562-0.045c-1.548,0.235-2.465-0.698-3.073-1.876
					c-0.363-0.702-0.371-1.61-0.452-2.432c-0.611-6.147-2.163-12.242-4.805-18.244c-0.136-0.306-0.25-0.62-0.501-0.936
					c0.005,0.22-0.001,0.44,0.016,0.659c0.49,6.279,0.944,12.409,1.016,18.542c0.008,0.723,0.088,1.452,0.163,2.174
					c0.052,0.512-0.189,0.726-0.611,0.972c-1.427,0.83-2.954,0.526-4.477,0.483c-0.299-1.432-0.627-2.812-0.988-4.19
					C151.049,145.173,151.033,144.797,151.015,144.423z M155.661,123.046c0.445,0.241,0.657,0.291,0.701,0.392
					c3.612,8.439,5.54,16.956,6.653,25.447c0.766-0.094,1.438-0.134,2.087-0.277c0.241-0.053,0.561-0.317,0.614-0.542
					c0.755-3.148,1.428-6.313,2.126-9.512c1.077-4.942,2.183-9.977,3.45-15.213c0.078-0.324,0.36-0.603,0.547-0.905
					c0.11,0.022,0.217,0.045,0.326,0.067c0.25,0.88,0.631,1.744,0.712,2.628c0.277,3.052,0.587,6.049,0.59,8.999
					c0.014,4.822,0.577,9.486,0.891,14.154c0.053,0.788,0.313,1.198,1.153,1.274c0.659,0.059,1.301,0.295,2.146,0.499
					c-0.5-10.524-0.795-20.952-1.269-32.758c-2.08,0.135-4.008,0.329-5.94,0.435c-0.922,0.051-1.188,0.473-1.327,1.231
					c-0.409,2.221-0.859,4.391-1.288,6.527c-0.15,0.747-0.382,1.477-0.516,2.22c-0.643,3.56-1.221,7.04-1.837,10.471
					c-0.037,0.198-0.301,0.35-0.46,0.523c-0.18-0.205-0.46-0.389-0.523-0.619c-0.144-0.528-0.137-1.087-0.275-1.619
					c-1.472-5.677-3.215-11.458-5.132-17.347c-0.1-0.309-0.445-0.602-0.755-0.805c-2.197-1.425-4.723-0.854-7.183-0.955
					c-0.016,0.242-0.042,0.404-0.035,0.566c0.164,4.019,0.424,7.962,0.677,11.872c0.245,3.855,0.425,7.676,0.607,11.503
					c0.112,2.366,0.373,4.745,0.443,7.134c1.118,0.04,2.051,0.073,3.013,0.107c0.002-0.318,0.008-0.583,0.002-0.848
					c-0.055-2.07-0.251-4.143-0.307-6.209c-0.127-4.811-0.413-9.633-0.573-14.547C154.94,125.698,155.393,124.464,155.661,123.046z"
					/>
				<g>
					<path fill="#222222" d="M189.266,150.756c-0.614,0-1.204-0.051-1.752-0.119c-1.008-0.125-2.03-0.678-3.21-1.741
						c-2.036-1.835-2.554-4.456-2.861-6.782c-0.213-1.613-0.292-3.25-0.371-4.994c-0.036-0.792-0.071-1.608-0.12-2.459
						c-0.001-0.014-0.002-0.027-0.002-0.041c0.001-0.014,0.002-0.027,0.002-0.041c0.043-0.742,0.078-1.516,0.114-2.311
						c0.092-1.999,0.194-4.088,0.481-6.217c0.286-2.114,0.878-4.249,1.734-6.154c1.325-2.952,3.526-4.563,6.279-4.531
						c1.703,0.014,3.433,0.059,5.119,0.814c1.54,0.687,2.754,1.859,3.682,3.532c1.377,2.466,1.241,5.249-0.243,8.459
						c-0.691,1.509-1.871,2.981-3.447,4.394c-2.103,1.884-4.12,2.915-6.291,3.123c-0.327,0.088-1.189,1.151-1.204,1.703
						c-0.01,0.353-0.012,0.706-0.015,1.059c-0.004,0.751-0.006,1.527-0.076,2.3c-0.102,1.141,0.131,2.143,0.697,3.062
						c0.056,0.093,0.303,0.211,0.407,0.261c0.801,0.391,1.414,0.113,2.579-1.13c0.012-0.014,0.075-0.088,0.167-0.326
						c0.084-0.217,0.151-0.438,0.22-0.66c0.036-0.113,0.071-0.225,0.107-0.338c0.908-2.742,2.935-2.88,4.032-2.718
						c0.226,0.034,0.451,0.071,0.676,0.108c0.297,0.049,0.594,0.099,0.895,0.137c0.442,0.056,0.672,0.264,0.787,0.428
						c0.245,0.354,0.174,0.783,0.101,1.074c-0.549,2.154-1.302,4.948-2.683,7.433c-0.173,0.31-0.368,0.566-0.579,0.759
						C192.81,150.364,190.958,150.756,189.266,150.756z M182.472,134.576c0.041,0.842,0.069,1.652,0.099,2.437
						c0.063,1.714,0.13,3.323,0.326,4.879c0.261,2.079,0.701,4.414,2.382,5.935c0.936,0.848,1.731,1.301,2.425,1.388
						c1.866,0.232,3.99,0.241,5.839-1.419c0.085-0.076,0.181-0.207,0.27-0.367c1.264-2.251,1.931-4.747,2.46-6.899
						c-0.237-0.034-0.469-0.072-0.702-0.11c-0.213-0.035-0.427-0.071-0.642-0.102c-0.792-0.114-1.697-0.011-2.261,1.655
						c-0.034,0.105-0.068,0.21-0.101,0.315c-0.08,0.257-0.161,0.514-0.258,0.761c-0.14,0.363-0.296,0.628-0.489,0.833
						c-0.76,0.802-2.28,2.477-4.312,1.487c-0.343-0.165-0.734-0.376-0.979-0.774c-0.728-1.172-1.036-2.446-0.917-3.895
						c0.06-0.71,0.056-1.42,0.055-2.174c-0.001-0.363-0.001-0.726,0.007-1.089c0.018-1.186,1.421-3.079,2.655-3.194
						c1.816-0.169,3.466-1.019,5.284-2.657c1.386-1.249,2.406-2.534,2.984-3.836c1.291-2.883,1.407-5.256,0.224-7.381
						c-0.764-1.379-1.722-2.317-2.911-2.835c-1.34-0.584-2.795-0.61-4.336-0.614c-2.071-0.01-3.677,1.208-4.761,3.554
						c-0.816,1.765-1.389,3.753-1.678,5.73c-0.299,2.063-0.42,4.118-0.529,6.086C182.561,133.074,182.52,133.84,182.472,134.576z"/>
				</g>
				<g>
					<path fill="#222222" d="M186.794,130.124c-0.068-0.001-0.124-0.009-0.171-0.022c-0.396-0.113-0.633-0.463-0.577-0.852
						c0-0.003,0-0.005,0.001-0.008c0.077-0.492,0.16-0.982,0.244-1.471c0.199-1.164,0.392-2.269,0.515-3.4
						c0.137-1.271,0.977-2.932,2.342-3.6c0.849-0.419,1.772-0.403,2.647,0.033c1.044,0.521,1.774,1.422,2.052,2.527
						c0.332,1.313,0.01,2.778-0.819,3.949C192.258,128.317,187.968,130.136,186.794,130.124z M190.422,121.981
						c-0.179-0.008-0.351,0.031-0.525,0.115c-0.781,0.383-1.367,1.53-1.466,2.364c-0.14,1.172-0.359,2.346-0.564,3.475
						c-0.031,0.175-0.063,0.35-0.095,0.525c1.263-0.448,3.527-1.481,3.905-1.916c0.566-0.813,0.787-1.89,0.548-2.813
						c-0.13-0.506-0.459-1.198-1.283-1.604C190.76,122.038,190.588,121.989,190.422,121.981z"/>
				</g>
			</g>
		</g>
		<g>
			<g>
				<path fill="#FCA7BE" d="M297.97,163.668c3.14-5.424,4.412-12.931,4.781-19.137c0.314-5.28,2.087-13.024,7.082-15.744
					c-0.961-0.124-1.923-0.248-2.884-0.372c3.295,3.356,0.774,11.842-0.313,15.792c-0.608,2.211,2.36,4.15,3.978,2.315
					c2.748-3.118,5.702-5.93,9.156-8.264c1.85-1.25,3.872-2.087,6.023-2.656c4.711-1.248-0.259,4.502-0.837,4.947
					c-8.582,6.611-17.617,12.709-26.403,19.048c-2.464,1.778-0.092,5.909,2.402,4.109c7.766-5.603,15.531-11.206,23.297-16.808
					c3.923-2.83,8.352-5.789,8.509-11.138c0.151-5.113-6.16-5.297-9.573-4.394c-6.313,1.671-11.762,7.05-15.938,11.789
					c1.326,0.772,2.651,1.543,3.978,2.315c1.623-5.896,3.948-15.474-0.911-20.422c-0.765-0.779-1.947-0.882-2.884-0.372
					c-12.593,6.857-7.451,26.018-13.57,36.587C292.32,163.927,296.432,166.322,297.97,163.668L297.97,163.668z"/>
			</g>
		</g>
		<g>
			<g>
				<path fill="#FCA7BE" d="M46.179,255.999c-1.237-8.473-2.662-16.857-5.515-24.958c-1.732-4.918-4.276-10.166-9.361-12.281
					c-4.341-1.806-6.269,4.251-6.245,7.282c0.031,3.934,1.488,8.072,2.951,11.683c1.165-0.895,2.33-1.792,3.496-2.688
					c-5.021-3.399-19.803-9.175-18.498,2.447c0.536,4.769,4.632,9.682,8.866,11.641c3.641,1.684,7.065,3.919,10.537,5.922
					c1.693,0.978,5.793,1.993,6.939,3.164c2.15,2.195,5.513-1.172,3.365-3.365c-0.833-0.851-1.614-1.549-2.847-1.656
					c-2.228-0.193-4.17-1.74-6.057-2.83c-4.027-2.324-9.57-4.325-12.777-7.626c-1.599-1.646-3.119-3.947-3.381-6.273
					c-0.285-2.539,3.784-1.075,4.943-0.706c2.293,0.73,4.52,2.046,6.508,3.393c1.637,1.108,4.281-0.75,3.496-2.688
					c-0.765-1.886-1.383-3.825-1.934-5.784c-0.428-1.521-0.72-3.059-0.847-4.633c-0.292-3.616,2.204-1.235,3.412,0.35
					c2.926,3.837,4.115,9.411,5.305,14.018c1.427,5.527,2.233,11.213,3.057,16.855C42.032,260.292,46.617,259,46.179,255.999
					L46.179,255.999z"/>
			</g>
		</g>
	</g>
</g>
<g id="DESIGNED_BY_FREEPIK">
</g>
</svg>
