<svg xmlns="http://www.w3.org/2000/svg" viewBox="0 0 64 64"><linearGradient id="a" gradientUnits="userSpaceOnUse" x1="45.778" y1="12.432" x2="45.778" y2="25.11" spreadMethod="reflect"><stop offset="0" stop-color="#6dc7ff"/><stop offset="1" stop-color="#e6abff"/></linearGradient><path d="M39.007 23.822l.802-6.901a1.041 1.041 0 0 1 1.77-.616l2.35 2.35 7.213-7.213 1.414 1.414-7.213 7.213 2.35 2.35a1.041 1.041 0 0 1-.616 1.77l-6.901.802a1.053 1.053 0 0 1-1.169-1.169z" fill="url(#a)"/><linearGradient id="b" gradientUnits="userSpaceOnUse" x1="18.222" y1="39.988" x2="18.222" y2="52.667" spreadMethod="reflect"><stop offset="0" stop-color="#6dc7ff"/><stop offset="1" stop-color="#e6abff"/></linearGradient><path d="M23.822 39.007l-6.901.803a1.04 1.04 0 0 0-.616 1.769l2.35 2.35-7.213 7.213 1.414 1.414 7.213-7.213 2.35 2.35a1.041 1.041 0 0 0 1.77-.616l.802-6.901a1.053 1.053 0 0 0-1.169-1.169z" fill="url(#b)"/><linearGradient id="c" gradientUnits="userSpaceOnUse" x1="36" y1="11.166" x2="36" y2="48.028" spreadMethod="reflect"><stop offset="0" stop-color="#6dc7ff"/><stop offset="1" stop-color="#e6abff"/></linearGradient><polygon points="17.707,8.293 16.293,9.707 54.293,47.707 55.707,46.293" fill="url(#c)"/><linearGradient id="d" gradientUnits="userSpaceOnUse" x1="28" y1="19.166" x2="28" y2="56.028" spreadMethod="reflect"><stop offset="0" stop-color="#6dc7ff"/><stop offset="1" stop-color="#e6abff"/></linearGradient><polygon points="8.293,17.707 46.293,55.707 47.707,54.293 9.707,16.293" fill="url(#d)"/><linearGradient id="e" gradientUnits="userSpaceOnUse" x1="32" y1="6.029" x2="32" y2="58.8" spreadMethod="reflect"><stop offset="0" stop-color="#1a6dff"/><stop offset="1" stop-color="#c822ff"/></linearGradient><path d="M58 13.243c0-.801-.312-1.555-.879-2.122l-4.242-4.242c-1.133-1.134-3.11-1.134-4.243 0l-4.884 4.884-1.556-1.557a3.966 3.966 0 0 0-4.157-.944 3.97 3.97 0 0 0-2.648 3.339L34.026 25.11a4.392 4.392 0 0 0 1.266 3.598 4.392 4.392 0 0 0 3.598 1.266l12.509-1.365a3.968 3.968 0 0 0 3.339-2.648 3.97 3.97 0 0 0-.944-4.157l-1.557-1.556 4.884-4.883A2.984 2.984 0 0 0 58 13.243zm-2.293.707l-6.298 6.298 2.971 2.97a1.96 1.96 0 0 1 .472 2.079 1.961 1.961 0 0 1-1.669 1.324l-12.509 1.365a2.395 2.395 0 0 1-1.966-.692 2.396 2.396 0 0 1-.692-1.966l1.365-12.509a1.96 1.96 0 0 1 1.324-1.669 1.963 1.963 0 0 1 2.079.472l2.97 2.971 6.298-6.298a1.023 1.023 0 0 1 1.414 0l4.242 4.242c.188.187.292.439.292.706s-.104.518-.293.707zM25.11 34.026l-12.509 1.365a3.968 3.968 0 0 0-3.339 2.648 3.97 3.97 0 0 0 .944 4.157l1.557 1.556-4.884 4.883C6.312 49.203 6 49.956 6 50.757s.312 1.555.879 2.122l4.242 4.242c.566.567 1.32.879 2.122.879s1.555-.312 2.121-.879l4.884-4.884 1.556 1.557a3.971 3.971 0 0 0 4.157.944 3.97 3.97 0 0 0 2.648-3.339l1.365-12.509a4.392 4.392 0 0 0-1.266-3.598 4.4 4.4 0 0 0-3.598-1.266zm1.51 17.157a1.96 1.96 0 0 1-1.324 1.669 1.958 1.958 0 0 1-2.079-.472l-2.97-2.971-6.298 6.298a1.023 1.023 0 0 1-1.414 0l-4.242-4.242c-.189-.189-.293-.441-.293-.708s.104-.518.293-.707l6.298-6.298-2.971-2.97a1.96 1.96 0 0 1-.472-2.079 1.961 1.961 0 0 1 1.669-1.324l12.509-1.365a2.397 2.397 0 0 1 1.966.692c.52.519.772 1.236.692 1.966L26.62 51.183z" fill="url(#e)"/></svg>