<svg xmlns="http://www.w3.org/2000/svg" viewBox="0 0 40 40"><polygon points="23.5,16.5 23.5,6.207 27.194,9.901 35.388,1.707 38.293,4.612 30.099,12.806 33.793,16.5" fill="#8bb7f0"/><path d="M35.388 2.414l2.198 2.198-7.487 7.487-.707.707.707.707L32.586 16H24V7.414l2.487 2.487.707.707.707-.707 7.487-7.487m0-1.414l-8.194 8.194L23 5v12h12l-4.194-4.194L39 4.612 35.388 1z" fill="#4e7ab5"/><polygon points="1.707,35.388 9.901,27.194 6.207,23.5 16.5,23.5 16.5,33.793 12.806,30.099 4.612,38.293" fill="#8bb7f0"/><path d="M16 24v8.586l-2.487-2.487-.707-.707-.707.707-7.487 7.487-2.198-2.198 7.487-7.487.707-.707-.707-.707L7.414 24H16m1-1H5l4.194 4.194L1 35.388 4.612 39l8.194-8.194L17 35V23z" fill="#4e7ab5"/></svg>