<svg xmlns="http://www.w3.org/2000/svg" viewBox="0 0 50 50"><path d="M25 .094l-.719.687-8.5 8.5a1.014 1.014 0 0 0 0 1.438c.399.398 1.04.398 1.438 0L24 3.938V24H3.937l6.782-6.781a.996.996 0 0 0 .215-1.172.996.996 0 0 0-1.059-.547 1.008 1.008 0 0 0-.594.281l-8.5 8.5L.094 25l.687.719 8.5 8.5c.399.398 1.04.398 1.438 0a1.014 1.014 0 0 0 0-1.438L3.938 26H24v20.063l-6.781-6.782A1.007 1.007 0 0 0 16.28 39a.994.994 0 0 0-.781.703c-.105.367.004.758.281 1.016l8.5 8.5.719.687.719-.687 8.5-8.5a1.014 1.014 0 0 0 0-1.438 1.014 1.014 0 0 0-1.438 0L26 46.063V26h20.063l-6.782 6.781a1.014 1.014 0 0 0 0 1.438c.399.398 1.04.398 1.438 0l8.5-8.5.687-.719-.687-.719-8.5-8.5a1.004 1.004 0 0 0-.813-.312c-.043.008-.086.02-.125.031a.994.994 0 0 0-.781.703c-.105.367.004.758.281 1.016L46.063 24H26V3.937l6.781 6.782c.399.398 1.04.398 1.438 0a1.014 1.014 0 0 0 0-1.438l-8.5-8.5z"/></svg>