<svg xmlns="http://www.w3.org/2000/svg" viewBox="0 0 40 40"><polygon points="2.5,37.5 2.5,26.745 6.223,30.469 30.625,6.379 26.746,2.5 37.5,2.5 37.5,13.255 33.777,9.531 9.375,33.621 13.254,37.5" fill="#8bb7f0"/><path d="M37 3v9.047l-2.519-2.518-.703-.703-.707.698L9.382 32.911l-.716.707.712.712 2.67 2.67H3v-9.047l2.519 2.518.703.703.707-.698 23.69-23.387.716-.707-.712-.712L27.953 3H37m1-1H25.538l4.377 4.377L6.226 29.764 2 25.538V38h12.462l-4.377-4.377 23.69-23.387L38 14.462V2z" fill="#4e7ab5"/></svg>