<svg xmlns="http://www.w3.org/2000/svg" viewBox="0 0 40 40"><path d="M14.207 33.5H17.5v-11h-11v3.293L.707 20 6.5 14.207V17.5h11v-11h-3.293L20 .707 25.793 6.5H22.5v11h11v-3.293L39.293 20 33.5 25.793V22.5h-11v11h3.293L20 39.293z" fill="#dff0fe"/><path d="M20 1.414L24.586 6H22v12h12v-2.586L38.586 20 34 24.586V22H22v12h2.586L20 38.586 15.414 34H18V22H6v2.586L1.414 20 6 15.414V18h12V6h-2.586L20 1.414M20 0l-7 7h4v10H7v-4l-7 7 7 7v-4h10v10h-4l7 7 7-7h-4V23h10v4l7-7-7-7v4H23V7h4z" fill="#4788c7"/></svg>