<svg xmlns="http://www.w3.org/2000/svg" viewBox="0 0 64 64"><path d="M55 57H7a2 2 0 0 1-2-2V9a2 2 0 0 1 2-2h48a2 2 0 0 1 2 2v46a2 2 0 0 1-2 2z" fill="#72caaf"/><path d="M5 52h52v3a2 2 0 0 1-2 2H7a2 2 0 0 1-2-2z" fill="#5dbc9d"/><path d="M55 6H7a3 3 0 0 0-3 3v46a3 3 0 0 0 3 3h48a3 3 0 0 0 3-3V9a3 3 0 0 0-3-3zm1 49c0 .55-.45 1-1 1H7c-.55 0-1-.45-1-1v-1c.55 0 1-.45 1-1v-2c0-.55-.45-1-1-1V9c0-.55.45-1 1-1h48c.55 0 1 .45 1 1v41c-.55 0-1 .45-1 1v2c0 .55.45 1 1 1z" fill="#8d6c9f"/><path d="M46 50c-.55 0-1 .45-1 1v2c0 .55.45 1 1 1s1-.45 1-1v-2c0-.55-.45-1-1-1zm5 0c-.55 0-1 .45-1 1v2c0 .55.45 1 1 1s1-.45 1-1v-2c0-.55-.45-1-1-1zm-20 0c-.55 0-1 .45-1 1v2c0 .55.45 1 1 1s1-.45 1-1v-2c0-.55-.45-1-1-1zm-5 0c-.55 0-1 .45-1 1v2c0 .55.45 1 1 1s1-.45 1-1v-2c0-.55-.45-1-1-1zm-5 0c-.55 0-1 .45-1 1v2c0 .55.45 1 1 1s1-.45 1-1v-2c0-.55-.45-1-1-1zm-5 0c-.55 0-1 .45-1 1v2c0 .55.45 1 1 1s1-.45 1-1v-2c0-.55-.45-1-1-1zm-5 0c-.55 0-1 .45-1 1v2c0 .55.45 1 1 1s1-.45 1-1v-2c0-.55-.45-1-1-1zm30 0c-.55 0-1 .45-1 1v2c0 .55.45 1 1 1s1-.45 1-1v-2c0-.55-.45-1-1-1zm-5 0c-.55 0-1 .45-1 1v2c0 .55.45 1 1 1s1-.45 1-1v-2c0-.55-.45-1-1-1z" fill="#8d6c9f"/><path d="M31 11a20 20 0 0 0-16 8v-5c0-.55-.45-1-1-1s-1 .45-1 1v8.078a1 1 0 0 0 1 1h8a1 1 0 1 0 0-2h-6a17.993 17.993 0 0 1 19.422-7.488 17.996 17.996 0 1 1 3.02 33.832A17.993 17.993 0 0 1 18 43.488a1.003 1.003 0 0 0-1.414-.023 1 1 0 0 0-.027 1.414 20.005 20.005 0 0 0 24.175 3.57A20.002 20.002 0 0 0 31 11zM14.41 38a1 1 0 1 0-1.84.781c.352.828.758 1.633 1.22 2.41a1 1 0 0 0 1.722-1A17.958 17.958 0 0 1 14.41 38z" fill="#faefde"/><path d="M31 25c-.55 0-1 .45-1 1v4h-5c-.55 0-1 .45-1 1s.45 1 1 1h5v4c0 .55.45 1 1 1s1-.45 1-1v-4h5c.55 0 1-.45 1-1s-.45-1-1-1h-5v-4c0-.55-.45-1-1-1z" fill="#faefde"/></svg>