<svg xmlns="http://www.w3.org/2000/svg" viewBox="0 0 32 32"><path d="M15 3v2h1V3zm-2.156.438L12 3.655l-.031.031h-.031L11.094 4h-.031l-.032.031-.094.032.844 1.812h.031l.063-.031.688-.25.062-.032.781-.218zM20 4v8h2V6.781c3.031 1.98 5 5.282 5 9.219 0 6.055-4.945 11-11 11S5 22.055 5 16v-1H3v1c0 7.145 5.855 13 13 13s13-5.855 13-13c0-4.059-1.797-7.613-4.656-10H28V4zM9.156 5l-.531.344-.031.031h-.031l-.688.531-.031.032h-.032l-.28.25 1.312 1.5.219-.188.062-.031.563-.438L9.75 7l.469-.313zM6.094 7.594l-.219.281-.063.063-.53.687v.031l-.032.031-.344.532 1.688 1.094.281-.47.063-.062.437-.594.031-.03.219-.25zM3.969 11l-.031.125-.032.031v.031L3.594 12v.031l-.031.063-.22.844 1.907.53.219-.78.031-.063.25-.688.031-.062v-.031z"/></svg>