<svg xmlns="http://www.w3.org/2000/svg" viewBox="0 0 26 26"><path d="M7.984 1a.996.996 0 0 0-.691.293l-4 4a.992.992 0 0 0-.273.973.99.99 0 0 0 .714.714.992.992 0 0 0 .973-.273L7 4.414V17h2V4.414l2.293 2.293c.25.262.625.367.973.273a.99.99 0 0 0 .714-.714.992.992 0 0 0-.273-.973l-4-4A1.003 1.003 0 0 0 7.984 1zM17 1v2h2V1zm0 4v2h2V5zm0 4v12.586l-2.293-2.293a1.008 1.008 0 0 0-.719-.305 1 1 0 0 0-.695 1.719l4 4a1 1 0 0 0 1.414 0l4-4a.992.992 0 0 0 .273-.973.99.99 0 0 0-.714-.714.992.992 0 0 0-.973.273L19 21.586V9zM7 19v2h2v-2zm0 4v2h2v-2z"/></svg>