<svg xmlns="http://www.w3.org/2000/svg" viewBox="0 0 50 50"><path d="M45.414 39.414l-7 7c-.39.39-.902.586-1.414.586a1.994 1.994 0 0 1-1.414-.586l-7-7a2 2 0 1 1 2.828-2.828L35 40.172V17a1.999 1.999 0 1 1 4 0v23.172l3.586-3.586a2 2 0 1 1 2.828 2.828zM37 7a1.999 1.999 0 1 0 0-4 1.999 1.999 0 1 0 0 4zm0 6a1.999 1.999 0 1 0 0-4 1.999 1.999 0 1 0 0 4zM14.414 3.586a2 2 0 0 0-2.828 0l-7 7a2 2 0 1 0 2.828 2.828L11 9.828V33a1.999 1.999 0 1 0 4 0V9.828l3.586 3.586c.39.39.902.586 1.414.586a2 2 0 0 0 1.414-3.414zM13 43a1.999 1.999 0 1 0 0 4 1.999 1.999 0 1 0 0-4zm0-6a1.999 1.999 0 1 0 0 4 1.999 1.999 0 1 0 0-4z"/></svg>