<svg xmlns="http://www.w3.org/2000/svg" viewBox="0 0 80 80"><path d="M31 8.586L9.586 30 31 51.414V38h15c4.43 0 8 3.57 8 8s-3.57 8-8 8h-9v16h9c12.902 0 23.363-10.23 23.898-23H70v-1c0-13.242-10.758-24-24-24H31zm-2 4.828V24h17c12.164 0 22 9.836 22 22s-9.836 22-22 22h-7V56h7c5.156 0 9.27-3.98 9.797-9H56v-1c0-5.512-4.488-10-10-10H29v10.586L12.414 30zM26 20c-.55 0-1 .45-1 1s.45 1 1 1 1-.45 1-1-.45-1-1-1zm-3 3c-.55 0-1 .45-1 1s.45 1 1 1 1-.45 1-1-.45-1-1-1zm-3 3c-.55 0-1 .45-1 1s.45 1 1 1 1-.45 1-1-.45-1-1-1zm14 0c-.55 0-1 .45-1 1s.45 1 1 1 1-.45 1-1-.45-1-1-1zm4 0c-.55 0-1 .45-1 1s.45 1 1 1 1-.45 1-1-.45-1-1-1zm4 0c-.55 0-1 .45-1 1s.45 1 1 1 1-.45 1-1-.45-1-1-1zm4 0c-.55 0-1 .45-1 1s.45 1 1 1 1-.45 1-1-.45-1-1-1zm3.734.363a1 1 0 0 0-1.007.809c-.051.258.003.527.148.75.148.219.379.371.64.422.258.054.528 0 .75-.149a.998.998 0 0 0 .422-.636.977.977 0 0 0-.148-.75.989.989 0 0 0-.637-.426c-.054-.012-.113-.016-.168-.02zm3.559 1.082a1.005 1.005 0 0 0-.95.617 1.02 1.02 0 0 0 .005.766 1 1 0 0 0 .543.543 1 1 0 1 0 .402-1.926zM17 29c-.55 0-1 .45-1 1s.45 1 1 1 1-.45 1-1-.45-1-1-1zm39.574.2A.999.999 0 0 0 56 31.03a1.001 1.001 0 1 0 .574-1.832zm2.875 2.363a.991.991 0 0 0-.722.296 1 1 0 1 0 .723-.297zm2.36 2.878a1 1 0 0 0-.84 1.555.999.999 0 0 0 1.66-1.11.996.996 0 0 0-.82-.445zm1.754 3.286c-.133 0-.266.023-.391.074a1.003 1.003 0 0 0 .766 1.851c.511-.215.753-.797.542-1.308a1.006 1.006 0 0 0-.918-.617zm1.078 3.566a.998.998 0 0 0-.984 1.195.998.998 0 0 0 1.175.785.998.998 0 0 0 .785-1.175 1.003 1.003 0 0 0-.976-.805zM65 45c-.55 0-1 .45-1 1s.45 1 1 1 1-.45 1-1-.45-1-1-1zm-.34 3.707a1 1 0 1 0 .957 1.195 1.001 1.001 0 0 0-.785-1.18 1.222 1.222 0 0 0-.172-.015zm-1.082 3.563a.997.997 0 0 0-.406 1.922.998.998 0 0 0 1.308-.54 1.003 1.003 0 0 0-.902-1.382zm-1.762 3.28a1 1 0 0 0-.847.45.998.998 0 1 0 1.66 1.11.999.999 0 0 0-.274-1.387 1.06 1.06 0 0 0-.539-.172zm-2.367 2.888a.972.972 0 0 0-.722.292 1 1 0 1 0 1.414 0 .98.98 0 0 0-.692-.293zm-2.883 2.359a1 1 0 1 0 .547 1.828c.457-.305.582-.926.278-1.387a.995.995 0 0 0-.825-.441zm-3.285 1.754a1.002 1.002 0 0 0-.934 1.387 1 1 0 1 0 1.848-.766 1.004 1.004 0 0 0-.914-.621zm-3.566 1.086a.665.665 0 0 0-.2.02.994.994 0 0 0-.785 1.171c.051.262.204.492.422.64a.998.998 0 0 0 1.535-1.027.991.991 0 0 0-.972-.804zM42 64c-.55 0-1 .45-1 1s.45 1 1 1 1-.45 1-1-.45-1-1-1zm4 0c-.55 0-1 .45-1 1s.45 1 1 1 1-.45 1-1-.45-1-1-1z"/></svg>