<svg xmlns="http://www.w3.org/2000/svg" viewBox="0 0 48 48"><path d="M24.125 29.367c1.586 1.586 1.46 5.028-.125 6.61h-1c-2 2-4.5.714-6.082-.868l-8.73-10.207a4.057 4.057 0 0 1 0-5.734 4.055 4.055 0 0 1 5.738 0z" fill="#dd2c00"/><path d="M27.688 2C21.055 2 16 7.367 16 14v13.93c0 1.59 1.406 9.07 3 9.07h16.852c5.761-3.844 3.843-22.992 3.843-22.992C39.691 7.375 34.316 2 27.687 2z" fill="#ff3d00"/><path d="M18 37h19v7H18z" fill="#cfd8dc"/><path d="M23 37.5a1.5 1.5 0 1 1-3 0 1.5 1.5 0 0 1 3 0zm-3 0a1.5 1.5 0 1 1-3 0 1.5 1.5 0 0 1 3 0zm6 0a1.5 1.5 0 1 1-3 0 1.5 1.5 0 0 1 3 0zm3 0a1.5 1.5 0 1 1-3 0 1.5 1.5 0 0 1 3 0zm3 0a1.5 1.5 0 1 1-3 0 1.5 1.5 0 0 1 3 0zm-9 6a1.5 1.5 0 1 1-3 0 1.5 1.5 0 0 1 3 0zm3 0a1.5 1.5 0 1 1-3 0 1.5 1.5 0 0 1 3 0zm3 0a1.5 1.5 0 1 1-3 0 1.5 1.5 0 0 1 3 0zm3 0a1.5 1.5 0 1 1-3 0 1.5 1.5 0 0 1 3 0zm3-6a1.5 1.5 0 1 1-3 0 1.5 1.5 0 0 1 3 0zm0 6a1.5 1.5 0 1 1-3 0 1.5 1.5 0 0 1 3 0zm3 0a1.5 1.5 0 1 1-3 0 1.5 1.5 0 0 1 3 0z" fill="#cfd8dc"/><path d="M38 40.5a1.5 1.5 0 1 1-3 0 1.5 1.5 0 0 1 3 0z" fill="#cfd8dc"/><path d="M38 37.5a1.5 1.5 0 1 1-3 0 1.5 1.5 0 0 1 3 0zm-18 3a1.5 1.5 0 1 1-3 0 1.5 1.5 0 0 1 3 0z" fill="#cfd8dc"/><path d="M20 43.5a1.5 1.5 0 1 1-3 0 1.5 1.5 0 0 1 3 0z" fill="#cfd8dc"/><path d="M21.004 24.93l14.004-7.742m.605 2.734l-3.644-1.055 1.05-3.644m-9.933 11.625l1.05-3.653-3.648-1.05M28.004 29V13m2.684.848l-2.684 2.683-2.684-2.683m5.368 14.316l-2.684-2.684-2.684 2.684M21.004 17.14l14.004 7.739m.605-2.734l-3.644 1.05 1.05 3.653m-9.933-11.625l1.05 3.648-3.648 1.05" fill="none" stroke-width="2" stroke="#fff"/></svg>