<svg xmlns="http://www.w3.org/2000/svg" viewBox="0 0 40 40"><path d="M4.893 36.471c.79-1.355 1.714-3.006 2.561-4.577l.198-.369-.328-.261C3.568 28.296 1.5 24.295 1.5 20 1.5 11.453 9.799 4.5 20 4.5S38.5 11.453 38.5 20 30.201 35.5 20 35.5c-2.174 0-4.34-.331-6.437-.985l-.162-.051-.16.06c-2.945 1.093-5.986 1.798-8.348 1.947z" fill="#dcd5f2"/><path d="M20 5c9.925 0 18 6.729 18 15s-8.075 15-18 15c-2.123 0-4.239-.324-6.287-.962l-.326-.102-.32.119c-2.521.936-5.108 1.583-7.26 1.831a169.857 169.857 0 0 0 2.086-3.756l.398-.739-.658-.52C4 28.001 2 24.14 2 20c0-8.271 8.075-15 18-15m0-1C9.507 4 1 11.163 1 20c0 4.601 2.32 8.737 6.013 11.656A150.463 150.463 0 0 1 4 37c2.597 0 6.172-.803 9.415-2.007A22.113 22.113 0 0 0 20 36c10.493 0 19-7.163 19-16S30.493 4 20 4z" fill="#8b75a1"/><rect x="9" y="16" width="22" height="1" fill="#8b75a1"/><rect x="9" y="20" width="22" height="1" fill="#8b75a1"/><rect x="9" y="24" width="11" height="1" fill="#8b75a1"/></svg>