<svg xmlns="http://www.w3.org/2000/svg" viewBox="0 0 64 64"><linearGradient id="a" gradientUnits="userSpaceOnUse" x1="49" y1="45.5" x2="49" y2="53.167" spreadMethod="reflect"><stop offset="0" stop-color="#6dc7ff"/><stop offset="1" stop-color="#e6abff"/></linearGradient><circle cx="49" cy="49" r="5" fill="url(#a)"/><linearGradient id="b" gradientUnits="userSpaceOnUse" x1="15" y1="9.333" x2="15" y2="20.531" spreadMethod="reflect"><stop offset="0" stop-color="#6dc7ff"/><stop offset="1" stop-color="#e6abff"/></linearGradient><circle cx="15" cy="15" r="5" fill="url(#b)"/><linearGradient id="c" gradientUnits="userSpaceOnUse" x1="15" y1="5" x2="15" y2="58.365" spreadMethod="reflect"><stop offset="0" stop-color="#1a6dff"/><stop offset="1" stop-color="#c822ff"/></linearGradient><path d="M21 40h-5v-6h1.446c.515 0 .994-.265 1.283-.708a1.682 1.682 0 0 0 .126-1.602l-1.945-4.399c-.352-.797-1.084-1.292-1.91-1.292s-1.558.495-1.91 1.292l-1.945 4.399a1.682 1.682 0 0 0 .126 1.602c.289.443.768.708 1.283.708H14v6H9c-1.654 0-3 1.346-3 3v12c0 1.654 1.346 3 3 3h12c1.654 0 3-1.346 3-3V43c0-1.654-1.346-3-3-3zm-7.806-8l1.725-3.9c.067-.15.095-.15.162 0l1.725 3.9h-3.612zM22 55c0 .552-.449 1-1 1H9c-.551 0-1-.448-1-1V43c0-.552.449-1 1-1h12c.551 0 1 .448 1 1v12z" fill="url(#c)"/><linearGradient id="d" gradientUnits="userSpaceOnUse" x1="49" y1="5" x2="49" y2="58.365" spreadMethod="reflect"><stop offset="0" stop-color="#1a6dff"/><stop offset="1" stop-color="#c822ff"/></linearGradient><path d="M49 40c-4.962 0-9 4.037-9 9s4.038 9 9 9 9-4.037 9-9-4.038-9-9-9zm0 16c-3.86 0-7-3.141-7-7s3.14-7 7-7 7 3.141 7 7-3.14 7-7 7z" fill="url(#d)"/><linearGradient id="e" gradientUnits="userSpaceOnUse" x1="49" y1="5" x2="49" y2="58.365" spreadMethod="reflect"><stop offset="0" stop-color="#1a6dff"/><stop offset="1" stop-color="#c822ff"/></linearGradient><path d="M46.905 23.132c.314.314.689.539 1.095.685V30h-1.446c-.515 0-.994.265-1.283.708a1.682 1.682 0 0 0-.126 1.602l1.945 4.399C47.442 37.506 48.174 38 49 38c.826-.001 1.558-.495 1.91-1.292l1.945-4.398a1.682 1.682 0 0 0-.126-1.602A1.533 1.533 0 0 0 51.446 30H50v-6.184a2.932 2.932 0 0 0 1.094-.685l6.038-6.038c.56-.559.868-1.302.868-2.093s-.308-1.535-.868-2.095l-6.038-6.038a2.966 2.966 0 0 0-4.188 0l-6.039 6.038C40.308 13.465 40 14.209 40 15s.308 1.535.868 2.094l6.037 6.038zm2.176 12.767c-.066.149-.094.155-.162.001L47.194 32h3.611l-1.724 3.899zm-6.799-21.58l6.038-6.038a.96.96 0 0 1 1.36 0l6.038 6.038c.182.182.282.424.282.681s-.1.498-.282.68l-6.039 6.038a.985.985 0 0 1-1.36 0l-6.038-6.038C42.1 15.498 42 15.257 42 15s.1-.499.282-.681z" fill="url(#e)"/><linearGradient id="f" gradientUnits="userSpaceOnUse" x1="22" y1="5" x2="22" y2="58.365" spreadMethod="reflect"><stop offset="0" stop-color="#1a6dff"/><stop offset="1" stop-color="#c822ff"/></linearGradient><path d="M36.709 13.089l-4.4-1.945a1.688 1.688 0 0 0-1.601.127A1.533 1.533 0 0 0 30 12.554V14h-6.059c-.5-4.493-4.317-8-8.941-8-4.962 0-9 4.037-9 9s4.038 9 9 9c4.624 0 8.442-3.507 8.941-8H30v1.446c0 .515.265.993.708 1.282a1.67 1.67 0 0 0 1.602.126l4.4-1.946c.795-.35 1.29-1.083 1.29-1.909 0-.825-.495-1.558-1.291-1.91zM15 22c-3.86 0-7-3.141-7-7s3.14-7 7-7 7 3.141 7 7-3.14 7-7 7zm20.9-6.92L32 16.805v-3.61l3.9 1.724c.075.034.1.069.1.081 0 .012-.024.047-.1.08z" fill="url(#f)"/><linearGradient id="g" gradientUnits="userSpaceOnUse" x1="15" y1="45.5" x2="15" y2="53.167" spreadMethod="reflect"><stop offset="0" stop-color="#6dc7ff"/><stop offset="1" stop-color="#e6abff"/></linearGradient><path d="M18 51a1 1 0 0 1-1 1h-4a1 1 0 0 1-1-1v-4a1 1 0 0 1 1-1h4a1 1 0 0 1 1 1v4z" fill="url(#g)"/><linearGradient id="h" gradientUnits="userSpaceOnUse" x1="49" y1="9.333" x2="49" y2="20.531" spreadMethod="reflect"><stop offset="0" stop-color="#6dc7ff"/><stop offset="1" stop-color="#e6abff"/></linearGradient><path d="M51.292 15.708l-1.583 1.583a1.003 1.003 0 0 1-1.417 0l-1.583-1.583a1.003 1.003 0 0 1 0-1.417l1.583-1.583a1.003 1.003 0 0 1 1.417 0l1.583 1.583a1.003 1.003 0 0 1 0 1.417z" fill="url(#h)"/></svg>