<svg xmlns="http://www.w3.org/2000/svg" viewBox="0 0 50 50"><path d="M15 7C7.855 7 2 12.855 2 20c0 14.762 16.695 22.047 22.375 26.781a.999.999 0 0 0 1.25 0C31.305 42.047 48 34.761 48 20c0-7.145-5.855-13-13-13-2.258 0-4.32.559-6.156 1.531a.997.997 0 0 0-.532.656l-1.28 5.594a.995.995 0 0 0 .19.84c.192.238.477.375.778.379h2.219l-3.063 7.625A1.003 1.003 0 0 0 28.094 25h.812l-4.156 6.719 1.219-5.5a.995.995 0 0 0-.192-.84A1.012 1.012 0 0 0 25 25h-1.906l2.656-7.688A1.002 1.002 0 0 0 24.812 16h-3l1.063-5.625a.996.996 0 0 0-.375-.969C20.422 7.875 17.805 7 15 7zm0 2c2.176 0 4.14.656 5.781 1.719l-1.156 6.094c-.055.289.02.59.207.82.188.226.465.363.762.367h2.812l-2.656 7.688A1.002 1.002 0 0 0 21.688 27h2.062l-2.219 9.969a1.002 1.002 0 0 0 1.813.75l8.218-13.188a1 1 0 0 0 .02-1.027.993.993 0 0 0-.895-.504h-1.093l3.031-7.625A1.003 1.003 0 0 0 31.687 14H29.25l.906-3.875A10.888 10.888 0 0 1 35 9c6.055 0 11 4.945 11 11 0 12.898-14.406 19.574-21 24.781C18.406 39.574 4 32.898 4 20 4 13.945 8.945 9 15 9z"/></svg>