<svg xmlns="http://www.w3.org/2000/svg" viewBox="0 0 16 16"><path d="M5 2c-.277 0-.555.04-.82.094l.82.824V3c1.102 0 2.047.594 2.57 1.477l.43.726.43-.726A2.977 2.977 0 0 1 11 3a2.98 2.98 0 0 1 2.96 2.633l.009.039c.02.094.031.2.031.328 0 1.184-.672 2.543-1.941 3.977l.707.71C14.242 9.04 15 7.466 15 6c0-.188-.02-.352-.05-.508C14.694 3.527 13.03 2 11 2c-1.242 0-2.27.648-3 1.54C7.27 2.647 6.242 2 5 2zm-2.273.023l-.704.704.317.32a3.97 3.97 0 0 0-1.285 2.445A2.3 2.3 0 0 0 1 6c0 2.285 1.746 4.348 3.414 5.879a23.636 23.636 0 0 0 3.328 2.547l.258.16.258-.16s1.52-.942 3.105-2.356l1.907 1.91.71-.71zm.32 1.727l7.61 7.61C9.327 12.54 8.206 13.241 8 13.374c-.23-.145-1.457-.89-2.914-2.23C3.504 9.688 2 7.75 2 6c0-.133.012-.238.031-.328l.008-.024v-.023A3.003 3.003 0 0 1 3.047 3.75z"/></svg>