<svg xmlns="http://www.w3.org/2000/svg" viewBox="0 0 24 24"><path d="M4 2c-1.102 0-2 .898-2 2v16c0 1.102.898 2 2 2h16c1.102 0 2-.898 2-2V4c0-1.102-.898-2-2-2zm8.25 2c1.008 0 2.219.98 2.219 5.656 0 1.672-.489 4.16-1.438 6.156.414.563.809.813 1.094.813.387-.078 1.254-1.621 1.719-3.094a.742.742 0 0 1 .937-.5c.403.117.617.574.5.969-.394 1.254-1.496 4.156-3.156 4.156-.523 0-1.203-.254-1.875-.937C11.488 18.285 10.523 19 9.406 19 7.043 19 6 16.848 6 15c0-1.965 1.004-3.813 3.188-3.813.367 0 .703.079 1 .188a26.253 26.253 0 0 1-.063-1.813c0-.058 0-5.562 2.125-5.562zm.063 1.625c-.317.555-.688 2.2-.688 3.938 0 1.878.215 3.328.531 4.406.485-1.383.813-2.961.813-4.313 0-2.55-.418-3.676-.656-4.031zm-3.407 7.094c-1.351.27-1.375 2.46-1.375 2.562 0 .66.164 2.188 1.875 2.188.66 0 1.332-.625 1.906-1.594a9.446 9.446 0 0 1-.874-2.563c-.051-.03-.094-.085-.126-.124 0 0-.484-.47-1.124-.47-.102 0-.192-.019-.282 0z"/></svg>