<svg xmlns="http://www.w3.org/2000/svg" viewBox="0 0 80 80"><path d="M15 10c-2.75 0-5 2.25-5 5v50c0 2.75 2.25 5 5 5h50c2.75 0 5-2.25 5-5V15c0-2.75-2.25-5-5-5zm0 2h50c1.668 0 3 1.332 3 3v50c0 1.668-1.332 3-3 3H52.02V47.54h7.417l1.387-10.755H52.02V32.2c0-1.176.183-1.976.57-2.437.387-.465 1.11-.825 2.77-.825l5.632-.003V19.23l-.867-.117c-.906-.12-3.637-.351-6.887-.351-3.547 0-6.644 1.097-8.836 3.265-2.195 2.164-3.422 5.352-3.422 9.301v5.457h-7.558V47.54h7.558V68H15c-1.668 0-3-1.332-3-3V15c0-1.668 1.332-3 3-3zm38.238 8.762c2.739 0 4.7.18 5.754.289v5.883l-3.633.003c-1.976 0-3.425.5-4.297 1.536-.874 1.035-1.042 2.363-1.042 3.726v6.586h8.527l-.871 6.754H50.02V68h-7.04V45.54h-7.558v-6.755h7.558v-7.457c0-3.539 1.063-6.137 2.829-7.879 1.761-1.746 4.293-2.687 7.43-2.687zM15 61c-.55 0-1 .45-1 1s.45 1 1 1 1-.45 1-1-.45-1-1-1zm4 0c-.55 0-1 .45-1 1s.45 1 1 1 1-.45 1-1-.45-1-1-1zm4 0c-.55 0-1 .45-1 1s.45 1 1 1 1-.45 1-1-.45-1-1-1zm4 0c-.55 0-1 .45-1 1s.45 1 1 1 1-.45 1-1-.45-1-1-1zm4 0c-.55 0-1 .45-1 1s.45 1 1 1 1-.45 1-1-.45-1-1-1zm4 0c-.55 0-1 .45-1 1s.45 1 1 1 1-.45 1-1-.45-1-1-1zm4 0c-.55 0-1 .45-1 1s.45 1 1 1 1-.45 1-1-.45-1-1-1zm15 0c-.55 0-1 .45-1 1s.45 1 1 1 1-.45 1-1-.45-1-1-1zm4 0c-.55 0-1 .45-1 1s.45 1 1 1 1-.45 1-1-.45-1-1-1zm4 0c-.55 0-1 .45-1 1s.45 1 1 1 1-.45 1-1-.45-1-1-1zm4 0c-.55 0-1 .45-1 1s.45 1 1 1 1-.45 1-1-.45-1-1-1z"/></svg>