<svg xmlns="http://www.w3.org/2000/svg" viewBox="0 0 50 50"><path d="M23 3c-.55 0-1 .45-1 1v7.75L18 22v21c.414 1.164 1.695 2 3 2h19c2.207 0 4-1.793 4-4 0-.824-.262-1.582-.688-2.219A4.022 4.022 0 0 0 46 35c0-.98-.352-1.867-.938-2.563A4.017 4.017 0 0 0 47 29c0-.98-.352-1.867-.938-2.563A4.017 4.017 0 0 0 48 23c0-2.207-1.793-4-4-4H29.375c.61-1.93 1.625-5.383 1.625-7 0-3.766-2.758-9-5.469-9zM3 19c-.285 0-.559.129-.75.344a.99.99 0 0 0-.25.781l3 24c.063.5.496.875 1 .875h9a1 1 0 0 0 1-1V20c0-.55-.45-1-1-1zm8.5 19a1.5 1.5 0 1 1 0 3 1.5 1.5 0 0 1 0-3z"/></svg>