<svg xmlns="http://www.w3.org/2000/svg" viewBox="0 0 64 64"><path d="M32 4C16.559 4 4 15.66 4 30a25.191 25.191 0 0 0 10.09 20v9.09a.926.926 0 0 0 .453.805.932.932 0 0 0 .926.015l8.89-4.91A30.03 30.03 0 0 0 32 56c15.441 0 28-11.66 28-26S47.441 4 32 4z" fill="#85cbf8"/><path d="M54.691 36a3.81 3.81 0 0 0-3.453 2.148A21.132 21.132 0 0 1 32 49.852a22.6 22.6 0 0 1-3.91-.352 5.921 5.921 0 0 0-5.211 1.68l-9.309 9.308a.994.994 0 0 0 1.309.39l9.2-5.05a31.17 31.17 0 0 0 7.921 1c11.48 0 21.422-6.226 26.11-15.238a3.85 3.85 0 0 0-.15-3.75A3.854 3.854 0 0 0 54.692 36z" fill="#6fc6f0"/><path d="M9.8 17a3 3 0 0 0 4.45-.191A23.681 23.681 0 0 1 32 9a24.105 24.105 0 0 1 12.23 3.281 3.065 3.065 0 0 0 3.77-.43c.672-.656 1-1.585.887-2.515a3.012 3.012 0 0 0-1.465-2.227A30.491 30.491 0 0 0 32 3a29.872 29.872 0 0 0-22.32 9.762A2.998 2.998 0 0 0 9.77 17z" fill="#9fddff"/><path d="M35.191 38.398l-7.332-6.82a1.098 1.098 0 0 0-1.328-.207L16.75 36.72l11.898-13.64 7.532 6.843c.347.36.894.441 1.332.2L47 25z" fill="#faefde"/><path d="M32 2C15.46 2 2 14.488 2 29.852a27.012 27.012 0 0 0 10.809 21.41V61c0 .355.187.68.492.863.3.18.68.188.988.016l9.52-5.23A32.2 32.2 0 0 0 32 57.699c16.54 0 30-12.488 30-27.847C62 14.488 48.54 2 32 2zm0 53.7c-2.719 0-5.43-.364-8.05-1.09-.25-.07-.52-.036-.75.09l-8.391 4.609v-8.547a1 1 0 0 0-.399-.801A25.062 25.062 0 0 1 4 29.85C4 15.602 16.559 4 32 4s28 11.602 28 25.852-12.559 25.847-28 25.847z" fill="#8d6c9f"/><path d="M50.25 21.46L36.691 29l-7-7.32a1.277 1.277 0 0 0-.73-.309c-.273 0-.531.113-.723.309L12.36 38.469a.999.999 0 0 0-.004 1.25.995.995 0 0 0 1.215.281l13.73-7.5 6.848 7.309a1.003 1.003 0 0 0 1.461.011L51.461 23a1 1 0 0 0-1.211-1.559zM34.879 37.7l-6.66-7.098A.992.992 0 0 0 27 30.41l-8.89 4.86 10.83-11.49 6.84 7.117a.996.996 0 0 0 1.207.18l8.633-4.77zm-13.5-25.302c.148 0 .297-.035.43-.097a23.985 23.985 0 0 1 13.64-2.051c.555.082 1.067-.3 1.145-.855a1.01 1.01 0 0 0-.856-1.145 25.915 25.915 0 0 0-14.797 2.23.998.998 0 0 0 .438 1.899zM40 11.379c1.008.363 1.992.8 2.941 1.3a1.002 1.002 0 1 0 .938-1.769 25.087 25.087 0 0 0-3.2-1.41.996.996 0 0 0-1.003.16.998.998 0 1 0 .324 1.72zM32 47.07c-.55 0-1 .45-1 1V50c0 .55.45 1 1 1s1-.45 1-1v-1.93c0-.55-.45-1-1-1zm6.191.09a1 1 0 0 0-1.921.559l.539 1.851a1 1 0 0 0 1 .72.85.85 0 0 0 .28 0 .995.995 0 0 0 .629-1.29zM22.43 44.719a1.01 1.01 0 0 0-.758-.125.99.99 0 0 0-.621.445L20 46.7a1 1 0 0 0 .32 1.38 1 1 0 0 0 1.38-.317l1-1.66a1.002 1.002 0 0 0-.27-1.383zM42.95 45a1.001 1.001 0 0 0-1.7 1.059l1 1.66c.281.484.902.648 1.387.367.48-.281.644-.902.363-1.387zm-15.9 1.469a1.007 1.007 0 0 0-1.241.68L25.28 49a.984.984 0 0 0 .094.777c.133.239.36.407.625.473.094.012.188.012.281 0a1 1 0 0 0 1-.719l.54-1.851a.996.996 0 0 0-.13-.766.99.99 0 0 0-.64-.445z" fill="#8d6c9f"/></svg>