<svg xmlns="http://www.w3.org/2000/svg" viewBox="0 0 16 16"><path d="M2.5 1C1.676 1 1 1.676 1 2.5v10c0 .824.676 1.5 1.5 1.5h10c.824 0 1.5-.676 1.5-1.5v-10c0-.824-.676-1.5-1.5-1.5zm0 1h10c.281 0 .5.219.5.5v10c0 .281-.219.5-.5.5h-10a.494.494 0 0 1-.5-.5v-10c0-.281.219-.5.5-.5zM3 3v9h9V3zm1 1h7v7H4zm3.469 1a1.473 1.473 0 0 0-1.29.805A1.48 1.48 0 0 0 5.07 6.82a1.503 1.503 0 0 0 .352 1.5 1.48 1.48 0 0 0 .629 1.414 1.442 1.442 0 0 0 1.484.11 1.455 1.455 0 0 0 1.48-.149c.45-.332.676-.879.594-1.437.371-.406.489-.98.305-1.508a1.464 1.464 0 0 0-1.137-.98A1.51 1.51 0 0 0 7.47 5zM7.5 7.004a.499.499 0 1 1 0 1 .498.498 0 0 1-.5-.5c0-.277.223-.5.5-.5z"/></svg>