<svg xmlns="http://www.w3.org/2000/svg" viewBox="0 0 64 64"><path d="M59 31c0 15.465-12.535 28-28 28S3 46.465 3 31 15.535 3 31 3s28 12.535 28 28z" fill="#8b8e98"/><path d="M31 54C18.297 54 8 43.703 8 31S18.297 8 31 8s23 10.297 23 23-10.297 23-23 23z" fill="#7e8189"/><path d="M36.078 43.352c1.7 1.82 2.73 4.164 2.922 6.648v5.25c0 .55.23 2.129.898 2.309L31 59.179l-9-1.609c.719-.16 1-1.77 1-2.32V52c-7.79 1.691-9.398-4.3-9.398-4.3-1.282-3.231-3.114-4.098-3.114-4.098-2.539-1.73.192-1.704.192-1.704A5.904 5.904 0 0 1 15 44.79c2.5 4.27 6.441 3.922 8 3.211.262-1.809 2.102-3.93 2.898-4.629-6.218-.71-12.757-3.11-12.757-13.84A10.826 10.826 0 0 1 16 22.001a10.082 10.082 0 0 1 .281-7.41c3.14-25.668 2.348-.75 7.7 2.87a26.602 26.602 0 0 1 14 0c5.34-3.62 7.69-2.87 7.69-2.87A10.085 10.085 0 0 1 46 22a10.82 10.82 0 0 1 2.871 7.512c-.012 10.777-6.55 13.148-12.793 13.84z" fill="#faefde"/><path d="M31 2C16.855 2.008 4.781 12.219 2.422 26.16.062 40.105 8.105 53.72 21.46 58.38c.16.117.352.184.55.191a28.996 28.996 0 0 0 30.528-8.148A29.001 29.001 0 1 0 31 2zm-7.3 55a6.128 6.128 0 0 0 .3-1.738V52a1.003 1.003 0 0 0-1.21-1c-6.72 1.46-8.169-3.379-8.231-3.578v-.113a9.418 9.418 0 0 0-3-4.239 5.373 5.373 0 0 1 2.562 2.2c2.64 4.53 7 4.652 9.3 3.62a.992.992 0 0 0 .579-.769 8.605 8.605 0 0 1 2.559-4A1 1 0 0 0 26 42.38c-5.871-.668-11.871-2.719-11.871-12.84a9.839 9.839 0 0 1 2.621-6.84 1 1 0 0 0 .25-1.058 8.824 8.824 0 0 1 0-6.09c.852 0 2.922.39 6.422 2.758a.988.988 0 0 0 .828.14 25.545 25.545 0 0 1 13.48 0 .988.988 0 0 0 .829-.14c3.511-2.38 5.59-2.739 6.41-2.77a8.855 8.855 0 0 1 .07 6.102 1 1 0 0 0 .191 1.05 9.821 9.821 0 0 1 2.61 6.84c0 10.13-6 12.168-11.89 12.82a.991.991 0 0 0-.84.696c-.118.383 0 .793.3 1.055A10.198 10.198 0 0 1 38 50v5.25a6.19 6.19 0 0 0 .29 1.75 26.83 26.83 0 0 1-14.59 0zm16.5-.602a4.255 4.255 0 0 1-.2-1.128V50a11.656 11.656 0 0 0-2-5.91c5.55-.942 11.89-3.82 11.89-14.559a11.757 11.757 0 0 0-2.742-7.73 11.46 11.46 0 0 0-.476-7.563 1.011 1.011 0 0 0-.621-.578c-.281-.09-2.852-.762-8.18 2.738a27.602 27.602 0 0 0-13.66 0c-5.332-3.5-7.902-2.828-8.18-2.738a.992.992 0 0 0-.62.578 11.437 11.437 0 0 0-.481 7.563 11.733 11.733 0 0 0-2.739 7.73c0 10.649 6.23 13.578 11.73 14.559a9.526 9.526 0 0 0-1.741 3.16c-1.418.398-4.34.41-6.29-2.941a6.901 6.901 0 0 0-5.152-3.399c-.539 0-1.898.09-2.218 1.13-.32 1.038.91 2 1.46 2.401l.13.07c.062 0 1.519.798 2.6 3.528.231.711 2.22 6.102 9.349 5.152v2.059a4.087 4.087 0 0 1-.207 1.129C9.527 51.91 2.195 39.234 4.46 26.324 6.73 13.414 17.945 3.996 31.055 3.996s24.324 9.418 26.593 22.328c2.27 12.91-5.066 25.586-17.386 30.055z" fill="#8d6c9f"/><path d="M31 37c-.55 0-1 .45-1 1v2c0 .55.45 1 1 1s1-.45 1-1v-2c0-.55-.45-1-1-1zm4.602 2.531a1 1 0 0 0 1.226.7c.535-.149.848-.7.703-1.231L37 37.078a1 1 0 0 0-1.93.524zM21.75 34.52a1.017 1.017 0 0 0-.762-.102c-.258.07-.476.242-.61.473l-1 1.73a1.001 1.001 0 0 0 1.731 1l1-1.73a1 1 0 0 0-.359-1.371zm19.129 3.101a1.005 1.005 0 0 0 1.762.024c.175-.32.168-.715-.032-1.024l-1-1.73a.996.996 0 0 0-1.343-.328 1 1 0 0 0-.387 1.328zm-14.669-1.25a1.001 1.001 0 0 0-1.222.707L24.468 39a1.001 1.001 0 0 0 1.227 1.258.999.999 0 0 0 .703-.738l.524-1.93a1.003 1.003 0 0 0-.711-1.219zM41.352 9.46c-.75-.374-1.516-.71-2.301-1a1 1 0 0 0-1.235.606.995.995 0 0 0 .536 1.262c.714.27 1.414.578 2.097.922.14.07.293.11.45.11a1.002 1.002 0 0 0 .453-1.891zm-6.704-2.17a23.081 23.081 0 0 0-15 2.722.998.998 0 0 0 .5 1.867.985.985 0 0 0 .493-.129A21.111 21.111 0 0 1 34.34 9.27c.55.09 1.07-.29 1.16-.84.09-.551-.29-1.07-.84-1.16z" fill="#8d6c9f"/></svg>