<svg xmlns="http://www.w3.org/2000/svg" viewBox="0 0 50 50"><path d="M36 2c-3.54 0-6.707 1.555-8.906 4H6.344C3.96 6 2 7.96 2 10.344v32.875a1.048 1.048 0 0 0 0 .312v.125C2 46.04 3.96 48 6.344 48h33.312C42.04 48 44 46.04 44 43.656v-.093a1.048 1.048 0 0 0 0-.313V23.437c2.105-2.804 4-5.542 4-9.437 0-6.617-5.383-12-12-12zm0 2c5.535 0 10 4.465 10 10 0 3.414-1.691 5.691-3.906 8.625-2.121 2.809-4.617 6.2-6.094 11.313-1.477-5.114-3.973-8.504-6.094-11.313-.824-1.094-1.597-2.09-2.218-3.094V19.5c-.012-.02-.02-.043-.032-.063a.966.966 0 0 0-.25-.437C26.543 17.48 26 15.922 26 14c0-5.535 4.465-10 10-10zM6.344 8h19.281A11.892 11.892 0 0 0 24 14c0 2.137.578 3.918 1.438 5.563L4 40.968V10.344A2.336 2.336 0 0 1 6.344 8zm5.781 2A6.135 6.135 0 0 0 6 16.125c0 3.375 2.75 6.094 6.125 6.094 5.344 0 6.254-4.805 5.75-7.188h-5.75v2.344h3.313c-.434 1.414-1.602 2.438-3.313 2.438a3.69 3.69 0 0 1-3.688-3.688 3.69 3.69 0 0 1 3.688-3.688c.914 0 1.73.325 2.375.876l1.719-1.72A6.04 6.04 0 0 0 12.125 10zM36 10c-2.2 0-4 1.8-4 4s1.8 4 4 4 4-1.8 4-4-1.8-4-4-4zm0 2c1.117 0 2 .883 2 2s-.883 2-2 2-2-.883-2-2 .883-2 2-2zm-9.5 9.313a49.715 49.715 0 0 0 1.781 2.53c.008.012.024.02.032.032L6.218 45.969A2.298 2.298 0 0 1 4.03 43.78zm3 4.187c1.43 1.953 2.855 4.121 3.938 6.938L28 27zm12.5.656V40.97l-4.656-4.625a1.94 1.94 0 0 0 .125-.25c.164-.434.144-.719.218-1 .997-3.828 2.626-6.57 4.313-8.938zm-15.406 2.25l15.375 15.375a2.298 2.298 0 0 1-2.188 2.188L24.406 30.594zM23 32l13.969 14H9.03z"/></svg>