<svg xmlns="http://www.w3.org/2000/svg" viewBox="0 0 24 24"><path d="M12 2C6.5 2 2 6.5 2 12s4.5 10 10 10 10-4.5 10-10S17.5 2 12 2zm-.688 5h3l-.906.5H12.5c.3.3 1 .898 1 2 0 1.102-.586 1.594-1.188 2.094-.199.199-.406.418-.406.719 0 .3.207.492.406.593l.5.406c.602.5 1.188 1 1.188 2C14 16.613 12.695 18 10.094 18 7.992 18 7 17.008 7 15.906c0-.5.293-1.312 1.094-1.812.898-.5 2.113-.586 2.812-.688-.199-.3-.406-.5-.406-1 0-.199.094-.394.094-.594h-.5c-1.602 0-2.406-1.113-2.406-2.312 0-.7.304-1.406.906-1.906.898-.5 1.918-.594 2.719-.594zm-.906.406c-.398 0-.8.2-1 .5C9.106 8.305 9 8.7 9 9c0 1 .613 2.594 1.813 2.594.398 0 .8-.207 1-.406.398-.301.374-.793.374-1.094 0-1-.582-2.688-1.78-2.688zM16 10h1v2h2v1h-2v2h-1v-2h-2v-1h2zm-4.906 3.906c-.102 0-.899-.011-1.5.188-.301.101-1.281.5-1.281 1.5s.992 1.812 2.593 1.812c1.399 0 2.094-.695 2.094-1.593 0-.7-.492-1.106-1.594-1.907z"/></svg>