<svg xmlns="http://www.w3.org/2000/svg" viewBox="0 0 50 50"><path d="M10 0C4.488 0 0 4.488 0 10v30c0 5.512 4.488 10 10 10h30c5.512 0 10-4.488 10-10V10c0-5.512-4.488-10-10-10zm0 2h30c4.434 0 8 3.566 8 8v30c0 4.434-3.566 8-8 8H10a7.98 7.98 0 0 1-8-8V10c0-4.434 3.566-8 8-8zm30.5 3A2.512 2.512 0 0 0 38 7.5v3c0 1.371 1.129 2.5 2.5 2.5h3c1.371 0 2.5-1.129 2.5-2.5v-3C46 6.129 44.871 5 43.5 5zm0 2h3c.281 0 .5.219.5.5v3c0 .281-.219.5-.5.5h-3a.494.494 0 0 1-.5-.5v-3c0-.281.219-.5.5-.5zM25 10c-4.457 0-8.469 1.96-11.219 5.063a1.03 1.03 0 0 0-.406-.063H4.906A.996.996 0 0 0 4 16v23.781C4 43.207 6.793 46 10.219 46H39.78c3.427 0 6.22-2.793 6.22-6.219V16c0-.55-.45-1-1-1h-8.438a1.023 1.023 0 0 0-.374.063C33.438 11.969 29.448 10 25 10zm0 2c7.176 0 13 5.824 13 13s-5.824 13-13 13-13-5.824-13-13 5.824-13 13-13zm-.094 2a.88.88 0 0 0-.093.031 1.044 1.044 0 0 0-.188.031l-.031.032C18.73 14.32 14 19.082 14 25c0 6.063 4.938 11 11 11 6.063 0 11-4.938 11-11 0-5.898-4.7-10.645-10.531-10.906-.035 0-.059-.031-.094-.031a.967.967 0 0 0-.313-.063h-.156zm.032 2H25c4.98 0 9 4.016 9 9s-4.02 9-9 9-9-4.016-9-9a8.987 8.987 0 0 1 8.938-9zM6 17h6.344A14.839 14.839 0 0 0 10 25c0 8.262 6.738 15 15 15s15-6.738 15-15c0-2.945-.867-5.68-2.344-8H44v22.781A4.206 4.206 0 0 1 39.781 44H10.22A4.206 4.206 0 0 1 6 39.781z"/></svg>