<svg xmlns="http://www.w3.org/2000/svg" viewBox="0 0 64 64"><path d="M13 6c-3.86 0-7 3.14-7 7v38c0 3.86 3.14 7 7 7h38c3.86 0 7-3.14 7-7V13c0-3.86-3.14-7-7-7zm0 2h1v3a1 1 0 1 0 2 0V8h35c2.758 0 5 2.242 5 5v9H42c-.063 0-.227-.008-.25-.031A13.94 13.94 0 0 0 32 18a13.944 13.944 0 0 0-9.781 4c-.012.012-.157 0-.219 0H8v-9c0-2.758 2.242-5 5-5zm34 2c-1.652 0-3 1.348-3 3v2c0 1.652 1.348 3 3 3h4c1.652 0 3-1.348 3-3v-2c0-1.652-1.348-3-3-3zm0 2h4c.55 0 1 .45 1 1v2c0 .55-.45 1-1 1h-4c-.55 0-1-.45-1-1v-2c0-.55.45-1 1-1zm-32 2a1 1 0 0 0-1 1v4a1 1 0 1 0 2 0v-4a1 1 0 0 0-1-1zm17 6c6.617 0 12 5.383 12 12s-5.383 12-12 12-12-5.383-12-12 5.383-12 12-12zm0 2c-5.516 0-10 4.484-10 10s4.484 10 10 10 10-4.484 10-10-4.484-10-10-10zM8 24h12.527A13.9 13.9 0 0 0 18 32c0 7.719 6.281 14 14 14s14-6.281 14-14a13.9 13.9 0 0 0-2.527-8H56v27c0 2.758-2.242 5-5 5H13c-2.758 0-5-2.242-5-5zm24 0c4.41 0 8 3.59 8 8s-3.59 8-8 8-8-3.59-8-8 3.59-8 8-8zM12 49a1 1 0 0 0-1 1v2a1 1 0 1 0 2 0v-2a1 1 0 0 0-1-1zm5 0a1 1 0 0 0-1 1v2a1 1 0 1 0 2 0v-2a1 1 0 0 0-1-1zm5 0a1 1 0 0 0-1 1v2a1 1 0 1 0 2 0v-2a1 1 0 0 0-1-1zm5 0a1 1 0 0 0-1 1v2a1 1 0 1 0 2 0v-2a1 1 0 0 0-1-1zm5 0a1 1 0 0 0-1 1v2a1 1 0 1 0 2 0v-2a1 1 0 0 0-1-1zm5 0a1 1 0 0 0-1 1v2a1 1 0 1 0 2 0v-2a1 1 0 0 0-1-1zm5 0a1 1 0 0 0-1 1v2a1 1 0 1 0 2 0v-2a1 1 0 0 0-1-1zm5 0a1 1 0 0 0-1 1v2a1 1 0 1 0 2 0v-2a1 1 0 0 0-1-1zm5 0a1 1 0 0 0-1 1v2a1 1 0 1 0 2 0v-2a1 1 0 0 0-1-1z"/></svg>