<svg xmlns="http://www.w3.org/2000/svg" viewBox="0 0 50 50"><path d="M15 7C7.832 7 2 12.832 2 20c0 14.762 16.68 22.035 22.36 26.766l.64.535.64-.535C31.32 42.036 48 34.762 48 20c0-7.168-5.832-13-13-13-4.055 0-7.617 1.926-10 4.844C22.617 8.926 19.055 7 15 7zm0 2c1.098 0 2.148.176 3.148.477A1.002 1.002 0 0 0 19 11c.473 0 .879-.332.98-.793a11.032 11.032 0 0 1 4.188 3.719l.719 1.082A1 1 0 0 0 24 16c0 .55.45 1 1 1s1-.45 1-1a1 1 0 0 0-.887-.992l.719-1.082a11.047 11.047 0 0 1 4.887-4.047.995.995 0 0 0-.219.621c0 .55.45 1 1 1s1-.45 1-1a.995.995 0 0 0-.797-.977A10.948 10.948 0 0 1 35 9c.52 0 1.031.047 1.531.117A.994.994 0 0 0 36 10c0 .55.45 1 1 1a1.002 1.002 0 0 0 .773-1.633 10.964 10.964 0 0 1 8.04 8.649A1.002 1.002 0 0 0 46 20a16.585 16.585 0 0 1-.376 3.508 1.002 1.002 0 0 0-1.125.992c0 .395.23.75.594.91a17.943 17.943 0 0 1-1.098 2.524 1 1 0 1 0-.543.957c-2.734 4.547-7.25 8.058-11.465 10.988A.996.996 0 0 0 31 39c-.55 0-1 .45-1 1 0 .371.207.71.531.883l-1.933 1.32A.978.978 0 0 0 28 42c-.55 0-1 .45-1 1 0 .094.016.188.043.281A45.89 45.89 0 0 0 25 44.777a45.265 45.265 0 0 0-2.043-1.496c.027-.093.043-.187.043-.281a1.002 1.002 0 0 0-1.598-.8c-.629-.427-1.27-.864-1.933-1.317.324-.172.531-.512.531-.883a1 1 0 1 0-1.992-.125c-4.211-2.926-8.727-6.438-11.461-10.984A1.002 1.002 0 0 0 8 28a1.002 1.002 0 0 0-2-.075 18.215 18.215 0 0 1-1.094-2.512A.945.945 0 0 0 5 25a1 1 0 0 0-.469-.848A16.426 16.426 0 0 1 4 20a1.002 1.002 0 0 0 .188-1.984 10.968 10.968 0 0 1 8.042-8.653A.996.996 0 0 0 12 10c0 .55.45 1 1 1s1-.45 1-1a.994.994 0 0 0-.531-.883C13.969 9.047 14.48 9 15 9zm-5 3c-.55 0-1 .45-1 1s.45 1 1 1 1-.45 1-1-.45-1-1-1zm6 0c-.55 0-1 .45-1 1s.45 1 1 1 1-.45 1-1-.45-1-1-1zm6 0c-.55 0-1 .45-1 1s.45 1 1 1 1-.45 1-1-.45-1-1-1zm12 0c-.55 0-1 .45-1 1s.45 1 1 1 1-.45 1-1-.45-1-1-1zm6 0c-.55 0-1 .45-1 1s.45 1 1 1 1-.45 1-1-.45-1-1-1zm-11.5.5c-.55 0-1 .45-1 1s.45 1 1 1 1-.45 1-1-.45-1-1-1zM7 15c-.55 0-1 .45-1 1s.45 1 1 1 1-.45 1-1-.45-1-1-1zm6 0c-.55 0-1 .45-1 1s.45 1 1 1 1-.45 1-1-.45-1-1-1zm6 0c-.55 0-1 .45-1 1s.45 1 1 1 1-.45 1-1-.45-1-1-1zm12 0c-.55 0-1 .45-1 1s.45 1 1 1 1-.45 1-1-.45-1-1-1zm6 0c-.55 0-1 .45-1 1s.45 1 1 1 1-.45 1-1-.45-1-1-1zm6 0c-.55 0-1 .45-1 1s.45 1 1 1 1-.45 1-1-.45-1-1-1zm-33 3c-.55 0-1 .45-1 1s.45 1 1 1 1-.45 1-1-.45-1-1-1zm6 0c-.55 0-1 .45-1 1s.45 1 1 1 1-.45 1-1-.45-1-1-1zm6 0c-.55 0-1 .45-1 1s.45 1 1 1 1-.45 1-1-.45-1-1-1zm6 0c-.55 0-1 .45-1 1s.45 1 1 1 1-.45 1-1-.45-1-1-1zm6 0c-.55 0-1 .45-1 1s.45 1 1 1 1-.45 1-1-.45-1-1-1zm6 0c-.55 0-1 .45-1 1s.45 1 1 1 1-.45 1-1-.45-1-1-1zM7 21c-.55 0-1 .45-1 1s.45 1 1 1 1-.45 1-1-.45-1-1-1zm6 0c-.55 0-1 .45-1 1s.45 1 1 1 1-.45 1-1-.45-1-1-1zm6 0c-.55 0-1 .45-1 1s.45 1 1 1 1-.45 1-1-.45-1-1-1zm6 0c-.55 0-1 .45-1 1s.45 1 1 1 1-.45 1-1-.45-1-1-1zm6 0c-.55 0-1 .45-1 1s.45 1 1 1 1-.45 1-1-.45-1-1-1zm6 0c-.55 0-1 .45-1 1s.45 1 1 1 1-.45 1-1-.45-1-1-1zm6 0c-.55 0-1 .45-1 1s.45 1 1 1 1-.45 1-1-.45-1-1-1zm-33 3c-.55 0-1 .45-1 1s.45 1 1 1 1-.45 1-1-.45-1-1-1zm6 0c-.55 0-1 .45-1 1s.45 1 1 1 1-.45 1-1-.45-1-1-1zm6 0c-.55 0-1 .45-1 1s.45 1 1 1 1-.45 1-1-.45-1-1-1zm6 0c-.55 0-1 .45-1 1s.45 1 1 1 1-.45 1-1-.45-1-1-1zm6 0c-.55 0-1 .45-1 1s.45 1 1 1 1-.45 1-1-.45-1-1-1zm6 0c-.55 0-1 .45-1 1s.45 1 1 1 1-.45 1-1-.45-1-1-1zm-27 3c-.55 0-1 .45-1 1s.45 1 1 1 1-.45 1-1-.45-1-1-1zm6 0c-.55 0-1 .45-1 1s.45 1 1 1 1-.45 1-1-.45-1-1-1zm6 0c-.55 0-1 .45-1 1s.45 1 1 1 1-.45 1-1-.45-1-1-1zm6 0c-.55 0-1 .45-1 1s.45 1 1 1 1-.45 1-1-.45-1-1-1zm6 0c-.55 0-1 .45-1 1s.45 1 1 1 1-.45 1-1-.45-1-1-1zm-27 3c-.55 0-1 .45-1 1s.45 1 1 1 1-.45 1-1-.45-1-1-1zm6 0c-.55 0-1 .45-1 1s.45 1 1 1 1-.45 1-1-.45-1-1-1zm6 0c-.55 0-1 .45-1 1s.45 1 1 1 1-.45 1-1-.45-1-1-1zm6 0c-.55 0-1 .45-1 1s.45 1 1 1 1-.45 1-1-.45-1-1-1zm6 0c-.55 0-1 .45-1 1s.45 1 1 1 1-.45 1-1-.45-1-1-1zm6 0c-.55 0-1 .45-1 1s.45 1 1 1 1-.45 1-1-.45-1-1-1zm-27 3c-.55 0-1 .45-1 1s.45 1 1 1 1-.45 1-1-.45-1-1-1zm6 0c-.55 0-1 .45-1 1s.45 1 1 1 1-.45 1-1-.45-1-1-1zm6 0c-.55 0-1 .45-1 1s.45 1 1 1 1-.45 1-1-.45-1-1-1zm6 0c-.55 0-1 .45-1 1s.45 1 1 1 1-.45 1-1-.45-1-1-1zm6 0c-.55 0-1 .45-1 1s.45 1 1 1 1-.45 1-1-.45-1-1-1zm-21 3c-.55 0-1 .45-1 1s.45 1 1 1 1-.45 1-1-.45-1-1-1zm6 0c-.55 0-1 .45-1 1s.45 1 1 1 1-.45 1-1-.45-1-1-1zm6 0c-.55 0-1 .45-1 1s.45 1 1 1 1-.45 1-1-.45-1-1-1zm6 0c-.55 0-1 .45-1 1s.45 1 1 1 1-.45 1-1-.45-1-1-1zm-9 3c-.55 0-1 .45-1 1s.45 1 1 1 1-.45 1-1-.45-1-1-1z"/></svg>