<svg xmlns="http://www.w3.org/2000/svg" viewBox="0 0 48 48"><path d="M40.3 15.7c.598-1.7 1.2-5-.402-8.7-4.5 0-8.296 3.2-8.898 3.8-2.2-.5-4.602-.698-7-.698-2.5 0-4.898.296-7.2.796C13.7 7.7 9.603 7 8 7c0 0-.898 1.8-.898 5 0 2 .5 3.2.796 3.8C5.5 18.3 4 21.7 4 26.103c0 11.199 7.102 15 20 15s20-3.801 20-15c0-4.602-1.398-8-3.7-10.403z" fill="#455a64"/><path d="M24 39c-8.2 0-15-1.398-15-9 0-2.898 1.602-4.5 2.7-5.5 2.5-2.2 6.698-1.2 12.3-1.2 4.102 0 7.602-.698 10.398.2A6.63 6.63 0 0 1 39 29.8c0 7.9-4 9.2-15 9.2z" fill="#ffccbc"/><path d="M25 34c0 .602-.398 1-1 1s-1-.398-1-1 .398-1 1-1 1 .398 1 1zm1.5 2.5c.2-.2.2-.5 0-.7a.487.487 0 0 0-.7 0c-.902.9-2.6.9-3.5 0a.484.484 0 0 0-.698 0c-.204.2-.204.5 0 .7.699.7 1.5 1 2.5 1s1.699-.398 2.398-1z" fill="#d84315"/><path d="M19 29.5c0 2.5-1.3 4.5-3 4.5s-3-2-3-4.5 1.3-4.5 3-4.5 3 2 3 4.5zM32 25c-1.7 0-3 2-3 4.5s1.3 4.5 3 4.5 3-2 3-4.5-1.3-4.5-3-4.5z" fill="#fff"/><path d="M34 30c0 1.7-.898 3-2 3-1.102 0-2-1.3-2-3 0-.2 0-.5.102-.7.097.4.5.7.898.7.602 0 1-.398 1-1s-.398-1-1-1c-.2 0-.398.102-.602.2.403-.7.903-1.2 1.602-1.2 1.102 0 2 1.3 2 3zm-18-3c-.7 0-1.2.5-1.602 1.2.204-.098.403-.2.602-.2.602 0 1 .398 1 1s-.398 1-1 1c-.398 0-.8-.3-.898-.7 0 .2-.102.5-.102.7 0 1.7.898 3 2 3 1.102 0 2-1.3 2-3s-.898-3-2-3z" fill="#6d4c41"/></svg>