<svg xmlns="http://www.w3.org/2000/svg" viewBox="0 0 64 64"><linearGradient id="a" gradientUnits="userSpaceOnUse" x1="32" y1="13.75" x2="32" y2="55.668" spreadMethod="reflect"><stop offset="0" stop-color="#6dc7ff"/><stop offset="1" stop-color="#e6abff"/></linearGradient><path d="M22.89 55.28c-.22-1.98-.42-5.01.09-7.17.45-1.95 2.93-12.43 2.93-12.43s-.75-1.5-.75-3.71c0-3.48 2.01-6.07 4.52-6.07 2.14 0 3.17 1.6 3.17 3.52 0 2.15-1.37 5.35-2.07 8.32-.59 2.49 1.24 4.52 3.7 4.52 4.44 0 7.86-4.68 7.86-11.45 0-5.98-4.3-10.17-10.45-10.17-7.11 0-11.28 5.34-11.28 10.85 0 2.15.82 4.45 1.86 5.71.2.24.23.46.17.71-.19.79-.61 2.49-.69 2.84-.11.46-.37.55-.84.33-3.12-1.45-5.08-6.01-5.08-9.68 0-7.89 5.73-15.13 16.52-15.13 8.68 0 15.42 6.18 15.42 14.44 0 8.61-5.44 15.55-12.98 15.55-2.53 0-4.91-1.32-5.73-2.87 0 0-1.25 4.77-1.55 5.94-.57 2.17-2.09 4.89-3.11 6.56" fill="url(#a)"/><linearGradient id="b" gradientUnits="userSpaceOnUse" x1="32" y1="3.25" x2="32" y2="60.02" spreadMethod="reflect"><stop offset="0" stop-color="#1a6dff"/><stop offset="1" stop-color="#c822ff"/></linearGradient><path d="M32 58C17.664 58 6 46.337 6 32S17.664 6 32 6s26 11.663 26 26-11.664 26-26 26zm0-50C18.767 8 8 18.767 8 32s10.767 24 24 24 24-10.767 24-24S45.233 8 32 8z" fill="url(#b)"/></svg>