<svg xmlns="http://www.w3.org/2000/svg" viewBox="0 0 50 50"><path d="M7 4C5.355 4 4 5.355 4 7v36c0 1.645 1.355 3 3 3h36c1.645 0 3-1.355 3-3V7c0-1.645-1.355-3-3-3zm0 2h36c.555 0 1 .445 1 1v36c0 .555-.445 1-1 1H7c-.555 0-1-.445-1-1V7c0-.555.445-1 1-1zm18 3.813l-.938 2.437-3.03 7.969-8.595.468-2.562.157 2 1.625 6.594 5.406-2.125 8.281-.657 2.469 2.157-1.375L25 32.594l7.156 4.656 2.157 1.375-.657-2.469-2.125-8.281 6.594-5.406 2-1.625-2.563-.157-8.593-.468-3.032-7.969zm0 5.593l2.375 6.156.219.594.656.032 6.656.375-5.125 4.156-.5.406.157.625 1.656 6.406-5.563-3.593-.531-.344-.531.343-5.563 3.594 1.657-6.406.156-.625-.5-.406-5.125-4.157 6.656-.375.656-.03.219-.595z"/></svg>