<svg xmlns="http://www.w3.org/2000/svg" viewBox="0 0 64 64"><path d="M48 43a6.993 6.993 0 0 0-4.059 1.3L23 32.603v-1.205L44 19.7a6.999 6.999 0 0 0 8.633-.496 6.998 6.998 0 0 0 1.562-8.508 7.006 7.006 0 0 0-7.894-3.53A7.003 7.003 0 0 0 41 14a7.193 7.193 0 0 0 0 .71L20.148 26.372a7.002 7.002 0 0 0-9.347.93 7.004 7.004 0 0 0 0 9.398 7.002 7.002 0 0 0 9.347.93L41 49.289A7.193 7.193 0 0 0 41 50c0 3.867 3.133 7 7 7s7-3.133 7-7-3.133-7-7-7z" fill="#72caaf"/><path d="M55 14c0 3.867-3.133 7-7 7s-7-3.133-7-7 3.133-7 7-7 7 3.133 7 7zm0 36c0 3.867-3.133 7-7 7s-7-3.133-7-7 3.133-7 7-7 7 3.133 7 7z" fill="#81d6bb"/><path d="M48 42a7.936 7.936 0 0 0-4.102 1.129L24 32l19.898-11.129.18.09.563.289.39.172.54.187.429.13c.2.05.398.09.602.12l.386.07c.336.048.676.071 1.012.071a8 8 0 1 0-8-8c-6.988-7.93 0 .102 0 .14L20.2 25.2A7.933 7.933 0 0 0 16 24a8 8 0 0 0 0 16 7.933 7.933 0 0 0 4.2-1.2L40 49.86V50c.004.336.027.668.07 1v.27c.04.253.094.503.16.75 0 .082 0 .16.06.242.089.304.194.605.32.898l.109.238c.101.211.21.422.332.633.12.207.058.117.09.18l.058.07A8.001 8.001 0 1 0 48 42zm0 14a6.007 6.007 0 0 1-5.172-3 5.39 5.39 0 0 1-.25-.469l-.09-.18a6.863 6.863 0 0 1-.238-.671v-.192a8.87 8.87 0 0 1-.121-.558v-.211a5.652 5.652 0 0 1 0-1.36c.062-.59.21-1.172.441-1.718a1.008 1.008 0 0 0-.097-1.02 1 1 0 1 0-1.742.238c-.118.282-.22.57-.301.86l-19.692-11a1.008 1.008 0 0 0-1.078.07A5.98 5.98 0 0 1 16 38c-3.313 0-6-2.688-6-6 0-3.313 2.688-6 6-6 1.277.004 2.52.41 3.55 1.172a1 1 0 0 0 1.079.066l20.89-11.66a.998.998 0 0 0 .512-1 6.06 6.06 0 1 1 5.14 5.32h-.273l-.558-.128-.27-.079a6.694 6.694 0 0 1-.672-.27h-.09a6.533 6.533 0 0 1-.757-.46 6.083 6.083 0 0 1-1.422-1.39 1.005 1.005 0 0 0-.922-.446.994.994 0 0 0-.828.602.988.988 0 0 0 .133 1.011c.215.297.453.578.707.84l-19.73 11c-.356.2-.56.594-.509 1v1.024c-.05.406.153.8.508 1l21 11.699a1 1 0 0 0 1.07-.063 6.007 6.007 0 0 1 7.153-.105 5.997 5.997 0 0 1 2.176 6.808A6.008 6.008 0 0 1 48 56zM16 21c.55 0 1-.45 1-1v-2c0-.55-.45-1-1-1s-1 .45-1 1v2c0 .55.45 1 1 1zm-6.871 1.11a.998.998 0 0 0 1.344.328.996.996 0 0 0 .386-1.329l-1-1.73a.994.994 0 0 0-.87-.535 1.002 1.002 0 0 0-.86 1.535zM6.11 25.129l-1.731-1a1.002 1.002 0 0 0-1.535.86c.004.366.21.702.535.87l1.73 1a.975.975 0 0 0 .5.13 1 1 0 0 0 .973-.739.996.996 0 0 0-.473-1.129zM5 32c0-.55-.45-1-1-1H2c-.55 0-1 .45-1 1s.45 1 1 1h2c.55 0 1-.45 1-1zm11 11c-.55 0-1 .45-1 1v2c0 .55.45 1 1 1s1-.45 1-1v-2c0-.55-.45-1-1-1zm-5.5-1.469a.982.982 0 0 0-.762-.101c-.258.07-.476.238-.61.468l-1 1.73a1.005 1.005 0 0 0 .388 1.333 1 1 0 0 0 1.343-.332l1-1.73a.988.988 0 0 0 .106-.758.988.988 0 0 0-.465-.61zm-5.39-4.402l-1.731 1a1.005 1.005 0 0 0-.024 1.762c.32.175.715.168 1.024-.032l1.73-1a.994.994 0 0 0 .536-.87 1.002 1.002 0 0 0-1.535-.86z" fill="#8d6c9f"/></svg>