<svg xmlns="http://www.w3.org/2000/svg" viewBox="0 0 50 50"><path d="M40 0c-5.465 0-9.922 4.398-10 9.844V10c0 3.688 1.996 6.89 4.969 8.625A9.959 9.959 0 0 0 40 20c5.516 0 10-4.484 10-10S45.516 0 40 0zM28.062 10.844l-10.218 5.125c2.379 2.062 3.941 5.031 4.125 8.375l10.343-5.188a11.95 11.95 0 0 1-4.25-8.312zM10 15C4.484 15 0 19.484 0 25s4.484 10 10 10a9.9 9.9 0 0 0 5.531-1.688C18.215 31.52 20 28.473 20 25c0-3.59-1.91-6.734-4.75-8.5A9.876 9.876 0 0 0 10 15zm11.969 10.656a12 12 0 0 1-4.094 8.407l10.188 5.093a11.94 11.94 0 0 1 4.218-8.312zM40 30a9.916 9.916 0 0 0-5.563 1.719C31.77 33.516 30 36.543 30 40v.031c-.043.004-.082.028-.125.032l.125.062C30.066 45.582 34.527 50 40 50c5.516 0 10-4.484 10-10s-4.484-10-10-10z"/></svg>