<svg xmlns="http://www.w3.org/2000/svg" viewBox="0 0 50 50"><path d="M16 2c-2.14 0-4 1.75-4 4-2.184 0-4 1.816-4 4-2.746 0-5 2.254-5 5v22c0 2.746 2.254 5 5 5h11.531L25 48.563 30.469 42H42c2.746 0 5-2.254 5-5V15c0-2.746-2.254-5-5-5 0-2.14-1.75-4-4-4 0-2.21-1.79-4-4-4zm0 2h18c1.191 0 2 .809 2 2H14c0-1.152.941-2 2-2zm-4 4h26c1.152 0 2 .941 2 2H10c0-1.016.984-2 2-2zm-4 4h34a3 3 0 0 1 3 3v22a3 3 0 0 1-3 3H29.531L25 45.438 20.469 40H8a3 3 0 0 1-3-3V15a3 3 0 0 1 3-3zm12 3c-1.7 0-3 1.3-3 3v11c0 4.602 3.398 8 8 8h5c1.7 0 3-1.3 3-3s-1.3-3-3-3h-5c-1.2 0-2-.8-2-2v-3h7c1.7 0 3-1.3 3-3s-1.3-3-3-3h-7v-2c0-1.7-1.3-3-3-3zm0 2c.602 0 1 .398 1 1v4h9c.602 0 1 .398 1 1s-.398 1-1 1h-9v5c0 2.3 1.7 4 4 4h5c.602 0 1 .398 1 1s-.398 1-1 1h-5c-3.5 0-6-2.5-6-6V18c0-.602.398-1 1-1z"/></svg>