<svg xmlns="http://www.w3.org/2000/svg" viewBox="0 0 40 40"><path d="M12.95 35c-3.458 0-6.84-.824-9.895-2.395a16.063 16.063 0 0 0 9.797-3.44l1.105-.868-1.406-.027a7.288 7.288 0 0 1-6.524-4.305c.235.02.465.027.7.027.742 0 1.476-.097 2.183-.289l2.04-.558-2.071-.415c-3.152-.632-5.504-3.28-5.816-6.437a8.322 8.322 0 0 0 2.98.656l1.746.059-1.453-.973a7.29 7.29 0 0 1-3.246-6.07c0-1.05.226-2.082.652-3.027a22.7 22.7 0 0 0 15.945 7.75l.66.035-.148-.645a7.419 7.419 0 0 1-.187-1.664c0-4.023 3.273-7.297 7.297-7.297 2.011 0 3.953.84 5.328 2.305l.187.2.274-.052a16.115 16.115 0 0 0 3.851-1.28 6.951 6.951 0 0 1-2.594 2.741l-.398.239.363.73.367-.016a15.524 15.524 0 0 0 2.876-.629 15.304 15.304 0 0 1-2.747 2.547l-.218.157.011.27c.016.327.024.66.024.987 0 10.66-8.11 21.684-21.684 21.684z" fill="#dff0fe"/><path d="M27.309 5.617a6.82 6.82 0 0 1 4.96 2.145l.38.406.542-.11a16.39 16.39 0 0 0 2.364-.648 6.44 6.44 0 0 1-1.457 1.192l-.79.507.426.836.317.621.695-.086c.426-.05.844-.117 1.254-.203-.465.438-.957.844-1.477 1.22l-.437.316.023.539c.012.32.02.64.02.964 0 10.414-7.922 21.184-21.18 21.184-2.726 0-5.406-.523-7.906-1.535a16.44 16.44 0 0 0 8.113-3.41l2.215-1.735-2.812-.05a6.804 6.804 0 0 1-5.692-3.278 8.838 8.838 0 0 0 2.176-.308l4.074-1.114-4.14-.832a6.815 6.815 0 0 1-5.29-5.183 8.788 8.788 0 0 0 2.336.394l3.497.113-2.907-1.94A6.787 6.787 0 0 1 3.59 9.964c0-.715.113-1.418.328-2.09a23.18 23.18 0 0 0 15.746 7.313l1.32.066-.297-1.29a6.804 6.804 0 0 1 6.621-8.348m0-.999a7.799 7.799 0 0 0-7.593 9.57 22.116 22.116 0 0 1-16.07-8.144A7.76 7.76 0 0 0 2.59 9.965a7.79 7.79 0 0 0 3.469 6.488 7.76 7.76 0 0 1-3.532-.976v.097a7.8 7.8 0 0 0 6.254 7.645 7.901 7.901 0 0 1-3.523.137c.996 3.093 3.87 5.351 7.285 5.414a15.652 15.652 0 0 1-9.684 3.335c-.629 0-1.25-.035-1.859-.109A22.037 22.037 0 0 0 12.95 35.5c14.34 0 22.183-11.879 22.183-22.184 0-.336-.008-.671-.024-1.007A15.857 15.857 0 0 0 39 8.273a15.236 15.236 0 0 1-4.375 1.215l-.016-.027c1.614-.965 2.758-2.453 3.34-4.274A15.618 15.618 0 0 1 33 7.079a7.785 7.785 0 0 0-5.691-2.46z" fill="#4788c7"/></svg>