<svg xmlns="http://www.w3.org/2000/svg" viewBox="0 0 64 64"><path d="M13 6c-3.86 0-7 3.14-7 7v38c0 3.86 3.14 7 7 7h38c3.86 0 7-3.14 7-7V13c0-3.86-3.14-7-7-7zm0 2h38c2.758 0 5 2.242 5 5v38c0 2.758-2.242 5-5 5H13c-2.758 0-5-2.242-5-5V15a1 1 0 1 0 2 0v-2a1 1 0 1 0-2 0c0-2.758 2.242-5 5-5zm1 4a1 1 0 0 0-1 1v2a1 1 0 1 0 2 0v-2a1 1 0 0 0-1-1zm5 0a1 1 0 0 0-1 1v2a1 1 0 1 0 2 0v-2a1 1 0 0 0-1-1zm5 0a1 1 0 0 0-1 1v2a1 1 0 1 0 2 0v-2a1 1 0 0 0-1-1zm5 0a1 1 0 0 0-1 1v2a1 1 0 1 0 2 0v-2a1 1 0 0 0-1-1zm5 0a1 1 0 0 0-1 1v2a1 1 0 1 0 2 0v-2a1 1 0 0 0-1-1zm5 0a1 1 0 0 0-1 1v2a1 1 0 1 0 2 0v-2a1 1 0 0 0-1-1zm5 0a1 1 0 0 0-1 1v2a1 1 0 1 0 2 0v-2a1 1 0 0 0-1-1zm5 0a1 1 0 0 0-1 1v2a1 1 0 1 0 2 0v-2a1 1 0 0 0-1-1zm5 0a1 1 0 0 0-1 1v2a1 1 0 1 0 2 0v-2a1 1 0 0 0-1-1zM29.145 22.734c-1.532.028-2.79.157-3.696.602-.66.324-1.656 1.172-1.512 2.07.079.48.461.848.95.914.363.047.86.203 1.058.473.262.355.39 1.418.387 2.129.133 1.914-.004 3.984-.285 4.652-.324-.215-1.129-1.015-2.86-4.008-1.14-1.968-2.023-4.183-2.03-4.21-.052-.114-.305-.711-.817-1.086-.543-.395-1.203-.52-1.328-.54-.059-.011-.086-.023-.172-.015l-5.594.035c-.305.012-1.328.086-1.883.742-.601.715-.3 1.703-.175 2.031.18.426 4.492 10.434 9.5 15.649 4.648 4.844 9.894 4.734 10.417 4.715h2.305c.04 0 .074 0 .11-.008.183-.02 1.105-.149 1.687-.777.578-.622.594-1.54.59-1.715-.016-1.207.34-2.508.668-2.621.387.039 1.37 1.168 1.96 1.843.766.875 1.555 1.782 2.43 2.383 1.22.84 2.278.988 2.868.988.16 0 .285-.011.37-.023l5.188-.07c.309-.02 1.875-.176 2.496-1.356.258-.496.422-1.328-.277-2.496-.852-1.555-2.668-3.398-4.04-4.676l-.093-.082c-.945-.879-1.758-1.632-1.765-1.953-.008-.394.765-1.394 1.746-2.664.39-.5.836-1.078 1.34-1.75 3.382-4.508 3.511-6.027 3.19-6.914-.503-1.414-2.51-1.305-3.046-1.246l-5.758.035c-.234-.02-.808-.027-1.316.277-.54.32-.836.899-.942 1.137-.007.024-.914 2.414-2.093 4.414-1.598 2.715-2.457 3.586-2.82 3.864-.204-.473-.176-1.555-.157-2.184.008-.254.016-.5.016-.73 0-.977.035-1.817.062-2.543.102-2.477.18-4.434-2.101-4.985-.723-.176-1.25-.281-2.957-.3-.57-.005-1.11-.008-1.621 0zm1.601 2c1.563.02 1.961.114 2.508.246.562.137.68.258.57 2.957-.031.75-.062 1.622-.062 2.625 0 .215-.008.442-.016.676-.039 1.457-.09 3.274 1.219 4.121.347.223.773.29 1.2.188.75-.18 1.917-.899 4.284-4.918 1.266-2.149 2.2-4.625 2.211-4.66.02-.04.098-.168.102-.18.027-.012.097-.012.129-.012.05.008.105.012.14.008l5.867-.035a.999.999 0 0 0 .11-.008c.336-.039.754-.015.976.04-.047.382-.422 1.628-2.898 4.933-.496.66-.938 1.226-1.32 1.723-3.012 3.894-2.801 4.484.242 7.308l.09.082c1.789 1.656 3.082 3.137 3.64 4.168l.059.098c.215.351.203.508.207.508-.07.101-.484.261-.8.285l-5.204.07a.981.981 0 0 0-.156.016c-.032.004-.793.101-1.86-.63-.664-.456-1.367-1.265-2.05-2.046-1.133-1.297-2.211-2.531-3.45-2.531a1.9 1.9 0 0 0-.582.09c-2.058.652-2.113 3.91-2.105 4.55 0 .121-.035.297-.05.332-.06.051-.255.121-.403.149h-2.266c-.015 0-.035 0-.055.004-.187.011-4.761.199-8.894-4.106-4.727-4.918-9.008-14.824-9.086-15.004.082-.02.168-.027.234-.031l5.461-.035a1.3 1.3 0 0 1 .414.168c.04.031.118.148.145.215.039.097.941 2.37 2.156 4.472C23.7 34.453 25.25 36.371 27 35.422c1.418-.774 1.504-4.04 1.328-6.559.004-.36-.012-2.218-.773-3.254-.2-.27-.438-.488-.696-.656 1.036-.246 2.707-.23 3.887-.219z"/></svg>