<svg xmlns="http://www.w3.org/2000/svg" viewBox="0 0 24 24"><path d="M21.8 0H2.2C.983 0 0 .984 0 2.2v19.6C0 23.017.984 24 2.2 24h19.6c1.216 0 2.2-.984 2.2-2.2V2.2C24 .983 23.016 0 21.8 0zm-2.75 14.09c1.442 1.34 1.74 1.988 1.79 2.07.598.988-.66 1.067-.66 1.067l-2.407.035s-.515.101-1.195-.367c-.898-.618-1.75-2.223-2.406-2.012-.672.21-.652 1.656-.652 1.656s.007.254-.145.422c-.168.176-.492.156-.492.156h-1.074s-2.375.2-4.465-1.976C5.062 12.766 3.05 8.078 3.05 8.078s-.117-.293.008-.441c.14-.168.527-.172.527-.172l2.57-.016s.242.043.418.168a.784.784 0 0 1 .223.305s.418 1.05.965 2.004c1.078 1.855 1.578 2.261 1.941 2.062.531-.293.371-2.625.371-2.625s.012-.847-.265-1.226c-.215-.29-.621-.375-.801-.399-.145-.02.094-.355.402-.508.461-.222 1.277-.238 2.246-.226.75.008.969.055 1.262.125.887.215.586 1.043.586 3.023 0 .637-.113 1.528.344 1.825.199.128.68.02 1.882-2.028.575-.969 1-2.11 1-2.11s.094-.202.243-.288c.148-.09.347-.063.347-.063l2.707-.015s.813-.098.946.27c.136.386-.305 1.284-1.41 2.757-1.817 2.418-2.016 2.191-.512 3.59z"/></svg>