<svg xmlns="http://www.w3.org/2000/svg" viewBox="0 0 24 24"><path d="M16.281 3.813a5.102 5.102 0 0 0-.687.093.767.767 0 0 0 .312 1.5A3.79 3.79 0 0 1 19.5 6.563a3.772 3.772 0 0 1 .781 3.687.775.775 0 0 0 .5.969.777.777 0 0 0 .969-.5c.563-1.742.219-3.703-1.094-5.156a5.356 5.356 0 0 0-3.718-1.75 5.255 5.255 0 0 0-.657 0zm-6.218 2.28c-1.395.15-3.364 1.239-5.094 2.97C3.082 10.948 2 12.957 2 14.686 2 17.997 6.227 20 10.375 20c5.438 0 9.063-3.18 9.063-5.688 0-1.515-1.258-2.363-2.407-2.718-.281-.086-.492-.13-.343-.5.32-.805.378-1.504.03-2-.648-.93-2.464-.883-4.5-.031 0 0-.632.289-.468-.22.313-1.007.27-1.855-.219-2.343-.344-.348-.836-.473-1.469-.406zm6.75.407a2.479 2.479 0 0 0-.657.063c-.355.074-.578.457-.5.812a.654.654 0 0 0 .781.5c.426-.09.907.027 1.22.375.312.348.386.805.25 1.219-.114.347.058.73.405.844.348.109.735-.06.844-.407a2.59 2.59 0 0 0-.531-2.531 2.646 2.646 0 0 0-1.813-.875zm-6 4.406c2.769.098 5 1.473 5.187 3.375.215 2.176-2.281 4.203-5.594 4.531-3.312.329-6.191-1.171-6.406-3.343-.215-2.176 2.316-4.203 5.625-4.531.414-.04.793-.047 1.188-.032zM8.937 13c-1.132.102-2.203.75-2.687 1.688-.66 1.277-.008 2.69 1.5 3.156 1.559.48 3.39-.246 4.031-1.625.63-1.348-.176-2.746-1.719-3.125A3.314 3.314 0 0 0 8.938 13zm-.718 2.063a1.1 1.1 0 0 1 .375.093c.488.2.64.723.344 1.188-.305.46-.95.683-1.438.468-.48-.21-.617-.738-.313-1.187.227-.336.637-.566 1.032-.563z"/></svg>