<svg xmlns="http://www.w3.org/2000/svg" viewBox="0 0 50 50"><path d="M25 4C13.441 4 4.035 13.41 4.031 24.969c0 3.535.91 6.984 2.594 10.062L3.906 45.063a.997.997 0 0 0 .262.957c.25.25.613.351.957.261l10.25-2.687c2.969 1.539 6.258 2.375 9.625 2.375 11.559 0 20.996-9.41 21-20.969.004-5.598-2.2-10.883-6.156-14.844A20.884 20.884 0 0 0 25 4zm0 2c5.086 0 9.848 1.969 13.438 5.563A18.877 18.877 0 0 1 44 25c-.004 10.473-8.527 18.969-19 18.969-3.18 0-6.29-.801-9.063-2.313a1.003 1.003 0 0 0-.75-.093l-8.906 2.343 2.375-8.687a1.003 1.003 0 0 0-.094-.75 19.002 19.002 0 0 1-2.53-9.5C6.034 14.496 14.526 6 25 6zm-7.063 8.75c-.582 0-1.394.21-2.062.938-.367.402-2.031 2.035-2.031 4.843 0 2.942 2.015 5.469 2.25 5.782-.035-.047.312.425.75 1a27.45 27.45 0 0 0 1.812 2.156c1.535 1.636 3.684 3.523 6.375 4.687 1.235.532 2.203.86 2.938 1.094 1.39.441 2.652.39 3.593.25.739-.11 1.508-.473 2.282-.969.773-.496 1.527-1.093 1.875-2.062a7.35 7.35 0 0 0 .406-1.813c.023-.254.047-.472.031-.687-.015-.215-.004-.395-.218-.75-.438-.727-.915-.707-1.376-.938-.261-.129-.98-.52-1.718-.875-.739-.355-1.36-.66-1.782-.812-.253-.094-.574-.211-1.062-.157-.488.055-.984.415-1.25.813-.21.316-1.027 1.316-1.375 1.719-.008-.004-.023.004-.031 0-.38-.188-.801-.317-1.438-.657a11.96 11.96 0 0 1-2.343-1.656c-1.297-1.156-2.165-2.574-2.47-3.093.286-.297.544-.602.75-.844v-.032c.333-.386.505-.726.657-1.03.324-.65.117-1.376-.063-1.75v-.032c.004.004-.078-.207-.187-.469-.117-.277-.277-.648-.438-1.031-.316-.77-.664-1.617-.875-2.125-.253-.613-.609-1.082-1.093-1.313-.485-.23-.918-.156-.907-.156a20.56 20.56 0 0 0-1-.031zm0 2c.325 0 .645.02.907.031.078.004.086 0 .125 0 .023.04.066.078.125.219.207.492.558 1.383.875 2.156.16.387.32.746.437 1.032.117.285.172.433.25.593-.152.313-.152.438-.312.625-.278.324-.555.68-.688.813-.129.129-.402.351-.562.781-.16.43-.063 1.008.187 1.438.317.542 1.344 2.269 2.969 3.718 1.02.91 1.957 1.5 2.719 1.907.761.406 1.383.66 1.5.718.34.172.726.305 1.187.25.461-.054.852-.347 1.094-.625.293-.336 1.102-1.308 1.563-1.968.035.007-.024 0 .062.03.035.012.867.4 1.594.75.726.352 1.48.723 1.718.845.297.148.426.214.47.218.003.063.007.121 0 .219-.028.332-.137.785-.313 1.281-.07.196-.492.7-1.063 1.063-.57.363-1.277.625-1.5.656-.781.117-1.715.164-2.718-.156a28.652 28.652 0 0 1-2.75-1.032c-2.317-1-4.301-2.707-5.72-4.218a24.302 24.302 0 0 1-1.655-1.969c-.403-.531-.59-.816-.75-1.031-.266-.356-1.844-2.59-1.844-4.563 0-2.105.953-2.87 1.5-3.468.25-.274.511-.313.593-.313z"/></svg>