<svg xmlns="http://www.w3.org/2000/svg" viewBox="0 0 26 26"><path d="M21.125 0H4.875A4.876 4.876 0 0 0 0 4.875v16.25A4.876 4.876 0 0 0 4.875 26h16.25A4.876 4.876 0 0 0 26 21.125V4.875A4.876 4.876 0 0 0 21.125 0zM7.52 17.047h-2.9a.432.432 0 0 1-.379-.2c-.078-.124-.082-.285 0-.445l3.082-5.437v-.016l-1.96-3.394c-.083-.16-.094-.32-.02-.446.074-.12.222-.18.394-.18H8.64c.445 0 .664.286.804.544l1.996 3.476-3.129 5.535c-.148.27-.359.563-.792.563zM21.73 3.59l-6.42 11.35c-.004.008-.004.012 0 .02l4.09 7.469c.081.164.081.324.003.449-.074.117-.207.183-.382.183H16.12c-.441 0-.664-.292-.808-.55 0 0-4.11-7.54-4.122-7.559.207-.363 6.454-11.441 6.454-11.441.156-.282.343-.551.777-.551h2.93c.171 0 .312.062.382.184.078.12.078.285-.004.445z"/></svg>