<svg xmlns="http://www.w3.org/2000/svg" viewBox="0 0 24 24"><path d="M11.137 2.012c-1.207.043-3.774.824-4.305 1.379-.195.207-.289.476-.23.703.097.199 4.152 6.668 4.152 6.668.601.988 1.094.832 1.254.781.16-.05.644-.2.59-1.355-.059-1.348-.442-7.348-.489-7.63-.066-.253-.28-.449-.562-.523a1.62 1.62 0 0 0-.41-.023zm6.125 5.91a.655.655 0 0 0-.336.105c-.13.086-.227.211-2.024 2.707 0 0-.808 1.137-.82 1.149-.215.262-.207.637 0 .96.219.34.563.512.898.419 0 0 .004.02 0 .027a8.77 8.77 0 0 1 1-.285c3.356-.828 3.48-.852 3.614-.941.199-.137.297-.391.281-.676v-.028c-.086-.836-1.52-3.004-2.23-3.359a.812.812 0 0 0-.383-.078zm-11.274 3.36c-.246-.009-.465.124-.617.366-.316.524-.441 2.141-.332 3.23.04.36.086.68.18.856.129.25.343.383.59.395.156.004.277-.027 3.226-.992 0 0 1.3-.414 1.309-.418.324-.082.539-.39.562-.781.02-.399-.18-.758-.511-.883l-.922-.39c-3.176-1.333-3.325-1.38-3.485-1.384zm9.043 3.671a.88.88 0 0 0-.691.34c-.25.312-.277.734-.078 1.043l.511.86c1.754 2.894 1.899 3.074 2.024 3.175.195.156.433.184.691.078.75-.3 2.371-2.394 2.489-3.203.039-.281-.043-.52-.235-.676-.125-.097-.222-.133-3.176-1.12 0 0-1.289-.434-1.304-.442a.685.685 0 0 0-.23-.055zm-3.586.938a.791.791 0 0 0-.437.289l-.64.78c-2.227 2.653-2.306 2.759-2.356 2.915a.721.721 0 0 0-.051.313.68.68 0 0 0 .176.39c.515.625 3.004 1.547 3.793 1.406.273-.05.453-.18.539-.414.05-.156.066-.258.078-3.414 0 0-.004-1.39 0-1.406.02-.34-.184-.664-.54-.805a.974.974 0 0 0-.562-.054z"/></svg>