<svg xmlns="http://www.w3.org/2000/svg" viewBox="0 0 50 50"><path d="M21.34 2.008c-2.797.105-8.59 1.847-9.852 3.148-.48.457-.601 1.145-.48 1.602.238.457 9.969 15.222 9.969 15.222 1.441 2.29 2.191 2.036 2.554 1.922.36-.117 1.559-.547 1.32-3.293-.12-3.093-1.081-16.71-1.199-17.398-.242-.57-.601-1.031-1.324-1.148-.254-.055-.59-.07-.988-.055zM36.64 16a1.444 1.444 0 0 0-.792.27c-.75.738-.485.214-4.801 5.933l-2.043 2.629c-.48.57-.367 1.527.113 2.215.48.687 1.133 1.05 2.047.875.36-.117 1.082-.23 2.398-.574 8.282-1.828 8.356-1.817 8.72-2.043.476-.344.718-.801.718-1.489v-.113c-.242-1.828-3.793-6.746-5.473-7.547a2.196 2.196 0 0 0-.886-.156zM9.39 23.969c-.48 0-1.081.23-1.445.8-.84 1.149-1.097 4.801-.86 7.32.122.802.243 1.454.481 1.911.36.574.84.918 1.442.918.36 0 .086-.105 7.293-2.164l3.246-1.031c.84-.23 1.426-.805 1.426-1.72 0-.913-.446-1.671-1.285-2.015l-2.282-.914C9.598 23.98 9.75 23.97 9.391 23.97zm21.704 8.054c-.625-.046-1.211.11-1.657.586-.386.422-.68 1.621-.199 2.309l1.32 1.941c4.325 6.641 4.348 6.98 4.708 7.211.48.457 1.082.461 1.683.23 1.922-.687 5.68-5.237 5.918-7.07.121-.57-.117-1.144-.601-1.714-.239-.23-.739-.313-7.47-2.403l-3.077-.976a3.188 3.188 0 0 0-.625-.114zm-8.032 2.008c-.644-.07-1.265.059-1.625.574l-1.562 1.829c-5.406 6.066-5.645 6.41-5.766 6.754-.12.23-.12.457-.12.687.12.34.241.57.48.914 1.32 1.375 7.156 3.52 9.078 3.176.601-.113 1.082-.461 1.32-1.031.121-.344.117-.57.117-7.782v-3.32c.004-1.004-.437-1.336-1.28-1.68a3.564 3.564 0 0 0-.642-.12z"/></svg>