<svg xmlns="http://www.w3.org/2000/svg" viewBox="0 0 48 48"><path d="M10.7 32.7c-.5 0-.9-.302-1.2-.802-.2-.398-.3-1-.398-1.699-.204-2.199 0-5.5.699-6.5.3-.5.8-.699 1.199-.699.3 0 .602.102 7.102 2.8l1.898.802c.7.296 1.102 1 1.102 1.796 0 .801-.5 1.403-1.204 1.602l-2.699.898C11.2 32.7 11 32.7 10.7 32.7zM24 36.3c0 6.302 0 6.5-.102 6.802-.199.5-.597.796-1.097.898-1.602.3-6.602-1.602-7.7-2.8-.203-.302-.3-.5-.402-.802 0-.199 0-.398.102-.597.097-.301.3-.602 4.8-5.903l1.297-1.597c.403-.602 1.301-.7 2-.5.704.3 1.204.898 1.102 1.597v2.903zm-1.2-13.402c-.3.102-1.3.403-2.5-1.597 0 0-8.1-12.903-8.3-13.301-.102-.398 0-1 .398-1.398C13.602 5.3 20.102 3.5 21.801 3.898c.597.102.898.5 1.097 1 .102.602.903 12.5 1 15.204.204 2.398-.796 2.699-1.097 2.796zm4.4 3c-.4-.597-.4-1.398 0-1.898l1.698-2.3c3.602-5 3.801-5.302 4.102-5.4.398-.3.898-.3 1.398-.1 1.403.698 4.403 5.1 4.602 6.698V23c0 .602-.2 1-.602 1.3-.296.2-.5.302-7.398 1.9-1.102.3-1.7.402-2 .5v-.098c-.602.296-1.398-.102-1.8-.704zm11.698 8.5c-.199 1.602-3.5 5.801-5.097 6.403-.5.199-1 .199-1.403-.2-.296-.203-.5-.601-4.097-6.402L27.199 32.5c-.398-.602-.3-1.398.2-2.102.5-.597 1.203-.796 1.902-.597l2.699.898c6 2 6.2 2 6.398 2.2.403.5.602 1 .5 1.5z" fill="#dd2c00"/></svg>