<svg xmlns="http://www.w3.org/2000/svg" viewBox="0 0 16 16"><path d="M8 2c-2.04 0-3.844.21-4.941.375A2.136 2.136 0 0 0 1.28 4.113C1.141 4.903 1 6.055 1 7.5s.14 2.598.281 3.387a2.14 2.14 0 0 0 1.778 1.738C4.16 12.789 5.973 13 8 13c2.027 0 3.836-.21 4.938-.375h.003a2.136 2.136 0 0 0 1.778-1.738c.14-.793.281-1.946.281-3.387 0-1.445-.14-2.598-.285-3.387a2.128 2.128 0 0 0-1.774-1.738A34.22 34.22 0 0 0 8 2zm0 1c1.969 0 3.73.203 4.793.363.469.07.848.438.937.926.133.738.27 1.832.27 3.211 0 1.379-.137 2.473-.266 3.207-.09.492-.468.86-.941.93A34.01 34.01 0 0 1 8 12c-1.957 0-3.727-.207-4.793-.363a1.136 1.136 0 0 1-.941-.93A18.663 18.663 0 0 1 2 7.5c0-1.383.137-2.473.266-3.21.09-.49.468-.856.937-.923h.004A33.042 33.042 0 0 1 8 3zM6 5v5l5-2.5z"/></svg>