<svg xmlns="http://www.w3.org/2000/svg" viewBox="0 0 64 64"><path d="M59.922 17.504a8.686 8.686 0 0 0-7.64-7.406l-3.083-.344a155.816 155.816 0 0 0-34.398 0l-3.082.344a8.686 8.686 0 0 0-7.64 7.406 107.49 107.49 0 0 0-.177 29.07l.239 1.824a8.664 8.664 0 0 0 7.652 7.512l3.008.336a156.12 156.12 0 0 0 34.394 0l3.008-.336a8.667 8.667 0 0 0 7.656-7.508l.239-1.828a107.49 107.49 0 0 0-.176-29.07z" fill="#ed7899"/><path d="M8.023 50c-1.761 0-2.683 2.137-1.445 3.387a8.639 8.639 0 0 0 5.215 2.523l3.008.336a156.12 156.12 0 0 0 34.394 0l3.008-.336a8.65 8.65 0 0 0 5.219-2.523c1.238-1.25.316-3.387-1.445-3.387z" fill="#e0678f"/><path d="M55.977 16.195c1.761 0 2.683-2.133 1.445-3.386a8.66 8.66 0 0 0-5.215-2.524l-3.008-.336a156.119 156.119 0 0 0-34.398 0l-3.004.336a8.639 8.639 0 0 0-5.219 2.524c-1.238 1.25-.312 3.386 1.445 3.386z" fill="#f283a5"/><path d="M25.473 41.895L25.469 24l16.277 8.977z" fill="#faefde"/><path d="M14 14a1 1 0 0 0-1 1v2a1 1 0 1 0 2 0v-2a1 1 0 0 0-1-1zm-5 0a1 1 0 0 0-1 1v2a1 1 0 1 0 2 0v-2a1 1 0 0 0-1-1zm20 4a1 1 0 0 0 1-1v-2a1 1 0 1 0-2 0v2a1 1 0 0 0 1 1zm5 0a1 1 0 0 0 1-1v-2a1 1 0 1 0-2 0v2a1 1 0 0 0 1 1zm5 0a1 1 0 0 0 1-1v-2a1 1 0 1 0-2 0v2a1 1 0 0 0 1 1zm5-4a1 1 0 0 0-1 1v2a1 1 0 1 0 2 0v-2a1 1 0 0 0-1-1zm5 0a1 1 0 0 0-1 1v2a1 1 0 1 0 2 0v-2a1 1 0 0 0-1-1zm5 0a1 1 0 0 0-1 1v2a1 1 0 1 0 2 0v-2a1 1 0 0 0-1-1zm-35 0a1 1 0 0 0-1 1v2a1 1 0 1 0 2 0v-2a1 1 0 0 0-1-1zm5 4a1 1 0 0 0 1-1v-2a1 1 0 1 0-2 0v2a1 1 0 0 0 1 1zM14 48a1 1 0 0 0-1 1v2a1 1 0 1 0 2 0v-2a1 1 0 0 0-1-1zm-5 0a1 1 0 0 0-1 1v2a1 1 0 1 0 2 0v-2a1 1 0 0 0-1-1zm20 0a1 1 0 0 0-1 1v2a1 1 0 1 0 2 0v-2a1 1 0 0 0-1-1zm5 0a1 1 0 0 0-1 1v2a1 1 0 1 0 2 0v-2a1 1 0 0 0-1-1zm5 0a1 1 0 0 0-1 1v2a1 1 0 1 0 2 0v-2a1 1 0 0 0-1-1zm5 0a1 1 0 0 0-1 1v2a1 1 0 1 0 2 0v-2a1 1 0 0 0-1-1zm5 0a1 1 0 0 0-1 1v2a1 1 0 1 0 2 0v-2a1 1 0 0 0-1-1zm5 0a1 1 0 0 0-1 1v2a1 1 0 1 0 2 0v-2a1 1 0 0 0-1-1zm-35 0a1 1 0 0 0-1 1v2a1 1 0 1 0 2 0v-2a1 1 0 0 0-1-1zm5 0a1 1 0 0 0-1 1v2a1 1 0 1 0 2 0v-2a1 1 0 0 0-1-1z" fill="#8d6c9f"/><path d="M60.863 16.98a8.977 8.977 0 0 0-7.898-7.656l-3.188-.355a161.53 161.53 0 0 0-35.558 0l-3.188.355a8.98 8.98 0 0 0-7.894 7.656 110.944 110.944 0 0 0-.188 30.055l.25 1.887a8.962 8.962 0 0 0 7.91 7.766l3.11.343a160.928 160.928 0 0 0 35.558 0l3.11-.343a8.962 8.962 0 0 0 7.914-7.766l.246-1.89c1.3-9.977 1.242-20.09-.184-30.052zm-1.8 29.793l-.247 1.891a6.962 6.962 0 0 1-6.148 6.031l-3.11.348a159.21 159.21 0 0 1-35.117 0l-3.109-.348a6.958 6.958 0 0 1-6.148-6.035l-.25-1.887a109.16 109.16 0 0 1 .18-29.511 6.978 6.978 0 0 1 6.14-5.95l3.187-.355a158.808 158.808 0 0 1 35.118 0l3.187.355a6.978 6.978 0 0 1 6.14 5.95 109.002 109.002 0 0 1 .176 29.511z" fill="#8d6c9f"/><path d="M44.293 32.977a1 1 0 0 0-.52-.875L25.484 22.016a1 1 0 0 0-.992.015.995.995 0 0 0-.492.86L24.004 43c0 .355.183.68.488.86a.99.99 0 0 0 .512.14.99.99 0 0 0 .476-.121l18.293-10.024a1 1 0 0 0 .52-.878zm-18.29 8.336L26 24.585l15.215 8.387z" fill="#8d6c9f"/></svg>