<svg xmlns="http://www.w3.org/2000/svg" viewBox="0 0 80 80"><path d="M8 12v56h64V12H8zm3 2h4c.565 0 1 .435 1 1v2c0 .565-.435 1-1 1h-4c-.565 0-1-.435-1-1v-2c0-.565.435-1 1-1zm7 0h44v52H18V14zm47 0h4c.565 0 1 .435 1 1v2c0 .565-.435 1-1 1h-4c-.565 0-1-.435-1-1v-2c0-.565.435-1 1-1zm-54 6h4c.565 0 1 .435 1 1v2c0 .565-.435 1-1 1h-4c-.565 0-1-.435-1-1v-2c0-.565.435-1 1-1zm54 0h4c.565 0 1 .435 1 1v2c0 .565-.435 1-1 1h-4c-.565 0-1-.435-1-1v-2c0-.565.435-1 1-1zm-54 6h4c.565 0 1 .435 1 1v2c0 .565-.435 1-1 1h-4c-.565 0-1-.435-1-1v-2c0-.565.435-1 1-1zm54 0h4c.565 0 1 .435 1 1v2c0 .565-.435 1-1 1h-4c-.565 0-1-.435-1-1v-2c0-.565.435-1 1-1zm-54 6h4c.565 0 1 .435 1 1v2c0 .565-.435 1-1 1h-4c-.565 0-1-.435-1-1v-2c0-.565.435-1 1-1zm54 0h4c.565 0 1 .435 1 1v2c0 .565-.435 1-1 1h-4c-.565 0-1-.435-1-1v-2c0-.565.435-1 1-1zm-30.104 2.729c-1.729 2.604-3.013 4.64-3.902 6.316v1.824h4.826v1.725h1.97v-1.725h1.29v-1.715h-1.29V34.73h-2.894zm6.153 0v9.863h2.064v-2.975l.979-1.154 2.863 4.129h2.475l-3.85-5.537 3.598-4.326H46.88l-3.645 4.394h-.123v-4.394H41.05zm-5.291 1.605h.11v4.88h-3.022v-.109a60.86 60.86 0 0 1 2.912-4.771zM11 38h4c.565 0 1 .435 1 1v2c0 .565-.435 1-1 1h-4c-.565 0-1-.435-1-1v-2c0-.565.435-1 1-1zm54 0h4c.565 0 1 .435 1 1v2c0 .565-.435 1-1 1h-4c-.565 0-1-.435-1-1v-2c0-.565.435-1 1-1zm-54 6h4c.565 0 1 .435 1 1v2c0 .565-.435 1-1 1h-4c-.565 0-1-.435-1-1v-2c0-.565.435-1 1-1zm54 0h4c.565 0 1 .435 1 1v2c0 .565-.435 1-1 1h-4c-.565 0-1-.435-1-1v-2c0-.565.435-1 1-1zm-54 6h4c.565 0 1 .435 1 1v2c0 .565-.435 1-1 1h-4c-.565 0-1-.435-1-1v-2c0-.565.435-1 1-1zm54 0h4c.565 0 1 .435 1 1v2c0 .565-.435 1-1 1h-4c-.565 0-1-.435-1-1v-2c0-.565.435-1 1-1zm-54 6h4c.565 0 1 .435 1 1v2c0 .565-.435 1-1 1h-4c-.565 0-1-.435-1-1v-2c0-.565.435-1 1-1zm54 0h4c.565 0 1 .435 1 1v2c0 .565-.435 1-1 1h-4c-.565 0-1-.435-1-1v-2c0-.565.435-1 1-1zm-41 4a1 1 0 0 0-1 1 1 1 0 0 0 1 1 1 1 0 0 0 1-1 1 1 0 0 0-1-1zm4 0a1 1 0 0 0-1 1 1 1 0 0 0 1 1 1 1 0 0 0 1-1 1 1 0 0 0-1-1zm4 0a1 1 0 0 0-1 1 1 1 0 0 0 1 1 1 1 0 0 0 1-1 1 1 0 0 0-1-1zm4 0a1 1 0 0 0-1 1 1 1 0 0 0 1 1 1 1 0 0 0 1-1 1 1 0 0 0-1-1zm4 0a1 1 0 0 0-1 1 1 1 0 0 0 1 1 1 1 0 0 0 1-1 1 1 0 0 0-1-1zm4 0a1 1 0 0 0-1 1 1 1 0 0 0 1 1 1 1 0 0 0 1-1 1 1 0 0 0-1-1zm4 0a1 1 0 0 0-1 1 1 1 0 0 0 1 1 1 1 0 0 0 1-1 1 1 0 0 0-1-1zm4 0a1 1 0 0 0-1 1 1 1 0 0 0 1 1 1 1 0 0 0 1-1 1 1 0 0 0-1-1zm4 0a1 1 0 0 0-1 1 1 1 0 0 0 1 1 1 1 0 0 0 1-1 1 1 0 0 0-1-1zm-45 2h4c.565 0 1 .435 1 1v2c0 .565-.435 1-1 1h-4c-.565 0-1-.435-1-1v-2c0-.565.435-1 1-1zm54 0h4c.565 0 1 .435 1 1v2c0 .565-.435 1-1 1h-4c-.565 0-1-.435-1-1v-2c0-.565.435-1 1-1z"/></svg>