<svg xmlns="http://www.w3.org/2000/svg" viewBox="0 0 50 50"><path d="M3 7c-.55 0-1 .45-1 1v34c0 .55.45 1 1 1h44c.55 0 1-.45 1-1V8c0-.55-.45-1-1-1zm1 2h42v32H4zm4 3c-.55 0-1 .45-1 1v8c-.004.36.184.695.496.879.313.18.695.18 1.008 0 .312-.184.5-.52.496-.879v-7h7c.36.004.695-.184.879-.496a1.01 1.01 0 0 0 0-1.008c-.184-.312-.52-.5-.879-.496zm33.984 15.984c-.55.012-.992.465-.984 1.016v7h-7a1.006 1.006 0 0 0-.879.496 1.01 1.01 0 0 0 0 1.008c.184.312.52.5.879.496h8c.55 0 1-.45 1-1v-8a1.003 1.003 0 0 0-1.016-1.016z"/></svg>