<svg xmlns="http://www.w3.org/2000/svg" viewBox="0 0 50 50"><path d="M4.688 4C2.12 4 0 6.074 0 8.625c0 1.191.668 2.094 1.188 3.063.519.968.937 1.953.937 2.406 0 .453-.5 2.379-1.031 4.437C.562 20.59 0 22.926 0 25c0 2.074.563 4.395 1.094 6.438.531 2.042 1.031 3.933 1.031 4.468 0 .535-.418 1.489-.938 2.438C.668 39.293 0 40.184 0 41.375 0 43.925 2.121 46 4.688 46c.59 0 1.14-.176 1.812-.375.672-.2 1.434-.434 2.219-.688 1.57-.503 3.277-1 4.281-1 1.004 0 1.645.376 2.438.876.792.5 1.742 1.187 3.093 1.187 1.352 0 2.469-.621 3.5-1.125 1.032-.504 1.973-.938 2.969-.938.996 0 1.645.376 2.438.876.792.5 1.742 1.187 3.093 1.187 1.352 0 2.598-.61 3.75-1.125 1.153-.516 2.242-.938 2.719-.938.477 0 2.316.489 4 1a92.52 92.52 0 0 0 2.406.688c.735.2 1.317.375 1.907.375C47.879 46 50 43.926 50 41.375c0-1.191-.668-2.094-1.188-3.063-.519-.968-.937-1.953-.937-2.406 0-.226.121-.883.313-1.687.19-.805.453-1.801.718-2.844C49.438 29.289 50 26.969 50 25c0-1.969-.563-4.273-1.094-6.344-.531-2.07-1.031-4.027-1.031-4.562 0-.535.418-1.489.938-2.438.519-.949 1.187-1.84 1.187-3.031C50 6.075 47.879 4 45.312 4c-.593 0-1.14.172-1.812.375-.672.203-1.434.46-2.219.719-1.57.511-3.281 1-4.281 1-1 0-1.645-.399-2.438-.907C33.77 4.68 32.825 4 31.47 4c-1.356 0-2.469.645-3.5 1.156-1.032.512-1.977.938-2.969.938-.992 0-1.613-.399-2.406-.907C21.8 4.68 20.824 4 19.469 4c-1.356 0-2.598.602-3.75 1.125-1.153.523-2.25.969-2.719.969-.469 0-2.316-.485-4-1-.844-.258-1.672-.516-2.406-.719C5.859 4.172 5.28 4 4.687 4zm0 2c.09 0 .69.094 1.375.281.683.188 1.496.457 2.343.719 1.696.52 3.332 1.063 4.594 1.063 1.262 0 2.395-.61 3.531-1.126C17.668 6.423 18.785 6 19.47 6c.683 0 1.199.344 2.031.875.832.531 1.965 1.188 3.5 1.188s2.785-.602 3.844-1.126C29.902 6.415 30.785 6 31.469 6c.683 0 1.199.344 2.031.875.832.531 1.96 1.188 3.5 1.188s3.3-.57 4.906-1.094c.805-.262 1.57-.5 2.188-.688C44.71 6.094 45.223 6 45.312 6 46.825 6 48 7.16 48 8.625c0 .152-.402 1.113-.938 2.094-.535.98-1.156 2.078-1.156 3.375 0 1.297.57 3.023 1.094 5.062.523 2.04 1 4.266 1 5.844 0 1.578-.477 3.855-1 5.906-.262 1.028-.547 1.996-.75 2.844-.203.848-.344 1.523-.344 2.156 0 1.266.625 2.352 1.157 3.344.53.992.937 1.973.937 2.125C48 42.84 46.824 44 45.312 44c-.093 0-.69-.098-1.374-.281a79.187 79.187 0 0 1-2.344-.688C39.898 42.52 38.258 41.97 37 41.97c-1.258 0-2.395.586-3.531 1.093-1.137.508-2.25.938-2.938.938-.687 0-1.23-.352-2.062-.875-.832-.523-1.938-1.156-3.469-1.156s-2.785.605-3.844 1.125c-1.058.52-1.937.906-2.625.906-.687 0-1.199-.352-2.031-.875-.832-.523-1.965-1.156-3.5-1.156s-3.3.547-4.906 1.062c-.805.258-1.54.504-2.156.688-.618.183-1.157.281-1.25.281C3.175 44 2 42.84 2 41.375c0-.152.402-1.113.938-2.094.535-.98 1.156-2.078 1.156-3.375 0-1.297-.57-2.96-1.094-4.968C2.477 28.93 2 26.706 2 25c0-1.707.48-3.95 1-5.969.52-2.02 1.094-3.672 1.094-4.937 0-1.266-.625-2.352-1.157-3.344C2.407 9.758 2 8.777 2 8.625 2 7.16 3.176 6 4.688 6zm3.125 5A1 1 0 0 0 7 12v26c0 .55.45 1 1 1h34c.55 0 1-.45 1-1V12c0-.55-.45-1-1-1H7.813zM9 13h32v24H9zm22 3c-.766 0-1.512.293-2.094.875l-.5.5-11.093 11.063a.98.98 0 0 0-.25.468L16.03 32.75a.997.997 0 0 0 .262.957c.25.25.613.352.957.262l3.844-1.032a.98.98 0 0 0 .468-.25l11.063-11.093s.11-.078.188-.157v-.03c.148-.15.312-.313.312-.313A2.985 2.985 0 0 0 31 16zm-1.188 2.781l1.407 1.407-10.875 10.875h-.032l-1.375-1.375v-.032z"/></svg>