<svg xmlns="http://www.w3.org/2000/svg" viewBox="0 0 64 64"><linearGradient id="a" gradientUnits="userSpaceOnUse" x1="44" y1="15" x2="44" y2="26.426" spreadMethod="reflect"><stop offset="0" stop-color="#6dc7ff"/><stop offset="1" stop-color="#e6abff"/></linearGradient><circle cx="44" cy="21" r="4" fill="url(#a)"/><linearGradient id="b" gradientUnits="userSpaceOnUse" x1="32" y1="6.333" x2="32" y2="57.197" spreadMethod="reflect"><stop offset="0" stop-color="#1a6dff"/><stop offset="1" stop-color="#c822ff"/></linearGradient><path d="M53 7H11c-2.757 0-5 2.243-5 5v32c0 2.757 2.243 5 5 5h23v5c0 1.654 1.346 3 3 3h8c1.654 0 3-1.346 3-3v-5h5c2.757 0 5-2.243 5-5V12c0-2.757-2.243-5-5-5zM26 41v2h-2v-8h5c.552 0 1 .449 1 1v7h-2v-2h-2zm-8-2v4h-2V30c0-.551.448-1 1-1h4c.552 0 1 .449 1 1v13h-2v-4h-2zm-6-6h2v10h-2V33zm17 0h-5v-3c0-1.654-1.346-3-3-3h-4c-1.654 0-3 1.346-3 3v1h-2V13h40v30h-4v-4.394c0-.594-.174-1.17-.504-1.666l-3.998-5.997c-.559-.837-1.492-1.337-2.498-1.337s-1.939.5-2.498 1.337l-3.998 5.997A3 3 0 0 0 34 38.606V43h-2v-7c0-1.654-1.346-3-3-3zm10.535 0h2.93l2.667 4h-8.264l2.667-4zM36 39h2v12h-2V39zm4 0h2v12h-2V39zm4 0h2v12h-2V39zm1 16h-8c-.552 0-1-.449-1-1v-1h10v1c0 .551-.448 1-1 1zm11-11c0 1.654-1.346 3-3 3h-5v-2h4c1.103 0 2-.897 2-2V13c0-1.103-.897-2-2-2H12c-1.103 0-2 .897-2 2v30c0 1.103.897 2 2 2h22v2H11c-1.654 0-3-1.346-3-3V12c0-1.654 1.346-3 3-3h42c1.654 0 3 1.346 3 3v32z" fill="url(#b)"/><linearGradient id="c" gradientUnits="userSpaceOnUse" x1="19" y1="6.333" x2="19" y2="57.197" spreadMethod="reflect"><stop offset="0" stop-color="#1a6dff"/><stop offset="1" stop-color="#c822ff"/></linearGradient><rect x="18" y="35" width="2" height="2" fill="url(#c)"/><linearGradient id="d" gradientUnits="userSpaceOnUse" x1="19" y1="6.333" x2="19" y2="57.197" spreadMethod="reflect"><stop offset="0" stop-color="#1a6dff"/><stop offset="1" stop-color="#c822ff"/></linearGradient><rect x="18" y="31" width="2" height="2" fill="url(#d)"/><linearGradient id="e" gradientUnits="userSpaceOnUse" x1="27" y1="6.333" x2="27" y2="57.197" spreadMethod="reflect"><stop offset="0" stop-color="#1a6dff"/><stop offset="1" stop-color="#c822ff"/></linearGradient><rect x="26" y="37" width="2" height="2" fill="url(#e)"/></svg>