<svg xmlns="http://www.w3.org/2000/svg" viewBox="0 0 50 50"><path d="M4.688 4C2.102 4 0 6.066 0 8.625c0 .883.508 1.879 1.063 2.906.484.899 1.03 1.906 1.03 2.563 0 .562-.32 1.86-.687 3.25C.786 19.684 0 22.609 0 25c0 2.36.766 5.21 1.375 7.5.379 1.434.719 2.785.719 3.406 0 .73-.54 1.754-1.031 2.657C.52 39.55 0 40.5 0 41.374 0 43.934 2.102 46 4.688 46c.699 0 1.722-.324 3.312-.844 1.648-.539 3.691-1.187 5-1.187 1.05 0 1.754.426 2.563.937.812.512 1.714 1.094 2.968 1.094 1.196 0 2.27-.52 3.313-1.031 1.05-.516 2.058-1 3.156-1 1.043 0 1.754.426 2.563.937.812.516 1.714 1.094 2.968 1.094 1.274 0 2.617-.61 3.907-1.188.957-.43 1.945-.843 2.562-.843.77 0 2.738.586 4.313 1.062 1.992.606 3.25.969 4 .969C47.898 46 50 43.934 50 41.375c0-.883-.508-1.879-1.063-2.906-.484-.899-1.03-1.907-1.03-2.563 0-.574.335-1.968.718-3.437C49.235 30.125 50 27.219 50 25c0-2.191-.746-5.055-1.344-7.344-.394-1.511-.75-2.922-.75-3.562 0-.73.54-1.754 1.032-2.656C49.477 10.448 50 9.5 50 8.624 50 6.066 47.898 4 45.312 4c-.703 0-1.722.316-3.312.844-1.648.547-3.695 1.218-5 1.218-1.047 0-1.754-.417-2.563-.937C33.626 4.605 32.727 4 31.47 4c-1.2 0-2.297.543-3.344 1.063-1.05.523-2.027 1-3.125 1-1.04 0-1.723-.422-2.531-.938-.813-.52-1.742-1.125-3-1.125-1.278 0-2.617.602-3.907 1.188-.957.433-1.949.875-2.562.875-.766 0-2.738-.579-4.313-1.063-1.992-.613-3.246-1-4-1zM9 13h32v24H9zm22 3c-.766 0-1.512.293-2.094.875l-.343.313-.157.187-11.093 11.063a.946.946 0 0 0-.25.437L16.03 32.75a.997.997 0 0 0 .25.969c.192.191.457.281.719.281a.914.914 0 0 0 .25-.031l3.844-1.032a1.05 1.05 0 0 0 .468-.25l11.063-11.093s.11-.078.188-.157c.148-.148.312-.343.312-.343A2.985 2.985 0 0 0 31 16zM18.437 29.938l1.688 1.687-2.406.719z"/></svg>