<svg xmlns="http://www.w3.org/2000/svg" viewBox="0 0 80 80"><path d="M8 12v56h64V12H8zm3 2h4c.565 0 1 .435 1 1v2c0 .565-.435 1-1 1h-4c-.565 0-1-.435-1-1v-2c0-.565.435-1 1-1zm7 0h44v52H18V14zm47 0h4c.565 0 1 .435 1 1v2c0 .565-.435 1-1 1h-4c-.565 0-1-.435-1-1v-2c0-.565.435-1 1-1zm-54 6h4c.565 0 1 .435 1 1v2c0 .565-.435 1-1 1h-4c-.565 0-1-.435-1-1v-2c0-.565.435-1 1-1zm54 0h4c.565 0 1 .435 1 1v2c0 .565-.435 1-1 1h-4c-.565 0-1-.435-1-1v-2c0-.565.435-1 1-1zm-54 6h4c.565 0 1 .435 1 1v2c0 .565-.435 1-1 1h-4c-.565 0-1-.435-1-1v-2c0-.565.435-1 1-1zm54 0h4c.565 0 1 .435 1 1v2c0 .565-.435 1-1 1h-4c-.565 0-1-.435-1-1v-2c0-.565.435-1 1-1zm-54 6h4c.565 0 1 .435 1 1v2c0 .565-.435 1-1 1h-4c-.565 0-1-.435-1-1v-2c0-.565.435-1 1-1zm54 0h4c.565 0 1 .435 1 1v2c0 .565-.435 1-1 1h-4c-.565 0-1-.435-1-1v-2c0-.565.435-1 1-1zm-16.027 2.475c-2.428 0-3.918 1.9-3.918 5.168 0 3.274 1.476 5.203 3.918 5.203 2.439 0 3.916-1.935 3.916-5.196 0-3.275-1.496-5.175-3.916-5.175zm-9.578.002c-2.098 0-3.588 1.12-3.588 2.693 0 1.045.703 1.898 1.777 2.144v.123c-1.32.294-2.174 1.287-2.174 2.524 0 1.716 1.607 2.885 3.98 2.885 2.372 0 3.993-1.178 3.993-2.907 0-1.258-.872-2.255-2.184-2.502v-.123c1.08-.252 1.778-1.091 1.778-2.144 0-1.572-1.49-2.693-3.582-2.693zm-12.415.244v1.703h4.89v.129l-4.22 8.039h2.16l4.124-8.149v-1.722H26.98zm12.409 1.285c.916 0 1.55.56 1.55 1.36 0 .792-.633 1.355-1.55 1.355-.91 0-1.545-.563-1.545-1.356 0-.799.629-1.36 1.545-1.36zm9.584.158c1.127 0 1.824 1.182 1.824 3.479 0 2.31-.69 3.52-1.824 3.521-1.13 0-1.827-1.217-1.827-3.521 0-2.29.706-3.479 1.827-3.479zM11 38h4c.565 0 1 .435 1 1v2c0 .565-.435 1-1 1h-4c-.565 0-1-.435-1-1v-2c0-.565.435-1 1-1zm54 0h4c.565 0 1 .435 1 1v2c0 .565-.435 1-1 1h-4c-.565 0-1-.435-1-1v-2c0-.565.435-1 1-1zm-25.611 2.244c1.086 0 1.838.624 1.838 1.526 0 .895-.752 1.516-1.838 1.517-1.08 0-1.832-.621-1.832-1.517 0-.902.752-1.526 1.832-1.526zM11 44h4c.565 0 1 .435 1 1v2c0 .565-.435 1-1 1h-4c-.565 0-1-.435-1-1v-2c0-.565.435-1 1-1zm54 0h4c.565 0 1 .435 1 1v2c0 .565-.435 1-1 1h-4c-.565 0-1-.435-1-1v-2c0-.565.435-1 1-1zm-54 6h4c.565 0 1 .435 1 1v2c0 .565-.435 1-1 1h-4c-.565 0-1-.435-1-1v-2c0-.565.435-1 1-1zm54 0h4c.565 0 1 .435 1 1v2c0 .565-.435 1-1 1h-4c-.565 0-1-.435-1-1v-2c0-.565.435-1 1-1zm-54 6h4c.565 0 1 .435 1 1v2c0 .565-.435 1-1 1h-4c-.565 0-1-.435-1-1v-2c0-.565.435-1 1-1zm54 0h4c.565 0 1 .435 1 1v2c0 .565-.435 1-1 1h-4c-.565 0-1-.435-1-1v-2c0-.565.435-1 1-1zm-41 4a1 1 0 0 0-1 1 1 1 0 0 0 1 1 1 1 0 0 0 1-1 1 1 0 0 0-1-1zm4 0a1 1 0 0 0-1 1 1 1 0 0 0 1 1 1 1 0 0 0 1-1 1 1 0 0 0-1-1zm4 0a1 1 0 0 0-1 1 1 1 0 0 0 1 1 1 1 0 0 0 1-1 1 1 0 0 0-1-1zm4 0a1 1 0 0 0-1 1 1 1 0 0 0 1 1 1 1 0 0 0 1-1 1 1 0 0 0-1-1zm4 0a1 1 0 0 0-1 1 1 1 0 0 0 1 1 1 1 0 0 0 1-1 1 1 0 0 0-1-1zm4 0a1 1 0 0 0-1 1 1 1 0 0 0 1 1 1 1 0 0 0 1-1 1 1 0 0 0-1-1zm4 0a1 1 0 0 0-1 1 1 1 0 0 0 1 1 1 1 0 0 0 1-1 1 1 0 0 0-1-1zm4 0a1 1 0 0 0-1 1 1 1 0 0 0 1 1 1 1 0 0 0 1-1 1 1 0 0 0-1-1zm4 0a1 1 0 0 0-1 1 1 1 0 0 0 1 1 1 1 0 0 0 1-1 1 1 0 0 0-1-1zm-45 2h4c.565 0 1 .435 1 1v2c0 .565-.435 1-1 1h-4c-.565 0-1-.435-1-1v-2c0-.565.435-1 1-1zm54 0h4c.565 0 1 .435 1 1v2c0 .565-.435 1-1 1h-4c-.565 0-1-.435-1-1v-2c0-.565.435-1 1-1z"/></svg>