<svg xmlns="http://www.w3.org/2000/svg" viewBox="0 0 50 50"><path d="M3 7c-.55 0-1 .45-1 1v34c0 .55.45 1 1 1h44c.55 0 1-.45 1-1V8c0-.55-.45-1-1-1zm1 2h42v32H4zm20.984 2a.996.996 0 0 0-.691.293l-2 2a.992.992 0 0 0-.273.973.99.99 0 0 0 .714.714.992.992 0 0 0 .973-.273L25 13.414l1.293 1.293c.25.262.625.367.973.273a.99.99 0 0 0 .714-.714.992.992 0 0 0-.273-.973l-2-2a1.003 1.003 0 0 0-.723-.293zM8.98 21.988a.991.991 0 0 0-.687.305l-2 2a1 1 0 0 0 0 1.414l2 2c.25.262.625.367.973.273a.99.99 0 0 0 .714-.714.992.992 0 0 0-.273-.973L8.414 25l1.293-1.293a.997.997 0 0 0 .223-1.105.995.995 0 0 0-.95-.614zm32.008 0a1 1 0 0 0-.695 1.719L41.586 25l-1.293 1.293a.992.992 0 0 0-.273.973.99.99 0 0 0 .714.714.992.992 0 0 0 .973-.273l2-2a1 1 0 0 0 0-1.414l-2-2a1.008 1.008 0 0 0-.719-.305zm-14 12.996a1.004 1.004 0 0 0-.695.309L25 36.586l-1.293-1.293a1.008 1.008 0 0 0-.719-.305 1 1 0 0 0-.695 1.719l2 2a1 1 0 0 0 1.414 0l2-2c.297-.285.387-.727.23-1.105a1.01 1.01 0 0 0-.949-.618z"/></svg>