<svg xmlns="http://www.w3.org/2000/svg" viewBox="0 0 80 80"><path style="line-height:normal;text-indent:0;text-align:start;text-decoration-line:none;text-decoration-style:solid;text-decoration-color:#000;text-transform:none;block-progression:tb;isolation:auto;mix-blend-mode:normal" d="M51 9c-8.333 0-20.299 3.997-26.555 8.168l-.285.19-.11.326c-.106.32-.076.421-.077.6a8.67 8.67 0 0 0 .021.607c.028.46.08 1.044.152 1.718.144 1.35.36 3.054.584 4.73.411 3.073.781 5.568.852 6.048-.354.276-1.21.927-2.43 2.033-.725.657-1.454 1.367-2.033 2.053-.58.685-1.119 1.233-1.119 2.226 0 .578.193 1.155.564 1.549.371.394.837.575 1.254.666.834.182 1.627.086 2.182.086 1.138 0 2.369-.076 3.658-.205.142.802.403 1.646.653 2.545.359 1.297.689 2.655.689 3.66 0 .854-.792 2.343-.832 2.418L25.4 51.186c-4.406 2.438-8.411 4.184-11.431 6.81C10.922 60.646 9 64.288 9 70v1h52v-1c0-2.105-1.666-3.724-3.445-5.045-1.69-1.255-3.567-2.176-4.924-2.738l-3.549-3.549c.125-2.043 1.056-3.861 1.451-4.54.346.073.684.141 1.32.317.894.248 1.966.52 3.112.52 1.267 0 2.335-.712 3.008-1.649.672-.935 1.026-2.108 1.027-3.31.004-.647.175-1.064.402-1.531.228-.468.598-.998.598-1.815 0-.326.037-.295.303-.652.265-.357.697-1.062.697-2.008v-1.361c.305-.13.476-.186.967-.446.407-.215.823-.455 1.191-.752.368-.296.842-.63.842-1.441 0-.406-.093-.578-.19-.844-.096-.265-.22-.56-.367-.886-.292-.653-.668-1.428-1.043-2.202a64.14 64.14 0 0 1-1.013-2.166c-.135-.309-.245-.58-.313-.777-.067-.198-.074-.363-.074-.229V29.97c.929-.431 1.8-.855 2.592-1.268 1.537-.8 2.792-1.554 3.713-2.264.46-.354.838-.696 1.136-1.068.299-.372.559-.795.559-1.369 0-.542-.273-1.05-.611-1.377-.338-.327-.731-.534-1.159-.705-.854-.341-1.88-.527-2.988-.658-1.988-.235-4.078-.23-5.601-.233-.38-.87-3.014-6.844-6.86-11.652l-.3-.375H51zm-.484 2.053c3.169 4.103 5.592 9.216 6.27 10.699l-.24.322.259.858.841.308.336-.101.09-.045.069-.092c1.508 0 3.883.01 5.867.244 1.017.12 1.929.309 2.48.53.256.102.404.204.473.263-.003-.005.018-.042-.078.078-.144.18-.418.443-.799.737-.761.586-1.943 1.305-3.418 2.074-2.95 1.537-7.083 3.292-11.66 4.937C41.852 35.156 30.856 38 24 38c-.695 0-1.402.036-1.756-.041-.177-.039-.226-.086-.223-.082.004.004-.021.026-.021-.178 0 .212.166-.367.646-.935.48-.569 1.163-1.238 1.85-1.862 1.375-1.247 2.764-2.316 2.764-2.316l.465-.357-.086-.583s-.48-3.236-.926-6.572c-.223-1.668-.436-3.36-.576-4.676a38.741 38.741 0 0 1-.147-1.628c-.004-.072-.003-.105-.006-.166 5.76-3.685 17.01-7.407 24.532-7.551zm3.353 11.953l-.342.086-.09.04-.566.698.22.867.827.346.342-.086.092-.043.564-.695-.219-.87-.828-.343zm-3.734 1.601l-.346.073-.092.037-.592.674.188.877.812.375.346-.073.092-.037.592-.674-.188-.877-.812-.375zm-3.787 1.405l-.35.05-.096.032-.63.635.128.886.79.428.347-.053.096-.031.633-.635-.131-.887-.787-.425zm-3.881 1.246l-.35.043-.096.03-.648.616.106.89.777.448.35-.043.095-.03.649-.616-.106-.89-.777-.448zm-3.906 1.1l-.352.027-.096.025-.675.588.066.893.756.482.351-.027.098-.026.676-.588-.069-.892-.755-.483zm-3.961.954l-.352.016-.098.024-.691.57.043.894.742.502.352-.017.097-.022.692-.57-.041-.895-.744-.502zm-3.983.842l-.351.006-.098.02-.709.549.014.894.726.525.354-.005.097-.02.71-.549-.016-.894-.727-.526zM59 30.855v2.041c0 .379.087.594.184.875.096.282.22.59.367.928.293.676.673 1.464 1.049 2.24.375.777.749 1.543 1.02 2.147a12.892 12.892 0 0 1 .314.76c-.016.017-.006.018-.03.037a6.066 6.066 0 0 1-.87.543c-.687.363-1.397.642-1.397.642l-.637.248V44c0 .478-.068.499-.303.814-.234.316-.697.967-.697 1.846 0 .088-.125.385-.395.94-.27.555-.599 1.357-.605 2.394V50c0 .796-.258 1.603-.65 2.148-.392.546-.842.817-1.385.817-.819 0-1.73-.21-2.578-.445-.848-.235-1.565-.52-2.387-.52h-.535l-.297.445s-1.679 2.418-2.078 5.35c-2.458-.475-11.737-2.536-17.643-7.828l.344-.344.063-.102S31 47.853 31 46c0-1.406-.395-2.87-.762-4.193a37.944 37.944 0 0 1-.57-2.252c6.745-.936 14.884-3.244 22.014-5.807A122.994 122.994 0 0 0 59 30.855zM28.025 51.39c6.083 5.551 15.069 7.685 18.286 8.306-.148.224-.15.152-.311.444-.567 1.02-1.185 2.612-1.686 4.603-4.411-1.15-8.88-4.184-12.267-7.117a58.115 58.115 0 0 1-5.178-5.08l1.156-1.156zm-2.894 2.216a60.903 60.903 0 0 0 5.607 5.532c3.744 3.24 8.759 6.782 14.067 7.843a1 1 0 0 0 1.175-.785c.48-2.4 1.194-4.047 1.77-5.084.13-.234.247-.422.355-.591l3.333 3.332.19.076c1.196.478 3.155 1.461 4.735 2.635 1.092.81 1.772 1.66 2.188 2.437H11.082c.205-4.604 1.687-7.312 4.2-9.496 2.424-2.108 5.886-3.763 9.849-5.899z" font-weight="400" font-family="sans-serif" white-space="normal" overflow="visible"/></svg>