<svg xmlns="http://www.w3.org/2000/svg" viewBox="0 0 80 80"><path d="M36.953 8c-8.713 0-15.615 7.559-15.615 7.559L19.97 17.02l1.992.213s.433.044.937.44c.505.396 1.067 1.087 1.067 2.805 0 2.242.537 4.19.861 5.181A2.489 2.489 0 0 0 24 27.5c0 .578.159 1.037.287 1.492.064.228.127.439.168.596.04.157.045.314.045.162A2.265 2.265 0 0 0 26.75 32h.53c.098.678.217 1.352.39 2H13c-2.75 0-5 2.25-5 5v26c0 2.75 2.25 5 5 5h13.832a1 1 0 0 0 .326 0h23.674a1 1 0 0 0 .326 0H67c2.75 0 5-2.25 5-5V39c0-2.75-2.25-5-5-5H48.33c.173-.648.292-1.322.39-2h.53a2.265 2.265 0 0 0 2.25-2.25c0 .152.004-.005.045-.162.04-.157.104-.368.168-.596.128-.455.287-.914.287-1.492 0-.75-.347-1.42-.879-1.88.29-1.233.912-4.142.912-6.481 0-3.033-1.347-5.2-3.047-6.483-1.554-1.173-3.307-1.615-4.761-1.691-.213-.301-.428-.716-1.35-1.344C41.655 8.791 39.725 8 36.953 8zm0 2c2.4 0 3.89.657 4.797 1.275.907.618 1.176 1.121 1.176 1.121l.289.5h.578c1.069 0 2.714.394 3.988 1.356 1.275.962 2.252 2.418 2.252 4.887 0 2.154-.63 4.957-.85 5.898a.52.52 0 0 0-.183.1v-.448c0-2.895-1.19-4.865-2.389-6.025-1.197-1.16-2.459-1.588-2.459-1.588l-.574-.193-.437.418s-.495.492-1.743 1.062c-1.247.57-3.181 1.16-5.898 1.16-1.501 0-3.428.515-5.139 1.666-1.342.904-2.343 2.389-2.869 4.174a5.608 5.608 0 0 0-.342-.185 2.299 2.299 0 0 0-.222-.096 1.28 1.28 0 0 0-.203-.059c-.281-.871-.758-2.61-.758-4.544 0-2.21-.888-3.636-1.832-4.377-.102-.08-.11-.026-.211-.092 1.433-1.378 6.5-6.01 13.03-6.01zm6.877 9.18c.227.09.669.223 1.39.922.886.857 1.78 2.22 1.78 4.587v3.987l1.541-.988c.309-.199.638-.405.89-.551.057-.033.087-.047.133-.073.232.046.436.186.436.436 0 .026-.091.518-.213.95-.06.215-.123.43-.176.634-.053.203-.111.34-.111.666 0 .149-.101.25-.25.25h-2.223l-.05.947a8.916 8.916 0 0 1-.72 3.053H29.743a8.916 8.916 0 0 1-.719-3.053l-.05-.947H26.75a.237.237 0 0 1-.25-.25c0-.326-.058-.463-.111-.666s-.115-.42-.176-.635A9.419 9.419 0 0 1 26 27.5c0-.25.204-.39.436-.436.05.028.081.043.142.079.259.15.595.359.906.558l1.44.922.097-1.707c.11-1.888 1.12-3.167 2.458-4.068 1.337-.901 3.02-1.325 4.021-1.325 3.008 0 5.24-.662 6.729-1.341 1.037-.474 1.268-.736 1.601-1.002zM33.5 27a1.5 1.5 0 0 0-1.5 1.5 1.5 1.5 0 0 0 1.5 1.5 1.5 1.5 0 0 0 1.5-1.5 1.5 1.5 0 0 0-1.5-1.5zm9 0a1.5 1.5 0 0 0-1.5 1.5 1.5 1.5 0 0 0 1.5 1.5 1.5 1.5 0 0 0 1.5-1.5 1.5 1.5 0 0 0-1.5-1.5zM13 36h54c1.668 0 3 1.332 3 3v26c0 1.668-1.332 3-3 3H51.809c-.276-.726-.821-1.33-1.428-1.822-.867-.705-1.933-1.26-2.98-1.719A25.592 25.592 0 0 0 44 63.246v-2.441a8.097 8.097 0 0 0 2.791-4.907c.97-.136 1.791-.88 1.791-1.898 0 .18-.001.052.031-.068.033-.12.083-.29.137-.473.108-.367.25-.73.25-1.26 0-.379-.11-.723-.287-1.025.05-.404.287-2.34.287-4.174 0-2.182-.99-3.787-2.229-4.723-1.093-.825-2.296-1.134-3.337-1.209-.193-.257-.294-.486-.893-.894-.89-.606-2.291-1.174-4.264-1.174-6.2 0-11.007 5.316-11.007 5.316l-1.368 1.463 1.99.215s.21.018.49.238c.281.22.618.584.618 1.694 0 1.819.211 2.793.283 3.097A2.114 2.114 0 0 0 29 52.066c0 .53.142.891.25 1.258.054.184.104.353.137.473.032.12.031.248.031.068 0 1.01.813 1.746 1.773 1.89A8.101 8.101 0 0 0 34 60.808v2.44c-.731.205-1.918.564-3.4 1.212-1.048.459-2.114 1.014-2.98 1.719-.608.493-1.153 1.096-1.429 1.822H13c-1.668 0-3-1.332-3-3V39c0-1.668 1.332-3 3-3zm47 3a1 1 0 0 0-1 1 1 1 0 0 0 1 1 1 1 0 0 0 1-1 1 1 0 0 0-1-1zm-21.723 2c1.6 0 2.56.432 3.139.826.578.394.717.672.717.672l.289.502H43c.669 0 1.752.258 2.566.873C46.381 44.488 47 45.383 47 47c0 .894-.072 1.92-.146 2.738-.202-1.627-.868-2.861-1.618-3.588-.885-.857-1.834-1.181-1.834-1.181l-.574-.194-.437.418s-.3.305-1.137.688c-.837.383-2.146.785-4.004.785-1.027 0-2.264.315-3.432 1.006-.85.504-1.564 1.323-2.095 2.3-.082-.042-.11-.107-.473-.107-.047 0-.092.011-.139.014A15.49 15.49 0 0 1 31 47.926c0-1.481-.584-2.481-1.238-3.078C30.985 43.72 34.159 41 38.277 41zM60 43a1 1 0 0 0-1 1 1 1 0 0 0 1 1 1 1 0 0 0 1-1 1 1 0 0 0-1-1zm-47.016 3.986A1 1 0 0 0 12 48v8a1 1 0 1 0 2 0v-8a1 1 0 0 0-1.016-1.014zM60 47a1 1 0 0 0-1 1 1 1 0 0 0 1 1 1 1 0 0 0 1-1 1 1 0 0 0-1-1zm-16.918.076c.184.083.36.118.764.51.573.555 1.154 1.418 1.154 2.996v2.537l1.506-.883a9.39 9.39 0 0 1 .318-.177c.083.035.176.07.176.14 0-.046-.067.353-.168.696-.05.17-.103.343-.148.511-.046.168-.102.275-.102.594 0-.012.015 0-.041 0h-1.508l-.049.947a5.988 5.988 0 0 1-4.925 5.584l-.284.051-.214.195A.811.811 0 0 1 39 61a.81.81 0 0 1-.56-.223l-.213-.195-.288-.05a5.987 5.987 0 0 1-4.93-5.7l-.03-.967h-1.52c-.057 0-.041-.01-.041 0 0-.319-.056-.424-.102-.592-.045-.167-.098-.342-.148-.513-.1-.343-.168-.74-.168-.694 0-.07.094-.105.176-.14.124.067.274.15.443.252l1.158.69.325-1.31c.239-.968.9-1.67 1.736-2.165.835-.495 1.84-.727 2.412-.727 2.15 0 3.759-.472 4.836-.965.635-.29.714-.413.996-.625zM66 50a2 2 0 0 0-2 2 2 2 0 0 0 2 2 2 2 0 0 0 2-2 2 2 0 0 0-2-2zm-6 1a1 1 0 0 0-1 1 1 1 0 0 0 1 1 1 1 0 0 0 1-1 1 1 0 0 0-1-1zm-24 1a1 1 0 0 0-1 1 1 1 0 0 0 1 1 1 1 0 0 0 1-1 1 1 0 0 0-1-1zm6 0a1 1 0 0 0-1 1 1 1 0 0 0 1 1 1 1 0 0 0 1-1 1 1 0 0 0-1-1zm18 3a1 1 0 0 0-1 1 1 1 0 0 0 1 1 1 1 0 0 0 1-1 1 1 0 0 0-1-1zm0 4a1 1 0 0 0-1 1 1 1 0 0 0 1 1 1 1 0 0 0 1-1 1 1 0 0 0-1-1zm-46.998.053A1 1 0 0 0 12 60.05a1 1 0 0 0 .998 1.002A1 1 0 0 0 14 60.055a1 1 0 0 0-.998-1.002zM42 62.016v1.652c-.043.078-.11.238-.5.55-.473.379-1.222.782-2.5.782s-2.027-.403-2.5-.781c-.39-.313-.457-.473-.5-.551v-1.65c.43.177.873.328 1.34.427.465.34 1.037.555 1.66.555s1.194-.217 1.658-.555a7.557 7.557 0 0 0 1.342-.43zM60 63a1 1 0 0 0-1 1 1 1 0 0 0 1 1 1 1 0 0 0 1-1 1 1 0 0 0-1-1zm-25.387 2.152c.172.202.371.417.637.63.777.62 2.028 1.218 3.75 1.218s2.973-.597 3.75-1.219c.266-.212.465-.427.637-.629.647.181 1.805.523 3.213 1.139.952.416 1.886.923 2.52 1.438.114.093.203.182.294.271H28.586c.09-.089.18-.178.295-.271.633-.515 1.567-1.022 2.52-1.438a23.915 23.915 0 0 1 3.212-1.139z"/></svg>