<svg xmlns="http://www.w3.org/2000/svg" viewBox="0 0 64 64"><path d="M53 59H11c-3.313 0-6-2.688-6-6V11c0-3.313 2.688-6 6-6h42c3.313 0 6 2.688 6 6v42c0 3.313-2.688 6-6 6z" fill="#ced8ed"/><path d="M55 14H9c-2.21 0-4-1.79-4-4V9c0-2.21 1.79-4 4-4h46c2.21 0 4 1.79 4 4v1c0 2.21-1.79 4-4 4z" fill="#d6dff2"/><path d="M49 32c0 9.39-7.61 17-17 17s-17-7.61-17-17 7.61-17 17-17 17 7.61 17 17z" fill="#ffeb9b"/><path d="M44 32c0 6.629-5.371 12-12 12s-12-5.371-12-12 5.371-12 12-12 12 5.371 12 12z" fill="#bbdef9"/><path d="M53 4H11c-3.86 0-7 3.14-7 7v42c0 3.86 3.14 7 7 7h42c3.86 0 7-3.14 7-7V11c0-3.86-3.14-7-7-7zm5 49c0 2.758-2.242 5-5 5H11c-2.758 0-5-2.242-5-5V11c0-2.758 2.242-5 5-5h42c2.758 0 5 2.242 5 5z" fill="#8d6c9f"/><path d="M17 16c.555 0 1-.445 1-1v-2c0-.555-.445-1-1-1-.555 0-1 .445-1 1v2c0 .555.445 1 1 1zm-5-4c-.555 0-1 .445-1 1v2c0 .555.445 1 1 1 .555 0 1-.445 1-1v-2c0-.555-.445-1-1-1zm30 4c.555 0 1-.445 1-1v-2c0-.555-.445-1-1-1-.555 0-1 .445-1 1v2c0 .555.445 1 1 1zm5 0c.555 0 1-.445 1-1v-2c0-.555-.445-1-1-1-.555 0-1 .445-1 1v2c0 .555.445 1 1 1zm5-4c-.555 0-1 .445-1 1v2c0 .555.445 1 1 1 .555 0 1-.445 1-1v-2c0-.555-.445-1-1-1zm-30 4c.555 0 1-.445 1-1v-2c0-.555-.445-1-1-1-.555 0-1 .445-1 1v2c0 .555.445 1 1 1z" fill="#8d6c9f"/><path d="M37.992 15.047c0-.016.008-.031.008-.047v-2c0-.555-.445-1-1-1-.555 0-1 .445-1 1v1.465a18.071 18.071 0 0 0-3-.414V13c0-.555-.445-1-1-1-.555 0-1 .445-1 1v1.05a18.071 18.071 0 0 0-3 .415V13c0-.555-.445-1-1-1-.555 0-1 .445-1 1v2c0 .016.008.031.008.047C19.023 17.523 14 24.18 14 32c0 9.926 8.074 18 18 18s18-8.074 18-18c0-7.82-5.023-14.477-12.008-16.953zM32 48c-8.82 0-16-7.18-16-16s7.18-16 16-16 16 7.18 16 16-7.18 16-16 16z" fill="#8d6c9f"/><path d="M32 19c-7.168 0-13 5.832-13 13s5.832 13 13 13 13-5.832 13-13-5.832-13-13-13zm0 24c-6.066 0-11-4.934-11-11s4.934-11 11-11 11 4.934 11 11-4.934 11-11 11z" fill="#8d6c9f"/><path d="M37 32a5 5 0 1 1-10 0 5 5 0 0 1 10 0z" fill="#d2edff"/><path d="M33 30a3 3 0 1 1-6.002-.002A3 3 0 0 1 33 30zm4 5.5a1.5 1.5 0 1 1-3 0 1.5 1.5 0 0 1 3 0z" fill="#f3f3f3"/></svg>