<svg xmlns="http://www.w3.org/2000/svg" viewBox="0 0 26 26"><path d="M3.063 1.156a.52.52 0 0 0-.376.344c-.3.898-1.195 3.5-1.593 4.5-.5 1.398 2.101 3.492 8 5.594.496.172 1.16.398 1.719.594l-6.407 4.624c-.601.399-.707.68-.406.782l.906.312c.5.2 1.395.082 2.094-.218l9.219-3.657c4.34 1.453 8.433 2.696 8.687 2.063.301-1-.617-3.492-3.718-4.594 0 0-15.375-5.488-15.875-5.688-.399-.199-.524-.625-.625-1.125-.102-.898-.274-2.195-.375-2.593-.075-.524-.782-1.047-1.25-.938zm6.343.532c-.144.05-.148.304 0 .906l1 3.906L14.5 7.906 12 3.5c-.398-.602-1-1.3-1.5-1.5l-.906-.313a.304.304 0 0 0-.188 0zm9.094 13.5a1.32 1.32 0 0 0-1.313 1.312 1.32 1.32 0 0 0 1.313 1.313 1.32 1.32 0 0 0 1.313-1.313 1.32 1.32 0 0 0-1.313-1.313zM.812 24c-.55.05-.957.543-.906 1.094.051.55.543.957 1.094.906h24c.36.004.695-.184.879-.496a1.01 1.01 0 0 0 0-1.008c-.184-.312-.52-.5-.879-.496H.812z"/></svg>