<svg xmlns="http://www.w3.org/2000/svg" viewBox="0 0 50 50"><path d="M25 1C13.414 1 4 10.414 4 22c0 7.168 3.602 13.492 9.094 17.281-1.614.387-3.035.86-4.156 1.407-.817.398-1.485.812-2 1.343-.516.532-.875 1.219-.875 1.969 0 1.152.8 2.066 1.843 2.75 1.043.684 2.438 1.219 4.125 1.688 3.38.937 7.926 1.5 12.969 1.5 5.043 0 9.59-.563 12.969-1.5 1.687-.47 3.082-1.004 4.125-1.688 1.043-.684 1.843-1.598 1.843-2.75 0-.746-.363-1.438-.874-1.969-.512-.531-1.16-.949-1.97-1.343-1.124-.551-2.554-1.016-4.187-1.407C42.398 35.492 46 29.168 46 22c0-11.586-9.414-21-21-21zm0 2c10.504 0 19 8.496 19 19s-8.496 19-19 19S6 32.504 6 22 14.496 3 25 3zm0 7c-6.617 0-12 5.383-12 12s5.383 12 12 12 12-5.383 12-12-5.383-12-12-12zm0 2c5.535 0 10 4.465 10 10s-4.465 10-10 10-10-4.465-10-10 4.465-10 10-10zm0 2c-4.406 0-8 3.594-8 8 0 4.406 3.594 8 8 8 4.406 0 8-3.594 8-8 0-4.406-3.594-8-8-8zm0 2c3.324 0 6 2.676 6 6s-2.676 6-6 6-6-2.676-6-6 2.676-6 6-6zm-9.469 24.719A20.808 20.808 0 0 0 25 43c3.414 0 6.617-.832 9.469-2.281 2.433.43 4.449 1.004 5.781 1.656.68.332 1.184.703 1.469 1 .285.297.343.477.343.625 0 .23-.222.645-1 1.156-.777.512-2.023 1.032-3.593 1.469-3.137.871-7.57 1.438-12.469 1.438-4.898 0-9.332-.567-12.469-1.438-1.57-.438-2.816-.957-3.594-1.469-.777-.511-1-.926-1-1.156 0-.148.086-.36.375-.656.29-.297.786-.637 1.47-.969 1.331-.648 3.327-1.23 5.75-1.656z"/></svg>