<svg xmlns="http://www.w3.org/2000/svg" viewBox="0 0 16 16"><path d="M7.5 1A6.51 6.51 0 0 0 1 7.5 6.494 6.494 0 0 0 4.055 13H4c-.55 0-1 .45-1 1v1h9v-1c0-.55-.45-1-1-1h-.05A6.5 6.5 0 0 0 14 7.5 6.51 6.51 0 0 0 7.5 1zm0 1C10.543 2 13 4.457 13 7.5S10.543 13 7.5 13A5.493 5.493 0 0 1 2 7.5C2 4.457 4.457 2 7.5 2zm0 2A3.51 3.51 0 0 0 4 7.5 3.51 3.51 0 0 0 7.5 11 3.51 3.51 0 0 0 11 7.5 3.51 3.51 0 0 0 7.5 4zm0 1C8.887 5 10 6.113 10 7.5S8.887 10 7.5 10A2.492 2.492 0 0 1 5 7.5C5 6.113 6.113 5 7.5 5zm0 1A1.5 1.5 0 1 0 9 7.5c0-.152-.027-.297-.07-.438a.752.752 0 0 1-.68.438.75.75 0 0 1-.75-.75c0-.3.18-.559.438-.68A1.486 1.486 0 0 0 7.5 6z"/></svg>