<svg xmlns="http://www.w3.org/2000/svg" viewBox="0 0 48 48"><path d="M36.5 44h-25c-1.102 0-1.8-1.2-1.3-2.2L13 37h22l2.7 4.8c.6 1-.098 2.2-1.2 2.2z" fill="#455a64"/><path d="M42 23c0 9.941-8.059 18-18 18S6 32.941 6 23 14.059 5 24 5s18 8.059 18 18z" fill="#78909c"/><path d="M24 35c-6.602 0-12-5.398-12-12s5.398-12 12-12 12 5.398 12 12-5.398 12-12 12z" fill="#455a64"/><path d="M33 23c0 4.969-4.031 9-9 9s-9-4.031-9-9 4.031-9 9-9 9 4.031 9 9z" fill="#42a5f5"/><path d="M28.8 20a6.392 6.392 0 0 0-4.8-2.2c-1.8 0-3.602.802-4.8 2.2-.5.5-.4 1.3.1 1.8s1.302.4 1.802-.1c1.5-1.7 4.296-1.7 5.796 0 .301.3.602.402 1 .402.301 0 .602-.102.903-.301.398-.403.5-1.301 0-1.801z" fill="#90caf9"/></svg>