<svg xmlns="http://www.w3.org/2000/svg" viewBox="0 0 40 40"><path d="M5.516 38.5c.382-6.895 8.648-10.602 9.586-11h9.796c.934.395 9.204 4.086 9.586 11z" fill="#b6dcfe"/><path d="M24.797 28c1.191.52 8.414 3.898 9.144 10H6.06c.73-6.074 7.949-9.477 9.144-10h9.594M25 27H15S5 30.973 5 39h30c0-8.063-10-12-10-12z" fill="#4788c7"/><path d="M20 32.5c-8.547 0-15.5-6.953-15.5-15.5S11.453 1.5 20 1.5 35.5 8.453 35.5 17 28.547 32.5 20 32.5z" fill="#dff0fe"/><path d="M20 2c8.27 0 15 6.73 15 15s-6.73 15-15 15S5 25.27 5 17 11.73 2 20 2m0-1C11.164 1 4 8.164 4 17s7.164 16 16 16 16-7.164 16-16S28.836 1 20 1z" fill="#4788c7"/><path d="M20 25.5c-4.688 0-8.5-3.813-8.5-8.5 0-4.688 3.813-8.5 8.5-8.5 4.688 0 8.5 3.813 8.5 8.5 0 4.688-3.813 8.5-8.5 8.5z" fill="#98ccfd"/><path d="M20 9c4.41 0 8 3.59 8 8s-3.59 8-8 8-8-3.59-8-8 3.59-8 8-8m0-1c-4.973 0-9 4.027-9 9s4.027 9 9 9 9-4.027 9-9-4.027-9-9-9z" fill="#4788c7"/><path d="M15.527 16.5a4.502 4.502 0 0 1 3.973-3.973" fill="none" stroke-linecap="round" stroke="#fff" stroke-miterlimit="10"/></svg>