<svg xmlns="http://www.w3.org/2000/svg" viewBox="0 0 40 40"><path d="M33.5 1.5h3v35h-3z" fill="#98ccfd"/><path d="M36 2v34h-2V2h2m1-1h-4v36h4z" fill="#4788c7"/><path d="M3.5 1.5h3v35h-3z" fill="#98ccfd"/><path d="M6 2v34H4V2h2m1-1H3v36h4z" fill="#4788c7"/><path d="M38.32 6.465L36.5 1.5h-3s-5 16-13.5 16-13.5-16-13.5-16h-3l-2 5m29 14v-12m-3 12v-7.309m-3 7.309v-4.398m-3 4.398v-3m-12 3v-12m3 12v-7.309m3 7.309v-4.398m3 4.398v-3" fill="none" stroke-linecap="round" stroke="#4788c7" stroke-miterlimit="10"/><path d="M1.5 20.5h37v3h-37z" fill="#dff0fe"/><path d="M38 21v2H2v-2h36m1-1H1v4h38z" fill="#4788c7"/><path d="M1 20h3v4H1zm35 0h3v4h-3z" fill="#dff0fe"/><path d="M1 39h38v-7.121c-1.309-.266-2.852-.879-4-.879-1.457 0-3.563 1-5 1-1.438 0-3.543-1-5-1-1.457 0-3.563 1-5 1-1.438 0-3.543-1-5-1-1.457 0-3.563 1-5 1-1.438 0-3.543-1-5-1-1.148 0-2.691.613-4 .879z" fill="#b6dcfe"/><path d="M1.5 32.277c.363-.086.738-.191 1.113-.297.848-.234 1.723-.48 2.387-.48.664 0 1.535.246 2.383.484.898.254 1.832.516 2.617.516.785 0 1.719-.262 2.617-.516.848-.238 1.719-.484 2.383-.484.664 0 1.535.246 2.383.484.898.254 1.832.516 2.617.516.785 0 1.719-.262 2.617-.516.848-.238 1.719-.484 2.383-.484.664 0 1.535.246 2.383.484.898.254 1.832.516 2.617.516.785 0 1.719-.262 2.617-.516.848-.238 1.719-.484 2.383-.484.664 0 1.54.246 2.387.48.375.106.75.211 1.113.297" fill="none" stroke-linecap="round" stroke="#4788c7" stroke-miterlimit="10"/><path d="M1.5 20h3c.273 0 .5.227.5.5s-.227.5-.5.5h-3a.504.504 0 0 1-.5-.5c0-.273.227-.5.5-.5zm0 3h3c.273 0 .5.227.5.5s-.227.5-.5.5h-3a.504.504 0 0 1-.5-.5c0-.273.227-.5.5-.5zm34-3h3c.273 0 .5.227.5.5s-.227.5-.5.5h-3a.504.504 0 0 1-.5-.5c0-.273.227-.5.5-.5zm0 3h3c.273 0 .5.227.5.5s-.227.5-.5.5h-3a.504.504 0 0 1-.5-.5c0-.273.227-.5.5-.5z" fill="#4788c7"/></svg>