<svg xmlns="http://www.w3.org/2000/svg" viewBox="0 0 80 80"><path style="line-height:normal;text-indent:0;text-align:start;text-decoration-line:none;text-decoration-style:solid;text-decoration-color:#000;text-transform:none;block-progression:tb;isolation:auto;mix-blend-mode:normal" d="M11 14c-2.75 0-5 2.25-5 5v42c0 2.75 2.25 5 5 5h58c2.75 0 5-2.25 5-5V19c0-2.75-2.25-5-5-5H11zm0 2h58c1.668 0 3 1.332 3 3v42c0 1.668-1.332 3-3 3H11c-1.668 0-3-1.332-3-3V19c0-1.668 1.332-3 3-3zm3 5a1 1 0 0 0-1 1 1 1 0 0 0 1 1 1 1 0 0 0 1-1 1 1 0 0 0-1-1zm4 0a1 1 0 0 0-1 1 1 1 0 0 0 1 1 1 1 0 0 0 1-1 1 1 0 0 0-1-1zm4 0a1 1 0 0 0-1 1 1 1 0 0 0 1 1 1 1 0 0 0 1-1 1 1 0 0 0-1-1zm4 0a1 1 0 0 0-1 1 1 1 0 0 0 1 1 1 1 0 0 0 1-1 1 1 0 0 0-1-1zm4 0a1 1 0 0 0-1 1 1 1 0 0 0 1 1 1 1 0 0 0 1-1 1 1 0 0 0-1-1zm4 0a1 1 0 0 0-1 1 1 1 0 0 0 1 1 1 1 0 0 0 1-1 1 1 0 0 0-1-1zm4 0a1 1 0 0 0-1 1 1 1 0 0 0 1 1 1 1 0 0 0 1-1 1 1 0 0 0-1-1zm4 0a1 1 0 0 0-1 1 1 1 0 0 0 1 1 1 1 0 0 0 1-1 1 1 0 0 0-1-1zm4 0a1 1 0 0 0-1 1 1 1 0 0 0 1 1 1 1 0 0 0 1-1 1 1 0 0 0-1-1zm4 0a1 1 0 0 0-1 1 1 1 0 0 0 1 1 1 1 0 0 0 1-1 1 1 0 0 0-1-1zm4 0a1 1 0 0 0-1 1 1 1 0 0 0 1 1 1 1 0 0 0 1-1 1 1 0 0 0-1-1zm4 0a1 1 0 0 0-1 1 1 1 0 0 0 1 1 1 1 0 0 0 1-1 1 1 0 0 0-1-1zm4 0a1 1 0 0 0-1 1 1 1 0 0 0 1 1 1 1 0 0 0 1-1 1 1 0 0 0-1-1zm4 0a1 1 0 0 0-1 1 1 1 0 0 0 1 1 1 1 0 0 0 1-1 1 1 0 0 0-1-1zm-52 4a1 1 0 0 0-1 1 1 1 0 0 0 1 1 1 1 0 0 0 1-1 1 1 0 0 0-1-1zm52 0a1 1 0 0 0-1 1 1 1 0 0 0 1 1 1 1 0 0 0 1-1 1 1 0 0 0-1-1zm-26.723 3c-6.2 0-11.007 5.316-11.007 5.316l-.84.9 1.05.64s1.52.85 1.52 3.07c0 1.819.211 2.793.283 3.097A2.114 2.114 0 0 0 30 42.066c0 .53.142.891.25 1.258.054.184.104.353.137.473.032.12.031.248.031.068 0 1.01.813 1.746 1.773 1.89.483 3.312 2.907 6.001 6.149 6.69.465.34 1.037.555 1.66.555s1.194-.217 1.658-.555c3.198-.679 5.6-3.3 6.133-6.547.97-.136 1.791-.88 1.791-1.898 0 .18-.001.052.031-.068.033-.12.083-.29.137-.473.108-.367.25-.73.25-1.26 0-.383-.113-.728-.295-1.027C49.741 40.78 50 37.9 50 36c0-2.182-.99-3.787-2.229-4.723-1.093-.825-2.296-1.134-3.337-1.209-.193-.257-.294-.486-.893-.894-.89-.606-2.291-1.174-4.264-1.174zM14 29a1 1 0 0 0-1 1 1 1 0 0 0 1 1 1 1 0 0 0 1-1 1 1 0 0 0-1-1zm52 0a1 1 0 0 0-1 1 1 1 0 0 0 1 1 1 1 0 0 0 1-1 1 1 0 0 0-1-1zm-26.723 1c1.6 0 2.56.432 3.139.826.578.394.717.672.717.672l.289.502H44c.669 0 1.752.258 2.566.873C47.381 33.488 48 34.383 48 36c0 .679-.048 1.569-.102 2.434-.248-1.498-.948-2.593-1.662-3.284-.885-.857-1.834-1.181-1.834-1.181l-.574-.194-.437.418s-.3.305-1.137.688c-.837.383-2.146.785-4.004.785-1.143 0-2.556.384-3.824 1.256-.94.646-1.631 1.716-2.028 2.974-.06-.01-.04-.03-.148-.03-.047 0-.092.01-.139.013A15.49 15.49 0 0 1 32 37.926c0-1.954-.794-3.099-1.514-3.854.97-.924 4.434-4.072 8.791-4.072zM14 33a1 1 0 0 0-1 1 1 1 0 0 0 1 1 1 1 0 0 0 1-1 1 1 0 0 0-1-1zm52 0a1 1 0 0 0-1 1 1 1 0 0 0 1 1 1 1 0 0 0 1-1 1 1 0 0 0-1-1zm-21.918 3.076c.184.083.36.118.764.51.573.555 1.154 1.418 1.154 2.996v3.537l1.506-.883a9.39 9.39 0 0 1 .318-.177c.083.035.176.07.176.14 0-.046-.067.353-.168.696-.05.17-.103.343-.148.511-.046.168-.102.275-.102.594 0-.012.015 0-.041 0h-1.508l-.049.947a5.988 5.988 0 0 1-4.925 5.584l-.284.051-.214.195A.811.811 0 0 1 40 51a.81.81 0 0 1-.56-.223l-.213-.195-.288-.05a5.987 5.987 0 0 1-4.93-5.7l-.03-.967h-1.52c-.057 0-.041-.01-.041 0 0-.319-.056-.424-.102-.592-.045-.167-.098-.342-.148-.513-.1-.343-.168-.74-.168-.694 0-.07.094-.105.176-.14.096.052.198.106.328.181l1.46.856.044-1.692c.032-1.268.665-2.092 1.553-2.703.887-.61 2.053-.902 2.689-.902 2.15 0 3.759-.472 4.836-.965.635-.29.714-.413.996-.625zM14 37a1 1 0 0 0-1 1 1 1 0 0 0 1 1 1 1 0 0 0 1-1 1 1 0 0 0-1-1zm52 0a1 1 0 0 0-1 1 1 1 0 0 0 1 1 1 1 0 0 0 1-1 1 1 0 0 0-1-1zm-52 4a1 1 0 0 0-1 1 1 1 0 0 0 1 1 1 1 0 0 0 1-1 1 1 0 0 0-1-1zm52 0a1 1 0 0 0-1 1 1 1 0 0 0 1 1 1 1 0 0 0 1-1 1 1 0 0 0-1-1zm-29 1a1 1 0 0 0-1 1 1 1 0 0 0 1 1 1 1 0 0 0 1-1 1 1 0 0 0-1-1zm6 0a1 1 0 0 0-1 1 1 1 0 0 0 1 1 1 1 0 0 0 1-1 1 1 0 0 0-1-1zm-29 3a1 1 0 0 0-1 1 1 1 0 0 0 1 1 1 1 0 0 0 1-1 1 1 0 0 0-1-1zm52 0a1 1 0 0 0-1 1 1 1 0 0 0 1 1 1 1 0 0 0 1-1 1 1 0 0 0-1-1zm-52 4a1 1 0 0 0-1 1 1 1 0 0 0 1 1 1 1 0 0 0 1-1 1 1 0 0 0-1-1zm52 0a1 1 0 0 0-1 1 1 1 0 0 0 1 1 1 1 0 0 0 1-1 1 1 0 0 0-1-1zm-52 4a1 1 0 0 0-1 1 1 1 0 0 0 1 1 1 1 0 0 0 1-1 1 1 0 0 0-1-1zm52 0a1 1 0 0 0-1 1 1 1 0 0 0 1 1 1 1 0 0 0 1-1 1 1 0 0 0-1-1zm-52 4a1 1 0 0 0-1 1 1 1 0 0 0 1 1 1 1 0 0 0 1-1 1 1 0 0 0-1-1zm4 0a1 1 0 0 0-1 1 1 1 0 0 0 1 1 1 1 0 0 0 1-1 1 1 0 0 0-1-1zm4 0a1 1 0 0 0-1 1 1 1 0 0 0 1 1 1 1 0 0 0 1-1 1 1 0 0 0-1-1zm4 0a1 1 0 0 0-1 1 1 1 0 0 0 1 1 1 1 0 0 0 1-1 1 1 0 0 0-1-1zm4 0a1 1 0 0 0-1 1 1 1 0 0 0 1 1 1 1 0 0 0 1-1 1 1 0 0 0-1-1zm4 0a1 1 0 0 0-1 1 1 1 0 0 0 1 1 1 1 0 0 0 1-1 1 1 0 0 0-1-1zm4 0a1 1 0 0 0-1 1 1 1 0 0 0 1 1 1 1 0 0 0 1-1 1 1 0 0 0-1-1zm4 0a1 1 0 0 0-1 1 1 1 0 0 0 1 1 1 1 0 0 0 1-1 1 1 0 0 0-1-1zm4 0a1 1 0 0 0-1 1 1 1 0 0 0 1 1 1 1 0 0 0 1-1 1 1 0 0 0-1-1zm4 0a1 1 0 0 0-1 1 1 1 0 0 0 1 1 1 1 0 0 0 1-1 1 1 0 0 0-1-1zm4 0a1 1 0 0 0-1 1 1 1 0 0 0 1 1 1 1 0 0 0 1-1 1 1 0 0 0-1-1zm4 0a1 1 0 0 0-1 1 1 1 0 0 0 1 1 1 1 0 0 0 1-1 1 1 0 0 0-1-1zm4 0a1 1 0 0 0-1 1 1 1 0 0 0 1 1 1 1 0 0 0 1-1 1 1 0 0 0-1-1zm4 0a1 1 0 0 0-1 1 1 1 0 0 0 1 1 1 1 0 0 0 1-1 1 1 0 0 0-1-1z"/></svg>