<svg xmlns="http://www.w3.org/2000/svg" viewBox="0 0 48 48"><path d="M10.5 7v29m27-29v29" fill="none" stroke-width="3" stroke="#f44336" stroke-miterlimit="10"/><path d="M34 31h7v5h-7zM7 31h7v5H7z" fill="#fb8c00"/><path d="M33.5 14v8m8-7.809V22m3-4.977V22m-14-5v5m-3-3.23V22m-13-8v8m-8-7.809V22m-3-4.977V22m14-5v5m3-3.23V22" fill="none" stroke="#e57373" stroke-miterlimit="10"/><path d="M2 34h44v8.05H2z" fill="#81d4fa"/><path d="M46 39.723c-.594-.348-1-.985-1-1.723h-2c0 1.102-.898 2-2 2-1.102 0-2-.898-2-2h-2c0 1.102-.898 2-2 2-1.102 0-2-.898-2-2h-2c0 1.102-.898 2-2 2-1.102 0-2-.898-2-2h-2c0 1.102-.898 2-2 2-1.102 0-2-.898-2-2h-2c0 1.102-.898 2-2 2-1.102 0-2-.898-2-2h-2c0 1.102-.898 2-2 2-1.102 0-2-.898-2-2H7c0 1.102-.898 2-2 2-1.102 0-2-.898-2-2H2v2.617C2.734 41.457 3.8 42 5 42s2.266-.543 3-1.383c.734.84 1.8 1.383 3 1.383s2.266-.543 3-1.383c.734.84 1.8 1.383 3 1.383s2.266-.543 3-1.383c.734.84 1.8 1.383 3 1.383s2.266-.543 3-1.383c.734.84 1.8 1.383 3 1.383s2.266-.543 3-1.383c.734.84 1.8 1.383 3 1.383s2.266-.543 3-1.383c.734.84 1.8 1.383 3 1.383s2.266-.543 3-1.383a4.03 4.03 0 0 0 2 1.242zm0-6c-.594-.348-1-.985-1-1.723h-2c0 1.102-.898 2-2 2-1.102 0-2-.898-2-2h-2c0 1.102-.898 2-2 2-1.102 0-2-.898-2-2h-2c0 1.102-.898 2-2 2-1.102 0-2-.898-2-2h-2c0 1.102-.898 2-2 2-1.102 0-2-.898-2-2h-2c0 1.102-.898 2-2 2-1.102 0-2-.898-2-2h-2c0 1.102-.898 2-2 2-1.102 0-2-.898-2-2H7c0 1.102-.898 2-2 2-1.102 0-2-.898-2-2H2v2.617C2.734 35.457 3.8 36 5 36s2.266-.543 3-1.383c.734.84 1.8 1.383 3 1.383s2.266-.543 3-1.383c.734.84 1.8 1.383 3 1.383s2.266-.543 3-1.383c.734.84 1.8 1.383 3 1.383s2.266-.543 3-1.383c.734.84 1.8 1.383 3 1.383s2.266-.543 3-1.383c.734.84 1.8 1.383 3 1.383s2.266-.543 3-1.383c.734.84 1.8 1.383 3 1.383s2.266-.543 3-1.383a4.03 4.03 0 0 0 2 1.242z" fill="#03a9f4"/><path d="M46 22H2" fill="none" stroke-width="2" stroke="#f44336" stroke-miterlimit="10"/><path d="M2 17.5c4 0 8-9.5 8-9.5h1s4.512 11.5 13 11.5S37 8 37 8h1s4 9.5 8 9.5" fill="none" stroke="#f44336" stroke-miterlimit="10"/></svg>