<svg xmlns="http://www.w3.org/2000/svg" viewBox="0 0 24 24"><path d="M12 2c-.55 0-1 .45-1 1h-1v1.188C8.36 4.96 7 6.633 7 9v2h2v-1c0-.602.398-1 1-1s1 .398 1 1v1h2v-1c0-.602.398-1 1-1s1 .398 1 1v1h2V9c0-2.441-1.355-4.098-3-4.844V3h-1c0-.55-.45-1-1-1zM3.5 8.313c-.7 0-1.5.874-1.5 1.874V11h3v-.813c0-1-.8-1.874-1.5-1.874zm17 0c-.7 0-1.5.882-1.5 1.78V11h3v-.813c0-1-.8-1.874-1.5-1.874zM2 12v8c0 1.102.898 2 2 2h5v-3.5l3-1 3 1V22h5c1.102 0 2-.898 2-2v-8zm3 2h2v2H5zm4 0h2v2H9zm4 0h2v2h-2zm4 0h2v2h-2zM5 18h2v2H5zm12 0h2v2h-2z"/></svg>