<svg xmlns="http://www.w3.org/2000/svg" viewBox="0 0 48 48"><path d="M41 22v1c0 7-4.102 14-12 14v-4c6.3 0 8-6.5 8-10v-1c0-1.898-.7-4-6-4h-2v-4h2c9 0 10 5.602 10 8zM7 40v1.8C7 43 8 44 9.3 44h19.5c1.2 0 2.302-1 2.302-2.3V40z" fill="#bbdefb"/><path d="M8 4s-1 4.398-1 8h24c0-4-1-8-1-8z" fill="#ffecb3"/><path d="M7 12h24v28H7z" fill="#ffb300"/><path d="M19 32c1.102 0 2 .898 2 2 0 1.102-.898 2-2 2-1.102 0-2-.898-2-2 0-1.102.898-2 2-2m0-2c-2.2 0-4 1.8-4 4s1.8 4 4 4 4-1.8 4-4-1.8-4-4-4zm5-6c1.102 0 2 .898 2 2 0 1.102-.898 2-2 2-1.102 0-2-.898-2-2 0-1.102.898-2 2-2m0-2c-2.2 0-4 1.8-4 4s1.8 4 4 4 4-1.8 4-4-1.8-4-4-4zm-5-6c1.102 0 2 .898 2 2 0 1.102-.898 2-2 2-1.102 0-2-.898-2-2 0-1.102.898-2 2-2m0-2c-2.2 0-4 1.8-4 4s1.8 4 4 4 4-1.8 4-4-1.8-4-4-4zm-5 10c1.102 0 2 .898 2 2 0 1.102-.898 2-2 2-1.102 0-2-.898-2-2 0-1.102.898-2 2-2m0-2c-2.2 0-4 1.8-4 4s1.8 4 4 4 4-1.8 4-4-1.8-4-4-4zm17 1.398c-.602.704-1 1.602-1 2.602 0 1 .398 1.898 1 2.602zm-24 0v5.204C7.602 27.898 8 27 8 26c0-1-.398-1.898-1-2.602zM9 14c-.7 0-1.398.2-2 .602V18c0-1.102.898-2 2-2 1.102 0 2 .898 2 2 0 1.102-.898 2-2 2-1.102 0-2-.898-2-2v3.398c.602.403 1.3.602 2 .602 2.2 0 4-1.8 4-4s-1.8-4-4-4zm20 0c-2.2 0-4 1.8-4 4s1.8 4 4 4c.7 0 1.398-.2 2-.602V14.5c-.602-.3-1.3-.5-2-.5zm0 6c-1.102 0-2-.898-2-2 0-1.102.898-2 2-2 1.102 0 2 .898 2 2 0 1.102-.898 2-2 2zM9 30c-.7 0-1.398.2-2 .602V34c0-1.102.898-2 2-2 1.102 0 2 .898 2 2 0 1.102-.898 2-2 2-1.102 0-2-.898-2-2v3.398c.602.403 1.3.602 2 .602 2.2 0 4-1.8 4-4s-1.8-4-4-4zm20 0c-2.2 0-4 1.8-4 4s1.8 4 4 4c.7 0 1.398-.2 2-.602V30.5c-.602-.3-1.3-.5-2-.5zm0 6c-1.102 0-2-.898-2-2 0-1.102.898-2 2-2 1.102 0 2 .898 2 2 0 1.102-.898 2-2 2z" fill="#ffca28"/></svg>