<svg xmlns="http://www.w3.org/2000/svg" viewBox="0 0 64 64"><path d="M49.21 18L16.66 36.75 4.148 35.43a4.08 4.08 0 0 0-2.476.57l-.16.09a.995.995 0 0 0-.102 1.7l9.13 6.831a5.117 5.117 0 0 0 4.6.777l15.5-4.898 1.77-1-3.351 20.059a.998.998 0 1 0 1.52 1.05l3.273-1.89c.687-.403 1.246-1 1.597-1.719l13.79-27.238 6.812-3.934a21.433 21.433 0 0 0 6.46-5.738l.079-.11c.45-.554.566-1.308.308-1.972a1.997 1.997 0 0 0-1.546-1.258l-2.204-.441A14.313 14.313 0 0 0 49.211 18z" fill="#f9e3ae"/><path d="M61.55 16.82L12.09 45.38a5.081 5.081 0 0 0 3.05 0l15.5-4.879 1.77-1-3.351 20.059a.998.998 0 1 0 1.52 1.05l3.273-1.89c.687-.403 1.246-1 1.597-1.719l13.79-27.238 6.812-3.934a21.433 21.433 0 0 0 6.46-5.738l.079-.11a2.001 2.001 0 0 0-1.04-3.16zM1.25 36.281a.987.987 0 0 0-.25.774c.031.285.18.539.41.707l1.219.918z" fill="#f6d397"/><path d="M38.71 24l-23.89-1.25a4.103 4.103 0 0 0-2.539.719l-2.43 1.68a1.002 1.002 0 0 0-.464.972.996.996 0 0 0 .683.828l14.301 5.36" fill="#f9e3ae"/><path d="M63.8 17.672a3 3 0 0 0-2.25-1.902l-2.198-.442a15.31 15.31 0 0 0-10.641 1.774L38.46 23l-23.59-1.238a5.119 5.119 0 0 0-3.172.898L9.28 24.32a1.998 1.998 0 0 0 .438 3.559L22 32.489l-5.602 3.23L4.25 34.44a5.04 5.04 0 0 0-3.078.649L1 35.19a2.006 2.006 0 0 0-1.027 1.63A2 2 0 0 0 .8 38.558l9.13 6.832a6.13 6.13 0 0 0 5.5.937l15.492-4.879.137-.05-3 18c-.149.777.171 1.57.82 2.023.652.45 1.504.476 2.18.066l3.27-1.886a5.064 5.064 0 0 0 2-2.114L50 30.468l6.55-3.777a22.39 22.39 0 0 0 6.759-6l.082-.113a3.004 3.004 0 0 0 .41-2.906zM10.423 26l2.418-1.672a3.134 3.134 0 0 1 1.922-.539l20.52 1.09-11 6.351zm51.367-6.59l-.078.11A20.383 20.383 0 0 1 55.55 25l-3.102 1.79-8.847 5a1.004 1.004 0 1 0 1 1.741l2.308-1.312-12.351 24.36a3.06 3.06 0 0 1-1.207 1.28L30 59.72l3.352-20.078a1 1 0 0 0-1.493-1l-1.68 1-15.34 4.78a4.123 4.123 0 0 1-3.698-.632L2 36.922l.16-.094c.555-.32 1.2-.46 1.84-.398l12.512 1.32a.998.998 0 0 0 .597-.129l7.77-4.492 24.762-14.3A13.314 13.314 0 0 1 59 17.3l2.2.437c.37.043.683.29.82.633a1.01 1.01 0 0 1-.18 1.02z" fill="#8d6c9f"/><path d="M25.781 36A1.02 1.02 0 1 0 24 37l1 1.73a.999.999 0 1 0 1.73-1zm4.329-2.5a.994.994 0 0 0-.872-.535 1.002 1.002 0 0 0-.86 1.535l1 1.73a1.005 1.005 0 0 0 1.763.024c.175-.32.168-.715-.032-1.024zm4.331-2.5a1.002 1.002 0 0 0-1.347-.328A.998.998 0 0 0 32.71 32l1 1.73a1 1 0 1 0 1.73-1zm4.329-2.5a.996.996 0 0 0-1.344-.328 1 1 0 0 0-.387 1.328l1 1.73a1.005 1.005 0 0 0 1.762.024c.176-.32.168-.715-.031-1.024zm4.332-2.5a1.005 1.005 0 0 0-1.762-.023.993.993 0 0 0 .03 1.023l1 1.73a.994.994 0 0 0 .871.536 1.002 1.002 0 0 0 .86-1.535zm4.328-2.5a.999.999 0 1 0-1.73 1l1 1.73a1.005 1.005 0 0 0 1.76.024 1 1 0 0 0-.03-1.024zm4.332-2.5a1.015 1.015 0 0 0-1.383-.379A1.01 1.01 0 0 0 50 22l1 1.73a.999.999 0 1 0 1.73-1z" fill="#8d6c9f"/></svg>