<svg xmlns="http://www.w3.org/2000/svg" viewBox="0 0 16 16"><path d="M14.941 9.723A.472.472 0 0 0 15 9.5c0-.016-.008-.027-.008-.04 0-.007.004-.015.004-.019-.312-2.558-2.805-5.191-6.484-5.418.027-.511.12-.98.21-1.074a.498.498 0 0 0 .223-.672.495.495 0 0 0-.668-.222c-.59.293-.738 1.265-.77 1.965-3.69.218-6.19 2.859-6.503 5.418 0 .007.004.015.004.023 0 .012-.008.023-.008.039 0 .078.023.152.059.219.004.015.015.027.023.039.047.07.102.129.176.168.008.008.012.015.02.02 1.109.558 1.671 1.417 1.671 2.554 0 .277.227.5.5.5h9.102c.277 0 .5-.223.5-.5 0-1.14.578-2.023 1.668-2.55.008-.005.008-.012.015-.016a.484.484 0 0 0 .184-.172c.008-.016.016-.024.023-.04zM12.078 12H3.922a3.578 3.578 0 0 0-.95-2H8.5a.499.499 0 1 0 0-1H2.125C2.684 6.95 4.875 5 8 5s5.316 1.95 5.875 4H11.5a.499.499 0 1 0 0 1h1.516a3.539 3.539 0 0 0-.938 2z"/></svg>