<svg xmlns="http://www.w3.org/2000/svg" viewBox="0 0 50 50"><path d="M10.313 2a.993.993 0 0 0-.782.75S9 4.918 9 9v36c0 1.645 1.355 3 3 3h22c1.645 0 3-1.355 3-3v-4.5c0-.215.285-.5.5-.5 3.738 0 6.91-1.668 9.094-4.313C48.777 33.044 50 29.453 50 25.5v-3.594A8.892 8.892 0 0 0 41.094 13h-1C38.437 13 37 11.656 37 9.906V9c0-4.082-.531-6.25-.531-6.25A1 1 0 0 0 35.5 2H10.312zm1.093 2h23.188c.093.422.406 1.594.406 5v1H11V9c0-3.406.313-4.578.406-5zM11 11.813c.3 0 .7.093 1 .093.602.2 1.195.508 1.594.906 0 0 .094-.007.094.094l.312.281.188.22c.101.1.117.179.218.28.102.102.086.211.188.313 0 .102.094.21.094.313.101.101.124.273.124.374 0 .102-.007.211.094.313 0 .2.094.488.094.688 0 .199.008.519-.094.718 0 .102.008.18-.094.282 0 .199-.124.304-.124.406 0 .101-.094.21-.094.312-.102.102-.086.18-.188.282-.101.101-.117.21-.219.312l-.5.5s-.093-.008-.093.094c-.5.398-.992.707-1.594.906-.3.102-.7.094-1 .094V18c.398 0 .7-.113 1-.313.3-.199.488-.386.688-.687v-.094c.101-.101.117-.207.218-.406v-.094c0-.199.094-.3.094-.5 0-.199.008-.3-.094-.5v-.094c0-.101-.117-.207-.219-.406v-.094c-.199-.3-.386-.519-.687-.718-.3-.2-.602-.281-1-.281zM23 12c2.2 0 4 1.8 4 4s-1.8 4-4 4-4-1.8-4-4 1.8-4 4-4zm11.5.406c.176-.011.352 0 .5 0V14c-.398 0-.7.113-1 .313-.3.199-.488.386-.688.687v.094c-.101.101-.117.207-.218.406v.094c0 .199-.094.3-.094.5 0 .199-.008.3.094.5v.093c0 .102.117.208.218.407v.093c.2.301.387.52.688.72.3.198.602.28 1 .28v2c-.3 0-.7-.093-1-.093-.602-.2-1.195-.508-1.594-.907 0 0-.093.008-.093-.093L32 18.812l-.188-.218c-.101-.102-.117-.18-.218-.282-.102-.101-.086-.21-.188-.312 0-.102-.093-.21-.093-.313-.102-.101-.125-.273-.125-.375 0-.101.007-.21-.094-.312 0-.2-.094-.488-.094-.688 0-.199-.008-.519.094-.718 0-.102-.008-.18.093-.281 0-.2.125-.305.125-.407 0-.101.094-.21.094-.312.102-.102.086-.18.188-.281.101-.102.117-.211.218-.313l.5-.5s.094.008.094-.094c.5-.398.992-.707 1.594-.906.148-.05.324-.082.5-.094zm2.5 1.5c.871.676 1.938 1.094 3.094 1.094h1C44.964 15 48 18.035 48 21.906V25.5c0 3.547-1.094 6.707-2.938 8.938C43.22 36.667 40.66 38 37.5 38c-.172 0-.336.027-.5.063v-2.25A2.95 2.95 0 0 0 38 36c2.547 0 4.836-1.348 6.438-3.5C46.038 30.348 47 27.387 47 24v-1.594A6.41 6.41 0 0 0 40.594 16h-1.188a4.38 4.38 0 0 0-2.406.719zM23 14a1.999 1.999 0 1 0 0 4 1.999 1.999 0 1 0 0-4zm16.406 4h1.188A4.367 4.367 0 0 1 45 22.406V24c0 3.012-.855 5.566-2.156 7.313C41.543 33.059 39.852 34 38 34c-.555 0-1-.445-1-1V20.406C37 19.031 38.031 18 39.406 18zM17 21c2.2 0 4 1.8 4 4s-1.8 4-4 4-4-1.8-4-4 1.8-4 4-4zm12 0c2.2 0 4 1.8 4 4s-1.8 4-4 4-4-1.8-4-4 1.8-4 4-4zm-12 2a1.999 1.999 0 1 0 0 4 1.999 1.999 0 1 0 0-4zm12 0a1.999 1.999 0 1 0 0 4 1.999 1.999 0 1 0 0-4zm-18 6.813c.3 0 .7.093 1 .093.602.2 1.195.508 1.594.907 0 0 .094-.008.094.093l.312.282.188.218c.101.102.117.18.218.282.102.101.086.21.188.312 0 .102.094.21.094.313.101.101.124.273.124.374 0 .102-.007.211.094.313 0 .2.094.488.094.688 0 .199.008.519-.094.718 0 .102.008.18-.094.282 0 .199-.124.304-.124.406 0 .101-.094.21-.094.312-.102.102-.086.18-.188.282-.101.101-.117.21-.219.312l-.5.5s-.093-.008-.093.094c-.5.398-.992.707-1.594.906-.3.398-.7.5-1 .5v-2c.398 0 .7-.113 1-.313.3-.199.488-.386.688-.687v-.094c.101-.101.117-.207.218-.406v-.094c0-.199.094-.3.094-.5 0-.199.008-.3-.094-.5v-.093c0-.102-.117-.208-.219-.407v-.093c-.199-.301-.386-.52-.687-.72-.3-.198-.602-.28-1-.28zM23 30c2.2 0 4 1.8 4 4s-1.8 4-4 4-4-1.8-4-4 1.8-4 4-4zm11.5.406c.176-.011.352 0 .5 0V32c-.398 0-.7.113-1 .313-.3.199-.488.386-.688.687v.094c-.101.101-.117.207-.218.406v.094c0 .199-.094.3-.094.5 0 .199-.008.3.094.5v.093c0 .102.117.208.218.407v.093c.2.301.387.52.688.72.3.198.602.28 1 .28v2c-.3 0-.7-.093-1-.093-.602-.2-1.195-.508-1.594-.907 0 0-.093.008-.093-.093L32 36.812l-.188-.218c-.101-.102-.117-.18-.218-.282-.102-.101-.086-.21-.188-.312 0-.102-.093-.21-.093-.313-.102-.101-.125-.273-.125-.374 0-.102.007-.211-.094-.313 0-.2-.094-.488-.094-.688 0-.199-.008-.519.094-.718 0-.102-.008-.18.093-.282 0-.199.125-.304.125-.406 0-.101.094-.21.094-.312.102-.102.086-.18.188-.282.101-.101.117-.21.218-.312l.5-.5s.094.008.094-.094c.5-.398.992-.707 1.594-.906.148-.05.324-.082.5-.094zM23 32a1.999 1.999 0 1 0 0 4 1.999 1.999 0 1 0 0-4zm-5.906 7c1.898 0 3.406 1.3 3.906 3h-2.313c-.3-.602-.988-1-1.687-1-.7 0-1.387.398-1.688 1h-2.124c.398-1.7 2.007-3 3.906-3zm12 0c1.898 0 3.406 1.3 3.906 3h-2.313c-.3-.602-.988-1-1.687-1-.7 0-1.387.398-1.688 1h-2.125c.399-1.7 2.008-3 3.907-3zM11 44h24v1c0 .555-.445 1-1 1H12c-.555 0-1-.445-1-1z"/></svg>