<svg xmlns="http://www.w3.org/2000/svg" viewBox="0 0 48 48"><path d="M19.098 20.738c4.101-4.3 7.78-8.293 10.558-11.136 3.856-3.95 8.434-4.891 9.922-4.532 1.14.278 4.063 4.504 3.297 8.774-.508 2.82-3.582 12.37-9.914 18.914-6.332 6.543-18.238 10.191-22.086 10.234-3.41.035-5.867-1.82-5.867-3.308 0-1.489-.27-5.684 2.793-8.528 2.515-2.332 5.008-3.82 11.297-10.418z" fill="#ffe082"/><path d="M11.367 38.781a65.725 65.725 0 0 1 8.336-6.496c2.215-1.453 5.684-4.305 8.395-4.203 1.84.066 3.687-.02 5.48.016.75.015 1.727.37 2.41.988a42.873 42.873 0 0 0 3.668-6.246c-.34.351-.699.664-1.117.863-.336.156-.695.242-1.012.453-.59.395-1.007 1.223-1.71 1.242-.723.02-1.34-.875-1.567-1.75-.227-.882-.531-2.168-.355-3.062a41.578 41.578 0 0 1 1.863-6.488c.597-1.582 1.312-4.36 2.754-5.328.953-.637 1.851-1.352 2.765-1.993-.625-.968-1.285-1.605-1.703-1.707-1.484-.36-6.062.582-9.918 4.532-1.636 1.675-3.593 3.753-5.758 6.054.239.555.32 1.211.329 1.852.03 2.09-.543 4.183-1.59 5.805-.653 1.003-1.465 1.82-2.293 2.59a50.49 50.49 0 0 1-3.13 2.695c-.636.504-1.3.996-2.034 1.16-.344.074-.696.078-1.028.203-.625.238-1.187.91-1.836.781-.671-.133-1.046-1.086-1.07-1.941-.004-.2.008-.403.024-.602-1.344 1.137-2.407 1.973-3.47 2.957-3.062 2.844-2.792 7.04-2.792 8.528 0 1.207 1.613 2.656 4.047 3.14.523-1.312 1.3-3.11 2.312-4.043z" fill="#795548"/></svg>