<svg xmlns="http://www.w3.org/2000/svg" viewBox="0 0 40 40"><path d="M25.431 36.5c-3.886 0-3.931-.753-3.931-.786 0-1.049.747-3.214 3.056-3.214 3.086 0 3.944 2.801 3.944 3.119 0 .229-.563.881-3.069.881z" fill="#a6714e"/><path d="M24.556 33c2.461 0 3.311 2.016 3.43 2.536-.153.12-.751.464-2.555.464-2.416 0-3.203-.304-3.424-.429.062-.721.576-2.571 2.549-2.571m0-1C21.871 32 21 34.502 21 35.714c0 .99 1.981 1.286 4.431 1.286C28.235 37 29 36.217 29 35.619c0-.66-1.094-3.619-4.444-3.619z" fill="#7a4f34"/><path d="M14.569 36.5c-2.506 0-3.069-.652-3.069-.881 0-.318.858-3.119 3.944-3.119 2.309 0 3.056 2.166 3.056 3.214 0 .033-.045.786-3.931.786z" fill="#a6714e"/><path d="M15.444 33c1.972 0 2.486 1.85 2.549 2.571-.221.125-1.009.429-3.424.429-1.794 0-2.395-.34-2.552-.462.13-.554.986-2.538 3.427-2.538m0-1C12.094 32 11 34.959 11 35.619c0 .598.765 1.381 3.569 1.381 2.45 0 4.431-.296 4.431-1.286C19 34.502 18.129 32 15.444 32z" fill="#7a4f34"/><path d="M20 33.5c-3.214 0-6.5-.857-6.5-7.214 0-5.67 2.733-9.786 6.5-9.786s6.5 4.115 6.5 9.786c0 6.394-3.474 7.214-6.5 7.214z" fill="#a6714e"/><path d="M20 17c3.477 0 6 3.905 6 9.286C26 31.055 24.262 33 20 33c-3.116 0-6-.813-6-6.714C14 20.905 16.523 17 20 17m0-1c-3.866 0-7 4.043-7 10.286C13 32.528 16.134 34 20 34s7-1.473 7-7.714C27 20.045 23.866 16 20 16z" fill="#7a4f34"/><path d="M20 27.667c-2.209 0-4-.479-4-4.364S18.557 17 20 17s4 2.42 4 6.303-1.791 4.364-4 4.364z" fill="#f5ce85"/><circle cx="6.5" cy="11.5" r="6" fill="#a6714e"/><path d="M6.5 6C9.533 6 12 8.467 12 11.5S9.533 17 6.5 17 1 14.533 1 11.5 3.467 6 6.5 6m0-1a6.5 6.5 0 1 0 0 13 6.5 6.5 0 0 0 0-13z" fill="#7a4f34"/><circle cx="33.5" cy="11.5" r="6" fill="#a6714e"/><path d="M33.5 6c3.033 0 5.5 2.467 5.5 5.5S36.533 17 33.5 17 28 14.533 28 11.5 30.467 6 33.5 6m0-1a6.5 6.5 0 1 0 0 13 6.5 6.5 0 0 0 0-13z" fill="#7a4f34"/><path d="M20 20.5c-6.126 0-9.5-2.841-9.5-8s3.374-8 9.5-8 9.5 2.841 9.5 8-3.374 8-9.5 8z" fill="#f5ce85"/><path d="M20 5c5.888 0 9 2.593 9 7.5S25.888 20 20 20s-9-2.593-9-7.5S14.112 5 20 5m0-1c-7.281 0-10 3.805-10 8.5S12.717 21 20 21s10-3.805 10-8.5S27.281 4 20 4z" fill="#7a4f34"/><circle cx="24" cy="12" r="2" fill="#fff"/><circle cx="24" cy="12.5" r="1.5" fill="#36404d"/><circle cx="24.633" cy="11.1" r=".5" fill="#fff"/><polygon points="18.752,16 20,14.752 21.248,16" fill="#66798f"/><path d="M21.739 16.724S20.844 18 20 18s-1.739-1.276-1.739-1.276.908.492 1.739.492 1.739-.492 1.739-.492z" fill="#c74343"/><path d="M25.635 9s-.778-.5-2.135-.5" fill="none" stroke="#7a4f34" stroke-linecap="round" stroke-linejoin="round" stroke-miterlimit="10"/><circle cx="16" cy="12" r="2" fill="#fff"/><circle cx="16" cy="12.5" r="1.5" fill="#36404d"/><circle cx="16.633" cy="11.1" r=".5" fill="#fff"/><path d="M14.365 9s.778-.5 2.135-.5" fill="none" stroke="#7a4f34" stroke-linecap="round" stroke-linejoin="round" stroke-miterlimit="10"/><path d="M30 27.5c-.827 0-1.5-.673-1.5-1.5 0-1.259-1.35-2.987-2.435-4.376-.271-.346-.58-.743-.799-1.053 1.752.308 6.234 1.686 6.234 5.429 0 .827-.673 1.5-1.5 1.5z" fill="#a6714e"/><path d="M26.529 21.405C28.411 22.007 31 23.361 31 26c0 .551-.449 1-1 1s-1-.449-1-1c0-1.304-1.066-2.792-2.471-4.595M24.667 20C23.562 20 28 24 28 26a2 2 0 1 0 4 0c0-4.667-6.229-6-7.333-6z" fill="#7a4f34"/><path d="M10 27.5c-.827 0-1.5-.673-1.5-1.5 0-3.743 4.482-5.121 6.233-5.429-.219.311-.528.707-.799 1.053C12.85 23.013 11.5 24.741 11.5 26c0 .827-.673 1.5-1.5 1.5z" fill="#a6714e"/><path d="M13.471 21.405C12.066 23.208 11 24.696 11 26c0 .551-.449 1-1 1s-1-.449-1-1c0-2.639 2.589-3.993 4.471-4.595M15.333 20C14.229 20 8 21.333 8 26a2 2 0 1 0 4 0c0-2 4.438-6 3.333-6z" fill="#7a4f34"/></svg>