<svg xmlns="http://www.w3.org/2000/svg" viewBox="0 0 32 32"><path d="M25.07 4c-.996.004-1.86.555-2.367 1.32l.035-.05a82.132 82.132 0 0 1-2.347 2.925c-.036-.011-.063-.027-.11-.043h-.004a3.32 3.32 0 0 0-1.715-.074 3.22 3.22 0 0 0-1.55.828L15.5 10.36a5.38 5.38 0 0 0-1.828-.36c-.918-.016-1.93.234-2.684.988-.75.75-1 1.762-.988 2.684.008.644.145 1.265.363 1.828l-1.457 1.512a3.299 3.299 0 0 0-.754 3.265v.004c.016.047.032.074.043.11a82.132 82.132 0 0 1-2.925 2.347l.05-.035c-.765.508-1.316 1.371-1.32 2.367-.004 1.664 1.469 2.926 3.137 2.93h.02c1.468 0 2.98-.309 4.488-.816.605.64 1.445.816 2.117.816.511 0 1.031-.133 1.5-.39.55-.31 1.316-.84 2.785-2.028 1.406.7 3.164.484 4.328-.684l2.527-2.523c1.164-1.164 1.383-2.922.68-4.328 1.188-1.469 1.719-2.235 2.027-2.785.258-.469.391-.989.391-1.5 0-.672-.176-1.512-.816-2.117.507-1.508.816-3.02.816-4.489v-.02C27.996 5.47 26.734 4 25.074 4zm.004 2c.461 0 .926.441.926 1.14v.016c0 1.063-.2 2.215-.559 3.399a53.626 53.626 0 0 0-2.273-1.125c-.328-.157-.578-.266-.875-.399a76.32 76.32 0 0 0 2.039-2.554l.02-.024.02-.027c.19-.29.433-.426.702-.426zm-5.73 4c.113.008.226.027.336.063-.09-.032.066.023.218.09.153.062.36.152.602.257a85.27 85.27 0 0 1 1.813.828c1.355.637 2.886 1.426 3.453 1.825.125.09.234.343.234.699 0 .175-.043.351-.14.523-.247.45-.688 1.074-1.626 2.246-.14-.113-.257-.207-.441-.351a206.047 206.047 0 0 0-2.379-1.836c-1.367-1.035-2.871-2.149-4.09-2.957l1.07-1.04c.258-.242.606-.359.95-.347zm-5.7 2a3.516 3.516 0 0 1 1.547.414c1.055.594 3.2 2.149 5.012 3.524.91.69 1.746 1.34 2.36 1.816.304.242.554.437.726.574l.2.16a1.737 1.737 0 0 1-.005 2.473l-2.52 2.523a1.74 1.74 0 0 1-2.484 0c.075.075-.074-.086-.218-.261-.145-.172-.336-.41-.57-.703a135.565 135.565 0 0 1-1.735-2.227c-1.305-1.723-2.785-3.781-3.539-5.105A3.48 3.48 0 0 1 12 13.64c-.008-.54.133-.97.406-1.239.27-.27.696-.41 1.239-.402zm-2.261 5.324c.855 1.32 1.965 2.836 2.98 4.176.668.879 1.29 1.672 1.762 2.266.156.195.27.332.39.48-1.16.926-1.785 1.367-2.23 1.613a1.042 1.042 0 0 1-.523.141c-.356 0-.61-.11-.7-.234-.398-.567-1.187-2.098-1.824-3.453a78.53 78.53 0 0 1-.828-1.813c-.105-.242-.195-.45-.258-.602-.066-.152-.12-.308-.09-.218a1.306 1.306 0 0 1 .286-1.285zM9.03 22.293c.133.297.242.547.399.875.363.77.746 1.562 1.125 2.273-1.184.36-2.332.559-3.399.559H7.14c-.7-.004-1.14-.465-1.14-.926 0-.27.137-.512.426-.703l.027-.02.024-.019a76.32 76.32 0 0 0 2.554-2.039z"/></svg>