<svg xmlns="http://www.w3.org/2000/svg" viewBox="0 0 24 24"><path d="M21.375 4.531c-.668.004-1.344.117-1.813.344L5.5 11.625l-4.438-1.438c-.628.301-1.03.5-1.03.5s2.113 2.524 3.812 3.907c.828.672 5.52-.535 7.594-1.531l1.187-.563-.938 8.688c-.019.175.09.23.25.156l1.75-.813a.886.886 0 0 0 .407-.437l3.5-10 4.625-2.219c1.265-.605 1.992-1.836 1.687-2.469-.289-.601-1.418-.879-2.531-.875zm-14.063.594a.746.746 0 0 0-.28.063l-1.75.843c-.16.078-.15.219 0 .313L9.093 8.78l3.75-1.812-5.219-1.813a.796.796 0 0 0-.313-.031z"/></svg>