<svg xmlns="http://www.w3.org/2000/svg" viewBox="0 0 32 32"><path d="M14 8c-4.773 0-8.84 2.14-11.75 5.438l-.656.718.718.656 5.782 5.313.719.656 4.28 3.969.282.25H30v-1c0-8.824-7.176-16-16-16zm-1 2.031v7.031a6.742 6.742 0 0 0-1.094.25L9.062 10.97A12.774 12.774 0 0 1 13 10.03zm2 0a13.9 13.9 0 0 1 3.344.656l-2.688 6.532a6.08 6.08 0 0 0-.656-.125zm5.188 1.438a13.747 13.747 0 0 1 2.937 1.969l-5 4.937a6.922 6.922 0 0 0-.594-.406zm-12.907.375l2.844 6.344a7.007 7.007 0 0 0-.625.5l-5.031-4.625c.86-.86 1.789-1.606 2.812-2.22zm17.282 3.031c.71.832 1.34 1.738 1.843 2.719l-6.437 2.75c-.125-.2-.266-.375-.407-.563zM14 19c2.414 0 4.305 1.734 4.781 4h-4.593l-3.126-2.875C11.899 19.485 12.86 19 14 19zm13.156.406c.395 1.14.66 2.34.75 3.594h-7c-.043-.3-.074-.586-.156-.875z"/></svg>