<svg xmlns="http://www.w3.org/2000/svg" viewBox="0 0 80 80"><path d="M32 20c-4.61 0-7.773.773-10.05 1.844-2.278 1.074-3.657 2.449-4.657 3.449-.617.617-2.297 2.55-3.922 4.426-1.523 1.758-2.75 3.187-2.93 3.394-2.23.293-4.07 2.172-5.496 4.489-1.402 2.277-2.34 5.003-2.71 7.507C1.007 45.262 0 46.234 0 47.5 0 48.867 1.133 50 2.5 50h.64c1.044 1.133 2.852 1.844 5.86 1.973V52c0 4.406 3.594 8 8 8 4.066 0 7.438-3.063 7.934-7h34.132c.496 3.938 3.868 7 7.934 7 4.11 0 7.512-3.125 7.95-7.125.886-.23 1.6-.773 2.081-1.375.64-.805.969-1.668.969-2.5v-4c.55 0 1-.45 1-1v-2c0-.55-.45-1-1-1 0-.832-.387-1.55-.918-2.082-.363-.363-.84-.605-1.36-.758-.257-.633-.69-1.191-1.32-1.71-.902-.743-2.125-1.466-3.629-2.118-2.882-1.254-6.824-2.2-11.238-2.277-2.855-3.809-5.082-6.774-7.515-8.82C49.504 21.116 46.69 20 43 20zm.922 2h2.816l-.726 8.75C34.867 32.484 36.262 34 38 34h21c4.352 0 8.234.977 10.977 2.168 1.37.598 2.46 1.25 3.152 1.82.101.082.164.157.246.23A1.002 1.002 0 0 0 74 40l1 .001c.168 0 .45.113.668.332.219.219.332.5.332.668v8c0 .168-.172.805-.531 1.25a2.158 2.158 0 0 1-.574.512C74.297 46.942 70.985 44 67 44c-4.066 0-7.438 3.063-7.934 7H24.934c-.497-3.938-3.868-7-7.934-7-3.707 0-6.828 2.547-7.73 5.98-3.2-.105-4.438-.843-4.903-1.539L4.07 48H2.5a.489.489 0 0 1-.5-.5c0-.285.215-.5.5-.5h1.46l.087-.906c.09-.969.328-2.047.668-3.137A1.002 1.002 0 0 0 6 42a.994.994 0 0 0-.594-.91c.364-.856.782-1.688 1.242-2.438C8.023 36.414 9.754 35 11 35h.457l.305-.348s.468-.55.558-.652h16.84c1.55 0 2.86-1.203 2.992-2.75zm4.828 0H43c3.309 0 5.496.883 7.73 2.766 1.918 1.613 3.864 4.062 6.258 7.234H38a.98.98 0 0 1-.996-1.082zm-6.84.023l-.754 9.059a.988.988 0 0 1-.996.918H14.047c.387-.453.398-.469.832-.969 1.625-1.875 3.445-3.941 3.828-4.324 1-1 2.121-2.125 4.094-3.05 1.8-.848 4.34-1.524 8.11-1.634zM33 36a1.006 1.006 0 0 0-.879.496 1.01 1.01 0 0 0 0 1.008c.184.312.52.5.879.496h4c.36.004.695-.184.879-.496a1.01 1.01 0 0 0 0-1.008c-.184-.312-.52-.5-.879-.496zm-21 2c-.55 0-1 .45-1 1s.45 1 1 1 1-.45 1-1-.45-1-1-1zm4 0c-.55 0-1 .45-1 1s.45 1 1 1 1-.45 1-1-.45-1-1-1zm4 0c-.55 0-1 .45-1 1s.45 1 1 1 1-.45 1-1-.45-1-1-1zm38 0c-.55 0-1 .45-1 1s.45 1 1 1 1-.45 1-1-.45-1-1-1zm4 0c-.55 0-1 .45-1 1s.45 1 1 1 1-.45 1-1-.45-1-1-1zm4 0c-.55 0-1 .45-1 1s.45 1 1 1 1-.45 1-1-.45-1-1-1zm4 0c-.55 0-1 .45-1 1s.45 1 1 1 1-.45 1-1-.45-1-1-1zM8 39c-.55 0-1 .45-1 1s.45 1 1 1 1-.45 1-1-.45-1-1-1zm9 7c3.324 0 6 2.676 6 6s-2.676 6-6 6-6-2.676-6-6 2.676-6 6-6zm50 0c3.324 0 6 2.676 6 6s-2.676 6-6 6-6-2.676-6-6 2.676-6 6-6zm-50 2c-2.2 0-4 1.8-4 4s1.8 4 4 4 4-1.8 4-4-1.8-4-4-4zm50 0c-2.2 0-4 1.8-4 4s1.8 4 4 4 4-1.8 4-4-1.8-4-4-4zm-50 2c1.117 0 2 .883 2 2s-.883 2-2 2-2-.883-2-2 .883-2 2-2zm50 0c1.117 0 2 .883 2 2s-.883 2-2 2-2-.883-2-2 .883-2 2-2z"/></svg>