<svg xmlns="http://www.w3.org/2000/svg" viewBox="0 0 50 50"><path d="M22 9a28 28 0 0 0-5 .469l3.375 15.656C20.906 25.055 21.457 25 22 25c.367 0 .734.031 1.094.063L25.937 9.28A27.849 27.849 0 0 0 22 9zm5.906.625l-2.843 15.781a11.8 11.8 0 0 1 2.5.969l8.656-13.469a27.888 27.888 0 0 0-8.313-3.281zm-12.875.25c-2.879.738-5.617 1.957-8.125 3.563L16 26.655a11.664 11.664 0 0 1 2.438-1.093zm22.875 4.094l-8.656 13.5c.734.558 1.41 1.168 2 1.875l13.156-9.125a28.295 28.295 0 0 0-6.5-6.25zm-32.625.594A28.74 28.74 0 0 0 .22 19.375a.96.96 0 0 0-.219.719c.027.265.168.52.375.687l11.719 9.469c.344-.434.597-.75.625-.781a11.643 11.643 0 0 1 1.625-1.657zm40.25 7.312L32.375 31c.438.758.797 1.555 1.063 2.406l15.687-3.375a27.91 27.91 0 0 0-3.594-8.156zM22 27c-3.059 0-5.797 1.316-7.719 3.719-.008.011-.273.363-.625.812l7.719 6.25c.18.145.395.219.625.219h10v-1c0-.688-.055-1.352-.188-2-.027-.063-.078-.121-.093-.188-.008-.039.004-.085 0-.124a10.02 10.02 0 0 0-7.782-7.5h-.03c-.06 0-.13.011-.188 0-.04-.008-.059-.02-.094-.032A10.135 10.135 0 0 0 22 27zm27.531 4.969l-15.656 3.406c.074.535.125 1.07.125 1.625v1h15.031c.555 0 1-.445 1-1 0-.07-.015-.121-.031-.188a28.274 28.274 0 0 0-.469-4.843z"/></svg>