<svg xmlns="http://www.w3.org/2000/svg" viewBox="0 0 50 50"><path d="M40.988.992c-.406 0-.77.246-.925.621a1 1 0 0 0 .23 1.094l1.469 1.465-.938 1.238-1.117-1.117a1.004 1.004 0 0 0-1.645.32 1 1 0 0 0 .231 1.094l1.312 1.313-1.18 1.55 3 3.004 7.134-5.402a1.152 1.152 0 0 0 .101-1.723l-3.11-3.113a1.152 1.152 0 0 0-1.722.11l-.848 1.12-1.273-1.273a.988.988 0 0 0-.719-.3zM37 10l-10 9.586L30.414 23 40 13zM24.98 20.395L1.797 25.172a.999.999 0 0 0-.504 1.684l21.848 21.847a1 1 0 0 0 .996.254.998.998 0 0 0 .691-.754l4.777-23.183zM21.5 27a1.5 1.5 0 1 1 0 3 1.5 1.5 0 0 1 0-3zM15 30a1 1 0 0 1 .707.293l4 4a1 1 0 1 1-1.414 1.414l-4-4A1 1 0 0 1 15 30z"/></svg>