<svg xmlns="http://www.w3.org/2000/svg" viewBox="0 0 50 50"><path d="M28.691 1c-1.003 0-1.675.8-2.12 1.805A27.438 27.438 0 0 0 20 2c-2.2 0-3.766.145-4.934.54-.582.194-1.082.46-1.464.874A2.32 2.32 0 0 0 13 4.945c0 .106.004.114.012.149-.004.015-.012.011-.012.031 0 .578.164 1.09.367 1.672.203.582.465 1.2.723 1.773.457 1.016.812 1.696.91 1.883v1.856l.77.18c8.445 2 18.18 2.511 18.18 2.511l1.05.055v-1.106c.402-.011.547.012 1.113-.058.547-.063 1.098-.153 1.621-.352.258-.101.52-.223.77-.453S39 12.446 39 12v-.035c-.04-1.14-.676-2.184-1.637-3.262-.96-1.078-2.297-2.164-3.96-3.152-1.462-.867-3.184-1.645-5.106-2.258a.89.89 0 0 1 .23-.246.962.962 0 0 0 .438.101c.738 0 1.035-.636 1.035-.914C30 1.957 29.934 1 28.691 1zM20 4c5.043 0 9.352 1.473 12.379 3.273 1.516.899 2.703 1.88 3.492 2.762.66.742.848 1.293.945 1.68a5.67 5.67 0 0 1-.93.191c-.913.106-1.87.094-1.87.094L33 11.984v.926c-1.445-.086-8.746-.617-16-2.238v-.695l-.113-.22s-.489-.929-.977-2.007c-.242-.54-.48-1.113-.652-1.61a4.714 4.714 0 0 1-.242-.96l.004-.024-.008-.133C15.004 4.922 15 4.88 15 4.945c0-.105-.004-.097.063-.172.07-.07.265-.21.644-.34C16.469 4.177 17.898 4 20 4zm-6.781.492a1.53 1.53 0 0 0-.2.567l.012-.157c.059-.285.207-.433.188-.41zM16.03 16a1.088 1.088 0 0 0-.355.05l-2 .684a1.035 1.035 0 0 0-.406.266H4.36c-.774 0-1.407.469-1.786 1.027-.379.555-.566 1.235-.566 1.973L2 44c0 .734.191 1.418.57 1.973C2.945 46.53 3.582 47 4.355 47h8.915c.113.121.253.21.406.266l2 .683c.21.07.437.07.648 0L18 47.375l1.676.574c.21.07.437.07.648 0L22 47.375l1.676.574c.21.07.437.07.648 0L26 47.375l1.676.574c.21.07.437.07.648 0L30 47.375l1.676.574c.21.07.437.07.648 0L34 47.375l1.676.574c.21.07.437.07.648 0l2-.683c.153-.055.293-.145.406-.266H45c1.645 0 3-1.355 3-3V20c0-1.645-1.355-3-3-3h-6.27a1.035 1.035 0 0 0-.406-.266l-2-.683a1.099 1.099 0 0 0-.293-.051 1.088 1.088 0 0 0-.355.05L34 16.626l-1.676-.574a1.099 1.099 0 0 0-.293-.051 1.088 1.088 0 0 0-.355.05L30 16.626l-1.676-.574a1.099 1.099 0 0 0-.293-.051 1.088 1.088 0 0 0-.355.05L26 16.626l-1.676-.574a1.099 1.099 0 0 0-.293-.051 1.088 1.088 0 0 0-.355.05L22 16.626l-1.676-.574a1.099 1.099 0 0 0-.293-.051 1.088 1.088 0 0 0-.355.05L18 16.626l-1.676-.574a1.099 1.099 0 0 0-.293-.051zM16 18.059l1 .34v27.203l-1 .34-1-.34V18.398zm4 0l1 .34v27.203l-1 .34-1-.34V18.398zm4 0l1 .34v27.203l-1 .34-1-.34V18.398zm4 0l1 .34v27.203l-1 .34-1-.34V18.398zm4 0l1 .34v27.203l-1 .34-1-.34V18.398zm4 0l1 .34v27.203l-1 .34-1-.34V18.398zM4.36 19H13v3H6.031v2H13v2H6.031v2H13v4H6.031v2H13v2H6.031v2H13v2H6.031v2H13v3H4.355c.024 0-.015.02-.128-.145-.114-.167-.223-.488-.227-.855l.008-24c0-.371.11-.688.222-.855.114-.165.153-.145.13-.145zM39 19h6c.566 0 1 .434 1 1v24c0 .566-.434 1-1 1h-6zm4 2c-.55 0-1 .45-1 1s.45 1 1 1 1-.45 1-1-.45-1-1-1zm0 4c-.55 0-1 .45-1 1s.45 1 1 1 1-.45 1-1-.45-1-1-1zm0 4c-.55 0-1 .45-1 1s.45 1 1 1 1-.45 1-1-.45-1-1-1zm0 4c-.55 0-1 .45-1 1s.45 1 1 1 1-.45 1-1-.45-1-1-1zm0 4c-.55 0-1 .45-1 1s.45 1 1 1 1-.45 1-1-.45-1-1-1zm0 4c-.55 0-1 .45-1 1s.45 1 1 1 1-.45 1-1-.45-1-1-1z"/></svg>