<svg xmlns="http://www.w3.org/2000/svg" viewBox="0 0 48 48"><path d="M24 40c-2.191 0-5-6-5-6v-6h10v6s-2.809 6-5 6" fill="#ef9a9a"/><path d="M33 16c0-7.637-18-4.973-18 0v7c0 4.973 4.027 10 9 10s9-5.027 9-10zm-9 26c-5 0-5-9-5-9s2.508 4 5 4 5-4 5-4 .46 9-5 9" fill="#ffcdd2"/><path d="M26 23s1.45 1 2 1 2-1 2-1-1.45-1-2-1-2 1-2 1m-8 0s1.45 1 2 1 2-1 2-1-1.45-1-2-1-2 1-2 1" fill="#3e2723"/><path d="M39.695 44C37.925 35.648 29 34 29 34l-5 7-5-7s-8.934 1.617-10.695 10z" fill="#9c27b0"/><path d="M26.563 28.875C26.563 29.98 25 31 24 31c-1 0-2.563-1.02-2.563-2.125 0-.438 2.563-.957 2.563.125 0-1.145 2.563-.563 2.563-.125z" fill="#ff1744"/><path d="M22.445 44h3.11l.894-1.27 5.48-7.765C30.263 34.235 29 34 29 34l-5 7-5-7s-1.266.23-2.938.96l5.489 7.77z" fill="#ce93d8"/><path d="M39 11l-15 3-15-3" fill="none" stroke-width="2" stroke="#37474f"/><path d="M33 11c0 1.625-.688 3.121-1.84 4.313-1.062 0-12.336.117-14.207.117C15.734 14.223 15 12.68 15 11c0-3.867 3.883-7 8.668-7h.668C29.117 4 33 7.133 33 11z" fill="#455a64"/><path d="M24 10c-5 0-15 3-15 14l7 3v-6s2-5 8-5 8 5 8 5v6l7-4.285C39 13 29 10 24 10z" fill="#455a64"/><path d="M32.828 12.387c.11-.45.172-.91.172-1.387 0-.29-.027-.574-.07-.855C29.953 8.656 26.66 8 24 8c-2.738 0-6.012.688-8.95 2.262-.03.242-.05.492-.05.738 0 .516.074 1.02.203 1.504C18.203 10.66 21.653 10 24 10c2.355 0 5.82.668 8.828 2.387z" fill="#ff80ab"/><path d="M19 9c0 .555-1 2-1 2s-1-1.445-1-2a1 1 0 1 1 2 0zm-2 4c0-.555 1-2 1-2s1 1.445 1 2a1 1 0 1 1-2 0zm-1-3c.555 0 2 1 2 1s-1.445 1-2 1c-.555 0-1-.445-1-1 0-.555.445-1 1-1zm4 2c-.555 0-2-1-2-1s1.445-1 2-1c.555 0 1 .445 1 1 0 .555-.445 1-1 1zm4-5c0 .555-1 2-1 2s-1-1.445-1-2a1 1 0 1 1 2 0zm-2 4c0-.555 1-2 1-2s1 1.445 1 2a1 1 0 1 1-2 0zm-1-3c.555 0 2 1 2 1s-1.445 1-2 1c-.555 0-1-.445-1-1 0-.555.445-1 1-1zm4 2c-.555 0-2-1-2-1s1.445-1 2-1c.555 0 1 .445 1 1 0 .555-.445 1-1 1z" fill="#ffebee"/></svg>