<svg xmlns="http://www.w3.org/2000/svg" viewBox="0 0 32 32"><path d="M16 3c-3.074 0-5.824 1.54-7.156 3.844L4.375 5.062l-.75 1.875 4.5 1.813A6.28 6.28 0 0 0 8 10v.531c-2.719 2-5 5.578-5 11.469v.719l.688.218 6 2 .03-.062c.134.223.259.445.407.656C11.48 27.473 13.52 29 16 29c2.477 0 4.516-1.504 5.875-3.438.152-.218.27-.457.406-.687l.032.063 6-2 .687-.22V22c0-5.914-2.281-9.504-5-11.5V10c0-.43-.043-.844-.125-1.25l4.5-1.813-.75-1.875-4.469 1.782C21.824 4.539 19.074 3 16 3zm0 2c3.098 0 5.527 1.914 5.938 4.281C19.523 8.168 17.18 8 16 8c-1.184 0-3.523.191-5.938 1.313C10.457 6.93 12.892 5 16 5zm0 5c1.18 0 4.016.254 6.438 1.844 2.312 1.515 4.316 4.246 4.5 9.469L23.405 22.5c.387-1.16.594-2.352.594-3.5 0-1.484-.566-2.7-1.375-3.563s-1.809-1.402-2.781-1.75C17.894 12.992 16 13 16 13s-1.898.012-3.844.719c-.972.351-1.976.89-2.781 1.75A5.106 5.106 0 0 0 8 19c0 1.14.207 2.344.594 3.5l-3.531-1.188c.183-5.203 2.187-7.914 4.5-9.437C11.988 10.281 14.823 10 16 10zm0 5s1.605.008 3.156.563c.778.277 1.528.675 2.032 1.218.503.543.812 1.203.812 2.219 0 1.738-.645 3.832-1.75 5.406C19.145 25.98 17.668 27 16 27c-1.664 0-3.145-1.012-4.25-2.594C10.645 22.824 10 20.711 10 19c0-.988.305-1.617.813-2.156.507-.54 1.253-.969 2.03-1.25C14.399 15.027 16 15 16 15zm-4.063 3c-.519.027-.937.125-.937.125s.43 1.215 1.438 1.656c1.007.442 2.562.094 2.562.094s-.484-1.238-1.438-1.656c-.476-.211-1.105-.246-1.624-.219zm8.126 0c-.52-.027-1.149.008-1.625.219-.954.418-1.438 1.656-1.438 1.656s1.555.348 2.563-.094C20.57 19.34 21 18.125 21 18.125s-.418-.098-.938-.125z"/></svg>