<svg xmlns="http://www.w3.org/2000/svg" viewBox="0 0 48 48"><path d="M34.496 23.133s1.516-.7 1.586-1.582c.066-.887-.535-2.328-.535-2.328l.75-.18s1.023 1.48 1.023 2.16c0 1.422-.746 2.371-.746 2.371z" fill="#bf360c"/><path d="M15.012 9h1.976v18h-1.976zm16 0h1.976v18h-1.976z" fill="#ff9800"/><path d="M2 31.34h44v7.71H2z" fill="#81d4fa"/><path d="M2 17.559S5.07 23 8.898 23H17v3h9c2.43 0 5-3 5-3h7.438c1.124 0 3.48-.992 5.042-3.691C44.973 16.723 43 15 43 15s1.41-2 3-2c0 5-.383 5.383-1 6 0 2.738.43 12.484-10.656 12.484-11.082 0-18.547-.086-22.04-.086C3.849 31.398 2 22.91 2 17.558z" fill="#bf360c"/><path d="M34 10a1.999 1.999 0 1 1-4 0c0-1.105.895-2 2-2s2 2 2 2zm-8 0a1.999 1.999 0 1 1-4 0 1.999 1.999 0 1 1 4 0zm-8 0a1.999 1.999 0 1 1-4 0s.895-2 2-2 2 .895 2 2z" fill="#f44336"/><path d="M14 10h20l-1-2H15z" fill="#f44336"/><path d="M46 30.723c-.594-.348-1-.985-1-1.723h-2c0 1.102-.898 2-2 2-1.102 0-2-.898-2-2h-2c0 1.102-.898 2-2 2-1.102 0-2-.898-2-2h-2c0 1.102-.898 2-2 2-1.102 0-2-.898-2-2h-2c0 1.102-.898 2-2 2-1.102 0-2-.898-2-2h-2c0 1.102-.898 2-2 2-1.102 0-2-.898-2-2h-2c0 1.102-.898 2-2 2-1.102 0-2-.898-2-2H7c0 1.102-.898 2-2 2-1.102 0-2-.898-2-2H2v2.617C2.734 32.457 3.8 33 5 33s2.266-.543 3-1.383c.734.84 1.8 1.383 3 1.383s2.266-.543 3-1.383c.734.84 1.8 1.383 3 1.383s2.266-.543 3-1.383c.734.84 1.8 1.383 3 1.383s2.266-.543 3-1.383c.734.84 1.8 1.383 3 1.383s2.266-.543 3-1.383c.734.84 1.8 1.383 3 1.383s2.266-.543 3-1.383c.734.84 1.8 1.383 3 1.383s2.266-.543 3-1.383a4.03 4.03 0 0 0 2 1.242z" fill="#03a9f4"/><path d="M34.148 16.105l.922-.437L45 36.406l-1.781.938z" fill="#ff9800"/><path d="M46 36.723c-.594-.348-1-.985-1-1.723h-2c0 1.102-.898 2-2 2-1.102 0-2-.898-2-2h-2c0 1.102-.898 2-2 2-1.102 0-2-.898-2-2h-2c0 1.102-.898 2-2 2-1.102 0-2-.898-2-2h-2c0 1.102-.898 2-2 2-1.102 0-2-.898-2-2h-2c0 1.102-.898 2-2 2-1.102 0-2-.898-2-2h-2c0 1.102-.898 2-2 2-1.102 0-2-.898-2-2H7c0 1.102-.898 2-2 2-1.102 0-2-.898-2-2H2v2.617C2.734 38.457 3.8 39 5 39s2.266-.543 3-1.383c.734.84 1.8 1.383 3 1.383s2.266-.543 3-1.383c.734.84 1.8 1.383 3 1.383s2.266-.543 3-1.383c.734.84 1.8 1.383 3 1.383s2.266-.543 3-1.383c.734.84 1.8 1.383 3 1.383s2.266-.543 3-1.383c.734.84 1.8 1.383 3 1.383s2.266-.543 3-1.383c.734.84 1.8 1.383 3 1.383s2.266-.543 3-1.383a4.03 4.03 0 0 0 2 1.242z" fill="#03a9f4"/><path d="M37 19c0 .55-.45 1-1 1s-1-.45-1-1 .45-1 1-1 1 .45 1 1z" fill="#bf360c"/><path d="M26 8v2a1.999 1.999 0 1 0 4 0V8zm-8 0v2a1.999 1.999 0 1 0 4 0V8z" fill="#ffc107"/></svg>