<svg xmlns="http://www.w3.org/2000/svg" viewBox="0 0 50 50"><path style="line-height:normal;text-indent:0;text-align:start;text-decoration-line:none;text-decoration-style:solid;text-decoration-color:#000;text-transform:none;block-progression:tb;isolation:auto;mix-blend-mode:normal" d="M29.992 5.982c-4.14-.027-9.044 1.343-14.228 5.95l-1.621-1.588a1 1 0 0 0-.725-.285 1 1 0 0 0-.682.29l-2.445 2.43a1 1 0 0 0-.006 1.412l1.672 1.692c-6.46 7.675-6.78 14.545-4.89 19.474A1 1 0 0 0 9 35c0-4.045 2.36-8.401 4.793-11.701a41.317 41.317 0 0 1 2.477-3.03l21.824 22.704a1 1 0 0 0 .004.004c1.316 1.358 3.53 1.35 4.879 0 1.349-1.35 1.357-3.565-.002-4.881a1 1 0 0 0-.002-.002L20.244 16.307a40.454 40.454 0 0 1 3.856-2.955C27.369 11.15 31.725 9 35.965 9a1 1 0 0 0 .308-1.951 21.678 21.678 0 0 0-4.394-.96 18.906 18.906 0 0 0-1.887-.107zm.248 2.084c-2.703.907-5.206 2.243-7.258 3.625a41.104 41.104 0 0 0-4.648 3.645 1 1 0 0 0-.004.002 1 1 0 0 0-.46.42c-.367.343-.614.586-.614.586a1 1 0 0 0-.05.056 1 1 0 0 0-.017.018c-.076.07-.64.604-1.418 1.42a1 1 0 0 0-.517.56 44.213 44.213 0 0 0-3.072 3.713c-1.529 2.075-3.012 4.587-4.014 7.278.074-4.096 1.844-8.977 7.518-14.637a1 1 0 0 0 .015-.018c5.572-5.577 10.438-6.83 14.54-6.668zm-16.793 4.397l.856.84c-.012.011-.024.021-.035.033a1 1 0 0 0-.096.113c-.313.314-.593.624-.885.936l-.879-.889 1.04-1.033zm5.323 5.201l22.814 21.87c.56.541.573 1.434-.022 2.029-.596.597-1.485.582-2.029.021L17.63 18.797c.587-.6 1.021-1.016 1.021-1.016a1 1 0 0 0 .07-.07 1 1 0 0 0 .005-.004l.045-.043z" font-weight="400" font-family="sans-serif" white-space="normal" overflow="visible"/></svg>