<svg xmlns="http://www.w3.org/2000/svg" viewBox="0 0 50 50"><path d="M29.992 5.982c-4.14-.027-9.044 1.343-14.228 5.95l-1.621-1.588a1.001 1.001 0 0 0-1.407.006l-2.443 2.43a1.001 1.001 0 0 0-.008 1.411l1.672 1.692c-6.46 7.675-6.78 14.545-4.89 19.474A1 1 0 0 0 9 35c0-4.045 2.36-8.401 4.793-11.701a41.317 41.317 0 0 1 2.477-3.03l21.828 22.708A3.348 3.348 0 0 0 40.496 44h.027c.924 0 1.794-.363 2.456-1.023a3.447 3.447 0 0 0 1.023-2.483 3.345 3.345 0 0 0-1.03-2.398l-22.728-21.79a40.454 40.454 0 0 1 3.856-2.954C27.369 11.15 31.725 9 35.965 9a1 1 0 0 0 .308-1.951 21.678 21.678 0 0 0-4.394-.96 18.906 18.906 0 0 0-1.887-.107zm.248 2.084c-2.703.907-5.206 2.243-7.258 3.625a41.059 41.059 0 0 0-4.75 3.737c-.06.037-.124.065-.177.117l-2.557 2.486a.983.983 0 0 0-.227.348 44.267 44.267 0 0 0-3.09 3.732c-1.528 2.075-3.01 4.587-4.013 7.278.074-4.096 1.844-8.977 7.518-14.637a1 1 0 0 0 .015-.018c5.572-5.577 10.438-6.83 14.54-6.668z"/></svg>