<svg xmlns="http://www.w3.org/2000/svg" viewBox="0 0 48 48"><path d="M24 33a2 2 0 0 1-2-2c0-.746 1.031-2.52 1.031-4 0-.66.625-2 .985-2 .355 0 .984 1.34.984 2 0 1.48 1 3.254 1 4a2 2 0 0 1-2 2z" fill="#7986cb"/><path d="M24 32a2 2 0 0 1 2 2c0 .746-1 2.52-1 4 0 .66-.656 2-1.016 2-.355 0-.953-1.34-.953-2 0-1.48-1.031-3.254-1.031-4a2 2 0 0 1 2-2z" fill="#7986cb"/><path d="M33 43H15v-1s8-2 8-4 2-2 2 0 8 4 8 4z" fill="#7986cb"/><path d="M36 6H12l2 5 1 9c.707 4.543 4.195 8 9.016 8 4.816 0 8.441-3.582 8.984-8l1-9z" fill="#9fa8da"/><path d="M24 13.305l2.996 4.996h-5.992L24 13.305M24 10l-6 10h12z" fill="#ffd97b"/><path d="M26.996 14.7L24 19.694 21.004 14.7h5.992M30 13H18l6 10z" fill="#ffd97b"/></svg>