<svg xmlns="http://www.w3.org/2000/svg" viewBox="0 0 50 50"><path d="M25 2C15.621 2 8 9.621 8 19v12c0 9.379 7.621 17 17 17s17-7.621 17-17V19c0-9.379-7.621-17-17-17zm0 2c8.297 0 15 6.703 15 15v12c0 8.297-6.703 15-15 15s-15-6.703-15-15V19c0-8.297 6.703-15 15-15zm0 2c-7.168 0-13 5.832-13 13v12c0 7.168 5.832 13 13 13s13-5.832 13-13V19c0-7.168-5.832-13-13-13zm0 2c6.086 0 11 4.914 11 11v12c0 6.086-4.914 11-11 11s-11-4.914-11-11V19c0-6.086 4.914-11 11-11zm-3.188 29c-.55.05-.957.543-.906 1.094.051.55.543.957 1.094.906h6c.36.004.695-.184.879-.496a1.01 1.01 0 0 0 0-1.008c-.184-.312-.52-.5-.879-.496h-6.187z"/></svg>