<svg xmlns="http://www.w3.org/2000/svg" viewBox="0 0 50 50"><path d="M24 10v29h2V10h-2zm-2 .268L7.625 16.072a.999.999 0 0 0-.523.489l-7 14.293a1 1 0 0 0-.102.439V38a1 1 0 0 0 1 1h8v-2H4v-2h5v-1H5v-2h4v-1H6v-2h2.56C7.555 28.063 7 26.83 7 25.357c0-7.292 12.468-13.804 15-15.052v-.037zm6 0v.037c2.532 1.248 15 7.761 15 15.052 0 1.473-.554 2.706-1.56 3.643H44v2h-3v1h4v2h-4v1h5v2h-5v2h8a1 1 0 0 0 1-1v-6.707a1 1 0 0 0-.102-.44l-7-14.292a1.002 1.002 0 0 0-.523-.489L28 10.268zm-6 2.273c-4.547 2.365-13 7.798-13 12.816C9 28.645 13.196 29 15 29c3.457 0 6.942-1.578 6.977-1.594.007-.003.015 0 .023-.004v-1.386l-.104.037C20.487 26.56 19.27 27 18 27c-4.64 0-5-3.062-5-4 0-3.716 3.544-6.008 8.031-8.912.316-.204.643-.419.969-.631v-.916zm6 0v.916c.325.212.653.426.969.63C33.456 16.993 37 19.285 37 23c0 .938-.36 4-5 4-1.27 0-2.487-.438-3.896-.947L28 26.016V27.4l.021.006C28.057 27.423 31.557 29 35 29c1.804 0 6-.355 6-3.643 0-5.024-8.453-10.454-13-12.816zm-6 3.303c-3.92 2.536-7 4.555-7 7.156 0 .495 0 2 3 2 .92 0 1.935-.365 3.219-.828l.781-.28v-8.048zm6 0v8.049c.267.094.531.189.781.279C30.065 24.635 31.08 25 32 25c3 0 3-1.505 3-2 0-2.601-3.08-4.62-7-7.156zM22 29.56c-1.334.516-4.131 1.44-7 1.44-1.524 0-2.868-.208-4-.596V39h6v-3.082C17 34.314 18.125 33 19.5 33s2.5 1.314 2.5 2.918v-6.357zm6 0v6.357C28 34.314 29.125 33 30.5 33s2.5 1.314 2.5 2.918V39h6v-8.596c-1.132.388-2.476.596-4 .596-2.869 0-5.666-.924-7-1.44z"/></svg>