<svg xmlns="http://www.w3.org/2000/svg" viewBox="0 0 50 50"><path style="line-height:normal;text-indent:0;text-align:start;text-decoration-line:none;text-decoration-style:solid;text-decoration-color:#000;text-transform:none;block-progression:tb;isolation:auto;mix-blend-mode:normal" d="M22.842 9.994a1 1 0 0 0-.055.004 1 1 0 0 0-.01.002 1 1 0 0 0-.056.006 1 1 0 0 0-.076.014 1 1 0 0 0-.014.003 1 1 0 0 0-.063.018 1 1 0 0 0-.06.021 1 1 0 0 0-.024.008 1 1 0 0 0-.002.002l-14.857 6a1 1 0 0 0-.523.489l-7 14.293a1 1 0 0 0-.102.439V38a1 1 0 0 0 1 1h48a1 1 0 0 0 1-1v-6.707a1 1 0 0 0-.102-.44l-7-14.292a1 1 0 0 0-.523-.489l-14.857-6a1 1 0 0 0-.094-.033 1 1 0 0 0-.002 0 1 1 0 0 0-.096-.025 1 1 0 0 0-.002 0 1 1 0 0 0-.095-.016 1 1 0 0 0-.012 0 1 1 0 0 0-.09-.004 1 1 0 0 0-.045 0 1 1 0 0 0-.064.006A1 1 0 0 0 27 10h-4a1 1 0 0 0-.016 0 1 1 0 0 0-.142-.006zM24 12h2v1.844a1 1 0 0 0 0 .295V37h-2V14.145a1 1 0 0 0 0-.305V12zm-2 .56v.899c-2.268 1.475-4.38 2.78-6.002 4.176C14.264 19.128 13 20.855 13 23c0 1.1.421 2.198 1.31 2.928C15.2 26.658 16.445 27 18 27c1.361 0 2.618-.48 4-.986v1.382a1 1 0 0 0-.023.01S18.413 29 15 29c-1.551 0-3.166-.28-4.273-.877C9.619 27.526 9 26.778 9 25.357c0-1.514.786-3.139 2.094-4.728 1.307-1.59 3.105-3.112 4.918-4.412 2.359-1.693 4.622-2.944 5.988-3.656zm6 0c1.363.711 3.627 1.963 5.988 3.657 1.813 1.3 3.61 2.823 4.918 4.412C40.214 22.219 41 23.843 41 25.357c0 1.421-.62 2.17-1.727 2.766C38.166 28.72 36.551 29 35 29c-3.413 0-6.977-1.594-6.977-1.594a1 1 0 0 0-.023-.01v-1.382c1.382.506 2.639.986 4 .986 1.556 0 2.8-.343 3.69-1.072.889-.73 1.31-1.829 1.31-2.928 0-2.144-1.264-3.872-2.998-5.365-1.622-1.397-3.734-2.7-6.002-4.176v-.898zm-6 3.288v8.043C20.272 24.495 19.001 25 18 25c-1.258 0-2.015-.285-2.422-.62-.407-.333-.578-.733-.578-1.38 0-1.373.77-2.528 2.303-3.848 1.192-1.026 2.872-2.12 4.697-3.304zm6 0c1.825 1.184 3.505 2.278 4.697 3.304C34.23 20.472 35 21.627 35 23c0 .647-.17 1.047-.578 1.38-.407.335-1.164.62-2.422.62-1.001 0-2.272-.505-4-1.11v-8.042zm-15.11.256c-1.214.997-2.375 2.08-3.341 3.253C8.07 21.154 7 23.173 7 25.357c0 1.014.286 1.9.75 2.643H6v2h3v1H5v2h4v1H4v2h5v1H2v-5.475l6.73-13.742 4.16-1.68zm24.22 0l4.16 1.68L48 31.524V37h-7v-1h5v-2h-5v-1h4v-2h-4v-1h3v-2h-1.75c.464-.744.75-1.629.75-2.643 0-2.184-1.07-4.203-2.549-6-.966-1.174-2.127-2.256-3.342-3.253zM22 29.557V34.5c0-1.375-1.125-2.5-2.5-2.5a2.507 2.507 0 0 0-2.5 2.5V37h-6v-6.588c1.273.433 2.668.588 4 .588 2.924 0 5.69-.931 7-1.443zm6 0c1.31.512 4.076 1.443 7 1.443 1.332 0 2.727-.155 4-.588V37h-6v-2.5c0-1.375-1.125-2.5-2.5-2.5a2.507 2.507 0 0 0-2.5 2.5v-4.943z"/></svg>