<svg xmlns="http://www.w3.org/2000/svg" viewBox="0 0 50 50"><path d="M14.309 2l-.246.648S11 10.75 11 19c0 7.23 5.953 12.496 13 12.953v6.145c0 .949-.441 1.734-1.246 2.484-.805.754-1.961 1.406-3.145 1.91-2.367 1.008-4.777 1.422-4.777 1.422a.072.072 0 0 0-.027.008 3.675 3.675 0 0 0-1.887 1.02C12.402 45.46 12 46.167 12 47c0 .55.45 1 1 1h24c.55 0 1-.45 1-1 0-.832-.402-1.54-.918-2.059a3.675 3.675 0 0 0-1.887-1.02.072.072 0 0 0-.027-.007s-2.41-.414-4.777-1.422c-1.184-.504-2.34-1.156-3.145-1.91-.805-.75-1.246-1.535-1.246-2.484v-6.145C33.047 31.496 39 26.23 39 19c0-8.25-3.063-16.352-3.063-16.352L35.691 2zm10.644 7.219l2 3.472h3.953L28.93 16.11l1.976 3.422h-3.953l-2 3.469-2.004-3.469H19l1.973-3.422L19 12.691h3.95z"/></svg>