<svg xmlns="http://www.w3.org/2000/svg" viewBox="0 0 40 40"><rect x="12.5" y="9.5" width="15" height="18" fill="#f5ce85"/><path d="M27 10v17H13V10h14m1-1H12v19h16V9z" fill="#967a44"/><polygon points="1.5,38.5 1.5,15.5 8.5,15.5 8.5,19.5 31.5,19.5 31.5,15.5 38.5,15.5 38.5,38.5" fill="#f5ce85"/><path d="M38 16v22H2V16h6v4h24v-4h6m1-1h-8v4H9v-4H1v24h38V15z" fill="#967a44"/><path d="M13.5 38.5V34c0-3.584 2.916-6.5 6.5-6.5s6.5 2.916 6.5 6.5v4.5h-13z" fill="#f78f8f"/><path d="M20 28c3.308 0 6 2.692 6 6v4H14v-4c0-3.308 2.692-6 6-6m0-1a7 7 0 0 0-7 7v5h14v-5a7 7 0 0 0-7-7z" fill="#c74343"/><path d="M24 17h-3v-3.5a1.5 1.5 0 0 1 3 0V17zm-5 0h-3v-3.5a1.5 1.5 0 0 1 3 0V17z" fill="#967a44"/><polygon points="12.5,9.5 12.5,9.207 20,1.707 27.5,9.207 27.5,9.5" fill="#f78f8f"/><path d="M20 2.414L26.586 9H13.414L20 2.414M20 1l-8 8v1h16V9l-8-8z" fill="#c74343"/><rect x="34" y="18" width="2" height="4" fill="#967a44"/><rect x="19" y="22" width="2" height="3" fill="#967a44"/><rect x="24" y="22" width="2" height="3" fill="#967a44"/><rect x="14" y="22" width="2" height="3" fill="#967a44"/><polygon points="31.5,15.5 31.5,15.133 35,9.008 38.5,15.133 38.5,15.5" fill="#f78f8f"/><path d="M35 10.016L37.848 15h-5.697L35 10.016M35 8l-4 7v1h8v-1l-4-7z" fill="#c74343"/><rect x="4" y="18" width="2" height="4" fill="#967a44"/><polygon points="1.5,15.5 1.5,15.133 5,9.008 8.5,15.133 8.5,15.5" fill="#f78f8f"/><path d="M5 10.016L7.848 15H2.152L5 10.016M5 8l-4 7v1h8v-1L5 8z" fill="#c74343"/></svg>