<svg xmlns="http://www.w3.org/2000/svg" viewBox="0 0 40 40"><path d="M12.5 9.5h15v18h-15z" fill="#dff0fe"/><path d="M27 10v17H13V10h14m1-1H12v19h16z" fill="#4788c7"/><path d="M1.5 38.5v-23h7v4h23v-4h7v23z" fill="#dff0fe"/><path d="M38 16v22H2V16h6v4h24v-4h6m1-1h-8v4H9v-4H1v24h38z" fill="#4788c7"/><path d="M13.5 38.5V34c0-3.586 2.914-6.5 6.5-6.5s6.5 2.914 6.5 6.5v4.5z" fill="#98ccfd"/><path d="M20 28c3.309 0 6 2.691 6 6v4H14v-4c0-3.309 2.691-6 6-6m0-1c-3.867 0-7 3.133-7 7v5h14v-5c0-3.867-3.133-7-7-7z" fill="#4788c7"/><path d="M24 17h-3v-3.5a1.5 1.5 0 0 1 3 0zm-5 0h-3v-3.5a1.5 1.5 0 0 1 3 0zm-6.5-7.5v-.293l7.5-7.5 7.5 7.5V9.5z" fill="#98ccfd"/><path d="M20 2.414L26.586 9H13.414L20 2.414M20 1l-8 8v1h16V9z" fill="#4788c7"/><path d="M34 18h2v4h-2zm-15 4h2v3h-2zm5 0h2v3h-2zm-10 0h2v3h-2zm17.5-6.5v-.367L35 9.008l3.5 6.125v.367z" fill="#98ccfd"/><path d="M35 10.016L37.848 15h-5.696L35 10.016M35 8l-4 7v1h8v-1z" fill="#4788c7"/><path d="M4 18h2v4H4zm-2.5-2.5v-.367L5 9.008l3.5 6.125v.367z" fill="#98ccfd"/><path d="M5 10.016L7.848 15H2.152L5 10.016M5 8l-4 7v1h8v-1z" fill="#4788c7"/></svg>