<svg xmlns="http://www.w3.org/2000/svg" viewBox="0 0 40 40"><path d="M30.5 12.5v-2c0-1.102.898-2 2-2 1.102 0 2 .898 2 2v2z" fill="#98ccfd"/><path d="M32.5 9a1.5 1.5 0 0 1 1.5 1.5V12h-3v-1.5A1.5 1.5 0 0 1 32.5 9m0-1a2.497 2.497 0 0 0-2.5 2.5V13h5v-2.5C35 9.117 33.883 8 32.5 8z" fill="#4788c7"/><path d="M27.5 36.5V20.152l1.77-2.652h6.46l1.77 2.652V36.5z" fill="#98ccfd"/><path d="M35.465 18L37 20.305V36h-9V20.305L29.535 18h5.93M36 17h-7l-2 3v17h11V20z" fill="#4788c7"/><path d="M29.5 17.5v-3c0-1.652 1.348-3 3-3s3 1.348 3 3v3z" fill="#98ccfd"/><path d="M32.5 12c1.379 0 2.5 1.121 2.5 2.5V17h-5v-2.5c0-1.379 1.121-2.5 2.5-2.5m0-1a3.5 3.5 0 0 0-3.5 3.5V18h7v-3.5a3.5 3.5 0 0 0-3.5-3.5z" fill="#4788c7"/><path d="M32.5 8.5v-3" fill="none" stroke-linecap="round" stroke="#4788c7" stroke-miterlimit="10"/><path d="M26.5 38.5v-6h4v2h4v-2h4v6z" fill="#98ccfd"/><path d="M38 33v5H27v-5h3v2h5v-2h3m1-1h-5v2h-3v-2h-5v7h13z" fill="#4788c7"/><path d="M31 20h1v1h-1zm2 0h1v1h-1zm-2-5h1v1h-1zm2 0h1v1h-1zm-2-2h1v1h-1zm2 0h1v1h-1zm-1-3h1v1h-1zm3 10h1v1h-1zm-6 0h1v1h-1zm2 2h1v1h-1zm2 0h1v1h-1zm2 0h1v1h-1zm-6 0h1v1h-1zm2 2h1v1h-1zm2 0h1v1h-1zm2 0h1v1h-1zm-6 0h1v1h-1zm2 2h1v1h-1zm2 0h1v1h-1zm2 0h1v1h-1zm-6 0h1v1h-1zm2 2h1v1h-1zm2 0h1v1h-1zm2 0h1v1h-1zm-6 0h1v1h-1zm2 2h1v1h-1zm2 0h1v1h-1zm-1 2h1v1h-1zm3 4h1v1h-1zm-6 0h1v1h-1zm2 0h1v1h-1zm2 0h1v1h-1zm2-6h1v1h-1zm-6 0h1v1h-1z" fill-rule="evenodd" fill="#fff"/><path d="M20.5 4.5v-3" fill="none" stroke-linecap="round" stroke="#4788c7" stroke-miterlimit="10"/><path d="M17.5 3.5h6v2h-6z" fill="#b6dcfe"/><path d="M23 4v1h-5V4h5m1-1h-7v3h7z" fill="#4788c7"/><path d="M12.563 38.5l3.882-33h8.11l3.883 33z" fill="#b6dcfe"/><path d="M24.11 6l3.765 32h-14.75l3.766-32h7.218M25 5h-9l-4 34h17z" fill="#4788c7"/><path d="M19.457 38.5l-2.91-33h7.906l-2.91 33z" fill="#dff0fe"/><path d="M23.906 6l-2.82 32h-1.172l-2.82-32h6.812M25 5h-9l3 34h3z" fill="#4788c7"/><path d="M2.5 12.5h10v18h-10z" fill="#dff0fe"/><path d="M12 13v17H3V13h9m1-1H2v19h11z" fill="#4788c7"/><path d="M1.5 30.5h12v8h-12z" fill="#dff0fe"/><path d="M13 31v7H2v-7h11m1-1H1v9h13z" fill="#4788c7"/><path d="M4.5 8.5h6v4h-6z" fill="#dff0fe"/><path d="M10 9v3H5V9h5m1-1H4v5h7z" fill="#4788c7"/><path d="M5.5 4.5h4v4h-4z" fill="#dff0fe"/><path d="M9 5v3H6V5h3m1-1H5v5h5z" fill="#4788c7"/><path d="M7.5 4.5v-3" fill="none" stroke-linecap="round" stroke="#4788c7" stroke-miterlimit="10"/><path d="M6 14h1v1H6zm2 0h1v1H8zm-2-4h1v1H6zm2 0h1v1H8zM7 6h1v1H7zm3 8h1v1h-1zm-6 0h1v1H4zm2 2h1v1H6zm2 0h1v1H8zm2 0h1v1h-1zm-6 0h1v1H4zm2 2h1v1H6zm2 0h1v1H8zm2 0h1v1h-1zm-6 0h1v1H4zm2 2h1v1H6zm2 0h1v1H8zm2 0h1v1h-1zm-6 0h1v1H4zm2 2h1v1H6zm2 0h1v1H8zm2 0h1v1h-1zm-6 0h1v1H4zm2 2h1v1H6zm2 0h1v1H8zm2 0h1v1h-1zm-6 0h1v1H4zm2 2h1v1H6zm2 0h1v1H8zm2 0h1v1h-1zm-6 0h1v1H4zm2 2h1v1H6zm2 0h1v1H8zm2 0h1v1h-1zm-6 0h1v1H4zm2 4h1v1H6zm2 0h1v1H8zm2 0h2v1h-2zm-7 0h2v1H3zm3 2h1v1H6zm2 0h1v1H8zm2 0h2v1h-2zm-7 0h2v1H3zm3 2h1v1H6zm2 0h1v1H8zm2 0h2v1h-2zm-7 0h2v1H3z" fill="#98ccfd"/></svg>