<svg xmlns="http://www.w3.org/2000/svg" viewBox="0 0 50 50"><path d="M20.242 3c-1.676 0-4.34.207-6.722 1.293C11.137 5.379 9 7.551 9 11c0 5.484-1.02 8.234-2.156 9.547C5.704 21.863 4.375 22 3 22c-.46 0-.86.313-.969.758-.14.555-.304 1.449-.27 2.289.087 1.945 1.333 3.473 2.985 4.398-.246 1.688-.098 3.39.66 4.793C6.262 35.828 7.906 37 10 37c1.125 0 1.965-.559 2.648-1.063.93 2.204 2.63 3.876 3.692 4.813 1.402 1.238 2.433 2.27 2.68 3.453.187.89.464 1.606 1.015 2.121.55.516 1.297.676 1.965.676.36.004.695-.184.879-.496a1.01 1.01 0 0 0 0-1.008c-.184-.312-.52-.5-.879-.496-.414 0-.504-.05-.598-.137-.093-.086-.277-.375-.422-1.066-.418-1.98-1.886-3.285-3.32-4.547-1.05-.926-2.726-2.71-3.37-4.64 1.175-1.06 2.058-2.16 2.648-3.505C17.745 29.254 18 27.06 18 24c0-.156-.023-.32-.031-.48 1.004.304 2.3.48 4.031.48.55 0 1-.45 1-1v-6c0-.27-.11-.527-.305-.719A.995.995 0 0 0 21.97 16a1.01 1.01 0 0 0-.73.348s-1.759 1.941-4.052 2.492c-.058-.23-.113-.457-.171-.684.078-.199.324-.812.902-1.535C18.594 15.766 19.543 15 21 15h1c.36.004.695-.184.879-.496a1.01 1.01 0 0 0 0-1.008c-.184-.312-.52-.5-.879-.496h-1c-2.188 0-3.742 1.234-4.652 2.379C16.145 14.44 16 13.602 16 13c0-1.383.852-2.305 2.035-2.996C19.22 9.313 20.746 9 21.242 9h2a.938.938 0 0 0 .399-.086c.441-.187.691-.473.859-.781.172.308.422.594.86.781a.968.968 0 0 0 .402.086h2c.496 0 2.02.313 3.207 1.004 1.183.691 2.035 1.613 2.035 2.996 0 .324-.047.727-.117 1.16C31.078 12.953 29 13 29 13h-2a1.006 1.006 0 0 0-.879.496 1.01 1.01 0 0 0 0 1.008c.184.312.52.5.879.496h2s2.168.09 3.41 1.387c-.125.523-.234 1.02-.379 1.574-.074.293-.144.594-.218.894-2.317-.539-4.094-2.507-4.094-2.507a1.003 1.003 0 0 0-1.762.652v6c0 .55.45 1 1 1 1.754 0 3.066-.184 4.074-.492-.004.164-.027.332-.027.492 0 3.059.25 5.254 1.058 7.105a9.355 9.355 0 0 0 1.614 2.477c-.848 3.152-2.957 4.816-4.567 7.965-.629 1.226-1.175 2.164-1.672 2.719-.5.554-.847.734-1.437.734-.59 0-.79-.11-.836-.156C25.117 44.797 25 44.62 25 44a1.006 1.006 0 0 0-.496-.879 1.01 1.01 0 0 0-1.008 0c-.312.184-.5.52-.496.879 0 .879.176 1.703.773 2.281.598.578 1.403.719 2.227.719 1.16 0 2.176-.57 2.922-1.395.742-.824 1.32-1.886 1.969-3.152 1.261-2.46 3.304-4.246 4.418-7.344.28.23.546.461.859.692.71.535 1.61 1.199 2.836 1.199 2.094 0 3.855-1.11 4.918-2.672.941-1.375 1.273-3.117 1.062-4.86 1.672-.921 2.93-2.46 3.016-4.421.04-.84-.129-1.735-.266-2.29a.998.998 0 0 0-.968-.757c-1.375 0-2.953-.164-4.266-1.5-1.316-1.332-2.496-4.04-2.496-9.5 0-3.45-2.137-5.621-4.52-6.707C33.098 3.207 30.437 3 28.762 3c-1.219 0-2.242.016-3.168.414a2.583 2.583 0 0 0-1.094.941 2.539 2.539 0 0 0-1.094-.94c-.922-.4-1.945-.415-3.164-.415zm0 2c1.156 0 2.012.094 2.375.25s.387.121.387.75c0 .148-.043.54-.125.82-.055.196-.035.168-.024.18h-1.613c-1.078 0-2.672.375-4.215 1.277C15.484 9.18 14 10.757 14 13c0 1.605.531 3.488 1.031 5.453.16.629.309 1.254.45 1.875.124.574.234 1.137.324 1.692.113.707.195 1.382.195 1.98 0 2.941-.258 4.848-.895 6.3-.636 1.454-1.66 2.552-3.464 3.9-.68.507-1.16.8-1.641.8-1.406 0-2.258-.64-2.836-1.707-.574-1.07-.758-2.598-.43-4.074a1 1 0 0 0-.609-1.153c-1.41-.55-2.3-1.695-2.367-3.113-.012-.27.074-.68.133-1.078 1.437-.102 3.105-.453 4.46-2.016C9.985 19.973 11 16.727 11 11c0-2.676 1.402-4.004 3.348-4.887C16.293 5.23 18.75 5 20.242 5zm8.52 0c1.492 0 3.949.23 5.894 1.113 1.946.883 3.348 2.211 3.348 4.887 0 5.746 1.234 9.043 3.07 10.906 1.535 1.559 3.32 1.887 4.801 1.98.059.395.14.802.129 1.067-.063 1.418-.953 2.563-2.367 3.113a1.008 1.008 0 0 0-.61 1.153 5.183 5.183 0 0 1-.757 3.984C41.523 34.297 40.41 35 39.004 35c-.48 0-.961-.293-1.64-.8h-.005c-1.8-1.348-2.828-2.446-3.464-3.9-.633-1.452-.891-3.359-.891-6.3 0-.625.09-1.34.215-2.082.086-.531.191-1.07.312-1.613.137-.614.285-1.235.442-1.852.16-.637.308-1.246.457-1.86a.933.933 0 0 0 .101-.421c.266-1.125.473-2.207.473-3.172 0-2.242-1.484-3.82-3.027-4.723C30.434 7.375 28.84 7 27.762 7h-1.614c.012-.012.032.016-.023-.18A3.706 3.706 0 0 1 26 6c0-.629.023-.594.387-.75.363-.156 1.218-.25 2.375-.25zM21 19.5v2.402c-1.715-.113-2.785-.394-3.297-.703l-.094-.5c.262-.062.516-.137.766-.215A1.5 1.5 0 0 0 19.5 21a1.5 1.5 0 0 0 1.5-1.5zm6.957 0a1.5 1.5 0 0 0 1.5 1.5c.45 0 .848-.2 1.121-.516.266.082.535.16.813.223-.032.156-.059.309-.09.465-.496.316-1.582.613-3.344.726zm-5.992 7.496a1 1 0 0 0-.414 1.898l2 1c.14.07.293.106.449.106h1a.999.999 0 0 0 .45-.105l2-1c.491-.247.69-.848.445-1.344a1.003 1.003 0 0 0-1.344-.446L24.766 28h-.532l-1.785-.895a.958.958 0 0 0-.484-.109zm4.183 4.875l-.449.297s-.476.3-1.144.3c-.668 0-1.309-.335-1.309-.335l-.433-.246-.458.191-2.62 1.125.328.89S21.262 37 24.5 37c3.238 0 4.438-2.906 4.438-2.906l.328-.89zm-3.265 2.16c.36.172.726.438 1.672.438a4 4 0 0 0 1.718-.371l.278.12c-.375.391-1.008.782-2.051.782-1.043 0-1.676-.39-2.05-.781z"/></svg>