<svg xmlns="http://www.w3.org/2000/svg" viewBox="0 0 50 50"><path d="M25 9C13.852 9 2 11.805 2 17c0 1.117.559 2.11 1.531 3C2.52 20.93 2 21.922 2 23c0 1.105.547 2.113 1.5 3-1 .926-1.5 1.926-1.5 3 0 1.11.574 2.082 1.531 2.969C2.598 32.829 2 33.839 2 35c0 1.39.871 2.59 2.125 3.531 1.254.942 2.938 1.719 5 2.375C13.246 42.22 18.84 43 25 43s11.754-.781 15.875-2.094c2.063-.656 3.746-1.433 5-2.375C47.129 37.59 48 36.391 48 35c0-1.145-.586-2.148-1.5-3 .957-.887 1.5-1.89 1.5-3 0-1.078-.52-2.07-1.531-3 .965-.89 1.531-1.887 1.531-3 0-1.078-.52-2.07-1.531-3 .965-.89 1.531-1.887 1.531-3 0-5.195-11.852-8-23-8zm0 2c13.012 0 21 3.496 21 6 0 1.977-4.996 4.559-13.5 5.563v2c4.957-.57 9.453-1.711 12.313-3.375C45.425 21.675 46 22.316 46 23c0 1.977-4.996 4.559-13.5 5.563v2c4.957-.57 9.453-1.711 12.313-3.375C45.425 27.675 46 28.316 46 29c0 1.98-4.996 4.559-13.5 5.563V36c0 .2-.035.402-.063.594 4.973-.567 9.47-1.739 12.344-3.407C45.633 33.86 46 34.489 46 35c0 .543-.371 1.207-1.344 1.938-.972.73-2.484 1.453-4.406 2.062-3.84 1.223-9.262 2-15.25 2-5.988 0-11.41-.777-15.25-2-1.922-.61-3.434-1.332-4.406-2.063C4.37 36.208 4 35.544 4 35c0-.504.36-1.117 1.188-1.781 4.019 2.336 11.285 3.605 18.468 3.75-.086-.352-.156-.684-.156-1.063v-.937C11.387 34.71 4 31.406 4 29c0-.676.547-1.324 1.156-1.813 2.48 1.454 6.188 2.5 10.375 3.125-.011-.14-.031-.261-.031-.406v-1.593C8.223 27.163 4 24.816 4 23c0-.668.555-1.297 1.156-1.781C7.63 22.66 11.34 23.687 15.5 24.312V23.22c-2.473-.387-4.344-1.14-5.531-2.188C6.14 19.828 4 18.29 4 17c0-2.504 7.988-6 21-6zm3 2.5c-2.918 0-5.703.367-7.656 1.031A21.672 21.672 0 0 0 19 14.5c-4.121 0-8.5 1.227-8.5 3.5 0 1.57 2.184 2.84 5.719 3.313.722.097 1.281.753 1.281 1.5v7.093c0 1.274.906 2.371 2.094 2.563A2.494 2.494 0 0 0 22.5 30v-2.906c0-.79.54-1.45 1.25-1.563A1.49 1.49 0 0 1 25.5 27v8.906c0 1.274.906 2.371 2.094 2.563.14.023.27.031.406.031a2.5 2.5 0 0 0 1.781-.719A2.5 2.5 0 0 0 30.5 36V21.75c0-.758.574-1.375 1.344-1.469 1.562-.191 6.656-1 6.656-3.281 0-2.297-5.281-3.5-10.5-3.5z"/></svg>