<svg xmlns="http://www.w3.org/2000/svg" viewBox="0 0 40 40"><path d="M20 27.5c-8.979 0-13.917-3.778-15.418-6.011C3.636 20.097 1.5 16.47 1.5 12c0-3.972 8.751-4.301 18.5-4.301S38.5 8.028 38.5 12c0 3.843-2.7 8.908-3.085 9.494C34.491 22.903 30.65 27.5 20 27.5z" fill="#f5ce85"/><path d="M20 8.199c8.709 0 18 .294 18 3.801 0 3.664-2.629 8.641-3.003 9.22C32.203 25.482 25.418 27 20 27c-3.746 0-7.244-.706-10.114-2.042-3.112-1.448-4.456-3.103-4.89-3.748l-.028-.042-.001-.002C4.075 19.852 2 16.328 2 12c0-3.508 9.291-3.801 18-3.801m0-1C9.507 7.199 1 7.628 1 12c0 5.239 2.886 9.351 3.167 9.768C5.926 24.383 11.255 28 20 28s13.83-3.177 15.833-6.232C36.109 21.347 39 16.068 39 12c0-4.372-8.507-4.801-19-4.801z" fill="#967a44"/><path d="M20 19.5C9.972 19.5 1.5 16.065 1.5 12S9.972 4.5 20 4.5 38.5 7.935 38.5 12s-8.472 7.5-18.5 7.5z" fill="#f5ce85"/><path d="M20 5c8.514 0 18 2.875 18 7s-9.486 7-18 7-18-2.875-18-7 9.486-7 18-7m0-1C9.507 4 1 7.582 1 12s8.507 8 19 8 19-3.582 19-8-8.507-8-19-8z" fill="#967a44"/><ellipse cx="20" cy="11.5" rx="14" ry="5.5" fill="#eda35a"/><path d="M16.736 8.599c.191.935-.829.949-1.065 1.591-.092.251.011.551-.113.787-.116.22-.387.306-.635.331-.429.043-.86-.035-1.284-.113-.606-.111-1.225-.146-1.82-.316-.539-.153-1.005-.743-1.517-.717-.209.011-.481-.028-.527-.232-.048-.211.193-.358.357-.5.128-.111.222-.253.329-.385.578-.714 1.405-.838 2.194-1.206.369-.172.658-.398 1.067-.511l.934-.26c.296-.082.633-.16.895-.001.3.181.349.587.57.815.242.249.535.324.615.717zm8.621-.614c.047.051.1.1.163.148.262.197.536.34.759.591.034.039.069.083.071.134.003.104-.119.161-.221.181-.307.06-.625.038-.934.088a3.974 3.974 0 0 0-.681.195c-.367.129-.74.26-1.062.478-.277.187-.52.44-.84.538-.32.098-.754-.056-.783-.389-.025-.28.245-.53.201-.808-.151-.942-2.025-.444-2.527-.826-.069-.053-.129-.13-.124-.217.008-.128.146-.203.266-.248.535-.199 1.078-.234 1.584-.496a3.7 3.7 0 0 1 1.801-.432c.655.007 1.502.131 1.977.632.139.149.224.295.35.431zm6.333 3.659a1.19 1.19 0 0 1-.064.305c-.24.703-1.211 1.525-1.922 1.743-.275.084-.648-.048-.674-.334-.021-.241.211-.456.173-.695-.13-.81-1.742-.382-2.174-.711-.059-.045-.111-.112-.107-.186.006-.11.125-.174.229-.213.337-.125.697-.173 1.036-.291.461-.16.551-.037.977.205a.728.728 0 0 0 .316.117c.19.008.351-.126.509-.232.488-.332 1.764-.749 1.701.292zm-11.328.246a.675.675 0 0 1-.037.177c-.127.372-.487.686-.818.877-.384.222-.759.093-1.095-.187-.1-.083-.18-.186-.26-.288l-.071-.09c-.057-.074-.117-.187-.197-.237-.066-.042-.161-.019-.231-.073-.035-.026-.065-.065-.062-.108.004-.064.073-.101.133-.124.196-.073.405-.1.602-.169.239-.083.51-.046.756-.024.245.022.366.009.589-.07.303-.108.717-.111.691.316zm-6.193 2.6a.469.469 0 0 1-.077.16c-.223.312-.732.443-1.183.466-.523.027-.975-.299-1.352-.757-.112-.136-.196-.282-.28-.427l-.074-.128c-.06-.104-.116-.25-.209-.342-.077-.077-.2-.103-.28-.194-.039-.045-.071-.099-.06-.142.016-.063.109-.065.189-.057.26.028.529.108.79.14.316.04.652.217.96.367.306.149.461.199.756.234.402.049.925.26.82.68z" fill="#a16a4a"/><path d="M35.5 35.5c-.163 0-.32-.025-.476-.05l-.062-.01-.062.006-10.065-2.388c-4.822-1.144-10.261-2.434-11.019-2.63l-.046-.025c-1.369-.392-2.27-1.573-2.27-2.903 0-1.654 1.346-3 3-3 .209 0 .429.027.671.082l.05.012.082.001c.736.164 18.182 4.304 20.729 4.948l.202.052.084.034c1.313.386 2.182 1.538 2.182 2.871 0 1.654-1.346 3-3 3z" fill="#ffc49c"/><path d="M14.5 25c.171 0 .354.023.559.07l.11.025h.026c1.548.345 18.484 4.365 20.763 4.945l.043.011.049.013.084.031.032.012.033.01A2.473 2.473 0 0 1 38 32.5c0 1.379-1.122 2.5-2.5 2.5-.118 0-.255-.021-.397-.043l-.119-.019-.084.006c-.964-.241-5.321-1.275-9.914-2.364-4.738-1.124-10.071-2.389-10.985-2.621l-.006-.003-.081-.039-.086-.024A2.503 2.503 0 0 1 12 27.5c0-1.379 1.122-2.5 2.5-2.5m0-1a3.5 3.5 0 0 0-3.5 3.5 3.49 3.49 0 0 0 2.558 3.355c.016.008.026.027.044.032.667.196 20.232 4.802 21.195 5.062a.15.15 0 0 0 .042.005c.035 0 .07-.008.105-.011.182.03.366.057.556.057a3.5 3.5 0 0 0 3.5-3.5 3.49 3.49 0 0 0-2.52-3.344c-.015-.006-.025-.019-.041-.024a10.051 10.051 0 0 0-.232-.061l-.002-.001c-2.349-.598-20.277-4.854-20.916-4.979l-.006.003A3.547 3.547 0 0 0 14.5 24z" fill="#a16a4a"/><circle cx="35.5" cy="32.5" r="2.5" fill="#ffd8bd"/><path d="M16.853 27.99s18.601 4.295 19.123 4.394c-.743-.171-.904-.59-.821-.927.114-.459.588-.536.865-.459.74.206.915 1.227.752 1.83-.163.603-.858 1.47-1.455 1.302-.45-.126-.688-.482-.575-.816.13-.384.532-.525.969-.404-.258-.269-18.858-4.92-18.858-4.92z" fill="#a16a4a"/></svg>