<svg xmlns="http://www.w3.org/2000/svg" viewBox="0 0 32 32"><path d="M10.563 3l-.313.344s-.152.18-.281.406c-.13.227-.262.559-.406 1C9.273 5.633 9 6.977 9 9c0 2.195.848 4.023 1.594 5.75C11.34 16.477 12 18.11 12 20c0 4.094-.969 7.75-.969 7.75L10.687 29h10.626l-.344-1.25S20 24.094 20 20c0-1.89.66-3.523 1.406-5.25C22.152 13.023 23 11.195 23 9c0-2.023-.273-3.367-.563-4.25-.144-.441-.277-.773-.406-1-.129-.227-.281-.406-.281-.406L21.437 3zm1.03 2h8.813c.047.11.098.164.157.344.167.52.34 1.39.406 2.656H15v2h5.906c-.191 1.313-.71 2.578-1.312 3.969C18.84 15.71 18 17.64 18 20c0 3.293.488 5.703.781 7H13.22c.293-1.297.781-3.707.781-7 0-2.36-.84-4.29-1.594-6.031-.601-1.39-1.12-2.656-1.312-3.969H13V8h-1.969c.067-1.266.239-2.137.406-2.656.06-.18.11-.235.157-.344z"/></svg>