<svg xmlns="http://www.w3.org/2000/svg" viewBox="0 0 48 48"><path d="M38 21a3.005 3.005 0 0 0-1.398-2.531c.246-.434.398-.934.398-1.469a2.99 2.99 0 0 0-2.219-2.883c.137-.347.219-.722.219-1.117a3 3 0 0 0-6 0 2.99 2.99 0 0 0 2.219 2.883 2.961 2.961 0 0 0 .578 3.137A2.993 2.993 0 0 0 29 22a2.99 2.99 0 0 0 2.219 2.883A3.043 3.043 0 0 0 31 26c0 .066.016.125.02.191A2.953 2.953 0 0 0 30 26a3 3 0 1 0 3 3c0-.066-.016-.125-.02-.191.32.117.66.191 1.02.191a3 3 0 0 0 3-3 2.98 2.98 0 0 0-.969-2.195A2.987 2.987 0 0 0 38 21zm-28 0c0-1.066.563-1.996 1.398-2.531A2.972 2.972 0 0 1 11 17a2.99 2.99 0 0 1 2.219-2.883A3.043 3.043 0 0 1 13 13a3 3 0 0 1 6 0 2.99 2.99 0 0 1-2.219 2.883 2.961 2.961 0 0 1-.578 3.137A2.993 2.993 0 0 1 19 22a2.99 2.99 0 0 1-2.219 2.883c.137.347.219.722.219 1.117 0 .066-.016.125-.02.191.32-.117.66-.191 1.02-.191a3 3 0 1 1-3 3c0-.066.016-.125.02-.191-.32.117-.66.191-1.02.191a3 3 0 0 1-3-3c0-.871.375-1.645.969-2.195A2.987 2.987 0 0 1 10 21z" fill="#607d8b"/><path d="M28.992 32v-1h-9.996v1.004C7.254 35.227 8.012 43 8.012 43h31.976s.758-7.777-10.996-11z" fill="#607d8b"/><path d="M28.992 32v-1h-9.996v1.004C7.254 35.227 8.012 43 8.012 43h31.976s.758-7.777-10.996-11z" fill="#607d8b"/><path d="M19 31v-4h10v4z" fill="#ff9800"/><path d="M35 20a1.999 1.999 0 1 1-4 0 1.999 1.999 0 1 1 4 0m-18 0a1.999 1.999 0 1 0-4 0 1.999 1.999 0 1 0 4 0" fill="#ffa726"/><path d="M33 14c0-7.637-18-4.973-18 0v7c0 4.973 4.027 9 9 9s9-4.027 9-9z" fill="#ffb74d"/><path d="M24 5c-5.785 0-10 4.926-10 11v2.285L16 21v-4c0-3.117 9-6.75 9-6.75s7 3.871 7 6.75v4l2-2.742V16c0-4.023-2.484-10-8-10l-1-1z" fill="#607d8b"/><path d="M27 20c0-.55.45-1 1-1s1 .45 1 1-.45 1-1 1-1-.45-1-1m-8 0c0 .55.45 1 1 1s1-.45 1-1-.45-1-1-1-1 .45-1 1" fill="#784719"/><path d="M19 31h10v3H19z" fill="#eceff1"/><path d="M24 40c7 0 9.273-6.387 9.273-6.387-1.203-.605-2.613-1.156-4.28-1.613 0 0-1.458 2-4.997 2-3.535 0-5-1.996-5-1.996-1.664.457-3.066 1.008-4.266 1.61C14.727 33.613 17 40 24 40z" fill="#ffc107"/><path d="M13.16 34.508L21 43h8L18.883 32.035c-2.399.672-4.266 1.531-5.723 2.473z" fill="#03a9f4"/><path d="M24 24v1.309c-1.074-.008-1.273.691-2.285.691C20.59 26 20 25 20 25c1.277.883 2.04-.668 4-1zm0 0v1.309c1.074-.008 1.273.691 2.285.691C27.41 26 28 25 28 25c-1.277.883-2.04-.668-4-1z" fill="#607d8b"/></svg>