<svg xmlns="http://www.w3.org/2000/svg" viewBox="0 0 16 16"><path d="M8 0C6.996 0 6.023.32 5.277.89 4.531 1.458 4 2.3 4 3.286V6.5a.5.5 0 0 0 .984.125c.004 0 .016-.023.07-.059A3.012 3.012 0 0 0 8 9a3.004 3.004 0 0 0 2.941-2.434c.059.036.07.059.075.059a.5.5 0 0 0 .441.383h.05A.499.499 0 0 0 12 6.5V3.285c0-.984-.531-1.828-1.277-2.394C9.977.32 9.003 0 8 0zm0 9a5.01 5.01 0 0 0-5 5h1a3.981 3.981 0 0 1 3-3.86V14h2v-3.86c1.727.446 3 1.993 3 3.86h1c0-2.754-2.246-5-5-5zm0-8c.785 0 1.563.266 2.117.688.555.417.883.968.883 1.597v2.207a5.165 5.165 0 0 0-.438-.156A9.634 9.634 0 0 0 8 5c-.941 0-1.852.133-2.563.336-.156.047-.3.101-.437.156V3.285c0-.629.328-1.18.883-1.598C6.437 1.266 7.215 1 8 1zm0 5c.723 0 1.41.102 1.977.234A1.982 1.982 0 0 1 8 8a1.982 1.982 0 0 1-1.977-1.766A8.791 8.791 0 0 1 8 6z"/></svg>