<svg xmlns="http://www.w3.org/2000/svg" viewBox="0 0 26 26"><path d="M8 3c-1.86 0-3.82.602-5.375 1.938C1.07 6.272 0 8.39 0 11c0 3.39 1.746 6.133 4.094 7.969-.399.32-1.5 1.343-1.5 1.343-.48.301-.75.852-.696 1.418.055.567.426 1.051.957 1.254.532.203 1.133.09 1.551-.297 0 0 1.586-1.421 2.5-2.187 1.926.883 3.957 1.477 5.969 1.5h.312c1.989-.035 4-.629 5.907-1.5.914.766 2.5 2.188 2.5 2.188.418.386 1.02.5 1.55.296.532-.203.903-.687.958-1.254a1.504 1.504 0 0 0-.696-1.418s-1.101-1.023-1.5-1.343C24.254 17.133 26 14.39 26 11c0-2.61-1.07-4.727-2.625-6.063C21.82 3.603 19.859 3 18 3c-1.691 0-3.375.445-4.719 1.438-.101.074-.183.167-.281.25-.098-.083-.18-.176-.281-.25C11.375 3.445 9.69 3 8 3zm0 3c1.152 0 2.242.328 2.938.844.136.101.265.203.374.312A5.688 5.688 0 0 0 11 9c0 .695.125 1.379.344 2.031a10.8 10.8 0 0 1-.656 1.156c-.852 1.278-2.043 2.63-3.25 3.844-.504.508-.516.461-1 .907-.075-.051-.176-.07-.25-.125C4.258 15.405 3 13.511 3 11c0-1.832.66-2.977 1.594-3.781C5.527 6.414 6.816 6 8 6zm10 0c1.184 0 2.473.414 3.406 1.219C22.34 8.023 23 9.168 23 11c0 2.512-1.258 4.406-3.188 5.813-.074.054-.175.074-.25.125-.484-.446-.496-.399-1-.907-1.207-1.215-2.398-2.566-3.25-3.843a10.818 10.818 0 0 1-.656-1.157A6.39 6.39 0 0 0 15 9c0-.656-.117-1.27-.313-1.844.11-.11.239-.21.376-.312C15.758 6.328 16.848 6 18 6zm-5 8.094c.992 1.437 2.219 2.836 3.438 4.062.125.125.125.098.25.219-1.2.395-2.434.613-3.594.625h-.25c-1.145-.02-2.356-.238-3.531-.625.124-.121.124-.094.25-.219 1.218-1.226 2.445-2.625 3.437-4.062z"/></svg>