<svg xmlns="http://www.w3.org/2000/svg" viewBox="0 0 50 50"><path d="M25 2c-6.066 0-11 4.934-11 11v12c0 .723.41 1.324.902 1.746.493.422 1.106.746 1.832 1.024.024.011.047.02.07.027.083.055.165.117.243.172.117 2.73 1.254 4.972 2.953 6.242v1.383c-.34.496-1.094 1.043-2.273 1.554-1.25.543-2.82 1.063-4.38 1.743-1.554.683-3.117 1.53-4.327 2.824C7.809 43.004 7 44.77 7 47v1h17v-6h2v6h17v-1c0-2.23-.809-3.996-2.02-5.285-1.21-1.293-2.773-2.14-4.328-2.824-1.558-.68-3.129-1.2-4.379-1.743-1.18-.511-1.933-1.058-2.273-1.554V34.21c1.7-1.27 2.836-3.512 2.953-6.242a9.08 9.08 0 0 0 .238-.172c.024-.008.051-.016.075-.027.726-.278 1.34-.602 1.832-1.024.492-.422.902-1.023.902-1.746V13c0-6.066-4.934-11-11-11zm0 21c2.68 0 5.11.332 6.781.836.461.137.848.289 1.176.441-.09.711-.328 1.227-.594 1.598a2.804 2.804 0 0 1-.808.762L31 26.91v.621c0 .309-.02.606-.05.895a.831.831 0 0 0-.063.097s-.266.528-1.157 1.165C28.84 30.323 27.38 31 25 31c-2.379 0-3.84-.676-4.73-1.313-.891-.636-1.157-1.164-1.157-1.164a.883.883 0 0 0-.062-.101 8.271 8.271 0 0 1-.051-.89v-.622l-.555-.273a2.804 2.804 0 0 1-.808-.762c-.266-.371-.504-.887-.594-1.598a8.544 8.544 0 0 1 1.176-.441C19.89 23.332 22.32 23 25 23zm-4.375 9.156C21.75 32.645 23.191 33 25 33c1.809 0 3.25-.355 4.375-.844a3.994 3.994 0 0 1-.883.739l-.492.292v2.032l-3 .75-3-.75v-2.032l-.492-.292a3.994 3.994 0 0 1-.883-.739zM24 37.781l1 .25 1-.25V40h-2z"/></svg>