<svg xmlns="http://www.w3.org/2000/svg" viewBox="0 0 50 50"><path d="M25 3c-3.871 0-7.426 9.207-8.637 12.703C19.098 15.88 22.027 16 25 16c2.973 0 5.902-.121 8.637-.297C32.426 12.207 28.87 3 25 3zm23.828 13.008C48.715 16.028 37.203 18 25 18S1.285 16.027 1.172 16.012a.987.987 0 0 0-.813.218.983.983 0 0 0-.359.766c0 1.176.156 2.285.39 3.317l1.454-.399 3.468 2.008 3.801-.985L13 22.884l4-2 4 2 4-2 4 2 4-2 4 2 3.89-1.945 3.797.984 3.516-2.035 1.387.52c.246-1.055.41-2.2.41-3.41a.991.991 0 0 0-.355-.767.998.998 0 0 0-.817-.222zM1.562 22.063l-.617.167c.914 2.575 2.176 4.266 2.258 4.375.137.176.328.305.543.364C4.063 27.05 11.652 29 25 29c13.348 0 20.938-1.95 21.254-2.031a1.04 1.04 0 0 0 .543-.364c.082-.109 1.312-1.757 2.223-4.277l-.63-.234-3.413 1.968-3.864-1L37 25.117l-4-2-4 2-4-2-4 2-4-2-4 2-4.11-2.055-3.867 1zM22.5 35C14 35 14 43.5 14 43.5s0-3.5 8.5-3.5c1.383 0 2.5-1.117 2.5-2.5S23.883 35 22.5 35zm2.5 2.5c0 1.383 1.117 2.5 2.5 2.5 8.5 0 8.5 3.5 8.5 3.5s0-8.5-8.5-8.5a2.497 2.497 0 0 0-2.5 2.5z"/></svg>