<svg xmlns="http://www.w3.org/2000/svg" viewBox="0 0 48 48"><path d="M22.398 33.734c1.282 0 1.606.825 1.606 1.762 0 1.606-.863 2.344-3.602 2.344-3.25 0-4.242 2.16-4.242 2.16 0-3.621 2.617-6.266 6.238-6.266zm3.207 0c-1.28 0-1.601.825-1.601 1.762 0 1.606.86 2.344 3.598 2.344 3.25 0 4.242 2.16 4.242 2.16 0-3.621-2.614-6.266-6.239-6.266z" fill="#795548"/><path d="M31.988 27.734c-.101-11.09-3.636-20-7.988-20s-7.887 8.91-7.988 20z" fill="#ffc107"/><path d="M16.371 22.172h15.262a43.898 43.898 0 0 0-.473-3H16.84c-.188.96-.344 1.96-.469 3z" fill="#ed9f21"/><path d="M33 27.734l-3-5-3 5-3-5-3 5-3-5-3 5-3-5-3 5s5 1 15 1 15-1 15-1l-3-5zM4.55 25.152c1 1.184 2.477 2.09 4.45 2.582l-3-5zM42 22.734l-3 5c1.973-.492 3.45-1.398 4.45-2.582z" fill="#ff3d00"/><path d="M43.45 25.152c1.03-1.218 1.55-2.738 1.55-4.418 0 0-14 1-21 1s-21-1-21-1c0 1.68.52 3.196 1.55 4.418L6 22.734l3 5 3-5 3 5 3-5 3 5 3-5 3 5 3-5 3 5 3-5 3 5 3-5z" fill="#689f38"/></svg>