<svg xmlns="http://www.w3.org/2000/svg" viewBox="0 0 50 50"><path d="M12.004 6a4.965 4.965 0 0 0-4.488 2.79C7.37 9.077 4 16.011 4 25s3.371 15.922 3.516 16.21A4.965 4.965 0 0 0 12.004 44a5.003 5.003 0 0 0 4.484-7.203C16.465 36.747 14 31.53 14 25c0-6.516 2.383-11.578 2.48-11.781A5.007 5.007 0 0 0 12.004 6zM27 6a4.968 4.968 0 0 0-4.484 2.793C22.37 9.086 19 16.059 19 25s3.371 15.918 3.516 16.21A4.965 4.965 0 0 0 27.004 44a4.998 4.998 0 0 0 4.48-7.203C31.461 36.747 29 31.53 29 25c0-6.516 2.383-11.578 2.48-11.781 1.22-2.477.2-5.485-2.273-6.703A4.936 4.936 0 0 0 27 6zm15.004 0a4.965 4.965 0 0 0-4.488 2.79C37.37 9.077 34 16.011 34 25s3.371 15.922 3.516 16.21A4.965 4.965 0 0 0 42.004 44a5.003 5.003 0 0 0 4.484-7.203C46.465 36.747 44 31.53 44 25c0-6.516 2.383-11.578 2.48-11.781A5.007 5.007 0 0 0 42.004 6zM12 12.469a1 1 0 0 1 .516 1.89l-2.512 1.254a1 1 0 0 1-1.34-.445 1 1 0 0 1 .445-1.34l2.508-1.254A.987.987 0 0 1 12 12.47zm15 0c.39-.024.773.18.957.55a.996.996 0 0 1-.445 1.34l-2.508 1.254a1 1 0 0 1-1.34-.445 1 1 0 0 1 .445-1.34l2.508-1.254A.987.987 0 0 1 27 12.47zm15 0a1 1 0 0 1 .516 1.89l-2.512 1.254a1 1 0 0 1-1.34-.445 1 1 0 0 1 .445-1.34l2.508-1.254A.987.987 0 0 1 42 12.47zm-31.719 6.86c.387-.024.77.183.957.55a1.003 1.003 0 0 1-.445 1.344l-2.145 1.074a.999.999 0 0 1-1.344-.45 1.005 1.005 0 0 1 .446-1.343l2.148-1.07a1.02 1.02 0 0 1 .383-.106zm15 0c.387-.024.77.183.957.55a1.003 1.003 0 0 1-.445 1.344l-2.148 1.074a.999.999 0 0 1-1.34-.45 1.005 1.005 0 0 1 .445-1.343l2.145-1.07a1.05 1.05 0 0 1 .386-.106zm15 0c.387-.024.77.183.957.55a1.003 1.003 0 0 1-.445 1.344l-2.148 1.074a.999.999 0 0 1-1.34-.45 1.005 1.005 0 0 1 .445-1.343l2.145-1.07a1.05 1.05 0 0 1 .386-.106zM9.97 25.483c.39-.027.773.18.96.547a1.003 1.003 0 0 1-.445 1.344l-1.945.973a1.02 1.02 0 0 1-.445.105c-.367 0-.719-.203-.899-.55a1.005 1.005 0 0 1 .45-1.344l1.94-.97a.987.987 0 0 1 .384-.105zm15 0c.39-.027.773.18.96.547a1.003 1.003 0 0 1-.445 1.344l-1.945.973a1.002 1.002 0 0 1-1.34-.445 1 1 0 0 1 .446-1.344l1.945-.97a.951.951 0 0 1 .379-.105zm15 0a.999.999 0 0 1 .515 1.891l-1.945.973a1.002 1.002 0 0 1-1.34-.445 1 1 0 0 1 .446-1.344l1.945-.97a.951.951 0 0 1 .379-.105zm-29.24 5.622c.387-.023.77.18.957.551A1.007 1.007 0 0 1 11.239 33l-1.832.914a1 1 0 0 1-.898-1.79l1.836-.917a1.05 1.05 0 0 1 .386-.102zm14.997 0c.39-.023.773.18.96.551A1.007 1.007 0 0 1 26.238 33l-1.832.914c-.144.07-.3.106-.449.106a.995.995 0 0 1-.895-.551 1.004 1.004 0 0 1 .45-1.344l1.832-.918a1.05 1.05 0 0 1 .383-.102zm15 0c.39-.023.773.18.96.551A1.007 1.007 0 0 1 41.239 33l-1.832.914a1 1 0 0 1-.895-1.79l1.833-.917a1.05 1.05 0 0 1 .383-.102zM12.3 36.316a1.001 1.001 0 0 1 .512 1.895l-1.793.898c-.141.07-.297.106-.446.106a1 1 0 0 1-.894-.559 1 1 0 0 1 .445-1.34l1.793-.894a.987.987 0 0 1 .383-.106zm15 0c.39-.023.773.18.96.551a1.005 1.005 0 0 1-.448 1.344l-1.793.898a.99.99 0 0 1-.442.106c-.367 0-.723-.207-.898-.559a1 1 0 0 1 .445-1.34l1.793-.894a.987.987 0 0 1 .383-.106zm15 0a1.001 1.001 0 0 1 .512 1.895l-1.793.898c-.141.07-.297.106-.446.106a1 1 0 0 1-.894-.559 1 1 0 0 1 .445-1.34l1.793-.894a.987.987 0 0 1 .383-.106z"/></svg>