<svg xmlns="http://www.w3.org/2000/svg" viewBox="0 0 50 50"><path d="M31 3c-4.316 0-7.586.938-9.613 2.668C20.757 4.891 19.497 4 17 4c-2.79 0-8 3.227-8 11 0 1.676.297 2.582.559 3.383.238.726.441 1.355.441 2.617 0 2.367-.75 3.336-.75 3.336a1 1 0 0 0 .043 1.371l.543.543A14.03 14.03 0 0 0 9 31c0 1.785 1.063 2.957 2.035 3.465.348.18.676.285.977.363-.106.281-.95 2.59-.918 5.184.015 1.379.289 2.855 1.226 4.047C13.258 45.246 14.848 46 17 46c2.594 0 3.898.234 4.89.473.997.238 1.81.527 3.11.527h.094c1.3 0 2.11-.29 3.105-.527.996-.239 2.301-.473 4.895-.473 2.152 0 3.742-.754 4.68-1.941.937-1.192 1.21-2.668 1.226-4.047.023-1.766-.36-3.348-.64-4.309.757-.34 1.359-.93 1.765-1.582A6.014 6.014 0 0 0 41 31c0-1.926-.86-3.871-1-4.184v-1.652l.95-2.848a1.003 1.003 0 0 0-.528-1.222C40.41 21.09 39 20.387 39 19c0-1.012.234-1.695.48-2.418.258-.746.52-1.52.52-2.582 0-1.05-.277-1.758-.64-2.223.359-.875.64-1.851.64-2.777 0-4.035-2.945-6-9-6zm-12 9h.086c.664 4.176 5.406 6 7.914 6 3.395 0 5.125-2.465 6.39-4.266.192-.277.407-.558.618-.828.562.528.992 1.375.992 3.094v5.863a.987.987 0 0 0 0 .266v3.61c-.11-.817-.535-1.66-1.273-2.43a.967.967 0 0 0-.692-.309h-6.008a.997.997 0 0 0-1 .988V24h-2.054v-.012a.997.997 0 0 0-1-.988h-6.008a.967.967 0 0 0-.692.309c-.734.77-1.16 1.609-1.273 2.425V16c0-.324.02-.621.05-.902.009-.047.012-.09.02-.137.078-.563.223-1.043.446-1.441.007-.008.011-.016.015-.024a2.684 2.684 0 0 1 .633-.715c.066-.05.129-.101.2-.152a3.606 3.606 0 0 1 .616-.309 4.426 4.426 0 0 1 .774-.207c.14-.023.277-.05.418-.066A9.03 9.03 0 0 1 19 12zm18 12.578l1 .875V27c0 .137.027.27.082.395 0 0 .918 2.312.918 3.605 0 .637-.21 1.477-.578 2.07-.164.266-.34.465-.535.617-.547-3.222-.883-6.722-.887-6.75zm-18.941.14A.86.86 0 0 0 18 25c0 .55.45 1 1 1h1c.55 0 1-.45 1-1 0-.074-.027-.14-.043-.215.34.031.684.059 1.04.102v1.175c0 .008.015.454-.22.704-.152.156-.414.234-.78.234h-2.075c-1.309 0-1.664-.055-1.875-.48-.258-.516.144-1.243.594-1.747.086-.027.261-.039.418-.054zm13.882 0c.157.016.329.028.418.055.45.504.852 1.23.594 1.747-.21.425-.566.48-1.875.48h-2.074c-.367 0-.629-.078-.781-.234-.235-.25-.223-.696-.223-.703l.004-1.176c.355-.043.7-.07 1.039-.102-.016.074-.043.14-.043.215 0 .55.45 1 1 1h1c.55 0 1-.45 1-1a.86.86 0 0 0-.059-.281zM23.996 26h2.008c-.008.055-.07 1.23.746 2.117.375.403 1.066.883 2.254.883h2.07c1.375 0 2.883-.016 3.668-1.582a2.77 2.77 0 0 0 .258-.855V27c0 .031 0 .063.004.094 0 0 .398 4.41 1.098 8.043a.198.198 0 0 1 .007.05c.004 0 0 0 0 0 .004.004.004.008.004.012.004.024.012.051.016.074.008.028.02.051.027.079v.003c.008.012.871 2.399.844 4.633-.016 1.121-.258 2.145-.797 2.828-.543.688-1.387 1.184-3.11 1.184-2.718 0-4.261.266-5.359.527-1.097.262-1.629.473-2.64.473H25c-1.012 0-1.543-.21-2.64-.473C21.257 44.266 19.718 44 17 44c-1.723 0-2.57-.496-3.11-1.184-.538-.683-.78-1.707-.796-2.828-.028-2.242.844-4.636.844-4.636a1.01 1.01 0 0 0 .046-.164c.567-2.938.817-5.813.918-7.06 0-.015.012-.026.012-.038.035-.402.043-.512.055-.695L15 27.07v-.504c.043.293.121.579.258.852C16.043 28.984 17.55 29 18.926 29h2.07c1.184 0 1.879-.48 2.254-.883.82-.887.754-2.062.746-2.117zm-12.57 1.844l.867.863c.14.145.328.219.523.258a66.895 66.895 0 0 1-.484 3.883 2.403 2.403 0 0 1-.367-.157C11.438 32.418 11 32.09 11 31c0-1.266.21-2.352.426-3.156zM23.5 29.5c-.55 0-1 .45-1 1s.45 1 1 1 1-.45 1-1-.45-1-1-1zm3 0c-.55 0-1 .45-1 1s.45 1 1 1 1-.45 1-1-.45-1-1-1zM23 36c-.48 1.188-2.29 1.832-3.672 3.074-.703.637-.2 1.285.777.696.77-.465 1.915-.77 4.895-.77 2.957 0 4.125.305 4.895.77.976.59 1.48-.06.777-.696C29.289 37.832 27.48 37.188 27 36c0 0-.582 1-2 1-1.418 0-2-1-2-1z"/></svg>