<svg xmlns="http://www.w3.org/2000/svg" viewBox="0 0 50 50"><path d="M44.375 6.344a3.13 3.13 0 0 0-1.25.375h-.031l-19.25 10.937C21.723 16.606 18.992 16 16 16c-3.2 0-6.105.684-8.281 1.875C5.543 19.066 4 20.855 4 23v5.719l-1.844 1.093-.062.032C1.41 30.19.8 30.629.406 31.25c-.41.64-.508 1.598-.094 2.344l.032.031a2.16 2.16 0 0 0 1.094.906 2.37 2.37 0 0 0 1.187.094c.555-.082.996-.285 1.375-.469V37c0 .215.035.406.063.594l-1.688.656v.031h-.031c-.711.242-1.348.594-1.813 1.157a2.259 2.259 0 0 0-.344 2.218c.008.004-.003.024 0 .032.008.015.024.015.032.03.191.423.535.817.906 1 .395.196.77.227 1.125.22.684-.016 1.266-.231 1.688-.407.015-.008.046.008.062 0V42.5l2.844-1C9.102 43.094 12.367 44 16 44c3.2 0 6.105-.684 8.281-1.875C26.457 40.934 28 39.145 28 37v-2.844l19.813-6.906c.007-.004.023.004.03 0 1.704-.586 2.56-2.477 2-4.156a3.19 3.19 0 0 0-2.968-2.188 3.031 3.031 0 0 0-1.25.282c-.008.003-.023-.004-.031 0L28 28.125V23c0-.336-.055-.652-.125-.969l18.375-9.343c1.707-.852 2.29-2.934 1.438-4.532-.004-.008.003-.023 0-.031h-.032a3.336 3.336 0 0 0-3.281-1.781zm.219 1.968a1.37 1.37 0 0 1 1.312.75l.032.032c.328.601.09 1.472-.594 1.812L27.03 20.187a7.343 7.343 0 0 0-1.312-1.343L44.094 8.469c.148-.082.328-.145.5-.156zM16 18c2.621 0 4.988.547 6.75 1.375.195.344.574.54.969.5C25.234 20.816 26 21.938 26 23v5.938L6 36.813v-3.876a.994.994 0 0 0 0-.968v-2.407a.986.986 0 0 0 0-.5V23c0-1.156.887-2.39 2.688-3.375C10.488 18.641 13.098 18 16 18zm0 1c-2.594 0-4.727.559-6.281 1.344-.778.39-1.403.836-1.875 1.343C7.37 22.195 7 22.782 7 23.5c0 .719.371 1.305.844 1.813.472.507 1.097.953 1.875 1.343C11.273 27.441 13.406 28 16 28s4.727-.559 6.281-1.344c.778-.39 1.403-.836 1.875-1.343.473-.508.844-1.094.844-1.813 0-.719-.371-1.305-.844-1.813-.472-.507-1.097-.953-1.875-1.343C20.727 19.559 18.594 19 16 19zm0 2c2.309 0 4.152.508 5.375 1.125.61.309 1.082.629 1.344.906.261.278.281.489.281.469 0-.02-.02.191-.281.469-.262.277-.735.597-1.344.906C20.152 25.492 18.309 26 16 26s-4.152-.508-5.375-1.125c-.61-.309-1.082-.629-1.344-.906C9.02 23.69 9 23.48 9 23.5c0 .02.02-.191.281-.469.262-.277.735-.597 1.344-.906C11.848 21.508 13.691 21 16 21zm0 1.188c-1.656 0-3 .671-3 1.5 0 .828 1.344 1.5 3 1.5s3-.672 3-1.5c0-.829-1.344-1.5-3-1.5zm30.844.718c.457.02.937.34 1.093.813.239.71-.07 1.398-.75 1.625h-.03L6.874 39.406a1.056 1.056 0 0 0-.188.063l-.093.031a.88.88 0 0 0-.094.031L3.28 40.656a.466.466 0 0 0-.062.032c-.278.117-.735.242-1 .25-.133.003-.219-.032-.219-.032-.055-.125-.063-.066.063-.218.124-.153.496-.376.968-.532l.031-.031 2.126-.844A.99.99 0 0 0 5.905 39l40.469-15.969.031-.031a.93.93 0 0 1 .438-.094zM4 31.031v.875l-.563.313h-.03c-.38.187-.821.367-1.095.406a.554.554 0 0 1-.218 0c-.008-.004-.028.004-.031 0-.008-.016.007-.02 0-.031-.063-.106-.075-.117.03-.282.118-.183.477-.472.97-.718l.03-.032zm22 3.813V37c0 1.156-.887 2.39-2.688 3.375C21.512 41.359 18.902 42 16 42c-2.578 0-4.926-.512-6.688-1.344z"/></svg>