<svg xmlns="http://www.w3.org/2000/svg" viewBox="0 0 48 48"><path d="M8 24.996h17v10H8z" fill="#6d4c41"/><path d="M25 34.5c0-3.04-3.805-5.5-8.5-5.5S8 31.46 8 34.5s3.805 5.5 8.5 5.5 8.5-2.46 8.5-5.5z" fill="#6d4c41"/><path d="M25 25.5c0-3.04-3.805-5.5-8.5-5.5S8 22.46 8 25.5s3.805 5.5 8.5 5.5 8.5-2.46 8.5-5.5z" fill="#6d4c41"/><path d="M23.11 25.5c0-1.934-2.958-3.5-6.61-3.5s-6.61 1.566-6.61 3.5S12.849 29 16.5 29s6.61-1.566 6.61-3.5z" fill="#eceff1"/><path d="M20 25.5c0-.828-1.594-1.5-3.563-1.5-1.968 0-3.562.672-3.562 1.5s1.594 1.5 3.563 1.5C18.405 27 20 26.328 20 25.5z" fill="#ff6e40"/><path d="M21.695 21.148l18.82-11.293-1.03-1.714L19.23 20.297c.899.195 1.73.484 2.465.851zM8 27.035l-3.516 2.11 1.032 1.71L8 29.367z" fill="#ffcc80"/><path d="M5 37l38-17" fill="none" stroke-width="2" stroke="#ffcc80"/><path d="M42.594 19.09l.816 1.828L5.406 37.906l-.816-1.828z" fill="#ffcc80"/><path d="M25 29.148L8.582 36.492c.344.57.832 1.094 1.434 1.551L25 31.34z" fill="#3e2723"/></svg>