<svg xmlns="http://www.w3.org/2000/svg" viewBox="0 0 50 50"><path d="M45.125 6.656c-.473 0-.934.121-1.344.344l-17.468 9.813c1.519 1.05 2.64 2.343 3.218 3.812l16.907-8.531a2.813 2.813 0 0 0 1.219-3.875 2.808 2.808 0 0 0-2.532-1.563zM16 16c-6.73 0-12 3.074-12 7v13.031l24-9.468V23c0-3.926-5.27-7-12-7zm0 3c5.305 0 9 2.371 9 4.5S21.305 28 16 28s-9-2.371-9-4.5 3.695-4.5 9-4.5zm31.344 2.25c-.364 0-.7.082-1 .219L2.03 38.969c-.953.316-1.629.84-1.906 1.468a1.53 1.53 0 0 0 0 1.282c.246.613.809.937 1.563.937.636 0 1.265-.215 1.562-.343l44.938-15.72c1.437-.476 2.207-2.062 1.718-3.53-.36-1.07-1.418-1.813-2.562-1.813zM16 22.188c-1.656 0-3 .671-3 1.5 0 .828 1.344 1.5 3 1.5s3-.672 3-1.5c0-.829-1.344-1.5-3-1.5zm-14 8.28l-.156.095c-.934.464-1.578 1.085-1.782 1.75-.14.449-.09.902.157 1.343.308.52.816.813 1.437.813.117 0 .227-.047.344-.063zm26 5.313l-19.344 6.75C10.715 43.47 13.254 44 16 44c6.73 0 12-3.074 12-7z"/></svg>