<svg xmlns="http://www.w3.org/2000/svg" viewBox="0 0 50 50"><path d="M6.5 2c-.398 0-.71.207-.813.406-.5.7-1.199 1.18-2 1.781C1.988 5.388 0 6.813 0 10.313 0 10.915.086 11.5.188 12h12.624c.102-.5.188-1.086.188-1.688 0-3.8-2.113-5.21-3.813-6.312-.699-.5-1.374-.992-1.874-1.594C7.112 2.106 6.8 2 6.5 2zm37 0c-.3 0-.613.207-.813.406-.5.7-1.199 1.18-2 1.781C38.989 5.388 37 6.813 37 10.313c0 .602.113 1.188.313 1.688h12.5c.101-.5.187-1.086.187-1.688 0-3.8-2.113-5.21-3.813-6.312-.699-.5-1.374-.992-1.874-1.594-.2-.3-.512-.406-.813-.406zm-18.563 8.969c-.226 0-.425.07-.625.219L13 20.905V49c0 .398-.086.7-.188 1H21c.602 0 1-.398 1-1v-7c0-1.7 1.3-3 3-3s3 1.3 3 3v7c0 .602.398 1 1 1h8.188c-.102-.3-.188-.602-.188-1V20.906l-11.406-9.718c-.2-.149-.43-.22-.657-.22zM1 14c-.602 0-1 .398-1 1v.813c0 .3.113.488.313.687l.5.5h11.374l.5-.5c.2-.2.313-.387.313-.688V15c0-.602-.398-1-1-1zm37 0c-.602 0-1 .398-1 1v.813c0 .3.113.488.313.687l.5.5h11.374l.5-.5c.2-.2.313-.387.313-.688V15c0-.602-.398-1-1-1zM2 19v30c0 .602.398 1 1 1h7c.602 0 1-.398 1-1V19zm37 0v30c0 .602.398 1 1 1h7c.602 0 1-.398 1-1V19zm-14 1.313l1.594 2.78h3.218l-1.625 2.813 1.625 2.688h-3.218L25 31.5l-1.594-2.906h-3.218l1.625-2.688-1.625-2.812h3.218z"/></svg>