<svg xmlns="http://www.w3.org/2000/svg" viewBox="0 0 48 48"><path d="M24 12L5 24v2l19-12 19 12v-2zm20-2c0 2.2-1.8 4-4 4s-4-1.8-4-4 4-5 4-5 4 2.8 4 5zm-32 0c0 2.2-1.8 4-4 4s-4-1.8-4-4 4-5 4-5 4 2.8 4 5z" fill="#f44336"/><path d="M5 26v17h38V26L24 14z" fill="#e89419"/><path d="M35 20.898V43h6V24.7zm-22 0V43H7V24.7z" fill="#db8d18"/><path d="M27.5 25h-2.3L24 27l-1.2-2h-2.3l1.2-2-1.2-2h2.3l1.2-2 1.2 2h2.3l-1.2 2z" fill="#ffecb3"/><path d="M37 14h6v29h-6zM5 14h6v29H5z" fill="#ffb74d"/><path d="M36 12h8v2h-8zM4 12h8v2H4z" fill="#ffcc80"/><path d="M28 43h-8v-8c0-2.2 1.8-4 4-4s4 1.8 4 4z" fill="#805a26"/></svg>