<svg xmlns="http://www.w3.org/2000/svg" viewBox="0 0 50 50"><path d="M25 2.2l-3.057 11.208A11.951 11.951 0 0 1 25 13c1.058 0 2.079.151 3.057.41L25 2.2zM13.6 5.253l2.957 11.23a11.988 11.988 0 0 1 5.295-3.05L13.6 5.254zm22.8 0l-8.252 8.18a11.988 11.988 0 0 1 5.295 3.05L36.4 5.254zM5.256 13.6l8.178 8.252a12.01 12.01 0 0 1 3.05-5.297L5.256 13.6zm39.488 0l-11.228 2.957a11.997 11.997 0 0 1 3.05 5.295l8.178-8.252zM25 15c-5.17 0-9.436 3.942-9.95 8.979-.033.335-.05.676-.05 1.021 0 5.514 4.486 10 10 10s10-4.486 10-10-4.486-10-10-10zm-11.59 6.943L2.2 25l11.208 3.057A11.951 11.951 0 0 1 13 25c0-1.058.151-2.079.41-3.057zm23.182 0c.258.978.408 1.999.408 3.057a11.91 11.91 0 0 1-.41 3.057L47.8 25l-11.208-3.057zm-23.158 6.205L5.256 36.4l11.228-2.957a11.997 11.997 0 0 1-3.05-5.295zm23.132 0a12.015 12.015 0 0 1-3.05 5.297L44.744 36.4l-8.178-8.252zm-20.01 5.368L13.6 44.746l8.252-8.18a11.988 11.988 0 0 1-5.295-3.05zm16.887 0a11.988 11.988 0 0 1-5.295 3.05l8.252 8.18-2.957-11.23zm-11.5 3.074L25 47.8l3.057-11.208C27.079 36.85 26.058 37 25 37a11.91 11.91 0 0 1-3.057-.41z"/></svg>