<svg xmlns="http://www.w3.org/2000/svg" viewBox="0 0 48 48"><path d="M41 32s-5 7-17 7-17-7-17-7V15s3 5 17 5 17-5 17-5z" fill="#cc5e3d"/><path d="M24 39c-7.652 0-14.328-3.305-18-6.816v3.578C6 39.656 13.395 44 24 44s18-4.344 18-8.238v-3.578C38.328 35.695 31.652 39 24 39z" fill="#c54a24"/><path d="M41.195 10c0 3.184-7.699 5.125-17.195 5.125S6.805 13.184 6.805 10 14.504 5 24 5s17.195 1.816 17.195 5z" fill="#e0e0e0"/><path d="M32.5 8.125s-1.25.75-2.75.875C24.512 9.438 17 10.172 17 12.5c0 .75 2 .75 2 1.5 0 1.875-12-1.023-12-4 0-2.809 8.64-3.46 16-3 5.754.36 9.5 1.125 9.5 1.125z" fill="#b0bec5"/><path d="M41.102 12.691a.904.904 0 0 1-.903-.906C40.2 10.094 35.176 8 24 8 12.824 8 7.8 10.094 7.8 11.785c0 .5-.402.906-.902.906A.903.903 0 0 1 6 11.785C6 8.156 10.5 5 24 5s18 3.156 18 6.785c0 .5-.402.906-.898.906z" fill="#6d534b"/><path d="M42 15.035v-4.844c0-.554-.445-1-.996-1a.993.993 0 0 0-.992 1S40.906 15 24 15 7.988 10.191 7.988 10.191c0-.554-.445-1-.996-1a.995.995 0 0 0-.992 1v4.844C10 17.191 16 20 24 20s14-2.809 18-4.965z" fill="#c54a24"/><path d="M24 40c-11.652 0-17.922-6.672-18-8.023v3.457C9.047 38.53 15.414 42 24 42s14.953-3.469 18-6.566v-3.461C41.922 33.328 35.652 40 24 40z" fill="#ffecb3"/><path d="M41 9.977C41 13.145 33.39 15 24 15S7 13.145 7 9.977C7 6.809 14.61 5 24 5s17 1.809 17 4.977z" fill="none" stroke-width="2" stroke="#e06944" stroke-miterlimit="10"/><path d="M24 38c-9.172 0-15.008-4.133-17.117-6.555-.309-.351-.883-.144-.883.32v1.669C9.047 36.53 15.414 40 24 40s14.953-3.469 18-6.566v-1.668c0-.47-.574-.672-.883-.32C39.007 33.866 33.172 38 24 38z" fill="#b0bec5"/><path d="M24 34.375c-1.95 0-3.48-.371-4.309-.629a.99.99 0 0 1-.691-.95V28c0-.55.45-1 1-1 0 0 1 .25 4 .25s4-.25 4-.25c.55 0 1 .45 1 1v4.797a.99.99 0 0 1-.691.95c-.829.257-2.36.628-4.309.628z" fill="#5d4037"/><path d="M24 19c-9.484 0-16.172-2.012-18-5.39v2.066c0 .668.332 1.293.887 1.668C10.336 19.699 16.277 21 24 21c7.723 0 13.664-1.3 17.113-3.656.555-.375.887-.996.887-1.668v-2.067C40.172 16.99 33.484 19 24 19z" fill="#b0bec5"/><path d="M6 18.875h1V34.5H6z" fill="#ffecb3"/><path d="M41 34l-6-16v-5 5l-5 22-6-21v-5 5l-6 21-5-22v-5 5L7 34v5m23 5v-4m-12 4v-4" fill="none" stroke-width="2" stroke-linecap="round" stroke-linejoin="round" stroke="#ffecb3" stroke-miterlimit="10"/><path d="M41 19v14.75h-1V39a1 1 0 1 0 2 0V19z" fill="#ffecb3"/><path d="M11.402 19.414l-1.332 3.547c.598.227 1.235.437 1.903.629l1.351.344c.684.16 1.403.3 2.149.425l-.95-4.168a29.378 29.378 0 0 1-3.12-.777zm22.075.777l-.95 4.168c.75-.125 1.465-.265 2.149-.425l1.351-.344a23.61 23.61 0 0 0 1.903-.63l-1.328-3.546c-.965.3-2.008.559-3.125.777zm-11.082.786a54.018 54.018 0 0 0 3.21 0l1.133 3.964c-.672.028-1.363.043-2.066.051h-1.344a70.178 70.178 0 0 1-2.066-.05zm18.718-3.633c-.035.027-.078.05-.113.074v4c.035-.023.078-.047.113-.074.555-.375.887-.996.887-1.668v-4c0 .672-.332 1.293-.887 1.668zm-34.226 0A2.009 2.009 0 0 1 6 15.676v4c0 .668.332 1.293.887 1.668.035.027.078.05.113.074v-4c-.035-.023-.078-.047-.113-.074z" fill="#5d4037"/></svg>