<svg xmlns="http://www.w3.org/2000/svg" viewBox="0 0 50 50"><path d="M22.117 2.148l-.918 5.93-2.965-.457-5.156 33.39a50.6 50.6 0 0 0-4.086.9c-3.582.96-5.465 1.964-5.465 1.964L3 44.156V47h44v-2.844l-.527-.281s-1.883-1.004-5.461-1.965a53.604 53.604 0 0 0-6.621-1.305l4.597-29.777-2.96-.457.913-5.93zm1.672 2.286l10.867 1.68-.61 3.952-2.3-.355.274-1.797a.788.788 0 0 0-.645-.934.81.81 0 0 0-.934.668l-.28 1.82-3.255-.507.285-1.844a.788.788 0 0 0-.644-.933.813.813 0 0 0-.934.668l-.285 1.867-2.152-.336zm-3.883 5.472L36.707 12.5l-4.305 27.871A71.333 71.333 0 0 0 25 40c-3.79 0-7.059.277-9.848.676zm1.586 3.485c-.312-.055-.62.144-.676.445l-.375 2.426 1.188.18.371-2.41c.055-.298-.113-.579-.426-.63zm2.98.468a.803.803 0 0 0-.925.672l-.309 1.957 1.586.246.297-1.937a.797.797 0 0 0-.644-.938zm3.36.52a.803.803 0 0 0-.926.668l-.304 1.965 1.582.242.3-1.942a.798.798 0 0 0-.648-.933zm3.36.523a.797.797 0 0 0-.926.664l-.305 1.965 1.582.242.3-1.941a.792.792 0 0 0-.648-.93zm3.148.473c-.313-.055-.621.145-.676.445l-.375 2.426 1.188.184.37-2.41c.055-.301-.113-.579-.425-.633zm-13.918 4.934c-.313-.055-.621.144-.672.445l-.375 2.426 1.188.18.37-2.407c.051-.3-.113-.582-.43-.637zm2.984.472a.805.805 0 0 0-.933.668l-.301 1.957 1.582.246.297-1.937a.79.79 0 0 0-.645-.934zm3.36.516a.809.809 0 0 0-.93.672l-.305 1.957 1.582.246.297-1.938a.792.792 0 0 0-.644-.937zm3.359.52a.809.809 0 0 0-.93.667l-.304 1.965 1.582.242.3-1.941a.793.793 0 0 0-.648-.934zm3.145.476c-.313-.055-.622.145-.676.445l-.375 2.426 1.187.184.375-2.41c.051-.301-.113-.579-.426-.633zm-13.915 4.93c-.312-.051-.62.148-.675.449l-.375 2.426 1.183.183.375-2.41c.055-.3-.113-.582-.425-.637zm2.98.476a.803.803 0 0 0-.929.664l-.3 1.965 1.578.242.3-1.937a.79.79 0 0 0-.644-.934zm3.36.52a.803.803 0 0 0-.93.668l-.3 1.957 1.582.246.297-1.938a.789.789 0 0 0-.645-.933zm3.364.515a.81.81 0 0 0-.934.672l-.3 1.957 1.581.246.297-1.937a.795.795 0 0 0-.644-.938zm3.144.473c-.312-.05-.621.148-.676.45l-.375 2.425 1.188.184.37-2.41c.056-.301-.112-.579-.425-.633zm-13.918 4.934c-.312-.055-.62.144-.676.449l-.375 2.426 1.188.183.375-2.414c.05-.297-.117-.578-.43-.629zm2.98.472a.803.803 0 0 0-.925.668l-.309 1.965 1.582.242.301-1.937a.797.797 0 0 0-.644-.938zm3.36.524a.797.797 0 0 0-.926.664l-.304 1.965 1.578.242.304-1.942a.792.792 0 0 0-.648-.93zm3.36.52a.797.797 0 0 0-.926.667l-.305 1.957 1.582.246.3-1.937c.075-.445-.202-.86-.648-.934zm3.152.468c-.317-.05-.625.148-.68.45L30.082 39l1.188.184.37-2.41c.055-.301-.109-.579-.421-.633zM25 42c6.91 0 12.07.926 15.488 1.844 2.207.59 2.496.824 3.25 1.156H6.262c.754-.332 1.043-.566 3.246-1.156C12.93 42.926 18.09 42 25 42z"/></svg>