<svg xmlns="http://www.w3.org/2000/svg" viewBox="0 0 50 50"><path d="M25 2.063c-4.117.468-7.2 3.738-9.715 6.406-1.043 1.11-2.031 2.16-2.84 2.699l-.445.297V12c0 3.383.617 5.465 1.16 7.3.45 1.524.84 2.837.84 4.7v2.063l.008.058c.176 1.445.523 2.547.98 3.36.317.554.727.945 1.215 1.21.442 2.414 1.727 4.454 2.797 5.622v3.519a.904.904 0 0 0 0 .324v3.227l-5.45 2.722A1 1 0 0 0 14 48h24a1 1 0 1 0 .45-1.895L33 43.383v-3.215a.904.904 0 0 0 0-.324v-3.532c1.074-1.171 2.355-3.21 2.797-5.62a3.065 3.065 0 0 0 1.215-1.212c.46-.812.808-1.914.98-3.359l.008-.058V24c0-1.672.375-2.969.813-4.469C39.37 17.613 40 15.441 40 12v-.535l-.445-.297c-.809-.54-1.793-1.586-2.84-2.695C34.199 5.8 31.117 2.53 27 2.063V10h4v2h-4v11h-2V12h-4v-2h4zM16 25h20v.906c-.152 1.227-.45 2.094-.73 2.59-.282.5-.555.524-.352.508l-.824.066-.09.82c-.227 2.13-1.89 4.583-2.711 5.403l-.293.293V39h-4v4h-2v-4h-4v-3.414l-.293-.293c-.82-.82-2.484-3.27-2.71-5.398l-.09-.825-.825-.066c.203.016-.07-.008-.352-.508-.28-.496-.578-1.363-.73-2.59z"/></svg>