<svg xmlns="http://www.w3.org/2000/svg" viewBox="0 0 50 50"><path d="M26 2c-3.39 0-6.113 1.953-8.313 4.023-2.195 2.067-4.019 4.329-5.242 5.145l-.445.297V12c0 3.11.535 5.172 1.043 6.895C13.547 20.62 14 21.973 14 24v2.063l.008.058c.176 1.445.523 2.547.98 3.36.317.554.727.945 1.215 1.21.442 2.414 1.727 4.454 2.797 5.622v3.519a.904.904 0 0 0 0 .324v3.227l-5.45 2.722a1.003 1.003 0 0 0-.445 1.344c.247.492.848.692 1.344.446L21 44.617V41h2v4h6v-4h2v3.617l6.55 3.278a1.003 1.003 0 0 0 1.345-.446 1.003 1.003 0 0 0-.446-1.344L33 43.383v-3.215a.904.904 0 0 0 0-.324v-3.532c1.074-1.171 2.355-3.21 2.797-5.62a3.065 3.065 0 0 0 1.215-1.212c.46-.812.808-1.914.98-3.359l.008-.058V24c0-1.848.453-3.215.96-4.984C39.47 17.246 40 15.109 40 12v-.535l-.445-.297c-1.223-.816-3.047-3.078-5.242-5.145C32.112 3.953 29.39 2 26 2zm-1 2.078V10h-4v2h4v11h-9a1.014 1.014 0 0 0-.172-.578c-.168-1.524-.504-2.84-.871-4.09-.465-1.59-.875-3.316-.926-5.93 1.606-1.242 3.164-3.168 5.031-4.925 1.787-1.68 3.74-3.067 5.938-3.399zm2 0c2.2.332 4.152 1.719 5.938 3.399 1.87 1.757 3.425 3.683 5.03 4.925-.046 2.625-.464 4.434-.929 6.063-.36 1.254-.684 2.527-.852 3.945A.973.973 0 0 0 36 23h-9V12h4v-2h-4zM16 25h20v.906c-.152 1.227-.45 2.094-.73 2.59-.282.5-.555.524-.352.508l-.824.066-.09.82c-.227 2.13-1.89 4.583-2.711 5.403l-.293.293V39h-4v4h-2v-4h-4v-3.414l-.293-.293c-.82-.82-2.484-3.27-2.71-5.398l-.09-.825-.825-.066c.203.016-.07-.008-.352-.508-.28-.496-.578-1.363-.73-2.59z"/></svg>