<svg xmlns="http://www.w3.org/2000/svg" viewBox="0 0 50 50"><path d="M22.117 2.86l-.914 5.93-2.969-.462-4.832 31.27c2.754-.461 6.137-.817 9.938-.895l.36-2.191a.803.803 0 0 1 .925-.668h.004a.796.796 0 0 1 .648.933l-.3 1.93H25c.617 0 1.203.016 1.793.031l.266-1.707a.803.803 0 0 1 .925-.668h.004a.796.796 0 0 1 .649.934l-.23 1.496c.609.027 1.222.055 1.804.094l.246-1.606c.055-.3.363-.5.68-.445l.082.012c.312.054.476.336.422.636l-.235 1.5c1.153.102 2.258.22 3.285.36l4.297-27.805-2.96-.46.913-5.93zm4.43 4.03c.45.075.723.493.644.934l-.285 1.848-1.578-.246.285-1.867a.813.813 0 0 1 .934-.668zm4.828.798c.45.078.723.492.645.937l-.274 1.797-1.586-.25.281-1.813a.81.81 0 0 1 .934-.671zm-9.883 6.406l.082.015c.313.051.48.332.426.63l-.371 2.413-1.188-.183.375-2.426c.055-.3.364-.5.676-.45zm2.98.476h.005a.79.79 0 0 1 .644.934l-.297 1.937-1.586-.242.309-1.96a.803.803 0 0 1 .926-.669zm3.36.52h.004a.796.796 0 0 1 .648.933l-.3 1.942-1.582-.246.304-1.961a.803.803 0 0 1 .926-.668zm3.36.52h.003a.796.796 0 0 1 .649.933l-.301 1.937-1.582-.246.305-1.957a.797.797 0 0 1 .925-.668zm3.148.468l.082.016c.312.054.48.332.426.633l-.371 2.41-1.188-.184.375-2.426c.055-.3.363-.5.676-.449zm-13.918 4.938l.082.011c.316.051.48.332.43.63l-.372 2.41-1.187-.18.375-2.426c.05-.3.36-.5.672-.445zm2.984.472a.79.79 0 0 1 .645.934l-.297 1.937-1.582-.242.3-1.96a.81.81 0 0 1 .934-.669zm3.36.52c.449.074.722.492.644.933l-.297 1.938-1.582-.242.305-1.961a.809.809 0 0 1 .93-.668zm3.359.52a.79.79 0 0 1 .648.933l-.3 1.941-1.582-.246.304-1.96a.809.809 0 0 1 .93-.669zM33.27 23l.085.012c.313.05.477.332.426.633l-.375 2.41-1.183-.184.375-2.426c.054-.3.359-.5.672-.445zm-13.915 4.934l.082.007c.313.055.481.336.426.637l-.375 2.406-1.183-.18.375-2.425c.054-.3.363-.5.675-.445zm2.98.472h.005a.79.79 0 0 1 .644.934l-.3 1.941-1.579-.246.301-1.96a.809.809 0 0 1 .93-.669zm3.36.52h.004a.79.79 0 0 1 .645.933l-.297 1.938-1.582-.242.3-1.961a.809.809 0 0 1 .93-.668zm3.364.52a.79.79 0 0 1 .644.933l-.297 1.937-1.582-.242.301-1.96a.81.81 0 0 1 .934-.669zm3.144.472l.082.012c.313.05.48.332.426.633l-.371 2.41-1.188-.184.375-2.426c.055-.3.364-.5.676-.445zm-13.918 4.93l.082.011c.313.055.485.336.43.637l-.375 2.41-1.188-.183.375-2.426c.055-.3.364-.5.676-.45zm2.98.476h.005a.79.79 0 0 1 .644.934l-.3 1.941-1.583-.246.309-1.96a.803.803 0 0 1 .926-.669zM25 41c-14.09 0-21.176 3.625-21.473 3.781L3 45v3h44v-3l-.527-.219C46.176 44.625 39.09 41 25 41z"/></svg>