<svg xmlns="http://www.w3.org/2000/svg" viewBox="0 0 50 50"><path d="M19 6c-4.96 0-9 4.04-9 9v2.14A7.917 7.917 0 0 0 9 21v4c0 1.004.387 1.914 1.004 2.617v.004c-.063.785-.484 2.219-.754 3.332a7.676 7.676 0 0 1-.75 1.883l-.004.008-.004.004a7.793 7.793 0 0 1-3.972 3.48 4.013 4.013 0 0 0-2.239 5.188v.004C2.906 43.09 4.434 44 6 44c.406 0 .918-.02 1.465-.223l.008-.007h.007a15.86 15.86 0 0 0 8-7.032c.293-.52.551-1.062.778-1.617C18.742 34.54 21.863 34 25 34c3.152 0 6.293.543 8.781 1.129.215.512.45 1.004.715 1.476v.004h.004a15.859 15.859 0 0 0 8.016 7.047c.414.168.898.344 1.484.344 1.621 0 3.102-1.027 3.719-2.578v-.004c.808-2.04-.2-4.375-2.235-5.195l-.004-.004h-.007a7.808 7.808 0 0 1-3.977-3.5l-.008-.016a7.578 7.578 0 0 1-.738-1.851v-.008c-.27-1.094-.664-2.434-.746-3.235C40.617 26.902 41 26 41 25v-4a7.917 7.917 0 0 0-1-3.86V15c0-4.96-4.04-9-9-9zm0 2h12a6.978 6.978 0 0 1 6.988 6.758A7.952 7.952 0 0 0 33 13H17c-1.887 0-3.617.66-4.988 1.758A6.978 6.978 0 0 1 19 8zm-2 7h16c3.324 0 6 2.676 6 6v4c0 1.117-.883 2-2 2H13c-1.117 0-2-.883-2-2v-4c0-3.324 2.676-6 6-6zm8 2.352l-1.246 2.527-2.79.402 2.02 1.969-.48 2.777L25 23.715l2.496 1.312-.48-2.777 2.02-1.969-2.79-.402zm13.219 11.433c.176.906.414 1.82.59 2.543l.004.004v.004c.207.828.519 1.617.933 2.348a9.77 9.77 0 0 0 5 4.394h-.012a1.992 1.992 0 0 1 1.125 2.606C45.54 41.488 44.758 42 44 42c-.152 0-.406-.066-.734-.2h-.004a13.875 13.875 0 0 1-7.016-6.163v-.004l-.004-.004a12.725 12.725 0 0 1-.695-1.453v-.004l-.004-.004a12.52 12.52 0 0 1-.61-1.887c-.3-1.21-.683-2.316-.867-3.281H37c.43 0 .832-.086 1.219-.215zm-26.375.024c.367.113.754.191 1.156.191h2.77c.039.031.093.066.136.098-.18.984-.535 2.062-.836 3.28h-.004v.009c-.144.605-.34 1.199-.574 1.781l-.004.004v.004a13.068 13.068 0 0 1-.75 1.586l-.004.004c-1.523 2.761-4.015 4.953-6.984 6.14-.195.07-.418.094-.75.094-.813 0-1.543-.43-1.86-1.219a1.98 1.98 0 0 1 1.118-2.593 9.856 9.856 0 0 0 4.988-4.372 9.65 9.65 0 0 0 .941-2.379v-.003l.004-.008c.18-.73.47-1.684.653-2.617zM17.98 29h14.055c.192 1.34.664 2.59.953 3.762.012.047.032.097.043.144C30.664 32.414 27.867 32 25 32c-2.852 0-5.64.406-8 .898l.012-.039v-.004c.293-1.187.789-2.468.968-3.855z"/></svg>