<svg xmlns="http://www.w3.org/2000/svg" viewBox="0 0 16 16"><path style="line-height:normal;text-indent:0;text-align:start;text-decoration-line:none;text-decoration-style:solid;text-decoration-color:#000;text-transform:none;block-progression:tb;isolation:auto;mix-blend-mode:normal" d="M1.479 2.008A.5.5 0 0 0 1 2.5c0 2.582.515 4.174 1.066 5.135.276.48.56.802.786 1.006.06.054.106.082.16.123C3.008 8.843 3 8.92 3 9v3.5a.5.5 0 0 0 .5.5h9a.5.5 0 0 0 .5-.5v-1.965a.5.5 0 0 0 0-.035V9c0-.08-.008-.157-.012-.236.054-.04.1-.069.16-.123a4.09 4.09 0 0 0 .786-1.006C14.485 6.674 15 5.082 15 2.5a.5.5 0 0 0-.521-.492A.5.5 0 0 0 14 2.5c0 1.907-1.648 2.97-2.207 3.281-.712-.837-1.677-1.452-2.793-1.68V3.5a.5.5 0 0 0-.5-.5h-1a.5.5 0 0 0-.5.5v.602c-1.135.231-2.115.864-2.83 1.724C3.746 5.594 2 4.526 2 2.5a.5.5 0 0 0-.521-.492zM7 5.14V7.5a.5.5 0 0 0 .5.5h1a.5.5 0 0 0 .5-.5V5.14c1.725.445 3 1.993 3 3.86v1H4V9a3.982 3.982 0 0 1 3-3.86zm6.666.398c-.173.692-.388 1.23-.6 1.6-.103.18-.202.32-.296.44a4.943 4.943 0 0 0-.416-.987 6.49 6.49 0 0 0 1.312-1.053zm-11.277.143c.52.526.95.803 1.226.966a4.94 4.94 0 0 0-.385.93 3.523 3.523 0 0 1-.296-.44c-.193-.335-.38-.856-.545-1.456zM4 11h8v1H4v-1z" font-weight="400" font-family="sans-serif" white-space="normal" overflow="visible"/></svg>