<svg xmlns="http://www.w3.org/2000/svg" viewBox="0 0 16 16"><path d="M6 0v1.617c0 1.176-.344 2.278-1.258 3.258-.304.316-.554.7-.672 1.125H4v8h7v-.5s-.004-.973-.004-1.5H11V6h-.078c-.121-.422-.371-.805-.672-1.121C9.34 3.902 9 2.8 9 1.633V0zm1 1h1v.633c0 .457.07.914.172 1.367H6.82c.106-.457.18-.918.18-1.383zm-.5 3h1.992A5.487 5.487 0 0 0 9.52 5.563l.003.003v.004c.118.121.211.278.293.43H5.164a2.01 2.01 0 0 1 .305-.438v-.007A5.468 5.468 0 0 0 6.5 4zM5 7h5c-.008.633-.012 1.836-.008 3.27V11H5zm3.277 1.055l-2 1 .446.89 2-1zM5 12h4.996c0 .285 0 .86.004 1H5v-1z"/></svg>