<svg xmlns="http://www.w3.org/2000/svg" viewBox="0 0 40 40"><path d="M5.176 34.5c-.66-.55-3.676-3.227-3.676-6.43 0-3.472 2.172-6.754 2.754-7.57h.266c.011.781.187 2.234 1.214 3.387C6.688 24.957 8.121 25.5 10 25.5h20c1.879 0 3.328-.543 4.316-1.613 1.063-1.153 1.282-2.61 1.32-3.387h.083c.582.797 2.781 4.027 2.781 7.5 0 3.203-3.016 5.938-3.68 6.5z" fill="#98ccfd"/><path d="M4.129 21.594c.148.816.488 1.793 1.23 2.625C6.41 25.402 7.973 26 10 26h20c2.023 0 3.602-.598 4.684-1.773.718-.782 1.09-1.692 1.273-2.47C36.789 23.106 38 25.498 38 28c0 2.813-2.547 5.281-3.363 6H5.359C4.543 33.297 2 30.879 2 28.07c0-2.62 1.305-5.14 2.129-6.476M35.965 20h-.828s.414 5-5.137 5H10c-5.55 0-4.965-5-4.965-5H4s-3 3.852-3 8.07C1 31.95 5 35 5 35h30s4-3.121 4-7c0-4.219-3.035-8-3.035-8z" fill="#4788c7"/><path d="M20 1h1v25h-1z" fill="#4788c7"/><path d="M8.89 22.5c.626-1.234 1.61-3.969 1.61-9 0-5.031-.984-7.766-1.61-9h21.848c.418.66 1.762 3.23 1.762 9 0 5.762-1.34 8.336-1.762 9z" fill="#b6dcfe"/><path d="M30.453 5c.48.871 1.547 3.39 1.547 8.5 0 5.121-1.07 7.637-1.547 8.5H9.672C10.297 20.484 11 17.816 11 13.5S10.297 6.516 9.672 5h20.781M31 4H8s2 2.371 2 9.5S8 23 8 23h23s2-2.371 2-9.5S31 4 31 4z" fill="#4788c7"/><path d="M15.453 5h-3c.48.871 1.547 3.39 1.547 8.5 0 5.121-1.07 7.637-1.547 8.5h3C15.93 21.137 17 18.621 17 13.5c0-5.11-1.066-7.629-1.547-8.5zm6 0h-3c.48.871 1.547 3.39 1.547 8.5 0 5.121-1.07 7.637-1.547 8.5h3C21.93 21.137 23 18.621 23 13.5c0-5.11-1.066-7.629-1.547-8.5zm6 0h-3c.48.871 1.547 3.39 1.547 8.5 0 5.121-1.07 7.637-1.547 8.5h3C27.93 21.137 29 18.621 29 13.5c0-5.11-1.066-7.629-1.547-8.5z" fill="#fff"/><path d="M20 4c2-1.57 6.11.79 10-3-4.379 1.04-6.996 0-9 0h-1z" fill="#4788c7"/><path d="M32.5 26.5a1.999 1.999 0 1 1-4 0 1.999 1.999 0 1 1 4 0z" fill="#dff0fe"/><path d="M30.5 25a1.5 1.5 0 1 1 0 3 1.5 1.5 0 0 1 0-3m0-1a2.497 2.497 0 0 0-2.5 2.5c0 1.383 1.117 2.5 2.5 2.5s2.5-1.117 2.5-2.5-1.117-2.5-2.5-2.5z" fill="#4788c7"/><path d="M12.5 26.5a1.999 1.999 0 1 1-4 0 1.999 1.999 0 1 1 4 0z" fill="#dff0fe"/><path d="M10.5 25a1.5 1.5 0 1 1 0 3 1.5 1.5 0 0 1 0-3m0-1A2.497 2.497 0 0 0 8 26.5c0 1.383 1.117 2.5 2.5 2.5s2.5-1.117 2.5-2.5-1.117-2.5-2.5-2.5z" fill="#4788c7"/><path d="M27.5 26.5a1.999 1.999 0 1 1-4 0 1.999 1.999 0 1 1 4 0z" fill="#b6dcfe"/><path d="M25.5 25a1.5 1.5 0 1 1 0 3 1.5 1.5 0 0 1 0-3m0-1a2.497 2.497 0 0 0-2.5 2.5c0 1.383 1.117 2.5 2.5 2.5s2.5-1.117 2.5-2.5-1.117-2.5-2.5-2.5z" fill="#4788c7"/><path d="M22.5 26.5a1.999 1.999 0 1 1-4 0 1.999 1.999 0 1 1 4 0z" fill="#dff0fe"/><path d="M20.5 25a1.5 1.5 0 1 1 0 3 1.5 1.5 0 0 1 0-3m0-1a2.497 2.497 0 0 0-2.5 2.5c0 1.383 1.117 2.5 2.5 2.5s2.5-1.117 2.5-2.5-1.117-2.5-2.5-2.5z" fill="#4788c7"/><path d="M17.5 26.5a1.999 1.999 0 1 1-4 0 1.999 1.999 0 1 1 4 0z" fill="#b6dcfe"/><path d="M15.5 25a1.5 1.5 0 1 1 0 3 1.5 1.5 0 0 1 0-3m0-1a2.497 2.497 0 0 0-2.5 2.5c0 1.383 1.117 2.5 2.5 2.5s2.5-1.117 2.5-2.5-1.117-2.5-2.5-2.5zM40 18.5a1.5 1.5 0 1 1-3 0 1.5 1.5 0 0 1 3 0z" fill="#4788c7"/><path d="M36.258 21.29c-.805-1.118-.758-2.274-.758-2.79a1.999 1.999 0 1 1 4 0" fill="none" stroke="#4788c7" stroke-miterlimit="10"/><path d="M1 39h38v-7.121c-1.309-.266-2.852-.879-4-.879-1.457 0-3.563 1-5 1-1.438 0-3.543-1-5-1-1.457 0-3.563 1-5 1-1.438 0-3.543-1-5-1-1.457 0-3.563 1-5 1-1.438 0-3.543-1-5-1-1.148 0-2.691.613-4 .879z" fill="#b6dcfe"/><path d="M1.5 32.277c.363-.086.738-.191 1.113-.297.848-.234 1.723-.48 2.387-.48.664 0 1.535.246 2.383.484.898.254 1.832.516 2.617.516.785 0 1.719-.262 2.617-.516.848-.238 1.719-.484 2.383-.484.664 0 1.535.246 2.383.484.898.254 1.832.516 2.617.516.785 0 1.719-.262 2.617-.516.848-.238 1.719-.484 2.383-.484.664 0 1.535.246 2.383.484.898.254 1.832.516 2.617.516.785 0 1.719-.262 2.617-.516.848-.238 1.719-.484 2.383-.484.664 0 1.54.246 2.387.48.375.106.75.211 1.113.297" fill="none" stroke-linecap="round" stroke="#4788c7" stroke-miterlimit="10"/></svg>