<svg xmlns="http://www.w3.org/2000/svg" viewBox="0 0 50 50"><path d="M10 0C4.488 0 0 4.488 0 10v30c0 5.512 4.488 10 10 10h30c5.512 0 10-4.488 10-10V10c0-5.512-4.488-10-10-10zm0 2h30c4.434 0 8 3.566 8 8v30c0 4.434-3.566 8-8 8H10a7.98 7.98 0 0 1-8-8V10c0-4.434 3.566-8 8-8zm3.063 5A4.074 4.074 0 0 0 9 11.063v16.78c0 2.063.426 4.04 1.219 5.876.793 1.82 1.875 3.472 3.25 4.843a15.464 15.464 0 0 0 4.844 3.25c1.84.79 3.84 1.188 5.906 1.188h1.593c2.067 0 4.036-.398 5.875-1.188a15.53 15.53 0 0 0 4.844-3.25 15.454 15.454 0 0 0 3.282-4.812C40.608 31.922 41 29.91 41 27.844c0-2.07-.39-4.051-1.188-5.875a15.412 15.412 0 0 0-3.28-4.813 15.713 15.713 0 0 0-4.844-3.25c-1.836-.793-3.84-1.187-5.907-1.187h-1.75a4.072 4.072 0 0 0-4.062 4.062 4.074 4.074 0 0 0 4.062 4.063h1.75c.965 0 1.887.203 2.75.562a6.988 6.988 0 0 1 2.25 1.5 7.09 7.09 0 0 1 1.532 2.219c.003.008-.004.023 0 .031.351.852.53 1.746.53 2.688 0 .953-.167 1.89-.53 2.75a6.83 6.83 0 0 1-1.532 2.218 6.864 6.864 0 0 1-2.25 1.5 7.09 7.09 0 0 1-2.75.563H24.22a7.062 7.062 0 0 1-2.75-.563 6.967 6.967 0 0 1-2.25-1.5 7.023 7.023 0 0 1-1.532-2.25h.032a7.119 7.119 0 0 1-.563-2.75V11c0-2.21-1.863-4-4.093-4zm0 2c1.222 0 2.093.86 2.093 2v16.813c0 1.218.258 2.43.719 3.53a8.887 8.887 0 0 0 1.938 2.876 8.91 8.91 0 0 0 2.875 1.937c1.101.465 2.304.688 3.53.688h1.563a9.132 9.132 0 0 0 3.532-.688c1.082-.445 2.015-1.117 2.843-1.937h.032a8.922 8.922 0 0 0 1.937-2.844l.031-.031a8.99 8.99 0 0 0 .688-3.5 8.824 8.824 0 0 0-.688-3.469v-.031a9.19 9.19 0 0 0-1.968-2.875 8.886 8.886 0 0 0-2.876-1.907 9.188 9.188 0 0 0-3.53-.687l-1.72-.031h-.03a2.046 2.046 0 0 1-2.063-2.063c0-1.152.906-2.062 2.062-2.062h1.75c1.813 0 3.516.351 5.094 1.031h.031a13.57 13.57 0 0 1 4.219 2.844 13.294 13.294 0 0 1 2.844 4.187c.683 1.567 1.031 3.25 1.031 5.063 0 1.808-.348 3.523-1.031 5.093-.696 1.602-1.649 3.032-2.844 4.22-1.195 1.19-2.617 2.124-4.219 2.812A12.792 12.792 0 0 1 25.813 41h-1.594c-1.809 0-3.535-.352-5.125-1.031a13.38 13.38 0 0 1-7.063-7.031A12.739 12.739 0 0 1 11 27.843V11.062C11 9.915 11.906 9 13.063 9z"/></svg>