<svg xmlns="http://www.w3.org/2000/svg" viewBox="0 0 80 80"><path d="M24 13c-3.855 0-7 3.145-7 7v.285a12.5 12.5 0 0 0-6.61 8.078L5.692 46.5A14.894 14.894 0 0 0 5 51c0 8.273 6.727 15 15 15 6.566 0 12.148-4.246 14.172-10.133A7.003 7.003 0 0 0 40 59a7.003 7.003 0 0 0 5.828-3.133C47.852 61.754 53.434 66 60 66c8.273 0 15-6.727 15-15 0-1.566-.242-3.082-.691-4.5l-4.7-18.137A12.5 12.5 0 0 0 63 20.285V20c0-3.855-3.145-7-7-7s-7 3.145-7 7v2.082a12.115 12.115 0 0 0-2.79 3.707C45.044 23.543 42.7 22 40 22s-5.043 1.543-6.21 3.79A12.115 12.115 0 0 0 31 22.081V20c0-3.855-3.145-7-7-7zm0 2c2.773 0 5 2.227 5 5v.625A11.903 11.903 0 0 0 23 19h-.504c-1.2 0-2.363.18-3.469.5A4.979 4.979 0 0 1 24 15zm32 0a4.979 4.979 0 0 1 4.973 4.5 12.47 12.47 0 0 0-3.47-.5H57c-2.188 0-4.23.598-6 1.625V20c0-2.773 2.227-5 5-5zm-33.504 6H23c5.535 0 10 4.465 10 10 0 .55.45 1 1 1s1-.45 1-1v-2c0-2.773 2.227-5 5-5s5 2.227 5 5v2c0 .55.45 1 1 1s1-.45 1-1c0-5.535 4.465-10 10-10h.504c4.793 0 8.965 3.23 10.168 7.867l3.016 11.621A14.963 14.963 0 0 0 60 36c-7.09 0-13.031 4.95-14.59 11.566A6.999 6.999 0 0 0 40 45a6.999 6.999 0 0 0-5.41 2.566C33.03 40.95 27.09 36 20 36c-4.18 0-7.965 1.723-10.688 4.488l3.016-11.62A10.495 10.495 0 0 1 22.496 21zM34 34c-.55 0-1 .45-1 1s.45 1 1 1 1-.45 1-1-.45-1-1-1zm12 0c-.55 0-1 .45-1 1s.45 1 1 1 1-.45 1-1-.45-1-1-1zm-26 4c7.191 0 13 5.809 13 13s-5.809 13-13 13S7 58.191 7 51c0-1.305.195-2.563.555-3.75h.008l.054-.215A12.986 12.986 0 0 1 20 38zm14 0c-.55 0-1 .45-1 1s.45 1 1 1 1-.45 1-1-.45-1-1-1zm12 0c-.55 0-1 .45-1 1s.45 1 1 1 1-.45 1-1-.45-1-1-1zm14 0c5.809 0 10.707 3.79 12.379 9.035l.058.215h.012c.356 1.188.551 2.445.551 3.75 0 7.191-5.809 13-13 13s-13-5.809-13-13 5.809-13 13-13zm-40 3c-.55 0-1 .45-1 1s.45 1 1 1 1-.45 1-1-.45-1-1-1zm40 0c-.55 0-1 .45-1 1s.45 1 1 1 1-.45 1-1-.45-1-1-1zm-26 1c-.55 0-1 .45-1 1s.45 1 1 1 1-.45 1-1-.45-1-1-1zm12 0c-.55 0-1 .45-1 1s.45 1 1 1 1-.45 1-1-.45-1-1-1zm-30.523.203a1.02 1.02 0 0 0-.477.137.998.998 0 1 0 1.363.363.993.993 0 0 0-.886-.5zm39.996 0a.974.974 0 0 0-.473.137.99.99 0 0 0-.367 1.363.999.999 0 1 0 1.73-1 .999.999 0 0 0-.89-.5zm-31.02.004A1.003 1.003 0 0 0 24 44.074a1 1 0 1 0 .453-1.867zm40 0a1 1 0 1 0 .547.137 1.01 1.01 0 0 0-.547-.137zM12.156 45.5a.989.989 0 0 0-.816.5.996.996 0 0 0 .363 1.363 1 1 0 0 0 1.469-1.12 1.008 1.008 0 0 0-1.016-.743zm15.614 0c-.168.004-.332.05-.477.133-.477.277-.64.887-.367 1.367.277.477.89.64 1.367.363A.99.99 0 0 0 28.66 46a1.003 1.003 0 0 0-.89-.5zm39.996 0a1.002 1.002 0 0 0-.84 1.5c.133.227.351.395.61.465.253.07.526.035.757-.102a.97.97 0 0 0 .465-.605.97.97 0 0 0-.102-.758.999.999 0 0 0-.89-.5zm-15.61 0a1 1 0 0 0-.453 1.867A.999.999 0 0 0 53.07 47a.99.99 0 0 0-.367-1.363.993.993 0 0 0-.547-.137zM40 47c2.773 0 5 2.227 5 5s-2.227 5-5 5-5-2.227-5-5 2.227-5 5-5zm-29 3c-.55 0-1 .45-1 1s.45 1 1 1 1-.45 1-1-.45-1-1-1zm18 0c-.55 0-1 .45-1 1s.45 1 1 1 1-.45 1-1-.45-1-1-1zm22 0c-.55 0-1 .45-1 1s.45 1 1 1 1-.45 1-1-.45-1-1-1zm18 0c-.55 0-1 .45-1 1s.45 1 1 1 1-.45 1-1-.45-1-1-1zm-29 1c-.55 0-1 .45-1 1s.45 1 1 1 1-.45 1-1-.45-1-1-1zm-27.816 3.5a.999.999 0 1 0 .52 1.863.99.99 0 0 0 .468-.605.986.986 0 0 0-.098-.758.992.992 0 0 0-.89-.5zm40 0a.999.999 0 0 0-.239 1.965.97.97 0 0 0 .758-.102A.99.99 0 0 0 53.07 55a.986.986 0 0 0-.886-.5zm-24.438 0a1.002 1.002 0 0 0-.453 1.867.994.994 0 0 0 1.363-.367.97.97 0 0 0 .102-.758.97.97 0 0 0-.465-.605 1.001 1.001 0 0 0-.547-.137zm40 .004c-.34.016-.648.203-.82.496a1 1 0 0 0 .367 1.367.994.994 0 0 0 1.363-.367.997.997 0 0 0-.91-1.496zm-43.273 3.289a1.008 1.008 0 0 0-.941.742 1.01 1.01 0 0 0 .1.758c.134.23.352.398.61.465.254.07.528.035.758-.102a.996.996 0 0 0 .363-1.363.999.999 0 0 0-.89-.5zm40 0a1.008 1.008 0 0 0-.941.742A1 1 0 0 0 65 59.656a.996.996 0 0 0 .362-1.363 1.003 1.003 0 0 0-.89-.5zm-49.02.004a1 1 0 0 0-.82.5A.995.995 0 0 0 15 59.66a.997.997 0 0 0 1.363-.363 1 1 0 0 0-.91-1.5zm40 0a1 1 0 0 0-.82.5A.995.995 0 0 0 55 59.66a.997.997 0 0 0 1.363-.363 1 1 0 0 0-.91-1.5zM20 59c-.55 0-1 .45-1 1s.45 1 1 1 1-.45 1-1-.45-1-1-1zm40 0c-.55 0-1 .45-1 1s.45 1 1 1 1-.45 1-1-.45-1-1-1z"/></svg>