<svg xmlns="http://www.w3.org/2000/svg" viewBox="0 0 64 64"><path d="M26.07 4c-1.004 0-1.941.5-2.496 1.336L20.464 10H3a3 3 0 0 0-3 3v9.8a4.95 4.95 0 0 0 2 3.985V52c0 2.21 1.79 4 4 4h52c2.21 0 4-1.79 4-4V26.785c1.227-.918 2-2.36 2-3.984V13a3 3 0 0 0-3-3H43.535l-3.11-4.664A2.993 2.993 0 0 0 37.93 4zm0 2h11.86c.336 0 .644.168.832.445L41.129 10H22.87l2.367-3.555c.188-.277.496-.445.832-.445zM3 12h58c.55 0 1 .45 1 1v1a1 1 0 0 0-1 1v2a1 1 0 0 0 1 1v4.8c0 1.415-.96 2.618-2.34 2.93L36 31.07V31c0-1.102-.898-2-2-2h-4c-1.102 0-2 .898-2 2v.07L4.34 25.73A2.986 2.986 0 0 1 2 22.8V18a1 1 0 0 0 1-1v-2a1 1 0 0 0-1-1v-1c0-.55.45-1 1-1zm4 2a1 1 0 0 0-1 1v2a1 1 0 1 0 2 0v-2a1 1 0 0 0-1-1zm5 0a1 1 0 0 0-1 1v2a1 1 0 1 0 2 0v-2a1 1 0 0 0-1-1zm5 0a1 1 0 0 0-1 1v2a1 1 0 1 0 2 0v-2a1 1 0 0 0-1-1zm5 0a1 1 0 0 0-1 1v2a1 1 0 1 0 2 0v-2a1 1 0 0 0-1-1zm5 0a1 1 0 0 0-1 1v2a1 1 0 1 0 2 0v-2a1 1 0 0 0-1-1zm5 0a1 1 0 0 0-1 1v2a1 1 0 1 0 2 0v-2a1 1 0 0 0-1-1zm5 0a1 1 0 0 0-1 1v2a1 1 0 1 0 2 0v-2a1 1 0 0 0-1-1zm5 0a1 1 0 0 0-1 1v2a1 1 0 1 0 2 0v-2a1 1 0 0 0-1-1zm5 0a1 1 0 0 0-1 1v2a1 1 0 1 0 2 0v-2a1 1 0 0 0-1-1zm5 0a1 1 0 0 0-1 1v2a1 1 0 1 0 2 0v-2a1 1 0 0 0-1-1zm5 0a1 1 0 0 0-1 1v2a1 1 0 1 0 2 0v-2a1 1 0 0 0-1-1zm3 13.703V52a2 2 0 0 1-2 2H6a2 2 0 0 1-2-2V27.703l24 5.422V37a2 2 0 0 0 2 2h4a2 2 0 0 0 2-2v-3.879zM30 31h4v6h-4zM7 48a1 1 0 1 0 0 2h42a1 1 0 1 0 0-2zm46 0a1 1 0 1 0 0 2h4a1 1 0 1 0 0-2z"/></svg>