<svg xmlns="http://www.w3.org/2000/svg" viewBox="0 0 64 64"><linearGradient id="a" gradientUnits="userSpaceOnUse" x1="18" y1="21.667" x2="18" y2="28.508" spreadMethod="reflect"><stop offset="0" stop-color="#6dc7ff"/><stop offset="1" stop-color="#e6abff"/></linearGradient><path d="M15 28v-5a1 1 0 0 1 1-1h5l-6 6z" fill="url(#a)"/><linearGradient id="b" gradientUnits="userSpaceOnUse" x1="32" y1="4.5" x2="32" y2="59.026" spreadMethod="reflect"><stop offset="0" stop-color="#1a6dff"/><stop offset="1" stop-color="#c822ff"/></linearGradient><path d="M57 18c0-6.617-5.383-12-12-12s-12 5.383-12 12H14c-1.654 0-3 1.346-3 3v1H9c-1.103 0-2 .897-2 2v28c0 1.103.897 2 2 2h2v1c0 1.654 1.346 3 3 3h28c1.654 0 3-1.346 3-3v-1h2c1.103 0 2-.897 2-2V29.3c4.653-1.653 8-6.087 8-11.3zM9 52V24h2v28H9zm33 4H14a1 1 0 0 1-1-1V21a1 1 0 0 1 1-1h19v10h10v25a1 1 0 0 1-1 1zm5-4h-2V30c.683 0 1.348-.071 2-.181V52zm-2-24H35V18c0-5.514 4.486-10 10-10s10 4.486 10 10-4.486 10-10 10z" fill="url(#b)"/><linearGradient id="c" gradientUnits="userSpaceOnUse" x1="45" y1="4.5" x2="45" y2="59.026" spreadMethod="reflect"><stop offset="0" stop-color="#1a6dff"/><stop offset="1" stop-color="#c822ff"/></linearGradient><polygon points="43.25,20.586 39.957,17.293 38.543,18.707 43.25,23.414 51.457,15.207 50.043,13.793" fill="url(#c)"/><linearGradient id="d" gradientUnits="userSpaceOnUse" x1="34.353" y1="4.5" x2="34.353" y2="59.026" spreadMethod="reflect"><stop offset="0" stop-color="#1a6dff"/><stop offset="1" stop-color="#c822ff"/></linearGradient><path d="M34.353 36a4.002 4.002 0 0 1-3.667-2.399l-1.832.803a6.004 6.004 0 0 0 10.999-.004l-1.832-.8a4.005 4.005 0 0 1-3.668 2.4z" fill="url(#d)"/><linearGradient id="e" gradientUnits="userSpaceOnUse" x1="20.938" y1="4.5" x2="20.938" y2="59.026" spreadMethod="reflect"><stop offset="0" stop-color="#1a6dff"/><stop offset="1" stop-color="#c822ff"/></linearGradient><path d="M25.779 34.249l-1.938-.498A2.995 2.995 0 0 1 20.937 36a3 3 0 0 1-2.905-2.247l-1.936.5A4.997 4.997 0 0 0 20.937 38a4.998 4.998 0 0 0 4.842-3.751z" fill="url(#e)"/><linearGradient id="f" gradientUnits="userSpaceOnUse" x1="28.001" y1="4.5" x2="28.001" y2="59.026" spreadMethod="reflect"><stop offset="0" stop-color="#1a6dff"/><stop offset="1" stop-color="#c822ff"/></linearGradient><path d="M32.331 41.499A5.017 5.017 0 0 1 28 44a5.023 5.023 0 0 1-4.331-2.499l-1.73 1.002A7.025 7.025 0 0 0 28 46a7.025 7.025 0 0 0 6.063-3.499l-1.732-1.002z" fill="url(#f)"/><linearGradient id="g" gradientUnits="userSpaceOnUse" x1="36" y1="4.5" x2="36" y2="59.026" spreadMethod="reflect"><stop offset="0" stop-color="#1a6dff"/><stop offset="1" stop-color="#c822ff"/></linearGradient><rect x="34" y="52" width="4" height="2" fill="url(#g)"/><linearGradient id="h" gradientUnits="userSpaceOnUse" x1="28" y1="4.5" x2="28" y2="59.026" spreadMethod="reflect"><stop offset="0" stop-color="#1a6dff"/><stop offset="1" stop-color="#c822ff"/></linearGradient><rect x="26" y="52" width="4" height="2" fill="url(#h)"/><linearGradient id="i" gradientUnits="userSpaceOnUse" x1="20" y1="4.5" x2="20" y2="59.026" spreadMethod="reflect"><stop offset="0" stop-color="#1a6dff"/><stop offset="1" stop-color="#c822ff"/></linearGradient><rect x="18" y="52" width="4" height="2" fill="url(#i)"/></svg>