<svg xmlns="http://www.w3.org/2000/svg" viewBox="0 0 26 26"><path d="M4.875 0A4.876 4.876 0 0 0 0 4.875v16.25A4.876 4.876 0 0 0 4.875 26h16.25A4.876 4.876 0 0 0 26 21.125V4.875A4.876 4.876 0 0 0 21.125 0zm8.563 2.75c1.328 0 2.906 1.29 2.906 7.438 0 2.199-.66 5.496-1.907 8.124.536.739 1.09 1.063 1.47 1.063.503-.113 1.605-2.121 2.218-4.063a.999.999 0 0 1 1.906.594c-.52 1.645-1.949 5.469-4.125 5.469-.691 0-1.617-.348-2.5-1.25-.996 1.41-2.25 2.375-3.719 2.375-3.109 0-4.5-2.469-4.5-4.906 0-2.586 1.317-5.375 4.188-5.375.488 0 .926.082 1.313.219a29.783 29.783 0 0 1-.094-2.376c0-.074.047-7.312 2.844-7.312zm.062 2.156c-.41.735-.906 2.871-.906 5.157 0 2.48.304 4.37.719 5.78.632-1.812 1.03-3.874 1.03-5.655 0-3.356-.527-4.813-.843-5.282zM9.375 14.22c-2.156 0-2.188 3.238-2.188 3.375 0 .87.243 2.906 2.5 2.906.86 0 1.723-.855 2.47-2.125-.454-.883-.848-1.984-1.126-3.375-.054-.04-.105-.074-.156-.125 0 0-.648-.656-1.5-.656z"/></svg>