<svg xmlns="http://www.w3.org/2000/svg" viewBox="0 0 16 16"><path d="M5 2v1h1v2.133c-.293.035-.613.027-1.234.351C3.906 5.934 3 6.894 3 8.5c0 3.164 2.809 5.387 2.809 5.387l.136.113h4.106l.14-.113S13 11.664 13 8.5c0-1.605-.906-2.566-1.766-3.016-.62-.324-.941-.316-1.234-.351V3h1V2zm2 1h2v2.977L9.477 6s.652.035 1.289.371C11.406 6.707 12 7.246 12 8.5c0 2.45-2.152 4.336-2.34 4.5H6.34C6.152 12.836 4 10.95 4 8.5c0-.566.125-.984.316-1.305L5.75 8.828A.49.49 0 0 0 6.125 9h1.52l-.707 1.254a.504.504 0 0 0 .19.684c.243.132.548.05.684-.192l1.125-2a.507.507 0 0 0-.003-.5A.502.502 0 0 0 8.5 8H6.352L5.039 6.496c.063-.039.125-.09.195-.125A3.492 3.492 0 0 1 6.524 6L7 5.977z"/></svg>