<svg xmlns="http://www.w3.org/2000/svg" viewBox="0 0 64 64"><path d="M30.824 0C22.801 0 15.977 5.469 14.23 13.297L11.781 24.27a19.015 19.015 0 0 1-2.68 6.32l-1.664 2.52a2.997 2.997 0 0 0 1.368 4.425c1.293.54 2.754 1.035 4.343 1.5l-4.89 2.344C4.457 43.195 2 47.089 2 51.3V59c0 1.652 1.348 3 3 3h54c1.652 0 3-1.348 3-3v-7.7a11.05 11.05 0 0 0-6.254-9.921l-4.937-2.363c1.617-.465 3.097-.957 4.39-1.485a3.01 3.01 0 0 0 1.727-1.886 2.997 2.997 0 0 0-.356-2.536l-1.86-2.847a18.94 18.94 0 0 1-2.616-6.153l-2.27-9.906C48.137 6.848 41.75 1.473 34.23 1.043A6.103 6.103 0 0 0 30.824 0zm0 2a4.14 4.14 0 0 1 2.473.828.95.95 0 0 0 .555.195c6.746.27 12.515 5.051 14.023 11.625l2.27 9.907a21.05 21.05 0 0 0 2.89 6.8l1.86 2.844a1 1 0 0 1 .12.852.967.967 0 0 1-.578.625c-1.785.734-3.945 1.406-6.406 2.011l-5.547-2.652a23.232 23.232 0 0 0 2.532-5.3c1.226-.462 2.347-1.962 2.882-3.958.317-1.18.38-2.367.18-3.343-.25-1.22-.883-2.024-1.781-2.262a1.78 1.78 0 0 0-.442-.067 14.15 14.15 0 0 0-.527-2.355 1 1 0 1 0-1.906.605c.312.993.5 2.028.547 3.079a.996.996 0 1 0 1.543.79c.18-.115.27-.119.265-.119.055.016.235.22.34.727.137.672.082 1.555-.148 2.43-.496 1.84-1.442 2.617-1.735 2.617a1 1 0 0 0-.957.715C41.59 34.262 37.18 40 32 40c-5.18 0-9.59-5.738-11.277-11.406a.997.997 0 0 0-.957-.715c-.293 0-1.239-.777-1.73-2.617-.235-.875-.29-1.758-.153-2.43.105-.508.289-.715.336-.727 0 0 .086 0 .27.118.3.195.679.215 1 .054a1 1 0 0 0 .542-.843c.047-1.043.23-2.075.547-3.063a1.005 1.005 0 0 0-.656-1.258.99.99 0 0 0-1.25.653 13.784 13.784 0 0 0-.527 2.34 1.948 1.948 0 0 0-.438.066c-.902.238-1.535 1.043-1.785 2.262-.2.976-.133 2.164.183 3.343.532 1.996 1.657 3.496 2.88 3.957a23.247 23.247 0 0 0 2.535 5.301l-5.61 2.684c-2.406-.602-4.543-1.282-6.34-2.032a1.01 1.01 0 0 1-.586-.636.99.99 0 0 1 .125-.844l1.66-2.52a21.05 21.05 0 0 0 2.965-6.984l2.45-10.973C17.723 6.824 23.746 2 30.824 2zm-4.652 10.125a2 2 0 0 0-1.488.89l-1.606 2.434a1.002 1.002 0 0 0 1.672 1.102l1.602-2.434 1.562.762a21.073 21.073 0 0 0 9.2 2.121h2.554a1 1 0 1 0 0-2h-2.555a19.06 19.06 0 0 1-8.32-1.922l-1.566-.762a2.007 2.007 0 0 0-1.055-.191zm15.125 24.563l13.586 6.496A9.043 9.043 0 0 1 60 51.3V59c0 .55-.45 1-1 1H5c-.55 0-1-.45-1-1v-7.7a9.043 9.043 0 0 1 5.117-8.116l13.586-6.496C25.16 39.788 28.403 42 32 42c3.598 0 6.84-2.21 9.297-5.313zM22.14 42.011a.994.994 0 0 0-1 .472 1.007 1.007 0 0 0 .343 1.375l10 6a1.014 1.014 0 0 0 1.032 0l10-6c.472-.285.625-.902.343-1.375a1.007 1.007 0 0 0-1.375-.343L32 47.832l-9.484-5.691a.954.954 0 0 0-.375-.13zM32 52a1 1 0 0 0-1 1v4a1 1 0 1 0 2 0v-4a1 1 0 0 0-1-1zM7 54a1 1 0 0 0-1 1v2a1 1 0 1 0 2 0v-2a1 1 0 0 0-1-1zm5 0a1 1 0 0 0-1 1v2a1 1 0 1 0 2 0v-2a1 1 0 0 0-1-1zm5 0a1 1 0 0 0-1 1v2a1 1 0 1 0 2 0v-2a1 1 0 0 0-1-1zm5 0a1 1 0 0 0-1 1v2a1 1 0 1 0 2 0v-2a1 1 0 0 0-1-1zm5 0a1 1 0 0 0-1 1v2a1 1 0 1 0 2 0v-2a1 1 0 0 0-1-1zm10 0a1 1 0 0 0-1 1v2a1 1 0 1 0 2 0v-2a1 1 0 0 0-1-1zm5 0a1 1 0 0 0-1 1v2a1 1 0 1 0 2 0v-2a1 1 0 0 0-1-1zm5 0a1 1 0 0 0-1 1v2a1 1 0 1 0 2 0v-2a1 1 0 0 0-1-1zm5 0a1 1 0 0 0-1 1v2a1 1 0 1 0 2 0v-2a1 1 0 0 0-1-1zm5 0a1 1 0 0 0-1 1v2a1 1 0 1 0 2 0v-2a1 1 0 0 0-1-1z"/></svg>