<svg xmlns="http://www.w3.org/2000/svg" viewBox="0 0 40 40"><path d="M11.477 38.5c-.188-2.035-1.403-5.43-2.68-9.004C7.25 25.18 5.5 20.286 5.5 17.5c0-3.223 1.617-4.86 3.332-6.594 1.629-1.648 3.309-3.351 3.473-6.406h15.39c.168 3.055 1.848 4.758 3.477 6.406 1.71 1.735 3.328 3.371 3.328 6.594 0 2.785-1.75 7.68-3.297 11.996-1.277 3.574-2.492 6.969-2.68 9.004z" fill="#b6dcfe"/><path d="M27.234 5c.32 2.957 2.043 4.7 3.578 6.258C32.523 12.988 34 14.484 34 17.5c0 2.7-1.734 7.55-3.266 11.824-1.25 3.492-2.355 6.578-2.656 8.676H11.922c-.3-2.098-1.406-5.184-2.656-8.676C7.734 25.051 6 20.2 6 17.5c0-3.016 1.477-4.512 3.188-6.242C10.723 9.699 12.444 7.957 12.765 5h14.468m.95-1H11.816C11.816 10.422 5 10.734 5 17.5c0 5.36 6 17.488 6 21.5h18c0-4.012 6-16.14 6-21.5 0-6.766-6.816-7.078-6.816-13.5z" fill="#4788c7"/><path d="M13 4.5a1.5 1.5 0 0 1 0-3h14a1.5 1.5 0 0 1 0 3z" fill="#b6dcfe"/><path d="M27 2c.55 0 1 .45 1 1s-.45 1-1 1H13c-.55 0-1-.45-1-1s.45-1 1-1h14m0-1H13a1.999 1.999 0 1 0 0 4h14a1.999 1.999 0 1 0 0-4z" fill="#4788c7"/><path d="M25 20a5 5 0 1 1-10 0 5 5 0 0 1 10 0z" fill="none" stroke-width="2" stroke="#fff" stroke-miterlimit="10"/><path d="M31 20c0-1.816 1.223-3.332 2.883-3.82a6.386 6.386 0 0 0-.645-1.914A6.006 6.006 0 0 0 29 20a6.008 6.008 0 0 0 3.148 5.277c.223-.66.438-1.312.633-1.953A4.001 4.001 0 0 1 31 20zM6.762 14.266a6.423 6.423 0 0 0-.645 1.914C7.777 16.668 9 18.184 9 20c0 1.387-.71 2.605-1.781 3.324.195.64.41 1.293.629 1.953A6.004 6.004 0 0 0 11 20a6.006 6.006 0 0 0-4.238-5.734zM11.82 8c-.41.746-.91 1.402-1.437 2h19.234a11.155 11.155 0 0 1-1.437-2z" fill="#fff"/><path d="M10 10l6.5 6-2 6 5 2v6.5" fill="none" stroke-linecap="round" stroke-linejoin="round" stroke="#4788c7" stroke-miterlimit="10"/></svg>