<svg xmlns="http://www.w3.org/2000/svg" viewBox="0 0 64 64"><path d="M32 2c-4.5 0-8.578 2.5-10.637 6.441A9.51 9.51 0 0 0 9.117 16H9c-1.652 0-3 1.348-3 3v28c0 1.652 1.348 3 3 3h5v11c0 .55-.45 1-1 1a1 1 0 1 0 0 2c1.652 0 3-1.348 3-3V50h4v11c0 .55-.45 1-1 1a1 1 0 1 0 0 2c1.652 0 3-1.348 3-3V50h20v11c0 .55-.45 1-1 1a1 1 0 1 0 0 2c1.652 0 3-1.348 3-3V50h4v11c0 .55-.45 1-1 1a1 1 0 1 0 0 2c1.652 0 3-1.348 3-3V50h5c1.652 0 3-1.348 3-3V19c0-1.652-1.348-3-3-3h-.121a9.503 9.503 0 0 0-12.242-7.559A11.987 11.987 0 0 0 32 2zm0 2a9.98 9.98 0 0 1 9.203 6.094c.106.242.305.437.55.535.25.098.524.094.77-.012A7.429 7.429 0 0 1 45.5 10c3.605 0 6.645 2.563 7.344 6H11.156c.7-3.438 3.739-6 7.344-6 1.031 0 2.031.207 2.977.617.246.106.52.11.77.012.245-.098.444-.293.55-.535A9.98 9.98 0 0 1 32 4zM9 18h46c.55 0 1 .45 1 1v28c0 .55-.45 1-1 1H9c-.55 0-1-.45-1-1V19c0-.55.45-1 1-1zm11 12c-1.652 0-3 1.348-3 3s1.348 3 3 3 3-1.348 3-3-1.348-3-3-3zm12.016 0c-1.653 0-3 1.348-3 3s1.347 3 3 3c1.656 0 3-1.348 3-3s-1.344-3-3-3zM44 30c-1.652 0-3 1.348-3 3s1.348 3 3 3 3-1.348 3-3-1.348-3-3-3zm-24 1.8c.66 0 1.2.54 1.2 1.2 0 .66-.54 1.2-1.2 1.2-.66 0-1.2-.54-1.2-1.2 0-.66.54-1.2 1.2-1.2zm12.016 0c.664 0 1.203.54 1.203 1.2a1.202 1.202 0 0 1-2.402 0c0-.66.538-1.2 1.199-1.2zM44 31.8c.66 0 1.2.54 1.2 1.2 0 .66-.54 1.2-1.2 1.2-.66 0-1.2-.54-1.2-1.2 0-.66.54-1.2 1.2-1.2zM12 42a1 1 0 0 0-1 1v2a1 1 0 1 0 2 0v-2a1 1 0 0 0-1-1zm5 0a1 1 0 0 0-1 1v2a1 1 0 1 0 2 0v-2a1 1 0 0 0-1-1zm5 0a1 1 0 0 0-1 1v2a1 1 0 1 0 2 0v-2a1 1 0 0 0-1-1zm5 0a1 1 0 0 0-1 1v2a1 1 0 1 0 2 0v-2a1 1 0 0 0-1-1zm5 0a1 1 0 0 0-1 1v2a1 1 0 1 0 2 0v-2a1 1 0 0 0-1-1zm5 0a1 1 0 0 0-1 1v2a1 1 0 1 0 2 0v-2a1 1 0 0 0-1-1zm5 0a1 1 0 0 0-1 1v2a1 1 0 1 0 2 0v-2a1 1 0 0 0-1-1zm5 0a1 1 0 0 0-1 1v2a1 1 0 1 0 2 0v-2a1 1 0 0 0-1-1zm5 0a1 1 0 0 0-1 1v2a1 1 0 1 0 2 0v-2a1 1 0 0 0-1-1z"/></svg>