<svg xmlns="http://www.w3.org/2000/svg" viewBox="0 0 24 24"><path d="M12 2a2.989 2.989 0 0 0-2.531 1.398A2.983 2.983 0 0 0 8 3a3 3 0 0 0-3 3H3v12h2v2.125a.994.994 0 0 0 .215 1.832s.379.152.867-.02a1.39 1.39 0 0 0 .695-.566c.168-.277.223-.582.223-.871V18h1v2.125a.994.994 0 0 0 .215 1.832s.379.152.867-.02a1.39 1.39 0 0 0 .695-.566c.168-.277.223-.582.223-.871V18h5v2.125a.994.994 0 0 0 .215 1.832s.379.152.867-.02a1.39 1.39 0 0 0 .695-.566c.168-.277.223-.582.223-.871V18h1v2.125a.994.994 0 0 0 .215 1.832s.379.152.867-.02a1.39 1.39 0 0 0 .695-.566c.168-.277.223-.582.223-.871V18h1V6h-1a3 3 0 0 0-3-3 2.97 2.97 0 0 0-2.188.96A2.997 2.997 0 0 0 12 2zM5 8h14v7.984h-.016c-.047.004-.097.008-.144.016h-2.684c-.058-.008-.113-.016-.172-.016-.046.004-.097.008-.144.016H9.156c-.058-.008-.113-.016-.172-.016-.046.004-.097.008-.144.016H6.156c-.058-.008-.113-.016-.172-.016-.046.004-.097.008-.144.016H5zm3 3c-.55 0-1 .45-1 1s.45 1 1 1 1-.45 1-1-.45-1-1-1zm4 0c-.55 0-1 .45-1 1s.45 1 1 1 1-.45 1-1-.45-1-1-1zm4 0c-.55 0-1 .45-1 1s.45 1 1 1 1-.45 1-1-.45-1-1-1z"/></svg>