<svg xmlns="http://www.w3.org/2000/svg" viewBox="0 0 24 24"><path d="M1.938 1.938L1.28 3.093l3.407 1.562c.101-.168.23-.34.343-.5zm20.125 0l-3.094 2.218c.113.16.242.332.343.5l3.407-1.593zM12 2C8.133 2 5 5.133 5 9c0 4.379 4 5.91 4 10l6-1.063c0-3.3 4-4.558 4-8.937 0-3.867-3.133-7-7-7zM0 7.844v1.312l3.5-.312c.004-.215.012-.414.031-.625zm24 0l-3.531.375c.02.21.027.41.031.625l3.5.312zM4.312 12.562l-3.03 1.344.655 1.156 2.688-1.874a9.319 9.319 0 0 1-.313-.626zm15.344 0c-.105.208-.199.403-.312.594l2.718 1.938.657-1.188zm-5.25 5.938l-5 1a.507.507 0 0 0-.406.594c.05.277.316.457.594.406l5-1a.507.507 0 0 0 .406-.594.507.507 0 0 0-.594-.406zm0 1.5l-5 1a.507.507 0 0 0-.406.594c.05.277.316.457.594.406l5-1a.507.507 0 0 0 .406-.594.507.507 0 0 0-.594-.406zm-.906 2l-3 .5A1.5 1.5 0 0 0 12 24c.828 0 1.5-.563 1.5-2z"/></svg>