<svg xmlns="http://www.w3.org/2000/svg" viewBox="0 0 40 40"><polygon points="6.5,37.5 6.5,2.5 24.793,2.5 33.5,11.207 33.5,37.5" fill="#fff"/><path d="M24.586 3L33 11.414V37H7V3h17.586M25 2H6v36h28V11l-9-9z" fill="#788b9c"/><polygon points="24.5,11.5 24.5,2.5 24.793,2.5 33.5,11.207 33.5,11.5" fill="#fff"/><path d="M25 3.414L32.586 11H25V3.414M25 2h-1v10h10v-1l-9-9z" fill="#788b9c"/><polygon points="23,21.169 20,24 24.554,29 28,29 28,26" fill="#7aadf0"/><circle cx="26" cy="17" r="2" fill="#b5deff"/><polygon points="26,29 12,29 12,25 17,20" fill="#b5deff"/></svg>