<svg xmlns="http://www.w3.org/2000/svg" viewBox="0 0 48 48"><path d="M27.996 26c0 3 4 4.39 4 7 0 3.113-3 4.02-3 7 0 1.594 1.137 3 4 3 6 0 8-9.41 8-13 0-4.363-3.363-8-7-8-3.633 0-6 1-6 4zm2.531-8.094c-.535-1.43-1.933-2.226-3.129-1.781-1.195.441-1.73 1.96-1.199 3.39.531 1.43 1.934 2.227 3.13 1.782 1.19-.445 1.73-1.961 1.198-3.39zm1.473.711c-.04.918.492 1.688 1.191 1.719.696.027 1.293-.695 1.329-1.613.039-.922-.493-1.692-1.188-1.72-.7-.03-1.293.692-1.332 1.614zm3.77.555c-.282.824-.036 1.652.546 1.851.586.2 1.286-.308 1.567-1.128.277-.825.031-1.653-.551-1.852-.582-.2-1.285.309-1.562 1.129zm3.078 1.609c-.41.676-.325 1.485.195 1.805.52.316 1.277.027 1.691-.648.414-.676.328-1.485-.191-1.805-.52-.317-1.281-.028-1.695.648zm3.875 2.403c-.41-.348-1.11-.192-1.57.347-.458.543-.5 1.258-.094 1.606.406.347 1.109.191 1.57-.348.457-.539.5-1.258.094-1.605zM14 11c-3.637 0-7 3.637-7 8 0 3.59 2 13 8 13 2.863 0 4-1.406 4-3 0-2.98-3-3.887-3-7 0-2.613 4-4 4-7s-2.367-4-6-4zm4.668-.7c1.195.442 2.594-.355 3.125-1.784.531-1.43-.004-2.946-1.2-3.391-1.195-.445-2.593.352-3.124 1.781-.535 1.43.004 2.95 1.199 3.395zM14.664 6c-.695.027-1.226.797-1.187 1.719.039.918.632 1.64 1.332 1.613.695-.031 1.226-.8 1.187-1.719-.039-.922-.633-1.644-1.332-1.613zm-4 1.043c-.586.2-.832 1.027-.55 1.852.28.82.98 1.328 1.566 1.128.582-.199.828-1.027.547-1.851-.282-.82-.98-1.328-1.563-1.129zM7.457 9.129c-.523.316-.61 1.125-.195 1.8.414.676 1.172.966 1.691.65.524-.321.61-1.126.195-1.806-.414-.675-1.171-.964-1.691-.644zm-2.082 4.656c.46.543 1.16.7 1.57.352.407-.348.364-1.067-.097-1.606-.461-.539-1.164-.695-1.57-.347-.407.347-.364 1.062.097 1.601z" fill="#ffcc80"/><path d="M18.36 26.781C17.48 25.29 16 24.188 16 22c0-1.77 1.832-2.98 3.016-4.504-.586.55-1.524.875-3.016.504-3.066-.77-4 0-4 2s2 6 4 6c1.215-.004 1.934.328 2.36.781zm11.277 11.004c.879-1.496 2.36-2.597 2.36-4.785 0-1.77-1.833-2.98-3.017-4.504.586.555 1.524.875 3.016.504 3.067-.77 4 0 4 2s-2 6-4 6c-1.215 0-1.93.328-2.36.785z" fill="#ffb74d"/></svg>