<?xml version="1.0" encoding="utf-8"?>
<!-- Generator: Adobe Illustrator 22.0.1, SVG Export Plug-In . SVG Version: 6.00 Build 0)  -->
<svg version="1.1" id="Camada_1" xmlns="http://www.w3.org/2000/svg" xmlns:xlink="http://www.w3.org/1999/xlink" x="0px" y="0px"
	 viewBox="0 0 153.212 182.749" enable-background="new 0 0 153.212 182.749" xml:space="preserve">
<g>
	<g>
		<path fill="#006991" d="M102.147,157.471c0-17.57,11.886-32.357,28.053-36.78l-51.191-19.756V9.332H10.552v87.735
			c2.819-0.664,5.754-1.026,8.775-1.026c21.063,0,38.138,17.075,38.138,38.138c0,8.496-2.781,16.342-7.479,22.682l61.617,23.78
			l-2.247-0.867C104.826,173.5,102.147,165.801,102.147,157.471z"/>
		<polygon fill="#FFF685" points="49.987,156.86 49.987,156.86 30.599,149.378 		"/>
		<path fill="#FFF685" d="M19.327,96.04c-3.021,0-5.957,0.362-8.775,1.026v21.704h0.04c-0.584,13.074,7.123,25.635,20.006,30.607
			l19.388,7.483c4.698-6.34,7.479-14.185,7.479-22.682C57.466,113.116,40.391,96.04,19.327,96.04z"/>
		<polygon fill="#FFF685" points="130.2,120.691 130.2,120.691 134.151,122.216 		"/>
		<path fill="#FFF685" d="M134.151,122.216l-3.951-1.525c-16.167,4.424-28.053,19.21-28.053,36.78
			c0,8.329,2.678,16.029,7.209,22.302l2.247,0.867c16.133,6.226,34.26-1.805,40.486-17.938h0
			C158.316,146.569,150.285,128.442,134.151,122.216z"/>
	</g>
	<rect x="10.552" y="9.332" fill="#FFF685" width="8.65" height="45.719"/>
	<rect x="27.852" y="9.332" fill="#FFF685" width="8.65" height="45.719"/>
	<rect x="45.152" y="9.332" fill="#FFF685" width="8.65" height="45.719"/>
	<rect x="62.451" y="9.332" fill="#FFF685" width="8.65" height="45.719"/>
</g>
</svg>
