<svg xmlns="http://www.w3.org/2000/svg" viewBox="0 0 50 50"><path d="M25 0C11.203 0 0 11.203 0 25s11.203 25 25 25 25-11.203 25-25S38.797 0 25 0zm0 2c12.715 0 23 10.285 23 23S37.715 48 25 48 2 37.715 2 25 12.285 2 25 2zm-1.219 10.906c-.215 0-.343.13-.343.344v2.625c0 .215.128.375.343.375h2.438c.215 0 .343-.16.343-.375V13.25c0-.215-.128-.344-.343-.344zm-.062 7.219a.361.361 0 0 0-.219.344v16.468c0 .215.129.344.344.344h2.312c.215 0 .344-.129.344-.343v-16.47c0-.214-.129-.343-.344-.343h-2.312c-.055 0-.082-.016-.125 0z"/></svg>