<svg xmlns="http://www.w3.org/2000/svg" viewBox="0 0 64 64"><linearGradient id="a" gradientUnits="userSpaceOnUse" x1="52.04" y1="13.67" x2="52.04" y2="17.735" spreadMethod="reflect"><stop offset="0" stop-color="#6dc7ff"/><stop offset="1" stop-color="#e6abff"/></linearGradient><path d="M52.285 13.82l.114.565c.089.442.434.787.876.876l.565.114c.267.054.267.436 0 .49l-.565.114a1.118 1.118 0 0 0-.876.876l-.114.565c-.054.267-.436.267-.49 0l-.114-.565a1.118 1.118 0 0 0-.876-.876l-.565-.114c-.267-.054-.267-.436 0-.49l.565-.114c.442-.089.787-.434.876-.876l.114-.565c.054-.267.436-.267.49 0z" fill="url(#a)"/><linearGradient id="b" gradientUnits="userSpaceOnUse" x1="44.04" y1="9.695" x2="44.04" y2="15.793" spreadMethod="reflect"><stop offset="0" stop-color="#6dc7ff"/><stop offset="1" stop-color="#e6abff"/></linearGradient><path d="M44.407 9.921l.171.847a1.68 1.68 0 0 0 1.314 1.314l.847.171c.401.081.401.654 0 .735l-.847.171a1.68 1.68 0 0 0-1.314 1.314l-.171.847c-.081.401-.654.401-.735 0l-.171-.847a1.68 1.68 0 0 0-1.314-1.314l-.847-.171c-.401-.081-.401-.654 0-.735l.847-.171a1.68 1.68 0 0 0 1.314-1.314l.171-.847c.081-.401.654-.401.735 0z" fill="url(#b)"/><linearGradient id="c" gradientUnits="userSpaceOnUse" x1="35.04" y1="11.695" x2="35.04" y2="17.793" spreadMethod="reflect"><stop offset="0" stop-color="#6dc7ff"/><stop offset="1" stop-color="#e6abff"/></linearGradient><path d="M35.407 11.921l.171.847a1.68 1.68 0 0 0 1.314 1.314l.847.171c.401.081.401.654 0 .735l-.847.171a1.68 1.68 0 0 0-1.314 1.314l-.171.847c-.081.401-.654.401-.735 0l-.171-.847a1.68 1.68 0 0 0-1.314-1.314l-.847-.171c-.401-.081-.401-.654 0-.735l.847-.171a1.68 1.68 0 0 0 1.314-1.314l.171-.847c.081-.401.654-.401.735 0z" fill="url(#c)"/><linearGradient id="d" gradientUnits="userSpaceOnUse" x1="32.039" y1="36.81" x2="59" y2="36.81" spreadMethod="reflect"><stop offset="0" stop-color="#1a6dff"/><stop offset="1" stop-color="#c822ff"/></linearGradient><path d="M48.26 40.76c.04.01.08.02.12.04v-.01l-.12-.03zm0 0c.04.01.08.02.12.04v-.01l-.12-.03zm8.37-14.85a.12.12 0 0 1-.01-.15c.13-.21.23-.43.3-.65.53-1.68-.4-3.47-2.08-4-.2-.06-.41-.1-.61-.13-.01 0-.01-.01-.01-.01a3.513 3.513 0 0 0-2.2-1.64c-.29-.08-.59-.11-.88-.11-.3 0-.58.03-.86.1a3.97 3.97 0 0 0-3.76-1.25c-.42.08-.81.23-1.17.43a4.4 4.4 0 0 0-2.63-.88c-.19 0-.38.01-.57.04-1.03.13-1.95.61-2.64 1.36-.72-.39-1.55-.61-2.41-.61-.45 0-.9.06-1.33.18-2.69.74-4.29 3.52-3.55 6.22.31 1.13 1.05 2.3 2.03 3.19.09.08.12.16.12.18-1.1 3.83.8 8.15 2.55 10.44.12.17.25.33.38.48 1.09 1.27 1.39 2.69 1.45 4.27.02.41.03.82.01 1.25 0 .31 0 .64-.01.97-.02.79-.04 1.65.02 2.53.18 2.84 1.19 5.87 5.74 7.39.98.32 1.96.49 2.92.49 1.29 0 2.49-.29 3.61-.83 1.36-.67 2.58-1.72 3.64-3.11 1.44-1.89 2.56-4.42 3.3-7.44.45-1.83.76-3.84.91-6 .05-.65.08-1.32.1-2 .01-.39.01-.79.01-1.19 0-4.01-.8-7.21-2.37-9.52zm.25 12.71c-.16 2.17-.5 4.18-.99 6-.35 1.32-.78 2.53-1.29 3.61-.94 2.03-2.14 3.61-3.56 4.59-1.08.77-2.29 1.18-3.61 1.18-.73 0-1.5-.13-2.29-.39-3.44-1.14-4.24-3.18-4.38-5.57h.01c0-.03-.04-1.86.74-3.42.26-.54.62-1.04 1.11-1.43 1.18-.94 2.94-1.1 5.23-.47l.53-1.92v-.01l-.12-.03c-1.51-.4-2.86-.51-4.04-.33-.13.02-.27.04-.4.07-.93.19-1.74.56-2.44 1.12-.26.21-.5.44-.71.68-.02-.17-.04-.34-.07-.51-.17-1.09-.5-2.16-1.17-3.17-.17-.28-.38-.55-.61-.82-1.5-1.74-3.49-5.73-2.53-9.08.23-.8-.08-1.65-.69-2.2-.69-.63-1.24-1.47-1.45-2.24-.45-1.63.51-3.31 2.15-3.76.26-.07.54-.11.8-.11 1.35 0 2.58.9 2.95 2.26.16.58.17 1.3.05 2.01.3.07.49.11.63.11.25 0 .33-.15.56-.57-.49-.56-.84-1.29-.92-1.92a2.368 2.368 0 0 1 2.35-2.68c1.17 0 2.19.87 2.35 2.06.07.56-.04 1.23-.29 1.84.25.2.38.3.5.3.13 0 .24-.12.48-.38-.18-.36-.31-.75-.38-1.09a1.963 1.963 0 0 1 1.94-2.36c.92 0 1.74.64 1.93 1.58.11.54-.08 1.3-.42 1.94.14.25.21.37.32.37.09 0 .22-.08.45-.24-.08-.44-.08-.9.01-1.23.18-.72.82-1.19 1.53-1.19.13 0 .26.01.39.05.84.21 1.36 1.07 1.14 1.92-.09.38-.37.84-.71 1.22.07.3.1.4.23.4.08 0 .19-.03.36-.08.04-.34.13-.69.2-.94.16-.5.63-.83 1.13-.83.12 0 .24.02.36.06.62.2.97.86.77 1.49-.02.06-.05.14-.1.21-.44.73-.41 1.61.06 2.31 1.26 1.86 2.03 4.55 2.03 8.4 0 .4-.01.8-.02 1.19-.01.68-.05 1.35-.1 2zm-8.62 2.14c.04.01.08.02.12.04v-.01l-.12-.03zm0 0c.04.01.08.02.12.04v-.01l-.12-.03z" fill="url(#d)"/><linearGradient id="e" gradientUnits="userSpaceOnUse" x1="31.961" y1="26.43" x2="57.959" y2="26.43" gradientTransform="matrix(-1.0385 0 0 1 65.23 0)" spreadMethod="reflect"><stop offset="0" stop-color="#1a6dff"/><stop offset="1" stop-color="#c822ff"/></linearGradient><path d="M15.767 30.38c-.04.01-.08.02-.12.04v-.01l.12-.03zm0 0c-.04.01-.08.02-.12.04v-.01l.12-.03zM7.413 15.53c.04-.05.04-.1.01-.15-.13-.21-.23-.43-.3-.65a3.186 3.186 0 0 1 2.083-4c.2-.06.411-.1.611-.13.01 0 .01-.01.01-.01a3.519 3.519 0 0 1 2.203-1.64c.29-.08.591-.11.881-.11.3 0 .581.03.861.1a3.98 3.98 0 0 1 3.765-1.25c.421.08.811.23 1.172.43a4.41 4.41 0 0 1 2.634-.88c.19 0 .381.01.571.04 1.031.13 1.953.61 2.644 1.36a5.083 5.083 0 0 1 2.413-.61c.451 0 .901.06 1.332.18 2.694.74 4.296 3.52 3.555 6.22-.31 1.13-1.051 2.3-2.033 3.19-.09.08-.12.16-.12.18 1.102 3.83-.801 8.15-2.554 10.44-.12.17-.25.33-.381.48-1.092 1.27-1.392 2.69-1.452 4.27-.02.41-.03.82-.01 1.25 0 .31 0 .64.01.97.02.79.04 1.65-.02 2.53-.18 2.84-1.192 5.87-5.748 7.39-.981.32-1.963.49-2.924.49a8.228 8.228 0 0 1-3.615-.83c-1.362-.67-2.584-1.72-3.645-3.11-1.442-1.89-2.564-4.42-3.305-7.44-.451-1.83-.761-3.84-.911-6-.05-.65-.08-1.32-.1-2-.01-.39-.01-.79-.01-1.19 0-4.01.801-7.21 2.373-9.52zM7.135 28.2c.16 2.17.501 4.18.991 6 .35 1.32.781 2.53 1.292 3.61.941 2.03 2.143 3.61 3.565 4.59 1.082.77 2.293 1.18 3.615 1.18.731 0 1.502-.13 2.293-.39 3.445-1.14 4.246-3.18 4.386-5.57h-.01c0-.03.04-1.86-.741-3.42a4.037 4.037 0 0 0-1.112-1.43c-1.182-.94-2.944-1.1-5.237-.47l-.531-1.92v-.01l.12-.03c1.512-.4 2.864-.51 4.046-.33.13.02.27.04.401.07.931.19 1.743.56 2.443 1.12.26.21.501.44.711.68.02-.17.04-.34.07-.51.17-1.09.501-2.16 1.172-3.17.17-.28.381-.55.611-.82 1.484-1.719 3.448-5.635 2.567-8.96-.224-.847.021-1.739.658-2.319.691-.63 1.242-1.47 1.452-2.24a3.055 3.055 0 0 0-2.153-3.76c-.26-.07-.541-.11-.801-.11-1.352 0-2.584.9-2.954 2.26-.16.58-.17 1.3-.05 2.01-.3.07-.491.11-.631.11-.25 0-.33-.15-.561-.57.491-.56.841-1.29.921-1.92a2.369 2.369 0 0 0-2.353-2.68 2.38 2.38 0 0 0-2.353 2.06c-.07.56.04 1.23.29 1.84-.25.2-.381.3-.501.3-.13 0-.24-.12-.481-.38.18-.36.31-.75.38-1.09a1.963 1.963 0 0 0-1.542-2.32c-.13-.03-.27-.04-.401-.04a1.97 1.97 0 0 0-1.933 1.58c-.11.54.08 1.3.421 1.94-.14.25-.21.37-.32.37-.09 0-.22-.08-.451-.24.08-.44.08-.9-.01-1.23a1.57 1.57 0 0 0-1.532-1.19c-.13 0-.26.01-.391.05a1.575 1.575 0 0 0-1.142 1.92c.09.38.371.84.711 1.22-.07.3-.1.4-.23.4-.08 0-.19-.03-.36-.08-.04-.34-.13-.69-.2-.94a1.2 1.2 0 0 0-1.132-.83c-.12 0-.24.02-.36.06-.621.2-.971.86-.771 1.49.02.06.05.14.1.21.441.73.411 1.61-.06 2.31-1.262 1.86-2.033 4.55-2.033 8.4 0 .4.01.8.02 1.19.011.679.051 1.349.101 1.999zm8.632 2.18c-.04.01-.08.02-.12.04v-.01l.12-.03zm0 0c-.04.01-.08.02-.12.04v-.01l.12-.03z" fill="url(#e)"/><linearGradient id="f" gradientUnits="userSpaceOnUse" x1="17" y1="34" x2="17" y2="42" spreadMethod="reflect"><stop offset="0" stop-color="#6dc7ff"/><stop offset="1" stop-color="#e6abff"/></linearGradient><circle cx="17" cy="38" r="4" fill="url(#f)"/></svg>