<svg xmlns="http://www.w3.org/2000/svg" viewBox="0 0 40 40"><path d="M22.5 27.5h4v11h-4z" fill="#b6dcfe"/><path d="M26 28v10h-3V28h3m1-1h-5v12h5z" fill="#4788c7"/><path d="M6.5 27.5V14c0-3.586 2.914-6.5 6.5-6.5h19c3.586 0 6.5 2.914 6.5 6.5v13.5z" fill="#dff0fe"/><path d="M32 8c3.309 0 6 2.691 6 6v13H7V14c0-3.309 2.691-6 6-6h19m0-1H13c-3.852 0-7 3.148-7 7v14h33V14c0-3.852-3.148-7-7-7z" fill="#4788c7"/><path d="M6.5 27.5V13.852C6.5 10.41 9.477 7.5 13 7.5c3.586 0 6.5 2.914 6.5 6.5v13.5z" fill="#dff0fe"/><path d="M13 8c3.309 0 6 2.691 6 6v13H7V13.852C7 10.68 9.746 8 13 8m0-1c-3.852 0-7 3.148-7 6.852V28h14V14c0-3.852-3.148-7-7-7z" fill="#4788c7"/><path d="M32.5 12.5h3v5h-3z" fill="#98ccfd"/><path d="M35 13v4h-2v-4h2m1-1h-4v6h4z" fill="#4788c7"/><path d="M36 12H25v1h11z" fill="#4788c7"/><path d="M25.5 12.5c0 .55-.45 1-1 1s-1-.45-1-1 .45-1 1-1 1 .45 1 1z" fill="#4788c7"/><path d="M24.5 12a.499.499 0 1 1 0 1 .498.498 0 0 1-.5-.5c0-.277.223-.5.5-.5m0-1a1.5 1.5 0 1 0 0 3 1.5 1.5 0 0 0 0-3z" fill="#4788c7"/><path d="M16 17h-6c-.55 0-1-.45-1-1s.45-1 1-1h6c.55 0 1 .45 1 1s-.45 1-1 1z" fill="#98ccfd"/></svg>