<svg xmlns="http://www.w3.org/2000/svg" viewBox="0 0 32 32"><path d="M16 4C9.383 4 4 9.383 4 16s5.383 12 12 12c5.855 0 10.734-4.227 11.781-9.781 0-.024.012-.051 0-.125.121-.684.219-1.375.219-2.094 0-6.617-5.383-12-12-12zm0 2c.91 0 1.79.117 2.625.344.121.875.094 1.96-.031 2.937-.09.711-.23 1.301-.344 1.75-.086-.008-.164-.031-.25-.031-.266 0-.504.059-.75.125-.61-1.117-1.55-2.238-2.563-3.25a18.916 18.916 0 0 0-1.624-1.438A9.991 9.991 0 0 1 16 6zm4.688 1.188a9.92 9.92 0 0 1 5.28 8.218c-2.152-2.285-4.753-2.965-5.5-3.125-.105-.152-.241-.277-.374-.406.004-.008-.004-.023 0-.031.183-.594.347-1.367.468-2.313.094-.742.145-1.539.125-2.344zm-9.75.187c.19.098.43.25.718.469.489.367 1.04.883 1.594 1.437.98.977 1.879 2.149 2.313 2.969a5.209 5.209 0 0 0-.126.188c-3.777.457-6.921 2.195-9.374 4.718A10.27 10.27 0 0 1 6 16a9.962 9.962 0 0 1 4.938-8.625zM18 13c.563 0 1 .438 1 1 0 .563-.438 1-1 1-.563 0-1-.438-1-1 0-.563.438-1 1-1zm2.938 1.5c1.355.473 3.566 1.547 4.78 3.906-.46 1.875-1.464 3.524-2.812 4.813a30.68 30.68 0 0 0-.843-3.157c-.497-1.507-1.102-2.96-1.844-4.062a3.01 3.01 0 0 0 .718-1.5zm-5.875.031a3.041 3.041 0 0 0 1.093 1.844c-.304.965-1.047 2.566-1.968 4.156-.93 1.606-1.993 3.203-2.844 4.313A9.977 9.977 0 0 1 6.625 19.5c2.176-2.64 4.938-4.402 8.438-4.969zm3.406 2.406c.543.77 1.187 2.227 1.687 3.75.465 1.407.824 2.856 1 3.875A10.006 10.006 0 0 1 16 26a9.969 9.969 0 0 1-2.75-.375 43.809 43.809 0 0 0 2.688-4.094c.949-1.64 1.765-3.195 2.156-4.531.129-.004.25-.043.375-.063z"/></svg>