<svg xmlns="http://www.w3.org/2000/svg" viewBox="0 0 32 32"><path d="M15.508 2.094l-1.414 1.414 2.523 2.523C16.41 6.02 16.211 6 16 6c-2.39 0-4.582.867-6.305 2.281L3.707 2.293 2.293 3.707l26 26 1.414-1.414-5.988-5.988C25.137 20.582 26 18.39 26 16c0-1.5-.3-2.898-.902-4.098l-1.5 1.5c.3.797.402 1.7.402 2.598 0 1.84-.64 3.535-1.7 4.89L11.11 9.696A7.946 7.946 0 0 1 16 8c.188 0 .371.016.559.031l-2.465 2.461 1.414 1.414L20.414 7zM7.16 11.348A9.903 9.903 0 0 0 6 16c0 1.5.3 2.898.898 4.098l1.5-1.5C8.2 17.8 8 16.898 8 16c0-1.121.234-2.188.656-3.156zm9.04 9.039L11.585 25l4.906 4.906 1.414-1.414-2.527-2.523c.207.011.414.031.621.031a9.903 9.903 0 0 0 4.652-1.16l-1.496-1.496A7.883 7.883 0 0 1 16 24c-.188 0-.371-.012-.559-.027l2.172-2.172z"/></svg>