<svg xmlns="http://www.w3.org/2000/svg" viewBox="0 0 64 64"><path d="M53 53H4a3 3 0 0 1-3-3V10a3 3 0 0 1 3-3h13l9 6h24a3 3 0 0 1 3 3z" fill="#cda1a7"/><path d="M53.441 53H8.56a1.997 1.997 0 0 1-1.937-2.488l7-28A1.997 1.997 0 0 1 15.558 21H60.44a1.997 1.997 0 0 1 1.938 2.488l-7 28A1.997 1.997 0 0 1 53.44 53z" fill="#faefde"/><path d="M62.25 24l.129-.512A1.997 1.997 0 0 0 60.44 21H15.56c-.914 0-1.715.621-1.938 1.512L13.25 24z" fill="#fff7f0"/><path d="M8.5 43l-1.879 7.512A1.997 1.997 0 0 0 8.56 53h44.88c.914 0 1.715-.621 1.938-1.512L57.5 43z" fill="#efd8be"/><path d="M53 42h-4c-.55 0-1 .45-1 1s.45 1 1 1h4c.55 0 1-.45 1-1s-.45-1-1-1zm-41.262 4a.997.997 0 0 0-1.207.73l-.5 2a1.001 1.001 0 0 0 1.25 1.234.993.993 0 0 0 .688-.753l.5-2a.998.998 0 0 0-.73-1.211zm5 0a.997.997 0 0 0-1.207.73l-.5 2a1.001 1.001 0 0 0 1.25 1.234.993.993 0 0 0 .688-.753l.5-2a.998.998 0 0 0-.73-1.211zm5 0a.997.997 0 0 0-1.207.73l-.5 2a1.001 1.001 0 0 0 1.25 1.234.993.993 0 0 0 .688-.753l.5-2a.998.998 0 0 0-.73-1.211zm5 0a.997.997 0 0 0-1.207.73l-.5 2a1.001 1.001 0 0 0 1.25 1.234.993.993 0 0 0 .688-.753l.5-2a.998.998 0 0 0-.73-1.211zm5 0a.997.997 0 0 0-1.207.73l-.5 2a1.001 1.001 0 0 0 1.25 1.234.993.993 0 0 0 .688-.753l.5-2a.998.998 0 0 0-.73-1.211zm5 0a.997.997 0 0 0-1.207.73l-.5 2a1.001 1.001 0 0 0 1.25 1.234.993.993 0 0 0 .688-.753l.5-2a.998.998 0 0 0-.73-1.211zm5 0a.997.997 0 0 0-1.207.73l-.5 2a1.001 1.001 0 0 0 1.25 1.234.993.993 0 0 0 .688-.753l.5-2a.998.998 0 0 0-.73-1.211zm5 0a.997.997 0 0 0-1.207.73l-.5 2a1.001 1.001 0 0 0 1.25 1.234.993.993 0 0 0 .688-.753l.5-2a.998.998 0 0 0-.73-1.211zm5 0a.997.997 0 0 0-1.207.73l-.5 2a1.001 1.001 0 0 0 1.25 1.234.993.993 0 0 0 .688-.753l.5-2a.998.998 0 0 0-.73-1.211z" fill="#8d6c9f"/><path d="M62.809 21.148A2.998 2.998 0 0 0 60.44 20H54v-5a3 3 0 0 0-3-3H25.71a2.98 2.98 0 0 1-2.108-.871l-3.73-3.68A5.007 5.007 0 0 0 16.358 6H3a3 3 0 0 0-3 3v41c0 2.21 1.79 4 4 4h48.7a3.999 3.999 0 0 0 3.87-3l6.79-27.29a3.003 3.003 0 0 0-.551-2.562zM4 52a2 2 0 0 1-2-2V9c0-.55.45-1 1-1h13.36c.792 0 1.55.313 2.109.871l3.722 3.68c.934.93 2.2 1.449 3.52 1.449H51c.55 0 1 .45 1 1v5H16.512a4 4 0 0 0-3.883 3L6 49.7S5.46 52 4 52zm57.41-28.762L54.63 50.52A1.994 1.994 0 0 1 52.7 52H7.211A6.34 6.34 0 0 0 8 50.148L9.488 44H45c.55 0 1-.45 1-1s-.45-1-1-1H10l4.59-18.48A2.004 2.004 0 0 1 16.512 22h43.93a1 1 0 0 1 1 1.238z" fill="#8d6c9f"/></svg>