<svg xmlns="http://www.w3.org/2000/svg" viewBox="0 0 64 64"><linearGradient id="a" gradientUnits="userSpaceOnUse" x1="32" y1="7.667" x2="32" y2="56.715" spreadMethod="reflect"><stop offset="0" stop-color="#1a6dff"/><stop offset="1" stop-color="#c822ff"/></linearGradient><path d="M51 56H13c-2.757 0-5-2.243-5-5V13c0-2.757 2.243-5 5-5h38c2.757 0 5 2.243 5 5v38c0 2.757-2.243 5-5 5zM13 10c-1.654 0-3 1.346-3 3v38c0 1.654 1.346 3 3 3h38c1.654 0 3-1.346 3-3V13c0-1.654-1.346-3-3-3H13z" fill="url(#a)"/><linearGradient id="b" gradientUnits="userSpaceOnUse" x1="20" y1="37.75" x2="20" y2="48.25" spreadMethod="reflect"><stop offset="0" stop-color="#1a6dff"/><stop offset="1" stop-color="#c822ff"/></linearGradient><rect x="19" y="45" width="2" height="3" fill="url(#b)"/><linearGradient id="c" gradientUnits="userSpaceOnUse" x1="32" y1="7.667" x2="32" y2="56.715" spreadMethod="reflect"><stop offset="0" stop-color="#1a6dff"/><stop offset="1" stop-color="#c822ff"/></linearGradient><path d="M50 52H14c-1.103 0-2-.897-2-2V14c0-1.103.897-2 2-2h36c1.103 0 2 .897 2 2v36c0 1.103-.897 2-2 2zM14 14v36h36V14H14z" fill="url(#c)"/><linearGradient id="d" gradientUnits="userSpaceOnUse" x1="32" y1="17.875" x2="32" y2="33.001" spreadMethod="reflect"><stop offset="0" stop-color="#6dc7ff"/><stop offset="1" stop-color="#e6abff"/></linearGradient><path d="M32.943 18.573l1.658 3.288c.153.304.449.514.792.563l3.706.527c.862.123 1.207 1.16.583 1.756L37 27.267a1.014 1.014 0 0 0-.302.911l.633 3.614c.147.841-.754 1.482-1.526 1.085l-3.315-1.706a1.07 1.07 0 0 0-.979 0l-3.315 1.706c-.771.397-1.673-.244-1.526-1.085l.633-3.614a1.016 1.016 0 0 0-.302-.911l-2.682-2.56c-.624-.596-.28-1.633.583-1.756l3.706-.527c.342-.049.639-.259.792-.563l1.658-3.288c.385-.765 1.499-.765 1.885 0z" fill="url(#d)"/><linearGradient id="e" gradientUnits="userSpaceOnUse" x1="24" y1="37.75" x2="24" y2="48.25" spreadMethod="reflect"><stop offset="0" stop-color="#1a6dff"/><stop offset="1" stop-color="#c822ff"/></linearGradient><rect x="23" y="43" width="2" height="5" fill="url(#e)"/><linearGradient id="f" gradientUnits="userSpaceOnUse" x1="28" y1="37.75" x2="28" y2="48.25" spreadMethod="reflect"><stop offset="0" stop-color="#1a6dff"/><stop offset="1" stop-color="#c822ff"/></linearGradient><rect x="27" y="40" width="2" height="8" fill="url(#f)"/><linearGradient id="g" gradientUnits="userSpaceOnUse" x1="32" y1="37.75" x2="32" y2="48.25" spreadMethod="reflect"><stop offset="0" stop-color="#1a6dff"/><stop offset="1" stop-color="#c822ff"/></linearGradient><rect x="31" y="38" width="2" height="10" fill="url(#g)"/><linearGradient id="h" gradientUnits="userSpaceOnUse" x1="36" y1="37.75" x2="36" y2="48.25" spreadMethod="reflect"><stop offset="0" stop-color="#1a6dff"/><stop offset="1" stop-color="#c822ff"/></linearGradient><rect x="35" y="40" width="2" height="8" fill="url(#h)"/><linearGradient id="i" gradientUnits="userSpaceOnUse" x1="40" y1="37.75" x2="40" y2="48.25" spreadMethod="reflect"><stop offset="0" stop-color="#1a6dff"/><stop offset="1" stop-color="#c822ff"/></linearGradient><rect x="39" y="43" width="2" height="5" fill="url(#i)"/><linearGradient id="j" gradientUnits="userSpaceOnUse" x1="44" y1="37.75" x2="44" y2="48.25" spreadMethod="reflect"><stop offset="0" stop-color="#1a6dff"/><stop offset="1" stop-color="#c822ff"/></linearGradient><rect x="43" y="45" width="2" height="3" fill="url(#j)"/></svg>