<svg xmlns="http://www.w3.org/2000/svg" viewBox="0 0 64 64"><linearGradient id="a" gradientUnits="userSpaceOnUse" x1="32" y1="25.75" x2="32" y2="38.498" spreadMethod="reflect"><stop offset="0" stop-color="#6dc7ff"/><stop offset="1" stop-color="#e6abff"/></linearGradient><circle cx="32" cy="32" r="5" fill="url(#a)"/><linearGradient id="b" gradientUnits="userSpaceOnUse" x1="32" y1="4.5" x2="32" y2="59.536" spreadMethod="reflect"><stop offset="0" stop-color="#1a6dff"/><stop offset="1" stop-color="#c822ff"/></linearGradient><path d="M32 6C17.663 6 6 17.663 6 32s11.663 26 26 26 26-11.663 26-26S46.337 6 32 6zm0 50C18.767 56 8 45.233 8 32S18.767 8 32 8s24 10.767 24 24-10.767 24-24 24z" fill="url(#b)"/><linearGradient id="c" gradientUnits="userSpaceOnUse" x1="29.5" y1="4.5" x2="29.5" y2="59.536" spreadMethod="reflect"><stop offset="0" stop-color="#1a6dff"/><stop offset="1" stop-color="#c822ff"/></linearGradient><path d="M32 15a16.885 16.885 0 0 0-9.913 3.188l1.168 1.623A14.9 14.9 0 0 1 32 17c8.271 0 15 6.729 15 15s-6.729 15-15 15c-7.934 0-14.431-6.195-14.949-14h2.804c.772 0 1.465-.388 1.854-1.038.371-.619.39-1.365.052-1.995l-3.557-6.645a2.505 2.505 0 0 0-4.407.007l-3.555 6.634a2.008 2.008 0 0 0 .051 1.998A2.139 2.139 0 0 0 12.147 33h2.905c.521 8.908 7.911 16 16.948 16 9.374 0 17-7.626 17-17s-7.626-17-17-17zM12.004 30.908l3.555-6.633a.494.494 0 0 1 .445-.267c.111 0 .315.033.437.259L20 30.916c-.001.011-.033.084-.146.084h-7.709c-.114 0-.144-.075-.141-.092z" fill="url(#c)"/></svg>