<svg xmlns="http://www.w3.org/2000/svg" viewBox="0 0 40 40"><path d="M21 37.5c-9.648 0-17.5-7.852-17.5-17.5S11.352 2.5 21 2.5 38.5 10.352 38.5 20 30.648 37.5 21 37.5zm0-30C14.105 7.5 8.5 13.105 8.5 20S14.105 32.5 21 32.5 33.5 26.895 33.5 20 27.895 7.5 21 7.5z" fill="#b6dcfe"/><path d="M21 3c9.375 0 17 7.625 17 17s-7.625 17-17 17S4 29.375 4 20 11.625 3 21 3m0 30c7.168 0 13-5.832 13-13S28.168 7 21 7 8 12.832 8 20s5.832 13 13 13m0-31C11.059 2 3 10.059 3 20s8.059 18 18 18 18-8.059 18-18S30.941 2 21 2zm0 30c-6.629 0-12-5.371-12-12S14.371 8 21 8s12 5.371 12 12-5.371 12-12 12z" fill="#4788c7"/><path d="M34.5 8c0 3.04-2.46 5.5-5.5 5.5s-5.5-2.46-5.5-5.5 2.46-5.5 5.5-5.5 5.5 2.46 5.5 5.5z" fill="#dff0fe"/><path d="M29 3c2.758 0 5 2.242 5 5s-2.242 5-5 5-5-2.242-5-5 2.242-5 5-5m0-1c-3.313 0-6 2.688-6 6 0 3.313 2.688 6 6 6 3.313 0 6-2.688 6-6 0-3.313-2.688-6-6-6z" fill="#4788c7"/><path d="M35.5 32c0 3.04-2.46 5.5-5.5 5.5s-5.5-2.46-5.5-5.5 2.46-5.5 5.5-5.5 5.5 2.46 5.5 5.5z" fill="#dff0fe"/><path d="M30 27c2.758 0 5 2.242 5 5s-2.242 5-5 5-5-2.242-5-5 2.242-5 5-5m0-1c-3.313 0-6 2.688-6 6 0 3.313 2.688 6 6 6 3.313 0 6-2.688 6-6 0-3.313-2.688-6-6-6z" fill="#4788c7"/><path d="M12.5 20c0 3.04-2.46 5.5-5.5 5.5S1.5 23.04 1.5 20s2.46-5.5 5.5-5.5 5.5 2.46 5.5 5.5z" fill="#dff0fe"/><path d="M7 15c2.758 0 5 2.242 5 5s-2.242 5-5 5-5-2.242-5-5 2.242-5 5-5m0-1c-3.313 0-6 2.688-6 6 0 3.313 2.688 6 6 6 3.313 0 6-2.688 6-6 0-3.313-2.688-6-6-6z" fill="#4788c7"/></svg>