<svg xmlns="http://www.w3.org/2000/svg" viewBox="0 0 80 80"><path d="M61 10c-4.957 0-9 4.043-9 9 0 2.164.77 4.152 2.047 5.703a1.002 1.002 0 0 0 1.25 1.25A8.96 8.96 0 0 0 61 28c4.957 0 9-4.043 9-9s-4.043-9-9-9zm0 2c3.879 0 7 3.121 7 7s-3.121 7-7 7-7-3.121-7-7 3.121-7 7-7zm0 2c-.55 0-1 .45-1 1s.45 1 1 1 1-.45 1-1-.45-1-1-1zm-4 4c-.55 0-1 .45-1 1s.45 1 1 1 1-.45 1-1-.45-1-1-1zm8 0c-.55 0-1 .45-1 1s.45 1 1 1 1-.45 1-1-.45-1-1-1zm-4 4c-.55 0-1 .45-1 1s.45 1 1 1 1-.45 1-1-.45-1-1-1zm-9 5c-.55 0-1 .45-1 1s.45 1 1 1 1-.45 1-1-.45-1-1-1zm-3 3c-.55 0-1 .45-1 1s.45 1 1 1 1-.45 1-1-.45-1-1-1zm-30 1c-4.957 0-9 4.043-9 9s4.043 9 9 9c4.621 0 8.441-3.512 8.941-8H28c.55 0 1-.45 1-1s-.45-1-1-1c-.02 0-.04.004-.059.004C27.441 34.512 23.621 31 19 31zm0 2c3.879 0 7 3.121 7 7s-3.121 7-7 7-7-3.121-7-7 3.121-7 7-7zm27 0c-.55 0-1 .45-1 1s.45 1 1 1 1-.45 1-1-.45-1-1-1zm-27 2c-.55 0-1 .45-1 1s.45 1 1 1 1-.45 1-1-.45-1-1-1zm24 1c-.55 0-1 .45-1 1s.45 1 1 1 1-.45 1-1-.45-1-1-1zm-28 3c-.55 0-1 .45-1 1s.45 1 1 1 1-.45 1-1-.45-1-1-1zm8 0c-.55 0-1 .45-1 1s.45 1 1 1 1-.45 1-1-.45-1-1-1zm9 0c-.55 0-1 .45-1 1s.45 1 1 1 1-.45 1-1-.45-1-1-1zm4 0c-.55 0-1 .45-1 1s.45 1 1 1 1-.45 1-1-.45-1-1-1zm4 0c-.55 0-1 .45-1 1s.45 1 1 1 1-.45 1-1-.45-1-1-1zm3 3c-.55 0-1 .45-1 1s.45 1 1 1 1-.45 1-1-.45-1-1-1zm-24 1c-.55 0-1 .45-1 1s.45 1 1 1 1-.45 1-1-.45-1-1-1zm27 2c-.55 0-1 .45-1 1s.45 1 1 1 1-.45 1-1-.45-1-1-1zm3 3c-.55 0-1 .45-1 1s.45 1 1 1 1-.45 1-1-.45-1-1-1zm3 3c-.55 0-1 .45-1 1s.45 1 1 1 1-.45 1-1-.45-1-1-1zm9 1c-2.164 0-4.152.77-5.703 2.047a1.002 1.002 0 0 0-1.25 1.25A8.96 8.96 0 0 0 52 61c0 4.957 4.043 9 9 9s9-4.043 9-9-4.043-9-9-9zm0 2c3.879 0 7 3.121 7 7s-3.121 7-7 7-7-3.121-7-7 3.121-7 7-7zm0 2c-.55 0-1 .45-1 1s.45 1 1 1 1-.45 1-1-.45-1-1-1zm-4 4c-.55 0-1 .45-1 1s.45 1 1 1 1-.45 1-1-.45-1-1-1zm8 0c-.55 0-1 .45-1 1s.45 1 1 1 1-.45 1-1-.45-1-1-1zm-4 4c-.55 0-1 .45-1 1s.45 1 1 1 1-.45 1-1-.45-1-1-1z"/></svg>