<svg xmlns="http://www.w3.org/2000/svg" viewBox="0 0 64 64"><linearGradient id="a" gradientUnits="userSpaceOnUse" x1="32" y1="7.5" x2="32" y2="56.752" spreadMethod="reflect"><stop offset="0" stop-color="#1a6dff"/><stop offset="1" stop-color="#c822ff"/></linearGradient><path d="M32 56a2.977 2.977 0 0 1-2.591-1.484l-3.694-6.314c-.759-1.299-2.099-2.185-3.675-2.432-9.479-1.482-16.37-9.85-16.027-19.462C6.371 16.213 15.083 8 25.432 8h13.137c10.349 0 19.061 8.213 19.419 18.308.343 9.611-6.549 17.979-16.028 19.462-1.575.247-2.915 1.133-3.674 2.432l-3.694 6.313A2.978 2.978 0 0 1 32 56zm-6.568-46c-9.285 0-17.1 7.348-17.421 16.378-.306 8.602 5.858 16.089 14.339 17.415 2.173.341 4.028 1.579 5.092 3.398l3.694 6.313c.261.448.691.496.864.496s.603-.048.864-.496l3.694-6.313c1.063-1.819 2.919-3.058 5.091-3.398 8.481-1.327 14.646-8.813 14.34-17.415C55.668 17.348 47.854 10 38.568 10H25.432z" fill="url(#a)"/><linearGradient id="b" gradientUnits="userSpaceOnUse" x1="25" y1="21.5" x2="25" y2="28.5" spreadMethod="reflect"><stop offset="0" stop-color="#6dc7ff"/><stop offset="1" stop-color="#e6abff"/></linearGradient><circle cx="25" cy="24.998" r="3" fill="url(#b)"/><linearGradient id="c" gradientUnits="userSpaceOnUse" x1="39" y1="21.5" x2="39" y2="28.5" spreadMethod="reflect"><stop offset="0" stop-color="#6dc7ff"/><stop offset="1" stop-color="#e6abff"/></linearGradient><circle cx="39" cy="24.998" r="3" fill="url(#c)"/><linearGradient id="d" gradientUnits="userSpaceOnUse" x1="32" y1="29.625" x2="32" y2="37.375" spreadMethod="reflect"><stop offset="0" stop-color="#6dc7ff"/><stop offset="1" stop-color="#e6abff"/></linearGradient><path d="M36 30h-8c-.552 0-1 .446-1 .998v1a5 5 0 0 0 10 0v-1A.999.999 0 0 0 36 30z" fill="url(#d)"/><linearGradient id="e" gradientUnits="userSpaceOnUse" x1="32" y1="7.5" x2="32" y2="56.752" spreadMethod="reflect"><stop offset="0" stop-color="#1a6dff"/><stop offset="1" stop-color="#c822ff"/></linearGradient><rect x="26" y="12" width="12" height="2" fill="url(#e)"/></svg>