<svg xmlns="http://www.w3.org/2000/svg" viewBox="0 0 40 40"><path d="M16.5 11.371c-1.254-.59-2.875-3.008-3.012-3.453L13.5 6c0-1.313 1.492-3.773 2.121-4.39.344.64.879 2.804.879 4.722z" fill="#98ccfd"/><path d="M15.46 2.61c.267.913.54 2.386.54 3.722v4.078c-.813-.742-1.734-1.988-2-2.57V6c0-.871.824-2.457 1.46-3.39M15.677 1C15.09 1 13 4.328 13 6v2c0 .363 2.332 4 4 4V6.332C17 4.125 16.262 1 15.676 1z" fill="#4788c7"/><path d="M6.5 18.45c-1.258-.227-2.7-1.212-3-1.563V16c0-1.34 1.488-4.484 2.145-5.344.347.7.855 2.805.855 4.676z" fill="#98ccfd"/><path d="M5.516 11.809c.246.918.484 2.28.484 3.523v2.461c-.813-.29-1.648-.816-2-1.117V16c0-.938.852-2.965 1.516-4.191M5.676 10C5.09 10 3 14.328 3 16v1.023-.3V17c0 .363 2.332 2 4 2v-3.668C7 13.125 6.262 10 5.676 10z" fill="#4788c7"/><path d="M5.508 21.5c-1.453 0-3.008-.742-3.008-2.832 0-1.887 1.34-4.168 3.008-4.168 1.656 0 2.992 2.277 2.992 4.168 0 2.09-1.547 2.832-2.992 2.832z" fill="#dff0fe"/><path d="M5.508 15C6.742 15 8 16.852 8 18.668 8 20.773 6.258 21 5.508 21 4.754 21 3 20.773 3 18.668 3 16.852 4.266 15 5.508 15m0-1C3.57 14 2 16.457 2 18.668 2 20.875 3.57 22 5.508 22 7.445 22 9 20.875 9 18.668 9 16.457 7.445 14 5.508 14z" fill="#4788c7"/><path d="M13.5 15.5c-1.652 0-3-1.625-3-3.625C10.5 8.48 12.602 5.5 15 5.5c.605 0 1.5 1.05 1.5 2.5v3.875c0 2-1.348 3.625-3 3.625z" fill="#dff0fe"/><path d="M15 6c.258 0 1 .785 1 2v3.875C16 13.598 14.879 15 13.5 15S11 13.598 11 11.875C11 8.415 13.11 6 15 6m0-1c-2.602 0-5 3.035-5 6.875C10 14.152 11.566 16 13.5 16s3.5-1.848 3.5-4.125V8c0-1.633-1.031-3-2-3z" fill="#4788c7"/><path d="M36.883 25.484c-.676-.16-1.383-1.597-1.383-3.484 0-1.285 1.488-3.059 2.094-3.438.343.575.906 2.801.906 4.774v1.195c-1.008.13-1.387.64-1.602.934a.085.085 0 0 0-.015.02z" fill="#98ccfd"/><path d="M37.398 19.395c.282.882.602 2.492.602 3.937v.79c-.61.16-.988.452-1.23.71-.32-.367-.77-1.344-.77-2.832 0-.785.79-1.96 1.398-2.605M37.676 18C37.09 18 35 20.328 35 22c0 2.21.898 4 2.008 4 .363 0 .328-1 1.992-1v-1.668C39 21.125 38.262 18 37.676 18z" fill="#4788c7"/><path d="M32.5 17.484c-1.281-.086-2.602-.46-3-.675V15c0-1.313 1.492-3.773 2.121-4.39.344.64.879 2.804.879 4.722z" fill="#98ccfd"/><path d="M31.46 11.61c.267.913.54 2.386.54 3.722v1.598c-.793-.098-1.566-.29-2-.45V15c0-.871.824-2.457 1.46-3.39m.216-1.61C31.09 10 29 13.328 29 15v2c0 .363 2.332 1 4 1v-2.668C33 13.125 32.262 10 31.676 10z" fill="#4788c7"/><path d="M25.5 8.484c-1.281-.086-2.602-.46-3-.675V6c0-1.313 1.492-3.773 2.121-4.39.344.64.879 2.804.879 4.722z" fill="#98ccfd"/><path d="M24.46 2.61c.267.913.54 2.386.54 3.722V7.93c-.793-.098-1.566-.29-2-.45V6c0-.871.824-2.457 1.46-3.39M24.677 1C24.09 1 22 4.328 22 6v2c0 .363 2.332 1 4 1V6.332C26 4.125 25.262 1 24.676 1z" fill="#4788c7"/><path d="M28.695 22.5c-.25 0-.48-.035-.672-.105-.527-.188-.945-.594-1.21-1.172-.438-.95-.41-2.278.07-3.551.695-1.836 2.164-3.172 3.492-3.172.215 0 .418.035.613.105 1.367.5 1.946 3.266 1.145 5.477-.57 1.57-2.196 2.418-3.438 2.418z" fill="#dff0fe"/><path d="M30.375 15c.152 0 .305.027.441.078 1 .363 1.59 2.777.844 4.836C31.168 21.27 29.766 22 28.695 22c-.195 0-.367-.027-.5-.074-.406-.145-.715-.453-.925-.91-.387-.832-.356-2.02.082-3.168.613-1.621 1.914-2.848 3.023-2.848m0-1c-1.527 0-3.184 1.445-3.96 3.496-.911 2.41-.27 4.754 1.44 5.371.247.09.532.133.84.133 1.395 0 3.239-.91 3.907-2.746.878-2.422.265-5.492-1.442-6.117a2.261 2.261 0 0 0-.785-.137z" fill="#4788c7"/><path d="M34.695 29.5c-.25 0-.48-.035-.672-.105-.527-.188-.945-.594-1.21-1.172-.438-.95-.41-2.278.07-3.551.695-1.836 2.164-3.172 3.492-3.172.215 0 .418.035.613.105 1.367.5 1.946 3.266 1.145 5.477-.57 1.57-2.196 2.418-3.438 2.418z" fill="#dff0fe"/><path d="M36.375 22c.152 0 .305.027.441.078 1 .363 1.59 2.777.844 4.836C37.168 28.27 35.766 29 34.695 29c-.195 0-.367-.027-.5-.074-.406-.145-.715-.453-.925-.91-.387-.832-.356-2.02.082-3.168.613-1.621 1.914-2.848 3.023-2.848m0-1c-1.527 0-3.184 1.445-3.96 3.496-.911 2.41-.27 4.754 1.44 5.371.247.09.532.133.84.133 1.395 0 3.239-.91 3.907-2.746.878-2.422.265-5.492-1.442-6.117a2.261 2.261 0 0 0-.785-.137z" fill="#4788c7"/><path d="M29 37.5c-1.672 0-3.52-1.07-5.305-2.102C22.012 34.422 20.418 33.5 19 33.5c-2.102 0-3.152.738-4.168 1.453-1.078.762-2.191 1.547-4.832 1.547-3.828 0-6.5-2.262-6.5-5.5 0-3.73 4.363-5.95 5.703-6.543 1.07-.473 1.762-1.473 2.496-2.531C12.863 20.242 14.07 18.5 17 18.5c2.64 0 3.719 1.324 5.348 3.324.882 1.082 1.879 2.309 3.324 3.555.355.305.71.605 1.062.906C29.7 28.801 32.5 31.175 32.5 34c0 3.402-3.14 3.5-3.5 3.5z" fill="#dff0fe"/><path d="M17 19c2.402 0 3.363 1.184 4.96 3.14.895 1.098 1.907 2.34 3.388 3.618.351.305.71.605 1.066.91C29.285 29.105 32 31.406 32 34c0 2.855-2.5 3-3 3-1.535 0-3.324-1.035-5.055-2.035C22.2 33.953 20.551 33 19 33c-2.258 0-3.426.82-4.453 1.547C13.484 35.293 12.48 36 10 36c-3.59 0-6-2.008-6-5 0-3.426 4.137-5.523 5.406-6.086 1.2-.531 1.965-1.637 2.703-2.703C13.254 20.559 14.332 19 17 19m0-1c-5.074 0-5.457 4.875-8 6-2.5 1.105-6 3.477-6 7 0 3.324 2.621 6 7 6 5.277 0 4.863-3 9-3 2.723 0 6.582 4 10 4 1.309 0 4-.703 4-4 0-3.418-3.668-6.125-7-9-4.094-3.531-4.61-7-9-7z" fill="#4788c7"/><path d="M22.5 15.5c-1.652 0-3-1.625-3-3.625C19.5 8.48 21.602 5.5 24 5.5c.605 0 1.5 1.05 1.5 2.5v3.875c0 2-1.348 3.625-3 3.625z" fill="#dff0fe"/><path d="M24 6c.258 0 1 .785 1 2v3.875C25 13.598 23.879 15 22.5 15S20 13.598 20 11.875C20 8.415 22.11 6 24 6m0-1c-2.602 0-5 3.035-5 6.875C19 14.152 20.566 16 22.5 16s3.5-1.848 3.5-4.125V8c0-1.633-1.031-3-2-3z" fill="#4788c7"/></svg>