<svg xmlns="http://www.w3.org/2000/svg" viewBox="0 0 50 50"><path d="M19.563 2.5c-.41-.07-.97.32-1.375.656-.56.465-2.258 2.13-2.594 4.938C12.605 10.098 11 14.344 11 16.03c0 2.876 1.723 5.97 4.5 5.97 2.75 0 4.594-2.035 4.594-5.063 0-1.582.281-3.18.531-4.593.383-2.164.672-3.735-.125-4.688-.04-.043-.11-.078-.156-.125.199-1.566.281-3.914-.25-4.687a.802.802 0 0 0-.532-.344zm10.156 1c-.801-.059-2.36 1.39-3.032 5C24.282 9.668 22 12.715 22 15.313 22 18.526 23.621 22 26.25 22c2.7 0 5.602-4.285 5.719-7.375.097-2.457-.184-4.14-.875-5.219.34-2.219-.035-4.57-.688-5.469-.199-.273-.43-.417-.687-.437zm8.75 6c-.313.047-.973.582-2.125 4.563C32.977 14.598 31 17.995 31 21.28c0 3.314 1.773 5.72 4.219 5.72 3.402 0 5.652-3.602 5.781-6.938.07-1.89-.219-3.351-.813-4.375.56-2.203-.046-4.44-.656-5.437-.293-.48-.605-.723-.937-.75a.444.444 0 0 0-.125 0zM6.312 13.031c-.18.043-.332.156-.437.25-.625.555-1.785 2.383-2.125 4.156C1.996 18.325 1 20.442 1 22.5 1 25.629 2.75 29 5.594 29 8.21 29 9.87 26.926 10 23.437c.082-2.187-.52-4.105-1.625-5.25a3.715 3.715 0 0 0-.75-.593c-.086-3.403-.336-4.496-1.125-4.563-.066-.004-.129-.015-.188 0zM46.344 20.5c-.793 0-1.84 2.035-2.313 3.563C40.13 24.608 38 28.738 38 31.655 38 34.648 40.129 37 42.844 37c3.636 0 6.027-3.324 6.156-6.406.078-1.95-.344-3.715-1.125-4.907.152-2.164-.117-3.968-.75-4.75-.262-.324-.531-.421-.719-.437h-.062zM20.687 24c-3.722 0-4.882 1.36-6.375 3.063-.699.796-1.515 1.687-2.75 2.656-1.117.879-2.21 1.265-3.28 1.625C6.175 32.054 4 32.777 4 37.312c0 5.528 4.563 9.094 11.625 9.094 4.031 0 5.578-.515 6.813-.937.828-.282 1.488-.532 2.843-.532 2.856 0 4.344 1.266 5.657 2.376C31.956 48.18 32.895 49 34.25 49c3.598 0 5.75-2.566 5.75-6.844 0-4.011-5.469-9.73-9.781-11.437-.89-.352-1.864-1.407-2.875-2.532C25.582 26.235 23.59 24 20.687 24z"/></svg>