<svg xmlns="http://www.w3.org/2000/svg" viewBox="0 0 24 24"><path d="M3.879.191L8 4.313s0 1.23-1.227 2.46C5.543 8 4.313 8 4.313 8L.19 3.879c-.586 2.32.207 5.125 1.922 6.84 1.586 1.586 3.282 1.562 4.942.664.28-.153.898-.399 1.597.305C12.3 15.332 19.187 23.02 19.319 23.152c1.102 1.102 2.852 1.133 3.907.075 1.058-1.055 1.027-2.805-.075-3.907-.136-.133-7.988-7.168-11.57-10.75-.664-.668-.402-1.156-.266-1.398.961-1.695 1.024-3.434-.597-5.059C9.004.398 6.199-.395 3.879.191zM22.199 21a1.198 1.198 0 1 1-2.399 0c0-.664.536-1.2 1.2-1.2.664 0 1.2.536 1.2 1.2z"/></svg>