<svg xmlns="http://www.w3.org/2000/svg" viewBox="0 0 64 64"><linearGradient id="a" gradientUnits="userSpaceOnUse" x1="32" y1="6.75" x2="32" y2="57.51" spreadMethod="reflect"><stop offset="0" stop-color="#1a6dff"/><stop offset="1" stop-color="#c822ff"/></linearGradient><path d="M52 57H12c-2.757 0-5-2.243-5-5V12c0-2.757 2.243-5 5-5h40c2.757 0 5 2.243 5 5v40c0 2.757-2.243 5-5 5zM12 9c-1.654 0-3 1.346-3 3v40c0 1.654 1.346 3 3 3h40c1.654 0 3-1.346 3-3V12c0-1.654-1.346-3-3-3H12z" fill="url(#a)"/><linearGradient id="b" gradientUnits="userSpaceOnUse" x1="32" y1="6.75" x2="32" y2="57.51" spreadMethod="reflect"><stop offset="0" stop-color="#1a6dff"/><stop offset="1" stop-color="#c822ff"/></linearGradient><path d="M48 51H16c-1.654 0-3-1.346-3-3V16c0-1.654 1.346-3 3-3h32c1.654 0 3 1.346 3 3v1.418L31.995 36.167l-7.872-7.872-2.828 2.824 9.99 9.791c.188.188.439.09.706.09h.003c.269 0 .52.097.708-.094L51 22.563V48c0 1.654-1.346 3-3 3zM16 15a1 1 0 0 0-1 1v32a1 1 0 0 0 1 1h32a1 1 0 0 0 1-1V27.438L34.125 42.312c-.566.573-1.32.688-2.125.688h-.009c-.801 0-1.554-.109-2.12-.676l-9.99-9.889c-.781-.78-.781-2 0-2.781l2.824-2.799a2.004 2.004 0 0 1 2.832.013l6.468 6.474L49 16.582V16a1 1 0 0 0-1-1H16z" fill="url(#b)"/><linearGradient id="c" gradientUnits="userSpaceOnUse" x1="22" y1="37.25" x2="22" y2="47.115" spreadMethod="reflect"><stop offset="0" stop-color="#6dc7ff"/><stop offset="1" stop-color="#e6abff"/></linearGradient><path d="M27 47h-9a1 1 0 0 1-1-1v-9l10 10z" fill="url(#c)"/></svg>