<svg xmlns="http://www.w3.org/2000/svg" viewBox="0 0 48 48"><path d="M44.7 11L36 19.602s-2.602 0-5.2-2.602c-2.6-2.602-2.6-5.2-2.6-5.2l8.698-8.698C32 1.898 26.102 3.5 22.5 7.102c-5.398 5.398-.602 12.296-2 13.699C12.898 28.699 5.102 34.699 4.898 35 2.602 37.3 2.5 41 4.7 43.2c2.2 2.198 5.903 2.1 8.2-.2.3-.3 6.703-8.398 14.203-15.898 1.398-1.403 8 3.699 13.597-1.801 3.5-3.602 5.2-9.403 4-14.301zM9.397 41.102a2.478 2.478 0 0 1-2.5-2.5C6.898 37.102 8 36 9.398 36c1.403 0 2.5 1.102 2.5 2.5s-1.097 2.602-2.5 2.602z" fill="#607d8b"/></svg>