<svg xmlns="http://www.w3.org/2000/svg" viewBox="0 0 64 64"><path d="M55 57H9a2 2 0 0 1-2-2V9a2 2 0 0 1 2-2h46a2 2 0 0 1 2 2v46a2 2 0 0 1-2 2z" fill="#f9e3ae"/><path d="M54 57H10a3 3 0 0 1-3-3V36c0-2.21 1.79-4 4-4h42c2.21 0 4 1.79 4 4v18a3 3 0 0 1-3 3z" fill="#f6d397"/><path d="M49 51H15a2 2 0 0 1-2-2V15a2 2 0 0 1 2-2h34a2 2 0 0 1 2 2v34a2 2 0 0 1-2 2z" fill="#c2cde7"/><path d="M58.5 5.5L32 32 22 22l-4 4 14 14L62.5 9.5z" fill="#72caaf"/><path d="M32 35.086a2.51 2.51 0 0 1-1.77-.73L19.937 24.061l2.122-2.12L32 31.878 58.438 5.437l2.12 2.122L33.77 34.355a2.51 2.51 0 0 1-1.77.73z" fill="#97e0bb"/><path d="M27 48a1 1 0 0 0-1 1v2a1 1 0 1 0 2 0v-2a1 1 0 0 0-1-1zm5 0a1 1 0 0 0-1 1v2a1 1 0 1 0 2 0v-2a1 1 0 0 0-1-1zm5 0a1 1 0 0 0-1 1v2a1 1 0 1 0 2 0v-2a1 1 0 0 0-1-1zm5 0a1 1 0 0 0-1 1v2a1 1 0 1 0 2 0v-2a1 1 0 0 0-1-1zm-20 0a1 1 0 0 0-1 1v2a1 1 0 1 0 2 0v-2a1 1 0 0 0-1-1z" fill="#8d6c9f"/><path d="M63.71 8.29l-4-4a1.01 1.01 0 0 0-1.42 0l-2 2.01c-.392-.19-.83-.3-1.29-.3H9a3.01 3.01 0 0 0-3 3v46c0 1.648 1.352 3 3 3h46c1.648 0 3-1.352 3-3V15.422l5.71-5.711a1.01 1.01 0 0 0 0-1.422zM56 55c0 .55-.45 1-1 1H9c-.55 0-1-.45-1-1V9c0-.55.45-1 1-1h45.578l-4.066 4.07c-.16-.05-.332-.07-.512-.07H14c-1.102 0-2 .898-2 2v36c0 1.102.898 2 2 2h3c.55 0 1-.45 1-1s-.45-1-1-1h-3V14h34.578L32 30.59l-9.29-9.3a1.01 1.01 0 0 0-1.42 0l-4 4a1.01 1.01 0 0 0 0 1.42l14 14c.198.188.448.29.71.29.262 0 .512-.102.71-.29L50 23.423V50h-3c-.55 0-1 .45-1 1s.45 1 1 1h3c1.102 0 2-.898 2-2V21.422l4-4zm2-42.41l-26 26L19.41 26 22 23.41l9.29 9.3c.39.392 1.03.392 1.42 0L50 15.41l9-9L61.59 9z" fill="#8d6c9f"/></svg>