<svg xmlns="http://www.w3.org/2000/svg" viewBox="0 0 64 64"><path d="M59 4a.998.998 0 0 0-.71.29l-2 2.01c-.392-.19-.83-.3-1.29-.3H9a3.01 3.01 0 0 0-3 3v46c0 1.648 1.352 3 3 3h46c1.648 0 3-1.352 3-3V15.422l5.71-5.711a1.01 1.01 0 0 0 0-1.422l-4-4A.998.998 0 0 0 59 4zm0 2.41L61.59 9 32 38.59 19.41 26 22 23.41l9.29 9.3c.39.392 1.03.392 1.42 0L50 15.41zM9 8h45.578l-4.066 4.07c-.16-.05-.332-.07-.512-.07H14c-1.102 0-2 .898-2 2v36c0 1.102.898 2 2 2h3c.55 0 1-.45 1-1s-.45-1-1-1h-3V14h34.578L32 30.59l-9.29-9.3a1.01 1.01 0 0 0-1.42 0l-4 4a1.01 1.01 0 0 0 0 1.42l14 14a1.015 1.015 0 0 0 1.42 0L50 23.423V50h-3c-.55 0-1 .45-1 1s.45 1 1 1h3c1.102 0 2-.898 2-2V21.422l4-4V55c0 .55-.45 1-1 1H9c-.55 0-1-.45-1-1V9c0-.55.45-1 1-1zm13 40a1 1 0 0 0-1 1v2a1 1 0 1 0 2 0v-2a1 1 0 0 0-1-1zm5 0a1 1 0 0 0-1 1v2a1 1 0 1 0 2 0v-2a1 1 0 0 0-1-1zm5 0a1 1 0 0 0-1 1v2a1 1 0 1 0 2 0v-2a1 1 0 0 0-1-1zm5 0a1 1 0 0 0-1 1v2a1 1 0 1 0 2 0v-2a1 1 0 0 0-1-1zm5 0a1 1 0 0 0-1 1v2a1 1 0 1 0 2 0v-2a1 1 0 0 0-1-1z"/></svg>