<svg xmlns="http://www.w3.org/2000/svg" viewBox="0 0 40 40"><path d="M13.987 38.5c-.353 0-.685-.138-.935-.387L1.887 26.947a1.325 1.325 0 0 1 0-1.87l14.602-14.602c.228-.227.535-.361.866-.378l.449-.023.023-.45c.018-.331.152-.638.379-.866l6.871-6.871c.25-.25.582-.387.935-.387h.001c.353 0 .685.138.935.387l11.166 11.166a1.325 1.325 0 0 1 0 1.87l-6.872 6.872a1.313 1.313 0 0 1-.865.378l-.448.024-.024.449a1.32 1.32 0 0 1-.38.866L14.923 38.113c-.25.249-.582.387-.936.387z" fill="#fff"/><path d="M26.012 2c.22 0 .426.086.581.241l11.166 11.166c.32.321.32.842 0 1.163l-6.871 6.871a.81.81 0 0 1-.538.233l-.9.047-.047.9a.808.808 0 0 1-.233.538l-14.601 14.6a.818.818 0 0 1-1.162 0L2.241 26.594a.823.823 0 0 1 0-1.163L16.842 10.83a.81.81 0 0 1 .538-.233l.9-.047.047-.9a.808.808 0 0 1 .233-.538l6.871-6.871A.814.814 0 0 1 26.012 2m0-1c-.466 0-.933.178-1.288.534l-6.871 6.871a1.805 1.805 0 0 0-.524 1.193 1.806 1.806 0 0 0-1.193.525L1.534 24.724a1.823 1.823 0 0 0 0 2.577L12.7 38.467c.355.355.821.533 1.288.533.466 0 .933-.178 1.288-.534l14.601-14.601c.331-.331.502-.759.525-1.193a1.806 1.806 0 0 0 1.193-.525l6.871-6.871a1.823 1.823 0 0 0 0-2.577L27.301 1.534A1.816 1.816 0 0 0 26.012 1z" fill="#788b9c"/><line x1="19.141" y1="11.411" x2="20.859" y2="13.129" fill="none" stroke="#788b9c" stroke-miterlimit="10"/><line x1="21.718" y1="13.988" x2="23.436" y2="15.706" fill="none" stroke="#788b9c" stroke-miterlimit="10"/><line x1="24.295" y1="16.564" x2="26.012" y2="18.282" fill="none" stroke="#788b9c" stroke-miterlimit="10"/><line x1="26.871" y1="19.141" x2="28.589" y2="20.859" fill="none" stroke="#788b9c" stroke-miterlimit="10"/><line x1="7.5" y1="25.5" x2="16.5" y2="16.5" fill="none" stroke="#788b9c" stroke-linecap="round" stroke-miterlimit="10"/><line x1="22.5" y1="10.5" x2="26.5" y2="6.5" fill="none" stroke="#788b9c" stroke-linecap="round" stroke-miterlimit="10"/><line x1="24.5" y1="12.5" x2="27.5" y2="9.5" fill="none" stroke="#788b9c" stroke-linecap="round" stroke-miterlimit="10"/><line x1="26.5" y1="14.5" x2="30.5" y2="10.5" fill="none" stroke="#788b9c" stroke-linecap="round" stroke-miterlimit="10"/><line x1="29.5" y1="17.5" x2="30.5" y2="16.5" fill="none" stroke="#788b9c" stroke-linecap="round" stroke-miterlimit="10"/><line x1="32.5" y1="14.5" x2="33.5" y2="13.5" fill="none" stroke="#788b9c" stroke-linecap="round" stroke-miterlimit="10"/><line x1="9.5" y1="27.5" x2="15.5" y2="21.5" fill="none" stroke="#788b9c" stroke-linecap="round" stroke-miterlimit="10"/><line x1="11.5" y1="29.5" x2="20.5" y2="20.5" fill="none" stroke="#788b9c" stroke-linecap="round" stroke-miterlimit="10"/><line x1="20.5" y1="26.5" x2="23.5" y2="23.5" fill="none" stroke="#788b9c" stroke-linecap="round" stroke-miterlimit="10"/><line x1="14.5" y1="32.5" x2="17.5" y2="29.5" fill="none" stroke="#788b9c" stroke-linecap="round" stroke-miterlimit="10"/></svg>