<svg xmlns="http://www.w3.org/2000/svg" viewBox="0 0 64 64"><path d="M30 2c-1 0-1.898.5-2.5 1.3l-3 4.7H13c-1.7 0-3 1.3-3 3v6c0 1.7 1.3 3 3 3h.098l3.5 33.5c.3 2.602 2.402 4.5 5 4.5h24.804c2.598 0 4.7-1.898 5-4.5l3.5-33.5H55c1.7 0 3-1.3 3-3v-6c0-1.7-1.3-3-3-3H43.5l-3.098-4.7c-.5-.8-1.5-1.3-2.5-1.3zm.098 2H38c.3 0 .602.2.8.398L41.099 8H26.902L29.2 4.398c.2-.199.5-.398.899-.398zM13 10h42c.602 0 1 .398 1 1v6c0 .602-.398 1-1 1H13c-.602 0-1-.398-1-1v-6c0-.602.398-1 1-1zm3 2c-.602 0-1 .398-1 1v2c0 .602.398 1 1 1s1-.398 1-1v-2c0-.602-.398-1-1-1zm5 0c-.602 0-1 .398-1 1v2c0 .602.398 1 1 1s1-.398 1-1v-2c0-.602-.398-1-1-1zm5 0c-.602 0-1 .398-1 1v2c0 .602.398 1 1 1s1-.398 1-1v-2c0-.602-.398-1-1-1zm5 0c-.602 0-1 .398-1 1v2c0 .602.398 1 1 1s1-.398 1-1v-2c0-.602-.398-1-1-1zm6 0c-.602 0-1 .398-1 1v2c0 .602.398 1 1 1s1-.398 1-1v-2c0-.602-.398-1-1-1zm5 0c-.602 0-1 .398-1 1v2c0 .602.398 1 1 1s1-.398 1-1v-2c0-.602-.398-1-1-1zm5 0c-.602 0-1 .398-1 1v2c0 .602.398 1 1 1s1-.398 1-1v-2c0-.602-.398-1-1-1zm5 0c-.602 0-1 .398-1 1v2c0 .602.398 1 1 1s1-.398 1-1v-2c0-.602-.398-1-1-1zm-36.902 8h37.804l-3.5 33.3c-.203 1.5-1.402 2.7-3 2.7H21.598c-1.5 0-2.797-1.2-3-2.7zM34 25c-.602 0-1 .398-1 1v20c0 .602.398 1 1 1s1-.398 1-1V26c0-.602-.398-1-1-1zm-9 .098c-.602 0-1 .5-.902 1l1 20c-.098.5.402.902.902.902a1 1 0 0 0 1-1l-1-20c0-.602-.5-1-1-.902zm18.098 0c-.598 0-1 .402-1 .902l-1 20c-.098.5.3 1 .902 1 .602 0 1-.402 1-.902l1-20c0-.598-.402-1-.902-1zM23 52c-.602 0-1 .398-1 1s.398 1 1 1h14c.602 0 1-.398 1-1s-.398-1-1-1zm18 0c-.602 0-1 .398-1 1s.398 1 1 1h4c.602 0 1-.398 1-1s-.398-1-1-1z"/></svg>