<svg xmlns="http://www.w3.org/2000/svg" viewBox="0 0 16 16"><path d="M8.355 2l-1.714.016A.652.652 0 0 0 6 2.66c0 1.215-.586 1.824-1.21 2.223a3.9 3.9 0 0 1-.884.398c-.12.04-.222.063-.289.078-.035.008-.066.012-.086.016a.056.056 0 0 0-.023.008h-.024c-.007.004-.058.02-.058.02l-.004.003h-.008A.64.64 0 0 0 3 6.008v1.351c0 .348.293.641.64.641H5v2.387c0 .199-.004 1.058.39 1.91.4.855 1.301 1.703 2.813 1.703 1.106 0 1.969-.207 2.563-.422.3-.11.53-.223.695-.312.082-.043.144-.082.195-.11.047-.031.035-.011.121-.086l.004-.008.004-.003a.649.649 0 0 0 .215-.48v-1.497a.662.662 0 0 0-.324-.559l-.004-.003-.008-.004a.649.649 0 0 0-.656.027l.05-.027c-.011.004-.75.484-1.433.484-.387 0-.457-.113-.535-.242a.605.605 0 0 1-.074-.195C9 10.502 9 10.405 9 10.5V8h1.355A.65.65 0 0 0 11 7.36v-1.7a.653.653 0 0 0-.645-.644L9 5.004V2.64A.649.649 0 0 0 8.36 2zM8 3.004v2.992l2 .02V7H8v3.5a.96.96 0 0 0 .04.285c.026.137.085.309.194.492.22.36.707.723 1.391.723.793 0 1.086-.262 1.375-.434v.813c-.008.004-.008.004-.016.012a4.197 4.197 0 0 1-.558.246c-.496.18-1.242.363-2.223.363-1.172 0-1.621-.516-1.906-1.125C6.016 11.27 6 10.57 6 10.387V7H4v-.71c.066-.017.121-.028.203-.056.305-.093.707-.25 1.117-.507.746-.47 1.446-1.391 1.582-2.711z"/></svg>