<svg id="Layer_1" xmlns="http://www.w3.org/2000/svg" viewBox="0 0 595.3 595.3"><style>.st0{fill:#f7941d}.st1{fill:#1b75bc}.st2{fill:#9e1f63}</style><path class="st0" d="M172 39.7h30.1v6H172v-6zm0 18.1h30.1v-6H172v6zm0-24.2h30.1v-6H172v6zm221.1 0h30.1v-6h-30.1v6zm0 12.1h30.1v-6h-30.1v6zm0 12.1h30.1v-6h-30.1v6zm0 497.8h30.1v-6h-30.1v6zm0 12h30.1v-6h-30.1v6zm0-24.1h30.1v-6h-30.1v6zm-221.1 0h30.1v-6H172v6zm0 24.1h30.1v-6H172v6zm0-12h30.1v-6H172v6zm365.5-353.5h6V172h-6v30.1zm24.2-30.1v30.1h6V172h-6zm-12.1 30.1h6V172h-6v30.1zm12.1 221.1h6v-30.1h-6v30.1zm-24.2 0h6v-30.1h-6v30.1zm12.1 0h6v-30.1h-6v30.1zm-522 0h6v-30.1h-6v30.1zm12.1 0h6v-30.1h-6v30.1zm12.1 0h6v-30.1h-6v30.1zM27.6 202.1h6V172h-6v30.1zm24.2 0h6V172h-6v30.1zm-12.1 0h6V172h-6v30.1z"/><path class="st1" d="M27.6 494.5h30.1v6H27.6v-6zm23.7-196.9c0 10.3 8.4 18.7 18.7 18.7v-6c-7 0-12.7-5.7-12.7-12.7S63 284.9 70 284.9v-6c-10.3 0-18.7 8.4-18.7 18.7zm-18.2 0c0-20.3 16.5-36.9 36.9-36.9v-6c-4.2 0-8.3.6-12.2 1.8v-46.9h-6v49.1c-2.1 1-4.1 2.2-6.1 3.5v-52.6h-6v57.6c-2.3 2.3-4.3 4.8-6.1 7.6v-65.2h-6v81c-.4 2.3-.6 4.6-.6 7 0 2.4.2 4.7.6 7v81h6v-65.2c1.7 2.8 3.8 5.3 6.1 7.6v57.6h6V333c1.9 1.3 3.9 2.5 6.1 3.5v49.1h6v-46.9c3.9 1.1 8 1.8 12.2 1.8v-6c-20.4 0-36.9-16.6-36.9-36.9zm6.1 0c0 17 13.8 30.8 30.8 30.8v-6c-13.7 0-24.8-11.1-24.8-24.8 0-13.7 11.1-24.8 24.8-24.8v-6c-17 0-30.8 13.8-30.8 30.8zm55.6 270h6v-30.1h-6v30.1zm-11.7 0h6v-30.1h-6v30.1zm0-509.8h6V27.6h-6v30.2zm460.8 239.8c0-10.3-8.4-18.7-18.7-18.7v6c7 0 12.7 5.7 12.7 12.7s-5.7 12.7-12.7 12.7v6c10.4 0 18.7-8.4 18.7-18.7zm23.8-202.9h-30.1v6h30.1v-6zM94.8 57.8h6V27.6h-6v30.2zm472.9 25.3h-30.1v6h30.1v-6zm-509.9 0H27.6v6h30.1v-6zm0 11.6H27.6v6h30.1v-6zM27.6 512.1h30.1v-6H27.6v6zm478.6 55.5h6v-30.1h-6v30.1zm31.3-55.5h30.1v-6h-30.1v6zm18.6-214.5c0-17-13.8-30.8-30.8-30.8v6c13.7 0 24.8 11.1 24.8 24.8s-11.1 24.8-24.8 24.8v6c16.9 0 30.8-13.8 30.8-30.8zM506.2 57.8h6V27.6h-6v30.2zm61.5 232.8v-81h-6v65.2c-1.7-2.8-3.8-5.3-6.1-7.6v-57.6h-6v52.6c-1.9-1.3-3.9-2.5-6.1-3.5v-49.1h-6v46.9c-3.9-1.1-8-1.8-12.2-1.8v6c20.3 0 36.9 16.5 36.9 36.9 0 20.3-16.5 36.9-36.9 36.9v6c4.2 0 8.3-.6 12.2-1.8v46.9h6v-49.1c2.1-1 4.1-2.2 6.1-3.5v52.6h6V328c2.3-2.3 4.3-4.8 6.1-7.6v65.2h6v-81c.4-2.3.6-4.6.6-7s-.3-4.7-.6-7zM494.5 57.8h6V27.6h-6v30.2zm43 442.7h30.1v-6h-30.1v6zM297.6 51.4c-10.3 0-18.7 8.4-18.7 18.7h6c0-7 5.7-12.7 12.7-12.7 7 0 12.7 5.7 12.7 12.7h6c0-10.4-8.4-18.7-18.7-18.7zm0 486.5c-7 0-12.7-5.7-12.7-12.7h-6c0 10.3 8.4 18.7 18.7 18.7 10.3 0 18.7-8.4 18.7-18.7h-6c0 7-5.7 12.7-12.7 12.7zM328.5 70c0-17-13.8-30.8-30.8-30.8S266.9 53 266.9 70h6c0-13.7 11.1-24.8 24.8-24.8 13.7 0 24.8 11.1 24.8 24.8h6zm12 455.3h-6c0 20.3-16.5 36.9-36.9 36.9-20.3 0-36.9-16.5-36.9-36.9h-6c0 4.2.6 8.3 1.8 12.2h-46.9v6h49.1c1 2.1 2.2 4.1 3.5 6.1h-52.6v6h57.6c2.3 2.3 4.8 4.3 7.6 6.1h-65.2v6h81c2.3.4 4.6.6 7 .6 2.4 0 4.7-.2 7-.6h81v-6h-65.2c2.8-1.7 5.3-3.8 7.6-6.1h57.6v-6H333c1.3-1.9 2.5-3.9 3.5-6.1h49.1v-6h-46.9c1.2-3.8 1.8-7.9 1.8-12.2zm154 42.3h6v-30.1h-6v30.1zm-196.9-11.5c17 0 30.8-13.8 30.8-30.8h-6c0 13.7-11.1 24.8-24.8 24.8-13.7 0-24.8-11.1-24.8-24.8h-6c0 16.9 13.8 30.8 30.8 30.8zm0-529c-2.4 0-4.7.2-7 .6h-81v6h65.2c-2.8 1.7-5.3 3.8-7.6 6.1h-57.6v6h52.6c-1.3 1.9-2.5 3.9-3.5 6.1h-49.1v6h46.9c-1.1 3.9-1.8 8-1.8 12.2h6c0-20.3 16.5-36.9 36.9-36.9 20.3 0 36.9 16.5 36.9 36.9h6c0-4.2-.6-8.3-1.8-12.2h46.9v-6h-49.1c-1-2.1-2.2-4.1-3.5-6.1h52.6v-6H328c-2.3-2.3-4.8-4.3-7.6-6.1h65.2v-6h-81c-2.3-.4-4.6-.6-7-.6z"/><path class="st2" d="M152.4 27.6h-6v30.1h18V27.6h-12zm6 24.2h-6V33.6h6v18.2zm-45.9-24.2h27.1v6h-27.1v6.1h27.1v6h-27.1v6.1h27.1v6h-33.1V27.6h6zm370.2 0h6v30.2h-33.1v-6h27.1v-6.1h-27.1v-6h27.1v-6.1h-27.1v-6h27.1zm-45.8 0h-6v30.1h18V27.6h-12zm6 24.2h-6V33.6h6v18.2zm0 485.7h-12v30.1h18v-30.1h-6zm0 24.1h-6v-18.1h6v18.1zm39.8-24.1h6v30.2h-33.1v-6h27.1v-6.1h-27.1v-6h27.1v-6.1h-27.1v-6h27.1zm-370.2 0h27.1v6h-27.1v6.1h27.1v6h-27.1v6.1h27.1v6h-33.1v-30.2h6zm45.9 0h-12v30.1h18v-30.1h-6zm0 24.1h-6v-18.1h6v18.1zm366.4-534s-.1 0 0 0h-6v30.2h6c7 0 12.7 5.7 12.7 12.7v6h30.2v-6c0-23.7-19.3-42.9-42.9-42.9zm18.7 42.9c0-10.3-8.4-18.7-18.7-18.7v-6.1c13.7 0 24.8 11.1 24.8 24.8h-6.1zm12.1 0c0-17-13.8-30.8-30.8-30.8v-6.1c20.3 0 36.9 16.5 36.9 36.9h-6.1zm-12.1 75.9h-6v18h30.1v-18h-24.1zm18.2 12h-18.1v-6h18.1v6zm0-51.9h6v33.1h-6v-27.1h-6.1v27.1h-6v-27.1h-6.1v27.1h-6v-33.1h24.2zm-24.2 418.2c0 2.2-.6 4.3-1.6 6.1-2.2 3.9-6.3 6.6-11.1 6.6h-6v30.2h6c15.5 0 29.2-8.3 36.7-20.7 3.9-6.5 6.2-14.1 6.2-22.2v-6h-30.2v6zm18.1 0h6.1c0 7-1.9 13.5-5.3 19.1-6.5 10.6-18.2 17.8-31.5 17.8v-6.1c11.2 0 21-6 26.4-14.9 2.7-4.6 4.3-10.1 4.3-15.9zm-14.4 8.9c1.5-2.7 2.3-5.7 2.3-8.9h6.1c0 4.7-1.3 9.1-3.6 12.8-4.4 7.2-12.2 12-21.2 12v-6.1c7 0 13.2-3.9 16.4-9.8zm2.3-102.8h-6v18h30.1v-18h-24.1zm18.2 12h-18.1v-6h18.1v6zm0 12.8h6v33.1h-30.2v-33.1h6v27.1h6.1v-27.1h6v27.1h6.1v-27.1zM70.5 537.4c-6.6 0-12-5-12.6-11.4 0-.4-.1-.9-.1-1.3v-6H27.6v6c0 2.2.2 4.4.5 6.5 3.1 20.6 21 36.4 42.4 36.4h6v-30.2h-6zm0 24.2c-18.4 0-33.7-13.6-36.5-31.3-.3-1.8-.4-3.7-.4-5.6h6.1c0 1.6.1 3.2.4 4.7 2.2 14.8 15.1 26.2 30.5 26.2v6zm0-12c-12.4 0-22.7-9.2-24.5-21.1-.2-1.2-.3-2.5-.3-3.7h6.1c0 .7 0 1.3.1 2 1 9.4 8.9 16.8 18.6 16.8v6zM51.8 448.8h6v-18H27.6v18h24.2zm-18.2-12h18.1v6H33.6v-6zm0 51.9h-6v-33.1h6v27.1h6.1v-27.1h6v27.1h6.1v-27.1h6v33.1H33.6zM70.5 27.6c-23.6 0-42.9 19.2-42.9 42.9v6h30.2v-6c0-7 5.7-12.7 12.7-12.7h6V27.6h-6zm0 24.2c-10.3 0-18.7 8.4-18.7 18.7h-6.1c0-13.7 11.1-24.8 24.8-24.8v6.1zm0-12.1c-17 0-30.8 13.8-30.8 30.8h-6.1c0-20.3 16.6-36.9 36.9-36.9v6.1zm-36.9 99.9h-6v-33.1h30.2v33.1h-6v-27.1h-6.1v27.1h-6v-27.1h-6.1v27.1zm18.2 24.8h6v-18H27.6v18h24.2zm-18.2-12h18.1v6H33.6v-6z"/></svg>