<svg id="Layer_1" xmlns="http://www.w3.org/2000/svg" viewBox="0 0 595.3 595.3"><style>.st0{fill:#f58020}.st1{fill:#a3bf3e}.st2{fill:#f27999}</style><path class="st0" d="M562.8 58.3c-2.1 0-3.8-1.7-3.8-3.8 0-1.8 1.3-3.4 3-3.7h1.6c1.7.4 3.1 1.9 3.1 3.7-.1 2.1-1.8 3.8-3.9 3.8zm-22.1 500.6c-2.1 0-3.8 1.7-3.8 3.8 0 2.1 1.7 3.8 3.8 3.8 2.1 0 3.8-1.7 3.8-3.8 0-2.1-1.7-3.8-3.8-3.8zM559 98.7c0 2.1 1.7 3.8 3.8 3.8 2.1 0 3.8-1.7 3.8-3.8 0-2.1-1.7-3.8-3.8-3.8-2.1 0-3.8 1.7-3.8 3.8zm0 44.2c0 2.1 1.7 3.8 3.8 3.8 2.1 0 3.8-1.7 3.8-3.8 0-2.1-1.7-3.8-3.8-3.8-2.1 0-3.8 1.7-3.8 3.8zm0 44.2c0 2.1 1.7 3.8 3.8 3.8 2.1 0 3.8-1.7 3.8-3.8 0-2.1-1.7-3.8-3.8-3.8-2.1 0-3.8 1.7-3.8 3.8zm0 44.2c0 2.1 1.7 3.8 3.8 3.8 2.1 0 3.8-1.7 3.8-3.8 0-2.1-1.7-3.8-3.8-3.8-2.1 0-3.8 1.7-3.8 3.8zm0 44.2c0 2.1 1.7 3.8 3.8 3.8 2.1 0 3.8-1.7 3.8-3.8 0-2.1-1.7-3.8-3.8-3.8-2.1 0-3.8 1.7-3.8 3.8zm0 44.2c0 2.1 1.7 3.8 3.8 3.8 2.1 0 3.8-1.7 3.8-3.8 0-2.1-1.7-3.8-3.8-3.8-2.1 0-3.8 1.7-3.8 3.8zm0 44.2c0 2.1 1.7 3.8 3.8 3.8 2.1 0 3.8-1.7 3.8-3.8 0-2.1-1.7-3.8-3.8-3.8-2.1 0-3.8 1.7-3.8 3.8zm0 44.2c0 2.1 1.7 3.8 3.8 3.8 2.1 0 3.8-1.7 3.8-3.8 0-2.1-1.7-3.8-3.8-3.8-2.1 0-3.8 1.7-3.8 3.8zm0 44.2c0 2.1 1.7 3.8 3.8 3.8 2.1 0 3.8-1.7 3.8-3.8 0-2.1-1.7-3.8-3.8-3.8-2.1 0-3.8 1.7-3.8 3.8zm0 44.2c0 2.1 1.7 3.8 3.8 3.8 2.1 0 3.8-1.7 3.8-3.8s-1.7-3.8-3.8-3.8c-2.1 0-3.8 1.7-3.8 3.8zm0 44.2c0 2.1 1.7 3.8 3.8 3.8 2.1 0 3.8-1.7 3.8-3.8 0-2.1-1.7-3.8-3.8-3.8-2.1 0-3.8 1.7-3.8 3.8zM98.8 28.7c-2.1 0-3.8 1.7-3.8 3.8 0 2.1 1.7 3.8 3.8 3.8 2.1 0 3.8-1.7 3.8-3.8 0-2.1-1.7-3.8-3.8-3.8zm44.2 0c-2.1 0-3.8 1.7-3.8 3.8 0 2.1 1.7 3.8 3.8 3.8 2.1 0 3.8-1.7 3.8-3.8 0-2.1-1.7-3.8-3.8-3.8zm44.2 0c-2.1 0-3.8 1.7-3.8 3.8 0 2.1 1.7 3.8 3.8 3.8 2.1 0 3.8-1.7 3.8-3.8 0-2.1-1.7-3.8-3.8-3.8zm44.1 0c-2.1 0-3.8 1.7-3.8 3.8 0 2.1 1.7 3.8 3.8 3.8 2.1 0 3.8-1.7 3.8-3.8.1-2.1-1.7-3.8-3.8-3.8zm44.2 0c-2.1 0-3.8 1.7-3.8 3.8 0 2.1 1.7 3.8 3.8 3.8 2.1 0 3.8-1.7 3.8-3.8.1-2.1-1.7-3.8-3.8-3.8zm44.2 0c-2.1 0-3.8 1.7-3.8 3.8 0 2.1 1.7 3.8 3.8 3.8 2.1 0 3.8-1.7 3.8-3.8 0-2.1-1.7-3.8-3.8-3.8zm44.2 0c-2.1 0-3.8 1.7-3.8 3.8 0 2.1 1.7 3.8 3.8 3.8 2.1 0 3.8-1.7 3.8-3.8 0-2.1-1.7-3.8-3.8-3.8zm44.2 0c-2.1 0-3.8 1.7-3.8 3.8 0 2.1 1.7 3.8 3.8 3.8 2.1 0 3.8-1.7 3.8-3.8 0-2.1-1.7-3.8-3.8-3.8zm44.2 0c-2.1 0-3.8 1.7-3.8 3.8 0 2.1 1.7 3.8 3.8 3.8 2.1 0 3.8-1.7 3.8-3.8 0-2.1-1.7-3.8-3.8-3.8zm44.2 0c-2.1 0-3.8 1.7-3.8 3.8 0 2.1 1.7 3.8 3.8 3.8 2.1 0 3.8-1.7 3.8-3.8 0-2.1-1.7-3.8-3.8-3.8zm44.2 0c-2.1 0-3.8 1.7-3.8 3.8 0 2.1 1.7 3.8 3.8 3.8 2.1 0 3.8-1.7 3.8-3.8 0-2.1-1.7-3.8-3.8-3.8zM54.6 36.3c2.1 0 3.8-1.7 3.8-3.8 0-2.1-1.7-3.8-3.8-3.8-2.1 0-3.8 1.7-3.8 3.8 0 2.1 1.7 3.8 3.8 3.8zM36.3 54.6c0-2-1.5-3.6-3.4-3.8h-.8c-1.9.2-3.4 1.8-3.4 3.8 0 2.1 1.7 3.8 3.8 3.8 2.1 0 3.8-1.7 3.8-3.8zm-3.5-3.8H32h.8zm3.5 48c0-2.1-1.7-3.8-3.8-3.8-2.1 0-3.8 1.7-3.8 3.8 0 2.1 1.7 3.8 3.8 3.8 2.1 0 3.8-1.7 3.8-3.8zm0 44.2c0-2.1-1.7-3.8-3.8-3.8-2.1 0-3.8 1.7-3.8 3.8 0 2.1 1.7 3.8 3.8 3.8 2.1 0 3.8-1.7 3.8-3.8zm0 44.2c0-2.1-1.7-3.8-3.8-3.8-2.1 0-3.8 1.7-3.8 3.8 0 2.1 1.7 3.8 3.8 3.8 2.1 0 3.8-1.7 3.8-3.8zm0 44.1c0-2.1-1.7-3.8-3.8-3.8-2.1 0-3.8 1.7-3.8 3.8 0 2.1 1.7 3.8 3.8 3.8 2.1.1 3.8-1.7 3.8-3.8zm0 44.2c0-2.1-1.7-3.8-3.8-3.8-2.1 0-3.8 1.7-3.8 3.8 0 2.1 1.7 3.8 3.8 3.8 2.1 0 3.8-1.7 3.8-3.8zm0 44.2c0-2.1-1.7-3.8-3.8-3.8-2.1 0-3.8 1.7-3.8 3.8 0 2.1 1.7 3.8 3.8 3.8 2.1 0 3.8-1.7 3.8-3.8zm0 44.2c0-2.1-1.7-3.8-3.8-3.8-2.1 0-3.8 1.7-3.8 3.8s1.7 3.8 3.8 3.8c2.1 0 3.8-1.7 3.8-3.8zm0 44.2c0-2.1-1.7-3.8-3.8-3.8-2.1 0-3.8 1.7-3.8 3.8s1.7 3.8 3.8 3.8c2.1 0 3.8-1.7 3.8-3.8zm0 44.2c0-2.1-1.7-3.8-3.8-3.8-2.1 0-3.8 1.7-3.8 3.8s1.7 3.8 3.8 3.8c2.1 0 3.8-1.7 3.8-3.8zm0 44.2c0-2.1-1.7-3.8-3.8-3.8-2.1 0-3.8 1.7-3.8 3.8 0 2.1 1.7 3.8 3.8 3.8 2.1 0 3.8-1.7 3.8-3.8zm-3.5 48c1.9-.2 3.4-1.8 3.4-3.8 0-2.1-1.7-3.8-3.8-3.8-2.1 0-3.8 1.7-3.8 3.8 0 2 1.5 3.6 3.4 3.8h.8zm463.7 14.4c-2.1 0-3.8 1.7-3.8 3.8 0 2.1 1.7 3.8 3.8 3.8 2.1 0 3.8-1.7 3.8-3.8 0-2-1.7-3.8-3.8-3.8zm-44.2 0c-2.1 0-3.8 1.7-3.8 3.8 0 2.1 1.7 3.8 3.8 3.8 2.1 0 3.8-1.7 3.8-3.8 0-2-1.7-3.8-3.8-3.8zm-44.2 0c-2.1 0-3.8 1.7-3.8 3.8 0 2.1 1.7 3.8 3.8 3.8 2.1 0 3.8-1.7 3.8-3.8 0-2-1.7-3.8-3.8-3.8zm-44.2 0c-2.1 0-3.8 1.7-3.8 3.8 0 2.1 1.7 3.8 3.8 3.8 2.1 0 3.8-1.7 3.8-3.8 0-2-1.7-3.8-3.8-3.8zm-44.2 0c-2.1 0-3.8 1.7-3.8 3.8 0 2.1 1.7 3.8 3.8 3.8 2.1 0 3.8-1.7 3.8-3.8 0-2-1.7-3.8-3.8-3.8zm-44.2 0c-2.1 0-3.8 1.7-3.8 3.8 0 2.1 1.7 3.8 3.8 3.8 2.1 0 3.8-1.7 3.8-3.8 0-2-1.7-3.8-3.8-3.8zm-44.2 0c-2.1 0-3.8 1.7-3.8 3.8 0 2.1 1.7 3.8 3.8 3.8 2.1 0 3.8-1.7 3.8-3.8.1-2-1.7-3.8-3.8-3.8zm-44.1 0c-2.1 0-3.8 1.7-3.8 3.8 0 2.1 1.7 3.8 3.8 3.8 2.1 0 3.8-1.7 3.8-3.8 0-2-1.7-3.8-3.8-3.8zm-44.2 0c-2.1 0-3.8 1.7-3.8 3.8 0 2.1 1.7 3.8 3.8 3.8 2.1 0 3.8-1.7 3.8-3.8 0-2-1.7-3.8-3.8-3.8zm-44.2 0c-2.1 0-3.8 1.7-3.8 3.8 0 2.1 1.7 3.8 3.8 3.8 2.1 0 3.8-1.7 3.8-3.8 0-2-1.7-3.8-3.8-3.8zm-44.2 0c-2.1 0-3.8 1.7-3.8 3.8 0 2.1 1.7 3.8 3.8 3.8 2.1 0 3.8-1.7 3.8-3.8 0-2-1.7-3.8-3.8-3.8z"/><path class="st1" d="M581.1 76.6c0-10.1-8.2-18.3-18.3-18.3-10.1 0-18.3 8.2-18.3 18.3s8.2 18.3 18.3 18.3c10.1 0 18.3-8.2 18.3-18.3zm-18.3 12.6c-6.9 0-12.6-5.6-12.6-12.6 0-6.9 5.6-12.6 12.6-12.6 6.9 0 12.6 5.6 12.6 12.6s-5.6 12.6-12.6 12.6zm-18.3 31.6c0 10.1 8.2 18.3 18.3 18.3 10.1 0 18.3-8.2 18.3-18.3s-8.2-18.3-18.3-18.3c-10.1 0-18.3 8.2-18.3 18.3zm18.3-12.6c6.9 0 12.6 5.6 12.6 12.6 0 6.9-5.6 12.6-12.6 12.6-6.9 0-12.6-5.6-12.6-12.6 0-6.9 5.7-12.6 12.6-12.6zM544.5 165c0 10.1 8.2 18.3 18.3 18.3 10.1 0 18.3-8.2 18.3-18.3s-8.2-18.3-18.3-18.3c-10.1 0-18.3 8.2-18.3 18.3zm18.3-12.6c6.9 0 12.6 5.6 12.6 12.6 0 6.9-5.6 12.6-12.6 12.6-6.9 0-12.6-5.6-12.6-12.6s5.7-12.6 12.6-12.6zm-18.3 56.8c0 10.1 8.2 18.3 18.3 18.3 10.1 0 18.3-8.2 18.3-18.3 0-10.1-8.2-18.3-18.3-18.3-10.1 0-18.3 8.2-18.3 18.3zm18.3-12.6c6.9 0 12.6 5.6 12.6 12.6 0 6.9-5.6 12.6-12.6 12.6-6.9 0-12.6-5.6-12.6-12.6s5.7-12.6 12.6-12.6zm-18.3 56.8c0 10.1 8.2 18.3 18.3 18.3 10.1 0 18.3-8.2 18.3-18.3 0-10.1-8.2-18.3-18.3-18.3-10.1 0-18.3 8.2-18.3 18.3zm18.3-12.6c6.9 0 12.6 5.6 12.6 12.6 0 6.9-5.6 12.6-12.6 12.6-6.9 0-12.6-5.6-12.6-12.6s5.7-12.6 12.6-12.6zm-18.3 56.8c0 10.1 8.2 18.3 18.3 18.3 10.1 0 18.3-8.2 18.3-18.3 0-10.1-8.2-18.3-18.3-18.3-10.1 0-18.3 8.2-18.3 18.3zm18.3-12.6c6.9 0 12.6 5.6 12.6 12.6 0 6.9-5.6 12.6-12.6 12.6-6.9 0-12.6-5.6-12.6-12.6s5.7-12.6 12.6-12.6zm-18.3 56.8c0 10.1 8.2 18.3 18.3 18.3 10.1 0 18.3-8.2 18.3-18.3 0-10.1-8.2-18.3-18.3-18.3-10.1 0-18.3 8.2-18.3 18.3zm18.3-12.6c6.9 0 12.6 5.6 12.6 12.6 0 6.9-5.6 12.6-12.6 12.6-6.9 0-12.6-5.6-12.6-12.6s5.7-12.6 12.6-12.6zM544.5 386c0 10.1 8.2 18.3 18.3 18.3 10.1 0 18.3-8.2 18.3-18.3 0-10.1-8.2-18.3-18.3-18.3-10.1 0-18.3 8.2-18.3 18.3zm18.3-12.6c6.9 0 12.6 5.6 12.6 12.6 0 6.9-5.6 12.6-12.6 12.6-6.9 0-12.6-5.6-12.6-12.6s5.7-12.6 12.6-12.6zm-18.3 56.8c0 10.1 8.2 18.3 18.3 18.3 10.1 0 18.3-8.2 18.3-18.3 0-10.1-8.2-18.3-18.3-18.3-10.1 0-18.3 8.2-18.3 18.3zm18.3-12.6c6.9 0 12.6 5.6 12.6 12.6 0 6.9-5.6 12.6-12.6 12.6-6.9 0-12.6-5.6-12.6-12.6s5.7-12.6 12.6-12.6zm-18.3 56.8c0 10.1 8.2 18.3 18.3 18.3 10.1 0 18.3-8.2 18.3-18.3 0-10.1-8.2-18.3-18.3-18.3-10.1 0-18.3 8.2-18.3 18.3zm18.3-12.6c6.9 0 12.6 5.6 12.6 12.6 0 6.9-5.6 12.6-12.6 12.6-6.9 0-12.6-5.6-12.6-12.6s5.7-12.6 12.6-12.6zm-18.3 56.8c0 10.1 8.2 18.3 18.3 18.3 10.1 0 18.3-8.2 18.3-18.3 0-10.1-8.2-18.3-18.3-18.3-10.1 0-18.3 8.2-18.3 18.3zm18.3-12.6c6.9 0 12.6 5.6 12.6 12.6 0 6.9-5.6 12.6-12.6 12.6-6.9 0-12.6-5.6-12.6-12.6s5.7-12.6 12.6-12.6zm-18.3 56.8c0 10.1 8.2 18.3 18.3 18.3 10.1 0 18.3-8.2 18.3-18.3 0-10.1-8.2-18.3-18.3-18.3-10.1 0-18.3 8.2-18.3 18.3zm18.3-12.6c6.9 0 12.6 5.6 12.6 12.6 0 6.9-5.6 12.6-12.6 12.6-6.9 0-12.6-5.6-12.6-12.6s5.7-12.6 12.6-12.6zM76.7 14.2c-10.1 0-18.3 8.2-18.3 18.3 0 10.1 8.2 18.3 18.3 18.3 10.1 0 18.3-8.2 18.3-18.3 0-10.1-8.2-18.3-18.3-18.3zm0 30.9c-6.9 0-12.6-5.6-12.6-12.6 0-6.9 5.6-12.6 12.6-12.6 6.9 0 12.6 5.6 12.6 12.6-.1 7-5.7 12.6-12.6 12.6zm44.2-30.9c-10.1 0-18.3 8.2-18.3 18.3 0 10.1 8.2 18.3 18.3 18.3 10.1 0 18.3-8.2 18.3-18.3-.1-10.1-8.2-18.3-18.3-18.3zm0 30.9c-6.9 0-12.6-5.6-12.6-12.6 0-6.9 5.6-12.6 12.6-12.6 6.9 0 12.6 5.6 12.6 12.6-.1 7-5.7 12.6-12.6 12.6zm44.2-30.9c-10.1 0-18.3 8.2-18.3 18.3 0 10.1 8.2 18.3 18.3 18.3 10.1 0 18.3-8.2 18.3-18.3-.1-10.1-8.2-18.3-18.3-18.3zm0 30.9c-6.9 0-12.6-5.6-12.6-12.6 0-6.9 5.6-12.6 12.6-12.6 6.9 0 12.6 5.6 12.6 12.6-.1 7-5.7 12.6-12.6 12.6zm44.1-30.9c-10.1 0-18.3 8.2-18.3 18.3 0 10.1 8.2 18.3 18.3 18.3 10.1 0 18.3-8.2 18.3-18.3 0-10.1-8.2-18.3-18.3-18.3zm0 30.9c-6.9 0-12.6-5.6-12.6-12.6 0-6.9 5.6-12.6 12.6-12.6 6.9 0 12.6 5.6 12.6 12.6s-5.6 12.6-12.6 12.6zm44.2-30.9c-10.1 0-18.3 8.2-18.3 18.3 0 10.1 8.2 18.3 18.3 18.3 10.1 0 18.3-8.2 18.3-18.3 0-10.1-8.2-18.3-18.3-18.3zm0 30.9c-6.9 0-12.6-5.6-12.6-12.6 0-6.9 5.6-12.6 12.6-12.6 6.9 0 12.6 5.6 12.6 12.6s-5.6 12.6-12.6 12.6zm44.2-30.9c-10.1 0-18.3 8.2-18.3 18.3 0 10.1 8.2 18.3 18.3 18.3 10.1 0 18.3-8.2 18.3-18.3 0-10.1-8.2-18.3-18.3-18.3zm0 30.9c-6.9 0-12.6-5.6-12.6-12.6 0-6.9 5.6-12.6 12.6-12.6 6.9 0 12.6 5.6 12.6 12.6s-5.6 12.6-12.6 12.6zm44.2-30.9c-10.1 0-18.3 8.2-18.3 18.3 0 10.1 8.2 18.3 18.3 18.3s18.3-8.2 18.3-18.3c0-10.1-8.2-18.3-18.3-18.3zm0 30.9c-6.9 0-12.6-5.6-12.6-12.6 0-6.9 5.6-12.6 12.6-12.6 6.9 0 12.6 5.6 12.6 12.6s-5.6 12.6-12.6 12.6zM386 14.2c-10.1 0-18.3 8.2-18.3 18.3 0 10.1 8.2 18.3 18.3 18.3 10.1 0 18.3-8.2 18.3-18.3 0-10.1-8.2-18.3-18.3-18.3zm0 30.9c-6.9 0-12.6-5.6-12.6-12.6 0-6.9 5.6-12.6 12.6-12.6 6.9 0 12.6 5.6 12.6 12.6S393 45.1 386 45.1zm44.2-30.9c-10.1 0-18.3 8.2-18.3 18.3 0 10.1 8.2 18.3 18.3 18.3 10.1 0 18.3-8.2 18.3-18.3 0-10.1-8.2-18.3-18.3-18.3zm0 30.9c-6.9 0-12.6-5.6-12.6-12.6 0-6.9 5.6-12.6 12.6-12.6 6.9 0 12.6 5.6 12.6 12.6s-5.6 12.6-12.6 12.6zm44.2-30.9c-10.1 0-18.3 8.2-18.3 18.3 0 10.1 8.2 18.3 18.3 18.3 10.1 0 18.3-8.2 18.3-18.3 0-10.1-8.2-18.3-18.3-18.3zm0 30.9c-6.9 0-12.6-5.6-12.6-12.6 0-6.9 5.6-12.6 12.6-12.6 6.9 0 12.6 5.6 12.6 12.6s-5.6 12.6-12.6 12.6zm44.2-30.9c-10.1 0-18.3 8.2-18.3 18.3 0 10.1 8.2 18.3 18.3 18.3 10.1 0 18.3-8.2 18.3-18.3 0-10.1-8.2-18.3-18.3-18.3zm0 30.9c-6.9 0-12.6-5.6-12.6-12.6 0-6.9 5.6-12.6 12.6-12.6 6.9 0 12.6 5.6 12.6 12.6s-5.6 12.6-12.6 12.6zm45 5.7c9.7-.4 17.5-8.4 17.5-18.3 0-10.1-8.2-18.3-18.3-18.3-10.1 0-18.3 8.2-18.3 18.3 0 9.8 7.8 17.9 17.5 18.3.2 0 .5-.1.8-.1.3 0 .5 0 .8.1zm-13.4-18.3c0-6.9 5.6-12.6 12.6-12.6s12.6 5.6 12.6 12.6c0 6.9-5.6 12.6-12.6 12.6s-12.6-5.6-12.6-12.6zm12.6 18.3h-.8c.2 0 .5-.1.8-.1.3 0 .5 0 .8.1h-.8zm-530 0c9.9-.2 17.9-8.3 17.9-18.3 0-10.1-8.2-18.3-18.3-18.3-10.1 0-18.3 8.2-18.3 18.3 0 10 8 18.1 17.9 18.3h.8zM19.9 32.5c0-6.9 5.6-12.6 12.6-12.6S45 25.6 45 32.5c0 6.9-5.6 12.6-12.6 12.6s-12.5-5.6-12.5-12.6zm30.9 44.2c0-10.1-8.2-18.3-18.3-18.3-10.1 0-18.3 8.2-18.3 18.3 0 10.1 8.2 18.3 18.3 18.3 10.1 0 18.3-8.2 18.3-18.3zM32.5 89.2c-6.9 0-12.6-5.6-12.6-12.6 0-6.9 5.6-12.6 12.6-12.6S45 69.7 45 76.7c0 6.9-5.6 12.5-12.5 12.5zm18.3 31.7c0-10.1-8.2-18.3-18.3-18.3-10.1 0-18.3 8.2-18.3 18.3 0 10.1 8.2 18.3 18.3 18.3 10.1-.1 18.3-8.2 18.3-18.3zm-18.3 12.5c-6.9 0-12.6-5.6-12.6-12.6 0-6.9 5.6-12.6 12.6-12.6S45 113.9 45 120.9c0 6.9-5.6 12.5-12.5 12.5zm18.3 31.7c0-10.1-8.2-18.3-18.3-18.3-10.1 0-18.3 8.2-18.3 18.3 0 10.1 8.2 18.3 18.3 18.3 10.1-.1 18.3-8.2 18.3-18.3zm-18.3 12.5c-6.9 0-12.6-5.6-12.6-12.6s5.6-12.6 12.6-12.6S45 158.1 45 165.1s-5.6 12.5-12.5 12.5zm18.3 31.6c0-10.1-8.2-18.3-18.3-18.3-10.1 0-18.3 8.2-18.3 18.3 0 10.1 8.2 18.3 18.3 18.3 10.1 0 18.3-8.2 18.3-18.3zm-18.3 12.6c-6.9 0-12.6-5.6-12.6-12.6s5.6-12.6 12.6-12.6S45 202.3 45 209.2s-5.6 12.6-12.5 12.6zm18.3 31.6c0-10.1-8.2-18.3-18.3-18.3-10.1 0-18.3 8.2-18.3 18.3 0 10.1 8.2 18.3 18.3 18.3 10.1 0 18.3-8.2 18.3-18.3zM32.5 266c-6.9 0-12.6-5.6-12.6-12.6 0-6.9 5.6-12.6 12.6-12.6S45 246.5 45 253.4c0 7-5.6 12.6-12.5 12.6zm18.3 31.6c0-10.1-8.2-18.3-18.3-18.3-10.1 0-18.3 8.2-18.3 18.3 0 10.1 8.2 18.3 18.3 18.3 10.1 0 18.3-8.2 18.3-18.3zm-18.3 12.6c-6.9 0-12.6-5.6-12.6-12.6 0-6.9 5.6-12.6 12.6-12.6S45 290.7 45 297.6c0 7-5.6 12.6-12.5 12.6zm18.3 31.6c0-10.1-8.2-18.3-18.3-18.3-10.1 0-18.3 8.2-18.3 18.3 0 10.1 8.2 18.3 18.3 18.3 10.1 0 18.3-8.2 18.3-18.3zm-18.3 12.6c-6.9 0-12.6-5.6-12.6-12.6s5.6-12.6 12.6-12.6S45 334.9 45 341.8s-5.6 12.6-12.5 12.6zM50.8 386c0-10.1-8.2-18.3-18.3-18.3-10.1 0-18.3 8.2-18.3 18.3 0 10.1 8.2 18.3 18.3 18.3 10.1 0 18.3-8.2 18.3-18.3zm-18.3 12.6c-6.9 0-12.6-5.6-12.6-12.6 0-6.9 5.6-12.6 12.6-12.6S45 379.1 45 386c0 7-5.6 12.6-12.5 12.6zm18.3 31.6c0-10.1-8.2-18.3-18.3-18.3-10.1 0-18.3 8.2-18.3 18.3 0 10.1 8.2 18.3 18.3 18.3 10.1 0 18.3-8.2 18.3-18.3zm-18.3 12.6c-6.9 0-12.6-5.6-12.6-12.6 0-6.9 5.6-12.6 12.6-12.6S45 423.3 45 430.2c0 7-5.6 12.6-12.5 12.6zm18.3 31.6c0-10.1-8.2-18.3-18.3-18.3-10.1 0-18.3 8.2-18.3 18.3 0 10.1 8.2 18.3 18.3 18.3 10.1 0 18.3-8.2 18.3-18.3zM32.5 487c-6.9 0-12.6-5.6-12.6-12.6 0-6.9 5.6-12.6 12.6-12.6S45 467.5 45 474.4c0 7-5.6 12.6-12.5 12.6zm18.3 31.6c0-10.1-8.2-18.3-18.3-18.3-10.1 0-18.3 8.2-18.3 18.3 0 10.1 8.2 18.3 18.3 18.3 10.1 0 18.3-8.2 18.3-18.3zm-18.3 12.6c-6.9 0-12.6-5.6-12.6-12.6 0-6.9 5.6-12.6 12.6-12.6S45 511.7 45 518.6c0 7-5.6 12.6-12.5 12.6zm486.1 13.3c-10.1 0-18.3 8.2-18.3 18.3 0 10.1 8.2 18.3 18.3 18.3 10.1 0 18.3-8.2 18.3-18.3 0-10.1-8.2-18.3-18.3-18.3zm0 30.8c-6.9 0-12.6-5.6-12.6-12.6 0-6.9 5.6-12.6 12.6-12.6s12.6 5.6 12.6 12.6-5.6 12.6-12.6 12.6zm-44.2-30.8c-10.1 0-18.3 8.2-18.3 18.3 0 10.1 8.2 18.3 18.3 18.3 10.1 0 18.3-8.2 18.3-18.3 0-10.1-8.2-18.3-18.3-18.3zm0 30.8c-6.9 0-12.6-5.6-12.6-12.6 0-6.9 5.6-12.6 12.6-12.6 6.9 0 12.6 5.6 12.6 12.6s-5.6 12.6-12.6 12.6zm-44.2-30.8c-10.1 0-18.3 8.2-18.3 18.3 0 10.1 8.2 18.3 18.3 18.3 10.1 0 18.3-8.2 18.3-18.3 0-10.1-8.2-18.3-18.3-18.3zm0 30.8c-6.9 0-12.6-5.6-12.6-12.6 0-6.9 5.6-12.6 12.6-12.6s12.6 5.6 12.6 12.6-5.6 12.6-12.6 12.6zM386 544.5c-10.1 0-18.3 8.2-18.3 18.3 0 10.1 8.2 18.3 18.3 18.3 10.1 0 18.3-8.2 18.3-18.3 0-10.1-8.2-18.3-18.3-18.3zm0 30.8c-6.9 0-12.6-5.6-12.6-12.6 0-6.9 5.6-12.6 12.6-12.6 6.9 0 12.6 5.6 12.6 12.6s-5.6 12.6-12.6 12.6zm-44.2-30.8c-10.1 0-18.3 8.2-18.3 18.3 0 10.1 8.2 18.3 18.3 18.3 10.1 0 18.3-8.2 18.3-18.3 0-10.1-8.2-18.3-18.3-18.3zm0 30.8c-6.9 0-12.6-5.6-12.6-12.6 0-6.9 5.6-12.6 12.6-12.6s12.6 5.6 12.6 12.6-5.6 12.6-12.6 12.6zm-44.2-30.8c-10.1 0-18.3 8.2-18.3 18.3 0 10.1 8.2 18.3 18.3 18.3 10.1 0 18.3-8.2 18.3-18.3 0-10.1-8.2-18.3-18.3-18.3zm0 30.8c-6.9 0-12.6-5.6-12.6-12.6 0-6.9 5.6-12.6 12.6-12.6 6.9 0 12.6 5.6 12.6 12.6s-5.6 12.6-12.6 12.6zm-44.2-30.8c-10.1 0-18.3 8.2-18.3 18.3 0 10.1 8.2 18.3 18.3 18.3 10.1 0 18.3-8.2 18.3-18.3 0-10.1-8.2-18.3-18.3-18.3zm0 30.8c-6.9 0-12.6-5.6-12.6-12.6 0-6.9 5.6-12.6 12.6-12.6 6.9 0 12.6 5.6 12.6 12.6s-5.6 12.6-12.6 12.6zm-44.2-30.8c-10.1 0-18.3 8.2-18.3 18.3 0 10.1 8.2 18.3 18.3 18.3 10.1 0 18.3-8.2 18.3-18.3 0-10.1-8.2-18.3-18.3-18.3zm0 30.8c-6.9 0-12.6-5.6-12.6-12.6 0-6.9 5.6-12.6 12.6-12.6s12.6 5.6 12.6 12.6-5.6 12.6-12.6 12.6zm-44.1-30.8c-10.1 0-18.3 8.2-18.3 18.3 0 10.1 8.2 18.3 18.3 18.3 10.1 0 18.3-8.2 18.3-18.3-.1-10.1-8.2-18.3-18.3-18.3zm0 30.8c-6.9 0-12.6-5.6-12.6-12.6 0-6.9 5.6-12.6 12.6-12.6 6.9 0 12.6 5.6 12.6 12.6-.1 7-5.7 12.6-12.6 12.6zm-44.2-30.8c-10.1 0-18.3 8.2-18.3 18.3 0 10.1 8.2 18.3 18.3 18.3s18.3-8.2 18.3-18.3c-.1-10.1-8.2-18.3-18.3-18.3zm0 30.8c-6.9 0-12.6-5.6-12.6-12.6 0-6.9 5.6-12.6 12.6-12.6s12.6 5.6 12.6 12.6c-.1 7-5.7 12.6-12.6 12.6zm-44.2-30.8c-10.1 0-18.3 8.2-18.3 18.3 0 10.1 8.2 18.3 18.3 18.3 10.1 0 18.3-8.2 18.3-18.3 0-10.1-8.2-18.3-18.3-18.3zm0 30.8c-6.9 0-12.6-5.6-12.6-12.6 0-6.9 5.6-12.6 12.6-12.6 6.9 0 12.6 5.6 12.6 12.6-.1 7-5.7 12.6-12.6 12.6zm-43.9-30.8H32c-9.9.2-17.9 8.3-17.9 18.3 0 10.1 8.2 18.3 18.3 18.3 10.1 0 18.3-8.2 18.3-18.3.1-10-7.9-18.1-17.9-18.3zm-.3 30.8c-6.9 0-12.6-5.6-12.6-12.6 0-6.9 5.6-12.6 12.6-12.6S45 555.8 45 562.8c0 6.9-5.6 12.5-12.5 12.5zm0-30.8h-.4.4c.1-.1.3 0 .4 0h-.4z"/><path class="st2" d="M558.8 83c0-2.2 4-6.4 4-6.4s4 4.1 4 6.4c0 2.2-1.8 4-4 4s-4-1.8-4-4zm-6.4-6.4c0 2.2 1.8 4 4 4s6.4-4 6.4-4-4.1-4-6.4-4c-2.2 0-4 1.8-4 4zm10.4-10.4c-2.2 0-4 1.8-4 4s4 6.4 4 6.4 4-4.1 4-6.4c0-2.2-1.8-4-4-4zm6.4 6.4c-2.2 0-6.4 4-6.4 4s4.1 4 6.4 4c2.2 0 4-1.8 4-4s-1.8-4-4-4zm-6.4 58.6c2.2 0 4-1.8 4-4s-4-6.4-4-6.4-4 4.1-4 6.4c0 2.2 1.8 4 4 4zm-10.4-10.4c0 2.2 1.8 4 4 4s6.4-4 6.4-4-4.1-4-6.4-4c-2.2 0-4 1.8-4 4zm10.4-10.4c-2.2 0-4 1.8-4 4s4 6.4 4 6.4 4-4.1 4-6.4c0-2.2-1.8-4-4-4zm6.4 6.4c-2.2 0-6.4 4-6.4 4s4.1 4 6.4 4c2.2 0 4-1.8 4-4s-1.8-4-4-4zm-6.4 58.6c2.2 0 4-1.8 4-4s-4-6.4-4-6.4-4 4.1-4 6.4c0 2.2 1.8 4 4 4zM552.4 165c0 2.2 1.8 4 4 4s6.4-4 6.4-4-4.1-4-6.4-4c-2.2 0-4 1.8-4 4zm10.4-10.4c-2.2 0-4 1.8-4 4s4 6.4 4 6.4 4-4.1 4-6.4c0-2.2-1.8-4-4-4zm6.4 6.4c-2.2 0-6.4 4-6.4 4s4.1 4 6.4 4c2.2 0 4-1.8 4-4s-1.8-4-4-4zm-6.4 58.6c2.2 0 4-1.8 4-4s-4-6.4-4-6.4-4 4.1-4 6.4c0 2.2 1.8 4 4 4zm-10.4-10.4c0 2.2 1.8 4 4 4s6.4-4 6.4-4-4.1-4-6.4-4c-2.2 0-4 1.8-4 4zm10.4-10.4c-2.2 0-4 1.8-4 4s4 6.4 4 6.4 4-4.1 4-6.4c0-2.2-1.8-4-4-4zm6.4 6.4c-2.2 0-6.4 4-6.4 4s4.1 4 6.4 4c2.2 0 4-1.8 4-4s-1.8-4-4-4zm-6.4 58.6c2.2 0 4-1.8 4-4s-4-6.4-4-6.4-4 4.1-4 6.4c0 2.2 1.8 4 4 4zm-10.4-10.4c0 2.2 1.8 4 4 4s6.4-4 6.4-4-4.1-4-6.4-4c-2.2 0-4 1.8-4 4zm10.4-10.4c-2.2 0-4 1.8-4 4s4 6.4 4 6.4 4-4.1 4-6.4c0-2.2-1.8-4-4-4zm6.4 6.4c-2.2 0-6.4 4-6.4 4s4.1 4 6.4 4c2.2 0 4-1.8 4-4s-1.8-4-4-4zm-6.4 58.5c2.2 0 4-1.8 4-4s-4-6.4-4-6.4-4 4.1-4 6.4c0 2.3 1.8 4 4 4zm-10.4-10.3c0 2.2 1.8 4 4 4s6.4-4 6.4-4-4.1-4-6.4-4c-2.2 0-4 1.8-4 4zm10.4-10.4c-2.2 0-4 1.8-4 4s4 6.4 4 6.4 4-4.1 4-6.4c0-2.2-1.8-4-4-4zm6.4 6.4c-2.2 0-6.4 4-6.4 4s4.1 4 6.4 4c2.2 0 4-1.8 4-4s-1.8-4-4-4zm-6.4 58.5c2.2 0 4-1.8 4-4s-4-6.4-4-6.4-4 4.1-4 6.4c0 2.2 1.8 4 4 4zm-10.4-10.3c0 2.2 1.8 4 4 4s6.4-4 6.4-4-4.1-4-6.4-4c-2.2 0-4 1.8-4 4zm10.4-10.4c-2.2 0-4 1.8-4 4s4 6.4 4 6.4 4-4.1 4-6.4c0-2.2-1.8-4-4-4zm6.4 6.4c-2.2 0-6.4 4-6.4 4s4.1 4 6.4 4c2.2 0 4-1.8 4-4s-1.8-4-4-4zm-6.4 58.5c2.2 0 4-1.8 4-4s-4-6.4-4-6.4-4 4.1-4 6.4c0 2.2 1.8 4 4 4zM552.4 386c0 2.2 1.8 4 4 4s6.4-4 6.4-4-4.1-4-6.4-4c-2.2 0-4 1.8-4 4zm10.4-10.4c-2.2 0-4 1.8-4 4s4 6.4 4 6.4 4-4.1 4-6.4c0-2.2-1.8-4-4-4zm6.4 6.4c-2.2 0-6.4 4-6.4 4s4.1 4 6.4 4c2.2 0 4-1.8 4-4s-1.8-4-4-4zm-6.4 58.5c2.2 0 4-1.8 4-4s-4-6.4-4-6.4-4 4.1-4 6.4c0 2.2 1.8 4 4 4zm-10.4-10.3c0 2.2 1.8 4 4 4s6.4-4 6.4-4-4.1-4-6.4-4c-2.2 0-4 1.8-4 4zm10.4-10.4c-2.2 0-4 1.8-4 4s4 6.4 4 6.4 4-4.1 4-6.4c0-2.2-1.8-4-4-4zm6.4 6.4c-2.2 0-6.4 4-6.4 4s4.1 4 6.4 4c2.2 0 4-1.8 4-4s-1.8-4-4-4zm-6.4 58.5c2.2 0 4-1.8 4-4s-4-6.4-4-6.4-4 4.1-4 6.4c0 2.2 1.8 4 4 4zm-10.4-10.3c0 2.2 1.8 4 4 4s6.4-4 6.4-4-4.1-4-6.4-4c-2.2 0-4 1.7-4 4zm10.4-10.4c-2.2 0-4 1.8-4 4s4 6.4 4 6.4 4-4.1 4-6.4c0-2.2-1.8-4-4-4zm6.4 6.4c-2.2 0-6.4 4-6.4 4s4.1 4 6.4 4c2.2 0 4-1.8 4-4 0-2.3-1.8-4-4-4zm-6.4 58.5c2.2 0 4-1.8 4-4s-4-6.4-4-6.4-4 4.1-4 6.4c0 2.2 1.8 4 4 4zm-10.4-10.3c0 2.2 1.8 4 4 4s6.4-4 6.4-4-4.1-4-6.4-4c-2.2-.1-4 1.7-4 4zm10.4-10.4c-2.2 0-4 1.8-4 4s4 6.4 4 6.4 4-4.1 4-6.4c0-2.2-1.8-4-4-4zm6.4 6.3c-2.2 0-6.4 4-6.4 4s4.1 4 6.4 4c2.2 0 4-1.8 4-4s-1.8-4-4-4zm-6.4 58.6c2.2 0 4-1.8 4-4s-4-6.4-4-6.4-4 4.1-4 6.4c0 2.2 1.8 4 4 4zm-10.4-10.3c0 2.2 1.8 4 4 4s6.4-4 6.4-4-4.1-4-6.4-4c-2.2-.1-4 1.7-4 4zm10.4-10.4c-2.2 0-4 1.8-4 4s4 6.4 4 6.4 4-4.1 4-6.4c0-2.2-1.8-4-4-4zm6.4 6.3c-2.2 0-6.4 4-6.4 4s4.1 4 6.4 4c2.2 0 4-1.8 4-4s-1.8-4-4-4zM83 28.5c-2.2 0-6.4 4-6.4 4s4.1 4 6.4 4c2.2 0 4-1.8 4-4s-1.8-4-4-4zm-6.3 14.4c2.2 0 4-1.8 4-4s-4-6.4-4-6.4-4 4.1-4 6.4c-.1 2.2 1.7 4 4 4zM66.3 32.5c0 2.2 1.8 4 4 4s6.4-4 6.4-4-4.1-4-6.4-4c-2.2 0-4 1.8-4 4zm10.4-10.3c-2.2 0-4 1.8-4 4s4 6.4 4 6.4 4-4.1 4-6.4c0-2.2-1.8-4-4-4zm50.5 6.3c-2.2 0-6.4 4-6.4 4s4.1 4 6.4 4c2.2 0 4-1.8 4-4s-1.8-4-4-4zm-6.3 14.4c2.2 0 4-1.8 4-4s-4-6.4-4-6.4-4 4.1-4 6.4c-.1 2.2 1.7 4 4 4zm-10.4-10.4c0 2.2 1.8 4 4 4s6.4-4 6.4-4-4.1-4-6.4-4c-2.2 0-4 1.8-4 4zm10.4-10.3c-2.2 0-4 1.8-4 4s4 6.4 4 6.4 4-4.1 4-6.4c0-2.2-1.8-4-4-4zm50.5 6.3c-2.2 0-6.4 4-6.4 4s4.1 4 6.4 4c2.2 0 4-1.8 4-4s-1.8-4-4-4zm-6.3 14.4c2.2 0 4-1.8 4-4s-4-6.4-4-6.4-4 4.1-4 6.4c-.1 2.2 1.7 4 4 4zm-10.4-10.4c0 2.2 1.8 4 4 4s6.4-4 6.4-4-4.1-4-6.4-4c-2.2 0-4 1.8-4 4zm10.4-10.3c-2.2 0-4 1.8-4 4s4 6.4 4 6.4 4-4.1 4-6.4c0-2.2-1.8-4-4-4zm50.5 6.3c-2.2 0-6.4 4-6.4 4s4.1 4 6.4 4c2.2 0 4-1.8 4-4s-1.8-4-4-4zm-6.4 14.4c2.2 0 4-1.8 4-4s-4-6.4-4-6.4-4 4.1-4 6.4c0 2.2 1.8 4 4 4zm-10.3-10.4c0 2.2 1.8 4 4 4s6.4-4 6.4-4-4.1-4-6.4-4-4 1.8-4 4zm10.3-10.3c-2.2 0-4 1.8-4 4s4 6.4 4 6.4 4-4.1 4-6.4c.1-2.2-1.7-4-4-4zm50.6 6.3c-2.2 0-6.4 4-6.4 4s4.1 4 6.4 4c2.2 0 4-1.8 4-4s-1.8-4-4-4zm-6.4 14.4c2.2 0 4-1.8 4-4s-4-6.4-4-6.4-4 4.1-4 6.4c0 2.2 1.8 4 4 4zm-10.3-10.4c0 2.2 1.8 4 4 4s6.4-4 6.4-4-4.1-4-6.4-4c-2.2 0-4 1.8-4 4zm10.3-10.3c-2.2 0-4 1.8-4 4s4 6.4 4 6.4 4-4.1 4-6.4c.1-2.2-1.7-4-4-4zm50.6 6.3c-2.2 0-6.4 4-6.4 4s4.1 4 6.4 4c2.2 0 4-1.8 4-4s-1.8-4-4-4zm-6.4 14.4c2.2 0 4-1.8 4-4s-4-6.4-4-6.4-4 4.1-4 6.4c0 2.2 1.8 4 4 4zm-10.3-10.4c0 2.2 1.8 4 4 4s6.4-4 6.4-4-4.1-4-6.4-4c-2.2 0-4 1.8-4 4zm10.3-10.3c-2.2 0-4 1.8-4 4s4 6.4 4 6.4 4-4.1 4-6.4c.1-2.2-1.7-4-4-4zm50.6 6.3c-2.2 0-6.4 4-6.4 4s4.1 4 6.4 4c2.2 0 4-1.8 4-4s-1.8-4-4-4zm-6.4 14.4c2.2 0 4-1.8 4-4s-4-6.4-4-6.4-4 4.1-4 6.4c0 2.2 1.8 4 4 4zm-10.3-10.4c0 2.2 1.8 4 4 4s6.4-4 6.4-4-4.1-4-6.4-4c-2.2 0-4 1.8-4 4zm10.3-10.3c-2.2 0-4 1.8-4 4s4 6.4 4 6.4 4-4.1 4-6.4c.1-2.2-1.7-4-4-4zm50.6 6.3c-2.2 0-6.4 4-6.4 4s4.1 4 6.4 4c2.2 0 4-1.8 4-4s-1.8-4-4-4zM386 42.9c2.2 0 4-1.8 4-4s-4-6.4-4-6.4-4 4.1-4 6.4c0 2.2 1.8 4 4 4zm-10.3-10.4c0 2.2 1.8 4 4 4s6.4-4 6.4-4-4.1-4-6.4-4c-2.2 0-4 1.8-4 4zM386 22.2c-2.2 0-4 1.8-4 4s4 6.4 4 6.4 4-4.1 4-6.4c0-2.2-1.8-4-4-4zm50.6 6.3c-2.2 0-6.4 4-6.4 4s4.1 4 6.4 4c2.2 0 4-1.8 4-4s-1.8-4-4-4zm-6.4 14.4c2.2 0 4-1.8 4-4s-4-6.4-4-6.4-4 4.1-4 6.4c0 2.2 1.8 4 4 4zm-10.3-10.4c0 2.2 1.8 4 4 4s6.4-4 6.4-4-4.1-4-6.4-4c-2.2 0-4 1.8-4 4zm10.3-10.3c-2.2 0-4 1.8-4 4s4 6.4 4 6.4 4-4.1 4-6.4c0-2.2-1.8-4-4-4zm50.6 6.3c-2.2 0-6.4 4-6.4 4s4.1 4 6.4 4c2.2 0 4-1.8 4-4s-1.8-4-4-4zm-6.4 14.4c2.2 0 4-1.8 4-4s-4-6.4-4-6.4-4 4.1-4 6.4c0 2.2 1.8 4 4 4zm-10.3-10.4c0 2.2 1.8 4 4 4s6.4-4 6.4-4-4.1-4-6.4-4c-2.2 0-4 1.8-4 4zm10.3-10.3c-2.2 0-4 1.8-4 4s4 6.4 4 6.4 4-4.1 4-6.4c0-2.2-1.8-4-4-4zm50.6 6.3c-2.2 0-6.4 4-6.4 4s4.1 4 6.4 4c2.2 0 4-1.8 4-4s-1.8-4-4-4zm-6.4 14.4c2.2 0 4-1.8 4-4s-4-6.4-4-6.4-4 4.1-4 6.4c0 2.2 1.8 4 4 4zm-10.3-10.4c0 2.2 1.8 4 4 4s6.4-4 6.4-4-4.1-4-6.4-4c-2.3 0-4 1.8-4 4zm10.3-10.3c-2.2 0-4 1.8-4 4s4 6.4 4 6.4 4-4.1 4-6.4c0-2.2-1.8-4-4-4zm54.6 10.3c0-2.2-1.8-4-4-4s-6.4 4-6.4 4 4.1 4 6.4 4c2.2 0 4-1.8 4-4zm-10.4 10.4c2.2 0 4-1.8 4-4s-4-6.4-4-6.4-4 4.1-4 6.4c0 2.2 1.8 4 4 4zm-6.3-6.4c2.2 0 6.4-4 6.4-4s-4.1-4-6.4-4c-2.2 0-4 1.8-4 4-.1 2.2 1.7 4 4 4zm6.3-14.3c-2.2 0-4 1.8-4 4s4 6.4 4 6.4 4-4.1 4-6.4c0-2.2-1.8-4-4-4zm-524 6.3c-2.2 0-6.4 4-6.4 4s4.1 4 6.4 4c2.2 0 4-1.8 4-4s-1.8-4-4-4zm-6.3-6.3c-2.2 0-4 1.8-4 4s4 6.4 4 6.4 4-4.1 4-6.4c0-2.2-1.8-4-4-4zM22.1 32.5c0 2.2 1.8 4 4 4s6.4-4 6.4-4-4.1-4-6.4-4c-2.2 0-4 1.8-4 4zm10.4 10.4c2.2 0 4-1.8 4-4s-4-6.4-4-6.4-4 4.1-4 6.4c-.1 2.2 1.7 4 4 4zm0 44.1c2.2 0 4-1.8 4-4s-4-6.4-4-6.4-4 4.1-4 6.4c0 2.2 1.7 4 4 4zM22.1 76.7c0 2.2 1.8 4 4 4s6.4-4 6.4-4-4.1-4-6.4-4c-2.2-.1-4 1.7-4 4zm10.4-10.4c-2.2 0-4 1.8-4 4s4 6.4 4 6.4 4-4.1 4-6.4c0-2.2-1.8-4-4-4zm6.3 6.3c-2.2 0-6.4 4-6.4 4s4.1 4 6.4 4c2.2 0 4-1.8 4-4s-1.8-4-4-4zm-6.3 58.6c2.2 0 4-1.8 4-4s-4-6.4-4-6.4-4 4.1-4 6.4c0 2.2 1.7 4 4 4zm-10.4-10.3c0 2.2 1.8 4 4 4s6.4-4 6.4-4-4.1-4-6.4-4c-2.2-.1-4 1.7-4 4zm10.4-10.4c-2.2 0-4 1.8-4 4s4 6.4 4 6.4 4-4.1 4-6.4c0-2.2-1.8-4-4-4zm6.3 6.3c-2.2 0-6.4 4-6.4 4s4.1 4 6.4 4c2.2 0 4-1.8 4-4s-1.8-4-4-4zm-6.3 58.6c2.2 0 4-1.8 4-4s-4-6.4-4-6.4-4 4.1-4 6.4c0 2.2 1.7 4 4 4zm-10.4-10.3c0 2.2 1.8 4 4 4s6.4-4 6.4-4-4.1-4-6.4-4c-2.2-.1-4 1.7-4 4zm10.4-10.4c-2.2 0-4 1.8-4 4s4 6.4 4 6.4 4-4.1 4-6.4c0-2.2-1.8-4-4-4zm6.3 6.3c-2.2 0-6.4 4-6.4 4s4.1 4 6.4 4c2.2 0 4-1.8 4-4s-1.8-4-4-4zm-6.3 58.6c2.2 0 4-1.8 4-4s-4-6.4-4-6.4-4 4.1-4 6.4c0 2.2 1.7 4 4 4zm-10.4-10.4c0 2.2 1.8 4 4 4s6.4-4 6.4-4-4.1-4-6.4-4c-2.2 0-4 1.8-4 4zm10.4-10.3c-2.2 0-4 1.8-4 4s4 6.4 4 6.4 4-4.1 4-6.4c0-2.2-1.8-4-4-4zm6.3 6.3c-2.2 0-6.4 4-6.4 4s4.1 4 6.4 4c2.2 0 4-1.8 4-4s-1.8-4-4-4zm-6.3 58.6c2.2 0 4-1.8 4-4s-4-6.4-4-6.4-4 4.1-4 6.4c-.1 2.2 1.7 4 4 4zm-10.4-10.4c0 2.2 1.8 4 4 4s6.4-4 6.4-4-4.1-4-6.4-4c-2.2 0-4 1.8-4 4zm10.4-10.3c-2.2 0-4 1.8-4 4s4 6.4 4 6.4 4-4.1 4-6.4c0-2.2-1.8-4-4-4zm6.3 6.3c-2.2 0-6.4 4-6.4 4s4.1 4 6.4 4c2.2 0 4-1.8 4-4s-1.8-4-4-4zM32.5 308c2.2 0 4-1.8 4-4s-4-6.4-4-6.4-4 4.1-4 6.4c-.1 2.2 1.7 4 4 4zm-10.4-10.4c0 2.2 1.8 4 4 4s6.4-4 6.4-4-4.1-4-6.4-4c-2.2 0-4 1.8-4 4zm10.4-10.3c-2.2 0-4 1.8-4 4s4 6.4 4 6.4 4-4.1 4-6.4c0-2.2-1.8-4-4-4zm6.3 6.3c-2.2 0-6.4 4-6.4 4s4.1 4 6.4 4c2.2 0 4-1.8 4-4s-1.8-4-4-4zm-6.3 58.6c2.2 0 4-1.8 4-4s-4-6.4-4-6.4-4 4.1-4 6.4c-.1 2.2 1.7 4 4 4zm-10.4-10.4c0 2.2 1.8 4 4 4s6.4-4 6.4-4-4.1-4-6.4-4c-2.2 0-4 1.8-4 4zm10.4-10.3c-2.2 0-4 1.8-4 4s4 6.4 4 6.4 4-4.1 4-6.4c0-2.2-1.8-4-4-4zm6.3 6.3c-2.2 0-6.4 4-6.4 4s4.1 4 6.4 4c2.2 0 4-1.8 4-4s-1.8-4-4-4zm-6.3 58.6c2.2 0 4-1.8 4-4s-4-6.4-4-6.4-4 4.1-4 6.4 1.7 4 4 4zM22.1 386c0 2.2 1.8 4 4 4s6.4-4 6.4-4-4.1-4-6.4-4c-2.2 0-4 1.8-4 4zm10.4-10.3c-2.2 0-4 1.8-4 4s4 6.4 4 6.4 4-4.1 4-6.4c0-2.2-1.8-4-4-4zm6.3 6.3c-2.2 0-6.4 4-6.4 4s4.1 4 6.4 4c2.2 0 4-1.8 4-4s-1.8-4-4-4zm-6.3 58.6c2.2 0 4-1.8 4-4s-4-6.4-4-6.4-4 4.1-4 6.4c-.1 2.2 1.7 4 4 4zm-10.4-10.4c0 2.2 1.8 4 4 4s6.4-4 6.4-4-4.1-4-6.4-4c-2.2 0-4 1.8-4 4zm10.4-10.3c-2.2 0-4 1.8-4 4s4 6.4 4 6.4 4-4.1 4-6.4c0-2.2-1.8-4-4-4zm6.3 6.3c-2.2 0-6.4 4-6.4 4s4.1 4 6.4 4c2.2 0 4-1.8 4-4s-1.8-4-4-4zm-6.3 58.6c2.2 0 4-1.8 4-4s-4-6.4-4-6.4-4 4.1-4 6.4c-.1 2.2 1.7 4 4 4zm-10.4-10.4c0 2.2 1.8 4 4 4s6.4-4 6.4-4-4.1-4-6.4-4c-2.2 0-4 1.8-4 4zm10.4-10.3c-2.2 0-4 1.8-4 4s4 6.4 4 6.4 4-4.1 4-6.4c0-2.2-1.8-4-4-4zm6.3 6.3c-2.2 0-6.4 4-6.4 4s4.1 4 6.4 4c2.2 0 4-1.8 4-4s-1.8-4-4-4zM32.5 529c2.2 0 4-1.8 4-4s-4-6.4-4-6.4-4 4.1-4 6.4c-.1 2.2 1.7 4 4 4zm-10.4-10.4c0 2.2 1.8 4 4 4s6.4-4 6.4-4-4.1-4-6.4-4c-2.2 0-4 1.8-4 4zm10.4-10.3c-2.2 0-4 1.8-4 4s4 6.4 4 6.4 4-4.1 4-6.4c0-2.3-1.8-4-4-4zm6.3 6.3c-2.2 0-6.4 4-6.4 4s4.1 4 6.4 4c2.2 0 4-1.8 4-4s-1.8-4-4-4zm469.5 48.2c0 2.2 1.8 4 4 4s6.4-4 6.4-4-4.1-4-6.4-4c-2.3-.1-4 1.7-4 4zm10.3-10.4c-2.2 0-4 1.8-4 4s4 6.4 4 6.4 4-4.1 4-6.4c0-2.2-1.8-4-4-4zm6.4 6.3c-2.2 0-6.4 4-6.4 4s4.1 4 6.4 4c2.2 0 4-1.8 4-4s-1.8-4-4-4zm-6.4 14.4c2.2 0 4-1.8 4-4s-4-6.4-4-6.4-4 4.1-4 6.4c0 2.2 1.8 4 4 4zm-54.5-10.3c0 2.2 1.8 4 4 4s6.4-4 6.4-4-4.1-4-6.4-4c-2.2-.1-4 1.7-4 4zm10.3-10.4c-2.2 0-4 1.8-4 4s4 6.4 4 6.4 4-4.1 4-6.4c0-2.2-1.8-4-4-4zm6.4 6.3c-2.2 0-6.4 4-6.4 4s4.1 4 6.4 4c2.2 0 4-1.8 4-4s-1.8-4-4-4zm-6.4 14.4c2.2 0 4-1.8 4-4s-4-6.4-4-6.4-4 4.1-4 6.4c0 2.2 1.8 4 4 4zm-54.5-10.3c0 2.2 1.8 4 4 4s6.4-4 6.4-4-4.1-4-6.4-4c-2.2-.1-4 1.7-4 4zm10.3-10.4c-2.2 0-4 1.8-4 4s4 6.4 4 6.4 4-4.1 4-6.4c0-2.2-1.8-4-4-4zm6.4 6.3c-2.2 0-6.4 4-6.4 4s4.1 4 6.4 4 4-1.8 4-4-1.8-4-4-4zm-6.4 14.4c2.2 0 4-1.8 4-4s-4-6.4-4-6.4-4 4.1-4 6.4c0 2.2 1.8 4 4 4zm-54.5-10.3c0 2.2 1.8 4 4 4s6.4-4 6.4-4-4.1-4-6.4-4c-2.2-.1-4 1.7-4 4zm10.3-10.4c-2.2 0-4 1.8-4 4s4 6.4 4 6.4 4-4.1 4-6.4c0-2.2-1.8-4-4-4zm6.4 6.3c-2.2 0-6.4 4-6.4 4s4.1 4 6.4 4c2.2 0 4-1.8 4-4s-1.8-4-4-4zm-6.4 14.4c2.2 0 4-1.8 4-4s-4-6.4-4-6.4-4 4.1-4 6.4c0 2.2 1.8 4 4 4zm-54.5-10.3c0 2.2 1.8 4 4 4s6.4-4 6.4-4-4.1-4-6.4-4c-2.2-.1-4 1.7-4 4zm10.3-10.4c-2.2 0-4 1.8-4 4s4 6.4 4 6.4 4-4.1 4-6.4c.1-2.2-1.7-4-4-4zm6.4 6.3c-2.2 0-6.4 4-6.4 4s4.1 4 6.4 4 4-1.8 4-4-1.8-4-4-4zm-6.4 14.4c2.2 0 4-1.8 4-4s-4-6.4-4-6.4-4 4.1-4 6.4c0 2.2 1.8 4 4 4zm-54.5-10.3c0 2.2 1.8 4 4 4s6.4-4 6.4-4-4.1-4-6.4-4c-2.2-.1-4 1.7-4 4zm10.3-10.4c-2.2 0-4 1.8-4 4s4 6.4 4 6.4 4-4.1 4-6.4c.1-2.2-1.7-4-4-4zm6.4 6.3c-2.2 0-6.4 4-6.4 4s4.1 4 6.4 4c2.2 0 4-1.8 4-4s-1.8-4-4-4zm-6.4 14.4c2.2 0 4-1.8 4-4s-4-6.4-4-6.4-4 4.1-4 6.4c0 2.2 1.8 4 4 4zm-54.5-10.3c0 2.2 1.8 4 4 4s6.4-4 6.4-4-4.1-4-6.4-4c-2.2-.1-4 1.7-4 4zm10.3-10.4c-2.2 0-4 1.8-4 4s4 6.4 4 6.4 4-4.1 4-6.4c.1-2.2-1.7-4-4-4zm6.4 6.3c-2.2 0-6.4 4-6.4 4s4.1 4 6.4 4 4-1.8 4-4-1.8-4-4-4zm-6.4 14.4c2.2 0 4-1.8 4-4s-4-6.4-4-6.4-4 4.1-4 6.4c0 2.2 1.8 4 4 4zm-54.5-10.3c0 2.2 1.8 4 4 4s6.4-4 6.4-4-4.1-4-6.4-4c-2.2-.1-4 1.7-4 4zm10.3-10.4c-2.2 0-4 1.8-4 4s4 6.4 4 6.4 4-4.1 4-6.4c.1-2.2-1.7-4-4-4zm6.4 6.3c-2.2 0-6.4 4-6.4 4s4.1 4 6.4 4c2.2 0 4-1.8 4-4s-1.8-4-4-4zm-6.4 14.4c2.2 0 4-1.8 4-4s-4-6.4-4-6.4-4 4.1-4 6.4c0 2.2 1.8 4 4 4zm-54.5-10.3c0 2.2 1.8 4 4 4s6.4-4 6.4-4-4.1-4-6.4-4c-2.2-.1-4 1.7-4 4zm10.4-10.4c-2.2 0-4 1.8-4 4s4 6.4 4 6.4 4-4.1 4-6.4c0-2.2-1.8-4-4-4zm6.3 6.3c-2.2 0-6.4 4-6.4 4s4.1 4 6.4 4c2.2 0 4-1.8 4-4s-1.8-4-4-4zm-6.3 14.4c2.2 0 4-1.8 4-4s-4-6.4-4-6.4-4 4.1-4 6.4c-.1 2.2 1.7 4 4 4zm-54.6-10.3c0 2.2 1.8 4 4 4s6.4-4 6.4-4-4.1-4-6.4-4c-2.2-.1-4 1.7-4 4zm10.4-10.4c-2.2 0-4 1.8-4 4s4 6.4 4 6.4 4-4.1 4-6.4c0-2.2-1.8-4-4-4zm6.3 6.3c-2.2 0-6.4 4-6.4 4s4.1 4 6.4 4c2.2 0 4-1.8 4-4s-1.8-4-4-4zm-6.3 14.4c2.2 0 4-1.8 4-4s-4-6.4-4-6.4-4 4.1-4 6.4c-.1 2.2 1.7 4 4 4zm-54.6-10.3c0 2.2 1.8 4 4 4s6.4-4 6.4-4-4.1-4-6.4-4c-2.2-.1-4 1.7-4 4zm10.4-10.4c-2.2 0-4 1.8-4 4s4 6.4 4 6.4 4-4.1 4-6.4c0-2.2-1.8-4-4-4zm6.3 6.3c-2.2 0-6.4 4-6.4 4s4.1 4 6.4 4c2.2 0 4-1.8 4-4s-1.8-4-4-4zm-6.3 14.4c2.2 0 4-1.8 4-4s-4-6.4-4-6.4-4 4.1-4 6.4c-.1 2.2 1.7 4 4 4zm-54.6-10.3c0 2.2 1.8 4 4 4s6.4-4 6.4-4-4.1-4-6.4-4c-2.2-.1-4 1.7-4 4zm10.4-10.4c-2.2 0-4 1.8-4 4s4 6.4 4 6.4 4-4.1 4-6.4c0-2.2-1.8-4-4-4zm6.3 6.3c-2.2 0-6.4 4-6.4 4s4.1 4 6.4 4c2.2 0 4-1.8 4-4s-1.8-4-4-4zm-6.3 14.4c2.2 0 4-1.8 4-4s-4-6.4-4-6.4-4 4.1-4 6.4c0 2.2 1.7 4 4 4z"/></svg>