<svg xmlns="http://www.w3.org/2000/svg" viewBox="0 0 595.3 595.3"><path d="M43.2 48.9c-5 0-12.7-4.5-19.7-11.5C15 29 8.9 18.1 13.5 13.5c.7-.7 2-1.6 4.2-1.6 5 0 12.7 4.5 19.7 11.5 4.3 4.3 7.8 9 9.7 13.2 2.9 6.2 1.7 9.3.2 10.8-.6.7-2 1.5-4.1 1.5zM17.7 16c-.5 0-1.1.1-1.4.4-1.7 1.7 1.5 9.8 9.9 18.3C33.3 41.8 39.9 45 43.1 45c.5 0 1.1-.1 1.4-.4.7-.7.6-2.8-1-6.2-1.8-3.8-5-8.1-8.9-12C27.5 19.2 20.9 16 17.7 16zm534.4 32.9c-2.2 0-3.5-.9-4.2-1.6-1.5-1.5-2.7-4.6.2-10.8 2-4.2 5.4-8.9 9.7-13.2 7-7 14.7-11.5 19.7-11.5 2.2 0 3.5.9 4.2 1.6 4.6 4.6-1.5 15.5-9.9 23.9-6.9 7.1-14.7 11.6-19.7 11.6zM577.5 16c-3.2 0-9.8 3.2-16.9 10.3-4 4-7.2 8.3-8.9 12-1.6 3.4-1.6 5.6-1 6.2.3.3.9.4 1.4.4 3.2 0 9.8-3.2 16.9-10.3 8.5-8.5 11.6-16.6 9.9-18.3-.3-.3-.9-.3-1.4-.3zm-21.1 6.9c0-8.4-6.8-15.2-15.2-15.2-3.4 0-6.5 1.3-8.9 3.7-2.4 2.4-3.7 5.5-3.7 8.9 0 2.8 1.1 5.4 3.1 7.4s4.6 3.1 7.4 3.1c1.1 0 2-.9 2-2s-.9-2-2-2c-1.7 0-3.3-.7-4.6-1.9a6.42 6.42 0 0 1-1.9-4.6c0-2.3.9-4.4 2.5-6.1 1.6-1.6 3.8-2.5 6.1-2.5 6.2 0 11.2 5 11.2 11.2 0 8-6.5 14.5-14.5 14.5-10.3 0-18.6-8.4-18.6-18.6v-2.4H76.1v2.4c0 10.3-8.4 18.6-18.6 18.6-8 0-14.5-6.5-14.5-14.5 0-6.2 5-11.2 11.2-11.2 2.3 0 4.4.9 6.1 2.5 1.6 1.6 2.5 3.8 2.5 6.1 0 1.7-.7 3.3-1.9 4.6a6.42 6.42 0 0 1-4.6 1.9c-1.1 0-2 .9-2 2s.9 2 2 2c2.8 0 5.4-1.1 7.4-3.1s3.1-4.6 3.1-7.4c0-3.4-1.3-6.5-3.7-8.9-2.4-2.4-5.5-3.7-8.9-3.7-8.4 0-15.2 6.8-15.2 15.2 0 10.2 8.3 18.5 18.5 18.5 11.9 0 21.7-9.3 22.6-21h435.3c.8 11.7 10.6 21 22.6 21 10.1 0 18.4-8.3 18.4-18.5zm0 549.5c0-10.2-8.3-18.5-18.5-18.5-11.8 0-21.5 9.1-22.5 20.6H80c-1-11.5-10.7-20.6-22.5-20.6-10.2 0-18.5 8.3-18.5 18.5 0 8.4 6.8 15.2 15.2 15.2 6.9 0 12.6-5.6 12.6-12.6 0-5.8-4.7-10.5-10.5-10.5-1.1 0-2 .9-2 2s.9 2 2 2c3.6 0 6.5 2.9 6.5 6.5 0 4.7-3.8 8.6-8.6 8.6-6.2 0-11.2-5-11.2-11.2 0-8 6.5-14.5 14.5-14.5 10.3 0 18.6 8.4 18.6 18.6v2h443.2v-2c0-10.3 8.4-18.6 18.6-18.6 8 0 14.5 6.5 14.5 14.5 0 6.2-5 11.2-11.2 11.2-4.7 0-8.6-3.8-8.6-8.6 0-3.6 2.9-6.5 6.5-6.5 1.1 0 2-.9 2-2s-.9-2-2-2c-5.8 0-10.5 4.7-10.5 10.5 0 6.9 5.6 12.6 12.6 12.6 8.3 0 15.2-6.8 15.2-15.2zM17.7 583.3c-2.2 0-3.5-.9-4.2-1.6-4.6-4.6 1.5-15.5 9.9-23.9 7-7 14.7-11.5 19.7-11.5 2.2 0 3.5.9 4.2 1.6 4.6 4.6-1.5 15.5-9.9 23.9-6.9 7-14.7 11.5-19.7 11.5zm25.5-33c-3.2 0-9.8 3.2-16.9 10.3-8.5 8.5-11.6 16.6-9.9 18.3.3.3.9.4 1.4.4 3.2 0 9.8-3.2 16.9-10.3 8.5-8.5 11.6-16.6 9.9-18.3-.4-.3-1-.4-1.4-.4zm-1.8-12.4c0-11.9-9.3-21.7-21-22.6V80c11.7-.8 21-10.6 21-22.6 0-10.2-8.3-18.5-18.5-18.5-8.4 0-15.2 6.8-15.2 15.2 0 6.9 5.6 12.6 12.6 12.6 5.8 0 10.5-4.7 10.5-10.5 0-1.1-.9-2-2-2s-2 .9-2 2c0 3.6-2.9 6.5-6.5 6.5-4.7 0-8.6-3.8-8.6-8.6 0-6.2 5-11.2 11.2-11.2 8 0 14.5 6.5 14.5 14.5C37.4 67.7 29 76 18.8 76h-2.4v443.2h2.4c10.3 0 18.6 8.4 18.6 18.6 0 8-6.5 14.5-14.5 14.5-6.2 0-11.2-5-11.2-11.2 0-4.7 3.8-8.6 8.6-8.6 3.6 0 6.5 2.9 6.5 6.5 0 1.1.9 2 2 2s2-.9 2-2c0-5.8-4.7-10.5-10.5-10.5-6.9 0-12.6 5.6-12.6 12.6 0 8.4 6.8 15.2 15.2 15.2 10.2.1 18.5-8.2 18.5-18.4zm536.1 45.4c-5 0-12.7-4.5-19.7-11.5-8.4-8.4-14.5-19.3-9.9-23.9.7-.7 2-1.6 4.2-1.6 5 0 12.7 4.5 19.7 11.5 8.4 8.4 14.5 19.3 9.9 23.9-.6.8-2 1.6-4.2 1.6zm-25.4-33c-.5 0-1.1.1-1.4.4-1.7 1.7 1.5 9.8 9.9 18.3 7.1 7.1 13.7 10.3 16.9 10.3.5 0 1.1-.1 1.4-.4 1.7-1.7-1.5-9.8-9.9-18.3-7.1-7-13.7-10.3-16.9-10.3zm35.5-9.1c0-6.9-5.6-12.6-12.6-12.6-5.8 0-10.5 4.7-10.5 10.5 0 1.1.9 2 2 2s2-.9 2-2c0-3.6 2.9-6.5 6.5-6.5 4.7 0 8.6 3.8 8.6 8.6 0 6.2-5 11.2-11.2 11.2-8 0-14.5-6.5-14.5-14.5 0-10.3 8.4-18.6 18.6-18.6h2.4V76.1h-2.4c-10.3 0-18.6-8.4-18.6-18.6 0-8 6.5-14.5 14.5-14.5 6.2 0 11.2 5 11.2 11.2 0 4.7-3.8 8.6-8.6 8.6-3.6 0-6.5-2.9-6.5-6.5 0-1.1-.9-2-2-2s-2 .9-2 2c0 5.8 4.7 10.5 10.5 10.5 6.9 0 12.6-5.6 12.6-12.6 0-8.4-6.8-15.2-15.2-15.2-10.2 0-18.5 8.3-18.5 18.5 0 11.9 9.3 21.7 21 22.6v435.3c-11.7.8-21 10.6-21 22.6 0 10.2 8.3 18.5 18.5 18.5 8.4-.1 15.2-7 15.2-15.3z"/></svg>