<svg id="Layer_1" xmlns="http://www.w3.org/2000/svg" viewBox="0 0 595.3 595.3"><style>.st0{fill:#9e1f63}.st1{fill:#1b75bc}.st2{fill:#f7941d}</style><path class="st0" d="M112.6 27.6H129v6h-16.4v6.1H129v6h-16.4v6.1H129v6h-22.4V27.6h6zm353.7 0v6h16.4v6.1h-16.4v6h16.4v6.1h-16.4v6h22.4V27.6h-22.4zm16.4 509.9h-16.4v6h16.4v6.1h-16.4v6h16.4v6.1h-16.4v6h22.4v-30.2h-6zm-370.1 0h-6v30.2H129v-6h-16.4v-6.1H129v-6h-16.4v-6.1H129v-6h-16.4zm449-430.9h-24.2V129h6v-16.4h6.1V129h6v-16.4h6.1V129h6v-22.4h-6zm0 376.1h-6.1v-16.4h-6v16.4h-6.1v-16.4h-6v22.4h30.2v-22.4h-6v16.4zM57.8 466.3h-6v16.4h-6.1v-16.4h-6v16.4h-6.1v-16.4h-6v22.4h30.2v-22.4zm-6-359.7H27.6V129h6v-16.4h6.1V129h6v-16.4h6.1V129h6v-22.4h-6z"/><path class="st1" d="M160.3 45.7h6.5c2.1 4 6.4 6.7 11.2 6.7 4.8 0 9-2.7 11.2-6.7h6.5c-2.5 7.4-9.5 12.7-17.7 12.7s-15.2-5.3-17.7-12.7zM178 70.5c14.9 0 27.4-10.7 30.2-24.8h-6.1c-2.7 10.8-12.5 18.8-24.1 18.8-11.6 0-21.4-8-24.1-18.8h-6.1c2.8 14.1 15.3 24.8 30.2 24.8zm239.3-12.1c8.2 0 15.2-5.3 17.7-12.7h-6.5c-2.1 4-6.4 6.7-11.2 6.7-4.8 0-9-2.7-11.2-6.7h-6.5c2.5 7.4 9.5 12.7 17.7 12.7zm-159.5 0c8.2 0 15.2-5.3 17.7-12.7H269c-2.1 4-6.4 6.7-11.2 6.7-4.8 0-9-2.7-11.2-6.7h-6.5c2.5 7.4 9.5 12.7 17.7 12.7zm79.7 12.1c14.9 0 27.4-10.7 30.2-24.8h-6.1c-2.7 10.8-12.5 18.8-24.1 18.8-11.6 0-21.4-8-24.1-18.8h-6.1c2.8 14.1 15.3 24.8 30.2 24.8zm0-12.1c8.2 0 15.2-5.3 17.7-12.7h-6.5c-2.1 4-6.4 6.7-11.2 6.7-4.8 0-9-2.7-11.2-6.7h-6.5c2.5 7.4 9.5 12.7 17.7 12.7zm-79.7 12.1c14.9 0 27.4-10.7 30.2-24.8h-6.1c-2.7 10.8-12.5 18.8-24.1 18.8-11.6 0-21.4-8-24.1-18.8h-6.1c2.7 14.1 15.2 24.8 30.2 24.8zm159.5 0c14.9 0 27.4-10.7 30.2-24.8h-6.1c-2.7 10.8-12.5 18.8-24.1 18.8-11.6 0-21.4-8-24.1-18.8H387c2.8 14.1 15.3 24.8 30.3 24.8zm0 6.1c-18.3 0-33.5-13.4-36.4-30.9h-7c-2.9 17.5-18.1 30.9-36.4 30.9-18.3 0-33.5-13.4-36.4-30.9h-7c-2.9 17.5-18.1 30.9-36.4 30.9-18.3 0-33.5-13.4-36.4-30.9h-7c-2.9 17.5-18.1 30.9-36.4 30.9s-33.5-13.4-36.4-30.9h-6.1c2.9 20.8 20.8 36.9 42.5 36.9 18.1 0 33.6-11.3 39.9-27.1 6.3 15.9 21.8 27.1 39.9 27.1 18.1 0 33.6-11.3 39.9-27.1 6.3 15.9 21.8 27.1 39.9 27.1 18.1 0 33.6-11.3 39.9-27.1 6.3 15.9 21.8 27.1 39.9 27.1 21.6 0 39.5-16.1 42.5-36.9h-6.1c-2.9 17.5-18.1 30.9-36.4 30.9zm0 460.3c-8.2 0-15.2 5.3-17.7 12.7h6.5c2.1-4 6.4-6.7 11.2-6.7 4.8 0 9 2.7 11.2 6.7h6.5c-2.6-7.4-9.5-12.7-17.7-12.7zm-79.8-12.1c-14.9 0-27.4 10.7-30.2 24.8h6.1c2.7-10.8 12.5-18.8 24.1-18.8s21.4 8 24.1 18.8h6.1c-2.8-14.2-15.3-24.8-30.2-24.8zm0 12.1c-8.2 0-15.2 5.3-17.7 12.7h6.5c2.1-4 6.4-6.7 11.2-6.7 4.8 0 9 2.7 11.2 6.7h6.5c-2.5-7.4-9.5-12.7-17.7-12.7zm79.8-24.2c-18.1 0-33.6 11.3-39.9 27.1-6.3-15.9-21.8-27.1-39.9-27.1-18.1 0-33.6 11.3-39.9 27.1-6.3-15.9-21.8-27.1-39.9-27.1-18.1 0-33.6 11.3-39.9 27.1-6.3-15.9-21.8-27.1-39.9-27.1-21.6 0-39.5 16.1-42.5 36.9h6.1c2.9-17.5 18.1-30.9 36.4-30.9 18.3 0 33.5 13.4 36.4 30.9h7c2.9-17.5 18.1-30.9 36.4-30.9 18.3 0 33.5 13.4 36.4 30.9h7c2.9-17.5 18.1-30.9 36.4-30.9 18.3 0 33.5 13.4 36.4 30.9h7c2.9-17.5 18.1-30.9 36.4-30.9 18.3 0 33.5 13.4 36.4 30.9h6.1c-3-20.8-20.9-36.9-42.5-36.9zm0 12.1c-14.9 0-27.4 10.7-30.2 24.8h6.1c2.7-10.8 12.5-18.8 24.1-18.8s21.4 8 24.1 18.8h6.1c-2.8-14.2-15.3-24.8-30.2-24.8zm-159.5 12.1c-8.2 0-15.2 5.3-17.7 12.7h6.5c2.1-4 6.4-6.7 11.2-6.7 4.8 0 9 2.7 11.2 6.7h6.5c-2.6-7.4-9.5-12.7-17.7-12.7zm-79.8 0c-8.2 0-15.2 5.3-17.7 12.7h6.5c2.1-4 6.4-6.7 11.2-6.7 4.8 0 9 2.7 11.2 6.7h6.5c-2.5-7.4-9.5-12.7-17.7-12.7zm0-12.1c-14.9 0-27.4 10.7-30.2 24.8h6.1c2.7-10.8 12.5-18.8 24.1-18.8 11.6 0 21.4 8 24.1 18.8h6.1c-2.8-14.2-15.3-24.8-30.2-24.8zm79.8 0c-14.9 0-27.4 10.7-30.2 24.8h6.1c2.7-10.8 12.5-18.8 24.1-18.8s21.4 8 24.1 18.8h6.1c-2.8-14.2-15.3-24.8-30.2-24.8zm248.4-467h6V27.6h-6v30.2zm-11.7 0h6V27.6h-6v30.2zm43 31.3h30.1v-6h-30.1v6zm0 11.7h30.1v-6h-30.1v6zm30.1-30.3v6h-30.2v-6c0-3.5-1.4-6.7-3.7-9-2.3-2.3-5.5-3.7-9-3.7h-6V27.6h6c11.8 0 22.5 4.8 30.3 12.6 7.8 7.8 12.6 18.5 12.6 30.3zm-18 0c0-6.8-2.8-13-7.3-17.5s-10.7-7.3-17.5-7.3v6.1c5.2 0 9.8 2.1 13.2 5.5 3.4 3.4 5.5 8.1 5.5 13.2h6.1zm12 0c0-10.2-4.1-19.4-10.8-26.1-6.7-6.7-15.9-10.8-26.1-10.8v6.1c8.5 0 16.2 3.5 21.8 9 5.6 5.6 9 13.3 9 21.8h6.1zm-24.1 441.7h30.1v-6h-30.1v6zm0-11.7h30.1v-6h-30.1v6zm-31.3 67.1h6v-30.1h-6v30.1zm31.2-48.9h30.2v6c0 11.8-4.8 22.5-12.6 30.3-7.8 7.8-18.5 12.6-30.3 12.6h-6v-30.2h6c3.5 0 6.7-1.4 9-3.7 2.3-2.3 3.7-5.5 3.7-9v-6zm18.2 6c0 8.5-3.5 16.2-9 21.8-5.6 5.6-13.3 9-21.8 9v6.1c10.2 0 19.4-4.1 26.1-10.8 6.7-6.7 10.8-15.9 10.8-26.1h-6.1zM538 538c-3.4 3.4-8.1 5.5-13.2 5.5v6.1c6.8 0 13-2.8 17.5-7.3s7.3-10.7 7.3-17.5h-6.1c-.1 5.1-2.1 9.8-5.5 13.2zm-43.5 29.6h6v-30.1h-6v30.1zm55.1-400.8v-6.5c-7.4 2.5-12.7 9.5-12.7 17.7s5.3 15.2 12.7 17.7v-6.5c-4-2.1-6.7-6.4-6.7-11.2 0-4.8 2.7-9 6.7-11.2zm-36.9 250.5c0 21.6 16.1 39.5 36.9 42.5v-6.1c-17.5-2.9-30.9-18.1-30.9-36.4 0-18.3 13.4-33.5 30.9-36.4v-7c-17.5-2.9-30.9-18.1-30.9-36.4 0-18.3 13.4-33.5 30.9-36.4v-7c-17.5-2.9-30.9-18.1-30.9-36.4 0-18.3 13.4-33.5 30.9-36.4v-7c-17.5-2.9-30.9-18.1-30.9-36.4 0-18.3 13.4-33.5 30.9-36.4v-6.1c-20.8 2.9-36.9 20.8-36.9 42.5 0 18.1 11.3 33.6 27.1 39.9-15.9 6.3-27.1 21.8-27.1 39.9 0 18.1 11.3 33.6 27.1 39.9-15.9 6.3-27.1 21.8-27.1 39.9 0 18.1 11.3 33.6 27.1 39.9-15.8 6.3-27.1 21.8-27.1 39.9zm36.9-11.2v-6.5c-7.4 2.5-12.7 9.5-12.7 17.7s5.3 15.2 12.7 17.7v-6.5c-4-2.1-6.7-6.4-6.7-11.2 0-4.9 2.7-9.1 6.7-11.2zm0-258.3c-14.1 2.8-24.8 15.3-24.8 30.2 0 14.9 10.7 27.4 24.8 30.2v-6.1c-10.8-2.7-18.8-12.5-18.8-24.1 0-11.6 8-21.4 18.8-24.1v-6.1zm0 239.2c-14.1 2.8-24.8 15.3-24.8 30.2 0 14.9 10.7 27.4 24.8 30.2v-6.1c-10.8-2.7-18.8-12.5-18.8-24.1 0-11.6 8-21.4 18.8-24.1V387zm0-79.7c-14.1 2.8-24.8 15.3-24.8 30.2 0 14.9 10.7 27.4 24.8 30.2v-6.1c-10.8-2.7-18.8-12.5-18.8-24.1 0-11.6 8-21.4 18.8-24.1v-6.1zm0-60.7v-6.5c-7.4 2.5-12.7 9.5-12.7 17.7s5.3 15.2 12.7 17.7V269c-4-2.1-6.7-6.4-6.7-11.2 0-4.9 2.7-9.1 6.7-11.2zm0-19.1c-14.1 2.8-24.8 15.3-24.8 30.2 0 14.9 10.7 27.4 24.8 30.2v-6.1c-10.8-2.7-18.8-12.5-18.8-24.1 0-11.6 8-21.4 18.8-24.1v-6.1zm0 98.8v-6.5c-7.4 2.5-12.7 9.5-12.7 17.7s5.3 15.2 12.7 17.7v-6.5c-4-2.1-6.7-6.4-6.7-11.2 0-4.8 2.7-9 6.7-11.2zM94.8 567.6h6v-30.1h-6v30.1zm-37-73.1H27.6v6h30.1v-6zm0 11.7H27.6v6h30.1v-6zm25.3 61.4h6v-30.1h-6v30.1zm-12.6-30.2h6v30.2h-6c-11.8 0-22.5-4.8-30.3-12.6-7.8-7.8-12.6-18.5-12.6-30.3v-6h30.2v6c0 3.5 1.4 6.7 3.7 9 2.4 2.3 5.5 3.7 9 3.7zm0 18.2c-8.5 0-16.2-3.5-21.8-9-5.6-5.6-9-13.3-9-21.8h-6.1c0 10.2 4.1 19.4 10.8 26.1 6.7 6.7 15.9 10.8 26.1 10.8v-6.1zm0-12.2c-5.2 0-9.8-2.1-13.2-5.5-3.4-3.4-5.5-8.1-5.5-13.2h-6.1c0 6.8 2.8 13 7.3 17.5s10.7 7.3 17.5 7.3v-6.1zM57.8 94.8H27.6v6h30.1v-6zm0-11.7H27.6v6h30.1v-6zm0-6.6H27.6v-6c0-11.8 4.8-22.5 12.6-30.3 7.8-7.8 18.5-12.6 30.3-12.6h6v30.2h-6c-3.5 0-6.7 1.4-9 3.7-2.3 2.3-3.7 5.5-3.7 9v6zm-18.1-6c0-8.5 3.5-16.2 9-21.8 5.6-5.6 13.3-9 21.8-9v-6.1c-10.2 0-19.4 4.1-26.1 10.8-6.7 6.7-10.8 15.9-10.8 26.1h6.1zm17.6-13.2c3.4-3.4 8.1-5.5 13.2-5.5v-6.1c-6.8 0-13 2.8-17.5 7.3s-7.3 10.7-7.3 17.5h6.1c0-5.1 2.1-9.8 5.5-13.2zm25.8.5h6V27.6h-6v30.2zm11.7 0h6V27.6h-6v30.2zM45.7 288c14.1-2.8 24.8-15.3 24.8-30.2 0-14.9-10.7-27.4-24.8-30.2v6.1c10.8 2.7 18.8 12.5 18.8 24.1 0 11.6-8 21.4-18.8 24.1v6.1zm0 79.7c14.1-2.8 24.8-15.3 24.8-30.2 0-14.9-10.7-27.4-24.8-30.2v6.1c10.8 2.7 18.8 12.5 18.8 24.1 0 11.6-8 21.4-18.8 24.1v6.1zm0-98.8v6.5c7.4-2.5 12.7-9.5 12.7-17.7s-5.3-15.2-12.7-17.7v6.5c4 2.1 6.7 6.4 6.7 11.2s-2.7 9.1-6.7 11.2zm0 79.8v6.5c7.4-2.5 12.7-9.5 12.7-17.7s-5.3-15.2-12.7-17.7v6.5c4 2.1 6.7 6.4 6.7 11.2s-2.7 9-6.7 11.2zM82.6 178c0-21.6-16.1-39.5-36.9-42.5v6.1c17.5 2.9 30.9 18.1 30.9 36.4 0 18.3-13.4 33.5-30.9 36.4v7c17.5 2.9 30.9 18.1 30.9 36.4s-13.4 33.5-30.9 36.4v7c17.5 2.9 30.9 18.1 30.9 36.4S63.2 371 45.7 373.9v7c17.5 2.9 30.9 18.1 30.9 36.4 0 18.3-13.4 33.5-30.9 36.4v6.1c20.8-2.9 36.9-20.8 36.9-42.5 0-18.1-11.3-33.6-27.1-39.9 15.9-6.3 27.1-21.8 27.1-39.9 0-18.1-11.3-33.6-27.1-39.9 15.9-6.3 27.1-21.8 27.1-39.9 0-18.1-11.3-33.6-27.1-39.9 15.8-6.2 27.1-21.7 27.1-39.8zM45.7 428.4v6.5c7.4-2.5 12.7-9.5 12.7-17.7s-5.3-15.2-12.7-17.7v6.5c4 2.1 6.7 6.4 6.7 11.2s-2.7 9.1-6.7 11.2zm0 19.1c14.1-2.8 24.8-15.3 24.8-30.2 0-14.9-10.7-27.4-24.8-30.2v6.1c10.8 2.7 18.8 12.5 18.8 24.1 0 11.6-8 21.4-18.8 24.1v6.1zm0-258.3v6.5c7.4-2.5 12.7-9.5 12.7-17.7s-5.3-15.2-12.7-17.7v6.5c4 2.1 6.7 6.4 6.7 11.2s-2.7 9-6.7 11.2zm0 19c14.1-2.8 24.8-15.3 24.8-30.2 0-14.9-10.7-27.4-24.8-30.2v6.1c10.8 2.7 18.8 12.5 18.8 24.1 0 11.6-8 21.4-18.8 24.1v6.1z"/><path class="st2" d="M129 27.6h337.4v6H129v-6zm325.2 12.1H129v6h337.5v-6h-12.3zM128.9 567.6h337.4v-6H128.9v6zm324.7-18H128.9v6h337v-6h-12.3zm96-414v330.9h6V129h-6v6.6zm12-6.6v337.4h6V129h-6zm-534 337.3h6V128.9h-6v337.4zm12.1-331.2v330.8h6v-337h-6v6.2z"/></svg>