<svg id="Layer_1" xmlns="http://www.w3.org/2000/svg" viewBox="0 0 595.3 595.3"><style>.st0{fill:#1b75bc}.st1{fill:#f7941d}.st2{fill:#9e1f63}</style><path class="st0" d="M523.9 79.5l4.2 4.2 4.2-4.2L544 67.9l-11.6-11.6-4.2-4.2-4.2 4.2-11.6 11.6 11.5 11.6zm4.3-19l7.4 7.4-7.4 7.4-7.4-7.4 7.4-7.4zM67.9 51.3L52 67.1l4.2 4.2 11.6 11.6 11.6-11.6 4.2-4.2-15.7-15.8zm0 23.2l-7.4-7.4 7.4-7.4 7.4 7.4-7.4 7.4zm459.6 437.8l-11.7 11.6-4.2 4.2 4.2 4.2 11.6 11.6 11.6-11.6 4.2-4.2-4.2-4.2-11.5-11.6zm-.1 23.2l-7.4-7.4 7.4-7.4 7.4 7.4-7.4 7.4zm-456-19.7l-4.2-4.2-15.8 15.8 15.8 15.8 4.2-4.2L83 527.4l-11.6-11.6zm-4.3 19l-7.4-7.4 7.4-7.4 7.4 7.4-7.4 7.4zM202.2 27.6h6l-10.4 30.1h-7.6L182 34l-8.2 23.8h-7.6L158 34v-6.4h3.8l8.2 23.8 8.2-23.8h7.6l8.2 23.8 8.2-23.8zm231.3 0h3.8V34l-8.2 23.8h-7.6L413.3 34l-8.2 23.8h-7.6l-10.4-30.1h6l8.2 23.8 8.2-23.8h7.6l8.2 23.8 8.2-23.9zm-4.4 509.9l8.2 23.8v6.4h-3.8l-8.2-23.8-8.2 23.8h-7.6l-8.2-23.8-8.2 23.8h-6l10.4-30.1h7.6l8.2 23.8 8.2-23.8h7.6zm-231.3 0l10.4 30.1h-6l-8.2-23.8-8.2 23.8h-7.6l-8.2-23.8-8.2 23.8H158v-6.4l8.2-23.8h7.6l8.2 23.8 8.2-23.8h7.6zm369.8-375.7l-23.8 8.2 23.8 8.2v7.6l-23.8 8.2 23.8 8.2v6l-30.1-10.4v-7.6l23.8-8.2-23.8-8.2v-7.6l23.8-8.2h6.4v3.8zm-30.1 235.7l30.1-10.4v6l-23.8 8.2 23.8 8.2v7.6l-23.8 8.2 23.8 8.2v3.8h-6.4l-23.8-8.2v-7.6l23.8-8.2-23.8-8.2v-7.6zM57.8 429.1L34 437.3h-6.4v-3.8l23.8-8.2-23.8-8.2v-7.6l23.8-8.2-23.8-8.2v-6l30.1 10.4v7.6L34 413.3l23.8 8.2v7.6zm0-231.3l-30.1 10.4v-6l23.8-8.2-23.8-8.2v-7.6l23.8-8.2-23.8-8.2V158H34l23.8 8.2v7.6L34 182l23.8 8.2v7.6z"/><path class="st1" d="M121.3 25.2l4.2-4.2c12 12 12 31.6 0 43.6l-4.2-4.2c9.7-9.8 9.7-25.5 0-35.2zm8.6-8.6c14.4 14.4 14.4 37.8 0 52.2l4.2 4.2c16.7-16.7 16.7-43.9 0-60.7l-4.2 4.3zm-17 34.9l-.2.2L117 56c7.3-7.3 7.3-19.1 0-26.4l-4.2 4.2.1.1c1.7 1.7 2.8 3.8 3.3 6 .4 1.9.4 3.8 0 5.7-.5 2.1-1.6 4.2-3.3 5.9zm352.5 17.3C451 54.4 451 31 465.4 16.6l-4.2-4.2c-16.7 16.7-16.7 43.9 0 60.7l4.2-4.3zm4.3-4.3l4.2-4.2c-9.7-9.7-9.7-25.4 0-35.1l-4.2-4.2c-12 12-12 31.5 0 43.5zm12.8-30.6l.1-.1-4.2-4.2c-7.3 7.3-7.3 19.1 0 26.4l4.2-4.2-.2-.2c-1.7-1.7-2.7-3.8-3.2-6-.4-1.9-.4-3.8 0-5.7.5-2.2 1.6-4.3 3.3-6zM203.8 57.8h6l10.4-30.1h-6l-10.4 30.1zm171.3-30.2l10.4 30.1h6l-10.4-30.1h-6zm90.3 498.9l-4.2-4.2c-16.7 16.7-16.7 43.9 0 60.7l4.2-4.2c-14.4-14.6-14.4-38 0-52.3zm8.6 8.5l-4.2-4.2c-12 12-12 31.6 0 43.6l4.2-4.2c-9.7-9.8-9.7-25.5 0-35.2zm8.4 8.8l.2-.2-4.2-4.2c-7.3 7.3-7.3 19.1 0 26.4l4.2-4.2-.1-.1c-1.7-1.7-2.8-3.8-3.3-6-.4-1.9-.4-3.8 0-5.7.4-2.2 1.5-4.3 3.2-6zm-356.9-13l-4.2 4.2c9.7 9.7 9.7 25.4 0 35.1l4.2 4.2c12.1-12 12.1-31.5 0-43.5zm-8.5 8.5l-4.2 4.2.2.2c1.7 1.7 2.7 3.8 3.2 6 .4 1.9.4 3.8 0 5.7-.5 2.2-1.6 4.3-3.3 6l-.1.1 4.2 4.2c7.3-7.2 7.3-19.1 0-26.4zm12.8-12.8c14.4 14.4 14.4 37.8 0 52.2l4.2 4.2c16.7-16.7 16.7-43.9 0-60.7l-4.2 4.3zm245.3 41.1h6l10.4-30.1h-6l-10.4 30.1zm-171.3-30.1l10.4 30.1h6l-10.4-30.1h-6zm362-420.5l-4.2-4.2-.1.1c-1.7 1.7-3.8 2.8-6 3.3-1.9.4-3.8.4-5.7 0-2.2-.5-4.3-1.6-6-3.2l-.2-.2-4.2 4.2c7.2 7.3 19.1 7.3 26.4 0zm17.1 17.1l-4.2-4.2c-14.4 14.4-37.8 14.4-52.2 0l-4.2 4.2c16.6 16.7 43.9 16.7 60.6 0zm-8.6-8.5l-4.2-4.2c-9.7 9.7-25.4 9.7-35.1 0l-4.2 4.2c12 12 31.5 12 43.5 0zm-43.5 344.1l4.2 4.2c9.7-9.7 25.4-9.7 35.1 0l4.2-4.2c-12-12-31.5-12-43.5 0zm-8.6-8.5l4.2 4.2c14.4-14.4 37.8-14.4 52.2 0l4.2-4.2c-16.6-16.7-43.9-16.7-60.6 0zm17.1 17.1l4.2 4.2.2-.2c1.7-1.7 3.8-2.7 6-3.2 1.9-.4 3.8-.4 5.7 0 2.2.5 4.3 1.6 6 3.3l.1.1 4.2-4.2c-7.2-7.3-19.1-7.3-26.4 0zm28.3-264.1l-30.1-10.4v6l30.1 10.4v-6zm-30.1 177.3l30.1-10.4v-6l-30.1 10.4v6zM20.9 469.7l4.2 4.2c9.7-9.7 25.4-9.7 35.1 0l4.2-4.2c-11.9-12-31.4-12-43.5 0zm-8.5-8.5l4.2 4.2c14.4-14.4 37.8-14.4 52.2 0l4.2-4.2c-16.7-16.7-43.9-16.7-60.6 0zm17.1 17.1l4.2 4.2.1-.1c1.7-1.7 3.8-2.8 6-3.3 1.9-.4 3.8-.4 5.7 0 2.2.5 4.3 1.6 6 3.2l.2.2 4.2-4.2c-7.2-7.3-19.1-7.3-26.4 0zm35-352.8l-4.2-4.2c-9.7 9.7-25.4 9.7-35.1 0l-4.2 4.2c12 12.1 31.5 12.1 43.5 0zm-47.9 4.3l-4.2 4.2c16.7 16.7 43.9 16.7 60.7 0l-4.2-4.2c-14.5 14.4-37.9 14.4-52.3 0zM56 117l-4.2-4.2-.2.2c-1.7 1.7-3.8 2.7-6 3.2-1.9.4-3.8.4-5.7 0-2.2-.5-4.3-1.6-6-3.3l-.1-.1-4.2 4.2c7.2 7.3 19.1 7.3 26.4 0zM27.6 381.1l30.1 10.4v-6l-30.1-10.4v6zm30.2-177.3l-30.1 10.4v6l30.1-10.4v-6z"/><path class="st2" d="M116.1 549.8c-.5-2.2-1.6-4.3-3.2-6h-12.1v-6.3h-6v21.6l-12.2-12.2 15.2-15.2 4.2-4.2-4.2-4.2-25.7-25.7-4.2-4.2-4.2 4.2-15.2 15.2-12.2-12.2h21.6v-6h-6.3v-12.1c-1.7-1.7-3.8-2.7-6-3.2v15.3h-5.7v-15.3c-2.2.5-4.3 1.6-6 3.3v12.1h-6.2v5.9l16.5 16.5-6.2 6.2-4.2 4.2 4.2 4.2.2.2-13.2 13 4.2 4.2L42.4 536l5 5-13.1 13.1 4.2 4.2 13.1-13.1 5 5-13.1 13.1 4.2 4.2 13.1-13.1 2.9 2.9 4.2 4.2 4.2-4.2 6.2-6.2 16.4 16.4h5.9v-6.2h12c1.7-1.7 2.8-3.8 3.3-6h-15.3v-5.7h15.5zm-48.2 3.3l-25.7-25.7 25.7-25.7 25.7 25.7-25.7 25.7zm499.7-52.6v-6h-6.2v-12c-1.7-1.7-3.8-2.8-6-3.3v15.3h-5.7v-15.3c-2.2.5-4.3 1.6-6 3.2v12.1h-6.3v6H559l-12.2 12.2-15.2-15.2-4.2-4.2-4.2 4.2-25.7 25.7-4.2 4.2 4.2 4.2 15.2 15.2-12.2 12.2v-21.6h-6v6.3h-12.2c-1.7 1.7-2.7 3.8-3.2 6h15.4v5.7h-15.4c.5 2.2 1.6 4.3 3.3 6h12.1v6.2h5.9l16.5-16.5 6.2 6.2 4.2 4.2 4.2-4.2.2-.2 13.1 13.1 4.2-4.2-13.1-13.1 5-5L554 561l4.2-4.2-13.1-13.1 5-5 13.1 13.1 4.2-4.2-13.1-13.1 2.9-2.9 4.2-4.2-4.2-4.2-6.2-6.2 16.6-16.5zm-14.5 26.9l-25.7 25.7-25.7-25.7 25.7-25.7 25.7 25.7zM479.2 45.5c.5 2.2 1.6 4.3 3.2 6h12.1v6.3h6V36.2l12.2 12.2-15.2 15.2-4.2 4.2 4.2 4.2 25.7 25.7 4.2 4.2 4.2-4.2 15.2-15.2L559 94.7h-21.6v6h6.3v12.2c1.7 1.7 3.8 2.7 6 3.2v-15.4h5.7v15.4c2.2-.5 4.3-1.6 6-3.3v-12.1h6.2v-5.9l-16.5-16.5 6.2-6.2 4.2-4.2-4.2-4.2-.2-.2 13.1-13.1-4.2-4.2-13.1 13.1-5-5L561 41.2l-4.2-4.2-13.1 13-5-5 13.1-13.1-4.2-4.2-13.1 13.1-2.9-2.9-4.2-4.2-4.2 4.2-6.2 6.2-16.4-16.4h-5.9v6.2h-12.1c-1.7 1.7-2.8 3.8-3.3 6h15.3v5.7h-15.4zm48.2-3.3l25.7 25.7-25.7 25.7-25.7-25.7 25.7-25.7zm-426.6-2.3h15.3c-.5-2.2-1.6-4.3-3.3-6h-12v-6.2h-5.9L78.4 44.2 72.2 38 68 33.8 63.8 38l-.2.2L50.4 25l-4.2 4.2 13.1 13.1-5 5-13.2-13.1-4.2 4.2L50 51.6l-5 5-13.1-13.2-4.2 4.2 13.1 13.1-2.8 2.9-4.2 4.2L38 72l6.2 6.2-16.4 16.6v5.9h6.1v12.1c1.7 1.7 3.8 2.8 6 3.3v-15.3h5.7v15.4c2.2-.5 4.3-1.6 6-3.2v-12.1h6.3v-6H36.2l12.2-12.2 15.2 15.2 4.2 4.2 4.2-4.2 25.7-25.7 4.2-4.2-4.2-4.2-15.1-15.4 12.2-12.2v21.6h6v-6.3h12.1c1.7-1.7 2.7-3.8 3.2-6h-15.3v-5.6zm-7.2 28L67.9 93.5 42.2 67.9l25.7-25.7 25.7 25.7zm62.2-40.3h2.2v30.2h-6V27.6h3.8zm283.7 0h3.8v30.2h-6V27.6h2.2zm-76.4 0l2.2 6.2H230l2.2-6.2h-6l-10.4 30.1h163.7l-10.4-30.1h-6zM223.9 51.8l4.1-11.9h139.4l4.1 11.9H223.9zm213.4 485.6h6v30.2h-6v-30.2zm-285.3 0h6v30.2h-6v-30.2zm223.1.1H215.8l10.4 30.1h6l-2.2-6.2h135.2l-2.2 6.2h6l10.4-30.1h-4.3zm-7.8 17.9H227.9l-4.1-11.9h147.6l-4.1 11.9zM537.4 152h30.2v6h-30.2v-6zm23.9 285.3h6.4v6h-30.2v-6h23.8zm-23.8-217.1v159.3l30.1-10.4v-6l-6.2 2.2V230l6.2 2.2v-6l-30.1-10.4v4.4zm6 3.7l11.9 4.1v139.4l-11.9 4.1V223.9zM57.8 443.3H27.6v-6h30.2v6zM27.6 158v-6h30.2v6H27.6zm0 205.1v6l30.1 10.4V215.8l-30.1 10.4v6l6.2-2.2v135.2l-6.2-2.1zm12.3-135.2l11.9-4.1v147.6l-11.9-4.1V227.9z"/></svg>