<svg id="Layer_1" xmlns="http://www.w3.org/2000/svg" viewBox="0 0 595.3 595.3"><style>.st0{fill:#f7941d}.st1{fill:#9e1f63}.st2{fill:#1b75bc}</style><path class="st0" d="M385.7 51.8h.5-.5zm45.2 0h-28.3c-1.7 1-3.4 2-5.2 2.8-.2.1-.5.2-.8.3-.5.2-1 .4-1.4.6-.7.3-1.4.5-2.1.8l-.9.3c-.6.2-1.2.3-1.8.5-.3.1-.6.1-.8.2-.9.2-1.8.4-2.7.5h79.6v-6h-35.6zm0-24.2h-10c-.3.9-.5 1.7-.8 2.5-.1.2-.1.3-.2.5-.3.7-.6 1.4-.8 2-.1.3-.3.6-.4.9h47.8v-6h-35.6zm-19.1 16.3c-.3.3-.5.6-.8.9-.3.3-.5.6-.8.9h56.2v-6h-51.2c-1.1 1.5-2.2 2.9-3.4 4.2zm-202.2 8l-.5-.1c.1 0 .3 0 .5.1zm-25.3-7.1c-.3-.3-.5-.6-.8-.9-1.2-1.3-2.3-2.8-3.3-4.2H129v6h56.2l-.9-.9zm-8-12.1c-.3-.7-.6-1.3-.8-2-.1-.2-.1-.3-.2-.5-.3-.8-.6-1.7-.8-2.5H129v6h47.7c-.1-.4-.3-.7-.4-1zm29.6 24.5c-.3-.1-.6-.1-.8-.2-.6-.2-1.2-.3-1.8-.5l-.9-.3c-.7-.2-1.4-.5-2.1-.8-.5-.2-1-.4-1.4-.6-.3-.1-.5-.2-.7-.3-1.8-.8-3.6-1.7-5.2-2.8h-64v6h79.6c-1-.1-1.8-.3-2.7-.5zm3.7 486.3c-.2-.1-.4 0-.5 0h.5zm-80.7 12.1h51.2c1-1.5 2.1-2.9 3.3-4.2.3-.3.5-.6.8-.9.3-.3.5-.6.8-.9h-56.2v6zm17.5-18.1h-17.5v6h63.8c1.7-1 3.4-2 5.2-2.8.2-.1.5-.2.7-.3.5-.2 1-.4 1.4-.6.7-.3 1.4-.5 2.1-.8l.9-.3c.6-.2 1.2-.3 1.8-.5.3-.1.6-.1.8-.2.9-.2 1.8-.4 2.7-.5h-61.9zm0 24.1h-17.5v6h45.5c.3-.9.5-1.7.9-2.5.1-.2.1-.3.2-.5.3-.7.6-1.4.8-2 .1-.3.3-.6.4-.9h-30.3zm239.3-18.1h.5c-.1 0-.3-.1-.5 0zm24.4 6.1c.3.3.6.6.8.9.3.3.5.6.8.9 1.2 1.3 2.3 2.8 3.3 4.2h51.2v-6h-56.1zm-20.7-11.5c.3.1.6.1.8.2.6.2 1.2.3 1.8.5l.9.3c.7.2 1.4.5 2.1.8.5.2 1 .4 1.4.6.3.1.5.2.7.3 1.8.8 3.6 1.7 5.2 2.8h63.8v-6h-79.6c1.1.1 2 .3 2.9.5zm29.2 23.5c.1.3.3.6.4.9.3.7.6 1.3.8 2 .1.2.1.3.2.5.3.8.6 1.7.9 2.5h45.4v-6l-47.7.1zm124.9-175.3v-.5h-.1c0 .1.1.3.1.5zm7 24.7c-.3-.3-.6-.5-.9-.8v56.2h6v-51.2c-1.5-1-2.9-2.1-4.2-3.3l-.9-.9zm14.6 9.1c-.2-.1-.3-.1-.5-.2-.7-.3-1.4-.5-2-.8-.3-.1-.6-.3-.9-.4v47.8h6V421c-.9-.4-1.8-.6-2.6-.9zm-24.7-23.5c-.2-.5-.4-1-.6-1.4-.3-.7-.5-1.4-.8-2.1l-.3-.9c-.2-.6-.3-1.2-.5-1.8-.1-.3-.1-.6-.2-.8-.2-.9-.4-1.8-.5-2.7v79.6h6v-63.8c-1-1.7-2-3.4-2.8-5.2-.1-.4-.2-.7-.3-.9zm3.1-187v-.6c0 .2-.1.4 0 .6zm18.1-80.6v47.7c.3-.1.6-.3.9-.4.7-.3 1.3-.6 2-.8.2-.1.3-.1.5-.2.8-.3 1.7-.6 2.5-.8V129h-5.9zm-12 56.2c.3-.3.6-.6.9-.8.3-.3.6-.5.9-.8 1.3-1.2 2.8-2.3 4.2-3.3V129h-6v56.2zm-12.1 23.3c.1-.9.3-1.8.5-2.6.1-.3.1-.6.2-.8.2-.6.3-1.2.5-1.8l.3-.9c.2-.7.5-1.4.8-2.1.2-.5.4-1 .6-1.4.1-.3.2-.5.3-.7.8-1.8 1.7-3.6 2.8-5.2v-64h-6v79.5zm-485.7.6v-.1.5h.1c-.1-.1-.1-.2-.1-.4zm-24.2-62.7v28c.9.3 1.7.5 2.5.8.2.1.3.1.5.2.7.3 1.4.5 2 .8.3.1.6.3.9.4v-47.8h-6v17.6zm12.1 33.8c1.5 1 2.9 2.1 4.2 3.3.3.3.6.5.9.8.3.3.6.5.9.8v-56.2h-6v51.3zm12.1-33.8v46.3c1 1.7 2 3.4 2.8 5.2.1.2.2.5.3.8.2.5.4 1 .6 1.4.3.7.5 1.4.8 2.1l.3.9c.2.6.3 1.2.5 1.8.1.3.1.6.2.8.2.9.4 1.8.5 2.7v-79.6h-6v17.6zm0 239.8v-.2c0-.1 0-.3.1-.4h-.1v.6zm5.4 3.2c-.1.3-.1.6-.2.8-.2.6-.3 1.2-.5 1.8l-.3.9c-.2.7-.5 1.4-.8 2.1-.2.5-.4 1-.6 1.4-.1.3-.2.5-.3.8-.8 1.8-1.7 3.6-2.8 5.2v63.8h6v-79.6c-.1 1-.3 1.9-.5 2.8zm-13.3 22.4c-1.3 1.2-2.8 2.3-4.2 3.3v51.2h6v-56.2c-.3.3-.6.6-.9.8l-.9.9zM32.7 419c-.7.3-1.3.6-2 .8-.2.1-.3.1-.5.2-.8.3-1.7.6-2.5.8v45.4h6v-47.7c-.4.2-.7.4-1 .5z"/><path class="st1" d="M112.6 27.6H129v6h-16.4v6.1H129v6h-16.4v6.1H129v6h-22.4V27.6h6zm353.7 0v6h16.4v6.1h-16.4v6h16.4v6.1h-16.4v6h22.4V27.6h-22.4zM379.8 34c5.6 0 10.6-2.5 14.1-6.4h-28.1c3.4 4 8.4 6.4 14 6.4zm0 12.2c12.6 0 23.5-7.6 28.3-18.5h-6.7c-4.3 7.5-12.3 12.5-21.6 12.5-9.2 0-17.3-5.1-21.6-12.5h-6.7c4.8 10.8 15.7 18.5 28.3 18.5zm-204.6-16c.1.2.1.3.2.5.3.7.5 1.4.8 2 .1.3.3.6.4.9 1 2.1 2.2 4.1 3.5 6.1 1 1.5 2.1 2.9 3.3 4.2.3.3.5.6.8.9.3.3.5.6.8.9 2.3 2.3 4.8 4.3 7.6 6.1 1.7 1 3.4 2 5.2 2.8.2.1.5.2.7.3.5.2 1 .4 1.4.6.7.3 1.4.5 2.1.8l.9.3c.6.2 1.2.3 1.8.5.3.1.6.1.8.2.9.2 1.8.4 2.6.5h14c.9-.1 1.8-.3 2.7-.5-.9.2-1.8.4-2.7.5h30c.6-2.1 1.4-4.1 2.3-6h-16.5c2.8-1.7 5.3-3.8 7.6-6.1h12.4c1.5-2.1 3.1-4.2 5-6h-12.4c1.3-1.9 2.5-3.9 3.5-6.1h16.5c4.7-3 10-5.1 15.8-6H250c-4 12.4-14.8 21.8-28 24.2h-.1c-2.1.4-4.2.6-6.4.6-2 0-4-.2-5.9-.5-.2 0-.4-.1-.5-.1-13.2-2.3-24-11.7-28.3-24.1h-6.3c.2.8.4 1.6.7 2.5zm40.3 16c12.6 0 23.5-7.6 28.3-18.5h-6.7c-4.3 7.5-12.3 12.5-21.6 12.5-9.2 0-17.3-5.1-21.6-12.5h-6.7c4.8 10.8 15.7 18.5 28.3 18.5zm113 27.4c0 17-13.8 30.8-30.8 30.8s-30.8-13.8-30.8-30.8 13.8-30.8 30.8-30.8c16.9 0 30.8 13.8 30.8 30.8zm-6 0c0-13.7-11.1-24.8-24.8-24.8-13.7 0-24.8 11.1-24.8 24.8 0 13.7 11.1 24.8 24.8 24.8 13.6 0 24.8-11.1 24.8-24.8zm18-.1c0-23.6-19.2-42.9-42.9-42.9-23.6 0-42.9 19.2-42.9 42.9h6c0-20.3 16.5-36.9 36.9-36.9 20.3 0 36.9 16.5 36.9 36.9h6zM215.5 34c5.6 0 10.6-2.5 14.1-6.4h-28.1c3.4 4 8.4 6.4 14 6.4zm100.8 39.6c0 10.3-8.4 18.7-18.7 18.7s-18.7-8.4-18.7-18.7c0-10.3 8.4-18.7 18.7-18.7 10.3 0 18.7 8.4 18.7 18.7zm-6 0c0-7-5.7-12.7-12.7-12.7-7 0-12.7 5.7-12.7 12.7 0 7 5.7 12.7 12.7 12.7 7 0 12.7-5.7 12.7-12.7zm76-21.8c-.2 0-.4.1-.5.1-1.9.3-3.9.5-5.9.5-2.2 0-4.3-.2-6.4-.6h-.1c-13.2-2.3-24-11.7-28.3-24.1h-36.3c5.7.9 11 3 15.8 6H341c1 2.1 2.2 4.1 3.5 6.1h-12.4c1.8 1.8 3.5 3.9 5 6h12.4c2.3 2.3 4.8 4.3 7.6 6.1h-16.5c.9 1.9 1.7 3.9 2.3 6h30c-.9-.1-1.8-.3-2.7-.5.9.2 1.8.4 2.7.5h14c.9-.1 1.8-.3 2.7-.5.3-.1.6-.1.8-.2.6-.2 1.2-.3 1.8-.5l.9-.3c.7-.2 1.4-.5 2.1-.8.5-.2 1-.4 1.4-.6.3-.1.5-.2.8-.3 1.8-.8 3.6-1.7 5.2-2.8 2.8-1.7 5.3-3.8 7.6-6.1.3-.3.6-.6.8-.9.3-.3.5-.6.8-.9 1.2-1.3 2.3-2.8 3.3-4.2 1.3-1.9 2.5-3.9 3.5-6.1.1-.3.3-.6.4-.9.3-.7.6-1.3.8-2 .1-.2.1-.3.2-.5.3-.8.6-1.7.8-2.5h-6.3c-4.3 12.2-15 21.6-28.2 24zm-12.9 0c-.1 0 0 0 0 0zm109.3 485.7h-16.4v6h16.4v6.1h-16.4v6h16.4v6.1h-16.4v6h22.4v-30.2h-6zm-370.1 0h-6v30.2H129v-6h-16.4v-6.1H129v-6h-16.4v-6.1H129v-6h-16.4zm102.9 23.7c-5.6 0-10.6 2.5-14.1 6.4h28.1c-3.4-3.9-8.4-6.4-14-6.4zm113-39.5c0 17-13.8 30.8-30.8 30.8s-30.8-13.8-30.8-30.8 13.8-30.8 30.8-30.8c16.9-.1 30.8 13.8 30.8 30.8zm-6 0c0-13.7-11.1-24.8-24.8-24.8-13.7 0-24.8 11.1-24.8 24.8 0 13.7 11.1 24.8 24.8 24.8s24.8-11.2 24.8-24.8zm-6.2 0c0 10.3-8.4 18.7-18.7 18.7-10.3 0-18.7-8.4-18.7-18.7s8.4-18.7 18.7-18.7c10.3 0 18.7 8.3 18.7 18.7zm-6 0c0-7-5.7-12.7-12.7-12.7-7 0-12.7 5.7-12.7 12.7 0 7 5.7 12.7 12.7 12.7 7-.1 12.7-5.7 12.7-12.7zm109.5 42.9c-.3-.7-.6-1.4-.8-2-.1-.3-.3-.6-.4-.9-1-2.1-2.2-4.1-3.5-6.1-1-1.5-2.1-2.9-3.3-4.2-.3-.3-.5-.6-.8-.9-.3-.3-.5-.6-.8-.9-2.3-2.3-4.9-4.3-7.6-6.1-1.7-1-3.4-2-5.2-2.8-.2-.1-.5-.2-.7-.3-.5-.2-1-.4-1.4-.6-.7-.3-1.4-.5-2.1-.8l-.9-.3c-.6-.2-1.2-.3-1.8-.5-.3-.1-.6-.1-.8-.2-.9-.2-1.8-.4-2.7-.5h-14c-.9.1-1.8.3-2.7.5.9-.2 1.8-.4 2.7-.5h-30c-.6 2.1-1.4 4.1-2.3 6H357c-2.8 1.7-5.3 3.8-7.6 6.1H337c-1.5 2.1-3.1 4.2-5 6h12.4c-1.3 1.9-2.5 3.9-3.5 6.1h-16.5c-4.7 3-10 5.1-15.8 6h36.3c4.4-12.4 15.1-21.8 28.3-24.1h.1c2.1-.4 4.2-.6 6.4-.6 2 0 4 .2 5.9.5.2 0 .4.1.5.1 13.2 2.3 24 11.7 28.3 24.1h6.3c-.3-.9-.5-1.7-.9-2.5.2-.3.1-.4 0-.6zm-204.3-15.5c-12.6 0-23.5 7.6-28.3 18.5h6.7c4.3-7.5 12.3-12.5 21.6-12.5 9.2 0 17.3 5.1 21.6 12.5h6.7c-4.8-10.9-15.7-18.5-28.3-18.5zm38.8 12.5c-1-2.1-2.2-4.1-3.5-6.1h12.4c-1.8-1.8-3.5-3.9-5-6h-12.4c-2.3-2.3-4.8-4.3-7.6-6.1h16.5c-.9-1.9-1.7-3.9-2.3-6h-30c.9.1 1.8.3 2.7.5-.9-.2-1.8-.4-2.7-.5h-14c-.9.1-1.8.3-2.7.5-.3.1-.6.1-.8.2-.6.2-1.2.3-1.8.5l-.9.3c-.7.2-1.4.5-2.1.8-.5.2-1 .4-1.4.6-.3.1-.5.2-.7.3-1.8.8-3.6 1.7-5.2 2.8-2.8 1.7-5.3 3.8-7.6 6.1-.3.3-.6.6-.8.9-.3.3-.5.6-.8.9-1.2 1.3-2.3 2.8-3.3 4.2-1.3 1.9-2.5 3.9-3.5 6.1-.1.3-.3.6-.4.9-.3.7-.6 1.3-.8 2-.1.2-.1.3-.2.5-.3.8-.6 1.7-.9 2.5h6.3c4.4-12.4 15.1-21.8 28.3-24.1.2 0 .4-.1.5-.1 1.9-.3 3.9-.5 5.9-.5 2.2 0 4.3.2 6.4.6h.1c13.2 2.3 24 11.7 28.3 24.1h36.3c-5.7-.9-11-3-15.8-6h-16.5zm125.5-12.5c-12.6 0-23.5 7.6-28.3 18.5h6.7c4.3-7.5 12.3-12.5 21.6-12.5 9.2 0 17.3 5.1 21.6 12.5h6.7c-4.8-10.9-15.7-18.5-28.3-18.5zm-39.3-27.3h-6c0 20.3-16.5 36.9-36.9 36.9-20.3 0-36.9-16.5-36.9-36.9h-6c0 23.6 19.2 42.9 42.9 42.9 23.7-.1 42.9-19.3 42.9-42.9zm39.3 39.4c-5.6 0-10.6 2.5-14.1 6.4h28.1c-3.4-3.9-8.4-6.4-14-6.4zm181.8-454.6h-24.2V129h6v-16.4h6.1V129h6v-16.4h6.1V129h6v-22.4h-6zm0 376.1h-6.1v-16.4h-6v16.4h-6.1v-16.4h-6v22.4h30.2v-22.4h-6v16.4zm-18.1-109.3c0-.1 0 0 0 0zm18.1-32.4c-2.1 1-4.1 2.2-6.1 3.5v-12.4c-1.8 1.8-3.9 3.5-6 5v12.4c-2.3 2.3-4.3 4.8-6.1 7.6v-16.5c-1.9.9-3.9 1.7-6 2.3v30c.1-.9.3-1.8.5-2.7-.2.9-.4 1.8-.5 2.7v14c.1.9.3 1.8.5 2.7.1.3.1.6.2.8.2.6.3 1.2.5 1.8l.3.9c.2.7.5 1.4.8 2.1.2.5.4 1 .6 1.4.1.3.2.5.3.8.8 1.8 1.7 3.6 2.8 5.2 1.7 2.8 3.8 5.3 6.1 7.6.3.3.6.6.9.8.3.3.6.5.9.8 1.3 1.2 2.8 2.3 4.2 3.3 1.9 1.3 3.9 2.5 6.1 3.5.3.1.6.3.9.4.7.3 1.3.6 2 .8.2.1.3.1.5.2.8.3 1.7.6 2.5.8v-6.3c-12.4-4.4-21.8-15.1-24.1-28.3 0-.2-.1-.4-.1-.5-.3-1.9-.5-3.9-.5-5.9 0-2.2.2-4.3.6-6.4v-.1c2.3-13.2 11.7-24 24.1-28.3v-36.3c-.9 5.7-3 11-6 15.8V341zm-.4-125.5c0 5.6 2.5 10.6 6.4 14.1v-28.1c-3.9 3.4-6.4 8.4-6.4 14zm3.9-40.3c-.2.1-.3.1-.5.2-.7.3-1.4.5-2 .8-.3.1-.6.3-.9.4-2.1 1-4.1 2.2-6.1 3.5-1.5 1-2.9 2.1-4.2 3.3-.3.3-.6.5-.9.8-.3.3-.6.5-.9.8-2.3 2.3-4.3 4.8-6.1 7.6-1 1.7-2 3.4-2.8 5.2-.1.2-.2.5-.3.7-.2.5-.4 1-.6 1.4-.3.7-.5 1.4-.8 2.1l-.3.9c-.2.6-.3 1.2-.5 1.8-.1.3-.1.6-.2.8-.2.9-.4 1.8-.5 2.6v14c.1.9.3 1.8.5 2.7-.2-.9-.4-1.8-.5-2.7v30c2.1.6 4.1 1.4 6 2.3v-16.5c1.7 2.8 3.8 5.3 6.1 7.6v12.4c2.1 1.5 4.2 3.1 6 5v-12.4c1.9 1.3 3.9 2.5 6.1 3.5v16.5c3 4.7 5.1 10 6 15.8V250c-12.4-4.4-21.8-15.1-24.1-28.3v-.1c-.4-2.1-.6-4.2-.6-6.4 0-16.1 10.3-29.8 24.7-34.8v-6.3c-.9.6-1.8.8-2.6 1.1zm-3.9 204.6c0 5.6 2.5 10.6 6.4 14.1v-28.1c-3.9 3.4-6.4 8.4-6.4 14zm-17.7-157.9s0 .1 0 0zm5.6-6.4c0 12.6 7.6 23.5 18.5 28.3v-6.7c-7.5-4.3-12.5-12.3-12.5-21.6 0-9.2 5.1-17.3 12.5-21.6v-6.7c-10.9 4.8-18.5 15.7-18.5 28.3zm0 164.3c0 12.6 7.6 23.5 18.5 28.3v-6.7c-7.5-4.3-12.5-12.3-12.5-21.6 0-9.2 5.1-17.3 12.5-21.6v-6.7c-10.9 4.8-18.5 15.7-18.5 28.3zm15.5-82.2c0-23.6-19.2-42.9-42.9-42.9v6c20.3 0 36.9 16.5 36.9 36.9 0 20.3-16.5 36.9-36.9 36.9v6c23.7 0 42.9-19.2 42.9-42.9zm-24.3 0c0 10.3-8.4 18.7-18.7 18.7s-18.7-8.4-18.7-18.7c0-10.3 8.4-18.7 18.7-18.7s18.7 8.4 18.7 18.7zm-6 0c0-7-5.7-12.7-12.7-12.7s-12.7 5.7-12.7 12.7c0 7 5.7 12.7 12.7 12.7s12.7-5.7 12.7-12.7zm-12.6 30.9c-17 0-30.8-13.8-30.8-30.8s13.8-30.8 30.8-30.8 30.8 13.8 30.8 30.8c0 16.9-13.8 30.8-30.8 30.8zm24.8-30.9c0-13.7-11.1-24.8-24.8-24.8s-24.8 11.1-24.8 24.8c0 13.7 11.1 24.8 24.8 24.8s24.8-11.1 24.8-24.8zM57.8 466.3h-6v16.4h-6.1v-16.4h-6v16.4h-6.1v-16.4h-6v22.4h30.2v-22.4zM33.6 112.6h6.1V129h6v-16.4h6.1V129h6v-22.4H27.6V129h6v-16.4zm-2.9 307.2c.7-.3 1.4-.5 2-.8.3-.1.6-.3.9-.4 2.1-1 4.1-2.2 6.1-3.5 1.5-1 2.9-2.1 4.2-3.3.3-.3.6-.5.9-.8.3-.3.6-.5.9-.8 2.3-2.3 4.3-4.8 6.1-7.6 1-1.7 2-3.4 2.8-5.2.1-.3.2-.5.3-.8.2-.5.4-1 .6-1.4.3-.7.5-1.4.8-2.1l.3-.9c.2-.6.3-1.2.5-1.8.1-.3.1-.6.2-.8.2-.9.4-1.8.5-2.6v-14c-.1-.9-.3-1.8-.5-2.7.2.9.4 1.8.5 2.7v-30c-2.1-.6-4.1-1.4-6-2.3V357c-1.7-2.8-3.8-5.3-6.1-7.6V337c-2.1-1.5-4.2-3.1-6-5v12.4c-1.9-1.3-3.9-2.5-6.1-3.5v-16.5c-3-4.7-5.1-10-6-15.8v36.3c12.4 4.4 21.8 15.1 24.1 28.3v.1c.4 2.1.6 4.2.6 6.4s-.2 4.3-.5 6.3v.2c-2.3 13.2-11.7 24-24.1 28.3v6.3c.9-.3 1.7-.5 2.5-.8.1 0 .3-.1.5-.2zm3.3-40c0-5.6-2.5-10.6-6.4-14.1v28.1c4-3.4 6.4-8.4 6.4-14zm2.6-82.2c0-20.3 16.5-36.9 36.9-36.9v-6c-23.6 0-42.9 19.2-42.9 42.9 0 23.6 19.2 42.9 42.9 42.9v-6c-20.3 0-36.9-16.5-36.9-36.9zm9.6 82.2c0-12.6-7.6-23.5-18.5-28.3v6.7c7.5 4.3 12.5 12.3 12.5 21.6 0 9.2-5.1 17.3-12.5 21.6v6.7c10.8-4.8 18.5-15.7 18.5-28.3zm58.2-82.2c0 17-13.8 30.8-30.8 30.8s-30.8-13.8-30.8-30.8 13.8-30.8 30.8-30.8 30.8 13.8 30.8 30.8zm-6 0c0-13.7-11.1-24.8-24.8-24.8-13.7 0-24.8 11.1-24.8 24.8 0 13.7 11.1 24.8 24.8 24.8s24.8-11.1 24.8-24.8zm-64.8-43.3c2.1-1 4.1-2.2 6.1-3.5v12.4c1.8-1.8 3.9-3.5 6-5v-12.4c2.3-2.3 4.3-4.8 6.1-7.6v16.5c1.9-.9 3.9-1.7 6-2.3v-30c-.1.9-.3 1.8-.5 2.7.2-.9.4-1.8.5-2.7v-14c-.1-.9-.3-1.8-.5-2.7-.1-.3-.1-.6-.2-.8-.2-.6-.3-1.2-.5-1.8l-.3-.9c-.2-.7-.5-1.4-.8-2.1-.2-.5-.4-1-.6-1.4-.1-.3-.2-.5-.3-.8-.8-1.8-1.7-3.6-2.8-5.2-1.7-2.8-3.8-5.3-6.1-7.6-.3-.3-.6-.6-.9-.8-.3-.3-.6-.5-.9-.8-1.3-1.2-2.8-2.3-4.2-3.3-1.9-1.3-3.9-2.5-6.1-3.5-.3-.1-.6-.3-.9-.4-.7-.3-1.3-.6-2-.8-.2-.1-.3-.1-.5-.2-.8-.3-1.7-.6-2.5-.8v6.3c12.3 4.2 21.7 15 24.1 28.2v.1c.4 2.1.6 4.2.6 6.4s-.2 4.3-.6 6.4v.1c-2.3 13.2-11.7 24-24.1 28.3v36.3c.9-5.7 3-11 6-15.8v-16.5zm58.7 43.3c0 10.3-8.4 18.7-18.7 18.7s-18.7-8.4-18.7-18.7c0-10.3 8.4-18.7 18.7-18.7 10.3 0 18.7 8.4 18.7 18.7zm-6 0c0-7-5.7-12.7-12.7-12.7-7 0-12.7 5.7-12.7 12.7 0 7 5.7 12.7 12.7 12.7 7 0 12.7-5.7 12.7-12.7zM34 215.5c0-5.6-2.5-10.6-6.4-14.1v28.1c4-3.4 6.4-8.4 6.4-14zm12.2 0c0-12.6-7.6-23.5-18.5-28.3v6.7c7.5 4.3 12.5 12.3 12.5 21.6 0 9.2-5.1 17.3-12.5 21.6v6.7c10.8-4.8 18.5-15.7 18.5-28.3z"/><path class="st2" d="M70.5 537.4h6v30.2h-6v-30.2zm-12.7-12.7v-6H27.6v6c0 23.6 19.2 42.9 42.9 42.9v-6c-20.3 0-36.9-16.5-36.9-36.9h6.1c0 17 13.8 30.8 30.8 30.8v-6c-13.7 0-24.8-11.1-24.8-24.8h6.1c0 10.3 8.4 18.7 18.7 18.7v-6c-7 0-12.7-5.7-12.7-12.7zm37 42.9h6v-30.1h-6v30.1zm-11.7 0h6v-30.1h-6v30.1zm-25.3-73.1H27.6v6h30.1v-6zm0 11.7H27.6v6h30.1v-6zM567.6 70.5v6h-30.2v-6c0-7-5.7-12.7-12.7-12.7h-6V27.6h6c23.7 0 42.9 19.3 42.9 42.9zm-18 0c0-13.7-11.1-24.8-24.8-24.8v6.1c10.3 0 18.7 8.4 18.7 18.7h6.1zm12 0c0-20.3-16.5-36.9-36.9-36.9v6.1c17 0 30.8 13.8 30.8 30.8h6.1zm-24.1 18.6h30.1v-6h-30.1v6zm-43-31.3h6V27.6h-6v30.2zm11.7 0h6V27.6h-6v30.2zm31.3 43h30.1v-6h-30.1v6zm0 399.7h30.1v-6h-30.1v6zm-.1 18.2h30.2v6c0 23.6-19.2 42.9-42.9 42.9h-6v-30.2h6c7 0 12.7-5.7 12.7-12.7v-6zm18.2 6c0 17-13.8 30.8-30.8 30.8v6.1c20.3 0 36.9-16.5 36.9-36.9h-6.1zm-30.8 18.7v6.1c13.7 0 24.8-11.1 24.8-24.8h-6.1c-.1 10.4-8.4 18.7-18.7 18.7zm-30.3 24.2h6v-30.1h-6v30.1zm43-55.4h30.1v-6h-30.1v6zm-31.3 55.4h6v-30.1h-6v30.1zM57.8 94.8H27.6v6h30.1v-6zm0-11.7H27.6v6h30.1v-6zm12.7-55.5h6v30.2h-6c-7 0-12.7 5.7-12.7 12.7v6H27.6v-6c0-23.6 19.3-42.9 42.9-42.9zm0 18.1c-13.7 0-24.8 11.2-24.8 24.9h6.1c0-10.3 8.4-18.7 18.7-18.7v-6.2zm0-12.1c-20.3 0-36.9 16.6-36.9 36.9h6.1c0-17 13.8-30.8 30.8-30.8v-6.1zm12.6 24.2h6V27.6h-6v30.2zm11.7 0h6V27.6h-6v30.2z"/></svg>