<svg id="Layer_1" xmlns="http://www.w3.org/2000/svg" viewBox="0 0 595.3 595.3"><style>.st0{fill:#9e1f63}.st1{fill:#f7941d}.st2{fill:#1b75bc}</style><path class="st0" d="M568 478.2v5.8-5.8zm-6-355.1l6-6v361.1l-6-6V322l-9 9v132.2l-4.2 4.2-1.8 1.8v-62.6l-34.2-34.2 13.2-13.2v-23.6l36-36v-3.3l-36-36v-23.6l-13.2-13.2 34.2-34.2V126l1.8 1.8 4.2 4.2v133.1l9 9v-151zM547 366l-6.4 6.4 6.4 6.4V366zm0-19.3l-25.7 25.7 25.7 25.7v-10.8l-10.6-10.6-4.2-4.2 4.2-4.2 10.6-10.6v-11zm15-38.5l-30 30v15.1l15-15v-9.7l15-15v-5.4zm-15-58.8v-10.8L536.4 228l-4.2-4.2 4.2-4.2L547 209v-11l-25.7 25.7 25.7 25.7zm-6.3-25.7l6.4 6.4v-12.8l-6.4 6.4zm21.3 58.9l-9-9-6-6v-9.7l-15-15V258l30 30v-5.4zm6-171.3v5.8-5.8zm-540.8 0v5.8-5.8zm0 372.7v-5.8 5.8zm55.2-261.2L69.2 236v23.6l-36 36v3.3l36 36v23.6l13.2 13.2-34.2 34.2v63.5l-1.8-1.8-4.2-4.2V330.1l-9-9v151.1l-6 6V117.1l6 6v150.2l9-9V132l4.2-4.2 1.8-1.8v62.6l34.2 34.2zm-34.2 123v10.8l10.6 10.6 4.2 4.2-4.2 4.2-10.6 10.6V397l25.7-25.7-25.7-25.5zm6.4 25.7l-6.4-6.4v12.8l6.4-6.4zm-21.4-64.2v5.4l9 9 6 6v9.7l15 15v-15.1l-30-30zm15-78.1l6.4-6.4-6.4-6.4v12.8zm15 12.9l-15 15v9.7l-15 15v5.4l30-30v-15.1zm10.7-19.3l-25.7-25.7V208l10.6 10.6 4.2 4.2-4.2 4.2-10.6 10.6v10.8l25.7-25.6zm42.9-195.1h-5.9v-.1h372.7v.1h-5l-5.9 5.9h-151l9 9h133l4.2 4.2 1.7 1.7h-63.3L372 82.8l-13.2-13.2h-23.6l-36-36H296l-36 36h-23.6l-13.2 13.2L189 48.6h-63.2l1.7-1.7 4.2-4.2h132.9l9-9H122.7l-5.9-6zm248.8 20.9L372 55l6.4-6.4h-12.8zm-19.3 0L372 74.3l25.7-25.7h-10.8l-10.6 10.6-4.2 4.2-4.2-4.2-10.6-10.6h-11zm-38.6-15l30 30h15.1l-15-15h-9.7l-15-15h-5.4zm-90.8 15l6.4 6.4 6.4-6.4h-12.8zm32.1 0h-10.8l-10.6 10.6-4.2 4.2-4.2-4.2-10.6-10.6h-10.8l25.7 25.7L249 48.6zm33.1-15l-9 9-6 6h-9.7l-15 15h15.1l30-30h-5.4zm196.4 534h5.9v.1H111.8v-.1h5l5.9-5.9h151l-9-9h-133l-4.2-4.2-1.7-1.7h63.3l34.2-34.2 13.2 13.2h23.6l36 36h3.3l36-36H359l13.2-13.2 34.2 34.2h63.2l-1.7 1.7-4.2 4.2H330.6l-9 9h150.9l6 5.9zm-248.8-20.9l-6.4-6.4-6.4 6.4h12.8zm19.3 0L223.3 521l-25.7 25.7h10.8l10.6-10.6 4.2-4.2 4.2 4.2 10.6 10.6h11zm38.6 15l-30-30h-15.1l15 15h9.7l15 15h5.4zm90.8-15l-6.4-6.4-6.4 6.4h12.8zm-32.1 0h10.8l10.6-10.6 4.2-4.2 4.2 4.2 10.6 10.6h10.8L372 521l-25.7 25.7zm-33.1 15l9-9 6-6h9.7l15-15h-15.1l-30 30h5.4z"/><path class="st1" d="M547 142v6c-17 0-30.8-13.8-30.8-30.8h6c0 13.7 11.2 24.8 24.8 24.8zm-36.8-24.8h-6c0 23.6 19.2 42.9 42.9 42.9v-6c-20.4 0-36.9-16.6-36.9-36.9zm24.2 0h-6c0 10.3 8.4 18.7 18.7 18.7v-6c-7.1 0-12.7-5.7-12.7-12.7zm-30.2 361h6c.4-20 16.8-36.1 36.9-36.1v-6c-23.5-.1-42.5 18.8-42.9 42.1zm24.2 0h6c.4-6.7 5.9-12 12.7-12v-6c-10.1 0-18.3 8-18.7 18zm-12.2 0h6c.4-13.3 11.4-24.1 24.8-24.1v-6c-16.7 0-30.4 13.4-30.8 30.1zm-468-18.8v6c7 0 12.7 5.7 12.7 12.7h6c0-10.4-8.4-18.7-18.7-18.7zm0-24.2v6c20.3 0 36.9 16.5 36.9 36.9h6c0-23.7-19.2-42.9-42.9-42.9zm0 12v6c13.7 0 24.8 11.1 24.8 24.8h6c.1-16.9-13.8-30.8-30.8-30.8zM79 117.1h-6c-.4 13.3-11.4 24.1-24.8 24.1v6c16.8-.1 30.4-13.5 30.8-30.1zm12.1 0h-6c-.4 20-16.8 36.1-36.9 36.1v6c23.4 0 42.5-18.8 42.9-42.1zm-24.2 0h-6c-.4 6.6-5.9 11.9-12.7 11.9v6c10.1 0 18.3-8 18.7-17.9zm80.7-68.5h-6c0 13.7-11.1 24.8-24.8 24.8v6c17 0 30.8-13.8 30.8-30.8zm12 0h-6c0 20.3-16.5 36.9-36.8 36.9v6c23.6 0 42.8-19.2 42.8-42.9zm-24.1 0h-6c0 7-5.7 12.7-12.7 12.7v6c10.3 0 18.7-8.4 18.7-18.7zm318.2 0h-6c0 17 13.8 30.8 30.8 30.8v-6c-13.7 0-24.8-11.1-24.8-24.8zm-12.1 0h-6c0 23.6 19.2 42.9 42.9 42.9v-6c-20.4 0-36.9-16.5-36.9-36.9zm24.2 0h-6c0 10.3 8.4 18.7 18.7 18.7v-6c-7 0-12.7-5.7-12.7-12.7zm-18.1 498.1h6c0-13.7 11.1-24.8 24.8-24.8v-6c-17 0-30.8 13.8-30.8 30.8zm-12.1 0h6c0-20.3 16.5-36.9 36.8-36.9v-6c-23.5 0-42.8 19.2-42.8 42.9zm24.2 0h6c0-7 5.7-12.7 12.7-12.7v-6c-10.3 0-18.7 8.4-18.7 18.7zm-343-30.9v6c13.7 0 24.8 11.1 24.8 24.8h6c0-16.9-13.8-30.8-30.8-30.8zm0-12v6c20.3 0 36.9 16.5 36.9 36.9h6c0-23.7-19.3-42.9-42.9-42.9zm0 24.2v6c7 0 12.7 5.7 12.7 12.7h6c0-10.3-8.4-18.7-18.7-18.7z"/><path class="st2" d="M521.4 264.7h-6v68.4h6l34.2-34.2-34.2-34.2zm0 59.9V313h.1l10.7-10.7 4.2-4.2-4.2-4.2-10.7-10.7h-.1v-9.9l25.7 25.7-25.7 25.6zm.1-20v-13l6.5 6.5-6.5 6.5zm-447.6 26h6v-68.4h-6l-34.2 34.2 34.2 34.2zm0-59.9v11.5h-.1L63 292.9l-4.2 4.2 4.2 4.2L73.7 312h.1v9.9l-25.7-25.7 25.8-25.5zm-.1 20v13l-6.5-6.5 6.5-6.5zM298.4 40.1l-34.2 34.2v6h68.4v-6l-34.2-34.2zm-7.3 34.1l6.5-6.5 6.5 6.5h-13zm21.5.1l-10.7-10.8-4.2-4.2-4.2 4.2-10.7 10.7v.1h-9.9l25.7-25.7 25.7 25.7h-11.7zm216.6 26.8h38.7v-6l-67.5-67.5h-6v37.2c-1.9 9.7 1 20.1 8.5 27.6 7.2 7.2 17 10.1 26.3 8.7zm-26.3-52.3c-.9.9-1.7 1.8-2.5 2.8V36.1l59 59h-16c1.1-.8 2.1-1.7 3.1-2.7l-4.2-4.2c-9.7 9.7-25.4 9.7-35.1 0-9.7-9.7-9.7-25.4 0-35.1l-4.3-4.3zm8.6 8.6l4.2 4.2c-4.9 4.9-4.9 13 0 18 4.9 4.9 13 4.9 18 0l4.2 4.2c-7.3 7.3-19.1 7.3-26.4 0-7.3-7.3-7.3-19.1 0-26.4zm-43.8-10.5l1.7 1.7 9 9v59.5H538l8.9 8.9 1.8 1.8 4.2 4.2 4.2-4.2 4.7-4.7 6-6v-6H509l-24.5-24.5V27.7h-6l-5.9 5.9-4.8 4.8-4.2 4.2 4.1 4.3zm91.9 70.2l-6.5 6.5-6.5-6.5h13zM484.5 95l16.1 16.1h-16.1V95zm-6-58.8v13l-6.5-6.5 6.5-6.5zM66 101.1c9.3 1.4 19.1-1.5 26.3-8.7 7.5-7.5 10.3-17.9 8.5-27.6V27.6h-6L27.3 95.1v6H66zm-14.2-6h-16l59-59v15.5c-.8-1-1.6-1.9-2.5-2.8L88.1 53c9.7 9.7 9.7 25.4 0 35.1-9.7 9.7-25.4 9.7-35.1 0l-4.2 4.2c.9 1.1 2 2 3 2.8zm5.5-11.3l4.2-4.2c4.9 4.9 13 4.9 18 0 4.9-4.9 4.9-13 0-18l4.2-4.2c7.3 7.3 7.3 19.1 0 26.4-7.2 7.3-19.1 7.3-26.4 0zm74.4-41.2l-4.2-4.2-4.8-4.8-5.9-5.9h-6v58.8L86.3 111H27.2v6l6 6 4.7 4.7 4.2 4.2 4.2-4.2 1.8-1.8L57 117h59.8V57.6l9-9 1.7-1.7 4.2-4.3zm-89.5 81l-6.5-6.5h13l-6.5 6.5zm68.6-12.5H94.7L110.8 95v16.1zm6-62v-13l6.5 6.5-6.5 6.5zM262.7 521l34.2 34.2L331 521v-6h-68.4v6zm41.4.1l-6.5 6.5-6.5-6.5h13zm-21.4-.1l10.7 10.8 4.2 4.2 4.2-4.2 10.7-10.7v-.1h9.9l-25.7 25.7-25.6-25.7h11.6zM66 494.2H27.3v6l67.5 67.5h6v-37.2c1.9-9.7-1-20.1-8.5-27.6-7.1-7.2-16.9-10.1-26.3-8.7zm26.3 52.3c.9-.9 1.7-1.8 2.5-2.8v15.5l-59-59h16c-1.1.8-2.1 1.7-3.1 2.7l4.2 4.2c9.7-9.7 25.4-9.7 35.1 0 9.7 9.7 9.7 25.4 0 35.1l4.3 4.3zm-8.5-8.6l-4.2-4.2c4.9-4.9 4.9-13 0-18-4.9-4.9-13-4.9-18 0l-4.2-4.2c7.3-7.3 19.1-7.3 26.4 0 7.2 7.2 7.2 19.1 0 26.4zm43.7 10.5l-1.7-1.7-9-9v-59.5H57.2l-8.9-8.9-1.8-1.8-4.2-4.2-4.2 4.2-4.7 4.7-6 6v6h59l24.5 24.5v58.8h6l5.9-5.9 4.8-4.8 4.2-4.2-4.3-4.2zm-91.8-70.2l6.5-6.5 6.5 6.5h-13zm75.1 22l-16.1-16.1h16.1v16.1zm6 58.9v-13l6.5 6.5-6.5 6.5zM538 511.5l-4.2 4.2c-4.9-4.9-13-4.9-18 0-4.9 4.9-4.9 13 0 18l-4.2 4.2c-7.3-7.3-7.3-19.1 0-26.4 7.2-7.3 19.1-7.3 26.4 0zm19.3-44l-4.2-4.2-4.2 4.2-1.8 1.8-8.9 8.9h-59.6v59.5l-9 9-1.7 1.7-4.2 4.2 4.2 4.2 4.8 4.8 5.9 5.9h6v-58.8l24.5-24.5H568v-6l-6-6-4.7-4.7zm-78.8 91.6l-6.5-6.5 6.5-6.5v13zm6-58.9v-16.1h16.1l-16.1 16.1zm62.1-22l6.5-6.5 6.5 6.5h-13zm-17.4 16c-9.3-1.4-19.1 1.5-26.3 8.7-7.5 7.5-10.3 17.9-8.5 27.6v37.2h6l67.5-67.5v-6h-38.7zm14.3 6h16l-59 59v-15.5c.8 1 1.6 1.9 2.5 2.8l4.2-4.2c-9.7-9.7-9.7-25.4 0-35.1 9.7-9.7 25.4-9.7 35.1 0l4.2-4.2c-.9-1.1-2-2-3-2.8z"/></svg>