<svg id="Layer_1" xmlns="http://www.w3.org/2000/svg" viewBox="0 0 595.3 595.3"><style>.st0{fill:#1a1a1a}.st1{fill:#fff}</style><path class="st0" d="M532.9 298.3c0-12.4-7-23.2-17.2-28.7 8.6-7.9 12.6-20.2 9.3-32.3-3.2-12-12.7-20.6-24-23.2 6.2-9.9 6.9-22.8.7-33.6a32.46 32.46 0 0 0-29.2-16.2c3.5-11.1.8-23.8-8.1-32.6-8.8-8.8-21.3-11.5-32.4-8.1.4-11.7-5.4-23.2-16.2-29.4-10.7-6.2-23.6-5.6-33.4.6-2.6-11.4-11.2-21-23.3-24.2-12-3.2-24.2.7-32.1 9.2-5.4-10.3-16.3-17.4-28.7-17.4-12.4 0-23.2 7-28.7 17.2-7.9-8.6-20.2-12.6-32.3-9.3-12 3.2-20.6 12.7-23.2 24-9.9-6.2-22.8-6.9-33.6-.7a32.46 32.46 0 0 0-16.2 29.2c-11.1-3.5-23.8-.8-32.6 8.1-8.8 8.8-11.5 21.3-8.1 32.4-11.7-.4-23.2 5.4-29.4 16.2-6.2 10.7-5.6 23.6.6 33.4-11.4 2.6-21 11.2-24.2 23.3-3.2 12 .7 24.2 9.2 32.1-10.3 5.4-17.4 16.3-17.4 28.7 0 12.4 7 23.2 17.2 28.7-8.6 7.9-12.6 20.2-9.3 32.3 3.2 12 12.7 20.6 24 23.2-6.2 9.9-6.9 22.8-.7 33.6a32.46 32.46 0 0 0 29.2 16.2c-3.5 11.1-.8 23.8 8.1 32.6 8.8 8.8 21.3 11.5 32.4 8.1-.4 11.7 5.4 23.2 16.2 29.4 10.7 6.2 23.6 5.6 33.4-.6 2.6 11.4 11.2 21 23.3 24.2 12 3.2 24.2-.7 32.1-9.2 5.4 10.3 16.3 17.4 28.7 17.4 12.4 0 23.2-7 28.7-17.2 7.9 8.6 20.2 12.6 32.3 9.3 12-3.2 20.6-12.7 23.2-24 9.9 6.2 22.8 6.9 33.6.7a32.46 32.46 0 0 0 16.2-29.2c11.1 3.5 23.8.8 32.6-8.1 8.8-8.8 11.5-21.3 8.1-32.4 11.7.4 23.2-5.4 29.4-16.2 6.2-10.7 5.6-23.6-.6-33.4 11.4-2.6 21-11.2 24.2-23.3 3.2-12-.7-24.2-9.2-32.1 10.4-5.4 17.4-16.2 17.4-28.7zm-454.8-.7c0-7.7 12-7.7 12 0 0 7.8-12 7.8-12 0zm7.5 56.9c-2-7.5 9.6-10.6 11.6-3.1 2 7.4-9.6 10.5-11.6 3.1zm11.6-110.6c-2 7.5-13.6 4.4-11.6-3.1 2-7.4 13.6-4.3 11.6 3.1zm390.5-56c3.9 6.7-6.5 12.7-10.4 6-3.8-6.7 6.6-12.7 10.4-6zm-34.9-45.5c5.5 5.5-3 14-8.5 8.5-5.4-5.5 3.1-13.9 8.5-8.5zm-45.4-34.9c6.7 3.9.7 14.3-6 10.4-6.7-3.8-.7-14.2 6-10.4zm-52.9-21.9c7.5 2 4.4 13.6-3.1 11.6s-4.4-13.6 3.1-11.6zm-56.9-7.5c7.7 0 7.7 12 0 12s-7.7-12 0-12zm-56.8 7.5c7.5-2 10.6 9.6 3.1 11.6-7.4 2-10.5-9.6-3.1-11.6zm-52.9 21.9c6.7-3.9 12.7 6.5 6 10.4-6.7 3.9-12.7-6.5-6-10.4zm-45.5 34.9c5.5-5.5 14 3 8.5 8.5s-13.9-3-8.5-8.5zm-34.9 45.5c3.9-6.7 14.3-.7 10.4 6-3.8 6.7-14.2.7-10.4-6zm0 219.5c-3.9-6.7 6.5-12.7 10.4-6 3.9 6.7-6.5 12.7-10.4 6zm34.9 45.4c-5.5-5.5 3-14 8.5-8.5s-3 14-8.5 8.5zm45.5 34.9c-6.7-3.9-.7-14.3 6-10.4 6.7 3.9.7 14.3-6 10.4zm52.9 22c-7.5-2-4.4-13.6 3.1-11.6s4.4 13.6-3.1 11.6zm56.8 7.4c-7.7 0-7.7-12 0-12 7.8 0 7.8 12 0 12zm56.9-7.4c-7.5 2-10.6-9.6-3.1-11.6 7.4-2 10.5 9.6 3.1 11.6zm52.9-22c-6.7 3.9-12.7-6.5-6-10.4 6.7-3.8 12.7 6.6 6 10.4zm45.4-34.9c-5.5 5.5-14-3-8.5-8.5 5.5-5.4 14 3.1 8.5 8.5zm34.9-45.4c-3.9 6.7-14.3.7-10.4-6 3.9-6.7 14.3-.7 10.4 6zm-190.1 81.4c-105.6 0-191.2-85.6-191.2-191.2S192 106.4 297.6 106.4 488.8 192 488.8 297.6s-85.6 191.2-191.2 191.2zm212.1-248c2 7.5-9.6 10.6-11.6 3.1-2-7.4 9.6-10.5 11.6-3.1zm0 113.7c-2 7.5-13.6 4.4-11.6-3.1s13.6-4.4 11.6 3.1zm-4.6-56.9c0-7.7 12-7.7 12 0 0 7.8-12 7.8-12 0z"/><path class="st1" d="M297.6 78.1c7.7 0 7.7 12 0 12s-7.7-12 0-12zm0 427c-7.7 0-7.7 12 0 12 7.8 0 7.8-12 0-12zM243.9 97.2c7.5-2 4.4-13.6-3.1-11.6-7.4 2-4.3 13.6 3.1 11.6zm107.4 400.9c-7.5 2-4.4 13.6 3.1 11.6s4.4-13.6-3.1-11.6zM193.9 117.9c6.7-3.9.7-14.3-6-10.4-6.7 3.9-.7 14.3 6 10.4zm207.5 359.4c-6.7 3.9-.7 14.3 6 10.4 6.7-3.8.7-14.2-6-10.4zM150.9 150.9c5.5-5.5-3-14-8.5-8.5-5.4 5.5 3 14 8.5 8.5zm293.5 293.5c-5.5 5.5 3 14 8.5 8.5 5.4-5.5-3.1-14-8.5-8.5zM117.9 193.9c3.9-6.7-6.5-12.7-10.4-6-3.8 6.7 6.6 12.7 10.4 6zm359.4 207.5c-3.9 6.7 6.5 12.7 10.4 6 3.9-6.7-6.5-12.7-10.4-6zM85.6 240.8c-2 7.5 9.6 10.6 11.6 3.1 2-7.4-9.6-10.5-11.6-3.1zm412.5 110.5c-2 7.5 9.6 10.6 11.6 3.1 2-7.4-9.6-10.5-11.6-3.1zm-408-53.7c0-7.7-12-7.7-12 0 0 7.8 12 7.8 12 0zm427 0c0-7.7-12-7.7-12 0 0 7.8 12 7.8 12 0zM85.6 354.5c2 7.5 13.6 4.4 11.6-3.1s-13.6-4.4-11.6 3.1zm424.1-113.7c-2-7.5-13.6-4.4-11.6 3.1s13.6 4.4 11.6-3.1zM107.5 407.4c3.9 6.7 14.3.7 10.4-6-3.8-6.7-14.2-.7-10.4 6zm380.2-219.5c-3.9-6.7-14.3-.7-10.4 6 3.9 6.7 14.3.7 10.4-6zM142.4 452.8c5.5 5.5 14-3 8.5-8.5-5.5-5.4-13.9 3.1-8.5 8.5zm310.4-310.4c-5.5-5.5-14 3-8.5 8.5s14-3 8.5-8.5zM193.9 477.3c-6.7-3.9-12.7 6.5-6 10.4 6.7 3.9 12.7-6.5 6-10.4zm207.5-359.4c6.7 3.9 12.7-6.5 6-10.4-6.7-3.8-12.7 6.6-6 10.4zM243.9 498.1c-7.5-2-10.6 9.6-3.1 11.6s10.6-9.6 3.1-11.6zM351.3 97.2c7.5 2 10.6-9.6 3.1-11.6-7.4-2-10.5 9.6-3.1 11.6z"/></svg>