<svg id="Layer_1" xmlns="http://www.w3.org/2000/svg" viewBox="0 0 595.3 595.3"><style>.st0{fill:#4e447a}.st1{fill:#d7df23}.st2{fill:#567944}</style><path class="st0" d="M84.9 221.2l12.9.1v17H84.9v-17.1zM220.5 98.5h17V85.6h-17.2l.2 12.9zM97.7 165.4L61.9 177h35.8v-11.6zm78.6-66.9V62.7l-11.6 35.8h11.6zM84.9 374.1l12.9-.1v-17H84.9v17.1zm135.5 135.5h17.2v-12.9h-17l-.2 12.9zM97.7 429.9v-11.6H61.9l35.8 11.6zm78.6 102.7v-35.8h-11.6l11.6 35.8zm334.1-311.4l-12.9.1v17h12.9v-17.1zM357.7 98.5h17l.1-12.9h-17.2v12.9zm139.8 66.9V177h35.8l-35.8-11.6zM419 98.5h11.6L419 62.7v35.8zm91.4 258.4h-12.9v17l12.9.1v-17.1zM357.7 496.7v12.9h17.2l-.1-12.9h-17.1zm139.8-66.8l35.8-11.6h-35.8v11.6zM419 532.6l11.6-35.8H419v35.8z"/><path class="st1" d="M83.2 82h14.6v15.2L83.2 82zm14.5 80v-26.4L71.4 162h26.3zm142.8-48.4l12.2-12.2h-12.2v12.2zm-76.4 0h12.2v-12.2h-12.2v12.2zM135 61.2l-1.9 6-6.2-.1 5.1 3.6-2 6 5-3.7 5 3.7-2-5.9 5.1-3.6-6.3.1-1.8-6.1zm-34.4 192.2l12.2-12.2h-12.2v12.2zm12.2-76.3v-12.2h-12.2v12.2h12.2zm-34.4-75.7H66.5l11.8 12v-12zm-12 36.2l-.1 6.3 3.6-5.1 5.9 2-3.7-5 3.7-5-5.9 2-3.6-5.1.1 6.3-6 1.9 6 1.7zm31.4 375.7v-15.2l-14.6 15.2h14.6zm-26.4-80l26.4 26.4v-26.4H71.4zm169.1 60.6h12.2l-12.2-12.2v12.2zm-76.4 0h12.2v-12.2h-12.2v12.2zM140 518.6l-5 3.7-5-3.7 2 6-5.1 3.6 6.2-.1 1.9 6 1.9-6 6.3.1-5.1-3.6 1.9-6zm-39.4-164.5h12.2l-12.2-12.2v12.2zm0 64.1v12.2h12.2v-12.2h-12.2zm-22.2 75.7v-12l-11.8 12h11.8zM70 462.6l5.9 2-3.7-5 3.7-5-5.9 2-3.6-5.1.1 6.3-6 1.9 6 1.9-.1 6.3 3.6-5.3zM497.5 82v15.2L512.1 82h-14.6zm26.4 80l-26.4-26.4V162h26.4zm-169.1-48.4v-12.2h-12.2l12.2 12.2zm64.2-.1l12.2.1v-12.2H419v12.1zm41.3-52.3l-1.8 6-6.3-.1 5.1 3.6-2 5.9 5-3.7 5 3.7-2-6 5.1-3.6-6.2.1-1.9-5.9zm34.4 192.2v-12.2h-12.2l12.2 12.2zm-12.2-76.3h12.2v-12.2h-12.2v12.2zm34.4-75.7v12l11.8-12h-11.8zm8.4 31.3l-5.9-2 3.7 5-3.7 5 5.9-2 3.6 5.1-.1-6.3 6-1.9-6-1.9.1-6.3-3.6 5.3zm-27.8 380.6h14.6l-14.6-15.2v15.2zm0-80v26.4l26.4-26.4h-26.4zm-142.7 60.6v-12.2l-12.2 12.2h12.2zm64.2-12.1v12.1h12.2v-12.2l-12.2.1zm46.3 36.8l-5 3.7-5-3.7 2 5.9-5.1 3.6 6.3-.1 1.8 6 1.9-6 6.2.1-5.1-3.6 2-5.9zm29.4-164.5v-12.2l-12.2 12.2h12.2zm-12.2 64.1v12.2h12.2v-12.2h-12.2zm34.4 75.7h11.8l-11.8-12v12zm11.9-36.2l.1-6.3-3.6 5.1-5.9-2 3.7 5-3.7 5 5.9-2 3.6 5.1-.1-6.3 6-1.9-6-1.7z"/><path class="st2" d="M240.5 82.8h-22.9l.2 15.8h-38.5V50.2l-17 17c-.4.1-.7.5-.9.9L145.5 84l-4.1-12 10.8-7.7-13.3.2-3.9-12.9-1.4 4.4-2.6 8.3-13.3-.2 10.8 7.7-4.2 12.6 10.7-7.9 10.2 7.6-14.4 14.4h-30.2V82h19L97.8 60.4v18.7H78.4v19.4H59.6l21.6 21.8v-18.9h16.5v30.2L83.4 146l-7.6-10.2 8-10.7-12.6 4.3-7.7-10.8.2 13.3-12.7 4 4.4 1.4 8.3 2.6-.3 13.1 7.7-10.9 12 4.1-15.9 15.9c-.4.1-.7.5-.9.9l-17 17h48.4v38.5l-15.7-.2v22.9h15.8v19.1l22-22h-19.1v-58.4h12.1V197l17.5-17.5c.1-.1.2-.3.3-.5.1-.2.1-.3.1-.5s0-.4-.1-.5c-.1-.2-.2-.3-.3-.5-.1-.1-.3-.2-.5-.3-.2-.1-.3-.1-.5-.1h-13.5V162h-15v-29.3c.4-.5.4-1.2 0-1.7v-29.6h29.7c.5.3 1.1.3 1.6 0h29.3v15h15.1v13.5c0 .2 0 .4.1.5.1.2.2.3.3.5.1.1.3.2.5.3.2.1.3.1.5.1s.4 0 .5-.1c.2-.1.3-.2.5-.3l17.5-17.5h-17.1v-12.1h58.4v19.1l22-22h-19.1V82.8zM135 72.9l-5 3.7 2-6-5.1-3.6 6.2.1 1.9-6 1.9 6 6.3-.1-5.1 3.6 2 5.9-5.1-3.6zm-68.6 71l.1-6.3-6-1.9 6-1.9-.1-6.3 3.6 5.1 5.9-2-3.7 5 3.7 5-5.9-2-3.6 5.3zm46.4 33.2h-12.2v-12.2h12.2v12.2zm-15.1-11.7V177H61.9l35.8-11.6zm.1-3.4H71.4l26.4-26.4V162zm-19.4-48.6l-11.8-12h11.8v12zm19.4-16.2L83.2 82h14.6v15.2zm2.8 156.2v-12.2h12.2l-12.2 12.2zm-15.7-32.2l12.9.1v17H84.9v-17.1zm91.4-107.7l-12.2.1v-12.2h12.2v12.1zm0-15h-11.6l11.6-35.8v35.8zm-41.5 0l26.4-26.4v26.4h-26.4zm105.7 15.1v-12.2h12.2l-12.2 12.2zm-2.9-15.1h-17l-.1-12.9h17.2v12.9zm-26-9h-17.9V71.6h17.9v17.9zm-100.5 40.3v-17.9H129v17.9h-17.9zm-22.3 82.6h-18v-17.9h17.9v17.9zm148.8 281.5h-58.4v-12.1h17.1l-17.5-17.5c-.1-.1-.3-.2-.5-.3-.2-.1-.3-.1-.5-.1s-.4 0-.5.1c-.2.1-.3.2-.5.3-.1.1-.2.3-.3.5-.1.2-.1.3-.1.5v13.5h-15.1v15H132c-.5-.3-1.1-.3-1.6 0h-29.7v-29.6c.4-.5.4-1.2 0-1.7v-29.3h15v-15.1h13.5c.2 0 .4 0 .5-.1.2-.1.3-.2.5-.3.1-.1.2-.3.3-.5.1-.2.1-.3.1-.5s0-.4-.1-.5c-.1-.2-.2-.3-.3-.5l-17.5-17.5v17.1h-12.1v-58.4h19.1l-22-22V354H82v23l15.8-.2v38.5H49.4l17 17c.1.4.5.7.9.9l15.9 15.9-12 4.1-7.7-10.9.2 13.3-8.3 2.6-4.4 1.4 12.7 4-.2 13.3 7.7-10.8 12.6 4.3-8-10.7 7.6-10.2 14.4 14.4v30.2H81.2v-18.9L59.6 497h18.7v19.4h19.3v18.7l21.8-21.6h-19V497h30.2l14.4 14.4-10.2 7.6-10.7-7.9 4.2 12.6-10.8 7.7 13.5-.4 2.6 8.3 1.4 4.4 3.9-12.7 13.3.2-10.8-7.7 4.1-12 15.9 15.9c.1.4.5.7.9.9l17 17v-48.4h38.5l-.2 15.8h22.9v-15.8h19.1l-22-22v19zM72.1 459.5l3.7 5-5.9-2-3.6 5.1.1-6.3-6-1.9 6-1.9-.1-6.3 3.6 5.1 5.9-2-3.7 5.2zm6.3 22.4v12H66.5l11.9-12zm19.3-63.7v11.6l-35.8-11.6h35.8zm15.1 12.2h-12.2v-12.2h12.2v12.2zm-15.1 2.9v26.4l-26.4-26.4h26.4zm.1 64.8v15.2H83.2l14.6-15.2zM84.9 356.9h12.9v17l-12.9.1v-17.1zm15.7-15l12.2 12.2h-12.2v-12.2zM138 524.6l5.1 3.6-6.3-.1-1.9 6-1.9-6-6.2.1 5.1-3.6-2-6 5 3.7 5-3.7-1.9 6zm38.3-42.8v12.1h-12.2v-12.2l12.2.1zm0 50.8l-11.6-35.8h11.6v35.8zm-41.5-35.9h26.4v26.4l-26.4-26.4zm105.7-15l12.2 12.2h-12.2v-12.2zm-2.9 27.9h-17.2l.1-12.9h17v12.9zm-43.9-3.8h17.9v17.9h-17.9v-17.9zm-82.6-40.3H129v17.9h-17.9v-17.9zm-22.3-81.2v16.5h-18v-17.9h17.9v1.4zm268.9-282.9h58.4v12.1H399l17.5 17.5c.1.1.3.2.5.3.2.1.3.1.5.1s.4 0 .5-.1c.4-.1.6-.4.8-.8 0-.1.1-.2.1-.4v-13.7h15v-15h29.3c.5.3 1.1.3 1.6 0h29.7V131c-.4.5-.4 1.2 0 1.7V162h-15v15.1H466c-.2 0-.4 0-.5.1-.2.1-.3.2-.5.3-.1.1-.2.3-.3.5-.1.2-.1.3-.1.5s0 .3.1.5.2.3.3.5l17.5 17.5v-17.1h12.1v58.4h-19.1l22 22v-19.1h15.8v-22.9l-15.8.2V180h48.4l-17-17c-.1-.4-.5-.7-.9-.9l-15.9-15.9 12-4.1 7.7 10.9-.2-13.3 8.3-2.6 4.4-1.4-12.7-4 .2-13.3-7.7 10.8-12.6-4.3 8 10.7-7.6 10.2-14.4-14.4v-30.2H514v18.9l21.6-21.8h-18.7V79.1h-19.3V60.4L475.7 82h19v16.5h-30.2l-14.4-14.4 10.2-7.6 10.7 7.9-4.2-12.6 10.8-7.7-13.3.2-2.6-8.3-1.4-4.4-3.9 12.7-13.4-.2 10.8 7.7-4.1 12L433.9 68c-.1-.4-.5-.7-.9-.9l-17-17v48.4h-38.5l.2-15.8h-22.9v15.8h-19.1l22 22v-19.1zm165.4 34.3l-3.7-5 5.9 2 3.6-5.1-.1 6.3 6 1.9-6 1.9.1 6.3-3.6-5.1-5.9 2 3.7-5.2zm-6.2-22.3v-12h11.8l-11.8 12zm-19.4 63.7v-11.6l35.8 11.6h-35.8zm-15-12.2h12.2v12.2h-12.2v-12.2zm15-2.9v-26.4l26.4 26.4h-26.4zm0-64.8V82h14.6l-14.6 15.2zm12.9 141.1h-12.9v-17l12.9-.1v17.1zm-15.7 15.1l-12.2-12.2h12.2v12.2zM457.3 70.7l-5.1-3.6 6.3.1 1.8-6 1.9 6 6.2-.1-5.1 3.6 2 6-5-3.7-5 3.7 2-6zM419 113.5v-12.1h12.2v12.2l-12.2-.1zm0-50.8l11.6 35.8H419V62.7zm41.4 35.8H434V72.1l26.4 26.4zm-105.6 15.1l-12.2-12.2h12.2v12.2zm2.9-28h17.2l-.1 12.9h-17V85.6zm43.8 3.9h-17.9V71.6h17.9v17.9zm82.7 40.3h-17.9v-17.9h17.9v17.9zm22.3 81.2v-16.5h17.9v17.9h-17.9V211zM383.6 505.8h17.9v17.9h-17.9v-17.9zm100.6-40.3v17.9h-17.9v-17.8h17.9zm22.3-82.7h17.9v17.9h-17.9v-17.9zm22.4 49.5l17-17h-48.4v-38.5l15.8.2v-22.9h-15.8V335l-22 22h19.1v58.4h-12.1v-17.1L465 415.8c-.1.1-.2.3-.3.5-.1.2-.1.3-.1.5s0 .4.1.5c.1.2.2.3.3.5.1.1.3.2.5.3.2.1.3.1.5.1h13.5v15.1h15v29.3c-.4.5-.4 1.2 0 1.7v29.6H465c-.5-.3-1.1-.3-1.6 0H434v-15h-15v-13.7c0-.1 0-.2-.1-.4-.1-.4-.4-.6-.8-.8-.2-.1-.3-.1-.5-.1s-.4 0-.5.1c-.2.1-.3.2-.5.3L399 481.8h17.1v12.1h-58.4v-19.1l-22 22h19.1v15.8h22.9l-.2-15.8H416v48.4l17-17c.4-.1.7-.5.9-.9l15.9-15.9 4.1 12-10.8 7.7 13.3-.2 3.9 12.7 1.4-4.4 2.6-8.3 13.3.2-10.8-7.7 4.2-12.6-10.7 7.9-10.2-7.6 14.4-14.4h30.2v16.5h-19l21.8 21.6v-18.7h19.3v-19.4h18.7l-21.6-21.8v18.9h-16.5v-30.2l14.4-14.4 7.6 10.2-8 10.7 12.6-4.3 7.7 10.8-.2-13.3 12.7-4-4.4-1.4-8.3-2.6.2-13.3-7.7 10.9-12-4.1 15.9-15.9c.5.1.9-.2 1-.6zm-174.1 49.4v12.2h-12.2l12.2-12.2zm2.9 15h17l.1 12.9h-17.2v-12.9zm102.6 25.6l5-3.7-2 6 5.1 3.6-6.2-.1-1.9 6-1.8-6-6.3.1 5.1-3.6-2-5.9 5 3.6zM419 481.8l12.2-.1v12.2H419v-12.1zm0 15h11.6L419 532.6v-35.8zm15 26.4v-26.4h26.4L434 523.2zm94.9-71.8l-.1 6.3 6 1.9-6 1.9.1 6.3-3.6-5.1-5.9 2 3.7-5-3.7-5 5.9 2 3.6-5.3zm-31.4 8.3v-26.4h26.4l-26.4 26.4zm19.4 22.2l11.8 12h-11.8v-12zm-19.4 16.2l14.6 15.2h-14.6v-15.2zm-15-79.9h12.2v12.2h-12.2v-12.2zm15 11.7v-11.6h35.8l-35.8 11.6zm-2.8-88v12.2h-12.2l12.2-12.2zm15.7 32.2l-12.9-.1v-17h12.9v17.1z"/></svg>