<svg id="Layer_1" xmlns="http://www.w3.org/2000/svg" viewBox="0 0 595.3 595.3"><style>.st0{fill:#7e61aa}.st1{fill:#4c50a2}.st2{fill:#d7df23}.st3{fill:#1b75bc}.st4{fill:#4e447a}.st5{fill:#fff}</style><path class="st0" d="M251.9 42.4H229l-21.3 22.1h22.8l21.4-22.1zm-24.5 5.1c-1.5 1.9-3.6 4.3-5.9 6.7-2.2 2.3-4.6 4.6-6.4 6.2C213.3 62 212 63 212 63s.9-1.4 2.4-3.3 3.6-4.3 5.9-6.7c2.2-2.3 4.6-4.6 6.4-6.2 1.8-1.6 3.1-2.6 3.1-2.6s-.8 1.4-2.4 3.3zm24.5 505.3l-21.3-22.1h-22.8l21.3 22.1h22.8zm-31.5-10.5c-2.2-2.3-4.3-4.8-5.9-6.7-1.5-1.9-2.4-3.3-2.4-3.3s1.3 1 3.1 2.6 4.2 3.9 6.4 6.2c2.2 2.3 4.3 4.8 5.9 6.7 1.5 1.9 2.4 3.3 2.4 3.3s-1.3-1-3.1-2.6c-1.9-1.6-4.2-3.9-6.4-6.2zm123-499.9l21.3 22.1h22.8l-21.3-22.1h-22.8zM374.9 53c2.2 2.3 4.3 4.8 5.9 6.7 1.5 1.9 2.4 3.3 2.4 3.3s-1.3-1-3.1-2.6-4.2-3.9-6.4-6.2c-2.2-2.3-4.3-4.8-5.8-6.7-1.5-1.9-2.4-3.3-2.4-3.3s1.3 1 3.1 2.6 4.1 3.9 6.3 6.2zm-31.5 499.8h22.8l21.3-22.1h-22.8l-21.3 22.1zm24.4-5c1.5-1.9 3.6-4.3 5.8-6.7 2.2-2.3 4.6-4.6 6.4-6.2 1.8-1.6 3.1-2.6 3.1-2.6s-.9 1.4-2.4 3.3-3.6 4.3-5.9 6.7c-2.2 2.3-4.6 4.6-6.4 6.2-1.8 1.6-3.1 2.6-3.1 2.6s1-1.4 2.5-3.3z"/><path class="st1" d="M88.8 54.4L76.1 37.6h22.6l-9.9 16.8zm-10.5 86.8v15.7l12.1 6.2-12.1-21.9zm20.4 416.4l-9.9-16.8-12.7 16.8h22.6zm-8.3-125.4l-12.1 6.2v15.7l12.1-21.9zM496.6 37.6l9.9 16.8 12.7-16.8h-22.6zm8.3 125.5l12.1-6.2v-15.7l-12.1 21.9zm-8.3 394.5h22.6l-12.7-16.8-9.9 16.8zM517 454.1v-15.7l-12.1-6.2 12.1 21.9z"/><path class="st2" d="M170.5 37.6h-23.4l-11.3 15 13.6 14h18.7l13.6-14.1-11.2-14.9zM148.3 42c-.7 1.3-1.6 2.9-2.7 4.4-1.1 1.5-2.3 3-3.3 4s-1.8 1.6-1.8 1.6.3-.9 1-2.2c.7-1.3 1.6-2.9 2.7-4.4 1.1-1.5 2.3-3 3.3-4s1.8-1.6 1.8-1.6-.4.9-1 2.2zM81.7 262.2l9-9.9v-21l-9-9.9-9 9.9v21l9 9.9zm6.9-30.2s.3 1.2.5 3 .4 4.2.4 6.6c0 2.4-.1 4.8-.4 6.6-.2 1.8-.5 3-.5 3s-.3-1.2-.5-3-.4-4.2-.4-6.6c0-2.4.2-4.8.4-6.6.2-1.8.5-3 .5-3zM50.3 37.6L38.6 58l16.7 13.5h23.4l8.8-15-14.2-18.9h-23zM51 43c-.7 1.7-1.9 3.9-3.1 6-1.2 2.1-2.6 4.2-3.7 5.7s-2 2.4-2 2.4.4-1.2 1.1-2.9c.7-1.7 1.9-3.9 3.1-6 1.2-2.1 2.6-4.2 3.7-5.7s2-2.4 2-2.4-.3 1.2-1.1 2.9zm117.2 485.6h-18.7l-13.6 14 11.3 15h23.4l11.2-15-13.6-14zm-20.7 25.3c-1-1-2.2-2.5-3.3-4-1.1-1.5-2.1-3.1-2.7-4.4-.6-1.3-1-2.2-1-2.2s.8.6 1.8 1.6 2.2 2.5 3.3 4c1.1 1.5 2.1 3.1 2.7 4.4.6 1.3 1 2.2 1 2.2s-.8-.6-1.8-1.6zM81.7 373.8l9-9.9v-21l-9-9.9-9 9.9v21l9 9.9zm6.9-29.8s.3 1.2.5 3 .4 4.2.4 6.6c0 2.4-.2 4.8-.4 6.6-.2 1.8-.5 3-.5 3s-.3-1.2-.5-3-.4-4.2-.4-6.6c0-2.4.1-4.8.4-6.6.2-1.8.5-3 .5-3zM55.3 523.7l-16.7 13.5 11.7 20.4h23l14.3-18.9-8.8-15H55.3zm-5.1 29.1c-1.1-1.5-2.5-3.5-3.7-5.7-1.2-2.1-2.4-4.3-3.1-6-.7-1.7-1.1-2.9-1.1-2.9s.8.9 2 2.4c1.1 1.5 2.5 3.5 3.7 5.7 1.2 2.1 2.4 4.3 3.1 6 .7 1.7 1.1 2.9 1.1 2.9s-.9-.9-2-2.4zM427.1 66.7h18.7l13.6-14-11.2-15h-23.4l-11.2 15 13.5 14zm20.7-25.3c1 1 2.2 2.5 3.3 4 1.1 1.5 2.1 3.1 2.7 4.4.6 1.3 1 2.2 1 2.2s-.8-.6-1.8-1.6-2.2-2.5-3.3-4c-1.1-1.5-2.1-3.1-2.7-4.4-.6-1.3-1-2.2-1-2.2s.8.6 1.8 1.6zm65.8 180.1l-9 9.9v21l9 9.9 9-9.9v-21l-9-9.9zm-6.9 29.8s-.3-1.2-.5-3-.4-4.2-.4-6.6c0-2.4.2-4.8.4-6.6.2-1.8.5-3 .5-3s.3 1.2.5 3 .4 4.2.4 6.6c0 2.4-.1 4.8-.4 6.6l-.5 3zM540 71.6L556.7 58 545 37.6h-23l-14.3 18.9 8.8 15H540zm5.1-29.1c1.1 1.5 2.5 3.5 3.7 5.7 1.2 2.1 2.4 4.3 3.1 6 .7 1.7 1.1 2.9 1.1 2.9s-.8-.9-2-2.4c-1.1-1.5-2.5-3.5-3.7-5.7-1.2-2.1-2.4-4.3-3.1-6-.7-1.7-1.1-2.9-1.1-2.9s.9.9 2 2.4zM424.7 557.6h23.4l11.2-15-13.6-14H427l-13.6 14.1 11.3 14.9zm22.3-4.3c.7-1.3 1.6-2.9 2.7-4.4 1.1-1.5 2.3-3 3.3-4s1.8-1.6 1.8-1.6-.3.9-1 2.2c-.6 1.3-1.6 2.9-2.7 4.4-1.1 1.5-2.3 3-3.3 4s-1.8 1.6-1.8 1.6.4-.9 1-2.2zM513.6 333l-9 9.9v21l9 9.9 9-9.9v-21l-9-9.9zm-6.9 30.3s-.3-1.2-.5-3-.4-4.2-.4-6.6c0-2.4.1-4.8.4-6.6.2-1.8.5-3 .5-3s.3 1.2.5 3 .4 4.2.4 6.6c0 2.4-.1 4.8-.4 6.6l-.5 3zm1 175.4l14.3 18.9h23l11.7-20.4-16.7-13.5h-23.4l-8.9 15zm36.5 13.6c.7-1.7 1.9-3.9 3.1-6 1.2-2.1 2.6-4.2 3.7-5.7s2-2.4 2-2.4-.4 1.2-1.1 2.9c-.7 1.7-1.9 3.9-3.1 6-1.2 2.1-2.6 4.2-3.7 5.7s-2 2.4-2 2.4.4-1.2 1.1-2.9z"/><path class="st3" d="M70.9 172.9c.1-.1.3-.2.4-.2l4.7-2.4v-12L63.8 152l-12.2 6.2v12l4.6 2.4c.3 0 .6.2.7.4l6.8 3.5 7.2-3.6zm-16.5-5.4c-.3.9-.7 1.4-.7 1.4s-.4-.6-.7-1.4c-.3-.9-.5-2-.5-3.2 0-1.2.2-2.3.5-3.2.3-.9.6-1.4.6-1.4s.4.6.6 1.4c.3.9.5 2 .5 3.2.2 1.2 0 2.3-.3 3.2zm16 66.4v16l-7.3-8 7.3-8zM76 425l-4.7-2.4c-.2 0-.3-.1-.4-.2l-7.1-3.6-6.8 3.5c-.2.2-.4.3-.7.4l-4.6 2.4v12l12.2 6.2L76 437v-12zm-21.6 9.2c-.3.9-.6 1.4-.6 1.4s-.4-.6-.6-1.4c-.3-.9-.5-2-.5-3.2 0-1.2.2-2.3.5-3.2.3-.9.7-1.4.7-1.4s.4.6.7 1.4c.3.9.5 2 .5 3.2-.2 1.1-.4 2.3-.7 3.2zm16-88.8v16l-7.3-8 7.3-8zm448.9-175.1l4.7 2.4c.2 0 .3.1.4.2l7.1 3.6 6.8-3.5c.2-.2.4-.3.7-.4l4.6-2.4v-12l-12.2-6.2-12.2 6.2v12.1zm21.5-9.2c.3-.9.7-1.4.7-1.4s.4.6.6 1.4c.3.9.5 2 .5 3.2 0 1.2-.2 2.3-.5 3.2-.3.9-.7 1.4-.7 1.4s-.4-.6-.7-1.4c-.3-.9-.5-2-.5-3.2.2-1.2.4-2.3.6-3.2zm-16 88.8v-16l7.3 8-7.3 8zm-.4 172.4c-.1.1-.3.2-.4.2l-4.7 2.4v12l12.2 6.2 12.2-6.2v-12l-4.6-2.4c-.3 0-.5-.2-.7-.4l-6.8-3.5-7.2 3.7zm16.4 5.5c.3-.9.7-1.4.7-1.4s.4.6.7 1.4c.3.9.5 2 .5 3.2 0 1.2-.2 2.3-.5 3.2-.3.9-.6 1.4-.6 1.4s-.4-.6-.7-1.4c-.3-.9-.5-2-.5-3.2 0-1.2.2-2.3.4-3.2zm-16-66.4v-16l7.3 8-7.3 8z"/><path class="st4" d="M204.2 64.9l-5.8 6-13.6-18.2 14.7-15.2c.4-.2.7-.6.7-1.1 0-.3-.1-.6-.3-.8 0 0 0-.1-.1-.1-.3-.3-.8-.4-1.2-.2H146l-12.4 16.6-.9.6-29.5 21-3.9-5.1c.1 0 .1 0 .2-.1l8.1-5.8c.5-.4.6-1.1.3-1.6-.4-.5-1.1-.6-1.6-.3l-8.1 5.8c-.1 0-.1.1-.2.2l-4.5-5.9 15.3-10.9c.5-.4.6-1.1.3-1.6-.4-.5-1.1-.6-1.6-.3l-15.3 11-1.9-2.5 12.4-21H49L35.7 58.6l18.8 15.2h8.2v76.3l-13.3 6.8v14.8l5.7 2.9V201c0 .6.5 1.1 1.1 1.1.6 0 1.1-.5 1.1-1.1v-25.2l5.4 2.8v35c0 .6.5 1.1 1.1 1.1.6 0 1.1-.5 1.1-1.1v-35l5.5-2.8v54.8l-9.7 10.6-.1.1c0 .1-.1.1-.1.2s0 .1-.1.2v.4c0 .1 0 .1.1.2 0 .1.1.1.1.2 0 0 0 .1.1.1l10 10.9 10.1 11.1.1.1c.1 0 .1.1.2.1h.6c.1 0 .1 0 .2-.1.1 0 .1-.1.2-.1s.1-.1.2-.1l10.4-11.4v-22.8L82.5 219s-.1-.1-.2-.1-.1-.1-.2-.1-.1 0-.2-.1h-.4c-.1 0-.1 0-.2.1-.1 0-.1.1-.2.1 0 0-.1 0-.1.1l-8.1 8.9v-53.4l4.9-2.5.1-.1c.1 0 .1-.1.2-.2 0 0 .1-.1.1-.2s.1-.1.1-.2v-12l17.7 9-20-35.9v23.4l-11.1-5.7V99.4l15.4-26.1L89 58.5l2 2.6 11.7 15.5 31.5-22.4 14.3 14.7h20.1c.1 0 .2 0 .3-.1h.1l.1-.1c.1-.1.2-.1.3-.2l.3-.3 13.4-13.8 14.1 18.9.1.1s0 .1.1.1c0 0 .1 0 .1.1.1 0 .1.1.2.1s.1.1.2.1h.6c.1 0 .1-.1.2-.1 0 0 .1 0 .1-.1l.1-.1s.1 0 .1-.1l6.5-6.7h26l25.7-26.6H228l-23.8 24.8zm-125.9 92v-15.7l12.1 21.9-12.1-6.2zM76 170.3l-4.7 2.4-.2.1-.2.1-7.1 3.6L57 173c-.2-.2-.4-.3-.7-.4l-4.6-2.4v-12l12.2-6.2 12.2 6.2v12.1zM98.7 37.6l-9.9 16.8-12.7-16.8h22.6zm-25.4 0l14.3 18.9-8.8 15H55.3L38.6 58l11.7-20.4h23zm8.4 183.9l9 9.9v21l-9 9.9-9-9.9v-21l9-9.9zm-11.3 28.4l-7.3-8 7.3-8v16zM170.5 37.6l11.2 15-13.6 14.1h-18.7l-13.6-14 11.3-15h23.4zm81.4 4.8l-21.3 22.1h-22.8L229 42.4h22.9zm-46.4 486.1l-6.5-6.7s-.1 0-.1-.1l-.1-.1s-.1 0-.1-.1c-.1 0-.1-.1-.2-.1h-.6c-.1 0-.1 0-.2.1-.1 0-.1.1-.2.1 0 0-.1 0-.1.1 0 0 0 .1-.1.1l-.1.1-14.1 18.9-13.3-13.8-.3-.3c-.1-.1-.2-.1-.3-.2l-.1-.1h-.1c-.1 0-.2-.1-.3-.1h-20.1L134.3 541l-31.5-22.4L91 534.2l-2 2.6-8.7-14.8-15.4-26.1v-50.7l11.1-5.7v23.4l19.9-36.1-17.7 9v-12c0-.1-.1-.1-.1-.2s-.1-.1-.1-.2l-.2-.2-.1-.1-4.9-2.5v-53.4l8.1 8.9.1.1c.1 0 .1.1.2.1s.1 0 .2.1h.4c.1 0 .1 0 .2-.1.1 0 .1-.1.2-.1s.1 0 .2-.1l10.4-11.5V342l-10.4-11.4s-.1-.1-.2-.1-.1-.1-.2-.1-.1 0-.2-.1h-.6c-.1 0-.1.1-.2.1 0 0-.1 0-.1.1l-10.1 11.1-10 10.9-.1.1c0 .1-.1.1-.1.2s0 .1-.1.2v.4c0 .1 0 .1.1.2 0 .1.1.1.1.2 0 0 0 .1.1.1l9.7 10.6v54.8l-5.5-2.8v-35c0-.6-.5-1.1-1.1-1.1-.6 0-1.1.5-1.1 1.1v35l-5.4 2.8v-25.2c0-.6-.5-1.1-1.1-1.1-.6 0-1.1.5-1.1 1.1v26.4l-5.7 2.9v14.8l13.3 6.8v76.3h-8.2l-18.8 15.2L49 559.9h53.8l-12.4-21 1.9-2.5 15.4 10.9c.5.4 1.2.2 1.6-.3.4-.5.2-1.2-.3-1.6l-15.3-10.9 4.5-5.9.2.2 8.1 5.8c.5.4 1.2.2 1.6-.3.4-.5.2-1.2-.3-1.6l-8.1-5.8c-.1 0-.1 0-.2-.1l3.9-5.1 30.4 21.6 12.4 16.6h52.5c.4.2.9.1 1.2-.2 0 0 0-.1.1-.1.2-.2.3-.5.3-.8 0-.5-.3-.9-.7-1.1l-14.7-15.2 13.6-18.2 5.8 6 23.9 24.8h29.2l-25.7-26.6h-26.2zM76.1 557.6l12.7-16.8 9.9 16.8H76.1zM51.6 425l4.6-2.4c.3 0 .6-.2.7-.4l6.8-3.5 7.1 3.6.2.1.2.1L76 425v12l-12.2 6.2-12.2-6.2v-12zm26.7 29.1v-15.7l12.1-6.2-12.1 21.9zm-14.5 69.6h14.9l8.8 15-14.3 18.9h-23l-11.7-20.4 16.7-13.5h8.6zm26.9-180.8v21l-9 9.9-9-9.9v-21l9-9.9 9 9.9zm-20.3 18.5l-7.3-8 7.3-8v16zm97.8 167.2l13.6 14.1-11.2 15h-23.4l-11.3-15 13.6-14h18.7zm60.8 24.2l-21.3-22.1h22.8l21.3 22.1H229zm160.8-486l6.5 6.7s.1 0 .1.1l.1.1s.1 0 .1.1c.1 0 .1.1.2.1h.6c.1 0 .1 0 .2-.1.1 0 .1-.1.2-.1 0 0 .1 0 .1-.1v-.1s.1 0 .1-.1l14.1-18.9 13.4 13.8.3.3c.1.1.2.1.3.2l.1.1h20.5L461 54.2l31.5 22.4 11.7-15.5 2-2.6 8.7 14.8 15.4 26.1v50.7l-11.1 5.7v-23.4l-19.9 36.1 17.7-9v11.8c0 .1.1.1.1.2s.1.1.1.2l.2.2.1.1 4.9 2.5V228l-8.1-8.9-.1-.1c-.1 0-.1-.1-.2-.1s-.1 0-.2-.1h-.4c-.1 0-.1 0-.2.1-.1 0-.1.1-.2.1 0 0-.1 0-.2.1l-10.4 11.5v22.8l10.4 11.4s.1.1.2.1.1.1.2.1.1 0 .2.1h.6c.1 0 .1-.1.2-.1 0 0 .1 0 .1-.1l10.1-11.1 10-10.9.1-.1c0-.1.1-.1.1-.2s0-.1.1-.2v-.4c0-.1 0-.1-.1-.2 0-.1-.1-.1-.1-.2 0 0 0-.1-.1-.1l-9.7-10.6v-54.8l5.5 2.8v35c0 .6.5 1.1 1.1 1.1.6 0 1.1-.5 1.1-1.1v-35l5.4-2.8v25.2c0 .6.5 1.1 1.1 1.1.6 0 1.1-.5 1.1-1.1v-26.4l5.7-2.9v-14.8l-13.3-6.8V73.8h8.2l18.8-15.2-13.3-23.2h-53.8l12.4 21-1.9 2.5-15-10.9c-.5-.4-1.2-.2-1.6.3-.4.5-.2 1.2.3 1.6l15.3 10.9-4.5 5.9-.2-.2-8.1-5.8c-.5-.4-1.2-.2-1.6.3-.4.5-.2 1.2.3 1.6l8.1 5.8c.1 0 .1 0 .2.1l-3.9 5.1L461.7 52l-12.4-16.5h-52.5c-.4-.2-.9-.1-1.2.2 0 0 0 .1-.1.1-.2.2-.3.5-.3.8 0 .5.3.9.7 1.1l14.7 15.2L397 71.1l-5.9-6.1-23.8-24.7h-29.2l25.7 26.6h26zm129.4-29.2l-12.7 16.8-9.9-16.8h22.6zm24.5 132.7l-4.6 2.4c-.3 0-.5.2-.7.4l-6.8 3.5-7.1-3.6-.2-.1-.2-.1-4.7-2.4v-12l12.2-6.2 12.2 6.2v11.9zM517 141.2v15.7l-12.1 6.2 12.1-21.9zm14.5-69.6h-14.9l-8.8-15 14.2-19h23L556.7 58 540 71.6h-8.5zm-26.9 180.8v-21l9-9.9 9 9.9v21l-9 9.9-9-9.9zm20.2-18.5l7.3 8-7.3 8v-16zM427.1 66.7l-13.6-14.1 11.2-15h23.4l11.2 15-13.6 14h-18.6zm-60.9-24.3l21.3 22.1h-22.8l-21.3-22.1h22.8zm166.4 479v-76.3l13.3-6.8v-14.8l-5.7-2.9v-26.4c0-.6-.5-1.1-1.1-1.1-.6 0-1.1.5-1.1 1.1v25.2l-5.4-2.8v-35c0-.6-.5-1.1-1.1-1.1-.6 0-1.1.5-1.1 1.1v35l-5.5 2.8v-54.8l9.7-10.6.1-.1c0-.1.1-.1.1-.2s0-.1.1-.2v-.4c0-.1 0-.1-.1-.2 0-.1-.1-.1-.1-.2 0 0 0-.1-.1-.1l-10-10.9-10.1-11.1-.1-.1c-.1 0-.1-.1-.2-.1h-.6c-.1 0-.1 0-.2.1-.1 0-.1.1-.2.1s-.1.1-.2.1L502.3 342v22.8l10.4 11.5s.1.1.2.1.1.1.2.1.1 0 .2.1h.4c.1 0 .1 0 .2-.1.1 0 .1-.1.2-.1 0 0 .1 0 .1-.1l8.1-8.9v53.4l-4.9 2.5-.1.1c-.1 0-.1.1-.2.2 0 .1-.1.1-.1.2s-.1.1-.1.2v11.9l-17.7-9 19.9 36.1v-23.4l11.1 5.7V496l-15.3 26-8.7 14.8-2-2.6-11.7-15.5-31.5 22.4-14.3-14.7h-20.1c-.1 0-.2 0-.2.1h-.1s-.1 0-.1.1c-.1.1-.2.1-.3.2l-.3.3-13.4 13.8-14.2-19-.1-.1v-.1s-.1 0-.1-.1c-.1 0-.1-.1-.2-.1s-.1-.1-.2-.1h-.6c-.1 0-.1.1-.2.1 0 0-.1 0-.1.1l-.1.1s-.1 0-.1.1l-6.5 6.7h-26l-25.7 26.6h29.2l23.8-24.7 5.9-6.1 13.6 18.2-14.7 15.2c-.4.2-.7.6-.7 1.1 0 .3.1.6.3.8 0 0 0 .1.1.1.3.3.8.4 1.2.2h52.5l12.4-16.5 30.4-21.6 3.9 5.1c-.1 0-.1 0-.2.1l-8.1 5.8c-.5.4-.6 1.1-.3 1.6.4.5 1.1.6 1.6.3l8.1-5.8c.1 0 .1-.1.2-.2l4.5 5.9-15.3 10.9c-.5.4-.6 1.1-.3 1.6.4.5 1.1.6 1.6.3l15.4-10.9 1.9 2.5-12.4 21h53.8l13.3-23.2-18.8-15.2h-8.4zm-189.2 31.4l21.3-22.1h22.8l-21.3 22.1h-22.8zm81.3 4.8l-11.2-15 13.6-14.1h18.7l13.6 14-11.2 15h-23.5zm71.9 0l9.9-16.8 12.7 16.8h-22.6zM517 438.4v15.7l-12.1-21.9 12.1 6.2zm2.3-13.4l4.7-2.4.2-.1.2-.1 7.1-3.6 6.8 3.5c.2.2.4.3.7.4l4.6 2.4v12l-12.2 6.2-12.2-6.2V425zm2.7 132.6l-14.3-18.9 8.8-15h23.4l16.7 13.5-11.6 20.4h-23zm-8.4-183.8l-9-9.9v-21l9-9.9 9 9.9v21l-9 9.9zm11.2-28.4l7.3 8-7.3 8v-16z"/><path class="st5" d="M50.2 42.5c1.1-1.5 2-2.4 2-2.4s-.4 1.2-1.2 2.9c-.7 1.7-1.9 3.9-3.1 6-1.2 2.1-2.6 4.2-3.7 5.7s-2 2.4-2 2.4.4-1.2 1.1-2.9c.7-1.7 1.9-3.9 3.1-6 1.3-2.2 2.7-4.2 3.8-5.7zm94 2.9c-1.1 1.5-2.1 3.1-2.7 4.4-.6 1.3-1 2.2-1 2.2s.8-.6 1.8-1.6 2.2-2.5 3.3-4c1.1-1.5 2.1-3.1 2.7-4.4.6-1.3 1-2.2 1-2.2s-.8.6-1.8 1.6-2.2 2.5-3.3 4zm76.2 7.6c-2.2 2.3-4.3 4.8-5.9 6.7-1.5 1.9-2.4 3.3-2.4 3.3s1.3-1 3.1-2.6 4.2-3.9 6.4-6.2c2.2-2.3 4.3-4.8 5.9-6.7 1.5-1.9 2.4-3.3 2.4-3.3s-1.3 1-3.1 2.6c-1.9 1.6-4.2 3.9-6.4 6.2zM53.8 159.7s-.4.6-.6 1.4c-.3.9-.5 2-.5 3.2 0 1.2.2 2.3.5 3.2.3.9.7 1.4.7 1.4s.4-.6.7-1.4c.3-.9.5-2 .5-3.2 0-1.2-.2-2.3-.5-3.2-.4-.9-.8-1.4-.8-1.4zm34.3 88.5c.2 1.8.5 3 .5 3s.3-1.2.5-3 .4-4.2.4-6.6c0-2.4-.2-4.8-.4-6.6-.2-1.8-.5-3-.5-3s-.3 1.2-.5 3-.4 4.2-.4 6.6c.1 2.4.2 4.8.4 6.6zM47.9 546.3c-1.2-2.1-2.6-4.2-3.7-5.7s-2-2.4-2-2.4.4 1.2 1.1 2.9c.7 1.7 1.9 3.9 3.1 6 1.2 2.1 2.6 4.2 3.7 5.7s2 2.4 2 2.4-.4-1.2-1.1-2.9c-.7-1.7-1.8-3.9-3.1-6zm97.6 2.6c-1.1-1.5-2.3-3-3.3-4s-1.8-1.6-1.8-1.6.3.9 1 2.2c.7 1.3 1.6 2.9 2.7 4.4 1.1 1.5 2.3 3 3.3 4s1.8 1.6 1.8 1.6-.3-.9-1-2.2c-.6-1.3-1.6-2.9-2.7-4.4zm81.9-1.1c-1.5-1.9-3.6-4.3-5.9-6.7-2.2-2.3-4.6-4.6-6.4-6.2-1.8-1.6-3.1-2.6-3.1-2.6s.9 1.4 2.4 3.3 3.6 4.3 5.9 6.7c2.2 2.3 4.6 4.6 6.4 6.2 1.8 1.6 3.1 2.6 3.1 2.6s-.8-1.4-2.4-3.3zM53.8 426.3s-.4.6-.7 1.4c-.3.9-.5 2-.5 3.2 0 1.2.2 2.3.5 3.2.3.9.6 1.4.6 1.4s.4-.6.6-1.4c.3-.9.5-2 .5-3.2 0-1.2-.2-2.3-.5-3.2-.1-.8-.5-1.4-.5-1.4zm34.3-66c.2 1.8.5 3 .5 3s.3-1.2.5-3 .4-4.2.4-6.6c0-2.4-.1-4.8-.4-6.6-.2-1.8-.5-3-.5-3s-.3 1.2-.5 3-.4 4.2-.4 6.6c.1 2.4.2 4.8.4 6.6zM547.3 49c1.2 2.1 2.6 4.2 3.7 5.7s2 2.4 2 2.4-.4-1.2-1.1-2.9c-.7-1.7-1.9-3.9-3.1-6-1.2-2.1-2.6-4.2-3.7-5.7s-2-2.4-2-2.4.4 1.2 1.1 2.9c.8 1.7 1.9 3.9 3.1 6zm-97.6-2.6c1.1 1.5 2.3 3 3.3 4s1.8 1.6 1.8 1.6-.3-.9-1-2.2c-.6-1.3-1.6-2.9-2.7-4.4-1.1-1.5-2.3-3-3.3-4s-1.8-1.6-1.8-1.6.3.9 1 2.2c.7 1.2 1.6 2.8 2.7 4.4zm-81.9 1.1c1.5 1.9 3.6 4.3 5.8 6.7 2.2 2.3 4.6 4.6 6.4 6.2 1.8 1.6 3.1 2.6 3.1 2.6s-.9-1.4-2.4-3.3-3.6-4.3-5.9-6.7c-2.2-2.3-4.6-4.6-6.4-6.2-1.8-1.6-3.1-2.6-3.1-2.6s1 1.4 2.5 3.3zm173.7 121.4s.4-.6.7-1.4c.3-.9.5-2 .5-3.2 0-1.2-.2-2.3-.5-3.2-.3-.9-.6-1.4-.6-1.4s-.4.6-.7 1.4c-.3.9-.5 2-.5 3.2 0 1.2.2 2.3.5 3.2.2.9.6 1.4.6 1.4zM507.2 235c-.2-1.8-.5-3-.5-3s-.3 1.2-.5 3-.4 4.2-.4 6.6c0 2.4.1 4.8.4 6.6.2 1.8.5 3 .5 3s.3-1.2.5-3 .4-4.2.4-6.6c-.1-2.4-.2-4.8-.4-6.6zm41.6 312.1c1.2-2.1 2.4-4.3 3.1-6 .7-1.7 1.1-2.9 1.1-2.9s-.8.9-2 2.4c-1.1 1.5-2.5 3.5-3.7 5.7-1.2 2.1-2.4 4.3-3.1 6-.7 1.7-1.1 2.9-1.1 2.9s.8-.9 2-2.4c1.1-1.5 2.5-3.5 3.7-5.7zm-97.7 2.8c1.1-1.5 2.1-3.1 2.7-4.4.6-1.3 1-2.2 1-2.2s-.8.6-1.8 1.6-2.2 2.5-3.3 4c-1.1 1.5-2.1 3.1-2.7 4.4-.6 1.3-1 2.2-1 2.2s.8-.6 1.8-1.6 2.2-2.5 3.3-4zm-76.2-7.6c2.2-2.3 4.3-4.8 5.9-6.7 1.5-1.9 2.4-3.3 2.4-3.3s-1.3 1-3.1 2.6-4.2 3.9-6.4 6.2c-2.2 2.3-4.3 4.8-5.8 6.7-1.5 1.9-2.4 3.3-2.4 3.3s1.3-1 3.1-2.6 4.1-3.9 6.3-6.2zm166.6-106.7s.4-.6.6-1.4c.3-.9.5-2 .5-3.2 0-1.2-.2-2.3-.5-3.2-.3-.9-.7-1.4-.7-1.4s-.4.6-.7 1.4c-.3.9-.5 2-.5 3.2 0 1.2.2 2.3.5 3.2.4.8.8 1.4.8 1.4zM507.2 347c-.2-1.8-.5-3-.5-3s-.3 1.2-.5 3-.4 4.2-.4 6.6c0 2.4.2 4.8.4 6.6.2 1.8.5 3 .5 3s.3-1.2.5-3 .4-4.2.4-6.6c-.1-2.3-.2-4.8-.4-6.6z"/></svg>