<svg id="Layer_1" xmlns="http://www.w3.org/2000/svg" viewBox="0 0 595.3 595.3"><style>.st0{fill:#3b3594}.st1{fill:#4e447a}.st2{fill:#1b75bc}.st3{fill:#7e61aa}</style><path class="st0" d="M122.1 74.2h14v4.6h-11.7v-1.9h-4.6v1.9h-23v3.8h-4.5V70.5h4.5v3.8h25.3zM83.5 81H88v-7.9h-4.5V81zm423.7-7.9V81h4.5v-7.9h-4.5zm-8.7 1.1h-39.4v4.6h11.7v-1.9h4.6v1.9h23.1v3.8h4.5V70.5h-4.5v3.7zM124.4 518.4h-4.6v-1.9h-23v-3.8h-4.5v12.1h4.5V521h39.4v-4.6h-11.7v2zm-40.9 3.8H88v-7.9h-4.5v7.9zm423.7 0h4.5v-7.9h-4.5v7.9zm-8.7-5.7h-23.1v1.9h-4.6v-1.9h-11.7v4.6h39.4v3.8h4.5v-12.1h-4.5v3.7z"/><path class="st1" d="M56.1 436.1h7.6v4.5h-7.6v-4.5zM57.4 64H82v22.4h-4.5v-7.6H62v14h-4.6v-14H43.8v-4.5h13.6V64zM62 74.2h15.5v-5.7H62v5.7zm57.9 442.3v1.9h4.6v-7.6h11.7v19.4h4.5v-23.9h-20.8v10.2zm-68.5-81.9h18.3V430H62v-17.6h-4.6V430h-6.1v4.6zm0-269.4h6.1v17.6H62v-17.6h7.8v-4.5H51.5v4.5zM77.5 509H82v22.4H57.4v-10.2H43.8v-4.5h13.6v-14H62v14h15.5V509zm0 12.1H62v5.7h15.5v-5.7zM63.7 154.6h-7.6v4.5h7.6v-4.5zm475.5 0h-7.6v4.5h7.6v-4.5zm-7.6 286h7.6v-4.5h-7.6v4.5zm-6-275.4h7.8v17.6h4.6v-17.6h6.1v-4.5h-18.3v4.5zm0 269.4h18.3V430h-6.1v-17.6h-4.6V430h-7.8v4.6zm25.9-360.4v4.5h-13.6v14h-4.6v-14h-15.5v7.6h-4.5V64h24.6v10.2h13.6zm-18.2-5.7h-15.5v5.7h15.5v-5.7zm-397.2 5.7v10.3h-11.7v-7.6h-4.6V89h20.8V65.1h-4.5v9.1zm401.8 442.3h13.6v4.5h-13.6v10.2h-24.6V509h4.5v7.6h15.5v-14h4.6v13.9zm-4.6 4.6h-15.5v5.7h15.5v-5.7zm-78.7-2.3v11.4h4.5v-19.4h11.7v7.6h4.6v-12.1h-20.8v12.5zm16.3-442v7.6h-11.7V65h-4.5v23.9h20.8V76.8h-4.6z"/><path class="st2" d="M53.6 199.3h3.8V225h-3.8v-25.7zm8.4-52.2h5.5v-36.3H62v36.3zm62.4-62.7h11.7v-5.7h-11.7v5.7zm23.1-7.9v6.4h4.5v-4.2h15.9v1.5h4.5v-17h-25v13.3zM59.7 92.7h-9.4v4.5h19.4v-4.5h-10zm-6.3 11.4h13.3v-4.5H53.4v4.5zm6.3 78.7h-4.6v4.5h14.5v-4.5h-9.9zm5.1 46.8h-9.6v4.2h9.7v-4.2zm0 6.4h-9.7v4.5h9.7V236zm476.9-36.7h-3.8V225h3.8v-25.7zm-13.9-52.2h5.5v-36.3h-5.5v36.3zm-68.7-62.7h11.7v-5.7h-11.7v5.7zm-36.3-7.9v3.8h4.5v-1.5h15.9V83h4.5V63.2h-25v13.3zm115.1 16.2h-12.4v4.5h19.4v-4.5h-7zm4 6.9h-13.3v4.5h13.3v-4.5zm-1.8 87.8v-4.5h-14.7v4.5h14.7zm-9.6 42.2v4.2h9.7v-4.2h-9.7zm0 10.9h9.7V236h-9.7v4.5zM53.6 396h3.8v-25.7h-3.8V396zm13.9 52.2H62v36.3h5.5v-36.3zm56.9 68.3h11.7v-5.7h-11.7v5.7zm43.5 0H152v-4.2h-4.5v19.6h25V515H168v1.5zM50.3 498v4.5h19.5V498H50.3zm3.1-2.3h13.3v-4.5H53.4v4.5zm1.7-87.8v4.5h14.7v-4.5H55.1zm9.7-42.2v-4.2h-9.7v4.2h9.7zm0-11h-9.7v4.5h9.7v-4.5zm476.9 15.5h-3.8V396h3.8v-25.8zm-8.4 78h-5.5v36.3h5.5v-36.3zm-74.2 68.3h11.7v-5.7h-11.7v5.7zm-15.9 0h-15.9V515h-4.5v17h25v-19.6h-4.5v4.1zm82.4-18.5v4.5h19.5V498h-19.5zm16.3-6.8h-13.3v4.5h13.3v-4.5zm-6.3-78.8h4.6v-4.5h-14.5v4.5h9.9zm-5.1-46.7h9.6v-4.2h-9.7v4.2zm0-6.4h9.7v-4.5h-9.7v4.5z"/><path class="st3" d="M176.6 68.1h4.5v13.6h-4.5V68.1zm36.8 6.1h-23.1v-5.3h-4.5v12.9h4.5v-3h23.1v3h4.5V68.9h-4.5v5.3zm7.1 6.4h4.5V70h-4.5v10.6zm6.7 0h4.5V70h-4.5v10.6zM59.7 106.2H72v45.4H50.3v-4.5h7.1v-36.3h-7.1v-4.5h9.4zm7.8 4.5H62V147h5.5v-36.3zM55.1 229.6H49v-34.8h17v4.5h-4V225h2.8v4.6h-9.7zm-1.5-4.6h3.8v-25.7h-3.8V225zM414.1 81.8h4.5V68.1h-4.5v13.7zm-9.1-7.6h-23.1v-5.3h-4.5v12.9h4.5v-3H405v3h4.5V68.9H405v5.3zm-34.8 6.4h4.5V70h-4.5v10.6zm-6.6 0h4.5V70h-4.5v10.6zm172 71h-12.3v-45.4H545v4.5h-7.1V147h7.1v4.5h-9.4zm-7.8-4.5h5.5v-36.3h-5.5v36.3zm18.4 47.7v34.8h-15.7V225h2.8v-25.7h-4.2v-4.5h17.1zm-4.5 4.5h-3.8V225h3.8v-25.7zM176.6 527.1h4.5v-13.6h-4.5v13.6zm36.8-10.6h-23.1v-3h-4.5v12.9h4.5v-5.3h23.1v5.3h4.5v-12.9h-4.5v3zm7.1 8.7h4.5v-10.6h-4.5v10.6zm6.7 0h4.5v-10.6h-4.5v10.6zM59.7 443.7H72v45.4H50.3v-4.5h7.1v-36.3h-7.1v-4.5h9.4zm7.8 4.5H62v36.3h5.5v-36.3zm-7.8-47.7H49.1v-34.8h15.7v4.6H62V396h4.2v4.5h-6.5zm-6.1-4.5h3.8v-25.7h-3.8V396zm360.5 131.1h4.5v-13.6h-4.5v13.6zm-9.1-10.6h-23.1v-3h-4.5v12.9h4.5v-5.3H405v5.3h4.5v-12.9H405v3zm-34.8 8.7h4.5v-10.6h-4.5v10.6zm-6.6 0h4.5v-10.6h-4.5v10.6zm172-81.5h9.4v4.5h-7.1v36.3h7.1v4.5h-21.7v-45.4h12.3zm-2.3 4.5h-5.5v36.3h5.5v-36.3zm6.8-82.5h6.1v34.8h-17V396h4.2v-25.7h-2.8v-4.6h9.5zm1.6 4.5h-3.8V396h3.8v-25.8z"/></svg>