<svg id="Layer_1" xmlns="http://www.w3.org/2000/svg" viewBox="0 0 566.9 566.9"><style>.st0{fill:#fff}</style><path d="M494.8 447.2l-1.7-3.4 1.7-3.4 1.7 3.4-1.7 3.4zm1.8-83.6l-1.7-3.4-1.7 3.4 1.7 3.4 1.7-3.4zm0 40.1l-1.7-3.4-1.7 3.4 1.7 3.4 1.7-3.4zM70.2 443.8l1.7 3.4 1.7-3.4-1.7-3.4-1.7 3.4zm426.4-200.4l-1.7-3.4-1.7 3.4 1.7 3.4 1.7-3.4zm0-40.1l-1.7-3.4-1.7 3.4 1.7 3.4 1.7-3.4zm0 80.2l-1.7-3.4-1.7 3.4 1.7 3.4 1.7-3.4zm0 40.1l-1.7-3.4-1.7 3.4 1.7 3.4 1.7-3.4zM70.2 403.7l1.7 3.4 1.7-3.4-1.7-3.4-1.7 3.4zm0-200.4l1.7 3.4 1.7-3.4-1.7-3.4-1.7 3.4zm0-40.1l1.7 3.4 1.7-3.4-1.7-3.4-1.7 3.4zm0-40.1l1.7 3.4 1.7-3.4-1.7-3.4-1.7 3.4zm426.4 40.1l-1.7-3.4-1.7 3.4 1.7 3.4 1.7-3.4zM70.2 323.6l1.7 3.4 1.7-3.4-1.7-3.4-1.7 3.4zm0 40l1.7 3.4 1.7-3.4-1.7-3.4-1.7 3.4zm0-80.1l1.7 3.4 1.7-3.4-1.7-3.4-1.7 3.4zm0-40.1l1.7 3.4 1.7-3.4-1.7-3.4-1.7 3.4zM69.1 486l-1.8 3.6 1.5-.7.4-.8.2.5.9-.4-1.2-2.2zm16.7-172.3c.5 9.2 4.6 17.7 11.4 24-.5-9.2-4.6-17.8-11.4-24zm11.4-84.4c-6.8 6.2-10.8 14.8-11.4 24 6.8-6.3 10.9-14.9 11.4-24zm0-56.3c-6.8 6.2-10.8 14.8-11.4 24 6.8-6.3 10.9-14.8 11.4-24zm0 112.5c-6.8 6.2-10.8 14.8-11.4 24 6.8-6.2 10.9-14.8 11.4-24zm-11.4-28.1c.5 9.2 4.6 17.7 11.4 24-.5-9.2-4.6-17.8-11.4-24zm0-112.6c.5 9.2 4.6 17.7 11.4 24-.5-9.2-4.6-17.7-11.4-24zm0 56.3c.5 9.2 4.6 17.7 11.4 24-.5-9.2-4.6-17.7-11.4-24zM71.9 487.3l1.7-3.3-1.7-3.4-1.7 3.4 1.7 3.3zm2.7-1.3l-.4.8 1.1.5-.7-1.3zm22.6-369.3c-6.8 6.2-10.8 14.8-11.4 24 6.8-6.3 10.9-14.8 11.4-24zM80.9 492.2l-1.6-.8.6 1.3 1-.5zm-4-5.6l1.1 2.2 2.2 1.1-1-2.2-2.3-1.1zm1.3 7l.1-.2-1.6-3.3-3.1-1.5-.2.1-1.4 2.8-.8-1.7-.9.5 1.7 3.8-.8 1.8 1.8-.8 3.7 1.7.5-.9-1.6-.8 2.6-1.5zm203.2-23.9c-9.2.5-17.7 4.6-24 11.4 9.2-.6 17.7-4.7 24-11.4zM253.3 481c-6.2-6.8-14.8-10.8-24-11.4 6.2 6.8 14.8 10.9 24 11.4zm-56.3 0c-6.2-6.8-14.8-10.8-24-11.4 6.2 6.8 14.8 10.9 24 11.4zm28.1-11.3c-9.2.5-17.7 4.6-24 11.4 9.2-.6 17.8-4.7 24-11.4zm112.6 0c-9.2.5-17.7 4.6-24 11.4 9.2-.6 17.7-4.7 24-11.4zM309.5 481c-6.2-6.8-14.8-10.8-24-11.4 6.3 6.8 14.8 10.9 24 11.4zM97.2 398.1c-6.8 6.2-10.8 14.8-11.4 24 6.8-6.3 10.9-14.8 11.4-24zm0-56.3c-6.8 6.2-10.8 14.8-11.4 24 6.8-6.2 10.9-14.8 11.4-24zM85.8 370c.5 9.2 4.6 17.7 11.4 24-.5-9.2-4.6-17.8-11.4-24zm83 99.7c-9.2.5-17.7 4.6-24 11.4 9.2-.6 17.8-4.7 24-11.4zM140.7 481c-6.2-6.8-14.8-10.8-24-11.4 6.2 6.8 14.8 10.9 24 11.4zm-54.9-54.8c.5 9.2 4.6 17.7 11.4 24-.5-9.2-4.6-17.7-11.4-24zm409.9 63.5l-.9 1.7-1.4-2.9-3.4 1.7-1.6 3.2 3 1.5-1.8.9.5 1 4.1-1.9 1.2.6-.7-1.5 1.8-3.9-.8-.4zM365.8 481c-6.2-6.8-14.8-10.8-24-11.4 6.3 6.8 14.8 10.9 24 11.4zm131.8 7.1l.3.6 1.5.7-1.7-3.5-1 2.1.9.4v-.3zm-2.7-.9l1.7-3.3-1.7-3.4-1.7 3.4 1.6 3.2.1.1zm-2.8-1.2l-.8 1.5 1.2-.6-.4-.9zm-5 8.8l-3.1-1.5-3.4 1.7 3.4 1.7 3.2-1.6-.1-.3zm1.3 2.9l.1-.1-.5-1-2 1 3.4 1.7-.8-1.6h-.2zm3.7-416.8l.5-.9-1.2-.6.7 1.5zm5.5-2.3l-.1-.2-1 .5 1 2.1 1.7-3.5-1.6.8v.3zm12.6-21.9v453.5H56.7V56.7h453.5zm-32.5 7.1l6 2.7 6-2.7-6-7-6 7zm-9.9 5.4l6 2.7 6-2.7-6-2.7-6 2.7zm-13.5-2.7l-6 2.7 6 2.7 6-2.7-6-2.7zm-16.7-2.7l6 2.7 6-2.7-6-7-6 7zm-9.9 5.4l6 2.7 6-2.7-6-2.7-6 2.7zm-13.5-2.7l-6 2.7 6 2.7 6-2.7-6-2.7zm-16.7-2.7l6 2.7 6-2.7-6-7-6 7zm-9.9 5.4l6 2.7 6-2.7-6-2.7-6 2.7zm-13.5-2.7l-6 2.7 6 2.7 6-2.7-6-2.7zm-16.7-2.7l6 2.7 6-2.7-6-7-6 7zm-9.9 5.4l6 2.7 6-2.7-6-2.7-6 2.7zM334 66.5l-6 2.7 6 2.7 6-2.7-6-2.7zm-16.7-2.7l6 2.7 6-2.7-6-7-6 7zm-9.9 5.4l6 2.7 6-2.7-6-2.7-6 2.7zm-13.5-2.7l-6 2.7 6 2.7 6-2.7-6-2.7zm-16.7-2.7l6 2.7 6-2.7-6-7-6 7zm-9.9 5.4l6 2.7 6-2.7-6-2.7-6 2.7zm-13.5-2.7l-6 2.7 6 2.7 6-2.7-6-2.7zm-16.7-2.7l6 2.7 6-2.7-6-7-6 7zm-9.9 5.4l6 2.7 6-2.7-6-2.7-6 2.7zm-13.5-2.7l-6 2.7 6 2.7 6-2.7-6-2.7zm-16.6-2.7l6 2.7 6-2.7-6-7-6 7zm-9.9 5.4l6 2.7 6-2.7-6-2.7-6 2.7zm-13.6-2.7l-6 2.7 6 2.7 6-2.7-6-2.7zM157 63.8l6 2.7 6-2.7-6-7-6 7zm-9.9 5.4l6 2.7 6-2.7-6-2.7-6 2.7zm-13.6-2.7l-6 2.7 6 2.7 6-2.7-6-2.7zm-16.6-2.7l6 2.7 6-2.7-6-7-6 7zm-9.9 5.4l6 2.7 6-2.7-6-2.7-6 2.7zm-13.6-2.7l-6 2.7 6 2.7 6-2.7-6-2.7zm-16.6-2.7l6 2.7 6-2.7-6-7-6 7zm-20.1 59.5l7 6 2.7-6-2.7-6-7 6zm7-34.1l2.7-6-2.7-6-7 6 7 6zm-7 74.2l7 6 2.7-6-2.7-6-7 6zm0 40.1l7 6 2.7-6-2.7-6-7 6zm0 40.1l7 6 2.7-6-2.7-6-7 6zm0 40.1l7 6 2.7-6-2.7-6-7 6zm0 40.1l7 6 2.7-6-2.7-6-7 6zm0 40.1l7 6 2.7-6-2.7-6-7 6zm0 40.1l7 6 2.7-6-2.7-6-7 6zm0 40.1l7 6 2.7-6-2.7-6-7 6zm0 40.1l7 6 2.7-6-2.7-6-7 6zm32 18.9l-6-2.7-6 2.7 6 7 6-7zm10.7-5.4l-6-2.7-6 2.7 6 2.7 6-2.7zm13.6 2.7l6-2.7-6-2.7-6 2.7 6 2.7zm15.8 2.7l-6-2.7-6 2.7 6 7 6-7zm10.7-5.4l-6-2.7-6 2.7 6 2.7 6-2.7zm13.5 2.7l6-2.7-6-2.7-6 2.7 6 2.7zm15.9 2.7l-6-2.7-6 2.7 6 7 6-7zm10.7-5.4l-6-2.7-6 2.7 6 2.7 6-2.7zm13.5 2.7l6-2.7-6-2.7-6 2.7 6 2.7zm15.9 2.7l-6-2.7-6 2.7 6 7 6-7zm10.7-5.4l-6-2.7-6 2.7 6 2.7 6-2.7zm13.5 2.7l6-2.7-6-2.7-6 2.7 6 2.7zm15.9 2.7l-6-2.7-6 2.7 6 7 6-7zm10.7-5.4l-6-2.7-6 2.7 6 2.7 6-2.7zm13.5 2.7l6-2.7-6-2.7-6 2.7 6 2.7zm15.9 2.7l-6-2.7-6 2.7 6 7 6-7zm10.7-5.4l-6-2.7-6 2.7 6 2.7 6-2.7zm13.5 2.7l6-2.7-6-2.7-6 2.7 6 2.7zm15.9 2.7l-6-2.7-6 2.7 6 7 6-7zm10.7-5.4l-6-2.7-6 2.7 6 2.7 6-2.7zm13.5 2.7l6-2.7-6-2.7-6 2.7 6 2.7zm15.9 2.7l-6-2.7-6 2.7 6 7 6-7zm10.7-5.4l-6-2.7-6 2.7 6 2.7 6-2.7zm13.5 2.7l6-2.7-6-2.7-6 2.7 6 2.7zm15.9 2.7l-6-2.7-6 2.7 6 7 6-7zm10.6-5.4l-6-2.7-6 2.7 6 2.7 6-2.7zm13.6 2.7l6-2.7-6-2.7-6 2.7 6 2.7zm15.9 2.7l-6-2.7-6 2.7 6 7 6-7zm10.6-5.4l-6-2.7-6 2.7 6 2.7 6-2.7zm13.6 2.7l6-2.7-6-2.7-6 2.7 6 2.7zm15.9 2.7l-6-2.7-6 2.7 6 7 6-7zm20.3-59l-7-6-2.7 6 2.7 6 7-6zm-7 34.1l-2.7 6 2.7 6 7-6-7-6zm7-74.2l-7-6-2.7 6 2.7 6 7-6zm0-40.1l-7-6-2.7 6 2.7 6 7-6zm0-40.1l-7-6-2.7 6 2.7 6 7-6zm0-40.1l-7-6-2.7 6 2.7 6 7-6zm0-40.1l-7-6-2.7 6 2.7 6 7-6zm0-40.1l-7-6-2.7 6 2.7 6 7-6zm0-40.1l-7-6-2.7 6 2.7 6 7-6zm0-40.1l-7-6-2.7 6 2.7 6 7-6zm0-40l-7-6-2.7 6 2.7 6 7-6zm.2-11.3H506l-4.7 2.4h-.5l-.2.3-1.8.9 1.4-3-1.3-2.8 1.3-.6-1.9-.9-.8-1.7-.5 1.2-2.7-1.2-3.1 1.4.9-1.8.4-.2v-.6l2.3-4.5v-4.1l-4 8-6.9 3.5-8.7-4.4V66l6.6 3.3-5.5 2.8 5.5 2.7-7.4 3.7-8.5-4.3 4.2-2.1H466l-2.1 1.1-2.1-1.1h-4.1l4.2 2.1-8.5 4.3-7.4-3.7 5.5-2.7-5.5-2.8 6.6-3.3v-2.1l-8.7 4.4-8.7-4.4V66l6.6 3.3-5.5 2.8 5.5 2.7-7.4 3.7-8.5-4.3L430 72h-4.1l-2.1 1.1-2.1-1.1h-4.1l4.2 2.1-8.5 4.3-7.4-3.7 5.5-2.7-5.5-2.8 6.6-3.3v-2.1l-8.7 4.4-8.7-4.4v2.1l6.6 3.3-5.5 2.8 5.5 2.7-7.4 3.7-8.5-4.3L390 72h-4.1l-2.1 1.1-2.1-1.1h-4.1l4.2 2.1-8.5 4.3-7.4-3.7 5.5-2.7-5.5-2.8 6.6-3.3v-2.1l-8.7 4.4-8.7-4.4v2.1l6.6 3.3-5.5 2.8 5.5 2.7-7.4 3.7-8.5-4.3L350 72h-4.1l-2.1 1.1-2.1-1.1h-4.1l4.2 2.1-8.5 4.3-7.4-3.7 5.5-2.7-5.5-2.8 6.6-3.3v-2.1l-8.7 4.4-8.7-4.4v2.1l6.6 3.3L316 72l5.5 2.7-7.4 3.7-8.5-4.3 4.2-2.1h-4.1l-2.1 1.1-2.1-1.1h-4.1l4.2 2.1-8.5 4.3-7.4-3.7L291 72l-5.5-2.8 6.6-3.3v-2.1l-8.7 4.4-8.7-4.4v2.1l6.6 3.3-5.5 2.8 5.5 2.7-7.4 3.7-8.5-4.3 4.2-2.1h-4.1l-2.1 1.1-2.1-1.1h-4.1l4.2 2.1-8.5 4.3-7.4-3.7L251 72l-5.5-2.8 6.6-3.3v-2.1l-8.7 4.4-8.7-4.4v2.1l6.6 3.3-5.5 2.8 5.5 2.7-7.4 3.7-8.5-4.3 4.2-2.1h-4.1l-2.1 1.1-2.1-1.1h-4.1l4.2 2.1-8.5 4.3-7.4-3.7L211 72l-5.5-2.8 6.6-3.3v-2.1l-8.7 4.4-8.7-4.4v2.1l6.6 3.3-5.5 2.8 5.5 2.7-7.4 3.7-8.5-4.3 4.2-2.1h-4.1l-2.1 1.1-2.1-1.1H177l4.2 2.1-8.5 4.3-7.4-3.7 5.5-2.7-5.5-2.8 6.6-3.3v-2.1l-8.7 4.4-8.7-4.4v2.1l6.6 3.3-5.5 2.8 5.5 2.7-7.4 3.7-8.5-4.3 4.2-2.1h-4.1l-2.1 1.1-2.1-1.1H137l4.2 2.1-8.5 4.3-7.4-3.7 5.5-2.7-5.5-2.8 6.6-3.3v-2.1l-8.7 4.4-8.7-4.4v2.1l6.6 3.3-5.5 2.8 5.5 2.7-7.4 3.7-8.5-4.3 4.2-2.1h-4.1l-2.1 1.1L101 72h-4.1l4.2 2.1-8.5 4.3-7.4-3.7 5.5-2.7-5.5-2.8 6.6-3.3v-2.1L83 68.2l-7.2-3.6-4-7.8v4.1l2.5 4.9v.1h.1l.8 1.7-2.4-1.1-3.1 1.4-.6-1.3-.9 2-1.3.6.9.4-1.3 3 1.3 2.9-1.8-.9-.1-.2h-.2L60.9 72h-4.1l7.7 3.9 3.6 7.1-4.4 8.7h2.1l3.3-6.6 2.8 5.5 2.7-5.5 3.7 7.4L74 101l-2.1-4.2v4.1L73 103l-1.1 2.1v4.1L74 105l4.3 8.5-3.7 7.4-2.7-5.5-2.8 5.5-3.3-6.6h-2.1l4.4 8.7-4.4 8.7h2.1l3.3-6.6 2.8 5.5 2.7-5.5 3.7 7.4L74 141l-2.1-4.2v4.1L73 143l-1.1 2.1v4.1L74 145l4.3 8.5-3.7 7.4-2.7-5.5-2.8 5.5-3.3-6.6h-2.1l4.4 8.7-4.4 8.7h2.1l3.3-6.6 2.8 5.5 2.7-5.5 3.7 7.4L74 181l-2.1-4.2v4.1L73 183l-1.1 2.1v4.1L74 185l4.3 8.5-3.7 7.4-2.7-5.5-2.8 5.5-3.3-6.6h-2.1l4.4 8.7-4.4 8.7h2.1l3.3-6.6 2.8 5.5 2.7-5.5 3.7 7.4L74 221l-2.1-4.2v4.1L73 223l-1.1 2.1v4.1L74 225l4.3 8.5-3.7 7.4-2.7-5.5-2.8 5.5-3.3-6.6h-2.1l4.4 8.7-4.4 8.7h2.1l3.3-6.6 2.8 5.5 2.7-5.5 3.7 7.4L74 261l-2.1-4.2v4.1L73 263l-1.1 2.1v4.1L74 265l4.3 8.5-3.7 7.4-2.7-5.5-2.8 5.5-3.3-6.6h-2.1l4.4 8.7-4.4 8.7h2.1l3.3-6.6 2.8 5.5 2.7-5.5 3.7 7.4L74 301l-2.1-4.2v4.1L73 303l-1.1 2.1v4.1L74 305l4.3 8.5-3.7 7.4-2.7-5.5-2.8 5.5-3.3-6.6h-2.1l4.4 8.7-4.4 8.7h2.1l3.3-6.6 2.8 5.5 2.7-5.5 3.7 7.4L74 341l-2.1-4.2v4.1L73 343l-1.1 2.1v4.1L74 345l4.3 8.5-3.7 7.4-2.7-5.5-2.8 5.5-3.3-6.6h-2.1l4.4 8.7-4.4 8.7h2.1l3.3-6.6 2.8 5.5 2.7-5.5 3.7 7.4L74 381l-2.1-4.2v4.1L73 383l-1.1 2.1v4.1L74 385l4.3 8.5-3.7 7.4-2.7-5.5-2.8 5.5-3.3-6.6h-2.1l4.4 8.7-4.4 8.7h2.1l3.3-6.6 2.8 5.5 2.7-5.5 3.7 7.4L74 421l-2.1-4.2v4.1L73 423l-1.1 2.1v4.1L74 425l4.3 8.5-3.7 7.4-2.7-5.5-2.8 5.5-3.3-6.6h-2.1l4.4 8.7-4.4 8.7h2.1l3.3-6.6 2.8 5.5 2.7-5.5 3.7 7.4L74 461l-2.1-4.2v4.1L73 463l-1.1 2.1v4.1L74 466l4.3 8.5-3.7 7.4-2.7-5.5-2.8 5.5-3.3-6.6h-2.1l4.4 8.7-3.6 7.1-7.7 3.9h4.1l4.7-2.4h.2l.1-.2 1.7-.8-1.1 2.5 1.4 3.2-1 .4 1.5.7.8 1.7.5-1.1 3.2 1.5 2.4-1.1-.8 1.7h-.1v.1l-2.5 4.9v4.1l4-7.8 7.2-3.6 8.7 4.4V501l-6.6-3.3 5.5-2.8-5.5-2.7 7.4-3.7 8.5 4.3-4.2 2.1h4.1l2.1-1.1 2.1 1.1h4.1l-4.2-2.1 8.5-4.3 7.4 3.7-5.5 2.7 5.5 2.8-6.6 3.3v2.1l8.7-4.4 8.7 4.4V501l-6.6-3.3 5.5-2.8-5.5-2.7 7.4-3.7 8.5 4.3-4.2 2.1h4.1l2.1-1.1 2.1 1.1h4.1l-4.2-2.1 8.5-4.3 7.4 3.7-5.5 2.7 5.5 2.8-6.6 3.3v2.1l8.7-4.4 8.7 4.4V501l-6.6-3.3 5.5-2.8-5.5-2.7 7.4-3.7 8.5 4.3-4.2 2.1h4.1l2.1-1.1 2.1 1.1h4.1l-4.2-2.1 8.5-4.3 7.4 3.7-5.5 2.7 5.5 2.8-6.6 3.3v2.1l8.7-4.4 8.7 4.4V501l-6.6-3.3 5.5-2.8-5.5-2.7 7.4-3.7 8.5 4.3-4.2 2.1h4.1l2.1-1.1 2.1 1.1h4.1l-4.2-2.1 8.5-4.3 7.4 3.7-5.5 2.7 5.5 2.8-6.6 3.3v2.1l8.7-4.4 8.7 4.4V501l-6.6-3.3 5.5-2.8-5.5-2.7 7.4-3.7 8.5 4.3-4.2 2.1h4.1l2.1-1.1 2.1 1.1h4.1l-4.2-2.1 8.5-4.3 7.4 3.7-5.5 2.7 5.5 2.8-6.6 3.3v2.1l8.7-4.4 8.7 4.4V501l-6.6-3.3 5.5-2.8-5.5-2.7 7.4-3.7 8.5 4.3-4.2 2.1h4.1l2.1-1.1 2.1 1.1h4.1l-4.2-2.1 8.5-4.3 7.4 3.7-5.5 2.7 5.5 2.8-6.6 3.3v2.1l8.7-4.4 8.7 4.4V501l-6.6-3.3 5.5-2.8-5.5-2.7 7.4-3.7 8.5 4.3-4.2 2.1h4.1l2.1-1.1 2.1 1.1h4.1l-4.2-2.1 8.5-4.3 7.4 3.7-5.5 2.7 5.5 2.8-6 3.3v2.1l8.7-4.4 8.7 4.4V501l-6.6-3.3 5.5-2.8-5.5-2.7 7.4-3.7 8.5 4.3-4.2 2.1h4.1l2.1-1.1 2.1 1.1h4.1l-4.2-2.1 8.5-4.3 7.4 3.7-5.5 2.7 5.5 2.8-6.6 3.3v2.1l8.7-4.4 8.7 4.4V501l-6.6-3.3 5.5-2.8-5.5-2.7 7.4-3.7 8.5 4.3-4.2 2.1h4.1l2.1-1.1 2.1 1.1h4.1l-4.2-2.1 8.5-4.3 7.4 3.7-5.5 2.7 5.5 2.8-6.6 3.3v2.1l8.7-4.4 8.7 4.4V501l-6.6-3.3 5.5-2.8-5.5-2.7 7.4-3.7 8.5 4.3-4.2 2.1h4.1l2.1-1.1 2.1 1.1h4.1l-4.2-2.1 8.5-4.3 7.4 3.7-5.5 2.7 5.5 2.8-6.6 3.3v2.1l8.7-4.4 6.9 3.5 4 8V506l-2.3-4.5v-.5l-.4-.2-.9-1.8 3.1 1.4 2.8-1.3.4.9.6-1.4 2.1-.9-1.4-.6 1.4-3-1.2-2.6 1.6.8.2.3h.5l4.7 2.4h4.1l-8-4.1-3.5-7 4.4-8.7h-2.1l-3.3 6.6-2.8-5.5-2.7 5.5-3.7-7.4 4.3-8.5 2.1 4.2V466l-1.1-2.1 1.1-2.1v-4.1l-2.1 4.2-4.3-8.5 3.7-7.4 2.7 5.5 2.8-5.5 3.3 6.6h2.1l-4.4-8.7 4.4-8.7h-2.1l-3.3 6.6-2.8-5.5-2.7 5.5-3.7-7.4 4.3-8.5 2.1 4.2V426l-1.1-2.1 1.1-2.1v-4.1l-2.1 4.2-4.3-8.5 3.7-7.4 2.7 5.5 2.8-5.5 3.3 6.6h2.1l-4.4-8.7 4.4-8.7h-2.1l-3.3 6.6-2.8-5.5-2.7 5.5-3.7-7.4 4.3-8.5 2.1 4.2V386l-1.1-2.1 1.1-2.1v-4.1l-2.1 4.2-4.3-8.5 3.7-7.4 2.7 5.5 2.8-5.5 3.3 6.6h2.1l-4.4-8.7 4.4-8.7h-2.1l-3.3 6.6-2.8-5.5-2.7 5.5-3.7-7.4 4.3-8.5 2.1 4.2V346l-1.1-2.1 1.1-2.1v-4.1l-2.1 4.2-4.3-8.5 3.7-7.4 2.7 5.5 2.8-5.5 3.3 6.6h2.1l-4.4-8.7 4.4-8.7h-2.1l-3.3 6.6-2.8-5.5-2.7 5.5-3.7-7.4 4.3-8.5 2.1 4.2V306l-1.1-2.1 1.1-2.1v-4.1l-2.1 4.2-4.3-8.5 3.7-7.4 2.7 5.5 2.8-5.5 3.3 6.6h2.1l-4.4-8.7 4.4-8.7h-2.1l-3.3 6.6-2.8-5.5-2.7 5.5-3.7-7.4 4.3-8.5 2.1 4.2V266l-1.1-2.1 1.1-2.1v-4.1l-2.1 4.2-4.3-8.5 3.7-7.4 2.7 5.5 2.8-5.5 3.3 6.6h2.1l-4.4-8.7 4.4-8.7h-2.1l-3.3 6.6-2.8-5.5-2.7 5.5-3.7-7.4 4.3-8.5 2.1 4.2V226l-1.1-2.1 1.1-2.1v-4.1l-2.1 4.2-4.3-8.5 3.7-7.4 2.7 5.5 2.8-5.5 3.3 6.6h2.1l-4.4-8.7 4.4-8.7h-2.1l-3.3 6.6-2.8-5.5-2.7 5.5-3.7-7.4 4.3-8.5 2.1 4.2V186l-1.1-2.1 1.1-2.1V177l-2.1 4.2-4.3-8.5 3.7-7.4 2.7 5.5 2.8-5.5 3.3 6.6h2.1l-4.4-8.7 4.4-8.7h-2.1l-3.3 6.6-2.8-5.5-2.7 5.5-3.7-7.4 4.3-8.5 2.1 4.2v-4.1l-1.1-2.1 1.1-2.1V137l-2.1 4.2-4.3-8.5 3.7-7.4 2.7 5.5 2.8-5.5 3.3 6.6h2.1l-4.4-8.7 4.4-8.7h-2.1l-3.3 6.6-2.8-5.5-2.7 5.5-3.7-7.4 4.3-8.5 2.1 4.2v-4.1l-1.1-2.1 1.1-2.1V97l-2.1 4.2-4.3-8.5 3.7-7.4 2.7 5.5 2.8-5.5 3.3 6.6h2.1l-4.4-8.7 3.5-7 8.3-4.2zm-9.9 21.1l-2.7-6-2.7 6 2.7 6 2.7-6zm-2.7 13.6l-2.7 6 2.7 6 2.7-6-2.7-6zm2.7 26.5l-2.7-6-2.7 6 2.7 6 2.7-6zm-2.7 13.6l-2.7 6 2.7 6 2.7-6-2.7-6zm2.7 26.5l-2.7-6-2.7 6 2.7 6 2.7-6zm-2.7 13.6l-2.7 6 2.7 6 2.7-6-2.7-6zm2.7 26.5l-2.7-6-2.7 6 2.7 6 2.7-6zm-2.7 13.6l-2.7 6 2.7 6 2.7-6-2.7-6zm2.7 26.5l-2.7-6-2.7 6 2.7 6 2.7-6zm-2.7 13.6l-2.7 6 2.7 6 2.7-6-2.7-6zm2.7 26.5l-2.7-6-2.7 6 2.7 6 2.7-6zm-2.7 13.5l-2.7 6 2.7 6 2.7-6-2.7-6zm2.7 26.6l-2.7-6-2.7 6 2.7 6 2.7-6zm-2.7 13.5l-2.7 6 2.7 6 2.7-6-2.7-6zm2.7 26.6l-2.7-6-2.7 6 2.7 6 2.7-6zm-2.7 13.5l-2.7 6 2.7 6 2.7-6-2.7-6zm2.7 26.6l-2.7-6-2.7 6 2.7 6 2.7-6zm-2.7 13.5l-2.7 6 2.7 6 2.7-6-2.7-6zm2.7 26.6l-2.7-6-2.7 6 2.7 6 2.7-6zm-2.7 13.5l-2.7 6 2.7 6 2.7-6-2.7-6zm-431.2 6l2.7 6 2.7-6-2.7-6-2.7 6zm2.7-13.5l2.7-6-2.7-6-2.7 6 2.7 6zm-2.7-26.6l2.7 6 2.7-6-2.7-6-2.7 6zm2.7-13.5l2.7-6-2.7-6-2.7 6 2.7 6zm-2.7-26.6l2.7 6 2.7-6-2.7-6-2.7 6zm2.7-13.5l2.7-6-2.7-6-2.7 6 2.7 6zm-2.7-26.6l2.7 6 2.7-6-2.7-6-2.7 6zm2.7-13.5l2.7-6-2.7-6-2.7 6 2.7 6zm-2.7-26.6l2.7 6 2.7-6-2.7-6-2.7 6zm2.7-13.5l2.7-6-2.7-6-2.7 6 2.7 6zM66.4 273l2.7 6 2.7-6-2.7-6-2.7 6zm2.7-13.5l2.7-6-2.7-6-2.7 6 2.7 6zm-2.7-26.6l2.7 6 2.7-6-2.7-6-2.7 6zm2.7-13.5l2.7-6-2.7-6-2.7 6 2.7 6zm-2.7-26.5l2.7 6 2.7-6-2.7-6-2.7 6zm2.7-13.6l2.7-6-2.7-6-2.7 6 2.7 6zm-2.7-26.5l2.7 6 2.7-6-2.7-6-2.7 6zm2.7-13.6l2.7-6-2.7-6-2.7 6 2.7 6zm-2.7-26.5l2.7 6 2.7-6-2.7-6-2.7 6zm2.7-13.6l2.7-6-2.7-6-2.7 6 2.7 6zm419.6-21l2.4 4.9-4.7 9.6 5.3 10.5-5.3 10.5 4.7 9.6-4.7 9.6 5.3 10.5-5.3 10.5 4.7 9.6-4.7 9.6 5.3 10.5-5.3 10.5 4.7 9.6-4.7 9.6 5.3 10.5-5.3 10.5 4.7 9.6-4.7 9.6 5.3 10.5-5.3 10.5 4.7 9.6-4.7 9.6 5.3 10.5-5.3 10.5 4.7 9.6-4.7 9.6 5.3 10.5-5.3 10.5 4.7 9.6-4.7 9.6 5.3 10.5-5.3 10.5 4.7 9.6-4.7 9.6 5.3 10.5-5.3 10.5 4.7 9.6-4.7 9.6 5.3 10.5-5.3 10.5 4.7 9.6-2.4 4.9-2.2 1.1 1.1-2.5 2-.9-1.3-.6.8-1.7-2.7-6-1.2 2.6c-.3-2-2-3.5-4-3.5-.4 0-.8.1-1.2.2-6.6-6.5-10.4-15.4-10.5-24.8 8.5-7.1 13.3-17.5 13.3-28.5 0-10.9-4.7-21-12.8-28.1 8.2-7.1 12.8-17.3 12.8-28.1s-4.7-21-12.8-28.1c8.2-7.1 12.8-17.3 12.8-28.1 0-10.9-4.7-21-12.8-28.1 8.2-7.1 12.8-17.3 12.8-28.1 0-10.9-4.7-21-12.8-28.1 8.2-7.1 12.8-17.3 12.8-28.1s-4.7-21-12.8-28.1c8.2-7.1 12.8-17.3 12.8-28.1 0-11.1-4.8-21.4-13.3-28.5.1-9.4 3.9-18.2 10.5-24.8.4.1.8.2 1.2.2 1.9 0 3.5-1.3 4-3.1l1.2 2.7 2.7-6-1-2.1 1.5-.7-2.3-1-1-2.1-.6 1.4-2.1-.9-6 2.7 2.5 1.1c-1.8.4-3.1 2-3.1 4 0 .5.1 1 .3 1.4-6.5 6.5-15.3 10.2-24.6 10.4-7.1-8.5-17.5-13.3-28.5-13.3-10.9 0-21 4.7-28.1 12.8-7.1-8.2-17.3-12.8-28.1-12.8-10.9 0-21 4.7-28.1 12.8-7.1-8.2-17.3-12.8-28.1-12.8-10.9 0-21 4.7-28.1 12.8-7.1-8.2-17.3-12.8-28.1-12.8-10.9 0-21 4.7-28.1 12.8C220.1 88.7 209.9 84 199 84c-10.9 0-21 4.7-28.1 12.8-7.1-8.2-17.3-12.8-28.1-12.8-11.1 0-21.4 4.8-28.5 13.3-9.3-.1-18.1-3.8-24.6-10.4.2-.5.3-.9.3-1.4 0-2-1.5-3.7-3.4-4l2.3-1.1-6-2.7-1.8.8-.6-1.3-.9 2-2.5 1.1 1.1-2.2 5-2.5 9.6 4.7 10.5-5.3 10.5 5.3 9.6-4.7 9.6 4.7 10.5-5.3 10.5 5.3 9.6-4.7 9.6 4.7 10.5-5.3 10.5 5.3 9.6-4.7 9.6 4.7 10.5-5.3 10.5 5.3 9.6-4.7 9.6 4.7 10.5-5.3 10.5 5.3 9.6-4.7 9.6 4.7 10.5-5.3 10.5 5.3 9.6-4.7 9.6 4.7 10.5-5.3 10.5 5.3 9.6-4.7 9.6 4.7 10.5-5.3 10.5 5.3 9.6-4.7 9.6 4.7 10.5-5.3 10.5 5.3 9.6-4.7 9.6 4.7 10.5-5.3 10.5 5.3 9.6-4.7 3.5 2.5zm-359.9 2.3l-6-2.7-6 2.7 6 2.7 6-2.7zm40.1 0l-6-2.7-6 2.7 6 2.7 6-2.7zm40.1 0l-6-2.7-6 2.7 6 2.7 6-2.7zm40.1 0l-6-2.7-6 2.7 6 2.7 6-2.7zm40.1 0l-6-2.7-6 2.7 6 2.7 6-2.7zm40.1 0l-6-2.7-6 2.7 6 2.7 6-2.7zm40.1 0l-6-2.7-6 2.7 6 2.7 6-2.7zm40.1 0l-6-2.7-6 2.7 6 2.7 6-2.7zm40.1 0l-6-2.7-6 2.7 6 2.7 6-2.7zm36.8 357.7l-2.7 6 2.7 6 2.7-6-2.7-6zm0-40.1l-2.7 6 2.7 6 2.7-6-2.7-6zm0-40.1l-2.7 6 2.7 6 2.7-6-2.7-6zm0-40.1l-2.7 6 2.7 6 2.7-6-2.7-6zm0-40.1l-2.7 6 2.7 6 2.7-6-2.7-6zm0-40.1l-2.7 6 2.7 6 2.7-6-2.7-6zm0-40.1l-2.7 6 2.7 6 2.7-6-2.7-6zm0-40.1l-2.7 6 2.7 6 2.7-6-2.7-6zm0-40l-2.7 6 2.7 6 2.7-6-2.7-6zm.9 374.2l-1.3.7.8.4.5-1.1zm7.4-411.8l-1.6 3.2 1.7 3.4 1.7-3.4-1.7-3.3-.1.1zm-375 415.1l3.4 1.7 3.4-1.7-3.4-1.7-3.4 1.7zm80.2 0l3.4 1.7 3.4-1.7-3.4-1.7-3.4 1.7zm-40.1 0l3.4 1.7 3.4-1.7-3.4-1.7-3.4 1.7zm-80.2 0l3.4 1.7 3.4-1.7-3.4-1.7-3.4 1.7zm160.4 0l3.4 1.7 3.4-1.7-3.4-1.7-3.4 1.7zm-161.7 2.6l.5.2-.8.4-.7 1.5 3.7-1.9-2.2-1.1-.5.9zm322-2.6l3.4 1.7 3.4-1.7-3.4-1.7-3.4 1.7zm83.6-3.7l-9.6-4.7-10.5 5.3-10.5-5.3-9.6 4.7-9.6-4.7-10.5 5.3-10.5-5.3-9.6 4.7-9.6-4.7-10.5 5.3-10.5-5.3-9.6 4.7-9.6-4.7-10.5 5.3-10.5-5.3-9.6 4.7-9.6-4.7-10.5 5.3-10.5-5.3-9.6 4.7-9.6-4.7-10.5 5.3-10.5-5.3-9.6 4.7-9.6-4.7-10.5 5.3-10.5-5.3-9.6 4.7-9.6-4.7-10.5 5.3-10.5-5.3-9.6 4.7-9.6-4.7-10.5 5.3-10.5-5.3-9.6 4.7-9.6-4.7-10.5 5.3-10.5-5.3-9.6 4.7-2.6-1.3.7-1.5 1.7.7 6-2.7-2.3-1.1c1.9-.3 3.4-2 3.4-4 0-.5-.1-1-.3-1.4 6.5-6.5 15.3-10.2 24.6-10.4 7.1 8.5 17.5 13.3 28.5 13.3 10.9 0 21-4.7 28.1-12.8 7.1 8.2 17.3 12.8 28.1 12.8 10.9 0 21-4.7 28.1-12.8 7.1 8.2 17.3 12.8 28.1 12.8 10.9 0 21-4.7 28.1-12.8 7.1 8.2 17.3 12.8 28.1 12.8 10.9 0 21-4.7 28.1-12.8 7.1 8.2 17.3 12.8 28.1 12.8 10.9 0 21-4.7 28.1-12.8 7.1 8.2 17.3 12.8 28.1 12.8 11.1 0 21.4-4.9 28.5-13.3 9.3.1 18.1 3.8 24.6 10.4-.2.4-.3.9-.3 1.4 0 1.9 1.3 3.5 3.1 4l-2.5 1.1 6 2.7 1.9-.9.8 1.7-.8 1.3zm-355.1-4.7l-6-2.7-6 2.7 6 2.7 6-2.7zm40.1 0l-6-2.7-6 2.7 6 2.7 6-2.7zm40.1 0l-6-2.7-6 2.7 6 2.7 6-2.7zm40.1 0l-6-2.7-6 2.7 6 2.7 6-2.7zm40.1 0l-6-2.7-6 2.7 6 2.7 6-2.7zm40.1 0l-6-2.7-6 2.7 6 2.7 6-2.7zm40.1 0l-6-2.7-6 2.7 6 2.7 6-2.7zm40.1 0l-6-2.7-6 2.7 6 2.7 6-2.7zm40.1 0l-6-2.7-6 2.7 6 2.7 6-2.7zm-9.2 8.4l3.4 1.7 3.4-1.7-3.4-1.7-3.4 1.7zm-160.3 0l3.4 1.7 3.4-1.7-3.4-1.7-3.4 1.7zm80.2 0l3.4 1.7 3.4-1.7-3.4-1.7-3.4 1.7zm-40.1 0l3.4 1.7 3.4-1.7-3.4-1.7-3.4 1.7zM327 72l-3.4-1.7-3.4 1.7 3.4 1.7L327 72zm-160.4 0l-3.4-1.7-3.4 1.7 3.4 1.7 3.4-1.7zM71 77.1l.8-1.7 1.4 2.8.2.1 3.1-1.5 1.6-3.3-.1-.2-2.5-1.3 1.6-.8-.5-.9-3.7 1.7-1.7-.8.6 1.4-1.8 4 1 .5zm-1.8 1.2l-.1.3-.2-.4-1.6-.8 1.8 3.6 1.1-2.1-1-.6zm11.7-3.6l-1-.5-.6 1.3 1.6-.8zm2.1-1l3.4-1.7-3.4-1.7-3.4 1.7 3.4 1.7zm43.5-1.7l-3.4-1.7-3.4 1.7 3.4 1.7 3.4-1.7zm-47.7-2.8l-.5.2.4.9 2.2-1.1-3.7-1.9.7 1.5.9.4zm35.8 30c10.9 0 21-4.7 28.1-12.8 7.1 8.2 17.3 12.8 28.1 12.8s21-4.7 28.1-12.8c7.1 8.2 17.3 12.8 28.1 12.8 10.9 0 21-4.7 28.1-12.8 7.1 8.2 17.3 12.8 28.1 12.8 10.9 0 21-4.7 28.1-12.8 7.1 8.2 17.3 12.8 28.1 12.8 10.9 0 21-4.7 28.1-12.8 7.1 8.2 17.3 12.8 28.1 12.8 10.9 0 21-4.7 28.1-12.8 7.1 8.2 17.3 12.8 28.1 12.8 9.6 0 18.7-3.6 25.5-10.1-6.5 6.9-10.2 16-10.2 25.6 0 10.9 4.7 21 12.8 28.1-8.2 7.1-12.8 17.3-12.8 28.1s4.7 21 12.8 28.1c-8.2 7.1-12.8 17.3-12.8 28.1 0 10.9 4.7 21 12.8 28.1-8.2 7.1-12.8 17.3-12.8 28.1 0 10.9 4.7 21 12.8 28.1-8.2 7.1-12.8 17.3-12.8 28.1 0 10.9 4.7 21 12.8 28.1-8.2 7.1-12.8 17.3-12.8 28.1 0 10.9 4.7 21 12.8 28.1-8.2 7.1-12.8 17.3-12.8 28.1 0 9.6 3.7 18.7 10.2 25.6-6.9-6.5-15.9-10.1-25.5-10.1-10.9 0-21 4.7-28.1 12.8-7.1-8.2-17.3-12.8-28.1-12.8-10.9 0-21 4.7-28.1 12.8-7.1-8.2-17.3-12.8-28.1-12.8s-21 4.7-28.1 12.8c-7.1-8.2-17.3-12.8-28.1-12.8s-21 4.7-28.1 12.8c-7.1-8.2-17.3-12.8-28.1-12.8-10.9 0-21 4.7-28.1 12.8-7.1-8.2-17.3-12.8-28.1-12.8-10.9 0-21 4.7-28.1 12.8-7.1-8.2-17.3-12.8-28.1-12.8-9.8 0-19.1 3.8-26.1 10.6h-.1c6.8-6.9 10.6-16.2 10.6-26 0-10.9-4.7-21-12.8-28.1 8.2-7.1 12.8-17.3 12.8-28.1 0-10.9-4.7-21-12.8-28.1 8.2-7.1 12.8-17.3 12.8-28.1s-4.7-21-12.8-28.1c8.2-7.1 12.8-17.3 12.8-28.1 0-10.9-4.7-21-12.8-28.1C94.4 248.2 99 238 99 227.2c0-10.9-4.7-21-12.8-28.1C94.4 192 99 181.8 99 171s-4.7-21-12.8-28.1c8.2-7.1 12.8-17.3 12.8-28.1 0-9.8-3.8-19.1-10.6-26h.1c7 6.5 16.3 10.4 26.1 10.4zm-13.2 2.2v364.1h364.1V101.4H101.4zm15.3-4.1c9.2-.5 17.7-4.6 24-11.4-9.2.5-17.8 4.6-24 11.4zM74.6 80.9l.7-1.4-1.1.5.4.9zm70.2 5c6.2 6.8 14.8 10.8 24 11.4-6.2-6.8-14.8-10.9-24-11.4zm-72.9-6.3L70.2 83l1.7 3.4 1.7-3.4-1.7-3.4zm322 390.1c-9.2.5-17.7 4.6-24 11.4 9.2-.6 17.8-4.7 24-11.4zM206.7 72l-3.4-1.7-3.4 1.7 3.4 1.7 3.4-1.7zm280.4.1l.1-.2-3.2-1.6-3.4 1.7 3.4 1.7 3.1-1.6zm1.4 1.4l1.6 3.2 3.4 1.7 1.4-2.9.9 1.8 1-.5-1.9-4.1.5-1.1-1.1.5-4.1-1.9-.5 1 1.8.9-3 1.4zM447.2 72l-3.4-1.7-3.4 1.7 3.4 1.7 3.4-1.7zm41.3-2.7l-.1-.1.2-.1.8-1.6-3.4 1.7 2 1 .5-.9zm-2.5 5.4l1.3.7-.5-1.1-.8.4zM286.9 72l-3.4-1.7-3.4 1.7 3.4 1.7 3.4-1.7zm120.2 0l-3.4-1.7-3.4 1.7 3.4 1.7 3.4-1.7zm-160.3 0l-3.4-1.7L240 72l3.4 1.7 3.4-1.7zm249.8 51.1l-1.7-3.4-1.7 3.4 1.7 3.4 1.7-3.4zM367 72l-3.4-1.7-3.4 1.7 3.4 1.7L367 72zM76.9 486.4l-1.2-2.5 4.7-9.6-5.4-10.4 5.3-10.5-4.7-9.6 4.7-9.6-5.3-10.4 5.3-10.5-4.7-9.6 4.7-9.6-5.3-10.4 5.3-10.5-4.7-9.6 4.7-9.6-5.3-10.4 5.3-10.5-4.7-9.6 4.7-9.6-5.3-10.4 5.3-10.5-4.7-9.6 4.7-9.6-5.3-10.4 5.3-10.5-4.7-9.6 4.7-9.6-5.3-10.4 5.3-10.5-4.7-9.6 4.7-9.6-5.3-10.4 5.3-10.5-4.7-9.6 4.7-9.6-5.3-10.4 5.3-10.5-4.7-9.6 4.7-9.6-5.3-10.3 5.3-10.5-4.7-9.6 1.2-2.5 1.7.8-.9 2 2.7 6 1.4-3.1c.3 2 2 3.5 4 3.5.4 0 .7-.1 1-.1 6.6 6.5 10.3 15.4 10.5 24.7-8.5 7.1-13.3 17.5-13.3 28.5 0 10.9 4.7 21 12.8 28.1-8.2 7.1-12.8 17.3-12.8 28.1s4.7 21 12.8 28.1c-8.2 7.1-12.8 17.3-12.8 28.1 0 10.9 4.7 21 12.8 28.1-8.2 7.1-12.8 17.3-12.8 28.1 0 10.9 4.7 21 12.8 28.1-8.2 7.1-12.8 17.3-12.8 28.1 0 10.9 4.7 21 12.8 28.1-8.2 7.1-12.8 17.3-12.8 28.1 0 11.1 4.9 21.4 13.3 28.5-.1 9.4-3.9 18.2-10.5 24.7-.3-.1-.7-.1-1-.1-2.2 0-3.9 1.7-4.1 3.9l-1.3-3-2.7 6 .7 1.6-1.4 1zm3.4-357.1l2.7-6-2.7-6-2.7 6 2.7 6zm0 40.1l2.7-6-2.7-6-2.7 6 2.7 6zm0 40.1l2.7-6-2.7-6-2.7 6 2.7 6zm0 40.1l2.7-6-2.7-6-2.7 6 2.7 6zm0 40.1l2.7-6-2.7-6-2.7 6 2.7 6zm0 40.1l2.7-6-2.7-6-2.7 6 2.7 6zm0 40.1l2.7-6-2.7-6-2.7 6 2.7 6zm0 40.1l2.7-6-2.7-6-2.7 6 2.7 6zm0 40.1l2.7-6-2.7-6-2.7 6 2.7 6zm389.3-168.7c6.8-6.2 10.8-14.8 11.4-24-6.8 6.2-10.9 14.8-11.4 24zm11.3-84.4c-.5-9.2-4.6-17.7-11.4-24 .6 9.2 4.7 17.7 11.4 24zm-11.3 140.7c6.8-6.2 10.8-14.8 11.4-24-6.8 6.2-10.9 14.8-11.4 24zm11.3 28.1c-.5-9.2-4.6-17.7-11.4-24 .6 9.2 4.7 17.8 11.4 24zm0-112.5c-.5-9.2-4.6-17.7-11.4-24 .6 9.1 4.7 17.7 11.4 24zm-11.3-28.2c6.8-6.2 10.8-14.8 11.4-24-6.8 6.3-10.9 14.8-11.4 24zm11.3 84.4c-.5-9.2-4.6-17.7-11.4-24 .6 9.2 4.7 17.8 11.4 24zm-30.7 160.2c-9.2.5-17.7 4.6-24 11.4 9.2-.6 17.8-4.7 24-11.4zm19.4-75.8c6.8-6.2 10.8-14.8 11.4-24-6.8 6.3-10.9 14.9-11.4 24zM422.1 481c-6.2-6.8-14.8-10.8-24-11.4 6.2 6.8 14.8 10.9 24 11.4zm47.5-30.8c6.8-6.2 10.8-14.8 11.4-24-6.8 6.3-10.9 14.8-11.4 24zm11.3-28.1c-.5-9.2-4.6-17.7-11.4-24 .6 9.2 4.7 17.7 11.4 24zM201.1 85.9c6.2 6.8 14.8 10.8 24 11.4-6.2-6.8-14.8-10.9-24-11.4zm56.3 0c6.2 6.8 14.8 10.8 24 11.4-6.3-6.8-14.8-10.9-24-11.4zm28.1 11.4c9.2-.5 17.7-4.6 24-11.4-9.2.5-17.7 4.6-24 11.4zm-56.2 0c9.2-.5 17.7-4.6 24-11.4-9.2.5-17.8 4.6-24 11.4zm-56.3 0c9.2-.5 17.7-4.6 24-11.4-9.2.5-17.8 4.6-24 11.4zm140.7-11.4c6.2 6.8 14.8 10.8 24 11.4-6.3-6.8-14.8-10.9-24-11.4zm56.3 0c6.2 6.8 14.8 10.8 24 11.4-6.3-6.8-14.9-10.9-24-11.4zm56.2 0c6.2 6.8 14.8 10.8 24 11.4-6.2-6.8-14.8-10.9-24-11.4zm54.7 54.8c-.5-9.2-4.6-17.7-11.4-24 .6 9.2 4.7 17.7 11.4 24zm-82.8-43.4c9.2-.5 17.7-4.6 24-11.4-9.2.5-17.8 4.6-24 11.4zm71.5 71.5c6.8-6.2 10.8-14.8 11.4-24-6.8 6.3-10.9 14.8-11.4 24zM341.8 97.3c9.2-.5 17.7-4.6 24-11.4-9.2.5-17.7 4.6-24 11.4z"/><path class="st0" d="M319.4 497.7l-6 2.7-6-2.7 6-2.7 6 2.7zm-86.2-2.7l-6 2.7 6 2.7 6-2.7-6-2.7zm-36.1 8.1l6 7 6-7-6-2.7-6 2.7zm40 0l6 7 6-7-6-2.7-6 2.7zm40.1 0l6 7 6-7-6-2.7-6 2.7zm-84.1-8.1l-6 2.7 6 2.7 6-2.7-6-2.7zm54.7 2.7l6 2.7 6-2.7-6-2.7-6 2.7zm40.1 0l6 2.7 6-2.7-6-2.7-6 2.7zm-14.6-2.7l-6 2.7 6 2.7 6-2.7-6-2.7zm-65.6 2.7l6 2.7 6-2.7-6-2.7-6 2.7zM113 495l-6 2.7 6 2.7 6-2.7-6-2.7zm-25.6 2.7l6 2.7 6-2.7-6-2.7-6 2.7zm-10.6 5.4l6 7 6-7-6-2.7-6 2.7zm-10.4-18.9l-2.7-6-7 6 7 6 2.7-6zm61.1 13.5l6 2.7 6-2.7-6-2.7-6 2.7zm-10.6 5.4l6 7 6-7-6-2.7-6 2.7zM153 495l-6 2.7 6 2.7 6-2.7-6-2.7zm4 8.1l6 7 6-7-6-2.7-6 2.7zm10.6-5.4l6 2.7 6-2.7-6-2.7-6 2.7zm330-129.9l-2.7 6 2.7 6 2.7-6-2.7-6zM83 163.4l-2.7-6-2.7 6 2.7 6 2.7-6zm411.9 310.1l2.7 6 2.7-6-2.7-6-2.7 6zm2.7-25.5l-2.7 6 2.7 6 2.7-6-2.7-6zm-19.9 55.1l6 7 6-7-6-2.7-6 2.7zm-160.4 0l6 7 6-7-6-2.7-6 2.7zm177.6-109.8l2.7 6 2.7-6-2.7-6-2.7 6zm-46.6 104.4l6 2.7 6-2.7-6-2.7-6 2.7zm46.6-64.3l2.7 6 2.7-6-2.7-6-2.7 6zM66.4 444.1l-2.7-6-7 6 7 6 2.7-6zm431.2-36.2l-2.7 6 2.7 6 2.7-6-2.7-6zM473.8 495l-6 2.7 6 2.7 6-2.7-6-2.7zm21.1-141.8l2.7 6 2.7-6-2.7-6-2.7 6zM357.4 503.1l6 7 6-7-6-2.7-6 2.7zm-29.4-5.4l6 2.7 6-2.7-6-2.7-6 2.7zm40.1 0l6 2.7 6-2.7-6-2.7-6 2.7zm40.1 0l6 2.7 6-2.7-6-2.7-6 2.7zm-14.6-2.7l-6 2.7 6 2.7 6-2.7-6-2.7zm44 8.1l6 7 6-7-6-2.7-6 2.7zm-3.9-8.1l-6 2.7 6 2.7 6-2.7-6-2.7zm-36.2 8.1l6 7 6-7-6-2.7-6 2.7zm-44-8.1l-6 2.7 6 2.7 6-2.7-6-2.7zM334 71.9l6-2.7-6-2.7-6 2.7 6 2.7zm-4.7-8.1l-6-7-6 7 6 2.7 6-2.7zm-9.9 5.4l-6-2.7-6 2.7 6 2.7 6-2.7zm50-5.4l-6-7-6 7 6 2.7 6-2.7zm-9.9 5.4l-6-2.7-6 2.7 6 2.7 6-2.7zm-80.2 0l-6-2.7-6 2.7 6 2.7 6-2.7zM66.4 404l-2.7-6-7 6 7 6 2.7-6zM289.2 63.8l-6-7-6 7 6 2.7 6-2.7zm4.7 8.1l6-2.7-6-2.7-6 2.7 6 2.7zm120.3 0l6-2.7-6-2.7-6 2.7 6 2.7zm65.6-2.7l-6-2.7-6 2.7 6 2.7 6-2.7zm-25.5 2.7l6-2.7-6-2.7-6 2.7 6 2.7zm35.4-8.1l-6-7-6 7 6 2.7 6-2.7zm-40.1 0l-6-7-6 7 6 2.7 6-2.7zm-75.5 8.1l6-2.7-6-2.7-6 2.7 6 2.7zm25.5-2.7l-6-2.7-6 2.7 6 2.7 6-2.7zm9.9-5.4l-6-7-6 7 6 2.7 6-2.7zm-160.4 0l-6-7-6 7 6 2.7 6-2.7zm190.6 5.4l-6-2.7-6 2.7 6 2.7 6-2.7zm-185.9 2.7l6-2.7-6-2.7-6 2.7 6 2.7zM88.7 63.8l-6-7-6 7 6 2.7 6-2.7zM66.4 203.5l-2.7-6-7 6 7 6 2.7-6zm0-120.2l-2.7-6-7 6 7 6 2.7-6zm0 40l-2.7-6-7 6 7 6 2.7-6zm0 40.1l-2.7-6-7 6 7 6 2.7-6zm0 160.4l-2.7-6-7 6 7 6 2.7-6zm0 40.1l-2.7-6-7 6 7 6 2.7-6zm0-120.3l-2.7-6-7 6 7 6 2.7-6zm0 40.1l-2.7-6-7 6 7 6 2.7-6zM159 69.2l-6-2.7-6 2.7 6 2.7 6-2.7zm14.6 2.7l6-2.7-6-2.7-6 2.7 6 2.7zm25.5-2.7l-6-2.7-6 2.7 6 2.7 6-2.7zm9.9-5.4l-6-7-6 7 6 2.7 6-2.7zm4.7 8.1l6-2.7-6-2.7-6 2.7 6 2.7zm-94.8-2.7l-6-2.7-6 2.7 6 2.7 6-2.7zm-25.5 2.7l6-2.7-6-2.7-6 2.7 6 2.7zm35.4-8.1l-6-7-6 7 6 2.7 6-2.7zm110.4 5.4l-6-2.7-6 2.7 6 2.7 6-2.7zm-70.3-5.4l-6-7-6 7 6 2.7 6-2.7zm-35.4 8.1l6-2.7-6-2.7-6 2.7 6 2.7zm195.8 8.5l-6-2.7-6 2.7 6 2.7 6-2.7zM71.8 333.7l-2.7-6-2.7 6 2.7 6 2.7-6zm0-80.2l-2.7-6-2.7 6 2.7 6 2.7-6zm0 40.1l-2.7-6-2.7 6 2.7 6 2.7-6zm-2.7 65.6l2.7-6-2.7-6-2.7 6 2.7 6zm0-80.2l2.7-6-2.7-6-2.7 6 2.7 6zm2.7 94.8l-2.7-6-2.7 6 2.7 6 2.7-6zm0 40.1l-2.7-6-2.7 6 2.7 6 2.7-6zm-2.7 25.5l2.7-6-2.7-6-2.7 6 2.7 6zm0-40.1l2.7-6-2.7-6-2.7 6 2.7 6zM289.2 80.4l-6-2.7-6 2.7 6 2.7 6-2.7zm-80.2 0l-6-2.7-6 2.7 6 2.7 6-2.7zm40.1 0l-6-2.7-6 2.7 6 2.7 6-2.7zm-80.2 0l-6-2.7-6 2.7 6 2.7 6-2.7zM71.8 454l-2.7-6-2.7 6 2.7 6 2.7-6zm0-240.6l-2.7-6-2.7 6 2.7 6 2.7-6zm-2.7 25.5l2.7-6-2.7-6-2.7 6 2.7 6zm0-40.1l2.7-6-2.7-6-2.7 6 2.7 6zm59.7-118.4l-6-2.7-6 2.7 6 2.7 6-2.7zm-57 92.9l-2.7-6-2.7 6 2.7 6 2.7-6zm-2.7 145.8l2.7-6-2.7-6-2.7 6 2.7 6zm168 167.4l6 2.7 6-2.7-6-2.7-6 2.7zm-40 0l6 2.7 6-2.7-6-2.7-6 2.7zm80.1 0l6 2.7 6-2.7-6-2.7-6 2.7zm-120.2 0l6 2.7 6-2.7-6-2.7-6 2.7zm-40.1 0l6 2.7 6-2.7-6-2.7-6 2.7zM83 123.3l-2.7-6-2.7 6 2.7 6 2.7-6zm234.3 363.2l6 2.7 6-2.7-6-2.7-6 2.7zM83 444.1l-2.7-6-2.7 6 2.7 6 2.7-6zm0-40.1l-2.7-6-2.7 6 2.7 6 2.7-6zm419.2 86.9l8 4.1H506l-4.7-2.4h-.5l-.2-.3-1.6-.8 1.2 2.6-1.4 3 1.4.6-2.1.9-.6 1.4-.4-.9-2.8 1.3-3.1-1.4.9 1.8.4.2v.6l2.3 4.5v4.1l-4-8-6.9-3.5-8.7 4.4V501l6.6-3.3-5.5-2.8 5.5-2.7-7.4-3.7-8.5 4.3 4.2 2.1H466l-2.1-1.1-2.1 1.1h-4.1l4.2-2.1-8.5-4.3-7.4 3.7 5.5 2.7-5.5 2.8 6.6 3.3v2.1l-8.7-4.4-8.7 4.4V501l6.6-3.3-5.5-2.8 5.5-2.7-7.4-3.7-8.5 4.3 4.2 2.1H426l-2.1-1.1-2.1 1.1h-4.1l4.2-2.1-8.5-4.3-7.4 3.7 5.5 2.7-5.5 2.8 6.6 3.3v2.1l-8.7-4.4-8.7 4.4V501l6.6-3.3-5.5-2.8 5.5-2.7-7.4-3.7-8.5 4.3 4.2 2.1H386l-2.1-1.1-2.1 1.1h-4.1l4.2-2.1-8.5-4.3-7.4 3.7 5.5 2.7-5.5 2.8 6.6 3.3v2.1l-8.7-4.4-8.7 4.4V501l6.6-3.3-5.5-2.8 5.5-2.7-7.4-3.7-8.5 4.3 4.2 2.1H346l-2.1-1.1-2.1 1.1h-4.1l4.2-2.1-8.5-4.3-7.4 3.7 5.5 2.7-5.5 2.8 6.6 3.3v2.1l-8.7-4.4-8.7 4.4V501l6.6-3.3-5.5-2.8 5.5-2.7-7.4-3.7-8.5 4.3 4.2 2.1H306l-2.1-1.1-2.1 1.1h-4.1l4.2-2.1-8.5-4.3-7.4 3.7 5.5 2.7-5.5 2.8 6.6 3.3v2.1l-8.7-4.4-8.7 4.4V501l6.6-3.3-5.5-2.8 5.5-2.7-7.4-3.7-8.5 4.3 4.2 2.1H266l-2.1-1.1-2.1 1.1h-4.1l4.2-2.1-8.5-4.3-7.4 3.7 5.5 2.7-5.5 2.8 6.6 3.3v2.1l-8.7-4.4-8.7 4.4V501l6.6-3.3-5.5-2.8 5.5-2.7-7.4-3.7-8.5 4.3 4.2 2.1H226l-2.1-1.1-2.1 1.1h-4.1l4.2-2.1-8.5-4.3-7.4 3.7 5.5 2.7-5.5 2.8 6.6 3.3v2.1l-8.7-4.4-8.7 4.4V501l6.6-3.3-5.5-2.8 5.5-2.7-7.4-3.7-8.5 4.3 4.2 2.1H186l-2.1-1.1-2.1 1.1H177l4.2-2.1-8.5-4.3-7.4 3.7 5.5 2.7-5.5 2.8 6.6 3.3v2.1l-8.7-4.4-8.7 4.4V501l6.6-3.3-5.5-2.8 5.5-2.7-7.4-3.7-8.5 4.3 4.2 2.1h-4.1l-2.1-1.1-2.1 1.1H137l4.2-2.1-8.5-4.3-7.4 3.7 5.5 2.7-5.5 2.8 6.6 3.3v2.1l-8.7-4.4-8.7 4.4V501l6.6-3.3-5.5-2.8 5.5-2.7-7.4-3.7-8.5 4.3 4.2 2.1h-4.1l-2.1-1.1-2.1 1.1H97l4.2-2.1-8.5-4.3-7.4 3.7 5.5 2.7-5.5 2.8 6.6 3.3v2.1l-8.7-4.4-7.2 3.6-4 7.8V506l2.5-4.9v-.1h.1l.8-1.7-2.4 1.1-3.2-1.5-.5 1.1-.8-1.7-1.5-.7 1-.4-1.4-3.2 1.1-2.5-1.7.8-.1.2h-.2l-4.7 2.4h-4.1l7.7-3.9 3.6-7.1-4.4-8.7h2.1l3.3 6.6 2.8-5.5 2.7 5.5 3.7-7.4L74 466l-2.1 4.2V466l1.1-2.1-1.1-2.1v-4.1l2.1 4.2 4.3-8.5-3.7-7.4-2.7 5.5-2.8-5.5-3.3 6.6h-2.1l4.4-8.7-4.4-8.7h2.1l3.3 6.6 2.8-5.5 2.7 5.5 3.7-7.4-4.3-8.5-2.1 4.2V426l1.1-2.1-1.1-2.1v-4.1l2.1 4.2 4.3-8.5-3.7-7.4-2.7 5.5-2.8-5.5-3.3 6.6h-2.1l4.4-8.7-4.4-8.7h2.1l3.3 6.6 2.8-5.5 2.7 5.5 3.7-7.4-4.3-8.5-2.1 4.2V386l1.1-2.1-1.1-2.1v-4.1l2.1 4.2 4.3-8.5-3.7-7.4-2.7 5.5-2.8-5.5-3.3 6.6h-2.1l4.4-8.7-4.4-8.7h2.1l3.3 6.6 2.8-5.5 2.7 5.5 3.7-7.4-4.3-8.5-2.1 4.2V346l1.1-2.1-1.1-2.1v-4.1l2.1 4.2 4.3-8.5-3.7-7.4-2.7 5.5-2.8-5.5-3.3 6.6h-2.1l4.4-8.7-4.4-8.7h2.1l3.3 6.6 2.8-5.5 2.7 5.5 3.7-7.4-4.3-8.5-2.1 4.2V306l1.1-2.1-1.1-2.1v-4.1l2.1 4.2 4.3-8.5-3.7-7.4-2.7 5.5-2.8-5.5-3.3 6.6h-2.1l4.4-8.7-4.4-8.7h2.1l3.3 6.6 2.8-5.5 2.7 5.5 3.7-7.4-4.3-8.5-2.1 4.2V266l1.1-2.1-1.1-2.1v-4.1l2.1 4.2 4.3-8.5-3.7-7.4-2.7 5.5-2.8-5.5-3.3 6.6h-2.1l4.4-8.7-4.4-8.7h2.1l3.3 6.6 2.8-5.5 2.7 5.5 3.7-7.4-4.3-8.5-2.1 4.2V226l1.1-2.1-1.1-2.1v-4.1l2.1 4.2 4.3-8.5-3.7-7.4-2.7 5.5-2.8-5.5-3.3 6.6h-2.1l4.4-8.7-4.4-8.7h2.1l3.3 6.6 2.8-5.5 2.7 5.5 3.7-7.4-4.3-8.5-2.1 4.2V186l1.1-2.1-1.1-2.1V177l2.1 4.2 4.3-8.5-3.7-7.4-2.7 5.5-2.8-5.5-3.3 6.6h-2.1l4.4-8.7-4.4-8.7h2.1l3.3 6.6 2.8-5.5 2.7 5.5 3.7-7.4-4.3-8.5-2.1 4.2v-4.1l1.1-2.1-1.1-2.1V137l2.1 4.2 4.3-8.5-3.7-7.4-2.7 5.5-2.8-5.5-3.3 6.6h-2.1l4.4-8.7-4.4-8.7h2.1l3.3 6.6 2.8-5.5 2.7 5.5 3.7-7.4-4.3-8.5-2.1 4.2v-4.1l1.1-2.1-1.1-2.1V97l2.1 4 4.3-8.5-3.7-7.4-2.7 5.5-2.8-5.5-3.3 6.6h-2.1l4.4-8.7-3.6-7.1-7.8-3.9h4.1l4.7 2.4h.2l.1.2 1.8.9-1.3-2.9 1.3-3-.9-.4 1.3-.6.9-2 .6 1.3 3.1-1.4 2.4 1.1-.8-1.7h-.1v-.1l-2.5-4.9v-4.1l4 7.8 7.2 3.6 8.7-4.4v2.1l-6.6 3.3 5.5 2.8-5.5 2.7 7.4 3.7 8.5-4.3-4-2.1h4.1l2.1 1.1 2.1-1.1h4.1l-4.2 2.1 8.5 4.3 7.4-3.7-5.5-2.7 5.5-2.8-6.6-3.3v-2.1l8.7 4.4 8.7-4.4v2.1l-6.6 3.3 5.5 2.8-5.5 2.7 7.4 3.7 8.5-4.3-4.2-2.1h4.1l2.1 1.1 2.1-1.1h4.1l-4.2 2.1 8.5 4.3 7.4-3.7-5.5-2.7 5.5-2.8-6.6-3.3v-2.1l8.7 4.4 8.7-4.4v2.1l-6.6 3.3 5.5 2.8-5.5 2.7 7.4 3.7 8.5-4.3-4-2.1h4.1l2.1 1.1 2.1-1.1h4.1l-4.2 2.1 8.5 4.3 7.4-3.7-5.5-2.7 5.5-2.8-6.6-3.3v-2.1l8.7 4.4 8.7-4.4v2.1l-6.6 3.3 5.5 2.8-5.5 2.7 7.4 3.7 8.5-4.3L217 72h4.1l2.1 1.1 2.1-1.1h4.1l-4.2 2.1 8.5 4.3 7.4-3.7-5.5-2.7 5.5-2.8-6.6-3.3v-2.1l8.7 4.4 8.7-4.4v2.1l-6.6 3.3 5.5 2.8-5.5 2.7 7.4 3.7 8.5-4.3L257 72h4.1l2.1 1.1 2.1-1.1h4.1l-4.2 2.1 8.5 4.3 7.4-3.7-5.5-2.7 5.5-2.8-6.6-3.3v-2.1l8.7 4.4 8.7-4.4v2.1l-6.6 3.3L291 72l-5.5 2.7 7.4 3.7 8.5-4.3-4.2-2.1h4.1l2.1 1.1 2.1-1.1h4.1l-4.2 2.1 8.5 4.3 7.4-3.7L316 72l5.5-2.8-6.6-3.3v-2.1l8.7 4.4 8.7-4.4v2.1l-6.6 3.3 5.5 2.8-5.5 2.7 7.4 3.7 8.5-4.3-4.2-2.1h4.1l2.1 1.1 2.1-1.1h4.1l-4.2 2.1 8.5 4.3 7.4-3.7L356 72l5.5-2.8-6.6-3.3v-2.1l8.7 4.4 8.7-4.4v2.1l-6.6 3.3 5.5 2.8-5.5 2.7 7.4 3.7 8.5-4.3-4.2-2.1h4.1l2.1 1.1 2.1-1.1h4.1l-4.2 2.1 8.5 4.3 7.4-3.7L396 72l5.5-2.8-6.6-3.3v-2.1l8.7 4.4 8.7-4.4v2.1l-6.6 3.3 5.5 2.8-5.5 2.7 7.4 3.7 8.5-4.3-4.2-2.1h4.1l2.1 1.1 2.1-1.1h4.1l-4.2 2.1 8.5 4.3 7.4-3.7L436 72l5.5-2.8-6.6-3.3v-2.1l8.7 4.4 8.7-4.4v2.1l-6.6 3.3 5.5 2.8-5.5 2.7 7.4 3.7 8.5-4.3-4.2-2.1h4.1l2.1 1.1L466 72h4.1l-4.2 2.1 8.5 4.3 7.4-3.7-5.5-2.7 5.5-2.8-6.6-3.3v-2.1l8.7 4.4 6.9-3.5 4-8v4.1l-2.3 4.5v.6l-.4.2-.9 1.8 3.1-1.4 2.7 1.2.5-1.2.8 1.7 1.9.9-1.3.6 1.3 2.8-1.4 3 1.8-.9.2-.3h.5L506 72h4.1l-8 4.1-3.5 7 4.4 8.7h-2.1l-3.3-6.6-2.8 5.5-2.7-5.5-3.7 7.4 4.3 8.5 2.1-4.2v4.1l-1.1 2.1 1.1 2.1v4.1l-2.1-4.2-4.3 8.5 3.7 7.4 2.7-5.5 2.8 5.5 3.3-6.6h2.1l-4.4 8.7 4.4 8.7h-2.1l-3.3-6.6-2.8 5.5-2.7-5.5-3.7 7.4 4.3 8.5 2.1-4.2v4.1l-1.1 2.1 1.1 2.1v4.1l-2.1-4.2-4.3 8.5 3.7 7.4 2.7-5.5 2.8 5.5 3.3-6.6h2.1l-4.4 8.7 4.4 8.7h-2.1l-3.3-6.6-2.8 5.5-2.7-5.5-3.7 7.4 4.3 8.5 2.1-4.2v4.1l-1.1 2.1 1.1 2.1v4.1l-2.1-4.2-4.3 8.5 3.7 7.4 2.7-5.5 2.8 5.5 3.3-6.6h2.1l-4.4 8.7 4.4 8.7h-2.1l-3.3-6.6-2.8 5.5-2.7-5.5-3.7 7.4 4.3 8.5 2.1-4.2v4.1l-1.1 2.1 1.1 2.1v4.1l-2.1-4.2-4.3 8.5 3.7 7.4 2.7-5.5 2.8 5.5 3.3-6.6h2.1l-4.4 8.7 4.4 8.7h-2.1l-3.3-6.6-2.8 5.5-2.7-5.5-3.7 7.4 4.3 8.5 2.1-4.2v4.1l-1.1 2.1 1.1 2.1v4.1l-2.1-4.2-4.3 8.5 3.7 7.4 2.7-5.5 2.8 5.5 3.3-6.6h2.1l-4.4 8.7 4.4 8.7h-2.1l-3.3-6.6-2.8 5.5-2.7-5.5-3.7 7.4 4.3 8.5 2.1-4.2v4.1l-1.1 2.1 1.1 2.1v4.1l-2.1-4.2-4.3 8.5 3.7 7.4 2.7-5.5 2.8 5.5 3.3-6.6h2.1l-4.4 8.7 4.4 8.7h-2.1l-3.3-6.6-2.8 5.5-2.7-5.5-3.7 7.4 4.3 8.5 2.1-4.2v4.1l-1.1 2.1 1.1 2.1v4.1l-2.1-4.2-4.3 8.5 3.7 7.4 2.7-5.5 2.8 5.5 3.3-6.6h2.1l-4.4 8.7 4.4 8.7h-2.1l-3.3-6.6-2.8 5.5-2.7-5.5-3.7 7.4 4.3 8.5 2.1-4.2v4.1l-1.1 2.1 1.1 2.1v4.1l-2.1-4.2-4.3 8.5 3.7 7.4 2.7-5.5 2.8 5.5 3.3-6.6h2.1l-4.4 8.7 4.4 8.7h-2.1l-3.3-6.6-2.8 5.5-2.7-5.5-3.7 7.4 4.3 8.5 2.1-4.2v4.1l-1.1 2.1 1.1 2.1v4.1l-2.1-4.2-4.3 8.5 3.7 7.4 2.7-5.5 2.8 5.5 3.3-6.6h2.1l-4.4 8.7 4.4 8.7h-2.1l-3.3-6.6-2.8 5.5-2.7-5.5-3.7 7.4 4.3 8.5 2.1-4.2v4.1l-1.1 2.1 1.1 2.1v4.1l-2.1-4.2-4.3 8.5 3.7 7.4 2.7-5.5 2.8 5.5 3.3-6.6h2.1l-4.4 8.7 3.6 7.8zm-9-47.1l1.7 3.4 1.7-3.4-1.7-3.4-1.7 3.4zm0-40.1l1.7 3.4 1.7-3.4-1.7-3.4-1.7 3.4zm0-40.1l1.7 3.4 1.7-3.4-1.7-3.4-1.7 3.4zm0-40l1.7 3.4 1.7-3.4-1.7-3.4-1.7 3.4zm0-40.1l1.7 3.4 1.7-3.4-1.7-3.4-1.7 3.4zm0-40.1l1.7 3.4 1.7-3.4-1.7-3.4-1.7 3.4zm0-40.1l1.7 3.4 1.7-3.4-1.7-3.4-1.7 3.4zm0-40.1l1.7 3.4 1.7-3.4-1.7-3.4-1.7 3.4zm0-40.1l1.7 3.4 1.7-3.4-1.7-3.4-1.7 3.4zm-419.6 0l-1.7-3.4-1.7 3.4 1.7 3.4 1.7-3.4zm0 40.1l-1.7-3.4-1.7 3.4 1.7 3.4 1.7-3.4zm0 40.1l-1.7-3.4-1.7 3.4 1.7 3.4 1.7-3.4zm0 40.1l-1.7-3.4-1.7 3.4 1.7 3.4 1.7-3.4zm0 40.1l-1.7-3.4-1.7 3.4 1.7 3.4 1.7-3.4zm0 40.1l-1.7-3.4-1.7 3.4 1.7 3.4 1.7-3.4zm0 40l-1.7-3.4-1.7 3.4 1.7 3.4 1.7-3.4zm0 40.1l-1.7-3.4-1.7 3.4 1.7 3.4 1.7-3.4zm0 40.1l-1.7-3.4-1.7 3.4 1.7 3.4 1.7-3.4zm419.6 40.1l1.6 3.2.2.1 1.7-3.3-1.7-3.4-1.8 3.4zm-1.8 3.6l1.2-.6-.5-.9-.7 1.5zM492.6 80l-1.2-.6.8 1.5.4-.9zm4 3l-1.7-3.3-.2.1-1.6 3.2 1.7 3.4 1.8-3.4zm0-4.1l1 2.1 1.7-3.5-1.6.8-.1.3-.1-.2-.9.5zm-6.9-7.8l1.8.9-3 1.5 1.6 3.2 3.4 1.7 1.4-2.9.9 1.8 1-.5-1.9-4.1.5-1.1-1.1.5-4.1-1.9-.5.9zm-3.7-1.9l2 1 .5-1-.1-.1.2-.1.8-1.6-3.4 1.8zm-2.1 4.5l3.1-1.5.1-.2-3.2-1.6-3.4 1.7 3.4 1.6zm2.9.6l-.8.4 1.3.7-.5-1.1zm-43-.6l3.4-1.7-3.4-1.7-3.4 1.7 3.4 1.7zm-40.1 0l3.4-1.7-3.4-1.7-3.4 1.7 3.4 1.7zm-40.1 0L367 72l-3.4-1.7-3.4 1.7 3.4 1.7zm-40 0L327 72l-3.4-1.7-3.4 1.7 3.4 1.7zm-40.1 0l3.4-1.7-3.4-1.7-3.4 1.7 3.4 1.7zm-40.1 0l3.4-1.7-3.4-1.7L240 72l3.4 1.7zm-40.1 0l3.4-1.7-3.4-1.7-3.4 1.7 3.4 1.7zm-40.1 0l3.4-1.7-3.4-1.7-3.4 1.7 3.4 1.7zm-40.1 0l3.4-1.7-3.4-1.7-3.4 1.7 3.4 1.7zm-40.1 2l-5 2.5-1.1 2.2 2.5-1.1.9-2 .6 1.3 1.8-.8 6 2.7-2.3 1.1c1.9.3 3.4 2 3.4 4 0 .5-.1 1-.3 1.4 6.5 6.5 15.3 10.2 24.6 10.4 7.1-8.5 17.5-13.3 28.5-13.3 10.9 0 21 4.7 28.1 12.8C178 88.7 188.2 84 199 84c10.9 0 21 4.7 28.1 12.8 7.1-8.2 17.3-12.8 28.1-12.8 10.9 0 21 4.7 28.1 12.8 7.1-8.2 17.3-12.8 28.1-12.8 10.9 0 21 4.7 28.1 12.8C346.8 88.7 357 84 367.9 84c10.9 0 21 4.7 28.1 12.8 7.1-8.2 17.3-12.8 28.1-12.8 11.1 0 21.4 4.8 28.5 13.3 9.3-.1 18.1-3.8 24.6-10.4-.2-.5-.3-.9-.3-1.4 0-1.9 1.3-3.5 3.1-4l-2.5-1.1 6-2.7 2.1.9.6-1.4 1 2.1 2.3 1-1.5.7 1 2.1-2.7 6-1.2-2.7c-.4 1.8-2 3.1-4 3.1-.4 0-.8-.1-1.2-.2-6.6 6.5-10.4 15.4-10.5 24.8 8.5 7.1 13.3 17.5 13.3 28.5 0 10.9-4.7 21-12.8 28.1 8.2 7.1 12.8 17.3 12.8 28.1s-4.7 21-12.8 28.1c8.2 7.1 12.8 17.3 12.8 28.1 0 10.9-4.7 21-12.8 28.1 8.2 7.1 12.8 17.3 12.8 28.1 0 10.9-4.7 21-12.8 28.1 8.2 7.1 12.8 17.3 12.8 28.1 0 10.9-4.7 21-12.8 28.1 8.2 7.1 12.8 17.3 12.8 28.1 0 11.1-4.9 21.4-13.3 28.5.1 9.4 3.9 18.2 10.5 24.8.4-.1.8-.2 1.2-.2 2.1 0 3.7 1.5 4 3.5l1.2-2.6 2.7 6-.8 1.7 1.3.6-2 .9-1.1 2.5 2.2-1.1 2.4-4.9-4.7-9.6 5.3-10.5-5.3-10.5 4.7-9.6-4.7-9.6 5.3-10.5-5.3-10.5 4.7-9.6-4.7-9.6 5.3-10.5-5.3-10.5 4.7-9.6-4.7-9.6 5.3-10.5-5.3-10.5 4.7-9.6-4.7-9.6 5.3-10.5-5.3-10.5 4.7-9.6-4.7-9.6 5.3-10.5-5.3-10.5 4.7-9.6-4.7-9.6 5.3-10.5-5.3-10.5 4.7-9.6-4.7-9.6 5.3-10.5-5.3-10.5 4.7-9.6-4.7-9.6 5.3-10.5-5.3-10.5 4.7-9.6-4.7-9.6 5.3-10.5-5.3-10.5 4.7-9.6-2.4-4.9-4.7-2.3-9.6 4.7-10.5-5.3-10.5 5.3-9.6-4.7-9.6 4.7-10.5-5.3-10.5 5.3-9.6-4.7-9.6 4.7-10.5-5.3-10.5 5.3-9.6-4.7-9.6 4.7-10.5-5.3-10.5 5.3-9.6-4.7-9.6 4.7-10.5-5.3-10 6.9-9.6-4.7-9.6 4.7-10.5-5.3-10.5 5.3-9.6-4.7-9.6 4.7-10.5-5.3-10.5 5.3-9.6-4.7-9.6 4.7-10.5-5.3-10.5 5.3-9.6-4.7-9.6 4.7-10.5-5.3-10.5 5.3-9.6-4.7-9.6 4.7-10.5-5.3L92 80.4l-9-4.7zm403 416.5l.8.4.5-1.1-1.3.7zm-33.7-24.4c9.6 0 18.6 3.6 25.5 10.1-6.5-6.9-10.2-16-10.2-25.6 0-10.9 4.7-21 12.8-28.1-8.2-7.1-12.8-17.3-12.8-28.1 0-10.9 4.7-21 12.8-28.1-8.2-7.1-12.8-17.3-12.8-28.1s4.7-21 12.8-28.1c-8.2-7.1-12.8-17.3-12.8-28.1 0-10.9 4.7-21 12.8-28.1-8.2-7.1-12.8-17.3-12.8-28.1 0-10.9 4.7-21 12.8-28.1-8.2-7.1-12.8-17.3-12.8-28.1s4.7-21 12.8-28.1c-8.2-7.1-12.8-17.3-12.8-28.1 0-9.6 3.7-18.7 10.2-25.6-6.9 6.5-16 10.1-25.5 10.1-10.9 0-21-4.7-28.1-12.8-7.1 8.2-17.3 12.8-28.1 12.8-10.9 0-21-4.7-28.1-12.8-7.1 8.2-17.3 12.8-28.1 12.8-10.9 0-21-4.7-28.1-12.8-7.1 8.2-17.3 12.8-28.1 12.8-10.9 0-21-4.7-28.1-12.8-7.1 8.2-17.3 12.8-28.1 12.8-10.9 0-21-4.7-28.1-12.8-7.1 8.2-17.3 12.8-28.1 12.8s-21-4.7-28.1-12.8c-7.1 8.2-17.3 12.8-28.1 12.8-9.8 0-19.1-3.8-26.1-10.6h-.1c6.8 6.9 10.6 16.2 10.6 26 0 10.9-4.7 21-12.8 28.1 8.2 7.1 12.8 17.3 12.8 28.1s-4.7 21-12.8 28.1c8.2 7.1 12.8 17.3 12.8 28.1 0 10.9-4.7 21-12.8 28.1 8.2 7.1 12.8 17.3 12.8 28.1 0 10.9-4.7 21-12.8 28.1 8.2 7.1 12.8 17.3 12.8 28.1 0 10.9-4.7 21-12.8 28.1 8.2 7.1 12.8 17.3 12.8 28.1 0 10.9-4.7 21-12.8 28.1 8.2 7.1 12.8 17.3 12.8 28.1 0 9.8-3.8 19.1-10.6 26h.1c6.9-6.8 16.2-10.6 26.1-10.6 10.9 0 21 4.7 28.1 12.8 7.1-8.2 17.3-12.8 28.1-12.8 10.9 0 21 4.7 28.1 12.8 7.1-8.2 17.3-12.8 28.1-12.8s21 4.7 28.1 12.8c7.1-8.2 17.3-12.8 28.1-12.8s21 4.7 28.1 12.8c7.1-8.2 17.3-12.8 28.1-12.8 10.9 0 21 4.7 28.1 12.8 7.1-8.2 17.3-12.8 28.1-12.8s21 4.7 28.1 12.8c7.1-8 17.3-12.6 28.1-12.6zM426.2 481c9.2-.5 17.7-4.6 24-11.4-9.2.6-17.7 4.6-24 11.4zm-28.1-11.3c6.2 6.8 14.8 10.8 24 11.4-6.3-6.9-14.8-10.9-24-11.4zM370 481c9.2-.5 17.7-4.6 24-11.4-9.2.6-17.8 4.6-24 11.4zm-28.2-11.3c6.2 6.8 14.8 10.8 24 11.4-6.2-6.9-14.8-10.9-24-11.4zM313.7 481c9.2-.5 17.7-4.6 24-11.4-9.2.6-17.8 4.6-24 11.4zm-28.2-11.3c6.2 6.8 14.8 10.8 24 11.4-6.2-6.9-14.8-10.9-24-11.4zM257.4 481c9.2-.5 17.7-4.6 24-11.4-9.2.6-17.8 4.6-24 11.4zm-28.1-11.3c6.2 6.8 14.8 10.8 24 11.4-6.3-6.9-14.9-10.9-24-11.4zM201.1 481c9.2-.5 17.7-4.6 24-11.4-9.2.6-17.7 4.6-24 11.4zM173 469.7c6.2 6.8 14.8 10.8 24 11.4-6.3-6.9-14.8-10.9-24-11.4zM144.8 481c9.2-.5 17.7-4.6 24-11.4-9.2.6-17.7 4.6-24 11.4zm-28.1-11.3c6.2 6.8 14.8 10.8 24 11.4-6.3-6.9-14.8-10.9-24-11.4zm-30.9-43.5c.5 9.2 4.6 17.7 11.4 24-.5-9.2-4.6-17.7-11.4-24zm11.4-28.1c-6.8 6.2-10.8 14.8-11.4 24 6.8-6.3 10.9-14.8 11.4-24zm0-4.2c-.5-9.2-4.6-17.7-11.4-24 .6 9.2 4.6 17.8 11.4 24zm0-52.1c-6.8 6.2-10.8 14.8-11.4 24 6.8-6.2 10.9-14.8 11.4-24zm0-4.1c-.5-9.2-4.6-17.7-11.4-24 .6 9.2 4.6 17.7 11.4 24zm0-52.2c-6.8 6.2-10.8 14.8-11.4 24 6.8-6.2 10.9-14.8 11.4-24zm0-4.1c-.5-9.2-4.6-17.7-11.4-24 .6 9.2 4.6 17.7 11.4 24zm0-52.1c-6.8 6.2-10.8 14.8-11.4 24 6.8-6.3 10.9-14.9 11.4-24zm0-4.2c-.5-9.2-4.6-17.7-11.4-24 .6 9.2 4.6 17.8 11.4 24zm0-52.1c-6.8 6.2-10.8 14.8-11.4 24 6.8-6.3 10.9-14.8 11.4-24zm0-4.2c-.5-9.2-4.6-17.7-11.4-24 .6 9.2 4.6 17.8 11.4 24zm0-52.1c-6.8 6.2-10.8 14.8-11.4 24 6.8-6.3 10.9-14.8 11.4-24zm43.5-30.8c-9.2.5-17.7 4.6-24 11.4 9.2-.6 17.7-4.6 24-11.4zm28.1 11.4c-6.2-6.8-14.8-10.8-24-11.4 6.3 6.8 14.8 10.8 24 11.4zM197 85.9c-9.2.5-17.7 4.6-24 11.4 9.2-.6 17.7-4.6 24-11.4zm28.1 11.4c-6.2-6.8-14.8-10.8-24-11.4 6.3 6.8 14.8 10.8 24 11.4zm28.2-11.4c-9.2.5-17.7 4.6-24 11.4 9.1-.6 17.7-4.6 24-11.4zm28.1 11.4c-6.2-6.8-14.8-10.8-24-11.4 6.2 6.8 14.8 10.8 24 11.4zm28.1-11.4c-9.2.5-17.7 4.6-24 11.4 9.2-.6 17.8-4.6 24-11.4zm28.2 11.4c-6.2-6.8-14.8-10.8-24-11.4 6.2 6.8 14.8 10.8 24 11.4zm28.1-11.4c-9.2.5-17.7 4.6-24 11.4 9.2-.6 17.8-4.6 24-11.4zm28.1 11.4c-6.2-6.8-14.8-10.8-24-11.4 6.3 6.8 14.9 10.8 24 11.4zm28.2-11.4c-9.2.5-17.7 4.6-24 11.4 9.2-.6 17.7-4.6 24-11.4zm28.1 11.4c-6.2-6.8-14.8-10.8-24-11.4 6.3 6.8 14.8 10.8 24 11.4zm30.7 43.4c-.5-9.2-4.6-17.7-11.4-24 .6 9.2 4.7 17.7 11.4 24zm-11.3 28.1c6.8-6.2 10.8-14.8 11.4-24-6.8 6.3-10.9 14.8-11.4 24zm0 4.2c.5 9.2 4.6 17.7 11.4 24-.6-9.2-4.7-17.8-11.4-24zm0 52.1c6.8-6.2 10.8-14.8 11.4-24-6.8 6.3-10.9 14.8-11.4 24zm0 4.2c.5 9.2 4.6 17.7 11.4 24-.6-9.2-4.7-17.8-11.4-24zm0 52.1c6.8-6.2 10.8-14.8 11.4-24-6.8 6.2-10.9 14.8-11.4 24zm0 4.1c.5 9.2 4.6 17.7 11.4 24-.6-9.2-4.7-17.7-11.4-24zm0 52.2c6.8-6.2 10.8-14.8 11.4-24-6.8 6.2-10.9 14.8-11.4 24zm11.3 28.1c-.5-9.2-4.6-17.7-11.4-24 .6 9.2 4.7 17.8 11.4 24zm-11.3 28.1c6.8-6.2 10.8-14.8 11.4-24-6.8 6.3-10.9 14.9-11.4 24zm0 4.2c.5 9.2 4.6 17.7 11.4 24-.6-9.2-4.7-17.8-11.4-24zm0 52.1c6.8-6.2 10.8-14.8 11.4-24-6.8 6.3-10.9 14.8-11.4 24zM80.9 74.7l-1-.5-.6 1.3 1.6-.8zm2.1-4.4L79.6 72l3.4 1.7 3.4-1.7-3.4-1.7zm-5.7-2.9l.7 1.5.8.4-.5.2.4.9 2.2-1.1-3.6-1.9zm-5.5 5.2l-1.8 4 1 .5.8-1.7 1.4 2.8.2.1 3.1-1.5 1.6-3.3-.1-.2-2.5-1.3 1.6-.8-.5-.9-3.7 1.7-1.7-.8.6 1.4zm-2.7 8.3l1.1-2.1-1-.5-.1.3-.2-.4-1.6-.8 1.8 3.5zm4.5 2.1l-1.7-3.3-1.7 3.3 1.7 3.4 1.7-3.4zm1.7-3.5l-1.1.5.4.8.7-1.3zm.3 404.4l1.2 2.5 1.5-.7-.7-1.6 2.7-6 1.3 3c.1-2.1 1.9-3.9 4.1-3.9.4 0 .7.1 1 .1 6.6-6.5 10.3-15.4 10.5-24.7-8.5-7.1-13.3-17.5-13.3-28.5 0-10.9 4.7-21 12.8-28.1-8.2-7.1-12.8-17.3-12.8-28.1 0-10.9 4.7-21 12.8-28.1-8.2-7.1-12.8-17.3-12.8-28.1 0-10.9 4.7-21 12.8-28.1-8.2-7.1-12.8-17.3-12.8-28.1 0-10.9 4.7-21 12.8-28.1-8.2-7.1-12.8-17.3-12.8-28.1s4.7-21 12.8-28.1c-8.2-7.1-12.8-17.3-12.8-28.1 0-11.1 4.8-21.4 13.3-28.5-.1-9.4-3.9-18.2-10.5-24.7-.3.1-.7.1-1 .1-2 0-3.7-1.5-4-3.5l-1.4 3.1-2.7-6 .9-2-1.7-.8-1.2 2.2 4.7 9.6-5.3 10.5 5.3 10.5-4.7 9.6 4.7 9.6-5.3 10.3 5.3 10.5-4.7 9.6 4.7 9.6-5.3 10.4 5.3 10.5-4.7 9.6 4.7 9.6-5.3 10.4 5.3 10.5-4.7 9.6 4.7 9.6-5.3 10.4 5.3 10.5-4.7 9.6 4.7 9.6-5.3 10.4 5.3 10.5-4.7 9.6 4.7 9.6-5.3 10.4 5.3 10.5-4.7 9.6 4.7 9.6-5.3 10.4 5.3 10.5-4.7 9.6 4.7 9.6-5.3 10.4 5.3 10.5-4.7 9.6 4.7 9.6-5.3 10.4 5.3 10.5-4.7 9.5zm3.7 7.5l.6 1.3 1-.5-1.6-.8zm.9-1.6l-1-2.2-2.3-1 1.1 2.2 2.2 1zm-6-3l1.1.5-.7-1.4-.4.9zm-4-2.9l1.7 3.4 1.7-3.3-1.7-3.4-1.7 3.3zm0 4.2l-1.1-2.1-1.8 3.6 1.5-.7.4-.8.2.5.8-.5zm6.9 7.7l-1.6-.8 2.7-1.3.1-.2-1.6-3.3-3.1-1.5-.2.1-1.4 2.8-.8-1.7-.9.5 1.7 3.8-.8 1.8 1.8-.8 3.7 1.7.4-1.1zm3.8 1.9l-2.2-1.1-.4.9.5.2-.8.4-.7 1.5 3.6-1.9zm2.1-4.4l-3.4 1.7 3.4 1.7 3.4-1.7-3.4-1.7zm40.1 0l-3.4 1.7 3.4 1.7 3.4-1.7-3.4-1.7zm40.1 0l-3.4 1.7 3.4 1.7 3.4-1.7-3.4-1.7zm40.1 0l-3.4 1.7 3.4 1.7 3.4-1.7-3.4-1.7zm40.1 0L240 495l3.4 1.7 3.4-1.7-3.4-1.7zm40.1 0l-3.4 1.7 3.4 1.7 3.4-1.7-3.4-1.7zm40.1 0l-3.4 1.7 3.4 1.7 3.4-1.7-3.4-1.7zm40 0l-3.4 1.7 3.4 1.7 3.4-1.7-3.4-1.7zm40.1 0l-3.4 1.7 3.4 1.7 3.4-1.7-3.4-1.7zm40.1 0l-3.4 1.7 3.4 1.7 3.4-1.7-3.4-1.7zm40.1-2.1l2.4-1.2-.8-1.7-1.9.9-6-2.7 2.5-1.1c-1.8-.4-3.1-2-3.1-4 0-.5.1-1 .3-1.4-6.5-6.5-15.3-10.2-24.6-10.4-7.1 8.5-17.5 13.3-28.5 13.3-10.9 0-21-4.7-28.1-12.8-7.1 8.2-17.3 12.8-28.1 12.8-10.9 0-21-4.7-28.1-12.8-7.1 8.2-17.3 12.8-28.1 12.8-10.9 0-21-4.7-28.1-12.8-7.1 8.2-17.3 12.8-28.1 12.8-10.9 0-21-4.7-28.1-12.8-7.1 8.2-17.3 12.8-28.1 12.8-10.9 0-21-4.7-28.1-12.8-7.1 8.2-17.3 12.8-28.1 12.8-11.1 0-21.4-4.9-28.5-13.3-9.3.1-18.1 3.8-24.6 10.4.2.4.3.9.3 1.4 0 2-1.5 3.7-3.4 4l2.3 1.1-6 2.7-1.7-.7-.7 1.5 2.6 1.3 9.6-4.7 10.5 5.3 10.5-5.3 9.6 4.7 9.6-4.7 10.5 5.3 10.5-5.3 9.6 4.7 9.6-4.7 10.5 5.3 10.5-5.3 9.6 4.7 9.6-4.7 10.5 5.3 10.5-5.3 9.6 4.7 9.6-4.7 10.5 5.3 10.5-5.3 9.6 4.7 9.6-4.7 10.5 5.3 10.5-5.3 9.6 4.7 9.6-4.7 10.5 5.3 10.5-5.3 9.6 4.7 9.6-4.7 10.5 5.3 10.5-5.3 9.6 4.7 9.6-4.7 10.5 5.3 10.5-5.3 9.6 4.7 9.6-4.7 10.5 5.3 10.5-5.3 8 4.6zm0 5.5l3.2-1.6-.1-.2-3.1-1.5-3.4 1.7 3.4 1.6zm5.5 2.7l-.8-1.6-.2-.1.1-.1-.5-1-2 1 3.4 1.8zm5.5-5.3l1.8-3.9-.9-.5-.9 1.7-1.4-2.9-3.4 1.7-1.6 3.2 3 1.5-1.8.9.5 1 4.1-1.9 1.2.6-.6-1.4zm4.5-4.6l-1.7-3.5-1 2.1.9.4.2-.4.3.6 1.3.8zM83 203.5l-2.7-6-2.7 6 2.7 6 2.7-6zm0 40.1l-2.7-6-2.7 6 2.7 6 2.7-6zm0 40.1l-2.7-6-2.7 6 2.7 6 2.7-6zM69.1 479.5l2.7-6-2.7-6-2.7 6 2.7 6zm328.4 7l6 2.7 6-2.7-6-2.7-6 2.7zM83 323.8l-2.7-6-2.7 6 2.7 6 2.7-6zm274.4 162.7l6 2.7 6-2.7-6-2.7-6 2.7zm140.2-158.8l-2.7 6 2.7 6 2.7-6-2.7-6zM83 363.9l-2.7-6-2.7 6 2.7 6 2.7-6zm354.6 122.6l6 2.7 6-2.7-6-2.7-6 2.7zM503 77.3l-2.7 6 2.7 6 7-6-7-6zm0 240.5l-2.7 6 2.7 6 7-6-7-6zm-8.1-205.1l2.7 6 2.7-6-2.7-6-2.7 6zm2.7 14.6l-2.7 6 2.7 6 2.7-6-2.7-6zm5.4-9.9l-2.7 6 2.7 6 7-6-7-6zm0 40l-2.7 6 2.7 6 7-6-7-6zm0 120.3l-2.7 6 2.7 6 7-6-7-6zm0-40.1l-2.7 6 2.7 6 7-6-7-6zm0-40.1l-2.7 6 2.7 6 7-6-7-6zm-5.4-110.3l-2.7 6 2.7 6 2.7-6-2.7-6zM494.9 273l2.7 6 2.7-6-2.7-6-2.7 6zm2.7 14.6l-2.7 6 2.7 6 2.7-6-2.7-6zm-2.7 25.5l2.7 6 2.7-6-2.7-6-2.7 6zm0-160.3l2.7 6 2.7-6-2.7-6-2.7 6zm2.7 94.7l-2.7 6 2.7 6 2.7-6-2.7-6zm-2.7-54.6l2.7 6 2.7-6-2.7-6-2.7 6zm2.7-25.6l-2.7 6 2.7 6 2.7-6-2.7-6zm-2.7 65.6l2.7 6 2.7-6-2.7-6-2.7 6zm2.7-25.5l-2.7 6 2.7 6 2.7-6-2.7-6zm-128.2-127l-6-2.7-6 2.7 6 2.7 6-2.7zm114.3 123.1l2.7 6 2.7-6-2.7-6-2.7 6zm0 80.2l2.7 6 2.7-6-2.7-6-2.7 6zm0-40.1l2.7 6 2.7-6-2.7-6-2.7 6zm0 120.3l2.7 6 2.7-6-2.7-6-2.7 6zm0-40.1l2.7 6 2.7-6-2.7-6-2.7 6zm0-160.4l2.7 6 2.7-6-2.7-6-2.7 6zm-34.1-83l-6-2.7-6 2.7 6 2.7 6-2.7zm-40.1 0l-6-2.7-6 2.7 6 2.7 6-2.7zm74.2 42.9l2.7 6 2.7-6-2.7-6-2.7 6zm0 280.7l2.7 6 2.7-6-2.7-6-2.7 6zm19.3 34.1l-2.7 6 2.7 6 7-6-7-6zM71.8 93.1l-2.7-6-2.7 6 2.7 6 2.7-6zm428.5 391.1l2.7 6 7-6-7-6-2.7 6zM503 398l-2.7 6 2.7 6 7-6-7-6zm-19.3 46.1l2.7 6 2.7-6-2.7-6-2.7 6zm19.3-86.2l-2.7 6 2.7 6 7-6-7-6zM69.1 118.7l2.7-6-2.7-6-2.7 6 2.7 6zm0 40l2.7-6-2.7-6-2.7 6 2.7 6zm2.7-25.5l-2.7-6-2.7 6 2.7 6 2.7-6z"/></svg>