<svg id="Layer_1" xmlns="http://www.w3.org/2000/svg" viewBox="0 0 566.9 566.9"><style>.st0{fill:#fff}</style><path d="M66.4 216.7v38.8c-3.9-4.8-7.1-10.2-7.1-19.4-.1-9.2 3.1-14.5 7.1-19.4zm286.4 282.1h42.4c-5.4-4.6-10.8-8.6-21.2-8.6-10.4 0-15.8 4-21.2 8.6zM59.2 328.2c0 9.2 3.2 14.5 7.1 19.4v-38.8c-3.9 4.8-7.1 10.1-7.1 19.4zm0 92c0 9.2 3.2 14.5 7.1 19.4v-38.8c-3.9 4.9-7.1 10.2-7.1 19.4zM211 68.6h-42.3c5.4 4.4 10.8 8.3 21.2 8.3 10.3 0 15.8-3.9 21.1-8.3zm92.1 0h-42.3c5.4 4.4 10.8 8.3 21.2 8.3 10.3 0 15.7-3.9 21.1-8.3zM59.2 144.1c0 9.2 3.2 14.5 7.1 19.4v-38.8c-3.9 4.8-7.1 10.1-7.1 19.4zm176.7-84.3c-9.2 0-14.5 3.1-19.3 6.8h38.6c-4.8-3.8-10.1-6.8-19.3-6.8zm159.3 8.8h-42.3c5.4 4.4 10.8 8.3 21.2 8.3 10.3 0 15.7-3.9 21.1-8.3zm-251.4-8.8c-9.2 0-14.5 3.1-19.3 6.8h38.6c-4.8-3.8-10.1-6.8-19.3-6.8zm354.3 338.1c.2.2.4.4.5.6V442c-.2.2-.4.4-.5.6-4.5 5.5-9.2 11.1-9.7 21.7-2.4.4-4.2 2.5-4.2 5 0 2.8 2.3 5.1 5.1 5.1s5.1-2.3 5.1-5.1c0-2.4-1.7-4.5-4-5 .5-9.1 4.2-14.2 8.3-19.3v23.5c0 16.6-13.5 30.1-30.1 30.1H445c5-4.3 10.1-8.1 19.2-8.6.4 2.4 2.5 4.3 5 4.3 2.8 0 5.1-2.3 5.1-5.1s-2.3-5.1-5.1-5.1c-2.4 0-4.4 1.7-4.9 3.9-10.6.5-16.3 5.4-21.8 10.1-.2.2-.4.3-.6.5h-43.5c-.2-.2-.4-.3-.6-.5-5.8-5-11.8-10.1-23.7-10.1-11.9 0-17.9 5.1-23.7 10.1-.2.2-.4.3-.6.5h-43.5c-.2-.2-.4-.3-.6-.5-5.8-5-11.8-10.1-23.7-10.1-11.9 0-17.9 5.1-23.7 10.1-.2.2-.4.3-.6.5h-43.5c-.2-.2-.4-.3-.6-.5-5.8-5-11.8-10.1-23.7-10.1-11.9 0-17.9 5.1-23.7 10.1-.2.2-.4.3-.6.5h-43.5c-.2-.2-.4-.3-.6-.5-4.9-4.2-10-8.5-18.7-9.8-.4-2.4-2.5-4.2-5-4.2-2.8 0-5.1 2.3-5.1 5.1s2.3 5.1 5.1 5.1c2.4 0 4.5-1.7 5-4 7.3 1.1 11.8 4.5 16.2 8.3H98.5c-16.6 0-30.1-13.5-30.1-30.1v-23.6c4.3 5 8.1 10.1 8.6 19.3-2.4.4-4.3 2.5-4.3 5 0 2.8 2.3 5.1 5.1 5.1s5.1-2.3 5.1-5.1c0-2.4-1.7-4.4-3.9-4.9-.5-10.6-5.4-16.3-10.1-21.8-.2-.2-.3-.4-.5-.6v-43.5c.2-.2.3-.4.5-.6C73.9 392 79 386 79 374.1c0-11.9-5.1-17.9-10.1-23.7-.2-.2-.3-.4-.5-.6v-43.5c.2-.2.3-.4.5-.6C73.8 300 79 294 79 282.1c0-11.9-5.1-17.9-10.1-23.7-.2-.2-.3-.4-.5-.6v-43.5c.2-.2.3-.4.5-.6C73.8 208 79 202 79 190.1s-5.1-17.9-10.1-23.7c-.2-.2-.3-.4-.5-.6v-43.5c.2-.2.3-.4.5-.6 4.2-4.9 8.5-10 9.8-18.7 2.4-.4 4.2-2.5 4.2-5 0-2.8-2.3-5.1-5.1-5.1s-5.1 2.3-5.1 5.1c0 2.4 1.7 4.5 4 5-1.1 7.3-4.5 11.8-8.3 16.2V98.7c0-16.6 13.5-30.1 30.1-30.1H119c-4.4 3.7-9 7-16.3 8-.6-2.2-2.6-3.7-4.9-3.7-2.8 0-5.1 2.3-5.1 5.1s2.3 5.1 5.1 5.1c2.6 0 4.7-2 5-4.5 8.6-1.2 13.7-5.4 18.6-9.5.2-.2.4-.4.6-.5h43.5c.2.2.4.4.6.5 5.8 4.8 11.8 9.8 23.7 9.8 11.9 0 17.9-5 23.6-9.8.2-.2.4-.4.6-.5h43.5c.2.2.4.4.6.5 5.8 4.8 11.8 9.8 23.6 9.8s17.9-5 23.7-9.8c.2-.2.4-.4.6-.5h43.5c.2.2.4.4.6.5 5.8 4.8 11.8 9.8 23.7 9.8 11.9 0 17.9-5 23.7-9.8.2-.2.4-.4.6-.5h43.5c.2.2.4.4.6.5 5.5 4.5 11.1 9.2 21.7 9.7.4 2.4 2.5 4.2 5 4.2 2.8 0 5.1-2.3 5.1-5.1s-2.3-5.1-5.1-5.1c-2.4 0-4.5 1.7-5 4-9.1-.5-14.2-4.2-19.3-8.3h23.5c16.6 0 30.1 13.5 30.1 30.1v20.5c-3.7-4.4-7-9-8-16.3 2.2-.6 3.7-2.6 3.7-4.9 0-2.8-2.3-5.1-5.1-5.1s-5.1 2.3-5.1 5.1c0 2.6 2 4.7 4.5 5 1.2 8.6 5.4 13.7 9.5 18.6.2.2.4.4.5.6v43.5c-.2.2-.4.4-.5.6-4.8 5.8-9.8 11.8-9.8 23.7 0 11.9 5 17.9 9.8 23.7.2.2.4.4.5.6v43.5c-.2.2-.4.4-.5.6-4.8 5.8-9.8 11.8-9.8 23.6 0 11.9 5 17.9 9.8 23.7.2.2.4.4.5.6v43.5c-.2.2-.4.4-.5.6-4.8 5.8-9.8 11.8-9.8 23.7.4 12.1 5.3 18.1 10.2 23.9zm-407.7-77c0-2.8-2.3-5.1-5.1-5.1s-5.1 2.3-5.1 5.1h.1v.7c0 .4.2 1.1.5 1.7.2.3.4.7.8 1l.3.3.2.2c.2.1.4.3.7.4.9.4 2.1.6 3.2.2.6-.2 1.1-.6 1.5-1.1.1-.1.2-.3.3-.4.1-.1.2-.3.2-.4.1-.1.1-.3.2-.4v-.5c.1-.6 0-1.3-.3-1.9-.3-.6-1-1.1-1.5-1.3-.2 0-.2-.1-.4-.1 0 0-.3-.1-.5-.1-.3 0-.6 0-.9.1-.5.2-1 .5-1.3.9-.3.4-.4.8-.5 1v.4c0 .8.7 1.5 1.5 1.5.7 0 1.3-.5 1.5-1.2.1 0 .2.2.2.4v.4c0 .1 0 .1-.1.2 0 .1 0 .1-.1.2-.1.2-.3.4-.6.6-.5.3-1.3.4-2 .2-.2 0-.3-.1-.5-.2l-.3-.2s-.1-.1-.2-.1c-.3-.2-.5-.4-.7-.7-.4-.5-.6-1-.7-1.3 0-.2-.1-.3-.1-.4v-.2h.3c0-2.4 1.9-4.3 4.3-4.3s4.3 1.9 4.3 4.3v131c0 2.4-1.9 4.3-4.3 4.3s-4.3-1.9-4.3-4.3h-.1v-.1c0-.1 0-.2.1-.4.1-.3.3-.8.7-1.3.2-.2.4-.5.7-.7.1 0 .2-.1.2-.1l.3-.2c.2-.1.3-.1.5-.2.7-.2 1.5-.2 2 .2.3.2.4.4.6.6 0 .1.1.1.1.2s0 .1.1.2v.4c0 .2-.1.4-.2.4-.1-.7-.7-1.2-1.5-1.2s-1.5.7-1.5 1.5v.4c0 .3.2.6.5 1s.7.7 1.3.9c.3.1.6.1.9.1.1 0 .5 0 .5-.1.2 0 .3-.1.4-.1.5-.2 1.2-.6 1.5-1.3.4-.6.4-1.3.3-1.9v-.5c0-.2-.1-.3-.2-.4-.1-.1-.1-.3-.2-.4-.1-.1-.2-.3-.3-.4-.4-.5-.9-.9-1.5-1.1-1.2-.4-2.3-.2-3.2.2-.2.1-.5.3-.7.4l-.2.2-.3.3c-.3.3-.6.7-.8 1-.4.7-.5 1.3-.5 1.7v.7h-.1c0 2.8 2.3 5.1 5.1 5.1s5.1-2.3 5.1-5.1V320.9zm0-205.9c0-2.8-2.3-5.1-5.1-5.1s-5.1 2.3-5.1 5.1h.1v.7c0 .4.2 1.1.5 1.7.2.3.4.7.8 1l.3.3.2.2c.2.1.4.3.7.4.9.4 2.1.6 3.2.2.6-.2 1.1-.6 1.5-1.1.1-.1.2-.3.3-.4.1-.1.2-.3.2-.4.1-.1.1-.3.2-.4v-.5c.1-.6 0-1.3-.3-1.9-.3-.6-1-1.1-1.5-1.3-.2 0-.2-.1-.4-.1 0 0-.3-.1-.5-.1-.3 0-.6 0-.9.1-.5.2-1 .5-1.3.9-.3.4-.4.8-.5 1v.4c0 .8.7 1.5 1.5 1.5.7 0 1.3-.5 1.5-1.2.1 0 .2.2.2.4v.4c0 .1 0 .1-.1.2 0 .1 0 .1-.1.2-.1.2-.3.4-.6.6-.5.3-1.3.4-2 .2-.2 0-.3-.1-.5-.2l-.3-.2s-.1-.1-.2-.1c-.3-.2-.5-.4-.7-.7-.4-.5-.6-1-.7-1.3 0-.2-.1-.3-.1-.4v-.2h.3c0-2.4 1.9-4.3 4.3-4.3s4.3 1.9 4.3 4.3v131c0 2.4-1.9 4.3-4.3 4.3s-4.3-1.9-4.3-4.3h-.1v-.1c0-.1 0-.2.1-.4.1-.3.3-.8.7-1.3.2-.2.4-.5.7-.7.1 0 .2-.1.2-.1l.3-.2c.2-.1.3-.1.5-.2.7-.2 1.5-.2 2 .2.3.2.4.4.6.6 0 .1.1.1.1.2s0 .1.1.2v.4c0 .2-.1.4-.2.4-.1-.7-.7-1.2-1.5-1.2s-1.5.7-1.5 1.5v.4c0 .3.2.6.5 1s.7.7 1.3.9c.3.1.6.1.9.1.1 0 .5 0 .5-.1.2 0 .3-.1.4-.1.5-.2 1.2-.6 1.5-1.3.4-.6.4-1.3.3-1.9v-.5c0-.2-.1-.3-.2-.4-.1-.1-.1-.3-.2-.4-.1-.1-.2-.3-.3-.4-.4-.5-.9-.9-1.5-1.1-1.2-.4-2.3-.2-3.2.2-.2.1-.5.3-.7.4l-.2.2-.3.3c-.3.3-.6.7-.8 1-.4.7-.5 1.3-.5 1.7v.7h-.1c0 2.8 2.3 5.1 5.1 5.1s5.1-2.3 5.1-5.1V115zm225.3-29.8c0 2.8 2.3 5.1 5.1 5.1h131c2.8 0 5.1-2.3 5.1-5.1s-2.3-5.1-5.1-5.1v.1h-.7c-.4 0-1.1.2-1.7.5-.3.2-.7.4-1 .8l-.3.3-.1.2c-.1.2-.3.4-.4.7-.4.9-.6 2.1-.2 3.2.2.6.6 1.1 1.1 1.5.1.1.3.2.4.3.1.1.3.2.4.2.1.1.3.1.4.2h.5c.6.1 1.3 0 1.9-.3.6-.3 1.1-1 1.3-1.5 0-.2.1-.2.1-.4 0 0 .1-.3.1-.5 0-.3 0-.6-.1-.9-.2-.5-.5-1-.9-1.3-.4-.3-.8-.4-1-.5h-.4c-.8 0-1.5.7-1.5 1.5 0 .7.5 1.3 1.2 1.5 0 .1-.2.2-.4.2h-.4c-.1 0-.1 0-.2-.1-.1 0-.1 0-.2-.1-.2-.1-.4-.3-.6-.6-.3-.5-.4-1.3-.2-2 0-.2.1-.3.2-.5l.2-.3s.1-.1.1-.2c.2-.3.4-.5.7-.7.5-.4 1-.6 1.3-.7.2 0 .3-.1.4-.1h.2v.4c2.4 0 4.3 1.9 4.3 4.3s-1.9 4.3-4.3 4.3H321c-2.4 0-4.3-1.9-4.3-4.3s1.9-4.3 4.3-4.3v-.1h.1c.1 0 .2 0 .4.1.3.1.8.3 1.3.7.2.2.5.4.7.7 0 .1.1.2.1.2l.2.3c.1.2.1.3.2.5.2.7.2 1.5-.2 2-.2.3-.4.4-.6.6-.1 0-.1.1-.2.1s-.1 0-.2.1h-.4c-.2 0-.4-.1-.4-.2.7-.1 1.2-.7 1.2-1.5s-.7-1.5-1.5-1.5h-.4c-.3 0-.6.2-1 .5s-.7.7-.9 1.3c-.1.3-.1.6-.1.9 0 .1 0 .5.1.5 0 .2.1.3.1.4.2.5.6 1.2 1.3 1.5.6.4 1.3.4 1.9.3h.5c.2 0 .3-.1.4-.2.1-.1.3-.1.4-.2.1-.1.3-.2.4-.3.5-.4.9-.9 1.1-1.5.4-1.2.2-2.3-.2-3.2-.1-.2-.3-.5-.4-.7l-.2-.2-.3-.3c-.3-.3-.7-.6-1-.8-.7-.4-1.3-.5-1.7-.5h-.7v-.1c-2.9-.3-5.3 2-5.3 4.8zm-205.8 0c0 2.8 2.3 5.1 5.1 5.1h131c2.8 0 5.1-2.3 5.1-5.1s-2.3-5.1-5.1-5.1v.1h-.7c-.4 0-1.1.2-1.7.5-.3.2-.7.4-1 .8l-.3.3-.2.2c-.1.2-.3.4-.4.7-.4.9-.6 2.1-.2 3.2.2.6.6 1.1 1.1 1.5.1.1.3.2.4.3.1.1.3.2.4.2.1.1.3.1.4.2h.5c.6.1 1.3 0 1.9-.3.6-.3 1.1-1 1.3-1.5 0-.2.1-.2.1-.4 0 0 .1-.3.1-.5 0-.3 0-.6-.1-.9-.2-.5-.5-1-.9-1.3-.4-.3-.8-.4-1-.5h-.4c-.8 0-1.5.7-1.5 1.5 0 .7.5 1.3 1.2 1.5 0 .1-.2.2-.4.2h-.4c-.1 0-.1 0-.2-.1-.1 0-.1 0-.2-.1-.2-.1-.4-.3-.6-.6-.3-.5-.4-1.3-.2-2 0-.2.1-.3.2-.5l.2-.3s.1-.1.1-.2c.2-.3.4-.5.7-.7.5-.4 1-.6 1.3-.7.2 0 .3-.1.4-.1h.2v.4c2.4 0 4.3 1.9 4.3 4.3s-1.9 4.3-4.3 4.3H115c-2.4 0-4.3-1.9-4.3-4.3s1.9-4.3 4.3-4.3v-.1h.1c.1 0 .2 0 .4.1.3.1.8.3 1.3.7.2.2.5.4.7.7 0 .1.1.2.1.2l.2.3c.1.2.1.3.2.5.2.7.2 1.5-.2 2-.2.3-.4.4-.6.6-.1 0-.1.1-.2.1s-.1 0-.2.1h-.4c-.2 0-.4-.1-.4-.2.7-.1 1.2-.7 1.2-1.5s-.7-1.5-1.5-1.5h-.4c-.3 0-.6.2-1 .5s-.7.7-.9 1.3c-.1.3-.1.6-.1.9 0 .1 0 .5.1.5 0 .2.1.3.1.4.2.5.6 1.2 1.3 1.5.6.4 1.3.4 1.9.3h.5c.2 0 .3-.1.4-.2.1-.1.3-.1.4-.2.1-.1.3-.2.4-.3.5-.4.9-.9 1.1-1.5.4-1.2.2-2.3-.2-3.2-.1-.2-.3-.5-.4-.7l-.2-.2-.3-.3c-.3-.3-.7-.6-1-.8-.7-.4-1.3-.5-1.7-.5h-.7v-.1c-2.8-.3-5.1 2-5.1 4.8zm141.3 396.5c0-2.8-2.3-5.1-5.1-5.1H115c-2.8 0-5.1 2.3-5.1 5.1s2.3 5.1 5.1 5.1v-.1h.7c.4 0 1.1-.2 1.7-.5.3-.2.7-.4 1-.8l.3-.3.2-.2c.1-.2.3-.4.4-.7.4-.9.6-2.1.2-3.2-.2-.6-.6-1.1-1.1-1.5-.1-.1-.3-.2-.4-.3-.1-.1-.3-.2-.4-.2-.1-.1-.3-.1-.4-.2h-.5c-.6-.1-1.3 0-1.9.3-.6.3-1.1 1-1.3 1.5 0 .2-.1.2-.1.4 0 0-.1.3-.1.5 0 .3 0 .6.1.9.2.5.5 1 .9 1.3.4.3.8.4 1 .5h.4c.8 0 1.5-.7 1.5-1.5 0-.7-.5-1.3-1.2-1.5 0-.1.2-.2.4-.2h.4c.1 0 .1 0 .2.1.1 0 .1 0 .2.1.2.1.4.3.6.6.3.5.4 1.3.2 2 0 .2-.1.3-.2.5l-.2.3s-.1.1-.1.2c-.2.3-.4.5-.7.7-.5.4-1 .6-1.3.7-.2 0-.3.1-.4.1h-.2v-.3c-2.4 0-4.3-1.9-4.3-4.3s1.9-4.3 4.3-4.3h131c2.4 0 4.3 1.9 4.3 4.3s-1.9 4.3-4.3 4.3v.1h-.1c-.1 0-.2 0-.4-.1-.3-.1-.8-.3-1.3-.7-.2-.2-.5-.4-.7-.7 0-.1-.1-.2-.1-.2l-.2-.3c-.1-.2-.1-.3-.2-.5-.2-.7-.2-1.5.2-2 .2-.3.4-.4.6-.6.1 0 .1-.1.2-.1s.1 0 .2-.1h.4c.2 0 .4.1.4.2-.7.1-1.2.7-1.2 1.5s.7 1.5 1.5 1.5h.4c.3 0 .6-.2 1-.5s.7-.7.9-1.3c.1-.3.1-.6.1-.9 0-.1 0-.5-.1-.5 0-.2-.1-.3-.1-.4-.2-.5-.6-1.2-1.3-1.5-.6-.4-1.3-.4-1.9-.3h-.5c-.2 0-.3.1-.4.2-.1.1-.3.1-.4.2-.1.1-.3.2-.4.3-.5.4-.9.9-1.1 1.5-.4 1.2-.2 2.3.2 3.2.1.2.3.5.4.7l.2.2.3.3c.3.3.7.6 1 .8.7.4 1.3.5 1.7.5h.7v.1c3 .3 5.3-2 5.3-4.9zm205.9 0c0-2.8-2.3-5.1-5.1-5.1H321c-2.8 0-5.1 2.3-5.1 5.1s2.3 5.1 5.1 5.1v-.1h.7c.4 0 1.1-.2 1.7-.5.3-.2.7-.4 1-.8l.3-.3.2-.2c.1-.2.3-.4.4-.7.4-.9.6-2.1.2-3.2-.2-.6-.6-1.1-1.1-1.5-.1-.1-.3-.2-.4-.3-.1-.1-.3-.2-.4-.2-.1-.1-.3-.1-.4-.2h-.5c-.6-.1-1.3 0-1.9.3-.6.3-1.1 1-1.3 1.5 0 .2-.1.2-.1.4 0 0-.1.3-.1.5 0 .3 0 .6.1.9.2.5.5 1 .9 1.3.4.3.8.4 1 .5h.4c.8 0 1.5-.7 1.5-1.5 0-.7-.5-1.3-1.2-1.5 0-.1.2-.2.4-.2h.4c.1 0 .1 0 .2.1.1 0 .1 0 .2.1.2.1.4.3.6.6.3.5.4 1.3.2 2 0 .2-.1.3-.2.5l-.2.3s-.1.1-.1.2c-.2.3-.4.5-.7.7-.5.4-1 .6-1.3.7-.2 0-.3.1-.4.1h-.2v-.3c-2.4 0-4.3-1.9-4.3-4.3s1.9-4.3 4.3-4.3h131c2.4 0 4.3 1.9 4.3 4.3s-1.9 4.3-4.3 4.3v.1h-.1c-.1 0-.2 0-.4-.1-.3-.1-.8-.3-1.3-.7-.2-.2-.5-.4-.7-.7 0-.1-.1-.2-.1-.2l-.2-.3c-.1-.2-.1-.3-.2-.5-.2-.7-.2-1.5.2-2 .2-.3.4-.4.6-.6.1 0 .1-.1.2-.1s.1 0 .2-.1h.4c.2 0 .4.1.4.2-.7.1-1.2.7-1.2 1.5s.7 1.5 1.5 1.5h.4c.3 0 .6-.2 1-.5s.7-.7.9-1.3c.1-.3.1-.6.1-.9 0-.1 0-.5-.1-.5 0-.2-.1-.3-.1-.4-.2-.5-.6-1.2-1.3-1.5-.6-.4-1.3-.4-1.9-.3h-.5c-.2 0-.3.1-.4.2-.1.1-.3.1-.4.2-.1.1-.3.2-.4.3-.5.4-.9.9-1.1 1.5-.4 1.2-.2 2.3.2 3.2.1.2.3.5.4.7l.2.2.3.3c.3.3.7.6 1 .8.7.4 1.3.5 1.7.5h.7v.1c2.9.3 5.2-2 5.2-4.9zm15.4-387.3H94.4v378.1h378.1V94.4zm14.3 226.5c.1-2.8-2.2-5.1-5.1-5.1-2.8 0-5.1 2.3-5.1 5.1v131c0 2.8 2.3 5.1 5.1 5.1s5.1-2.3 5.1-5.1h-.1v-.7c0-.4-.2-1.1-.5-1.7-.2-.3-.4-.7-.8-1l-.3-.3-.2-.2c-.2-.1-.4-.3-.7-.4-.9-.4-2.1-.6-3.2-.2-.6.2-1.1.6-1.5 1.1-.1.1-.2.3-.3.4-.1.1-.2.3-.2.4-.1.1-.1.3-.2.4v.5c-.1.6 0 1.3.3 1.9.3.6 1 1.1 1.5 1.3.2 0 .2.1.4.1 0 0 .3.1.5.1.3 0 .6 0 .9-.1.5-.2 1-.5 1.3-.9.3-.4.4-.8.5-1v-.4c0-.8-.7-1.5-1.5-1.5-.7 0-1.3.5-1.5 1.2-.1 0-.2-.2-.2-.4v-.4c0-.1 0-.1.1-.2 0-.1 0-.1.1-.2.1-.2.3-.4.6-.6.5-.3 1.3-.4 2-.2.2 0 .3.1.5.2l.3.2s.1.1.2.1c.3.2.5.4.7.7.4.5.6 1 .7 1.3 0 .2.1.3.1.4v.2h-.3c0 2.4-1.9 4.3-4.3 4.3s-4.3-1.9-4.3-4.3V321c0-2.4 1.9-4.3 4.3-4.3s4.3 1.9 4.3 4.3h.1v.1c0 .1 0 .2-.1.4-.1.3-.3.8-.7 1.3-.2.2-.4.5-.7.7-.1 0-.2.1-.2.1l-.3.2c-.2.1-.3.1-.5.2-.7.2-1.5.2-2-.2-.3-.2-.4-.4-.6-.6 0-.1-.1-.1-.1-.2s0-.1-.1-.2v-.4c0-.2.1-.4.2-.4.1.7.7 1.2 1.5 1.2s1.5-.7 1.5-1.5v-.4c0-.3-.2-.6-.5-1s-.7-.7-1.3-.9c-.3-.1-.6-.1-.9-.1-.1 0-.5 0-.5.1-.2 0-.3.1-.4.1-.5.2-1.2.6-1.5 1.3-.4.6-.4 1.3-.3 1.9v.5c0 .2.1.3.2.4.1.1.1.3.2.4.1.1.2.3.3.4.4.5.9.9 1.5 1.1 1.2.4 2.3.2 3.2-.2.2-.1.5-.3.7-.4l.2-.2.3-.3c.3-.3.6-.7.8-1 .4-.7.5-1.3.5-1.7v-.5c.3-.2.3-.3.3-.3zm0-205.9c.1-2.8-2.2-5.1-5.1-5.1-2.8 0-5.1 2.3-5.1 5.1v131c0 2.8 2.3 5.1 5.1 5.1s5.1-2.3 5.1-5.1h-.1v-.7c0-.4-.2-1.1-.5-1.7-.2-.3-.4-.7-.8-1l-.3-.3-.2-.2c-.2-.1-.4-.3-.7-.4-.9-.4-2.1-.6-3.2-.2-.6.2-1.1.6-1.5 1.1-.1.1-.2.3-.3.4-.1.1-.2.3-.2.4-.1.1-.1.3-.2.4v.5c-.1.6 0 1.3.3 1.9.3.6 1 1.1 1.5 1.3.2 0 .2.1.4.1 0 0 .3.1.5.1.3 0 .6 0 .9-.1.5-.2 1-.5 1.3-.9.3-.4.4-.8.5-1v-.4c0-.8-.7-1.5-1.5-1.5-.7 0-1.3.5-1.5 1.2-.1 0-.2-.2-.2-.4v-.4c0-.1 0-.1.1-.2 0-.1 0-.1.1-.2.1-.2.3-.4.6-.6.5-.3 1.3-.4 2-.2.2 0 .3.1.5.2l.3.2s.1.1.2.1c.3.2.5.4.7.7.4.5.6 1 .7 1.3 0 .2.1.3.1.4v.2h-.3c0 2.4-1.9 4.3-4.3 4.3s-4.3-1.9-4.3-4.3V115c0-2.4 1.9-4.3 4.3-4.3s4.3 1.9 4.3 4.3h.1v.1c0 .1 0 .2-.1.4-.1.3-.3.8-.7 1.3-.2.2-.4.5-.7.7-.1 0-.2.1-.2.1l-.3.2c-.2.1-.3.1-.5.2-.7.2-1.5.2-2-.2-.3-.2-.4-.4-.6-.6 0-.1-.1-.1-.1-.2s0-.1-.1-.2v-.4c0-.2.1-.4.2-.4.1.7.7 1.2 1.5 1.2s1.5-.7 1.5-1.5v-.4c0-.3-.2-.6-.5-1s-.7-.7-1.3-.9c-.3-.1-.6-.1-.9-.1-.1 0-.5 0-.5.1-.2 0-.3.1-.4.1-.5.2-1.2.6-1.5 1.3-.4.6-.4 1.3-.3 1.9v.5c0 .2.1.3.2.4.1.1.1.3.2.4.1.1.2.3.3.4.4.5.9.9 1.5 1.1 1.2.4 2.3.2 3.2-.2.2-.1.5-.3.7-.4l.2-.2.3-.3c.3-.3.6-.7.8-1 .4-.7.5-1.3.5-1.7v-.5c.3-.1.3-.2.3-.2zM235.9 507.9c9.2 0 14.5-3.2 19.4-7.1h-38.8c4.8 3.9 10.2 7.1 19.4 7.1zm-92.1 0c9.2 0 14.5-3.2 19.4-7.1h-38.8c4.9 3.9 10.2 7.1 19.4 7.1zm363.6-87.7c0-9.2-3.1-14.5-6.8-19.3v38.6c3.7-4.8 6.8-10.1 6.8-19.3zM420 507.9c9.2 0 14.5-3.2 19.4-7.1h-38.8c4.9 3.9 10.2 7.1 19.4 7.1zm-92 0c9.2 0 14.5-3.2 19.4-7.1h-38.8c4.8 3.9 10.1 7.1 19.4 7.1zm170.6-112.5V353c-4.4 5.4-8.3 10.8-8.3 21.2-.1 10.4 3.9 15.8 8.3 21.2zM68.4 353v42.4C73 390 77 384.6 77 374.2c0-10.4-4.1-15.8-8.6-21.2zm0-184.1v42.4c4.6-5.4 8.6-10.8 8.6-21.2 0-10.4-4.1-15.8-8.6-21.2zm0 92v42.4c4.6-5.4 8.6-10.8 8.6-21.2 0-10.3-4.1-15.8-8.6-21.2zM328 59.8c-9.2 0-14.5 3.1-19.3 6.8h38.6c-4.9-3.8-10.2-6.8-19.3-6.8zM66.4 370.2v-19.5c-4.6-5.5-9.1-11.4-9.1-22.5s4.5-17 9.1-22.5v-47.1c-4.6-5.5-9.1-11.4-9.1-22.5s4.5-17 9.1-22.5v-16.4c-2.5-.2-9.1-1.2-13.6-5.7-2.7-2.7-4.1-6.1-4.8-9v202.2c.8-2.9 2.2-6.3 4.8-9 4.5-4.4 11.1-5.3 13.6-5.5zm122.3 130.6h-22.3c-5.5 4.6-11.4 9.1-22.5 9.1s-17-4.5-22.5-9.1H98.5c-17.7 0-32.1-14.4-32.1-32.1v-25.9c-4.6-5.5-9.1-11.4-9.1-22.5s4.5-17 9.1-22.5v-21.6c-.8 2.8-2.2 6-4.7 8.5-4.5 4.5-11.3 5.5-13.7 5.7V519h128.8c.1-1.6.7-9.3 5.7-14.3 1.8-1.8 4-3.1 6.2-3.9zM197 66.6h16.5c5.4-4.5 11.4-8.8 22.5-8.8s17 4.3 22.5 8.8h47.1c5.4-4.5 11.4-8.8 22.5-8.8s17 4.3 22.5 8.8H370c.3-2.7 1.3-9 5.6-13.2 3.5-3.5 8.4-4.9 11.5-5.4H179.8c3.1.5 8 1.9 11.5 5.4 4.3 4.2 5.4 10.5 5.7 13.2zm301.6 236.7V261c-4.4 5.4-8.3 10.8-8.3 21.2-.1 10.3 3.9 15.8 8.3 21.1zm8.8-159.2c0-9.2-3.1-14.5-6.8-19.3v38.6c3.7-4.9 6.8-10.2 6.8-19.3zm-441 47.1v-24.6c-4.6-5.5-9.1-11.4-9.1-22.5s4.5-17 9.1-22.5V98.7c0-17.7 14.4-32.1 32.1-32.1h22.9c5.4-4.5 11.4-8.8 22.5-8.8s17 4.3 22.5 8.8H190c-2.5-.8-5.2-2.2-7.4-4.4-5-5-5.6-12.7-5.7-14.3h-129V177c2.4.2 9.2 1.1 13.7 5.7 2.6 2.5 4 5.7 4.8 8.5zm432.2 20.1V169c-4.4 5.4-8.3 10.8-8.3 21.2-.1 10.3 3.9 15.7 8.3 21.1zM168.7 498.8h42.4c-5.4-4.6-10.8-8.6-21.2-8.6-10.4 0-15.9 4-21.2 8.6zm331.9-122.6v21.6c4.5 5.4 8.8 11.4 8.8 22.5s-4.3 17-8.8 22.5v25.9c0 17.7-14.4 32.1-32.1 32.1h-25.9c-5.5 4.6-11.4 9.1-22.5 9.1s-17-4.5-22.5-9.1h-19.3c2.1.8 4.4 2.1 6.2 3.9 5 5 5.6 12.7 5.7 14.3H519V390.3c-2.4-.2-9.2-1.1-13.7-5.7-2.5-2.4-3.9-5.7-4.7-8.4zm6.8-140.1c0-9.2-3.1-14.5-6.8-19.3v38.6c3.7-4.8 6.8-10.1 6.8-19.3zm0 92.1c0-9.2-3.1-14.5-6.8-19.3v38.6c3.7-4.8 6.8-10.2 6.8-19.3zM370 500.8h-19.6c-5.5 4.6-11.4 9.1-22.5 9.1s-17-4.5-22.5-9.1h-47.1c-5.5 4.6-11.4 9.1-22.5 9.1s-17-4.5-22.5-9.1h-16.5c-.3 2.9-1.5 8.7-5.6 12.8-3.5 3.5-8.4 4.9-11.5 5.4h207.4c-3.1-.5-8-1.9-11.5-5.4-4.1-4.1-5.2-9.9-5.6-12.8zm-109.3-2h42.4c-5.4-4.6-10.8-8.6-21.2-8.6-10.4 0-15.8 4-21.2 8.6zm239.9-301.6v16.5c4.5 5.4 8.8 11.4 8.8 22.5s-4.3 17-8.8 22.5v47.1c4.5 5.4 8.8 11.4 8.8 22.5s-4.3 17-8.8 22.5v19.5c2.5.2 9.1 1.2 13.6 5.7 2.7 2.7 4.1 6.1 4.8 9V182.6c-.8 2.9-2.2 6.3-4.8 9-4.5 4.4-11.2 5.4-13.6 5.6zM377 66.6h20.5c5.4-4.5 11.4-8.8 22.5-8.8s17 4.3 22.5 8.8h26c17.7 0 32.1 14.4 32.1 32.1v22.9c4.5 5.4 8.8 11.4 8.8 22.5s-4.3 17-8.8 22.5v24.7c.8-2.8 2.2-6 4.7-8.5 4.5-4.5 11.3-5.5 13.7-5.7V47.9H390.2c-.1 1.6-.7 9.3-5.7 14.3-2.2 2.2-5 3.5-7.5 4.4zm43-6.8c-9.2 0-14.5 3.1-19.3 6.8h38.6c-4.8-3.8-10.1-6.8-19.3-6.8z"/><path class="st0" d="M251.2 85.2c0 2.8-2.3 5.1-5.1 5.1H115c-2.8 0-5.1-2.3-5.1-5.1s2.3-5.1 5.1-5.1v.1h.7c.4 0 1.1.2 1.7.5.3.2.7.4 1 .8l.3.3.2.2c.1.2.3.4.4.7.4.9.6 2.1.2 3.2-.2.6-.6 1.1-1.1 1.5-.1.1-.3.2-.4.3-.1.1-.3.2-.4.2-.1.1-.3.1-.4.2h-.5c-.6.1-1.3 0-1.9-.3-.6-.3-1.1-1-1.3-1.5 0-.2-.1-.2-.1-.4 0 0-.1-.3-.1-.5 0-.3 0-.6.1-.9.2-.5.5-1 .9-1.3.4-.3.8-.4 1-.5h.4c.8 0 1.5.7 1.5 1.5 0 .7-.5 1.3-1.2 1.5 0 .1.2.2.4.2h.4c.1 0 .1 0 .2-.1.1 0 .1 0 .2-.1.2-.1.4-.3.6-.6.3-.5.4-1.3.2-2 0-.2-.1-.3-.2-.5l-.2-.3s-.1-.1-.1-.2c-.2-.3-.4-.5-.7-.7-.5-.4-1-.6-1.3-.7-.2 0-.3-.1-.4-.1h-.1v.4c-2.4 0-4.3 1.9-4.3 4.3s1.9 4.3 4.3 4.3h131c2.4 0 4.3-1.9 4.3-4.3S248.4 81 246 81v-.1h-.2c-.1 0-.2 0-.4.1-.3.1-.8.3-1.3.7-.2.2-.5.4-.7.7 0 .1-.1.2-.1.2l-.2.3c-.1.2-.1.3-.2.5-.2.7-.2 1.5.2 2 .2.3.4.4.6.6.1 0 .1.1.2.1s.1 0 .2.1h.4c.2 0 .4-.1.4-.2-.7-.1-1.2-.7-1.2-1.5s.7-1.5 1.5-1.5h.4c.3 0 .6.2 1 .5s.7.7.9 1.3c.1.3.1.6.1.9 0 .1 0 .5-.1.5 0 .2-.1.3-.1.4-.2.5-.6 1.2-1.3 1.5-.6.4-1.3.4-1.9.3h-.5c-.2 0-.3-.1-.4-.2-.1-.1-.3-.1-.4-.2-.1-.1-.3-.2-.4-.3-.5-.4-.9-.9-1.1-1.5-.4-1.2-.2-2.3.2-3.2.1-.2.3-.5.4-.7l.2-.2.3-.3c.3-.3.7-.6 1-.8.7-.4 1.3-.5 1.7-.5h.7v-.1c3-.3 5.3 2 5.3 4.8zm200.7-5.1c0 .1-.1.1-.2.1h-.5c-.4 0-1.1.2-1.7.5-.3.2-.7.4-1 .8l-.3.3-.2.2c-.1.2-.3.4-.4.7-.4.9-.6 2.1-.2 3.2.2.6.6 1.1 1.1 1.5.1.1.3.2.4.3.1.1.3.2.4.2.1.1.3.1.4.2h.5c.6.1 1.3 0 1.9-.3.6-.3 1.1-1 1.3-1.5 0-.2.1-.2.1-.4 0 0 .1-.3.1-.5 0-.3 0-.6-.1-.9-.2-.5-.5-1-.9-1.3-.4-.3-.8-.4-1-.5h-.4c-.8 0-1.5.7-1.5 1.5 0 .7.5 1.3 1.2 1.5 0 .1-.2.2-.4.2h-.4c-.1 0-.1 0-.2-.1-.1 0-.1 0-.2-.1-.2-.1-.4-.3-.6-.6-.3-.5-.4-1.3-.2-2 0-.2.1-.3.2-.5l.2-.3s.1-.1.1-.2c.2-.3.4-.5.7-.7.5-.4 1-.6 1.3-.7.2 0 .3-.1.4-.1h.2v.4c2.4 0 4.3 1.9 4.3 4.3s-1.9 4.3-4.3 4.3H321c-2.4 0-4.3-1.9-4.3-4.3s1.9-4.3 4.3-4.3v-.1h.1c.1 0 .2 0 .4.1.3.1.8.3 1.3.7.2.2.5.4.7.7 0 .1.1.2.1.2l.2.3c.1.2.1.3.2.5.2.7.2 1.5-.2 2-.2.3-.4.4-.6.6-.1 0-.1.1-.2.1s-.1 0-.2.1h-.4c-.2 0-.4-.1-.4-.2.7-.1 1.2-.7 1.2-1.5s-.7-1.5-1.5-1.5h-.4c-.3 0-.6.2-1 .5s-.7.7-.9 1.3c-.1.3-.1.6-.1.9 0 .1 0 .5.1.5 0 .2.1.3.1.4.2.5.6 1.2 1.3 1.5.6.4 1.3.4 1.9.3h.5c.2 0 .3-.1.4-.2.1-.1.3-.1.4-.2.1-.1.3-.2.4-.3.5-.4.9-.9 1.1-1.5.4-1.2.2-2.3-.2-3.2-.1-.2-.3-.5-.4-.7l-.2-.2-.3-.3c-.3-.3-.7-.6-1-.8-.7-.4-1.3-.5-1.7-.5h-.7v-.1c-2.8 0-5.1 2.3-5.1 5.1s2.3 5.1 5.1 5.1h131c2.8 0 5.1-2.3 5.1-5.1 0-3.1-2.3-5.4-5.2-5.4zm0 396.5h-131c-2.8 0-5.1 2.3-5.1 5.1s2.3 5.1 5.1 5.1v-.1h.7c.4 0 1.1-.2 1.7-.5.3-.2.7-.4 1-.8l.3-.3.2-.2c.1-.2.3-.4.4-.7.4-.9.6-2.1.2-3.2-.2-.6-.6-1.1-1.1-1.5-.1-.1-.3-.2-.4-.3-.1-.1-.3-.2-.4-.2-.1-.1-.3-.1-.4-.2h-.5c-.6-.1-1.3 0-1.9.3-.6.3-1.1 1-1.3 1.5 0 .2-.1.2-.1.4 0 0-.1.3-.1.5 0 .3 0 .6.1.9.2.5.5 1 .9 1.3.4.3.8.4 1 .5h.4c.8 0 1.5-.7 1.5-1.5 0-.7-.5-1.3-1.2-1.5 0-.1.2-.2.4-.2h.4c.1 0 .1 0 .2.1.1 0 .1 0 .2.1.2.1.4.3.6.6.3.5.4 1.3.2 2 0 .2-.1.3-.2.5l-.2.3s-.1.1-.1.2c-.2.3-.4.5-.7.7-.5.4-1 .6-1.3.7-.2 0-.3.1-.4.1h-.2v-.3c-2.4 0-4.3-1.9-4.3-4.3s1.9-4.3 4.3-4.3h131c2.4 0 4.3 1.9 4.3 4.3s-1.9 4.3-4.3 4.3v.1h-.1c-.1 0-.2 0-.4-.1-.3-.1-.8-.3-1.3-.7-.2-.2-.5-.4-.7-.7 0-.1-.1-.2-.1-.2l-.2-.3c-.1-.2-.1-.3-.2-.5-.2-.7-.2-1.5.2-2 .2-.3.4-.4.6-.6.1 0 .1-.1.2-.1s.1 0 .2-.1h.4c.2 0 .4.1.4.2-.7.1-1.2.7-1.2 1.5s.7 1.5 1.5 1.5h.4c.3 0 .6-.2 1-.5s.7-.7.9-1.3c.1-.3.1-.6.1-.9 0-.1 0-.5-.1-.5 0-.2-.1-.3-.1-.4-.2-.5-.6-1.2-1.3-1.5-.6-.4-1.3-.4-1.9-.3h-.5c-.2 0-.3.1-.4.2-.1.1-.3.1-.4.2-.1.1-.3.2-.4.3-.5.4-.9.9-1.1 1.5-.4 1.2-.2 2.3.2 3.2.1.2.3.5.4.7l.2.2.3.3c.3.3.7.6 1 .8.7.4 1.3.5 1.7.5h.7v.1c2.8 0 5.1-2.3 5.1-5.1.2-2.6-2.1-4.9-5-4.9zm-205.9 0H115c-2.8 0-5.1 2.3-5.1 5.1s2.3 5.1 5.1 5.1v-.1h.7c.4 0 1.1-.2 1.7-.5.3-.2.7-.4 1-.8l.3-.3.2-.2c.1-.2.3-.4.4-.7.4-.9.6-2.1.2-3.2-.2-.6-.6-1.1-1.1-1.5-.1-.1-.3-.2-.4-.3-.1-.1-.3-.2-.4-.2-.1-.1-.3-.1-.4-.2h-.5c-.6-.1-1.3 0-1.9.3-.6.3-1.1 1-1.3 1.5 0 .2-.1.2-.1.4 0 0-.1.3-.1.5 0 .3 0 .6.1.9.2.5.5 1 .9 1.3.4.3.8.4 1 .5h.4c.8 0 1.5-.7 1.5-1.5 0-.7-.5-1.3-1.2-1.5 0-.1.2-.2.4-.2h.4c.1 0 .1 0 .2.1.1 0 .1 0 .2.1.2.1.4.3.6.6.3.5.4 1.3.2 2 0 .2-.1.3-.2.5l-.2.3s-.1.1-.1.2c-.2.3-.4.5-.7.7-.5.4-1 .6-1.3.7-.2 0-.3.1-.4.1h-.2v-.3c-2.4 0-4.3-1.9-4.3-4.3s1.9-4.3 4.3-4.3h131c2.4 0 4.3 1.9 4.3 4.3s-1.9 4.3-4.3 4.3v.1h-.1c-.1 0-.2 0-.4-.1-.3-.1-.8-.3-1.3-.7-.2-.2-.5-.4-.7-.7 0-.1-.1-.2-.1-.2l-.2-.3c-.1-.2-.1-.3-.2-.5-.2-.7-.2-1.5.2-2 .2-.3.4-.4.6-.6.1 0 .1-.1.2-.1s.1 0 .2-.1h.4c.2 0 .4.1.4.2-.7.1-1.2.7-1.2 1.5s.7 1.5 1.5 1.5h.4c.3 0 .6-.2 1-.5s.7-.7.9-1.3c.1-.3.1-.6.1-.9 0-.1 0-.5-.1-.5 0-.2-.1-.3-.1-.4-.2-.5-.6-1.2-1.3-1.5-.6-.4-1.3-.4-1.9-.3h-.5c-.2 0-.3.1-.4.2-.1.1-.3.1-.4.2-.1.1-.3.2-.4.3-.5.4-.9.9-1.1 1.5-.4 1.2-.2 2.3.2 3.2.1.2.3.5.4.7l.2.2.3.3c.3.3.7.6 1 .8.7.4 1.3.5 1.7.5h.7v.1c2.8 0 5.1-2.3 5.1-5.1.2-2.6-2.1-4.9-5-4.9zm235.7-225.4c2.8 0 5.1-2.3 5.1-5.1h-.1v-.7c0-.4-.2-1.1-.5-1.7-.2-.3-.4-.7-.8-1l-.3-.3-.2-.2c-.2-.1-.4-.3-.7-.4-.9-.4-2.1-.6-3.2-.2-.6.2-1.1.6-1.5 1.1-.1.1-.2.3-.3.4-.1.1-.2.3-.2.4-.1.1-.1.3-.2.4v.5c-.1.6 0 1.3.3 1.9.3.6 1 1.1 1.5 1.3.2 0 .2.1.4.1 0 0 .3.1.5.1.3 0 .6 0 .9-.1.5-.2 1-.5 1.3-.9.3-.4.4-.8.5-1v-.4c0-.8-.7-1.5-1.5-1.5-.7 0-1.3.5-1.5 1.2-.1 0-.2-.2-.2-.4v-.4c0-.1 0-.1.1-.2 0-.1 0-.1.1-.2.1-.2.3-.4.6-.6.5-.3 1.3-.4 2-.2.2 0 .3.1.5.2l.3.2s.1.1.2.1c.3.2.5.4.7.7.4.5.6 1 .7 1.3 0 .2.1.3.1.4v.2h-.3c0 2.4-1.9 4.3-4.3 4.3s-4.3-1.9-4.3-4.3V115c0-2.4 1.9-4.3 4.3-4.3s4.3 1.9 4.3 4.3h.1v.1c0 .1 0 .2-.1.4-.1.3-.3.8-.7 1.3-.2.2-.4.5-.7.7-.1 0-.2.1-.2.1l-.3.2c-.2.1-.3.1-.5.2-.7.2-1.5.2-2-.2-.3-.2-.4-.4-.6-.6 0-.1-.1-.1-.1-.2s0-.1-.1-.2v-.4c0-.2.1-.4.2-.4.1.7.7 1.2 1.5 1.2s1.5-.7 1.5-1.5v-.4c0-.3-.2-.6-.5-1s-.7-.7-1.3-.9c-.3-.1-.6-.1-.9-.1-.1 0-.5 0-.5.1-.2 0-.3.1-.4.1-.5.2-1.2.6-1.5 1.3-.4.6-.4 1.3-.3 1.9v.5c0 .2.1.3.2.4.1.1.1.3.2.4.1.1.2.3.3.4.4.5.9.9 1.5 1.1 1.2.4 2.3.2 3.2-.2.2-.1.5-.3.7-.4l.2-.2.3-.3c.3-.3.6-.7.8-1 .4-.7.5-1.3.5-1.7v-.7h.1c0-2.8-2.3-5.1-5.1-5.1s-5.1 2.3-5.1 5.1v131c.2 2.9 2.5 5.2 5.3 5.2zm5.2 200.7h-.1.1c-.1 0-.1-.1-.1-.2v-.5c0-.4-.2-1.1-.5-1.7-.2-.3-.4-.7-.8-1l-.3-.3-.2-.2c-.2-.1-.4-.3-.7-.4-.9-.4-2.1-.6-3.2-.2-.6.2-1.1.6-1.5 1.1-.1.1-.2.3-.3.4-.1.1-.2.3-.2.4-.1.1-.1.3-.2.4v.5c-.1.6 0 1.3.3 1.9.3.6 1 1.1 1.5 1.3.2 0 .2.1.4.1 0 0 .3.1.5.1.3 0 .6 0 .9-.1.5-.2 1-.5 1.3-.9.3-.4.4-.8.5-1v-.4c0-.8-.7-1.5-1.5-1.5-.7 0-1.3.5-1.5 1.2-.1 0-.2-.2-.2-.4v-.4c0-.1 0-.1.1-.2 0-.1 0-.1.1-.2.1-.2.3-.4.6-.6.5-.3 1.3-.4 2-.2.2 0 .3.1.5.2l.3.2s.1.1.2.1c.3.2.5.4.7.7.4.5.6 1 .7 1.3 0 .2.1.3.1.4v.2h-.4c0 2.4-1.9 4.3-4.3 4.3s-4.3-1.9-4.3-4.3V321c0-2.4 1.9-4.3 4.3-4.3s4.3 1.9 4.3 4.3h.1v.1c0 .1 0 .2-.1.4-.1.3-.3.8-.7 1.3-.2.2-.4.5-.7.7-.1 0-.2.1-.2.1l-.3.2c-.2.1-.3.1-.5.2-.7.2-1.5.2-2-.2-.3-.2-.4-.4-.6-.6 0-.1-.1-.1-.1-.2s0-.1-.1-.2v-.4c0-.2.1-.4.2-.4.1.7.7 1.2 1.5 1.2s1.5-.7 1.5-1.5v-.4c0-.3-.2-.6-.5-1s-.7-.7-1.3-.9c-.3-.1-.6-.1-.9-.1-.1 0-.5 0-.5.1-.2 0-.3.1-.4.1-.5.2-1.2.6-1.5 1.3-.4.6-.4 1.3-.3 1.9v.5c0 .2.1.3.2.4.1.1.1.3.2.4.1.1.2.3.3.4.4.5.9.9 1.5 1.1 1.2.4 2.3.2 3.2-.2.2-.1.5-.3.7-.4l.2-.2.3-.3c.3-.3.6-.7.8-1 .4-.7.5-1.3.5-1.7v-.7h.1c0-2.8-2.3-5.1-5.1-5.1s-5.1 2.3-5.1 5.1v131c0 2.8 2.3 5.1 5.1 5.1 3.1 0 5.4-2.3 5.4-5.2zM85.2 315.7c-2.8 0-5.1 2.3-5.1 5.1h.1v.7c0 .4.2 1.1.5 1.7.2.3.4.7.8 1l.3.3.2.2c.2.1.4.3.7.4.9.4 2.1.6 3.2.2.6-.2 1.1-.6 1.5-1.1.1-.1.2-.3.3-.4.1-.1.2-.3.2-.4.1-.1.1-.3.2-.4v-.5c.1-.6 0-1.3-.3-1.9-.3-.6-1-1.1-1.5-1.3-.2 0-.2-.1-.4-.1 0 0-.3-.1-.5-.1-.3 0-.6 0-.9.1-.5.2-1 .5-1.3.9-.3.4-.4.8-.5 1v.4c0 .8.7 1.5 1.5 1.5.7 0 1.3-.5 1.5-1.2.1 0 .2.2.2.4v.4c0 .1 0 .1-.1.2 0 .1 0 .1-.1.2-.1.2-.3.4-.6.6-.5.3-1.3.4-2 .2-.2 0-.3-.1-.5-.2l-.3-.2s-.1-.1-.2-.1c-.3-.2-.5-.4-.7-.7-.4-.5-.6-1-.7-1.3 0-.2-.1-.3-.1-.4v-.2h.4c0-2.4 1.9-4.3 4.3-4.3s4.3 1.9 4.3 4.3v131c0 2.4-1.9 4.3-4.3 4.3s-4.3-1.9-4.3-4.3h-.1v-.1c0-.1 0-.2.1-.4.1-.3.3-.8.7-1.3.2-.2.4-.5.7-.7.1 0 .2-.1.2-.1l.3-.2c.2-.1.3-.1.5-.2.7-.2 1.5-.2 2 .2.3.2.4.4.6.6 0 .1.1.1.1.2s0 .1.1.2v.4c0 .2-.1.4-.2.4-.1-.7-.7-1.2-1.5-1.2s-1.5.7-1.5 1.5v.4c0 .3.2.6.5 1s.7.7 1.3.9c.3.1.6.1.9.1.1 0 .5 0 .5-.1.2 0 .3-.1.4-.1.5-.2 1.2-.6 1.5-1.3.4-.6.4-1.3.3-1.9v-.5c0-.2-.1-.3-.2-.4-.1-.1-.1-.3-.2-.4-.1-.1-.2-.3-.3-.4-.4-.5-.9-.9-1.5-1.1-1.2-.4-2.3-.2-3.2.2-.2.1-.5.3-.7.4l-.2.2-.3.3c-.3.3-.6.7-.8 1-.4.7-.5 1.3-.5 1.7v.7h-.1c0 2.8 2.3 5.1 5.1 5.1s5.1-2.3 5.1-5.1v-131c-.2-2.6-2.5-5-5.4-5zm0-205.8c-2.8 0-5.1 2.3-5.1 5.1h.1v.7c0 .4.2 1.1.5 1.7.2.3.4.7.8 1l.3.3.2.2c.2.1.4.3.7.4.9.4 2.1.6 3.2.2.6-.2 1.1-.6 1.5-1.1.1-.1.2-.3.3-.4.1-.1.2-.3.2-.4.1-.1.1-.3.2-.4v-.5c.1-.6 0-1.3-.3-1.9-.3-.6-1-1.1-1.5-1.3-.2 0-.2-.1-.4-.1 0 0-.3-.1-.5-.1-.3 0-.6 0-.9.1-.5.2-1 .5-1.3.9-.3.4-.4.8-.5 1v.4c0 .8.7 1.5 1.5 1.5.7 0 1.3-.5 1.5-1.2.1 0 .2.2.2.4v.4c0 .1 0 .1-.1.2 0 .1 0 .1-.1.2-.1.2-.3.4-.6.6-.5.3-1.3.4-2 .2-.2 0-.3-.1-.5-.2l-.3-.2s-.1-.1-.2-.1c-.3-.2-.5-.4-.7-.7-.4-.5-.6-1-.7-1.3 0-.2-.1-.3-.1-.4v-.2h.4c0-2.4 1.9-4.3 4.3-4.3s4.3 1.9 4.3 4.3v131c0 2.4-1.9 4.3-4.3 4.3s-4.3-1.9-4.3-4.3h-.1v-.1c0-.1 0-.2.1-.4.1-.3.3-.8.7-1.3.2-.2.4-.5.7-.7.1 0 .2-.1.2-.1l.3-.2c.2-.1.3-.1.5-.2.7-.2 1.5-.2 2 .2.3.2.4.4.6.6 0 .1.1.1.1.2s0 .1.1.2v.4c0 .2-.1.4-.2.4-.1-.7-.7-1.2-1.5-1.2s-1.5.7-1.5 1.5v.4c0 .3.2.6.5 1s.7.7 1.3.9c.3.1.6.1.9.1.1 0 .5 0 .5-.1.2 0 .3-.1.4-.1.5-.2 1.2-.6 1.5-1.3.4-.6.4-1.3.3-1.9v-.5c0-.2-.1-.3-.2-.4-.1-.1-.1-.3-.2-.4-.1-.1-.2-.3-.3-.4-.4-.5-.9-.9-1.5-1.1-1.2-.4-2.3-.2-3.2.2-.2.1-.5.3-.7.4l-.2.2-.3.3c-.3.3-.6.7-.8 1-.4.7-.5 1.3-.5 1.7v.7h-.1c0 2.8 2.3 5.1 5.1 5.1s5.1-2.3 5.1-5.1V115c-.2-2.8-2.5-5.1-5.4-5.1zM519 384.8c.8 3.1.9 5.6.9 5.6h-.9c-2.4-.2-9.2-1.1-13.7-5.7-2.5-2.5-3.9-5.7-4.7-8.5v21.6c4.5 5.4 8.8 11.4 8.8 22.5s-4.3 17-8.8 22.5v25.9c0 17.7-14.4 32.1-32.1 32.1h-25.9c-5.5 4.6-11.4 9.1-22.5 9.1s-17-4.5-22.5-9.1h-19.3c2.1.8 4.4 2.1 6.2 3.9 5 5 5.6 12.7 5.7 14.3v.3s-1.2 0-3-.3c-3.1-.5-8-1.9-11.5-5.4-4.1-4.1-5.2-9.9-5.6-12.8h-19.6c-5.5 4.6-11.4 9.1-22.5 9.1s-17-4.5-22.5-9.1h-47.1c-5.5 4.6-11.4 9.1-22.5 9.1s-17-4.5-22.5-9.1h-16.5c-.3 2.9-1.5 8.7-5.6 12.8-3.5 3.5-8.4 4.9-11.5 5.4-1.8.3-3 .3-3 .3v-.3c.1-1.6.7-9.3 5.7-14.3 1.9-1.9 4.1-3.1 6.2-3.9h-22.3c-5.5 4.6-11.4 9.1-22.5 9.1s-17-4.5-22.5-9.1H98.5c-17.7 0-32.1-14.4-32.1-32.1v-25.9c-4.6-5.5-9.1-11.4-9.1-22.5s4.5-17 9.1-22.5v-21.6c-.8 2.8-2.2 6-4.7 8.5-4.5 4.5-11.3 5.5-13.7 5.7h-.9s0-2.5.9-5.6c.8-2.9 2.2-6.3 4.8-9 4.5-4.5 11.1-5.4 13.6-5.7v-19.5c-4.6-5.5-9.1-11.4-9.1-22.5s4.5-17 9.1-22.5v-47.1c-4.6-5.5-9.1-11.4-9.1-22.5s4.5-17 9.1-22.5v-16.4c-2.5-.2-9.1-1.2-13.6-5.7-2.7-2.7-4.1-6.1-4.8-9-.8-3.1-.9-5.6-.9-5.6h.9c2.4.2 9.2 1.1 13.7 5.7 2.5 2.5 3.9 5.7 4.7 8.5v-24.6c-4.6-5.5-9.1-11.4-9.1-22.5s4.5-17 9.1-22.5V98.7c0-17.7 14.4-32.1 32.1-32.1h22.9c5.4-4.5 11.4-8.8 22.5-8.8s17 4.3 22.5 8.8H190c-2.5-.8-5.2-2.2-7.4-4.4-5-5-5.6-12.7-5.7-14.3v-.3s1.2 0 3 .3c3.1.5 8 1.9 11.5 5.4 4.3 4.3 5.4 10.5 5.6 13.2h16.5c5.4-4.5 11.4-8.8 22.5-8.8s17 4.3 22.5 8.8h47.1c5.4-4.5 11.4-8.8 22.5-8.8s17 4.3 22.5 8.8H370c.3-2.7 1.3-9 5.6-13.2 3.5-3.5 8.4-4.9 11.5-5.4 1.8-.3 3-.3 3-.3v.3c-.1 1.6-.7 9.3-5.7 14.3-2.2 2.2-4.9 3.5-7.4 4.4h20.5c5.4-4.5 11.4-8.8 22.5-8.8s17 4.3 22.5 8.8h26c17.7 0 32.1 14.4 32.1 32.1v22.9c4.5 5.4 8.8 11.4 8.8 22.5s-4.3 17-8.8 22.5v24.7c.8-2.8 2.2-6 4.7-8.5 4.5-4.5 11.3-5.5 13.7-5.7h.9s0 2.5-.9 5.6c-.8 2.9-2.2 6.3-4.8 9-4.5 4.5-11.1 5.4-13.6 5.7v16.5c4.5 5.4 8.8 11.4 8.8 22.5s-4.3 17-8.8 22.5V306c4.5 5.4 8.8 11.4 8.8 22.5s-4.3 17-8.8 22.5v19.5c2.5.2 9.1 1.2 13.6 5.7 2.6 2.3 4 5.7 4.8 8.6zM498.6 353c-4.4 5.4-8.3 10.8-8.3 21.2 0 10.4 3.9 15.8 8.3 21.2V353zm2-44.1v38.6c3.8-4.8 6.8-10.1 6.8-19.3 0-9.2-3.1-14.5-6.8-19.3zm-2-47.9c-4.4 5.4-8.3 10.8-8.3 21.2 0 10.4 3.9 15.8 8.3 21.2V261zm2-44.2v38.6c3.8-4.8 6.8-10.1 6.8-19.3 0-9.1-3.1-14.5-6.8-19.3zm-2-47.9c-4.4 5.4-8.3 10.8-8.3 21.2 0 10.4 3.9 15.8 8.3 21.2v-42.4zm2-44.1v38.6c3.8-4.8 6.8-10.1 6.8-19.3 0-9.2-3.1-14.5-6.8-19.3zm-99.9-58.2h38.6c-4.8-3.8-10.1-6.8-19.3-6.8-9.1 0-14.5 3-19.3 6.8zm-47.9 2c5.4 4.4 10.8 8.3 21.2 8.3 10.4 0 15.8-3.9 21.2-8.3h-42.4zm-44.1-2h38.6c-4.8-3.8-10.1-6.8-19.3-6.8s-14.5 3-19.3 6.8zm-47.9 2c5.4 4.4 10.8 8.3 21.2 8.3 10.4 0 15.8-3.9 21.2-8.3h-42.4zm-44.2-2h38.6c-4.8-3.8-10.1-6.8-19.3-6.8-9.2 0-14.5 3-19.3 6.8zm-47.9 2c5.4 4.4 10.8 8.3 21.2 8.3 10.4 0 15.8-3.9 21.2-8.3h-42.4zm-44.1-2h38.6c-4.8-3.8-10.1-6.8-19.3-6.8-9.2 0-14.5 3-19.3 6.8zm-58.2 96.8v-38.8c-3.9 4.8-7.1 10.2-7.1 19.4-.1 9.3 3.1 14.6 7.1 19.4zm2 47.9c4.6-5.4 8.6-10.8 8.6-21.2 0-10.4-4.1-15.8-8.6-21.2v42.4zm-2 44.2v-38.8c-3.9 4.8-7.1 10.2-7.1 19.4-.1 9.2 3.1 14.6 7.1 19.4zm2 47.8c4.6-5.4 8.6-10.8 8.6-21.2 0-10.4-4.1-15.8-8.6-21.2v42.4zm-2 44.3v-38.8c-3.9 4.8-7.1 10.2-7.1 19.4s3.1 14.5 7.1 19.4zm2 47.8C73 390 77 384.6 77 374.2c0-10.4-4.1-15.8-8.6-21.2v42.4zm-2 44.2v-38.8c-3.9 4.8-7.1 10.2-7.1 19.4-.1 9.3 3.1 14.6 7.1 19.4zm96.8 61.2h-38.8c4.8 3.9 10.2 7.1 19.4 7.1 9.3 0 14.6-3.2 19.4-7.1zm47.9-2c-5.4-4.6-10.8-8.6-21.2-8.6-10.4 0-15.8 4.1-21.2 8.6h42.4zm44.2 2h-38.8c4.8 3.9 10.2 7.1 19.4 7.1s14.5-3.2 19.4-7.1zm47.8-2c-5.4-4.6-10.8-8.6-21.2-8.6-10.4 0-15.8 4.1-21.2 8.6h42.4zm44.2 2h-38.8c4.8 3.9 10.2 7.1 19.4 7.1s14.6-3.2 19.4-7.1zm47.9-2c-5.4-4.6-10.8-8.6-21.2-8.6-10.4 0-15.8 4.1-21.2 8.6h42.4zm44.2 2h-38.8c4.8 3.9 10.2 7.1 19.4 7.1s14.6-3.2 19.4-7.1zm59.2-55.7c-4.1 5-7.8 10.1-8.3 19.3 2.3.5 4 2.5 4 5 0 2.8-2.3 5.1-5.1 5.1s-5.1-2.3-5.1-5.1c0-2.5 1.8-4.6 4.2-5 .5-10.6 5.2-16.2 9.7-21.7.2-.2.4-.4.5-.6v-43.5c-.2-.2-.4-.4-.5-.6-4.8-5.8-9.8-11.8-9.8-23.7 0-11.9 5-17.9 9.8-23.7.2-.2.4-.4.5-.6v-43.5c-.2-.2-.4-.4-.5-.6-4.8-5.8-9.8-11.8-9.8-23.7 0-11.9 5-17.9 9.8-23.6.2-.2.4-.4.5-.6v-43.5c-.2-.2-.4-.4-.5-.6-4.8-5.8-9.8-11.8-9.8-23.7 0-11.9 5-17.9 9.8-23.7.2-.2.4-.4.5-.6v-43.5c-.2-.2-.4-.4-.5-.6-4.1-4.9-8.3-10-9.5-18.6-2.5-.3-4.5-2.4-4.5-5 0-2.8 2.3-5.1 5.1-5.1s5.1 2.3 5.1 5.1c0 2.3-1.6 4.3-3.7 4.9 1 7.3 4.3 11.8 8 16.3V98.7c0-16.6-13.5-30.1-30.1-30.1h-23.5c5 4.1 10.1 7.8 19.3 8.3.5-2.3 2.5-4 5-4 2.8 0 5.1 2.3 5.1 5.1s-2.3 5.1-5.1 5.1c-2.5 0-4.6-1.8-5-4.2-10.6-.5-16.2-5.2-21.7-9.7-.2-.2-.4-.4-.6-.5h-43.5c-.2.2-.4.4-.6.5C392 74 386 79 374.1 79c-11.9 0-17.9-5-23.7-9.8-.2-.2-.4-.4-.6-.5h-43.5c-.2.2-.4.4-.6.5C299.9 74 293.9 79 282 79s-17.9-5-23.6-9.8c-.2-.2-.4-.4-.6-.5h-43.5c-.2.2-.4.3-.6.5-5.8 4.8-11.8 9.8-23.6 9.8-11.9 0-17.9-5-23.7-9.8-.2-.2-.4-.4-.6-.5h-43.5c-.2.2-.4.3-.6.5-4.9 4.1-10 8.3-18.6 9.5-.3 2.5-2.4 4.5-5 4.5-2.8 0-5.1-2.3-5.1-5.1s2.3-5.1 5.1-5.1c2.3 0 4.3 1.6 4.9 3.7 7.3-1 11.8-4.3 16.3-8H98.5c-16.6 0-30.1 13.5-30.1 30.1v20.5c3.8-4.4 7.2-8.9 8.3-16.2-2.3-.5-4-2.5-4-5 0-2.8 2.3-5.1 5.1-5.1s5.1 2.3 5.1 5.1c0 2.5-1.8 4.6-4.2 5-1.2 8.7-5.5 13.7-9.8 18.7-.2.2-.3.4-.5.6v43.5c.2.2.3.4.5.6 5 5.8 10.1 11.8 10.1 23.7s-5.1 17.9-10.1 23.7c-.2.2-.3.4-.5.6V258c.2.2.3.4.5.6 5 5.8 10.1 11.8 10.1 23.7 0 11.9-5.1 17.9-10.1 23.7-.2.2-.3.4-.5.6v43.5c.2.2.3.4.5.6 5 5.8 10.1 11.8 10.1 23.7 0 11.9-5.1 17.9-10.1 23.7-.2.2-.3.4-.5.6V442c.2.2.3.4.5.6 4.7 5.5 9.5 11.1 10.1 21.8 2.2.5 3.9 2.5 3.9 4.9 0 2.8-2.3 5.1-5.1 5.1s-5.1-2.3-5.1-5.1c0-2.5 1.9-4.6 4.3-5-.5-9.1-4.3-14.2-8.6-19.3v23.6c0 16.6 13.5 30.1 30.1 30.1H119c-4.4-3.8-8.9-7.2-16.2-8.3-.5 2.3-2.5 4-5 4-2.8 0-5.1-2.3-5.1-5.1s2.3-5.1 5.1-5.1c2.5 0 4.6 1.8 5 4.2 8.7 1.2 13.7 5.5 18.7 9.8.2.2.4.3.6.5h43.5c.2-.2.4-.3.6-.5 5.8-5 11.8-10.1 23.7-10.1 11.9 0 17.9 5.1 23.7 10.1.2.2.4.3.6.5h43.5c.2-.2.4-.3.6-.5 5.8-5 11.8-10.1 23.7-10.1 11.9 0 17.9 5.1 23.7 10.1.2.2.4.3.6.5h43.5c.2-.2.4-.3.6-.5 5.8-5 11.8-10.1 23.7-10.1 11.9 0 17.9 5.1 23.7 10.1.2.2.4.3.6.5h43.5c.2-.2.4-.3.6-.5 5.5-4.7 11.1-9.5 21.8-10.1.5-2.2 2.5-3.9 4.9-3.9 2.8 0 5.1 2.3 5.1 5.1s-2.3 5.1-5.1 5.1c-2.5 0-4.6-1.9-5-4.3-9.1.5-14.2 4.3-19.2 8.6h23.6c16.6 0 30.1-13.5 30.1-30.1v-23.5zm2-44.2v38.6c3.8-4.8 6.8-10.1 6.8-19.3 0-9.1-3.1-14.4-6.8-19.3z"/></svg>