<svg id="Layer_1" xmlns="http://www.w3.org/2000/svg" viewBox="0 0 595.3 595.3"><style>.st0{fill:#010101}</style><path class="st0" d="M180.9 104.5c-.5.4-1 .8-1.6 1.2-.5.4-1 .7-1.5 1.1-.5.4-1 .8-1.4 1.1-.9.8-1.6 1.5-1.9 2.3-.4.8-.4 1.7 0 2.6l.4 1s1.7 1.8 3.2 3.6c.4.5.7.9 1 1.3.3.4.6.9.8 1.2.5.7.8 1.2.8 1.2l-.5.7s1.1-.1 2.2-.1h2.8l-.7-.7 5.5-8.1.1-.8c.6-3.4-2.7-4.6-5.7-6.8.4 0 .8.1 1.1.1v.1h1c10.8-.6 14.3-6 18-11.7 2.4-3.7 4.8-7.4 9.4-10.5 4.7-3.1 11.9-4.5 16.7 1.7 1.2 1.5 1.7 3.5 1.4 5.4-.3 2.1-1.5 4-3.2 5.2-.1.1-.2.1-.3.2-1.5.4-3.1.6-4.8.6-1.2-.4-2.3-1.1-3-2.2-.7-1-1-2.2-.8-3.3.2-1.2.8-2.2 1.8-2.9.7-.5 1.6-.7 2.5-.6.9.1 1.6.6 2.2 1.4.4.5.5 1.2.4 1.8-.1.6-.5 1.2-1 1.6l1.4 2c1.1-.7 1.8-1.9 2-3.1.2-1.3-.1-2.6-.8-3.6-.9-1.3-2.2-2.1-3.7-2.3-1.5-.3-3 .1-4.3 1-1.5 1.1-2.5 2.7-2.8 4.5-.3 1.8.1 3.6 1.2 5.1 1.1 1.6 2.7 2.6 4.4 3.1v.1h.3c2 .5 4.2.3 6.1-.8 5.1-1.3 8.8-4.1 12.3-6.6 1.9-1.4 3.7-2.8 5.7-3.8-.7 2.2-1 4-1 5.1 0 2.7 1 5.1 2.7 6.9 1.8 1.8 4.3 2.8 7 2.8 4.9 0 8.3-3.8 8.9-7.4.5-3.6-.5-6.8-3-9-2.6-2.3-6.4-3.2-10.3-2.5 2-4 4.9-8 8.5-9.6 2.7-1.2 6.5-.9 10.4.8-2.7 5.4-4 11.3-3.6 15.1.5 5.2 4.5 9.1 9.2 9.1 2.9 0 5.8-1.3 7.6-3.5 1.7-1.9 2.4-4.3 2-6.9-.8-5.5-5.4-11.4-11.9-15 .6-1.1 1.4-2.2 2.1-3.1 0 0 .1-.1.1-.2.5-.6.9-1.1 1.5-1.6.7-.7 1.7-1.5 2.8-2.3 1.2-.8 2.6-1.4 3.9-1.7 2.5-.6 5.1.2 8 2.4.8.6 1.7 1.4 2.4 2.2-4.4 5.2-7.5 12.1-7.8 16.4v.1c0 .4 0 .8.1 1.2.2 1.8 1 3.6 2.5 5.1.5.5 1.1 1 1.7 1.4 0 0 .1 0 .1.1.2.1.4.3.6.4 1.3.8 2.9 1.2 4.5 1.2s3.1-.4 4.5-1.2c.2-.1.4-.2.6-.4l.1-.1c.6-.4 1.2-.9 1.7-1.4 1.4-1.5 2.2-3.2 2.5-5.1.1-.4.1-.8.1-1.3h-.1v-.1c-.2-4.3-3.4-11.2-7.8-16.4.8-.8 1.6-1.5 2.4-2.2 2.8-2.1 5.5-2.9 8-2.4 1.3.3 2.6.9 3.7 1.6 1.4 1.1 2.6 2.1 3.5 3 1.2 1.3 2.2 2.8 3.2 4.4-6.5 3.6-11.1 9.5-11.9 15-.4 2.6.3 4.9 2 6.9 1.9 2.1 4.8 3.5 7.6 3.5 4.7 0 8.7-3.9 9.2-9.1.4-3.8-.9-9.7-3.6-15.1 3.9-1.7 7.7-2 10.4-.8 3.5 1.6 6.5 5.6 8.5 9.6-3.9-.7-7.7.2-10.3 2.5-2.5 2.2-3.5 5.4-3 9 .5 3.6 4 7.4 8.9 7.4 2.7 0 5.2-1 7-2.8 1.8-1.8 2.7-4.2 2.7-6.9 0-1.1-.4-3-1-5.1 2 1 3.8 2.4 5.7 3.8 4.2 3.1 8.9 6.6 16 7.3 3.3 1.1 7.1-.1 9.3-3.1 1.1-1.5 1.5-3.3 1.2-5.1-.3-1.8-1.3-3.4-2.8-4.5-1.3-.9-2.8-1.2-4.3-1-1.5.3-2.8 1.1-3.7 2.3-1.5 2.2-1 5.2 1.1 6.8l1.4-2c-1.1-.8-1.3-2.3-.6-3.4.5-.7 1.3-1.2 2.2-1.4.9-.1 1.8.1 2.5.6 1 .7 1.6 1.7 1.8 2.9.2 1.2-.1 2.4-.8 3.3-1.1 1.6-2.8 2.4-4.6 2.5v-.3c-.7 0-1.5 0-2.2-.1-.5-.2-1-.4-1.4-.7-1.7-1.2-2.9-3.1-3.2-5.2-.3-2 .2-3.9 1.4-5.4 4.8-6.2 12-4.8 16.7-1.7 4.6 3 7 6.8 9.4 10.5 3.1 4.7 6 9.2 12.9 11-3 2.6-7.1 3.9-6.4 7.3l.2 1.1 5.5 8-.7.7h5.7l-.7-.7 5.5-8.1.1-.8c.6-3.4-2.8-4.6-5.7-6.8.5 0 .9.1 1.4.1h1v-.1c4.8-.2 8.7-2.1 11.2-5.3 1.6-2.1 2.2-4.7 1.9-7.3-.4-2.7-1.9-5.2-4.2-6.8-1.8-1.3-4-1.8-6.2-1.4-2.2.4-4.1 1.6-5.4 3.4-1.1 1.5-1.5 3.3-1.2 5.1.3 1.8 1.3 3.4 2.8 4.5 2.6 1.8 6.2 1.2 8-1.4.8-1.1 1-2.3.8-3.6-.2-1.3-.9-2.4-2-3.1l-1.4 2c.5.4.9.9 1 1.6.1.6 0 1.3-.4 1.8-1.1 1.5-3.1 1.8-4.6.8-1-.7-1.6-1.7-1.8-2.9-.2-1.2.1-2.4.8-3.3.9-1.3 2.3-2.1 3.8-2.4 1.5-.3 3.1.1 4.4 1 1.7 1.2 2.9 3.1 3.2 5.2.3 2-.2 3.9-1.4 5.4-2.8 3.7-7.1 4.3-9.8 4.4-9.9-.4-12.8-5-16.5-10.7-2.4-3.7-5.1-7.9-10.1-11.2-6-4-14.5-4.8-19.9 2.2-1.6 2.1-2.2 4.7-1.8 7.3.2 1.6.9 3.2 1.9 4.5-3.9-1.3-6.9-3.6-9.9-5.8-2.7-2-5.3-3.9-8.3-5.1-2.1-5-5.6-10.5-10.5-12.7-3.4-1.6-7.9-1.2-12.6.8-1-1.7-2.2-3.4-3.5-4.9l-.8-.8c-.9-.9-1.9-1.8-2.9-2.5-4-3.1-9.7-6.7-15-9.9.4-.2.7-.4 1-.6 1.1.6 2.3 1.1 3.4 1.7 1.9 1 3.7 1.9 5.2 2.7.2.1.3.2.5.3 0 0 .1.1.2.1.9.4 1.9.7 2.9.7h.7c1.8-.2 3.5-1.1 4.7-2.5 1.2-1.4 1.7-3.3 1.5-5.1-.4-3.8-3.8-6.6-7.7-6.2-.7.1-1.4.2-2 .5-1 .6-4.8 2.6-9.4 5.2-.2-.1-.5-.3-.7-.4 3.5-2.1 6.5-4.5 7.9-6.6l-1-.7 1 .6c.6-1.1 1.1-2.1 1.3-3.4.7-3.1.2-6.4-1.6-9.1-1.7-2.7-4.4-4.6-7.5-5.3-6.5-1.5-13 2.6-14.4 9.1-.7 2.9-.1 6.1 1.5 8.8l1-.6-1 .6c1.4 2.3 4.3 4.5 7.8 6.6-.3.2-.6.3-.9.5-5.2-3-9.3-5.1-9.7-5.3-.6-.3-1.3-.5-2-.5-3.8-.4-7.2 2.4-7.7 6.2-.4 3.8 2.4 7.2 6.2 7.6h.7c.9 0 1.9-.2 2.7-.6.4-.2 4.8-2 9.7-4.6.3.2.5.3.8.5-5.4 3.2-11.1 6.8-15.1 9.9-1 .7-1.9 1.5-2.8 2.4-1 .9-1.7 1.7-2.1 2.4-.8 1-1.5 2.1-2.2 3.3-4.7-2.1-9.2-2.4-12.6-.8-4.9 2.2-8.4 7.7-10.5 12.7-3 1.2-5.6 3.1-8.3 5.1-2.2 1.6-4.4 3.2-6.9 4.5.5-1 .9-2.1 1.1-3.3.4-2.6-.3-5.2-1.8-7.3-5.4-7-13.9-6.2-19.9-2.2-5 3.3-7.7 7.5-10.1 11.2-3.7 5.7-6.7 10.3-16.7 10.7-2.7-.1-6.9-.8-9.7-4.4-1.2-1.5-1.7-3.5-1.4-5.4.3-2.1 1.5-4 3.2-5.2 1.3-.9 2.8-1.3 4.4-1 1.5.3 2.9 1.1 3.8 2.4.7 1 1 2.1.8 3.3-.2 1.2-.8 2.2-1.8 2.9-.7.5-1.6.7-2.5.6-.9-.1-1.6-.6-2.2-1.3-.4-.5-.5-1.2-.4-1.8.1-.6.5-1.2 1-1.6l-1.4-2c-1.1.8-1.8 1.9-2 3.1-.2 1.3.1 2.6.8 3.6.9 1.3 2.2 2.1 3.7 2.3 1.5.3 3-.1 4.3-1 1.5-1.1 2.5-2.7 2.8-4.5.3-1.8-.1-3.6-1.2-5.1-1.3-1.8-3.2-3-5.4-3.4-2.2-.4-4.4.1-6.2 1.4-2.3 1.6-3.8 4.1-4.2 6.8-.4 2.6.3 5.2 1.8 7.3 1.7 1.9 3.9 3.4 6.5 4.2zm161.6-18.2c1 2.6 1.6 5 1.6 6.4 0 2-.7 3.8-2 5.1-1.3 1.3-3.2 2.1-5.3 2.1-3.9 0-6.1-3.2-6.4-5.3-.4-2.8.3-5.2 2.2-6.8 1.6-1.4 3.8-2.1 6.1-2.1 1 0 2 .1 3.1.4.1 0 .4.1.7.2zm-19 3.2c-.4 4-3.3 6.9-6.7 6.9-2.2 0-4.4-1-5.8-2.6-.8-1-1.8-2.6-1.4-4.9.7-4.7 4.9-10 10.7-13.2 2.3 4.9 3.5 10.4 3.2 13.8zm-13.2-41.3c.4-.2.8-.3 1.3-.3 2.5-.2 4.7 1.5 5 4 .1 1.2-.2 2.4-1 3.3-.8.9-1.8 1.5-3 1.7-.8.1-1.6-.1-2.1-.3-.3-.1-.5-.3-.8-.4-.1-.1-.2-.1-.2-.2-1.4-.8-3.1-1.6-4.9-2.5-.6-.3-1.3-.6-1.9-1 2.9-1.8 5.6-3.3 7.6-4.3zM283 56.3c-.8.4-1.7.6-2.6.5-2.5-.3-4.3-2.5-4-5 .3-2.5 2.5-4.3 5-4 .5.1.9.2 1.3.3.7.4 3.9 2.1 8.1 4.5-3 1.6-5.9 2.9-7.8 3.7zm20.5 29.3v.9c-.3 2.1-1.7 4-3.6 5.1-1 .6-2.2.9-3.3.9-1.1 0-2.3-.3-3.3-.9-1.9-1.1-3.3-3-3.6-5.1 0-.3-.1-.6 0-.9.2-3.7 3-9.9 7-14.7 3.8 4.8 6.6 10.9 6.8 14.7zm-15-42.7c-1.3-2.2-1.8-4.7-1.2-7 1.2-5.2 6.3-8.4 11.5-7.2 2.5.6 4.6 2.1 6 4.3 1.4 2.2 1.8 4.8 1.2 7.3-.2 1-.6 1.8-1 2.7-1.3 2-4.6 4.3-8.3 6.5-3.6-2.2-6.8-4.4-8.2-6.6zm9 9.7c-.3.2-.6.3-.9.5-.2-.1-.5-.3-.7-.4.3-.2.6-.3.9-.5.2.1.4.2.7.4zm-.9 3.3c3.3 1.9 6.7 4 9.8 6.1-2.4.2-4.8 1.2-7.2 3-.9.7-1.8 1.5-2.6 2.3-.8-.8-1.7-1.6-2.6-2.3-2.4-1.8-4.9-2.8-7.2-3 3-2 6.4-4.1 9.8-6.1zm-23.7 19.8c5.7 3.2 10 8.5 10.7 13.2.3 2.3-.6 4-1.4 4.9-1.4 1.6-3.6 2.6-5.8 2.6-3.5 0-6.4-3-6.7-6.9-.4-3.4.8-8.9 3.2-13.8zm-22.3 10.6c.3-.1.5-.2.8-.2 3.5-.9 7-.3 9.2 1.7 1.9 1.7 2.6 4 2.2 6.8-.3 2.2-2.6 5.3-6.4 5.3-2.1 0-4-.7-5.3-2.1-1.3-1.3-2-3.1-2-5.1-.1-1.4.5-3.8 1.5-6.4zm158.9 403.6h-1c-.5 0-1 .1-1.5.1 2.9-2.3 6.5-3.6 5.9-6.9l-.2-1.1-5.5-8 .7-.7h-5.7l.7.7-5.5 8.1-.1.8c-.7 3.8 3.5 4.8 6.6 7.5-7.1 1.7-10.1 6.3-13.2 11.1-2.4 3.7-4.8 7.4-9.4 10.5-4.7 3.1-11.9 4.5-16.7-1.7-1.2-1.5-1.7-3.5-1.4-5.4.3-2.1 1.5-4 3.2-5.2.4-.3.9-.6 1.4-.7.7-.1 1.4-.1 2.2-.1v-.3c1.8.1 3.5.9 4.6 2.5.7 1 1 2.2.8 3.3-.2 1.2-.8 2.2-1.8 2.9-.7.5-1.6.7-2.5.6-.9-.1-1.6-.6-2.2-1.4-.8-1.1-.5-2.6.6-3.4l-1.4-2c-2.2 1.5-2.7 4.6-1.1 6.8.9 1.3 2.2 2.1 3.7 2.3 1.5.3 3-.1 4.3-1 1.5-1.1 2.5-2.7 2.8-4.5.3-1.8-.1-3.6-1.2-5.1-2.1-3-5.9-4.2-9.3-3.1-7.1.7-11.8 4.2-16 7.3-1.9 1.4-3.7 2.8-5.7 3.8.7-2.2 1-4 1-5.1 0-2.7-1-5.1-2.7-6.9-1.8-1.8-4.3-2.8-7-2.8-4.9 0-8.3 3.8-8.9 7.4-.5 3.6.5 6.8 3 9 2.6 2.3 6.4 3.2 10.3 2.5-2 4-4.9 8-8.5 9.6-2.7 1.2-6.5.9-10.4-.8 2.7-5.4 4-11.3 3.6-15.1-.5-5.2-4.5-9.1-9.2-9.1-2.9 0-5.8 1.3-7.6 3.5-1.7 1.9-2.4 4.3-2 6.9.8 5.5 5.4 11.4 11.9 15-.9 1.6-2 3.1-3.2 4.4-.9.9-2.1 1.9-3.5 3-1.2.8-2.4 1.3-3.7 1.6-2.5.6-5.1-.2-8-2.4-.8-.6-1.7-1.4-2.4-2.2 4.4-5.2 7.5-12.1 7.8-16.4v-.1h.1c0-.4 0-.8-.1-1.3-.2-1.8-1.1-3.6-2.5-5.1-.5-.5-1.1-1-1.7-1.4l-.1-.1c-.2-.1-.4-.3-.6-.4-1.3-.8-2.9-1.2-4.5-1.2s-3.1.4-4.5 1.2c-.2.1-.4.3-.6.4 0 0-.1 0-.1.1-.6.4-1.2.9-1.7 1.4-1.4 1.5-2.2 3.3-2.5 5.1-.1.4-.1.8-.1 1.2v.1c.2 4.3 3.4 11.2 7.8 16.4-.8.8-1.6 1.5-2.4 2.2-2.8 2.1-5.5 2.9-8 2.4-1.4-.3-2.7-.9-3.9-1.7-1.1-.8-2-1.6-2.8-2.3-.5-.5-1-1.1-1.5-1.6 0-.1-.1-.1-.1-.2-.8-1-1.5-2-2.1-3.1 6.5-3.6 11.1-9.5 11.9-15 .4-2.6-.3-4.9-2-6.9-1.9-2.1-4.8-3.5-7.6-3.5-4.7 0-8.7 3.9-9.2 9.1-.4 3.8.9 9.7 3.6 15.1-3.9 1.7-7.7 2-10.4.8-3.5-1.6-6.5-5.6-8.5-9.6 3.9.7 7.7-.2 10.3-2.5 2.5-2.2 3.5-5.4 3-9-.5-3.6-4-7.4-8.9-7.4-2.7 0-5.2 1-7 2.8-1.8 1.8-2.7 4.2-2.7 6.9 0 1.1.4 3 1 5.1-2-1-3.8-2.4-5.7-3.8-3.4-2.5-7.2-5.3-12.3-6.6-1.9-1.1-4.1-1.3-6.1-.8h-.3v.1c-1.7.5-3.3 1.6-4.4 3.1-1.1 1.5-1.5 3.3-1.2 5.1.3 1.8 1.3 3.4 2.8 4.5 1.3.9 2.8 1.2 4.3 1 1.5-.3 2.8-1.1 3.7-2.3.8-1.1 1-2.3.8-3.6-.2-1.3-.9-2.4-2-3.1l-1.4 2c.5.4.9.9 1 1.6.1.6 0 1.3-.4 1.8-.5.7-1.3 1.2-2.2 1.4-.9.2-1.8-.1-2.5-.6-1-.7-1.6-1.7-1.8-2.9-.2-1.2.1-2.4.8-3.3.8-1.1 1.9-1.8 3-2.2 1.7 0 3.3.2 4.8.6.1.1.2.1.3.2 1.7 1.2 2.9 3.1 3.2 5.2.3 2-.2 3.9-1.4 5.4-4.8 6.2-12 4.8-16.7 1.7-4.6-3-7-6.8-9.4-10.5-3.7-5.7-7.2-11.1-18-11.7h-1v.1c-.4 0-.8.1-1.3.1 2.9-2.3 6.5-3.6 5.8-6.8l-.2-1.1-5.5-8 .7-.7h-2.8c-1.1-.1-2.2-.1-2.2-.1l.5.7s-.3.5-.8 1.2c-.2.4-.5.8-.8 1.3-.3.4-.7.9-1 1.3-1.4 1.8-3.2 3.6-3.2 3.6l-.3.8c-.9 2.1.1 3.5 1.9 5 .4.4.9.7 1.4 1.1.5.3 1 .7 1.6 1 .6.4 1.2.8 1.7 1.3-2.7.9-5 2.4-6.7 4.5-1.6 2.1-2.2 4.7-1.8 7.3.4 2.7 1.9 5.2 4.2 6.8 1.8 1.3 4 1.8 6.2 1.4 2.2-.4 4.1-1.6 5.4-3.4 1.1-1.5 1.5-3.3 1.2-5.1-.3-1.8-1.3-3.4-2.8-4.5-1.3-.9-2.8-1.2-4.3-1-1.5.3-2.8 1.1-3.7 2.3-.8 1.1-1 2.3-.8 3.6.2 1.3.9 2.4 2 3.1l1.4-2c-.5-.4-.9-.9-1-1.6-.1-.6 0-1.3.4-1.8.5-.7 1.3-1.2 2.2-1.3.9-.1 1.8.1 2.5.6 1 .7 1.6 1.7 1.8 2.9.2 1.2-.1 2.4-.8 3.3-.9 1.3-2.3 2.1-3.8 2.4-1.5.3-3.1-.1-4.4-1-1.7-1.2-2.9-3.1-3.2-5.2-.3-2 .2-3.9 1.4-5.4 2.8-3.6 7-4.3 9.7-4.4 10 .4 13 4.9 16.7 10.7 2.4 3.7 5.1 7.9 10.1 11.2 6 4 14.5 4.8 19.9-2.2 1.6-2.1 2.2-4.6 1.8-7.3-.2-1.1-.5-2.2-1.1-3.3 2.5 1.3 4.8 2.9 6.9 4.5 2.7 2 5.3 3.9 8.3 5.1 2.1 5 5.6 10.5 10.5 12.7 3.4 1.6 7.9 1.2 12.6-.8.7 1.1 1.4 2.3 2.2 3.3.4.7 1.2 1.5 2.1 2.4.9.9 1.8 1.7 2.8 2.4 4 3.1 9.7 6.7 15.1 9.9-.3.2-.5.3-.8.5-5-2.6-9.4-4.5-9.7-4.6-.9-.4-1.8-.6-2.7-.6h-.7c-3.8.4-6.6 3.8-6.2 7.6.4 3.8 3.8 6.6 7.7 6.2.7-.1 1.4-.3 2-.5.4-.2 4.5-2.4 9.7-5.3.3.2.6.3.9.5-3.5 2-6.4 4.2-7.8 6.6l1 .6-1-.6c-1.6 2.8-2.2 5.9-1.5 8.8 1.5 6.5 8 10.6 14.4 9.1 3.1-.7 5.8-2.6 7.5-5.3 1.7-2.7 2.3-6 1.6-9.1-.3-1.3-.7-2.3-1.3-3.4l-1 .6 1-.7c-1.4-2.1-4.4-4.4-7.9-6.6.2-.1.5-.3.7-.4 4.7 2.7 8.4 4.6 9.4 5.2.6.3 1.3.4 2 .5 3.8.4 7.2-2.4 7.7-6.2.2-1.8-.3-3.7-1.5-5.1-1.2-1.4-2.8-2.4-4.7-2.5h-.7c-1 0-1.9.2-2.9.7 0 0-.1.1-.2.1-.2.1-.3.2-.5.3-1.5.8-3.3 1.7-5.2 2.7-1.1.6-2.3 1.1-3.4 1.7-.3-.2-.7-.4-1-.6 5.3-3.2 10.9-6.7 15-9.9 1-.7 2-1.5 2.9-2.5l.8-.8c1.3-1.5 2.5-3.1 3.5-4.9 4.7 2.1 9.2 2.4 12.6.8 4.9-2.2 8.4-7.7 10.5-12.7 3-1.2 5.6-3.1 8.3-5.1 3-2.2 6-4.5 9.9-5.8-1 1.3-1.6 2.9-1.9 4.5-.4 2.6.3 5.2 1.8 7.3 5.4 7 13.9 6.2 19.9 2.2 5-3.3 7.7-7.5 10.1-11.2 3.7-5.7 6.6-10.2 16.5-10.7 2.7.1 7 .8 9.8 4.4 1.2 1.5 1.7 3.5 1.4 5.4-.3 2.1-1.5 4-3.2 5.2-1.3.9-2.8 1.3-4.4 1-1.5-.3-2.9-1.1-3.8-2.4-.7-1-1-2.1-.8-3.3.2-1.2.8-2.2 1.8-2.9 1.5-1.1 3.6-.7 4.6.8.4.5.5 1.2.4 1.8-.1.6-.5 1.2-1 1.6l1.4 2c1.1-.8 1.8-1.9 2-3.1.2-1.3-.1-2.6-.8-3.6-1.8-2.6-5.4-3.2-8-1.4-1.5 1.1-2.5 2.7-2.8 4.5-.3 1.8.1 3.6 1.2 5.1 1.3 1.8 3.2 3 5.4 3.4 2.2.4 4.4-.1 6.2-1.4 2.3-1.6 3.8-4.1 4.2-6.8.4-2.6-.3-5.2-1.9-7.3-2.3-3.3-6.3-5.1-11.1-5.3zM250.6 509c-1-2.6-1.6-5-1.6-6.4 0-2 .7-3.8 2-5.1 1.3-1.3 3.2-2.1 5.3-2.1 3.9 0 6.1 3.2 6.4 5.3.4 2.8-.3 5.2-2.2 6.8-2.2 2-5.7 2.6-9.2 1.7-.2 0-.4-.1-.7-.2zm19-3.2c.4-4 3.3-6.9 6.7-6.9 2.2 0 4.4 1 5.8 2.6.8 1 1.8 2.6 1.4 4.9-.7 4.7-4.9 10-10.7 13.2-2.3-5-3.5-10.4-3.2-13.8zm13.1 41.3c-.4.2-.8.3-1.3.3-2.5.2-4.7-1.5-5-4-.3-2.5 1.5-4.7 4-5 .9-.1 1.8.1 2.6.5 1.9.8 4.8 2.1 7.8 3.7-4.2 2.5-7.4 4.2-8.1 4.5zm21.8-5.2c1.8-.9 3.4-1.7 4.9-2.5.1-.1.2-.1.2-.2.3-.2.6-.3.8-.4.6-.3 1.3-.4 2.1-.3 1.2.1 2.3.7 3 1.7.8.9 1.1 2.1 1 3.3-.3 2.5-2.5 4.3-5 4-.5-.1-.9-.2-1.3-.3-2-1.1-4.7-2.6-7.7-4.3.7-.4 1.4-.7 2-1zm-14.9-32.2v-.9c.3-2.1 1.8-4 3.6-5.1 1-.6 2.2-.9 3.3-.9 1.1 0 2.3.3 3.3.9 1.9 1.1 3.3 3 3.6 5.1 0 .3.1.6 0 .9-.2 3.7-3 9.9-7 14.7-3.8-4.8-6.6-11-6.8-14.7zm15.4 42.7c.5.8.8 1.7 1 2.7.6 2.5.1 5.1-1.2 7.3-1.4 2.2-3.5 3.7-6 4.3-5.2 1.2-10.3-2.1-11.5-7.2-.5-2.3-.1-4.8 1.2-7s4.5-4.4 8.2-6.5c3.8 2.1 7.1 4.4 8.3 6.4zm-9.1-9.8c.2-.1.5-.3.7-.4.3.2.6.3.9.5-.2.1-.5.2-.7.4-.3-.2-.6-.3-.9-.5zm.7-3.2c-3.4-2-6.8-4.1-9.9-6.1 2.3-.2 4.8-1.2 7.2-3 .9-.7 1.8-1.5 2.6-2.3.8.8 1.7 1.6 2.6 2.3 2.4 1.8 4.9 2.8 7.2 3-3 2-6.5 4.1-9.7 6.1zm23.5-19.8c-5.7-3.2-10-8.5-10.7-13.2-.3-2.3.6-4 1.4-4.9 1.4-1.6 3.6-2.6 5.8-2.6 3.5 0 6.4 3 6.7 6.9.5 3.4-.7 8.8-3.2 13.8zm22.4-10.6c-.3.1-.5.2-.8.2-1 .3-2.1.4-3.1.4-2.4 0-4.6-.7-6.1-2.1-1.9-1.7-2.6-4-2.2-6.8.3-2.2 2.6-5.3 6.4-5.3 2.1 0 4 .7 5.3 2.1 1.3 1.3 2 3.1 2 5.1.1 1.4-.5 3.8-1.5 6.4zm38.7-26l.1-.8 5.5-8.1-.7-.7h5.7l-.7.7 5.5 8 .2 1.1c.8 4-5 5.1-7.8 8.7-2.9-3.8-8.6-4.5-7.8-8.9zm-15.9 0l.1-.8 5.5-8.1-.7-.7h5.7l-.7.7 5.5 8 .2 1.1c.8 4-5 5.1-7.8 8.7-2.9-3.8-8.6-4.5-7.8-8.9zm-15.9 0l.1-.8 5.5-8.1-.7-.7h5.7l-.7.7 5.5 8 .2 1.1c.8 4-5 5.1-7.8 8.7-2.9-3.8-8.6-4.5-7.8-8.9zm-15.9 0l.1-.8 5.5-8.1-.7-.7h5.7l-.7.7 5.5 8 .2 1.1c.8 4-5 5.1-7.8 8.7-2.9-3.8-8.6-4.5-7.8-8.9zm-15.9 0l.1-.8 5.5-8.1-.7-.7h5.7l-.7.7 5.5 8 .2 1.1c.8 4-5 5.1-7.8 8.7-2.9-3.8-8.6-4.5-7.8-8.9zm-15.9 0l.1-.8 5.5-8.1-.7-.7h5.7l-.7.7 5.5 8 .2 1.1c.8 4-5 5.1-7.8 8.7-2.9-3.8-8.6-4.5-7.8-8.9zm-15.9 0l.1-.8 5.5-8.1-.7-.7h5.7l-.7.7 5.5 8 .2 1.1c.8 4-5 5.1-7.8 8.7-2.9-3.8-8.6-4.5-7.8-8.9zm-15.9 0l.1-.8 5.5-8.1-.7-.7h5.7l-.5.6 5.5 8 .2 1.1c.8 4-5 5.1-7.8 8.7-3.1-3.7-8.8-4.4-8-8.8zm-15.9 0l.1-.8 5.5-8.1-.7-.7h5.7l-.7.7 5.5 8 .2 1.1c.8 4-5 5.1-7.8 8.7-2.9-3.8-8.6-4.5-7.8-8.9zm-15.9 0l.1-.8 5.5-8.1-.7-.7h5.7l-.7.7 5.5 8 .2 1.1c.8 4-5 5.1-7.8 8.7-2.9-3.8-8.6-4.5-7.8-8.9zm-15.9 0l.1-.8 5.5-8.1-.7-.7h5.7l-.7.7 5.5 8 .2 1.1c.8 4-5 5.1-7.8 8.7-2.8-3.8-8.6-4.5-7.8-8.9zm-15.9 0l.1-.8 5.5-8.1-.7-.7h5.7l-.7.7 5.5 8 .2 1.1c.8 4-5 5.1-7.8 8.7-2.8-3.8-8.6-4.5-7.8-8.9zm-15.8 0l.1-.8 5.5-8.1-.7-.7h5.7l-.7.7 5.5 8 .2 1.1c.8 4-5 5.1-7.8 8.7-2.9-3.8-8.6-4.5-7.8-8.9zm-19.9 3c-1.1.4-2.3.5-3.6.8-1.3.2-2.6.6-3.7 1-.5-1.3-1.1-2.4-1.8-3.5s-1.3-2.2-1.8-3.2c-.3-.5-.5-1-.6-1.5-.1-.5-.2-1-.2-1.4 0-.9.4-1.7 1.2-2.5l.6-.6s.6-.2 1.4-.5c.8-.3 2-.9 3-1.4 1.1-.5 2.1-1.1 2.8-1.6.7-.5 1.2-.8 1.2-.8l-.1-.8s1 .5 1.9.9c.5.3 1 .4 1.4.6.4.1.6.2.6.2l-.7.5s.1.6.2 1.4c.1.8.3 2 .6 3.1.6 2.2 1.5 4.5 1.5 4.5v1.1c-.2 2.1-1.7 3-3.9 3.7zm-15.8-8.4c-1.1-.2-2.3-.5-3.6-.7-1.3-.3-2.5-.6-3.8-.6.1-2.6-.5-5.4-.6-7.6 0-2.3.4-4 2.5-4.8l.8-.3s2.5.2 4.8 0c2.4-.2 4.6-.6 4.6-.6l.2-.8s.6.9 1.4 1.7c.4.4.7.8 1 1.1l.5.5-.8.1s-.6 2.1-1 4.5c-.2 1.2-.3 2.3-.4 3.2-.1.9-.1 1.5-.1 1.5l-.5 1c-.9 1.8-2.7 2.1-5 1.8zm-8.1-13c-.9-.1-1.8-.5-2.8-1.1-2-1.2-3.9-3.1-6.3-4.3.6-1.2 1.1-2.5 1.4-3.7.2-.6.4-1.2.5-1.8.2-.6.4-1.2.6-1.7.9-2.1 2-3.5 4.2-3.3l.8.1s2.2 1.2 4.4 2c.5.2 1.1.4 1.6.6.5.2 1 .3 1.5.4.8.2 1.4.4 1.4.4l.5-.6.2.6c.1.4.2.9.4 1.4.4 1 .7 2 .7 2l-.8-.2s-1.6 1.7-2.8 3.6c-.6 1-1.3 2-1.7 2.8-.2.4-.4.7-.5 1l-.2.4-.8.7c-.6.6-1.4.8-2.3.7zm-9-21.4c-.7-.9-1.4-1.8-2.3-2.5 3.8-3 4.5-8.7 8.9-7.9l.8.1 8.1 5.5.7-.7v5.7l-.7-.7s-.5.3-1.3.9c-.7.5-1.8 1.2-2.7 1.8-1.9 1.2-3.9 2.8-3.9 2.8l-1.1.3c-2 .6-3.3-.6-4.7-2.5-.3-.5-.7-1-1-1.5-.1-.4-.4-.8-.8-1.3zm-2.3-18.4c3.8-3 4.5-8.7 8.9-7.9l.8.1 8.1 5.5.7-.7v5.7l-.7-.7-8 5.5-1.1.2c-4 .9-5.1-4.9-8.7-7.7zm0-15.9c3.8-3 4.5-8.7 8.9-7.9l.8.1 8.1 5.5.7-.7v5.7l-.7-.7-8 5.5-1.1.2c-4 .9-5.1-4.9-8.7-7.7zm0-15.9c3.8-3 4.5-8.7 8.9-7.9l.8.1 8.1 5.5.7-.7v5.7l-.7-.7-8 5.5-1.1.2c-4 .9-5.1-4.9-8.7-7.7zm0-15.9c3.8-3 4.5-8.7 8.9-7.9l.8.1 8.1 5.5.7-.7v5.7l-.7-.7-8 5.5-1.1.2c-4 .9-5.1-4.8-8.7-7.7zm0-15.9c3.8-3 4.5-8.7 8.9-7.9l.8.1 8.1 5.5.7-.7v5.7l-.7-.7-8 5.5-1.1.2c-4 .9-5.1-4.8-8.7-7.7zm0-15.9c3.8-3 4.5-8.7 8.9-7.9l.8.1 8.1 5.5.7-.7v5.7l-.7-.7-8 5.5-1.1.2c-4 .9-5.1-4.8-8.7-7.7zm0-15.9c3.8-3 4.5-8.7 8.9-7.9l.8.1 8.1 5.5.7-.7v5.7l-.7-.7-8 5.5-1.1.2c-4 .9-5.1-4.8-8.7-7.7zm0-15.9c3.8-3 4.5-8.7 8.9-7.9l.8.1 8.1 5.5.7-.7v5.7l-.7-.7-8 5.5-1.1.2c-4 .9-5.1-4.8-8.7-7.7zm0-15.9c3.8-3 4.5-8.7 8.9-7.9l.8.1 8.1 5.5.7-.7v5.7l-.7-.7-8 5.5-1.1.2c-4 .9-5.1-4.8-8.7-7.7zm0-15.9c3.8-3 4.5-8.7 8.9-7.9l.8.1 8.1 5.5.7-.7v5.7l-.7-.7-8 5.5-1.1.2c-4 .9-5.1-4.8-8.7-7.7zm0-15.9c3.8-3 4.5-8.7 8.9-7.9l.8.1 8.1 5.5.7-.7v5.7l-.7-.7-8 5.5-1.1.2c-4 .9-5.1-4.8-8.7-7.7zm0-15.9c3.8-3 4.5-8.7 8.9-7.9l.8.1 8.1 5.5.7-.7v5.7l-.7-.7-8 5.5-1.1.2c-4 1-5.1-4.8-8.7-7.7zm0-15.8c3.8-3 4.5-8.7 8.9-7.9l.8.1 8.1 5.5.7-.7v5.7l-.7-.7-8 5.5-1.1.2c-4 .9-5.1-4.9-8.7-7.7zm0-15.9c3.8-3 4.5-8.7 8.9-7.9l.8.1 8.1 5.5.7-.7v5.7l-.7-.7-8 5.5-1.1.2c-4 .9-5.1-4.9-8.7-7.7zm0-15.9c3.8-3 4.5-8.7 8.9-7.9l.8.1 8.1 5.5.7-.7v5.7l-.7-.7-8 5.5-1.1.2c-4 .9-5.1-4.9-8.7-7.7zm0-15.9c3.8-3 4.5-8.7 8.9-7.9l.8.1 8.1 5.5.7-.7v5.7l-.7-.7-8 5.5-1.1.2c-4 .9-5.1-4.9-8.7-7.7zm0-15.9c3.8-3 4.5-8.7 8.9-7.9l.8.1 8.1 5.5.7-.7v5.7l-.7-.7-8 5.5-1.1.2c-4 .9-5.1-4.9-8.7-7.7zm0-15.9c.9-.8 1.7-1.7 2.4-2.6.3-.5.6-1 .9-1.4.3-.4.6-1 1-1.5 1.3-1.9 2.6-3.1 4.8-2.4l.8.2s2 1.6 3.9 2.8c1 .6 2 1.3 2.8 1.8.8.5 1.3.9 1.3.9l.7-.7v5.7l-.7-.7-8 5.5-1.1.2c-4.1.8-5.2-5-8.8-7.8zm3.6-14.9c-.4-1.2-.8-2.5-1.4-3.6 2.4-1.2 4.3-3.2 6.3-4.4 1-.6 1.8-1.1 2.8-1.1.9-.1 1.8.2 2.6.9l.7.5s.1.1.2.4l.5 1c.5.8 1.1 1.8 1.7 2.8 1.3 2 2.8 3.7 2.8 3.7l.8-.2s-.4 1-.7 2c-.3 1-.5 2.1-.5 2.1l-.5-.6s-.6.1-1.4.4c-.4.1-.9.3-1.4.4-.5.2-1 .4-1.6.6-2.1.8-4.4 2-4.4 2l-1.1.1c-2.1.2-3.2-1.2-4.1-3.3-.2-.5-.4-1.1-.7-1.7-.2-.8-.4-1.4-.6-2zm7.8-13.2c0-1.1.2-2.4.3-3.7.1-1.3.3-2.6.2-3.8 1.3-.1 2.6-.4 3.9-.7 1.3-.3 2.5-.6 3.6-.8 2.3-.3 4.1 0 5 2l.4.8s0 .6.1 1.5.2 2.1.4 3.3c.4 2.4 1.1 4.5 1.1 4.5l.8.1c-.1-.1-2.9 3.2-2.9 3.2l-.2-.8s-2.2-.4-4.6-.6c-2.3-.1-4.7 0-4.7 0l-1.1-.4c-1.9-.5-2.3-2.2-2.3-4.6zm13.1-7.2c-.8-.7-1.1-1.5-1.1-2.4 0-.4.1-.9.2-1.4.1-.5.4-1 .6-1.5.5-1 1.1-2.1 1.8-3.2s1.3-2.2 1.8-3.4c1.2.4 2.6.8 3.8 1 1.3.3 2.5.4 3.6.7 2.2.7 3.7 1.6 3.8 3.8v.9s-.9 2.3-1.5 4.6c-.3 1.1-.5 2.3-.6 3.2-.1.9-.2 1.4-.2 1.4l.7.5-.6.2c-.4.1-.9.3-1.4.6-1 .5-1.9.9-1.9.9l.1-.8s-.5-.4-1.2-.8-1.7-1-2.7-1.6c-1-.5-2.1-1.1-3-1.4-.8-.3-1.4-.5-1.4-.5l-.8-.8zm46.1-6.4l-5.5 8.1.7.7h-5.7l.7-.7-5.5-8-.2-1.1c-.8-4 5-5.1 7.8-8.7 3 3.8 8.7 4.5 7.9 8.9l-.2.8zm.3-.9c-.8-4 5-5.1 7.8-8.7 3 3.8 8.7 4.5 7.9 8.9l-.1.8-5.5 8.1.7.7h-5.7l.7-.7-5.5-8-.3-1.1zm15.9 0c-.8-4 5-5.1 7.8-8.7 3 3.8 8.7 4.5 7.9 8.9l-.1.8-5.5 8.1.7.7h-5.7l.7-.7-5.5-8-.3-1.1zm15.9 0c-.8-4 5-5.1 7.8-8.7 3 3.8 8.7 4.5 7.9 8.9l-.1.8-5.5 8.1.7.7h-5.7l.7-.7-5.5-8-.3-1.1zm15.9 0c-.8-4 5-5.1 7.8-8.7 3 3.8 8.7 4.5 7.9 8.9l-.1.8-5.5 8.1.7.7H259l.7-.7-5.5-8-.2-1.1zm15.9 0c-.8-4 5-5.1 7.8-8.7 3 3.8 8.7 4.5 7.9 8.9l-.1.8-5.5 8.1.7.7H275l.7-.7-5.5-8-.3-1.1zm15.9 0c-.8-4 5-5.1 7.8-8.7 3 3.8 8.7 4.5 7.9 8.9l-.1.8-5.5 8.1.7.7h-5.7l.7-.7-5.5-8-.3-1.1zm15.9 0c-.8-4 5-5.1 7.8-8.7 3 3.8 8.7 4.5 7.9 8.9l-.1.8-5.5 8.1.7.7h-5.7l.7-.7-5.5-8-.3-1.1zm15.9 0c-.8-4 5-5.1 7.8-8.7 3 3.8 8.7 4.5 7.9 8.9l-.1.8-5.5 8.1.7.7h-5.7l.7-.7-5.5-8-.3-1.1zm15.9 0c-.8-4 5-5.1 7.8-8.7 3 3.8 8.7 4.5 7.9 8.9l-.1.8-5.5 8.1.7.7h-5.7l.7-.7-5.5-8-.3-1.1zm15.8 0c-.8-4 5-5.1 7.8-8.7 3 3.8 8.7 4.5 7.9 8.9l-.1.8-5.5 8.1.7.7h-5.7l.7-.7-5.5-8-.3-1.1zm31.5.9l-5.5 8.1.7.7h-5.7l.7-.7-5.5-8-.2-1.1c-.8-4 5-5.1 7.8-8.7 3 3.8 8.7 4.5 7.9 8.9l-.2.8zm.3-.9c-.8-4 5-5.1 7.8-8.7 3 3.8 8.7 4.5 7.9 8.9l-.1.8-5.5 8.1.7.7h-5.7l.7-.7-5.5-8-.3-1.1zm41.5-7.8c1.4 2.3 3.6 4 5 5.8.7.9 1.2 1.7 1.4 2.6.2.9 0 1.8-.6 2.7l-.5.7s-.1.1-.4.2c-.2.1-.5.3-.9.6-.8.5-1.7 1.3-2.6 2-1.8 1.4-3.4 3.2-3.4 3.2l.3.8s-1-.3-2.1-.5c-.5-.1-1.1-.2-1.5-.2-.4-.1-.7-.1-.7-.1l.6-.6s-.2-.5-.5-1.3c-.2-.4-.3-.9-.6-1.4-.2-.5-.5-1-.7-1.5-1-2.1-2.4-4.1-2.4-4.1l-.2-1.1c-.4-2 .9-3.3 2.9-4.4.5-.3 1-.6 1.6-.8.6-.2 1.1-.5 1.7-.7 1.3-.6 2.5-1.2 3.6-1.9zm6 11.1c.5-2 2.1-2.6 4.5-2.9 1.1-.1 2.4 0 3.7 0h2c.6 0 1.3-.1 1.9-.2.2 1.3.6 2.6 1.1 3.8.4 1.3.8 2.4 1.1 3.5.5 2.2.4 4.1-1.5 5.2l-.7.5s-.6.1-1.5.2c-.9.2-2 .4-3.2.7-2.3.6-4.4 1.5-4.4 1.5l-.1.8c.1-.1-3.4-2.6-3.5-2.5l.8-.3s.2-2.2.1-4.6c-.1-2.3-.5-4.7-.5-4.7l.2-1zm15.1 8.2c.4 0 .9 0 1.4.1.5.1 1 .3 1.5.5 1.1.4 2.2.9 3.4 1.5 1.1.6 2.3 1.1 3.6 1.4-.3 1.3-.5 2.6-.6 3.9-.1 1.3-.1 2.5-.4 3.7-.4 2.3-1.2 3.9-3.4 4.1l-.8.1s-2.4-.7-4.7-1c-1.1-.2-2.4-.3-3.2-.3-.9-.1-1.4-.1-1.4-.1l-.4.7-.3-.6c-.2-.4-.4-.9-.7-1.3-.6-.9-1.1-1.8-1.1-1.8l.8.1s.1-.1.2-.3c.1-.2.3-.5.5-.9.4-.8.8-1.8 1.3-2.9.4-1.1.9-2.2 1.1-3.1.2-.9.4-1.4.4-1.4l.7-.9c.5-1 1.2-1.4 2.1-1.5zm10.7 16.6l1.3 1.3c.4.5.8.9 1.2 1.4.8 1 1.7 2 2.7 2.7-1.8 2-2.7 4.7-4 6.3-1.2 1.7-2.5 2.9-4.7 2.5l-.8-.1s-2-1.4-4.1-2.8c-1-.7-2-1.4-2.8-1.8-.8-.4-1.3-.6-1.3-.6l-.6.5s-.1-1.1-.1-2.2c-.2-1.1-.3-2.1-.3-2.1l.7.4s.5-.3 1.1-.9c.3-.3.7-.6 1.2-1 .4-.4.8-.7 1.2-1.1 1.7-1.6 3.2-3.5 3.2-3.5l1-.5c1.9-.9 3.5-.1 5.1 1.5zm5.5 22.3c-3.8 3-4.5 8.7-8.9 7.9l-.8-.1-8.1-5.5-.7.7v-5.7l.7.7 8-5.5 1.1-.2c4-.9 5.1 4.8 8.7 7.7zm0 15.9c-3.8 3-4.5 8.7-8.9 7.9l-.8-.1-8.1-5.5-.7.7v-5.7l.7.7 8-5.5 1.1-.2c4-.9 5.1 4.8 8.7 7.7zm0 15.9c-3.8 3-4.5 8.7-8.9 7.9l-.8-.1-8.1-5.5-.7.7v-5.7l.7.7 8-5.5 1.1-.2c4-.9 5.1 4.8 8.7 7.7zm0 15.9c-3.8 3-4.5 8.7-8.9 7.9l-.8-.1-8.1-5.5-.7.7v-5.7l.7.7 8-5.5 1.1-.2c4-1 5.1 4.8 8.7 7.7zm0 15.9c-3.8 3-4.5 8.7-8.9 7.9l-.8-.1-8.1-5.5-.7.7v-5.7l.7.7 8-5.5 1.1-.2c4-1 5.1 4.8 8.7 7.7zm0 15.8c-3.8 3-4.5 8.7-8.9 7.9l-.8-.1-8.1-5.5-.7.7V239l.7.7 8-5.5 1.1-.2c4-.8 5.1 5 8.7 7.8zm0 15.9c-3.8 3-4.5 8.7-8.9 7.9l-.8-.1-8.2-5.5-.7.7V255l.7.7 8-5.5 1.1-.2c4.1-.9 5.2 4.9 8.8 7.7zm0 15.9c-3.8 3-4.5 8.7-8.9 7.9l-.8-.1-8.1-5.5-.7.7v-5.7l.7.7 8-5.5 1.1-.2c4-.9 5.1 4.9 8.7 7.7zm0 15.9c-3.8 3-4.5 8.7-8.9 7.9l-.8-.1-8.1-5.5-.7.7v-5.7l.7.7 8-5.5 1.1-.2c4-.9 5.1 4.9 8.7 7.7zm0 15.9c-3.8 3-4.5 8.7-8.9 7.9l-.8-.1-8.1-5.5-.7.7v-5.7l.7.7 8-5.5 1.1-.2c4-.9 5.1 4.9 8.7 7.7zm0 15.9c-3.8 3-4.5 8.7-8.9 7.9l-.8-.1-8.1-5.5-.7.7v-5.7l.7.7 8-5.5 1.1-.2c4-.9 5.1 4.9 8.7 7.7zm0 15.9c-3.8 3-4.5 8.7-8.9 7.9l-.8-.1-8.1-5.5-.7.7v-5.7l.7.7 8-5.5 1.1-.2c4-.9 5.1 4.9 8.7 7.7zm0 15.9c-3.8 3-4.5 8.7-8.9 7.9l-.8-.1-8.1-5.5-.7.7v-5.7l.7.7 8-5.5 1.1-.2c4-.9 5.1 4.9 8.7 7.7zm0 15.9c-3.8 3-4.5 8.7-8.9 7.9l-.8-.1-8.1-5.5-.7.7v-5.7l.7.7 8-5.5 1.1-.2c4-.9 5.1 4.8 8.7 7.7zm0 15.9c-3.8 3-4.5 8.7-8.9 7.9l-.8-.1-8.1-5.5-.7.7v-5.7l.7.7 8-5.5 1.1-.2c4-.9 5.1 4.8 8.7 7.7zm0 15.9c-3.8 3-4.5 8.7-8.9 7.9l-.8-.1-8.2-5.6-.7.7V398l.7.7 8-5.5 1.1-.2c4.1-.8 5.2 4.9 8.8 7.8zm0 15.9c-3.8 3-4.5 8.7-8.9 7.9l-.8-.1-8.1-5.5-.7.7V414l.7.7 8-5.5 1.1-.2c4-.9 5.1 4.8 8.7 7.7zm0 15.9c-3.8 3-4.5 8.7-8.9 7.9l-.8-.1-8.1-5.5-.7.7v-5.7l.7.7 8-5.5 1.1-.2c4-.9 5.1 4.8 8.7 7.7zm-4.2 10.6c1.3 1.5 2.3 4.2 4 6.1-1 .8-2 1.9-2.8 2.8l-1.2 1.5c-.4.5-.8.9-1.3 1.3-1.6 1.6-3.2 2.4-5.2 1.4l-.8-.4s-1.6-1.9-3.3-3.6l-1.2-1.2c-.4-.4-.8-.7-1.2-1-.7-.5-1.2-.9-1.2-.9l-.7.4s0-.3.1-.7c.1-.4.2-.9.2-1.5.1-1.1.1-2.2.1-2.2l.6.5s.5-.3 1.3-.6c.8-.4 1.8-1.1 2.8-1.8 2-1.4 4-2.7 4-2.7l1.1-.2c2.2-.1 3.4 1.1 4.7 2.8zm-2.6 21.1c.1 1.3.3 2.6.6 3.8-1.3.3-2.5.9-3.7 1.5-1.2.6-2.3 1.1-3.4 1.5-.5.2-1 .4-1.5.5-.5.1-1 .1-1.4.1-.9-.1-1.7-.5-2.4-1.4l-.5-.7s-.2-.6-.4-1.5c-.2-.8-.7-2-1.1-3.1-.4-1.1-.9-2.2-1.3-2.9-.4-.8-.7-1.3-.7-1.3l-.8.1s.6-.9 1.1-1.8c.3-.4.5-.9.7-1.3l.3-.6.4.7s.6 0 1.4-.1c.8-.1 2.1-.1 3.2-.3 2.3-.4 4.6-1 4.6-1l1.1.1c2.1.2 2.8 1.8 3.3 4.1.3 1 .4 2.3.5 3.6zm-10.3 11.2c-.3 1.1-.7 2.3-1.1 3.5-.4 1.2-.8 2.4-1 3.7-1.3-.2-2.6-.1-4-.2-1.3 0-2.6.1-3.7 0-2.3-.2-4-.8-4.5-3l-.2-.8s.4-2.4.5-4.8c.1-2.4-.1-4.7-.1-4.7l-.8-.3c.1.1 3.5-2.4 3.5-2.5l.1.8s2 .8 4.3 1.5c1.2.3 2.3.6 3.2.7.9.1 1.5.2 1.5.2l1 .6c1.6 1.2 1.8 3.1 1.3 5.3zm-14.3 4.3c.6.8.7 1.7.6 2.6-.2.9-.7 1.7-1.4 2.6-1.4 1.9-3.5 3.6-4.9 5.8-1.1-.7-2.4-1.3-3.6-1.8-.6-.2-1.2-.5-1.8-.7-.6-.3-1.1-.5-1.6-.8-2-1.1-3.3-2.3-2.9-4.5l.1-.8s1.4-2.1 2.4-4.2c.5-1 1-2.1 1.3-2.9.3-.8.5-1.4.5-1.4l-.6-.6s.3 0 .7-.1c.4-.1.9-.1 1.5-.2 1-.3 2.1-.5 2.1-.5l-.3.8s1.5 1.7 3.3 3.1c.9.7 1.9 1.5 2.6 2 .4.3.7.5.9.6.2.1.3.2.3.2l.8.8z"/></svg>