<svg xmlns="http://www.w3.org/2000/svg" viewBox="0 0 595.3 595.3"><path d="M75.1 216.6c3.6-7.9 14.2-10.5 26.1-11.3 15.7-1 32.9 2 51.1 8.4-14.6-12.5-25.9-25.9-32.9-40-5.3-10.8-8.2-21.3-3.2-28.4 7.2-9.8 22.8-4.9 22.8-4.9-16.2 3.9-9.2 15.7-7.3 16.6 2.6 1.3 4.7-2 7.9-1.2 5.9 1.6 8.2 11.6 8.1 15-.3 8.4-2.5 15.5-.1 25 2.3 9.3 9.3 18.8 20.9 27.3-13.3-5.7-25-7-34.2-4.4-9.4 2.6-14.5 8.1-21.6 12.6-2.9 1.8-12.7 4.8-17 .4-2.2-2.3-.4-5.8-2.9-7.4-1.7-1.2-15.4-1.4-10.7 14.6.1 0-12-11-7-22.3zm183.7-133c-.2 2.9-4.1 3.1-5 6.2-1.6 5.9 5.9 12.9 8.9 14.5 7.4 3.9 14.7 5.5 21.7 12.4 6.9 6.7 11.6 17.5 13.3 31.8 1.6-14.4 6.3-25.1 13.2-31.8 7-6.9 14.3-8.5 21.7-12.4 3-1.6 10.5-8.6 8.9-14.5-.9-3.1-4.8-3.3-5-6.2-.2-2.1 6.5-14 18-2 0 0-3.5-16-15.6-17.3-8.7-.8-16.3 7-23 17-8.7 13-14.7 29.5-18.2 48.4-3.6-18.9-9.6-35.4-18.3-48.4-6.7-10-14.3-17.8-22.9-17-12.2 1.3-15.7 17.3-15.7 17.3 11.5-12 18.2-.1 18 2zm261.5 133.1c-3.6-7.9-14.2-10.6-26.2-11.4-15.7-1-32.9 2-51.1 8.5 14.6-12.6 25.9-26 32.8-40.1 5.3-10.8 8.2-21.3 3.2-28.3-7.2-9.9-22.8-4.9-22.8-4.9 16.2 3.9 9.2 15.7 7.3 16.6-2.6 1.3-4.7-2-7.9-1.2-5.9 1.6-8.2 11.6-8.1 15 .3 8.4 2.5 15.5.1 25-2.3 9.3-9.3 18.8-20.9 27.4 13.2-5.8 24.9-7.1 34.1-4.5 9.4 2.6 14.5 8.1 21.6 12.6 2.9 1.8 12.7 4.8 17 .4 2.2-2.3.4-5.8 2.9-7.4 1.7-1.2 15.4-1.4 10.7 14.6.1-.1 12.2-11.1 7.3-22.3zM502.4 371c-2.4-1.6-.6-5.1-2.9-7.4-4.3-4.3-14.1-1.3-17 .4-7.1 4.5-12.2 10-21.6 12.6-9.2 2.6-20.9 1.3-34.2-4.4 11.6 8.6 18.6 18 20.9 27.3 2.4 9.5.2 16.6-.1 25-.1 3.4 2.2 13.4 8.1 15 3.1.8 5.2-2.5 7.9-1.2 1.9.9 8.9 12.6-7.3 16.6 0 0 15.6 5 22.8-4.9 5.1-7.1 2.1-17.6-3.2-28.4-7-14.1-18.2-27.5-32.9-40 18.2 6.3 35.5 9.4 51.1 8.4 12-.8 22.5-3.5 26.1-11.3 5-11.2-7.1-22.2-7.1-22.2 4.8 15.9-8.9 15.7-10.6 14.5zM336.5 511.6c.2-2.9 4.1-3.1 5-6.2 1.6-5.9-5.9-12.9-8.9-14.5-7.4-3.9-14.7-5.5-21.7-12.4-6.9-6.7-11.6-17.5-13.3-31.8-1.6 14.4-6.3 25.1-13.2 31.8-7 6.9-14.3 8.5-21.7 12.4-3 1.6-10.5 8.6-8.9 14.5.9 3.1 4.8 3.3 5 6.2.2 2.1-6.5 14-18 2 0 0 3.5 16 15.6 17.3 8.7.8 16.3-7 23-17 8.7-13 14.7-29.5 18.2-48.4 3.6 18.9 9.6 35.4 18.3 48.4 6.7 10 14.3 17.8 22.9 17 12.2-1.3 15.7-17.3 15.7-17.3-11.5 12.1-18.2.2-18-2zm-204.8-73.3c2.6-1.3 4.7 2 7.9 1.2 5.9-1.6 8.2-11.6 8.1-15-.3-8.4-2.5-15.5-.1-25 2.3-9.3 9.3-18.8 20.9-27.4-13.2 5.8-24.9 7.1-34.1 4.5-9.4-2.6-14.5-8.1-21.6-12.6-2.9-1.8-12.7-4.8-17-.4-2.2 2.3-.4 5.8-2.9 7.4-1.7 1.2-15.4 1.4-10.7-14.6 0 0-12.1 11-7.2 22.2 3.6 7.9 14.2 10.6 26.2 11.4 15.7 1 32.9-2 51.1-8.5-14.6 12.6-25.9 26-32.8 40.1-5.3 10.8-8.2 21.3-3.2 28.3 7.2 9.9 22.8 4.9 22.8 4.9-16.3-3.9-9.3-15.6-7.4-16.5zm17.5-311.6c2.4 1.6.8 4.9 3 7.2 4.3 4.2 13.9 1.6 16.8 0 6.9-4.1 11.7-9.2 21-11.5 1.9-.5 3.9-.8 6-.9 1.2-1.8 2.4-3.3 3.8-4.7 6.6-6.9 13.5-8.5 20.4-12.4 2.8-1.6 9.9-8.6 8.4-14.5-.8-3.1-4.5-3.3-4.7-6.2-.2-2.1 6.1-14 17-2 0 0-3.3-16-14.7-17.3-8.2-.8-15.4 7-21.7 17-5.7 9-10.1 19.7-13.4 31.6-12-3.1-23.5-4.6-34.1-4.2-11.8.5-22.1 2.8-25.5 10.2-4.6 10.6 7.6 21.5 7.6 21.5-5.1-15.5 8.4-15 10.1-13.8zm222.2-43.1c-.2 2.9-3.9 3.1-4.7 6.2-1.5 5.9 5.6 12.9 8.4 14.5 7 3.9 13.8 5.5 20.4 12.4 1.4 1.4 2.6 3 3.8 4.7 2.1.1 4.1.4 6 .9 9.2 2.3 14.1 7.4 21 11.5 2.8 1.6 12.4 4.2 16.8 0 2.3-2.3.6-5.5 3-7.2 1.7-1.2 15.2-1.7 10.2 13.7 0 0 12.2-10.8 7.6-21.4-3.4-7.5-13.8-9.8-25.5-10.3-10.6-.4-22.1 1.1-34.1 4.2-3.3-12-7.8-22.6-13.4-31.6-6.3-10-13.5-17.8-21.6-17-11.5 1.3-14.8 17.3-14.8 17.3 10.8-11.9 17.1 0 16.9 2.1zm139.4 214c8.7-8.9 15.7-18 20.7-27.4 5.5-10.4 8.7-20.6 3.9-27.2-6.9-9.3-22.4-4.2-22.4-4.2 15.9 3.3 8.7 14.8 6.8 15.7-2.6 1.3-4.6-1.8-7.7-1-5.8 1.6-8.4 11.3-8.4 14.5.1 8 2.1 14.8-.5 23.9-.5 1.9-1.3 3.8-2.2 5.7.9 1.9 1.7 3.8 2.2 5.7 2.6 9.1.6 15.9.5 23.9 0 3.3 2.5 12.9 8.4 14.5 3.1.8 5.1-2.3 7.7-1 1.9.9 9.1 12.3-6.8 15.7 0 0 15.5 5.1 22.3-4.1 4.8-6.7 1.6-16.8-3.9-27.2-4.8-9.4-11.8-18.6-20.6-27.5zm-54.6 157.2c5 15.4-8.4 14.9-10.2 13.7-2.4-1.6-.8-4.9-3-7.2-4.3-4.2-13.9-1.6-16.8 0-6.9 4.1-11.7 9.2-21 11.5-1.9.5-3.9.8-6 .9-1.2 1.8-2.4 3.3-3.8 4.7-6.6 6.9-13.5 8.5-20.4 12.4-2.8 1.6-9.9 8.6-8.4 14.5.8 3.1 4.5 3.3 4.7 6.2.2 2.1-6.1 14-17 2 0 0 3.3 16 14.7 17.3 8.2.8 15.4-7 21.7-17 5.7-9 10.1-19.7 13.4-31.6 12 3.1 23.5 4.6 34.1 4.2 11.8-.5 22.1-2.8 25.5-10.2 4.7-10.5-7.4-21.3-7.5-21.4zm-232.4 56.8c.2-2.9 3.9-3.1 4.7-6.2 1.5-5.9-5.6-12.9-8.4-14.5-7-3.9-13.8-5.5-20.4-12.4-1.4-1.4-2.6-3-3.8-4.7-2.1-.1-4.1-.4-6-.9-9.2-2.3-14.1-7.4-21-11.5-2.8-1.6-12.4-4.2-16.8 0-2.3 2.3-.6 5.5-3 7.2-1.7 1.2-15.2 1.7-10.2-13.7 0 0-12.2 10.8-7.6 21.4 3.4 7.5 13.8 9.8 25.5 10.3 10.6.4 22.1-1.1 34.1-4.2 3.3 12 7.8 22.6 13.4 31.6 6.3 10 13.5 17.8 21.6 17 11.5-1.3 14.8-17.3 14.8-17.3-10.7 12-17 .1-16.9-2.1zM82.2 356.4c-15.9-3.3-8.7-14.8-6.8-15.7 2.6-1.3 4.6 1.8 7.7 1 5.8-1.6 8.4-11.3 8.4-14.5-.1-8-2.1-14.8.5-23.9.5-1.9 1.3-3.8 2.2-5.7-.9-1.9-1.7-3.8-2.2-5.7-2.6-9.1-.6-15.9-.5-23.9 0-3.3-2.5-12.9-8.4-14.5-3.1-.8-5.1 2.3-7.7 1-1.9-.9-9.1-12.3 6.8-15.7 0 0-15.5-5.1-22.3 4.1-4.8 6.7-1.6 16.8 3.9 27.2 5 9.4 12 18.6 20.7 27.4-8.7 8.9-15.7 18-20.7 27.4-5.5 10.4-8.7 20.6-3.9 27.2 6.8 9.4 22.3 4.3 22.3 4.3z"/></svg>