<svg id="Layer_1" xmlns="http://www.w3.org/2000/svg" viewBox="0 0 595.3 595.3"><style>.st0{fill:#010101}</style><path class="st0" d="M246.9 82.6c.5.3 1.2.5 1.7.5 1.2.1 2.3-.2 3.3-.8l1.2-.8 1.2-.8c.8-.5 1.7-1 2.6-1.4 1.2-.6 2.4-1 3.7-1.3l-.3.3c-.5.6-1 1.2-1.3 2-.2.4-.3.8-.3 1.3v.7c0 .2.1.4.2.6.3.8.9 1.4 1.6 1.9.7.5 1.6.7 2.4.7.9 0 1.6-.3 2.3-.7 1.4-.8 2.4-1.8 3.5-2.8.5-.4 1.1-.9 1.7-1.3.6-.4 1.2-.7 1.8-1.1.6-.3 1.3-.6 2-.8.7-.2 1.3-.4 2-.6.7-.2 1.4-.3 2.1-.4.7-.1 1.4-.1 2.1-.1.7 0 1.4.1 2.1.2.7.1 1.4.2 2.1.4l2.5.6-2.1-1.6c-.6-.5-1.3-1-2-1.5s-1.4-.9-2.1-1.3c-.7-.4-1.4-.8-2.2-1.2-.7-.4-1.5-.7-2.3-1-.8-.3-1.5-.6-2.3-.8-.8-.2-1.6-.5-2.4-.6-.8-.2-1.6-.3-2.4-.4-.8-.1-1.6-.2-2.5-.2h-2.5c-.8 0-1.6.1-2.5.2-1.6.2-3.3.5-4.9.9-3.2.9-6.2 2.2-9 4.1-.4.3-.8.6-1.2 1-.4.4-.8.8-1.1 1.2-.3.5-.6 1-.7 1.7-.1.7 0 1.3.3 1.9.7.4 1.1.9 1.7 1.3zm.4-4.1c.2-.3.6-.7.9-1 .4-.3.7-.5 1.1-.8 2.6-1.7 5.5-2.9 8.5-3.7 1.5-.4 3-.7 4.6-.9.8-.1 1.6-.1 2.3-.2h2.3c.7 0 1.5.1 2.3.2.8.1 1.5.2 2.3.3.8.1 1.5.3 2.3.5.8.2 1.5.4 2.2.7.7.3 1.5.5 2.2.8.7.3 1.4.6 2.1 1 .6.4 1.3.7 1.9 1.1-.6-.1-1.3-.1-1.9-.1-.8 0-1.5 0-2.2.1-.7.1-1.5.2-2.2.4-.7.2-1.4.4-2.2.6l-2.1.9c-.7.3-1.3.7-1.9 1.1-.6.4-1.2.9-1.8 1.4-1.1 1-2.2 2-3.3 2.6-.6.3-1.2.5-1.8.5-.7 0-1.2-.2-1.8-.5-.5-.3-.9-.8-1.2-1.4-.1-.2-.1-.2-.1-.4v-.4c0-.3.1-.6.2-.9.2-.6.7-1.2 1.1-1.7.5-.5 1-1 1.5-1.3l.8-.5c.4-.1.9-.2 1.4-.3.9-.2 1.9-.4 2.6-.4.7-.1 1.2-.1 1.2-.1s-.5-.1-1.2-.1-1.7 0-2.7.1c-1.9.1-3.9.3-3.9.3-1.6.2-3.1.7-4.5 1.4-.9.4-1.8.9-2.7 1.4l-1.3.8-1.3.8c-.7.4-1.6.6-2.4.6-.4 0-.8-.2-1.1-.4-.3-.2-.5-.5-.7-.8-.2-.3 0-1 .5-1.7zM76.5 94.1c0-2.7 2.2-4.8 4.8-4.8 2.7 0 4.8 2.2 4.8 4.8 0 2.7-2.2 4.8-4.8 4.8-2.6 0-4.8-2.2-4.8-4.8zm236.1-16.3c.7-.1 1.4-.1 2.1-.2.7 0 1.4 0 2.1.1.7.1 1.4.2 2.1.4.7.2 1.4.4 2 .6.7.2 1.3.5 2 .8.6.3 1.2.7 1.8 1.1.6.4 1.2.8 1.7 1.3 1.1.9 2.1 2 3.5 2.8.7.4 1.5.6 2.3.7.8 0 1.7-.2 2.4-.7.7-.5 1.3-1.1 1.6-1.9.1-.2.2-.4.2-.6v-.7c0-.5-.1-.9-.3-1.3-.3-.8-.8-1.4-1.3-2l-.3-.3c1.3.2 2.5.7 3.7 1.3.9.4 1.7.9 2.6 1.4l1.2.8 1.2.8c1 .6 2.1.9 3.3.8.6 0 1.2-.2 1.7-.5.6-.4 1-.8 1.3-1.4.3-.5.4-1.2.3-1.9-.1-.7-.4-1.2-.7-1.7-.3-.5-.7-.9-1.1-1.2-.4-.4-.9-.7-1.2-1-2.7-1.9-5.8-3.2-9-4.1-1.6-.4-3.2-.7-4.9-.9-.8-.1-1.6-.2-2.5-.2h-2.5c-.9.1-1.7.1-2.5.2s-1.6.3-2.4.4l-2.4.6c-.8.3-1.6.5-2.3.8-.8.3-1.5.6-2.3 1-.7.4-1.5.8-2.2 1.2-.7.4-1.4.9-2.1 1.3-.7.5-1.3 1-2 1.5l-2.1 1.6 2.5-.6c1.1 0 1.8-.2 2.5-.3zm2.1-2.2c.7-.4 1.4-.7 2.1-1 .7-.3 1.5-.6 2.2-.8.7-.2 1.5-.5 2.2-.7.8-.2 1.5-.4 2.3-.5.8-.1 1.5-.3 2.3-.3.8-.1 1.6-.1 2.3-.2h2.4c.8 0 1.6.1 2.3.2 1.5.2 3.1.5 4.6.9 3 .8 5.9 2 8.5 3.7.4.3.8.5 1.1.8.3.3.7.6.9 1 .5.7.6 1.4.3 2-.2.3-.4.7-.7.8-.3.2-.7.3-1.1.4-.8.1-1.7-.1-2.4-.6l-1.3-.8-1.3-.8c-.9-.5-1.8-1-2.7-1.4-1.4-.6-2.9-1.2-4.5-1.4 0 0-1.9-.2-3.9-.3-1-.1-2-.1-2.7-.1-.7 0-1.2.1-1.2.1s.5 0 1.2.1 1.7.2 2.6.4c.5.1.9.2 1.4.3l.8.5c.5.3 1.1.8 1.5 1.3.4.5.9 1.1 1.1 1.7.1.3.2.6.2.9v.4c0 .2-.1.3-.1.4-.2.6-.7 1.1-1.2 1.4-.5.3-1.1.5-1.8.5-.6 0-1.2-.2-1.8-.5-1.2-.6-2.2-1.7-3.3-2.6-.6-.5-1.1-.9-1.8-1.4-.6-.4-1.3-.8-1.9-1.1l-2.1-.9c-.7-.3-1.4-.5-2.2-.6-.7-.2-1.5-.3-2.2-.4-.7-.1-1.5-.1-2.2-.1-.6 0-1.3.1-1.9.1.7-.7 1.4-1.1 2-1.4zm194.4 18.5c0-2.7 2.2-4.8 4.8-4.8 2.7 0 4.8 2.2 4.8 4.8 0 2.7-2.2 4.8-4.8 4.8-2.6 0-4.8-2.2-4.8-4.8zM297.8 65.2s-4.4-4.8-4.4-10.8c0-6 4.4-10.8 4.4-10.8s4.4 4.8 4.4 10.8c-.1 6-4.4 10.8-4.4 10.8zm50.6 447.5c-.5-.3-1.2-.5-1.7-.5-1.2-.1-2.3.2-3.3.8l-1.2.8-1.2.8c-.8.5-1.7 1-2.6 1.4-1.2.6-2.4 1-3.7 1.3l.3-.3c.5-.6 1-1.2 1.3-2 .2-.4.3-.8.3-1.3v-.7c0-.2-.1-.4-.2-.6-.3-.8-.9-1.4-1.6-1.9-.7-.5-1.6-.7-2.4-.7-.9 0-1.6.3-2.3.7-1.4.8-2.4 1.8-3.5 2.8-.5.4-1.1.9-1.7 1.3-.6.4-1.2.7-1.8 1.1-.6.3-1.3.6-2 .8-.7.2-1.3.4-2 .6-.7.2-1.4.3-2.1.4-.7.1-1.4.1-2.1.1-.7 0-1.4-.1-2.1-.2-.7-.1-1.4-.2-2.1-.4l-2.5-.6 2.1 1.6c.6.5 1.3 1 2 1.5s1.4.9 2.1 1.3c.7.4 1.4.8 2.2 1.2.7.4 1.5.7 2.3 1 .8.3 1.5.6 2.3.8.8.2 1.6.5 2.4.6.8.2 1.6.3 2.4.4.8.1 1.6.2 2.5.2h2.5c.8 0 1.6-.1 2.5-.2 1.6-.2 3.3-.5 4.9-.9 3.2-.9 6.2-2.2 9-4.1.4-.3.8-.6 1.2-1 .4-.4.8-.8 1.1-1.2.3-.5.6-1 .7-1.7.1-.7 0-1.3-.3-1.9-.7-.5-1.1-1-1.7-1.3zm-.4 4.1c-.2.3-.6.7-.9 1-.4.3-.7.5-1.1.8-2.6 1.7-5.5 2.9-8.5 3.7-1.5.4-3 .7-4.6.9-.8.1-1.6.1-2.3.2h-2.4c-.7 0-1.5-.1-2.3-.2-.8-.1-1.5-.2-2.3-.3-.8-.1-1.5-.3-2.3-.5-.8-.2-1.5-.4-2.2-.7-.7-.3-1.5-.5-2.2-.8-.7-.3-1.4-.6-2.1-1-.6-.4-1.3-.7-1.9-1.1.6.1 1.3.1 1.9.1.8 0 1.5 0 2.2-.1.7-.1 1.5-.2 2.2-.4.7-.2 1.4-.4 2.2-.6l2.1-.9c.7-.3 1.3-.7 1.9-1.1.6-.4 1.2-.9 1.8-1.4 1.1-1 2.2-2 3.3-2.6.6-.3 1.2-.5 1.8-.5.7 0 1.2.2 1.8.5.5.3.9.8 1.2 1.4.1.2.1.2.1.4v.4c0 .3-.1.6-.2.9-.2.6-.7 1.2-1.1 1.7-.5.5-1 1-1.5 1.3l-.8.5c-.4.1-.9.2-1.4.3-.9.2-1.9.4-2.6.4-.7.1-1.2.1-1.2.1s.5.1 1.2.1 1.7 0 2.7-.1c1.9-.1 3.9-.3 3.9-.3 1.6-.2 3.1-.7 4.5-1.4.9-.4 1.8-.9 2.7-1.4l1.3-.8 1.3-.8c.7-.4 1.6-.6 2.4-.6.4 0 .8.2 1.1.4.3.2.5.5.7.8.3.3.1 1-.4 1.7zm170.7-15.6c0 2.7-2.2 4.8-4.8 4.8-2.7 0-4.8-2.2-4.8-4.8 0-2.7 2.2-4.8 4.8-4.8 2.7 0 4.8 2.2 4.8 4.8zm-236 16.3c-.7.1-1.4.1-2.1.2-.7 0-1.4 0-2.1-.1-.7-.1-1.4-.2-2.1-.4-.7-.2-1.4-.4-2-.6-.7-.2-1.3-.5-2-.8-.6-.3-1.2-.7-1.8-1.1-.6-.4-1.2-.8-1.7-1.3-1.1-.9-2.1-2-3.5-2.8-.7-.4-1.5-.6-2.3-.7-.8 0-1.7.2-2.4.7-.7.5-1.3 1.1-1.6 1.9-.1.2-.2.4-.2.6v.7c0 .5.1.9.3 1.3.3.8.8 1.4 1.3 2l.3.3c-1.3-.2-2.5-.7-3.7-1.3-.9-.4-1.7-.9-2.6-1.4l-1.2-.8-1.2-.8c-1-.6-2.1-.9-3.3-.8-.6 0-1.2.2-1.7.5-.6.4-1 .8-1.3 1.4-.3.5-.4 1.2-.3 1.9.1.7.4 1.2.7 1.7.3.5.7.9 1.1 1.2.4.4.9.7 1.2 1 2.7 1.9 5.8 3.2 9 4.1 1.6.4 3.2.7 4.9.9.8.1 1.6.2 2.5.2h2.5c.9-.1 1.7-.1 2.5-.2s1.6-.3 2.4-.4l2.4-.6c.8-.3 1.6-.5 2.3-.8.8-.3 1.5-.6 2.3-1 .7-.4 1.5-.8 2.2-1.2.7-.4 1.4-.9 2.1-1.3.7-.5 1.3-1 2-1.5l2.1-1.6-2.5.6c-1.1 0-1.8.2-2.5.3zm-2.1 2.2c-.7.4-1.4.7-2.1 1-.7.3-1.5.6-2.2.8-.7.2-1.5.5-2.2.7-.8.2-1.5.4-2.3.5-.8.1-1.5.3-2.3.3-.8.1-1.6.1-2.3.2h-2.4c-.8 0-1.6-.1-2.3-.2-1.5-.2-3.1-.5-4.6-.9-3-.8-5.9-2-8.5-3.7-.4-.3-.8-.5-1.1-.8-.3-.3-.7-.6-.9-1-.5-.7-.6-1.4-.3-2 .2-.3.4-.7.7-.8.3-.2.7-.3 1.1-.4.8-.1 1.7.1 2.4.6l1.3.8 1.3.8c.9.5 1.8 1 2.7 1.4 1.4.6 2.9 1.2 4.5 1.4 0 0 1.9.2 3.9.3 1 .1 2 .1 2.7.1.7 0 1.2-.1 1.2-.1s-.5 0-1.2-.1-1.7-.2-2.6-.4c-.5-.1-.9-.2-1.4-.3l-.8-.5c-.5-.3-1.1-.8-1.5-1.3-.4-.5-.9-1.1-1.1-1.7-.1-.3-.2-.6-.2-.9v-.4c0-.2.1-.3.1-.4.2-.6.7-1.1 1.2-1.4.5-.3 1.1-.5 1.8-.5.6 0 1.2.2 1.8.5 1.2.6 2.2 1.7 3.3 2.6.6.5 1.1.9 1.8 1.4.6.4 1.3.8 1.9 1.1l2.1.9c.7.3 1.4.5 2.2.6.7.2 1.5.3 2.2.4.7.1 1.5.1 2.2.1.6 0 1.3-.1 1.9-.1-.8.7-1.4 1.1-2 1.4zM86.2 501.2c0 2.7-2.2 4.8-4.8 4.8-2.7 0-4.8-2.2-4.8-4.8 0-2.7 2.2-4.8 4.8-4.8 2.6 0 4.8 2.2 4.8 4.8zM297.5 530s4.4 4.8 4.4 10.8c0 6-4.4 10.8-4.4 10.8s-4.4-4.8-4.4-10.8c.1-5.9 4.4-10.8 4.4-10.8zm217.2-259.5c.4.6.7 1.2 1.1 1.8.3.6.6 1.3.8 2 .2.7.4 1.3.6 2 .2.7.3 1.4.4 2.1.1.7.1 1.4.1 2.1 0 .7-.1 1.4-.2 2.1-.1.7-.2 1.4-.4 2.1l-.6 2.5 1.6-2.1c.5-.6 1-1.3 1.5-2s.9-1.4 1.3-2.1c.4-.7.8-1.4 1.2-2.2.4-.7.7-1.5 1-2.3.3-.8.6-1.5.8-2.3.2-.8.5-1.6.6-2.4.2-.8.3-1.6.4-2.4.1-.8.2-1.6.2-2.5v-2.5c0-.8-.1-1.6-.2-2.5-.2-1.6-.5-3.3-.9-4.9-.9-3.2-2.2-6.2-4.1-9-.3-.4-.6-.8-1-1.2-.4-.4-.8-.8-1.2-1.1-.5-.3-1-.6-1.7-.7-.7-.1-1.3 0-1.9.3-.5.3-1 .7-1.4 1.3-.3.5-.5 1.2-.5 1.7-.1 1.2.2 2.3.8 3.3l.8 1.2.8 1.2c.5.8 1 1.7 1.4 2.6.6 1.2 1 2.4 1.3 3.7l-.3-.3c-.6-.5-1.2-1-2-1.3-.4-.2-.8-.3-1.3-.3h-.7c-.2 0-.4.1-.6.2-.8.3-1.4.9-1.9 1.6-.5.7-.7 1.6-.7 2.4 0 .9.3 1.6.7 2.3.8 1.4 1.8 2.4 2.8 3.5.6 1 1 1.6 1.4 2.1zM511 263c0-.7.2-1.2.5-1.8.3-.5.8-.9 1.4-1.2.2-.1.2-.1.4-.1h.4c.3 0 .6.1.9.2.6.2 1.2.7 1.7 1.1.5.5 1 1 1.3 1.5l.5.8c.1.4.2.9.3 1.4.2.9.4 1.9.4 2.6.1.7.1 1.2.1 1.2s.1-.5.1-1.2 0-1.7-.1-2.7c-.1-1.9-.3-3.9-.3-3.9-.2-1.6-.7-3.1-1.4-4.5-.4-.9-.9-1.8-1.4-2.7l-.8-1.3-.8-1.3c-.4-.7-.6-1.6-.6-2.4 0-.4.2-.8.4-1.1.2-.3.5-.5.8-.7.7-.3 1.3-.2 2 .3.3.2.7.6 1 .9.3.4.5.7.8 1.1 1.7 2.6 2.9 5.5 3.7 8.5.4 1.5.7 3 .9 4.6.1.8.1 1.6.2 2.3v2.4c0 .7-.1 1.5-.2 2.3-.1.8-.2 1.5-.3 2.3-.1.8-.3 1.5-.5 2.3-.2.8-.4 1.5-.7 2.2-.3.7-.5 1.5-.8 2.2-.3.7-.6 1.4-1 2.1-.4.6-.7 1.3-1.1 1.9.1-.6.1-1.3.1-1.9 0-.8 0-1.5-.1-2.2-.1-.7-.2-1.5-.4-2.2-.2-.7-.4-1.4-.6-2.2l-.9-2.1c-.3-.7-.7-1.3-1.1-1.9-.4-.6-.9-1.2-1.4-1.8-1-1.1-2-2.2-2.6-3.3-.6-.4-.8-1.1-.8-1.7zM496.4 81.4c0-2.7 2.2-4.8 4.8-4.8 2.7 0 4.8 2.2 4.8 4.8 0 2.7-2.2 4.8-4.8 4.8-2.6 0-4.8-2.2-4.8-4.8zm28.5 244.3c-.1-.8-.3-1.6-.4-2.4l-.6-2.4c-.3-.8-.5-1.6-.8-2.3-.3-.8-.6-1.5-1-2.3-.4-.7-.8-1.5-1.2-2.2-.4-.7-.9-1.4-1.3-2.1-.5-.7-1-1.3-1.5-2l-1.6-2.1.6 2.5c.2.7.3 1.4.4 2.1.1.7.1 1.4.2 2.1 0 .7 0 1.4-.1 2.1-.1.7-.2 1.4-.4 2.1-.2.7-.4 1.4-.6 2-.2.7-.5 1.3-.8 2-.3.6-.7 1.2-1.1 1.8-.4.6-.8 1.2-1.3 1.7-.9 1.1-2 2.1-2.8 3.5-.4.7-.6 1.5-.7 2.3 0 .8.2 1.7.7 2.4.5.7 1.1 1.3 1.9 1.6.2.1.4.2.6.2h.7c.5 0 .9-.1 1.3-.3.8-.3 1.4-.8 2-1.3l.3-.3c-.2 1.3-.7 2.5-1.3 3.7-.4.9-.9 1.7-1.4 2.6l-.8 1.2-.8 1.2c-.6 1-.9 2.1-.8 3.3 0 .6.2 1.2.5 1.7.4.6.8 1 1.4 1.3.5.3 1.2.4 1.9.3.7-.1 1.2-.4 1.7-.7.5-.3.9-.7 1.2-1.1.4-.4.7-.9 1-1.2 1.9-2.7 3.2-5.8 4.1-9 .4-1.6.7-3.2.9-4.9.1-.8.2-1.6.2-2.5v-2.5c-.1-.5-.2-1.3-.3-2.1zm-1.7 4.8c0 .8-.1 1.6-.2 2.3-.2 1.5-.5 3.1-.9 4.6-.8 3-2 5.9-3.7 8.5-.3.4-.5.8-.8 1.1-.3.3-.6.7-1 .9-.7.5-1.4.6-2 .3-.3-.2-.7-.4-.8-.7-.2-.3-.3-.7-.4-1.1-.1-.8.1-1.7.6-2.4l.8-1.3.8-1.3c.5-.9 1-1.8 1.4-2.7.6-1.4 1.2-2.9 1.4-4.5 0 0 .2-1.9.3-3.9.1-1 .1-2 .1-2.7 0-.7-.1-1.2-.1-1.2s0 .5-.1 1.2-.2 1.7-.4 2.6c-.1.5-.2.9-.3 1.4l-.5.8c-.3.5-.8 1.1-1.3 1.5-.5.4-1.1.9-1.7 1.1-.3.1-.6.2-.9.2h-.4c-.2 0-.3-.1-.4-.1-.6-.2-1.1-.7-1.4-1.2-.3-.5-.5-1.1-.5-1.8 0-.6.2-1.2.5-1.8.6-1.2 1.7-2.2 2.6-3.3.5-.6.9-1.1 1.4-1.8.4-.6.8-1.3 1.1-1.9l.9-2.1c.3-.7.5-1.4.6-2.2.2-.7.3-1.5.4-2.2.1-.7.1-1.5.1-2.2 0-.6-.1-1.3-.1-1.9.4.6.8 1.2 1.1 1.9.4.7.7 1.4 1 2.1.3.7.6 1.5.8 2.2.2.7.5 1.5.7 2.2.2.8.4 1.5.5 2.3.1.8.3 1.5.3 2.3.1.8.1 1.6.2 2.3.4 1 .4 1.8.3 2.5zm12.6-5.9l-.2-1.5-.1-.8-.1-.7c-.2-1-.4-2.1-.6-3.1-.9-4-2.4-8-4.7-11.6-.3-.4-.6-.9-.9-1.3l-.5-.7-.4-.5-.2-.3-.3-.3-.6-.6c-.4-.4-.7-.8-1.1-1.1-1.5-1.5-3.1-2.7-4.9-3.8-.3-.2-.6-.3-1-.5.3-.2.7-.3 1-.5 1.8-1 3.4-2.3 4.9-3.8l1.1-1.1.6-.6.3-.3.2-.3.4-.5.5-.7c.3-.4.6-.9.9-1.3 2.2-3.6 3.7-7.6 4.7-11.6.2-1 .5-2 .6-3.1l.1-.7.1-.8.2-1.5c.3-2.1.5-4.1.6-6.3.2-4.2.2-8.5-.3-12.8-.5-4.3-1.4-8.5-2.6-12.7-.6-2.1-1.2-4.2-1.9-6.3-.3-1.1-.7-2-1-3.1l-1.1-3.1c-1.5-4.1-3-8.2-4.7-12.1-3.4-8-7.1-15.7-10.9-23.3-3.8-7.5-7.5-14.8-8-22.3-.3-3.7.3-7.4 1.7-10.5.2-.4.4-.7.5-1.1l.4-.6.2-.3s.1-.1.1-.2c.5-.7 1-1.3 1.5-1.9 1.1-1.2 2.5-2.2 3.9-2.9 1.4-.7 3-1.2 4.5-1.3.7-.1 1.5-.1 2.2 0l.5.1c.2 0 .4.1.6.1l.3.1h.2l.5.2c2.7 1 4.9 3.2 6 5.7 1.1 2.5 1 5.3.1 7.7-.4 1.2-1.1 2.2-1.8 3-.8.8-1.8 1.4-2.8 1.8-2 .8-4.2.8-5.7.1-1.6-.7-2.5-2.1-2.8-3.5-.3-1.4 0-2.8.5-3.8 0-.1.1-.2.1-.2.5 1.7 2.1 3 3.9 3 2.3 0 4.1-1.8 4.1-4.1s-1.8-4.1-4.1-4.1h-.8c-.7 0-1.7.1-2.9.7s-2.5 1.7-3.3 3.3c-.8 1.6-1.3 3.7-.8 6 .5 2.2 2 4.6 4.6 5.8 2.6 1.2 5.7 1.2 8.4.1 1.4-.6 2.8-1.4 3.9-2.5.6-.6 1.1-1.3 1.6-2 .2-.3.4-.7.6-1.1.2-.4.4-.8.5-1.1 1.2-3.1 1.4-6.8 0-10.3-1.4-3.5-4.2-6.4-8-7.9l-.7-.3h-.5l-.3-.1c-.2-.1-.4-.1-.6-.2l-.8-.1c-.3 0-.6-.1-.9-.1.2-.3.4-.5.6-.8.5-.7.9-1.4 1.3-2.2.2-.4.4-.9.6-1.2l.1-.3c.1-.2.1-.2.1-.4.1-.2.2-.5.2-.7.6-1.9.8-4 .4-6.2-.3-2.2-1.2-4.3-2.7-6.1-1.5-1.8-3.5-3.1-5.7-3.8-1.1-.3-2.2-.5-3.5-.5-.3 0-.5 0-.7.1-.4.1-.6.1-.9.1-.6.1-1.1.3-1.7.5-2.1.9-3.8 2.4-4.8 4.4-.3.5-.5 1-.6 1.5-.1.3-.1.6-.2.9-.1.3-.1.5-.1.7-.1 1.2 0 2.2.4 3.2.3 1 .9 1.9 1.7 2.6.8.7 1.7 1.2 2.7 1.4 2.1.4 4-.6 5-1.9.3-.3.4-.7.6-1.1.1-.2.1-.4.2-.7v-.5c0-.8-.2-1.5-.5-2.1-.6-1.1-1.5-1.8-2.3-2-.3-.1-.9-.2-.9-.2h-.3c-.9-.1-1.7.6-1.7 1.5-.1.9.6 1.7 1.5 1.7h.3c.1 0 .4.2.6.5.2.4.3.7-.1 1.3-.2.3-.5.5-.8.7-.2.1-.3.1-.6.1h-.6c-.9-.2-1.8-.9-2.2-2.1-.2-.5-.3-1.3-.2-1.9 0-.2.1-.5.1-.6 0-.1.1-.3.1-.4.1-.3.2-.7.4-1 .7-1.3 1.9-2.3 3.3-2.9.4-.1.7-.2 1.1-.3l.5-.1h.7c.6 0 1.5.2 2.2.5 1.5.6 2.7 1.7 3.5 3 .8 1.2 1.1 2.7 1.2 4.2.1 1.4-.1 2.9-.5 4.1-.4 1.3-1 2.6-1.6 3.6-.6 1.1-1.3 2-2 2.7-.7.8-1.3 1.4-1.9 1.9-.2.2-.4.3-.5.5h-.1c-1.9.9-3.6 2.1-5.1 3.6-.8.7-1.4 1.6-2.1 2.5-.1.1-.1.2-.3.4l-.2.3-.4.6c-.3.5-.6 1-.8 1.5-.4.9-.8 1.8-1.1 2.7V99.6l5.1 5.8 2.4-2.1-7.9-9 .1-.1-.7-.7-.7-.7-.1.1-9-7.9-2.1 2.4 5.8 5.1H436c.9-.3 1.8-.6 2.7-1.1.5-.2 1-.5 1.5-.8l.6-.4.3-.2c.2-.1.2-.2.4-.3.9-.6 1.7-1.3 2.5-2.1 1.5-1.5 2.7-3.2 3.6-5.1v-.1l.5-.5c.5-.6 1.2-1.2 1.9-1.9.8-.7 1.7-1.4 2.7-2 1-.6 2.3-1.2 3.6-1.6 1.3-.4 2.7-.6 4.1-.5 1.4.1 2.9.4 4.2 1.2 1.3.8 2.4 2 3 3.5.3.7.5 1.6.5 2.2v.7l-.1.5c-.1.4-.2.7-.3 1.1-.5 1.4-1.6 2.7-2.9 3.3-.3.2-.6.3-1 .4-.2.1-.3.1-.4.1-.1 0-.4.1-.6.1-.6.1-1.3 0-1.9-.2-1.2-.4-1.9-1.3-2.1-2.2V86c0-.3.1-.4.1-.6.1-.3.4-.6.7-.8.6-.3.9-.3 1.3-.1.4.2.5.5.5.6v.4c.1.9.9 1.5 1.8 1.4.9-.1 1.5-.9 1.4-1.8v-.2s-.1-.6-.2-.9c-.3-.7-.9-1.6-2-2.3-.6-.3-1.3-.5-2.1-.5h-.5c-.2 0-.5.1-.7.2-.4.1-.8.3-1.1.6-1.4 1-2.4 2.9-1.9 5 .2 1 .7 1.9 1.4 2.7.7.8 1.6 1.4 2.6 1.7 1 .3 2 .5 3.2.4.2 0 .4 0 .7-.1.3-.1.6-.1.9-.2l1.5-.6c1.9-1 3.5-2.7 4.4-4.8.2-.5.4-1.1.5-1.7.1-.3.1-.5.1-.9 0-.2 0-.5.1-.7 0-1.3-.2-2.3-.5-3.5-.7-2.2-2-4.2-3.8-5.7-1.8-1.5-4-2.4-6.1-2.7-2.2-.3-4.3-.1-6.2.4-.2.1-.5.1-.7.2-.1 0-.2.1-.4.1l-.3.1c-.3.1-.9.4-1.2.6-.8.4-1.6.8-2.2 1.3-.3.2-.6.4-.8.6 0-.3 0-.6-.1-.9l-.1-.8c-.1-.2-.1-.4-.2-.6l-.1-.3v-.5l-.3-.7c-1.5-3.8-4.4-6.6-7.9-8-3.4-1.4-7.2-1.2-10.3 0-.4.1-.8.3-1.1.5-.4.2-.8.4-1.1.6-.7.4-1.4 1-2 1.6-1.2 1.2-2 2.5-2.5 3.9-1.1 2.8-1.2 5.9.1 8.4 1.2 2.6 3.6 4.1 5.8 4.6 2.3.5 4.4 0 6-.8 1.6-.8 2.7-2.1 3.3-3.3.6-1.2.7-2.2.7-2.9v-.8c0-2.3-1.8-4.1-4.1-4.1s-4.1 1.8-4.1 4.1c0 1.9 1.3 3.5 3 3.9-.1 0-.2.1-.2.1-1 .5-2.3.8-3.8.5-1.4-.3-2.8-1.3-3.5-2.8-.7-1.5-.7-3.7.1-5.7.4-1 1-2 1.8-2.8.8-.8 1.8-1.4 3-1.8 2.3-.9 5.2-1 7.7.1 2.4 1 4.7 3.2 5.7 6l.2.5v.2l.1.3c0 .2.1.4.1.6l.1.5c.1.7.1 1.5 0 2.2-.1 1.5-.6 3-1.3 4.5-.7 1.4-1.7 2.8-2.9 3.9-.6.6-1.2 1.1-1.9 1.5-.1 0-.2.2-.2.1l-.3.2-.6.4c-.4.2-.7.4-1.1.5-3.1 1.4-6.8 2-10.5 1.7-7.5-.5-14.7-4.2-22.3-8-7.5-3.7-15.3-7.5-23.3-10.9-4-1.7-8.1-3.2-12.1-4.7l-3.1-1.1c-1-.3-2-.7-3.1-1-2.1-.7-4.2-1.3-6.3-1.9-4.2-1.2-8.4-2.1-12.7-2.6-4.3-.5-8.6-.5-12.8-.3-2.1.1-4.2.3-6.3.6l-1.5.2-.8.1-.7.1c-1 .2-2.1.4-3.1.6-4 .9-8 2.4-11.6 4.7-.4.3-.9.6-1.3.9l-.7.5-.5.4-.3.2-.3.3-.6.6c-.4.4-.8.7-1.1 1.1-1.5 1.5-2.7 3.1-3.8 4.9-.2.3-.3.6-.5 1-.2-.3-.3-.7-.5-1-1-1.8-2.3-3.4-3.8-4.9l-1.1-1.1-.6-.6-.3-.3-.3-.2-.5-.4-.7-.5c-.4-.3-.9-.6-1.3-.9-3.6-2.2-7.6-3.7-11.6-4.7-1-.2-2-.5-3.1-.6l-.7-.1-.8-.1-1.5-.2c-2.1-.3-4.1-.5-6.3-.6-4.2-.2-8.5-.2-12.8.3-4.3.5-8.5 1.4-12.7 2.6-2.1.6-4.2 1.2-6.3 1.9-1.1.3-2 .7-3.1 1l-3.1 1.1c-4.1 1.5-8.2 3-12.1 4.7-8 3.3-15.7 7.1-23.3 10.9-7.5 3.8-14.8 7.5-22.3 8-3.7.3-7.4-.3-10.5-1.7-.4-.2-.7-.4-1.1-.5l-.6-.4-.3-.2s-.1-.1-.2-.1c-.7-.5-1.3-1-1.9-1.5-1.2-1.1-2.2-2.5-2.9-3.9-.7-1.4-1.2-3-1.3-4.5-.1-.7-.1-1.5 0-2.2l.1-.5c0-.2.1-.4.1-.6l.1-.3v-.2l.2-.5c1-2.7 3.2-4.9 5.7-6 2.5-1.1 5.3-1 7.7-.1 1.2.4 2.2 1.1 3 1.8.8.8 1.4 1.8 1.8 2.8.8 2 .8 4.2.1 5.7-.7 1.6-2.1 2.5-3.5 2.8-1.4.3-2.8 0-3.8-.5-.1 0-.2-.1-.2-.1 1.7-.5 3-2.1 3-3.9 0-2.3-1.8-4.1-4.1-4.1s-4.1 1.8-4.1 4.1v.8c0 .7.1 1.7.7 2.9s1.7 2.5 3.3 3.3c1.6.8 3.7 1.3 6 .8 2.2-.5 4.6-2 5.8-4.6 1.2-2.5 1.2-5.7.1-8.4-.6-1.4-1.4-2.8-2.5-3.9-.6-.6-1.3-1.1-2-1.6-.3-.2-.7-.4-1.1-.6-.4-.2-.7-.4-1.1-.5-3.1-1.2-6.8-1.4-10.3 0-3.5 1.4-6.4 4.2-7.9 8l-.3.7v.5l-.1.3c-.1.2-.1.4-.2.6l-.1.8c0 .3-.1.6-.1.9-.3-.2-.5-.4-.8-.6-.7-.5-1.4-.9-2.2-1.3-.4-.2-.9-.4-1.2-.6l-.3-.1c-.2-.1-.2-.1-.4-.1-.2-.1-.5-.2-.7-.2-1.9-.6-4-.8-6.2-.4-2.2.3-4.3 1.2-6.1 2.7-1.8 1.5-3.1 3.5-3.8 5.7-.3 1.1-.5 2.2-.5 3.5 0 .3 0 .5.1.7.1.4.1.6.1.9.1.6.3 1.1.5 1.7.9 2.1 2.4 3.8 4.4 4.8.5.3 1 .5 1.5.6.3.1.6.1.9.2.3.1.5.1.7.1 1.2.1 2.2 0 3.2-.4 1-.3 1.9-.9 2.6-1.7.7-.8 1.2-1.7 1.4-2.7.4-2.1-.6-4-1.9-5-.3-.3-.7-.4-1.1-.6-.2-.1-.4-.1-.7-.2h-.5c-.8 0-1.5.2-2.1.5-1.1.6-1.8 1.5-2 2.3-.1.3-.2.9-.2.9v.3c-.1.9.6 1.7 1.5 1.7.9.1 1.7-.6 1.7-1.5v-.3c0-.1.2-.4.5-.6.4-.2.7-.3 1.3.1.3.2.5.5.7.8.1.2.1.3.1.6v.6c-.2.9-.9 1.8-2.1 2.2-.5.2-1.3.3-1.9.2-.2 0-.5-.1-.6-.1-.1 0-.3-.1-.4-.1-.3-.1-.7-.2-1-.4-1.3-.7-2.3-1.9-2.9-3.3-.1-.4-.2-.7-.3-1.1l-.1-.5v-.7c0-.6.2-1.5.5-2.2.6-1.5 1.7-2.7 3-3.5 1.2-.8 2.7-1.1 4.2-1.2 1.4-.1 2.9.1 4.1.5 1.3.4 2.6 1 3.6 1.6 1.1.6 2 1.3 2.7 2 .8.7 1.4 1.3 1.9 1.9.2.2.3.4.5.5v.1c.9 1.9 2.1 3.6 3.6 5.1.7.8 1.6 1.4 2.5 2.1.1.1.2.1.4.3l.3.2.6.4c.5.3 1 .6 1.5.8.9.4 1.8.8 2.7 1.1H99.6l5.8-5.1-2.1-2.4-9 7.9-.1-.1-.7.7-.7.7.1.1-7.9 9 2.4 2.1 5.1-5.8v59.7c-.3-.9-.6-1.8-1.1-2.7-.2-.5-.5-1-.8-1.5l-.4-.6-.2-.3c-.1-.2-.2-.2-.3-.4-.6-.9-1.3-1.7-2.1-2.5-1.5-1.5-3.2-2.7-5.1-3.6h-.1l-.5-.5c-.6-.5-1.2-1.2-1.9-1.9-.7-.8-1.4-1.7-2-2.7-.6-1-1.2-2.3-1.6-3.6-.4-1.3-.6-2.7-.5-4.1.1-1.4.4-2.9 1.2-4.2.8-1.3 2-2.4 3.5-3 .7-.3 1.6-.5 2.2-.5h.7l.5.1c.4.1.7.2 1.1.3 1.4.5 2.7 1.6 3.3 2.9.2.3.3.6.4 1 .1.2.1.3.1.4 0 .1.1.4.1.6.1.6 0 1.3-.2 1.9-.4 1.2-1.3 1.9-2.2 2.1H86c-.3 0-.4-.1-.6-.1-.3-.1-.6-.4-.8-.7-.3-.6-.3-.9-.1-1.3.2-.4.5-.5.6-.5h.4c.9-.1 1.5-.9 1.4-1.8-.1-.9-.9-1.5-1.8-1.4h-.2s-.6.1-.9.2c-.7.3-1.6.9-2.3 2-.3.6-.5 1.3-.5 2.1v.5c0 .2.1.5.2.7.1.4.3.8.6 1.1 1 1.4 2.9 2.4 5 1.9 1-.2 1.9-.7 2.7-1.4.8-.7 1.4-1.6 1.7-2.6.3-1 .5-2 .4-3.2 0-.2 0-.4-.1-.7-.1-.3-.1-.6-.2-.9l-.6-1.5c-1-1.9-2.7-3.5-4.8-4.4-.5-.2-1.1-.4-1.7-.5-.3-.1-.5-.1-.9-.1-.2 0-.5 0-.7-.1-1.3 0-2.3.2-3.5.5-2.2.7-4.2 2-5.7 3.8-1.5 1.8-2.4 4-2.7 6.1-.3 2.2-.1 4.3.4 6.2.1.2.1.5.2.7 0 .1.1.2.1.4l.1.3c.1.3.4.9.6 1.2.4.8.8 1.6 1.3 2.2.2.3.4.6.6.8-.3 0-.6 0-.9.1l-.8.1c-.2.1-.4.1-.6.2l-.3.1h-.5l-.7.3c-3.8 1.5-6.6 4.4-8 7.9-1.4 3.4-1.2 7.2 0 10.3.1.4.3.8.5 1.1.2.4.4.8.6 1.1.4.7 1 1.4 1.6 2 1.2 1.2 2.5 2 3.9 2.5 2.8 1.1 5.9 1.2 8.4-.1 2.6-1.2 4.1-3.6 4.6-5.8.5-2.3 0-4.4-.8-6-.8-1.6-2.1-2.7-3.3-3.3-1.2-.6-2.2-.7-2.9-.7h-.8c-2.3 0-4.1 1.8-4.1 4.1s1.8 4.1 4.1 4.1c1.9 0 3.5-1.3 3.9-3 0 .1.1.2.1.2.5 1 .8 2.3.5 3.8-.3 1.4-1.3 2.8-2.8 3.5-1.5.7-3.7.7-5.7-.1-1-.4-2-1-2.8-1.8-.8-.8-1.4-1.8-1.8-3-.9-2.3-1-5.2.1-7.7 1-2.4 3.2-4.7 6-5.7l.5-.2h.2l.3-.1c.2 0 .4-.1.6-.1l.5-.1c.7-.1 1.5-.1 2.2 0 1.5.1 3 .6 4.5 1.3 1.4.7 2.8 1.7 3.9 2.9.6.6 1.1 1.2 1.5 1.9 0 .1.2.2.1.2l.2.3.4.6c.2.4.4.7.5 1.1 1.4 3.1 2 6.8 1.7 10.5-.5 7.5-4.2 14.7-8 22.3-3.7 7.5-7.5 15.3-10.9 23.3-1.7 4-3.2 8.1-4.7 12.1l-1.1 3.1c-.3 1-.7 2-1 3.1-.7 2.1-1.3 4.2-1.9 6.3-1.2 4.2-2.1 8.4-2.6 12.7-.5 4.3-.5 8.6-.3 12.8.1 2.1.3 4.2.6 6.3l.2 1.5.1.8.1.7c.2 1 .4 2.1.6 3.1.9 4 2.4 8 4.7 11.6.3.4.6.9.9 1.3l.5.7.4.5.2.3.3.3.6.6c.4.4.7.8 1.1 1.1 1.5 1.5 3.1 2.7 4.9 3.8.3.2.6.3 1 .5-.3.2-.7.3-1 .5-1.8 1-3.4 2.3-4.9 3.8l-1.1 1.1-.6.6-.3.3-.2.3-.4.5-.5.7c-.3.4-.6.9-.9 1.3-2.2 3.6-3.7 7.6-4.7 11.6-.2 1-.5 2-.6 3.1l-.1.7-.1.8-.2 1.5c-.3 2.1-.5 4.1-.6 6.3-.2 4.2-.2 8.5.3 12.8.5 4.3 1.4 8.5 2.6 12.7.6 2.1 1.2 4.2 1.9 6.3.3 1.1.7 2 1 3.1l1.1 3.1c1.5 4.1 3 8.2 4.7 12.1 3.3 8 7.1 15.7 10.9 23.3 3.8 7.5 7.5 14.8 8 22.3.3 3.7-.3 7.4-1.7 10.5-.2.4-.4.7-.5 1.1l-.4.6-.2.3s-.1.1-.1.2c-.5.7-1 1.3-1.5 1.9-1.1 1.2-2.5 2.2-3.9 2.9-1.4.7-3 1.2-4.5 1.3-.7.1-1.5.1-2.2 0l-.5-.1c-.2 0-.4-.1-.6-.1l-.3-.1h-.2l-.5-.2c-2.7-1-4.9-3.2-6-5.7-1.1-2.5-1-5.3-.1-7.7.4-1.2 1.1-2.2 1.8-3 .8-.8 1.8-1.4 2.8-1.8 2-.8 4.2-.8 5.7-.1 1.6.7 2.5 2.1 2.8 3.5.3 1.4 0 2.8-.5 3.8 0 .1-.1.2-.1.2-.5-1.7-2.1-3-3.9-3-2.3 0-4.1 1.8-4.1 4.1s1.8 4.1 4.1 4.1h.8c.7 0 1.7-.1 2.9-.7s2.5-1.7 3.3-3.3c.8-1.6 1.3-3.7.8-6-.5-2.2-2-4.6-4.6-5.8-2.6-1.2-5.7-1.2-8.4-.1-1.4.6-2.8 1.4-3.9 2.5-.6.6-1.1 1.3-1.6 2-.2.3-.4.7-.6 1.1-.2.4-.4.7-.5 1.1-1.2 3.1-1.4 6.8 0 10.3 1.4 3.5 4.2 6.4 8 7.9l.7.3h.5l.3.1c.2.1.4.1.6.2l.8.1c.3 0 .6.1.9.1-.2.3-.4.5-.6.8-.5.7-.9 1.4-1.3 2.2-.2.4-.4.9-.6 1.2l-.1.3c-.1.2-.1.2-.1.4-.1.2-.2.5-.2.7-.6 1.9-.8 4-.4 6.2.3 2.2 1.2 4.3 2.7 6.1 1.5 1.8 3.5 3.1 5.7 3.8 1.1.3 2.2.5 3.5.5.3 0 .5 0 .7-.1.4-.1.6-.1.9-.1.6-.1 1.1-.3 1.7-.5 2.1-.9 3.8-2.4 4.8-4.4.3-.5.5-1 .6-1.5.1-.3.1-.6.2-.9.1-.3.1-.5.1-.7.1-1.2 0-2.2-.4-3.2-.3-1-.9-1.9-1.7-2.6-.8-.7-1.7-1.2-2.7-1.4-2.1-.4-4 .6-5 1.9-.3.3-.4.7-.6 1.1-.1.2-.1.4-.2.7v.5c0 .8.2 1.5.5 2.1.6 1.1 1.5 1.8 2.3 2 .3.1.9.2.9.2h.3c.9.1 1.7-.6 1.7-1.5.1-.9-.6-1.7-1.5-1.7h-.3c-.1 0-.4-.2-.6-.5-.2-.4-.3-.7.1-1.3.2-.3.5-.5.8-.7.2-.1.3-.1.6-.1h.6c.9.2 1.8.9 2.2 2.1.2.5.3 1.3.2 1.9 0 .2-.1.5-.1.6 0 .1-.1.3-.1.4-.1.3-.2.7-.4 1-.7 1.3-1.9 2.3-3.3 2.9-.4.1-.7.2-1.1.3l-.5.1h-.7c-.6 0-1.5-.2-2.2-.5-1.5-.6-2.7-1.7-3.5-3-.8-1.2-1.1-2.7-1.2-4.2-.1-1.4.1-2.9.5-4.1.4-1.3 1-2.6 1.6-3.6.6-1.1 1.3-2 2-2.7.7-.8 1.3-1.4 1.9-1.9.2-.2.4-.3.5-.5h.1c1.9-.9 3.6-2.1 5.1-3.6.8-.7 1.4-1.6 2.1-2.5.1-.1.1-.2.3-.4l.2-.3.4-.6c.3-.5.6-1 .8-1.5.4-.9.8-1.8 1.1-2.7V495l-5.1-5.8-2.4 2.1 7.9 9-.1.1.7.7.7.7.1-.1 9 7.9 2.1-2.4-5.8-5.1h59.7c-.9.3-1.8.6-2.7 1.1-.5.2-1 .5-1.5.8l-.6.4-.3.2c-.2.1-.2.2-.4.3-.9.6-1.7 1.3-2.5 2.1-1.5 1.5-2.7 3.2-3.6 5.1v.1l-.5.5c-.5.6-1.2 1.2-1.9 1.9-.8.7-1.7 1.4-2.7 2-1 .6-2.3 1.2-3.6 1.6-1.3.4-2.7.6-4.1.5-1.4-.1-2.9-.4-4.2-1.2-1.3-.8-2.4-2-3-3.5-.3-.7-.5-1.6-.5-2.2v-.7l.1-.5c.1-.4.2-.7.3-1.1.5-1.4 1.6-2.7 2.9-3.3.3-.2.6-.3 1-.4.2-.1.3-.1.4-.1.1 0 .4-.1.6-.1.6-.1 1.3 0 1.9.2 1.2.4 1.9 1.3 2.1 2.2v.6c0 .3-.1.4-.1.6-.1.3-.4.6-.7.8-.6.3-.9.3-1.3.1-.4-.2-.5-.5-.5-.6v-.4c-.1-.9-.9-1.5-1.8-1.4-.9.1-1.5.9-1.4 1.8v.2s.1.6.2.9c.3.7.9 1.6 2 2.3.6.3 1.3.5 2.1.5h.5c.2 0 .5-.1.7-.2.4-.1.8-.3 1.1-.6 1.4-1 2.4-2.9 1.9-5-.2-1-.7-1.9-1.4-2.7-.7-.8-1.6-1.4-2.6-1.7-1-.3-2-.5-3.2-.4-.2 0-.4 0-.7.1-.3.1-.6.1-.9.2l-1.5.6c-1.9 1-3.5 2.7-4.4 4.8-.2.5-.4 1.1-.5 1.6-.1.3-.1.5-.1.9 0 .2 0 .5-.1.7 0 1.3.2 2.3.5 3.5.7 2.2 2 4.2 3.8 5.7 1.8 1.5 4 2.4 6.1 2.7 2.2.3 4.3.1 6.2-.4.2-.1.5-.1.7-.2.1 0 .2-.1.4-.1l.3-.1c.3-.1.9-.4 1.2-.6.8-.4 1.6-.8 2.2-1.3.3-.2.6-.4.8-.6 0 .3 0 .6.1.9l.1.8c.1.2.1.4.2.6l.1.3v.5l.3.7c1.5 3.8 4.4 6.6 7.9 8 3.4 1.4 7.2 1.2 10.3 0 .4-.1.8-.3 1.1-.5.4-.2.8-.4 1.1-.6.7-.4 1.4-1 2-1.6 1.2-1.2 2-2.5 2.5-3.9 1.1-2.8 1.2-5.9-.1-8.4-1.2-2.6-3.6-4.1-5.8-4.6-2.3-.5-4.4 0-6 .8-1.6.8-2.7 2.1-3.3 3.3-.6 1.2-.7 2.2-.7 2.9v.8c0 2.3 1.8 4.1 4.1 4.1s4.1-1.8 4.1-4.1c0-1.9-1.3-3.5-3-3.9.1 0 .2-.1.2-.1 1-.5 2.3-.8 3.8-.5 1.4.3 2.8 1.3 3.5 2.8.7 1.5.7 3.7-.1 5.7-.4 1-1 2-1.8 2.8-.8.8-1.8 1.4-3 1.8-2.3.9-5.2 1-7.7-.1-2.4-1-4.7-3.2-5.7-6l-.2-.5v-.2l-.1-.3c0-.2-.1-.4-.1-.6l-.1-.5c-.1-.7-.1-1.5 0-2.2.1-1.5.6-3 1.3-4.5.7-1.4 1.7-2.8 2.9-3.9.6-.6 1.2-1.1 1.9-1.5.1 0 .2-.2.2-.1l.3-.2.6-.4c.4-.2.7-.4 1.1-.5 3.1-1.4 6.8-2 10.5-1.7 7.5.5 14.7 4.2 22.3 8 7.5 3.7 15.3 7.5 23.3 10.9 4 1.7 8.1 3.2 12.1 4.7l3.1 1.1c1 .3 2 .7 3.1 1 2.1.7 4.2 1.3 6.3 1.9 4.2 1.2 8.4 2.1 12.7 2.6 4.3.5 8.6.5 12.8.3 2.1-.1 4.2-.3 6.3-.6l1.5-.2.8-.1.7-.1c1-.2 2.1-.4 3.1-.6 4-.9 8-2.4 11.6-4.7.4-.3.9-.6 1.3-.9l.7-.5.5-.4.3-.2.3-.3.6-.6c.4-.4.8-.7 1.1-1.1 1.5-1.5 2.7-3.1 3.8-4.9.2-.3.3-.6.5-1 .2.3.3.7.5 1 1 1.8 2.3 3.4 3.8 4.9l1.1 1.1.6.6.3.3.3.2.5.4.7.5c.4.3.9.6 1.3.9 3.6 2.2 7.6 3.7 11.6 4.7 1 .2 2 .5 3.1.6l.7.1.8.1 1.5.2c2.1.3 4.1.5 6.3.6 4.2.2 8.5.2 12.8-.3 4.3-.5 8.5-1.4 12.7-2.6 2.1-.6 4.2-1.2 6.3-1.9 1.1-.3 2-.7 3.1-1l3.1-1.1c4.1-1.5 8.2-3 12.1-4.7 8-3.4 15.7-7.1 23.3-10.9 7.5-3.8 14.8-7.5 22.3-8 3.7-.3 7.4.3 10.5 1.7.4.2.7.4 1.1.5l.6.4.3.2s.1.1.2.1c.7.5 1.3 1 1.9 1.5 1.2 1.1 2.2 2.5 2.9 3.9.7 1.4 1.2 3 1.3 4.5.1.7.1 1.5 0 2.2l-.1.5c0 .2-.1.4-.1.6l-.1.3v.2l-.2.5c-1 2.7-3.2 4.9-5.7 6-2.5 1.1-5.3 1-7.7.1-1.2-.4-2.2-1.1-3-1.8-.8-.8-1.4-1.8-1.8-2.8-.8-2-.8-4.2-.1-5.7.7-1.6 2.1-2.5 3.5-2.8 1.4-.3 2.8 0 3.8.5.1 0 .2.1.2.1-1.7.5-3 2.1-3 3.9 0 2.3 1.8 4.1 4.1 4.1s4.1-1.8 4.1-4.1v-.8c0-.7-.1-1.7-.7-2.9s-1.7-2.5-3.3-3.3c-1.6-.8-3.7-1.3-6-.8-2.2.5-4.6 2-5.8 4.6-1.2 2.5-1.2 5.7-.1 8.4.6 1.4 1.4 2.8 2.5 3.9.6.6 1.3 1.1 2 1.6.3.2.7.4 1.1.6.4.2.8.4 1.1.5 3.1 1.2 6.8 1.4 10.3 0 3.5-1.4 6.4-4.2 7.9-8l.3-.7v-.5l.1-.3c.1-.2.1-.4.2-.6l.1-.8c0-.3.1-.6.1-.9.3.2.5.4.8.6.7.5 1.4.9 2.2 1.3.4.2.9.4 1.2.6l.3.1c.2.1.2.1.4.1.2.1.5.2.7.2 1.9.6 4 .8 6.2.4 2.2-.3 4.3-1.2 6.1-2.7 1.8-1.5 3.1-3.5 3.8-5.7.3-1.1.5-2.2.5-3.5 0-.3 0-.5-.1-.7-.1-.4-.1-.6-.1-.9-.1-.6-.3-1.1-.5-1.6-.9-2.1-2.4-3.8-4.4-4.8-.5-.3-1-.5-1.5-.6-.3-.1-.6-.1-.9-.2-.3-.1-.5-.1-.7-.1-1.2-.1-2.2 0-3.2.4-1 .3-1.9.9-2.6 1.7-.7.8-1.2 1.7-1.4 2.7-.4 2.1.6 4 1.9 5 .3.3.7.4 1.1.6.2.1.4.1.7.2h.5c.8 0 1.5-.2 2.1-.5 1.1-.6 1.8-1.5 2-2.3.1-.3.2-.9.2-.9v-.3c.1-.9-.6-1.7-1.5-1.7-.9-.1-1.7.6-1.7 1.5v.3c0 .1-.2.4-.5.6-.4.2-.7.3-1.3-.1-.3-.2-.5-.5-.7-.8-.1-.2-.1-.3-.1-.6v-.6c.2-.9.9-1.8 2.1-2.2.5-.2 1.3-.3 1.9-.2.2 0 .5.1.6.1.1 0 .3.1.4.1.3.1.7.2 1 .4 1.3.7 2.3 1.9 2.9 3.3.1.4.2.7.3 1.1l.1.5v.7c0 .6-.2 1.5-.5 2.2-.6 1.5-1.7 2.7-3 3.5-1.2.8-2.7 1.1-4.2 1.2-1.4.1-2.9-.1-4.1-.5-1.3-.4-2.6-1-3.6-1.6-1.1-.6-2-1.3-2.7-2-.8-.7-1.4-1.3-1.9-1.9-.2-.2-.3-.4-.5-.5v-.1c-.9-1.9-2.1-3.6-3.6-5.1-.7-.8-1.6-1.4-2.5-2.1-.1-.1-.2-.1-.4-.3l-.3-.2-.6-.4c-.5-.3-1-.6-1.5-.8-.9-.4-1.8-.8-2.7-1.1H495l-5.8 5.1 2.1 2.4 9-7.9.1.1.7-.7.7-.7-.1-.1 7.9-9-2.4-2.1-5.1 5.8v-59c.3.9.6 1.8 1.1 2.7.2.5.5 1 .8 1.5l.4.6.2.3c.1.2.2.2.3.4.6.9 1.3 1.7 2.1 2.5 1.5 1.5 3.2 2.7 5.1 3.6h.1l.5.5c.6.5 1.2 1.2 1.9 1.9.7.8 1.4 1.7 2 2.7.6 1 1.2 2.3 1.6 3.6.4 1.3.6 2.7.5 4.1-.1 1.4-.4 2.9-1.2 4.2-.8 1.3-2 2.4-3.5 3-.7.3-1.6.5-2.2.5h-.7l-.5-.1c-.4-.1-.7-.2-1.1-.3-1.4-.5-2.7-1.6-3.3-2.9-.2-.3-.3-.6-.4-1-.1-.2-.1-.3-.1-.4 0-.1-.1-.4-.1-.6-.1-.6 0-1.3.2-1.9.4-1.2 1.3-1.9 2.2-2.1h.6c.3 0 .4.1.6.1.3.1.6.4.8.7.3.6.3.9.1 1.3-.2.4-.5.5-.6.5h-.4c-.9.1-1.5.9-1.4 1.8.1.9.9 1.5 1.8 1.4h.2s.6-.1.9-.2c.7-.3 1.6-.9 2.3-2 .3-.6.5-1.3.5-2.1v-.5c0-.2-.1-.5-.2-.7-.1-.4-.3-.8-.6-1.1-1-1.4-2.9-2.4-5-1.9-1 .2-1.9.7-2.7 1.4-.8.7-1.4 1.6-1.7 2.6-.3 1-.5 2-.4 3.2 0 .2 0 .4.1.7.1.3.1.6.2.9l.6 1.5c1 1.9 2.7 3.5 4.8 4.4.5.2 1.1.4 1.7.5.3.1.5.1.9.1.2 0 .5 0 .7.1 1.3 0 2.3-.2 3.5-.5 2.2-.7 4.2-2 5.7-3.8 1.5-1.8 2.4-4 2.7-6.1.3-2.2.1-4.3-.4-6.2-.1-.2-.1-.5-.2-.7 0-.1-.1-.2-.1-.4l-.1-.3c-.1-.3-.4-.9-.6-1.2-.4-.8-.8-1.6-1.3-2.2-.2-.3-.4-.6-.6-.8.3 0 .6 0 .9-.1l.8-.1c.2-.1.4-.1.6-.2l.3-.1h.5l.7-.3c3.8-1.5 6.6-4.4 8-7.9 1.4-3.4 1.2-7.2 0-10.3-.1-.4-.3-.8-.5-1.1-.2-.4-.4-.8-.6-1.1-.4-.7-1-1.4-1.6-2-1.2-1.2-2.5-2-3.9-2.5-2.8-1.1-5.9-1.2-8.4.1-2.6 1.2-4.1 3.6-4.6 5.8-.5 2.3 0 4.4.8 6 .8 1.6 2.1 2.7 3.3 3.3 1.2.6 2.2.7 2.9.7h.8c2.3 0 4.1-1.8 4.1-4.1s-1.8-4.1-4.1-4.1c-1.9 0-3.5 1.3-3.9 3 0-.1-.1-.2-.1-.2-.5-1-.8-2.3-.5-3.8.3-1.4 1.3-2.8 2.8-3.5 1.5-.7 3.7-.7 5.7.1 1 .4 2 1 2.8 1.8.8.8 1.4 1.8 1.8 3 .9 2.3 1 5.2-.1 7.7-1 2.4-3.2 4.7-6 5.7l-.5.2h-.2l-.3.1c-.2 0-.4.1-.6.1l-.5.1c-.7.1-1.5.1-2.2 0-1.5-.1-3-.6-4.5-1.3-1.4-.7-2.8-1.7-3.9-2.9-.6-.6-1.1-1.2-1.5-1.9 0-.1-.2-.2-.1-.2l-.2-.3-.4-.6c-.2-.4-.4-.7-.5-1.1-1.4-3.1-2-6.8-1.7-10.5.5-7.5 4.2-14.7 8-22.3 3.7-7.5 7.5-15.3 10.9-23.3 1.7-4 3.2-8.1 4.7-12.1l1.1-3.1c.3-1 .7-2 1-3.1.7-2.1 1.3-4.2 1.9-6.3 1.2-4.2 2.1-8.4 2.6-12.7.5-4.3.5-8.6.3-12.8-.1-2.4-.2-4.5-.5-6.5zm-33-147.7c.4 1.6.9 3.2 1.5 4.8 1.5 4 3.3 7.8 5.1 11.6 3.5 7.6 7.1 15.3 10.1 23.2 1.5 3.9 3 7.9 4.1 11.9.3 1 .6 2 .8 3 .2 1 .5 2.1.7 3.1.4 2 .8 4 1.1 6 .6 4 1 7.9 1.3 11.8-3.7-18-11.4-35.4-18.5-51.3-2.2-4.9-4.3-9.7-6.2-14.2v-9.9zm-.3 103.8c1-1 2.6-1.3 3.7-1.2.6.1 1.1.3 1.5.6l-.1-.1.1.1.1.1.2.2c.1.1.1.1.1.2l.3.6c.2.5.3 1 .3 1.5-.4-.2-.8-.3-1.3-.3-1.7 0-3 1.4-3 3s1.4 3 3 3c.6 0 1.1-.2 1.6-.5.1 0 .2 0 .2-.1 0 0 .1 0 .2-.1.2-.1.4-.2.7-.5.6-.5 1.3-1.3 1.8-2.6s.7-3 .1-4.9c-.2-.5-.4-1-.7-1.4-.2-.3-.4-.6-.6-.8l-.2-.2-.1-.1-.1-.1-.2-.2c-.9-.8-2-1.4-3.2-1.8-1.4-.4-2.9-.4-4.4 0v-85.5c1.6 3.8 3.4 7.7 5.2 11.8 8.3 18.6 17.5 39.4 20 60.5v2.1c-.3 7.6-1.5 15-4.6 20.4-3 5.4-8.5 8.9-13.4 8.6h-.4l-.4-.1c-.3 0-.6-.1-.9-.2-.6-.1-1.2-.3-1.7-.6-1.1-.5-2.1-1.1-2.9-1.8-.8-.7-1.5-1.6-1.9-2.5-.1-.2-.2-.4-.3-.7l-.1-.3-.1-.2v-.1c0 .1 0 0 0 0l-.1-.5-.1-.3c0-.2-.1-.5-.1-.7.1-1.6.8-3.4 1.8-4.3zM354.8 69c2 .3 4.1.7 6 1.1 1 .2 2 .5 3.1.7 1 .2 2 .5 3 .8 4 1.2 8 2.6 11.9 4.1 7.9 3.1 15.6 6.6 23.2 10.1 3.8 1.8 7.6 3.6 11.6 5.1 1.6.6 3.2 1.1 4.8 1.5h-9.9c-4.6-1.9-9.3-4-14.2-6.2-15.9-7.1-33.3-14.8-51.3-18.5 3.8.3 7.8.7 11.8 1.3zm-44 2.9c5.5-3.1 12.9-4.3 20.4-4.6h2.1c21.2 2.4 41.9 11.7 60.5 20 4.1 1.8 8 3.6 11.8 5.2h-85.5c.4-1.5.3-3 0-4.4-.3-1.2-1-2.4-1.8-3.2l-.2-.2-.1-.1-.1-.1-.2-.2c-.2-.2-.5-.4-.8-.6-.5-.3-1-.5-1.4-.7-1.9-.6-3.6-.4-4.9.1-1.3.5-2.1 1.2-2.6 1.8-.2.3-.4.5-.5.7l-.1.2c0 .1-.1.2-.1.2-.3.5-.5 1-.5 1.6 0 1.7 1.4 3 3 3 1.7 0 3-1.4 3-3 0-.5-.1-.9-.3-1.3.5 0 1 .1 1.5.3l.6.3c0 .1.1.1.2.1l.2.2.1.1.1.1-.1-.1c.3.4.5.9.6 1.5.2 1.2-.1 2.7-1.2 3.7-.9 1-2.7 1.7-4.6 1.5-.2 0-.5 0-.7-.1l-.3-.1-.5-.1s-.1 0 0 0h-.1l-.2-.1-.3-.1c-.2-.1-.4-.2-.7-.3-.9-.5-1.7-1.1-2.5-1.9-.7-.8-1.3-1.8-1.8-2.9-.2-.5-.4-1.1-.6-1.7-.1-.3-.1-.6-.2-.9l-.1-.4V85c0-4.6 3.5-10.1 8.9-13.1zM262 67.3h2.1c7.6.3 15 1.5 20.4 4.6 5.4 3 8.9 8.5 8.6 13.4v.4l-.1.4c0 .3-.1.6-.2.9-.1.6-.3 1.2-.6 1.7-.5 1.1-1.1 2.1-1.8 2.9-.7.8-1.6 1.5-2.5 1.9-.2.1-.4.2-.7.3l-.2.2-.2.1h-.1c.1 0 0 0 0 0l-.5.1-.3.1c-.2 0-.5.1-.7.1-1.9.1-3.6-.6-4.6-1.5-1-1-1.3-2.6-1.2-3.7.1-.6.3-1.1.6-1.5l-.1.1.1-.1.1-.1.2-.2c.1-.1.1-.1.2-.1l.6-.3c.5-.2 1-.3 1.5-.3-.2.4-.3.8-.3 1.3 0 1.7 1.4 3 3 3 1.7 0 3-1.4 3-3 0-.6-.2-1.1-.5-1.6 0-.1 0-.2-.1-.2 0 0 0-.1-.1-.2-.1-.2-.2-.4-.5-.7-.5-.6-1.3-1.3-2.6-1.8s-3-.7-4.9-.1c-.5.2-1 .4-1.4.7-.3.2-.6.4-.8.6l-.2.2-.1.1-.1.1-.2.2c-.8.9-1.4 2-1.8 3.2-.4 1.4-.4 2.9 0 4.4h-85.5c3.8-1.6 7.7-3.4 11.8-5.2 18.8-8.7 39.5-18 60.7-20.4zM181.7 91c4-1.5 7.8-3.3 11.6-5.1 7.6-3.5 15.3-7.1 23.2-10.1 3.9-1.5 7.9-3 11.9-4.1 1-.3 2-.6 3-.8 1-.2 2.1-.5 3.1-.7 2-.4 4-.8 6-1.1 4-.6 7.9-1 11.8-1.3-18 3.7-35.4 11.4-51.3 18.5-4.9 2.2-9.7 4.3-14.2 6.2h-9.9l4.8-1.5zM69 240.5c.3-2 .7-4.1 1.1-6 .2-1 .5-2 .7-3.1.2-1 .5-2 .8-3 1.2-4 2.6-8 4.1-11.9 3.1-7.9 6.6-15.6 10.1-23.2 1.8-3.8 3.6-7.6 5.1-11.6.6-1.6 1.1-3.2 1.5-4.8v9.9c-1.9 4.6-4 9.3-6.2 14.2-7.1 15.9-14.9 33.3-18.5 51.3.3-3.9.7-7.8 1.3-11.8zm2.9 44c-3.1-5.5-4.3-12.9-4.6-20.4V262c2.4-21.2 11.7-41.9 20-60.5 1.8-4.1 3.6-8 5.2-11.8v85.5c-1.5-.4-3-.3-4.4 0-1.2.3-2.4 1-3.2 1.8l-.2.2-.1.1-.1.1-.2.2c-.2.2-.4.5-.6.8-.3.5-.5 1-.7 1.4-.6 1.9-.4 3.6.1 4.9.5 1.3 1.2 2.1 1.8 2.6.3.2.5.4.7.5l.2.1c.1 0 .2.1.2.1.5.3 1 .5 1.6.5 1.7 0 3-1.4 3-3s-1.4-3-3-3c-.5 0-.9.1-1.3.3 0-.5.1-1 .3-1.5l.3-.6c.1 0 .1-.1.1-.2l.2-.2.1-.1.1-.1-.1.1c.4-.3.9-.5 1.5-.6 1.2-.2 2.7.1 3.7 1.2 1 .9 1.7 2.7 1.5 4.6 0 .2 0 .5-.1.7l-.1.3-.1.5s0 .1 0 0v.1h.3l-.1.3c-.1.2-.2.4-.3.7-.5.9-1.1 1.7-1.9 2.5-.8.7-1.8 1.3-2.9 1.8-.5.2-1.1.4-1.7.6-.3.1-.6.1-.9.2l-.4.1h-.4c-5 .2-10.5-3.3-13.5-8.7zm20.6 133.9c-.4-1.6-.9-3.2-1.5-4.8-1.5-4-3.3-7.8-5.1-11.6-3.5-7.6-7.1-15.3-10.1-23.2-1.5-3.9-3-7.9-4.1-11.9-.3-1-.6-2-.8-3-.2-1-.5-2.1-.7-3.1-.4-2-.8-4-1.1-6-.6-4-1-7.9-1.3-11.8 3.7 18 11.4 35.4 18.5 51.3 2.2 4.9 4.3 9.7 6.2 14.2v9.9zm.3-103.8c-1 1-2.6 1.3-3.7 1.2-.6-.1-1.1-.3-1.5-.6l.1.1-.1-.1-.1-.1-.2-.2c-.1-.1-.1-.1-.1-.2l-.3-.6c-.2-.5-.3-1-.3-1.5.4.2.8.3 1.3.3 1.7 0 3-1.4 3-3s-1.4-3-3-3c-.6 0-1.1.2-1.6.5-.1 0-.2 0-.2.1 0 0-.1 0-.2.1-.2.1-.4.2-.7.5-.6.5-1.3 1.3-1.8 2.6s-.7 3-.1 4.9c.2.5.4 1 .7 1.4.2.3.4.6.6.8l.2.2.1.1.1.1.2.2c.9.8 2 1.4 3.2 1.8 1.4.4 2.9.4 4.4 0v85.5c-1.6-3.8-3.4-7.7-5.2-11.8-8.3-18.6-17.5-39.4-20-60.5v-2.1c.3-7.6 1.5-15 4.6-20.4 3-5.4 8.5-8.9 13.4-8.6h.4l.4.1c.3 0 .6.1.9.2.6.1 1.2.3 1.7.6 1.1.5 2.1 1.1 2.9 1.8.8.7 1.5 1.6 1.9 2.5.1.2.2.4.3.7l.1.3.1.2v.1c0-.1 0 0 0 0l.1.5.1.3c0 .2.1.5.1.7-.1 1.6-.8 3.4-1.8 4.3zm147.7 211.7c-2-.3-4.1-.7-6-1.1-1-.2-2-.5-3.1-.7-1-.2-2-.5-3-.8-4-1.2-8-2.6-11.9-4.1-7.9-3.1-15.6-6.6-23.2-10.1-3.8-1.8-7.6-3.6-11.6-5.1-1.6-.6-3.2-1.1-4.8-1.5h9.9c4.6 1.9 9.3 4 14.2 6.2 15.9 7.1 33.3 14.9 51.3 18.5-3.9-.3-7.8-.7-11.8-1.3zm44-2.9c-5.5 3.1-12.9 4.3-20.4 4.6H262c-21.2-2.4-41.9-11.7-60.5-20-4.1-1.8-8-3.6-11.8-5.2h85.5c-.4 1.5-.3 3 0 4.4.3 1.2 1 2.4 1.8 3.2l.2.2.1.1.1.1.2.2c.2.2.5.4.8.6.5.3 1 .5 1.4.7 1.9.6 3.6.4 4.9-.1 1.3-.5 2.1-1.2 2.6-1.8.2-.3.4-.5.5-.7l.1-.2c0-.1.1-.2.1-.2.3-.5.5-1 .5-1.6 0-1.7-1.4-3-3-3-1.7 0-3 1.4-3 3 0 .5.1.9.3 1.3-.5 0-1-.1-1.5-.3l-.6-.3c0-.1-.1-.1-.2-.1l-.2-.2-.1-.1-.1-.1.1.1c-.3-.4-.5-.9-.6-1.5-.2-1.2.1-2.7 1.2-3.7.9-1 2.7-1.7 4.6-1.5.2 0 .5 0 .7.1l.3.1.5.1s.1 0 0 0h.1l.2.1.3.1c.2.1.4.2.7.3.9.5 1.7 1.1 2.5 1.9.7.8 1.3 1.8 1.8 2.9.2.5.4 1.1.6 1.7.1.3.1.6.2.9l.1.4v.4c0 4.6-3.5 10.1-8.9 13.1zm48.8 4.6h-2.1c-7.6-.3-15-1.5-20.4-4.6-5.4-3-8.9-8.5-8.6-13.4v-.4l.1-.4c0-.3.1-.6.2-.9.1-.6.3-1.2.6-1.7.5-1.1 1.1-2.1 1.8-2.9.7-.8 1.6-1.5 2.5-1.9.2-.1.4-.2.7-.3l.3-.1.2-.1h.1c-.1 0 0 0 0 0l.5-.1.3-.1c.2 0 .5-.1.7-.1 1.9-.1 3.6.6 4.6 1.5 1 1 1.3 2.6 1.2 3.7-.1.6-.3 1.1-.6 1.5l.1-.1-.1.1-.1.1-.2.2c-.1.1-.1.1-.2.1l-.6.3c-.5.2-1 .3-1.5.3.2-.4.3-.8.3-1.3 0-1.7-1.4-3-3-3-1.7 0-3 1.4-3 3 0 .6.2 1.1.5 1.6 0 .1 0 .2.1.2 0 0 0 .1.1.2.1.2.2.4.5.7.5.6 1.3 1.3 2.6 1.8s3 .7 4.9.1c.5-.2 1-.4 1.4-.7.3-.2.6-.4.8-.6l.2-.2.1-.1.1-.1.2-.2c.8-.9 1.4-2 1.8-3.2.4-1.4.4-2.9 0-4.4h85.5c-3.8 1.6-7.7 3.4-11.8 5.2-18.9 8.6-39.6 17.9-60.8 20.3zm80.3-23.7c-4 1.5-7.8 3.3-11.6 5.1-7.6 3.5-15.3 7.1-23.2 10.1-3.9 1.5-7.9 3-11.9 4.1-1 .3-2 .6-3 .8-1 .2-2.1.5-3.1.7-2 .4-4 .8-6 1.1-4 .6-7.9 1-11.8 1.3 18-3.7 35.4-11.4 51.3-18.5 4.9-2.2 9.7-4.3 14.2-6.2h9.9c-1.6.5-3.2.9-4.8 1.5zm78.4-11.1l-1.9 2.6 5.1 3.8H318.6c-.1-.1-.1-.2-.2-.3-2-2.5-5.1-3.9-8.5-3.9h-1.3l-.7.1-.5.1h-.4l-.3.1-.6.2c-.4.1-.8.3-1.2.4-1.6.7-3.2 1.7-4.5 3-1.1 1.1-2 2.3-2.8 3.6-.8-1.4-1.7-2.6-2.8-3.6-1.3-1.3-2.8-2.3-4.5-3-.4-.2-.8-.3-1.2-.4l-.6-.2-.3-.1h-.4l-.5-.1-.7-.1c-.5 0-.9-.1-1.3 0-3.3 0-6.5 1.4-8.5 3.9-.1.1-.1.2-.2.3H100.2l5.1-3.8-1.9-2.6-5 3.7 3.7-5-2.6-1.9-3.8 5.1V318.6c.1-.1.2-.1.3-.2 2.5-2 3.9-5.1 3.9-8.5v-1.3l-.1-.7-.1-.5v-.4l-.1-.3-.2-.6c-.1-.4-.3-.8-.4-1.2-.7-1.6-1.7-3.2-3-4.5-1.1-1.1-2.3-2-3.6-2.8 1.4-.8 2.6-1.7 3.6-2.8 1.3-1.3 2.3-2.8 3-4.5.2-.4.3-.8.4-1.2l.2-.6.1-.3v-.4l.1-.5.1-.7c0-.5.1-.9 0-1.3 0-3.3-1.4-6.5-3.9-8.5-.1-.1-.2-.1-.3-.2V100.2l3.8 5.1 2.6-1.9-3.7-5 5 3.7 1.9-2.6-5.1-3.8h176.5c.1.1.1.2.2.3 2 2.5 5.1 3.9 8.5 3.9h1.3l.7-.1.5-.1h.4l.3-.1.6-.2c.4-.1.8-.3 1.2-.4 1.6-.7 3.2-1.7 4.5-3 1.1-1.1 2-2.3 2.8-3.6.8 1.4 1.7 2.6 2.8 3.6 1.3 1.3 2.8 2.3 4.5 3 .4.2.8.3 1.2.4l.6.2.3.1h.4l.5.1.7.1c.5 0 .9.1 1.3 0 3.3 0 6.5-1.4 8.5-3.9.1-.1.1-.2.2-.3h176.5l-5.1 3.8 1.9 2.6 5-3.7-3.7 5 2.6 1.9 3.8-5.1v176.5c-.1.1-.2.1-.3.2-2.5 2-3.9 5.1-3.9 8.5v1.3l.1.7.1.5v.4l.1.3.2.6c.1.4.3.8.4 1.2.7 1.6 1.7 3.2 3 4.5 1.1 1.1 2.3 2 3.7 2.8-1.4.8-2.6 1.7-3.7 2.8-1.3 1.3-2.3 2.8-3 4.5-.2.4-.3.8-.4 1.2l-.2.6-.1.3v.4l-.1.5-.1.7c0 .5-.1.9 0 1.3 0 3.3 1.4 6.5 3.9 8.5.1.1.2.1.3.2v176.5l-3.8-5.1-2.6 1.9 3.7 5-5-3.8zm34.3-138.4c-.3 2-.7 4.1-1.1 6-.2 1-.5 2-.7 3.1-.2 1-.5 2-.8 3-1.2 4-2.6 8-4.1 11.9-3.1 7.9-6.6 15.6-10.1 23.2-1.8 3.8-3.6 7.6-5.1 11.6-.6 1.6-1.1 3.2-1.5 4.8v-9.9c1.9-4.6 4-9.3 6.2-14.2 7.1-15.9 14.9-33.3 18.5-51.3-.3 3.8-.7 7.8-1.3 11.8zm-18.3 39c-1.8 4.1-3.6 8-5.2 11.8v-85.5c1.5.4 3 .3 4.4 0 1.2-.3 2.4-1 3.2-1.8l.2-.2.1-.1.1-.1.2-.2c.2-.2.4-.5.6-.8.3-.5.5-1 .7-1.4.6-1.9.4-3.6-.1-4.9-.5-1.3-1.2-2.1-1.8-2.6-.3-.2-.5-.4-.7-.5l-.2-.1c-.1 0-.2-.1-.2-.1-.5-.3-1-.5-1.6-.5-1.7 0-3 1.4-3 3 0 1.7 1.4 3 3 3 .5 0 .9-.1 1.3-.3 0 .5-.1 1-.3 1.5l-.3.6c-.1 0-.1.1-.1.2l-.2.2-.1.1-.1.1.1-.1c-.4.3-.9.5-1.5.6-1.2.2-2.7-.1-3.7-1.2-1-.9-1.7-2.7-1.5-4.6 0-.2 0-.5.1-.7l.1-.3.1-.5s0-.1 0 0v-.1l.1-.2.1-.3c.1-.2.2-.4.3-.7.5-.9 1.1-1.7 1.9-2.5.8-.7 1.8-1.3 2.9-1.8.5-.2 1.1-.4 1.7-.6.3-.1.6-.1.9-.2l.4-.1h.4c5-.3 10.4 3.2 13.4 8.6 3.1 5.5 4.3 12.9 4.6 20.4v2.1c-2.7 21.5-12 42.2-20.3 60.8zm-2 120.1c0 2.7-2.2 4.8-4.8 4.8-2.7 0-4.8-2.2-4.8-4.8 0-2.7 2.2-4.8 4.8-4.8 2.7 0 4.8 2.2 4.8 4.8zm45.7-216.1s-4.8 4.4-10.8 4.4c-6 0-10.8-4.4-10.8-4.4s4.8-4.4 10.8-4.4c5.9 0 10.8 4.4 10.8 4.4zM80.6 324.7c-.4-.6-.7-1.2-1.1-1.8-.3-.6-.6-1.3-.8-2-.2-.7-.4-1.3-.6-2-.2-.7-.3-1.4-.4-2.1-.1-.7-.1-1.4-.1-2.1 0-.7.1-1.4.2-2.1.1-.7.2-1.4.4-2.1l.6-2.5-1.6 2.1c-.5.6-1 1.3-1.5 2s-.9 1.4-1.3 2.1c-.4.7-.8 1.4-1.2 2.2-.4.7-.7 1.5-1 2.3-.3.8-.6 1.5-.8 2.3-.2.8-.5 1.6-.6 2.4-.2.8-.3 1.6-.4 2.4-.1.8-.2 1.6-.2 2.5v2.5c0 .8.1 1.6.2 2.5.2 1.6.5 3.3.9 4.9.9 3.2 2.2 6.2 4.1 9 .3.4.6.8 1 1.2.4.4.8.8 1.2 1.1.5.3 1 .6 1.7.7.7.1 1.3 0 1.9-.3.5-.3 1-.7 1.4-1.3.3-.5.5-1.2.5-1.7.1-1.2-.2-2.3-.8-3.3l-.8-1.2-.8-1.2c-.5-.8-1-1.7-1.4-2.6-.6-1.2-1-2.4-1.3-3.7l.3.3c.6.5 1.2 1 2 1.3.4.2.8.3 1.3.3h.7c.2 0 .4-.1.6-.2.8-.3 1.4-.9 1.9-1.6.5-.7.7-1.6.7-2.4 0-.9-.3-1.6-.7-2.3-.8-1.4-1.8-2.4-2.8-3.5l-1.4-2.1zm3.7 7.6c0 .7-.2 1.2-.5 1.8-.3.5-.8.9-1.4 1.2-.2.1-.2.1-.4.1h-.4c-.3 0-.6-.1-.9-.2-.6-.2-1.2-.7-1.7-1.1-.5-.5-1-1-1.3-1.5l-.5-.8c-.1-.4-.2-.9-.3-1.4-.2-.9-.4-1.9-.4-2.6-.1-.7-.1-1.2-.1-1.2s-.1.5-.1 1.2 0 1.7.1 2.7c.1 1.9.3 3.9.3 3.9.2 1.6.7 3.1 1.4 4.5.4.9.9 1.8 1.4 2.7l.8 1.3.8 1.3c.4.7.6 1.6.6 2.4 0 .4-.2.8-.4 1.1-.2.3-.5.5-.8.7-.7.3-1.3.2-2-.3-.3-.2-.7-.6-1-.9-.3-.4-.5-.7-.8-1.1-1.7-2.6-2.9-5.5-3.7-8.5-.4-1.5-.7-3-.9-4.6-.1-.8-.1-1.6-.2-2.3v-2.4c0-.7.1-1.5.2-2.3.1-.8.2-1.5.3-2.3.1-.8.3-1.5.5-2.3.2-.8.4-1.5.7-2.2.3-.7.5-1.5.8-2.2.3-.7.6-1.4 1-2.1.4-.6.7-1.3 1.1-1.9-.1.6-.1 1.3-.1 1.9 0 .8 0 1.5.1 2.2.1.7.2 1.5.4 2.2.2.7.4 1.4.6 2.2l.9 2.1c.3.7.7 1.3 1.1 1.9.4.6.9 1.2 1.4 1.8 1 1.1 2 2.2 2.6 3.3.5.4.7 1.1.8 1.7zm14.6 181.6c0 2.7-2.2 4.8-4.8 4.8-2.7 0-4.8-2.2-4.8-4.8 0-2.7 2.2-4.8 4.8-4.8 2.6 0 4.8 2.2 4.8 4.8zM77.2 285.2l1.6 2.1-.6-2.5c-.2-.7-.3-1.4-.4-2.1-.1-.7-.1-1.4-.2-2.1 0-.7 0-1.4.1-2.1.1-.7.2-1.4.4-2.1.2-.7.4-1.4.6-2 .2-.7.5-1.3.8-2 .3-.6.7-1.2 1.1-1.8.4-.6.8-1.2 1.3-1.7.9-1.1 2-2.1 2.8-3.5.4-.7.6-1.5.7-2.3 0-.8-.2-1.7-.7-2.4-.5-.7-1.1-1.3-1.9-1.6-.2-.1-.4-.2-.6-.2h-.7c-.5 0-.9.1-1.3.3-.8.3-1.4.8-2 1.3l-.3.3c.2-1.3.7-2.5 1.3-3.7.4-.9.9-1.7 1.4-2.6l.8-1.2.8-1.2c.6-1 .9-2.1.8-3.3 0-.6-.2-1.2-.5-1.7-.4-.6-.8-1-1.4-1.3-.5-.3-1.2-.4-1.9-.3-.7.1-1.2.4-1.7.7-.5.3-.9.7-1.2 1.1-.4.4-.7.9-1 1.2-1.9 2.7-3.2 5.8-4.1 9-.4 1.6-.7 3.2-.9 4.9-.1.8-.2 1.6-.2 2.5v2.5c.1.9.1 1.7.2 2.5s.3 1.6.4 2.4l.6 2.4c.3.8.5 1.6.8 2.3.3.8.6 1.5 1 2.3.4.7.8 1.5 1.2 2.2.4.7.9 1.4 1.3 2.1.6.3 1.1 1 1.6 1.6zm-2.6-6.7c-.3-.7-.6-1.5-.8-2.2-.2-.7-.5-1.5-.7-2.2-.2-.8-.4-1.5-.5-2.3-.1-.8-.3-1.5-.3-2.3-.1-.8-.1-1.6-.2-2.3v-2.4c0-.8.1-1.6.2-2.3.2-1.5.5-3.1.9-4.6.8-3 2-5.9 3.7-8.5.3-.4.5-.8.8-1.1.3-.3.6-.7 1-.9.7-.5 1.4-.6 2-.3.3.2.7.4.8.7.2.3.3.7.4 1.1.1.8-.1 1.7-.6 2.4l-.8 1.3-.8 1.3c-.5.9-1 1.8-1.4 2.7-.6 1.4-1.2 2.9-1.4 4.5 0 0-.2 1.9-.3 3.9-.1 1-.1 2-.1 2.7 0 .7.1 1.2.1 1.2s0-.5.1-1.2.2-1.7.4-2.6c.1-.5.2-.9.3-1.4l.5-.8c.3-.5.8-1.1 1.3-1.5.5-.4 1.1-.9 1.7-1.1.3-.1.6-.2.9-.2h.4c.2 0 .3.1.4.1.6.2 1.1.7 1.4 1.2.3.5.5 1.1.5 1.8 0 .6-.2 1.2-.5 1.8-.6 1.2-1.7 2.2-2.6 3.3-.5.6-.9 1.1-1.4 1.8-.4.6-.8 1.3-1.1 1.9l-.9 2.1c-.3.7-.5 1.4-.6 2.2-.2.7-.3 1.5-.4 2.2-.1.7-.1 1.5-.1 2.2 0 .6.1 1.3.1 1.9-.4-.6-.8-1.2-1.1-1.9-.7-.8-1-1.5-1.3-2.2zM89.2 81.4c0-2.7 2.2-4.8 4.8-4.8 2.7 0 4.8 2.2 4.8 4.8 0 2.7-2.2 4.8-4.8 4.8-2.6 0-4.8-2.2-4.8-4.8zm-24 216.1s-4.8 4.4-10.8 4.4-10.8-4.4-10.8-4.4 4.8-4.4 10.8-4.4 10.8 4.4 10.8 4.4z"/></svg>