<svg id="Layer_1" xmlns="http://www.w3.org/2000/svg" viewBox="0 0 595.3 595.3"><style>.st0{fill:#414042}</style><path class="st0" d="M41.3 516.4l-4-4c-7.5-7.5-7.5-19.7 0-27.2 6.8-6.8 17.8-6.8 24.5 0 1 1 1 2.6 0 3.6s-2.6 1-3.6 0c-4.8-4.8-12.5-4.8-17.3 0-5.5 5.5-5.5 14.5 0 20l4 4c7.7 7.7 20.3 7.7 28.1 0l25.5-25.5c-2.8.8-5.8 1.4-8.7 2.1-14.1 3.2-27.5 6.1-27.5 22.1 0 1.4-1.1 2.6-2.6 2.6-1.4 0-2.6-1.1-2.6-2.6 0-20 16.7-23.7 31.5-27 7.7-1.7 15-3.3 19.7-7 1.1-.8 2.6-.7 3.5.3.9 1 .8 2.5-.1 3.5l-35.2 35.2c-9.6 9.7-25.4 9.7-35.2-.1zm65.2 17.1c-1 1-1 2.6 0 3.6 4.8 4.8 4.8 12.5 0 17.3-5.5 5.5-14.5 5.5-20 0l-4-4.1c-7.7-7.8-7.7-20.4 0-28.1l25.6-25.5c-.8 2.8-1.5 5.8-2.1 8.7-3.2 14.1-6.2 27.5-22.1 27.5-1.4 0-2.6 1.1-2.6 2.6 0 1.4 1.1 2.6 2.6 2.6 20 0 23.8-16.7 27.1-31.5 1.7-7.7 3.4-15 7-19.7.8-1.1.7-2.6-.3-3.5-1-.9-2.5-.8-3.5.1L79 518.7c-9.7 9.7-9.8 25.6 0 35.3l4 4.1c7.5 7.5 19.7 7.5 27.2 0 6.8-6.8 6.8-17.8 0-24.5-1-1.1-2.7-1.1-3.7-.1zm-39.1-45.6c3.9-4 6.2-9.5 6.2-15.5s-2.4-11.5-6.2-15.5c-3.9 4-6.2 9.5-6.2 15.5s2.4 11.5 6.2 15.5zm-18.3 58.3c5.6-.1 11.1-2.3 15.4-6.6 4.3-4.3 6.4-9.8 6.6-15.4-5.6.1-11.1 2.3-15.4 6.6-4.3 4.3-6.5 9.8-6.6 15.4zm58.2-18.5c4 3.9 9.5 6.2 15.5 6.2s11.5-2.4 15.5-6.2c-4-3.9-9.5-6.2-15.5-6.2s-11.5 2.4-15.5 6.2zm373.9-44.3c-1-1-2.5-1-3.5-.1s-1.2 2.4-.3 3.5c3.6 4.7 5.3 12 7 19.7 3.3 14.8 7 31.5 27 31.5 1.4 0 2.6-1.1 2.6-2.6 0-1.4-1.1-2.6-2.6-2.6-15.9 0-18.9-13.4-22.1-27.5-.6-2.9-1.3-5.9-2.1-8.7l25.5 25.5c7.7 7.7 7.7 20.3 0 28.1l-4 4c-5.5 5.5-14.5 5.5-20 0-4.8-4.8-4.8-12.5 0-17.3 1-1 1-2.6 0-3.6s-2.6-1-3.6 0c-6.8 6.8-6.8 17.8 0 24.5 7.5 7.5 19.7 7.5 27.2 0l4-4c9.7-9.7 9.7-25.6 0-35.3l-35.1-35.1zm52.3 1.7c-1 1-1 2.6 0 3.6s2.6 1 3.6 0c4.8-4.8 12.5-4.8 17.3 0 5.5 5.5 5.5 14.5 0 20l-4.1 4c-7.8 7.7-20.4 7.7-28.1 0l-25.5-25.6c2.8.8 5.8 1.5 8.7 2.1 14.1 3.2 27.5 6.2 27.5 22.1 0 1.4 1.1 2.6 2.6 2.6 1.4 0 2.6-1.1 2.6-2.6 0-20-16.7-23.8-31.5-27.1-7.7-1.7-15-3.4-19.7-7-1.1-.8-2.6-.7-3.5.3-.9 1-.8 2.5.1 3.5l35.2 35.2c9.7 9.7 25.6 9.8 35.3 0l4.1-4c7.5-7.5 7.5-19.7 0-27.2-6.8-6.6-17.8-6.7-24.6.1zm-61.2 36.5c-6 0-11.5 2.4-15.5 6.2 4 3.9 9.5 6.2 15.5 6.2s11.5-2.4 15.5-6.2c-4-3.9-9.4-6.2-15.5-6.2zm51.9 2.6c.1 5.6 2.3 11.1 6.6 15.4 4.3 4.3 9.8 6.4 15.4 6.6-.1-5.6-2.3-11.1-6.6-15.4-4.3-4.3-9.8-6.5-15.4-6.6zm3.5-36.2c3.9-4 6.2-9.5 6.2-15.5s-2.4-11.5-6.2-15.5c-3.9 4-6.2 9.5-6.2 15.5-.1 6 2.3 11.4 6.2 15.5zm-9.1-409.2L483.4 114c-1 1-1 2.5-.1 3.5s2.4 1.2 3.5.3c4.7-3.6 12-5.3 19.7-7 14.8-3.3 31.5-7 31.5-27 0-1.4-1.1-2.6-2.6-2.6-1.4 0-2.6 1.1-2.6 2.6 0 15.9-13.4 18.9-27.5 22.1-2.9.6-5.9 1.3-8.7 2.1l25.5-25.5c7.7-7.7 20.3-7.7 28.1 0l4 4c5.5 5.5 5.5 14.5 0 20-4.8 4.8-12.5 4.8-17.3 0-1-1-2.6-1-3.6 0s-1 2.6 0 3.6c6.8 6.8 17.8 6.8 24.5 0 7.5-7.5 7.5-19.7 0-27.2l-4-4c-9.6-9.8-25.4-9.8-35.2-.1zm-29.9-17.1c1-1 1-2.6 0-3.6-4.8-4.8-4.8-12.5 0-17.3 5.5-5.5 14.5-5.5 20 0l4 4.1c7.7 7.8 7.7 20.4 0 28.1l-25.6 25.5c.8-2.8 1.5-5.8 2.1-8.7 3.2-14.1 6.2-27.5 22.1-27.5 1.4 0 2.6-1.1 2.6-2.6 0-1.4-1.1-2.6-2.6-2.6-20 0-23.8 16.7-27.1 31.5-1.7 7.7-3.4 15-7 19.7-.8 1.1-.7 2.6.3 3.5 1 .9 2.5.8 3.5-.1l35.2-35.2c9.7-9.7 9.8-25.6 0-35.3l-4-4.1c-7.5-7.5-19.7-7.5-27.2 0-6.8 6.8-6.8 17.8 0 24.5 1.1 1.1 2.7 1.1 3.7.1zm39.1 45.7c-3.9 4-6.2 9.5-6.2 15.5s2.4 11.5 6.2 15.5c3.9-4 6.2-9.5 6.2-15.5.1-6-2.3-11.5-6.2-15.5zm18.4-58.3c-5.6.1-11.1 2.3-15.4 6.6-4.3 4.3-6.4 9.8-6.6 15.4 5.6-.1 11.1-2.3 15.4-6.6 4.3-4.3 6.5-9.8 6.6-15.4zM488 67.5c-4-3.9-9.5-6.2-15.5-6.2S461 63.7 457 67.5c4 3.9 9.5 6.2 15.5 6.2 6 .1 11.5-2.3 15.5-6.2zm-373.9 44.4c1 1 2.5 1 3.5.1s1.2-2.4.3-3.5c-3.6-4.7-5.3-12-7-19.7-3.3-14.8-7-31.5-27-31.5-1.4 0-2.6 1.1-2.6 2.6 0 1.4 1.1 2.6 2.6 2.6 15.9 0 18.9 13.4 22.1 27.5.6 2.9 1.3 5.9 2.1 8.7L82.5 73.1c-7.7-7.7-7.7-20.3 0-28.1l4-4c5.5-5.5 14.5-5.5 20 0 4.8 4.8 4.8 12.5 0 17.3-1 1-1 2.6 0 3.6s2.6 1 3.6 0c6.8-6.8 6.8-17.8 0-24.5-7.5-7.5-19.7-7.5-27.2 0l-4 4c-9.7 9.7-9.7 25.6 0 35.3l35.2 35.2zm-52.3-1.7c1-1 1-2.6 0-3.6s-2.6-1-3.6 0c-4.8 4.8-12.5 4.8-17.3 0-5.5-5.5-5.5-14.5 0-20l4.1-4c7.8-7.7 20.4-7.7 28.1 0l25.5 25.6c-2.8-.8-5.8-1.5-8.7-2.1-14.1-3.2-27.5-6.2-27.5-22.1 0-1.4-1.1-2.6-2.6-2.6-1.4 0-2.6 1.1-2.6 2.6 0 20 16.7 23.8 31.5 27.1 7.7 1.7 15 3.4 19.7 7 1.1.8 2.6.7 3.5-.3.9-1 .8-2.5-.1-3.5L76.7 78.9c-9.7-9.7-25.6-9.8-35.3 0l-4.1 4c-7.5 7.5-7.5 19.7 0 27.2 6.7 6.8 17.7 6.8 24.5.1zm45.6-42.7c4 3.9 9.5 6.2 15.5 6.2s11.5-2.4 15.5-6.2c-4-3.9-9.5-6.2-15.5-6.2-6-.1-11.4 2.3-15.5 6.2zm-36.3 3.6c-.1-5.6-2.3-11.1-6.6-15.4-4.3-4.3-9.8-6.4-15.4-6.6.1 5.6 2.3 11.1 6.6 15.4 4.2 4.3 9.8 6.5 15.4 6.6zm-3.5 36.2c-3.9 4-6.2 9.5-6.2 15.5s2.4 11.5 6.2 15.5c3.9-4 6.2-9.5 6.2-15.5s-2.4-11.4-6.2-15.5zm1.3 36.7h-3v306h3V144zm460.4 0h-3v306h3V144zM144.6 68.3h306v-3h-306v3zm0 460.4h306v-3h-306v3z"/></svg>