<svg id="Layer_1" xmlns="http://www.w3.org/2000/svg" viewBox="0 0 595.3 595.3"><style>.st0{fill:#414042}</style><path class="st0" d="M297.6 78.7c-2.7-3.2-4.3-7.3-4.3-11.7 0-4.5 1.5-8.6 4.1-11.8 2.7 3.2 4.3 7.3 4.3 11.7s-1.4 8.6-4.1 11.8zm-12.3-1c-3.9 2.2-9.2 2-12.4-1.4-2.9-3.1-2.7-8.2.5-10.9 2.1-1.7 5.1 1.2 3 3-2.9 2.4-.7 6 2.6 6.5 3.1.5 6.4-1.6 7.4-4.5 2.4-6.8-4.9-10.8-10.7-10.1-3.6.4-6.9 1.7-10.2 3.4 1.3 1.5 2.3 3.2 2.9 5.1 1.9 5.9-.1 12.5-4.9 16.4-5.1 4.1-13.1 4.7-18 0-2.7-2.5-3.6-6-2.8-9.3-6.3 1.6-13.4 1.1-18.6-2.9-3.1 2-6.2 3.9-9.4 5.6-11.5 6.2-26.1 10-37.6 1.8-8.6-6.1-11.8-19-4.1-27.3 7.8-8.4 24.7-2.7 23.2 9.6-.3 2.7-4.6 2.7-4.2 0 .8-6.4-6.6-11.4-12.5-9.1-6.1 2.3-7.9 10.5-5.8 16.2 2.5 6.6 9.8 10.3 16.5 11 8.3.8 16.3-2.5 23.4-6.5 2.4-1.3 4.9-2.9 7.4-4.5-3.8-5.4-3.6-13.8 2-18 6.2-4.7 16.4-.1 16.2 7.8 5.1-2 10.5-2.9 16-1.9 2.6.5 5.1 1.6 7.3 3.1 6.9-4 15-7.2 22.4-3.2l1.7 1.1 1.8 1.7c4.2 5.3 3.4 13.6-3.1 17.3zm-60.7-10.2c3.4-2.2 6.9-4.3 10.5-6.1-.2-.3-.2-.6-.2-1.1.5-5.2-6.3-8.2-10-4.6-3.2 3.1-2.9 8.4-.3 11.8zm32.6-3.4c.4-.3.8-.5 1.3-.8-.3-.1-.5-.3-.8-.4-7.8-3.4-16.5.2-23.5 4-2.1 1.1-4.2 2.4-6.2 3.6 9 5.8 21.2-1.5 29.2-6.4zm4.6 1.7c-4.5 2.7-8.8 5.9-13.3 8-3.2 2.5-1.8 7.3 1.3 9.1 3.7 2.2 8.5 1.2 11.7-1.5 4.8-4.3 4.3-11.2.3-15.6zm45.2-5.3l1.8-1.7 1.7-1.1c7.4-4 15.4-.8 22.4 3.2 2.2-1.5 4.7-2.6 7.3-3.1 5.5-1.1 10.9-.1 16 1.9-.2-7.9 10.1-12.5 16.2-7.8 5.6 4.2 5.8 12.6 2 18 2.5 1.6 5 3.2 7.4 4.5 7.1 3.9 15.1 7.2 23.4 6.5 6.7-.6 14.1-4.3 16.5-11 2.1-5.7.4-13.8-5.8-16.2-5.9-2.2-13.2 2.8-12.5 9.1.3 2.7-3.9 2.6-4.2 0-1.5-12.3 15.5-18 23.2-9.6 7.6 8.3 4.5 21.2-4.1 27.3-11.5 8.1-26.2 4.3-37.6-1.8-3.2-1.7-6.3-3.7-9.4-5.6-5.2 4-12.2 4.5-18.6 2.9.7 3.2-.2 6.7-2.8 9.3-5 4.7-13 4.1-18 0-4.9-3.9-6.8-10.5-4.9-16.4.6-1.9 1.6-3.6 2.9-5.1-3.2-1.7-6.6-3-10.2-3.4-5.8-.7-13.1 3.3-10.7 10.1 1 3 4.3 5 7.4 4.5 3.3-.5 5.5-4 2.6-6.5-2.1-1.7.9-4.7 3-3 3.3 2.7 3.5 7.8.5 10.9-3.2 3.3-8.5 3.6-12.4 1.4-6.6-3.8-7.4-12.1-3.1-17.3zm63.4-4.8c-3.7-3.6-10.5-.5-10 4.6 0 .4 0 .8-.2 1.1 3.6 1.8 7.1 3.9 10.5 6.1 2.5-3.4 2.9-8.7-.3-11.8zm-3.1 14.8c-2-1.3-4.1-2.5-6.2-3.6-7-3.8-15.7-7.4-23.5-4-.3.1-.5.2-.8.4.4.3.9.5 1.3.8 8 4.9 20.1 12.2 29.2 6.4zm-33.3 11c3.1 2.7 8 3.7 11.7 1.5 3.1-1.9 4.5-6.6 1.3-9.1-4.6-2.1-8.9-5.3-13.3-8-4.2 4.3-4.8 11.2.3 15.6zm-267.1 212c-4.5 0-8.6 1.7-11.7 4.3 3.2 2.6 7.3 4.2 11.8 4.1 4.5 0 8.6-1.7 11.7-4.3-3.2-2.6-7.4-4.1-11.8-4.1zM77.7 310c2.2 3.9 2 9.2-1.4 12.4-3.1 2.9-8.2 2.7-10.9-.5-1.7-2.1 1.2-5.1 3-3 2.4 2.9 6 .7 6.5-2.6.5-3.1-1.6-6.4-4.5-7.4-6.8-2.4-10.8 4.9-10.1 10.7.4 3.6 1.7 6.9 3.4 10.2 1.5-1.3 3.2-2.3 5.1-2.9 5.9-1.9 12.5.1 16.4 4.9 4.1 5.1 4.7 13.1 0 18-2.5 2.7-6 3.6-9.3 2.8C77.4 359 77 366 73 371.2c2 3.1 3.9 6.2 5.6 9.4 6.2 11.5 10 26.1 1.8 37.6-6.1 8.6-19 11.8-27.3 4.1-8.4-7.8-2.7-24.7 9.6-23.2 2.7.3 2.7 4.6 0 4.2-6.4-.8-11.4 6.6-9.1 12.5 2.3 6.1 10.5 7.9 16.2 5.8 6.6-2.5 10.3-9.8 11-16.5.8-8.3-2.5-16.3-6.5-23.4-1.3-2.4-2.9-4.9-4.5-7.4-5.4 3.8-13.8 3.6-18-2-4.7-6.2-.1-16.4 7.8-16.2-2-5.1-2.9-10.5-1.9-16 .5-2.6 1.6-5.1 3.1-7.3-4-6.9-7.2-15-3.2-22.4l1.1-1.7 1.7-1.8c5.3-4.2 13.6-3.4 17.3 3.1zm-10.2 60.7c-2.2-3.4-4.3-6.9-6.1-10.5-.3.2-.6.2-1.1.2-5.2-.5-8.2 6.3-4.6 10 3.1 3.2 8.4 2.8 11.8.3zm-3.4-32.6c-.3-.4-.5-.8-.8-1.3-.1.3-.3.5-.4.8-3.4 7.8.2 16.5 4 23.5 1.1 2.1 2.4 4.2 3.6 6.2 5.8-9.1-1.5-21.2-6.4-29.2zm1.7-4.6c2.7 4.5 5.9 8.8 8 13.3 2.5 3.2 7.3 1.8 9.1-1.3 2.2-3.7 1.2-8.5-1.5-11.7-4.3-4.9-11.2-4.3-15.6-.3zm-5.3-45.2l-1.7-1.8-1.1-1.7c-4-7.4-.8-15.4 3.2-22.4-1.5-2.2-2.6-4.7-3.1-7.3-1.1-5.5-.1-10.9 1.9-16-7.9.2-12.5-10.1-7.8-16.2 4.2-5.6 12.6-5.8 18-2 1.6-2.5 3.2-5 4.5-7.4 3.9-7.1 7.2-15.1 6.5-23.4-.6-6.7-4.3-14.1-11-16.5-5.7-2.1-13.8-.4-16.2 5.8-2.2 5.9 2.8 13.2 9.1 12.5 2.7-.3 2.6 3.9 0 4.2-12.3 1.5-18-15.5-9.6-23.2 8.3-7.6 21.2-4.5 27.3 4.1 8.1 11.5 4.3 26.2-1.8 37.6-1.7 3.2-3.7 6.3-5.6 9.4 4 5.2 4.5 12.2 2.9 18.6 3.2-.7 6.7.2 9.3 2.8 4.7 5 4.1 13 0 18-3.9 4.9-10.5 6.8-16.4 4.9-1.9-.6-3.6-1.6-5.1-2.9-1.7 3.2-3 6.6-3.4 10.2-.7 5.8 3.3 13.1 10.1 10.7 3-1 5-4.3 4.5-7.4-.5-3.3-4-5.5-6.5-2.6-1.7 2.1-4.7-.9-3-3 2.7-3.3 7.8-3.5 10.9-.5 3.3 3.2 3.6 8.5 1.4 12.4-3.8 6.6-12.1 7.4-17.3 3.1zm-4.8-63.4c-3.6 3.7-.5 10.5 4.6 10 .4 0 .8 0 1.1.2 1.8-3.6 3.9-7.1 6.1-10.5-3.4-2.6-8.7-2.9-11.8.3zm14.8 3c-1.3 2-2.5 4.1-3.6 6.2-3.8 7-7.4 15.7-4 23.5.1.3.2.5.4.8.3-.4.5-.9.8-1.3 4.9-7.9 12.2-20.1 6.4-29.2zm11 33.4c2.7-3.1 3.7-8 1.5-11.7-1.9-3.1-6.6-4.5-9.1-1.3-2.1 4.6-5.3 8.9-8 13.3 4.3 4.2 11.2 4.7 15.6-.3zm212 267.1c0 4.5 1.7 8.6 4.3 11.7 2.6-3.2 4.2-7.3 4.1-11.8 0-4.5-1.7-8.6-4.3-11.7-2.6 3.2-4.1 7.3-4.1 11.8zm16.5-10.8c3.9-2.2 9.2-2 12.4 1.4 2.9 3.1 2.7 8.2-.5 10.9-2.1 1.7-5.1-1.2-3-3 2.9-2.4.7-6-2.6-6.5-3.1-.5-6.4 1.6-7.4 4.5-2.4 6.8 4.9 10.8 10.7 10.1 3.6-.4 6.9-1.7 10.2-3.4-1.3-1.5-2.3-3.2-2.9-5.1-1.9-5.9.1-12.5 4.9-16.4 5.1-4.1 13.1-4.7 18 0 2.7 2.5 3.6 6 2.8 9.3 6.3-1.6 13.4-1.1 18.6 2.9 3.1-2 6.2-3.9 9.4-5.6 11.5-6.2 26.1-10 37.6-1.8 8.6 6.1 11.8 19 4.1 27.3-7.8 8.4-24.7 2.7-23.2-9.6.3-2.7 4.6-2.7 4.2 0-.8 6.4 6.6 11.4 12.5 9.1 6.1-2.3 7.9-10.5 5.8-16.2-2.5-6.6-9.8-10.3-16.5-11-8.3-.8-16.3 2.5-23.4 6.5-2.4 1.3-4.9 2.9-7.4 4.5 3.8 5.4 3.6 13.8-2 18-6.2 4.7-16.4.1-16.2-7.8-5.1 2-10.5 2.9-16 1.9-2.6-.5-5.1-1.6-7.3-3.1-6.9 4-15 7.2-22.4 3.2l-1.7-1.1-1.8-1.7c-4.2-5.3-3.4-13.6 3.1-17.3zm60.7 10.2c-3.4 2.2-6.9 4.3-10.5 6.1.2.3.2.6.2 1.1-.5 5.2 6.3 8.2 10 4.6 3.2-3.2 2.8-8.4.3-11.8zm-32.6 3.4c-.4.3-.8.5-1.3.8.3.1.5.3.8.4 7.8 3.4 16.5-.2 23.5-4 2.1-1.1 4.2-2.4 6.2-3.6-9.1-5.8-21.2 1.4-29.2 6.4zm-4.6-1.7c4.5-2.7 8.8-5.9 13.3-8 3.2-2.5 1.8-7.3-1.3-9.1-3.7-2.2-8.5-1.2-11.7 1.5-4.9 4.3-4.3 11.2-.3 15.6zm-45.2 5.3l-1.8 1.7-1.7 1.1c-7.4 4-15.4.8-22.4-3.2-2.2 1.5-4.7 2.6-7.3 3.1-5.5 1.1-10.9.1-16-1.9.2 7.9-10.1 12.5-16.2 7.8-5.6-4.2-5.8-12.6-2-18-2.5-1.6-5-3.2-7.4-4.5-7.1-3.9-15.1-7.2-23.4-6.5-6.7.6-14.1 4.3-16.5 11-2.1 5.7-.4 13.8 5.8 16.2 5.9 2.2 13.2-2.8 12.5-9.1-.3-2.7 3.9-2.6 4.2 0 1.5 12.3-15.5 18-23.2 9.6-7.6-8.3-4.5-21.2 4.1-27.3 11.5-8.1 26.2-4.3 37.6 1.8 3.2 1.7 6.3 3.7 9.4 5.6 5.2-4 12.2-4.5 18.6-2.9-.7-3.2.2-6.7 2.8-9.3 5-4.7 13-4.1 18 0 4.9 3.9 6.8 10.5 4.9 16.4-.6 1.9-1.6 3.6-2.9 5.1 3.2 1.7 6.6 3 10.2 3.4 5.8.7 13.1-3.3 10.7-10.1-1-3-4.3-5-7.4-4.5-3.3.5-5.5 4-2.6 6.5 2.1 1.7-.9 4.7-3 3-3.3-2.7-3.5-7.8-.5-10.9 3.2-3.3 8.5-3.6 12.4-1.4 6.6 3.8 7.4 12.1 3.1 17.3zm-63.4 4.8c3.7 3.6 10.5.5 10-4.6 0-.4 0-.8.2-1.1-3.6-1.8-7.1-3.9-10.5-6.1-2.6 3.4-2.9 8.6.3 11.8zm3-14.9c2 1.3 4.1 2.5 6.2 3.6 7 3.8 15.7 7.4 23.5 4 .3-.1.5-.2.8-.4-.4-.3-.9-.5-1.3-.8-7.9-4.9-20.1-12.1-29.2-6.4zm33.4-10.9c-3.1-2.7-8-3.7-11.7-1.5-3.1 1.9-4.5 6.6-1.3 9.1 4.6 2.1 8.9 5.3 13.3 8 4.2-4.3 4.7-11.2-.3-15.6zm267.1-212c4.5 0 8.6-1.7 11.7-4.3-3.2-2.6-7.3-4.2-11.8-4.1-4.5 0-8.6 1.7-11.7 4.3 3.2 2.6 7.3 4.1 11.8 4.1zm-10.8-16.5c-2.2-3.9-2-9.2 1.4-12.4 3.1-2.9 8.2-2.7 10.9.5 1.7 2.1-1.2 5.1-3 3-2.4-2.9-6-.7-6.5 2.6-.5 3.1 1.6 6.4 4.5 7.4 6.8 2.4 10.8-4.9 10.1-10.7-.4-3.6-1.7-6.9-3.4-10.2-1.5 1.3-3.2 2.3-5.1 2.9-5.9 1.9-12.5-.1-16.4-4.9-4.1-5.1-4.7-13.1 0-18 2.5-2.7 6-3.6 9.3-2.8-1.6-6.3-1.1-13.4 2.9-18.6-2-3.1-3.9-6.2-5.6-9.4-6.2-11.5-10-26.1-1.8-37.6 6.1-8.6 19-11.8 27.3-4.1 8.4 7.8 2.7 24.7-9.6 23.2-2.7-.3-2.7-4.6 0-4.2 6.4.8 11.4-6.6 9.1-12.5-2.3-6.1-10.5-7.9-16.2-5.8-6.6 2.5-10.3 9.8-11 16.5-.8 8.3 2.5 16.3 6.5 23.4 1.3 2.4 2.9 4.9 4.5 7.4 5.4-3.8 13.8-3.6 18 2 4.7 6.2.1 16.4-7.8 16.2 2 5.1 2.9 10.5 1.9 16-.5 2.6-1.6 5.1-3.1 7.3 4 6.9 7.2 15 3.2 22.4l-1.1 1.7-1.7 1.8c-5.3 4.2-13.6 3.4-17.3-3.1zm10.2-60.7c2.2 3.4 4.3 6.9 6.1 10.5.3-.2.6-.2 1.1-.2 5.2.5 8.2-6.3 4.6-10-3.2-3.2-8.4-2.9-11.8-.3zm3.4 32.6c.3.4.5.8.8 1.3.1-.3.3-.5.4-.8 3.4-7.8-.2-16.5-4-23.5-1.1-2.1-2.4-4.2-3.6-6.2-5.8 9 1.4 21.2 6.4 29.2zm-1.7 4.6c-2.7-4.5-5.9-8.8-8-13.3-2.5-3.2-7.3-1.8-9.1 1.3-2.2 3.7-1.2 8.5 1.5 11.7 4.3 4.8 11.2 4.3 15.6.3zm5.3 45.2l1.7 1.8 1.1 1.7c4 7.4.8 15.4-3.2 22.4 1.5 2.2 2.6 4.7 3.1 7.3 1.1 5.5.1 10.9-1.9 16 7.9-.2 12.5 10.1 7.8 16.2-4.2 5.6-12.6 5.8-18 2-1.6 2.5-3.2 5-4.5 7.4-3.9 7.1-7.2 15.1-6.5 23.4.6 6.7 4.3 14.1 11 16.5 5.7 2.1 13.8.4 16.2-5.8 2.2-5.9-2.8-13.2-9.1-12.5-2.7.3-2.6-3.9 0-4.2 12.3-1.5 18 15.5 9.6 23.2-8.3 7.6-21.2 4.5-27.3-4.1-8.1-11.5-4.3-26.2 1.8-37.6 1.7-3.2 3.7-6.3 5.6-9.4-4-5.2-4.5-12.2-2.9-18.6-3.2.7-6.7-.2-9.3-2.8-4.7-5-4.1-13 0-18 3.9-4.9 10.5-6.8 16.4-4.9 1.9.6 3.6 1.6 5.1 2.9 1.7-3.2 3-6.6 3.4-10.2.7-5.8-3.3-13.1-10.1-10.7-3 1-5 4.3-4.5 7.4.5 3.3 4 5.5 6.5 2.6 1.7-2.1 4.7.9 3 3-2.7 3.3-7.8 3.5-10.9.5-3.3-3.2-3.6-8.5-1.4-12.4 3.8-6.6 12.1-7.4 17.3-3.1zm4.8 63.4c3.6-3.7.5-10.5-4.6-10-.4 0-.8 0-1.1-.2-1.8 3.6-3.9 7.1-6.1 10.5 3.4 2.5 8.6 2.9 11.8-.3zm-14.9-3.1c1.3-2 2.5-4.1 3.6-6.2 3.8-7 7.4-15.7 4-23.5-.1-.3-.2-.5-.4-.8-.3.4-.5.9-.8 1.3-4.9 8-12.1 20.1-6.4 29.2zM513.8 334c-2.7 3.1-3.7 8-1.5 11.7 1.9 3.1 6.6 4.5 9.1 1.3 2.1-4.6 5.3-8.9 8-13.3-4.3-4.2-11.2-4.8-15.6.3zM432 68.9h94.4v94.4h3V65.9H432v3zM68.9 163.3V68.9h94.4v-3H65.9v97.4h3zM526.3 432v94.4H432v3h97.4V432h-3.1zm-363 94.3H68.9V432h-3v97.4h97.4v-3.1z"/></svg>