<svg id="Layer_1" xmlns="http://www.w3.org/2000/svg" viewBox="0 0 595.3 595.3"><style>.st0{fill:#5c3716}</style><path class="st0" d="M269.6 189.4c3.1 0 6.3 1.2 9.2 2.9 2.9 1.7 5.5 3.9 8 6.4 2.5 2.5 4.8 5.2 6.9 8.2.6.7 1.1 1.5 1.6 2.2.5.7 1 1.4 1.5 2.2l.9 1.2.9-1.2c.5-.7 1-1.4 1.5-2.2.5-.7 1-1.4 1.6-2.2 2.2-2.9 4.4-5.7 6.9-8.2 2.5-2.5 5.1-4.7 8-6.4 2.9-1.7 6-2.8 9.2-2.9 1.5 0 3 .2 4.3.7 1.3.5 2.4 1.2 3.4 1.9 1.9 1.4 3.1 3.1 3.9 4.5.9 1.4 1.3 2.6 1.6 3.4.3.8.4 1.2.4 1.2s-.2-.4-.7-1.1c-.5-.7-1.2-1.7-2.3-2.8-1.1-1.1-2.5-2.3-4.2-3.3-1.8-.9-3.9-1.4-6.2-1-2.3.3-4.6 1.5-6.9 3.2-2.3 1.7-4.5 3.8-6.6 6.3-2.1 2.4-4.1 5.1-6.1 7.9-1.6 2.3-3.2 4.7-4.9 7.1 1.7 2.1 3.4 4.1 5.1 6 2.3 2.4 4.8 4.6 7.3 6.4 2.5 1.7 5.2 2.9 7.7 3.2 2.6.3 5-.4 7.1-1.6 2.1-1.2 3.8-2.9 5.1-4.5.5-.6.9-1.2 1.4-1.8-1.5 1-3.3 1.6-5.2 1.6-5.2 0-9.4-4.2-9.4-9.4s4.2-9.4 9.4-9.4 9.4 4.2 9.4 9.4v.8s0 .3-.1.8-.2.9-.3 1.3c-.2.7-.4 1.7-.8 2.7-.5 1.5-1.3 3.3-2.4 5.3-1.1 2-2.7 4.1-5 6-1.2.9-2.6 1.7-4.1 2.3-1.6.6-3.3.9-5.1.9-3.6 0-7.2-1.3-10.3-3.2-3.2-1.8-6-4.2-8.6-6.8-1.7-1.7-3.2-3.4-4.8-5.2-1.5 1.8-3.1 3.6-4.8 5.2-2.6 2.6-5.5 5-8.6 6.8-3.1 1.9-6.7 3.1-10.3 3.2-1.8 0-3.6-.3-5.1-.9-1.6-.6-3-1.4-4.1-2.3-2.3-1.9-3.9-4-5-6-1.2-2-1.9-3.8-2.4-5.3-.4-1.1-.6-2-.8-2.7-.1-.4-.2-.9-.3-1.3-.1-.5-.1-.8-.1-.8v-.8c0-5.2 4.2-9.4 9.4-9.4s9.4 4.2 9.4 9.4-4.2 9.4-9.4 9.4c-1.9 0-3.7-.6-5.2-1.6.4.6.9 1.2 1.4 1.8 1.3 1.6 3.1 3.2 5.1 4.5 2.1 1.2 4.5 1.9 7.1 1.6 2.6-.3 5.2-1.5 7.7-3.2 2.5-1.7 5-3.9 7.3-6.4 1.8-1.9 3.5-3.9 5.1-6-1.7-2.4-3.4-4.8-4.9-7.1-1.9-2.8-4-5.5-6.1-7.9-2.1-2.4-4.3-4.6-6.6-6.3-2.3-1.7-4.6-2.8-6.9-3.2-2.3-.4-4.4.1-6.2 1-1.8.9-3.2 2.2-4.2 3.3-1 1.1-1.8 2.1-2.3 2.8-.5.7-.7 1.1-.7 1.1s.1-.4.4-1.2c.3-.8.8-2 1.6-3.4s2-3 3.9-4.5c.9-.7 2.1-1.4 3.4-1.9.9-.4 2.4-.7 3.9-.7zm45.4-36.6l-17.3-17.3-17.3 17.3 17.3 47.5 17.3-47.5zm43.7 46.8c-4.1 0-7.3 3.3-7.3 7.3 0 4.1 3.3 7.3 7.3 7.3 4.1 0 7.3-3.3 7.3-7.3s-3.3-7.3-7.3-7.3zm23.6.6a6.7 6.7 0 1 0 6.7 6.7c0-3.7-2.9-6.7-6.7-6.7zm23.7.6c-3.4 0-6.1 2.7-6.1 6.1 0 3.4 2.7 6.1 6.1 6.1 3.4 0 6.1-2.7 6.1-6.1 0-3.3-2.7-6.1-6.1-6.1zm23.7.6c-3 0-5.5 2.5-5.5 5.5s2.5 5.5 5.5 5.5 5.5-2.5 5.5-5.5-2.5-5.5-5.5-5.5zm23.6.6c-2.7 0-4.9 2.2-4.9 4.9s2.2 4.9 4.9 4.9 4.9-2.2 4.9-4.9-2.2-4.9-4.9-4.9zm23.7.7c-2.4 0-4.3 1.9-4.3 4.3s1.9 4.3 4.3 4.3 4.3-1.9 4.3-4.3-1.9-4.3-4.3-4.3zm23.7 7.9c2 0 3.7-1.6 3.7-3.7 0-2-1.6-3.7-3.7-3.7s-3.7 1.6-3.7 3.7 1.6 3.7 3.7 3.7zm-264.1-11c-4.1 0-7.3 3.3-7.3 7.3 0 4.1 3.3 7.3 7.3 7.3 4.1 0 7.3-3.3 7.3-7.3.1-4-3.2-7.3-7.3-7.3zm-23.7.6a6.7 6.7 0 1 0 6.7 6.7c0-3.7-2.9-6.7-6.7-6.7zm-23.6.6c-3.4 0-6.1 2.7-6.1 6.1 0 3.4 2.7 6.1 6.1 6.1 3.4 0 6.1-2.7 6.1-6.1 0-3.3-2.7-6.1-6.1-6.1zm-23.7.6c-3 0-5.5 2.5-5.5 5.5s2.5 5.5 5.5 5.5 5.5-2.5 5.5-5.5-2.4-5.5-5.5-5.5zm-23.6.6c-2.7 0-4.9 2.2-4.9 4.9s2.2 4.9 4.9 4.9 4.9-2.2 4.9-4.9-2.2-4.9-4.9-4.9zm-23.7.7c-2.4 0-4.3 1.9-4.3 4.3s1.9 4.3 4.3 4.3 4.3-1.9 4.3-4.3-1.9-4.3-4.3-4.3zm-23.7.6c-2 0-3.7 1.6-3.7 3.7 0 2 1.6 3.7 3.7 3.7s3.7-1.6 3.7-3.7-1.6-3.7-3.7-3.7zm221.3-20.7s0-.9-.1-2.5c0-1.6.1-4 .4-7.1.4-3 1.1-6.7 2.7-10.8 1.6-4 4.1-8.3 8.1-12 4-3.7 9.5-6.3 15.6-7.2 6.1-.9 12.6-.3 19 1.5 3.2.9 6.4 2 9.5 3.4 3.1 1.4 6.1 3 9.1 4.7 5.9 3.5 11.5 7.7 16.8 12.2 1.7 1.4 3.4 2.9 5 4.4.4.2.8.3 1.2.5 6 2.2 12.1 4.3 18.1 6.1 6 1.9 11.9 3.5 17.8 4.6 5.8 1.1 11.5 1.9 16.8 1.5.3 0 .7-.1 1-.1.6-.9 1.2-1.9 1.8-2.9 2.4-4.5 3.8-9.1 4.9-13.1 1-4.1 1.6-7.7 2-10.7.4-3 .6-5.4.7-7 .1-1.6.2-2.5.2-2.5h.2v.2c.1.3.4.9.8 1.9.6 1.4 1.5 3.4 2.4 6.1.9 2.7 1.9 6 2.5 9.9.3 2 .4 4.1.2 6.4-.2 2.3-.8 4.7-2.2 7-1.3 2.3-3.5 4.2-6 5.4-2.3 1.2-4.9 1.8-7.5 2.2l-1.5 1.8c-2 2.1-4.5 4-7.4 5.1-1.5.5-3 .9-4.6 1.1-1.6.2-3.2.1-4.8 0-3.2-.4-6.4-1.4-9.4-2.7-6.1-2.7-11.6-6.6-16.9-11-1.4-1.1-2.7-2.2-4-3.4-2.1-.7-4.2-1.4-6.3-2.2-6.1-2.2-12.1-4.5-18-6.8s-11.6-4.7-17.3-6.3c-5.7-1.6-11.3-2.7-16.7-2.9-5.4-.2-10.4.4-14.8 2s-8 4.1-10.6 6.8c-2.7 2.7-4.5 5.6-5.7 8.1-1.2 2.5-1.9 4.6-2.3 6-.2.6-.3 1.2-.4 1.5v.7h-.3zm143.2-1c1.5-.3 2.9-.7 4.1-1.3 2.2-1 4-2.4 5.2-4.3 1.2-1.8 1.9-3.9 2.2-6 .3-2.1.3-4.1.2-6-.3-3.8-1-7.2-1.7-9.9s-1.4-4.8-1.8-6.2c-.3-.9-.5-1.5-.6-1.9v2.2c0 1.6-.1 4-.4 7.1-.2 3-.7 6.7-1.6 10.9-.9 4.2-2.2 8.9-4.6 13.6-.3.6-.6 1.2-1 1.8zm-38.9-2c-3.4-1-6.9-2.1-10.3-3.3.9.7 1.8 1.5 2.7 2.2 5.4 4.1 11.1 7.8 17 10.2 3 1.2 6 2 9 2.3 1.5.1 3 .1 4.5 0 1.4-.2 2.9-.5 4.2-1 2.7-1 5-2.6 6.8-4.6.1-.1.2-.2.3-.4-5.2.4-10.6-.2-16-1.1-6-1-12.1-2.5-18.2-4.3zm-104 .5c0 .3 0 .6-.1.9 0-.2.1-.4.1-.7.3-1.5.8-3.7 1.8-6.3 1.1-2.6 2.7-5.8 5.3-8.8 1.3-1.5 2.9-3 4.7-4.4 1.8-1.4 3.9-2.5 6.2-3.5 4.6-2 10.1-2.9 15.7-2.8 5.7 0 11.6 1 17.6 2.5 3 .8 5.9 1.7 8.9 2.7 3 1.1 5.9 2.2 8.8 3.4 4.9 1.9 10 3.8 15 5.7-1.3-1.1-2.5-2.2-3.9-3.3-5.4-4.4-11.2-8.2-17.1-11.5-5.9-3.3-12.1-5.9-18.3-7.5-6.2-1.6-12.5-2.1-18.2-1.3-5.7.8-10.8 3.2-14.7 6.5-3.8 3.3-6.4 7.3-8.1 11.1-1.7 3.8-2.6 7.4-3.1 10.4-.3 2.9-.5 5.3-.6 6.9zm-194.4-9.8c-.2-2.3-.1-4.4.2-6.4.5-4 1.6-7.3 2.5-9.9.9-2.7 1.8-4.7 2.4-6.1.4-.9.7-1.6.8-1.9v-.2h.2s0 .9.2 2.5c.1 1.6.3 4 .7 7 .4 3 1 6.6 2 10.7s2.5 8.6 4.9 13.1c.5 1 1.1 1.9 1.8 2.9.3 0 .7.1 1 .1 5.3.4 11-.3 16.8-1.5 5.8-1.1 11.8-2.8 17.8-4.6 6-1.8 12-3.9 18.1-6.1.4-.2.8-.3 1.2-.5 1.6-1.5 3.3-3 5-4.4 5.3-4.5 10.9-8.7 16.8-12.2 3-1.7 6-3.3 9.1-4.7 3.1-1.4 6.3-2.5 9.5-3.4 6.4-1.8 12.9-2.4 19-1.5 6.1.9 11.6 3.6 15.6 7.2s6.6 8 8.1 12 2.3 7.7 2.7 10.8c.4 3 .4 5.4.4 7.1 0 1.6-.1 2.5-.1 2.5h-.2v-.7c-.1-.4-.2-.9-.4-1.5-.4-1.4-1.1-3.5-2.3-6-1.2-2.5-3-5.4-5.7-8.1-2.7-2.7-6.3-5.2-10.6-6.8-4.4-1.6-9.5-2.2-14.8-2-5.4.3-11 1.3-16.7 2.9-5.7 1.6-11.4 3.9-17.3 6.3-5.9 2.3-11.9 4.7-18 6.8-2.1.7-4.2 1.5-6.3 2.2-1.3 1.2-2.6 2.3-4 3.4-5.3 4.3-10.9 8.3-16.9 11-3 1.3-6.2 2.4-9.4 2.7-1.6.2-3.2.2-4.8 0-1.6-.2-3.1-.6-4.6-1.1-2.9-1.1-5.5-3-7.4-5.1-.5-.6-1.1-1.2-1.5-1.8-2.6-.4-5.2-1-7.5-2.2-2.5-1.2-4.7-3.2-6-5.4-1.4-2.4-2.1-4.9-2.3-7.1zm72.2-1.6c5-1.9 10.1-3.7 15-5.7 3-1.1 5.8-2.3 8.8-3.4 3-1 5.9-2 8.9-2.7 5.9-1.6 11.9-2.5 17.6-2.5 5.7 0 11.1.9 15.7 2.8 2.3 1 4.4 2.2 6.2 3.5 1.8 1.4 3.4 2.9 4.7 4.4 2.6 3.1 4.2 6.2 5.3 8.8 1.1 2.6 1.5 4.8 1.8 6.3 0 .2.1.5.1.7 0-.3 0-.5-.1-.9-.1-1.6-.3-4-.9-7-.5-3-1.4-6.5-3.1-10.4-1.7-3.8-4.2-7.8-8.1-11.1-3.8-3.3-8.9-5.7-14.7-6.5-5.7-.9-12-.3-18.2 1.3-6.2 1.6-12.4 4.2-18.3 7.5-6 3.2-11.7 7.1-17.1 11.5-1 1.2-2.3 2.3-3.6 3.4zm-54.1 16.4c.1.1.2.2.3.4 1.9 2 4.2 3.6 6.8 4.6 1.3.5 2.7.8 4.2 1 1.5.1 2.9.2 4.5 0 3-.3 6.1-1.2 9-2.3 6-2.4 11.6-6.1 17-10.2.9-.7 1.8-1.4 2.7-2.2-3.4 1.2-6.9 2.3-10.3 3.3-6.1 1.8-12.2 3.3-18.3 4.4-5.3.8-10.7 1.3-15.9 1zM123.7 170c.3 2.1 1 4.2 2.2 6 1.2 1.8 3 3.3 5.2 4.3 1.3.6 2.7 1 4.1 1.3-.4-.6-.7-1.2-1-1.8-2.4-4.7-3.7-9.4-4.6-13.6-.9-4.2-1.4-7.9-1.6-10.9-.3-3-.3-5.4-.4-7.1V146c-.1.3-.3 1-.6 1.9-.5 1.4-1.1 3.5-1.8 6.2s-1.4 6-1.7 9.9c-.1 1.9-.1 4 .2 6zM330 405.1c1.3-.5 2.4-1.2 3.4-1.9 1.9-1.4 3.1-3.1 3.9-4.5.9-1.4 1.3-2.6 1.6-3.4.3-.8.4-1.2.4-1.2s-.2.4-.7 1.1c-.5.7-1.2 1.7-2.3 2.8-1.1 1.1-2.5 2.3-4.2 3.3-1.8.9-3.9 1.4-6.2 1-2.3-.3-4.6-1.5-6.9-3.2-2.3-1.7-4.5-3.8-6.6-6.3-2.1-2.4-4.1-5.1-6.1-7.9-1.6-2.3-3.2-4.7-4.9-7.1 1.7-2.1 3.4-4.1 5.1-6 2.3-2.4 4.8-4.6 7.3-6.4 2.5-1.7 5.2-2.9 7.7-3.2 2.6-.3 5 .4 7.1 1.6 2.1 1.2 3.8 2.9 5.1 4.5.5.6.9 1.2 1.4 1.8-1.5-1-3.3-1.6-5.2-1.6-5.2 0-9.4 4.2-9.4 9.4s4.2 9.4 9.4 9.4 9.4-4.2 9.4-9.4v-.9.1s0-.3-.1-.8-.2-.9-.3-1.3c-.2-.7-.4-1.7-.8-2.7-.5-1.5-1.3-3.3-2.4-5.3-1.1-2-2.7-4.1-5-6-1.2-.9-2.6-1.7-4.1-2.3-1.6-.6-3.3-.9-5.1-.9-3.6 0-7.2 1.3-10.3 3.2-3.2 1.8-6 4.2-8.6 6.8-1.7 1.7-3.2 3.4-4.8 5.2-1.5-1.8-3.1-3.6-4.8-5.2-2.6-2.6-5.5-5-8.6-6.8-3.1-1.8-6.7-3.1-10.3-3.2-1.8 0-3.6.3-5.1.9-1.6.6-3 1.4-4.1 2.3-2.3 1.9-3.9 4-5 6-1.2 2-1.9 3.8-2.4 5.3-.4 1.1-.6 2-.8 2.7-.1.4-.2.9-.3 1.3-.1.5-.1.8-.1.8v-.1.9c0 5.2 4.2 9.4 9.4 9.4s9.4-4.2 9.4-9.4-4.2-9.4-9.4-9.4c-1.9 0-3.7.6-5.2 1.6.4-.6.9-1.2 1.4-1.8 1.3-1.6 3.1-3.2 5.1-4.5 2.1-1.2 4.5-1.9 7.1-1.6 2.6.3 5.2 1.5 7.7 3.2 2.5 1.7 5 3.9 7.3 6.4 1.8 1.9 3.5 3.9 5.1 6-1.7 2.4-3.4 4.8-4.9 7.1-1.9 2.8-4 5.5-6.1 7.9-2.1 2.4-4.3 4.6-6.6 6.3-2.3 1.7-4.6 2.8-6.9 3.2-2.3.4-4.4-.1-6.2-1-1.8-.9-3.2-2.2-4.2-3.3-1-1.1-1.8-2.1-2.3-2.8-.5-.7-.7-1.1-.7-1.1s.1.4.4 1.2c.3.8.8 2 1.6 3.4s2 3 3.9 4.5c.9.7 2.1 1.4 3.4 1.9 1.3.5 2.8.7 4.3.7 3.1 0 6.3-1.2 9.2-2.9 2.9-1.7 5.5-3.9 8-6.4 2.5-2.5 4.8-5.2 6.9-8.2.6-.7 1.1-1.5 1.6-2.2.5-.7 1-1.4 1.5-2.2l.9-1.2.9 1.2c.5.7 1 1.4 1.5 2.2.5.7 1 1.4 1.6 2.2 2.2 2.9 4.4 5.7 6.9 8.2 2.5 2.5 5.1 4.7 8 6.4 2.9 1.7 6 2.8 9.2 2.9 1.1.1 2.6-.2 3.9-.7zm-49.7 37.4l17.3 17.3 17.3-17.3-17.3-47.5-17.3 47.5zM236.6 381c-4.1 0-7.3 3.3-7.3 7.3s3.3 7.3 7.3 7.3c4.1 0 7.3-3.3 7.3-7.3s-3.2-7.3-7.3-7.3zm-23.7.6a6.7 6.7 0 1 0 6.7 6.7c.1-3.7-2.9-6.7-6.7-6.7zm-23.6.6c-3.4 0-6.1 2.7-6.1 6.1 0 3.4 2.7 6.1 6.1 6.1 3.4 0 6.1-2.7 6.1-6.1 0-3.3-2.7-6.1-6.1-6.1zm-23.7.6c-3 0-5.5 2.5-5.5 5.5s2.5 5.5 5.5 5.5 5.5-2.5 5.5-5.5-2.4-5.5-5.5-5.5zm-23.6.6c-2.7 0-4.9 2.2-4.9 4.9s2.2 4.9 4.9 4.9 4.9-2.2 4.9-4.9-2.2-4.9-4.9-4.9zm-23.7.6c-2.4 0-4.3 1.9-4.3 4.3s1.9 4.3 4.3 4.3 4.3-1.9 4.3-4.3c0-2.3-1.9-4.3-4.3-4.3zm-23.7.7c-2 0-3.7 1.6-3.7 3.7 0 2 1.6 3.7 3.7 3.7s3.7-1.6 3.7-3.7-1.6-3.7-3.7-3.7zm264.1-3.7c-4.1 0-7.3 3.3-7.3 7.3s3.3 7.3 7.3 7.3c4.1 0 7.3-3.3 7.3-7.3s-3.3-7.3-7.3-7.3zm23.6.6a6.7 6.7 0 1 0 6.7 6.7c.1-3.7-2.9-6.7-6.7-6.7zm23.7.6c-3.4 0-6.1 2.7-6.1 6.1 0 3.4 2.7 6.1 6.1 6.1 3.4 0 6.1-2.7 6.1-6.1 0-3.3-2.7-6.1-6.1-6.1zm23.7.6c-3 0-5.5 2.5-5.5 5.5s2.5 5.5 5.5 5.5 5.5-2.5 5.5-5.5-2.5-5.5-5.5-5.5zm23.6.6c-2.7 0-4.9 2.2-4.9 4.9s2.2 4.9 4.9 4.9 4.9-2.2 4.9-4.9-2.2-4.9-4.9-4.9zm23.7.6c-2.4 0-4.3 1.9-4.3 4.3s1.9 4.3 4.3 4.3 4.3-1.9 4.3-4.3c0-2.3-1.9-4.3-4.3-4.3zm23.7.7c-2 0-3.7 1.6-3.7 3.7 0 2 1.6 3.7 3.7 3.7s3.7-1.6 3.7-3.7c-.1-2.1-1.7-3.7-3.7-3.7zm-221.3 27.9s0 .9.1 2.5c0 1.6-.1 4-.4 7.1-.4 3-1.1 6.7-2.7 10.8-1.6 4-4.1 8.3-8.1 12-4 3.7-9.5 6.3-15.6 7.2-6.1.9-12.6.3-19-1.5-3.2-.9-6.4-2-9.5-3.4-3.1-1.4-6.1-3-9.1-4.7-5.9-3.5-11.5-7.7-16.8-12.2-1.7-1.4-3.4-2.9-5-4.4-.4-.2-.8-.3-1.2-.5-6-2.2-12.1-4.3-18.1-6.1-6-1.9-11.9-3.5-17.8-4.6-5.8-1.1-11.5-1.9-16.8-1.5-.3 0-.7.1-1 .1-.6.9-1.2 1.9-1.8 2.9-2.4 4.5-3.8 9.1-4.9 13.1-1 4.1-1.6 7.7-2 10.7-.4 3-.6 5.4-.7 7-.1 1.6-.2 2.5-.2 2.5h-.2v-.2c-.1-.3-.4-.9-.8-1.9-.6-1.4-1.5-3.4-2.4-6.1-.9-2.7-1.9-6-2.5-9.9-.3-2-.4-4.1-.2-6.4.2-2.3.8-4.7 2.2-7 1.3-2.3 3.5-4.2 6-5.4 2.3-1.2 4.9-1.8 7.5-2.2l1.5-1.8c2-2.1 4.5-4 7.4-5.1 1.5-.5 3-.9 4.6-1.1 1.6-.2 3.2-.1 4.8 0 3.2.4 6.4 1.4 9.4 2.7 6.1 2.7 11.6 6.6 16.9 11 1.4 1.1 2.7 2.2 4 3.4 2.1.7 4.2 1.4 6.3 2.2 6.1 2.2 12.1 4.5 18 6.8s11.6 4.7 17.3 6.3c5.7 1.6 11.3 2.7 16.7 2.9 5.4.2 10.4-.4 14.8-2s8-4.1 10.6-6.8c2.7-2.7 4.5-5.6 5.7-8.1 1.2-2.5 1.9-4.6 2.3-6 .2-.6.3-1.2.4-1.5v-.7h.3zm-143.2 1.1c-1.5.3-2.9.7-4.1 1.3-2.2 1-4 2.4-5.2 4.3-1.2 1.8-1.9 3.9-2.2 6-.3 2.1-.3 4.1-.2 6 .3 3.8 1 7.2 1.7 9.9s1.4 4.8 1.8 6.2c.3.9.5 1.5.6 1.9v-2.2c0-1.6.1-4 .4-7.1.2-3 .7-6.7 1.6-10.9.9-4.2 2.2-8.9 4.6-13.6.3-.6.6-1.2 1-1.8zm38.9 2c3.4 1 6.9 2.1 10.3 3.3-.9-.7-1.8-1.5-2.7-2.2-5.4-4.1-11.1-7.8-17-10.2-3-1.2-6-2-9-2.3-1.5-.1-3-.1-4.5 0-1.4.2-2.9.5-4.2 1-2.7 1-5 2.6-6.8 4.6-.1.1-.2.2-.3.4 5.2-.4 10.6.2 16 1.1 5.9 1 12 2.5 18.2 4.3zm104-.6c0-.3 0-.6.1-.9 0 .2-.1.4-.1.7-.3 1.5-.8 3.7-1.8 6.3-1.1 2.6-2.7 5.8-5.3 8.8-1.3 1.5-2.9 3-4.7 4.4-1.8 1.4-3.9 2.5-6.2 3.5-4.6 2-10.1 2.9-15.7 2.8-5.7 0-11.6-1-17.6-2.5-3-.8-5.9-1.7-8.9-2.7-3-1.1-5.9-2.2-8.8-3.4-4.9-1.9-10-3.8-15-5.7 1.3 1.1 2.5 2.2 3.9 3.3 5.4 4.4 11.2 8.2 17.1 11.5 5.9 3.3 12.1 5.9 18.3 7.5 6.2 1.6 12.5 2.1 18.2 1.3 5.7-.8 10.8-3.2 14.7-6.5 3.8-3.3 6.4-7.3 8.1-11.1 1.7-3.8 2.6-7.4 3.1-10.4.2-2.9.5-5.2.6-6.9zm194.3 9.9c.2 2.3.1 4.4-.2 6.4-.5 4-1.6 7.3-2.5 9.9-.9 2.7-1.8 4.7-2.4 6.1-.4.9-.7 1.6-.8 1.9v.2h-.2s0-.9-.2-2.5c-.1-1.6-.3-4-.7-7-.4-3-1-6.6-2-10.7s-2.5-8.6-4.9-13.1c-.5-1-1.1-1.9-1.8-2.9-.3 0-.7-.1-1-.1-5.3-.4-11 .3-16.8 1.5-5.8 1.1-11.8 2.8-17.8 4.6-6 1.8-12 3.9-18.1 6.1-.4.2-.8.3-1.2.5-1.6 1.5-3.3 3-5 4.4-5.3 4.5-10.9 8.7-16.8 12.2-3 1.7-6 3.3-9.1 4.7-3.1 1.4-6.3 2.5-9.5 3.4-6.4 1.8-12.9 2.4-19 1.5-6.1-.9-11.6-3.6-15.6-7.2s-6.6-8-8.1-12-2.3-7.7-2.7-10.8c-.4-3-.4-5.4-.4-7.1 0-1.6.1-2.5.1-2.5h.2v.7c.1.4.2.9.4 1.5.4 1.4 1.1 3.5 2.3 6 1.2 2.5 3 5.4 5.7 8.1 2.7 2.7 6.3 5.2 10.6 6.8 4.4 1.6 9.5 2.2 14.8 2 5.4-.3 11-1.3 16.7-2.9 5.7-1.6 11.4-3.9 17.3-6.3 5.9-2.3 11.9-4.7 18-6.8 2.1-.7 4.2-1.5 6.3-2.2 1.3-1.2 2.6-2.3 4-3.4 5.3-4.3 10.9-8.3 16.9-11 3-1.3 6.2-2.4 9.4-2.7 1.6-.2 3.2-.2 4.8 0 1.6.2 3.1.6 4.6 1.1 2.9 1.1 5.5 3 7.4 5.1.5.6 1.1 1.2 1.5 1.8 2.6.4 5.2 1 7.5 2.2 2.5 1.2 4.7 3.2 6 5.4 1.5 2.4 2.1 4.8 2.3 7.1zm-72.1 1.6c-5 1.9-10.1 3.7-15 5.7-3 1.1-5.8 2.3-8.8 3.4-3 1-5.9 2-8.9 2.7-5.9 1.6-11.9 2.5-17.6 2.5-5.7 0-11.1-.9-15.7-2.8-2.3-1-4.4-2.2-6.2-3.5-1.8-1.4-3.4-2.9-4.7-4.4-2.6-3.1-4.2-6.2-5.3-8.8-1.1-2.6-1.5-4.8-1.8-6.3 0-.2-.1-.5-.1-.7 0 .3 0 .5.1.9.1 1.6.3 4 .9 7 .5 3 1.4 6.5 3.1 10.4 1.7 3.8 4.2 7.8 8.1 11.1 3.8 3.3 8.9 5.7 14.7 6.5 5.7.9 12 .3 18.2-1.3 6.2-1.6 12.4-4.2 18.3-7.5 6-3.2 11.7-7.1 17.1-11.5 1-1.2 2.3-2.3 3.6-3.4zm54-16.4c-.1-.1-.2-.2-.3-.4-1.9-2-4.2-3.6-6.8-4.6-1.3-.5-2.7-.8-4.2-1-1.5-.1-2.9-.2-4.5 0-3 .3-6.1 1.2-9 2.3-6 2.4-11.6 6.1-17 10.2-.9.7-1.8 1.4-2.7 2.2 3.4-1.2 6.9-2.3 10.3-3.3 6.1-1.8 12.2-3.3 18.3-4.4 5.4-.8 10.7-1.4 15.9-1zm16.3 15c-.3-2.1-1-4.2-2.2-6-1.2-1.8-3-3.3-5.2-4.3-1.3-.6-2.7-1-4.1-1.3.4.6.7 1.2 1 1.8 2.4 4.7 3.7 9.4 4.6 13.6.9 4.2 1.4 7.9 1.6 10.9.3 3 .3 5.4.4 7.1v2.2c.1-.3.3-1 .6-1.9.5-1.4 1.1-3.5 1.8-6.2s1.4-6 1.7-9.9c.1-1.8.1-3.9-.2-6z"/></svg>