<svg id="Layer_1" xmlns="http://www.w3.org/2000/svg" viewBox="0 0 595.3 595.3"><style>.st0{fill:#5c3716}</style><path class="st0" d="M339.7 109c.1-.1.3-.2.4-.3-.2.2-.6.6-1.3 1-1.1.7-2.7 1.6-4.9 2-2.2.5-4.9.5-7.6-.1-1.4-.3-2.7-.8-4.1-1.5-1.3-.6-2.6-1.4-3.8-2.3-.6-.4-1.1-.9-1.7-1.3-.6-.5-1.1-.9-1.6-1.3-1.1-.8-2.2-1.6-3.2-2.3-1.1-.7-2.2-1.3-3.2-1.8-1.1-.5-2.1-.8-3.1-1.1-1-.2-1.9-.3-2.7-.3-.8.1-1.5.2-2.1.4-1.1.4-1.7.9-1.7.9s.1-.2.3-.4l.7-.7-.3.3s.6-.4 1.8-.8c.8-.3 1.8-.6 2.9-.8h1.2c2.3.2 4.8 1.1 7.2 2.4 1.2.7 2.4 1.4 3.6 2.3.6.4 1.2.9 1.7 1.3.6.4 1.1.9 1.7 1.2 1.1.8 2.2 1.5 3.4 2.1 1.2.6 2.4 1.1 3.6 1.5 2.4.8 4.8 1 6.8.8.7-.1 1.3-.2 1.9-.3.7 0 1.3-.1 1.8-.2 1 0 1.7-.3 2.3-.7zm-.2-.4c-.6.2-1.3.3-2.1.4-.8 0-1.7-.1-2.7-.3-1-.2-2-.6-3.1-1.1-1.1-.5-2.1-1.1-3.2-1.8s-2.2-1.5-3.2-2.3c-.6-.4-1-.8-1.6-1.3-.6-.4-1.1-.9-1.7-1.3-.6-.4-1.1-.8-1.7-1.1-.4.3-.7.5-.7.5s.1-.2.3-.4l.2-.2c-.6-.4-1.2-.7-1.9-1-1.3-.7-2.7-1.1-4.1-1.5-2.7-.7-5.4-.6-7.6-.1-2.2.5-3.8 1.3-4.9 2-.6.4-1 .7-1.3 1 .1-.1.3-.2.4-.3.6-.3 1.3-.7 2.2-.9.6-.1 1.2-.2 1.8-.2.6-.1 1.2-.2 1.9-.3 2-.2 4.4 0 6.8.8 1.2.4 2.4.9 3.6 1.5 1.2.6 2.4 1.3 3.4 2.1.5.4 1.1.8 1.7 1.2.5.4 1.1.9 1.7 1.3 1.1.9 2.4 1.6 3.6 2.3 2.4 1.3 4.9 2.2 7.2 2.4h1.2c1.2-.2 2.2-.5 2.9-.8 1.1-.4 1.8-.8 1.8-.8l-.3.3c.2-.2.4-.3.6-.5-.1 0-.1-.1-.2-.1-.3.2-.6.3-1 .5zm-39.6-8.3s.6-.4 1.8-.8c.8-.3 1.8-.6 2.9-.8-.7 0-1.3.1-1.8.2-.9.2-1.6.5-2.2.9-.1.1-.3.2-.4.3-.2.1-.3.2-.3.2zm40.5 8.2s-.6.4-1.8.8c-.8.3-1.8.6-2.9.8.7 0 1.3-.1 1.8-.2.9-.2 1.6-.5 2.2-.9.1-.1.3-.2.4-.3.2-.1.3-.2.3-.2zm-20.6-8.8c.1 0 .1.1.2.1.3-.1.6-.3 1-.5.6-.2 1.3-.3 2.1-.4.8 0 1.7.1 2.7.3 1 .2 2 .6 3.1 1.1 1.1.5 2.1 1.1 3.2 1.8s2.2 1.5 3.2 2.3c.6.4 1 .8 1.6 1.3.6.4 1.1.9 1.7 1.3.6.4 1.1.8 1.7 1.1.4-.3.7-.5.7-.5s-.1.2-.3.4l-.2.2c.6.4 1.2.7 1.9 1 1.3.7 2.7 1.1 4.1 1.5 2.7.7 5.4.6 7.6.1 2.2-.5 3.8-1.3 4.9-2 .6-.4 1-.7 1.3-1-.1.1-.3.2-.4.3-.6.3-1.3.7-2.2.9-.6.1-1.2.2-1.8.2-.6.1-1.2.2-1.9.3-2 .2-4.4 0-6.8-.8-1.2-.4-2.4-.9-3.6-1.5-1.2-.6-2.4-1.3-3.4-2.1-.5-.4-1.1-.8-1.7-1.2-.5-.4-1.1-.9-1.7-1.3-1.1-.9-2.4-1.6-3.6-2.3-2.4-1.3-4.9-2.2-7.2-2.4h-1.2c-1.2.2-2.2.5-2.9.8-1.2.4-1.8.8-1.8.8l.3-.3c-.2.2-.4.3-.6.5zm-.5.6s.2-.2.7-.5c-.1 0-.1-.1-.2-.1l-.2.2c-.2.2-.3.4-.3.4zm21.9 7.4s-.2.2-.7.5c.1 0 .1.1.2.1l.2-.2c.2-.3.3-.4.3-.4zM323 98c.6-.1 1.2-.2 1.8-.2.6-.1 1.2-.2 1.9-.3 2-.2 4.4 0 6.8.8 1.2.4 2.4.9 3.6 1.5 1.2.6 2.4 1.3 3.4 2.1.5.4 1.1.8 1.7 1.2.5.4 1.1.9 1.7 1.3 1.1.9 2.4 1.6 3.6 2.3 2.4 1.3 4.9 2.2 7.2 2.4h1.2c1.2-.2 2.2-.5 2.9-.8 1.2-.4 1.8-.8 1.8-.8l-.3.3.3-.3c-.1-.1-.2-.1-.3-.2-.2.1-.4.2-.7.3-.6.2-1.3.3-2.1.4-.8 0-1.7-.1-2.7-.3-1-.2-2-.6-3.1-1.1-1.1-.5-2.1-1.1-3.2-1.8s-2.2-1.5-3.2-2.3c-.6-.4-1-.8-1.6-1.3-.6-.4-1.1-.9-1.7-1.3-.2-.2-.4-.3-.6-.4-.7.3-1 .6-1 .6s.1-.2.3-.4l.4-.4c-.9-.6-1.9-1.2-2.9-1.7-1.3-.7-2.7-1.1-4.1-1.5-2.7-.7-5.4-.6-7.6-.1-2.2.5-3.8 1.3-4.9 2-.6.4-1 .7-1.3 1 .1-.1.3-.2.4-.3.7-.1 1.4-.4 2.3-.7zm37.6 9.6s-.6.4-1.8.8c-.8.3-1.8.6-2.9.8.7 0 1.3-.1 1.8-.2.9-.2 1.6-.5 2.2-.9.1-.1.3-.2.4-.3.2-.1.3-.2.3-.2zm-40.5-8.1s.6-.4 1.8-.8c.8-.3 1.8-.6 2.9-.8-.7 0-1.3.1-1.8.2-.9.2-1.6.5-2.2.9-.1.1-.3.2-.4.3-.2.1-.3.2-.3.2zm22-.2c.6-.2 1.3-.3 2.1-.4.8 0 1.7.1 2.7.3 1 .2 2 .6 3.1 1.1 1.1.5 2.1 1.1 3.2 1.8s2.2 1.5 3.2 2.3c.6.4 1 .8 1.6 1.3.6.4 1.1.9 1.7 1.3.2.2.4.3.6.4.7-.3 1-.6 1-.6s-.1.2-.3.4l-.4.4c.9.6 1.9 1.2 2.9 1.7 1.3.7 2.7 1.1 4.1 1.5 2.7.7 5.4.6 7.6.1 2.2-.5 3.8-1.3 4.9-2 .6-.4 1-.7 1.3-1-.1.1-.3.2-.4.3-.6.3-1.3.7-2.2.9-.6.1-1.2.2-1.8.2-.6.1-1.2.2-1.9.3-2 .2-4.4 0-6.8-.8-1.2-.4-2.4-.9-3.6-1.5-1.2-.6-2.4-1.3-3.4-2.1-.5-.4-1.1-.8-1.7-1.2-.5-.4-1.1-.9-1.7-1.3-1.1-.9-2.4-1.6-3.6-2.3-2.4-1.3-4.9-2.2-7.2-2.4h-1.2c-1.2.2-2.2.5-2.9.8-1.2.4-1.8.8-1.8.8l.3-.3-.3.3c.1.1.2.1.3.2.1-.3.3-.4.6-.5zm-1.4.6c-.2.3-.3.4-.3.4s.3-.3 1-.6c-.1-.1-.2-.1-.3-.2-.2.1-.3.2-.4.4zm20.4 7.3c.2-.3.3-.4.3-.4s-.3.3-1 .6c.1.1.2.1.3.2l.4-.4zM344 98c.6-.1 1.2-.2 1.8-.2.6-.1 1.2-.2 1.9-.3 2-.2 4.4 0 6.8.8 1.2.4 2.4.9 3.6 1.5 1.2.6 2.4 1.3 3.4 2.1.5.4 1.1.8 1.7 1.2.5.4 1.1.9 1.7 1.3 1.1.9 2.4 1.6 3.6 2.3 2.4 1.3 4.9 2.2 7.2 2.4h1.2c1.2-.2 2.2-.5 2.9-.8 1.2-.4 1.8-.8 1.8-.8l-.3.3c.2-.2.4-.3.5-.4-.1 0-.1-.1-.2-.1-.2.1-.5.3-.9.4-.6.2-1.3.3-2.1.4-.8 0-1.7-.1-2.7-.3-1-.2-2-.6-3.1-1.1-1.1-.5-2.1-1.1-3.2-1.8s-2.2-1.5-3.2-2.3c-.6-.4-1-.8-1.6-1.3-.6-.4-1.1-.9-1.7-1.3-.2-.1-.3-.2-.5-.3-.5.3-.8.5-.8.5s.1-.2.3-.4c.1-.1.1-.2.2-.2-1-.7-2-1.3-3.1-1.8-1.3-.7-2.7-1.1-4.1-1.5-2.7-.7-5.4-.6-7.6-.1-2.2.5-3.8 1.3-4.9 2-.6.4-1 .7-1.3 1 .1-.1.3-.2.4-.3.7-.3 1.4-.6 2.3-.9zm-2.8 1.5s.6-.4 1.8-.8c.8-.3 1.8-.6 2.9-.8-.7 0-1.3.1-1.8.2-.9.2-1.6.5-2.2.9-.1.1-.3.2-.4.3-.2.1-.3.2-.3.2zm40.5 8.1s-.6.4-1.8.8c-.8.3-1.8.6-2.9.8.7 0 1.3-.1 1.8-.2.9-.2 1.6-.5 2.2-.9.1-.1.3-.2.4-.3.2-.1.3-.2.3-.2zm-18.2-8.3c.6-.2 1.3-.3 2.1-.4.8 0 1.7.1 2.7.3 1 .2 2 .6 3.1 1.1 1.1.5 2.1 1.1 3.2 1.8s2.2 1.5 3.2 2.3c.6.4 1 .8 1.6 1.3.6.4 1.1.9 1.7 1.3.2.1.3.2.5.3.5-.3.8-.5.8-.5s-.1.2-.3.4c-.1.1-.1.2-.2.2 1 .7 2 1.3 3.1 1.8 1.3.7 2.7 1.1 4.1 1.5 2.7.7 5.4.6 7.6.1 2.2-.5 3.8-1.3 4.9-2 .6-.4 1-.7 1.3-1-.1.1-.3.2-.4.3-.6.3-1.3.7-2.2.9-.6.1-1.2.2-1.8.2-.6.1-1.2.2-1.9.3-2 .2-4.4 0-6.8-.8-1.2-.4-2.4-.9-3.6-1.5-1.2-.6-2.4-1.3-3.4-2.1-.5-.4-1.1-.8-1.7-1.2-.5-.4-1.1-.9-1.7-1.3-1.1-.9-2.4-1.6-3.6-2.3-2.4-1.3-4.9-2.2-7.2-2.4h-1.2c-1.2.2-2.2.5-2.9.8-1.1.4-1.8.8-1.8.8l.3-.3c-.2.1-.4.3-.5.4.1 0 .1.1.2.1.1-.1.4-.2.8-.4zm18.6 7.9c.2-.3.3-.4.3-.4s-.3.2-.8.5c.1 0 .1.1.2.1.2 0 .3-.1.3-.2zm-20-7.3c-.2.3-.3.4-.3.4s.3-.2.8-.5c-.1 0-.1-.1-.2-.1s-.2.1-.3.2zm3.4-1.9c.6-.1 1.2-.2 1.8-.2.6-.1 1.2-.2 1.9-.3 2-.2 4.4 0 6.8.8 1.2.4 2.4.9 3.6 1.5 1.2.6 2.4 1.3 3.4 2.1.5.4 1.1.8 1.7 1.2.5.4 1.1.9 1.7 1.3 1.1.9 2.4 1.6 3.6 2.3 2.4 1.3 4.9 2.2 7.2 2.4h1.2c1.2-.2 2.2-.5 2.9-.8 1.1-.4 1.8-.8 1.8-.8l-.3.3c.3-.2.6-.5.8-.7l.1-.1-.1-.1c-.3.2-.7.5-1.4.7-.6.2-1.3.3-2.1.4-.8 0-1.7-.1-2.7-.3-1-.2-2-.6-3.1-1.1-1.1-.5-2.1-1.1-3.2-1.8s-2.2-1.5-3.2-2.3c-.6-.4-1-.8-1.6-1.3-.2-.2-.4-.3-.6-.5-.2.1-.3.2-.3.2s.1-.1.2-.3c-.3-.3-.7-.5-1-.8-1.2-.9-2.5-1.6-3.8-2.3-1.3-.7-2.7-1.1-4.1-1.5-2.7-.7-5.4-.6-7.6-.1-2.2.5-3.8 1.3-4.9 2-.6.4-1 .7-1.3 1 .1-.1.3-.2.4-.3.5 0 1.3-.3 2.2-.6zm37.6 9.6s-.6.4-1.8.8c-.8.3-1.8.6-2.9.8.7 0 1.3-.1 1.8-.2.9-.2 1.6-.5 2.2-.9.1-.1.3-.2.4-.3.2-.1.3-.2.3-.2zm-40.5-8.1s.6-.4 1.8-.8c.8-.3 1.8-.6 2.9-.8-.7 0-1.3.1-1.8.2-.9.2-1.6.5-2.2.9-.1.1-.3.2-.4.3-.2.1-.3.2-.3.2zm24.4.7c.6-.2 1.3-.3 2.1-.4.8 0 1.7.1 2.7.3 1 .2 2 .6 3.1 1.1 1.1.5 2.1 1.1 3.2 1.8s2.2 1.5 3.2 2.3c.6.4 1 .8 1.6 1.3.2.2.4.3.6.5.2-.1.3-.2.3-.2s-.1.1-.2.3c.3.3.7.5 1 .8 1.2.9 2.5 1.6 3.8 2.3 1.3.7 2.7 1.1 4.1 1.5 2.7.7 5.4.6 7.6.1 2.2-.5 3.8-1.3 4.9-2 .6-.4 1-.7 1.3-1-.1.1-.3.2-.4.3-.6.3-1.3.7-2.2.9-.6.1-1.2.2-1.8.2-.6.1-1.2.2-1.9.3-2 .2-4.4 0-6.8-.8-1.2-.4-2.4-.9-3.6-1.5-1.2-.6-2.4-1.3-3.4-2.1-.5-.4-1.1-.8-1.7-1.2-.5-.4-1.1-.9-1.7-1.3-1.1-.9-2.4-1.6-3.6-2.3-2.4-1.3-4.9-2.2-7.2-2.4h-1.2c-1.2.2-2.2.5-2.9.8-1.1.4-1.8.8-1.8.8l.3-.3c-.3.2-.6.5-.8.7l-.1.1.1.1c.3-.5.7-.7 1.4-1zm16.6 6.8c0 .1 0 .1 0 0 .2-.1.3-.2.3-.2s-.1.1-.3.2zm-18-6.1s-.1 0 0 0c-.2.1-.3.2-.3.2s.1-.1.3-.2zm3.4-2c.6-.1 1.2-.2 1.8-.2.6-.1 1.2-.2 1.9-.3 2-.2 4.4 0 6.8.8 1.2.4 2.4.9 3.6 1.5 1.2.6 2.4 1.3 3.4 2.1.5.4 1.1.8 1.7 1.2.5.4 1.1.9 1.7 1.3 1.1.9 2.4 1.6 3.6 2.3 2.4 1.3 4.9 2.2 7.2 2.4h1.2c1.2-.2 2.2-.5 2.9-.8 1.2-.4 1.8-.8 1.8-.8l-.3.3c.2-.2.4-.3.6-.5-.1 0-.1-.1-.2-.1-.3.1-.6.3-1 .5-.6.2-1.3.3-2.1.4-.8 0-1.7-.1-2.7-.3-1-.2-2-.6-3.1-1.1-1.1-.5-2.1-1.1-3.2-1.8s-2.2-1.5-3.2-2.3c-.6-.4-1-.8-1.6-1.3-.6-.4-1.1-.9-1.7-1.3-.6-.4-1.1-.8-1.7-1.1-.4.3-.7.5-.7.5s.1-.2.3-.4l.2-.2c-.6-.4-1.2-.7-1.9-1-1.3-.7-2.7-1.1-4.1-1.5-2.7-.7-5.4-.6-7.6-.1-2.2.5-3.8 1.3-4.9 2-.6.4-1 .7-1.3 1 .1-.1.3-.2.4-.3.5-.3 1.3-.7 2.2-.9zm37.6 9.6s-.6.4-1.8.8c-.8.3-1.8.6-2.9.8.7 0 1.3-.1 1.8-.2.9-.2 1.6-.5 2.2-.9.1-.1.3-.2.4-.3.2-.1.3-.2.3-.2zm-40.5-8.2s.6-.4 1.8-.8c.8-.3 1.8-.6 2.9-.8-.7 0-1.3.1-1.8.2-.9.2-1.6.5-2.2.9-.1.1-.3.2-.4.3-.2.1-.3.2-.3.2zm21.1-1c.6-.2 1.3-.3 2.1-.4.8 0 1.7.1 2.7.3 1 .2 2 .6 3.1 1.1 1.1.5 2.1 1.1 3.2 1.8s2.2 1.5 3.2 2.3c.6.4 1 .8 1.6 1.3.6.4 1.1.9 1.7 1.3.6.4 1.1.8 1.7 1.1.4-.3.7-.5.7-.5s-.1.2-.3.4l-.2.2c.6.4 1.2.7 1.9 1 1.3.7 2.7 1.1 4.1 1.5 2.7.7 5.4.6 7.6.1 2.2-.5 3.8-1.3 4.9-2 .6-.4 1-.7 1.3-1-.1.1-.3.2-.4.3-.6.3-1.3.7-2.2.9-.6.1-1.2.2-1.8.2-.6.1-1.2.2-1.9.3-2 .2-4.4 0-6.8-.8-1.2-.4-2.4-.9-3.6-1.5-1.2-.6-2.4-1.3-3.4-2.1-.5-.4-1.1-.8-1.7-1.2-.5-.4-1.1-.9-1.7-1.3-1.1-.9-2.4-1.6-3.6-2.3-2.4-1.3-4.9-2.2-7.2-2.4H411c-1.2.2-2.2.5-2.9.8-1.2.4-1.8.8-1.8.8l.3-.3c-.2.2-.4.3-.6.5.1 0 .1.1.2.1.3-.1.6-.3 1-.5zm20.2 8.4s-.2.2-.7.5c.1 0 .1.1.2.1l.2-.2c.2-.3.3-.4.3-.4zm-21.8-7.4s.2-.2.7-.5c-.1 0-.1-.1-.2-.1l-.2.2c-.2.2-.3.4-.3.4zm3.6-2.3c.6-.1 1.2-.2 1.8-.2.6-.1 1.2-.2 1.9-.3 2-.2 4.4 0 6.8.8 1.2.4 2.4.9 3.6 1.5 1.2.6 2.4 1.3 3.4 2.1.5.4 1.1.8 1.7 1.2.5.4 1.1.9 1.7 1.3 1.1.9 2.4 1.6 3.6 2.3 2.4 1.3 4.9 2.2 7.2 2.4h1.2c1.2-.2 2.2-.5 2.9-.8 1.2-.4 1.8-.8 1.8-.8l-.3.3.3-.3c-.1-.1-.2-.1-.3-.2-.2.1-.4.2-.7.3-.6.2-1.3.3-2.1.4-.8 0-1.7-.1-2.7-.3-1-.2-2-.6-3.1-1.1-1.1-.5-2.1-1.1-3.2-1.8s-2.2-1.5-3.2-2.3c-.6-.4-1-.8-1.6-1.3-.6-.4-1.1-.9-1.7-1.3-.2-.2-.4-.3-.6-.4-.7.3-1 .6-1 .6s.1-.2.3-.4l.4-.4c-.9-.6-1.9-1.2-2.9-1.7-1.3-.7-2.7-1.1-4.1-1.5-2.7-.7-5.4-.6-7.6-.1-2.2.5-3.8 1.3-4.9 2-.6.4-1 .7-1.3 1 .1-.1.3-.2.4-.3.7-.1 1.4-.4 2.3-.7zm-2.9 1.5s.6-.4 1.8-.8c.8-.3 1.8-.6 2.9-.8-.7 0-1.3.1-1.8.2-.9.2-1.6.5-2.2.9-.1.1-.3.2-.4.3-.1.1-.3.2-.3.2zm40.6 8.1s-.6.4-1.8.8c-.8.3-1.8.6-2.9.8.7 0 1.3-.1 1.8-.2.9-.2 1.6-.5 2.2-.9.1-.1.3-.2.4-.3.2-.1.3-.2.3-.2zm-18.6-8.3c.6-.2 1.3-.3 2.1-.4.8 0 1.7.1 2.7.3 1 .2 2 .6 3.1 1.1 1.1.5 2.1 1.1 3.2 1.8s2.2 1.5 3.2 2.3c.6.4 1 .8 1.6 1.3.6.4 1.1.9 1.7 1.3.2.2.4.3.6.4.7-.3 1-.6 1-.6s-.1.2-.3.4l-.4.4c.9.6 1.9 1.2 2.9 1.7 1.3.7 2.7 1.1 4.1 1.5 2.7.7 5.4.6 7.6.1 2.2-.5 3.8-1.3 4.9-2 .6-.4 1-.7 1.3-1-.1.1-.3.2-.4.3-.6.3-1.3.7-2.2.9-.6.1-1.2.2-1.8.2-.6.1-1.2.2-1.9.3-2 .2-4.4 0-6.8-.8-1.2-.4-2.4-.9-3.6-1.5-1.2-.6-2.4-1.3-3.4-2.1-.5-.4-1.1-.8-1.7-1.2-.5-.4-1.1-.9-1.7-1.3-1.1-.9-2.4-1.6-3.6-2.3-2.4-1.3-4.9-2.2-7.2-2.4h-1.2c-1.2.2-2.2.5-2.9.8-1.1.4-1.8.8-1.8.8l.3-.3-.3.3c.1.1.2.1.3.2.1-.3.3-.4.6-.5zm19 7.9c.2-.3.3-.4.3-.4s-.3.3-1 .6c.1.1.2.1.3.2.2-.1.3-.3.4-.4zm-20.4-7.3c-.2.3-.3.4-.3.4s.3-.3 1-.6c-.1-.1-.2-.1-.3-.2-.1.1-.3.2-.4.4zm3.4-1.9c.6-.1 1.2-.2 1.8-.2.6-.1 1.2-.2 1.9-.3 2-.2 4.4 0 6.8.8 1.2.4 2.4.9 3.6 1.5 1.2.6 2.4 1.3 3.4 2.1.5.4 1.1.8 1.7 1.2.5.4 1.1.9 1.7 1.3 1.1.9 2.4 1.6 3.6 2.3 2.4 1.3 4.9 2.2 7.2 2.4h1.2c1.2-.2 2.2-.5 2.9-.8 1.2-.4 1.8-.8 1.8-.8l-.3.3c.2-.2.4-.3.5-.4-.1 0-.1-.1-.2-.1-.2.1-.5.3-.9.4-.6.2-1.3.3-2.1.4-.8 0-1.7-.1-2.7-.3-1-.2-2-.6-3.1-1.1-1.1-.5-2.1-1.1-3.2-1.8s-2.2-1.5-3.2-2.3c-.6-.4-1-.8-1.6-1.3-.6-.4-1.1-.9-1.7-1.3-.2-.1-.3-.2-.5-.3-.5.3-.8.5-.8.5s.1-.2.3-.4c.1-.1.1-.2.2-.2-1-.7-2-1.3-3.1-1.8-1.3-.7-2.7-1.1-4.1-1.5-2.7-.7-5.4-.6-7.6-.1-2.2.5-3.8 1.3-4.9 2-.6.4-1 .7-1.3 1 .1-.1.3-.2.4-.3.6-.3 1.4-.6 2.3-.9zm37.6 9.6s-.6.4-1.8.8c-.8.3-1.8.6-2.9.8.7 0 1.3-.1 1.8-.2.9-.2 1.6-.5 2.2-.9.1-.1.3-.2.4-.3.2-.1.3-.2.3-.2zm-40.5-8.1s.6-.4 1.8-.8c.8-.3 1.8-.6 2.9-.8-.7 0-1.3.1-1.8.2-.9.2-1.6.5-2.2.9-.1.1-.3.2-.4.3-.2.1-.3.2-.3.2zm22.3-.2c.6-.2 1.3-.3 2.1-.4.8 0 1.7.1 2.7.3 1 .2 2 .6 3.1 1.1 1.1.5 2.1 1.1 3.2 1.8s2.2 1.5 3.2 2.3c.6.4 1 .8 1.6 1.3.6.4 1.1.9 1.7 1.3.2.1.3.2.5.3.5-.3.8-.5.8-.5s-.1.2-.3.4c-.1.1-.1.2-.2.2 1 .7 2 1.3 3.1 1.8 1.3.7 2.7 1.1 4.1 1.5 2.7.7 5.4.6 7.6.1 2.2-.5 3.8-1.3 4.9-2 .6-.4 1-.7 1.3-1-.1.1-.3.2-.4.3-.6.3-1.3.7-2.2.9-.6.1-1.2.2-1.8.2-.6.1-1.2.2-1.9.3-2 .2-4.4 0-6.8-.8-1.2-.4-2.4-.9-3.6-1.5-1.2-.6-2.4-1.3-3.4-2.1-.5-.4-1.1-.8-1.7-1.2-.5-.4-1.1-.9-1.7-1.3-1.1-.9-2.4-1.6-3.6-2.3-2.4-1.3-4.9-2.2-7.2-2.4h-1.2c-1.2.2-2.2.5-2.9.8-1.2.4-1.8.8-1.8.8l.3-.3c-.2.1-.4.3-.5.4.1 0 .1.1.2.1l.8-.4zm18.7 7.9c.2-.3.3-.4.3-.4s-.3.2-.8.5c.1 0 .1.1.2.1s.2-.1.3-.2zm-20-7.3c-.2.3-.3.4-.3.4s.3-.2.8-.5c-.1 0-.1-.1-.2-.1-.2 0-.3.1-.3.2zm3.3-1.9c.6-.1 1.2-.2 1.8-.2.6-.1 1.2-.2 1.9-.3 2-.2 4.4 0 6.8.8 1.2.4 2.4.9 3.6 1.5 1.2.6 2.4 1.3 3.4 2.1.5.4 1.1.8 1.7 1.2.5.4 1.1.9 1.7 1.3 1.1.9 2.4 1.6 3.6 2.3 2.4 1.3 4.9 2.2 7.2 2.4h1.2c1.2-.2 2.2-.5 2.9-.8 1.2-.4 1.8-.8 1.8-.8l-.3.3c.3-.2.6-.5.8-.7.2-.3.3-.4.3-.4s-.5.5-1.7.9c-.6.2-1.3.3-2.1.4-.8 0-1.7-.1-2.7-.3-1-.2-2-.6-3.1-1.1-1.1-.5-2.1-1.1-3.2-1.8s-2.2-1.5-3.2-2.3c-.6-.4-1-.8-1.6-1.3-.6-.4-1.1-.9-1.7-1.3-1.2-.9-2.5-1.6-3.8-2.3-1.3-.7-2.7-1.1-4.1-1.5-2.7-.7-5.4-.6-7.6-.1-2.2.5-3.8 1.3-4.9 2-.6.4-1 .7-1.3 1 .1-.1.3-.2.4-.3.6-.1 1.3-.4 2.2-.7zm37.6 9.6s-.6.4-1.8.8c-.8.3-1.8.6-2.9.8.7 0 1.3-.1 1.8-.2.9-.2 1.6-.5 2.2-.9.1-.1.3-.2.4-.3.2-.1.3-.2.3-.2zm-40.5-8.1s.6-.4 1.8-.8c.8-.3 1.8-.6 2.9-.8-.7 0-1.3.1-1.8.2-.9.2-1.6.5-2.2.9-.1.1-.3.2-.4.3-.2.1-.3.2-.3.2zm-151.2.8s-.6-.4-1.8-.8c-.8-.3-1.8-.6-2.9-.8h-1.2c-2.3.2-4.8 1.1-7.2 2.4-1.2.7-2.4 1.4-3.6 2.3-.6.4-1.2.9-1.7 1.3-.6.4-1.1.9-1.7 1.2-1.1.8-2.2 1.5-3.4 2.1-1.2.6-2.4 1.1-3.6 1.5-2.4.8-4.8 1-6.8.8-.7-.1-1.3-.2-1.9-.3-.7 0-1.3-.1-1.8-.2-.9-.2-1.6-.5-2.2-.9-.1-.1-.3-.2-.4-.3.2.2.6.6 1.3 1 1.1.7 2.7 1.6 4.9 2 2.2.5 4.9.5 7.6-.1 1.4-.3 2.7-.8 4.1-1.5 1.3-.6 2.6-1.4 3.8-2.3.6-.4 1.1-.9 1.7-1.3.6-.5 1.1-.9 1.6-1.3 1.1-.8 2.2-1.6 3.2-2.3 1.1-.7 2.2-1.3 3.2-1.8 1.1-.5 2.1-.8 3.1-1.1 1-.2 1.9-.3 2.7-.3.8.1 1.5.2 2.1.4 1.1.4 1.7.9 1.7.9s-.1-.2-.3-.4l-.7-.7c.1.4.2.5.2.5zm-19.5 0s-.2-.2-.7-.5c-.6.4-1.2.7-1.7 1.1-.6.4-1.1.9-1.7 1.3-.6.5-1.1.9-1.6 1.3-1.1.8-2.2 1.6-3.2 2.3-1.1.7-2.2 1.3-3.2 1.8-1.1.5-2.1.8-3.1 1.1-1 .2-1.9.3-2.7.3-.8-.1-1.5-.2-2.1-.4-.4-.1-.7-.3-1-.5-.1 0-.1.1-.2.1.2.1.3.3.6.5l-.3-.3s.6.4 1.8.8c.8.3 1.8.6 2.9.8h1.2c2.3-.2 4.8-1.1 7.2-2.4 1.2-.7 2.4-1.4 3.6-2.3.6-.4 1.2-.9 1.7-1.3.6-.4 1.1-.9 1.7-1.2 1.1-.8 2.2-1.5 3.4-2.1 1.2-.6 2.4-1.1 3.6-1.5 2.4-.8 4.8-1 6.8-.8.7.1 1.3.2 1.9.3.7 0 1.3.1 1.8.2.9.2 1.6.5 2.2.9.1.1.3.2.4.3-.2-.2-.6-.6-1.3-1-1.1-.7-2.7-1.6-4.9-2-2.2-.5-4.9-.5-7.6.1-1.4.3-2.7.8-4.1 1.5-.6.3-1.3.7-1.9 1l.2.2c.2.2.3.4.3.4zm16.6-1.4c-.6-.1-1.2-.2-1.8-.2 1.2.2 2.2.5 2.9.8 1.2.4 1.8.8 1.8.8l-.3-.3c-.1-.1-.3-.2-.4-.3-.6-.2-1.3-.6-2.2-.8zm-34.8 11c.6.1 1.2.2 1.8.2-1.2-.2-2.2-.5-2.9-.8-1.2-.4-1.8-.8-1.8-.8l.3.3c.1.1.3.2.4.3.6.3 1.3.6 2.2.8zm17.4-10.4s-.6-.4-1.8-.8c-.8-.3-1.8-.6-2.9-.8h-1.2c-2.3.2-4.8 1.1-7.2 2.4-1.2.7-2.4 1.4-3.6 2.3-.6.4-1.2.9-1.7 1.3-.6.4-1.1.9-1.7 1.2-1.1.8-2.2 1.5-3.4 2.1-1.2.6-2.4 1.1-3.6 1.5-2.4.8-4.8 1-6.8.8-.7-.1-1.3-.2-1.9-.3-.7 0-1.3-.1-1.8-.2-.9-.2-1.6-.5-2.2-.9-.1-.1-.3-.2-.4-.3.2.2.6.6 1.3 1 1.1.7 2.7 1.6 4.9 2 2.2.5 4.9.5 7.6-.1 1.4-.3 2.7-.8 4.1-1.5.6-.3 1.3-.7 1.9-1l-.2-.2c-.2-.3-.3-.4-.3-.4s.2.2.7.5c.6-.4 1.2-.7 1.7-1.1.6-.4 1.1-.9 1.7-1.3.6-.5 1.1-.9 1.6-1.3 1.1-.8 2.2-1.6 3.2-2.3 1.1-.7 2.2-1.3 3.2-1.8 1.1-.5 2.1-.8 3.1-1.1 1-.2 1.9-.3 2.7-.3.8.1 1.5.2 2.1.4.4.1.7.3 1 .5.1 0 .1-.1.2-.1-.2-.1-.3-.3-.6-.5l.3.3zm-21 8.2s.1.2.3.4l.2.2c.1 0 .1-.1.2-.1-.5-.3-.7-.5-.7-.5zm21.8-7.4s-.1-.2-.3-.4l-.2-.2c-.1 0-.1.1-.2.1.5.3.7.5.7.5zm-21.4-.4c.2.3.3.4.3.4s-.3-.3-1-.6c-.2.1-.4.3-.6.4-.6.4-1.1.9-1.7 1.3-.6.5-1.1.9-1.6 1.3-1.1.8-2.2 1.6-3.2 2.3-1.1.7-2.2 1.3-3.2 1.8-1.1.5-2.1.8-3.1 1.1-1 .2-1.9.3-2.7.3-.8-.1-1.5-.2-2.1-.4-.3-.1-.5-.2-.7-.3-.1.1-.2.1-.3.2l.3.3-.3-.3s.6.4 1.8.8c.8.3 1.8.6 2.9.8h1.2c2.3-.2 4.8-1.1 7.2-2.4 1.2-.7 2.4-1.4 3.6-2.3.6-.4 1.2-.9 1.7-1.3.6-.4 1.1-.9 1.7-1.2 1.1-.8 2.2-1.5 3.4-2.1 1.2-.6 2.4-1.1 3.6-1.5 2.4-.8 4.8-1 6.8-.8.7.1 1.3.2 1.9.3.7 0 1.3.1 1.8.2.9.2 1.6.5 2.2.9.1.1.3.2.4.3-.2-.2-.6-.6-1.3-1-1.1-.7-2.7-1.6-4.9-2-2.2-.5-4.9-.5-7.6.1-1.4.3-2.7.8-4.1 1.5-1 .5-2 1.1-2.9 1.7.3-.1.4 0 .5.2zm-17 9.1c.6.1 1.2.2 1.8.2-1.2-.2-2.2-.5-2.9-.8-1.2-.4-1.8-.8-1.8-.8l.3.3c.1.1.3.2.4.3.5.3 1.3.6 2.2.8zm34.7-11c-.6-.1-1.2-.2-1.8-.2 1.2.2 2.2.5 2.9.8 1.1.4 1.8.8 1.8.8l-.3-.3c-.1-.1-.3-.2-.4-.3-.5-.2-1.3-.5-2.2-.8zm-18.1 1.5s-.6-.4-1.8-.8c-.8-.3-1.8-.6-2.9-.8h-1.2c-2.3.2-4.8 1.1-7.2 2.4-1.2.7-2.4 1.4-3.6 2.3-.6.4-1.2.9-1.7 1.3-.6.4-1.1.9-1.7 1.2-1.1.8-2.2 1.5-3.4 2.1-1.2.6-2.4 1.1-3.6 1.5-2.4.8-4.8 1-6.8.8-.7-.1-1.3-.2-1.9-.3-.7 0-1.3-.1-1.8-.2-.9-.2-1.6-.5-2.2-.9-.1-.1-.3-.2-.4-.3.2.2.6.6 1.3 1 1.1.7 2.7 1.6 4.9 2 2.2.5 4.9.5 7.6-.1 1.4-.3 2.7-.8 4.1-1.5 1-.5 2-1.1 2.9-1.7-.2-.1-.3-.3-.4-.4-.2-.3-.3-.4-.3-.4s.3.3 1 .6c.2-.1.4-.3.6-.4.6-.4 1.1-.9 1.7-1.3.6-.5 1.1-.9 1.6-1.3 1.1-.8 2.2-1.6 3.2-2.3 1.1-.7 2.2-1.3 3.2-1.8 1.1-.5 2.1-.8 3.1-1.1 1-.2 1.9-.3 2.7-.3.8.1 1.5.2 2.1.4.3.1.5.2.7.3.1.1.1 0 .2 0 0-.1-.2-.2-.3-.3l.3.3zm-20.3 7.3s.1.2.3.4l.4.4c.1-.1.2-.1.3-.2-.7-.3-1-.6-1-.6zm21.1-6.5s-.1-.2-.3-.4l-.4-.4c-.1.1-.2.1-.3.2.6.3 1 .6 1 .6zm-21.8-.4c.2.3.3.4.3.4s-.3-.2-.8-.5c-.2.1-.3.2-.5.3-.6.4-1.1.9-1.7 1.3-.6.5-1.1.9-1.6 1.3-1.1.8-2.2 1.6-3.2 2.3-1.1.7-2.2 1.3-3.2 1.8-1.1.5-2.1.8-3.1 1.1-1 .2-1.9.3-2.7.3-.8-.1-1.5-.2-2.1-.4-.4-.1-.7-.3-.9-.4-.1 0-.1.1-.2.1.1.1.3.3.5.4l-.3-.3s.6.4 1.8.8c.8.3 1.8.6 2.9.8h1.2c2.3-.2 4.8-1.1 7.2-2.4 1.2-.7 2.4-1.4 3.6-2.3.6-.4 1.2-.9 1.7-1.3.6-.4 1.1-.9 1.7-1.2 1.1-.8 2.2-1.5 3.4-2.1 1.2-.6 2.4-1.1 3.6-1.5 2.4-.8 4.8-1 6.8-.8.7.1 1.3.2 1.9.3.7 0 1.3.1 1.8.2.9.2 1.6.5 2.2.9.1.1.3.2.4.3-.2-.2-.6-.6-1.3-1-1.1-.7-2.7-1.6-4.9-2-2.2-.5-4.9-.5-7.6.1-1.4.3-2.7.8-4.1 1.5-1.1.5-2.1 1.1-3.1 1.8.2 0 .2.1.3.2zm18.1-1.9c-.6-.1-1.2-.2-1.8-.2 1.2.2 2.2.5 2.9.8 1.2.4 1.8.8 1.8.8l-.3-.3c-.1-.1-.3-.2-.4-.3-.6-.2-1.3-.5-2.2-.8zm-34.8 11c.6.1 1.2.2 1.8.2-1.2-.2-2.2-.5-2.9-.8-1.2-.4-1.8-.8-1.8-.8l.3.3c.1.1.3.2.4.3.6.3 1.3.6 2.2.8zm16.2-9.5s-.6-.4-1.8-.8c-.8-.3-1.8-.6-2.9-.8h-1.2c-2.3.2-4.8 1.1-7.2 2.4-1.2.7-2.4 1.4-3.6 2.3-.6.4-1.2.9-1.7 1.3-.6.4-1.1.9-1.7 1.2-1.1.8-2.2 1.5-3.4 2.1-1.2.6-2.4 1.1-3.6 1.5-2.4.8-4.8 1-6.8.8-.7-.1-1.3-.2-1.9-.3-.7 0-1.3-.1-1.8-.2-.9-.2-1.6-.5-2.2-.9-.1-.1-.3-.2-.4-.3.2.2.6.6 1.3 1 1.1.7 2.7 1.6 4.9 2 2.2.5 4.9.5 7.6-.1 1.4-.3 2.7-.8 4.1-1.5 1.1-.5 2.1-1.1 3.1-1.8l-.2-.2c-.2-.3-.3-.4-.3-.4s.3.2.8.5c.2-.1.3-.2.5-.3.6-.4 1.1-.9 1.7-1.3.6-.5 1.1-.9 1.6-1.3 1.1-.8 2.2-1.6 3.2-2.3 1.1-.7 2.2-1.3 3.2-1.8 1.1-.5 2.1-.8 3.1-1.1 1-.2 1.9-.3 2.7-.3.8.1 1.5.2 2.1.4.4.1.7.3.9.4.1 0 .1-.1.2-.1-.1-.1-.3-.3-.5-.4.1.2.2.3.2.3zm-19.8 7.3s.1.2.3.4c.1.1.1.2.2.2s.1-.1.2-.1c-.5-.2-.7-.5-.7-.5zm20.6-6.5s-.1-.2-.3-.4c-.1-.1-.1-.2-.2-.2s-.1.1-.2.1c.5.2.7.5.7.5zm-23.8.6c-.2.2-.4.3-.6.5-.6.5-1.1.9-1.6 1.3-1.1.8-2.2 1.6-3.2 2.3-1.1.7-2.2 1.3-3.2 1.8-1.1.5-2.1.8-3.1 1.1-1 .2-1.9.3-2.7.3-.8-.1-1.5-.2-2.1-.4-.7-.2-1.1-.5-1.4-.7l-.1.1.1.1.7.7-.3-.3s.6.4 1.8.8c.8.3 1.8.6 2.9.8h1.2c2.3-.2 4.8-1.1 7.2-2.4 1.2-.7 2.4-1.4 3.6-2.3.6-.4 1.2-.9 1.7-1.3.6-.4 1.1-.9 1.7-1.2 1.1-.8 2.2-1.5 3.4-2.1 1.2-.6 2.4-1.1 3.6-1.5 2.4-.8 4.8-1 6.8-.8.7.1 1.3.2 1.9.3.7 0 1.3.1 1.8.2.9.2 1.6.5 2.2.9.1.1.3.2.4.3-.2-.2-.6-.6-1.3-1-1.1-.7-2.7-1.6-4.9-2-2.2-.5-4.9-.5-7.6.1-1.4.3-2.7.8-4.1 1.5-1.3.6-2.6 1.4-3.8 2.3-.2 0-.6.3-1 .6.2.1.3.2.3.2s-.1-.1-.3-.2zm-14.6 8.1c.6.1 1.2.2 1.8.2-1.2-.2-2.2-.5-2.9-.8-1.2-.4-1.8-.8-1.8-.8l.3.3c.1.1.3.2.4.3.6.3 1.3.6 2.2.8zM232 98c-.6-.1-1.2-.2-1.8-.2 1.2.2 2.2.5 2.9.8 1.2.4 1.8.8 1.8.8l-.3-.3c-.1-.1-.3-.2-.4-.3-.6-.2-1.3-.5-2.2-.8zm-20.7 2.3s-.6-.4-1.8-.8c-.8-.3-1.8-.6-2.9-.8h-1.2c-2.3.2-4.8 1.1-7.2 2.4-1.2.7-2.4 1.4-3.6 2.3-.6.4-1.2.9-1.7 1.3-.6.4-1.1.9-1.7 1.2-1.1.8-2.2 1.5-3.4 2.1-1.2.6-2.4 1.1-3.6 1.5-2.4.8-4.8 1-6.8.8-.7-.1-1.3-.2-1.9-.3-.7 0-1.3-.1-1.8-.2-.9-.2-1.6-.5-2.2-.9-.1-.1-.3-.2-.4-.3.2.2.6.6 1.3 1 1.1.7 2.7 1.6 4.9 2 2.2.5 4.9.5 7.6-.1 1.4-.3 2.7-.8 4.1-1.5 1.3-.6 2.6-1.4 3.8-2.3.4-.3.7-.5 1-.8-.1-.2-.2-.3-.2-.3s.1.1.3.2c.2-.2.4-.3.6-.5.6-.5 1.1-.9 1.6-1.3 1.1-.8 2.2-1.6 3.2-2.3 1.1-.7 2.2-1.3 3.2-1.8 1.1-.5 2.1-.8 3.1-1.1 1-.2 1.9-.3 2.7-.3.8.1 1.5.2 2.1.4.7.2 1.1.5 1.4.7l.1-.1-.1-.1c-.2-.2-.4-.4-.8-.7.2.5.3.6.3.6zm-17.8 6.5s.1.1.2.3l.1-.1c-.1-.1-.3-.2-.3-.2zm18.6-5.7s-.1-.1-.2-.3l-.1.1c.2.1.3.2.3.2zm-20.2-.8s-.2-.2-.7-.5c-.6.4-1.2.7-1.7 1.1-.6.4-1.1.9-1.7 1.3-.6.5-1.1.9-1.6 1.3-1.1.8-2.2 1.6-3.2 2.3-1.1.7-2.2 1.3-3.2 1.8-1.1.5-2.1.8-3.1 1.1-1 .2-1.9.3-2.7.3-.8-.1-1.5-.2-2.1-.4-.4-.1-.7-.3-1-.5-.1 0-.1.1-.2.1.2.1.3.3.6.5l-.3-.3s.6.4 1.8.8c.8.3 1.8.6 2.9.8h1.2c2.3-.2 4.8-1.1 7.2-2.4 1.2-.7 2.4-1.4 3.6-2.3.6-.4 1.2-.9 1.7-1.3.6-.4 1.1-.9 1.7-1.2 1.1-.8 2.2-1.5 3.4-2.1 1.2-.6 2.4-1.1 3.6-1.5 2.4-.8 4.8-1 6.8-.8.7.1 1.3.2 1.9.3.7 0 1.3.1 1.8.2.9.2 1.6.5 2.2.9.1.1.3.2.4.3-.2-.2-.6-.6-1.3-1-1.1-.7-2.7-1.6-4.9-2-2.2-.5-4.9-.5-7.6.1-1.4.3-2.7.8-4.1 1.5-.6.3-1.3.7-1.9 1l.2.2c.2.2.3.4.3.4zm16.6-1.4c-.6-.1-1.2-.2-1.8-.2 1.2.2 2.2.5 2.9.8 1.2.4 1.8.8 1.8.8l-.3-.3c-.1-.1-.3-.2-.4-.3-.6-.2-1.3-.6-2.2-.8zm-34.8 11c.6.1 1.2.2 1.8.2-1.2-.2-2.2-.5-2.9-.8-1.2-.4-1.8-.8-1.8-.8l.3.3c.1.1.3.2.4.3.6.3 1.3.6 2.2.8zm17.4-10.4s-.6-.4-1.8-.8c-.8-.3-1.8-.6-2.9-.8h-1.2c-2.3.2-4.8 1.1-7.2 2.4-1.2.7-2.4 1.4-3.6 2.3-.6.4-1.2.9-1.7 1.3-.6.4-1.1.9-1.7 1.2-1.1.8-2.2 1.5-3.4 2.1-1.2.6-2.4 1.1-3.6 1.5-2.4.8-4.8 1-6.8.8-.7-.1-1.3-.2-1.9-.3-.7 0-1.3-.1-1.8-.2-.9-.2-1.6-.5-2.2-.9-.1-.1-.3-.2-.4-.3.2.2.6.6 1.3 1 1.1.7 2.7 1.6 4.9 2 2.2.5 4.9.5 7.6-.1 1.4-.3 2.7-.8 4.1-1.5.6-.3 1.3-.7 1.9-1l-.2-.2c-.2-.3-.3-.4-.3-.4s.2.2.7.5c.6-.4 1.2-.7 1.7-1.1.6-.4 1.1-.9 1.7-1.3.6-.5 1.1-.9 1.6-1.3 1.1-.8 2.2-1.6 3.2-2.3 1.1-.7 2.2-1.3 3.2-1.8 1.1-.5 2.1-.8 3.1-1.1 1-.2 1.9-.3 2.7-.3.8.1 1.5.2 2.1.4.4.1.7.3 1 .5.1 0 .1-.1.2-.1-.2-.1-.3-.3-.6-.5l.3.3zm-21.1 8.2s.1.2.3.4l.2.2c.1 0 .1-.1.2-.1-.4-.3-.7-.5-.7-.5zm21.9-7.4s-.1-.2-.3-.4l-.2-.2c-.1 0-.1.1-.2.1.4.3.7.5.7.5zm-21.4-.4c.2.3.3.4.3.4s-.3-.3-1-.6c-.2.1-.4.3-.6.4-.6.4-1.1.9-1.7 1.3-.6.5-1.1.9-1.6 1.3-1.1.8-2.2 1.6-3.2 2.3-1.1.7-2.2 1.3-3.2 1.8-1.1.5-2.1.8-3.1 1.1-1 .2-1.9.3-2.7.3-.8-.1-1.5-.2-2.1-.4-.3-.1-.5-.2-.7-.3-.1.1-.2.1-.3.2l.3.3-.3-.3s.6.4 1.8.8c.8.3 1.8.6 2.9.8h1.2c2.3-.2 4.8-1.1 7.2-2.4 1.2-.7 2.4-1.4 3.6-2.3.6-.4 1.2-.9 1.7-1.3.6-.4 1.1-.9 1.7-1.2 1.1-.8 2.2-1.5 3.4-2.1 1.2-.6 2.4-1.1 3.6-1.5 2.4-.8 4.8-1 6.8-.8.7.1 1.3.2 1.9.3.7 0 1.3.1 1.8.2.9.2 1.6.5 2.2.9.1.1.3.2.4.3-.2-.2-.6-.6-1.3-1-1.1-.7-2.7-1.6-4.9-2-2.2-.5-4.9-.5-7.6.1-1.4.3-2.7.8-4.1 1.5-1 .5-2 1.1-2.9 1.7.3-.1.4 0 .5.2zm17.7-1.9c-.6-.1-1.2-.2-1.8-.2 1.2.2 2.2.5 2.9.8 1.1.4 1.8.8 1.8.8l-.3-.3c-.1-.1-.3-.2-.4-.3-.6-.2-1.3-.5-2.2-.8zm-34.8 11c.6.1 1.2.2 1.8.2-1.2-.2-2.2-.5-2.9-.8-1.1-.4-1.8-.8-1.8-.8l.3.3c.1.1.3.2.4.3.6.3 1.3.6 2.2.8zm16.6-9.5s-.6-.4-1.8-.8c-.8-.3-1.8-.6-2.9-.8h-1.2c-2.3.2-4.8 1.1-7.2 2.4-1.2.7-2.4 1.4-3.6 2.3-.6.4-1.2.9-1.7 1.3-.6.4-1.1.9-1.7 1.2-1.1.8-2.2 1.5-3.4 2.1-1.2.6-2.4 1.1-3.6 1.5-2.4.8-4.8 1-6.8.8-.7-.1-1.3-.2-1.9-.3-.7 0-1.3-.1-1.8-.2-.9-.2-1.6-.5-2.2-.9-.1-.1-.3-.2-.4-.3.2.2.6.6 1.3 1 1.1.7 2.7 1.6 4.9 2 2.2.5 4.9.5 7.6-.1 1.4-.3 2.7-.8 4.1-1.5 1-.5 2-1.1 2.9-1.7-.2-.1-.3-.3-.4-.4-.2-.3-.3-.4-.3-.4s.3.3 1 .6c.2-.1.4-.3.6-.4.6-.4 1.1-.9 1.7-1.3.6-.5 1.1-.9 1.6-1.3 1.1-.8 2.2-1.6 3.2-2.3 1.1-.7 2.2-1.3 3.2-1.8 1.1-.5 2.1-.8 3.1-1.1 1-.2 1.9-.3 2.7-.3.8.1 1.5.2 2.1.4.3.1.5.2.7.3.1.1.2 0 .2 0 0-.1-.2-.2-.3-.3l.3.3zm.8.8s-.1-.2-.3-.4l-.4-.4c-.1.1-.2.1-.3.2.7.3 1 .6 1 .6zm-21 6.5s.1.2.3.4l.4.4c.1-.1.2-.1.3-.2-.7-.3-1-.6-1-.6zm-.7-6.9c.2.3.3.4.3.4s-.3-.2-.8-.5c-.2.1-.3.2-.5.3-.6.4-1.1.9-1.7 1.3-.6.5-1.1.9-1.6 1.3-1.1.8-2.2 1.6-3.2 2.3-1.1.7-2.2 1.3-3.2 1.8-1.1.5-2.1.8-3.1 1.1-1 .2-1.9.3-2.7.3-.8-.1-1.5-.2-2.1-.4-.4-.1-.7-.3-.9-.4-.1 0-.1.1-.2.1.1.1.3.3.5.4l-.3-.3s.6.4 1.8.8c.8.3 1.8.6 2.9.8h1.2c2.3-.2 4.8-1.1 7.2-2.4 1.2-.7 2.4-1.4 3.6-2.3.6-.4 1.2-.9 1.7-1.3.6-.4 1.1-.9 1.7-1.2 1.1-.8 2.2-1.5 3.4-2.1 1.2-.6 2.4-1.1 3.6-1.5 2.4-.8 4.8-1 6.8-.8.7.1 1.3.2 1.9.3.7 0 1.3.1 1.8.2.9.2 1.6.5 2.2.9.1.1.3.2.4.3-.2-.2-.6-.6-1.3-1-1.1-.7-2.7-1.6-4.9-2-2.2-.5-4.9-.5-7.6.1-1.4.3-2.7.8-4.1 1.5-1.1.5-2.1 1.1-3.1 1.8.1 0 .2.1.3.2zm18.1-1.9c-.6-.1-1.2-.2-1.8-.2 1.2.2 2.2.5 2.9.8 1.1.4 1.8.8 1.8.8l-.3-.3c-.1-.1-.3-.2-.4-.3-.6-.2-1.3-.5-2.2-.8zm-34.8 11c.6.1 1.2.2 1.8.2-1.2-.2-2.2-.5-2.9-.8-1.1-.4-1.8-.8-1.8-.8l.3.3c.1.1.3.2.4.3.6.3 1.3.6 2.2.8zm16.2-9.5s-.6-.4-1.8-.8c-.8-.3-1.8-.6-2.9-.8h-1.2c-2.3.2-4.8 1.1-7.2 2.4-1.2.7-2.4 1.4-3.6 2.3-.6.4-1.2.9-1.7 1.3-.6.4-1.1.9-1.7 1.2-1.1.8-2.2 1.5-3.4 2.1-1.2.6-2.4 1.1-3.6 1.5-2.4.8-4.8 1-6.8.8-.7-.1-1.3-.2-1.9-.3-.7 0-1.3-.1-1.8-.2-.9-.2-1.6-.5-2.2-.9-.1-.1-.3-.2-.4-.3.2.2.6.6 1.3 1 1.1.7 2.7 1.6 4.9 2 2.2.5 4.9.5 7.6-.1 1.4-.3 2.7-.8 4.1-1.5 1.1-.5 2.1-1.1 3.1-1.8l-.2-.2c-.2-.3-.3-.4-.3-.4s.3.2.8.5c.2-.1.3-.2.5-.3.6-.4 1.1-.9 1.7-1.3.6-.5 1.1-.9 1.6-1.3 1.1-.8 2.2-1.6 3.2-2.3 1.1-.7 2.2-1.3 3.2-1.8 1.1-.5 2.1-.8 3.1-1.1 1-.2 1.9-.3 2.7-.3.8.1 1.5.2 2.1.4.4.1.7.3.9.4.1 0 .1-.1.2-.1-.1-.1-.3-.3-.5-.4.1.2.2.3.2.3zm-19.9 7.3s.1.2.3.4c.1.1.1.2.2.2s.1-.1.2-.1c-.4-.2-.7-.5-.7-.5zm20.7-6.5s-.1-.2-.3-.4c-.1-.1-.1-.2-.2-.2s-.1.1-.2.1c.4.2.7.5.7.5zm-41 7.6l-.3-.3s.6.4 1.8.8c.8.3 1.8.6 2.9.8h1.2c2.3-.2 4.8-1.1 7.2-2.4 1.2-.7 2.4-1.4 3.6-2.3.6-.4 1.2-.9 1.7-1.3.6-.4 1.1-.9 1.7-1.2 1.1-.8 2.2-1.5 3.4-2.1 1.2-.6 2.4-1.1 3.6-1.5 2.4-.8 4.8-1 6.8-.8.7.1 1.3.2 1.9.3.7 0 1.3.1 1.8.2.9.2 1.6.5 2.2.9.1.1.3.2.4.3-.2-.2-.6-.6-1.3-1-1.1-.7-2.7-1.6-4.9-2-2.2-.5-4.9-.5-7.6.1-1.4.3-2.7.8-4.1 1.5-1.3.6-2.6 1.4-3.8 2.3-.6.4-1.1.9-1.7 1.3-.6.5-1.1.9-1.6 1.3-1.1.8-2.2 1.6-3.2 2.3-1.1.7-2.2 1.3-3.2 1.8-1.1.5-2.1.8-3.1 1.1-1 .2-1.9.3-2.7.3-.8-.1-1.5-.2-2.1-.4-1.1-.4-1.7-.9-1.7-.9s.1.2.3.4c.2 0 .5.2.8.5zm37.3-9.9c-.6-.1-1.2-.2-1.8-.2 1.2.2 2.2.5 2.9.8 1.2.4 1.8.8 1.8.8l-.3-.3c-.1-.1-.3-.2-.4-.3-.5-.2-1.3-.5-2.2-.8zM111 109c.6.1 1.2.2 1.8.2-1.2-.2-2.2-.5-2.9-.8-1.2-.4-1.8-.8-1.8-.8l.3.3c.1.1.3.2.4.3.5.3 1.3.6 2.2.8zm382.8 149.3c.1.6.2 1.2.2 1.8.1.6.2 1.2.3 1.9.2 2 0 4.4-.8 6.8-.4 1.2-.9 2.4-1.5 3.6-.6 1.2-1.3 2.4-2.1 3.4-.4.5-.8 1.1-1.2 1.7-.4.5-.9 1.1-1.3 1.7-.9 1.1-1.6 2.4-2.3 3.6-1.3 2.4-2.2 4.9-2.4 7.2v1.2c.2 1.2.5 2.2.8 2.9.4 1.2.8 1.8.8 1.8l-.3-.3c.2.3.5.6.7.8.3.2.4.3.4.3s-.5-.5-.9-1.7c-.2-.6-.3-1.3-.4-2.1 0-.8.1-1.7.3-2.7.2-1 .6-2 1.1-3.1.5-1.1 1.1-2.1 1.8-3.2s1.5-2.2 2.3-3.2c.4-.6.8-1 1.3-1.6.4-.6.9-1.1 1.3-1.7.9-1.2 1.6-2.5 2.3-3.8.7-1.3 1.1-2.7 1.5-4.1.7-2.7.6-5.4.1-7.6-.5-2.2-1.3-3.8-2-4.9-.4-.6-.7-1-1-1.3.1.1.2.3.3.4.1.6.5 1.3.7 2.2zm-1.3-2c.2.6.3 1.3.4 2.1 0 .8-.1 1.7-.3 2.7-.2 1-.6 2-1.1 3.1-.5 1.1-1.1 2.1-1.8 3.2s-1.5 2.2-2.3 3.2c-.4.6-.8 1-1.3 1.6-.4.6-.9 1.1-1.3 1.7-.4.6-.8 1.1-1.1 1.7.3.4.5.7.5.7s-.2-.1-.4-.3l-.2-.2c-.4.6-.7 1.2-1 1.9-.7 1.3-1.1 2.7-1.5 4.1-.7 2.7-.6 5.4-.1 7.6.5 2.2 1.4 3.8 2 4.9.4.6.7 1 1 1.3-.1-.1-.2-.3-.3-.4-.3-.6-.7-1.3-.9-2.2-.1-.6-.2-1.2-.2-1.8-.1-.6-.2-1.2-.3-1.9-.2-2 0-4.4.8-6.8.4-1.2.9-2.4 1.5-3.6.6-1.2 1.3-2.4 2.1-3.4.4-.5.8-1.1 1.2-1.7.4-.5.9-1.1 1.3-1.7.9-1.1 1.6-2.4 2.3-3.6 1.3-2.4 2.2-4.9 2.4-7.2v-1.2c-.2-1.2-.5-2.2-.8-2.9-.4-1.2-.8-1.8-.8-1.8l.3.3c-.2-.2-.3-.4-.5-.6 0 .1-.1.1-.1.2.2.3.3.6.5 1zm-8.3 39.6s-.4-.6-.8-1.8c-.3-.8-.6-1.8-.8-2.9 0 .7.1 1.3.2 1.8.2.9.5 1.6.9 2.2.1.1.2.3.3.4.1.2.2.3.2.3zm8.2-40.5s.4.6.8 1.8c.3.8.6 1.8.8 2.9 0-.7-.1-1.3-.2-1.8-.2-.9-.5-1.6-.9-2.2-.1-.1-.2-.3-.3-.4-.1-.2-.2-.3-.2-.3zm.5-17.4c.1.6.2 1.2.2 1.8.1.6.2 1.2.3 1.9.2 2 0 4.4-.8 6.8-.4 1.2-.9 2.4-1.5 3.6-.6 1.2-1.3 2.4-2.1 3.4-.4.5-.8 1.1-1.2 1.7-.4.5-.9 1.1-1.3 1.7-.9 1.1-1.6 2.4-2.3 3.6-1.3 2.4-2.2 4.9-2.4 7.2v1.2c.2 1.2.5 2.2.8 2.9.4 1.2.8 1.8.8 1.8l-.3-.3c.2.2.3.4.5.6 0-.1.1-.1.1-.2-.1-.3-.3-.6-.5-1-.2-.6-.3-1.3-.4-2.1 0-.8.1-1.7.3-2.7.2-1 .6-2 1.1-3.1.5-1.1 1.1-2.1 1.8-3.2s1.5-2.2 2.3-3.2c.4-.6.8-1 1.3-1.6.4-.6.9-1.1 1.3-1.7.4-.6.8-1.1 1.1-1.7-.3-.4-.5-.7-.5-.7s.2.1.4.3l.2.2c.4-.6.7-1.2 1-1.9.7-1.3 1.1-2.7 1.5-4.1.7-2.7.6-5.4.1-7.6-.5-2.2-1.4-3.8-2-4.9-.4-.6-.7-1-1-1.3.1.1.2.3.3.4.4.6.7 1.3.9 2.2zm-1.3 16.6s.2.2.5.7c0-.1.1-.1.1-.2l-.2-.2c-.3-.2-.4-.3-.4-.3zm-7.4 21.9s-.2-.2-.5-.7c0 .1-.1.1-.1.2l.2.2c.2.2.4.3.4.3zm7.4-40.4c.2.6.3 1.3.4 2.1 0 .8-.1 1.7-.3 2.7-.2 1-.6 2-1.1 3.1-.5 1.1-1.1 2.1-1.8 3.2s-1.5 2.2-2.3 3.2c-.4.6-.8 1-1.3 1.6-.4.6-.9 1.1-1.3 1.7-.2.2-.3.4-.4.6.3.7.6 1 .6 1s-.2-.1-.4-.3l-.4-.4c-.6.9-1.2 1.9-1.7 2.9-.7 1.3-1.1 2.7-1.5 4.1-.7 2.7-.6 5.4-.1 7.6.5 2.2 1.3 3.8 2 4.9.4.6.7 1 1 1.3-.1-.1-.2-.3-.3-.4-.3-.6-.7-1.3-.9-2.2-.1-.6-.2-1.2-.2-1.8-.1-.6-.2-1.2-.3-1.9-.2-2 0-4.4.8-6.8.4-1.2.9-2.4 1.5-3.6.6-1.2 1.3-2.4 2.1-3.4.4-.5.8-1.1 1.2-1.7.4-.5.9-1.1 1.3-1.7.9-1.1 1.6-2.4 2.3-3.6 1.3-2.4 2.2-4.9 2.4-7.2v-1.2c-.2-1.2-.5-2.2-.8-2.9-.4-1.2-.8-1.8-.8-1.8l.3.3-.3-.3c-.1.1-.1.2-.2.3.3.1.4.3.5.6zm-.1-.9s.4.6.8 1.8c.3.8.6 1.8.8 2.9 0-.7-.1-1.3-.2-1.8-.2-.9-.5-1.6-.9-2.2-.1-.1-.2-.3-.3-.4-.1-.2-.2-.3-.2-.3zm-8.1 40.5s-.4-.6-.8-1.8c-.3-.8-.6-1.8-.8-2.9 0 .7.1 1.3.2 1.8.2.9.5 1.6.9 2.2.1.1.2.3.3.4 0 .2.2.3.2.3zm9.5-58.7c.1.6.2 1.2.2 1.8.1.6.2 1.2.3 1.9.2 2 0 4.4-.8 6.8-.4 1.2-.9 2.4-1.5 3.6-.6 1.2-1.3 2.4-2.1 3.4-.4.5-.8 1.1-1.2 1.7-.4.5-.9 1.1-1.3 1.7-.9 1.1-1.6 2.4-2.3 3.6-1.3 2.4-2.2 4.9-2.4 7.2v1.2c.2 1.2.5 2.2.8 2.9.4 1.2.8 1.8.8 1.8l-.3-.3.3.3c.1-.1.1-.2.2-.3-.1-.2-.2-.4-.3-.7-.2-.6-.3-1.3-.4-2.1 0-.8.1-1.7.3-2.7.2-1 .6-2 1.1-3.1.5-1.1 1.1-2.1 1.8-3.2s1.5-2.2 2.3-3.2c.4-.6.8-1 1.3-1.6.4-.6.9-1.1 1.3-1.7.2-.2.3-.4.4-.6-.3-.7-.6-1-.6-1s.2.1.4.3l.4.4c.6-.9 1.2-1.9 1.7-2.9.7-1.3 1.1-2.7 1.5-4.1.7-2.7.6-5.4.1-7.6-.5-2.2-1.4-3.8-2-4.9-.4-.6-.7-1-1-1.3.1.1.2.3.3.4.2.7.5 1.4.7 2.3zm-9.2 38.1c.3.2.4.3.4.3s-.3-.3-.6-1c-.1.1-.1.2-.2.3.2.1.3.3.4.4zm7.4-20.4c-.3-.2-.4-.3-.4-.3s.3.3.6 1c.1-.1.1-.2.2-.3-.1-.2-.3-.3-.4-.4zm.5-19.7c.2.6.3 1.3.4 2.1 0 .8-.1 1.7-.3 2.7-.2 1-.6 2-1.1 3.1-.5 1.1-1.1 2.1-1.8 3.2s-1.5 2.2-2.3 3.2c-.4.6-.8 1-1.3 1.6-.4.6-.9 1.1-1.3 1.7-.1.2-.2.3-.3.5.3.5.5.8.5.8s-.2-.1-.4-.3c-.1-.1-.2-.1-.2-.2-.7 1-1.3 2-1.8 3.1-.7 1.3-1.1 2.7-1.5 4.1-.7 2.7-.6 5.4-.1 7.6.5 2.2 1.3 3.8 2 4.9.4.6.7 1 1 1.3-.1-.1-.2-.3-.3-.4-.3-.6-.7-1.3-.9-2.2-.1-.6-.2-1.2-.2-1.8-.1-.6-.2-1.2-.3-1.9-.2-2 0-4.4.8-6.8.4-1.2.9-2.4 1.5-3.6.6-1.2 1.3-2.4 2.1-3.4.4-.5.8-1.1 1.2-1.7.4-.5.9-1.1 1.3-1.7.9-1.1 1.6-2.4 2.3-3.6 1.3-2.4 2.2-4.9 2.4-7.2v-1.2c-.2-1.2-.5-2.2-.8-2.9-.4-1.2-.8-1.8-.8-1.8l.3.3c-.1-.2-.3-.4-.4-.5 0 .1-.1.1-.1.2.1.1.3.4.4.8zm-8.2 39.6s-.4-.6-.8-1.8c-.3-.8-.6-1.8-.8-2.9 0 .7.1 1.3.2 1.8.2.9.5 1.6.9 2.2.1.1.2.3.3.4 0 .2.2.3.2.3zm8.1-40.5s.4.6.8 1.8c.3.8.6 1.8.8 2.9 0-.7-.1-1.3-.2-1.8-.2-.9-.5-1.6-.9-2.2-.1-.1-.2-.3-.3-.4-.1-.2-.2-.3-.2-.3zm1.4-18.6c.1.6.2 1.2.2 1.8.1.6.2 1.2.3 1.9.2 2 0 4.4-.8 6.8-.4 1.2-.9 2.4-1.5 3.6-.6 1.2-1.3 2.4-2.1 3.4-.4.5-.8 1.1-1.2 1.7-.4.5-.9 1.1-1.3 1.7-.9 1.1-1.6 2.4-2.3 3.6-1.3 2.4-2.2 4.9-2.4 7.2v1.2c.2 1.2.5 2.2.8 2.9.4 1.2.8 1.8.8 1.8l-.3-.3c.1.2.3.4.4.5 0-.1.1-.1.1-.2-.1-.2-.3-.5-.4-.9-.2-.6-.3-1.3-.4-2.1 0-.8.1-1.7.3-2.7.2-1 .6-2 1.1-3.1.5-1.1 1.1-2.1 1.8-3.2s1.5-2.2 2.3-3.2c.4-.6.8-1 1.3-1.6.4-.6.9-1.1 1.3-1.7.1-.2.2-.3.3-.5-.3-.5-.5-.8-.5-.8s.2.1.4.3c.1.1.2.1.2.2.7-1 1.3-2 1.8-3.1.7-1.3 1.1-2.7 1.5-4.1.7-2.7.6-5.4.1-7.6-.5-2.2-1.4-3.8-2-4.9-.4-.6-.7-1-1-1.3.1.1.2.3.3.4.4.7.7 1.5.9 2.3zm-9.2 38.1c.3.2.4.3.4.3s-.2-.3-.5-.8c0 .1-.1.1-.1.2.1.2.2.3.2.3zm7.4-19.9c-.3-.2-.4-.3-.4-.3s.2.3.5.8c0-.1.1-.1.1-.2 0-.2-.1-.3-.2-.3zm.5-20.1c.2.6.3 1.3.4 2.1 0 .8-.1 1.7-.3 2.7-.2 1-.6 2-1.1 3.1-.5 1.1-1.1 2.1-1.8 3.2s-1.5 2.2-2.3 3.2c-.4.6-.8 1-1.3 1.6-.2.2-.3.4-.5.6.1.2.2.3.2.3s-.1-.1-.3-.2c-.3.3-.5.7-.8 1-.9 1.2-1.6 2.5-2.3 3.8-.7 1.3-1.1 2.7-1.5 4.1-.7 2.7-.6 5.4-.1 7.6.5 2.2 1.3 3.8 2 4.9.4.6.7 1 1 1.3-.1-.1-.2-.3-.3-.4-.3-.6-.7-1.3-.9-2.2-.1-.6-.2-1.2-.2-1.8-.1-.6-.2-1.2-.3-1.9-.2-2 0-4.4.8-6.8.4-1.2.9-2.4 1.5-3.6.6-1.2 1.3-2.4 2.1-3.4.4-.5.8-1.1 1.2-1.7.4-.5.9-1.1 1.3-1.7.9-1.1 1.6-2.4 2.3-3.6 1.3-2.4 2.2-4.9 2.4-7.2v-1.2c-.2-1.2-.5-2.2-.8-2.9-.4-1.2-.8-1.8-.8-1.8l.3.3c-.2-.3-.5-.6-.7-.7l-.1-.1-.1.1c.5.1.8.6 1 1.3zm-8.2 39.6s-.4-.6-.8-1.8c-.3-.8-.6-1.8-.8-2.9 0 .7.1 1.3.2 1.8.2.9.5 1.6.9 2.2.1.1.2.3.3.4 0 .2.2.3.2.3zm8.1-40.5s.4.6.8 1.8c.3.8.6 1.8.8 2.9 0-.7-.1-1.3-.2-1.8-.2-.9-.5-1.6-.9-2.2-.1-.1-.2-.3-.3-.4-.1-.2-.2-.3-.2-.3zm2.3-20.6c.1.6.2 1.2.2 1.8.1.6.2 1.2.3 1.9.2 2 0 4.4-.8 6.8-.4 1.2-.9 2.4-1.5 3.6-.6 1.2-1.3 2.4-2.1 3.4-.4.5-.8 1.1-1.2 1.7-.4.5-.9 1.1-1.3 1.7-.9 1.1-1.6 2.4-2.3 3.6-1.3 2.4-2.2 4.9-2.4 7.2v1.2c.2 1.2.5 2.2.8 2.9.4 1.2.8 1.8.8 1.8l-.3-.3c.2.3.5.6.7.8l.1.1.1-.1c-.2-.3-.5-.7-.7-1.4-.2-.6-.3-1.3-.4-2.1 0-.8.1-1.7.3-2.7.2-1 .6-2 1.1-3.1.5-1.1 1.1-2.1 1.8-3.2s1.5-2.2 2.3-3.2c.4-.6.8-1 1.3-1.6.2-.2.3-.4.5-.6-.1-.2-.2-.3-.2-.3s.1.1.3.2c.3-.3.5-.7.8-1 .9-1.2 1.6-2.5 2.3-3.8.7-1.3 1.1-2.7 1.5-4.1.7-2.7.6-5.4.1-7.6-.5-2.2-1.3-3.8-2-4.9-.4-.6-.7-1-1-1.3.1.1.2.3.3.4 0 .5.4 1.3.6 2.2zm-9 38.1c.1.2.2.3.2.3s-.1-.1-.2-.3zm6.1-18s.1-.1 0 0c-.1-.2-.2-.3-.2-.3s.1.1.2.3zm1.6-22.1c.2.6.3 1.3.4 2.1 0 .8-.1 1.7-.3 2.7-.2 1-.6 2-1.1 3.1-.5 1.1-1.1 2.1-1.8 3.2s-1.5 2.2-2.3 3.2c-.4.6-.8 1-1.3 1.6-.4.6-.9 1.1-1.3 1.7-.4.6-.8 1.1-1.1 1.7.3.4.5.7.5.7s-.2-.1-.4-.3l-.2-.2c-.4.6-.7 1.2-1 1.9-.7 1.3-1.1 2.7-1.5 4.1-.7 2.7-.6 5.4-.1 7.6.5 2.2 1.4 3.8 2 4.9.4.6.7 1 1 1.3-.1-.1-.2-.3-.3-.4-.3-.6-.7-1.3-.9-2.2-.1-.6-.2-1.2-.2-1.8-.1-.6-.2-1.2-.3-1.9-.2-2 0-4.4.8-6.8.4-1.2.9-2.4 1.5-3.6.6-1.2 1.3-2.4 2.1-3.4.4-.5.8-1.1 1.2-1.7.4-.5.9-1.1 1.3-1.7.9-1.1 1.6-2.4 2.3-3.6 1.3-2.4 2.2-4.9 2.4-7.2v-1.2c-.2-1.2-.5-2.2-.8-2.9-.4-1.2-.8-1.8-.8-1.8l.3.3c-.2-.2-.3-.4-.5-.6 0 .1-.1.1-.1.2.2.2.3.6.5 1zm-.1-.9s.4.6.8 1.8c.3.8.6 1.8.8 2.9 0-.7-.1-1.3-.2-1.8-.2-.9-.5-1.6-.9-2.2-.1-.1-.2-.3-.3-.4-.1-.2-.2-.3-.2-.3zm-8.2 40.5s-.4-.6-.8-1.8c-.3-.8-.6-1.8-.8-2.9 0 .7.1 1.3.2 1.8.2.9.5 1.6.9 2.2.1.1.2.3.3.4.1.2.2.3.2.3zm8.7-57.9c.1.6.2 1.2.2 1.8.1.6.2 1.2.3 1.9.2 2 0 4.4-.8 6.8-.4 1.2-.9 2.4-1.5 3.6-.6 1.2-1.3 2.4-2.1 3.4-.4.5-.8 1.1-1.2 1.7-.4.5-.9 1.1-1.3 1.7-.9 1.1-1.6 2.4-2.3 3.6-1.3 2.4-2.2 4.9-2.4 7.2v1.2c.2 1.2.5 2.2.8 2.9.4 1.2.8 1.8.8 1.8l-.3-.3c.2.2.3.4.5.6 0-.1.1-.1.1-.2-.1-.3-.3-.6-.5-1-.2-.6-.3-1.3-.4-2.1 0-.8.1-1.7.3-2.7.2-1 .6-2 1.1-3.1.5-1.1 1.1-2.1 1.8-3.2s1.5-2.2 2.3-3.2c.4-.6.8-1 1.3-1.6.4-.6.9-1.1 1.3-1.7.4-.6.8-1.1 1.1-1.7-.3-.4-.5-.7-.5-.7s.2.1.4.3l.2.2c.4-.6.7-1.2 1-1.9.7-1.3 1.1-2.7 1.5-4.1.7-2.7.6-5.4.1-7.6-.5-2.2-1.4-3.8-2-4.9-.4-.6-.7-1-1-1.3.1.1.2.3.3.4.4.6.7 1.3.9 2.2zm-1.3 16.6s.2.2.5.7c0-.1.1-.1.1-.2l-.2-.2c-.3-.2-.4-.3-.4-.3zm-7.4 21.8s-.2-.2-.5-.7c0 .1-.1.1-.1.2l.2.2c.2.2.4.3.4.3zm7.4-40.4c.2.6.3 1.3.4 2.1 0 .8-.1 1.7-.3 2.7-.2 1-.6 2-1.1 3.1-.5 1.1-1.1 2.1-1.8 3.2s-1.5 2.2-2.3 3.2c-.4.6-.8 1-1.3 1.6-.4.6-.9 1.1-1.3 1.7-.2.2-.3.4-.4.6.3.7.6 1 .6 1s-.2-.1-.4-.3l-.4-.4c-.6.9-1.2 1.9-1.7 2.9-.7 1.3-1.1 2.7-1.5 4.1-.7 2.7-.6 5.4-.1 7.6.5 2.2 1.3 3.8 2 4.9.4.6.7 1 1 1.3-.1-.1-.2-.3-.3-.4-.3-.6-.7-1.3-.9-2.2-.1-.6-.2-1.2-.2-1.8-.1-.6-.2-1.2-.3-1.9-.2-2 0-4.4.8-6.8.4-1.2.9-2.4 1.5-3.6.6-1.2 1.3-2.4 2.1-3.4.4-.5.8-1.1 1.2-1.7.4-.5.9-1.1 1.3-1.7.9-1.1 1.6-2.4 2.3-3.6 1.3-2.4 2.2-4.9 2.4-7.2v-1.2c-.2-1.2-.5-2.2-.8-2.9-.4-1.2-.8-1.8-.8-1.8l.3.3-.3-.3c-.1.1-.1.2-.2.3.3.1.4.4.5.6zm-8.2 39.6s-.4-.6-.8-1.8c-.3-.8-.6-1.8-.8-2.9 0 .7.1 1.3.2 1.8.2.9.5 1.6.9 2.2.1.1.2.3.3.4 0 .2.2.3.2.3zm8.1-40.5s.4.6.8 1.8c.3.8.6 1.8.8 2.9 0-.7-.1-1.3-.2-1.8-.2-.9-.5-1.6-.9-2.2-.1-.1-.2-.3-.3-.4-.1-.2-.2-.3-.2-.3zm1.4-18.1c.1.6.2 1.2.2 1.8.1.6.2 1.2.3 1.9.2 2 0 4.4-.8 6.8-.4 1.2-.9 2.4-1.5 3.6-.6 1.2-1.3 2.4-2.1 3.4-.4.5-.8 1.1-1.2 1.7-.4.5-.9 1.1-1.3 1.7-.9 1.1-1.6 2.4-2.3 3.6-1.3 2.4-2.2 4.9-2.4 7.2v1.2c.2 1.2.5 2.2.8 2.9.4 1.2.8 1.8.8 1.8l-.3-.3.3.3c.1-.1.1-.2.2-.3-.1-.2-.2-.4-.3-.7-.2-.6-.3-1.3-.4-2.1 0-.8.1-1.7.3-2.7.2-1 .6-2 1.1-3.1.5-1.1 1.1-2.1 1.8-3.2s1.5-2.2 2.3-3.2c.4-.6.8-1 1.3-1.6.4-.6.9-1.1 1.3-1.7.2-.2.3-.4.4-.6-.3-.7-.6-1-.6-1s.2.1.4.3l.4.4c.6-.9 1.2-1.9 1.7-2.9.7-1.3 1.1-2.7 1.5-4.1.7-2.7.6-5.4.1-7.6-.5-2.2-1.4-3.8-2-4.9-.4-.6-.7-1-1-1.3.1.1.2.3.3.4.2.6.5 1.4.7 2.3zm-1.8 17.7c-.3-.2-.4-.3-.4-.3s.3.3.6 1c.1-.1.1-.2.2-.3-.1-.2-.3-.3-.4-.4zm-7.4 20.4c.3.2.4.3.4.3s-.3-.3-.6-1c-.1.1-.1.2-.2.3.2.1.3.2.4.4zm7.9-40.1c.2.6.3 1.3.4 2.1 0 .8-.1 1.7-.3 2.7-.2 1-.6 2-1.1 3.1-.5 1.1-1.1 2.1-1.8 3.2s-1.5 2.2-2.3 3.2c-.4.6-.8 1-1.3 1.6-.4.6-.9 1.1-1.3 1.7-.1.2-.2.3-.3.5.3.5.5.8.5.8s-.2-.1-.4-.3c-.1-.1-.2-.1-.2-.2-.7 1-1.3 2-1.8 3.1-.7 1.3-1.1 2.7-1.5 4.1-.7 2.7-.6 5.4-.1 7.6.5 2.2 1.3 3.8 2 4.9.4.6.7 1 1 1.3-.1-.1-.2-.3-.3-.4-.3-.6-.7-1.3-.9-2.2-.1-.6-.2-1.2-.2-1.8-.1-.6-.2-1.2-.3-1.9-.2-2 0-4.4.8-6.8.4-1.2.9-2.4 1.5-3.6.6-1.2 1.3-2.4 2.1-3.4.4-.5.8-1.1 1.2-1.7.4-.5.9-1.1 1.3-1.7.9-1.1 1.6-2.4 2.3-3.6 1.3-2.4 2.2-4.9 2.4-7.2v-1.2c-.2-1.2-.5-2.2-.8-2.9-.4-1.2-.8-1.8-.8-1.8l.3.3c-.1-.2-.3-.4-.4-.5 0 .1-.1.1-.1.2.1.1.3.4.4.8zm-8.2 39.6s-.4-.6-.8-1.8c-.3-.8-.6-1.8-.8-2.9 0 .7.1 1.3.2 1.8.2.9.5 1.6.9 2.2.1.1.2.3.3.4 0 .2.2.3.2.3zm8.1-40.5s.4.6.8 1.8c.3.8.6 1.8.8 2.9 0-.7-.1-1.3-.2-1.8-.2-.9-.5-1.6-.9-2.2-.1-.1-.2-.3-.3-.4-.1-.2-.2-.3-.2-.3zm1.4-18.6c.1.6.2 1.2.2 1.8.1.6.2 1.2.3 1.9.2 2 0 4.4-.8 6.8-.4 1.2-.9 2.4-1.5 3.6-.6 1.2-1.3 2.4-2.1 3.4-.4.5-.8 1.1-1.2 1.7-.4.5-.9 1.1-1.3 1.7-.9 1.1-1.6 2.4-2.3 3.6-1.3 2.4-2.2 4.9-2.4 7.2v1.2c.2 1.2.5 2.2.8 2.9.4 1.2.8 1.8.8 1.8l-.3-.3c.1.2.3.4.4.5 0-.1.1-.1.1-.2-.1-.2-.3-.5-.4-.9-.2-.6-.3-1.3-.4-2.1 0-.8.1-1.7.3-2.7.2-1 .6-2 1.1-3.1.5-1.1 1.1-2.1 1.8-3.2s1.5-2.2 2.3-3.2c.4-.6.8-1 1.3-1.6.4-.6.9-1.1 1.3-1.7.1-.2.2-.3.3-.5-.3-.5-.5-.8-.5-.8s.2.1.4.3c.1.1.2.1.2.2.7-1 1.3-2 1.8-3.1.7-1.3 1.1-2.7 1.5-4.1.7-2.7.6-5.4.1-7.6-.5-2.2-1.4-3.8-2-4.9-.4-.6-.7-1-1-1.3.1.1.2.3.3.4.4.7.7 1.4.9 2.3zm-9.2 38.1c.3.2.4.3.4.3s-.2-.3-.5-.8c0 .1-.1.1-.1.2.1.2.2.3.2.3zm7.4-20c-.3-.2-.4-.3-.4-.3s.2.3.5.8c0-.1.1-.1.1-.2s-.1-.2-.2-.3zm-.4-12.1c-.5 1.1-1.1 2.1-1.8 3.2s-1.5 2.2-2.3 3.2c-.4.6-.8 1-1.3 1.6-.4.6-.9 1.1-1.3 1.7-.9 1.2-1.6 2.5-2.3 3.8-.7 1.3-1.1 2.7-1.5 4.1-.7 2.7-.6 5.4-.1 7.6.5 2.2 1.3 3.8 2 4.9.4.6.7 1 1 1.3-.1-.1-.2-.3-.3-.4-.3-.6-.7-1.3-.9-2.2-.1-.6-.2-1.2-.2-1.8-.1-.6-.2-1.2-.3-1.9-.2-2 0-4.4.8-6.8.4-1.2.9-2.4 1.5-3.6.6-1.2 1.3-2.4 2.1-3.4.4-.5.8-1.1 1.2-1.7.4-.5.9-1.1 1.3-1.7.9-1.1 1.6-2.4 2.3-3.6 1.3-2.4 2.2-4.9 2.4-7.2v-1.2c-.2-1.2-.5-2.2-.8-2.9-.4-1.2-.8-1.8-.8-1.8l.3.3c-.2-.3-.5-.6-.7-.8-.3-.2-.4-.3-.4-.3s.5.5.9 1.7c.2.6.3 1.3.4 2.1 0 .8-.1 1.7-.3 2.7-.1 1-.4 2-.9 3.1zm.8-8.9s.4.6.8 1.8c.3.8.6 1.8.8 2.9 0-.7-.1-1.3-.2-1.8-.2-.9-.5-1.6-.9-2.2-.1-.1-.2-.3-.3-.4-.1-.1-.2-.3-.2-.3zm-8.1 40.6s-.4-.6-.8-1.8c-.3-.8-.6-1.8-.8-2.9 0 .7.1 1.3.2 1.8.2.9.5 1.6.9 2.2.1.1.2.3.3.4 0 .2.2.3.2.3zm.8 151.2s-.4.6-.8 1.8c-.3.8-.6 1.8-.8 2.9v1.2c.2 2.3 1.1 4.8 2.4 7.2.7 1.2 1.4 2.4 2.3 3.6.4.6.9 1.2 1.3 1.7.4.6.9 1.1 1.2 1.7.8 1.1 1.5 2.2 2.1 3.4.6 1.2 1.1 2.4 1.5 3.6.8 2.4 1 4.8.8 6.8-.1.7-.2 1.3-.3 1.9 0 .7-.1 1.3-.2 1.8-.2.9-.5 1.6-.9 2.2-.1.1-.2.3-.3.4.2-.2.6-.6 1-1.3.7-1.1 1.6-2.7 2-4.9.5-2.2.5-4.9-.1-7.6-.3-1.4-.8-2.7-1.5-4.1-.6-1.3-1.4-2.6-2.3-3.8-.4-.6-.9-1.1-1.3-1.7-.5-.6-.9-1.1-1.3-1.6-.8-1.1-1.6-2.2-2.3-3.2-.7-1.1-1.3-2.2-1.8-3.2-.5-1.1-.8-2.1-1.1-3.1-.2-1-.3-1.9-.3-2.7.1-.8.2-1.5.4-2.1.4-1.1.9-1.7.9-1.7s-.2.1-.4.3l-.7.7c.4-.1.5-.2.5-.2zm8.4 40.2l-.3.3s.4-.6.8-1.8c.3-.8.6-1.8.8-2.9v-1.2c-.2-2.3-1.1-4.8-2.4-7.2-.7-1.2-1.4-2.4-2.3-3.6-.4-.6-.9-1.2-1.3-1.7-.4-.6-.9-1.1-1.2-1.7-.8-1.1-1.5-2.2-2.1-3.4-.6-1.2-1.1-2.4-1.5-3.6-.8-2.4-1-4.8-.8-6.8.1-.7.2-1.3.3-1.9 0-.7.1-1.3.2-1.8.2-.9.5-1.6.9-2.2.1-.1.2-.3.3-.4-.2.2-.6.6-1 1.3-.7 1.1-1.6 2.7-2 4.9-.5 2.2-.5 4.9.1 7.6.3 1.4.8 2.7 1.5 4.1.3.6.7 1.3 1 1.9l.2-.2c.3-.2.4-.3.4-.3s-.2.2-.5.7c.4.6.7 1.2 1.1 1.7.4.6.9 1.1 1.3 1.7.5.6.9 1.1 1.3 1.6.8 1.1 1.6 2.2 2.3 3.2.7 1.1 1.3 2.2 1.8 3.2.5 1.1.8 2.1 1.1 3.1.2 1 .3 1.9.3 2.7-.1.8-.2 1.5-.4 2.1-.1.4-.3.7-.5 1 0 .1.1.1.1.2.2-.1.4-.3.5-.6zm1.2-2.6c.1-.6.2-1.2.2-1.8-.2 1.2-.5 2.2-.8 2.9-.4 1.2-.8 1.8-.8 1.8l.3-.3c.1-.1.2-.3.3-.4.2-.5.6-1.3.8-2.2zm-11-34.7c-.1.6-.2 1.2-.2 1.8.2-1.2.5-2.2.8-2.9.4-1.2.8-1.8.8-1.8l-.3.3c-.1.1-.2.3-.3.4-.3.5-.6 1.3-.8 2.2zm8.8 38.4s.2-.2.5-.7c-.4-.6-.7-1.2-1.1-1.7-.4-.6-.9-1.1-1.3-1.7-.5-.6-.9-1.1-1.3-1.6-.8-1.1-1.6-2.2-2.3-3.2-.7-1.1-1.3-2.2-1.8-3.2-.5-1.1-.8-2.1-1.1-3.1-.2-1-.3-1.9-.3-2.7.1-.8.2-1.5.4-2.1.1-.4.3-.7.5-1 0-.1-.1-.1-.1-.2-.1.2-.3.3-.5.6l.3-.3s-.4.6-.8 1.8c-.3.8-.6 1.8-.8 2.9v1.2c.2 2.3 1.1 4.8 2.4 7.2.7 1.2 1.4 2.4 2.3 3.6.4.6.9 1.2 1.3 1.7.4.6.9 1.1 1.2 1.7.8 1.1 1.5 2.2 2.1 3.4.6 1.2 1.1 2.4 1.5 3.6.8 2.4 1 4.8.8 6.8-.1.7-.2 1.3-.3 1.9 0 .7-.1 1.3-.2 1.8-.2.9-.5 1.6-.9 2.2-.1.1-.2.3-.3.4.2-.2.6-.6 1-1.3.7-1.1 1.6-2.7 2-4.9.5-2.2.5-4.9-.1-7.6-.3-1.4-.8-2.7-1.5-4.1-.3-.6-.7-1.3-1-1.9l-.2.2c-.3.2-.4.3-.4.3zm-7.4-21.8s-.2.1-.4.3l-.2.2c0 .1.1.1.1.2.2-.5.5-.7.5-.7zm7.4 21.8s.2-.1.4-.3l.2-.2c0-.1-.1-.1-.1-.2-.3.5-.5.7-.5.7zm-.1 19.5s.4-.6.8-1.8c.3-.8.6-1.8.8-2.9v-1.2c-.2-2.3-1.1-4.8-2.4-7.2-.7-1.2-1.4-2.4-2.3-3.6-.4-.6-.9-1.2-1.3-1.7-.4-.6-.9-1.1-1.2-1.7-.8-1.1-1.5-2.2-2.1-3.4-.6-1.2-1.1-2.4-1.5-3.6-.8-2.4-1-4.8-.8-6.8.1-.7.2-1.3.3-1.9 0-.7.1-1.3.2-1.8.2-.9.5-1.6.9-2.2.1-.1.2-.3.3-.4-.2.2-.6.6-1 1.3-.7 1.1-1.6 2.7-2 4.9-.5 2.2-.5 4.9.1 7.6.3 1.4.8 2.7 1.5 4.1.5 1 1.1 2 1.7 2.9.1-.2.3-.3.4-.4.3-.2.4-.3.4-.3s-.3.3-.6 1c.1.2.3.4.4.6.4.6.9 1.1 1.3 1.7.5.6.9 1.1 1.3 1.6.8 1.1 1.6 2.2 2.3 3.2.7 1.1 1.3 2.2 1.8 3.2.5 1.1.8 2.1 1.1 3.1.2 1 .3 1.9.3 2.7-.1.8-.2 1.5-.4 2.1-.1.3-.2.5-.3.7-.1.1-.1.1 0 .2.1 0 .2-.2.3-.3l-.3.3zm-9.6-37.7c-.1.6-.2 1.2-.2 1.8.2-1.2.5-2.2.8-2.9.4-1.2.8-1.8.8-1.8l-.3.3c-.1.1-.2.3-.3.4-.2.6-.6 1.3-.8 2.2zm11 34.8c.1-.6.2-1.2.2-1.8-.2 1.2-.5 2.2-.8 2.9-.4 1.2-.8 1.8-.8 1.8l.3-.3c.1-.1.2-.3.3-.4.3-.6.6-1.3.8-2.2zm-1.8 3.3c-.3.2-.4.3-.4.3s.3-.3.6-1c-.1-.2-.3-.4-.4-.6-.4-.6-.9-1.1-1.3-1.7-.5-.6-.9-1.1-1.3-1.6-.8-1.1-1.6-2.2-2.3-3.2-.7-1.1-1.3-2.2-1.8-3.2-.5-1.1-.8-2.1-1.1-3.1-.2-1-.3-1.9-.3-2.7.1-.8.2-1.5.4-2.1.1-.3.2-.5.3-.7-.1-.1-.1-.2-.2-.3l-.3.3.3-.3s-.4.6-.8 1.8c-.3.8-.6 1.8-.8 2.9v1.2c.2 2.3 1.1 4.8 2.4 7.2.7 1.2 1.4 2.4 2.3 3.6.4.6.9 1.2 1.3 1.7.4.6.9 1.1 1.2 1.7.8 1.1 1.5 2.2 2.1 3.4.6 1.2 1.1 2.4 1.5 3.6.8 2.4 1 4.8.8 6.8-.1.7-.2 1.3-.3 1.9 0 .7-.1 1.3-.2 1.8-.2.9-.5 1.6-.9 2.2-.1.1-.2.3-.3.4.2-.2.6-.6 1-1.3.7-1.1 1.6-2.7 2-4.9.5-2.2.5-4.9-.1-7.6-.3-1.4-.8-2.7-1.5-4.1-.5-1-1.1-2-1.7-2.9.1.3-.1.4-.2.5zm-6.9-20.7s-.2.1-.4.3l-.4.4c.1.1.1.2.2.3.3-.7.6-1 .6-1zm6.5 21.1s.2-.1.4-.3l.4-.4c-.1-.1-.1-.2-.2-.3-.3.6-.6 1-.6 1zm.8 20.2s.4-.6.8-1.8c.3-.8.6-1.8.8-2.9v-1.2c-.2-2.3-1.1-4.8-2.4-7.2-.7-1.2-1.4-2.4-2.3-3.6-.4-.6-.9-1.2-1.3-1.7-.4-.6-.9-1.1-1.2-1.7-.8-1.1-1.5-2.2-2.1-3.4-.6-1.2-1.1-2.4-1.5-3.6-.8-2.4-1-4.8-.8-6.8.1-.7.2-1.3.3-1.9 0-.7.1-1.3.2-1.8.2-.9.5-1.6.9-2.2.1-.1.2-.3.3-.4-.2.2-.6.6-1 1.3-.7 1.1-1.6 2.7-2 4.9-.5 2.2-.5 4.9.1 7.6.3 1.4.8 2.7 1.5 4.1.5 1.1 1.1 2.1 1.8 3.1l.2-.2c.3-.2.4-.3.4-.3s-.2.3-.5.8c.1.2.2.3.3.5.4.6.9 1.1 1.3 1.7.5.6.9 1.1 1.3 1.6.8 1.1 1.6 2.2 2.3 3.2.7 1.1 1.3 2.2 1.8 3.2.5 1.1.8 2.1 1.1 3.1.2 1 .3 1.9.3 2.7-.1.8-.2 1.5-.4 2.1-.1.4-.3.7-.4.9 0 .1.1.1.1.2.1-.1.3-.3.4-.5-.2.1-.3.2-.3.2zm1.4-2.9c.1-.6.2-1.2.2-1.8-.2 1.2-.5 2.2-.8 2.9-.4 1.2-.8 1.8-.8 1.8l.3-.3c.1-.1.2-.3.3-.4.3-.5.6-1.3.8-2.2zm-11-34.7c-.1.6-.2 1.2-.2 1.8.2-1.2.5-2.2.8-2.9.4-1.2.8-1.8.8-1.8l-.3.3c-.1.1-.2.3-.3.4-.2.5-.6 1.3-.8 2.2zm9.2 38.1c-.3.2-.4.3-.4.3s.2-.3.5-.8c-.1-.2-.2-.3-.3-.5-.4-.6-.9-1.1-1.3-1.7-.5-.6-.9-1.1-1.3-1.6-.8-1.1-1.6-2.2-2.3-3.2-.7-1.1-1.3-2.2-1.8-3.2-.5-1.1-.8-2.1-1.1-3.1-.2-1-.3-1.9-.3-2.7.1-.8.2-1.5.4-2.1.1-.4.3-.7.4-.9 0-.1-.1-.1-.1-.2-.1.1-.3.3-.4.5l.3-.3s-.4.6-.8 1.8c-.3.8-.6 1.8-.8 2.9v1.2c.2 2.3 1.1 4.8 2.4 7.2.7 1.2 1.4 2.4 2.3 3.6.4.6.9 1.2 1.3 1.7.4.6.9 1.1 1.2 1.7.8 1.1 1.5 2.2 2.1 3.4.6 1.2 1.1 2.4 1.5 3.6.8 2.4 1 4.8.8 6.8-.1.7-.2 1.3-.3 1.9 0 .7-.1 1.3-.2 1.8-.2.9-.5 1.6-.9 2.2-.1.1-.2.3-.3.4.2-.2.6-.6 1-1.3.7-1.1 1.6-2.7 2-4.9.5-2.2.5-4.9-.1-7.6-.3-1.4-.8-2.7-1.5-4.1-.5-1.1-1.1-2.1-1.8-3.1 0 .1-.1.2-.2.3zm-6.9-20.3s-.2.1-.4.3c-.1.1-.2.1-.2.2s.1.1.1.2c.2-.5.5-.7.5-.7zm6.5 20.6s.2-.1.4-.3c.1-.1.2-.1.2-.2s-.1-.1-.1-.2c-.3.4-.5.7-.5.7zm.8 20.7s.4-.6.8-1.8c.3-.8.6-1.8.8-2.9v-1.2c-.2-2.3-1.1-4.8-2.4-7.2-.7-1.2-1.4-2.4-2.3-3.6-.4-.6-.9-1.2-1.3-1.7-.4-.6-.9-1.1-1.2-1.7-.8-1.1-1.5-2.2-2.1-3.4-.6-1.2-1.1-2.4-1.5-3.6-.8-2.4-1-4.8-.8-6.8.1-.7.2-1.3.3-1.9 0-.7.1-1.3.2-1.8.2-.9.5-1.6.9-2.2.1-.1.2-.3.3-.4-.2.2-.6.6-1 1.3-.7 1.1-1.6 2.7-2 4.9-.5 2.2-.5 4.9.1 7.6.3 1.4.8 2.7 1.5 4.1.6 1.3 1.4 2.6 2.3 3.8.3.4.5.7.8 1 .2-.1.3-.2.3-.2s-.1.1-.2.3c.2.2.3.4.5.6.5.6.9 1.1 1.3 1.6.8 1.1 1.6 2.2 2.3 3.2.7 1.1 1.3 2.2 1.8 3.2.5 1.1.8 2.1 1.1 3.1.2 1 .3 1.9.3 2.7-.1.8-.2 1.5-.4 2.1-.2.7-.5 1.1-.7 1.4l.1.1.1-.1.7-.7c-.5 0-.6.2-.6.2zm1.4-2.9c.1-.6.2-1.2.2-1.8-.2 1.2-.5 2.2-.8 2.9-.4 1.2-.8 1.8-.8 1.8l.3-.3c.1-.1.2-.3.3-.4.3-.6.6-1.3.8-2.2zm-11-34.8c-.1.6-.2 1.2-.2 1.8.2-1.2.5-2.2.8-2.9.4-1.2.8-1.8.8-1.8l-.3.3c-.1.1-.2.3-.3.4-.2.6-.6 1.3-.8 2.2zm9 38.1c-.2-.2-.3-.4-.5-.6-.5-.6-.9-1.1-1.3-1.6-.8-1.1-1.6-2.2-2.3-3.2-.7-1.1-1.3-2.2-1.8-3.2-.5-1.1-.8-2.1-1.1-3.1-.2-1-.3-1.9-.3-2.7.1-.8.2-1.5.4-2.1.2-.7.5-1.1.7-1.4l-.1-.1-.1.1c-.2.2-.4.4-.7.8l.3-.3s-.4.6-.8 1.8c-.3.8-.6 1.8-.8 2.9v1.2c.2 2.3 1.1 4.8 2.4 7.2.7 1.2 1.4 2.4 2.3 3.6.4.6.9 1.2 1.3 1.7.4.6.9 1.1 1.2 1.7.8 1.1 1.5 2.2 2.1 3.4.6 1.2 1.1 2.4 1.5 3.6.8 2.4 1 4.8.8 6.8-.1.7-.2 1.3-.3 1.9 0 .7-.1 1.3-.2 1.8-.2.9-.5 1.6-.9 2.2-.1.1-.2.3-.3.4.2-.2.6-.6 1-1.3.7-1.1 1.6-2.7 2-4.9.5-2.2.5-4.9-.1-7.6-.3-1.4-.8-2.7-1.5-4.1-.6-1.3-1.4-2.6-2.3-3.8 0-.3-.3-.7-.6-1.1-.1.2-.2.3-.2.3s.1-.1.2-.3zm-.2.3s.1-.1.3-.2l-.1-.1c-.1.2-.2.3-.2.3zm-5.7-18.5s-.1.1-.3.2l.1.1c.1-.2.2-.3.2-.3zm7.4 41.3s.4-.6.8-1.8c.3-.8.6-1.8.8-2.9v-1.2c-.2-2.3-1.1-4.8-2.4-7.2-.7-1.2-1.4-2.4-2.3-3.6-.4-.6-.9-1.2-1.3-1.7-.4-.6-.9-1.1-1.2-1.7-.8-1.1-1.5-2.2-2.1-3.4-.6-1.2-1.1-2.4-1.5-3.6-.8-2.4-1-4.8-.8-6.8.1-.7.2-1.3.3-1.9 0-.7.1-1.3.2-1.8.2-.9.5-1.6.9-2.2.1-.1.2-.3.3-.4-.2.2-.6.6-1 1.3-.7 1.1-1.6 2.7-2 4.9-.5 2.2-.5 4.9.1 7.6.3 1.4.8 2.7 1.5 4.1.3.6.7 1.3 1 1.9l.2-.2c.3-.2.4-.3.4-.3s-.2.2-.5.7c.4.6.7 1.2 1.1 1.7.4.6.9 1.1 1.3 1.7.5.6.9 1.1 1.3 1.6.8 1.1 1.6 2.2 2.3 3.2.7 1.1 1.3 2.2 1.8 3.2.5 1.1.8 2.1 1.1 3.1.2 1 .3 1.9.3 2.7-.1.8-.2 1.5-.4 2.1-.1.4-.3.7-.5 1 0 .1.1.1.1.2.1-.2.3-.3.5-.6-.2.1-.3.3-.3.3zm-9.6-37.7c-.1.6-.2 1.2-.2 1.8.2-1.2.5-2.2.8-2.9.4-1.2.8-1.8.8-1.8l-.3.3c-.1.1-.2.3-.3.4-.3.6-.6 1.3-.8 2.2zm11 34.8c.1-.6.2-1.2.2-1.8-.2 1.2-.5 2.2-.8 2.9-.4 1.2-.8 1.8-.8 1.8l.3-.3c.1-.1.2-.3.3-.4.2-.6.6-1.3.8-2.2zm-2.2 3.6s.2-.2.5-.7c-.4-.6-.7-1.2-1.1-1.7-.4-.6-.9-1.1-1.3-1.7-.5-.6-.9-1.1-1.3-1.6-.8-1.1-1.6-2.2-2.3-3.2-.7-1.1-1.3-2.2-1.8-3.2-.5-1.1-.8-2.1-1.1-3.1-.2-1-.3-1.9-.3-2.7.1-.8.2-1.5.4-2.1.1-.4.3-.7.5-1 0-.1-.1-.1-.1-.2-.1.2-.3.3-.5.6l.3-.3s-.4.6-.8 1.8c-.3.8-.6 1.8-.8 2.9v1.2c.2 2.3 1.1 4.8 2.4 7.2.7 1.2 1.4 2.4 2.3 3.6.4.6.9 1.2 1.3 1.7.4.6.9 1.1 1.2 1.7.8 1.1 1.5 2.2 2.1 3.4.6 1.2 1.1 2.4 1.5 3.6.8 2.4 1 4.8.8 6.8-.1.7-.2 1.3-.3 1.9 0 .7-.1 1.3-.2 1.8-.2.9-.5 1.6-.9 2.2-.1.1-.2.3-.3.4.2-.2.6-.6 1-1.3.7-1.1 1.6-2.7 2-4.9.5-2.2.5-4.9-.1-7.6-.3-1.4-.8-2.7-1.5-4.1-.3-.6-.7-1.3-1-1.9l-.2.2c-.3.2-.4.3-.4.3zm-7.4-21.8s-.2.1-.4.3l-.2.2c0 .1.1.1.1.2.2-.4.5-.7.5-.7zm7.4 21.8s.2-.1.4-.3l.2-.2c0-.1-.1-.1-.1-.2-.3.5-.5.7-.5.7zm-.1 19.5s.4-.6.8-1.8c.3-.8.6-1.8.8-2.9v-1.2c-.2-2.3-1.1-4.8-2.4-7.2-.7-1.2-1.4-2.4-2.3-3.6-.4-.6-.9-1.2-1.3-1.7-.4-.6-.9-1.1-1.2-1.7-.8-1.1-1.5-2.2-2.1-3.4-.6-1.2-1.1-2.4-1.5-3.6-.8-2.4-1-4.8-.8-6.8.1-.7.2-1.3.3-1.9 0-.7.1-1.3.2-1.8.2-.9.5-1.6.9-2.2.1-.1.2-.3.3-.4-.2.2-.6.6-1 1.3-.7 1.1-1.6 2.7-2 4.9-.5 2.2-.5 4.9.1 7.6.3 1.4.8 2.7 1.5 4.1.5 1 1.1 2 1.7 2.9.1-.2.3-.3.4-.4.3-.2.4-.3.4-.3s-.3.3-.6 1c.1.2.3.4.4.6.4.6.9 1.1 1.3 1.7.5.6.9 1.1 1.3 1.6.8 1.1 1.6 2.2 2.3 3.2.7 1.1 1.3 2.2 1.8 3.2.5 1.1.8 2.1 1.1 3.1.2 1 .3 1.9.3 2.7-.1.8-.2 1.5-.4 2.1-.1.3-.2.5-.3.7-.1.1-.1.2 0 .2s.2-.2.3-.3l-.3.3zm1.4-2.9c.1-.6.2-1.2.2-1.8-.2 1.2-.5 2.2-.8 2.9-.4 1.2-.8 1.8-.8 1.8l.3-.3c.1-.1.2-.3.3-.4.3-.5.6-1.3.8-2.2zm-11-34.7c-.1.6-.2 1.2-.2 1.8.2-1.2.5-2.2.8-2.9.4-1.2.8-1.8.8-1.8l-.3.3c-.1.1-.2.3-.3.4-.2.5-.6 1.3-.8 2.2zm9.2 38.1c-.3.2-.4.3-.4.3s.3-.3.6-1c-.1-.2-.3-.4-.4-.6-.4-.6-.9-1.1-1.3-1.7-.5-.6-.9-1.1-1.3-1.6-.8-1.1-1.6-2.2-2.3-3.2-.7-1.1-1.3-2.2-1.8-3.2-.5-1.1-.8-2.1-1.1-3.1-.2-1-.3-1.9-.3-2.7.1-.8.2-1.5.4-2.1.1-.3.2-.5.3-.7-.1-.1-.1-.2-.2-.3l-.3.3.3-.3s-.4.6-.8 1.8c-.3.8-.6 1.8-.8 2.9v1.2c.2 2.3 1.1 4.8 2.4 7.2.7 1.2 1.4 2.4 2.3 3.6.4.6.9 1.2 1.3 1.7.4.6.9 1.1 1.2 1.7.8 1.1 1.5 2.2 2.1 3.4.6 1.2 1.1 2.4 1.5 3.6.8 2.4 1 4.8.8 6.8-.1.7-.2 1.3-.3 1.9 0 .7-.1 1.3-.2 1.8-.2.9-.5 1.6-.9 2.2-.1.1-.2.3-.3.4.2-.2.6-.6 1-1.3.7-1.1 1.6-2.7 2-4.9.5-2.2.5-4.9-.1-7.6-.3-1.4-.8-2.7-1.5-4.1-.5-1-1.1-2-1.7-2.9.1.2-.1.4-.2.5zm-6.9-20.7s-.2.1-.4.3l-.4.4c.1.1.1.2.2.3.3-.7.6-1 .6-1zm6.5 21s.2-.1.4-.3l.4-.4c-.1-.1-.1-.2-.2-.3-.3.7-.6 1-.6 1zm.8 20.3s.4-.6.8-1.8c.3-.8.6-1.8.8-2.9v-1.2c-.2-2.3-1.1-4.8-2.4-7.2-.7-1.2-1.4-2.4-2.3-3.6-.4-.6-.9-1.2-1.3-1.7-.4-.6-.9-1.1-1.2-1.7-.8-1.1-1.5-2.2-2.1-3.4-.6-1.2-1.1-2.4-1.5-3.6-.8-2.4-1-4.8-.8-6.8.1-.7.2-1.3.3-1.9 0-.7.1-1.3.2-1.8.2-.9.5-1.6.9-2.2.1-.1.2-.3.3-.4-.2.2-.6.6-1 1.3-.7 1.1-1.6 2.7-2 4.9-.5 2.2-.5 4.9.1 7.6.3 1.4.8 2.7 1.5 4.1.5 1.1 1.1 2.1 1.8 3.1l.2-.2c.3-.2.4-.3.4-.3s-.2.3-.5.8c.1.2.2.3.3.5.4.6.9 1.1 1.3 1.7.5.6.9 1.1 1.3 1.6.8 1.1 1.6 2.2 2.3 3.2.7 1.1 1.3 2.2 1.8 3.2.5 1.1.8 2.1 1.1 3.1.2 1 .3 1.9.3 2.7-.1.8-.2 1.5-.4 2.1-.1.4-.3.7-.4.9 0 .1.1.1.1.2.1-.1.3-.3.4-.5-.2 0-.3.2-.3.2zm1.4-2.9c.1-.6.2-1.2.2-1.8-.2 1.2-.5 2.2-.8 2.9-.4 1.2-.8 1.8-.8 1.8l.3-.3c.1-.1.2-.3.3-.4.3-.6.6-1.3.8-2.2zm-11-34.8c-.1.6-.2 1.2-.2 1.8.2-1.2.5-2.2.8-2.9.4-1.2.8-1.8.8-1.8l-.3.3c-.1.1-.2.3-.3.4-.2.6-.6 1.3-.8 2.2zm9.2 38.1c-.3.2-.4.3-.4.3s.2-.3.5-.8c-.1-.2-.2-.3-.3-.5-.4-.6-.9-1.1-1.3-1.7-.5-.6-.9-1.1-1.3-1.6-.8-1.1-1.6-2.2-2.3-3.2-.7-1.1-1.3-2.2-1.8-3.2-.5-1.1-.8-2.1-1.1-3.1-.2-1-.3-1.9-.3-2.7.1-.8.2-1.5.4-2.1.1-.4.3-.7.4-.9 0-.1-.1-.1-.1-.2-.1.1-.3.3-.4.5l.3-.3s-.4.6-.8 1.8c-.3.8-.6 1.8-.8 2.9v1.2c.2 2.3 1.1 4.8 2.4 7.2.7 1.2 1.4 2.4 2.3 3.6.4.6.9 1.2 1.3 1.7.4.6.9 1.1 1.2 1.7.8 1.1 1.5 2.2 2.1 3.4.6 1.2 1.1 2.4 1.5 3.6.8 2.4 1 4.8.8 6.8-.1.7-.2 1.3-.3 1.9 0 .7-.1 1.3-.2 1.8-.2.9-.5 1.6-.9 2.2-.1.1-.2.3-.3.4.2-.2.6-.6 1-1.3.7-1.1 1.6-2.7 2-4.9.5-2.2.5-4.9-.1-7.6-.3-1.4-.8-2.7-1.5-4.1-.5-1.1-1.1-2.1-1.8-3.1 0 .2-.1.2-.2.3zm-6.9-20.3s-.2.1-.4.3c-.1.1-.2.1-.2.2s.1.1.1.2c.2-.4.5-.7.5-.7zm6.5 20.6s.2-.1.4-.3c.1-.1.2-.1.2-.2s-.1-.1-.1-.2c-.3.5-.5.7-.5.7zm.8 20.7s.4-.6.8-1.8c.3-.8.6-1.8.8-2.9v-1.2c-.2-2.3-1.1-4.8-2.4-7.2-.7-1.2-1.4-2.4-2.3-3.6-.4-.6-.9-1.2-1.3-1.7-.4-.6-.9-1.1-1.2-1.7-.8-1.1-1.5-2.2-2.1-3.4-.6-1.2-1.1-2.4-1.5-3.6-.8-2.4-1-4.8-.8-6.8.1-.7.2-1.3.3-1.9 0-.7.1-1.3.2-1.8.2-.9.5-1.6.9-2.2.1-.1.2-.3.3-.4-.2.2-.6.6-1 1.3-.7 1.1-1.6 2.7-2 4.9-.5 2.2-.5 4.9.1 7.6.3 1.4.8 2.7 1.5 4.1.6 1.3 1.4 2.6 2.3 3.8.4.6.9 1.1 1.3 1.7.5.6.9 1.1 1.3 1.6.8 1.1 1.6 2.2 2.3 3.2.7 1.1 1.3 2.2 1.8 3.2.5 1.1.8 2.1 1.1 3.1.2 1 .3 1.9.3 2.7-.1.8-.2 1.5-.4 2.1-.4 1.1-.9 1.7-.9 1.7s.2-.1.4-.3c.2-.2.4-.4.7-.8-.4.2-.5.3-.5.3zm-9.6-37.7c-.1.6-.2 1.2-.2 1.8.2-1.2.5-2.2.8-2.9.4-1.2.8-1.8.8-1.8l-.3.3c-.1.1-.2.3-.3.4-.2.6-.6 1.3-.8 2.2zm11 34.8c.1-.6.2-1.2.2-1.8-.2 1.2-.5 2.2-.8 2.9-.4 1.2-.8 1.8-.8 1.8l.3-.3c.1-.1.2-.3.3-.4.3-.6.6-1.3.8-2.2zm-233 1c.6-.1 1.2-.2 1.8-.2.6-.1 1.2-.2 1.9-.3 2-.2 4.4 0 6.8.8 1.2.4 2.4.9 3.6 1.5 1.2.6 2.4 1.3 3.4 2.1.5.4 1.1.8 1.7 1.2.5.4 1.1.9 1.7 1.3 1.1.9 2.4 1.6 3.6 2.3 2.4 1.3 4.9 2.2 7.2 2.4h1.2c1.2-.2 2.2-.5 2.9-.8 1.2-.4 1.8-.8 1.8-.8l-.3.3c.3-.2.6-.5.8-.7.2-.3.3-.4.3-.4s-.5.5-1.7.9c-.6.2-1.3.3-2.1.4-.8 0-1.7-.1-2.7-.3-1-.2-2-.6-3.1-1.1-1.1-.5-2.1-1.1-3.2-1.8s-2.2-1.5-3.2-2.3c-.6-.4-1-.8-1.6-1.3-.6-.4-1.1-.9-1.7-1.3-1.2-.9-2.5-1.6-3.8-2.3-1.3-.7-2.7-1.1-4.1-1.5-2.7-.7-5.4-.6-7.6-.1-2.2.5-3.8 1.3-4.9 2-.6.4-1 .7-1.3 1 .1-.1.3-.2.4-.3.6-.2 1.3-.5 2.2-.7zm-1.9 1.3c.6-.2 1.3-.3 2.1-.4.8 0 1.7.1 2.7.3 1 .2 2 .6 3.1 1.1 1.1.5 2.1 1.1 3.2 1.8s2.2 1.5 3.2 2.3c.6.4 1 .8 1.6 1.3.6.4 1.1.9 1.7 1.3.6.4 1.1.8 1.7 1.1.4-.3.7-.5.7-.5s-.1.2-.3.4l-.2.2c.6.4 1.2.7 1.9 1 1.3.7 2.7 1.1 4.1 1.5 2.7.7 5.4.6 7.6.1 2.2-.5 3.8-1.3 4.9-2 .6-.4 1-.7 1.3-1-.1.1-.3.2-.4.3-.6.3-1.3.7-2.2.9-.6.1-1.2.2-1.8.2-.6.1-1.2.2-1.9.3-2 .2-4.4 0-6.8-.8-1.2-.4-2.4-.9-3.6-1.5-1.2-.6-2.4-1.3-3.4-2.1-.5-.4-1.1-.8-1.7-1.2-.5-.4-1.1-.9-1.7-1.3-1.1-.9-2.4-1.6-3.6-2.3-2.4-1.3-4.9-2.2-7.2-2.4h-1.2c-1.2.2-2.2.5-2.9.8-1.2.4-1.8.8-1.8.8l.3-.3c-.2.2-.4.3-.6.5.1 0 .1.1.2.1.2-.2.5-.4 1-.5zm39.6 8.3s-.6.4-1.8.8c-.8.3-1.8.6-2.9.8.7 0 1.3-.1 1.8-.2.9-.2 1.6-.5 2.2-.9.1-.1.3-.2.4-.3.2-.1.3-.2.3-.2zm-40.5-8.2s.6-.4 1.8-.8c.8-.3 1.8-.6 2.9-.8-.7 0-1.3.1-1.8.2-.9.2-1.6.5-2.2.9-.1.1-.3.2-.4.3-.2.1-.3.2-.3.2zm20.5 8.8c-.1 0-.1-.1-.2-.1-.3.1-.6.3-1 .5-.6.2-1.3.3-2.1.4-.8 0-1.7-.1-2.7-.3-1-.2-2-.6-3.1-1.1-1.1-.5-2.1-1.1-3.2-1.8s-2.2-1.5-3.2-2.3c-.6-.4-1-.8-1.6-1.3-.6-.4-1.1-.9-1.7-1.3-.6-.4-1.1-.8-1.7-1.1-.4.3-.7.5-.7.5s.1-.2.3-.4l.2-.2c-.6-.4-1.2-.7-1.9-1-1.3-.7-2.7-1.1-4.1-1.5-2.7-.7-5.4-.6-7.6-.1-2.2.5-3.8 1.3-4.9 2-.6.4-1 .7-1.3 1 .1-.1.3-.2.4-.3.6-.3 1.3-.7 2.2-.9.6-.1 1.2-.2 1.8-.2.6-.1 1.2-.2 1.9-.3 2-.2 4.4 0 6.8.8 1.2.4 2.4.9 3.6 1.5 1.2.6 2.4 1.3 3.4 2.1.5.4 1.1.8 1.7 1.2.5.4 1.1.9 1.7 1.3 1.1.9 2.4 1.6 3.6 2.3 2.4 1.3 4.9 2.2 7.2 2.4h1.2c1.2-.2 2.2-.5 2.9-.8 1.1-.4 1.8-.8 1.8-.8l-.3.3c.3-.2.5-.3.6-.5zm.5-.6s-.2.2-.7.5c.1 0 .1.1.2.1l.2-.2c.2-.2.3-.4.3-.4zm-21.8-7.4s.2-.2.7-.5c-.1 0-.1-.1-.2-.1l-.2.2c-.2.3-.3.4-.3.4zm18.1 9.6c-.6.1-1.2.2-1.8.2-.6.1-1.2.2-1.9.3-2 .2-4.4 0-6.8-.8-1.2-.4-2.4-.9-3.6-1.5-1.2-.6-2.4-1.3-3.4-2.1-.5-.4-1.1-.8-1.7-1.2-.5-.4-1.1-.9-1.7-1.3-1.1-.9-2.4-1.6-3.6-2.3-2.4-1.3-4.9-2.2-7.2-2.4h-1.2c-1.2.2-2.2.5-2.9.8-1.2.4-1.8.8-1.8.8l.3-.3-.3.3c.1.1.2.1.3.2.2-.1.4-.2.7-.3.6-.2 1.3-.3 2.1-.4.8 0 1.7.1 2.7.3 1 .2 2 .6 3.1 1.1 1.1.5 2.1 1.1 3.2 1.8s2.2 1.5 3.2 2.3c.6.4 1 .8 1.6 1.3.6.4 1.1.9 1.7 1.3.2.2.4.3.6.4.7-.3 1-.6 1-.6s-.1.2-.3.4l-.4.4c.9.6 1.9 1.2 2.9 1.7 1.3.7 2.7 1.1 4.1 1.5 2.7.7 5.4.6 7.6.1 2.2-.5 3.8-1.3 4.9-2 .6-.4 1-.7 1.3-1-.1.1-.3.2-.4.3-.6.2-1.4.5-2.3.7zm2.9-1.4s-.6.4-1.8.8c-.8.3-1.8.6-2.9.8.7 0 1.3-.1 1.8-.2.9-.2 1.6-.5 2.2-.9.1-.1.3-.2.4-.3.2-.1.3-.2.3-.2zm-40.5-8.1s.6-.4 1.8-.8c.8-.3 1.8-.6 2.9-.8-.7 0-1.3.1-1.8.2-.9.2-1.6.5-2.2.9-.1.1-.3.2-.4.3-.2.1-.3.2-.3.2zm18.6 8.2c-.6.2-1.3.3-2.1.4-.8 0-1.7-.1-2.7-.3-1-.2-2-.6-3.1-1.1-1.1-.5-2.1-1.1-3.2-1.8s-2.2-1.5-3.2-2.3c-.6-.4-1-.8-1.6-1.3-.6-.4-1.1-.9-1.7-1.3-.2-.2-.4-.3-.6-.4-.7.3-1 .6-1 .6s.1-.2.3-.4l.4-.4c-.9-.6-1.9-1.2-2.9-1.7-1.3-.7-2.7-1.1-4.1-1.5-2.7-.7-5.4-.6-7.6-.1-2.2.5-3.8 1.3-4.9 2-.6.4-1 .7-1.3 1 .1-.1.3-.2.4-.3.6-.3 1.3-.7 2.2-.9.6-.1 1.2-.2 1.8-.2.6-.1 1.2-.2 1.9-.3 2-.2 4.4 0 6.8.8 1.2.4 2.4.9 3.6 1.5 1.2.6 2.4 1.3 3.4 2.1.5.4 1.1.8 1.7 1.2.5.4 1.1.9 1.7 1.3 1.1.9 2.4 1.6 3.6 2.3 2.4 1.3 4.9 2.2 7.2 2.4h1.2c1.2-.2 2.2-.5 2.9-.8 1.2-.4 1.8-.8 1.8-.8l-.3.3.3-.3c-.1-.1-.2-.1-.3-.2-.1.3-.4.4-.6.5zm1.3-.5c.2-.3.3-.4.3-.4s-.3.3-1 .6c.1.1.2.1.3.2.2-.1.3-.3.4-.4zm-20.4-7.3c-.2.3-.3.4-.3.4s.3-.3 1-.6c-.1-.1-.2-.1-.3-.2l-.4.4zm17.1 9.1c-.6.1-1.2.2-1.8.2-.6.1-1.2.2-1.9.3-2 .2-4.4 0-6.8-.8-1.2-.4-2.4-.9-3.6-1.5-1.2-.6-2.4-1.3-3.4-2.1-.5-.4-1.1-.8-1.7-1.2-.5-.4-1.1-.9-1.7-1.3-1.1-.9-2.4-1.6-3.6-2.3-2.4-1.3-4.9-2.2-7.2-2.4h-1.2c-1.2.2-2.2.5-2.9.8-1.2.4-1.8.8-1.8.8l.3-.3c-.2.2-.4.3-.5.4.1 0 .1.1.2.1.2-.1.5-.3.9-.4.6-.2 1.3-.3 2.1-.4.8 0 1.7.1 2.7.3 1 .2 2 .6 3.1 1.1 1.1.5 2.1 1.1 3.2 1.8s2.2 1.5 3.2 2.3c.6.4 1 .8 1.6 1.3.6.4 1.1.9 1.7 1.3.2.1.3.2.5.3.5-.3.8-.5.8-.5s-.1.2-.3.4c-.1.1-.1.2-.2.2 1 .7 2 1.3 3.1 1.8 1.3.7 2.7 1.1 4.1 1.5 2.7.7 5.4.6 7.6.1 2.2-.5 3.8-1.3 4.9-2 .6-.4 1-.7 1.3-1-.1.1-.3.2-.4.3-.7.4-1.4.7-2.3.9zm-37.6-9.5s.6-.4 1.8-.8c.8-.3 1.8-.6 2.9-.8-.7 0-1.3.1-1.8.2-.9.2-1.6.5-2.2.9-.1.1-.3.2-.4.3-.2.1-.3.2-.3.2zm40.5 8.1s-.6.4-1.8.8c-.8.3-1.8.6-2.9.8.7 0 1.3-.1 1.8-.2.9-.2 1.6-.5 2.2-.9.1-.1.3-.2.4-.3.2-.1.3-.2.3-.2zm-22.4.1c-.6.2-1.3.3-2.1.4-.8 0-1.7-.1-2.7-.3-1-.2-2-.6-3.1-1.1-1.1-.5-2.1-1.1-3.2-1.8s-2.2-1.5-3.2-2.3c-.6-.4-1-.8-1.6-1.3-.6-.4-1.1-.9-1.7-1.3-.2-.1-.3-.2-.5-.3-.5.3-.8.5-.8.5s.1-.2.3-.4c.1-.1.1-.2.2-.2-1-.7-2-1.3-3.1-1.8-1.3-.7-2.7-1.1-4.1-1.5-2.7-.7-5.4-.6-7.6-.1-2.2.5-3.8 1.3-4.9 2-.6.4-1 .7-1.3 1 .1-.1.3-.2.4-.3.6-.3 1.3-.7 2.2-.9.6-.1 1.2-.2 1.8-.2.6-.1 1.2-.2 1.9-.3 2-.2 4.4 0 6.8.8 1.2.4 2.4.9 3.6 1.5 1.2.6 2.4 1.3 3.4 2.1.5.4 1.1.8 1.7 1.2.5.4 1.1.9 1.7 1.3 1.1.9 2.4 1.6 3.6 2.3 2.4 1.3 4.9 2.2 7.2 2.4h1.2c1.2-.2 2.2-.5 2.9-.8 1.2-.4 1.8-.8 1.8-.8l-.3.3c.2-.1.4-.3.5-.4-.1 0-.1-.1-.2-.1-.1.2-.4.3-.8.4zm1.4-.5c.2-.3.3-.4.3-.4s-.3.2-.8.5c.1 0 .1.1.2.1.2 0 .2-.1.3-.2zm-20-7.3c-.2.3-.3.4-.3.4s.3-.2.8-.5c-.1 0-.1-.1-.2-.1s-.2.1-.3.2zm16.7 9.1c-.6.1-1.2.2-1.8.2-.6.1-1.2.2-1.9.3-2 .2-4.4 0-6.8-.8-1.2-.4-2.4-.9-3.6-1.5-1.2-.6-2.4-1.3-3.4-2.1-.5-.4-1.1-.8-1.7-1.2-.5-.4-1.1-.9-1.7-1.3-1.1-.9-2.4-1.6-3.6-2.3-2.4-1.3-4.9-2.2-7.2-2.4h-1.2c-1.2.2-2.2.5-2.9.8-1.2.4-1.8.8-1.8.8l.3-.3c-.3.2-.6.5-.7.7l-.1.1.1.1c.3-.2.7-.5 1.4-.7.6-.2 1.3-.3 2.1-.4.8 0 1.7.1 2.7.3 1 .2 2 .6 3.1 1.1 1.1.5 2.1 1.1 3.2 1.8s2.2 1.5 3.2 2.3c.6.4 1 .8 1.6 1.3.2.2.4.3.6.5.2-.1.3-.2.3-.2s-.1.1-.2.3c.3.3.7.5 1 .8 1.2.9 2.5 1.6 3.8 2.3 1.3.7 2.7 1.1 4.1 1.5 2.7.7 5.4.6 7.6.1 2.2-.5 3.8-1.3 4.9-2 .6-.4 1-.7 1.3-1-.1.1-.3.2-.4.3-.7.1-1.4.4-2.3.6zm2.8-1.4s-.6.4-1.8.8c-.8.3-1.8.6-2.9.8.7 0 1.3-.1 1.8-.2.9-.2 1.6-.5 2.2-.9.1-.1.3-.2.4-.3.2-.1.3-.2.3-.2zm-40.5-8.1s.6-.4 1.8-.8c.8-.3 1.8-.6 2.9-.8-.7 0-1.3.1-1.8.2-.9.2-1.6.5-2.2.9-.1.1-.3.2-.4.3-.2.1-.3.2-.3.2zm16.1 7.4c-.6.2-1.3.3-2.1.4-.8 0-1.7-.1-2.7-.3-1-.2-2-.6-3.1-1.1-1.1-.5-2.1-1.1-3.2-1.8s-2.2-1.5-3.2-2.3c-.6-.4-1-.8-1.6-1.3-.2-.2-.4-.3-.6-.5-.2.1-.3.2-.3.2s.1-.1.2-.3c-.3-.3-.7-.5-1-.8-1.2-.9-2.5-1.6-3.8-2.3-1.3-.7-2.7-1.1-4.1-1.5-2.7-.7-5.4-.6-7.6-.1-2.2.5-3.8 1.3-4.9 2-.6.4-1 .7-1.3 1 .1-.1.3-.2.4-.3.6-.3 1.3-.7 2.2-.9.6-.1 1.2-.2 1.8-.2.6-.1 1.2-.2 1.9-.3 2-.2 4.4 0 6.8.8 1.2.4 2.4.9 3.6 1.5 1.2.6 2.4 1.3 3.4 2.1.5.4 1.1.8 1.7 1.2.5.4 1.1.9 1.7 1.3 1.1.9 2.4 1.6 3.6 2.3 2.4 1.3 4.9 2.2 7.2 2.4h1.2c1.2-.2 2.2-.5 2.9-.8 1.2-.4 1.8-.8 1.8-.8l-.3.3c.3-.2.6-.5.8-.7l.1-.1-.1-.1c-.2.5-.7.7-1.4 1zm-16.6-6.8c0-.1 0-.1 0 0-.2.1-.3.2-.3.2s.2-.1.3-.2zm18 6.1c.1 0 .1 0 0 0 .2-.1.3-.2.3-.2s-.1.1-.3.2zm-3.3 2c-.6.1-1.2.2-1.8.2-.6.1-1.2.2-1.9.3-2 .2-4.4 0-6.8-.8-1.2-.4-2.4-.9-3.6-1.5-1.2-.6-2.4-1.3-3.4-2.1-.5-.4-1.1-.8-1.7-1.2-.5-.4-1.1-.9-1.7-1.3-1.1-.9-2.4-1.6-3.6-2.3-2.4-1.3-4.9-2.2-7.2-2.4h-1.2c-1.2.2-2.2.5-2.9.8-1.2.4-1.8.8-1.8.8l.3-.3c-.2.2-.4.3-.6.5.1 0 .1.1.2.1.3-.1.6-.3 1-.5.6-.2 1.3-.3 2.1-.4.8 0 1.7.1 2.7.3 1 .2 2 .6 3.1 1.1 1.1.5 2.1 1.1 3.2 1.8s2.2 1.5 3.2 2.3c.6.4 1 .8 1.6 1.3.6.4 1.1.9 1.7 1.3.6.4 1.1.8 1.7 1.1.4-.3.7-.5.7-.5s-.1.2-.3.4l-.2.2c.6.4 1.2.7 1.9 1 1.3.7 2.7 1.1 4.1 1.5 2.7.7 5.4.6 7.6.1 2.2-.5 3.8-1.3 4.9-2 .6-.4 1-.7 1.3-1-.1.1-.3.2-.4.3-.6.3-1.3.7-2.2.9zm2.8-1.4s-.6.4-1.8.8c-.8.3-1.8.6-2.9.8.7 0 1.3-.1 1.8-.2.9-.2 1.6-.5 2.2-.9.1-.1.3-.2.4-.3.2-.1.3-.2.3-.2zm-40.5-8.2s.6-.4 1.8-.8c.8-.3 1.8-.6 2.9-.8-.7 0-1.3.1-1.8.2-.9.2-1.6.5-2.2.9-.1.1-.3.2-.4.3-.2.1-.3.2-.3.2zm19.4 9.1c-.6.2-1.3.3-2.1.4-.8 0-1.7-.1-2.7-.3-1-.2-2-.6-3.1-1.1-1.1-.5-2.1-1.1-3.2-1.8s-2.2-1.5-3.2-2.3c-.6-.4-1-.8-1.6-1.3-.6-.4-1.1-.9-1.7-1.3-.6-.4-1.1-.8-1.7-1.1-.4.3-.7.5-.7.5s.1-.2.3-.4l.2-.2c-.6-.4-1.2-.7-1.9-1-1.3-.7-2.7-1.1-4.1-1.5-2.7-.7-5.4-.6-7.6-.1-2.2.5-3.8 1.3-4.9 2-.6.4-1 .7-1.3 1 .1-.1.3-.2.4-.3.6-.3 1.3-.7 2.2-.9.6-.1 1.2-.2 1.8-.2.6-.1 1.2-.2 1.9-.3 2-.2 4.4 0 6.8.8 1.2.4 2.4.9 3.6 1.5 1.2.6 2.4 1.3 3.4 2.1.5.4 1.1.8 1.7 1.2.5.4 1.1.9 1.7 1.3 1.1.9 2.4 1.6 3.6 2.3 2.4 1.3 4.9 2.2 7.2 2.4h1.2c1.2-.2 2.2-.5 2.9-.8 1.1-.4 1.8-.8 1.8-.8l-.3.3c.2-.2.4-.3.6-.5-.1 0-.1-.1-.2-.1-.3.2-.6.4-1 .5zM170 488s.2-.2.7-.5c-.1 0-.1-.1-.2-.1l-.2.2c-.2.3-.3.4-.3.4zm21.9 7.4s-.2.2-.7.5c.1 0 .1.1.2.1l.2-.2c.2-.2.3-.4.3-.4zm-3.7 2.2c-.6.1-1.2.2-1.8.2-.6.1-1.2.2-1.9.3-2 .2-4.4 0-6.8-.8-1.2-.4-2.4-.9-3.6-1.5-1.2-.6-2.4-1.3-3.4-2.1-.5-.4-1.1-.8-1.7-1.2-.5-.4-1.1-.9-1.7-1.3-1.1-.9-2.4-1.6-3.6-2.3-2.4-1.3-4.9-2.2-7.2-2.4h-1.2c-1.2.2-2.2.5-2.9.8-1.1.4-1.8.8-1.8.8l.3-.3-.3.3c.1.1.2.1.3.2.2-.1.4-.2.7-.3.6-.2 1.3-.3 2.1-.4.8 0 1.7.1 2.7.3 1 .2 2 .6 3.1 1.1 1.1.5 2.1 1.1 3.2 1.8s2.2 1.5 3.2 2.3c.6.4 1 .8 1.6 1.3.6.4 1.1.9 1.7 1.3.2.2.4.3.6.4.7-.3 1-.6 1-.6s-.1.2-.3.4l-.4.4c.9.6 1.9 1.2 2.9 1.7 1.3.7 2.7 1.1 4.1 1.5 2.7.7 5.4.6 7.6.1 2.2-.5 3.8-1.3 4.9-2 .6-.4 1-.7 1.3-1-.1.1-.3.2-.4.3-.7.2-1.4.5-2.3.7zm2.9-1.4s-.6.4-1.8.8c-.8.3-1.8.6-2.9.8.7 0 1.3-.1 1.8-.2.9-.2 1.6-.5 2.2-.9.1-.1.3-.2.4-.3.2-.1.3-.2.3-.2zm-40.5-8.1s.6-.4 1.8-.8c.8-.3 1.8-.6 2.9-.8-.7 0-1.3.1-1.8.2-.9.2-1.6.5-2.2.9-.1.1-.3.2-.4.3-.2.1-.3.2-.3.2zm18.5 8.2c-.6.2-1.3.3-2.1.4-.8 0-1.7-.1-2.7-.3-1-.2-2-.6-3.1-1.1-1.1-.5-2.1-1.1-3.2-1.8s-2.2-1.5-3.2-2.3c-.6-.4-1-.8-1.6-1.3-.6-.4-1.1-.9-1.7-1.3-.2-.2-.4-.3-.6-.4-.7.3-1 .6-1 .6s.1-.2.3-.4l.4-.4c-.9-.6-1.9-1.2-2.9-1.7-1.3-.7-2.7-1.1-4.1-1.5-2.7-.7-5.4-.6-7.6-.1-2.2.5-3.8 1.3-4.9 2-.6.4-1 .7-1.3 1 .1-.1.3-.2.4-.3.6-.3 1.3-.7 2.2-.9.6-.1 1.2-.2 1.8-.2.6-.1 1.2-.2 1.9-.3 2-.2 4.4 0 6.8.8 1.2.4 2.4.9 3.6 1.5 1.2.6 2.4 1.3 3.4 2.1.5.4 1.1.8 1.7 1.2.5.4 1.1.9 1.7 1.3 1.1.9 2.4 1.6 3.6 2.3 2.4 1.3 4.9 2.2 7.2 2.4h1.2c1.2-.2 2.2-.5 2.9-.8 1.1-.4 1.8-.8 1.8-.8l-.3.3.3-.3c-.1-.1-.2-.1-.3-.2-.1.3-.3.4-.6.5zm1.4-.5c.2-.3.3-.4.3-.4s-.3.3-1 .6c.1.1.2.1.3.2.2-.1.3-.3.4-.4zm-20.4-7.3c-.2.3-.3.4-.3.4s.3-.3 1-.6c-.1-.1-.2-.1-.3-.2l-.4.4zm17.1 9.1c-.6.1-1.2.2-1.8.2-.6.1-1.2.2-1.9.3-2 .2-4.4 0-6.8-.8-1.2-.4-2.4-.9-3.6-1.5-1.2-.6-2.4-1.3-3.4-2.1-.5-.4-1.1-.8-1.7-1.2-.5-.4-1.1-.9-1.7-1.3-1.1-.9-2.4-1.6-3.6-2.3-2.4-1.3-4.9-2.2-7.2-2.4h-1.2c-1.2.2-2.2.5-2.9.8-1.1.4-1.8.8-1.8.8l.3-.3c-.2.2-.4.3-.5.4.1 0 .1.1.2.1.2-.1.5-.3.9-.4.6-.2 1.3-.3 2.1-.4.8 0 1.7.1 2.7.3 1 .2 2 .6 3.1 1.1 1.1.5 2.1 1.1 3.2 1.8s2.2 1.5 3.2 2.3c.6.4 1 .8 1.6 1.3.6.4 1.1.9 1.7 1.3.2.1.3.2.5.3.5-.3.8-.5.8-.5s-.1.2-.3.4c-.1.1-.1.2-.2.2 1 .7 2 1.3 3.1 1.8 1.3.7 2.7 1.1 4.1 1.5 2.7.7 5.4.6 7.6.1 2.2-.5 3.8-1.3 4.9-2 .6-.4 1-.7 1.3-1-.1.1-.3.2-.4.3-.7.4-1.4.7-2.3.9zm2.8-1.4s-.6.4-1.8.8c-.8.3-1.8.6-2.9.8.7 0 1.3-.1 1.8-.2.9-.2 1.6-.5 2.2-.9.1-.1.3-.2.4-.3.2-.1.3-.2.3-.2zm-40.5-8.1s.6-.4 1.8-.8c.8-.3 1.8-.6 2.9-.8-.7 0-1.3.1-1.8.2-.9.2-1.6.5-2.2.9-.1.1-.3.2-.4.3-.2.1-.3.2-.3.2zm18.2 8.2c-.6.2-1.3.3-2.1.4-.8 0-1.7-.1-2.7-.3-1-.2-2-.6-3.1-1.1-1.1-.5-2.1-1.1-3.2-1.8s-2.2-1.5-3.2-2.3c-.6-.4-1-.8-1.6-1.3-.6-.4-1.1-.9-1.7-1.3-.2-.1-.3-.2-.5-.3-.5.3-.8.5-.8.5s.1-.2.3-.4c.1-.1.1-.2.2-.2-1-.7-2-1.3-3.1-1.8-1.3-.7-2.7-1.1-4.1-1.5-2.7-.7-5.4-.6-7.6-.1-2.2.5-3.8 1.3-4.9 2-.6.4-1 .7-1.3 1 .1-.1.3-.2.4-.3.6-.3 1.3-.7 2.2-.9.6-.1 1.2-.2 1.8-.2.6-.1 1.2-.2 1.9-.3 2-.2 4.4 0 6.8.8 1.2.4 2.4.9 3.6 1.5 1.2.6 2.4 1.3 3.4 2.1.5.4 1.1.8 1.7 1.2.5.4 1.1.9 1.7 1.3 1.1.9 2.4 1.6 3.6 2.3 2.4 1.3 4.9 2.2 7.2 2.4h1.2c1.2-.2 2.2-.5 2.9-.8 1.2-.4 1.8-.8 1.8-.8l-.3.3c.2-.1.4-.3.5-.4-.1 0-.1-.1-.2-.1-.1.2-.4.3-.8.4zm-18.6-7.8c-.2.3-.3.4-.3.4s.3-.2.8-.5c-.1 0-.1-.1-.2-.1-.2 0-.3.1-.3.2zm20 7.3c.2-.3.3-.4.3-.4s-.3.2-.8.5c.1 0 .1.1.2.1s.2-.1.3-.2zm-3.4 1.8c-.6.1-1.2.2-1.8.2-.6.1-1.2.2-1.9.3-2 .2-4.4 0-6.8-.8-1.2-.4-2.4-.9-3.6-1.5-1.2-.6-2.4-1.3-3.4-2.1-.5-.4-1.1-.8-1.7-1.2-.5-.4-1.1-.9-1.7-1.3-1.1-.9-2.4-1.6-3.6-2.3-2.4-1.3-4.9-2.2-7.2-2.4h-1.2c-1.2.2-2.2.5-2.9.8-1.2.4-1.8.8-1.8.8l.3-.3c-.3.2-.6.5-.8.7-.2.3-.3.4-.3.4s.5-.5 1.7-.9c.6-.2 1.3-.3 2.1-.4.8 0 1.7.1 2.7.3 1 .2 2 .6 3.1 1.1 1.1.5 2.1 1.1 3.2 1.8s2.2 1.5 3.2 2.3c.6.4 1 .8 1.6 1.3.6.4 1.1.9 1.7 1.3 1.2.9 2.5 1.6 3.8 2.3 1.3.7 2.7 1.1 4.1 1.5 2.7.7 5.4.6 7.6.1 2.2-.5 3.8-1.3 4.9-2 .6-.4 1-.7 1.3-1-.1.1-.3.2-.4.3-.5.2-1.3.5-2.2.7zm2.9-1.4s-.6.4-1.8.8c-.8.3-1.8.6-2.9.8.7 0 1.3-.1 1.8-.2.9-.2 1.6-.5 2.2-.9.1-.1.3-.2.4-.3.2-.1.3-.2.3-.2zm-40.5-8.1s.6-.4 1.8-.8c.8-.3 1.8-.6 2.9-.8-.7 0-1.3.1-1.8.2-.9.2-1.6.5-2.2.9-.1.1-.3.2-.4.3-.2.1-.3.2-.3.2zm191.8 7.3s.6.4 1.8.8c.8.3 1.8.6 2.9.8h1.2c2.3-.2 4.8-1.1 7.2-2.4 1.2-.7 2.4-1.4 3.6-2.3.6-.4 1.2-.9 1.7-1.3.6-.4 1.1-.9 1.7-1.2 1.1-.8 2.2-1.5 3.4-2.1 1.2-.6 2.4-1.1 3.6-1.5 2.4-.8 4.8-1 6.8-.8.7.1 1.3.2 1.9.3.7 0 1.3.1 1.8.2.9.2 1.6.5 2.2.9.1.1.3.2.4.3-.2-.2-.6-.6-1.3-1-1.1-.7-2.7-1.6-4.9-2-2.2-.5-4.9-.5-7.6.1-1.4.3-2.7.8-4.1 1.5-1.3.6-2.6 1.4-3.8 2.3-.6.4-1.1.9-1.7 1.3-.6.5-1.1.9-1.6 1.3-1.1.8-2.2 1.6-3.2 2.3-1.1.7-2.2 1.3-3.2 1.8-1.1.5-2.1.8-3.1 1.1-1 .2-1.9.3-2.7.3-.8-.1-1.5-.2-2.1-.4-1.1-.4-1.7-.9-1.7-.9s.1.2.3.4l.7.7c-.1-.4-.2-.5-.2-.5zm19.4 0s.2.2.7.5c.6-.4 1.2-.7 1.7-1.1.6-.4 1.1-.9 1.7-1.3.6-.5 1.1-.9 1.6-1.3 1.1-.8 2.2-1.6 3.2-2.3 1.1-.7 2.2-1.3 3.2-1.8 1.1-.5 2.1-.8 3.1-1.1 1-.2 1.9-.3 2.7-.3.8.1 1.5.2 2.1.4.4.1.7.3 1 .5.1 0 .1-.1.2-.1-.2-.1-.3-.3-.6-.5l.3.3s-.6-.4-1.8-.8c-.8-.3-1.8-.6-2.9-.8h-1.2c-2.3.2-4.8 1.1-7.2 2.4-1.2.7-2.4 1.4-3.6 2.3-.6.4-1.2.9-1.7 1.3-.6.4-1.1.9-1.7 1.2-1.1.8-2.2 1.5-3.4 2.1-1.2.6-2.4 1.1-3.6 1.5-2.4.8-4.8 1-6.8.8-.7-.1-1.3-.2-1.9-.3-.7 0-1.3-.1-1.8-.2-.9-.2-1.6-.5-2.2-.9-.1-.1-.3-.2-.4-.3.2.2.6.6 1.3 1 1.1.7 2.7 1.6 4.9 2 2.2.5 4.9.5 7.6-.1 1.4-.3 2.7-.8 4.1-1.5.6-.3 1.3-.7 1.9-1l-.2-.2c-.2-.2-.3-.4-.3-.4zm18.2-9.6c-.6-.1-1.2-.2-1.8-.2 1.2.2 2.2.5 2.9.8 1.1.4 1.8.8 1.8.8l-.3-.3c-.1-.1-.3-.2-.4-.3-.6-.3-1.3-.6-2.2-.8zm-34.8 11c.6.1 1.2.2 1.8.2-1.2-.2-2.2-.5-2.9-.8-1.1-.4-1.8-.8-1.8-.8l.3.3c.1.1.3.2.4.3.6.2 1.3.6 2.2.8zm17.4-.6s.6.4 1.8.8c.8.3 1.8.6 2.9.8h1.2c2.3-.2 4.8-1.1 7.2-2.4 1.2-.7 2.4-1.4 3.6-2.3.6-.4 1.2-.9 1.7-1.3.6-.4 1.1-.9 1.7-1.2 1.1-.8 2.2-1.5 3.4-2.1 1.2-.6 2.4-1.1 3.6-1.5 2.4-.8 4.8-1 6.8-.8.7.1 1.3.2 1.9.3.7 0 1.3.1 1.8.2.9.2 1.6.5 2.2.9.1.1.3.2.4.3-.2-.2-.6-.6-1.3-1-1.1-.7-2.7-1.6-4.9-2-2.2-.5-4.9-.5-7.6.1-1.4.3-2.7.8-4.1 1.5-.6.3-1.3.7-1.9 1l.2.2c.2.3.3.4.3.4s-.2-.2-.7-.5c-.6.4-1.2.7-1.7 1.1-.6.4-1.1.9-1.7 1.3-.6.5-1.1.9-1.6 1.3-1.1.8-2.2 1.6-3.2 2.3-1.1.7-2.2 1.3-3.2 1.8-1.1.5-2.1.8-3.1 1.1-1 .2-1.9.3-2.7.3-.8-.1-1.5-.2-2.1-.4-.4-.1-.7-.3-1-.5-.1 0-.1.1-.2.1.2.1.3.3.6.5l-.3-.3zm-.8-.8s.1.2.3.4l.2.2c.1 0 .1-.1.2-.1-.4-.3-.7-.5-.7-.5zm21.9-7.4s-.1-.2-.3-.4l-.2-.2c-.1 0-.1.1-.2.1.4.3.7.5.7.5zm-.5 7.8c-.2-.3-.3-.4-.3-.4s.3.3 1 .6c.2-.1.4-.3.6-.4.6-.4 1.1-.9 1.7-1.3.6-.5 1.1-.9 1.6-1.3 1.1-.8 2.2-1.6 3.2-2.3 1.1-.7 2.2-1.3 3.2-1.8 1.1-.5 2.1-.8 3.1-1.1 1-.2 1.9-.3 2.7-.3.8.1 1.5.2 2.1.4.3.1.5.2.7.3.1-.1.2-.1.3-.2l-.3-.3.3.3s-.6-.4-1.8-.8c-.8-.3-1.8-.6-2.9-.8h-1.2c-2.3.2-4.8 1.1-7.2 2.4-1.2.7-2.4 1.4-3.6 2.3-.6.4-1.2.9-1.7 1.3-.6.4-1.1.9-1.7 1.2-1.1.8-2.2 1.5-3.4 2.1-1.2.6-2.4 1.1-3.6 1.5-2.4.8-4.8 1-6.8.8-.7-.1-1.3-.2-1.9-.3-.7 0-1.3-.1-1.8-.2-.9-.2-1.6-.5-2.2-.9-.1-.1-.3-.2-.4-.3.2.2.6.6 1.3 1 1.1.7 2.7 1.6 4.9 2 2.2.5 4.9.5 7.6-.1 1.4-.3 2.7-.8 4.1-1.5 1-.5 2-1.1 2.9-1.7-.3.1-.4-.1-.5-.2zm17.1-9.1c-.6-.1-1.2-.2-1.8-.2 1.2.2 2.2.5 2.9.8 1.2.4 1.8.8 1.8.8l-.3-.3c-.1-.1-.3-.2-.4-.3-.6-.3-1.3-.6-2.2-.8zM323 497.6c.6.1 1.2.2 1.8.2-1.2-.2-2.2-.5-2.9-.8-1.2-.4-1.8-.8-1.8-.8l.3.3c.1.1.3.2.4.3.6.3 1.3.6 2.2.8zm18.2-1.4s.6.4 1.8.8c.8.3 1.8.6 2.9.8h1.2c2.3-.2 4.8-1.1 7.2-2.4 1.2-.7 2.4-1.4 3.6-2.3.6-.4 1.2-.9 1.7-1.3.6-.4 1.1-.9 1.7-1.2 1.1-.8 2.2-1.5 3.4-2.1 1.2-.6 2.4-1.1 3.6-1.5 2.4-.8 4.8-1 6.8-.8.7.1 1.3.2 1.9.3.7 0 1.3.1 1.8.2.9.2 1.6.5 2.2.9.1.1.3.2.4.3-.2-.2-.6-.6-1.3-1-1.1-.7-2.7-1.6-4.9-2-2.2-.5-4.9-.5-7.6.1-1.4.3-2.7.8-4.1 1.5-1 .5-2 1.1-2.9 1.7.2.1.3.3.4.4.2.3.3.4.3.4s-.3-.3-1-.6c-.2.1-.4.3-.6.4-.6.4-1.1.9-1.7 1.3-.6.5-1.1.9-1.6 1.3-1.1.8-2.2 1.6-3.2 2.3-1.1.7-2.2 1.3-3.2 1.8-1.1.5-2.1.8-3.1 1.1-1 .2-1.9.3-2.7.3-.8-.1-1.5-.2-2.1-.4-.3-.1-.5-.2-.7-.3-.1-.1-.2 0-.2 0 0 .1.2.2.3.3l-.3-.3zm-.8-.8s.1.2.3.4l.4.4c.1-.1.2-.1.3-.2-.7-.3-1-.6-1-.6zm21-6.5s-.1-.2-.3-.4l-.4-.4c-.1.1-.2.1-.3.2.7.3 1 .6 1 .6zm.7 6.9c-.2-.3-.3-.4-.3-.4s.3.2.8.5c.2-.1.3-.2.5-.3.6-.4 1.1-.9 1.7-1.3.6-.5 1.1-.9 1.6-1.3 1.1-.8 2.2-1.6 3.2-2.3 1.1-.7 2.2-1.3 3.2-1.8 1.1-.5 2.1-.8 3.1-1.1 1-.2 1.9-.3 2.7-.3.8.1 1.5.2 2.1.4.4.1.7.3.9.4.1 0 .1-.1.2-.1-.1-.1-.3-.3-.5-.4l.3.3s-.6-.4-1.8-.8c-.8-.3-1.8-.6-2.9-.8h-1.2c-2.3.2-4.8 1.1-7.2 2.4-1.2.7-2.4 1.4-3.6 2.3-.6.4-1.2.9-1.7 1.3-.6.4-1.1.9-1.7 1.2-1.1.8-2.2 1.5-3.4 2.1-1.2.6-2.4 1.1-3.6 1.5-2.4.8-4.8 1-6.8.8-.7-.1-1.3-.2-1.9-.3-.7 0-1.3-.1-1.8-.2-.9-.2-1.6-.5-2.2-.9-.1-.1-.3-.2-.4-.3.2.2.6.6 1.3 1 1.1.7 2.7 1.6 4.9 2 2.2.5 4.9.5 7.6-.1 1.4-.3 2.7-.8 4.1-1.5 1.1-.5 2.1-1.1 3.1-1.8-.1 0-.2-.1-.3-.2zm-18.1 1.8c.6.1 1.2.2 1.8.2-1.2-.2-2.2-.5-2.9-.8-1.2-.4-1.8-.8-1.8-.8l.3.3c.1.1.3.2.4.3.6.3 1.3.6 2.2.8zm34.8-10.9c-.6-.1-1.2-.2-1.8-.2 1.2.2 2.2.5 2.9.8 1.2.4 1.8.8 1.8.8l-.3-.3c-.1-.1-.3-.2-.4-.3-.6-.3-1.3-.6-2.2-.8zm-16.2 9.5s.6.4 1.8.8c.8.3 1.8.6 2.9.8h1.2c2.3-.2 4.8-1.1 7.2-2.4 1.2-.7 2.4-1.4 3.6-2.3.6-.4 1.2-.9 1.7-1.3.6-.4 1.1-.9 1.7-1.2 1.1-.8 2.2-1.5 3.4-2.1 1.2-.6 2.4-1.1 3.6-1.5 2.4-.8 4.8-1 6.8-.8.7.1 1.3.2 1.9.3.7 0 1.3.1 1.8.2.9.2 1.6.5 2.2.9.1.1.3.2.4.3-.2-.2-.6-.6-1.3-1-1.1-.7-2.7-1.6-4.9-2-2.2-.5-4.9-.5-7.6.1-1.4.3-2.7.8-4.1 1.5-1.1.5-2.1 1.1-3.1 1.8l.2.2c.2.3.3.4.3.4s-.3-.2-.8-.5c-.2.1-.3.2-.5.3-.6.4-1.1.9-1.7 1.3-.6.5-1.1.9-1.6 1.3-1.1.8-2.2 1.6-3.2 2.3-1.1.7-2.2 1.3-3.2 1.8-1.1.5-2.1.8-3.1 1.1-1 .2-1.9.3-2.7.3-.8-.1-1.5-.2-2.1-.4-.4-.1-.7-.3-.9-.4-.1 0-.1.1-.2.1.1.1.3.3.5.4-.1-.2-.2-.3-.2-.3zm19.9-7.3s-.1-.2-.3-.4c-.1-.1-.1-.2-.2-.2s-.1.1-.2.1c.4.2.7.5.7.5zm-20.7 6.5s.1.2.3.4c.1.1.1.2.2.2s.1-.1.2-.1c-.4-.2-.7-.5-.7-.5zm23.8-.6c.2-.2.4-.3.6-.5.6-.5 1.1-.9 1.6-1.3 1.1-.8 2.2-1.6 3.2-2.3 1.1-.7 2.2-1.3 3.2-1.8 1.1-.5 2.1-.8 3.1-1.1 1-.2 1.9-.3 2.7-.3.8.1 1.5.2 2.1.4.7.2 1.1.5 1.4.7l.1-.1-.1-.1c-.2-.2-.4-.4-.8-.7l.3.3s-.6-.4-1.8-.8c-.8-.3-1.8-.6-2.9-.8h-1.2c-2.3.2-4.8 1.1-7.2 2.4-1.2.7-2.4 1.4-3.6 2.3-.6.4-1.2.9-1.7 1.3-.6.4-1.1.9-1.7 1.2-1.1.8-2.2 1.5-3.4 2.1-1.2.6-2.4 1.1-3.6 1.5-2.4.8-4.8 1-6.8.8-.7-.1-1.3-.2-1.9-.3-.7 0-1.3-.1-1.8-.2-.9-.2-1.6-.5-2.2-.9-.1-.1-.3-.2-.4-.3.2.2.6.6 1.3 1 1.1.7 2.7 1.6 4.9 2 2.2.5 4.9.5 7.6-.1 1.4-.3 2.7-.8 4.1-1.5 1.3-.6 2.6-1.4 3.8-2.3.4 0 .7-.3 1.1-.6-.2-.1-.3-.2-.3-.2s.1.1.3.2zm-20.1 2.8c.6.1 1.2.2 1.8.2-1.2-.2-2.2-.5-2.9-.8-1.1-.4-1.8-.8-1.8-.8l.3.3c.1.1.3.2.4.3.5.3 1.3.6 2.2.8zm34.7-10.9c-.6-.1-1.2-.2-1.8-.2 1.2.2 2.2.5 2.9.8 1.1.4 1.8.8 1.8.8l-.3-.3c-.1-.1-.3-.2-.4-.3-.5-.3-1.3-.6-2.2-.8zm-14.1 8.7s.6.4 1.8.8c.8.3 1.8.6 2.9.8h1.2c2.3-.2 4.8-1.1 7.2-2.4 1.2-.7 2.4-1.4 3.6-2.3.6-.4 1.2-.9 1.7-1.3.6-.4 1.1-.9 1.7-1.2 1.1-.8 2.2-1.5 3.4-2.1 1.2-.6 2.4-1.1 3.6-1.5 2.4-.8 4.8-1 6.8-.8.7.1 1.3.2 1.9.3.7 0 1.3.1 1.8.2.9.2 1.6.5 2.2.9.1.1.3.2.4.3-.2-.2-.6-.6-1.3-1-1.1-.7-2.7-1.6-4.9-2-2.2-.5-4.9-.5-7.6.1-1.4.3-2.7.8-4.1 1.5-1.3.6-2.6 1.4-3.8 2.3-.4.3-.7.5-1 .8.1.2.2.3.2.3s-.1-.1-.3-.2c-.2.2-.4.3-.6.5-.6.5-1.1.9-1.6 1.3-1.1.8-2.2 1.6-3.2 2.3-1.1.7-2.2 1.3-3.2 1.8-1.1.5-2.1.8-3.1 1.1-1 .2-1.9.3-2.7.3-.8-.1-1.5-.2-2.1-.4-.7-.2-1.1-.5-1.4-.7l-.1.1.1.1c.2.2.4.4.8.7-.2-.5-.3-.6-.3-.6zm17.8-6.5s-.1-.1-.2-.3l-.1.1c.2.1.3.2.3.2zm-18.6 5.7s.1.1.2.3l.1-.1c-.2-.1-.3-.2-.3-.2zm20.3.8s.2.2.7.5c.6-.4 1.2-.7 1.7-1.1.6-.4 1.1-.9 1.7-1.3.6-.5 1.1-.9 1.6-1.3 1.1-.8 2.2-1.6 3.2-2.3 1.1-.7 2.2-1.3 3.2-1.8 1.1-.5 2.1-.8 3.1-1.1 1-.2 1.9-.3 2.7-.3.8.1 1.5.2 2.1.4.4.1.7.3 1 .5.1 0 .1-.1.2-.1-.2-.1-.3-.3-.6-.5l.3.3s-.6-.4-1.8-.8c-.8-.3-1.8-.6-2.9-.8h-1.2c-2.3.2-4.8 1.1-7.2 2.4-1.2.7-2.4 1.4-3.6 2.3-.6.4-1.2.9-1.7 1.3-.6.4-1.1.9-1.7 1.2-1.1.8-2.2 1.5-3.4 2.1-1.2.6-2.4 1.1-3.6 1.5-2.4.8-4.8 1-6.8.8-.7-.1-1.3-.2-1.9-.3-.7 0-1.3-.1-1.8-.2-.9-.2-1.6-.5-2.2-.9-.1-.1-.3-.2-.4-.3.2.2.6.6 1.3 1 1.1.7 2.7 1.6 4.9 2 2.2.5 4.9.5 7.6-.1 1.4-.3 2.7-.8 4.1-1.5.6-.3 1.3-.7 1.9-1l-.2-.2c-.2-.2-.3-.4-.3-.4zm18.1-9.6c-.6-.1-1.2-.2-1.8-.2 1.2.2 2.2.5 2.9.8 1.2.4 1.8.8 1.8.8l-.3-.3c-.1-.1-.3-.2-.4-.3-.5-.3-1.3-.6-2.2-.8zm-34.7 11c.6.1 1.2.2 1.8.2-1.2-.2-2.2-.5-2.9-.8-1.1-.4-1.8-.8-1.8-.8l.3.3c.1.1.3.2.4.3.5.2 1.3.6 2.2.8zm17.3-.6s.6.4 1.8.8c.8.3 1.8.6 2.9.8h1.2c2.3-.2 4.8-1.1 7.2-2.4 1.2-.7 2.4-1.4 3.6-2.3.6-.4 1.2-.9 1.7-1.3.6-.4 1.1-.9 1.7-1.2 1.1-.8 2.2-1.5 3.4-2.1 1.2-.6 2.4-1.1 3.6-1.5 2.4-.8 4.8-1 6.8-.8.7.1 1.3.2 1.9.3.7 0 1.3.1 1.8.2.9.2 1.6.5 2.2.9.1.1.3.2.4.3-.2-.2-.6-.6-1.3-1-1.1-.7-2.7-1.6-4.9-2-2.2-.5-4.9-.5-7.6.1-1.4.3-2.7.8-4.1 1.5-.6.3-1.3.7-1.9 1l.2.2c.2.3.3.4.3.4s-.2-.2-.7-.5c-.6.4-1.2.7-1.7 1.1-.6.4-1.1.9-1.7 1.3-.6.5-1.1.9-1.6 1.3-1.1.8-2.2 1.6-3.2 2.3-1.1.7-2.2 1.3-3.2 1.8-1.1.5-2.1.8-3.1 1.1-1 .2-1.9.3-2.7.3-.8-.1-1.5-.2-2.1-.4-.4-.1-.7-.3-1-.5-.1 0-.1.1-.2.1.2.1.3.3.6.5-.1-.2-.3-.3-.3-.3zm21.1-8.2s-.1-.2-.3-.4l-.2-.2c-.1 0-.1.1-.2.1.4.3.7.5.7.5zm-21.8 7.4s.1.2.3.4l.2.2c.1 0 .1-.1.2-.1-.5-.3-.7-.5-.7-.5zm21.3.4c-.2-.3-.3-.4-.3-.4s.3.3 1 .6c.2-.1.4-.3.6-.4.6-.4 1.1-.9 1.7-1.3.6-.5 1.1-.9 1.6-1.3 1.1-.8 2.2-1.6 3.2-2.3 1.1-.7 2.2-1.3 3.2-1.8 1.1-.5 2.1-.8 3.1-1.1 1-.2 1.9-.3 2.7-.3.8.1 1.5.2 2.1.4.3.1.5.2.7.3.1-.1.2-.1.3-.2l-.3-.3.3.3s-.6-.4-1.8-.8c-.8-.3-1.8-.6-2.9-.8h-1.2c-2.3.2-4.8 1.1-7.2 2.4-1.2.7-2.4 1.4-3.6 2.3-.6.4-1.2.9-1.7 1.3-.6.4-1.1.9-1.7 1.2-1.1.8-2.2 1.5-3.4 2.1-1.2.6-2.4 1.1-3.6 1.5-2.4.8-4.8 1-6.8.8-.7-.1-1.3-.2-1.9-.3-.7 0-1.3-.1-1.8-.2-.9-.2-1.6-.5-2.2-.9-.1-.1-.3-.2-.4-.3.2.2.6.6 1.3 1 1.1.7 2.7 1.6 4.9 2 2.2.5 4.9.5 7.6-.1 1.4-.3 2.7-.8 4.1-1.5 1-.5 2-1.1 2.9-1.7-.2.1-.4-.1-.5-.2zm-17.7 1.8c.6.1 1.2.2 1.8.2-1.2-.2-2.2-.5-2.9-.8-1.2-.4-1.8-.8-1.8-.8l.3.3c.1.1.3.2.4.3.6.3 1.3.6 2.2.8zm34.8-10.9c-.6-.1-1.2-.2-1.8-.2 1.2.2 2.2.5 2.9.8 1.2.4 1.8.8 1.8.8l-.3-.3c-.1-.1-.3-.2-.4-.3-.6-.3-1.3-.6-2.2-.8zm-16.6 9.5s.6.4 1.8.8c.8.3 1.8.6 2.9.8h1.2c2.3-.2 4.8-1.1 7.2-2.4 1.2-.7 2.4-1.4 3.6-2.3.6-.4 1.2-.9 1.7-1.3.6-.4 1.1-.9 1.7-1.2 1.1-.8 2.2-1.5 3.4-2.1 1.2-.6 2.4-1.1 3.6-1.5 2.4-.8 4.8-1 6.8-.8.7.1 1.3.2 1.9.3.7 0 1.3.1 1.8.2.9.2 1.6.5 2.2.9.1.1.3.2.4.3-.2-.2-.6-.6-1.3-1-1.1-.7-2.7-1.6-4.9-2-2.2-.5-4.9-.5-7.6.1-1.4.3-2.7.8-4.1 1.5-1 .5-2 1.1-2.9 1.7.2.1.3.3.4.4.2.3.3.4.3.4s-.3-.3-1-.6c-.2.1-.4.3-.6.4-.6.4-1.1.9-1.7 1.3-.6.5-1.1.9-1.6 1.3-1.1.8-2.2 1.6-3.2 2.3-1.1.7-2.2 1.3-3.2 1.8-1.1.5-2.1.8-3.1 1.1-1 .2-1.9.3-2.7.3-.8-.1-1.5-.2-2.1-.4-.3-.1-.5-.2-.7-.3-.1-.1-.2 0-.2 0 0 .1.2.2.3.3l-.3-.3zm-.8-.8s.1.2.3.4l.4.4c.1-.1.2-.1.3-.2-.7-.3-1-.6-1-.6zm21-6.5s-.1-.2-.3-.4l-.4-.4c-.1.1-.2.1-.3.2.7.3 1 .6 1 .6zm.8 6.9c-.2-.3-.3-.4-.3-.4s.3.2.8.5c.2-.1.3-.2.5-.3.6-.4 1.1-.9 1.7-1.3.6-.5 1.1-.9 1.6-1.3 1.1-.8 2.2-1.6 3.2-2.3 1.1-.7 2.2-1.3 3.2-1.8 1.1-.5 2.1-.8 3.1-1.1 1-.2 1.9-.3 2.7-.3.8.1 1.5.2 2.1.4.4.1.7.3.9.4.1 0 .1-.1.2-.1-.1-.1-.3-.3-.5-.4l.3.3s-.6-.4-1.8-.8c-.8-.3-1.8-.6-2.9-.8H462c-2.3.2-4.8 1.1-7.2 2.4-1.2.7-2.4 1.4-3.6 2.3-.6.4-1.2.9-1.7 1.3-.6.4-1.1.9-1.7 1.2-1.1.8-2.2 1.5-3.4 2.1-1.2.6-2.4 1.1-3.6 1.5-2.4.8-4.8 1-6.8.8-.7-.1-1.3-.2-1.9-.3-.7 0-1.3-.1-1.8-.2-.9-.2-1.6-.5-2.2-.9-.1-.1-.3-.2-.4-.3.2.2.6.6 1.3 1 1.1.7 2.7 1.6 4.9 2 2.2.5 4.9.5 7.6-.1 1.4-.3 2.7-.8 4.1-1.5 1.1-.5 2.1-1.1 3.1-1.8-.2 0-.3-.1-.3-.2zm-18.1 1.8c.6.1 1.2.2 1.8.2-1.2-.2-2.2-.5-2.9-.8-1.1-.4-1.8-.8-1.8-.8l.3.3c.1.1.3.2.4.3.5.3 1.3.6 2.2.8zm34.7-10.9c-.6-.1-1.2-.2-1.8-.2 1.2.2 2.2.5 2.9.8 1.2.4 1.8.8 1.8.8l-.3-.3c-.1-.1-.3-.2-.4-.3-.5-.3-1.3-.6-2.2-.8zm-16.2 9.5s.6.4 1.8.8c.8.3 1.8.6 2.9.8h1.2c2.3-.2 4.8-1.1 7.2-2.4 1.2-.7 2.4-1.4 3.6-2.3.6-.4 1.2-.9 1.7-1.3.6-.4 1.1-.9 1.7-1.2 1.1-.8 2.2-1.5 3.4-2.1 1.2-.6 2.4-1.1 3.6-1.5 2.4-.8 4.8-1 6.8-.8.7.1 1.3.2 1.9.3.7 0 1.3.1 1.8.2.9.2 1.6.5 2.2.9.1.1.3.2.4.3-.2-.2-.6-.6-1.3-1-1.1-.7-2.7-1.6-4.9-2-2.2-.5-4.9-.5-7.6.1-1.4.3-2.7.8-4.1 1.5-1.1.5-2.1 1.1-3.1 1.8l.2.2c.2.3.3.4.3.4s-.3-.2-.8-.5c-.2.1-.3.2-.5.3-.6.4-1.1.9-1.7 1.3-.6.5-1.1.9-1.6 1.3-1.1.8-2.2 1.6-3.2 2.3-1.1.7-2.2 1.3-3.2 1.8-1.1.5-2.1.8-3.1 1.1-1 .2-1.9.3-2.7.3-.8-.1-1.5-.2-2.1-.4-.4-.1-.7-.3-.9-.4-.1 0-.1.1-.2.1.1.1.3.3.5.4-.1-.2-.2-.3-.2-.3zm19.9-7.3s-.1-.2-.3-.4c-.1-.1-.1-.2-.2-.2s-.1.1-.2.1c.4.2.7.5.7.5zm-20.7 6.5s.1.2.3.4c.1.1.1.2.2.2s.1-.1.2-.1c-.4-.2-.7-.5-.7-.5zm41-7.6l.3.3s-.6-.4-1.8-.8c-.8-.3-1.8-.6-2.9-.8h-1.2c-2.3.2-4.8 1.1-7.2 2.4-1.2.7-2.4 1.4-3.6 2.3-.6.4-1.2.9-1.7 1.3-.6.4-1.1.9-1.7 1.2-1.1.8-2.2 1.5-3.4 2.1-1.2.6-2.4 1.1-3.6 1.5-2.4.8-4.8 1-6.8.8-.7-.1-1.3-.2-1.9-.3-.7 0-1.3-.1-1.8-.2-.9-.2-1.6-.5-2.2-.9-.1-.1-.3-.2-.4-.3.2.2.6.6 1.3 1 1.1.7 2.7 1.6 4.9 2 2.2.5 4.9.5 7.6-.1 1.4-.3 2.7-.8 4.1-1.5 1.3-.6 2.6-1.4 3.8-2.3.6-.4 1.1-.9 1.7-1.3.6-.5 1.1-.9 1.6-1.3 1.1-.8 2.2-1.6 3.2-2.3 1.1-.7 2.2-1.3 3.2-1.8 1.1-.5 2.1-.8 3.1-1.1 1-.2 1.9-.3 2.7-.3.8.1 1.5.2 2.1.4 1.1.4 1.7.9 1.7.9s-.1-.2-.3-.4c-.2 0-.4-.3-.8-.5zm-37.3 9.8c.6.1 1.2.2 1.8.2-1.2-.2-2.2-.5-2.9-.8-1.2-.4-1.8-.8-1.8-.8l.3.3c.1.1.3.2.4.3.6.3 1.3.6 2.2.8zm34.8-10.9c-.6-.1-1.2-.2-1.8-.2 1.2.2 2.2.5 2.9.8 1.2.4 1.8.8 1.8.8l-.3-.3c-.1-.1-.3-.2-.4-.3-.6-.3-1.3-.6-2.2-.8zM104 336.6c-.1-.6-.2-1.2-.2-1.8-.1-.6-.2-1.2-.3-1.9-.2-2 0-4.4.8-6.8.4-1.2.9-2.4 1.5-3.6.6-1.2 1.3-2.4 2.1-3.4.4-.5.8-1.1 1.2-1.7.4-.5.9-1.1 1.3-1.7.9-1.1 1.6-2.4 2.3-3.6 1.3-2.4 2.2-4.9 2.4-7.2v-1.2c-.2-1.2-.5-2.2-.8-2.9-.4-1.2-.8-1.8-.8-1.8l.3.3c-.2-.3-.5-.6-.7-.8-.3-.2-.4-.3-.4-.3s.5.5.9 1.7c.2.6.3 1.3.4 2.1 0 .8-.1 1.7-.3 2.7-.2 1-.6 2-1.1 3.1-.5 1.1-1.1 2.1-1.8 3.2s-1.5 2.2-2.3 3.2c-.4.6-.8 1-1.3 1.6-.4.6-.9 1.1-1.3 1.7-.9 1.2-1.6 2.5-2.3 3.8-.7 1.3-1.1 2.7-1.5 4.1-.7 2.7-.6 5.4-.1 7.6.5 2.2 1.4 3.8 2 4.9.4.6.7 1 1 1.3-.1-.1-.2-.3-.3-.4-.1-.5-.5-1.3-.7-2.2zm1.3 2c-.2-.6-.3-1.3-.4-2.1 0-.8.1-1.7.3-2.7.2-1 .6-2 1.1-3.1.5-1.1 1.1-2.1 1.8-3.2s1.5-2.2 2.3-3.2c.4-.6.8-1 1.3-1.6.4-.6.9-1.1 1.3-1.7.4-.6.8-1.1 1.1-1.7-.3-.4-.5-.7-.5-.7s.2.1.4.3l.2.2c.4-.6.7-1.2 1-1.9.7-1.3 1.1-2.7 1.5-4.1.7-2.7.6-5.4.1-7.6-.5-2.2-1.3-3.8-2-4.9-.4-.6-.7-1-1-1.3.1.1.2.3.3.4.3.6.7 1.3.9 2.2.1.6.2 1.2.2 1.8.1.6.2 1.2.3 1.9.2 2 0 4.4-.8 6.8-.4 1.2-.9 2.4-1.5 3.6-.6 1.2-1.3 2.4-2.1 3.4-.4.5-.8 1.1-1.2 1.7-.4.5-.9 1.1-1.3 1.7-.9 1.1-1.6 2.4-2.3 3.6-1.3 2.4-2.2 4.9-2.4 7.2v1.2c.2 1.2.5 2.2.8 2.9.4 1.2.8 1.8.8 1.8l-.3-.3c.2.2.3.4.5.6 0-.1.1-.1.1-.2-.1-.3-.3-.6-.5-1zm.2.9s-.4-.6-.8-1.8c-.3-.8-.6-1.8-.8-2.9 0 .7.1 1.3.2 1.8.2.9.5 1.6.9 2.2.1.1.2.3.3.4.1.2.2.3.2.3zm8.1-40.5s.4.6.8 1.8c.3.8.6 1.8.8 2.9 0-.7-.1-1.3-.2-1.8-.2-.9-.5-1.6-.9-2.2-.1-.1-.2-.3-.3-.4-.1-.2-.2-.3-.2-.3zm-8.7 57.9c-.1-.6-.2-1.2-.2-1.8-.1-.6-.2-1.2-.3-1.9-.2-2 0-4.4.8-6.8.4-1.2.9-2.4 1.5-3.6.6-1.2 1.3-2.4 2.1-3.4.4-.5.8-1.1 1.2-1.7.4-.5.9-1.1 1.3-1.7.9-1.1 1.6-2.4 2.3-3.6 1.3-2.4 2.2-4.9 2.4-7.2V324c-.2-1.2-.5-2.2-.8-2.9-.4-1.2-.8-1.8-.8-1.8l.3.3c-.2-.2-.3-.4-.5-.6 0 .1-.1.1-.1.2.1.3.3.6.5 1 .2.6.3 1.3.4 2.1 0 .8-.1 1.7-.3 2.7-.2 1-.6 2-1.1 3.1-.5 1.1-1.1 2.1-1.8 3.2s-1.5 2.2-2.3 3.2c-.4.6-.8 1-1.3 1.6-.4.6-.9 1.1-1.3 1.7-.4.6-.8 1.1-1.1 1.7.3.4.5.7.5.7s-.2-.1-.4-.3l-.2-.2c-.4.6-.7 1.2-1 1.9-.7 1.3-1.1 2.7-1.5 4.1-.7 2.7-.6 5.4-.1 7.6.5 2.2 1.4 3.8 2 4.9.4.6.7 1 1 1.3-.1-.1-.2-.3-.3-.4-.3-.6-.7-1.3-.9-2.2zm1.4-16.6s-.2-.2-.5-.7c0 .1-.1.1-.1.2l.2.2c.2.2.4.3.4.3zm7.4-21.8s.2.2.5.7c0-.1.1-.1.1-.2l-.2-.2c-.3-.2-.4-.3-.4-.3zm-7.5 40.4c-.2-.6-.3-1.3-.4-2.1 0-.8.1-1.7.3-2.7.2-1 .6-2 1.1-3.1.5-1.1 1.1-2.1 1.8-3.2s1.5-2.2 2.3-3.2c.4-.6.8-1 1.3-1.6.4-.6.9-1.1 1.3-1.7.2-.2.3-.4.4-.6-.3-.7-.6-1-.6-1s.2.1.4.3l.4.4c.6-.9 1.2-1.9 1.7-2.9.7-1.3 1.1-2.7 1.5-4.1.7-2.7.6-5.4.1-7.6-.5-2.2-1.4-3.8-2-4.9-.4-.6-.7-1-1-1.3.1.1.2.3.3.4.3.6.7 1.3.9 2.2.1.6.2 1.2.2 1.8.1.6.2 1.2.3 1.9.2 2 0 4.4-.8 6.8-.4 1.2-.9 2.4-1.5 3.6-.6 1.2-1.3 2.4-2.1 3.4-.4.5-.8 1.1-1.3 1.7-.4.5-.9 1.1-1.3 1.7-.9 1.1-1.6 2.4-2.3 3.6-1.3 2.4-2.2 4.9-2.4 7.2v1.2c.2 1.2.5 2.2.8 2.9.4 1.2.8 1.8.8 1.8l-.3-.3.3.3c.1-.1.1-.2.2-.3-.2-.1-.3-.4-.4-.6zm8.3-39.7s.4.6.8 1.8c.3.8.6 1.8.8 2.9 0-.7-.1-1.3-.2-1.8-.2-.9-.5-1.6-.9-2.2-.1-.1-.2-.3-.3-.4-.1-.1-.2-.3-.2-.3zm-8.2 40.6s-.4-.6-.8-1.8c-.3-.8-.6-1.8-.8-2.9 0 .7.1 1.3.2 1.8.2.9.5 1.6.9 2.2.1.1.2.3.3.4.1.2.2.3.2.3zm-1.4 18.1c-.1-.6-.2-1.2-.2-1.8-.1-.6-.2-1.2-.3-1.9-.2-2 0-4.4.8-6.8.4-1.2.9-2.4 1.5-3.6.6-1.2 1.3-2.4 2.1-3.4.4-.5.8-1.1 1.2-1.7.4-.5.9-1.1 1.3-1.7.9-1.1 1.6-2.4 2.3-3.6 1.3-2.4 2.2-4.9 2.4-7.2V345c-.2-1.2-.5-2.2-.8-2.9-.4-1.2-.8-1.8-.8-1.8l.3.3-.3-.3c-.1.1-.1.2-.2.3.1.2.2.4.3.7.2.6.3 1.3.4 2.1 0 .8-.1 1.7-.3 2.7-.2 1-.6 2-1.1 3.1-.5 1.1-1.1 2.1-1.8 3.2s-1.5 2.2-2.3 3.2c-.4.6-.8 1-1.3 1.6-.4.6-.9 1.1-1.3 1.7-.2.2-.3.4-.4.6.3.7.6 1 .6 1s-.2-.1-.4-.3l-.4-.4c-.6.9-1.2 1.9-1.7 2.9-.7 1.3-1.1 2.7-1.5 4.1-.7 2.7-.6 5.4-.1 7.6.5 2.2 1.4 3.8 2 4.9.4.6.7 1 1 1.3-.1-.1-.2-.3-.3-.4-.1-.6-.5-1.4-.7-2.3zm1.8-17.7c.3.2.4.3.4.3s-.3-.3-.6-1c-.1.1-.1.2-.2.3l.4.4zm7.4-20.4c-.3-.2-.4-.3-.4-.3s.3.3.6 1c.1-.1.1-.2.2-.3-.2-.1-.3-.3-.4-.4zm-7.9 40.1c-.2-.6-.3-1.3-.4-2.1 0-.8.1-1.7.3-2.7.2-1 .6-2 1.1-3.1.5-1.1 1.1-2.1 1.8-3.2s1.5-2.2 2.3-3.2c.4-.6.8-1 1.3-1.6.4-.6.9-1.1 1.3-1.7.1-.2.2-.3.3-.5-.3-.5-.5-.8-.5-.8s.2.1.4.3c.1.1.2.1.2.2.7-1 1.3-2 1.8-3.1.7-1.3 1.1-2.7 1.5-4.1.7-2.7.6-5.4.1-7.6-.5-2.2-1.4-3.8-2-4.9-.4-.6-.7-1-1-1.3.1.1.2.3.3.4.3.6.7 1.3.9 2.2.1.6.2 1.2.2 1.8.1.6.2 1.2.3 1.9.2 2 0 4.4-.8 6.8-.4 1.2-.9 2.4-1.5 3.6-.6 1.2-1.3 2.4-2.1 3.4-.4.5-.8 1.1-1.3 1.7-.4.5-.9 1.1-1.3 1.7-.9 1.1-1.6 2.4-2.3 3.6-1.3 2.4-2.2 4.9-2.4 7.2v1.2c.2 1.2.5 2.2.8 2.9.4 1.2.8 1.8.8 1.8l-.3-.3c.1.2.3.4.4.5 0-.1.1-.1.1-.2s-.2-.4-.3-.8zm.1.9s-.4-.6-.8-1.8c-.3-.8-.6-1.8-.8-2.9 0 .7.1 1.3.2 1.8.2.9.5 1.6.9 2.2.1.1.2.3.3.4.1.2.2.3.2.3zm8.2-40.5s.4.6.8 1.8c.3.8.6 1.8.8 2.9 0-.7-.1-1.3-.2-1.8-.2-.9-.5-1.6-.9-2.2-.1-.1-.2-.3-.3-.4-.1-.2-.2-.3-.2-.3zm-9.6 59.1c-.1-.6-.2-1.2-.2-1.8-.1-.6-.2-1.2-.3-1.9-.2-2 0-4.4.8-6.8.4-1.2.9-2.4 1.5-3.6.6-1.2 1.3-2.4 2.1-3.4.4-.5.8-1.1 1.2-1.7.4-.5.9-1.1 1.3-1.7.9-1.1 1.6-2.4 2.3-3.6 1.3-2.4 2.2-4.9 2.4-7.2v-1.2c-.2-1.2-.5-2.2-.8-2.9-.4-1.2-.8-1.8-.8-1.8l.3.3c-.1-.2-.3-.4-.4-.5 0 .1-.1.1-.1.2.1.2.3.5.4.9.2.6.3 1.3.4 2.1 0 .8-.1 1.7-.3 2.7-.2 1-.6 2-1.1 3.1-.5 1.1-1.1 2.1-1.8 3.2s-1.5 2.2-2.3 3.2c-.4.6-.8 1-1.3 1.6-.4.6-.9 1.1-1.3 1.7-.1.2-.2.3-.3.5.3.5.5.8.5.8s-.2-.1-.4-.3c-.1-.1-.2-.1-.2-.2-.7 1-1.3 2-1.8 3.1-.7 1.3-1.1 2.7-1.5 4.1-.7 2.7-.6 5.4-.1 7.6.5 2.2 1.4 3.8 2 4.9.4.6.7 1 1 1.3-.1-.1-.2-.3-.3-.4-.3-.7-.7-1.4-.9-2.3zm9.2-38.1c-.3-.2-.4-.3-.4-.3s.2.3.5.8c0-.1.1-.1.1-.2-.1-.2-.1-.3-.2-.3zm-7.4 20c.3.2.4.3.4.3s-.2-.3-.5-.8c0 .1-.1.1-.1.2.1.1.2.2.2.3zm-.5 20c-.2-.6-.3-1.3-.4-2.1 0-.8.1-1.7.3-2.7.2-1 .6-2 1.1-3.1.5-1.1 1.1-2.1 1.8-3.2s1.5-2.2 2.3-3.2c.4-.6.8-1 1.3-1.6.2-.2.3-.4.5-.6-.1-.2-.2-.3-.2-.3s.1.1.3.2c.3-.3.5-.7.8-1 .9-1.2 1.6-2.5 2.3-3.8.7-1.3 1.1-2.7 1.5-4.1.7-2.7.6-5.4.1-7.6-.5-2.2-1.4-3.8-2-4.9-.4-.6-.7-1-1-1.3.1.1.2.3.3.4.3.6.7 1.3.9 2.2.1.6.2 1.2.2 1.8.1.6.2 1.2.3 1.9.2 2 0 4.4-.8 6.8-.4 1.2-.9 2.4-1.5 3.6-.6 1.2-1.3 2.4-2.1 3.4-.4.5-.8 1.1-1.3 1.7-.4.5-.9 1.1-1.3 1.7-.9 1.1-1.6 2.4-2.3 3.6-1.3 2.4-2.2 4.9-2.4 7.2v1.2c.2 1.2.5 2.2.8 2.9.4 1.2.8 1.8.8 1.8l-.3-.3c.2.3.5.6.7.7l.1.1.1-.1c-.4-.1-.6-.6-.9-1.3zm8.3-39.6s.4.6.8 1.8c.3.8.6 1.8.8 2.9 0-.7-.1-1.3-.2-1.8-.2-.9-.5-1.6-.9-2.2-.1-.1-.2-.3-.3-.4-.1-.2-.2-.3-.2-.3zm-8.2 40.5s-.4-.6-.8-1.8c-.3-.8-.6-1.8-.8-2.9 0 .7.1 1.3.2 1.8.2.9.5 1.6.9 2.2.1.1.2.3.3.4.1.2.2.3.2.3zm-2.3 20.7c-.1-.6-.2-1.2-.2-1.8-.1-.6-.2-1.2-.3-1.9-.2-2 0-4.4.8-6.8.4-1.2.9-2.4 1.5-3.6.6-1.2 1.3-2.4 2.1-3.4.4-.5.8-1.1 1.2-1.7.4-.5.9-1.1 1.3-1.7.9-1.1 1.6-2.4 2.3-3.6 1.3-2.4 2.2-4.9 2.4-7.2V390c-.2-1.2-.5-2.2-.8-2.9-.4-1.2-.8-1.8-.8-1.8l.3.3c-.2-.3-.5-.6-.7-.7l-.1-.1-.1.1c.2.3.5.7.7 1.4.2.6.3 1.3.4 2.1 0 .8-.1 1.7-.3 2.7-.2 1-.6 2-1.1 3.1-.5 1.1-1.1 2.1-1.8 3.2s-1.5 2.2-2.3 3.2c-.4.6-.8 1-1.3 1.6-.2.2-.3.4-.5.6.1.2.2.3.2.3s-.1-.1-.3-.2c-.3.3-.5.7-.8 1-.9 1.2-1.6 2.5-2.3 3.8-.7 1.3-1.1 2.7-1.5 4.1-.7 2.7-.6 5.4-.1 7.6.5 2.2 1.4 3.8 2 4.9.4.6.7 1 1 1.3-.1-.1-.2-.3-.3-.4 0-.7-.4-1.4-.6-2.3zm2.9-20.2c0 .1 0 .1 0 0 .1.2.2.3.2.3s-.1-.1-.2-.3zm6.1-18c.1 0 .1 0 0 0-.1-.2-.2-.3-.2-.3s.1.1.2.3zm-7.7 40.1c-.2-.6-.3-1.3-.4-2.1 0-.8.1-1.7.3-2.7.2-1 .6-2 1.1-3.1.5-1.1 1.1-2.1 1.8-3.2s1.5-2.2 2.3-3.2c.4-.6.8-1 1.3-1.6.4-.6.9-1.1 1.3-1.7.4-.6.8-1.1 1.1-1.7-.3-.4-.5-.7-.5-.7s.2.1.4.3l.2.2c.4-.6.7-1.2 1-1.9.7-1.3 1.1-2.7 1.5-4.1.7-2.7.6-5.4.1-7.6-.5-2.2-1.3-3.8-2-4.9-.4-.6-.7-1-1-1.3.1.1.2.3.3.4.3.6.7 1.3.9 2.2.1.6.2 1.2.2 1.8.1.6.2 1.2.3 1.9.2 2 0 4.4-.8 6.8-.4 1.2-.9 2.4-1.5 3.6-.6 1.2-1.3 2.4-2.1 3.4-.4.5-.8 1.1-1.2 1.7-.4.5-.9 1.1-1.3 1.7-.9 1.1-1.6 2.4-2.3 3.6-1.3 2.4-2.2 4.9-2.4 7.2v1.2c.2 1.2.5 2.2.8 2.9.4 1.2.8 1.8.8 1.8l-.3-.3c.2.2.3.4.5.6 0-.1.1-.1.1-.2-.1-.2-.3-.5-.5-1zm.2.9s-.4-.6-.8-1.8c-.3-.8-.6-1.8-.8-2.9 0 .7.1 1.3.2 1.8.2.9.5 1.6.9 2.2.1.1.2.3.3.4.1.2.2.3.2.3zm8.1-40.5s.4.6.8 1.8c.3.8.6 1.8.8 2.9 0-.7-.1-1.3-.2-1.8-.2-.9-.5-1.6-.9-2.2-.1-.1-.2-.3-.3-.4-.1-.2-.2-.3-.2-.3zm-8.7 57.9c-.1-.6-.2-1.2-.2-1.8-.1-.6-.2-1.2-.3-1.9-.2-2 0-4.4.8-6.8.4-1.2.9-2.4 1.5-3.6.6-1.2 1.3-2.4 2.1-3.4.4-.5.8-1.1 1.2-1.7.4-.5.9-1.1 1.3-1.7.9-1.1 1.6-2.4 2.3-3.6 1.3-2.4 2.2-4.9 2.4-7.2v-1.2c-.2-1.2-.5-2.2-.8-2.9-.4-1.2-.8-1.8-.8-1.8l.3.3c-.2-.2-.3-.4-.5-.6 0 .1-.1.1-.1.2.1.3.3.6.5 1 .2.6.3 1.3.4 2.1 0 .8-.1 1.7-.3 2.7-.2 1-.6 2-1.1 3.1-.5 1.1-1.1 2.1-1.8 3.2s-1.5 2.2-2.3 3.2c-.4.6-.8 1-1.3 1.6-.4.6-.9 1.1-1.3 1.7-.4.6-.8 1.1-1.1 1.7.3.4.5.7.5.7s-.2-.1-.4-.3l-.2-.2c-.4.6-.7 1.2-1 1.9-.7 1.3-1.1 2.7-1.5 4.1-.7 2.7-.6 5.4-.1 7.6.5 2.2 1.4 3.8 2 4.9.4.6.7 1 1 1.3-.1-.1-.2-.3-.3-.4-.3-.6-.7-1.3-.9-2.2zm1.4-16.6s-.2-.2-.5-.7c0 .1-.1.1-.1.2l.2.2c.2.2.4.3.4.3zm7.4-21.8s.2.2.5.7c0-.1.1-.1.1-.2l-.2-.2c-.3-.2-.4-.3-.4-.3zm-7.5 40.4c-.2-.6-.3-1.3-.4-2.1 0-.8.1-1.7.3-2.7.2-1 .6-2 1.1-3.1.5-1.1 1.1-2.1 1.8-3.2s1.5-2.2 2.3-3.2c.4-.6.8-1 1.3-1.6.4-.6.9-1.1 1.3-1.7.2-.2.3-.4.4-.6-.3-.7-.6-1-.6-1s.2.1.4.3l.4.4c.6-.9 1.2-1.9 1.7-2.9.7-1.3 1.1-2.7 1.5-4.1.7-2.7.6-5.4.1-7.6-.5-2.2-1.4-3.8-2-4.9-.4-.6-.7-1-1-1.3.1.1.2.3.3.4.3.6.7 1.3.9 2.2.1.6.2 1.2.2 1.8.1.6.2 1.2.3 1.9.2 2 0 4.4-.8 6.8-.4 1.2-.9 2.4-1.5 3.6-.6 1.2-1.3 2.4-2.1 3.4-.4.5-.8 1.1-1.3 1.7-.4.5-.9 1.1-1.3 1.7-.9 1.1-1.6 2.4-2.3 3.6-1.3 2.4-2.2 4.9-2.4 7.2v1.2c.2 1.2.5 2.2.8 2.9.4 1.2.8 1.8.8 1.8l-.3-.3.3.3c.1-.1.1-.2.2-.3-.2-.1-.3-.3-.4-.6zm8.3-39.6s.4.6.8 1.8c.3.8.6 1.8.8 2.9 0-.7-.1-1.3-.2-1.8-.2-.9-.5-1.6-.9-2.2-.1-.1-.2-.3-.3-.4-.1-.2-.2-.3-.2-.3zm-8.2 40.5s-.4-.6-.8-1.8c-.3-.8-.6-1.8-.8-2.9 0 .7.1 1.3.2 1.8.2.9.5 1.6.9 2.2.1.1.2.3.3.4.1.2.2.3.2.3zm-1.4 18.2c-.1-.6-.2-1.2-.2-1.8-.1-.6-.2-1.2-.3-1.9-.2-2 0-4.4.8-6.8.4-1.2.9-2.4 1.5-3.6.6-1.2 1.3-2.4 2.1-3.4.4-.5.8-1.1 1.2-1.7.4-.5.9-1.1 1.3-1.7.9-1.1 1.6-2.4 2.3-3.6 1.3-2.4 2.2-4.9 2.4-7.2v-1.2c-.2-1.2-.5-2.2-.8-2.9-.4-1.2-.8-1.8-.8-1.8l.3.3-.3-.3c-.1.1-.1.2-.2.3.1.2.2.4.3.7.2.6.3 1.3.4 2.1 0 .8-.1 1.7-.3 2.7-.2 1-.6 2-1.1 3.1-.5 1.1-1.1 2.1-1.8 3.2s-1.5 2.2-2.3 3.2c-.4.6-.8 1-1.3 1.6-.4.6-.9 1.1-1.3 1.7-.2.2-.3.4-.4.6.3.7.6 1 .6 1s-.2-.1-.4-.3l-.4-.4c-.6.9-1.2 1.9-1.7 2.9-.7 1.3-1.1 2.7-1.5 4.1-.7 2.7-.6 5.4-.1 7.6.5 2.2 1.4 3.8 2 4.9.4.6.7 1 1 1.3-.1-.1-.2-.3-.3-.4-.1-.7-.5-1.4-.7-2.3zm9.2-38.1c-.3-.2-.4-.3-.4-.3s.3.3.6 1c.1-.1.1-.2.2-.3l-.4-.4zm-7.4 20.4c.3.2.4.3.4.3s-.3-.3-.6-1c-.1.1-.1.2-.2.3.2.1.3.2.4.4zm-.5 19.6c-.2-.6-.3-1.3-.4-2.1 0-.8.1-1.7.3-2.7.2-1 .6-2 1.1-3.1.5-1.1 1.1-2.1 1.8-3.2s1.5-2.2 2.3-3.2c.4-.6.8-1 1.3-1.6.4-.6.9-1.1 1.3-1.7.1-.2.2-.3.3-.5-.3-.5-.5-.8-.5-.8s.2.1.4.3c.1.1.2.1.2.2.7-1 1.3-2 1.8-3.1.7-1.3 1.1-2.7 1.5-4.1.7-2.7.6-5.4.1-7.6-.5-2.2-1.4-3.8-2-4.9-.4-.6-.7-1-1-1.3.1.1.2.3.3.4.3.6.7 1.3.9 2.2.1.6.2 1.2.2 1.8.1.6.2 1.2.3 1.9.2 2 0 4.4-.8 6.8-.4 1.2-.9 2.4-1.5 3.6-.6 1.2-1.3 2.4-2.1 3.4-.4.5-.8 1.1-1.3 1.7-.4.5-.9 1.1-1.3 1.7-.9 1.1-1.6 2.4-2.3 3.6-1.3 2.4-2.2 4.9-2.4 7.2v1.2c.2 1.2.5 2.2.8 2.9.4 1.2.8 1.8.8 1.8l-.3-.3c.2.2.3.4.4.5 0-.1.1-.1.1-.2s-.2-.4-.3-.8zm8.3-39.6s.4.6.8 1.8c.3.8.6 1.8.8 2.9 0-.7-.1-1.3-.2-1.8-.2-.9-.5-1.6-.9-2.2-.1-.1-.2-.3-.3-.4-.1-.2-.2-.3-.2-.3zm-8.2 40.5s-.4-.6-.8-1.8c-.3-.8-.6-1.8-.8-2.9 0 .7.1 1.3.2 1.8.2.9.5 1.6.9 2.2.1.1.2.3.3.4.1.2.2.3.2.3zm-1.4 18.6c-.1-.6-.2-1.2-.2-1.8-.1-.6-.2-1.2-.3-1.9-.2-2 0-4.4.8-6.8.4-1.2.9-2.4 1.5-3.6.6-1.2 1.3-2.4 2.1-3.4.4-.5.8-1.1 1.2-1.7.4-.5.9-1.1 1.3-1.7.9-1.1 1.6-2.4 2.3-3.6 1.3-2.4 2.2-4.9 2.4-7.2v-1.2c-.2-1.2-.5-2.2-.8-2.9-.4-1.2-.8-1.8-.8-1.8l.3.3c-.1-.2-.3-.4-.4-.5 0 .1-.1.1-.1.2.1.2.3.5.4.9.2.6.3 1.3.4 2.1 0 .8-.1 1.7-.3 2.7-.2 1-.6 2-1.1 3.1-.5 1.1-1.1 2.1-1.8 3.2s-1.5 2.2-2.3 3.2c-.4.6-.8 1-1.3 1.6-.4.6-.9 1.1-1.3 1.7-.1.2-.2.3-.3.5.3.5.5.8.5.8s-.2-.1-.4-.3c-.1-.1-.2-.1-.2-.2-.7 1-1.3 2-1.8 3.1-.7 1.3-1.1 2.7-1.5 4.1-.7 2.7-.6 5.4-.1 7.6.5 2.2 1.4 3.8 2 4.9.4.6.7 1 1 1.3-.1-.1-.2-.3-.3-.4-.3-.7-.7-1.4-.9-2.3zm9.2-38.1c-.3-.2-.4-.3-.4-.3s.2.3.5.8c0-.1.1-.1.1-.2-.1-.2-.1-.2-.2-.3zm-7.4 20c.3.2.4.3.4.3s-.2-.3-.5-.8c0 .1-.1.1-.1.2.1.1.2.2.2.3zm.4 12.2c.5-1.1 1.1-2.1 1.8-3.2s1.5-2.2 2.3-3.2c.4-.6.8-1 1.3-1.6.4-.6.9-1.1 1.3-1.7.9-1.2 1.6-2.5 2.3-3.8.7-1.3 1.1-2.7 1.5-4.1.7-2.7.6-5.4.1-7.6-.5-2.2-1.4-3.8-2-4.9-.4-.6-.7-1-1-1.3.1.1.2.3.3.4.3.6.7 1.3.9 2.2.1.6.2 1.2.2 1.8.1.6.2 1.2.3 1.9.2 2 0 4.4-.8 6.8-.4 1.2-.9 2.4-1.5 3.6-.6 1.2-1.3 2.4-2.1 3.4-.4.5-.8 1.1-1.3 1.7-.4.5-.9 1.1-1.3 1.7-.9 1.1-1.6 2.4-2.3 3.6-1.3 2.4-2.2 4.9-2.4 7.2v1.2c.2 1.2.5 2.2.8 2.9.4 1.2.8 1.8.8 1.8l-.3-.3c.2.3.5.6.7.8.3.2.4.3.4.3s-.5-.5-.9-1.7c-.2-.6-.3-1.3-.4-2.1 0-.8.1-1.7.3-2.7.2-1 .6-2.1 1-3.1zm-.8 8.8s-.4-.6-.8-1.8c-.3-.8-.6-1.8-.8-2.9 0 .7.1 1.3.2 1.8.2.9.5 1.6.9 2.2.1.1.2.3.3.4.1.2.2.3.2.3zm8.2-40.5s.4.6.8 1.8c.3.8.6 1.8.8 2.9 0-.7-.1-1.3-.2-1.8-.2-.9-.5-1.6-.9-2.2-.1-.1-.2-.3-.3-.4-.1-.2-.2-.3-.2-.3zm-.9-151.3s.4-.6.8-1.8c.3-.8.6-1.8.8-2.9v-1.2c-.2-2.3-1.1-4.8-2.4-7.2-.7-1.2-1.4-2.4-2.3-3.6-.4-.6-.9-1.2-1.3-1.7-.4-.6-.9-1.1-1.2-1.7-.8-1.1-1.5-2.2-2.1-3.4-.6-1.2-1.1-2.4-1.5-3.6-.8-2.4-1-4.8-.8-6.8.1-.7.2-1.3.3-1.9 0-.7.1-1.3.2-1.8.2-.9.5-1.6.9-2.2.1-.1.2-.3.3-.4-.2.2-.6.6-1 1.3-.7 1.1-1.6 2.7-2 4.9-.5 2.2-.5 4.9.1 7.6.3 1.4.8 2.7 1.5 4.1.6 1.3 1.4 2.6 2.3 3.8.4.6.9 1.1 1.3 1.7.5.6.9 1.1 1.3 1.6.8 1.1 1.6 2.2 2.3 3.2.7 1.1 1.3 2.2 1.8 3.2.5 1.1.8 2.1 1.1 3.1.2 1 .3 1.9.3 2.7-.1.8-.2 1.5-.4 2.1-.4 1.1-.9 1.7-.9 1.7s.2-.1.4-.3l.7-.7c-.4.1-.5.2-.5.2zm-8.4-40.2l.3-.3s-.4.6-.8 1.8c-.3.8-.6 1.8-.8 2.9v1.2c.2 2.3 1.1 4.8 2.4 7.2.7 1.2 1.4 2.4 2.3 3.6.4.6.9 1.2 1.3 1.7.4.6.9 1.1 1.2 1.7.8 1.1 1.5 2.2 2.1 3.4.6 1.2 1.1 2.4 1.5 3.6.8 2.4 1 4.8.8 6.8-.1.7-.2 1.3-.3 1.9 0 .7-.1 1.3-.2 1.8-.2.9-.5 1.6-.9 2.2-.1.1-.2.3-.3.4.2-.2.6-.6 1-1.3.7-1.1 1.6-2.7 2-4.9.5-2.2.5-4.9-.1-7.6-.3-1.4-.8-2.7-1.5-4.1-.3-.6-.7-1.3-1-1.9l-.2.2c-.3.2-.4.3-.4.3s.2-.2.5-.7c-.4-.6-.7-1.2-1.1-1.7-.4-.6-.9-1.1-1.3-1.7-.5-.6-.9-1.1-1.3-1.6-.8-1.1-1.6-2.2-2.3-3.2-.7-1.1-1.3-2.2-1.8-3.2-.5-1.1-.8-2.1-1.1-3.1-.2-1-.3-1.9-.3-2.7.1-.8.2-1.5.4-2.1.1-.4.3-.7.5-1 0-.1-.1-.1-.1-.2-.2.2-.3.4-.5.6zm-1.2 2.6c-.1.6-.2 1.2-.2 1.8.2-1.2.5-2.2.8-2.9.4-1.2.8-1.8.8-1.8l-.3.3c-.1.1-.2.3-.3.4-.2.5-.6 1.3-.8 2.2zm11 34.7c.1-.6.2-1.2.2-1.8-.2 1.2-.5 2.2-.8 2.9-.4 1.2-.8 1.8-.8 1.8l.3-.3c.1-.1.2-.3.3-.4.3-.5.6-1.3.8-2.2zm-8.7-38.4s-.2.2-.5.7c.4.6.7 1.2 1.1 1.7.4.6.9 1.1 1.3 1.7.5.6.9 1.1 1.3 1.6.8 1.1 1.6 2.2 2.3 3.2.7 1.1 1.3 2.2 1.8 3.2.5 1.1.8 2.1 1.1 3.1.2 1 .3 1.9.3 2.7-.1.8-.2 1.5-.4 2.1-.1.4-.3.7-.5 1 0 .1.1.1.1.2.1-.2.3-.3.5-.6l-.3.3s.4-.6.8-1.8c.3-.8.6-1.8.8-2.9v-1.2c-.2-2.3-1.1-4.8-2.4-7.2-.7-1.2-1.4-2.4-2.3-3.6-.4-.6-.9-1.2-1.3-1.7-.4-.6-.9-1.1-1.2-1.7-.8-1.1-1.5-2.2-2.1-3.4-.6-1.2-1.1-2.4-1.5-3.6-.8-2.4-1-4.8-.8-6.8.1-.7.2-1.3.3-1.9 0-.7.1-1.3.2-1.8.2-.9.5-1.6.9-2.2.1-.1.2-.3.3-.4-.2.2-.6.6-1 1.3-.7 1.1-1.6 2.7-2 4.9-.5 2.2-.5 4.9.1 7.6.3 1.4.8 2.7 1.5 4.1.3.6.7 1.3 1 1.9l.2-.2c.2-.2.4-.3.4-.3zm0 0s-.2.1-.4.3l-.2.2c0 .1.1.1.1.2.3-.4.5-.7.5-.7zm7.4 21.8s.2-.1.4-.3l.2-.2c0-.1-.1-.1-.1-.2-.3.5-.5.7-.5.7zm-7.4-41.3s-.4.6-.8 1.8c-.3.8-.6 1.8-.8 2.9v1.2c.2 2.3 1.1 4.8 2.4 7.2.7 1.2 1.4 2.4 2.3 3.6.4.6.9 1.2 1.3 1.7.4.6.9 1.1 1.3 1.7.8 1.1 1.5 2.2 2.1 3.4.6 1.2 1.1 2.4 1.5 3.6.8 2.4 1 4.8.8 6.8-.1.7-.2 1.3-.3 1.9 0 .7-.1 1.3-.2 1.8-.2.9-.5 1.6-.9 2.2-.1.1-.2.3-.3.4.2-.2.6-.6 1-1.3.7-1.1 1.6-2.7 2-4.9.5-2.2.5-4.9-.1-7.6-.3-1.4-.8-2.7-1.5-4.1-.5-1-1.1-2-1.7-2.9-.1.2-.3.3-.4.4-.3.2-.4.3-.4.3s.3-.3.6-1c-.1-.2-.3-.4-.4-.6-.4-.6-.9-1.1-1.3-1.7-.5-.6-.9-1.1-1.3-1.6-.8-1.1-1.6-2.2-2.3-3.2-.7-1.1-1.3-2.2-1.8-3.2-.5-1.1-.8-2.1-1.1-3.1-.2-1-.3-1.9-.3-2.7.1-.8.2-1.5.4-2.1.1-.3.2-.5.3-.7 0 0 0-.1-.1-.2-.1 0-.2.2-.3.3l.3-.3zm-1.4 2.9c-.1.6-.2 1.2-.2 1.8.2-1.2.5-2.2.8-2.9.4-1.2.8-1.8.8-1.8l-.3.3c-.1.1-.2.3-.3.4-.2.6-.6 1.3-.8 2.2zm11 34.8c.1-.6.2-1.2.2-1.8-.2 1.2-.5 2.2-.8 2.9-.4 1.2-.8 1.8-.8 1.8l.3-.3c.1-.1.2-.3.3-.4.3-.6.6-1.3.8-2.2zm-9.2-38.1c.3-.2.4-.3.4-.3s-.3.3-.6 1c.1.2.3.4.4.6.4.6.9 1.1 1.3 1.7.5.6.9 1.1 1.3 1.6.8 1.1 1.6 2.2 2.3 3.2.7 1.1 1.3 2.2 1.8 3.2.5 1.1.8 2.1 1.1 3.1.2 1 .3 1.9.3 2.7-.1.8-.2 1.5-.4 2.1-.1.3-.2.5-.3.7.1.1.1.2.2.3l.3-.3-.3.3s.4-.6.8-1.8c.3-.8.6-1.8.8-2.9v-1.2c-.2-2.3-1.1-4.8-2.4-7.2-.7-1.2-1.4-2.4-2.3-3.6-.4-.6-.9-1.2-1.3-1.7-.4-.6-.9-1.1-1.2-1.7-.8-1.1-1.5-2.2-2.1-3.4-.6-1.2-1.1-2.4-1.5-3.6-.8-2.4-1-4.8-.8-6.8.1-.7.2-1.3.3-1.9 0-.7.1-1.3.2-1.8.2-.9.5-1.6.9-2.2.1-.1.2-.3.3-.4-.2.2-.6.6-1 1.3-.7 1.1-1.6 2.7-2 4.9-.5 2.2-.5 4.9.1 7.6.3 1.4.8 2.7 1.5 4.1.5 1 1.1 2 1.7 2.9 0-.3.1-.4.2-.5zm.4-.3s-.2.1-.4.3l-.4.4c.1.1.1.2.2.3.3-.7.6-1 .6-1zm6.6 21s.2-.1.4-.3l.4-.4c-.1-.1-.1-.2-.2-.3-.3.7-.6 1-.6 1zm-7.4-41.3s-.4.6-.8 1.8c-.3.8-.6 1.8-.8 2.9v1.2c.2 2.3 1.1 4.8 2.4 7.2.7 1.2 1.4 2.4 2.3 3.6.4.6.9 1.2 1.3 1.7.4.6.9 1.1 1.3 1.7.8 1.1 1.5 2.2 2.1 3.4.6 1.2 1.1 2.4 1.5 3.6.8 2.4 1 4.8.8 6.8-.1.7-.2 1.3-.3 1.9 0 .7-.1 1.3-.2 1.8-.2.9-.5 1.6-.9 2.2-.1.1-.2.3-.3.4.2-.2.6-.6 1-1.3.7-1.1 1.6-2.7 2-4.9.5-2.2.5-4.9-.1-7.6-.3-1.4-.8-2.7-1.5-4.1-.5-1.1-1.1-2.1-1.8-3.1l-.2.2c-.3.2-.4.3-.4.3s.2-.3.5-.8c-.1-.2-.2-.3-.3-.5-.4-.6-.9-1.1-1.3-1.7-.5-.6-.9-1.1-1.3-1.6-.8-1.1-1.6-2.2-2.3-3.2-.7-1.1-1.3-2.2-1.8-3.2-.5-1.1-.8-2.1-1.1-3.1-.2-1-.3-1.9-.3-2.7.1-.8.2-1.5.4-2.1.1-.4.3-.7.4-.9 0-.1-.1-.1-.1-.2-.1.1-.3.3-.4.5l.2-.2zm-1.4 2.9c-.1.6-.2 1.2-.2 1.8.2-1.2.5-2.2.8-2.9.4-1.2.8-1.8.8-1.8l-.3.3c-.1.1-.2.3-.3.4-.2.5-.6 1.3-.8 2.2zm11 34.7c.1-.6.2-1.2.2-1.8-.2 1.2-.5 2.2-.8 2.9-.4 1.2-.8 1.8-.8 1.8l.3-.3c.1-.1.2-.3.3-.4.3-.5.6-1.3.8-2.2zm-9.2-38.1c.3-.2.4-.3.4-.3s-.2.3-.5.8c.1.2.2.3.3.5.4.6.9 1.1 1.3 1.7.5.6.9 1.1 1.3 1.6.8 1.1 1.6 2.2 2.3 3.2.7 1.1 1.3 2.2 1.8 3.2.5 1.1.8 2.1 1.1 3.1.2 1 .3 1.9.3 2.7-.1.8-.2 1.5-.4 2.1-.1.4-.3.7-.4.9 0 .1.1.1.1.2.1-.1.3-.3.4-.5l-.3.3s.4-.6.8-1.8c.3-.8.6-1.8.8-2.9V228c-.2-2.3-1.1-4.8-2.4-7.2-.7-1.2-1.4-2.4-2.3-3.6-.4-.6-.9-1.2-1.3-1.7-.4-.6-.9-1.1-1.2-1.7-.8-1.1-1.5-2.2-2.1-3.4-.6-1.2-1.1-2.4-1.5-3.6-.8-2.4-1-4.8-.8-6.8.1-.7.2-1.3.3-1.9 0-.7.1-1.3.2-1.8.2-.9.5-1.6.9-2.2.1-.1.2-.3.3-.4-.2.2-.6.6-1 1.3-.7 1.1-1.6 2.7-2 4.9-.5 2.2-.5 4.9.1 7.6.3 1.4.8 2.7 1.5 4.1.5 1.1 1.1 2.1 1.8 3.1.1-.1.2-.2.2-.3zm7 20.4s.2-.1.4-.3c.1-.1.2-.1.2-.2s-.1-.1-.1-.2c-.3.4-.5.7-.5.7zm-6.6-20.7s-.2.1-.4.3c-.1.1-.2.1-.2.2s.1.1.1.2c.3-.4.5-.7.5-.7zm-.8-20.6s-.4.6-.8 1.8c-.3.8-.6 1.8-.8 2.9v1.2c.2 2.3 1.1 4.8 2.4 7.2.7 1.2 1.4 2.4 2.3 3.6.4.6.9 1.2 1.3 1.7.4.6.9 1.1 1.3 1.7.8 1.1 1.5 2.2 2.1 3.4.6 1.2 1.1 2.4 1.5 3.6.8 2.4 1 4.8.8 6.8-.1.7-.2 1.3-.3 1.9 0 .7-.1 1.3-.2 1.8-.2.9-.5 1.6-.9 2.2-.1.1-.2.3-.3.4.2-.2.6-.6 1-1.3.7-1.1 1.6-2.7 2-4.9.5-2.2.5-4.9-.1-7.6-.3-1.4-.8-2.7-1.5-4.1-.6-1.3-1.4-2.6-2.3-3.8-.3-.4-.5-.7-.8-1-.2.1-.3.2-.3.2s.1-.1.2-.3c-.2-.2-.3-.4-.5-.6-.5-.6-.9-1.1-1.3-1.6-.8-1.1-1.6-2.2-2.3-3.2-.7-1.1-1.3-2.2-1.8-3.2-.5-1.1-.8-2.1-1.1-3.1-.2-1-.3-1.9-.3-2.7.1-.8.2-1.5.4-2.1.2-.7.5-1.1.7-1.4l-.1-.1-.1.1c-.2.2-.4.4-.7.8.4-.2.5-.3.5-.3zm9.6 37.6c.1-.6.2-1.2.2-1.8-.2 1.2-.5 2.2-.8 2.9-.4 1.2-.8 1.8-.8 1.8l.3-.3c.1-.1.2-.3.3-.4.3-.6.6-1.3.8-2.2zm-11-34.8c-.1.6-.2 1.2-.2 1.8.2-1.2.5-2.2.8-2.9.4-1.2.8-1.8.8-1.8l-.3.3c-.1.1-.2.3-.3.4-.2.6-.6 1.3-.8 2.2zm2-3.3c.2.2.3.4.5.6.5.6.9 1.1 1.3 1.6.8 1.1 1.6 2.2 2.3 3.2.7 1.1 1.3 2.2 1.8 3.2.5 1.1.8 2.1 1.1 3.1.2 1 .3 1.9.3 2.7-.1.8-.2 1.5-.4 2.1-.2.7-.5 1.1-.7 1.4l.1.1.1-.1.7-.7-.3.3s.4-.6.8-1.8c.3-.8.6-1.8.8-2.9v-1.2c-.2-2.3-1.1-4.8-2.4-7.2-.7-1.2-1.4-2.4-2.3-3.6-.4-.6-.9-1.2-1.3-1.7-.4-.6-.9-1.1-1.2-1.7-.8-1.1-1.5-2.2-2.1-3.4-.6-1.2-1.1-2.4-1.5-3.6-.8-2.4-1-4.8-.8-6.8.1-.7.2-1.3.3-1.9 0-.7.1-1.3.2-1.8.2-.9.5-1.6.9-2.2.1-.1.2-.3.3-.4-.2.2-.6.6-1 1.3-.7 1.1-1.6 2.7-2 4.9-.5 2.2-.5 4.9.1 7.6.3 1.4.8 2.7 1.5 4.1.6 1.3 1.4 2.6 2.3 3.8 0 .2.3.6.6 1 .1-.2.2-.3.2-.3s-.1.1-.2.3zm.2-.3s-.1.1-.3.2l.1.1c.1-.2.2-.3.2-.3zm5.7 18.6s.1-.1.3-.2l-.1-.1c-.1.2-.2.3-.2.3zm-7.3-41.3s-.4.6-.8 1.8c-.3.8-.6 1.8-.8 2.9v1.2c.2 2.3 1.1 4.8 2.4 7.2.7 1.2 1.4 2.4 2.3 3.6.4.6.9 1.2 1.3 1.7.4.6.9 1.1 1.2 1.7.8 1.1 1.5 2.2 2.1 3.4.6 1.2 1.1 2.4 1.5 3.6.8 2.4 1 4.8.8 6.8-.1.7-.2 1.3-.3 1.9 0 .7-.1 1.3-.2 1.8-.2.9-.5 1.6-.9 2.2-.1.1-.2.3-.3.4.2-.2.6-.6 1-1.3.7-1.1 1.6-2.7 2-4.9.5-2.2.5-4.9-.1-7.6-.3-1.4-.8-2.7-1.5-4.1-.3-.6-.7-1.3-1-1.9l-.2.2c-.3.2-.4.3-.4.3s.2-.2.5-.7c-.4-.6-.7-1.2-1.1-1.7-.4-.6-.9-1.1-1.3-1.7-.5-.6-.9-1.1-1.3-1.6-.8-1.1-1.6-2.2-2.3-3.2-.7-1.1-1.3-2.2-1.8-3.2-.5-1.1-.8-2.1-1.1-3.1-.2-1-.3-1.9-.3-2.7.1-.8.2-1.5.4-2.1.1-.4.3-.7.5-1 0-.1-.1-.1-.1-.2-.1.2-.3.3-.5.6l.3-.3zm9.5 37.6c.1-.6.2-1.2.2-1.8-.2 1.2-.5 2.2-.8 2.9-.4 1.2-.8 1.8-.8 1.8l.3-.3c.1-.1.2-.3.3-.4.3-.6.6-1.3.8-2.2zm-11-34.8c-.1.6-.2 1.2-.2 1.8.2-1.2.5-2.2.8-2.9.4-1.2.8-1.8.8-1.8l-.3.3c-.1.1-.2.3-.3.4-.2.6-.6 1.3-.8 2.2zm2.3-3.6s-.2.2-.5.7c.4.6.7 1.2 1.1 1.7.4.6.9 1.1 1.3 1.7.5.6.9 1.1 1.3 1.6.8 1.1 1.6 2.2 2.3 3.2.7 1.1 1.3 2.2 1.8 3.2.5 1.1.8 2.1 1.1 3.1.2 1 .3 1.9.3 2.7-.1.8-.2 1.5-.4 2.1-.1.4-.3.7-.5 1 0 .1.1.1.1.2.1-.2.3-.3.5-.6l-.3.3s.4-.6.8-1.8c.3-.8.6-1.8.8-2.9v-1.2c-.2-2.3-1.1-4.8-2.4-7.2-.7-1.2-1.4-2.4-2.3-3.6-.4-.6-.9-1.2-1.3-1.7-.4-.6-.9-1.1-1.2-1.7-.8-1.1-1.5-2.2-2.1-3.4-.6-1.2-1.1-2.4-1.5-3.6-.8-2.4-1-4.8-.8-6.8.1-.7.2-1.3.3-1.9 0-.7.1-1.3.2-1.8.2-.9.5-1.6.9-2.2.1-.1.2-.3.3-.4-.2.2-.6.6-1 1.3-.7 1.1-1.6 2.7-2 4.9-.5 2.2-.5 4.9.1 7.6.3 1.4.8 2.7 1.5 4.1.3.6.7 1.3 1 1.9l.2-.2c.2-.2.4-.3.4-.3zm0 0s-.2.1-.4.3l-.2.2c0 .1.1.1.1.2.3-.5.5-.7.5-.7zm7.4 21.8s.2-.1.4-.3l.2-.2c0-.1-.1-.1-.1-.2-.3.5-.5.7-.5.7zm-7.4-41.3s-.4.6-.8 1.8c-.3.8-.6 1.8-.8 2.9v1.2c.2 2.3 1.1 4.8 2.4 7.2.7 1.2 1.4 2.4 2.3 3.6.4.6.9 1.2 1.3 1.7.4.6.9 1.1 1.3 1.7.8 1.1 1.5 2.2 2.1 3.4.6 1.2 1.1 2.4 1.5 3.6.8 2.4 1 4.8.8 6.8-.1.7-.2 1.3-.3 1.9 0 .7-.1 1.3-.2 1.8-.2.9-.5 1.6-.9 2.2-.1.1-.2.3-.3.4.2-.2.6-.6 1-1.3.7-1.1 1.6-2.7 2-4.9.5-2.2.5-4.9-.1-7.6-.3-1.4-.8-2.7-1.5-4.1-.5-1-1.1-2-1.7-2.9-.1.2-.3.3-.4.4-.3.2-.4.3-.4.3s.3-.3.6-1c-.1-.2-.3-.4-.4-.6-.4-.6-.9-1.1-1.3-1.7-.5-.6-.9-1.1-1.3-1.6-.8-1.1-1.6-2.2-2.3-3.2-.7-1.1-1.3-2.2-1.8-3.2-.5-1.1-.8-2.1-1.1-3.1-.2-1-.3-1.9-.3-2.7.1-.8.2-1.5.4-2.1.1-.3.2-.5.3-.7 0-.1 0-.2-.1-.2s-.2.2-.3.3l.3-.3zm9.6 37.7c.1-.6.2-1.2.2-1.8-.2 1.2-.5 2.2-.8 2.9-.4 1.2-.8 1.8-.8 1.8l.3-.3c.1-.1.2-.3.3-.4.3-.6.6-1.4.8-2.2zm-11-34.8c-.1.6-.2 1.2-.2 1.8.2-1.2.5-2.2.8-2.9.4-1.2.8-1.8.8-1.8l-.3.3c-.1.1-.2.3-.3.4-.2.6-.6 1.3-.8 2.2zm1.8-3.4c.3-.2.4-.3.4-.3s-.3.3-.6 1c.1.2.3.4.4.6.4.6.9 1.1 1.3 1.7.5.6.9 1.1 1.3 1.6.8 1.1 1.6 2.2 2.3 3.2.7 1.1 1.3 2.2 1.8 3.2.5 1.1.8 2.1 1.1 3.1.2 1 .3 1.9.3 2.7-.1.8-.2 1.5-.4 2.1-.1.3-.2.5-.3.7.1.1.1.2.2.3l.3-.3-.3.3s.4-.6.8-1.8c.3-.8.6-1.8.8-2.9v-1.2c-.2-2.3-1.1-4.8-2.4-7.2-.7-1.2-1.4-2.4-2.3-3.6-.4-.6-.9-1.2-1.3-1.7-.4-.6-.9-1.1-1.2-1.7-.8-1.1-1.5-2.2-2.1-3.4-.6-1.2-1.1-2.4-1.5-3.6-.8-2.4-1-4.8-.8-6.8.1-.7.2-1.3.3-1.9 0-.7.1-1.3.2-1.8.2-.9.5-1.6.9-2.2.1-.1.2-.3.3-.4-.2.2-.6.6-1 1.3-.7 1.1-1.6 2.7-2 4.9-.5 2.2-.5 4.9.1 7.6.3 1.4.8 2.7 1.5 4.1.5 1 1.1 2 1.7 2.9 0-.2.1-.3.2-.5zm7 20.8s.2-.1.4-.3l.4-.4c-.1-.1-.1-.2-.2-.3-.3.6-.6 1-.6 1zm-6.6-21.1s-.2.1-.4.3l-.4.4c.1.1.1.2.2.3.3-.7.6-1 .6-1zm-.8-20.2s-.4.6-.8 1.8c-.3.8-.6 1.8-.8 2.9v1.2c.2 2.3 1.1 4.8 2.4 7.2.7 1.2 1.4 2.4 2.3 3.6.4.6.9 1.2 1.3 1.7.4.6.9 1.1 1.3 1.7.8 1.1 1.5 2.2 2.1 3.4.6 1.2 1.1 2.4 1.5 3.6.8 2.4 1 4.8.8 6.8-.1.7-.2 1.3-.3 1.9 0 .7-.1 1.3-.2 1.8-.2.9-.5 1.6-.9 2.2-.1.1-.2.3-.3.4.2-.2.6-.6 1-1.3.7-1.1 1.6-2.7 2-4.9.5-2.2.5-4.9-.1-7.6-.3-1.4-.8-2.7-1.5-4.1-.5-1.1-1.1-2.1-1.8-3.1l-.2.2c-.3.2-.4.3-.4.3s.2-.3.5-.8c-.1-.2-.2-.3-.3-.5-.4-.6-.9-1.1-1.3-1.7-.5-.6-.9-1.1-1.3-1.6-.8-1.1-1.6-2.2-2.3-3.2-.7-1.1-1.3-2.2-1.8-3.2-.5-1.1-.8-2.1-1.1-3.1-.2-1-.3-1.9-.3-2.7.1-.8.2-1.5.4-2.1.1-.4.3-.7.4-.9 0-.1-.1-.1-.1-.2-.1.1-.3.3-.4.5l.2-.2zm9.6 37.6c.1-.6.2-1.2.2-1.8-.2 1.2-.5 2.2-.8 2.9-.4 1.2-.8 1.8-.8 1.8l.3-.3c.1-.1.2-.3.3-.4.3-.6.6-1.3.8-2.2zm-11-34.8c-.1.6-.2 1.2-.2 1.8.2-1.2.5-2.2.8-2.9.4-1.2.8-1.8.8-1.8l-.3.3c-.1.1-.2.3-.3.4-.2.6-.6 1.3-.8 2.2zm1.8-3.3c.3-.2.4-.3.4-.3s-.2.3-.5.8c.1.2.2.3.3.5.4.6.9 1.1 1.3 1.7.5.6.9 1.1 1.3 1.6.8 1.1 1.6 2.2 2.3 3.2.7 1.1 1.3 2.2 1.8 3.2.5 1.1.8 2.1 1.1 3.1.2 1 .3 1.9.3 2.7-.1.8-.2 1.5-.4 2.1-.1.4-.3.7-.4.9 0 .1.1.1.1.2.1-.1.3-.3.4-.5l-.3.3s.4-.6.8-1.8c.3-.8.6-1.8.8-2.9v-1.2c-.2-2.3-1.1-4.8-2.4-7.2-.7-1.2-1.4-2.4-2.3-3.6-.4-.6-.9-1.2-1.3-1.7-.4-.6-.9-1.1-1.2-1.7-.8-1.1-1.5-2.2-2.1-3.4-.6-1.2-1.1-2.4-1.5-3.6-.8-2.4-1-4.8-.8-6.8.1-.7.2-1.3.3-1.9 0-.7.1-1.3.2-1.8.2-.9.5-1.6.9-2.2.1-.1.2-.3.3-.4-.2.2-.6.6-1 1.3-.7 1.1-1.6 2.7-2 4.9-.5 2.2-.5 4.9.1 7.6.3 1.4.8 2.7 1.5 4.1.5 1.1 1.1 2.1 1.8 3.1.1-.1.2-.2.2-.3zm7 20.3s.2-.1.4-.3c.1-.1.2-.1.2-.2s-.1-.1-.1-.2c-.3.5-.5.7-.5.7zm-6.6-20.6s-.2.1-.4.3c-.1.1-.2.1-.2.2s.1.1.1.2c.3-.5.5-.7.5-.7zm-.8-20.7s-.4.6-.8 1.8c-.3.8-.6 1.8-.8 2.9v1.2c.2 2.3 1.1 4.8 2.4 7.2.7 1.2 1.4 2.4 2.3 3.6.4.6.9 1.2 1.3 1.7.4.6.9 1.1 1.3 1.7.8 1.1 1.5 2.2 2.1 3.4.6 1.2 1.1 2.4 1.5 3.6.8 2.4 1 4.8.8 6.8-.1.7-.2 1.3-.3 1.9 0 .7-.1 1.3-.2 1.8-.2.9-.5 1.6-.9 2.2-.1.1-.2.3-.3.4.2-.2.6-.6 1-1.3.7-1.1 1.6-2.7 2-4.9.5-2.2.5-4.9-.1-7.6-.3-1.4-.8-2.7-1.5-4.1-.6-1.3-1.4-2.6-2.3-3.8-.4-.6-.9-1.1-1.3-1.7-.5-.6-.9-1.1-1.3-1.6-.8-1.1-1.6-2.2-2.3-3.2-.7-1.1-1.3-2.2-1.8-3.2-.5-1.1-.8-2.1-1.1-3.1-.2-1-.3-1.9-.3-2.7.1-.8.2-1.5.4-2.1.4-1.1.9-1.7.9-1.7s-.2.1-.4.3l-.7.7c.3-.1.4-.2.4-.2zm9.6 37.7c.1-.6.2-1.2.2-1.8-.2 1.2-.5 2.2-.8 2.9-.4 1.2-.8 1.8-.8 1.8l.3-.3c.1-.1.2-.3.3-.4.3-.6.6-1.3.8-2.2zm-11-34.8c-.1.6-.2 1.2-.2 1.8.2-1.2.5-2.2.8-2.9.4-1.2.8-1.8.8-1.8l-.3.3c-.1.1-.2.3-.3.4-.2.6-.6 1.3-.8 2.2zm388.9 200.1c0 4.1 2.2 7.4 2.2 7.4s2.2-3.3 2.2-7.4c0-4.1-2.2-7.4-2.2-7.4s-2.2 3.3-2.2 7.4zm0-24.7c0 4.1 2.2 7.4 2.2 7.4s2.2-3.3 2.2-7.4c0-4.1-2.2-7.4-2.2-7.4s-2.2 3.3-2.2 7.4zm5.7 15.9s.8 3.9 3.7 6.8c2.9 2.9 6.8 3.7 6.8 3.7s-.8-3.9-3.7-6.8c-2.9-2.9-6.8-3.7-6.8-3.7zm1.5-3.5s3.3 2.2 7.4 2.2 7.4-2.2 7.4-2.2-3.3-2.2-7.4-2.2-7.4 2.2-7.4 2.2zm9-14.1s-3.9.8-6.8 3.7c-2.9 2.9-3.7 6.8-3.7 6.8s3.9-.8 6.8-3.7c2.9-2.9 3.7-6.8 3.7-6.8zm-14 10.7c-1.9 0-3.4 1.5-3.4 3.4s1.5 3.4 3.4 3.4 3.4-1.5 3.4-3.4-1.5-3.4-3.4-3.4zM97.1 310.2c0 4.1 2.2 7.4 2.2 7.4s2.2-3.3 2.2-7.4c0-4.1-2.2-7.4-2.2-7.4s-2.2 3.3-2.2 7.4zm4.4-24.7c0-4.1-2.2-7.4-2.2-7.4s-2.2 3.3-2.2 7.4c0 4.1 2.2 7.4 2.2 7.4s2.2-3.3 2.2-7.4zm-16.2 26.4s3.9-.8 6.8-3.7c2.9-2.9 3.7-6.8 3.7-6.8s-3.9.8-6.8 3.7c-2.9 2.9-3.7 6.8-3.7 6.8zm9-14s-3.3-2.2-7.4-2.2c-4.1 0-7.4 2.2-7.4 2.2s3.3 2.2 7.4 2.2c4.1-.1 7.4-2.2 7.4-2.2zm-9-14.1s.8 3.9 3.7 6.8c2.9 2.9 6.8 3.7 6.8 3.7s-.8-3.9-3.7-6.8c-2.9-2.8-6.8-3.7-6.8-3.7zm14 10.7c-1.9 0-3.4 1.5-3.4 3.4s1.5 3.4 3.4 3.4 3.4-1.5 3.4-3.4-1.5-3.4-3.4-3.4zm194.5 211s-3.3-2.2-7.4-2.2c-4.1 0-7.4 2.2-7.4 2.2s3.3 2.2 7.4 2.2c4-.1 7.4-2.2 7.4-2.2zm9.9 0s3.3 2.2 7.4 2.2c4.1 0 7.4-2.2 7.4-2.2s-3.3-2.2-7.4-2.2c-4.1 0-7.4 2.2-7.4 2.2zm-19 14s3.9-.8 6.8-3.7c2.9-2.9 3.7-6.8 3.7-6.8s-3.9.8-6.8 3.7c-2.9 2.9-3.7 6.8-3.7 6.8zm11.8-1.7c0 4.1 2.2 7.4 2.2 7.4s2.2-3.3 2.2-7.4-2.2-7.4-2.2-7.4-2.2 3.3-2.2 7.4zm5.7-8.8s.8 3.9 3.7 6.8c2.9 2.9 6.8 3.7 6.8 3.7s-.8-3.9-3.7-6.8c-2.9-2.9-6.8-3.7-6.8-3.7zm-3.5-6.9c-1.9 0-3.4 1.5-3.4 3.4s1.5 3.4 3.4 3.4 3.4-1.5 3.4-3.4-1.5-3.4-3.4-3.4zm-4.9-412.3s-3.3-2.2-7.4-2.2c-4.1 0-7.4 2.2-7.4 2.2s3.3 2.2 7.4 2.2c4 0 7.4-2.2 7.4-2.2zm9.9 0s3.3 2.2 7.4 2.2c4.1 0 7.4-2.2 7.4-2.2s-3.3-2.2-7.4-2.2c-4.1.1-7.4 2.2-7.4 2.2zm-8.5-3.5s-.8-3.9-3.7-6.8c-2.9-2.9-6.8-3.7-6.8-3.7s.8 3.9 3.7 6.8c2.9 2.9 6.8 3.7 6.8 3.7zm5.7-8.9c0-4.1-2.2-7.4-2.2-7.4s-2.2 3.3-2.2 7.4 2.2 7.4 2.2 7.4 2.2-3.3 2.2-7.4zm11.8-1.6s-3.9.8-6.8 3.7c-2.9 2.9-3.7 6.8-3.7 6.8s3.9-.8 6.8-3.7c2.9-2.9 3.7-6.8 3.7-6.8zm-14 17.4c1.9 0 3.4-1.5 3.4-3.4s-1.5-3.4-3.4-3.4-3.4 1.5-3.4 3.4 1.5 3.4 3.4 3.4z"/></svg>