<svg id="Layer_1" xmlns="http://www.w3.org/2000/svg" viewBox="0 0 595.3 595.3"><style>.st0{fill:#5c3716}</style><path class="st0" d="M216.6 112.4c0-1 .8-1.8 1.8-1.8s1.8.8 1.8 1.8-.8 1.8-1.8 1.8-1.8-.8-1.8-1.8zm-13.4 2.6c1.1 0 2.1-.9 2.1-2.1 0-1.1-.9-2.1-2.1-2.1-1.1 0-2.1.9-2.1 2.1 0 1.2.9 2.1 2.1 2.1zm30.2 1.9c.8 0 1.5-.7 1.5-1.5s-.7-1.5-1.5-1.5-1.5.7-1.5 1.5.6 1.5 1.5 1.5zm143.5-6.3c-1 0-1.8.8-1.8 1.8s.8 1.8 1.8 1.8 1.8-.8 1.8-1.8-.8-1.8-1.8-1.8zm-15 3.3c-.8 0-1.5.7-1.5 1.5s.7 1.5 1.5 1.5 1.5-.7 1.5-1.5c0-.9-.7-1.5-1.5-1.5zM111.5 428c-1.2 0-2.2 1-2.2 2.2 0 1.2 1 2.2 2.2 2.2 1.2 0 2.2-1 2.2-2.2.1-1.2-.9-2.2-2.2-2.2zm76.9-308.8c1.2 0 2.2-1 2.2-2.2 0-1.2-1-2.2-2.2-2.2-1.2 0-2.2 1-2.2 2.2 0 1.1 1 2.2 2.2 2.2zm178.5 395.4c.5 1 .8 2.1.8 3.3 0 4.1-3.3 7.4-7.4 7.4-4.1 0-7.4-3.3-7.4-7.4 0-4.1 3.3-7.4 7.4-7.4 1.7 0 3.3.6 4.6 1.6-.7-1-1.6-2.1-2.7-3.1-1.4-1.2-3.2-2.2-5.2-2.3-2-.1-4.2.7-6.4 2-2.1 1.3-4.2 3.2-6.2 5.3-2 2.1-4 4.4-5.8 6.9-1.8 2.4-3.8 5.2-6.2 7.7-2.3 2.5-4.9 4.8-8.1 6.5-1.6.8-3.3 1.5-5.2 1.8-1.8.3-3.8.2-5.5-.4-1.8-.5-3.3-1.4-4.6-2.4-1.3-1-2.4-2.2-3.3-3.3-1.9-2.3-3.1-4.8-4.2-7.1-1-2.3-1.7-4.4-2.3-6.3-.6-1.9-.9-3.6-1.2-5-.2-1.2-.4-2.1-.5-2.9-.1.7-.3 1.7-.5 2.9-.3 1.4-.7 3.1-1.2 5-.6 1.9-1.3 4.1-2.3 6.3-1 2.3-2.3 4.7-4.2 7.1-.9 1.2-2 2.3-3.3 3.3-1.3 1-2.9 1.9-4.6 2.4-1.8.5-3.7.6-5.5.4-1.8-.3-3.6-.9-5.2-1.8-3.2-1.7-5.8-4-8.1-6.5s-4.3-5.2-6.2-7.7c-1.9-2.4-3.8-4.8-5.8-6.9-2-2.1-4.1-3.9-6.2-5.3-2.1-1.3-4.4-2.1-6.4-2-2 .1-3.8 1.1-5.2 2.3-1.1 1-2 2.1-2.7 3.1 1.3-1 2.8-1.6 4.6-1.6 4.1 0 7.4 3.3 7.4 7.4 0 4.1-3.3 7.4-7.4 7.4-4.1 0-7.4-3.3-7.4-7.4 0-1.2.3-2.3.8-3.3.2-.7.4-1.4.7-2.4.5-1.3 1.3-3 2.6-4.6.7-.8 1.5-1.6 2.5-2.3 1-.7 2.3-1.2 3.7-1.5 1.4-.3 2.9-.2 4.3.1 1.5.3 2.9.8 4.2 1.5 2.7 1.4 5.2 3.2 7.5 5.4 2.3 2.1 4.5 4.5 6.6 7.1.5.6 1 1.3 1.5 1.9l1.5 1.9c1 1.2 2 2.4 3 3.5 2.1 2.2 4.4 4.2 6.8 5.6 1.2.7 2.4 1.2 3.7 1.4 1.2.2 2.4.2 3.6 0 2.3-.5 4.5-2.1 6.3-3.9 1.8-1.9 3.2-3.9 4.4-5.9 2.4-4 4-7.7 5.1-10.3.4-1 .7-1.8 1-2.4-1.8 2.3-3.7 4.5-5.9 6.6-2.5 2.3-5.4 4.6-9.2 5.9-1.9.6-4 1-6.2.6-1.1-.2-2.1-.5-3.1-1-.3-.1-.5-.3-.8-.4l-.6-.4c-.5-.3-1-.7-1.6-1.4-.3-.3-.5-.8-.7-1.3-.2-.5-.2-1.1-.1-1.6.2-1.1.6-1.7 1-2.3.8-1 1.6-1.6 2.4-2.1 1.6-1 3.2-1.7 4.8-2.4 3.2-1.3 6.4-2.4 9.5-3.6 2.2-.8 4.3-1.6 6.5-2.3l.6-.9c-.1-.2-.2-.3-.3-.5-4.4-1.8-8.7-3.7-12.9-5.6-2.9-1.4-5.7-2.8-8.3-4.9-.6-.4-1.4-1.2-2-2-.6-.8-1-1.9-1.2-3-.3-2.2.4-4.1 1.1-5.6 1.6-3 3.7-5.2 5.7-7.1 1.9-1.8 3.8-3.3 5.7-4.8-.3-2.4-.4-4.7-.4-6.9 0-4.2.6-8 2.2-10.7.8-1.3 2-2.3 3.1-2.7 1.1-.5 2.2-.5 3-.5.8 0 1.4.1 1.8.2.4.1.6.1.6.1s.2 0 .6.1c.4.1 1 .2 1.8.5.8.2 1.7.5 2.8 1 .2.1.3.2.5.3.2-.1.3-.2.5-.3 1.1-.5 2-.8 2.8-1 .8-.2 1.4-.4 1.8-.5.4-.1.6-.1.6-.1s.2 0 .6-.1c.4-.1 1-.2 1.8-.2s1.8.1 3 .5c1.1.5 2.3 1.4 3.1 2.7 1.7 2.7 2.2 6.5 2.2 10.7 0 2.2-.1 4.5-.4 6.9 1.9 1.4 3.8 3 5.7 4.8 2 2 4.1 4.1 5.7 7.1.8 1.5 1.4 3.4 1.1 5.6-.2 1.1-.6 2.1-1.2 3-.6.8-1.4 1.5-2 2-2.6 2-5.4 3.5-8.3 4.9-4.2 1.9-8.5 3.8-12.9 5.6-.1.2-.2.3-.3.5l.6.9c2.1.8 4.3 1.6 6.5 2.3 3.2 1.1 6.3 2.2 9.5 3.6 1.6.7 3.2 1.4 4.8 2.4.8.5 1.6 1.1 2.4 2.1.4.5.9 1.2 1 2.3.1.5 0 1.1-.1 1.6-.2.5-.4 1-.7 1.3-.5.7-1.1 1.1-1.6 1.4l-.6.4c-.2.1-.5.3-.8.4-1 .5-2 .8-3.1 1-2.2.4-4.3 0-6.2-.6-3.7-1.3-6.6-3.6-9.2-5.9-2.5-2.3-4.6-4.9-6.5-7.4.3.7.7 1.8 1.3 3.2 1.1 2.6 2.7 6.3 5.1 10.3 1.2 2 2.7 4.1 4.4 5.9 1.8 1.8 3.9 3.4 6.3 3.9 1.2.3 2.4.3 3.6 0 1.2-.3 2.5-.8 3.7-1.4 2.4-1.4 4.7-3.4 6.8-5.6 1.1-1.1 2-2.3 3-3.5l1.5-1.9c.5-.6 1-1.3 1.5-1.9 2.1-2.5 4.2-4.9 6.6-7.1 2.3-2.1 4.8-4 7.5-5.4 1.3-.7 2.8-1.2 4.2-1.5 1.5-.3 2.9-.3 4.3-.1 1.4.2 2.7.8 3.7 1.5s1.9 1.5 2.5 2.3c1.3 1.6 2.1 3.3 2.6 4.6.6.9.8 1.7 1 2.4zm-45.4 2.3c.1.3.1.2 0 0zm-17-9.8c1.2 1.6 2.5 3.1 3.9 4.5 2.1 2.1 4.4 4 6.9 5 1.2.5 2.4.7 3.6.6.6-.1 1.1-.2 1.7-.4l.4-.1.4-.2c-.2-.3-.6-.6-.9-.9-1.1-.9-2.5-1.8-3.9-2.6-4-2.1-8.1-4-12.1-5.9zm-30.7 9.8c-.1 0-.1 0 0 0-.1.2-.1.3 0 0 0 0-.1 0 0 0zm17-9.8c-4.1 1.8-8.1 3.8-11.9 6-1.4.8-2.8 1.7-3.9 2.6-.4.3-.7.6-.9.9l.4.2.4.1c.6.2 1.1.4 1.7.4 1.1.1 2.3-.1 3.6-.6 2.5-1 4.8-2.9 6.9-5 1.2-1.5 2.5-3 3.7-4.6zm21.6-30.6c-1.1 5-2.9 10.3-5.3 15.7-1.1 2.5-2.3 5-3.7 7.5 3.5-1.6 6.9-3.3 10.1-5.3 2.6-1.6 5.1-3.4 7-5.4 1-1 1.3-1.8 1.3-2.5 0-.8-.4-1.7-1-2.7-1.3-2-3.2-3.9-5-5.6l-3-2.7c-.3.2-.3.6-.4 1zm-14.1-25.3c.1.1.3.2.4.3.5.5 1 1.1 1.3 1.9.3.8.2 1.8-.1 2.6-.2.9-.7 1.7-1.1 2.5.9.9 2 1.8 3.1 2.6 2.5 1.9 5.4 3.7 8.4 5.9.5-1.7.8-3.3 1.1-4.8.3-2 .5-3.8.4-5.5-.1-1.7-.4-3.2-1-4.5-.6-1.2-1.5-2.1-2.5-2.5-1-.5-1.9-.6-2.7-.6-.8 0-1.3.1-1.7.1-.4.1-.6.1-.6.1s-.2 0-.6.1c-.4.1-1 .2-1.7.5-.7.2-1.6.6-2.6 1.1 0 .1 0 .2-.1.2zm-2 2.5c-.2 1.1.4 2.4 1.4 3.5.9-1.2 1.6-2.4 1.4-3.5-.1-.8-.7-1.5-1.4-2-.7.5-1.3 1.1-1.4 2zm-12.5 8.6c.3 1.5.6 3.2 1.1 4.8 3.1-2.1 6-4 8.4-5.9 1.1-.9 2.2-1.7 3.1-2.6-.5-.8-.9-1.6-1.1-2.5-.2-.9-.3-1.8-.1-2.6.2-.8.8-1.5 1.3-1.9.1-.1.3-.2.4-.3l-.1-.1c-1-.5-1.9-.9-2.6-1.1-.7-.2-1.3-.4-1.7-.5-.4-.1-.6-.1-.6-.1s-.2 0-.6-.1c-.4 0-1-.1-1.7-.1-.8 0-1.7.1-2.7.6-1 .4-1.9 1.3-2.5 2.5-.6 1.2-1 2.8-1 4.5-.1 1.6 0 3.4.4 5.4zm8.2 37.4c-1.4-2.5-2.6-5-3.7-7.5-2.4-5.4-4.2-10.7-5.3-15.7-.1-.4-.1-.8-.2-1.1l-3 2.7c-1.9 1.8-3.8 3.7-5 5.6-.6 1-1 1.9-1 2.7 0 .8.3 1.5 1.3 2.5 1.9 2 4.4 3.8 7 5.4 2.9 2.1 6.3 3.8 9.9 5.4zm5.6-3.1c1.4-2.4 2.6-4.7 3.8-7.1 1.2-2.5 2.4-5 3.4-7.4 1-2.4 2-4.8 2.9-7.1.4-1.1.8-2.1 1.1-3.1-3.3-3-6.3-5.9-8.8-8.7-.9-1-1.7-2-2.4-3-.7 1-1.5 2-2.4 3-2.5 2.8-5.5 5.7-8.8 8.7.4 1 .7 2.1 1.1 3.1.9 2.3 1.9 4.6 2.9 7.1 1 2.4 2.2 4.9 3.4 7.4 1.2 2.4 2.5 4.8 3.8 7.1zm186.1-64.1c1.2 0 2.2-1 2.2-2.2 0-1.2-1-2.2-2.2-2.2-1.2 0-2.2 1-2.2 2.2 0 1.2 1 2.2 2.2 2.2zM174.8 126.2c1.3 0 2.4-1.1 2.4-2.4 0-1.3-1.1-2.4-2.4-2.4-1.3 0-2.4 1.1-2.4 2.4 0 1.3 1.1 2.4 2.4 2.4zm-12.3 9.1c1.4 0 2.4-1.1 2.4-2.4s-1.1-2.4-2.4-2.4c-1.4 0-2.4 1.1-2.4 2.4s1.1 2.4 2.4 2.4zm293.4 309.6c1.4 0 2.4-1.1 2.4-2.4 0-1.4-1.1-2.4-2.4-2.4-1.4 0-2.4 1.1-2.4 2.4 0 1.3 1 2.4 2.4 2.4zm0-289.6c1.4 0 2.4-1.1 2.4-2.4 0-1.4-1.1-2.4-2.4-2.4-1.4 0-2.4 1.1-2.4 2.4 0 1.3 1 2.4 2.4 2.4zm13.4 282.1c1.3 0 2.4-1.1 2.4-2.4 0-1.3-1.1-2.4-2.4-2.4-1.3 0-2.4 1.1-2.4 2.4 0 1.4 1 2.4 2.4 2.4zm14.4-270.1c1.2 0 2.2-1 2.2-2.2 0-1.2-1-2.2-2.2-2.2-1.2 0-2.2 1-2.2 2.2 0 1.2 1 2.2 2.2 2.2zm30.4 260.4c-1 0-1.8.8-1.8 1.8s.8 1.8 1.8 1.8 1.8-.8 1.8-1.8-.8-1.8-1.8-1.8zm-44.8-265.1c1.3 0 2.4-1.1 2.4-2.4 0-1.3-1.1-2.4-2.4-2.4-1.3 0-2.4 1.1-2.4 2.4 0 1.4 1 2.4 2.4 2.4zm-62.4-47.9c-1.2 0-2.2 1-2.2 2.2 0 1.2 1 2.2 2.2 2.2 1.2 0 2.2-1 2.2-2.2 0-1.2-1-2.2-2.2-2.2zm-178.5-34c-.5-1-.8-2.1-.8-3.3 0-4.1 3.3-7.4 7.4-7.4 4.1 0 7.4 3.3 7.4 7.4 0 4.1-3.3 7.4-7.4 7.4-1.7 0-3.3-.6-4.6-1.6.7 1 1.6 2.1 2.7 3.1 1.4 1.2 3.2 2.2 5.2 2.3 2 .1 4.2-.7 6.4-2 2.1-1.3 4.2-3.2 6.2-5.3 2-2.1 4-4.4 5.8-6.9 1.8-2.4 3.8-5.2 6.2-7.7 2.3-2.5 4.9-4.8 8.1-6.5 1.6-.8 3.3-1.5 5.2-1.8 1.8-.3 3.8-.2 5.5.4 1.8.5 3.3 1.4 4.6 2.4 1.3 1 2.4 2.2 3.3 3.3 1.9 2.3 3.1 4.8 4.2 7.1 1 2.3 1.7 4.4 2.3 6.3.6 1.9.9 3.6 1.2 5 .2 1.2.4 2.1.5 2.9.1-.7.3-1.7.5-2.9.3-1.4.7-3.1 1.2-5 .6-1.9 1.3-4.1 2.3-6.3 1-2.3 2.3-4.7 4.2-7.1.9-1.2 2-2.3 3.3-3.3 1.3-1 2.9-1.9 4.6-2.4 1.8-.5 3.7-.6 5.5-.4 1.8.3 3.6.9 5.2 1.8 3.2 1.7 5.8 4 8.1 6.5s4.3 5.2 6.2 7.7c1.9 2.4 3.8 4.8 5.8 6.9 2 2.1 4.1 3.9 6.2 5.3 2.1 1.3 4.4 2.1 6.4 2 2-.1 3.8-1.1 5.2-2.3 1.1-1 2-2.1 2.7-3.1-1.3 1-2.8 1.6-4.6 1.6-4.1 0-7.4-3.3-7.4-7.4 0-4.1 3.3-7.4 7.4-7.4 4.1 0 7.4 3.3 7.4 7.4 0 1.2-.3 2.3-.8 3.3-.2.7-.4 1.4-.7 2.4-.5 1.3-1.3 3-2.6 4.6-.7.8-1.5 1.6-2.5 2.3-1 .7-2.3 1.2-3.7 1.5-1.4.3-2.9.2-4.3-.1-1.5-.3-2.9-.8-4.2-1.5-2.7-1.4-5.2-3.2-7.5-5.4-2.3-2.1-4.5-4.5-6.6-7.1-.5-.6-1-1.3-1.5-1.9l-1.5-1.9c-1-1.2-2-2.4-3-3.5-2.1-2.2-4.4-4.2-6.8-5.6-1.2-.7-2.4-1.2-3.7-1.4-1.2-.2-2.4-.2-3.6 0-2.3.5-4.5 2.1-6.3 3.9-1.8 1.9-3.2 3.9-4.4 5.9-2.4 4-4 7.7-5.1 10.3-.4 1-.7 1.8-1 2.4 1.8-2.3 3.7-4.5 5.9-6.6 2.5-2.3 5.4-4.6 9.2-5.9 1.9-.6 4-1 6.2-.6 1.1.2 2.1.5 3.1 1 .3.1.5.3.8.4l.6.4c.5.3 1 .7 1.6 1.4.3.3.5.8.7 1.3.2.5.2 1.1.1 1.6-.2 1.1-.6 1.7-1 2.3-.8 1-1.6 1.6-2.4 2.1-1.6 1-3.2 1.7-4.8 2.4-3.2 1.3-6.4 2.4-9.5 3.6-2.2.8-4.3 1.6-6.5 2.3l-.6.9c.1.2.2.3.3.5 4.4 1.8 8.7 3.7 12.9 5.6 2.9 1.4 5.7 2.8 8.3 4.9.6.4 1.4 1.2 2 2 .6.8 1 1.9 1.2 3 .3 2.2-.4 4.1-1.1 5.6-1.6 3-3.7 5.2-5.7 7.1-1.9 1.8-3.8 3.3-5.7 4.8.3 2.4.4 4.7.4 6.9 0 4.2-.6 8-2.2 10.7-.8 1.3-2 2.3-3.1 2.7-1.1.5-2.2.5-3 .5-.8 0-1.4-.1-1.8-.2-.4-.1-.6-.1-.6-.1s-.2 0-.6-.1c-.4-.1-1-.2-1.8-.5-.8-.2-1.7-.5-2.8-1-.2-.1-.3-.2-.5-.3-.2.1-.3.2-.5.3-1.1.5-2 .8-2.8 1-.8.2-1.4.4-1.8.5-.4.1-.6.1-.6.1s-.2 0-.6.1c-.4.1-1 .2-1.8.2s-1.8-.1-3-.5c-1.1-.5-2.3-1.4-3.1-2.7-1.7-2.7-2.2-6.5-2.2-10.7 0-2.2.1-4.5.4-6.9-1.9-1.4-3.8-3-5.7-4.8-2-2-4.1-4.1-5.7-7.1-.8-1.5-1.4-3.4-1.1-5.6.2-1.1.6-2.1 1.2-3 .6-.8 1.4-1.5 2-2 2.6-2 5.4-3.5 8.3-4.9 4.2-1.9 8.5-3.8 12.9-5.6.1-.2.2-.3.3-.5l-.6-.9c-2.1-.8-4.3-1.6-6.5-2.3-3.2-1.1-6.3-2.2-9.5-3.6-1.6-.7-3.2-1.4-4.8-2.4-.8-.5-1.6-1.1-2.4-2.1-.4-.5-.9-1.2-1-2.3-.1-.5 0-1.1.1-1.6.2-.5.4-1 .7-1.3.5-.7 1.1-1.1 1.6-1.4l.6-.4c.2-.1.5-.3.8-.4 1-.5 2-.8 3.1-1 2.2-.4 4.3 0 6.2.6 3.7 1.3 6.6 3.6 9.2 5.9 2.5 2.3 4.6 4.9 6.5 7.4-.3-.7-.7-1.8-1.3-3.2-1.1-2.6-2.7-6.3-5.1-10.3-1.2-2-2.7-4.1-4.4-5.9-1.8-1.8-3.9-3.4-6.3-3.9-1.2-.3-2.4-.3-3.6 0-1.2.3-2.5.8-3.7 1.4-2.4 1.4-4.7 3.4-6.8 5.6-1.1 1.1-2 2.3-3 3.5l-1.5 1.9c-.5.6-1 1.3-1.5 1.9-2.1 2.5-4.2 4.9-6.6 7.1-2.3 2.1-4.8 4-7.5 5.4-1.3.7-2.8 1.2-4.2 1.5-1.5.3-2.9.3-4.3.1-1.4-.2-2.7-.8-3.7-1.5s-1.9-1.5-2.5-2.3c-1.3-1.6-2.1-3.3-2.6-4.6-.6-.9-.8-1.7-1-2.4zm45.4-2.4c-.1 0 0 0 0 0-.1-.2-.1-.1 0 0-.1 0-.1 0 0 0zm17 9.9c-1.2-1.6-2.5-3.1-3.9-4.5-2.1-2.1-4.4-4-6.9-5-1.2-.5-2.4-.7-3.6-.6-.6.1-1.1.2-1.7.4l-.4.1-.4.2c.2.3.6.6.9.9 1.1.9 2.5 1.8 3.9 2.6 4 2.1 8.1 4 12.1 5.9zm30.7-9.9c.1-.1.1-.2 0 0zm-17 9.9c4.1-1.8 8.1-3.8 11.9-6 1.4-.8 2.8-1.7 3.9-2.6.4-.3.7-.6.9-.9l-.4-.2-.4-.1c-.6-.2-1.1-.4-1.7-.4-1.1-.1-2.3.1-3.6.6-2.5 1-4.8 2.9-6.9 5-1.2 1.4-2.5 3-3.7 4.6zm-21.6 30.6c1.1-5 2.9-10.3 5.3-15.7 1.1-2.5 2.3-5 3.7-7.5-3.5 1.6-6.9 3.3-10.1 5.3-2.6 1.6-5.1 3.4-7 5.4-1 1-1.3 1.8-1.3 2.5 0 .8.4 1.7 1 2.7 1.3 2 3.2 3.9 5 5.6l3 2.7c.3-.2.3-.6.4-1zm14 25.3c-.1-.1-.3-.2-.4-.3-.5-.5-1-1.1-1.3-1.9-.3-.8-.2-1.8.1-2.6.2-.9.7-1.7 1.1-2.5-.9-.9-2-1.8-3.1-2.6-2.5-1.9-5.4-3.7-8.4-5.9-.5 1.7-.8 3.3-1.1 4.8-.3 2-.5 3.8-.4 5.5.1 1.7.4 3.2 1 4.5.6 1.2 1.5 2.1 2.5 2.5 1 .5 1.9.6 2.7.6.8 0 1.3-.1 1.7-.1.4-.1.6-.1.6-.1s.2 0 .6-.1c.4-.1 1-.2 1.7-.5.7-.2 1.6-.6 2.6-1.1 0-.1.1-.2.1-.2zm2.1-2.5c.2-1.1-.4-2.4-1.4-3.5-.9 1.2-1.6 2.4-1.4 3.5.1.8.7 1.5 1.4 2 .7-.5 1.3-1.2 1.4-2zm12.5-8.6c-.3-1.5-.6-3.2-1.1-4.8-3.1 2.1-6 4-8.4 5.9-1.1.9-2.2 1.7-3.1 2.6.5.8.9 1.6 1.1 2.5.2.9.3 1.8.1 2.6-.2.8-.8 1.5-1.3 1.9-.1.1-.3.2-.4.3l.1.1c1 .5 1.9.9 2.6 1.1.7.2 1.3.4 1.7.5.4.1.6.1.6.1s.2 0 .6.1c.4 0 1 .1 1.7.1.8 0 1.7-.1 2.7-.6 1-.4 1.9-1.3 2.5-2.5.6-1.2 1-2.8 1-4.5.1-1.6-.1-3.5-.4-5.4zm-8.2-37.4c1.4 2.5 2.6 5 3.7 7.5 2.4 5.4 4.2 10.7 5.3 15.7.1.4.1.8.2 1.1l3-2.7c1.9-1.8 3.8-3.7 5-5.6.6-1 1-1.9 1-2.7 0-.8-.3-1.5-1.3-2.5-1.9-2-4.4-3.8-7-5.4-3-2.1-6.4-3.8-9.9-5.4zm-5.7 3c-1.4 2.4-2.6 4.7-3.8 7.1-1.2 2.5-2.4 5-3.4 7.4-1 2.4-2 4.8-2.9 7.1-.4 1.1-.8 2.1-1.1 3.1 3.3 3 6.3 5.9 8.8 8.7.9 1 1.7 2 2.4 3 .7-1 1.5-2 2.4-3 2.5-2.8 5.5-5.7 8.8-8.7-.4-1-.7-2.1-1.1-3.1-.9-2.3-1.9-4.6-2.9-7.1-1-2.4-2.2-4.9-3.4-7.4-1.1-2.3-2.4-4.7-3.8-7.1zm234.6 55c-1.7.7-3.6 1.3-5.4 2 1.4 1.3 2.7 2.6 3.9 3.9 1.3 1.4 2.4 2.9 3.6 4.3 1 1.5 2.1 2.9 3 4.5.9 1.5 1.7 3 2.5 4.4.7 1.5 1.4 2.9 1.9 4.3 1.2 2.8 2 5.4 2.6 7.8.6 2.4 1 4.5 1.3 6.2.5 3.5.5 5.5.5 5.5s-.1-2-.8-5.4c-.4-1.7-.9-3.8-1.6-6.1-.8-2.3-1.7-4.9-3-7.5-.6-1.4-1.4-2.7-2.2-4.1-.8-1.4-1.7-2.8-2.7-4.1-.9-1.4-2.1-2.7-3.2-4.1-1.2-1.3-2.3-2.7-3.7-3.9-1.6-1.7-3.5-3.2-5.4-4.6-3.7 1.1-7.6 2-11.7 2.6-1 .2-2 .3-3.1.4v276.1c1 .1 2.1.2 3.1.4 4.1.6 8 1.5 11.7 2.6 1.9-1.5 3.7-3 5.4-4.6 1.4-1.2 2.5-2.6 3.7-3.9 1.1-1.4 2.2-2.7 3.2-4.1 1-1.4 1.8-2.8 2.7-4.1.8-1.4 1.5-2.7 2.2-4.1 1.3-2.7 2.3-5.2 3-7.5.8-2.3 1.3-4.4 1.6-6.1.7-3.4.8-5.4.8-5.4s0 2-.5 5.5c-.3 1.7-.6 3.8-1.3 6.2-.6 2.4-1.4 5-2.6 7.8-.5 1.4-1.3 2.8-1.9 4.3-.8 1.4-1.5 3-2.5 4.4-.9 1.5-1.9 3-3 4.5-1.2 1.4-2.3 3-3.6 4.3-1.2 1.4-2.5 2.7-3.9 3.9 1.9.6 3.7 1.3 5.4 2 6.1 2.4 11.4 5.1 16 7.8.7.4 1.4.9 2.1 1.3 1-.8 2-1.5 3-2.3 3.8-3.2 6.8-6.4 9.1-9.2 2.2-2.8 3.8-5.2 4.8-6.9 1-1.7 1.4-2.6 1.4-2.6s-.3 1-1 2.8c-.8 1.8-2 4.4-4 7.6-2 3.1-4.7 6.8-8.4 10.4-.7.7-1.4 1.3-2.1 2 2.4 1.6 4.6 3.1 6.4 4.5 3 2.3 5.3 4.2 6.8 5.6 1.5 1.3 2.3 2.1 2.3 2.1s-.8-.7-2.5-1.9c-1.6-1.2-4.1-2.9-7.2-4.9-2.1-1.3-4.5-2.7-7.2-4.2-3 2.6-6.5 5.1-10.5 7.3l-2.1 1.2c-.7.4-1.5.7-2.2 1.1-.8.4-1.5.7-2.3 1.1-.8.3-1.6.6-2.4 1-1.6.7-3.3 1.2-5 1.7-1.7.6-3.5 1-5.3 1.4-7.2 1.7-15 2.5-23 2.4h-3c-1 0-2-.1-3-.2-2-.2-4.1-.2-6.1-.5-2-.2-4.1-.5-6.2-.7-2-.4-4.1-.7-6.2-1.1-2.1-.3-4.1-.9-6.2-1.3l-3.1-.7c-1-.3-2-.6-3.1-.8-2-.6-4.1-1.1-6.2-1.7l-5.9-1.9-1.5-.5h-.5v-.1l-2.1 1.8c-3.1 2.9-6.3 5.8-9.4 8.8-1.6 1.4-3.4 2.8-5.1 4.2l-1.3 1-1.3 1c-.9.6-1.8 1.3-2.7 1.9-7.1 5-14.9 8.9-22.9 11.3l-1.5.5-1.5.4c-1 .2-2 .5-3 .7-2 .5-4 .7-6 1-2 .2-4 .3-5.9.4h-4.3c-.5 0-1-.1-1.4-.1-7.6-.5-14.7-2.2-20.8-4.6-3.6-1.4-7-2.9-10-4.6-1.6 1.9-3 3.6-4.2 5.3-2.2 2.9-3.8 5.3-4.8 6.9-1 1.7-1.5 2.6-1.5 2.6s.3-1 1.1-2.8c.8-1.8 2-4.4 3.9-7.6 1-1.7 2.2-3.6 3.5-5.5-1.4-.8-2.7-1.6-4-2.4-4.5-2.9-8.1-5.8-10.9-8.2-2.9-2.5-4.9-4.6-6.3-6.1-1.4-1.5-2.1-2.3-2.1-2.3s.8.8 2.3 2.1c1.5 1.3 3.8 3.2 6.8 5.4s6.8 4.7 11.3 7.3c1.4.7 2.8 1.5 4.3 2.2.8-1.1 1.7-2.2 2.6-3.4 3.2-4 7.2-8.4 12.1-12.4 4.9-4.1 10.7-8.1 17.5-11.2 6.7-3.1 14.3-5.5 22.4-6.6 8.1-1.1 16.5-1 24.9.2 2.1.4 4.2.7 6.3 1.1 2.1.4 4.1 1 6.2 1.5 2.1.5 4.1 1.2 6.1 1.8l2.1.7v-.2h.4c4.7-3.6 9.6-6.8 14.8-9.5 7.8-4 16.1-6.6 24.3-7.8l4.8-.6V159.8c-1.6-.1-3.2-.3-4.8-.6-8.2-1.2-16.6-3.8-24.3-7.8-5.2-2.7-10.2-5.9-14.8-9.5h-.4v-.2l-2.1.7c-2.1.6-4.1 1.3-6.1 1.8-2.1.5-4.1 1.1-6.2 1.5-2.1.4-4.2.7-6.3 1.1-8.4 1.2-16.9 1.3-24.9.2-8.1-1-15.7-3.5-22.4-6.6-6.7-3.1-12.6-7.1-17.5-11.2a87.2 87.2 0 0 1-12.1-12.4c-.9-1.2-1.8-2.3-2.6-3.4-1.5.7-2.9 1.5-4.3 2.2-4.5 2.5-8.3 5-11.3 7.3-3 2.2-5.3 4.1-6.8 5.4-1.5 1.3-2.3 2.1-2.3 2.1s.7-.8 2.1-2.3c1.4-1.5 3.4-3.6 6.3-6.1 2.9-2.5 6.5-5.4 10.9-8.2 1.2-.8 2.6-1.6 4-2.4-1.4-2-2.5-3.8-3.5-5.5-1.9-3.2-3.1-5.8-3.9-7.6-.8-1.8-1.1-2.8-1.1-2.8s.5.9 1.5 2.6c1 1.7 2.6 4 4.8 6.9 1.2 1.6 2.6 3.4 4.2 5.3 3-1.7 6.4-3.2 10-4.6 6.1-2.3 13.2-4.1 20.8-4.6.5 0 1-.1 1.4-.1h4.3c2 .1 3.9.2 5.9.4 2 .3 4 .5 6 1 1 .2 2 .5 3 .7l1.5.4 1.5.5c8 2.5 15.8 6.3 22.9 11.3.9.6 1.8 1.3 2.7 1.9l1.3 1 1.3 1 5.1 4.2c3.1 2.9 6.3 5.8 9.4 8.8l2.1 1.8v-.1h.5l1.5-.5 5.9-1.9c2.1-.6 4.1-1.1 6.2-1.7 1-.3 2-.6 3.1-.8l3.1-.7c2.1-.4 4.1-1 6.2-1.3 2.1-.4 4.1-.7 6.2-1.1 2.1-.3 4.1-.5 6.2-.7 2-.3 4.1-.3 6.1-.5 1-.1 2-.1 3-.2h3c8-.1 15.8.7 23 2.4 1.8.4 3.6.8 5.3 1.4 1.7.5 3.4 1 5 1.7.8.3 1.6.6 2.4 1 .8.3 1.5.7 2.3 1.1.8.4 1.5.7 2.2 1.1l2.1 1.2c4 2.2 7.5 4.7 10.5 7.3 2.7-1.5 5.1-2.9 7.2-4.2 3.2-2 5.6-3.7 7.2-4.9 1.6-1.2 2.5-1.9 2.5-1.9s-.8.8-2.3 2.1c-1.5 1.3-3.7 3.3-6.8 5.6-1.9 1.4-4 2.9-6.4 4.5.7.7 1.4 1.3 2.1 2 3.7 3.7 6.4 7.3 8.4 10.4 2 3.1 3.2 5.8 4 7.6.8 1.8 1 2.8 1 2.8s-.4-1-1.4-2.6c-1-1.7-2.5-4.1-4.8-6.9-2.3-2.8-5.3-6-9.1-9.2-.9-.8-1.9-1.6-3-2.3-.7.4-1.4.9-2.1 1.3-4.6 2.5-9.9 5.3-16 7.6zm-90.4-17.5c-3-2.9-6.1-5.8-9.1-8.6-1.6-1.4-3.2-2.7-4.7-4l-1.2-1-1.3-.9-2.5-1.8c-1.6-1.3-3.4-2.3-5.1-3.4-1.7-1.2-3.5-2.1-5.3-3-1.7-1-3.6-1.8-5.4-2.6-1.8-.9-3.7-1.4-5.5-2.1-7.4-2.4-14.9-3.6-22.1-3.4-7.2.2-13.9 1.5-19.9 3.4-3.3 1.1-6.4 2.3-9.3 3.6.8.9 1.6 1.7 2.4 2.6 3.5 3.6 7.7 7.4 12.6 11 4.9 3.6 10.7 6.8 17.1 9.4 6.4 2.6 13.5 4.4 20.9 5.2 7.5.8 15.3.4 23.1-.8 1.9-.4 3.9-.8 5.9-1.1 1-.2 1.9-.5 2.9-.7l2.9-.7c1.2-.3 2.4-.7 3.6-1.1zm0 323.1c-1.2-.4-2.4-.8-3.6-1l-2.9-.7c-1-.2-1.9-.6-2.9-.7-2-.4-3.9-.8-5.9-1.1-7.8-1.2-15.6-1.6-23.1-.8-7.4.8-14.5 2.6-20.9 5.2-6.4 2.6-12.1 5.9-17.1 9.4-4.9 3.6-9.1 7.3-12.6 11-.8.9-1.6 1.8-2.4 2.6 2.9 1.3 6 2.5 9.3 3.6 6 1.9 12.8 3.2 19.9 3.4 7.2.2 14.7-.9 22.1-3.4 1.8-.7 3.7-1.2 5.5-2.1 1.8-.8 3.7-1.6 5.4-2.6 1.8-1 3.6-1.9 5.3-3 1.7-1.1 3.5-2.1 5.1-3.4l2.5-1.8 1.3-.9 1.2-1c1.6-1.3 3.2-2.6 4.7-4 3-3 6-5.9 9.1-8.7zm50.9-1.8c-.3.1-.6.1-.9.2-.9.2-1.9.4-2.8.7-1.9.5-3.7.7-5.5 1.1-.9.2-1.8.3-2.7.5-.9.1-1.8.2-2.6.3-1.5.2-3 .4-4.4.5.7.2 1.4.3 2.1.4 5.7 1.2 11.4 2.1 17 2.6v-6.3zm0-17.1c-1.3.2-2.7.3-4 .6-7.7 1.3-15.4 4-22.6 7.8-3.1 1.6-6.1 3.4-8.9 5.4.9.1 1.9.1 2.9.1 2.4.1 5 .3 8 .2h4.6c1.6-.1 3.2-.2 4.9-.3.8-.1 1.7-.1 2.5-.2.9-.1 1.7-.2 2.6-.3 1.7-.2 3.6-.3 5.3-.7.9-.2 1.8-.3 2.7-.5.7-.1 1.4-.2 2.1-.4v-11.7zm0-297.1c-.7-.1-1.4-.3-2.1-.4-.9-.2-1.8-.3-2.7-.5-1.8-.4-3.6-.5-5.3-.7-.9-.1-1.7-.2-2.6-.3-.9-.1-1.7-.1-2.5-.2-1.7-.1-3.3-.2-4.9-.3H468c-2.9-.1-5.6.1-8 .2-1 .1-2 .1-2.9.1 2.9 2 5.9 3.8 8.9 5.4 7.3 3.8 14.9 6.5 22.6 7.8 1.3.2 2.7.4 4 .6v-11.7zm0-11.7c-5.6.5-11.3 1.4-17 2.6-.7.1-1.4.3-2.1.4 1.4.2 2.9.3 4.4.5.9.1 1.8.2 2.6.3.9.2 1.8.3 2.7.5 1.8.3 3.7.6 5.5 1.1.9.2 1.9.4 2.8.7.3.1.6.1.9.2v-6.3zM505.9 453c-1.8.8-3.7 1.5-5.6 2.1-.2.1-.5.2-.7.2v8.9c2.1.1 4.2.1 6.3.1V453zm0-13.2c-2.1-.1-4.1-.1-6.3 0v10.6c2.1-.6 4.2-1.3 6.3-2.1v-8.5zm0-279.9c-2.1.2-4.1.3-6.3.3v275c2.1 0 4.2.1 6.3.3V159.9zm0-12.9c-2.1-.8-4.2-1.5-6.3-2.1v10.6c2.1.1 4.2.1 6.3 0V147zm0-16c-2.1 0-4.1 0-6.3.1v8.9c.2.1.5.2.7.2 1.9.7 3.7 1.4 5.6 2.1V131zm16 312.8c-1.6 1.2-3.3 2.4-5 3.5-.9.5-1.7 1.1-2.6 1.6l-2.7 1.4c-1 .5-1.9 1-2.9 1.4v12.5c4.1-.2 8.2-.6 12-1.3 6.8-1.2 13.1-3.2 18.6-5.7 3.4-1.6 6.4-3.3 9.2-5.2-.4-.2-.9-.5-1.3-.7-4.6-2.3-10-4.7-16.1-6.7-2.4-.8-4.9-1.5-7.6-2.2-.5.5-1 .9-1.6 1.4zm-13.2-3.8v7.2c.4-.2.8-.3 1.2-.5l2.7-1.2c.9-.4 1.7-.9 2.6-1.4 1.5-.8 2.9-1.7 4.3-2.6-2.7-.5-5.4-1-8.2-1.3-.9-.1-1.8-.1-2.6-.2zm10.7-286.3c-1.4-.9-2.8-1.8-4.3-2.6-.9-.5-1.7-.9-2.6-1.4l-2.7-1.2c-.4-.2-.8-.3-1.2-.5v7.2c.8-.1 1.7-.1 2.5-.2 2.9-.3 5.6-.7 8.3-1.3zm11.7-3.1c6-2 11.4-4.4 16.1-6.7.4-.2.9-.5 1.3-.7-2.8-1.9-5.8-3.6-9.2-5.2-5.5-2.5-11.8-4.5-18.6-5.7-3.9-.7-7.9-1.1-12-1.3v12.5c1 .5 2 .9 2.9 1.4l2.7 1.4c.9.5 1.7 1.1 2.6 1.6 1.8 1 3.4 2.3 5 3.5.5.4 1.1.9 1.6 1.3 2.7-.5 5.2-1.3 7.6-2.1zm-17 13.3c-1 0-1.8.8-1.8 1.8s.8 1.8 1.8 1.8 1.8-.8 1.8-1.8c0-.9-.8-1.8-1.8-1.8zm-122-53c-1.1 0-2.1.9-2.1 2.1 0 1.1.9 2.1 2.1 2.1 1.1 0 2.1-.9 2.1-2.1 0-1.2-.9-2.1-2.1-2.1zM236.6 489.5c-6.1 2.3-13.2 4.1-20.8 4.6-.5 0-1 .1-1.4.1h-4.3c-2-.1-3.9-.2-5.9-.4-2-.3-4-.5-6-1-1-.2-2-.5-3-.7l-1.5-.4-1.5-.5c-8-2.5-15.8-6.3-22.9-11.3-.9-.6-1.8-1.3-2.7-1.9l-1.3-1-1.3-1-5.1-4.2c-3.1-2.9-6.3-5.8-9.4-8.8l-2.1-1.8v.1h-.5l-1.5.5-5.9 1.9c-2.1.6-4.1 1.1-6.2 1.7-1 .3-2 .6-3.1.8l-3.1.7c-2.1.4-4.1 1-6.2 1.3-2.1.4-4.1.7-6.2 1.1-2.1.3-4.1.5-6.2.7-2 .3-4.1.3-6.1.5-1 .1-2 .1-3 .2h-3c-8 .1-15.8-.7-23-2.4-1.8-.4-3.6-.8-5.3-1.4-1.7-.5-3.4-1-5-1.7-.8-.3-1.6-.6-2.4-1-.8-.3-1.5-.7-2.3-1.1-.8-.4-1.5-.7-2.2-1.1l-2.1-1.2c-4-2.2-7.5-4.7-10.5-7.3-2.7 1.5-5.1 2.9-7.2 4.2-3.2 2-5.6 3.7-7.2 4.9-1.6 1.2-2.5 1.9-2.5 1.9s.8-.8 2.3-2.1c1.5-1.3 3.7-3.3 6.8-5.6 1.9-1.4 4-2.9 6.4-4.5-.7-.7-1.4-1.3-2.1-2-3.7-3.7-6.4-7.3-8.4-10.4-2-3.1-3.2-5.8-4-7.6-.8-1.8-1-2.8-1-2.8s.4 1 1.4 2.6c1 1.7 2.5 4.1 4.8 6.9 2.3 2.8 5.3 6 9.1 9.2.9.8 1.9 1.5 3 2.3.7-.4 1.4-.9 2.1-1.3 4.6-2.7 9.9-5.4 16-7.8 1.7-.7 3.6-1.3 5.4-2a71.7 71.7 0 0 1-3.9-3.9c-1.3-1.4-2.4-2.9-3.6-4.3-1-1.5-2.1-2.9-3-4.5-.9-1.5-1.7-3-2.5-4.4-.7-1.5-1.4-2.9-1.9-4.3-1.2-2.8-2-5.4-2.6-7.8-.6-2.4-1-4.5-1.3-6.2-.5-3.5-.5-5.5-.5-5.5s.1 2 .8 5.4c.4 1.7.9 3.8 1.6 6.1.8 2.3 1.7 4.9 3 7.5.6 1.4 1.4 2.7 2.2 4.1.8 1.4 1.7 2.8 2.7 4.1.9 1.4 2.1 2.7 3.2 4.1 1.2 1.3 2.3 2.7 3.7 3.9 1.6 1.7 3.5 3.2 5.4 4.6 3.7-1.1 7.6-2 11.7-2.6 1-.2 2-.3 3.1-.4V159.6c-1-.1-2.1-.2-3.1-.4-4.1-.6-8-1.5-11.7-2.6-1.9 1.5-3.7 3-5.4 4.6-1.4 1.2-2.5 2.6-3.7 3.9-1.1 1.4-2.2 2.7-3.2 4.1-1 1.4-1.8 2.8-2.7 4.1-.8 1.4-1.5 2.7-2.2 4.1-1.3 2.7-2.3 5.2-3 7.5-.8 2.3-1.3 4.4-1.6 6.1-.7 3.4-.8 5.4-.8 5.4s0-2 .5-5.5c.3-1.7.6-3.8 1.3-6.2.6-2.4 1.4-5 2.6-7.8.5-1.4 1.3-2.8 1.9-4.3.8-1.4 1.5-3 2.5-4.4.9-1.5 1.9-3 3-4.5 1.2-1.4 2.3-3 3.6-4.3 1.2-1.4 2.5-2.7 3.9-3.9-1.9-.6-3.7-1.3-5.4-2-6.1-2.4-11.4-5.1-16-7.8-.7-.4-1.4-.9-2.1-1.3-1 .8-2 1.5-3 2.3-3.8 3.2-6.8 6.4-9.1 9.2-2.2 2.8-3.8 5.2-4.8 6.9-1 1.7-1.4 2.6-1.4 2.6s.3-1 1-2.8c.8-1.8 2-4.4 4-7.6 2-3.1 4.7-6.8 8.4-10.4.7-.7 1.4-1.3 2.1-2-2.4-1.6-4.6-3.1-6.4-4.5-3-2.3-5.3-4.2-6.8-5.6-1.5-1.3-2.3-2.1-2.3-2.1s.8.7 2.5 1.9c1.6 1.2 4.1 2.9 7.2 4.9 2.1 1.3 4.5 2.7 7.2 4.2 3-2.6 6.5-5.1 10.5-7.3l2.1-1.2c.7-.4 1.5-.7 2.2-1.1.8-.4 1.5-.7 2.3-1.1.8-.3 1.6-.6 2.4-1 1.6-.7 3.3-1.2 5-1.7 1.7-.6 3.5-1 5.3-1.4 7.2-1.7 15-2.5 23-2.4h3c1 0 2 .1 3 .2 2 .1 4.1.2 6.1.5 2 .2 4.1.5 6.2.7 2 .4 4.1.7 6.2 1.1 2.1.3 4.1.9 6.2 1.3l3.1.7c1 .3 2 .6 3.1.8 2 .6 4.1 1.1 6.2 1.7l5.9 1.9 1.5.5h.5v.1l2.1-1.8c3.1-2.9 6.3-5.8 9.4-8.8 1.6-1.4 3.4-2.8 5.1-4.2l1.3-1 1.3-1c.9-.6 1.8-1.3 2.7-1.9 7.1-5 14.9-8.9 22.9-11.3l1.5-.5 1.5-.4c1-.2 2-.5 3-.7 2-.5 4-.7 6-1 2-.2 4-.3 5.9-.4h4.3c.5 0 1 .1 1.4.1 7.6.5 14.7 2.2 20.8 4.6 3.6 1.4 7 2.9 10 4.6 1.6-1.9 3-3.6 4.2-5.3 2.2-2.9 3.8-5.3 4.8-6.9 1-1.7 1.5-2.6 1.5-2.6s-.3 1-1.1 2.8c-.8 1.8-2 4.4-3.9 7.6-1 1.7-2.2 3.6-3.5 5.5 1.4.8 2.7 1.6 4 2.4 4.5 2.9 8.1 5.8 10.9 8.2 2.9 2.5 4.9 4.6 6.3 6.1 1.4 1.5 2.1 2.3 2.1 2.3s-.8-.8-2.3-2.1c-1.5-1.3-3.8-3.2-6.8-5.4s-6.8-4.7-11.3-7.3c-1.4-.7-2.8-1.5-4.3-2.2-.8 1.1-1.7 2.2-2.6 3.4-3.2 4-7.2 8.4-12.1 12.4-4.9 4.1-10.7 8.1-17.5 11.2-6.7 3.1-14.3 5.5-22.4 6.6-8.1 1.1-16.5 1-24.9-.2-2.1-.4-4.2-.7-6.3-1.1-2.1-.4-4.1-1-6.2-1.5-2.1-.5-4.1-1.2-6.1-1.8l-2.1-.7v.2h-.4c-4.7 3.6-9.6 6.8-14.8 9.5-7.8 4-16.1 6.6-24.3 7.8l-4.8.6v275.6c1.6.1 3.2.3 4.8.6 8.2 1.2 16.6 3.8 24.3 7.8 5.2 2.7 10.2 5.9 14.8 9.5h.4v.2l2.1-.7c2.1-.6 4.1-1.3 6.1-1.8 2.1-.5 4.1-1.1 6.2-1.5 2.1-.4 4.2-.7 6.3-1.1 8.4-1.2 16.9-1.3 24.9-.2 8.1 1 15.7 3.5 22.4 6.6 6.7 3.1 12.6 7.1 17.5 11.2s8.9 8.4 12.1 12.4c.9 1.2 1.8 2.3 2.6 3.4 1.5-.7 2.9-1.5 4.3-2.2 4.5-2.5 8.3-5 11.3-7.3 3-2.2 5.3-4.1 6.8-5.4 1.5-1.3 2.3-2.1 2.3-2.1s-.7.8-2.1 2.3c-1.4 1.5-3.4 3.6-6.3 6.1-2.9 2.5-6.5 5.4-10.9 8.2-1.2.8-2.6 1.6-4 2.4 1.4 2 2.5 3.8 3.5 5.5 1.9 3.2 3.1 5.8 3.9 7.6.8 1.8 1.1 2.8 1.1 2.8s-.5-.9-1.5-2.6c-1-1.7-2.6-4-4.8-6.9-1.2-1.6-2.6-3.4-4.2-5.3-3 2-6.3 3.6-10 4.9zm-83.1-353.4c1.2.4 2.4.8 3.6 1l2.9.7c1 .2 1.9.6 2.9.7 2 .4 3.9.8 5.9 1.1 7.8 1.2 15.6 1.6 23.1.8 7.4-.8 14.5-2.6 20.9-5.2 6.4-2.6 12.1-5.9 17.1-9.4 4.9-3.6 9.1-7.3 12.6-11 .8-.9 1.6-1.8 2.4-2.6-2.9-1.3-6-2.5-9.3-3.6-6-1.9-12.8-3.2-19.9-3.4-7.2-.2-14.7.9-22.1 3.4-1.8.7-3.7 1.2-5.5 2.1-1.8.8-3.7 1.6-5.4 2.6-1.8 1-3.6 1.9-5.3 3-1.7 1.1-3.5 2.1-5.1 3.4l-2.5 1.8-1.3.9-1.2 1c-1.6 1.3-3.2 2.6-4.7 4-3 3-6 5.8-9.1 8.7zm-50.9 1.8c.3-.1.6-.1.9-.2.9-.2 1.9-.4 2.8-.7 1.9-.5 3.7-.7 5.5-1.1.9-.2 1.8-.3 2.7-.5.9-.1 1.8-.2 2.6-.3 1.5-.2 3-.4 4.4-.5-.7-.2-1.4-.3-2.1-.4-5.7-1.2-11.4-2.1-17-2.6v6.3zm0 17.1c1.3-.2 2.7-.3 4-.6 7.7-1.3 15.4-4 22.6-7.8 3.1-1.6 6.1-3.4 8.9-5.4-.9-.1-1.9-.1-2.9-.1-2.4-.1-5-.3-8-.2h-4.6c-1.6.1-3.2.2-4.9.3-.8.1-1.7.1-2.5.2-.9.1-1.7.2-2.6.3-1.7.2-3.6.3-5.3.7-.9.2-1.8.3-2.7.5-.7.1-1.4.2-2.1.4V155zm-16 296.7c-1-.5-2-.9-2.9-1.4l-2.7-1.4c-.9-.5-1.7-1.1-2.6-1.6-1.8-1-3.4-2.3-5-3.5-.5-.4-1.1-.9-1.6-1.3-2.6.7-5.1 1.4-7.6 2.2-6 2-11.4 4.4-16.1 6.7-.4.2-.9.5-1.3.7 2.8 1.9 5.8 3.6 9.2 5.2 5.5 2.5 11.8 4.5 18.6 5.7 3.9.7 7.9 1.1 12 1.3v-12.6zm0-11.7c-.8.1-1.7.1-2.5.2-2.8.3-5.5.8-8.2 1.3 1.4.9 2.8 1.8 4.3 2.6.9.5 1.7.9 2.6 1.4l2.7 1.2c.4.2.8.3 1.2.5V440zm0-291.9c-.4.2-.8.3-1.2.5l-2.7 1.2c-.9.4-1.7.9-2.6 1.4-1.5.8-2.9 1.7-4.3 2.6 2.7.5 5.4 1 8.2 1.3.8.1 1.7.2 2.5.2v-7.2zm0-17c-4.1.2-8.2.6-12 1.3-6.8 1.2-13.1 3.2-18.6 5.7-3.4 1.6-6.4 3.3-9.2 5.2.4.2.9.5 1.3.7 4.6 2.3 10 4.7 16.1 6.7 2.4.8 4.9 1.5 7.6 2.2.5-.4 1.1-.9 1.6-1.3 1.6-1.2 3.3-2.4 5-3.5.9-.5 1.7-1.1 2.6-1.6l2.7-1.4c1-.5 1.9-1 2.9-1.4v-12.6zm9 324.2c-.2-.1-.5-.2-.7-.2-1.9-.7-3.7-1.4-5.6-2.1v11.3c2.1 0 4.1 0 6.3-.1v-8.9zm0-15.5c-2.1-.1-4.2-.1-6.3 0v8.5c2.1.8 4.2 1.5 6.3 2.1v-10.6zm0-279.7c-2.1 0-4.2-.1-6.3-.3v275.6c2.1-.2 4.1-.3 6.3-.3v-275zm0-15.2c-2.1.6-4.2 1.3-6.3 2.1v8.5c2.1.1 4.1.1 6.3 0v-10.6zm0-13.9c-2.1-.1-4.2-.1-6.3-.1v11.3c1.8-.8 3.7-1.5 5.6-2.1.2-.1.5-.2.7-.2V131zm26 329.7c-1.4-.2-2.9-.3-4.4-.5-.9-.1-1.8-.2-2.6-.3-.9-.2-1.8-.3-2.7-.5-1.8-.3-3.7-.6-5.5-1.1-.9-.2-1.9-.4-2.8-.7-.3-.1-.6-.1-.9-.2v6.4c5.6-.5 11.3-1.4 17-2.6.5-.2 1.2-.3 1.9-.5zm16.6-6.7c-2.9-2-5.9-3.8-8.9-5.4-7.3-3.8-14.9-6.5-22.6-7.8-1.3-.2-2.7-.4-4-.6V452c.7.1 1.4.3 2.1.4.9.2 1.8.3 2.7.5 1.8.4 3.6.5 5.3.7.9.1 1.7.2 2.6.3.9.1 1.7.1 2.5.2 1.7.1 3.3.2 4.9.3h4.6c2.9.1 5.6-.1 8-.2.9-.1 1.8-.1 2.8-.2zm97.4 32.5c3.3-1.1 6.4-2.3 9.3-3.6-.8-.9-1.6-1.7-2.4-2.6-3.5-3.6-7.7-7.4-12.6-11-4.9-3.6-10.7-6.8-17.1-9.4-6.4-2.6-13.5-4.4-20.9-5.2-7.5-.8-15.3-.4-23.1.8-1.9.4-3.9.8-5.9 1.1-1 .2-1.9.5-2.9.7l-2.9.7c-1.2.3-2.4.7-3.6 1 3 2.9 6.1 5.8 9.1 8.6 1.6 1.4 3.2 2.7 4.7 4l1.2 1 1.3.9 2.5 1.8c1.6 1.3 3.4 2.3 5.1 3.4 1.7 1.1 3.5 2.1 5.3 3 1.7 1 3.6 1.8 5.4 2.6 1.8.9 3.7 1.4 5.5 2.1 7.4 2.5 14.9 3.6 22.1 3.4 7.1-.1 13.9-1.4 19.9-3.3zM81.2 167.6c1 0 1.8-.8 1.8-1.8s-.8-1.8-1.8-1.8-1.8.8-1.8 1.8c-.1 1 .8 1.8 1.8 1.8zm0 263.7c1 0 1.8-.8 1.8-1.8s-.8-1.8-1.8-1.8-1.8.8-1.8 1.8c-.1 1 .8 1.8 1.8 1.8zM218.4 481c-1 0-1.8.8-1.8 1.8s.8 1.8 1.8 1.8 1.8-.8 1.8-1.8-.8-1.8-1.8-1.8zm15-2.6c-.8 0-1.5.7-1.5 1.5s.7 1.5 1.5 1.5 1.5-.7 1.5-1.5-.7-1.5-1.5-1.5zm-30.2 1.9c-1.1 0-2.1.9-2.1 2.1s.9 2.1 2.1 2.1c1.1 0 2.1-.9 2.1-2.1s-1-2.1-2.1-2.1zm-91.7-317.5c-1.2 0-2.2 1-2.2 2.2 0 1.2 1 2.2 2.2 2.2 1.2 0 2.2-1 2.2-2.2.1-1.2-.9-2.2-2.2-2.2zM126 432.7c-1.3 0-2.4 1.1-2.4 2.4 0 1.3 1.1 2.4 2.4 2.4 1.3 0 2.4-1.1 2.4-2.4 0-1.4-1.1-2.4-2.4-2.4zm13.4 7.3c-1.4 0-2.4 1.1-2.4 2.4 0 1.4 1.1 2.4 2.4 2.4 1.4 0 2.4-1.1 2.4-2.4 0-1.3-1.1-2.4-2.4-2.4zM126 157.8c-1.3 0-2.4 1.1-2.4 2.4 0 1.3 1.1 2.4 2.4 2.4 1.3 0 2.4-1.1 2.4-2.4 0-1.3-1.1-2.4-2.4-2.4zm13.4-7.4c-1.4 0-2.4 1.1-2.4 2.4 0 1.4 1.1 2.4 2.4 2.4 1.4 0 2.4-1.1 2.4-2.4 0-1.3-1.1-2.4-2.4-2.4zm49 325.7c-1.2 0-2.2 1-2.2 2.2 0 1.2 1 2.2 2.2 2.2 1.2 0 2.2-1 2.2-2.2.1-1.2-.9-2.2-2.2-2.2zm218.5 0c-1.2 0-2.2 1-2.2 2.2 0 1.2 1 2.2 2.2 2.2 1.2 0 2.2-1 2.2-2.2 0-1.2-1-2.2-2.2-2.2zm13.6-354.7c-1.3 0-2.4 1.1-2.4 2.4 0 1.3 1.1 2.4 2.4 2.4 1.3 0 2.4-1.1 2.4-2.4 0-1.3-1.1-2.4-2.4-2.4zm0 347.7c-1.3 0-2.4 1.1-2.4 2.4s1.1 2.4 2.4 2.4c1.3 0 2.4-1.1 2.4-2.4s-1.1-2.4-2.4-2.4zm9.8-336.2c0 1.4 1.1 2.4 2.4 2.4 1.4 0 2.4-1.1 2.4-2.4s-1.1-2.4-2.4-2.4c-1.3-.1-2.4 1-2.4 2.4zm2.5 327c-1.4 0-2.4 1.1-2.4 2.4 0 1.4 1.1 2.4 2.4 2.4 1.4 0 2.4-1.1 2.4-2.4 0-1.3-1.1-2.4-2.4-2.4zm-40.7 20.4c-1.1 0-2.1.9-2.1 2.1s.9 2.1 2.1 2.1c1.1 0 2.1-.9 2.1-2.1s-.9-2.1-2.1-2.1zm-217.3-11.2c-1.3 0-2.4 1.1-2.4 2.4s1.1 2.4 2.4 2.4c1.3 0 2.4-1.1 2.4-2.4s-1.1-2.4-2.4-2.4zm-12.3-9.2c-1.4 0-2.4 1.1-2.4 2.4 0 1.4 1.1 2.4 2.4 2.4 1.4 0 2.4-1.1 2.4-2.4.1-1.3-1-2.4-2.4-2.4zm199.4 18.5c-.8 0-1.5.7-1.5 1.5s.7 1.5 1.5 1.5 1.5-.7 1.5-1.5-.7-1.5-1.5-1.5zm15 2.6c-1 0-1.8.8-1.8 1.8s.8 1.8 1.8 1.8 1.8-.8 1.8-1.8-.8-1.8-1.8-1.8z"/></svg>