<svg xmlns="http://www.w3.org/2000/svg" viewBox="0 0 64 64"><linearGradient id="a" gradientUnits="userSpaceOnUse" x1="32" y1="13" x2="32" y2="51.395" spreadMethod="reflect"><stop offset="0" stop-color="#1a6dff"/><stop offset="1" stop-color="#c822ff"/></linearGradient><path d="M59 40v-7c0-1.654-1.346-3-3-3h-5.304a.998.998 0 0 1-.988-.837l-1.443-8.656a2.984 2.984 0 0 0-.321-.926l-.679-4.072A2.992 2.992 0 0 0 44.305 13H8c-1.654 0-3 1.346-3 3v24c-1.103 0-2 .897-2 2v2c0 1.103.897 2 2 2h7.09c.478 2.833 2.942 5 5.91 5s5.431-2.167 5.91-5h16.18c.478 2.833 2.942 5 5.91 5s5.431-2.167 5.91-5H59c1.103-.002 2-.9 2-2.003v-1.992A2.007 2.007 0 0 0 59 40zM8 15h36.305c.491 0 .906.352.987.837l.366 2.194c-.117-.013-.232-.031-.352-.031H8c-.352 0-.686.072-1 .184V16a1 1 0 0 1 1-1zM7 40h2v4H7v-4zm11 9c-2.206 0-4-1.794-4-4s1.794-4 4-4 4 1.794 4 4-1.794 4-4 4zm28 0c-2.206 0-4-1.794-4-4s1.794-4 4-4 4 1.794 4 4-1.794 4-4 4zm0-10c-2.967 0-5.431 2.167-5.91 5H23.91c-.478-2.833-2.942-5-5.91-5s-5.431 2.167-5.91 5H11v-4c0-1.103-.897-2-2-2H7V21a1 1 0 0 1 1-1h37.306c.491 0 .906.352.986.835l1.443 8.656A2.993 2.993 0 0 0 50.696 32H56a1 1 0 0 1 1 1v5h-2c-1.103 0-2 .897-2 2v4h-1.09c-.479-2.833-2.943-5-5.91-5zm11 5h-2v-4h2v4z" fill="url(#a)"/><linearGradient id="b" gradientUnits="userSpaceOnUse" x1="33" y1="13" x2="33" y2="51.395" spreadMethod="reflect"><stop offset="0" stop-color="#1a6dff"/><stop offset="1" stop-color="#c822ff"/></linearGradient><path d="M42.134 22H23c-1.103 0-2 .897-2 2v6c0 1.103.897 2 2 2h20c1.103 0 2-.897 2-2l-.888-6.284A2.007 2.007 0 0 0 42.134 22zM36 24v6h-6v-6h6zm-13.002 0H28v6h-5l-.002-6zM38 30v-6h4.132l.858 6H38z" fill="url(#b)"/><linearGradient id="c" gradientUnits="userSpaceOnUse" x1="14" y1="13" x2="14" y2="51.395" spreadMethod="reflect"><stop offset="0" stop-color="#1a6dff"/><stop offset="1" stop-color="#c822ff"/></linearGradient><path d="M17 22h-6c-1.103 0-2 .897-2 2v6c0 1.103.897 2 2 2h6c1.103 0 2-.897 2-2v-6c0-1.103-.897-2-2-2zm0 2v2h-6v-2h6zm-6 6v-2h6v2h-6z" fill="url(#c)"/><linearGradient id="d" gradientUnits="userSpaceOnUse" x1="38" y1="13" x2="38" y2="51.395" spreadMethod="reflect"><stop offset="0" stop-color="#1a6dff"/><stop offset="1" stop-color="#c822ff"/></linearGradient><rect x="36" y="34" width="4" height="2" fill="url(#d)"/><linearGradient id="e" gradientUnits="userSpaceOnUse" x1="46" y1="42.5" x2="46" y2="47.5" spreadMethod="reflect"><stop offset="0" stop-color="#6dc7ff"/><stop offset="1" stop-color="#e6abff"/></linearGradient><circle cx="46" cy="45" r="2" fill="url(#e)"/><linearGradient id="f" gradientUnits="userSpaceOnUse" x1="18" y1="42.5" x2="18" y2="47.5" spreadMethod="reflect"><stop offset="0" stop-color="#6dc7ff"/><stop offset="1" stop-color="#e6abff"/></linearGradient><circle cx="18" cy="45" r="2" fill="url(#f)"/></svg>