<svg id="Layer" xmlns="http://www.w3.org/2000/svg" viewBox="0 0 595.3 595.3"><style>.st0{fill:#1f1a17}</style><path class="st0" d="M95 107.3c2.7 3.5 7.4 6.5 14 6.7 5.2.2 9.4-2 13-5 .7.4 1.3.8 2 1.2-1.2.9-2.8 1.9-4.9 2.6-.4.1-.6.6-.5 1 .1.4.6.6 1 .5 2.7-1 4.5-2.2 6-3.4 1.1.4 2.1.6 2.9.6 1.9-.1 3-.9 3.5-1.8.2-.4.3-.9.3-1.3 0-.5-.2-.9-.6-1.2-.5-.5-1.5-.8-2.6-.4-1.4.4-2.5 1.3-3.8 2.3-.7-.3-1.4-.7-2.1-1.2 2.5-2.4 4.8-5.1 7.1-7.9 3.1-3.8 6.2-7.5 9.6-9.8 5.4-3.6 8.2-3.8 11.7-4.1 2.8-.2 6-.5 11.2-2.5l3.4-1.3-3.6-.3c-3.7-.3-7-.8-9.8-1.2-7.5-1.1-12.2-1.8-15.5 2.4-.4-1.4-1.5-3-4.1-3.4-.1 0-.3 0-.6-.1-1.7-.2-4.9-.5-8-2.8l-1.1-.8-.2 1.3c-.5 3.7 1 5.9 2.4 7.9.2.3.5.7.7 1-.5-.3-1.1-.6-1.8-.7l-1-.2v1c0 2.1-.8 3.7-1.5 5.1-1.1 2.2-2 4-.2 6.4.4.6 1 1 1.6 1.2.7.2 1.4.3 2.2.1.8-.2 1.5-.6 2.3-1.1 1.6-1.2 3.1-3.2 4.1-6.2.6-1.8.7-3.5.3-4.9-.4-1.6-1.2-2.9-2.4-3.5-.4-.2-.9 0-1.1.4-.2.4 0 .9.4 1.1.7.4 1.3 1.2 1.5 2.4.3 1.2.2 2.6-.3 4.1-.9 2.7-2.2 4.5-3.5 5.5-.6.4-1.2.7-1.7.9-.5.1-1 .1-1.4 0-.3-.1-.6-.3-.9-.6-1.2-1.6-.5-3 .3-4.7.7-1.3 1.4-2.8 1.6-4.7.5.2.9.6 1 1.1.3.8.2 2.1-.1 3.9l-.7 3.8 2.2-3.2c2.7-4 1.2-6.2-.5-8.6-1-1.5-2.2-3.1-2.2-5.5 3 1.8 5.9 2.1 7.6 2.3.2 0 .3 0 .5.1 3.3.4 3 4 3 4l-.4 4 1.9-3.5c2.9-5.3 7.3-4.7 15.1-3.5 1.8.3 3.9.6 6.1.8-3 .8-5.2 1-7.2 1.2-3.7.3-6.7.6-12.4 4.4-3.7 2.4-6.8 6.2-10 10.1-2.3 2.8-4.6 5.6-7.2 8-.2-.1-.3-.3-.5-.4-1-.8-2-1.7-2.9-2.6 1.3-1.9 1.8-3.9 1.2-5.5-.7-2-1.7-3-2.6-3.4-.5-.2-1-.2-1.5 0-.4.2-.8.5-1.1.9-.6 1-.8 2.6-.2 4.5.3 1.1 1.1 2.3 2.1 3.5-1 1.1-2.2 2.2-3.6 3-1.6 1-3.4 1.7-5.2 1.9-2.2.2-4.5-.3-6.2-2.3-.3-.3-.8-.4-1.1-.1-.3.3-.4.8-.1 1.1 2.1 2.3 4.8 3.1 7.6 2.8 2-.2 4.1-1 5.9-2.1 1.5-.9 2.8-2 3.8-3.2.9.9 1.9 1.8 2.9 2.6.1.1.2.1.3.2-3.3 2.7-7 4.5-11.6 4.4-6.1-.2-10.4-2.8-12.8-6-.8-1.1-1.5-2.3-1.9-3.4-.4-1.1-.6-2.2-.6-3.2 0-1.5.6-2.8 1.6-3.5 4.2-3.2 6.8.6 6.9.7.3.4.8.4 1.1.2.4-.3.4-.8.2-1.1 0 0-3.5-5.3-9.1-1-1.4 1.1-2.1 2.8-2.2 4.8 0 1.2.2 2.5.6 3.8.8.9 1.5 2.2 2.4 3.4zm34.6 1c.5-.2.9-.1 1.1.1.1.1.1.1.1.2s0 .2-.1.4c-.3.5-.9.9-2.1.9-.4 0-.9 0-1.4-.2.8-.6 1.5-1.2 2.4-1.4zm-12.2-5.7c-.7-.9-1.3-1.9-1.5-2.7-.4-1.4-.3-2.5.1-3.1.1-.2.2-.3.3-.3h.3c.5.2 1.1.9 1.7 2.4.3 1.1 0 2.4-.9 3.7zm42.4-9.6c-.5.8-.8 1.8-.9 2.9-.1.4.3.8.7.9.4.1.8-.3.9-.7.1-.9.4-1.6.7-2.3.8-1.5 2.2-2.6 3.8-3.2.7-.3 1.5-.5 2.2-.6.1 3.2 1.7 4.4 3.3 4.5.7 0 1.4-.1 2-.4.6-.3 1.1-.8 1.4-1.4.6-1.2.4-2.6-1.5-3.6-.7-.4-1.6-.6-2.5-.7-.4 0-.7-.1-1.1-.1.6-4.6 5-4.8 9.7-5 4.4-.2 9-.4 11.4-4 .2 1.8-.3 3.5-1.4 5.1-1.5 2.2-4.2 4.1-7.2 6l-5.2 3.2 5.8-1.7c5-1.4 7.9-4.3 10.4-6.7 2.5-2.4 4.6-4.4 7.8-4.2 3.3.8 7.4-.7 10.2-2-5 6.1-13.6 11.3-23.1 15-13.3 5.3-28.3 7.9-37.6 7-.8-.1-1.7-.2-2.4-.3 1.4-1.3 3.2-2.4 6-2.7l1.5-.2-.9-1.1c-1.2-1.4-3.4-2.5-6.5-2.7h-.7c2.4-1.2 4-2.4 5.3-3.4 2.3-1.7 4.1-3 9.1-3.9.4-.1.7-.5.7-.9-.1-.4-.5-.7-.9-.7-5.4.9-7.3 2.4-9.8 4.2-2.2 1.6-4.8 3.6-11 5.8-.5.2-1.1.3-1.6.6l.5 1.5c.6-.2 1.1-.4 1.6-.5 2.7-.8 4.9-1.1 6.8-1 1.8.1 3.1.5 4.1 1.1-2.9.7-4.7 2.1-6.1 3.8-7.2-.9-10.6-1.2-12.3 4.9-.3.9-.2 1.9.2 2.9.3.8.8 1.5 1.5 2.1.7.6 1.5.9 2.5.9.9 0 1.8-.3 2.8-.9 2.1-1.4 3.2-3.4 4.4-5.4.5-.9 1.1-1.9 1.7-2.7 1.1.1 2.2.3 3.5.4 9.5.9 24.8-1.7 38.3-7.1 11.2-4.4 21.2-10.8 25.9-18.5l1.8-3-2.9 1.9s-7.2 4.7-12.1 3.5h-.2c-4-.3-6.3 2-9.1 4.6-.5.5-.9.9-1.5 1.4 1.8-2.5 2.4-5.3 1.1-8.6l-.8-2-.7 2.1c-1.5 4.5-6.3 4.7-11 4.9-5.4.2-10.6.5-11.2 6.7-1 .1-2 .4-2.9.8-1.8.3-3.5 1.6-4.5 3.5zm-16.9 10.8c-1.1 1.9-2.1 3.7-3.9 4.9-.7.5-1.3.7-1.8.6-.6 0-1.1-.2-1.5-.6-.4-.4-.8-.9-1-1.4-.2-.6-.3-1.3-.2-1.8 1.3-4.6 4-4.5 9.7-3.9-.4.8-.9 1.5-1.3 2.2zm27-14c.8.1 1.4.3 1.9.6.9.5 1 1 .8 1.4-.2.3-.4.5-.8.7-.4.2-.8.3-1.2.3-.9-.1-1.8-.9-1.9-3 .5-.1.9-.1 1.2 0zm-11.8 15c.3-.2.8-.1 1 .3.2.3.1.8-.3 1-.1 0-.1.1-.1.1 0 .1.1.3.4.6.4.4.9.8 1.7 1.2 2.8 1.5 7.6 2.8 11.9 1.9 6-1.3 11.1-.4 13.2.1-.3-2.2-1.5-7.5-6.2-8.2-.4-.1-.7-.4-.6-.8.1-.4.4-.7.8-.6 7.3 1.1 7.5 10.5 7.5 10.6v1l-1-.3s-6-2-13.5-.4c-4.7 1-9.9-.4-12.9-2-.8-.5-1.5-1-2-1.4-.6-.6-.9-1.2-.8-1.8.1-.6.3-1 .9-1.3zM496.6 122c-.6.4-1 1-1.2 1.6-.2.7-.3 1.4-.1 2.2.2.8.6 1.5 1.1 2.3 1.2 1.6 3.2 3.1 6.2 4.1 1.8.6 3.5.7 4.9.3 1.6-.4 2.9-1.2 3.5-2.4.2-.4 0-.9-.4-1.1-.4-.2-.9 0-1.1.4-.4.7-1.2 1.3-2.4 1.5-1.2.2-2.6.2-4.1-.3-2.7-.9-4.5-2.2-5.5-3.5-.4-.6-.7-1.2-.9-1.7-.1-.5-.1-1 0-1.4.1-.3.3-.6.6-.9 1.6-1.2 3-.5 4.7.3 1.3.7 2.8 1.4 4.7 1.6-.2.5-.6.9-1.1 1-.8.3-2.1.2-3.9-.1l-3.8-.7 3.2 2.2c4 2.7 6.2 1.2 8.6-.5 1.5-1 3.1-2.2 5.5-2.2-1.8 3-2.1 5.9-2.3 7.6 0 .2 0 .3-.1.5-.4 3.3-4 3-4 3l-4-.4 3.5 1.9c5.3 2.9 4.7 7.3 3.5 15.1-.3 1.8-.6 3.9-.8 6.1-.8-3-1-5.2-1.2-7.2-.3-3.7-.6-6.7-4.4-12.4-2.4-3.7-6.2-6.8-10.1-10-2.8-2.3-5.6-4.6-8-7.2.1-.2.3-.3.4-.5.8-1 1.7-2 2.6-2.9 1.9 1.3 3.9 1.8 5.5 1.2 2-.7 3-1.7 3.4-2.6.2-.5.2-1 0-1.5-.2-.4-.5-.8-.9-1.1-1-.6-2.6-.8-4.5-.2-1.1.3-2.3 1.1-3.5 2.1-1.1-1-2.2-2.2-3-3.6-1-1.6-1.7-3.4-1.9-5.2-.2-2.2.3-4.5 2.3-6.2.3-.3.4-.8.1-1.1-.3-.3-.8-.4-1.1-.1-2.3 2.1-3.1 4.8-2.8 7.6.2 2 1 4.1 2.1 5.9.9 1.5 2 2.8 3.2 3.8-.9.9-1.8 1.9-2.6 2.9-.1.1-.1.2-.2.3-2.7-3.3-4.5-7-4.4-11.6.2-6.1 2.8-10.4 6-12.8 1.1-.8 2.3-1.5 3.4-1.9 1.1-.4 2.2-.6 3.2-.6 1.5 0 2.8.6 3.5 1.6 3.2 4.2-.6 6.8-.7 6.9-.4.3-.4.8-.2 1.1.3.4.8.4 1.1.2 0 0 5.3-3.5 1-9.1-1.1-1.4-2.8-2.1-4.8-2.2-1.2 0-2.5.2-3.8.6-1.3.5-2.6 1.2-3.8 2.1-3.5 2.7-6.5 7.4-6.7 14-.2 5.2 2 9.4 5 13-.4.7-.8 1.3-1.2 2-.9-1.2-1.9-2.8-2.6-4.9-.1-.4-.6-.6-1-.5-.4.1-.6.6-.5 1 1 2.7 2.2 4.5 3.4 6-.4 1.1-.6 2.1-.6 2.9.1 1.9.9 3 1.8 3.5.4.2.9.3 1.3.3.5 0 .9-.2 1.2-.6.5-.5.8-1.5.4-2.6-.4-1.4-1.3-2.5-2.3-3.8.3-.7.7-1.4 1.2-2.1 2.4 2.5 5.1 4.8 7.9 7.1 3.8 3.1 7.5 6.2 9.8 9.6 3.6 5.4 3.8 8.2 4.1 11.7.2 2.8.5 6 2.5 11.2l1.3 3.4.3-3.6c.3-3.7.8-7 1.2-9.8 1.1-7.5 1.8-12.2-2.4-15.5 1.4-.4 3-1.5 3.4-4.1 0-.1 0-.3.1-.6.2-1.7.5-4.9 2.8-8l.8-1.1-1.3-.2c-3.7-.5-5.9 1-7.9 2.4-.3.2-.7.5-1 .7.3-.5.6-1.1.7-1.8l.2-1h-1c-2.1 0-3.7-.8-5.1-1.5-1.9-.9-3.6-1.8-6 .1zm-2-6.1c1.4-.4 2.5-.3 3.1.1.2.1.3.2.3.3v.3c-.2.5-.9 1.1-2.4 1.7-1 .4-2.3 0-3.7-.8 1-.8 1.9-1.4 2.7-1.6zm-8.4 13.6c.2.5.1.9-.1 1.1-.1.1-.1.1-.2.1s-.2 0-.4-.1c-.5-.3-.9-.9-.9-2.1 0-.4 0-.9.2-1.4.7.8 1.2 1.6 1.4 2.4zM518 191l2-.8-2.1-.7c-4.5-1.5-4.7-6.3-4.9-11-.2-5.4-.5-10.6-6.7-11.2-.1-1-.4-2-.8-2.9-.8-1.9-2.1-3.6-4-4.6-.8-.5-1.8-.8-2.9-.9-.4-.1-.8.3-.9.7-.1.4.3.8.7.9.9.1 1.6.3 2.3.7 1.5.8 2.6 2.2 3.2 3.8.3.7.5 1.5.6 2.2-3.2.1-4.4 1.7-4.5 3.3 0 .7.1 1.4.4 2 .3.6.8 1.1 1.4 1.4 1.2.6 2.6.4 3.6-1.5.4-.7.6-1.6.7-2.5 0-.4.1-.7.1-1.1 4.6.6 4.8 5 5 9.7.2 4.4.4 9 4 11.4-1.9.2-3.5-.3-5.1-1.4-2.2-1.5-4.1-4.2-6-7.2l-3.2-5.2 1.7 5.8c1.4 5 4.3 7.9 6.7 10.4 2.4 2.5 4.4 4.6 4.2 7.8-.8 3.3.7 7.4 2 10.2-6.1-5-11.3-13.6-15-23.1-5.3-13.3-7.9-28.3-7-37.6.1-.8.2-1.7.3-2.4 1.3 1.4 2.4 3.2 2.7 6l.2 1.5 1.1-.9c1.4-1.2 2.5-3.4 2.7-6.5v-.7c1.2 2.4 2.4 4 3.4 5.3 1.7 2.3 3 4.1 3.9 9.1.1.4.5.7.9.7.4-.1.7-.5.7-.9-.9-5.4-2.4-7.3-4.2-9.8-1.6-2.2-3.6-4.8-5.8-11-.2-.5-.3-1.1-.5-1.6l-1.5.5c.2.6.4 1.1.6 1.6.8 2.7 1.1 4.9 1 6.8-.1 1.8-.5 3.1-1.1 4.1-.7-2.9-2.1-4.7-3.8-6.1.9-7.2 1.2-10.6-4.9-12.3-.9-.3-1.9-.2-2.9.2-.8.3-1.5.8-2.1 1.5-.6.7-.9 1.5-.9 2.5 0 .9.3 1.8.9 2.8 1.4 2.1 3.4 3.2 5.4 4.4.9.5 1.9 1.1 2.7 1.7-.1 1.1-.3 2.2-.4 3.6-.9 9.5 1.7 24.8 7.1 38.3 4.4 11.2 10.8 21.2 18.5 25.9l3 1.8-1.9-2.9s-4.7-7.2-3.5-12.1v-.2c.3-4-2-6.3-4.6-9.1-.5-.5-.9-.9-1.4-1.5 2.8 1.8 5.6 2.4 8.9 1.1zm-13.2-21.1c-.1.8-.3 1.4-.6 1.9-.5.9-1 1.1-1.4.8-.3-.2-.5-.4-.7-.8-.2-.4-.3-.8-.3-1.2.1-.9.9-1.8 3-1.9v1.2zm-12-25.7c-.7-.5-1.4-.9-2.1-1.3-1.9-1.1-3.7-2.1-4.9-3.9-.5-.7-.7-1.3-.6-1.8 0-.6.2-1.1.6-1.5.4-.4.9-.8 1.4-1 .6-.2 1.3-.3 1.8-.2 4.5 1.3 4.5 4 3.8 9.7zm-9.8 42.1s2-6 .4-13.5c-1-4.7.4-9.9 2-12.9.5-.8 1-1.5 1.4-2 .6-.6 1.2-.9 1.8-.8.5.1.8.3 1.1.8.2.3.1.8-.3 1-.3.2-.8.1-1-.3 0-.1-.1-.1-.1-.1-.1 0-.3.1-.6.4-.4.4-.8.9-1.2 1.7-1.5 2.8-2.8 7.6-1.9 11.9 1.3 6 .4 11.1-.1 13.2 2.2-.3 7.5-1.5 8.2-6.2.1-.4.4-.7.8-.6.4.1.7.4.6.8-1.1 7.3-10.5 7.5-10.6 7.5h-1l.5-.9zM256.8 93c-.5.8-.8 1.8-.9 2.9-.1.4.3.8.7.9.4.1.8-.3.9-.7.1-.9.4-1.6.7-2.3.8-1.5 2.2-2.6 3.8-3.2.7-.3 1.5-.5 2.2-.6.1 3.2 1.7 4.4 3.3 4.5.7 0 1.4-.1 2-.4.6-.3 1.1-.8 1.4-1.4.6-1.2.4-2.6-1.5-3.6-.7-.4-1.6-.6-2.5-.7-.4 0-.7-.1-1.1-.1.6-4.6 5-4.8 9.7-5 4.4-.2 9-.4 11.4-4 .2 1.8-.3 3.5-1.4 5.1-1.5 2.2-4.2 4.1-7.2 6l-5.2 3.2 5.8-1.7c5-1.4 7.9-4.3 10.4-6.7 2.5-2.4 4.6-4.4 7.8-4.2 3.3.8 7.4-.7 10.2-2-5 6.1-13.6 11.3-23.1 15-13.3 5.3-28.3 7.9-37.6 7-.8-.1-1.7-.2-2.4-.3 1.4-1.3 3.2-2.4 6-2.7l1.5-.2-.9-1.1c-1.2-1.4-3.4-2.5-6.5-2.7h-.7c2.4-1.2 4-2.4 5.3-3.4 2.3-1.7 4.1-3 9.1-3.9.4-.1.7-.5.7-.9-.1-.4-.5-.7-.9-.7-5.4.9-7.3 2.4-9.8 4.2-2.2 1.6-4.8 3.6-11 5.8-.5.2-1.1.3-1.6.6l.5 1.5c.6-.2 1.1-.4 1.6-.5 2.7-.8 4.9-1.1 6.8-1 1.8.1 3.1.5 4.1 1.1-2.9.7-4.7 2.1-6.1 3.8-7.2-.9-10.6-1.2-12.3 4.9-.3.9-.2 1.9.2 2.9.3.8.8 1.5 1.5 2.1.7.6 1.5.9 2.5.9.9 0 1.8-.3 2.8-.9 2.1-1.4 3.2-3.4 4.4-5.4.5-.9 1.1-1.9 1.7-2.7 1.1.1 2.2.3 3.6.4 9.5.9 24.8-1.7 38.3-7.1 11.2-4.4 21.2-10.8 25.9-18.5l1.8-3-3 1.9s-7.2 4.7-12.1 3.5h-.2c-4-.3-6.3 2-9.1 4.6-.5.5-.9.9-1.5 1.4 1.8-2.5 2.4-5.3 1.1-8.6l-.8-2-.7 2.1c-1.5 4.5-6.3 4.7-11 4.9-5.4.2-10.6.5-11.2 6.7-1 .1-2 .4-2.9.8-1.8.3-3.5 1.6-4.5 3.5zm-16.9 10.8c-1.1 1.9-2.1 3.7-3.9 4.9-.7.5-1.3.7-1.8.6-.6 0-1.1-.2-1.5-.6-.4-.4-.8-.9-1-1.4-.2-.6-.3-1.3-.2-1.8 1.3-4.6 4-4.5 9.7-3.9-.4.8-.8 1.5-1.3 2.2zm27-14c.8.1 1.4.3 1.9.6.9.5 1 1 .8 1.4-.2.3-.4.5-.8.7-.4.2-.8.3-1.2.3-.9-.1-1.8-.9-1.9-3 .5-.1.9-.1 1.2 0zM214.1 95c-.5-.2-1-.2-1.5 0-.4.2-.8.5-1.1.9-.6 1-.8 2.6-.2 4.5.3 1.1 1.1 2.3 2.1 3.5-1 1.1-2.2 2.2-3.6 3-1.6 1-3.4 1.7-5.2 1.9-2.2.2-4.5-.3-6.2-2.3-.3-.3-.8-.4-1.1-.1-.3.3-.4.8-.1 1.1 2.1 2.3 4.8 3.1 7.6 2.8 2-.2 4.1-1 5.9-2.1 1.5-.9 2.8-2 3.8-3.2.9.9 1.9 1.8 2.9 2.6.1.1.2.1.3.2-3.3 2.7-7 4.5-11.6 4.4-6.1-.2-10.4-2.8-12.8-6-.8-1.1-1.5-2.3-1.9-3.4-.4-1.1-.6-2.2-.5-3.2 0-1.5.6-2.8 1.6-3.5 4.2-3.2 6.8.6 6.9.7.3.4.8.4 1.1.2.4-.3.4-.8.2-1.1 0 0-3.5-5.3-9.1-1-1.4 1.1-2.1 2.8-2.2 4.8 0 1.2.2 2.5.6 3.8.5 1.3 1.2 2.6 2.1 3.8 2.7 3.5 7.4 6.5 14 6.7 5.2.2 9.4-2 13-5 .7.4 1.3.8 2 1.2-1.2.9-2.8 1.9-4.9 2.6-.4.1-.6.6-.5 1 .1.4.6.6 1 .5 2.7-1 4.5-2.2 6-3.4 1.1.4 2.1.6 2.9.6 1.9-.1 3-.9 3.5-1.8.2-.4.3-.9.3-1.3 0-.5-.2-.9-.6-1.2-.5-.5-1.5-.8-2.6-.4-1.4.4-2.5 1.3-3.8 2.3-.7-.3-1.4-.7-2.1-1.2 2.5-2.4 4.8-5.1 7.1-7.9 3.1-3.8 6.2-7.5 9.6-9.8 5.4-3.6 8.2-3.8 11.7-4.1 2.8-.2 6-.5 11.2-2.5l3.4-1.3-3.6-.3c-3.7-.3-7-.8-9.8-1.2-7.5-1.1-12.2-1.8-15.5 2.4-.4-1.4-1.5-3-4.1-3.4-.1 0-.3 0-.6-.1-1.7-.2-4.9-.5-8-2.8l-1.1-.8-.2 1.3c-.5 3.7 1 5.9 2.4 7.9.2.3.5.7.7 1-.5-.3-1.1-.6-1.8-.7l-1-.2v1c0 2.1-.8 3.7-1.5 5.1-1.1 2.2-2 4-.2 6.4.4.6 1 1 1.6 1.2.7.2 1.4.3 2.2.1.8-.2 1.5-.6 2.3-1.1 1.6-1.2 3.1-3.2 4.1-6.2.6-1.8.7-3.5.3-4.9-.4-1.6-1.2-2.9-2.4-3.5-.4-.2-.9 0-1.1.4-.2.4 0 .9.4 1.1.7.4 1.3 1.2 1.5 2.4.3 1.2.2 2.6-.3 4.1-.9 2.7-2.2 4.5-3.5 5.5-.6.4-1.2.7-1.7.9-.5.1-1 .1-1.4 0-.3-.1-.6-.3-.9-.6-1.2-1.6-.5-3 .3-4.7.7-1.3 1.4-2.8 1.6-4.7.5.2.9.6 1 1.1.3.8.2 2.1-.1 3.9l-.7 3.8 2.2-3.2c2.7-4 1.2-6.2-.5-8.6-1-1.5-2.2-3.1-2.2-5.5 3 1.8 5.9 2.1 7.6 2.3.2 0 .3 0 .5.1 3.3.4 3 4 3 4l-.4 4 1.9-3.5c2.9-5.3 7.3-4.7 15.1-3.5 1.8.3 3.9.6 6.1.8-3 .8-5.2 1-7.2 1.2-3.7.3-6.7.6-12.4 4.4-3.7 2.4-6.8 6.2-10 10.1-2.3 2.8-4.6 5.6-7.2 8-.2-.1-.3-.3-.5-.4-1-.8-2-1.7-2.9-2.6 1.3-1.9 1.8-3.9 1.2-5.5-.5-2.4-1.4-3.5-2.4-3.8zm12.5 13.3c.5-.2.9-.1 1.1.1.1.1.1.1.1.2s0 .2-.1.4c-.3.5-.9.9-2.1.9-.4 0-.9 0-1.4-.2.8-.6 1.5-1.2 2.4-1.4zm-12.2-5.7c-.7-.9-1.3-1.9-1.5-2.7-.4-1.4-.3-2.5.1-3.1.1-.2.2-.3.3-.3h.3c.5.2 1.1.9 1.7 2.4.3 1.1 0 2.4-.9 3.7zm40.7 2.2c.3-.2.8-.1 1 .3.2.3.1.8-.3 1-.1 0-.1.1-.1.1 0 .1.1.3.4.6.4.4.9.8 1.7 1.2 2.8 1.5 7.6 2.8 11.9 1.9 6-1.3 11.1-.4 13.2.1-.3-2.2-1.5-7.5-6.2-8.2-.4-.1-.7-.4-.6-.8.1-.4.4-.7.8-.6 7.3 1.1 7.5 10.5 7.5 10.6v1l-1-.3s-6-2-13.5-.4c-4.7 1-9.9-.4-12.9-2-.8-.5-1.5-1-2-1.4-.6-.6-.9-1.2-.8-1.8.1-.6.4-1 .9-1.3zm259.5 125.4c0-.1 0-.3.1-.6.2-1.7.5-4.9 2.8-8l.8-1.1-1.3-.2c-3.7-.5-5.9 1-7.9 2.4-.3.2-.7.5-1 .7.3-.5.6-1.1.7-1.8l.2-1h-1c-2.1 0-3.7-.8-5.1-1.5-2.2-1.1-4-2-6.4-.2-.6.4-1 1-1.2 1.6-.2.7-.3 1.4-.1 2.2.2.8.6 1.5 1.1 2.3 1.2 1.5 3.2 3 6.2 4 1.8.6 3.5.7 4.9.3 1.6-.4 2.9-1.2 3.5-2.4.2-.4 0-.9-.4-1.1-.4-.2-.9 0-1.1.4-.4.7-1.2 1.3-2.4 1.5-1.2.2-2.6.2-4.1-.3-2.7-.9-4.5-2.2-5.5-3.5-.4-.6-.7-1.2-.9-1.7-.1-.5-.1-1 0-1.4.1-.3.3-.6.6-.9 1.6-1.2 3-.5 4.7.3 1.3.7 2.8 1.4 4.7 1.6-.2.5-.6.9-1.1 1-.8.3-2.1.2-3.9-.1l-3.8-.7 3.2 2.2c4 2.7 6.2 1.2 8.6-.5 1.5-1 3.1-2.2 5.5-2.2-1.8 3-2.1 5.9-2.3 7.6 0 .2 0 .3-.1.5-.4 3.3-4 3-4 3l-4-.4 3.5 1.9c5.3 2.9 4.7 7.3 3.5 15.1-.3 1.8-.6 3.9-.8 6.1-.8-3-1-5.2-1.2-7.2-.3-3.7-.6-6.7-4.4-12.4-2.4-3.7-6.2-6.8-10.1-10-2.8-2.3-5.6-4.6-8-7.2.1-.2.3-.3.4-.5.8-1 1.7-2 2.6-2.9 1.9 1.3 3.9 1.8 5.5 1.2 2-.7 3-1.7 3.4-2.6.2-.5.2-1 0-1.5-.2-.4-.5-.8-.9-1.1-1-.6-2.6-.8-4.5-.2-1.1.3-2.3 1.1-3.5 2.1-1.1-1-2.2-2.2-3-3.6-1-1.6-1.7-3.4-1.9-5.2-.2-2.2.3-4.5 2.3-6.2.3-.3.4-.8.1-1.1-.3-.3-.8-.4-1.1-.1-2.3 2.1-3.1 4.8-2.8 7.6.2 2 1 4.1 2.1 5.9.9 1.5 2 2.8 3.2 3.8-.9.9-1.8 1.9-2.6 2.9-.1.1-.1.2-.2.3-2.7-3.3-4.5-7-4.4-11.6.2-6.1 2.8-10.4 6-12.8 1.1-.8 2.3-1.5 3.4-1.9 1.1-.4 2.2-.6 3.2-.6 1.5 0 2.8.6 3.5 1.6 3.2 4.2-.6 6.8-.7 6.9-.4.3-.4.8-.2 1.1.3.4.8.4 1.1.2 0 0 5.3-3.5 1-9.1-1.1-1.4-2.8-2.1-4.8-2.2-1.2 0-2.5.2-3.8.6-1.3.5-2.6 1.2-3.8 2.1-3.5 2.7-6.5 7.4-6.7 14-.2 5.2 2 9.4 5 13-.4.7-.8 1.3-1.2 2-.9-1.2-1.9-2.8-2.6-4.9-.1-.4-.6-.6-1-.5-.4.1-.6.6-.5 1 1 2.7 2.2 4.5 3.4 6-.4 1.1-.6 2.1-.6 2.9.1 1.9.9 3 1.8 3.5.4.2.9.3 1.3.3.5 0 .9-.2 1.2-.6.5-.5.8-1.5.4-2.6-.4-1.4-1.3-2.5-2.3-3.8.3-.7.7-1.4 1.2-2.1 2.4 2.5 5.1 4.8 7.9 7.1 3.8 3.1 7.5 6.2 9.8 9.6 3.6 5.4 3.8 8.2 4.1 11.7.2 2.8.5 6 2.5 11.2l1.3 3.4.3-3.6c.3-3.7.8-7 1.2-9.8 1.1-7.5 1.8-12.2-2.4-15.5 1.9 0 3.5-1.1 3.8-3.7zm-20-17.3c1.4-.4 2.5-.3 3.1.1.2.1.3.2.3.3v.3c-.2.5-.9 1.1-2.4 1.7-1 .4-2.3 0-3.7-.8 1-.8 1.9-1.4 2.7-1.6zm-8.4 13.7c.2.5.1.9-.1 1.1-.1.1-.1.1-.2.1s-.2 0-.4-.1c-.5-.3-.9-.9-.9-2.1 0-.4 0-.9.2-1.4.7.7 1.2 1.5 1.4 2.4zm29.2 70.9v-.1c.3-4-2-6.3-4.6-9.1-.5-.5-.9-.9-1.4-1.5 2.5 1.8 5.3 2.4 8.6 1.1l2-.8-2.1-.7c-4.5-1.5-4.7-6.3-4.9-11-.2-5.4-.5-10.6-6.7-11.2-.1-1-.4-2-.8-2.9-.8-1.9-2.1-3.6-4-4.6-.8-.5-1.8-.8-2.9-.9-.4-.1-.8.3-.9.7-.1.4.3.8.7.9.9.1 1.6.3 2.3.7 1.5.8 2.6 2.2 3.2 3.8.3.7.5 1.5.6 2.2-3.2.1-4.4 1.7-4.5 3.3 0 .7.1 1.4.4 2 .3.6.8 1.1 1.4 1.4 1.2.6 2.6.4 3.6-1.5.4-.7.6-1.6.7-2.5 0-.4.1-.7.1-1.1 4.6.6 4.8 5 5 9.7.2 4.4.4 9 4 11.4-1.9.2-3.5-.3-5.1-1.4-2.2-1.5-4.1-4.2-6-7.2l-3.2-5.2 1.7 5.8c1.4 5 4.3 7.9 6.7 10.4 2.4 2.5 4.4 4.6 4.2 7.8-.8 3.3.7 7.4 2 10.2-6.1-5-11.3-13.6-15-23.1-5.3-13.3-7.9-28.3-7-37.6.1-.8.2-1.7.3-2.4 1.3 1.4 2.4 3.2 2.7 6l.2 1.4 1.1-.9c1.4-1.2 2.5-3.4 2.7-6.5v-.7c1.2 2.4 2.4 4 3.4 5.3 1.7 2.3 3 4.1 3.9 9.1.1.4.5.7.9.7.4-.1.7-.5.7-.9-.9-5.4-2.4-7.3-4.2-9.8-1.6-2.2-3.6-4.8-5.8-11-.2-.5-.3-1.1-.5-1.6l-1.5.5c.2.6.4 1.1.6 1.6.8 2.7 1.1 4.9 1 6.8-.1 1.8-.5 3.1-1.1 4.1-.7-2.9-2.1-4.7-3.8-6.1.9-7.2 1.2-10.6-4.9-12.3-.9-.3-1.9-.2-2.9.2-.8.3-1.5.8-2.1 1.5-.6.7-.9 1.5-.9 2.5 0 .9.3 1.8.9 2.8 1.4 2.1 3.4 3.2 5.4 4.4.9.5 1.9 1.1 2.7 1.7-.1 1.1-.3 2.2-.4 3.6-.9 9.5 1.7 24.8 7.1 38.3 4.4 11.2 10.8 21.2 18.5 25.9l3 1.8-1.9-2.9c.3 0-4.4-7.2-3.2-12.1zm-10.6-30.6c-.1.8-.3 1.4-.6 1.9-.5.9-1 1.1-1.4.8-.3-.1-.5-.4-.7-.8-.2-.4-.3-.8-.3-1.2.1-.9.9-1.8 3-1.9v1.2zm-12-25.7c-.7-.5-1.4-.9-2.1-1.3-1.9-1.1-3.7-2.1-4.9-3.9-.5-.7-.7-1.3-.6-1.8 0-.6.2-1.1.6-1.5.4-.4.9-.8 1.4-1 .6-.2 1.3-.3 1.8-.2 4.5 1.3 4.5 4 3.8 9.7zm-3.1 13.8c.2.3.1.8-.3 1-.3.2-.8.1-1-.3 0-.1-.1-.1-.1-.1-.1 0-.3.1-.6.4-.4.4-.8.9-1.2 1.7-1.5 2.8-2.8 7.6-1.9 11.9 1.3 6 .4 11.1-.1 13.2 2.2-.3 7.5-1.5 8.2-6.2.1-.4.4-.7.8-.6.4.1.7.4.6.8-1.1 7.3-10.5 7.5-10.6 7.5h-1l.3-1s2-6 .4-13.5c-1-4.7.4-9.9 2-12.9.5-.8 1-1.5 1.4-2 .6-.6 1.2-.9 1.8-.8.7.1 1.1.4 1.3.9zM353.8 93c-.5.8-.8 1.8-.9 2.9-.1.4.3.8.7.9.4.1.8-.3.9-.7.1-.9.3-1.6.7-2.3.8-1.5 2.2-2.6 3.8-3.2.7-.3 1.5-.5 2.2-.6.1 3.2 1.7 4.4 3.3 4.5.7 0 1.4-.1 2-.4.6-.3 1.1-.8 1.4-1.4.6-1.2.4-2.6-1.5-3.6-.7-.4-1.6-.6-2.5-.7-.4 0-.7-.1-1.1-.1.6-4.6 5-4.8 9.7-5 4.4-.2 9-.4 11.4-4 .2 1.8-.3 3.5-1.4 5.1-1.5 2.2-4.2 4.1-7.2 6l-5.2 3.2 5.8-1.7c5-1.4 7.9-4.3 10.4-6.7 2.5-2.4 4.6-4.4 7.8-4.2 3.3.8 7.4-.7 10.2-2-5 6.1-13.6 11.3-23.1 15-13.3 5.3-28.3 7.9-37.6 7-.8-.1-1.7-.2-2.4-.3 1.4-1.3 3.2-2.4 6-2.7l1.5-.2-.9-1.1c-1.2-1.4-3.4-2.5-6.5-2.7h-.7c2.4-1.2 4-2.4 5.3-3.4 2.3-1.7 4.1-3 9.1-3.9.4-.1.7-.5.7-.9-.1-.4-.5-.7-.9-.7-5.4.9-7.3 2.4-9.8 4.2-2.2 1.6-4.8 3.6-11 5.8-.5.2-1.1.3-1.6.6l.5 1.5c.6-.2 1.1-.4 1.6-.5 2.7-.8 4.9-1.1 6.8-1 1.8.1 3.1.5 4.1 1.1-2.9.7-4.7 2.1-6.1 3.8-7.2-.9-10.6-1.2-12.3 4.9-.3.9-.2 1.9.2 2.9.3.8.8 1.5 1.5 2.1.7.6 1.5.9 2.5.9.9 0 1.8-.3 2.8-.9 2.1-1.4 3.2-3.4 4.4-5.4.5-.9 1.1-1.9 1.7-2.7 1.1.1 2.2.3 3.6.4 9.5.9 24.8-1.7 38.3-7.1 11.2-4.4 21.2-10.8 25.9-18.5l1.8-3-2.9 1.9s-7.2 4.7-12.1 3.5h-.2c-4-.3-6.3 2-9.1 4.6-.5.5-.9.9-1.5 1.4 1.8-2.5 2.4-5.3 1.1-8.6l-.8-2-.7 2.1c-1.5 4.5-6.3 4.7-11 4.9-5.4.2-10.6.5-11.2 6.7-1 .1-2 .4-2.9.8-1.8.3-3.6 1.6-4.6 3.5zM337 103.8c-1.1 1.9-2.1 3.7-3.9 4.9-.7.5-1.3.7-1.8.6-.6 0-1.1-.2-1.5-.6-.4-.4-.8-.9-1-1.4-.2-.6-.3-1.3-.2-1.8 1.3-4.6 4-4.5 9.7-3.9-.5.8-.9 1.5-1.3 2.2zm26.9-14c.8.1 1.4.3 1.9.6.9.5 1.1 1 .8 1.4-.2.3-.4.5-.8.7-.4.2-.8.3-1.2.3-.9-.1-1.8-.9-1.9-3 .5-.1.9-.1 1.2 0zM311.2 95c-.5-.2-1-.2-1.5 0-.4.2-.8.5-1.1.9-.6 1-.8 2.6-.2 4.5.3 1.1 1.1 2.3 2.1 3.5-1 1.1-2.2 2.2-3.6 3-1.6 1-3.4 1.7-5.2 1.9-2.2.2-4.5-.3-6.2-2.3-.3-.3-.8-.4-1.1-.1-.3.3-.4.8-.1 1.1 2.1 2.3 4.8 3.1 7.6 2.8 2-.2 4.1-1 5.9-2.1 1.5-.9 2.8-2 3.8-3.2.9.9 1.9 1.8 2.9 2.6.1.1.2.1.3.2-3.3 2.7-7 4.5-11.6 4.4-6.1-.2-10.4-2.8-12.8-6-.8-1.1-1.5-2.3-1.9-3.4-.4-1.1-.6-2.2-.6-3.2 0-1.5.6-2.8 1.6-3.5 4.2-3.2 6.8.6 6.9.7.3.4.8.4 1.1.2.4-.3.4-.8.2-1.1 0 0-3.5-5.3-9.1-1-1.4 1.1-2.1 2.8-2.2 4.8 0 1.2.2 2.5.6 3.8.5 1.3 1.2 2.6 2.1 3.8 2.7 3.5 7.4 6.5 14 6.7 5.2.2 9.4-2 13-5 .7.4 1.3.8 2 1.2-1.2.9-2.8 1.9-4.9 2.6-.4.1-.6.6-.5 1 .1.4.6.6 1 .5 2.7-1 4.5-2.2 6-3.4 1.1.4 2.1.6 2.9.6 1.9-.1 3-.9 3.5-1.8.2-.4.3-.9.3-1.3 0-.5-.2-.9-.6-1.2-.5-.5-1.5-.8-2.6-.4-1.4.4-2.5 1.3-3.8 2.3-.7-.3-1.4-.7-2.1-1.2 2.5-2.4 4.8-5.1 7.1-7.9 3.1-3.8 6.2-7.5 9.6-9.8 5.4-3.6 8.2-3.8 11.7-4.1 2.8-.2 6-.5 11.2-2.5l3.4-1.3-3.6-.3c-3.7-.3-7-.8-9.8-1.2-7.5-1.1-12.2-1.8-15.5 2.4-.4-1.4-1.5-3-4.1-3.4-.1 0-.3 0-.6-.1-1.7-.2-4.9-.5-8-2.8l-1.1-.8-.2 1.3c-.5 3.7 1 5.9 2.4 7.9.2.3.5.7.7 1-.5-.3-1.1-.6-1.8-.7l-1-.2v1c0 2.1-.8 3.7-1.5 5.1-1.1 2.2-2 4-.2 6.4.4.6 1 1 1.6 1.2.7.2 1.4.3 2.2.1.8-.2 1.5-.6 2.3-1.1 1.6-1.2 3.1-3.2 4-6.2.6-1.8.7-3.5.3-4.9-.4-1.6-1.2-2.9-2.4-3.5-.4-.2-.9 0-1.1.4-.2.4 0 .9.4 1.1.7.4 1.3 1.2 1.5 2.4.3 1.2.2 2.6-.3 4.1-.9 2.7-2.2 4.5-3.5 5.5-.6.4-1.2.7-1.7.9-.5.1-1 .1-1.4 0-.3-.1-.6-.3-.9-.6-1.2-1.6-.5-3 .3-4.7.7-1.3 1.4-2.8 1.6-4.7.5.2.9.6 1 1.1.3.8.2 2.1-.1 3.9l-.7 3.8 2.2-3.2c2.7-4 1.2-6.2-.5-8.6-1-1.5-2.2-3.1-2.2-5.5 3 1.8 5.9 2.1 7.6 2.3.2 0 .3 0 .5.1 3.3.4 3 4 3 4l-.4 4 1.9-3.5c2.9-5.3 7.3-4.7 15.1-3.5 1.8.3 3.9.6 6.1.8-3 .8-5.2 1-7.2 1.2-3.7.3-6.7.6-12.4 4.4-3.7 2.4-6.8 6.2-10 10.1-2.3 2.8-4.6 5.6-7.2 8-.2-.1-.3-.3-.5-.4-1-.8-2-1.7-2.9-2.6 1.3-1.9 1.8-3.9 1.2-5.5-.4-2.4-1.3-3.5-2.2-3.8zm12.4 13.3c.5-.2.9-.1 1.1.1.1.1.1.1.1.2s0 .2-.1.4c-.3.5-.9.9-2.1.9-.4 0-.9 0-1.4-.2.8-.6 1.5-1.2 2.4-1.4zm-12.1-5.7c-.7-.9-1.3-1.9-1.5-2.7-.4-1.4-.3-2.5.1-3.1.1-.2.2-.3.3-.3h.3c.5.2 1.1.9 1.7 2.4.3 1.1-.1 2.4-.9 3.7zm41.1 3.5c0 .1.1.3.4.6.4.4.9.8 1.7 1.2 2.8 1.5 7.6 2.8 11.9 1.9 6-1.3 11.1-.4 13.2.1-.3-2.2-1.5-7.5-6.2-8.2-.4-.1-.7-.4-.6-.8.1-.4.4-.7.8-.6 7.3 1.1 7.5 10.5 7.5 10.6v1l-1-.3s-6-2-13.5-.4c-4.7 1-9.9-.4-12.9-2-.8-.5-1.5-1-2-1.4-.6-.6-.9-1.2-.8-1.8.1-.5.3-.8.8-1.1.3-.2.8-.1 1 .3.2.3.1.8-.3 1 .1-.1 0-.1 0-.1zm144.9 191.3c.3.4.8.4 1.1.2 0 0 5.3-3.5 1-9.1-1.1-1.4-2.8-2.1-4.8-2.2-1.2 0-2.5.2-3.8.6-1.3.5-2.6 1.2-3.8 2.1-3.5 2.7-6.5 7.4-6.7 14-.2 5.2 2 9.4 5 13-.4.7-.8 1.3-1.2 2-.9-1.2-1.9-2.8-2.6-4.9-.1-.4-.6-.6-1-.5-.4.1-.6.6-.5 1 1 2.7 2.2 4.5 3.4 6-.4 1.1-.6 2.1-.6 2.9.1 1.9.9 3 1.8 3.5.4.2.9.3 1.3.3.5 0 .9-.2 1.2-.6.5-.5.8-1.5.4-2.6-.4-1.4-1.3-2.5-2.3-3.8.3-.7.7-1.4 1.2-2.1 2.4 2.5 5.1 4.8 7.9 7.1 3.8 3.1 7.5 6.2 9.8 9.6 3.6 5.4 3.8 8.2 4.1 11.7.2 2.8.5 6 2.5 11.2l1.3 3.4.3-3.6c.3-3.7.8-7 1.2-9.8 1.1-7.5 1.8-12.2-2.4-15.5 1.4-.4 3-1.5 3.4-4.1 0-.1 0-.3.1-.6.2-1.7.5-4.9 2.8-8l.8-1.1-1.3-.2c-3.7-.5-5.9 1-7.9 2.4-.3.2-.7.5-1 .7.3-.5.6-1.1.7-1.8l.2-1h-1c-2.1 0-3.7-.8-5.1-1.5-2.2-1.1-4-2-6.4-.2-.6.4-1 1-1.2 1.6-.2.7-.3 1.4-.1 2.2.2.8.6 1.5 1.1 2.3 1.2 1.6 3.2 3.1 6.2 4.1 1.8.6 3.5.7 4.9.3 1.6-.4 2.9-1.2 3.5-2.4.2-.4 0-.9-.4-1.1-.4-.2-.9 0-1.1.4-.4.7-1.2 1.3-2.4 1.5-1.2.3-2.6.2-4.1-.3-2.7-.9-4.5-2.2-5.5-3.5-.4-.6-.7-1.2-.9-1.7-.1-.5-.1-1 0-1.4.1-.3.3-.6.6-.9 1.6-1.2 3-.5 4.7.3 1.3.7 2.8 1.4 4.7 1.6-.2.5-.6.9-1.1 1-.8.3-2.1.2-3.9-.1l-3.8-.7 3.2 2.2c4 2.7 6.2 1.2 8.6-.5 1.5-1 3.1-2.2 5.5-2.2-1.8 3-2.1 5.9-2.3 7.6 0 .2 0 .3-.1.5-.4 3.3-4 3-4 3l-4-.4 3.5 1.9c5.3 2.9 4.7 7.3 3.5 15.1-.3 1.8-.6 3.9-.8 6.1-.8-3-1-5.2-1.2-7.2-.3-3.7-.6-6.7-4.4-12.4-2.4-3.7-6.2-6.8-10.1-10-2.8-2.3-5.6-4.6-8-7.2.1-.2.3-.3.4-.5.8-1 1.7-2 2.6-2.9 1.9 1.3 3.9 1.8 5.5 1.2 2-.7 3-1.7 3.4-2.6.2-.5.2-1 0-1.5-.2-.4-.5-.8-.9-1.1-1-.6-2.6-.8-4.5-.2-1.1.3-2.3 1.1-3.5 2.1-1.1-1-2.2-2.2-3-3.6-1-1.6-1.7-3.4-1.9-5.2-.2-2.2.3-4.5 2.3-6.2.3-.3.4-.8.1-1.1-.3-.3-.8-.4-1.1-.1-2.3 2.1-3.1 4.8-2.8 7.6.2 2 1 4.1 2.1 5.9.9 1.5 2 2.8 3.2 3.8-.9.9-1.8 1.9-2.6 2.9-.1.1-.1.2-.2.3-2.7-3.3-4.5-7-4.4-11.6.2-6.1 2.8-10.4 6-12.8 1.1-.8 2.3-1.5 3.4-1.9 1.1-.4 2.2-.6 3.2-.6 1.5 0 2.8.6 3.5 1.6 3.2 4.2-.6 6.8-.7 6.9 0 .5 0 1 .2 1.4zm-11.3 26.2c.2.5.1.9-.1 1.1-.1.1-.1.1-.2.1s-.2 0-.4-.1c-.5-.3-.9-.9-.9-2.1 0-.4 0-.9.2-1.4.7.7 1.2 1.5 1.4 2.4zm8.4-13.7c1.4-.4 2.5-.3 3.1.1.2.1.3.2.3.3v.3c-.2.5-.9 1.1-2.4 1.7-1 .4-2.3 0-3.7-.8 1-.8 1.9-1.4 2.7-1.6zm20.8 84.6v-.1c.3-4-2-6.3-4.6-9.1-.5-.5-.9-.9-1.4-1.5 2.5 1.8 5.3 2.4 8.6 1.1l2-.8-2.1-.7c-4.5-1.5-4.7-6.3-4.9-11-.2-5.4-.5-10.6-6.7-11.2-.1-1-.4-2-.8-2.9-.8-1.9-2.1-3.6-4-4.6-.8-.5-1.8-.8-2.9-.9-.4-.1-.8.3-.9.7-.1.4.3.8.7.9.9.1 1.6.4 2.3.7 1.5.8 2.6 2.2 3.2 3.8.3.7.5 1.5.6 2.2-3.2.1-4.4 1.7-4.5 3.3 0 .7.1 1.4.4 2 .3.6.8 1.1 1.4 1.4 1.2.6 2.6.4 3.6-1.5.4-.7.6-1.6.7-2.5 0-.4.1-.7.1-1.1 4.6.6 4.8 5 5 9.7.2 4.4.4 9 4 11.4-1.9.2-3.5-.3-5.1-1.4-2.2-1.5-4.1-4.2-6-7.2l-3.2-5.2 1.7 5.8c1.4 5 4.3 7.9 6.7 10.4 2.4 2.5 4.4 4.6 4.2 7.8-.8 3.3.7 7.4 2 10.2-6.1-5-11.3-13.6-15-23.1-5.3-13.3-7.9-28.3-7-37.6.1-.8.2-1.7.3-2.4 1.3 1.4 2.4 3.2 2.7 6l.2 1.5 1.1-.9c1.4-1.2 2.5-3.4 2.7-6.5v-.7c1.2 2.4 2.4 4 3.4 5.3 1.7 2.3 3 4.1 3.9 9.1.1.4.5.7.9.7.4-.1.7-.5.7-.9-.9-5.4-2.4-7.3-4.2-9.8-1.6-2.2-3.6-4.8-5.8-11-.2-.5-.3-1.1-.5-1.6l-1.5.5c.2.6.4 1.1.6 1.6.8 2.7 1.1 4.9 1 6.8-.1 1.8-.5 3.1-1.1 4.1-.7-2.9-2.1-4.7-3.8-6.1.9-7.2 1.2-10.6-4.9-12.3-.9-.3-1.9-.2-2.9.2-.8.3-1.5.8-2.1 1.5-.6.7-.9 1.5-.9 2.5 0 .9.3 1.8.9 2.8 1.4 2.1 3.4 3.2 5.4 4.4.9.5 1.9 1.1 2.7 1.7-.1 1.1-.3 2.2-.4 3.6-.9 9.5 1.7 24.8 7.1 38.3 4.4 11.2 10.8 21.2 18.5 25.9l3 1.8-1.9-2.9c.3-.1-4.4-7.3-3.2-12.2zm-10.6-30.6c-.1.8-.3 1.4-.6 1.9-.5.9-1 1-1.4.8-.3-.2-.5-.4-.7-.8-.2-.4-.3-.8-.3-1.2.1-.9.9-1.8 3-1.9v1.2zm-12-25.7c-.7-.5-1.4-.9-2.1-1.3-1.9-1.1-3.7-2.1-4.9-3.9-.5-.7-.7-1.3-.6-1.8 0-.6.2-1.1.6-1.5.4-.4.9-.8 1.4-1 .6-.2 1.3-.3 1.8-.2 4.5 1.3 4.5 4 3.8 9.7zm-3.1 13.8c.2.3.1.8-.3 1-.3.2-.8.1-1-.3 0-.1-.1-.1-.1-.1-.1 0-.3.1-.6.4-.4.4-.8.9-1.2 1.7-1.5 2.8-2.8 7.6-1.9 11.9 1.3 6 .4 11.1-.1 13.2 2.2-.3 7.5-1.5 8.2-6.2.1-.4.4-.7.8-.6.4.1.7.4.6.8-1.1 7.3-10.5 7.5-10.6 7.5h-1l.3-1s2-6 .4-13.5c-1-4.7.4-9.9 2-12.9.5-.8 1-1.5 1.4-2 .6-.6 1.2-.9 1.8-.8.7.1 1.1.4 1.3.9zM450.8 93c-.5.8-.8 1.8-.9 2.9-.1.4.3.8.7.9.4.1.8-.3.9-.7.1-.9.3-1.6.7-2.3.8-1.5 2.2-2.6 3.8-3.2.7-.3 1.5-.5 2.2-.6.1 3.2 1.7 4.4 3.3 4.5.7 0 1.4-.1 2-.4.6-.3 1.1-.8 1.4-1.4.6-1.2.4-2.6-1.5-3.6-.7-.4-1.6-.6-2.5-.7-.4 0-.7-.1-1.1-.1.6-4.6 5-4.8 9.7-5 4.4-.2 9-.4 11.4-4 .2 1.8-.3 3.5-1.4 5.1-1.5 2.2-4.2 4.1-7.2 6l-5.2 3.2 5.8-1.7c5-1.4 7.9-4.3 10.4-6.7 2.5-2.4 4.6-4.4 7.8-4.2 3.3.8 7.4-.7 10.2-2-5 6.1-13.6 11.3-23.1 15-13.3 5.3-28.3 7.9-37.6 7-.8-.1-1.7-.2-2.4-.3 1.4-1.3 3.2-2.4 6-2.7l1.5-.2-.9-1.1c-1.2-1.4-3.4-2.5-6.5-2.7h-.7c2.4-1.2 4-2.4 5.3-3.4 2.3-1.7 4.1-3 9.1-3.9.4-.1.7-.5.7-.9-.1-.4-.5-.7-.9-.7-5.4.9-7.3 2.4-9.8 4.2-2.2 1.6-4.8 3.6-11 5.8-.5.2-1.1.3-1.6.6l.5 1.5c.6-.2 1.1-.4 1.6-.5 2.7-.8 4.9-1.1 6.8-1 1.8.1 3.1.5 4.1 1.1-2.9.7-4.7 2.1-6.1 3.8-7.2-.9-10.6-1.2-12.3 4.9-.3.9-.2 1.9.2 2.9.3.8.8 1.5 1.5 2.1.7.6 1.5.9 2.5.9.9 0 1.8-.3 2.8-.9 2.1-1.4 3.2-3.4 4.4-5.4.5-.9 1.1-1.9 1.7-2.7 1.1.1 2.2.3 3.6.4 9.5.9 24.8-1.7 38.3-7.1 11.2-4.4 21.2-10.8 25.9-18.5l1.8-3-2.9 1.9s-7.2 4.7-12.1 3.5h-.2c-4-.3-6.3 2-9.1 4.6-.5.5-.9.9-1.5 1.4 1.8-2.5 2.4-5.3 1.1-8.6l-.8-2-.7 2.1c-1.5 4.5-6.3 4.7-11 4.9-5.4.2-10.6.5-11.2 6.7-1 .1-2 .4-2.9.8-1.8.3-3.6 1.6-4.6 3.5zM434 103.8c-1.1 1.9-2.1 3.7-3.9 4.9-.7.5-1.3.7-1.8.6-.6 0-1.1-.2-1.5-.6-.4-.4-.8-.9-1-1.4-.2-.6-.3-1.3-.2-1.8 1.3-4.6 4-4.5 9.7-3.9-.5.8-.9 1.5-1.3 2.2zm26.9-14c.8.1 1.4.3 1.9.6.9.5 1.1 1 .8 1.4-.2.3-.4.5-.8.7-.4.2-.8.3-1.2.3-.9-.1-1.8-.9-1.9-3 .6-.1.9-.1 1.2 0zM408.2 95c-.5-.2-1-.2-1.5 0-.4.2-.8.5-1.1.9-.6 1-.8 2.6-.2 4.5.3 1.1 1.1 2.3 2.1 3.5-1 1.1-2.2 2.2-3.6 3-1.6 1-3.4 1.7-5.2 1.9-2.2.2-4.5-.3-6.2-2.3-.3-.3-.8-.4-1.1-.1-.3.3-.4.8-.1 1.1 2.1 2.3 4.8 3.1 7.6 2.8 2-.2 4.1-1 5.9-2.1 1.5-.9 2.8-2 3.8-3.2.9.9 1.9 1.8 2.9 2.6.1.1.2.1.3.2-3.3 2.7-7 4.5-11.6 4.4-6.1-.2-10.4-2.8-12.8-6-.8-1.1-1.5-2.3-1.9-3.4-.4-1.1-.6-2.2-.6-3.2 0-1.5.6-2.8 1.6-3.5 4.2-3.2 6.8.6 6.9.7.3.4.8.4 1.1.2.4-.3.4-.8.2-1.1 0 0-3.5-5.3-9.1-1-1.4 1.1-2.1 2.8-2.2 4.8 0 1.2.2 2.5.6 3.8.5 1.3 1.2 2.6 2.1 3.8 2.7 3.5 7.4 6.5 14 6.7 5.2.2 9.4-2 13-5 .7.4 1.3.8 2 1.2-1.2.9-2.8 1.9-4.9 2.6-.4.1-.6.6-.5 1 .1.4.6.6 1 .5 2.7-1 4.5-2.2 6-3.4 1.1.4 2.1.6 2.9.6 1.9-.1 3-.9 3.5-1.8.2-.4.3-.9.3-1.3 0-.5-.2-.9-.6-1.2-.5-.5-1.5-.8-2.6-.4-1.4.4-2.5 1.3-3.8 2.3-.7-.3-1.4-.7-2.1-1.2 2.5-2.4 4.8-5.1 7.1-7.9 3.1-3.8 6.2-7.5 9.6-9.8 5.4-3.6 8.2-3.8 11.7-4.1 2.8-.2 6-.5 11.2-2.5l3.4-1.3-3.6-.3c-3.7-.3-7-.8-9.8-1.2-7.5-1.1-12.2-1.8-15.5 2.4-.4-1.4-1.5-3-4.1-3.4-.1 0-.3 0-.6-.1-1.7-.2-4.9-.5-8-2.8l-1.1-.8-.2 1.3c-.5 3.7 1 5.9 2.4 7.9.2.3.5.7.7 1-.5-.3-1.1-.6-1.8-.7l-1-.2v1c0 2.1-.8 3.7-1.5 5.1-1.1 2.2-2 4-.2 6.4.4.6 1 1 1.6 1.2.7.2 1.4.3 2.2.1.8-.2 1.5-.6 2.3-1.1 1.6-1.2 3.1-3.2 4.1-6.2.6-1.8.7-3.5.3-4.9-.4-1.6-1.2-2.9-2.4-3.5-.4-.2-.9 0-1.1.4-.2.4 0 .9.4 1.1.7.4 1.3 1.2 1.5 2.4.2 1.2.2 2.6-.3 4.1-.9 2.7-2.2 4.5-3.5 5.5-.6.4-1.2.7-1.7.9-.5.1-1 .1-1.4 0-.3-.1-.6-.3-.9-.6-1.2-1.6-.5-3 .3-4.7.7-1.3 1.4-2.8 1.6-4.7.5.2.9.6 1 1.1.3.8.2 2.1-.1 3.9l-.7 3.8 2.2-3.2c2.7-4 1.2-6.2-.5-8.6-1-1.5-2.2-3.1-2.2-5.5 3 1.8 5.9 2.1 7.6 2.3.2 0 .3 0 .5.1 3.3.4 3 4 3 4l-.4 4 1.9-3.5c2.9-5.3 7.3-4.7 15.1-3.5 1.8.3 3.9.6 6.1.8-3 .8-5.2 1-7.2 1.2-3.7.3-6.7.6-12.4 4.4-3.7 2.4-6.8 6.2-10 10.1-2.3 2.8-4.6 5.6-7.2 8-.2-.1-.3-.3-.5-.4-1-.8-2-1.7-2.9-2.6 1.3-1.9 1.8-3.9 1.2-5.5-.5-2.4-1.4-3.5-2.3-3.8zm12.4 13.3c.5-.2.9-.1 1.1.1.1.1.1.1.1.2s0 .2-.1.4c-.3.5-.9.9-2.1.9-.4 0-.9 0-1.4-.2.8-.6 1.6-1.2 2.4-1.4zm-12.1-5.7c-.7-.9-1.3-1.9-1.5-2.7-.4-1.4-.3-2.5.1-3.1.1-.2.2-.3.3-.3h.3c.5.2 1.1.9 1.7 2.4.3 1.1-.1 2.4-.9 3.7zm41.2 3.5c0 .1.1.3.4.6.4.4.9.8 1.7 1.2 2.8 1.5 7.6 2.8 11.9 1.9 6-1.3 11.1-.4 13.2.1-.3-2.2-1.5-7.5-6.2-8.2-.4-.1-.7-.4-.6-.8.1-.4.4-.7.8-.6 7.3 1.1 7.5 10.5 7.5 10.6v1l-1-.3s-6-2-13.5-.4c-4.7 1-9.9-.4-12.9-2-.8-.5-1.5-1-2-1.4-.6-.6-.9-1.2-.8-1.8.1-.5.3-.8.8-1.1.3-.2.8-.1 1 .3.2.3.1.8-.3 1v-.1zm47.8 288.3c.3.4.8.4 1.1.2 0 0 5.3-3.5 1-9.1-1.1-1.4-2.8-2.1-4.8-2.2-1.2 0-2.5.2-3.8.6-1.3.5-2.6 1.2-3.8 2.1-3.5 2.7-6.5 7.4-6.7 14-.2 5.2 2 9.4 5 13-.4.7-.8 1.3-1.2 2-.9-1.2-1.9-2.8-2.6-4.9-.1-.4-.6-.6-1-.5-.4.1-.6.6-.5 1 1 2.7 2.2 4.5 3.4 6-.4 1.1-.6 2.1-.6 2.9.1 1.9.9 3 1.8 3.5.4.2.9.3 1.3.3.5 0 .9-.2 1.2-.6.5-.5.8-1.5.4-2.6-.4-1.4-1.3-2.5-2.3-3.8.3-.7.7-1.4 1.2-2.1 2.4 2.5 5.1 4.8 7.9 7.1 3.8 3.1 7.5 6.2 9.8 9.6 3.6 5.4 3.8 8.2 4.1 11.7.2 2.8.5 6 2.5 11.2l1.3 3.4.3-3.6c.3-3.7.8-7 1.2-9.8 1.1-7.5 1.8-12.2-2.4-15.5 1.4-.4 3-1.5 3.4-4.1 0-.1 0-.3.1-.6.2-1.7.5-4.9 2.8-8l.8-1.1-1.3-.2c-3.7-.5-5.9 1-7.9 2.4-.3.2-.7.5-1 .7.3-.5.6-1.1.7-1.8l.2-1h-1c-2.1 0-3.7-.8-5.1-1.5-2.2-1.1-4-2-6.4-.2-.6.4-1 1-1.2 1.6-.2.7-.3 1.4-.1 2.2.2.8.6 1.5 1.1 2.3 1.2 1.6 3.2 3.1 6.2 4.1 1.8.6 3.5.7 4.9.3 1.6-.4 2.9-1.2 3.5-2.4.2-.4 0-.9-.4-1.1-.4-.2-.9 0-1.1.4-.4.7-1.2 1.3-2.4 1.5-1.2.3-2.6.2-4.1-.3-2.7-.9-4.5-2.2-5.5-3.5-.4-.6-.7-1.2-.9-1.7-.1-.5-.1-1 0-1.4.1-.3.3-.6.6-.9 1.6-1.2 3-.5 4.7.3 1.3.7 2.8 1.4 4.7 1.6-.2.5-.6.9-1.1 1-.8.3-2.1.2-3.9-.1l-3.8-.7 3.2 2.2c4 2.7 6.2 1.2 8.6-.5 1.5-1 3.1-2.2 5.5-2.2-1.8 3-2.1 5.9-2.3 7.6 0 .2 0 .3-.1.5-.4 3.3-4 3-4 3l-4-.4 3.5 1.9c5.3 2.9 4.7 7.3 3.5 15.1-.3 1.8-.6 3.9-.8 6.1-.8-3-1-5.2-1.2-7.2-.3-3.7-.6-6.7-4.4-12.4-2.4-3.7-6.2-6.8-10.1-10-2.8-2.3-5.6-4.6-8-7.2.1-.2.3-.3.4-.5.8-1 1.7-2 2.6-2.9 1.9 1.3 3.9 1.8 5.5 1.2 2-.7 3-1.7 3.4-2.6.2-.5.2-1 0-1.5-.2-.4-.5-.8-.9-1.1-1-.6-2.6-.8-4.5-.2-1.1.3-2.3 1.1-3.5 2.1-1.1-1-2.2-2.2-3-3.6-1-1.6-1.7-3.4-1.9-5.2-.2-2.2.3-4.5 2.3-6.2.3-.3.4-.8.1-1.1-.3-.3-.8-.4-1.1-.1-2.3 2.1-3.1 4.8-2.8 7.6.2 2 1 4.1 2.1 5.9.9 1.5 2 2.8 3.2 3.8-.9.9-1.8 1.9-2.6 2.9-.1.1-.1.2-.2.3-2.7-3.3-4.5-7-4.4-11.6.2-6.1 2.8-10.4 6-12.8 1.1-.8 2.3-1.5 3.4-1.9 1.1-.4 2.2-.6 3.2-.6 1.5 0 2.8.6 3.5 1.6 3.2 4.2-.6 6.8-.7 6.9 0 .6 0 1.1.2 1.4zm-11.3 26.2c.2.5.1.9-.1 1.1-.1.1-.1.1-.2.1s-.2 0-.4-.1c-.5-.3-.9-.9-.9-2.1 0-.4 0-.9.2-1.4.7.7 1.2 1.5 1.4 2.4zm8.4-13.7c1.4-.4 2.5-.3 3.1.1.2.1.3.2.3.3v.3c-.2.5-.9 1.1-2.4 1.7-1 .4-2.3 0-3.7-.8 1-.8 1.9-1.4 2.7-1.6zm20.8 84.6v-.1c.3-4-2-6.3-4.6-9.1-.5-.5-.9-.9-1.4-1.5 2.5 1.8 5.3 2.4 8.6 1.1l2-.8-2.1-.7c-4.5-1.5-4.7-6.3-4.9-11-.2-5.4-.5-10.6-6.7-11.2-.1-1-.4-2-.8-2.9-.8-1.9-2.1-3.6-4-4.6-.8-.5-1.8-.8-2.9-.9-.4-.1-.8.3-.9.7-.1.4.3.8.7.9.9.1 1.6.4 2.3.7 1.5.8 2.6 2.2 3.2 3.8.3.7.5 1.5.6 2.2-3.2.1-4.4 1.7-4.5 3.3 0 .7.1 1.4.4 2 .3.6.8 1.1 1.4 1.4 1.2.6 2.6.4 3.6-1.5.4-.7.6-1.6.7-2.5 0-.4.1-.7.1-1.1 4.6.6 4.8 5 5 9.7.2 4.4.4 9 4 11.4-1.9.2-3.5-.3-5.1-1.4-2.2-1.5-4.1-4.2-6-7.2l-3.2-5.2 1.7 5.8c1.4 5 4.3 7.9 6.7 10.4 2.4 2.5 4.4 4.6 4.2 7.8-.8 3.3.7 7.4 2 10.2-6.1-5-11.3-13.6-15-23.1-5.3-13.3-7.9-28.3-7-37.6.1-.8.2-1.7.3-2.4 1.3 1.4 2.4 3.2 2.7 6l.2 1.5 1.1-.9c1.4-1.2 2.5-3.4 2.7-6.5v-.7c1.2 2.4 2.4 4 3.4 5.3 1.7 2.3 3 4.1 3.9 9.1.1.4.5.7.9.7.4-.1.7-.5.7-.9-.9-5.4-2.4-7.3-4.2-9.8-1.6-2.2-3.6-4.8-5.8-11-.2-.5-.3-1.1-.5-1.6l-1.5.5c.2.6.4 1.1.6 1.6.8 2.7 1.1 4.9 1 6.8-.1 1.8-.5 3.1-1.1 4.1-.7-2.9-2.1-4.7-3.8-6.1.9-7.2 1.2-10.6-4.9-12.3-.9-.3-1.9-.2-2.9.2-.8.3-1.5.8-2.1 1.5-.6.7-.9 1.5-.9 2.5 0 .9.3 1.8.9 2.8 1.4 2.1 3.4 3.2 5.4 4.4.9.5 1.9 1.1 2.7 1.7-.1 1.1-.3 2.2-.4 3.6-.9 9.5 1.7 24.8 7.1 38.3 4.4 11.2 10.8 21.2 18.5 25.9l3 1.8-1.9-2.9c.3-.1-4.4-7.2-3.2-12.2zm-10.6-30.6c-.1.8-.3 1.4-.6 1.9-.5.9-1 1-1.4.8-.3-.2-.5-.4-.7-.8-.2-.4-.3-.8-.3-1.2.1-.9.9-1.8 3-1.9v1.2zm-12-25.7c-.7-.5-1.4-.9-2.1-1.3-1.9-1.1-3.7-2.1-4.9-3.9-.5-.7-.7-1.3-.6-1.8 0-.6.2-1.1.6-1.5.4-.4.9-.8 1.4-1 .6-.2 1.3-.3 1.8-.2 4.5 1.3 4.5 4 3.8 9.7zm-3.1 13.8c.2.3.1.8-.3 1-.3.2-.8.1-1-.3 0-.1-.1-.1-.1-.1-.1 0-.3.1-.6.4-.4.4-.8.9-1.2 1.7-1.5 2.8-2.8 7.6-1.9 11.9 1.3 6 .4 11.1-.1 13.2 2.2-.3 7.5-1.5 8.2-6.2.1-.4.4-.7.8-.6.4.1.7.4.6.8-1.1 7.3-10.5 7.5-10.6 7.5h-1l.3-1s2-6 .4-13.5c-1-4.7.4-9.9 2-12.9.5-.8 1-1.5 1.4-2 .6-.6 1.2-.9 1.8-.8.7.2 1.1.4 1.3.9zm10.5 39c-2.7-3.5-7.4-6.5-14-6.7-5.2-.2-9.4 2-13 5-.7-.4-1.3-.8-2-1.2 1.2-.9 2.8-1.9 4.9-2.6.4-.1.6-.6.5-1-.1-.4-.6-.6-1-.5-2.7 1-4.5 2.2-6 3.4-1.1-.4-2.1-.6-2.9-.6-1.9.1-3 .9-3.5 1.8-.2.4-.3.9-.3 1.3 0 .5.2.9.6 1.2.5.5 1.5.8 2.6.4 1.4-.4 2.5-1.3 3.8-2.3.7.3 1.4.7 2.1 1.2-2.5 2.4-4.8 5.1-7.1 7.9-3.1 3.8-6.2 7.5-9.6 9.8-5.4 3.6-8.2 3.8-11.7 4.1-2.8.2-6 .5-11.2 2.5L429 513l3.6.3c3.7.3 7 .8 9.8 1.2 7.5 1.1 12.2 1.8 15.5-2.4.4 1.4 1.5 3 4.1 3.4.1 0 .3 0 .6.1 1.7.2 4.9.5 8 2.8l1.1.8.2-1.3c.5-3.7-1-5.9-2.4-7.9-.2-.3-.5-.7-.7-1 .5.3 1.1.6 1.8.7l1 .2v-1c0-2.1.8-3.7 1.5-5.1 1.1-2.2 2-4 .2-6.4-.4-.6-1-1-1.6-1.2-.7-.2-1.4-.3-2.2-.1-.8.2-1.5.6-2.3 1.1-1.5 1.2-3.1 3.2-4 6.2-.6 1.8-.7 3.5-.3 4.9.4 1.6 1.2 2.9 2.4 3.5.4.2.9 0 1.1-.4.2-.4 0-.9-.4-1.1-.7-.4-1.3-1.2-1.5-2.4-.2-1.2-.2-2.6.3-4.1.9-2.7 2.2-4.5 3.5-5.5.6-.4 1.2-.7 1.7-.9.5-.1 1-.1 1.4 0 .3.1.6.3.9.6 1.2 1.6.5 3-.3 4.7-.7 1.3-1.4 2.8-1.6 4.7-.5-.2-.9-.6-1-1.1-.3-.8-.2-2.1.1-3.9l.7-3.8-2.2 3.2c-2.7 4-1.2 6.2.5 8.6 1 1.5 2.2 3.1 2.2 5.5-3-1.8-5.9-2.1-7.6-2.3-.2 0-.3 0-.5-.1-3.3-.4-3-4-3-4l.4-4-1.9 3.5c-2.9 5.3-7.3 4.7-15.1 3.5-1.8-.3-3.9-.6-6.1-.8 3-.8 5.2-1 7.2-1.2 3.7-.3 6.7-.6 12.4-4.4 3.7-2.4 6.8-6.2 10-10.1 2.3-2.8 4.6-5.6 7.2-8 .2.1.3.3.5.4 1 .8 2 1.7 2.9 2.6-1.3 1.9-1.8 3.9-1.2 5.5.7 2 1.7 3 2.6 3.4.5.2 1 .2 1.5 0 .4-.2.8-.5 1.1-.9.6-1 .8-2.6.2-4.5-.3-1.1-1.1-2.3-2.1-3.5 1-1.1 2.2-2.2 3.6-3 1.6-1 3.4-1.7 5.2-1.9 2.2-.2 4.5.3 6.2 2.3.3.3.8.4 1.1.1.3-.3.4-.8.1-1.1-2.1-2.3-4.8-3.1-7.6-2.8-2 .2-4.1 1-5.9 2.1-1.5.9-2.8 2-3.8 3.2-.9-.9-1.9-1.8-2.9-2.6-.1-.1-.2-.1-.3-.2 3.3-2.7 7-4.5 11.6-4.4 6.1.2 10.4 2.8 12.8 6 .8 1.1 1.5 2.3 1.9 3.4.4 1.1.6 2.2.6 3.2 0 1.5-.6 2.8-1.6 3.5-4.2 3.2-6.8-.6-6.9-.7-.3-.4-.8-.4-1.1-.2-.4.3-.4.8-.2 1.1 0 0 3.5 5.3 9.1 1 1.4-1.1 2.1-2.8 2.2-4.8 0-1.2-.2-2.5-.6-3.8-.8-.9-1.5-2.2-2.5-3.4zm-34.5-1c-.5.2-.9.1-1.1-.1-.1-.1-.1-.1-.1-.2s0-.2.1-.4c.3-.5.9-.9 2.1-.9.4 0 .9 0 1.4.2-.8.6-1.6 1.1-2.4 1.4zm12.1 5.6c.7.9 1.3 1.9 1.5 2.7.4 1.4.3 2.5-.1 3.1-.1.2-.2.3-.3.3h-.3c-.5-.2-1.1-.9-1.7-2.4-.3-1 .1-2.3.9-3.7zm-42.3 9.7c.5-.8.8-1.8.9-2.9.1-.4-.3-.8-.7-.9-.4-.1-.8.3-.9.7-.1.9-.3 1.6-.7 2.3-.8 1.5-2.2 2.6-3.8 3.2-.7.3-1.5.5-2.2.6-.1-3.2-1.7-4.4-3.3-4.5-.7 0-1.4.1-2 .4-.6.3-1.1.8-1.4 1.4-.6 1.2-.4 2.6 1.5 3.6.7.4 1.6.6 2.5.7.4 0 .7.1 1.1.1-.6 4.6-5 4.8-9.7 5-4.4.2-9 .4-11.4 4-.2-1.8.3-3.5 1.4-5.1 1.5-2.2 4.2-4.1 7.2-6l5.2-3.2-5.8 1.7c-5 1.4-7.9 4.3-10.4 6.7-2.5 2.4-4.6 4.4-7.8 4.2-3.3-.8-7.4.7-10.2 2 5-6.1 13.6-11.3 23.1-15 13.3-5.3 28.3-7.9 37.6-7 .8.1 1.7.2 2.4.3-1.4 1.3-3.2 2.4-6 2.7l-1.4.2.9 1.1c1.2 1.4 3.4 2.5 6.5 2.7h.7c-2.4 1.2-4 2.4-5.3 3.4-2.3 1.7-4.1 3-9.1 3.9-.4.1-.7.5-.7.9.1.4.5.7.9.7 5.4-.9 7.3-2.4 9.8-4.2 2.2-1.6 4.8-3.6 11-5.8.5-.2 1.1-.3 1.6-.6l-.5-1.5c-.6.2-1.1.4-1.6.6-2.7.8-4.9 1.1-6.8 1-1.8-.1-3.1-.5-4.1-1.1 2.9-.7 4.7-2.1 6.1-3.8 7.2.9 10.6 1.2 12.3-4.9.3-.9.2-1.9-.2-2.9-.3-.8-.8-1.5-1.5-2.1-.7-.6-1.5-.9-2.5-.9-.9 0-1.8.3-2.8.9-2.1 1.4-3.2 3.4-4.4 5.4-.5.9-1.1 1.9-1.7 2.7-1.1-.1-2.2-.3-3.6-.4-9.5-.9-24.8 1.7-38.3 7.1-11.2 4.4-21.2 10.8-25.9 18.5l-1.8 3 2.9-1.9s7.2-4.7 12.1-3.5h.2c4 .3 6.3-2 9.1-4.6.5-.5.9-.9 1.5-1.4-1.8 2.5-2.4 5.3-1.1 8.6l.8 2 .7-2.1c1.5-4.5 6.3-4.7 11-4.9 5.4-.2 10.6-.5 11.2-6.7 1-.1 2-.4 2.9-.8 1.7-.4 3.5-1.7 4.5-3.6zm16.8-10.9c1.1-1.9 2.1-3.7 3.9-4.9.7-.5 1.3-.7 1.8-.6.6 0 1.1.2 1.5.6.4.4.8.9 1 1.4.2.6.3 1.3.2 1.8-1.3 4.6-4 4.5-9.7 3.9.5-.7.9-1.5 1.3-2.2zm-26.9 14.1c-.8-.1-1.4-.3-1.9-.6-.9-.5-1.1-1-.8-1.4.1-.3.4-.5.8-.7.4-.2.8-.3 1.2-.3.9.1 1.8.9 1.9 3-.6.1-.9 0-1.2 0zm11.1-16.3c.1 0 .1-.1.1-.1 0-.1-.1-.3-.4-.6-.4-.4-.9-.8-1.7-1.2-2.8-1.5-7.6-2.8-11.9-1.9-6 1.3-11.1.4-13.2-.1.3 2.2 1.5 7.5 6.2 8.2.4.1.7.4.6.8-.1.4-.4.7-.8.6-7.3-1.1-7.5-10.5-7.5-10.6v-1l1 .3s6 2 13.5.4c4.7-1 9.9.4 12.9 2 .8.5 1.5 1 2 1.4.6.6.9 1.2.8 1.8-.1.5-.3.8-.8 1.1-.3.2-.8.1-1-.3-.2-.2-.1-.6.2-.8zM98.7 473.3c.6-.4 1-1 1.2-1.6.2-.7.2-1.4.1-2.2-.2-.8-.6-1.5-1.1-2.3-1.2-1.6-3.2-3.1-6.2-4.1-1.8-.6-3.5-.7-4.9-.3-1.6.4-2.9 1.2-3.5 2.4-.2.4 0 .9.4 1.1.4.2.9 0 1.1-.4.4-.7 1.2-1.3 2.4-1.5 1.2-.3 2.6-.2 4.1.3 2.7.9 4.5 2.2 5.5 3.5.4.6.7 1.2.9 1.7.1.5.1 1 0 1.4-.1.3-.3.6-.6.9-1.6 1.2-3 .5-4.7-.3-1.3-.7-2.8-1.4-4.7-1.6.2-.5.6-.9 1.1-1 .8-.3 2.1-.2 3.9.1l3.8.7-3.2-2.2c-4-2.7-6.2-1.2-8.6.5-1.5 1-3.1 2.2-5.5 2.2 1.8-3 2.1-5.9 2.3-7.6 0-.2 0-.3.1-.5.4-3.3 4-3 4-3l4 .4-3.5-1.9c-5.3-2.9-4.7-7.3-3.5-15.1.3-1.8.6-3.9.8-6.1.8 3 1 5.2 1.2 7.2.3 3.7.6 6.7 4.4 12.4 2.4 3.7 6.2 6.8 10.1 10 2.8 2.3 5.6 4.6 8 7.2-.1.2-.3.3-.4.5-.8 1-1.7 2-2.6 2.9-1.9-1.3-3.9-1.8-5.5-1.2-2 .7-3 1.7-3.4 2.6-.2.5-.2 1 0 1.5.2.4.5.8.9 1.1 1 .6 2.6.8 4.5.2 1.1-.3 2.3-1.1 3.5-2.1 1.1 1 2.2 2.2 3 3.6 1 1.6 1.7 3.4 1.9 5.2.2 2.2-.3 4.5-2.3 6.2-.3.3-.4.8-.1 1.1.3.3.8.4 1.1.1 2.3-2.1 3.1-4.8 2.8-7.6-.2-2-1-4.1-2.1-5.9-.9-1.5-2-2.8-3.2-3.8.9-.9 1.8-1.9 2.6-2.9.1-.1.1-.2.2-.3 2.7 3.3 4.5 7 4.4 11.6-.2 6.1-2.8 10.4-6 12.8-1.1.8-2.3 1.5-3.4 1.9-1.1.4-2.2.6-3.2.6-1.5 0-2.8-.6-3.5-1.6-3.2-4.2.6-6.8.7-6.9.4-.3.4-.8.2-1.1-.3-.4-.8-.4-1.1-.2 0 0-5.3 3.5-1 9.1 1.1 1.4 2.8 2.1 4.8 2.2 1.2 0 2.5-.2 3.8-.6 1.3-.5 2.6-1.2 3.8-2.1 3.5-2.7 6.5-7.4 6.7-14 .2-5.2-2-9.4-5-13 .4-.7.8-1.3 1.2-2 .9 1.2 1.9 2.8 2.6 4.9.1.4.6.6 1 .5.4-.1.6-.6.5-1-1-2.7-2.2-4.5-3.4-6 .4-1.1.6-2.1.6-2.9-.1-1.9-.9-3-1.8-3.5-.4-.2-.9-.3-1.3-.3-.5 0-.9.2-1.2.6-.5.5-.8 1.5-.4 2.6.4 1.4 1.3 2.5 2.3 3.8-.3.7-.7 1.4-1.2 2.1-2.4-2.5-5.1-4.8-7.9-7.1-3.8-3.1-7.5-6.2-9.8-9.6-3.6-5.4-3.8-8.2-4.1-11.7-.2-2.8-.5-6-2.5-11.2L83 429l-.3 3.6c-.3 3.7-.8 7-1.2 9.8-1.1 7.5-1.8 12.2 2.4 15.5-1.4.4-3 1.5-3.4 4.1 0 .1 0 .3-.1.6-.2 1.7-.5 4.9-2.8 8l-.8 1.1 1.3.2c3.7.5 5.9-1 7.9-2.4.3-.2.7-.5 1-.7-.3.5-.6 1.1-.7 1.8l-.2 1h1c2.1 0 3.7.8 5.1 1.5 2.3 1.1 4.1 2 6.5.2zm2 6.1c-1.4.4-2.5.3-3.1-.1-.2-.1-.3-.2-.3-.3v-.3c.2-.5.9-1.1 2.4-1.7 1-.4 2.3 0 3.7.8-1 .8-1.9 1.4-2.7 1.6zm8.3-13.7c-.2-.5-.1-.9.1-1.1.1-.1.1-.1.2-.1s.2 0 .4.1c.5.3.9.9.9 2.1 0 .4 0 .9-.2 1.4-.6-.7-1.1-1.5-1.4-2.4zm-31.7-61.4l-2 .8 2.1.7c4.5 1.5 4.7 6.3 4.9 11 .2 5.4.5 10.6 6.7 11.2.1 1 .4 2 .8 2.9.8 1.9 2.1 3.6 4 4.6.8.5 1.8.8 2.9.9.4.1.8-.3.9-.7.1-.4-.3-.8-.7-.9-.9-.1-1.6-.4-2.3-.7-1.5-.8-2.6-2.2-3.2-3.8-.3-.7-.5-1.5-.6-2.2 3.2-.1 4.4-1.7 4.5-3.3 0-.7-.1-1.4-.4-2-.3-.6-.8-1.1-1.4-1.4-1.2-.6-2.6-.4-3.6 1.5-.4.7-.6 1.6-.7 2.5 0 .4-.1.7-.1 1.1-4.6-.6-4.8-5-5-9.7-.2-4.4-.4-9-4-11.4 1.9-.2 3.5.3 5.1 1.4 2.2 1.5 4.1 4.2 6 7.2l3.2 5.2-1.7-5.8c-1.4-5-4.3-7.9-6.7-10.4-2.4-2.5-4.4-4.6-4.2-7.8.8-3.3-.7-7.4-2-10.2 6.1 5 11.3 13.6 15 23.1 5.3 13.3 7.9 28.3 7 37.6-.1.8-.2 1.7-.3 2.4-1.3-1.4-2.4-3.2-2.7-6l-.2-1.5-1.1.9c-1.4 1.2-2.5 3.4-2.7 6.5v.7c-1.2-2.4-2.4-4-3.4-5.3-1.7-2.3-3-4.1-3.9-9.1-.1-.4-.5-.7-.9-.7-.4.1-.7.5-.7.9.9 5.4 2.4 7.3 4.2 9.8 1.6 2.2 3.6 4.8 5.8 11 .2.5.3 1.1.6 1.6l1.5-.5c-.2-.6-.4-1.1-.5-1.6-.8-2.7-1.1-4.9-1-6.8.1-1.8.5-3.1 1.1-4.1.7 2.9 2.1 4.7 3.8 6.1-.9 7.2-1.2 10.6 4.9 12.3.9.3 1.9.2 2.9-.2.8-.3 1.5-.8 2.1-1.5.6-.7.9-1.5.9-2.5 0-.9-.3-1.8-.9-2.8-1.4-2.1-3.4-3.2-5.4-4.4-.9-.5-1.9-1.1-2.7-1.7.1-1.1.3-2.2.4-3.6.9-9.5-1.7-24.8-7.1-38.3-4.4-11.2-10.8-21.2-18.5-25.9l-3-1.8 1.9 2.9s4.7 7.2 3.5 12.1v.2c-.3 4 2 6.3 4.6 9.1.5.5.9.9 1.4 1.5-3.1-1.8-5.9-2.4-9.1-1.1zm13.2 21.1c.1-.8.3-1.4.6-1.9.5-.9 1-1 1.4-.8.3.2.5.4.7.8.2.4.3.8.3 1.2-.1.9-.9 1.8-3 1.9-.1-.5 0-.9 0-1.2zm11.9 25.7c.7.5 1.4.9 2.1 1.3 1.9 1.1 3.7 2.1 4.9 3.9.5.7.7 1.3.6 1.8 0 .6-.2 1.1-.6 1.5-.4.4-.9.8-1.4 1-.6.2-1.3.3-1.8.2-4.4-1.3-4.4-4-3.8-9.7zm9.9-42.2s-2 6-.4 13.5c1 4.7-.4 9.9-2 12.9-.5.8-1 1.5-1.4 2-.6.6-1.2.9-1.8.8-.5-.1-.8-.3-1.1-.8-.2-.3-.1-.8.3-1 .3-.2.8-.1 1 .3 0 .1.1.1.1.1.1 0 .3-.1.6-.4.4-.4.8-.9 1.2-1.7 1.5-2.8 2.8-7.6 1.9-11.9-1.3-6-.4-11.1.1-13.2-2.2.3-7.5 1.5-8.2 6.2-.1.4-.4.7-.8.6-.4-.1-.7-.4-.6-.8 1.1-7.3 10.5-7.5 10.6-7.5h1l-.5.9zm226.2 93.4c.5-.8.8-1.8.9-2.9.1-.4-.3-.8-.7-.9-.4-.1-.8.3-.9.7-.1.9-.4 1.6-.7 2.3-.8 1.5-2.2 2.6-3.8 3.2-.7.3-1.5.5-2.2.6-.1-3.2-1.7-4.4-3.3-4.5-.7 0-1.4.1-2 .4-.6.3-1.1.8-1.4 1.4-.6 1.2-.4 2.6 1.5 3.6.7.4 1.6.6 2.5.7.4 0 .7.1 1.1.1-.6 4.6-5 4.8-9.7 5-4.4.2-9 .4-11.4 4-.2-1.8.3-3.5 1.4-5.1 1.5-2.2 4.2-4.1 7.2-6l5.2-3.2-5.8 1.7c-5 1.4-7.9 4.3-10.4 6.7-2.5 2.4-4.6 4.4-7.8 4.2-3.3-.8-7.4.7-10.2 2 5-6.1 13.6-11.3 23.1-15 13.3-5.3 28.3-7.9 37.6-7 .8.1 1.7.2 2.4.3-1.4 1.3-3.2 2.4-6 2.7l-1.5.2.9 1.1c1.2 1.4 3.4 2.5 6.5 2.7h.7c-2.4 1.2-4 2.4-5.3 3.4-2.3 1.7-4.1 3-9.1 3.9-.4.1-.7.5-.7.9.1.4.5.7.9.7 5.4-.9 7.3-2.4 9.8-4.2 2.2-1.6 4.8-3.6 11-5.8.5-.2 1.1-.3 1.6-.6l-.5-1.5c-.6.2-1.1.4-1.6.6-2.7.8-4.9 1.1-6.8 1-1.8-.1-3.1-.5-4.1-1.1 2.9-.7 4.7-2.1 6.1-3.8 7.2.9 10.6 1.2 12.3-4.9.3-.9.2-1.9-.2-2.9-.3-.8-.8-1.5-1.5-2.1-.7-.6-1.5-.9-2.5-.9-.9 0-1.8.3-2.8.9-2.1 1.4-3.2 3.4-4.4 5.4-.5.9-1.1 1.9-1.7 2.7-1.1-.1-2.2-.3-3.6-.4-9.5-.9-24.8 1.7-38.3 7.1-11.2 4.4-21.2 10.8-25.9 18.5l-1.8 3 2.9-1.9s7.2-4.7 12.1-3.5h.2c4 .3 6.3-2 9.1-4.6.5-.5.9-.9 1.5-1.4-1.8 2.5-2.4 5.3-1.1 8.6l.8 2 .7-2.1c1.5-4.5 6.3-4.7 11-4.9 5.4-.2 10.6-.5 11.2-6.7 1-.1 2-.4 2.9-.8 1.8-.4 3.5-1.7 4.6-3.6zm16.8-10.9c1.1-1.9 2.1-3.7 3.9-4.9.7-.5 1.3-.7 1.8-.6.6 0 1.1.2 1.5.6.4.4.8.9 1 1.4.2.6.3 1.3.2 1.8-1.3 4.6-4 4.5-9.7 3.9.5-.7.9-1.5 1.3-2.2zm-26.9 14.1c-.8-.1-1.4-.3-1.9-.6-.9-.5-1-1-.8-1.4.2-.3.4-.5.8-.7.4-.2.8-.3 1.2-.3.9.1 1.8.9 1.9 3-.6.1-.9 0-1.2 0zm52.7-5.2c.5.2 1 .2 1.5 0 .4-.2.8-.5 1.1-.9.6-1 .8-2.6.2-4.5-.3-1.1-1.1-2.3-2.1-3.5 1-1.1 2.2-2.2 3.6-3 1.6-1 3.4-1.7 5.2-1.9 2.2-.2 4.5.3 6.2 2.3.3.3.8.4 1.1.1.3-.3.4-.8.1-1.1-2.1-2.3-4.8-3.1-7.6-2.8-2 .2-4.1 1-5.9 2.1-1.5.9-2.8 2-3.8 3.2-.9-.9-1.9-1.8-2.9-2.6-.1-.1-.2-.1-.3-.2 3.3-2.7 7-4.5 11.6-4.4 6.1.2 10.4 2.8 12.8 6 .8 1.1 1.5 2.3 1.9 3.4.4 1.1.6 2.2.5 3.2 0 1.5-.6 2.8-1.6 3.5-4.2 3.2-6.8-.6-6.9-.7-.3-.4-.8-.4-1.1-.2-.4.3-.4.8-.2 1.1 0 0 3.5 5.3 9.1 1 1.4-1.1 2.1-2.8 2.2-4.8 0-1.2-.2-2.5-.6-3.8-.5-1.3-1.2-2.6-2.1-3.8-2.7-3.5-7.4-6.5-14-6.7-5.2-.2-9.4 2-13 5-.7-.4-1.3-.8-2-1.2 1.2-.9 2.8-1.9 4.9-2.6.4-.1.6-.6.5-1-.1-.4-.6-.6-1-.5-2.7 1-4.5 2.2-6 3.4-1.1-.4-2.1-.6-2.9-.6-1.9.1-3 .9-3.5 1.8-.2.4-.3.9-.3 1.3 0 .5.2.9.6 1.2.5.5 1.5.8 2.6.4 1.4-.4 2.5-1.3 3.8-2.3.7.3 1.4.7 2.1 1.2-2.5 2.4-4.8 5.1-7.1 7.9-3.1 3.8-6.2 7.5-9.6 9.8-5.4 3.6-8.2 3.8-11.7 4.1-2.8.2-6 .5-11.2 2.5L332 513l3.6.3c3.7.3 7 .8 9.8 1.2 7.5 1.1 12.2 1.8 15.5-2.4.4 1.4 1.5 3 4.1 3.4.1 0 .3 0 .6.1 1.7.2 4.9.5 8 2.8l1.1.8.2-1.3c.5-3.7-1-5.9-2.4-7.9-.2-.3-.5-.7-.7-1 .5.3 1.1.6 1.8.7l1 .2v-1c0-2.1.8-3.7 1.5-5.1 1.1-2.2 2-4 .2-6.4-.4-.6-1-1-1.6-1.2-.7-.2-1.4-.3-2.2-.1-.8.2-1.5.6-2.3 1.1-1.6 1.2-3.1 3.2-4.1 6.2-.6 1.8-.7 3.5-.3 4.9.4 1.6 1.2 2.9 2.4 3.5.4.2.9 0 1.1-.4.2-.4 0-.9-.4-1.1-.7-.4-1.3-1.2-1.5-2.4-.3-1.2-.2-2.6.3-4.1.9-2.7 2.2-4.5 3.5-5.5.6-.4 1.2-.7 1.7-.9.5-.1 1-.1 1.4 0 .3.1.6.3.9.6 1.2 1.6.5 3-.3 4.7-.7 1.3-1.4 2.8-1.6 4.7-.5-.2-.9-.6-1-1.1-.3-.8-.2-2.1.1-3.9l.7-3.8-2.2 3.2c-2.7 4-1.2 6.2.5 8.6 1 1.5 2.2 3.1 2.2 5.5-3-1.8-5.9-2.1-7.6-2.3-.2 0-.3 0-.5-.1-3.3-.4-3-4-3-4l.4-4-1.9 3.5c-2.9 5.3-7.3 4.7-15.1 3.5-1.8-.3-3.9-.6-6.1-.8 3-.8 5.2-1 7.2-1.2 3.7-.3 6.7-.6 12.4-4.4 3.7-2.4 6.8-6.2 10-10.1 2.3-2.8 4.6-5.6 7.2-8 .2.1.3.3.5.4 1 .8 2 1.7 2.9 2.6-1.3 1.9-1.8 3.9-1.2 5.5.5 2.4 1.4 3.4 2.3 3.8zM368.7 487c-.5.2-.9.1-1.1-.1-.1-.1-.1-.1-.1-.2s0-.2.1-.4c.3-.5.9-.9 2.1-.9.4 0 .9 0 1.4.2-.8.6-1.6 1.1-2.4 1.4zm12.1 5.6c.7.9 1.3 1.9 1.5 2.7.4 1.4.3 2.5-.1 3.1-.1.2-.2.3-.3.3h-.3c-.5-.2-1.1-.9-1.7-2.4-.3-1 .1-2.3.9-3.7zm-40.6-2.1c-.3.2-.8.1-1-.3-.2-.3-.1-.8.3-1 .1 0 .1-.1.1-.1 0-.1-.1-.3-.4-.6-.4-.4-.9-.8-1.7-1.2-2.8-1.5-7.6-2.8-11.9-1.9-6 1.3-11.1.4-13.2-.1.3 2.2 1.5 7.5 6.2 8.2.4.1.7.4.6.8-.1.4-.4.7-.8.6-7.3-1.1-7.5-10.5-7.5-10.6v-1l1 .3s6 2 13.5.4c4.7-1 9.9.4 12.9 2 .8.5 1.5 1 2 1.4.6.6.9 1.2.8 1.8-.1.6-.4 1-.9 1.3zM79.9 297.7v.1c-.3 4 2 6.3 4.6 9.1.5.5.9.9 1.4 1.5-2.5-1.8-5.3-2.4-8.6-1.1l-2 .8 2.1.7c4.5 1.5 4.7 6.3 4.9 11 .2 5.4.5 10.6 6.7 11.2.1 1 .4 2 .8 2.9.8 1.9 2.1 3.6 4 4.6.8.5 1.8.8 2.9.9.4.1.8-.3.9-.7.1-.4-.3-.8-.7-.9-.9-.1-1.6-.3-2.3-.7-1.5-.8-2.6-2.2-3.2-3.8-.3-.7-.5-1.5-.6-2.2 3.2-.1 4.4-1.7 4.5-3.3 0-.7-.1-1.4-.4-2-.3-.6-.8-1.1-1.4-1.4-1.2-.6-2.6-.4-3.6 1.5-.4.7-.6 1.6-.7 2.5 0 .4-.1.7-.1 1.1-4.6-.6-4.8-5-5-9.7-.2-4.4-.4-9-4-11.4 1.9-.2 3.5.3 5.1 1.4 2.2 1.5 4.1 4.2 6 7.2l3.2 5.2-1.7-5.8c-1.4-5-4.3-7.9-6.7-10.4-2.4-2.5-4.4-4.6-4.2-7.8.8-3.3-.7-7.4-2-10.2 6.1 5 11.3 13.6 15 23.1 5.3 13.3 7.9 28.3 7 37.6-.1.8-.2 1.7-.3 2.4-1.3-1.4-2.4-3.2-2.7-6l-.2-1.5-1.1.9c-1.4 1.2-2.5 3.4-2.7 6.5v.7c-1.2-2.4-2.4-4-3.4-5.3-1.7-2.3-3-4.1-3.9-9.1-.1-.4-.5-.7-.9-.7-.4.1-.7.5-.7.9.9 5.4 2.4 7.3 4.2 9.8 1.6 2.2 3.6 4.8 5.8 11 .2.5.3 1.1.6 1.6l1.5-.5c-.2-.6-.4-1.1-.5-1.6-.8-2.7-1.1-4.9-1-6.8.1-1.8.5-3.1 1.1-4.1.7 2.9 2.1 4.7 3.8 6.1-.9 7.2-1.2 10.6 4.9 12.3.9.3 1.9.2 2.9-.2.8-.3 1.5-.8 2.1-1.5.6-.7.9-1.5.9-2.5 0-.9-.3-1.8-.9-2.8-1.4-2.1-3.4-3.2-5.4-4.4-.9-.5-1.9-1.1-2.7-1.7.1-1.1.3-2.2.4-3.6.9-9.5-1.7-24.8-7.1-38.3-4.4-11.2-10.8-21.2-18.5-25.9l-3-1.8 1.9 2.9c-.5.2 4.2 7.3 3 12.2zm10.6 30.7c.1-.8.3-1.4.6-1.9.5-.9 1-1.1 1.4-.8.3.2.5.4.7.8.2.4.3.8.3 1.2-.1.9-.9 1.8-3 1.9-.1-.5 0-.9 0-1.2zm11.9 25.7c.7.5 1.4.9 2.1 1.3 1.9 1.1 3.7 2.1 4.9 3.9.5.7.7 1.3.6 1.8 0 .6-.2 1.1-.6 1.5-.4.4-.9.8-1.4 1-.6.2-1.3.3-1.8.2-4.4-1.3-4.4-4-3.8-9.7zm11.1 25.1c.1.4.6.6 1 .5.4-.1.6-.6.5-1-1-2.7-2.2-4.5-3.4-6 .4-1.1.6-2.1.6-2.9-.1-1.9-.9-3-1.8-3.5-.4-.2-.9-.3-1.3-.3-.5 0-.9.2-1.2.6-.5.5-.8 1.5-.4 2.6.4 1.4 1.3 2.5 2.3 3.8-.3.7-.7 1.4-1.2 2.1-2.4-2.5-5.1-4.8-7.9-7.1-3.8-3.1-7.5-6.2-9.8-9.6-3.6-5.4-3.8-8.2-4.1-11.7-.2-2.8-.5-6-2.5-11.2L83 332l-.3 3.6c-.3 3.7-.8 7-1.2 9.8-1.1 7.5-1.8 12.2 2.4 15.5-1.4.4-3 1.5-3.4 4.1 0 .1 0 .3-.1.6-.2 1.7-.5 4.9-2.8 8l-.8 1.1 1.3.2c3.7.5 5.9-1 7.9-2.4.3-.2.7-.5 1-.7-.3.5-.6 1.1-.7 1.8l-.2 1h1c2.1 0 3.7.8 5.1 1.5 2.2 1.1 4 2 6.4.2.6-.4 1-1 1.2-1.6.2-.7.2-1.4.1-2.2-.2-.8-.6-1.5-1.1-2.3-1.2-1.6-3.2-3.1-6.2-4.1-1.8-.6-3.5-.7-4.9-.3-1.6.4-2.9 1.2-3.5 2.4-.2.4 0 .9.4 1.1.4.2.9 0 1.1-.4.4-.7 1.2-1.3 2.4-1.5 1.2-.2 2.6-.2 4.1.3 2.7.9 4.5 2.2 5.5 3.5.4.6.7 1.2.9 1.7.1.5.1 1 0 1.4-.1.3-.3.6-.6.9-1.6 1.2-3 .5-4.7-.3-1.3-.7-2.8-1.4-4.7-1.6.2-.5.6-.9 1.1-1 .8-.3 2.1-.2 3.9.1l3.8.7-3.2-2.2c-4-2.7-6.2-1.2-8.6.5-1.5 1-3.1 2.2-5.5 2.2 1.8-3 2.1-5.9 2.3-7.6 0-.2 0-.3.1-.5.4-3.3 4-3 4-3l4 .4L87 361c-5.3-2.9-4.7-7.3-3.5-15.1.3-1.8.6-3.9.8-6.1.8 3 1 5.2 1.2 7.2.3 3.7.6 6.7 4.4 12.4 2.4 3.7 6.2 6.8 10.1 10 2.8 2.3 5.6 4.6 8 7.2-.1.2-.3.3-.4.5-.8 1-1.7 2-2.6 2.9-1.9-1.3-3.9-1.8-5.5-1.2-2 .7-3 1.7-3.4 2.6-.2.5-.2 1 0 1.5.2.4.5.8.9 1.1 1 .6 2.6.8 4.5.2 1.1-.3 2.3-1.1 3.5-2.1 1.1 1 2.2 2.2 3 3.6 1 1.6 1.7 3.4 1.9 5.2.2 2.2-.3 4.5-2.3 6.2-.3.3-.4.8-.1 1.1.3.3.8.4 1.1.1 2.3-2.1 3.1-4.8 2.8-7.6-.2-2-1-4.1-2.1-5.9-.9-1.5-2-2.8-3.2-3.8.9-.9 1.8-1.9 2.6-2.9.1-.1.1-.2.2-.3 2.7 3.3 4.5 7 4.4 11.6-.2 6.1-2.8 10.4-6 12.8-1.1.8-2.3 1.5-3.4 1.9-1.1.4-2.2.6-3.2.6-1.5 0-2.8-.6-3.5-1.6-3.2-4.2.6-6.8.7-6.9.4-.3.4-.8.2-1.1-.3-.4-.8-.4-1.1-.2 0 0-5.3 3.5-1 9.1 1.1 1.4 2.8 2.1 4.8 2.2 1.2 0 2.5-.2 3.8-.6 1.3-.5 2.6-1.2 3.8-2.1 3.5-2.7 6.5-7.4 6.7-14 .2-5.2-2-9.4-5-13 .4-.7.8-1.3 1.2-2 .5 1.1 1.4 2.6 2.2 4.7zm-12.8 3.2c-1.4.4-2.5.3-3.1-.1-.2-.1-.3-.2-.3-.3v-.3c.2-.5.9-1.1 2.4-1.7 1-.4 2.3 0 3.7.8-1 .8-1.9 1.3-2.7 1.6zm9.7-11.2c-.6-.8-1.1-1.6-1.4-2.5-.2-.5-.1-.9.1-1.1.1-.1.1-.1.2-.1s.2 0 .4.1c.5.3.9.9.9 2.1 0 .5 0 1-.2 1.5zm-3.5-31.5c.1 0 .3-.1.6-.4.4-.4.8-.9 1.2-1.7 1.5-2.8 2.8-7.6 1.9-11.9-1.3-6-.4-11.1.1-13.2-2.2.3-7.5 1.5-8.2 6.2-.1.4-.4.7-.8.6-.4-.1-.7-.4-.6-.8 1.1-7.3 10.5-7.5 10.6-7.5h1l-.3 1s-2 6-.4 13.5c1 4.7-.4 9.9-2 12.9-.5.8-1 1.5-1.4 2-.6.6-1.2.9-1.8.8-.5-.1-.8-.3-1.1-.8-.2-.3-.1-.8.3-1 .3-.2.8-.1 1 .3-.2-.1-.1 0-.1 0zm134.6 162.6c.5-.8.8-1.8.9-2.9.1-.4-.3-.8-.7-.9-.4-.1-.8.3-.9.7-.1.9-.4 1.6-.7 2.3-.8 1.5-2.2 2.6-3.8 3.2-.7.3-1.5.5-2.2.6-.1-3.2-1.7-4.4-3.3-4.5-.7 0-1.4.1-2 .4-.6.3-1.1.8-1.4 1.4-.6 1.2-.4 2.6 1.5 3.6.7.4 1.6.6 2.5.7.4 0 .7.1 1.1.1-.6 4.6-5 4.8-9.7 5-4.4.2-9 .4-11.4 4-.2-1.8.3-3.5 1.4-5.1 1.5-2.2 4.2-4.1 7.2-6l5.2-3.2-5.8 1.7c-5 1.4-7.9 4.3-10.4 6.7-2.5 2.4-4.6 4.4-7.8 4.2-3.3-.8-7.4.7-10.2 2 5-6.1 13.6-11.3 23.1-15 13.3-5.3 28.3-7.9 37.6-7 .8.1 1.7.2 2.4.3-1.4 1.3-3.2 2.4-6 2.7l-1.5.2.9 1.1c1.2 1.4 3.4 2.5 6.5 2.7h.7c-2.4 1.2-4 2.4-5.3 3.4-2.3 1.7-4.1 3-9.1 3.9-.4.1-.7.5-.7.9.1.4.5.7.9.7 5.4-.9 7.3-2.4 9.8-4.2 2.2-1.6 4.8-3.6 11-5.8.5-.2 1.1-.3 1.6-.6l-.5-1.5c-.6.2-1.1.4-1.6.6-2.7.8-4.9 1.1-6.8 1-1.8-.1-3.1-.5-4.1-1.1 2.9-.7 4.7-2.1 6.1-3.8 7.2.9 10.6 1.2 12.3-4.9.3-.9.2-1.9-.2-2.9-.3-.8-.8-1.5-1.5-2.1-.7-.6-1.5-.9-2.5-.9-.9 0-1.8.3-2.8.9-2.1 1.4-3.2 3.4-4.4 5.4-.5.9-1.1 1.9-1.7 2.7-1.1-.1-2.2-.3-3.6-.4-9.5-.9-24.8 1.7-38.3 7.1-11.2 4.4-21.2 10.8-25.9 18.5l-1.8 3 2.9-1.9s7.2-4.7 12.1-3.5h.2c4 .3 6.3-2 9.1-4.6.5-.5.9-.9 1.5-1.4-1.8 2.5-2.4 5.3-1.1 8.6l.8 2 .7-2.1c1.5-4.5 6.3-4.7 11-4.9 5.4-.2 10.6-.5 11.2-6.7 1-.1 2-.4 2.9-.8 1.8-.4 3.5-1.7 4.6-3.6zm16.8-10.9c1.1-1.9 2.1-3.7 3.9-4.9.7-.5 1.3-.7 1.8-.6.6 0 1.1.2 1.5.6.4.4.8.9 1 1.4.2.6.3 1.3.2 1.8-1.3 4.6-4 4.5-9.7 3.9.5-.7.9-1.5 1.3-2.2zm-26.9 14.1c-.8-.1-1.4-.3-1.9-.6-.9-.5-1-1-.8-1.4.2-.3.4-.5.8-.7.4-.2.8-.3 1.2-.3.9.1 1.8.9 1.9 3-.6.1-.9 0-1.2 0zm52.7-5.2c.5.2 1 .2 1.5 0 .4-.2.8-.5 1.1-.9.6-1 .8-2.6.2-4.5-.3-1.1-1.1-2.3-2.1-3.5 1-1.1 2.2-2.2 3.6-3 1.6-1 3.4-1.7 5.2-1.9 2.2-.2 4.5.3 6.2 2.3.3.3.8.4 1.1.1.3-.3.4-.8.1-1.1-2.1-2.3-4.8-3.1-7.6-2.8-2 .2-4.1 1-5.9 2.1-1.5.9-2.8 2-3.8 3.2-.9-.9-1.9-1.8-2.9-2.6-.1-.1-.2-.1-.3-.2 3.3-2.7 7-4.5 11.6-4.4 6.1.2 10.4 2.8 12.8 6 .8 1.1 1.5 2.3 1.9 3.4.4 1.1.6 2.2.6 3.2 0 1.5-.6 2.8-1.6 3.5-4.2 3.2-6.8-.6-6.9-.7-.3-.4-.8-.4-1.1-.2-.4.3-.4.8-.2 1.1 0 0 3.5 5.3 9.1 1 1.4-1.1 2.1-2.8 2.2-4.8 0-1.2-.2-2.5-.6-3.8-.5-1.3-1.2-2.6-2.1-3.8-2.7-3.5-7.4-6.5-14-6.7-5.2-.2-9.4 2-13 5-.7-.4-1.3-.8-2-1.2 1.2-.9 2.8-1.9 4.9-2.6.4-.1.6-.6.5-1-.1-.4-.6-.6-1-.5-2.7 1-4.5 2.2-6 3.4-1.1-.4-2.1-.6-2.9-.6-1.9.1-3 .9-3.5 1.8-.2.4-.3.9-.3 1.3 0 .5.2.9.6 1.2.5.5 1.5.8 2.6.4 1.4-.4 2.5-1.3 3.8-2.3.7.3 1.4.7 2.1 1.2-2.5 2.4-4.8 5.1-7.1 7.9-3.1 3.8-6.2 7.5-9.6 9.8-5.4 3.6-8.2 3.8-11.7 4.1-2.8.2-6 .5-11.2 2.5L235 513l3.6.3c3.7.3 7 .8 9.8 1.2 7.5 1.1 12.2 1.8 15.5-2.4.4 1.4 1.5 3 4.1 3.4.1 0 .3 0 .6.1 1.7.2 4.9.5 8 2.8l1.1.8.2-1.3c.5-3.7-1-5.9-2.4-7.9-.2-.3-.5-.7-.7-1 .5.3 1.1.6 1.8.7l1 .2v-1c0-2.1.8-3.7 1.5-5.1 1.1-2.2 2-4 .2-6.4-.4-.6-1-1-1.6-1.2-.7-.2-1.4-.3-2.2-.1-.8.2-1.5.6-2.3 1.1-1.6 1.2-3.1 3.2-4.1 6.2-.6 1.8-.7 3.5-.3 4.9.4 1.6 1.2 2.9 2.4 3.5.4.2.9 0 1.1-.4.2-.4 0-.9-.4-1.1-.7-.4-1.3-1.2-1.5-2.4-.3-1.2-.2-2.6.3-4.1.9-2.7 2.2-4.5 3.5-5.5.6-.4 1.2-.7 1.7-.9.5-.1 1-.1 1.4 0 .3.1.6.3.9.6 1.2 1.6.5 3-.3 4.7-.7 1.3-1.4 2.8-1.6 4.7-.5-.2-.9-.6-1-1.1-.3-.8-.2-2.1.1-3.9l.7-3.8-2.2 3.2c-2.7 4-1.2 6.2.5 8.6 1 1.5 2.2 3.1 2.2 5.5-3-1.8-5.9-2.1-7.6-2.3-.2 0-.3 0-.5-.1-3.3-.4-3-4-3-4l.4-4-1.9 3.5c-2.9 5.3-7.3 4.7-15.1 3.5-1.8-.3-3.9-.6-6.1-.8 3-.8 5.2-1 7.2-1.2 3.7-.3 6.7-.6 12.4-4.4 3.7-2.4 6.8-6.2 10-10.1 2.3-2.8 4.6-5.6 7.2-8 .2.1.3.3.5.4 1 .8 2 1.7 2.9 2.6-1.3 1.9-1.8 3.9-1.2 5.5.4 2.4 1.4 3.4 2.3 3.8zM271.7 487c-.5.2-.9.1-1.1-.1-.1-.1-.1-.1-.1-.2s0-.2.1-.4c.3-.5.9-.9 2.1-.9.4 0 .9 0 1.4.2-.8.6-1.6 1.1-2.4 1.4zm12.1 5.6c.7.9 1.3 1.9 1.5 2.7.4 1.4.3 2.5-.1 3.1-.1.2-.2.3-.3.3h-.3c-.5-.2-1.1-.9-1.7-2.4-.3-1 .1-2.3.9-3.7zm-40.6-2.1c-.3.2-.8.1-1-.3-.2-.3-.1-.8.3-1 .1 0 .1-.1.1-.1 0-.1-.1-.3-.4-.6-.4-.4-.9-.8-1.7-1.2-2.8-1.5-7.6-2.8-11.9-1.9-6 1.3-11.1.4-13.2-.1.3 2.2 1.5 7.5 6.2 8.2.4.1.7.4.6.8-.1.4-.4.7-.8.6-7.3-1.1-7.5-10.5-7.5-10.6v-1l1 .3s6 2 13.5.4c4.7-1 9.9.4 12.9 2 .8.5 1.5 1 2 1.4.6.6.9 1.2.8 1.8-.1.6-.4 1-.9 1.3zM79.9 200.7v.1c-.3 4 2 6.3 4.6 9.1.5.5.9.9 1.4 1.5-2.5-1.8-5.3-2.4-8.6-1.1l-2 .8 2.1.7c4.5 1.5 4.7 6.3 4.9 11 .2 5.4.5 10.6 6.7 11.2.1 1 .4 2 .8 2.9.8 1.9 2.1 3.6 4 4.6.8.5 1.8.8 2.9.9.4.1.8-.3.9-.7.1-.4-.3-.8-.7-.9-.9-.1-1.6-.3-2.3-.7-1.5-.8-2.6-2.2-3.2-3.8-.3-.7-.5-1.5-.6-2.2 3.2-.1 4.4-1.7 4.5-3.3 0-.7-.1-1.4-.4-2-.3-.6-.8-1.1-1.4-1.4-1.2-.6-2.6-.4-3.6 1.5-.4.7-.6 1.6-.7 2.5 0 .4-.1.7-.1 1.1-4.6-.6-4.8-5-5-9.7-.2-4.4-.4-9-4-11.4 1.9-.2 3.5.3 5.1 1.4 2.2 1.5 4.1 4.2 6 7.2l3.2 5.2-1.7-5.8c-1.4-5-4.3-7.9-6.7-10.4-2.4-2.5-4.4-4.6-4.2-7.8.8-3.3-.7-7.4-2-10.2 6.1 5 11.3 13.6 15 23.1 5.3 13.3 7.9 28.3 7 37.6-.1.8-.2 1.7-.3 2.4-1.3-1.4-2.4-3.2-2.7-6l-.2-1.5-1.1.9c-1.4 1.2-2.5 3.4-2.7 6.5v.7c-1.2-2.4-2.4-4-3.4-5.3-1.7-2.3-3-4.1-3.9-9.1-.1-.4-.5-.7-.9-.7-.4.1-.7.5-.7.9.9 5.4 2.4 7.3 4.2 9.8 1.6 2.2 3.6 4.8 5.8 11 .2.5.3 1.1.6 1.6l1.5-.5c-.2-.6-.4-1.1-.5-1.6-.8-2.7-1.1-4.9-1-6.8.1-1.8.5-3.1 1.1-4.1.7 2.9 2.1 4.7 3.8 6.1-.9 7.2-1.2 10.6 4.9 12.3.9.3 1.9.2 2.9-.2.8-.3 1.5-.8 2.1-1.5.6-.7.9-1.5.9-2.5 0-.9-.3-1.8-.9-2.8-1.4-2.1-3.4-3.2-5.4-4.4-.9-.5-1.9-1.1-2.7-1.7.1-1.1.3-2.2.4-3.6.9-9.5-1.7-24.8-7.1-38.3-4.4-11.2-10.8-21.2-18.5-25.9l-3-1.8 1.9 2.9c-.5.2 4.2 7.3 3 12.2zm10.6 30.7c.1-.8.3-1.4.6-1.9.5-.9 1-1.1 1.4-.8.3.1.5.4.7.8.2.4.3.8.3 1.2-.1.9-.9 1.8-3 1.9-.1-.5 0-.9 0-1.2zm11.9 25.7c.7.5 1.4.9 2.1 1.3 1.9 1.1 3.7 2.1 4.9 3.9.5.7.7 1.3.6 1.8 0 .6-.2 1.1-.6 1.5-.4.4-.9.8-1.4 1-.6.2-1.3.3-1.8.2-4.4-1.3-4.4-4-3.8-9.7zm12.6 24.5c-1-2.7-2.2-4.5-3.4-6 .4-1.1.6-2.1.6-2.9-.1-1.9-.9-3-1.8-3.5-.4-.2-.9-.3-1.3-.3-.5 0-.9.2-1.2.6-.5.5-.8 1.5-.4 2.6.4 1.4 1.3 2.5 2.3 3.8-.3.7-.7 1.4-1.2 2.1-2.4-2.5-5.1-4.8-7.9-7.1-3.8-3.1-7.5-6.2-9.8-9.6-3.6-5.4-3.8-8.2-4.1-11.7-.2-2.8-.5-6-2.5-11.2L83 235l-.3 3.6c-.3 3.7-.8 7-1.2 9.8-1.1 7.5-1.8 12.2 2.4 15.5-1.4.4-3 1.5-3.4 4.1 0 .1 0 .3-.1.6-.2 1.7-.5 4.9-2.8 8l-.8 1.1 1.3.2c3.7.5 5.9-1 7.9-2.4.3-.2.7-.5 1-.7-.3.5-.6 1.1-.7 1.8l-.2 1h1c2.1 0 3.7.8 5.1 1.5 2.2 1.1 4 2 6.4.2.6-.4 1-1 1.2-1.6.2-.7.2-1.4.1-2.2-.2-.8-.6-1.5-1.1-2.3-1.2-1.5-3.2-3-6.2-4-1.8-.6-3.5-.7-4.9-.3-1.6.4-2.9 1.2-3.5 2.4-.2.4 0 .9.4 1.1.4.2.9 0 1.1-.4.4-.7 1.2-1.3 2.4-1.5 1.2-.2 2.6-.2 4.1.3 2.7.9 4.5 2.2 5.5 3.5.4.6.7 1.2.9 1.7.1.5.1 1 0 1.4-.1.3-.3.6-.6.9-1.6 1.2-3 .5-4.7-.3-1.3-.7-2.8-1.4-4.7-1.6.2-.5.6-.9 1.1-1 .8-.3 2.1-.2 3.9.1l3.8.7-3.2-2.2c-4-2.7-6.2-1.2-8.6.5-1.5 1-3.1 2.2-5.5 2.2 1.8-3 2.1-5.9 2.3-7.6 0-.2 0-.3.1-.5.4-3.3 4-3 4-3l4 .4-3.5-1.9c-5.3-2.9-4.7-7.3-3.5-15.1.3-1.8.6-3.9.8-6.1.8 3 1 5.2 1.2 7.2.3 3.7.6 6.7 4.4 12.4 2.4 3.7 6.2 6.8 10.1 10 2.8 2.3 5.6 4.6 8 7.2-.1.2-.3.3-.4.5-.8 1-1.7 2-2.6 2.9-1.9-1.3-3.9-1.8-5.5-1.2-2 .7-3 1.7-3.4 2.6-.2.5-.2 1 0 1.5.2.4.5.8.9 1.1 1 .6 2.6.8 4.5.2 1.1-.3 2.3-1.1 3.5-2.1 1.1 1 2.2 2.2 3 3.6 1 1.6 1.7 3.4 1.9 5.2.2 2.2-.3 4.5-2.3 6.2-.3.3-.4.8-.1 1.1.3.3.8.4 1.1.1 2.3-2.1 3.1-4.8 2.8-7.6-.2-2-1-4.1-2.1-5.9-.9-1.5-2-2.8-3.2-3.8.9-.9 1.8-1.9 2.6-2.9.1-.1.1-.2.2-.3 2.7 3.3 4.5 7 4.4 11.6-.2 6.1-2.8 10.4-6 12.8-1.1.8-2.3 1.5-3.4 1.9-1.1.4-2.2.6-3.2.6-1.5 0-2.8-.6-3.5-1.6-3.2-4.2.6-6.8.7-6.9.4-.3.4-.8.2-1.1-.3-.4-.8-.4-1.1-.2 0 0-5.3 3.5-1 9.1 1.1 1.4 2.8 2.1 4.8 2.2 1.2 0 2.5-.2 3.8-.6 1.3-.5 2.6-1.2 3.8-2.1 3.5-2.7 6.5-7.4 6.7-14 .2-5.2-2-9.4-5-13 .4-.7.8-1.3 1.2-2 .9 1.2 1.9 2.8 2.6 4.9.1.4.6.6 1 .5 0-.5.2-1 .1-1.4zm-14.3 3.8c-1.4.4-2.5.3-3.1-.1-.2-.1-.3-.2-.3-.3v-.3c.2-.5.9-1.1 2.4-1.7 1-.4 2.3 0 3.7.8-1 .8-1.9 1.3-2.7 1.6zm9.7-11.2c-.6-.8-1.1-1.6-1.4-2.5-.2-.5-.1-.9.1-1.1.1-.1.1-.1.2-.1s.2 0 .4.1c.5.3.9.9.9 2.1 0 .5 0 1-.2 1.5zm-1.8-33.6c1.5-2.8 2.8-7.6 1.9-11.9-1.3-6-.4-11.1.1-13.2-2.2.3-7.5 1.5-8.2 6.2-.1.4-.4.7-.8.6-.4-.1-.7-.4-.6-.8 1.1-7.3 10.5-7.5 10.6-7.5h1l-.3 1s-2 6-.4 13.5c1 4.7-.4 9.9-2 12.9-.5.8-1 1.5-1.4 2-.6.6-1.2.9-1.8.8-.5-.1-.8-.3-1.1-.8-.2-.3-.1-.8.3-1 .3-.2.8-.1 1 .3 0 .1.1.1.1.1.1 0 .3-.1.6-.4.2-.5.6-1 1-1.8zm35.8 261.7c.5-.8.8-1.8.9-2.9.1-.4-.3-.8-.7-.9-.4-.1-.8.3-.9.7-.1.9-.3 1.6-.7 2.3-.8 1.5-2.2 2.6-3.8 3.2-.7.3-1.5.5-2.2.6-.1-3.2-1.7-4.4-3.3-4.5-.7 0-1.4.1-2 .4-.6.3-1.1.8-1.4 1.4-.6 1.2-.4 2.6 1.5 3.6.7.4 1.6.6 2.5.7.4 0 .7.1 1.1.1-.6 4.6-5 4.8-9.7 5-4.4.2-9 .4-11.4 4-.2-1.8.3-3.5 1.4-5.1 1.5-2.2 4.2-4.1 7.2-6l5.2-3.2-5.8 1.7c-5 1.4-7.9 4.3-10.4 6.7-2.5 2.4-4.6 4.4-7.8 4.2-3.3-.8-7.4.7-10.2 2 5-6.1 13.6-11.3 23.1-15 13.3-5.3 28.3-7.9 37.6-7 .8.1 1.7.2 2.4.3-1.4 1.3-3.2 2.4-6 2.7l-1.5.2.9 1.1c1.2 1.4 3.4 2.5 6.5 2.7h.7c-2.4 1.2-4 2.4-5.3 3.4-2.3 1.7-4.1 3-9.1 3.9-.4.1-.7.5-.7.9.1.4.5.7.9.7 5.4-.9 7.3-2.4 9.8-4.2 2.2-1.6 4.8-3.6 11-5.8.5-.2 1.1-.3 1.6-.6l-.5-1.5c-.6.2-1.1.4-1.6.6-2.7.8-4.9 1.1-6.8 1-1.8-.1-3.1-.5-4.1-1.1 2.9-.7 4.7-2.1 6.1-3.8 7.2.9 10.6 1.2 12.3-4.9.3-.9.2-1.9-.2-2.9-.3-.8-.8-1.5-1.5-2.1-.7-.6-1.5-.9-2.5-.9-.9 0-1.8.3-2.8.9-2.1 1.4-3.2 3.4-4.4 5.4-.5.9-1.1 1.9-1.7 2.7-1.1-.1-2.2-.3-3.6-.4-9.5-.9-24.8 1.7-38.3 7.1-11.2 4.4-21.2 10.8-25.9 18.5l-1.8 3 2.9-1.9s7.2-4.7 12.1-3.5h.2c4 .3 6.3-2 9.1-4.6.5-.5.9-.9 1.5-1.4-1.8 2.5-2.4 5.3-1.1 8.6l.8 2 .7-2.1c1.5-4.5 6.3-4.7 11-4.9 5.4-.2 10.6-.5 11.2-6.7 1-.1 2-.4 2.9-.8 1.9-.4 3.6-1.7 4.6-3.6zm16.9-10.9c1.1-1.9 2.1-3.7 3.9-4.9.7-.5 1.3-.7 1.8-.6.6 0 1.1.2 1.5.6.4.4.8.9 1 1.4.2.6.3 1.3.2 1.8-1.3 4.6-4 4.5-9.7 3.9.5-.7.9-1.5 1.3-2.2zm-27 14.1c-.8-.1-1.4-.3-1.9-.6-.9-.5-1.1-1-.8-1.4.2-.3.4-.5.8-.7.4-.2.8-.3 1.2-.3.9.1 1.8.9 1.9 3-.5.1-.8 0-1.2 0zm52.8-5.2c.5.2 1 .2 1.5 0 .4-.2.8-.5 1.1-.9.6-1 .8-2.6.2-4.5-.3-1.1-1.1-2.3-2.1-3.5 1-1.1 2.2-2.2 3.6-3 1.6-1 3.4-1.7 5.2-1.9 2.2-.2 4.5.3 6.2 2.3.3.3.8.4 1.1.1.3-.3.4-.8.1-1.1-2.1-2.3-4.8-3.1-7.6-2.8-2 .2-4.1 1-5.9 2.1-1.5.9-2.8 2-3.8 3.2-.9-.9-1.9-1.8-2.9-2.6-.1-.1-.2-.1-.3-.2 3.3-2.7 7-4.5 11.6-4.4 6.1.2 10.4 2.8 12.8 6 .8 1.1 1.5 2.3 1.9 3.4.4 1.1.6 2.2.6 3.2 0 1.5-.6 2.8-1.6 3.5-4.2 3.2-6.8-.6-6.9-.7-.3-.4-.8-.4-1.1-.2-.4.3-.4.8-.2 1.1 0 0 3.5 5.3 9.1 1 1.4-1.1 2.1-2.8 2.2-4.8 0-1.2-.2-2.5-.6-3.8-.5-1.3-1.2-2.6-2.1-3.8-2.7-3.5-7.4-6.5-14-6.7-5.2-.2-9.4 2-13 5-.7-.4-1.3-.8-2-1.2 1.2-.9 2.8-1.9 4.9-2.6.4-.1.6-.6.5-1-.1-.4-.6-.6-1-.5-2.7 1-4.5 2.2-6 3.4-1.1-.4-2.1-.6-2.9-.6-1.9.1-3 .9-3.5 1.8-.2.4-.3.9-.3 1.3 0 .5.2.9.6 1.2.5.5 1.5.8 2.6.4 1.4-.4 2.5-1.3 3.8-2.3.7.3 1.4.7 2.1 1.2-2.5 2.4-4.8 5.1-7.1 7.9-3.1 3.8-6.2 7.5-9.6 9.8-5.4 3.6-8.2 3.8-11.7 4.1-2.8.2-6 .5-11.2 2.5L138 513l3.6.3c3.7.3 7 .8 9.8 1.2 7.5 1.1 12.2 1.8 15.5-2.4.4 1.4 1.5 3 4.1 3.4.1 0 .3 0 .6.1 1.7.2 4.9.5 8 2.8l1.1.8.2-1.3c.5-3.7-1-5.9-2.4-7.9-.2-.3-.5-.7-.7-1 .5.3 1.1.6 1.8.7l1 .2v-1c0-2.1.8-3.7 1.5-5.1 1.1-2.2 2-4 .2-6.4-.4-.6-1-1-1.6-1.2-.7-.2-1.4-.3-2.2-.1-.8.2-1.5.6-2.3 1.1-1.6 1.2-3.1 3.2-4.1 6.2-.6 1.8-.7 3.5-.3 4.9.4 1.6 1.2 2.9 2.4 3.5.4.2.9 0 1.1-.4.2-.4 0-.9-.4-1.1-.7-.4-1.3-1.2-1.5-2.4-.3-1.2-.2-2.6.3-4.1.9-2.7 2.2-4.5 3.5-5.5.6-.4 1.2-.7 1.7-.9.5-.1 1-.1 1.4 0 .3.1.6.3.9.6 1.2 1.6.5 3-.3 4.7-.7 1.3-1.4 2.8-1.6 4.7-.5-.2-.9-.6-1-1.1-.3-.8-.2-2.1.1-3.9l.7-3.8-2.2 3.2c-2.7 4-1.2 6.2.5 8.6 1 1.5 2.2 3.1 2.2 5.5-3-1.8-5.9-2.1-7.6-2.3-.2 0-.3 0-.5-.1-3.3-.4-3-4-3-4l.4-4-1.9 3.5c-2.9 5.3-7.3 4.7-15.1 3.5-1.8-.3-3.9-.6-6.1-.8 3-.8 5.2-1 7.2-1.2 3.7-.3 6.7-.6 12.4-4.4 3.7-2.4 6.8-6.2 10-10.1 2.3-2.8 4.6-5.6 7.2-8 .2.1.3.3.5.4 1 .8 2 1.7 2.9 2.6-1.3 1.9-1.8 3.9-1.2 5.5.4 2.4 1.4 3.4 2.3 3.8zM174.7 487c-.5.2-.9.1-1.1-.1-.1-.1-.1-.1-.1-.2s0-.2.1-.4c.3-.5.9-.9 2.1-.9.4 0 .9 0 1.4.2-.8.6-1.6 1.1-2.4 1.4zm12.1 5.6c.7.9 1.3 1.9 1.5 2.7.4 1.4.3 2.5-.1 3.1-.1.2-.2.3-.3.3h-.3c-.5-.2-1.1-.9-1.7-2.4-.3-1 .1-2.3.9-3.7zm-41.2-3.5c0-.1-.1-.3-.4-.6-.4-.4-.9-.8-1.7-1.2-2.8-1.5-7.6-2.8-11.9-1.9-6 1.3-11.1.4-13.2-.1.3 2.2 1.5 7.5 6.2 8.2.4.1.7.4.6.8-.1.4-.4.7-.8.6-7.3-1.1-7.5-10.5-7.5-10.6v-1l1 .3s6 2 13.5.4c4.7-1 9.9.4 12.9 2 .8.5 1.5 1 2 1.4.6.6.9 1.2.8 1.8-.1.5-.3.8-.8 1.1-.3.2-.8.1-1-.3-.2-.3-.1-.8.3-1v.1zM79.9 103.7v.1c-.3 4 2 6.3 4.6 9.1.5.5.9.9 1.4 1.5-2.5-1.8-5.3-2.4-8.6-1.1l-2 .8 2.1.7c4.5 1.5 4.7 6.3 4.9 11 .2 5.4.5 10.6 6.7 11.2.1 1 .4 2 .8 2.9.8 1.9 2.1 3.6 4 4.6.8.5 1.8.8 2.9.9.4.1.8-.3.9-.7.1-.4-.3-.8-.7-.9-.9-.1-1.6-.4-2.3-.7-1.5-.8-2.6-2.2-3.2-3.8-.3-.7-.5-1.5-.6-2.2 3.2-.1 4.4-1.7 4.5-3.3 0-.7-.1-1.4-.4-2-.3-.6-.8-1.1-1.4-1.4-1.2-.6-2.6-.4-3.6 1.5-.4.7-.6 1.6-.7 2.5 0 .4-.1.7-.1 1.1-4.6-.6-4.8-5-5-9.7-.2-4.4-.4-9-4-11.4 1.9-.2 3.5.3 5.1 1.4 2.2 1.5 4.1 4.2 6 7.2l3.2 5.2-1.7-5.8c-1.4-5-4.3-7.9-6.7-10.4-2.4-2.5-4.4-4.6-4.2-7.8.8-3.3-.7-7.4-2-10.2 6.1 5 11.3 13.6 15 23.1 5.3 13.3 7.9 28.3 7 37.6-.1.8-.2 1.7-.3 2.4-1.3-1.4-2.4-3.2-2.7-6l-.2-1.5-1.1.9c-1.4 1.2-2.5 3.4-2.7 6.5v.7c-1.2-2.4-2.4-4-3.4-5.3-1.7-2.3-3-4.1-3.9-9.1-.1-.4-.5-.7-.9-.7-.4.1-.7.5-.7.9.9 5.4 2.4 7.3 4.2 9.8 1.6 2.2 3.6 4.8 5.8 11 .2.5.3 1.1.6 1.6l1.5-.5c-.2-.6-.4-1.1-.5-1.6-.8-2.7-1.1-4.9-1-6.8.1-1.8.5-3.1 1.1-4.1.7 2.9 2.1 4.7 3.8 6.1-.9 7.2-1.2 10.6 4.9 12.3.9.3 1.9.2 2.9-.2.8-.3 1.5-.8 2.1-1.5.6-.7.9-1.5.9-2.5 0-.9-.3-1.8-.9-2.8-1.4-2.1-3.4-3.2-5.4-4.4-.9-.5-1.9-1.1-2.7-1.7.1-1.1.3-2.2.4-3.5.9-9.5-1.7-24.8-7.1-38.3-4.4-11.2-10.8-21.2-18.5-25.9l-3-1.8 1.9 2.9c-.5.1 4.2 7.2 3 12.1zm10.6 30.7c.1-.8.3-1.4.6-1.9.5-.9 1-1 1.4-.8.3.2.5.4.7.8.2.4.3.8.3 1.2-.1.9-.9 1.8-3 1.9-.1-.5 0-.9 0-1.2zm11.9 25.7c.7.5 1.4.9 2.1 1.3 1.9 1.1 3.7 2.1 4.9 3.9.5.7.7 1.3.6 1.8 0 .6-.2 1.1-.6 1.5-.4.4-.9.8-1.4 1-.6.2-1.3.3-1.8.2-4.4-1.3-4.4-4-3.8-9.7zm12.6 24.5c-1-2.7-2.2-4.5-3.4-6 .4-1.1.6-2.1.6-2.9-.1-1.9-.9-3-1.8-3.5-.4-.2-.9-.3-1.3-.3-.5 0-.9.2-1.2.6-.5.5-.8 1.5-.4 2.6.4 1.4 1.3 2.5 2.3 3.8-.3.7-.7 1.4-1.2 2.1-2.4-2.5-5.1-4.8-7.9-7.1-3.8-3.1-7.5-6.2-9.8-9.6-3.6-5.4-3.8-8.2-4.1-11.7-.2-2.8-.5-6-2.5-11.2L83 138l-.3 3.6c-.3 3.7-.8 7-1.2 9.8-1.1 7.5-1.8 12.2 2.4 15.5-1.4.4-3 1.5-3.4 4.1 0 .1 0 .3-.1.6-.2 1.7-.5 4.9-2.8 8l-.8 1.1 1.3.2c3.7.5 5.9-1 7.9-2.4.3-.2.7-.5 1-.7-.3.5-.6 1.1-.7 1.8l-.2 1h1c2.1 0 3.7.8 5.1 1.5 2.2 1.1 4 2 6.4.2.6-.4 1-1 1.2-1.6.2-.7.2-1.4.1-2.2-.2-.8-.6-1.5-1.1-2.3-1.2-1.6-3.2-3.1-6.2-4.1-1.8-.6-3.5-.7-4.9-.3-1.6.4-2.9 1.2-3.5 2.4-.2.4 0 .9.4 1.1.4.2.9 0 1.1-.4.4-.7 1.2-1.3 2.4-1.5 1.2-.3 2.6-.2 4.1.3 2.7.9 4.5 2.2 5.5 3.5.4.6.7 1.2.9 1.7.1.5.1 1 0 1.4-.1.3-.3.6-.6.9-1.6 1.2-3 .5-4.7-.3-1.3-.7-2.8-1.4-4.7-1.6.2-.5.6-.9 1.1-1 .8-.3 2.1-.2 3.9.1l3.8.7-3.2-2.2c-4-2.7-6.2-1.2-8.6.5-1.5 1-3.1 2.2-5.5 2.2 1.8-3 2.1-5.9 2.3-7.6 0-.2 0-.3.1-.5.4-3.3 4-3 4-3l4 .4L87 167c-5.3-2.9-4.7-7.3-3.5-15.1.3-1.8.6-3.9.8-6.1.8 3 1 5.2 1.2 7.2.3 3.7.6 6.7 4.4 12.4 2.4 3.7 6.2 6.8 10.1 10 2.8 2.3 5.6 4.6 8 7.2-.1.2-.3.3-.4.5-.8 1-1.7 2-2.6 2.9-1.9-1.3-3.9-1.8-5.5-1.2-2 .7-3 1.7-3.4 2.6-.2.5-.2 1 0 1.5.2.4.5.8.9 1.1 1 .6 2.6.8 4.5.2 1.1-.3 2.3-1.1 3.5-2.1 1.1 1 2.2 2.2 3 3.6 1 1.6 1.7 3.4 1.9 5.2.2 2.2-.3 4.5-2.3 6.2-.3.3-.4.8-.1 1.1.3.3.8.4 1.1.1 2.3-2.1 3.1-4.8 2.8-7.6-.2-2-1-4.1-2.1-5.9-.9-1.5-2-2.8-3.2-3.8.9-.9 1.8-1.9 2.6-2.9.1-.1.1-.2.2-.3 2.7 3.3 4.5 7 4.4 11.6-.2 6.1-2.8 10.4-6 12.8-1.1.8-2.3 1.5-3.4 1.9-1.1.4-2.2.6-3.2.6-1.5 0-2.8-.6-3.5-1.6-3.2-4.2.6-6.8.7-6.9.4-.3.4-.8.2-1.1-.3-.4-.8-.4-1.1-.2 0 0-5.3 3.5-1 9.1 1.1 1.4 2.8 2.1 4.8 2.2 1.2 0 2.5-.2 3.8-.6 1.3-.5 2.6-1.2 3.8-2.1 3.5-2.7 6.5-7.4 6.7-14 .2-5.2-2-9.4-5-13 .4-.7.8-1.3 1.2-2 .9 1.2 1.9 2.8 2.6 4.9.1.4.6.6 1 .5 0-.4.2-.9.1-1.3zm-14.3 3.8c-1.4.4-2.5.3-3.1-.1-.2-.1-.3-.2-.3-.3v-.3c.2-.5.9-1.1 2.4-1.7 1-.4 2.3 0 3.7.8-1 .8-1.9 1.3-2.7 1.6zm9.7-11.2c-.6-.8-1.1-1.6-1.4-2.5-.2-.5-.1-.9.1-1.1.1-.1.1-.1.2-.1s.2 0 .4.1c.5.3.9.9.9 2.1 0 .5 0 1-.2 1.5zm-1.8-33.6c1.5-2.8 2.8-7.6 1.9-11.9-1.3-6-.4-11.1.1-13.2-2.2.3-7.5 1.5-8.2 6.2-.1.4-.4.7-.8.6-.4-.1-.7-.4-.6-.8 1.1-7.3 10.5-7.5 10.6-7.5h1l-.3 1s-2 6-.4 13.5c1 4.7-.4 9.9-2 12.9-.5.8-1 1.5-1.4 2-.6.6-1.2.9-1.8.8-.5-.1-.8-.3-1.1-.8-.2-.3-.1-.8.3-1 .3-.2.8-.1 1 .3 0 .1.1.1.1.1.1 0 .3-.1.6-.4.2-.5.6-1 1-1.8z"/></svg>