<svg id="Layer" xmlns="http://www.w3.org/2000/svg" viewBox="0 0 595.3 595.3"><style>.st0{fill:#1f1a17}</style><path class="st0" d="M76.5 194.9c4.3-15.1 9.4-22.5 13.1-22.9 2.9-.3 5 3.9 4 6.7 3.1-1.1 6.9-1.3 11.2.5 3.6 1.5 6.7 4 9.3 7.1-3.2-6.4-7.6-14.3-14.4-18.6 2.2 3.3.8 6.1-2.2 5-2.1-.9-6.5-5-8.3-10.1 8-2.9 11.6-.9 12.9.6.9 1.1 0 3.1-1.3 3.7 7.7 5 12.2 14.2 15.5 20.9.8 1.6 1.5 3.3 2.4 4.8-7.8-23.6-12.9-39.2-10.5-65.4-.2.1-2.2 22.1-.9 30-23.8 12.9 4.3-51.8 6.6-57.3-3.5 22.7 12.8 50.5 4.1 59.6-1.9 2-4.6.9-6.6-.5 1.8 8.8 4.4 17.5 6.9 25.2-.6-3.5-1.1-6.8-1.4-9.7-.1-1-.1-3.9.6-6.2.2-.8.6-1.6 1-2.1.5-.6 1.2-1 2-1.1.4 0 .8 0 1.2.1l.6.3c1.5.7 2.1 2.1 2.2 3.8.4 5.4-3.9 4.9-4.4 3-.1-.3.1-1.3.7-1.4 1-.2 2.6.5 2.4-1.4-.1-1.2-.5-2.3-1.5-2.7-.1-.1-.3-.1-.5-.2-.3-.1-.5-.1-.8-.1-.4 0-.8.3-1.1.7-.3.4-.6 1-.8 1.7-.6 2.1-.6 4.8-.5 5.7.4 4.3 1.4 9.9 2.4 15.2 1.7 8.5 4.7 16.3 5.4 25-4.4-12-9.3-28.1-22-33.3-3.4-1.4-6.4-1.4-8.9-.7 6.3.7 8.5 5.5 3.9 8.5-3.4 2.1-9.3-2.3-22.3 5.6zM93 247.6c-1-2.8-1.9-5.5-2.8-8.2-2.7-.5-5.8-1.9-9.3-4.7-6.6-5.1-7.8-14.8-5.2-23.4 1-3.3 2.5-6.4 4.6-9 2.1-2.7 4.7-4.9 7.7-6.2 6.4-2.8 14.5-1.7 23.5 6.4 26.9 24.5 4.7 111.1 4.6 111.3-.3 1.1-1.4 1.8-2.6 1.5-1.1-.3-1.8-1.4-1.5-2.6.1-.2 21.7-84.4-3.3-107.1-7.5-6.8-14-7.8-18.9-5.6-2.3 1-4.4 2.7-6.1 4.9-1.7 2.2-3 4.9-3.9 7.6-2.1 7.1-1.3 14.9 3.8 18.9 2 1.5 3.7 2.5 5.4 3.1-1.1-4.3-1.6-8.5-1.3-13 .4-6.5 2.5-9.9 5.1-11.4 2.1-1.2 4.4-1.1 6.5 0 1.9.9 3.5 2.6 4.6 4.6 1.7 3.3 1.9 7.5-1.2 11-.8.9-2.1 1-3 .2-.9-.8-1-2.1-.2-3 1.7-2 1.6-4.4.6-6.3-.6-1.2-1.6-2.2-2.7-2.8-.9-.4-1.8-.5-2.5-.1-1.4.8-2.6 3.2-2.9 8-.3 4.4.4 8.8 1.7 13.4 3.4-.2 5.9-2.2 7.7-3.7l.1-.1c2.5-2 4.4-3.4 6.6-1.3 2 1.9 5.2 11.5 5.8 29.1.4 11.3-.2 26.1-2.8 44.6-.2 1.2-1.2 2-2.4 1.8-1.2-.2-2-1.2-1.8-2.4 2.5-18.2 3.1-32.8 2.7-43.9-.5-16.3-3-24.7-4.5-26.1-.3-.3-.3.3-.7 1-.1.3-.3.5-.6.7-2.2 1.8-5.2 4.1-9.1 4.7.7 2.2 1.5 4.4 2.3 6.7 5.4 15.4 12.2 34.8 7.5 67.1 3.1.3 6.2 1.1 8.8 2.3 7.8 3.7 8.5 4 8.5 4 1 .5 1.5 1.8.9 2.8-.5 1-1.8 1.5-2.8.9 0 0-.4-.1-8.4-3.9-2.3-1.1-5.2-1.7-8-2-1.3 3.2-5.1 10.7-10.5 3.9-.9-1.1-1.3-2.3-1.2-3.3.1-1.5.9-2.6 2.3-3.4 1-.6 2.4-1 3.9-1.2.7-.1 1.4-.2 2.2-.2 4.7-31.6-2-50.5-7.2-65.6zm5.8 70h-.2c-1 .2-1.9.4-2.4.7-.1.1-.2-.1-.2 0s.1.2.3.5c.9 1.1 1.8 0 2.5-1.2zm71.5 142c7.9 9.8 37.5-3 59.6 3.3-5.2-2.9-66-38.9-56.1-13.6 8-.4 29.6 4.4 29.6 4.6-25.7-5.7-41.8-2.6-66.2 2.3 1.6-.7 3.3-1.2 5-1.8 7-2.4 16.8-5.8 22.7-12.8.5 1.4 2.3 2.6 3.5 1.8 1.7-1.1 4.1-4.4 2.2-12.7-5.3 1.2-10 5-11.1 7-1.5 2.7 1.1 4.5 4.7 2.8-5.1 6.3-13.5 9.7-20.3 12 3.3-2.2 6.3-5 8.2-8.3 2.3-4.1 2.6-7.8 1.9-11.1 2.7 1.3 7.1-.2 7.2-3.1.1-3.7-6.6-9.7-21.1-15.8 6.2 13.9 1.1 19.2 2.9 23 2.3 4.9 7.4 3.3 8.9-2.8.4 2.6 0 5.6-1.8 8.8-6.7 11.9-23.3 14.7-35.8 17.6 8.7.4 16.9-1.6 25.5-2.2 5.4-.4 11.1-.7 15.4-.5.9 0 3.6.4 5.6 1.2.6.3 1.2.6 1.6 1 .3.3.5.7.5 1.2 0 .2-.1.5-.2.7-.1.2-.1.3-.2.4-.6.9-1.7 1.2-2.9 1.2-1.9-.1-1.1-1.6-1.1-2.6 0-.6-1-.9-1.3-.9-2 .3-3 4.5 2.4 4.7 1.7.1 3.1-.4 4-1.8l.3-.6c.2-.4.3-.8.3-1.2 0-.8-.3-1.5-.9-2.1-.5-.5-1.2-1-2-1.3-2.2-1-5.1-1.3-6.1-1.3-2.8-.1-6.2 0-9.8.2 8-1.5 16.9-3 25.9-3.7-1.3 1.8-2.7 4.3-1 6.4zm-55.8 1zm-11.2-13.9c-26.2-25.2-1.5-111.1-1.4-111.4.3-1.1 1.5-1.8 2.6-1.5 1.1.3 1.8 1.5 1.5 2.6-.1.2-24.1 83.7.3 107.2 7.3 7 13.8 8.2 18.8 6.2 2.4-.9 4.5-2.6 6.2-4.7 1.8-2.2 3.2-4.8 4.1-7.5 2.3-7 1.7-14.9-3.3-19-1.9-1.6-3.7-2.6-5.3-3.2.9 4.3 1.4 8.6 1 13-.6 6.4-2.8 9.9-5.4 11.3-2.1 1.1-4.4.9-6.5-.2-1.8-1-3.4-2.7-4.4-4.7-1.6-3.3-1.7-7.5 1.5-10.9.8-.9 2.1-.9 3-.1.9.8.9 2.1.1 3-1.8 1.9-1.7 4.3-.8 6.2.6 1.3 1.6 2.3 2.6 2.9.8.5 1.8.6 2.5.2 1.4-.8 2.7-3.1 3.1-7.9.4-4.4-.2-8.8-1.3-13.4-3.4.1-5.9 2.1-7.8 3.5l-.1.1c-2.6 2-4.5 3.3-6.6 1.2-2-2-4.9-11.6-5-29.2-.1-11.3 1-26.1 4.1-44.5.2-1.2 1.3-1.9 2.4-1.7 1.1.2 1.9 1.3 1.7 2.4-3 18.1-4.1 32.7-4 43.8.1 16.3 2.2 24.7 3.7 26.2.3.3.3-.3.7-1 .1-.3.3-.5.6-.7 2.3-1.7 5.3-4 9.2-4.5-.6-2.2-1.3-4.4-2.1-6.7-4.9-15.6-11.2-35.1-5.6-67.3-3.1-.4-6.2-1.2-8.7-2.5-7.6-3.9-8.4-4.2-8.4-4.2-1-.6-1.4-1.8-.9-2.9.6-1 1.8-1.4 2.9-.9 0 0 .4.1 8.3 4.1 2.3 1.2 5.2 1.9 7.9 2.2 1.4-3.2 5.4-10.6 10.6-3.6.9 1.2 1.2 2.3 1.1 3.4-.1 1.5-1 2.6-2.4 3.4-1 .6-2.4.9-3.9 1.1-.7.1-1.4.1-2.2.1-5.6 31.4.5 50.5 5.3 65.7.9 2.9 1.8 5.6 2.5 8.3 2.7.6 5.8 2.1 9.2 4.9 6.4 5.3 7.4 15.1 4.6 23.6-1.1 3.3-2.7 6.3-4.8 8.9-2.2 2.6-4.8 4.7-7.9 5.9-6.5 2.4-14.6 1.1-23.3-7.2zm15.9-114.6h.2c1-.1 1.9-.3 2.4-.6.2-.1.2.1.2 0s-.1-.2-.3-.5c-.8-1.2-1.8-.2-2.5 1.1zm284.1-231.2c2.9 4.6 7.7 2.4 8.5-3.9.7 2.5.7 5.5-.7 8.9-5.2 12.6-21.3 17.5-33.3 22 8.7-.6 16.5-3.7 25-5.4 5.3-1.1 10.9-2 15.2-2.4.9-.1 3.6-.1 5.7.5.7.2 1.3.5 1.7.8.4.3.6.7.7 1.1 0 .2 0 .5-.1.8 0 .2-.1.3-.2.5-.5 1-1.5 1.4-2.7 1.5-1.9.2-1.3-1.5-1.4-2.4-.1-.6-1.1-.8-1.4-.7-1.9.5-2.4 4.8 3 4.4 1.7-.1 3.1-.8 3.8-2.2l.3-.6c.1-.4.2-.9.1-1.2-.1-.8-.5-1.5-1.1-2-.6-.5-1.3-.8-2.1-1-2.3-.7-5.2-.7-6.2-.6-2.8.3-6.2.8-9.7 1.4 7.8-2.5 16.4-5.1 25.2-6.9-1.4 2-2.4 4.7-.5 6.6 9.1 8.7 36.9-7.6 59.6-4.1-5.6-2.3-70.3-30.4-57.3-6.6 7.9-1.4 29.9.7 30 .9-26.2-2.4-41.8 2.7-65.4 10.5 1.5-.9 3.1-1.6 4.8-2.4 6.6-3.3 15.9-7.8 20.9-15.5.7 1.3 2.6 2.3 3.7 1.3 1.5-1.3 3.5-4.9.6-12.9-5.1 1.8-9.3 6.2-10.1 8.3-1.2 2.9 1.7 4.3 5 2.2-4.3 6.9-12.2 11.3-18.6 14.4 3-2.6 5.6-5.7 7.1-9.3 1.8-4.3 1.6-8.1.5-11.2 2.8 1 7-1.1 6.7-4-.3-3.7-7.7-8.8-22.9-13.1 7.7 12.9 3.3 18.8 5.6 22.3zM271 95c1.1-.9 2.3-1.3 3.3-1.2 1.5.1 2.6.9 3.4 2.3.6 1 1 2.4 1.2 3.9.1.7.2 1.4.2 2.2 31.6 4.7 50.5-2 65.6-7.2 2.8-1 5.5-1.9 8.2-2.8.5-2.7 1.9-5.8 4.7-9.3 5.1-6.6 14.8-7.8 23.4-5.2 3.3 1 6.4 2.6 9 4.6 2.7 2.1 4.9 4.7 6.2 7.7 2.8 6.4 1.7 14.5-6.4 23.5-24.5 26.9-111.1 4.7-111.3 4.6-1.1-.3-1.8-1.4-1.5-2.6.3-1.1 1.4-1.8 2.6-1.5.2.1 84.4 21.7 107.1-3.3 6.8-7.5 7.8-14 5.6-18.9-1-2.3-2.7-4.4-4.9-6.1-2.2-1.7-4.9-3-7.6-3.9-7.1-2.1-14.9-1.3-18.9 3.8-1.5 2-2.5 3.7-3.1 5.4 4.3-1.1 8.5-1.6 13-1.3 6.5.4 9.9 2.5 11.4 5.1 1.2 2.1 1.1 4.4 0 6.5-.9 1.9-2.6 3.5-4.6 4.6-3.3 1.7-7.5 1.9-11-1.2-.9-.8-1-2.1-.2-3 .8-.9 2.1-1 3-.2 2 1.7 4.4 1.6 6.3.6 1.2-.6 2.2-1.6 2.8-2.7.4-.9.5-1.8.1-2.5-.8-1.4-3.2-2.6-8-2.9-4.4-.3-8.8.4-13.4 1.7.2 3.4 2.2 5.9 3.7 7.7l.1.1c2 2.5 3.4 4.4 1.3 6.6-1.9 2.1-11.5 5.2-29 5.8-11.3.4-26.1-.2-44.6-2.8-1.2-.2-2-1.2-1.8-2.4.2-1.2 1.2-2 2.4-1.8 18.2 2.5 32.8 3.1 43.9 2.7 16.3-.5 24.7-3 26.1-4.5.3-.3-.3-.3-1-.7-.3-.1-.5-.3-.7-.6-1.8-2.2-4.1-5.2-4.7-9.1-2.2.7-4.4 1.5-6.7 2.3-15.4 5.4-34.8 12.2-67.1 7.5-.3 3.1-1.1 6.2-2.3 8.8-3.7 7.8-4 8.5-4 8.5-.5 1-1.8 1.5-2.8.9-1-.5-1.5-1.8-.9-2.8 0 0 .1-.4 3.9-8.4 1.1-2.3 1.7-5.2 2-8-3.3-1.3-10.8-5.1-4-10.5zm3.9 5.8v-.2c-.2-1-.4-1.9-.7-2.4-.1-.1.1-.2 0-.2s-.2.1-.5.3c-1.1.9-.1 1.8 1.2 2.5zm-145.7 65l.6.3c.4.2.8.3 1.2.3.8 0 1.5-.3 2.1-.9.5-.5 1-1.2 1.3-2 1-2.2 1.3-5.1 1.3-6.1.1-2.8 0-6.2-.2-9.8 1.5 8 3 16.9 3.7 25.9-1.9-1.6-4.4-3-6.5-1.3-9.8 7.9 3 37.5-3.3 59.6 2.9-5.2 38.9-66 13.6-56.1.4 8-4.4 29.6-4.6 29.6 5.7-25.7 2.5-41.8-2.3-66.2.7 1.6 1.2 3.3 1.8 5 2.4 7 5.8 16.8 12.8 22.7-1.4.5-2.6 2.3-1.8 3.5 1.1 1.7 4.4 4.1 12.7 2.2-1.2-5.3-5-10-7-11.1-2.7-1.5-4.5 1.1-2.8 4.7-6.3-5.1-9.7-13.5-12-20.3 2.2 3.3 5 6.3 8.3 8.2 4.1 2.3 7.8 2.6 11.1 1.9-1.3 2.7.2 7.1 3.1 7.2 3.7.1 9.7-6.6 15.8-21.1-13.9 6.2-19.2 1.1-23 2.9-4.9 2.3-3.3 7.4 2.8 8.9-2.6.4-5.6 0-8.8-1.8-11.9-6.7-14.7-23.3-17.6-35.8-.4 8.7 1.6 16.9 2.2 25.5.4 5.4.7 11.1.5 15.4 0 .9-.4 3.6-1.2 5.6-.3.6-.6 1.2-1 1.6-.3.3-.7.5-1.2.5-.2 0-.5-.1-.7-.2-.2-.1-.3-.1-.4-.2-.9-.6-1.2-1.7-1.2-2.9.1-1.9 1.6-1.1 2.6-1.1.6 0 .9-1 .9-1.3-.3-2-4.5-3-4.7 2.4.1 1.9.5 3.4 1.9 4.3zm9.5-37.2c-2.6-6.5-1.3-14.6 7.1-23.3 25.2-26.2 111.1-1.5 111.4-1.4 1.1.3 1.8 1.5 1.5 2.6-.3 1.1-1.5 1.8-2.6 1.5-.2-.1-83.7-24.1-107.2.3-7 7.3-8.2 13.8-6.2 18.8.9 2.4 2.6 4.5 4.7 6.2 2.2 1.8 4.8 3.2 7.5 4.1 7 2.3 14.9 1.7 19-3.3 1.6-1.9 2.6-3.6 3.2-5.3-4.3.9-8.6 1.4-13 1-6.4-.6-9.9-2.8-11.3-5.4-1.1-2.1-.9-4.4.2-6.5 1-1.8 2.7-3.4 4.7-4.4 3.3-1.6 7.5-1.6 10.9 1.5.9.8.9 2.1.1 3-.8.9-2.1.9-3 .1-1.9-1.8-4.3-1.7-6.2-.8-1.3.6-2.3 1.6-2.9 2.6-.5.8-.6 1.8-.2 2.5.8 1.4 3.1 2.7 7.9 3.2 4.4.4 8.8-.2 13.4-1.3-.1-3.4-2.1-6-3.5-7.8l-.1-.1c-2-2.6-3.3-4.5-1.2-6.6 2-2 11.6-4.9 29.2-5 11.3-.1 26.1 1 44.5 4.1 1.1.2 1.9 1.3 1.7 2.4-.2 1.2-1.3 1.9-2.4 1.7-18.1-3-32.7-4.1-43.8-4-16.3.1-24.7 2.2-26.2 3.7-.3.3.3.3 1 .7.3.1.5.3.7.6 1.7 2.3 4 5.3 4.5 9.2 2.2-.6 4.4-1.3 6.8-2.1 15.6-4.9 35.1-11.2 67.3-5.6.4-3.1 1.2-6.2 2.5-8.7 3.9-7.6 4.2-8.4 4.2-8.4.6-1 1.8-1.4 2.9-.9 1 .6 1.4 1.8.9 2.9 0 0-.1.4-4.1 8.3-1.2 2.3-1.9 5.2-2.2 7.9 3.2 1.4 10.6 5.4 3.6 10.6-1.2.9-2.3 1.2-3.4 1.1-1.5-.1-2.6-1-3.4-2.4-.6-1-.9-2.4-1.1-3.9-.1-.7-.1-1.4-.1-2.2-31.4-5.6-50.5.5-65.7 5.3-2.9.9-5.6 1.8-8.3 2.5-.6 2.7-2.1 5.7-4.9 9.2-5.3 6.4-15.1 7.4-23.6 4.6-3.3-1.1-6.3-2.7-8.9-4.8-2.6-2.3-4.7-4.9-5.9-8zm121.6-7.4v.2c.1 1 .3 1.9.6 2.4.1.2-.1.2 0 .2s.2-.1.5-.3c1.2-.8.2-1.7-1.1-2.5zm236 285c-4.6 2.9-2.4 7.7 3.9 8.5-2.5.7-5.5.7-8.9-.7-12.6-5.2-17.5-21.3-22-33.3.7 8.7 3.7 16.5 5.4 25 1.1 5.3 2 10.9 2.4 15.2.1.9.1 3.6-.5 5.7-.2.7-.5 1.3-.8 1.7-.3.4-.7.6-1.1.7-.2 0-.5 0-.8-.1-.2 0-.3-.1-.5-.2-1-.5-1.4-1.5-1.5-2.7-.2-1.9 1.5-1.3 2.4-1.4.6-.1.8-1.1.7-1.4-.5-1.9-4.8-2.4-4.4 3 .1 1.6.8 3.1 2.2 3.8l.6.3c.4.1.9.2 1.2.1.8-.1 1.5-.5 2-1.1.5-.6.8-1.3 1-2.1.7-2.3.7-5.2.6-6.2-.3-2.8-.8-6.2-1.4-9.7 2.5 7.8 5.1 16.4 6.9 25.2-2-1.4-4.7-2.4-6.6-.5-8.7 9.1 7.6 36.9 4.1 59.6 2.3-5.6 30.4-70.3 6.6-57.3 1.4 7.9-.7 29.9-.9 30 2.4-26.2-2.7-41.8-10.5-65.4.9 1.5 1.6 3.1 2.4 4.8 3.3 6.6 7.8 15.9 15.5 20.9-1.3.7-2.3 2.6-1.3 3.7 1.3 1.5 4.9 3.5 12.9.6-1.8-5.1-6.2-9.3-8.3-10.1-2.9-1.2-4.3 1.7-2.2 5-6.9-4.3-11.3-12.2-14.4-18.6 2.6 3 5.7 5.6 9.3 7.1 4.3 1.8 8.1 1.6 11.2.5-1 2.8 1.1 7 4 6.7 3.7-.3 8.8-7.7 13.1-22.9-12.8 7.7-18.7 3.3-22.3 5.6zm-26.9-25.6zm50.2 3.3c-1 3.3-2.6 6.4-4.6 9-2.1 2.7-4.7 4.9-7.7 6.2-6.4 2.8-14.5 1.7-23.5-6.4-26.9-24.5-4.7-111.1-4.6-111.3.3-1.1 1.4-1.8 2.6-1.5 1.1.3 1.8 1.4 1.5 2.6-.1.2-21.7 84.4 3.3 107.1 7.5 6.8 14 7.8 18.9 5.6 2.3-1 4.4-2.7 6.1-4.9 1.7-2.2 3-4.9 3.9-7.6 2.1-7 1.3-14.9-3.8-18.9-2-1.5-3.7-2.5-5.4-3.1 1.1 4.3 1.6 8.5 1.3 12.9-.4 6.5-2.5 9.9-5.1 11.4-2.1 1.2-4.4 1.1-6.5 0-1.9-.9-3.5-2.6-4.6-4.6-1.7-3.3-1.9-7.5 1.2-11 .8-.9 2.1-1 3-.2.9.8 1 2.1.2 3-1.7 2-1.6 4.4-.6 6.3.6 1.2 1.6 2.2 2.7 2.8.9.4 1.8.5 2.5.1 1.4-.8 2.6-3.2 2.9-8 .3-4.4-.4-8.8-1.7-13.3-3.4.2-5.9 2.2-7.7 3.7l-.1.1c-2.5 2-4.4 3.4-6.6 1.3-2-1.9-5.2-11.5-5.8-29-.4-11.3.2-26.1 2.8-44.6.2-1.2 1.2-2 2.4-1.8 1.2.2 2 1.2 1.8 2.4-2.5 18.2-3.1 32.8-2.7 43.9.5 16.3 3 24.7 4.5 26.1.3.3.3-.3.7-1 .1-.3.3-.5.6-.7 2.2-1.8 5.2-4.1 9.1-4.7-.7-2.2-1.5-4.4-2.3-6.7-5.4-15.4-12.2-34.8-7.5-67.1-3.1-.3-6.2-1.1-8.8-2.3-7.8-3.7-8.5-4-8.5-4-1-.5-1.5-1.8-.9-2.8.5-1 1.8-1.5 2.8-.9 0 0 .4.1 8.4 3.9 2.3 1.1 5.2 1.7 8 2 1.3-3.2 5.1-10.7 10.5-3.9.9 1.1 1.3 2.3 1.2 3.3-.1 1.5-.9 2.6-2.3 3.4-1 .6-2.4 1-3.9 1.2-.7.1-1.4.2-2.2.2-4.7 31.6 2 50.5 7.2 65.6 1 2.8 1.9 5.6 2.8 8.2 2.7.5 5.8 1.9 9.3 4.6 6.5 5.1 7.8 14.8 5.2 23.4zm-23.1-106.2h.2c1-.2 1.9-.4 2.4-.7.1-.1.2.1.2 0s-.1-.2-.3-.5c-.9-1.1-1.8-.1-2.5 1.2zm-15.7-143c-8.7-.4-16.9 1.6-25.5 2.2-5.4.4-11.1.7-15.4.5-.9 0-3.6-.4-5.6-1.2-.6-.3-1.2-.6-1.6-1-.3-.3-.5-.7-.5-1.2 0-.2.1-.5.2-.7.1-.2.1-.3.2-.4.6-.9 1.7-1.2 2.9-1.2 1.9.1 1.1 1.6 1.1 2.6 0 .6 1 .9 1.3.9 2-.3 3-4.5-2.4-4.7-1.7-.1-3.1.4-4 1.8l-.3.6c-.2.4-.3.8-.3 1.2 0 .8.3 1.5.9 2.1.5.5 1.2 1 2 1.3 2.2 1 5.1 1.3 6.1 1.3 2.8.1 6.2 0 9.8-.2-8 1.5-16.9 3-25.9 3.7 1.6-1.9 3-4.4 1.3-6.5-7.9-9.8-37.5 3-59.6-3.3 5.2 2.9 66 38.9 56.1 13.6-8 .4-29.6-4.4-29.6-4.6 25.7 5.7 41.8 2.5 66.2-2.3-1.6.7-3.3 1.2-5 1.8-7 2.4-16.8 5.8-22.7 12.8-.5-1.4-2.3-2.6-3.5-1.8-1.7 1.1-4.1 4.4-2.2 12.7 5.3-1.2 10-5 11.1-7 1.5-2.7-1.1-4.5-4.7-2.8 5.1-6.3 13.5-9.7 20.3-12-3.3 2.2-6.3 5-8.2 8.3-2.3 4.1-2.6 7.8-1.9 11.1-2.7-1.3-7.1.2-7.2 3.1-.1 3.7 6.6 9.7 21.1 15.8-6.2-13.9-1.1-19.2-2.9-23-2.3-4.9-7.4-3.3-8.9 2.8-.4-2.6 0-5.6 1.8-8.8 6.4-11.8 23-14.6 35.5-17.5zm0 0zm-3.2 124.2c5.6-31.4-.5-50.5-5.3-65.7-.9-2.9-1.8-5.6-2.5-8.3-2.7-.6-5.8-2.1-9.2-4.9-6.4-5.3-7.4-15.1-4.6-23.6 1.1-3.3 2.7-6.3 4.8-8.9 2.2-2.6 4.8-4.7 7.9-5.9 6.5-2.6 14.6-1.3 23.3 7.1 26.2 25.2 1.5 111.1 1.4 111.4-.3 1.1-1.5 1.8-2.6 1.5-1.1-.3-1.8-1.5-1.5-2.6.1-.2 24.1-83.7-.3-107.2-7.3-7-13.8-8.2-18.8-6.2-2.4.9-4.5 2.6-6.2 4.7-1.8 2.2-3.2 4.8-4.1 7.5-2.3 7-1.7 14.9 3.3 19 1.9 1.6 3.7 2.6 5.3 3.2-.9-4.3-1.4-8.6-1-13 .6-6.4 2.8-9.9 5.4-11.3 2.1-1.1 4.4-.9 6.5.2 1.8 1 3.4 2.7 4.4 4.7 1.6 3.3 1.6 7.5-1.5 10.9-.8.9-2.1.9-3 .1-.9-.8-.9-2.1-.1-3 1.8-1.9 1.7-4.3.8-6.2-.6-1.3-1.6-2.3-2.6-2.9-.8-.5-1.8-.6-2.5-.2-1.4.8-2.7 3.1-3.2 7.9-.4 4.4.2 8.8 1.3 13.4 3.4-.1 5.9-2.1 7.8-3.5l.1-.1c2.6-1.9 4.5-3.3 6.6-1.2 2 2 4.9 11.6 5 29.2.1 11.3-1 26.1-4.1 44.5-.2 1.1-1.3 1.9-2.4 1.7-1.1-.2-1.9-1.3-1.7-2.4 3-18.1 4.1-32.7 4-43.8-.1-16.3-2.2-24.7-3.7-26.2-.3-.3-.3.3-.7 1-.1.3-.3.5-.6.7-2.3 1.7-5.3 4-9.2 4.5.6 2.2 1.3 4.4 2.1 6.8 4.9 15.6 11.2 35.1 5.6 67.3 3.1.4 6.2 1.2 8.7 2.5 7.6 3.9 8.4 4.2 8.4 4.2 1 .6 1.4 1.8.9 2.9-.6 1-1.8 1.4-2.9.9 0 0-.4-.1-8.3-4.2-2.3-1.2-5.2-1.9-7.9-2.2-1.4 3.2-5.4 10.6-10.6 3.6-.9-1.2-1.2-2.3-1.1-3.4.1-1.5 1-2.6 2.4-3.4 1-.6 2.4-.9 3.9-1.1h2.3zm-1.5 4.3h-.2c-1 .1-1.9.3-2.4.6-.2.1-.2-.1-.2 0s.1.2.3.5c.8 1.2 1.7.2 2.5-1.1zM192 494.3c-2.9-4.6-7.7-2.4-8.5 3.9-.7-2.5-.7-5.5.7-8.9 5.2-12.6 21.3-17.5 33.3-22-8.7.6-16.5 3.7-25 5.4-5.3 1.1-10.9 2-15.2 2.4-.9.1-3.6.1-5.7-.5-.7-.2-1.3-.5-1.7-.8-.4-.3-.6-.7-.7-1.1 0-.2 0-.5.1-.8.1-.2.1-.3.2-.5.5-1 1.5-1.4 2.7-1.5 1.9-.1 1.3 1.5 1.4 2.4.1.6 1.1.8 1.4.7 1.9-.5 2.4-4.8-3-4.4-1.7.1-3.1.8-3.8 2.2l-.3.6c-.1.4-.2.9-.1 1.2.1.8.5 1.5 1.1 2 .6.5 1.3.8 2.1 1 2.3.7 5.2.7 6.2.6 2.8-.3 6.2-.8 9.7-1.4-7.8 2.5-16.4 5.1-25.2 6.9 1.4-2 2.4-4.7.5-6.6-9.1-8.7-36.9 7.6-59.6 4.1 5.6 2.3 70.3 30.4 57.3 6.6-7.9 1.4-29.9-.7-30-.9 26.2 2.4 41.8-2.7 65.4-10.5-1.5.9-3.1 1.6-4.8 2.4-6.6 3.3-15.9 7.8-20.9 15.5-.7-1.3-2.6-2.3-3.7-1.3-1.5 1.3-3.5 4.9-.6 12.9 5.1-1.8 9.3-6.2 10.1-8.3 1.2-2.9-1.7-4.3-5-2.2 4.3-6.9 12.2-11.3 18.6-14.4-3 2.6-5.6 5.7-7.1 9.3-1.8 4.3-1.6 8.1-.5 11.2-2.8-1-7 1.1-6.7 4 .3 3.7 7.7 8.8 22.9 13.1-7.8-12.8-3.4-18.7-5.6-22.3zm132.3 6c-1.1.9-2.3 1.3-3.3 1.2-1.5-.1-2.6-.9-3.4-2.3-.6-1-1-2.4-1.2-3.9-.1-.7-.2-1.4-.2-2.2-31.6-4.7-50.5 2-65.6 7.2-2.8 1-5.6 1.9-8.2 2.8-.5 2.7-1.9 5.8-4.6 9.3-5.1 6.6-14.8 7.8-23.4 5.2-3.3-1-6.4-2.5-9-4.6-2.7-2.1-4.9-4.7-6.2-7.7-2.8-6.4-1.7-14.5 6.4-23.5 24.5-26.9 111.1-4.7 111.3-4.6 1.1.3 1.8 1.4 1.5 2.6-.3 1.1-1.4 1.8-2.6 1.5-.2-.1-84.4-21.7-107.1 3.3-6.8 7.5-7.8 14-5.6 18.9 1 2.3 2.7 4.4 4.9 6.1 2.2 1.7 4.9 3 7.6 3.9 7 2.1 14.9 1.3 18.9-3.8 1.5-1.9 2.5-3.7 3.1-5.3-4.3 1.1-8.5 1.6-12.9 1.3-6.5-.4-9.9-2.5-11.4-5.1-1.2-2.1-1.1-4.4 0-6.5.9-1.9 2.6-3.5 4.6-4.6 3.3-1.7 7.5-1.9 11 1.2.9.8 1 2.1.2 3-.8.9-2.1 1-3 .2-2-1.7-4.4-1.6-6.3-.6-1.2.6-2.2 1.6-2.8 2.7-.4.9-.5 1.8-.1 2.5.8 1.4 3.2 2.6 8 2.9 4.4.3 8.8-.4 13.3-1.7-.2-3.4-2.2-5.9-3.7-7.7l-.1-.1c-2-2.5-3.4-4.4-1.3-6.6 1.9-2.1 11.5-5.2 29.1-5.8 11.3-.4 26.1.2 44.6 2.8 1.2.2 2 1.2 1.8 2.4-.2 1.2-1.2 2-2.4 1.8-18.2-2.5-32.8-3.1-43.9-2.7-16.3.5-24.7 3-26.1 4.5-.3.3.3.3 1 .7.3.1.5.3.7.6 1.8 2.2 4.1 5.2 4.7 9.1 2.2-.7 4.4-1.5 6.7-2.3 15.4-5.4 34.8-12.2 67.1-7.5.3-3.1 1.1-6.2 2.3-8.8 3.7-7.8 4-8.5 4-8.5.5-1 1.8-1.5 2.8-.9 1 .5 1.5 1.8.9 2.8 0 0-.1.4-3.9 8.4-1.1 2.3-1.7 5.2-2 8 3.1 1.2 10.6 5 3.8 10.4zm-3.9-5.8v.2c.2 1 .4 1.9.7 2.4.1.1-.1.2 0 .2s.2-.1.5-.3c1.1-.9.1-1.8-1.2-2.5zm145.7-65l-.6-.3c-.4-.2-.8-.3-1.2-.3-.8 0-1.5.3-2.1.9-.5.5-1 1.2-1.3 2-1 2.2-1.3 5.1-1.3 6.1-.1 2.8 0 6.2.2 9.8-1.5-8-3-16.9-3.7-25.9 1.9 1.6 4.4 3 6.5 1.3 9.8-7.9-3-37.5 3.3-59.6-2.9 5.2-38.9 66-13.6 56.1-.4-8 4.4-29.6 4.6-29.6-5.7 25.7-2.6 41.8 2.3 66.2-.7-1.6-1.2-3.3-1.8-5-2.4-7-5.8-16.8-12.8-22.7 1.4-.5 2.6-2.3 1.8-3.5-1.1-1.7-4.4-4.1-12.7-2.2 1.2 5.3 5 10 7 11.1 2.7 1.5 4.5-1.1 2.8-4.7 6.3 5.1 9.7 13.5 12 20.3-2.2-3.3-5-6.3-8.3-8.2-4.1-2.3-7.8-2.6-11.1-1.9 1.3-2.7-.2-7.1-3.1-7.2-3.7-.1-9.7 6.6-15.8 21.1 13.9-6.2 19.2-1.1 23-2.9 4.9-2.3 3.3-7.4-2.8-8.9 2.6-.4 5.6 0 8.8 1.8 11.9 6.7 14.7 23.3 17.6 35.8.4-8.7-1.6-16.9-2.2-25.5-.4-5.4-.7-11.1-.5-15.4 0-.9.4-3.6 1.2-5.6.3-.6.6-1.2 1-1.6.3-.3.7-.5 1.2-.5.2 0 .5.1.7.2.2.1.3.1.4.2.9.6 1.2 1.7 1.2 2.9-.1 1.9-1.6 1.1-2.6 1.1-.6 0-.9 1-.9 1.3.3 2 4.5 3 4.7-2.4-.1-1.9-.6-3.4-1.9-4.3zm-9.5 37.2c2.6 6.5 1.3 14.6-7.1 23.3-25.2 26.2-111.1 1.5-111.4 1.4-1.1-.3-1.8-1.5-1.5-2.6.3-1.1 1.5-1.8 2.6-1.5.2.1 83.7 24.1 107.2-.3 7-7.3 8.2-13.8 6.2-18.8-.9-2.4-2.6-4.5-4.7-6.2-2.2-1.8-4.8-3.2-7.5-4.1-7-2.3-14.9-1.7-19 3.3-1.6 1.9-2.6 3.7-3.2 5.3 4.3-.9 8.6-1.4 13-1 6.4.6 9.9 2.8 11.3 5.4 1.1 2.1.9 4.4-.2 6.5-1 1.8-2.7 3.4-4.7 4.4-3.3 1.6-7.5 1.7-10.9-1.5-.9-.8-.9-2.1-.1-3 .8-.9 2.1-.9 3-.1 1.9 1.8 4.3 1.7 6.2.8 1.3-.6 2.3-1.6 2.9-2.6.5-.8.6-1.8.2-2.5-.8-1.4-3.1-2.7-7.9-3.1-4.4-.4-8.8.2-13.4 1.3.1 3.4 2.1 5.9 3.5 7.8l.1.1c2 2.6 3.3 4.5 1.2 6.6-2 2-11.6 4.9-29.2 5-11.3.1-26.1-1-44.5-4.1-1.1-.2-1.9-1.3-1.7-2.4.2-1.1 1.3-1.9 2.4-1.7 18.1 3 32.7 4.1 43.8 4 16.3-.1 24.7-2.2 26.2-3.7.3-.3-.3-.3-1-.7-.2-.1-.5-.3-.7-.6-1.7-2.3-4-5.3-4.5-9.2-2.2.6-4.4 1.3-6.8 2.1-15.6 4.9-35.1 11.2-67.3 5.6-.4 3.1-1.2 6.2-2.5 8.7-3.9 7.6-4.2 8.4-4.2 8.4-.6 1-1.8 1.4-2.9.9-1-.6-1.4-1.8-.9-2.9 0 0 .1-.4 4.2-8.3 1.2-2.3 1.9-5.2 2.2-7.9-3.2-1.4-10.6-5.4-3.6-10.6 1.2-.9 2.3-1.2 3.4-1.1 1.5.1 2.6 1 3.4 2.4.6 1 .9 2.4 1.1 3.9.1.7.1 1.4.1 2.2 31.4 5.6 50.5-.5 65.7-5.3 2.9-.9 5.6-1.8 8.3-2.5.6-2.7 2.1-5.8 4.9-9.2 5.3-6.4 15.1-7.4 23.6-4.6 3.3 1.1 6.3 2.7 8.9 4.8 2.5 2.1 4.6 4.8 5.8 7.9zm-121.7 7.4v-.2c-.1-1-.3-1.9-.6-2.4-.1-.2.1-.2 0-.2s-.2.1-.5.3c-1.1.8-.1 1.7 1.1 2.5z"/></svg>