<svg xmlns="http://www.w3.org/2000/svg" viewBox="0 0 80 80"><path d="M19 10c-3.855 0-7 3.145-7 7v11h-2c-1.645 0-3 1.355-3 3v6c0 1.645 1.355 3 3 3h2v26c0 1.258.895 2.14 2 2.582V71c0 1.094.906 2 2 2h8c1.094 0 2-.906 2-2v-2h28v2c0 1.094.906 2 2 2h8c1.094 0 2-.906 2-2v-2.418c1.105-.441 2-1.324 2-2.582V40h2c1.645 0 3-1.355 3-3v-6c0-1.645-1.355-3-3-3h-2V17c0-3.855-3.145-7-7-7zm0 2h42c2.773 0 5 2.227 5 5v1H14v-1c0-2.773 2.227-5 5-5zm9 2c-.55 0-1 .45-1 1s.45 1 1 1 1-.45 1-1-.45-1-1-1zm4 0c-.55 0-1 .45-1 1s.45 1 1 1 1-.45 1-1-.45-1-1-1zm4 0c-.55 0-1 .45-1 1s.45 1 1 1 1-.45 1-1-.45-1-1-1zm4 0c-.55 0-1 .45-1 1s.45 1 1 1 1-.45 1-1-.45-1-1-1zm4 0c-.55 0-1 .45-1 1s.45 1 1 1 1-.45 1-1-.45-1-1-1zm4 0c-.55 0-1 .45-1 1s.45 1 1 1 1-.45 1-1-.45-1-1-1zm4 0c-.55 0-1 .45-1 1s.45 1 1 1 1-.45 1-1-.45-1-1-1zm-38 6h25c0 .55.45 1 1 1s1-.45 1-1h25v10h4c.566 0 1 .434 1 1v6c0 .566-.434 1-1 1h-4v6H41c0-.55-.45-1-1-1s-1 .45-1 1H14v-6h-4c-.566 0-1-.434-1-1v-6c0-.566.434-1 1-1h4zm26 3c-.55 0-1 .45-1 1s.45 1 1 1 1-.45 1-1-.45-1-1-1zm0 4c-.55 0-1 .45-1 1s.45 1 1 1 1-.45 1-1-.45-1-1-1zm-27 4c-.55 0-1 .45-1 1s.45 1 1 1 1-.45 1-1-.45-1-1-1zm27 0c-.55 0-1 .45-1 1s.45 1 1 1 1-.45 1-1-.45-1-1-1zm27 0c-.55 0-1 .45-1 1s.45 1 1 1 1-.45 1-1-.45-1-1-1zm-54 4c-.55 0-1 .45-1 1s.45 1 1 1 1-.45 1-1-.45-1-1-1zm27 0c-.55 0-1 .45-1 1s.45 1 1 1 1-.45 1-1-.45-1-1-1zm27 0c-.55 0-1 .45-1 1s.45 1 1 1 1-.45 1-1-.45-1-1-1zm-27 4c-.55 0-1 .45-1 1s.45 1 1 1 1-.45 1-1-.45-1-1-1zm-26 7h52v20c0 .566-.434 1-1 1h-1v4h-8v-4H24v4h-8v-4h-1c-.566 0-1-.434-1-1zm7 8c-2.2 0-4 1.8-4 4v1h.203c.457 1.707 1.953 3 3.797 3h2c1.844 0 3.34-1.293 3.797-3H27v-1c0-2.2-1.8-4-4-4zm9 0c-.55 0-1 .45-1 1s.45 1 1 1 1-.45 1-1-.45-1-1-1zm4 0c-.55 0-1 .45-1 1s.45 1 1 1 1-.45 1-1-.45-1-1-1zm4 0c-.55 0-1 .45-1 1s.45 1 1 1 1-.45 1-1-.45-1-1-1zm4 0c-.55 0-1 .45-1 1s.45 1 1 1 1-.45 1-1-.45-1-1-1zm4 0c-.55 0-1 .45-1 1s.45 1 1 1 1-.45 1-1-.45-1-1-1zm4 0c-.55 0-1 .45-1 1s.45 1 1 1 1-.45 1-1-.45-1-1-1zm7 0c-2.2 0-4 1.8-4 4v1h.203c.457 1.707 1.953 3 3.797 3h2c1.844 0 3.34-1.293 3.797-3H63v-1c0-2.2-1.8-4-4-4zm-36 2h2c1.117 0 2 .883 2 2s-.883 2-2 2h-2c-1.117 0-2-.883-2-2s.883-2 2-2zm36 0h2c1.117 0 2 .883 2 2s-.883 2-2 2h-2c-1.117 0-2-.883-2-2s.883-2 2-2zm-25 1c-.55 0-1 .45-1 1s.45 1 1 1 1-.45 1-1-.45-1-1-1zm4 0c-.55 0-1 .45-1 1s.45 1 1 1 1-.45 1-1-.45-1-1-1zm4 0c-.55 0-1 .45-1 1s.45 1 1 1 1-.45 1-1-.45-1-1-1zm4 0c-.55 0-1 .45-1 1s.45 1 1 1 1-.45 1-1-.45-1-1-1zm4 0c-.55 0-1 .45-1 1s.45 1 1 1 1-.45 1-1-.45-1-1-1zm-18 3c-.55 0-1 .45-1 1s.45 1 1 1 1-.45 1-1-.45-1-1-1zm4 0c-.55 0-1 .45-1 1s.45 1 1 1 1-.45 1-1-.45-1-1-1zm4 0c-.55 0-1 .45-1 1s.45 1 1 1 1-.45 1-1-.45-1-1-1zm4 0c-.55 0-1 .45-1 1s.45 1 1 1 1-.45 1-1-.45-1-1-1zm4 0c-.55 0-1 .45-1 1s.45 1 1 1 1-.45 1-1-.45-1-1-1zm4 0c-.55 0-1 .45-1 1s.45 1 1 1 1-.45 1-1-.45-1-1-1zm-32 7c-.55 0-1 .45-1 1s.45 1 1 1 1-.45 1-1-.45-1-1-1zm4 0c-.55 0-1 .45-1 1s.45 1 1 1 1-.45 1-1-.45-1-1-1zm36 0c-.55 0-1 .45-1 1s.45 1 1 1 1-.45 1-1-.45-1-1-1zm4 0c-.55 0-1 .45-1 1s.45 1 1 1 1-.45 1-1-.45-1-1-1z"/></svg>