<svg id="Layer" xmlns="http://www.w3.org/2000/svg" viewBox="0 0 595.3 595.3"><style>.st0{fill:#1f1a17}</style><path class="st0" d="M113.7 434.6c3.6-3.1 4.8-11.4 4.8-11.4s.4 3.2-.5 7.1c-.9 3.9-3.5 9.1-6.7 11.1-3.1 2.1-10.5 3.6-10.5 3.6 3.3-7.8 9.3-7.3 12.9-10.4zm-2.5-6.2c-2.7 1.2-3.4 4.4-4.3 7.6 0 0 4-.6 6.5-3.2 2.4-2.6 5.1-7.7 4-11.6-1.1-3.9-5.3-4.9-7.2-1.5-1.9 3.3 2 5.9 2.7 2.9.7-2.9 2.3-4.7 3.3-2.1 1 2.7-2.4 6.8-5 7.9zm0-118.4c-2.7 1.2-3.4 4.4-4.3 7.6 0 0 4-.6 6.5-3.2 2.4-2.6 5.1-7.7 4-11.6-1.1-3.9-5.3-4.9-7.2-1.5-1.9 3.3 2 5.9 2.7 2.9.7-2.9 2.3-4.7 3.3-2.1 1 2.7-2.4 6.8-5 7.9zm-10.4 16.7s7.4-1.6 10.5-3.6c3.1-2.1 5.8-7.3 6.7-11.1.9-3.9.5-7.1.5-7.1s-1.3 8.3-4.8 11.4c-3.6 3-9.6 2.5-12.9 10.4zm10.4-135.1c-2.7 1.2-3.4 4.4-4.3 7.6 0 0 4-.6 6.5-3.2 2.4-2.6 5.1-7.7 4-11.6-1.1-3.9-5.3-4.9-7.2-1.5-1.9 3.3 2 5.9 2.7 2.9.7-2.9 2.3-4.7 3.3-2.1 1 2.7-2.4 6.8-5 7.9zm-10.4 16.7s7.4-1.6 10.5-3.6c3.1-2.1 5.8-7.3 6.7-11.1.9-3.9.5-7.1.5-7.1s-1.3 8.3-4.8 11.4c-3.6 3-9.6 2.5-12.9 10.4zm10.4 160.9c-2.7 1.2-3.4 4.4-4.3 7.6 0 0 4-.6 6.5-3.2 2.4-2.6 5.1-7.7 4-11.6-1.1-3.9-5.3-4.9-7.2-1.5-1.9 3.3 2 5.9 2.7 2.9.7-2.9 2.3-4.7 3.3-2.1 1 2.7-2.4 6.8-5 7.9zm-10.4 16.7s7.4-1.6 10.5-3.6c3.1-2.1 5.8-7.3 6.7-11.1.9-3.9.5-7.1.5-7.1s-1.3 8.3-4.8 11.4c-3.6 3-9.6 2.5-12.9 10.4zm10.4-135.1c-2.7 1.2-3.4 4.4-4.3 7.6 0 0 4-.6 6.5-3.2 2.4-2.6 5.1-7.7 4-11.6-1.1-3.9-5.3-4.9-7.2-1.5-1.9 3.3 2 5.9 2.7 2.9.7-2.9 2.3-4.7 3.3-2.1 1 2.7-2.4 6.8-5 7.9zm-10.4 16.7s7.4-1.6 10.5-3.6c3.1-2.1 5.8-7.3 6.7-11.1.9-3.9.5-7.1.5-7.1s-1.3 8.3-4.8 11.4c-3.6 3-9.6 2.5-12.9 10.4zm0-118.4s7.4-1.6 10.5-3.6c3.1-2.1 5.8-7.3 6.7-11.1.9-3.9.5-7.1.5-7.1s-1.3 8.3-4.8 11.4c-3.6 3-9.6 2.5-12.9 10.4zm10.4-16.7c-2.7 1.2-3.4 4.4-4.3 7.6 0 0 4-.6 6.5-3.2 2.4-2.6 5.1-7.7 4-11.6-1.1-3.9-5.3-4.9-7.2-1.5-1.9 3.3 2 5.9 2.7 2.9.7-2.9 2.3-4.7 3.3-2.1 1 2.7-2.4 6.8-5 7.9zm-6 288.2c5-1.1 3-4.6 15.7-4.6-12.6 0-10.7-3.5-15.7-4.6-3.9-.9-5.3 3.4-9.6 4.6 4.3 1.2 5.6 5.5 9.6 4.6zm0-127.5c-3.9-.9-5.3 3.4-9.6 4.6 4.3 1.2 5.7 5.4 9.6 4.6 5-1.1 3-4.6 15.7-4.6-12.7-.1-10.7-3.6-15.7-4.6zm0-109.3c5-1.1 3-4.6 15.7-4.6-12.6 0-10.7-3.5-15.7-4.6-3.9-.9-5.3 3.4-9.6 4.6 4.3 1.2 5.6 5.5 9.6 4.6zm0 168.5c-3.9-.9-5.3 3.4-9.6 4.6 4.3 1.2 5.7 5.4 9.6 4.6 5-1.1 3-4.6 15.7-4.6-12.7-.1-10.7-3.6-15.7-4.6zm0-118.4c-3.9-.9-5.3 3.4-9.6 4.6 4.3 1.2 5.7 5.4 9.6 4.6 5-1.1 3-4.6 15.7-4.6-12.7-.1-10.7-3.6-15.7-4.6zm19.7 211.7c-3.7-1.6-5.2-3.1-7-5.6-1.8 2.2-6.1 4.1-14.7 5.6 8.6 1.5 12.9 3.4 14.7 5.6 1.8-2.5 3.3-4 7-5.6zm-7-123.9c-1.8 2.2-6.1 4.1-14.7 5.6 8.6 1.5 12.9 3.4 14.7 5.6 1.8-2.5 3.3-4 7-5.6-3.7-1.7-5.2-3.2-7-5.6zm0-118.4c-1.8 2.2-6.1 4.1-14.7 5.6 8.6 1.5 12.9 3.4 14.7 5.6 1.8-2.5 3.3-4 7-5.6-3.7-1.7-5.2-3.2-7-5.6zm0 177.6c-1.8 2.2-6.1 4.1-14.7 5.6 8.6 1.5 12.9 3.4 14.7 5.6 1.8-2.5 3.3-4 7-5.6-3.7-1.7-5.2-3.2-7-5.6zm0-118.4c-1.8 2.2-6.1 4.1-14.7 5.6 8.6 1.5 12.9 3.4 14.7 5.6 1.8-2.5 3.3-4 7-5.6-3.7-1.7-5.2-3.2-7-5.6zm0-118.4c-1.8 2.2-6.1 4.1-14.7 5.6 8.6 1.5 12.9 3.4 14.7 5.6 1.8-2.5 3.3-4 7-5.6-3.7-1.7-5.2-3.2-7-5.6zm-5 324.5c-.7-2.9-4.6-.4-2.7 2.9 1.9 3.3 6.1 2.4 7.2-1.5 1.1-3.9-1.6-9-4-11.6-2.4-2.6-6.5-3.2-6.5-3.2.9 3.2 1.6 6.4 4.3 7.6 2.7 1.2 6 5.3 5 7.8-1 2.6-2.6.9-3.3-2zm5.1-7.6c-.9-3.9-3.5-9.1-6.7-11.1-3.1-2.1-10.5-3.6-10.5-3.6 3.3 7.8 9.3 7.3 12.9 10.5 3.6 3.1 4.8 11.4 4.8 11.4s.4-3.3-.5-7.2zm-6.8-116.6c2.7 1.2 6 5.3 5 7.8-1 2.6-2.6.8-3.3-2.1-.7-2.9-4.6-.4-2.7 2.9 1.9 3.3 6.1 2.4 7.2-1.5 1.1-3.9-1.6-9-4-11.6-2.4-2.6-6.5-3.2-6.5-3.2.9 3.3 1.6 6.6 4.3 7.7zm.1-12.9c-3.1-2.1-10.5-3.6-10.5-3.6 3.3 7.8 9.3 7.3 12.9 10.5 3.6 3.1 4.8 11.4 4.8 11.4s.4-3.2-.5-7.1c-.9-4-3.5-9.2-6.7-11.2zm-.1-105.5c2.7 1.2 6 5.3 5 7.8-1 2.6-2.6.8-3.3-2.1-.7-2.9-4.6-.4-2.7 2.9 1.9 3.3 6.1 2.4 7.2-1.5 1.1-3.9-1.6-9-4-11.6-2.4-2.6-6.5-3.2-6.5-3.2.9 3.3 1.6 6.6 4.3 7.7zm.1-12.9c-3.1-2.1-10.5-3.6-10.5-3.6 3.3 7.8 9.3 7.3 12.9 10.5 3.6 3.1 4.8 11.4 4.8 11.4s.4-3.2-.5-7.1c-.9-4-3.5-9.2-6.7-11.2zm1.6 196.3c-.7-2.9-4.6-.4-2.7 2.9 1.9 3.3 6.1 2.4 7.2-1.5 1.1-3.9-1.6-9-4-11.6-2.4-2.6-6.5-3.2-6.5-3.2.9 3.2 1.6 6.4 4.3 7.6 2.7 1.2 6 5.3 5 7.8-1 2.6-2.6.9-3.3-2zm5.1-7.6c-.9-3.9-3.5-9.1-6.7-11.1-3.1-2.1-10.5-3.6-10.5-3.6 3.3 7.8 9.3 7.3 12.9 10.5 3.6 3.1 4.8 11.4 4.8 11.4s.4-3.3-.5-7.2zM112.9 291c-.7-2.9-4.6-.4-2.7 2.9 1.9 3.3 6.1 2.4 7.2-1.5 1.1-3.9-1.6-9-4-11.6-2.4-2.6-6.5-3.2-6.5-3.2.9 3.1 1.6 6.4 4.3 7.6 2.7 1.2 6 5.3 5 7.8-1 2.6-2.6.9-3.3-2zm-1.6-18.7c-3.1-2.1-10.5-3.6-10.5-3.6 3.3 7.8 9.3 7.3 12.9 10.5 3.6 3.1 4.8 11.4 4.8 11.4s.4-3.2-.5-7.1c-.9-4-3.5-9.2-6.7-11.2zM118 165c-.9-3.9-3.5-9.1-6.7-11.1-3.1-2.1-10.5-3.6-10.5-3.6 3.3 7.8 9.3 7.3 12.9 10.5 3.6 3.1 4.8 11.4 4.8 11.4s.4-3.3-.5-7.2zm-5.1 7.6c-.7-2.9-4.6-.4-2.7 2.9 1.9 3.3 6.1 2.4 7.2-1.5 1.1-3.9-1.6-9-4-11.6-2.4-2.6-6.5-3.2-6.5-3.2.9 3.1 1.6 6.4 4.3 7.6 2.7 1.2 6 5.3 5 7.8-1 2.6-2.6.9-3.3-2zm369.5 250.1c.7 2.9 4.6.4 2.7-2.9-1.9-3.3-6.1-2.4-7.2 1.5-1.1 3.9 1.6 9 4 11.6 2.4 2.6 6.5 3.2 6.5 3.2-.9-3.2-1.6-6.4-4.3-7.6-2.7-1.2-6-5.3-5-7.8 1-2.7 2.5-.9 3.3 2zm-.8 11.9c-3.6-3.1-4.8-11.4-4.8-11.4s-.4 3.2.5 7.1c.9 3.9 3.5 9.1 6.7 11.1 3.1 2.1 10.5 3.6 10.5 3.6-3.3-7.8-9.3-7.3-12.9-10.4zm.8-130.3c.7 2.9 4.6.4 2.7-2.9-1.9-3.3-6.1-2.4-7.2 1.5-1.1 3.9 1.6 9 4 11.6 2.4 2.6 6.5 3.2 6.5 3.2-.9-3.2-1.6-6.4-4.3-7.6-2.7-1.2-6-5.3-5-7.8 1-2.7 2.5-.9 3.3 2zm-5.1 7.6c.9 3.9 3.5 9.1 6.7 11.1 3.1 2.1 10.5 3.6 10.5 3.6-3.3-7.8-9.3-7.3-12.9-10.5-3.6-3.1-4.8-11.4-4.8-11.4s-.4 3.3.5 7.2zm0-118.4c.9 3.9 3.5 9.1 6.7 11.1 3.1 2.1 10.5 3.6 10.5 3.6-3.3-7.8-9.3-7.3-12.9-10.5-3.6-3.1-4.8-11.4-4.8-11.4s-.4 3.3.5 7.2zm5.1-7.6c.7 2.9 4.6.4 2.7-2.9-1.9-3.3-6.1-2.4-7.2 1.5-1.1 3.9 1.6 9 4 11.6 2.4 2.6 6.5 3.2 6.5 3.2-.9-3.1-1.6-6.4-4.3-7.6-2.7-1.2-6-5.3-5-7.8 1-2.7 2.5-.9 3.3 2zm0 177.6c.7 2.9 4.6.4 2.7-2.9-1.9-3.3-6.1-2.4-7.2 1.5-1.1 3.9 1.6 9 4 11.6 2.4 2.6 6.5 3.2 6.5 3.2-.9-3.2-1.6-6.4-4.3-7.6-2.7-1.2-6-5.3-5-7.8 1-2.7 2.5-.9 3.3 2zm-5.1 7.6c.9 3.9 3.5 9.1 6.7 11.1 3.1 2.1 10.5 3.6 10.5 3.6-3.3-7.8-9.3-7.3-12.9-10.5-3.6-3.1-4.8-11.4-4.8-11.4s-.4 3.3.5 7.2zm0-118.4c.9 3.9 3.5 9.1 6.7 11.1 3.1 2.1 10.5 3.6 10.5 3.6-3.3-7.8-9.3-7.3-12.9-10.5-3.6-3.1-4.8-11.4-4.8-11.4s-.4 3.3.5 7.2zm11.1 5.7zm-6-13.3c.7 2.9 4.6.4 2.7-2.9-1.9-3.3-6.1-2.4-7.2 1.5-1.1 3.9 1.6 9 4 11.6 2.4 2.6 6.5 3.2 6.5 3.2-.9-3.1-1.6-6.4-4.3-7.6-2.7-1.2-6-5.3-5-7.8 1-2.7 2.5-.9 3.3 2zm0-118.4c.7 2.9 4.6.4 2.7-2.9-1.9-3.3-6.1-2.4-7.2 1.5-1.1 3.9 1.6 9 4 11.6 2.4 2.6 6.5 3.2 6.5 3.2-.9-3.1-1.6-6.4-4.3-7.6-2.7-1.2-6-5.3-5-7.8 1-2.7 2.5-.9 3.3 2zm-5.1 7.6c.9 3.9 3.5 9.1 6.7 11.1 3.1 2.1 10.5 3.6 10.5 3.6-3.3-7.8-9.3-7.3-12.9-10.5-3.6-3.1-4.8-11.4-4.8-11.4s-.4 3.3.5 7.2zm12.8 277.2c-5 1.1-3 4.6-15.7 4.6 12.6 0 10.7 3.5 15.7 4.6 3.9.9 5.3-3.4 9.6-4.6-4.3-1.2-5.7-5.5-9.6-4.6zm0-118.4c-5 1.1-3 4.6-15.7 4.6 12.6 0 10.7 3.5 15.7 4.6 3.9.9 5.3-3.4 9.6-4.6-4.3-1.2-5.7-5.5-9.6-4.6zm0-118.4c-5 1.1-3 4.6-15.7 4.6 12.6 0 10.7 3.5 15.7 4.6 3.9.9 5.3-3.4 9.6-4.6-4.3-1.2-5.7-5.5-9.6-4.6zm0 177.6c-5 1.1-3 4.6-15.7 4.6 12.6 0 10.7 3.5 15.7 4.6 3.9.9 5.3-3.4 9.6-4.6-4.3-1.2-5.7-5.5-9.6-4.6zm0-118.4c-5 1.1-3 4.6-15.7 4.6 12.6 0 10.7 3.5 15.7 4.6 3.9.9 5.3-3.4 9.6-4.6-4.3-1.2-5.7-5.5-9.6-4.6zm2 211.7c-8.6-1.5-12.9-3.4-14.7-5.6-1.8 2.5-3.3 4-7 5.6 3.7 1.6 5.2 3.1 7 5.6 1.7-2.1 6.1-4 14.7-5.6zm-14.8-112.8c1.8-2.2 6.1-4.1 14.7-5.6-8.6-1.5-12.9-3.4-14.7-5.6-1.8 2.5-3.3 4-7 5.6 3.7 1.6 5.3 3.1 7 5.6zm0-118.4c1.8-2.2 6.1-4.1 14.7-5.6-8.6-1.5-12.9-3.4-14.7-5.6-1.8 2.5-3.3 4-7 5.6 3.7 1.6 5.3 3.1 7 5.6zm0 177.6c1.8-2.2 6.1-4.1 14.7-5.6-8.6-1.5-12.9-3.4-14.7-5.6-1.8 2.5-3.3 4-7 5.6 3.7 1.6 5.3 3.1 7 5.6zm0-118.4c1.8-2.2 6.1-4.1 14.7-5.6-8.6-1.5-12.9-3.4-14.7-5.6-1.8 2.5-3.3 4-7 5.6 3.7 1.6 5.3 3.1 7 5.6zm-6.9-124c3.7 1.6 5.2 3.1 7 5.6 1.8-2.2 6.1-4.1 14.7-5.6-8.6-1.5-12.9-3.4-14.7-5.6-1.8 2.5-3.4 4-7 5.6zm13.7 313.2c2.7-1.2 3.4-4.4 4.3-7.6 0 0-4 .6-6.5 3.2-2.4 2.6-5.1 7.7-4 11.6 1.1 3.9 5.3 4.9 7.2 1.5 1.9-3.3-2-5.9-2.7-2.9-.7 2.9-2.3 4.7-3.3 2.1s2.3-6.7 5-7.9zm10.4-16.6s-7.4 1.6-10.5 3.6c-3.1 2.1-5.8 7.3-6.7 11.1-.9 3.9-.5 7.1-.5 7.1s1.3-8.3 4.8-11.4c3.6-3.1 9.6-2.5 12.9-10.4zm0-118.4s-7.4 1.6-10.5 3.6c-3.1 2.1-5.8 7.3-6.7 11.1-.9 3.9-.5 7.1-.5 7.1s1.3-8.3 4.8-11.4c3.6-3.1 9.6-2.5 12.9-10.4zm-6.1 9.1zm-4.3 7.5c2.7-1.2 3.4-4.4 4.3-7.6 0 0-4 .6-6.5 3.2-2.4 2.6-5.1 7.7-4 11.6 1.1 3.9 5.3 4.9 7.2 1.5 1.9-3.3-2-5.9-2.7-2.9-.7 2.9-2.3 4.7-3.3 2.1s2.3-6.7 5-7.9zm4.3-125.9zm6.1-9.1s-7.4 1.6-10.5 3.6c-3.1 2.1-5.8 7.3-6.7 11.1-.9 3.9-.5 7.1-.5 7.1s1.3-8.3 4.8-11.4c3.6-3.1 9.6-2.5 12.9-10.4zM484.1 226c2.7-1.2 3.4-4.4 4.3-7.6 0 0-4 .6-6.5 3.2-2.4 2.6-5.1 7.7-4 11.6 1.1 3.9 5.3 4.9 7.2 1.5 1.9-3.3-2-5.9-2.7-2.9-.7 2.9-2.3 4.7-3.3 2.1s2.3-6.7 5-7.9zm0 177.6c2.7-1.2 3.4-4.4 4.3-7.6 0 0-4 .6-6.5 3.2-2.4 2.6-5.1 7.7-4 11.6 1.1 3.9 5.3 4.9 7.2 1.5 1.9-3.3-2-5.9-2.7-2.9-.7 2.9-2.3 4.7-3.3 2.1s2.3-6.7 5-7.9zm4.3-7.5zm6.1-9.1s-7.4 1.6-10.5 3.6c-3.1 2.1-5.8 7.3-6.7 11.1-.9 3.9-.5 7.1-.5 7.1s1.3-8.3 4.8-11.4c3.6-3.1 9.6-2.5 12.9-10.4zm-6.1-109.3zm-4.3 7.5c2.7-1.2 3.4-4.4 4.3-7.6 0 0-4 .6-6.5 3.2-2.4 2.6-5.1 7.7-4 11.6 1.1 3.9 5.3 4.9 7.2 1.5 1.9-3.3-2-5.9-2.7-2.9-.7 2.9-2.3 4.7-3.3 2.1s2.3-6.7 5-7.9zm10.4-16.6s-7.4 1.6-10.5 3.6c-3.1 2.1-5.8 7.3-6.7 11.1-.9 3.9-.5 7.1-.5 7.1s1.3-8.3 4.8-11.4c3.6-3.1 9.6-2.5 12.9-10.4zm-6.1-109.3zm6.1-9.1s-7.4 1.6-10.5 3.6c-3.1 2.1-5.8 7.3-6.7 11.1-.9 3.9-.5 7.1-.5 7.1s1.3-8.3 4.8-11.4c3.6-3.1 9.6-2.5 12.9-10.4zm-10.4 16.6c2.7-1.2 3.4-4.4 4.3-7.6 0 0-4 .6-6.5 3.2-2.4 2.6-5.1 7.7-4 11.6 1.1 3.9 5.3 4.9 7.2 1.5 1.9-3.3-2-5.9-2.7-2.9-.7 2.9-2.3 4.7-3.3 2.1s2.3-6.7 5-7.9zm-62.8 311.1c-3.9 1.1-4.9 5.3-1.5 7.2 3.3 1.9 5.9-2 2.9-2.7-2.9-.7-4.7-2.3-2.1-3.3s6.7 2.3 7.8 5c1.2 2.7 4.4 3.4 7.6 4.3 0 0-.6-4-3.2-6.5-2.5-2.4-7.6-5.1-11.5-4zm9-.6c-3.9-.9-7.1-.5-7.1-.5s8.3 1.3 11.4 4.8c3.1 3.6 2.6 9.5 10.5 12.9 0 0-1.6-7.4-3.6-10.5-2.2-3.2-7.4-5.8-11.2-6.7zm-118.4 0c-3.9-.9-7.1-.5-7.1-.5s8.3 1.3 11.4 4.8c3.1 3.6 2.6 9.5 10.5 12.9 0 0-1.6-7.4-3.6-10.5-2.2-3.2-7.4-5.8-11.2-6.7zm-9 .6c-3.9 1.1-4.9 5.3-1.5 7.2 3.3 1.9 5.9-2 2.9-2.7-2.9-.7-4.7-2.3-2.1-3.3s6.7 2.3 7.8 5c1.2 2.7 4.4 3.4 7.6 4.3 0 0-.6-4-3.2-6.5-2.5-2.4-7.6-5.1-11.5-4zm-118.4 0c-3.9 1.1-4.9 5.3-1.5 7.2 3.3 1.9 5.9-2 2.9-2.7-2.9-.7-4.7-2.3-2.1-3.3s6.7 2.3 7.8 5c1.2 2.7 4.4 3.4 7.6 4.3 0 0-.6-4-3.2-6.5-2.5-2.4-7.6-5.1-11.5-4zm9-.6c-3.9-.9-7.1-.5-7.1-.5s8.3 1.3 11.4 4.8c3.1 3.6 2.6 9.5 10.5 12.9 0 0-1.6-7.4-3.6-10.5-2.2-3.2-7.4-5.8-11.2-6.7zm177.6 0c-3.9-.9-7.1-.5-7.1-.5s8.3 1.3 11.4 4.8c3.1 3.6 2.6 9.5 10.5 12.9 0 0-1.6-7.4-3.6-10.5-2.2-3.2-7.4-5.8-11.2-6.7zm-9 .6c-3.9 1.1-4.9 5.3-1.5 7.2 3.3 1.9 5.9-2 2.9-2.7-2.9-.7-4.7-2.3-2.1-3.3s6.7 2.3 7.8 5c1.2 2.7 4.4 3.4 7.6 4.3 0 0-.6-4-3.2-6.5-2.5-2.4-7.6-5.1-11.5-4zm-109.4-.6c-3.9-.9-7.1-.5-7.1-.5s8.3 1.3 11.4 4.8c3.1 3.6 2.6 9.5 10.5 12.9 0 0-1.6-7.4-3.6-10.5-2.2-3.2-7.4-5.8-11.2-6.7zm-9 .6c-3.9 1.1-4.9 5.3-1.5 7.2 3.3 1.9 5.9-2 2.9-2.7-2.9-.7-4.7-2.3-2.1-3.3s6.7 2.3 7.8 5c1.2 2.7 4.4 3.4 7.6 4.3 0 0-.6-4-3.2-6.5-2.5-2.4-7.6-5.1-11.5-4zm-118.4 0c-3.9 1.1-4.9 5.3-1.5 7.2 3.3 1.9 5.9-2 2.9-2.7-2.9-.7-4.7-2.3-2.1-3.3s6.7 2.3 7.8 5c1.2 2.7 4.4 3.4 7.6 4.3 0 0-.6-4-3.2-6.5-2.5-2.4-7.6-5.1-11.5-4zm9-.6c-3.9-.9-7.1-.5-7.1-.5s8.3 1.3 11.4 4.8c3.1 3.6 2.6 9.5 10.5 12.9 0 0-1.6-7.4-3.6-10.5-2.2-3.2-7.4-5.8-11.2-6.7zm281.7-2.9c0 12.6-3.5 10.7-4.6 15.7-.9 3.9 3.4 5.3 4.6 9.6 1.2-4.3 5.4-5.7 4.6-9.6-1.1-5-4.6-3.1-4.6-15.7zm-118.4 0c0 12.6-3.5 10.7-4.6 15.7-.9 3.9 3.4 5.3 4.6 9.6 1.2-4.3 5.4-5.7 4.6-9.6-1.1-5-4.6-3.1-4.6-15.7zm-118.4 0c0 12.6-3.5 10.7-4.6 15.7-.9 3.9 3.4 5.3 4.6 9.6 1.2-4.3 5.4-5.7 4.6-9.6-1.1-5-4.6-3.1-4.6-15.7zm177.6 0c0 12.6-3.5 10.7-4.6 15.7-.9 3.9 3.4 5.3 4.6 9.6 1.2-4.3 5.4-5.7 4.6-9.6-1.1-5-4.6-3.1-4.6-15.7zm-118.4 0c0 12.6-3.5 10.7-4.6 15.7-.9 3.9 3.4 5.3 4.6 9.6 1.2-4.3 5.4-5.7 4.6-9.6-1.1-5-4.6-3.1-4.6-15.7zm-118.4.9h.8c-.2-.1-.5-.1-.8 0v-.8.8c-11.7-.2-10-3.5-14.8-4.6-3.9-.9-5.3 3.4-9.6 4.6 4.3 1.2 5.7 5.4 9.6 4.6 4.9-1.1 3.1-4.5 14.8-4.6-.2 11.7-3.5 9.9-4.6 14.8-.9 3.9 3.4 5.3 4.6 9.6 1.2-4.3 5.4-5.7 4.6-9.6-1-4.9-4.4-3.1-4.6-14.8zm331.2 2c-2.5-1.8-4-3.3-5.6-7-1.6 3.7-3.1 5.2-5.6 7 2.2 1.8 4.1 6.1 5.6 14.7 1.6-8.5 3.5-12.9 5.6-14.7zm-118.4 0c-2.5-1.8-4-3.3-5.6-7-1.6 3.7-3.1 5.2-5.6 7 2.2 1.8 4.1 6.1 5.6 14.7 1.6-8.5 3.5-12.9 5.6-14.7zm-118.4 0c-2.5-1.8-4-3.3-5.6-7-1.6 3.7-3.1 5.2-5.6 7 2.2 1.8 4.1 6.1 5.6 14.7 1.6-8.5 3.5-12.9 5.6-14.7zm177.6 0c-2.5-1.8-4-3.3-5.6-7-1.6 3.7-3.1 5.2-5.6 7 2.2 1.8 4.1 6.1 5.6 14.7 1.6-8.5 3.5-12.9 5.6-14.7zm-118.4 0c-2.5-1.8-4-3.3-5.6-7-1.6 3.7-3.1 5.2-5.6 7 2.2 1.8 4.1 6.1 5.6 14.7 1.6-8.5 3.5-12.9 5.6-14.7zm-118.4 0c-2.5-1.8-4-3.3-5.6-7-1.6 3.7-3.1 5.2-5.6 7 2.2 1.8 4.1 6.1 5.6 14.7 1.6-8.5 3.5-12.9 5.6-14.7zm314.8.6c-3.9-1.1-9 1.6-11.6 4-2.6 2.4-3.2 6.5-3.2 6.5 3.2-.9 6.4-1.6 7.6-4.3 1.2-2.7 5.3-6 7.8-5 2.6 1 .8 2.6-2.1 3.3-2.9.7-.4 4.6 2.9 2.7 3.4-1.9 2.5-6.1-1.4-7.2zm-1.9-1.1s-3.2-.4-7.1.5c-3.9.9-9.1 3.5-11.1 6.7-2.1 3.1-3.6 10.5-3.6 10.5 7.8-3.3 7.3-9.3 10.5-12.9 3-3.5 11.3-4.8 11.3-4.8zm-131.2 11.6zm12.8-11.6s-3.2-.4-7.1.5c-3.9.9-9.1 3.5-11.1 6.7-2.1 3.1-3.6 10.5-3.6 10.5 7.8-3.3 7.3-9.3 10.5-12.9 3-3.5 11.3-4.8 11.3-4.8zm1.9 1.1c-3.9-1.1-9 1.6-11.6 4-2.6 2.4-3.2 6.5-3.2 6.5 3.1-.9 6.4-1.6 7.6-4.3 1.2-2.7 5.3-6 7.8-5 2.6 1 .8 2.6-2.1 3.3-2.9.7-.4 4.6 2.9 2.7 3.5-1.9 2.5-6.1-1.4-7.2zm-120.3-1.1s-3.2-.4-7.1.5c-3.9.9-9.1 3.5-11.1 6.7-2.1 3.1-3.6 10.5-3.6 10.5 7.8-3.3 7.3-9.3 10.5-12.9 3-3.5 11.3-4.8 11.3-4.8zm1.9 1.1c-3.9-1.1-9 1.6-11.6 4-2.6 2.4-3.2 6.5-3.2 6.5 3.1-.9 6.4-1.6 7.6-4.3 1.2-2.7 5.3-6 7.8-5 2.6 1 .8 2.6-2.1 3.3-2.9.7-.4 4.6 2.9 2.7 3.4-1.9 2.5-6.1-1.4-7.2zm177.6 0c-3.9-1.1-9 1.6-11.6 4-2.6 2.4-3.2 6.5-3.2 6.5 3.2-.9 6.4-1.6 7.6-4.3 1.2-2.7 5.3-6 7.8-5 2.6 1 .8 2.6-2.1 3.3-2.9.7-.4 4.6 2.9 2.7 3.4-1.9 2.5-6.1-1.4-7.2zm-14.7 10.5zm12.8-11.6s-3.2-.4-7.1.5c-3.9.9-9.1 3.5-11.1 6.7-2.1 3.1-3.6 10.5-3.6 10.5 7.8-3.3 7.3-9.3 10.5-12.9 3-3.5 11.3-4.8 11.3-4.8zm-118.4 0s-3.2-.4-7.1.5c-3.9.9-9.1 3.5-11.1 6.7-2.1 3.1-3.6 10.5-3.6 10.5 7.8-3.3 7.3-9.3 10.5-12.9 3-3.5 11.3-4.8 11.3-4.8zm1.9 1.1c-3.9-1.1-9 1.6-11.6 4-2.6 2.4-3.2 6.5-3.2 6.5 3.1-.9 6.4-1.6 7.6-4.3 1.2-2.7 5.3-6 7.8-5 2.6 1 .8 2.6-2.1 3.3-2.9.7-.4 4.6 2.9 2.7 3.4-1.9 2.5-6.1-1.4-7.2zm-118.4 0c-3.9-1.1-9 1.6-11.6 4-2.6 2.4-3.2 6.5-3.2 6.5 3.1-.9 6.4-1.6 7.6-4.3 1.2-2.7 5.3-6 7.8-5 2.6 1 .8 2.6-2.1 3.3-2.9.7-.4 4.6 2.9 2.7 3.5-1.9 2.5-6.1-1.4-7.2zm-1.9-1.1s-3.2-.4-7.1.5c-3.9.9-9.1 3.5-11.1 6.7-2.1 3.1-3.6 10.5-3.6 10.5 7.8-3.3 7.3-9.3 10.5-12.9 3-3.5 11.3-4.8 11.3-4.8zm303.1-1.5c11.7.2 10 3.5 14.8 4.6 3.9.9 5.3-3.4 9.6-4.6-4.3-1.2-5.7-5.4-9.6-4.6-4.8 1-3 4.4-14.8 4.6v-.8.8h-.8c.3-.1.6-.1.8 0-.2 11.7-3.5 9.9-4.6 14.8-.9 3.9 3.4 5.3 4.6 9.6 1.2-4.3 5.4-5.7 4.6-9.6-1-4.9-4.4-3.1-4.6-14.8zm-53.9-357.9c3.9 1.1 9-1.6 11.6-4 2.6-2.4 3.2-6.5 3.2-6.5-3.2.9-6.4 1.6-7.6 4.3-1.2 2.7-5.3 6-7.8 5-2.6-1-.8-2.6 2.1-3.3 2.9-.7.4-4.6-2.9-2.7-3.5 1.9-2.5 6.1 1.4 7.2zm1.9 1.1s3.2.4 7.1-.5c3.9-.9 9.1-3.5 11.1-6.7 2.1-3.1 3.6-10.5 3.6-10.5-7.8 3.3-7.3 9.3-10.5 12.9-3 3.5-11.3 4.8-11.3 4.8zm-120.3-1.1c3.9 1.1 9-1.6 11.6-4 2.6-2.4 3.2-6.5 3.2-6.5-3.2.9-6.4 1.6-7.6 4.3-1.2 2.7-5.3 6-7.8 5-2.6-1-.8-2.6 2.1-3.3 2.9-.7.4-4.6-2.9-2.7-3.5 1.9-2.5 6.1 1.4 7.2zm1.9 1.1s3.2.4 7.1-.5c3.9-.9 9.1-3.5 11.1-6.7 2.1-3.1 3.6-10.5 3.6-10.5-7.8 3.3-7.3 9.3-10.5 12.9-3 3.5-11.3 4.8-11.3 4.8zm-120.3-1.1c3.9 1.1 9-1.6 11.6-4 2.6-2.4 3.2-6.5 3.2-6.5-3.1.9-6.4 1.6-7.6 4.3-1.2 2.7-5.3 6-7.8 5-2.6-1-.8-2.6 2.1-3.3 2.9-.7.4-4.6-2.9-2.7-3.5 1.9-2.5 6.1 1.4 7.2zm1.9 1.1s3.2.4 7.1-.5c3.9-.9 9.1-3.5 11.1-6.7 2.1-3.1 3.6-10.5 3.6-10.5-7.8 3.3-7.3 9.3-10.5 12.9-3 3.5-11.3 4.8-11.3 4.8zm175.7-1.1c3.9 1.1 9-1.6 11.6-4 2.6-2.4 3.2-6.5 3.2-6.5-3.2.9-6.4 1.6-7.6 4.3-1.2 2.7-5.3 6-7.8 5-2.6-1-.8-2.6 2.1-3.3 2.9-.7.4-4.6-2.9-2.7-3.5 1.9-2.5 6.1 1.4 7.2zm1.9 1.1s3.2.4 7.1-.5c3.9-.9 9.1-3.5 11.1-6.7 2.1-3.1 3.6-10.5 3.6-10.5-7.8 3.3-7.3 9.3-10.5 12.9-3 3.5-11.3 4.8-11.3 4.8zm-120.3-1.1c3.9 1.1 9-1.6 11.6-4 2.6-2.4 3.2-6.5 3.2-6.5-3.1.9-6.4 1.6-7.6 4.3-1.2 2.7-5.3 6-7.8 5-2.6-1-.8-2.6 2.1-3.3 2.9-.7.4-4.6-2.9-2.7-3.5 1.9-2.5 6.1 1.4 7.2zm1.9 1.1s3.2.4 7.1-.5c3.9-.9 9.1-3.5 11.1-6.7 2.1-3.1 3.6-10.5 3.6-10.5-7.8 3.3-7.3 9.3-10.5 12.9-3 3.5-11.3 4.8-11.3 4.8zm-120.3-1.1c3.9 1.1 9-1.6 11.6-4 2.6-2.4 3.2-6.5 3.2-6.5-3.1.9-6.4 1.6-7.6 4.3-1.2 2.7-5.3 6-7.8 5-2.6-1-.8-2.6 2.1-3.3 2.9-.7.4-4.6-2.9-2.7-3.5 1.9-2.5 6.1 1.4 7.2zm1.9 1.1s3.2.4 7.1-.5c3.9-.9 9.1-3.5 11.1-6.7 2.1-3.1 3.6-10.5 3.6-10.5-7.8 3.3-7.3 9.3-10.5 12.9-3 3.5-11.3 4.8-11.3 4.8zm288.8 2.4c0-12.6 3.5-10.7 4.6-15.7.9-3.9-3.4-5.3-4.6-9.6-1.2 4.3-5.4 5.7-4.6 9.6 1.1 5 4.6 3 4.6 15.7zm-118.4 0c0-12.6 3.5-10.7 4.6-15.7.9-3.9-3.4-5.3-4.6-9.6-1.2 4.3-5.4 5.7-4.6 9.6 1.1 5 4.6 3 4.6 15.7zm-118.4 0c0-12.6 3.5-10.7 4.6-15.7.9-3.9-3.4-5.3-4.6-9.6-1.2 4.3-5.4 5.7-4.6 9.6 1.1 5 4.6 3 4.6 15.7zm177.6 0c0-12.6 3.5-10.7 4.6-15.7.9-3.9-3.4-5.3-4.6-9.6-1.2 4.3-5.4 5.7-4.6 9.6 1.1 5 4.6 3 4.6 15.7zm-118.4 0c0-12.6 3.5-10.7 4.6-15.7.9-3.9-3.4-5.3-4.6-9.6-1.2 4.3-5.4 5.7-4.6 9.6 1.1 5 4.6 3 4.6 15.7zM120 120c-11.7-.2-9.9-3.5-14.8-4.6-3.9-.9-5.3 3.4-9.6 4.6 4.3 1.2 5.7 5.4 9.6 4.6 4.9-1 3.1-4.4 14.8-4.6h.8-.8c.2-11.7 3.5-9.9 4.6-14.8.9-3.9-3.4-5.3-4.6-9.6-1.2 4.3-5.4 5.7-4.6 9.6 1.1 4.9 4.5 3.1 4.6 14.8zm320.1-2.1c2.5 1.8 4 3.3 5.6 7 1.6-3.7 3.1-5.2 5.6-7-2.2-1.8-4.1-6.1-5.6-14.7-1.6 8.6-3.5 12.9-5.6 14.7zm-118.4 0c2.5 1.8 4 3.3 5.6 7 1.6-3.7 3.1-5.2 5.6-7-2.2-1.8-4.1-6.1-5.6-14.7-1.6 8.6-3.5 12.9-5.6 14.7zm-118.4 0c2.5 1.8 4 3.3 5.6 7 1.6-3.7 3.1-5.2 5.6-7-2.2-1.8-4.1-6.1-5.6-14.7-1.6 8.6-3.5 12.9-5.6 14.7zm177.6 0c2.5 1.8 4 3.3 5.6 7 1.6-3.7 3.1-5.2 5.6-7-2.2-1.8-4.1-6.1-5.6-14.7-1.6 8.6-3.5 12.9-5.6 14.7zm-118.4 0c2.5 1.8 4 3.3 5.6 7 1.6-3.7 3.1-5.2 5.6-7-2.2-1.8-4.1-6.1-5.6-14.7-1.6 8.6-3.5 12.9-5.6 14.7zm-118.4 0c2.5 1.8 4 3.3 5.6 7 1.6-3.7 3.1-5.2 5.6-7-2.2-1.8-4.1-6.1-5.6-14.7-1.6 8.6-3.5 12.9-5.6 14.7zm325.9-.5c3.9-1.1 4.9-5.3 1.5-7.2-3.3-1.9-5.9 2-2.9 2.7 2.9.7 4.7 2.3 2.1 3.3s-6.7-2.3-7.8-5c-1.2-2.7-4.4-3.4-7.6-4.3 0 0 .6 4 3.2 6.5 2.5 2.4 7.6 5 11.5 4zm-9 .6c3.9.9 7.1.5 7.1.5s-8.3-1.3-11.4-4.8c-3.1-3.6-2.6-9.5-10.5-12.9 0 0 1.6 7.4 3.6 10.5 2.1 3.2 7.3 5.8 11.2 6.7zm-118.4 0c3.9.9 7.1.5 7.1.5s-8.3-1.3-11.4-4.8c-3.1-3.6-2.6-9.5-10.5-12.9 0 0 1.6 7.4 3.6 10.5 2.1 3.2 7.3 5.8 11.2 6.7zm9-.6c3.9-1.1 4.9-5.3 1.5-7.2-3.3-1.9-5.9 2-2.9 2.7 2.9.7 4.7 2.3 2.1 3.3s-6.7-2.3-7.8-5c-1.2-2.7-4.4-3.4-7.6-4.3 0 0 .6 4 3.2 6.5 2.5 2.4 7.6 5 11.5 4zm-118.4 0c3.9-1.1 4.9-5.3 1.5-7.2-3.3-1.9-5.9 2-2.9 2.7 2.9.7 4.7 2.3 2.1 3.3s-6.7-2.3-7.8-5c-1.2-2.7-4.4-3.4-7.6-4.3 0 0 .6 4 3.2 6.5 2.5 2.4 7.6 5 11.5 4zm-9 .6c3.9.9 7.1.5 7.1.5s-8.3-1.3-11.4-4.8c-3.1-3.6-2.6-9.5-10.5-12.9 0 0 1.6 7.4 3.6 10.5 2.1 3.2 7.3 5.8 11.2 6.7zm186.6-.6c3.9-1.1 4.9-5.3 1.5-7.2-3.3-1.9-5.9 2-2.9 2.7 2.9.7 4.7 2.3 2.1 3.3s-6.7-2.3-7.8-5c-1.2-2.7-4.4-3.4-7.6-4.3 0 0 .6 4 3.2 6.5 2.5 2.4 7.6 5 11.5 4zm-9 .6c3.9.9 7.1.5 7.1.5s-8.3-1.3-11.4-4.8c-3.1-3.6-2.6-9.5-10.5-12.9 0 0 1.6 7.4 3.6 10.5 2.1 3.2 7.3 5.8 11.2 6.7zm-109.4-.6c3.9-1.1 4.9-5.3 1.5-7.2-3.3-1.9-5.9 2-2.9 2.7 2.9.7 4.7 2.3 2.1 3.3s-6.7-2.3-7.8-5c-1.2-2.7-4.4-3.4-7.6-4.3 0 0 .6 4 3.2 6.5 2.5 2.4 7.6 5 11.5 4zm-9 .6c3.9.9 7.1.5 7.1.5s-8.3-1.3-11.4-4.8c-3.1-3.6-2.6-9.5-10.5-12.9 0 0 1.6 7.4 3.6 10.5 2.1 3.2 7.3 5.8 11.2 6.7zm-109.4-.6c3.9-1.1 4.9-5.3 1.5-7.2-3.3-1.9-5.9 2-2.9 2.7 2.9.7 4.7 2.3 2.1 3.3s-6.7-2.3-7.8-5c-1.2-2.7-4.4-3.4-7.6-4.3 0 0 .6 4 3.2 6.5 2.5 2.4 7.6 5 11.5 4zm-9 .6c3.9.9 7.1.5 7.1.5s-8.3-1.3-11.4-4.8c-3.1-3.6-2.6-9.5-10.5-12.9 0 0 1.6 7.4 3.6 10.5 2.1 3.2 7.3 5.8 11.2 6.7zm310.2 2h-.8.8c11.7.2 10 3.5 14.9 4.6 3.9.9 5.3-3.4 9.6-4.6-4.3-1.2-5.7-5.4-9.6-4.6-4.9 1.1-3.1 4.5-14.9 4.6.2-11.7 3.5-9.9 4.6-14.8.9-3.9-3.4-5.3-4.6-9.6-1.2 4.3-5.4 5.7-4.6 9.6 1.1 4.9 4.5 3.1 4.6 14.8zM95.7 108.7c1.1 2.6 5.2 1.3 6.4-1.9 2.2-5.6-3-7.5-7.8-7.2.4 2.5 1.2 4 3.3 4.8 2 .8 4.2 1.2 3.1 3.3-1.1 2.1-2.1.6-1.6-1 .3-1.5-4.6-.6-3.4 2zm11.3-6.8c3.2-1.3 4.5-5.3 1.9-6.4-2.6-1.1-3.5 3.8-1.9 3.3s3.1.5 1 1.6-2.5-1-3.3-3.1c-.8-2-2.3-2.9-4.8-3.3-.4 4.8 1.5 10.1 7.1 7.9zm-12.4-3.7c.9.6 4.7.9 4.7.9s-.4-3.8-.9-4.7c-.5-.9-5.5-1.7-5.5-1.7s.8 4.9 1.7 5.5zm13 4.3c-2.2 5.6 3 7.5 7.8 7.2-.4-2.5-1.2-4-3.3-4.8s-4.2-1.2-3.1-3.3c1.1-2.1 2.1-.6 1.6 1s4.5.7 3.3-1.9c-1-2.7-5-1.4-6.3 1.8zm-4.9 4.9c-3.2 1.3-4.5 5.3-1.9 6.4 2.6 1.1 3.5-3.8 1.9-3.3s-3.1-.5-1-1.6 2.5 1 3.3 3.1c.8 2 2.3 2.9 4.8 3.3.4-4.8-1.5-10.1-7.1-7.9zm14.2 9.2s-.8-5-1.7-5.5c-.9-.6-4.7-.9-4.7-.9s.4 3.8.9 4.7c.5.9 5.5 1.7 5.5 1.7zm380.9-12.2c2-.8 2.9-2.3 3.3-4.8-4.8-.3-10.1 1.6-7.8 7.2 1.3 3.2 5.3 4.5 6.4 1.9 1.1-2.6-3.8-3.5-3.3-1.9s-.5 3.1-1.6 1c-1.2-2.2 1-2.5 3-3.4zm-9.5-2.5c5.6 2.2 7.5-3 7.2-7.8-2.5.4-4 1.2-4.8 3.3-.8 2-1.2 4.2-3.3 3.1-2.1-1.1-.6-2.1 1-1.6s.7-4.5-1.9-3.3c-2.7 1-1.4 5 1.8 6.3zm14.1-9.3s-5 .8-5.5 1.7c-.6.9-.9 4.7-.9 4.7s3.8-.4 4.7-.9c.9-.5 1.7-5.5 1.7-5.5zm-9.9 17.9c-1.6-.5-.7 4.5 1.9 3.3 2.6-1.1 1.3-5.2-1.9-6.4-5.6-2.2-7.5 3-7.2 7.8 2.5-.4 4-1.2 4.8-3.3.8-2 1.2-4.2 3.3-3.1 2.2 1.2.7 2.2-.9 1.7zm-8-8c-.5-1.6.5-3.1 1.6-1s-1 2.5-3.1 3.3c-2 .8-2.9 2.3-3.3 4.8 4.8.3 10.1-1.6 7.8-7.2-1.3-3.2-5.3-4.5-6.4-1.9-1 2.7 3.9 3.6 3.4 2zm-6.1 14.1s5-.8 5.5-1.7c.6-.9.9-4.7.9-4.7s-3.8.4-4.7.9c-.8.6-1.7 5.5-1.7 5.5zm-382.7 370c-1.1 2.6 3.8 3.5 3.3 1.9s.5-3.1 1.6-1-1 2.5-3.1 3.3c-2 .8-2.9 2.3-3.3 4.8 4.8.3 10.1-1.6 7.8-7.2-1.2-3.1-5.2-4.4-6.3-1.8zm11.3 6.8c-5.6-2.2-7.5 3-7.2 7.8 2.5-.4 4-1.2 4.8-3.3.8-2 1.2-4.2 3.3-3.1 2.1 1.1.6 2.1-1 1.6s-.7 4.5 1.9 3.3c2.7-1 1.4-5-1.8-6.3zm-14.1 9.2s5-.8 5.5-1.7c.6-.9.9-4.7.9-4.7s-3.8.4-4.7.9c-.9.6-1.7 5.5-1.7 5.5zm9.9-17.9c1.6.5.7-4.5-1.9-3.3-2.6 1.1-1.3 5.2 1.9 6.4 5.6 2.2 7.5-3 7.2-7.8-2.5.4-4 1.2-4.8 3.3-.8 2-1.2 4.2-3.3 3.1-2.3-1.1-.7-2.1.9-1.7zm7.9 8c.5 1.6-.5 3.1-1.6 1s1-2.5 3.1-3.3c2-.8 2.9-2.3 3.3-4.8-4.8-.3-10.1 1.6-7.8 7.2 1.3 3.2 5.3 4.5 6.4 1.9 1.1-2.6-3.8-3.5-3.4-2zm6.2-14.1s-5 .8-5.5 1.7c-.6.9-.9 4.7-.9 4.7s3.8-.4 4.7-.9c.8-.5 1.7-5.5 1.7-5.5zm383.8 18.5c-.9-.6-4.7-.9-4.7-.9s.4 3.8.9 4.7c.6.9 5.5 1.7 5.5 1.7s-.8-4.9-1.7-5.5zm.3-1.4c-.4-2.5-1.2-4-3.3-4.8-2-.8-4.2-1.2-3.1-3.3 1.1-2.1 2.1-.6 1.6 1s4.5.7 3.3-1.9c-1.1-2.6-5.2-1.3-6.4 1.9-2.1 5.5 3.1 7.4 7.9 7.1zm-12.7-2.3c-3.2 1.3-4.5 5.3-1.9 6.4 2.6 1.1 3.5-3.8 1.9-3.3s-3.1-.5-1-1.6 2.5 1 3.3 3.1c.8 2 2.3 2.9 4.8 3.3.4-4.8-1.5-10.1-7.1-7.9zm5.2-7.1c-2.1 1.1-2.5-1-3.3-3.1-.8-2-2.3-2.9-4.8-3.3-.3 4.8 1.6 10.1 7.2 7.8 3.2-1.3 4.5-5.3 1.9-6.4-2.6-1.1-3.5 3.8-1.9 3.3 1.5-.3 3 .7.9 1.7zm-15.1-7.7s.8 5 1.7 5.5c.9.6 4.7.9 4.7.9s-.4-3.8-.9-4.7c-.5-.8-5.5-1.7-5.5-1.7zm9.2 14.2c2.2-5.6-3-7.5-7.8-7.2.4 2.5 1.2 4 3.3 4.8 2 .8 4.2 1.2 3.1 3.3-1.1 2.1-2.1.6-1.6-1s-4.5-.7-3.3 1.9c1.1 2.7 5.1 1.4 6.3-1.8z"/></svg>