<svg id="Layer_1" xmlns="http://www.w3.org/2000/svg" viewBox="0 0 595.3 595.3"><style>.st0{fill:#514130}</style><path class="st0" d="M184 300.8s.1 0 .2.1l-.2-.1zm134.6 169.5c-.1.2-.1.3-.1.3s.1-.1.1-.3zm221.8-8.8c-7.9 1.1-15.9 5.2-20.4 12.1-3.5 5.3-5.2 11.4-7.9 17.2-2.3 4.8-5.4 9.9-10.2 12.6-6.9 3.8-14.2 5.3-20.2 10.7-5 4.5-9.9 9.8-16.1 12.7-6.5 3-13.4 4.1-20.5 4.4-8.7.4-17.4.4-26 .5-4.7.1-9.4.2-14.1.2-1.2.3-2.3.5-3.5.7 6.3 1.5 12.7 2.5 19 3 7.3.6 14.5.6 21.8 0 6.6-.5 13.4-2.5 19.9-2.3 1.3 0 1.7 1.7.6 2.4-6.1 3.8-15.1 4.8-22.1 5.3-7.8.5-15.6.3-23.4-.7-14-1.7-27.1-6.9-39.4-13.6-11.2 0-22.4-1.9-32.8-6.3-8-3.3-15-7.9-21.5-13.1h-63.4c-11.3 0-21.8-2.9-31-8.1-1.4-.4-2.8-1-4.1-1.7-1.4-.4-2.7-1-4-1.9-2.9-1.9-4.8-4-5.8-6.9-11.8-11.6-19.1-27.7-19.1-45.5v-24c-.5-.1-.9-.1-1.4-.2-9.3.7-17.7 2.6-24.2 4.6-1.3 1-2.7 1.9-4 2.8-27.3 18.2-72.4 16.6-81.1 16.1-.1 0-.2 0-.3-.1-.1-.1-.2-.1-.2-.2-.1-.1-.2-.2-.2-.4 0-.3.1-.6.4-.6 0 0 .9-.2 2.5-.6 12-10.1 26.3-16.9 41.3-21.3 2.7-2.3 5.4-4.9 8-7.6 10.2-11.3 11.5-19.3 10.7-24-.7-4.6-3.5-7.6-5.7-8.9-.6-.4-1.1-.5-1.3-.5-.1 0-.2 0-.3-.1-.1-.1-.2-.2-.2-.3-.1-.2 0-.4.1-.6.1-.2 3.6-3.8.5-9.5-1.1-2.1-2.9-3.9-5.1-5.2-3.7-2.1-8.1-2.5-11.9-1.1-4.6 1.7-7.9 5.6-8.1 8.2-.1.9.2 1.6.9 2 1.6.9 2.8.7 3.2 0 .4-.6.3-1.4-.4-2-.2-.2-.2-.5-.1-.7.1-.2.4-.3.6-.3 0 0 1 .3 2 .9 2.5 1.5 3.4 3.7 2.6 6.3-1.4 4-5.1 4.2-7 4 .6 1.6 1.5 5-.4 8.3-2.7 4.6-8.1 6-13 3.3h-.1c-3.3-1.9-3.9-6.2-2.7-9.3.9-2.5 3.3-4.9 7.2-4.2.1 0 .1 0 .2.1.2.1.3.3.3.5 0 .3-.2.5-.4.6 0 0-1.9.5-2.7 2-.4.8-.4 1.7-.1 2.8.2.5.5.9.9 1.1 1.4.8 3.8.2 5-1.2 1-1.2 1-2.7-.2-4.2-4.8-6.1-4.2-13.4 1.5-20.4 2.5-3.1 7.1-5.4 12.4-6.2 5.5-.8 10.9 0 14.9 2.3 1.2.7 2.2 1.5 3.1 2.4-.4-2.1-.8-5.6-.7-10.1.3-7.1 2.3-18.2 10-31 5.7-9.5 13-17.1 20.6-21.5 8-4.6 15.7-5.3 21.8-1.8.3.2.7.4 1 .7V174.3c0-6.7 1.1-13.2 3-19.4-4.2 2.6-8.6 4.8-13.2 6.5-4.1 6.6-8.4 13.2-13.1 19.4-1.4 5.1-2.1 9.6-1.5 15.1.6 5 1.3 10.3-.2 15.3-1.7 5.7-5.1 10.2-8.5 15-4.3 6-6 11.5-5.5 19 .4 6 .3 11.6-1.9 17.3-1.7 4.5-4.6 8.7-7.4 12.7-5 7.1-10.9 14.2-12.1 22.9.3 1.3.6 2.5.8 3.8.1.5-.5 1.1-1 .8v.5c.1.6-.9.6-1 0-.1-.7-.1-1.3-.1-2-5.1-7.5-5.4-18.1-5.9-26.7-.5-9.6-6.6-19.3-3.2-28.8 1.7-4.7 4.9-8.4 6-13.4 1.1-4.9 1.6-10 3.5-14.7 1.2-2.9 3.1-5.6 5.3-8.1-1.5.5-3 1-4.5 1.4-10.1 2.3-20.7 1.2-28.3-6.5-.7-.7.2-2 1.1-1.4 21.3 13.4 43.1-1.9 56.6-18.6 5.3-6.6 10.2-13.6 14.8-20.7-.4.1-.9.3-1.3.4-4.3 4.4-8.9 8.5-13.6 12.4-9.6 7.9-20.7 14.5-33.2 16.1-3.4.4-7 .7-10.4.3-3.8-.4-7.8-1.9-11.6-1.5-5.9.5-12 2.9-16.9-1.8-2.5-2.4-4.6-5.1-7.2-7.2-3.3-2.7-7-4.6-10.6-6.8-6.8-4.2-13.6-8.2-20.2-12.7-.6-.4-.1-1.2.5-.9.6.3 1.1.6 1.7.9-.5-.4-.9-.8-1.4-1.3-.5-.5.1-1.1.7-.9 6.5 3.2 12.4 6.4 19.5 8 6.7 1.5 13.8 2 20.6.9 7.4-1.2 13.8-4.2 20.6-7.3 3-1.4 6.1-2.6 9.3-3.4-12.7-7.1-22.3-18.8-23.4-34.3-1.3-20.1 13.1-37.3 34-35 8.4.9 16.4 5.8 19.9 13.7 3.3 7.4 1.8 16.8-5.8 20.7-1.5.8-2.7-1.3-1.3-2.2 5.2-3.7 5.9-12 3.1-17.4-2.5-4.7-6.9-8.2-12.1-9.7-10.9-2.9-23.6.9-29.3 11-5.6 10-5.3 23 .2 33 .7-6.9 6.6-14.4 14.3-13.5 6.3.7 13.9 7.1 9.5 14-3 4.8-11.4 5.7-12.9-.9-.2-.8.9-1.3 1.4-.6 5.7 9.1 15.7-4.2 6.6-9-4.8-2.5-10.7-1.4-14.1 2.9-2.4 3-3.3 6.8-2.7 10.4 5 7.1 12.1 12.5 20.1 15.9 3.4 0 7.3.6 10.6-.3 4.4-1.1 6.1-3.8 9.2-6.7 3.8-3.6 8.5-5 13.6-5.2 5.8-.3 11.6 0 17.3-1.3 2.5-.6 5.9-1.3 8.7-2.7l.6-.6c2.6-4.4 5.3-8.7 8-13 13.2-20.7 28.5-40 49.4-53.3C271.3 62 295 54.2 319 54.4c22.9.2 46 7.2 64.8 20.6 15.5 11.1 31.3 27.9 36.4 47.2.6.4 1.2.8 1.8 1.3.6-1.3 1.2-2.6 1.9-3.9 2.5-4.8 5.7-9.5 9.5-13.6 2.3-5.7 3.7-11.7 3.3-17.9-.5-7.3-6-18.9-15.5-16-2.5.8-5.1 2.2-5.6 5.1-.5 2.9.6 6.8 4.2 6.7 3.3-.1 4.9-1.7 6.6-4.3.3-.4.8-.2.9.2.7 6-9.5 8.4-12.5 3.7-4.9-7.6 3.5-15.9 11.5-13.4 9.8 3.1 13.2 13.6 11.9 23-.5 3.5-1.3 7-2.4 10.5 3.8-3.4 8.2-6.1 13.1-7.6 10.1-3 23.5-1.7 28.5 8.9 1.5 3.1-1.5 6-4.5 4.5-3.3-1.5-6.5-2.5-9.4-3 6.5 4.3 9.8 11.9 7.1 19.7-2.3 6.7-12.2 11.1-17.5 5.3-5.2-5.6.9-15 7.2-15.9.7-.1 1.3.8.5 1.2-2.8 1.5-5.9 3.8-6.6 7-1.1 4.7 2.2 9.6 7.4 7.9 7.6-2.5 10.2-11.5 6.2-18.2-1.9-3.3-5-5.9-8.5-7.3-13.7.1-23.1 11.4-28.7 25.3 9.2 10.1 15.2 23.3 16.4 37.7 2.3-1.1 4.8-1.7 7-3 5.3-3 8.3-9 13.8-11.6 5.9-2.8 11.9-2.2 18.2-2.1 4.1.1 7.8-.3 11.6-1.7 3-1.1 5.6-1.6 8.8-1.3 6.1.6 11.9 3.6 18 4.6.3.1.4.4.2.6 0 .2-.1.4-.4.4-7.2-.2-15.3 3.5-19.4 9.6-2.7 4-3.8 8.8-7.3 12.2-3.4 3.3-9.1 1.9-13 4.5-4.6 3.1-7.1 8.2-9.2 13.1-1.5 3.6-3.2 9.6-6.5 12.1-4.3 3.1-10 2.6-14.7 5.1-2.8 1.5-5.1 3.3-7.1 5.4v14.5c1 2.5 2.2 4.8 1.5 7.8-.5 1.9-.9 4.1-1.5 6.1v6.9c.4 1.1.8 2.2 1.3 3.3 11.4 29.9 22.3 61.8 27.4 94.2 2.7 3.5 5.1 7.2 7.2 10.9 21.6 39.4 8.5 87.9-18.2 121.4-13.7 17.2-31.4 31.4-52.5 38.4-7.3 2.5-15 4.2-22.7 5.2 5.1 1.2 10.3 1.8 15.5 1.9 1.3-.4 2.6-.8 3.8-1.2 3.8-1.3 7.6-2.7 11.3-4.1 7.8-3.1 15.6-6.5 23.1-10.3 7.3-3.7 13.5-8.2 18.3-14.9 4-5.5 7.4-11.5 11.5-17 3.7-5 8.4-10 14.1-12.6 2.3-1.1 4.7-2 7.2-2.3 3.6-.4 9 .6 12.1-1.6 4.7-3.3 7.6-6.7 13.9-6 1.5.2 3 .4 4.4.7 1.2-.3 2.4-.4 3.6-.3.7.1.9.6.8 1.1 2.9.5 5.9.8 8.9.5.5 0 .7.7.3.9-.3.1-.5.3-.8.4.7-.1 1.5-.2 2.2-.2 1 .1 1.1.7.7.8zM167.9 189.2c-3.3 5.4-6.1 11.2-9 16.7-2.8 5.4-5.4 11-7.8 16.7-1.7 9.1-1.3 18-.2 27.4 0 .3-.4.3-.5.1-2.3-7.4-2.4-15.2-1.1-22.8-2.4 6.5-4.6 13.1-6.3 19.7-1.7 6.7-2.7 13.5-4.5 20.2-.2.7-1.2.5-1.2-.2-.1-8.3 1.5-17.1 3.9-25.6-1.8 4-3.8 8-6.2 11.6-.3.4-1 .2-.8-.3 2.7-8.4 7.2-16.7 11.4-24.5.6-1.6 1.2-3.1 1.8-4.6 2.6-6.6 5.5-13 8.9-19.1 3.4-6.3 7.6-11.7 11.8-17.4v-.3c-1.3 1.6-2.7 3.2-4.1 4.7-4.3 4.8-9.3 9.6-14.9 13.3-5.5 5.1-11.3 9.8-13.1 17.6-1 4.4-1.3 9.1-2.9 13.4-1.3 3.3-3.3 6.2-4.7 9.5-2.6 5.9-.7 11.1 1 16.9 1.2 4 1.9 8 2 12.2.2 5 .5 9.9 1.6 14.7.5 2.2 1.3 4.4 1.9 6.6 1.6-7.1 6-13.3 10.1-19.4 3.1-4.6 6.4-9.2 8.2-14.5 2.4-6.8 1-13.1 1-20.1 0-5.7 1.5-10.4 4.5-15-1.1-7.5 0-15.2 1.3-22.6 0-.1.1 0 .1 0-1.1 7.3-.9 14.4-.9 21.7.3-.4.5-.8.8-1.2 4-5.4 8.4-10.9 8.7-18 .6-5.5-1.1-11.7-.8-17.4zm-60.2 189c.2 0 .5.1.7.1-.2-.1-.4-.1-.7-.1zm-20.6 63h-.2.2zm22.4-75c.2-.7.5-1.3.8-2-.3.7-.6 1.4-.8 2zm10.6 3c-.2-.1-.3-.1-.3-.1s.1 0 .3.1zm-25.9 69.2c2.7-.9 5.7-2.1 9.1-3.6 4.1-1.8 9-4.2 14.1-7.4-8.1 3.1-15.9 6.7-23.2 11zm-4.2 2.5c9.2-2.4 25.9-7.4 38.4-17-2.9.8-5.8 1.8-8.6 2.8-10.8 7-21.4 11.1-27.9 13.2-.7.3-1.3.7-1.9 1zm1.6-.2h-.1.1zm1.2-.2c-.1 0-.2 0-.3.1.1-.1.2-.1.3-.1zm67.1-18.7c1.4-1.3 3-2.6 4.7-4-2.6.1-5.2.4-7.9.6-.1.4-.3.7-.5 1.1-2.2 3.8-7.6 4.9-11.2 2.9-.7-.4-1.3-.9-1.8-1.5-.1-.1-.2-.3-.3-.4-3.5.7-7 1.4-10.5 2.3-.1 0-.1.1-.2.1-15.7 11.2-28.8 15.7-37.5 17.7 29.6 1 50.8-8.2 65.2-18.8zm-19.8-5.5s0-.1 0 0c-.1 0-.1 0 0 0-.1 0 0 0 0 0zM152 419c-.9.7-2.1 1.2-3.4 1-.5-.1-1-.2-1.4-.3l-3.3.6c1 1 2.2 1.9 3.8 2.2 0 0-.3.1-.8.1 1.3.3 2.7.3 4.1 0 2-.5 3.7-1.6 4.7-3.4.1-.2.2-.5.3-.7-1.3.1-2.6.3-4 .5zm1.5-5l2.7-.3c-.4-1.2-1.2-2-2.2-2.5-1.2-.7-2.7-.9-3.8-.6 1.6.4 2.8 1.8 3.3 3.4zm7.2 12.4c1.3-.5 2.8-1.1 4.3-1.7 1.6-.9 3.2-2 4.9-3.2-1.6.6-3.1 1.3-4.6 1.9-1.5 1.1-3 2-4.6 3zm-39.1 14.1s-.1 0 0 0h-.4.4zm21.7-8.4c3.5-1.4 7.1-3.1 10.8-5.1.7-.7 1.6-1.5 2.5-2.3-3.9 2.6-8.4 5.1-13.3 7.4zm9.2-1.3c2.5-.9 5.7-2.3 9.3-4.3-2.4 1-4.4 1.9-6.1 2.6-1 .6-2 1.2-3.2 1.7zm16.4-6.8c-.5.2-1 .3-1.5.5-3.5 2.5-7.5 5-11.9 7.2 3.8-1.7 7.4-3.6 10.8-5.9.8-.6 1.7-1.2 2.6-1.8zm5.4-4l-1.8.6c-1.1.9-2.3 1.9-3.6 2.8.5-.2 1-.3 1.4-.5 1.4-.9 2.7-1.9 4-2.9zm17.7-1.5c-3.4-.4-6.8-.6-10.2-.8-2 .5-4 1.1-5.9 1.7l-3.9 3c5.9-1.7 12.6-3.2 20-3.9zm-16.5-6.1c.4-.3.8-.7 1.2-1-.5.3-1.1.7-1.6 1h.4zm2.9 0c.9 0 1.8 0 2.7.1.6-.6 1.2-1.1 1.9-1.8 0 0-.6.7-1.6 1.8h1.6c3.1-2.9 6-6 8.7-9.1-3 1.3-6.1 2.8-9.2 4.5-1.1 1.4-2.5 2.9-4.1 4.5zm.7-4.8l-.2.2c0-.1.1-.1.2-.2zm17-6c-1.1.4-2.2.8-3.3 1.3-2.8 3.4-5.9 6.6-9.1 9.7 4.1.2 8.2.5 12.3 1v-12zm0-12.4c-3.2 4.8-6.1 7.9-6.1 7.9 3.8-5.4 4.4-15-4.3-16.7-.7-.1-1.4-.1-2 .1 1.4.2 2.8 1.7 2.8 1.7-2.8-1.6-5.3.2-6.3 1.1.7-.3 3.1-1 5.1.1 2.4 1.4 3.5 6.1-3.2 16-1.8 2.7-5.1 7.3-10.3 12.5 4-3 8.5-6.1 13.2-9 1-1.1 2.1-2.3 3.1-3.5 0 0-.5.9-1.5 2.5 3-1.8 6.1-3.5 9.3-5.1v-7.6zm0-6.7c0 .1-.1.2-.1.2.1 0 .1-.1.1-.2zm0-42.6c-6.5-2.2-12.3-.4-12.3-.4 2.5-.6 5.2 1.1 5.2 1.1s-9.3-3.8-16.2 8.6c-2.9 5.2-.1 9.4 1.9 11.4-.2-.2-.5-.4-.7-.6.4.4.9.7 1.4 1 3.1 1.8 7.1 1.5 8.7-1.4 1.5-3.6-1.6-5.4-1.6-5.4s.1.1.2.1c1.8 1.7-.9 5.6-4.3 4.1-.3-.1-.6-.3-.8-.4.5.5 1.2 1 2.2 1.5 0 0-4.4-.2-4.6-3.8-.1-2 .5-4.1 1.2-5.6.6-1.5 1.6-3 3-4.1 2.9-2.5 8.3-2.8 12.9-.2 1.4.8 2.6 1.8 3.8 3.1v-9zm0-35.2c-.6 0-1.2.1-1.8.4-2.6 1.5-5.4 1.5-7 .8-.2 1.4-.8 3.8-3.1 5.3-1.9 1.2-5 1.1-7.4-.2-2.4-1.4-3.3-3.7-2.7-6.3.1-.3.3-.4.6-.4.1 0 .2 0 .3.1.1.1.2.2.3.4 0 0 .3 1.3 1.3 1.8.6.4 1.4.3 2.3-.2.8-.4 1.4-1.6 1.4-3s-.5-2.6-1.4-3.2c-.8-.5-1.9-.5-3.2-.1-5.2 1.3-14 10.4-19.9 23.4-3.9 8.6-9.3 25.4-1.3 40.8 3.2 6.7 3.2 17.4 0 27.8-1.4 4.5-3.3 8.8-5.7 12.9 1.5-.2 2.5.2 3.1.5.3.2.5.3.5.3l.5.5h-.7c-2.5 0-4.5 1.6-5.7 3.7-.5.9-.9 1.9-1 2.9-.1 1.1.3 1.8 1 2.2 1.3-.2 2.5-.4 3.8-.6.1-.1.2-.3.3-.4 0 0 .1-.1.1-.2.4-.8.1-1.6-.3-2.2-.4-.6-1-1-1-1l-.4-.3.4-.2c1.4-.7 3.4-.6 5.1.3 1.1.6 2 1.6 2.4 3 2.2-.2 4.3-.5 6.5-.6 2.5-.2 4.9-.3 7.4-.4 5.1-5.1 8.7-9.8 11.1-13.4 5.1-7.5 5.2-11.4 4.8-13.1-.2-1-.7-1.7-1.4-2.1-2.1-1.2-4.8 0-4.8 0-.2.1-.4.1-.5 0-.1 0-.1-.1-.1-.1-.2-.2-.2-.5-.1-.7 0-.1 4.7-7.8 10.9-4.3 3 1.8 3.8 4.4 3.8 6.4.5-1 1.1-2.5 1.8-4.6v-30.9c-1.1-1.4-2.4-2.6-4-3.5-4.2-2.4-9.3-2.4-12.3.1-2.6 2.2-3.6 5.3-3.4 7.5.1 1.3.6 2.2 1.5 2.7.4.2.8.3 1.4.4 2.4.1 2.7-2.4 2.7-2.7 0-.2.1-.4.3-.5.2-.1.4-.1.6 0 1.2.7 3.2 2.9 1.8 6.1v.1c-.9 1.5-2.4 2.5-4.2 2.7-1.7.2-3.6-.2-5.3-1.1-2.2-1.3-3.8-3.4-4.4-6-.6-2.6-.5-6.9 3.4-12.8 5.5-8.2 12.8-9.6 17.9-9.2 1.5.1 2.9.3 4.1.6v-29.4zm-8.8.6s-.1-.1-.2-.1c.1 0 .2 0 .2.1zm8.8-11c-.4-.3-.9-.6-1.3-.8-12.4-7.1-30.3 4.2-41.6 23.1-14.8 24.6-8.7 43.1-8.7 43.1l-.1-.1c.8 2.5 0 3.4 0 3.4s-5.1-7.3-15.6-8.5c-13.2-.4-17.6 8-19.8 13.9-.7 4 .5 7.6 2.9 10.7.5.6.8 1.2.9 1.7 2.3 4.8-3.1 9.2-7.5 5.4-1.4-1.2-1.9-2.8-1.8-4.1-.1.4-.3.8-.4 1.3 0 0-.1-.8.1-1.7-.4.7-.7 1.6-1 2.7 0 0-.1-1.4.3-2.9-.2.3-.4.7-.5 1.1 0 0 .1-.7.4-1.6-1.9 3.1-1.4 8 1.9 9.9h.1c4.6 2.6 9.8 1.3 12.2-3.1.7-1.2 1-2.5 1.1-3.6-.4 1.2-1.4 1.8-1.4 1.8 1.6-1.9.7-4.8.7-4.8.2.8-.4 2.3-.4 2.3.6-3.3-2.4-5.7-2.9-6.1 1.2.9 2.3 1.4 3 1.7 1 .2 5.7.8 7.2-3.6.2-.7.3-1.4.3-1.9-.2 1.3-1.3 2.1-1.3 2.1 1-1.3.7-2.7.7-2.7-.1 3.3-3.3 3.7-3.3 3.7 2.7-1.1 2.2-3.8 2.2-3.8-.4 2.3-2.7 2.5-2.7 2.5 1.4-.7 1.9-1.5 2-2.3-1.2 3-8.7 3.1-8.4-3.9.3-7.3 15.2-13.4 24.2-6.3.9.7 1.6 1.4 2 1.9.7.8 1.3 1.6 1.8 2.5 1.1 2.1 1.4 4 1.3 5.5 2.1-.2 4.7-3.6 4.7-3.6-2.4 4.7-5.5 7.5-6.4 8.3.3 0 .8.2 1.4.6 4.4 2.5 13.5 13.5-4.9 33.8-2.2 2.5-4.6 4.8-7 6.9 1.8-.5 3.6-1 5.4-1.4 14.1-14.6 24.7-35.9 12.3-49.2 0 0 2.4-.3 3.9 2-.7-1.7-1.8-4.6-3.1-9.2-2.2-8-3.3-29.6 9.6-47 2.4-3.2 4.5-5.8 6.4-7.8l-.1.1s3-3.3 3.9-4.2l-2.4 1.4s1.7-2.2 4.5-4c2.6-1.7 6.4-1.5 8.8.7h-.1c2.1 1.7 1.5 6-.4 6.9-1.3.6-2.2.5-2.9.1-1.2-.7-1.5-2.2-1.5-2.2-.6 2.6.5 4.4 2.2 5.5 3.3 1.1 5.8-.5 7.3-4.1 1.6-3.7.5-5 0-5.3 1 .6 5.2 2.7 8.1.3.9-.8 2.4-.8 3.8-.5v-6.6zm251.4-18.6v39.2c3.6 2.4 7.8 4.2 10.7 7.6 3.1 3.7 6.2 8.2 5.9 13.2 0 .4-.5.5-.7.2-3.6-5.3-5.4-11.2-11-14.9-1.5-1-3.2-1.9-4.8-2.9v3.2c5.2 4.7 10.3 9.5 15.3 14.5 1.3 1.1 2.6 2.3 3.9 3.5-5-21.6-11.6-42.9-19.3-63.6zm0 48v2c2.4 1.2 4.8 2.6 7 4.1-2.3-2.1-4.7-4.1-7-6.1zm-.1-151.2v7.2c.1-1.2.2-2.5.4-3.7 0-.3.6-.3.6 0 .4 2.5.4 5 .1 7.5 10.4-15 26.8-27.1 45.1-28.9.8-.1.9 1.1.2 1.4-9.2 3.3-18 7.5-25.8 13.1 8.6-4.8 18.3-7.9 28-7.9.3 0 .4.5.1.5-12.3 1.9-23.6 5.2-34 12.1-5.3 4.7-9.9 10.2-13.6 16.7-.4.8-.9 1.6-1.3 2.4v3c2.6-2.8 5.5-5.2 8.2-7.4 7.6-6.3 17.8-13.7 27.8-15.4.5-.1.8.6.3.8-4.3 2.5-9.2 3.9-13.6 6.3-4.8 2.7-9.4 5.7-13.6 9.2-3 2.5-6.2 5.3-9.1 8.4v14.9c.1-.1.2-.2.4-.3 4.3-3.3 9.3-5.5 14.7-6.1 9-1 9.1-9 12.3-15.6 2-4.2 4.7-9.2 9-11.5 1.9-1 3.9-1.7 6.1-1.8 5.2-.3 8-2.2 10.2-6.9 3.9-8.6 9.7-14.7 18.4-16.2-3.2-.7-6.2-2.2-9.4-2.9-6.8-1.5-11.9 2.1-18.4 2.6-6.1.5-13.2-.8-19 1.4-5.8 2.2-9 7.5-13.6 11.3-3.1 2.9-7.1 3.8-10.5 5.8zm-22.9-8.3c.1 15.1 3 29.8 7.3 44.2-.1-5.1.4-10.1 1.3-14.8 1.2-6.1 3-13 6.8-18.1l.2-.2v-1c0-13.1-4.5-25.2-12-34.9-2.5 8.5-3.7 17.4-3.6 24.8zm15.6 56.9v-2.6c-.1 1-.2 2-.2 3 0-.1.1-.3.2-.4zm-.3 9.4c0 .7.1 1.5.2 2.2 0 .1.1.2.1.3v-3.4l-.3.9zm.3-30V182c-1.7 4-2.9 8.3-3.6 12.5-1.4 8.2-1 15.9.2 23.6.3-5.9 1.4-11.9 3.4-17.6zm-20.8-70.1c-3.2-2.6-6.7-4.9-10.4-6.8.7 5.5 1 11 5.1 15.3.9.9 1.6 1.8 2.3 2.8.7-3.7 1.7-7.5 3-11.3 0 .1 0 .1 0 0zm-15.6-16.9c-2.5-4.8-6-8.9-10.4-12.1-5.1-3.7-10.7-6.3-16.5-8.3.2 3.4.2 6.8.9 10.2.2.8.5 2.9 1 4.8.8.7 1.5 1.4 2.2 2h2.4c7.2.1 14 1.3 20.4 3.4zm-15.3 4.3c2.9 3.2 5.6 6.6 8.1 10-.9-3-1.7-6.1-2.5-9.2-1.8-.3-3.7-.6-5.6-.8zm-28.8-.2c3.7 3.6 7.9 5.6 13.1 7.5 6 2.2 9 5.2 11 11.3 2.7 8.3 8.7 12 15.4 16.8 4.6 3.3 9.4 7.6 13.4 12.5-1.8-5.3-3.9-10.5-6.3-15.5-2-3.1-3.7-6.3-5.1-9.7-1.8-3-3.7-6-5.8-8.9-3.2-4.4-6.6-8.6-10.3-12.6-1.4-.6-2.9-1.1-4.4-1.6h-21zm54.7 42.5c.1-5.5.6-11 1.6-16.5-.6-.9-1.2-1.8-2-2.6-1.7-1.8-3.2-3.3-4.3-5.5-1.3-2.6-1.3-6.1-1.8-8.9-.2-1.3-.5-2.5-.7-3.8-3.8-1.8-7.8-3.1-12-4 1.4 4.1 2.6 8.2 3.9 12.2 5.9 8.8 11.4 18.7 15.3 29.1zM305.8 58.5c-18.4 5.2-35.1 19.5-47.5 32.7-6.6 7-12.4 14.6-18.3 22.2 6.3-2.1 13.1-3.3 20.2-3.3h39.7c3-1.2 6.2-2 9.5-2.1 1.2-.2 2.4-.2 3.6.1.2 0 .3.1.5.1.7.1 1.4.2 2 .3.6 0 1.1 0 1.7.1 1.7.2 3.2.7 4.7 1.5h29l-1.2-2.1c-.2-.1-.4-.1-.6-.2-.3-.1-.1-.6.1-.6-.6-1.1-1.2-2.3-1.8-3.4-4.7-9.2-9-20.6-18.4-26-.5-.3-.1-1.1.5-.8 9.3 5.3 14.5 14.1 19.2 23.5 1.2 2.3 2.4 4.8 3.7 7.1 3.6.5 7.3 1.5 10.9 2.5H376c-.5-.5-1-1-1.6-1.4-7.6-6.6-15.8-11.8-24.2-17.2-.6-.4-.2-1.4.5-1.2 9.5 3.6 18.4 9.3 26.4 16.2-1.4-4.5-2-9.4-1.4-13.9-5.5-1.9-11.2-3.3-16.9-4.9-10.4-2.9-23.9-5.9-31-14.7-.5-.6.1-1.3.8-1 6.6 3.1 12.7 6.8 19.6 9.2 6.6 2.2 13.4 4 20 6 10.7 3.3 22.4 7.8 30.5 15.8 3.3 3.3 6.1 7.1 7.9 11.4 3.1 1.2 6.2 2.7 9 4.4-13.5-33.5-48-56.4-83.6-60.5-8.8-.8-17.5-.8-26.2.2zm47.7 51.1c.1.2.3.4.4.6h1.7l-2.1-.6zm-211.8 50.8c3.3.9 6.5 1.5 9.8 1.8 6.8-3.1 14.5-4.4 21.9-5.3.5-.1.6.8.1.8-6.6 1.1-12.8 3.1-19.2 4.7 4.4.3 8.7.2 12.9-.3 7.2-4.6 13.9-10 20.3-15.6-4.1 1.1-8.6 1.5-11.8 1.6-4.1.1-8.4-.2-12.4.7-4.9 1.1-7.3 3.7-10.7 7-3.1 3.2-6.8 4.3-10.9 4.6zm32.5 4.6c-2.8.6-5.7 1.1-8.6 1.4-2.9 1.8-5.8 3.4-9 4.8-5.5 2.4-11.3 4.3-17.2 5.1-6.6 3.6-12.1 8.3-18.1 12.9-.3.3-.7-.1-.5-.5 4-5.1 9.6-9 15.3-12.2-.8 0-1.5.1-2.3.1-3.5 0-7.4-.2-11-1.1-6.7 1.6-12.7 4.5-19.1 7-.4.2-.7-.5-.4-.7 4.9-3.9 10.9-5.9 17-7.1-2.1-.8-4.1-1.9-5.6-3.5-.5-.5-.2-1.6.6-1.5 7.4 1 13.9 3.9 21.6 3.3 7.8-.6 15.4-2.7 22.4-6.3-4.4.1-8.9-.3-13.4-1.1-5.2-1-10.4-2.6-15.2-4.8-13.1 1.9-24.4 10.6-38.1 11.5-7.6.5-16.3-.4-24-3.2l7.5 4.5c4.9 3 10.2 6.4 14.2 10.6 3.2 3.3 6.1 6.8 11.3 6.2 3.2-.3 6.6-1.2 9.9-.9 6.8.6 13.2 2 20 .8 13.8-2.4 25-9.9 35.5-18.9 2.4-2.1 4.8-4.2 7.2-6.4zm14.7-15.9c.8-1.3 1.5-2.5 2.3-3.8-.4.2-.9.3-1.3.5-5.5 5.4-11.1 10.8-17.1 15.5 2.3-.5 4.7-1 7-1.7l1.3-1.3c2.7-3 5.2-6.1 7.8-9.2zm12.2.4c6.4-15.3 18.7-27.7 34-34.2 8.5-10.6 16.8-21.4 26.7-30.8 10.1-9.7 22-19.2 35.2-24.6-13.1 2.5-25.8 7.2-37.5 13.9-22.9 13.1-39.7 32.5-53.6 54.6-5.7 9-11 18.4-16.6 27.6 4-1.8 8-4 11.8-6.5zm2.4 156.6c.5-.1.7-.6.7-.6-.2-.6-.5-1.1-.7-1.7v2.3zm5 26c-1.7.5-3.7 0-5-1.3v7.7c10.3 11.1 4.2 23.3 4.2 23.3 1-3 .2-11.4-4.2-16.9V357c1 4.1 1.3 9.1 0 15.1v14.6c7.1-12.3 11.3-25.3 12.6-38 .9-8.2 5.6-10.8 8.6-9 .5.3.9.7 1.3 1.1.4.5.6 1 .7 1.5.1-1.7-1.5-3.7-1.5-3.7 2.4 1.4 2.4 4.8 2.4 4.8.4-1.9-.1-3.3-.1-3.3 2.3 2 1.2 7-3.1 6.9-3.8-.1-3.8-2.5-3.8-2.5s.1 2.3 2.1 3.5c1.2.7 3 1 5.8.4.9-.2 1.8-.5 2.5-1 4.6-3.3 4.4-10.8.3-14.8.8 1.1 1.5 2.5 1.5 4.3-.9-2.3-5.7-9-13.2-4.1-2.1 1.5-3.5 3.1-4.4 4.6.3-1.5 0-3-.4-4.1l.1-.3c-.2.8-.5 1.3-.5 1.3.3-2.8-3.5-5-4.8-3.7-1.3 1.2-2.8 1.1-2.8 1.1l1.7.4zm3.9-3.3s-.1 0 0 0c-.2-.1-.3-.2-.4-.2.1 0 .2.1.4.2zm43.8 65.1c-20.4-2.7-38.1-.1-52.7 4.7v.1c22.8-6.3 41.4-2.5 48.3-.8 11.5 3 13.9 7.2 13 9.9-.7 2.2-3 3.2-3.8 3.5 1.3 0 4.4-.2 5.4-3.3 0 0-.1 2.1-1 3.2.5-.3 1.1-.7 1.5-1.3 5.4-7-1.4-13.8-7.8-15.3 0 0 13.5 1.1 24.4 8.2 13.5 8.8 15.6 19.7 15.1 26 0 0-.7-10.3-7.8-17.3-5.4-5.4-11-9.2-17.8-11.9 5.6 3 10.2 7.1 10.2 7.1-4.6-2.7-7.8-4.3-10.1-5.3 3 1.6 7.5 4.5 13.8 9.7 8.5 7.3 9.9 14.8 8 20.4-1.7 5-5.9 8.3-9.7 8.5-1.8.1-3.5-.4-5-1.1-1.6-.7-3.4-1.8-4.7-3.4-2.2-2.8.9-5.8.9-5.8-.4 1-.6 1.9-.6 2.5.1-.3.2-.5.3-.8 1.5-3.3 6.1-2.2 5.9.2.2-.8.5-3.4-2.5-4.8-3.1-1.1-6.3 1.3-7.5 4.7-.2.5-.3 1.1-.4 1.7 0-.3.1-.6.2-.9-.2 2.8.5 7.8 6.1 9.8 13.4 4.7 17.9-4.3 17.9-4.3s-.9 3-3.1 4.2c0 0 7.7-3.4 10.5-11.9s-4.1-18.6-7.5-20.6c0 0 14.4 5.7 12.1 23.2.1 5.1 4.6 6.4 7 6.7-.3-.2-.5-.5-.8-.7-1.9-2.3-.7-6.3 2-7.5l-.9 1.4s1.1-1.1 2.8-1c1.8.1 3.2-4 1.1-5.9 0 0 .6.2 1.3.6l-.2-.2c-.4-1.2-1.2-2.5-2.4-3.4 1.7.5 3.8.8 6.3.5 8.9-1.2 8-9.5 7.2-11.8 1.1 1.3 1.6 2.8 1.7 4.2.4-5.7-4.4-11.4-10.1-10.8-.9.2-1.7.5-2.6.9-2.5 1.4-3.6 2.9-4 4.2-.8 2.3.7 4 .7 4s-1.5-1.8 1.2-4.4c3.2-3 7.3 0 6.9 3.1 0 0-.6-1.3-2.2-2.5 0 0 2.3 2.6 1.4 5.2 0 0-.1-2.5-1.3-3.8.3.4.5.9.5 1.6 0 .6 0 1.2-.2 1.7-1.1 3.4-6.4 4.5-12.5-1-20.7-18.9-52.4-29.5-88.5-24.5-4 .6-8 1.5-12 2.8 17.6-4.9 34.5-2.6 34.5-2.6-17.3-.8-29.4 2.5-36.1 5.2 28.3-8.5 47.6-.8 47.6-.8zm64.8 37.4c.1-.1.1-.3.1-.4v-.1c0 .2 0 .3-.1.5zm-39.1.3s0-.1.1-.3c0 .2-.1.3-.1.3zM204 450c2-.9 4.3-1 6.6-.2 3.7 1.2 5.2 4.3 5.8 5.9 1.3-1.4 4.3-3.7 7.9-1.6 2.4 1.4 3.2 3.6 2.3 6.4-.4 1.1-.9 1.9-.9 2-.1.2-.4.3-.7.2-.2-.1-.4-.3-.4-.6.1-1-.3-1.7-1-1.8-.8-.2-1.8.5-2.4 2.2-.3.8 0 1.5.6 2.1 1.9 1.8 7 2.6 11.5.8 3.8-1.5 6.8-4.8 8.2-8.8.8-2.4.9-4.9.4-7.2-1.5-6.3-6.5-6.8-6.7-6.8-.2 0-.4-.2-.5-.4v-.4c0-.1.1-.2.1-.2.2-.1.4-.5.6-1.2.8-2.4.8-6.6-1.6-10.4-.2-.4-.5-.8-.8-1.2-.2-.1-.5-.2-.7-.3-9.2-3.7-18.9-6.4-28.8-8.2V443c0 2.4.2 4.7.5 7zm6.7-46.4c-2.2 2.9-1.3 6.6-.5 8.7-.2-1.1-.2-2.6.3-4.3l.8 1.1s-.1-2 1.8-4.2c1.9-2.2 5.6-1.9 7.1.3 1.1 1.6 1.3 4 .4 5.7 1-.6 2-1.6 2.4-3 .6-1.8.3-4.1-2.2-6.1-.6-.5-1.3-.9-2-1.1-1.9-.6-4-.3-5.8.6-1.2.6-2.3 1.6-3 2.7.4-.2.7-.4.7-.4zm2.2 12.9c5.7 1.3 11.4 3 17 5.1-5.2-2.4-11-4.1-17-5.1zm12.5 45.4c-.1.2-.2.3-.2.3s.1-.2.2-.3zm-20.5-6.4c2.4-2 6.3-1.2 7.4 2.6.2.5.4 1.1.5 1.9.3 3.9 1.8 7.4 4.9 10 5.5 2.9 14.4 6.3 24-2.8 7-7.8 6-16.7 6-16.7s1.1.1 2.2 2.5v-.2s7.7 17.8 35.1 26.4c4.7 1.5 9.4 2.4 14 2.9-1-1.1-2-2.3-3-3.5-1.6-.3-3.4-.6-5.3-1-21.2-4.4-34.7-21.4-38.4-28.7-2.1-4.3-3.2-7.2-3.8-8.9.4 2.8-1.6 4.1-1.6 4.1.1-3.7-.8-7-2.3-9.9-3.4-1.8-7-3.5-10.6-5 3 4.4 2.8 9 2 11.3-.2.6-.5 1.1-.7 1.4 1.2 0 5.4 0 10.3 1.9 0 0-4.2-.8-5.9.4 1.1 1.1 2.1 2.7 2.7 5 .2 1 .3 2 .3 3 .1.7 0 1.6-.2 2.8-2 11.3-17.2 16.7-22.3 11.4-4.9-5.1.8-10 3.7-8.5-.6-.5-1.5-.8-3-.4 0 0 1.8-1.4 3.7 0 0 0-1.5-2.4-4.2-1.4 0 0 2.7-1.8 4.9.6 0 0-.7-1.3-2.3-1.6 0 0 1.4-.1 2.4.7-.4-.5-.8-.9-1.5-1.3-4-2.3-7.1 1.3-7.8 2.1-.4.7-.9 1.8-1.2 3.3.1-.5.8-4.4-1.9-6.5 0 0 1.4.8 1.8 1.5 0 0-1.2-2.7-3.7-3.1 0 0 1.1-.2 2.2.4-.8-.8-1.8-1.5-3.2-2-2.2-.7-4.5-.6-6.4.3.6 1.8.9 3.4 1.2 5zm49.4-12.8c4.3 16.7 19.4 25.7 28.1 29.6 4.1 1.8 8.1 3.2 11.8 4.1-.7-.8-1.4-1.6-2-2.4-11.7-13.6-24.5-25.8-39.5-35.2.6 1.4 1.2 2.7 1.6 3.9zm-34.9 28.4c.6.4 1.2.7 1.9 1-.6-.3-1.3-.7-1.9-1zm95.9 28.6c-5.5-5.3-10.7-11.1-15.7-17-4.8-.4-9.7-1.4-14.7-3-14.3-4.5-23.2-11.5-28.1-16.6-3.2-3.3-5.1-6.2-6.2-8-.1 1.3-.3 2.6-.8 3.9-1.5 4.4-5 8.6-9.6 11.6-4.5 2.9-9.4 4.2-13.4 3.6-8.9-1.4-14.1-6.5-14.6-14.3-.1-1.9-1.1-3.1-2.7-3.3-1.4-.2-3 .4-3.9 1.4.4 1.5.9 3 1.4 4.5 1.6.5 3.3-.3 3.3-.3.2-.1.5-.1.7.1.1.2.2.4.1.5 0 .1 0 .1-.1.2-.9 1.1-1.9 1.8-2.9 2.2 8.7 20.2 28.8 34.4 52.1 34.4h55.1zm-105.2-36.4c.2-.2.3-.3.4-.5-.1.2-.2.4-.4.5zM315.8 474c-.4 3.3-3 6-6.1 6.4-1.8.3-3.5.2-4.6.1.5.6 1 1.2 1.6 1.8 12.2-.3 21.9-4.9 24.9-13.6 1.4-4.1 1.2-9.2-.9-15.2 0 0-1.1-.7-1.5.8-.4 1.4 1.5 1.6.3 5.5 0 0 0-.9-.2-1.3-.5 2.7-2.4 6-4.8 6-3.7.1-5.5 4.5-5.9 5.6.1-.6.1-2.3-3.6-4-3.5-1.7-6.5-1.2-8.2 1.8-.5 1.9-.1 4 2.1 5.6 0 0-.7-1.4-.3-2.6.2-.7.9-1.4 2.2-1.8 2.1-.4 5.4 2.3 5 4.9 0 .1 0 0 0 0zm2.3-9c0 .1 0 .1-.1.2 0-.1 0-.1.1-.2zm9.7-10.4c-.1 0-.1 0 0 0-.1 0 0 0 0 0zm-21.4 25.3c-.4 0-1.2-.1-2.1-.2.1.2.3.3.4.5l1.7-.3zm25.5 19.8c2-.7 4.3-1.1 6.6-1.2 5.1-1.3 10.4-1.9 15.7-.3.4.1.8.3 1.2.4 1.5.2 2.9.5 4.3 1 .1 0 .2.1.2.2h23.4c31.3 0 56.7-25.4 56.7-56.7v-23.3c-.1-.6-.1-1.2-.2-1.8-.5-4.4-1.3-8.9-1.5-13.3-.2-4.1.7-8 1.8-11.8v-62.7c-15-5.9-33.7-7.1-44.8 5.5-16.1 18.1-1.1 49.2 23.2 47.4 1.8-.1 2.2 2.8.4 3.1-15.9 2.6-31.9-8.7-35.9-24.3-3.7-14.6 2.6-31.2 16.4-38.1 7.6-3.8 15.4-5.3 23.2-5-10.1-1.5-20.4-9.9-27.4-16.9-7.3-7.3-14.7-16.3-16.2-26.9-.9-6 .1-12.6-1.9-18.5-1.5-4.5-3.8-7.8-2.3-12.6.9-2.8 2.6-5.3 3.4-8.1 1-3.2 1.4-6.3 1.9-9.6.9-6.5 2.4-13 3.7-19.4.1-.6.9-.3.8.2-1 6.5-1.7 13.1-3.3 19.5-1.1 4.6-1 9.8-2.9 14.2-1.7 4-2.7 6.6-.8 10.8.8 1.9 1.7 3.7 2.2 5.8 1 4.7.9 9.5 1.5 14.2 1.4 11.1 7.8 20.6 15.9 28.2 4 3.7 8.2 7.2 12.9 10.1 4.3 2.6 9.1 4.7 13.1 7.7.4.3.4 1.1-.1 1.2 4.9.2 9.8 1.2 14.5 2.7-3.3-2.5-6.6-5.1-10.1-7.4-4.9-3.3-9.5-6.7-13.6-11.1-.3-.3.2-.8.5-.5 5.1 5.2 11.4 8.8 17.5 12.8 2.7 1.8 5.7 3.6 8.2 5.8v-3.7c-5.2-4.4-10.5-8.9-15.5-13.5-6.5-4.5-12.8-9.2-19.1-14-7-5.4-15-10.6-19.8-18.1-.3-.4.4-.8.6-.4 5.6 8.7 15.7 14.8 23.7 20.9 3.5 2.6 7 5.3 10.6 7.9-3.1-3-6.1-6.2-9-9.5-14.1-16.2-27.6-38.4-23.8-60.7-3.1-7.9-4.8-16.5-2.5-24.5.2-.8 1.3-.6 1.4.2 1.1 12.6 2.6 23.8 9.3 35 5.8 9.7 13.1 18.4 21 26.5.4.4-.2 1-.6.6-9.1-8.6-18.2-17.5-24.2-28.6-.6-1.1-1.2-2.3-1.8-3.5 2.4 21.9 12.1 41.1 27.4 57.5 7.1 7.6 14.7 14.6 22.4 21.6V313c-9.6-6.8-14.9-19.7-19.1-30.1-.1-.3.4-.4.5-.1 2.4 5.9 5.4 11.8 9 17.1 2.8 4.2 6.3 7.6 9.5 11.3-2-3.5-3-7.4-3.5-11.5-.7-5.7-2.4-10.4-5-15.5-.1-.3.2-.7.5-.5 6.7 4.1 6.1 13.5 8.2 21v-47.9c-8.6-21.1-17.8-42.2-22.5-64.6-1.2-5.6-2.1-11.4-2.7-17.1-1.9-3.5-4-6.8-6.7-9.9-4.8-5.4-10.4-9.3-16.1-13.5-4.2-3.2-8.3-6.7-10.1-11.9-1.4-4-2.2-8.6-6.5-10.6-2.9-1.4-6.1-2.1-9.1-3.4-4.2-1.9-7.6-4.8-10.4-8.2h-95.7c-11.1 0-21.4 3.2-30.2 8.7-5.4 6.7-11 13-17.5 18.7l-1.8 1.5c-4.6 8.2-7.3 17.6-7.3 27.7v56.9l.3 2.4c.8 2.2 1.4 4.4 1.5 6.6.2 3.8-.4 7.8-1.8 11.4v50.9c.4.9.9 1.8 1.3 2.7.3 1.1-.1 1.7-.4 1.9-.2.2-.5.3-.8.4v17.9c.1.1.2.2.2.4 0 .9.4 1.7 1.1 2.1 1 .6 2.4.6 4 0 1.3-.4 2.5-.3 3.7.4 1.3.8 2.3 2.1 2.8 2.9 1.6-1.8 6.8-6.2 14.2-1.9 4.4 2.5 6.8 7.3 6 12.1-.7 4-3.3 7-6.9 7.7-2.6.5-4.7.4-6.2-.5-2.3-1.3-2.4-3.8-2.4-3.9 0-.3.2-.5.4-.6.1 0 .3 0 .4.1.1.1.2.1.2.2.2.4.5.7.8.9 1.1.7 2.8 0 3.7-.9.5-.6 1.1-1.7 0-3.1-.3-.4-.7-.8-1.1-1-1-.6-2.3-.6-3.4 0-2.3 1.2-3.9 4.3-4.4 8.6-1.4 13.3-5.9 26.8-13.2 39.1v5.7c6.1-2.5 12.4-4.4 18.7-5.2 17.6-2.4 34.5-1.3 50.3 3.3 14.7 4.3 28.1 11.7 38.7 21.4 3.2 2.9 6.5 4.2 9 3.5 1.3-.3 2.2-1.1 2.6-2.3.2-.5.2-1 .2-1.5-.1-1.8-1.3-2.2-2.1-2.3-1.3-.2-2.9.5-3.4 1.7-.1.4-.1.8 0 1.2v.3c0 .1-.1.3-.3.3-.2.1-.5.1-.7-.1-.1-.1-1.7-2-.8-4.6.6-1.6 2-3.2 4.3-4.5 3.2-1.9 7.2-1.4 10.3 1.2 3.8 3.1 5.2 8.2 3.5 13-2.7 8.2-9.5 8.2-11.9 8 .2.9.3 2.6-.2 4-.4 1.3-1.3 2.3-2.5 2.8-1.6.7-2.7 1.6-3 2.7-.3.8-.1 1.7.5 2.3.1.2.2.4.1.6-.1.2-.3.3-.5.4-.2 0-4.5.1-7.1-2.6-.9-.9-1.4-1.9-1.7-3.1-.9 1.7-2.4 4.3-4.7 6.6-3.6 3.7-10 7.5-19.5 5-6.8-1.8-9.8-5-11-7.3-1.3-2.3-1.5-4.9-.7-7.4.6-1.8 1.7-3.4 3.2-4.3 1.6-1 3.3-1.3 5-.7h.1c3.2 1.5 3.1 4.4 2.7 5.8-.1.2-.2.3-.4.4-.2 0-.4 0-.5-.1-.2-.2-2.1-2-3.8-.2-.4.4-.6.8-.8 1.2-.3.9-.1 2 .7 3 1.3 1.7 4.1 3.4 7.5 3.3 3.8-.1 7.7-3.5 9.2-8.1 2.2-6.5-.7-13.7-7.8-19.7-8.6-7-13.7-9.8-16.4-10.9 1.3 1.5 2.5 4 1.4 7.3-2.3 6.7-10.9 4.1-10.9 4-.2-.1-.4-.3-.4-.5v-.2c.1-.2.2-.3.4-.4 0 0 2.9-.9 3.6-3.2.3-.8.1-1.6-.3-2.5-.8-1.5-3.5-4.4-12.3-6.6-9.2-2.4-27.1-5.2-48.1.7v14.2c1.8-.1 3.7-.1 5.5 0-.3-1.2-.6-3-.7-5.6 0-.8.1-1.6.3-2.3 1.3-3.9 6.2-6.7 10.3-5.3.7.3 1.5.6 2.1 1.2 2.7 2.1 3.1 4.7 2.4 6.8-.6 1.8-2.1 3.2-3.6 3.6l-.5.1.1-.5s.1-.6.1-1.4c-.1-.7-.4-1.5-1.2-1.8-.1 0-.1 0-.2-.1-1.6-.5-3.3.6-3.7 1.9-.3.8-.1 1.6.7 2.3.7.6 1.7 1.1 2.7 1.5 2.2.8 4.9.6 6.7-1l.5-.5-.1.7s0 .2-.1.6c-.2.6-.7 1.6-2 2.4 4.5 1.4 8.8 3.4 12.8 5.8 2.5 1.6 4.9 3.3 7.1 5.1.8.4 1.7.8 2.5 1.2 10.9 5.6 21.2 12.4 30.3 20.4 9.3 8.2 17.2 17.5 25.2 26.9l1.8 2.1c4.4.3 8-.1 10.1-1.2 1.3-.6 2.1-1.4 2.3-2.2.3-1 0-2.3-1-3.3s-2.2-1.5-3-1.3c-1 .3-1.6.8-1.9 1.4-.3 1 .3 2.2.3 2.2.1.1.1.3 0 .4 0 .1-.1.2-.2.2-.2.2-.5.2-.7 0-2.2-1.6-3-3.9-2.2-6.5.9-2.5 3.1-4.7 5.3-5.1 2.8-.4 4.8 1 5.9 1.9.7-1.6 2.8-3.4 5.7-4 1.8-.4 2.8-2.2 3.3-3.6.4-1.1.4-1.9.4-2 0-.2 0-.3.1-.5.3-1 1.4-2 2.4-2.1.4 0 1.1.1 1.6 1.1 2.1 5.9 2.4 11.1.9 15.5-2.2 6.6-8.4 11.2-17.5 13.1-2.3.5-4.8.8-7.4.9 5.2 5.9 10.6 11.6 16.5 16.7l8.1.5zm96.6 7.5c19.2-11.5 34.6-29.2 44.9-48.9 10.3-19.7 16.4-42.4 13.5-64.6-1.2-9.5-4.2-18.9-8.7-27.5 1.6 16.4 1.5 32.9-.9 49.2-3.5 23.9-12 47.1-27.2 66.1-6.9 8.6-14.9 16.3-24 22.4-8.7 5.9-19.6 10-29.8 12.7-.5.1-.7-.7-.2-.8 29.5-9.3 53-35.6 65-63.4 13.5-31.5 13.9-66.9 8.1-100.2-5-6.3-11-11.8-17.7-16.1-1.3-.8-2.6-1.6-4-2.4V443c0 35.3-28.7 64.1-64.1 64.1h-50.3c7.6 5.2 15.9 9.2 25.4 11.4 23.6 5.4 49.3 1.1 70-11.3zm-23.8 20.7h-.2c-5.2-.2-10.1-1-15.1-2.1-2.2.3-4.4.4-6.6.5 2.9 1.3 5.9 2.4 8.9 3.4h.1c3.9-.7 7.8-1.1 11.8-1.4.3-.1.7-.3 1.1-.4zm13.1-.9c20.4-2.6 40.4-12.4 55.9-25.1 10.4-8.4 18.6-18.9 28.4-27.8 4.4-3.9 8.9-7.8 13.8-11 1.5-.9 3-2 4.6-2.9-3.3-.2-6.3.4-9.1 2.9-1.8 1.7-3.8 3.4-6.3 3.9-7.1 1.4-13.5.6-19.7 5.2-6 4.4-10.3 10.4-14.2 16.7-3.7 5.8-7.3 12.1-12.4 16.9-5.3 5-11.7 8.2-18.2 11.3-6.9 3.3-13.9 6.3-21 9-.4.4-1.1.6-1.8.9zm115.6-65c-2.1 0-4.2-.3-6.3-.7-4 2.7-8.3 4.8-12.2 7.7-5.4 4-10.5 8.3-15.1 13-9.6 9.7-18.7 19.4-30.2 27-12.6 8.4-27 15.1-42.1 17.2-3.7.5-7.3 1-11 1.3-.2.1-.4.2-.6.2 9.2-.2 18.4.1 27.5-.3 8.3-.3 17.1-1.1 24.2-6 5.9-4 10.6-9.6 16.8-13.3 6.4-3.8 15.2-4.1 20.5-9.5 4.7-4.7 6.5-11.2 9.1-17.2 3.9-9.2 10.2-16.6 19.4-19.4zM428.9 281.2c.4.4 1-.2.6-.6-.6-.6-1.2-1.4-2-1.8-.3-.2-.5.2-.4.4.5.7 1.2 1.4 1.8 2zm-9.9-8c-.1 0-.1.1 0 0 0 .1 0 0 0 0zm-11.8-8c1.2 9.4 5.7 18.8 11.2 26.4.1.1.3 0 .2-.1-5-8.4-8-17.1-10.9-26.4 0-.2-.5-.2-.5.1zM106.7 161c.4-.2.2-.8-.2-.9-5.1-.4-6.6-5.4-3-8.8 3.1-2.9 8.4-1.8 11.7-.1.3.1.5-.2.2-.4-5.1-3.4-11.9-4.4-15.4 1.8-2.2 4.2 1.9 10.9 6.7 8.4z"/></svg>