<svg xmlns="http://www.w3.org/2000/svg" viewBox="0 0 595.3 595.3"><path d="M565.2 385.8c-5.4-4.4-11.9-2.6-15.6 3.1-2 3.1-2.6 7.3-3.2 10.9-.7 4.6-1.8 8.3-4.8 11.8-2.5 3-7.7 7.3-11.7 5.6-3.6-1.4-4.5-4.3-4.4-7.5l.6-1.5c.9 1.6 3.2 2.3 4.8 2.6 4.5.8 8.6-2.8 9.6-7.3.7-3.2-4.1-4.4-4.6-1.3-.4 2.5-1.7 4.2-3.9 5.1-1.4.6-3.2.8-3.9-1-.2-.7-.3-1.5-.4-2.3.3-.7.5-1.4.8-2.1.2-.1.3-.3.4-.6.1-.4.1-.7.2-1.1.1-.3 0-.6-.1-.9.8-16.8.1-33.7.1-50.5 0-17.1.3-34.3 0-51.4.4-17.1 0-34.3 0-51.4 0-16.8.6-33.7-.1-50.5.1-.3.2-.6.1-.9-.1-.4-.1-.7-.2-1.1-.1-.3-.2-.5-.4-.6-.3-.7-.5-1.4-.8-2.1.1-.8.2-1.6.4-2.3.7-1.8 2.5-1.6 3.9-1 2.2 1 3.5 2.6 3.9 5.1.5 3.1 5.3 1.9 4.6-1.3-1-4.5-5.2-8.1-9.6-7.3-1.6.3-3.9 1-4.8 2.6l-.6-1.5c-.2-3.2.7-6.1 4.4-7.5 4.1-1.6 9.2 2.6 11.7 5.6 2.9 3.5 4.1 7.3 4.8 11.8.6 3.7 1.1 7.8 3.2 10.9 3.7 5.7 10.2 7.5 15.6 3.1 2.4-2 3.7-4.7 3.8-7.9.1-2.9-1.8-6.2-4.7-6-1.5.1-2.6 1.5-2.2 3.1.4 1.7 1.8 2.9 1.1 4.7-.6 1.5-1.8 3-3.3 3.4-4.3 1.3-7.5-2.3-8.8-6.4-2.3-7.1-3.4-14.5-9.3-19.6-4.5-3.8-10.3-6.7-15.5-3 1.3-5.4 2.7-10.8 3.6-16.2 1.1-6.5 1.5-13.6-.8-19.9-1.4-3.9-3.5-6.9-5.9-9.4 2.3-7.1 4.5-14.2 5.8-21.5 5 2.5 9.8 6.3 12.7 11.2 1.8 3 3.5 6.1 4.4 9.6.7 2.6.5 5.8 2 8 .6.9 2.1 1.2 2.7 0 1.4-3 0-7.2-1.1-10.2-1.3-3.4-2.9-6.9-5.3-9.6-4.4-4.9-9.3-8.4-15.2-10.2.8-4.7 1.1-9.5.8-14.5 1.8.1 3.7-.2 5.5-.3 2.8-.1 5.8 0 8.6-.8.1 0 .3-.1.4-.2.9 0 1.7-1.2 1.1-2.1-1.9-3-4.6-5.5-7.1-8.1 2.9 1.4 6 2.2 9.4 1.8 7.1-.9 13-3 16.2-10.2 2.7-6.2 2.7-14.2-.5-20.3-2.5-4.8-8.6-13.1-14.7-11.3-.8.2-1.3 1.3-.8 2.1 1.4 2.3 3.7 3.1 5.6 4.7 2.1 1.7 4 3.8 5.4 6.1 2.8 4.8 4.9 11 3.1 16.7-2.2 7-8.3 11.5-15.4 10.7-4.5-.5-8.9-2.7-12.8-5.5-1.2-2-3-3.5-4.5-5.4.9-1.8 2.1-2.4 3.6-1.9.7.2 1.3.4 2 .6 1 .4 2 1 3.1 1.4 3.9 1.5 8.3 1.6 11.1-2.1 5-6.7-.9-16.5-6.5-20.3-5.8-3.9-16.4-6.9-20.3 1.3-.8 1.7-1.4 3.6-2.2 5.4-1.3 3.2-2.7 4.6-6.2 4.3-2.8-.3-5.7-1-8.1-2.5-.6-.3-1.2-.7-1.7-1.1 3.9 1 8.2.7 11.6-1.7 3.8-2.7 6.1-8.2 2.4-12.1-.5-.5-1.3-.8-2-.6-.2.1-.4.1-.5.2-.8.3-1.2 1-1 1.9.3 1.6 1.6 2.4 2.3 3.8 1.1 2.2-1.7 5.9-3.4 6.7-3.3 1.6-6.7 1.1-9.9 0 2.8-.7 5.2-2.2 6.5-4.9 1.5-3.1 1.6-7.3 4.1-9.7 2.6-2.4 5.1-1.6 8.2-2.1 1.1-.2 1.5-1.7 1-2.5-3.3-5.8-11.9-1.6-14.2 3.1-.7 1.4-1.2 2.8-1.4 4.4-.3 1.9 0 4.4-1 6-1.6 2.6-4.9 3.7-8.1 4.2 2.5-1.8 4.1-5.5 3.7-8.7-1.1-7.2-7.2-10.2-13.6-8.8-.8.2-1.5.9-1.6 1.7 0 .2-.1.4-.1.6-.2 1 .3 1.8 1.2 2.1 1.6.7 3.3-.2 5-.1 2.2.1 4.1 1.1 5.1 3.2 1.1 2.3 1.2 4.8-.2 7-.8 1.2-1.8 1.9-2.9 2.3-2.7-.7-5.8-.3-8.4 0-3.3.4-6.6.9-9.9 1.8-5.4 1.4-10.4 3.6-15.7 5.4-4.1 1.4-8.5 2.6-12.8 1.3-2.5-.7-4.8-1.9-6.9-3.5-1-.7-1.9-1.5-2.8-2.3-2.1-2.7-3.5-5.5-4.9-9-1.2-3-2.7-5.8-6-6.3-7.1-1.1-4.8 11.3-4.3 17.4-28.6-.3-137.4-.9-165.9 0-28.6-.9-57.4-.3-86 0 .6-6.1 2.9-18.5-4.3-17.4-3.3.5-4.8 3.4-6 6.3-1.4 3.5-2.8 6.3-4.9 9-.9.8-1.8 1.6-2.8 2.3-2.1 1.5-4.4 2.8-6.9 3.5-4.3 1.2-8.7 0-12.8-1.3-5.2-1.8-10.3-4-15.7-5.4-3.2-.8-6.5-1.4-9.9-1.8-2.6-.3-5.7-.7-8.4 0-1.1-.5-2-1.1-2.9-2.3-1.5-2.2-1.4-4.7-.2-7 1.1-2.1 2.9-3.1 5.1-3.2 1.7-.1 3.4.9 5 .1.9-.4 1.4-1.1 1.2-2.1 0-.2-.1-.4-.1-.6-.2-.8-.9-1.5-1.6-1.7-6.4-1.5-12.6 1.6-13.6 8.8-.5 3.2 1.1 6.8 3.7 8.7-3.2-.4-6.4-1.6-8.1-4.2-1-1.6-.7-4.2-1-6-.3-1.6-.7-3-1.4-4.4-2.3-4.7-10.9-8.8-14.2-3.1-.5.9-.1 2.4 1 2.5 3.1.5 5.6-.4 8.2 2.1 2.6 2.4 2.6 6.6 4.1 9.7 1.3 2.6 3.8 4.1 6.5 4.9-3.3 1-6.6 1.5-9.9 0-1.8-.8-4.6-4.5-3.4-6.7.7-1.4 2-2.3 2.3-3.8.2-.8-.2-1.6-1-1.9-.2-.1-.4-.1-.5-.2-.7-.2-1.5 0-2 .6-3.8 3.9-1.4 9.4 2.4 12.1C82.9 58.7 87.2 59 91 58c-.6.4-1.1.8-1.7 1.1-2.5 1.4-5.3 2.2-8.1 2.5-3.4.3-4.9-1-6.2-4.3-.7-1.8-1.3-3.6-2.2-5.4-3.9-8.2-14.4-5.2-20.3-1.3C47 54.5 41 64.3 46.1 71c2.8 3.7 7.2 3.6 11.1 2.1 1-.4 2-1 3.1-1.4.6-.2 1.3-.5 2-.6 1.6-.5 2.8.1 3.6 1.9-1.4 1.9-3.2 3.4-4.5 5.4-3.9 2.8-8.3 5-12.8 5.5-7.1.8-13.1-3.7-15.4-10.7-1.8-5.7.3-11.8 3.1-16.7 1.4-2.4 3.3-4.5 5.4-6.1 2-1.6 4.2-2.4 5.6-4.7.5-.8 0-1.8-.8-2.1-6-1.8-12.2 6.5-14.7 11.3-3.1 6.1-3.2 14.1-.5 20.3 3.2 7.3 9 9.4 16.2 10.2 3.3.4 6.5-.4 9.4-1.8-2.4 2.6-5.1 5.1-7.1 8.1-.6.9.2 2.1 1.1 2.1.1.1.2.1.4.2 2.8.8 5.7.7 8.6.8 1.8.1 3.7.3 5.5.3-.3 4.9 0 9.7.8 14.5-5.9 1.8-10.8 5.3-15.2 10.2-2.4 2.7-4 6.2-5.3 9.6-1.1 2.9-2.5 7.2-1.1 10.2.6 1.2 2.1.9 2.7 0 1.5-2.2 1.3-5.4 2-8 .9-3.5 2.6-6.6 4.4-9.6 2.9-4.9 7.7-8.6 12.7-11.2 1.3 7.3 3.5 14.4 5.8 21.5-2.5 2.5-4.5 5.6-5.9 9.4-2.3 6.3-1.9 13.4-.8 19.9.9 5.4 2.2 10.8 3.6 16.2-5.2-3.7-11.1-.9-15.5 3-5.9 5.1-7 12.4-9.3 19.6-1.3 4.1-4.5 7.7-8.8 6.4-1.5-.5-2.7-1.9-3.3-3.4-.7-1.9.8-3 1.1-4.7.3-1.6-.7-3-2.2-3.1-2.9-.1-4.8 3.2-4.7 6 .1 3.2 1.3 5.9 3.8 7.9 5.4 4.4 11.9 2.6 15.6-3.1 2-3.1 2.6-7.3 3.2-10.9.7-4.6 1.8-8.3 4.8-11.8 2.5-3 7.7-7.3 11.7-5.6 3.6 1.4 4.5 4.3 4.4 7.5l-.6 1.5c-.9-1.6-3.2-2.3-4.8-2.6-4.5-.8-8.6 2.8-9.6 7.3-.7 3.2 4.1 4.4 4.6 1.3.4-2.5 1.7-4.2 3.9-5.1 1.4-.6 3.2-.8 3.9 1 .2.7.3 1.5.4 2.3-.3.7-.5 1.4-.8 2.1-.2.1-.3.3-.4.6-.1.4-.1.7-.2 1.1-.1.3 0 .6.1.9-.8 16.8-.1 33.7-.1 50.5 0 17.1-.3 34.3 0 51.4-.4 17.1 0 34.3 0 51.4 0 16.8-.6 33.7.1 50.5-.1.3-.2.6-.1.9.1.4.1.7.2 1.1.1.3.2.5.4.6.3.7.5 1.4.8 2.1-.1.8-.2 1.6-.4 2.3-.7 1.8-2.5 1.6-3.9 1-2.2-1-3.5-2.6-3.9-5.1-.5-3.1-5.3-1.9-4.6 1.3 1 4.5 5.2 8.1 9.6 7.3 1.6-.3 3.9-1 4.8-2.6l.6 1.5c.2 3.2-.7 6.1-4.4 7.5-4.1 1.6-9.2-2.6-11.7-5.6-2.9-3.5-4.1-7.3-4.8-11.8-.6-3.7-1.1-7.8-3.2-10.9-3.7-5.7-10.2-7.5-15.6-3.1-2.4 2-3.7 4.7-3.8 7.9-.1 2.9 1.8 6.2 4.7 6 1.5-.1 2.6-1.5 2.2-3.1-.4-1.7-1.8-2.9-1.1-4.7.6-1.5 1.8-3 3.3-3.4 4.3-1.3 7.5 2.3 8.8 6.4 2.3 7.1 3.4 14.5 9.3 19.6 4.5 3.8 10.3 6.7 15.5 3-1.3 5.4-2.7 10.8-3.6 16.2-1.1 6.5-1.5 13.6.8 19.9 1.4 3.9 3.5 6.9 5.9 9.4-2.3 7.1-4.5 14.2-5.8 21.5-5-2.5-9.8-6.3-12.7-11.2-1.8-3-3.5-6.1-4.4-9.6-.7-2.6-.5-5.8-2-8-.6-.9-2.1-1.2-2.7 0-1.4 3 0 7.2 1.1 10.2 1.3 3.4 2.9 6.9 5.3 9.6 4.4 4.9 9.3 8.4 15.2 10.2-.8 4.7-1.1 9.5-.8 14.5-1.8-.1-3.7.2-5.5.3-2.8.1-5.8 0-8.6.8-.1 0-.3.1-.4.2-.9 0-1.7 1.2-1.1 2.1 1.9 3 4.6 5.5 7.1 8.1-2.9-1.4-6-2.2-9.4-1.8-7.1.9-13 3-16.2 10.2-2.7 6.2-2.7 14.2.5 20.3 2.5 4.8 8.6 13.1 14.7 11.3.8-.2 1.3-1.3.8-2.1-1.4-2.3-3.7-3.1-5.6-4.7-2.1-1.7-4-3.8-5.4-6.1-2.8-4.8-4.9-11-3.1-16.7 2.2-7 8.3-11.5 15.4-10.7 4.5.5 8.9 2.7 12.8 5.5 1.2 2 3 3.5 4.5 5.4-.9 1.8-2.1 2.4-3.6 1.9-.7-.2-1.3-.4-2-.6-1-.4-2-1-3.1-1.4-3.9-1.5-8.3-1.6-11.1 2.1-5 6.7.9 16.5 6.5 20.3 5.8 3.9 16.4 6.9 20.3-1.3.8-1.7 1.4-3.6 2.2-5.4 1.3-3.2 2.7-4.6 6.2-4.3 2.8.3 5.7 1 8.1 2.5.6.3 1.2.7 1.7 1.1-3.9-1-8.2-.7-11.6 1.7-3.8 2.7-6.1 8.2-2.4 12.1.5.5 1.3.8 2 .6.2-.1.4-.1.5-.2.8-.3 1.2-1 1-1.9-.3-1.6-1.6-2.4-2.3-3.8-1.1-2.2 1.7-5.9 3.4-6.7 3.3-1.6 6.7-1.1 9.9 0-2.8.7-5.2 2.2-6.5 4.9-1.5 3.1-1.6 7.3-4.1 9.7-2.6 2.4-5.1 1.6-8.2 2.1-1.1.2-1.5 1.7-1 2.5 3.3 5.8 11.9 1.6 14.2-3.1.7-1.4 1.2-2.8 1.4-4.4.3-1.9 0-4.4 1-6 1.6-2.6 4.9-3.7 8.1-4.2-2.5 1.8-4.1 5.5-3.7 8.7 1.1 7.2 7.2 10.2 13.6 8.8.8-.2 1.5-.9 1.6-1.7 0-.2.1-.4.1-.6.2-1-.3-1.8-1.2-2.1-1.6-.7-3.3.2-5 .1-2.2-.1-4.1-1.1-5.1-3.2-1.1-2.3-1.2-4.8.2-7 .8-1.2 1.8-1.9 2.9-2.3 2.7.7 5.8.3 8.4 0 3.3-.4 6.6-.9 9.9-1.8 5.4-1.4 10.4-3.6 15.7-5.4 4.1-1.4 8.5-2.6 12.8-1.3 2.5.7 4.8 1.9 6.9 3.5 1 .7 1.9 1.5 2.8 2.3 2.1 2.7 3.5 5.5 4.9 9 1.2 3 2.7 5.8 6 6.3 7.1 1.1 4.8-11.3 4.3-17.4 28.6.3 137.4.9 165.9 0 28.6.9 57.4.3 86 0-.6 6.1-2.9 18.5 4.3 17.4 3.3-.5 4.8-3.4 6-6.3 1.4-3.5 2.8-6.3 4.9-9 .9-.8 1.8-1.6 2.8-2.3 2.1-1.5 4.4-2.8 6.9-3.5 4.3-1.2 8.7 0 12.8 1.3 5.2 1.8 10.3 4 15.7 5.4 3.2.8 6.5 1.4 9.9 1.8 2.6.3 5.7.7 8.4 0 1.1.5 2 1.1 2.9 2.3 1.5 2.2 1.4 4.7.2 7-1.1 2.1-2.9 3.1-5.1 3.2-1.7.1-3.4-.9-5-.1-.9.4-1.4 1.1-1.2 2.1 0 .2.1.4.1.6.2.8.9 1.5 1.6 1.7 6.4 1.5 12.6-1.6 13.6-8.8.5-3.2-1.1-6.8-3.7-8.7 3.2.4 6.4 1.6 8.1 4.2 1 1.6.7 4.2 1 6 .3 1.6.7 3 1.4 4.4 2.3 4.7 10.9 8.8 14.2 3.1.5-.9.1-2.4-1-2.5-3.1-.5-5.6.4-8.2-2.1-2.6-2.4-2.6-6.6-4.1-9.7-1.3-2.6-3.8-4.1-6.5-4.9 3.3-1 6.6-1.5 9.9 0 1.8.8 4.6 4.5 3.4 6.7-.7 1.4-2 2.3-2.3 3.8-.2.8.2 1.6 1 1.9.2.1.4.1.5.2.7.2 1.5 0 2-.6 3.8-3.9 1.4-9.4-2.4-12.1-3.4-2.4-7.7-2.7-11.6-1.7.6-.4 1.1-.8 1.7-1.1 2.5-1.4 5.3-2.2 8.1-2.5 3.4-.3 4.9 1 6.2 4.3.7 1.8 1.3 3.6 2.2 5.4 3.9 8.2 14.4 5.2 20.3 1.3 5.6-3.8 11.5-13.6 6.5-20.3-2.8-3.7-7.2-3.6-11.1-2.1-1 .4-2 1-3.1 1.4-.6.2-1.3.5-2 .6-1.6.5-2.8-.1-3.6-1.9 1.4-1.9 3.2-3.4 4.5-5.4 3.9-2.8 8.3-5 12.8-5.5 7.1-.8 13.1 3.7 15.4 10.7 1.8 5.7-.3 11.8-3.1 16.7-1.4 2.4-3.3 4.5-5.4 6.1-2 1.6-4.2 2.4-5.6 4.7-.5.8 0 1.8.8 2.1 6 1.8 12.2-6.5 14.7-11.3 3.1-6.1 3.2-14.1.5-20.3-3.2-7.3-9-9.4-16.2-10.2-3.3-.4-6.5.4-9.4 1.8 2.4-2.6 5.1-5.1 7.1-8.1.6-.9-.2-2.1-1.1-2.1-.1-.1-.2-.1-.4-.2-2.8-.8-5.7-.7-8.6-.8-1.8-.1-3.7-.3-5.5-.3.3-4.9 0-9.7-.8-14.5 5.9-1.8 10.8-5.3 15.2-10.2 2.4-2.7 4-6.2 5.3-9.6 1.1-2.9 2.5-7.2 1.1-10.2-.6-1.2-2.1-.9-2.7 0-1.5 2.2-1.3 5.4-2 8-.9 3.5-2.6 6.6-4.4 9.6-2.9 4.9-7.7 8.6-12.7 11.2-1.3-7.3-3.5-14.4-5.8-21.5 2.5-2.5 4.5-5.6 5.9-9.4 2.3-6.3 1.9-13.4.8-19.9-.9-5.4-2.2-10.8-3.6-16.2 5.2 3.7 11.1.9 15.5-3 5.9-5.1 7-12.4 9.3-19.6 1.3-4.1 4.5-7.7 8.8-6.4 1.5.5 2.7 1.9 3.3 3.4.7 1.9-.8 3-1.1 4.7-.3 1.6.7 3 2.2 3.1 2.9.1 4.8-3.2 4.7-6 .2-3.7-1-6.4-3.5-8.4zM524.3 138c7.6 13.3 1 27.5-1.3 41.4-2.1-5-4-10-4.9-15.5-1.1-6.9-.5-13.8 1.5-20.5.8-2.8 1.7-5.6 2.6-8.4.8.9 1.5 1.9 2.1 3zm-48-74.9c-.1 2.8.9 6.1 2.2 7.7 1.9 2.3 4.4 3.7 7.3 4.3 2.3.5 6.5.6 7.6-2 1.5-3.4-2.5-5.7-4.4-3.4-2.6 1-6 .8-8-1.5-2.3-2.7-2.2-5.3-1-8.3 2.1-.6 4.2-1.1 6.3-1.5 3.1-.6 6.8-.5 9.8-1.7 1 .1 2.1.2 3.3.2 0 .1 0 .2.1.3 1.5 3.7 6.7 5.9 10.2 6.8 2.9.8 8.4 2.2 10.8-.6 2.6-3.1 2.9-7.3 5-10.6 3.3-5.2 9.9-2.8 13.9.3 3.4 2.7 7.4 7.3 6.9 12.2-.6 6.2-8.4 2.6-12 1.8-3.7-.8-7.3.7-8.4 4.7-.6 2.2 1.1 3.3 2.4 4.6.8.9 1.6 1.8 2.5 2.7 1.6 2.2 3.6 4.2 5.3 6.2 1.7 1.9 3.3 4 5.1 5.9-2.2-.1-4.5 0-6.7 0-2.1 0-4.3-.3-6.3.3-1-.1-2 .6-2.2 2-.8 8.5-1.6 16.8-3.5 25.1-.5-8-3.3-16-8.3-21.7-4.4-5-11.2-8.3-14.6-14.2-1.6-2.9-2.9-7-1.9-10.3.5-1.6 1.6-4 3.4-4.3 1.5-.3 6 2.3 2.8 3.6-3.2 1.3-1.3 6 1.8 4.5 6.6-3.1 2.1-14.3-4.6-11.6-7 2.8-8.6 11.3-4.7 17.7 5 8.1 14 12.1 18.7 20.4 3.2 5.7 4.5 11.9 4.8 18.3-1.4-3.8-3.4-7.5-5.6-10.5-4.7-6.6-11.5-11.5-18.5-14.9-6.8-3.3-16.6-4.8-20.6-12-3.7-6.6-3-14.6 1.1-20.5zm-5.9 9.4c-.4 2.4-.3 4.9.3 7.3 1.6 7.3 6 11.8 12.5 14.4 8.5 3.4 17 6.9 23.9 13.5 3.3 3.1 6.2 6.7 8.2 10.9.8 1.6 1.4 3.2 1.8 4.8-2.8-2.9-6.2-5.3-9-7.1-7.2-4.5-14.7-6.7-22.5-9.6-8.3-3-14.4-11.2-15.8-20.3-.7-4.4-.6-9 .5-13.4-.1-.1 0-.3.1-.5zm-3.8 11.4c.6 8.1 3.3 17 9.3 22.6 6.8 6.3 16.2 6.8 24.4 10.2 4.3 1.8 8.6 4.2 12.2 7.3.9.8 1.8 1.7 2.6 2.6-5.4-2.7-11.7-4.2-17.7-5.5-7.2-1.6-14.4-3.5-20.5-8.1-5.5-4.3-10.3-10.2-12.4-17.1-2.6-8.7-1.2-18.3 3.7-25.4-.1.3-.2.7-.3 1-1.1 3.9-1.6 8.2-1.3 12.4zM124.9 72.5c.1.2.1.4.2.7 1.1 4.3 1.1 9 .5 13.4-1.4 9.1-7.5 17.3-15.8 20.3-7.8 2.9-15.3 5-22.5 9.6-2.8 1.8-6.2 4.2-9 7.1.5-1.6 1-3.2 1.8-4.8 2-4.2 4.9-7.8 8.2-10.9 6.9-6.6 15.3-10.1 23.9-13.5 6.5-2.6 10.9-7.2 12.5-14.4.5-2.6.6-5.1.2-7.5zm2.5-1.1c-.1-.3-.2-.6-.3-1 4.9 7.1 6.3 16.7 3.7 25.4-2.1 7-6.9 12.9-12.4 17.1-6.1 4.7-13.3 6.6-20.5 8.1-6 1.3-12.3 2.8-17.7 5.5.8-.9 1.7-1.8 2.6-2.6 3.6-3.2 7.9-5.5 12.2-7.3 8.2-3.4 17.6-3.8 24.4-10.2 6-5.6 8.7-14.5 9.3-22.6.3-4.1-.2-8.4-1.3-12.4zm-57.8 22c-.1-1.4-1.2-2.1-2.2-2-2-.6-4.2-.3-6.3-.3-2.2 0-4.5-.1-6.7 0 1.8-1.9 3.4-4 5.1-5.9 1.7-2 3.7-4 5.3-6.2.9-.8 1.6-1.8 2.5-2.7 1.2-1.3 3-2.4 2.4-4.6-1.1-4-4.7-5.5-8.4-4.7-3.6.8-11.4 4.4-12-1.8-.5-4.9 3.5-9.5 6.9-12.2 3.8-3 10.5-5.5 13.8-.2 2.1 3.4 2.4 7.6 5 10.6 2.4 2.8 7.9 1.4 10.8.6 3.5-.9 8.7-3.1 10.2-6.8 0-.1.1-.2.1-.3 1.1 0 2.2 0 3.3-.2 3 1.2 6.7 1.1 9.8 1.7 2.1.4 4.2.9 6.3 1.5 1.2 2.9 1.3 5.6-1 8.3-2 2.3-5.4 2.5-8 1.5-1.9-2.2-5.9 0-4.4 3.4 1.1 2.7 5.3 2.5 7.6 2 2.8-.6 5.4-2 7.3-4.3 1.3-1.6 2.3-4.9 2.2-7.7h.1c4 5.9 4.8 13.9 1.3 20.2-4.1 7.3-13.9 8.7-20.6 12-7.1 3.5-13.8 8.3-18.5 14.9-2.2 3.1-4.2 6.7-5.6 10.5.4-6.4 1.6-12.5 4.8-18.3C85 94.3 94 90.3 99.1 82.2c4-6.4 2.4-14.9-4.7-17.7-6.8-2.7-11.2 8.5-4.6 11.6 3.1 1.5 5-3.3 1.8-4.5-3.1-1.2 1.3-3.9 2.8-3.6 1.8.3 2.9 2.7 3.4 4.3 1 3.3-.3 7.5-1.9 10.3-3.4 5.9-10.2 9.2-14.6 14.2-5 5.7-7.8 13.7-8.3 21.7-1.9-8.2-2.6-16.5-3.4-25.1zM71 138c.6-1.1 1.4-2.1 2.2-3 .9 2.8 1.8 5.6 2.6 8.4 1.9 6.7 2.6 13.6 1.5 20.5-.9 5.5-2.8 10.5-4.9 15.5-2.5-13.9-9.1-28.1-1.4-41.4zm0 319.3c-7.6-13.3-1-27.5 1.3-41.4 2.1 5 4 10 4.9 15.5 1.1 6.9.5 13.8-1.5 20.5-.8 2.8-1.7 5.6-2.6 8.4-.8-.9-1.5-1.9-2.1-3zm48 74.9c.1-2.8-.9-6.1-2.2-7.7-1.9-2.3-4.4-3.7-7.3-4.3-2.3-.5-6.5-.6-7.6 2-1.5 3.4 2.5 5.7 4.4 3.4 2.6-1 6-.8 8 1.5 2.3 2.7 2.2 5.3 1 8.3-2.1.6-4.2 1.1-6.3 1.5-3.1.6-6.8.5-9.8 1.7-1-.1-2.1-.2-3.3-.2 0-.1 0-.2-.1-.3-1.5-3.7-6.7-5.9-10.2-6.8-2.9-.8-8.4-2.2-10.8.6-2.6 3.1-2.9 7.3-5 10.6-3.3 5.2-9.9 2.8-13.9-.3-3.4-2.7-7.4-7.3-6.9-12.2.6-6.2 8.4-2.6 12-1.8 3.7.8 7.3-.7 8.4-4.7.6-2.2-1.1-3.3-2.4-4.6-.8-.9-1.6-1.8-2.5-2.7-1.6-2.2-3.6-4.2-5.3-6.2-1.7-1.9-3.3-4-5.1-5.9 2.2.1 4.5 0 6.7 0 2.1 0 4.3.3 6.3-.3 1 .1 2-.6 2.2-2 .8-8.5 1.6-16.8 3.5-25.1.5 8 3.3 16 8.3 21.7 4.4 5 11.2 8.3 14.6 14.2 1.6 2.9 2.9 7 1.9 10.3-.5 1.6-1.6 4-3.4 4.3-1.5.3-6-2.3-2.8-3.6 3.2-1.3 1.3-6-1.8-4.5-6.6 3.1-2.1 14.3 4.6 11.6 7-2.8 8.6-11.3 4.7-17.7-5-8.1-14-12.1-18.7-20.4-3.2-5.7-4.5-11.9-4.8-18.3 1.4 3.8 3.4 7.5 5.6 10.5 4.7 6.6 11.5 11.5 18.5 14.9 6.8 3.3 16.6 4.8 20.6 12 3.7 6.6 2.9 14.6-1.1 20.5zm5.9-9.4c.4-2.4.3-4.9-.3-7.3-1.6-7.3-6-11.8-12.5-14.4-8.5-3.4-17-6.9-23.9-13.5-3.3-3.1-6.2-6.7-8.2-10.9-.8-1.6-1.4-3.2-1.8-4.8 2.8 2.9 6.2 5.3 9 7.1 7.2 4.5 14.7 6.7 22.5 9.6 8.3 3 14.4 11.2 15.8 20.3.7 4.4.6 9-.5 13.4.1.1 0 .3-.1.5zm3.8-11.4c-.6-8.1-3.3-17-9.3-22.6-6.8-6.3-16.2-6.8-24.4-10.2-4.3-1.8-8.6-4.2-12.2-7.3-.9-.8-1.8-1.7-2.6-2.6 5.4 2.7 11.7 4.2 17.7 5.5 7.2 1.6 14.4 3.5 20.5 8.1 5.5 4.3 10.3 10.2 12.4 17.1 2.6 8.7 1.2 18.3-3.7 25.4.1-.3.2-.7.3-1 1.1-4 1.6-8.2 1.3-12.4zm330.9 17c-4.5-1.3-9.1-1.6-13.5-.2-4.7 1.5-12.8 5.9-13.4 11.5v.1c-1.1 2-2 4.1-2.7 6.4-.1.3-2.5 4.7-2.8 2.6-.2-1.7-.2-3.5-.1-5.3.1-2.8.7-5.5.7-8.2.6-1 .3-2.6-.8-3.1-.5-.3-1.2-.4-1.8-.2-29.1-.3-58.3-.9-87.4 0-29.1-1-138.3-.3-167.4 0-.6-.2-1.3-.1-1.8.2-1.1.5-1.4 2.1-.8 3.1 0 2.7.6 5.4.7 8.2 0 1.7.1 3.5-.1 5.3-.3 2.1-2.7-2.3-2.8-2.6-.8-2.2-1.7-4.4-2.7-6.4v-.1c-.7-5.6-8.7-10-13.4-11.5-4.5-1.4-9.1-1.1-13.5.2-3.4 1-6.7 2.3-10 3.5 7.2-6.7 10.7-17.2 9.7-27.3-1.4-12.9-10.8-24.3-21.9-29.4-7.3-3.3-15-4.2-22.6-6.2-4.5-1.2-9.6-2.7-13.7-5.5 1.5-4.2 2.9-8.4 4-12.8 1.8-7.4 2.1-14.9.6-22.3-2-9.8-6-19.7-12.1-27.5.2-.3.3-.7.4-1.2.8-17.6.1-35.4.1-53 0-16.4.3-32.8 0-49.2.3-16.4 0-32.8 0-49.2 0-17.6.7-35.4-.1-53 0-.5-.2-.9-.4-1.2 6.1-7.8 10.1-17.7 12.1-27.5 1.6-7.4 1.2-15-.6-22.3-1.1-4.3-2.5-8.6-4-12.8 4.1-2.8 9.2-4.4 13.7-5.5 7.6-1.9 15.4-2.9 22.6-6.2 11.1-5 20.6-16.5 21.9-29.4 1.1-10.1-2.5-20.6-9.7-27.3 3.3 1.2 6.6 2.5 10 3.5 4.5 1.3 9.1 1.6 13.5.2 4.7-1.5 12.8-5.9 13.4-11.5v-.1c1.1-2 2-4.1 2.7-6.4.1-.3 2.5-4.7 2.8-2.6.2 1.7.2 3.5.1 5.3-.1 2.8-.7 5.5-.7 8.2-.6 1-.3 2.6.8 3.1.5.3 1.2.4 1.8.2 29.1.3 58.3.9 87.4 0 29.1 1 138.3.3 167.4 0 .6.2 1.3.1 1.8-.2 1.1-.5 1.4-2.1.8-3.1 0-2.7-.6-5.4-.7-8.2 0-1.7-.1-3.5.1-5.3.3-2.1 2.7 2.3 2.8 2.6.8 2.2 1.7 4.4 2.7 6.4v.1c.7 5.6 8.7 10 13.4 11.5 4.5 1.4 9.1 1.1 13.5-.2 3.4-1 6.7-2.3 10-3.5-7.2 6.7-10.7 17.2-9.7 27.3 1.4 12.9 10.8 24.3 21.9 29.4 7.3 3.3 15 4.2 22.6 6.2 4.5 1.2 9.6 2.7 13.7 5.5-1.5 4.2-2.9 8.4-4 12.8-1.8 7.4-2.1 14.9-.6 22.3 2 9.8 6 19.7 12.1 27.5-.2.3-.3.7-.4 1.2-.8 17.6-.1 35.4-.1 53 0 16.4-.3 32.8 0 49.2-.3 16.4 0 32.8 0 49.2 0 17.6-.7 35.4.1 53 0 .5.2.9.4 1.2-6.1 7.8-10.1 17.7-12.1 27.5-1.6 7.4-1.2 15 .6 22.3 1.1 4.3 2.5 8.6 4 12.8-4.1 2.8-9.2 4.4-13.7 5.5-7.6 1.9-15.4 2.9-22.6 6.2-11.1 5-20.6 16.5-21.9 29.4-1.1 10.1 2.5 20.6 9.7 27.3-3.3-1.2-6.6-2.5-10-3.5zm8.3-4.5c.1.3.2.6.3 1-4.9-7.1-6.3-16.7-3.7-25.4 2.1-7 6.9-12.9 12.4-17.1 6.1-4.7 13.3-6.6 20.5-8.1 6-1.3 12.3-2.8 17.7-5.5-.8.9-1.7 1.8-2.6 2.6-3.6 3.2-7.9 5.5-12.2 7.3-8.2 3.4-17.6 3.8-24.4 10.2-6 5.6-8.7 14.5-9.3 22.6-.3 4.1.2 8.3 1.3 12.4zm2.5-1.1c-.1-.2-.1-.4-.2-.7-1.1-4.3-1.1-9-.5-13.4 1.4-9.1 7.5-17.3 15.8-20.3 7.8-2.9 15.3-5 22.5-9.6 2.8-1.8 6.2-4.2 9-7.1-.5 1.6-1 3.2-1.8 4.8-2 4.2-4.9 7.8-8.2 10.9-6.9 6.6-15.3 10.1-23.9 13.5-6.5 2.6-10.9 7.2-12.5 14.4-.5 2.6-.6 5.1-.2 7.5zm55.3-21c.1 1.4 1.2 2.1 2.2 2 2 .6 4.2.3 6.3.3 2.2 0 4.5.1 6.7 0-1.8 1.9-3.4 4-5.1 5.9-1.7 2-3.7 4-5.3 6.2-.9.8-1.6 1.8-2.5 2.7-1.2 1.3-3 2.4-2.4 4.6 1.1 4 4.7 5.5 8.4 4.7 3.6-.8 11.4-4.4 12 1.8.5 4.9-3.5 9.5-6.9 12.2-3.9 3.1-10.6 5.5-13.9.3-2.1-3.4-2.4-7.6-5-10.6-2.4-2.8-7.9-1.4-10.8-.6-3.5.9-8.7 3.1-10.2 6.8 0 .1-.1.2-.1.3-1.1 0-2.2 0-3.3.2-3-1.2-6.7-1.1-9.8-1.7-2.1-.4-4.2-.9-6.3-1.5-1.2-2.9-1.3-5.6 1-8.3 2-2.3 5.4-2.5 8-1.5 1.9 2.2 5.9 0 4.4-3.4-1.1-2.7-5.3-2.5-7.6-2-2.8.6-5.4 2-7.3 4.3-1.3 1.6-2.3 4.9-2.2 7.7h-.1c-4-5.9-4.8-13.9-1.3-20.2 4.1-7.3 13.9-8.7 20.6-12 7.1-3.5 13.8-8.3 18.5-14.9 2.2-3.1 4.2-6.7 5.6-10.5-.4 6.4-1.6 12.5-4.8 18.3-4.7 8.3-13.7 12.3-18.7 20.4-4 6.4-2.4 14.9 4.7 17.7 6.8 2.7 11.2-8.5 4.6-11.6-3.1-1.5-5 3.3-1.8 4.5 3.1 1.2-1.3 3.9-2.8 3.6-1.8-.3-2.9-2.7-3.4-4.3-1-3.3.3-7.5 1.9-10.3 3.4-5.9 10.2-9.2 14.6-14.2 5-5.7 7.8-13.7 8.3-21.7 2.2 8 2.9 16.3 3.8 24.8zm-1.4-44.5c-.6 1.1-1.4 2.1-2.2 3-.9-2.8-1.8-5.6-2.6-8.4-1.9-6.7-2.6-13.6-1.5-20.5.9-5.5 2.8-10.5 4.9-15.5 2.4 13.9 9 28.1 1.4 41.4z"/></svg>