<svg xmlns="http://www.w3.org/2000/svg" viewBox="0 0 595.3 595.3"><path d="M574 545c-3.6-4.5-8.3-7.9-13.6-10-3.6-3.3-6.8-7-8.5-11.8-.7-1.9-1.1-3.8-1.3-5.8v-.4c0-.1 0-.3-.1-.4-.3-4.8.6-9.7 2-14.2.9-2.8 1.9-5.5 3-8.2 6.4-15.5 17.7-39.6 4.6-54.7 2.7-9.1 4.4-18.7.6-27.7-1.6-3.9-4.6-6.5-7.2-9.5 2.5-2.1 5.2-3.8 7.3-6.4 1.8-2.3 3-4.9 3.7-7.7 1.5-5.7.4-12.3-3.2-17l-.3-.3c.1-.1.2-.3.2-.6.8-24.3.1-48.7.1-73 0-24.5.5-49 0-73.4 3.6-4.7 4.7-11.3 3.2-17-.7-2.8-1.9-5.5-3.7-7.7-2.1-2.6-4.8-4.3-7.3-6.4 2.6-3.1 5.6-5.7 7.2-9.5 3.8-9 2.1-18.6-.6-27.7 13.1-15.2 1.8-39.2-4.6-54.7-1.1-2.7-2.1-5.4-3-8.2-1.3-4.6-2.3-9.4-2-14.2 0-.1.1-.2.1-.4v-.4c.2-2 .6-3.9 1.3-5.8 1.7-4.8 4.9-8.4 8.5-11.8 5.3-2.1 9.9-5.5 13.6-10 4.4-5.5 4.4-12.9 1.4-19.1-3.4-6.8-9.6-12.6-17.3-13.7-1.1-.2-2.1-.2-3.2-.1-2-.2-4-.1-5.7.6-1.2.4-2.3 1.1-3.4 2.1-3.4 3.1-4.6 7.3-6.5 11.4l-.3.6c-2.8 4-6 7.6-10 10.2-4.6 3-10.3 4.6-15.4 3.2-1.7-.7-3.3-1.6-5-2.6-.1-.1-.3-.2-.4-.4-.2-.2-.4-.3-.6-.3-1.3-.8-2.7-1.7-4.1-2.6-4.9-2.9-10.4-4.5-15.8-1.9-4.6 2.2-8.6 6.1-11.6 10.4-1.1-4.3-2.7-8.4-5.4-12.1-2.6-3.5-7.5-7.5-12.3-7-5.1.6-8.8 4-11.9 7.8-.4.5-.8.9-1.2 1.4-2.2-.6-4.4-1.1-6.7-1.2-4.5-.3-9.4-.8-13.8.7-6.7 0-13.6 1.8-19 5.8v.1c-66.3-.5-132.7 0-199 0h-17.5c-5.4-4-12.3-5.7-19-5.8-4.4-1.5-9.2-1-13.8-.7-2.3.2-4.6.6-6.7 1.2-.4-.4-.8-.9-1.2-1.4-3.2-3.8-6.8-7.2-11.9-7.8-4.8-.6-9.7 3.4-12.3 7-2.7 3.7-4.3 7.8-5.4 12.1-3-4.3-7-8.2-11.6-10.4-5.4-2.6-10.9-1-15.8 1.9-1.4.8-2.8 1.7-4.1 2.6-.2 0-.4.1-.6.3-.1.1-.3.2-.4.4-1.6 1-3.3 1.9-5 2.6-5.1 1.4-10.8-.1-15.4-3.2-3.9-2.6-7.2-6.2-10-10.2l-.3-.6c-1.9-4-3.1-8.3-6.5-11.4-1.1-1-2.2-1.7-3.4-2.1-1.7-.7-3.7-.8-5.7-.6-1.1-.1-2.1-.1-3.2.1-7.7 1.1-13.9 6.9-17.3 13.7-3.1 6.2-3.1 13.6 1.4 19.1 3.6 4.5 8.3 7.9 13.6 10 3.6 3.3 6.8 7 8.5 11.8.7 1.9 1.1 3.8 1.3 5.8v.4c0 .1 0 .3.1.4.3 4.8-.6 9.7-2 14.2-.9 2.8-1.9 5.5-3 8.2-6.4 15.5-17.7 39.6-4.6 54.7-2.7 9.1-4.4 18.7-.6 27.7 1.6 3.9 4.6 6.5 7.2 9.5-2.5 2.1-5.2 3.8-7.3 6.4-1.8 2.3-3 4.9-3.7 7.7-1.5 5.7-.4 12.3 3.2 17-.4 24.3-.1 48.5-.1 72.8 0 24.6-.3 49.2.1 73.8 0 .2.1.4.1.5l-.2.2c-3.6 4.7-4.7 11.3-3.2 17 .7 2.8 1.9 5.5 3.7 7.7 2.1 2.6 4.8 4.3 7.3 6.4-2.6 3.1-5.6 5.7-7.2 9.5-3.8 9-2.1 18.6.6 27.7-13.1 15.2-1.8 39.2 4.6 54.7 1.1 2.7 2.1 5.4 3 8.2 1.3 4.6 2.3 9.4 2 14.2 0 .1-.1.2-.1.4v.4c-.2 2-.6 3.9-1.3 5.8-1.7 4.8-4.9 8.4-8.5 11.8-5.3 2.1-9.9 5.5-13.6 10-4.4 5.5-4.4 12.9-1.4 19.1 3.4 6.8 9.6 12.6 17.3 13.7 1.1.2 2.1.2 3.2.1 2 .2 4 .1 5.7-.6 1.2-.4 2.3-1.1 3.4-2.1 3.4-3.1 4.6-7.3 6.5-11.4l.3-.6c2.8-4 6-7.6 10-10.2 4.6-3 10.3-4.6 15.4-3.2 1.7.7 3.3 1.6 5 2.6.1.1.3.2.4.4.2.2.4.3.6.3 1.3.8 2.7 1.7 4.1 2.6 4.9 2.9 10.4 4.5 15.8 1.9 4.6-2.2 8.6-6.1 11.6-10.4 1.1 4.3 2.7 8.4 5.4 12.1 2.6 3.5 7.5 7.5 12.3 7 5.1-.6 8.8-4 11.9-7.8.4-.5.8-.9 1.2-1.4 2.2.6 4.4 1.1 6.7 1.2 4.5.3 9.4.8 13.8-.7 6.7 0 13.6-1.8 19-5.8v-.1c66.3.5 132.7 0 199 0h17.5c5.4 4 12.3 5.7 19 5.8 4.4 1.5 9.2 1 13.8.7 2.3-.2 4.6-.6 6.7-1.2.4.4.8.9 1.2 1.4 3.2 3.8 6.8 7.2 11.9 7.8 4.8.6 9.7-3.4 12.3-7 2.7-3.7 4.3-7.8 5.4-12.1 3 4.3 7 8.2 11.6 10.4 5.4 2.6 10.9 1 15.8-1.9 1.4-.8 2.8-1.7 4.1-2.6.2 0 .4-.1.6-.3.1-.1.3-.2.4-.4 1.6-1 3.3-1.9 5-2.6 5.1-1.4 10.8.1 15.4 3.2 3.9 2.6 7.2 6.2 10 10.2l.3.6c1.9 4 3.1 8.3 6.5 11.4 1.1 1 2.2 1.7 3.4 2.1 1.7.7 3.7.8 5.7.6 1.1.1 2.1.1 3.2-.1 7.7-1.1 13.9-6.9 17.3-13.7 3.2-6.2 3.2-13.6-1.3-19.1zm-20.5-56.3c-3.4 7.9-6.6 15.8-7.6 24.5-.6 5.2 0 10.7 1.6 15.8-2.8-3.5-4.6-7.7-5.5-12.5-1-5.3-.2-10.6 1.4-15.7 4-5.7 8-11.3 11.4-17.5 1.5-2.7 2.8-5.5 3.9-8.4-1.5 4.7-3.3 9.3-5.2 13.8zm5-25.5c-1.1 5.8-3.4 11.2-6.2 16.3-.8 1.3-1.7 2.6-2.6 3.8-3.7 5.1-8.7 9.2-13.9 12.6-4.8 3.2-10.1 5.6-15.4 7.8-4.8 2-9.6 3.9-13.8 7.1-1.3-8.9 2.4-17.7 8.5-24.1 6.5-6.8 15-9.4 23.5-12.6 12.2-4.5 18.7-15 20.4-27.1.1 1.4.2 2.9.3 4.2.3 4.2-.1 8.2-.8 12zm-23.1 72.1c1.8 1.9 4 3.4 6.1 4.8 1.4.9 2.8 1.9 4.1 3 1.6 1.3 4.9 6.3.7 6.6-2.8.2-5.2-4.9-6.7-6.9-2-2.5-4.3-4.6-6.9-6.4-3.4-2.4-8.6-5.3-13.2-5.4-1.8-1.7-3.6-3.3-5.5-4.7.3-4.8-2-8.8-5.5-11.9 4.3-3.5 10.3-5.7 15.1-7.8 6-2.5 11.5-5.7 16.6-9.6-5 6.6-9.5 13.4-10.4 21.9-.8 6.2 1.4 12.1 5.6 16.4zm-32.7-11.8c0-.2.1-.4.1-.6 3 1.3 5.9 3 8.5 4.8-.2.7-.5 1.3-.9 1.9-1.4 2.4-4.3 3.9-6.6 1.8-1.9-1.8-1.6-5.6-1.1-7.9zm-2.4-4.5c-3.1-1-6.3-1.5-9.7-1.5-2.2 0-4.3.3-6.3.8 2-2.6 4.7-4.6 7.9-5.8 3.9-1.4 8.2-.7 12 .7-1.7 1.7-3 3.6-3.9 5.8zm3.4 1.2c.9-2 2.3-3.7 3.9-5.1 2.5 2.6 4.1 6.1 4.1 9.6-2.5-1.7-5.2-3.3-8-4.5zM554.4 407c8.2 8.5 6.5 20.1 3.6 30.7-6.6-10.6-15.8-23.5-6.3-33.6.9.9 1.8 1.9 2.7 2.9zm5.9-203.9c3.1 6 2.9 12.7-.4 18.5-.3.1-.6.4-.6.9v.1l-.1.1c-.3.5-.2 1 0 1.3-.6 23.8 0 47.6 0 71.4 0 25-.8 50 .1 75 0 .2.1.4.2.5-.5.3-.7.9-.3 1.5 3.9 6 4.4 13.3 1.1 19.7-1.9 3.6-5.2 5.8-8.2 8.3l-.6-.9c-3.2-5.2-2.6-11.8.2-16.9.1-.1.1-.2.1-.3.3-.2.5-.4.5-.9.3-27.7 0-55.5 0-83.3 0-28.4.6-56.9-.1-85.2 0-.6-.4-.9-.9-1-2.6-5-3-11.3.1-16.3l.6-.9c3.1 2.6 6.4 4.8 8.3 8.4zm-5.9-14.8c-.9 1-1.8 1.9-2.7 2.9-9.5-10.1-.3-23 6.3-33.6 2.9 10.6 4.7 22.2-3.6 30.7zm5-44.5l-.3 4.2c-1.7-12.1-8.2-22.6-20.4-27.1-8.5-3.2-17.1-5.7-23.5-12.6-6.1-6.4-9.7-15.2-8.5-24.1 4.2 3.2 8.9 5.1 13.8 7.1 5.3 2.2 10.6 4.7 15.4 7.8 5.2 3.5 10.2 7.5 13.9 12.6.9 1.2 1.8 2.5 2.6 3.8 2.8 5.1 5.1 10.6 6.2 16.3.6 4.1 1 8.1.8 12zm-55.3-61.7c-3.8 1.5-8.1 2.1-12 .7-3.2-1.1-5.9-3.2-7.9-5.8 2 .5 4.1.8 6.3.8 3.4 0 6.6-.6 9.7-1.5 1 2.1 2.3 4.1 3.9 5.8zm-.2-18.3c2.3-2.1 5.2-.6 6.6 1.8.4.6.6 1.3.9 1.9-2.6 1.9-5.5 3.5-8.5 4.8-.1-.2-.1-.4-.1-.6-.6-2.2-.9-6 1.1-7.9zm-.2 11.2c2.8-1.2 5.5-2.7 8-4.5 0 3.5-1.7 7.1-4.1 9.6-1.6-1.4-3-3.1-3.9-5.1zm10.2-6c1.9-1.5 3.8-3.1 5.5-4.7 4.6-.1 9.8-3 13.2-5.4 2.6-1.9 5-3.9 6.9-6.4 1.5-1.9 3.9-7.1 6.7-6.9 4.2.3.9 5.3-.7 6.6-1.3 1.1-2.7 2.1-4.1 3-2.1 1.4-4.3 2.9-6.1 4.8-4.2 4.3-6.4 10.3-5.7 16.3.9 8.5 5.4 15.3 10.4 21.9-5.1-3.9-10.7-7.1-16.6-9.6-4.8-2.1-10.7-4.2-15.1-7.8 3.6-3 5.9-7.1 5.6-11.8zm39.6 37.5c1.9 4.5 3.7 9.1 5.1 13.8-1.1-2.9-2.4-5.7-3.9-8.4-3.4-6.1-7.4-11.8-11.4-17.5-1.6-5.1-2.4-10.4-1.4-15.7.9-4.9 2.7-9.1 5.5-12.5-1.6 5.1-2.2 10.7-1.6 15.8 1.1 8.7 4.4 16.6 7.7 24.5zm-10.1-69.3c3.7-2.4 9.4-4.5 13.1-.9 3.4 3.3 4.7 8.3 1.9 12.4-2.1 3.2-5 5.7-7.1 8.9-.4.6-.8 1.3-1.1 1.9-6.5 3.9-10.4 12.3-11.5 19.4-.4 2.6-.5 5.4-.2 8.2-3-5.1-5.4-10.8-4.2-16.7 1.6-7.7 8.1-11.1 13.4-16.1 3.4-3.2 5.9-10.2-.4-11.7-5.7-1.4-9.4 7.8-12.5 10.9-2.8 2.7-5.7 5.2-9.3 6.8-1.1.5-2.2.8-3.3 1.1 3.9-4 7.3-8.3 10.4-12.4 3.2-4.1 6.4-8.9 10.8-11.8zm-50.2 3.6c6.6-.2 11.3 5.1 17 7.6 2 .9 4.1 1.5 6.2 1.7-10.9 4.9-23.4 6.7-35 3.6-1-.3-2-.6-2.9-.9 3.7-4.8 8.1-11.8 14.7-12zm-8.7 17.4c11.4 1.8 23.3.4 33.6-4.9 2.8-1.4 5.4-3.1 8-4.8.6-.3 1.1-.5 1.7-.8 1-.6 2-1.2 2.9-1.8-5.1 7.1-10.5 14.6-17.4 20.2-1.3-3.3-4.3-6-7.9-5.8-4.9.2-6.9 6.2-6.5 10.3.1 1.1.3 2.1.5 3.1-5 1.6-10.3 2-15.4.4-.6-.2-1.3-.4-1.9-.7-.3-.6-.5-1.2-.8-1.8-1.8-4.8-2.6-9.9-3.4-15.1 2.1.8 4.3 1.4 6.6 1.7zm-23.2-24c6.1 2.6 8.6 9.7 10 15.6v.1c-6.2-2.8-12.2-6.2-18.5-9-1.3-.6-2.6-1.1-3.9-1.6 3.4-3.5 7.6-7.1 12.4-5.1zm-15 7.8c3.3 1.4 6.6 2.9 9.9 4.5 5.3 2.7 10.6 5.6 16.1 8 .9 5.2 1.6 10.6 3.1 15.6-9.9-6.3-17.4-16.7-26.5-23.8-1.3-1-2.7-2-4-2.8.4-.5.9-1 1.4-1.5zm-5.3-2.1c.6.2 1.2.5 1.9.8-.4.4-.8.7-1.3 1-3.6-1.9-7.5-3.2-11.7-3.7 3.7 0 7.3.3 11.1 1.9zm-252.3 4.7c.3.2.6.1.7-.1 66.2.2 132.4 0 198.6 0h17.8c.2.2.5.3.8.1 8.7-4.8 18.5-7.7 28.3-4.1 1.8.7 3.5 1.4 5.1 2.3-2.1 1.4-4.5 2.4-7.2 3.2-5.1 1.4-10.5 2.1-15.8 2.8-.2 0-.4.2-.4.4-65.4-.3-130.8 0-196.2 0h-41.7c0-.2-.2-.4-.4-.4-5.3-.6-10.7-1.4-15.8-2.8-2.7-.7-5.1-1.8-7.2-3.2 1.6-.9 3.3-1.6 5.1-2.3 9.8-3.6 19.6-.7 28.3 4.1zm-34.4-4.7c3.8-1.5 7.4-1.9 11.1-1.9-4.2.5-8.1 1.8-11.7 3.7-.4-.3-.9-.7-1.3-1 .6-.3 1.3-.6 1.9-.8zM124 49.8c1.3-6 3.9-13 10-15.6 4.8-2 9 1.6 12.4 5.1-1.3.5-2.6 1-3.9 1.6-6.3 2.8-12.2 6.2-18.5 9v-.1zm-.9 4.7c5.5-2.3 10.8-5.3 16.1-8 3.2-1.6 6.5-3.1 9.8-4.5.5.5 1 1 1.5 1.4-1.4.9-2.7 1.8-4 2.8-9.2 7.1-16.6 17.5-26.5 23.8 1.5-4.9 2.2-10.3 3.1-15.5zm-38-6.1c5.6-2.5 10.4-7.8 17-7.6 6.6.2 11 7.2 14.8 11.9-1 .3-1.9.6-2.9.9-11.7 3.2-24.1 1.4-35-3.6 1.9-.1 4-.7 6.1-1.6zm-17.5-.7c.6.3 1.1.6 1.7.8 2.6 1.8 5.2 3.4 8 4.8 10.3 5.2 22.2 6.7 33.6 4.9 2.3-.4 4.5-.9 6.6-1.6-.9 5.1-1.7 10.3-3.4 15.1-.2.6-.5 1.2-.8 1.8-.6.2-1.3.5-1.9.7-5.1 1.5-10.4 1.1-15.4-.4.3-1 .5-2.1.5-3.1.3-4.1-1.6-10.1-6.5-10.3-3.6-.2-6.7 2.5-7.9 5.8-7-5.7-12.3-13.2-17.5-20.4 1 .7 2 1.3 3 1.9zm-7.7 12.2c-1.8-1.9-4-3.4-6.1-4.8-1.4-.9-2.8-1.9-4.1-3-1.6-1.3-4.9-6.3-.7-6.6 2.8-.2 5.2 4.9 6.7 6.9 2 2.5 4.3 4.6 6.9 6.4 3.4 2.4 8.6 5.3 13.2 5.4 1.8 1.7 3.6 3.3 5.5 4.7-.3 4.8 2 8.8 5.5 11.9-4.3 3.5-10.3 5.7-15.1 7.8-6 2.5-11.5 5.7-16.6 9.6 5-6.6 9.5-13.4 10.4-21.9.7-6.1-1.4-12-5.6-16.4zm23.6 10.6c2.6 1.8 5.2 3.3 8 4.5-.9 2-2.3 3.7-3.9 5.1-2.4-2.5-4.1-6.1-4.1-9.6zm.5-2.9c.2-.7.5-1.3.9-1.9 1.4-2.4 4.3-3.9 6.6-1.8 2 1.8 1.7 5.6 1.2 8 0 .2-.1.4-.1.6-3.2-1.3-6-3-8.6-4.9zm11 8.7c3.1 1 6.3 1.5 9.7 1.5 2.2 0 4.3-.3 6.3-.8-2 2.6-4.7 4.6-7.9 5.8-3.9 1.4-8.2.7-12-.7 1.7-1.7 3-3.7 3.9-5.8zM43.9 57.6c-2-3.2-5-5.8-7.1-8.9-2.8-4.1-1.5-9.1 1.9-12.4 3.7-3.6 9.4-1.5 13.1.9 4.4 2.9 7.6 7.7 10.7 11.8 3.1 4.1 6.6 8.4 10.4 12.4-1.1-.3-2.2-.7-3.3-1.1-3.6-1.6-6.5-4-9.3-6.8-3.1-3.1-6.8-12.3-12.5-10.9-6.3 1.5-3.8 8.5-.4 11.7 5.3 5 11.9 8.3 13.4 16.1 1.2 5.9-1.1 11.6-4.2 16.7.2-2.8.2-5.5-.2-8.2-1.1-7.1-5-15.5-11.5-19.4-.2-.6-.6-1.2-1-1.9zm-2.1 48.9c3.4-7.9 6.6-15.8 7.6-24.5.6-5.2 0-10.7-1.6-15.8 2.8 3.5 4.6 7.7 5.5 12.5 1 5.3.2 10.6-1.4 15.7-4 5.7-8 11.3-11.4 17.5-1.5 2.7-2.8 5.5-3.9 8.4 1.5-4.7 3.2-9.2 5.2-13.8zm-5 25.5c1.1-5.8 3.4-11.2 6.2-16.3.8-1.3 1.7-2.6 2.6-3.8 3.7-5.1 8.7-9.2 13.9-12.6 4.8-3.2 10.1-5.6 15.4-7.8 4.8-2 9.6-3.9 13.8-7.1 1.3 8.9-2.4 17.7-8.5 24.1-6.5 6.8-15 9.4-23.5 12.6-12.2 4.5-18.7 15-20.4 27.1-.1-1.4-.2-2.9-.3-4.2-.3-4.1.1-8.1.8-12zm4 56.3c-8.2-8.5-6.5-20.1-3.6-30.7 6.6 10.6 15.8 23.5 6.3 33.6-.8-.9-1.7-1.9-2.7-2.9zM35 392.2c-3.4-6.4-2.9-13.7 1.1-19.7.4-.6.2-1.2-.3-1.5 0-.1.1-.2.1-.4.4-24.6.1-49.2.1-73.8 0-24.2.3-48.4-.1-72.6.4-.3.6-.9.2-1.5-3.9-6-4.4-13.3-1.1-19.7 1.9-3.6 5.2-5.8 8.2-8.3l.6.9c3.2 5.2 2.6 11.8-.2 16.9 0 .1-.1.1-.1.2-.1.1-.2.3-.2.5-.9 13.8-.1 27.8-.1 41.7v41.7c0 27.7-.5 55.5.1 83.2v1.8c0 .2.1.4.2.6 0 .1.1.2.1.4 2.9 5.1 3.4 11.7.2 16.9l-.6.9c-3-2.4-6.3-4.6-8.2-8.2zm5.8 14.8c.9-1 1.8-1.9 2.7-2.9 9.5 10.1.3 23-6.3 33.6-2.8-10.6-4.6-22.2 3.6-30.7zm-4.9 44.4l.3-4.2c1.7 12.1 8.2 22.6 20.4 27.1 8.5 3.2 17.1 5.7 23.5 12.6 6.1 6.4 9.7 15.2 8.5 24.1-4.2-3.2-8.9-5.1-13.8-7.1-5.3-2.2-10.6-4.7-15.4-7.8-5.2-3.5-10.2-7.5-13.9-12.6-.9-1.2-1.8-2.5-2.6-3.8-2.8-5.1-5.1-10.6-6.2-16.3-.6-4-1-8-.8-12zm55.2 61.8c3.8-1.5 8.1-2.1 12-.7 3.2 1.1 5.9 3.2 7.9 5.8-2-.5-4.1-.8-6.3-.8-3.4 0-6.6.6-9.7 1.5-.9-2.2-2.2-4.1-3.9-5.8zm.3 18.2c-2.3 2.1-5.2.6-6.6-1.8-.4-.6-.6-1.3-.9-1.9 2.6-1.9 5.5-3.5 8.5-4.8.1.2.1.4.1.6.6 2.3.9 6.1-1.1 7.9zm.2-11.2c-2.8 1.2-5.5 2.7-8 4.5 0-3.5 1.7-7.1 4.1-9.6 1.6 1.5 2.9 3.2 3.9 5.1zm-10.2 6.1c-1.9 1.5-3.8 3.1-5.5 4.7-4.6.1-9.8 3-13.2 5.4-2.6 1.9-5 3.9-6.9 6.4-1.5 1.9-3.9 7.1-6.7 6.9-4.2-.3-.9-5.3.7-6.6 1.3-1.1 2.7-2.1 4.1-3 2.1-1.4 4.3-2.9 6.1-4.8 4.2-4.3 6.4-10.3 5.7-16.3-.9-8.5-5.4-15.3-10.4-21.9 5.1 3.9 10.7 7.1 16.6 9.6 4.8 2.1 10.7 4.2 15.1 7.8-3.6 3-6 7-5.6 11.8zm-39.6-37.6c-1.9-4.5-3.7-9.1-5.1-13.8 1.1 2.9 2.4 5.7 3.9 8.4 3.4 6.1 7.4 11.8 11.4 17.5 1.6 5.1 2.4 10.4 1.4 15.7-.9 4.9-2.7 9.1-5.5 12.5 1.6-5.1 2.2-10.7 1.6-15.8-1.1-8.6-4.4-16.5-7.7-24.5zm10.1 69.4c-3.7 2.4-9.4 4.5-13.1.9-3.4-3.3-4.7-8.3-1.9-12.4 2.1-3.2 5-5.7 7.1-8.9.4-.6.8-1.3 1.1-1.9 6.5-3.9 10.4-12.3 11.5-19.4.4-2.6.5-5.4.2-8.2 3 5.1 5.4 10.8 4.2 16.7-1.6 7.7-8.1 11.1-13.4 16.1-3.4 3.2-5.9 10.2.4 11.7 5.7 1.4 9.4-7.8 12.5-10.9 2.8-2.7 5.7-5.2 9.3-6.8 1.1-.5 2.2-.8 3.3-1.1-3.9 4-7.3 8.3-10.4 12.4-3.3 4.1-6.5 8.9-10.8 11.8zm50.1-3.6c-6.6.2-11.3-5.1-17-7.6-2-.9-4.1-1.5-6.2-1.7 10.9-4.9 23.4-6.7 35-3.6 1 .3 2 .6 2.9.9-3.7 4.7-8.1 11.8-14.7 12zm8.8-17.4c-11.4-1.8-23.3-.4-33.6 4.9-2.8 1.4-5.4 3.1-8 4.8-.6.3-1.1.5-1.7.8-1 .6-2 1.2-2.9 1.8 5.1-7.1 10.5-14.6 17.4-20.2 1.3 3.3 4.3 6 7.9 5.8 4.9-.2 6.9-6.2 6.5-10.3-.1-1.1-.3-2.1-.5-3.1 5-1.6 10.3-2 15.4-.4.6.2 1.3.4 1.9.7.3.6.5 1.2.8 1.8 1.8 4.8 2.6 9.9 3.4 15.1-2.1-.8-4.3-1.4-6.6-1.7zm23.2 24c-6.1-2.6-8.6-9.7-10-15.6v-.1c6.2 2.8 12.2 6.2 18.5 9 1.3.6 2.6 1.1 3.9 1.6-3.4 3.5-7.6 7.1-12.4 5.1zm15-7.9c-3.3-1.4-6.6-2.9-9.9-4.5-5.3-2.7-10.6-5.6-16.1-8-.9-5.2-1.6-10.6-3.1-15.6 9.9 6.3 17.4 16.7 26.5 23.8 1.3 1 2.7 2 4 2.8-.4.6-.9 1-1.4 1.5zm5.3 2.2c-.6-.2-1.2-.5-1.9-.8.4-.4.8-.7 1.3-1 3.6 1.9 7.5 3.2 11.7 3.7-3.7 0-7.3-.4-11.1-1.9zm252.3-4.7c-.3-.2-.6-.1-.7.1-66.2-.2-132.4 0-198.6 0h-17.8c-.2-.2-.5-.3-.8-.1-8.7 4.8-18.5 7.7-28.3 4.1-1.8-.7-3.5-1.4-5.1-2.3 2.1-1.4 4.5-2.4 7.2-3.2 5.1-1.4 10.5-2.1 15.8-2.8.2 0 .4-.2.4-.4 65.4.3 130.8 0 196.2 0h41.7c0 .2.2.4.4.4 5.3.6 10.7 1.4 15.8 2.8 2.7.7 5.1 1.8 7.2 3.2-1.6.9-3.3 1.6-5.1 2.3-9.8 3.6-19.6.7-28.3-4.1zm34.4 4.7c-3.8 1.5-7.4 1.9-11.1 1.9 4.2-.5 8.1-1.8 11.7-3.7.4.3.9.7 1.3 1-.7.3-1.3.6-1.9.8zm30.3-9.9c-1.3 6-3.9 13-10 15.6-4.8 2-9-1.6-12.4-5.1 1.3-.5 2.6-1 3.9-1.6 6.3-2.8 12.2-6.2 18.5-9v.1zm.9-4.7c-5.5 2.3-10.8 5.3-16.1 8-3.2 1.6-6.5 3.1-9.8 4.5-.5-.5-1-1-1.5-1.4 1.4-.9 2.7-1.8 4-2.8 9.2-7.1 16.6-17.5 26.5-23.8-1.5 4.9-2.2 10.3-3.1 15.5zm-17.4.3c-3.6 3.6-7.4 6.9-11.6 9.6-5.7-4-13.2-5.6-20.3-5.5-.1 0-.1-.1-.2-.1-66.4-.2-132.8 0-199.2 0h-47.8c-.2 0-.3.1-.4.2-7.9-.6-16.6.8-23.2 5.3-4.2-2.7-8-6-11.6-9.6-6.5-6.5-13.4-14.8-21.8-19.6-1.6-3.9-3.9-7.4-7.3-10.1-5.6-4.5-14.3-6.1-20.2-2 .9-15.1-9.5-28.1-23.4-33.8-8.3-3.3-17.6-5.1-23.1-12.9-3.7-5.4-5.5-11.5-6.1-17.9.3-.3.5-.7.4-1.2-.2-.6-.4-1.3-.6-1.9v-.9c6.4-10.2 16-21.8 10.3-33.9-.9-1.9-2.1-3.4-3.6-4.7 1.6-2.3 2.8-4.7 3.3-7.8.8-4.4-.2-9.1-2.6-12.9-.1-.2-.3-.3-.5-.4v-1.1c.6-27.7.1-55.5.1-83.2V255c0-13.5.7-27.2-.1-40.7.2-.1.3-.2.5-.4 2.4-3.8 3.4-8.5 2.6-12.9-.5-3.1-1.7-5.5-3.3-7.8 1.4-1.3 2.7-2.8 3.6-4.7 5.7-12.1-3.9-23.7-10.3-33.9v-.9c.2-.7.4-1.3.6-1.9.2-.5 0-1-.4-1.2.6-6.4 2.4-12.5 6.1-17.9 5.4-7.9 14.8-9.6 23.1-12.9 14-5.6 24.4-18.6 23.4-33.8 5.9 4.1 14.5 2.6 20.2-2 3.5-2.8 5.8-6.3 7.3-10.1 8.4-4.8 15.2-13.1 21.8-19.6 3.6-3.6 7.4-6.9 11.6-9.6 5.7 4 13.2 5.6 20.3 5.5.1 0 .1.1.2.1 66.4.2 132.8 0 199.2 0h47.8c.2 0 .3-.1.4-.2 7.9.6 16.6-.8 23.2-5.3 4.2 2.7 8 6 11.6 9.6 6.5 6.5 13.4 14.8 21.8 19.6 1.6 3.9 3.9 7.4 7.3 10.1 5.6 4.5 14.3 6.1 20.2 2-.9 15.1 9.5 28.1 23.4 33.8 8.3 3.3 17.6 5.1 23.1 12.9 3.7 5.4 5.5 11.5 6.1 17.9-.3.3-.5.7-.4 1.2.2.6.4 1.3.6 1.9v.9c-6.4 10.2-16 21.8-10.3 33.9.9 1.9 2.1 3.4 3.6 4.7-1.6 2.3-2.8 4.7-3.3 7.8-.8 4.4.2 9.1 2.6 12.9.2.3.4.5.7.5-.6 27.3-.1 54.6-.1 81.8 0 28.2-.3 56.4 0 84.7-.2.1-.5.2-.7.5-2.4 3.8-3.4 8.5-2.6 12.9.5 3.1 1.7 5.5 3.3 7.8-1.4 1.3-2.7 2.8-3.6 4.7-5.7 12.1 3.9 23.7 10.3 33.9v.9c-.2.7-.4 1.3-.6 1.9-.2.5 0 1 .4 1.2-.6 6.4-2.4 12.5-6.1 17.9-5.4 7.9-14.8 9.6-23.1 12.9-14 5.6-24.4 18.6-23.4 33.8-5.9-4.1-14.5-2.6-20.2 2-3.5 2.8-5.8 6.3-7.3 10.1-8.3 4.8-15.1 13.1-21.7 19.6zm55.4 5.8c-5.6 2.5-10.4 7.8-17 7.6-6.6-.2-11-7.2-14.8-11.9 1-.3 1.9-.6 2.9-.9 11.7-3.2 24.1-1.4 35 3.6-2 .1-4.1.7-6.1 1.6zm17.5.7c-.6-.3-1.1-.6-1.7-.8-2.6-1.8-5.2-3.4-8-4.8-10.3-5.2-22.2-6.7-33.6-4.9-2.3.4-4.5.9-6.6 1.6.9-5.1 1.7-10.3 3.4-15.1.2-.6.5-1.2.8-1.8.6-.2 1.3-.5 1.9-.7 5.1-1.5 10.4-1.1 15.4.4-.3 1-.5 2.1-.5 3.1-.3 4.1 1.6 10.1 6.5 10.3 3.6.2 6.7-2.5 7.9-5.8 6.9 5.6 12.2 13.1 17.4 20.2-.9-.5-1.9-1.1-2.9-1.7zm28.8 11.4c-3.7 3.6-9.4 1.5-13.1-.9-4.4-2.9-7.6-7.7-10.7-11.8-3.1-4.1-6.6-8.4-10.4-12.4 1.1.3 2.2.7 3.3 1.1 3.6 1.6 6.5 4 9.3 6.8 3.1 3.1 6.8 12.3 12.5 10.9 6.3-1.5 3.8-8.5.4-11.7-5.3-5-11.9-8.3-13.4-16.1-1.2-5.9 1.1-11.6 4.2-16.7-.2 2.8-.2 5.5.2 8.2 1.1 7.1 5 15.5 11.5 19.4.4.7.7 1.3 1.1 1.9 2 3.2 5 5.8 7.1 8.9 2.7 4.1 1.4 9.1-2 12.4z"/></svg>