<svg xmlns="http://www.w3.org/2000/svg" viewBox="0 0 595.3 595.3"><path d="M552.3 160.7c-4.8-11.6-12.7-17.8-24-22.6-4.6-2-10.1-3.4-15.2-2.5-2.5.4-7.6 1.6-9.4 4.1-.5-4.2-.9-8.6-2-12.7 1.1-.9 2.3-1.8 3.5-2.7 2.3-1.6 4.7-3 7.2-4.3 4.6-1.6 9.3-3 13.9-4.6 9.9-3.5 21.6-8.6 24.9-19.7 2-6.9 6.3-44-2.7-53.4-.2-.4-.5-.8-1.1-1.1-.1-.1-.3-.1-.4-.1-.8-.5-1.7-.9-2.8-1-9-2.8-18.8-2.7-28.3-2.7h-33.6c-11.2 0-22.4-.1-33.6 0-10.4.1-22-1.2-32.1 1.6H56.7c-9.9 0-18 8.1-18 18v483c0 9.9 8.1 18 18 18h471.9c9.9 0 18-8.1 18-18V205.6c2.9-1.6 5.1-4.3 6.7-7.7.9-1.8 1.4-3.7 1.8-5.5 3.3-9.7.7-23.1-2.8-31.7zM466.1 48.1c3 .6 5.9 1.3 8.8 2.4 7.8 2.9 14.6 6.9 20.2 13.1 10.4 11.4 14.8 29.1 6.5 43-8.3 13.9-19.6 25.6-27.4 39.8-6.3 11.3-13.5 24.9-6.7 37.7 1.8 3.3 4.1 6.4 6.7 9.3-6.8-3.5-12.3-9.5-14.3-17-2.6-10-.1-19.5 5.5-27.9 4.8-7.3 11.4-13.1 16.3-20.2 4.6-6.7 8.6-14.2 10.8-22.1 4.3-15.4.4-31.8-10.3-43.7-5.7-6.4-12.3-10.9-20-14.4h3.9zm10.4 134.1c.9 2.2 1.9 4.4 3.1 6.4-3.5-3.6-6.5-7.9-7.2-12.8-.8-5.5 1-10.7 3.3-15.6-1.8 7.2-2 14.7.8 22zm2.8-4.7c-2.3-11 1.1-22 6.6-31.6 2.9-5.1 6.4-9.7 10.4-13.8.9 9.4 4.3 18.9 3.3 28.5-1.1 10.7-6.6 18-11.5 26.7-.9 1-1.9 2-2.9 3-2.8-3.9-4.9-8.1-5.9-12.8zM467.7 61.4c6.1 4.2 11.7 9.1 15.3 15.5 10.6 18.7.8 37.5-9.5 53.7-8.1 12.7-21.7 23.7-19.5 40.6 1.6 12.2 8.5 21.8 18.9 26.6-14.6 5-32.6-1.2-37.9-16.9-2.7-8.1-3.3-17.8 1.5-25.3 4.6-7.2 11.7-11.9 18-17.4 12.1-10.6 21.5-24.4 24.1-40.5 2.3-13.2-2.1-26.5-10.9-36.3zm-2 9.3c9.7 15.5 6.5 33.4-3.4 48-.4.6-.9 1.2-1.3 1.8-3.2 2.5-6.2 5.4-9.4 7.5-2.5 1.6-5 3.2-7.4 4.9-2.6 1.4-5 3-7.3 4.4-5.5 3.5-10.8 7.5-15.5 12.1-6.4 6.2-12.7 13.5-16 22-.2-2.2-.2-4.5 0-6.8.8-8.3 2.1-16 6.1-23.4 7.7-14.4 19.7-25.4 32.8-34.9 9.6-6.9 21.3-14.6 20.6-28.1-.2-3.6-1.2-8.2-3-12.5 1.4 1.4 2.7 3.1 3.8 5zm-48.5 90.8c0 .1 0 .1-.1.2h-.1c.1-.1.2-.1.2-.2zm123.4 41.6c-.7.2-1.2.8-1.4 1.4h-.7v335.6c0 5.5-4.5 10-10 10H56.7c-5.5 0-10-4.5-10-10v-483c0-5.5 4.5-10 10-10h362.2c4 .9 8.2 1.2 12.4 1.3 7 1.8 13.9 4.5 19.9 8.3 2.5 3.1 5.6 5.8 7.3 9.5 4 9.3 3.3 19.5-4.7 26.5-10.7 9.4-23.5 15.5-33.4 26-8.9 9.4-16.7 20.9-19 33.9-1.3 6.9-.8 12.8.3 19.6.5 2.9.9 5.9 1.5 8.8-.3 3.7 0 7.2.2 11 .1 2.4-.2 6.2 1.2 8.3 3.3 5.3 9.5 4.2 15.1 4.3l25.9.6c3.2.1 6.6.4 9.9.4 1.4.1 2.9.1 4.5.1 2 .1 4 .1 6-.1 5.9-.7 10.7-2.5 15.1-5.1.3.1.6.1.9 0 5.4 3.9 11.5 6.8 17.7 8.1 11.2 2.4 25.7 1.5 33.1-8.7 5.4-7.4 5.6-23-5.7-25.6-8-1.9-16.7 3.9-15.5 12.7.3 1.8 3.1 1.3 3.1-.4.1-9.4 14.5-8.6 14.8.7.2 6.5-3.7 11.9-10 13.9-8.8 2.8-18.3 1.6-26.6-2.5-1.4-1.3-2.8-2.7-4.1-4.1 3.3-3.1 6.3-6.7 9.4-10.6 9.3-11.9 21.9-23.2 37.7-14.9 6.3 3.3 12 8.6 13.7 15.8 1.3 7.3-1.1 15.7-9 18.2z"/></svg>