<svg id="Layer_1" xmlns="http://www.w3.org/2000/svg" viewBox="0 0 595.3 595.3"><style>.st0{fill:#5c3716}</style><path class="st0" d="M308.7 185.4c-2 2.2-4 4.6-5.9 7.1-.6-.8-1.2-1.5-1.7-2.3-1.1-1.4-2.3-2.8-3.4-4.1 1.8-2.1 3.7-4.1 5.7-6 3.3-3.2 6.8-6 10.7-8.3 3.9-2.2 8.3-3.8 12.7-3.8 2.2 0 4.4.4 6.3 1.1 1.9.7 3.6 1.7 5.1 2.9 2.9 2.3 4.8 4.9 6.2 7.3 1.4 2.4 2.3 4.6 3 6.5 1.3 3.7 1.6 5.9 1.6 5.9s-.2-.5-.7-1.4c-.5-.9-1.2-2.3-2.2-3.9-1-1.6-2.3-3.6-3.9-5.5-1.7-2-3.8-4-6.3-5.5-1.3-.7-2.7-1.3-4.1-1.7-1.5-.3-3-.4-4.6-.2-3.1.4-6.4 1.9-9.5 4-3.2 2.1-6.2 4.9-9 7.9zm-41.5 41.9c2.7-.6 5.3-1.7 7.8-3.1 1.8-1.1 3.6-2.3 5.2-3.7.5-.4 1-.8 1.4-1.3-.3-.4-.6-.8-.9-1.1-.9-1.1-1.7-2.2-2.6-3.2-.6-.7-1.2-1.3-1.8-1.9-1.8 1.9-3.6 3.5-5.5 4.9-2.7 2-5.4 3.4-8 3.9-2.6.5-5.1 0-7.3-1s-3.9-2.4-5.3-3.7c-1.3-1.3-2.3-2.4-3-3.3-.6-.8-1-1.3-1-1.3s.1.6.4 1.6c.3 1 .8 2.5 1.8 4.3 1 1.8 2.4 3.9 4.8 5.8 1.2 1 2.6 1.8 4.3 2.5 1.7.6 3.6 1 5.6 1 1.5.1 2.8-.1 4.1-.4zm20.2-14.5l.3.3c.5-.6 1.1-1.3 1.6-1.9 1.4-1.7 2.8-3.5 4-5.3.7-.9 1.3-1.8 1.9-2.8l1.8-2.7c.2-.3.4-.6.6-.8-1-1.5-2-2.9-3.1-4.4l-2.1-2.7c-2.2 2.9-4.2 5.8-6.1 8.4-1.2 1.7-2.5 3.3-3.7 5-.3.4-.6.7-.9 1.1.9.7 1.7 1.5 2.5 2.3 1.2 1.1 2.2 2.3 3.2 3.5zm5.5 7.6l-1.3-1.9c-.4-.7-.9-1.3-1.3-2-.8-1.2-1.7-2.3-2.6-3.4-.9 1-1.8 2-2.8 3-1.1 1.1-2.2 2.1-3.3 3.1.6.7 1.1 1.5 1.7 2.3 1.6 2.3 3.6 5 5.5 7.5 1.1 1.4 2.3 2.7 3.5 4 .7-.7 1.4-1.4 2.1-2.2 1.1-1.2 2.2-2.5 3.2-3.9-.8-1-1.5-1.9-2.2-2.9-.9-1.1-1.7-2.3-2.5-3.6zM281.8 207c-.3-.3-.6-.5-.9-.8-1.2-1-2.5-1.8-3.8-2.6-2.7-1.5-5.7-2.5-8.7-2.5-1.5 0-2.9.4-4.2.9-1.2.5-2.3 1.2-3.1 1.9-1.7 1.5-2.6 3.1-3.3 4.4-.6 1.3-.9 2.4-1.1 3.1-.2.7-.2 1.1-.2 1.1s.3-.3.8-.9c.5-.5 1.3-1.3 2.3-2.1 1-.8 2.3-1.7 3.8-2.3 1.5-.6 3.1-.7 4.7-.3 1.6.4 3.3 1.4 5.1 2.7 1.2.9 2.3 2 3.5 3.3.8-.8 1.6-1.7 2.4-2.6.7-1 1.7-2.1 2.7-3.3zm45.8 21.2c-.4.6-.9 1.6-1.6 2.7-.7 1.1-1.7 2.4-2.9 3.7-1.2 1.3-2.7 2.7-4.4 3.6-.9.5-1.8.8-2.8 1-1 .2-1.9.2-2.9 0-2-.3-4.1-1.3-6.1-2.8-1.3-.9-2.6-2.1-3.8-3.3-1 1.1-2 2.1-3.1 3.1-.7.7-1.5 1.3-2.2 2 1.7 1.4 3.6 2.8 5.6 3.9 2.8 1.6 6.1 2.7 9.4 2.7 1.6 0 3.2-.3 4.7-.9 1.4-.6 2.7-1.3 3.7-2.2 2-1.7 3.3-3.7 4.3-5.4.9-1.8 1.5-3.4 1.9-4.7.7-2.3.9-3.8.9-4.1-.3 0-.5.3-.7.7zm-46.8-10c.3.4.6.8.9 1.1 1.1-1 2.3-2 3.3-3.1.9-1 1.9-2 2.8-3l-.3-.3c-1-1.2-2-2.4-3.1-3.5-.8-.8-1.7-1.6-2.5-2.3-1 1.2-2 2.4-2.9 3.5-.8.9-1.6 1.8-2.4 2.6.6.6 1.2 1.3 1.8 1.9.6.9 1.5 2 2.4 3.1zm16.8-32.1c-1.8-2.1-3.7-4.1-5.7-6-3.3-3.2-6.8-6-10.7-8.3-3.9-2.2-8.3-3.8-12.7-3.8-2.2 0-4.4.4-6.3 1.1-1.9.7-3.6 1.7-5.1 2.9-2.9 2.3-4.8 4.9-6.2 7.3-1.4 2.4-2.3 4.6-3 6.5-1.3 3.7-1.6 5.9-1.6 5.9s.2-.5.7-1.4c.5-.9 1.2-2.3 2.2-3.9 1-1.6 2.3-3.6 3.9-5.5 1.7-2 3.8-4 6.3-5.5 1.3-.7 2.7-1.3 4.1-1.7 1.5-.3 3-.4 4.6-.2 3.1.4 6.4 1.9 9.5 4 3.1 2.1 6 4.9 8.8 7.9 2 2.2 4 4.6 5.9 7.1.6-.8 1.2-1.5 1.7-2.3 1.3-1.4 2.5-2.7 3.6-4.1zm0 13.5c.2.3.4.5.6.8l1.8 2.7c.6.9 1.3 1.9 1.9 2.8 1.3 1.8 2.6 3.6 4 5.3.5.7 1.1 1.3 1.6 1.9l.3-.3c1-1.2 2-2.4 3.1-3.5.8-.8 1.7-1.6 2.5-2.3-.3-.4-.6-.7-.9-1.1-1.2-1.6-2.5-3.3-3.7-5-1.9-2.6-3.9-5.6-6.1-8.4l-2.1 2.7c-.9 1.5-1.9 2.9-3 4.4zm16.9 18.6c-.3.4-.6.8-.9 1.1.5.4 1 .9 1.4 1.3 1.6 1.4 3.4 2.6 5.2 3.7 2.4 1.4 5.1 2.5 7.8 3.1v-.1.1c1.3.3 2.6.4 3.9.4 2 0 3.9-.4 5.6-1 1.7-.6 3.1-1.5 4.3-2.5 2.4-1.9 3.8-4 4.8-5.8 1-1.8 1.5-3.3 1.8-4.3.3-1 .4-1.6.4-1.6s-.3.5-1 1.3c-.6.8-1.6 2-3 3.3-1.4 1.3-3.1 2.7-5.3 3.7-2.1 1-4.7 1.5-7.3 1-2.6-.5-5.3-1.8-8-3.9-1.9-1.4-3.7-3.1-5.5-4.9-.6.6-1.2 1.3-1.8 1.9-.7 1-1.5 2.1-2.4 3.2zm-16.9-32.1c-1.2 1.4-2.3 2.7-3.4 4.1-.6.7-1.2 1.5-1.7 2.3l2.1 2.7c1.1 1.5 2.1 2.9 3.1 4.4 1-1.5 2-2.9 3.1-4.4l2.1-2.7c-.6-.8-1.2-1.5-1.7-2.3-1.2-1.4-2.4-2.7-3.6-4.1zm30.5 41.2c0 .1 0 .1 0 0zm-9.2-14.2c1.2-1.2 2.3-2.3 3.5-3.3 1.7-1.4 3.5-2.4 5.1-2.7 1.6-.4 3.2-.3 4.7.3s2.7 1.5 3.8 2.3c1 .8 1.8 1.6 2.3 2.1.5.5.8.9.8.9s0-.4-.2-1.1c-.2-.7-.5-1.8-1.1-3.1-.6-1.3-1.6-2.9-3.3-4.4-.8-.7-1.9-1.4-3.1-1.9-1.2-.5-2.7-.8-4.2-.9-3-.1-6.1.9-8.7 2.5-1.3.8-2.6 1.6-3.8 2.6-.3.3-.6.5-.9.8 1 1.2 2 2.4 2.9 3.5.6.7 1.4 1.5 2.2 2.4zm-15.3 5.5l-1.3 1.9c-.8 1.2-1.7 2.4-2.5 3.6-.7 1-1.5 2-2.2 2.9 1 1.3 2.1 2.6 3.2 3.9.7.8 1.4 1.5 2.1 2.2 1.2-1.3 2.3-2.6 3.5-4 2-2.5 3.9-5.2 5.5-7.5.6-.8 1.1-1.5 1.7-2.3-1.1-1-2.3-2-3.3-3.1-.9-1-1.9-2-2.8-3-.9 1.1-1.8 2.3-2.6 3.4-.4.6-.8 1.3-1.3 2zm-11.3 14.5c-1.2 1.2-2.5 2.4-3.8 3.3-2 1.5-4.1 2.5-6.1 2.8-1 .2-2 .1-2.9 0-1-.2-1.9-.5-2.8-1-1.7-.9-3.2-2.3-4.4-3.6-1.2-1.3-2.2-2.6-2.9-3.7-.8-1.1-1.3-2-1.6-2.7-.3-.5-.4-.8-.5-.9 0 .4.2 1.8.9 4.1.4 1.3 1 2.9 1.9 4.7 1 1.7 2.3 3.7 4.3 5.4 1 .9 2.3 1.6 3.7 2.2 1.4.6 3 .9 4.7.9 3.3.1 6.6-1.1 9.4-2.7 2-1.1 3.8-2.4 5.6-3.9-.8-.6-1.5-1.3-2.2-2-1.3-.8-2.3-1.8-3.3-2.9zm-25.1-5.8zm35.7 5.8c-.7-.7-1.4-1.4-2.1-2.2-1.1-1.2-2.2-2.5-3.2-3.9-1 1.3-2.1 2.6-3.2 3.9-.7.8-1.4 1.5-2.1 2.2 1 1.1 2 2.1 3.1 3.1.7.7 1.5 1.3 2.2 2 .8-.6 1.5-1.3 2.2-2 1.1-1 2.2-2 3.1-3.1zm4.9-20.3l-.3.3c.9 1 1.8 2 2.8 3 1.1 1.1 2.2 2.1 3.3 3.1.3-.4.6-.8.9-1.1.9-1.1 1.7-2.2 2.6-3.2.6-.7 1.2-1.3 1.8-1.9-.8-.8-1.6-1.7-2.4-2.6-1-1.1-2-2.3-2.9-3.5-.9.7-1.7 1.5-2.5 2.3-1.2 1.2-2.3 2.4-3.3 3.6zm-4.6-66c0-10.5-5.5-18.9-5.5-18.9s-5.5 8.5-5.5 18.9c0 10.5 5.5 18.9 5.5 18.9s5.5-8.5 5.5-18.9zM293 172.4c0 2.5 2.1 4.6 4.6 4.6 2.5 0 4.6-2.1 4.6-4.6 0-2.5-2.1-4.6-4.6-4.6-2.5 0-4.6 2.1-4.6 4.6zm140.1 31.7S416.2 193 395.3 193s-37.8 11.1-37.8 11.1 16.9 11.1 37.8 11.1c20.9-.1 37.8-11.1 37.8-11.1zm24 0c4-3.1 7.8-6.3 11.5-9.2 4.8-3.7 9.6-7.1 14.5-10.2 4.8-3 9.7-5.7 14.4-7.8 4.8-2.1 9.4-3.7 13.8-4.6 4.4-.9 8.6-1.2 12.2-1 3.7.3 6.8 1 9.3 2 .8.3 1.6.7 2.3 1 1.5.3 3 1 4.2 2.2.3.3.5.6.7.9l.1.1s-.4-.7-1.5-1.8c-1-1.1-2.7-2.6-5.2-4-2.4-1.4-5.7-2.8-9.6-3.7-3.9-.8-8.5-1.1-13.4-.7-4.9.5-10.2 1.7-15.5 3.5-5.3 1.8-10.7 4.3-15.9 7.3-.7.4-1.3.7-2 1.1-.7.4-1.3.8-2 1.2-1.3.8-2.7 1.6-3.9 2.5-1.3.9-2.6 1.7-3.9 2.6-1.3.9-2.5 1.8-3.8 2.8l-1.9 1.4-1.9 1.5c-1.2 1-2.5 1.9-3.7 2.9-2.2 1.7-4.2 3.3-6.3 4.9 1.4.9 2.7 1.8 4 2.8 1.3.6 2.4 1.4 3.5 2.3zm-15.1 0c-2.8 1.8-5.7 3.4-8.6 5-5.3 2.7-10.7 5-16.1 6.6-5.4 1.7-10.7 2.7-15.9 3.2-5.1.5-10.1.5-14.6.1s-8.7-1.2-12.3-2.2c-3.6-1-6.7-2.1-9.3-3.1-2.5-1-4.5-2-5.8-2.7-1.3-.7-2-1.1-2-1.1s.6.6 1.7 1.5c1.2.9 2.9 2.3 5.2 3.8 2.4 1.5 5.3 3.2 9 4.7 3.6 1.5 7.8 3 12.6 4s10.1 1.6 15.7 1.5c5.6-.1 11.6-.8 17.6-2.4 3-.7 6-1.7 8.9-2.8 3-1.1 5.9-2.3 8.8-3.7 4.3-2.1 8.5-4.5 12.6-7.2-.3-.2-.6-.5-1-.7-1.9-1.6-4.2-3.1-6.5-4.5zm92.8 30c-.6.3-1.2.6-1.9.8-2.5.9-5.7 1.7-9.3 2-3.7.2-7.8-.1-12.2-1-4.4-.9-9.1-2.5-13.8-4.6-4.8-2.1-9.6-4.8-14.4-7.8-4.8-3.1-9.7-6.5-14.5-10.2-3.8-2.9-7.5-6.1-11.5-9.2-1.1.8-2.2 1.7-3.3 2.5-1.3.9-2.7 1.9-4 2.8 2.1 1.5 4.2 3.1 6.3 4.9 1.2 1 2.5 1.9 3.7 2.9l1.9 1.5 1.9 1.4c1.3.9 2.5 1.9 3.8 2.8 1.3.9 2.6 1.7 3.9 2.6 1.3.9 2.6 1.6 3.9 2.5.7.4 1.3.8 2 1.2.7.4 1.3.7 2 1.1 5.3 3 10.6 5.4 15.9 7.3 5.3 1.8 10.5 3 15.5 3.5 4.9.5 9.5.2 13.4-.7 3.9-.8 7.2-2.2 9.6-3.7 2.5-1.4 4.1-2.9 5.2-4 .3-.3.5-.5.7-.8l-.1.1c-1.4 1.1-3 1.9-4.7 2.1zm-85.1-35.3c-4.1-2.7-8.3-5.1-12.6-7.2-2.9-1.4-5.8-2.7-8.8-3.7-3-1.1-6-2-8.9-2.8-6-1.5-11.9-2.3-17.6-2.4-5.6-.1-11 .5-15.7 1.5-4.8 1-9 2.4-12.6 4-3.6 1.5-6.6 3.2-9 4.7-2.4 1.5-4.1 2.8-5.2 3.8-1.1.9-1.7 1.5-1.7 1.5s.7-.4 2-1.1c1.3-.7 3.2-1.6 5.8-2.7 2.5-1 5.6-2.1 9.3-3.1 3.6-1 7.8-1.7 12.3-2.2 4.5-.4 9.5-.5 14.6.1 5.1.5 10.5 1.6 15.9 3.2 5.4 1.7 10.8 3.9 16.1 6.6 2.9 1.5 5.8 3.2 8.6 5 2.3-1.4 4.5-2.9 6.8-4.5.1-.2.4-.4.7-.7zm7.4 5.3c-1.1-.8-2.2-1.7-3.3-2.5-1.3-.9-2.7-1.9-4-2.8-.3.2-.6.5-1 .7-2.2 1.6-4.5 3.1-6.8 4.5 2.3 1.4 4.5 2.9 6.8 4.5.3.2.6.5 1 .7 1.4-.9 2.7-1.8 4-2.8 1.1-.7 2.2-1.5 3.3-2.3zm78.1-29.9c-2.6-.5-5.4.2-7.4 2.2-3.2 3.2-3.2 8.4 0 11.6 3.2 3.2 8.4 3.2 11.6 0 2.9-2.9 3.2-7.5.7-10.7-.2-.2-.8-.7-1.7-1.3-.7-.5-1.8-1.2-3.2-1.8zm0 0c1.4.6 2.5 1.3 3.3 1.8.9.6 1.4 1.1 1.7 1.3-.2-.3-.5-.6-.7-.9-1.3-1.2-2.8-1.9-4.3-2.2zm-7.4 46.1c-3.2 3.2-3.2 8.4 0 11.6 1.9 1.9 4.5 2.7 7 2.3 1.5-.7 2.8-1.4 3.6-2 1.2-.8 1.8-1.4 1.8-1.4s-.2.4-.8 1c3.1-3.2 3-8.3-.1-11.4-3.1-3.3-8.3-3.3-11.5-.1zm10.7 11.8c-.9.6-2.1 1.3-3.6 2 1.7-.3 3.3-1 4.6-2.3l.1-.1c.5-.6.8-1 .8-1s-.7.6-1.9 1.4zm-376.4-28s16.9 11.1 37.8 11.1 37.8-11.1 37.8-11.1S220.9 193 200 193c-20.9 0-37.9 11.1-37.9 11.1zm-16.5 5.2c4.1 2.7 8.3 5.1 12.6 7.2 2.9 1.4 5.8 2.7 8.8 3.7 3 1.1 6 2 8.9 2.8 6 1.5 11.9 2.3 17.6 2.4 5.6.1 11-.5 15.7-1.5 4.8-1 9-2.4 12.6-4 3.6-1.5 6.6-3.2 9-4.7 2.4-1.5 4.1-2.8 5.2-3.8 1.1-.9 1.7-1.5 1.7-1.5s-.7.4-2 1.1c-1.3.7-3.2 1.6-5.8 2.7-2.5 1-5.6 2.1-9.3 3.1-3.6 1-7.8 1.7-12.3 2.2-4.5.4-9.5.5-14.6-.1-5.1-.5-10.5-1.6-15.9-3.2-5.4-1.7-10.8-3.9-16.1-6.6-2.9-1.5-5.8-3.2-8.6-5-2.3 1.4-4.5 2.9-6.8 4.5-.1.2-.4.5-.7.7zm0-10.5c-2.1-1.5-4.2-3.1-6.3-4.9-1.2-1-2.5-1.9-3.7-2.9l-1.9-1.5-1.9-1.4c-1.3-.9-2.5-1.9-3.8-2.8-1.3-.9-2.6-1.7-3.9-2.6-1.3-.9-2.6-1.6-3.9-2.5-.7-.4-1.3-.8-2-1.2-.7-.4-1.3-.7-2-1.1-5.3-3-10.6-5.4-15.9-7.3-5.3-1.8-10.5-3-15.5-3.5-4.9-.5-9.5-.2-13.4.7-3.9.8-7.2 2.2-9.6 3.7-2.5 1.4-4.1 2.9-5.2 4-1 1.1-1.5 1.8-1.5 1.8l.1-.1c.2-.3.5-.6.7-.9 1.2-1.2 2.6-1.9 4.2-2.2.7-.3 1.5-.7 2.3-1 2.5-.9 5.7-1.7 9.3-2 3.7-.2 7.8.1 12.2 1 4.4.9 9.1 2.5 13.8 4.6 4.8 2.1 9.6 4.8 14.4 7.8 4.8 3.1 9.7 6.5 14.5 10.2 3.8 2.9 7.5 6.1 11.5 9.2 1.1-.8 2.2-1.7 3.3-2.5 1.4-.7 2.8-1.7 4.2-2.6zm7.7 5.3c2.8-1.8 5.7-3.4 8.6-5 5.3-2.7 10.7-5 16.1-6.6 5.4-1.7 10.7-2.7 15.9-3.2 5.1-.5 10.1-.5 14.6-.1s8.7 1.2 12.3 2.2c3.6 1 6.7 2.1 9.3 3.1 2.5 1 4.5 2 5.8 2.7 1.3.7 2 1.1 2 1.1s-.6-.6-1.7-1.5c-1.2-.9-2.9-2.3-5.2-3.8-2.4-1.5-5.3-3.2-9-4.7-3.6-1.5-7.8-3-12.6-4s-10.1-1.6-15.7-1.5c-5.6.1-11.6.8-17.6 2.4-3 .7-6 1.7-8.9 2.8-3 1.1-5.9 2.3-8.8 3.7-4.3 2.1-8.5 4.5-12.6 7.2.3.2.6.5 1 .7 1.9 1.5 4.2 3 6.5 4.5zm-97.5 27.6c.2.2.4.5.7.8 1 1.1 2.7 2.6 5.2 4 2.4 1.4 5.7 2.8 9.6 3.7 3.9.8 8.5 1.1 13.4.7 4.9-.5 10.2-1.7 15.5-3.5 5.3-1.8 10.7-4.3 15.9-7.3.7-.4 1.3-.7 2-1.1.7-.4 1.3-.8 2-1.2 1.3-.8 2.7-1.6 3.9-2.5 1.3-.9 2.6-1.7 3.9-2.6 1.3-.9 2.5-1.8 3.8-2.8l1.9-1.4 1.9-1.5c1.2-1 2.5-1.9 3.7-2.9 2.2-1.7 4.2-3.3 6.3-4.9-1.4-.9-2.7-1.8-4-2.8-1.1-.8-2.2-1.6-3.3-2.5-4 3.1-7.8 6.3-11.5 9.2-4.8 3.7-9.6 7.1-14.5 10.2-4.8 3-9.7 5.7-14.4 7.8-4.8 2.1-9.4 3.7-13.8 4.6-4.4.9-8.5 1.2-12.2 1-3.7-.3-6.8-1-9.3-2-.7-.3-1.3-.5-1.9-.8-1.7-.3-3.3-1-4.6-2.3-.1.2-.2.1-.2.1zm89.8-22.4c.3-.2.6-.5 1-.7 2.2-1.6 4.5-3.1 6.8-4.5-2.3-1.4-4.5-2.9-6.8-4.5-.3-.2-.6-.5-1-.7-1.4.9-2.7 1.8-4 2.8-1.1.8-2.2 1.6-3.3 2.5 1.1.8 2.2 1.7 3.3 2.5 1.2.8 2.6 1.7 4 2.6zm-90.4-32c-2.4 3.2-2.2 7.8.7 10.7 3.2 3.2 8.4 3.2 11.6 0 3.2-3.2 3.2-8.4 0-11.6-2-2-4.8-2.7-7.4-2.2-1.4.6-2.5 1.3-3.3 1.8-.9.6-1.4 1.1-1.6 1.3zm0 0c.2-.2.8-.7 1.7-1.3.8-.6 1.9-1.2 3.3-1.8-1.5.3-3 1-4.2 2.2-.4.3-.6.6-.8.9zm12.3 54.5c3.2-3.2 3.2-8.4 0-11.6-3.2-3.2-8.4-3.2-11.6 0-3.2 3.2-3.2 8.2-.1 11.4-.5-.6-.8-1-.8-1s.6.5 1.8 1.4c.9.6 2.1 1.3 3.6 2 2.5.5 5.2-.3 7.1-2.2zM55 230.7s.2.4.8 1l.1.1c1.3 1.3 2.9 2 4.6 2.3-1.5-.7-2.8-1.4-3.6-2-1.3-.8-1.9-1.4-1.9-1.4zm269.4 146.6c2.7-2 5.4-3.4 8-3.9 2.6-.5 5.1 0 7.3 1s3.9 2.4 5.3 3.7c1.3 1.3 2.3 2.4 3 3.3.6.8 1 1.3 1 1.3s-.1-.6-.4-1.6c-.3-1-.8-2.5-1.8-4.3-1-1.8-2.4-3.9-4.8-5.8-1.2-1-2.6-1.8-4.3-2.5-1.7-.6-3.6-1-5.6-1-1.3 0-2.6.2-3.9.4-2.7.6-5.3 1.7-7.8 3.1-1.8 1.1-3.6 2.3-5.2 3.7-.5.4-1 .8-1.4 1.3.3.4.6.8.9 1.1.9 1.1 1.7 2.2 2.6 3.2.6.7 1.2 1.3 1.8 1.9 1.6-1.8 3.4-3.5 5.3-4.9zm-16.6 5.2l-.3-.3c-.5.6-1.1 1.3-1.6 1.9-1.4 1.7-2.8 3.5-4 5.3-.7.9-1.3 1.8-1.9 2.8l-1.8 2.7c-.2.3-.4.6-.6.8 1 1.5 2 2.9 3.1 4.4l2.1 2.7c2.2-2.9 4.2-5.8 6.1-8.4 1.2-1.7 2.5-3.3 3.7-5 .3-.4.6-.7.9-1.1-.9-.7-1.7-1.5-2.5-2.3-1.1-1.1-2.2-2.3-3.2-3.5zm-15.3 20.3c-1.9 2.5-3.9 4.8-5.9 7.1-2.8 3-5.7 5.8-8.8 7.9-3.1 2.2-6.3 3.6-9.5 4-1.6.2-3.1.1-4.6-.2-1.5-.3-2.9-.9-4.1-1.7-2.6-1.5-4.7-3.5-6.3-5.5-1.7-2-3-3.9-3.9-5.5-1-1.6-1.7-3-2.2-3.9-.5-.9-.7-1.4-.7-1.4s.3 2.2 1.6 5.9c.7 1.8 1.6 4.1 3 6.5 1.4 2.4 3.3 5 6.2 7.3 1.4 1.1 3.1 2.1 5.1 2.9 1.9.7 4.1 1.1 6.3 1.1 4.4 0 8.8-1.6 12.7-3.8 3.9-2.3 7.4-5.1 10.7-8.3 2-1.9 3.9-3.9 5.7-6-1.2-1.4-2.3-2.7-3.4-4.1-.8-.8-1.4-1.5-1.9-2.3zm21-14.5c.3.3.6.5.9.8 1.2 1 2.5 1.8 3.8 2.6 2.7 1.5 5.7 2.5 8.7 2.5 1.5 0 2.9-.4 4.2-.9 1.2-.5 2.3-1.2 3.1-1.9 1.7-1.5 2.6-3.1 3.3-4.4.6-1.3.9-2.4 1.1-3.1.2-.7.2-1.1.2-1.1s-.3.3-.8.9c-.5.5-1.3 1.3-2.3 2.1-1 .8-2.3 1.7-3.8 2.3-1.5.6-3.1.7-4.7.3-1.6-.4-3.3-1.4-5.1-2.7-1.2-.9-2.3-2-3.5-3.3-.8.8-1.6 1.7-2.4 2.6-.7.9-1.7 2.1-2.7 3.3zM267.7 367c.4-.6.9-1.6 1.6-2.7.7-1.1 1.7-2.4 2.9-3.7 1.2-1.3 2.7-2.7 4.4-3.6.9-.5 1.8-.8 2.8-1 1-.2 1.9-.2 2.9 0 2 .3 4.1 1.3 6.1 2.8 1.3.9 2.6 2.1 3.8 3.3 1-1.1 2-2.1 3.1-3.1.7-.7 1.5-1.3 2.2-2-1.7-1.4-3.6-2.8-5.6-3.9-2.8-1.6-6.1-2.7-9.4-2.7-1.6 0-3.2.3-4.7.9-1.4.6-2.7 1.3-3.7 2.2-2 1.7-3.3 3.7-4.3 5.4-.9 1.8-1.5 3.4-1.9 4.7-.7 2.3-.9 3.8-.9 4.1.3.1.4-.2.7-.7zm38.7-.8c-1.1-1.4-2.3-2.7-3.5-4-.7.7-1.4 1.4-2.1 2.2-1.1 1.2-2.2 2.5-3.2 3.9.8 1 1.5 1.9 2.2 2.9.9 1.2 1.7 2.4 2.5 3.6l1.3 1.9c.4.7.9 1.3 1.3 2 .8 1.2 1.7 2.3 2.6 3.4.9-1 1.8-2 2.8-3 1.1-1.1 2.2-2.1 3.3-3.1-.6-.7-1.1-1.5-1.7-2.3-1.6-2.3-3.5-5-5.5-7.5zm8.1 10.9c-.3-.4-.6-.8-.9-1.1-1.1 1-2.3 2-3.3 3.1-.9 1-1.9 2-2.8 3l.3.3c1 1.2 2 2.4 3.1 3.5.8.8 1.7 1.6 2.5 2.3 1-1.2 2-2.4 2.9-3.5.8-.9 1.6-1.8 2.4-2.6-.6-.6-1.2-1.3-1.8-1.9-.7-.9-1.5-2-2.4-3.1zm-16.9 18.6c-.2-.3-.4-.5-.6-.8l-1.8-2.7c-.6-.9-1.3-1.9-1.9-2.8-1.3-1.8-2.6-3.6-4-5.3-.5-.7-1.1-1.3-1.6-1.9l-.3.3c-1 1.2-2 2.4-3.1 3.5-.8.8-1.7 1.6-2.5 2.3.3.4.6.7.9 1.1 1.2 1.6 2.5 3.3 3.7 5 1.9 2.6 3.9 5.6 6.1 8.4l2.1-2.7c1-1.5 2-3 3-4.4zm0 13.5c1.8 2.1 3.7 4.1 5.7 6 3.3 3.2 6.8 6 10.7 8.3 3.9 2.2 8.3 3.8 12.7 3.8 2.2 0 4.4-.4 6.3-1.1 1.9-.7 3.6-1.7 5.1-2.9 2.9-2.3 4.8-4.9 6.2-7.3 1.4-2.4 2.3-4.6 3-6.5 1.3-3.7 1.6-5.9 1.6-5.9s-.2.5-.7 1.4c-.5.9-1.2 2.3-2.2 3.9-1 1.6-2.3 3.6-3.9 5.5-1.7 2-3.8 4-6.3 5.5-1.3.7-2.7 1.3-4.1 1.7-1.5.3-3 .4-4.6.2-3.1-.4-6.4-1.9-9.5-4-3.1-2.1-6-4.9-8.8-7.9-2-2.2-4-4.6-5.9-7.1-.6.8-1.2 1.5-1.7 2.3-1.2 1.4-2.4 2.7-3.6 4.1zm-16.8-32.1c.3-.4.6-.8.9-1.1-.5-.4-1-.9-1.4-1.3-1.6-1.4-3.4-2.6-5.2-3.7-2.4-1.4-5.1-2.5-7.8-3.1-1.3-.3-2.6-.4-3.9-.4-2 0-3.9.4-5.6 1-1.7.6-3.1 1.5-4.3 2.5-2.4 1.9-3.8 4-4.8 5.8-1 1.8-1.5 3.3-1.8 4.3-.3 1-.4 1.6-.4 1.6s.3-.5 1-1.3c.6-.8 1.6-2 3-3.3 1.4-1.3 3.1-2.7 5.3-3.7 2.1-1 4.7-1.5 7.3-1 2.6.5 5.3 1.8 8 3.9 1.9 1.4 3.7 3.1 5.5 4.9.6-.6 1.2-1.3 1.8-1.9.6-1 1.5-2.1 2.4-3.2zm16.8 18.6c-1 1.5-2 2.9-3.1 4.4l-2.1 2.7c.6.8 1.2 1.5 1.7 2.3 1.1 1.4 2.3 2.8 3.4 4.1 1.2-1.4 2.3-2.7 3.4-4.1.6-.7 1.2-1.5 1.7-2.3l-2.1-2.7c-.8-1.5-1.8-3-2.9-4.4zm-30.4-27.8c0 .1 0 .1 0 0 0 .1 0 .1 0 0zm9.2 14.3c-1.2 1.2-2.3 2.3-3.5 3.3-1.7 1.4-3.5 2.4-5.1 2.7-1.6.4-3.2.3-4.7-.3s-2.7-1.5-3.8-2.3c-1-.8-1.8-1.6-2.3-2.1-.5-.5-.8-.9-.8-.9s0 .4.2 1.1c.2.7.5 1.8 1.1 3.1.6 1.3 1.6 2.9 3.3 4.4.8.7 1.9 1.4 3.1 1.9 1.2.5 2.7.8 4.2.9 3 .1 6.1-.9 8.7-2.5 1.3-.8 2.6-1.6 3.8-2.6.3-.3.6-.5.9-.8-1-1.2-2-2.4-2.9-3.5-.6-.7-1.4-1.5-2.2-2.4zm15.2-5.5l1.3-1.9c.8-1.2 1.7-2.4 2.5-3.6.7-1 1.5-2 2.2-2.9-1-1.3-2.1-2.6-3.2-3.9-.7-.8-1.4-1.5-2.1-2.2-1.2 1.3-2.3 2.6-3.5 4-2 2.5-3.9 5.2-5.5 7.5-.6.8-1.1 1.5-1.7 2.3 1.1 1 2.3 2 3.3 3.1.9 1 1.9 2 2.8 3 .9-1.1 1.8-2.3 2.6-3.4.5-.7.9-1.3 1.3-2zm11.3-14.5c1.2-1.2 2.5-2.4 3.8-3.3 2-1.5 4.1-2.5 6.1-2.8 1-.2 2-.1 2.9 0 1 .2 1.9.5 2.8 1 1.7.9 3.2 2.3 4.4 3.6 1.2 1.3 2.2 2.6 2.9 3.7.8 1.1 1.3 2 1.6 2.7.3.5.4.8.5.9 0-.4-.2-1.8-.9-4.1-.4-1.3-1-2.9-1.9-4.7-1-1.7-2.3-3.7-4.3-5.4-1-.9-2.3-1.6-3.7-2.2-1.4-.6-3-.9-4.7-.9-3.3-.1-6.6 1.1-9.4 2.7-2 1.1-3.8 2.4-5.6 3.9.8.6 1.5 1.3 2.2 2 1.3.8 2.4 1.8 3.3 2.9zm25.2 5.8v-.1.1zm-35.8-5.8c.7.7 1.4 1.4 2.1 2.2 1.1 1.2 2.2 2.5 3.2 3.9 1-1.3 2.1-2.6 3.2-3.9.7-.8 1.4-1.5 2.1-2.2-1-1.1-2-2.1-3.1-3.1-.7-.7-1.5-1.3-2.2-2-.8.6-1.5 1.3-2.2 2-1.1 1-2.1 2-3.1 3.1zm-4.9 20.3l.3-.3c-.9-1-1.8-2-2.8-3-1.1-1.1-2.2-2.1-3.3-3.1-.3.4-.6.8-.9 1.1-.9 1.1-1.7 2.2-2.6 3.2-.6.7-1.2 1.3-1.8 1.9.8.8 1.6 1.7 2.4 2.6 1 1.1 2 2.3 2.9 3.5.9-.7 1.7-1.5 2.5-2.3 1.3-1.2 2.3-2.4 3.3-3.6zm4.7 66c0 10.5 5.5 18.9 5.5 18.9s5.5-8.5 5.5-18.9c0-10.5-5.5-18.9-5.5-18.9s-5.5 8.5-5.5 18.9zm10.1-25.6c0-2.5-2.1-4.6-4.6-4.6-2.5 0-4.6 2.1-4.6 4.6s2.1 4.6 4.6 4.6c2.6 0 4.6-2.1 4.6-4.6zm-140.1-31.7s16.9 11.1 37.8 11.1 37.8-11.1 37.8-11.1-16.9-11.1-37.8-11.1c-20.8.1-37.8 11.1-37.8 11.1zm-23.9 0c-4 3.1-7.8 6.3-11.5 9.2-4.8 3.7-9.6 7.1-14.5 10.2-4.8 3-9.7 5.7-14.4 7.8-4.8 2.1-9.4 3.7-13.8 4.6-4.4.9-8.5 1.2-12.2 1-3.7-.3-6.8-1-9.3-2-.8-.3-1.6-.7-2.3-1-1.5-.3-3-1-4.2-2.2-.3-.3-.5-.6-.7-.9l-.1-.1s.4.7 1.5 1.8c1 1.1 2.7 2.6 5.2 4 2.4 1.4 5.7 2.8 9.6 3.7 3.9.8 8.5 1.1 13.4.7 4.9-.5 10.2-1.7 15.5-3.5 5.3-1.8 10.7-4.3 15.9-7.3.7-.4 1.3-.7 2-1.1.7-.4 1.3-.8 2-1.2 1.3-.8 2.7-1.6 3.9-2.5 1.3-.9 2.6-1.7 3.9-2.6 1.3-.9 2.5-1.8 3.8-2.8l1.9-1.4 1.9-1.5c1.2-1 2.5-1.9 3.7-2.9 2.2-1.7 4.2-3.3 6.3-4.9-1.4-.9-2.7-1.8-4-2.8-1.3-.6-2.4-1.5-3.5-2.3zm15.1 0c2.8-1.8 5.7-3.4 8.6-5 5.3-2.7 10.7-5 16.1-6.6 5.4-1.7 10.7-2.7 15.9-3.2 5.1-.5 10.1-.5 14.6-.1s8.7 1.2 12.3 2.2c3.6 1 6.7 2.1 9.3 3.1 2.5 1 4.5 2 5.8 2.7 1.3.7 2 1.1 2 1.1s-.6-.6-1.7-1.5c-1.2-.9-2.9-2.3-5.2-3.8-2.4-1.5-5.3-3.2-9-4.7-3.6-1.5-7.8-3-12.6-4s-10.1-1.6-15.7-1.5c-5.6.1-11.6.8-17.6 2.4-3 .7-6 1.7-8.9 2.8-3 1.1-5.9 2.3-8.8 3.7-4.3 2.1-8.5 4.5-12.6 7.2.3.2.6.5 1 .7 1.9 1.6 4.2 3.1 6.5 4.5zm-7.7-5.2c-2.1-1.5-4.2-3.1-6.3-4.9-1.2-1-2.5-1.9-3.7-2.9l-1.9-1.5-1.9-1.4c-1.3-.9-2.5-1.9-3.8-2.8-1.3-.9-2.6-1.7-3.9-2.6-1.3-.9-2.6-1.6-3.9-2.5-.7-.4-1.3-.8-2-1.2-.7-.4-1.3-.7-2-1.1-5.3-3-10.6-5.4-15.9-7.3-5.3-1.8-10.5-3-15.5-3.5-4.9-.5-9.5-.2-13.4.7-3.9.8-7.2 2.2-9.6 3.7-2.5 1.4-4.1 2.9-5.2 4-.3.3-.5.5-.7.8l.1-.1c1.3-1.3 2.9-2 4.6-2.3.6-.3 1.2-.6 1.9-.8 2.5-.9 5.7-1.7 9.3-2 3.7-.2 7.8.1 12.2 1 4.4.9 9.1 2.5 13.8 4.6 4.8 2.1 9.6 4.8 14.4 7.8 4.8 3.1 9.7 6.5 14.5 10.2 3.8 2.9 7.5 6.1 11.5 9.2 1.1-.8 2.2-1.7 3.3-2.5 1.3-.8 2.7-1.7 4.1-2.6zm84.4 14.8c-2.5 1-5.6 2.1-9.3 3.1-3.6 1-7.8 1.7-12.3 2.2-4.5.4-9.5.5-14.6-.1-5.1-.5-10.5-1.6-15.9-3.2-5.4-1.7-10.8-3.9-16.1-6.6-2.9-1.5-5.8-3.2-8.6-5-2.3 1.4-4.5 2.9-6.8 4.5-.3.2-.6.5-1 .7 4.1 2.7 8.3 5.1 12.6 7.2 2.9 1.4 5.8 2.7 8.8 3.7 3 1.1 6 2 8.9 2.8 6 1.5 11.9 2.3 17.6 2.4 5.6.1 11-.5 15.7-1.5 4.8-1 9-2.4 12.6-4 3.6-1.5 6.6-3.2 9-4.7 2.4-1.5 4.1-2.8 5.2-3.8 1.1-.9 1.7-1.5 1.7-1.5s-.7.4-2 1.1c-1 .8-3 1.7-5.5 2.7zm-76.7-9.6c-2.3-1.4-4.5-2.9-6.8-4.5-.3-.2-.6-.5-1-.7-1.4.9-2.7 1.8-4 2.8-1.1.8-2.2 1.6-3.3 2.5 1.1.8 2.2 1.7 3.3 2.5 1.3.9 2.7 1.9 4 2.8.3-.2.6-.5 1-.7 2.2-1.7 4.5-3.2 6.8-4.7zm-93.2 29.9c2.6.5 5.4-.2 7.4-2.2 3.2-3.2 3.2-8.4 0-11.6-3.2-3.2-8.4-3.2-11.6 0-2.9 2.9-3.2 7.5-.7 10.7.2.2.8.7 1.7 1.3.7.5 1.8 1.1 3.2 1.8zm0 0c-1.4-.6-2.5-1.3-3.3-1.8-.9-.6-1.4-1.1-1.7-1.3.2.3.5.6.7.9 1.3 1.1 2.8 1.9 4.3 2.2zM55 364.6s.2-.4.8-1c-3.1 3.2-3 8.3.1 11.4 3.2 3.2 8.4 3.2 11.6 0 3.2-3.2 3.2-8.4 0-11.6-1.9-1.9-4.5-2.7-7-2.3-1.5.7-2.8 1.4-3.6 2-1.3.9-1.9 1.5-1.9 1.5zm.8-1c-.5.6-.8 1-.8 1s.6-.5 1.8-1.4c.9-.6 2.1-1.3 3.6-2-1.7.3-3.3 1-4.6 2.3.1 0 0 0 0 .1zm377.3 27.6s-16.9-11.1-37.8-11.1-37.8 11.1-37.8 11.1 16.9 11.1 37.8 11.1 37.8-11.1 37.8-11.1zm16.6 5.2c2.1 1.5 4.2 3.1 6.3 4.9 1.2 1 2.5 1.9 3.7 2.9l1.9 1.5 1.9 1.4c1.3.9 2.5 1.9 3.8 2.8 1.3.9 2.6 1.7 3.9 2.6 1.3.9 2.6 1.6 3.9 2.5.7.4 1.3.8 2 1.2.7.4 1.3.7 2 1.1 5.3 3 10.6 5.4 15.9 7.3 5.3 1.8 10.5 3 15.5 3.5 4.9.5 9.5.2 13.4-.7 3.9-.8 7.2-2.2 9.6-3.7 2.5-1.4 4.1-2.9 5.2-4 1-1.1 1.5-1.8 1.5-1.8l-.1.1c-.2.3-.5.6-.7.9-1.2 1.2-2.6 1.9-4.2 2.2-.7.3-1.5.7-2.3 1-2.5.9-5.7 1.7-9.3 2-3.7.2-7.8-.1-12.2-1-4.4-.9-9.1-2.5-13.8-4.6-4.8-2.1-9.6-4.8-14.4-7.8-4.8-3.1-9.7-6.5-14.5-10.2-3.8-2.9-7.5-6.1-11.5-9.2-1.1.8-2.2 1.7-3.3 2.5-1.5.8-2.8 1.7-4.2 2.6zm0-10.4c-4.1-2.7-8.3-5.1-12.6-7.2-2.9-1.4-5.8-2.7-8.8-3.7-3-1.1-6-2-8.9-2.8-6-1.5-11.9-2.3-17.6-2.4-5.6-.1-11 .5-15.7 1.5-4.8 1-9 2.4-12.6 4-3.6 1.5-6.6 3.2-9 4.7-2.4 1.5-4.1 2.8-5.2 3.8-1.1.9-1.7 1.5-1.7 1.5s.7-.4 2-1.1c1.3-.7 3.2-1.6 5.8-2.7 2.5-1 5.6-2.1 9.3-3.1 3.6-1 7.8-1.7 12.3-2.2 4.5-.4 9.5-.5 14.6.1 5.1.5 10.5 1.6 15.9 3.2 5.4 1.7 10.8 3.9 16.1 6.6 2.9 1.5 5.8 3.2 8.6 5 2.3-1.4 4.5-2.9 6.8-4.5.1-.2.4-.5.7-.7zm89.8-22.4c-.2-.2-.4-.5-.7-.8-1-1.1-2.7-2.6-5.2-4-2.4-1.4-5.7-2.8-9.6-3.7-3.9-.8-8.5-1.1-13.4-.7-4.9.5-10.2 1.7-15.5 3.5-5.3 1.8-10.7 4.3-15.9 7.3-.7.4-1.3.7-2 1.1-.7.4-1.3.8-2 1.2-1.3.8-2.7 1.6-3.9 2.5-1.3.9-2.6 1.7-3.9 2.6-1.3.9-2.5 1.8-3.8 2.8l-1.9 1.4-1.9 1.5c-1.2 1-2.5 1.9-3.7 2.9-2.2 1.7-4.2 3.3-6.3 4.9 1.4.9 2.7 1.8 4 2.8 1.1.8 2.2 1.6 3.3 2.5 4-3.1 7.8-6.3 11.5-9.2 4.8-3.7 9.6-7.1 14.5-10.2 4.8-3 9.7-5.7 14.4-7.8 4.8-2.1 9.4-3.7 13.8-4.6 4.4-.9 8.6-1.2 12.2-1 3.7.3 6.8 1 9.3 2 .7.3 1.3.5 1.9.8 1.7.3 3.3 1 4.6 2.3.1-.2.1-.2.2-.1zM442 391.2c-2.8 1.8-5.7 3.4-8.6 5-5.3 2.7-10.7 5-16.1 6.6-5.4 1.7-10.7 2.7-15.9 3.2-5.1.5-10.1.5-14.6.1s-8.7-1.2-12.3-2.2c-3.6-1-6.7-2.1-9.3-3.1-2.5-1-4.5-2-5.8-2.7-1.3-.7-2-1.1-2-1.1s.6.6 1.7 1.5c1.2.9 2.9 2.3 5.2 3.8 2.4 1.5 5.3 3.2 9 4.7 3.6 1.5 7.8 3 12.6 4s10.1 1.6 15.7 1.5c5.6-.1 11.6-.8 17.6-2.4 3-.7 6-1.7 8.9-2.8 3-1.1 5.9-2.3 8.8-3.7 4.3-2.1 8.5-4.5 12.6-7.2-.3-.2-.6-.5-1-.7-1.9-1.5-4.2-3-6.5-4.5zm7.7-5.2c-.3.2-.6.5-1 .7-2.2 1.6-4.5 3.1-6.8 4.5 2.3 1.4 4.5 2.9 6.8 4.5.3.2.6.5 1 .7 1.4-.9 2.7-1.8 4-2.8 1.1-.8 2.2-1.6 3.3-2.5-1.1-.8-2.2-1.7-3.3-2.5-1.3-.8-2.6-1.7-4-2.6zm90.4 32c2.4-3.2 2.2-7.8-.7-10.7-3.2-3.2-8.4-3.2-11.6 0-3.2 3.2-3.2 8.4 0 11.6 2 2 4.8 2.7 7.4 2.2 1.4-.6 2.5-1.3 3.3-1.8.8-.7 1.4-1.1 1.6-1.3zm0 0c-.2.2-.8.7-1.7 1.3-.8.6-1.9 1.2-3.3 1.8 1.5-.3 3-1 4.2-2.2.3-.3.6-.6.8-.9zm-12.3-54.5c-3.2 3.2-3.2 8.4 0 11.6 3.2 3.2 8.4 3.2 11.6 0 3.2-3.2 3.2-8.2.1-11.4.5.6.8 1 .8 1s-.6-.5-1.8-1.4c-.9-.6-2.1-1.3-3.6-2-2.6-.5-5.2.3-7.1 2.2zm12.4 1.1s-.2-.4-.8-1l-.1-.1c-1.3-1.3-2.9-2-4.6-2.3 1.5.7 2.8 1.4 3.6 2 1.4.8 1.9 1.4 1.9 1.4z"/></svg>