<svg id="Layer_1" xmlns="http://www.w3.org/2000/svg" viewBox="0 0 595.3 595.3"><style>.st0{fill:#231f20}</style><path class="st0" d="M78.5 70.2c2.1-2.8 1.8-6.9-1.8-8.3-1-.4-3.3-.8-4 .5-.8 1.4.8 3.1 1.9 3.5.4.2.6-.5.3-.7-.7-.3-2.1-1.9-1-2.5.4-.2.9-.3 1.4-.2 1.2.7 1.6 2.2 1.6 3.5 0 1.9-1.1 3.2-2.9 3.6-1.8.4-3.7-.4-5-1.6l-.5-.5c-1.2-1.9-1.9-4.1-1.5-6.5.4-2.9 2.7-5.3 5.3-6.3 3.4-1.3 12.3 1.2 12.1-5.2-.1-1.9-1.4-3-3-3.4.3 0 .7-.1 1-.1 2.3 1.4 4 3.6 5.7 5.7 1.8 2.2 3.7 4.5 6.2 5.9 2.6 1.5 5.9 1.7 8.6.5 2.7-1.2 4.6-3.7 5-6.5 5.2 1 10.5 1.2 15.6-.3 2.5-.7 4.6-1.9 6.4-3.5 5.7 1.7 11.5 3 17.5 3.5 7.5.7 15.1.2 22.4-1.2.5.3 1 .7 1.5.9 4.7 2.7 10.4 3.6 15.7 3.9 4.5.3 9 0 13.4-.2 5-.2 10.1-.4 15.1-.6 9.8-.4 42.5-.8 53.6-1.1 14.2.3 100.8.7 110.6 1.1 5 .2 10.1.4 15.1.6 4.5.2 9 .4 13.4.2 5.3-.3 11-1.2 15.7-3.9l1.5-.9c7.4 1.4 14.9 1.9 22.4 1.2 6-.6 11.8-1.8 17.5-3.5 1.8 1.6 4 2.8 6.4 3.5 5.1 1.5 10.5 1.4 15.6.3.5 2.8 2.3 5.3 5 6.5 2.7 1.2 6 1 8.6-.5 2.5-1.5 4.4-3.7 6.2-5.9 1.7-2 3.4-4.3 5.7-5.7.3 0 .7.1 1 .1-1.6.3-2.9 1.5-3 3.4-.2 6.3 8.7 3.8 12.1 5.2 2.6 1 4.9 3.4 5.3 6.3.3 2.4-.4 4.5-1.5 6.5-.2.2-.3.4-.5.5-1.2 1.2-3.2 2.1-5 1.6-1.8-.5-2.9-1.7-2.9-3.6 0-1.3.4-2.8 1.6-3.5.5-.1 1 0 1.4.2 1.1.6-.3 2.2-1 2.5-.4.2-.1.8.3.7 1.1-.5 2.7-2.1 1.9-3.5-.7-1.2-3-.9-4-.5-3.6 1.4-3.9 5.6-1.8 8.3 3.8 4.9 11.4 3.6 15.4-.2 5.1-4.8 5.3-12.5 2.5-18.6-.5-1.2-1.2-2.3-1.9-3.3-3.4-5.2-8.5-9.2-12.1-14.4-2.2-3.2-4.2-7.1-4-11.1.2-3.9 2.1-8.1 6.5-8.5 3.7-.3 7.2 1.9 8.5 5.5 1 2.9.9 7.3-2.3 8.8-3.5 1.7-9-1.9-7.8-6 .5-1.7 2.5-3.4 4.4-2.4 1.4.8 1.8 2.9.3 3.9-1 .7-.1 2.3 1 1.6 2.4-1.5 2.5-4.9.4-6.6-2.1-1.7-5.4-1.1-6.9 1-3.9 5.5 3.3 12.9 9.2 10.1 5.9-2.8 4.8-11.6.5-15.3-2.3-2-5.6-3-8.6-2-3 .9-5.2 3.6-5.8 6.7-1.5 7.3 3 14 7.7 19.2 1.2 1.3 2.4 2.5 3.6 3.8-2.2-1.7-4.6-3-7.2-4.1-7.2-2.8-14.9-3.1-22.5-1.9-8.6 1.4-16.7 4.4-24.9 7.3-2.4.8-4.7 1.6-7.1 2.3-.2-.3-.5-.5-.7-.8-2.3-2.8-4.1-6.8-4.1-10.5 0-7.4 4.3-16 12.7-16.3 3.5-.1 7.4 1.3 9.3 4.4 1.9 3.1 2 7.5-.7 10.2-2.4 2.3-6.8 3.1-9.4.7-1.3-1.2-2.3-3.5-1-5.1 1.1-1.4 3.3-1.4 4.1.2.5.8 1.7.1 1.2-.7-2-4.1-7.9-1.6-7.8 2.6.1 4.7 5.2 7.1 9.4 6 6.2-1.7 8.9-9 5.5-14.5-3.6-5.8-11.3-6.8-16.9-3.4-2.9 1.8-5.1 4.4-6.4 7.6-1.4 3.5-1.5 6.9-1.1 10.6.4 3.7 2 7 4.4 9.5-5.5 1.6-11.1 2.8-16.8 3.3-4.3.3-8.6.4-12.8 0-2.3-.2-4.7-.5-7-.9-.2 0-.5-.1-.7-.1.8-.8 1.5-1.8 2-2.9.8-2 .8-4.4-.6-6.2-2.1-2.7-7-3.1-9-.1-.3.5-.6 1-.7 1.6-.6 1.1-.9 2.3-.6 3.6.5 2.5 2.3 4 4.7 4.6.3.1.5.1.8.2-.5.3-1 .6-1.6.8-5.2 2.3-11 3-16.7 3.1-6 .1-12-.3-17.9-.6-12-.5-97.5-1.1-116.8-1.7-.1-.1-.3-.1-.4-.1h-2c-.2 0-.3 0-.5.1-14.4.6-47.7 1.2-59.6 1.7-6 .3-12 .7-17.9.6-5.7-.1-11.5-.7-16.7-3.1-.5-.2-1.1-.5-1.6-.8.3-.1.5-.1.8-.2 2.4-.6 4.2-2.1 4.7-4.6.3-1.3 0-2.5-.6-3.6-.1-.6-.4-1.1-.7-1.6-2-3-6.9-2.6-9 .1-1.4 1.8-1.4 4.2-.6 6.2.4 1.1 1.1 2.1 2 2.9-.2 0-.5.1-.7.1-2.3.4-4.6.7-7 .9-4.3.3-8.6.3-12.8 0-5.7-.5-11.3-1.7-16.8-3.3 2.4-2.5 4-5.8 4.4-9.5.4-3.7.3-7.1-1.1-10.6-1.3-3.2-3.5-5.8-6.4-7.6-5.5-3.5-13.3-2.4-16.9 3.4-3.4 5.5-.6 12.8 5.5 14.5 4.1 1.1 9.3-1.3 9.4-6 .1-4.1-5.8-6.6-7.8-2.6-.4.8.8 1.5 1.2.7.9-1.6 3.1-1.6 4.1-.2 1.3 1.6.3 3.9-1 5.1-2.6 2.5-7 1.6-9.4-.7-2.7-2.6-2.6-7.1-.7-10.2 1.9-3.1 5.8-4.6 9.3-4.4 8.4.3 12.7 8.9 12.7 16.3 0 3.7-1.8 7.7-4.1 10.5-.2.3-.5.5-.7.8-2.4-.7-4.7-1.5-7.1-2.3-8.2-2.8-16.3-5.9-24.9-7.3-7.5-1.2-15.3-1-22.5 1.9-2.6 1-5 2.4-7.2 4.1 1.2-1.3 2.4-2.5 3.6-3.8 4.7-5.2 9.2-11.8 7.7-19.2-.6-3-2.8-5.7-5.8-6.7s-6.3 0-8.6 2c-4.3 3.7-5.4 12.5.5 15.3 5.8 2.8 13.1-4.6 9.2-10.1-1.5-2.1-4.9-2.8-6.9-1-2.1 1.8-1.9 5.2.4 6.6 1.1.7 2-1 1-1.6-1.5-1-1.1-3.1.3-3.9 1.9-1.1 3.8.6 4.4 2.4 1.3 4.1-4.2 7.7-7.8 6-3.2-1.5-3.3-6-2.3-8.8 1.3-3.5 4.7-5.8 8.5-5.5 4.4.4 6.4 4.6 6.5 8.5.2 4-1.8 7.9-4 11.1-3.6 5.1-8.6 9.2-12.1 14.4-.7 1-1.4 2.1-1.9 3.3-2.8 6.1-2.6 13.8 2.5 18.6 4.1 3.8 11.7 5.1 15.5.2zM502.6 55c-2.7 2.3-6.5 3.6-9.9 1.8-2.1-1.1-3.6-3.3-3.9-5.6 1.6-.4 3.1-.8 4.6-1.3 2.2-.7 4.3-1.5 6.5-2.2.4 1 .4 2.1-.1 3-.8 1.3-2.8 2.1-3.8.5-.6-1-2.2-.1-1.6.9 1.9 3.3 6.8 1.7 7.3-1.8.2-1.1 0-2.1-.3-3.1 1.3-.4 2.6-.7 4-.9 1.8-.3 3.7-.5 5.6-.5-3.1 2.6-5.3 6.5-8.4 9.2zm-13.8-5.9c.1-.6.3-1.2.7-1.8 1.8-3.1 6.1-4.5 8.9-1.8.3.3.6.6.9 1-.7.1-1.3.3-2 .4-2.8.5-5.6 1.4-8.5 2.2zm35.3 5c-1.6-.7-3.2-.9-4.9-.9-2 0-4.6.2-6.2-1.3-.9-.8-1.4-2-1-3.2.4-1.1 1.3-2 2.5-2 1 0 2.1.5 2.5 1.5.2.6.5 1.5-.1 2-.4.4-2 .7-1.7-.4h.2c.9-.1.9-1.6 0-1.5-.9.1-1.7.3-1.6 1.4.1.9.5 1.7 1.3 2.1 1.9.8 3.6-1 3.5-2.8 0-1.1-.5-1.9-1.2-2.4 3.1.8 6.1 2.3 8.2 4.8 2.1 2.4 3.4 5.6 3.4 8.7-.7-2.5-2.5-4.9-4.9-6zm-7.8 12.5c0-1.4.7-2.8 1.9-3.6-1.6 1.9-1.7 4.9-.1 6.9.6.7 1.2 1.2 1.9 1.6-2.1-.9-3.7-2.6-3.7-4.9zm1.3-.1c-.2-.9-.1-1.9.4-2.8-.4.9-.5 1.8-.4 2.8zm5 4.8c-.8-.2-1.6-.6-2.3-1.1 2.2 1 4.9.5 6.7-1.2 2.4-2.3 3.3-5.7 3.1-9-.5-6.8-4.9-12.3-11.4-14.3-1.2-.4-2.5-.7-3.8-.8 3-1 6.5-.5 9.2 1.1 3.3 1.9 5.5 5.1 6.6 8.7 1.1 3.5 1.6 7.8.4 11.3-1.1 3.6-4.7 6.3-8.5 5.3zm-50-26c8.1-2.9 16.3-6 24.8-7.4 7.9-1.3 16.3-1.1 23.7 2.3 6.6 3.1 12.4 8.6 13.8 16 .7 3.8.4 7.9-1.9 11.1-.9 1.2-2 2.3-3.3 3.2 4.7-4.2 3.5-13.4 1.1-18.5-2.7-5.6-8.9-10-15.4-8.4-1.1.3-2 .7-2.9 1.2-1.3-.1-2.6-.1-3.9 0-2.6.2-5.1.9-7.7 1.4-1-1.9-3-3.3-5.3-3.6-3.7-.5-7.5 2.2-8.2 5.9-.1.3-.1.7-.1 1-.8.2-1.5.4-2.3.5-3.6.7-7.3 1-10.9.3-2.7-.5-5.2-1.5-7.3-3.2 2-.5 3.9-1.2 5.8-1.8zM422 47.8c-2.4-1-3.6-4.3-2-6.6.8-1.2 2.5-2.2 4-1.8 1.6.4 2.9 1.4 3.9 2.6.2.8.2 1.6-.1 2.5-.5 1.7-1.5 3.1-2.8 4.1-1-.2-2.1-.5-3-.8zm-254.6-3.4c-.2-.9-.2-1.7-.1-2.5 1.1-1.2 2.3-2.2 3.9-2.6 1.5-.3 3.2.6 4 1.8 1.6 2.2.4 5.6-2 6.6-.9.4-2 .6-3.1.8-1.1-1-2.2-2.3-2.7-4.1zM77.2 69.9c1.6-2 1.5-5-.1-6.9 1.2.8 1.9 2.1 1.9 3.6 0 2.4-1.7 4-3.7 5 .7-.5 1.3-1 1.9-1.7zm.1-6.2c.5.9.6 1.8.4 2.8.1-1 0-1.9-.4-2.8zm-9 5.4c1.8 1.7 4.5 2.2 6.7 1.2-.7.5-1.5.9-2.3 1.1-3.8.9-7.5-1.7-8.6-5.3-1.1-3.5-.6-7.8.4-11.3 1.1-3.6 3.4-6.8 6.6-8.7 2.8-1.6 6.2-2.1 9.2-1.1-1.3.2-2.5.5-3.8.8-6.5 2-10.9 7.5-11.4 14.3-.1 3.2.8 6.7 3.2 9zm15-20.3c.4 1.2-.1 2.4-1 3.2-1.6 1.5-4.2 1.3-6.2 1.3-1.7 0-3.3.2-4.9.9-2.4 1.1-4.2 3.5-4.9 6.1.1-3.2 1.4-6.3 3.4-8.7 2.1-2.5 5.1-4 8.2-4.8-.7.5-1.2 1.3-1.2 2.4-.1 1.9 1.6 3.6 3.5 2.8.9-.4 1.2-1.2 1.3-2.1.1-1.1-.8-1.3-1.6-1.4-.9-.1-.9 1.4 0 1.5h.2c.3 1.1-1.3.8-1.7.4-.6-.5-.3-1.4-.1-2 .4-1 1.5-1.4 2.5-1.5 1.3-.2 2.1.8 2.5 1.9zm19.3 8c-3.3 1.8-7.2.5-9.9-1.8-3.1-2.7-5.3-6.6-8.5-9.1 1.9 0 3.7.2 5.6.5 1.4.2 2.7.6 4 .9-.3 1-.4 2-.3 3.1.5 3.5 5.4 5.1 7.3 1.8.6-1-1-1.9-1.6-.9-.9 1.6-3 .9-3.8-.5-.5-1-.5-2-.1-3 2.2.7 4.3 1.5 6.5 2.2 1.5.5 3.1.9 4.6 1.3-.2 2.2-1.8 4.4-3.8 5.5zm-6.7-10.2c.3-.4.6-.7.9-1 2.8-2.7 7.1-1.3 8.9 1.8.3.6.6 1.2.7 1.8-2.8-.8-5.6-1.7-8.5-2.1-.6-.2-1.3-.3-2-.5zm-35.6 9.5c1.4-7.4 7.3-12.9 13.8-16 7.4-3.5 15.8-3.6 23.7-2.3 8.6 1.4 16.7 4.6 24.8 7.4 1.9.7 3.8 1.3 5.8 1.9-2.1 1.7-4.6 2.7-7.3 3.2-3.6.7-7.3.4-10.9-.3-.8-.2-1.5-.3-2.3-.5 0-.3-.1-.7-.1-1-.7-3.7-4.5-6.4-8.2-5.9-2.3.3-4.3 1.7-5.3 3.6-2.5-.6-5.1-1.2-7.7-1.4-1.3-.1-2.6-.1-3.9 0-.9-.5-1.8-.9-2.9-1.2-6.4-1.7-12.7 2.8-15.4 8.4-2.5 5.1-3.6 14.3 1.1 18.5-1.3-.9-2.4-2-3.3-3.2-2.3-3.3-2.7-7.5-1.9-11.2zm9 463.4c3.8-4 5.1-11.6.2-15.4-2.8-2.1-6.9-1.8-8.3 1.8-.4 1-.8 3.3.5 4 1.4.8 3.1-.8 3.5-1.9.2-.4-.5-.6-.7-.3-.3.7-1.9 2.1-2.5 1-.2-.4-.3-.9-.2-1.4.7-1.2 2.2-1.6 3.5-1.6 1.9 0 3.2 1.1 3.6 2.9.4 1.8-.4 3.7-1.6 5l-.5.5c-1.9 1.2-4.1 1.9-6.5 1.5-2.9-.4-5.3-2.7-6.3-5.3-1.3-3.4 1.2-12.3-5.2-12.1-1.9.1-3 1.4-3.4 3 0-.3-.1-.7-.1-1 1.4-2.3 3.6-4 5.7-5.7 2.2-1.8 4.5-3.7 5.9-6.2 1.5-2.6 1.7-5.9.5-8.6-1.2-2.7-3.7-4.6-6.5-5 1-5.2 1.2-10.5-.3-15.6-.7-2.5-1.9-4.6-3.5-6.4 1.7-5.7 3-11.5 3.5-17.5.7-7.5.2-15.1-1.2-22.4.3-.5.7-1 .9-1.5 2.7-4.7 3.6-10.4 3.9-15.7.3-4.5 0-9-.2-13.4-.2-5-.4-10.1-.6-15.1-.4-9.8-.8-19.5-1.1-29.3.3-14.8.7-99.7 1.1-109.4.2-5 .4-10.1.6-15.1.2-4.5.4-9 .2-13.4-.3-5.3-1.2-11-3.9-15.7l-.9-1.5c1.4-7.4 1.9-14.9 1.2-22.4-.6-6-1.8-11.8-3.5-17.5 1.6-1.8 2.8-4 3.5-6.4 1.5-5.1 1.4-10.5.3-15.6 2.8-.5 5.3-2.3 6.5-5 1.2-2.7 1-6-.5-8.6-1.5-2.5-3.7-4.4-5.9-6.2-2-1.7-4.3-3.4-5.7-5.7 0-.3.1-.7.1-1 .3 1.6 1.5 2.9 3.4 3 6.3.2 3.8-8.7 5.2-12.1 1-2.6 3.4-4.9 6.3-5.3 2.4-.3 4.5.4 6.5 1.5.2.2.4.3.5.5 1.2 1.2 2.1 3.2 1.6 5-.5 1.8-1.7 2.9-3.6 2.9-1.3 0-2.8-.4-3.5-1.6-.1-.5 0-1 .2-1.4.6-1.1 2.2.3 2.5 1 .2.4.8.1.7-.3-.5-1.1-2.1-2.7-3.5-1.9-1.2.7-.9 3-.5 4 1.4 3.6 5.6 3.9 8.3 1.8 4.9-3.8 3.6-11.4-.2-15.4-4.8-5.1-12.5-5.3-18.6-2.5-1.2.5-2.3 1.2-3.3 1.9-5.2 3.4-9.2 8.5-14.4 12.1-3.2 2.2-7.1 4.2-11.1 4-3.9-.2-8.1-2.1-8.5-6.5-.3-3.7 1.9-7.2 5.5-8.5 2.9-1 7.3-.9 8.8 2.3 1.7 3.5-1.9 9-6 7.8-1.7-.5-3.4-2.5-2.4-4.4.8-1.4 2.9-1.8 3.9-.3.7 1 2.3.1 1.6-1-1.5-2.4-4.9-2.5-6.6-.4-1.7 2.1-1.1 5.4 1 6.9 5.5 3.9 12.9-3.3 10.1-9.2-2.8-5.9-11.6-4.8-15.3-.5-2 2.3-3 5.6-2 8.6.9 3 3.6 5.2 6.7 5.8 7.3 1.5 14-3 19.2-7.7 1.3-1.2 2.5-2.4 3.8-3.6-1.7 2.2-3 4.6-4.1 7.2-2.8 7.2-3.1 14.9-1.9 22.5 1.4 8.6 4.4 16.7 7.3 24.9.8 2.4 1.6 4.7 2.3 7.1-.3.2-.5.5-.8.7-2.8 2.3-6.8 4.1-10.5 4.1-7.4 0-16-4.3-16.3-12.7-.1-3.5 1.3-7.4 4.4-9.3 3.1-1.9 7.5-2 10.2.7 2.3 2.4 3.1 6.8.7 9.4-1.2 1.3-3.5 2.3-5.1 1-1.4-1.1-1.4-3.3.2-4.1.8-.5.1-1.7-.7-1.2-4.1 2-1.6 7.9 2.6 7.8 4.7-.1 7.1-5.2 6-9.4-1.7-6.2-9-8.9-14.5-5.5-5.8 3.6-6.8 11.3-3.4 16.9 1.8 2.9 4.4 5.1 7.6 6.4 3.5 1.4 6.9 1.5 10.6 1.1 3.7-.4 7-2 9.5-4.4 1.6 5.5 2.8 11.1 3.3 16.8.3 4.3.4 8.6 0 12.8-.2 2.3-.5 4.7-.9 7 0 .2-.1.5-.1.7-.8-.8-1.8-1.5-2.9-2-2-.8-4.4-.8-6.2.6-2.7 2.1-3.1 7-.1 9 .5.3 1 .6 1.6.7 1.1.6 2.3.9 3.6.6 2.5-.5 4-2.3 4.6-4.7.1-.3.1-.5.2-.8.3.5.6 1 .8 1.6 2.3 5.2 3 11 3.1 16.7.1 6-.3 12-.6 17.9-.5 11.9-1.1 96-1.7 115.6-.1.1-.1.3-.1.5 0 .4 0 .7.1 1.1 0 .4 0 .9-.1 1.2 0 .2.1.4.1.5.6 11.7 1.1 23.4 1.7 35.1.3 6 .7 12 .6 17.9-.1 5.7-.7 11.5-3.1 16.7-.2.5-.5 1-.8 1.6-.1-.3-.1-.5-.2-.8-.6-2.4-2.1-4.2-4.6-4.7-1.3-.3-2.5 0-3.6.6-.6.1-1.1.4-1.6.7-3 2-2.6 6.9.1 9 1.8 1.4 4.2 1.4 6.2.6 1.1-.4 2.1-1.1 2.9-2 0 .2.1.5.1.7.4 2.3.7 4.6.9 7 .3 4.3.3 8.6 0 12.8-.5 5.7-1.7 11.3-3.3 16.8-2.5-2.4-5.8-4-9.5-4.4-3.7-.4-7.1-.3-10.6 1.1-3.2 1.3-5.8 3.5-7.6 6.4-3.5 5.5-2.4 13.3 3.4 16.9 5.5 3.4 12.8.6 14.5-5.5 1.1-4.1-1.3-9.3-6-9.4-4.1-.1-6.6 5.8-2.6 7.8.8.4 1.5-.8.7-1.2-1.6-.9-1.6-3.1-.2-4.1 1.6-1.3 3.9-.3 5.1 1 2.5 2.6 1.6 7-.7 9.4-2.6 2.7-7.1 2.6-10.2.7-3.1-1.9-4.6-5.8-4.4-9.3.3-8.4 8.9-12.7 16.3-12.7 3.7 0 7.7 1.8 10.5 4.1.3.2.5.5.8.7-.7 2.4-1.5 4.7-2.3 7.1-2.8 8.2-5.9 16.3-7.3 24.9-1.2 7.5-1 15.3 1.9 22.5 1 2.6 2.4 5 4.1 7.2-1.3-1.2-2.5-2.4-3.8-3.6-5.2-4.7-11.8-9.2-19.2-7.7-3 .6-5.7 2.8-6.7 5.8s0 6.3 2 8.6c3.7 4.3 12.5 5.4 15.3-.5 2.8-5.8-4.6-13.1-10.1-9.2-2.1 1.5-2.8 4.9-1 6.9 1.8 2.1 5.2 1.9 6.6-.4.7-1.1-1-2-1.6-1-1 1.5-3.1 1.1-3.9-.3-1.1-1.9.6-3.8 2.4-4.4 4.2-1.3 7.7 4.2 6 7.8-1.5 3.2-6 3.3-8.8 2.3-3.5-1.3-5.8-4.7-5.5-8.5.4-4.4 4.6-6.4 8.5-6.5 4-.2 7.9 1.8 11.1 4 5.1 3.6 9.2 8.6 14.4 12.1 1 .7 2.1 1.4 3.3 1.9 6.1 2.5 13.8 2.3 18.6-2.8zm-15-414.1c2.3 2.7 3.6 6.6 1.8 9.9-1.1 2.1-3.3 3.6-5.6 3.9-.4-1.6-.8-3.1-1.3-4.6-.7-2.2-1.5-4.3-2.2-6.5 1-.4 2.1-.4 3 .1 1.3.8 2.1 2.8.5 3.8-1 .6-.1 2.2.9 1.6 3.3-1.9 1.7-6.8-1.8-7.3-1.1-.2-2.1 0-3.1.3-.4-1.3-.7-2.6-.9-4-.3-1.8-.5-3.7-.5-5.6 2.6 3.1 6.5 5.2 9.2 8.4zm-5.8 13.8c-.6-.1-1.2-.3-1.8-.7-3.1-1.8-4.5-6.1-1.8-8.9.3-.3.6-.6 1-.9.1.7.3 1.3.4 2 .5 2.8 1.4 5.6 2.2 8.5zm5-35.3c-.7 1.6-.9 3.2-.9 4.9 0 2 .2 4.6-1.3 6.2-.8.9-2 1.4-3.2 1-1.1-.4-2-1.3-2-2.5 0-1 .5-2.1 1.5-2.5.6-.2 1.5-.5 2 .1.4.4.7 2-.4 1.7v-.2c-.1-.9-1.6-.9-1.5 0 .1.9.3 1.7 1.4 1.6.9-.1 1.7-.5 2.1-1.3.8-1.9-1-3.6-2.8-3.5-1.1 0-1.9.5-2.4 1.2.8-3.1 2.3-6.1 4.8-8.2 2.4-2.1 5.6-3.4 8.7-3.4-2.6.7-4.9 2.5-6 4.9zm12.3 6.5c-.9.2-1.9.1-2.8-.4.9.4 1.9.5 2.8.4zm.1 1.3c-1.4 0-2.8-.7-3.6-1.9 1.9 1.6 4.9 1.7 6.9.1.7-.6 1.2-1.2 1.6-1.9-.9 2-2.5 3.7-4.9 3.7zm4.8-6.3c-.2.8-.6 1.6-1.1 2.3 1-2.2.5-4.9-1.2-6.7-2.3-2.4-5.7-3.3-9-3.1-6.8.5-12.3 4.9-14.3 11.4-.4 1.2-.7 2.5-.8 3.8-1-3-.5-6.5 1.1-9.2 1.9-3.3 5.1-5.5 8.7-6.6 3.5-1.1 7.8-1.6 11.3-.4 3.6 1 6.2 4.7 5.3 8.5zm-26.1 49.9c-2.9-8.1-6-16.3-7.4-24.8-1.3-7.9-1.1-16.3 2.3-23.7 3.1-6.6 8.6-12.4 16-13.8 3.8-.7 7.9-.4 11.1 1.9 1.2.9 2.3 2 3.2 3.3-4.2-4.7-13.4-3.5-18.5-1.1-5.6 2.7-10 8.9-8.4 15.4.3 1.1.7 2 1.2 2.9-.1 1.3-.1 2.6 0 3.9.2 2.6.9 5.1 1.4 7.7-1.9 1-3.3 3-3.6 5.3-.5 3.7 2.2 7.5 5.9 8.2.3.1.7.1 1 .1.2.8.4 1.5.5 2.3.7 3.6 1 7.3.3 10.9-.5 2.7-1.5 5.2-3.2 7.3-.5-1.9-1.1-3.8-1.8-5.8zm2.5 50.7c-1 2.4-4.3 3.6-6.6 2-1.2-.8-2.2-2.5-1.8-4 .4-1.6 1.4-2.9 2.6-3.9.8-.2 1.6-.2 2.5.1 1.7.5 3.1 1.5 4.1 2.8-.2 1-.4 2.1-.8 3zm-3.3 229.1c-.9.2-1.7.2-2.5.1-1.2-1.1-2.2-2.3-2.6-3.9-.3-1.5.6-3.2 1.8-4 2.2-1.6 5.6-.4 6.6 2 .4.9.6 2 .8 3.1-1.1 1.2-2.4 2.3-4.1 2.7zm19.3 90.2c.9-.5 1.8-.6 2.8-.4-1-.1-2 0-2.8.4zm-.8.2c.8-1.2 2.1-1.9 3.6-1.9 2.4 0 4 1.7 5 3.7-.4-.7-1-1.4-1.6-1.9-2.1-1.7-5.1-1.6-7 .1zm-11.1-3.2c-.4-.9-1.2-1.2-2.1-1.3-1.1-.1-1.3.8-1.4 1.6-.1.9 1.4.9 1.5 0v-.2c1.1-.3.8 1.3.4 1.7-.5.6-1.4.3-2 .1-1-.4-1.4-1.5-1.5-2.5 0-1.2.9-2.1 2-2.5 1.2-.4 2.4.1 3.2 1 1.5 1.6 1.3 4.2 1.3 6.2 0 1.7.2 3.3.9 4.9 1.1 2.4 3.5 4.2 6.1 4.9-3.2-.1-6.3-1.4-8.7-3.4-2.5-2.1-4-5.1-4.8-8.2.5.7 1.3 1.2 2.4 1.2 1.7.1 3.5-1.5 2.7-3.5zm8.3 15.1c3.2.2 6.7-.7 9-3.1 1.7-1.8 2.2-4.5 1.2-6.7.5.7.9 1.5 1.1 2.3.9 3.8-1.7 7.5-5.3 8.6-3.5 1.1-7.8.6-11.3-.4-3.6-1.1-6.8-3.4-8.7-6.6-1.6-2.8-2.1-6.2-1.1-9.2.2 1.3.5 2.5.8 3.8 2 6.4 7.5 10.8 14.3 11.3zm-9-41.3c2.3.3 4.5 1.9 5.6 3.9 1.8 3.3.5 7.2-1.8 9.9-2.7 3.1-6.6 5.3-9.1 8.5 0-1.9.2-3.7.5-5.6.2-1.4.6-2.7.9-4 1 .3 2 .4 3.1.3 3.5-.5 5.1-5.4 1.8-7.3-1-.6-1.9 1-.9 1.6 1.6.9.9 3-.5 3.8-1 .5-2 .5-3 .1.7-2.2 1.5-4.3 2.2-6.5.4-1.6.9-3.2 1.2-4.7zm-5.6 9.7c-2.7-2.8-1.3-7.1 1.8-8.9.6-.3 1.2-.6 1.8-.7-.8 2.8-1.7 5.6-2.1 8.5-.1.7-.2 1.3-.4 2-.4-.3-.8-.6-1.1-.9zm10.5 36.5c-7.4-1.4-12.9-7.3-16-13.8-3.5-7.4-3.6-15.8-2.3-23.7 1.4-8.6 4.6-16.7 7.4-24.8.7-1.9 1.3-3.8 1.9-5.8 1.7 2.1 2.7 4.6 3.2 7.3.7 3.6.4 7.3-.3 10.9-.2.8-.3 1.5-.5 2.3-.3 0-.7.1-1 .1-3.7.7-6.4 4.5-5.9 8.2.3 2.3 1.7 4.3 3.6 5.3-.6 2.5-1.2 5.1-1.4 7.7-.1 1.3-.1 2.6 0 3.9-.5.9-.9 1.8-1.2 2.9-1.7 6.4 2.8 12.7 8.4 15.4 5.1 2.5 14.3 3.6 18.5-1.1-.9 1.3-2 2.4-3.2 3.3-3.2 2.3-7.4 2.6-11.2 1.9zm461.4 2.8c-2.1 2.8-1.8 6.9 1.8 8.3 1 .4 3.3.8 4-.5.8-1.4-.8-3.1-1.9-3.5-.4-.2-.6.5-.3.7.7.3 2.1 1.9 1 2.5-.4.2-.9.3-1.4.2-1.2-.7-1.6-2.2-1.6-3.5 0-1.9 1.1-3.2 2.9-3.6 1.8-.4 3.7.4 5 1.6l.5.5c1.2 1.9 1.9 4.1 1.5 6.5-.4 2.9-2.7 5.3-5.3 6.3-3.4 1.3-12.3-1.2-12.1 5.2.1 1.9 1.4 3 3 3.4-.3 0-.7.1-1 .1-2.3-1.4-4-3.6-5.7-5.7-1.8-2.2-3.7-4.5-6.2-5.9-2.6-1.5-5.9-1.7-8.6-.5-2.7 1.2-4.6 3.7-5 6.5-5.2-1-10.5-1.2-15.6.3-2.5.7-4.6 1.9-6.4 3.5-5.7-1.7-11.5-3-17.5-3.5-7.5-.7-15.1-.2-22.4 1.2-.5-.3-1-.7-1.5-.9-4.7-2.7-10.4-3.6-15.7-3.9-4.5-.3-9 0-13.4.2-5 .2-10.1.4-15.1.6-9.4.4-18.7.7-28.1 1.1-23.3-.3-126.7-.7-136-1.1-5-.2-10.1-.4-15.1-.6-4.5-.2-9-.4-13.4-.2-5.3.3-11 1.2-15.7 3.9l-1.5.9c-7.4-1.4-14.9-1.9-22.4-1.2-6 .6-11.8 1.8-17.5 3.5-1.8-1.6-4-2.8-6.4-3.5-5.1-1.5-10.5-1.4-15.6-.3-.5-2.8-2.3-5.3-5-6.5-2.7-1.2-6-1-8.6.5-2.5 1.5-4.4 3.7-6.2 5.9-1.7 2-3.4 4.3-5.7 5.7-.3 0-.7-.1-1-.1 1.6-.3 2.9-1.5 3-3.4.2-6.3-8.7-3.8-12.1-5.2-2.6-1-4.9-3.4-5.3-6.3-.3-2.4.4-4.5 1.5-6.5.2-.2.3-.4.5-.5 1.2-1.2 3.2-2.1 5-1.6 1.8.5 2.9 1.7 2.9 3.6 0 1.3-.4 2.8-1.6 3.5-.5.1-1 0-1.4-.2-1.1-.6.3-2.2 1-2.5.4-.2.1-.8-.3-.7-1.1.5-2.7 2.1-1.9 3.5.7 1.2 3 .9 4 .5 3.6-1.4 3.9-5.6 1.8-8.3-3.8-4.9-11.4-3.6-15.4.2-5.1 4.8-5.3 12.5-2.5 18.6.5 1.2 1.2 2.3 1.9 3.3 3.4 5.2 8.5 9.2 12.1 14.4 2.2 3.2 4.2 7.1 4 11.1-.2 3.9-2.1 8.1-6.5 8.5-3.7.3-7.2-1.9-8.5-5.5-1-2.9-.9-7.3 2.3-8.8 3.5-1.7 9 1.9 7.8 6-.5 1.7-2.5 3.4-4.4 2.4-1.4-.8-1.8-2.9-.3-3.9 1-.7.1-2.3-1-1.6-2.4 1.5-2.5 4.9-.4 6.6 2.1 1.7 5.4 1.1 6.9-1 3.9-5.5-3.3-12.9-9.2-10.1-5.9 2.8-4.8 11.6-.5 15.3 2.3 2 5.6 3 8.6 2 3-.9 5.2-3.6 5.8-6.7 1.5-7.3-3-14-7.7-19.2-1.2-1.3-2.4-2.5-3.6-3.8 2.2 1.7 4.6 3 7.2 4.1 7.2 2.8 14.9 3.1 22.5 1.9 8.6-1.4 16.7-4.4 24.9-7.3 2.4-.8 4.7-1.6 7.1-2.3.2.3.5.5.7.8 2.3 2.8 4.1 6.8 4.1 10.5 0 7.4-4.3 16-12.7 16.3-3.5.1-7.4-1.3-9.3-4.4-1.9-3.1-2-7.5.7-10.2 2.4-2.3 6.8-3.1 9.4-.7 1.3 1.2 2.3 3.5 1 5.1-1.1 1.4-3.3 1.4-4.1-.2-.5-.8-1.7-.1-1.2.7 2 4.1 7.9 1.6 7.8-2.6-.1-4.7-5.2-7.1-9.4-6-6.2 1.7-8.9 9-5.5 14.5 3.6 5.8 11.3 6.8 16.9 3.4 2.9-1.8 5.1-4.4 6.4-7.6 1.4-3.5 1.5-6.9 1.1-10.6-.4-3.7-2-7-4.4-9.5 5.5-1.6 11.1-2.8 16.8-3.3 4.3-.3 8.6-.4 12.8 0 2.3.2 4.7.5 7 .9.2 0 .5.1.7.1-.8.8-1.5 1.8-2 2.9-.8 2-.8 4.4.6 6.2 2.1 2.7 7 3.1 9 .1.3-.5.6-1 .7-1.6.6-1.1.9-2.3.6-3.6-.5-2.5-2.3-4-4.7-4.6-.3-.1-.5-.1-.8-.2.5-.3 1-.6 1.6-.8 5.2-2.3 11-3 16.7-3.1 6-.1 12 .3 17.9.6 11.4.5 112 1 140.9 1.6.1.1.3.2.6.2.8 0 1.7-.1 2.5-.1 1.6 0 2.8.1 3.6.1.3 0 .6-.1.7-.3 10.3-.5 20.7-1 31-1.4 6-.3 12-.7 17.9-.6 5.7.1 11.5.7 16.7 3.1.5.2 1.1.5 1.6.8-.3.1-.5.1-.8.2-2.4.6-4.2 2.1-4.7 4.6-.3 1.3 0 2.5.6 3.6.1.6.4 1.1.7 1.6 2 3 6.9 2.6 9-.1 1.4-1.8 1.4-4.2.6-6.2-.4-1.1-1.1-2.1-2-2.9.2 0 .5-.1.7-.1 2.3-.4 4.6-.7 7-.9 4.3-.3 8.6-.3 12.8 0 5.7.5 11.3 1.7 16.8 3.3-2.4 2.5-4 5.8-4.4 9.5-.4 3.7-.3 7.1 1.1 10.6 1.3 3.2 3.5 5.8 6.4 7.6 5.5 3.5 13.3 2.4 16.9-3.4 3.4-5.5.6-12.8-5.5-14.5-4.1-1.1-9.3 1.3-9.4 6-.1 4.1 5.8 6.6 7.8 2.6.4-.8-.8-1.5-1.2-.7-.9 1.6-3.1 1.6-4.1.2-1.3-1.6-.3-3.9 1-5.1 2.6-2.5 7-1.6 9.4.7 2.7 2.6 2.6 7.1.7 10.2-1.9 3.1-5.8 4.6-9.3 4.4-8.4-.3-12.7-8.9-12.7-16.3 0-3.7 1.8-7.7 4.1-10.5.2-.3.5-.5.7-.8 2.4.7 4.7 1.5 7.1 2.3 8.2 2.8 16.3 5.9 24.9 7.3 7.5 1.2 15.3 1 22.5-1.9 2.6-1 5-2.4 7.2-4.1-1.2 1.3-2.4 2.5-3.6 3.8-4.7 5.2-9.2 11.8-7.7 19.2.6 3 2.8 5.7 5.8 6.7s6.3 0 8.6-2c4.3-3.7 5.4-12.5-.5-15.3-5.8-2.8-13.1 4.6-9.2 10.1 1.5 2.1 4.9 2.8 6.9 1 2.1-1.8 1.9-5.2-.4-6.6-1.1-.7-2 1-1 1.6 1.5 1 1.1 3.1-.3 3.9-1.9 1.1-3.8-.6-4.4-2.4-1.3-4.1 4.2-7.7 7.8-6 3.2 1.5 3.3 6 2.3 8.8-1.3 3.5-4.7 5.8-8.5 5.5-4.4-.4-6.4-4.6-6.5-8.5-.2-4 1.8-7.9 4-11.1 3.6-5.1 8.6-9.2 12.1-14.4.7-1 1.4-2.1 1.9-3.3 2.8-6.1 2.6-13.8-2.5-18.6-4.2-3.9-11.8-5.2-15.6-.3zM92.7 540.3c2.7-2.3 6.6-3.6 9.9-1.8 2.1 1.1 3.6 3.3 3.9 5.6-1.6.4-3.1.8-4.6 1.3-2.2.7-4.3 1.5-6.5 2.2-.4-1-.4-2.1.1-3 .8-1.3 2.8-2.1 3.8-.5.6 1 2.2.1 1.6-.9-1.9-3.3-6.8-1.7-7.3 1.8-.2 1.1 0 2.1.3 3.1-1.3.4-2.6.7-4 .9-1.8.3-3.7.5-5.6.5 3.1-2.6 5.2-6.5 8.4-9.2zm13.7 5.9c-.1.6-.3 1.2-.7 1.8-1.8 3.1-6.1 4.5-8.9 1.8-.3-.3-.6-.6-.9-1 .7-.1 1.3-.3 2-.4 2.9-.6 5.7-1.5 8.5-2.2zm-35.2-5c1.6.7 3.2.9 4.9.9 2 0 4.6-.2 6.2 1.3.9.8 1.4 2 1 3.2-.4 1.1-1.3 2-2.5 2-1 0-2.1-.5-2.5-1.5-.2-.6-.5-1.5.1-2 .4-.4 2-.7 1.7.4h-.2c-.9.1-.9 1.6 0 1.5.9-.1 1.7-.3 1.6-1.4-.1-.9-.5-1.7-1.3-2.1-1.9-.8-3.6 1-3.5 2.8 0 1.1.5 1.9 1.2 2.4-3.1-.8-6.1-2.3-8.2-4.8-2.1-2.4-3.4-5.6-3.4-8.7.7 2.5 2.5 4.8 4.9 6zm7.8-12.5c0 1.4-.7 2.8-1.9 3.6 1.6-1.9 1.7-4.9.1-6.9-.6-.7-1.2-1.2-1.9-1.6 2 .9 3.7 2.6 3.7 4.9zm-1.3.1c.2.9.1 1.9-.4 2.8.4-.9.5-1.9.4-2.8zm-5-4.9c.8.2 1.6.6 2.3 1.1-2.2-1-4.9-.5-6.7 1.2-2.4 2.3-3.3 5.7-3.1 9 .5 6.8 4.9 12.3 11.4 14.3 1.2.4 2.5.7 3.8.8-3 1-6.5.5-9.2-1.1-3.3-1.9-5.5-5.1-6.6-8.7-1.1-3.5-1.6-7.8-.4-11.3 1-3.6 4.7-6.2 8.5-5.3zm49.9 26.1c-8.1 2.9-16.3 6-24.8 7.4-7.9 1.3-16.3 1.1-23.7-2.3-6.6-3.1-12.4-8.6-13.8-16-.7-3.8-.4-7.9 1.9-11.1.9-1.2 2-2.3 3.3-3.2-4.7 4.2-3.5 13.4-1.1 18.5 2.7 5.6 8.9 10 15.4 8.4 1.1-.3 2-.7 2.9-1.2 1.3.1 2.6.1 3.9 0 2.6-.2 5.1-.9 7.7-1.4 1 1.9 3 3.3 5.3 3.6 3.7.5 7.5-2.2 8.2-5.9.1-.3.1-.7.1-1 .8-.2 1.5-.4 2.3-.5 3.6-.7 7.3-1 10.9-.3 2.7.5 5.2 1.5 7.3 3.2-1.9.5-3.9 1.1-5.8 1.8zm50.7-2.5c2.4 1 3.6 4.3 2 6.6-.8 1.2-2.5 2.2-4 1.8-1.6-.4-2.9-1.4-3.9-2.6-.2-.8-.2-1.6.1-2.5.5-1.7 1.5-3.1 2.8-4.1 1 .2 2.1.4 3 .8zm254.5 3.3c.2.9.2 1.7.1 2.5-1.1 1.2-2.3 2.2-3.9 2.6-1.5.3-3.2-.6-4-1.8-1.6-2.2-.4-5.6 2-6.6.9-.4 2-.6 3.1-.8 1.2 1.1 2.3 2.4 2.7 4.1zm90.3-25.4c-1.6 2-1.5 5 .1 6.9-1.2-.8-1.9-2.1-1.9-3.6 0-2.4 1.7-4 3.7-5-.7.5-1.4 1-1.9 1.7zm-.1 6.2c-.5-.9-.6-1.8-.4-2.8-.1.9 0 1.9.4 2.8zm9-5.4c-1.8-1.7-4.5-2.2-6.7-1.2.7-.5 1.5-.9 2.3-1.1 3.8-.9 7.5 1.7 8.6 5.3 1.1 3.5.6 7.8-.4 11.3-1.1 3.6-3.4 6.8-6.6 8.7-2.8 1.6-6.2 2.1-9.2 1.1 1.3-.2 2.5-.5 3.8-.8 6.5-2 10.9-7.5 11.4-14.3.1-3.3-.8-6.7-3.2-9zm-15.1 20.3c-.4-1.2.1-2.4 1-3.2 1.6-1.5 4.2-1.3 6.2-1.3 1.7 0 3.3-.2 4.9-.9 2.4-1.1 4.2-3.5 4.9-6.1-.1 3.2-1.4 6.3-3.4 8.7-2.1 2.5-5.1 4-8.2 4.8.7-.5 1.2-1.3 1.2-2.4.1-1.9-1.6-3.6-3.5-2.8-.9.4-1.2 1.2-1.3 2.1-.1 1.1.8 1.3 1.6 1.4.9.1.9-1.4 0-1.5h-.2c-.3-1.1 1.3-.8 1.7-.4.6.5.3 1.4.1 2-.4 1-1.5 1.4-2.5 1.5-1.2.1-2.1-.8-2.5-1.9zm-19.2-8c3.3-1.8 7.2-.5 9.9 1.8 3.1 2.7 5.3 6.6 8.5 9.1-1.9 0-3.7-.2-5.6-.5-1.4-.2-2.7-.6-4-.9.3-1 .4-2 .3-3.1-.5-3.5-5.4-5.1-7.3-1.8-.6 1 1 1.9 1.6.9.9-1.6 3-.9 3.8.5.5 1 .5 2 .1 3-2.2-.7-4.3-1.5-6.5-2.2-1.5-.5-3.1-.9-4.6-1.3.2-2.2 1.8-4.4 3.8-5.5zm6.6 10.2c-.3.4-.6.7-.9 1-2.8 2.7-7.1 1.3-8.9-1.8-.3-.6-.6-1.2-.7-1.8 2.8.8 5.6 1.7 8.5 2.1.7.2 1.4.3 2 .5zm35.7-9.5c-1.4 7.4-7.3 12.9-13.8 16-7.4 3.5-15.8 3.6-23.7 2.3-8.6-1.4-16.7-4.6-24.8-7.4-1.9-.7-3.8-1.3-5.8-1.9 2.1-1.7 4.6-2.7 7.3-3.2 3.6-.7 7.3-.4 10.9.3.8.2 1.5.3 2.3.5 0 .3.1.7.1 1 .7 3.7 4.5 6.4 8.2 5.9 2.3-.3 4.3-1.7 5.3-3.6 2.5.6 5.1 1.2 7.7 1.4 1.3.1 2.6.1 3.9 0 .9.5 1.8.9 2.9 1.2 6.4 1.7 12.7-2.8 15.4-8.4 2.5-5.1 3.6-14.3-1.1-18.5 1.3.9 2.4 2 3.3 3.2 2.3 3.2 2.7 7.4 1.9 11.2zm41.5-35.9c-7.3-1.5-14 3-19.2 7.7-1.3 1.2-2.5 2.4-3.8 3.6 1.7-2.2 3-4.6 4.1-7.2 2.8-7.2 3.1-15 1.9-22.5-1.4-8.6-4.4-16.7-7.3-24.9-.8-2.4-1.6-4.7-2.3-7.1.3-.2.5-.5.8-.7 2.8-2.3 6.8-4.1 10.5-4.1 7.4 0 16 4.3 16.3 12.7.1 3.5-1.3 7.4-4.4 9.3-3.1 1.9-7.5 2-10.2-.7-2.3-2.4-3.1-6.8-.7-9.4 1.2-1.3 3.5-2.3 5.1-1 1.4 1.1 1.4 3.3-.2 4.1-.8.5-.1 1.7.7 1.2 4.1-2 1.6-7.9-2.6-7.8-4.7.1-7.1 5.2-6 9.4 1.7 6.2 9 8.9 14.5 5.5 5.8-3.6 6.8-11.3 3.4-16.9-1.8-2.9-4.4-5.1-7.6-6.4-3.5-1.4-6.9-1.5-10.6-1.1-3.7.4-7 2-9.5 4.4-1.6-5.5-2.8-11.1-3.3-16.8-.3-4.3-.4-8.6 0-12.8.2-2.3.5-4.7.9-7 0-.2.1-.5.1-.7.8.8 1.8 1.5 2.9 2 2 .8 4.4.8 6.2-.6 2.7-2.1 3.1-7 .1-9-.5-.3-1-.6-1.6-.7-1.1-.6-2.3-.9-3.6-.6-2.5.5-4 2.3-4.6 4.7-.1.3-.1.5-.2.8-.3-.5-.6-1-.8-1.6-2.3-5.2-3-11-3.1-16.7-.1-6 .3-12 .6-17.9l1.5-32.1c.2-.1.3-.4.3-.7 0-.7-.1-1.7-.1-2.9 0-.7.1-1.5.1-2.2 0-.2-.1-.4-.2-.6-.6-24.3-1.1-104.1-1.6-115.5-.3-6-.7-12-.6-17.9.1-5.7.7-11.5 3.1-16.7.2-.5.5-1.1.8-1.6.1.3.1.5.2.8.6 2.4 2.1 4.2 4.6 4.7 1.3.3 2.5 0 3.6-.6.6-.1 1.1-.4 1.6-.7 3-2 2.6-6.9-.1-9-1.8-1.4-4.2-1.4-6.2-.6-1.1.4-2.1 1.1-2.9 2 0-.2-.1-.5-.1-.7-.4-2.3-.7-4.6-.9-7-.3-4.3-.3-8.6 0-12.8.5-5.7 1.7-11.3 3.3-16.8 2.5 2.4 5.8 4 9.5 4.4 3.7.4 7.1.3 10.6-1.1 3.2-1.3 5.8-3.5 7.6-6.4 3.5-5.5 2.4-13.3-3.4-16.9-5.5-3.4-12.8-.6-14.5 5.5-1.1 4.1 1.3 9.3 6 9.4 4.1.1 6.6-5.8 2.6-7.8-.8-.4-1.5.8-.7 1.2 1.6.9 1.6 3.1.2 4.1-1.6 1.3-3.9.3-5.1-1-2.5-2.6-1.6-7 .7-9.4 2.6-2.7 7.1-2.6 10.2-.7 3.1 1.9 4.6 5.8 4.4 9.3-.3 8.4-8.9 12.7-16.3 12.7-3.7 0-7.7-1.8-10.5-4.1-.3-.2-.5-.5-.8-.7.7-2.4 1.5-4.7 2.3-7.1 2.8-8.2 5.9-16.3 7.3-24.9 1.2-7.5 1-15.3-1.9-22.5-1-2.6-2.4-5-4.1-7.2 1.3 1.2 2.5 2.4 3.8 3.6 5.2 4.7 11.8 9.2 19.2 7.7 3-.6 5.7-2.8 6.7-5.8s0-6.3-2-8.6c-3.7-4.3-12.5-5.4-15.3.5-2.8 5.8 4.6 13.1 10.1 9.2 2.1-1.5 2.8-4.9 1-6.9-1.8-2.1-5.2-1.9-6.6.4-.7 1.1 1 2 1.6 1 1-1.5 3.1-1.1 3.9.3 1.1 1.9-.6 3.8-2.4 4.4-4.2 1.3-7.7-4.2-6-7.8 1.5-3.2 6-3.3 8.8-2.3 3.5 1.3 5.8 4.7 5.5 8.5-.4 4.4-4.6 6.4-8.5 6.5-4 .2-7.9-1.8-11.1-4-5.1-3.6-9.2-8.6-14.4-12.1-1-.7-2.1-1.4-3.3-1.9-6.1-2.8-13.8-2.6-18.6 2.5-3.8 4-5.1 11.6-.2 15.4 2.8 2.1 6.9 1.8 8.3-1.8.4-1 .8-3.3-.5-4-1.4-.8-3.1.8-3.5 1.9-.2.4.5.6.7.3.3-.7 1.9-2.1 2.5-1 .2.4.3.9.2 1.4-.7 1.2-2.2 1.6-3.5 1.6-1.9 0-3.2-1.1-3.6-2.9-.4-1.8.4-3.7 1.6-5l.5-.5c1.9-1.2 4.1-1.9 6.5-1.5 2.9.4 5.3 2.7 6.3 5.3 1.3 3.4-1.2 12.3 5.2 12.1 1.9-.1 3-1.4 3.4-3 0 .3.1.7.1 1-1.4 2.3-3.6 4-5.7 5.7-2.2 1.8-4.5 3.7-5.9 6.2-1.5 2.6-1.7 5.9-.5 8.6 1.2 2.7 3.7 4.6 6.5 5-1 5.2-1.2 10.5.3 15.6.7 2.5 1.9 4.6 3.5 6.4-1.7 5.7-3 11.5-3.5 17.5-.7 7.5-.2 15.1 1.2 22.4-.3.5-.7 1-.9 1.5-2.7 4.7-3.6 10.4-3.9 15.7-.3 4.5 0 9 .2 13.4.2 5 .4 10.1.6 15.1.4 9.4.8 91.3 1.1 110.4-.3 9.4-.7 18.9-1.1 28.3-.2 5-.4 10.1-.6 15.1-.2 4.5-.4 9-.2 13.4.3 5.3 1.2 11 3.9 15.7l.9 1.5c-1.4 7.4-1.9 14.9-1.2 22.4.6 6 1.8 11.8 3.5 17.5-1.6 1.8-2.8 4-3.5 6.4-1.5 5.1-1.4 10.5-.3 15.6-2.8.5-5.3 2.3-6.5 5-1.2 2.7-1 6 .5 8.6 1.5 2.5 3.7 4.4 5.9 6.2 2 1.7 4.3 3.4 5.7 5.7 0 .3-.1.7-.1 1-.3-1.6-1.5-2.9-3.4-3-6.3-.2-3.8 8.7-5.2 12.1-1 2.6-3.4 4.9-6.3 5.3-2.4.3-4.5-.4-6.5-1.5-.2-.2-.4-.3-.5-.5-1.2-1.2-2.1-3.2-1.6-5 .5-1.8 1.7-2.9 3.6-2.9 1.3 0 2.8.4 3.5 1.6.1.5 0 1-.2 1.4-.6 1.1-2.2-.3-2.5-1-.2-.4-.8-.1-.7.3.5 1.1 2.1 2.7 3.5 1.9 1.2-.7.9-3 .5-4-1.4-3.6-5.6-3.9-8.3-1.8-4.9 3.8-3.6 11.4.2 15.4 4.8 5.1 12.5 5.3 18.6 2.5 1.2-.5 2.3-1.2 3.3-1.9 5.2-3.4 9.2-8.5 14.4-12.1 3.2-2.2 7.1-4.2 11.1-4 3.9.2 8.1 2.1 8.5 6.5.3 3.7-1.9 7.2-5.5 8.5-2.9 1-7.3.9-8.8-2.3-1.7-3.5 1.9-9 6-7.8 1.7.5 3.4 2.5 2.4 4.4-.8 1.4-2.9 1.8-3.9.3-.7-1-2.3-.1-1.6 1 1.5 2.4 4.9 2.5 6.6.4 1.7-2.1 1.1-5.4-1-6.9-5.5-3.9-12.9 3.3-10.1 9.2 2.8 5.9 11.6 4.8 15.3.5 2-2.3 3-5.6 2-8.6-1-2.6-3.6-4.9-6.7-5.5zm-28.3-94c1-2.4 4.3-3.6 6.6-2 1.2.8 2.2 2.5 1.8 4-.4 1.6-1.4 2.9-2.6 3.9-.8.2-1.6.2-2.5-.1-1.7-.5-3.1-1.5-4.1-2.8.2-1.1.4-2.1.8-3zm3.3-229.2c.9-.2 1.7-.2 2.5-.1 1.2 1.1 2.2 2.3 2.6 3.9.3 1.5-.6 3.2-1.8 4-2.2 1.6-5.6.4-6.6-2-.4-.9-.6-2-.8-3.1 1-1.1 2.4-2.2 4.1-2.7zM532.2 90c-.9.5-1.8.6-2.8.4 1 .1 2 0 2.8-.4zm.7-.2c-.8 1.2-2.1 1.9-3.6 1.9-2.4 0-4-1.7-5-3.7.4.7 1 1.4 1.6 1.9 2.1 1.6 5.1 1.5 7-.1zm11.2 3.1c.4.9 1.2 1.2 2.1 1.3 1.1.1 1.3-.8 1.4-1.6.1-.9-1.4-.9-1.5 0v.2c-1.1.3-.8-1.3-.4-1.7.5-.6 1.4-.3 2-.1 1 .4 1.4 1.5 1.5 2.5 0 1.2-.9 2.1-2 2.5-1.2.4-2.4-.1-3.2-1-1.5-1.6-1.3-4.2-1.3-6.2 0-1.7-.2-3.3-.9-4.9-1.1-2.4-3.5-4.2-6.1-4.9 3.2.1 6.3 1.4 8.7 3.4 2.5 2.1 4 5.1 4.8 8.2-.5-.7-1.3-1.2-2.4-1.2-1.8 0-3.5 1.6-2.7 3.5zm-8.3-15c-3.2-.2-6.7.7-9 3.1-1.7 1.8-2.2 4.5-1.2 6.7-.5-.7-.9-1.5-1.1-2.3-.9-3.8 1.7-7.5 5.3-8.6 3.5-1.1 7.8-.6 11.3.4 3.6 1.1 6.8 3.4 8.7 6.6 1.6 2.8 2.1 6.2 1.1 9.2-.2-1.3-.5-2.5-.8-3.8-2-6.4-7.5-10.8-14.3-11.3zm9 41.3c-2.3-.3-4.5-1.9-5.6-3.9-1.8-3.3-.5-7.2 1.8-9.9 2.7-3.1 6.6-5.3 9.1-8.5 0 1.9-.2 3.7-.5 5.6-.2 1.4-.6 2.7-.9 4-1-.3-2-.4-3.1-.3-3.5.5-5.1 5.4-1.8 7.3 1 .6 1.9-1 .9-1.6-1.6-.9-.9-3 .5-3.8 1-.5 2-.5 3-.1-.7 2.2-1.5 4.3-2.2 6.5-.4 1.6-.9 3.1-1.2 4.7zm5.6-9.7c2.7 2.8 1.3 7.1-1.8 8.9-.6.3-1.2.6-1.8.7.8-2.8 1.7-5.6 2.1-8.5.1-.7.2-1.3.4-2 .4.3.8.6 1.1.9zm-4.8 24.3c-.7-3.6-.4-7.3.3-10.9.2-.8.3-1.5.5-2.3.3 0 .7-.1 1-.1 3.7-.7 6.4-4.5 5.9-8.2-.3-2.3-1.7-4.3-3.6-5.3.6-2.5 1.2-5.1 1.4-7.7.1-1.3.1-2.6 0-3.9.5-.9.9-1.8 1.2-2.9 1.7-6.4-2.8-12.7-8.4-15.4-5.1-2.5-14.3-3.6-18.5 1.1.9-1.3 2-2.4 3.2-3.3 3.2-2.3 7.4-2.6 11.1-1.9 7.4 1.4 12.9 7.3 16 13.8 3.5 7.4 3.6 15.8 2.3 23.7-1.4 8.6-4.6 16.7-7.4 24.8-.7 1.9-1.3 3.8-1.9 5.8-1.6-2.1-2.6-4.6-3.1-7.3zM541 489.9c-2.3-2.7-3.6-6.5-1.8-9.9 1.1-2.1 3.3-3.6 5.6-3.9.4 1.6.8 3.1 1.3 4.6.7 2.2 1.5 4.3 2.2 6.5-1 .4-2.1.4-3-.1-1.3-.8-2.1-2.8-.5-3.8 1-.6.1-2.2-.9-1.6-3.3 1.9-1.7 6.8 1.8 7.3 1.1.2 2.1 0 3.1-.3.4 1.3.7 2.6.9 4 .3 1.8.5 3.7.5 5.6-2.7-3.1-6.5-5.3-9.2-8.4zm5.8-13.8c.6.1 1.2.3 1.8.7 3.1 1.8 4.5 6.1 1.8 8.9-.3.3-.6.6-1 .9-.1-.7-.3-1.3-.4-2-.5-2.8-1.4-5.7-2.2-8.5zm-5 35.3c.7-1.6.9-3.2.9-4.9 0-2-.2-4.6 1.3-6.2.8-.9 2-1.4 3.2-1 1.1.4 2 1.3 2 2.5 0 1-.5 2.1-1.5 2.5-.6.2-1.5.5-2-.1-.4-.4-.7-2 .4-1.7v.2c.1.9 1.6.9 1.5 0-.1-.9-.3-1.7-1.4-1.6-.9.1-1.7.5-2.1 1.3-.8 1.9 1 3.6 2.8 3.5 1.1 0 1.9-.5 2.4-1.2-.8 3.1-2.3 6.1-4.8 8.2-2.4 2.1-5.6 3.4-8.7 3.4 2.5-.7 4.9-2.5 6-4.9zm-12.3-6.5c.9-.2 1.9-.1 2.8.4-.9-.4-1.9-.5-2.8-.4zm-.1-1.4c1.4 0 2.8.7 3.6 1.9-1.9-1.6-4.9-1.7-6.9-.1-.7.6-1.2 1.2-1.6 1.9.8-2 2.5-3.6 4.9-3.7zm-4.8 6.4c.2-.8.6-1.6 1.1-2.3-1 2.2-.5 4.9 1.2 6.7 2.3 2.4 5.7 3.3 9 3.1 6.8-.5 12.3-4.9 14.3-11.4.4-1.2.7-2.5.8-3.8 1 3 .5 6.5-1.1 9.2-1.9 3.3-5.1 5.5-8.7 6.6-3.5 1.1-7.8 1.6-11.3.4-3.6-1.1-6.2-4.7-5.3-8.5zm15.2 12.4c-3.8.7-7.9.4-11.1-1.9-1.2-.9-2.3-2-3.2-3.3 4.2 4.7 13.4 3.5 18.5 1.1 5.6-2.7 10-8.9 8.4-15.4-.3-1.1-.7-2-1.2-2.9.1-1.3.1-2.6 0-3.9-.2-2.6-.9-5.1-1.4-7.7 1.9-1 3.3-3 3.6-5.3.5-3.7-2.2-7.5-5.9-8.2-.3-.1-.7-.1-1-.1-.2-.8-.4-1.5-.5-2.3-.7-3.6-1-7.3-.3-10.9.5-2.7 1.5-5.2 3.2-7.3.6 1.9 1.2 3.8 1.9 5.8 2.9 8.1 6 16.3 7.4 24.8 1.3 7.9 1.1 16.3-2.3 23.7-3.2 6.5-8.7 12.4-16.1 13.8z"/></svg>