<svg id="Layer_1" xmlns="http://www.w3.org/2000/svg" viewBox="0 0 595.3 595.3"><style>.st0{fill:#231f20}</style><path class="st0" d="M93.2 117.4s0 .1 0 0c-.1.1-.1 0 0 0zm0 360.5s0-.1 0 0c-.1-.1-.1 0 0 0zm473.6-260.1V514h-16.6c-7.7 0-14.2 5.4-15.9 12.7h12.4c11.1 0 20.1 9 20.1 20.1 0 11.1-9 20.1-20.1 20.1-11.1 0-20.1-9-20.1-20.1v-12.4c-7.2 1.7-12.7 8.1-12.7 15.9v16.6H81.3v-16.6c0-7.7-5.4-14.2-12.7-15.9v12.4c0 11.1-9 20.1-20.1 20.1s-20.1-9-20.1-20.1c0-11.1 9-20.1 20.1-20.1h12.4C59.2 519.5 52.8 514 45 514H28.4V81.3H45c7.7 0 14.2-5.4 15.9-12.7H48.5c-11.1 0-20.1-9-20.1-20.1 0-11.1 9-20.1 20.1-20.1s20.1 9 20.1 20.1v12.4c7.2-1.7 12.7-8.1 12.7-15.9V28.4H514V45c0 7.7 5.4 14.2 12.7 15.9V49c0-11 8.7-20.4 19.7-20.5 11.3-.2 20.6 9.1 20.4 20.4-.2 11-9.5 19.7-20.5 19.7h-12c1.7 7.2 8.1 12.7 15.9 12.7h16.6v136.5zM533.9 61.4h12.8c7.1 0 12.8-5.8 12.8-12.8 0-7.1-5.8-12.8-12.8-12.8-7.1 0-12.8 5.8-12.8 12.8v12.8zM424.3 35.7c5.6 1.9 11.5 2.9 17.5 2.9 4.4 0 9-.6 13.3-1.7 1.3-.3 2.5-.7 3.6-1.2h-34.4zm-45.9 0c10.9 1.7 21.5 4.1 31.9 7.1-3-2-5.7-4.4-8.1-7.1h-23.8zm-193.4 7c10.4-3 21-5.3 31.9-7.1h-23.7c-2.5 2.7-5.2 5.1-8.2 7.1zm-48.5-7c1.2.5 2.4.9 3.6 1.2 4.3 1.1 8.8 1.7 13.3 1.7 6 0 11.9-.9 17.5-2.9h-34.4zM61.4 61.4V48.5c0-7.1-5.8-12.8-12.8-12.8-7.1 0-12.8 5.8-12.8 12.8 0 7.1 5.8 12.8 12.8 12.8h12.8zm-25.7 91.7c2.1-6.5 5.5-12.6 10.3-17.7 1.9-2 4.3-4.2 6.7-6.4 1-1.9 2.5-3.6 3.5-5.3 2.1-3.7 2.5-6.9 1-10.9-.1-.2.1-.3.3-.2 2 1 2.9 3.1 2.9 5.2 1-2.5 1.9-5.3 1.1-7.9-.9-3-2.7-4.2-5-6-.2-.2 0-.5.2-.6 5-.6 7.5 5.9 7.1 10.2.7-1.7 1.2-3.4 1.1-5.3-.2-3.2-1.1-6.9-4.4-8.3-3-1.3-5-.4-7.8.4-.2 0-.3-.1-.2-.2 2-4.4 7.7-3 11.2-.1-3-4.5-8.8-7.7-13.8-3.9-6.1 4.6-1.5 11.7 4.5 12.9.3.1.3.5.1.6-8.4 4-13.3-12.2-4.7-16 8.9-3.9 16.3 2.2 18.2 10.2 1.5-4.3 3-8.6 4.6-12.9 2.3-6.4 5.3-14.6 11.5-18.1.4-.2.7.3.5.6-2.6 3.3-5.3 6.3-7.1 10.2-1.8 3.9-3.1 7.8-4.2 11.9-1.3 4.4-2.5 8.8-3.8 13.1-.2.9-.5 1.8-.7 2.7 1.8-3.4 3.4-6.9 4.8-10.5 2.6-6.6 5-13.5 8.8-19.6 3.2-5.1 7.6-10.9 13.5-13.1 4.8-1.8 10.4-1.2 12.7 3.9 1.3 2.7.2 6.1-1.9 9 3-2.3 6.2-4.4 9.3-6.5-.6-.4-1.2-.9-1.5-1.6 0-.1 0-.1.1-.1.7-.1 1.6.1 2.2.4.2.1.5.2.7.3l2.7-1.8c-.6-.4-1.1-.9-1.5-1.5-.1-.1 0-.3.2-.3 1.1-.1 2.2.1 3.3.5 1.1-.7 2.2-1.3 3.3-2-1.1-.4-2.1-.8-2.9-1.7-.1-.1 0-.2.1-.2 1.5-.4 2.9 0 4.5.4.2.1.5.1.7.2 1.5-.9 3.1-1.8 4.6-2.6-2.5-.5-5.1-1.3-7.1-2.6-.1-.1-.1-.3 0-.3 3.7-.6 7.3.8 11 .8 1.4-.7 2.8-1.5 4.2-2.2-.7-.1-1.4-.3-2.1-.5-3.9-.9-8.8-1.3-12.1-3.6-.1-.1-.1-.3 0-.4 3.2-.6 6.4.6 9.6 1.2 2.1.4 4.6 1.2 6.8 1.1 1.4-.1 1.9-.2 2.7-.3 1.1-.5 2.1-1 3.2-1.5-2.5-.5-5-1.3-6.9-2-5.9-2.2-12-3.7-17.8-5.9-.1 0-.1-.1 0-.2 5.2-1.3 10.8 1.2 15.8 2.5 2.7.8 5.5 1.6 8.4 2 2.4.4 5 0 7.4.6 1.7-.7 3.3-1.4 5-2.1-4.3.2-8.6-.2-12.9-1.3-10.1-2.6-20-9.6-30.8-8.7-5.7.5-13.8 4.2-13.2 11.2.3 3.7 3.5 7.9 7.8 6.3 4.3-1.6 3-5.1 2.2-8.3-.1-.4.2-.7.6-.6 4.3 1 3.9 6.6 2 9.6-2.6 4.2-8.5 3.8-12 1.5-4.3-2.7-5.3-9.1-3.4-13.5 2.3-5.3 7.2-9 13-10 14.8-2.5 26.6 8 41 8.9 12 .7 23.5-3.2 32.4-10.8h-5.9c-8.3 4.6-17.8 7.1-27.4 6.5-6.9-.4-16.1-2.2-22.4-6.5h-23.9c-2.6 1.1-4.9 2.5-7.1 4.9-4.8 5.2-6 10.2-6.9 17.1-1.7-7.3 2-16.4 8.1-21.9h-6.1c-1.6 2-2.6 4.3-4 6.6-.1.1-.2.1-.2-.1-.3-2.3.5-4.5 1.7-6.5h-4.1v9.4c0 11.7-8.6 21.5-19.9 23.2v.3h-.3c-1.7 11.3-11.5 19.9-23.2 19.9h-9.4v2.1c1.1-.8 2.4-1.1 3.4.2.2.3 0 .6-.3.7-1.4.6-2.3 2-3.1 3.4v2.4c.8-.7 1.6-1.2 2.6-1.5.6-.2 1.1.5.8 1-1 1.6-2.3 2.9-3.4 4.3v2.5c1-1.1 2.2-2.1 3.6-2.5.4-.1.7.3.5.7-1 2.3-2.9 4.2-4.2 6.3v1.2c.8-1 1.8-2 2.8-2.8.6-.5 1.2.4.9.9-1.1 2.4-2.5 4.6-3.8 7v1.7c1.4-1.8 2.8-3.3 4.3-4.3.6-.4 1.1.3.9.9-1.6 3.4-3.9 6.5-5.2 10.1v1.4c1.6-2.4 3.5-4.5 5.9-5.9.4-.2.7.2.5.5-1.9 3.5-4.6 6.5-6.5 10.1v3.7c2.3-4.8 5.7-9 9.4-11.4.2-.1.4.1.3.3-3.4 4.8-6.8 9.4-8.5 15.1-.3.8-.4 1.7-.6 2.5.5-1.2 1-2.3 1.6-3.3 3.5-6.5 8.7-12.9 15.8-15.7.2-.1.4.2.2.4-5.6 4.8-11 9.5-14.3 16.3-1.7 3.4-3 7.1-3.6 10.9l-.3 2.4v3.2zm63.8-75.4c-2.1-1.8-3.7-1.6-4.5.6-.5 1-.8 2.1-.8 3.2.7 6.4 7.1 1 8.5-.4 1.9-2 5.2-6 3-9-1.9-2.6-5.2-3.5-8.2-2.4-7.7 2.8-12.9 10.3-16.3 17.4-3.4 6.9-5.7 14.2-9 21.1-1.7 3.6-3.9 8.1-6.8 11.5-.1.1-.2.3-.2.4-.1.2-.3.3-.4.4-.5.6-1.1 1.1-1.7 1.6-6.9 9.9-18.3 17-22.6 28.7-2.7 7.5-3.8 15.4-3.8 23.4v2.5c.1-1.5.3-2.9.5-4.4 1.2-9 3-18.4 6.9-26.7.1-.3.5-.1.4.2-1.3 7.2-3 14.3-4.1 21.6 7.5-21.9 20.1-42.5 37.2-60.9.3-.6.5-1.2.8-1.8 1.5-3.8 3-7.5 5-11.1.1-.2.5-.1.4.2-.6 2.8-1.3 5.7-2.2 8.5 1.4-1.4 2.8-2.8 4.3-4.2.5-1.6 1-3.3 1.3-4.9.1-.3.5-.3.6 0 .2.9.3 1.8.4 2.7 1.2-1.1 2.4-2.2 3.7-3.3 0-.7-.1-1.4-.3-2.1-.1-.4.3-.6.6-.4.4.3.7.8 1 1.3 1.7-1.5 3.4-2.9 5.2-4.3-3 1-5.8.4-6.8-3.2-1.2-4.2.7-9.9 5.3-11.2 3.9-1.1 7.4 2.9 5.3 6.5-1 1.7-3.5.2-2.7-1.5zM44.4 449.5c0 .2-.3.4-.4.2-3.9-8.3-5.7-17.7-6.9-26.7-.2-1.5-.4-2.9-.5-4.4v2.5c0 8 1.1 15.9 3.8 23.4 4.2 11.7 15.7 18.9 22.6 28.7.6.5 1.1 1 1.7 1.6.2.1.3.2.4.4.1.1.2.3.2.4 2.9 3.4 5.1 7.9 6.8 11.5 3.3 6.9 5.7 14.2 9 21.1 3.5 7.1 8.6 14.6 16.3 17.4 3 1.1 6.4.2 8.2-2.4 2.2-3.1-1.1-7-3-9-1.4-1.5-7.8-6.9-8.5-.4 0 1.1.2 2.2.8 3.2.9 2.3 2.4 2.5 4.5.6-.9-1.7 1.6-3.2 2.6-1.5 2.1 3.5-1.4 7.5-5.3 6.5-4.6-1.3-6.5-7-5.3-11.2 1-3.5 3.7-4.2 6.8-3.2-1.8-1.4-3.5-2.9-5.2-4.3-.3.5-.7 1-1 1.3-.3.2-.7 0-.6-.4.2-.7.3-1.4.3-2.1-1.2-1.1-2.5-2.2-3.7-3.3-.1.9-.2 1.8-.4 2.7-.1.3-.5.3-.6 0-.4-1.7-.8-3.3-1.3-4.9-1.5-1.4-2.9-2.8-4.3-4.2.9 2.8 1.6 5.7 2.2 8.5.1.2-.3.4-.4.2-2-3.6-3.5-7.3-5-11.1-.2-.6-.5-1.2-.8-1.8-17.1-18.4-29.7-39-37.2-60.9 1.3 7.2 3 14.3 4.2 21.6zm17 84.4H48.5c-7.1 0-12.8 5.8-12.8 12.8 0 7.1 5.8 12.8 12.8 12.8 7.1 0 12.8-5.8 12.8-12.8v-12.8zM171 559.6c-5.6-1.9-11.5-2.9-17.5-2.9-4.4 0-9 .6-13.3 1.7-1.3.3-2.5.7-3.6 1.2H171zm15.7 0c-8.9-7.7-20.4-11.5-32.4-10.8-14.4.8-26.2 11.4-41 8.9-5.7-1-10.7-4.6-13-10-1.9-4.4-.8-10.8 3.4-13.5 3.6-2.3 9.5-2.6 12 1.5 1.8 3 2.3 8.6-2 9.6-.4.1-.7-.2-.6-.6.9-3.2 2.1-6.7-2.2-8.3-4.3-1.6-7.4 2.6-7.8 6.3-.7 7 7.5 10.8 13.2 11.2 10.8.9 20.7-6.1 30.8-8.7 4.2-1.1 8.5-1.5 12.9-1.3-1.7-.7-3.4-1.4-5-2.1-2.4.6-5 .2-7.4.6-2.8.4-5.6 1.3-8.4 2-4.9 1.3-10.6 3.8-15.8 2.5-.1 0-.1-.1 0-.2 5.8-2.2 11.9-3.7 17.8-5.9 1.9-.7 4.4-1.6 6.9-2-1.1-.5-2.1-1-3.2-1.5-.8 0-1.4-.2-2.7-.3-2.2-.1-4.7.7-6.8 1.1-3.1.6-6.4 1.8-9.6 1.2-.2 0-.2-.3 0-.4 3.3-2.3 8.2-2.7 12.1-3.6.7-.2 1.4-.3 2.1-.5-1.4-.7-2.8-1.4-4.2-2.2-3.7 0-7.3 1.4-11 .8-.2 0-.2-.2 0-.3 2-1.3 4.6-2.1 7.1-2.6-1.6-.9-3.1-1.7-4.6-2.6-.2.1-.5.1-.7.2-1.5.4-2.9.7-4.5.4-.1 0-.1-.1-.1-.2.9-.8 1.8-1.3 2.9-1.7-1.1-.7-2.2-1.3-3.3-2-1.1.4-2.2.6-3.3.5-.1 0-.2-.2-.2-.3.4-.6.9-1 1.5-1.5l-2.7-1.8c-.2.1-.4.2-.7.3-.6.3-1.5.6-2.2.4-.1 0-.1-.1-.1-.1.3-.7.9-1.2 1.5-1.6-3.2-2.1-6.3-4.3-9.3-6.5 2.1 2.9 3.2 6.2 1.9 9-2.4 5.1-7.9 5.7-12.7 3.9-5.9-2.2-10.3-8-13.5-13.1-3.8-6.1-6.2-13-8.8-19.6-1.4-3.6-3-7.1-4.8-10.5.2.9.4 1.8.7 2.7 1.3 4.4 2.5 8.8 3.8 13.1 1.2 4.1 2.5 8 4.2 11.9 1.8 3.9 4.5 6.9 7.1 10.2.3.3-.1.8-.5.6-6.2-3.5-9.2-11.7-11.5-18.1-1.5-4.3-3.1-8.6-4.6-12.9-1.9 8-9.3 14.1-18.2 10.2-8.6-3.8-3.6-20 4.7-16 .2.1.2.5-.1.6-6 1.2-10.5 8.4-4.5 12.9 5 3.8 10.9.6 13.8-3.9-3.4 2.8-9.1 4.3-11.2-.1-.1-.1 0-.3.2-.2 2.8.7 4.9 1.6 7.8.4 3.3-1.4 4.2-5.1 4.4-8.3.1-1.9-.4-3.6-1.1-5.3.4 4.2-2.1 10.8-7.1 10.2-.2 0-.5-.4-.2-.6 2.2-1.9 4-3.1 5-6 .8-2.5 0-5.4-1.1-7.9-.1 2.1-.9 4.2-2.9 5.2-.1.1-.4 0-.3-.2 1.4-4 1.1-7.2-1-10.9-1-1.7-2.5-3.5-3.5-5.3-2.4-2.3-4.8-4.4-6.7-6.4-4.8-5.1-8.2-11.1-10.3-17.7v3c.1.8.1 1.6.3 2.4.6 3.8 1.9 7.4 3.6 10.9 3.3 6.8 8.7 11.5 14.3 16.3.2.1 0 .5-.2.4-7.1-2.7-12.2-9.2-15.8-15.7-.5-1-1.1-2.1-1.6-3.3.2.8.4 1.7.6 2.5 1.7 5.7 5.2 10.4 8.5 15.1.1.2-.1.4-.3.3-3.8-2.4-7.1-6.6-9.4-11.4v3.7c1.8 3.6 4.6 6.6 6.5 10.1.2.4-.2.7-.5.5-2.5-1.4-4.4-3.5-5.9-5.9v1.4c1.3 3.6 3.5 6.7 5.2 10.1.2.5-.3 1.2-.9.9-1.5-1-2.9-2.5-4.3-4.3v1.7c1.2 2.3 2.6 4.6 3.8 7 .3.5-.3 1.4-.9.9-1.1-.8-2-1.8-2.8-2.8v1.2c1.3 2.2 3.2 4.1 4.2 6.3.2.4-.1.8-.5.7-1.4-.4-2.6-1.4-3.6-2.5v2.5c1.1 1.4 2.3 2.8 3.4 4.3.3.5-.2 1.2-.8 1-1-.3-1.8-.9-2.6-1.5v2.4c.8 1.4 1.7 2.8 3.1 3.4.3.1.5.4.3.7-.9 1.3-2.3 1-3.4.2v2.1h9.4c11.7 0 21.5 8.6 23.2 19.9h.3v.3c11.3 1.7 19.9 11.5 19.9 23.2v9.4h4.1c-1.2-2-2-4.2-1.7-6.5 0-.1.2-.2.2-.1 1.4 2.2 2.4 4.5 4 6.6h6.1c-6.1-5.5-9.8-14.7-8.1-21.9.9 6.8 2.1 11.8 6.9 17.1 2.1 2.4 4.5 3.7 7.1 4.9H131c6.3-4.3 15.4-6 22.4-6.5 9.6-.6 19.1 1.8 27.4 6.5h5.9zm30.2 0c-10.9-1.7-21.5-4.1-31.9-7.1 3 2 5.7 4.4 8.1 7.1h23.8zm339.7-162.1c0-.8.1-1.6.3-2.4.5-4.3.8-8.6.9-13v-169c-.1-4.4-.4-8.7-.9-13l-.3-2.4C544.8 108.3 449.9 38.2 334.5 37.5h-73.7c-115.4.7-210.3 70.8-222.1 160.3 0 .8-.1 1.6-.3 2.4-.6 5.4-.9 10.8-.9 16.3v162.2c0 5.5.3 10.9.9 16.3l.3 2.4C50.5 487 145.4 557 260.8 557.8h73.7c115.4-.8 210.3-70.8 222.1-160.3zm-60.8 120.1c2.1 1.8 3.7 1.6 4.5-.6.5-1 .8-2.1.8-3.2-.7-6.4-7.1-1-8.5.4-1.9 2-5.2 6-3 9 1.9 2.6 5.2 3.5 8.2 2.4 7.7-2.8 12.9-10.4 16.3-17.4 3.4-6.9 5.7-14.2 9-21.1 1.7-3.6 3.9-8.1 6.8-11.5.1-.1.2-.3.2-.4.1-.2.3-.3.4-.4.5-.6 1.1-1.1 1.7-1.6 6.9-9.9 18.3-17 22.6-28.7 2.7-7.5 3.8-15.4 3.8-23.4v-2.5c-.1 1.5-.3 2.9-.5 4.4-1.2 9-3 18.4-6.9 26.7-.1.3-.5.1-.4-.2 1.3-7.2 3-14.3 4.1-21.6-7.5 21.9-20.1 42.5-37.2 60.9-.3.6-.5 1.2-.8 1.8-1.5 3.8-3 7.5-5 11.1-.1.2-.5.1-.4-.2.6-2.8 1.3-5.7 2.2-8.5-1.4 1.4-2.8 2.8-4.3 4.2-.5 1.6-1 3.3-1.3 4.9-.1.3-.5.3-.6 0-.2-.9-.3-1.8-.4-2.7-1.2 1.1-2.4 2.2-3.7 3.3 0 .7.1 1.4.3 2.1.1.4-.3.6-.6.4-.4-.3-.7-.8-1-1.3-1.7 1.5-3.4 2.9-5.2 4.3 3-1 5.8-.4 6.8 3.2 1.2 4.2-.7 9.9-5.3 11.2-3.9 1.1-7.4-2.9-5.3-6.5 1-1.8 3.5-.3 2.7 1.5zm62.9-343.4c0-8-1.1-15.9-3.8-23.4-4.2-11.7-15.7-18.9-22.6-28.7-.6-.5-1.1-1-1.7-1.6-.2-.1-.3-.2-.4-.4-.1-.1-.2-.3-.2-.4-2.9-3.4-5.1-7.9-6.8-11.5-3.3-6.9-5.7-14.2-9-21.1-3.5-7.1-8.6-14.6-16.3-17.4-3-1.1-6.4-.2-8.2 2.4-2.2 3.1 1.1 7 3 9 1.4 1.5 7.8 6.9 8.5.4 0-1.1-.2-2.2-.8-3.2-.9-2.3-2.4-2.5-4.5-.6.9 1.7-1.6 3.2-2.6 1.5-2.1-3.5 1.4-7.5 5.3-6.5 4.6 1.3 6.5 7 5.3 11.2-1 3.5-3.7 4.2-6.8 3.2 1.8 1.4 3.5 2.9 5.2 4.3.3-.5.7-1 1-1.3.3-.2.7 0 .6.4-.2.7-.3 1.4-.3 2.1 1.2 1.1 2.5 2.2 3.7 3.3.1-.9.2-1.8.4-2.7.1-.3.5-.3.6 0 .4 1.7.8 3.3 1.3 4.9 1.5 1.4 2.9 2.8 4.3 4.2-.9-2.8-1.6-5.7-2.2-8.5-.1-.2.3-.4.4-.2 2 3.6 3.5 7.2 5 11.1.2.6.5 1.2.8 1.8 17.1 18.4 29.7 39 37.2 60.9-1.2-7.2-2.9-14.3-4.1-21.6 0-.2.3-.4.4-.2 3.9 8.3 5.7 17.7 6.9 26.7.2 1.5.4 2.9.5 4.4-.1-.8-.1-1.7-.1-2.5zM410.3 552.6c-10.4 3-21 5.3-31.9 7.1h23.7c2.5-2.7 5.2-5.1 8.2-7.1zm48.5 7c-1.2-.5-2.4-.9-3.6-1.2-4.3-1.1-8.8-1.7-13.3-1.7-6 0-11.9.9-17.5 2.9h34.4zm75.1-25.7v12.8c0 7.1 5.8 12.8 12.8 12.8 7.1 0 12.8-5.8 12.8-12.8 0-7.1-5.8-12.8-12.8-12.8h-12.8zm25.7-91.8c-2.1 6.5-5.5 12.6-10.3 17.7-1.9 2-4.3 4.2-6.7 6.4-1 1.9-2.5 3.6-3.5 5.3-2.1 3.7-2.5 6.9-1 10.9.1.2-.1.3-.3.2-2-1-2.9-3.1-2.9-5.2-1 2.5-1.9 5.3-1.1 7.9.9 3 2.7 4.2 5 6 .2.2 0 .5-.2.6-5 .6-7.5-5.9-7.1-10.2-.7 1.7-1.2 3.4-1.1 5.3.2 3.2 1.1 6.9 4.4 8.3 3 1.3 5 .4 7.8-.4.2 0 .3.1.2.2-2 4.4-7.7 3-11.2.1 3 4.5 8.8 7.7 13.8 3.9 6.1-4.6 1.5-11.7-4.5-12.9-.3-.1-.3-.5-.1-.6 8.4-4 13.3 12.2 4.7 16-8.9 3.9-16.3-2.2-18.2-10.2-1.5 4.3-3 8.6-4.6 12.9-2.3 6.4-5.3 14.6-11.5 18.1-.4.2-.7-.3-.5-.6 2.6-3.3 5.3-6.3 7.1-10.2 1.8-3.9 3.1-7.8 4.2-11.9 1.3-4.4 2.5-8.8 3.8-13.1.2-.9.5-1.8.7-2.7-1.8 3.4-3.4 6.9-4.8 10.5-2.6 6.6-5 13.5-8.8 19.6-3.2 5.1-7.6 10.9-13.5 13.1-4.8 1.8-10.4 1.2-12.7-3.9-1.3-2.7-.2-6.1 1.9-9-3 2.3-6.2 4.4-9.3 6.5.6.4 1.2.9 1.5 1.6 0 .1 0 .1-.1.1-.7.1-1.6-.1-2.2-.4-.2-.1-.5-.2-.7-.3l-2.7 1.8c.6.4 1.1.9 1.5 1.5.1.1 0 .3-.2.3-1.1.1-2.2-.1-3.3-.5-1.1.7-2.2 1.3-3.3 2 1.1.4 2.1.8 2.9 1.7.1.1 0 .2-.1.2-1.5.4-2.9 0-4.5-.4-.2-.1-.5-.1-.7-.2-1.5.9-3.1 1.8-4.6 2.6 2.5.5 5.1 1.3 7.1 2.6.1.1.1.3 0 .3-3.7.6-7.3-.8-11-.8-1.4.7-2.8 1.5-4.2 2.2.7.1 1.4.3 2.1.5 3.9.9 8.8 1.3 12.1 3.6.1.1.1.3 0 .4-3.2.6-6.4-.6-9.6-1.2-2.1-.4-4.6-1.2-6.8-1.1-1.4.1-1.9.2-2.7.3-1.1.5-2.1 1-3.2 1.5 2.5.5 5 1.3 6.9 2 5.9 2.2 12 3.7 17.8 5.9.1 0 .1.1 0 .2-5.2 1.3-10.8-1.2-15.8-2.5-2.7-.8-5.5-1.6-8.4-2-2.4-.4-5 0-7.4-.6-1.7.7-3.3 1.4-5 2.1 4.3-.2 8.6.2 12.9 1.3 10.1 2.6 20 9.6 30.8 8.7 5.7-.5 13.8-4.2 13.2-11.2-.3-3.7-3.5-7.9-7.8-6.3-4.3 1.6-3 5.1-2.2 8.3.1.4-.2.7-.6.6-4.3-1-3.9-6.6-2-9.6 2.6-4.2 8.5-3.8 12-1.5 4.3 2.7 5.3 9.1 3.4 13.5-2.3 5.3-7.2 9-13 10-14.8 2.5-26.6-8-41-8.9-12-.7-23.5 3.2-32.4 10.8h5.9c8.3-4.6 17.8-7.1 27.4-6.5 6.9.4 16.1 2.2 22.4 6.5h23.9c2.6-1.1 4.9-2.5 7.1-4.9 4.8-5.2 6-10.2 6.9-17.1 1.7 7.3-2 16.4-8.1 21.9h6.1c1.6-2 2.6-4.3 4-6.6.1-.1.2-.1.2.1.3 2.3-.5 4.5-1.7 6.5h4.1v-9.4c0-11.7 8.6-21.5 19.9-23.2v-.3h.3c1.7-11.3 11.5-19.9 23.2-19.9h9.4v-2.1c-1.1.8-2.4 1.1-3.4-.2-.2-.3 0-.6.3-.7 1.4-.6 2.3-2 3.1-3.4V498c-.8.7-1.6 1.2-2.6 1.5-.6.2-1.1-.5-.8-1 1-1.6 2.3-2.9 3.4-4.3v-2.5c-1 1.1-2.2 2.1-3.6 2.5-.4.1-.7-.3-.5-.7 1-2.3 2.9-4.2 4.2-6.3V486c-.8 1-1.8 2-2.8 2.8-.6.5-1.2-.4-.9-.9 1.1-2.4 2.5-4.6 3.8-7v-1.7c-1.4 1.8-2.8 3.3-4.3 4.3-.6.4-1.1-.3-.9-.9 1.6-3.4 3.9-6.5 5.2-10.1v-1.4c-1.6 2.4-3.5 4.5-5.9 5.9-.4.2-.7-.2-.5-.5 1.9-3.5 4.6-6.5 6.5-10.1v-3.7c-2.3 4.8-5.7 9-9.4 11.4-.2.1-.4-.1-.3-.3 3.4-4.8 6.8-9.4 8.5-15.1.3-.8.4-1.7.6-2.5-.5 1.2-1 2.3-1.6 3.3-3.5 6.5-8.7 12.9-15.8 15.7-.2.1-.4-.2-.2-.4 5.6-4.8 11-9.5 14.3-16.3 1.7-3.4 3-7.1 3.6-10.9l.3-2.4v-3.1zm0-353.6h-9.4c-11.7 0-21.5-8.6-23.2-19.9h-.3v-.3c-11.3-1.7-19.9-11.5-19.9-23.2v-9.4h-4.1c1.2 2 2 4.2 1.7 6.5 0 .1-.2.2-.2.1-1.4-2.2-2.4-4.5-4-6.6H494c6.1 5.5 9.8 14.7 8.1 21.9-.9-6.8-2.1-11.8-6.9-17.1-2.1-2.4-4.5-3.7-7.1-4.9h-23.9c-6.3 4.3-15.4 6-22.4 6.5-9.6.6-19.1-1.8-27.4-6.5h-5.9c8.9 7.7 20.4 11.5 32.4 10.8 14.4-.8 26.2-11.4 41-8.9 5.7 1 10.7 4.6 13 10 1.9 4.4.8 10.8-3.4 13.5-3.6 2.3-9.5 2.6-12-1.5-1.9-3-2.3-8.6 2-9.6.4-.1.7.2.6.6-.9 3.2-2.1 6.7 2.2 8.3 4.3 1.6 7.4-2.6 7.8-6.3.7-7-7.5-10.8-13.2-11.2-10.8-.9-20.7 6.1-30.8 8.7-4.2 1.1-8.5 1.5-12.9 1.3 1.7.7 3.4 1.4 5 2.1 2.4-.6 5-.2 7.4-.6 2.8-.4 5.6-1.3 8.4-2 4.9-1.3 10.6-3.8 15.8-2.5.1 0 .1.1 0 .2-5.8 2.2-11.9 3.7-17.8 5.9-1.9.7-4.4 1.6-6.9 2 1.1.5 2.1 1 3.2 1.5.8 0 1.4.2 2.7.3 2.2.1 4.7-.7 6.8-1.1 3.1-.6 6.4-1.8 9.6-1.2.2 0 .2.3 0 .4-3.3 2.3-8.2 2.7-12.1 3.6-.7.2-1.4.3-2.1.5 1.4.7 2.8 1.4 4.2 2.2 3.7 0 7.3-1.4 11-.8.2 0 .2.2 0 .3-2 1.3-4.6 2.1-7.1 2.6 1.6.9 3.1 1.7 4.6 2.6.2-.1.5-.1.7-.2 1.5-.4 2.9-.7 4.5-.4.1 0 .1.1.1.2-.9.8-1.8 1.3-2.9 1.7 1.1.7 2.2 1.3 3.3 2 1.1-.4 2.2-.6 3.3-.5.1 0 .2.2.2.3-.4.6-.9 1-1.5 1.5l2.7 1.8c.2-.1.4-.2.7-.3.6-.3 1.5-.6 2.2-.4.1 0 .1.1.1.1-.3.7-.9 1.2-1.5 1.6 3.2 2.1 6.3 4.3 9.3 6.5-2.1-2.9-3.2-6.2-1.9-9 2.4-5.1 7.9-5.7 12.7-3.9 5.9 2.2 10.3 8 13.5 13.1 3.8 6.1 6.2 13 8.8 19.6 1.4 3.6 3 7.1 4.8 10.5-.2-.9-.4-1.8-.7-2.7-1.3-4.4-2.5-8.8-3.8-13.1-1.2-4.1-2.5-8-4.2-11.9-1.8-3.9-4.5-6.9-7.1-10.2-.3-.3.1-.8.5-.6 6.2 3.5 9.2 11.7 11.5 18.1 1.5 4.3 3 8.6 4.6 12.9 1.9-8 9.3-14.1 18.2-10.2 8.6 3.8 3.6 20-4.7 16-.2-.1-.2-.5.1-.6 6-1.2 10.5-8.4 4.5-12.9-5-3.8-10.9-.6-13.8 3.9 3.4-2.8 9.1-4.3 11.2.1.1.1 0 .3-.2.2-2.8-.7-4.9-1.6-7.8-.4-3.3 1.4-4.2 5.1-4.4 8.3-.1 1.9.4 3.6 1.1 5.3-.4-4.2 2.1-10.8 7.1-10.2.2 0 .5.4.2.6-2.2 1.9-4 3.1-5 6-.8 2.5 0 5.4 1.1 7.9.1-2.1.9-4.2 2.9-5.2.1-.1.4 0 .3.2-1.4 4-1.1 7.2 1 10.9 1 1.7 2.5 3.5 3.5 5.3 2.4 2.3 4.8 4.4 6.7 6.4 4.8 5.1 8.2 11.1 10.3 17.7v-3c-.1-.8-.1-1.6-.3-2.4-.6-3.8-1.9-7.4-3.6-10.9-3.3-6.8-8.7-11.5-14.3-16.3-.2-.1 0-.5.2-.4 7.1 2.7 12.2 9.2 15.8 15.7.5 1 1.1 2.1 1.6 3.3-.2-.8-.4-1.7-.6-2.5-1.7-5.7-5.2-10.4-8.5-15.1-.1-.2.1-.4.3-.3 3.8 2.4 7.1 6.6 9.4 11.4v-3.7c-1.8-3.6-4.6-6.6-6.5-10.1-.2-.4.2-.7.5-.5 2.5 1.4 4.4 3.5 5.9 5.9V123c-1.3-3.6-3.5-6.7-5.2-10.1-.2-.5.3-1.2.9-.9 1.5 1 2.9 2.5 4.3 4.3v-1.7c-1.2-2.3-2.6-4.6-3.8-7-.3-.5.3-1.4.9-.9 1.1.8 2 1.8 2.8 2.8v-1.2c-1.3-2.2-3.2-4.1-4.2-6.3-.2-.4.1-.8.5-.7 1.4.4 2.6 1.4 3.6 2.5v-2.5c-1.1-1.4-2.3-2.8-3.4-4.3-.3-.5.2-1.2.8-1 1 .3 1.8.9 2.6 1.5v-2.4c-.8-1.4-1.7-2.8-3.1-3.4-.3-.1-.5-.4-.3-.7.9-1.3 2.3-1 3.4-.2v-2.3zm-57.5 29c.1 0 .1-.1 0 0 0-.1 0 0 0 0zm0 360.4c.1 0 .1-.1 0 0 0-.1 0 0 0 0z"/></svg>