<svg xmlns="http://www.w3.org/2000/svg" viewBox="0 0 595.3 595.3"><path d="M251.6 34.5c-11.4 1.5-22.7 5.4-33.5 9.1C210 46.3 202 49.2 194 52c10.7-5.2 20.7-11.7 29-20.1.4-.4.2-1-.1-1.2.1-1.2-.9-2.6-2.3-2.1-6.1 2.2-12.1 3.2-18 3.4 1.2-3.8.5-8.6-.7-11.8-2.2-5.9-8.4-12-14.3-14.2-.1-.1-.2.1-.1.2.1.2.3.3.4.5.2.2.3.4.5.6.2.2.3.4.5.6 3 3.4 5 6.9 5.6 11.6.3 2.7-.4 5.3-1.5 7.8-1 2.2-2.8 3.2-4.9 3.8-11-1.7-21.9-5.4-32.8-8.9-19.9-9.2-42-10.6-62.8-3.7-8.9 2.9-17.6 7.6-25 13.4-6.3 4.9-13.9 11.4-17.9 18.9-3 4.2-5.4 8.5-7.4 13-2.6 4.3-4.2 9.2-4.9 14.3-5.9 23.6-2.1 49.5 3.6 73.6-.9 2-1.4 4.2-1.8 6.1-1.2 5.5 3.3 17.9-3.4 20.5-.4 0-.9.1-1.3.2 0 0-.1.1 0 .1 2.7 2.4 7.9.3 10.2-1.7.7-.6 1.5-1.5 2.3-2.6 4.1 15.5 8 31 9.6 46.9-.1.6-.3 1.2-.5 1.8-.8-1.5-2.4-2.8-3.9-3.3s-3-.8-4.6-.4c-1.2.3-2.4.6-3.6 1-2.2.6-5.6-1-4.6-3.7.1-.3-.1-.5-.4-.5v-.4c0-.1-.1-.2-.2-.1-5.7 5.4 1.5 15.4 7.9 15.9 4 .3 7.5-1.2 10.2-4 .1 1.6.1 3.2.2 4.7.2 10.1-.9 20.3-3.4 30-2.6 9.8-7.6 18.2-12.6 27-.1.2.1.3.3.2C55.3 278 60.5 257.2 62 240c1.9-21.5-2.7-42.9-8.1-63.5-2.5-9.4-5.2-19.3-7.5-29.4 0-.2 0-.3-.1-.4-1.8-7.8-3.4-15.7-4.4-23.6.1.5.2.9.4 1.4 2.8 9.8 6.6 19.3 10.3 28.7 3.7 9.4 7.4 18.9 10.2 28.6 1.3 4.5 2.4 9.1 3.2 13.7.9 5.1.6 10.3 1.3 15.4 0 .3.4.2.5 0 2.2-8.4.2-18.5-1.5-26.8-2-9.9-5.7-19.4-9.4-28.8-3.7-9.5-7.5-19-10.6-28.7-1.3-4.3-2.5-8.6-3.4-13 7.2 16.7 18.5 31.8 23.5 49.5.3.9 1.3 1 1.8.4.1 0 .3-.1.3-.3 2.4-6.6 2.1-14.8 2.6-21.8.5-6.1 2.1-13.5 1.4-19.8.9-8.9 1.8-17.9 2.6-26.8 1-10.1.3-24.6-6.7-33.1 15.1 10.7 20.4 30 31.4 44.8 11 14.8 29.8 22.3 48 20.2.8-.1 1.2-.8 1.2-1.5.4-.3.6-1 0-1.2-9.9-4.6-18.7-10.1-26.4-17.9-8.6-8.8-14-20.3-20.8-30.4-3.9-5.8-8.5-11.2-14-15.5 1.1.3 2.3.6 3.4.8 10.6 2.5 21.5 3.7 32.4 3.8 7.5 1.2 15.6.9 23 .4.6 0 1.2-.1 1.8-.2 0 .1.1.1.2.1 28.5-1.6 55.1-14.6 82.1-22.8 13.5-4.1 32.8-10.9 44.2.9 3.4 3.5 4.1 9.4 2.4 13.8.7-5.9-3.8-11.4-10.1-10.9-6 .4-10.8 8-7.5 13.4 3.4 5.8 11.3 8.1 16.7 3.3 5.9-5.3 6.6-14.1 1.5-20.4-6.6-7.9-16.7-9.2-26.3-7.9zM42.4 224.3c2.4 1.3 5.2 1.7 7.8 2 1 .1 2 .3 3 .4-1.1.9-2.5 1.7-4.1 2.1-3.7.9-7.2-1-9.2-3.9-.8-1.2-1.1-2.4-1.3-3.7.3.3.6.5.9.7 1.7 1 4.1.3 5.9-.1 2.4-.6 4.3-1 6.5.2 1.1.6 1.7 1.6 2.3 2.6-1 0-2 .1-2.9 0-2.9-.2-5.7-1.1-8.6-1.3-.5-.1-.8.8-.3 1zM195.6 23.5c.3-3.3-.1-6.7-1.3-9.7.9 1.1 1.5 2.4 2 3.7 1.2 3 .7 6.1 1 9.2 0 .1.1.2.2.1 2.1-2.5 1.9-5.9 1.1-8.9 0 .1.1.1.1.2 1.6 2.5 2.4 5.3 2.6 8.2.2 2.2-.5 4-1.4 5.7-2.7 0-5.4-.2-8.1-.5 2.1-2.3 3.6-5.6 3.8-8zM58.1 45.2c4.9-5.8 10.8-10.7 17.2-14.8 13.1-8.5 28.7-13 44.4-12.5 4.2.1 8.4.7 12.6 1.5-14.2-.9-28.3 1.3-41.8 6.3-8.8 3.3-17 7.9-24.6 13.4-2.8 2-5.6 4.3-8.3 6.7.1-.1.3-.3.5-.6zm78.6-23.1c-7-.3-14-.1-20.9.9-12 1.7-23.5 5-34.6 10-2.6 1.2-5.3 2.4-8 3.9 5.6-3.5 11.6-6.4 17.7-8.8 14.6-5.7 30.4-7.7 45.8-6zm-95 136.4c.1-.6.2-1.1.4-1.6.7 2.8 1.4 5.6 2.2 8.4v.1c0 .2 0 .4-.1.6-.6 3.6-2.6 6.6-4.2 9.7 0 .1 0 .1.1.1 2.5-1.7 4-4.1 5.2-6.8.2.8.4 1.7.7 2.5-.4 1.4-1.1 2.7-2 3.8-1.3 1.6-3.2 2.4-5.1 2.9-.7.2-1.5.2-2.3.2 2.7-1.1 4.4-4 4.7-7 .4-4.4-.3-8.6.4-12.9zM40.4 98c.3-5.5.9-10.9 2.1-16.2.7 6.4 2.6 12.8 4.5 18.4 3.2 9.3 6.8 18.4 10.2 27.5 2.3 6.2 4.3 12.8 6.6 19.1.2 1.4.3 2.8.4 4.1-7-16.4-19-35-23.8-52.9zm4.3-20.6c1.5 7.1 4.8 14 7.2 20.7 3.6 9.9 6.5 20.2 8.8 30.5.3 1.2.5 2.5.8 3.7-.2-.5-.4-1-.6-1.4-3.1-8-6.1-16.1-9.2-24.2-3.6-9.9-6.8-19.6-7-29.3zm21.7 66.8c-.4-.8-.7-1.7-1.1-2.6-.2-1.5-.5-2.9-.7-4.4-1.5-9.8-3.7-19.6-6.6-29.1-2.8-9.4-6.9-18.4-9.7-27.9-1.1-3.8-1.7-7.7-1.6-11.7.1-.3.2-.5.3-.8.5 2.5 1.3 5 2.3 7.5C52.8 83.5 57 91.3 60 99.9c3.2 9.2 5.6 18 6.4 27.8.4 5.5.2 11 0 16.5zm.4 13.1zm-3.1-51c-1.4-7.7-4.6-15.1-7.9-22.2-2.8-6.1-6.2-11.9-7.3-18.2.9 3.3 2.5 6.6 3.9 9.3 4.4 8.7 8.3 17.3 10.9 26.8 1.9 6.8 3 13.8 3.6 20.9-1.1-5.6-2.2-11.2-3.2-16.6zm6.7 13.9c-.4 1.2-.7 2.5-.9 3.9-.3-4.8-.9-9.7-1.8-14.4-1.5-8.6-4.2-17-7.6-25.1-1.8-4.2-4-8.3-6.1-12.4-2-4-2.9-7.5-3-11.5.6-.3 1.1-.5 1.7-.8 3.2 5.3 6.4 10.6 9 16.3 3.5 7.6 5.8 15.7 7.3 23.9 1.2 6.3 1.6 12.7 1.6 19.1-.2.4-.2.7-.2 1zm1.5-16.1c-.1.9-.2 1.7-.2 2.6-.2-1.8-.4-3.6-.7-5.4C68.7 87 63.3 71 53.9 59.4c.8-.4 1.6-.7 2.4-1 20.3 5.7 17.2 29.2 15.6 45.7zm16-40.2c8.2 6.7 13.7 16.2 19.2 25.1 8.6 13.9 19.8 26.4 34.5 33.5-5.6-1.9-11.1-3.8-16.4-6.9-3.1-1.8-6.2-3.9-9.1-6.1-3.3-2.5-6-5.6-9.3-8.1-.2-.2-.5.1-.3.3 3.6 6.7 11.1 12.2 17.4 16.1 4 2.5 8.6 4.8 13.3 6.4-6.5-.6-12.8-2.4-18.8-5.5-10.1-5.1-17.1-13.8-22.9-23.3-7.8-12.9-15.2-30.2-29.7-36.7-.5-.4-1.1-.8-1.6-1.2 5.3 1.4 10.3 4.1 14.8 7.2 9 6.3 16.8 15.9 21.2 26h.1C96.8 79.8 90.6 71 81.5 63.8c-3.7-2.9-7.8-5.4-12-7.4 1.6.1 3.2.3 4.7.6 5.1 1.1 9.6 3.6 13.7 6.9zm-6.4-8.1h-.2c-1.2-.7-2.7-1.3-4.4-1.9 2.3 0 4.7 0 7.2.3 11.2 1.2 22.2 4.5 33.1 7.4-12.1-.7-23.8-3-35.7-5.8zm51 5.6c-4-.3-8-.7-12.1-.9-12.5-3.5-25.4-7-38.2-8.4-3.9-.4-7.9-.4-12 0-.8-.1-1.6-.3-2.4-.3-.1-.1-.3-.2-.4-.3 2.1-.8 4.1-1.5 6.2-2.1 8.4-2.5 17-2.5 25.6-3.4.2 0 .3-.3 0-.3-7.9-1.2-16.3-.3-24.2.6-1.6.2-3.2.4-4.9.6 3.8-1.6 7.7-2.9 11.8-3.9 6-1.5 12.3-2.2 18.5-2.3 5.7-.1 11.8 1.7 17.4 1 .3 0 .5-.5.2-.7-4.3-2.9-10.9-3-15.9-3.3-6.5-.4-13.1.2-19.5 1.3-5.5 1-10.9 2.7-16.2 4.9 4.7-3 9.6-5.7 14.6-8.1 11.6-5.5 24.1-9 36.8-10.5 13.1-1.6 26.5-.7 39.8 1.8 9.7 3.3 19.5 6.7 29.3 8.5-2.5.2-5 .2-7.5.3-7.7.1-15.1-1.2-22.8-1.9-.2 0-.2.3 0 .4 7.2 2.5 15.2 3.2 22.8 3.7 2.8.2 6.1.4 9.5.4-4 1.2-8 2.2-12.2 2.9-5.8 1-11.8 1.6-17.7 1.8-5.4.2-11-.9-16.3 0-.1 0-.1.1 0 .2 4.4 1.9 9.7 1.7 14.5 1.8 6 .2 12-.2 18-.9 7.7-1 15.8-2.7 23.4-5.3-.5.2-.9.5-1.4.7-4.6 2.3-9.5 4-14.3 5.7-8.9 3.1-18.2 3.5-27.2 6-.1 0-.1.2 0 .2 9 1.2 19.2-1.7 27.8-4.1 2.8-.8 5.6-1.8 8.4-2.9-18.5 9.5-38.7 15.2-59.4 16.8zm30.9-1.8c17.5-4.9 34.1-13.1 48.6-23.9.2-.1.3-.3.4-.4 2-.5 4.1-1.1 6.1-1.9-13.4 10.5-27.6 19.1-44.2 23.7-3.6.9-7.3 1.8-10.9 2.5zM319 62.8c5.4 4.8 13.3 2.4 16.7-3.3 3.2-5.4-1.5-13-7.5-13.4-6.3-.4-10.8 5-10.1 10.9-1.7-4.4-1-10.3 2.4-13.8 11.4-11.8 30.7-5 44.2-.9 27 8.2 53.6 21.1 82.1 22.8.1 0 .1 0 .2-.1.6.1 1.2.1 1.8.2 7.4.5 15.5.8 23-.4 10.9-.1 21.8-1.2 32.4-3.8 1.1-.3 2.3-.6 3.4-.8-5.5 4.3-10.1 9.6-14 15.5-6.8 10.1-12.2 21.6-20.8 30.4-7.6 7.9-16.5 13.4-26.4 17.9-.5.2-.4 1 0 1.2 0 .6.3 1.4 1.2 1.5 18.2 2.1 37-5.4 48-20.2 11-14.8 16.3-34.2 31.4-44.8-7 8.6-7.6 23-6.7 33.1.9 8.9 1.7 17.9 2.6 26.8-.7 6.3 1 13.6 1.4 19.8.5 7 .2 15.1 2.6 21.8l.3.3c.5.6 1.6.6 1.8-.4 5-17.7 16.3-32.8 23.5-49.5-.9 4.4-2 8.7-3.4 13-3.1 9.7-6.9 19.2-10.6 28.7-3.6 9.3-7.4 18.9-9.4 28.8-1.7 8.3-3.7 18.5-1.5 26.8.1.2.4.3.5 0 .8-5.1.4-10.3 1.3-15.4.8-4.6 1.9-9.2 3.2-13.7 2.8-9.7 6.5-19.2 10.2-28.6 3.7-9.5 7.6-18.9 10.3-28.7.1-.5.3-.9.4-1.4-1 7.9-2.6 15.8-4.4 23.6-.1.1-.1.3-.1.4-2.3 10.1-5 20-7.5 29.4-5.4 20.7-10 42.1-8.1 63.5 1.5 17.2 6.7 37.9 20.7 49.4.1.1.4 0 .3-.2-5-8.7-10-17.1-12.6-27-2.5-9.8-3.6-19.9-3.4-30 0-1.6.1-3.2.2-4.7 2.7 2.8 6.2 4.2 10.2 4 6.5-.4 13.6-10.5 7.9-15.9-.1-.1-.2 0-.2.1v.4c-.2 0-.5.2-.4.5 1 2.7-2.4 4.4-4.6 3.7-1.2-.3-2.4-.7-3.6-1-1.6-.4-3.1-.1-4.6.4-1.5.5-3.1 1.8-3.9 3.3-.2-.6-.3-1.1-.5-1.8 1.5-15.9 5.4-31.5 9.6-46.9.8 1.1 1.6 2 2.3 2.6 2.3 2 7.5 4.1 10.2 1.7v-.1c-.4-.1-.9-.2-1.3-.2-6.8-2.6-2.2-15-3.4-20.5-.4-1.9-1-4.1-1.8-6.1 5.7-24.2 9.5-50 3.6-73.6-.8-5.1-2.4-10.1-4.9-14.3-2-4.5-4.5-8.8-7.4-13-3.9-7.5-11.6-14-17.9-18.9-7.4-5.8-16-10.4-25-13.4-20.8-6.9-42.9-5.4-62.8 3.7-10.9 3.5-21.8 7.2-32.8 8.9-2-.6-3.9-1.6-4.9-3.8-1.1-2.5-1.9-5.1-1.5-7.8.5-4.7 2.6-8.2 5.6-11.6.2-.2.3-.4.5-.6.2-.2.3-.4.5-.6.1-.2.3-.3.4-.5.1-.1 0-.3-.1-.2-5.9 2.1-12.1 8.3-14.3 14.2-1.2 3.3-1.9 8.1-.7 11.8-5.9-.2-11.9-1.2-18-3.4-1.4-.5-2.4.9-2.3 2.1-.4.3-.6.8-.1 1.2 8.2 8.3 18.3 14.9 29 20.1-8-2.7-16.1-5.6-24.1-8.4-10.8-3.7-22.1-7.7-33.5-9.1-9.6-1.2-19.7 0-26.2 8-5.2 6.2-4.6 15 1.4 20.3zm224.3 159.1c2.3-1.2 4.1-.8 6.5-.2 1.7.4 4.2 1.1 5.9.1.3-.2.6-.4.9-.7-.1 1.2-.5 2.5-1.3 3.7-2 3-5.6 4.9-9.2 3.9-1.6-.4-3-1.1-4.1-2.1 1-.1 2.1-.3 3-.4 2.6-.3 5.5-.7 7.8-2 .5-.3.3-1.1-.3-1-2.9.2-5.7 1.1-8.6 1.3H541c.6-1 1.2-2 2.3-2.6zM478.2 61.6c10.9-2.9 21.9-6.2 33.1-7.4 2.5-.3 4.8-.4 7.2-.3-1.7.6-3.2 1.3-4.4 1.9h-.2c-12 2.8-23.7 5.1-35.7 5.8zm21.7 33.9c-5.8 9.5-12.7 18.2-22.9 23.3-6 3-12.3 4.9-18.8 5.5 4.7-1.6 9.3-3.9 13.3-6.4 6.3-4 13.8-9.5 17.4-16.1.1-.2-.1-.5-.3-.3-3.3 2.5-6 5.6-9.3 8.1-2.9 2.2-5.9 4.3-9.1 6.1-5.3 3.1-10.8 5-16.4 6.9 14.8-7.1 25.9-19.6 34.5-33.5 5.5-8.9 11-18.4 19.2-25.1 4.1-3.3 8.6-5.8 13.7-6.9 1.6-.3 3.1-.5 4.7-.6-4.3 2-8.4 4.5-12 7.4-9.1 7.1-15.2 16-18.8 26.9 0 0 .1.1.1 0 4.4-10.1 12.1-19.7 21.3-25.9 4.5-3.1 9.5-5.8 14.8-7.2-.6.4-1.1.8-1.6 1.2-14.6 6.4-22 23.7-29.8 36.6zm28.6 61.8zm30.2 20.9c-.8 0-1.5 0-2.3-.2-1.9-.5-3.8-1.3-5.1-2.9-.9-1.1-1.6-2.4-2-3.8.2-.8.4-1.7.7-2.5 1.2 2.7 2.6 5.2 5.2 6.8.1 0 .1 0 .1-.1-1.6-3.2-3.6-6.1-4.2-9.7 0-.2 0-.4-.1-.6v-.1c.7-2.8 1.5-5.6 2.2-8.4.2.5.3 1.1.4 1.6.7 4.3 0 8.5.4 12.8.3 3.2 2 6 4.7 7.1zM554.8 98c-4.8 17.8-16.7 36.5-23.9 53 .1-1.4.3-2.8.4-4.1 2.4-6.3 4.3-12.9 6.6-19.1 3.4-9.2 7-18.3 10.2-27.5 1.9-5.6 3.8-12 4.5-18.4 1.3 5.2 2 10.7 2.2 16.1zm-11.3 8.6c-3 8.1-6 16.2-9.2 24.2-.2.5-.4 1-.6 1.4.2-1.2.5-2.5.8-3.7 2.3-10.3 5.1-20.5 8.8-30.5 2.5-6.7 5.7-13.6 7.2-20.7-.1 9.8-3.3 19.5-7 29.3zm5-38.1c.1 3.9-.5 7.9-1.6 11.7-2.8 9.4-6.9 18.4-9.7 27.9-2.8 9.5-5.1 19.3-6.6 29.1-.2 1.4-.5 2.9-.7 4.4-.4.9-.7 1.8-1.1 2.7-.3-5.5-.5-11 0-16.5.8-9.8 3.2-18.6 6.4-27.8 3-8.6 7.2-16.4 10.6-24.7 1-2.4 1.8-4.9 2.3-7.5.2.1.3.4.4.7zm-1.7-2.6c-1.2 6.3-4.5 12.2-7.3 18.2-3.3 7.1-6.5 14.5-7.9 22.2-1 5.4-2.1 11-3.1 16.5.6-7.1 1.7-14.1 3.6-20.9 2.6-9.4 6.5-18.1 10.9-26.8 1.3-2.6 2.9-5.9 3.8-9.2zm-2.5-5.1c-.1 3.9-1 7.4-3 11.5-2.1 4.1-4.3 8.1-6.1 12.4-3.4 8.1-6.1 16.4-7.6 25.1-.8 4.8-1.4 9.6-1.8 14.4-.2-1.3-.5-2.6-.9-3.9 0-.3-.1-.6-.1-1-.1-6.4.4-12.8 1.6-19.1 1.5-8.2 3.8-16.3 7.3-23.9 2.6-5.7 5.8-11 9-16.3.5.2 1.1.5 1.6.8zm-2.9-1.4C532 71 526.6 87 524.3 101.2c-.3 1.8-.5 3.6-.7 5.4-.1-.9-.2-1.7-.2-2.6-1.6-16.4-4.7-40 15.6-45.7.8.4 1.6.7 2.4 1.1zM475.7 18c15.6-.5 31.3 3.9 44.4 12.5 6.3 4.1 12.2 9 17.2 14.8.2.2.4.5.6.7-2.7-2.5-5.5-4.7-8.3-6.7-7.6-5.5-15.8-10.1-24.6-13.4-13.4-5-27.6-7.2-41.8-6.3 4.2-.9 8.3-1.5 12.5-1.6zm28.6 10c6.2 2.4 12.1 5.3 17.7 8.8-2.7-1.4-5.5-2.7-8-3.9-11-5-22.6-8.3-34.6-10-6.9-1-13.9-1.2-20.9-.9 15.5-1.6 31.3.4 45.8 6zm-51.7 15c-5.3-.9-10.9.2-16.3 0-5.9-.2-11.8-.8-17.7-1.8-4.2-.8-8.3-1.8-12.2-2.9 3.3 0 6.7-.3 9.5-.4 7.6-.4 15.6-1.2 22.8-3.7.2-.1.2-.4 0-.4-7.6.7-15.1 2-22.8 1.9-2.5 0-5-.1-7.5-.3 9.8-1.8 19.5-5.1 29.3-8.5 13.2-2.5 26.7-3.4 39.8-1.8 12.7 1.5 25.3 5 36.8 10.5 5 2.4 9.9 5.1 14.6 8.1-5.2-2.2-10.7-3.9-16.2-4.9-6.4-1.2-13-1.8-19.5-1.3-5.1.3-11.6.4-15.9 3.3-.3.2-.2.6.2.7 5.6.7 11.7-1.1 17.4-1 6.2.1 12.4.8 18.5 2.3 4.1 1 8.1 2.3 11.8 3.9-1.7-.2-3.4-.4-4.9-.6-7.9-1-16.3-1.9-24.2-.6-.2 0-.1.3 0 .3 8.6 1 17.2 1 25.6 3.4 2 .6 4.1 1.3 6.2 2.1-.1.1-.3.2-.4.3l-2.4.3c-4.1-.5-8.1-.5-12 0-12.8 1.4-25.7 4.9-38.2 8.4-4.1.2-8.1.6-12.1.9-20.7-1.5-41-7.3-59.2-17 2.7 1.1 5.5 2.1 8.4 2.9 8.6 2.4 18.8 5.3 27.8 4.1.1 0 .1-.2 0-.2-9-2.5-18.3-2.9-27.2-6-4.9-1.7-9.7-3.4-14.3-5.7-.5-.2-.9-.5-1.4-.7 7.6 2.6 15.6 4.4 23.4 5.3 6 .7 12 1.1 18 .9 4.7-.1 10 .1 14.5-1.8-.1.1-.1 0-.2 0zm-58.8-16.7c.3-2.9 1-5.7 2.6-8.2 0-.1.1-.1.1-.2-.7 3-1 6.5 1.1 8.9.1.1.2 0 .2-.1.3-3.1-.2-6.2 1-9.2.5-1.3 1.2-2.6 2-3.7-1.2 3-1.6 6.4-1.3 9.7.2 2.3 1.6 5.7 3.7 8-2.7.3-5.4.5-8.1.5-.8-1.7-1.5-3.5-1.3-5.7zm-17 7.1c2 .8 4.1 1.4 6.1 1.9.1.1.2.3.4.4 14.5 10.8 31.1 19 48.6 23.9-3.7-.7-7.3-1.5-10.9-2.5-16.6-4.6-30.8-13.2-44.2-23.7zM276.3 532.5c-5.4-4.8-13.3-2.4-16.7 3.3-3.2 5.4 1.5 13 7.5 13.4 6.3.4 10.8-5 10.1-10.9 1.7 4.4 1 10.3-2.4 13.8-11.4 11.8-30.7 5-44.2.9-27-8.2-53.6-21.1-82.1-22.8-.1 0-.1 0-.2.1-.6 0-1.2-.1-1.8-.2-7.4-.5-15.5-.8-23 .4-10.9.1-21.8 1.2-32.4 3.8-1.1.3-2.3.6-3.4.8 5.5-4.3 10.1-9.6 14-15.5 6.8-10.1 12.2-21.6 20.8-30.4 7.6-7.9 16.5-13.4 26.4-17.9.5-.2.4-1 0-1.2 0-.6-.3-1.4-1.2-1.5-18.2-2.1-37 5.4-48 20.2-11 14.8-16.3 34.2-31.4 44.8 7-8.6 7.6-23 6.7-33.1-.9-8.9-1.7-17.9-2.6-26.8.7-6.3-1-13.6-1.4-19.8-.5-7-.2-15.1-2.6-21.8l-.3-.3c-.5-.6-1.6-.6-1.8.4-5 17.7-16.3 32.8-23.5 49.5.9-4.4 2-8.7 3.4-13 3.1-9.7 6.9-19.2 10.6-28.7 3.6-9.3 7.4-18.9 9.4-28.8 1.7-8.3 3.7-18.5 1.5-26.8-.1-.2-.4-.3-.5 0-.8 5.1-.4 10.3-1.3 15.4-.8 4.6-1.9 9.2-3.2 13.7-2.8 9.7-6.5 19.2-10.2 28.6-3.7 9.5-7.6 18.9-10.3 28.7-.1.5-.3.9-.4 1.4 1-7.9 2.6-15.8 4.4-23.6.1-.1.1-.3.1-.4 2.3-10.1 5-20 7.5-29.4 5.4-20.7 10-42.1 8.1-63.5-1.5-17.2-6.7-37.9-20.7-49.4-.1-.1-.4 0-.3.2 5 8.7 10 17.1 12.6 27 2.5 9.8 3.6 19.9 3.4 30 0 1.6-.1 3.2-.2 4.7-2.7-2.8-6.2-4.2-10.2-4-6.5.4-13.6 10.5-7.9 15.9.1.1.2 0 .2-.1v-.4c.2 0 .5-.2.4-.5-1-2.7 2.4-4.4 4.6-3.7 1.2.3 2.4.7 3.6 1 1.6.4 3.1.1 4.6-.4 1.5-.5 3.1-1.8 3.9-3.3.2.6.3 1.1.5 1.8-1.5 15.9-5.4 31.5-9.6 46.9-.8-1.1-1.6-2-2.3-2.6-2.3-2-7.5-4.1-10.2-1.7v.1c.4.1.9.2 1.3.2 6.8 2.6 2.2 15 3.4 20.5.4 1.9 1 4.1 1.8 6.1-5.7 24.2-9.5 50-3.6 73.6.8 5.1 2.4 10.1 4.9 14.3 2 4.5 4.5 8.8 7.4 13 3.9 7.5 11.6 14 17.9 18.9 7.4 5.8 16 10.4 25 13.4 20.8 6.9 42.9 5.4 62.8-3.7 10.9-3.5 21.8-7.2 32.8-8.9 2 .6 3.9 1.6 4.9 3.8 1.1 2.5 1.9 5.1 1.5 7.8-.5 4.7-2.6 8.2-5.6 11.6-.2.2-.3.4-.5.6-.2.2-.3.4-.5.6-.1.2-.3.3-.4.5-.1.1 0 .3.1.2 5.9-2.1 12.1-8.3 14.3-14.2 1.2-3.3 1.9-8.1.7-11.8 5.9.2 11.9 1.2 18 3.4 1.4.5 2.4-.9 2.3-2.1.4-.3.6-.8.1-1.2-8.2-8.3-18.3-14.9-29-20.1 8 2.7 16.1 5.6 24.1 8.4 10.8 3.7 22.1 7.7 33.5 9.1 9.6 1.2 19.7 0 26.2-8 5.2-6.2 4.5-15-1.4-20.3zM52 373.3c-2.3 1.2-4.1.8-6.5.2-1.7-.4-4.2-1.1-5.9-.1-.3.2-.6.4-.9.7.1-1.2.5-2.5 1.3-3.7 2-3 5.6-4.9 9.2-3.9 1.6.4 3 1.1 4.1 2.1-1 .1-2.1.3-3 .4-2.6.3-5.5.7-7.8 2-.5.3-.3 1.1.3 1 2.9-.2 5.7-1.1 8.6-1.3h2.9c-.6 1.1-1.2 2.1-2.3 2.6zm65.1 160.4c-10.9 2.9-21.9 6.2-33.1 7.4-2.5.3-4.8.4-7.2.3 1.7-.6 3.2-1.3 4.4-1.9h.2c12-2.8 23.7-5.2 35.7-5.8zm-21.7-33.9c5.8-9.5 12.7-18.2 22.9-23.3 6-3 12.3-4.9 18.8-5.5-4.7 1.6-9.3 3.9-13.3 6.4-6.3 4-13.8 9.5-17.4 16.1-.1.2.1.5.3.3 3.3-2.5 6-5.6 9.3-8.1 2.9-2.2 5.9-4.3 9.1-6.1 5.3-3.1 10.8-5 16.4-6.9-14.8 7.1-25.9 19.6-34.5 33.5-5.5 8.9-11 18.4-19.2 25.1-4.1 3.3-8.6 5.8-13.7 6.9-1.6.3-3.1.5-4.7.6 4.3-2 8.4-4.5 12-7.4 9.1-7.1 15.2-16 18.8-26.9 0-.1-.1-.1-.1 0-4.4 10.1-12.1 19.7-21.3 25.9-4.5 3.1-9.5 5.8-14.8 7.2.6-.4 1.1-.8 1.6-1.2 14.6-6.5 22-23.8 29.8-36.6zM66.8 438zm-30.3-21c.8 0 1.5 0 2.3.2 1.9.5 3.8 1.3 5.1 2.9.9 1.1 1.6 2.4 2 3.8-.2.8-.4 1.7-.7 2.5-1.2-2.7-2.6-5.2-5.2-6.8-.1 0-.1 0-.1.1 1.6 3.2 3.6 6.1 4.2 9.7 0 .2 0 .4.1.6v.1c-.7 2.8-1.5 5.6-2.2 8.4-.2-.5-.3-1.1-.4-1.6-.7-4.3 0-8.5-.4-12.8-.2-3.1-1.9-6-4.7-7.1zm3.9 80.2c4.8-17.8 16.7-36.5 23.9-53-.1 1.4-.3 2.8-.4 4.1-2.4 6.3-4.3 12.9-6.6 19.1-3.4 9.2-7 18.3-10.2 27.5-1.9 5.6-3.8 12-4.5 18.4-1.2-5.2-1.9-10.6-2.2-16.1zm11.4-8.5c3-8.1 6-16.2 9.2-24.2.2-.5.4-1 .6-1.4-.2 1.2-.5 2.5-.8 3.7-2.3 10.3-5.1 20.5-8.8 30.5-2.5 6.7-5.7 13.6-7.2 20.7.1-9.8 3.3-19.5 7-29.3zm-5.1 38.1c-.1-3.9.5-7.9 1.6-11.7 2.8-9.4 6.9-18.4 9.7-27.9 2.8-9.5 5.1-19.3 6.6-29.1.2-1.4.5-2.9.7-4.4.4-.9.7-1.8 1.1-2.7.3 5.5.5 11 0 16.5-.8 9.8-3.2 18.6-6.4 27.8-3 8.6-7.2 16.4-10.6 24.7-1 2.4-1.8 4.9-2.3 7.5-.1-.2-.2-.4-.4-.7zm1.8 2.6c1.2-6.3 4.5-12.2 7.3-18.2 3.3-7.1 6.5-14.5 7.9-22.2 1-5.4 2.1-11 3.1-16.5-.6 7.1-1.7 14.1-3.6 20.9-2.6 9.4-6.5 18.1-10.9 26.8-1.3 2.6-2.9 5.9-3.8 9.2zm2.5 5.1c.1-3.9 1-7.4 3-11.5 2.1-4.1 4.3-8.1 6.1-12.4 3.4-8.1 6.1-16.4 7.6-25.1.8-4.8 1.4-9.6 1.8-14.4.2 1.3.5 2.6.9 3.9 0 .3.1.6.1 1 .1 6.4-.4 12.8-1.6 19.1-1.5 8.2-3.8 16.3-7.3 23.9-2.6 5.7-5.8 11-9 16.3-.5-.3-1.1-.5-1.6-.8zm2.9 1.4c9.4-11.6 14.8-27.6 17.1-41.9.3-1.8.5-3.6.7-5.4.1.9.2 1.7.2 2.6 1.6 16.4 4.7 40-15.6 45.7-.8-.3-1.6-.7-2.4-1zm65.7 41.4c-15.6.5-31.3-3.9-44.4-12.5-6.3-4.1-12.2-9-17.2-14.8-.2-.2-.4-.5-.6-.7 2.7 2.5 5.5 4.7 8.3 6.7 7.6 5.5 15.8 10.1 24.6 13.4 13.4 5 27.6 7.2 41.8 6.3-4.2.9-8.4 1.5-12.5 1.6zm-28.7-10c-6.2-2.4-12.1-5.3-17.7-8.8 2.7 1.4 5.5 2.7 8 3.9 11 5 22.6 8.3 34.6 10 6.9 1 13.9 1.2 20.9.9-15.4 1.6-31.2-.4-45.8-6zm51.7-15c5.3.9 10.9-.2 16.3 0 5.9.2 11.8.8 17.7 1.8 4.2.8 8.3 1.8 12.2 2.9-3.3 0-6.7.3-9.5.4-7.6.4-15.6 1.2-22.8 3.7-.2.1-.2.4 0 .4 7.6-.7 15.1-2 22.8-1.9 2.5 0 5 .1 7.5.3-9.8 1.8-19.5 5.1-29.3 8.5-13.2 2.5-26.7 3.4-39.8 1.8-12.7-1.5-25.3-5-36.8-10.5-5-2.4-9.9-5.1-14.6-8.1 5.2 2.2 10.7 3.9 16.2 4.9 6.4 1.2 13 1.8 19.5 1.3 5.1-.3 11.6-.4 15.9-3.3.3-.2.2-.6-.2-.7-5.6-.7-11.7 1.1-17.4 1-6.2-.1-12.4-.8-18.5-2.3-4.1-1-8.1-2.3-11.8-3.9 1.7.2 3.4.4 4.9.6 7.9 1 16.3 1.9 24.2.6.2 0 .1-.3 0-.3-8.6-1-17.2-1-25.6-3.4-2-.6-4.1-1.3-6.2-2.1.1-.1.3-.2.4-.3l2.4-.3c4.1.5 8.1.5 12 0 12.8-1.4 25.7-4.9 38.2-8.4 4.1-.2 8.1-.6 12.1-.9 20.7 1.5 41 7.3 59.2 17-2.7-1.1-5.5-2.1-8.4-2.9-8.6-2.4-18.8-5.3-27.8-4.1-.1 0-.1.2 0 .2 9 2.5 18.3 2.9 27.2 6 4.9 1.7 9.7 3.4 14.3 5.7.5.2.9.5 1.4.7-7.6-2.6-15.6-4.4-23.4-5.3-6-.7-12-1.1-18-.9-4.7.1-10-.1-14.5 1.8.1-.1.2 0 .2 0zm58.9 16.7c-.3 2.9-1 5.7-2.6 8.2 0 .1-.1.1-.1.2.7-3 1-6.5-1.1-8.9-.1-.1-.2 0-.2.1-.3 3.1.2 6.2-1 9.2-.5 1.3-1.2 2.6-2 3.7 1.2-3 1.6-6.4 1.3-9.7-.2-2.3-1.6-5.7-3.7-8 2.7-.3 5.4-.5 8.1-.5.7 1.7 1.5 3.5 1.3 5.7zm17-7.1c-2-.8-4.1-1.4-6.1-1.9-.1-.1-.2-.3-.4-.4-14.5-10.8-31.1-19-48.6-23.9 3.7.7 7.3 1.5 10.9 2.5 16.6 4.6 30.8 13.2 44.2 23.7zM559.7 417c.4 0 .9-.1 1.3-.2 0 0 .1-.1 0-.1-2.7-2.4-7.9-.3-10.2 1.7-.7.6-1.5 1.5-2.3 2.6-4.1-15.5-8-31-9.6-46.9.1-.6.3-1.2.5-1.8.8 1.5 2.4 2.8 3.9 3.3s3 .8 4.6.4c1.2-.3 2.4-.6 3.6-1 2.2-.6 5.6 1 4.6 3.7-.1.3.1.5.4.5v.4c0 .1.1.2.2.1 5.7-5.4-1.5-15.4-7.9-15.9-4-.3-7.5 1.2-10.2 4-.1-1.6-.1-3.2-.2-4.7-.2-10.1.9-20.3 3.4-30 2.6-9.8 7.6-18.2 12.6-27 .1-.2-.1-.3-.3-.2-14 11.4-19.2 32.2-20.7 49.4-1.9 21.5 2.7 42.9 8.1 63.5 2.5 9.4 5.2 19.3 7.5 29.4 0 .2 0 .3.1.4 1.8 7.8 3.4 15.7 4.4 23.6-.1-.5-.2-.9-.4-1.4-2.8-9.8-6.6-19.3-10.3-28.7-3.7-9.4-7.4-18.9-10.2-28.6-1.3-4.5-2.4-9.1-3.2-13.7-.9-5.1-.6-10.3-1.3-15.4 0-.3-.4-.2-.5 0-2.2 8.4-.2 18.5 1.5 26.8 2 9.9 5.7 19.4 9.4 28.8 3.7 9.5 7.5 19 10.6 28.7 1.3 4.3 2.5 8.6 3.4 13-7.2-16.7-18.5-31.8-23.5-49.5-.3-.9-1.3-1-1.8-.4-.1 0-.3.1-.3.3-2.4 6.6-2.1 14.8-2.6 21.8-.5 6.1-2.1 13.5-1.4 19.8-.9 8.9-1.8 17.9-2.6 26.8-1 10.1-.3 24.6 6.7 33.1-15.1-10.7-20.4-30-31.4-44.8-11-14.8-29.8-22.3-48-20.2-.8.1-1.2.8-1.2 1.5-.4.3-.6 1 0 1.2 9.9 4.6 18.7 10.1 26.4 17.9 8.6 8.8 14 20.3 20.8 30.4 3.9 5.8 8.5 11.2 14 15.5-1.1-.3-2.3-.6-3.4-.8-10.6-2.5-21.5-3.7-32.4-3.8-7.5-1.2-15.6-.9-23-.4-.6 0-1.2.1-1.8.2 0-.1-.1-.1-.2-.1-28.5 1.6-55.1 14.6-82.1 22.8-13.5 4.1-32.8 10.9-44.2-.9-3.4-3.5-4.1-9.4-2.4-13.8-.7 5.9 3.8 11.4 10.1 10.9 6-.4 10.8-8 7.5-13.4-3.4-5.8-11.3-8.1-16.7-3.3-5.9 5.3-6.6 14.1-1.5 20.4 6.5 7.9 16.6 9.2 26.2 8 11.4-1.5 22.7-5.4 33.5-9.1 8.1-2.8 16.1-5.6 24.1-8.4-10.7 5.2-20.7 11.7-29 20.1-.4.4-.2 1 .1 1.2-.1 1.2.9 2.6 2.3 2.1 6.1-2.2 12.1-3.2 18-3.4-1.2 3.8-.5 8.6.7 11.8 2.2 5.9 8.4 12 14.3 14.2.1.1.2-.1.1-.2-.1-.2-.3-.3-.4-.5-.2-.2-.3-.4-.5-.6-.2-.2-.3-.4-.5-.6-3-3.4-5-6.9-5.6-11.6-.3-2.7.4-5.3 1.5-7.8 1-2.2 2.8-3.2 4.9-3.8 11 1.7 21.9 5.4 32.8 8.9 19.9 9.2 42 10.6 62.8 3.7 8.9-2.9 17.6-7.6 25-13.4 6.3-4.9 13.9-11.4 17.9-18.9 3-4.2 5.4-8.5 7.4-13 2.6-4.3 4.2-9.2 4.9-14.3 5.9-23.6 2.1-49.5-3.6-73.6.9-2 1.4-4.2 1.8-6.1 1.3-5.6-3.3-18 3.5-20.6zm-6.9-46c-2.4-1.3-5.2-1.7-7.8-2-1-.1-2-.3-3-.4 1.1-.9 2.5-1.7 4.1-2.1 3.7-.9 7.2 1 9.2 3.9.8 1.2 1.1 2.4 1.3 3.7-.3-.3-.6-.5-.9-.7-1.7-1-4.1-.3-5.9.1-2.4.6-4.3 1-6.5-.2-1.1-.6-1.7-1.6-2.3-2.6 1 0 2-.1 2.9 0 2.9.2 5.7 1.1 8.6 1.3.6 0 .8-.8.3-1zm-24.3 67zm-21.1 93.4c-8.2-6.7-13.7-16.2-19.2-25.1-8.6-13.9-19.8-26.4-34.5-33.5 5.6 1.9 11.1 3.8 16.4 6.9 3.1 1.8 6.2 3.9 9.1 6.1 3.3 2.5 6 5.6 9.3 8.1.2.2.5-.1.3-.3-3.6-6.7-11.1-12.2-17.4-16.1-4-2.5-8.6-4.8-13.3-6.4 6.5.6 12.8 2.4 18.8 5.5 10.1 5.1 17.1 13.8 22.9 23.3 7.8 12.9 15.2 30.2 29.7 36.7.5.4 1.1.8 1.6 1.2-5.3-1.4-10.3-4.1-14.8-7.2-9.1-6.2-16.9-15.8-21.3-25.9h-.1c3.5 10.9 9.7 19.7 18.8 26.9 3.7 2.9 7.8 5.4 12 7.4-1.6-.1-3.2-.3-4.7-.6-5-1.2-9.5-3.7-13.6-7zm6.4 8.1h.2c1.2.7 2.7 1.3 4.4 1.9-2.3 0-4.7 0-7.2-.3-11.2-1.2-22.2-4.5-33.1-7.4 12.1.6 23.8 3 35.7 5.8zm-130.5 20.1c-.2.1-.3.3-.4.4-2 .5-4.1 1.1-6.1 1.9 13.4-10.5 27.6-19.1 44.2-23.7 3.6-1 7.2-1.8 10.9-2.5-17.5 4.9-34.1 13.1-48.6 23.9zm16.4 12.2c-.3 3.3.1 6.7 1.3 9.7-.9-1.1-1.5-2.4-2-3.7-1.2-3-.7-6.1-1-9.2 0-.1-.1-.2-.2-.1-2.1 2.5-1.9 5.9-1.1 8.9 0-.1-.1-.1-.1-.2-1.6-2.5-2.4-5.3-2.6-8.2-.2-2.2.5-4 1.4-5.7 2.7 0 5.4.2 8.1.5-2.2 2.2-3.6 5.6-3.8 8zm38-3.5c-9.7-3.3-19.5-6.7-29.3-8.5 2.5-.2 5-.2 7.5-.3 7.7-.1 15.1 1.2 22.8 1.9.2 0 .2-.3 0-.4-7.2-2.5-15.2-3.2-22.8-3.7-2.8-.2-6.1-.4-9.5-.4 4-1.2 8-2.2 12.2-2.9 5.8-1 11.8-1.6 17.7-1.8 5.4-.2 11 .9 16.3 0 .1 0 .1-.1 0-.2-4.4-1.9-9.7-1.7-14.5-1.8-6-.2-12 .2-18 .9-7.7 1-15.8 2.7-23.4 5.3.5-.2.9-.5 1.4-.7 4.6-2.3 9.5-4 14.3-5.7 8.9-3.1 18.2-3.5 27.2-6 .1 0 .1-.2 0-.2-9-1.2-19.2 1.7-27.8 4.1-2.8.8-5.6 1.8-8.4 2.9 18.3-9.7 38.5-15.5 59.2-17 4 .3 8 .7 12.1.9 12.5 3.5 25.4 7 38.2 8.4 3.9.4 7.9.4 12 0 .8.1 1.6.3 2.4.3.1.1.3.2.4.3-2.1.8-4.1 1.5-6.2 2.1-8.4 2.5-17 2.5-25.6 3.4-.2 0-.3.3 0 .3 7.9 1.2 16.3.3 24.2-.6 1.6-.2 3.2-.4 4.9-.6-3.8 1.6-7.7 2.9-11.8 3.9-6 1.5-12.3 2.2-18.5 2.3-5.7.1-11.8-1.7-17.4-1-.3 0-.5.5-.2.7 4.3 2.9 10.9 3 15.9 3.3 6.5.4 13.1-.2 19.5-1.3 5.5-1 10.9-2.7 16.2-4.9-4.7 3-9.6 5.7-14.6 8.1-11.6 5.5-24.1 9-36.8 10.5-12.9 1.8-26.4.9-39.6-1.6zm41.7 4c12-1.7 23.5-5 34.6-10 2.6-1.2 5.3-2.4 8-3.9-5.6 3.5-11.6 6.4-17.7 8.8-14.5 5.6-30.4 7.6-45.8 5.9 7 .4 14 .1 20.9-.8zm57.8-22.3c-4.9 5.8-10.8 10.7-17.2 14.8-13.1 8.5-28.7 13-44.4 12.5-4.2-.1-8.4-.7-12.6-1.5 14.2.9 28.3-1.3 41.8-6.3 8.8-3.3 17-7.9 24.6-13.4 2.8-2 5.6-4.3 8.3-6.7-.1.2-.3.4-.5.6zm1.8-13.1c-20.4-5.7-17.2-29.3-15.6-45.7.1-.9.2-1.7.2-2.6.2 1.8.4 3.6.7 5.4 2.2 14.3 7.7 30.3 17.1 41.9-.8.3-1.6.7-2.4 1zm3.7-1.6c-3.2-5.3-6.4-10.6-9-16.3-3.5-7.6-5.8-15.7-7.3-23.9-1.2-6.3-1.6-12.7-1.6-19.1 0-.3.1-.6.1-1 .4-1.2.7-2.5.9-3.9.3 4.8.9 9.7 1.8 14.4 1.5 8.6 4.2 17 7.6 25.1 1.8 4.2 4 8.3 6.1 12.4 2 4 2.9 7.5 3 11.5-.5.3-1.1.5-1.6.8zm.2-15.2c-4.4-8.7-8.3-17.3-10.9-26.8-1.9-6.8-3-13.8-3.6-20.9 1 5.6 2.1 11.1 3.1 16.5 1.4 7.7 4.6 15.1 7.9 22.2 2.8 6.1 6.2 11.9 7.3 18.2-.8-3.2-2.4-6.5-3.8-9.2zm5.6 6.7c-.1.3-.2.5-.3.8-.5-2.5-1.3-5-2.3-7.5-3.4-8.3-7.7-16.2-10.6-24.7-3.2-9.2-5.6-18-6.4-27.8-.5-5.5-.3-11 0-16.5.4.9.7 1.8 1.1 2.7.2 1.5.5 2.9.7 4.4 1.5 9.8 3.7 19.6 6.6 29.1 2.8 9.4 6.9 18.4 9.7 27.9 1.1 3.7 1.7 7.7 1.5 11.6zm-5.2-29.6c-3.6-9.9-6.5-20.2-8.8-30.5-.3-1.2-.5-2.5-.8-3.7.2.5.4 1 .6 1.4 3.1 8 6.1 16.1 9.2 24.2 3.7 9.8 6.8 19.5 7 29.2-1.5-7-4.7-13.9-7.2-20.6zm11.5 0c-.3 5.5-.9 10.9-2.1 16.2-.7-6.4-2.6-12.8-4.5-18.4-3.2-9.3-6.8-18.4-10.2-27.5-2.3-6.2-4.3-12.8-6.6-19.1-.2-1.4-.3-2.8-.4-4.1 7.1 16.5 19.1 35.1 23.8 52.9zM554 424c-.4 4.3.3 8.5-.4 12.8-.1.6-.2 1.1-.4 1.6-.7-2.8-1.4-5.6-2.2-8.4v-.1c0-.2 0-.4.1-.6.6-3.6 2.6-6.6 4.2-9.7 0-.1 0-.1-.1-.1-2.5 1.7-4 4.1-5.2 6.8-.2-.8-.4-1.7-.7-2.5.4-1.4 1.1-2.7 2-3.8 1.3-1.6 3.2-2.4 5.1-2.9.7-.2 1.5-.2 2.3-.2-2.7 1.2-4.4 4.1-4.7 7.1z"/></svg>