<svg id="Layer_1" xmlns="http://www.w3.org/2000/svg" viewBox="0 0 595.3 595.3"><style>.st0{fill:#231f20}</style><path class="st0" d="M477.6 37.8H117.7c-44.1 0-79.9 35.8-79.9 79.9v359.8c0 44.1 35.8 79.9 79.9 79.9h359.8c44.1 0 79.9-35.8 79.9-79.9V117.7c.1-44-35.8-79.9-79.8-79.9zM538.8 85c-1.1-.4-2.3-.8-3.6-1-1.8-.3-3.4-.1-5 .3 2.2-1.3 4.4-2.1 6.8-2.5.6 1 1.2 2.1 1.8 3.2zM529 71.2c-.9.5-1.8 1.1-2.6 1.8 0-1.6-.1-3.3-.4-4.9 1.1 1 2.1 2 3 3.1zm-3.1 7c1.3-2 2.8-3.8 4.6-5.4.8 1 1.7 2 2.4 3-2.6.7-5.1 1.9-6.9 3.3l-.3.3c0-.4.1-.8.2-1.2zm-1.8 7c.2 0 .5-.2.6-.4.2-.4.3-.9.4-1.3.6-1 1.4-1.8 2.3-2.6 2-1.6 4.4-2.8 6.9-3.3.4.6.8 1.1 1.2 1.7-2.8.6-5.5 1.8-7.6 3.3-1.3 1-2.9 2.3-4.3 3.9.1-.4.3-.8.5-1.3zm-93.8-36.9c2.4 1.5 4.8 3.5 7.4 4.4.2.1.4-.2.3-.4-.8-1.6-2.3-2.9-3.9-4h5.3c5.5 5.8 11 11.6 16.6 17.4 5.7 5.9 11.4 12.3 18.8 16.3 9.6 5.2 26.9 7.7 32.3-4.8 0-.1-.1-.2-.1-.1-4.4 4.9-10.5 7.8-17.2 7.5-7.3-.3-13.5-3.8-18.8-8.7-9.3-8.5-17.7-18.2-26.2-27.6h11.3c3.6 6 7 11.6 12.4 16.4 2.6 2.4 5.4 4.6 8.5 6.4 2.6 1.6 5.6 3.6 8.7 3.7.2 0 .3-.2.1-.3-2.1-2.2-5.3-3.4-7.8-5.1-3-2.1-5.9-4.5-8.5-7.2-3.7-3.9-7.6-8.7-9.8-13.9h6.3c.9 2.7 3.2 5.6 4.5 7.2 2.1 2.7 5.1 6.3 8.6 7.2.3.1.4-.2.3-.4-1.7-3.4-4.9-5.9-6.7-9.3-.9-1.5-1.7-3.1-2.4-4.7h6.6c.2 2.4 1.3 4.6 3.5 5.7.1.1.4 0 .4-.2-.2-1.8-.3-3.6-.2-5.4 5.6.2 11.1 1.2 16.3 2.7l-.1.1c-4.7 4.1-5.5 12 .1 15.8.2.2.5-.2.3-.4-4.3-5.4-1.1-11.9 4.2-14 1.8.7 3.6 1.4 5.4 2.2-2.8 1.4-4.9 3.6-5.2 6.3 0 .2.3.4.4.3 2.9-1.9 5.3-4.6 9-4.4 2.9 1.6 5.6 3.4 8.3 5.3.8 1.6 1.4 3.2 1.8 4.9-2.6-2.9-6.3-5.4-10.2-3.9-.3.1-.4.6 0 .7 5.1 1.5 9.1 4.1 10.5 9.6.1.5.2.9.3 1.4-.6 7.1-4.1 13.7-10.4 17.7-8.7 5.4-19.7 4.9-28.8.7-18.1-8.2-29-25.9-44.7-37.4-4.4-3.2-9.1-5.7-14.1-7.5h6.6zM74.1 73.4c1.4-5.4 5.4-8.1 10.5-9.6.4-.1.3-.6 0-.7-3.9-1.5-7.6 1-10.2 3.9.4-1.7 1-3.3 1.8-4.9 2.6-2 5.4-3.7 8.3-5.3 3.7-.2 6.1 2.6 9 4.4.2.1.5 0 .4-.3-.3-2.7-2.4-4.9-5.2-6.3 1.8-.8 3.5-1.6 5.4-2.2 5.3 2.2 8.4 8.7 4.2 14-.2.2 0 .5.3.4 5.6-3.7 4.8-11.6.1-15.8l-.1-.1c5.2-1.5 10.7-2.4 16.3-2.7.2 1.8 0 3.6-.2 5.4 0 .2.2.3.4.2 2.3-1.1 3.3-3.3 3.5-5.7h6.6c-.7 1.6-1.5 3.2-2.4 4.7-1.9 3.3-5.1 5.9-6.7 9.3-.1.2.1.5.3.4 3.5-.9 6.5-4.5 8.6-7.2 1.3-1.7 3.6-4.5 4.5-7.2h6.3c-2.2 5.2-6.1 10-9.8 13.9-2.5 2.7-5.4 5-8.5 7.2-2.5 1.8-5.7 2.9-7.8 5.1-.1.1 0 .3.1.3 3.2-.1 6.1-2.1 8.7-3.7 3-1.8 5.8-4.1 8.5-6.4 5.4-4.8 8.8-10.5 12.4-16.4h11.3c-8.5 9.4-16.8 19.1-26.2 27.6-5.3 4.9-11.5 8.4-18.8 8.7-6.7.3-12.8-2.5-17.2-7.5-.1-.1-.1 0-.1.1 5.4 12.6 22.7 10 32.3 4.8 7.3-4 13-10.4 18.8-16.3 5.6-5.8 11.1-11.6 16.6-17.4h5.3c-1.6 1.1-3.1 2.4-3.9 4-.1.2.1.5.3.4 2.7-.9 5-2.9 7.4-4.4h6.9c-4.9 1.8-9.7 4.3-14.1 7.5-16 11.6-26.8 29.4-45 37.6-9.1 4.1-20.2 4.7-28.8-.7-6.3-3.9-9.8-10.6-10.4-17.7.1-.5.2-.9.3-1.4zm-4.9-5.3c-.3 1.6-.4 3.2-.4 4.9-.8-.7-1.7-1.3-2.6-1.8 1-1.1 2-2.1 3-3.1zm-4.4 4.7c1.7 1.6 3.3 3.4 4.6 5.4.1.4.2.8.2 1.2l-.3-.3c-1.8-1.4-4.3-2.6-6.9-3.3l2.4-3zm-3.7 4.9c2.5.5 4.9 1.7 6.9 3.3.9.7 1.6 1.6 2.3 2.6.1.5.3.9.4 1.3.1.2.3.4.6.4.2.4.4.9.6 1.3-1.4-1.6-3-2.9-4.3-3.9-2.1-1.6-4.8-2.8-7.6-3.3.3-.6.7-1.2 1.1-1.7zm-2.7 4c2.3.5 4.6 1.2 6.8 2.5-1.6-.4-3.3-.5-5-.3-1.3.2-2.5.5-3.6 1 .5-1 1.1-2.1 1.8-3.2zm-10.1 36v-.8c1.4 1.3 3.1 2.3 5.1 2.9 6.7 2.2 15.1-3.7 13.9-11-.7-4.4-4.4-8.4-9.2-7.8-4.2.5-4.3 7.2 0 6.7 3.7-.4 3.7 4.1 1.3 5.9-3.1 2.2-6.8.5-8.9-2.2-.8-1-1.3-2.1-1.6-3.2.6-4.5 1.7-8.9 3.1-13.1 1.3-1.8 2.9-3.4 4.6-4.5 6.8-4.5 14.7.3 17.2 7.2 3.1 8.5-2 17.5-6.7 24.2-4.6 6.7-9.9 12.7-13.5 20.1-2.8 5.9-4.5 12.2-5.4 18.7v-43.1zm3.8 382.5c-1.4-4.2-2.5-8.6-3.1-13.1.3-1.1.9-2.2 1.6-3.2 2-2.7 5.8-4.4 8.9-2.2 2.4 1.8 2.4 6.3-1.3 5.9-4.3-.5-4.2 6.2 0 6.7 4.7.6 8.4-3.4 9.2-7.8 1.2-7.3-7.2-13.2-13.9-11-2 .6-3.7 1.6-5.1 2.9v-43.9c.8 6.5 2.5 12.8 5.4 18.7 3.6 7.4 8.8 13.4 13.5 20.1 4.7 6.7 9.8 15.8 6.7 24.2-2.5 6.9-10.3 11.7-17.2 7.2-1.8-1.2-3.4-2.7-4.7-4.5zm4.4 10.1c1.1.4 2.3.8 3.6 1 1.8.3 3.4.1 5-.3-2.2 1.3-4.4 2.1-6.8 2.5-.6-1-1.2-2.1-1.8-3.2zm9.8 13.8c.9-.5 1.8-1.1 2.6-1.8 0 1.6.1 3.3.4 4.9-1.1-1-2.1-2-3-3.1zm3.1-7.1c-1.3 2-2.8 3.8-4.6 5.4-.8-1-1.7-2-2.4-3 2.6-.7 5.1-1.9 6.9-3.3l.3-.3c0 .5-.1.8-.2 1.2zm1.8-7c-.2 0-.5.2-.6.4-.2.4-.3.9-.4 1.3-.6 1-1.4 1.8-2.3 2.6-2 1.6-4.4 2.8-6.9 3.3-.4-.6-.8-1.1-1.2-1.7 2.8-.6 5.5-1.8 7.6-3.3 1.3-1 2.9-2.3 4.3-3.9-.1.5-.3.9-.5 1.3zm93.8 37c-2.4-1.5-4.8-3.5-7.4-4.4-.2-.1-.4.2-.3.4.8 1.6 2.3 2.9 3.9 4h-5.3c-5.5-5.8-11-11.6-16.6-17.4-5.7-5.9-11.4-12.3-18.8-16.3-9.6-5.2-26.9-7.7-32.3 4.8 0 .1.1.2.1.1 4.4-4.9 10.5-7.8 17.2-7.5 7.3.3 13.5 3.8 18.8 8.7 9.3 8.5 17.7 18.2 26.2 27.6h-11.3c-3.6-6-7-11.6-12.4-16.4-2.6-2.4-5.4-4.6-8.5-6.4-2.6-1.6-5.6-3.6-8.7-3.7-.2 0-.3.2-.1.3 2.1 2.2 5.3 3.4 7.8 5.1 3 2.1 5.9 4.5 8.5 7.2 3.7 3.9 7.6 8.7 9.8 13.9h-6.3c-.9-2.7-3.2-5.6-4.5-7.2-2.1-2.7-5.1-6.3-8.6-7.2-.3-.1-.4.2-.3.4 1.7 3.4 4.9 5.9 6.7 9.3.9 1.5 1.7 3.1 2.4 4.7h-6.6c-.2-2.4-1.3-4.6-3.5-5.7-.1-.1-.4 0-.4.2.2 1.8.3 3.6.2 5.4-5.6-.2-11.1-1.2-16.3-2.7l.1-.1c4.7-4.1 5.5-12-.1-15.8-.2-.2-.5.2-.3.4 4.3 5.4 1.1 11.9-4.2 14-1.8-.7-3.6-1.4-5.4-2.2 2.8-1.4 4.9-3.6 5.2-6.3 0-.2-.3-.4-.4-.3-2.9 1.9-5.3 4.6-9 4.4-2.9-1.6-5.6-3.4-8.3-5.3-.8-1.6-1.4-3.2-1.8-4.9 2.6 2.9 6.3 5.4 10.2 3.9.3-.1.4-.6 0-.7-5.1-1.5-9.1-4.1-10.5-9.6-.1-.5-.2-.9-.3-1.4.6-7.1 4.1-13.7 10.4-17.7 8.7-5.4 19.7-4.9 28.8-.7 18.1 8.2 29 25.9 44.7 37.4 4.4 3.2 9.1 5.7 14.1 7.5H165zm356.2-25.1c-1.4 5.4-5.4 8.1-10.5 9.6-.4.1-.3.6 0 .7 3.9 1.5 7.6-1 10.2-3.9-.4 1.7-1 3.3-1.8 4.9-2.6 2-5.4 3.7-8.3 5.3-3.7.2-6.1-2.6-9-4.4-.2-.1-.5 0-.4.3.3 2.7 2.4 4.9 5.2 6.3-1.8.8-3.5 1.6-5.4 2.2-5.3-2.2-8.4-8.7-4.2-14 .2-.2 0-.5-.3-.4-5.6 3.7-4.8 11.6-.1 15.8l.1.1c-5.2 1.5-10.7 2.4-16.3 2.7-.2-1.8 0-3.6.2-5.4 0-.2-.2-.3-.4-.2-2.3 1.1-3.3 3.3-3.5 5.7h-6.6c.7-1.6 1.5-3.2 2.4-4.7 1.9-3.3 5.1-5.9 6.7-9.3.1-.2-.1-.5-.3-.4-3.5.9-6.5 4.5-8.6 7.2-1.3 1.7-3.6 4.5-4.5 7.2h-6.3c2.2-5.2 6.1-10 9.8-13.9 2.5-2.7 5.4-5 8.5-7.2 2.5-1.8 5.7-2.9 7.8-5.1.1-.1 0-.3-.1-.3-3.2.1-6.1 2.1-8.7 3.7-3 1.8-5.8 4.1-8.5 6.4-5.4 4.8-8.8 10.5-12.4 16.4h-11.3c8.5-9.4 16.8-19.1 26.2-27.6 5.3-4.9 11.5-8.4 18.8-8.7 6.7-.3 12.8 2.5 17.2 7.5.1.1.1 0 .1-.1-5.4-12.6-22.7-10-32.3-4.8-7.3 4-13 10.4-18.8 16.3-5.6 5.8-11.1 11.6-16.6 17.4h-5.3c1.6-1.1 3.1-2.4 3.9-4 .1-.2-.1-.5-.3-.4-2.7.9-5 2.9-7.4 4.4h-6.9c4.9-1.8 9.7-4.3 14.1-7.5 15.8-11.5 26.6-29.2 44.7-37.4 9.1-4.1 20.2-4.7 28.8.7 6.3 3.9 9.8 10.6 10.4 17.7.2.2.1.7 0 1.2zm4.8 5.3c.3-1.6.4-3.2.4-4.9.8.7 1.7 1.3 2.6 1.8-.9 1.1-1.9 2.1-3 3.1zm4.4-4.7c-1.7-1.6-3.3-3.4-4.6-5.4-.1-.4-.2-.8-.2-1.2l.3.3c1.8 1.4 4.3 2.6 6.9 3.3-.7 1-1.5 2-2.4 3zm3.8-4.9c-2.5-.5-4.9-1.7-6.9-3.3-.9-.7-1.6-1.6-2.3-2.6-.1-.5-.3-.9-.4-1.3-.1-.2-.3-.4-.6-.4-.2-.4-.4-.9-.6-1.3 1.4 1.6 3 2.9 4.3 3.9 2.1 1.6 4.8 2.8 7.6 3.3-.3.6-.7 1.2-1.1 1.7zm2.7-4c-2.3-.5-4.6-1.2-6.8-2.5 1.6.4 3.3.5 5 .3 1.3-.2 2.5-.5 3.6-1-.5 1-1.1 2.1-1.8 3.2zm10.1-36v.8c-1.4-1.3-3.1-2.3-5.1-2.9-6.7-2.2-15.1 3.7-13.9 11 .7 4.4 4.4 8.4 9.2 7.8 4.2-.5 4.3-7.2 0-6.7-3.7.4-3.7-4.1-1.3-5.9 3.1-2.2 6.8-.5 8.9 2.2.8 1 1.3 2.1 1.6 3.2-.6 4.5-1.7 8.9-3.1 13.1-1.3 1.8-2.9 3.4-4.6 4.5-6.8 4.5-14.7-.3-17.2-7.2-3.1-8.5 2-17.5 6.7-24.2 4.6-6.7 9.9-12.7 13.5-20.1 2.8-5.9 4.5-12.2 5.4-18.7v43.1zm0-290.3c-.8 3.4-1.7 6.7-2.8 10-.9 2.8-2 5.5-2.4 8.4 0 .2.2.3.3.1 2.3-2.6 3.5-5.9 4.7-9.1 0-.1.1-.2.1-.3v34.9c-.9-.9-1.7-1.8-2.4-2.9-1.4-2.4-1.7-5.1-2.8-7.6-.1-.1-.2-.1-.3 0-.5 2.8.9 5.5 1.7 8.2.8 2.4 1.9 5.3 3.7 7.1v9.2c-1.2-.9-2.4-1.9-3.5-3-2.1-2.4-3.9-5-5.4-7.7-3.2-6-3.1-11.3-3.2-17.9 0-.2-.2-.2-.3 0-1.1 3.1-1.1 6.7-.7 10 .4 3.4.6 6.8 1.8 10 2.1 5.7 5.9 12.3 11.3 15.6v9.5c-7.9-3.5-14.5-10.3-18.3-18.1-5-10.2-3.1-22.5 1.4-32.5.4-.9-.9-1.7-1.4-.8-6.1 10.5-6 23-2.1 34.2 3.5 10.3 11 18.1 20.5 23.4v7.1c-9.1-1.5-17.6-7.2-22.3-15.1-5.9-9.9-7.3-21.6-5.8-32.9.8-6.4 2.5-12.7 4.8-18.7 2.2-5.7 4.9-11.3 6.8-17.1 2.9-8.8 4.4-19.9-2-27.6-.1-.2-.3 0-.3.2 6.6 13.5.5 26.4-5 39-4.7 10.9-8.7 23-8.4 35.1.5 19.4 12.2 39.9 32.1 44v31.1c-19.9 4.1-31.5 24.6-32.1 44-.3 12.1 3.6 24.2 8.4 35.1 5.5 12.6 11.6 25.6 5 39-.1.2.1.4.3.2 6.4-7.8 4.9-18.8 2-27.6-1.9-5.8-4.7-11.4-6.8-17.1-2.3-6-3.9-12.3-4.8-18.7-1.5-11.3-.1-23 5.8-32.9 4.7-7.9 13.2-13.6 22.3-15.1v7.1c-9.4 5.3-16.9 13.1-20.5 23.4-3.9 11.2-4 23.7 2.1 34.2.5.9 1.8.1 1.4-.8-4.5-10-6.3-22.3-1.4-32.5 3.8-7.8 10.4-14.6 18.3-18.1v9.5c-5.3 3.3-9.1 9.9-11.3 15.6-1.2 3.2-1.4 6.6-1.8 10-.4 3.2-.4 6.9.7 10 .1.2.3.1.3 0 .1-6.6 0-11.9 3.2-17.9 1.5-2.8 3.3-5.4 5.4-7.7 1.1-1.2 2.3-2.1 3.5-3v9.2c-1.9 1.8-3 4.7-3.7 7.1-.8 2.6-2.2 5.4-1.7 8.2 0 .1.2.1.3 0 1.2-2.5 1.4-5.2 2.8-7.6.6-1.1 1.5-2 2.4-2.9v34.9c0-.1-.1-.2-.1-.3-1.2-3.2-2.4-6.5-4.7-9.1-.1-.1-.4 0-.3.1.4 2.9 1.5 5.6 2.4 8.4 1.1 3.3 2 6.6 2.8 10v12.4c-.5-3.6-1.3-7.2-2.3-10.6-2.1-6.8-5.9-14.7-11.5-19.4-.2-.2-.6 0-.4.3 2.2 4.5 5 8.5 6.9 13.2 1.9 4.7 3.3 9.6 4.1 14.6 1.7 10.2.1 20.7-3.6 30.2-6.1 15.8-27.4 30.6-22.2 49.3-.3-.5-.6-.9-.8-1.4-1.7-3.1-2.4-6.6-2.6-10.1-.6-8.1 2.9-15.9 7-22.7 7.1-12 20.1-25.1 18-40.2 0-.2-.4-.2-.5 0-2 8.7-5.3 16.6-10.1 24.2-4.8 7.6-10.4 14.6-14.1 22.8-2.9 6.4-4.1 13.2-3.1 20.1.3 2.4 1.2 5.4 2.6 8.2-15.7-11.6-36.7-2-49.6 8.9-15.2 12.8-26.6 30.9-46.6 36.7-14.4 4.2-30.2.9-43.6-5.2-6.6-3-12.7-7.1-18.3-11.7-3-2.4-5.7-5.1-8.4-7.8 5.9 3.3 12 6.1 18.1 8.8 4.4 1.9 8.8 3.7 13.3 5.3 4.2 1.6 8.9 3.7 13.5 3.5.1 0 .2-.2.1-.2-3.4-2.5-7.9-3.6-11.8-5.1-5.1-1.9-10.1-3.9-15-6.1-4.5-2-8.8-4.2-13.1-6.4 7.7 1.1 16.1.3 23.3.3 6.8 0 13.7.9 19.9 3.6 3.2 1.4 6.1 3.5 8.1 6.4 1 1.4 1.5 2.9 1.5 4.5 0 1.1-1.1 5.3-2.9 4.9-4.3-.8-1.8 6.1.9 3.3 1-1.1 2.3-1.6 3.2-2.8.7-.9 1.2-2 1.5-3.1 1-2.9.2-6-1.2-8.6-3.3-6.2-11.9-9.3-18.3-10.3-7.7-1.1-15.5-.5-23.2-.3-8.5.2-16.2-.8-24.1-3.7-.2-.1-.5-.2-.7-.3-.4-.3-.7-.6-1.1-.9-.1-.1-.4 0-.3.2-.9-.3-1.6.9-.7 1.5 1.1.7 2.1 1.4 3.2 2.1 4.7 6.2 11.2 11.5 17.2 16.2 7.2 5.7 15.1 10.8 23.7 13.9l.9.3H211.3l.9-.3c8.6-3.2 16.5-8.3 23.7-13.9 5.9-4.7 12.4-10 17.2-16.2 1.1-.7 2.2-1.4 3.2-2.1.9-.6.2-1.8-.7-1.5.1-.2-.1-.3-.3-.2-.4.3-.7.6-1.1.9-.2.1-.5.2-.7.3-7.9 2.9-15.6 3.9-24.1 3.7-7.7-.2-15.5-.8-23.2.3-6.4 1-15.1 4.1-18.3 10.3-1.4 2.6-2.2 5.7-1.2 8.6.4 1.1.8 2.2 1.5 3.1.9 1.2 2.2 1.7 3.2 2.8 2.6 2.9 5.2-4.1.9-3.3-1.7.3-2.9-3.8-2.9-4.9.1-1.7.6-3.2 1.5-4.5 2-2.9 4.9-5 8.1-6.4 6.3-2.7 13.1-3.7 19.9-3.6 7.2 0 15.6.9 23.3-.3-4.3 2.2-8.7 4.4-13.1 6.4-4.9 2.2-10 4.2-15 6.1-3.9 1.5-8.4 2.5-11.8 5.1-.1.1-.1.2.1.2 4.6.1 9.3-2 13.5-3.5 4.5-1.7 8.9-3.4 13.3-5.3 6.1-2.7 12.2-5.5 18.1-8.8-2.7 2.7-5.4 5.4-8.4 7.8-5.6 4.6-11.7 8.7-18.3 11.7-13.4 6.1-29.2 9.4-43.6 5.2-20-5.9-31.4-24-46.6-36.7-12.9-10.9-33.9-20.4-49.6-8.9 1.4-2.8 2.2-5.8 2.6-8.2 1-7-.2-13.7-3.1-20.1-3.7-8.2-9.3-15.3-14.1-22.8-4.8-7.6-8.2-15.5-10.1-24.2-.1-.2-.4-.2-.5 0-2.1 15.1 10.9 28.2 18 40.2 4 6.8 7.5 14.6 7 22.7-.2 3.4-.9 7-2.6 10.1-.3.5-.5.9-.8 1.4 5.2-18.6-16-33.5-22.2-49.3-3.7-9.5-5.2-20.1-3.6-30.2.8-5 2.1-9.9 4.1-14.6 1.9-4.6 4.7-8.7 6.9-13.2.1-.3-.2-.5-.4-.3-5.5 4.7-9.4 12.5-11.5 19.4-1.1 3.5-1.8 7-2.3 10.6V408c.8-3.4 1.7-6.7 2.8-10 .9-2.8 2-5.5 2.4-8.4 0-.2-.2-.3-.3-.1-2.3 2.6-3.5 5.9-4.7 9.1 0 .1-.1.2-.1.3V364c.9.9 1.7 1.8 2.4 2.9 1.4 2.4 1.7 5.1 2.8 7.6.1.1.2.1.3 0 .5-2.8-.9-5.5-1.7-8.2-.8-2.4-1.9-5.3-3.7-7.1V350c1.2.9 2.4 1.9 3.5 3 2.1 2.4 3.9 5 5.4 7.7 3.2 6 3.1 11.3 3.2 17.9 0 .2.2.2.3 0 1.1-3.1 1.1-6.7.7-10-.4-3.4-.6-6.8-1.8-10-2.1-5.7-5.9-12.3-11.3-15.6v-9.5c7.9 3.5 14.5 10.3 18.3 18.1 5 10.2 3.1 22.5-1.4 32.5-.4.9.9 1.7 1.4.8 6.1-10.5 6-23 2.1-34.2-3.5-10.3-11-18.1-20.5-23.4v-7.1c9.1 1.5 17.6 7.2 22.3 15.1 5.9 9.9 7.3 21.6 5.8 32.9-.8 6.4-2.5 12.7-4.8 18.7-2.2 5.7-4.9 11.3-6.8 17.1-2.9 8.8-4.4 19.9 2 27.6.1.2.3 0 .3-.2-6.6-13.5-.5-26.4 5-39 4.7-10.9 8.7-23 8.4-35.1-.5-19.4-12.2-39.9-32.1-44v-31.1c19.9-4.1 31.5-24.6 32.1-44 .3-12.1-3.6-24.2-8.4-35.1-5.5-12.6-11.6-25.6-5-39 .1-.2-.1-.4-.3-.2-6.4 7.8-4.9 18.8-2 27.6 1.9 5.8 4.7 11.4 6.8 17.1 2.3 6 3.9 12.3 4.8 18.7 1.5 11.3.1 23-5.8 32.9-4.7 7.9-13.2 13.6-22.3 15.1V268c9.4-5.3 16.9-13.1 20.5-23.4 3.9-11.2 4-23.7-2.1-34.2-.5-.9-1.8-.1-1.4.8 4.5 10 6.3 22.3 1.4 32.5-3.8 7.8-10.4 14.6-18.3 18.1v-9.5c5.3-3.3 9.1-9.9 11.3-15.6 1.2-3.2 1.4-6.6 1.8-10 .4-3.2.4-6.9-.7-10-.1-.2-.3-.1-.3 0-.1 6.6 0 11.9-3.2 17.9-1.5 2.8-3.3 5.4-5.4 7.7-1.1 1.2-2.3 2.1-3.5 3v-9.2c1.9-1.8 3-4.7 3.7-7.1.8-2.6 2.2-5.4 1.7-8.2 0-.1-.2-.1-.3 0-1.2 2.5-1.4 5.2-2.8 7.6-.6 1.1-1.5 2-2.4 2.9v-34.9c0 .1.1.2.1.3 1.2 3.2 2.4 6.5 4.7 9.1.1.1.4 0 .3-.1-.4-2.9-1.5-5.6-2.4-8.4-1.1-3.3-2-6.6-2.8-10v-12.4c.5 3.6 1.3 7.2 2.3 10.6 2.1 6.8 5.9 14.7 11.5 19.4.2.2.6 0 .4-.3-2.2-4.5-5-8.5-6.9-13.2-1.9-4.7-3.3-9.6-4.1-14.6-1.7-10.2-.1-20.7 3.6-30.2 6.1-15.8 27.4-30.6 22.2-49.3.3.5.6.9.8 1.4 1.7 3.1 2.4 6.6 2.6 10.1.6 8.1-2.9 15.9-7 22.7-7.1 12-20.1 25.1-18 40.2 0 .2.4.2.5 0 2-8.7 5.3-16.6 10.1-24.2 4.8-7.6 10.4-14.6 14.1-22.8 2.9-6.4 4.1-13.2 3.1-20.1-.3-2.4-1.2-5.4-2.6-8.2 15.7 11.6 36.7 2 49.6-8.9C145.6 74.7 157 56.6 177 50.8c14.4-4.2 30.2-.9 43.6 5.2 6.6 3 12.7 7.1 18.3 11.7 3 2.4 5.7 5.1 8.4 7.8-5.9-3.3-12-6.1-18.1-8.8-4.4-1.9-8.8-3.7-13.3-5.3-4.2-1.6-8.9-3.7-13.5-3.5-.1 0-.2.2-.1.2 3.4 2.5 7.9 3.6 11.8 5.1 5.1 1.9 10.1 3.9 15 6.1 4.5 2 8.8 4.2 13.1 6.4-7.7-1.1-16.1-.3-23.3-.3-6.8 0-13.7-.9-19.9-3.6-3.2-1.4-6.1-3.5-8.1-6.4-1-1.4-1.5-2.9-1.5-4.5 0-1.1 1.1-5.3 2.9-4.9 4.3.8 1.8-6.1-.9-3.3-1 1.1-2.3 1.6-3.2 2.8-.7.9-1.2 2-1.5 3.1-1 2.9-.2 6 1.2 8.6 3.3 6.2 11.9 9.3 18.3 10.3 7.7 1.1 15.5.5 23.2.3 8.5-.2 16.2.8 24.1 3.7.2.1.5.2.7.3.4.3.7.6 1.1.9.1.1.4 0 .3-.2.9.3 1.6-.9.7-1.5-1.1-.7-2.1-1.4-3.2-2.1-4.7-6.2-11.2-11.5-17.2-16.2-7.2-5.7-15.1-10.8-23.7-13.9l-.9-.3h172.6l-.9.3c-8.6 3.2-16.5 8.3-23.7 13.9-5.9 4.7-12.4 10-17.2 16.2-1.1.7-2.2 1.4-3.2 2.1-.9.6-.2 1.8.7 1.5-.1.2.1.3.3.2.4-.3.7-.6 1.1-.9.2-.1.5-.2.7-.3 7.9-2.9 15.6-3.9 24.1-3.7 7.7.2 15.5.8 23.2-.3 6.4-1 15.1-4.1 18.3-10.3 1.4-2.6 2.2-5.7 1.2-8.6-.4-1.1-.8-2.2-1.5-3.1-.9-1.2-2.2-1.7-3.2-2.8-2.6-2.9-5.2 4.1-.9 3.3 1.7-.3 2.9 3.8 2.9 4.9-.1 1.7-.6 3.2-1.5 4.5-2 2.9-4.9 5-8.1 6.4-6.3 2.7-13.1 3.7-19.9 3.6-7.2 0-15.6-.9-23.3.3 4.3-2.2 8.7-4.4 13.1-6.4 4.9-2.2 10-4.2 15-6.1 3.9-1.5 8.4-2.5 11.8-5.1.1-.1.1-.2-.1-.2-4.6-.1-9.3 2-13.5 3.5-4.5 1.7-8.9 3.4-13.3 5.3-6.1 2.7-12.2 5.5-18.1 8.8 2.7-2.7 5.4-5.4 8.4-7.8 5.6-4.6 11.7-8.7 18.3-11.7 13.4-6.1 29.2-9.4 43.6-5.2 20 5.9 31.4 24 46.6 36.7 12.9 10.9 33.9 20.4 49.6 8.9-1.4 2.8-2.2 5.8-2.6 8.2-1 7 .2 13.7 3.1 20.1 3.7 8.2 9.3 15.3 14.1 22.8 4.8 7.6 8.2 15.5 10.1 24.2.1.2.4.2.5 0 2.1-15.1-10.9-28.2-18-40.2-4-6.8-7.5-14.6-7-22.7.2-3.4.9-7 2.6-10.1.3-.5.5-.9.8-1.4-5.2 18.6 16 33.5 22.2 49.3 3.7 9.5 5.2 20.1 3.6 30.2-.8 5-2.1 9.9-4.1 14.6-1.9 4.6-4.7 8.7-6.9 13.2-.1.3.2.5.4.3 5.5-4.7 9.4-12.5 11.5-19.4 1.1-3.5 1.8-7 2.3-10.6v12.4zm0-26.5c-.8-6.5-2.5-12.8-5.4-18.7-3.6-7.4-8.8-13.4-13.5-20.1-4.7-6.7-9.8-15.8-6.7-24.2 2.5-6.9 10.3-11.7 17.2-7.2 1.7 1.1 3.2 2.7 4.6 4.5 1.4 4.2 2.5 8.6 3.1 13.1-.3 1.1-.9 2.2-1.6 3.2-2 2.7-5.8 4.4-8.9 2.2-2.4-1.8-2.4-6.3 1.3-5.9 4.3.5 4.2-6.2 0-6.7-4.7-.6-8.4 3.4-9.2 7.8-1.2 7.3 7.2 13.2 13.9 11 2-.6 3.7-1.6 5.1-2.9v43.9z"/></svg>