<svg xmlns="http://www.w3.org/2000/svg" viewBox="0 0 24 24"><path d="M9 2c-.55 0-1 .45-1 1v.188C4.59 3.495 4.078 5.16 4 6c0 0-.34 2.078-.625 4H3c-.55 0-1 .45-1 1v2c0 .55.45 1 1 1v6c0 .738.402 1.371 1 1.719v1.562c0 .39.328.719.719.719H7.28c.39 0 .719-.328.719-.719V22h8v1.281c0 .39.328.719.719.719h2.562c.39 0 .719-.328.719-.719V21.72c.598-.348 1-.98 1-1.719v-6c.55 0 1-.45 1-1v-2c0-.55-.45-1-1-1h-.375C20.34 8.078 20 6 20 6c-.09-.84-.598-2.504-4-2.813V3c0-.55-.45-1-1-1zm.5 1h5a.499.499 0 1 1 0 1h-5a.498.498 0 0 1-.5-.5c0-.277.223-.5.5-.5zM12 5.969c5.39 0 6.227.82 6.406 1.781.18.96.5 4.25.5 4.25.047.55-.355 1-.906 1H6a.901.901 0 0 1-.906-1s.367-3.418.5-4.25C5.727 6.918 6.609 5.969 12 5.969zM6.5 16a1.5 1.5 0 1 1 0 3 1.5 1.5 0 0 1 0-3zm11 0a1.5 1.5 0 1 1 0 3 1.5 1.5 0 0 1 0-3z"/></svg>