<svg id="Layer_1" xmlns="http://www.w3.org/2000/svg" viewBox="0 0 595.3 595.3"><style>.st0{fill:#3c2415}</style><path class="st0" d="M170.4 209.8c1.7.8 3.6 1.4 5.5 2-5.2 1.2-11.2 1.8-17.6 2-1.1 0-1.3.9-.3 1 7.8 1.2 16.3.6 23.6-1.4 1.6.4 3.2.7 4.6.9 15.7 2.4 32.7-3.5 40.1-10.9.1-.1.2-.3.3-.4 8.9 4.9 21.4 7.5 35.1 6.1 15-1.6 23.7-7.4 25.1-15.8.6-3.5-1.4-7.8-5.4-10.6-.3-.2-.8-.5-1.2-.8.7-4.2 2.2-8.3 6-11.8 1.5.6 3.2 1.1 5 1.5 0 .3.5.7 1.2.7 1.8.1 3.5.1 5.2.1 1.7.1 3.4.1 5.2-.1.7-.1 1.2-.4 1.2-.7 1.8-.4 3.4-.9 5-1.5 3.9 3.6 5.4 7.7 6 11.8-.5.3-.9.6-1.2.8-4 2.8-6 7.1-5.4 10.6 1.4 8.4 10.1 14.2 25.1 15.8 13.8 1.5 26.2-1.2 35.1-6.1.1.1.2.3.3.4 7.3 7.4 24.3 13.3 40.1 10.9 1.5-.2 3-.5 4.6-.9 7.3 2 15.8 2.7 23.6 1.4 1-.2.8-1-.3-1-6.3-.1-12.3-.8-17.6-2 1.9-.6 3.8-1.3 5.5-2 15.7 2.5 39-.7 38.2-11.6-.3-4.1-8.2-11.2-17-7.4-5.8 2.5-5.4 8.4 2.8 9 .8.1 1-.6.4-.8-2.8-1-6.6-7.1 1.1-6.6 4.2.3 7.3 1.9 7.9 4.2 1.1 4-2.1 8.3-9.1 10.1-6.1 1.6-13.6 2.1-20.3 1.1 3.5-2.2 5.6-4.8 4.7-7.7-.2-.7-2-.6-2.4 0-1.8 2.5-4.5 4.7-7.9 6.5-4.8-1.4-7.3-3.4-9.1-6.7-.4-.7-2.2-.7-2.5 0-1.9 3.9 1.6 6.8 7.5 8.6-1.7.7-3.5 1.2-5.4 1.7-7.7-2.8-12.8-7.2-13.1-13.6 0-.6-1.6-.9-2.2-.3-4.8 5 1.1 10.9 8 14.4.5.2 1 .5 1.5.7-9.8 1.3-20.5 0-28.6-4.9-2.9-1.7-5.2-3.7-6.8-5.9 6.5-4.5 10.4-10.4 10.5-16.4v-.9c4.2.5 7.7 2.6 9.7 5.3.5.7 2.2.6 2.3-.2.3-4.4-5.5-7.9-12.4-8.3-1.5-6.8-6.8-13.1-16.1-18-13.4-7.1-26.3-10.2-44.8-9.5-2 .1-4 .3-6.1.6-1.5-2.2-3.3-4.4-4.7-6.6 2.3-.8 4.5-1.5 6.8-2.2 10.6-3.3 33.3-8.9 17-16.8-10.8-5.2-30.4 1.8-31.6 8.7-.6 3.2.5 6 2.1 8.9l-7.5 3-7.5-3c1.7-2.8 2.7-5.7 2.1-8.9-1.3-6.9-20.8-13.9-31.6-8.7-16.3 7.9 6.4 13.5 17 16.8 2.3.7 4.6 1.5 6.8 2.2-1.5 2.2-3.3 4.4-4.7 6.6-2.1-.3-4.1-.5-6.1-.6-18.5-.6-31.4 2.4-44.8 9.5-9.2 4.9-14.6 11.2-16.1 18-6.9.4-12.7 3.9-12.4 8.3.1.8 1.8.8 2.3.2 2-2.7 5.5-4.8 9.7-5.3v.9c.1 6 4 11.9 10.5 16.4-1.6 2.1-3.9 4.1-6.8 5.9-8 4.8-18.8 6.1-28.6 4.9.5-.2 1-.5 1.5-.7 6.9-3.5 12.8-9.3 8-14.4-.6-.6-2.2-.3-2.2.3-.3 6.5-5.4 10.9-13.1 13.6-1.9-.5-3.7-1-5.4-1.7 5.9-1.8 9.4-4.8 7.5-8.6-.3-.7-2.2-.7-2.5 0-1.8 3.3-4.3 5.3-9.1 6.7-3.3-1.8-6.1-4-7.9-6.5-.4-.6-2.1-.7-2.4 0-.9 2.9 1.2 5.5 4.7 7.7-6.7.9-14.2.5-20.3-1.1-6.9-1.8-10.1-6.1-9.1-10.1.6-2.3 3.7-3.9 7.9-4.2 7.7-.5 3.9 5.7 1.1 6.6-.6.2-.4.9.4.8 8.2-.6 8.7-6.4 2.8-9-8.9-3.8-16.7 3.3-17 7.4-1 10.9 22.3 14.1 38 11.6zm127.2-39.7c-3.2-.5-6.1-1.2-8.7-2.3 2.6-1.9 5.5-3.7 8.7-5.2 3.2 1.6 6.1 3.4 8.7 5.2-2.6 1.1-5.5 1.8-8.7 2.3zm75.7 24.7c-.8.9-1.7 1.7-2.7 2.6-.6-1.5-1-3.1-.9-4.8.1-2.4.3-6 4-7.8 1.4-.7 2.8-1.2 4.2-1.4.1 3.9-1.3 7.8-4.6 11.4zm-38.5-39.6c22.2 1.5 39.5 12.9 42.6 25-1.9.3-3.8.9-5.6 1.7-8.6 4.2-9 12.2-5.3 18.3-6.3 3.9-14.8 6.5-24.7 6.8-7.6.2-17.1-.2-22.3-3.8-7-4.7-10.8-12.3-4.5-17.9.1-.1.3-.2.4-.3.2 2.6.3 5.3.5 7.8.1.7 1.8.8 2.2.2 2-3.5 2.6-7.4 2.2-11.2 6.5-3.9 14.9-8.4 13.9-13.4-.7-3.8-4-7.7-11.8-6.8-.6.1-.6.6 0 .6 16 2.3 7.1 10-1.1 15.6.6-5.4-.3-10.4-3.4-15.2.6-1.5.7-3.1.2-4.7-.2-.6-.4-1.1-.7-1.7 5.4-1 11.3-1.4 17.4-1zM315 166.4c1.4 2.6 2.3 5.2 3 7.9-1-2-2.3-3.9-3.9-5.6l-.9-.9c.7-.5 1.3-.9 1.8-1.4zm-4.3-1.1c-.1.1-.2.1-.2.2-2.3-1.7-5-3.4-8.1-5 1.9-.8 3.8-1.4 5.9-2.1 1.8 1.5 3.3 3 4.5 4.6-.5.8-1.1 1.5-2.1 2.3zm4.7-34.7c4.7-1.5 14.7-3.7 18.3.6 4.2 5.1-15.9 9.8-24.6 12.4-.2-.4-.4-.9-.6-1.3-1.6-4.5-1-9.3 6.9-11.7zm-8.4 17.2c1 1.4 2.1 2.9 3.1 4.4.4.6.8 1.1 1.1 1.7-.6.1-1.1.3-1.7.4-.5-.4-1-.7-1.6-1.1-1.8-1.2-3.8-2.3-6-3.3 1.6-.8 3.3-1.5 5.1-2.1zm-2.5 7.8c-2.4.8-4.7 1.6-6.9 2.5-2.2-.9-4.5-1.8-6.9-2.5 2.1-1.4 4.4-2.7 6.9-3.9 2.5 1.3 4.8 2.6 6.9 3.9zm-42.9-24.4c3.5-4.3 13.6-2 18.3-.6 7.9 2.5 8.5 7.2 6.9 11.6-.2.4-.4.9-.6 1.3-8.7-2.5-28.8-7.2-24.6-12.3zm23.6 20.9c1-1.5 2.1-2.9 3.1-4.4 1.7.7 3.4 1.3 5.1 2.1-2.2 1-4.2 2.1-6 3.3-.6.4-1.1.7-1.6 1.1-.6-.1-1.1-.3-1.7-.4.4-.5.8-1.1 1.1-1.7zm1.9 6.2c2 .6 4 1.3 5.9 2.1-3.1 1.6-5.9 3.3-8.1 5-.1-.1-.2-.1-.2-.2-.9-.7-1.6-1.5-2-2.3 1.1-1.5 2.6-3.1 4.4-4.6zm-6.8 8.1c.5.5 1.1.9 1.8 1.4l-.9.9c-1.6 1.8-2.9 3.7-3.9 5.6.7-2.7 1.6-5.3 3-7.9zm-19.8-11.2c6.1-.4 12 0 17.5.9-.2.6-.5 1.1-.7 1.7-.5 1.7-.4 3.3.2 4.7-3.1 4.7-4 9.8-3.4 15.2-8.2-5.6-17.1-13.3-1.1-15.6.6-.1.6-.6 0-.6-7.8-.9-11.1 3-11.8 6.8-1 5 7.5 9.4 13.9 13.4-.5 3.8.2 7.7 2.2 11.2.4.7 2.1.5 2.2-.2.2-2.5.3-5.1.5-7.8.1.1.3.2.4.3 6.3 5.7 2.5 13.2-4.5 17.9-5.3 3.6-14.7 4-22.3 3.8-9.9-.3-18.4-2.9-24.7-6.8 3.8-6.1 3.3-14.1-5.3-18.3-1.8-.9-3.7-1.4-5.6-1.7 2.9-12 20.3-23.3 42.5-24.9zm-38.6 39.6c-3.3-3.6-4.7-7.5-4.6-11.4 1.4.3 2.8.8 4.2 1.4 3.7 1.8 3.9 5.3 4 7.8.1 1.6-.3 3.2-.9 4.8-.9-.9-1.8-1.7-2.7-2.6zm203 190.7c-1.7-.8-3.6-1.4-5.5-2 5.2-1.2 11.2-1.8 17.6-2 1.1 0 1.3-.9.3-1-7.8-1.2-16.3-.6-23.6 1.4-1.6-.4-3.2-.7-4.6-.9-15.7-2.4-32.7 3.5-40.1 10.9-.1.1-.2.3-.3.4-8.9-4.9-21.4-7.5-35.1-6.1-15 1.6-23.7 7.4-25.1 15.8-.6 3.5 1.4 7.8 5.4 10.6.3.2.8.5 1.2.8-.7 4.2-2.2 8.3-6 11.8-1.5-.6-3.2-1.1-5-1.5 0-.3-.5-.7-1.2-.7-1.8-.1-3.5-.1-5.2-.1-1.7-.1-3.4-.1-5.2.1-.7.1-1.2.4-1.2.7-1.8.4-3.4.9-5 1.5-3.9-3.6-5.4-7.7-6-11.8.5-.3.9-.6 1.2-.8 4-2.8 6-7.1 5.4-10.6-1.4-8.4-10.1-14.2-25.1-15.8-13.8-1.5-26.2 1.2-35.1 6.1-.1-.1-.2-.3-.3-.4-7.3-7.4-24.3-13.3-40.1-10.9-1.5.2-3 .5-4.6.9-7.3-2-15.8-2.7-23.6-1.4-1 .2-.8 1 .3 1 6.3.1 12.3.8 17.6 2-1.9.6-3.8 1.3-5.5 2-15.7-2.5-39 .7-38.2 11.6.3 4.1 8.2 11.2 17 7.4 5.8-2.5 5.4-8.4-2.8-9-.8-.1-1 .6-.4.8 2.8 1 6.6 7.1-1.1 6.6-4.2-.3-7.3-1.9-7.9-4.2-1.1-4 2.1-8.3 9.1-10.1 6.1-1.6 13.6-2.1 20.3-1.1-3.5 2.2-5.6 4.8-4.7 7.7.2.7 2 .6 2.4 0 1.8-2.5 4.5-4.7 7.9-6.5 4.8 1.4 7.3 3.4 9.1 6.7.4.7 2.2.7 2.5 0 1.9-3.9-1.6-6.8-7.5-8.6 1.7-.7 3.5-1.2 5.4-1.7 7.7 2.8 12.8 7.2 13.1 13.6 0 .6 1.6.9 2.2.3 4.8-5-1.1-10.9-8-14.4-.5-.2-1-.5-1.5-.7 9.8-1.3 20.5 0 28.6 4.9 2.9 1.7 5.2 3.7 6.8 5.9-6.5 4.5-10.4 10.4-10.5 16.4v.9c-4.2-.5-7.7-2.6-9.7-5.3-.5-.7-2.2-.6-2.3.2-.3 4.4 5.5 7.9 12.4 8.3 1.5 6.8 6.8 13.1 16.1 18 13.4 7.1 26.3 10.2 44.8 9.5 2-.1 4-.3 6.1-.6 1.5 2.2 3.3 4.4 4.7 6.6-2.3.8-4.5 1.5-6.8 2.2-10.6 3.3-33.3 8.9-17 16.8 10.8 5.2 30.4-1.8 31.6-8.7.6-3.2-.5-6-2.1-8.9l7.5-3 7.5 3c-1.7 2.8-2.7 5.7-2.1 8.9 1.3 6.9 20.8 13.9 31.6 8.7 16.3-7.9-6.4-13.5-17-16.8-2.3-.7-4.6-1.5-6.8-2.2 1.5-2.2 3.3-4.4 4.7-6.6 2.1.3 4.1.5 6.1.6 18.5.6 31.4-2.4 44.8-9.5 9.2-4.9 14.6-11.2 16.1-18 6.9-.4 12.7-3.9 12.4-8.3-.1-.8-1.8-.8-2.3-.2-2 2.7-5.5 4.8-9.7 5.3v-.9c-.1-6-4-11.9-10.5-16.4 1.6-2.1 3.9-4.1 6.8-5.9 8-4.8 18.8-6.1 28.6-4.9-.5.2-1 .5-1.5.7-6.9 3.5-12.8 9.3-8 14.4.6.6 2.2.3 2.2-.3.3-6.5 5.4-10.9 13.1-13.6 1.9.5 3.7 1 5.4 1.7-5.9 1.8-9.4 4.8-7.5 8.6.3.7 2.2.7 2.5 0 1.8-3.3 4.3-5.3 9.1-6.7 3.3 1.8 6.1 4 7.9 6.5.4.6 2.1.7 2.4 0 .9-2.9-1.2-5.5-4.7-7.7 6.7-.9 14.2-.5 20.3 1.1 6.9 1.8 10.1 6.1 9.1 10.1-.6 2.3-3.7 3.9-7.9 4.2-7.7.5-3.9-5.7-1.1-6.6.6-.2.4-.9-.4-.8-8.2.6-8.7 6.4-2.8 9 8.9 3.8 16.7-3.3 17-7.4 1-10.9-22.4-14.1-38-11.6zm-127.3 39.7c3.2.5 6.1 1.2 8.7 2.3-2.6 1.9-5.5 3.7-8.7 5.2-3.2-1.6-6.1-3.4-8.7-5.2 2.7-1.1 5.6-1.8 8.7-2.3zm-75.7-24.7c.8-.9 1.7-1.7 2.7-2.6.6 1.5 1 3.1.9 4.8-.1 2.4-.3 6-4 7.8-1.4.7-2.8 1.2-4.2 1.4-.1-4 1.3-7.8 4.6-11.4zm38.6 39.5c-22.2-1.5-39.5-12.9-42.6-25 1.9-.3 3.8-.9 5.6-1.7 8.6-4.2 9-12.2 5.3-18.3 6.3-3.9 14.8-6.5 24.7-6.8 7.6-.2 17.1.2 22.3 3.8 7 4.7 10.8 12.3 4.5 17.9-.1.1-.3.2-.4.3-.2-2.6-.3-5.3-.5-7.8-.1-.7-1.8-.8-2.2-.2-2 3.5-2.6 7.4-2.2 11.2-6.5 3.9-14.9 8.4-13.9 13.4.7 3.8 4 7.7 11.8 6.8.6-.1.6-.6 0-.6-16-2.3-7.1-10 1.1-15.6-.6 5.4.3 10.4 3.4 15.2-.6 1.5-.7 3.1-.2 4.7.2.6.4 1.1.7 1.7-5.4 1.1-11.3 1.5-17.4 1zm19.8-11.1c-1.4-2.6-2.3-5.2-3-7.9 1 2 2.3 3.9 3.9 5.6l.9.9c-.7.4-1.3.9-1.8 1.4zm4.2 1.1c.1-.1.2-.1.2-.2 2.3 1.7 5 3.4 8.1 5-1.9.8-3.8 1.4-5.9 2.1-1.8-1.5-3.3-3-4.5-4.6.6-.8 1.2-1.6 2.1-2.3zm-4.6 34.7c-4.7 1.5-14.7 3.7-18.3-.6-4.2-5.1 15.9-9.8 24.6-12.4.2.4.4.9.6 1.3 1.6 4.5 1 9.2-6.9 11.7zm8.4-17.2c-1-1.4-2.1-2.9-3.1-4.4-.4-.6-.8-1.1-1.1-1.7.6-.1 1.1-.3 1.7-.4.5.4 1 .7 1.6 1.1 1.8 1.2 3.8 2.3 6 3.3-1.7.8-3.4 1.4-5.1 2.1zm2.4-7.9c2.4-.8 4.7-1.6 6.9-2.5 2.2.9 4.5 1.8 6.9 2.5-2.1 1.4-4.4 2.7-6.9 3.9-2.4-1.2-4.8-2.5-6.9-3.9zm43 24.5c-3.5 4.3-13.6 2-18.3.6-7.9-2.5-8.5-7.2-6.9-11.6.2-.4.4-.9.6-1.3 8.7 2.5 28.8 7.2 24.6 12.3zm-23.7-21c-1 1.5-2.1 2.9-3.1 4.4-1.7-.7-3.4-1.3-5.1-2.1 2.2-1 4.2-2.1 6-3.3.6-.4 1.1-.7 1.6-1.1.6.1 1.1.3 1.7.4-.3.6-.7 1.2-1.1 1.7zm-1.8-6.2c-2-.6-4-1.3-5.9-2.1 3.1-1.6 5.9-3.3 8.1-5 .1.1.2.1.2.2.9.7 1.6 1.5 2 2.3-1.1 1.6-2.6 3.2-4.4 4.6zm6.8-8c-.5-.5-1.1-.9-1.8-1.4l.9-.9c1.6-1.8 2.9-3.7 3.9-5.6-.7 2.7-1.6 5.3-3 7.9zm19.8 11.1c-6.1.4-12 0-17.5-.9.2-.6.5-1.1.7-1.7.5-1.7.4-3.3-.2-4.7 3.1-4.7 4-9.8 3.4-15.2 8.2 5.6 17.1 13.3 1.1 15.6-.6.1-.6.6 0 .6 7.8.9 11.1-3 11.8-6.8 1-5-7.5-9.4-13.9-13.4.5-3.8-.2-7.7-2.2-11.2-.4-.7-2.1-.5-2.2.2-.2 2.5-.3 5.1-.5 7.8-.1-.1-.3-.2-.4-.3-6.3-5.7-2.5-13.2 4.5-17.9 5.3-3.6 14.7-4 22.3-3.8 9.9.3 18.4 2.9 24.7 6.8-3.8 6.1-3.3 14.1 5.3 18.3 1.8.9 3.7 1.4 5.6 1.7-3 12.1-20.3 23.4-42.5 24.9zm38.5-39.5c3.3 3.6 4.7 7.5 4.6 11.4-1.4-.3-2.8-.8-4.2-1.4-3.7-1.8-3.9-5.3-4-7.8-.1-1.6.3-3.2.9-4.8 1 .8 1.9 1.7 2.7 2.6zm160.5-27.4c6.2-17.8 10.2-36.3 11.9-55.3 2.1-1.2 3-2.8 1.5-4.8-.2-.3-.8-.4-1.1-.2.3-5 .5-10.1.5-15.2s-.2-10.1-.5-15.2c.4.1.9.1 1.1-.2 1.5-2 .7-3.6-1.5-4.8-1.7-19-5.7-37.6-11.9-55.3 7.4-.1 15.4-.7 18.9-4.5.5-.6-.7-1.1-1.6-.7-4.8 2.2-11.7 2.8-18.2 2.7-12.2-33.5-32.2-64.1-59.3-89.9-45-42.9-104.2-67.3-167.6-69.3 3.6-6.5 4-13.4-3.6-17.8-.9-.5-2.9 0-2.4.8.8 1.1 1.5 2.2 1.9 3.5 1.1 4.2.4 9-1.9 13.4h-4.8c-2.3-4.4-3.1-9.2-1.9-13.4.3-1.2 1-2.3 1.9-3.5.6-.8-1.5-1.3-2.4-.8-7.5 4.4-7.1 11.3-3.6 17.8-63.3 2-122.5 26.4-167.6 69.3-27.1 25.8-47.1 56.4-59.3 89.9-6.5 0-13.4-.5-18.2-2.7-.9-.4-2.1.1-1.6.7 3.5 3.8 11.4 4.4 18.9 4.5-6.2 17.8-10.2 36.3-11.9 55.3-2.1 1.2-3 2.8-1.5 4.8.2.3.8.4 1.1.2-.3 5-.5 10.1-.5 15.2s.2 10.1.5 15.2c-.4-.1-.9-.1-1.1.2-1.5 2-.7 3.6 1.5 4.8 1.7 19 5.7 37.6 11.9 55.3-7.4.1-15.4.7-18.9 4.5-.5.6.7 1.1 1.6.7 4.8-2.2 11.7-2.8 18.2-2.7 12.2 33.5 32.2 64.1 59.3 89.9 45 42.9 104.3 67.3 167.6 69.3-3.6 6.5-4 13.4 3.6 17.8.9.5 2.9 0 2.4-.8-.8-1.1-1.5-2.2-1.9-3.5-1.1-4.2-.4-9 2-13.5h4.8c2.3 4.4 3.1 9.2 2 13.5-.3 1.2-1 2.3-1.9 3.5-.6.8 1.5 1.3 2.4.8 7.5-4.4 7.1-11.3 3.6-17.8 63.3-2 122.5-26.4 167.6-69.3 27.1-25.8 47.1-56.4 59.3-89.9 6.5 0 13.4.5 18.2 2.7.9.4 2.1-.1 1.6-.7-3.7-3.8-11.7-4.4-19.1-4.5zm-3.4 0H527c-1.9 0-3.6.1-5.4.4 6.4-17.2 10.6-35.1 12.5-53.6 2.4.1 4.9-.1 7.2-.6.4-.1.9-.2 1.3-.3-1.9 18.8-6 36.9-12.2 54.1zM513 400.9c-.6 3.7-4.1 6.7-9 9.2 2.6-4.4 5.1-8.8 7.4-13.3 1.2 1.2 1.8 2.6 1.6 4.1zM402.7 509.3c-2.3-1.7-4.5-3.5-6.8-5.4 14.7-6.4 28.8-14.2 42-23.5 1.9-.6 3.7-1.3 5.4-2.2 6.7-1.5 12.9-3.7 18.3-6.4-17.5 15.2-37.3 27.8-58.9 37.5zM297.6 519c-2.5 0-5-.1-7.5-.1-1.6-1-3.1-2.1-4.7-3.1 4.5-.7 8.6-1.9 12.2-3.5 3.6 1.6 7.7 2.9 12.2 3.5-1.6 1-3.1 2.1-4.7 3.1-2.5.1-5 .1-7.5.1zm.4 5.1c-.1.1-.3.2-.4.3-.1-.1-.3-.2-.4-.3h.8zM133.6 472c5.4 2.7 11.6 4.9 18.3 6.4 1.7.8 3.5 1.5 5.4 2.2 13.2 9.2 27.2 17.1 42 23.5-2.2 1.8-4.5 3.6-6.8 5.4-21.5-9.9-41.3-22.5-58.9-37.5zm-49.7-75.2c2.3 4.5 4.8 8.9 7.4 13.3-4.9-2.5-8.4-5.5-9-9.2-.2-1.5.4-2.9 1.6-4.1zm-9.4-36.9c2.4.8 5 1.6 6.9 2.8 1.7 1 2.5 2.2 3.8 3.3.5.9 1.1 1.7 1.7 2.4.4.5 1.5.3 1.8-.1 2.1-3.1-.7-7.3-3.9-10-2.9-2.5-6.9-4.5-12.2-4.7-2.9-10.6-5-21.5-6.2-32.7.3.1.6.2 1 .3 2.8.7 5.1-1.4 2.4-2.3-.1-.1-.3-.1-.4-.2 3.8-.9 7.3-2.1 10.2-3.3 1.9-.8 3.7-1.6 5.4-2.6 1 .7 1.8 1.6 2.5 2.4 4 5 5.7 10.4 6.1 15.8.8 9.1-.8 17.9-2 26.9-1 7.1-.9 15.5 8.4 21 3.7 2.2 8.4 4 13.4 5.1 4.3 8.2 9.1 16.1 14.4 23.6-10.3-6.6-14.6-15.1-25-21.6-6.3-4-14-8.9-23.2-11.4-1.9-4.8-3.6-9.7-5.1-14.7zm-22.8-62.3c0-6.1.3-12.2.7-18.3 2.3-1.3 5.2-1.8 8.5-1.6v.3c-.5 1-.6 2.1-.3 3.2-.4 5.4-.6 10.9-.6 16.4 0 5.5.2 11 .6 16.4-.3 1.1-.3 2.2.3 3.2v.3c-3.3.2-6.2-.2-8.5-1.6-.4-6-.7-12.1-.7-18.3zm20.9-55.9c5.3-.2 9.3-2.3 12.2-4.7 3.1-2.7 5.9-6.9 3.9-10-.3-.4-1.4-.6-1.8-.1-.6.7-1.2 1.6-1.7 2.4-1.3 1.1-2.1 2.3-3.8 3.3-1.9 1.2-4.5 1.9-6.9 2.8 1.5-5 3.3-9.9 5.1-14.8 9.2-2.4 16.9-7.4 23.2-11.4 10.4-6.6 14.7-15.1 25-21.6-5.4 7.5-10.2 15.4-14.4 23.6-5.1 1.1-9.7 2.9-13.4 5.1-9.3 5.6-9.4 14-8.4 21 1.2 9 2.8 17.8 2 26.9-.5 5.4-2.1 10.8-6.1 15.8-.7.9-1.5 1.7-2.5 2.4-1.7-1-3.4-1.8-5.4-2.6-2.9-1.1-6.4-2.4-10.2-3.3.1-.1.3-.1.4-.2 2.6-.9.4-3-2.4-2.3-.4.1-.7.2-1 .3 1.2-11.1 3.3-22 6.2-32.6zm9.7-47.3c.6-3.7 4.1-6.7 9-9.2-2.6 4.4-5.1 8.8-7.4 13.3-1.2-1.2-1.8-2.6-1.6-4.1zM192.6 85.9c2.3 1.7 4.5 3.5 6.8 5.4-14.7 6.4-28.8 14.2-42 23.5-1.9.6-3.7 1.3-5.4 2.1-6.7 1.5-12.9 3.7-18.3 6.4 17.5-15 37.3-27.6 58.9-37.4zm105-9.6c2.5 0 5 .1 7.4.1 1.6 1 3.2 2.1 4.7 3.1-4.5.7-8.6 1.9-12.2 3.5-3.6-1.6-7.7-2.9-12.2-3.5 1.6-1 3.2-2.1 4.7-3.1 2.7-.1 5.1-.1 7.6-.1zm-.3-5.2c.1-.1.3-.2.4-.3.1.1.3.2.4.3h-.8zm164.4 52.2c-5.5-2.7-11.6-4.9-18.3-6.4-1.7-.8-3.5-1.5-5.4-2.1-13.2-9.2-27.3-17.1-42-23.5 2.2-1.8 4.5-3.6 6.8-5.4 21.5 9.8 41.3 22.4 58.9 37.4zm49.7 75.2c-2.3-4.5-4.8-8.9-7.4-13.3 4.9 2.5 8.4 5.5 9 9.2.2 1.5-.4 2.9-1.6 4.1zm9.4 36.9c-2.4-.8-5-1.6-6.9-2.8-1.7-1-2.5-2.2-3.8-3.3-.5-.9-1.1-1.7-1.7-2.4-.4-.5-1.5-.3-1.8.1-2.1 3.1.7 7.3 3.9 10 2.9 2.5 6.9 4.5 12.2 4.7 2.9 10.6 5 21.5 6.2 32.7-.3-.1-.6-.2-1-.3-2.8-.7-5.1 1.4-2.4 2.3.1.1.3.1.4.2-3.8.9-7.3 2.1-10.2 3.3-1.9.8-3.7 1.6-5.4 2.6-1-.7-1.8-1.6-2.5-2.4-4-5-5.7-10.4-6.1-15.8-.8-9.1.8-17.9 2-26.9 1-7.1.9-15.5-8.4-21-3.7-2.2-8.4-4-13.4-5.1-4.2-8.2-9.1-16.1-14.4-23.6 10.3 6.6 14.6 15.1 25 21.6 6.3 4 14 8.9 23.2 11.4 1.8 4.7 3.6 9.7 5.1 14.7zm22.8 62.2c0 6.1-.3 12.2-.7 18.3-2.3 1.3-5.2 1.8-8.5 1.6v-.3c.5-1 .6-2.1.3-3.2a224.658 224.658 0 0 0 0-32.8c.3-1.1.3-2.2-.3-3.2v-.3c3.3-.2 6.2.2 8.5 1.6.4 6.1.7 12.2.7 18.3zM483.4 381c3.1-6.2 5.8-12.6 8.2-19.1.6.5 1.1 1 1.7 1.6.6 1 1 2.1 1.8 3.2.1.2.5.3.9.2 4-1.2.9-5.1-.7-6.6-.7-.6-1.5-1.3-2.4-1.8 1.8-5.3 3.4-10.7 4.8-16.2 1.4 12.8 10.2 32.1-14.3 38.7zm-.4 39.7c3.3-.9 6.6-1.7 9.7-2.7-2.6 3.8-5.3 7.6-8.2 11.2-.4-2.9-1-5.7-1.5-8.5zm-16.3 43.7c-4.1 3.1-9 6.1-14.8 8.3 2.7-2.4 4.7-5.1 5.9-7.8 2.6-2.3 5.2-4.6 7.8-7.1 5.1-4.9 10-10 14.6-15.2-.8 7.6-4.3 14.8-13.5 21.8zm-7.4-7.8c-.4-4.3-2.4-8.5-6.2-12.2-.7-.7-2.3-.2-2.1.5 1.8 5.3 3.8 11.1 2.8 16.6-6.3 5.4-12.9 10.5-19.7 15.3-8.3.8-18 .7-23.6-3.1-.6-.4-1.8 0-1.6.5 2.6 4.5 11.5 5.8 20.2 5.7-5.3 1.2-11 1.6-16.7.8-9.3-1.3-16.2-5.5-18.1-10.4 5.6-2.9 11-6 16.3-9.3.9 1.7.9 3.5-1.6 4.9-.9.5.3 1.3 1.3 1 4.8-1.7 5.4-5.1 3.4-7.9 12.9-8.5 24.7-18.3 35.3-29.3 3.5-1.1 7.1-2.2 10.8-3.2 5.9-1.6 12.1-3.1 18.2-4.5.8 4.4 1.7 8.6 2.1 12.8-6.4 7.6-13.4 14.9-20.8 21.8zm-53.7 30.3c-5.7-6-14.7-9.6-26.2-9.7 3.7-1.5 7.4-3.2 10.9-4.9.7 1.5 1.9 3 3.5 4.3 7.2 5.7 19 7.7 30.4 6.7-5.3 3.3-10.7 6.3-16.2 9.2.3-1.7-.6-3.8-2.4-5.6zm6.1-30.2c-2-1.5-4.8-2.5-8.1-2.6-7.1-.2-12.3 5.7-13.5 8.8-.8 2-1.1 4.2-.7 6.4-4.1 2-8.3 3.9-12.6 5.6.1-1.6.3-3.3.9-4.9 2.3-6.7 7.1-13.3 15.2-18.5 8.5-5.4 19.4-8.8 30.1-12.7 6.5-2.3 13-4.7 19.6-7-9.3 9.3-19.7 17.6-30.9 24.9zm-2.9 1.9c-4.9 3.1-9.9 5.9-15 8.6 0-1.1.3-2.3.9-3.4 1.3-2.6 8.4-10.6 13.9-5.3.1 0 .2 0 .2.1zm68.7-39.9c-8.1 2-16.1 4-23.9 6.2 3.2-3.6 6.3-7.2 9.2-11 2.5-1 4.9-2.1 7-3.2 3.2-1.7 6-3.7 8.4-5.8-1.5 4.5-1.4 9.2-.7 13.8zm-16.3-7.7c-16.4 6.9-45.8 7.2-52.1-5.8-.4-.8-2.2-.5-2.3.2-1.6 7 11 11.7 21.9 13.3 9.7 1.4 19.9-.1 28.7-2.9-3.1 3.7-6.3 7.4-9.6 10.9-11.4 3.7-22.4 7.7-33.5 11.7-9.1 3.2-18.3 6.2-25.2 11-11.2 7.7-18.6 17.7-17.7 27.8-.8.3-1.7.6-2.5.9-7.2 1-14.3 2.7-20.4 5.2-4.1-5.7-11.6-10.5-22.5-12.7-13.2-2.7-33.7 3.5-23.3 12.2 4 3.3 25 8.3 22.7.7-.2-.7-2.2-.8-2.8-.2-.2.1-.3.3-.4.4-4.5 4-17.4-1.8-16.9-5.4.9-6.7 15.2-6.8 22.7-3.9 7 2.7 12.6 6.6 15.8 11-7.8 1.7-15.8 3-23.9 3.9-1.3-.5-2.7-1-4.2-1.4-6.1-1.5-12.6-1.4-18-.1-5.4-1.3-11.9-1.4-18 .1-1.6.4-3 .9-4.2 1.4-8.1-.9-16.1-2.2-23.9-3.9 3.2-4.4 8.8-8.3 15.8-11 7.5-2.9 21.8-2.9 22.7 3.9.5 3.7-12.4 9.5-16.9 5.4l-.4-.4c-.6-.6-2.6-.5-2.8.2-2.3 7.6 18.7 2.6 22.7-.7 10.4-8.7-10.1-14.9-23.3-12.2-10.9 2.2-18.4 7.1-22.5 12.7-6.1-2.5-13.2-4.2-20.4-5.2-.8-.3-1.7-.6-2.5-.9.9-10.1-6.5-20-17.7-27.8-6.9-4.7-16.1-7.7-25.2-11-11.1-4-22.1-8-33.5-11.7-3.3-3.5-6.5-7.2-9.6-10.9 8.8 2.7 19.1 4.2 28.7 2.9 10.9-1.5 23.5-6.3 21.9-13.3-.2-.7-1.9-.9-2.3-.2-6.3 13.1-35.8 12.7-52.1 5.8-6.3-8.3-12-17-16.9-26.2 3.2.4 6.6.6 10 .5 9.6-.5 20-2.7 24.7-7.7 4.1-4.4 5.7-10.7-.2-14.9-5.4-3.9-16.1-5.5-23-1.8-6.1 3.2-1 8.1 4.3 10.1 1.7.6 3.6-.8 2.1-1.5-12.2-6.4 10.2-11.2 14.3-3.2 1.9 3.6 1.4 7.9-2.9 11-7 5-20.1 6.8-30.9 4.8-3.5-6.8-6.6-13.9-9.3-21.2.1 0 .3-.1.4-.1 1.8-.2 3.6-.4 5.3-.7 1.4-.3 3.1-.6 3.1-1.6 0-.9-2-1.7-3.4-1.8-2.4-.3-4.6 0-6.6.7-3.1-9-5.5-18.3-7.2-27.9-.1-2.4-.5-4.8-1.1-7.1-.8-6-1.3-12.2-1.5-18.4 0-.1.1-.1.1-.2.8 2.8 1.5 5.7 2.7 8.6.2.4 1.3.4 1.5 0 1.7-4.5 1.4-9.6-.7-14.7 2.1-5 2.4-10.2.7-14.7-.2-.4-1.3-.4-1.5 0-1.2 2.9-1.9 5.8-2.7 8.6 0-.1-.1-.1-.1-.2.2-6.2.7-12.3 1.5-18.4.7-2.4 1-4.8 1.1-7.2 1.7-9.5 4.1-18.8 7.2-27.9 1.9.6 4.2.9 6.6.7 1.4-.1 3.4-.9 3.4-1.8 0-1-1.7-1.3-3.1-1.6-1.7-.3-3.5-.5-5.3-.7-.1 0-.3-.1-.4-.1 2.7-7.3 5.7-14.3 9.3-21.2 10.8-2 23.9-.3 30.9 4.8 4.3 3.1 4.8 7.3 2.9 11-4.1 8.1-26.5 3.2-14.3-3.2 1.4-.7-.5-2.1-2.1-1.5-5.4 2-10.4 6.9-4.3 10.1 6.9 3.6 17.6 2 23-1.8 5.9-4.2 4.4-10.5.2-14.9-4.7-5-15.2-7.3-24.7-7.7-3.4-.2-6.8 0-10 .5 4.9-9.2 10.6-17.9 16.9-26.2 16.4-6.9 45.9-7.2 52.1 5.8.4.8 2.2.5 2.3-.2 1.6-7-11-11.7-21.9-13.3-9.7-1.4-19.9.1-28.7 2.9 3.1-3.7 6.3-7.4 9.6-10.9 11.4-3.7 22.4-7.7 33.6-11.7 9.1-3.2 18.3-6.2 25.2-11 11.2-7.7 18.6-17.7 17.7-27.8.8-.3 1.6-.6 2.5-.9 7.2-1 14.3-2.7 20.4-5.2 4.1 5.7 11.6 10.5 22.5 12.7 13.2 2.7 33.7-3.5 23.3-12.2-4-3.3-25-8.3-22.7-.7.2.7 2.2.8 2.8.2.2-.1.3-.3.4-.4 4.5-4 17.4 1.8 16.9 5.4-.9 6.7-15.2 6.8-22.7 3.9-7-2.7-12.6-6.6-15.8-11 7.8-1.7 15.8-3 23.9-3.9 1.3.6 2.7 1 4.3 1.4 6.1 1.5 12.6 1.4 18 .1 5.4 1.3 11.9 1.4 18-.1 1.6-.4 3-.9 4.3-1.4 8.1.9 16.1 2.2 23.9 3.9-3.2 4.4-8.8 8.3-15.8 11-7.5 2.9-21.8 2.9-22.7-3.9-.5-3.7 12.4-9.5 16.9-5.4l.4.4c.6.6 2.6.5 2.8-.2 2.3-7.6-18.7-2.6-22.7.7-10.4 8.7 10.1 14.9 23.3 12.2 10.9-2.2 18.4-7.1 22.5-12.7 6.1 2.5 13.2 4.2 20.4 5.2.8.3 1.6.6 2.5.9-.9 10.1 6.5 20 17.7 27.8 6.9 4.7 16.1 7.7 25.2 11 11.1 4 22.1 8 33.6 11.7 3.3 3.5 6.5 7.2 9.6 10.9-8.8-2.7-19.1-4.2-28.7-2.9-10.9 1.5-23.5 6.3-21.9 13.3.2.7 1.9.9 2.3.2 6.3-13.1 35.8-12.7 52.1-5.8 6.3 8.3 12 17 16.9 26.2-3.2-.4-6.6-.6-10-.5-9.5.5-20 2.7-24.7 7.7-4.1 4.4-5.7 10.7.2 14.9 5.4 3.9 16.1 5.5 23 1.8 6.1-3.2 1-8.1-4.3-10.1-1.7-.6-3.6.8-2.1 1.5 12.2 6.4-10.2 11.2-14.3 3.2-1.9-3.6-1.4-7.9 2.9-11 7-5 20.1-6.8 30.9-4.8 3.5 6.8 6.6 13.9 9.3 21.2-.1 0-.3.1-.4.1-1.8.2-3.6.4-5.3.7-1.4.3-3.1.6-3.1 1.6 0 .9 2 1.7 3.4 1.8 2.4.3 4.6 0 6.6-.7 3.1 9 5.5 18.3 7.2 27.9.1 2.4.5 4.8 1.1 7.2.8 6 1.3 12.2 1.5 18.3 0 .1-.1.1-.1.2-.8-2.8-1.5-5.7-2.7-8.6-.2-.4-1.3-.4-1.5 0-1.7 4.5-1.4 9.6.7 14.7-2.1 5-2.4 10.2-.7 14.7.2.4 1.3.4 1.5 0 1.2-2.9 1.9-5.8 2.7-8.6 0 .1.1.1.1.2-.2 6.2-.7 12.3-1.5 18.4-.6 2.4-1 4.8-1.1 7.2-1.7 9.5-4.1 18.9-7.2 27.9-1.9-.6-4.2-.9-6.6-.7-1.4.1-3.4.9-3.4 1.8 0 1 1.7 1.3 3.1 1.6 1.7.3 3.5.5 5.3.7.1 0 .3 0 .4.1-2.7 7.3-5.7 14.4-9.3 21.2-10.8 2-23.9.3-30.9-4.8-4.3-3.1-4.8-7.3-2.9-11 4.1-8.1 26.5-3.2 14.3 3.2-1.4.7.5 2.1 2.1 1.5 5.4-2 10.4-6.9 4.3-10.1-6.9-3.6-17.6-2-23 1.8-5.9 4.2-4.4 10.5-.2 14.9 4.7 5 15.2 7.3 24.7 7.7 3.4.2 6.8 0 10-.5-5.3 9.2-11 17.9-17.3 26.2zm-114.5 82.2c0 5.5-3.1 11.6-10.1 15.5-3-3.7-1.6-8 .7-11.9 1.9-3.2 4.7-5.9 8.4-8.2.6 1.5 1 3.1 1 4.6zm-12.9 0c-3 4.2-6.9 10.6-3.7 15.1.6.9 1.4 1.7 2.2 2.4-2.4.9-5.1 1.5-8.2 1.9-1 .1-2 .2-3 .2.7-.6 1.3-1.1 1.9-1.7 5.4-5.2 7.5-13.8 1.1-19.3 4.3-.5 8.7-1.2 12.9-2-1.2 1-2.3 2.2-3.2 3.4zm-72.4 0c-.9-1.2-2-2.3-3.2-3.4 4.3.8 8.6 1.5 12.9 2-6.3 5.5-4.3 14.1 1.1 19.3.6.6 1.3 1.1 1.9 1.7-1 0-2-.1-3-.2-3.1-.4-5.8-1-8.2-1.9.9-.7 1.6-1.5 2.2-2.4 3.2-4.6-.6-11-3.7-15.1zm-11.8-4.6c3.7 2.3 6.5 5 8.4 8.2 2.3 3.9 3.8 8.2.7 11.9-7-3.9-10.1-10-10.1-15.5 0-1.5.3-3.1 1-4.6zm22.9 11.7c0-2.9 1.8-5.7 5.2-7.9 3.1.3 6.1.5 9.2.7-1.8 2-2.5 4.4-1.8 7 1 3.6 4 7 8.2 9.8-3.7 1.4-8 2.3-12.5 2.7-4.6-3.6-8.3-7.5-8.3-12.3zm30.6-10.8c2.5-.3 5.3-.3 8.1.4-2.2.1-4.4.2-6.7.3-.4-.3-.9-.5-1.4-.7zm-12.4.7c-2.2-.1-4.5-.2-6.7-.3 2.8-.7 5.6-.8 8.1-.4-.5.2-.9.4-1.4.7zm.1 8c.2-1.7 1.4-3.4 3.1-4.9h7.6c1.7 1.5 2.8 3.2 3.1 4.9.6 3.9-2.3 7.3-6.9 9.8-4.6-2.5-7.5-5.8-6.9-9.8zm19.3 2c.7-2.6 0-5-1.8-7 3.1-.2 6.2-.4 9.2-.7 3.4 2.1 5.2 4.9 5.2 7.9 0 4.8-3.7 8.7-8.5 12.3-4.4-.4-8.7-1.3-12.5-2.7 4.4-2.8 7.4-6.2 8.4-9.8zm-122.8-7.7c-5.6-2.9-11-5.9-16.2-9.2 11.4 1 23.2-.9 30.4-6.7 1.6-1.3 2.8-2.8 3.5-4.3 3.6 1.7 7.2 3.4 10.9 4.9-11.5.1-20.5 3.7-26.2 9.7-1.8 1.8-2.7 3.9-2.4 5.6zm-43.9-19.7c-5.8-2.3-10.7-5.3-14.8-8.3-9.2-7-12.7-14.3-13.5-21.8 4.6 5.2 9.5 10.3 14.6 15.2 2.5 2.4 5.1 4.8 7.8 7.1 1.2 2.7 3.2 5.3 5.9 7.8zm-32.7-43.7c-2.8-3.6-5.6-7.4-8.2-11.2 3.2 1 6.4 1.9 9.7 2.7-.4 2.9-1 5.7-1.5 8.5zm95.2 40.3c.3-2.1 0-4.3-.7-6.4-1.1-3.1-6.4-9-13.5-8.8-3.3.1-6.1 1.1-8.1 2.6-11.2-7.3-21.6-15.7-31.1-24.9 6.6 2.3 13.1 4.7 19.6 7 10.7 3.9 21.6 7.3 30.1 12.7 8.2 5.2 13 11.8 15.2 18.5.6 1.7.8 3.3.9 4.9-4.1-1.8-8.3-3.6-12.4-5.6zm-4.4-2.3c-5.1-2.7-10.1-5.5-15-8.6l.2-.2c5.5-5.3 12.6 2.7 13.9 5.3.5 1.3.8 2.4.9 3.5zm-84.4-62.2c2.4 2.1 5.1 4.1 8.4 5.8 2.1 1.1 4.5 2.2 7 3.2 2.9 3.8 6 7.5 9.2 11-7.8-2.3-15.9-4.2-23.9-6.2.6-4.6.7-9.3-.7-13.8zm24.3 56.6c-1-5.5 1-11.3 2.8-16.6.2-.7-1.4-1.1-2.1-.5-3.8 3.7-5.8 7.9-6.2 12.2-7.4-6.9-14.4-14.2-20.8-21.9.4-4.2 1.2-8.4 2.1-12.8 6.1 1.5 12.2 2.9 18.2 4.5 3.7 1 7.2 2.1 10.8 3.2 10.5 11 22.4 20.8 35.3 29.3-2 2.9-1.4 6.3 3.4 7.9 1.1.4 2.2-.5 1.3-1-2.4-1.4-2.5-3.2-1.6-4.9 5.3 3.3 10.7 6.4 16.3 9.3-2 4.9-8.8 9.1-18.1 10.4-5.7.8-11.4.4-16.7-.8 8.7.1 17.6-1.3 20.2-5.7.3-.5-1-.9-1.6-.5-5.5 3.8-15.2 3.9-23.6 3.1-6.8-4.7-13.4-9.8-19.7-15.2zM66.5 278.6c5.2 1.2 10.6 3.4 14.8 5.7-1.7.6-3.7 1-6.1 1.1-6.9.2-10.7-3.8-8.7-6.8zm0 38.1c-2-3 1.8-7 8.7-6.8 2.4.1 4.4.5 6.1 1.1-4.2 2.3-9.6 4.5-14.8 5.7zm12.1-9.8c-5.2-.8-9.9.3-13.2 2.1a216.863 216.863 0 0 1 0-22.8c3.3 1.8 8 2.9 13.2 2.1 2.5-.4 4.7-1 6.6-1.8 1.4 1 2.6 1.9 3.3 2.7 1.7 1.8 2.9 3.6 3.8 5.4v6c-1 1.8-2.2 3.6-3.8 5.4-.7.8-1.9 1.7-3.3 2.7-2-.8-4.1-1.4-6.6-1.8zm33.2-92.6c-3.1 6.2-5.8 12.6-8.2 19.1-.6-.5-1.1-1-1.7-1.6-.6-1-1-2.1-1.8-3.2-.1-.2-.5-.3-.9-.2-4 1.2-.9 5.1.7 6.6.7.6 1.5 1.3 2.4 1.8-1.8 5.3-3.4 10.7-4.8 16.2-1.3-12.8-10.1-32.2 14.3-38.7zm-23.2 70.5c1.8-1.1 3.2-2.4 4.4-3.9-.2 2.4-.4 4.8-.5 7.2-1.2-1.1-2.5-2.2-3.9-3.3zm3.9 22.3c.1 2.4.3 4.8.5 7.2-1.2-1.4-2.6-2.8-4.4-3.9 1.4-1 2.7-2.1 3.9-3.3zm5.1 35.2c1.3 5.5 2.9 10.9 4.8 16.2-.9.5-1.8 1.2-2.4 1.8-1.5 1.5-4.6 5.4-.7 6.6.4.1.7 0 .9-.2.8-1.1 1.2-2.1 1.8-3.2.6-.5 1.1-1.1 1.7-1.6 2.4 6.5 5.1 12.9 8.2 19.1-24.5-6.6-15.7-25.9-14.3-38.7zm14.6-167.7c-3.3.9-6.6 1.7-9.7 2.7 2.6-3.8 5.3-7.6 8.2-11.2.5 2.9 1.1 5.7 1.5 8.5zm16.4-43.7c4.1-3.1 9-6.1 14.8-8.3-2.7 2.4-4.7 5.1-5.9 7.8-2.6 2.3-5.2 4.7-7.8 7.1-5.1 4.9-10 10-14.6 15.2.8-7.6 4.3-14.8 13.5-21.8zm7.4 7.8c.4 4.3 2.4 8.5 6.2 12.2.7.7 2.3.2 2.1-.5-1.8-5.3-3.8-11.1-2.8-16.6 6.3-5.4 12.8-10.5 19.7-15.2 8.3-.8 18-.7 23.6 3.1.6.4 1.8 0 1.6-.5-2.6-4.5-11.5-5.8-20.2-5.7 5.3-1.2 11-1.6 16.7-.8 9.3 1.3 16.2 5.5 18.1 10.4-5.6 2.9-11 6-16.3 9.3-.9-1.7-.9-3.5 1.6-4.9.9-.5-.3-1.3-1.3-1-4.8 1.7-5.4 5.1-3.4 7.9-12.9 8.5-24.7 18.3-35.3 29.3-3.5 1.1-7.1 2.2-10.8 3.2-5.9 1.6-12.1 3.1-18.2 4.5-.8-4.4-1.7-8.6-2.1-12.8 6.4-7.8 13.3-15.1 20.8-21.9zm53.6-30.3c5.7 6 14.7 9.6 26.2 9.7-3.7 1.5-7.3 3.2-10.9 4.9-.7-1.5-1.9-3-3.5-4.3-7.2-5.7-19-7.7-30.4-6.7 5.3-3.3 10.7-6.4 16.3-9.2-.3 1.7.6 3.7 2.3 5.6zm-6 30.1c2 1.5 4.8 2.5 8.1 2.6 7.1.2 12.3-5.7 13.5-8.8.8-2 1.1-4.2.7-6.4 4.1-2 8.3-3.9 12.6-5.6-.1 1.6-.3 3.3-.9 4.9-2.3 6.7-7.1 13.3-15.2 18.5-8.5 5.4-19.4 8.8-30.1 12.7-6.5 2.3-13 4.7-19.7 7 9.4-9.2 19.8-17.5 31-24.9zm2.9-1.8c4.9-3.1 9.9-5.9 15-8.6 0 1.1-.3 2.3-.9 3.4-1.3 2.6-8.4 10.6-13.9 5.3-.1 0-.2 0-.2-.1zm-68.7 39.9c8-2 16.1-4 23.9-6.2-3.2 3.6-6.3 7.2-9.2 11-2.5 1-4.9 2.1-7 3.2-3.2 1.7-6 3.7-8.4 5.8 1.4-4.5 1.3-9.2.7-13.8zm130.8-74.5c0-5.5 3.1-11.6 10.1-15.5 3 3.7 1.6 8-.7 11.9-1.9 3.2-4.7 5.9-8.4 8.2-.7-1.5-1-3.1-1-4.6zm12.8 0c3-4.2 6.9-10.6 3.7-15.1-.6-.9-1.4-1.7-2.2-2.4 2.4-.9 5.1-1.5 8.2-1.9 1-.1 2-.2 3-.2-.7.6-1.3 1.1-1.9 1.7-5.4 5.2-7.5 13.8-1.1 19.3-4.3.5-8.6 1.2-12.9 2 1.3-1.1 2.4-2.2 3.2-3.4zm72.4 0c.9 1.2 2 2.3 3.2 3.4-4.3-.8-8.5-1.5-12.9-2 6.3-5.5 4.3-14.1-1.1-19.3-.6-.6-1.3-1.1-1.9-1.7 1 0 2 .1 3 .2 3.1.4 5.8 1 8.2 1.9-.9.7-1.6 1.5-2.2 2.4-3.1 4.5.7 10.9 3.7 15.1zm11.9 4.6c-3.7-2.3-6.5-5-8.4-8.2-2.3-3.9-3.8-8.2-.7-11.9 7 3.9 10.1 10 10.1 15.5 0 1.5-.4 3.1-1 4.6zm-22.9-11.8c0 2.9-1.8 5.7-5.2 7.9-3.1-.3-6.2-.5-9.3-.7 1.8-2 2.5-4.4 1.7-7-1-3.6-4-7-8.2-9.8 3.7-1.4 8-2.3 12.5-2.7 4.8 3.7 8.5 7.6 8.5 12.3zm-30.7 10.9c-2.6.3-5.3.3-8.2-.4 2.2-.1 4.5-.2 6.7-.3.5.2 1 .5 1.5.7zm12.5-.7c2.2.1 4.5.2 6.7.3-2.8.7-5.6.8-8.2.4.5-.2 1-.5 1.5-.7zm-.1-8.1c-.2 1.7-1.4 3.4-3.1 4.9h-7.6c-1.7-1.5-2.8-3.2-3.1-4.9-.6-3.9 2.3-7.3 6.9-9.8 4.6 2.5 7.5 5.9 6.9 9.8zm-19.3-1.9c-.7 2.6 0 5 1.7 7-3.1.2-6.2.4-9.3.7-3.4-2.1-5.2-4.9-5.2-7.9 0-4.8 3.7-8.7 8.5-12.3 4.4.4 8.7 1.3 12.5 2.7-4.2 2.8-7.2 6.2-8.2 9.8zm122.8 7.7c5.6 2.9 11 5.9 16.3 9.2-11.4-1-23.2.9-30.4 6.7-1.6 1.3-2.8 2.8-3.5 4.3-3.6-1.7-7.2-3.4-10.9-4.9 11.5-.1 20.5-3.7 26.2-9.7 1.7-1.9 2.6-3.9 2.3-5.6zm43.9 19.7c5.8 2.3 10.7 5.3 14.8 8.3 9.2 7 12.7 14.3 13.5 21.8-4.6-5.2-9.5-10.3-14.6-15.2-2.5-2.4-5.1-4.8-7.8-7.1-1.2-2.7-3.2-5.4-5.9-7.8zm32.7 43.6c2.8 3.7 5.6 7.4 8.2 11.2-3.2-1-6.4-1.9-9.7-2.7.4-2.8 1-5.6 1.5-8.5zm-95.2-40.2c-.3 2.1-.1 4.3.7 6.4 1.1 3.1 6.4 9 13.5 8.8 3.3-.1 6.1-1.1 8.1-2.6 11.2 7.3 21.6 15.7 31.1 25-6.6-2.3-13.2-4.7-19.7-7-10.7-3.9-21.6-7.3-30.1-12.7-8.2-5.2-13-11.8-15.2-18.5-.6-1.7-.8-3.3-.9-4.9 4.2 1.6 8.4 3.5 12.5 5.5zm4.4 2.2c5.1 2.7 10.1 5.5 15 8.6l-.2.2c-5.5 5.3-12.6-2.7-13.9-5.3-.6-1.2-.8-2.3-.9-3.5zm84.4 62.3c-2.4-2.1-5.1-4.1-8.4-5.8-2.1-1.1-4.5-2.2-7-3.2-2.9-3.8-6-7.5-9.2-11 7.8 2.3 15.9 4.2 23.9 6.2-.7 4.6-.8 9.3.7 13.8zm-24.4-56.6c1 5.5-1 11.3-2.8 16.6-.2.7 1.4 1.1 2.1.5 3.8-3.7 5.8-7.9 6.2-12.2 7.4 6.9 14.4 14.2 20.8 21.9-.4 4.2-1.2 8.4-2.1 12.8-6.1-1.5-12.2-2.9-18.2-4.5-3.6-1-7.2-2.1-10.8-3.2-10.5-11-22.4-20.8-35.3-29.3 2-2.9 1.4-6.2-3.4-7.9-1.1-.4-2.2.5-1.3 1 2.4 1.4 2.5 3.2 1.6 4.9-5.3-3.3-10.7-6.4-16.3-9.3 2-4.9 8.8-9.1 18.1-10.4 5.7-.8 11.4-.4 16.7.8-8.7-.1-17.6 1.3-20.2 5.7-.3.5 1 .9 1.6.5 5.5-3.8 15.3-3.9 23.6-3.1 6.9 4.7 13.5 9.8 19.7 15.2zm49 154.3c-.1-2.4-.3-4.8-.5-7.2 1.2 1.4 2.6 2.8 4.4 3.9-1.5 1.1-2.8 2.2-3.9 3.3zm-5.2-35.1c-1.3-5.5-2.9-10.9-4.8-16.2.9-.5 1.8-1.2 2.4-1.8 1.5-1.5 4.6-5.4.7-6.6-.4-.1-.7 0-.9.2-.8 1.1-1.2 2.1-1.8 3.2-.6.5-1.1 1.1-1.7 1.6-2.4-6.5-5.1-12.9-8.2-19.1 24.6 6.5 15.8 25.9 14.3 38.7zm5.2 54.1c1.2 1.2 2.5 2.3 3.9 3.3-1.8 1.1-3.2 2.4-4.4 3.9.2-2.4.4-4.8.5-7.2zm4-1.1c-1.7-1.8-2.9-3.6-3.8-5.4v-6c1-1.8 2.2-3.6 3.8-5.4.7-.8 1.9-1.7 3.3-2.7 1.9.8 4.1 1.4 6.6 1.8 5.2.8 9.9-.3 13.2-2.1a216.863 216.863 0 0 1 0 22.8c-3.3-1.8-8-2.9-13.2-2.1-2.5.4-4.7 1-6.6 1.8-1.4-1-2.6-1.9-3.3-2.7zm22-27.4c2 3-1.8 7-8.7 6.8-2.4-.1-4.4-.5-6.1-1.1 4.2-2.3 9.6-4.5 14.8-5.7zm-8.7 31.3c6.9-.2 10.7 3.8 8.7 6.8-5.2-1.2-10.6-3.4-14.8-5.7 1.7-.6 3.7-1 6.1-1.1zm-19.7-99.6c-3.1-1.9-5.7-3.9-8.1-5.9 5.2 1.5 11.1 1.3 16.1-.3 2.1 4.3 4.1 8.6 5.9 13-5.3-1.8-9.8-4.3-13.9-6.8zm-2.3-7.8c-5.2-.4-8.5-3.3-10.7-5.7-4.3-4.5-5-9.9-5-14.8 0-1.4.1-2.7.2-4.1 4.1 1.1 8.7 2.3 13.1 3.8 4.1 6.3 7.9 12.8 11.3 19.5-2.6 1-5.7 1.5-8.9 1.3zm2.8-22.3c-4.6-7.2-9.7-14.3-15.2-21 .5-4.5.4-9-1.1-13.5 11.6 13 21.8 27.2 30.3 42.3-3.4-3-8.7-5.7-14-7.8zm-99.3-80.6c-1.1 0-2.3.1-3.8.4-.9.1-.6.8.2.8 11.7.7 2.4 8-1.9 10.8-4.8 3.2-11.7 4-18.8 3.6 1.7-7.1 7.4-13.9 14.2-20.1 3.5 1.5 6.8 3 10.1 4.5zM372 114.8c-.5-.1-1-.1-1.5-.2-6.5-2.4-13.2-4.4-20-6.2 3.8-8.7.2-18.5-11.1-24.4 1.8-1.2 3.9-2.1 5.8-3.1 14.8 3 29.1 7.2 42.8 12.8-8 6.3-13.9 13.5-16 21.1zm-36.2-32.4c-3.6-1.4-7.8-2.5-12.7-3.1-2.3-.3-4.5-.4-6.7-.4-1-.7-2.1-1.5-3.2-2.2 9.4.6 18.6 1.7 27.6 3.3-1.7.8-3.4 1.6-5 2.4zm-57-3.4c-2.2 0-4.4.1-6.7.4-4.8.6-9 1.6-12.7 3.1-1.5-.8-3.3-1.6-5.1-2.3 9-1.6 18.2-2.7 27.6-3.3-1 .6-2 1.3-3.1 2.1zM250 80.9c1.9 1.1 4 2 5.8 3.1-11.3 5.9-14.9 15.7-11.1 24.4-6.8 1.7-13.5 3.8-20 6.2-.5.1-1 .1-1.5.2-2.1-7.6-8-14.8-16.1-21.1 13.8-5.5 28.1-9.8 42.9-12.8zm-32 34.4c-7.1.3-14-.5-18.8-3.6-4.3-2.8-13.6-10.1-1.9-10.8.8 0 1.1-.7.2-.8-1.4-.2-2.7-.3-3.8-.4 3.3-1.6 6.6-3.1 10-4.5 6.9 6.2 12.5 13 14.3 20.1zm-108.4 43.9c-5.5 6.8-10.6 13.8-15.2 21-5.3 2.1-10.6 4.8-14 7.8 8.5-15.2 18.6-29.4 30.3-42.3-1.6 4.5-1.6 9-1.1 13.5zm-10 22.5c4.3-1.5 8.9-2.8 13.1-3.8.1 1.4.2 2.7.2 4.1 0 5-.8 10.3-5 14.8-2.2 2.3-5.4 5.3-10.7 5.7-3.2.2-6.3-.3-8.8-1.3 3.3-6.7 7.1-13.2 11.2-19.5zm3.4 22.7c-2.3 2-4.9 3.9-8.1 5.9-4.1 2.5-8.6 5.1-13.9 6.9 1.8-4.4 3.8-8.7 5.9-13 5 1.5 10.9 1.7 16.1.2zM94.9 385c3.1 1.9 5.7 3.9 8.1 5.9-5.2-1.5-11.1-1.3-16.1.3-2.1-4.3-4.1-8.6-5.9-13 5.3 1.8 9.8 4.3 13.9 6.8zm2.2 7.8c5.2.4 8.5 3.3 10.7 5.7 4.3 4.5 5 9.9 5 14.8 0 1.4-.1 2.7-.2 4.1-4.1-1.1-8.7-2.3-13-3.8-4.1-6.3-7.9-12.8-11.3-19.5 2.6-1 5.6-1.6 8.8-1.3zm-2.7 22.3c4.6 7.2 9.7 14.3 15.2 21-.5 4.5-.4 9 1.1 13.5-11.6-13-21.8-27.1-30.3-42.3 3.4 3 8.7 5.6 14 7.8zm99.3 80.5c1.1 0 2.3-.1 3.7-.4.9-.1.6-.8-.2-.8-11.7-.7-2.4-8 1.9-10.8 4.8-3.2 11.7-4 18.8-3.6-1.7 7.1-7.4 13.9-14.2 20.1-3.4-1.4-6.7-2.9-10-4.5zm29.6-15.1c.5.1 1 .1 1.5.2 6.5 2.4 13.2 4.4 19.9 6.1-3.8 8.7-.2 18.5 11.1 24.4-1.8 1.2-3.9 2.1-5.8 3.1-14.8-3-29.2-7.2-42.8-12.8 8.1-6.2 14-13.4 16.1-21zm36.2 32.4c3.6 1.4 7.8 2.5 12.7 3.1 2.3.3 4.5.4 6.7.4 1 .7 2.1 1.5 3.2 2.2-9.4-.6-18.6-1.7-27.6-3.3 1.7-.9 3.4-1.6 5-2.4zm57 3.4c2.2 0 4.4-.1 6.7-.4 4.8-.6 9-1.6 12.7-3.1 1.5.8 3.2 1.5 5 2.3-9 1.6-18.2 2.7-27.6 3.3 1-.6 2.1-1.3 3.2-2.1zm28.8-2c-1.9-1.1-4-2-5.8-3.1 11.3-5.9 14.9-15.7 11.1-24.4 6.8-1.7 13.5-3.8 20-6.1.5-.1 1-.1 1.5-.2 2.1 7.6 8 14.8 16.1 21.1-13.8 5.5-28.1 9.8-42.9 12.7zm32-34.3c7.1-.3 14 .5 18.8 3.6 4.3 2.8 13.6 10.1 1.9 10.8-.8 0-1.1.7-.2.8 1.4.2 2.6.3 3.7.4-3.3 1.6-6.6 3.1-10 4.5-6.8-6.2-12.5-13-14.2-20.1zm108.4-43.9c5.5-6.8 10.6-13.8 15.2-21 5.3-2.1 10.6-4.8 14-7.8-8.5 15.2-18.6 29.3-30.3 42.3 1.5-4.5 1.6-9 1.1-13.5zm10-22.6c-4.3 1.5-8.9 2.8-13 3.8-.1-1.4-.2-2.7-.2-4.1 0-5 .8-10.3 5-14.8 2.2-2.3 5.4-5.3 10.7-5.7 3.2-.2 6.3.3 8.8 1.3-3.5 6.7-7.2 13.2-11.3 19.5zm-3.4-22.6c2.3-2 4.9-3.9 8.1-5.9 4.1-2.5 8.6-5.1 13.9-6.9-1.8 4.4-3.8 8.7-5.9 13-5-1.6-10.9-1.8-16.1-.2zm.1-4.8c-10.4 6.6-14.7 15.1-25 21.6 5.4-7.5 10.2-15.4 14.4-23.6 5.1-1.1 9.7-2.9 13.4-5.1 9.3-5.6 9.4-14 8.4-21-1.2-9-2.8-17.8-2-26.9.5-5.4 2.1-10.8 6.1-15.8.7-.9 1.5-1.7 2.5-2.4 1.7 1 3.4 1.8 5.4 2.6 2.9 1.1 6.4 2.4 10.2 3.3-.1.1-.3.1-.4.2-2.6.9-.4 3 2.4 2.3.4-.1.7-.2 1-.3-1.2 11.2-3.3 22.1-6.2 32.7-5.3.2-9.3 2.3-12.2 4.7-3.1 2.7-5.9 6.9-3.9 10 .3.4 1.4.6 1.8.1.6-.7 1.2-1.6 1.7-2.4 1.3-1.1 2.1-2.3 3.8-3.3 1.9-1.2 4.5-1.9 6.9-2.8-1.5 5-3.3 9.9-5.1 14.8-9.2 2.3-16.8 7.2-23.2 11.3zM541.2 276c-2.3-.5-4.7-.7-7.2-.6-1.9-18.4-6.1-36.4-12.5-53.6 1.7.2 3.5.3 5.4.4h3.4c6.2 17.2 10.3 35.4 12.1 54.1-.3-.1-.7-.2-1.2-.3zM527 219.6c-2.3-.1-4.5-.4-6.5-.8-2.2-5.7-4.7-11.3-7.4-16.8 1.3-.8 2.4-1.7 3.4-2.7 1.3-1.5 2-3 2.1-4.4 4.1 8 7.8 16.3 11 24.8-.9 0-1.8-.1-2.6-.1zM401.1 85.2c-2.8 1.5-5.5 3.1-8.1 4.8-27.4-11.5-57.1-17.9-87.8-18.8-1.5-1.1-2.9-2.2-4.1-3.3l-.3-.3c1.2-1.3 2.3-2.7 3.3-4.1 34.6.9 67.4 8.6 97 21.7zM297.6 63.4h.5c-.2.2-.3.5-.5.7-.2-.2-.3-.5-.5-.7.2.1.4 0 .5 0zm-3.2 4.2l-.3.3c-1.3 1.1-2.7 2.2-4.1 3.3-30.7.9-60.4 7.4-87.8 18.8-2.5-1.7-5.2-3.3-8.1-4.8 29.6-13.1 62.4-20.8 97-21.7 1 1.4 2.1 2.8 3.3 4.1zM76.7 194.9c.1 1.4.7 2.9 2.1 4.4.9 1 2.1 1.9 3.4 2.7-2.7 5.5-5.1 11.1-7.4 16.8-2.1.4-4.2.7-6.5.8-.8 0-1.7.1-2.5.1 3.1-8.5 6.8-16.8 10.9-24.8zm-11.9 27.3h3.4c1.9 0 3.6-.1 5.4-.4-6.4 17.2-10.6 35.1-12.5 53.6-2.4-.1-4.9.1-7.2.6-.4.1-.9.2-1.3.3 1.9-18.8 6.1-36.9 12.2-54.1zM54 319.3c2.3.5 4.7.7 7.2.6 1.9 18.4 6.1 36.4 12.5 53.6-1.7-.2-3.5-.3-5.4-.4h-3.4c-6.2-17.2-10.3-35.4-12.1-54.1l1.2.3zm14.3 56.4c2.3.1 4.5.4 6.5.8 2.2 5.7 4.7 11.3 7.4 16.8-1.3.8-2.5 1.7-3.4 2.7-1.3 1.5-2 3-2.1 4.4-4.1-8-7.8-16.3-11-24.8.9 0 1.7.1 2.6.1zM194.1 510c2.8-1.5 5.5-3.2 8.1-4.8 27.4 11.5 57.1 17.9 87.8 18.8 1.5 1.1 2.9 2.2 4.2 3.3l.3.3c-1.2 1.3-2.3 2.7-3.3 4.1-34.6-.8-67.4-8.5-97.1-21.7zm103.5 21.8h-.5c.2-.2.3-.5.5-.7.2.2.3.5.5.7h-.5zm3.2-4.2l.3-.3c1.3-1.1 2.7-2.3 4.2-3.3 30.7-.9 60.3-7.4 87.8-18.8 2.5 1.7 5.2 3.3 8.1 4.8-29.6 13.1-62.4 20.8-97 21.7-1-1.4-2.2-2.8-3.4-4.1zm217.8-127.2c-.1-1.4-.7-2.9-2.1-4.4-.9-1-2.1-1.9-3.4-2.7 2.7-5.5 5.1-11.1 7.4-16.8 2.1-.4 4.2-.7 6.5-.8.8 0 1.6-.1 2.5-.1-3.1 8.5-6.8 16.8-10.9 24.8z"/></svg>