<svg id="Layer_1" xmlns="http://www.w3.org/2000/svg" viewBox="0 0 595.3 595.3"><style>.st0{fill:#3c2415}</style><path class="st0" d="M521.6 453.7c-5.2-1.4-10.8-2.1-16.2-1.9l-1.5-2.7c-1.9-3.3-3.8-7.4-5-11.7 7-9.1 13.2-18.6 18.7-28.4 5.6-.3 11.3 1 14.9 4.3 3.5 3.3 9 12.3 4.3 16.1-.7.6.3 1.7 1.2 1.1 7.4-4.2 1.8-14.5-2.7-18.9-3.5-3.5-9.8-5.4-16.1-5.7 17.9-33.1 27.4-70 27.4-108.4 0-38.2-9.4-74.9-27.1-107.9 6.2-.3 12.4-2.3 15.8-5.7 4.4-4.4 10.1-14.7 2.7-18.9-.9-.5-1.9.6-1.2 1.1 4.7 3.9-.8 12.8-4.3 16.1-3.5 3.3-9.1 4.6-14.7 4.4-5.5-10-11.9-19.6-18.9-28.7 1.2-4.2 3-8.1 4.9-11.4l1.5-2.7c5.4.2 11.1-.5 16.2-1.9 14.8-4.1 23.6-15.2 28-26.2 5.2-13.1 4.1-27.6-3.6-39.8-8.2-12.9-24.9-26.1-43.1-30.5-9.1-2.2-19-2.3-28.2-.5-10-2.4-20.8-3-31.2-1.4-26 4-34.8 26.8-27.2 44 .5 1.1 2.5.6 2.2-.5-3-12.3-1.2-24.8 11.3-33.8 9.6-7 23.5-7.9 36.3-5.9-4.3 1.5-8.3 3.4-11.9 5.7-12.1 7.8-18.4 19.6-6.8 29.7.9.8 2.4-.2 1.8-1.1-10.5-16.4 7.2-28.2 27-32.1 2.1.6 4.1 1.2 6 2 17 6.4 28.8 18.6 33.1 32.5 5.1 16.3-1.8 34.2-8.9 49.6-1.1 2.3-2.2 4.5-3.4 6.7-9.4-1.4-17-6.6-18.3-15.2-.8-5.6 3.2-13.2 12-12.1 5.8.7 11.5 5.6 7.5 9.9-.4.5.4.9.9.7 11.7-3.9-1.5-13-8.8-14-16-2.2-17.9 14.9-13.8 22.6 3.5 6.7 10.6 10.2 18.7 11.3-1.9 3.6-3.8 7.1-5.2 10.7-6.8-8.5-14.2-16.7-22.3-24.4-1-.9-2-1.9-3-2.8 1.4-2.2 2.7-4.3 3.8-6.6.2-.4-.5-.6-.9-.4-2 1.4-3.8 3-5.4 4.7-20.6-18.5-44-33.3-69.2-44 .1-4 1.2-8.1 2.8-12.1 4.2-10.1 15.9-15.3 26-21.6.5-.3 0-.8-.6-.7-14 3-25.4 12.7-29.6 23-1.1 2.6-2.1 6.2-2.4 9.8-3.8-1.5-7.6-3-11.5-4.3 7.6-4.9 13.9-10.8 17.8-17.3.3-.5-.5-1.1-1.1-.6-6.4 5.9-13.8 11.4-22.1 16.1-14.3-4.7-29.1-8.1-44.3-10.2-2.2-2.9-5.3-5.4-8.6-7.2-7.7-4.1-18.9-4.4-27.8-1.6-8.9-2.8-20.1-2.5-27.8 1.6-3.3 1.8-6.5 4.3-8.6 7.2-15.1 2.1-30 5.5-44.3 10.2-8.3-4.8-15.7-10.3-22.1-16.1-.5-.5-1.4.1-1.1.6 3.9 6.6 10.2 12.4 17.8 17.3-3.9 1.4-7.7 2.8-11.5 4.3-.3-3.7-1.3-7.2-2.4-9.8-4.2-10.4-15.6-20-29.6-23-.5-.1-1 .4-.6.7 10.2 6.2 21.8 11.5 26 21.6 1.7 4 2.8 8.1 2.8 12.1-25.2 10.7-48.6 25.5-69.2 44-1.7-1.7-3.5-3.3-5.4-4.7-.4-.3-1.1 0-.9.4 1.1 2.2 2.4 4.4 3.8 6.6-1 .9-2 1.9-3 2.8-8.1 7.7-15.5 15.8-22.3 24.4-1.4-3.6-3.3-7.1-5.2-10.7 8.1-1.1 15.2-4.6 18.7-11.3 4.1-7.7 2.2-24.7-13.8-22.6-7.4 1-20.5 10.1-8.8 14 .5.2 1.3-.2.9-.7-4-4.3 1.7-9.1 7.5-9.9 8.8-1.1 12.8 6.5 12 12.1-1.2 8.6-8.9 13.8-18.3 15.2-1.2-2.2-2.3-4.4-3.4-6.7-7.1-15.4-14-33.3-8.9-49.6 4.3-13.8 16.1-26.1 33.1-32.5 1.9-.7 3.9-1.4 6-2 19.7 3.9 37.5 15.7 27 32.1-.5.8.9 1.8 1.8 1.1 11.6-10 5.4-21.9-6.8-29.7-3.6-2.3-7.6-4.2-11.9-5.7 12.8-2 26.8-1 36.3 5.9 12.4 9 14.3 21.5 11.3 33.8-.3 1.1 1.7 1.5 2.2.5 7.5-17.2-1.3-39.9-27.2-44-10.4-1.6-21.2-1-31.2 1.4-9.2-1.8-19-1.8-28.2.5C74.3 50 57.6 63.1 49.4 76c-7.8 12.3-8.9 26.8-3.6 39.8 4.4 10.9 13.2 22 28 26.2 5.2 1.4 10.8 2.1 16.2 1.9l1.5 2.7c1.9 3.2 3.7 7.2 4.9 11.4-7 9.2-13.4 18.8-18.9 28.7-5.5.3-11.1-1-14.7-4.4-3.5-3.3-9-12.3-4.3-16.1.7-.6-.3-1.7-1.2-1.1-7.4 4.2-1.8 14.5 2.7 18.9 3.5 3.4 9.6 5.4 15.8 5.7-17.7 33-27.1 69.8-27.1 107.9 0 38.3 9.5 75.2 27.4 108.4-6.3.3-12.5 2.3-16.1 5.7-4.4 4.4-10.1 14.7-2.7 18.9.9.5 1.9-.6 1.2-1.1-4.7-3.9.8-12.8 4.3-16.1 3.6-3.4 9.3-4.7 14.9-4.3 5.5 9.8 11.8 19.3 18.7 28.4-1.2 4.3-3.1 8.4-5 11.7l-1.5 2.7c-5.4-.2-11.1.5-16.2 1.9-14.8 4.1-23.6 15.3-28 26.2-5.2 13.1-4.1 27.6 3.6 39.8 8.2 12.9 24.9 26.1 43.1 30.5 9.1 2.2 19 2.3 28.2.5 10 2.4 20.8 3 31.2 1.4 26-4 34.8-26.8 27.2-44-.5-1.1-2.5-.6-2.2.5 3 12.3 1.2 24.8-11.3 33.8-9.6 7-23.5 7.9-36.3 5.9 4.3-1.5 8.3-3.4 11.9-5.7 12.1-7.8 18.4-19.6 6.8-29.7-.9-.8-2.4.2-1.8 1.1 10.5 16.4-7.2 28.2-27 32.1-2.1-.6-4.1-1.2-6-2-17-6.4-28.8-18.6-33.1-32.5-5-16.4 1.9-34.3 9-49.7 1.1-2.3 2.2-4.5 3.4-6.7 9.4 1.4 17 6.6 18.3 15.2.8 5.6-3.2 13.2-12 12.1-5.8-.7-11.5-5.6-7.5-9.9.4-.5-.4-.9-.9-.7-11.7 3.9 1.5 13 8.8 14 16 2.2 17.9-14.9 13.8-22.6-3.5-6.7-10.6-10.2-18.7-11.3 2-3.7 3.9-7.2 5.3-11 6.8 8.5 14.2 16.6 22.2 24.2 1.1 1 2.1 2 3.2 3-1.4 2.2-2.8 4.5-4 6.9-.2.4.5.6.9.4 2.1-1.5 3.9-3.1 5.7-4.9 20.6 18.4 43.8 33.1 69 43.8 0 4.2-1.1 8.4-2.8 12.5-4.2 10.1-15.9 15.3-26 21.6-.5.3 0 .8.6.7 14-3 25.4-12.7 29.6-23 1.1-2.7 2.1-6.5 2.4-10.3 3.9 1.6 7.9 3.1 11.9 4.5-7.8 5-14.3 10.9-18.2 17.6-.3.5.5 1.1 1.1.6 6.5-6 14.1-11.6 22.6-16.4 14.1 4.6 28.6 7.9 43.5 10 2.2 3.1 5.4 5.8 9 7.7 7.7 4.1 18.9 4.4 27.8 1.6 8.9 2.8 20.1 2.5 27.8-1.6 3.5-1.9 6.8-4.6 9-7.7 14.9-2.1 29.4-5.4 43.5-10 8.5 4.8 16.1 10.5 22.6 16.4.5.5 1.4-.1 1.1-.6-4-6.7-10.4-12.6-18.2-17.6 4-1.4 8-2.9 11.9-4.5.3 3.8 1.3 7.6 2.4 10.3 4.2 10.4 15.6 20 29.6 23 .5.1 1-.4.6-.7-10.2-6.2-21.8-11.5-26-21.6-1.7-4.1-2.8-8.4-2.8-12.5 25.1-10.7 48.4-25.4 69-43.8 1.7 1.8 3.6 3.5 5.7 4.9.4.3 1.1 0 .9-.4-1.2-2.3-2.5-4.6-4-6.9 1.1-1 2.1-2 3.2-3 8-7.7 15.4-15.8 22.2-24.2 1.4 3.7 3.3 7.3 5.3 11-8.1 1.1-15.2 4.6-18.7 11.3-4.1 7.7-2.2 24.7 13.8 22.6 7.4-1 20.5-10.1 8.8-14-.5-.2-1.3.2-.9.7 4 4.3-1.7 9.1-7.5 9.9-8.8 1.1-12.8-6.5-12-12.1 1.2-8.6 8.9-13.8 18.3-15.2 1.2 2.2 2.3 4.4 3.4 6.7 7.1 15.4 14 33.3 8.9 49.6-4.3 13.8-16.1 26.1-33.1 32.5-1.9.7-3.9 1.4-6 2-19.7-3.9-37.5-15.7-27-32.1.5-.8-.9-1.8-1.8-1.1-11.6 10-5.4 21.9 6.8 29.7 3.6 2.3 7.6 4.2 11.9 5.7-12.8 2-26.8 1-36.3-5.9-12.4-9-14.3-21.5-11.3-33.8.3-1.1-1.7-1.5-2.2-.5-7.5 17.2 1.3 39.9 27.2 44 10.4 1.6 21.2 1 31.2-1.4 9.2 1.8 19 1.8 28.2-.5 18.2-4.5 34.9-17.6 43.1-30.5 7.8-12.3 8.9-26.8 3.6-39.8-5-11-13.8-22.1-28.6-26.2zm-7.8-383.5c-6.1-9.4-16.4-17-28.5-21.8 3.9-.3 7.8-.2 11.4.3 12.8 1.6 22.1 8 30.7 14.8 11.4 9.1 19 19.6 20.1 32.2 1.5 16.5-6.9 37.2-29.1 43.5-3.8 1.1-7.6 1.6-11.3 1.5 12.1-22.2 21.4-47.9 6.7-70.5zm-437 69.1c-22.1-6.3-30.5-27-29.1-43.5 1.1-12.7 8.7-23.1 20.1-32.2 8.6-6.9 18-13.2 30.7-14.8 3.6-.5 7.4-.5 11.4-.3-12.1 4.8-22.4 12.4-28.5 21.8-14.7 22.6-5.4 48.3 6.7 70.5-3.6 0-7.5-.5-11.3-1.5zm4.7 386.2c6.1 9.4 16.4 17 28.5 21.8-3.9.3-7.8.2-11.4-.3-12.8-1.6-22.1-8-30.7-14.8-11.4-9.1-19-19.6-20.1-32.2-1.5-16.5 6.9-37.2 29.1-43.5 3.8-1.1 7.6-1.6 11.3-1.5-12.1 22.2-21.4 47.9-6.7 70.5zm416.4-92.1c-1.2-7.5.1-15.3 7.1-20.3 2.3-1.7 5.4-2.9 8.6-3.5-4.7 8.2-10 16.1-15.7 23.8zM331 522c.6 2.5.4 5.3-.8 7.7-6.3.8-12.7 1.4-19.2 1.7.9-2.1 1.2-4.5.6-7.1 0-.2-.1-.4-.2-.6 6.6-.3 13.1-.9 19.6-1.7zm-33.4 9.8c-2.4 0-4.7 0-7.1-.1-1.5-2.4-1.7-5.1-.8-7.7 2.6.1 5.3.1 7.9.1 2.6 0 5.3-.1 7.9-.1.8 2.7.7 5.3-.8 7.7-2.3.1-4.7.1-7.1.1zm-32.6-2c-1.2-2.5-1.4-5.3-.8-7.7v-.1c6.5.9 13 1.5 19.6 1.8 0 .2-.1.4-.2.6-.6 2.6-.3 5 .6 7.1-6.4-.4-12.8-.9-19.2-1.7zm20.8-11.1c-5.2-.3-10.4-.7-15.5-1.3 1.8-.5 3.9-.7 5.7-1 1.4-.2 1.2-1.7 0-2-5.2-1.2-9.8-.4-13.1 2.1-7.6-1.1-15-2.5-22.4-4.3 13.5-4.3 28.2-6.1 43.2-3.9 3.2.4 6.3 1.5 9.1 2.8-3 2.1-5.4 4.6-7 7.6zm11.8-4.6c2 1.5 3.8 3.1 5.2 4.9-1.7 0-3.4.1-5.2.1-1.7 0-3.4 0-5.2-.1 1.5-1.8 3.2-3.5 5.2-4.9zm34.9 2.4c-3.3-2.4-7.9-3.2-13.1-2.1-1.2.3-1.4 1.8 0 2 1.8.3 3.8.5 5.7 1-5.1.6-10.3 1-15.5 1.3-1.7-3.1-4-5.6-6.9-7.6 2.8-1.4 5.9-2.4 9.1-2.8 14.9-2.1 29.6-.3 43.2 3.9-7.5 1.8-15 3.2-22.5 4.3zm5-12c-13.3-1.7-28.8-1.3-39.9 3.8-11.1-5.1-26.6-5.5-39.9-3.8-8.1 1-16.5 3-24.6 5.9-36.7-10.1-69.6-28.5-96.5-53 2.1-3.9 3.8-7.9 5.4-11.6 2.1-5 3.7-10.1 4.8-15.2 37.5 38.7 91.2 62.9 150.7 62.9 59.5 0 113.1-24.2 150.7-62.9 1.2 5.1 2.8 10.2 4.8 15.2 1.5 3.7 3.3 7.7 5.4 11.6-26.8 24.5-59.8 43-96.5 53-7.9-2.9-16.3-4.9-24.4-5.9zM65.1 297.6c0-18.8 2.5-37 7.1-54.5 6.3 4.9 17.1 4.8 27.4 2.5-4.8 16.5-7.3 34-7.3 51.9 0 18.1 2.6 35.7 7.5 52.4-10.3-2.2-21.1-2.4-27.4 2.4-4.8-17.4-7.3-35.7-7.3-54.7zM232.5 85.1c8.3 3 17 5.1 25.2 6.1 13.3 1.7 28.8 1.3 39.9-3.8 11.1 5.1 26.6 5.5 39.9 3.8 8.3-1 17-3.1 25.2-6.1 36.5 10.1 69.3 28.6 95.9 53-2.1 4-3.9 8.1-5.5 11.9-2 4.9-3.6 9.8-4.8 14.9-37.5-38.7-91.2-63-150.8-63-59.5 0-113.2 24.3-150.8 63-1.2-5-2.7-10-4.8-14.9-1.6-3.8-3.4-7.9-5.5-11.9 26.9-24.4 59.7-42.9 96.1-53zm32.8-19.6c6.3-.8 12.7-1.4 19.1-1.7-1.1 2.2-1.4 4.8-.8 7.6v.1c-6.6.4-13.1 1-19.5 1.8-.5-2.5-.2-5.4 1.2-7.8zm32.3-2.1c2.3 0 4.6 0 6.8.1 1.7 2.4 2 5 1.2 7.7-2.7-.1-5.4-.1-8-.1-2.7 0-5.4.1-8 .1-.7-2.7-.4-5.4 1.2-7.7 2.3 0 4.6-.1 6.8-.1zm32.4 2.1c1.4 2.5 1.7 5.3 1.1 7.9-6.5-.9-13-1.5-19.5-1.8v-.1c.6-2.8.3-5.3-.8-7.6 6.5.2 12.9.8 19.2 1.6zm-20.3 11c5.5.3 11 .7 16.4 1.4-2.1.7-4.6 1-6.8 1.3-1.4.2-1.2 1.7 0 2 5.4 1.2 10.3.3 13.5-2.4 7.7 1.1 15.3 2.6 22.7 4.4-13.8 4.5-28.7 6.3-44 4.2-3.2-.4-6.3-1.5-9.1-2.8 3.2-2.1 5.6-4.8 7.3-8.1zm-12.1 5.1c-2.2-1.6-4.1-3.4-5.5-5.3 1.8 0 3.6-.1 5.5-.1 1.8 0 3.7 0 5.5.1-1.4 1.9-3.3 3.7-5.5 5.3zm-35.3-2.8c3.3 2.7 8.1 3.7 13.5 2.4 1.2-.3 1.4-1.8 0-2-2.2-.3-4.6-.6-6.8-1.3 5.4-.6 10.9-1.1 16.4-1.4 1.7 3.3 4.1 5.9 7.1 8-2.8 1.4-5.9 2.4-9.1 2.8-15.2 2.2-30.2.3-44-4.2 7.7-1.7 15.3-3.2 22.9-4.3zm267.9 218.8c0 18.9-2.5 37.3-7.2 54.8-6.3-4.8-17.1-4.7-27.4-2.4 4.9-16.7 7.5-34.3 7.5-52.4 0-18-2.6-35.4-7.3-51.9 10.3 2.2 21.1 2.3 27.4-2.5 4.5 17.4 7 35.6 7 54.4zm-56.4 94.8c-8.2-1.6-14.4 7.1-17.2 11.9-3.1 5.3-4.6 11.4-4.2 17.2-.6.7-1.3 1.4-1.9 2.1-.4-2.2-.7-4.4-.9-6.6-1.5-17.3 1.7-36 17.1-49.7 6.8-6.1 14.8-10.4 24.3-13.3-1 3-2 6-3.1 8.9-2.7 0-5.4.3-8.2 1-7.8 2-12.4 7.6-15.5 13-.4.7.7 1.6 1.6.9 5.7-4.9 11.6-11.3 20.9-11.7-3.6 9.2-7.9 17.9-12.9 26.3zm-1.2 2c-4.9 8.1-10.5 15.7-16.5 23 .6-3.3 1.6-6.5 3-9.4 2.1-4.5 6.3-12.6 13.5-13.6zm-333.9 9.9c-2.8-4.8-9-13.6-17.2-11.9-5-8.3-9.3-17.1-12.9-26.1 9.3.4 15.3 6.9 20.9 11.7.8.7 2-.2 1.6-.9-3.1-5.4-7.7-11-15.5-13-2.8-.7-5.5-1-8.2-1-1.1-2.9-2.2-5.9-3.1-8.9 9.5 2.9 17.5 7.2 24.3 13.3 15.4 13.7 18.6 32.4 17.1 49.7-.2 2.2-.5 4.4-.9 6.6-.6-.7-1.3-1.4-1.9-2.1.4-6-1.1-12.1-4.2-17.4zm.5 13.1c-6.1-7.3-11.6-14.9-16.5-23 7.2 1.1 11.4 9.1 13.5 13.6 1.4 2.9 2.4 6.1 3 9.4zm-65.6-60.6c.5-.7 1.1-1.3 1.8-2 6.2-5.4 16.1-3.9 23.9-2 .5.1.9.3 1.4.4 1 3.3 2.2 6.7 3.4 9.9-7.1.4-14 2.2-21.4 2.9-2.6.2-4.8 0-6.4-.5-1-2.8-1.9-5.7-2.7-8.7zm46.6.9c-4.2-2.5-10.4-5.1-17.1-6.8-5.1-16.9-7.9-34.8-7.9-53.2 0-18.3 2.7-36 7.7-52.7 6.8-1.8 13-4.4 17.3-6.9 20.6-12.2 30-32.8 29.3-52.2-.2-5.8-.8-11.6-1.9-17.3 37.1-39 90.6-63.5 150-63.5 59.4 0 113 24.5 150 63.5-1.1 5.7-1.7 11.5-1.9 17.3-.7 19.5 8.6 40 29.3 52.2 4.2 2.5 10.5 5.1 17.3 6.9 5 16.8 7.7 34.5 7.7 52.7 0 18.5-2.7 36.3-7.9 53.2-6.7 1.8-12.9 4.3-17.1 6.8-20.6 12.2-30 32.8-29.3 52.2.2 5.7.8 11.3 1.8 17-37.1 38.9-90.6 63.4-149.9 63.4-59.4 0-112.9-24.5-149.9-63.4 1.1-5.6 1.6-11.3 1.8-17 .7-19.4-8.6-40-29.3-52.2zm-44-127.5c1.7-.5 3.9-.8 6.6-.5 7.3.7 14.2 2.5 21.2 2.9-1.2 3.3-2.3 6.6-3.4 10-.4.1-.8.2-1.3.3-7.8 1.9-17.7 3.4-23.9-2-.8-.7-1.4-1.4-1.9-2.1.8-2.9 1.7-5.8 2.7-8.6zm30.9 2.5c2.8 0 5.5-.3 8.4-1 7.8-2 12.4-7.6 15.5-13 .4-.7-.7-1.6-1.6-.9-5.7 4.9-11.7 11.4-21.1 11.7 3.6-9.1 7.9-17.8 12.9-26.2 8.3 1.8 14.6-7 17.4-11.9 3.2-5.4 4.7-11.6 4.1-17.7.6-.7 1.2-1.4 1.9-2.1.4 2.3.7 4.7.9 7 1.5 17.3-1.7 36-17.1 49.7-6.8 6.1-14.9 10.4-24.5 13.3 1.1-3 2.1-6 3.2-8.9zm15.3-31.3c5-8.3 10.7-16.1 16.9-23.6-.6 3.5-1.6 6.9-3.1 10-2.1 4.5-6.5 12.7-13.8 13.6zm334.2-10c2.9 4.9 9.1 13.7 17.4 11.9 4.9 8.4 9.3 17.1 12.9 26.2-9.4-.3-15.4-6.8-21.1-11.7-.8-.7-2 .2-1.6.9 3.1 5.4 7.7 11 15.5 13 2.8.7 5.6 1 8.4 1 1.1 2.9 2.1 5.9 3.1 8.9-9.6-2.9-17.6-7.2-24.5-13.3-15.4-13.7-18.6-32.4-17.1-49.7.2-2.3.5-4.7.9-7 .6.7 1.2 1.4 1.9 2.1-.5 6 1.1 12.3 4.2 17.7zm-.6-13.6c6.2 7.4 11.9 15.3 16.9 23.6-7.3-.9-11.7-9.1-13.8-13.6-1.5-3.1-2.5-6.5-3.1-10zm65.8 61c-.5.7-1.2 1.4-1.9 2.1-6.2 5.4-16.1 3.9-23.9 2-.4-.1-.8-.2-1.3-.3-1-3.4-2.2-6.7-3.4-10 7-.4 13.9-2.2 21.2-2.9 2.7-.2 4.9 0 6.6.5 1 2.8 1.9 5.7 2.7 8.6zm-27.2 114.4c.5-.1.9-.3 1.4-.4 7.8-1.9 17.7-3.4 23.9 2 .7.7 1.3 1.3 1.8 2-.9 2.9-1.8 5.9-2.8 8.7-1.7.5-3.8.7-6.4.5-7.3-.7-14.3-2.5-21.4-2.9 1.3-3.2 2.4-6.6 3.5-9.9zm17.9-126.8c-7.6.1-14.8 2.4-22.4 2.9-8.2-20.8-20-40-34.6-56.8-.1-3.1.3-6.2 1.2-9.1.1-.4-.6-.6-.8-.3-1.3 2.1-2.2 4.4-2.8 6.7-.6-.7-1.2-1.3-1.8-1.9 1.4-6.6 3.6-13.1 6.3-19.5 1.1-2.6 2.5-5.2 4-7.6 25.2 23.9 44.7 53.2 56.4 86-1.9-.3-3.8-.4-5.5-.4zm-374.8-78c2.7 6.4 4.8 12.9 6.3 19.5-.6.6-1.2 1.3-1.8 1.9-.6-2.3-1.5-4.6-2.8-6.7-.2-.4-1-.1-.8.3.9 2.9 1.3 6 1.2 9.1-14.7 16.8-26.5 36-34.6 56.8-7.6-.5-14.8-2.8-22.4-2.9-1.7 0-3.6.1-5.4.3 11.7-32.8 31.2-62.1 56.4-86 1.4 2.6 2.8 5.1 3.9 7.7zm-55 220.9c7.6-.1 15-2.4 22.6-2.9 3.7 9.4 8.2 18.5 13.3 27.2 0 .2.1.4.3.6 6 10.1 13 19.7 20.8 28.6.1 3.3-.3 6.5-1.2 9.6-.1.4.6.6.8.3 1.3-2.2 2.3-4.6 2.8-7.1.6.6 1.2 1.3 1.8 1.9-1.4 6.7-3.6 13.4-6.3 19.8-1.1 2.5-2.4 5-3.8 7.4-25.2-23.8-44.7-53-56.4-85.7 1.9.2 3.7.3 5.3.3zm374.9 78c-2.7-6.5-4.9-13.1-6.3-19.8.6-.6 1.2-1.3 1.8-1.9.6 2.4 1.5 4.8 2.8 7.1.2.4 1 .1.8-.3-.9-3-1.3-6.3-1.2-9.6 7.8-8.9 14.7-18.4 20.8-28.6.2-.1.4-.4.3-.6 5.1-8.7 9.6-17.8 13.3-27.2 7.6.5 14.9 2.9 22.6 2.9 1.6 0 3.5-.1 5.3-.3-11.7 32.6-31.2 61.9-56.4 85.7-1.4-2.5-2.7-4.9-3.8-7.4zm58-41.3c-3.1.2-6.1.9-8.5 2-.9.4-1.8.9-2.7 1.4 8-13.3 14.5-27.4 19.4-42 3-1.3 5-3.4 4.3-6.7-.3-1.2-.6-2.4-1.1-3.4 5.5-19.2 8.3-39.3 8.3-59.7 0-20.4-2.8-40.3-8.2-59.5.4-1 .8-2.1 1-3.2.7-3.3-1.2-5.4-4.1-6.6-4.9-14.5-11.3-28.5-19.2-41.8.7.4 1.5.8 2.3 1.2 2.5 1.2 5.6 1.8 8.8 2 17.7 32.3 27.7 69 27.7 107.9 0 39.1-10.2 76-28 108.4zm-1.7-219.8c-3.4-.6-6.6-1.9-8.9-3.6-7.1-5.2-8.3-13-7-20.7 5.8 7.8 11.1 15.9 15.9 24.3zm-19.1-28.4c-1 3.4-1.4 6.9-1.1 10.7 0 .4.1.9.1 1.3-8.3-11.5-17.7-22.3-28.2-32.3-.4-.4-.8-.7-1.2-1.1 1.5-2.2 3-4.4 4.4-6.6 9.4 8.6 18.1 18 26 28zm-33.5-24.3c-17.5-15.9-37.1-28.9-58.2-38.9.4-.1.6-.5.3-.8-2.4-3-3.8-6.2-4.3-9.4 24.7 10.7 47.3 25.2 66.8 42.7-1.6 2-3.2 4.2-4.6 6.4zm-66.2-50.8c.2 4.1 1.5 7.9 4.8 10.4-9.5-4.3-19.3-8-29.3-11.1 3.3-1.5 6.6-3.1 9.6-4.9 5 1.7 10 3.5 14.9 5.6zm-20.6-7.5c-3.4 1.8-6.8 3.4-10.4 4.9-9.1-2.5-18.4-4.5-27.8-6 1-2.6.8-5.3-.3-7.8 13.2 2 26.1 5 38.5 8.9zM326.9 62c-6-.7-12.1-1.1-18.2-1.4-1.3-1.5-3-2.8-4.9-3.9 8.2-1.3 17.5.7 23.1 5.3zm-25.8-1.6h-7c1-.7 2.2-1.3 3.5-1.8 1.4.5 2.5 1.1 3.5 1.8zm-9.7-3.6c-1.9 1.1-3.6 2.4-4.9 3.9-6.1.3-12.2.7-18.2 1.4 5.7-4.7 14.9-6.7 23.1-5.3zm-32.2 9.5c-1.1 2.5-1.3 5.2-.3 7.8-9.4 1.5-18.7 3.5-27.8 6-3.6-1.5-7.1-3.1-10.4-4.9 12.5-3.9 25.3-6.9 38.5-8.9zM224.7 82c-10 3.1-19.8 6.8-29.3 11.1 3.3-2.5 4.6-6.4 4.8-10.4 4.9-2 9.9-3.9 14.9-5.6 3 1.7 6.3 3.4 9.6 4.9zm-28.6 2.4c-.5 3.3-1.8 6.4-4.3 9.4-.2.3 0 .6.3.8-21.1 10-40.7 23-58.2 38.9-1.4-2.2-2.9-4.4-4.6-6.4 19.6-17.5 42.1-32 66.8-42.7zm-69.7 45.3c1.5 2.2 3 4.4 4.4 6.6-.4.4-.8.7-1.2 1.1-10.5 10-20 20.9-28.2 32.3.1-.4.1-.9.1-1.3.3-3.8-.2-7.3-1.1-10.7 8-9.9 16.6-19.3 26-28zM97.3 162c1.3 7.7.1 15.5-7 20.7-2.4 1.7-5.5 2.9-8.9 3.6 4.8-8.5 10.1-16.6 15.9-24.3zm-17.8 27.7c3.2-.2 6.3-.8 8.8-2 .8-.4 1.5-.8 2.3-1.2-7.9 13.3-14.3 27.3-19.2 41.8-2.9 1.3-4.8 3.4-4.1 6.6.2 1.2.6 2.2 1 3.2-5.4 19.1-8.2 39.1-8.2 59.5 0 20.5 2.8 40.5 8.3 59.7-.5 1-.9 2.2-1.1 3.4-.7 3.3 1.3 5.4 4.3 6.7 4.9 14.6 11.4 28.7 19.4 42-.8-.5-1.7-1-2.7-1.4-2.5-1.1-5.4-1.8-8.5-2-17.9-32.4-28-69.3-28-108.4-.1-38.9 10-75.6 27.7-107.9zm2.1 219.8c3.3.7 6.3 1.9 8.6 3.5 7 5.1 8.3 12.8 7.1 20.3-5.7-7.6-10.9-15.5-15.7-23.8zm19 28.1c.9-3.3 1.3-6.7 1-10.3-.1-.6-.1-1.3-.2-1.9 8.3 11.5 17.7 22.4 28.3 32.4.4.4.9.8 1.3 1.2-1.5 2.2-3 4.4-4.4 6.6-9.4-8.6-18.1-18-26-28zm99.5 75c-.3-4.8-2.3-9.3-7.3-11.4-.6-.3-1.4.3-1 .8 2.3 2.8 3.6 5.9 4.2 9-24.6-10.7-47-25.1-66.5-42.5 1.7-2 3.2-4.2 4.6-6.4 26.3 23.9 57.4 41.3 91.2 51.5-3.4 1.5-6.7 3.1-9.7 4.9-5.3-1.9-10.4-3.8-15.5-5.9zm21.2 7.6c3.4-1.8 6.9-3.4 10.5-4.9 8.9 2.4 18.1 4.4 27.3 5.8-1.1 2.6-1 5.2-.1 7.8-12.9-1.9-25.5-4.8-37.7-8.7zm46.5 13c6.1.7 12.2 1.2 18.4 1.4 1.4 1.7 3.2 3.1 5.2 4.3-8.4 1.5-18.1-.7-23.6-5.7zm25.7 1.6h8.2c-1.1.8-2.5 1.6-4.1 2.3-1.6-.6-3-1.4-4.1-2.3zm10.4 4.1c2.1-1.2 3.9-2.7 5.2-4.3 6.2-.3 12.3-.7 18.4-1.4-5.6 5-15.2 7.2-23.6 5.7zm32.3-10c.9-2.5 1.1-5.2-.1-7.8 9.3-1.4 18.4-3.4 27.3-5.8 3.6 1.5 7.1 3.1 10.5 4.9-12.1 3.9-24.7 6.8-37.7 8.7zm63-18c.6-3.1 1.9-6.1 4.2-9 .4-.5-.4-1-1-.8-5 2.2-6.9 6.6-7.3 11.4-5.1 2.1-10.2 4-15.4 5.8-3.1-1.8-6.4-3.4-9.8-4.9 33.8-10.2 64.9-27.7 91.2-51.5 1.4 2.2 2.9 4.4 4.6 6.4-19.4 17.5-41.9 31.9-66.5 42.6zm69.5-45.2c-1.5-2.2-3-4.4-4.4-6.6.4-.4.9-.8 1.3-1.2 10.6-10.1 20-20.9 28.3-32.4-.1.6-.2 1.2-.2 1.9-.3 3.7.1 7.1 1 10.3-7.9 9.9-16.6 19.3-26 28zm78.8 34.3c-1.1 12.7-8.7 23.1-20.1 32.2-8.6 6.9-18 13.2-30.7 14.8-3.6.5-7.4.5-11.4.3 12.1-4.8 22.4-12.4 28.5-21.8 14.7-22.6 5.4-48.3-6.7-70.5 3.7-.1 7.6.4 11.3 1.5 22.2 6.2 30.5 27 29.1 43.5z"/></svg>