<svg xmlns="http://www.w3.org/2000/svg" viewBox="0 0 595.3 595.3"><path d="M328.1 66.7s-3.7 7.4-2.6 16.7l-.4.2c-1.7.8-7.9 4.6-12 16.8-1.4 4.8-2.4 10-2.4 15.7 0 5.7 1.3 11.9 4.8 17.4 1.8 2.7 4.1 5.4 6.8 7.1 2.8 1.7 6.1 2.2 9.2 1.2-.1-.1 2.9.2 8.2-4 5.1-4.1 12-13.8 12.5-29.5.7-15.5-6.9-36.5-26.5-55.4-4.7-4.9-9.5-10.3-13.7-16.5-4.2-6.2-3.4-6.6.8-.5 4.3 6.1 9.1 11.3 14 16 20.3 18.5 29.1 39.8 29.1 56.3.2 16.7-6.5 27.8-12.3 33.3-6.1 5.6-10.8 6-10.7 6.1-5 .9-10.1-.7-13.5-3.4-3.4-2.7-5.4-5.9-7.2-9.1-3.1-5.9-4.2-12-4.4-17.6-2.4 15.3-.2 24.9.8 30.4 1.2 5.6 1.7 7.3 1.7 7.3s-1.6-1.1-4.4-6.5c-2.5-5.3-7-15.3-5.4-32.6.6-5.3 1.8-10.4 3.7-15.2 1-3 2.4-6.2 4.2-9.2 5.1-8.7 5.1-11.3 6.2-16.7 0 .1 8.4-1.6 13.5-8.3zm80.6 51.2c7.1 2.1 14.3 4.2 21.6 5.6 14.7 2.9 29.7 3.4 44.5 2.7-14.9.2-29.8-.9-44.1-4.3-7.2-1.7-14.2-3.9-21.2-6.3-6.9-2.3-14.3-4.9-22.3-4.3-1.2.1-2.4.3-3.7.5-2.6.6-5.3 1.5-7.4 3.2l-.1.1c.6-2.2 1.1-4.5 1.5-6.8.1-.7.2-1.5.3-2.3 1.6-13.3-1-24-2-23.8-.9.1 0 10.6-1.5 23.4l-.3 2.2c-1.1 9.3-3.7 18.5-8.8 26.6-5 8.1-12.8 14.6-22.1 18.4 9.4-3.3 17.8-9.5 23.5-17.5 1.2-1.7 2.3-3.5 3.4-5.3 9.5-5.1 11.6 3.2 11.6 3.2 13.6-6.9 8-16.7 8-16.7-.2 3.5-5.2 9.2-10.3 7.6-2.8-.9-3.1-2.7-2.7-4.3.9-2.3 4.1-4.1 7.7-4.7 1.1-.2 2.2-.4 3.2-.5 7-.9 14.1 1.2 21.2 3.3zM358.9 80c1.7 3.9 2.9 7.8 3.8 11.8 1.7 7.9 1.7 15.6.4 22.5-1.3 6.9-3.7 13-6.8 18-3 5-6.5 8.8-9.7 11.6-3.2 2.8-6 4.7-8 5.9-1 .6-1.8 1-2.3 1.3-.5.3-.8.4-.8.4s.3-.1.8-.4c18.4-9.7 29.7-27.6 30-47.7 0-3.9-.3-8-1.1-12.1-.7-4.1-2-8.3-3.6-12.3-1.5-4-3.2-8.1-4.3-12.3-1.1-4.2-1.8-8.6-1-12.8.7-4.2 3.2-7.9 6.8-10.6l.3-.3.2-.1.1-.1.8-.5.8-.5c.3-.2.5-.3.8-.4l1.5-.7c.5-.3 1.1-.4 1.6-.6 1.1-.4 2.2-.6 3.3-.9 1.2-.2 2.3-.4 3.5-.5 4.7-.4 9.5.3 14.1 1.7s8.9 3.5 12.7 6.3c1 .7 1.8 1.5 2.7 2.2.4.4.8.8 1.3 1.2l1.2 1.2c.8.9 1.5 1.7 2.3 2.6.7.9 1.4 1.8 2.1 2.8 5.3 7.6 8.8 16.3 13.4 24.2.6 1 1.2 2 1.8 2.9l.5.7.5.7c.3.5.7.9 1 1.4 1.4 1.9 2.9 3.6 4.5 5.2 3.2 3.2 6.9 5.9 10.8 7.9 3.9 2 7.9 3.6 12.2 4.2 1.1.1 2.1.2 3.2.2.5 0 1.1-.1 1.6-.1.5-.1 1.1-.2 1.6-.3 2.1-.6 4-1.6 5.3-3.3.2-.2.3-.4.4-.6l.2-.3.1-.2v-.1l.1-.2c.2-.4.4-.8.5-1.3.1-.5.3-1 .3-1.5v-1.4c-.1-1.9-.9-3.6-1.9-5.1-1-1.4-2.2-2.7-3.5-3.7-1.3-1-2.8-1.8-4.2-2.4-1.5-.6-3-.9-4.5-.9s-3 .3-4.2.9c-1.3.6-2.3 1.6-2.8 2.8l-.3.9c0 .3-.1.6-.1.9 0 .6.1 1.2.3 1.7.8 2.1 2.7 3.3 4.3 3.9 1.6.6 3 .9 4.2 1.1 1.2.2 2.1.2 2.7.3.6 0 .9.1.9.1s-.3 0-.9-.1c-.6-.1-1.5-.2-2.6-.4s-2.6-.6-4.1-1.3c-.8-.4-1.5-.8-2.2-1.4-.7-.6-1.3-1.4-1.6-2.3-.2-.5-.2-.9-.2-1.5 0-.3.1-.5.1-.8.1-.2.1-.5.3-.7.4-1 1.3-1.7 2.4-2.2 1.1-.5 2.4-.7 3.8-.7 1.3.1 2.7.4 4 1 1.3.6 2.6 1.4 3.8 2.3 1.2 1 2.2 2.1 3 3.4.8 1.3 1.4 2.8 1.4 4.3 0 .4 0 .8-.1 1.1-.1.4-.2.7-.2 1-.1.4-.4.8-.5 1.2l-.1.2v.1l-.2.2c-.1.2-.2.3-.3.5-1 1.2-2.6 2-4.3 2.4-.4.1-.9.2-1.3.2-.4.1-.8.1-1.4.1-.9 0-1.9-.1-2.8-.2-3.8-.6-7.6-2.1-11.2-4.1-3.6-2-7-4.6-9.9-7.6-1.5-1.5-2.9-3.2-4.1-4.9-.3-.4-.6-.9-.9-1.3l-.4-.7-.4-.7c-.6-.9-1.2-1.9-1.7-2.8-2.2-3.9-4.2-8-6.2-12.1-2.1-4.2-4.3-8.4-7.1-12.4-.7-1-1.5-2-2.2-3-.8-1-1.6-1.9-2.4-2.8l-1.3-1.3c-.4-.4-.9-.9-1.4-1.3-1-.8-2-1.7-3-2.4-4.1-3.1-8.8-5.3-13.7-6.9-5-1.5-10.2-2.2-15.5-1.8-1.3.1-2.6.3-3.9.5-1.3.3-2.6.6-3.8 1.1-.6.2-1.2.4-1.9.7l-1.8.9c-.6.3-1.1.6-1.6 1l-.8.5-.1.1-.2.1-.2.1-.4.3c-2.1 1.6-3.9 3.4-5.3 5.6-1.4 2.2-2.2 4.6-2.7 7-.8 4.9 0 9.7 1.3 14.1 1.1 4.3 2.8 8.4 4.4 12.4zm30.3-27.5c-12.6-2.3-15.6-6-15.6-6 2 7.6-4.2 13.3-4.2 13.3 33.5 59 83.2 56.2 83.2 56.2-61.3-7.6-63.4-63.5-63.4-63.5zm-137.5 89.1c6.1 5.6 10.8 6 10.7 6.1 5 .9 10.1-.7 13.5-3.4 3.4-2.7 5.4-5.9 7.2-9.1 3.1-5.9 4.2-12 4.4-17.6 2.4 15.3.2 24.9-.8 30.4-1.2 5.6-1.7 7.3-1.7 7.3s1.6-1.1 4.4-6.5c2.5-5.3 7-15.3 5.4-32.6-.6-5.3-1.8-10.4-3.7-15.2-1-3-2.4-6.2-4.2-9.2-5.1-8.7-5.1-11.3-6.2-16.7 0 0-8.4-1.8-13.5-8.5 0 0 3.7 7.4 2.6 16.7l.4.2c1.7.8 7.9 4.6 12 16.8 1.4 4.8 2.4 10 2.4 15.7 0 5.7-1.3 11.9-4.8 17.4-1.8 2.7-4.1 5.4-6.8 7.1-2.8 1.7-6.1 2.2-9.2 1.2.1-.1-2.9.2-8.2-4-5.1-4.1-12-13.8-12.5-29.5-.7-15.5 6.9-36.5 26.5-55.4 4.8-4.9 9.5-10.3 13.8-16.5 4.2-6.2 3.4-6.6-.8-.5-4.3 6.1-9.1 11.3-14 16-20.3 18.5-29.1 39.8-29.1 56.3-.3 16.8 6.4 28 12.2 33.5zM216 124c-5.2 1.6-10.1-4.1-10.3-7.6 0 0-5.6 9.8 8 16.7 0 0 2.1-8.2 11.6-3.2 1 1.8 2.1 3.6 3.4 5.3 5.7 8.1 14.1 14.2 23.5 17.5-9.2-3.8-17-10.4-22.1-18.4-5.1-8.1-7.7-17.3-8.8-26.6l-.3-2.2c-1.5-12.8-.6-23.3-1.5-23.4-1-.2-3.5 10.5-2 23.8.1.8.2 1.5.3 2.3.4 2.3.9 4.5 1.5 6.8l-.1-.1c-2.2-1.8-4.8-2.7-7.4-3.2-1.2-.2-2.4-.4-3.7-.5-8-.6-15.4 2-22.3 4.3-7 2.4-14 4.7-21.2 6.3-14.4 3.4-29.3 4.5-44.1 4.3 14.8.7 29.9.2 44.5-2.7 7.3-1.4 14.5-3.5 21.6-5.6 7.1-2.1 14.2-4.2 21.2-3.4 1.1.1 2.2.3 3.2.5 3.6.6 6.8 2.5 7.7 4.7.4 1.6.1 3.5-2.7 4.4zm-90.6-26.2c.1.5.3.8.5 1.3l.1.2v.1s.1.1.1.2l.2.3c.1.2.3.4.4.6 1.3 1.6 3.2 2.7 5.3 3.3.5.1 1 .3 1.6.3.5.1 1.1.1 1.6.1 1.1 0 2.2 0 3.2-.2 4.3-.6 8.3-2.2 12.2-4.2 3.9-2.1 7.5-4.7 10.8-7.9 1.6-1.6 3.1-3.3 4.5-5.2.3-.5.7-.9 1-1.4l.5-.7.5-.7c.6-1 1.2-1.9 1.8-2.9 4.6-7.9 8.1-16.6 13.4-24.2.6-1 1.4-1.9 2.1-2.8.7-.9 1.5-1.8 2.3-2.6l1.2-1.2c.4-.4.8-.8 1.3-1.2.9-.7 1.7-1.5 2.7-2.2 3.8-2.8 8.1-4.9 12.7-6.3 4.6-1.4 9.4-2.1 14.1-1.7 1.2 0 2.3.3 3.5.5 1.1.3 2.3.5 3.3.9.5.2 1.1.4 1.6.6l1.5.7c.2.1.5.3.8.4l.8.5.8.5.1.1.2.1.3.3c3.6 2.7 6.1 6.4 6.8 10.6.8 4.2.1 8.6-1 12.8-1.1 4.2-2.7 8.3-4.3 12.3-1.6 4-2.9 8.2-3.6 12.3-.8 4.1-1.1 8.1-1.1 12.1.3 20.1 11.6 38 30 47.7.5.3.8.4.8.4s-.3-.2-.8-.4c-.5-.3-1.3-.7-2.3-1.3-2-1.2-4.8-3.1-8-5.9-3.2-2.8-6.7-6.6-9.7-11.6-3-5-5.5-11-6.8-18-1.3-6.9-1.2-14.6.4-22.5.8-3.9 2.1-7.8 3.8-11.8 1.7-4 3.3-8.1 4.6-12.5 1.2-4.4 2.1-9.2 1.3-14.1-.4-2.4-1.3-4.9-2.7-7-1.4-2.2-3.2-4.1-5.3-5.6l-.4-.3-.2-.1-.2-.1-.1-.1-.8-.5c-.5-.3-1-.7-1.6-1l-1.8-.9c-.6-.3-1.2-.5-1.9-.7-1.2-.5-2.5-.7-3.8-1.1-1.3-.2-2.6-.5-3.9-.5-5.3-.5-10.5.3-15.5 1.8-4.9 1.6-9.7 3.8-13.7 6.9-1 .7-2 1.6-3 2.4-.5.4-.9.9-1.4 1.3l-1.3 1.3c-.8.9-1.7 1.9-2.4 2.8-.7 1-1.5 1.9-2.2 3-2.8 4-5 8.3-7.1 12.4-2.1 4.2-4 8.3-6.2 12.1-.5 1-1.1 1.9-1.7 2.8l-.4.7-.4.7c-.3.5-.6.9-.9 1.3-1.3 1.7-2.6 3.4-4.1 4.9-3 3-6.3 5.6-9.9 7.6-3.6 2-7.4 3.5-11.2 4.1-.9.1-1.9.2-2.8.2-.5 0-.9 0-1.4-.1-.4 0-.9-.1-1.3-.2-1.7-.4-3.3-1.3-4.3-2.4-.1-.2-.3-.3-.3-.5l-.2-.2v-.1l-.1-.2c-.2-.4-.4-.8-.5-1.2-.1-.4-.2-.7-.2-1 0-.4 0-.8-.1-1.1 0-1.5.6-3 1.4-4.3.8-1.3 1.9-2.5 3-3.4 1.2-1 2.5-1.7 3.8-2.3 1.3-.6 2.7-.9 4-1 1.3-.1 2.7.2 3.8.7 1.1.5 2 1.3 2.4 2.2.1.2.2.5.3.7 0 .3.1.5.1.8 0 .5 0 1-.2 1.5-.3.9-.9 1.7-1.6 2.3-.7.6-1.4 1.1-2.2 1.4-1.5.7-2.9 1-4.1 1.3-1.1.2-2 .3-2.6.4-.6.1-.9.1-.9.1s.3 0 .9-.1c.6 0 1.5-.1 2.7-.3 1.2-.2 2.6-.4 4.2-1.1 1.6-.6 3.4-1.8 4.3-3.9.2-.5.3-1.1.3-1.7 0-.3 0-.6-.1-.9-.1-.3-.1-.6-.3-.9-.5-1.2-1.5-2.2-2.8-2.8-1.3-.6-2.7-.9-4.2-.9s-3.1.3-4.5.9c-1.5.6-2.9 1.4-4.2 2.4-1.3 1-2.5 2.2-3.5 3.7-1 1.4-1.8 3.2-1.9 5.1v1.4c-.2.6-.1 1.1.1 1.6zm80.7-45.3s-2.1 55.9-63.5 63.6c0 0 49.7 2.8 83.2-56.2 0 0-6.2-5.7-4.2-13.3.1-.1-2.9 3.6-15.5 5.9zm101.6-24L297.6 5.9l-10.1 22.6 10.1 64.2 10.1-64.2zM66.5 97.8zm-7.6 95.8c.3 1.5.5 2.2.5 2.2s-.2-.8-.7-2.2c-.4-1.4-1-3.6-1.4-6.3-.4-2.8-.8-6.2-.6-10.1 0-2 .3-4.1.5-6.2.4-2.2.8-4.5 1.5-6.8.2-.6.3-1.2.6-1.8l.6-1.8c.2-.6.5-1.2.7-1.8.2-.6.5-1.2.8-1.8 1.2-2.4 2.5-4.8 4-7.2 3-4.8 6.6-9.5 9.9-14.4 1.6-2.5 3.2-5.1 4.5-7.7.3-.6.6-1.4 1-2.1.3-.6.6-1.4.8-2 .5-1.4 1-2.8 1.4-4.3.7-2.7 1.2-5.4 1.4-8.2-.1 0-.2 0-.3-.1-3-.8-6-1.8-9-3.2-1.5-.7-3-1.6-4.4-2.7-1.4-1.1-2.7-2.5-3.5-4.3-.2-.4-.3-.9-.5-1.4-.1-.2-.1-.5-.1-.7v-1c0-.4 0-.7.1-1.2.1-.6.2-1.2.4-1.7.8-2 2.5-3.5 4.3-4.4 1.8-.9 3.8-1.3 5.9-1.3 2 0 4.1.6 5.9 1.9l.7.5.1.1.1.1.1.1.2.2c.3.3.7.8 1 1.1.6.8 1.1 1.6 1.5 2.4.8 1.7 1.3 3.4 1.6 5.1.4 2.7.6 5.4.6 8.1 1.6.4 3.1.8 4.6 1.1 2.8.6 5.5 1.1 8.2 1.7 2.6.6 5.2 1 7.6 1.5 9.8 1.6 18.2 2.2 24 2.5 2.9.1 5.2.2 6.8.3h2.4s-.8.1-2.4.2c-1.6.1-3.9.3-6.8.4-2.9.1-6.5.1-10.6 0s-8.7-.4-13.8-1c-2.5-.3-5.1-.6-7.8-1.1-2.7-.4-5.4-.9-8.3-1.4-1.4-.2-2.7-.5-4.1-.8-.3 2.8-.8 5.5-1.5 8.2-.4 1.6-1 3.1-1.6 4.6-.3.8-.6 1.5-1 2.3-.4.7-.6 1.4-1.1 2.1-1.5 2.9-3.2 5.5-5 8.1-3.5 5.1-7.3 9.6-10.4 14.1-1.6 2.2-3 4.5-4.2 6.7-.3.6-.6 1.1-.9 1.7-.3.6-.5 1.1-.8 1.6-.3.5-.5 1.1-.7 1.7-.2.6-.4 1.1-.6 1.7-1.6 4.4-2.4 8.7-2.8 12.5-.4 3.8-.4 7.2-.2 9.9.1 1.4.2 2.6.3 3.7.2 1 .4 1.9.5 2.6zm25.6-86.1c0-2.1-.2-4.1-.6-6.1-.3-1.4-.6-2.8-1.2-4.1-.6-1.2-1.3-2.3-2.3-3-1.7-1.3-5-1.4-7.1-.3-1.1.5-1.9 1.3-2.3 2.2-.1.2-.1.4-.2.5 0 .3-.1.7-.1 1v.3c0 .1 0 .3.1.4.1.3.1.5.2.8.4 1 1.2 2 2.3 2.9 1 .9 2.3 1.6 3.6 2.3 2.4 1.4 5 2.3 7.6 3.1zm444.2-9.7zm9.3 89.5c-.4 2.8-1 4.9-1.4 6.3-.5 1.4-.7 2.2-.7 2.2s.2-.8.5-2.2c.1-.7.3-1.6.4-2.7.1-1.1.3-2.3.3-3.7.2-2.8.2-6.1-.2-9.9-.4-3.8-1.3-8.1-2.8-12.5-.2-.6-.4-1.1-.6-1.7-.2-.6-.4-1.1-.7-1.7-.3-.5-.5-1.1-.8-1.6-.3-.6-.6-1.1-.9-1.7-1.2-2.2-2.6-4.5-4.2-6.7-3.1-4.5-6.9-9-10.4-14.1-1.8-2.5-3.5-5.1-5-8.1-.4-.7-.7-1.4-1.1-2.1-.4-.8-.7-1.5-1-2.3-.6-1.5-1.1-3.1-1.6-4.6-.7-2.7-1.2-5.4-1.5-8.2-1.4.3-2.8.6-4.1.8-2.9.5-5.6.9-8.3 1.4-2.7.4-5.3.8-7.8 1.1-5 .6-9.7.9-13.8 1-4.1.1-7.7.1-10.6 0-2.9-.1-5.2-.3-6.8-.4-1.6-.1-2.4-.2-2.4-.2h2.4c1.6 0 3.9-.1 6.8-.3 5.8-.3 14.2-.9 24-2.5 2.5-.4 5-.9 7.6-1.5 2.6-.5 5.4-1.1 8.2-1.7 1.5-.3 3.1-.7 4.6-1.1-.1-2.7.1-5.4.6-8.1.3-1.7.8-3.4 1.6-5.1.4-.8.9-1.7 1.5-2.4.3-.4.7-.8 1-1.1l.2-.2.1-.1.1-.1.1-.1.7-.5c1.8-1.3 3.9-1.8 5.9-1.9 2 0 4 .4 5.9 1.3 1.8.9 3.5 2.4 4.3 4.4.2.5.3 1.1.4 1.7 0 .4 0 .8.1 1.2v1c0 .2-.1.5-.1.7-.1.5-.3 1-.5 1.4-.8 1.8-2.1 3.2-3.5 4.3-1.4 1.1-2.9 1.9-4.4 2.7-3 1.4-6 2.4-9 3.2-.1 0-.2 0-.3.1.2 2.8.6 5.5 1.4 8.2.4 1.4.8 2.9 1.4 4.3.3.7.5 1.4.8 2 .3.7.6 1.5 1 2.1 1.3 2.6 2.9 5.2 4.5 7.7 3.3 5 6.9 9.6 9.9 14.4 1.5 2.4 2.9 4.7 4 7.2.3.6.5 1.2.8 1.8.2.6.5 1.2.7 1.8l.6 1.8.6 1.8c.7 2.3 1.2 4.6 1.5 6.8.3 2.2.5 4.3.5 6.2.3 4.1 0 7.5-.5 10.2zm-27.2-79.8c2.6-.8 5.2-1.7 7.6-2.9 1.3-.7 2.5-1.4 3.6-2.3 1.1-.9 1.9-1.8 2.3-2.9.1-.3.2-.5.2-.8 0-.1 0-.3.1-.4v-.3c0-.4 0-.7-.1-1-.1-.2-.1-.3-.2-.5-.4-.9-1.2-1.7-2.3-2.2-2.2-1.1-5.4-1.1-7.1.3-.9.7-1.7 1.7-2.3 3-.6 1.2-1 2.6-1.2 4.1-.4 1.8-.6 3.9-.6 5.9zM368.1 541.9c-.3 4.5-6.9 12-13.8 9.8-3.7-1.1-4.1-3.6-3.7-5.6 1.2-2.9 5.5-5.3 10.3-6.1 1.4-.3 2.9-.5 4.3-.6 9.3-1.1 18.8 1.7 28.2 4.4 9.4 2.8 19 5.5 28.8 7.3 19.5 3.8 39.5 4.5 59.3 3.5-19.8.3-39.7-1.2-58.8-5.6-9.6-2.2-18.9-5.1-28.2-8.3-9.3-3-19.1-6.4-29.7-5.6-1.6.2-3.2.4-4.9.7-3.5.7-7 1.9-9.9 4.2l-.1.1c.8-2.9 1.5-5.9 2-8.8.2-1 .3-2 .4-3 2.1-17.3-9.9 26.5-16.7 37.1-6.7 10.5-17.1 19-29.4 24 12.6-4.3 23.7-12.4 31.3-22.9 1.6-2.2 3.1-4.6 4.5-7 12.7-6.6 15.5 4.1 15.5 4.1 18-8.9 10.6-21.7 10.6-21.7zm-108.3 23.5c-6.8-10.5-18.8-54.4-16.7-37.1.1 1 .3 2 .4 3 .5 3 1.2 5.9 2 8.8l-.1-.1c-2.9-2.3-6.4-3.5-9.9-4.2-1.6-.3-3.3-.5-4.9-.7-10.7-.8-20.5 2.6-29.7 5.6-9.3 3.1-18.6 6.1-28.2 8.3-19.1 4.4-39 5.9-58.8 5.6 19.8 1 39.8.3 59.3-3.5 9.8-1.8 19.3-4.5 28.8-7.3 9.4-2.7 18.9-5.5 28.2-4.4 1.4.1 2.9.4 4.3.6 4.8.8 9.1 3.2 10.3 6.1.4 2 0 4.5-3.7 5.6-6.9 2.1-13.5-5.3-13.8-9.8 0 0-7.5 12.8 10.6 21.8 0 0 2.8-10.8 15.5-4.1 1.4 2.4 2.8 4.7 4.5 7 7.6 10.5 18.8 18.6 31.3 22.9-12.3-5.1-22.7-13.6-29.4-24.1zm37.8-32l-16.5 40.7 16.5 15.3 16.5-15.3-16.5-40.7zm-230.4 26l.1.1.2.1.2.2.5.3c.7.4 1.3.8 2.1 1.1 1.4.6 3 .9 4.5 1 1.5.1 2.9 0 4.4-.2 1.6-.2 2.7-.6 4-.9 2.6-.7 5.1-1.4 7.6-2.2 5-1.6 9.8-3.5 14.5-5.2 4.7-1.7 9.4-3.3 14-4.5 4.6-1.2 9.1-2 13.5-2.6 4.4-.5 8.5-.9 12.4-1.1 3.9-.2 7.4-.3 10.6-.3 3.2 0 5.9 0 8.2.1 4.5.1 7.1.3 7.1.3l-1.8-.3c-1.2-.2-3-.5-5.2-.8-4.5-.6-11-1.4-18.9-1.5-3.9-.1-8.2 0-12.7.4s-9.3.9-14.1 2.1c-4.9 1.1-9.7 2.6-14.5 4.3-4.8 1.7-9.6 3.5-14.5 5-2.4.8-4.8 1.5-7.3 2.2-1.2.3-2.5.7-3.5.8-1.1.2-2.2.3-3.3.2-4.3-.1-7.2-3.2-8.4-7.1-1.1-3.9-1-8.2-.4-12.2.3-2 .7-3.9 1.1-5.8.4-1.9.9-3.7 1.4-5.4 2.1-6.9 4.3-12.6 5.8-16.5 1.6-4 2.4-6.3 2.4-6.3l-.9 1.5c-.6 1-1.4 2.5-2.4 4.4-2 3.8-4.9 9.2-7.6 16.1-1.3 3.4-2.6 7.2-3.5 11.4-.8 4.2-1.4 8.8-.2 13.7.6 2.4 1.8 4.9 4 7l.6.6zm119.7-7.1c-1.2 0-1.9.1-1.9.1s2.7.6 6.7 1.3c2 .3 4.4.7 7 .8 1.3.1 2.6.2 4 .1 1.4 0 2.8-.1 4.2-.3 1.4-.2 2.8-.5 4.1-.8 1.3-.3 2.6-.8 3.8-1.3 1.2-.5 2.3-1.1 3.3-1.8.5-.3 1-.7 1.4-1 .4-.4.8-.7 1.2-1.1.7-.7 1.3-1.5 1.7-2.2.2-.4.4-.7.6-1 .1-.3.3-.6.4-.9.3-.5.3-1 .4-1.3.1-.3.1-.4.1-.4s-.1.1-.2.4c-.2.3-.4.6-.7 1.1-.2.2-.4.5-.6.7-.2.3-.5.5-.7.8-.5.6-1.2 1.1-1.9 1.7-.8.6-1.6 1.1-2.6 1.6s-2 1-3.2 1.4c-1.1.4-2.4.8-3.6 1.1-1.3.3-2.5.5-3.8.7-1.3.2-2.6.3-3.9.3-1.3.1-2.6.1-3.9.1-2.5 0-4.9-.1-6.9-.1h-5zM63.3 439.5c1 4.5 2 9.2 3.3 13.8 1.2 4.7 2.6 9.4 3.9 14.1 1.4 4.7 2.8 9.4 4.2 14 1.3 4.6 2.7 9.1 3.8 13.5 1.2 4.4 2.2 8.6 2.9 12.7.7 4.1 1.1 7.9 1.1 11.5 0 3.6-.3 6.8-.8 9.7-.3 1.4-.6 2.8-1 4-.2.6-.4 1.2-.6 1.7-.2.5-.4 1.1-.6 1.5-.4 1-.9 1.8-1.2 2.6-.4.8-.7 1.4-1.1 1.9l-.9 1.5s.4-.5 1.2-1.4c.4-.4.9-1 1.3-1.7.5-.7 1.1-1.5 1.6-2.5.3-.5.6-1 .8-1.5.3-.5.5-1.1.8-1.7.6-1.2 1-2.6 1.5-4 .9-2.9 1.5-6.3 1.8-10 .3-3.7.2-7.8-.3-12s-1.3-8.7-2.4-13.1c-.5-2.2-1-4.5-1.6-6.8l-1.8-6.9c-1.3-4.7-2.7-9.3-4-14-1.4-4.7-2.8-9.4-4.1-14-1.3-4.6-2.5-9.1-3.6-13.6-1-4.4-2-8.7-2.7-12.8-.4-2-.6-4-1-6-.3-1.9-.5-3.8-.7-5.6-.5-3.6-.6-6.9-.8-9.8 0-2.9-.1-5.5-.1-7.6.1-4.2.2-6.7.2-6.7l-1.1 6.6c-.3 2.1-.5 4.7-.7 7.7-.1 3-.3 6.4-.1 10 .1 3.7.4 7.7.9 11.9.3 2.1.5 4.3.9 6.4.1 2.1.5 4.3 1 6.6zm465.8 87.2c-2.7-6.9-5.5-12.3-7.6-16.1-1-1.9-1.9-3.4-2.4-4.4l-.9-1.5s.8 2.3 2.4 6.3c1.5 4 3.8 9.6 5.8 16.5.5 1.7 1 3.5 1.4 5.4.4 1.9.8 3.8 1.1 5.8.6 4 .8 8.3-.4 12.2-1.1 3.9-4.1 7.1-8.4 7.1-1.1.1-2.2 0-3.3-.2-1-.1-2.3-.5-3.5-.8-2.4-.6-4.8-1.4-7.3-2.2-4.8-1.5-9.7-3.3-14.5-5-4.8-1.7-9.7-3.2-14.5-4.3-4.8-1.1-9.6-1.7-14.1-2.1-4.5-.4-8.8-.4-12.7-.4-7.9.1-14.4.9-18.9 1.5-2.3.3-4 .6-5.2.8l-1.8.3s2.6-.1 7.1-.3c2.3-.1 5-.1 8.2-.1 3.2 0 6.7.1 10.6.3 3.9.2 8 .6 12.4 1.1 4.4.6 8.9 1.4 13.5 2.6 4.6 1.2 9.2 2.8 14 4.5 4.7 1.7 9.6 3.5 14.5 5.2 2.5.8 5 1.5 7.6 2.2 1.3.3 2.5.7 4 .9 1.4.2 2.9.3 4.4.2 1.5-.1 3-.4 4.5-1 .7-.3 1.4-.7 2.1-1.1l.5-.3.2-.2.2-.1.1-.1.7-.6c2.1-2 3.3-4.5 4-7 1.3-4.9.7-9.5-.2-13.7-1-4.2-2.3-8-3.6-11.4zm-144.9 26.8c1.3.4 2.8.6 4.1.8 1.4.2 2.8.3 4.2.3 1.4 0 2.7 0 4-.1 2.6-.2 5-.5 7-.8 4-.7 6.7-1.3 6.7-1.3s-.7 0-1.9-.1h-5c-2 0-4.4.1-6.9.1-1.3 0-2.6 0-3.9-.1l-3.9-.3c-1.3-.2-2.6-.4-3.8-.7-1.2-.3-2.5-.6-3.6-1.1-1.1-.4-2.2-.9-3.2-1.4-1-.5-1.9-1.1-2.6-1.6-.8-.6-1.4-1.2-1.9-1.7-.3-.3-.5-.6-.7-.8-.2-.3-.4-.5-.6-.7-.4-.4-.5-.8-.7-1.1-.2-.3-.2-.4-.2-.4s0 .2.1.4c.1.3.2.7.4 1.3.1.3.2.6.4.9.2.3.4.6.6 1 .4.7 1 1.4 1.7 2.2.4.4.8.7 1.2 1.1.4.3.9.7 1.4 1 1 .7 2.1 1.3 3.3 1.8 1.2.5 2.4.9 3.8 1.3zm150-156.7l-1.1-6.6s0 2.4.2 6.7c0 2.1-.1 4.7-.1 7.6-.2 2.9-.4 6.3-.8 9.8-.2 1.8-.4 3.7-.7 5.6-.3 1.9-.5 3.9-1 6-.7 4.1-1.7 8.4-2.7 12.8-1.1 4.4-2.3 8.9-3.6 13.6-1.3 4.6-2.7 9.3-4.1 14-1.3 4.7-2.7 9.4-4 14-.7 2.3-1.3 4.6-1.8 6.9-.6 2.3-1.1 4.6-1.6 6.8-1.1 4.5-1.9 8.9-2.4 13.1-.5 4.2-.6 8.3-.3 12 .2 3.7.9 7.1 1.8 10 .5 1.4.9 2.8 1.5 4 .3.6.5 1.2.8 1.7.3.5.6 1 .8 1.5.5 1 1.1 1.8 1.6 2.5s.9 1.3 1.3 1.7c.8.9 1.2 1.4 1.2 1.4l-.9-1.5c-.3-.5-.7-1.1-1.1-1.9-.4-.8-.8-1.6-1.2-2.6l-.6-1.5c-.2-.5-.4-1.1-.6-1.7-.4-1.2-.7-2.5-1-4-.6-2.9-.8-6.1-.8-9.7 0-3.6.4-7.4 1.1-11.5.7-4.1 1.7-8.3 2.9-12.7 1.2-4.5 2.5-8.9 3.8-13.5 1.3-4.6 2.8-9.3 4.2-14 1.4-4.7 2.7-9.4 3.9-14.1 1.3-4.7 2.3-9.3 3.3-13.8.5-2.2.9-4.5 1.2-6.7.4-2.2.6-4.3.9-6.4.5-4.2.9-8.2.9-11.9.2-3.7 0-7.1-.1-10-.4-2.9-.6-5.5-.9-7.6zM233.8 101.6c0 .3 0 .6-.1 1-.1 2.4 0 4.7.3 7h2.9c0-2.7.2-5.4.5-8h-3.6zm137.4 8c.1-.6.2-1.2.3-1.7v-.1c.3-2.1.5-4.1.6-6.2h-3.2v.1c0 2.6-.1 5.3-.4 7.9h2.7zm-297.6.5c-3.3-1.6-6.3-3.8-8-6.8v41.5c2.7-4 5.5-7.8 8-11.8v-22.9zm31-.5h54.8c5.7-2 11.1-4.7 16.1-8h-22.6c-6.2 3.7-13.3 6.1-20 4.9-3.5-.6-6.4-2.4-8.3-4.9H91c.2 1.7.4 3.5.4 5.2 4.4 1 8.8 2 13.2 2.8zm196.8-8h-7.6c.9 2.6 1.6 5.3 2.2 8h3.2c.6-2.7 1.3-5.4 2.2-8zm59.8 8c.3-2.6.4-5.3.2-8h-3.6c.4 2.7.6 5.3.6 8h2.8zM529.6 415V161.2c-1.6-3.4-3.5-6.7-5.7-9.8-.8-1.1-1.5-2.1-2.3-3.1v303.8c2.4-8.6 4.7-17.2 6.4-25.9.7-3.8 1.2-7.5 1.6-11.2zm-75-308.8c-4.3-.8-8.4-2.4-12.2-4.6h-22.6c4.9 3.3 10.3 6 16.1 8h54.8c4.4-.8 8.8-1.7 13.2-2.8 0-1.7.2-3.5.4-5.2h-33.5c-3.4 4.6-10.4 5.7-16.2 4.6zM350.7 560c-4.5-1.1-7.3 2-9.7 5.5h14.9c-.3-.3-.6-.7-.8-1.2-.6-2-2.3-3.7-4.4-4.3zm147.7-.6c-1.7-.6-3.4-1.2-5-1.8H368.6c-2.4 3.3-5.8 6-9.4 8h170.4v-4.5c-2.5 2.2-5.8 3.5-9.8 3.6-7.2.2-14.7-2.9-21.4-5.3zm31.2-100.1c-.2.8-.5 1.7-.7 2.5-2.3 8.2-4.9 16.4-7.3 24.6v19.1c2.8 5 5.6 10.2 8 15.6v-61.8zM332.4 565.6c.8-1.2 1.5-2.4 2.2-3.6.8-1.4 1.5-2.9 2.1-4.4h-26.6c1.1 2.7 2.2 5.3 3.2 8h19.1zM65.6 414.9c.4 4 1 8 1.8 12.1 1.7 8.5 3.9 16.8 6.2 25.1V148.3c-.8 1-1.5 2.1-2.3 3.1-2.3 3.2-4.2 6.4-5.7 9.8v253.7zm161.1 142.7H101.9c-1.7.6-3.4 1.2-5 1.8-6.7 2.4-14.2 5.5-21.4 5.3-4.1-.1-7.3-1.5-9.8-3.6v4.5H236c-3.5-2-6.9-4.8-9.3-8zM65.6 459.3v61.9c2.4-5.4 5.2-10.6 8-15.6v-19.1c-2.4-8.2-5-16.4-7.3-24.6-.2-.9-.4-1.7-.7-2.6zm197.2 106.3H282c1.1-2.7 2.2-5.3 3.2-8h-26.6c.7 1.5 1.4 3 2.1 4.4.6 1.2 1.4 2.4 2.1 3.6zm-18.6-5.4c-1.9.6-3.4 2.3-4 4.2-.1.5-.4.9-.8 1.2h14.8c-2.4-3.6-5.4-6.9-10-5.4zm136.4-458.6c-.1 2.4-.4 4.9-.7 7.3 0 .2-.1.4-.1.6h2.5c1.5-.4 2.9-.6 4.5-.8.2 0 .3-.1.5-.1 3.7-.2 7.4.2 11 .9h18.2c-4.7-2.3-9.2-5-13.4-8h-22.5zm145.5 434.7c-1-5.3-2.6-10.5-4.5-15.6V555c6.7-2.1 5.6-12.8 4.5-18.7zm-318-427.6c.1 0 .3 0 .4.1 1.5.2 3.1.5 4.5.8h2.5c0-.2-.1-.4-.1-.6-.3-2.4-.6-4.9-.7-7.3h-22.4c-4.2 3-8.7 5.7-13.4 8h18.2c3.6-.8 7.3-1.2 11-1zm313.5 1.4V133c2.5 4 5.3 7.8 8 11.8v-41.6c-1.7 3-4.7 5.2-8 6.9zm-275.9-8.5c-.2 2-.3 4.1-.2 6.2 0 .6 0 1.2.1 1.8h36.1c-.3-2.5-.9-5.3-1.7-8h-34.3zm104.1 2.3c0-.8-.1-1.6-.2-2.4h-34.5c-.8 2.6-1.3 5.4-1.6 8h36.2c.2-1.9.2-3.7.1-5.6zm-126.6-2.3c.2 2.1.4 4.1.6 6.2v.1c.1.6.2 1.2.3 1.7h2.9c-.3-2.6-.5-5.3-.5-8h-3.3zM73.6 555.1v-34.3c-1.9 5.3-3.6 10.7-4.6 16.3-1 5.7-1.8 15.9 4.6 18zm444.3-441.8h-4.3c.7 4.7 2.2 9 4.3 13.1v-13.1zm-219.9 5c.1-1.7.3-3.3.6-5h-1.8c.3 1.7.4 3.3.6 5h.6zm-86.6 430.5h-18.1c-1.3.4-2.6.7-3.9 1 7.1.2 15.2.9 22-1zm211.9 5c-3.7-.7-7.3-1.4-10.9-2.3 0 .1 0 .1.1.2.3.7.2 1.5-.2 2.1h11zm36.3-5H435c13.8 2.3 27.8 3.2 41.9 3.3-1.6-.4-3.3-.9-4.9-1.2-4.1-1-8.2-1.6-12.4-2.1zm-87.5.7c-.2 1.5-.6 2.9-1.2 4.3h6.6c-2.1-1.1-3.9-2.5-5.4-4.3zM445 118.3c-6.8-.7-13.6-2.6-19.9-5H412c5.1 1.7 10.2 3.5 15.2 5H445zM77.4 465.1c.4 1.3.8 2.6 1.1 3.9 1.2 4.3 2.6 8.7 3.9 13.3V135.7c-1.6 2.5-3.2 4.9-5 7.4v322zm433 88.7h7.5v-9.6c-.2-.1-.4-.3-.6-.5-1.7-2-3.2-4.1-4.4-6.3v11.5h-16.3c.7.2 1.4.5 2.1.7 3.6 1.2 7.7 2.9 11.7 4.2zM90.8 115.1c-.2 1.1-.4 2.2-.7 3.2h24.5c-7.9-.6-15.8-1.7-23.8-3.2zm32.5 435.7c-1.6.4-3.3.8-4.9 1.2 14 0 28-1 41.9-3.3h-24.6c-4.2.6-8.3 1.2-12.4 2.1zm-44.5-43.7c-.5 1.2-.9 2.4-1.4 3.7v23.1c3.2-8.5 3-17.7 1.4-26.8zm-.8 36.5c-.2.2-.4.4-.6.5v9.6h7.4c4.1-1.3 8.1-3 11.8-4.3.7-.2 1.4-.5 2.1-.7H82.4v-11.5c-1.2 2.3-2.7 4.4-4.4 6.4zm288.6-425.3h2.7c.5-1.6.9-3.3 1.2-5h-2.7c-.3 1.7-.7 3.4-1.2 5zm39.2 431.5c-1.3-.3-2.6-.7-3.9-1h-18.1c6.9 1.9 15 1.2 22 1zm-92.5-431.5h35.2c.4-1.6.7-3.3.9-5h-36.2c-.1 1.8 0 3.5.1 5zm204.6 346.8v-322c-1.8-2.4-3.4-4.9-5-7.4v346.6c1.3-4.6 2.6-9 3.9-13.3.3-1.3.7-2.6 1.1-3.9zM281.8 118.3c.2-1.8.3-3.5.2-5h-36.1c.2 1.7.5 3.3.9 5h35zm77.7 0c.5-1.6.9-3.3 1.2-5h-2.3c-.1 1.7-.3 3.3-.5 5h1.6zm121.1 0h24.5c-.3-1-.5-2.1-.7-3.2-7.9 1.5-15.8 2.6-23.8 3.2zm-251.8 0c-.5-1.6-.9-3.3-1.2-5h-2.9c.3 1.7.7 3.4 1.2 5h2.9zm8.8 0c-.3-1.7-.5-3.3-.6-5h-2.5c.3 1.7.7 3.4 1.2 5h1.9zm-19.8 435.5h6.6c-.6-1.4-1-2.8-1.2-4.3-1.5 1.8-3.3 3.2-5.4 4.3zm-67.5-435.5h17.8c5.1-1.5 10.1-3.3 15.2-5h-13.1c-6.3 2.4-13.1 4.3-19.9 5zm138.4 430.5H255c.6 1.7 1.2 3.3 1.9 5h29.8c.7-1.7 1.4-3.3 2-5zm-105.9 2.7c-3.6.9-7.2 1.6-10.9 2.3h11c-.4-.6-.4-1.4-.2-2.1.1-.1.1-.1.1-.2zm157.4-2.7h-33.7c.7 1.7 1.3 3.3 2 5h29.8c.7-1.7 1.3-3.3 1.9-5zm177.7-14.9v-23.1c-.5-1.2-.9-2.4-1.4-3.7-1.6 9.1-1.8 18.3 1.4 26.8zM77.4 113.3v13.1c2-4 3.6-8.3 4.3-13.1h-4.3z"/></svg>