<svg xmlns="http://www.w3.org/2000/svg" viewBox="0 0 595.3 595.3"><path d="M504.2 467.3c2.7 8.2 7.7 18.2 5 26.9-1.7 5.4-5.7 10.3-11.3 11.6-5.6 1.3-11.7.4-16.5-2.8-3.1-2-5.7-4.9-6.8-8.5-1.6-5.3 1.2-11.8 6.8-13.3 1.4-.4 2.8-.5 4.1-.2 3.3.8 6 4.2 6 7.7 0 3.4-2.7 6.1-6.1 6.1s-6.1-2.7-6.1-6.1c0-3.4 2.7-6.1 6.1-6.1.4 0 .7 0 1 .1l-1.2-.3c-1-.2-2.2 0-3.3.4-4.8 1.9-6.2 8.1-3.7 12.3 2.1 3.6 6.2 5.7 10.4 6.4 3.6.7 7.5.5 10.5-1.5 2.6-1.7 4.2-4.6 4.8-7.7 1.3-6.7-2.3-13.7-8.1-17.4-9.7-6.1-21.2-3-28.7 4.8-4.4 4.6-7.8 10-12.4 14.3-7.1 6.7-16.4 9.8-26.1 9.7-2 0-4-.2-5.9-.4-2.8-.3-7.8 2.4-9.9 4.2-2.5 2.2-4.3 5.4-4.6 8.7-.4 4.2 1.6 8.7 5.3 10.8 4.8 2.8 12 1 13.1-4.9.5-2.3-.5-4.8-2.1-6.3-.4-.4-.8-.7-1.3-1-.4-.3-.9-.5-1.4-.6-.4-.1-.9-.2-1.4-.2-.5 0-.9.1-1.4.2h.6c2.4 0 4.4 2 4.4 4.4 0 2.4-2 4.4-4.4 4.4-1.2 0-2.4-.5-3.3-1.5-1.5-1.7-1.7-4.8-.8-6.9.5-1.1 1.5-2 2.7-2.5 1.2-.6 2.6-.9 4.1-.7.8.1 1.5.3 2.2.6.7.3 1.4.7 2.1 1.2 1.3 1 2.4 2.3 3.2 3.9.4.8.7 1.7.9 2.6.1.4.1 1 .2 1.5v1.5c-.2 2-.9 3.9-2 5.5-.6.8-1.2 1.6-2 2.3-.4.3-.8.7-1.2 1-.2.2-.4.3-.7.4-.2.1-.5.3-.7.4-6 3.2-13.7 1-18-4-3.4-4-4.7-9.7-3.5-14.8 1.2-5.1 4.9-9.6 9.6-12-12.5-2.7-24.8-6.9-37.6-8.3-5.6-.6-11.2-.6-16.5.4-7.2 1.6-13.4 5.1-20.2 7.9-5.7 2.3-11.7 4.2-17.8 4.1-6.1-.1-12.4-2.2-16.5-6.7-1.8-2-3-4.4-3.6-6.9-1.1-4.4-.2-9.2 2.9-12.8l1.5-1.5c3.6-3.1 8.6-4.6 13.2-3.6.3.1.6.1 1 .3l.9.3.5.2h.1c-.1 0 .2.1.2.1l.2.1.7.4c1.3.8 2.2 1.7 3 2.7 1.6 2 2.4 4.4 2.5 6.7.2 2.3-.4 4.6-1.4 6.5-1 1.9-2.6 3.5-4.7 4.3h-.1l-.2.1h-.2l-.3.1c-.2.1-.5.1-.8.1-.1 0-.3 0-.4.1h-1.2c-1-.1-2-.4-2.8-.9-1.6-.9-2.9-2.1-3.8-3.5-.5-.7-.8-1.4-1.1-2.1l-.1-.3-.1-.3c-.1-.2-.1-.4-.1-.6-.1-.4-.1-.8-.2-1.1-.1-1.5.3-2.9 1-4.1.8-1.2 2.1-2.1 3.6-2.1 1.8 0 3.5 1.2 3.9 3 .2.7.1 1.3-.2 1.8-.4 1.3-1.6 2.3-3.1 2.3-1.8 0-3.3-1.5-3.3-3.3 0-.2 0-.5.1-.7-.4.8-.5 1.8-.3 2.9 0 .3.1.6.2.9 0 .1.1.3.1.4l.1.2c0 .1.1.2.1.2.3.5.6 1.1 1.1 1.6.8 1 1.9 1.9 3.2 2.4.6.3 1.3.4 1.9.4h.9c.1 0 .2 0 .5-.1l.3-.1.2-.1c.1 0-.1 0 0 0h.1c1.2-.5 2.2-1.7 2.8-3.1.6-1.4.9-3 .6-4.6-.2-1.6-.9-3.2-2-4.4-.5-.6-1.3-1.1-1.8-1.4l-.7-.3-.2-.1s.1.1 0 0h-.1l-.3-.1c-.2-.1-.4-.1-.6-.2-.2-.1-.4-.1-.6-.1-1.7-.3-3.5 0-5.3.7-.9.3-1.7.8-2.4 1.4-.2.1-.3.2-.5.4l-.3.3-.1.1s.1-.1 0 0l-.1.1c-.3.3-.7.7-.9 1.1-1.2 1.5-1.9 3.3-1.9 5 0 1.7.6 3.6 1.8 5.2.1.2.3.4.5.6.2.2.3.4.5.5l.1.1.2.2.2.2.1.1c.1.1 0 0 0 0l.6.6c.4.4.9.7 1.3 1l.7.5c.2.2.5.3.7.4.9.6 1.9 1 2.9 1.3 1 .3 2.1.5 3.2.6 2.2.2 4.6 0 6.9-.6 13.9-3.2 24.9-13.4 39.8-13.6.3 0 .5-.1.6-.3-.6-.4-1.3-.9-1.9-1.5l-.6-.5-.5-.6c-.3-.4-.7-.8-1.1-1.2l-.1-.1-.1-.1-.1-.1-.2-.3c-.1-.2-.3-.4-.4-.6-.6-1-1.2-1.9-1.6-2.9-1-2-1.6-4.2-1.9-6.5-.2-1.2-.2-2.3-.2-3.5 0-1.2.1-2.4.3-3.6 0-.3.1-.6.2-.9l.1-.4v-.2l.1-.3.2-.8c0-.1.1-.2.1-.4l.2-.5c.1-.3.3-.7.4-1 .2-.3.3-.6.5-.9.3-.6.7-1.1 1.1-1.7.9-1.1 1.9-2 3.1-2.8 1.1-.7 2.4-1.4 3.7-1.8l.5-.2.5-.1c.3-.1.6-.2 1-.2.6-.1 1.3-.2 1.9-.3 1.3-.2 2.5-.1 3.8-.1 1.3.1 2.4.3 3.7.5 1.2.2 2.4.6 3.6 1 1.2.5 2.4 1 3.5 1.8s2.1 1.6 3 2.7c.9 1 1.6 2.2 2.1 3.4 2.6 5.9 1.2 13.1-3.9 17.3-1.8 1.5-4 2.5-6.2 3s-4.5.4-6.5-.2c-1-.3-2-.8-2.8-1.4l-1.2-.9c-.2-.2-.4-.3-.5-.5l-.3-.3-.2-.2-.1-.1-.4-.5c-.1-.2-.3-.4-.4-.6-.2-.2-.3-.4-.4-.6l-.3-.6c-.4-.9-.6-1.7-.8-2.6-.3-1.7-.1-3.4.4-4.9.7-2.2 2.3-4.1 4.4-4.9 1.4-.6 3.1-.7 4.5-.1 1.6.8 2.8 2.4 2.8 4.3 0 2.4-2 4.4-4.4 4.4-2.4 0-4.4-2-4.4-4.4 0-.3 0-.6.1-.9-.4.6-.7 1.4-.8 2.2-.4 2.3.2 5.2 2.3 7.1l.1.1c-.1-.1 0 0 0 0h.1l.2.2c.1.1.3.2.4.3l.9.6c.6.3 1.3.6 2 .7 1.4.3 2.9.2 4.4-.3 3-.9 5.8-3.4 6.8-6.5.4-1.5.6-3.2.2-4.9-.4-1.7-1.1-3.3-2.2-4.5-.5-.5-1.2-1.2-1.9-1.6-.7-.5-1.5-.9-2.4-1.2-1.7-.6-3.7-1-5.7-1.2-1.9-.1-3.8 0-5.5.6-.8.2-1.6.6-2.3 1.1-.7.4-1.3 1-1.8 1.6-.2.3-.5.6-.7 1l-.3.5c-.1.2-.1.3-.2.5l-.1.2c0 .1-.1.2-.1.4l-.3.8v.2l-.1.3c-.1.2-.1.4-.2.7-1.2 5.7.4 11.9 4.3 16.3 1.6 1.9 3.7 3.4 6.1 4.2 1.5.5 3 .7 4.5.9 11.8 1.5 23.1 4.8 34.7 7.4 9.7 2.2 20.9 4.7 30.3.3 8.6-4 13.6-13.1 20.6-19.6 4-3.7 8.9-6.6 14.2-7.9 2.7-.7 5.5-1 8.3-.8 2.6.1 5.5 1.6 8 .8 2.1-.6 3.4-2.9 3.6-5.1.2-2.2-.6-4.3-1.4-6.4-4.9-12.2-12.5-23-16.9-35.4-1.6-4.6-3-9.4-3.4-14.3-.4-5 .4-8.9 3.2-12.9 12-17.1 18.1-37.6 12.7-58.2-1.4-5.2-3.6-10.4-7.7-13.9-4.1-3.4-10.6-4.5-14.9-1.3-3.3 2.5-4.7 6.9-4.7 11.1 0 3.3.8 6.7 3 9.2 2.1 2.5 5.8 3.9 8.9 2.8 2.8-1 4.7-3.9 5-6.8.5-3.8-1.3-8.9-4.7-11.1-.7-.4-1.5-.7-2.2-.8h-1.2c-.3 0-.7.2-1 .3-.3.1-.5.3-.7.5.6-.3 1.2-.4 1.8-.4 2.4 0 4.4 2 4.4 4.4 0 2.4-2 4.4-4.4 4.4-1.1 0-2.2-.7-3-1.4-.8-.8-1.5-1.9-1.4-3.1 0-1.3.3-2.5.9-3.6.2-.4.4-.7.7-1.1.3-.3.7-.7 1.1-.9.4-.2.9-.4 1.4-.6.1 0 .2 0 .3-.1h.4c.3 0 .5 0 .8-.1 1.1 0 2.1.3 3.1.8s1.9 1.2 2.7 2.1c.8.8 1.5 1.8 2.1 2.8 3.5 5.9 2.4 15.1-4.4 18.2-4.4 2-9.9.5-13.3-2.9-3.4-3.4-5-8.4-5-13.2 0-4.1 1-8.2 3.3-11.5 2.9-4.2 7.6-6.5 12.6-6.6 3.4-.1 6.3 1.9 9.4 2.1-.8-4.3-3.1-8-3.4-12.6-.6-10.5 7.9-21.6 19.3-18.4 6.5 1.8 11.4 8.2 11.8 15 .2 4.1-1.2 8.4-4.5 10.8-3.4 2.4-8.3 2.3-11.8 0-3.3-2.1-5.6-6.3-3.9-10.2.6-1.4 1.7-2.6 3.2-3.1 1-.3 2-.3 3-.1.9.2 1.8.6 2.5 1.2.9.8 1.4 2 1.4 3.2 0 2.4-2 4.4-4.4 4.4-1.1 0-2.1-.4-2.9-1.1.7 1 1.8 1.8 2.9 2.4 1.9.9 4.2 1.2 6 .2 2.6-1.4 3.5-4.7 3.1-7.6-.4-3.1-2-6-4.4-7.9-3.1-2.4-7.6-2.8-10.9-.7-2.3 1.5-4 3.9-4.8 6.5-1.3 4.2-.7 8.9.3 13.1 1.1 4.5 2.5 8.4 5 12.2 2.2 3.2 3.7 6.8 4.8 10.6 2.2 7.6 2.6 15.7 1.9 23.5-.5 5.7-1.7 11.3-3.7 16.6-1 2.7-2.2 5.3-3.5 7.8-.7 1.2-2.9 6.6-4.1 7 .2 0 .3-.1.5-.2 7.3-1.9 15.8 1.2 20.6 6.9 5.6 6.7 5.9 17.5-1 23.4-3.8 3.2-9 3.8-13.3 1.2-2.9-1.7-5-4.6-6.1-7.7-1-2.6-1.3-5.6-.4-8.2.9-2.6 3.3-4.9 6.1-5.1 2.4-.2 4.8 1.2 6.2 3.2 1.2 1.8 2.2 4.7 1.4 6.9v-.2c-.7 2.2-2.7 3.7-5.1 3.7-3 0-5.4-2.4-5.4-5.4 0-3 2.4-5.4 5.4-5.4 1.2 0 2.3.4 3.2 1.1-1.3-1.7-3.7-2.8-5.8-2.3-2.1.5-3.6 2.6-3.9 4.7-.3 2.1.3 4.3 1.3 6.3 1.7 3.3 5.1 6.3 8.8 6 2.2-.1 4.3-1.4 5.7-3.2 2.5-3.1 3-7.5 1.7-11.1-1.3-3.7-4.3-6.7-7.8-8.4-4.7-2.3-10.9-2.2-14.6 1.4-2.6 2.5-3.7 6.4-3.6 10 .1 4.4 1.5 9.3 3 13.4 1 3 2.2 5.9 3.4 8.8 1.3 2.9 2.6 5.7 4 8.5 4.3 11 8.5 22.2 12.3 33.6zM290.6 478c-3.6-3.1-8.6-4.6-13.2-3.6-.3.1-.6.1-1 .3l-.9.3-.5.2h-.1c.1 0-.2.1-.2.1l-.2.1-.7.4c-1.3.8-2.2 1.7-3 2.7-1.6 2-2.4 4.4-2.5 6.7-.2 2.3.4 4.6 1.4 6.5 1 1.9 2.6 3.5 4.7 4.3h.1l.2.1h.2l.3.1c.2.1.5.1.8.1.1 0 .3 0 .4.1h1.2c1-.1 2-.4 2.8-.9 1.6-.9 2.9-2.1 3.8-3.5.5-.7.8-1.4 1.1-2.1l.1-.3.1-.3c.1-.2.1-.4.1-.6.1-.4.1-.8.2-1.1.1-1.5-.3-2.9-1-4.1-.8-1.2-2.1-2.1-3.6-2.1-1.8 0-3.5 1.2-3.9 3-.2.7-.1 1.3.2 1.8.4 1.3 1.6 2.3 3.1 2.3 1.8 0 3.3-1.5 3.3-3.3 0-.2 0-.5-.1-.7.4.8.5 1.8.3 2.9 0 .3-.1.6-.2.9 0 .1-.1.3-.1.4l-.1.2c0 .1-.1.2-.1.2-.3.5-.6 1.1-1.1 1.6-.8 1-1.9 1.9-3.2 2.4-.6.3-1.3.4-1.9.4h-.9c-.1 0-.2 0-.5-.1l-.3-.1-.2-.1c-.1 0 .1 0 0 0h-.1c-1.2-.5-2.2-1.7-2.8-3.1-.6-1.4-.9-3-.6-4.6.2-1.6.9-3.2 2-4.4.5-.6 1.3-1.1 1.8-1.4l.7-.3.2-.1s-.1.1 0 0h.1l.3-.1c.2-.1.4-.1.6-.2.2-.1.4-.1.6-.1 1.7-.3 3.5 0 5.3.7.9.3 1.7.8 2.4 1.4.2.1.3.2.5.4l.3.3.1.1s-.1-.1 0 0l.1.1c.3.3.7.7.9 1.1 1.2 1.5 1.9 3.3 1.9 5 0 1.7-.6 3.6-1.8 5.2-.1.2-.3.4-.5.6-.2.2-.3.4-.5.5l-.1.1-.2.2-.2.2-.1.1c-.1.1 0 0 0 0l-.6.6c-.4.4-.9.7-1.3 1l-.7.5c-.2.2-.5.3-.7.4-.9.6-1.9 1-2.9 1.3-1 .3-2.1.5-3.2.6-2.2.2-4.6 0-6.9-.6-13.9-3.2-24.9-13.4-39.8-13.6-.3 0-.5-.1-.6-.3.6-.4 1.3-.9 1.9-1.5l.6-.5.5-.6c.3-.4.7-.8 1.1-1.2l.1-.1.1-.1.1-.1.2-.3c.1-.2.3-.4.4-.6.6-1 1.2-1.9 1.6-2.9 1-2 1.6-4.2 1.9-6.5.2-1.2.2-2.3.2-3.5 0-1.2-.1-2.4-.3-3.6 0-.3-.1-.6-.2-.9l-.1-.4v-.2l-.1-.3-.2-.8c0-.1-.1-.2-.1-.4l-.2-.5c-.1-.3-.3-.7-.4-1-.2-.3-.3-.6-.5-.9-.3-.6-.7-1.1-1.1-1.7-.9-1.1-1.9-2-3.1-2.8-1.2-.7-2.4-1.4-3.7-1.8l-.5-.2-.5-.1c-.3-.1-.6-.2-1-.2-.6-.1-1.3-.2-1.9-.3-1.3-.2-2.5-.1-3.8-.1-1.3.1-2.4.3-3.7.5-1.2.2-2.4.6-3.6 1-1.2.5-2.4 1-3.5 1.8s-2.1 1.6-3 2.7c-.9 1-1.6 2.2-2.1 3.4-2.6 5.9-1.2 13.1 3.9 17.3 1.8 1.5 4 2.5 6.2 3s4.5.4 6.5-.2c1-.3 2-.8 2.8-1.4l1.2-.9c.2-.2.4-.3.5-.5l.3-.3.2-.2.1-.1.4-.5c.1-.2.3-.4.4-.6.2-.2.3-.4.4-.6l.3-.6c.4-.9.6-1.7.8-2.6.3-1.7.1-3.4-.4-4.9-.7-2.2-2.3-4.1-4.4-4.9-1.4-.6-3.1-.7-4.5-.1-1.6.8-2.8 2.4-2.8 4.3 0 2.4 2 4.4 4.4 4.4 2.4 0 4.4-2 4.4-4.4 0-.3 0-.6-.1-.9.4.6.7 1.4.8 2.2.4 2.3-.2 5.2-2.3 7.1l-.1.1c.1-.1 0 0 0 0h-.1l-.2.2c-.1.1-.3.2-.4.3l-.9.6c-.6.3-1.3.6-2 .7-1.4.3-2.9.2-4.4-.3-3-.9-5.8-3.4-6.8-6.5-.4-1.5-.6-3.2-.2-4.9.4-1.7 1.1-3.3 2.2-4.5.5-.5 1.2-1.2 1.9-1.6.7-.5 1.5-.9 2.4-1.2 1.7-.6 3.7-1 5.7-1.2 1.9-.1 3.8 0 5.5.6.8.2 1.6.6 2.3 1.1.7.4 1.3 1 1.8 1.6.2.3.5.6.7 1l.3.5c.1.2.1.3.2.5l.1.2c0 .1.1.2.1.4l.3.8v.2l.1.3c.1.2.1.4.2.7 1.2 5.7-.4 11.9-4.3 16.3-1.6 1.9-3.7 3.4-6.1 4.2-1.5.5-3 .7-4.5.9-11.8 1.5-23.1 4.8-34.7 7.4-9.7 2.2-20.9 4.7-30.3.3-8.6-4-13.6-13.1-20.6-19.6-4-3.7-8.9-6.6-14.2-7.9-2.7-.7-5.5-1-8.3-.8-2.6.1-5.5 1.6-8 .8-2.1-.6-3.4-2.9-3.6-5.1-.2-2.2.6-4.3 1.4-6.4 4.9-12.2 12.5-23 16.9-35.4 1.6-4.6 3-9.4 3.4-14.3.4-5-.4-8.9-3.2-12.9-12-17.1-18.1-37.6-12.7-58.2 1.4-5.2 3.6-10.4 7.7-13.9 4.1-3.4 10.6-4.5 14.9-1.3 3.3 2.5 4.7 6.9 4.7 11.1 0 3.3-.8 6.7-3 9.2-2.1 2.5-5.8 3.9-8.9 2.8-2.8-1-4.7-3.9-5-6.8-.5-3.8 1.3-8.9 4.7-11.1.7-.4 1.5-.7 2.2-.8h1.2c.3 0 .7.2 1 .3.3.1.5.3.7.5-.6-.3-1.2-.4-1.8-.4-2.4 0-4.4 2-4.4 4.4 0 2.4 2 4.4 4.4 4.4 1.1 0 2.2-.7 3-1.4.8-.8 1.5-1.9 1.4-3.1 0-1.3-.3-2.5-.9-3.6-.2-.4-.4-.7-.7-1.1-.3-.3-.7-.7-1.1-.9-.4-.2-.9-.4-1.4-.6-.1 0-.2 0-.3-.1h-.4c-.3 0-.5 0-.8-.1-1.1 0-2.1.3-3.1.8s-1.9 1.2-2.7 2.1c-.8.8-1.5 1.8-2.1 2.8-3.5 5.9-2.4 15.1 4.4 18.2 4.4 2 9.9.5 13.3-2.9 3.4-3.4 5-8.4 5-13.2 0-4.1-1-8.2-3.3-11.5-2.9-4.2-7.6-6.5-12.6-6.6-3.4-.1-6.3 1.9-9.4 2.1.8-4.3 3.1-8 3.4-12.6.6-10.5-7.9-21.6-19.3-18.4-6.5 1.8-11.4 8.2-11.8 15-.2 4.1 1.2 8.4 4.5 10.8 3.4 2.4 8.3 2.3 11.8 0 3.3-2.1 5.6-6.3 3.9-10.2-.6-1.4-1.7-2.6-3.2-3.1-1-.3-2-.3-3-.1-.9.2-1.8.6-2.5 1.2-.9.8-1.4 2-1.4 3.2 0 2.4 2 4.4 4.4 4.4 1.1 0 2.1-.4 2.9-1.1-.7 1-1.8 1.8-2.9 2.4-1.9.9-4.2 1.2-6 .2-2.6-1.4-3.5-4.7-3.1-7.6.4-3.1 2-6 4.4-7.9 3.1-2.4 7.6-2.8 10.9-.7 2.3 1.5 4 3.9 4.8 6.5 1.3 4.2.7 8.9-.3 13.1-1.1 4.5-2.5 8.4-5 12.2-2.2 3.2-3.7 6.8-4.8 10.6-2.2 7.6-2.6 15.7-1.9 23.5.5 5.7 1.7 11.3 3.7 16.6 1 2.7 2.2 5.3 3.5 7.8.7 1.2 2.9 6.6 4.1 7-.2 0-.3-.1-.5-.2-7.3-1.9-15.8 1.2-20.6 6.9-5.6 6.7-5.9 17.5 1 23.4 3.8 3.2 9 3.8 13.3 1.2 2.9-1.7 5-4.6 6.1-7.7 1-2.6 1.3-5.6.4-8.2-.9-2.6-3.3-4.9-6.1-5.1-2.4-.2-4.8 1.2-6.2 3.2-1.2 1.8-2.2 4.7-1.4 6.9v-.2c.7 2.2 2.7 3.7 5.1 3.7 3 0 5.4-2.4 5.4-5.4s-2.4-5.4-5.4-5.4c-1.2 0-2.3.4-3.2 1.1 1.3-1.7 3.7-2.8 5.8-2.3 2.1.5 3.6 2.6 3.9 4.7.3 2.1-.3 4.3-1.3 6.3-1.7 3.3-5.1 6.3-8.8 6-2.2-.1-4.3-1.4-5.7-3.2-2.5-3.1-3-7.5-1.7-11.1 1.3-3.7 4.3-6.7 7.8-8.4 4.7-2.3 10.9-2.2 14.6 1.4 2.6 2.5 3.7 6.4 3.6 10-.1 4.4-1.5 9.3-3 13.4-1 3-2.2 5.9-3.4 8.8-1.3 2.9-2.6 5.7-4 8.5-5.2 10.8-9.5 22.1-13.3 33.5-2.7 8.2-7.7 18.2-5 26.9 1.7 5.4 5.7 10.3 11.3 11.6 5.6 1.3 11.7.4 16.5-2.8 3.1-2 5.7-4.9 6.8-8.5 1.6-5.3-1.2-11.8-6.8-13.3-1.4-.4-2.8-.5-4.1-.2-3.3.8-6 4.2-6 7.7 0 3.4 2.7 6.1 6.1 6.1 3.4 0 6.1-2.7 6.1-6.1 0-3.4-2.7-6.1-6.1-6.1-.4 0-.7 0-1 .1l1.2-.3c1-.2 2.2 0 3.3.4 4.8 1.9 6.2 8.1 3.7 12.3-2.1 3.6-6.2 5.7-10.4 6.4-3.6.7-7.5.5-10.5-1.5-2.6-1.7-4.2-4.6-4.8-7.7-1.3-6.7 2.3-13.7 8.1-17.4 9.7-6.1 21.2-3 28.7 4.8 4.4 4.6 7.8 10 12.4 14.3 7.1 6.7 16.4 9.8 26.1 9.7 2 0 4-.2 5.9-.4 2.8-.3 7.8 2.4 9.9 4.2 2.5 2.2 4.3 5.4 4.6 8.7.4 4.2-1.6 8.7-5.3 10.8-4.8 2.8-12 1-13.1-4.9-.5-2.3.5-4.8 2.1-6.3.4-.4.8-.7 1.3-1 .4-.3.9-.5 1.4-.6.4-.1.9-.2 1.4-.2.5 0 .9.1 1.4.2h-.6c-2.4 0-4.4 2-4.4 4.4 0 2.4 2 4.4 4.4 4.4 1.2 0 2.4-.5 3.3-1.5 1.5-1.7 1.7-4.8.8-6.9-.5-1.1-1.5-2-2.7-2.5-1.2-.6-2.6-.9-4.1-.7-.8.1-1.5.3-2.2.6-.7.3-1.4.7-2.1 1.2-1.3 1-2.4 2.3-3.2 3.9-.4.8-.7 1.7-.9 2.6-.1.4-.1 1-.2 1.5v1.5c.2 2 .9 3.9 2 5.5.6.8 1.2 1.6 2 2.3.4.3.8.7 1.2 1 .2.2.4.3.7.4.2.1.5.3.7.4 6 3.2 13.7 1 18-4 3.4-4 4.7-9.7 3.5-14.8-1.2-5.1-4.9-9.6-9.6-12 12.5-2.7 24.8-6.9 37.6-8.3 5.6-.6 11.2-.6 16.5.4 7.2 1.6 13.4 5.1 20.2 7.9 5.7 2.3 11.7 4.2 17.8 4.1 6.1-.1 12.4-2.2 16.5-6.7 1.8-2 3-4.4 3.6-6.9 1.1-4.4.2-9.2-2.9-12.8.5-.5 0-1-.5-1.4zM101.7 319.1c-.7-2.9-1.3-5.9-1.8-8.9-1.6.7-3.3 1.2-5 1.3-2.4.1-4.4-.3-6.2-1.2 1.6 9.1 3.8 17.9 6.5 26.6l.3-1.8c1-5.8 3.6-10.9 6.2-16zm397.2-45.7c0 1.8 0 3.6-.1 5.4 4.2.8 8 3.2 10.7 6.5.2-3.9.3-7.9.3-11.8 0-117-95.2-212.2-212.2-212.2-117 0-212.2 95.2-212.2 212.2 0 4 .1 7.9.3 11.8 2.8-3.3 6.6-5.6 10.7-6.4 0-1.8-.1-3.6-.1-5.4 0-110.9 90.3-201.2 201.2-201.2 111.1-.1 201.4 90.2 201.4 201.1zM486.5 370c2.8-8 4.2-16.4 3.8-24.9-.2-3.1-.6-6.4-1.3-9.6-16.7 51.3-53.3 93.5-100.7 117.5.7.6 1.3 1.2 1.9 1.9 1.9 2.3 3.1 5 3.5 7.6 9-4.6 17.7-9.8 25.9-15.6-1.1 3.1-1.9 6.3-1.9 9.6-.2 9.3 5.8 17.7 14.8 20.1 4.5 1.2 9.2.9 13.7-.3 8-2.2 15.1-7.8 19.2-15 2.4-4.3 3.8-9.2 3-14.1-.8-4.8-4.3-9.3-9-10.5-7.6-2-16.9 4.7-19.4 11.7-1.1 3.1-.8 6.9 1.3 9.5 3.7 4.4 11.4 2.6 12.1-3.3.4-3.6-2.1-6.9-5.7-7.3-.6-.1-1.2-.1-1.8 0 .9-.8 1.8-1.5 2.8-2.2 1.5-1 3.1-2 4.9-2.4 1.8-.4 3.8-.2 5.2.9 2 1.5 2.4 4.4 2 6.8-.9 6.5-5.9 11.7-11.6 14.8-3.5 1.9-7.4 3.2-11.4 3-4-.2-8-2.1-10.1-5.6-5.1-8.4 1.8-20.1 6.6-27.3 21.4-17.7 39.3-40 52.2-65.3zM273.6 473.2c-11.1-1.3-22-3.6-32.4-6.6 0 3.7-.8 7.4-2.3 10.8 8.8 2.6 17.9 4.5 27.2 5.9.8-4.4 3.6-8.1 7.5-10.1zM207 453c-47.3-24-84-66.2-100.7-117.3-1.5 6.4-1.8 13.1-1.1 19.6.5 4.9 1.7 9.8 3.4 14.5 13 25.3 30.9 47.7 52.4 65.9 4.7 7.2 11.7 18.8 6.6 27.3-2.1 3.4-6.1 5.3-10 5.6-4 .2-7.9-1.1-11.4-3-5.7-3.1-10.7-8.4-11.6-14.8-.3-2.5.1-5.3 2-6.8 1.4-1.1 3.4-1.3 5.2-.9 1.8.4 3.4 1.4 4.9 2.4 1 .7 1.9 1.4 2.8 2.2-.6-.1-1.2-.1-1.8 0-3.6.4-6.2 3.7-5.7 7.3.7 5.9 8.4 7.6 12.1 3.3 2.1-2.6 2.4-6.3 1.3-9.5-2.5-7.1-11.7-13.7-19.4-11.7-4.7 1.2-8.2 5.7-9 10.5-.8 4.8.6 9.8 3 14.1 4.1 7.3 11.2 12.8 19.2 15 4.4 1.2 9.2 1.5 13.7.3 9-2.4 15-10.9 14.8-20.1-.1-3.3-.8-6.5-1.9-9.6 8.2 5.8 16.9 11 25.9 15.6.6-3.8 2.3-7.3 5.3-9.9zm289.4-142.3c-.3-.1-.6-.3-1-.4-.6 3-1.2 5.9-1.8 8.9 2.5 5.1 5.2 10.1 6.2 16l.3 1.8c2.7-8.7 4.9-17.6 6.5-26.7-2.8 1.5-6.3 1.8-10.2.4zM329.2 483.3c9.3-1.4 18.4-3.4 27.3-6-1.6-3.4-2.4-7.1-2.4-10.8-10.4 3.1-21.2 5.3-32.3 6.6 4 2.1 6.6 5.9 7.4 10.2z"/></svg>