<svg xmlns="http://www.w3.org/2000/svg" viewBox="0 0 595.3 595.3"><path d="M262.8 444.9c-11.8-3.3-50.6-6.2-81.5 41.5-7.3 11.2-14.7 21.2-22.3 29.8-2.2-2.8-5.7-5.7-7.5-6.8 1.8 1.2 4.9 1.8 4.7-.6-.2-3.2-7-9.1-15.9-16.8-15-11.8-22.9-24.6-27.1-35.2 10.6 16.2 23.5 21.5 23.6 15.4.6-7-7-16.4-10.5-19.1 3.1.3 2.5-4.3 1.2-7.8-1.7-4.6-4.2-9.4-11.9-13.9-13.5-6.8-16.8-14.3-20.4-19.5-3.6-5.4-1.8-8.1.8-3.3 10.5 14.9 15 13.8 16.9 12.1 2-1.8.6-9.4-2.8-13.9 5.5 1 7.9-1.6 6.6-9.8-2-10.4-7.4-14.5-14.4-14 2.5-5.4-1.9-14.5-8.3-14-9.5.6-10.8-3-14.4-7-3.6-4.1-4.3-9.7-1.4-5.9 6.8 8.5 12.3 6.7 12.4 1 .2-5.8-1.3-10.1-5.3-14.7 3.6-3.1 2-14.3-4.3-13.5-4.1-.5-7.1-2.4-9.1-4.8-.1-1.3-.2-2.5-.2-3.8.2.1.3.3.5.4 3.2 2.8 7.2-2.3 6.8-7.2-.4-5.5-5-8-7.8-11.6 0-3.7 0-7.2.1-10.7 4.1 2 7.9.3 6.2-9.5-.7-4.4-3.3-6.8-4.9-10.3 0-.1-.1-.2-.1-.3 1.1-12.4 2.7-23.3 4.3-32.2.3-.8.6-1.9.8-3.6 0-.4.1-.8.1-1.1 1.6-8.7 3-15.1 3.6-18.8 5.2-28.7.5-38.1 2.8-57.8 3-22.4 28.2-40 45-37.4 17.1 1.3 18.5-8.8 19.7-16.2 8.1 1.2 14.6-4 17.8-12 3.2-7.9-2.8-14.6-15.9-14.1-12.9.6-30.6 6.9-48 29.5 8.4-22.2 43.4-42.6 66.3-34 11.1 5.9 16.2 15.3 23.2 9 5-4.7 2.5-8.5 1.2-11s.3-3.2 4.5.1c4.2 3.3 10.5 6.2 18.3-3.1 6-6.8 2.8-27.4-30.8-22.2-9.5 1.2-5.2-2.4 3.7-4.2 9.6-2.4 42.2-2 33 27.1-1.5 8-5.5 7.9-8.7 13.9-3.2 6-1.7 13.6 5.8 11.7-6.8 7.7-4.2 15.5 1.3 16.6 6 .9 19.7-3.8 26.6-32.1.7-3.7 3-12.8 4-.9.4 11.8 16.8-22.6-9-38.5-11.2-6.3-29.9-11.2-56.4-4.1-25.9 7.1-59.6 26-88.2 67.7-.2 3.4-16.6 24-29.8 61.3-13.7 36.4-23.9 89.9-19 146.2 4.4 56.2 23.9 115.2 56.1 161.4 13.5 20.2 29.5 37.9 45.8 52.8-22 22.1-44.6 32.8-66.1 30.7 19.6 8.2 35.7-.1 35.7-.1-1.5 4.6-9.3 11.9-14.3 14.7 6.5 1.2 15.9-3.2 18.9-8.5 7.6-12.3 20.2 1.5 8.6 6.5 0 0 5.2 4.2 12.3.3 9.5-5.3 17-30 18.7-34.6-1.1 16.3 5.3 32.6 16.9 34 15.1 1.8 16.3-16.3 10.2-19-6.1-2.6-8 2.7-8 2.7 6.2-.1 2.7 10.9-5.4 4.6-8.1-6.3-7.1-13.1-7.1-13.1 8.9 5.6 13.6-3.3 13.1-7-.6-3.7-3.5-3.5-3.5-3.5 2.5 1.7-1.2 6.8-4.4 4.3-3.3-2.4-4.6-9.8 2.7-29.6 2.6-6.9 5.8-13.4 9-18.9-5.9 31.2 5.7 57.5 14.9 60.6 12.4 4.1 15.8-3.4 16.8-6.6 0 0-3.6 6.1-9.9.2-6.3-5.9 5.8-12.1 6.7-3.9 0 0 9.5-4.9 4.9-12-7.4-11.3-42.8-7.3-7.2-58.9-1 1.9-1 4.3-1.2 6.4-.4 3.2-1.2 6.2-1.8 9.4-1.3 7-1.9 14.6 1.5 21.1 4.1 7.7 12.8 11.8 17.7 18.9 3.1 4.5 4.6 10.3 3.5 15.7-1.1 5.4-4.9 10.2-10 12.2 6.4 1.5 13.6-.8 17.9-5.7 3.1-3.5 4.7-8.3 4.5-12.9-.2-4.3-4.2-8.9-2.4-13 1.5-3.3 7.4-.6 5.9 2.7-1.5 3.4-3.4 2.5-3.4 2.5s2.6 5.2 8.8-.2c5.9-5.1-12.9-34.6-12.9-34.6 7.4 1 16.3-12.2 10.6-18.3-5.7-6.1-11.1-.7-11.1-.7 8.1 2.1.8 12.1-3.9 5.6-4.7-6.4 4-15 14.2-19.1 20.6-8.1 31.7 18.7 32.6 21.1.8 6.5-.6 12.6-6.5 18-.6.5-1.1 1-1.5 1.4-2.9 2.1-6.6 3.4-9.8 2-7.5-3.3-2.4-11 2.3-9 3.5 1.5 3.2 4.5 3.2 4.5s5.2-3.1 3.6-8.6c-.5-1.5-1.9-4-4.3-5.1h-.1c-6.5-2.8-14.2 1.2-17 7.7 0 0-4.2 7.3 1.4 14.3 5.6 7 13.9 7.5 22.4 1.5 3.5-2.4 3.8-3.3 4.6-4.2 3.7-4.3 5.5-7.7 7.9-16.5 4.8-17.4-8.8-35.4-28-40.2zM214.6 467c.1-.1.1-.1.1-.2l.2-.2c0 .2-.1.3-.3.4zm275.8 5.3c32.2-46.2 51.8-105.2 56.1-161.4 5-56.3-5.3-109.7-18.8-146.5-13.2-37.3-29.6-57.8-29.8-61.3-28.6-41.7-62.3-60.6-88.2-67.7-26.5-7-45.2-2.2-56.4 4.1-25.8 15.9-9.4 50.3-9 38.5 1-11.8 3.3-2.7 4 .9 6.9 28.3 20.6 33 26.6 32.1 5.5-1.1 8.1-8.9 1.3-16.6 7.5 1.9 9-5.7 5.8-11.7-3.2-6-7.3-5.9-8.7-13.9-9.2-29.1 23.4-29.5 33-27.1 9 1.7 13.2 5.4 3.7 4.2-33.6-5.2-36.8 15.4-30.8 22.2 7.8 9.3 14 6.4 18.3 3.1 4.2-3.3 5.9-2.6 4.5-.1-1.3 2.6-3.8 6.4 1.2 11 7.1 6.3 12.2-3.1 23.2-9 22.9-8.6 57.8 11.8 66.3 34-17.4-22.6-35.1-28.9-48-29.5-13.1-.5-19 6.2-15.9 14.1 3.2 8 9.6 13.2 17.8 12 1.2 7.4 2.6 17.5 19.7 16.2 16.8-2.6 42.1 15 45 37.4 2.3 19.8-2.4 29.2 2.8 57.8.6 3.8 2 10.2 3.6 18.8 0 .4 0 .7.1 1.1.2 1.7.4 2.8.8 3.6 1.6 8.9 3.2 19.7 4.3 32.2 0 .1-.1.2-.1.3-1.6 3.5-4.2 5.9-4.9 10.3-1.7 9.8 2.1 11.6 6.2 9.5.1 3.5.1 7.1.1 10.7-2.8 3.6-7.5 6-7.8 11.6-.3 4.9 3.6 9.9 6.8 7.2.2-.1.3-.3.5-.4-.1 1.3-.2 2.5-.2 3.8-2 2.4-5 4.4-9.1 4.8-6.3-.8-7.9 10.4-4.3 13.5-4 4.6-5.5 8.9-5.3 14.7.1 5.7 5.6 7.5 12.4-1 2.9-3.8 2.2 1.8-1.4 5.9-3.6 4.1-4.9 7.6-14.4 7-6.4-.5-10.8 8.6-8.3 14-7-.5-12.4 3.6-14.4 14-1.3 8.2 1.1 10.8 6.6 9.8-3.4 4.5-4.8 12.1-2.8 13.9 2 1.6 6.4 2.8 16.9-12.1 2.6-4.8 4.5-2.1.8 3.3-3.6 5.2-6.9 12.7-20.4 19.5-7.7 4.6-10.2 9.4-11.9 13.9-1.3 3.5-1.9 8 1.2 7.8-3.5 2.7-11.1 12.1-10.5 19.1.1 6.1 13 .8 23.6-15.4-4.2 10.6-12.1 23.4-27.1 35.2-8.9 7.7-15.8 13.6-15.9 16.8-.3 2.5 2.8 1.8 4.7.6-1.7 1.1-5.3 4.1-7.5 6.8-7.6-8.6-15-18.6-22.3-29.8-30.9-47.7-69.7-44.9-81.6-41.6h.1c-19.2 4.8-32.9 22.8-28.1 40.4 2.4 8.8 4.2 12.2 7.9 16.5.8.9 1.2 1.8 4.6 4.2 8.6 6 16.8 5.5 22.4-1.5 5.6-7 1.4-14.3 1.4-14.3-2.8-6.5-10.5-10.5-17-7.7h-.1c-2.3 1.2-3.8 3.6-4.3 5.1-1.6 5.4 3.6 8.6 3.6 8.6s-.3-3 3.2-4.5c4.7-2 9.9 5.7 2.3 9-3.2 1.4-6.9.1-9.8-2-.4-.4-.9-.9-1.5-1.4-6-5.4-7.4-11.5-6.5-18 .9-2.4 12-29.2 32.6-21.1 10.3 4 18.9 12.6 14.2 19.1-4.7 6.4-12-3.6-3.9-5.6 0 0-5.4-5.4-11.1.7-5.7 6.1 3.2 19.3 10.6 18.3 0 0-18.7 29.5-12.9 34.6 6.2 5.4 8.8.2 8.8.2s-1.9.8-3.4-2.5c-1.5-3.4 4.5-6.1 5.9-2.7 1.8 4.2-2.2 8.7-2.4 13-.2 4.7 1.4 9.4 4.5 12.9 4.4 4.9 11.5 7.2 17.9 5.7-5.1-2-8.9-6.8-10-12.2-1.1-5.4.3-11.1 3.5-15.7 4.9-7.1 13.6-11.3 17.7-18.9 3.5-6.5 2.9-14.1 1.5-21.1-.6-3.1-1.4-6.2-1.8-9.4-.2-2-.2-4.5-1.2-6.4 35.6 51.6.1 47.6-7.2 58.9-4.6 7 4.9 12 4.9 12 .9-8.2 13-1.9 6.7 3.9-6.3 5.9-9.9-.2-9.9-.2 1 3.3 4.4 10.7 16.8 6.6 9.2-3.1 20.8-29.4 14.9-60.6 3.2 5.5 6.4 12 9 18.9 7.3 19.8 6 27.2 2.7 29.6-3.3 2.4-6.9-2.6-4.4-4.3 0 0-3-.3-3.5 3.5-.6 3.7 4.1 12.6 13.1 7 0 0 1 6.7-7.1 13.1-8.1 6.3-11.6-4.7-5.4-4.6 0 0-1.9-5.4-8-2.7-6.1 2.6-4.8 20.8 10.2 19 11.6-1.4 18.1-17.7 16.9-34 1.7 4.6 9.2 29.4 18.7 34.6 7.1 3.9 12.3-.3 12.3-.3-11.6-4.9 1-18.7 8.6-6.5 3 5.4 12.4 9.8 18.9 8.5-5.1-2.7-12.9-10-14.3-14.7 0 0 16 8.3 35.7.1-21.5 2.1-44.1-8.7-66.1-30.7 16.2-14.7 32.2-32.4 45.7-52.6zm-110.1-5.7c.1.1.2.1.2.2.1.1.1.1.1.2-.1-.1-.2-.2-.3-.4zM339.7 78.2s0 .1 0 0c-.2-.3-.1-.1 0 0zm46.4 2.1c18.1 10.7 34.9 24.8 49.6 42 36.4 42.5 56.5 98.9 56.5 158.8 0 59.9-20.1 116.3-56.5 158.8-9.1 10.7-19 20.1-29.6 28.3-4.2-4.7-8.8-9.2-13.9-13.1 48.8-36.8 81.2-101 81.2-174.1 0-76.7-35.7-143.7-88.7-179.4-.2-1.4-.6-2.8-1.2-4.1 5.1-3.1 6-10.8 2.6-17.2zm-77.8 424c.5.6 1 1.2 1.5 1.7-4 .3-8.1.4-12.2.4s-8.1-.2-12.1-.4c4.6-4.9 8-11.4 9.7-18.3h4.9c1.5 6.1 4.4 11.9 8.2 16.6zM121.8 281.2c0 73 32.4 137.3 81.2 174.1-5 3.9-9.7 8.3-13.9 13.1-10.5-8.2-20.4-17.7-29.6-28.3-36.4-42.5-56.5-98.9-56.5-158.8 0-59.9 20.1-116.3 56.5-158.8 14.8-17.2 31.5-31.3 49.6-42-3.4 6.4-2.5 14.1 2.4 17.3-.6 1.3-1 2.7-1.2 4.1-52.8 35.6-88.5 102.6-88.5 179.3zM266.7 58.4c.2-.1-10.2-19.1-10.4-22.2 0-3-.5-7.4 15.3-8.9 5.2-.3 6.5 8.5 6.5 8.4.1 0 4.4 13.3 7.8 20.6.4 0 .7-.1 1.1-.1-2.5-8.9-8.7-30.4-2.1-31.3 8.5-.9 12.5 1.1 12.8 4.1.3-3 4.4-5 12.8-4.1 6.6.9.3 22.4-2.1 31.3.4 0 .7 0 1.1.1 3.4-7.3 7.7-20.6 7.8-20.6 0 0 1.3-8.7 6.5-8.4 15.8 1.5 15.3 6 15.3 8.9-.2 3.1-10.6 22-10.4 22.2 0 0 .2.1.5.4 1.8.3 3.7.7 5.5 1.1-1.1 6-.6 12.3 1.7 18.4l.6 1.5c-12.7-3.4-25.8-5.2-39.4-5.2-13.5 0-26.7 1.8-39.3 5.2 2.9-5.9 3.2-13.5 2.3-19.8 1.8-.4 3.7-.8 5.6-1.1.3-.4.5-.5.5-.5z"/></svg>