<svg xmlns="http://www.w3.org/2000/svg" viewBox="0 0 595.3 595.3"><path d="M501.7 227.4c1.3.4 2.6 1 3.7 1.7 1.2.7 2.2 1.5 3.1 2.4 1.8 1.7 3.1 3.5 3.9 4.9.4.7.7 1.3 1 1.7.2.4.4.7.5.7 0 0-.1-.2-.2-.6-.1-.2-.1-.5-.2-.8-.1-.2-.1-.3-.2-.5s-.1-.4-.2-.6c-.3-.8-.7-1.7-1.4-2.8-.6-1.1-1.4-2.2-2.5-3.4-1.1-1.2-2.5-2.4-4.1-3.4-.8-.5-1.7-1-2.7-1.4-1-.4-2-.7-3-1-1.1-.2-2.2-.4-3.4-.5-1.2-.1-2.4-.1-3.6.1-1.2.1-2.5.4-3.8.8-1.3.4-2.5 1-3.7 1.6-4.7 2.7-8.4 7.2-10.4 12.7-1 2.7-1.5 5.5-1.7 8.4-.2 2.9 0 5.7.5 8.5s1.2 5.6 2.1 8.2c.6 1.6 1.2 3.3 1.9 4.8h-.9c-1.1 0-2.1.1-3.1.4-1.8.4-3.4 1.2-5 2.2-.5-1.2-.8-2.5-1.1-3.9-.6-3-.9-6.2-.9-9.4.1-3.3.6-6.5 1.4-10 1.6-6.8 4.6-13.7 8-20.6 1.7-3.5 3.6-7 5.4-10.6 1.9-3.6 3.7-7.3 5.4-11 1.7-3.8 3.3-7.7 4.7-11.7 1.4-4 2.4-8.1 3.1-12.3.7-4.2 1-8.5.7-12.8-.2-4.3-1-8.6-2.5-12.6-2.9-8.2-8.5-15-15.6-19-1.8-1-3.6-1.8-5.5-2.4-1.9-.6-3.8-1-5.7-1.2-1.9-.2-3.7-.2-5.4-.1-1.8.1-3.4.4-5.1.8-1.6.4-3.1.9-4.6 1.5-1.4.6-2.8 1.3-4 2.1-2.5 1.5-4.6 3.3-6.2 5.1-1.6 1.8-2.8 3.5-3.8 5.1-.9 1.6-1.6 3-2 4.2-.1.3-.2.6-.3.8-.1.3-.2.5-.2.7-.1.5-.3.8-.4 1.2-.2.6-.3 1-.3 1 .2 0 .4-.4.8-1.1.4-.6.8-1.5 1.5-2.6 1.2-2.1 3.1-4.8 5.8-7.4 1.4-1.3 2.9-2.5 4.7-3.6 1.7-1.1 3.7-1.9 5.6-2.5 3.9-1.3 8.1-1.6 11.9-1-3.3.2-6.2 1.1-8.7 2.3-1.3.6-2.4 1.3-3.4 2.1s-1.9 1.6-2.7 2.5c-1.6 1.7-2.7 3.6-3.4 5.3-.7 1.8-1.1 3.4-1.2 4.9-.3 3 .4 5.2 1.3 6.5.2.3.5.6.7.8.3.2.5.4.8.6.5.3 1 .4 1.6.4-.2-.8-.4-1.7-.4-2.6-.1-.9 0-1.9.1-2.8.1-1 .4-1.9.7-2.9.4-1 .8-1.9 1.3-2.8.6-.9 1.2-1.8 1.9-2.6s1.6-1.5 2.5-2.2c1.9-1.3 4.1-2.2 6.6-2.7 2.4-.5 5-.5 7.5.1 1.3.3 2.5.7 3.8 1.3 1.2.6 2.4 1.2 3.6 2 1.1.8 2.2 1.7 3.2 2.7 1 1 1.9 2.1 2.8 3.2.9 1.2 1.6 2.4 2.3 3.7.7 1.3 1.3 2.6 1.8 4 2 5.6 2.6 11.6 2.2 17.6-.4 5.9-1.7 11.7-3.4 17.2s-3.9 10.7-6.1 15.7c-2.2 5-4.4 9.7-6.4 14.3-1 2.3-1.9 4.5-2.8 6.7-.8 2.2-1.6 4.4-2.3 6.5-.3 1.1-.6 2.1-.9 3.1-.3 1-.5 2.1-.8 3.1-.5 2-.8 4-1 5.9-.4 3.7-.5 7.3-.1 10.5s1 6.1 1.9 8.5c.1.4.3.8.4 1.1-1.6 1.3-3 2.9-4 4.6-.1.1-.2.3-.3.6-.1.1-.1.3-.2.4-.1.2-.1.3-.2.5s-.1.3-.2.5c0 .1-.1.3-.1.4-.1.2-.1.4-.1.4s0-.1.1-.3c.1-.2.2-.5.4-1 .4-.8 1-2 2.1-3.4.6-.8 1.5-1.7 2.5-2.5.8 1.8 1.6 3.4 2.4 4.7.3.4.5.8.8 1.1.3.4.5.7.8 1 .1.2.3.3.4.5l.4.4c.3.3.5.5.7.8.2.3.5.4.7.6.2.2.4.4.6.5.4.3.7.6 1 .8.3.2.5.4.6.5l.2.2c1.3.9 2.8 1.7 4.3 2.3 1.5.6 3.1 1.1 4.7 1.4.4.1.9.2 1.3.2 1.7 3.4 3.1 6.8 4.1 10.2-1 3.4-2.5 6.7-4.1 10.2-.4.1-.9.1-1.3.2-1.6.3-3.2.8-4.7 1.4-1.5.6-2.9 1.4-4.3 2.3l-.2.2c-.1.1-.4.2-.6.5-.3.2-.6.5-1 .8-.2.2-.4.4-.6.5-.2.2-.4.4-.7.6-.2.2-.5.5-.7.8l-.4.4c-.1.2-.2.3-.4.5-.3.3-.5.6-.8 1-.3.4-.5.8-.8 1.1-.8 1.3-1.7 2.9-2.5 4.7-1-.8-1.9-1.7-2.5-2.5-1.1-1.4-1.7-2.6-2.1-3.4-.2-.4-.3-.7-.4-1-.1-.2-.1-.3-.1-.3s0 .2.1.4c0 .1.1.3.1.4 0 .1.1.3.2.5s.1.3.2.5.1.3.2.4c.1.3.2.5.3.6 1 1.8 2.4 3.4 4 4.6-.2.4-.3.7-.4 1.1-.9 2.4-1.6 5.3-1.9 8.5-.4 3.2-.3 6.8.1 10.5.2 1.9.6 3.9 1 5.9.2 1 .5 2 .8 3.1.3 1 .6 2.1.9 3.1.7 2.1 1.4 4.3 2.3 6.5.8 2.2 1.8 4.4 2.8 6.7 2 4.6 4.2 9.3 6.4 14.3s4.3 10.2 6.1 15.7c1.7 5.5 3 11.3 3.4 17.2.4 5.9-.2 12-2.2 17.6-.5 1.4-1.1 2.7-1.8 4-.7 1.3-1.5 2.5-2.3 3.7-.9 1.2-1.8 2.2-2.8 3.2-1 1-2.1 1.9-3.2 2.7-1.1.8-2.3 1.5-3.6 2-1.2.6-2.5 1-3.8 1.3-2.5.6-5.1.6-7.5.1-2.4-.5-4.7-1.4-6.6-2.7-.9-.7-1.8-1.4-2.5-2.2-.7-.8-1.4-1.7-1.9-2.6-.6-.9-1-1.9-1.3-2.8-.3-1-.6-1.9-.7-2.9-.1-1-.2-1.9-.1-2.8.1-.9.2-1.8.4-2.6-.5 0-1 .1-1.6.4-.3.1-.5.3-.8.6-.2.2-.5.5-.7.8-.9 1.3-1.6 3.5-1.3 6.5.1 1.5.5 3.1 1.2 4.9.7 1.7 1.8 3.6 3.4 5.3.8.9 1.7 1.7 2.7 2.5 1 .7 2.2 1.5 3.4 2.1 2.5 1.2 5.4 2.1 8.7 2.3-3.8.5-8 .2-11.9-1-2-.6-3.9-1.5-5.6-2.5-1.8-1.1-3.3-2.3-4.7-3.6-2.7-2.5-4.6-5.3-5.8-7.4-.6-1-1.1-1.9-1.5-2.6-.3-.6-.6-1-.8-1.1 0 0 .1.3.3 1 .1.3.2.7.4 1.2.1.2.2.5.2.7.1.3.2.5.3.8.5 1.2 1.1 2.6 2 4.2.9 1.6 2.1 3.4 3.8 5.1 1.6 1.8 3.7 3.6 6.2 5.1 1.2.8 2.6 1.4 4 2.1 1.4.6 3 1.1 4.6 1.5 1.6.4 3.3.7 5.1.8 1.8.1 3.6.1 5.4-.1 1.9-.2 3.8-.6 5.7-1.2 1.9-.6 3.7-1.4 5.5-2.4 7.1-4 12.6-10.8 15.6-19 1.5-4 2.2-8.3 2.5-12.6.2-4.3 0-8.6-.7-12.8-.7-4.2-1.8-8.3-3.1-12.3-1.4-4-3-7.9-4.7-11.7-1.7-3.8-3.6-7.4-5.4-11-1.9-3.6-3.7-7.1-5.4-10.6-3.4-7-6.4-13.8-8-20.6-.8-3.4-1.3-6.7-1.4-10-.1-3.3.2-6.5.9-9.4.3-1.4.7-2.7 1.1-3.9 1.5 1.1 3.2 1.8 5 2.2 1 .2 2 .3 3.1.4h.9c-.7 1.6-1.3 3.2-1.9 4.8-.9 2.7-1.6 5.4-2.1 8.2-.5 2.8-.7 5.7-.5 8.5.2 2.8.7 5.7 1.7 8.4 2 5.5 5.7 10 10.4 12.7 1.2.7 2.4 1.2 3.7 1.6 1.3.4 2.5.7 3.8.8 1.2.1 2.5.2 3.6.1 1.2-.1 2.3-.3 3.4-.5 1.1-.3 2.1-.6 3-1 1-.4 1.9-.9 2.7-1.4 1.7-1 3-2.2 4.1-3.4 1.1-1.2 1.9-2.4 2.5-3.4.6-1.1 1.1-2 1.4-2.8.1-.2.1-.4.2-.6.1-.2.1-.3.2-.5.1-.3.2-.6.2-.8.1-.4.2-.6.2-.6-.1 0-.3.3-.5.7-.2.4-.5 1-1 1.7-.8 1.4-2.1 3.2-3.9 4.9-.9.8-1.9 1.7-3.1 2.4-1.2.7-2.4 1.3-3.7 1.7-2.6.8-5.4 1.1-7.9.7 2.2-.2 4.1-.7 5.8-1.6.8-.4 1.6-.9 2.3-1.4.7-.5 1.3-1.1 1.8-1.6 1.1-1.1 1.8-2.4 2.3-3.5.5-1.2.7-2.3.8-3.3.2-2-.3-3.4-.9-4.3-.2-.2-.3-.4-.5-.6-.2-.2-.3-.3-.5-.4-.3-.2-.7-.3-1-.2.1.5.2 1.1.3 1.7 0 .6 0 1.2-.1 1.9-.1.6-.3 1.3-.5 1.9-.2.6-.5 1.3-.9 1.9-.4.6-.8 1.2-1.3 1.7s-1.1 1-1.7 1.4c-1.3.9-2.8 1.5-4.4 1.8-1.6.3-3.3.3-5-.1-.8-.2-1.7-.5-2.5-.8-.8-.4-1.6-.8-2.4-1.4-.8-.5-1.5-1.1-2.2-1.8-.7-.7-1.3-1.4-1.9-2.2-.6-.8-1.1-1.6-1.5-2.5-.5-.9-.8-1.8-1.2-2.7-1.3-3.7-1.7-7.8-1.5-11.7.3-4 1.1-7.8 2.3-11.5.4-1.3.9-2.6 1.3-3.8.7-.2 1.3-.4 1.9-.6 1-.4 2-1 2.9-1.6 0 0 .1 0 .2-.1s.2-.2.4-.3c.2-.1.4-.3.7-.5.1-.1.3-.2.4-.4l.4-.4c.1-.2.3-.3.5-.5l.3-.3c.1-.1.2-.2.2-.3.2-.2.4-.4.5-.7.2-.2.3-.5.5-.8.7-1.1 1.4-2.4 2-4 .6-1.6 1-3.5 1.3-5.7 0-.4.1-.8.1-1.3l1.5.3c1.9.4 3.7 1.1 5.3 2 3.2 1.7 5.6 3.9 7.2 6 1.6 2 2.6 3.9 3.1 5.1.3.6.4 1.1.6 1.4.1.3.2.5.2.5 0-.1 0-.3-.1-.7 0-.2-.1-.4-.2-.6-.1-.2-.2-.4-.3-.7-.1-.2-.2-.5-.3-.7l-.3-.6c-.2-.4-.3-.7-.5-.9-3.1-5.6-8.7-9.9-14.7-11.2l-1.5-.3c.1-1.7 0-3.4-.2-5.3-.2-1.3-.4-2.6-.7-3.9-.1-.3-.2-.7-.2-1 .1-.3.2-.7.2-1 .3-1.3.5-2.7.7-3.9.2-1.8.3-3.6.2-5.3l1.5-.3c6-1.3 11.6-5.7 14.7-11.2.1-.2.3-.5.5-.9l.3-.6c.1-.2.2-.5.3-.7.1-.2.2-.5.3-.7.1-.2.1-.4.2-.6.1-.4.1-.6.1-.7 0 0-.1.2-.2.5s-.3.8-.6 1.4c-.5 1.2-1.5 3.1-3.1 5.1-1.6 2-4 4.3-7.2 6-1.6.8-3.4 1.5-5.3 2l-1.5.3c0-.4-.1-.9-.1-1.3-.2-2.1-.7-4-1.3-5.7-.6-1.6-1.3-3-2-4-.2-.3-.4-.5-.5-.8-.2-.2-.4-.4-.5-.7-.1-.1-.2-.2-.2-.3l-.3-.3-.5-.5c-.1-.2-.3-.3-.4-.4l-.4-.4c-.3-.2-.5-.4-.7-.5-.2-.1-.3-.2-.4-.3-.1-.1-.1-.1-.2-.1-.9-.6-1.9-1.1-2.9-1.6-.6-.3-1.3-.5-1.9-.6-.5-1.3-.9-2.5-1.3-3.8-1.2-3.7-2-7.5-2.3-11.5-.2-3.9.1-8 1.5-11.7.3-.9.7-1.8 1.2-2.7.5-.9 1-1.7 1.5-2.5.6-.8 1.2-1.5 1.9-2.2.7-.7 1.4-1.3 2.2-1.8.8-.5 1.6-1 2.4-1.3.8-.4 1.7-.6 2.5-.8 1.7-.4 3.4-.4 5-.1 1.6.3 3.1 1 4.4 1.8.6.4 1.2.9 1.7 1.4.5.5.9 1.1 1.3 1.7.4.6.7 1.2.9 1.9.2.6.4 1.3.5 1.9.1.6.1 1.3.1 1.9 0 .6-.1 1.2-.3 1.7.4 0 .7-.1 1-.2.2-.1.3-.2.5-.4s.3-.3.5-.6c.6-.9 1-2.3.9-4.3-.1-1-.3-2.1-.8-3.3-.5-1.2-1.2-2.4-2.3-3.5-.5-.6-1.1-1.1-1.8-1.6s-1.4-1-2.3-1.4c-1.7-.8-3.6-1.4-5.8-1.6 2.6.2 5.4.4 8 1.2zm-23 95.9c-.4.9-.8 1.7-1.1 2.6-1.5.1-2.9 0-4.1-.3-1.3-.3-2.5-.7-3.5-1.3-.5-.3-1-.6-1.4-.9 1.5-4.1 3.9-7.6 6.8-10 .2-.2.5-.4.7-.6.3-.2.5-.4.8-.5l.4-.3.4-.2c.3-.2.5-.3.8-.5 1.1-.6 2.2-1.2 3.3-1.6 1.1-.5 2.3-.8 3.4-1.1.4-.1.8-.2 1.2-.2l-.3.6c-1.1 2.3-2.4 4.7-3.6 7-1.4 2.4-2.7 4.8-3.8 7.3zm12.9-10.3c-.9 4-2.8 7.3-5.3 9.4-.2.1-.3.3-.5.4-.2.1-.3.2-.5.4l-.3.2-.3.2c-.2.1-.3.2-.5.3-.7.4-1.4.8-2.2 1.1-.4.1-.7.3-1.1.4.8-2.1 1.7-4.2 2.6-6.2 1.5-3.3 2.9-6.5 4.2-9.5.2-.5.4-.9.6-1.4 1.3-.1 2.6-.1 3.8.1 0 1.4-.2 3-.5 4.6zm.6-6.3v1c-.7-.1-1.5-.1-2.2-.1h-1.4c.4-.9.7-1.7 1-2.5.6-1.5 1.1-2.9 1.5-4.3.1-.2.1-.3.2-.5.5 2.1.8 4.3.9 6.4zm0-18.1c0 2.1-.4 4.2-.9 6.4-.1-.2-.1-.3-.2-.5-.4-1.4-.9-2.8-1.5-4.3-.3-.8-.7-1.7-1-2.5h1.4c.7 0 1.5-.1 2.2-.1v1zm-10.1-18.2c.8.3 1.5.7 2.2 1.1.2.1.3.2.5.3l.3.2.3.2c.2.1.3.2.5.4.2.1.3.3.5.4 2.5 2.1 4.4 5.5 5.3 9.4.3 1.5.5 3.1.6 4.8-1.2.1-2.5.2-3.8.1-.2-.5-.4-.9-.6-1.4-1.3-3-2.8-6.2-4.2-9.5-.9-2-1.7-4.1-2.6-6.2.3-.1.6 0 1 .2zm-3.4 1.5c1.2 2.5 2.4 4.9 3.6 7.3 1.2 2.4 2.5 4.7 3.6 7l.3.6c-.4-.1-.8-.2-1.2-.2-1.1-.3-2.3-.6-3.4-1.1-1.1-.4-2.2-1-3.3-1.6-.3-.2-.5-.3-.8-.5l-.4-.2-.4-.3c-.3-.2-.5-.4-.8-.5-.2-.2-.5-.4-.7-.6-2.9-2.4-5.2-5.9-6.8-10 .4-.3.9-.6 1.4-.9 1.1-.6 2.2-1 3.5-1.3 1.3-.3 2.7-.4 4.1-.3.5.9.9 1.8 1.3 2.6zM160.8 440c-.4.6-.8 1.5-1.5 2.6-1.2 2.1-3.1 4.8-5.8 7.4-1.4 1.3-2.9 2.5-4.7 3.6-1.7 1.1-3.7 1.9-5.6 2.5-3.9 1.3-8.1 1.6-11.9 1 3.3-.2 6.2-1.1 8.7-2.3 1.3-.6 2.4-1.3 3.4-2.1s1.9-1.6 2.7-2.5c1.6-1.7 2.7-3.6 3.4-5.3.7-1.7 1.1-3.4 1.2-4.9.3-3-.4-5.2-1.3-6.5-.2-.3-.5-.6-.7-.8-.3-.2-.5-.4-.8-.6-.5-.3-1-.4-1.6-.4.2.8.4 1.7.4 2.6.1.9 0 1.9-.1 2.8-.1 1-.4 1.9-.7 2.9-.4 1-.8 1.9-1.3 2.8-.6.9-1.2 1.8-1.9 2.6s-1.6 1.5-2.5 2.2c-1.9 1.3-4.1 2.2-6.6 2.7-2.4.5-5 .5-7.5-.1-1.3-.3-2.5-.7-3.8-1.3-1.2-.6-2.4-1.2-3.6-2-1.1-.8-2.2-1.7-3.2-2.7-1-1-1.9-2.1-2.8-3.2-.9-1.2-1.6-2.4-2.3-3.7-.7-1.3-1.3-2.6-1.8-4-2-5.6-2.6-11.6-2.2-17.6.4-5.9 1.7-11.7 3.4-17.2s3.9-10.7 6.1-15.7c2.2-5 4.4-9.7 6.4-14.3 1-2.3 1.9-4.5 2.8-6.7.8-2.2 1.6-4.4 2.3-6.5.3-1.1.6-2.1.9-3.1.3-1 .5-2.1.8-3.1.5-2 .8-4 1-5.9.4-3.7.5-7.3.1-10.5s-1-6.1-1.9-8.5c-.1-.4-.3-.8-.4-1.1 1.6-1.3 3-2.9 4-4.6.1-.1.2-.3.3-.6.1-.1.1-.3.2-.4.1-.2.1-.3.2-.5s.1-.3.2-.5c0-.1.1-.3.1-.4.1-.2.1-.4.1-.4s0 .1-.1.3c-.1.2-.2.5-.4 1-.4.8-1 2-2.1 3.4-.6.8-1.5 1.7-2.5 2.5-.8-1.8-1.6-3.4-2.5-4.7-.3-.4-.5-.8-.8-1.1-.3-.4-.5-.7-.8-1-.1-.2-.2-.3-.4-.5l-.4-.4c-.3-.3-.5-.5-.7-.8-.2-.3-.5-.4-.7-.6-.2-.2-.4-.4-.6-.5-.4-.3-.7-.6-1-.8-.3-.2-.5-.4-.6-.5l-.2-.2c-1.3-.9-2.8-1.7-4.3-2.3-1.5-.6-3.1-1.1-4.7-1.4-.4-.1-.9-.2-1.3-.2-1.7-3.4-3.1-6.8-4.1-10.2 1-3.4 2.5-6.7 4.1-10.2.4-.1.9-.1 1.3-.2 1.6-.3 3.2-.8 4.7-1.4 1.5-.6 2.9-1.4 4.3-2.3l.2-.2c.1-.1.4-.2.6-.5.3-.2.6-.5 1-.8.2-.2.4-.4.6-.5.2-.2.4-.4.7-.6.2-.2.5-.5.7-.8l.4-.4c.1-.2.2-.3.4-.5.3-.3.5-.6.8-1 .3-.4.5-.8.8-1.1.8-1.3 1.7-2.9 2.5-4.7 1 .8 1.9 1.7 2.5 2.5 1.1 1.4 1.7 2.6 2.1 3.4.2.4.3.7.4 1 .1.2.1.3.1.3s0-.2-.1-.4c0-.1-.1-.3-.1-.4 0-.1-.1-.3-.2-.5s-.1-.3-.2-.5-.1-.3-.2-.4c-.1-.3-.2-.5-.3-.6-1-1.8-2.4-3.4-4-4.6.2-.4.3-.7.4-1.1.9-2.4 1.6-5.3 1.9-8.5.4-3.2.3-6.8-.1-10.5-.2-1.9-.6-3.9-1-5.9-.2-1-.5-2-.8-3.1-.3-1-.6-2.1-.9-3.1-.7-2.1-1.4-4.3-2.3-6.5-.8-2.2-1.8-4.4-2.8-6.7-2-4.6-4.2-9.3-6.4-14.3s-4.3-10.2-6.1-15.7c-1.7-5.5-3-11.3-3.4-17.2-.4-5.9.2-12 2.2-17.6.5-1.4 1.1-2.7 1.8-4 .7-1.3 1.5-2.5 2.3-3.7.9-1.2 1.8-2.2 2.8-3.2 1-1 2.1-1.9 3.2-2.7 1.1-.8 2.3-1.5 3.6-2 1.2-.6 2.5-1 3.8-1.3 2.5-.6 5.1-.6 7.5-.1 2.4.5 4.7 1.4 6.6 2.7.9.7 1.8 1.4 2.5 2.2.7.8 1.4 1.7 1.9 2.6.6.9 1 1.9 1.3 2.8.3 1 .6 1.9.7 2.9.1 1 .2 1.9.1 2.8-.1.9-.2 1.8-.4 2.6.5 0 1-.1 1.6-.4.3-.1.5-.3.8-.6.2-.2.5-.5.7-.8.9-1.3 1.6-3.5 1.3-6.5-.1-1.5-.5-3.1-1.2-4.9-.7-1.7-1.8-3.6-3.4-5.3-.8-.9-1.7-1.7-2.7-2.5-1-.8-2.2-1.5-3.4-2.1-2.5-1.2-5.4-2.1-8.7-2.3 3.8-.5 8-.2 11.9 1 2 .6 3.9 1.5 5.6 2.5 1.7 1.1 3.3 2.3 4.7 3.6 2.7 2.5 4.6 5.3 5.8 7.4.6 1 1.1 1.9 1.5 2.6.3.6.6 1 .8 1.1 0 0-.1-.3-.3-1-.1-.3-.2-.7-.4-1.2-.1-.2-.2-.5-.2-.7-.1-.3-.2-.5-.3-.8-.5-1.2-1.1-2.6-2-4.2-.9-1.6-2.1-3.4-3.8-5.1-1.6-1.8-3.7-3.6-6.2-5.1-1.2-.8-2.6-1.4-4-2.1-1.4-.6-3-1.1-4.6-1.5-1.6-.4-3.3-.7-5.1-.8-1.8-.1-3.6-.1-5.4.1-1.9.2-3.8.6-5.7 1.2-1.9.6-3.7 1.4-5.5 2.4-7.1 4-12.6 10.8-15.6 19-1.5 4-2.2 8.3-2.5 12.6-.2 4.3 0 8.6.7 12.8.7 4.2 1.8 8.3 3.1 12.3 1.4 4 3 7.9 4.7 11.7 1.7 3.8 3.6 7.4 5.4 11 1.9 3.6 3.7 7.1 5.4 10.6 3.4 7 6.4 13.8 8 20.6.8 3.4 1.3 6.7 1.4 10 .1 3.3-.2 6.5-.9 9.4-.3 1.4-.7 2.7-1.1 3.9-1.5-1.1-3.2-1.8-5-2.2-1-.2-2-.3-3.1-.4h-.9c.7-1.6 1.3-3.2 1.9-4.8.9-2.7 1.6-5.4 2.1-8.2.5-2.8.7-5.7.5-8.5-.2-2.8-.7-5.7-1.7-8.4-2-5.5-5.7-10-10.4-12.7-1.2-.7-2.4-1.2-3.7-1.6-1.3-.4-2.5-.7-3.8-.8-1.2-.1-2.5-.2-3.6-.1-1.2.1-2.3.3-3.4.5-1.1.3-2.1.6-3 1-1 .4-1.9.9-2.7 1.4-1.7 1-3 2.2-4.1 3.4-1.1 1.2-1.9 2.4-2.5 3.4-.6 1.1-1.1 2-1.4 2.8-.1.2-.1.4-.2.6-.1.2-.1.3-.2.5-.1.3-.2.6-.2.8-.1.4-.2.6-.2.6.1 0 .3-.3.5-.7.2-.4.5-1 1-1.7.8-1.4 2.1-3.2 3.9-4.9.9-.8 1.9-1.7 3.1-2.4 1.2-.7 2.4-1.3 3.7-1.7 2.6-.8 5.4-1.1 7.9-.7-2.2.2-4.1.7-5.8 1.6-.8.4-1.6.9-2.3 1.4-.7.5-1.3 1.1-1.8 1.6-1.1 1.1-1.8 2.4-2.3 3.5-.5 1.2-.7 2.3-.8 3.3-.2 2 .3 3.4.9 4.3.2.2.3.4.5.6.2.2.3.3.5.4.3.2.7.3 1 .2-.1-.5-.2-1.1-.3-1.7 0-.6 0-1.2.1-1.9.1-.6.3-1.3.5-1.9.2-.6.5-1.3.9-1.9.4-.6.8-1.2 1.3-1.7s1.1-1 1.7-1.4c1.3-.9 2.8-1.5 4.4-1.8 1.6-.3 3.3-.3 5 .1.8.2 1.7.5 2.5.8.8.4 1.6.8 2.4 1.3.8.5 1.5 1.1 2.2 1.8.7.7 1.3 1.4 1.9 2.2.6.8 1.1 1.6 1.5 2.5.5.9.8 1.8 1.2 2.7 1.3 3.7 1.7 7.8 1.5 11.7-.3 3.9-1.1 7.8-2.3 11.5-.4 1.3-.9 2.6-1.3 3.8-.7.2-1.3.4-1.9.6-1 .4-2 .9-2.9 1.6 0 0-.1 0-.2.1s-.2.2-.4.3c-.2.1-.4.3-.7.5-.1.1-.3.2-.4.4l-.4.4-.5.5-.3.3c-.1.1-.2.2-.2.3-.2.2-.4.4-.5.7-.2.2-.3.5-.5.8-.7 1.1-1.4 2.4-2 4-.6 1.6-1 3.5-1.3 5.7 0 .4-.1.8-.1 1.3l-1.5-.3c-1.9-.4-3.7-1.1-5.3-2-3.2-1.7-5.6-3.9-7.2-6-1.6-2-2.6-3.9-3.1-5.1-.3-.6-.4-1.1-.6-1.4-.1-.3-.2-.5-.2-.5 0 .1 0 .3.1.7 0 .2.1.4.2.6.1.2.2.4.3.7.1.2.2.5.3.7l.3.6c.2.4.3.7.5.9 3.1 5.6 8.7 9.9 14.7 11.2l1.5.3c-.1 1.7 0 3.4.2 5.3.2 1.3.4 2.6.7 3.9.1.3.2.7.2 1-.1.3-.2.7-.2 1-.3 1.3-.5 2.7-.7 3.9-.2 1.8-.3 3.6-.2 5.3l-1.5.3c-6 1.3-11.6 5.7-14.7 11.2-.1.2-.3.5-.5.9l-.3.6c-.1.2-.2.5-.3.7-.1.2-.2.5-.3.7-.1.2-.1.4-.2.6-.1.4-.1.6-.1.7 0 0 .1-.2.2-.5s.3-.8.6-1.4c.5-1.2 1.5-3.1 3.1-5.1 1.6-2 4-4.3 7.2-6 1.6-.8 3.4-1.5 5.3-2l1.5-.3c0 .4.1.9.1 1.3.2 2.1.7 4 1.3 5.7.6 1.6 1.3 3 2 4 .2.3.4.5.5.8.2.2.4.5.5.7.1.1.2.2.2.3l.3.3.5.5c.1.2.3.3.4.4l.4.4c.3.2.5.4.7.5.2.1.3.2.4.3.1.1.1.1.2.1.9.6 1.8 1.1 2.9 1.6.6.3 1.3.5 1.9.6.5 1.3.9 2.5 1.3 3.8 1.2 3.7 2 7.5 2.3 11.5.2 3.9-.1 8-1.5 11.7-.3.9-.7 1.8-1.2 2.7-.5.9-1 1.7-1.5 2.5-.6.8-1.2 1.5-1.9 2.2-.7.7-1.4 1.3-2.2 1.8-.8.5-1.6 1-2.4 1.4-.8.4-1.7.6-2.5.8-1.7.4-3.4.4-5 .1-1.6-.3-3.1-1-4.4-1.8-.6-.4-1.2-.9-1.7-1.4-.5-.5-.9-1.1-1.3-1.7-.4-.6-.7-1.2-.9-1.9-.2-.6-.4-1.3-.5-1.9-.1-.6-.1-1.3-.1-1.9 0-.6.1-1.2.3-1.7-.4 0-.7.1-1 .2-.2.1-.3.2-.5.4s-.3.3-.5.6c-.6.9-1 2.3-.9 4.3.1 1 .3 2.1.8 3.3.5 1.2 1.2 2.4 2.3 3.5.5.6 1.1 1.1 1.8 1.6s1.4 1 2.3 1.4c1.7.8 3.6 1.4 5.8 1.6-2.5.4-5.3.1-7.9-.7-1.3-.4-2.6-1-3.7-1.7-1.2-.7-2.2-1.5-3.1-2.4-1.8-1.7-3.1-3.5-3.9-4.9-.4-.7-.7-1.3-1-1.7-.2-.4-.4-.7-.5-.7 0 0 .1.2.2.6.1.2.1.5.2.8.1.2.1.3.2.5s.1.4.2.6c.3.8.7 1.7 1.4 2.8.6 1.1 1.4 2.2 2.5 3.4 1.1 1.2 2.5 2.4 4.1 3.4.8.5 1.7 1 2.7 1.4 1 .4 2 .7 3 1 1.1.2 2.2.4 3.4.5 1.2.1 2.4.1 3.6-.1 1.2-.1 2.5-.4 3.8-.8 1.3-.4 2.5-1 3.7-1.6 4.7-2.7 8.4-7.2 10.4-12.7 1-2.7 1.5-5.5 1.7-8.4.2-2.9 0-5.7-.5-8.5s-1.2-5.6-2.1-8.2c-.6-1.6-1.2-3.3-1.9-4.8h.9c1.1 0 2.1-.1 3.1-.4 1.8-.4 3.4-1.2 5-2.2.5 1.2.8 2.5 1.1 3.9.6 3 .9 6.2.9 9.4-.1 3.3-.6 6.5-1.4 10-1.6 6.8-4.6 13.7-8 20.6-1.7 3.5-3.6 7-5.4 10.6-1.9 3.6-3.7 7.3-5.4 11-1.7 3.8-3.3 7.7-4.7 11.7-1.4 4-2.4 8.1-3.1 12.3-.7 4.2-1 8.5-.7 12.8.2 4.3 1 8.6 2.5 12.6 2.9 8.2 8.5 15 15.6 19 1.8 1 3.6 1.8 5.5 2.4 1.9.6 3.8 1 5.7 1.2 1.9.2 3.7.2 5.4.1 1.8-.1 3.4-.4 5.1-.8 1.6-.4 3.1-.9 4.6-1.5 1.4-.6 2.8-1.3 4-2.1 2.5-1.5 4.6-3.3 6.2-5.1 1.6-1.8 2.8-3.5 3.8-5.1.9-1.6 1.6-3 2-4.2.1-.3.2-.6.3-.8.1-.3.2-.5.2-.7.1-.5.3-.8.4-1.2.2-.6.3-1 .3-1-.2-.4-.5-.1-.8.6zm-44.2-168.1c.4-.9.8-1.7 1.1-2.6 1.5-.1 2.9 0 4.1.3 1.3.3 2.5.7 3.5 1.3.5.3 1 .6 1.4.9-1.5 4.1-3.9 7.6-6.8 10-.2.2-.5.4-.7.6-.3.2-.5.4-.8.5l-.4.3-.4.2c-.3.2-.5.3-.8.5-1.1.6-2.2 1.2-3.3 1.6-1.1.5-2.3.8-3.4 1.1-.4.1-.8.2-1.2.2l.3-.6c1.1-2.3 2.4-4.7 3.6-7 1.4-2.3 2.7-4.8 3.8-7.3zm-12.9 10.4c.9-4 2.8-7.3 5.3-9.4.2-.1.3-.3.5-.4.2-.1.3-.2.5-.4l.2-.2.3-.2c.2-.1.3-.2.5-.3.7-.4 1.4-.8 2.2-1.1.4-.1.7-.3 1.1-.4-.8 2.1-1.7 4.2-2.6 6.2-1.5 3.3-2.9 6.5-4.2 9.5-.2.5-.4.9-.6 1.4-1.3.1-2.6.1-3.8-.1 0-1.5.2-3.1.6-4.6zm-.6 6.3v-1c.7.1 1.5.1 2.2.1h1.4c-.4.9-.7 1.7-1 2.5-.6 1.5-1.1 2.9-1.5 4.3-.1.2-.1.3-.2.5-.5-2.2-.9-4.3-.9-6.4zm0 18.1c.1-2.1.4-4.2.9-6.4.1.2.1.3.2.5.4 1.4.9 2.8 1.5 4.3.3.8.7 1.7 1 2.5h-1.4c-.7 0-1.5.1-2.2.1v-1zm10.1 18.2c-.8-.3-1.5-.7-2.2-1.1-.2-.1-.3-.2-.5-.3l-.3-.2-.2-.2c-.2-.1-.3-.2-.5-.4-.2-.1-.3-.3-.5-.4-2.5-2.1-4.4-5.5-5.3-9.4-.3-1.5-.5-3.1-.6-4.8 1.2-.1 2.5-.2 3.8-.1.2.5.4.9.6 1.4 1.3 3 2.8 6.2 4.2 9.5.9 2 1.7 4.1 2.6 6.2-.4.1-.8 0-1.1-.2zm12.2-.6c-1.1.6-2.2 1-3.5 1.3-1.3.3-2.7.4-4.1.3-.4-.9-.7-1.7-1.1-2.6-1.2-2.5-2.4-4.9-3.6-7.3-1.2-2.4-2.5-4.7-3.6-7l-.3-.6c.4.1.8.2 1.2.2 1.1.3 2.3.6 3.4 1.1 1.1.4 2.2 1 3.3 1.6.3.2.5.3.8.5l.4.2.4.3c.3.2.5.4.8.5.2.2.5.4.7.6 2.9 2.4 5.2 5.9 6.8 10-.6.4-1.1.7-1.6.9zm136.5-151.2h.3c0-.1 0-.1-.3 0 0-.1.1 0 0 0zm28.1-28.7v-.2.2zm43.3 28.6h-.2.2c0 .1.1 0 0 0zm-28.1-28.8v.3c.1 0 0 0 0-.3 0-.1 0 .1 0 0zm111.9 27.7c-.1 0-.3 0-.4-.1 1.7-1.4 3.1-3.1 4.3-5 1.4-2.3 2.3-4.8 2.5-7.5v-1.7c0-.7-.1-1.6-.4-2.5-.2-.8-.5-1.6-.8-2.2-.3-.6-.5-.9-.5-1 0 0 .3.4.6 1s.6 1.3.8 2.2c.2.8.3 1.7.4 2.5v1.7c-.2 2.7-1.1 5.3-2.5 7.6-.9 1.9-2.3 3.6-4 5zm-1.1 1c.4-.3.8-.7 1.2-1 2.1.3 4.2.5 6.3.7 1.7.1 3.3.2 4.9.1.8 0 1.6-.1 2.4-.1.8-.1 1.6-.1 2.4-.2.4-.1.8-.1 1.2-.1l1.1-.2c.4-.1.7-.2 1.1-.2.4-.1.7-.2 1.1-.3 1.4-.4 2.8-.9 4.2-1.4 2.6-1.1 5.1-2.6 6.9-4.3 1.9-1.7 3.2-3.7 4.1-5.8.2.1.4.3.4.7v.7c0 .3-.1.6-.2 1-.1.2-.1.4-.2.6l-.3.6c-.1.2-.2.5-.3.7-.1.2-.3.5-.4.7-.3.5-.7 1-1.1 1.6-.2.3-.5.5-.7.8l-.4.4-.4.4c-.3.3-.6.6-1 .8-.3.3-.7.5-1.1.8-.4.3-.8.5-1.2.8-.4.3-.9.5-1.3.8-1.8 1-4 1.9-6.4 2.6-.6.2-1.2.3-1.9.5-.6.1-1.3.3-2 .4-1.4.2-2.8.4-4.3.4-3 .2-6.2 0-9.6-.3 3.9.7 8.2 1.3 12.3 1.3 4.1 0 8.1-.6 11.5-1.7 1.7-.5 3.2-1.2 4.6-1.8.3-.2.7-.3 1-.5.3-.2.6-.3.9-.5.3-.2.6-.3.8-.5.1-.1.3-.2.4-.2.1-.1.2-.2.4-.2.5-.3.9-.6 1.3-.9.4-.3.7-.5.9-.7.5-.4.8-.6.9-.6 0 .1-.2.5-.7.9-.2.3-.5.5-.8.9l-1.1 1.1-.3.3c-.1.1-.2.2-.4.3-.3.2-.5.4-.8.6l-.9.6-.9.6c-1.3.8-2.9 1.7-4.6 2.4-3.4 1.5-7.7 2.5-12 2.9-4.4.4-8.9.1-13-.4 3.5.7 6.9 1.2 10.1 1.4 1.6.1 3.2.1 4.8.1.8 0 1.6-.1 2.3-.1.8-.1 1.5-.1 2.3-.2 3-.4 5.7-1 8.2-1.8l1.8-.6c.6-.2 1.2-.5 1.7-.7.5-.3 1.1-.5 1.6-.8.5-.2 1-.5 1.5-.8.2-.1.5-.3.7-.4.2-.1.5-.3.7-.4.4-.3.9-.5 1.3-.8.8-.6 1.6-1.1 2.3-1.7.3-.3.7-.6 1-.8.3-.3.6-.6.9-.8.3-.3.6-.5.8-.7.2-.3.5-.5.7-.7.4-.5.9-.8 1.2-1.2.3-.4.6-.6.9-.9.5-.4.9-.6 1.1-.5-2.2 3.9-5.2 7.2-8.7 9.6-3.4 2.5-7.2 4.2-11.1 5.4l-1.5.4c-.2.1-.5.1-.7.2l-.7.2-1.5.3-1.5.2c-.5.1-1 .1-1.5.2s-1 .1-1.5.2l-1.5.1h-4.4c-1-.1-1.9-.1-2.9-.2-1.9-.1-3.8-.4-5.7-.7-7.3-1.2-14.1-3.1-20.9-4.7 1.2-.1 2.3-.2 3.5-.4.6-.1 1.3-.2 1.9-.4.6-.2 1.3-.3 1.9-.5l1-.3.9-.3c.3-.1.6-.2.9-.4l.9-.4c.9-.7 2.1-1.4 3.2-2.2zm-25.3 7.6c1.8 1.9 5 8.9 9.8 12.3-5-1.6-12.8.5-15.4.4-8.6-.5-8.4-10.9-11.4-12.9 3.5 1 11.1-6.1 17 .2zm-51.7-3.1c.7 1 1.5 4.5 3.4 6.5-2.1-1.2-5.9-.9-7.1-1.1-3.9-1-2.9-5.7-4.1-6.9 1.5.8 5.6-1.8 7.8 1.5zm-160.5-5.6c-.1 0-.3 0-.4.1-1.6-1.4-3-3.1-4.1-4.9-1.4-2.3-2.3-4.9-2.5-7.6v-1.7c0-.8.2-1.7.4-2.5s.5-1.6.8-2.2c.3-.6.5-.9.6-1 0 .1-.2.5-.5 1-.3.6-.5 1.3-.8 2.2-.2.8-.3 1.7-.4 2.5v1.7c.2 2.7 1.1 5.2 2.5 7.5 1.3 1.8 2.8 3.5 4.4 4.9zm-17.5.5c.4.1.8.1 1.2.1.8.1 1.6.1 2.4.2.8 0 1.6.1 2.4.1 1.6 0 3.3 0 4.9-.1 2.1-.1 4.2-.4 6.3-.7.4.3.8.7 1.2 1 1.1.8 2.2 1.5 3.4 2.1l.9.4c.3.1.6.2.9.4l.9.3 1 .3c.6.2 1.3.4 1.9.5.6.2 1.3.3 1.9.4 1.2.2 2.3.3 3.5.4-6.7 1.6-13.6 3.6-20.9 4.7-1.9.3-3.8.5-5.7.7-1 .1-1.9.1-2.9.2h-4.4l-1.5-.1c-.5 0-1-.1-1.5-.2s-1-.1-1.5-.2l-1.5-.2-1.5-.3-.7-.2c-.2-.1-.5-.1-.7-.2l-1.5-.4c-3.9-1.2-7.7-2.9-11.1-5.4-3.5-2.4-6.5-5.8-8.7-9.6.2-.1.5 0 1.1.5.3.2.6.5.9.9.3.4.8.7 1.2 1.2l.7.7c.3.2.5.5.8.7.3.3.6.5.9.8.3.3.7.5 1 .8.7.6 1.5 1.1 2.3 1.7.4.3.9.6 1.3.8.2.1.5.3.7.4.2.1.5.3.7.4.5.3 1 .6 1.5.8.5.3 1.1.5 1.6.8.6.2 1.1.5 1.7.7l1.8.6c2.5.8 5.2 1.5 8.2 1.8.7.1 1.5.1 2.3.2.8 0 1.5.1 2.3.1 1.6 0 3.2 0 4.8-.1 3.3-.2 6.7-.7 10.1-1.4-4.1.5-8.6.7-13 .4-4.4-.4-8.6-1.4-12-2.9-1.7-.7-3.3-1.6-4.6-2.4l-.9-.6-.9-.6c-.3-.2-.5-.4-.8-.6-.1-.1-.2-.2-.4-.3l-.3-.3c-.4-.4-.8-.7-1.1-1.1-.3-.3-.6-.6-.8-.9-.5-.5-.6-.9-.7-.9.1 0 .4.3.9.6.3.2.6.4.9.7.4.3.8.5 1.3.9.1.1.2.2.4.2.1.1.3.2.4.2.3.2.5.3.8.5.3.2.6.3.9.5.3.2.6.3 1 .5 1.4.6 2.9 1.3 4.6 1.8 3.4 1.1 7.4 1.7 11.5 1.7s8.4-.5 12.3-1.3c-3.4.3-6.6.4-9.6.3-1.5-.1-2.9-.2-4.3-.4-.7-.1-1.3-.2-2-.4-.6-.2-1.3-.3-1.9-.5-2.4-.7-4.6-1.6-6.4-2.6-.5-.3-.9-.5-1.3-.8-.4-.3-.8-.5-1.2-.8-.4-.3-.7-.6-1.1-.8-.3-.3-.6-.6-1-.8-.2-.1-.3-.3-.4-.4l-.4-.4c-.3-.3-.5-.5-.7-.8-.4-.6-.8-1-1.1-1.6-.2-.2-.3-.5-.4-.7-.1-.2-.2-.5-.3-.7l-.3-.6c-.1-.2-.1-.4-.2-.6-.1-.4-.2-.7-.2-1v-.7c0-.4.2-.6.4-.7.8 2 2.2 4 4.1 5.8 1.9 1.8 4.3 3.2 6.9 4.3 1.3.5 2.7 1 4.2 1.4.4.1.7.2 1.1.3.4.1.7.2 1.1.2l.9.3zm21.9 2.3l.9.4c.3.1.6.2.9.4l.9.3.9.3c.6.2 1.3.3 1.9.5.6.2 1.3.3 1.9.4 1.3.2 2.6.4 3.9.4h.8c3.2-.7 6.3-1.3 9.5-1.7 1.7-.2 3.4-.3 5.1-.4h2.5c.8 0 1.7.1 2.5.2.3 0 .6.1.9.1.5.1 1.1.3 1.6.4.1 0 .2 0 .3.1-2.5.2-5 .5-7.5.7-5 .5-10 .9-15 .7-.3.1-.5.1-.8.2-.2 0-.4.1-.5.1h.5c5.3.4 10.6-.1 15.9-.5 3.2-.3 6.4-.5 9.6-.8h.8l.4.1c.4.1.8.2 1.2.4.4.1.8.2 1.2.4l1.2.4c.7.2 1.3.5 2 .8-.1.2-.2.5-.2.7-1 3.1-1.9 6.1-2.9 9-2 5.8-4.2 11.3-7.1 16.1-1.5 2.4-3 4.5-4.8 6.4-1.8 1.9-3.7 3.5-5.8 4.8-4.1 2.6-8.5 3.8-12.4 3.5-.2 0-.5 0-.7-.1-.2 0-.5-.1-.7-.1l-.4-.1-.4-.1c-.2-.1-.5-.1-.7-.2-.9-.3-1.9-.6-2.7-1-.9-.4-1.7-.8-2.5-1.3-.4-.3-.8-.5-1.1-.8-.4-.3-.7-.5-1-.8-1.3-1.2-2.4-2.4-3.3-3.8-.8-1.3-1.4-2.7-1.9-4.1-.8-2.7-.9-5.3-.7-7.4.2-2.1.7-3.6 1.1-4.6.2-.5.4-.9.5-1.1.1-.3.2-.4.2-.4-.1 0-.2.2-.3.4-.1.1-.2.3-.3.4-.1.2-.2.3-.2.5-.1.2-.2.4-.2.6-.1.2-.1.4-.2.5-.1.3-.2.6-.2.8-1.4 4.9-.7 10.5 2 14.6.6 1 1.4 2 2.3 2.9.9.9 1.9 1.7 2.9 2.4 1.1.7 2.2 1.3 3.4 1.8 1.2.5 2.5.9 3.7 1.1h.2c.1 0 .3.1.6.1s.6.1 1 .1h2.5c.2 0 .3 0 .5-.1.3 0 .7-.1 1-.1.3-.1.7-.1 1.1-.2 1.5-.3 3.2-.9 5.1-1.7 1.9-.9 3.9-2.1 5.9-3.7 2-1.6 4-3.6 5.8-5.9.9-1.2 1.8-2.5 2.7-3.9.4-.7.9-1.4 1.3-2.1.4-.7.8-1.5 1.2-2.3.8-1.6 1.6-3.2 2.4-4.9.8-1.7 1.5-3.5 2.2-5.3 1.2-3 2.4-6.3 3.7-9.6h.1c.8.4 1.5.8 2.3 1.2.8.4 1.5.8 2.3 1.3 6 3.6 11.7 7.8 17.9 11.5 3.1 1.8 6.3 3.4 9.7 4.6 3.3 1.2 6.8 2.1 10.3 2.5 3.5.4 7.1.2 10.5-.7 1.7-.4 3.3-1.1 4.8-1.9.4-.2.8-.4 1.1-.6.4-.2.7-.5 1.1-.7.3-.3.7-.5 1-.8.3-.3.6-.6 1-.8 2.5-2.3 4.4-5.3 5.2-8.5.4-1.6.5-3.3.2-5-.1-.4-.1-.8-.3-1.2-.1-.4-.2-.8-.4-1.2l-.2-.6-.2-.4c.1-.1.2-.2.4-.3.2-.1.4-.3.6-.4.4-.2.8-.5 1.2-.8.4.3.8.5 1.2.8.2.1.4.2.6.4.1.1.3.2.4.3l-.2.4-.2.6c-.2.4-.3.8-.4 1.2l-.3 1.2c-.3 1.6-.2 3.3.2 5 .8 3.3 2.7 6.2 5.2 8.5.3.3.6.6 1 .8.3.3.7.5 1 .8.4.2.7.5 1.1.7.4.2.7.4 1.1.6 1.5.8 3.2 1.4 4.8 1.9 3.4.9 7 1 10.5.7 3.5-.4 7-1.3 10.3-2.5 3.3-1.2 6.6-2.8 9.7-4.6 6.2-3.6 11.9-7.9 17.9-11.5.7-.5 1.5-.9 2.3-1.3.8-.4 1.5-.8 2.3-1.2h.1c1.3 3.3 2.4 6.5 3.7 9.6.7 1.8 1.5 3.6 2.2 5.3.8 1.7 1.5 3.3 2.4 4.9.4.8.8 1.5 1.2 2.3.4.7.8 1.5 1.3 2.1.9 1.4 1.8 2.7 2.7 3.9 1.9 2.3 3.8 4.4 5.8 5.9 2 1.6 4 2.8 5.9 3.7 1.9.9 3.6 1.4 5.1 1.7.4.1.7.1 1.1.2.3 0 .7.1 1 .1.2 0 .3 0 .5.1h2.5c.4 0 .7-.1 1-.1.3 0 .5-.1.6-.1h.2c1.3-.2 2.5-.6 3.7-1.1 1.2-.5 2.3-1.1 3.4-1.8s2.1-1.5 2.9-2.4c.9-.9 1.7-1.9 2.3-2.9 2.6-4.1 3.3-9.7 2-14.6 0-.1-.1-.4-.2-.8-.1-.2-.1-.4-.2-.5-.1-.2-.2-.4-.2-.6-.1-.2-.2-.4-.2-.5-.1-.2-.2-.3-.3-.4-.2-.2-.3-.4-.3-.4s.1.1.2.4c.1.3.3.6.5 1.1.4 1 .9 2.5 1.1 4.6.2 2 .1 4.7-.7 7.4-.4 1.4-1 2.8-1.9 4.1-.8 1.3-1.9 2.6-3.3 3.8-.3.3-.7.6-1 .8-.4.3-.8.5-1.1.8-.8.5-1.6.9-2.5 1.3-.9.4-1.8.7-2.7 1-.2.1-.5.1-.7.2l-.4.1-.4.1c-.2 0-.5.1-.7.1-.2 0-.5 0-.7.1-3.9.3-8.3-.9-12.4-3.5-2-1.3-4-2.9-5.8-4.8-1.8-1.9-3.3-4-4.8-6.4-2.9-4.7-5.1-10.2-7.1-16.1-1-2.9-1.9-5.9-2.9-9-.1-.2-.2-.5-.2-.7.7-.3 1.3-.6 2-.8l1.2-.4c.4-.1.8-.3 1.2-.4.4-.1.8-.3 1.2-.4l.4-.1h.8c3.2.3 6.4.6 9.6.8 5.3.5 10.6.9 15.9.5h.5c-.2 0-.4-.1-.5-.1-.3-.1-.5-.1-.8-.2-5 .3-10-.2-15-.7-2.5-.2-5-.5-7.5-.7.1 0 .2 0 .3-.1.6-.1 1.1-.3 1.6-.4.3 0 .6-.1.9-.1.8-.1 1.7-.1 2.5-.2h2.5c1.7 0 3.4.2 5.1.4 3.2.4 6.3 1 9.5 1.7h.8c1.3-.1 2.6-.2 3.9-.4.6-.1 1.3-.2 1.9-.4.6-.2 1.3-.3 1.9-.5l.9-.3.9-.3c.3-.1.6-.2.9-.4l.9-.4c1.2-.5 2.3-1.2 3.4-2 .3-.3.6-.5 1-.8-1.2-.2-2.4-.3-3.6-.5-3.5-.6-7.1-1.2-10.7-1.8-3.1-.5-6.2-.9-9.3-1.1-.7-.5-1.4-.9-2.3-1.3 4.1-2.5 16.5 2.3 21-7.9 1.4-3.2 2.4-13.8 6.6-19.2-6.4 4.4-16.6 5-19.8 6.4-10.4 4.4-5.4 16.7-8 20.6-.3-.2-.7-.3-1-.5-.3-.2-.7-.3-1-.4-.2-.1-.3-.1-.5-.2-.2 0-.3-.1-.5-.1-.3-.1-.6-.2-.9-.2-.3-.1-.6-.1-.9-.2-1.1-.2-2.2-.2-3.2-.2h-1.5c-.2 0-.5 0-.7.1-.2 0-.5 0-.8.1-.5 0-1 .1-1.5.2s-1.1.1-1.7.2c-1.6.1-3.6.2-5.7.3-.8 0-1.5.1-2.3.1.2-.3.5-.6.8-1h.1s.2-.1.6-.2c.4-.1.9-.2 1.4-.3.5-.1 1.1-.2 1.5-.2.5 0 .8-.1 1-.1 1.3-.1 1.5-.3 1.1-.5-.2-.1-.5-.2-1-.3-.2 0-.4-.1-.6-.1.4-.2.8-.3 1.2-.5.5-.2 1.1-.4 1.6-.7 1-.5 2.1-1 3.1-1.6l1.5-.9c.5-.3 1-.7 1.4-1 3.8-2.7 7.2-6 9.8-9.5 2.6-3.5 4.5-7.1 5.8-10.4.3-.8.6-1.6.8-2.4.3-.8.4-1.5.6-2.2.1-.3.2-.7.3-1 .1-.3.1-.6.2-.9.1-.6.2-1.2.3-1.7.1-.5.1-1 .2-1.4 0-.4.1-.7.1-1 .1-.5.1-.8.1-.8l-.9-.3s-.1 1.1-.3 2.9c-.1.8-.3 1.8-.6 2.9-.3 1-.6 2.1-.9 3.2-.2.5-.4 1.1-.6 1.6-.2.5-.4 1.1-.6 1.5-.2.5-.4 1-.6 1.4-.1.2-.2.4-.3.7l-.3.6-.9 1.8c-.1.2-.2.4-.3.5-.1.1-.1.2-.1.2.2-.3.4-.7.5-1 .1-.3.3-.7.4-1 .3-.6.5-1.1.6-1.6.3-1 .4-1.6.2-1.7-.4.5-.7 1-.9 1.5.2-.5 1.3-2.6.6-3-.4.5-.7 1-1 1.6-.3.6-.5 1.3-.8 1.9-.3.7-.5 1.4-.8 2-.3.6-.6 1.2-1 1.7-.2.2-.3.4-.5.7l-.5.6c-.3.4-.7.9-1 1.3-.3.4-.7.9-1.1 1.3-.4.4-.7.9-1.1 1.3-1.5 1.7-3 3.3-4.7 4.8-2.8 2.5-6.5 4.4-10.2 5.2l-1.5.3c.1-.4.2-.9.2-1.3.1-.6.1-1.3 0-1.9 0-.7-.1-1.3-.3-2-.2-.7-.4-1.4-.7-2.1-.3-.7-.6-1.4-1.1-2.1-.4-.7-.9-1.3-1.5-1.9-.6-.6-1.2-1.2-2-1.6-2.9-1.9-6.5-2.8-10.2-2.4-1.5.2-2.9.5-4.4 1.1-.5-.5-1.1-1-1.6-1.5-2.5-2.3-5.4-4.2-8.5-5.7-5.3-2.5-11.1-3.4-16.5-2.5.2-.2.4-.3.6-.5 1.3-1.3 2.5-2.6 3.5-4.1 1.1-1.5 2-3.1 2.7-4.7.7-1.7 1.2-3.5 1.4-5.3.4-3.7-.4-7.3-2.3-10.2-.5-.7-1-1.4-1.6-2-.6-.6-1.3-1.1-1.9-1.6-.7-.4-1.4-.8-2.1-1.1-.7-.3-1.4-.5-2.1-.7-.7-.2-1.4-.3-2-.3h-1.9c-1.2.1-2.4.4-3.3.8-.4.2-.8.3-1.1.5 0-.7.1-1.4.1-2.2 0-.5-.1-1.1-.2-1.5-.1-.4-.2-.8-.3-1-.2-.4-.4-.2-.5 1.1 0 .2-.1.5-.1 1-.1.5-.1 1-.2 1.5s-.2 1-.3 1.4c-.1.4-.2.6-.2.6v.1c-.4.3-.7.5-1 .8 0-.8.1-1.5.1-2.3.1-2 .2-4 .3-5.7.1-.6.1-1.1.2-1.7 0-.5.1-1 .2-1.5 0-.3.1-.5.1-.8 0-.2.1-.5.1-.7 0-.2 0-.5.1-.7v-.8c0-1 0-2.1-.2-3.2 0-.3-.1-.6-.2-.9-.1-.3-.1-.6-.2-.9 0-.2-.1-.3-.1-.5-.1-.2-.1-.3-.2-.5-.1-.3-.2-.7-.4-1-.8-1.9-1.8-3.6-3-4.8-.6-.6-1.1-1.1-1.7-1.4-.3-.2-.5-.3-.8-.4-.3-.1-.5-.1-.7-.1-.4 0-.4.2-.5.4-.1.1-.2.2-.7 0-.1 0-.2-.1-.3-.1-.1 0-.2-.1-.3-.1-.2 0-.3-.1-.5-.1h-.8c-.4.1-.4.5-.2 1 0 .1.1.3.2.4.1.1.2.3.2.5.2.3.4.6.6 1 0 0-.7 1-.5 1.5 0 .1.1.2.1.3 0 .1.1.2.2.4s.3.5.4.7c.1.3.3.5.5.8.2.3.3.5.5.8.4.6.7 1.1 1.1 1.7-.2.3-.3.7-.5 1.1-.1.2-.2.5-.4.8-.1.3-.2.6-.3.8-.1.3-.2.6-.4.9-.1.3-.2.7-.4 1-.1.3-.2.7-.4 1.1l-.3 1.2c-.2.8-.4 1.6-.6 2.5-.1.4-.2.9-.3 1.4 0 .2-.1.5-.1.7 0 .1 0 .2-.1.4v.4c-.1.5-.1 1-.2 1.5 0 .3 0 .5-.1.8 0 .3 0 .5-.1.8-.1 2.1-.2 4.3.1 6.6v.8c0 .3.1.6.1.9 0 .3.1.6.1.9.1.3.1.6.2.9.2 1.2.5 2.3.8 3.5.6 2.4 1.5 4.7 2.4 6.9.6 1.3 1.1 2.6 1.7 3.9-.7 3.7-1.3 7.4-1.7 11.2l-.1 1.9-.1.9v2.8l.1 1.9v.9l.1.9v.9c0 .2-.1.4-.1.6-.2.3-.4.6-.7.9-.9 1.3-1.6 2.7-2 4-.5 1.3-.8 2.5-.9 3.6-.1 1.1-.1 2.1 0 2.9 0 .2.1.4.1.6 0 .2.1.4.1.5 0 .1 0 .2.1.2 0 .1 0 .2.1.2 0 .1 0 .1.1.2-.4-.2-.8-.4-1.1-.6l-1.2-.6-.6-.3-.3-.1-.3-.2c-.3-.2-.6-.3-.9-.5l.2-.1.8-.5.8-.5 1.5-1.1c-.7.5-1.5 1-2.2 1.5-.4.2-.8.5-1.2.7-.4-.2-.8-.4-1.2-.7-.7-.5-1.5-.9-2.2-1.5l1.5 1.1.8.5.8.5.2.1c-.3.2-.6.3-.9.5l-.3.2-.3.1-.6.3-1.2.6c-.4.2-.7.4-1.1.6 0-.1 0-.1.1-.2 0-.1 0-.2.1-.2 0-.1 0-.2.1-.2 0-.2.1-.3.1-.5s.1-.4.1-.6c.1-.8.1-1.8 0-2.9-.1-1.1-.4-2.3-.9-3.6-.5-1.3-1.2-2.6-2-4-.2-.3-.4-.6-.7-.9 0-.2 0-.4-.1-.6v-.9l.1-.9v-.9l.1-1.9v-2.8l-.1-.9-.1-1.9c-.3-3.8-.9-7.5-1.7-11.2.6-1.3 1.1-2.6 1.7-3.9.9-2.2 1.8-4.5 2.4-6.9.3-1.2.6-2.3.8-3.5.1-.3.1-.6.2-.9 0-.3.1-.6.1-.9 0-.3.1-.6.1-.9v-.8c.2-2.3.2-4.5.1-6.6 0-.3 0-.5-.1-.8 0-.3 0-.5-.1-.8-.1-.5-.1-1-.2-1.5v-.4c0-.1 0-.2-.1-.4 0-.2-.1-.5-.1-.7-.1-.5-.1-.9-.3-1.4-.2-.9-.4-1.7-.6-2.5l-.3-1.2c-.1-.4-.3-.7-.4-1.1-.1-.3-.2-.7-.4-1-.1-.3-.3-.6-.4-.9-.1-.3-.2-.6-.3-.8-.1-.3-.2-.5-.4-.8-.2-.4-.4-.8-.5-1.1.3-.6.7-1.1 1.1-1.7.2-.3.3-.5.5-.8.2-.3.3-.5.5-.8.1-.3.3-.5.4-.7.1-.1.1-.2.2-.4 0-.1.1-.2.1-.3.2-.5-.5-1.5-.5-1.5.2-.3.4-.7.6-1 .1-.2.2-.3.2-.5.1-.1.1-.3.2-.4.2-.5.2-.9-.2-1h-.8c-.1 0-.3.1-.5.1-.1 0-.2.1-.3.1-.1 0-.2.1-.3.1-.5.2-.6.2-.7 0-.1-.1-.1-.4-.5-.4-.2 0-.5 0-.7.1-.2.1-.5.2-.8.4-.6.3-1.1.8-1.7 1.4-1.1 1.2-2.2 3-3 4.8-.1.3-.3.7-.4 1-.1.2-.1.3-.2.5 0 .2-.1.3-.1.5-.1.3-.2.6-.2.9-.1.3-.1.6-.2.9-.2 1.1-.2 2.2-.2 3.2v.8c0 .2 0 .5.1.7 0 .2 0 .5.1.7 0 .2.1.5.1.8.1.5.1 1 .2 1.5s.1 1.1.2 1.7c.1 1.6.2 3.6.3 5.7 0 .8.1 1.5.1 2.3-.3-.2-.6-.5-1-.8v-.1s-.1-.2-.2-.6c-.1-.4-.2-.9-.3-1.4-.1-.5-.2-1.1-.2-1.5 0-.5-.1-.8-.1-1-.1-1.3-.3-1.5-.5-1.1-.1.2-.2.5-.3 1-.1.4-.2.9-.2 1.5 0 .8.1 1.5.1 2.2-.4-.2-.7-.4-1.1-.5-1-.4-2.1-.7-3.3-.8-.6-.1-1.3-.1-1.9 0-.7 0-1.3.1-2 .3-.7.2-1.4.4-2.1.7-.7.3-1.4.6-2.1 1.1-.7.4-1.3 1-1.9 1.6-.6.6-1.1 1.3-1.6 2-1.9 2.9-2.8 6.5-2.3 10.2.2 1.8.7 3.6 1.4 5.3.7 1.7 1.6 3.3 2.7 4.7 1.1 1.5 2.3 2.8 3.5 4.1.2.2.4.4.6.5-5.4-.8-11.2 0-16.5 2.5-3.1 1.4-5.9 3.4-8.5 5.7-.6.5-1.1 1-1.6 1.5-1.4-.5-2.9-.9-4.4-1.1-3.7-.4-7.3.4-10.2 2.4-.7.5-1.4 1-2 1.6-.6.6-1.1 1.3-1.5 1.9-.4.7-.8 1.4-1.1 2.1-.3.7-.5 1.4-.7 2.1-.2.7-.2 1.4-.3 2v1.9c0 .5.1.9.2 1.3-.5 0-1-.2-1.5-.3-3.7-.9-7.4-2.8-10.2-5.2-1.7-1.4-3.2-3.1-4.7-4.8-.4-.4-.7-.9-1.1-1.3-.3-.4-.7-.8-1.1-1.3-.3-.4-.7-.9-1-1.3l-.5-.6c-.2-.2-.3-.4-.5-.7-.4-.5-.7-1.1-1-1.7-.3-.6-.6-1.3-.8-2-.3-.7-.5-1.3-.8-1.9-.3-.6-.7-1.1-1-1.6-.7.4.4 2.5.6 3l-.9-1.5c-.1.1 0 .7.2 1.7.1.5.4 1 .6 1.6.1.3.3.6.4 1 .1.3.3.7.5 1 0 0 0-.1-.1-.2s-.2-.3-.3-.5c-.2-.4-.6-1.1-.9-1.8l-.3-.6c-.1-.2-.2-.4-.3-.7-.2-.4-.4-.9-.6-1.4l-.6-1.5c-.2-.5-.4-1.1-.6-1.6-.3-1.1-.6-2.2-.9-3.2-.2-1.1-.4-2-.6-2.9-.2-1.7-.3-2.9-.3-2.9l-.9.3s0 .3.1.8c0 .3.1.6.1 1 .1.4.1.9.2 1.4.1.5.2 1.1.3 1.7.1.3.1.6.2.9.1.3.2.7.3 1 .2.7.4 1.4.6 2.2.3.8.5 1.5.8 2.4 1.3 3.3 3.2 6.9 5.8 10.4 2.6 3.5 5.9 6.8 9.8 9.5.5.3 1 .7 1.4 1l1.5.9c1 .6 2.1 1.1 3.1 1.6.5.3 1 .5 1.6.7.4.2.8.3 1.2.5-.2 0-.4.1-.6.1-.4.1-.8.2-1 .3-.4.2-.2.4 1.1.5.2 0 .5.1 1 .1.5.1 1 .1 1.5.2s1 .2 1.4.3c.4.1.6.1.6.2h.1c.3.4.5.7.8 1-.8 0-1.5-.1-2.3-.1-2-.1-4-.2-5.7-.3-.6-.1-1.1-.1-1.7-.2-.5 0-1-.1-1.5-.2-.3 0-.5 0-.8-.1-.2 0-.5-.1-.7-.1h-1.5c-1 0-2.1 0-3.2.2-.3 0-.6.1-.9.2-.3.1-.6.2-.9.2-.2 0-.3.1-.5.1-.2.1-.3.1-.5.2-.3.1-.7.2-1 .4-.4.2-.7.3-1 .5-2.5-4 2.4-16.3-8-20.6-3.2-1.4-13.4-2-19.8-6.4 4.3 5.4 5.3 16 6.6 19.2 4.5 10.2 16.9 5.5 21 7.9-.8.4-1.6.9-2.3 1.3-3.2.2-6.3.6-9.3 1.1-3.7.6-7.2 1.2-10.7 1.8-1.2.2-2.4.4-3.6.5.3.3.6.6 1 .8 2.1.8 3.2 1.5 4.4 2zm207.8-7.2c.1.1.2.1.2.2-.2-.1-.4-.2-.5-.3.1 0 .2.1.3.1zm-158.1 5.5c-.3.1-.5.1-.8.2h-.1c.6-1.5 1.3-3.1 2-4.6 2.4.4 4.8.8 7.2 1.3.2 0 .4.1.6.1-.8.3-1.6.7-2.5 1-.3.1-.5.2-.8.3-.3.1-.5.2-.8.3-.5.2-1.1.3-1.6.5-.3.1-.5.2-.8.2-.3.1-.5.1-.8.2-.5.3-1 .4-1.6.5zm10.3-6c-.1 0-.1 0 0 0h4.7c.5 0 .9.1 1.4.1-1 .4-2 .8-2.9 1.2-1-.5-2.2-.9-3.2-1.3zm1.2.9c-.1-.1-.6-.1-.6-.2.3 0 .5.1.6.2zm-.4 5.1c1.3-.6 2.6-1.1 3.9-1.7 2.6.5 5.1.9 7.7 1.2-1.4.1-2.7.3-4 .4-3.6.3-6.8.7-9.7.9.7-.2 1.4-.5 2.1-.8zm10.6-2.3c-.9-.4-1.9-.7-3-1 .1-.1.3-.1.4-.2 1.1.3 2.1.7 2.6 1.2zm-1.8-1.4c.1 0 .4.1.4.1-.3 0-.3-.1-.4-.1zm10.7-6.7s.1-.2 0-.3c.3.2.8.5 1.2.7.6.3 1.3.5 2 .7-1.1.5-2.2.6-3.3.4h-.2l.1-.1c.1-.2.1-.5.1-.7 0-.3 0-.6.1-.7zm1.1 8.3s-.1 0 0 0c-.4-.1-.7-.1-1-.1-.3 0-.6-.1-.9-.1-.3 0-.6-.1-.9-.1-1.7-.3-2.2.1-3.7-.3-.2-.1-.6-.2-1.1-.3-.5-.1-1-.2-1.6-.3-.9-.2-1.8-.4-2.1-.6l.4-.1c1-.4 2.1-.7 3.1-1 1.6-.4 3.2-.7 4.7-.8.3.5.7.9 1 1.3.4.8 1.2 1.6 2.1 2.4zm29.8 15.6c-.7 2.7-2.5 5.2-4.7 7.1l-.9.7-.9.6-.9.6c-.3.2-.7.3-1 .5-1.4.6-2.8 1.1-4.3 1.5-3 .7-6.2.7-9.3.2-3.2-.5-6.3-1.4-9.3-2.7-3-1.3-6-2.9-8.8-4.7-5.7-3.7-11.2-8.3-17.3-12.4-.8-.5-1.5-1-2.3-1.5-.1-.1-.3-.2-.4-.2 1-.2 2-.4 2.9-.7.6-.2 1.2-.3 1.8-.5 3.6-.3 7.9-.7 12.8-1.1 3.2-.3 6.8-.5 10.5-.8h2.6l1.9-.1h.9l.9-.1h.9c.2 0 .4.1.6.1l.9.6c1.3.9 2.7 1.5 4 2 1.3.5 2.5.7 3.6.9 1.1.1 2.1.1 2.9 0 .2 0 .4-.1.6-.1.1 0 .2 0 .3-.1-.1.1-.1.3-.2.4-.1.2-.2.5-.3.7-3.3-.4-8.3-2.1-11.2 2.6-1.2 1.8-2.7 8-6.1 11.5 3.8-2.1 10.4-1.5 12.6-2 6.9-1.7 5.1-10.1 7.3-12.2-.5.3-1.2.3-2 .2l.1-.1.5-.8.2-.3h.1c.1 0 .3-.1.4-.1.1 0 .3-.1.4-.1.1 0 .2-.1.3-.1.2-.1.4-.2.5-.2.1-.1.2-.1.3-.2.1 0 .1-.1.1-.1.6-.3 1.2-.7 1.7-1.2.2-.1.3-.3.5-.5 0 0 .1 0 .1.1l.6.3c-.6.8-1.2 1.8-1.7 2.8l-.6 1.2c-.2.4-.3.9-.4 1.3-.3.9-.4 1.7-.6 2.6l-.1.6-.1.7-.2 1.3c-.1.9-.2 1.7-.4 2.5-.4.8-.8 1.5-1.2 2.2-.2.3-.4.7-.6 1-.2.4-.4.7-.6 1.1-.3.5-.5 1-.8 1.4-.3.5-.5.9-.7 1.4-.4 1-.7 1.9-.9 3 1.3-.4 2.1-1.5 2.8-2.8.4-.6.7-1.3 1.1-1.9.3-.6.7-1.2 1.1-1.7.4-.4.7-.9 1-1.3.3-.4.6-.9 1-1.4 0 0 .5-.6 1.4-1.6.2-.2.4-.5.7-.8l.8-.8c.5-.6 1.1-1.2 1.7-1.8.6-.6 1.2-1.1 1.8-1.7.3-.3.6-.5.8-.8.3-.2.5-.4.8-.6l.2-.2.2.4c.1.3.2.6.3 1 .1.3.1.7.2 1-.4 1.5-.5 2.9-.9 4.2zm-19-18.5c-.1.4-.4.8-.7 1.2-.1.1-.4.5-.7.9-.3-.4-.7-.9-1.1-1.3l-.4-.4-.4-.4c-.3-.2-.6-.5-1-.8-.2-.1-.4-.2-.6-.4h.4c.9.1 1.7.2 2.6.3.5.1 1 .2 1.4.3 0 0-.1 0-.1.1.2.2.4.4.6.5zm6 1.1c.4.1.8.3 1.2.4-.6.2-1.2.3-1.8.5-.7.2-1.4.3-2.2.4-.3-.2-.6-.4-.8-.6.4-.4.7-.9 1-1.4 1 .2 1.9.4 2.6.7zm-.4-23.6h.2c.2.1.3.3.5.4 0 .2.1.5.1.7-.2-.4-.5-.7-.8-1.1zm5.8-8.1c.1.5.2 1.1.4 1.6.1.5.2.9.3 1.1.4 1.5 0 2 .3 3.7.1.3.1.6.1.9 0 .3.1.6.1.9 0 .3.1.6.1.9v.1c-.8-.9-1.6-1.6-2.6-2.2-.4-.4-.8-.7-1.3-1 .1-1.5.4-3.1.8-4.7.3-1 .6-2.1 1-3.1l.1-.4c.3.4.5 1.3.7 2.2zm-.3-2.5c0 .2.1.1.1.4-.1 0-.2-.3-.1-.4zm.1-.8c.1-.1.1-.3.2-.4.3 1 .7 2 1 3-.4-.5-.8-1.5-1.2-2.6zm.7 37.2c-.2.1-.5.2-.7.2-.5-.2-1-.3-1.4-.4l.3-.6c.2.1.3.1.5.2.4.2.9.3 1.3.6zm.2.2c.1 0 .1 0 .2-.1l.6.3c0 .1-.1.1-.1.2s-.1.1-.1.2c-.1 0-.1 0-.2-.1-.2-.1-.4-.1-.6-.2.1-.1.2-.2.2-.3zm-.2.1v.2c-.1 0-.2-.1-.3-.1.1-.1.2-.1.3-.1zm-.5 1.9l-.1.1c-.4.4-.8.7-1.2 1-.1.1-.2.1-.3.2l-.2.1-.2.1c-.1.1-.2.1-.4.2-.1.1-.2.1-.4.2-.3.1-.7.3-1 .4v-.1l.9-1.7.6-1.2c.8.1 1.6.4 2.3.7zm-2-19.4c0-.2-.1-.4-.1-.7.2.2.4.5.5.7.1.2.3.3.4.4l.4.4c.4.4.9.8 1.3 1.1-.3.3-.7.6-.9.7-.5.4-1 .6-1.6.8v-.6c.2-.8.1-1.8 0-2.8zm0-4.5c.1.2.2.4.4.5.1.1.2.2.4.3.4.6.7 1.1 1 1.7.5 1 .9 1.9 1.2 3-.3-.3-.5-.6-.8-.9-.1-.1-.2-.3-.3-.4-.1-.1-.2-.3-.3-.4-.2-.3-.4-.6-.5-1-.4-.7-.7-1.4-.9-2.2-.1-.3-.1-.5-.2-.6zm2.5 13.3c-.1.3-.1.5-.2.8 0-.2-.1-.4-.1-.6-.1-.3-.1-.6-.2-.9-.1-.3-.2-.6-.3-.8-.1-.2-.2-.4-.4-.6.4-.3.7-.5 1-.8l.4.4.2.2c-.1.8-.3 1.6-.4 2.3zm.3-2.6c-.1-.1-.1-.2-.2-.2l-.2-.2.2-.2c.2-.2.4-.4.5-.6-.1.4-.1.9-.2 1.3 0 0-.1 0-.1-.1zm-2.6 10c-.1.2-.2.5-.3.7-.3-.1-.7-.1-1-.2l-2.4-.3 1.8-.6.6-.2h.1c.4.3.8.5 1.2.6zm-7-.3c.1.1.2.1.2.2.1.1.2.2.3.2-.2 0-.4.1-.5.1h-.8c.2-.1.3-.3.5-.4l.2-.2.1.1zm1.5 2c1.3.1 2.6.2 3.9.5.2 0 .4.1.6.1-.2.5-.5 1-.8 1.5l-.6 1.2c-.1.2-.1.3-.2.4-1.6.3-3.4.3-5.2-.1-1.3-.3-2.5-.8-3.8-1.4-.7-.4-1.4-.8-2.1-1.3 1.1 0 2.1-.3 3.2-.7.1.1.1.2.2.3.1.1.1.2.2.3.1.2.2.4.3.5.1.2.2.3.3.5.1.2.2.3.2.4.2.5.3.8.3.8v-.2c0-.1-.1-.4-.1-.6 0-.1-.1-.3-.1-.5s-.1-.4-.2-.6c-.1-.2-.1-.4-.2-.6 0-.1-.1-.2-.1-.3 0-.1-.1-.1-.1-.2 1.4 0 2.9-.1 4.3 0zm-8.4-2.8c.2.1.3.2.5.3.1.1.3.2.4.3.3.2.6.5.9.8-.2 0-.5.1-.8.1h-.5c-.1 0-.3 0-.4-.1-.1.1-.3.2-.5.3-.2.1-.3 0-.4-.3-.1-.1-.3-.2-.4-.3-.1-.1-.3-.2-.4-.3-.1-.1-.4-.1-.7-.1-.1 0-.1 0-.2-.1-.1 0-.1-.1-.1-.1-.1-.1-.1-.2-.1-.4-.1-.2-.1-.4-.1-.5 0-.1-.1-.3-.1-.4-.1-.2-.2-.4-.3-.5-.2-.1-.3-.3-.5-.4.2 0 .3.1.5.1.8.3 1.5.6 2.2.9.4.3.7.5 1 .7zm26.8 3.8c-.2-.1-.3-.2-.2-.5.1-.2.1-.4.2-.6.1.2.2.4.2.6.1.3 0 .5-.2.5zm63.4 3.4c-.8.5-1.6 1-2.3 1.5-6.1 4.1-11.6 8.6-17.3 12.4-2.8 1.8-5.8 3.4-8.8 4.7-3 1.3-6.2 2.2-9.3 2.7-3.2.5-6.3.5-9.3-.2-1.5-.3-2.9-.8-4.3-1.5-.3-.2-.7-.3-1-.5l-.9-.6-.9-.6-.9-.7c-2.2-1.9-3.9-4.4-4.7-7.1-.4-1.3-.5-2.7-.3-4.1 0-.3.1-.7.2-1 .1-.3.1-.7.3-1l.2-.4.2.2c.2.2.5.4.8.6.3.2.5.5.8.8.6.5 1.2 1.1 1.8 1.7.6.6 1.2 1.2 1.7 1.8l.8.8c.2.3.5.5.7.8.8.9 1.4 1.6 1.4 1.6.4.4.7.9 1 1.4.3.4.7.9 1 1.3.4.5.8 1.1 1.1 1.7.3.6.7 1.3 1.1 1.9.7 1.2 1.5 2.3 2.8 2.8-.2-1.1-.5-2.1-.9-3-.2-.5-.4-.9-.7-1.4-.3-.5-.5-.9-.8-1.4-.2-.4-.4-.8-.6-1.1-.2-.4-.4-.7-.6-1-.4-.7-.8-1.4-1.2-2.2-.2-.8-.3-1.7-.4-2.5l-.2-1.3-.1-.7-.1-.6c-.2-.8-.4-1.7-.6-2.6-.1-.4-.3-.9-.4-1.3l-.6-1.2c-.6-1-1.1-2-1.7-2.8l.6-.3s.1 0 .1-.1l.5.5c.5.5 1.1.9 1.7 1.2l.1.1c.1 0 .2.1.3.2.1.1.3.1.5.2.1 0 .2.1.3.1.1 0 .2.1.4.1.1 0 .3.1.4.1h.1l.2.3.5.8.1.1c-.8.1-1.5 0-2-.2 2.1 2.1.3 10.5 7.3 12.2 2.1.5 8.8 0 12.6 2-3.4-3.5-4.9-9.7-6.1-11.5-3-4.6-7.9-3-11.2-2.6-.1-.2-.2-.5-.3-.7-.1-.1-.1-.3-.2-.4.1 0 .2 0 .3.1.2 0 .4.1.6.1.8.1 1.8.1 2.9 0 1.1-.1 2.3-.4 3.6-.9 1.3-.5 2.6-1.1 4-2l.9-.6c.2 0 .4 0 .6-.1h.9l.9.1h.9l1.9.1h2.6c3.7.3 7.3.6 10.5.8 4.9.4 9.2.8 12.8 1.1.6.2 1.2.4 1.8.5 1 .3 2 .5 2.9.7-.7-.1-.9 0-1 .1zm-53.2-32.6c.3-1.7-.1-2.2.3-3.7.1-.2.2-.6.3-1.1.1-.5.2-1 .4-1.6.2-.9.4-1.8.6-2.1l.1.4c.4 1 .7 2.1 1 3.1.4 1.6.7 3.2.8 4.7-.5.3-.9.7-1.3 1-.9.5-1.8 1.3-2.6 2.2v-.1c0-.3.1-.6.1-.9 0-.3.1-.6.1-.9.1-.4.2-.7.2-1zm0-7.1c.4-.9.7-1.9 1-3 0 .1.1.3.1.4-.3 1.1-.7 2.1-1.1 2.6zm1.2-1.5c0-.2.1-.2.1-.4 0 .2 0 .5-.1.4zm5.1 33.9c.8-.3 1.6-.5 2.5-.7.3.5.7 1 1 1.4-.2.2-.5.4-.8.6-.7-.1-1.5-.3-2.2-.4-.6-.1-1.2-.3-1.8-.5.5-.2.9-.3 1.3-.4zm-.3-22.5c0-.2.1-.5.1-.7.2-.1.3-.3.5-.4h.2c-.3.4-.6.7-.8 1.1zm6.9 20.9c.5-.1 1-.2 1.4-.3.9-.1 1.8-.2 2.6-.3h.4c-.2.1-.4.2-.6.4-.4.2-.7.5-1 .8-.2.1-.3.3-.4.4l-.4.4c-.4.4-.8.9-1.1 1.3-.3-.4-.6-.8-.7-.9-.3-.4-.5-.8-.7-1.2.2-.1.4-.3.6-.4l-.1-.2zm6.3 2.2l-.1.1c-.1 0-.1 0-.2.1-.2.1-.5.1-.7.1-.1.1-.3.2-.4.3-.1.1-.3.2-.4.3-.1.3-.2.3-.4.3-.2-.1-.3-.2-.5-.3-.1.1-.2.1-.4.1h-.5c-.3 0-.6-.1-.8-.1.3-.3.6-.5.9-.8.1-.1.3-.2.4-.3.1-.1.3-.2.5-.3.3-.2.6-.4 1-.5.7-.4 1.4-.7 2.2-.9.2 0 .3-.1.5-.1-.2.1-.4.2-.5.4-.2.2-.3.3-.3.5 0 .1-.1.2-.1.4 0 .1-.1.3-.1.5 0 0-.1.1-.1.2zm-6.6 2.3c0 .1-.1.1-.1.2-.1.1-.1.2-.1.3-.1.2-.2.4-.2.6-.1.2-.1.4-.2.6 0 .2-.1.3-.1.5 0 .3-.1.5-.1.6v.2s.1-.3.3-.8c.1-.1.1-.3.2-.4.1-.1.2-.3.3-.5.1-.2.2-.3.3-.5.1-.1.1-.2.2-.3.1-.1.1-.2.2-.3 1.1.5 2.2.7 3.2.7-.7.5-1.4.9-2.1 1.3-1.2.6-2.5 1.1-3.8 1.4-1.8.4-3.6.5-5.2.1-.1-.2-.1-.3-.2-.4l-.6-1.2c-.3-.5-.5-1-.8-1.5.2 0 .4-.1.6-.1 1.3-.3 2.6-.4 3.9-.5 1.4-.1 2.8 0 4.3 0zm-7.9 3.7c-.4-.1-.7-.2-1-.4-.1-.1-.2-.1-.4-.2-.1-.1-.2-.1-.4-.2l-.2-.1-.2-.1c-.1-.1-.2-.1-.3-.2-.4-.3-.9-.6-1.2-1l-.1-.1c.8-.3 1.5-.6 2.3-.8l.6 1.2.9 1.9zm5.1-5.2c-.2 0-.4-.1-.5-.1.1 0 .2-.1.3-.2.1-.1.2-.1.2-.2l.1-.1.2.2c.2.2.3.3.5.4h-.8zm-3.4.1l-2.4.3c-.3.1-.7.1-1 .2-.1-.2-.2-.5-.3-.7.4-.2.8-.3 1.2-.5h.1l.6.2 1.8.5zm-4.6-15.6l.4-.4.4-.4c.2-.2.4-.5.5-.7 0 .2-.1.4-.1.7-.1 1-.2 2-.2 2.9 0 .2 0 .4.1.6-.6-.1-1.1-.4-1.6-.8-.1-.1-.5-.4-.9-.7.5-.4.9-.8 1.4-1.2zm-1.8 0c.3-1 .8-2 1.2-3 .3-.6.6-1.2 1-1.7.1-.1.2-.2.4-.3.1-.2.3-.3.4-.5 0 .2-.1.3-.1.5-.3.8-.6 1.5-.9 2.2-.2.3-.4.7-.6 1-.1.2-.2.3-.3.4-.1.1-.2.3-.3.4-.3.4-.6.7-.8 1zm.4 4.8l.2.2c-.1 0-.1.1-.2.2l-.2.2c0 .1-.1.1-.1.2-.1-.4-.1-.9-.2-1.3l.5.5zm-.1.6l.4-.4c.3.3.7.6 1 .8-.1.2-.3.4-.4.6-.1.3-.2.6-.3.8-.1.3-.1.6-.2.9 0 .2-.1.4-.1.6-.1-.3-.1-.5-.2-.8-.2-.8-.3-1.5-.4-2.3 0-.1.1-.1.2-.2zm1.5 10.3c.1-.1.3-.1.5-.2l.3.6c-.5.1-1 .2-1.4.4-.2-.1-.5-.1-.7-.2v-.1c.4-.2.8-.3 1.3-.5zm-1 1c-.1 0-.2.1-.3.1v-.2c.1 0 .2 0 .3.1zm-.4.1c-.2.1-.4.1-.6.2-.1 0-.1 0-.2.1 0-.1-.1-.1-.1-.2s-.1-.1-.1-.2l.6-.3c.1 0 .1 0 .2.1s.2.2.2.3zm35.4-2.3c.1.1.3.1.4.2-1 .3-2 .6-3 1 .5-.5 1.5-.9 2.6-1.2zm-1.2-.1s.3-.1.4-.1c-.2 0-.1.1-.4.1zm7-1.2c-1-.4-1.9-.8-2.9-1.2.5 0 .9-.1 1.4-.1h4.6c-1.1.5-2.3.9-3.1 1.3zm2.3-.6c0 .1-.4.1-.6.2.1 0 .4-.1.6-.2zm-4 3.7c1.3.6 2.6 1.1 3.9 1.7l2.1.9c-2.9-.3-6.1-.6-9.7-.9-1.3-.1-2.7-.3-4-.4 2.6-.4 5.2-.8 7.7-1.3zm-7.4-1.7c-.5.1-1.1.2-1.6.3-.5.1-.9.2-1.1.3-1.5.4-2 0-3.7.3-.3.1-.6.1-.9.1-.3 0-.6.1-.9.1-.3 0-.6.1-.9.1h-.1c.9-.8 1.6-1.6 2.2-2.6.4-.4.7-.8 1-1.3 1.5.1 3.1.4 4.7.8 1 .3 2.1.6 3.1 1l.4.1c-.4.4-1.3.6-2.2.8zm-8.2-5.5c-1.2.2-2.3.1-3.3-.4.7-.2 1.4-.4 2-.7.5-.2.9-.4 1.2-.7v.3c.1.1.1.3.1.6s0 .6.1.7l.1.1s-.1.1-.2.1zm31.3 9.1c-.3-.1-.5-.1-.8-.2-.5-.1-1.1-.2-1.6-.4-.3-.1-.5-.1-.8-.2-.3-.1-.5-.1-.8-.2-.5-.2-1.1-.3-1.6-.5-.3-.1-.5-.2-.8-.3-.3-.1-.5-.2-.8-.3-.8-.3-1.6-.6-2.5-1 .2 0 .4-.1.6-.1 2.4-.5 4.8-1 7.2-1.3.7 1.5 1.4 3 1.9 4.5.1 0 .1 0 0 0zm12.3-4.9c1.2.2 2.4.4 3.5.8-.8.1-1.7.3-2.5.5-.5.1-1 .2-1.4.4-.2.1-.5.1-.7.2l-.7.2-1.4.4c-.5.1-.9.3-1.4.5-.5.2-.9.3-1.4.5l-1.3.6c-.5.2-1 .5-1.6.7-.3-1-.7-1.9-1-2.9-.2-.7-.5-1.3-.7-2 3.6-.4 7.2-.4 10.6.1zm-7.2-15.6c.9 1.3 1.6 3 1.8 4.7.1.9.2 1.8.1 2.6 0 .2-.1.4-.1.5h-2.1c.2-.3.3-.6.4-.9.2-.5.3-1 .4-1.5.1-.5.2-1.1.2-1.7 0-1.1-.2-2.4-.7-3.7zm.1 12.8c-.1.2-.3.5-.4.7-.1.1-.1.1-.1.2-1 .1-2 .1-2.9.2.1-.1.4-.2.8-.3.4-.1.9-.3 1.5-.4.3-.3.7-.4 1.1-.4zm-13.4-17c.6-.1 1.3-.1 1.9-.1.6 0 1.2.1 1.8.2.6.1 1.2.3 1.8.5.6.2 1.1.5 1.6.7.5.3 1 .6 1.4 1l1.2 1.2c.7.9 1.2 1.8 1.4 2.9.3 1 .3 2.1.2 3-.1.5-.2.9-.3 1.4-.1.4-.3.7-.5 1-.4 0-.9-.1-1.3-.2-.9-.1-1.9-.2-2.8-.2h-.1c-1.4-2.7-2.9-5.2-4.6-7.7-.9-1.2-1.8-2.4-2.8-3.6.3 0 .7-.1 1.1-.1zm-18-2.5v-.3c0-.2.1-.4.2-.5.2-.3.4-.7.7-.9 1 .3 2 .7 3 1.2 1.9.9 3.8 2.1 5.5 3.4-.2.1-.4.3-.6.4-1.5 1.1-2.9 2.2-4.1 3.5-1.3 1.3-2.5 2.6-3.6 4-.1.1-.1.2-.2.3v-.5c.1-.8 0-1.7 0-2.5-.1-.8-.1-1.6-.2-2.3-.1-1-.3-1.8-.4-2.4-.1-.6-.2-1.2-.2-1.7s-.1-.9-.1-1.3v-.4zm0 15.3c.1-.3.2-.5.2-.8 1.4-1.7 2.9-3.4 4.6-5 1.8-1.7 3.8-3.3 6-4.5.2-.1.5-.3.7-.4 1.2 1.1 2.4 2.3 3.5 3.5 1.8 2 3.4 4.2 4.8 6.5-.3.1-.5.1-.8.2-.6.2-1.2.4-1.7.6-1-.2-2.1-.5-3.1-.8l-3-.9c.1-.8-1.3-.7-2.8-.5-1.5.2-3.2.7-3.5.8-1.5.5-3.4 1.5-5.3 2.5.1-.5.3-.8.4-1.2zm-11-15.3c.4.3.9.8 1.1 1.3.6.4 1.4.3 2.2.1.2-.1 1.1-.4 1.9-.9.4-.2.7-.5 1-.8.2-.2.3-.4.3-.5-.1-.1.2-.5.6-.9.3-.4.6-.7.7-.8.1 0 .2-.1.3-.2h.4c.3 0 .5.1.8.2-.4.2-.8.5-1 1.1 0 .1-.4.4-.8.7-.4.3-.7.6-.9.6-.1-.1-.3.1-.5.3-.2.2-.5.6-.8.9-.5.8-.9 1.7-.9 1.9-.2.7-.3 1.5.1 2.2.5.2 1.1.7 1.3 1.1.4.6-.2 1.9-.7 2.5 0 .3-.5.8-.7 1.1l-.6 1.2c-.2.2-.2.8-.2 1.1-.5-.1-1-.1-1.6-.1-.6 0-1.2.1-1.8.2-.4.1-.9.1-1.3.1s-.8 0-1.2-.1c-.8-.1-1.6-.4-2.4-.7.1 0-.1-.1-.4-.1-.2 0-.4-.1-.7-.1h-3.7c-.5.1-1.1.2-1.6.4 0-.8.1-1.7.2-2.5.3-1.8 1.1-3.6 2.1-5.2.4-.6.9-1.3 1.5-1.8.4.2.8.2 1.1 0 .1 0 .9 0 1.2-.2.3-.2.8-.4 1.2-.6.3-.2.8-.6 1.1-.7.8-.7 2-1.3 2.7-.8zm-13.9-36.3c.1 0 .1-.1.2-.1.2-.1.4-.3.7-.4l-.3 1.2c-.2.5-.3 1-.4 1.5-.1.4-.3.7-.3.8 0-1 0-2 .1-3zm-.2 10.4c.7-2.1 1.4-4 1.9-6.2.4-1.5.6-2.9.8-4.3 0-.4.1-.9.1-1.3.4-.2.8-.3 1.2-.4.8-.2 1.6-.4 2.5-.5.9-.1 1.8 0 2.6.1 1.7.3 3.4.9 4.7 1.9-1.3-.5-2.6-.8-3.8-.8-.6 0-1.2.1-1.7.1-.5.1-1 .2-1.5.4-.9.4-1.7.8-2.3 1.4-.6.5-1.1 1.1-1.4 1.6-.7 1.1-.8 2.1-.7 2.7 0 .2.1.3.1.5.1.1.1.3.2.4.1.2.3.3.5.4.1-.3.2-.7.3-1.1.1-.4.4-.7.6-1.1.2-.3.5-.7.8-1s.7-.6 1-.8l1.2-.6c.4-.2.9-.3 1.4-.3 1-.1 2-.1 3 .2 1 .3 2 .8 2.9 1.5.4.4.8.7 1.2 1.2.4.4.7.9 1 1.4.3.5.5 1.1.7 1.6.2.6.3 1.2.5 1.8.1.6.2 1.2.2 1.8 0 .6 0 1.2-.1 1.9-.3 2.5-1.2 4.9-2.5 7.1-1.3 2.2-2.9 4.2-4.6 5.9-.5.6-1.1 1.1-1.7 1.6-1.2.4-2.4.9-3.5 1.4-1.4.7-2.7 1.5-3.8 2.4-.1-1-.2-2.1-.5-3.1-.2-1.1-.5-2.3-.9-3.4l-.1-.4-.1-.4-.1-.4v-.2l-.1-.2c-.2-.6-.4-1.1-.6-1.7l-1.2-3c.5-.8.9-2 1.2-3 .6-1.8.6-3.5.6-5.1zm-.9-33.1c.1.1.1.3.1.3-.1-.1-.2-.3-.3-.5.1-.1.2 0 .2.2zm-.3 39c-.1.2-.2.5-.2.6 0-.2 0-.7.2-.6zM310 85c-.1 0-.2-.3-.3-.5.1.1.2.3.3.5zm-4.2 3.6c.1 0 .1.1.2.2-.1 0-.2-.1-.2-.2zm1.4 32c-.1-.3-.2-.5-.3-.8-.2-.5-.3-1.1-.5-1.6-.1-.3-.2-.5-.2-.8-.1-.3-.1-.5-.2-.8-.2-.5-.3-1.1-.4-1.6-.1-.3-.1-.5-.2-.8 0-.3-.1-.5-.1-.8-.1-.5-.2-1.1-.3-1.6-.3-2.1-.5-4.2-.5-6.2-.1-2 0-3.9.2-5.6 0-.4.1-.9.1-1.3v-.6c0-.2.1-.4.1-.6.1-.4.1-.8.2-1.2.1-.4.1-.7.2-1.1.1-.4.1-.7.2-1 .1-.3.1-.6.2-.9.1-.3.1-.6.2-.9.1-.3.1-.5.2-.8.1-.3.1-.5.2-.7v-.1c.1.3.3.5.4.8.6 1 1.1 2.1 1.6 3.2s1 2.2 1.3 3.4c.4 1.2.6 2.4.8 3.7.4 3.4.4 7 0 10.6-.4 3.6-1.1 7.2-1.9 10.8 0 .2-.1.4-.1.6-.3-.8-.7-1.7-1-2.5-.1-.3-.1-.5-.2-.8zm0 40.9l.5 1.8.5 1.6c-.2.5-.4 1.1-.9 1.6l-.2.2c-.2-1.2-.4-2.7-.5-4.2.3-.4.4-.7.6-1zm-.5-.3c0-.5.1-1 .1-1.5v.1l.2.9.2.7c-.2.3-.4.6-.5.9-.1-.4 0-.8 0-1.1zm-.1 10.7c.1-.1.3-.1.5-.2.1.1.2.3.3.4-.2.1-.4.2-.7.3-.1-.1-.2-.2-.3-.4 0 0 .1 0 .2-.1zm-.7-3.9c0-.2-.1-.4-.1-.6l.5.2-.4.4zm-.1-2.1c.1.4.2.7.3 1-.1 0-.2-.1-.3-.2v-.8zm-1 3l-.2-.2c-.4-.4-.7-.8-1-1.2-.1-.1-.1-.2-.2-.3l-.1-.2-.1-.2c-.1-.1-.1-.2-.2-.4-.1-.1-.1-.2-.2-.4v-.1l.9.5 1.7.8.1.1c0 .3 0 .6.1.9-.2.2-.5.4-.8.7zm-2.2-9.8c.3-1.3.8-2.5 1.5-3.8.4-.7.8-1.4 1.3-2.1 0 .4.1.8.1 1.2-.2.9-.4 1.8-.5 2.7l-.1.1c-.2.1-.3.2-.5.3-.2.1-.3.1-.4.2-.5.2-.8.3-.8.3h.2c.1 0 .4 0 .6-.1.1 0 .3-.1.5-.1.1 0 .3-.1.5-.1-.1 1-.1 2-.1 2.9.1 1.9.4 3.6.8 5-.1.4-.1.8-.1 1.2-.7-.3-1.3-.6-2-1-.3-.2-.6-.3-1-.5-.6-1.8-.6-4 0-6.2zm-9.4 6.5l.8-.4.8-.5 1.6-.9 1.2-.8 1.2.8 1.6.9.8.5.8.4.3.2c0 .1.1.2.1.3.1.2.2.4.2.5.1.1.1.2.2.3 0 .1.1.1.1.1.3.6.7 1.2 1.2 1.7l.4.4c-.2.1-.4.3-.6.4l-.3.2c-.1-.1-.2-.1-.3-.2-.4-.3-.9-.6-1.3-.9.3-.3.6-.6.8-1-1.2-1.1-.8-1.9-2.9-1.7-.8.1-1.5.3-2.2.6-.7-.3-1.5-.5-2.2-.6-2.1-.2-1.7.6-2.9 1.7.2.4.5.7.8 1-.5.3-.9.6-1.3.9-.1.1-.2.1-.3.2l-.3-.2c-.2-.1-.4-.3-.6-.4l.4-.4c.5-.5.8-1.1 1.2-1.7l.1-.1c0-.1.1-.2.2-.3.1-.1.1-.3.2-.5 0-.1.1-.2.1-.3l.1-.2zm-2.8-5c0-.9 0-1.9-.1-2.9.2 0 .3.1.5.1s.3.1.5.1c.3 0 .5.1.6.1h.2s-.3-.1-.8-.3c-.1-.1-.3-.1-.4-.2-.2-.1-.3-.2-.5-.3l-.1-.1c-.1-.9-.2-1.8-.5-2.7.1-.4.1-.8.1-1.2.5.7.9 1.4 1.3 2.1.7 1.2 1.1 2.5 1.5 3.8.5 2.2.5 4.3 0 6.1-.3.2-.6.3-1 .5-.7.4-1.4.7-2 1 0-.4 0-.8-.1-1.2.4-1.4.7-3 .8-4.9zm-.7 6.7l.1-.1 1.7-.8.9-.5v.1c-.1.1-.1.2-.2.4-.1.1-.1.2-.2.4l-.1.2-.1.2c-.1.1-.1.2-.2.3-.3.4-.6.9-1 1.2l-.2.2c-.3-.2-.6-.5-.9-.7.1-.3.2-.6.2-.9zm-.2-1.3v.9c-.1.1-.2.1-.3.2.1-.5.2-.8.3-1.1zm0 1.4c0 .2-.1.4-.1.6-.2-.1-.3-.3-.4-.4l.5-.2zm-.5 4.6c-.1.1-.2.2-.3.4-.2-.1-.4-.2-.7-.3.1-.1.2-.3.3-.4.2.1.3.2.5.2 0 0 .1.1.2.1zm-.7-11.4l.2-.9v-.1c.1.5.1 1 .1 1.5v1.1c-.2-.3-.3-.6-.5-.9l.2-.7zm.3 1.9c0 1.6-.2 3-.4 4.3l-.2-.2c-.4-.5-.7-1.1-.9-1.6l.5-1.6.5-1.8c.2.2.3.5.5.9zm.9-73.9c0 .1-.1.2-.2.2.1-.1.1-.2.2-.2zm-3.9-4.1c-.1.1-.2.5-.3.5.1-.2.2-.4.3-.5zm-.7 17.4c.2-1.3.4-2.5.8-3.7.3-1.2.8-2.3 1.3-3.4s1.1-2.2 1.6-3.2c.1-.3.3-.5.4-.8v.1c.1.2.1.5.2.7.1.2.1.5.2.8.1.3.1.6.2.9.1.3.1.6.2.9.1.3.1.7.2 1 .1.4.1.7.2 1.1.1.4.1.8.2 1.2 0 .2.1.4.1.6v.6c0 .4.1.8.1 1.3.1 1.7.2 3.6.2 5.6 0 2-.2 4.1-.5 6.2-.1.5-.2 1.1-.3 1.6 0 .3-.1.5-.1.8-.1.3-.1.5-.2.8-.1.5-.2 1.1-.4 1.6-.1.3-.1.5-.2.8-.1.3-.1.5-.2.8-.2.5-.3 1.1-.5 1.6-.1.3-.2.5-.3.8-.1.3-.2.5-.3.8-.3.8-.6 1.6-1 2.5 0-.2-.1-.4-.1-.6-.8-3.6-1.5-7.2-1.9-10.8-.3-3.6-.4-7.2.1-10.6zm-.2 24.5c-.1-.1-.2-.3-.2-.6.1 0 .1.5.2.6zm-.7-39.5c.1-.1.1-.2.2-.2-.1.2-.2.4-.3.5 0-.1.1-.2.1-.3zm-1.2 22.5c.1.1.1.1.2.1.1 1 .1 2 .2 2.9-.1-.1-.2-.4-.3-.8-.1-.4-.3-.9-.4-1.5-.1-.4-.2-.9-.3-1.2.2.3.4.4.6.5zm-15.1 20.3c-1.3-2.2-2.2-4.6-2.5-7.1-.1-.6-.1-1.2-.1-1.9 0-.6.1-1.2.2-1.8.1-.6.3-1.2.5-1.8.2-.6.4-1.1.7-1.6.3-.5.6-1 1-1.4l1.2-1.2c.9-.7 1.8-1.2 2.9-1.5 1-.3 2.1-.3 3-.2.5.1.9.2 1.4.3l1.2.6c.4.2.7.5 1 .8.3.3.6.6.8 1 .2.3.4.7.6 1.1.1.4.3.7.3 1.1.2-.1.4-.2.5-.4.1-.1.1-.2.2-.4 0-.1.1-.3.1-.5.1-.7-.1-1.6-.7-2.7-.3-.5-.8-1.1-1.4-1.6-.6-.5-1.4-1-2.3-1.4-.5-.2-1-.3-1.5-.4-.5-.1-1.1-.2-1.7-.1-1.2 0-2.5.2-3.8.8 1.3-.9 3-1.6 4.7-1.9.9-.1 1.8-.2 2.6-.1.9.1 1.7.2 2.5.5.4.1.8.3 1.2.4 0 .4.1.9.1 1.3.2 1.4.4 2.8.8 4.3.6 2.2 1.2 4.1 1.9 6.2 0 1.6-.1 3.3.6 5.2.4 1 .8 2.2 1.2 3l-1.2 3c-.2.6-.4 1.1-.6 1.7l-.1.2v.2l-.1.4-.1.4-.1.4c-.3 1.1-.6 2.3-.9 3.4-.2 1-.4 2.1-.5 3.1-1.2-.9-2.4-1.7-3.8-2.4-1.1-.6-2.3-1-3.5-1.4-.6-.5-1.1-1.1-1.7-1.6-1.7-1.9-3.3-3.8-4.6-6zm-6.9 13.6h.4c.1.1.2.1.3.2.1 0 .4.4.7.8.3.4.6.7.6.9-.1.1.1.3.3.5.2.2.6.5 1 .8.8.5 1.7.9 1.9.9.7.2 1.5.2 2.2-.1.2-.5.7-1.1 1.1-1.3.6-.4 1.9.1 2.5.6.3 0 .8.5 1.1.7l1.2.6c.3.2 1.1.3 1.2.2.3.2.7.2 1.1 0 .5.6 1.1 1.2 1.5 1.8 1.1 1.6 1.8 3.4 2.1 5.2.2.8.2 1.7.2 2.5-.5-.2-1-.3-1.6-.4-.4-.1-1.7-.1-2.9 0h-.8c-.3 0-.5.1-.7.1-.4.1-.5.1-.4.1-.8.3-1.6.6-2.4.7-.4.1-.8.1-1.2.1-.4 0-.8 0-1.3-.1-.6-.1-1.2-.2-1.8-.2-.6 0-1.1 0-1.6.1 0-.3-.1-.9-.2-1.1-.2-.3-.4-.8-.6-1.2-.2-.3-.6-.8-.7-1.1-.5-.6-1.1-1.8-.7-2.5.3-.4.8-.9 1.3-1.1.3-.6.3-1.4.1-2.2-.1-.2-.4-1.1-.9-1.9-.3-.4-.5-.7-.8-.9-.3-.2-.4-.3-.5-.3-.1.1-.5-.2-.9-.6-.4-.3-.7-.6-.8-.7-.2-.5-.5-.9-1-1.1.5.1.7 0 1 0zm-6.6 2c1-.5 2-.9 3-1.2.3.2.5.6.7.9.1.2.1.4.2.5v.6c0 .4 0 .8-.1 1.3 0 .5-.1 1.1-.2 1.7-.1.7-.2 1.5-.4 2.4-.1.7-.2 1.5-.2 2.3-.1.8-.1 1.7 0 2.5v.5c-.1-.1-.1-.2-.2-.3-1.1-1.4-2.3-2.7-3.6-4-1.3-1.3-2.7-2.5-4.1-3.5-.2-.1-.4-.3-.6-.4 1.7-1.2 3.5-2.4 5.5-3.3zm-7.7 5.2c.2.1.5.2.7.4 2.2 1.3 4.2 2.8 6 4.5 1.7 1.6 3.2 3.3 4.6 5 .1.3.2.6.2.8.1.4.3.8.4 1.1-1.9-1-3.8-2-5.3-2.5-.3-.1-1.9-.5-3.5-.8-1.5-.2-3-.3-2.8.5l-3 .9c-1 .3-2 .6-3.1.8-.6-.2-1.1-.4-1.7-.6-.3-.1-.5-.1-.8-.2 1.4-2.3 3-4.4 4.8-6.5 1.2-1.2 2.3-2.4 3.5-3.4zm-17.6 4.3c.3-1 .7-2 1.4-2.9.4-.4.7-.8 1.2-1.2.4-.4.9-.7 1.4-1 .5-.3 1.1-.5 1.6-.7.6-.2 1.2-.4 1.8-.5.6-.1 1.2-.2 1.8-.2.6 0 1.2 0 1.9.1.4 0 .8.1 1.2.2-1 1.2-2 2.4-2.8 3.6-1.7 2.4-3.3 5-4.6 7.7h-.1c-1 0-1.9.1-2.8.2-.4 0-.9.1-1.3.2-.2-.3-.4-.7-.5-1-.2-.4-.3-.9-.3-1.4-.2-1.1-.1-2.1.1-3.1zm-3.6 5.7h-.3c0-.2-.1-.4-.1-.5-.1-.9 0-1.8.1-2.6.3-1.7.9-3.4 1.8-4.7-.5 1.3-.7 2.6-.7 3.8 0 .6.1 1.2.2 1.7s.2 1 .4 1.5c.1.3.3.6.4.9h-.4c-.5-.1-.9-.1-1.4-.1zm1.4 4.9l1.2.3c.5.1 1.1.3 1.5.4.4.1.7.3.8.3-.9-.1-1.9-.1-2.9-.2 0-.1-.1-.1-.1-.2-.2-.2-.4-.4-.5-.6zm-7.1 2.8c3.4-.5 7-.4 10.6-.1-.3.7-.5 1.3-.7 2-.4 1-.7 1.9-1 2.9-.5-.3-1-.5-1.6-.7l-1.3-.6c-.4-.2-.9-.3-1.4-.5-.5-.2-.9-.4-1.4-.5l-1.4-.4-.7-.2c-.2-.1-.5-.1-.7-.2-.5-.1-1-.2-1.4-.4-.8-.2-1.7-.3-2.5-.5 1.1-.4 2.2-.7 3.5-.8zm-15.1-.8c.1-.1.3-.1.3-.1-.1.1-.3.2-.5.3l.2-.2zm-9.8 25.4c4.9-3.4 8-10.5 9.8-12.3 6-6.3 13.5.8 17-.2-3 2-2.8 12.5-11.4 12.9-2.6.1-10.4-2-15.4-.4zm69.3-16.9c-1.2 1.2-.2 5.9-4.1 6.9-1.2.3-4.9 0-7.1 1.1 1.9-2 2.8-5.5 3.4-6.5 2.3-3.3 6.4-.7 7.8-1.5zm69.4 246.3h-.3c0 .1-.1.1.3 0 0 .1-.1 0 0 0zm-28.1 28.7v.1c-.1-.2 0-.2 0-.1zM262 422.3h.2-.2c0-.1-.1 0 0 0zm28.1 28.8v-.3c-.1 0-.1 0 0 .3-.1 0 0-.1 0 0zm-110.8-28.7c-.4.3-.8.7-1.2 1-2.1-.3-4.2-.5-6.3-.7-1.7-.1-3.3-.2-4.9-.2-.8 0-1.6.1-2.4.1-.8.1-1.6.1-2.4.2-.4.1-.8.1-1.2.1l-1.1.2c-.4.1-.7.2-1.1.2-.4.1-.7.2-1.1.3-1.4.4-2.8.9-4.2 1.4-2.6 1.1-5.1 2.6-6.9 4.3-1.9 1.7-3.2 3.7-4.1 5.8-.2-.1-.4-.3-.4-.7v-.7c0-.3.1-.6.2-1 .1-.2.1-.4.2-.6l.3-.6c.1-.2.2-.5.3-.7.1-.2.3-.5.4-.7.3-.5.7-1 1.1-1.6.2-.3.5-.5.7-.8l.4-.4.4-.4c.3-.3.6-.6 1-.8.3-.3.7-.5 1.1-.8.4-.3.8-.5 1.2-.8.4-.3.9-.5 1.3-.8 1.8-1 4-1.9 6.4-2.6.6-.2 1.2-.3 1.9-.5.6-.1 1.3-.3 2-.4 1.4-.2 2.8-.4 4.3-.4 3-.2 6.2-.1 9.6.3-3.9-.7-8.2-1.3-12.3-1.3-4.1 0-8.1.6-11.5 1.7-1.7.5-3.2 1.2-4.6 1.8-.3.2-.7.3-1 .5-.3.2-.6.3-.9.5-.3.2-.6.3-.8.5-.1.1-.3.2-.4.2-.1.1-.2.2-.4.2-.5.3-.9.6-1.3.9-.4.3-.7.5-.9.7-.5.4-.8.6-.9.6 0-.1.2-.5.7-.9.2-.3.5-.5.8-.9l1.1-1.1.3-.3c.1-.1.2-.2.4-.3.3-.2.5-.4.8-.6l.9-.6.9-.6c1.3-.8 2.9-1.7 4.6-2.4 3.4-1.5 7.7-2.5 12-2.9 4.4-.4 8.9-.1 13 .4-3.5-.7-6.9-1.2-10.1-1.4-1.6-.1-3.2-.1-4.8-.1-.8 0-1.6.1-2.3.1-.8.1-1.5.1-2.3.2-3 .4-5.7 1-8.2 1.8l-1.8.6c-.6.2-1.2.5-1.7.7-.5.3-1.1.5-1.6.8-.5.2-1 .5-1.5.8-.2.1-.5.3-.7.4-.2.1-.5.3-.7.4-.4.3-.9.5-1.3.8-.8.6-1.6 1.1-2.3 1.7-.3.3-.7.6-1 .8-.3.3-.6.6-.9.8-.3.3-.6.5-.8.7-.2.3-.5.5-.7.7-.4.5-.9.8-1.2 1.2-.3.4-.6.6-.9.9-.5.4-.9.6-1.1.5 2.2-3.9 5.2-7.2 8.7-9.6 3.4-2.5 7.2-4.2 11.1-5.4l1.5-.4c.2-.1.5-.1.7-.2l.7-.2 1.5-.3 1.5-.2c.5-.1 1-.1 1.5-.2s1-.1 1.5-.2l1.5-.1h4.4c1 .1 1.9.1 2.9.2 1.9.1 3.8.4 5.7.7 7.3 1.2 14.1 3.1 20.9 4.7-1.2.1-2.3.2-3.5.4-.6.1-1.3.2-1.9.4-.6.2-1.3.3-1.9.5l-1 .3-.9.3c-.3.1-.6.2-.9.4l-.9.4c-1 .8-2.1 1.5-3.2 2.3zm-1.2 1c.1 0 .3 0 .4.1-1.7 1.4-3.1 3.1-4.3 5-1.4 2.3-2.3 4.8-2.5 7.5v1.7c0 .7.1 1.6.4 2.5.2.8.5 1.6.8 2.2.3.6.5.9.5 1 0 0-.3-.4-.6-1s-.6-1.3-.8-2.2c-.2-.8-.3-1.7-.4-2.5V436c.2-2.7 1.1-5.3 2.5-7.6 1-1.9 2.4-3.6 4-5zm26.5-8.6c-1.8-1.9-5-8.9-9.8-12.3 5 1.6 12.8-.5 15.4-.4 8.6.5 8.4 10.9 11.4 12.9-3.5-1-11.1 6.1-17-.2zm51.7 3c-.7-1-1.5-4.5-3.4-6.5 2.1 1.2 5.9.9 7.1 1.1 3.9 1 2.9 5.7 4.1 6.9-1.5-.7-5.6 1.9-7.8-1.5zm178 5.2c-.4-.1-.8-.1-1.2-.1-.8-.1-1.6-.1-2.4-.2-.8 0-1.6-.1-2.4-.1-1.6 0-3.3 0-4.9.2-2.1.1-4.2.4-6.3.7-.4-.3-.8-.7-1.2-1-1.1-.8-2.2-1.5-3.4-2.1l-.9-.4c-.3-.1-.6-.2-.9-.4l-.9-.3-1-.3c-.6-.2-1.3-.3-1.9-.5-.6-.2-1.3-.3-1.9-.4-1.2-.2-2.3-.3-3.5-.4 6.7-1.6 13.6-3.6 20.9-4.7 1.9-.3 3.8-.5 5.7-.7 1-.1 1.9-.1 2.9-.2h4.4l1.5.1c.5 0 1 .1 1.5.2s1 .1 1.5.2l1.5.2 1.5.3.7.2c.2.1.5.1.7.2l1.5.4c3.9 1.2 7.7 2.9 11.1 5.4 3.5 2.4 6.5 5.8 8.7 9.6-.2.1-.5 0-1.1-.5-.3-.2-.6-.5-.9-.9-.3-.4-.8-.7-1.2-1.2l-.7-.7c-.3-.2-.5-.5-.8-.7-.3-.3-.6-.5-.9-.8-.3-.3-.7-.5-1-.8-.7-.6-1.5-1.1-2.3-1.7-.4-.3-.9-.6-1.3-.8-.2-.1-.5-.3-.7-.4-.2-.1-.5-.3-.7-.4-.5-.3-1-.6-1.5-.8-.5-.3-1.1-.5-1.6-.8-.6-.2-1.1-.5-1.7-.7l-1.8-.6c-2.5-.8-5.2-1.5-8.2-1.8-.7-.1-1.5-.1-2.3-.2-.8 0-1.5-.1-2.3-.1-1.6 0-3.2 0-4.8.1-3.3.2-6.7.7-10.1 1.4 4.1-.5 8.6-.7 13-.4 4.4.4 8.6 1.4 12 2.9 1.7.7 3.3 1.6 4.6 2.4l.9.6.9.6c.3.2.5.4.8.6.1.1.2.2.4.3l.3.3c.4.4.8.7 1.1 1.1.3.3.6.6.8.9.4.5.6.8.7.9-.1 0-.4-.3-.9-.6-.3-.2-.6-.4-.9-.7-.4-.3-.8-.5-1.3-.9-.1-.1-.2-.2-.4-.2-.1-.1-.3-.2-.4-.2-.3-.2-.5-.3-.8-.5-.3-.2-.6-.3-.9-.5-.3-.2-.6-.3-1-.5-1.4-.6-2.9-1.3-4.6-1.8-3.4-1.1-7.4-1.7-11.5-1.7s-8.4.5-12.3 1.3c3.4-.3 6.6-.4 9.6-.3 1.5.1 2.9.2 4.3.4.7.1 1.3.2 2 .4.6.2 1.3.3 1.9.5 2.4.7 4.6 1.6 6.4 2.6.5.3.9.5 1.3.8.4.3.8.5 1.2.8.4.3.7.6 1.1.8.3.3.6.6 1 .8.2.1.3.3.4.4l.4.4c.3.3.5.5.7.8.4.6.8 1 1.1 1.6.2.2.3.5.4.7.1.2.2.5.3.7l.3.6c.1.2.1.4.2.6.1.4.2.7.2 1v.7c0 .4-.2.6-.4.7-.8-2-2.2-4-4.1-5.8-1.9-1.8-4.3-3.2-6.9-4.3-1.3-.5-2.7-1-4.2-1.4-.4-.1-.7-.2-1.1-.3-.4-.1-.7-.2-1.1-.2l-.9-.4zm-17.6.4c.1 0 .3 0 .4-.1 1.6 1.4 3 3.1 4.1 4.9 1.4 2.3 2.3 4.9 2.5 7.6v1.7c0 .8-.2 1.7-.4 2.5s-.5 1.6-.8 2.2c-.3.6-.5.9-.6 1 0-.1.2-.5.5-1 .3-.6.5-1.3.8-2.2.2-.8.3-1.7.4-2.5v-1.7c-.2-2.7-1.1-5.2-2.5-7.5-1.2-1.7-2.7-3.4-4.4-4.9zm-4.3-2.8l-.9-.4c-.3-.1-.6-.2-.9-.4l-.9-.3-.9-.3c-.6-.2-1.3-.3-1.9-.5-.6-.2-1.3-.3-1.9-.4-1.3-.2-2.6-.4-3.9-.4h-.8c-3.2.7-6.3 1.3-9.5 1.7-1.7.2-3.4.3-5.1.4h-2.5c-.8 0-1.7-.1-2.5-.2-.3 0-.6-.1-.9-.1-.5-.1-1.1-.3-1.6-.4-.1 0-.2 0-.3-.1 2.5-.2 5-.5 7.5-.7 5-.5 10-.9 15-.7.3-.1.5-.1.8-.2.2 0 .4-.1.5-.1h-.5c-5.3-.4-10.6.1-15.9.5-3.2.3-6.4.5-9.6.8h-.8l-.4-.1c-.4-.1-.8-.2-1.2-.4-.4-.1-.8-.2-1.2-.4l-1.2-.4c-.7-.2-1.3-.5-2-.8.1-.2.2-.5.2-.7 1-3.1 1.9-6.1 2.9-9 2-5.8 4.2-11.3 7.1-16.1 1.5-2.4 3-4.5 4.8-6.4 1.8-1.9 3.7-3.5 5.8-4.8 4.1-2.6 8.5-3.8 12.4-3.5.2 0 .5 0 .7.1.2 0 .5.1.7.1l.4.1.4.1c.2.1.5.1.7.2.9.3 1.9.6 2.7 1 .9.4 1.7.8 2.5 1.3.4.3.8.5 1.1.8.4.3.7.5 1 .8 1.3 1.2 2.4 2.4 3.3 3.8.8 1.3 1.4 2.7 1.9 4.1.8 2.7.9 5.3.7 7.4-.2 2.1-.7 3.6-1.1 4.6-.2.5-.4.9-.5 1.1-.1.3-.2.4-.2.4.1 0 .2-.2.3-.4.1-.1.2-.3.3-.4.1-.2.2-.3.2-.5.1-.2.2-.4.2-.6.1-.2.1-.4.2-.5.1-.3.2-.6.2-.8 1.4-4.9.7-10.4-2-14.6-.6-1-1.4-2-2.3-2.9-.9-.9-1.9-1.7-2.9-2.4-1.1-.7-2.2-1.3-3.4-1.8-1.2-.5-2.5-.9-3.7-1.1h-.2c-.1 0-.3-.1-.6-.1s-.6-.1-1-.1h-2.5c-.2 0-.3 0-.5.1-.3 0-.7.1-1 .1-.3.1-.7.1-1.1.2-1.5.3-3.2.9-5.1 1.7-1.9.9-3.9 2.1-5.9 3.7-2 1.6-4 3.6-5.8 5.9-.9 1.2-1.8 2.5-2.7 3.9-.5.7-.9 1.4-1.3 2.1-.4.7-.8 1.5-1.2 2.3-.8 1.6-1.6 3.2-2.4 4.9-.8 1.7-1.5 3.5-2.2 5.3-1.2 3-2.4 6.3-3.7 9.6h-.1c-.8-.4-1.5-.8-2.3-1.2-.8-.4-1.5-.8-2.3-1.3-6-3.6-11.7-7.8-17.9-11.5-3.1-1.8-6.3-3.4-9.7-4.6-3.3-1.2-6.8-2.1-10.3-2.5-3.5-.4-7.1-.2-10.5.7-1.7.4-3.3 1.1-4.8 1.9-.4.2-.8.4-1.1.6-.4.2-.7.5-1.1.7-.3.3-.7.5-1 .8-.3.3-.6.6-1 .8-2.5 2.3-4.4 5.3-5.2 8.5-.4 1.6-.5 3.3-.2 5 .1.4.1.8.3 1.2.1.4.2.8.4 1.2l.2.6.2.4c-.1.1-.2.2-.4.3-.2.1-.4.3-.6.4-.4.2-.8.5-1.2.8-.4-.3-.8-.5-1.2-.8-.2-.1-.4-.2-.6-.4-.1-.1-.3-.2-.4-.3l.2-.4.2-.6c.2-.4.3-.8.4-1.2l.3-1.2c.3-1.6.2-3.3-.2-5-.8-3.3-2.7-6.2-5.2-8.5-.3-.3-.6-.6-1-.8-.3-.3-.7-.5-1-.8-.4-.2-.7-.5-1.1-.7-.4-.2-.7-.4-1.1-.6-1.5-.8-3.2-1.4-4.8-1.9-3.4-.9-7-1-10.5-.7-3.5.4-7 1.3-10.3 2.5-3.3 1.2-6.6 2.8-9.7 4.6-6.2 3.6-11.9 7.9-17.9 11.5-.7.5-1.5.9-2.3 1.3-.8.4-1.5.8-2.3 1.2h-.1c-1.3-3.3-2.4-6.5-3.7-9.6-.7-1.8-1.5-3.6-2.2-5.3-.8-1.7-1.5-3.3-2.4-4.9-.4-.8-.8-1.5-1.2-2.3-.4-.7-.8-1.5-1.3-2.1-.9-1.4-1.8-2.7-2.7-3.9-1.9-2.3-3.8-4.4-5.8-5.9-2-1.6-4-2.8-5.9-3.7-1.9-.9-3.6-1.4-5.1-1.7-.4-.1-.7-.1-1.1-.2-.3 0-.7-.1-1-.1-.2 0-.3 0-.5-.1h-2.5c-.4 0-.7.1-1 .1-.3 0-.5.1-.6.1h-.2c-1.3.2-2.5.6-3.7 1.1-1.2.5-2.3 1.1-3.4 1.8s-2.1 1.5-2.9 2.4c-.9.9-1.7 1.9-2.3 2.9-2.6 4.1-3.3 9.7-2 14.6 0 .1.1.4.2.8.1.2.1.4.2.5.1.2.2.4.2.6.1.2.2.4.2.5.1.2.2.3.3.4.2.2.3.4.3.4s-.1-.1-.2-.4c-.1-.3-.3-.6-.5-1.1-.4-1-.9-2.5-1.1-4.6-.2-2-.1-4.7.7-7.4.4-1.4 1-2.8 1.9-4.1.8-1.3 1.9-2.6 3.3-3.8.3-.3.7-.6 1-.8.4-.3.8-.5 1.1-.8.8-.5 1.6-.9 2.5-1.3.9-.4 1.8-.7 2.7-1 .2-.1.5-.1.7-.2l.4-.1.4-.1c.2 0 .5-.1.7-.1.2 0 .5 0 .7-.1 3.9-.3 8.3.9 12.4 3.5 2 1.3 4 2.9 5.8 4.8 1.8 1.9 3.3 4 4.8 6.4 2.9 4.7 5.1 10.2 7.1 16.1 1 2.9 1.9 5.9 2.9 9 .1.2.2.5.2.7-.7.3-1.3.6-2 .8l-1.2.4c-.4.1-.8.3-1.2.4-.4.1-.8.3-1.2.4l-.4.1h-.8c-3.2-.3-6.4-.6-9.6-.8-5.3-.5-10.6-.9-15.9-.5h-.5c.2 0 .4.1.5.1.3.1.5.1.8.2 5-.3 10 .2 15 .7 2.5.2 5 .5 7.5.7-.1 0-.2 0-.3.1-.6.1-1.1.3-1.6.4-.3 0-.6.1-.9.1-.8.1-1.7.1-2.5.2h-2.5c-1.7 0-3.4-.2-5.1-.4-3.2-.4-6.3-1-9.5-1.7h-.8c-1.3.1-2.6.2-3.9.4-.6.1-1.3.2-1.9.4-.6.2-1.3.3-1.9.5l-.9.3-.9.3c-.3.1-.6.2-.9.4l-.9.4c-1.2.5-2.3 1.2-3.4 2-.3.3-.6.5-1 .8 1.2.2 2.4.3 3.6.5 3.5.6 7.1 1.2 10.7 1.8 3.1.5 6.2.9 9.3 1.1.7.5 1.4.9 2.3 1.3-4.1 2.5-16.5-2.3-21 7.9-1.4 3.2-2.4 13.8-6.6 19.2 6.4-4.4 16.6-5 19.8-6.4 10.4-4.4 5.4-16.7 8-20.6.3.2.7.3 1 .5.3.2.7.3 1 .4.2.1.3.1.5.2.2 0 .3.1.5.1.3.1.6.2.9.2.3.1.6.1.9.2 1.1.2 2.2.2 3.2.2h1.5c.2 0 .5 0 .7-.1.2 0 .5 0 .8-.1.5 0 1-.1 1.5-.2s1.1-.1 1.7-.2c1.6-.1 3.6-.2 5.7-.3.8 0 1.5-.1 2.3-.1-.2.3-.5.6-.8 1h-.1s-.2.1-.6.2c-.4.1-.9.2-1.4.3-.5.1-1.1.2-1.5.2-.5 0-.8.1-1 .1-1.3.1-1.5.3-1.1.5.2.1.5.2 1 .3.2 0 .4.1.6.1-.4.2-.8.3-1.2.5-.5.2-1.1.4-1.6.7-1 .5-2.1 1-3.1 1.6l-1.5.9c-.5.3-1 .7-1.4 1-3.8 2.7-7.2 6-9.8 9.5-2.6 3.5-4.5 7.1-5.8 10.4-.3.8-.6 1.6-.8 2.4-.3.8-.4 1.5-.6 2.2-.1.3-.2.7-.3 1-.1.3-.1.6-.2.9-.1.6-.2 1.2-.3 1.7-.1.5-.1 1-.2 1.4 0 .4-.1.7-.1 1-.1.5-.1.8-.1.8l.9.3s.1-1.1.3-2.9c.1-.8.3-1.8.6-2.9.3-1 .6-2.1.9-3.2.2-.5.4-1.1.6-1.6.2-.5.4-1.1.6-1.5.2-.5.4-1 .6-1.4.1-.2.2-.4.3-.7l.3-.6.9-1.8c.1-.2.2-.4.3-.5.1-.1.1-.2.1-.2-.2.3-.4.7-.5 1-.1.3-.3.7-.4 1-.3.6-.5 1.1-.6 1.6-.3 1-.4 1.6-.2 1.7.4-.5.7-1 .9-1.5-.2.5-1.3 2.6-.6 3 .4-.5.7-1 1-1.6.3-.6.5-1.3.8-1.9.3-.7.5-1.4.8-2 .3-.6.6-1.2 1-1.7.2-.2.3-.4.5-.7l.5-.6c.3-.4.7-.9 1-1.3.3-.4.7-.9 1.1-1.3.4-.4.7-.9 1.1-1.3 1.5-1.7 3-3.3 4.7-4.8 2.8-2.5 6.5-4.4 10.2-5.2l1.5-.3c-.1.4-.2.9-.2 1.3-.1.6-.1 1.3 0 1.9 0 .7.1 1.3.3 2 .2.7.4 1.4.7 2.1.3.7.6 1.4 1.1 2.1.4.7.9 1.3 1.5 1.9.6.6 1.2 1.2 2 1.6 2.9 1.9 6.5 2.8 10.2 2.4 1.5-.2 2.9-.5 4.4-1.1.5.5 1.1 1 1.6 1.5 2.5 2.3 5.4 4.2 8.5 5.7 5.3 2.5 11.1 3.4 16.5 2.5-.2.2-.4.3-.6.5-1.3 1.3-2.5 2.6-3.5 4.1-1.1 1.5-2 3.1-2.7 4.7-.7 1.7-1.2 3.5-1.4 5.3-.4 3.7.4 7.3 2.3 10.2.5.7 1 1.4 1.6 2 .6.6 1.3 1.1 1.9 1.6.7.4 1.4.8 2.1 1.1.7.3 1.4.5 2.1.7.7.2 1.4.3 2 .3h1.9c1.2-.1 2.4-.4 3.3-.8.4-.2.8-.3 1.1-.5 0 .7-.1 1.4-.1 2.2 0 .5.1 1.1.2 1.5.1.4.2.8.3 1 .2.4.4.2.5-1.1 0-.2.1-.5.1-1 .1-.5.1-1 .2-1.5s.2-1 .3-1.4c.1-.4.2-.6.2-.6v-.1c.4-.3.7-.5 1-.8 0 .8-.1 1.5-.1 2.3-.1 2-.2 4-.3 5.7-.1.6-.1 1.1-.2 1.7 0 .5-.1 1-.2 1.5 0 .3-.1.5-.1.8 0 .2-.1.5-.1.7 0 .2 0 .5-.1.7v.8c0 1 0 2.1.2 3.2 0 .3.1.6.2.9.1.3.1.6.2.9 0 .2.1.3.1.5.1.2.1.3.2.5.1.3.2.7.4 1 .8 1.9 1.8 3.6 3 4.8.6.6 1.1 1.1 1.7 1.4.3.2.5.3.8.4.3.1.5.1.7.1.4 0 .4-.2.5-.4.1-.1.2-.2.7 0 .1 0 .2.1.3.1.1 0 .2.1.3.1.2 0 .3.1.5.1h.8c.4-.1.4-.5.2-1 0-.1-.1-.3-.2-.4-.1-.1-.2-.3-.2-.5-.2-.3-.4-.6-.6-1 0 0 .7-1 .5-1.5 0-.1-.1-.2-.1-.3 0-.1-.1-.2-.2-.4s-.3-.5-.4-.7c-.1-.3-.3-.5-.5-.8-.2-.3-.3-.5-.5-.8-.4-.6-.7-1.1-1.1-1.7.2-.3.3-.7.5-1.1.1-.2.2-.5.4-.8.1-.3.2-.5.3-.8.1-.3.2-.6.4-.9.1-.3.2-.7.4-1 .1-.3.2-.7.4-1.1l.3-1.2c.2-.8.4-1.6.6-2.5.1-.4.2-.9.3-1.4 0-.2.1-.5.1-.7 0-.1 0-.2.1-.4v-.4c.1-.5.1-1 .2-1.5 0-.3 0-.5.1-.8 0-.3 0-.5.1-.8.1-2.1.2-4.3-.1-6.6v-.8c0-.3-.1-.6-.1-.9 0-.3-.1-.6-.1-.9-.1-.3-.1-.6-.2-.9-.2-1.2-.5-2.3-.8-3.5-.6-2.4-1.5-4.7-2.4-6.9-.6-1.3-1.1-2.6-1.7-3.9.7-3.7 1.3-7.4 1.7-11.2l.1-1.9.1-.9v-2.8l-.1-1.9v-.9l-.1-.9v-.9c0-.2.1-.4.1-.6.2-.3.4-.6.7-.9.9-1.3 1.6-2.7 2-4 .5-1.3.8-2.5.9-3.6.1-1.1.1-2.1 0-2.9 0-.2-.1-.4-.1-.6 0-.2-.1-.4-.1-.5 0-.1 0-.2-.1-.2 0-.1 0-.2-.1-.2 0-.1 0-.1-.1-.2.4.2.8.4 1.1.6l1.2.6.6.3.3.1.3.2c.3.2.6.3.9.5l-.2.1-.8.5-.8.5-1.5 1.1c.7-.5 1.5-1 2.2-1.5.4-.2.8-.5 1.2-.7.4.2.8.4 1.2.7.7.5 1.5.9 2.2 1.5l-1.5-1.1-.8-.5-.8-.5-.2-.1c.3-.2.6-.3.9-.5l.3-.2.3-.1.6-.3 1.2-.6c.4-.2.7-.4 1.1-.6 0 .1 0 .1-.1.2 0 .1 0 .2-.1.2 0 .1 0 .2-.1.2 0 .2-.1.3-.1.5s-.1.4-.1.6c-.1.8-.1 1.8 0 2.9.1 1.1.4 2.3.9 3.6.5 1.3 1.2 2.6 2 4 .2.3.4.6.7.9 0 .2 0 .4.1.6v.9l-.1.9v.9l-.1 1.9v2.8l.1.9.1 1.9c.3 3.8.9 7.5 1.7 11.2-.6 1.3-1.1 2.6-1.7 3.9-.9 2.2-1.8 4.5-2.4 6.9-.3 1.2-.6 2.3-.8 3.5-.1.3-.1.6-.2.9 0 .3-.1.6-.1.9 0 .3-.1.6-.1.9v.8c-.2 2.3-.2 4.5-.1 6.6 0 .3 0 .5.1.8 0 .3 0 .5.1.8.1.5.1 1 .2 1.5v.4c0 .1 0 .2.1.4 0 .2.1.5.1.7.1.5.1.9.3 1.4.2.9.4 1.7.6 2.5l.3 1.2c.1.4.3.7.4 1.1.1.3.2.7.4 1 .1.3.3.6.4.9.1.3.2.6.3.8.1.3.2.5.4.8.2.4.4.8.5 1.1-.3.6-.7 1.1-1.1 1.7-.2.3-.3.5-.5.8-.2.3-.3.5-.5.8-.1.3-.3.5-.4.7-.1.1-.1.2-.2.4 0 .1-.1.2-.1.3-.2.5.5 1.5.5 1.5-.2.3-.4.7-.6 1-.1.2-.2.3-.2.5-.1.1-.1.3-.2.4-.2.5-.2.9.2 1h.8c.1 0 .3-.1.5-.1.1 0 .2-.1.3-.1.1 0 .2-.1.3-.1.5-.2.6-.2.7 0 .1.1.1.4.5.4.2 0 .5 0 .7-.1.2-.1.5-.2.8-.4.6-.3 1.1-.8 1.7-1.4 1.1-1.2 2.2-3 3-4.8.1-.3.3-.7.4-1 .1-.2.1-.3.2-.5 0-.2.1-.3.1-.5.1-.3.2-.6.2-.9.1-.3.1-.6.2-.9.2-1.1.2-2.2.2-3.2v-.8c0-.2 0-.5-.1-.7 0-.2 0-.5-.1-.7 0-.2 0-.5-.1-.8-.1-.5-.1-1-.2-1.5s-.1-1.1-.2-1.7c-.1-1.6-.2-3.6-.3-5.7 0-.8-.1-1.5-.1-2.3.3.2.6.5 1 .8v.1s.1.2.2.6c.1.4.2.9.3 1.4.1.5.2 1.1.2 1.5 0 .5.1.8.1 1 .1 1.3.3 1.5.5 1.1.1-.2.2-.5.3-1 .1-.4.2-1 .2-1.5 0-.8-.1-1.5-.1-2.2.4.2.7.4 1.1.5 1 .4 2.1.7 3.3.8.6.1 1.3.1 1.9 0 .7 0 1.3-.1 2-.3.7-.2 1.4-.4 2.1-.7.7-.3 1.4-.6 2.1-1.1.7-.4 1.3-1 1.9-1.6.6-.6 1.1-1.3 1.6-2 1.9-2.9 2.8-6.5 2.3-10.2-.2-1.8-.7-3.6-1.4-5.3-.7-1.7-1.6-3.3-2.7-4.7-1.1-1.5-2.3-2.8-3.5-4.1-.2-.2-.4-.4-.6-.5 5.4.8 11.2 0 16.5-2.5 3.1-1.4 5.9-3.4 8.5-5.7.6-.5 1.1-1 1.6-1.5 1.4.5 2.9.9 4.4 1.1 3.7.4 7.3-.4 10.2-2.4.7-.5 1.4-1 2-1.6.6-.6 1.1-1.3 1.5-1.9.4-.7.8-1.4 1.1-2.1.3-.7.5-1.4.7-2.1.2-.7.2-1.4.3-2v-1.9c0-.5-.1-.9-.2-1.3.5 0 1 .2 1.5.3 3.7.9 7.4 2.8 10.2 5.2 1.7 1.4 3.2 3.1 4.7 4.8.4.4.7.9 1.1 1.3.3.4.7.8 1.1 1.3.3.4.7.9 1 1.3l.5.6c.2.2.3.4.5.7.4.5.7 1.1 1 1.7.3.6.6 1.3.8 2 .3.7.5 1.3.8 1.9.3.6.7 1.1 1 1.6.7-.4-.4-2.5-.6-3l.9 1.5c.1-.1 0-.7-.2-1.7-.1-.5-.4-1-.6-1.6-.1-.3-.3-.6-.4-1-.1-.3-.3-.7-.5-1 0 0 0 .1.1.2s.2.3.3.5c.2.4.6 1.1.9 1.8l.3.6c.1.2.2.4.3.7.2.4.4.9.6 1.4l.6 1.5c.2.5.4 1.1.6 1.6.3 1.1.6 2.2.9 3.2.2 1.1.4 2 .6 2.9.2 1.7.3 2.9.3 2.9l.9-.3s0-.3-.1-.8c0-.3-.1-.6-.1-1-.1-.4-.1-.9-.2-1.4-.1-.5-.2-1.1-.3-1.7-.1-.3-.1-.6-.2-.9-.1-.3-.2-.7-.3-1-.2-.7-.4-1.4-.6-2.2-.3-.8-.5-1.5-.8-2.4-1.3-3.3-3.2-6.9-5.8-10.4-2.6-3.5-5.9-6.8-9.8-9.5-.5-.3-1-.7-1.4-1l-1.5-.9c-1-.6-2.1-1.1-3.1-1.6-.5-.3-1-.5-1.6-.7-.4-.2-.8-.3-1.2-.5.2 0 .4-.1.6-.1.4-.1.8-.2 1-.3.4-.2.2-.4-1.1-.5-.2 0-.5-.1-1-.1-.5-.1-1-.1-1.5-.2s-1-.2-1.4-.3c-.4-.1-.6-.1-.6-.2h-.1c-.3-.4-.5-.7-.8-1 .8 0 1.5.1 2.3.1 2 .1 4 .2 5.7.3.6.1 1.1.1 1.7.2.5 0 1 .1 1.5.2.3 0 .5 0 .8.1.2 0 .5.1.7.1h1.5c1 0 2.1 0 3.2-.2.3 0 .6-.1.9-.2.3-.1.6-.2.9-.2.2 0 .3-.1.5-.1.2-.1.3-.1.5-.2.3-.1.7-.2 1-.4.4-.2.7-.3 1-.5 2.5 4-2.4 16.3 8 20.6 3.2 1.4 13.4 2 19.8 6.4-4.3-5.4-5.3-16-6.6-19.2-4.5-10.2-16.9-5.5-21-7.9.8-.4 1.6-.9 2.3-1.3 3.2-.2 6.3-.6 9.3-1.1 3.7-.6 7.2-1.2 10.7-1.8 1.2-.2 2.4-.4 3.6-.5-.3-.3-.6-.6-1-.8-2.1-.7-3.2-1.4-4.4-2zm-207.9 7.2c-.1-.1-.2-.1-.2-.2.2.1.4.2.5.3 0 .1-.1 0-.3-.1zm158.1-5.5c.3-.1.5-.1.8-.2h.1c-.6 1.5-1.3 3.1-2 4.6-2.4-.4-4.8-.8-7.2-1.3-.2 0-.4-.1-.6-.1.8-.3 1.6-.7 2.5-1 .3-.1.5-.2.8-.3.3-.1.5-.2.8-.3.5-.2 1.1-.3 1.6-.5.3-.1.5-.2.8-.2.3-.1.5-.1.8-.2.6-.2 1.1-.3 1.6-.5zm-10.2 6.1s.1 0 0 0h-4.7c-.5 0-.9-.1-1.4-.1 1-.4 2-.8 2.9-1.2 1 .5 2.2.9 3.2 1.3zm-1.2-.9c.1.1.6.1.6.2-.3 0-.6-.1-.6-.2zm.4-5.1c-1.3.6-2.6 1.1-3.9 1.7-2.6-.5-5.1-.9-7.7-1.2 1.4-.1 2.7-.3 4-.4 3.6-.3 6.8-.7 9.7-.9-.7.2-1.4.5-2.1.8zm-10.6 2.3c.9.4 1.9.7 3 1-.1 0-.3.1-.4.2-1.1-.4-2.1-.7-2.6-1.2zm1.8 1.4c-.1 0-.4-.1-.4-.1.3 0 .2 0 .4.1zm-11.8-1.6s.1 0 0 0c.4.1.7.1 1 .1.3 0 .6.1.9.1.3 0 .6.1.9.1 1.7.3 2.2-.1 3.7.3.2.1.6.2 1.1.3.5.1 1 .2 1.6.3.9.2 1.8.4 2.1.6l-.4.1c-1 .4-2.1.7-3.1 1-1.6.4-3.2.7-4.7.8-.3-.5-.7-.9-1-1.3-.5-.8-1.2-1.7-2.1-2.4zm1.3 6.9c-.2.2-.1.5-.1.8 0 .3 0 .5-.1.6 0 0-.1.2 0 .3-.3-.2-.8-.5-1.2-.7-.6-.3-1.3-.5-2-.7 1.1-.5 2.2-.6 3.3-.4 0 0 .1 0 .1.1zm-31.1-22.5c.7-2.7 2.5-5.2 4.7-7.1l.9-.7.9-.6.9-.6c.3-.2.7-.3 1-.5 1.4-.6 2.8-1.1 4.3-1.5 3-.7 6.2-.7 9.3-.2 3.2.5 6.3 1.4 9.3 2.7 3 1.3 6 2.9 8.8 4.7 5.7 3.7 11.2 8.3 17.3 12.4.8.5 1.5 1 2.3 1.5.1.1.3.2.4.2-1 .2-2 .4-2.9.7-.6.2-1.2.3-1.8.5-3.6.3-7.9.7-12.8 1.1-3.2.3-6.8.5-10.5.8h-2.6l-1.9.1h-.9l-.9.1h-.9c-.2 0-.4-.1-.6-.1l-.9-.6c-1.3-.9-2.7-1.5-4-2-1.3-.5-2.5-.7-3.6-.9-1.1-.1-2.1-.1-2.9 0-.2 0-.4.1-.6.1-.1 0-.2 0-.3.1.1-.1.1-.3.2-.4.1-.2.2-.5.3-.7 3.3.4 8.3 2.1 11.2-2.6 1.2-1.8 2.7-8 6.1-11.5-3.8 2.1-10.4 1.5-12.6 2-6.9 1.7-5.1 10.1-7.3 12.2.5-.3 1.2-.3 2-.2l-.1.1-.5.8-.2.3h-.1c-.1 0-.3.1-.4.1-.1 0-.3.1-.4.1-.1 0-.2.1-.3.1-.2.1-.4.2-.5.2-.1.1-.2.1-.3.2-.1 0-.1.1-.1.1-.6.3-1.2.7-1.7 1.2-.2.1-.3.3-.5.5 0 0-.1 0-.1-.1l-.6-.3c.6-.8 1.2-1.8 1.7-2.8l.6-1.2c.2-.4.3-.9.4-1.3.2-.9.4-1.7.6-2.6l.1-.6.1-.7.2-1.3c.1-.9.2-1.7.4-2.5.4-.8.8-1.5 1.2-2.2.2-.3.4-.7.6-1 .2-.4.4-.7.6-1.1.3-.5.5-1 .8-1.4.3-.5.5-.9.7-1.4.4-1 .7-1.9.9-3-1.3.4-2.1 1.5-2.8 2.8-.4.6-.7 1.3-1.1 1.9-.3.6-.7 1.2-1.1 1.7-.4.4-.7.9-1 1.3-.3.4-.6.9-1 1.4 0 0-.5.6-1.4 1.6-.2.2-.4.5-.7.8l-.8.8c-.5.6-1.1 1.2-1.7 1.8-.6.6-1.2 1.1-1.8 1.7-.3.3-.6.5-.8.8-.3.2-.5.4-.8.6l-.2.2-.2-.4c-.1-.3-.2-.6-.3-1-.1-.3-.1-.7-.2-1 .4-1.5.5-2.9.9-4.2zm19 18.5c.1-.4.4-.8.7-1.2.1-.1.4-.5.7-.9.3.4.7.9 1.1 1.3l.4.4.4.4c.3.2.6.5 1 .8.2.1.4.2.6.4h-.4c-.9-.1-1.7-.2-2.6-.3-.5-.1-1-.2-1.4-.3 0 0 .1 0 .1-.1-.2-.2-.4-.4-.6-.5zm-6.1-1.1c-.4-.1-.8-.3-1.2-.4.6-.2 1.2-.3 1.8-.5.7-.2 1.4-.3 2.2-.4.3.2.6.4.8.6-.4.4-.7.9-1 1.4-.9-.2-1.8-.4-2.6-.7zm.5 23.6h-.2c-.2-.1-.3-.3-.5-.4 0-.2-.1-.5-.1-.7.2.4.5.7.8 1.1zm-5.8 8.1c-.1-.5-.2-1.1-.4-1.6-.1-.5-.2-.9-.3-1.1-.4-1.5 0-2-.3-3.7-.1-.3-.1-.6-.1-.9 0-.3-.1-.6-.1-.9 0-.3-.1-.6-.1-.9v-.1c.8.9 1.6 1.6 2.6 2.2.4.4.8.7 1.3 1-.1 1.5-.4 3.1-.8 4.7-.3 1-.6 2.1-1 3.1l-.1.4c-.3-.4-.5-1.3-.7-2.2zm.3 2.5c0-.2-.1-.1-.1-.4.1 0 .1.3.1.4zm-.2.8c-.1.1-.1.3-.2.4-.3-1-.7-2-1-3 .5.5.9 1.5 1.2 2.6zm-.6-37.3c.2-.1.5-.2.7-.2.5.2 1 .3 1.4.4l-.3.6c-.2-.1-.3-.1-.5-.2-.5-.1-.9-.3-1.3-.6-.1.1 0 .1 0 0zm-.3-.1c-.1 0-.1 0-.2.1l-.6-.3c0-.1.1-.1.1-.2s.1-.1.1-.2c.1 0 .1.1.2.1.2.1.4.1.6.2 0 .1-.1.2-.2.3zm.3-.1v-.2c.1 0 .2.1.3.1-.1 0-.2.1-.3.1zm.5-1.9l.1-.1c.4-.4.8-.7 1.2-1 .1-.1.2-.1.3-.2l.2-.1.2-.1c.1-.1.2-.1.4-.2.1-.1.2-.1.4-.2.3-.1.7-.3 1-.4v.1l-.9 1.7-.6 1.2c-.8-.1-1.6-.4-2.3-.7zm2 19.4c0 .2.1.4.1.7-.2-.2-.4-.5-.5-.7-.1-.2-.3-.3-.4-.4l-.4-.4c-.4-.4-.9-.8-1.3-1.1.3-.3.7-.6.9-.7.5-.4 1-.6 1.6-.8 0 .2 0 .4-.1.6-.1.8-.1 1.8.1 2.8zm0 4.5c-.1-.2-.2-.4-.4-.5-.1-.1-.2-.2-.4-.3-.4-.6-.7-1.1-1-1.7-.5-1-.9-1.9-1.2-3 .3.3.5.6.8.9.1.1.2.3.3.4.1.1.2.3.3.4.2.3.4.6.6 1 .4.7.7 1.4.9 2.2 0 .3 0 .5.1.6zm-2.5-13.4c.1-.3.1-.5.2-.8 0 .2.1.4.1.6.1.3.1.6.2.9.1.3.2.6.3.8.1.2.2.4.4.6-.4.3-.7.5-1 .8l-.4-.4-.2-.2c.1-.7.3-1.5.4-2.3zm-.3 2.7c.1.1.1.2.2.2l.2.2-.2.2c-.2.2-.4.4-.5.6.1-.4.1-.9.2-1.3 0 0 .1 0 .1.1zm2.6-10c.1-.2.2-.5.3-.7.3.1.7.1 1 .2l2.4.3-1.8.6-.6.2h-.1c-.5-.3-.9-.5-1.2-.6zm7 .3c-.1-.1-.2-.1-.2-.2-.1-.1-.2-.2-.3-.2.2 0 .4-.1.5-.1h.8c-.2.1-.3.3-.5.4l-.2.2-.1-.1zm-1.5-2c-1.3-.1-2.6-.2-3.9-.5-.2 0-.4-.1-.6-.1.2-.5.5-1 .8-1.5l.6-1.2c.1-.2.1-.3.2-.4 1.6-.3 3.4-.3 5.2.1 1.3.3 2.5.8 3.8 1.4.7.4 1.4.8 2.1 1.3-1.1 0-2.1.3-3.2.7-.1-.1-.1-.2-.2-.3-.1-.1-.1-.2-.2-.3-.1-.2-.2-.4-.3-.5-.1-.2-.2-.3-.3-.5-.1-.2-.2-.3-.2-.4-.2-.5-.3-.8-.3-.8v.2c0 .1.1.4.1.6 0 .1.1.3.1.5s.1.4.2.6c.1.2.1.4.2.6 0 .1.1.2.1.3 0 .1.1.1.1.2h-4.3zm8.4 2.8c-.2-.1-.3-.2-.5-.3-.1-.1-.3-.2-.4-.3-.3-.2-.6-.5-.9-.8.2 0 .5-.1.8-.1h.5c.1 0 .3.1.4.1.1-.1.3-.2.5-.3.2-.1.3 0 .4.3.1.1.3.2.4.3.1.1.3.2.4.3.1.1.4.1.7.1.1 0 .1 0 .2.1.1 0 .1.1.1.1.1.1.1.2.1.4.1.2.1.4.1.5 0 .1.1.3.1.4.1.2.2.4.3.5.2.1.3.3.5.4-.2 0-.3-.1-.5-.1-.8-.3-1.5-.6-2.2-.9-.4-.3-.7-.5-1-.7zm-26.9-3.8c.2.1.3.2.2.5 0 .2-.1.4-.2.6-.1-.2-.2-.4-.2-.6 0-.3.1-.5.2-.5zm-63.3-3.4c.8-.5 1.6-1 2.3-1.5 6.1-4.1 11.6-8.6 17.3-12.4 2.8-1.8 5.8-3.4 8.8-4.7 3-1.3 6.2-2.2 9.3-2.7 3.2-.5 6.3-.5 9.3.2 1.5.3 2.9.8 4.3 1.5.3.2.7.3 1 .5l.9.6.9.6.9.7c2.2 1.9 3.9 4.4 4.7 7.1.4 1.3.5 2.7.3 4.1 0 .3-.1.7-.2 1-.1.3-.1.7-.3 1l-.2.4-.2-.2c-.2-.2-.5-.4-.8-.6-.3-.2-.5-.5-.8-.8-.6-.5-1.2-1.1-1.8-1.7-.6-.6-1.2-1.2-1.7-1.8-.3-.3-.5-.6-.8-.8-.2-.3-.5-.5-.7-.8-.8-.9-1.4-1.6-1.4-1.6-.4-.4-.7-.9-1-1.4-.3-.4-.7-.9-1-1.3-.4-.5-.8-1.1-1.1-1.7-.3-.6-.7-1.3-1.1-1.9-.7-1.2-1.5-2.3-2.8-2.8.2 1.1.5 2.1.9 3 .2.5.4.9.7 1.4.3.5.5.9.8 1.4.2.4.4.8.6 1.1.2.4.4.7.6 1 .4.7.8 1.4 1.2 2.2.2.8.3 1.7.4 2.5l.2 1.3.1.7.1.6c.2.8.4 1.7.6 2.6.1.4.3.9.4 1.3l.6 1.2c.6 1 1.1 2 1.7 2.8l-.6.3s-.1 0-.1.1l-.5-.5c-.5-.5-1.1-.9-1.7-1.2l-.1-.1c-.1 0-.2-.1-.3-.2-.1-.1-.3-.1-.5-.2-.1 0-.2-.1-.3-.1-.1 0-.2-.1-.4-.1-.1 0-.3-.1-.4-.1h-.1l-.2-.3-.5-.8-.1-.1c.8-.1 1.5 0 2 .2-2.1-2.1-.3-10.5-7.3-12.2-2.1-.5-8.8 0-12.6-2 3.4 3.5 4.9 9.7 6.1 11.5 3 4.6 7.9 3 11.2 2.6.1.2.2.5.3.7.1.1.1.3.2.4-.1 0-.2 0-.3-.1-.2 0-.4-.1-.6-.1-.8-.1-1.8-.1-2.9 0-1.1.1-2.3.4-3.6.9-1.3.5-2.6 1.1-4 2l-.9.6c-.2 0-.4 0-.6.1h-.9l-.9-.1h-.9l-1.9-.1h-2.6c-3.7-.3-7.3-.6-10.5-.8-4.9-.4-9.2-.8-12.8-1.1-.6-.2-1.2-.4-1.8-.5-1-.3-2-.5-2.9-.7.7.1.9 0 1-.1zm53.1 32.6c-.3 1.7.1 2.2-.3 3.7-.1.2-.2.6-.3 1.1-.1.5-.2 1-.4 1.6-.2.9-.4 1.8-.6 2.1l-.1-.4c-.4-1-.7-2.1-1-3.1-.4-1.6-.7-3.2-.8-4.7.5-.3.9-.7 1.3-1 .9-.5 1.8-1.3 2.6-2.2v.1c0 .3-.1.6-.1.9 0 .3-.1.6-.1.9-.1.4-.1.7-.2 1zm.1 7.1c-.4.9-.7 1.9-1 3 0-.1-.1-.3-.1-.4.3-1.1.7-2.1 1.1-2.6zm-1.2 1.4c0 .2-.1.2-.1.4-.1-.1 0-.4.1-.4zm-5.2-33.8c-.8.3-1.6.5-2.5.7-.3-.5-.7-1-1-1.4.2-.2.5-.4.8-.6.7.1 1.5.3 2.2.4.6.1 1.2.3 1.8.5-.4.1-.8.3-1.3.4zm.4 22.5c0 .2-.1.5-.1.7-.2.1-.3.3-.5.4h-.2c.3-.4.6-.7.8-1.1zm-6.9-20.9c-.5.1-1 .2-1.4.3-.9.1-1.8.2-2.6.3h-.4c.2-.1.4-.2.6-.4.4-.2.7-.5 1-.8.2-.1.3-.3.4-.4l.4-.4c.4-.4.8-.9 1.1-1.3.3.4.6.8.7.9.3.4.5.8.7 1.2-.2.1-.4.3-.6.4 0 .2.1.2.1.2zm-6.3-2.2l.1-.1c.1 0 .1 0 .2-.1.2-.1.5-.1.7-.1.1-.1.3-.2.4-.3.1-.1.3-.2.4-.3.1-.3.2-.3.4-.3.2.1.3.2.5.3.1-.1.2-.1.4-.1h.5c.3 0 .6.1.8.1-.3.3-.6.5-.9.8-.1.1-.3.2-.4.3-.1.1-.3.2-.5.3-.3.2-.6.4-1 .5-.7.4-1.4.7-2.2.9-.2 0-.3.1-.5.1.2-.1.4-.2.5-.4.2-.2.3-.3.3-.5 0-.1.1-.2.1-.4 0-.1.1-.3.1-.5 0 0 0-.1.1-.2zm6.6-2.3c0-.1.1-.1.1-.2.1-.1.1-.2.1-.3.1-.2.2-.4.2-.6.1-.2.1-.4.2-.6 0-.2.1-.3.1-.5 0-.3.1-.5.1-.6v-.2s-.1.3-.3.8c-.1.1-.1.3-.2.4-.1.1-.2.3-.3.5-.1.2-.2.3-.3.5-.1.1-.1.2-.2.3-.1.1-.1.2-.2.3-1.1-.5-2.2-.7-3.2-.7.7-.5 1.4-.9 2.1-1.3 1.2-.6 2.5-1.1 3.8-1.4 1.8-.4 3.6-.5 5.2-.1.1.2.1.3.2.4l.6 1.2c.3.5.5 1 .8 1.5-.2 0-.4.1-.6.1-1.3.3-2.6.4-3.9.5h-4.3zm7.8-3.7c.4.1.7.2 1 .4.1.1.2.1.4.2.1.1.2.1.4.2l.2.1.2.1c.1.1.2.1.3.2.4.3.9.6 1.2 1l.1.1c-.8.3-1.5.6-2.3.8l-.6-1.2-.9-1.9zm-5 5.2c.2 0 .4.1.5.1-.1 0-.2.1-.3.2-.1.1-.2.1-.2.2l-.1.1-.2-.2c-.2-.2-.3-.3-.5-.4h.8zm3.3-.1l2.4-.3c.3-.1.7-.1 1-.2.1.2.2.5.3.7-.4.2-.8.3-1.2.5h-.1l-.6-.2-1.8-.5zm4.7 15.6l-.4.4-.4.4c-.2.2-.4.5-.5.7 0-.2.1-.4.1-.7.1-1 .2-2 .2-2.9v-.6c.6.1 1.1.4 1.6.8.1.1.5.4.9.7-.6.4-1 .8-1.5 1.2zm1.8 0c-.3 1-.8 2-1.2 3-.3.6-.6 1.2-1 1.7-.1.1-.2.2-.4.3-.1.2-.3.3-.4.5 0-.2.1-.3.1-.5.3-.8.6-1.5.9-2.2.2-.3.4-.7.5-1 .1-.2.2-.3.3-.4.1-.1.2-.3.3-.4.4-.5.6-.8.9-1zm-.4-4.8l-.2-.2c.1 0 .1-.1.2-.2l.2-.2c0-.1.1-.1.1-.2.1.4.1.9.2 1.3-.2-.1-.3-.3-.5-.5zm.1-.6l-.4.4c-.3-.3-.7-.6-1-.8.1-.2.3-.4.4-.6.1-.3.2-.6.3-.8.1-.3.1-.6.2-.9 0-.2.1-.4.1-.6.1.3.1.5.2.8.2.8.3 1.5.4 2.3-.1 0-.1.1-.2.2zm-1.6-10.3c-.1.1-.3.1-.5.2l-.3-.6c.5-.1 1-.2 1.4-.4.2.1.5.1.7.2v.1c-.3.1-.8.3-1.3.5zm1.1-1c.1 0 .2-.1.3-.1v.2c-.1 0-.2-.1-.3-.1zm.3-.1c.2-.1.4-.1.6-.2.1 0 .1 0 .2-.1 0 .1.1.1.1.2s.1.1.1.2l-.6.3c-.1 0-.1 0-.2-.1 0-.1-.1-.2-.2-.3zm-35.3 2.3c-.1-.1-.3-.1-.4-.2 1-.3 2-.6 3-1-.5.5-1.5.8-2.6 1.2zm1.1.1s-.3.1-.4.1c.2-.1.2-.1.4-.1zm-6.9 1.1c1 .4 1.9.8 2.9 1.2-.5 0-.9.1-1.4.1h-4.7.1c1.1-.4 2.3-.8 3.1-1.3zm-2.4.7c0-.1.4-.1.6-.2-.1 0-.3.1-.6.2zm4-3.7c-1.3-.6-2.6-1.1-3.9-1.7l-2.1-.9c2.9.3 6.1.6 9.7.9 1.3.1 2.7.3 4 .4-2.5.4-5.1.8-7.7 1.3zm7.5 1.6c.5-.1 1.1-.2 1.6-.3.5-.1.9-.2 1.1-.3 1.5-.4 2 0 3.7-.3.3-.1.6-.1.9-.1.3 0 .6-.1.9-.1.3 0 .6-.1.9-.1h.1c-.9.8-1.6 1.6-2.2 2.6-.4.4-.7.8-1 1.3-1.5-.1-3.1-.4-4.7-.8-1-.3-2.1-.6-3.1-1l-.4-.1c.4-.3 1.3-.6 2.2-.8zm8.1 5.6c1.2-.2 2.3-.1 3.3.4-.7.2-1.4.4-2 .7-.5.2-.9.4-1.2.7v-.3c-.1-.1-.1-.3-.1-.6s0-.6-.1-.7l-.1-.1c.1-.1.2-.1.2-.1zm-31.3-9.1c.3.1.5.1.8.2.5.1 1.1.2 1.6.4.3.1.5.1.8.2.3.1.5.1.8.2.5.2 1.1.3 1.6.5.3.1.5.2.8.3.3.1.5.2.8.3.8.3 1.6.6 2.5 1-.2 0-.4.1-.6.1-2.4.5-4.8 1-7.2 1.3-.6-1.5-1.3-3-1.9-4.5 0-.1 0-.1 0 0zm-12.2 4.9c-1.2-.2-2.4-.4-3.5-.8.8-.1 1.7-.3 2.5-.5.5-.1 1-.2 1.4-.4.2-.1.5-.1.7-.2l.7-.2 1.4-.4c.5-.1.9-.3 1.4-.5.5-.2.9-.3 1.4-.5l1.3-.6c.5-.2 1-.5 1.6-.7.3 1 .7 1.9 1 2.9.2.7.5 1.3.7 2-3.6.4-7.2.4-10.6-.1zm7.2 15.6c-.9-1.3-1.6-3-1.8-4.7-.1-.9-.2-1.8-.1-2.6 0-.2.1-.4.1-.5h2.1c-.2.3-.3.6-.4.9-.2.5-.3 1-.4 1.5-.1.5-.2 1.1-.2 1.7 0 1.1.2 2.4.7 3.7zm-.1-12.8c.1-.2.3-.5.4-.7.1-.1.1-.1.1-.2 1-.1 2-.1 2.9-.2-.1.1-.4.2-.8.3-.4.1-.9.3-1.5.4-.3.2-.7.3-1.1.4zm13.4 17c-.6.1-1.2.1-1.9.1-.6 0-1.2-.1-1.8-.2-.6-.1-1.2-.3-1.8-.5-.6-.2-1.1-.5-1.6-.7-.5-.3-1-.6-1.4-1l-1.2-1.2c-.7-.9-1.2-1.8-1.4-2.9-.3-1-.3-2.1-.2-3 .1-.5.2-.9.3-1.4.1-.4.3-.7.5-1 .4 0 .9.1 1.3.2.9.1 1.9.2 2.8.2h.1c1.4 2.7 2.9 5.2 4.6 7.7.9 1.2 1.8 2.4 2.8 3.6-.3 0-.7 0-1.1.1zm18 2.5v.3c0 .2-.1.4-.2.5-.2.3-.4.7-.7.9-1-.3-2-.7-3-1.2-1.9-.9-3.8-2.1-5.5-3.4.2-.1.4-.3.6-.4 1.5-1.1 2.9-2.2 4.1-3.5 1.3-1.3 2.5-2.6 3.6-4 .1-.1.1-.2.2-.3v.5c-.1.8 0 1.7 0 2.5.1.8.1 1.6.2 2.3.1 1 .3 1.8.4 2.4.1.6.2 1.2.2 1.7s.1.9.1 1.3v.4zm-.1-15.3c-.1.3-.2.5-.2.8-1.4 1.7-2.9 3.4-4.6 5-1.8 1.7-3.8 3.3-6 4.5-.2.1-.5.3-.7.4-1.2-1.1-2.4-2.3-3.5-3.5-1.8-2-3.4-4.2-4.8-6.5.3-.1.5-.1.8-.2.6-.2 1.2-.4 1.7-.6 1 .2 2.1.5 3.1.8l3 .9c-.1.8 1.3.7 2.8.5 1.5-.2 3.2-.7 3.5-.8 1.5-.5 3.4-1.5 5.3-2.5-.1.5-.2.8-.4 1.2zm11.1 15.3c-.4-.3-.9-.8-1.1-1.3-.6-.4-1.4-.3-2.2-.1-.2.1-1.1.4-1.9.9-.4.2-.7.5-1 .8-.2.2-.3.4-.3.5.1.1-.2.5-.6.9-.3.4-.6.7-.7.8-.1 0-.2.1-.3.2h-.4c-.3 0-.5-.1-.8-.2.4-.2.8-.5 1-1.1 0-.1.4-.4.8-.7.4-.3.7-.6.9-.6.1.1.3-.1.5-.3.2-.2.5-.6.8-1 .5-.8.9-1.7.9-1.9.2-.7.3-1.5-.1-2.2-.5-.2-1.1-.7-1.3-1.1-.4-.6.2-1.9.7-2.5 0-.3.5-.8.7-1.1l.6-1.2c.2-.2.2-.8.2-1.1.5.1 1 .1 1.6.1.6 0 1.2-.1 1.8-.2.4-.1.9-.1 1.3-.1s.8 0 1.2.1c.8.1 1.6.4 2.4.7-.1 0 .1.1.4.1.2 0 .4.1.7.1h3.7c.5-.1 1.1-.2 1.6-.4 0 .8-.1 1.7-.2 2.5-.3 1.8-1.1 3.6-2.1 5.2-.4.6-.9 1.3-1.5 1.8-.4-.2-.8-.2-1.1 0-.1 0-.9 0-1.2.2-.3.2-.8.4-1.2.6-.3.2-.8.6-1.1.7-.8.8-2 1.4-2.7.9zm13.9 36.3c-.1 0-.1.1-.2.1-.2.1-.4.3-.7.4l.3-1.2c.2-.5.3-1 .4-1.5.1-.4.3-.7.3-.8 0 1 0 2-.1 3zm.2-10.4c-.7 2.1-1.4 4-1.9 6.2-.4 1.5-.6 2.9-.8 4.3 0 .4-.1.9-.1 1.3-.4.2-.8.3-1.2.4-.8.2-1.6.4-2.5.5-.9.1-1.8 0-2.6-.1-1.7-.3-3.4-.9-4.7-1.9 1.3.5 2.6.8 3.8.8.6 0 1.2-.1 1.7-.1.5-.1 1-.2 1.5-.4.9-.4 1.7-.8 2.3-1.4.6-.5 1.1-1.1 1.4-1.6.7-1.1.8-2.1.7-2.7 0-.2-.1-.3-.1-.5-.1-.1-.1-.3-.2-.4-.1-.2-.3-.3-.5-.4-.1.3-.2.7-.3 1.1-.1.4-.4.7-.6 1.1-.2.3-.5.7-.8 1-.3.3-.7.6-1 .8l-1.2.6c-.4.2-.9.3-1.4.3-1 .1-2 .1-3-.2-1-.3-2-.8-2.9-1.5-.4-.4-.8-.7-1.2-1.2-.4-.4-.7-.9-1-1.4-.3-.5-.5-1.1-.7-1.6-.2-.6-.3-1.2-.5-1.8-.1-.6-.2-1.2-.2-1.8 0-.6 0-1.2.1-1.9.3-2.5 1.2-4.9 2.5-7.1 1.3-2.2 2.9-4.2 4.6-5.9.5-.6 1.1-1.1 1.7-1.6 1.2-.4 2.4-.9 3.5-1.4 1.4-.7 2.7-1.5 3.8-2.4.1 1 .2 2.1.5 3.1.2 1.1.5 2.3.9 3.4l.1.4.1.4.1.4v.2l.1.2c.2.6.4 1.1.6 1.7l1.2 3c-.5.8-.9 2-1.2 3-.7 1.7-.6 3.5-.6 5.1zm.8 33.1c-.1-.1-.1-.3-.1-.3.1.1.2.3.3.5l-.2-.2zm.4-39c.1-.2.2-.5.2-.6 0 .2 0 .6-.2.6zm.9 40.9c.1 0 .2.3.3.5-.1-.1-.2-.3-.3-.5zm4.2-3.6c-.1 0-.1-.1-.2-.2.1 0 .2.1.2.2zm-1.4-32c.1.3.2.5.3.8.2.5.3 1.1.5 1.6.1.3.2.5.2.8.1.3.1.5.2.8.2.5.3 1.1.4 1.6.1.3.1.5.2.8 0 .3.1.5.1.8.1.5.2 1.1.3 1.6.3 2.1.5 4.2.5 6.2.1 2 0 3.9-.2 5.6 0 .4-.1.9-.1 1.3v.6c0 .2-.1.4-.1.6-.1.4-.1.8-.2 1.2-.1.4-.1.7-.2 1.1-.1.4-.1.7-.2 1-.1.3-.1.6-.2.9-.1.3-.1.6-.2.9-.1.3-.1.5-.2.8-.1.3-.1.5-.2.7v.1c-.1-.3-.3-.5-.4-.8-.6-1-1.1-2.1-1.6-3.2s-1-2.2-1.3-3.4c-.4-1.2-.6-2.4-.8-3.7-.4-3.4-.4-7 0-10.6.4-3.6 1.1-7.2 1.9-10.8 0-.2.1-.4.1-.6.3.8.7 1.7 1 2.5 0 .3.1.5.2.8zm0-40.9l-.5-1.8-.5-1.6c.2-.5.4-1.1.9-1.6l.2-.2c.2 1.2.4 2.7.5 4.2-.3.4-.4.7-.6 1zm.5.3c0 .5-.1 1-.1 1.5v-.1l-.2-.9-.2-.7c.2-.3.4-.6.5-.9v1.1zm.1-10.7c-.1.1-.3.1-.5.2-.1-.1-.2-.3-.3-.4.2-.1.4-.2.7-.3.1.1.2.2.3.4 0 0-.1 0-.2.1zm.7 3.9c0 .2.1.4.1.6l-.5-.2c.1-.2.3-.3.4-.4zm.1 2c-.1-.4-.2-.7-.3-1 .1 0 .2.1.3.2v.8zm1-2.9l.2.2c.4.4.7.8 1 1.2.1.1.1.2.2.3l.1.2.1.2c.1.1.1.2.2.4.1.1.1.2.2.4v.1l-.9-.5-1.7-.8-.1-.1c0-.3 0-.6-.1-.9.2-.2.5-.5.8-.7zm2.2 9.7c-.3 1.3-.8 2.5-1.5 3.8-.4.7-.8 1.4-1.3 2.1 0-.4-.1-.8-.1-1.2.2-.9.4-1.8.5-2.7l.1-.1c.2-.1.3-.2.5-.3.2-.1.3-.1.4-.2.5-.2.8-.3.8-.3h-.2c-.1 0-.4.1-.6.1-.1 0-.3.1-.5.1-.1 0-.3.1-.5.1.1-1 .1-2 .1-2.9-.1-1.9-.4-3.6-.8-5 .1-.4.1-.8.1-1.2.7.3 1.3.6 2 1 .3.2.6.3 1 .5.5 1.9.6 4 0 6.2zm9.4-6.4l-.8.4-.8.5-1.6.9-1.2.8-1.2-.8-1.6-.9-.8-.5-.8-.4-.3-.2c0-.1-.1-.2-.1-.3-.1-.2-.2-.4-.2-.5-.1-.1-.1-.2-.2-.3 0-.1-.1-.1-.1-.1-.3-.6-.7-1.2-1.2-1.7l-.4-.4c.2-.1.4-.3.6-.4l.3-.2c.1.1.2.1.3.2.4.3.9.6 1.3.9-.3.3-.6.6-.8 1 1.2 1.1.8 1.9 2.9 1.7.8-.1 1.5-.3 2.2-.6.7.3 1.5.5 2.2.6 2.1.2 1.7-.6 2.9-1.7-.2-.4-.5-.7-.8-1 .5-.3.9-.6 1.3-.9.1-.1.2-.1.3-.2l.3.2c.2.1.4.3.6.4l-.4.4c-.5.5-.8 1.1-1.2 1.7l-.1.1c0 .1-.1.2-.2.3-.1.1-.1.3-.2.5 0 .1-.1.2-.1.3l-.1.2zm2.8 5c0 .9 0 1.9.1 2.9-.2 0-.3-.1-.5-.1s-.3-.1-.5-.1c-.3 0-.5-.1-.6-.1h-.2s.3.1.8.3c.1.1.3.1.4.2.2.1.3.2.5.3l.1.1c.1.9.2 1.8.5 2.7-.1.4-.1.8-.1 1.2-.5-.7-.9-1.4-1.3-2.1-.6-1.2-1.1-2.5-1.5-3.8-.5-2.2-.5-4.3 0-6.1.3-.2.6-.3 1-.5.7-.4 1.4-.7 2-1 0 .4 0 .8.1 1.2-.4 1.4-.7 3-.8 4.9zm.7-6.7l-.1.1-1.7.8-.9.5v-.1c.1-.1.1-.2.2-.4.1-.1.1-.2.2-.4l.1-.2.1-.2c.1-.1.1-.2.2-.3.3-.4.6-.9 1-1.2l.2-.2c.3.2.6.5.9.7-.1.3-.2.6-.2.9zm.2 1.3v-.9c.1-.1.2-.1.3-.2-.1.4-.2.8-.3 1.1zm0-1.4c0-.2.1-.4.1-.6l.4.4-.5.2zm.5-4.6c.1-.1.2-.2.3-.4.2.1.4.2.7.3-.1.1-.2.3-.3.4-.2-.1-.3-.2-.5-.2 0-.1-.1-.1-.2-.1zm.7 11.4l-.2.9v.1c-.1-.5-.1-1-.1-1.5v-1.1c.2.3.3.6.5.9l-.2.7zm-.3-1.9c0-1.6.2-3 .4-4.3l.2.2c.4.5.7 1.1.9 1.6l-.5 1.6-.5 1.8c-.2-.2-.3-.5-.5-.9zm-.9 73.9c0-.1.1-.2.2-.2l-.2.2zm3.9 4.1c.1-.1.2-.5.3-.5-.1.2-.2.4-.3.5zm.7-17.4c-.2 1.3-.4 2.5-.8 3.7-.3 1.2-.8 2.3-1.3 3.4s-1.1 2.2-1.6 3.2c-.1.3-.3.5-.4.8v-.1c-.1-.2-.1-.5-.2-.7-.1-.2-.1-.5-.2-.8-.1-.3-.1-.6-.2-.9-.1-.3-.1-.6-.2-.9-.1-.3-.1-.7-.2-1-.1-.4-.1-.7-.2-1.1-.1-.4-.1-.8-.2-1.2 0-.2-.1-.4-.1-.6v-.6c0-.4-.1-.8-.1-1.3-.1-1.7-.2-3.6-.2-5.6.1-2 .2-4.1.5-6.2.1-.5.2-1.1.3-1.6 0-.3.1-.5.1-.8.1-.3.1-.5.2-.8.1-.5.2-1.1.4-1.6.1-.3.1-.5.2-.8.1-.3.1-.5.2-.8.2-.5.3-1.1.5-1.6.1-.3.2-.5.3-.8.1-.3.2-.5.3-.8.3-.8.6-1.6 1-2.5 0 .2.1.4.1.6.8 3.6 1.5 7.2 1.9 10.8.3 3.6.3 7.2-.1 10.6zm.2-24.5c.1.1.2.3.2.6-.1-.1-.1-.5-.2-.6zm.6 39.5c-.1.1-.1.2-.2.2.1-.2.2-.4.3-.5.1 0 0 .2-.1.3zm1.3-22.6c-.1-.1-.1-.1-.2-.1-.1-1-.1-2-.2-2.9.1.1.2.4.3.8.1.4.3.9.4 1.5.1.4.2.9.3 1.2-.2-.2-.4-.3-.6-.5zm15-20.2c1.3 2.2 2.2 4.6 2.5 7.1.1.6.1 1.2.1 1.9 0 .6-.1 1.2-.2 1.8-.1.6-.3 1.2-.5 1.8-.2.6-.4 1.1-.7 1.6-.3.5-.6 1-1 1.4l-1.2 1.2c-.9.7-1.8 1.2-2.9 1.5-1 .3-2.1.3-3 .2-.5-.1-.9-.2-1.4-.3l-1.2-.6c-.4-.2-.7-.5-1-.8-.3-.3-.6-.6-.8-1-.2-.3-.4-.7-.6-1.1-.2-.4-.3-.7-.3-1.1-.2.1-.4.2-.5.4-.1.1-.1.2-.2.4 0 .1-.1.3-.1.5-.1.7.1 1.6.7 2.7.3.5.8 1.1 1.4 1.6.6.5 1.4 1 2.3 1.4.5.2 1 .3 1.5.4.5.1 1.1.2 1.7.1 1.2 0 2.5-.2 3.8-.8-1.3.9-3 1.6-4.7 1.9-.9.1-1.8.2-2.6.1-.9-.1-1.7-.2-2.5-.5-.4-.1-.8-.3-1.2-.4 0-.4-.1-.9-.1-1.3-.2-1.4-.4-2.8-.8-4.3-.6-2.2-1.2-4.1-1.9-6.2 0-1.6.1-3.3-.6-5.2-.4-1-.8-2.2-1.2-3l1.2-3c.2-.6.4-1.1.6-1.7l.1-.2v-.2l.1-.4.1-.4.1-.4c.3-1.1.7-2.3.9-3.4.2-1 .4-2.1.5-3.1 1.2.9 2.4 1.7 3.8 2.4 1.1.6 2.3 1 3.5 1.4.6.5 1.1 1.1 1.7 1.6 1.8 1.8 3.4 3.8 4.6 6zm7-13.6h-.4c-.1-.1-.2-.1-.3-.2-.1 0-.4-.4-.7-.8-.3-.4-.6-.7-.6-.9.1-.1-.1-.3-.3-.5-.2-.2-.6-.5-1-.8-.8-.5-1.7-.9-1.9-.9-.7-.2-1.5-.2-2.2.1-.2.5-.7 1.1-1.1 1.3-.6.4-1.9-.1-2.5-.6-.3 0-.8-.5-1.1-.7l-1.2-.6c-.3-.2-1.1-.3-1.2-.2-.3-.2-.7-.2-1.1 0-.5-.6-1.1-1.2-1.5-1.8-1.1-1.6-1.8-3.4-2.1-5.2-.2-.8-.2-1.7-.2-2.5.5.2 1 .3 1.6.4.4.1 1.7.1 2.9 0h.8c.2 0 .5-.1.7-.1.4-.1.5-.1.4-.1.8-.3 1.6-.6 2.4-.7.4-.1.8-.1 1.2-.1s.8 0 1.3.1c.6.1 1.2.2 1.8.2.6 0 1.1 0 1.6-.1 0 .3.1.9.2 1.1.2.3.4.8.6 1.2.2.3.6.8.7 1.1.5.6 1.1 1.8.7 2.5-.3.4-.8.9-1.3 1.1-.3.6-.3 1.4-.1 2.2.1.2.4 1.1.9 1.9.3.4.5.7.8 1 .3.2.4.3.5.3.1-.1.5.2.9.6.4.3.7.6.8.7.2.5.5.9 1 1.1-.5-.2-.7-.2-1-.1zm6.6-2.1c-1 .5-2 .9-3 1.2-.3-.2-.5-.6-.7-.9-.1-.2-.1-.4-.2-.5v-.6c0-.4 0-.8.1-1.3 0-.5.1-1.1.2-1.7.1-.7.2-1.5.4-2.4.1-.7.2-1.5.2-2.3.1-.8.1-1.7 0-2.5v-.5c.1.1.1.2.2.3 1.1 1.4 2.3 2.7 3.6 4 1.3 1.3 2.7 2.5 4.1 3.5.2.1.4.3.6.4-1.7 1.3-3.5 2.4-5.5 3.3zm7.6-5.1c-.2-.1-.5-.2-.7-.4-2.2-1.3-4.2-2.8-6-4.5-1.7-1.6-3.2-3.3-4.6-5-.1-.3-.2-.6-.2-.8-.1-.4-.3-.8-.4-1.1 1.9.9 3.8 2 5.3 2.5.3.1 1.9.5 3.5.8 1.5.3 3 .3 2.8-.5l3-.9c1-.3 2-.6 3.1-.8.6.2 1.1.4 1.7.6.3.1.5.1.8.2-1.4 2.3-3 4.4-4.8 6.5-1.1 1.2-2.2 2.3-3.5 3.4zm17.6-4.3c-.3 1-.7 2-1.4 2.9-.4.4-.7.8-1.2 1.2-.4.4-.9.7-1.4 1-.5.3-1.1.5-1.6.7-.6.2-1.2.4-1.8.5-.6.1-1.2.2-1.8.2-.6 0-1.2 0-1.9-.1-.4 0-.8-.1-1.2-.2 1-1.2 2-2.4 2.8-3.6 1.7-2.4 3.3-5 4.6-7.7h.1c1 0 1.9-.1 2.8-.2.4 0 .9-.1 1.3-.2.2.3.4.7.5 1 .2.4.3.9.3 1.4.3 1.1.2 2.1-.1 3.1zm3.7-5.7h.3c0 .2.1.4.1.5.1.9 0 1.8-.1 2.6-.3 1.7-.9 3.4-1.8 4.7.5-1.3.7-2.6.7-3.8 0-.6-.1-1.2-.2-1.7s-.2-1-.4-1.5c-.1-.3-.3-.6-.4-.9h.4c.4.1.9.1 1.4.1zm-1.4-4.9l-1.2-.3c-.5-.1-1.1-.3-1.5-.4-.4-.1-.7-.3-.8-.3.9.1 1.9.1 2.9.2 0 .1.1.1.1.2.2.2.3.4.5.6zm7.1-2.8c-3.4.5-7 .4-10.6.1.3-.7.5-1.3.7-2 .4-1 .7-1.9 1-2.9.5.3 1 .5 1.6.7l1.3.6c.4.2.9.3 1.4.5.5.2.9.4 1.4.5l1.4.4.7.2c.2.1.5.1.7.2.5.1 1 .2 1.4.4.8.2 1.7.3 2.5.5-1.1.4-2.3.7-3.5.8zm15 .7c-.1.1-.3.1-.3.1.1-.1.3-.2.5-.3.1.1 0 .2-.2.2zm9.9-25.3c-4.9 3.4-8 10.5-9.8 12.3-6 6.3-13.5-.8-17 .2 3-2 2.8-12.5 11.4-12.9 2.6-.2 10.4 2 15.4.4zm-69.4 16.9c1.2-1.2.2-5.9 4.1-6.9 1.2-.3 4.9 0 7.1-1.1-1.9 2-2.8 5.5-3.4 6.5-2.2 3.3-6.3.7-7.8 1.5z"/></svg>