<svg id="Layer_1" xmlns="http://www.w3.org/2000/svg" viewBox="0 0 595.3 595.3"><style>.st0{fill:#514130}</style><path class="st0" d="M513.5 366.6c-.1-22.8-.2-45.2-.2-67 2.5-6.3 2.6-13.4.3-19.9 0-.3 0-.6-.1-.9-.1-1.5.2-3.5-.3-5.1 0-8.2-.1-16.3-.1-24.2-.1-18.6-.2-36.7-.2-54.2 0-4.4 0-8.7-.1-13v-6.4c0-2.1 0-4.2-.1-6.4-.2-8.6-1.7-17-4.2-24.9-5.1-15.8-14.3-29.3-25.4-39.4-5.6-5-11.6-9.2-17.9-12.6-6.3-3.4-12.7-5.9-19.2-7.6-6.5-1.7-12.9-2.7-19.1-3-1.5 0-3.1-.1-4.6-.1h-4.5c-3 0-5.9 0-8.7.1-11.4.1-21.9.2-31.4.2-37.9.4-59.6.6-59.6.6s21.7.2 59.6.6c9.5.1 20 .2 31.4.2h4c0 .1 0 .2.1.2.1.1.3.1.4.2.1.1.2.1.3.1 4 1.7 9.1 1 13-.2 0 0 .1 0 .1-.1 6 .4 12.2 1.4 18.4 3.2 6.3 1.8 12.5 4.3 18.6 7.7 6 3.4 11.8 7.6 17.2 12.5 10.6 9.9 19.4 23.1 24.1 38.3 2.3 7.6 3.7 15.7 3.8 24 .1 2 0 4.2 0 6.3v6.4c0 4.3 0 8.6-.1 13-.1 17.5-.2 35.6-.2 54.2-.1 17.7-.1 35.9-.2 54.5-.1.2-.2.3-.3.5-.1.3 0 .5.3.5-.1 20.1-.1 40.7-.2 61.6 0 13.1-.1 26.4-.1 39.8-.1.5-.3 1-.4 1.5-.1-2.4 0-4.8.2-7.3 0-.2-.3-.2-.3 0-1.4 4.6-1.5 9.4-.8 14 .1.8.2 1.5.4 2.3.2 1.1.5 2.2.9 3.3v8.3c0 5.3-.1 10.4-.7 15.3-.4 2.9-.9 5.8-1.6 8.7-.5-13.4-13.1-27.1-26.7-19.2-5.8 3.4-7.5 10.2-4.8 16 2.2 4.8 10.5 8.9 14.4 4 .8-1 .7-2.8-.8-3.1-4.7-.8-11.4-2.8-8.2-9.2 2.7-5.5 9.9-4.8 14.2-2.1 11.4 7.3 7.3 25.9 2.6 35.7-5 10.3-14.8 18.6-25.1 23.4-12.5 5.9-26.6 5.7-39.9 3.1-.5-.1-.7.3-.7.6-3.1-3.1-6.3-6.2-9.6-9-1-.8-2-1.6-3.1-2.4-.4-.4-.8-.8-1.2-1.1-.1-.1-.2-.1-.3 0-7.4-5.4-15.6-9.7-24.3-13-27.5-10.5-58.1-9.4-86.3-2.2-13.7 3.5-26.7 8.8-39.2 15.3-12.5 6.6-24.7 13.9-38.4 17.7-15.2 4.2-31 2.3-44.7-4.2 9.7.3 19.5-2.5 27.3-8.2 20-14.3 25-41 16.6-63.1-7.8-20.7-29.7-42.9-53.6-34.7-13.7 4.7-22.7 16.5-27 30-.1-5.2-.3-10.3-.4-15.5.7-4.2 1.6-8.3 2.9-12.4 3.6-8.1 8.6-15.2 16.4-20.5 4.7-3.2 8.8-6.2 12.3-10.8 4-5.3 6.8-11.7 9.9-17.6 3.2-6 6.6-12 9.5-18.1 2.6-5.5.4-9.3-1.6-14.5-2.2-5.7.4-12.1-2.1-17.8-2.3-5.2-6-10-10.3-13.7-.4-.4-1 .2-.6.6 3.9 4.9 8.2 8.9 10.4 14.9 2.1 5.8-.1 12 2.1 17.7 1.5 3.9 2.9 6.3 1.7 10.6-.7 2.6-2.2 5.3-3.7 7.8-1.5.5-2.9 1.9-4.1 2.9-1.8 1.5-3.6 3.1-5.3 4.7-.2.2.1.5.3.3 1.5-1.4 3-2.6 4.5-3.9 1.2-1 2.6-1.8 3.9-2.7-.4.8-.9 1.5-1.2 2.2-3.1 5.9-6.2 11.9-9.4 17.8-2.1 3.9-4.4 7.6-7.3 10.8-6.6 1.1-11.9 5.1-16.4 9.8.6-1 1.2-2 1.7-3.1 4-6.8 8.4-13.4 12.5-20.1 2.5-2.6 5-5.3 7.3-8 .1-.1-.1-.3-.2-.2-1.8 1.4-3.5 3-5 4.6 10.8-18.7 20.8-45.2 7.3-64.8-.2-.3-.7 0-.5.3 7.1 14.5 6.2 29 1.6 42.8 1.9-7.8 1.1-16.1-1.1-23.9-.1-.3-.5-.2-.5.1 2.9 10.7 1.1 20.9-1.8 31.3-.1.2.2.3.3.2-2.9 6.8-6.6 13.3-10.4 19.7l-.9 1.2c-.1.1-.1.3 0 .4-.7 1.1-1.3 2.2-2 3.3-1.4 2.2-2.8 4.5-4.2 6.7 1.4-5.3 1.7-10.9.9-16.5 0-.2-.4-.2-.4 0-.6 6.9-.4 13.4-2.5 19.6-4.4 7.3-8.5 14.9-11.6 22.9-.8 2.1-1.5 4.3-2.1 6.5-.2.6-.3 1.1-.5 1.7 0-1 0-1.9-.1-2.9.2.1.4 0 .4-.2.8-11.7 8-21.4 10.5-32.7 1.2-5.3 1.4-10.8 2.8-16.1 1.7-6.2 6.5-10.1 10.4-14.9 2.2-2.7 3.2-5.6 3.1-9.1-.1-2.1-.9-4.3-1.4-6.3-.9-3.8.1-7 1.9-10.3 3.3-6 9.3-11.3 7.6-18.7 0-.2-.4-.1-.3.1 1.9 8.5-7.6 15-10.2 22.4-1.3 3.8.1 7.7 1 11.4 1.5 6.6-4.1 11.2-8.1 15.6-6.9 7.6-6.5 17.6-8.7 27-2.1 9.1-7.9 17-9 26.2l-.3-17.8c0-2.6 0-5.1-.1-7.7-.2-9.8-.3-19.6-.4-29.4-.3-24.2-1.1-48.5.2-72.7 1.1-3.3 1.9-6.8 2.3-10.1.3-2.4-.4-4.6-1-6.9l.6-5.7c.5-4.4 1.2-9.1 2-13.9 6.1-13.7 15.7-26.5 31.2-29.7 3.8-.8 7.6-.2 11.4-.7 2.4-.3 4.7-1.7 6.8-2.8 4.6-2.5 8.2-3.7 13.4-2.1 3.5 1.1 6.7 3.1 10.2 4.3 13.8 4.7 30.6 6.6 45 4.4 5.7-.9 11.4-2.4 16.9-4.2 4.8-1.6 10.6-3.5 14.2-7.3.4-.4 0-1-.5-.9-6.1-.5-12.2-1-18.4-1.4-9-.6-17.7 0-26-4-2.8-1.4-5.4-2.7-8.5-3.3-4.2-.8-8.2-.3-11.6-3.5-1.6-1.5-2.9-3-5.2-3.3-5.2-.5-10.1-.2-15.3-1.3-6.9-1.5-13.4-3.6-20.3-.9-3.5 1.3-6.3 3.2-10.1 3.9-3.6.6-6.8 1.5-10 3.4-5.5 3.2-9.5 8.7-12.7 14.1-.2.4-.4.7-.6 1.1 4.4-9.7 10.5-18.3 18.9-24.3 12.5-8.9 28.6-6.3 42.8-4.6 1.3.2 2.6.3 3.9.4 4.1.8 8.3 1 12.5 1.2 2.2 1.5 4.8 1 7.4-.1h.1c.2 0 .3-.1.4-.2 1.7-.8 3.2-1.8 4.5-2.6 1.8-.5 3.6-1.2 5.4-2 5.7-2.5 9.9-6.9 12.5-12.5.8-1.7-1.3-3-2.4-1.7 0-3.7.1-7.4 1.2-11.1.1-.2-.2-.3-.3-.1-1 3.1-1.4 6.4-1.5 9.6-1.2-4.3-2.2-8.2-1.5-13.1 1-6.5 3.9-11 7.7-16.1.4-.5-.4-1.1-.9-.9-10.3 5.4-15.1 23.9-7.8 33.6-.1-.1-.2-.2-.3-.2-3.7-5.7-6.1-11.1-5.9-18.3 0-.2-.3-.2-.4 0-.6 5.4.5 11.7 3.7 16.4-2.9-2.4-5.1-5.1-6.4-9.2-1.8-5.6-.4-11.8-1.5-17.6-.1-.7-1.2-.8-1.5-.2-.2.5-.5 1.1-.7 1.7-5.3-8.3-7.5-18.1-8.1-27.8-.3-3.9 0-7.7 1.2-11.4 1.7-5.4 5.8-6.7 10.7-6.9-.8 2.4-1.2 4.8-1.4 7-.6 6.3.2 12.9 1.8 19 1.1 4.2 3 11.7 7.2 14 .3.1.7-.1.6-.4-1.3-3.9-3.8-7.3-5.1-11.3-1.7-5.3-2.5-10.9-2.6-16.5-.1-4 .3-8.2 1.6-12.1 0-.1.1-.1.1-.2.3-.9.7-1.8 1.1-2.6 2.3-4.6 6.3-5.6 11.1-5.2.5 0 .5-.7.1-.9-7.3-3-11.6 1.8-13.9 7.8-9.1-2.7-14 5.1-15 13.6-1.4 12.2 3.2 25.1 10.4 34.9-2 6.2-2.1 13.8.9 19.5 2.4 4.6 6.7 9.6 12.3 9-7.5 7.6-19.2 9.6-29.6 9.5-2.8 0-5.7-.2-8.5-.5 3.1-.9 5.9-2.4 8.3-4.7 1.4-1.4 2.2-3.2 2.8-5 1-3 4.4-4.2 5.3-7.4 1.3-4.7-1.4-11.2-2.6-15.6-1.5-5.2-3.5-11.3-7.3-15.3-.2-.2-.6 0-.5.3.1.1.1.3.2.4.1.3.1.5.2.8.8 5.4.1 10.6-1.2 15.9-1.6 6.3-3.2 12.2-8.7 16.2-4.5 3.3-10 7.2-10.1 13-6.3-.6-12.5-.9-18.9.1-1.3-.6-2.8-.8-4.3-.6-.2-.1-.4-.1-.6 0h-.1c-2.3.1-4.4.9-5.4 3.5v.1c-17.1 8-26.5 28.3-31.5 45.6-2.5 8.7-4.4 17.5-5.7 26.4 0-4.8-.1-9.5-.1-14.2.2-1.2.4-2.5.7-3.7 1.2-5.5 3.9-10.4 5.4-15.7 1.5-5.7-.5-11.9-.8-17.6-.6-11 8.3-20.1 10.4-30.6.8-3.9 2-7.7 1.4-11.7-.5-3.3-2.9-4.2-2.3-8.3.5-3.5 2.7-6.7 4.1-9.9.3-.6-.5-1.1-.9-.5-.8 1.3-1.6 2.8-2.4 4.3-2.7 3.4-6.2 6.1-9.7 8.6 3.1-7.8 7.2-14.8 11.8-20.9 6.9-9 14.8-16 22.8-21 7.9-5.1 15.8-8.4 22.8-10.4 7-2.1 13.3-3 18.3-3.3 5.1-.3 9-.3 11.6-.3-2.6 0-6.5-.2-11.6.1-5.1.3-11.3 1-18.5 3-7.1 1.9-15.1 5.1-23.2 10.1s-16.3 11.9-23.5 21c-5.4 6.8-10.1 14.9-13.6 24.1-4.4 3.1-8.7 6.3-11.9 10.7-3.6 5-3.3 10.5-3.1 16.3.3 7.4-5.9 13.3-7.5 20.4-1.6 7.2 2.5 13.3 2.6 20.3.1 3.6-.6 7.1-.4 10.7.2 2.9 1.3 5.7 2.5 8.4 3.2 7.4 6.6 14.2 8.5 22.1 1.3 5.3 2.2 10.7 3 16-.1 15.3-.2 31.2-.2 47.5-1.3 3.7-1.6 8.5-.1 12.1v.1c0 5 0 10-.1 15.1-1.1-2.7-2.3-5.4-3.7-8 .8-9-6.6-17-9.7-25-2.2-5.8-.3-12-2.5-17.8-1.9-4.8-5.7-8.7-8.4-13-4.1-6.6-1.7-13.5-2.2-20.7-.3-4.9-4.1-8.4-7.7-11.3-9-7.1-15.6-16.1-17.7-27 .3-3 .6-7.1-.2-7.6.2.2.5-.2.3-.4l-.1-.1c-.1-.1-.3-.1-.4 0-.1.1-.2.2-.3.4v-1.4c0-.2-.4-.2-.4 0v2.6c-.3 1.6-.1 3.8-.2 4.8-.3 5.9-.8 11.4-2.3 17.2-1.8 6.9-3.9 13.4-4.3 20.6-.4 7.1.8 14.3 2.1 21.3 1.1 6.1 2 12.6 5.2 18.1 3.2 5.4 9.2 9.4 13.8 13.4 6 5.1 12 10.3 17.9 15.4 5.1 4.4 10 9.1 15.4 13v.1c-.1.5.5.7.9.5.2.1.3.2.5.4.2.1.4.1.5 0 1.3 2.6 2.5 5.3 3.4 8.1-.1 18.5-.2 37.5-.2 56.9 0 9.8-.1 19.6-.1 29.6 0 2.5 0 5.1.1 7.6l.3 3.9c.1 1.3.3 2.6.5 3.9.7 5.1 1.9 10.2 3.5 15.2v.1c1 9.7 3.3 19.1 9.6 27 2.2 2.8 4.8 5.2 7.6 7.2.2.4.5.7.7 1.1.1.2.5 0 .3-.2 0-.1-.1-.2-.1-.3 1.7 1.2 3.6 2.2 5.5 3 4.4 4.3 9.3 8.2 14.5 11.5 9.1 5.8 19.3 10 29.9 12.3 2.7.5 5.4 1 8.1 1.3 1.3.2 2.7.3 4.1.4l2.1.2 2 .1 2 .1h6.9c1.1.1 2.2.1 3.3 0h37.3c1.5.9 3 1.3 4.7 1.4 2.6.7 5.5.7 8-.1 1.9-.2 3.7-.5 5.4-1.3 25.8 0 51.8 0 77.8.1h47.6c.1 0 .2.1.3 0h.8c5.6 0 11.2-.6 16.6-1.6 11-2.1 21.5-6.1 30.9-11.9 9.5-5.8 17.8-13.3 24.5-22 6.8-8.7 11.9-18.5 15.2-29 1.6-5.2 2.7-10.6 3.4-15.9.7-5.4.7-10.9.7-16-.5-20.8-.5-41.5-.6-61.8zm.4-76.7v-2.4c.1 1.5.1 2.9-.1 4.4v-.5c.1-.5.1-1 .1-1.5zm-356.6 91.7c2.2-2.3 4.5-4.5 7-6.4 3-2.3 6.4-3.4 9.8-4.7-.6.7-1.3 1.3-2 2-4.5 4-9.8 6.5-14.1 10.9-1.6 1.6-3 3.4-4.3 5.3 1.1-2.4 2.3-4.8 3.6-7.1zM239 142.1c1.1 5.6-3.3 7.7-5 12.2-2.4 6.2-7.4 8-12.9 9.8-1.4-.1-2.8-.3-4.2-.5 6.1-4 10.4-10.7 12.9-18.1.4-.2.8-.5 1.2-.7.7-.5 1.6-.9 2.1-1.5.1-.2 0-.4-.2-.4-.8.2-1.5.8-2.2 1.3-.2.1-.3.2-.5.4 2.5-7.8 2.9-16.5 1.3-23.8 3 6.9 6 13.6 7.5 21.3zm-25.5 16.1c1.5-3.2 4.8-5.1 7.6-7.1s5-4.4 6.3-7.6c1.8-4.8 3.6-10.5 4-16.1.3 12.4-3.6 25.4-12.6 33.5 1.3-2.2 2.5-4.8 3.1-7.2.1-.2-.3-.4-.4-.2-1.6 2.3-2.8 5.2-3.6 7.9 0 .1 0 .2.1.2-.7.6-1.5 1.2-2.2 1.7-1.2-.1-2.4-.3-3.6-.4.2-1.5.6-3.1 1.3-4.7zm-26.3 5.3h.6c-.3.1-.5.1-.8.2.1 0 .1-.1.2-.2zm46.8 18.9c1.7 1.7 4.4 2.1 6.7 2.4 4.2.6 7.3 1.1 11.1 3 3.1 1.5 5.9 2.9 9.2 3.7 6.1 1.5 12.6 1.1 18.8 1.4 5.5.3 11 .9 16.5.9-.1 0-.1.1-.2.1-17.7 5.7-34.7 2.3-52-2.8-.1-.1-.3-.2-.4-.2-.1-.1-.2 0-.2.1l-.9-.3c-7-2.1-14.1-4.2-21.2-5.8.4-.1.8-.2 1.2-.4 3.6-1 7.2-1.8 10.7-2.8l.7.7zm-79.5 28.1c4.4-11.4 9.9-23 21.1-28.6 3.3-1.6 7-1.8 10.5-2.6s6.4-3.3 9.9-4.3c8.5-2.3 17.5 3 26.1 3.2 1.6 0 3.2-.1 4.7-.1 3.2 0 4.6 1.6 6.2 3.3-2.4.4-4.7 1-7 1.5-2.4.4-5.2 1.4-7.7 1.4-7.1-1.4-14.3-2.1-21.6-1.4-21.6 1.8-36.6 19-45 38.4.8-3.6 1.8-7.2 2.8-10.8zm-3.6 14.6c3-7 6.9-13.6 11.4-19.9 5.1-7.2 11.4-13.4 19.4-17.3 7.6-3.8 16.4-4.4 24.7-3.9 14 .8 27.2 5.6 40.6 9.5 3.8 2.6 7.4 5.5 11.2 8.3.1.1.2-.1.1-.2-2.9-2.9-6.3-5.4-9.8-7.7 1.4.4 2.7.8 4.1 1.1 11.9 3.1 25.2 5.3 37.2 1.9-9.5 4.2-19.6 6.6-30 7.6-9.3.9-18.9-.7-28-2.6-4.7-1-9.2-1.9-13.6-3.9-2.9-1.3-5.5-2.6-8.6-3.3-6-1.3-11.1 3.5-16.3 5.3-3.6 1.3-7.7.1-11.4.6-3.2.5-6.1 1.4-9.1 2.6-11.3 4.8-18.2 15.7-23 26.6.5-1.5.8-3.1 1.1-4.7zm-4.3 31.2c.1-.7.1-1.4.2-2.1.1.7.2 1.4.2 2.2 0 1.6-.2 3.2-.6 4.7.3-1.6.4-3.2.2-4.8zm-41.2 51.6c-4.6-4-9.4-7.8-13.7-12.1-5.2-5.2-6.1-12.4-7.5-19.3-1.4-6.9-2.4-13.8-2.5-20.8-.1-7.6 2.1-14.9 4-22.2 1.1-4.2 1.8-8.3 2-12.6 0-.2.1-.6.1-1.1 1.4 6.8 4.5 13.1 9.2 18.7 4.2 5 10.4 7.8 13.9 13.4 3.5 5.7-.3 14.1 1.1 20.5 1.1 5 5 9.1 7.8 13.2 2.1 3.1 3.6 6.2 3.9 10 .3 2.8-.3 5.7.2 8.5 1.7 9 8.7 16.4 10.4 25.3 0-.1-.1-.2-.1-.2-4.7-7.6-10.9-14-16.9-20.6-.1-.2-.1-.4-.1-.7 0-.1-.2-.1-.2 0v.3c-2.7-3-5.4-6.1-7.9-9.4-7.5-15.8-1.5-31.7-1.6-48.5 0-.2-.4-.2-.4 0-1.4 13.9-6 30.8-.8 44.6-.1-.2-.3-.4-.4-.6-3.1-4.8-5.4-9.9-7.3-15.1-2.3-6.5-3.5-12.6-2-20.1 0-.2-.2-.2-.2-.1-.7 3.4-1 7.1-.8 10.8-1.9-6.6-3.6-13.4-5.5-20-.1-.4-.7-.2-.6.2 2.1 14 6 28.1 12.5 40.7 5.5 10.6 14.1 18.9 22 27.7-1.2-.3-2.4-.5-3.4-1.3-.4-.3-.9.2-.5.5 1.4 1.3 3.3 1.4 4.8 2.3 1.3.7 1.8 3 3.3 3.4 2.5 3 4.6 6.2 6.5 9.5v.5c-9-9.2-19.7-17.1-29.3-25.4zm43.8-168.5c3.4-2.4 6.7-4.8 9.3-7.9-.1.3-.3.7-.4 1-5 4.3-8.8 9.8-11.8 15.9.9-3.2 1.8-6.2 2.9-9zm-8.8 99.4v.6c-1-10.2-2.2-20.4-2.7-30.6.8-3.9 1.8-7.6 3-11.3-.1 13.1-.2 26.9-.3 41.3zm.5-68.3c-.1 7-.1 14.2-.2 21.7v1.2c-1.4 3.9-2.5 7.9-3.1 12-.1-2.3-.1-4.7-.1-7 .1-9.8 1.1-19.7 3.4-29.3v1.4zm1.1-13c-.1.8-.2 1.7-.4 2.6 0 .3-.1.6-.1.9-2.5 8.7-3.8 17.8-4.6 26.2-.2-8.1-.2-16.3.7-24.4 0-.2-.4-.2-.4 0-1.1 9.4-1.6 18.8-.6 28.3 0 .6-.1 1.2-.1 1.8-1 17.9 2 35.6 3.8 53.3v9.2c-1.2-7.3-3.1-14.4-6.2-21.3-1.6-3.5-3.5-6.8-4.9-10.4-1.5-3.8-1.3-7.7-1-11.7.5-8.2-3.9-15.3-2.8-23.5.9-6.5 5.9-11.1 7.1-17.4.5-2.7 0-5.6-.2-8.3-.2-4 .9-7.5 3-10.9 2.8-4.4 6.7-7.6 10.9-10.5-1 2.8-1.9 5.6-2.6 8.6-.4 1.6-.8 3.3-1.1 4.9-.2.9-.3 1.8-.5 2.6zm1.6 34.7v-3.5c.3-.9.7-1.9 1-2.8.1-.2-.2-.3-.3-.1-.3.4-.5.9-.7 1.3 0-5.6-.1-11.1-.1-16.5 0-1.7 0-3.5.2-5.2 0-.4.1-.8.1-1.1 1.2-1.5 1.9-3.6 2.9-5.1 1.9-3 4.2-5.9 6.3-8.8.1-.2-.2-.4-.3-.2-1.8 2.4-3.7 4.6-5.3 7.1-1.3 1.9-2.3 4.1-3.5 6.2v-.5c.1-.8.2-1.7.3-2.5.1-.8.2-1.7.3-2.5 0-.2.1-.4.1-.7 3.1-8.2 7.3-16 13-22.8-.3 1-.5 2-.5 3 0 1.4-.1 2.9.7 4.1 2.5 3.9 2 7.1 1 11.4-1.4 6.1-3.4 11.4-6.3 17.1-2.1 4.2-4.4 8.7-4.9 13.4-.7 6.9 1.9 13.5.6 20.4-.8 4.3-2.8 8.4-4.3 12.6-.2-8.4-.3-16.5-.3-24.3zm4.4 264.4c-.3-5.4-.2-10.7-.4-15.6 0-1.3-.1-2.6-.1-4 1.8-12.5 7.8-24.1 18.6-32.3 26.4-20.1 54 10.7 60.3 35.4 3.9 15.4-.4 32.6-10.6 44.3 7-9.9 9.9-22.4 9.3-34.7-.9-17.9-11-37.2-29.6-41.3-18.5-4.1-36.7 8.7-43.5 25.5-3 7.4-4.1 15.1-3.9 22.8l-.1-.1zm2.2 6.5c-1.1-8-.8-16.2 1.7-24.5 5.6-19 23.2-32.2 43.3-28.9 19.1 3.2 27.8 24.1 28.6 41.4.7 15.2-5.1 30.2-16 40.6-3.6 2.5-7.7 4.4-12.1 5.6 9.2-5.1 15.1-17.7 17.4-27.2 3.8-15.5.2-35.2-15.4-42.7-14.7-7.2-29.7 5.8-35.6 18.4-6.7 14.1-4.2 30 3.3 43-6.6-7.7-11.8-16.5-15.2-25.7zm22.8 33.1c-.9-.7-1.9-1.4-2.8-2.2-1.1-1.1-2.2-2.2-3.2-3.4-6.9-11.6-9.5-25.2-6.1-38.5 3.7-14.4 17.4-28.8 33.4-24.7 29.9 7.5 21.7 66.4-6.6 70.3 7.6-8.2 11.3-19.7 11.7-30.7.3-6.9-1.7-24.5-12-24.2-12.4.4-17.4 16.2-18 26.3-.5 8.6.4 20.3 5.9 27.8-.7-.2-1.5-.4-2.3-.7zm9.2 2.1c-3.7-5.2-3.5-12.6-2.7-18.6.4-3.2 1.6-6.5 4.4-8.4 5.4-3.7 8.6 3.3 7.9 7.5-1 7.1-7.2 12.3-9.3 19.1-.1 0-.2.1-.3.4zm10.2-17c1.2-3.4 1.2-10-3.2-11.4-13.4-4.2-13 21.3-7.2 28.4-1.8-.2-3.6-.5-5.4-.9-4.5-6.2-5.5-15.1-6.2-22.4-.6-6 .3-12 2.3-17.6 2.2-6.4 8.1-14.6 15.8-13.5 10.8 1.5 10.1 21.7 9.1 29.2-1.3 9.5-5.7 17.6-11.4 25-.9.1-1.9.1-2.9 0 2.8-5.9 7-10.8 9.1-16.8zm35.8 37.7h-1.8l-1.9-.1c-1.3-.1-2.5-.2-3.8-.4-2.5-.3-5.1-.7-7.6-1.2-8.7-1.8-17-5-24.6-9.3 10.3 3.8 21.6 4.9 32.5 3.5 12.7-1.6 24.5-7.4 35.7-13.3 4.5-2.4 9-4.8 13.4-7 5.7 7.3-14.4 20.1-19.1 22.5-7.3 3.6-14.9 4.1-22.8 5.3zm55.6 0h-16c2.1-.8 4.2-1.7 6.2-2.7 9.7-4.9 20.7-16.2 16-27.9-.2-.4-1-.4-.9.1 1.4 13.7-10.6 22.9-22.2 27.1-4.9 1.8-10 2.7-15.2 3.4H245c5.1-1.9 9.9-4.6 13.9-7.3 5.1-3.4 18.5-14.3 12.3-21 4.5-1.3 9.2-2.3 13.9-3.1 4.1 0 8.1 1 11.6 2.9 2.9 6.4 2.7 13.3-.8 19.5-2.8 5.2-7.3 6.8-12.1 9zm24.1 0H291c2.8-2.2 5.2-5.2 6.8-7.9 3.5-6 3-13.7.2-19.9 2.1 1.3 4 2.8 5.7 4.7 3.3 3.6 4.8 8.6 5.4 13.4.5 3.4-.7 6.5-1.2 9.7zm21.7-3.8c-3-1.6-4.3-5.2-3.7-8.4.8-4.9 5.6-4.6 8.9-3 1.3.7 2.6-.6 1.9-1.9-2.5-5.2-9.3-4-12.7-.5-4.2 4.3-2.4 11 1 15 1 1.2 2.3 2.1 3.8 2.7h-17.9c3-7.2-.6-17.2-4.9-22.9-4-5.2-10.2-8.3-16.6-9.2 10.2-1.6 21-2.7 31.1-1.3 10.1 1.4 20 7.6 22.5 18 2 8.3-5.4 15.9-13.4 11.5zm44 3.8h-.3c1.2-6.6-2.1-14-5.3-19.7-3.7-6.5-9.6-11.8-16.1-15.5-7.6-4.3-16.5-5.7-25.1-6.5-10.1-1-19.9-.5-29.6 2.4-.2.1-.1.4.1.3 15.9-4.5 36.1-3.5 51.4 3 12.8 5.5 24.7 21.4 23.1 35.9h-33.7c.9-.4 1.8-.9 2.6-1.5 5.3-4.3 5.9-10.8 3.9-17-4.9-14.7-22.7-17.7-36-17.3-10.1.3-20.4 1.5-30.3 4 5.9-2.8 11.9-5.3 18.2-7.5 13.6-4.6 27.7-7.5 41.9-8.5 4.2-.1 8.4 0 12.6.2 8.4.5 14.9 3.9 21.8 8.5 6.8 4.5 11.5 10.6 14.3 18.2 2.2 6.1 4.2 14.9 1 20.9-4.9.1-9.7.1-14.5.1zm32.5 0h-16.7c3.3-4.6 1.6-11.7.5-16.8-1.6-7.3-5.7-13.9-11-19-5.5-5.2-13.3-9.7-20.7-11.7-.7-.2-1.4-.3-2.1-.5 13.8.8 27.5 3.7 40.3 8.9 5.6 3.9 8.8 9.7 11.3 16.3 3 8.1 3.1 15.1 0 22.8h-1.6zm16.6 0h-13.4c4.1-6.8 2.1-16.1-.4-23.1-1.8-5.1-4.5-10.5-8.5-14.3l5.1 2.4c5.2 2.7 9.9 5.8 14.4 9.4 4.4 7.4 4.9 17.2 2.8 25.6zm15.2-1.5c-4.4.8-8.8 1.3-13.3 1.4 1-3.7.8-7.8.3-11.4-.6-4.3-1.4-8.8-3.4-12.7 7.8 6.4 14.8 13.9 21.6 21.5-1.7.5-3.5.9-5.2 1.2zm6.1-1.4c-1.4-1.6-2.7-3.2-4.1-4.7 3.1 1.8 7 2.8 10.7 2.7-2.1.8-4.3 1.4-6.6 2zm22.8-9.7c-.5.3-1.1.6-1.6 1-8.6 2.7-17.3 3.2-26.6-.1-.3-.1-.4.4-.1.5 6.5 2.4 14.2 3.5 21.5 2.5-1.9 1-3.9 1.8-5.9 2.6-5.4.1-11.4-.2-15.9-3.5-2.2-2.5-4.4-4.9-6.7-7.2 16.1 6.2 34.9 2.3 48.9-7.4 2-1.3 3.9-2.9 5.8-4.6a86.19 86.19 0 0 1-19.4 16.2zM319.9 146.9c-7.2-.3-15.3-5.6-22.5-3.8-1.4 1.6-3.1 2.8-4.9 2-.5-.2-.4-1 0-1.2 1.6-.8 2.7-3.3 3.9-4.7 1.4-1.7 2.8-3.3 4.2-5 1.2-1.4 2.4-3.1 3.7-4.6-1.9 0-3.8-.2-5.7-.2-4.4.1-13.1-1.6-15.4 3.4-.1.2-.3.3-.5.3.3 4.2-.7 8.2-4 11.5-.4.4-1.2 0-1-.6 1.7-4.5 3.4-9.1 2.3-14-1.1-4.5-2.7-8.8-3.4-13.4 0-.1.1-.2.2-.1 1.3 2.3 2.6 4.9 3.7 7.6 1.2-6.1 5.1-11.8 8.9-16.4.1-.2.4 0 .3.2-3.2 5.8-6.3 11.2-8.8 17.3.7 2 1.3 4 1.6 6 1.1-2.4 3.5-3.6 6.1-4.1 3.1-4 6.1-8 9.7-11.7.1-.1.3 0 .2.2-2.7 4.1-5.9 7.7-9.1 11.4.5-.1.9-.1 1.4-.2 3.3-.3 7.4-1 11.3-1.1 4.4-4.8 9.3-9.7 14.5-13.5.2-.1.3.1.2.3-4 4.6-8.8 9-13.5 13.2 1.6 0 3.2.2 4.7.5.3-.1.6 0 .9.2.1 0 .3.1.4.1 2-1.8 4.1-3.5 6.1-5.3 2.3-2.1 4.3-4.4 6.8-6.3.2-.1.4.1.3.3-1.9 2.8-4.7 5.1-7.1 7.3-1.7 1.5-3.4 3-5.2 4.3.1 0 .2.1.3.1.5.3.6 1.2 0 1.5-.7.3-1.4.5-2.2.7-2 3.7-5.6 7-8.1 10.1-.2.3-.5.6-.7.9 2.8-.8 5.8-.7 9 0 2.5.5 4.9 1.3 7.4 1.8 3.8-.6 6.9-2.6 10.4-3.9.2-.1.3.2.2.3-2.5 2-5.5 3.3-8.6 4 2.9.4 5.5.1 8.5-.1.5 0 .8.2 1 .5 2.7-1.1 5.2-2.3 7.9-3.5.1-.1.2.1.1.2-1.5 1.1-3.1 2-4.7 2.8 4.5-1.7 9.1-3.4 13.6-4.8.3-.1.4.3.2.5-5.5 3.5-12.5 6.1-19.1 7.6-.2.1-.3.1-.5.2-1.6 1.1-3.1 2.2-4.7 3.3-1.9 1.3-3.7 3-5.8 3.8-.5.2-1-.5-.7-.9 1.3-1.8 3.7-3.6 6.2-5zM268.8 157c5.1 1.5 10.2 2.4 15.5 1.5 1.2-.2 2.5-.5 3.7-.9-4.8-1.1-9.3-2.4-12.6-2.5-.8 0-.8-1.3 0-1.3 6.4-.3 12 1.3 18.3 2.1h.5c.4-.1.9-.1 1.3-.2.3 0 .5.1.6.4 5 .2 9.2-1 13.8-3.6.6-.3 1.3.3.9.9-3.4 6.2-10.1 6.5-17.1 5.4-7 4.3-18.6 2.3-25.1-1.2-.4-.1-.2-.7.2-.6zm8.8-87.6c4.3-2 8.9-.7 10.9 3.7 2.6 5.9 1.5 12.9 0 19-.1.4-.7.3-.7-.1.4-5.6 2.5-13-.6-18.2-4.3-7.4-12.1-2.6-15.6 2.5-5.6 8.1-8.8 19-7.8 28.8 0 .5-.7.5-.7 0-1.3-11.7 2.6-30 14.5-35.7zm3.3 41.5c3.6-9.8 8-19 15.5-26.5 4.7-4.7 11.4-9.6 17.9-5 .4.3.2 1-.3.8-9.3-3.3-14.8 2.8-20.1 9.8-5 6.6-9 13.5-12.7 21-.1.2-.4.1-.3-.1zm20.4 6.8c5.6-5.8 8.4-12.2 11.6-19.4.2-.5.8-.1.8.3-1.1 7.6-6.2 14.7-11.6 19.8-.6.5-1.3-.2-.8-.7zm33.6-15.1c-1.7 7.9-6.5 14.5-12.2 20.1-.3.3-.8-.1-.6-.5 4.7-6.3 9.9-12 12-19.8.1-.5.9-.3.8.2zm-5.4 17.3c-.1.1-.2 0 0 0 .2-.3.4-.5.6-.7 0 0 .1 0 .1.1-.3.2-.5.4-.7.6zm22.7-6.8c-6.6-.1-12.2.4-17.4 4.9-.7.6-1.6-.4-1-1 4.8-4.1 12.2-6.9 18.5-4.8.5.1.4.9-.1.9zm2.7 7.3c-4.3 9.5-15.4 14.3-24.6 17.5-.7.3-1-.9-.3-1.2 9.6-3.7 15.9-11.4 24-17.3.6-.4 1.1.5.9 1zm-19 25.3c10.3-2.3 22.1-8.3 27.7-17.6.3-.5 1.2-.5 1.3.2 1.1 5-5.2 8.7-8.8 11-6.1 3.8-12.8 6.1-19.8 7.5-.8.2-1.2-.9-.4-1.1zm-21.2-63.5c0-.2.3-.3.4-.1 1.3 4.1 1.2 9-.8 12.8-.1.3-.5.1-.5-.2.8-4.2 1.2-8.1.9-12.5zm1.4 15.2c4.4-4.5 11.6-8.5 18-6.4.3.1.2.5-.1.4-6.3-1.1-12.8 2.3-17.5 6.4-.2.4-.7-.1-.4-.4zm-19.7 6.3c-2.3 4-5.1 7.7-7.3 11.8-2.2 4-5.1 7.6-6.5 12-.1.2-.4.1-.3-.1 2.7-8.7 8.8-16.4 13.9-23.8.1-.1.3 0 .2.1zm8.6-7.5c-2.9 5.6-7.1 10.5-10.4 15.9-3.3 5.4-6.4 10.9-10 16.2-.1.2-.4 0-.3-.2 3-6.3 7.1-11.9 10.7-18 2.9-4.9 5.9-9.9 9.7-14.1.1-.2.4 0 .3.2zm3.6 27.8c6.3-6.4 11.8-13.4 17.8-20 .2-.2.5.1.4.3-4.7 7.6-11.3 14.2-18 19.9-.2.1-.3-.1-.2-.2zm-.9 1.2c-.1.1-.2.2-.4.3-.1.1-.2-.1-.1-.1.1-.1.2-.3.3-.4.1-.2.3 0 .2.2zm7.7 6c4.9-2.8 9.5-6.2 14.6-8.6.2-.1.5.2.3.4-4.1 3.7-9.4 6.4-14.3 9.2-4.9 2.8-9.9 5.6-15.2 7.6-.3.1-.5-.4-.2-.6 4.8-2.8 9.9-5.2 14.8-8zm18.9-6.3c-8.3 6.1-16.2 11.7-26.1 14.6-.3.1-.4-.4-.1-.5 9.4-3.1 18.1-8.7 25.9-14.7.3-.3.6.3.3.6zm-.7 5c-6.1 4.8-13.7 8.8-21.2 11-.3.1-.5-.3-.2-.5 6.9-3.8 14.1-7.3 21.2-10.8.1-.1.3.2.2.3zm-61.1-13.8c-.1-9.5 5-19.9 8.8-28.4.2-.3.7-.1.6.3-1.7 4.6-3.6 9.2-5.1 13.9-1.5 4.7-2.3 9.6-3.9 14.3-.2.1-.4.1-.4-.1zm-4.9 2c0-9.7 2.6-19.2 6.4-28.1.1-.1.2-.1.2.1-3 9.2-4.6 18.6-6.3 28.1 0 .1-.3 0-.3-.1zm.9-24.6c-1.5 8.9-2 17.8-2.5 26.8 0 .4-.5.4-.6 0-.9-8.9.4-18.2 2.6-26.9 0-.4.5-.3.5.1zm-9.8-2.6c-.3 5.8-.5 11.7.6 17.4.9 5.3 2.9 10 4.8 15 .1.2-.3.4-.4.2-5.7-9.2-7.5-22.1-5.3-32.6-.1-.3.3-.2.3 0zm3.5-4.9c-1.6 8-1.5 16.3.1 24.2 0 .1-.2.2-.2.1-2-8.2-2.1-16.2-.3-24.4 0-.3.5-.2.4.1zm-7.1 37.6c-7.8-9.1-10-23-8.7-34.5 0-.3.5-.3.5 0-.3 5.9.2 12.1 1.8 17.7 1.6 5.9 4.5 10.9 7.1 16.3.1.4-.4.9-.7.5zm-8.3-13.4c.8 1.9 1.3 3.8 2 5.7.6 1.6 1.4 3.2 1.8 4.9.1.3-.3.5-.5.3-2.2-2.8-3.5-7.3-3.7-10.9-.1-.3.3-.3.4 0zm21.2 37.7c2-4.1 4.4-8.7 7.6-12 .1-.1.4 0 .3.2-2.6 4-5.5 7.6-7.6 11.9-.1.2-.3 0-.3-.1zm-.6 6.6c6.3-4.8 13.9-8.9 21.8-10.4.3-.1.4.3.1.5-7.6 3-14.7 6.1-21.4 10.8-.5.3-1-.6-.5-.9zm18.6-7.3c.3 0 .3.4.1.5-2.8 2.2-7 2.6-10.2 3.9-.2.1-.3-.2-.1-.3 3.3-1.2 6.7-3.7 10.2-4.1zm-154.6 48.6c2.5 13.9 5.9 28 6.5 42.2 0 .3-.4.3-.4.1-2.9-13.9-4.3-28.2-6.3-42.2-.1-.2.2-.3.2-.1zm39.7.3c3.6-4.3 9.9-5.1 15.1-5.9 5.9-.9 12.1-1.2 18-.9.2 0 .2.3 0 .4-11.2.8-23.4-.1-33 6.7-.1.1-.3-.2-.1-.3zm35.4-6.3s0-.1 0 0c3.1.7 6.4 1.5 9.3 2.9.1.1 0 .3-.1.2-3.1-1-6-2.3-9.2-3.1zm53.9 13.3c0-.1.1-.2 0 0 .6.3 1.1.7 1.6 1.2 0 0 0 .1-.1.1-.5-.5-1-.9-1.5-1.3zm-27.5-53.8c-2.1 2.6-4.8 4.6-7.3 6.7-.2.1-.4-.1-.2-.2 2.5-2.2 4.7-4.7 7.3-6.7.1-.1.3.1.2.2zm1.3-1.6l2.4-1.8c.6-.5 1.2-1 1.9-1.4.1-.1.2.1.1.2-.6.6-1.4 1.1-2.1 1.7-.7.5-1.4 1.1-2.1 1.6-.2 0-.3-.2-.2-.3zm-118 156.8c-2.5-5.1-1.9-12.1.3-17.2.1-.1.3-.1.3.1-.4 6-2.2 11-.3 17 0 .1-.2.2-.3.1zm-2.2 3.2c.2.3-.2.6-.5.4-3.8-3.9-9.6-5.1-13.3-8.9-3.9-4.1-6.6-9.5-9.7-14.3-.1-.1.1-.2.2-.1 3.4 5.4 6.9 13.3 12.7 16.3 3.8 1.9 8.1 3 10.6 6.6z"/></svg>