<svg xmlns="http://www.w3.org/2000/svg" viewBox="0 0 595.3 595.3"><path d="M142.3 344.3c.1-.3-.2.1-.1-.3.5-.7.2.2 0 .7l-.1.2.2-.6zm0-93c.5.7.2-.2 0-.7l-.1-.2c-.1-.3-.2-.3.2.6.1.3-.3-.1-.1.3zm310.8-.9l-.1.2c-.2.5-.5 1.4 0 .7.1-.4-.2 0-.1-.3.4-.9.4-.9.2-.6zM453 344c-.5-.7-.2.2 0 .7l.1.2c.1.3.2.3-.2-.6-.1-.4.3.1.1-.3zm88.9-27.7c.1 5.1-1 9.8-2 11.6-.5.9-1 1.1-1.3.3-.2-.4-.3-1-.5-1.9-.1-.9-.3-2-.4-3.5-.2-1.5-1-6.5-2.6-10.9-1.1-3-2.5-5.7-3.3-6.9l-2.1 2.7c-.5.6-1.1 1.2-1.6 1.8.2.5.3 1.1.5 1.6 1.1 3.9 1.7 7.9 2 11.8.3 3.8.3 7.5.3 10.9-.1 4.8-.5 9.2-1.5 13.6s-2.6 8.7-5.3 12.9c-.7 1-1.5 2.1-2.3 3.1-.9 1-1.8 2-2.8 2.9-.5.5-1 .9-1.6 1.4-.6.4-1.2.9-1.8 1.3-.6.5-1.3.8-1.9 1.2-.7.4-1.3.8-2 1.1-5.6 2.8-12.3 4.3-20 3.6-2.6-.3-5.2-.7-7.7-1.5-1.3-.3-2.5-.8-3.7-1.3-1.2-.5-2.4-1-3.6-1.6-4.6-2.4-8.8-5.9-11.8-10s-4.5-8.9-4.6-12.7c-.2-3.9 1-6.7 2.5-8.4 1.3-1.3 2.1-.6 2.9-.4.8.2 1.4 0 2.5-2.3 1.7-3.2 4-4.6 5.9-5 1.8-.4 2.9 1.1 3.6 3 .8 1.9 1.4 4.3 2.5 5.9 0-.1 1.3 0 2.8 0 .7 0 1.5 0 2.2-.1.7 0 1.2-.1 1.5-.1 1 0 1.5 0 2.1.2.6.2 1.2.7 2.1 1.3 1.8 1.1 4.5 2.3 7.2 2.9 1.4.3 2.8.5 4.2.6h2c.7 0 1.3-.1 2-.3 1.4-.3 2.8-.9 4.2-1.7 1.4-.9 2.8-2 4-3.4 2.6-2.7 4.6-6.5 5.7-10.7 1.2-4.3 1.5-9 .9-13.7-4.3 3-8.8 5.1-13.4 6.5-1.2.3-2.4.8-3.6 1-1.2.2-2.5.5-3.7.7-2.5.3-5 .6-7.6.5-.8.3-1.7.7-2.6.9-.9.3-1.8.5-2.8.7-.5.1-1 .2-1.4.4-.5.1-1 .1-1.5.2-1 .1-2 .2-3.1.3-4.2.1-8.8-.4-13.1-2.6-.7-.3-1.4-.6-2.1-1l-2.1-1.2c-.7-.4-1.4-.8-2-1.3-.6-.5-1.3-1-1.9-1.5-.6-.5-1.2-1-1.7-1.5-.6-.5-1-1-1.5-1.5-.9-1-1.7-2-2.2-3-1.9-1.4-3.6-2.9-5.2-4.6-2.6 7.7-2.6 16.4-.7 24.7 1 4.4 2.5 8.8 4.5 12.9 1 2.1 2.1 4.1 3.3 6.1.6 1 1.2 1.9 1.9 2.9.6 1 1.3 1.9 2 2.9 5.5 7.5 12.2 14.3 19.1 20.9 6.9 6.6 14.1 13 20.9 20.1 6.7 7 13.1 14.7 18 23.4 2.4 4.3 4.5 9 5.9 13.8.2.8.5 1.7.7 2.5l.2.2c.8.6 1.5 1.1 2.1 1.6.6.5 1.2 1 1.6 1.4.5.4.9.8 1.2 1.1.6.6 1 .9 1 .9l-.7 1.3s-1.3-1.2-3.3-3c-.5-.4-1-.8-1.6-1.3.7 3.4 1.1 6.8 1.2 10.2.1 5-.4 10.2-1.8 15.1s-3.7 9.6-6.9 13.7c4.5-5.9 6.6-13 6.9-20 .4-7-.7-14-2.3-21.2-1.1-.8-2.2-1.5-3.4-2.3-.8-.4-1.5-.9-2.3-1.3-.8-.4-1.5-.9-2.3-1.2-.7-.4-1.5-.7-2.2-1-.3-.2-.7-.3-1-.5-.3-.1-.7-.3-1-.4-1.2-.5-2.3-.9-3-1.2-.4-.1-.6-.2-.8-.3-.2-.1-.3-.1-.3-.1.6.2 1.1.4 1.6.7.5.2 1 .5 1.5.7.9.5 1.7.8 2.4 1.3 1.3.8 2 1.4 2 1.7-.9-.2-1.8-.4-2.6-.8.7.3 4.2 1.8 3.8 2.9-.9-.2-1.9-.4-2.8-.8-1-.4-1.9-1-3-1.4l-3-1.5c-1-.4-2-.8-2.9-1l-1.2-.3-1.3-.2c-.8-.2-1.7-.3-2.5-.5s-1.7-.3-2.6-.4l-1.5-.3.6.9c1 1.5 1.8 3.2 2.6 5 .7 1.8 1.4 3.7 1.8 5.7.5 2 .8 4.1 1 6.3.1 2.2.1 4.4-.2 6.7-.3 2.3-.8 4.7-1.5 7s-1.8 4.6-3 6.8c-5 8.7-13.4 15.6-23.5 19.2-5 1.8-10.3 2.8-15.6 3.1-5.3.3-10.6 0-15.8-.9-5.2-.9-10.3-2.2-15.3-3.9-3.7-1.2-7.2-2.7-10.7-4.2-.6.5-1.3.9-2.1 1.4-.1.1-.2.1-.3.2 1.7.2 3.4.5 5 1l.5.1h.4l.2.1c.3.1.7.2 1 .3.3.1.7.2 1 .3.2 0 .3.1.5.2l.5.2c.7.3 1.4.5 2.1.8.6.3 1.3.6 1.9.8 2.5 1.2 4.8 2.5 6.8 3.9 1 .7 2 1.5 2.9 2.2.5.4.9.8 1.3 1.2l1.2 1.2c2.1 2.1 3.8 4.3 5 6.3 6.2-.6 12.1-1.5 18.1-2.8 10.7-2.4 21.4-5.9 32.5-11.7 1.2-.6 2.4-1.3 3.6-1.9 1.2-.6 2.4-1.1 3.6-1.8 1.2-.6 2.3-1.2 3.5-1.7.6-.3 1.2-.6 1.7-.8l.9-.4.8-.5c2.2-1.2 4.5-2.4 6.7-3.7 2.1-1.3 4.3-2.7 6.4-4.2l-4.4 3.1-2.2 1.6-2.3 1.5-4.6 2.9-4.7 2.7-2.4 1.4-2.4 1.3-4.8 2.5-4.9 2.3-2.5 1.1-2.5 1-5 2.1-5.1 1.8-2.6.9-2.6.8-5.2 1.6-5.3 1.4-2.6.7-2.7.6-5.3 1.1-1.9.3c.1.3.2.5.4.8.2.3.3.7.4 1 .2.7.5 1.3.7 1.8.2.6.3 1.1.4 1.6.1.5.3.9.3 1.3.1.8.2 1.4.3 1.8.1.4.1.6.1.6s-.3-.8-.9-2.3l-.6-1.2c-.2-.4-.4-.9-.7-1.4-.3-.5-.6-1-1-1.6-.2-.3-.4-.6-.6-.8l-.6-.9c-.1-.1-.2-.3-.3-.4l-1.2.2-2.7.4-2.7.3-5.4.7-5.4.4-2.7.2-2.7.1-5.4.2-5.4-.1h-2.7l-2.7-.1-5.4-.3c-8.8-.7-17.5-2-26.2-3.5.1.3.3.6.4.9.2.7.3 1.4.3 2.1 0 1-.7 1.2-1.1 1.4-.4.3-.6.6 0 2.1.1.3.2.5.3.8.1.3.2.5.2.7.1.5.2.9.3 1.4.1.9.1 1.6 0 2.2-.3 1.2-1.4 1.2-3 .7-.4-.1-.8-.3-1.2-.5-.4-.2-.8-.4-1.3-.7-.9-.5-1.9-1-2.8-1.6.1.1-2.8 1.9-4.3 1.4-.3-.1-.7-.2-1-.4-.3-.1-.7-.3-1-.5-.7-.3-1.4-.8-2.1-1.2-.7-.4-1.5-.9-2.2-1.4-.7-.5-1.5-.9-2.2-1.4-.4-.2-.7-.4-1.1-.7-5.2 2.1-10.4 4-15.8 5.4-3.4.9-6.8 1.7-10.2 2.3-.8.2-1.7.3-2.5.5-.8.1-1.7.2-2.5.3-.8.1-1.7.2-2.5.3-.4 0-.8.1-1.3.2-.4 0-.8.1-1.3.1-4.5.5-9 .6-13.3.5-.8 2.2-1.5 4.5-1.8 6.8-.3-2.2-1.1-4.5-2-6.8-4.6.1-9.3 0-14.2-.5-.4 0-.8-.1-1.3-.1-.4 0-.8-.1-1.3-.2-.8-.1-1.7-.2-2.5-.3-.8-.1-1.7-.2-2.5-.3-.8-.2-1.7-.3-2.5-.5-3.4-.6-6.8-1.4-10.2-2.3-5.4-1.4-10.7-3.3-15.8-5.4-.4.2-.7.4-1.1.7-.7.5-1.5.9-2.2 1.4-.7.5-1.5.9-2.2 1.4l-2.1 1.2c-.3.2-.7.3-1 .5-.3.1-.7.3-1 .4-1.5.5-4.4-1.4-4.3-1.4-.9.6-1.9 1.2-2.8 1.6-.5.2-.9.5-1.3.7-.4.2-.8.4-1.2.5-1.5.6-2.7.5-3-.7-.1-.6-.1-1.4 0-2.2.1-.4.2-.9.3-1.4.1-.2.1-.5.2-.7.1-.2.2-.5.3-.8.7-1.4.4-1.8 0-2.1-.4-.3-1-.4-1.1-1.4 0-.7.1-1.4.3-2.1.1-.3.2-.6.4-.9-8.6 1.5-17.3 2.8-26.2 3.5l-5.4.3-2.7.1h-2.7l-5.4.1-5.4-.2-2.7-.1-2.7-.2-5.4-.4-5.4-.7-2.7-.3-2.7-.4-1.2-.2c-.1.1-.2.3-.3.4l-.6.9c-.2.3-.4.6-.6.8-.3.6-.7 1.1-1 1.6-.3.5-.5 1-.7 1.4l-.6 1.2c-.6 1.5-.9 2.3-.9 2.3s0-.2.1-.6c.1-.4.2-1 .3-1.8.1-.4.2-.8.3-1.3.1-.5.2-1 .4-1.6.2-.6.4-1.2.7-1.8.1-.3.3-.7.4-1 .1-.2.2-.5.4-.8l-1.9-.3-5.3-1.1-2.7-.6-2.6-.7-5.3-1.4-6.2-1.6-2.6-.8-2.6-.9-5.1-1.8-5-2.1-2.5-1-2.5-1.1-4.9-2.3-4.8-2.5-2.4-1.3-2.4-1.4-4.7-2.7-4.6-2.9-2.3-1.5-2.2-1.6L75 473c2.1 1.5 4.2 2.9 6.4 4.2 2.2 1.3 4.4 2.5 6.7 3.7l.8.5.9.4c.6.3 1.2.6 1.7.8 1.2.6 2.3 1.1 3.5 1.7l3.6 1.8c1.2.6 2.4 1.2 3.6 1.9 11.2 5.8 21.8 9.3 32.5 11.7 5.9 1.3 11.9 2.2 18.1 2.8 1.3-2.1 2.9-4.2 5-6.3l1.2-1.2c.4-.4.8-.8 1.3-1.2.9-.7 1.8-1.5 2.9-2.2 2-1.5 4.3-2.8 6.8-3.9.6-.3 1.3-.6 1.9-.8.7-.3 1.4-.5 2.1-.8l.5-.2c.2-.1.4-.1.5-.2.3-.1.7-.2 1-.3.3-.1.7-.2 1-.3l.2-.1h.4l.5-.1c1.6-.4 3.3-.7 5-1-.1-.1-.2-.1-.3-.2-.7-.4-1.4-.9-2.1-1.4-3.5 1.5-7.1 2.9-10.7 4.2-4.9 1.7-10.1 3-15.3 3.9-5.2.9-10.5 1.2-15.8.9-5.3-.3-10.6-1.3-15.6-3.1-10.1-3.6-18.5-10.5-23.5-19.2-1.2-2.2-2.3-4.4-3-6.8-.8-2.3-1.3-4.7-1.5-7-.3-2.3-.3-4.6-.2-6.7.1-2.2.5-4.3 1-6.3s1.1-3.9 1.8-5.7c.8-1.8 1.6-3.4 2.6-5l.6-.9-1.5.3c-.9.2-1.7.2-2.6.4-.8.2-1.7.4-2.5.5l-1.3.2-1.2.3c-.9.2-1.9.6-2.9 1l-3 1.5c-1 .5-2 1-3 1.4-1 .4-1.9.7-2.8.8-.4-1.1 3.1-2.6 3.8-2.9-.9.3-1.7.6-2.6.8-.1-.3.7-.9 2-1.7.6-.4 1.5-.8 2.4-1.3.5-.2 1-.5 1.5-.7.5-.2 1-.5 1.6-.7 0 0-.1 0-.3.1-.2.1-.5.2-.8.3-.7.3-1.7.7-3 1.2-.3.1-.6.3-1 .4-.3.2-.7.3-1 .5-.7.3-1.4.7-2.2 1-.8.3-1.5.8-2.3 1.2-.8.4-1.5.9-2.3 1.3-1.2.7-2.3 1.5-3.4 2.3C71.1 446 70 453 70.4 460c.3 7 2.4 14.1 6.9 20-3.2-4.1-5.5-8.8-6.9-13.7-1.4-4.9-2-10-1.8-15.1.1-3.4.5-6.8 1.2-10.2-.6.4-1.1.9-1.6 1.3-2 1.8-3.3 3-3.3 3l-.7-1.3s.3-.3 1-.9c.3-.3.7-.6 1.2-1.1.5-.4 1-.9 1.6-1.4.6-.5 1.3-1 2.1-1.6l.2-.2c.2-.8.4-1.7.7-2.5 1.4-4.9 3.5-9.5 5.9-13.8 4.8-8.7 11.2-16.4 18-23.4 6.8-7 14-13.5 20.9-20.1 6.9-6.6 13.6-13.4 19.1-20.9.7-.9 1.4-1.9 2-2.9.7-1 1.3-1.9 1.9-2.9 1.2-2 2.3-4 3.3-6.1 2-4.2 3.5-8.5 4.5-12.9 1.9-8.3 1.9-16.9-.7-24.7-1.6 1.7-3.4 3.3-5.2 4.6-.5 1-1.3 2-2.2 3-.5.5-.9 1-1.5 1.5s-1.1 1-1.7 1.5c-.6.5-1.2 1-1.9 1.5-.7.4-1.3.9-2 1.3l-2.1 1.2c-.7.4-1.4.7-2.1 1-4.3 2.2-8.9 2.7-13.1 2.6-1.1-.1-2.1-.2-3.1-.3-.5-.1-1-.1-1.5-.2s-1-.2-1.4-.4c-1-.2-1.9-.5-2.8-.7-.9-.2-1.8-.6-2.6-.9-2.6.1-5.1-.2-7.6-.5-1.2-.2-2.5-.5-3.7-.7-1.2-.2-2.4-.7-3.6-1-4.5-1.5-9.1-3.5-13.4-6.5-.6 4.7-.3 9.4.9 13.7 1.1 4.1 3.1 7.9 5.7 10.7 1.3 1.4 2.6 2.5 4 3.4 1.4.8 2.8 1.4 4.2 1.7.7.2 1.3.3 2 .3.3 0 .6.1 1 0h1c1.4 0 2.8-.2 4.2-.6 2.8-.6 5.4-1.8 7.2-2.9.9-.6 1.6-1.1 2.1-1.3.6-.2 1.1-.1 2.1-.2.3 0 .8 0 1.5.1.7 0 1.5.1 2.2.1h2.8c1-1.6 1.7-4 2.5-5.9.7-1.9 1.7-3.4 3.6-3 1.9.4 4.2 1.8 5.9 5 1.1 2.3 1.7 2.5 2.5 2.3.7-.2 1.6-.9 2.9.4 1.5 1.6 2.7 4.5 2.5 8.4-.1 3.8-1.6 8.6-4.6 12.7-2.9 4.1-7.1 7.6-11.8 10-1.2.6-2.4 1.1-3.6 1.6-1.2.4-2.5.9-3.7 1.3-2.5.7-5.1 1.2-7.7 1.5-7.7.7-14.4-.8-20-3.6-.7-.3-1.4-.7-2-1.1-.7-.4-1.3-.8-1.9-1.2-.6-.4-1.2-.9-1.8-1.3-.5-.5-1.1-.9-1.6-1.4-1-.9-1.9-1.9-2.8-2.9-.8-1-1.6-2-2.3-3.1-2.7-4.2-4.3-8.5-5.3-12.9s-1.4-8.8-1.5-13.6c-.1-3.3 0-7 .3-10.9.3-3.8 1-7.8 2-11.7.1-.5.3-1.1.5-1.6-.5-.6-1.1-1.2-1.6-1.8l-2.1-2.7c-.8 1.2-2.2 3.9-3.3 6.9-1.7 4.3-2.4 9.4-2.6 10.9-.2 1.4-.3 2.6-.4 3.5-.1.9-.3 1.5-.5 1.9-.3.8-.8.6-1.3-.3-1-1.8-2.1-6.5-2-11.6 1-6.8 2.8-13 5.7-18.7-2.8-5.7-4.7-11.9-5.7-18.7-.1-5.1 1-9.8 2-11.6.5-.9 1-1.1 1.3-.3.2.4.3 1 .5 1.9.1.9.3 2 .4 3.5.2 1.5 1 6.5 2.6 10.9 1.1 3 2.5 5.7 3.3 6.9l2.1-2.7c.5-.6 1.1-1.2 1.6-1.8-.2-.5-.3-1.1-.5-1.6-1.1-3.9-1.7-7.9-2-11.8-.3-3.8-.3-7.5-.3-10.9.1-4.8.5-9.2 1.5-13.6s2.6-8.7 5.3-12.9c.7-1 1.5-2.1 2.3-3.1.9-1 1.8-2 2.8-2.9.5-.5 1-.9 1.6-1.4.6-.4 1.2-.9 1.8-1.3.6-.5 1.3-.8 1.9-1.2.7-.4 1.3-.8 2-1.1 5.6-2.8 12.3-4.3 20-3.6 2.6.3 5.2.7 7.7 1.5 1.3.3 2.5.8 3.7 1.3 1.2.5 2.4 1 3.6 1.6 4.6 2.4 8.8 5.9 11.8 10s4.5 8.9 4.6 12.7c.2 3.9-1 6.7-2.5 8.4-1.3 1.3-2.1.6-2.9.4-.8-.2-1.4 0-2.5 2.3-1.7 3.2-4 4.6-5.9 5-1.8.4-2.9-1.1-3.6-3-.8-1.9-1.4-4.3-2.5-5.9 0 .1-1.3 0-2.8 0-.7 0-1.5 0-2.2.1-.7 0-1.2.1-1.5.1-1 0-1.5 0-2.1-.2-.6-.2-1.2-.7-2.1-1.3-1.8-1.1-4.5-2.3-7.2-2.9-1.4-.3-2.8-.5-4.2-.6h-2c-.7 0-1.3.1-2 .3-1.4.3-2.8.9-4.2 1.7-1.4.9-2.8 2-4 3.4-2.6 2.7-4.6 6.5-5.7 10.7-1.2 4.3-1.5 9-.9 13.7 4.3-3 8.8-5.1 13.4-6.5 1.2-.3 2.4-.8 3.6-1 1.2-.2 2.5-.5 3.7-.7 2.5-.3 5-.6 7.6-.5.8-.3 1.7-.7 2.6-.9.9-.3 1.8-.5 2.8-.7.5-.1 1-.2 1.4-.4.5-.1 1-.1 1.5-.2 1-.1 2-.2 3.1-.3 4.2-.1 8.8.4 13.1 2.6.7.3 1.4.6 2.1 1l2.1 1.2c.7.4 1.4.8 2 1.3.6.5 1.3 1 1.9 1.5.6.5 1.2 1 1.7 1.5.6.5 1 1 1.5 1.5.9 1 1.7 2 2.2 3 1.8 1.4 3.6 2.9 5.2 4.6 2.6-7.7 2.6-16.4.7-24.7-1-4.4-2.5-8.8-4.5-12.9-1-2.1-2.1-4.1-3.3-6.1-.6-1-1.2-1.9-1.9-2.9-.6-1-1.3-1.9-2-2.9-5.5-7.5-12.2-14.3-19.1-20.9-6.9-6.6-14.1-13-20.9-20.1-6.7-7-13.1-14.7-18-23.4-2.4-4.3-4.5-9-5.9-13.8-.2-.8-.5-1.7-.7-2.5l-.2-.2c-.8-.6-1.5-1.1-2.1-1.6-.6-.5-1.2-1-1.6-1.4-.5-.4-.9-.8-1.2-1.1-.6-.6-1-.9-1-.9l.7-1.3s1.3 1.2 3.3 3c.5.4 1 .8 1.6 1.3-.7-3.4-1.1-6.8-1.2-10.2-.1-5 .4-10.2 1.8-15.1s3.7-9.6 6.9-13.7c-4.5 5.9-6.6 13-6.9 20-.4 7 .7 14 2.3 21.2 1.1.8 2.2 1.5 3.4 2.3.8.4 1.5.9 2.3 1.3.8.4 1.5.9 2.3 1.2.7.4 1.5.7 2.2 1 .3.2.7.3 1 .5.3.1.7.3 1 .4 1.2.5 2.3.9 3 1.2.4.1.6.2.8.3.2.1.3.1.3.1-.6-.2-1.1-.4-1.6-.7-.5-.2-1-.5-1.5-.7-.9-.5-1.7-.8-2.4-1.3-1.3-.8-2-1.4-2-1.7.9.2 1.8.4 2.6.8-.7-.3-4.2-1.8-3.8-2.9.9.2 1.9.4 2.8.8 1 .4 1.9 1 3 1.4l3 1.5c1 .4 2 .8 2.9 1l1.2.3 1.3.2c.8.2 1.7.3 2.5.5s1.7.3 2.6.4l1.5.3-.6-.9c-1-1.5-1.8-3.2-2.6-5-.7-1.8-1.4-3.7-1.8-5.7-.5-2-.8-4.1-1-6.3-.1-1-.1-2-.1-3 0 0-.1 0-.1.1-1.2.6-2.3 1.2-3.5 1.7-.6.3-1.2.6-1.7.8l-.9.4-.8.5c-2.2 1.2-4.5 2.4-6.7 3.7-2.1 1.3-4.3 2.7-6.4 4.2l4.4-3.1 2.2-1.6 2.3-1.5 4.6-2.9 4.7-2.7 2-1.1c0-.7.1-1.5.2-2.2.3-2.3.8-4.7 1.5-7s1.8-4.6 3-6.8c5-8.7 13.4-15.6 23.5-19.2 5-1.8 10.3-2.8 15.6-3.1 5.3-.3 10.6 0 15.8.9 5.2.9 10.3 2.2 15.3 3.9 3.7 1.2 7.2 2.7 10.7 4.2.6-.5 1.3-.9 2.1-1.4.6-.4 1.1-.7 1.6-1.2.5-.4.9-.8 1.3-1.3.8-.9 1.5-2 2-3.3-.2.1 0-.1.4-.6.2-.2.4-.5.7-.8l.9-.9c1.3-1.2 2.9-2.6 3.4-2.9.7-.5 1.6-.9 2.4-1.2l2.4-.9c.8-.3 1.6-.5 2.5-.8.8-.2 1.7-.4 2.5-.6 1.4 0 2.5.2 3.4.6.5.2.9.4 1.3.7.4.3.8.5 1.1.8 1.4 1.1 2.8 2.3 5.1 2.8.5.1 1.1.2 1.6.2.6.1 1.1.1 1.7.1 1.2 0 2.4-.1 3.6-.3l.9-.2.9-.1 1.8-.3c1.2-.2 2.4-.5 3.5-.7.8-.1 5.1-.2 3.5-1.9-.7-.5-1.6-.7-2.6-.7-1.6 0-3 .5-4.3.7-1.4.2-2.7.2-4.3-.3.2-2.5-1-3 1.7-4.9 1.1-.8 2.3-1.3 3.6-1.8 1.3-.4 2.6-.6 4-1 1-.3 1.9-.5 2.8-.7.9-.1 1.8-.3 2.6-.4.9-.1 1.7-.2 2.5-.2h1.2c.4 0 .8 0 1.2.1 1.6.1 3.2.4 4.8.7 1.6.4 3.3 1 5 1.6.7.3 1.3.6 2 .9.6.3 1.2.7 1.8 1.1 1.2.8 2.3 1.6 3.3 2.4l.8.6.8.7 1.5 1.3c1 .9 2 1.7 3.1 2.5 1.3.5 2.5 1 3.7 1.4l1.8.6c.6.2 1.2.5 1.9.7l2.4.9c.8.3 1.5.6 2.2.9 1.4.7 2.8 1.5 4.1 2.7-2 .8-4.1.4-6.2-.4-1.1-.3-2.1-.7-3.2-1.1-1-.4-2-.8-3-.9-.9-.1-1.7-.3-2.6-.5-.9-.2-1.7-.4-2.6-.6 0 0-1.3-.2-3.2-.5-.5-.1-1-.2-1.6-.2-.6 0-1.1-.1-1.8-.1-1.2-.1-2.5-.2-3.8-.3-1.3 0-2.6-.1-3.8-.1h-3.4c-2 .1-3.3.1-3.3.1-.4 0-.8.1-1.2.1-.4.1-.8.1-1.1.2-1.2.2-2.3.4-3.5.5l-1.8.3-1.7.3c-1.2.2-2.3.3-3.5.5l-3.5.7c-.6.1-1 .2-1.4.2-.4 0-.6.1-.9.1 0 0-.7.2-1.9.5-.6.2-1.4.4-2.2.6-.9.2-1.8.6-2.8.9-1 .4-2.1.7-3.3 1.2-1.1.5-2.4 1-3.6 1.5-1.3.5-2.5 1.1-3.8 1.8-1.3.6-2.6 1.2-3.8 2-1.2.7-2.5 1.4-3.7 2.2-.8.6-1.6 1.1-2.4 1.6l1.2.6 2.2.1c8.8.7 17.5 2 26.2 3.5-.1-.3-.3-.6-.4-.9-.2-.7-.3-1.4-.3-2.1 0-1 .7-1.2 1.1-1.4.4-.3.6-.6 0-2.1-.1-.3-.2-.5-.3-.8-.1-.3-.2-.5-.2-.7-.1-.5-.2-.9-.3-1.4-.1-.9-.1-1.6 0-2.2.3-1.2 1.4-1.2 3-.7.4.1.8.3 1.2.5.4.2.8.4 1.3.7.9.5 1.9 1 2.8 1.6-.1-.1 2.8-1.9 4.3-1.4.3.1.7.2 1 .4.3.1.7.3 1 .5.7.3 1.4.8 2.1 1.2.7.4 1.5.9 2.2 1.4.7.5 1.5.9 2.2 1.4.4.2.7.4 1.1.7 5.2-2.1 10.4-4 15.8-5.4 3.4-.9 6.8-1.7 10.2-2.3.8-.2 1.7-.3 2.5-.5.8-.1 1.7-.2 2.5-.3.8-.1 1.7-.2 2.5-.3.4 0 .8-.1 1.3-.1.4 0 .8-.1 1.3-.1.3 0 .5 0 .8-.1-.9-2.7-1-5.7-.1-9-.3-.7-.6-1.3-.9-1.9-2.1-3.9-4.9-6.9-7.4-8.9s-4.8-3.2-6.3-3.8c-.8-.4-1.4-.5-1.8-.7-.4-.1-.6-.2-.6-.2.1-.1.4 0 .8.1.2.1.5.1.7.2.3.1.6.2.8.3l.9.3c.3.1.5.3.8.4.5.2.9.4 1.1.6 5.2 2.9 9.6 7.6 12.1 13 .1-.4.2-.8.4-1.2 1.8-5.1 12-17.3 13.9-29.3 1.5 10.6 12.5 23.1 14.7 28.1.3.7.6 1.5.8 2.2 2.5-5.2 6.8-9.9 12-12.7.2-.1.6-.3 1.1-.6.2-.1.5-.3.8-.4l.9-.3c.3-.1.6-.2.8-.3.3-.1.5-.1.7-.2.4-.1.7-.2.8-.1 0 0-.2.1-.6.2-.4.1-1 .3-1.8.7-1.5.7-3.8 1.8-6.3 3.8-2.5 2-5.3 5-7.4 8.9-.3.6-.6 1.1-.8 1.7.9 3.4.6 6.5-.4 9.3.3 0 .6.1.9.1.4 0 .8.1 1.3.1.4 0 .8.1 1.3.1.8.1 1.7.2 2.5.3.8.1 1.7.2 2.5.3.8.2 1.7.3 2.5.5 3.4.6 6.8 1.4 10.2 2.3 5.4 1.4 10.7 3.3 15.8 5.4.4-.2.7-.4 1.1-.7.7-.5 1.5-.9 2.2-1.4.7-.5 1.5-.9 2.2-1.4l2.1-1.2c.3-.2.7-.3 1-.5.3-.1.7-.3 1-.4 1.5-.5 4.4 1.4 4.3 1.4.9-.6 1.9-1.2 2.8-1.6.5-.2.9-.5 1.3-.7.4-.2.8-.4 1.2-.5 1.5-.6 2.7-.5 3 .7.1.6.1 1.4 0 2.2-.1.4-.2.9-.3 1.4-.1.2-.1.5-.2.7-.1.2-.2.5-.3.8-.7 1.4-.4 1.8 0 2.1.4.3 1 .4 1.1 1.4 0 .7-.1 1.4-.3 2.1-.1.3-.2.6-.4.9 8.6-1.5 17.3-2.8 26.2-3.5l2.2-.1 1.2-.6c-.8-.5-1.6-1.1-2.4-1.6-1.2-.7-2.5-1.4-3.7-2.2-1.2-.8-2.6-1.3-3.8-2-1.3-.6-2.5-1.3-3.8-1.8-1.3-.5-2.5-1-3.6-1.5-1.2-.4-2.3-.8-3.3-1.2-1-.3-2-.7-2.8-.9-.9-.2-1.6-.4-2.2-.6-1.2-.3-1.9-.5-1.9-.5-.3 0-.5 0-.9-.1-.4 0-.8-.1-1.4-.2l-3.5-.7c-1.2-.2-2.3-.3-3.5-.5l-1.7-.3-1.8-.3c-1.2-.1-2.3-.3-3.5-.5-.4-.1-.7-.1-1.1-.2-.4-.1-.8-.1-1.2-.1 0 0-1.3 0-3.3-.1-.5 0-1-.1-1.6 0h-1.8c-1.2 0-2.5.1-3.8.1-1.3.1-2.6.2-3.8.3-.6.1-1.2.1-1.8.1-.6.1-1.1.2-1.6.2-1.9.3-3.2.5-3.2.5-.9.1-1.7.4-2.6.6-.9.2-1.7.3-2.6.5-1 .1-2 .5-3 .9s-2.1.8-3.2 1.1c-2.1.8-4.2 1.2-6.2.4 1.3-1.1 2.7-1.9 4.1-2.7.7-.4 1.5-.7 2.2-.9l2.4-.9c.6-.2 1.3-.5 1.9-.7l1.8-.6c1.2-.4 2.3-.9 3.7-1.4 1.1-.8 2.1-1.6 3.1-2.5l1.5-1.3.8-.7.8-.6c1.1-.8 2.2-1.7 3.3-2.4.6-.4 1.2-.8 1.8-1.1.6-.3 1.3-.6 2-.9 1.7-.7 3.4-1.3 5-1.6 1.6-.3 3.2-.6 4.8-.7.4 0 .8-.1 1.2-.1h1.2c.8 0 1.7.1 2.5.2.9.1 1.7.2 2.6.4.9.2 1.8.4 2.8.7 1.4.4 2.7.6 4 1 1.3.4 2.5 1 3.6 1.8 2.7 1.9 1.4 2.4 1.7 4.9-1.5.5-2.9.5-4.3.3s-2.8-.7-4.3-.7c-1-.1-1.9.1-2.6.7-1.6 1.6 2.7 1.7 3.5 1.9 1.1.2 2.3.5 3.5.7l1.8.3.9.1.9.2c1.2.2 2.4.3 3.6.3.6 0 1.2 0 1.7-.1.6 0 1.1-.1 1.6-.2 2.3-.5 3.7-1.7 5.1-2.8.4-.3.7-.6 1.1-.8.4-.2.8-.5 1.3-.7.9-.4 2-.6 3.4-.6.9.2 1.7.4 2.5.6.8.2 1.7.5 2.5.8l2.4.9c.8.3 1.6.7 2.4 1.2.5.3 2.1 1.7 3.4 2.9l.9.9c.3.3.5.5.7.8.4.4.5.7.4.6.6 1.2 1.2 2.3 2 3.3.4.5.9.9 1.3 1.3.5.4 1 .8 1.6 1.2.7.4 1.4.9 2.1 1.4 3.5-1.5 7.1-2.9 10.7-4.2 4.9-1.7 10.1-3 15.3-3.9 5.2-.9 10.5-1.2 15.8-.9 5.3.3 10.6 1.3 15.6 3.1 10.1 3.6 18.5 10.5 23.5 19.2 1.2 2.2 2.3 4.4 3 6.8.8 2.3 1.3 4.7 1.5 7 .1.7.1 1.5.2 2.2l2 1.1 4.7 2.7 4.6 2.9 2.3 1.5 2.2 1.6 4.4 3.1c-2.1-1.5-4.2-2.9-6.4-4.2-2.2-1.3-4.4-2.5-6.7-3.7l-.8-.5-.9-.4c-.6-.3-1.2-.6-1.7-.8-1.2-.6-2.3-1.1-3.5-1.7 0 0-.1 0-.1-.1 0 1 0 2-.1 3-.1 2.2-.5 4.3-1 6.3s-1.1 3.9-1.8 5.7c-.8 1.8-1.6 3.4-2.6 5l-.6.9 1.5-.3c.9-.2 1.7-.2 2.6-.4.8-.2 1.7-.4 2.5-.5l1.3-.2 1.2-.3c.9-.2 1.9-.6 2.9-1l3-1.5c1-.5 2-1 3-1.4 1-.4 1.9-.7 2.8-.8.4 1.1-3.1 2.6-3.8 2.9.9-.3 1.7-.6 2.6-.8.1.3-.7.9-2 1.7-.6.4-1.5.8-2.4 1.3-.5.2-1 .5-1.5.7-.5.2-1 .5-1.6.7 0 0 .1 0 .3-.1.2-.1.5-.2.8-.3.7-.3 1.7-.7 3-1.2.3-.1.6-.3 1-.4.3-.2.7-.3 1-.5.7-.3 1.4-.7 2.2-1 .8-.3 1.5-.8 2.3-1.2.8-.4 1.5-.9 2.3-1.3 1.2-.7 2.3-1.5 3.4-2.3 1.7-7.2 2.8-14.1 2.3-21.2-.3-7-2.4-14.1-6.9-20 3.2 4.1 5.5 8.8 6.9 13.7 1.4 4.9 2 10 1.8 15.1-.1 3.4-.5 6.8-1.2 10.2.6-.4 1.1-.9 1.6-1.3 2-1.8 3.3-3 3.3-3l.7 1.3s-.3.3-1 .9c-.3.3-.7.6-1.2 1.1-.5.4-1 .9-1.6 1.4-.6.5-1.3 1-2.1 1.6l-.2.2c-.2.8-.4 1.7-.7 2.5-1.4 4.9-3.5 9.5-5.9 13.8-4.8 8.7-11.2 16.4-18 23.4-6.8 7-14 13.5-20.9 20.1-6.9 6.6-13.6 13.4-19.1 20.9-.7.9-1.4 1.9-2 2.9-.7 1-1.3 1.9-1.9 2.9-1.2 2-2.3 4-3.3 6.1-2 4.1-3.5 8.5-4.5 12.9-1.9 8.3-1.9 16.9.7 24.7 1.6-1.7 3.4-3.3 5.2-4.6.5-1 1.3-2 2.2-3 .5-.5.9-1 1.5-1.5s1.1-1 1.7-1.5c.6-.5 1.2-1 1.9-1.5.7-.4 1.3-.9 2-1.3l2.1-1.2c.7-.4 1.4-.7 2.1-1 4.3-2.2 8.9-2.7 13.1-2.6 1.1.1 2.1.2 3.1.3.5.1 1 .1 1.5.2s1 .2 1.4.4c1 .2 1.9.5 2.8.7.9.2 1.8.6 2.6.9 2.6-.1 5.1.2 7.6.5 1.2.2 2.5.5 3.7.7 1.2.2 2.4.7 3.6 1 4.5 1.5 9.1 3.5 13.4 6.5.6-4.7.3-9.4-.9-13.7-1.1-4.1-3.1-7.9-5.7-10.7-1.3-1.4-2.6-2.5-4-3.4-1.4-.8-2.8-1.4-4.2-1.7-.7-.2-1.3-.3-2-.3-.3 0-.6-.1-1 0h-1c-1.4 0-2.8.2-4.2.6-2.8.6-5.4 1.8-7.2 2.9-.9.6-1.6 1.1-2.1 1.3-.6.2-1.1.1-2.1.2-.3 0-.8 0-1.5-.1-.7 0-1.5-.1-2.2-.1h-2.8c-1 1.6-1.7 4-2.5 5.9-.7 1.9-1.7 3.4-3.6 3-1.9-.4-4.2-1.8-5.9-5-1.1-2.3-1.7-2.5-2.5-2.3-.7.2-1.6.9-2.9-.4-1.5-1.6-2.7-4.5-2.5-8.4.1-3.8 1.6-8.6 4.6-12.7 2.9-4.1 7.1-7.6 11.8-10 1.2-.6 2.4-1.1 3.6-1.6 1.2-.4 2.5-.9 3.7-1.3 2.5-.7 5.1-1.2 7.7-1.5 7.7-.7 14.4.8 20 3.6.7.3 1.4.7 2 1.1.7.4 1.3.8 1.9 1.2.6.4 1.2.9 1.8 1.3.5.5 1.1.9 1.6 1.4 1 .9 1.9 1.9 2.8 2.9.8 1 1.6 2 2.3 3.1 2.7 4.2 4.3 8.5 5.3 12.9s1.4 8.8 1.5 13.6c.1 3.3 0 7-.3 10.9-.3 3.8-1 7.8-2 11.8-.1.5-.3 1.1-.5 1.6.5.6 1.1 1.2 1.6 1.8l2.1 2.7c.8-1.2 2.2-3.9 3.3-6.9 1.7-4.3 2.4-9.4 2.6-10.9.2-1.4.3-2.6.4-3.5.1-.9.3-1.5.5-1.9.3-.8.8-.6 1.3.3 1 1.8 2.1 6.5 2 11.6-1 6.8-2.8 13-5.7 18.7 3.4 5.4 5.2 11.6 6.2 18.4zm-67.2-87.9c-.9.7-1.8 1-2.4 1.8.3-.2.9-.6 1.5-.9.5-.4.9-.7.9-.9zm12.5-5.5c-.6 0-3.4.6-2.9 1 1.1-.3 2-.6 2.9-1zm3.4 26.1c-.4.2-.6.3-.6.6.4 0 .5-.4.6-.6zm-370.1-20.6c0 .2.5.5 1 .8.5.4 1.1.7 1.5.9-.7-.7-1.6-1-2.5-1.7zm-12.4-5.5c.9.4 1.8.7 2.9 1 .4-.4-2.3-1-2.9-1zm-3.4 26.1c.1.2.2.6.6.6-.1-.3-.3-.5-.6-.6zm-32.4 48.6c-.4-.8-.9-1.6-1.3-2.4-.5.5-1 1-1.5 1.6-.2.3-.5.5-.7.8.2.3.5.5.7.8.5.5 1 1.1 1.5 1.6.4-.8.8-1.6 1.3-2.4zm48.2 69.3c.9-.7 1.8-1 2.4-1.8-.3.2-.9.6-1.5.9-.4.4-.9.7-.9.9zm-12.4 5.5c.6 0 3.4-.6 2.9-1-1.1.3-2 .6-2.9 1zm-3.4-26.1c.4-.2.6-.3.6-.6-.4 0-.5.4-.6.6zm25.2-72c-.2.6 1.9 1.1 2.4 1.7-.3-.5-1.4-1.1-2.4-1.7zm2.4 45c-.5.6-2.6 1-2.4 1.7 1-.6 2.1-1.2 2.4-1.7zm7.4-21.7c-3.2-3.9-7.1-7.1-11.6-9.4-1.5-.9-3.2-1.5-4.8-2.3-1.7-.6-3.4-1.3-5.3-1.6h-.1c-1.5-.4-3.1-.6-4.7-.8-.8-.1-1.6-.1-2.4-.1h-1.2c-.4 0-.8 0-1.2.1l-2.4.1-2.4.4c-.4.1-.8.1-1.2.2l-1.2.3c-.8.2-1.5.4-2.3.6-1.5.6-3 1-4.4 1.8-.7.4-1.5.6-2.1 1.1l-2 1.2c-2.6 1.8-5.1 3.7-7.1 6.1-.7.7-1.3 1.5-1.9 2.3.6.8 1.2 1.6 1.9 2.3 2 2.4 4.5 4.4 7.1 6.1l2 1.2c.7.4 1.4.7 2.1 1.1 1.4.8 2.9 1.2 4.4 1.8.8.2 1.5.4 2.3.6l1.2.3c.4.1.8.1 1.2.2l2.4.4 2.4.1c.4 0 .8.1 1.2.1h1.2c.8 0 1.6 0 2.4-.1 1.6-.2 3.2-.3 4.7-.8h.1c1.8-.4 3.5-1.1 5.3-1.6 1.6-.8 3.3-1.4 4.8-2.3 4.5-2.3 8.4-5.5 11.6-9.4zM486.2 161c-2.1 2-4.4 3.3-6.6 4.3-.2.1-.4.2-.6.2 1.2.1 2.5.2 3.7.2 2.3 0 4.6-.2 7-.4l.6-.9c1.3-2.2 2.4-4.5 3.2-7 1.6-4.9 2-10.1 1.3-14.7-.3 4-1.4 7.7-2.9 10.8-.7 1.6-1.6 3-2.6 4.2-1 1.2-2 2.4-3.1 3.3zm.2-23.9c-8.8-3.9-17.3-6.6-25.8-8.5-5.9-1.3-11.9-2.2-18.1-2.8-1.3 2-2.9 4.2-5 6.3l-1.2 1.2-.3.3c1.1.9 1.7 1.7 1.1 2.2.9 1.4 1.7 2.8 2.6 4.2.9 1.4 1.8 2.7 2.8 4.1.9.3 1.8.7 2.6 1.1.4.2.8.4 1.3.6l1.2.6 2.4 1.5c.8.5 1.5 1.1 2.2 1.7 1.1 1 2.2 2 3.2 3.1.5.5 1 1.1 1.5 1.6s1 1.1 1.5 1.6l1.5 1.6c.5.5 1.1 1 1.7 1.5.6.5 1.2 1 1.8 1.4.6.4 1.3.8 2 1.2.3.2.6.3.9.5h.3c1.1.1 2.3 0 3.5-.2 1.2-.2 2.4-.5 3.6-.9 1.2-.4 2.4-1 3.5-1.7s2.2-1.5 3.2-2.4c1-.9 1.9-2 2.7-3.1 1.6-2.3 2.8-5.1 3.4-8.1.4-2.8.5-5.7-.1-8.6zM418 117.6c.1.5.2.9.2 1.4 0 .3 0 .6-.1.8h1.1l2.7.1 2.7.2 5.4.4 5.4.7 2.7.3 2.7.4 1.2.2c.1-.1.2-.3.3-.4l.6-.9c.2-.3.4-.6.6-.8.3-.6.7-1.1 1-1.6.3-.5.5-1 .7-1.4l.6-1.2c.6-1.5.9-2.3.9-2.3s0 .2-.1.6c-.1.4-.1 1-.3 1.8-.1.4-.2.8-.3 1.3-.1.5-.2 1-.4 1.6-.2.6-.4 1.2-.7 1.8-.1.3-.3.7-.4 1-.1.2-.2.5-.4.8l1.9.3 5.3 1.1 2.7.6 2.6.7 5.3 1.4 5.2 1.6 2.6.8 2.6.9 5.1 1.8 5 2.1 2.5 1 .9.4c-.3-1.3-.8-2.5-1.3-3.7-.7-1.5-1.5-3-2.5-4.4-1-1.4-2.1-2.7-3.3-4-1.2-1.2-2.6-2.4-4-3.5s-3-2-4.6-2.9c-1.6-.8-3.3-1.6-5-2.2-6.9-2.5-14.4-3.2-21.7-2.8-7.3.5-14.5 2.1-21.3 4.2-1.3.8-2.7 1.3-4.1 1.8zm-2.3 8s.1 0 .1.1c.9.4 1.8.7 2.8 1 3.8 1.1 8 1.8 10.7 3 .3.1 1.4.7 2.7 1.4.1-.1.2-.1.3-.2.5-.3.9-.6 1.3-.9.4-.3.9-.5 1.3-.9 1.6-1.2 3-2.4 4.3-3.7-3.9-.3-7.9-.5-12-.5-1.9 0-3.8 0-5.6.1-1.9.2-3.7.3-5.6.5l-.3.1zm-30.5 6c-.7.3-1.3.6-2 .8 2.4.8 4.8 1.6 7.2 2.2 5.9 1.6 11.8 2.5 17.3 2.6 2.8.1 5.5-.1 8-.4l.5-.1h.1s.1 0 0 0h.4c.3-.1.7-.1 1-.2.3-.1.7-.1 1-.2.2 0 .3-.1.5-.1l.4-.1-.7-.7c-.9-.9-1.9-1.9-2.7-2.9-.9-1-1.7-2-2.6-2.9 0 0-.6-.5-1.6-1.4-.6-.5-1.3-1.1-2.1-1.8l-2.1.3c-.9.1-1.8.2-2.7.4-4.8.8-6.3-.4-10.6.9-.4.1-1.1.3-1.9.5-2.6 1-5 2-7.4 3.1zm-9.4-1.9c.4.1.7.3 1.1.4 3-1 6-2.1 7.5-3.4-2.7 1.1-5.6 2.1-8.6 3zm-21.5 7c.2-.1.6-.2 1-.4s.7-.4.5-.5l-1.5.9zm-3.5 2.7c2.6-.3 5.2-.7 7.8-1.4 2.2-.5 4.4-1.2 6.7-1.9-1.5-.6-3-1.2-4.4-1.8-2.6 1.7-5.5 3.2-8.6 4.5l-1.5.6zm-39.2-21.2c.3.9.6 1.9.9 2.8.5 1.4 1.2 2.7 2 4.1.2.3.4.6.6 1l.3.5.3.5c.2.3.5.6.7.9.2.3.5.6.7.9 1 1.2 2.2 2.3 3.5 3.4.6-.2 1.2-.3 1.8-.5 3.5-1 6.8-2.4 10-3.8 2-.9 3.9-1.9 5.8-2.9-.1 0-.3-.1-.4-.1-.8-.3-1.6-.6-2.4-.8-1.6-.5-3.1-1-4.7-1.5-.8-.3-1.6-.4-2.3-.7-.8-.2-1.6-.4-2.3-.6-1.6-.5-3.1-.8-4.7-1.1-.8-.2-1.6-.4-2.3-.5-.8-.1-1.6-.3-2.3-.4-1.6-.3-3.1-.6-4.6-.8-.2-.4-.4-.4-.6-.4zm-27.2-.1c-.4 1.4-.8 2.8-1.4 4.2-.8 1.9-1.8 3.6-2.9 5.3 0 0-.1.1-.2.3-.1.2-.3.5-.6.8-.3.3-.6.7-1 1.2-.2.2-.4.5-.7.7-.3.3-.5.6-.8.8l-.9.9c-.1.1-.2.2-.3.2 2.5.7 5.1 1.2 7.8 1.5 4.6.6 9.3.9 14.1 1 4.8 0 9.5-.3 14.1-1 2.7-.3 5.2-.9 7.8-1.5-.1-.1-.2-.2-.3-.2l-.9-.9c-.3-.3-.5-.6-.8-.8-.2-.3-.5-.5-.7-.7-.4-.5-.7-.9-1-1.2-.3-.3-.4-.6-.6-.8-.1-.2-.2-.3-.2-.3-1.1-1.7-2.1-3.4-2.9-5.3-.6-1.4-1-2.8-1.4-4.2-1.2-.2-2.4-.3-3.5-.5-4 4.8-8.6 8.7-9.1 12.2-.6-3.6-5.9-7.3-10.3-12.2-.9.1-2.1.3-3.3.5zm13.2 21.9c-4.3.2-8.5.4-12.3.6l2.1.6c1.5.4 3 .8 4.2 1 1.1.2 1.9.4 1.9.3-.1.1.6.3 1.6.5.7.2 1.6.3 2.5.5.9-.2 1.8-.3 2.5-.5 1-.2 1.7-.4 1.6-.5 0 0 .8-.1 1.9-.3 1.1-.3 2.6-.6 4.2-1l2.1-.6c-3.8-.2-8-.4-12.3-.6zM257 124.9c1.9 1 3.8 2 5.8 2.9 3.2 1.4 6.5 2.8 10 3.8.6.2 1.2.4 1.8.5 1.3-1 2.5-2.2 3.5-3.4.2-.3.5-.6.7-.9.2-.3.5-.6.7-.9l.3-.5.3-.5c.2-.3.4-.6.6-1 .7-1.3 1.5-2.7 2-4.1.4-.9.7-1.9.9-2.8-.2 0-.4.1-.6.1-1.5.2-3.1.5-4.6.8-.8.1-1.6.3-2.3.4-.8.2-1.6.4-2.3.5-1.6.4-3.1.7-4.7 1.1-.8.2-1.6.4-2.3.6-.8.2-1.6.4-2.3.7-1.6.5-3.1 1-4.7 1.5-.8.3-1.6.6-2.4.8-.2.4-.3.4-.4.4zm-17.1 11.4c.4.2.8.4 1 .4-.4-.4-.9-.6-1.5-.9-.1.1.2.3.5.5zm-9.9-.2c2.2.7 4.5 1.4 6.7 1.9 2.7.6 5.3 1.1 7.8 1.4l-1.5-.6c-3.1-1.3-6-2.9-8.6-4.5-1.5.6-3 1.2-4.4 1.8zm-19.1-9.4c1.5 1.2 4.5 2.4 7.5 3.4.4-.1.7-.3 1.1-.4-3.1-.9-6-1.9-8.6-3zm-31.7 5.8c-.9 1-1.8 2-2.7 2.9l-.7.7.4.1c.1 0 .3.1.5.1.3.1.7.1 1 .2.3.1.7.1 1 .2h.4c-.2 0 0 0 0 0h.1l.5.1c2.6.4 5.3.5 8 .4 5.5-.1 11.4-1 17.3-2.6 2.4-.6 4.8-1.4 7.2-2.2-.7-.3-1.3-.5-2-.8-2.4-1-4.8-2.1-7.3-3.2-.8-.2-1.4-.3-1.9-.5-4.3-1.3-5.8-.1-10.6-.9-.9-.2-1.8-.2-2.7-.4l-2.1-.3c-.8.7-1.6 1.3-2.1 1.8-1 .8-1.6 1.4-1.6 1.4-1 1-1.9 2-2.7 3zm.1-6.9c-1.9-.2-3.7-.4-5.6-.5-1.9-.1-3.8-.1-5.6-.1-4.1 0-8.1.2-12 .5 1.2 1.2 2.7 2.5 4.3 3.7.4.3.8.6 1.3.9.4.3.8.6 1.3.9.1.1.2.1.3.2 1.3-.7 2.4-1.2 2.7-1.4 2.7-1.2 6.9-1.9 10.7-3 1-.3 1.9-.6 2.8-1 0 0 .1 0 .1-.1l-.3-.1zm-70 9.8l.9-.4 2.5-1 5-2.1 5.1-1.8 2.6-.9 2.6-.8 5.2-1.6 5.3-1.4 2.6-.7 2.7-.6 5.3-1.1 1.9-.3c-.1-.3-.2-.5-.4-.8-.2-.3-.3-.7-.4-1-.2-.7-.5-1.3-.7-1.8-.2-.6-.3-1.1-.4-1.6-.1-.5-.3-.9-.3-1.3-.1-.8-.2-1.4-.3-1.8-.1-.4-.1-.6-.1-.6s.3.8.9 2.3l.6 1.2c.2.4.4.9.7 1.4.3.5.6 1 1 1.6.2.3.4.6.6.8l.6.9c.1.1.2.3.3.4l1.2-.2 2.7-.4 2.7-.3 5.4-.7 5.4-.4 2.7-.2 2.7-.1h1.1c0-.3-.1-.5-.1-.8 0-.5 0-1 .2-1.4-1.4-.5-2.9-1-4.4-1.5-6.8-2.2-14-3.7-21.3-4.2-7.3-.5-14.8.3-21.7 2.8-1.7.6-3.4 1.3-5 2.2-1.6.9-3.1 1.8-4.6 2.9-1.4 1.1-2.8 2.2-4 3.5-1.2 1.3-2.3 2.6-3.3 4s-1.8 2.9-2.5 4.4c-.3.9-.7 2.1-1 3.4zm-.4 10.2c.6 3 1.8 5.8 3.4 8.1.8 1.2 1.7 2.2 2.7 3.1 1 .9 2 1.7 3.2 2.4 1.1.7 2.3 1.2 3.5 1.7 1.2.4 2.4.7 3.6.9 1.2.2 2.4.2 3.5.2h.3c.3-.2.6-.3.9-.5.7-.4 1.4-.7 2-1.2.6-.5 1.2-.9 1.8-1.4.6-.5 1.1-1 1.7-1.5l1.5-1.6c.5-.5 1-1.1 1.5-1.6s1-1.1 1.5-1.6c1-1.1 2-2.1 3.2-3.1.7-.6 1.5-1.2 2.2-1.7.8-.6 1.5-1.1 2.4-1.5.4-.2.8-.4 1.3-.6.4-.2.8-.4 1.3-.6.9-.4 1.7-.7 2.6-1.1 1-1.3 1.9-2.7 2.8-4.1.9-1.4 1.7-2.8 2.6-4.2-.6-.5 0-1.3 1.1-2.2l-.3-.3-1.2-1.2c-2.1-2.1-3.8-4.3-5-6.3-6.2.6-12.1 1.5-18.1 2.8-8.5 1.9-17.1 4.5-25.8 8.5-.8 3-.7 5.9-.2 8.6zm-7 11.8c.8 2.4 1.8 4.8 3.1 7l.6.9c2.3.3 4.7.5 7 .4 1.2 0 2.4 0 3.7-.2-.2-.1-.4-.1-.6-.2-2.2-.9-4.4-2.3-6.6-4.3-1.1-1-2.1-2.1-3-3.4-.9-1.3-1.8-2.7-2.6-4.2a29.6 29.6 0 0 1-2.9-10.8c-.7 4.7-.3 9.9 1.3 14.8zm7.2 276.8c2.1-2 4.4-3.3 6.6-4.3.2-.1.4-.2.6-.2-1.2-.1-2.5-.2-3.7-.2-2.3 0-4.6.2-7 .4l-.6.9c-1.3 2.2-2.4 4.5-3.1 7-1.6 4.9-2 10.1-1.3 14.7.3-4 1.4-7.7 2.9-10.8.7-1.6 1.6-3 2.6-4.2.9-1.1 1.9-2.3 3-3.3zm76.1 40.4s.1 0 .1-.1c-.8-1.6-2-2.8-3.4-3.7-.8-.5-1.6-.9-2.5-1.2-.9-.4-1.8-.7-2.8-1-3.8-1.1-8-1.8-10.7-3-.4-.2-2.8-1.3-4.9-2.6-2.1-1.3-3.8-2.7-2.9-3.4-.9-1.4-1.7-2.8-2.6-4.2-.9-1.4-1.8-2.7-2.8-4.1-.9-.3-1.8-.7-2.6-1.1-.4-.2-.8-.4-1.3-.6-.4-.2-.8-.4-1.3-.6l-2.4-1.5c-.8-.5-1.5-1.1-2.2-1.7-1.1-1-2.2-2-3.2-3.1-.5-.5-1-1.1-1.5-1.6s-1-1.1-1.5-1.6l-1.5-1.6c-.5-.5-1.1-1-1.7-1.5-.6-.5-1.2-1-1.8-1.4-.6-.4-1.3-.8-2-1.2-.3-.2-.6-.3-.9-.5h-.3c-1.1-.1-2.3 0-3.5.2-1.2.2-2.4.5-3.6.9-1.2.4-2.4 1-3.5 1.7s-2.2 1.5-3.2 2.4c-1 .9-1.9 2-2.7 3.1-1.6 2.3-2.8 5.1-3.4 8.1-.6 3-.6 6.2.1 9.3.4 1.6.9 3.1 1.6 4.7.7 1.5 1.5 3 2.5 4.4 1 1.4 2.1 2.7 3.3 4 1.2 1.2 2.6 2.4 4 3.5s3 2 4.6 2.9c1.6.8 3.3 1.6 5 2.2 6.9 2.5 14.4 3.2 21.7 2.8 7.3-.5 14.5-2.1 21.3-4.2 1.5-.5 2.9-1 4.4-1.5-.1-.5-.2-.9-.2-1.4 0-2.4 1.1-3.2 2.7-3.2.8 0 1.7.2 2.6.5 1.1.1 2.1.5 3 .9zm23.6 24.1c2.7-.6 5.2-1.3 6.2-1.7h-.1l-1.1-.4c-1.4-.5-2.7-.9-4.1-1.4-.3.3-.7.5-1 .8-.4.3-.7.6-1.1.8-.4.2-.8.5-1.3.7-.9.4-2 .6-3.4.6-.9-.2-1.7-.4-2.5-.6-.8-.2-1.7-.5-2.5-.8l-2.4-.9c-.8-.3-1.6-.7-2.4-1.2-.5-.3-2.1-1.7-3.4-2.9-.2-.2-.4-.3-.5-.5-.6 0-1.2-.1-1.7-.1-2.8-.1-5.5.1-8 .4l-.5.1h-.1s-.1 0 0 0h-.4c-.3.1-.7.1-1 .2-.3.1-.7.1-1 .2-.2 0-.3.1-.5.1l-.4.1c-.6.1-1.2.3-1.7.4-.6.2-1.2.4-1.7.5-2.3.8-4.5 1.6-6.4 2.7-1 .5-1.9 1.1-2.8 1.6-.5.3-.9.6-1.3.9-.4.3-.9.5-1.3.9-1.6 1.2-3 2.4-4.3 3.7 3.9.3 7.9.5 12 .5 1.9 0 3.8 0 5.6-.1 1.9-.2 3.7-.3 5.6-.5l1.4-.1c.5 0 .9-.1 1.4-.2.9-.1 1.8-.3 2.8-.4.9-.1 1.8-.2 2.7-.4.9-.1 1.8-.2 2.7-.4 4.8-.8 6.3.4 10.6-.9.7-.2 1.9-.5 3.3-.8 1.4-.2 3.1-.6 4.6-.9zm10.7 0c-.4-.1-.7-.3-1.1-.4-3 1-6 2.1-7.5 3.4 2.6-1.2 5.5-2.1 8.6-3zm-3.3-1c-.2-.1-1.1.2-1.1.3.6-.1.6-.2 1.1-.3zm37.7-11.3c3.3-.5 6.4-.6 9.3-.6.7 0 1.5 0 2.2.1.7 0 1.4.1 2.2.1.3 0 .6 0 .9.1 2.8-.8 5.6-1.6 8.6-2.4 2.6-.7 5.1-1.1 7.6-1.5 0-.5-.1-1-.2-1.5-.1-.7-.3-1.4-.4-2.1-.4-1.4-.7-2.8-1.3-4.2-.5-1.4-1.2-2.7-2-4.1-.2-.3-.4-.6-.6-1l-.3-.5-.3-.5c-.2-.3-.5-.6-.7-.9-.2-.3-.5-.6-.7-.9-3.9-4.7-10.1-8.2-17.5-9.9-3.7-.8-7.6-1.2-11.7-1.1-4.1.1-8.1.7-12.3 1.7-8.4 2-16.9 5.7-25.5 9.9-4.3 2.1-8.6 4.4-13.1 6.7-1.2.6-2.4 1.2-3.5 1.8.8.5 1.6 1.1 2.4 1.6 1.2.7 2.5 1.4 3.7 2.2 1.2.8 2.6 1.3 3.8 2 1.3.6 2.5 1.3 3.8 1.8 1.3.5 2.5 1 3.6 1.5 1.2.4 2.3.8 3.3 1.2 1 .3 2 .7 2.8.9.9.2 1.6.4 2.2.6 1.2.3 1.9.5 1.9.5.3 0 .5 0 .9.1.4 0 .8.1 1.4.2l3.5.7c1.2.2 2.3.3 3.5.5l1.7.3 1.8.3c1.2.2 2.3.3 3.5.5.4.1.7.1 1.1.2.2 0 .4 0 .6.1.9-.5 1.9-.9 2.9-1.3s2-.8 2.9-1.1c.5-.2.9-.3 1.4-.5.5-.1.9-.3 1.4-.4.9-.3 1.8-.5 2.7-.7.8-.2 1.7-.3 2.5-.4zm20.4 19.5c2.5-2 5.3-5 7.4-8.9.3-.6.6-1.1.8-1.7-.1-.3-.1-.5-.2-.8-3.3.5-6.5 1.2-9.6 2.2-3.5 1-6.8 2.4-10 3.8-2 .9-3.9 1.9-5.8 2.9.1 0 .3.1.4.1.8.3 1.6.6 2.4.8 1.6.5 3.1 1 4.7 1.5.8.3 1.6.4 2.3.7.8.2 1.6.4 2.3.6.8.3 1.7.5 2.6.7.9-.5 1.8-1.2 2.7-1.9zm17.4 5.2c-3.4-5.5-7.1-10.3-8.2-12.9-.3-.7-.6-1.5-.8-2.2-2.3 4.8-6.1 9-10.6 11.9.5.1 1.1.2 1.6.4.8.2 1.6.4 2.3.5.8.1 1.6.3 2.3.4 1.6.3 3.1.6 4.6.8 3.1.5 6 .9 8.8 1.1zm31.4-3.2c-4.6-2.9-8.4-7.3-10.7-12.1-.1.4-.2.8-.4 1.2-1 2.9-4.7 8-8.1 14.1 2.7-.2 5.4-.6 8.2-1 1.5-.2 3.1-.5 4.6-.8.8-.1 1.6-.3 2.3-.4.8-.2 1.6-.4 2.3-.5.7-.2 1.3-.4 1.8-.5zm15.2-4.5c-1.9-1-3.8-2-5.8-2.9-3.2-1.4-6.5-2.8-10-3.8-3.1-1-6.4-1.7-9.7-2.2 0 .2-.1.4-.1.6.3.7.6 1.3.9 1.9 2.1 3.9 4.9 6.9 7.4 8.9.9.8 1.8 1.4 2.7 1.9.9-.2 1.7-.4 2.6-.7.8-.2 1.6-.4 2.3-.6.8-.2 1.6-.4 2.3-.7 1.6-.5 3.1-1 4.7-1.5.8-.3 1.6-.6 2.4-.8.1 0 .2-.1.3-.1zm36.8-15.9c.6-.2 1.4-.4 2.2-.6.9-.2 1.8-.6 2.8-.9 1-.4 2.1-.7 3.3-1.2 1.1-.5 2.4-1 3.6-1.5 1.3-.5 2.5-1.1 3.8-1.8 1.3-.6 2.6-1.2 3.8-2 1.2-.7 2.5-1.4 3.7-2.2.8-.6 1.6-1.1 2.4-1.6-1.2-.6-2.4-1.2-3.5-1.8-4.4-2.3-8.8-4.6-13.1-6.7-8.6-4.3-17.1-7.9-25.5-9.9-4.2-1-8.3-1.6-12.3-1.7-4-.1-8 .3-11.7 1.1-7.4 1.6-13.6 5.2-17.5 9.9-.2.3-.5.6-.7.9-.2.3-.5.6-.7.9l-.3.5-.3.5c-.2.3-.4.6-.6 1-.7 1.3-1.5 2.7-2 4.1-.6 1.4-1 2.8-1.3 4.2-.1.7-.3 1.4-.4 2.1-.1.5-.1.9-.2 1.4 0 0 0 .1.1.1 2.4.4 4.9.9 7.5 1.5 3 .8 5.8 1.6 8.6 2.4.3 0 .6-.1.9-.1.7 0 1.4-.1 2.2-.1.7 0 1.5-.1 2.2-.1 2.9-.1 6 0 9.3.6.8.1 1.7.3 2.6.5.9.2 1.8.4 2.7.7.5.1.9.3 1.4.4.5.2.9.3 1.4.5 1 .4 1.9.7 2.9 1.1 1 .4 1.9.9 2.9 1.3.2 0 .4 0 .6-.1.4-.1.8-.1 1.1-.2 1.2-.2 2.3-.4 3.5-.5l1.8-.3 1.7-.3c1.2-.2 2.3-.3 3.5-.5l3.5-.7c.6-.1 1-.2 1.4-.2.4 0 .6-.1.9-.1-.2 0 .5-.2 1.8-.6zm4 10.2c.5.1.4.3 1.1.3.1-.2-.9-.4-1.1-.3zm5.3 3.9c-1.5-1.2-4.5-2.4-7.5-3.4-.4.1-.7.3-1.1.4 3 1 5.9 1.9 8.6 3zm23.4-10.5c-.6 0-1.2 0-1.7.1l-.5.5c-1.3 1.2-2.9 2.6-3.4 2.9-.7.5-1.6.9-2.4 1.2l-2.4.9c-.8.3-1.6.5-2.5.8-.8.2-1.7.4-2.5.6-1.4 0-2.5-.2-3.4-.6-.5-.2-.9-.4-1.3-.7-.4-.3-.8-.5-1.1-.8-.3-.3-.7-.5-1-.8-1.4.4-2.7.9-4.1 1.4l-1.1.4h-.1c1.1.4 3.6 1.1 6.2 1.7 1.6.4 3.2.7 4.6 1 1.4.3 2.6.6 3.3.8 4.3 1.3 5.8.1 10.6.9.9.2 1.8.2 2.7.4.9.1 1.8.2 2.7.4.9.1 1.8.3 2.8.4.5.1.9.1 1.4.2l1.4.1c1.9.2 3.7.4 5.6.5 1.9.1 3.8.1 5.6.1 4.1 0 8.1-.2 12-.5-1.2-1.2-2.7-2.5-4.3-3.7-.4-.3-.8-.6-1.3-.9-.4-.3-.8-.6-1.3-.9-.9-.5-1.8-1.1-2.8-1.6-2-1-4.1-1.9-6.4-2.7-.6-.2-1.2-.4-1.7-.5-.6-.2-1.2-.3-1.7-.4l-.4-.1c-.1 0-.3-.1-.5-.1-.3-.1-.7-.1-1-.2-.3-.1-.7-.1-1-.2h-.4c.2 0 0 0 0 0h-.1l-.5-.1c-2.6-.4-5.3-.6-8-.5zm78.6-41.4c-.6-3-1.8-5.8-3.4-8.1-.8-1.2-1.7-2.2-2.7-3.1-1-.9-2-1.7-3.2-2.4-1.1-.7-2.3-1.2-3.5-1.7-1.2-.4-2.4-.7-3.6-.9-1.2-.2-2.4-.2-3.5-.2h-.3c-.3.2-.6.3-.9.5-.7.4-1.4.7-2 1.2-.6.5-1.2.9-1.8 1.4-.6.5-1.1 1-1.7 1.5l-1.5 1.6c-.5.5-1 1.1-1.5 1.6s-1 1.1-1.5 1.6c-1 1.1-2 2.1-3.2 3.1-.7.6-1.5 1.2-2.2 1.7-.8.6-1.5 1.1-2.4 1.5l-1.2.6c-.4.2-.8.4-1.3.6-.9.4-1.7.7-2.6 1.1-1 1.3-1.9 2.7-2.8 4.1-.9 1.4-1.7 2.8-2.6 4.2.9.8-.8 2.2-2.9 3.4-2.1 1.3-4.4 2.4-4.9 2.6-2.7 1.2-6.9 1.9-10.7 3-1 .3-1.9.6-2.8 1-.9.4-1.7.8-2.5 1.2-1.5 1-2.7 2.1-3.4 3.7 0 0 .1 0 .1.1 1-.4 1.9-.8 2.8-1.1 1-.3 1.9-.5 2.6-.5 1.5 0 2.6.8 2.7 3.2 0 .5 0 1-.2 1.4 1.4.5 2.9 1 4.4 1.5 6.8 2.2 14 3.7 21.3 4.2 7.3.5 14.8-.3 21.7-2.8 1.7-.6 3.4-1.3 5-2.2 1.6-.9 3.1-1.8 4.6-2.9 1.4-1.1 2.8-2.2 4-3.5 1.2-1.3 2.3-2.6 3.3-4s1.8-2.9 2.5-4.4c.7-1.5 1.2-3.1 1.6-4.7.8-2.9.8-6.1.2-9.1zm7-11.8c-.8-2.4-1.8-4.8-3.2-7l-.6-.9c-2.3-.3-4.7-.5-7-.4-1.2 0-2.4 0-3.7.2.2.1.4.1.6.2 2.2.9 4.4 2.3 6.6 4.3 1.1 1 2.1 2.1 3 3.4.9 1.3 1.8 2.7 2.6 4.2 1.5 3.1 2.6 6.7 2.9 10.8.7-4.7.4-9.9-1.2-14.8zM438.2 257c.4-2.3.9-4.8 2.6-8.2 2.6-5 6-9.6 9.7-13.7 3.7-4 7.6-7.7 11.4-11.3 6.1-5.7 12.2-10.5 18.1-15.2 5.9-4.7 11.7-9.1 17.1-14 5.4-4.9 10.6-10.2 15.1-16.5 4.1-5.7 7.6-12.1 9.7-19.5-.7.5-1.4 1-2.3 1.5-1.1.6-2.2 1.3-3.4 1.9-4.8 2.5-10.8 4.9-17.4 6.3-2.8.6-5.7 1-8.6 1.3l-1.8 1.8c-2.2 2-4.4 3.5-6.3 4.7-2 1.1-3.7 2-5.2 2.5-.4.1-.7.3-1 .4l-.9.3c-.6.2-1.1.4-1.4.5l-1.2.3c.1-.2.5-.5 1.3-.9.8-.5 1.9-1 3.2-1.8 2.6-1.5 6-3.8 9.1-7.2l.3-.3c-2.8.1-5.6 0-8.4-.3l-2.7-.3c-.9-.2-1.8-.3-2.7-.5-1.8-.3-3.5-.8-5.3-1.2-.9-.2-1.7-.5-2.6-.8-.8-.3-1.7-.6-2.5-.9-1.6-.6-3.2-1.3-4.8-2-6.1-2.8-11.3-6.3-15.4-9.3-.5-.4-1-.8-1.5-1.1-.5-.4-.9-.8-1.4-1.1-.9-.7-1.8-1.4-2.6-2.1-1.5-1.3-2.9-2.5-4-3.4-1.1-1-1.9-1.7-2.5-2.2-.6-.5-.9-.8-.9-.8-1.4-1-2.7-2-4-3-.5.2-1 .5-1.6.7-.7.3-1.4.5-2.1.8l-.5.2c-.2.1-.4.1-.5.2-.3.1-.7.2-1 .3-.3.1-.7.2-1 .3l-.2.1h-.4l-.5.1c-2.9.7-6 1.2-9.1 1.4-3.2.2-6.4.2-9.7-.1-3.3-.2-6.6-.8-9.9-1.4-3.3-.7-6.6-1.6-10-2.6l-1.3-.4-1.2-.5-1.2-.4-.3-.1-.3-.1-.6-.2c-1.4-.5-2.8-1-4.2-1.6-.1 0-.3.1-.4.1-1.3.4-2.6.8-3.9 1.1-1.3.3-2.5.7-3.8.9-2.5.6-4.9 1-7.3 1.3-3.5.4-6.9.5-10 .4h-.1c-.9.2-1.7.3-2.6.5-3.3.5-6.4.6-9.3.6-.7 0-1.5 0-2.2-.1-.7 0-1.4-.1-2.2-.1-.3 0-.6 0-.9-.1-2.8.8-5.6 1.6-8.6 2.4-3.1.8-6.2 1.4-9.1 1.8-.6.2-1.3.4-2.3.6-1.3.2-2.8.5-4.3.6-1.7-.1-3.3-.1-4.9-.2-1.6.1-3.2.2-4.9.2-1.5-.1-3.1-.4-4.3-.6-.9-.2-1.7-.4-2.3-.6-3-.4-6-1-9.1-1.8-3-.8-5.8-1.6-8.6-2.4-.3 0-.6.1-.9.1-.7 0-1.4.1-2.2.1-.7 0-1.5.1-2.2.1-2.9.1-6 0-9.3-.6-.8-.1-1.7-.3-2.6-.5h-.1c-3.2.2-6.5 0-10-.4-2.3-.3-4.8-.7-7.3-1.3-1.2-.3-2.5-.6-3.8-.9-1.3-.4-2.6-.7-3.9-1.1-.1 0-.3-.1-.4-.1-1.4.5-2.8 1.1-4.2 1.6l-.6.2-.3.1-.3.1-1.2.4-1.2.4-1.3.4c-3.3 1-6.6 1.9-10 2.6-3.3.7-6.6 1.2-9.9 1.4-3.3.2-6.5.3-9.7.1-3.1-.2-6.2-.7-9.1-1.4l-.5-.1h-.4l-.2-.1c-.3-.1-.7-.2-1-.3-.3-.1-.7-.2-1-.3-.2 0-.3-.1-.5-.2l-.5-.2c-.7-.3-1.4-.5-2.1-.8-.5-.2-1.1-.5-1.6-.7-1.3 1-2.6 2-4 3 0 0-.3.3-.9.8-.6.5-1.4 1.3-2.5 2.2-1.1 1-2.5 2.1-4 3.4-.8.7-1.7 1.3-2.6 2.1-.5.4-.9.7-1.4 1.1-.5.4-1 .7-1.5 1.1-4.1 3.1-9.3 6.5-15.4 9.3-1.6.7-3.1 1.4-4.8 2-.8.3-1.7.6-2.5.9-.8.3-1.7.6-2.6.8-1.7.4-3.5.9-5.3 1.2-.9.2-1.8.3-2.7.5l-2.7.3c-2.8.3-5.6.4-8.4.3l.3.3c3.1 3.4 6.5 5.7 9.1 7.2 1.3.8 2.4 1.3 3.2 1.8.8.4 1.2.7 1.3.9l-1.2-.3c-.4-.1-.9-.3-1.4-.5l-.9-.3c-.3-.1-.7-.3-1-.4-1.5-.6-3.2-1.4-5.2-2.5s-4.1-2.7-6.3-4.7c-.6-.5-1.2-1.1-1.8-1.8-3-.2-5.9-.7-8.6-1.3-6.6-1.4-12.6-3.8-17.4-6.3-1.2-.7-2.3-1.3-3.4-1.9-.8-.5-1.5-1-2.3-1.5 2.1 7.4 5.7 13.8 9.7 19.5 4.5 6.2 9.7 11.5 15.1 16.5 5.4 4.9 11.2 9.4 17.1 14 5.9 4.7 12 9.5 18.1 15.2 3.9 3.6 7.8 7.3 11.4 11.3 3.7 4.1 7.1 8.7 9.7 13.7 1.7 3.4 2.2 5.8 2.6 8.2.4 2.3.8 4.5 1.9 7.8.8 2.1 1.8 7.6 1.9 12.9 0 2.7-.1 5.3-.3 7.4-.2 2.1-.4 3.7-.3 4.3-1 3.6-2.1 6.1-3.1 7.3-.5.6-.9.9-1.3.7-.4-.1-.7-.6-1-1.5 1.1-2.9 1.7-6.3 1.8-9.2.1-1.5-.1-2.8-.2-4-.2-1.2-.6-2.2-1-3 .7 5.4.1 11.8-2.5 17.9 2.6 6.1 3.2 12.5 2.5 17.9.4-.8.8-1.8 1-3 .2-1.2.3-2.6.2-4-.1-2.9-.7-6.2-1.8-9.2.3-.9.7-1.4 1-1.5.4-.1.8.1 1.3.7.9 1.2 2.1 3.8 3.1 7.3-.1.6.1 2.2.3 4.3.2 2.1.3 4.7.3 7.4-.1 5.4-1.1 10.8-1.9 12.9-1.2 3.3-1.5 5.5-1.9 7.8-.4 2.3-.9 4.8-2.6 8.2-2.6 5-6 9.6-9.7 13.7-3.7 4-7.6 7.7-11.4 11.3-6.1 5.7-12.2 10.5-18.1 15.2-5.9 4.7-11.7 9.1-17.1 14-5.4 4.9-10.6 10.2-15.1 16.5-4.1 5.7-7.6 12.1-9.7 19.5.7-.5 1.4-1 2.3-1.5 1.1-.6 2.2-1.3 3.4-1.9 4.8-2.5 10.8-4.9 17.4-6.3 2.8-.6 5.7-1 8.6-1.3l1.8-1.8c2.2-2 4.4-3.5 6.3-4.7 2-1.1 3.7-2 5.2-2.5.4-.1.7-.3 1-.4l.9-.3c.6-.2 1.1-.4 1.4-.5l1.2-.3c-.1.2-.5.5-1.3.9-.8.5-1.9 1-3.2 1.8-2.6 1.5-6 3.8-9.1 7.2l-.3.3c2.8-.1 5.6 0 8.4.3l2.7.3c.9.2 1.8.3 2.7.5 1.8.3 3.5.8 5.3 1.2.9.2 1.7.5 2.6.8.8.3 1.7.6 2.5.9 1.6.6 3.2 1.3 4.8 2 6.1 2.8 11.3 6.3 15.4 9.3.5.4 1 .8 1.5 1.1.5.4.9.8 1.4 1.1.9.7 1.8 1.4 2.6 2.1 1.5 1.3 2.9 2.5 4 3.4 1.1 1 1.9 1.7 2.5 2.2.6.5.9.8.9.8 3.6 2.7 7.1 5.4 10.1 8.4 1 .9 1.9 1.9 2.7 2.9.9 1 1.7 2 2.6 2.9 0 0 .6.5 1.6 1.4 1 .9 2.4 2.1 4.2 3.5.4.3.9.7 1.3 1.1l1.2.9c.8-.3 1.5-.7 2.3-1 6.2-2.7 12-5.4 17.7-7.9 2.8-1.2 5.6-2.4 8.3-3.4 2.7-1 5.4-2 8-2.8 1.3-.4 2.6-.8 3.9-1.1 1.3-.3 2.5-.7 3.8-.9 2.5-.6 4.9-1 7.3-1.3 4.6-.5 9-.6 13-.1 4 .4 7.5 1.3 10.5 2.4 3 1.1 5.5 2.4 7.5 3.7.5.3 1 .7 1.4 1 .4.3.8.7 1.2 1 .2.2.4.3.6.5l.5.5.9.9c.3.3.5.6.8.8.2.3.5.5.7.7.4.5.7.9 1 1.2.3.3.4.6.6.8.1.2.2.3.2.3 1.1 1.7 2.1 3.4 2.9 5.3.8 1.9 1.3 3.8 1.7 5.8.2.9.3 1.7.4 2.6 4.2-6.7 11.3-11.6 11.9-16 .8 4.4 8.5 9 13 15.7.1-.8.2-1.6.4-2.3.4-2 1-3.9 1.7-5.8.8-1.9 1.8-3.6 2.9-5.3 0 0 .1-.1.2-.3.1-.2.3-.5.6-.8.3-.3.6-.7 1-1.2.2-.2.4-.5.7-.7.3-.3.5-.6.8-.8l.9-.9.5-.5c.2-.1.4-.3.6-.5.4-.3.8-.7 1.2-1 .5-.3.9-.6 1.4-1 2-1.3 4.5-2.6 7.5-3.7s6.5-1.9 10.5-2.4 8.4-.4 13 .1c2.3.3 4.8.7 7.3 1.3 1.2.3 2.5.6 3.8.9 1.3.4 2.6.7 3.9 1.1 2.6.8 5.3 1.8 8 2.8 2.7 1 5.5 2.2 8.3 3.4 5.7 2.4 11.5 5.2 17.7 7.9.8.3 1.5.7 2.3 1l1.2-.9c.5-.4.9-.7 1.3-1.1 1.7-1.4 3.2-2.6 4.2-3.5 1-.8 1.6-1.4 1.6-1.4.9-1 1.7-2 2.6-2.9.9-1 1.8-2 2.7-2.9 3-3 6.4-5.7 10.1-8.4 0 0 .3-.3.9-.8.6-.5 1.4-1.3 2.5-2.2 1.1-1 2.5-2.1 4-3.4.8-.7 1.7-1.3 2.6-2.1.5-.4.9-.7 1.4-1.1.5-.4 1-.7 1.5-1.1 4.1-3.1 9.3-6.5 15.4-9.3 1.6-.7 3.1-1.4 4.8-2 .8-.3 1.7-.6 2.5-.9.8-.3 1.7-.6 2.6-.8 1.7-.4 3.5-.9 5.3-1.2.9-.2 1.8-.3 2.7-.5l2.7-.3c2.8-.3 5.6-.4 8.4-.3l-.3-.3c-3.1-3.4-6.5-5.7-9.1-7.2-1.3-.8-2.4-1.3-3.2-1.8-.8-.4-1.2-.7-1.3-.9l1.2.3c.4.1.9.3 1.4.5l.9.3c.3.1.7.3 1 .4 1.5.6 3.2 1.4 5.2 2.5s4.1 2.7 6.3 4.7c.6.5 1.2 1.1 1.8 1.8 3 .2 5.9.7 8.6 1.3 6.6 1.4 12.6 3.8 17.4 6.3 1.2.7 2.3 1.3 3.4 1.9.8.5 1.5 1 2.3 1.5-2.1-7.4-5.7-13.8-9.7-19.5-4.5-6.2-9.7-11.5-15.1-16.5-5.4-4.9-11.2-9.4-17.1-14-5.9-4.7-12-9.5-18.1-15.2-3.9-3.6-7.8-7.3-11.4-11.3-3.7-4.1-7.1-8.7-9.7-13.7-1.7-3.4-2.2-5.8-2.6-8.2-.4-2.3-.8-4.5-1.9-7.8-.8-2.1-1.8-7.6-1.9-12.9 0-2.7.1-5.3.3-7.4.2-2.1.4-3.7.3-4.3 1-3.6 2.1-6.1 3.1-7.3.5-.6.9-.9 1.3-.7.4.1.7.6 1 1.5-1.1 2.9-1.7 6.3-1.8 9.2-.1 1.5.1 2.8.2 4 .2 1.2.6 2.2 1 3-.7-5.4-.1-11.8 2.5-17.9-2.6-6.1-3.2-12.5-2.5-17.9-.4.8-.8 1.8-1 3-.2 1.2-.3 2.6-.2 4 .1 2.9.7 6.2 1.8 9.2-.3.9-.7 1.4-1 1.5-.4.1-.8-.1-1.3-.7-.9-1.2-2.1-3.8-3.1-7.3.1-.6-.1-2.2-.3-4.3-.2-2.1-.3-4.7-.3-7.4.1-5.4 1.1-10.8 1.9-12.9 1.4-3.2 1.8-5.4 2.2-7.7zm-1.7 30.9c-.1 0-.1.4-.1.8.1.4.2.9.4 1-.3-.7 0-.7-.3-1.8zm-.1 18.6c-.1.4-.1.8.1.8.4-1 .1-1 .3-1.8-.2.2-.3.6-.4 1zm-277.6.9c.1 0 .1-.4.1-.8-.1-.4-.2-.9-.4-1 .3.7 0 .7.3 1.8zm.1-18.7c.1-.4.1-.8-.1-.8-.4 1-.1 1-.3 1.8.1-.1.3-.5.4-1zM463 276c.5-.6 2.6-1 2.4-1.7-1 .6-2.2 1.2-2.4 1.7zm2.4 45c.2-.6-1.9-1.1-2.4-1.7.2.5 1.4 1.1 2.4 1.7zm48.4-23.4c-.6-.8-1.2-1.6-1.9-2.3-2-2.4-4.5-4.4-7.1-6.1l-2-1.2c-.7-.4-1.4-.7-2.1-1.1-1.4-.8-2.9-1.2-4.4-1.8-.8-.3-1.5-.4-2.3-.6l-1.2-.3c-.4-.1-.8-.1-1.2-.2l-2.4-.4-2.4-.1c-.4 0-.8-.1-1.2-.1h-1.2c-.8 0-1.6 0-2.4.1-1.6.2-3.2.3-4.7.8h-.1c-1.8.4-3.5 1.1-5.3 1.6-1.6.8-3.3 1.4-4.8 2.3-4.5 2.3-8.5 5.5-11.6 9.4 3.2 3.9 7.1 7.1 11.6 9.4 1.5.9 3.2 1.5 4.8 2.3 1.7.6 3.4 1.3 5.3 1.6h.1c1.5.4 3.1.6 4.7.8.8.1 1.6.1 2.4.1h1.2c.4 0 .8 0 1.2-.1l2.4-.1 2.4-.4c.4-.1.8-.1 1.2-.2l1.2-.3c.8-.2 1.5-.4 2.3-.6 1.5-.6 3-1 4.4-1.8.7-.4 1.5-.6 2.1-1.1l2-1.2c2.6-1.8 5.1-3.7 7.1-6.1.7-.7 1.3-1.5 1.9-2.3zm-39.1 69.3c0-.2-.5-.5-1-.8-.5-.4-1.1-.7-1.5-.9.8.7 1.6 1 2.5 1.7zm12.5 5.5c-.9-.4-1.8-.7-2.9-1-.5.4 2.3 1 2.9 1zm3.4-26.1c-.1-.2-.2-.6-.6-.6.1.3.3.4.6.6zm35.9-48.7c-.2-.3-.5-.5-.7-.8-.5-.5-1-1.1-1.5-1.6-.4.8-.8 1.6-1.3 2.4.4.8.9 1.6 1.3 2.4.5-.5 1-1 1.5-1.6.2-.2.5-.5.7-.8zM407 508.8c-.5 0-1.2 0-.5.1.3 0-.1-.1.2-.1h.5-.2zm-218.7 0h.3c.3 0-.1.1.2.1.7-.1 0-.1-.5-.1z"/></svg>