<svg xmlns="http://www.w3.org/2000/svg" viewBox="0 0 48 48"><path d="M18 29h12v11H18z" fill="#ff9800"/><path d="M24 29.398c-3.8 0-4-2.597-4-2.597V19h8v7.8s-.2 2.598-4 2.598z" fill="#ff9800"/><path d="M32.5 15.5a1.5 1.5 0 1 1-3 0 1.5 1.5 0 0 1 3 0zm-14 0a1.5 1.5 0 1 1-3 0 1.5 1.5 0 0 1 3 0z" fill="#ffa726"/><path d="M31 10.602c0-5.903-14-3.903-14 0V16c0 3.898 3.102 7 7 7s7-3.102 7-7v-5.398z" fill="#ffb74d"/><path d="M24 4c-4.898 0-8 3.898-8 8.8v1.5l2 1.7v-4l9.2-3.2L30 12v4l2-1.7v-1.5c0-3.198-.8-6.402-4.8-7.198L26.397 4z" fill="#ffcc80"/><path d="M28 16c0 .55-.45 1-1 1s-1-.45-1-1 .45-1 1-1 1 .45 1 1zm-6 0c0 .55-.45 1-1 1s-1-.45-1-1 .45-1 1-1 1 .45 1 1z" fill="#ff9800"/><path d="M28 25s-1.3 2-4 2-4-2-4-2h-8c0 7.898 3.398 11 3.398 11h17.204S36 31 36 25zM15 40h18v4H15z" fill="#ffb74d"/></svg>