<svg xmlns="http://www.w3.org/2000/svg" viewBox="0 0 24 24"><path d="M12.094 0a1.767 1.767 0 0 0-.406.094c-.2-.102-.583-.102-.782 0-.101 0-.398.199-.5.5-.3.101-.52.113-.719.312-.101.2-.187.594-.187.594s-.488.188-.688.688c-.101.3 0 .812 0 .812s-.312.3-.312.5c-.102.102 0 .5 0 .5s-.094.105-.094.406c0 .2.281.5.281.5s-.101.301 0 .5c0 .301.313.407.313.407s-.293.601.406 1c0 .5.301.78.5.78-.101.4.106.805.406.907 0 .602-.417.898-.718 1C9.293 9.7 4 10.488 4 11.688c2.602 2.199 3 5.406 3 5.406h10.188s-.102-2.707 3-5.407c0-.898-5.489-2.085-5.688-2.187-.3-.2-.594-.414-.594-.813.2-.199.383-.374.281-.874.102 0 .426-.102.626-.5.101-.2.093-.524.093-.625 0-.102.18-.301.281-.5 0-.2-.101-.493 0-.594.102-.102.211-.196.313-.594.102-.398 0-.906 0-.906s.094-.508.094-.907c-.102-.398-.399-.675-.5-.874 0-.2.011-.512-.188-.813-.199-.3-.594-.313-.594-.313s-.101-.386-.5-.687c-.398-.3-.906-.188-.906-.188S12.801.103 12.5 0c-.148 0-.281-.012-.406 0zM8 18c.398.602.3 2.5 0 3h8c-.398-.602-.3-2.5 0-3zm-2 4v2h12v-2z"/></svg>