<svg xmlns="http://www.w3.org/2000/svg" viewBox="0 0 595.28 595.28"><path fill="#F08122" d="M595.28 14.84H0v22.2h290.43l-62.99 193.84H.28L184.06 364.4l-62.98 193.85H0v22.2h595.28v-22.2H474.2L411.21 364.4 595 230.88H367.84L304.85 37.03h290.43v-22.2zM144.4 558.25l153.23-111.33 153.23 111.33H144.41zm200.62-319.96l5.39 16.57H521.2L397.13 345l-14.1 10.24 5.39 16.57 47.39 145.86-124.08-90.15-14.09-10.24-14.1 10.24-124.07 90.15 47.4-145.86 5.38-16.57-14.1-10.24-124.07-90.14H244.87l5.38-16.57 47.39-145.86 47.4 145.86z"></path><polygon fill="#FFF200" points="273.301,290.129 194.541,290.129 258.26,336.424 233.921,411.329 297.639,365.034 361.358,411.329 337.02,336.424 400.738,290.129 321.978,290.129 297.639,215.223"></polygon></svg>