<svg xmlns="http://www.w3.org/2000/svg" viewBox="0 0 40 40"><path d="M14.5 31.5h11v3h-11z" fill="#b6dcfe"/><path d="M25 32v2H15v-2h10m1-1H14v4h12z" fill="#4788c7"/><path d="M9.156 31.5l-2.531-7.23C8.137 23.629 13.637 21.5 20 21.5s11.863 2.129 13.375 2.77l-2.531 7.23z" fill="#dff0fe"/><path d="M20 22c5.77 0 10.824 1.781 12.746 2.555L30.492 31H9.508l-2.254-6.445C9.176 23.78 14.23 22 20 22m0-1c-7.664 0-14 3-14 3l2.8 8h22.4l2.8-8s-6.336-3-14-3z" fill="#4788c7"/><path d="M20 23.5c-2.5 0-3.332-1.41-3.5-1.758v-4.164h7v4.164c-.164.34-.996 1.758-3.5 1.758z" fill="#b6dcfe"/><path d="M23 18.078v3.54c-.215.37-.988 1.382-3 1.382-2.023 0-2.793-1.023-3-1.379v-3.543h6m1-1h-8v4.77S16.8 24 20 24s4-2.152 4-2.152z" fill="#4788c7"/><path d="M25.715 15.543c-.985 0-1.785-.73-1.785-1.625s.8-1.621 1.785-1.621c1.648 0 1.785.45 1.785.914 0 .996-.883 2.332-1.785 2.332zm-11.43 0c-.902 0-1.785-1.336-1.785-2.332 0-.461.137-.914 1.785-.914.985 0 1.785.726 1.785 1.625 0 .894-.8 1.621-1.785 1.621z" fill="#b6dcfe"/><path d="M25.715 12.797c1.285 0 1.285.258 1.285.414 0 .785-.734 1.828-1.285 1.828-.711 0-1.285-.504-1.285-1.121s.574-1.121 1.285-1.121m-11.43 0c.711 0 1.285.504 1.285 1.121s-.574 1.121-1.285 1.121c-.55 0-1.285-1.043-1.285-1.828 0-.156 0-.414 1.285-.414m11.43-1c-1.262 0-2.285.95-2.285 2.121 0 1.172 1.02 2.121 2.285 2.121 1.262 0 2.285-1.656 2.285-2.828s-1.023-1.414-2.285-1.414zm-11.43 0c-1.262 0-2.285.242-2.285 1.414s1.023 2.828 2.285 2.828c1.262 0 2.285-.95 2.285-2.121 0-1.172-1.023-2.121-2.285-2.121z" fill="#4788c7"/><path d="M20 20.5c-.371 0-.73-.14-1.016-.395l-.101-.09-.137-.027A6.51 6.51 0 0 1 13.5 13.61V6.93a2.97 2.97 0 0 1 2.969-2.968h7.062A2.97 2.97 0 0 1 26.5 6.93v6.683a6.505 6.505 0 0 1-5.246 6.375l-.137.028-.101.09A1.528 1.528 0 0 1 20 20.5z" fill="#dff0fe"/><path d="M23.531 4.457c1.36 0 2.469 1.11 2.469 2.473v6.683a6.003 6.003 0 0 1-4.844 5.883l-.27.055-.202.183a1.008 1.008 0 0 1-1.367-.004l-.204-.18-.27-.054A6.003 6.003 0 0 1 14 13.613V6.93a2.471 2.471 0 0 1 2.469-2.47h7.062m0-1.003H16.47A3.472 3.472 0 0 0 13 6.93v6.683a7 7 0 0 0 5.652 6.867c.36.32.828.52 1.348.52.52 0 .988-.2 1.348-.52A7 7 0 0 0 27 13.613V6.93a3.472 3.472 0 0 0-3.469-3.473z" fill="#4788c7"/><path d="M26.5 14.5v-2.39c0-3.07-2.648-5.18-2.762-5.27l-.343-.266-.313.297c-.016.016-1.777 1.629-5.48 1.629-1.977 0-4.102 1.184-4.102 3.777V14.5h-.094c-.234-1.164-.906-4.578-.906-5.95 0-4.284 2.945-7.05 7.5-7.05 1.992 0 3.36 1.734 3.371 1.754l.152.191h.247c1.289 0 3.73.996 3.73 4.762 0 2.145-.652 5.227-.898 6.293z" fill="#b6dcfe"/><path d="M20 2c1.727 0 2.969 1.547 2.977 1.559l.3.386h.489c1.203 0 3.234.899 3.234 4.262 0 .73-.078 1.578-.191 2.414-.637-2.484-2.66-4.094-2.762-4.176l-.68-.515-.625.574C22.68 6.566 21.078 8 17.602 8c-1.797 0-3.707.879-4.364 2.777C13.102 9.875 13 9.051 13 8.551 13 4.57 15.746 2 20 2m0-1c-4.906 0-8 3.102-8 7.55 0 1.731 1 6.45 1 6.45h1v-2.723C14 10.027 15.809 9 17.602 9c3.98 0 5.828-1.766 5.828-1.766S26 9.246 26 12.11V15h1s1-4.086 1-6.793c0-3.852-2.445-5.262-4.234-5.262C23.766 2.945 22.262 1 20 1z" fill="#4788c7"/><path d="M10.5 38.5V36a1.5 1.5 0 0 1 1.5-1.5h16a1.5 1.5 0 0 1 1.5 1.5v2.5z" fill="#dff0fe"/><path d="M28 35c.55 0 1 .45 1 1v2H11v-2c0-.55.45-1 1-1h16m0-1H12a2 2 0 0 0-2 2v3h20v-3a2 2 0 0 0-2-2z" fill="#4788c7"/></svg>