<svg xmlns="http://www.w3.org/2000/svg" viewBox="0 0 26 26"><path d="M14.5 0a1.503 1.503 0 1 0-1.031 2.594l-1.563.375A1.54 1.54 0 0 0 12 2.5a1.5 1.5 0 1 0-2.563 1.063L1.75 5.468l.5 1.937 10.094-2.5c.16.34.351.832.5 1.5.21.938.199 1.856-.344 2.594H9v2h8V9h-2.219c.324-1.043.227-2.152.031-3.031a9.037 9.037 0 0 0-.5-1.532L24.25 1.97l-.5-1.94-7.844 1.94A1.54 1.54 0 0 0 16 1.501 1.5 1.5 0 0 0 14.5 0zM6.594 12l-.313.281s-.629.66-1.187 1.781C4.535 15.184 4 16.832 4 19c0 2.168.535 3.816 1.094 4.938.558 1.12 1.187 1.78 1.187 1.78l.313.282h12.843l.282-.313S22 23.282 22 19c0-4.281-2.281-6.688-2.281-6.688L19.437 12zm.937 2H12v5H6c0-1.832.465-3.184.906-4.063.34-.675.504-.804.625-.937zM14 14h4.5c.32.363 1.5 1.832 1.5 5h-6z"/></svg>