<?xml version="1.0" encoding="utf-8"?>
<!-- Generator: Adobe Illustrator 22.0.1, SVG Export Plug-In . SVG Version: 6.00 Build 0)  -->
<svg version="1.1" xmlns="http://www.w3.org/2000/svg" xmlns:xlink="http://www.w3.org/1999/xlink" x="0px" y="0px"
	 viewBox="0 0 157.211 191.139" enable-background="new 0 0 157.211 191.139" xml:space="preserve">
<g id="BACKGROUND">
</g>
<g id="OBJECTS">
	<g>
		<g>
			<path fill="#52677F" d="M40.075,120.072c-15.247,1.79-31.811,8.343-31.811,30.604c0,24.707,14.531,30.92,29.584,32.412
				C53.926,152.442,46.632,130.923,40.075,120.072z"/>
			<path fill="#52677F" d="M107.707,183.494c11.945,0,21.003,0,21.003,0s14.392,1.349,14.392-17.092c0-4.097,0-13.172,0-24.804
				C116.977,147.465,109.702,170.011,107.707,183.494z"/>
			<path fill="#52677F" d="M72.043,28.754v31.773c1.367-0.897,1.876-2.79,4.016-2.79c2.803,0,2.803,3.253,5.605,3.253
				c2.803,0,2.803-3.253,5.606-3.253c2.803,0,2.803,3.253,5.606,3.253c2.804,0,2.804-3.253,5.606-3.253
				c2.802,0,2.802,3.253,5.604,3.253c2.803,0,2.803-3.253,5.606-3.253c2.803,0,2.803,3.253,5.605,3.253
				c2.803,0,2.803-3.253,5.605-3.253c2.804,0,2.804,3.253,5.607,3.253c2.802,0,2.802-3.253,5.604-3.253
				c2.805,0,2.805,3.253,5.609,3.253c2.724,0,2.812-3.055,5.379-3.236c0-16.987,0-29,0-29H72.043z"/>
		</g>
		<path fill="#FFFFFF" d="M157.211,40.24c0,3.978-3.225,7.202-7.202,7.202H65.137c-3.978,0-7.201-3.224-7.201-7.202V17.269
			c0-3.977,3.224-7.202,7.201-7.202h84.872c3.977,0,7.202,3.224,7.202,7.202V40.24z"/>
		<g>
			<path fill="#EF4431" d="M141.762,60.427c-0.753,0.873-1.89,2.191-4.039,2.191c-2.147,0-3.285-1.319-4.037-2.192
				c-0.691-0.803-0.966-1.063-1.572-1.063c-0.604,0-0.878,0.259-1.569,1.062c-0.752,0.873-1.888,2.192-4.035,2.192
				c-2.147,0-3.284-1.319-4.036-2.192c-0.692-0.803-0.966-1.063-1.572-1.063c-0.604,0-0.878,0.259-1.57,1.062
				c-0.751,0.873-1.888,2.192-4.036,2.192s-3.284-1.319-4.036-2.192c-0.691-0.803-0.965-1.062-1.57-1.062s-0.879,0.259-1.571,1.062
				c-0.751,0.873-1.888,2.192-4.035,2.192c-2.147,0-3.283-1.32-4.035-2.192c-0.691-0.803-0.965-1.062-1.569-1.062
				c-0.605,0-0.879,0.259-1.57,1.062c-0.752,0.873-1.888,2.192-4.036,2.192c-2.148,0-3.284-1.319-4.036-2.192
				c-0.691-0.803-0.966-1.062-1.571-1.062c-0.604,0-0.879,0.259-1.569,1.062c-0.752,0.873-1.889,2.192-4.036,2.192
				c-2.147,0-3.284-1.319-4.036-2.192c-0.691-0.803-0.965-1.062-1.57-1.062c-0.605,0-0.879,0.259-1.57,1.062
				c-0.539,0.626-1.282,1.472-2.445,1.907v47.403c0,0,0,9.894-9.895,9.894c-4.366,0-12.986-0.625-22.073,0.442
				c6.557,10.851,13.851,32.37-2.227,63.016c6.594,0.655,13.287,0.406,18.904,0.406c10.854,0,33.862,0,50.956,0
				c1.995-13.483,9.27-36.029,35.395-41.895c0-23.582,0-57.681,0-82.218C142.647,59.448,142.359,59.735,141.762,60.427z"/>
			<path fill="#FFFFFF" d="M137.723,60.991c-2.804,0-2.804-3.253-5.609-3.253c-2.802,0-2.802,3.253-5.604,3.253
				c-2.803,0-2.803-3.253-5.607-3.253c-2.802,0-2.802,3.253-5.605,3.253c-2.803,0-2.803-3.253-5.605-3.253
				c-2.803,0-2.803,3.253-5.606,3.253c-2.801,0-2.801-3.253-5.604-3.253c-2.803,0-2.803,3.253-5.606,3.253
				c-2.803,0-2.803-3.253-5.606-3.253c-2.802,0-2.802,3.253-5.606,3.253c-2.803,0-2.803-3.253-5.605-3.253
				c-2.14,0-2.649,1.892-4.016,2.79v1.805c1.163-0.435,1.907-1.281,2.445-1.907c0.691-0.803,0.965-1.062,1.57-1.062
				c0.604,0,0.879,0.259,1.57,1.062c0.752,0.873,1.889,2.192,4.036,2.192c2.148,0,3.284-1.319,4.036-2.192
				c0.691-0.803,0.965-1.062,1.569-1.062c0.605,0,0.879,0.259,1.571,1.062c0.752,0.873,1.888,2.192,4.036,2.192
				c2.148,0,3.284-1.319,4.036-2.192c0.692-0.803,0.965-1.062,1.57-1.062c0.604,0,0.878,0.259,1.569,1.062
				c0.752,0.873,1.888,2.192,4.035,2.192c2.147,0,3.284-1.319,4.035-2.192c0.691-0.803,0.966-1.062,1.571-1.062
				s0.879,0.259,1.57,1.062c0.752,0.873,1.888,2.192,4.036,2.192s3.284-1.319,4.036-2.192c0.691-0.803,0.965-1.062,1.57-1.062
				c0.605,0,0.88,0.259,1.572,1.063c0.752,0.873,1.888,2.192,4.036,2.192c2.147,0,3.283-1.319,4.035-2.192
				c0.69-0.803,0.965-1.062,1.569-1.062c0.606,0,0.88,0.259,1.572,1.063c0.752,0.873,1.89,2.192,4.037,2.192
				c2.149,0,3.286-1.319,4.039-2.191c0.597-0.692,0.884-0.979,1.34-1.046c0-0.545,0-1.091,0-1.626
				C140.535,57.936,140.448,60.991,137.723,60.991z"/>
		</g>
		<path fill="none" stroke="#FFFFFF" stroke-width="1.6271" stroke-miterlimit="10" stroke-dasharray="4.8812,4.0677" d="
			M44.513,119.673c4.821,9.575,14.884,36.009-3.235,63.68"/>
		<path fill="none" stroke="#FFFFFF" stroke-width="1.6271" stroke-miterlimit="10" stroke-dasharray="4.8812,4.0677" d="
			M104.247,183.494c1.188-10.343,7.312-37.688,38.855-44.984"/>
		<path fill="#FFEC50" d="M120.151,125.456c-0.391,0-0.782-0.12-1.114-0.361l-11.464-8.329l-11.464,8.329
			c-0.332,0.241-0.724,0.361-1.114,0.361c-0.391,0-0.782-0.12-1.114-0.361c-0.664-0.482-0.942-1.339-0.688-2.12l4.379-13.477
			l-11.464-8.328c-0.665-0.483-0.943-1.338-0.689-2.12c0.253-0.781,0.981-1.31,1.803-1.31h14.17l4.378-13.477
			c0.254-0.781,0.981-1.31,1.803-1.31c0.821,0,1.549,0.529,1.803,1.31l4.378,13.477h14.17c0.821,0,1.549,0.528,1.803,1.31
			c0.254,0.782-0.024,1.637-0.688,2.12l-11.464,8.328l4.379,13.477c0.254,0.781-0.024,1.637-0.689,2.12
			C120.933,125.336,120.542,125.456,120.151,125.456z"/>
	</g>
</g>
</svg>
