<svg xmlns="http://www.w3.org/2000/svg" viewBox="0 0 48 48"><path d="M11 32c0-.555-.445-1-1-1H6c-.555 0-1 .445-1 1v6c0 .555.445 1 1 1h4c.555 0 1-.445 1-1zm32 0c0-.555-.445-1-1-1h-4c-.555 0-1 .445-1 1v6c0 .555.445 1 1 1h4c.555 0 1-.445 1-1z" fill="#455a64"/><path d="M44 20H4c-.555 0-1 .445-1 1v2c0 .555.445 1 1 1h40c.555 0 1-.445 1-1v-2c0-.555-.445-1-1-1z" fill="#ab47bc"/><path d="M41 23l-2-.996L9 22l-2 1c-1.105 0-2 1.895-2 3v8c0 .555.445 1 1 1h36c.555 0 1-.445 1-1v-8c0-1.105-.895-3-2-3z" fill="#ab47bc"/><path d="M39.785 23.004c-.14-.89-.383-2.285-.785-4.504C38 13 36.09 9 32.5 9h-17c-3.59 0-5.563 4.5-6.5 9.5a173.858 173.858 0 0 0-.793 4.504z" fill="#ab47bc"/><path d="M41 31c0 .555-.445 1-1 1H8c-.555 0-1-.445-1-1v-3c0-.555.445-1 1-1h32c.555 0 1 .445 1 1z" fill="#212121"/><path d="M11 29.5a1.5 1.5 0 1 1-3 0 1.5 1.5 0 0 1 3 0zm29 0a1.5 1.5 0 1 1-3 0 1.5 1.5 0 0 1 3 0z" fill="#ffeb3b"/><path d="M37.031 18.855C36.148 14 34.855 11 32.5 11h-17c-2.188 0-3.684 3.34-4.535 7.867-.246 1.313-.43 2.332-.567 3.133H37.59c-.137-.793-.317-1.813-.559-3.145z" fill="#e3f2fd"/><path d="M16.5 21c-1.93 0-3.5-1.566-3.5-3.5s1.57-3.5 3.5-3.5 3.5 1.566 3.5 3.5-1.57 3.5-3.5 3.5m14 0c-1.93 0-3.5-1.566-3.5-3.5s1.57-3.5 3.5-3.5 3.5 1.566 3.5 3.5-1.57 3.5-3.5 3.5" fill="#ffb74d"/><path d="M23.5 17.5A2.502 2.502 0 0 1 21 15c0-1.379 1.121-2.5 2.5-2.5S26 13.621 26 15s-1.121 2.5-2.5 2.5" fill="#ffa726"/></svg>