<svg xmlns="http://www.w3.org/2000/svg" viewBox="0 0 40 40"><path d="M14.715 14.5C12.305 14.5 9.5 11.66 9.5 8s2.805-6.5 5.215-6.5c1.625 0 3.785.527 3.785 5.102 0 3.812-1.52 7.898-3.785 7.898z" fill="#dff0fe"/><path d="M14.715 2C16.242 2 18 2.523 18 6.602c0 3.5-1.348 7.398-3.285 7.398C12.535 14 10 11.379 10 8s2.535-6 4.715-6m0-1C11.953 1 9 4.133 9 8s2.953 7 5.715 7S19 10.465 19 6.602C19 2.734 17.477 1 14.715 1z" fill="#4788c7"/><path d="M25.285 14.5c-2.265 0-3.785-4.086-3.785-7.898 0-4.575 2.16-5.102 3.785-5.102 2.41 0 5.215 2.84 5.215 6.5s-2.805 6.5-5.215 6.5z" fill="#dff0fe"/><path d="M25.285 2C27.465 2 30 4.621 30 8s-2.535 6-4.715 6C23.348 14 22 10.102 22 6.602 22 2.523 23.758 2 25.285 2m0-1C22.523 1 21 2.734 21 6.602 21 10.465 22.523 15 25.285 15 28.047 15 31 11.867 31 8s-2.953-7-5.715-7z" fill="#4788c7"/><path d="M6 27.5c-2.48 0-4.5-2.914-4.5-6.5 0-3.66 2.805-6.5 5.215-6.5 1.625 0 3.785.527 3.785 5.102 0 3.554-2.078 7.898-4.5 7.898z" fill="#dff0fe"/><path d="M6.715 15C8.242 15 10 15.523 10 19.602 10 23.195 7.945 27 6 27c-2.168 0-4-2.746-4-6 0-3.379 2.535-6 4.715-6m0-1C3.953 14 1 17.133 1 21s2.238 7 5 7 5-4.535 5-8.398C11 15.734 9.477 14 6.715 14z" fill="#4788c7"/><path d="M33 28.5c-2.422 0-4.5-4.344-4.5-7.898 0-4.575 2.16-5.102 3.785-5.102 2.41 0 5.215 2.84 5.215 6.5 0 3.586-2.02 6.5-4.5 6.5z" fill="#dff0fe"/><path d="M32.285 16C34.465 16 37 18.621 37 22c0 3.254-1.832 6-4 6-1.945 0-4-3.805-4-7.398C29 16.523 30.758 16 32.285 16m0-1C29.523 15 28 16.734 28 20.602 28 24.465 30.238 29 33 29s5-3.133 5-7-2.953-7-5.715-7z" fill="#4788c7"/><path d="M10.348 37.5c-1.836 0-3.434-1.32-3.793-3.137-.266-1.347.394-3.312 1.797-4.09l.418-.23c1.921-1.055 4.097-2.25 6.734-5.688.902-1.18 2.238-1.855 3.664-1.855 1.89 0 3.328.898 4.398 2.75l.684 1.191c1.059 1.778 4.898 3.801 5.063 3.887a3.767 3.767 0 0 1 1.921 4.813 3.707 3.707 0 0 1-3.867 2.336c-.613-.22-5.62-1.977-8.344-1.977-2.52.012-7.671 1.766-8.3 1.98-.125.012-.25.02-.375.02z" fill="#dff0fe"/><path d="M19.168 23c1.695 0 2.992.816 3.965 2.496l.687 1.207c1.11 1.86 4.836 3.848 5.301 4.09a3.26 3.26 0 0 1 1.645 4.164 3.202 3.202 0 0 1-3.29 2.027c-.831-.293-5.722-1.984-8.48-1.984-2.508.008-7.531 1.7-8.379 1.988a3.11 3.11 0 0 1-.27.012c-1.6 0-2.988-1.148-3.304-2.73-.223-1.153.36-2.899 1.55-3.56l.415-.23c1.965-1.078 4.191-2.3 6.89-5.82.809-1.055 2-1.66 3.27-1.66m0-1c-1.59 0-3.066.754-4.063 2.05-2.761 3.606-5.011 4.684-6.996 5.786-1.617.898-2.343 3.117-2.046 4.625a4.383 4.383 0 0 0 4.769 3.512S16.449 36.012 19 36h.023c2.786 0 8.227 1.969 8.227 1.969a4.233 4.233 0 0 0 4.45-2.645c.831-2.101-.114-4.492-2.153-5.437 0 0-3.867-2.024-4.863-3.696L24 25c-1.5-2.594-3.484-3-4.832-3z" fill="#4788c7"/></svg>