<svg xmlns="http://www.w3.org/2000/svg" viewBox="0 0 50 50"><path d="M47.156 0a1.03 1.03 0 0 0-.406.031l-8 2c-.281.07-.523.27-.656.531l-4.032 8.032-2.374 4.75-2.594 5.219c-.246.492-.024 1.097.468 1.343a1.024 1.024 0 0 0 1.344-.469l2.813-5.656c.054.012.133.02.187.031 4.067 1.153 6.657 3.165 6.657 5.188 0 .016.03.02.03.031l-.03.063c2.382-1.094 4.078-2.422 4.374-3.719-.433-2.695-3.667-5.004-8.843-6.313l3.593-7.218 7.563-1.875A.999.999 0 0 0 47.969.75a1.002 1.002 0 0 0-.813-.75zM12.5 5C6.75 5 2 9.75 2 15.5c0 4.016 2.25 7.426 5.531 9.25C7.22 26.61 7 28.504 7 30c0 11.027 8.973 20 20 20s20-8.973 20-20c0-3.258-.836-7.367-1.438-9.906-1.347 1.43-3.535 2.703-6.156 3.687-.039 7.055-2.488 12.969-2.593 13.219a.96.96 0 0 1-.907.594.893.893 0 0 1-.375-.063c-.511-.21-.773-.8-.562-1.312.023-.055 2.203-5.39 2.406-11.782C34.105 25.419 30.422 26 27 26c-7.059 0-15.254-2.441-18.531-5.875-.168.742-.38 1.633-.563 2.563C5.543 21.133 4 18.527 4 15.5 4 10.852 7.852 7 12.5 7s8.5 3.852 8.5 8.5c0 .766-.242 1.41-.406 2.094l-7.063-4.407a1.01 1.01 0 0 0-1.125.063c-.008.004-.023-.004-.031 0a.472.472 0 0 0-.063.063c-1.878 1.167-3.011 2.597-3.25 4.093.325 1.297 2.036 2.594 4.344 3.657a.815.815 0 0 1 .063.03c.004-.027.031-.062.031-.093 0-1.242 1.3-2.996 2.563-3.469a.886.886 0 0 0 .312-.218l4.406 2.75a.987.987 0 0 0 .817.105.988.988 0 0 0 .62-.543c.583-1.277.782-2.723.782-4.125 0-.105-.027-.207-.031-.313 1.16-.187 2.449-.25 4.031-.25.898 0 1.742 0 2.594.094h.031l2.344-4.719c-.266-.027-.582-.042-1-.093A33.234 33.234 0 0 0 27 10c-2.094 0-3.855.129-5.375.375C19.812 7.187 16.391 5 12.5 5z"/></svg>