<svg xmlns="http://www.w3.org/2000/svg" viewBox="0 0 24 24"><path d="M2 2s4 1 4 5c0 2.996-4 5.441-4 9 0 4.605 3 6 3 6h15s-9-3-9-8c0-3 1-4 1-7 0-4-6-5-6-5zm14.719.031s-.465.989-.469 1c-.984.031-1.918.64-2.281 1.625l-.875 2.375a2.518 2.518 0 0 0 1.5 3.219c1.297.477 2.71-.203 3.187-1.5l.875-2.344A2.515 2.515 0 0 0 18.281 4c.004.023.469-1.063.469-1.063zM22 6s-5.012 2.984-5 13.156a25.34 25.34 0 0 0 2 1.032C18.992 10.995 22 6 22 6zm-8.469 4.938a33.888 33.888 0 0 0-.5 4.906 9.93 9.93 0 0 0 1.969 2c.012-2.422.258-4.551.625-6.407a2.447 2.447 0 0 1-1.375-.093 2.449 2.449 0 0 1-.719-.406zm8.313 4.03c-.313-.011-1.028.06-1.657.782-.066.688-.093 1.418-.125 2.188C22.009 15.973 22 15 22 15s-.05-.027-.156-.031z"/></svg>