<svg xmlns="http://www.w3.org/2000/svg" viewBox="0 0 50 50"><path d="M1 0a.987.987 0 0 0-.969.781c-.101.461.137.93.563 1.125C.719 1.961 13.03 7.691 13 16c-.012 2.953-2.79 5.168-5.719 7.5C3.863 26.223 0 29.281 0 34.219c0 11.672 13.582 15.71 13.719 15.75.09.023.187.031.281.031h32a.998.998 0 0 0 1-.875.997.997 0 0 0-.75-1.094C46.047 47.981 26 43.023 26 34c0-2.918.738-5.61 1.438-8.219 1.292-4.816 2.5-9.36-.844-14.5-2.582-3.969-7.125-7.176-10.438-9.5A90.867 90.867 0 0 1 13.938.188.952.952 0 0 0 13.344 0zm42.25.063a1.01 1.01 0 0 0-.688.343A53.927 53.927 0 0 0 40.5 2.875a3.533 3.533 0 0 0-1.156-.188c-1.32 0-2.543.7-3.188 1.844-.199.352-.422.723-.656 1.125-1.207 2.09-2.719 4.688-3.531 7.094a3.605 3.605 0 0 0 .187 2.781 3.67 3.67 0 0 0 3.282 2.031 3.654 3.654 0 0 0 3.468-2.468c.582-1.723 1.86-3.973 2.907-5.781.246-.426.476-.848.687-1.22a3.582 3.582 0 0 0 .344-2.75 3.675 3.675 0 0 0-.688-1.312 48.944 48.944 0 0 1 1.907-2.312.996.996 0 0 0-.094-1.407.986.986 0 0 0-.719-.25zm3.969 11.906C45.87 11.969 34 18.156 34 40.406c0 .149.004.399.031.657 1.895 1.105 4.012 2.082 6.032 2.874a6.057 6.057 0 0 1-.063-.812c0-13.305 2.555-23.027 7.625-28.875.469-.543.895-1 .594-1.656-.176-.387-.547-.625-1-.625zM32.28 18.563c-3.375 10.765-1.972 19.128-1.906 19.5.086.484.523.812 1 .812.059 0 .098.012.156 0a1 1 0 0 0 .813-1.156c-.016-.086-1.36-8.094 1.781-18.313-.164-.039-.34-.07-.5-.125-.492-.164-.922-.437-1.344-.718zm16.594 2.78c-.727 0-2.543 1.356-4.406 2.938-1.02 3.117-1.703 6.727-2.094 10.813 2.309-4.614 5.086-8.578 6.5-10.594.941-1.344 1.082-1.547 1.125-1.906.04-.336-.07-.637-.281-.875a1.274 1.274 0 0 0-.844-.375z"/></svg>