<svg xmlns="http://www.w3.org/2000/svg" viewBox="0 0 595.28 595.28"><path fill="#A1D078" d="M296.84 0L33.1 297.64l263.74 297.64 263.74-297.64L296.84 0zM91.68 297.64L296.84 66.1l205.17 231.54-205.17 231.54L91.68 297.64z"></path><polygon fill="#B4DDC0" points="386.155,277.768 318.535,277.768 297.64,213.458 276.744,277.768 209.125,277.768 263.83,317.515 242.934,381.822 297.64,342.079 352.345,381.822 331.447,317.515"></polygon><path fill="#A6CE39" d="M263.74 0L0 297.64v-66.1L205.17 0h58.57zM0 363.74l205.17 231.54h58.57L0 297.64v66.1zM390.11 0h-58.57l263.74 297.64v-66.1L390.1 0zm0 595.28l205.17-231.54v-66.1L331.54 595.28h58.57z"></path></svg>