<svg xmlns="http://www.w3.org/2000/svg" viewBox="0 0 26 26"><path d="M2.813 6.094a1.003 1.003 0 0 0-.676.484.994.994 0 0 0-.075.828l.844 2.5-1.469 2.188H1c-.602 0-1 .398-1 1v3C0 18.367 1.168 20.008 2.469 21A6.18 6.18 0 0 1 1 21.188c-.398 0-.7.007-1-.094v1.812c.3 0 .602.094 1 .094 1.7 0 2.398-.406 3-.906.898.699 2.2.906 3 .906.8 0 2.102-.207 3-.906.898.699 2.2.906 3 .906.8 0 2.102-.207 3-.906.898.699 2.2.906 3 .906.8 0 2.102-.207 3-.906.898.699 2.2.906 3 .906.398 0 .7-.094 1-.094V21c-.3.102-.602.188-1 .188-.8 0-2.102-.176-3-.875-.734.574-1.723.777-2.5.843 2.918-1.343 5.582-4.062 6.406-7.843.102-.301.106-.614-.093-.813-.2-.3-.512-.406-.813-.406h-3.531L16.78 6.469a.998.998 0 0 0-.78-.375h-4.688a1 1 0 0 0-1 .812l-.437 2.188H7.562L5.845 6.53A1.012 1.012 0 0 0 5 6.094H2.812zm9.312 2H15.5l.844 1h-4.407zm-7.563 3H18l.844 1H3.875zm-1.906 3h16l-.656 1H3zm17.532 1c.398 0 .406.219.406.219v.374s.008.22.406.22.406-.22.406-.22v-.374s.008-.22.407-.22c.3 0 .375.22.375.22S22 15.8 22 16c0 .5-.5.5-.5.5h-1.094s-.593 0-.593-.5v-.688s-.024-.218.375-.218zM4 23.313c-.898.699-2.2.875-3 .875-.398 0-.7.007-1-.094v1.812c.3 0 .602.094 1 .094 1.7 0 2.398-.406 3-.906.898.699 2.2.906 3 .906.8 0 2.102-.207 3-.906.898.699 2.2.906 3 .906.8 0 2.102-.207 3-.906.898.699 2.2.906 3 .906.8 0 2.102-.207 3-.906.898.699 2.2.906 3 .906.398 0 .7-.094 1-.094V24c-.3.102-.602.188-1 .188-.8 0-2.102-.176-3-.875-.898.699-2.2.875-3 .875-.8 0-2.102-.176-3-.875-.898.699-2.2.875-3 .875-.8 0-2.102-.176-3-.875-.898.699-2.2.875-3 .875-.8 0-2.102-.176-3-.875z"/></svg>