<svg xmlns="http://www.w3.org/2000/svg" viewBox="0 0 595.28 595.28"><path fill="#5C2D91" d="M349.63 259.79l-39.76 36.2-39.75-36.2-6.76-6.84a28.47 28.47 0 0 1 .2-40.25 28.66 28.66 0 0 1 40.49.2l5.82 5.88 5.83-5.89a28.66 28.66 0 0 1 40.5-.2 28.47 28.47 0 0 1 .18 40.26l-6.75 6.84zm200.86 98.74a28.46 28.46 0 0 0 .2 40.25 28.66 28.66 0 0 0 40.48-.2l4.1-4.14v-77.38l-38.02 34.63-6.76 6.84zm-503.98 0l-6.75-6.84L0 315.5v77.21l5.83 5.89a28.66 28.66 0 0 0 40.49.2 28.47 28.47 0 0 0 .2-40.26zM310.13 564.4L0 68.9v30.54l310.41 495.83L595.28 110.3V79.08L310.13 564.41zm0-78.77L0-9.84v30.53L310.41 516.5 595.28 31.54V.31L310.13 485.64z"></path></svg>