<svg xmlns="http://www.w3.org/2000/svg" viewBox="0 0 50 50"><path d="M33 .063c-.719 0-1.418.304-1.969.843L31 .875l-5.906 5.844c-.16.097-.29.238-.375.406L.78 30.875v.031a2.827 2.827 0 0 0 0 4L3.906 38a1 1 0 0 0 1.313.094c.86-.688 1.98-1.188 3.093-1.188 2.66 0 4.688 2.125 4.688 4.688a4.49 4.49 0 0 1-1.156 3.031A1 1 0 0 0 11.906 46L15 49.094a2.827 2.827 0 0 0 4 0L26.094 42c.297-.242.433-.629.347-1.004a1.006 1.006 0 0 0-.75-.75 1.004 1.004 0 0 0-1.003.348l-7.094 7.093c-.297.297-.89.297-1.188 0l-2.562-2.562c.68-1.047 1.156-2.234 1.156-3.531 0-3.637-2.945-6.688-6.688-6.688-1.34 0-2.515.516-3.53 1.157L2.218 33.5c-.297-.297-.297-.89 0-1.188l23.406-23.28a1.006 1.006 0 0 0 1.438-1.407l5.343-5.313c.297-.296.89-.296 1.188 0l2.562 2.563c-.61 1-1.062 2.145-1.062 3.438 0 3.636 2.976 6.687 6.718 6.687 1.297 0 2.407-.453 3.407-1.063L47.78 16.5c.297.297.297.89 0 1.188l-5.343 5.343-.032-.031a1.004 1.004 0 0 0-.812-.313.999.999 0 0 0-.594 1.72l.031.03-.125.157a1.004 1.004 0 0 0-.347 1.004c.086.37.379.664.75.75.375.086.761-.051 1.004-.348l.624-.656a1.4 1.4 0 0 0 .094-.063l.094-.062a.472.472 0 0 0 .063-.063l.124-.156c.024-.031.043-.063.063-.094l5.844-5.812a2.827 2.827 0 0 0 0-4L46.094 12a1 1 0 0 0-1.313-.094C43.926 12.59 42.973 13 41.813 13a4.686 4.686 0 0 1-4.72-4.688c0-1.16.41-2.144 1.094-3A1 1 0 0 0 38.094 4L35 .906a2.835 2.835 0 0 0-2-.844zm-4.031 10.062l-.75.5-.032.906.22.281 1.374 1.407.875.281.719-.531.031-.875-.187-.313-1.407-1.375zm4.187 4.188l-.718.53-.032.876.188.312L34 17.438l.844.28.75-.53.031-.875-.188-.313-1.406-1.406zm4.219 4.218l-.719.5-.031.907.188.28 1.406 1.407.843.281.75-.5.032-.906-.219-.281-1.406-1.407zM39 28c-6.063 0-11 4.938-11 11 0 6.063 4.938 11 11 11 6.063 0 11-4.938 11-11 0-6.063-4.938-11-11-11zm0 2c4.98 0 9 4.02 9 9s-4.02 9-9 9-9-4.02-9-9 4.02-9 9-9zm-3.594 4.469c-.043.008-.086.02-.125.031a.994.994 0 0 0-.781.703c-.105.367.004.758.281 1.016L37.563 39l-2.782 2.781a1.014 1.014 0 0 0 0 1.438c.399.398 1.04.398 1.438 0L39 40.437l2.781 2.782c.399.398 1.04.398 1.438 0a1.014 1.014 0 0 0 0-1.438L40.437 39l2.782-2.781a.996.996 0 0 0 .215-1.172.996.996 0 0 0-1.059-.547 1.008 1.008 0 0 0-.594.281L39 37.563l-2.781-2.782a1.004 1.004 0 0 0-.813-.312z"/></svg>