<?xml version="1.0" encoding="utf-8"?>
<!-- Generator: Adobe Illustrator 22.0.1, SVG Export Plug-In . SVG Version: 6.00 Build 0)  -->
<svg version="1.1" xmlns="http://www.w3.org/2000/svg" xmlns:xlink="http://www.w3.org/1999/xlink" x="0px" y="0px"
	 viewBox="0 0 152.618 179.826" enable-background="new 0 0 152.618 179.826" xml:space="preserve">
<g id="BACKGROUND">
</g>
<g id="OBJECTS">
	<g>
		<g>
			<g>
				<path fill="#FFEC50" d="M132.628,166.709c1.327-2.46,2.21-5.809,2.21-10.372c0-4.098,0-13.173,0-24.805
					c0-23.581,0-57.681,0-82.217c0-0.546,0-1.092,0-1.627c0-16.988,0-29.001,0-29.001H63.779v31.773v1.806v47.402
					c0,0,0,9.895-9.895,9.895c-4.366,0-12.986-0.625-22.073,0.442C16.564,111.796,0,118.349,0,140.61
					c0,14.216,4.815,22.301,11.768,26.896c12.362-2.616,35.738-4.382,62.56-4.382C98.327,163.124,119.565,164.538,132.628,166.709z"
					/>
				<path fill="#FFFFFF" d="M48.488,173.428c10.854,0,33.862,0,50.956,0c11.945,0,21.003,0,21.003,0s8.147,0.761,12.182-6.719
					c-13.063-2.171-34.302-3.585-58.3-3.585c-26.823,0-50.199,1.766-62.56,4.382c5.131,3.391,11.424,4.883,17.816,5.517
					C36.178,173.677,42.871,173.428,48.488,173.428z"/>
			</g>
			<path fill="#FFFFFF" d="M148.947,30.173c0,3.979-3.225,7.203-7.202,7.203H56.873c-3.978,0-7.201-3.225-7.201-7.203V7.202
				C49.671,3.226,52.895,0,56.873,0h84.872c3.977,0,7.202,3.226,7.202,7.202V30.173z"/>
			<g>
				<path fill="#77C043" d="M122.207,162.53c-11.813-19.575-5.542-9.691-0.778-13.818c4.764-4.127-14.293-11.868-4.764-13.229
					c9.526-1.361-11.219-16.951-11.23-16.96l0,0l0,0h0l0,0c-0.011,0.009-20.756,15.599-11.23,16.96
					c9.529,1.361-9.528,9.103-4.764,13.229c4.764,4.127,11.035-5.757-0.778,13.818c0,0-2.946,3.057,7.683,2.031
					c5.31-0.513,9.084-1.315,9.089-1.31l0,0l0-0.162l0,0.162l0,0c0.005-0.005,3.78,0.798,9.09,1.31
					C125.153,165.587,122.207,162.53,122.207,162.53z"/>
				<path fill="#EF4431" d="M109.288,125.033c-0.12,0-0.24-0.036-0.341-0.11l-3.512-2.552l-3.512,2.552
					c-0.102,0.074-0.222,0.11-0.341,0.11c-0.12,0-0.24-0.036-0.342-0.11c-0.204-0.147-0.289-0.41-0.211-0.649l1.341-4.129
					l-3.512-2.551c-0.204-0.149-0.289-0.41-0.211-0.65c0.078-0.239,0.301-0.401,0.552-0.401h4.341l1.341-4.129
					c0.078-0.239,0.301-0.401,0.552-0.401c0.252,0,0.475,0.162,0.553,0.401l1.341,4.129h4.341c0.252,0,0.475,0.162,0.552,0.401
					c0.078,0.239-0.007,0.501-0.211,0.65l-3.512,2.551l1.341,4.129c0.078,0.239-0.007,0.502-0.211,0.649
					C109.527,124.997,109.407,125.033,109.288,125.033z"/>
			</g>
			<g>
				<path fill="#77C043" d="M75.807,163.336c-8.188-13.567-3.841-6.717-0.54-9.577c3.302-2.86-9.906-8.226-3.302-9.169
					c6.603-0.943-7.775-11.748-7.783-11.754l0,0l0,0h-0.001l0,0c-0.007,0.006-14.385,10.811-7.783,11.754
					c6.604,0.943-6.604,6.309-3.302,9.169c3.302,2.86,7.648-3.99-0.54,9.577c0,0-2.042,2.118,5.325,1.407
					c3.68-0.355,6.295-0.911,6.299-0.908l0,0l0.001-0.112l-0.001,0.112l0,0c0.004-0.003,2.62,0.553,6.3,0.908
					C77.849,165.454,75.807,163.336,75.807,163.336z"/>
				<path fill="#EF4431" d="M66.684,137.061c-0.078,0-0.155-0.023-0.221-0.071l-2.28-1.656l-2.279,1.656
					c-0.066,0.048-0.144,0.071-0.222,0.071c-0.078,0-0.155-0.023-0.222-0.071c-0.132-0.096-0.188-0.267-0.137-0.422l0.871-2.68
					l-2.279-1.655c-0.132-0.097-0.188-0.267-0.137-0.422c0.05-0.155,0.195-0.26,0.358-0.26h2.818l0.871-2.681
					c0.05-0.155,0.195-0.26,0.358-0.26c0.164,0,0.308,0.105,0.359,0.26l0.871,2.681h2.817c0.164,0,0.308,0.104,0.358,0.26
					c0.051,0.155-0.005,0.325-0.137,0.422l-2.279,1.655l0.87,2.68c0.051,0.155-0.004,0.326-0.137,0.422
					C66.839,137.038,66.761,137.061,66.684,137.061z"/>
			</g>
			<g>
				<path fill="#77C043" d="M38.721,164.819c-5.546-9.19-2.602-4.55-0.365-6.487c2.237-1.938-6.711-5.572-2.237-6.212
					c4.473-0.639-5.267-7.958-5.272-7.962l0,0l0,0h0l0,0c-0.005,0.004-9.745,7.323-5.272,7.962c4.474,0.64-4.474,4.273-2.237,6.212
					c2.237,1.938,5.181-2.703-0.365,6.487c0,0-1.383,1.435,3.607,0.953c2.493-0.24,4.265-0.617,4.267-0.615l0,0l0-0.076l0,0.076l0,0
					c0.003-0.002,1.775,0.375,4.268,0.615C40.104,166.254,38.721,164.819,38.721,164.819z"/>
				<path fill="#EF4431" d="M32.247,146.523c-0.044,0-0.087-0.013-0.124-0.04l-1.276-0.927l-1.276,0.927
					c-0.037,0.027-0.081,0.04-0.124,0.04c-0.044,0-0.087-0.013-0.124-0.04c-0.074-0.054-0.105-0.148-0.077-0.235l0.487-1.5
					l-1.276-0.927c-0.074-0.054-0.105-0.149-0.077-0.236c0.028-0.087,0.109-0.145,0.201-0.145h1.577l0.487-1.5
					c0.028-0.087,0.109-0.146,0.201-0.146c0.092,0,0.172,0.059,0.201,0.146l0.487,1.5h1.577c0.092,0,0.172,0.059,0.201,0.145
					s-0.003,0.183-0.077,0.236l-1.276,0.927l0.487,1.5c0.028,0.087-0.002,0.182-0.077,0.235
					C32.334,146.51,32.29,146.523,32.247,146.523z"/>
			</g>
			<g>
				<path fill="#FFFFFF" d="M127.726,98.138c0-0.576-0.467-1.043-1.043-1.043s-1.043,0.467-1.043,1.043
					c0,0.576,0.467,1.043,1.043,1.043S127.726,98.714,127.726,98.138z"/>
				<path fill="#FFFFFF" d="M116.26,81.46c0-0.576-0.467-1.043-1.043-1.043s-1.043,0.467-1.043,1.043
					c0,0.576,0.467,1.043,1.043,1.043S116.26,82.036,116.26,81.46z"/>
				<path fill="#FFFFFF" d="M96.977,107.519c0-0.576-0.467-1.043-1.043-1.043c-0.576,0-1.043,0.467-1.043,1.043
					c0,0.576,0.467,1.043,1.043,1.043C96.511,108.562,96.977,108.095,96.977,107.519z"/>
				<path fill="#FFFFFF" d="M95.935,86.411c0-0.576-0.467-1.043-1.043-1.043s-1.043,0.467-1.043,1.043
					c0,0.576,0.467,1.043,1.043,1.043S95.935,86.987,95.935,86.411z"/>
				<path fill="#FFFFFF" d="M78.153,98.138c0-0.576-0.467-1.043-1.043-1.043c-0.576,0-1.043,0.467-1.043,1.043
					c0,0.576,0.467,1.043,1.043,1.043C77.686,99.181,78.153,98.714,78.153,98.138z"/>
				<path fill="#FFFFFF" d="M40.001,122.49c0-0.576-0.467-1.043-1.043-1.043c-0.576,0-1.043,0.467-1.043,1.043
					c0,0.576,0.467,1.043,1.043,1.043C39.534,123.533,40.001,123.066,40.001,122.49z"/>
				<path fill="#FFFFFF" d="M50.714,132.098c0-0.576-0.467-1.043-1.043-1.043c-0.576,0-1.043,0.467-1.043,1.043
					c0,0.576,0.467,1.043,1.043,1.043C50.248,133.141,50.714,132.674,50.714,132.098z"/>
				<path fill="#FFFFFF" d="M78.153,120.554c0-0.576-0.467-1.043-1.043-1.043c-0.576,0-1.043,0.467-1.043,1.043
					c0,0.576,0.467,1.043,1.043,1.043C77.686,121.597,78.153,121.13,78.153,120.554z"/>
				<path fill="#FFFFFF" d="M84.47,77.955c0-0.576-0.467-1.043-1.043-1.043c-0.576,0-1.043,0.467-1.043,1.043
					s0.467,1.043,1.043,1.043C84.003,78.998,84.47,78.531,84.47,77.955z"/>
				<path fill="#FFFFFF" d="M126.683,66.087c0-0.576-0.467-1.043-1.043-1.043c-0.576,0-1.043,0.467-1.043,1.043
					s0.467,1.043,1.043,1.043C126.216,67.13,126.683,66.663,126.683,66.087z"/>
				<path fill="#FFFFFF" d="M127.726,127.568c0-0.576-0.467-1.043-1.043-1.043s-1.043,0.467-1.043,1.043
					c0,0.576,0.467,1.043,1.043,1.043S127.726,128.145,127.726,127.568z"/>
				<path fill="#FFFFFF" d="M118.346,109.604c0-0.576-0.467-1.043-1.043-1.043c-0.576,0-1.043,0.467-1.043,1.043
					s0.467,1.043,1.043,1.043C117.879,110.647,118.346,110.181,118.346,109.604z"/>
				<path fill="#FFFFFF" d="M106.477,62.96c0-0.576-0.467-1.043-1.043-1.043c-0.576,0-1.043,0.467-1.043,1.043
					c0,0.576,0.467,1.043,1.043,1.043C106.01,64.003,106.477,63.536,106.477,62.96z"/>
				<path fill="#FFFFFF" d="M74.284,57.747c0-0.576-0.467-1.043-1.043-1.043c-0.576,0-1.043,0.467-1.043,1.043
					c0,0.576,0.467,1.043,1.043,1.043C73.817,58.79,74.284,58.323,74.284,57.747z"/>
				<path fill="#FFFFFF" d="M89.33,49.147c0-0.576-0.467-1.043-1.043-1.043s-1.043,0.467-1.043,1.043
					c0,0.576,0.467,1.043,1.043,1.043S89.33,49.724,89.33,49.147z"/>
				<path fill="#FFFFFF" d="M118.346,49.147c0-0.576-0.467-1.043-1.043-1.043c-0.576,0-1.043,0.467-1.043,1.043
					c0,0.576,0.467,1.043,1.043,1.043C117.879,50.19,118.346,49.724,118.346,49.147z"/>
				<path fill="#FFFFFF" d="M12.811,137.061c0-0.576-0.467-1.043-1.043-1.043c-0.576,0-1.043,0.467-1.043,1.043
					c0,0.576,0.467,1.043,1.043,1.043C12.344,138.105,12.811,137.638,12.811,137.061z"/>
			</g>
		</g>
		<g>
			<path fill="none" stroke="#EF4431" stroke-linecap="round" stroke-linejoin="round" stroke-miterlimit="10" d="M82.358,61.053
				c-1.015,0.868-0.596,2.267,0.496,2.996c1.997,1.333,4.006-0.734,5.514-1.817c5.038-3.618,8.668-8.629,13.392-12.593
				c2.294-1.926,9.507-6.389,10.373-0.487c0.521,3.554-3.495,5.14-6.244,5.638c-6.269,1.135-12.839,1.634-18.316-2.144
				c-1.711-1.18-3.81-2.819-3.49-5.194c0.23-1.709,1.578-3.033,3.486-2.787c4.932,0.636,6.695,8.694,9.359,11.932
				c1.721,2.092,10.272,8.048,9.246,1.48"/>
			<path fill="none" stroke="#EF4431" stroke-linecap="round" stroke-linejoin="round" stroke-miterlimit="10" d="M63.779,52.267
				c0,0,36.462,6.713,71.059,2.292"/>
		</g>
	</g>
</g>
</svg>
