<?xml version="1.0" encoding="utf-8"?>
<!-- Generator: Adobe Illustrator 22.0.1, SVG Export Plug-In . SVG Version: 6.00 Build 0)  -->
<svg version="1.1" xmlns="http://www.w3.org/2000/svg" xmlns:xlink="http://www.w3.org/1999/xlink" x="0px" y="0px"
	 viewBox="0 0 226.242 441.636" enable-background="new 0 0 226.242 441.636" xml:space="preserve">
<g id="Background">
</g>
<g id="Objects">
	<g>
		<g>
			<g>
				<path fill="#A3C035" d="M157.81,96.725l2.319,4.827l3.589,7.498l33.295,69.441l4.413,9.208l8.595,17.919l4.075,8.49
					c0,0,27.523,58.408-0.293,95.369c-3.243,4.309-6.603,8.662-10.086,13.044c-14.73,18.564-31.51,37.55-49.559,54.735
					c-1.401,1.341-2.819,2.671-4.233,3.988c-1.687,1.561-3.383,3.106-5.089,4.635c-0.581,0.52-1.169,1.045-1.755,1.557
					c-1.663,1.471-3.327,2.921-5,4.355c-3.581,3.046-7.201,6.006-10.856,8.867c-13.399,10.509-27.25,19.594-41.266,26.511
					c-2.047,1.182-4.141,2.227-6.264,3.127c-26.274,11.189-57.368,1.258-72.008-24.1c-11.867-20.554-9.549-45.415,3.918-63.227
					l-0.005-0.008l0.036-0.032c0.601-0.804,2.656-2.991,5.557-5.971c5.612-5.763,14.35-14.494,21.724-21.819
					c2.086-2.075,4.066-4.033,5.834-5.793c1.797-1.766,3.374-3.329,4.629-4.565l0.008-0.005c1.932-1.909,3.087-3.055,3.087-3.055
					l0.582-0.575c1.055-1.055,2.074-2.133,3.041-3.246c1.319-1.501,2.563-3.057,3.724-4.662c1.182-1.607,2.276-3.272,3.292-4.978
					c4.84-8.08,7.893-17.107,8.954-26.42c0.09-0.748,0.159-1.495,0.215-2.245c0.236-2.812,0.277-5.641,0.146-8.469
					c-0.037-0.686-0.074-1.371-0.14-2.051c-0.739-9.492-3.561-18.976-8.637-27.769c-0.377-0.652-9.422-16.245-17.577-30.274
					c-1.295-2.243-2.575-4.44-3.798-6.54c-5.126-8.84-9.154-15.78-9.154-15.78L157.81,96.725z"/>
			</g>
			<g>
				<polygon fill="#F94B34" points="128.102,38.263 131.738,45.407 157.81,96.725 33.125,168.711 4.052,119.127 0,112.222 				"/>
			</g>
			<g>
				<g>
					<g>
						<g>
							
								<rect x="15.25" y="131.203" transform="matrix(0.866 -0.5 0.5 0.866 -64.5024 26.8376)" fill="#F5EEE6" width="5.157" height="5.157"/>
						</g>
						<g>
							
								<rect x="20.407" y="140.136" transform="matrix(0.866 -0.5 0.5 0.866 -68.2778 30.6129)" fill="#F5EEE6" width="5.157" height="5.157"/>
						</g>
						<g>
							
								<rect x="24.182" y="126.046" transform="matrix(0.866 -0.5 0.5 0.866 -60.7271 30.6129)" fill="#F5EEE6" width="5.157" height="5.157"/>
						</g>
						<g>
							
								<rect x="29.34" y="134.979" transform="matrix(0.866 -0.5 0.5 0.866 -64.5024 34.3882)" fill="#F5EEE6" width="5.157" height="5.157"/>
						</g>
						<g>
							
								<rect x="22.295" y="133.091" transform="matrix(0.866 -0.5 0.5 0.866 -64.5024 30.6129)" fill="#F5EEE6" width="5.157" height="5.157"/>
						</g>
					</g>
					<g>
						<g>
							
								<rect x="33.766" y="120.513" transform="matrix(0.866 -0.5 0.5 0.866 -56.6766 34.6634)" fill="#F5EEE6" width="5.157" height="5.157"/>
						</g>
						<g>
							
								<rect x="38.923" y="129.446" transform="matrix(0.866 -0.5 0.5 0.866 -60.4519 38.4387)" fill="#F5EEE6" width="5.157" height="5.157"/>
						</g>
						<g>
							
								<rect x="42.698" y="115.356" transform="matrix(0.866 -0.5 0.5 0.866 -52.9013 38.4387)" fill="#F5EEE6" width="5.157" height="5.157"/>
						</g>
						<g>
							
								<rect x="47.856" y="124.288" transform="matrix(0.866 -0.5 0.5 0.866 -56.6766 42.2141)" fill="#F5EEE6" width="5.157" height="5.157"/>
						</g>
						<g>
							
								<rect x="40.811" y="122.401" transform="matrix(0.866 -0.5 0.5 0.866 -56.6766 38.4387)" fill="#F5EEE6" width="5.157" height="5.157"/>
						</g>
					</g>
					<g>
						<g>
							
								<rect x="52.282" y="109.823" transform="matrix(0.866 -0.5 0.5 0.866 -48.8508 42.4892)" fill="#F5EEE6" width="5.157" height="5.157"/>
						</g>
						<g>
							
								<rect x="57.439" y="118.755" transform="matrix(0.866 -0.5 0.5 0.866 -52.6261 46.2646)" fill="#F5EEE6" width="5.157" height="5.157"/>
						</g>
						<g>
							
								<rect x="61.214" y="104.666" transform="matrix(0.866 -0.5 0.5 0.866 -45.0755 46.2646)" fill="#F5EEE6" width="5.157" height="5.157"/>
						</g>
						<g>
							
								<rect x="66.372" y="113.598" transform="matrix(0.866 -0.5 0.5 0.866 -48.8508 50.0399)" fill="#F5EEE6" width="5.157" height="5.157"/>
						</g>
						<g>
							
								<rect x="59.327" y="111.711" transform="matrix(0.866 -0.5 0.5 0.866 -48.8508 46.2646)" fill="#F5EEE6" width="5.157" height="5.157"/>
						</g>
					</g>
					<g>
						<g>
							
								<rect x="70.798" y="99.133" transform="matrix(0.866 -0.5 0.5 0.866 -41.025 50.3151)" fill="#F5EEE6" width="5.157" height="5.157"/>
						</g>
						<g>
							
								<rect x="75.955" y="108.065" transform="matrix(0.866 -0.5 0.5 0.866 -44.8003 54.0904)" fill="#F5EEE6" width="5.157" height="5.157"/>
						</g>
						<g>
							
								<rect x="79.731" y="93.975" transform="matrix(0.866 -0.5 0.5 0.866 -37.2497 54.0904)" fill="#F5EEE6" width="5.157" height="5.157"/>
						</g>
						<g>
							
								<rect x="84.888" y="102.908" transform="matrix(0.866 -0.5 0.5 0.866 -41.025 57.8657)" fill="#F5EEE6" width="5.157" height="5.157"/>
						</g>
						<g>
							
								<rect x="77.843" y="101.02" transform="matrix(0.866 -0.5 0.5 0.866 -41.025 54.0904)" fill="#F5EEE6" width="5.157" height="5.157"/>
						</g>
					</g>
					<g>
						<g>
							
								<rect x="89.314" y="88.442" transform="matrix(0.866 -0.5 0.5 0.866 -33.1992 58.1409)" fill="#F5EEE6" width="5.157" height="5.157"/>
						</g>
						<g>
							
								<rect x="94.471" y="97.375" transform="matrix(0.866 -0.5 0.5 0.866 -36.9745 61.9162)" fill="#F5EEE6" width="5.157" height="5.157"/>
						</g>
						<g>
							
								<rect x="98.247" y="83.285" transform="matrix(0.866 -0.5 0.5 0.866 -29.4239 61.9162)" fill="#F5EEE6" width="5.157" height="5.157"/>
						</g>
						<g>
							
								<rect x="103.404" y="92.218" transform="matrix(0.866 -0.5 0.5 0.866 -33.1992 65.6915)" fill="#F5EEE6" width="5.157" height="5.157"/>
						</g>
						<g>
							
								<rect x="96.359" y="90.33" transform="matrix(0.866 -0.5 0.5 0.866 -33.1992 61.9162)" fill="#F5EEE6" width="5.157" height="5.157"/>
						</g>
					</g>
					<g>
						<g>
							
								<rect x="107.83" y="77.752" transform="matrix(0.866 -0.5 0.5 0.866 -25.3734 65.9667)" fill="#F5EEE6" width="5.157" height="5.157"/>
						</g>
						<g>
							
								<rect x="112.987" y="86.685" transform="matrix(0.866 -0.5 0.5 0.866 -29.1487 69.742)" fill="#F5EEE6" width="5.157" height="5.157"/>
						</g>
						<g>
							
								<rect x="116.763" y="72.595" transform="matrix(0.866 -0.5 0.5 0.866 -21.5981 69.742)" fill="#F5EEE6" width="5.157" height="5.157"/>
						</g>
						<g>
							
								<rect x="121.92" y="81.527" transform="matrix(0.866 -0.5 0.5 0.866 -25.3734 73.5173)" fill="#F5EEE6" width="5.157" height="5.157"/>
						</g>
						<g>
							
								<rect x="114.875" y="79.64" transform="matrix(0.866 -0.5 0.5 0.866 -25.3734 69.742)" fill="#F5EEE6" width="5.157" height="5.157"/>
						</g>
					</g>
					<g>
						<g>
							
								<rect x="126.346" y="67.062" transform="matrix(0.866 -0.5 0.5 0.866 -17.5476 73.7925)" fill="#F5EEE6" width="5.157" height="5.157"/>
						</g>
						<g>
							
								<rect x="131.503" y="75.994" transform="matrix(0.866 -0.5 0.5 0.866 -21.3229 77.5678)" fill="#F5EEE6" width="5.157" height="5.157"/>
						</g>
						<g>
							
								<rect x="135.279" y="61.905" transform="matrix(0.866 -0.5 0.5 0.866 -13.7723 77.5678)" fill="#F5EEE6" width="5.157" height="5.157"/>
						</g>
						<g>
							
								<rect x="140.436" y="70.837" transform="matrix(0.866 -0.5 0.5 0.866 -17.5476 81.3431)" fill="#F5EEE6" width="5.157" height="5.157"/>
						</g>
						<g>
							
								<rect x="133.391" y="68.95" transform="matrix(0.866 -0.5 0.5 0.866 -17.5476 77.5678)" fill="#F5EEE6" width="5.157" height="5.157"/>
						</g>
					</g>
				</g>
				<g>
					
						<rect x="16.012" y="118.495" transform="matrix(0.866 -0.5 0.5 0.866 -48.1036 60.2672)" fill="#F5EEE6" width="144.792" height="2.803"/>
				</g>
				<g>
					
						<rect x="-1.18" y="88.471" transform="matrix(0.866 -0.5 0.5 0.866 -35.2727 48.1057)" fill="#F5EEE6" width="146.621" height="2.803"/>
				</g>
			</g>
			<g>
				<path fill="#25A3B3" d="M210.021,205.617l4.075,8.49c0,0,27.523,58.408-0.293,95.369c-3.243,4.309-6.603,8.662-10.086,13.044
					C188.031,295.069,168.277,243.769,210.021,205.617z"/>
			</g>
			<g>
				<path fill="#25A3B3" d="M67.07,377.271c10.586,18.335,14.754,37.722,12.626,53.023c-26.274,11.189-57.368,1.258-72.008-24.1
					c-11.867-20.554-9.549-45.415,3.918-63.227l-0.005-0.008l0.036-0.032c0.601-0.804,2.656-2.991,5.557-5.971
					C34.405,339.493,53.918,354.49,67.07,377.271z"/>
			</g>
			<g>
				<g>
					<path fill="#F5EEE6" d="M87.38,420.92c-0.103,0.059-0.212,0.11-0.328,0.15l-12.918,4.467c-0.983,0.34-2.055-0.181-2.396-1.164
						c-0.341-0.984,0.185-2.053,1.164-2.396l12.918-4.467c0.983-0.34,2.055,0.181,2.396,1.164
						C88.517,419.542,88.146,420.478,87.38,420.92z"/>
				</g>
				<g>
					<path fill="#F5EEE6" d="M71.407,404.453c-0.883,0.51-2.015,0.225-2.549-0.65c-0.542-0.888-0.261-2.047,0.627-2.589
						l11.667-7.121c0.849-0.57,2.047-0.262,2.589,0.626c0.542,0.888,0.261,2.047-0.627,2.589l-11.667,7.121
						C71.434,404.437,71.42,404.445,71.407,404.453z"/>
				</g>
				<g>
					<path fill="#F5EEE6" d="M60.111,378.829c-0.831,0.48-1.906,0.258-2.474-0.54c-0.604-0.847-0.406-2.023,0.441-2.627
						l11.132-7.932c0.852-0.598,2.023-0.407,2.627,0.441c0.604,0.847,0.406,2.023-0.441,2.627l-11.132,7.932
						C60.215,378.766,60.164,378.799,60.111,378.829z"/>
				</g>
			</g>
			<g>
				<g>
					<path fill="#F5EEE6" d="M201.39,299.985c-0.117,0.068-0.243,0.124-0.378,0.166l-13.037,4.106
						c-0.992,0.313-2.049-0.239-2.362-1.231c-0.313-0.992,0.233-2.054,1.231-2.362l13.037-4.106
						c0.992-0.313,2.049,0.239,2.362,1.231C202.513,298.647,202.138,299.553,201.39,299.985z"/>
				</g>
				<g>
					<path fill="#F5EEE6" d="M193.82,275.414c-0.229,0.132-0.491,0.219-0.771,0.244l-13.613,1.23
						c-1.037,0.093-1.953-0.671-2.046-1.706c-0.092-1.037,0.676-1.951,1.706-2.046l13.613-1.23c1.037-0.093,1.953,0.671,2.046,1.706
						C194.823,274.368,194.436,275.059,193.82,275.414z"/>
				</g>
				<g>
					<path fill="#F5EEE6" d="M191.66,251.371c-0.267,0.154-0.575,0.245-0.904,0.251l-13.666,0.259c-1.04,0.02-1.9-0.807-1.919-1.847
						c-0.018-1.04,0.807-1.899,1.847-1.919l13.666-0.259c1.04-0.02,1.9,0.807,1.919,1.847
						C192.616,250.413,192.235,251.039,191.66,251.371z"/>
				</g>
				<g>
					<path fill="#F5EEE6" d="M197.953,230.936c-0.542,0.313-1.229,0.349-1.824,0.034l-12.083-6.391
						c-0.92-0.486-1.271-1.626-0.784-2.545c0.486-0.921,1.626-1.271,2.545-0.784l12.083,6.391c0.92,0.486,1.271,1.626,0.784,2.545
						C198.503,230.511,198.249,230.765,197.953,230.936z"/>
				</g>
			</g>
			<g>
				<path fill="#F5EEE6" d="M23.37,347.599c-0.652,0.376-1.494,0.338-2.117-0.159c-0.813-0.649-0.947-1.835-0.298-2.648
					l8.525-10.684c0.65-0.813,1.835-0.946,2.647-0.297c0.813,0.649,0.947,1.835,0.298,2.648L23.9,347.143
					C23.749,347.332,23.568,347.485,23.37,347.599z"/>
			</g>
			<g>
				<path fill="#F5EEE6" d="M44.933,360.13c-0.652,0.376-1.494,0.338-2.117-0.159c-0.813-0.649-0.947-1.835-0.298-2.648
					l8.525-10.684c0.65-0.813,1.835-0.946,2.647-0.297c0.813,0.649,0.947,1.835,0.298,2.648l-8.525,10.684
					C45.312,359.862,45.131,360.015,44.933,360.13z"/>
			</g>
			<g>
				<g>
					<g>
						<g>
							<g>
								<polygon fill="#F5EEE6" points="159.231,161.356 162.173,150.376 156.24,140.1 153.428,150.595 								"/>
							</g>
							<g>
								<polygon fill="#F5EEE6" points="157.052,162.614 146.072,159.672 140.139,149.396 150.634,152.208 								"/>
							</g>
						</g>
						<g>
							<g>
								<polygon fill="#F5EEE6" points="162.73,167.417 173.71,170.359 179.643,180.635 169.148,177.823 								"/>
							</g>
							<g>
								<polygon fill="#F5EEE6" points="160.552,168.675 157.61,179.655 163.542,189.931 166.355,179.436 								"/>
							</g>
						</g>
					</g>
					<g>
						<g>
							<g>
								<polygon fill="#F5EEE6" points="163.551,164.355 174.531,167.297 184.807,161.364 174.312,158.552 								"/>
							</g>
							<g>
								<polygon fill="#F5EEE6" points="162.293,162.177 165.235,151.196 175.511,145.264 172.699,155.758 								"/>
							</g>
						</g>
						<g>
							<g>
								<polygon fill="#F5EEE6" points="157.489,167.854 154.547,178.835 144.271,184.767 147.083,174.273 								"/>
							</g>
							<g>
								<polygon fill="#F5EEE6" points="156.232,165.676 145.252,162.734 134.976,168.667 145.47,171.479 								"/>
							</g>
						</g>
					</g>
				</g>
				<g>
					<g>
						<g>
							<g>
								<polygon fill="#F5EEE6" points="89.19,201.794 92.132,190.814 86.2,180.538 83.388,191.032 								"/>
							</g>
							<g>
								<polygon fill="#F5EEE6" points="87.012,203.051 76.032,200.109 70.099,189.833 80.594,192.645 								"/>
							</g>
						</g>
						<g>
							<g>
								<polygon fill="#F5EEE6" points="92.69,207.855 103.67,210.797 109.603,221.073 99.108,218.261 								"/>
							</g>
							<g>
								<polygon fill="#F5EEE6" points="90.512,209.113 87.569,220.093 93.502,230.369 96.314,219.874 								"/>
							</g>
						</g>
					</g>
					<g>
						<g>
							<g>
								<polygon fill="#F5EEE6" points="93.51,204.793 104.491,207.735 114.767,201.802 104.272,198.99 								"/>
							</g>
							<g>
								<polygon fill="#F5EEE6" points="92.253,202.614 95.195,191.634 105.471,185.701 102.659,196.196 								"/>
							</g>
						</g>
						<g>
							<g>
								<polygon fill="#F5EEE6" points="87.449,208.292 84.507,219.272 74.231,225.205 77.043,214.71 								"/>
							</g>
							<g>
								<polygon fill="#F5EEE6" points="86.191,206.114 75.211,203.172 64.935,209.105 75.43,211.917 								"/>
							</g>
						</g>
					</g>
				</g>
				<g>
					<g>
						
							<rect x="115.042" y="182.19" transform="matrix(0.866 -0.5 0.5 0.866 -76.5033 83.352)" fill="#F94B34" width="4.487" height="4.487"/>
					</g>
					<g>
						
							<rect x="119.529" y="189.961" transform="matrix(0.866 -0.5 0.5 0.866 -79.7878 86.6366)" fill="#F94B34" width="4.487" height="4.487"/>
					</g>
					<g>
						
							<rect x="122.813" y="177.703" transform="matrix(0.866 -0.5 0.5 0.866 -73.2188 86.6366)" fill="#F94B34" width="4.487" height="4.487"/>
					</g>
					<g>
						
							<rect x="127.3" y="185.474" transform="matrix(0.866 -0.5 0.5 0.866 -76.5033 89.9211)" fill="#F94B34" width="4.487" height="4.487"/>
					</g>
					<g>
						
							<rect x="121.171" y="183.832" transform="matrix(0.866 -0.5 0.5 0.866 -76.5033 86.6366)" fill="#F94B34" width="4.487" height="4.487"/>
					</g>
				</g>
			</g>
			<g>
				<g>
					<path fill="#F5EEE6" d="M194.188,173.597l4.413,9.208c-0.139,2.038-0.097,4.428-0.075,6.199
						c0.105,6.247,0.201,12.705-3.927,15.839c-4.31,3.271-10.693,1.389-16.858-0.435c-2.694-0.805-8.278-2.453-9.526-1.732
						l-0.041,0.024c-1.412,0.946-2.009,6.673-2.373,10.092c-0.676,6.458-1.323,12.552-5.749,15.151l-0.049,0.028
						c-4.722,2.727-10.855,0.09-16.798-2.46c-2.746-1.177-7.86-3.368-9.138-2.793c-1.592,0.821-2.881,6.557-3.654,9.983
						c-1.394,6.231-2.698,12.128-7.281,14.155c-5.208,2.3-11.181-1.114-16.957-4.413c-2.609-1.506-6.987-4.003-8.304-3.721
						c-2.121,0.79-4.113,6.551-5.45,10.357c-1.972,5.663-3.828,11.019-8.212,12.354c-5.113,1.56-8.946,0.271-11.925-1.837
						c0.236-2.812,0.277-5.641,0.146-8.469c-0.037-0.686-0.074-1.371-0.14-2.051c0.144,0.156,0.276,0.308,0.407,0.461
						c3.708,4.275,5.48,5.819,9.187,4.723c1.04-0.818,2.53-5.093,3.426-7.666c2.11-6.047,4.504-12.899,9.944-14.93
						c4.386-1.651,9.377,1.209,14.668,4.234c3.155,1.811,8.434,4.831,10.156,4.066c1.159-0.724,2.35-6.044,2.993-8.905
						c1.379-6.201,2.809-12.595,7.569-15.049c4.339-2.222,9.775,0.109,15.531,2.583c3.019,1.291,8.614,3.694,10.066,2.856
						c0.008-0.005,0.008-0.005,0.008-0.005c1.159-0.8,1.771-6.634,2.067-9.436c0.656-6.229,1.333-12.667,5.673-15.564
						c4.143-2.751,9.831-1.054,15.893,0.742c3.106,0.915,8.905,2.634,10.172,1.664c1.086-0.888,0.989-6.857,0.944-9.723
						C190.899,183.195,190.806,177.082,194.188,173.597z"/>
				</g>
			</g>
			<g>
				<g>
					<path fill="#25A3B3" d="M197.013,178.49l4.413,9.208c-0.139,2.038-0.097,4.428-0.075,6.199
						c0.105,6.247,0.201,12.705-3.927,15.839c-4.31,3.271-10.693,1.389-16.858-0.435c-2.694-0.805-8.278-2.453-9.526-1.732
						L171,207.592c-1.412,0.946-2.009,6.673-2.373,10.092c-0.676,6.458-1.323,12.552-5.749,15.151l-0.049,0.028
						c-4.722,2.727-10.855,0.09-16.798-2.46c-2.746-1.177-7.86-3.368-9.138-2.793c-1.592,0.821-2.881,6.557-3.654,9.983
						c-1.394,6.231-2.698,12.128-7.281,14.154c-5.208,2.3-11.181-1.114-16.957-4.413c-2.609-1.506-6.987-4.003-8.304-3.721
						c-2.121,0.79-4.113,6.551-5.45,10.357c-1.972,5.663-3.828,11.019-8.212,12.354c-7.052,2.157-11.683-1.117-14.966-4.486
						c0.412-3.544,0.53-7.125,0.361-10.714c1.166,1.078,2.182,2.253,3.093,3.304c3.708,4.275,5.48,5.819,9.187,4.723
						c1.04-0.818,2.53-5.093,3.426-7.666c2.11-6.046,4.504-12.899,9.944-14.93c4.386-1.651,9.377,1.209,14.668,4.234
						c3.155,1.811,8.434,4.831,10.156,4.066c1.159-0.724,2.35-6.044,2.993-8.905c1.379-6.201,2.809-12.595,7.569-15.049
						c4.339-2.222,9.775,0.109,15.531,2.583c3.019,1.291,8.614,3.694,10.066,2.856c0.008-0.005,0.008-0.005,0.008-0.005
						c1.159-0.8,1.771-6.634,2.067-9.436c0.656-6.229,1.333-12.667,5.673-15.564c4.143-2.751,9.831-1.054,15.893,0.742
						c3.106,0.915,8.905,2.634,10.172,1.664c1.086-0.888,0.989-6.857,0.944-9.723C193.724,188.089,193.632,181.976,197.013,178.49z"
						/>
				</g>
			</g>
			<g>
				<g>
					<path fill="#F5EEE6" d="M157.945,97.768l3.589,7.498c-1.866-0.162-3.495-0.157-4.024,0.301c-1.244,1.066-1.156,6.757-1.1,10.15
						c0.094,6.21,0.198,12.642-3.911,15.754c-4.294,3.262-10.643,1.381-16.782-0.436c-2.676-0.793-8.227-2.439-9.475-1.718
						l-0.041,0.024c-1.395,0.936-1.998,6.635-2.359,10.04c-0.674,6.424-1.314,12.492-5.72,15.069l-0.049,0.028
						c-4.698,2.712-10.809,0.096-16.72-2.439c-2.733-1.174-7.814-3.362-9.087-2.78c-1.584,0.817-2.87,6.518-3.632,9.927
						c-1.387,6.206-2.681,12.064-7.248,14.081c-5.187,2.299-11.121-1.105-16.867-4.388c-2.6-1.49-6.952-3.979-8.268-3.698
						c-2.1,0.789-4.09,6.516-5.415,10.304c-1.772,5.068-3.449,9.886-6.944,11.763c-1.295-2.243-2.575-4.44-3.798-6.54
						c0.088-0.018,0.17-0.044,0.253-0.07c1.031-0.813,2.523-5.067,3.416-7.627c2.099-6.008,4.479-12.83,9.889-14.855
						c4.362-1.637,9.33,1.204,14.591,4.213c3.138,1.799,8.398,4.808,10.112,4.047c1.151-0.719,2.335-6.014,2.966-8.857
						c1.372-6.175,2.8-12.535,7.536-14.976c4.323-2.213,9.728,0.104,15.453,2.562c2.997,1.293,8.576,3.684,10.019,2.85l0.008-0.005
						c1.151-0.795,1.756-6.603,2.048-9.393c0.653-6.195,1.328-12.599,5.653-15.487c4.118-2.737,9.781-1.047,15.804,0.739
						c3.097,0.92,8.866,2.624,10.125,1.658c1.086-0.888,0.987-6.823,0.943-9.669c-0.093-6.189-0.199-12.587,3.701-15.948
						C154.092,98.611,155.899,97.992,157.945,97.768z"/>
				</g>
			</g>
			<g>
				<g>
					<path fill="#25A3B3" d="M160.129,101.552l3.589,7.498c-1.866-0.162-3.495-0.157-4.024,0.301
						c-1.244,1.066-1.156,6.757-1.1,10.15c0.094,6.21,0.198,12.642-3.911,15.754c-4.294,3.262-10.643,1.381-16.782-0.436
						c-2.676-0.793-8.227-2.439-9.475-1.718l-0.041,0.024c-1.395,0.936-1.998,6.635-2.359,10.04
						c-0.673,6.424-1.314,12.492-5.72,15.069l-0.049,0.028c-4.698,2.712-10.809,0.096-16.72-2.439
						c-2.733-1.174-7.814-3.362-9.087-2.78c-1.584,0.817-2.87,6.518-3.632,9.927c-1.387,6.206-2.681,12.064-7.248,14.081
						c-5.187,2.299-11.121-1.105-16.867-4.388c-2.6-1.49-6.952-3.979-8.268-3.698c-2.1,0.789-4.09,6.516-5.415,10.304
						c-1.772,5.068-3.449,9.886-6.944,11.763c-1.295-2.243-2.575-4.44-3.798-6.54c0.088-0.018,0.17-0.044,0.253-0.07
						c1.031-0.813,2.523-5.067,3.416-7.627c2.099-6.008,4.479-12.83,9.889-14.855c4.362-1.637,9.33,1.204,14.591,4.213
						c3.138,1.799,8.398,4.808,10.112,4.047c1.151-0.719,2.335-6.014,2.966-8.857c1.372-6.175,2.8-12.535,7.536-14.976
						c4.323-2.213,9.728,0.104,15.453,2.562c2.997,1.293,8.576,3.684,10.019,2.85l0.008-0.005c1.151-0.795,1.756-6.603,2.048-9.393
						c0.653-6.195,1.328-12.599,5.653-15.487c4.118-2.737,9.781-1.047,15.804,0.739c3.097,0.92,8.866,2.624,10.125,1.658
						c1.086-0.888,0.987-6.823,0.943-9.669c-0.093-6.189-0.199-12.587,3.701-15.948
						C156.277,102.395,158.083,101.776,160.129,101.552z"/>
				</g>
			</g>
			<g>
				<path fill="#F5EEE6" d="M149.925,381.243c-1.687,1.561-3.383,3.106-5.089,4.635c-0.581,0.52-1.169,1.045-1.755,1.557
					c-1.663,1.471-3.327,2.921-5,4.355c-14.118-30.499-43.504-66.385-93.329-82.445c1.797-1.766,3.374-3.329,4.629-4.565
					l0.008-0.005c1.932-1.909,3.087-3.055,3.087-3.055l0.582-0.575c1.055-1.055,2.074-2.133,3.041-3.246
					c1.319-1.501,2.563-3.057,3.724-4.662C80.282,304.393,134.157,337.244,149.925,381.243z"/>
			</g>
			<g>
				<path fill="#25A3B3" d="M144.836,385.877c-5.762,5.164-11.638,10.112-17.611,14.779c-29.77-52.543-67.913-76.076-88.307-85.519
					c1.935-1.922,3.783-3.75,5.448-5.407c4.776-4.725,8.11-8.01,8.11-8.01l0.582-0.575c0.426-0.431,0.851-0.861,1.264-1.295
					c0.607-0.644,1.201-1.292,1.777-1.951C110.951,326.565,135.25,361.005,144.836,385.877z"/>
			</g>
			<g>
				<path fill="#F94B34" d="M56.491,302.175c1.973,3.417,0.801,7.792-2.625,9.769c-3.279,1.893-7.436,0.889-9.5-2.215
					c4.776-4.725,8.11-8.01,8.11-8.01l0.582-0.575c0.426-0.431,0.851-0.861,1.264-1.295
					C55.192,300.434,55.935,301.213,56.491,302.175z"/>
			</g>
			<g>
				<circle fill="#F94B34" cx="67.81" cy="316.885" r="7.156"/>
			</g>
			<g>
				<circle fill="#F94B34" cx="86.319" cy="331.99" r="7.156"/>
			</g>
			<g>
				<circle fill="#F94B34" cx="102.905" cy="346.407" r="7.156"/>
			</g>
			<g>
				<circle fill="#F94B34" cx="117.686" cy="364.789" r="7.156"/>
			</g>
			<g>
				<circle fill="#F94B34" cx="132.138" cy="384.641" r="7.156"/>
			</g>
		</g>
		<path fill="#F94B34" d="M119.093,48.595c0,0-34.387-36.629-8.609-45.105c21.193-6.969,13.454,43.329,13.454,43.329l-1.225,0.403
			c0,0,0.411-40.783-12.061-36.682c-2.151,0.707-9.219,4.553,9.602,37.673L119.093,48.595z"/>
	</g>
</g>
</svg>
