<svg xmlns="http://www.w3.org/2000/svg" viewBox="0 0 595.28 595.28"><path fill="#00AB4E" d="M534.36 72.08h64.76v36.07h-64.76V72.08zm-132.93 36.07h66.46V72.08h-66.46v36.07zm-199.4-36.07h-66.46v36.07h66.46V72.08zm132.94 0H268.5v36.07h66.47V72.08zm-265.87 0H3.85v36.07H69.1V72.08zM534.36 515.5h64.76v-36.08h-64.76v36.08zm-132.93 0h66.46v-36.08h-66.46v36.08zm-199.4-36.08h-66.46v36.08h66.46v-36.08zm132.94 0H268.5v36.08h66.47v-36.08zm-265.87 0H3.85v36.08H69.1v-36.08zM9.48 387.8c83.78-39.6 102.86-67.48 106.4-74.05a77.8 77.8 0 0 0 5.15-9.16c17.46-36.74 2.06-80.88-34.33-98.76a73.67 73.67 0 0 0-32.6-7.57 75.02 75.02 0 0 0-50.25 19.52v27.36c3.37 0 6.75-1.38 8.86-4.14a52.44 52.44 0 0 1 41.4-20.4c7.67 0 15.12 1.67 21.91 4.87l.1.05.28.14c25.78 12.36 36.75 43.47 24.46 69.33a54.45 54.45 0 0 1-3.9 6.87c-.38.56-.7 1.14-.97 1.76-.1.23-13.47 24.36-92.14 62.12v23.58h.04c2 0 3.92-.54 5.58-1.52zm399.1-88.05a63.25 63.25 0 0 0-29.71-84.2v-.03c-.03-.06-.06-.06-.11-.06-.06 0-.06 0-.11-.03a63.26 63.26 0 0 0-77.16 18.74 63.26 63.26 0 0 0-77.17-18.73l-.1.02c-.06 0-.09 0-.11.06v.02a63.27 63.27 0 0 0-29.72 84.21 64.99 64.99 0 0 0 4.72 8.29s11.96 27.4 102.3 69.99l.08.17.07-.17c90.35-42.58 102.3-70 102.3-70a64.86 64.86 0 0 0 4.72-8.28zM517.8 205.1c-.54.2-1.06.45-1.55.73-36.39 17.89-51.79 62.02-34.3 98.77a77.11 77.11 0 0 0 5.14 9.15c3.54 6.56 22.57 34.38 106.12 73.92a11.4 11.4 0 0 0 5.9 1.66v-23.59c-78.56-37.72-92.12-62.12-92.14-62.12a11.4 11.4 0 0 0-.96-1.76 53.98 53.98 0 0 1-3.9-6.86c-12.3-25.87-1.34-56.98 24.45-69.35a51.53 51.53 0 0 1 22.3-5.06c16.13 0 31.6 7.63 41.39 20.41a11.1 11.1 0 0 0 8.86 4.14v-27.36a75.03 75.03 0 0 0-50.25-19.52 73.85 73.85 0 0 0-31.06 6.84z"></path></svg>