<svg xmlns="http://www.w3.org/2000/svg" viewBox="0 0 40 40"><path d="M10.098 34.5l-3.48-1.426c-.263-.074-4.903-1.39-5.11-8.574h36.984c-.207 7.168-4.847 8.496-5.047 8.55l-4.523 1.49z" fill="#98ccfd"/><path d="M37.969 25c-.39 6.313-4.473 7.52-4.649 7.566l-.03.008-.032.012-4.418 1.453L10.2 34l-3.391-1.39-.063-.024-.059-.016c-.183-.05-4.265-1.246-4.656-7.57H37.97M39 24H1c0 8.14 5.43 9.535 5.43 9.535L10 35l19 .04 4.57-1.505S39 32.121 39 24z" fill="#4788c7"/><path d="M30.5 24h-10l-2 3h10z" fill="#98ccfd"/><path d="M26.5 6a3.5 3.5 0 1 1-7 0 3.5 3.5 0 1 1 7 0z" fill="#dff0fe"/><path d="M23 3c1.652 0 3 1.348 3 3s-1.348 3-3 3-3-1.348-3-3 1.348-3 3-3m0-1c-2.21 0-4 1.79-4 4s1.79 4 4 4 4-1.79 4-4-1.79-4-4-4z" fill="#4788c7"/><path d="M32 18L16 34" fill="none" stroke="#4788c7" stroke-miterlimit="10"/><path d="M8.96 24.5l4.337-10.395a4.043 4.043 0 0 1 3.765-2.543c.54 0 1.067.11 1.57.317l13.466 3.793a1.956 1.956 0 0 1 1.265 2.43 1.94 1.94 0 0 1-1.87 1.386c-.2 0-.4-.027-.59-.09l-9.715-2.734L18.07 24.5z" fill="#b6dcfe"/><path d="M17.063 12.066c.472 0 .937.09 1.378.278l.055.02.059.019 13.379 3.758a1.466 1.466 0 0 1 .953 1.816 1.463 1.463 0 0 1-1.867.953l-9.262-2.605-.867-.246-.332.84L17.73 24H9.715l4.047-9.71a3.541 3.541 0 0 1 3.3-2.224m0-1a4.552 4.552 0 0 0-4.226 2.848L8.215 25H18.41l3.078-7.734 9.262 2.609a2.457 2.457 0 0 0 1.484-4.688l-13.41-3.769a4.588 4.588 0 0 0-1.762-.352z" fill="#4788c7"/><path d="M1 39h38v-6.121c-1.309-.266-2.852-.879-4-.879-1.457 0-3.563 1-5 1-1.438 0-3.543-1-5-1-1.457 0-3.563 1-5 1-1.438 0-3.543-1-5-1-1.457 0-3.563 1-5 1-1.438 0-3.543-1-5-1-1.148 0-2.691.613-4 .879z" fill="#b6dcfe"/><path d="M1.5 33.277c.363-.086.738-.191 1.113-.297.848-.234 1.723-.48 2.387-.48.664 0 1.535.246 2.383.484.898.254 1.832.516 2.617.516.785 0 1.719-.262 2.617-.516.848-.238 1.719-.484 2.383-.484.664 0 1.535.246 2.383.484.898.254 1.832.516 2.617.516.785 0 1.719-.262 2.617-.516.848-.238 1.719-.484 2.383-.484.664 0 1.535.246 2.383.484.898.254 1.832.516 2.617.516.785 0 1.719-.262 2.617-.516.848-.238 1.719-.484 2.383-.484.664 0 1.54.246 2.387.48.375.106.75.211 1.113.297" fill="none" stroke-linecap="round" stroke="#4788c7" stroke-miterlimit="10"/><path d="M32.5 25h-3a.504.504 0 0 1-.5-.5c0-.273.227-.5.5-.5h3c.273 0 .5.227.5.5s-.227.5-.5.5zm-11 0h-3a.504.504 0 0 1-.5-.5c0-.273.227-.5.5-.5h3c.273 0 .5.227.5.5s-.227.5-.5.5z" fill="#4788c7"/></svg>