<?xml version="1.0" encoding="utf-8"?>
<!-- Generator: Adobe Illustrator 22.0.1, SVG Export Plug-In . SVG Version: 6.00 Build 0)  -->
<svg version="1.1" xmlns="http://www.w3.org/2000/svg" xmlns:xlink="http://www.w3.org/1999/xlink" x="0px" y="0px"
	 viewBox="0 0 226.242 435.69" enable-background="new 0 0 226.242 435.69" xml:space="preserve">
<g id="Background">
</g>
<g id="Objects">
	<g>
		<g>
			<g>
				<path fill="#5C93B1" d="M157.81,97.559l2.319,4.827l3.589,7.498l30.512,63.642l1.22,2.547l1.562,3.252l4.413,9.208l8.595,17.919
					l4.075,8.49c0,0,27.523,58.408-0.293,95.369c-3.243,4.309-6.602,8.662-10.086,13.044c-2.345,2.964-4.754,5.931-7.204,8.901
					c-1.431,1.74-2.879,3.489-4.353,5.232c-5.637,6.68-11.507,13.353-17.595,19.892c-1.121,1.223-2.259,2.435-3.402,3.639
					c-5.519,5.829-11.202,11.546-17.005,17.072c-1.401,1.341-2.819,2.671-4.233,3.988c-1.687,1.561-3.383,3.106-5.089,4.635
					c-0.581,0.52-1.169,1.045-1.755,1.557c-1.663,1.471-3.327,2.921-5,4.355c-3.581,3.046-7.201,6.006-10.856,8.867
					c-13.399,10.509-27.25,19.594-41.266,26.511c-2.047,1.182-4.141,2.227-6.264,3.127c-26.274,11.189-57.368,1.258-72.008-24.1
					c-11.867-20.554-9.549-45.415,3.918-63.227l-0.005-0.008l0.036-0.032c0.602-0.804,2.656-2.991,5.557-5.971
					c5.612-5.763,14.35-14.494,21.724-21.819c2.086-2.075,4.066-4.033,5.834-5.793c1.235-1.213,2.362-2.332,3.354-3.307
					c0.458-0.449,0.88-0.867,1.275-1.258l0.008-0.005c0.951-0.952,1.728-1.716,2.262-2.241c0.534-0.526,0.825-0.813,0.825-0.813
					l0.582-0.575c1.055-1.055,2.075-2.133,3.041-3.246c1.319-1.501,2.563-3.057,3.724-4.662c1.182-1.607,2.276-3.272,3.292-4.978
					c2.42-4.04,4.395-8.323,5.901-12.759c0.681-2.003,1.26-4.033,1.736-6.092c0.585-2.491,1.028-5.02,1.318-7.569
					c0.09-0.748,0.159-1.495,0.215-2.245c0.236-2.812,0.277-5.641,0.146-8.469c-0.037-0.686-0.074-1.371-0.14-2.051
					c-0.253-3.225-0.741-6.445-1.486-9.637c-0.207-0.924-0.436-1.847-0.693-2.764c-1.459-5.258-3.605-10.425-6.458-15.368
					c-0.325-0.563-7.055-12.163-14.114-24.313c-0.466-0.807-0.937-1.623-1.416-2.434c-0.683-1.183-1.374-2.361-2.047-3.527
					c-1.295-2.243-2.575-4.44-3.798-6.54c-5.126-8.84-9.154-15.78-9.154-15.78L157.81,97.559z"/>
			</g>
			<path fill="#5C93B1" d="M120.593,48.563c0,0-34.387-36.629-8.609-45.105c21.193-6.969,13.454,43.329,13.454,43.329l-1.225,0.403
				c0,0,0.411-40.783-12.061-36.682c-2.151,0.707-9.219,4.553,9.602,37.673L120.593,48.563z"/>
			<g>
				<polygon fill="#435776" points="128.102,39.097 131.738,46.242 137.379,57.351 142.943,68.287 146.192,74.687 150.145,82.475 
					157.81,97.559 33.125,169.546 20.405,147.854 14.364,137.541 4.052,119.962 0,113.057 				"/>
			</g>
			<g>
				<path fill="#F5EEE6" d="M67.069,378.109c10.586,18.335,14.754,37.722,12.626,53.023c-26.274,11.189-57.368,1.258-72.008-24.1
					c-11.867-20.554-9.549-45.415,3.918-63.227l-0.005-0.008l0.036-0.032c0.601-0.804,2.656-2.991,5.557-5.971
					C34.404,340.331,53.916,355.329,67.069,378.109z"/>
			</g>
		</g>
		<g>
			<g>
				<path fill="#5C93B1" d="M14.364,137.541c2.059,1.682,3.877,2.101,6.597,1.292c1.205-0.946,2.941-5.907,3.977-8.897
					c2.452-7.016,5.232-14.972,11.538-17.33c5.092-1.917,10.89,1.401,17.029,4.915c3.662,2.105,9.797,5.61,11.794,4.718
					c1.342-0.84,2.727-7.012,3.473-10.335c1.598-7.197,3.262-14.618,8.783-17.468c5.043-2.585,11.349,0.125,18.032,2.998
					c3.508,1.498,10,4.286,11.688,3.311c0.008-0.005,0.008-0.005,0.008-0.005c1.345-0.929,2.057-7.702,2.397-10.954
					c0.765-7.227,1.548-14.705,6.586-18.071c4.805-3.187,11.412-1.217,18.445,0.868c3.385,1.004,9.532,2.816,11.481,2.104
					l3.953,7.788c-4.902,2.341-11.513,0.383-17.909-1.503c-3.128-0.935-9.606-2.85-11.058-2.011l-0.049,0.028
					c-1.639,1.098-2.337,7.744-2.753,11.714c-0.787,7.49-1.539,14.569-6.678,17.591l-0.049,0.028
					c-5.489,3.169-12.61,0.103-19.505-2.855c-3.184-1.37-9.121-3.912-10.604-3.241c-1.854,0.951-3.349,7.61-4.241,11.584
					c-1.621,7.232-3.138,14.079-8.457,16.432c-6.046,2.675-12.981-1.293-19.683-5.122c-3.029-1.742-8.11-4.648-9.639-4.32
					c-2.46,0.92-4.775,7.607-6.325,12.025c-2.293,6.577-4.448,12.79-9.536,14.336c-1.135,0.351-2.223,0.576-3.254,0.693
					L14.364,137.541z"/>
			</g>
		</g>
		<circle fill="#F5EEE6" cx="54.569" cy="104.982" r="5.769"/>
		<circle fill="#F5EEE6" cx="48.98" cy="137.612" r="5.097"/>
		<circle fill="#F5EEE6" cx="15.07" cy="125.026" r="5.026"/>
		<circle fill="#F5EEE6" cx="89.336" cy="114.815" r="5.533"/>
		<circle fill="#F5EEE6" cx="96.289" cy="85.653" r="5.18"/>
		<circle fill="#F5EEE6" cx="128.384" cy="92.271" r="5.415"/>
		<path fill="#F5EEE6" d="M137.379,57.351l5.564,10.936c-0.19,0.142-0.389,0.268-0.601,0.39c-2.977,1.719-6.78,0.707-8.504-2.279
			c-1.719-2.977-0.694-6.777,2.283-8.496C136.529,57.668,136.944,57.482,137.379,57.351z"/>
		<g>
			<path fill="#435776" d="M68.929,196.105l-6.34,21.295l21.295,6.34l6.34-21.295L68.929,196.105z M69.272,213.783l3.273-10.995
				l10.995,3.273l-3.273,10.995L69.272,213.783z"/>
			<path fill="#435776" d="M99.947,179.319l-6.34,21.295l21.295,6.34l6.34-21.295L99.947,179.319z M100.291,196.997l3.273-10.995
				l10.995,3.273l-3.273,10.995L100.291,196.997z"/>
			<path fill="#435776" d="M130.966,162.532l-6.34,21.295l21.295,6.34l6.34-21.295L130.966,162.532z M131.309,180.21l3.273-10.995
				l10.995,3.273l-3.273,10.995L131.309,180.21z"/>
			<path fill="#435776" d="M161.984,145.746l-6.34,21.295l21.295,6.34l6.34-21.295L161.984,145.746z M162.327,163.424l3.273-10.995
				l10.995,3.273l-3.273,10.995L162.327,163.424z"/>
		</g>
		<g>
			<g>
				<path fill="#435776" d="M73.826,237.18c0.344,0.671,0.098,1.488-0.555,1.865l-0.057,0.033l-2.096,1.079
					c-0.103,0.048-0.21,0.089-0.314,0.116c-0.207-0.924-0.436-1.847-0.693-2.764l1.809-0.936
					C72.617,236.214,73.468,236.484,73.826,237.18z"/>
			</g>
			<g>
				<path fill="#435776" d="M84.481,230.093l-4.191,2.159c-0.716,0.381-0.965,1.21-0.607,1.906c0.358,0.696,1.21,0.965,1.906,0.607
					l4.183-2.154l0.057-0.033c0.652-0.377,0.894-1.201,0.55-1.873C86.021,230.009,85.169,229.739,84.481,230.093z M97.038,223.626
					l-4.183,2.154c-0.725,0.364-0.965,1.21-0.607,1.906c0.354,0.688,1.202,0.97,1.893,0.604l4.191-2.159l0.057-0.033
					c0.652-0.377,0.899-1.193,0.555-1.865C98.586,223.537,97.734,223.268,97.038,223.626z M109.591,217.151l-4.183,2.154
					c-0.716,0.38-0.965,1.21-0.607,1.906c0.358,0.696,1.21,0.965,1.906,0.607l4.183-2.154l0.057-0.033
					c0.653-0.377,0.894-1.201,0.55-1.873C111.138,217.062,110.287,216.793,109.591,217.151z M122.156,210.679l-4.183,2.154
					c-0.716,0.381-0.973,1.215-0.612,1.898c0.358,0.696,1.206,0.978,1.898,0.612l4.191-2.159l0.057-0.033
					c0.652-0.377,0.899-1.193,0.555-1.865C123.704,210.591,122.852,210.321,122.156,210.679z M134.708,204.204l-4.183,2.154
					c-0.712,0.368-0.965,1.21-0.607,1.906c0.358,0.696,1.21,0.965,1.906,0.607l4.183-2.154l0.057-0.033
					c0.652-0.377,0.894-1.201,0.55-1.873C136.256,204.116,135.404,203.846,134.708,204.204z M147.274,197.733l-4.191,2.159
					c-0.709,0.355-0.965,1.21-0.604,1.893c0.358,0.696,1.202,0.97,1.897,0.612l4.191-2.159l0.057-0.033
					c0.652-0.377,0.899-1.193,0.555-1.865C148.821,197.644,147.97,197.375,147.274,197.733z M159.826,191.258l-4.183,2.154
					c-0.73,0.356-0.965,1.21-0.607,1.906c0.358,0.696,1.21,0.965,1.906,0.607l4.183-2.154l0.057-0.033
					c0.653-0.377,0.894-1.201,0.55-1.873C161.374,191.169,160.522,190.9,159.826,191.258z M172.391,184.786l-4.191,2.159
					c-0.73,0.356-0.965,1.21-0.604,1.893c0.358,0.696,1.202,0.97,1.898,0.612l4.191-2.159l0.057-0.033
					c0.652-0.377,0.899-1.193,0.555-1.865C173.939,184.698,173.082,184.42,172.391,184.786z M184.944,178.311l-4.183,2.154
					c-0.716,0.381-0.965,1.21-0.607,1.906c0.358,0.696,1.21,0.965,1.906,0.607l4.183-2.154l0.057-0.033
					c0.652-0.377,0.894-1.201,0.55-1.873C186.491,178.223,185.64,177.953,184.944,178.311z"/>
			</g>
			<g>
				<path fill="#435776" d="M194.23,173.526l1.22,2.547l-0.839,0.43c-0.696,0.358-1.547,0.089-1.906-0.607
					c-0.354-0.688-0.1-1.53,0.612-1.897L194.23,173.526z"/>
			</g>
		</g>
		<g>
			<g>
				<path fill="#435776" d="M50.046,195.991c0.335,0.655,0.113,1.457-0.506,1.836c-0.466-0.807-0.937-1.623-1.416-2.434l0.016-0.009
					C48.836,195.025,49.688,195.295,50.046,195.991z"/>
			</g>
			<g>
				<path fill="#435776" d="M60.706,188.912l-4.191,2.159c-0.716,0.381-0.965,1.21-0.607,1.906c0.353,0.688,1.21,0.965,1.901,0.599
					l4.183-2.154c0.024-0.014,0.045-0.015,0.062-0.025c0.652-0.377,0.894-1.201,0.55-1.873
					C62.245,188.828,61.393,188.558,60.706,188.912z M73.258,182.437l-4.183,2.154c-0.716,0.381-0.965,1.21-0.607,1.906
					c0.358,0.696,1.202,0.97,1.897,0.612l4.191-2.159l0.057-0.033c0.652-0.377,0.894-1.201,0.55-1.873
					C74.805,182.348,73.954,182.079,73.258,182.437z M85.815,175.97l-4.183,2.154c-0.716,0.38-0.965,1.21-0.607,1.906
					c0.354,0.688,1.21,0.965,1.906,0.607l4.178-2.162l0.057-0.033c0.653-0.377,0.899-1.193,0.555-1.865
					C87.362,175.881,86.511,175.612,85.815,175.97z M98.376,169.49l-4.183,2.154c-0.72,0.372-0.973,1.215-0.607,1.906
					c0.358,0.696,1.202,0.97,1.898,0.612l4.191-2.159l0.057-0.033c0.652-0.377,0.894-1.201,0.55-1.873
					C99.923,169.402,99.071,169.132,98.376,169.49z M110.933,163.023l-4.183,2.154c-0.722,0.351-0.965,1.21-0.612,1.897
					c0.358,0.696,1.215,0.974,1.906,0.607l4.183-2.154l0.057-0.033c0.652-0.377,0.899-1.193,0.555-1.865
					C112.48,162.935,111.628,162.665,110.933,163.023z M123.493,156.544l-4.191,2.159c-0.704,0.363-0.965,1.21-0.599,1.901
					c0.358,0.696,1.202,0.97,1.897,0.612l4.191-2.159l0.057-0.033c0.652-0.377,0.894-1.201,0.55-1.873
					C125.041,156.455,124.189,156.185,123.493,156.544z M136.05,150.077l-4.183,2.154c-0.73,0.356-0.965,1.21-0.612,1.897
					c0.358,0.696,1.21,0.965,1.906,0.607l4.183-2.154l0.057-0.033c0.653-0.377,0.899-1.193,0.555-1.865
					C137.598,149.988,136.741,149.711,136.05,150.077z M148.611,143.597l-4.191,2.159c-0.725,0.364-0.965,1.21-0.599,1.901
					c0.358,0.696,1.202,0.97,1.898,0.612l4.191-2.159l0.057-0.033c0.652-0.377,0.894-1.201,0.55-1.873
					C150.158,143.508,149.307,143.239,148.611,143.597z M161.163,137.122l-4.178,2.162c-0.72,0.372-0.965,1.21-0.612,1.897
					c0.358,0.696,1.21,0.965,1.906,0.607l4.183-2.154l0.057-0.033c0.652-0.377,0.899-1.193,0.55-1.873
					C162.715,137.042,161.859,136.764,161.163,137.122z"/>
			</g>
			<g>
				<path fill="#435776" d="M172.989,134.209c-0.019,0.011-0.039,0.022-0.06,0.033l-2.093,1.079
					c-0.694,0.358-1.546,0.085-1.903-0.609c-0.357-0.693-0.106-1.525,0.608-1.903l2.093-1.079c0.694-0.358,1.546-0.085,1.903,0.609
					C173.884,133.011,173.638,133.834,172.989,134.209z"/>
			</g>
		</g>
		<path fill="#F5EEE6" d="M196.513,332.255c-1.431,1.74-2.879,3.489-4.353,5.232c-5.637,6.68-11.507,13.353-17.595,19.892
			c-32.672-32.913-92.582-48.131-122.914-54.011c0.534-0.526,0.825-0.813,0.825-0.813l0.582-0.575
			c1.055-1.055,2.075-2.133,3.041-3.246c1.319-1.501,2.563-3.057,3.724-4.662c1.182-1.607,2.276-3.272,3.292-4.978
			c2.42-4.04,4.395-8.323,5.901-12.759c0.681-2.003,1.26-4.033,1.736-6.092C128.861,272.678,173.236,308.458,196.513,332.255z"/>
		<path fill="#435776" d="M192.16,337.487c-6.681,7.924-13.7,15.827-20.997,23.531c-32.091-34.488-95.731-49.216-123.057-54.146
			c0.458-0.449,0.88-0.867,1.275-1.258l0.008-0.005c1.932-1.909,3.087-3.054,3.087-3.054l0.582-0.575
			c1.055-1.055,2.075-2.133,3.041-3.246c1.319-1.501,2.563-3.057,3.724-4.662c1.182-1.607,2.276-3.272,3.292-4.978
			c2.42-4.04,4.395-8.323,5.901-12.759C126.911,278.023,170.624,314.839,192.16,337.487z"/>
	</g>
</g>
</svg>
