<svg xmlns="http://www.w3.org/2000/svg" viewBox="0 0 40 40"><path d="M5.586 18.984c.363-2.605 1.84-6.226 2.465-6.492C8.516 12.5 9.5 14.594 9.5 16c0 .547-.078.547-.375.547-.125 0-.262-.008-.402-.02-.192-.011-.391-.027-.598-.027-.73 0-1.418.898-2.387 2.27-.05.07-.101.14-.152.214z" fill="#98ccfd"/><path d="M8.082 13.18C8.48 13.71 9 15.05 9 16v.047c-.078-.008-.16-.012-.242-.02-.2-.011-.414-.027-.633-.027-.563 0-1.047.316-1.566.879.449-1.547 1.074-3.055 1.523-3.7M8 12c-1.035 0-3 5.473-3 8 0 .188.04.27.11.27.44 0 2.12-3.27 3.015-3.27.367 0 .71.047 1 .047.527 0 .875-.156.875-1.047 0-1.383-.965-4-2-4z" fill="#4788c7"/><path d="M19.496 8.73c-.422-.168-1.254-.683-2.2-1.52C16.06 6.122 15.5 5.263 15.5 5c0-1.266 1.379-3.5 2-3.5.59.215 1.93 3.8 1.996 7.23z" fill="#98ccfd"/><path d="M17.387 2.121c.515.746 1.36 3.164 1.566 5.746-1.11-.75-2.77-2.265-2.953-2.906.023-.895.86-2.375 1.387-2.84M17.5 1C16.465 1 15 3.617 15 5c0 1.184 3.668 4.285 4.719 4.285.18 0 .281-.086.281-.285 0-3.566-1.465-8-2.5-8z" fill="#4788c7"/><path d="M23.25 38.5c-.73 0-1.316-.05-1.82-.29-.086-.038-.176-.089-.274-.14-.441-.234-1.05-.554-1.785-.554a2.56 2.56 0 0 0-1.074.238c-1.137.508-2.149.746-3.188.746-3.093 0-5.609-2.168-5.609-4.832 0-1.598.922-3.082 2.465-3.98.133-.079.297-.165.473-.258.988-.524 2.34-1.246 2.624-2.301.59-2.168 2.243-3.629 4.118-3.629 2.21 0 3.605 1.398 4.261 4.277.29 1.258 1.2 2.2 2.082 3.114 1.02 1.05 1.98 2.047 1.98 3.441-.003 2.3-1.91 4.168-4.253 4.168z" fill="#dff0fe"/><path d="M19.18 24c1.238 0 2.976.402 3.773 3.89.32 1.391 1.281 2.387 2.211 3.348.984 1.02 1.836 1.903 1.836 3.094C27 36.355 25.316 38 23.25 38c-.66 0-1.188-.04-1.602-.238-.082-.04-.168-.086-.257-.133-.461-.242-1.16-.613-2.02-.613a3.09 3.09 0 0 0-1.281.28c-1.067.481-2.016.704-2.985.704C12.29 38 10 36.055 10 33.668c0-1.414.828-2.742 2.215-3.547.129-.074.285-.156.457-.25 1.066-.566 2.527-1.348 2.871-2.61C16.07 25.314 17.531 24 19.18 24m0-1c-2.215 0-3.985 1.723-4.602 4-.277 1.02-2.07 1.793-2.863 2.254C10.078 30.204 9 31.82 9 33.668 9 36.613 11.734 39 15.105 39c1.262 0 2.368-.328 3.395-.793a2.12 2.12 0 0 1 .871-.191c.758 0 1.379.425 1.844.648.617.293 1.305.336 2.035.336 2.621 0 4.75-2.09 4.75-4.668 0-2.895-3.5-4.168-4.07-6.668C23.273 24.793 21.8 23 19.18 23z" fill="#4788c7"/><path d="M9.5 26.5c-1.758 0-4-3.457-4-6.168 0-2.664 1.508-4.832 3.355-4.832 1.766 0 4.645 3.445 4.645 6.168 0 1.012-.188 1.3-1.148 2.324-.418.442-.754.84-1.047 1.188-.832.98-1.153 1.32-1.805 1.32z" fill="#dff0fe"/><path d="M8.855 16C10.262 16 13 19.059 13 21.668c0 .852-.113 1.023-1.016 1.98a32.85 32.85 0 0 0-1.062 1.207C10.125 25.797 9.914 26 9.5 26 8.117 26 6 22.96 6 20.332 6 17.984 7.309 16 8.855 16m0-1C6.727 15 5 17.387 5 20.332S7.371 27 9.5 27c1.242 0 1.648-1 3.215-2.668C13.69 23.293 14 22.895 14 21.668 14 18.723 10.988 15 8.855 15z" fill="#4788c7"/><path d="M34.262 21.77c-.969-1.372-1.657-2.27-2.387-2.27-.207 0-.406.016-.598.027-.144.012-.277.02-.402.02-.297 0-.375 0-.375-.547 0-1.406.984-3.5 1.5-3.5.586.262 2.066 3.926 2.422 6.496-.055-.078-.11-.152-.16-.226z" fill="#98ccfd"/><path d="M31.918 16.18c.45.644 1.074 2.152 1.52 3.699-.516-.567-1-.879-1.563-.879-.219 0-.434.016-.633.027-.082.008-.164.012-.242.02V19c0-.95.52-2.29.918-2.82M32 15c-1.035 0-2 2.617-2 4 0 .89.348 1.047.875 1.047.29 0 .633-.047 1-.047.895 0 2.574 3.27 3.016 3.27.07 0 .109-.082.109-.27 0-2.527-1.965-8-3-8z" fill="#4788c7"/><path d="M30.5 29.5c-.652 0-.973-.34-1.805-1.32a26.163 26.163 0 0 0-1.047-1.188c-.96-1.023-1.148-1.312-1.148-2.328 0-2.719 2.879-6.164 4.645-6.164 1.851 0 3.355 2.168 3.355 4.832 0 2.711-2.242 6.168-4 6.168z" fill="#dff0fe"/><path d="M31.145 19C32.69 19 34 20.984 34 23.332 34 25.961 31.883 29 30.5 29c-.414 0-.625-.203-1.422-1.145a32.85 32.85 0 0 0-1.062-1.207C27.113 25.691 27 25.52 27 24.668 27 22.058 29.738 19 31.145 19m0-1C29.012 18 26 21.723 26 24.668c0 1.227.309 1.629 1.285 2.668C28.852 29 29.258 30 30.5 30c2.129 0 4.5-3.723 4.5-6.668C35 20.387 33.273 18 31.145 18z" fill="#4788c7"/><path d="M16 15.5c-1.93 0-3.5-2.168-3.5-4.832 0-2.723 2.996-6.168 4.832-6.168C18.914 4.5 19.5 5.719 19.5 9c0 3.95-1.375 6.5-3.5 6.5z" fill="#dff0fe"/><path d="M17.332 5C18.176 5 19 5.309 19 9c0 3.645-1.18 6-3 6-1.625 0-3-1.984-3-4.332C13 8.223 15.727 5 17.332 5m0-1C15.125 4 12 7.723 12 10.668 12 13.613 13.79 16 16 16s4-2.344 4-7c0-2.945-.457-5-2.668-5z" fill="#4788c7"/><path d="M22.504 9.73c.066-3.43 1.406-7.015 2.023-7.234C25.121 2.5 26.5 4.734 26.5 6c0 .262-.559 1.121-1.797 2.21-.945.837-1.777 1.352-2.2 1.52z" fill="#98ccfd"/><path d="M24.613 3.121c.528.465 1.364 1.945 1.387 2.84-.184.644-1.863 2.18-2.953 2.918.203-2.586 1.05-5.012 1.566-5.758M24.5 2C23.465 2 22 6.434 22 10c0 .2.102.285.281.285C23.332 10.285 27 7.184 27 6c0-1.383-1.465-4-2.5-4z" fill="#4788c7"/><path d="M26 16.5c-2.125 0-3.5-2.55-3.5-6.5 0-3.281.586-4.5 2.168-4.5 1.836 0 4.832 3.445 4.832 6.168 0 2.664-1.57 4.832-3.5 4.832z" fill="#dff0fe"/><path d="M24.668 6C26.273 6 29 9.223 29 11.668 29 14.016 27.625 16 26 16c-1.82 0-3-2.355-3-6 0-3.691.824-4 1.668-4m0-1C22.457 5 22 7.055 22 10c0 4.656 1.79 7 4 7s4-2.387 4-5.332S26.875 5 24.668 5z" fill="#4788c7"/></svg>