<svg xmlns="http://www.w3.org/2000/svg" viewBox="0 0 26 26"><path d="M14.5 7.2c0-.7 0-3.802 1.7-3.802 2.1 0 3.5 2.5 3.5 4.102 0 1.2-.802 3.3-2.7 3.3-2.102 0-2.5-2.902-2.5-3.6zm5.8 4.1c-.902 0-1.698.598-2.3 1.4-.602.8-1.2 1.6-1.2 2.1 0 .802.5 1 1 1.598.598.801 1.2 1.704 2.2 1.704 2 0 2.3-1.602 2.602-2.801.5-1.801-.204-4-2.301-4zM8.899 15.2c.602-.598 1-.802 1-1.7 0-.602-.796-1.5-1.398-2.398C7.898 10.199 7.2 9.3 6.3 9.3c-2.1 0-2.902 2.398-2.402 4.5.301 1.5 1.5 3 3.102 3 1.102.097 1.102-.903 1.898-1.602zm1.704-5.2c2 0 2.296-2.898 2.296-3.602 0-.699 0-3.5-1.898-3.5S8 5.398 8 6.5c0 1.2.7 3.5 2.602 3.5zm2.296 5.102c-1.398 0-1.796.199-2.597 2.398-1 2.7-4.2 2.602-4.2 5.102 0 1.5 1.5 3.296 3.2 3.296 1.5 0 2.3-.597 3.398-.597 1.102 0 1.602.5 3.102.5 2.3 0 3-1.801 3-3 0-1.801-3-3-3.5-5.2-.2-1.402-.7-2.5-2.403-2.5zm8.801-4.5c.301.296.801.796.801.097 0-.699-.602-1.898-.8-1.898-.2 0-.5.5-.802 1.3-.097.5.602.297.801.5zM15.602 1.8c.398.199 1 .398.699-.2C16 .899 15 .102 14.8.2c-.2.102-.301.7-.2 1.5.098.5.7 0 1 .102zM6 8.3c.3-.102.898.3.8-.301 0-.8-.198-1.398-.402-1.5-.199 0-1 .898-1.199 1.7-.199.6.301.3.801.1zm5.898-6.5c.301-.102.801.398.903-.102.097-.8.097-1.398-.102-1.5C12.5.102 11.5.9 11.102 1.602c-.301.597.398.296.796.199z"/></svg>