<svg xmlns="http://www.w3.org/2000/svg" viewBox="0 0 595.28 595.28"><path fill="#5C2D91" d="M0 0v182.78l23.8 73.25H0v16.47h29.15l20.05 61.72L.5 362.57l-.5-.36v20.36l96.1 69.81H0v142.9h595.28v-142.9h-96.1l96.1-69.81V362.2l-.5.36-48.7-28.35 20.05-61.72h29.15v-16.47h-23.8l23.8-73.25V0H0zm243.23 350.24l39.36 22.9-61.27 44.52 21.9-67.42zm-6.76-32.47l-62.31-45.27h77.02l-14.71 45.27zm61.17 64.8l96.1 69.81h-192.2l96.1-69.81zm15.05-9.42l39.36-22.91 21.9 67.42-61.26-44.51zM344.1 272.5h77.02l-62.3 45.27-14.72-45.27zm2.74 61.72l-48.7 28.35-.5-.36-.5.36-48.7-28.35 20.05-61.72h58.3l20.05 61.72zm-73-78.19l23.8-73.25 23.8 73.25h-47.6zM4.35 142.9H293.3l-36.76 113.13H41.1L4.35 142.9zm42.12 129.6h77.01l-62.3 45.27-14.71-45.27zM15.06 373.15l39.35-22.91 21.9 67.42-61.25-44.51zm53.9-31.38h.01l-2.44-7.54 82.3-59.79 82.29 59.79-2.45 7.53-35.94 110.63h-87.81L68.97 341.75zm421.4 110.62h-87.8L366.6 341.75l-2.45-7.53 82.3-59.79 82.3 59.79-2.45 7.53-35.94 110.63zm89.86-79.24l-61.26 44.51 21.9-67.42 39.36 22.9zm-46.12-55.38l-62.3-45.27h77.01l-14.7 45.27zm20.06-61.74H338.75L302 142.9h288.93l-36.76 113.13z"></path></svg>