<svg xmlns="http://www.w3.org/2000/svg" viewBox="0 0 24 24"><path d="M0 0v14.5c0 1.707.984 3.207 2.406 3.969C1.59 18.875.636 19 0 19v2c1.7 0 2.398-.406 3-.906.898.699 2.2.906 3 .906.8 0 2.102-.207 3-.906.898.699 2.2.906 3 .906.8 0 2.102-.207 3-.906.898.699 2.2.906 3 .906.8 0 2.102-.207 3-.906.898.699 2.2.906 3 .906v-2c-.637 0-1.59-.125-2.406-.531C23.016 17.707 24 16.207 24 14.5V14h-1.688c.399 0 .688-.29.688-.688V8.189c0-.102.008-.586-.094-.688 0 0-.117-.2-.218-.5h.812c.398 0 .602-.29.5-.688l-.188-.718c-.199-.301-.601-.594-1-.594H22c-1-4-2-4-6.5-4S10 1 9 5h-.813a.924.924 0 0 0-.874.688L7 6.313c-.102.398.102.687.5.687h.813c-.102.3-.22.5-.22.5-.1.102-.093.586-.093.688v5.124c0 .399.29.688.688.688H2V8.437L4.719 5.72 5 5.406V0zm2 2h1v2.563l-1 1zm13.5.313c4.898 0 4.79.898 5.188 3 0 0-1.086.687-5.188.687-4.102 0-5.313-.688-5.313-.688.5-2.199.415-3 5.313-3zM9.562 8h.344c1 0 2.188 1 2.188 1.5-.102.398-.293.594-1.094.594h-.813C9.79 10.094 9 9.914 9 9.313v-.72c0-.523.238-.59.563-.593zm11.626 0c.398 0 .812-.105.812.594v.719c0 .601-.79.687-1.188.687H20c-.8 0-1-.195-1-.594C19 9.008 20.188 8 21.188 8zM11 12.5h9v.813c0 .398.29.687.688.687H10.313c.398 0 .687-.29.687-.688zm-8 8.594C2.102 21.793.8 22 0 22v2c1.7 0 2.398-.406 3-.906.898.699 2.2.906 3 .906.8 0 2.102-.207 3-.906.898.699 2.2.906 3 .906.8 0 2.102-.207 3-.906.898.699 2.2.906 3 .906.8 0 2.102-.207 3-.906.898.699 2.2.906 3 .906v-2c-.8 0-2.102-.207-3-.906-.898.699-2.2.906-3 .906-.8 0-2.102-.207-3-.906-.898.699-2.2.906-3 .906-.8 0-2.102-.207-3-.906-.898.699-2.2.906-3 .906-.8 0-2.102-.207-3-.906z"/></svg>