<svg xmlns="http://www.w3.org/2000/svg" viewBox="0 0 595.28 595.28"><path fill="#E81C3B" d="M468.71 297.64c0-94.16-76.33-170.5-170.49-170.5s-170.5 76.34-170.5 170.5 76.34 170.5 170.5 170.5 170.5-76.34 170.5-170.5zm-271.14-22.6h76.89l23.76-73.13 23.76 73.13h76.9l-62.21 45.2 23.76 73.13-62.2-45.2-62.22 45.2 23.76-73.13-62.2-45.2zm336.1-20.43a239.21 239.21 0 0 0-66.56-126.42 239.2 239.2 0 0 0-126.43-66.58A75.07 75.07 0 0 0 372.84.01h-150.4a75.07 75.07 0 0 0 32.17 61.6c-97.93 17.86-175.25 95.45-192.67 193.5A75.05 75.05 0 0 0 0 222.46v150.39a75.06 75.06 0 0 0 62.1-32.88c8.8 48.38 32.2 91.7 65.44 125.29l1.24 1.28c.35.36.72.7 1.08 1.05a238.9 238.9 0 0 0 125.46 65.6 75.07 75.07 0 0 0-32.87 62.1h150.39a75.05 75.05 0 0 0-32.67-61.94c98.06-17.42 175.64-94.74 193.5-192.66a75.07 75.07 0 0 0 61.6 32.16v-150.4a75.07 75.07 0 0 0-61.6 32.17zm-442.1 43.03C91.57 183.7 184.27 91 298.22 91c56.82 0 108.35 23.06 145.75 60.31 37.25 37.4 60.32 88.93 60.32 145.76 0 113.94-92.7 206.65-206.65 206.65-56.82 0-108.35-23.06-145.74-60.3-37.26-37.4-60.33-88.94-60.33-145.77z"></path></svg>