<svg xmlns="http://www.w3.org/2000/svg" viewBox="0 0 32 32"><path d="M9.656 3c-.191 0-.398.004-.594.031-2.496.332-4.246 1.676-5.156 3.438-.91 1.761-1.062 3.851-.781 5.906.406 2.992 1.219 4.012 1.688 7.406.011.094.046.239.062.344.207 1.445.734 3.957.75 4.031h-.031c.004.02.027.043.031.063.121.867.36 2.07 1.156 3.125.817 1.078 2.332 1.855 4.313 1.593 1.77-.234 2.914-1.414 3.406-2.687s.5-2.652.5-3.719c0 0-.027-7.027-.031-13.562-.004-3.395-2.43-5.996-5.313-5.969zm12.688 0c-2.883-.027-5.309 2.574-5.313 5.969C17.027 15.504 17 22.53 17 22.53c0 1.067.008 2.446.5 3.719.492 1.273 1.637 2.453 3.406 2.688 1.98.261 3.496-.516 4.313-1.594.797-1.055 1.035-2.258 1.156-3.125.004-.02.027-.043.031-.063h-.031c.016-.082.648-3.015.813-4.375.468-3.394 1.28-4.414 1.687-7.406.281-2.055.129-4.145-.781-5.906-.91-1.762-2.66-3.106-5.157-3.438a4.353 4.353 0 0 0-.592-.03zM9.312 5.031h.032c1.851-.226 3.62 1.293 3.625 3.938 0 1.207-.004 1.308 0 2.5-.801-1.172-1.91-2.328-3.438-3.313l-.594-.375-.562.438c-1.668 1.304-2.563 3.125-3.063 4.937-.066-.324-.136-.66-.187-1.031-.242-1.773-.082-3.477.563-4.719.64-1.234 1.683-2.105 3.625-2.375zm12.657 0c.226-.023.457-.027.687 0h.032c1.94.27 2.984 1.14 3.625 2.375.644 1.242.804 2.946.562 4.719-.05.375-.121.707-.188 1.031-.5-1.812-1.394-3.633-3.062-4.937l-.563-.438-.593.375c-1.528.985-2.637 2.14-3.438 3.313.004-1.192 0-1.293 0-2.5.004-2.317 1.36-3.762 2.938-3.938zM9.125 10.406c2.938 2.266 3.695 5.223 3.844 6.688H13c.004 1.773 0 5.437 0 5.437 0 1.012-.059 2.184-.375 3-.316.817-.707 1.293-1.813 1.438-1.433.191-1.984-.211-2.437-.813-.453-.601-.684-1.55-.781-2.281v-.031l-.032-.032s-.617-3.171-.75-4.28c-.015-.114-.015-.204-.03-.313a19.042 19.042 0 0 1 .124-3.907c.258-1.8.969-3.597 2.219-4.906zm13.75 0c1.25 1.309 1.96 3.106 2.219 4.906.254 1.774.168 3.383.093 4.188v.031c-.132 1.106-.75 4.282-.75 4.282l-.03.03v.032c-.098.73-.329 1.68-.782 2.281-.453.602-1.004 1.004-2.438.813-1.105-.145-1.496-.621-1.812-1.438-.316-.816-.375-1.988-.375-3 0 0-.004-3.664 0-5.437h.031c.149-1.465.907-4.422 3.844-6.688z"/></svg>