<svg xmlns="http://www.w3.org/2000/svg" viewBox="0 0 50 50"><path d="M35.156.031c-.347 0-.699.153-.875.469l-7.5 13.438a1.031 1.031 0 0 0-.062.812.986.986 0 0 0 .531.594c.152.07 3.805 1.75 8 1.75 4.207 0 7.7-1.68 7.844-1.75.246-.121.418-.364.5-.625a.996.996 0 0 0-.094-.781L36.031.5c-.176-.316-.527-.469-.875-.469zM14.844 1.906c-2.684 0-5.188 1.555-6.5 3.969-2.66.469-4.656 2.855-4.656 5.688 0 .214.007.41.03.624-1.214 1.415-1.874 3.22-1.874 5.126 0 .648.086 1.32.281 2.03a5.872 5.872 0 0 0-.281 1.813c0 .442.05.903.156 1.344a5.79 5.79 0 0 0-2 4.406c0 2.473 1.496 4.653 3.688 5.469-.008.105 0 .207 0 .313 0 3.195 2.527 5.78 5.624 5.78.254 0 .508.024.75.032.88.031 1.82.04 2.657-.375.789 1.063 1.945 1.438 3.031 1.438.625 0 1.223-.126 1.719-.282.402.211.8.352 1.187.438-.472-.93-.472-2.078.125-3l4.344-6.657a6.213 6.213 0 0 1-1.156-.906 2.974 2.974 0 0 1-.469-3.625l4.563-7.812.343-.625s-.418-.18-.593-.313a2.933 2.933 0 0 1-1-1.406 3.06 3.06 0 0 1 .218-2.406l.25-.406a5.656 5.656 0 0 0-3-2.594c.008-.106.032-.239.032-.344 0-4.258-3.356-7.719-7.47-7.719zM28.28 17.875l-5.062 8.656c-.23.395-.168.899.156 1.219.113.113 1.184 1.133 3.906 1.938 2.223.656 4.907 1 8 1 8.813 0 11.418-2.696 11.688-3a.991.991 0 0 0 .125-1.157l-5.032-8.625c-1.601.555-4.042 1.188-6.812 1.188-2.793 0-5.328-.668-6.969-1.219zm-3.31 13.094l-4.438 6.843c-.273.422-.199.989.188 1.313.156.133 3.918 3.188 14.656 3.188 10.766 0 14.234-3.086 14.375-3.22.352-.331.418-.874.156-1.28L45.5 31.03c-2.035.867-5.246 1.657-10.156 1.657-3.285 0-6.157-.38-8.563-1.094a17.903 17.903 0 0 1-1.812-.625zm-12.344 9.718c.242 4.223-1.18 5.172-2.188 5.844-.695.465-1.742 1.16-1.374 2.688.109.449.507.781.968.781h11.844a1 1 0 0 0 1-1c0-.926-.637-1.445-1.219-1.906-.906-.719-2.281-1.828-2.843-5.344a6.595 6.595 0 0 1-1.532-.375c-.441.09-.957.188-1.531.188a5.92 5.92 0 0 1-3.125-.876zm26.5 3.5a51.31 51.31 0 0 1-3.781.126c-.91 0-1.774-.024-2.594-.063.008 1.594-.313 2.344-.625 2.688-.336.37-.816.437-1.531.437h-.375c-.434 0-1.14.012-1.594.563-.188.23-.402.632-.281 1.25.093.468.523.812 1 .812H41.78c.555 0 1-.445 1-1 0-.313-.148-.598-.375-.781-.746-.805-1.652-.813-2.156-.813h-.156c-.324 0-.45-.011-.5-.062-.117-.117-.457-.7-.469-3.157z"/></svg>