<svg xmlns="http://www.w3.org/2000/svg" viewBox="0 0 26 26"><path d="M25.969 14.031a16.485 16.485 0 0 0-.371-2.71c-.082-.395-.18-.786-.29-1.173-.148-.507-.292-1.414-.48-1.515-.156-.082-1.656.195-2.574.34-.567.086-1.133.18-1.695.285-.688.133-1.383.234-2.07.39a33.1 33.1 0 0 0-1.934.512c-.492.145-.977.313-1.457.477-.414.144-.828.297-1.239.457-.191.07-.433.312-.566.238-.2-.117-.309-.535-.434-.812a10.46 10.46 0 0 1-.406-1.075 10.58 10.58 0 0 1-.277-1.015c-.102-.453-.172-.914-.254-1.375-.125-.72-.235-1.442-.371-2.16-.051-.266-.125-.528-.196-.79-.015-.07-.02-.156-.058-.214a.2.2 0 0 0-.133-.082c-.11-.016-.23.011-.348.023a6.404 6.404 0 0 0-.394.047c-.113.02-.227.055-.34.062-.086 0-.176-.023-.262-.039-.047-.007-.133-.058-.133-.023-.015.2.04.488.083.73.082.41.175.825.289 1.23.093.329.203.657.328.977.136.368.3.727.457 1.086.152.356.308.703.469 1.051.187.418.39.824.574 1.242.164.371.312.746.457 1.125.035.09.144.227.086.274-.176.144-.524.215-.793.3-.422.13-.848.243-1.278.344-.515.13-1.043.227-1.562.348-.531.125-1.059.25-1.586.383-.457.113-.91.23-1.36.355a6.992 6.992 0 0 0-.484.156 9.202 9.202 0 0 0-.758.325c-.293.144-.578.312-.863.476-.156.086-.426.16-.457.274-.027.101.191.242.277.37.082.134.157.278.227.419.094.18.16.379.266.55.039.067.105.114.168.165.046.043.097.093.156.109.113.027.238.031.36.023a1.65 1.65 0 0 0 .386-.074c.191-.055.383-.117.562-.203.247-.113.485-.246.711-.39.36-.231.7-.485 1.047-.731.285-.2.555-.43.852-.61.234-.14.496-.234.746-.343.32-.149.64-.297.965-.434.418-.172.843-.344 1.273-.5.387-.14.781-.273 1.18-.383.058-.015.152-.043.191 0 .14.153.246.383.348.586.168.336.332.676.457 1.028.164.46.281.937.41 1.41.082.305.156.617.227.93.093.41.168.824.265 1.23.075.309.164.613.254.922.074.258.14.52.227.773.097.278.21.547.328.813.074.18.121.484.25.523.137.047.375-.164.555-.261.12-.067.246-.149.347-.239.035-.031.047-.086.063-.133.015-.066.035-.14.035-.214-.004-.051-.043-.102-.05-.153-.04-.289-.052-.586-.095-.875a18.568 18.568 0 0 0-.242-1.3 14.219 14.219 0 0 0-.758-2.375 16.356 16.356 0 0 0-.504-1.098c-.168-.348-.363-.676-.539-1.016-.144-.277-.445-.617-.421-.836.015-.136.359-.164.539-.238.207-.086.414-.176.625-.238a11.9 11.9 0 0 1 .988-.25c.297-.067.598-.117.898-.157.469-.058.938-.113 1.41-.144.59-.035 1.184-.043 1.778-.059.89-.023 1.781-.011 2.672-.047.535-.023 1.234-.304 1.597-.132.22.101.121.636.157.957.062.535.125 1.074.144 1.61.016.44-.008.886-.039 1.323a7.206 7.206 0 0 1-.086.711c-.074.469-.144.942-.258 1.406-.113.446-.258.887-.41 1.325a14.39 14.39 0 0 1-.504 1.254c-.14.304-.308.597-.48.882a9.819 9.819 0 0 1-.52.79 8.746 8.746 0 0 1-.562.695c-.29.316-.582.633-.903.918-.293.261-.613.5-.937.718-.254.168-.527.301-.797.442-.172.09-.352.168-.527.25-.157.07-.309.148-.47.203a7.774 7.774 0 0 1-.769.215c-.39.09-.785.18-1.18.238-.41.063-.824.094-1.238.121-.386.028-.78.063-1.168.047-.464-.015-.933-.07-1.394-.144a8.168 8.168 0 0 1-.961-.227c-.293-.082-.582-.18-.867-.285-.414-.156-.832-.313-1.239-.504a22.82 22.82 0 0 1-1.37-.715 32.753 32.753 0 0 1-1.286-.765 84.23 84.23 0 0 1-1.394-.883c-.317-.203-.64-.395-.942-.621a4.1 4.1 0 0 1-.539-.504 6.894 6.894 0 0 1-.722-.895c-.305-.473-.57-.973-.817-1.48a9.795 9.795 0 0 1-.445-1.137c-.133-.39-.246-.79-.336-1.191a9.639 9.639 0 0 1-.168-1.051c-.059-.489-.09-.98-.113-1.469a6.74 6.74 0 0 1-.008-.687c.008-.387.027-.774.07-1.153a21.48 21.48 0 0 1 .23-1.504c.067-.343.169-.68.27-1.011.113-.375.227-.75.367-1.118.145-.37.305-.738.48-1.097A10.91 10.91 0 0 1 3.856 4.62a9.53 9.53 0 0 1 .637-.742 9.657 9.657 0 0 1 1.672-1.445c.3-.204.625-.38.95-.547.253-.133.519-.239.78-.348.305-.125.614-.254.926-.348.25-.074.512-.113.77-.156.316-.05.633-.11.95-.129a8.12 8.12 0 0 1 1.023 0c.332.02.667.055 1 .106a12.592 12.592 0 0 1 2.078.527c.34.113.675.238 1.011.371.375.149.75.305 1.118.477.437.203.867.425 1.296.644.41.211.809.434 1.215.645.27.14.559.254.813.414.242.152.468.336.68.531.199.18.363.395.542.598.168.191.34.379.493.586.168.226.304.476.457.715.082.132.148.351.254.394.066.027.164-.144.257-.187.192-.086.407-.133.606-.207.187-.067.387-.118.555-.215.152-.09.421-.215.464-.297.055-.102.024-.555-.058-.778-.157-.445-.383-.93-.715-1.265-.5-.504-1.156-.875-1.774-1.254a20.746 20.746 0 0 0-1.886-1.055c-.77-.375-1.555-.746-2.371-1-.688-.219-1.407-.36-2.121-.48-.434-.07-.868-.121-1.305-.14-1.188-.056-2.383-.036-3.57 0-.957.027-1.485.1-2.407.3-.574.121-.96.281-1.398.512-.527.273-.828.472-1.254.855a9.27 9.27 0 0 0-1.16 1.184c-.313.379-.64.75-.934 1.14-.273.36-.523.739-.773 1.118-.219.332-.43.668-.625 1.015-.192.34-.36.692-.531 1.04-.153.312-.313.62-.446.945-.172.418-.336.843-.469 1.277a16.114 16.114 0 0 0-.394 1.61c-.09.468-.133.948-.168 1.421a9.19 9.19 0 0 0-.035 1.184c.023.535.086 1.07.168 1.601.058.38.199.992.316 1.36.172.523.367 1.043.598 1.543.258.558.574 1.101.914 1.62.281.442.605.868.95 1.266.316.371.66.723 1.019 1.051.367.336.761.64 1.152.945.164.13.332.25.508.368.328.214.656.425 1 .613.37.2.75.394 1.14.558.508.215 1.032.391 1.547.575.328.113.864.285 1.196.375.46.12.925.234 1.394.316.422.074.852.121 1.277.14.458.024.915.016 1.372-.007.605-.031 1.21-.09 1.812-.156.617-.067 1.234-.133 1.84-.239.379-.066.75-.16 1.117-.273.246-.074.637-.227.867-.34.336-.156.664-.332.977-.535.281-.184.547-.398.805-.621.304-.262.597-.543.875-.836.222-.234.562-.637.761-.89.266-.344.52-.692.754-1.055.23-.352.43-.727.613-1.102.168-.328.325-.668.446-1.012.117-.332.207-.672.277-1.015.086-.41.14-.832.192-1.246.039-.309.09-.813.097-1.125.016-.493.004-.993-.023-1.485z"/></svg>