<svg xmlns="http://www.w3.org/2000/svg" viewBox="0 0 595.28 595.28"><path fill="#0089CF" d="M367.9 230.81L297.64 14.57l-70.26 216.24H0l183.95 133.65-70.26 216.25 183.95-133.65 183.95 133.65-70.26-216.25 183.95-133.64H367.9zm14.9 142.92l41.73 128.44-109.26-79.38-17.63-12.81-17.63 12.81-109.26 79.38 41.73-128.44 6.74-20.73-17.63-12.8L92.33 260.8H249.18l6.73-20.73 41.73-128.43 41.73 128.43 6.74 20.73h156.84L393.69 340.2 376.06 353l6.74 20.73zM595.27 14.57v128.9l-54.82 39.83 20.94-64.45-54.83-39.83h67.77l20.94-64.45zm0 397.41v128.9l-54.82 39.83 20.94-64.45-54.83-39.83h67.77l20.94-64.45zM20.94 79.02h67.77l-54.83 39.83 20.94 64.45L0 143.47V14.57l20.94 64.45zm0 397.4h67.77l-54.83 39.84 20.94 64.45L0 540.88v-128.9l20.94 64.45z"></path></svg>