<svg xmlns="http://www.w3.org/2000/svg" viewBox="0 0 48 48"><path d="M6 6h16v16H6z" fill="#ffc107"/><path d="M26 6h16v16H26z" fill="#4caf50"/><path d="M26 26h16v16H26z" fill="#ff5722"/><path d="M6 26h16v16H6z" fill="#2196f3"/><path d="M36.188 15.691l-2.504 1.664A11.186 11.186 0 0 1 35.41 22h3.04c-.391-3.766-2.263-6.309-2.263-6.309zm-5.298-1.179l1.766-2.387C30.367 10.379 27.918 9.691 26 9.449v3.02c3.035.488 4.867 2.039 4.867 2.039s.012.004.024.004zm1.56 26.308l-.891.14L29.62 29l.516-.082 9.761-.023L31.5 34.94zm-15.063-7.16s-.012 0-.024-.004l-1.765 2.39c2.187 1.669 4.523 2.368 6.398 2.638V42L22 35.652c-2.887-.527-4.613-1.992-4.613-1.992zM9.79 26c.35 3.86 2.276 6.477 2.276 6.477l2.504-1.664A11.162 11.162 0 0 1 12.824 26z" fill="#263238"/><path d="M13.93 9.305c0-.196-.207-.352-.465-.352-.254 0-.461.156-.461.352 0 .191.207.347.46.347.259 0 .466-.156.466-.347z" fill="#ffc107"/><path d="M14.785 8.547a1.34 1.34 0 0 0-1.348-1.336c-.742 0-1.347.598-1.347 1.336 0 .734.605 1.332 1.348 1.332a1.34 1.34 0 0 0 1.347-1.332zm-4.215.793a8.83 8.83 0 0 1-2.086-2.2l-.902-.054c.441.95.922 1.723 1.488 2.52z" fill="#263238"/><path d="M12.422 21.996c-.063-.75-.262-3.984.2-5.527.519-1.735 1.081-2.399 1.081-2.399 2.496-.039 4.164 3.325 4.305 3.57.867-.199 2.633.169 2.933.356-1.117-3.652-6.039-5.781-6.039-5.781 1.86-1.723 3.036-3.86 3.414-5.098l-.484-.015c-2.05 2.793-4.125 3.953-4.125 3.953a10.22 10.22 0 0 1-1.816-.825l.5-.43-4.262 2.427.707.62 1.64-1.402c.75.875 1.31 1.414 1.31 1.414-2.52 3.48-2.356 7.676-2.204 9.137zM9.555 10.293c.113.152.218.289.355.46l1.54-.78c-.145-.09-.247-.168-.36-.254l.918-.344-1.082.223-.664.14-3.067.633.41.649z" fill="#263238"/></svg>