<svg xmlns="http://www.w3.org/2000/svg" viewBox="0 0 595.28 595.28"><path fill="#F15A22" d="M30.52 213.43L0 307.34v-50.82l19.1-58.8h61.83L30.9 161.4 50 102.6 0 138.93V119.5l79.89-58.04-30.51 93.92 79.88 58.04H30.52zm70.17-120.86l20.55-7 13.01 17.37-.31-21.7 20.55-7.01-20.74-6.41-.31-21.71-12.51 17.75-20.74-6.41 13.01 17.37-12.5 17.75zm349.83-1.8l14.75-15.92 19.7 9.1L474.4 65l14.75-15.93-21.3 4.22-10.6-18.95-2.56 21.55-21.3 4.22 19.71 9.1-2.57 21.57zM339.14 198.1l15.45 97.53-69.83-69.83-87.98 44.84 44.83-87.99-69.82-69.83 97.53 15.45 44.83-87.98 15.44 97.53 97.54 15.45-87.99 44.83zm-7.63 52.25l-9.67-61.07 55.1-28.06-61.07-9.68-9.68-61.05-28.06 55.08-61.06-9.67 43.71 43.71-28.06 55.09 55.08-28.07 43.71 43.72zM515.4 61.47l30.51 93.92-79.88 58.04h98.74l30.52 93.91v-50.82l-19.1-58.8h-61.83l50.02-36.34-19.1-58.8 50.01 36.35V119.5L515.4 61.48zM30.51 407.41L0 313.49v50.82l19.1 58.8h61.83L30.9 459.45l19.1 58.8L0 481.9v19.4l79.89 58.05-30.51-93.91 79.88-58.04H30.52zM137.04 561l3.09 21.5 10.13-19.2 21.4 3.7-15.14-15.58 10.14-19.2-19.49 9.58-15.12-15.57 3.08 21.5-19.48 9.57 21.4 3.7zm291.49-17.54l-8.1 20.14 18.4-11.54L455.47 566l-5.3-21.05 18.4-11.54-21.67-1.48-5.29-21.05-8.1 20.14-21.65-1.47 16.66 13.93zm-328.36-218.9l19.93-8.62-21.19-4.74-2.03-21.62-11.06 18.68-21.19-4.75 14.35 16.3-11.06 18.68 19.93-8.61 14.35 16.3-2.03-21.63zm238.97 98.18l15.45-97.53-69.83 69.82-87.98-44.83 44.83 87.98-69.82 69.83 97.53-15.45 44.83 87.99 15.44-97.53 97.54-15.45-87.99-44.83zm-7.63-52.25l-9.67 61.06 55.1 28.07-61.07 9.67-9.68 61.06-28.06-55.09-61.06 9.68 43.71-43.72-28.06-55.08 55.08 28.06 43.71-43.71zm263.77 130.82V481.9l-50.02 36.34 19.1-58.8-50.01-36.34h61.82l19.1-58.8v-50.8l-30.5 93.92h-98.75l79.88 58.04-30.5 93.92 79.88-58.05zM453.83 318.4l15.57-15.12-21.5 3.08-9.56-19.49-3.71 21.4-21.5 3.07 19.2 10.14-3.7 21.4 15.57-15.13 19.2 10.14-9.57-19.49z"></path></svg>