<svg xmlns="http://www.w3.org/2000/svg" viewBox="0 0 595.28 595.28"><path fill="#E93657" d="M297.63 72.64c-124.06 0-225 100.93-225 225s100.94 225.01 225 225.01c124.08 0 225.02-100.94 225.02-225 0-124.08-100.94-225.01-225.01-225.01zm0 413.91c-104.16 0-188.9-84.74-188.9-188.9 0-104.17 84.74-188.91 188.9-188.91s188.92 84.74 188.92 188.9c0 104.17-84.75 188.91-188.92 188.91zM390 293.88c-28.88 55.14-94.56 93.34-94.56 93.34s-64.2-40.65-90.97-96.84c-26.78-56.18 59.85-98.63 92.76 1.75 36.67-99.06 121.65-53.38 92.77 1.75z"></path><path fill="#F7966B" d="M0 135.01V46.35a44.33 44.33 0 0 1 0 88.66zM44.33 504.6A44.33 44.33 0 0 0 0 460.27v88.66a44.33 44.33 0 0 0 44.33-44.33zM550.95 90.68a44.33 44.33 0 0 0 44.33 44.33V46.35a44.33 44.33 0 0 0-44.33 44.33zm0 413.92a44.33 44.33 0 0 0 44.33 44.33v-88.66a44.33 44.33 0 0 0-44.33 44.33z"></path></svg>