<svg xmlns="http://www.w3.org/2000/svg" viewBox="0 0 48 48"><path d="M44 7L30.691 9.238 17 7a1.999 1.999 0 1 0 0 4h27a1.999 1.999 0 1 0 0-4z" fill="#42a5f5"/><path d="M29 9.5h3V18h-3z" fill="#455a64"/><path d="M32 9.5a1.5 1.5 0 1 1-3 0 1.5 1.5 0 0 1 3 0z" fill="#455a64"/><path d="M12 18a5 5 0 1 1-10 0 5 5 0 0 1 10 0z" fill="#42a5f5"/><path d="M7 18l-1.574-4.723A4.883 4.883 0 0 1 7 13c.555 0 1.078.11 1.574.277zm0 5c-.555 0-1.078-.11-1.574-.277L7 18l1.574 4.723A4.883 4.883 0 0 1 7 23z" fill="#1976d2"/><path d="M38 31v7m-8-8v8m15-2c0 3-3 3-3 3H22" fill="none" stroke-width="2" stroke="#455a64"/><path d="M35 16c-6-1-11 1-11 1l1.668 5H21l1.313 3.906C25 33 34 33 34 33h6c3.313 0 6-2 6-5 0-7-6.934-11.32-11-12z" fill="#ffc107"/><path d="M21 22L7 19v-2h17l2 5z" fill="#ffc107"/><path d="M8 18c0 .55-.45 1-1 1s-1-.45-1-1 .45-1 1-1 1 .45 1 1z" fill="#ffc107"/><path d="M35.79 16.168C39.901 17.227 46 21.438 46 28a4.6 4.6 0 0 1-.352 1.77L40 28.797zm-1.356 2.254l-.243-.625a21.78 21.78 0 0 0-2.05-.102c-1.078 0-2.106.075-3.04.18L31 24l5.605.934z" fill="#455a64"/></svg>