<svg xmlns="http://www.w3.org/2000/svg" viewBox="0 0 48 48"><path d="M29 27H5s1 0 2 3 2 6 7 6c2 0 14 1 18 1 4.887 0 6.457-7.29 9.566-10z" fill="#795548"/><path d="M44 34c-3 0-4-2-4-2s-1 2-4 2-4-2-4-2-1 2-4 2-4-2-4-2-1 2-4 2-4-2-4-2-1 2-4 2-4-2-4-2-1 2-4 2v8h40z" fill="#90caf9"/><path d="M44 38c-3 0-4-2-4-2s-1 2-4 2-4-2-4-2-1 2-4 2-4-2-4-2-1 2-4 2-4-2-4-2-1 2-4 2-4-2-4-2-1 2-4 2v4h40z" fill="#2196f3"/><path d="M15 24H5v3h13c-3 0-3-3-3-3zm17-1s0 4-3 4h15v-4zM22 7.207h2V27h-2z" fill="#5d4037"/><path d="M13 29h2v2h-2zm6 0h2v2h-2zm6 0h2v2h-2zm6 0h2v2h-2z" fill="#3e2723"/><path d="M22 6.246v4c3.914-1.418 7.586 1 10-4-4.164 2.836-6.336-1.25-10 0z" fill="#ff3d00"/><path d="M31 12s3 3 2 9h9s-4-7-11-9zm-2 13H17.11c3.89-6 0-13 0-13H29s5 7 0 13zm-12.648-3c1.062-3.16.109-6.395-.528-8H8s2 4 .11 8z" fill="#90caf9"/></svg>