<svg xmlns="http://www.w3.org/2000/svg" viewBox="0 0 24 24"><path d="M12.5 2c-.938.047-3 .25-4.5 1v2c3-2 5-2 5-2V2s-.188-.016-.5 0zm.5 2L6 6c2 3 2 8 2 8 2-1 7-1 7-1 0-7-2-9-2-9zm1.469.281C16.727 9.36 16 12 16 12h5s-1.379-4.906-6.531-7.719zM2 13v3h2l1.438 2.875c.55-.133 1.128-.379 1.562-.875.7.8 1.8 1 2.5 1s1.8-.2 2.5-1c.7.8 1.8 1 2.5 1s1.8-.2 2.5-1c.535.613 1.293.879 1.938.969A14.968 14.968 0 0 0 22 13h-6l-1 2H8l-1-2zm0 6v2c.7.8 1.8 1 2.5 1s1.8-.2 2.5-1c.7.8 1.8 1 2.5 1s1.8-.2 2.5-1c.7.8 1.8 1 2.5 1s1.8-.2 2.5-1c.7.8 1.8 1 2.5 1s1.8-.2 2.5-1v-2c-.7.8-1.8 1-2.5 1s-1.8-.2-2.5-1c-.7.8-1.8 1-2.5 1s-1.8-.2-2.5-1c-.7.8-1.8 1-2.5 1s-1.8-.2-2.5-1c-.7.8-1.8 1-2.5 1s-1.8-.2-2.5-1z"/></svg>