<svg xmlns="http://www.w3.org/2000/svg" viewBox="0 0 32 32"><path d="M16.844 4l-6 1 .312 2 6-1zm2.187 1.969l-.218.062-10 2-1.782.344 1.25 1.313S11 12.608 11 17v1.594l1.438-.688C14.335 16.984 20.812 15 25 15h1.219l-.25-1.219c-1.332-6.363-6.75-7.75-6.75-7.75zm-.125 2.062c.203.047 3.285.961 4.688 5.094-4 .27-8.242 1.52-10.782 2.563-.34-3.032-1.324-4.852-2.156-6zM2 15v5.406l.281.313.844.843c.063.208.254.774.625 1.688.227.55.469 1.152.781 1.719A3.35 3.35 0 0 1 4 25c-.633 0-1.203-.188-1.563-.438C2.079 24.313 2 24.044 2 24H0c0 .941.59 1.684 1.313 2.188C2.034 26.69 2.96 27 4 27c1.035 0 1.96-.309 2.688-.813.113-.078.207-.16.312-.25.102.086.203.176.313.25C8.034 26.692 8.96 27 10 27c1.035 0 1.96-.309 2.688-.813.113-.078.207-.16.312-.25.102.086.203.176.313.25.722.504 1.648.813 2.687.813 1.035 0 1.96-.309 2.688-.813.113-.078.207-.16.312-.25.102.086.203.176.313.25.722.504 1.648.813 2.687.813 1.035 0 1.96-.309 2.688-.813.113-.078.207-.16.312-.25.102.086.203.176.313.25.722.504 1.648.813 2.687.813 1.035 0 1.96-.309 2.688-.813C31.413 25.684 32 24.942 32 24h-2c0 .059-.082.316-.438.563-.355.246-.925.437-1.562.437a3.03 3.03 0 0 1-1.031-.188C28.363 23.54 30 21.157 30 17v-1h-8.531l-.313.438L19.438 19H9.624l-2-4zm2 2h2.375l2 4h12.156l.313-.438L22.562 18h5.313c-.336 4.004-2.336 5.559-3.125 6H24c0 .059-.082.316-.438.563-.355.246-.925.437-1.562.437-.633 0-1.203-.188-1.563-.438-.359-.25-.437-.519-.437-.562h-2c0 .059-.082.316-.438.563-.355.246-.925.437-1.562.437-.633 0-1.203-.188-1.563-.438-.359-.25-.437-.519-.437-.562h-2c0 .059-.082.316-.438.563-.355.246-.925.437-1.562.437-.633 0-1.203-.188-1.563-.438C8.079 24.313 8 24.044 8 24H6.312a13.943 13.943 0 0 1-.718-1.5 18.522 18.522 0 0 1-.625-1.781l-.094-.25-.156-.188L4 19.563zm21 2c-.55 0-1 .45-1 1s.45 1 1 1 1-.45 1-1-.45-1-1-1z"/></svg>