<svg xmlns="http://www.w3.org/2000/svg" viewBox="0 0 595.28 595.28"><path fill="#00AAAD" d="M377.78 291.4c-23 48.27-78.14 83.19-78.14 83.19l-2-1.21c-1.29.8-2 1.2-2 1.2s-55.14-34.91-78.15-83.17c-23-48.27 51.42-84.73 79.69 1.5l.46-1.19.46 1.19c28.27-86.23 102.69-49.77 79.68-1.5zm217.9-13.07v38.62H493.86a196.53 196.53 0 0 1-53.22 116.25l-.51.55-1.94 1.99c-.4.4-.8.83-1.21 1.23l-1.29 1.26-1.94 1.9-.6.56a196.52 196.52 0 0 1-116.2 53.17v101.82h-38.62V493.86a196.47 196.47 0 0 1-113.5-50.65l-.01-.01-2.59-2.41-.7-.67-1.84-1.79-1.4-1.36-1.1-1.14c-.69-.69-1.37-1.38-2.05-2.09l-.42-.45a196.54 196.54 0 0 1-53.3-116.34H-.4v-38.62h101.83a196.53 196.53 0 0 1 53.17-116.2l.55-.6c.63-.66 1.28-1.3 1.92-1.96.41-.42.82-.85 1.24-1.26l1.26-1.24c.65-.64 1.3-1.29 1.96-1.92l.59-.55a196.53 196.53 0 0 1 116.21-53.18V-.4h38.62v101.83a196.53 196.53 0 0 1 116.36 53.31l.43.4 2.12 2.07 1.1 1.08 1.4 1.42 1.76 1.81.69.73c.8.85 1.6 1.7 2.39 2.57l.03.03a196.46 196.46 0 0 1 50.63 113.48h101.82zM409.7 409.7a157.97 157.97 0 0 0 46.41-111.95v-.22c0-43.66-17.74-83.25-46.4-111.94a157.97 157.97 0 0 0-111.95-46.42h-.22a157.97 157.97 0 0 0-111.94 46.42 157.97 157.97 0 0 0-46.42 111.94v.22c0 43.66 17.75 83.26 46.42 111.95a157.97 157.97 0 0 0 111.94 46.4h.22c43.66 0 83.25-17.74 111.94-46.4z"></path></svg>