<svg xmlns="http://www.w3.org/2000/svg" viewBox="0 0 48 48"><path d="M21 38C18 35 8 23.3 8 15S15.7 2 24 2s16 4.7 16 13-9.898 19.898-13 23z" fill="#43a047"/><path d="M24 2S14 4.898 14 15s9 23 9 23h1s-4-12-4-23 4-13 4-13zm0 0s4 2.2 4 13-4 23-4 23h1s9-13 9-23S24 2 24 2z" fill="#fdd835"/><path d="M20.102 18c-2 1.3-4 1.398-5.903 0-.199-1-.3-2-.3-3 0-1.102.101-2.102.3-3C16 13.398 18 13.3 20 12v3c0 1 0 2 .102 3zm13.597-6c-1.8 1.398-3.8 1.3-5.8 0 .101.898.101 1.898.101 3 0 1 0 2-.102 3 2 1.3 4 1.398 5.903 0 .199-1 .3-2 .3-3-.101-1.102-.203-2.102-.402-3z" fill="#ffb300"/><path d="M39.602 18c-1.204 1.602-4 1-5.903 0 .2-1 .301-2 .301-3 0-1.102-.102-2.102-.3-3 3 1.398 5.5 1.3 6 0 .198.898.3 1.898.3 3 0 1-.102 2-.398 3zM14.3 12c-1.903 1-4.801 1.602-6 0-.2.898-.301 1.898-.301 3 0 1 .102 2 .398 3 1.204 1.602 4 1 5.903 0-.2-1-.301-2-.301-3 0-1.102.102-2.102.3-3zm5.7 3c0 1 0 2 .102 3 2.597 1.3 5.199 1.3 7.796 0C28 17 28 16 28 15c0-1.102 0-2.102-.102-3-2.597 1.3-5.199 1.3-7.796 0C20 12.898 20 13.898 20 15z" fill="#2e7d32"/><path d="M21 37h2v4h-2zm4 0v4h2v-4z" fill="#cfd8dc"/><path d="M21 40v4c0 .5.5 1 1 1h4c.5 0 1-.5 1-1v-4z" fill="#fb8c00"/><path d="M18.3 35c1.098 1.3 2.098 2.398 2.7 3h6c.7-.7 1.602-1.7 2.7-3z" fill="#5d4037"/></svg>