<?xml version="1.0" encoding="utf-8"?>
<!-- Generator: Adobe Illustrator 22.0.1, SVG Export Plug-In . SVG Version: 6.00 Build 0)  -->
<svg version="1.1" xmlns="http://www.w3.org/2000/svg" xmlns:xlink="http://www.w3.org/1999/xlink" x="0px" y="0px"
	 viewBox="0 0 106.412 144.985" enable-background="new 0 0 106.412 144.985" xml:space="preserve">
<g id="BACKGROUND">
</g>
<g id="OBJECTS">
	<g>
		<path fill="#FFFFFF" d="M104.237,50.702c-0.035-1.39-0.645-2.776-1.906-3.547c-1.756-1.073-3.649-1.895-5.542-2.729
			c2.095-2.214,4.251-4.367,6.476-6.468c2.413-2.278,1.21-6.551-1.948-7.377c-2.349-0.615-4.988-1.532-7.686-2.325l2.979-3.11
			c2.49-2.6,1.136-6.29-1.975-7.481c-5.28-2.021-11.325-5.423-16.917-6.213c-4.225-0.597-7.8,3.096-10.584,6.289
			c-2.658-0.592-5.326-1.115-8.019-1.372c-0.758-2.587-1.572-5.677-3.72-7.421c-2.259-1.833-4.741-1.387-7.439-1.164
			c-3.876,0.319-7.764,0.605-11.622,1.104c-2.038,0.264-4.299,1.663-4.087,4.087c0.029,0.334,0.059,0.666,0.088,0.998
			c-0.733,0.215-1.4,0.595-1.865,1.115c-4.449,4.969-9.367,9.284-14.97,12.913c-2.196,1.422-2.93,4.918-1.05,6.795
			c-1.969,2.32-3.717,5.028-5.544,7.338c-1.918,2.424-4.497,4.92-5.932,7.658c-2.522,4.812,0.207,8.23,4.911,9.581
			c5.266,1.513,9.582,4.499,14.497,6.589c0.21,1.945,0.387,3.915,0.672,5.859c-1.974,15.003-0.845,30.693-0.891,45.77
			c-0.02,6.223-1.317,14.09,2.822,19.337c3.592,4.554,9.553,5.749,15.05,6.088c7.86,0.484,15.871,0.121,23.717-0.437
			c6.599-0.469,15.375-0.161,21.401-3.286c5.891-3.055,5.868-9.083,6.154-14.948c0.414-8.479,0.828-16.958,1.242-25.436
			c0.7-14.329,0.382-31.485,11.868-41.924C106.652,54.953,105.987,52.263,104.237,50.702z M68.204,132.903
			c1.081,0.141,2.249,0.059,3.505-0.304c0.161,0.09,0.325,0.168,0.494,0.239c-1.473,0.16-2.948,0.307-4.424,0.438
			C67.926,133.155,68.065,133.029,68.204,132.903z M67.212,26.663c-0.084,0.181-0.164,0.364-0.241,0.55
			c-0.091,0.065-0.172,0.14-0.259,0.208c-1.006-0.565-2.069-1.049-3.188-1.43c-0.051-0.35-0.141-0.698-0.276-1.039
			c1.104,0.393,2.192,0.849,3.255,1.412C66.728,26.483,66.966,26.581,67.212,26.663z M32.706,131.814
			c0.767,0.584,1.743,0.885,2.743,0.909c0.391,0.325,0.796,0.636,1.222,0.924c-0.521-0.114-1.037-0.245-1.542-0.412
			C34.066,132.883,33.289,132.396,32.706,131.814z"/>
		<g>
			<path fill="#222221" d="M98.396,52.306c0.3,0.21,0.48,0.66,0.24,0.98c-3.53,4.68-7.02,9.47-10.83,13.94
				c0.32,0.17,0.55,0.51,0.47,0.96c-3.36,18.22-5.35,36.66-5.8,55.18c-0.1,4.1,1.65,10.69-3.16,12.31
				c-3.04,1.02-7.05,0.78-10.27,1.03c-4.47,0.35-8.95,0.59-13.44,0.71c-4.48,0.12-8.97,0.13-13.45,0.03
				c-2.32-0.06-5.75,0.33-7.87-1.04c-3.95-2.55-4.99-10.05-5.51-14.13c-1.06-8.43-0.79-17.1-1.01-25.58
				c-0.23-9.01-0.62-18.04-0.48-27.05c-0.02,0-0.03,0-0.05,0c-0.67-0.07-0.72-1.02-0.08-1.11c-0.93-2.31-1.74-4.68-2.46-7.08
				c-3.56-2.77-6.7-4.62-11.2-5.8c-2.66-0.69-2.87-2.42-3.28-4.81c-0.54-0.59-0.4-1.05-0.04-2.02c0.89-2.48,3.59-5.15,5.1-7.32
				c1.02-1.46,2.14-4.21,3.7-5.08c1.53-0.85,2.94,0.21,4.23,1.32c0.12-0.13,0.25-0.25,0.39-0.36c-0.17-0.24-0.12-0.67,0.22-0.74
				c2.02-0.38,4.05-0.73,6.08-1.08c-2.68-1.83-5.25-3.83-7.85-5.78c-0.38-0.29-0.37-0.74,0-1.03c3.16-2.43,6.32-5.41,9.75-7.44
				c1.28-0.76,2.83-0.7,4.35-0.41c-0.29-1.64-0.71-3.96,0.11-5.06c0.92-1.23,4.04-1.28,5.39-1.58c3.75-0.83,8.07-2.12,10.78,1.34
				c2.09,0.49,2.41,4,2.81,5.98c3.25-0.09,7,0.15,9.77,1.22c1.07,0.4,2.01,1.02,2.87,1.75c1.16-1.62,2.66-4.14,4.49-5.24
				c-0.28-0.16-0.31-0.65,0.09-0.79c3.09-1.04,4.65-2.15,7.87-1.17c3.47,1.05,8.04,1.7,11.15,3.52c0.97,0.57,1.33,0.93,1,2.09
				c-0.36,1.25-2.35,2.77-3.09,3.86c-1.22,1.79-2.12,3.76-2.86,5.79c2.89,0.59,5.76,1.3,8.61,1.87c0.3,0.06,0.51,0.45,0.42,0.74
				c-1.25,3.83-2.93,7.49-4.71,11.11c2.09,0.4,4.08,0.97,6.25,1.11c0.24,0.01,0.52,0.17,0.57,0.43
				C97.926,49.346,98.206,50.816,98.396,52.306z M89.146,49.716c2.73,0.75,5.46,1.5,8.19,2.25c-0.28-1.11-0.5-2.24-0.73-3.36
				c-2.07-0.09-4.38-0.36-6.3-1.19C89.926,48.186,89.536,48.956,89.146,49.716z M96.756,53.346c-2.7-0.72-5.4-1.45-8.09-2.18
				c-0.08-0.02-0.14-0.06-0.2-0.1c-2.67,5.27-5.28,10.56-6.86,16.22c1.32-0.08,2.63-0.15,3.94-0.25c0.42-0.03,0.68,0.19,0.79,0.47
				C89.616,62.666,93.266,58.046,96.756,53.346z M92.866,39.156c1.19-3.02,1.01-3.26-1.96-4.32c-1.45-0.52-3.29-1.09-5.23-1.52
				c-0.06-0.01-0.11-0.01-0.16-0.03c-1.84-0.4-3.78-0.66-5.59-0.61c-0.22,0.23-0.51,0.2-0.71,0.03c-1.73,0.13-3.3,0.58-4.5,1.53
				c4.49,0.58,8.98,1.15,13.46,1.8c0.44,0.06,0.59,0.49,0.51,0.86c0.34-0.16,0.79,0.15,0.56,0.56c-5.08,9.13-8.68,19.75-10.69,30.03
				c0.69-0.04,1.38-0.1,2.07-0.14c1.29-7.28,5.64-13.95,8.84-20.54c-0.02-0.19,0.08-0.39,0.25-0.51
				C90.836,43.946,91.916,41.576,92.866,39.156z M89.396,24.446c1.22-1.55,2.26-1.81,0.09-2.79c-2.75-1.23-5.9-1.9-8.77-2.84
				c-2.32-0.75-4.01-0.46-5.98,0.03c1.51,0.28,3.46,1.45,4.69,1.93c2.34,0.92,4.68,1.83,7.02,2.75c0.49,0.2,0.77,0.83,0.33,1.25
				c-2.26,2.14-4.08,4.56-6.03,6.93c1.47,0.15,2.95,0.38,4.42,0.65c0.7-2,1.54-3.91,2.67-5.71
				C88.316,25.886,88.836,25.156,89.396,24.446z M88.206,37.476c-0.07,0.02-0.14,0.03-0.22,0.02c-3.35-0.4-7.24-1.51-10.62-1.39
				c-2.84,0.11-2.78,0.21-3.87,2.58c-0.74,1.6-0.93,3.73-1.27,5.48c-1.49,7.57-1.49,15-1.31,22.63c0.19,0.34,0.37,0.68,0.56,1.01
				c1.87-0.07,3.75-0.16,5.62-0.26c0.74-5.46,2.41-10.68,4.37-15.84C83.316,46.836,85.106,41.706,88.206,37.476z M86.396,68.746
				c-0.14,0.03-0.29-0.03-0.39-0.14c-0.13,0.1-0.27,0.17-0.46,0.19c-18.7,1.72-38.18,2.71-56.94,0.97
				c0.99,14.44,0.96,28.97,1.39,43.43c0.19,6.43-0.23,17.33,5.95,20.95c5.67,3.33,16,1.64,22.54,1.39
				c3.53-0.14,7.04-0.34,10.56-0.61c1.85-0.15,3.91-0.17,5.74-0.52l1.91-0.19c3.08-0.84,4.38-2.53,3.9-5.08
				c0.63-2.92,0.1-6.6,0.21-9.61c0.14-3.85,0.34-7.69,0.61-11.53C82.316,94.826,84.026,81.736,86.396,68.746z M84.886,24.506
				c-2.58-1.03-5.17-2.06-7.76-3.1c-2.09-0.85-3.15-1.28-5.15,0.2c-1.26,0.94-2.31,2.41-3.46,3.53c1.09,1.05,2.04,2.28,2.89,3.5
				c0.19,0.27,0.1,0.57-0.1,0.77c-0.02,0.04-0.03,0.08-0.06,0.11c-2.47,3.83-4.7,7.68-6.7,11.6c0,0.05,0.02,0.09,0.02,0.15
				c-0.24,8.38,1.53,15.82,5.1,23.1c-1.06-9.93,0.54-20.22,3.43-29.69c0.02-0.08,0.07-0.17,0.13-0.25
				c-0.02-0.14,0.02-0.28,0.14-0.41c1.68-1.78,3.59-2.38,5.82-2.39C80.576,28.956,82.716,26.606,84.886,24.506z M70.146,67.856
				c-0.03-0.2-0.06-0.41-0.1-0.61c-4.65-6.72-7.01-14.8-7.07-22.95c-2.09,4.41-3.88,8.93-5.31,13.63c1.3,3.42,2.92,6.74,4.12,10.18
				C64.576,68.046,67.356,67.956,70.146,67.856z M69.756,29.646c-2.29-0.44-4.58-0.89-6.86-1.34c-3.6-0.7-5.55-1.04-7.57,2.46
				c-1.92,3.33-2.64,8.31-3.45,11.99c-1.84,8.45-2.36,17.04-3.62,25.57c1.76-0.02,3.51-0.04,5.26-0.06
				C55.586,54.556,61.046,40.546,69.756,29.646z M69.096,27.986c-1.89-2.15-3.8-3.91-6.93-4.42c-2.34-0.38-4.72-0.48-7.05-0.84
				c-0.3,0.23-0.77,0.21-0.99-0.17c-0.12-0.02-0.24-0.03-0.36-0.06c0.01,0.07,0,0.15-0.03,0.23c-5.28,14.89-7.66,29.96-9.04,45.63
				c0.9-0.01,1.8-0.02,2.7-0.02c0.27-10.96,1.74-22.39,4.82-32.88c0.72-2.47,1.61-8.4,4.09-9.69c1.29-0.67,3.81,0.47,5.08,0.72
				C63.956,26.986,66.526,27.476,69.096,27.986z M55.136,68.236c1.86-0.03,3.72-0.07,5.58-0.1c-1.51-2.48-2.66-5.27-3.69-8.02
				C56.286,62.756,55.656,65.456,55.136,68.236z M52.926,21.696c0.3-0.02,0.61-0.04,0.93-0.06c-0.25-1.03-0.44-2.15-0.87-3.06
				c-0.88-1.88-1.5-1.61-3.48-1.35c-2.75,0.37-5.49,0.75-8.24,1.09c-0.03,2.08,0.16,4.12,0.31,6.18c3.18,3.46,5.3,8.01,6.4,12.58
				c1.29-4.99,2.82-9.9,4.53-14.69c0.04-0.1,0.1-0.18,0.16-0.25C52.586,21.966,52.696,21.716,52.926,21.696z M47.666,16.156
				c0.87-0.12,1.99-0.43,3.04-0.57c-2.61-2.18-6.8-0.54-9.79,0.1c-1.03,0.23-3.15,0.45-3.79,1.47c-0.42,0.67-0.23,2.63-0.15,3.93
				c0.76,0.18,1.51,0.39,2.2,0.56c0.5,0.13,0.5,0.68,0.22,0.96c0.32,0.11,0.62,0.33,1,0.68c-0.32-1.82-0.39-3.69-0.4-5.53
				c0-0.25,0.2-0.57,0.47-0.61C42.856,16.796,45.266,16.486,47.666,16.156z M47.286,39.846c-0.12-0.08-0.22-0.21-0.26-0.41
				c-0.88-4.59-2.61-8.86-5.45-12.61c-0.43-0.57-1.46-2.4-2.23-2.62c-1.27-0.37-3.43,1.36-4.46,2.01c-1.65,1.05-3.29,2.09-4.94,3.13
				c1.53,1.68,2.9,3.44,3.97,5.45c0.72-0.13,1.44-0.19,1.99,0c1.98,0.66,3.13,3.99,3.83,5.67c2.96,7.06,3.25,15.06,4.17,22.72
				C44.246,55.356,45.466,47.516,47.286,39.846z M40.966,68.386c0.81,0,1.62-0.01,2.43-0.02c-1.86-6.9-1.6-14.15-3.08-21.13
				c-0.89-4.21-1.88-10.51-7.27-10.93c-2.59-0.2-5.64,0.7-8.33,1.12c0.05,0.13,0.05,0.27-0.05,0.41c-0.17,0.24-0.38,0.45-0.6,0.66
				c0.05,0.04,0.1,0.08,0.14,0.12c0.63,0.52-0.23,1.62-0.87,1.13c-0.12-0.1-0.23-0.17-0.35-0.26c-0.33,0.33-0.65,0.68-0.96,1.02
				c4.04-0.64,8.11-1.13,12.17-1.7c0.45-0.06,0.82,0.11,0.98,0.56c1.56,4.49,2.7,9.09,3.36,13.8c0.33,2.39,0.49,4.8,0.76,7.2
				c0.19,1.69,0.58,3.36,0.77,5.04c0.03,0.32,0.02,1.85,0,2.99c0.06,0,0.12,0,0.18,0C40.456,68.276,40.716,68.266,40.966,68.386z
				 M28.186,68.506c3.58-0.04,7.15-0.07,10.72-0.1c-2.26-4.35-1.62-12.61-2.27-16.65c-0.45-2.76-0.96-9.28-3.31-10.74
				c-2.05-1.29-7.83,0-11.13,0.48c0.03,0.07,0.07,0.14,0.08,0.23C23.596,50.866,25.906,59.596,28.186,68.506z M37.646,22.816
				c0.23-0.08,0.43-0.15,0.62-0.19c-0.48-0.12-1.01-0.25-1.57-0.38c-0.07,0.01-0.13-0.01-0.2-0.04c-1.36-0.3-2.81-0.5-3.79-0.07
				c-0.91,0.4-1.94,1.45-2.71,2.04c-2.23,1.7-4.45,3.4-6.69,5.1c2.57,2,5.15,3.98,7.6,6.12c0.3-0.05,0.61-0.1,0.91-0.15
				c0.33-0.06,0.75-0.16,1.19-0.26c-1.46-1.84-2.92-3.64-4.6-5.3c-0.33-0.32-0.23-0.84,0.14-1.08
				C31.346,26.816,34.526,23.956,37.646,22.816z M24.036,59.196c-0.07-0.27-0.15-0.53-0.22-0.8c-1.89-1.77-3.89-3.29-6.21-4.46
				c-1.62-0.81-4.5-1.29-6.27-2.25c0.46,1.4,1.11,2.47,2.97,2.88c1.48,0.33,2.92,0.77,4.31,1.37
				C20.516,56.756,22.416,57.836,24.036,59.196z M20.886,40.686c0.34-0.62,0.82-1.19,1.28-1.73c-1.57-0.89-2.45-0.46-4.2,1.32
				c-1.08,1.1-1.9,2.73-2.78,3.99c-0.87,1.24-2.24,2.6-2.79,3.99c-1.21,0.79-1.31,1.38-0.28,1.75c0.54,0.44,1.16,0.73,1.86,0.88
				c3.5,1.54,6.81,3.06,9.4,5.77c-1.19-4.78-2.07-9.65-2.73-14.48c-0.03-0.21,0.02-0.39,0.11-0.55c-0.42-0.1-0.48-0.84,0-0.92
				C20.796,40.706,20.846,40.696,20.886,40.686z"/>
			<path fill="#F6DF66" d="M97.336,51.966c-2.73-0.75-5.46-1.5-8.19-2.25c0.39-0.76,0.78-1.53,1.16-2.3c1.92,0.83,4.23,1.1,6.3,1.19
				C96.836,49.726,97.056,50.856,97.336,51.966z"/>
			<path fill="#F6DF66" d="M88.666,51.166c2.69,0.73,5.39,1.46,8.09,2.18c-3.49,4.7-7.14,9.32-10.42,14.16
				c-0.11-0.28-0.37-0.5-0.79-0.47c-1.31,0.1-2.62,0.17-3.94,0.25c1.58-5.66,4.19-10.95,6.86-16.22
				C88.526,51.106,88.586,51.146,88.666,51.166z"/>
			<path fill="#F6DF66" d="M90.906,34.836c2.97,1.06,3.15,1.3,1.96,4.32c-0.95,2.42-2.03,4.79-3.15,7.14
				c-0.17,0.12-0.27,0.32-0.25,0.51c-3.2,6.59-7.55,13.26-8.84,20.54c-0.69,0.04-1.38,0.1-2.07,0.14
				c2.01-10.28,5.61-20.9,10.69-30.03c0.23-0.41-0.22-0.72-0.56-0.56c0.08-0.37-0.07-0.8-0.51-0.86c-4.48-0.65-8.97-1.22-13.46-1.8
				c1.2-0.95,2.77-1.4,4.5-1.53c0.2,0.17,0.49,0.2,0.71-0.03c1.81-0.05,3.75,0.21,5.59,0.61c0.05,0.02,0.1,0.02,0.16,0.03
				C87.616,33.746,89.456,34.316,90.906,34.836z"/>
			<path fill="#F6DF66" d="M89.486,21.656c2.17,0.98,1.13,1.24-0.09,2.79c-0.56,0.71-1.08,1.44-1.56,2.2
				c-1.13,1.8-1.97,3.71-2.67,5.71c-1.47-0.27-2.95-0.5-4.42-0.65c1.95-2.37,3.77-4.79,6.03-6.93c0.44-0.42,0.16-1.05-0.33-1.25
				c-2.34-0.92-4.68-1.83-7.02-2.75c-1.23-0.48-3.18-1.65-4.69-1.93c1.97-0.49,3.66-0.78,5.98-0.03
				C83.586,19.756,86.736,20.426,89.486,21.656z"/>
			<path fill="#F6DF66" d="M87.986,37.496c0.08,0.01,0.15,0,0.22-0.02c-3.1,4.23-4.89,9.36-6.74,14.23
				c-1.96,5.16-3.63,10.38-4.37,15.84c-1.87,0.1-3.75,0.19-5.62,0.26c-0.19-0.33-0.37-0.67-0.56-1.01
				c-0.18-7.63-0.18-15.06,1.31-22.63c0.34-1.75,0.53-3.88,1.27-5.48c1.09-2.37,1.03-2.47,3.87-2.58
				C80.746,35.986,84.636,37.096,87.986,37.496z"/>
			<path fill="#D36EA1" d="M86.006,68.606c0.1,0.11,0.25,0.17,0.39,0.14c-2.37,12.99-4.08,26.08-4.98,39.25
				c-0.27,3.84-0.47,7.68-0.61,11.53c-0.11,3.01,0.42,6.69-0.21,9.61c0.48,2.55-0.82,4.24-3.9,5.08l-1.91,0.19
				c-1.83,0.35-3.89,0.37-5.74,0.52c-3.52,0.27-7.03,0.47-10.56,0.61c-6.54,0.25-16.87,1.94-22.54-1.39
				c-6.18-3.62-5.76-14.52-5.95-20.95c-0.43-14.46-0.4-28.99-1.39-43.43c18.76,1.74,38.24,0.75,56.94-0.97
				C85.736,68.776,85.876,68.706,86.006,68.606z M80.246,79.406c0.33-0.5-0.06-1.08-0.55-1.22c-0.03-0.09-0.07-0.18-0.13-0.27
				c-0.41-0.7-1.08-1.05-1.77-1.1c-0.19-0.05-0.39-0.06-0.58-0.06c-0.27-0.14-0.63-0.12-0.85,0.2c0,0-0.01,0.01-0.01,0.02
				c-0.3,0.15-0.57,0.36-0.77,0.68c-0.81,1.32-0.06,3.26,1.49,3.57c0.46,0.09,0.91,0.03,1.3-0.14
				C79.176,80.806,79.786,80.106,80.246,79.406z M64.936,81.946c0.02-0.81-1.2-0.8-1.25,0c-0.28,4.21-5.9,4.44-6.64,0.34
				c-0.14-0.75-1.26-0.42-1.15,0.32c-0.33,0.67-0.66,1.34-1,2.01c-1.48,0.33-2.25-0.02-2.33-1.07c-0.22-0.94,0.08-1.83,0.97-2.34
				c0.38-0.22,0.05-0.75-0.33-0.57c-1.84,0.87-2.3,3.74-0.49,4.94c1.51,0.99,3.08,0.19,3.86-1.13
				C58.746,87.966,64.826,86.876,64.936,81.946z M36.486,83.116c1.62,1.99,5.05,0.31,4.6-2.17c-0.22-1.19-1.26-2.22-2.51-2.16
				c-0.49,0.02-0.93,0.22-1.29,0.53c-0.38,0.18-0.71,0.48-0.94,0.85C35.806,81.066,35.816,82.286,36.486,83.116z"/>
			<path fill="#F6DF66" d="M77.126,21.406c2.59,1.04,5.18,2.07,7.76,3.1c-2.17,2.1-4.31,4.45-5.7,7.12
				c-2.23,0.01-4.14,0.61-5.82,2.39c-0.12,0.13-0.16,0.27-0.14,0.41c-0.06,0.08-0.11,0.17-0.13,0.25
				c-2.89,9.47-4.49,19.76-3.43,29.69c-3.57-7.28-5.34-14.72-5.1-23.1c0-0.06-0.02-0.1-0.02-0.15c2-3.92,4.23-7.77,6.7-11.6
				c0.03-0.03,0.04-0.07,0.06-0.11c0.2-0.2,0.29-0.5,0.1-0.77c-0.85-1.22-1.8-2.45-2.89-3.5c1.15-1.12,2.2-2.59,3.46-3.53
				C73.976,20.126,75.036,20.556,77.126,21.406z"/>
			<path fill="#222221" d="M79.696,78.186c0.49,0.14,0.88,0.72,0.55,1.22c-0.46,0.7-1.07,1.4-1.87,1.68
				c-0.39,0.17-0.84,0.23-1.3,0.14c-1.55-0.31-2.3-2.25-1.49-3.57c0.2-0.32,0.47-0.53,0.77-0.68c0-0.01,0.01-0.02,0.01-0.02
				c0.22-0.32,0.58-0.34,0.85-0.2c0.19,0,0.39,0.01,0.58,0.06c0.69,0.05,1.36,0.4,1.77,1.1
				C79.626,78.006,79.666,78.096,79.696,78.186z"/>
			<path fill="#F6DF66" d="M70.046,67.246c0.04,0.2,0.07,0.41,0.1,0.61c-2.79,0.1-5.57,0.19-8.36,0.25
				c-1.2-3.44-2.82-6.76-4.12-10.18c1.43-4.7,3.22-9.22,5.31-13.63C63.036,52.446,65.396,60.526,70.046,67.246z"/>
			<path fill="#F6DF66" d="M62.896,28.306c2.28,0.45,4.57,0.9,6.86,1.34c-8.71,10.9-14.17,24.91-16.24,38.62
				c-1.75,0.02-3.5,0.04-5.26,0.06c1.26-8.53,1.78-17.12,3.62-25.57c0.81-3.68,1.53-8.66,3.45-11.99
				C57.346,27.266,59.296,27.606,62.896,28.306z"/>
			<path fill="#F6DF66" d="M62.166,23.566c3.13,0.51,5.04,2.27,6.93,4.42c-2.57-0.51-5.14-1-7.71-1.5
				c-1.27-0.25-3.79-1.39-5.08-0.72c-2.48,1.29-3.37,7.22-4.09,9.69c-3.08,10.49-4.55,21.92-4.82,32.88c-0.9,0-1.8,0.01-2.7,0.02
				c1.38-15.67,3.76-30.74,9.04-45.63c0.03-0.08,0.04-0.16,0.03-0.23c0.12,0.03,0.24,0.04,0.36,0.06c0.22,0.38,0.69,0.4,0.99,0.17
				C57.446,23.086,59.826,23.186,62.166,23.566z"/>
			<path fill="#222221" d="M63.686,81.946c0.05-0.8,1.27-0.81,1.25,0c-0.11,4.93-6.19,6.02-8.36,2.5c-0.78,1.32-2.35,2.12-3.86,1.13
				c-1.81-1.2-1.35-4.07,0.49-4.94c0.38-0.18,0.71,0.35,0.33,0.57c-0.89,0.51-1.19,1.4-0.97,2.34c0.08,1.05,0.85,1.4,2.33,1.07
				c0.34-0.67,0.67-1.34,1-2.01c-0.11-0.74,1.01-1.07,1.15-0.32C57.786,86.386,63.406,86.156,63.686,81.946z"/>
			<path fill="#F6DF66" d="M60.716,68.136c-1.86,0.03-3.72,0.07-5.58,0.1c0.52-2.78,1.15-5.48,1.89-8.12
				C58.056,62.866,59.206,65.656,60.716,68.136z"/>
			<path fill="#F6DF66" d="M53.856,21.636c-0.32,0.02-0.63,0.04-0.93,0.06c-0.23,0.02-0.34,0.27-0.26,0.44
				c-0.06,0.07-0.12,0.15-0.16,0.25c-1.71,4.79-3.24,9.7-4.53,14.69c-1.1-4.57-3.22-9.12-6.4-12.58c-0.15-2.06-0.34-4.1-0.31-6.18
				c2.75-0.34,5.49-0.72,8.24-1.09c1.98-0.26,2.6-0.53,3.48,1.35C53.416,19.486,53.606,20.606,53.856,21.636z"/>
			<path fill="#F6DF66" d="M50.706,15.586c-1.05,0.14-2.17,0.45-3.04,0.57c-2.4,0.33-4.81,0.64-7.2,0.99
				c-0.27,0.04-0.47,0.36-0.47,0.61c0.01,1.84,0.08,3.71,0.4,5.53c-0.38-0.35-0.68-0.57-1-0.68c0.28-0.28,0.28-0.83-0.22-0.96
				c-0.69-0.17-1.44-0.38-2.2-0.56c-0.08-1.3-0.27-3.26,0.15-3.93c0.64-1.02,2.76-1.24,3.79-1.47
				C43.906,15.046,48.096,13.406,50.706,15.586z"/>
			<path fill="#F6DF66" d="M47.026,39.436c0.04,0.2,0.14,0.33,0.26,0.41c-1.82,7.67-3.04,15.51-3.38,23.34
				c-0.92-7.66-1.21-15.66-4.17-22.72c-0.7-1.68-1.85-5.01-3.83-5.67c-0.55-0.19-1.27-0.13-1.99,0c-1.07-2.01-2.44-3.77-3.97-5.45
				c1.65-1.04,3.29-2.08,4.94-3.13c1.03-0.65,3.19-2.38,4.46-2.01c0.77,0.22,1.8,2.05,2.23,2.62
				C44.416,30.576,46.146,34.846,47.026,39.436z"/>
			<path fill="#F6DF66" d="M43.396,68.366c-0.81,0.01-1.62,0.02-2.43,0.02c-0.25-0.12-0.51-0.11-0.72,0.01c-0.06,0-0.12,0-0.18,0
				c0.02-1.14,0.03-2.67,0-2.99c-0.19-1.68-0.58-3.35-0.77-5.04c-0.27-2.4-0.43-4.81-0.76-7.2c-0.66-4.71-1.8-9.31-3.36-13.8
				c-0.16-0.45-0.53-0.62-0.98-0.56c-4.06,0.57-8.13,1.06-12.17,1.7c0.31-0.34,0.63-0.69,0.96-1.02c0.12,0.09,0.23,0.16,0.35,0.26
				c0.64,0.49,1.5-0.61,0.87-1.13c-0.04-0.04-0.09-0.08-0.14-0.12c0.22-0.21,0.43-0.42,0.6-0.66c0.1-0.14,0.1-0.28,0.05-0.41
				c2.69-0.42,5.74-1.32,8.33-1.12c5.39,0.42,6.38,6.72,7.27,10.93C41.796,54.216,41.536,61.466,43.396,68.366z"/>
			<path fill="#222221" d="M41.086,80.946c0.45,2.48-2.98,4.16-4.6,2.17c-0.67-0.83-0.68-2.05-0.14-2.95
				c0.23-0.37,0.56-0.67,0.94-0.85c0.36-0.31,0.8-0.51,1.29-0.53C39.826,78.726,40.866,79.756,41.086,80.946z"/>
			<path fill="#F6DF66" d="M38.906,68.406c-3.57,0.03-7.14,0.06-10.72,0.1c-2.28-8.91-4.59-17.64-5.91-26.78
				c-0.01-0.09-0.05-0.16-0.08-0.23c3.3-0.48,9.08-1.77,11.13-0.48c2.35,1.46,2.86,7.98,3.31,10.74
				C37.286,55.796,36.646,64.056,38.906,68.406z"/>
			<path fill="#F6DF66" d="M38.266,22.626c-0.19,0.04-0.39,0.11-0.62,0.19c-3.12,1.14-6.3,4-9.1,5.79
				c-0.37,0.24-0.47,0.76-0.14,1.08c1.68,1.66,3.14,3.46,4.6,5.3c-0.44,0.1-0.86,0.2-1.19,0.26c-0.3,0.05-0.61,0.1-0.91,0.15
				c-2.45-2.14-5.03-4.12-7.6-6.12c2.24-1.7,4.46-3.4,6.69-5.1c0.77-0.59,1.8-1.64,2.71-2.04c0.98-0.43,2.43-0.23,3.79,0.07
				c0.07,0.03,0.13,0.05,0.2,0.04C37.256,22.376,37.786,22.506,38.266,22.626z"/>
			<path fill="#F6DF66" d="M23.816,58.396c0.07,0.27,0.15,0.53,0.22,0.8c-1.62-1.36-3.52-2.44-5.42-3.26
				c-1.39-0.6-2.83-1.04-4.31-1.37c-1.86-0.41-2.51-1.48-2.97-2.88c1.77,0.96,4.65,1.44,6.27,2.25
				C19.926,55.106,21.926,56.626,23.816,58.396z"/>
			<path fill="#F6DF66" d="M22.166,38.956c-0.46,0.54-0.94,1.11-1.28,1.73c-0.04,0.01-0.09,0.02-0.13,0.02
				c-0.48,0.08-0.42,0.82,0,0.92c-0.09,0.16-0.14,0.34-0.11,0.55c0.66,4.83,1.54,9.7,2.73,14.48c-2.59-2.71-5.9-4.23-9.4-5.77
				c-0.7-0.15-1.32-0.44-1.86-0.88c-1.03-0.37-0.93-0.96,0.28-1.75c0.55-1.39,1.92-2.75,2.79-3.99c0.88-1.26,1.7-2.89,2.78-3.99
				C19.716,38.496,20.596,38.066,22.166,38.956z"/>
		</g>
	</g>
</g>
<g id="TEXTURE">
</g>
<g id="DESIGNED_BY_FREEPIK">
</g>
</svg>
