<svg xmlns="http://www.w3.org/2000/svg" viewBox="0 0 50 50"><path d="M13 0l-1.094 2.313-2.5.28 1.906 1.72-.5 2.593L13 5.594l2.188 1.312-.5-2.593 1.906-1.72-2.5-.28zm8 0l-1.094 2.313-2.5.28 1.907 1.72-.5 2.593L21 5.594l2.188 1.312-.5-2.593 1.906-1.72-2.5-.28zm8 0l-1.094 2.313-2.5.28 1.907 1.72-.5 2.593L29 5.594l2.188 1.312-.5-2.593 1.906-1.72-2.5-.28zm8 0l-1.094 2.313-2.5.28 1.907 1.72-.5 2.593L37 5.594l2.188 1.312-.5-2.593 1.906-1.72-2.5-.28zM8.312 7A5.318 5.318 0 0 0 3 12.313V49c0 .55.45 1 1 1h42c.55 0 1-.45 1-1V12.312A5.318 5.318 0 0 0 41.687 7zm0 2h33.376C43.557 9 45 10.441 45 12.313V48H29V38c0-.55-.45-1-1-1h-6.187A1 1 0 0 0 21 38v10H5V12.312C5 10.442 6.441 9 8.313 9zm1.5 4A1 1 0 0 0 9 14v4c0 .55.45 1 1 1h6c.55 0 1-.45 1-1v-4c0-.55-.45-1-1-1H9.812zm12 0A1 1 0 0 0 21 14v4c0 .55.45 1 1 1h6c.55 0 1-.45 1-1v-4c0-.55-.45-1-1-1h-6.187zm12 0A1 1 0 0 0 33 14v4c0 .55.45 1 1 1h6c.55 0 1-.45 1-1v-4c0-.55-.45-1-1-1h-6.187zM11 15h4v2h-4zm12 0h4v2h-4zm12 0h4v2h-4zM9.812 21A1 1 0 0 0 9 22v4c0 .55.45 1 1 1h6c.55 0 1-.45 1-1v-4c0-.55-.45-1-1-1H9.812zm12 0A1 1 0 0 0 21 22v4c0 .55.45 1 1 1h6c.55 0 1-.45 1-1v-4c0-.55-.45-1-1-1h-6.187zm12 0A1 1 0 0 0 33 22v4c0 .55.45 1 1 1h6c.55 0 1-.45 1-1v-4c0-.55-.45-1-1-1h-6.187zM11 23h4v2h-4zm12 0h4v2h-4zm12 0h4v2h-4zM9.812 29A1 1 0 0 0 9 30v4c0 .55.45 1 1 1h6c.55 0 1-.45 1-1v-4c0-.55-.45-1-1-1H9.812zm12 0A1 1 0 0 0 21 30v4c0 .55.45 1 1 1h6c.55 0 1-.45 1-1v-4c0-.55-.45-1-1-1h-6.187zm12 0A1 1 0 0 0 33 30v4c0 .55.45 1 1 1h6c.55 0 1-.45 1-1v-4c0-.55-.45-1-1-1h-6.187zM11 31h4v2h-4zm12 0h4v2h-4zm12 0h4v2h-4zM9.812 37A1 1 0 0 0 9 38v4c0 .55.45 1 1 1h6c.55 0 1-.45 1-1v-4c0-.55-.45-1-1-1H9.812zm24 0A1 1 0 0 0 33 38v4c0 .55.45 1 1 1h6c.55 0 1-.45 1-1v-4c0-.55-.45-1-1-1h-6.187zM11 39h4v2h-4zm12 0h4v9h-4zm12 0h4v2h-4z"/></svg>