<svg xmlns="http://www.w3.org/2000/svg" viewBox="0 0 26 26"><path d="M10 .031c-.063.012-.094.055-.094.157l-.594 1-1.218.218L8 1.5v.188l.906.812-.219 1.188c0 .101.024.117.126.218H9l1-.594 1.094.594h.219s.093-.117.093-.219L11.187 2.5 12 1.687V1.5c0-.102-.094-.094-.094-.094l-1.219-.218-.5-1.094A.218.218 0 0 0 10 .03zm6.063 0a.208.208 0 0 0-.157.063l-.5 1.093-1.219.22c-.101 0-.093.093-.093.093v.188L15 2.5l-.188 1.188c0 .101-.007.117.094.218h.188L16 3.312l1.094.594h.218s.094-.117.094-.219L17.188 2.5 18 1.687V1.5c0-.102-.094-.094-.094-.094l-1.218-.218-.5-1.094c-.051-.051-.075-.063-.125-.063zm-11.625 1c-.02.012-.032.04-.032.063L4 1.906 3.094 2C2.992 2 3 2.094 3 2.094v.094l.688.624-.188 1v.094h.094l.812-.406.782.406h.218s.102-.094 0-.094l-.093-.906L6 2.187v-.093S6.008 2 5.906 2L5 1.906l-.406-.812c0-.074-.102-.102-.157-.063zm17 0c-.02.012-.032.04-.032.063L21 1.906 20.094 2S20 1.992 20 2.094v.094l.688.624-.188.876v.124h.094l.812-.406.782.406h.218s.102-.124 0-.124l-.218-.876.812-.624v-.094S23.008 2 22.906 2L22 1.906l-.406-.812c0-.074-.102-.102-.157-.063zM4 4C2.3 4 1 5.3 1 7v19h24V7c0-1.7-1.3-3-3-3zm0 2h18c.602 0 1 .398 1 1v17h-8v-6h-4v6H3V7c0-.602.398-1 1-1zm1 2v3h4V8zm6 0v3h4V8zm6 0v3h4V8zM5 13v3h4v-3zm6 0v3h4v-3zm6 0v3h4v-3zM5 18v3h4v-3zm12 0v3h4v-3z"/></svg>