<svg xmlns="http://www.w3.org/2000/svg" viewBox="0 0 50 50"><path d="M13 0l-1.094 2.313-2.5.28 1.906 1.72-.5 2.593L13 5.594l2.188 1.312-.5-2.593 1.906-1.72-2.5-.28zm8 0l-1.094 2.313-2.5.28 1.907 1.72-.5 2.593L21 5.594l2.188 1.312-.5-2.593 1.906-1.72-2.5-.28zm8 0l-1.094 2.313-2.5.28 1.907 1.72-.5 2.593L29 5.594l2.188 1.312-.5-2.593 1.906-1.72-2.5-.28zm8 0l-1.094 2.313-2.5.28 1.907 1.72-.5 2.593L37 5.594l2.188 1.312-.5-2.593 1.906-1.72-2.5-.28zM8.312 7C5.34 7 3 9.34 3 12.313V49a1 1 0 0 0 1 1h42c.555 0 1-.445 1-1V12.312C47 9.34 44.66 7 41.687 7zM10 14h6v4h-6zm12 0h6v4h-6zm12 0h6v4h-6zm-24 8h6v4h-6zm12 0h6v4h-6zm12 0h6v4h-6zm-24 8h6v4h-6zm12 0h6v4h-6zm12 0h6v4h-6zm-24 8h6v4h-6zm12 0h6v10h-6zm12 0h6v4h-6z"/></svg>