<svg xmlns="http://www.w3.org/2000/svg" viewBox="0 0 24 24"><path d="M22.898 9.5L15.602 8l-3.704-6.5-3.796 6.398L.898 9.5l5 5.5-.796 7.398 6.796-3 6.801 3L17.9 15zm-9.097 6.102c-.102.296-.301.5-.5.699-.2.199-.403.3-.7.398-.3.102-.601.102-.902.102-.3 0-.5 0-.8-.102-.2-.097-.5-.199-.7-.398-.199-.2-.3-.403-.5-.602-.097-.3-.199-.597-.199-.898h1.398c0 .097 0 .199.102.398 0 .102.102.2.102.301.097.102.097.102.199.2.097 0 .199.1.3.1.098 0 .2 0 .297-.1.102-.098.204-.098.204-.2.097-.102.097-.2.199-.3 0-.098.097-.302.097-.4 0-.402-.097-.6-.199-.8-.097-.2-.3-.2-.597-.2h-.704v-1.1h.704c.296 0 .398-.098.597-.302.102-.199.2-.398.2-.699v-.398c0-.102-.098-.2-.098-.301l-.2-.2c-.101-.1-.203-.1-.3-.1-.102 0-.2 0-.301.1-.102 0-.102.098-.2.2-.1.102-.1.2-.1.2s-.098.198-.098.3H9.8c0-.3.097-.602.199-.8.102-.2.2-.4.398-.598.204-.204.403-.301.602-.403.2-.097.5-.097.8-.097.302 0 .598 0 .802.097.296.102.5.2.699.403.199.199.3.398.398.597.102.301.2.5.2.903 0 .199 0 .296-.098.5 0 .097-.102.296-.2.398-.101.102-.203.3-.3.398-.102.102-.2.204-.403.301.301.102.602.403.704.602.199.3.199.597.199 1 .097.3.097.597 0 .8z"/></svg>