<svg xmlns="http://www.w3.org/2000/svg" viewBox="0 0 48 48"><path d="M24 3.602l.8 2 2.098.097-1.597 1.403.5 2L24 8l-1.8 1.102.5-2-1.598-1.403 2.097-.097zM32 6l.7 1.8 1.902.098-1.403 1.204.403 1.898L32 10l-1.602 1 .403-1.898-1.403-1.204 1.903-.097zM16 6l.7 1.8 1.902.098-1.403 1.204.403 1.898L16 10l-1.602 1 .403-1.898-1.403-1.204 1.903-.097z" fill="#2e7d32"/><path d="M42 41H6V17l18-6 18 6z" fill="#4caf50"/><path d="M31 22h6v5h-6zm-10 0h6v5h-6zm-10 0h6v5h-6zm20 8h6v5h-6zm-20 0h6v5h-6zm9 0h8v13h-8zm4-21L6 15v2l18-6 18 6v-2z" fill="#94cf96"/><path d="M6 41h36v2H6z" fill="#94cf96"/></svg>