<?xml version="1.0" encoding="utf-8"?>
<!-- Generator: Adobe Illustrator 22.0.1, SVG Export Plug-In . SVG Version: 6.00 Build 0)  -->
<svg version="1.1" xmlns="http://www.w3.org/2000/svg" xmlns:xlink="http://www.w3.org/1999/xlink" x="0px" y="0px"
	 viewBox="0 0 238.209 93.804" enable-background="new 0 0 238.209 93.804" xml:space="preserve">
<g id="BACKGROUND">
</g>
<g id="OBJECTS">
	<g>
		<path fill="#FFFFFF" d="M232.873,3.85c-3.584-0.968-7.959-0.684-11.658-0.829c-5.044-0.198-10.088-0.243-15.135-0.187
			c-2.281,0.025-4.581,2.011-4.428,4.428c0.214,3.398,0.433,6.799,0.671,10.198c-1.542-2.313-3.377-4.391-5.633-6.003
			c-10.229-7.306-25.524-6.485-36.675-1.932c-4.279,1.747-11.605,6.083-16.643,11.361c-0.372-0.117-0.765-0.206-1.203-0.23
			c-22.641-1.243-45.303-2.009-67.977-2.257c-11.172-0.122-22.345-0.125-33.517-0.008c-5.586,0.058-11.172,0.134-16.756,0.264
			c-5.491,0.128-11.419-0.171-16.721,1.377c-0.968,0.283-1.666,0.936-2.089,1.732c-0.26,0.272-0.475,0.589-0.615,0.934
			c-1.804,4.455-0.713,9.885-0.659,14.578c0.06,5.094-0.264,10.156-0.749,15.224C2.093,62.898,0.429,73.836,2.767,84.185
			c1.973,8.732,13.237,6.631,20.207,6.791c10.814,0.249,21.627-0.06,32.416-0.834c2.538-0.182,4.315-1.911,4.48-4.481
			c0.006-0.102,0.02-0.199,0.028-0.3c0.591,0.009,1.166,0.018,1.708,0.042c6.278,0.278,12.572,0.353,18.855,0.34
			c4.289-0.009,10.364,1.142,14.3-0.854c1.529-0.775,2.489-2.088,3.151-3.62c5.374,0.455,10.907,0.23,16.189,0.334
			c7.64,0.15,15.28,0.228,22.92,0.316c3.654,0.042,7.308,0.085,10.962,0.127c2.957,0.034,6.49,0.668,9.248-0.613
			c2.64-1.226,3.544-4.016,3.642-6.974c8.357,4.958,19.696,6.084,28.494,3.114c4.375-1.477,8.121-3.904,11.212-6.966
			c2.829,2.752,7.282,4.364,10.853,4.879c6.354,0.916,14.439-0.666,18.189-6.389c3.929-5.995,2.248-14.689,3.085-21.479
			c1.084-8.777,3.312-17.371,4.522-26.13C237.996,15.936,240.406,5.884,232.873,3.85z M136.463,30.117
			c-0.027,0.023-0.05,0.049-0.077,0.072c-0.044-0.305-0.109-0.604-0.208-0.891c0.456,0.023,0.912,0.041,1.367,0.064
			C137.175,29.583,136.811,29.826,136.463,30.117z M14.367,27.692c-0.926,0.221-1.715,0.705-2.316,1.371
			c-0.112-0.498-0.217-0.999-0.359-1.481C12.578,27.646,13.472,27.677,14.367,27.692z M100.324,72.732
			c-0.07-0.101-0.135-0.205-0.214-0.301l6.555,0.316C104.562,72.722,102.44,72.692,100.324,72.732z M194.214,64.507
			c-0.02-0.068-0.034-0.136-0.059-0.203c-0.082-0.22-0.185-0.423-0.274-0.636c0.921-0.524,1.821-1.119,2.684-1.765
			C195.867,62.827,195.074,63.69,194.214,64.507z"/>
		<g>
			<path fill="#222221" d="M226.903,9.977c0.34-0.79,1.72-0.53,1.69,0.4c-0.32,9.39-0.61,18.91-2.73,28.11
				c-0.34,1.47-0.62,5.25-2.14,6.43c-0.04,0.36-0.29,0.68-0.76,0.64c-4.66-0.34-9.12,1.27-12.9-2.07c-0.23-0.2-0.14-0.5,0.06-0.66
				c-0.14-0.14-0.25-0.3-0.28-0.54c-1.06-10.03-1.84-20.95-0.21-30.98c0.33-2.03,0.27-2.22,2.04-2.85
				c3.84-1.35,10.41,0.14,14.36,0.64C226.493,9.157,226.923,9.457,226.903,9.977z M223.893,29.267c0.52-3.69,3.27-17.3-0.54-18.73
				c-1.66-0.62-8.14-1.14-9.88-0.38c-3.55,1.54-2.64,8.34-2.73,11.48c-0.2,6.9,0.13,13.79,0.85,20.65c0.01,0.08-0.01,0.15-0.02,0.22
				c1.93-0.1,3.97,0.01,5.89-0.25c2.77-0.37,3.14-0.24,4.25-2.81C223.033,36.387,223.433,32.537,223.893,29.267z"/>
			<path fill="#87C1C5" d="M223.353,10.537c3.81,1.43,1.06,15.04,0.54,18.73c-0.46,3.27-0.86,7.12-2.18,10.18
				c-1.11,2.57-1.48,2.44-4.25,2.81c-1.92,0.26-3.96,0.15-5.89,0.25c0.01-0.07,0.03-0.14,0.02-0.22
				c-0.72-6.86-1.05-13.75-0.85-20.65c0.09-3.14-0.82-9.94,2.73-11.48C215.213,9.397,221.693,9.917,223.353,10.537z"/>
			<path fill="#222221" d="M220.633,51.217c4.89,1.95,5.44,8.82,0.75,11.55c-3.99,2.32-12.84,0.77-13.32-4.75
				c-0.64-1.78-0.39-3.82,1.02-5.57c1.88-2.35,5.29-3.57,8.17-2.7c0.13-0.05,0.26-0.08,0.42-0.04
				C218.813,49.957,219.823,50.497,220.633,51.217z M220.123,59.317c2.03-2.27,1.5-5.1-0.36-6.87c-0.06-0.04-0.11-0.08-0.17-0.11
				c-0.14-0.07-0.22-0.17-0.27-0.28c-0.58-0.45-1.26-0.82-2.01-1.05c-0.19-0.06-0.32-0.17-0.4-0.31c-1.85-0.15-3.67,0.11-5.31,1.24
				c-2.9,1.99-3.56,5.92-0.32,8.03C213.773,61.587,218.033,61.657,220.123,59.317z"/>
			<path fill="#87C1C5" d="M219.763,52.447c1.86,1.77,2.39,4.6,0.36,6.87c-2.09,2.34-6.35,2.27-8.84,0.65
				c-3.24-2.11-2.58-6.04,0.32-8.03c1.64-1.13,3.46-1.39,5.31-1.24c0.08,0.14,0.21,0.25,0.4,0.31c0.75,0.23,1.43,0.6,2.01,1.05
				c0.05,0.11,0.13,0.21,0.27,0.28C219.653,52.367,219.703,52.407,219.763,52.447z"/>
			<path fill="#222221" d="M187.613,11.027c20.34,5.41,20.76,31.52,12.53,46.98c-0.56,1.05-1.15,2.08-1.78,3.06l-1.45-0.81
				c0.23-0.34,0.45-0.68,0.66-1.04c-0.51,0.64-1.03,1.27-1.57,1.88l-1.4-0.58c-0.02-0.03-0.05-0.05-0.07-0.08l-2.27-0.51
				c0.65-0.88,1.25-1.8,1.82-2.76c0.01-0.11,0.04-0.21,0.11-0.32c0.14-0.21,0.28-0.41,0.42-0.62c3.2-5.83,4.94-12.78,5.26-18.3
				c0.75-12.89-5.25-26.75-20.09-26.24c-18,0.61-26.2,21.95-23.76,38.26l-1.48,0.12c-0.06-0.37-0.11-0.73-0.16-1.1
				c-1.68-12.4,1.32-25.95,11.67-33.9c6.05-4.64,14.04-6.24,21.09-4C187.283,11.007,187.433,10.977,187.613,11.027z M202.933,44.887
				c0.64-3.53,0.87-7.17,0.59-10.7c0.09,1.74,0.05,3.45-0.1,5.16c0.05,0.1,0.09,0.22,0.09,0.35c-0.11,1.77-0.32,3.49-0.63,5.19
				C202.903,44.887,202.913,44.887,202.933,44.887z M198.943,52.797c0.04-0.18,0.08-0.36,0.12-0.54c-0.5,0.73-1,1.46-1.5,2.19
				c0.21-0.21,0.41-0.42,0.63-0.63C198.443,53.477,198.683,53.137,198.943,52.797z"/>
			<path fill="#87C1C5" d="M179.783,11.687c14.84-0.51,20.84,13.35,20.09,26.24c-0.32,5.52-2.06,12.47-5.26,18.3
				c-0.14,0.21-0.28,0.41-0.42,0.62c-0.07,0.11-0.1,0.21-0.11,0.32c-0.57,0.96-1.17,1.88-1.82,2.76c-3.58,4.84-8.44,8.21-14.6,8.06
				c-0.11-0.05-0.23-0.07-0.37-0.04c-0.03,0-0.07,0.01-0.1,0.01c-0.2-0.01-0.4-0.01-0.61-0.03c-0.28-0.02-0.48,0.08-0.6,0.23
				c-11.73,1.59-18.29-7.16-19.96-18.21C153.583,33.637,161.783,12.297,179.783,11.687z M189.223,36.667
				c0.05-3.42-0.4-7.19-1.89-10.02c-0.01-0.01-0.01-0.02-0.01-0.02c-1.57-2.96-4.29-4.9-8.82-4.33
				c-15.77,1.96-16.86,36.89-1.48,36.08c0.17,0.19,0.42,0.3,0.73,0.19C187.223,55.497,189.093,45.467,189.223,36.667z"/>
			<path fill="#222221" d="M196.913,60.257l1.45,0.81c-4.42,6.92-10.57,11.78-19.45,11.68c-5.39-0.06-10.77-1.88-15.04-5.12
				c-0.98-0.6-1.9-1.31-2.74-2.12c-4.11-4-5.74-9.88-6.59-15.44l1.48-0.12c1.67,11.05,8.23,19.8,19.96,18.21
				c0.12-0.15,0.32-0.25,0.6-0.23c0.21,0.02,0.41,0.02,0.61,0.03c0.03,0,0.07-0.01,0.1-0.01c0.14-0.03,0.26-0.01,0.37,0.04
				c6.16,0.15,11.02-3.22,14.6-8.06l2.27,0.51c-0.63,0.68-1.27,1.35-1.93,2.01c0.13-0.09,0.26-0.19,0.4-0.28
				c0.55-0.53,1.08-1.08,1.6-1.65l1.4,0.58c0.09,0.04,0.16,0.11,0.23,0.18C196.463,60.937,196.693,60.607,196.913,60.257z
				 M186.033,69.837c-1.91,0.57-3.81,0.98-5.74,1.25C182.373,70.957,184.273,70.527,186.033,69.837z"/>
			<path fill="#222221" d="M187.333,26.647c1.49,2.83,1.94,6.6,1.89,10.02c-0.13,8.8-2,18.83-11.47,21.9
				c-0.31,0.11-0.56,0-0.73-0.19c-15.38,0.81-14.29-34.12,1.48-36.08c4.53-0.57,7.25,1.37,8.82,4.33
				C187.323,26.627,187.323,26.637,187.333,26.647z M187.583,39.167c0.2-3.64,0.23-8.38-1.43-11.62c-6.78-0.76-12.25,0.99-14.15,8.4
				c-0.82,3.22-0.89,6.53-0.4,9.79c0.26,1.68,0.6,3.24,1.18,4.84c0.72,2.02,2.53,5.39,4.87,5.88c0.23,0.04,0.3,0.23,0.27,0.4
				C185.233,54.107,187.203,46.307,187.583,39.167z"/>
			<path fill="#222221" d="M119.973,66.287c0.02,3.36,0.18,6.81-0.21,10.15c0.39,0.4,0.22,1.22-0.5,1.27
				c-6.99,0.43-14.17,0.43-21.17,0.14c-0.22,0.14-0.5,0.18-0.72-0.02c-0.17,0.04-0.36,0.01-0.53-0.12
				c-1.08-0.89-2.11-1.91-3.09-2.91c-0.19-0.19-0.05-0.51,0.16-0.57c0-0.01-0.01-0.01-0.01-0.02c-0.24-0.11-0.44-0.33-0.47-0.66
				c-1.32-16.58-2.63-33.96-0.98-50.56l1,0.09c0.62,16.79,0.15,33.49,1.52,50.29c6.82-0.31,13.72-0.28,20.54-0.11
				c0.18,0.01,0.31,0.07,0.43,0.15c0.01-3.26-0.05-6.56,0.06-9.82c-3.14-0.06-6.27-0.03-9.41,0.07l-0.03-1.35
				c3.13-0.34,6.3-0.43,9.45-0.27c0.2,0.01,0.36,0.08,0.48,0.19c0.11-0.26,0.5-0.42,0.74-0.17c1.05,1.07,1.98,2.28,2.67,3.61
				c0.1,0.19,0.1,0.37,0.05,0.52C119.953,66.227,119.973,66.257,119.973,66.287z"/>
			<path fill="#87C1C5" d="M106.593,63.657c3.14-0.1,6.27-0.13,9.41-0.07c-0.11,3.26-0.05,6.56-0.06,9.82
				c-0.12-0.08-0.25-0.14-0.43-0.15c-6.82-0.17-13.72-0.2-20.54,0.11c-1.37-16.8-0.9-33.5-1.52-50.29
				c3.34,0.69,6.84,0.86,10.25,0.96c-1.53,12.69-0.36,26.33,0.89,38.99c0.06,0.67,0.79,0.89,1.23,0.65
				C106.083,63.667,106.333,63.657,106.593,63.657z"/>
			<path fill="#222221" d="M107.933,27.037c0.34,11.47-0.31,23-0.01,34.5c0.02,0.68-0.71,0.85-1.14,0.54
				c-0.06,0.1-0.13,0.17-0.22,0.23l0.03,1.35c-0.26,0-0.51,0.01-0.77,0.02c-0.44,0.24-1.17,0.02-1.23-0.65
				c-1.25-12.66-2.42-26.3-0.89-38.99c-3.41-0.1-6.91-0.27-10.25-0.96l-1-0.09c0.01-0.07,0.01-0.13,0.02-0.2
				c0.02-0.21,0.14-0.34,0.28-0.41c0.05-0.23,0.23-0.44,0.51-0.43c3.59,0.09,7.16,0.51,10.75,0.67c0.3,0.01,0.49,0.17,0.59,0.38
				c0.12,0.01,0.23,0.04,0.33,0.13c1.04,0.9,2.08,1.96,2.98,3C108.173,26.437,108.123,26.797,107.933,27.037z"/>
			<path fill="#222221" d="M151.934,64.531c0.02,3.36,0.18,6.81-0.21,10.15c0.39,0.4,0.22,1.22-0.5,1.27
				c-6.99,0.43-14.17,0.43-21.17,0.14c-0.22,0.14-0.5,0.18-0.72-0.02c-0.17,0.04-0.36,0.01-0.53-0.12
				c-1.08-0.89-2.11-1.91-3.09-2.91c-0.19-0.19-0.05-0.51,0.16-0.57c0-0.01-0.01-0.01-0.01-0.02c-0.24-0.11-0.44-0.33-0.47-0.66
				c-1.32-16.58-2.63-33.96-0.98-50.56l1,0.09c0.62,16.79,0.15,33.49,1.52,50.29c6.82-0.31,13.72-0.28,20.54-0.11
				c0.18,0.01,0.31,0.07,0.43,0.15c0.01-3.26-0.05-6.56,0.06-9.82c-3.14-0.06-6.27-0.03-9.41,0.07l-0.03-1.35
				c3.13-0.34,6.3-0.43,9.45-0.27c0.2,0.01,0.36,0.08,0.48,0.19c0.11-0.26,0.5-0.42,0.74-0.17c1.05,1.07,1.98,2.28,2.67,3.61
				c0.1,0.19,0.1,0.37,0.05,0.52C151.914,64.471,151.934,64.501,151.934,64.531z"/>
			<path fill="#87C1C5" d="M138.554,61.901c3.14-0.1,6.27-0.13,9.41-0.07c-0.11,3.26-0.05,6.56-0.06,9.82
				c-0.12-0.08-0.25-0.14-0.43-0.15c-6.82-0.17-13.72-0.2-20.54,0.11c-1.37-16.8-0.9-33.5-1.52-50.29
				c3.34,0.69,6.84,0.86,10.25,0.96c-1.53,12.69-0.36,26.33,0.89,38.99c0.06,0.67,0.79,0.89,1.23,0.65
				C138.044,61.911,138.294,61.901,138.554,61.901z"/>
			<path fill="#222221" d="M139.894,25.281c0.34,11.47-0.31,23-0.01,34.5c0.02,0.68-0.71,0.85-1.14,0.54
				c-0.06,0.1-0.13,0.17-0.22,0.23l0.03,1.35c-0.26,0-0.51,0.01-0.77,0.02c-0.44,0.24-1.17,0.02-1.23-0.65
				c-1.25-12.66-2.42-26.3-0.89-38.99c-3.41-0.1-6.91-0.27-10.25-0.96l-1-0.09c0.01-0.07,0.01-0.13,0.02-0.2
				c0.02-0.21,0.14-0.34,0.28-0.41c0.05-0.23,0.23-0.44,0.51-0.43c3.59,0.09,7.16,0.51,10.75,0.67c0.3,0.01,0.49,0.17,0.59,0.38
				c0.12,0.01,0.23,0.04,0.33,0.13c1.04,0.9,2.08,1.96,2.98,3C140.134,24.681,140.084,25.041,139.894,25.281z"/>
			<path fill="#222221" d="M90.183,69.367c0.26,0.09,0.45,0.31,0.41,0.68c-0.41,3.6-1.05,7.23-2.38,10.62
				c-0.12,0.32-0.41,0.42-0.66,0.38c-0.12,0.15-0.3,0.26-0.55,0.27c-7.62,0.15-15.47,0.17-23.08-0.84
				c-0.92,0.01-1.84-0.02-2.69-0.31c-0.14,0.29-0.48,0.46-0.88,0.28c-0.78-0.35-1.45-1.08-2.11-1.64c-0.71-0.61-1.47-1.2-2.11-1.88
				c-0.24-0.25-0.14-0.6,0.09-0.76c-0.01-0.04-0.02-0.08-0.02-0.13c0.11-17.13-0.37-34.38,0.47-51.49c0.02-0.44,0.31-0.66,0.64-0.71
				c-0.08-0.27,0.07-0.59,0.45-0.64c0.07-0.01,0.15-0.02,0.22-0.02l0.11,1.03c0.04,0.1,0.08,0.21,0.08,0.34
				c0.62,17.03-0.07,34.19-0.18,51.24c4.48,0.15,8.96,0.34,13.44,0.44c1.99,0.05,3.98,0.07,5.97,0.09c1.08,0.01,7.5,0.68,8.08-0.14
				c0.02-0.02,0.03-0.03,0.05-0.05c0.21-3.08,0.48-6.16,0.75-9.23l0.29-1.35c0.15,0.03,0.3,0.07,0.45,0.1
				c0.18-0.18,0.45-0.24,0.65,0.01c0.04,0.05,0.08,0.11,0.12,0.17c0.03,0.01,0.07,0.01,0.1,0.02c0.32,0.08,0.43,0.37,0.37,0.63
				c0.27,0.37,0.55,0.74,0.8,1.11C89.443,68.147,89.923,68.737,90.183,69.367z"/>
			<path fill="#222221" d="M87.253,23.667c0.45-0.23,1.18,0.17,1.07,0.84c-0.63,3.76-0.84,7.48-0.99,11.29
				c-0.01,0.3-0.18,0.47-0.39,0.53c-0.03,0.33-0.25,0.62-0.68,0.62c-4.9-0.08-9.97-0.24-14.86-0.86c0,1.71,0,3.42-0.01,5.13
				c0,2.11,0.32,4.48-0.39,6.49c1.88-0.12,3.76-0.17,5.64-0.26c0.8-0.03,2.21-0.35,3.37-0.3l-0.07,1.68c-0.12,0-0.37,0.14-0.92,0.22
				c-3.18,0.49-6.78,0.45-10.01,0.44c-0.7,0-0.91-0.65-0.69-1.13c-0.04-0.05-0.06-0.11-0.08-0.17c-1.14-4.76-0.39-10.51-0.36-15.4
				c0-0.38,0.2-0.62,0.47-0.74c0.04-0.19,0.19-0.35,0.42-0.36c4.88-0.21,9.85,0.28,14.74,0.29c0.02,0,0.04,0.01,0.06,0.01
				c-0.01-0.06,0-0.1-0.02-0.17c0.4-0.73,0.08-2.12,0.08-2.96c0-1.86-0.01-3.72,0-5.57c-0.14,0.17-0.35,0.3-0.63,0.32
				c-8.19,0.57-16.72,1.4-24.91,0.6l-0.11-1.03c8.25-0.99,16.72-0.78,25.02-1.3c0.12-0.01,0.22,0.01,0.31,0.03
				c0.08-0.27,0.36-0.47,0.68-0.27C85.083,22.307,86.163,22.987,87.253,23.667z"/>
			<path fill="#222221" d="M86.573,65.547l-0.29,1.35c-5.79-0.11-11.79-0.57-17.52-1.09c-0.33-0.03-0.54-0.21-0.64-0.44
				c-0.05-0.05-0.08-0.11-0.1-0.19c-0.42-1.89-0.52-4.44-0.16-6.45c0.06-0.53,0.14-1.03,0.26-1.47c0.07-0.26,0.29-0.49,0.56-0.55
				c1.55-0.38,3.32-0.08,4.91-0.04c1.97,0.06,3.94,0.07,5.91,0.19c0.24,0.01,0.42,0.11,0.54,0.25c-0.06-1.68-0.02-3.35,0.05-5.03
				c0.02-0.74,0.2-1.63,0.08-2.37c-0.11-0.69-0.08-0.88-0.23-0.88l0.07-1.68c0.57,0.02,1.09,0.13,1.43,0.41
				c0.02,0.01,0.03,0.03,0.04,0.05c0.7,0.5,1.38,1.02,2.05,1.56c0.13,0.1,0.18,0.25,0.18,0.41c0.15,0.16,0.25,0.39,0.21,0.66
				c-0.37,2.77-0.34,5.53-0.61,8.3c-0.03,0.3-0.29,0.48-0.54,0.51c0.04,0.34-0.11,0.66-0.55,0.73c-2.06,0.31-4.19,0.26-6.27,0.31
				c-1.61,0.04-3.32,0.28-4.86-0.18c0,1.43-0.02,2.9-0.23,4.31C76.013,64.027,81.603,64.437,86.573,65.547z"/>
			<path fill="#87C1C5" d="M86.283,66.897c-0.27,3.07-0.54,6.15-0.75,9.23c-0.02,0.02-0.03,0.03-0.05,0.05
				c-0.58,0.82-7,0.15-8.08,0.14c-1.99-0.02-3.98-0.04-5.97-0.09c-4.48-0.1-8.96-0.29-13.44-0.44c0.11-17.05,0.8-34.21,0.18-51.24
				c0-0.13-0.04-0.24-0.08-0.34c8.19,0.8,16.72-0.03,24.91-0.6c0.28-0.02,0.49-0.15,0.63-0.32c-0.01,1.85,0,3.71,0,5.57
				c0,0.84,0.32,2.23-0.08,2.96c0.02,0.07,0.01,0.11,0.02,0.17c-0.02,0-0.04-0.01-0.06-0.01c-4.89-0.01-9.86-0.5-14.74-0.29
				c-0.23,0.01-0.38,0.17-0.42,0.36c-0.27,0.12-0.47,0.36-0.47,0.74c-0.03,4.89-0.78,10.64,0.36,15.4c0.02,0.06,0.04,0.12,0.08,0.17
				c-0.22,0.48-0.01,1.13,0.69,1.13c3.23,0.01,6.83,0.05,10.01-0.44c0.55-0.08,0.8-0.22,0.92-0.22c0.15,0,0.12,0.19,0.23,0.88
				c0.12,0.74-0.06,1.63-0.08,2.37c-0.07,1.68-0.11,3.35-0.05,5.03c-0.12-0.14-0.3-0.24-0.54-0.25c-1.97-0.12-3.94-0.13-5.91-0.19
				c-1.59-0.04-3.36-0.34-4.91,0.04c-0.27,0.06-0.49,0.29-0.56,0.55c-0.12,0.44-0.2,0.94-0.26,1.47c-0.36,2.01-0.26,4.56,0.16,6.45
				c0.02,0.08,0.05,0.14,0.1,0.19c0.1,0.23,0.31,0.41,0.64,0.44C74.493,66.327,80.493,66.787,86.283,66.897z"/>
			<path fill="#222221" d="M53.903,85.167c0.48,0.15,0.43,0.92-0.14,0.95c-0.01,0-0.01,0-0.02,0c-0.15,0.15-0.4,0.16-0.57,0.04
				c-3.61,0.24-7.8,0.75-11.31,0.25c-2.48-0.36-4.37-2.99-5.93-4.78c-0.17-0.2,0.07-0.57,0.31-0.4c0.04,0.04,0.09,0.07,0.13,0.1
				c-0.57-1.15-0.32-2.8-0.35-3.97c-0.01-0.56-0.02-1.12-0.02-1.69l1.61-0.01c0,1.11,0.04,2.21,0.23,3.3
				c0.28,1.62,0.48,1.63,1.94,1.92c1.11,0.22,2.46,0.02,3.58-0.01c2.09-0.08,4.15-0.31,6.22-0.55c-2.11-18.57-1.79-38.3-0.62-56.96
				c-1.75,0-4.26-0.24-6.5-0.19l-0.05-1.35c2.37-0.09,4.73-0.17,7.1-0.25c0.24-0.01,0.43,0.07,0.57,0.2
				c0.11,0.02,0.21,0.07,0.31,0.13c0.02,0.01,0.05,0.01,0.08,0.03c0.93,0.49,1.89,0.91,2.81,1.4c0.15,0.09,0.22,0.22,0.24,0.37
				c0.27,0.05,0.48,0.24,0.44,0.6c-0.53,4.67-0.62,9.43-0.57,14.2c0.33,3.33,0.41,6.65,0.23,9.99c0.06,2.16,0.11,4.32,0.12,6.46
				C53.813,65.007,54.173,75.107,53.903,85.167z"/>
			<path fill="#87C1C5" d="M48.963,23.357c-1.17,18.66-1.49,38.39,0.62,56.96c-2.07,0.24-4.13,0.47-6.22,0.55
				c-1.12,0.03-2.47,0.23-3.58,0.01c-1.46-0.29-1.66-0.3-1.94-1.92c-0.19-1.09-0.23-2.19-0.23-3.3c0-2.62,0.23-5.24-0.8-7.74
				c0.16-0.53-0.11-1.18-0.81-1.11c-0.33,0.03-0.67,0.06-1,0.08c-3.67,0.07-7.34,0.14-10.99,0.42c-0.15,0.01-0.26,0.07-0.34,0.14
				c-0.41,0.03-0.8,0.31-0.8,0.85c-0.02,2.24-0.01,4.49,0,6.74c0,1.83,0.64,5.03,0.01,6.74c-0.68,1.87-4.11,1.13-5.74,1.13
				c-1.96-0.01-3.93-0.15-5.85,0.23c0-0.03,0.02-0.06,0.02-0.09c-0.3-9.63-1.04-19.23-1.29-28.86c-0.25-9.55,0.33-19.27-0.35-28.79
				c2.95,0.18,7.25-0.7,9.69,0.29c1.9,0.77,1.55,2.41,1.71,4.39c0.15,1.98,0.12,4.01,0.18,5.99c0.22,7.32,0.4,14.65,0.67,21.97
				c0.04,0.84,1.01,1.05,1.49,0.64c4.09,0.45,8.25,0.49,12.35,0.56c0.74,0.02,0.99-0.72,0.76-1.25c-0.05-7.48-0.98-14.9-0.78-22.41
				c0.1-3.44-0.76-10.2,3.12-11.85c0.92-0.39,2.21-0.53,3.6-0.56C44.703,23.117,47.213,23.357,48.963,23.357z"/>
			<path fill="#222221" d="M42.413,21.817l0.05,1.35c-1.39,0.03-2.68,0.17-3.6,0.56c-3.88,1.65-3.02,8.41-3.12,11.85
				c-0.2,7.51,0.73,14.93,0.78,22.41c0.23,0.53-0.02,1.27-0.76,1.25c-4.1-0.07-8.26-0.11-12.35-0.56c-0.48,0.41-1.45,0.2-1.49-0.64
				c-0.27-7.32-0.45-14.65-0.67-21.97c-0.06-1.98-0.03-4.01-0.18-5.99c-0.16-1.98,0.19-3.62-1.71-4.39
				c-2.44-0.99-6.74-0.11-9.69-0.29l-0.14-1.23c2.33-0.27,4.65-0.25,7.01-0.26c1.19,0,3.65-0.49,4.75,0.1
				c0.31,0.17,0.54,0.33,0.72,0.5c4.24,1.47,4.32,4.03,4.51,8.78c0.33,7.99,0.6,15.98,0.84,23.97c2.6,0,5.2,0.09,7.79,0.19
				c-2.02-9.42-1.54-19.86-0.79-29.38c0.18-2.31-0.2-4.8,1.95-5.88C37.953,21.357,40.653,21.877,42.413,21.817z M26.113,57.267
				c-0.03-0.67-0.05-1.34-0.07-2.01c-0.05,0.56-0.08,1.12-0.16,1.7c-0.01,0.12-0.05,0.23-0.11,0.32
				C25.893,57.277,26.003,57.267,26.113,57.267z M23.483,26.947c0.74,1.22,1.29,2.44,1.68,3.68
				C24.843,29.237,24.323,27.967,23.483,26.947z"/>
			<path fill="#222221" d="M36.813,67.917c1.03,2.5,0.8,5.12,0.8,7.74l-1.61,0.01c-0.01-1.07-0.01-2.17-0.06-3.25
				c-1.82,0.06-3.65-0.05-5.47,0.04c-0.39-0.01-0.77-0.01-1.16-0.01c-1.12-0.21-1.58,0.1-1.39,0.92c-0.23,0.54,0,1.74,0,2.33
				c-0.01,3.69,0.13,7.42-0.19,11.09c-0.03,0.43-0.46,0.55-0.73,0.38c-0.07,0.2-0.24,0.36-0.5,0.37c-4.02,0.25-8.5,0.84-12.51,0.34
				c-2.31-0.29-3.06-2.43-4.12-4.32c-0.02-0.02-0.02-0.05-0.03-0.07c-0.09-0.12-0.17-0.26-0.18-0.44
				c-0.98-9.56-1.18-19.26-1.43-28.86c-0.25-9.51-0.91-19.42,0.06-28.9c0.02-0.18,0.09-0.31,0.19-0.42
				c-0.05-0.28,0.13-0.59,0.53-0.64c0.17-0.02,0.35-0.04,0.52-0.06l0.14,1.23c0.68,9.52,0.1,19.24,0.35,28.79
				c0.25,9.63,0.99,19.23,1.29,28.86c0,0.03-0.02,0.06-0.02,0.09c1.92-0.38,3.89-0.24,5.85-0.23c1.63,0,5.06,0.74,5.74-1.13
				c0.63-1.71-0.01-4.91-0.01-6.74c-0.01-2.25-0.02-4.5,0-6.74c0-0.54,0.39-0.82,0.8-0.85c0.08-0.07,0.19-0.13,0.34-0.14
				c3.65-0.28,7.32-0.35,10.99-0.42c0.33-0.02,0.67-0.05,1-0.08C36.703,66.737,36.973,67.387,36.813,67.917z M24.863,71.867
				c-0.08-0.17-0.15-0.34-0.22-0.52c0,0.91,0.01,1.82,0.01,2.73c0.04-0.03,0.09-0.05,0.13-0.07
				C24.813,73.287,24.843,72.577,24.863,71.867z"/>
		</g>
	</g>
</g>
<g id="TEXTURE">
</g>
<g id="DESIGNED_BY_FREEPIK">
</g>
</svg>
