<svg viewBox="0 0 16 16" xmlns="http://www.w3.org/2000/svg" fill-rule="evenodd" clip-rule="evenodd" stroke-linejoin="round" stroke-miterlimit="1.41"><path d="M3.92 5.85l.46-2.33s.84-.72 1.65.05c.8.78 1.52 2.1 1.52 2.1s1.9.34 2.22.5c0 0 .18-.52 1.03-.16 0 0 1.01.5 1.31 1.07 0 0 .93-1.4 1.99-1.31 1.06.08-.45 2.35-.45 2.35l-.1.18s1.28 1.35.8 1.89c-.47.54-1.52.01-1.77-.2-.24-.2-.7-.55-.82-.79l-1.35.38 2.25 2.65s-.26 1.08-1.28.88l-2.09-1.06s-.87.9-2.51.63c-1.4-.24-1.06-1.67-.67-2.04 0 0-3.6.77-5.14-.17C-.58 9.54-.05 8.22.99 7.6c0 0 .82-1.59 2.93-1.74z" fill-opacity=".2"></path><path d="M4.44 5.62l.46-2.33s.85-.72 1.65.05c.8.78 1.53 2.1 1.53 2.1s1.89.34 2.21.51c0 0 .18-.53 1.03-.17 0 0 1.01.5 1.32 1.07 0 0 .92-1.4 1.98-1.3 1.06.08-.44 2.35-.44 2.35l-.11.17s1.28 1.35.81 1.9c-.47.53-1.53 0-1.77-.2-.24-.21-.7-.56-.82-.8l-1.36.38L13.2 12s-.27 1.08-1.29.88l-2.09-1.06s-.87.9-2.51.63c-1.4-.24-1.05-1.67-.66-2.04 0 0-3.6.77-5.15-.17C-.05 9.31.48 8 1.52 7.37c0 0 .81-1.6 2.92-1.75z" fill="#fff"></path><path d="M5.75 2.92h.16l.02.01h.02l.02.01H6l.02.01h.02l.02.01.01.01h.02l.02.01.02.01.02.01h.02l.02.02h.02l.02.02h.02l.02.02h.02l.02.02.02.01.02.01.02.02.02.01.02.01.02.02.02.01.02.02.02.01.02.02.02.02.02.02.02.01.02.02.04.04.03.04.04.04.04.04.04.04.03.04.04.04.04.04.03.04.04.04.04.05.03.04.04.04.03.05.04.04.03.04.04.05.03.04.03.05.04.04.03.04.03.05.03.04.03.05.03.04.03.04.03.04.03.05.03.04.03.04.02.04.03.04.05.08.05.08.05.07.04.07.04.07.04.06.04.06.03.05.03.05.02.04.03.04.01.03.02.03.05.01.1.02.12.02.15.03.16.03.1.02.09.02.1.02.09.02.1.02.09.02.1.02.1.02.09.03.09.02.09.02h.04l.04.02.05.01.04.01.04.01.03.01.04.01.04.01.03.01.03.01.03.01.03.01.03.01.03.01.02.01v-.02h.01l.01-.02.02-.02.01-.02h.01l.01-.02h.01l.02-.02.02-.02.01-.01.02-.01.01-.01.02-.01h.01l.02-.02h.02l.01-.02h.02l.02-.01h.02l.02-.02h.05l.02-.01h.04l.02-.01h.24l.02.01h.05l.01.01h.02l.02.01h.03l.02.01h.02l.02.01.01.01h.02l.02.01h.02l.02.01.02.01.02.01h.02l.02.02h.02l.02.01.03.02.02.01.03.02.03.01.04.02.04.03.04.02.05.03.04.03.05.03.03.01.03.02.02.02.03.01.03.02.02.02.03.02.03.02.03.02.03.02.03.02.02.02.03.02.03.02.03.03.03.02.02.02.03.02.03.03.03.02.02.03.03.02.03.02.02.03.03.02.02.03.03.03.02.02.02.03.03.03.02.02v.02l.02.01.01.02h.01v.02l.02.02v.01h.01l.03-.04.04-.04.01-.02.02-.03.02-.02.02-.03.03-.02.02-.03.02-.03.03-.03.03-.03.02-.03.03-.03.03-.03.03-.03.03-.04.03-.03.04-.03.03-.03.03-.04.04-.03.03-.03.04-.03.04-.03.02-.02.02-.01.02-.02.02-.02.02-.01.02-.02.02-.01.02-.02.02-.01.02-.02.02-.01.02-.02h.02l.02-.02.02-.02.02-.01.03-.01.02-.02.02-.01.02-.01.02-.02h.03l.02-.02.02-.01.03-.01.02-.01.02-.01.03-.02h.02l.02-.02H14l.02-.01.02-.01.03-.01h.02l.03-.02h.02l.03-.01h.02l.03-.01.02-.01h.03l.02-.01h.05l.03-.01h.07l.03-.01h.21l.01.01h.04l.01.01h.03v.01h.02l.02.01h.01l.01.01h.01l.01.01h.01l.01.01.01.01.02.01v.01h.01l.01.01.01.01.02.02.01.01.01.02h.01v.01l.01.01v.01l.01.01v.01l.01.01.01.02.01.02v.02h.01v.02l.01.02v.03l.01.02v.07l.01.02v.17l-.01.02v.03l-.01.02v.03l-.01.03v.02l-.01.03v.02l-.02.03v.03l-.01.02v.03l-.02.03v.02l-.01.03-.01.03-.01.03-.01.02-.01.03-.01.03-.01.03-.02.02v.03l-.02.03v.03l-.02.02-.01.03-.03.06-.02.05-.03.05-.02.06-.03.05-.03.05-.02.05-.03.05-.02.05-.03.05-.03.05-.02.05-.03.04-.02.04-.03.04-.02.04-.02.04-.02.04-.02.03-.04.06-.03.05-.03.05-.02.03-.02.02-.08.13.02.02.03.03.03.04.04.04.04.05.02.03.03.03.02.03.02.02.03.04.02.03.03.03.02.03.03.04.02.03.03.04.03.03.02.04.03.04.02.04.03.03.02.04.03.04.02.04.02.04.03.04.02.04.01.02.01.02.01.02.01.02.01.02.01.02.01.02.01.03.01.02v.02l.02.02v.02l.01.02.01.02v.02l.01.02.01.02v.02l.01.02.01.02v.02l.01.02v.04l.01.02v.04l.01.02v.21l-.01.02v.01l-.01.02-.01.02v.02l-.02.01v.02l-.01.02-.01.01-.01.02-.01.02-.02.01v.02l-.02.01-.01.01-.02.02-.02.02-.02.01v.01l-.02.01-.02.02h-.01l-.02.02h-.01l-.02.01-.01.01-.02.01h-.01l-.02.02h-.03l-.01.02h-.04l-.01.01h-.02l-.02.01h-.01l-.02.01h-.03l-.02.01h-.05l-.02.01h-.31l-.04-.01h-.03l-.04-.02h-.03l-.04-.01-.03-.01h-.03l-.04-.02h-.03l-.04-.02-.03-.01-.03-.01-.03-.01-.04-.02h-.03l-.03-.02-.03-.01-.03-.02h-.03l-.03-.02-.02-.02h-.03l-.03-.02-.02-.02-.03-.01-.02-.01-.03-.02-.02-.01-.02-.01-.02-.02h-.02l-.02-.02-.02-.01-.02-.02h-.01l-.02-.02-.01-.01-.02-.01-.02-.02-.02-.02-.06-.05-.1-.09-.07-.05-.06-.05-.03-.03-.03-.02-.03-.03-.03-.03-.03-.03-.03-.02-.03-.03-.03-.03-.03-.02-.03-.03-.02-.03-.03-.02-.02-.03-.02-.01v-.02l-.02-.01v-.01l-.02-.02v-.01l-.02-.01v-.02l-.02-.01v-.01l-1.2.33 2.18 2.57.01.02v.1l-.02.03v.02l-.01.02-.01.02v.02l-.02.02v.01l-.01.02-.01.02-.01.03-.01.02-.02.02v.02l-.02.03-.01.02-.02.02-.01.03-.02.02-.02.03-.01.02-.02.03-.02.02-.02.02v.02h-.02l-.01.02-.01.01-.01.01-.01.02h-.01l-.02.02v.01l-.02.01-.01.01-.02.01v.01l-.02.02h-.01l-.02.02h-.01l-.02.02-.02.02h-.02l-.01.02h-.02l-.01.01-.02.01-.02.01-.01.01h-.02l-.01.02h-.02l-.02.01h-.02l-.01.01-.02.01h-.02l-.02.01h-.02l-.02.01h-.01l-.02.01h-.02l-.02.01h-.04l-.02.01h-.32l-.02-.01h-.05l-.01-.01h-.01L9.83 11.9l-.03.03-.02.01-.01.01-.02.02-.02.01-.02.02-.02.01-.02.02-.02.01-.02.02-.03.02-.03.02-.02.01-.03.02-.03.02-.03.02-.04.02-.03.02-.03.02-.04.01-.04.02-.04.02-.04.02-.04.02h-.02l-.02.02H9.1l-.03.02h-.02l-.02.01-.02.01-.03.01h-.02l-.02.02H8.9l-.02.01-.03.01h-.02l-.03.02-.03.01h-.03l-.02.01-.03.01h-.03l-.02.01-.03.01h-.03l-.03.01h-.03l-.03.01h-.02l-.03.01H8.4l-.03.01H8.3l-.03.01h-.06l-.03.01h-.13l-.03.01h-.35l-.04-.01h-.07l-.04-.01h-.04l-.04-.01H7.4l-.03-.01h-.04l-.04-.01h-.04l-.03-.02H7.2l-.03-.01h-.03l-.03-.02h-.03l-.03-.01-.03-.01-.03-.01-.03-.01-.03-.01-.02-.02h-.03l-.02-.02-.03-.01-.02-.01-.03-.02h-.02l-.02-.02-.02-.02-.03-.01-.02-.02-.02-.01-.02-.02-.02-.01-.01-.02-.02-.01-.02-.02-.02-.02-.02-.01-.01-.02-.02-.02-.01-.02-.02-.02-.01-.01-.02-.02v-.02L6.4 12l-.01-.02-.01-.02-.02-.02v-.02l-.02-.02v-.02l-.02-.02v-.02l-.01-.02-.01-.02v-.02l-.02-.02v-.04l-.01-.02-.01-.02v-.02l-.01-.03v-.04l-.01-.02v-.04l-.01-.02v-.37l.01-.02v-.04l.01-.02v-.04l.01-.02v-.02l.01-.02v-.02l.01-.02v-.02l.01-.02.01-.01v-.02l.01-.02.01-.02v-.02l.01-.02.01-.02v-.01l.01-.02.01-.02.01-.01v-.02l.02-.02v-.01l.01-.02.01-.02v-.01l.02-.02v-.01l.01-.02.01-.01.01-.02-.05.01-.05.01-.05.01h-.06l-.06.02-.06.01-.07.01-.07.01-.07.01-.08.01-.08.01-.08.02H5.6l-.09.02-.09.01-.09.01-.09.01-.1.01-.09.01-.1.01h-.1l-.1.02H4.6l-.05.01h-.11l-.05.01h-.21l-.06.01h-.81l-.05-.01h-.11l-.05-.01h-.05L3 10.73h-.06l-.05-.01-.05-.01h-.05l-.06-.01-.05-.01-.05-.01h-.05l-.05-.02h-.05l-.05-.02h-.05l-.05-.02h-.05l-.04-.02-.05-.01-.05-.02h-.05l-.04-.02-.05-.02-.04-.01-.05-.02-.04-.01-.02-.01h-.03l-.02-.02h-.02l-.02-.02h-.02l-.02-.01-.02-.01-.02-.01-.03-.01-.02-.01-.02-.01-.02-.01-.02-.01-.02-.01-.02-.01-.01-.01-.02-.02h-.02l-.02-.02-.04-.02-.03-.02-.04-.02-.03-.03-.04-.02-.03-.02-.03-.03-.03-.02-.03-.02-.03-.03-.03-.02-.03-.03-.03-.02L1 9.98v-.03l-.03-.02-.02-.03-.03-.02-.02-.03-.03-.02-.02-.03-.02-.02-.02-.03-.02-.02-.02-.03-.02-.02-.02-.03-.02-.02L.7 9.6l-.02-.03-.02-.02-.01-.03-.02-.02-.01-.03-.01-.03-.02-.02v-.03l-.02-.02-.01-.03-.01-.03-.01-.02v-.03L.5 9.23v-.08l-.01-.02-.01-.03v-.03l-.01-.02v-.08l-.01-.03v-.26l.01-.03v-.02l.01-.03v-.02l.01-.03v-.02L.5 8.5l.01-.03v-.02l.02-.03V8.4l.01-.03.01-.02.01-.02.01-.03.01-.02.01-.03.01-.02.02-.03v-.02l.02-.02.01-.03.02-.02.01-.02.02-.03v-.02l.02-.02.02-.03.01-.02.02-.02.02-.02.01-.02.02-.03.02-.02.01-.02.02-.02.02-.02.02-.02.02-.02.02-.02.02-.03.02-.02.02-.02.02-.02.02-.01.02-.02.02-.02.02-.02.02-.02.02-.02.03-.02.02-.02.02-.01.02-.02.03-.02.02-.02.02-.01.03-.02.02-.02.02-.01.03-.02.02-.01.03-.02.02-.03.02-.03v-.02l.02-.02.02-.02v-.02l.03-.03.01-.02.02-.03.02-.03.02-.03.03-.03.02-.03.03-.03.02-.04.03-.03.03-.04.04-.03.03-.04.03-.04.02-.02.02-.02.02-.01.02-.02.02-.02.02-.02.02-.02.02-.02.02-.02.02-.02.02-.02.02-.02.03-.02.02-.02.02-.02.03-.02.02-.02.02-.02.03-.02.02-.02.03-.02.03-.02.02-.02.03-.02.03-.02.02-.02.03-.02.03-.02.03-.02.03-.02.03-.01.03-.02.03-.02.03-.02.03-.02.04-.02.03-.01.03-.02.03-.02.04-.02.03-.01.04-.02.03-.02.04-.01.03-.02.04-.02.04-.01.03-.02.04-.01.04-.02.04-.01.04-.02.04-.01.04-.01.04-.02.04-.01.04-.01.04-.01.04-.02h.04l.05-.02h.04l.05-.02h.04l.04-.02h.05l.05-.01.04-.01.05-.01h.05l.04-.01.05-.01h.05l.05-.01h.05l.45-2.28v-.02l.01-.01.01-.01.01-.01.01-.01.02-.01.02-.02.03-.02h.01l.02-.02H5v-.03l.02-.01.02-.01.02-.01.02-.01.02-.02h.03l.02-.02.02-.01.03-.01.03-.01.02-.01h.05l.03-.01.03-.01.03-.01.03-.01h.03l.01-.01h.02l.02-.01h.05l.01-.01h.05l.02-.01h.11zm-.04.06h-.08L5.6 3h-.1l-.01.01h-.03l-.02.01h-.01l-.03.01-.03.01-.03.01-.02.01-.03.01-.03.01-.02.01-.03.01-.02.01-.02.01-.02.01-.02.02H5.1l-.02.02h-.02l-.02.02-.02.01-.01.01-.02.01H5l-.03.03-.02.01-.01.01-.01.01-.01.01-.47 2.33h-.09l-.05.01h-.05l-.05.01-.04.01H4.1l-.05.01-.04.01-.05.01-.04.01h-.05l-.04.02H3.8l-.05.02h-.04l-.04.02-.04.01-.04.01-.04.02H3.5l-.04.02-.04.01-.04.02-.04.01-.04.02-.03.01-.04.02-.04.01-.03.02-.04.01-.03.02-.04.01-.03.02-.04.02-.03.01-.03.02-.04.02-.03.02-.03.01-.03.02-.03.02-.03.02-.03.01-.03.02-.03.02-.03.02-.03.02-.03.02-.03.02-.02.02-.03.02-.03.02-.02.01-.03.02-.02.02-.03.02-.02.02-.03.02-.02.02-.02.02-.03.02-.02.02-.02.02-.02.02-.02.02-.03.02-.02.02-.02.02-.02.02-.01.02-.02.01-.02.02-.02.02-.02.02-.02.02-.03.04-.03.03-.03.04-.03.03-.03.04-.03.03-.02.03-.03.03-.02.03-.02.03-.02.03-.02.03-.02.02-.01.03-.02.02-.01.02-.01.02-.01.02-.02.03-.01.02v.01h-.01l-.03.02-.02.01-.02.02-.03.02-.02.01-.02.02-.03.01-.02.02-.02.02-.02.01-.03.02-.02.02-.02.02-.02.01-.02.02-.02.02-.03.02-.02.02-.02.02-.02.01-.02.02-.01.02-.02.02-.02.02-.02.02-.02.02-.02.02-.01.02-.02.02-.02.02-.02.03-.01.02-.02.02-.01.02-.02.02-.01.02-.02.02-.01.03-.02.02-.01.02-.01.02-.02.03v.02l-.02.02-.01.02-.01.03-.01.02-.01.02-.01.03-.01.02-.01.02-.01.03-.01.02v.03l-.02.02v.02l-.01.03v.02l-.01.03v.02l-.01.03v.02l-.01.02v.05l-.01.03v.3l.01.02v.03l.01.02v.03l.01.02.01.03v.02l.02.03v.02l.01.03.01.02.01.03.02.02v.03l.02.02.01.03.02.02v.03l.02.02.02.03.01.02.02.03.02.02.02.03.01.02.02.02.02.03.02.02.02.03.03.02.02.03.02.02.02.02.03.03.02.02.03.02.03.03.02.02.03.03.03.02.03.02.03.02.03.03.03.02.03.02.04.02.03.03.03.02.04.02.03.02.02.01.02.01.02.02h.02l.02.02h.02l.02.02h.01l.02.02h.02l.02.01.02.01.02.01.03.01.02.01h.02l.02.02h.02l.02.01.02.01.04.02.05.01.04.02.05.01.04.02h.05l.05.02.04.01.05.01.05.02h.05l.04.02h.05l.05.01.05.01.05.01.05.01h.05l.06.01.05.01h.05l.05.01H3l.05.01h.06l.05.01h.11l.05.01h.16l.05.01h.8l.06-.01h.15l.05-.01h.11l.05-.01.1-.01h.1l.1-.02h.09l.1-.02h.09l.09-.02.08-.01.1-.01.07-.01.09-.01.07-.02h.08l.07-.02h.07l.07-.02h.06l.06-.02h.05l.06-.02h.05l.08-.02.07-.02h.05l.04-.01h-.01l-.01.01-.01.01-.01.01v.01l-.02.02-.02.02v.01l-.01.01-.01.01-.01.02v.01l-.02.01v.02l-.01.01-.01.02-.01.01v.02l-.02.01v.02l-.01.01v.02l-.02.01v.02l-.01.02v.01l-.02.02v.03l-.02.02v.04l-.01.02v.01l-.01.02-.01.02v.02l-.01.02v.04l-.01.02v.02l-.01.02v.03l-.01.02v.06l-.01.02v.35l.01.02v.04l.01.02v.02l.01.02v.02l.01.02.01.02v.02l.01.02.01.02v.02l.02.01v.02l.01.02.01.02.01.02.01.02.02.01v.02l.02.02.01.02.01.01.02.02.01.02.01.02.02.01.01.02.02.01.02.02.01.01.02.02.02.01.02.02.01.01.02.02.02.01.02.01.02.02.03.01.02.01.02.02h.02l.03.02.02.01.02.01.03.01.03.01.02.01.03.01.03.01h.02l.03.02h.03l.03.01.03.01h.04l.03.01h.03l.04.01.04.01h.03l.04.01h.04l.04.01h.07l.03.01h.15l.03.01h.36l.03-.01h.07l.03-.01h.06l.03-.01h.03l.02-.01h.03l.03-.01h.03l.03-.01h.02l.03-.01.03-.01h.02l.03-.01.03-.01h.02l.03-.01.02-.01h.03l.02-.02h.03l.02-.01h.02l.03-.02h.02l.02-.01.03-.01.02-.01h.02l.02-.02h.02l.02-.02h.02l.04-.02.04-.02.04-.02.04-.02.03-.02.04-.01.03-.02.03-.02.03-.02.03-.02.03-.01.03-.02.02-.02.03-.02.02-.01.02-.02.02-.01.02-.02.02-.01.02-.02h.01l.02-.02.01-.01.02-.02.02-.02.01-.01.01-.01 2.09 1.06h.02l.03.01h.04l.03.01h.3l.02-.01h.04l.02-.01h.01l.02-.01h.02l.02-.02h.03l.02-.01.01-.01h.02l.01-.01.02-.01h.01l.02-.02h.01l.02-.01.01-.01.01-.01.02-.01h.01l.01-.02h.02l.01-.02h.01l.02-.02.02-.02h.01l.01-.02.01-.01.02-.01v-.01l.02-.01v-.01l.02-.01v-.02h.02v-.02h.02l.02-.03.01-.03.02-.02.02-.02.01-.03.02-.02.01-.02.02-.02.01-.03.01-.02.01-.02.01-.02.01-.02.01-.02.01-.02.01-.02.01-.02v-.02l.01-.02.01-.01v-.02l.02-.03v-.02l.01-.02V12l-2.25-2.66 1.36-.38V9l.02.02v.01l.01.01v.01l.02.01v.02l.02.01v.01l.01.01.02.02v.01l.02.01.02.03.03.02.02.03.03.03.02.02.03.03.03.03.03.02.03.03.03.03.03.02.03.03.03.03.07.05.06.05.11.1.05.03.03.03.02.01.01.01.01.02h.02l.01.02h.02l.02.02.02.01.01.01.02.02.03.01.02.01.02.02.02.01.03.01.02.02h.03l.03.02.02.01.03.02.03.01.03.01.03.02h.03l.03.02.03.01.03.01.03.01.04.01.03.02h.03l.03.01.04.01.03.01h.03l.04.02h.06l.04.01h.05l.01.01h.3l.01-.01h.04l.01-.01h.03l.02-.01h.01l.02-.01h.01l.01-.02h.03l.02-.01.01-.01h.02v-.02h.02l.02-.01v-.01l.02-.01.01-.01.02-.01.01-.01.01-.01.01-.01.02-.01V10l.02-.02h.01l.01-.02.01-.02h.01l.01-.02V9.9l.02-.01v-.03l.01-.01.01-.02V9.8l.01-.01v-.05l.01-.02v-.19l-.01-.02v-.04l-.01-.01v-.02l-.01-.02V9.4l-.01-.02-.01-.02v-.02l-.01-.02-.01-.02v-.02l-.02-.02v-.02l-.01-.02-.01-.02-.01-.02-.01-.02-.01-.02v-.02l-.02-.02-.01-.02-.01-.02-.01-.01-.02-.04-.02-.04-.03-.04-.02-.04-.03-.04-.02-.04-.02-.04-.03-.03-.03-.04-.02-.04-.03-.03-.02-.04-.03-.03-.02-.04-.03-.03-.02-.03-.03-.03-.02-.03-.02-.03-.03-.03-.02-.03-.02-.02-.04-.05-.04-.04-.03-.04-.03-.03-.02-.03-.02-.02-.02-.01.12-.17.01-.03.02-.03.03-.04.03-.05.04-.06.02-.04.02-.03.02-.04.02-.04.03-.04.02-.04.03-.05.02-.04.03-.05.02-.05.03-.05.03-.05.02-.05.03-.05.02-.05.03-.06.02-.05.03-.05.02-.06.02-.02v-.03l.02-.03.01-.02.01-.03.01-.03.01-.03.01-.02.01-.03.01-.03.01-.02.01-.03v-.03l.02-.02V6.4l.01-.03.01-.02v-.03l.01-.02.01-.03v-.02l.01-.03V6.2l.01-.03v-.05L15 6.1v-.07l.01-.02v-.15L15 5.84v-.03l-.01-.01v-.01l-.01-.02v-.01l-.01-.01v-.01l-.01-.02-.01-.01-.01-.02-.01-.01-.01-.01v-.01h-.01l-.01-.01-.01-.02h-.02v-.01h-.01V5.6h-.03l-.01-.01h-.02v-.01h-.02v-.01h-.04v-.01h-.04v-.01h-.06l-.03-.01h-.23l-.03.01h-.05l-.02.01h-.02l-.03.01h-.02l-.03.01-.02.01h-.02l-.03.02h-.02l-.02.01-.03.01-.02.01H14l-.02.02h-.03l-.02.02h-.02l-.02.02-.03.01-.02.01-.02.01-.02.02h-.02l-.03.02-.02.01-.02.01-.02.02-.02.01-.02.01-.02.02-.02.01-.02.02-.02.01-.02.01-.02.02-.02.01-.02.02-.02.01-.02.02-.02.01-.02.02-.02.01-.02.02-.03.03-.04.03-.03.03-.04.04-.03.03-.04.03-.03.03-.03.03-.03.03-.03.03-.03.04-.03.03-.02.03-.03.03-.02.02-.03.03-.02.03-.02.03-.02.02-.02.03-.02.02-.02.02-.03.05-.03.03-.02.03-.02.03-.01.02-.01.01-.01-.01v-.01l-.02-.02V6.8l-.01-.01-.01-.02v-.01l-.02-.01v-.02l-.02-.01v-.01l-.02-.02v-.01l-.02-.01-.02-.03-.02-.03-.02-.02-.02-.03-.03-.02-.02-.03-.03-.02-.02-.03-.03-.02-.02-.02-.03-.03-.03-.02-.02-.02-.03-.03-.03-.02-.02-.02-.03-.02-.03-.02-.03-.02-.03-.03-.02-.02-.03-.02-.03-.01-.03-.02-.02-.02-.03-.02-.03-.02-.02-.02-.03-.01-.03-.02-.02-.01-.05-.04-.05-.02-.04-.03-.05-.02-.03-.03-.04-.02-.03-.01-.03-.02-.02-.01-.04-.02-.03-.01h-.02l-.02-.02h-.01l-.02-.01h-.02l-.02-.01h-.02l-.02-.01-.01-.01h-.02l-.02-.01h-.03l-.02-.01h-.02l-.01-.01h-.05l-.01-.01h-.05l-.01-.01h-.24l-.02.01h-.02l-.02.01h-.02l-.01.01-.02.01h-.02l-.01.01-.02.01-.01.01h-.02v.02h-.02l-.01.01-.02.01v.01l-.02.01v.01l-.02.01v.01l-.01.01h-.01v.02h-.02v.02l-.01.01-.02.02v.02h-.01v.02l-.01.01h-.02l-.01-.02h-.03l-.02-.01-.02-.01-.03-.01-.03-.01-.03-.01-.03-.01-.03-.01-.04-.01-.03-.01-.04-.01-.04-.01-.04-.01-.04-.01-.04-.01-.05-.01-.09-.03-.09-.02-.1-.02-.09-.02-.1-.02-.1-.02-.09-.02-.1-.02-.09-.02-.09-.02-.09-.02-.17-.03-.14-.03-.13-.02-.1-.02-.07-.01-.01-.02-.03-.04-.01-.03L8 5.3l-.02-.04-.03-.05-.03-.06-.04-.05-.03-.07-.05-.06-.04-.07-.05-.08-.04-.07-.06-.08-.02-.04-.03-.04-.03-.04-.03-.04-.02-.05-.03-.04-.03-.04-.03-.04-.04-.05-.03-.04-.03-.04-.03-.05-.03-.04-.04-.05-.03-.04L7.13 4l-.04-.05-.03-.04-.04-.04L7 3.82l-.04-.04-.03-.04-.04-.04-.03-.04-.04-.05-.04-.04-.03-.04-.04-.04-.04-.03-.04-.04-.03-.04-.04-.04-.02-.02-.02-.01-.02-.02-.02-.02-.01-.01-.02-.02-.02-.01-.02-.02h-.02l-.02-.02-.02-.02h-.02l-.02-.02-.01-.01-.02-.01-.02-.01-.02-.01-.02-.01-.02-.01h-.02l-.01-.02h-.02l-.02-.01-.02-.01h-.02l-.02-.01h-.02l-.01-.01H6l-.02-.01h-.02L5.95 3h-.09l-.01-.01H5.7z" fill="#cfcfcf"></path><path d="M6.92 9.93c-1.57.28-3.13.44-4.12.23-3.3-.68-1.3-2.4-.96-2.41 0 0 .15-1.34 2.88-1.86l.54-2.5s.63-.27 1.2.3c.36.37.97 1.38 1.36 2.06 2.78.27 4.9 1.44 4.9 1.44s.48-.88 1.38-1.34c.9-.45.7.45.48.76-.2.31-.73 1.32-.89 1.45 0 0 .98 1.07 1.03 1.54.05.46-1.02.22-1.16.12 0 0-1.17-.78-1.22-1.08 0 0-.8.24-1.98.54l2.5 2.86s-.33.75-1.04.55l-4.9-2.66z" fill="#fff2cd"></path><path d="M11.9 10.93l.98 1.12-.14.22-.35.32-.56-.01-1.46-.81c.09-.15.49-.71 1.48-.83h.05zm-4.48 1.24s1.83-.04 2.28-.72c.06-.1-1.08-.61-1.08-.61l-1.04-.6-.16 1.93zm2.94-.38zm2.44-2.62s.74-.09 1.45-.39c.02 0 .2.2.26.28.13.18.2.36.2.36l-.02.35-.28.09-.8-.09-.81-.6zm-.35-2.13s-.3-.5-1.19-1.04c0 0-.6-.12-.66.05-.07.17.71.53.71.53l1.14.46zM5.02 4.43s1-.4 2.13.21c.14.08-.23-.38-.23-.38l-.55-.68-.32-.14-.42-.12-.35.1-.26 1z" fill="#f0cbc0"></path><path d="M2.21 7.05s1.02.89 1.72.8c0 0 .3.4.11.7 0 0-1.23.2-2.24-.83l.09-.16.32-.5z" fill="#c8dae4"></path><path d="M14.28 8.72l.06.08h-.01l-.05.02c-.25.11-.5.18-.76.25l-.63.12-.09-.08a8.62 8.62 0 0 0 1.34-.33l.13-.05h.01zm-12-1.68a6.05 6.05 0 0 0 1.02.62c.1.04.22.08.33.1.1.02.2.03.3.02h.02l.03.02.03.04c.06.1.12.2.15.32.02.1.02.18 0 .27a.5.5 0 0 1-.05.13c0 .02-.02.03-.04.04l-.02.01H4a2.4 2.4 0 0 1-.56 0 2.8 2.8 0 0 1-1.69-.83l.07-.03.03-.06.05.04a2.99 2.99 0 0 0 .55.42A2.65 2.65 0 0 0 4 8.48l.03-.05c.03-.1.02-.2-.02-.3l-.02-.06L3.95 8a2 2 0 0 0-.05-.08h-.08c-.11 0-.23-.02-.34-.05a4.4 4.4 0 0 1-1.29-.71l.09-.12z" fill="#433231"></path><path d="M5.4 7.77c.1.03.15.2.1.38-.04.18-.16.3-.27.27-.1-.02-.15-.2-.1-.37.05-.18.17-.3.28-.28zm1-.15c.12.02.18.18.15.36-.03.19-.14.32-.24.3-.11 0-.17-.17-.14-.36.03-.18.13-.32.24-.3zm1.09 0c.1.02.17.16.14.32-.02.16-.13.28-.23.26-.11-.01-.18-.16-.15-.31.02-.16.13-.28.24-.26zm1.05-.1c.1.02.17.16.15.32-.03.16-.13.28-.24.26-.1-.01-.17-.16-.15-.32.03-.16.13-.27.24-.26zm.88 0c.08.02.13.15.11.3-.02.14-.1.25-.2.23-.07 0-.12-.14-.1-.28.02-.15.1-.26.19-.24zm1.02.05c.08.03.12.14.09.27-.04.12-.13.2-.21.18-.08-.03-.12-.14-.1-.26.04-.13.13-.2.22-.19zm.78.04c.08.02.11.12.09.22-.03.1-.11.17-.19.15-.07-.02-.11-.12-.08-.22s.1-.17.18-.15z" fill="#fff"></path><path d="M7.37 10.18s-1.1.78-.6 1.58c.5.79 1.1.21 1.34-.23.15-.27.1-.66.03-.94-.05-.16-.77-.41-.77-.41z" fill="#724d54"></path><path d="M10.28 11.83l-.55-.3a1.32 1.32 0 0 1-.37.3 4.15 4.15 0 0 1-1.28.36 6.57 6.57 0 0 1-.66.05h-.01l-.16-.03a.5.5 0 0 1-.08-.02.77.77 0 0 1-.36-.26l-.04-.05a1.16 1.16 0 0 1-.1-.18.83.83 0 0 1-.1-.36c0-.23.1-.45.22-.64a2.07 2.07 0 0 1 .3-.38l.15-.14-.33-.17a26.59 26.59 0 0 1-2.05.27 12.37 12.37 0 0 1-1.59.02 4.14 4.14 0 0 1-.74-.13 5.08 5.08 0 0 1-1.09-.41 1.55 1.55 0 0 1-.31-.25 1 1 0 0 1-.25-.42.82.82 0 0 1-.02-.23 1.14 1.14 0 0 1 .26-.64 2.03 2.03 0 0 1 .46-.43 1.1 1.1 0 0 1 .2-.1v-.04l.02-.04c.06-.2.17-.37.3-.53a3.3 3.3 0 0 1 1.17-.83 5.07 5.07 0 0 1 .91-.31l.48-.11.54-2.45.02-.04h.02l.03-.02c.11-.04.23-.06.35-.06h.02a1.17 1.17 0 0 1 .57.16 1.43 1.43 0 0 1 .43.38 4.59 4.59 0 0 1 .25.32 112.08 112.08 0 0 0 .97 1.57 13 13 0 0 1 2.73.55.3.3 0 0 1-.02-.03c-.03-.05-.05-.1-.04-.16v-.03l.02-.03a.2.2 0 0 1 .04-.03.26.26 0 0 1 .07-.04.49.49 0 0 1 .12-.02h.18l.3.03h.01l.02.01.09.05a4.76 4.76 0 0 1 1.15 1.03l.14.07.02.01.03-.06.05-.07a4.04 4.04 0 0 1 .93-.96 2.88 2.88 0 0 1 .51-.28.95.95 0 0 1 .22-.07.4.4 0 0 1 .26.05.27.27 0 0 1 .08.08.3.3 0 0 1 .04.08c.02.04.02.1.02.14 0 .1 0 .18-.03.27a1.22 1.22 0 0 1-.15.36l-.04.06-.05.07-.19.33-.2.34-.1.17-.15.25a1.9 1.9 0 0 1-.13.2l.08.09.1.13a10.79 10.79 0 0 1 .6.8l.15.28a.8.8 0 0 1 .07.22v.1l-.02.06a.2.2 0 0 1-.03.04c-.05.08-.15.12-.24.14h-.03l-.05.01h-.08a1.44 1.44 0 0 1-.21 0 2.96 2.96 0 0 1-.48-.1.77.77 0 0 1-.14-.06l-.1-.06a12.19 12.19 0 0 1-.76-.59 2.47 2.47 0 0 1-.22-.21.77.77 0 0 1-.13-.18l-.24.07-1.57.42L12.92 12l.01.01v.06l-.02.04-.08.12a1.1 1.1 0 0 1-.49.4.85.85 0 0 1-.54.02h-.01l-.97-.52-.03-.03-.5-.27zm2.42.12a1.2 1.2 0 0 0-.8.5.66.66 0 0 0-.06.07.7.7 0 0 0 .44-.01.9.9 0 0 0 .44-.36l.06-.09v-.01l-.08-.1zm-.83-.94l-.11.01-.26.06a1.88 1.88 0 0 0-1.05.69l1.3.7a.98.98 0 0 1 .16-.2 1.3 1.3 0 0 1 .72-.4l-.11-.13-.65-.73zm-3.63-.29v.01c.02.12.04.25.04.37a1.2 1.2 0 0 1-.08.42.94.94 0 0 1-.11.19 1.59 1.59 0 0 1-.38.38 6.6 6.6 0 0 0 1.18-.21c.14-.05.28-.1.41-.18a1.11 1.11 0 0 0 .3-.23l-1.36-.75zm-.73 1.32a.77.77 0 0 0 .23-.14 1.45 1.45 0 0 0 .36-.5 1.35 1.35 0 0 0 .04-.41 2 2 0 0 0-.07-.35l-.35-.2-.2-.1-.15-.08a2.52 2.52 0 0 0-.53.62.96.96 0 0 0-.12.5.68.68 0 0 0 .06.24.9.9 0 0 0 .15.24c.07.09.17.17.28.2a.49.49 0 0 0 .12.02h.03l.15-.03v-.01zm2.3-.63l.52.3.01-.02c.08-.12.18-.23.29-.32a2.14 2.14 0 0 1 1.13-.49l-1.31-1.5-.23-.28h-.02l-.1-.1a5.94 5.94 0 0 0-1.39-.21H8.6a5.08 5.08 0 0 0-1.64.29 4.17 4.17 0 0 0-.76.39l.64.34v.01l.3.16 2.55 1.38.12.06zm-2.25.2a.32.32 0 0 1-.18.04.3.3 0 0 1-.05 0 .4.4 0 0 1-.2-.18.46.46 0 0 1-.07-.13.4.4 0 0 1-.01-.1c0-.1.03-.2.08-.3a1.06 1.06 0 0 1 .27-.29l.03-.02h.04l.04.01.18.05.04.01.03.02.03.03.02.05.05.2c.01.09.01.18-.01.27a.59.59 0 0 1-.04.1.7.7 0 0 1-.14.18.55.55 0 0 1-.11.07zm-.09-.84c-.08.07-.15.14-.2.22a.42.42 0 0 0-.09.26.26.26 0 0 0 .06.14l.06.08.05.03.03.01h.04a.3.3 0 0 0 .15-.07.62.62 0 0 0 .14-.19c.02-.05.02-.1.02-.15a.83.83 0 0 0-.06-.27h-.01v-.01l-.14-.04h-.05zm-.66-5H6.7a10.6 10.6 0 0 0-1.26.08H5.4c-.28.03-.83.12-.83.12v.01a8.03 8.03 0 0 0-1.04.3 3.54 3.54 0 0 0-1.2.75 1.76 1.76 0 0 0-.4.61.8.8 0 0 0-.03.11l-.04.03-.03.03-.03.01a.74.74 0 0 0-.17.1 1.67 1.67 0 0 0-.47.48.96.96 0 0 0-.17.58l.03.1c.01.06.03.11.06.16.05.08.11.16.18.22a3 3 0 0 0 .79.43 5.1 5.1 0 0 0 1.4.28 8.07 8.07 0 0 0 1.62-.05 21.33 21.33 0 0 0 1.64-.22l-.7-.37v-.01L6 9.5a.07.07 0 0 1 0-.07l.02-.02a2.03 2.03 0 0 1 .25-.17 4.62 4.62 0 0 1 2.27-.6h.1a5.39 5.39 0 0 1 1.52.22h.01l.02.02.2.22a59.7 59.7 0 0 0 1.91-.52h.07c.02 0 .03.02.04.04v.03a.4.4 0 0 0 .05.08l.06.08a1.97 1.97 0 0 0 .25.23 7.4 7.4 0 0 0 .69.53l.14.1h.02l.07.03.1.03a2 2 0 0 0 .67.06c.03 0 .06-.01.08-.03l.05-.02.03-.03.02-.02c.02-.04.01-.1 0-.14v-.03a3.2 3.2 0 0 0-.25-.48l-.12-.16a12.93 12.93 0 0 0-.6-.75l-.02-.01V8.1h-.01l-.01-.03v-.05l.03-.03.02-.02.06-.09.08-.12.2-.33.3-.51.15-.26.03-.05a1.58 1.58 0 0 0 .06-.09 1.18 1.18 0 0 0 .14-.5.5.5 0 0 0-.01-.09.2.2 0 0 0-.05-.09c-.04-.04-.1-.05-.15-.04h-.03l-.15.03-.26.13a3.32 3.32 0 0 0-1.27 1.26l-.02.02a.07.07 0 0 1-.06.02h-.02a2.85 2.85 0 0 0-.05-.04l-.07-.03h.02s-.52-.26-.8-.37a14.1 14.1 0 0 0-3.69-.97l-.31-.03a11.63 11.63 0 0 0-.9-.05h-.07zM5.38 7.72a.16.16 0 0 1 .08.02c.06.03.09.1.1.17v.04a.6.6 0 0 1-.11.42l-.02.02a.24.24 0 0 1-.16.08h-.04l-.03-.01-.03-.02c-.05-.03-.08-.1-.1-.16v-.04c0-.07 0-.15.02-.22a.55.55 0 0 1 .1-.19.29.29 0 0 1 .14-.1l.03-.01h.02zm0 .1c-.03-.01-.06 0-.09.03l-.01.02-.02.01a.44.44 0 0 0-.07.14.48.48 0 0 0-.02.24v.04l.01.02c.02.02.04.05.07.06l.09-.03.01-.02.02-.01.02-.03a.5.5 0 0 0 .08-.35V7.9c-.02-.04-.04-.08-.08-.09zm1.02-.25l.04.01.03.01c.05.03.09.09.1.15l.02.03a.59.59 0 0 1-.08.45c-.04.05-.1.1-.16.11h-.07l-.03-.01a.23.23 0 0 1-.11-.16l-.01-.03a.58.58 0 0 1 .08-.44c.03-.05.08-.1.14-.11h.05zm1.07 0a.19.19 0 0 1 .08.03c.06.03.1.1.12.16a.46.46 0 0 1-.07.38.25.25 0 0 1-.15.1.18.18 0 0 1-.1 0 .28.28 0 0 1-.14-.18.46.46 0 0 1 .07-.37c.03-.05.08-.1.14-.1l.04-.01h.01zm-1.07.1c-.04 0-.07.02-.1.04v.02l-.02.02a.44.44 0 0 0-.06.14.49.49 0 0 0 0 .24v.02l.02.02v.02c.02.02.04.05.08.05.03 0 .06-.02.08-.04l.02-.01.01-.02.02-.03a.48.48 0 0 0 .06-.2.42.42 0 0 0-.02-.18l-.01-.02c-.02-.03-.04-.07-.08-.08zm1.07 0a.12.12 0 0 0-.11.07.38.38 0 0 0-.06.3v.02l.02.02c.01.03.04.07.08.08.04 0 .08-.02.1-.05l.02-.02.02-.02a.36.36 0 0 0 .03-.3c-.01-.04-.04-.09-.09-.1zm1.06-.2a.18.18 0 0 1 .07.03c.07.03.1.1.12.16a.46.46 0 0 1-.06.38.25.25 0 0 1-.16.1.18.18 0 0 1-.1 0 .26.26 0 0 1-.13-.18.45.45 0 0 1 0-.22c0-.06.03-.1.06-.15.04-.05.09-.1.14-.1l.04-.01h.02zm.88.01h.04l.02.01c.05.03.09.1.1.16a.5.5 0 0 1 0 .21.43.43 0 0 1-.07.14c-.04.05-.09.1-.15.1h-.03l-.03-.01a.15.15 0 0 1-.1-.14l-.01-.02a.47.47 0 0 1 .06-.35.23.23 0 0 1 .1-.1h.06zm1 .05h.05l.03.02c.05.03.08.1.09.15a.38.38 0 0 1-.08.3.21.21 0 0 1-.15.07h-.04l-.03-.02-.02-.01a.22.22 0 0 1-.08-.15v-.15a.57.57 0 0 1 .03-.08.26.26 0 0 1 .16-.14.2.2 0 0 1 .03 0h.02zm-1.88.04c-.05 0-.1.03-.12.07a.37.37 0 0 0-.05.32l.01.02c.02.03.05.07.09.08.04 0 .08-.02.1-.05l.02-.02.01-.02a.37.37 0 0 0 .04-.3c-.02-.04-.04-.09-.1-.1zm2.67-.01h.04l.03.02c.05.02.08.08.09.14a.3.3 0 0 1-.01.13.29.29 0 0 1-.06.11.19.19 0 0 1-.13.07h-.04l-.03-.01-.03-.02a.2.2 0 0 1-.07-.13.28.28 0 0 1 0-.12l.01-.04a.25.25 0 0 1 .15-.15h.05zm-1.8.01c-.02 0-.04.02-.06.04v.01l-.02.02a.33.33 0 0 0-.04.12.37.37 0 0 0 0 .14v.04l.01.02.05.05a.1.1 0 0 0 .07-.03l.01-.02.01-.01.02-.02a.4.4 0 0 0 .03-.27v-.01l-.01-.02-.05-.06h-.01zm1.02.05a.11.11 0 0 0-.08.03l-.01.01a.28.28 0 0 0-.06.21v.04c.01.02.03.05.06.06.03.01.06 0 .08-.03h.01l.02-.02a.28.28 0 0 0 .05-.22.16.16 0 0 0-.06-.08zm.79.03a.11.11 0 0 0-.08.03.2.2 0 0 0-.05.17v.02c0 .03.02.06.05.07a.1.1 0 0 0 .08-.04h.02a.22.22 0 0 0 .04-.11v-.07c-.01-.03-.03-.06-.05-.07h-.01zm1.03-.77c-.1-.1-.19-.2-.29-.28-.22-.2-.45-.37-.7-.53h-.01a2.6 2.6 0 0 0-.38-.04h-.08l-.09.03a.07.07 0 0 0-.03.01v.03l.03.03.05.07a1 1 0 0 0 .16.15 15.01 15.01 0 0 1 1.34.53zm-4.55-1.2l-.05-.1L7.3 5l-.22-.35a2.56 2.56 0 0 0-1.3-.3h-.16a3.78 3.78 0 0 0-.51.08L4.8 5.8a11.31 11.31 0 0 1 1.84-.17h.12c.26 0 .53.01.79.03l.13.01zM6.98 4.5l-.17-.25a6.3 6.3 0 0 0-.46-.57 1.17 1.17 0 0 0-.48-.25 1.03 1.03 0 0 0-.23-.03h-.02c-.1 0-.2.02-.3.05l-.2.89a4.2 4.2 0 0 1 .81-.07 2.62 2.62 0 0 1 1.05.23z" fill="#433231"></path></svg>