<svg xmlns="http://www.w3.org/2000/svg" viewBox="0 0 40 40"><polygon points="2.168,30 20,21.553 37.832,30 20,38.447" fill="#e1ebf2"/><path d="M20 22.107L36.664 30 20 37.893 3.336 30 20 22.107M20 21L1 30l19 9 19-9-19-9z" fill="#a3b7cc"/><polygon points="2.168,20 20,11.553 37.832,20 20,28.447" fill="#8bb7f0"/><path d="M20 12.107L36.664 20 20 27.893 3.336 20 20 12.107M20 11L1 20l19 9 19-9-19-9z" fill="#4e7ab5"/><polygon points="2.168,10 20,1.553 37.832,10 20,18.447" fill="#99c99e"/><path d="M20 2.107L36.664 10 20 17.893 3.336 10 20 2.107M20 1L1 10l19 9 19-9-19-9z" fill="#5e9c76"/></svg>