<svg xmlns="http://www.w3.org/2000/svg" viewBox="0 0 40 40"><path d="M1.57 38.5l3.867-30h7.125l3.868 30z" fill="#fff"/><path d="M12.121 9l3.742 29H2.137L5.879 9h6.242M13 8H5L1 39h16z" fill="#4788c7"/><path d="M11 24v-2.867C11 19.957 10.105 19 9 19s-2 .957-2 2.133V24z" fill="#98ccfd"/><path d="M14.313 26H3.687l-.777 6h12.18zm-1.161-9l-1.03-8H5.878l-1.031 8z" fill="#b6dcfe"/><path d="M11.5 7.566V5.434l27-3.856v9.844z" fill="#dff0fe"/><path d="M38 2.152v8.696L12 7.133V5.867l26-3.715M39 1L11 5v3l28 4zM6 4h1v4H6z" fill="#4788c7"/><path d="M11 4h1v4h-1z" fill="#4788c7"/><path d="M5.5 4.5v-.25L9 1.625l3.5 2.625v.25z" fill="#b6dcfe"/><path d="M9 2.25L11.332 4H6.668L9 2.25M9 1L5 4v1h8V4z" fill="#4788c7"/><path d="M7 5h4v3H7z" fill="#fff"/><path d="M3.5 8.5h11v3h-11z" fill="#98ccfd"/><path d="M14 9v2H4V9h10m1-1H3v4h12z" fill="#4788c7"/></svg>