<svg xmlns="http://www.w3.org/2000/svg" viewBox="0 0 24 24"><path d="M11.188 0c-1.533 0-2.15.688-2.376 1.063-.71-.086-1.226.019-1.406.437C5.805.898 5 1.187 5 1.187s-.508-.082-.406.72c-.7 1 .207 1.898.406 2 .5-.602 1.605-.618 2.406-.22.399.2.508.918.407 1.22-.5 1.3-1.907.187-1.907.187s-.304.199-.406 1c-.398.398-.012.8.188 1 .898-.399.32-.008 2.218-.407.867-.19 2.172-.855 2.625-2.78C9.81 8.8 4 7.28 4 10.311a2.749 2.749 0 0 0 1.531 2.532c.149.289.297.535.469.75-.355 1.082-.594 2.344-.594 4-.699 1.898-1.82 3.105-2.218 2.906-.7-.102-1.2.207-1.5.906-.254.2-.41.399-.5.594H0v2h24v-2h-2.906c.004-.031 0-.063 0-.094 0-.722-1.2-.726-1.438-1.375.551.309 1.2.469 1.844.469.422 0 1-.07 1.531-.406.532-.336.969-1.012.969-1.907 0-1.074-.438-1.789-.875-2.343-.094-.117-.16-.235-.25-.344.285-.36.313-.898-.063-1.5-.5-.7-1.812-1.188-1.812-1.188s.008.415-.031.844c-.867-1.554-2.27-2.949-4.282-4.062-.945.515-2.703 1.469-5.28 1.406 3.468-1.148 6.8-3.309 5.093-7.906C15.5.992 13.29 0 11.187 0zm-.157 2.25c.352.023.742.281.969.656.09.09-.727.66-1.25.688.875-.492.504-1.094-.063-1.281a.684.684 0 0 1 .344-.063zm5.219 11.688c.75.054 1.52.406 2.156.968-2.398-.699-4.218.781-4.218 2.281 0 2.399 2.226 2.708 3.624 3.907-.5-.301-1.906-.895-2.406-.594-.898.602-1.199.398-1.5 1-.312.14-.508.324-.625.5H5.97c.73-.793 1.597-2.094 1.937-3.188 1.004-1.093 1.75-2.285 2.407-3.625 1.039.118 2.097.325 3 1.126.5-1.75 1.69-2.465 2.937-2.375zm5.594 2.437c.011 0 .02.031.031.031.156.196.332.39.469.563.386.492.656.89.656 1.718 0 .606-.207.875-.5 1.063-.293.188-.723.25-1 .25.352-.297.594-.77.594-1.406a9.36 9.36 0 0 0-.25-2.219z"/></svg>