<svg xmlns="http://www.w3.org/2000/svg" viewBox="0 0 50 50"><path d="M23.188-.031c-5.286 0-5.438 2.363-5.438 2.594-.129 3.324 1.191 4.484 2.156 5.343.66.586.961.828.875 1.688-.21 2.398-2.238 3.234-5.531 4.281C12.004 14.906 7.969 16.18 7.969 21c0 3.527 2.758 5.32 4.218 5.781.102.032.208.063.313.063.352 0 .684-.192.875-.5.79-1.274 3.73-1.887 6.844-2.532 4.601-.953 10.336-2.128 13.062-6.312 1.61-2.469 1.985-5.734 1.125-9.719C32.796.535 25.41-.03 23.188-.03zM17 1.562c-.645.13-1.18.395-1.563.813-1.046-.29-2.019-.438-2.906-.438-.539 0-.945.043-1.187.094-.469-.035-1.008.184-1.344.563-.336.383-.496.894-.469 1.562a3.47 3.47 0 0 0-.375 2.5c.278 1.262 1.18 2.207 1.719 2.532.441.265.988.18 1.313-.22.285-.347.93-.562 1.687-.562.559 0 1.137.102 1.563.313.207.105.378.707.28 1.187-.183.45-.39.438-.53.438-.45 0-1.06-.344-1.344-.563a1.05 1.05 0 0 0-1.156-.094c-.188.106-1.067.723-1.282 2.5-.582.79-.43 1.555-.125 2.126 1.207-.606 2.508-1.04 3.656-1.407 3.497-1.11 4.7-1.765 4.844-3.406.035-.355.02-.352-.531-.844-1.05-.933-2.648-2.336-2.5-6.094 0-.152.047-.535.25-1zm6.125 2.313c.871.11 2.46.672 3 1.75.098.195.129.438.094.656-.16.965-1 1.996-1.688 2.407a1.033 1.033 0 0 1-.531.156 1.01 1.01 0 0 1-.875-.5c-.293-.492-.145-1.145.344-1.438.164-.097.379-.324.531-.562a3.181 3.181 0 0 0-1.125-.407 1.043 1.043 0 0 1-.906-1.156c.07-.566.593-.976 1.156-.906zm10.469 14.906c-3.094 3.938-8.645 5.098-13.157 6.032-2.511.519-5.656 1.156-6.218 2.062a2.004 2.004 0 0 1-1.719.969 2.07 2.07 0 0 1-.594-.094c-.61 2.07-.922 4.332-.937 6.75-1.164 2.8-2.489 4.43-3.031 4.781-1.766-.27-3.141.524-3.907 2.219-.586.559-.922 1.05-1.093 1.5H14.75c1.242-1.578 2.41-3.555 2.969-5.25 1.676-1.797 3.105-3.922 4.375-6.438 1.5.231 3.11.766 4.5 2.157.11-1.774 1.086-3.524 2.687-4.719 1.418-1.059 3.137-1.625 5-1.625.922 0 1.856.164 2.782.438.015.003.046-.008.062 0a.477.477 0 0 1 .375.468c0 .278-.223.5-.5.5a.485.485 0 0 1-.188-.031h-.03a8.922 8.922 0 0 0-2.5-.375c-1.626 0-3.153.5-4.407 1.438-1.45 1.082-2.313 2.675-2.313 4.25 0 .382.047.722.094 1.062.29 2.113 1.395 3.422 2.75 4.406-.027.016-.035.047-.062.063-.594.386-1.008.554-1.375.718-.567.254-1.106.512-1.594 1.25-.86.465-1.344 1.075-1.563 1.688h17.22v-.094c0-.699-.29-1.183-.657-1.562a6.569 6.569 0 0 0 2.875-.594c1.523-.71 2.781-2.172 2.781-4.063 0-2.085-.933-3.492-1.843-4.562-.305-.355-.575-.648-.844-.969.41-.703.351-1.652-.25-2.656-.696-1.133-2.594-1.898-3.094-2.094-.004-.008.004-.023 0-.031-1.922-2.984-4.746-5.54-8.406-7.594zm11.125 14.844c.742.883 1.25 1.637 1.25 3.063 0 1.007-.594 1.722-1.594 2.187-.027.012-.066.02-.094.031.371-.578.657-1.363.657-2.406 0-.977-.079-1.941-.22-2.875zM1 44a1 1 0 0 0-1 1v4a1 1 0 0 0 1 1h48c.555 0 1-.445 1-1v-4c0-.555-.445-1-1-1z"/></svg>