<svg xmlns="http://www.w3.org/2000/svg" viewBox="0 0 50 50"><path d="M25 0a1.999 1.999 0 1 0 0 4 1.999 1.999 0 1 0 0-4zm0 4h-2.094A.996.996 0 0 0 22 5v2h-1.094A.996.996 0 0 0 20 8v1.813a1 1 0 0 0 .313.718c1.085 1.004 1.566 2.258 1.406 3.531 0 0-1.54 12.403-1.688 18.938h-3.125c-.55.027-.98.496-.953 1.047.027.55.496.98 1.047.953v8h-3.094A.996.996 0 0 0 13 44v5c0 .55.45 1 1 1h22c.55 0 1-.45 1-1v-5c0-.55-.45-1-1-1h-3v-8c.36.004.695-.184.879-.496a1.01 1.01 0 0 0 0-1.008c-.184-.312-.52-.5-.879-.496h-3.031c-.082-3.11-.52-7.445-.938-11.25-.23-2.102-.449-4.027-.593-5.406-.07-.688-.133-1.23-.157-1.594-.011-.18 0-.328 0-.375a1.048 1.048 0 0 0 0-.313c-.152-1.234.414-2.539 1.438-3.562A1 1 0 0 0 30 9.812V8c0-.55-.45-1-1-1h-1V5c0-.55-.45-1-1-1zm-1 2h2v1h-2zm-2 3h6v.531c-1.05 1.203-1.672 2.68-1.625 4.281a1.533 1.533 0 0 0-.094.25c-.027.137 0 .204 0 .282-.004.16-.015.324 0 .531.028.418.082.988.157 1.688.144 1.398.363 3.308.593 5.406.414 3.773.852 8.086.938 11.031H22.03c.153-6.234 1.657-18.688 1.657-18.688.218-1.742-.454-3.43-1.688-4.78zm-3 26h12v8H19zm-4 10h20v3H15z"/></svg>