<svg xmlns="http://www.w3.org/2000/svg" viewBox="0 0 64 64"><path d="M4 53h56c1.656 0 2-1.344 2-3v-8l-10.438-6 2.126-9.375L61 22v-8a3 3 0 0 0-3-3H4a3 3 0 0 0-3 3v8l9 6v8l-9 6v8a3 3 0 0 0 3 3z" fill="#ffefb8"/><path d="M52 36l.691-8.46L61 22v-8a3 3 0 0 0-3-3h-6.75l-21 42H49.5l8-16zM26.25 53H21l21-42h5.25zm-10.5 0H14l21-42h1.75z" fill="#fff6df"/><path d="M4 53h14a3 3 0 0 0 3-3V14a3 3 0 0 0-3-3H4a3 3 0 0 0-3 3v8l9 6v8l-9 6v8a3 3 0 0 0 3 3z" fill="#72caaf"/><path d="M29.496 33.996l1.238 2.266L33 37.496l-2.266 1.238L29.496 41l-1.234-2.266-2.266-1.238 2.266-1.234zM47.418 19l.855 1.563 1.567.855-1.567.855-.855 1.567-.855-1.567L45 21.418l1.563-.855zm2.934 25.703l.582 1.067 1.066.582-1.066.582L50.352 48l-.582-1.066-1.067-.582 1.067-.582z" fill="#fff8f8"/><path d="M63 47c0 6.629-5.371 12-12 12s-12-5.371-12-12 5.371-12 12-12 12 5.371 12 12z" fill="#72caaf"/><path d="M17 16h-2a1 1 0 1 0 0 2h2a1 1 0 1 0 0-2zm0 5h-2a1 1 0 1 0 0 2h2a1 1 0 1 0 0-2zm0 5h-2a1 1 0 1 0 0 2h2a1 1 0 1 0 0-2zm0 5h-2a1 1 0 1 0 0 2h2a1 1 0 1 0 0-2zm0 5h-2a1 1 0 1 0 0 2h2a1 1 0 1 0 0-2zm0 5h-2a1 1 0 1 0 0 2h2a1 1 0 1 0 0-2zm0 5h-2a1 1 0 1 0 0 2h2a1 1 0 1 0 0-2zm4-32a1 1 0 0 0-1 1v34a1 1 0 1 0 2 0V15a1 1 0 0 0-1-1z" fill="#8d6c9f"/><path d="M57 46h-5v-5a1 1 0 1 0-2 0v5h-5a1 1 0 1 0 0 2h5v5a1 1 0 1 0 2 0v-5h5a1 1 0 1 0 0-2z" fill="#faefde"/><path d="M53.32 34.219A8.016 8.016 0 0 1 53 32a7.991 7.991 0 0 1 6.574-7.875C60.98 23.875 62 22.637 62 21.187V13c0-1.652-1.348-3-3-3H3c-1.652 0-3 1.348-3 3v8.188c0 1.449 1.02 2.687 2.426 2.937A7.991 7.991 0 0 1 9 32a7.991 7.991 0 0 1-6.574 7.875C1.02 40.125 0 41.363 0 42.813V51c0 1.652 1.348 3 3 3h37.063c2.316 3.602 6.347 6 10.937 6 7.168 0 13-5.832 13-13 0-6.375-4.617-11.68-10.68-12.781zM18 52a1 1 0 0 0-1-1h-2a1 1 0 0 0-1 1H3c-.55 0-1-.45-1-1v-8.188c0-.48.328-.89.777-.968A9.99 9.99 0 0 0 11 32a9.99 9.99 0 0 0-8.223-9.844c-.449-.082-.777-.488-.777-.968V13c0-.55.45-1 1-1h11a1 1 0 0 0 1 1h2a1 1 0 0 0 1-1h41c.55 0 1 .45 1 1v8.188c0 .48-.328.89-.777.968A9.99 9.99 0 0 0 51 32c0 .688.078 1.36.215 2.012-.07 0-.14-.012-.215-.012-7.168 0-13 5.832-13 13 0 1.77.36 3.46 1.004 5zm33 6c-6.066 0-11-4.934-11-11s4.934-11 11-11 11 4.934 11 11-4.934 11-11 11z" fill="#8d6c9f"/></svg>