<svg xmlns="http://www.w3.org/2000/svg" viewBox="0 0 50 50"><path d="M33 .094c-.738 0-1.473.285-2 .812L25.625 6.22 27 7.594A.99.99 0 0 1 27 9c-.195.195-.43.313-.688.313-.257 0-.523-.118-.718-.313l-1.375-1.375L.78 30.906a2.788 2.788 0 0 0-.812 2c0 .77.285 1.469.812 2L3.906 38c.36.36.914.414 1.313.094.949-.766 2.062-1.188 3.093-1.188A4.681 4.681 0 0 1 13 41.594a4.514 4.514 0 0 1-1.156 3.031c-.356.395-.313 1 .062 1.375L15 49.094a2.84 2.84 0 0 0 2 .843 2.84 2.84 0 0 0 2-.843l9.063-9.063C28.585 45.613 33.285 50 39 50c6.063 0 11-4.938 11-11 0-5.715-4.387-10.414-9.969-10.938l2.313-2.312L41 24.406A.99.99 0 0 1 41 23a.99.99 0 0 1 1.406 0l1.344 1.344 5.313-5.282c.55-.44.886-1.093.937-1.812a2.766 2.766 0 0 0-.781-2.156L46.094 12c-.36-.363-.918-.41-1.313-.094-.894.719-1.89 1.094-2.968 1.094-2.594 0-4.72-2.094-4.72-4.688 0-1.078.376-2.105 1.094-3 .317-.398.266-.953-.093-1.312L35 .906a2.842 2.842 0 0 0-2-.812zm-3.906 10c.254 0 .523.117.718.312l1.407 1.406a.99.99 0 0 1 0 1.407 1.011 1.011 0 0 1-.719.281.938.938 0 0 1-.688-.281l-1.406-1.406a.99.99 0 0 1 0-1.407c.196-.195.434-.312.688-.312zm4.218 4.219c.254 0 .524.085.72.28L35.437 16c.39.39.39 1.047 0 1.438a1.01 1.01 0 0 1-.72.28c-.257 0-.523-.085-.718-.28l-1.406-1.407a1.028 1.028 0 0 1 0-1.437 1.01 1.01 0 0 1 .718-.281zm4.22 4.218c.253 0 .491.086.687.282l1.406 1.406a.99.99 0 0 1 0 1.406c-.195.195-.43.313-.688.313-.257 0-.523-.118-.718-.313l-1.407-1.406a.99.99 0 0 1 0-1.407c.196-.195.465-.28.72-.28zM39 30c4.98 0 9 4.02 9 9s-4.02 9-9 9-9-4.02-9-9 4.02-9 9-9zm-.094 2.969c-.043.008-.086.02-.125.031A1.002 1.002 0 0 0 38 34v4h-4.094c-.55.027-.98.496-.953 1.047.027.55.496.98 1.047.953h4v4c-.004.36.184.695.496.879.313.18.695.18 1.008 0 .312-.184.5-.52.496-.879v-4h4c.36.004.695-.184.879-.496a1.01 1.01 0 0 0 0-1.008c-.184-.312-.52-.5-.879-.496h-4v-4a1 1 0 0 0-1.094-1.031z"/></svg>