<svg xmlns="http://www.w3.org/2000/svg" viewBox="0 0 50 50"><path d="M24 1v4h-2v2h-2.406l-.094.906-3.5 39V38h-2V15h-1v-4h-1V8h-2V4H8v4H6v3H5v4H4v23H2v10h22.625a.997.997 0 0 0 .75 0H48V36h-2V21.594l-.281-.313-.719-.718V18c0-.879-.39-1.668-1-2.219V15c0-.879-.39-1.668-1-2.219V12c0-.738-.402-1.371-1-1.719V7h-2v3.281c-.598.348-1 .98-1 1.719v.781c-.61.551-1 1.34-1 2.219v.781c-.61.551-1 1.34-1 2.219v2.563l-.719.718-.281.313V36h-2v10.906l-3.5-39L30.406 7H28V5h-2V1zm-1.406 8h4.812L25 35.75zM8 10h2v1H8zm-1 3h4v2H7zm14 .594L23.906 46h-5.812zm8 0L31.906 46h-5.812zM41 14c.566 0 1 .434 1 1h-2c0-.566.434-1 1-1zM6 17h6v21H6zm34 0h2c.566 0 1 .434 1 1v2h-4v-2c0-.566.434-1 1-1zm-1.563 5h5.126l.437.438V36h-2v6h-2v-6h-2V22.437zM36 38h2v6h6v-6h2v8H36zM4 40h10v6H4z"/></svg>