<svg xmlns="http://www.w3.org/2000/svg" viewBox="0 0 50 50"><path d="M.906-.031C.863-.023.82-.011.781 0A.994.994 0 0 0 0 .703c-.105.367.004.758.281 1.016l48 48c.399.398 1.04.398 1.438 0a1.014 1.014 0 0 0 0-1.438L33.437 32c.016-.035.051-.055.063-.094l16.406-29c.2-.398.106-.793-.093-1.094-.2-.3-.7-.507-1-.406l-3.313.907c-3.3.8-6.086 3-7.688 6L30 22l-.5-1.906c-.3-1-1.398-1.707-2.5-1.407l-5.344 1.532L1.72.28a1.004 1.004 0 0 0-.814-.31zm46 3.937l-3.437 6.156-3.5-1.78a10.565 10.565 0 0 1 5.937-4.095zM38.97 10l3.531 1.813L32 30.563l-4.531-4.532 2.625-.718c.3-.102.492-.2.593-.5zM27.594 20.594l.906 3.093-2.656.72-2.594-2.595zm-10.282.812l-.812.188c-.898.3-1.688.918-2.188 1.718-.5.801-.613 1.79-.312 2.688.2.602.508 1.094.906 1.594L1.812 41c-.601.602-.906 1.414-.906 2.313 0 .8.399 1.585 1 2.187.602.5 1.293.813 2.094.813.8 0 1.586-.305 2.188-.907l7.718-7.593L29.312 33.5l-1.625-1.688-14.593 4.094c-.2 0-.305.082-.406.282L4.811 44c-.398.398-1.101.398-1.5 0-.199-.2-.304-.512-.406-.813 0-.3.082-.582.281-.78l12.907-13.22 7-2-1.594-1.593L20 26l-.813-2.688zM8 22c-2.75 0-5 2.25-5 5s2.25 5 5 5 5-2.25 5-5-2.25-5-5-5zm9.188 1.406l.906 3.094-.188.094c-.8.199-1.699-.293-2-1.094-.101-.398-.105-.79.094-1.188.2-.398.5-.613 1-.812zM8 24c1.668 0 3 1.332 3 3s-1.332 3-3 3-3-1.332-3-3 1.332-3 3-3z"/></svg>