<?xml version="1.0" encoding="utf-8"?>
<!-- Generator: Adobe Illustrator 22.0.1, SVG Export Plug-In . SVG Version: 6.00 Build 0)  -->
<svg version="1.1" xmlns="http://www.w3.org/2000/svg" xmlns:xlink="http://www.w3.org/1999/xlink" x="0px" y="0px"
	 viewBox="0 0 146.203 99.163" enable-background="new 0 0 146.203 99.163" xml:space="preserve">
<g id="background">
	<g id="Layer_4">
	</g>
</g>
<g id="Objects">
	<g>
		<g>
			
				<image overflow="visible" opacity="0.3" width="160" height="114" xlink:href="81BEBCF.png"  transform="matrix(1 0 0 1 -0.5997 -1.9625)">
			</image>
			<g>
				<path fill="#FFFFFF" d="M137.313,39.377c-2.933-3.165-6.383-4.51-9.92-4.585c0.793-3.608,0.972-7.312,0.116-11.073
					c-1.684-7.39-7.518-13.204-14.737-15.354c-8.718-2.596-16.74,0.486-21.967,6.349c-3.697-2.757-8.457-4.033-13.098-4.046
					c-4.619-0.013-9.111,1.477-12.265,4.681c-3.039-4.498-7.894-7.983-13.123-9.307C47.302,4.773,40.74,4.648,37.047,8.905
					c-2.099,2.42-2.691,5.703-3.291,8.757c-0.17,0.863-0.328,1.726-0.472,2.591c-2.069-0.627-4.309-0.786-6.512-0.447
					c-5.891,0.906-10.887,5.147-14.533,9.632c-6.445,7.927-8.223,20.22-1.686,28.345c-5.158,8.893-3.657,20.928,4.955,27.506
					c6.861,5.24,16.48,5.108,23.745,0.959c4.347,4.78,13.098,6.915,18.929,7.671c5.353,0.694,11.069-0.042,15.711-2.937
					c1.962-1.224,3.702-2.689,5.322-4.281c3.844,4.73,9.92,7.63,16.148,7.153c6.649-0.509,12.392-4.849,15.281-10.651
					c4.569,1.258,9.511,0.885,14.134-1.243c7.371-3.393,12.107-10.84,14.717-18.248C142.273,55.819,143.501,46.054,137.313,39.377z"
					/>
			</g>
		</g>
		<path fill="#F72E2E" d="M59.387,34.977c-1.996,2.696-3.369,6.089-4.673,9.451c0.428-4.446-1.19-9.158-3.543-12.55
			c-2.96-4.267-8.297-5.931-11.039-0.318c-2.563,5.247,0.225,11.693,1.95,16.614c2.118,6.044,3.753,12.306,5.002,18.694
			c1.001,5.123,7.613,6.175,9.672,1.502c1.977-4.486,3.845-9.027,5.702-13.588c1.799-4.418,4.518-9.263,5.309-14.098
			C68.655,35.257,62.861,30.285,59.387,34.977z"/>
		<g>
			<path d="M33.154,30.238l-1.006-0.075c-0.373-0.017-0.652,0.049-0.836,0.199c-0.185,0.15-0.288,0.459-0.31,0.925
				c-0.175,3.731-0.203,9.329-0.085,16.795c0.118,7.465,0.09,13.064-0.085,16.795l-0.104,2.211c0.394-0.038,0.787-0.047,1.179-0.029
				c1.585,0.074,2.347,0.783,2.284,2.126l-0.016,0.336l-1.473,0.913l-3.896-0.042c-3.302-0.155-4.926-0.801-4.873-1.939
				c0.043-0.914,0.642-1.344,1.799-1.29l1.199,0.14c0.56,0.026,0.861-0.409,0.903-1.304c0.138-2.947,0.167-7.372,0.089-13.275
				c-0.08-5.902-0.05-10.327,0.088-13.275l0.386-5.843c0.058-1.232,0.061-2.297,0.009-3.197c-0.511,0.144-0.963,0.207-1.355,0.189
				c-0.896-0.042-1.322-0.52-1.279-1.434c0.022-0.466,0.33-0.858,0.925-1.177c0.594-0.318,1.324-0.531,2.189-0.641
				c1.618-0.205,2.813-0.289,3.588-0.253c0.774,0.036,1.322,0.216,1.643,0.54c0.321,0.323,0.472,0.695,0.452,1.115
				c-0.02,0.42-0.162,0.778-0.428,1.074C33.874,30.117,33.546,30.256,33.154,30.238z"/>
			<path d="M73.496,71.866l0.799-11.068c0.052-1.119-0.052-2.783-0.313-4.993c-0.261-2.209-0.361-3.98-0.298-5.314
				c0.062-1.334-0.09-2.967-0.458-4.901c-0.368-1.934-0.795-3.678-1.283-5.234c-1.287-4.08-1.863-7.538-1.73-10.373
				c0.013-0.28,0.187-0.51,0.523-0.691c0.335-0.181,0.68-0.263,1.035-0.246c0.354,0.016,0.711,0.473,1.071,1.368
				c0.36,0.896,0.677,2.033,0.948,3.41c0.272,1.378,0.52,2.754,0.746,4.129c0.226,1.375,0.429,2.708,0.612,3.997
				c0.183,1.289,0.322,2.123,0.416,2.501c0.09-0.332,0.216-1.126,0.378-2.38c0.161-1.254,0.338-2.541,0.531-3.859
				c0.213-1.336,0.462-2.671,0.749-4.003c0.647-3.055,1.48-4.558,2.497-4.51c1.016,0.048,1.515,0.277,1.496,0.687
				c-0.1,2.145-0.708,5.323-1.82,9.534c-1.114,4.211-1.721,7.417-1.824,9.618l-0.261,1.979l-0.041,0.868l-0.404,15.209l0.062,2.863
				l-0.06,1.287c-0.024,0.504-0.234,0.901-0.631,1.19c-0.397,0.29-0.819,0.424-1.267,0.403c-0.448-0.021-0.81-0.174-1.086-0.457
				C73.606,72.595,73.477,72.257,73.496,71.866z"/>
			<path d="M97.302,56.35l-0.843,7.224l-0.012,0.252c-0.292,1.052-0.468,2.194-0.525,3.425c-0.058,1.231-0.328,2.41-0.81,3.538
				c-0.483,1.127-1.184,2.114-2.102,2.958c-0.918,0.845-1.9,1.243-2.944,1.195c-1.045-0.049-1.98-0.448-2.805-1.197
				c-0.825-0.749-1.491-1.692-1.999-2.828c-0.507-1.136-0.94-2.484-1.297-4.043c-0.357-1.559-0.618-3.076-0.782-4.551
				c-0.165-1.475-0.284-3.028-0.357-4.658c-0.108-2.491-0.125-4.423-0.051-5.793c0.073-1.371,0.124-2.547,0.151-3.527
				c0.027-0.98,0.05-1.863,0.068-2.647c0.018-0.392,0.039-0.825,0.061-1.301c0.022-0.476,0.046-0.984,0.071-1.525
				c0.07-1.1,0.149-2.087,0.237-2.962c0.087-0.875,0.215-1.817,0.385-2.828c0.169-1.011,0.365-1.899,0.588-2.665
				c0.222-0.765,0.51-1.513,0.862-2.245c0.371-0.749,0.773-1.356,1.207-1.822c0.983-1.038,2.081-1.529,3.294-1.472
				c1.213,0.057,2.237,0.325,3.075,0.803c0.837,0.479,1.528,1.217,2.07,2.214c0.543,0.998,1.012,1.964,1.407,2.898
				c0.395,0.935,0.681,2.224,0.857,3.868c0.175,1.644,0.314,2.973,0.416,3.988c0.101,1.033,0.135,2.502,0.102,4.408
				c-0.046,2.56-0.101,4.557-0.168,5.993L97.302,56.35z M93.205,35.139c-0.337-0.997-0.777-1.775-1.321-2.333
				c-0.544-0.558-1.096-0.85-1.656-0.877c-0.56-0.026-1.03,0.148-1.413,0.523c-0.382,0.375-0.716,0.916-1.002,1.622
				c-0.285,0.707-0.545,1.465-0.779,2.277c-0.234,0.812-0.428,1.751-0.58,2.819c-0.153,1.068-0.288,2.039-0.403,2.912
				c-0.096,0.856-0.188,1.805-0.273,2.848c-0.119,1.733-0.21,3.085-0.274,4.054l-0.012,0.252c-0.12,2.556-0.053,5.322,0.2,8.296
				c0.253,2.975,0.546,5.415,0.878,7.319c0.331,1.904,0.82,3.53,1.468,4.878c0.647,1.348,1.409,2.043,2.286,2.084
				c0.764,0.036,1.442-0.652,2.031-2.064c0.59-1.431,1.048-3.204,1.371-5.321c0.551-3.788,0.868-6.451,0.949-7.99
				c0.081-1.539,0.134-2.663,0.158-3.372c0.024-0.709,0.044-1.741,0.061-3.096c0.016-1.354-0.003-2.627-0.059-3.817
				c-0.057-1.19-0.14-2.507-0.25-3.952c-0.11-1.445-0.284-2.734-0.52-3.867C93.828,37.201,93.541,36.136,93.205,35.139z"/>
			<path d="M101.311,42.6l0.475-8.952c-0.265-0.33-0.386-0.729-0.365-1.195c0.022-0.466,0.204-0.869,0.547-1.208
				c0.342-0.339,0.738-0.498,1.186-0.477c1.381,0.065,2.007,1.459,1.88,4.182l-0.401,19.949c0.2,0.514,0.344,1.54,0.431,3.077
				c0.086,1.537,0.11,2.73,0.07,3.579c-0.04,0.849,0.047,1.9,0.259,3.153c0.212,1.254,0.527,2.525,0.943,3.816
				c0.417,1.291,1.009,2.403,1.779,3.337c0.769,0.933,1.518,1.417,2.245,1.451c0.728,0.034,1.276-0.113,1.648-0.442
				c0.37-0.328,0.635-0.807,0.796-1.435c0.253-0.998,0.405-2.047,0.456-3.148l0.524-11.193c0.057-1.212,0.02-3.018-0.111-5.418
				s-0.168-4.205-0.111-5.418l0.018-0.391l0.044-3.335l0.04-9.842c0.022-0.466,0.273-0.833,0.753-1.101
				c0.48-0.267,0.972-0.389,1.475-0.366l1.337,1.409l-0.044,0.951l-0.584,3.478c-0.149,3.19-0.202,8.002-0.157,14.435
				c0.045,6.434,0.014,10.784-0.092,13.051c-0.106,2.267-0.209,3.776-0.31,4.529c-0.101,0.752-0.283,1.553-0.547,2.4
				c-0.265,0.848-0.605,1.542-1.023,2.083c-0.976,1.263-2.405,1.851-4.289,1.762c-2.333-0.091-4.16-1.195-5.482-3.313
				c-1.391-2.234-2.314-4.876-2.769-7.926c-0.543-3.596-0.825-6.741-0.848-9.434C101.049,50.59,101.125,46.573,101.311,42.6z"/>
		</g>
	</g>
</g>
<g id="Designed_by_Freepik">
</g>
</svg>
