<svg xmlns="http://www.w3.org/2000/svg" viewBox="0 0 40 40"><path d="M14.668 22.523a1.75 1.75 0 0 1-1.684-1.25l-.039-.125a1.75 1.75 0 0 1 .133-1.343 1.75 1.75 0 0 1 1.04-.852l8.175-2.453 1.062 3.496-8.171 2.453a1.79 1.79 0 0 1-.516.074z" fill="#98ccfd"/><path d="M21.96 17.121l.77 2.54-7.695 2.308a1.261 1.261 0 0 1-1.57-.84l-.04-.125a1.23 1.23 0 0 1 .095-.961 1.24 1.24 0 0 1 .742-.613l7.699-2.309m.668-1.242l-8.656 2.594a2.259 2.259 0 0 0-1.504 2.82l.039.129a2.257 2.257 0 0 0 2.82 1.504l8.652-2.594z" fill="#4788c7"/><path d="M15.586 18.281l1.219 3.883" fill="none" stroke="#4788c7" stroke-miterlimit="10"/><path d="M3.254 37.113c-.453 0-.883-.175-1.211-.492a1.74 1.74 0 0 1-.04-2.445l10.845-11.078 11.566-3.508.098-.18c.066-.12 6.55-12.05 7.422-13.531 1.398-2.383 4.652-2.871 6.175-2.969L27.727 21.187a10.668 10.668 0 0 1-6.399 4.95l-8.832 2.398-7.988 8.043a1.723 1.723 0 0 1-1.254.535z" fill="#b6dcfe"/><path d="M37.2 3.504l-9.903 17.43a10.168 10.168 0 0 1-6.094 4.718l-8.71 2.364-.259.07-.187.187-7.906 7.961a1.22 1.22 0 0 1-.887.375 1.235 1.235 0 0 1-.898-2.082l10.761-10.992 11.246-3.41.39-.121.196-.36c.067-.12 6.547-12.042 7.414-13.515 1.047-1.777 3.27-2.402 4.836-2.625m1.578-1.117c-1.004 0-5.476.175-7.273 3.238-.887 1.504-7.434 13.547-7.434 13.547l-11.488 3.484L1.645 33.828a2.235 2.235 0 1 0 3.219 3.102l7.894-7.95 8.707-2.363a11.23 11.23 0 0 0 6.7-5.183L38.98 2.39s-.074-.004-.203-.004z" fill="#4788c7"/><path d="M31.375 7.422l3.488 1.89" fill="none" stroke="#4788c7" stroke-miterlimit="10"/><path d="M10.5 21.5a3 3 0 1 1-6.002-.002 3 3 0 0 1 6.002.002z" fill="#dff0fe"/><path d="M7.5 19c1.379 0 2.5 1.121 2.5 2.5S8.879 24 7.5 24A2.502 2.502 0 0 1 5 21.5C5 20.121 6.121 19 7.5 19m0-1a3.5 3.5 0 1 0 0 7 3.5 3.5 0 1 0 0-7z" fill="#4788c7"/><path d="M3 3l34 34" fill="none" stroke-width="2" stroke-linecap="round" stroke="#4788c7" stroke-miterlimit="10"/></svg>