<svg viewBox="0 0 16 16" xmlns="http://www.w3.org/2000/svg" fill-rule="evenodd" clip-rule="evenodd" stroke-linejoin="round" stroke-miterlimit="1.41"><path d="M3.34 1.54c1.27-.57.7.69 1.03.83.19.07.61-.37 2.2-.82.54-.15.77-.77.85-.89.05-.06.3-.37.7-.08.02 0 .02.02.03.03a.9.9 0 0 1 .07.11l.04.08c.02.04.25.37.25.34-.01-.1.38-.3.44-.23l.02.02.02.02c.03.04.18.58.16.62l.08.03.1.03.27.11c.3.13.65.42.67.44.08-.03 0-.59.36-.93 1.49.26 1.62 1.88 1.32 2.1-.03.02-.04.06-.06.1a2.34 2.34 0 0 1-.24.3l.01.01c.34.43.38.55.61 1.05a5.91 5.91 0 0 1 .95 1.28c.43.75.83 1.73 1.12 3.04.39 1.76.22 2.78-.12 3.34-.08.15-.27.43-.4.54a1.1 1.1 0 0 1-.78.29.6.6 0 0 1-.3-.11l-.04-.04-.03.02a.67.67 0 0 1-.16.12.42.42 0 0 1-.2.04.35.35 0 0 1-.17-.06.83.83 0 0 1-.15-.17c0-.01 0 .04-.02-.04-.25.52-.53.82-.84 1.3l-.49.71-.03.04-.01.02-.03.02h-.02l-.08.03a3.77 3.77 0 0 1-1.34.08 3.1 3.1 0 0 1-.74-.19c-.16-.05-.58-.12-.72-.2h-.02l-.03-.03a.12.12 0 0 1-.04-.07v-.02l.05-.39h-.09l-.1.01h-.2c-.08 0 .1 0 0 0h-.1c-.1 0 .08 0 0 0h-.28l.03.39v.03l-.05.07h-.01l-.08.05c-.15.07-.56.13-.72.19a3.5 3.5 0 0 1-2.08.06h-.02l-.02-.01a.11.11 0 0 1-.03-.02l-.01-.02-.11-.16c-.2-.28-.4-.56-.58-.86a12.93 12.93 0 0 1-1.4-3.14l-.05-.02a2.67 2.67 0 0 1-.64-.43A1.88 1.88 0 0 1 .5 9.44a2.65 2.65 0 0 1 .12-1.26 5.4 5.4 0 0 1 .9-1.77l.18-.24c.13-.51.32-1 .55-1.47.22-.45.45-.62.75-1 0-.02-.02-.03-.03-.04-.42-.53-.35-1.5.2-2 .05-.04.1-.09.16-.12z" fill-opacity=".2"></path><path d="M3.8 1.26c1.27-.58.7.68 1.03.82.18.08.61-.37 2.19-.82.55-.15.78-.77.86-.89.04-.06.3-.37.7-.08l.03.04a.9.9 0 0 1 .07.1l.04.08c.02.04.24.38.24.34 0-.1.38-.3.45-.23l.02.02.02.03c.03.03.17.57.16.61l.07.03.1.03.28.11c.3.14.65.43.66.44.09-.03.01-.58.37-.93 1.48.26 1.61 1.88 1.32 2.1-.03.03-.04.07-.06.1a2.84 2.84 0 0 1-.24.3v.01c.35.43.38.55.62 1.05a6.1 6.1 0 0 1 .95 1.28c.43.75.83 1.74 1.12 3.04.39 1.77.21 2.79-.12 3.34-.08.15-.27.43-.4.55a1.1 1.1 0 0 1-.78.28.6.6 0 0 1-.34-.15h-.01l-.03.02a.67.67 0 0 1-.15.12.39.39 0 0 1-.21.04.35.35 0 0 1-.17-.05.83.83 0 0 1-.14-.18c0-.01 0 .05-.02-.04-.26.52-.53.82-.85 1.3-.15.25-.31.48-.48.71l-.03.04-.01.02-.03.02H11l-.08.03a3.77 3.77 0 0 1-1.35.08 3.8 3.8 0 0 1-.74-.18c-.15-.06-.57-.13-.72-.2l-.02-.01-.03-.03a.13.13 0 0 1-.03-.07v-.02l.05-.38H7.7c-.09 0 .1.01 0 0l-.1.01c-.1 0 .08 0 0 0l-.29-.01.04.39v.04l-.05.06-.09.05c-.14.07-.56.14-.71.19a3.5 3.5 0 0 1-2.08.06H4.4l-.02-.01a.11.11 0 0 1-.03-.02l-.01-.02-.12-.15a12.84 12.84 0 0 1-1.97-4l-.05-.03a2.7 2.7 0 0 1-.65-.43 1.97 1.97 0 0 1-.46-.66 1.82 1.82 0 0 1-.11-.4 2.65 2.65 0 0 1 .11-1.26 4.17 4.17 0 0 1 .33-.8 6.83 6.83 0 0 1 .75-1.2c.14-.52.32-1.01.56-1.48.22-.45.44-.61.75-1l-.03-.04c-.42-.52-.35-1.5.2-2 .05-.04.1-.09.16-.11z" fill="#fff" stroke="#cecece" stroke-width=".08"></path><path d="M4.16 3.6s-1.44-1.16-.18-2.02c.59-.41.17.14.3.42.07.16.14.44.86.61l-.98.98zm7.25 0s1.44-1.16.18-2.02c-.59-.41-.17.14-.3.42-.07.16-.14.44-.86.61l.98.98z" fill="#fab574"></path><path d="M2.73 6.06c.6-2.24 2.17-3.8 3.63-4.18C8.32 1.37 8.04.75 8.04.75s.27-.5.62.4c.1.24-.24.5-.24.5s.58.06.7-.47c0 0 .37.38.07.69l.08.01c1.12.3 2.3 1.28 3.06 2.72.76.66 1.63 1.88 2.14 4.13.9 3.98-1.38 3.84-1.32 3.35 0 0-.32.53-.61.13-.1-.16-.18-.3-.23-.42-.35.77-.82 1.56-1.42 2.37-.8.23-1.6.15-2.4-.25l.05-.58c-.2.02-.44.03-.72.02-.29 0-.53 0-.73-.02l.04.58c-.79.4-1.59.48-2.39.25-1-1.33-1.61-2.62-1.95-3.83h-.01c-2.25-1-.76-3.35-.05-4.27z" fill="#55cec7"></path><path d="M4.97 2.46L5 2.43a4.48 4.48 0 0 1 1.17-.6l.25-.07.08-.03a6.74 6.74 0 0 0 .99-.38 2.1 2.1 0 0 0 .29-.21 1.03 1.03 0 0 0 .09-.1c0-.02.02-.03.03-.04l.05-.15a.16.16 0 0 0 0-.06L7.93.77V.72l.02-.04a.35.35 0 0 1 .03-.05c.05-.05.1-.1.18-.12h.13c.09.02.16.09.21.16l.03.03.03.04.04.06a1.06 1.06 0 0 1 .09.17l.06.14v.03l.02.07c0 .06 0 .13-.03.2a.64.64 0 0 1-.06.1.55.55 0 0 0 .1-.03.42.42 0 0 0 .18-.19.54.54 0 0 0 .04-.13v-.02l.02-.01c0-.01 0-.02.02-.03a.1.1 0 0 1 .13 0 .3.3 0 0 1 .04.04l.07.09a.6.6 0 0 1 .12.39.51.51 0 0 1-.04.17 1.69 1.69 0 0 1 .16.06l.27.1c.28.12.54.28.8.46l.05.03.22-.1a.7.7 0 0 0 .2-.16.49.49 0 0 0 .06-.1l.05-.09c0-.01 0-.03.02-.04v-.02a.36.36 0 0 0 0-.13c0-.07-.02-.13-.03-.2v-.04c-.01-.06-.02-.11.01-.16l.01-.02.03-.03a.2.2 0 0 1 .03-.01l.06-.02h.02a.31.31 0 0 1 .11.04l.09.05a2.06 2.06 0 0 1 .24.16c.1.1.2.19.28.3a.98.98 0 0 1 .16.52 1.3 1.3 0 0 1-.28.79 2.09 2.09 0 0 1-.22.28v.01c.33.4.6.83.82 1.29.21.2.4.44.57.68a7.7 7.7 0 0 1 1.08 2.27 10.85 10.85 0 0 1 .48 2.73 4.13 4.13 0 0 1-.13.94l-.03.1a1.62 1.62 0 0 1-.53.76.96.96 0 0 1-.64.19.56.56 0 0 1-.28-.1.33.33 0 0 1-.04-.04l-.02.02a.62.62 0 0 1-.15.11.43.43 0 0 1-.11.04h-.09a.33.33 0 0 1-.15-.05.42.42 0 0 1-.1-.07.99.99 0 0 1-.12-.19A12.54 12.54 0 0 1 11 14.2l-.02.03-.02.02-.02.02h-.02l-.08.02a3.46 3.46 0 0 1-1.26.08 3.38 3.38 0 0 1-1.11-.35L8.45 14l-.03-.02a.1.1 0 0 1-.03-.07v-.01l.04-.45h-.71a10.25 10.25 0 0 1-.52 0l.04.45v.03c-.01.03-.02.05-.04.06l-.02.01-.07.04a3.96 3.96 0 0 1-1.12.33 3.23 3.23 0 0 1-1.26-.1h-.02l-.01-.01a.11.11 0 0 1-.03-.02l-.01-.02a13.45 13.45 0 0 1-1.6-2.8 10 10 0 0 1-.36-1.02l-.05-.02c-.21-.1-.42-.23-.6-.4a1.8 1.8 0 0 1-.44-.6 1.68 1.68 0 0 1-.1-.36 2.4 2.4 0 0 1 .1-1.16 3.29 3.29 0 0 1 .17-.44 5.67 5.67 0 0 1 .69-1.2l.16-.21A7.17 7.17 0 0 1 3.9 3.49l-.03-.03a2.69 2.69 0 0 1-.3-.37 1.3 1.3 0 0 1-.2-.83.93.93 0 0 1 .15-.39 1.37 1.37 0 0 1 .42-.4 1.66 1.66 0 0 1 .18-.1.36.36 0 0 1 .1-.04h.1l.03.02.03.03v.02c.03.05.03.1.02.16v.02l-.03.15-.01.14.01.08.05.1a.68.68 0 0 0 .08.13c.06.07.13.13.21.17.08.04.17.08.26.1zm3.68 10.9l-.04.48a3.42 3.42 0 0 0 1.27.34 3 3 0 0 0 .95-.11l.38-.54a11.32 11.32 0 0 0 1.72-4.05 8.21 8.21 0 0 0 .03-2.71 7.08 7.08 0 0 0-1.03-2.64 6.01 6.01 0 0 0-1-1.2 4.8 4.8 0 0 0-1.47-.88L9.31 2l-.09-.02h-.04l-.02-.01h-.01a.1.1 0 0 1-.03-.03.1.1 0 0 1-.03-.11l.04-.05.02-.02a.27.27 0 0 0 .05-.1.37.37 0 0 0-.04-.24l-.01-.01-.02.02a.62.62 0 0 1-.15.17.79.79 0 0 1-.4.15H8.4a.1.1 0 0 1-.03-.01.1.1 0 0 1-.05-.1l.01-.03.02-.03.02-.01.02-.02.03-.03a.9.9 0 0 0 .12-.16.2.2 0 0 0 .04-.15l-.03-.06a1.6 1.6 0 0 0-.09-.2L8.42.9A.5.5 0 0 0 8.4.86L8.37.82 8.35.8 8.33.77 8.3.76V.74C8.28.73 8.25.71 8.22.72a.14.14 0 0 0-.06.05v.11a.66.66 0 0 1-.18.35 2.04 2.04 0 0 1-.2.17 2.13 2.13 0 0 1-.47.27 5.41 5.41 0 0 1-.83.3c-.06 0-.11.02-.16.03l-.08.03c-.38.12-.73.3-1.05.53A5.5 5.5 0 0 0 4 3.7a6.56 6.56 0 0 0-1.12 2.24l-.01.01-.02.12a8.6 8.6 0 0 0-.76 1.2 5.23 5.23 0 0 0-.32.85 2.06 2.06 0 0 0 0 1.05 1.46 1.46 0 0 0 .53.73c.11.08.21.13.35.2a.6.6 0 0 0 .17.04c.13.02.25.07.38.08a2 2 0 0 0 .75-.06 3 3 0 0 0 1.2-.66 4.4 4.4 0 0 0 .83-.96.6.6 0 0 0 .05-.34L6 8.16a.44.44 0 0 0-.11-.18.73.73 0 0 0-.17-.13 1.04 1.04 0 0 0-.28-.12h-.02a.1.1 0 0 1-.05-.14l.01-.03.02-.01.05-.05.11-.1.08-.07a1.4 1.4 0 0 0 .19-.23v-.04c.02-.02.02-.05 0-.08a.1.1 0 0 0-.02-.02.26.26 0 0 0-.06-.03 1.26 1.26 0 0 0-.36-.05 1.6 1.6 0 0 0-.45.12c-.1.04-.2.1-.3.16-.29.17-.55.37-.81.57l-.09.06a2.54 2.54 0 0 1-.3.18H3.4l-.1.02a.8.8 0 0 1-.23 0 .45.45 0 0 1-.18-.08.45.45 0 0 1-.05-.04.56.56 0 0 1-.12-.32.87.87 0 0 1-.01-.13v-.1l.01-.12a2.7 2.7 0 0 1 .07-.36l.07-.27.06-.07.1-.1a3.81 3.81 0 0 1 .04.22l-.01.04-.02.07-.05.21-.03.17-.02.14-.01.1v.19l.01.04v.03c.02.05.05.1.09.14l.02.01c.03.02.06.02.1.03l.14-.01h.06l.03-.01h.02l.06-.04a3.63 3.63 0 0 0 .22-.15L4 7.35a7.14 7.14 0 0 1 .8-.52 1.98 1.98 0 0 1 .57-.16 1.19 1.19 0 0 1 .3.02.9.9 0 0 1 .19.05.2.2 0 0 1 .1.06l.06.06a.26.26 0 0 1 .04.1c.02.1-.01.2-.07.28l-.02.05a.76.76 0 0 1-.04.05l-.06.06a1.73 1.73 0 0 1-.17.18l-.02.01.05.02.05.02c.1.05.18.11.26.19.04.05.09.1.12.16a.6.6 0 0 1 .08.29c0 .17-.06.34-.15.49l-.05.09-.07.1a2.7 2.7 0 0 1-.25.3 5.6 5.6 0 0 1-.55.5 3.24 3.24 0 0 1-1.38.67 2.12 2.12 0 0 1-.87-.02 10.18 10.18 0 0 0 1.4 2.99l.45.64.03.03v.01l.08.02a3.38 3.38 0 0 0 1.1.07 3.23 3.23 0 0 0 1.03-.31h.01L7 13.36l-.17-.03a4.8 4.8 0 0 1-.73-.16 6.2 6.2 0 0 1-1.76-.77l-.01-.01.1.05.11.05a7.9 7.9 0 0 0 2.81.7h.63a9.7 9.7 0 0 0 3.6-.8 16.43 16.43 0 0 1-1.05.47l-.3.1a10.07 10.07 0 0 1-1.24.34l-.16.02-.17.03zM12.8 5.4a7.33 7.33 0 0 1 .46 3.14 8.88 8.88 0 0 1-.9 3.38l.01.01.05.09.03.05.03.04a.49.49 0 0 0 .04.06l.02.02c.03.03.07.06.12.06h.03a.2.2 0 0 0 .06-.03.45.45 0 0 0 .09-.07.82.82 0 0 0 .1-.11v-.01l.01-.02.01-.01a.1.1 0 0 1 .07-.02.1.1 0 0 1 .09.05l.01.04v.04c0 .02.02.03.03.04a.2.2 0 0 0 .05.03l.08.03a.57.57 0 0 0 .25 0 .8.8 0 0 0 .4-.22 1.3 1.3 0 0 0 .34-.52 3.79 3.79 0 0 0 .17-1.07 6.07 6.07 0 0 0-.2-1.65 11.19 11.19 0 0 0-.72-2.15c-.2-.43-.44-.83-.72-1.2zM7.02 7.01s1.2-.62 1.6.12a2.77 2.77 0 0 0-1.6-.12zM9.05 5.2h-.17a2.54 2.54 0 0 1-.44-.03.65.65 0 0 1-.11-.05l-.1-.06h-.01l-.04-.09.09-.03h.01l.1.04.03.02.08.02h.17a2.79 2.79 0 0 0 .54-.05l.15-.02.3-.05.13-.02a1.96 1.96 0 0 1 .26-.04h.07a2 2 0 0 1 .11 0h.06a2.66 2.66 0 0 1 .25.01l.1.02a1.63 1.63 0 0 1 .49.15c.13.07.26.16.36.28.05.05.1.11.12.18l-.01-.01a.89.89 0 0 0-.23-.2 1.15 1.15 0 0 0-.39-.16 1.7 1.7 0 0 0-.1-.02l-.14-.01a2.23 2.23 0 0 0-.43 0h-.1a6.02 6.02 0 0 0-.35.04.4.4 0 0 1 .04.19.43.43 0 1 1-.84-.1zm-3.98-.03c-.07 0-.13.02-.19.03l-.15.04a2.66 2.66 0 0 0-.42.15.3.3 0 0 0-.09.07l-.01.02c0-.02 0-.03.02-.05a.4.4 0 0 1 .06-.06l.11-.08a3.42 3.42 0 0 1 .44-.22l.1-.04.12-.04.11-.04.1-.02.03-.01.16-.04.07-.02a3.04 3.04 0 0 1 .31-.04h.28A2 2 0 0 1 7 5a1.38 1.38 0 0 1 .49.37v.11h-.1l-.02-.04a1.12 1.12 0 0 0-.52-.3 1.8 1.8 0 0 0-.44-.07 3.18 3.18 0 0 0-.53 0c.03.05.04.11.04.17a.43.43 0 1 1-.85-.07zm5.8-1.27c.08.07.1.25.13.3-.02.06-.05.24-.13.31a.5.5 0 0 1-.3.13c-.3.02-1.23.02-1.53 0a.5.5 0 0 1-.3-.13c-.08-.07-.11-.25-.13-.3.02-.06.05-.24.12-.31a.5.5 0 0 1 .3-.13c.31-.02 1.23-.02 1.54 0a.5.5 0 0 1 .3.13zm-3.85-.61c.07.07.1.25.13.3-.02.06-.06.24-.13.3a.5.5 0 0 1-.3.14c-.31.02-1.23.02-1.54 0a.5.5 0 0 1-.3-.13c-.07-.07-.1-.25-.13-.3.02-.06.06-.24.13-.31a.5.5 0 0 1 .3-.13c.31-.02 1.23-.02 1.54 0a.5.5 0 0 1 .3.13zM4.77 2.6a1.13 1.13 0 0 1-.45-.32.77.77 0 0 1-.08-.12l-.06-.13v-.02a.56.56 0 0 1-.02-.2l.03-.24v-.02l-.13.08-.22.18c-.07.07-.13.14-.18.23a.76.76 0 0 0-.1.27v.08a1 1 0 0 0 .17.53 2.02 2.02 0 0 0 .3.4 5.73 5.73 0 0 1 .74-.72zm6.8.69l.02-.03a2.39 2.39 0 0 0 .25-.34 1.06 1.06 0 0 0 .16-.6.72.72 0 0 0-.1-.28.98.98 0 0 0-.17-.23 1.65 1.65 0 0 0-.35-.25 3.2 3.2 0 0 1 .03.16.7.7 0 0 1 0 .25l-.02.06-.05.1a.88.88 0 0 1-.12.19 1 1 0 0 1-.38.26c.26.21.5.45.73.7z" fill="#433231"></path></svg>