<svg viewBox="0 0 16 16" xmlns="http://www.w3.org/2000/svg" fill-rule="evenodd" clip-rule="evenodd" stroke-linejoin="round" stroke-miterlimit="1.41"><path d="M2.6 3.29a2.58 2.58 0 0 1 .4-.11 9.78 9.78 0 0 1 1.38-.2 27.2 27.2 0 0 1 1.93-.15 53.83 53.83 0 0 1 3.79-.04h.02a1.8 1.8 0 0 1 .47.02 2.36 2.36 0 0 1 1.34.73 3.05 3.05 0 0 1 .55.8l.04.06.03.04a6.1 6.1 0 0 1 .48.92 2.8 2.8 0 0 0 .1.04 3.37 3.37 0 0 1 .66.4 1.83 1.83 0 0 1 .52.64 1.52 1.52 0 0 1 .1.33 1.53 1.53 0 0 1-.08.7 2.16 2.16 0 0 1-.33.6l-.02.03a2.97 2.97 0 0 1-.42.53 1.82 1.82 0 0 1-.5.35V9l-.02.03a1.84 1.84 0 0 1-.24.47 3.47 3.47 0 0 1-.46.56 6.05 6.05 0 0 1-.84.72 11.41 11.41 0 0 1-1.81 1.1 19.96 19.96 0 0 1-2.37 1.01 14.16 14.16 0 0 1-4.41.76 9.19 9.19 0 0 1-.97-.06h-.03l-.02-.01-.03-.01-.07-.02a3.71 3.71 0 0 1-.2-.06 1.93 1.93 0 0 1-.53-.32 1.37 1.37 0 0 1-.44-.88 2.06 2.06 0 0 1 .02-.63l.02-.11a8.7 8.7 0 0 0 .09-.95l-.01-.85c0-.15-.02-.3-.03-.44L.7 8.95v-.1l-.01-.13V8.6a.27.27 0 0 0-.02-.07 1.79 1.79 0 0 0-.3-.4L.33 8.1.3 8.08a.82.82 0 0 1-.1-.18l-.07-.16a2.3 2.3 0 0 1-.1-.5 4.68 4.68 0 0 1 0-1.02.81.81 0 0 1 .06-.2L.11 6l.02-.02.03-.06.14-.19a3.27 3.27 0 0 1 .54-.52l.02-.01.01-.01a.36.36 0 0 0 .07-.1.68.68 0 0 0 .08-.26v-.11l.01-.08a.84.84 0 0 1 .1-.25l.14-.2c.13-.17.29-.31.46-.44.25-.18.54-.33.83-.45l.04-.02z" fill-opacity=".2"></path><path d="M3.3 2.83a2.12 2.12 0 0 1 .4-.1 10.64 10.64 0 0 1 1.38-.2A27.19 27.19 0 0 1 7 2.37a54.06 54.06 0 0 1 3.8-.05h.01a1.78 1.78 0 0 1 .47.03 2.34 2.34 0 0 1 1.34.72 3 3 0 0 1 .56.8v.01l.03.05.03.05a6.5 6.5 0 0 1 .48.91v.01l.06.02.04.02a3.77 3.77 0 0 1 .67.4 1.83 1.83 0 0 1 .52.64 1.65 1.65 0 0 1 .1.33 1.53 1.53 0 0 1-.08.7 2.1 2.1 0 0 1-.34.6l-.01.02a3.1 3.1 0 0 1-.42.54 1.76 1.76 0 0 1-.5.35l-.01.02-.01.03a1.96 1.96 0 0 1-.25.46 3.66 3.66 0 0 1-.46.56 5.8 5.8 0 0 1-.84.73 11.4 11.4 0 0 1-1.8 1.1 19.04 19.04 0 0 1-2.37 1.01 14.3 14.3 0 0 1-4.42.76 9.19 9.19 0 0 1-.76-.04l-.2-.02H2.6l-.01-.01-.04-.01-.06-.02-.06-.02a1.94 1.94 0 0 1-.67-.36 1.34 1.34 0 0 1-.45-.88 2.06 2.06 0 0 1 .02-.63l.02-.12a4.73 4.73 0 0 0 .1-.94c0-.29 0-.57-.02-.85l-.02-.44-.03-.36v-.1a5.39 5.39 0 0 1 0-.25l-.01-.04-.02-.04a1.71 1.71 0 0 0-.24-.34l-.05-.05-.04-.04-.01-.02a.78.78 0 0 1-.11-.17c-.03-.05-.04-.1-.06-.16a2.23 2.23 0 0 1-.11-.5 4.65 4.65 0 0 1 0-1.02.82.82 0 0 1 .07-.2v-.02l.02-.03.03-.05.14-.19a3.26 3.26 0 0 1 .5-.49l.05-.03.02-.02a.4.4 0 0 0 .08-.1.58.58 0 0 0 .06-.19.7.7 0 0 0 .02-.14V4.18a.92.92 0 0 1 .11-.25l.14-.2c.13-.17.28-.31.45-.44.25-.19.54-.33.83-.45l.05-.02z" fill="#fff"></path><path d="M3.3 2.88l-.03.01-.03.01-.02.02h-.03l-.03.02-.03.01-.02.01-.03.01-.03.02h-.02L3 3.02l-.03.01-.02.02-.03.01-.02.01-.03.02-.03.01-.02.01-.03.02-.02.01-.03.02-.02.01-.03.02-.02.01-.03.02-.02.01-.03.02-.02.02-.03.01-.02.02-.02.02-.03.01-.02.02-.03.02-.03.03-.03.02-.03.03-.03.02-.03.03-.03.02-.03.03-.03.02-.02.03-.03.03-.01.01-.02.02v.01l-.02.02-.01.01-.02.01-.01.02-.01.01-.01.02-.02.01v.03l-.02.02-.02.03-.01.02-.02.02-.02.03-.01.02-.02.03v.02L1.84 4v.02l-.02.01v.02l-.01.02-.01.02-.01.02v.02l-.01.01v.01l-.01.01v.04h-.01v.19l-.01.02v.04l-.01.02v.02l-.01.02v.03l-.01.02-.01.02v.01l-.01.02v.02l-.02.01v.02l-.01.02h-.01v.02l-.02.02-.02.02v.02H1.6l-.01.02-.01.01-.01.01h-.01l-.04.04-.03.02-.03.03-.03.02-.03.03-.03.02-.02.02-.03.02-.02.03-.03.02-.02.02-.03.03-.02.02-.02.02-.03.03-.02.02-.02.03-.03.02-.02.03-.02.02-.02.03-.02.02-.02.02-.02.03-.01.02-.02.02-.01.03-.02.02-.02.02v.02l-.01.02-.01.02-.01.02v.01H.83v.02l-.01.02-.01.02-.01.02v.05l-.01.02v.02l-.01.02v.03l-.01.03v.03l-.01.03v.07L.74 6v.58l.01.05v.05l.01.05v.05l.01.03v.03l.01.04v.03l.01.03v.03l.01.04.01.03v.03l.01.03.01.03v.03l.02.03v.03l.01.03.01.03v.02l.02.02v.03l.02.02v.02l.01.02.01.02.01.02v.01l.01.01v.01l.01.01.01.01v.01l.01.01v.02H1v.02l.02.01v.01l.01.01.02.02.01.02.02.02.03.02.02.03.03.03.02.03.03.03v.01l.02.02.01.01.01.02.01.01.02.02v.01l.02.02v.01l.02.02v.01l.02.02v.01l.01.02.01.01v.02l.02.01v.02l.01.02.01.02v.02l.01.01v.27l.01.1v.08l.01.1v.09l.02.09v.22l.02.1v.39l.01.06v.7l-.01.04v.14l-.01.04v.05l-.01.04v.09l-.01.05-.01.04v.05l-.01.06-.01.06-.01.05-.01.06-.01.06v.03l-.01.03v.04l-.01.05v.02l-.01.02v.07l-.01.03v.39l.01.02v.04l.01.02v.05l.01.02v.02l.01.02.01.03v.02l.01.02v.02l.02.02v.02l.01.03v.01l.01.02.01.01v.02l.01.01.01.02.01.02.01.02v.01l.02.02v.01l.01.02.01.01.01.01v.02l.02.02.01.01.02.02v.02l.02.02.02.02v.01l.02.02.02.02.01.01.02.02.01.02.02.01.01.02.02.01.02.02.01.01.02.01.01.02h.02l.02.02.01.02h.02l.02.02.01.01.02.01.02.01.02.02H2l.02.02h.02l.02.02h.01l.02.01.03.02.03.02h.03l.03.02.03.02.04.01.03.01.03.01.04.02h.03l.04.02h.02l.03.01.07.02h.01l.02.01h.03l.01.01h.05l.05.01h.05l.05.01h.05l.06.01H3l.05.01h.07l.07.01h.21l.07.01h.73l.04-.01h.16l.05-.01h.06l.05-.01h.11l.05-.01h.05l.06-.01h.05l.05-.01.06-.01h.05l.05-.01h.06l.05-.01.09-.02h.09l.09-.02.09-.01.09-.02.08-.01.1-.02.08-.01.09-.02.09-.02.09-.02.09-.01.08-.02.1-.02.08-.02.09-.02.09-.02.08-.02.09-.03.09-.02.08-.02.1-.03.08-.02.09-.03.08-.02.09-.03.08-.02.09-.03.09-.03.08-.03.09-.02.08-.03.1-.04.09-.03.1-.03.09-.04.09-.03.1-.04.08-.03.1-.04.08-.03.08-.04.08-.03.09-.04.08-.03.08-.04.08-.03.08-.04.06-.03.07-.02.06-.03.06-.03.06-.02.06-.03.06-.03.06-.03.06-.03.05-.03.06-.02.06-.03.06-.03.06-.03.06-.03.06-.03.09-.05.08-.04.09-.05.09-.04.08-.05.09-.05.08-.05.09-.04.07-.05.07-.04.07-.04.07-.04.08-.05.07-.04.07-.05.07-.04.07-.05.07-.04.06-.05.07-.05.07-.04.07-.05.03-.03.04-.02.03-.02.03-.03.06-.04.06-.05.05-.04.06-.04.06-.05.05-.04.06-.05.02-.02.03-.03.05-.04.05-.04.05-.05.02-.02.03-.02.02-.03.03-.02.02-.02.02-.03.03-.02.02-.02.02-.03.03-.02.03-.03.03-.04.03-.03.03-.04.04-.03.03-.04.03-.03.03-.04.02-.03.03-.04.03-.03.02-.03.03-.04.02-.03.03-.04.02-.03.02-.03.01-.02.02-.02.01-.03.02-.02.01-.03.02-.02.01-.03.02-.03.02-.03.01-.04.02-.03v-.01l.01-.02.01-.02v-.01l.01-.02.01-.02v-.01l.01-.02.01-.02V8.5h.02v-.01h.01l.02-.01.02-.01h.01l.02-.01.01-.01h.02l.01-.02h.02l.02-.02.03-.01.02-.02.03-.01.02-.02.02-.02.03-.02.02-.01.02-.02.03-.02.02-.02.02-.02.02-.02.02-.02.02-.02.02-.02.02-.01.01-.02.03-.02.03-.03.03-.03.02-.04.03-.03.02-.03.03-.03.03-.03.02-.04.03-.03.02-.04.02-.03.03-.04.02-.03.02-.04.01-.01.01-.02.03-.03.02-.03.02-.04.03-.03.02-.04.02-.03.02-.03.02-.04.01-.02.01-.02.01-.02.01-.02.01-.02.01-.02.01-.02.01-.02.01-.02.01-.02.01-.02.01-.02v-.02l.02-.02v-.02l.01-.02.01-.02v-.03l.02-.02V6.9l.01-.02v-.03l.01-.02.01-.03v-.02l.01-.03V6.7l.01-.02v-.05l.01-.03v-.26l-.01-.01V6.3l-.01-.02v-.03l-.01-.02V6.2l-.01-.03v-.02L15 6.13V6.1l-.01-.02v-.02l-.01-.01v-.02l-.02-.01v-.03l-.02-.02-.01-.02-.01-.03-.01-.02-.02-.02v-.02l-.02-.01-.01-.02-.01-.02-.01-.02-.02-.02-.01-.01-.01-.02-.02-.02-.01-.02-.01-.01-.02-.02-.01-.02-.02-.01-.01-.02-.02-.02-.01-.01-.02-.02-.01-.01-.02-.02-.01-.01-.02-.02-.02-.02-.01-.01-.02-.01-.02-.02-.01-.01-.02-.02-.02-.01-.01-.02-.03-.01-.02-.02-.03-.02-.02-.02-.03-.02-.03-.02-.04-.02-.03-.03-.02-.01-.02-.01-.02-.02-.03-.01-.02-.01-.02-.01-.02-.02-.02-.01-.04-.02L14 5.1l-.03-.02-.03-.02-.03-.01-.04-.02-.03-.01-.03-.02-.04-.01-.03-.01-.02-.01h-.01v-.01l-.01-.01-.01-.01v-.01l-.01-.03-.01-.03-.02-.02V4.8l-.02-.03v-.03l-.02-.02-.01-.03-.02-.03v-.02l-.02-.03-.02-.03v-.03l-.02-.02-.02-.03v-.03l-.03-.03-.01-.03-.02-.03-.02-.03-.01-.02-.02-.03-.02-.03-.01-.03-.02-.03-.02-.03-.03-.06-.04-.06-.04-.06-.03-.04-.01-.02-.02-.03V3.9l-.03-.04-.01-.04-.02-.03-.02-.04-.02-.03-.02-.04-.02-.03-.02-.04-.03-.03-.02-.03-.02-.04-.02-.03-.02-.03-.03-.04-.02-.03-.03-.03-.02-.03-.02-.03-.03-.03-.03-.04-.02-.03-.03-.03-.03-.03-.02-.02-.03-.03-.03-.03-.03-.03-.03-.03-.03-.02-.02-.03-.03-.02-.04-.03-.03-.02-.03-.03-.03-.02-.03-.02-.03-.03-.04-.02-.03-.02-.03-.02-.03-.02-.02-.01-.02-.01-.03-.02-.02-.01-.03-.01-.02-.02-.02-.01-.03-.01-.02-.01-.03-.02h-.03l-.02-.02h-.03l-.02-.02h-.03l-.02-.02h-.03l-.03-.02h-.02l-.03-.01-.03-.01-.02-.01h-.03l-.03-.01-.02-.01h-.03l-.03-.01-.02-.01h-.03l-.03-.01h-.03l-.02-.01h-.06l-.03-.01h-.06l-.03-.01H8.3l-.17.01h-.28l-.14.01h-.15l-.14.01h-.14l-.14.01-.15.01h-.13l-.13.01-.14.01h-.13l-.13.02H6.2l-.13.01-.13.01-.11.01h-.1l-.11.02H5.5l-.1.02h-.1l-.11.02h-.1l-.1.02-.1.01-.1.01-.1.01-.1.02-.1.01-.1.01-.1.02-.07.01-.07.01-.08.01-.07.02-.07.01-.08.01-.07.02h-.04l-.03.01-.06.02H3.6l-.06.02h-.03l-.02.02h-.05l-.02.01-.02.01h-.02l-.02.01-.02.01H3.3l-.02.02zm.03-.1l.02-.01.02-.01h.03l.02-.01.04-.02h.03l.03-.01.06-.01.05-.02h.06l.03-.02h.04l.07-.02.08-.01.07-.02h.08l.07-.02.07-.01.08-.02.1-.01.1-.01.1-.02.1-.01.1-.01.1-.01.1-.02h.1l.1-.02h.1l.11-.02h.11l.1-.02h.12l.1-.01.11-.01.13-.01.14-.01h.13l.14-.02h.13l.13-.01h.14L7 2.33l.14-.01h.15l.14-.01h.14l.14-.01H8l.14-.01h.17l.16-.01h.83l.17-.01h1.63l.03.01h.06l.03.01h.03l.03.01h.03l.03.01h.03l.02.01.03.01h.03l.03.01.03.01h.02l.03.02h.03l.03.01.02.01.03.01.03.01.03.01.02.01.03.01.03.02h.02l.03.02.03.01.02.01.03.02h.02l.03.02.02.02h.03l.02.02.03.02.02.01.03.02.03.02.04.02.03.02.04.03.03.02.03.03.03.02.04.03.03.02.03.03.03.03.03.02.03.03.03.03.03.03.03.03.02.03.03.03.03.03.03.03.02.03.03.04.03.03.02.03.03.03.02.04.02.03.03.03.02.04.02.03.03.04.02.03.02.04.02.03.02.04.02.04.02.03.02.04.02.03.02.04.02.03.01.03.03.04.04.06.04.06.03.06.02.03.02.03.02.03.01.03.02.03.02.03.02.03.01.03.02.03.01.03.02.03.01.02.02.03.01.03.01.03.02.02.01.03.01.03.02.03v.02l.02.03.01.03.01.03.01.03.01.03.01.01.03.02.05.02.03.01.03.02.04.01.03.02.03.01.04.02.03.02.03.02.03.01.02.01.02.02h.02l.03.02.02.02.02.01.02.01.04.03.03.02.03.02.04.02.02.02.03.02.02.02.03.02.01.01.02.02.02.01.02.02.01.01.02.02.02.01.01.02.02.02.02.01.01.02.02.01.02.02.01.02.02.02.01.01.02.02.01.02.02.02.01.01.02.02.01.02.02.02.01.02.01.02.02.02.01.02.01.01.01.02.02.02v.02l.02.03.01.02.02.03v.02l.02.03v.01l.01.02.01.02v.01l.01.02.01.02v.02l.01.01.01.03v.02l.01.03.01.03v.02l.01.03v.02l.01.03v.06l.01.01v.34l-.01.03v.03l-.01.03v.02l-.01.03-.01.02v.03l-.02.03v.02l-.01.03-.01.02v.03l-.02.02v.02l-.01.03-.01.02-.01.02-.01.02-.01.02-.01.02-.01.02-.01.02-.01.03-.01.02-.01.02-.01.02-.02.02v.02l-.03.03-.02.04-.02.03-.03.04-.02.03-.02.04-.03.03-.02.03v.01l-.01.02-.03.04-.02.03-.03.04-.02.04-.03.03-.02.04-.03.03-.03.04-.02.03-.03.03-.03.04-.02.03-.03.03-.03.03-.03.03-.01.01-.02.02-.02.02-.02.02-.02.02-.03.02-.02.02-.02.02-.03.02-.02.02-.03.02-.02.02-.02.02-.03.01-.03.02-.02.02-.03.01-.02.02h-.02l-.02.01-.01.01-.02.01h-.02l-.01.02h-.02v.03l-.01.02-.01.02v.02l-.02.01v.02l-.01.02v.01l-.02.02-.01.04-.02.03-.02.03-.01.04-.02.02-.01.03-.02.02-.02.03-.01.02-.02.03-.01.02-.02.03-.02.04-.03.03-.03.04-.02.03-.03.04-.02.03-.03.04-.03.03-.03.04-.03.03-.03.04-.03.04-.04.03-.03.04-.03.03-.04.04-.02.02-.02.02-.03.03-.02.02-.02.02-.03.03-.02.02-.03.02-.02.03-.03.02-.05.04-.05.05-.05.04-.02.03-.03.02-.06.05-.05.04-.06.05-.06.04-.05.05-.06.04-.06.05-.03.02-.04.03-.03.02-.04.03-.06.04-.07.05-.07.05-.07.05-.07.04-.07.05-.07.04-.07.05-.07.04-.08.05-.07.04-.07.04-.07.04-.08.05-.08.05-.09.04-.08.05-.09.05-.09.04-.08.05-.09.05-.09.04-.05.03-.07.03-.06.03-.05.03-.06.03-.06.03-.06.03-.06.03-.06.02-.06.03-.06.03-.06.03-.07.03-.06.02-.06.03-.06.03-.08.03-.08.04-.08.04-.09.03-.08.04-.08.03-.09.03-.08.04-.1.03-.08.04-.1.04-.1.03-.08.04-.1.03-.1.03-.09.04-.08.02-.09.03-.08.03-.1.03-.08.03-.08.02-.1.03-.08.02-.09.03-.08.02-.1.03-.08.02-.09.02-.08.03-.1.02-.08.02-.09.02-.09.02-.09.02-.08.02-.1.02-.08.01-.1.02-.08.02-.1.01-.08.02-.09.01-.09.02-.09.01-.09.01-.09.02H5.2l-.05.01-.06.01h-.05l-.05.01-.06.01H4.9l-.05.01h-.06l-.05.01h-.06l-.05.01h-.11l-.05.01h-.11l-.04.01h-.14l-.05.01H3.12l-.07-.01h-.06l-.05-.01h-.05l-.06-.01h-.05l-.05-.01h-.05l-.05-.02h-.05l-.02-.01h-.02l-.07-.03h-.02l-.03-.01-.04-.01-.03-.01-.04-.02h-.03l-.04-.02-.03-.02-.03-.01-.04-.02-.03-.01-.03-.02-.04-.01-.01-.01-.02-.01-.02-.01-.02-.01-.02-.01-.01-.02h-.02l-.02-.02-.02-.01-.02-.01-.02-.02-.01-.01-.02-.01-.02-.02-.02-.01-.01-.02h-.02l-.02-.02-.01-.02-.02-.02-.02-.01-.01-.02-.02-.02-.02-.01-.01-.02-.02-.02-.01-.02-.02-.02-.01-.01-.02-.02-.01-.02-.01-.02-.02-.02-.01-.02-.01-.02-.01-.01v-.02l-.02-.01v-.02l-.01-.01-.01-.02-.01-.01v-.02l-.02-.02v-.01l-.01-.02v-.01l-.01-.02-.01-.02v-.01l-.01-.02-.01-.03-.01-.02v-.02l-.01-.03-.01-.02v-.02l-.01-.03v-.02L1.28 12v-.03l-.01-.02v-.02l-.01-.03v-.04l-.01-.03v-.12l-.01-.03v-.26l.01-.03v-.06l.01-.03v-.04l.02-.05v-.06l.02-.05v-.06l.01-.06.01-.06.01-.05v-.05l.01-.04v-.05l.01-.04v-.05l.01-.04v-.09l.01-.04v-.14l.01-.04V9.25l-.01-.06v-.1l-.01-.12-.01-.1v-.1l-.01-.09V8.6l-.01-.09-.01-.1v-.26l-.01-.01V8.1l-.01-.02-.01-.02-.01-.02-.02-.02V8h-.01l-.01-.01-.01-.02-.01-.01-.01-.02-.01-.01-.01-.02-.01-.01-.01-.02-.02-.01v-.01l-.03-.03-.02-.03-.03-.03-.02-.02-.03-.03-.01-.02-.02-.02-.02-.02H.96v-.02H.93V7.6l-.01-.01v-.01L.9 7.56v-.02l-.02-.01V7.5H.86l-.02-.03v-.02l-.01-.02-.01-.02v-.02L.8 7.37V7.3l-.02-.03v-.03L.76 7.2l-.01-.03-.01-.03v-.03L.72 7.1v-.06L.7 6.99V6.87l-.01-.04V6.8l-.01-.05V6.7l-.01-.05V6.6l-.01-.05v-.1L.64 6.4v-.44l.01-.03v-.07l.01-.03V5.8l.01-.04v-.02l.01-.02.01-.03v-.02l.01-.02v-.01l.01-.02V5.6l.01-.01v-.01l.02-.02v-.02l.01-.01.01-.02V5.5l.02-.01v-.02l.02-.01v-.02l.02-.02.02-.03.01-.02.02-.03.02-.02.02-.02.02-.03.01-.02.03-.03L1 5.2l.02-.03.03-.03.02-.02.02-.03.03-.02.02-.03.03-.02.02-.03.03-.02.02-.02.03-.03.03-.02.02-.02.03-.03.03-.02.03-.03.03-.02.03-.03.04-.03.02-.01V4.7h.01l.01-.02.02-.02.01-.02.01-.02.01-.01v-.02l.01-.01.01-.01v-.02l.01-.01v-.02l.01-.01v-.03l.01-.02v-.02l.01-.01v-.06l.01-.01v-.18l.01-.02v-.01l.01-.01V4.1h.01l.01-.03.01-.02v-.02L1.75 4l.02-.02v-.02l.02-.02.01-.02.02-.02.01-.03.02-.03.02-.02.01-.03.02-.02.02-.03.02-.02.01-.02.02-.01v-.02l.02-.02.01-.01.02-.02.01-.01.01-.02.02-.01.01-.02.03-.02.03-.03.03-.03.03-.03.03-.02.03-.03.03-.03.03-.02.03-.03.03-.02.03-.03.03-.01.02-.02.03-.02.02-.02.03-.01.02-.02.03-.02.02-.01.03-.02.02-.01.03-.02.02-.01.03-.02.03-.01.02-.02.03-.01.03-.02.02-.01.03-.01.03-.02.02-.01.03-.01.03-.02.03-.01.02-.01.03-.01.03-.02h.02l.03-.02.03-.01.03-.01.03-.01.02-.01.02-.01.03-.01h.02z" fill="#cecece"></path><path d="M2.25 4.69l.16-.55s.48-.67 1.55-.9c1.06-.21 5.46-.6 6.98-.36 1.52.23 1.95 2.06 2.08 2.3 0 0 1.56.57 1.27 1.57a3 3 0 0 1-1.22 1.56s-.79 2.56-7.15 4.02c0 0-3.21.63-3.81-.48l-.22-.7.2-1.21-.12-2.03-.51-.75-.13-.96.16-.56.5-.5.26-.45z" fill="#fff"></path><path d="M3.65 3.17a1.87 1.87 0 0 1 .37-.1 8.37 8.37 0 0 1 1.27-.19 25.82 25.82 0 0 1 1.77-.13 45.67 45.67 0 0 1 3.48-.04h.02a1.68 1.68 0 0 1 .43.02 2.15 2.15 0 0 1 1.23.67 2.77 2.77 0 0 1 .5.73h.01l.03.05.03.04a5.58 5.58 0 0 1 .44.84l.05.03.04.01a2.98 2.98 0 0 1 .61.37 1.68 1.68 0 0 1 .48.58 1.28 1.28 0 0 1 .1.3v.27c0 .13-.04.25-.08.37a1.85 1.85 0 0 1-.31.56l-.01.02a2.6 2.6 0 0 1-.39.49 1.6 1.6 0 0 1-.46.32v.02l-.02.02a1.74 1.74 0 0 1-.22.43 3.32 3.32 0 0 1-.43.51 5.93 5.93 0 0 1-.77.67 10.39 10.39 0 0 1-1.66 1 17.19 17.19 0 0 1-2.17.93 13.08 13.08 0 0 1-4.05.7 9.47 9.47 0 0 1-.9-.06h-.02L3 12.58l-.03-.01-.06-.02-.05-.01a1.77 1.77 0 0 1-.62-.33 1.2 1.2 0 0 1-.33-.48c-.04-.1-.07-.22-.08-.33a1.9 1.9 0 0 1 .02-.58l.02-.1.03-.22a6.8 6.8 0 0 0 .04-1.42l-.02-.4-.02-.34-.01-.09V8.02L1.88 8l-.01-.04a1.75 1.75 0 0 0-.23-.31L1.6 7.6l-.04-.03-.01-.02a.72.72 0 0 1-.1-.16l-.05-.14a2.17 2.17 0 0 1-.1-.47 4.25 4.25 0 0 1 0-.92c0-.06.02-.11.04-.16l.02-.03v-.02l.02-.02a1.46 1.46 0 0 1 .16-.22A2.87 2.87 0 0 1 2 4.96l.04-.03.01-.01.01-.01a.33.33 0 0 0 .07-.09.57.57 0 0 0 .06-.17.8.8 0 0 0 .01-.13v-.04l.01-.07a1.06 1.06 0 0 1 .1-.23c.03-.07.08-.13.12-.19.12-.15.26-.28.42-.4.23-.17.5-.3.76-.4l.05-.02zm9.31 2.02l-.01-.04a2.6 2.6 0 0 0-.2-.43 5.02 5.02 0 0 0-.26-.42l-.01-.01-.02-.05-.03-.05a2.86 2.86 0 0 0-.43-.6A1.87 1.87 0 0 0 10.57 3h-.28a64.7 64.7 0 0 0-4.26.11 24.35 24.35 0 0 0-1.32.14 2.18 2.18 0 0 0 .35.04h.24a8 8 0 0 0 1.21-.08l.31-.04.09-.01.17-.02a11.65 11.65 0 0 1 .93-.05h.1a6.28 6.28 0 0 1 1.4.16 2.33 2.33 0 0 1 .31.11l.04.02.05.03.2.11.67.36.75.4.06.04.02.07-.06.02-.66-.36-.47-.26-.35-.18-.26-.14-.02-.01a1.4 1.4 0 0 0-.35-.13 3.69 3.69 0 0 0-.61-.1 6.62 6.62 0 0 0-1.57 0c-.11 0-.23.01-.34.03l-.27.03-.13.02a14.12 14.12 0 0 1-1.43.08 3.19 3.19 0 0 1-.53-.08.32.32 0 0 1-.07-.03 7.64 7.64 0 0 0-.69.15l-.05.01-.02.01c-.23.1-.45.2-.66.35a2.03 2.03 0 0 0-.47.46 1.15 1.15 0 0 0-.1.2v.04a.77.77 0 0 1-.02.21l-.02.07a.76.76 0 0 1-.22.36.86.86 0 0 1-.03.03l-.04.03a3.29 3.29 0 0 0-.5.53l-.04.04v.02l-.01.01-.01.03a2.7 2.7 0 0 0-.02.9 2.79 2.79 0 0 0 .14.55.33.33 0 0 0 .07.1c0 .02.02.03.03.04a2.38 2.38 0 0 1 .29.4.7.7 0 0 1 .05.12l.01.09v.04a1.98 1.98 0 0 0 0 .23l.03.36.01.13a20.56 20.56 0 0 1 .03 1 8.07 8.07 0 0 1-.07.88l-.02.11-.02.09v.04l-.02.12v.29c0 .1.02.18.05.27a.9.9 0 0 0 .3.43 1.2 1.2 0 0 0 .45.24l.08.02.07.02h.01a3.15 3.15 0 0 0 .34.04 8.76 8.76 0 0 0 1.98-.07 12.83 12.83 0 0 0 3.76-1.09 17.53 17.53 0 0 0 2.2-1.19 7.69 7.69 0 0 0 1.19-1.01 2.98 2.98 0 0 0 .41-.64l.02-.06.01-.04v-.02L13 8.2l.03-.04a.16.16 0 0 1 .04-.02l.04-.02h.02a1.48 1.48 0 0 1 0-.1c-.03-.01-.05 0-.07 0h-.07l-.02-.01.02-.02H13a.97.97 0 0 0 .31-.1 1.73 1.73 0 0 0 .4-.28l.05-.06.04-.05.07-.12.03-.04a2.07 2.07 0 0 0 .28-.53 1.05 1.05 0 0 0 .02-.44.95.95 0 0 0-.05-.18 1.24 1.24 0 0 0-.32-.43l-.07-.06a3.5 3.5 0 0 0-.4-.25 2.68 2.68 0 0 0-.29-.13l-.03-.01-.05-.01a2.13 2.13 0 0 0-.26-.03h-.04l-.18-.01h-.1c-.09 0-.18 0-.26.02h-.02l-.02-.02.01-.02h.03a2.56 2.56 0 0 1 .5-.07h.14a2 2 0 0 1 .11.02h.06zm-1.48 4.54l-.02.07-.06.03-.19.11a11.65 11.65 0 0 1-3.6 1.32 15.16 15.16 0 0 1-3.3.32h-.19l-.17-.02a2.89 2.89 0 0 1-.6-.12l-.08-.03a1.04 1.04 0 0 1-.5-.38.65.65 0 0 1-.1-.22.66.66 0 0 1-.02-.2v-.01l.06-.04.04.05v.01c0 .06 0 .11.02.16 0 .04.02.08.03.11a.74.74 0 0 0 .08.13.94.94 0 0 0 .42.3 2.09 2.09 0 0 0 .76.15 7.06 7.06 0 0 0 .8.02 12.67 12.67 0 0 0 1.3-.1 15.57 15.57 0 0 0 3.27-.75 11.38 11.38 0 0 0 1.83-.84l.15-.09.07.02zm-.72 0l-.02.06-.12.06c-.71.35-1.44.66-2.2.9a10.33 10.33 0 0 1-2.9.46l-.2.01-.18.01H5.1a3.71 3.71 0 0 1-.68-.05 1.9 1.9 0 0 1-.66-.25 1.27 1.27 0 0 1-.36-.34l-.04-.06.02-.07.07.02v.03l.13.16a1.59 1.59 0 0 0 .64.37 2.56 2.56 0 0 0 .94.1l.36-.02a28.71 28.71 0 0 0 .99-.08 10.23 10.23 0 0 0 2.75-.7c.36-.13.7-.28 1.05-.45l.33-.16.03-.01.03-.02.07.02zm-3.63 1.03h-2.3l-.04-.05.05-.05h2.29l.05.05-.05.05zm4.64-4.39a.78.78 0 0 1 .04-.25l.08-.08.1-.01H12l.08.07.01.11v.04a.6.6 0 0 0-.02.16c0 .03 0 .07.02.1 0 .03.02.05.03.07l.02.03c.05.06.12.1.19.12h.03l.04.02h.05a.95.95 0 0 0 .17.02h.13l.11.03.05.1-.04.11-.1.05h-.04a1.8 1.8 0 0 1-.22 0h-.08l-.2-.05-.05.1a4.43 4.43 0 0 1-.5.89 5.49 5.49 0 0 1-3.64 2.26 7.12 7.12 0 0 1-1.16.12l-.33.01a32.02 32.02 0 0 1-1.89-.01 7.38 7.38 0 0 1-1.1-.17l-.08-.03a1.2 1.2 0 0 1-.46-.3.82.82 0 0 1-.2-.37c-.03-.09-.04-.19-.06-.3l-.02-.2v-.08l-.01-.04a6.85 6.85 0 0 1 .15-1.61c.05-.24.1-.48.17-.71v-.04l.01-.04.05-.14v-.02l.02-.02.03-.02.05-.02h.02l.02.01c.01 0 .02 0 .03.02.02.02.04.05.04.08v.04l-.02.07-.03.1v.01c-.02.1-.03.19-.02.28a.85.85 0 0 0 .2.46 1.2 1.2 0 0 0 .47.33 1.4 1.4 0 0 0 .24.09 3.22 3.22 0 0 0 .72.13l.16.01.26.02a11.31 11.31 0 0 0 5.04-.88 16.08 16.08 0 0 0 1.36-.63l.03-.01h.02c.16-.11.07-.03.07 0l-.05-.02zM5.66 9.5H4.9c0 .14.27.56.35.68a6.65 6.65 0 0 0 .59 0l-.2-.68zm1.45-.2c-.39.06-.78.11-1.18.13l.15.75h.03l.88-.02h.11v-.87zm-2.53.16c-.18 0-.33.02-.4.03l.19.6.46.06c.02-.1-.15-.48-.25-.7zm4.14-.57c-.45.14-.92.27-1.4.36v.89a7.25 7.25 0 0 0 1.7-.37c-.19-.18-.28-.71-.3-.88zm-5.1.38l.01.03c.01.18-.01.5.15.73l.28-.03a2.18 2.18 0 0 0-.24-.7 4.37 4.37 0 0 1-.2-.03zm-.6-.24c.02.15.09.72.44.8l-.21-.68a1.1 1.1 0 0 1-.22-.12zm7.23-.7c-.37.15-.8.32-1.27.47-.03.38.27.74.35.84a5.55 5.55 0 0 0 1.2-.73c-.32-.13-.3-.45-.28-.59zm1.37-.65c-.18.1-.53.27-1 .48l-.03.34c-.01.17.05.23.12.25a5.82 5.82 0 0 0 .91-1.07zm-7.04.4c-.03.1-.1.37-.1.59.3.02.65.02 1.06.01h.02c0-.1 0-.35.07-.53h-.2l-.44-.03-.16-.01-.18-.03h-.07zm2.2.04c-.27.02-.53.03-.8.03-.11.08-.23.23-.16.52.34 0 .65-.02.95-.03v-.52zm-2.9-.22a.93.93 0 0 0-.08.67c.13.03.28.06.44.07 0-.12.01-.46.07-.61a5.23 5.23 0 0 1-.4-.12l-.03-.01zm4.44 0c-.4.09-.8.15-1.21.2l-.01.53c.4-.02.77-.04 1.14-.09l.29-.06a4.42 4.42 0 0 0-.21-.58zm-4.9-.28a.89.89 0 0 0-.12.79l.16.07c.02 0 .04-.02.05-.06a7 7 0 0 0 .12-.65c-.08-.04-.15-.1-.22-.15zm6.93-.34c-.54.21-1.1.4-1.67.54l.23.56c.6-.17 1.24-.44 1.44-.8v-.3zm1.49-.6l-.07-.05-.02.01a16.97 16.97 0 0 1-1.1.52l.03.6.1.03c.36-.17.74-.39 1.14-.65l.11-.23-.04-.03a.53.53 0 0 1-.12-.15.47.47 0 0 1-.03-.05zm1.87.43a.73.73 0 0 1-.1.3.7.7 0 0 1-.11.12.88.88 0 0 1-.42.22 1.39 1.39 0 0 1-.2.04l-.05-.05.04-.05h.05a1.06 1.06 0 0 0 .18-.04.81.81 0 0 0 .4-.27.71.71 0 0 0 .1-.21.9.9 0 0 0 .02-.07l.05-.04.04.05zM5.73 5.74a1.98 1.98 0 0 1-.25-.05l-.08-.02h-.04l-.03-.02a5.15 5.15 0 0 0-.96-.07L4 5.6h-.04a.1.1 0 0 1-.04-.02.08.08 0 0 1-.02-.03.64.64 0 0 1-.04-.07.4.4 0 0 1 0-.25.25.25 0 0 1 .05-.09l.02-.03a.44.44 0 0 1 .21-.1L4.17 5h.05l.05-.01h.12a4.73 4.73 0 0 1 .95.1 1.74 1.74 0 0 1 .29.1l.05.03a.8.8 0 0 1 .3.27l.04.08h.02l.13-.05.14-.07h.09l.06.05v.09l-.05.06a.72.72 0 0 1-.04.02l-.1.04-.06.03-.06.02-.04.01-.03.01h-.03l-.07.01.01.1a3.91 3.91 0 0 1 0 .28v.16l-.02.05v.05a.43.43 0 0 1-.12.2l-.02.02a.35.35 0 0 1-.05.02.31.31 0 0 1-.06.03h-.05a1.53 1.53 0 0 0-.34.13 2.04 2.04 0 0 0 .3.52c0 .02.02.03.03.04a.53.53 0 0 0 .27.15H6a.4.4 0 0 0 .1-.01.64.64 0 0 0 .17-.09l.09-.01.07.04.01.09-.04.07-.02.01a.93.93 0 0 1-.23.1.58.58 0 0 1-.41-.03.9.9 0 0 1-.36-.3 1.46 1.46 0 0 1-.12-.2l-.03-.06a.2.2 0 0 0-.14 0v.06l-.06.07h-.1l-.06-.06a.35.35 0 0 1-.03-.1V7.1l-.03.01a3.78 3.78 0 0 1-.47.2l-.27.1h-.03l-.07-.03.04-.06a5.06 5.06 0 0 0 .78-.3l.05-.03a.4.4 0 0 1 .04-.09.5.5 0 0 1 .08-.1.7.7 0 0 1 .2-.15 1.64 1.64 0 0 1 .44-.17l.05-.01h.02l.02-.02.02-.04.02-.05.01-.08.01-.13a2 2 0 0 0-.01-.33l-.01-.07zM3.2 7.38a.2.2 0 0 0-.12.01l-.05.3a.8.8 0 0 1 .22-.24.8.8 0 0 1-.04-.06zm4.46-.8A1.74 1.74 0 0 1 8 6.6l.07.02.05.02a.47.47 0 0 1 .23.19l.03.05a.36.36 0 0 1 0 .21.66.66 0 0 1-.07.17 1.43 1.43 0 0 1-.23.28l-.07.03-.08-.03-.04-.08.03-.08.03-.03.03-.02a1.2 1.2 0 0 0 .18-.26L8.18 7a.1.1 0 0 0 0-.03.14.14 0 0 0-.06-.08h-.01l-.02-.02h-.03l-.03-.02-.05-.02a.98.98 0 0 0-.23-.04h-.12l-.08-.03-.03-.08.03-.07.07-.04h.04zM3.13 5.32a2.95 2.95 0 0 1 .39.02h.03l.05.06-.06.05-.07-.01a3.65 3.65 0 0 0-.74 0l-.1.02a1.28 1.28 0 0 0-.56.26.89.89 0 0 0-.26.42 1.16 1.16 0 0 0-.04.5.82.82 0 0 0 .27.46 1.34 1.34 0 0 0 .5.29l.03.06-.06.03a1.45 1.45 0 0 1-.32-.15c-.16-.09-.3-.22-.4-.38a.85.85 0 0 1-.13-.52 1.27 1.27 0 0 1 .15-.54.98.98 0 0 1 .28-.3c.16-.12.36-.2.56-.23l.12-.02a1.96 1.96 0 0 1 .3-.02h.06zm9.08.28h.12a1.06 1.06 0 0 1 .5.2 1 1 0 0 1 .28.34l.07.16c.08.22.1.47.06.7a1.65 1.65 0 0 1-.11.38l-.06.06h-.09l-.06-.05V7.3l.02-.03v-.03a1.24 1.24 0 0 0 .02-.87.89.89 0 0 0-.26-.38.85.85 0 0 0-.44-.16 1.28 1.28 0 0 0-.66.14 1.79 1.79 0 0 0-.24.14l-.27.12c-.16.07-.34.12-.51.13a1.44 1.44 0 0 1-.72-.12 1.65 1.65 0 0 1-.58-.44l-.03-.09.05-.07.08-.03.07.05.01.01a1.33 1.33 0 0 0 1.68.3l.12-.07c.03 0 .05-.02.08-.04l.03-.02.16-.08a1.73 1.73 0 0 1 .65-.15h.03zM7.49 7.05h.08a.3.3 0 0 1 .17.07l.02.02a.2.2 0 0 1 .04.15l-.04.08-.08.02-.08-.04-.02-.06-.02-.01h-.2a2.35 2.35 0 0 0-.5.1h-.08l-.06-.07.01-.08.07-.06a3.7 3.7 0 0 1 .67-.12h.02zm.09.22zm-5.4-.53l.02.02.03.02a1.51 1.51 0 0 0 .19.15l.06.03h.05l.05.06-.05.05a.3.3 0 0 1-.1-.03 1.5 1.5 0 0 1-.31-.23H2.1v-.08h.07zm6.4 0v.01l.04.02.05.03.18.04.3.02h.4l.06.04-.05.05H9.5a4.26 4.26 0 0 1-.73-.03 1.17 1.17 0 0 1-.19-.06l-.05-.02a.15.15 0 0 1-.03-.03v-.07h.07zm-5.42-.86a.9.9 0 0 1 .35.08 1.03 1.03 0 0 1 .24.14l.17.14.05.03a1.39 1.39 0 0 0 .16.1l.02-.01.03-.02.06-.07.1-.11.04-.04.07-.03.08.02.04.08-.03.08-.05.05a8 8 0 0 1-.21.23.28.28 0 0 1-.12.04h-.04a.36.36 0 0 1-.18-.07l-.03-.01-.05-.04-.06-.05-.19-.14a.9.9 0 0 0-.34-.17.61.61 0 0 0-.3.01.79.79 0 0 0-.29.14l-.05.05V6.3v.01l-.02.01-.02.01a.11.11 0 0 1-.07 0 .11.11 0 0 1-.07-.15l.02-.03h.01l.02-.02a1.06 1.06 0 0 1 .62-.25h.04zm-.49-.09l-.05.06h-.1l-.05.02-.05.01a.44.44 0 0 0-.22.14.3.3 0 0 0-.04.11v.12a.7.7 0 0 0 .03.14l-.03.06-.06-.02a.52.52 0 0 1-.05-.17.5.5 0 0 1 .04-.24.47.47 0 0 1 .07-.1l.03-.03a.6.6 0 0 1 .25-.12h.04l.06-.01.08-.01.05.04zm10.27-.4h.05a.82.82 0 0 1 .26.1c.14.07.26.18.36.31l.14.2-.02.07s-.05 0-.07-.02l-.01-.02a1.4 1.4 0 0 0-.12-.17c-.09-.11-.2-.21-.33-.28a.88.88 0 0 0-.15-.07L13 5.49h-.07l-1.04-.03-.05-.05.05-.05 1.05.03zm-3.82-.74a2.17 2.17 0 0 1 .5.07 2.14 2.14 0 0 1 .73.35l.2.16.1.1c.02.01.03.04.04.06l.01.06v.04l-.02.03-.02.02-.02.02a.25.25 0 0 1-.13.04h-.23l-.12-.02-.24-.03a3.76 3.76 0 0 0-1.06.04c-.16.03-.3.07-.46.12l-.12.04-.2.07-.08.03-.04.02-.02.01a.62.62 0 0 1-.11.03.4.4 0 0 1-.23-.03.37.37 0 0 1-.11-.09.43.43 0 0 1-.08-.26v-.11a.27.27 0 0 1 .1-.15l.04-.02.03-.02a2.61 2.61 0 0 1 1.5-.58h.04zm1.84.9H11l.02.01.02.01.01.02.02.02.02.04-.02.05-.05-.02-.01-.01-.02-.01-.02-.02h-.03l-.05-.02-.04-.03.03-.04a.25.25 0 0 1 .07 0zM8.78 4.9a2.2 2.2 0 0 0-.52.16c-.3.16-.8.49-.33.58h.02c.26-.11.53-.2.8-.25l.17-.03c-.06-.12-.14-.3-.14-.46zm2.45.39h.09a.3.3 0 0 1 .1.05h.01l.03.03v.05c0 .03-.03.04-.05.05h-.01l-.02.01h-.02a.5.5 0 0 1-.04.01h-.04c.01 0 .02 0 .03-.02h.02l.06-.05h-.01l-.02-.01h-.04l-.01-.01h-.02l-.03-.01h-.02l-.02-.01h-.03a1.09 1.09 0 0 1-.08-.03l-.03-.01h-.04l-.06-.03h.07l.04-.02h.05a.7.7 0 0 1 .04 0h.05zm.16.12zm0 0zM10 5.1c0 .07.01.15-.01.23l.23.02.06.01h.1c-.1-.08-.22-.16-.34-.23L10 5.1zm-5.15.12a5.6 5.6 0 0 0-.47-.03H4.3c-.07.06-.08.12-.07.17h.64a.24.24 0 0 1-.02-.14zm.86-.87l.07.04a.3.3 0 0 1 .09.1l.01.04.02.05a.68.68 0 0 1 .03.14 1.45 1.45 0 0 1-.01.37l-.06.04-.04-.05v-.05a2.26 2.26 0 0 0 .02-.21l-.03-.18a.44.44 0 0 0-.04-.11.23.23 0 0 0-.05-.06l-.02-.02-.04-.06.05-.04zm-1.1-.4a2.12 2.12 0 0 1 .24.02 14.65 14.65 0 0 1 1.07.15 1.72 1.72 0 0 1 .16.05l.02.07-.07.02L6 4.24l-.1-.03a4.35 4.35 0 0 0-.96-.14H4.8l-.08-.02h-.23a.85.85 0 0 0-.4.13.6.6 0 0 0-.18.19.73.73 0 0 0-.12.35v.1l-.04.05-.05-.04v-.1a.97.97 0 0 1 .09-.36.7.7 0 0 1 .32-.32 1 1 0 0 1 .48-.1h.02zM7.87 4h-.28l-.05-.04.05-.05c.54 0 1.08-.02 1.63-.01a.83.83 0 0 1 .21.03 3.28 3.28 0 0 1 1.25.67l.15.14v.06l-.06.01-.05-.04a9.12 9.12 0 0 0-.58-.42A3.07 3.07 0 0 0 9.4 4a1.33 1.33 0 0 0-.2 0H8v.03h-.02a.73.73 0 0 0-.29.47.64.64 0 0 0 .02.26l-.04.06-.06-.04a.86.86 0 0 1 0-.32.77.77 0 0 1 .2-.4.81.81 0 0 1 .06-.05zm.43-.5a5.22 5.22 0 0 1 .55.04 4.39 4.39 0 0 1 2 .78l.32.3v.01h.01v.08h-.07l-.03-.04a3.4 3.4 0 0 0-.92-.66 4.39 4.39 0 0 0-2.43-.37l-.15.01-.15.03h-.08l-.36.05a8.7 8.7 0 0 1-1.82.02l-.5-.07h-.06c-.04-.02-.1-.02-.14-.03h-.12l-.1-.01h-.13l-.05.01h-.03l-.02.01-.02.01h-.02v.01c-.03.02-.05.03-.06.06v.06l-.01.07-.07-.02a.2.2 0 0 1-.02-.13l.01-.03.02-.03a.25.25 0 0 1 .14-.09h.03l.03-.01.04-.01h.42l.18.03.23.04.11.01a12.3 12.3 0 0 0 .47.05c.21.01.42.02.64.01a9.76 9.76 0 0 0 1.23-.1l.18-.03h.06a4.85 4.85 0 0 1 .63-.05h.06z" fill="#2c2c2c"></path></svg>