<svg xmlns="http://www.w3.org/2000/svg" viewBox="0 0 40 40"><path d="M3.5 37.5v-35h33v25.344L29.738 37.5z" fill="#b6dcfe"/><path d="M36 3v24.684L29.48 37H4V3h32m1-1H3v36h27l7-10z" fill="#4788c7"/><path d="M17 23v8h-4V8h7c2.59 0 4.574.77 6 2 1.426 1.23 2 2.805 2 5.04 0 2.237-.512 4.538-2 5.96-1.488 1.422-3.465 2-6 2zm0-12v9h2.148c1.606 0 3.012-.43 3.77-1.27.77-.855 1.062-2.058 1.062-3.437 0-2.707-1.453-4.293-4.535-4.293z" fill="#fff"/><path d="M31 39.5c-4.688 0-8.5-3.813-8.5-8.5 0-4.688 3.813-8.5 8.5-8.5 4.688 0 8.5 3.813 8.5 8.5 0 4.688-3.813 8.5-8.5 8.5z" fill="#98ccfd"/><path d="M31 23c4.41 0 8 3.59 8 8s-3.59 8-8 8-8-3.59-8-8 3.59-8 8-8m0-1c-4.973 0-9 4.027-9 9s4.027 9 9 9 9-4.027 9-9-4.027-9-9-9z" fill="#4788c7"/><path d="M33 29v-.047A1.954 1.954 0 0 0 31.047 27h-.094a1.954 1.954 0 0 0-.535 3.832l1.164.332A1.958 1.958 0 0 1 33 33.047 1.954 1.954 0 0 1 31.047 35h-.094A1.954 1.954 0 0 1 29 33.047V33m2-8v1.5m0 9V37" fill="none" stroke-width="2" stroke="#fff" stroke-miterlimit="10"/></svg>