<svg viewBox="0 0 16 16" xmlns="http://www.w3.org/2000/svg" fill-rule="evenodd" clip-rule="evenodd" stroke-linejoin="round" stroke-miterlimit="1.41"><path d="M3.04 11.54C-4.1 5.62 3.01-1.9 7.3 3.57c3.61-4.8 11.83.74 4.14 8.05-.53.5-1.14.93-1.74 1.35a30 30 0 0 1-2.26 1.43l-.05.03-.06.03a.2.2 0 0 1-.1-.01l-.03-.02-.22-.12c-.75-.44-1.5-.91-2.2-1.42-.6-.42-1.17-.89-1.73-1.35z" fill-opacity=".2"></path><path d="M3.55 11.35C-3.59 5.44 3.52-2.1 7.8 3.38c3.6-4.8 11.83.74 4.14 8.06-.53.5-1.14.92-1.74 1.34-.73.51-1.48.99-2.26 1.43l-.05.04-.06.02a.2.2 0 0 1-.1-.01l-.03-.01-.22-.13a28.82 28.82 0 0 1-3.93-2.77z" fill="#fff" stroke="#cfcfcf" stroke-width=".09"></path><path d="M7.8 4.45c1.36-2.57 4.09-2.57 5.45-1.4 1.37 1.17 1.37 3.5 0 5.84-.95 1.75-3.4 3.5-5.46 4.67-2.04-1.17-4.5-2.92-5.45-4.67-1.37-2.34-1.37-4.67 0-5.84C3.7 1.88 6.43 1.88 7.8 4.45z" fill="#e72f2f"></path><path d="M4.5 2.13a3.72 3.72 0 0 1 3.03 1.59l.26.38v.02l.05-.08.04-.05a5.6 5.6 0 0 1 .63-.78 3.9 3.9 0 0 1 1.39-.87 3.67 3.67 0 0 1 3.44.57 2.82 2.82 0 0 1 .87 1.24 4.13 4.13 0 0 1 .19 2.07 5.62 5.62 0 0 1-.35 1.36 8.57 8.57 0 0 1-.65 1.39l-.05.08c-.23.4-.52.78-.83 1.13-.33.37-.7.72-1.07 1.04a24.07 24.07 0 0 1-3.53 2.45l-.04.03-.06.02-.08-.01-.03-.01-.2-.11c-.66-.4-1.31-.8-1.94-1.25-.52-.38-1.04-.77-1.52-1.2A10.3 10.3 0 0 1 3 10.1a6.8 6.8 0 0 1-.8-1.13l-.07-.11a9.07 9.07 0 0 1-.82-2.04 6.77 6.77 0 0 1-.13-.73 4.28 4.28 0 0 1 .25-2.07 3.05 3.05 0 0 1 .9-1.18 3.26 3.26 0 0 1 1.72-.68c.12-.02.25-.02.37-.03h.07zm3.4 2.44l-.02.02a.17.17 0 0 1-.05.02h-.05l-.05-.01a.16.16 0 0 1-.07-.05l-.03-.05-.01-.03-.03-.06a5.02 5.02 0 0 0-.57-.78 3.68 3.68 0 0 0-1.25-.9 3.42 3.42 0 0 0-1.6-.25 3.24 3.24 0 0 0-1.8.76 2.7 2.7 0 0 0-.66.97 3.66 3.66 0 0 0-.19 1.96 5.7 5.7 0 0 0 .33 1.3 8.05 8.05 0 0 0 .63 1.33l.05.09c.22.38.49.74.79 1.07a17.2 17.2 0 0 0 2.54 2.18c.62.44 1.26.84 1.92 1.22h.02a24.81 24.81 0 0 0 3.48-2.42c.36-.32.7-.66 1.03-1.02a6.56 6.56 0 0 0 .8-1.12l.06-.1a8.75 8.75 0 0 0 .76-1.83 5.69 5.69 0 0 0 .17-1.06 3.7 3.7 0 0 0-.33-1.84 2.66 2.66 0 0 0-1.22-1.18 3.24 3.24 0 0 0-2.02-.28A3.37 3.37 0 0 0 8.5 3.7a4.29 4.29 0 0 0-.57.84l-.02.02-.01.02z" fill="#433231" fill-rule="nonzero"></path><path d="M7.8 5.35c1.07-2.03 3.23-2.03 4.3-1.1 1.08.91 1.08 2.76 0 4.6-.75 1.38-2.69 2.77-4.3 3.69-1.62-.92-3.56-2.3-4.31-3.69-1.08-1.84-1.08-3.68 0-4.6 1.07-.93 3.23-.93 4.3 1.1z" fill="#c51717"></path><path d="M7.8 6.34c.73-1.38 2.2-1.38 2.93-.76.74.63.74 1.89 0 3.15-.51.94-1.83 1.88-2.94 2.51-1.1-.63-2.42-1.57-2.93-2.51-.74-1.26-.74-2.52 0-3.15.73-.62 2.2-.62 2.93.76z" fill="#a71313"></path><path d="M7.8 7.1c.5-.96 1.53-.96 2.04-.52.5.43.5 1.3 0 2.18a5.64 5.64 0 0 1-2.04 1.75 5.64 5.64 0 0 1-2.05-1.75c-.5-.87-.5-1.74 0-2.18.51-.44 1.54-.44 2.04.52z" fill="#8a1010"></path></svg>