<svg xmlns="http://www.w3.org/2000/svg" viewBox="0 0 24 24"><path d="M15.656 2C13.957 2.082 12.43 3.582 12 6 6.957 2.312 3 4 3 9c1.563-1.395 5.328-2.715 7-1-3.625-.406-10.125 4.875-5 10 0-3.762 3.133-6.875 5.813-7.75C10.398 14.016 9.194 16.55 7 19c-.3.332-.664.664-1 1l-2 2h6c.914-.727 1.55-2.352 2-4 .688-2.54.898-5.523.969-7.781C15.829 11.3 17 16.664 17 19c7.207-6.52-1.188-11.55-3-11 .96-.73 3.559-1.059 6 1a8.9 8.9 0 0 1 1 1c.02-5.367-4.078-5.32-6.75-4.719.754-1.164 2.355-2.484 3.75-2.468-.766-.583-1.57-.852-2.344-.813z"/></svg>