<svg xmlns="http://www.w3.org/2000/svg" viewBox="0 0 48 48"><path d="M7 14.008c-.027-2.184.848-4.719 2.262-6.438 1.414-1.715 3.57-3.047 5.96-3.425 2.387-.407 4.801.152 6.696 1.218C23.824 6.45 25.035 8.07 26 10.008c-2.145-.313-3.656-.852-5.363-1.07-1.703-.239-3.219-.266-4.63-.032-1.413.227-2.8.723-4.277 1.528-1.48.8-2.988 2.324-4.73 3.574zm35 0c-1.508-.93-2.781-1.766-4.035-2.473-1.242-.707-2.426-1.25-3.598-1.59-1.176-.34-2.363-.492-3.73-.449-1.371.027-2.867.297-4.637.512.816-1.582 2.164-2.813 3.86-3.559 1.687-.75 3.769-.906 5.628-.34 1.867.543 3.438 1.7 4.555 3.079 1.102 1.398 1.863 3.023 1.957 4.82z" fill="#388e3c"/><path d="M15 40.992c11-9.941 10-30.984 10-30.984h2s1 27.836-5 33.8c-2.043.528-7 .165-7-2.816z" fill="#795548"/><path d="M26 10.008c-4.828 6.035-6 18.988-6 18.988m6-18.988c-.055 2.074-.145 3.672-.344 5.277a32.719 32.719 0 0 1-.914 4.633 26.79 26.79 0 0 1-1.695 4.531c-.75 1.512-1.633 3.016-3.047 4.547-1.074-1.805-1.453-3.621-1.59-5.41a15.7 15.7 0 0 1 .555-5.277 14.62 14.62 0 0 1 2.375-4.88c1.129-1.468 2.625-2.863 4.66-3.421z" fill="#8bc34a"/><path d="M26 10.008c-2.207.996-3.91 1.969-5.277 3.043-1.368 1.062-2.352 2.195-3.262 3.515-.906 1.325-1.715 2.88-2.547 4.633-.848 1.758-1.66 3.692-2.914 5.797-1.246-2.11-1.734-4.414-1.7-6.789.063-2.363.72-4.855 2.212-7.027 1.46-2.172 3.828-3.883 6.363-4.453 2.52-.57 5.145-.207 7.125 1.28z" fill="#4caf50"/><path d="M37.988 27.996c-1.136-2.023-1.953-3.781-2.758-5.445-.785-1.653-1.539-3.153-2.335-4.524-.805-1.375-1.637-2.625-2.723-3.894-1.078-1.293-2.45-2.535-4.172-4.125 2.172-.875 4.61-.73 6.816.219 2.207.949 4.094 2.726 5.266 4.789 1.195 2.062 1.746 4.367 1.754 6.593-.023 2.227-.496 4.453-1.848 6.387z" fill="#4caf50"/></svg>