<svg viewBox="0 0 16 16" xmlns="http://www.w3.org/2000/svg" fill-rule="evenodd" clip-rule="evenodd" stroke-linejoin="round" stroke-miterlimit="1.41"><path d="M4.23 4.71C4.13 2.17 5.22.85 7.33.6c2-.24 4.77-.06 4.75 4.1.2-.08.2-.12.57-.34 1.25-.72 1.42.64 1.04 1.46a8.67 8.67 0 0 1-1.73 2.02c-1.15 6.34-2.9 7.32-2.9 7.32s-1.42.64-1.34-.52c.07-1.16-.22-.91-.62-.51-.55.55-1.25.13-1.12-.66.1-.67-.22-.31-.49 0-.26.3-1.03.72-1.12-.11-.13-1.23-.68-.26-1.1-.12-.4.13-1.47.13-.9-1.54 0 0 1.1-1.53 1.5-3.93A6.86 6.86 0 0 1 2.32 5.4c-.38-.82-.12-1.7 1.12-.98.46.27.58.24.79.3z" fill-opacity=".2"></path><path d="M4.75 4.33C4.65 1.79 5.74.46 7.83.21c2.02-.24 4.78-.05 4.77 4.1.2-.07.2-.12.57-.33 1.24-.72 1.42.64 1.04 1.45a8.7 8.7 0 0 1-1.74 2.03c-1.15 6.34-2.9 7.32-2.9 7.32s-1.41.63-1.34-.53c.08-1.15-.2-.9-.61-.5-.55.54-1.25.12-1.12-.67.1-.66-.22-.3-.49 0s-1.04.72-1.12-.1c-.13-1.24-.68-.27-1.1-.13-.41.14-1.48.13-.9-1.54 0 0 1.09-1.53 1.5-3.93a6.83 6.83 0 0 1-1.56-2.37c-.38-.81-.12-1.7 1.12-.97.46.26.58.23.79.29z" fill="#fff" stroke="#cfcfcf" stroke-width=".24"></path><path d="M5.3 5.36C5.22 3.14 5.8 1.1 7.89.85c2.05-.25 4.36.17 4.1 4.47.17-.06.4-.17.7-.35 1.02-.63 1.31-.71 1 0-.32.7-1.24 2.02-1.85 2.18l-.07.01c-.95 5.53-2.5 6.94-2.5 6.94s-.66.29-.6-.72c.06-1-.4-1-.85-.52-.44.49-1.12.87-.76-.61.36-1.48-.7-.37-.93-.1-.22.27-.93 1.3-.87-.31.07-1.61-1.1.04-1.1.04s-1.1.85-.63-.6c0 0 1.41-2.05 1.75-4.15-.6-.22-1.48-1.48-1.79-2.16-.32-.71-.03-.63 1 0 .38.23.64.34.8.39z" fill="#fff"></path><path d="M13.73 4.27c.04 0 .07.01.1.03a.3.3 0 0 1 .08.05.28.28 0 0 1 .06.09c.05.1.03.21 0 .31l-.01.06a1.56 1.56 0 0 1-.07.17l-.05.12a4.53 4.53 0 0 1-.3.54 7.37 7.37 0 0 1-.9 1.18c-.11.12-.24.24-.38.34-.1.06-.2.13-.32.16l-.05.26A26.45 26.45 0 0 1 10.7 12a11.26 11.26 0 0 1-.78 1.56 5.63 5.63 0 0 1-.45.62l-.06.05-.03.03-.04.02h-.02a.76.76 0 0 1-.18.05l-.2-.01a.53.53 0 0 1-.27-.17.77.77 0 0 1-.17-.4l-.01-.08v-.43a2.08 2.08 0 0 0-.03-.36.37.37 0 0 0-.05-.1.1.1 0 0 0-.03-.03l-.05-.01a.28.28 0 0 0-.1.03 1.1 1.1 0 0 0-.23.18l-.07.1-.05.04c-.09.1-.19.18-.3.25a.96.96 0 0 1-.24.12.53.53 0 0 1-.17.03.38.38 0 0 1-.24-.1.33.33 0 0 1-.03-.03.59.59 0 0 1-.12-.32v-.27l.02-.16c0-.07.02-.14.04-.2.01-.1.04-.18.06-.27l.01-.07a1.96 1.96 0 0 0 .04-.36H6.9l-.14.1a1.94 1.94 0 0 0-.32.28 3.7 3.7 0 0 0-.21.24l-.1.11-.04.07c-.08.09-.16.18-.25.25a.75.75 0 0 1-.2.12.4.4 0 0 1-.24.02.3.3 0 0 1-.12-.05.52.52 0 0 1-.17-.28l-.02-.06v-.07l-.02-.1a2.17 2.17 0 0 1-.02-.33v-.33a1.54 1.54 0 0 0-.03-.3.24.24 0 0 0-.02-.04h-.03a.98.98 0 0 0-.2.13l-.2.21c-.1.1-.17.2-.25.3V12l-.03.03-.04.03a2.3 2.3 0 0 1-.31.19l-.07.02a.6.6 0 0 1-.4.04.34.34 0 0 1-.18-.14.41.41 0 0 1-.06-.12.66.66 0 0 1-.03-.2 2.89 2.89 0 0 1 .1-.56l.04-.1.02-.02c0-.02.02-.03.03-.05l.07-.11A13.88 13.88 0 0 0 4.74 8.4a8.67 8.67 0 0 0 .32-1.17L5 7.22c-.14-.09-.27-.2-.4-.31a7.22 7.22 0 0 1-1.39-2.07c0-.03 0-.05-.02-.07v-.04a.47.47 0 0 1 0-.28v-.03l.04-.05a.3.3 0 0 1 .15-.1h.14c.06 0 .13.03.2.05l.15.07a3.9 3.9 0 0 1 .57.32l.21.13a4.77 4.77 0 0 0 .42.22l.02.01v-.23a9.8 9.8 0 0 1 .14-1.45l.07-.28a3.81 3.81 0 0 1 .83-1.63A2.63 2.63 0 0 1 7.76.67l.2-.03a8.16 8.16 0 0 1 .88-.05 4.04 4.04 0 0 1 1.63.35 2.58 2.58 0 0 1 1 .85c.27.36.44.78.55 1.21.07.26.11.52.14.78.05.4.06.8.05 1.2v.03l.27-.15.15-.09.14-.08.13-.08a5.15 5.15 0 0 1 .6-.3.74.74 0 0 1 .2-.04h.03zM5.25 5.55a5.2 5.2 0 0 1-.75-.35l-.3-.18a5.13 5.13 0 0 0-.6-.33l.01.06a3.23 3.23 0 0 0 .37.71A7.15 7.15 0 0 0 5 6.72a1.73 1.73 0 0 0 .32.21h.01l.01.01.17.06-.07.36a7.85 7.85 0 0 1-.47 1.6 12.74 12.74 0 0 1-1.25 2.4 2.32 2.32 0 0 0-.1.48v.09h.02a.5.5 0 0 0 .15-.05.67.67 0 0 0 .2-.12H4l.02-.02.04-.06a5.67 5.67 0 0 1 .51-.54l.08-.06.04-.03c.11-.07.24-.12.36-.1a.38.38 0 0 1 .15.04l.1.07.08.14c.04.08.06.17.07.25l.01.3V12l.01.31.02.1.03.1a.44.44 0 0 0 .07-.05l.1-.1.29-.34.04-.05a3.82 3.82 0 0 1 .46-.45l.1-.07.07-.05.06-.03c.1-.06.21-.1.32-.08a.34.34 0 0 1 .1.04.34.34 0 0 1 .14.14c.03.05.05.1.05.15.02.09.01.18 0 .26 0 .1-.02.2-.04.3l-.05.2-.02.1a3.25 3.25 0 0 0-.05.52c0 .03 0 .06.02.09l.07-.02a1.7 1.7 0 0 0 .37-.28l.09-.1.04-.05c.09-.08.17-.15.27-.21a.73.73 0 0 1 .21-.08.5.5 0 0 1 .3.02.42.42 0 0 1 .12.09c.11.1.17.25.2.4a2.48 2.48 0 0 1 .02.47v.36a.4.4 0 0 0 .03.09v.02c.02.05.05.1.1.12l.06.01a.3.3 0 0 0 .09-.01 1.94 1.94 0 0 0 .23-.28 10 10 0 0 0 1.2-2.5 28.8 28.8 0 0 0 .98-3.96l.04-.2.16-.02.02-.01a.6.6 0 0 0 .14-.06l.14-.08a2.14 2.14 0 0 0 .39-.36 5.65 5.65 0 0 0 .73-.98 5.45 5.45 0 0 0 .4-.78 2.14 2.14 0 0 0-.34.16l-.32.19-.22.14-.1.06c-.18.1-.35.19-.54.25l-.26-.2v-.14l.01-.14a8.38 8.38 0 0 0-.18-1.95c-.1-.4-.27-.8-.53-1.12a2.23 2.23 0 0 0-.78-.64A3.35 3.35 0 0 0 8.66.99a6.07 6.07 0 0 0-1.12.12 2.39 2.39 0 0 0-1.12.65c-.3.33-.51.73-.65 1.15l-.06.19a4.8 4.8 0 0 0-.18.96 8.7 8.7 0 0 0-.04 1.3l-.24.19zm3.33-1.2c.22 0 .4.19.4.42 0 .23-.18.42-.4.42a.41.41 0 0 1-.4-.42c0-.23.18-.42.4-.42zm1.58-1.37c.35 0 .64.27.64.62 0 .34-.29.61-.64.61a.63.63 0 0 1-.65-.61c0-.35.29-.62.65-.62zm-2.88-.04c.36 0 .65.28.65.62 0 .34-.3.62-.65.62a.63.63 0 0 1-.65-.62c0-.34.29-.62.65-.62z" fill="#433231"></path></svg>