<svg xmlns="http://www.w3.org/2000/svg" viewBox="0 0 40 40"><path d="M25.5 14h-11a.498.498 0 0 1-.5-.5c0-.277.223-.5.5-.5h11a.499.499 0 1 1 0 1z" fill="#4788c7"/><path d="M17.605 18.5l1.364-7.086c.078-.531.52-.914 1.031-.914.512 0 .953.383 1.027.89l1.368 7.11z" fill="#dff0fe"/><path d="M20 11c.266 0 .492.2.54.508L21.79 18h-3.58l1.259-6.54A.541.541 0 0 1 20 11m0-1a1.54 1.54 0 0 0-1.523 1.32L17 19h6l-1.477-7.68A1.54 1.54 0 0 0 20 10z" fill="#4788c7"/><path d="M17.059 25.5L.5 21.605V19.5h39v2.105l-16.559 3.899z" fill="#dff0fe"/><path d="M39 20v1.207l-16.117 3.797L17.117 25 1 21.207V20h38m1-1H0v3l17 4 6 .004L40 22z" fill="#4788c7"/><path d="M20 29.5c-2.96 0-5.5-3.39-5.5-6.168 0-2.664 2.469-4.832 5.5-4.832s5.5 2.168 5.5 4.832c0 2.777-2.54 6.168-5.5 6.168z" fill="#b6dcfe"/><path d="M20 19c2.758 0 5 1.945 5 4.332 0 2.5-2.355 5.668-5 5.668s-5-3.168-5-5.668C15 20.945 17.242 19 20 19m0-1c-3.313 0-6 2.387-6 5.332S16.688 30 20 30c3.313 0 6-3.723 6-6.668C26 20.387 23.312 18 20 18z" fill="#4788c7"/><path d="M35.5 25.5a3 3 0 1 1-6.002-.002 3 3 0 0 1 6.002.002z" fill="#b6dcfe"/><path d="M32.5 23c1.379 0 2.5 1.121 2.5 2.5S33.879 28 32.5 28a2.502 2.502 0 0 1-2.5-2.5c0-1.379 1.121-2.5 2.5-2.5m0-1a3.5 3.5 0 1 0 0 7 3.5 3.5 0 1 0 0-7zm-11.25 4a1.25 1.25 0 1 1-2.498.002A1.25 1.25 0 0 1 21.25 26z" fill="#4788c7"/><path d="M10.5 25.5a3 3 0 1 1-6.002-.002 3 3 0 0 1 6.002.002z" fill="#b6dcfe"/><path d="M7.5 23c1.379 0 2.5 1.121 2.5 2.5S8.879 28 7.5 28A2.502 2.502 0 0 1 5 25.5C5 24.121 6.121 23 7.5 23m0-1a3.5 3.5 0 1 0 0 7 3.5 3.5 0 1 0 0-7zM23 23h-6l1-1h4z" fill="#4788c7"/></svg>