<svg xmlns="http://www.w3.org/2000/svg" viewBox="0 0 80 80"><path d="M40 15c-.406 0-.676.21-.813.355-.14.145-.207.266-.269.38a4.12 4.12 0 0 0-.293.745c-.168.56-.332 1.282-.5 2.141-.332 1.723-.676 3.984-.988 6.242-.614 4.41-1.094 8.688-1.117 8.89A11.112 11.112 0 0 0 32.477 36H24a1.006 1.006 0 0 0-.879.496 1.01 1.01 0 0 0 0 1.008c.184.312.52.5.879.496h6.797A10.92 10.92 0 0 0 29 43.984c-6.215-.066-12.121-.765-16.797-1.472-2.465-.371-4.586-.746-6.242-1.028C4.305 41.2 3.195 41 2.414 41 1.02 41 0 42.07 0 43.215c0 .918.52 1.617 1.164 2.05.8.54 4.586 2.954 10.45 5.11A5.978 5.978 0 0 0 11 53c0 3.3 2.7 6 6 6 3.195 0 5.816-2.527 5.984-5.68 2.61.407 5.387.66 8.325.676C32.957 55.832 35.344 57 38 57h4c2.656 0 5.043-1.168 6.691-3.004a55.942 55.942 0 0 0 8.325-.676C57.184 56.473 59.805 59 63 59c3.3 0 6-2.7 6-6a5.99 5.99 0 0 0-.613-2.625c5.863-2.156 9.648-4.57 10.453-5.11.64-.433 1.16-1.132 1.16-2.05C80 42.07 78.98 41 77.59 41c-.785 0-1.895.2-3.55.484-1.657.282-3.778.657-6.243 1.028-4.676.707-10.582 1.406-16.797 1.472A10.92 10.92 0 0 0 49.203 38H56c.36.004.695-.184.879-.496a1.01 1.01 0 0 0 0-1.008c-.184-.312-.52-.5-.879-.496h-8.473a11.173 11.173 0 0 0-3.547-2.246c-.023-.203-.503-4.48-1.117-8.89-.312-2.259-.656-4.52-.988-6.243-.168-.86-.332-1.582-.5-2.14a4.12 4.12 0 0 0-.293-.747 1.564 1.564 0 0 0-.27-.379A1.11 1.11 0 0 0 40 15zm0 4.578c.293 1.594.602 3.527.887 5.559a338.26 338.26 0 0 1 1.008 8.039A10.814 10.814 0 0 0 40 33c-.648 0-1.277.066-1.895.176.13-1.145.493-4.305 1.008-8.04.285-2.03.594-3.964.887-5.558zM40 35c4.984 0 9 4.016 9 9v.832a.904.904 0 0 0 0 .324V48c0 3.879-3.121 7-7 7h-4c-3.879 0-7-3.121-7-7v-2.832a.904.904 0 0 0 0-.324V44c0-4.984 4.016-9 9-9zm-9 12c0 .55.45 1 1 1s1-.45 1-1-.45-1-1-1-1 .45-1 1zm18 0c0-.55-.45-1-1-1s-1 .45-1 1 .45 1 1 1 1-.45 1-1zM20 36c-.55 0-1 .45-1 1s.45 1 1 1 1-.45 1-1-.45-1-1-1zm40 0c-.55 0-1 .45-1 1s.45 1 1 1 1-.45 1-1-.45-1-1-1zm-24 4a3 3 0 0 0-3 3h6v-3zm5 0v3h6a3 3 0 0 0-3-3zM2.414 43c.332 0 1.566.176 3.211.453 1.648.281 3.785.656 6.277 1.035 4.73.715 10.739 1.43 17.098 1.496V48c0 1.422.34 2.762.934 3.96a54.317 54.317 0 0 1-7.196-.702C21.988 48.8 19.695 47 17 47a5.99 5.99 0 0 0-4.164 1.691C6.856 46.56 3 44.09 2.277 43.605c-.164-.109-.277-.34-.277-.39 0 .015-.04-.215.414-.215zm75.176 0c.45 0 .41.23.41.215 0 .05-.113.281-.277.39-.723.485-4.578 2.954-10.559 5.086A5.99 5.99 0 0 0 63 47c-2.695 0-4.988 1.8-5.738 4.258a54.317 54.317 0 0 1-7.196.703A8.901 8.901 0 0 0 51 48v-2.016c6.36-.066 12.367-.78 17.098-1.496 2.492-.379 4.629-.754 6.277-1.035C76.02 43.176 77.254 43 77.59 43zM36 47c-.55 0-1 .45-1 1s.45 1 1 1 1-.45 1-1-.45-1-1-1zm8 0c-.55 0-1 .45-1 1s.45 1 1 1 1-.45 1-1-.45-1-1-1zm-4 1c-.55 0-1 .45-1 1s.45 1 1 1 1-.45 1-1-.45-1-1-1zm-23 1a3.987 3.987 0 0 1 3.906 3.14c0 .09.012.18.035.266.028.196.059.39.059.594 0 2.223-1.777 4-4 4s-4-1.777-4-4c0-.863.273-1.652.73-2.3a.995.995 0 0 0 .344-.419A3.974 3.974 0 0 1 17 49zm46 0c1.164 0 2.195.496 2.926 1.281.074.168.195.309.344.414.457.653.73 1.442.73 2.305 0 2.223-1.777 4-4 4s-4-1.777-4-4c0-.203.031-.395.059-.59.023-.086.035-.18.035-.27A3.987 3.987 0 0 1 63 49zm-46 2a1.999 1.999 0 1 0 0 4 1.999 1.999 0 1 0 0-4zm46 0a1.999 1.999 0 1 0 0 4 1.999 1.999 0 1 0 0-4z"/></svg>