<svg xmlns="http://www.w3.org/2000/svg" viewBox="0 0 48 48"><path d="M46 33c0 .555-.445 1-1 1-.555 0-1-.445-1-1l1-8-1-8c0-.555.445-1 1-1 .555 0 1 .445 1 1l-1 8z" fill="#455a64"/><path d="M35 19v-6m-12 6v-6" fill="none" stroke-width="2" stroke-linecap="square" stroke="#455a64"/><path d="M35 36a3 3 0 1 1-6.002-.002A3 3 0 0 1 35 36z" fill="#455a64"/><path d="M33 36c0 .55-.45 1-1 1s-1-.45-1-1 .45-1 1-1 1 .45 1 1z" fill="#b0bec5"/><path d="M36.5 18h-2.309c-.086 0-.175.008-.261.012.023.09.062.175.066.27.063 1.378-2.129 2.597-4.887 2.718-2.703.117-4.933-.86-5.086-2.191C15.188 19.824 4 21.773 4 24.5 4 28.645 29.855 31 34 31h2.5c1.266 0 2.453.012 3.5-.09V18.09c-1.047-.102-2.234-.09-3.5-.09z" fill="#ffc107"/><path d="M41.5 24.5A1.5 1.5 0 0 0 43 26h1.5a1.5 1.5 0 0 0 0-3H43a1.5 1.5 0 0 0-1.5 1.5z" fill="#607d8b"/><path d="M27.535 30.563l2.043 3.68a2.988 2.988 0 0 1 2.203-1.22l-.238-2.132c-1.113-.07-2.48-.18-4.008-.328z" fill="#78909c"/><path d="M44 27v-5c0-2.879-1.621-3.688-4-3.91v12.82c2.379-.223 4-1.031 4-3.91zM37.5 9C29 9 19 12 19 12a1 1 0 0 0-1 1c0 .484.352.867.805.96.058.024.125.04.195.04l18.5-1a1.5 1.5 0 0 0 1.5-1.5v-1C39 9 37.5 9 37.5 9zM10.695 21.012C9.898 19.09 7.985 15 6.082 15H2l2 9.5c0-1.363 2.797-2.531 6.695-3.488zm23.239-3c.027.09.062.175.062.27.063 1.378-2.129 2.597-4.887 2.718a8.4 8.4 0 0 1-.437.012c-.102 0-.195-.012-.293-.016-.149-.004-.293-.012-.438-.02-.171-.015-.336-.035-.5-.054-.128-.02-.261-.035-.386-.059a6.062 6.062 0 0 1-.492-.11c-.106-.023-.208-.05-.31-.077a7.219 7.219 0 0 1-.491-.176c-.07-.027-.145-.05-.207-.082a4.256 4.256 0 0 1-.48-.254c-.04-.023-.079-.043-.114-.066-.16-.106-.3-.223-.426-.34-.012-.016-.027-.028-.039-.04a1.902 1.902 0 0 1-.32-.425v-.004a1.28 1.28 0 0 1-.153-.48c-.656.074-1.32.156-1.992.242.27 2.34 2.946 3.96 6.64 3.96.173 0 .349-.003.524-.015 1.64-.07 3.2-.473 4.39-1.137 1.599-.886 2.477-2.222 2.411-3.668-.004-.062-.016-.125-.02-.191h-1.785c-.082 0-.171.008-.257.012z" fill="#ff9800"/></svg>