<svg xmlns="http://www.w3.org/2000/svg" viewBox="0 0 50 50"><path d="M38.375 8.969c-.188 0-.371 0-.625.031-.36.055-8.96 1.39-18.75 1.813-1.121 0-3-.02-3 2.28 0 1.552 2.324 2.77 6 3.407v3.594l-8.531.812-2.344.25-2.688-4.5c-.761-1.136-2.144-1.843-3.624-1.843H1c-.313 0-.625.124-.813.374a1 1 0 0 0-.156.876l2.906 10.125C3.716 28.828 13.02 34 31 34c.223 0 .438-.027.656-.031l2.125 2.375C33.31 36.94 33 37.68 33 38.5c0 1.93 1.57 3.5 3.5 3.5s3.5-1.57 3.5-3.5-1.57-3.5-3.5-3.5c-.379 0-.75.074-1.094.188l-1.187-1.344c4.605-.38 8.273-1.528 10.906-3l.75-5.844-.594-4.813c-.207-.097-.441-.19-.656-.28-.203-.09-.414-.169-.625-.25-.031-.012-.059-.02-.094-.032-1.324-.516-2.687-.945-3.906-1.219a19.427 19.427 0 0 0-2-.343V15.78c1.824-.773 3-2.039 3-4.094 0-2.464-1.84-2.718-2.625-2.718zM36 16.406v2.344c-1.086 2.18-3.004 3.438-9.188 3.438-1.808 0-2.605-1.086-2.812-1.438v-3.969c1.27.13 2.613.219 4.094.219 2.758 0 5.597-.082 7.906-.594zM48.5 17c-.8 0-1.5.398-1.5 1l.125 1 .781 6-.562 4.344-.313 2.281L47 32c0 .602.7 1 1.5 1s1.5-.398 1.5-1l-.594-5.063c.375-.675.594-1.32.594-1.937 0-.621-.215-1.227-.594-1.781L50 18c0-.602-.7-1-1.5-1zm-12 20a1.5 1.5 0 1 1 0 3 1.5 1.5 0 0 1 0-3z"/></svg>