<svg xmlns="http://www.w3.org/2000/svg" viewBox="0 0 48 48"><path d="M13 32c0-.555-.445-1-1-1H9c-.555 0-1 .445-1 1v6c0 .555.445 1 1 1h3c.555 0 1-.445 1-1zm19 0c0-.555-.445-1-1-1h-3c-.555 0-1 .445-1 1v6c0 .555.445 1 1 1h3c.555 0 1-.445 1-1z" fill="#455a64"/><path d="M31.5 6h-5.758c-.722-.004-1.472 0-2.242 0h-7c-.77 0-1.52-.004-2.242 0H8.5A2.497 2.497 0 0 0 6 8.5V34s0 2 2 2h24c2 0 2-2 2-2V8.5C34 7.117 32.883 6 31.5 6z" fill="#ffc107"/><path d="M8 23.5A1.5 1.5 0 0 1 6.5 25h-1A1.5 1.5 0 0 1 4 23.5v-3A1.5 1.5 0 0 1 5.5 19h1A1.5 1.5 0 0 1 8 20.5zm28 0a1.5 1.5 0 0 1-1.5 1.5h-1a1.5 1.5 0 0 1-1.5-1.5v-3a1.5 1.5 0 0 1 1.5-1.5h1a1.5 1.5 0 0 1 1.5 1.5z" fill="#ffc107"/><path d="M13 31a1.999 1.999 0 1 1-4 0 1.999 1.999 0 1 1 4 0zm18 0a1.999 1.999 0 1 1-4 0 1.999 1.999 0 1 1 4 0z" fill="#fff8e1"/><path d="M30.5 8h-21A1.5 1.5 0 0 0 8 9.5v11c0 1.383 1.117 2.5 2.5 2.5h19c1.383 0 2.5-1.117 2.5-2.5v-11A1.5 1.5 0 0 0 30.5 8z" fill="#9fa8da"/><path d="M32 14H8V9.5A1.5 1.5 0 0 1 9.5 8h21A1.5 1.5 0 0 1 32 9.5z" fill="#263238"/><path d="M10 10h7v2h-7zm9 0h4v2h-4z" fill="#64dd17"/><path d="M18 23h-7v-5.5a1.5 1.5 0 0 1 1.5-1.5h4a1.5 1.5 0 0 1 1.5 1.5zm11 0h-7v-5.5a1.5 1.5 0 0 1 1.5-1.5h4a1.5 1.5 0 0 1 1.5 1.5z" fill="#7986cb"/><path d="M36 25h-8c-2.563 0-4 6.344-4 8h16c0-1.656-1-8-4-8z" fill="#c5cae9"/><path d="M25 41c0 .555-.445 1-1 1h-1c-.555 0-1-.445-1-1v-3c0-.555.445-1 1-1h1c.555 0 1 .445 1 1zm17 0c0 .555-.445 1-1 1h-1c-.555 0-1-.445-1-1v-3c0-.555.445-1 1-1h1c.555 0 1 .445 1 1z" fill="#455a64"/><path d="M25.5 21c1.379 0 2.5.898 2.5 2h1.5c.168 0 .336-.02.492-.05C29.965 20.77 27.961 19 25.5 19c-2.48 0-4.5 1.793-4.5 4h2c0-1.102 1.121-2 2.5-2z" fill="#3949ab"/><path d="M42 33c0-.555-.445-1-1-1H23c-.555 0-1 .445-1 1v6c0 .555.445 1 1 1h18c.555 0 1-.445 1-1z" fill="#ab47bc"/><path d="M44 33c0 .555-.445 1-1 1H21c-.555 0-1-.445-1-1v-1c0-.555.445-1 1-1h22c.555 0 1 .445 1 1z" fill="#ab47bc"/><path d="M28 26h8c1.836 0 3 4.922 3 7h2c0-1.398-.922-9-5-9h-8c-3.637 0-5 7.473-5 9h2c0-1.8 1.523-7 3-7z" fill="#ab47bc"/><path d="M41 37.402a.596.596 0 0 1-.59.598H23.59a.596.596 0 0 1-.59-.598v-1.8c0-.332.266-.602.59-.602h16.82c.324 0 .59.27.59.602z" fill="#212121"/><path d="M25.715 36.57zM40 36.5a.855.855 0 0 1-.855.855.856.856 0 0 1-.86-.855.859.859 0 0 1 1.715 0z" fill="#ffeb3b"/></svg>