<svg xmlns="http://www.w3.org/2000/svg" viewBox="0 0 32 32"><path d="M9 4C6.8 4 5 5.8 5 8v3H3v3h2v11c0 .55.45 1 1 1h3l.344-1H13v-2H7v-6h8.063l1.218-2H16v-5h7v4h4v-3h-2V8c0-2.2-1.8-4-4-4zm0 2h12c1.117 0 2 .883 2 2H7c0-1.117.883-2 2-2zm-2 4h7v5H7zm10.906 5a.997.997 0 0 0-.75.5l-3 5A1.031 1.031 0 0 0 14 21v6c0 .55.45 1 1 1h3l.344-1h6.312L25 28h3c.55 0 1-.45 1-1v-.844c.004-.05.004-.105 0-.156v-5a1.031 1.031 0 0 0-.156-.5l-3-5A1.008 1.008 0 0 0 25 15h-7.094zm.625 2h5.938l1.187 2h-8.312zM8 19v2h4v-2zm8.156 2h10.688l.156.25V25H16v-3.75zM18 22c-.55 0-1 .45-1 1s.45 1 1 1 1-.45 1-1-.45-1-1-1zm7 0c-.55 0-1 .45-1 1s.45 1 1 1 1-.45 1-1-.45-1-1-1z"/></svg>