<svg xmlns="http://www.w3.org/2000/svg" viewBox="0 0 80 80"><path d="M16 9c-3.855 0-7 3.145-7 7v10H7c-1.645 0-3 1.355-3 3v6c0 1.645 1.355 3 3 3h2v25c0 1.258.895 2.14 2 2.582V68c0 1.094.906 2 2 2h8c1.094 0 2-.906 2-2v-2h7v-2h-9v4h-8v-4h-1c-.566 0-1-.434-1-1V45h25v-2c0-.55-.45-1-1-1s-1 .45-1 1H11v-7H7c-.566 0-1-.434-1-1v-6c0-.566.434-1 1-1h4v-9h23c0 .55.45 1 1 1s1-.45 1-1h23v9h4c.566 0 1 .434 1 1v6c0 .566-.434 1-1 1h-4v2h4c1.645 0 3-1.355 3-3v-6c0-1.645-1.355-3-3-3h-2V16c0-3.855-3.145-7-7-7zm0 2h38c2.773 0 5 2.227 5 5v1H11v-1c0-2.773 2.227-5 5-5zm7 2c-.55 0-1 .45-1 1s.45 1 1 1 1-.45 1-1-.45-1-1-1zm4 0c-.55 0-1 .45-1 1s.45 1 1 1 1-.45 1-1-.45-1-1-1zm4 0c-.55 0-1 .45-1 1s.45 1 1 1 1-.45 1-1-.45-1-1-1zm4 0c-.55 0-1 .45-1 1s.45 1 1 1 1-.45 1-1-.45-1-1-1zm4 0c-.55 0-1 .45-1 1s.45 1 1 1 1-.45 1-1-.45-1-1-1zm4 0c-.55 0-1 .45-1 1s.45 1 1 1 1-.45 1-1-.45-1-1-1zm4 0c-.55 0-1 .45-1 1s.45 1 1 1 1-.45 1-1-.45-1-1-1zm-12 9c-.55 0-1 .45-1 1s.45 1 1 1 1-.45 1-1-.45-1-1-1zm0 4c-.55 0-1 .45-1 1s.45 1 1 1 1-.45 1-1-.45-1-1-1zm-25 3c-.55 0-1 .45-1 1s.45 1 1 1 1-.45 1-1-.45-1-1-1zm50 0c-.55 0-1 .45-1 1s.45 1 1 1 1-.45 1-1-.45-1-1-1zm-25 1c-.55 0-1 .45-1 1s.45 1 1 1 1-.45 1-1-.45-1-1-1zm-25 3c-.55 0-1 .45-1 1s.45 1 1 1 1-.45 1-1-.45-1-1-1zm50 0c-.55 0-1 .45-1 1s.45 1 1 1 1-.45 1-1-.45-1-1-1zm-25 1c-.55 0-1 .45-1 1s.45 1 1 1 1-.45 1-1-.45-1-1-1zm0 4c-.55 0-1 .45-1 1s.45 1 1 1 1-.45 1-1-.45-1-1-1zm7.059 2a4.002 4.002 0 0 0-3.73 2.559l-3.224 8.328-2.308 3.582A5.004 5.004 0 0 0 32 57.176V71c0 1.094.906 2 2 2h3c1.094 0 2-.906 2-2v-1h26v1c0 1.094.906 2 2 2h3c1.094 0 2-.906 2-2V57.176c0-.961-.277-1.899-.797-2.707l-2.308-3.582-3.223-8.328A4.002 4.002 0 0 0 61.942 40zm0 2H61.94c.832 0 1.567.504 1.868 1.277l3.296 8.52.27.422a1.002 1.002 0 0 0 1.078 1.672l1.067 1.66c.312.488.48 1.05.48 1.625V64c-.55 0-1 .45-1 1s.45 1 1 1v5h-3v-3H37v3h-3v-5c.55 0 1-.45 1-1s-.45-1-1-1v-6.824c0-.574.164-1.137.48-1.625l1.067-1.66a1.002 1.002 0 0 0 1.078-1.672l.27-.422 3.296-8.516A1.992 1.992 0 0 1 42.06 42zM18 51c-2.2 0-4 1.8-4 4v1h.203c.457 1.707 1.953 3 3.797 3h2c1.844 0 3.34-1.293 3.797-3H24v-1c0-2.2-1.8-4-4-4zm9 0c-.55 0-1 .45-1 1s.45 1 1 1 1-.45 1-1-.45-1-1-1zm13 1c-.55 0-1 .45-1 1s.45 1 1 1 1-.45 1-1-.45-1-1-1zm4 0c-.55 0-1 .45-1 1s.45 1 1 1 1-.45 1-1-.45-1-1-1zm4 0c-.55 0-1 .45-1 1s.45 1 1 1 1-.45 1-1-.45-1-1-1zm4 0c-.55 0-1 .45-1 1s.45 1 1 1 1-.45 1-1-.45-1-1-1zm4 0c-.55 0-1 .45-1 1s.45 1 1 1 1-.45 1-1-.45-1-1-1zm4 0c-.55 0-1 .45-1 1s.45 1 1 1 1-.45 1-1-.45-1-1-1zm4 0c-.55 0-1 .45-1 1s.45 1 1 1 1-.45 1-1-.45-1-1-1zm-46 1h2c1.117 0 2 .883 2 2s-.883 2-2 2h-2c-1.117 0-2-.883-2-2s.883-2 2-2zm11 1c-.55 0-1 .45-1 1s.45 1 1 1 1-.45 1-1-.45-1-1-1zm10 2c-1.645 0-3 1.355-3 3s1.355 3 3 3 3-1.355 3-3-1.355-3-3-3zm26 0c-1.645 0-3 1.355-3 3s1.355 3 3 3 3-1.355 3-3-1.355-3-3-3zm-38 1c-.55 0-1 .45-1 1s.45 1 1 1 1-.45 1-1-.45-1-1-1zm12 1c.563 0 1 .438 1 1 0 .563-.438 1-1 1-.563 0-1-.438-1-1 0-.563.438-1 1-1zm5 0v2h16v-2zm21 0c.563 0 1 .438 1 1 0 .563-.438 1-1 1-.563 0-1-.438-1-1 0-.563.438-1 1-1zm-50 6c-.55 0-1 .45-1 1s.45 1 1 1 1-.45 1-1-.45-1-1-1zm4 0c-.55 0-1 .45-1 1s.45 1 1 1 1-.45 1-1-.45-1-1-1zm19 0c-.55 0-1 .45-1 1s.45 1 1 1 1-.45 1-1-.45-1-1-1zm4 0c-.55 0-1 .45-1 1s.45 1 1 1 1-.45 1-1-.45-1-1-1zm4 0c-.55 0-1 .45-1 1s.45 1 1 1 1-.45 1-1-.45-1-1-1zm4 0c-.55 0-1 .45-1 1s.45 1 1 1 1-.45 1-1-.45-1-1-1zm4 0c-.55 0-1 .45-1 1s.45 1 1 1 1-.45 1-1-.45-1-1-1zm4 0c-.55 0-1 .45-1 1s.45 1 1 1 1-.45 1-1-.45-1-1-1zm4 0c-.55 0-1 .45-1 1s.45 1 1 1 1-.45 1-1-.45-1-1-1zm4 0c-.55 0-1 .45-1 1s.45 1 1 1 1-.45 1-1-.45-1-1-1z"/></svg>