<?xml version="1.0" encoding="utf-8"?>
<!-- Generator: Adobe Illustrator 22.0.1, SVG Export Plug-In . SVG Version: 6.00 Build 0)  -->
<svg version="1.1" xmlns="http://www.w3.org/2000/svg" xmlns:xlink="http://www.w3.org/1999/xlink" x="0px" y="0px"
	 viewBox="0 0 96.671 212.596" enable-background="new 0 0 96.671 212.596" xml:space="preserve">
<g id="BACKGROUND">
</g>
<g id="OBJECTS">
	<g id="XMLID_350_">
		<g id="XMLID_404_">
			<g>
				<path fill="#EC4647" d="M5.398,50.814l6.295,27.615c0.005,0.021,0.01,0.044,0.015,0.065l0.555,2.396
					c-3.554,3.832-3.53,7.406-3.104,9.388c0.007,0.036,0.015,0.072,0.023,0.107l5.527,24.244c-4.566,4.46-4.916,8.584-4.295,11.401
					c0.005,0.025,0.01,0.049,0.016,0.074l17.419,76.41c0.859,3.765,4.68,10.081,20.622,10.081c5.139,0,10.805-0.672,16.386-1.944
					c0.001,0,0.001,0,0.001,0c8.022-1.829,15.385-4.72,20.731-8.141c9.064-5.799,9.948-11.484,9.094-15.233l-17.284-75.815
					c0.032-0.559-0.013-1.118-0.136-1.657c-0.651-2.859-2.786-6.535-9.094-8.58l-5.265-23.091c-0.422-1.848-1.8-4.981-6.268-6.96
					l-8.243-36.163c-1.295-5.679-6.41-24.479-17.869-27.969c-3.428-1.044-8.726-1.148-14.53,4.253
					C14.176,12.874,1.686,24.763,5.308,50.327C5.331,50.486,5.36,50.646,5.398,50.814z"/>
			</g>
		</g>
		<g id="XMLID_403_">
			<g>
				<path fill="#FFFFFF" d="M5.416,46.814l6.295,27.615c0.005,0.021,0.01,0.044,0.015,0.065l0.555,2.396
					c-3.554,3.832-3.53,7.406-3.104,9.388c0.007,0.036,0.015,0.072,0.023,0.107l5.527,24.244c-4.566,4.46-4.915,8.584-4.295,11.401
					c0.005,0.025,0.01,0.049,0.016,0.074l17.419,76.41c0.859,3.765,4.68,10.081,20.622,10.081c5.139,0,10.805-0.672,16.386-1.944
					h0.001c8.022-1.829,15.385-4.72,20.731-8.141c9.065-5.799,9.948-11.484,9.094-15.233l-17.284-75.815
					c0.032-0.559-0.013-1.118-0.136-1.657c-0.651-2.859-2.786-6.535-9.094-8.58l-5.265-23.091c-0.422-1.848-1.8-4.981-6.268-6.96
					L48.41,31.012C47.115,25.333,42,6.533,30.541,3.043c-3.428-1.044-8.726-1.148-14.53,4.253
					C14.194,8.874,1.704,20.763,5.326,46.327C5.349,46.486,5.378,46.646,5.416,46.814z"/>
			</g>
		</g>
		<g id="XMLID_402_">
			<g>
				<path fill="#232323" d="M71.43,108.202l17.419,76.41c1.248,5.471-10.083,12.719-25.308,16.19
					c-15.225,3.471-28.577,1.849-29.825-3.622l-17.419-76.409c0,0-2.669-8.567,25.25-16.043
					C41.547,104.728,66.628,99.216,71.43,108.202z"/>
			</g>
		</g>
		<g id="XMLID_401_">
			<g>
				<path fill="#EC4647" d="M17.561,73.095L11.266,45.48C7.9,21.721,20.01,11.771,20.01,11.771
					C34.714-2.081,42.56,32.346,42.56,32.346l7.762,34.05l1.452,6.37c0.799,3.503-5.965,8.033-15.105,10.116
					c-9.141,2.084-16.664,0.812-17.463-2.692L17.561,73.095z"/>
			</g>
		</g>
		<g id="XMLID_398_">
			<g>
				<path fill="#F9AF80" d="M52.173,71.757l-0.597,0.142l0.197,0.867c0.799,3.503-5.965,8.033-15.105,10.116
					c-9.141,2.084-16.664,0.812-17.463-2.692l-0.123-0.535l-1.5,0.356c-3.006,1.427-2.532,5.039-2.532,5.039l7.222,31.679
					c0.951,4.171,11.128,5.406,22.732,2.762c11.605-2.647,20.242-8.172,19.291-12.341l-7.223-31.679
					C57.072,75.472,58.135,73.545,52.173,71.757z"/>
			</g>
		</g>
		<g id="XMLID_392_">
			<g>
				<path fill="#FFFFFF" d="M33.114,134.05l9.524,46.522c0.222,1.083-0.476,2.14-1.559,2.362c-1.052,0.215-2.081-0.442-2.342-1.472
					l-11.581-46.053c-0.412-1.637,0.582-3.297,2.218-3.709s3.297,0.582,3.709,2.218C33.094,133.958,33.106,134.01,33.114,134.05z"/>
			</g>
		</g>
		<g id="XMLID_362_">
			<g>
				<path fill="#FFFFFF" d="M36.483,33.306l5.11,25.667c0.252,1.265-0.569,2.494-1.834,2.745c-1.22,0.243-2.408-0.519-2.717-1.708
					l-6.518-25.346c-0.42-1.635,0.564-3.301,2.199-3.721c1.635-0.42,3.301,0.564,3.721,2.199
					C36.459,33.193,36.472,33.254,36.483,33.306z"/>
			</g>
		</g>
		<g id="XMLID_361_">
			<g>
				<path fill="#FFFFFF" d="M44.279,67.897c0.364,1.598-0.637,3.188-2.235,3.553c-1.598,0.365-3.188-0.635-3.554-2.233
					c-0.363-1.599,0.637-3.189,2.235-3.553C42.323,65.298,43.915,66.298,44.279,67.897z"/>
			</g>
		</g>
		<g id="XMLID_360_">
			<g>
				<path fill="#3D3D3D" d="M31.04,127.221c-1.833,0-3.574-0.097-5.193-0.294c-6.084-0.739-9.821-2.846-10.524-5.934
					c-0.622-2.729,1.161-5.738,5.157-8.702c0.445-0.328,1.07-0.236,1.399,0.207c0.329,0.443,0.236,1.07-0.208,1.399
					c-3.263,2.42-4.825,4.782-4.398,6.651c0.495,2.172,3.707,3.773,8.815,4.393c5.524,0.67,12.557,0.129,19.811-1.525
					c15.906-3.627,25.539-10.68,24.556-14.993c-0.39-1.71-2.507-3.094-5.963-3.9c-0.538-0.125-0.872-0.663-0.747-1.201
					c0.126-0.538,0.665-0.872,1.201-0.747c4.303,1.003,6.882,2.872,7.459,5.404c1.39,6.101-10.058,13.739-26.061,17.388
					C40.977,126.59,35.71,127.221,31.04,127.221z"/>
			</g>
		</g>
		<g id="XMLID_359_">
			<g>
				<path fill="#3D3D3D" d="M48.566,203.622c-8.7,0-14.91-2.205-15.826-6.219l-17.418-76.41c-0.123-0.538,0.214-1.074,0.753-1.197
					c0.536-0.124,1.074,0.214,1.197,0.753l17.418,76.409c0.983,4.313,12.722,6.496,28.628,2.869
					c7.254-1.653,13.829-4.215,18.515-7.212c4.334-2.773,6.536-5.609,6.04-7.781l-17.419-76.41
					c-0.123-0.539,0.214-1.074,0.753-1.197c0.537-0.121,1.075,0.214,1.197,0.753l17.419,76.41c0.704,3.088-1.751,6.607-6.913,9.91
					c-4.874,3.118-11.675,5.774-19.148,7.477C58.289,203.025,53.09,203.622,48.566,203.622z"/>
			</g>
		</g>
		<g id="XMLID_358_">
			<g>
				<path fill="#3D3D3D" d="M16.295,122.772c-0.912,0-1.736-0.629-1.948-1.556c-0.501-2.193,0.054-5.662,5.536-9.728
					c0.887-0.658,2.14-0.473,2.798,0.415c0.658,0.887,0.472,2.14-0.415,2.798c-2.84,2.106-4.342,4.209-4.019,5.625
					c0.246,1.077-0.428,2.149-1.505,2.395C16.592,122.755,16.443,122.772,16.295,122.772z"/>
			</g>
		</g>
		<g id="XMLID_357_">
			<g>
				<path fill="#3D3D3D" d="M48.488,204.596c-8.623,0-15.602-2.059-16.722-6.971l-17.419-76.41
					c-0.245-1.077,0.429-2.149,1.506-2.395c1.074-0.244,2.149,0.428,2.395,1.506l17.418,76.409
					c0.757,3.322,11.561,5.736,27.43,2.116c7.145-1.628,13.608-4.143,18.198-7.08c4.592-2.937,5.906-5.395,5.605-6.715
					l-17.42-76.411c-0.245-1.077,0.429-2.149,1.506-2.395c1.075-0.245,2.149,0.428,2.395,1.506l17.419,76.41
					c0.569,2.497-0.244,6.429-7.349,10.974c-4.969,3.179-11.882,5.881-19.465,7.61C58.805,203.933,53.382,204.596,48.488,204.596z"
					/>
			</g>
		</g>
		<g id="XMLID_356_">
			<g>
				<path fill="#3D3D3D" d="M28.31,85.912c-6.067,0-10.277-1.87-11.055-5.276l-1.642-7.089c0-0.002-0.001-0.004-0.002-0.007
					L9.316,45.924c-0.012-0.054-0.022-0.109-0.03-0.164c-3.399-23.992,8.331-34.581,9.395-35.486
					c3.561-3.337,7.157-4.482,10.694-3.405c9.848,2.999,14.622,22.785,15.134,25.032l9.214,40.42
					c0.338,1.482,0.181,4.453-4.663,7.697c-3.052,2.044-7.295,3.753-11.949,4.814C33.916,85.561,30.939,85.912,28.31,85.912z
					 M19.51,72.647l1.642,7.092c0.351,1.539,5.834,3.299,15.071,1.193c4.188-0.955,7.957-2.46,10.611-4.237
					c2.596-1.738,3.09-3.039,2.988-3.484L40.609,32.79c-1.251-5.477-5.919-20.123-12.4-22.094c-2.106-0.641-4.339,0.187-6.827,2.53
					c-0.033,0.031-0.067,0.061-0.102,0.09c-0.451,0.377-11.157,9.629-8.045,31.802L19.51,72.647z"/>
			</g>
		</g>
		<g id="XMLID_355_">
			<g>
				<path fill="#3D3D3D" d="M16.298,42.62c-0.638,0-1.237-0.135-1.781-0.405c-0.581-0.229-3.745-1.702-4.051-6.792
					c-0.033-0.551,0.387-1.025,0.938-1.058c0.535-0.045,1.025,0.386,1.058,0.938c0.246,4.081,2.685,5.013,2.788,5.051
					c0.04,0.015,0.092,0.036,0.13,0.056c0.568,0.294,1.287,0.283,2.137-0.034c3.417-1.27,7.9-6.973,10.43-13.266
					c2.348-5.843,2.864-11.498,1.313-14.409c-0.553-1.037-1.321-1.648-2.35-1.867c-0.541-0.115-0.885-0.646-0.77-1.186
					c0.115-0.54,0.65-0.884,1.186-0.77c1.597,0.34,2.875,1.336,3.699,2.882c1.844,3.462,1.375,9.629-1.223,16.095
					c-2.806,6.983-7.572,12.901-11.588,14.395C17.551,42.497,16.907,42.62,16.298,42.62z"/>
			</g>
		</g>
		<g id="XMLID_354_">
			<g>
				<path fill="#3D3D3D" d="M26.308,90.247c-7.271,0-11.585-2.133-12.233-4.973c-0.346-1.518,0.07-3.942,4.02-6.876
					c0.443-0.33,1.069-0.237,1.399,0.207c0.33,0.443,0.237,1.07-0.207,1.399c-2.372,1.761-3.561,3.52-3.263,4.826
					c0.709,3.111,9.728,4.7,21.535,2.008c5.503-1.255,10.488-3.196,14.037-5.466c3.167-2.026,4.849-4.147,4.501-5.676
					c-0.275-1.209-1.826-2.201-4.367-2.796c-0.538-0.126-0.872-0.664-0.746-1.202c0.126-0.538,0.666-0.873,1.202-0.746
					c4.263,0.998,5.54,2.888,5.861,4.299c0.561,2.458-1.348,5.23-5.373,7.805c-3.738,2.392-8.948,4.427-14.67,5.732
					C33.538,89.805,29.617,90.247,26.308,90.247z"/>
			</g>
		</g>
		<g id="XMLID_353_">
			<g>
				<path fill="#3D3D3D" d="M33.532,121.926c-7.272,0-11.588-2.133-12.235-4.974l-7.222-31.679
					c-0.123-0.539,0.214-1.074,0.753-1.197c0.538-0.121,1.074,0.214,1.197,0.753l7.222,31.679c0.708,3.11,9.727,4.701,21.535,2.009
					c5.503-1.255,10.488-3.197,14.037-5.467c3.167-2.026,4.849-4.148,4.5-5.676l-7.223-31.68c-0.123-0.539,0.214-1.074,0.753-1.197
					c0.538-0.123,1.074,0.214,1.197,0.753l7.223,31.679c0.561,2.458-1.347,5.23-5.373,7.806c-3.738,2.391-8.948,4.427-14.67,5.732
					C40.761,121.484,36.84,121.926,33.532,121.926z"/>
			</g>
		</g>
		<g id="XMLID_352_">
			<g>
				<path fill="#3D3D3D" d="M15.048,87.052c-0.912,0-1.736-0.628-1.948-1.556c-0.413-1.808,0.016-4.646,4.399-7.901
					c0.886-0.659,2.14-0.474,2.798,0.413c0.659,0.887,0.474,2.14-0.413,2.798c-2.368,1.758-3.033,3.146-2.884,3.801
					c0.246,1.077-0.428,2.149-1.505,2.395C15.345,87.035,15.195,87.052,15.048,87.052z"/>
			</g>
		</g>
		<g id="XMLID_351_">
			<g>
				<path fill="#3D3D3D" d="M33.461,122.883c-6.797,0.001-12.224-1.691-13.14-5.708L13.1,85.496
					c-0.245-1.077,0.429-2.149,1.506-2.395c1.072-0.244,2.149,0.428,2.394,1.506l7.222,31.679c0.434,1.9,8.006,4.066,20.338,1.256
					c5.393-1.23,10.266-3.125,13.72-5.334c3.084-1.974,4.264-3.738,4.065-4.612l-7.223-31.68c-0.245-1.077,0.429-2.149,1.505-2.395
					c1.077-0.244,2.149,0.428,2.395,1.506l7.223,31.679c0.468,2.051-0.16,5.256-5.809,8.87c-3.833,2.452-9.155,4.535-14.987,5.865
					C41.389,122.367,37.215,122.883,33.461,122.883z"/>
			</g>
		</g>
	</g>
</g>
<g id="DESIGNED_BY_FREEPIK">
</g>
</svg>
