<svg xmlns="http://www.w3.org/2000/svg" viewBox="0 0 26 26"><path d="M13 0c-1.367 0-2.484.297-3.188 1.094-.503.57-.68 1.254-.75 2h-5.78c-.653 0-.708.156-.813.469-.192.554-.348 1.5-.375 2.53-.028 1.044-.02 3.087 4.156 4.126.285-.715.969-1.375 1.75-1.375.96 0 1.762.922 1.875 1.906.93.07 1.96.094 3.125.094a41.96 41.96 0 0 0 3.125-.094c.113-.984.914-1.906 1.875-1.906.777 0 1.434.664 1.719 1.375 4.152-1.04 4.183-3.086 4.156-4.125-.027-1.032-.184-1.977-.375-2.532-.105-.312-.164-.468-.813-.468h-5.75c-.07-.746-.246-1.43-.75-2C15.485.297 14.367 0 13 0zm0 2c1.098 0 1.508.203 1.688.406.105.117.195.348.25.688h-3.876c.055-.34.145-.57.25-.688.18-.203.59-.406 1.688-.406zm8.969 9.031c-.63.32-1.375.578-2.25.781-.301.684-.957 1.407-1.719 1.407-.57 0-1.063-.516-1.406-.938a42.178 42.178 0 0 1-3.594.156c-1.305 0-2.5-.046-3.594-.124-.344.406-.847.906-1.406.906-.73 0-1.344-.672-1.656-1.313-.883-.195-1.672-.449-2.313-.781-.008.324 0 10.531 0 10.531s-.539-9.562-1.25-9.562c-1.219 0-1.578.46-1.937.844-.844.898-.696 2.214-.688 2.687.012.844.246 2.793.844 4.719.934 3.011 2.688 5.562 11.969 5.562 9.816 0 11.492-3.504 11.906-4.656.531-1.48.96-3.7 1-5.719.02-1.172-.164-2.004-.656-2.719-.305-.44-.516-.718-1.469-.718-.734 0-1.781 9.562-1.781 9.562s.011-10.304 0-10.625z"/></svg>