<?xml version="1.0" encoding="utf-8"?>
<!-- Generator: Adobe Illustrator 22.0.1, SVG Export Plug-In . SVG Version: 6.00 Build 0)  -->
<svg version="1.1" xmlns="http://www.w3.org/2000/svg" xmlns:xlink="http://www.w3.org/1999/xlink" x="0px" y="0px"
	 viewBox="0 0 99.377 172.722" enable-background="new 0 0 99.377 172.722" xml:space="preserve">
<g id="BACKGROUND">
</g>
<g id="OBJECTS">
	<g id="XMLID_312_">
		<g id="XMLID_329_">
			<g>
				<path fill="#EC4647" d="M2.26,105.442c-4.238,16.901,0.884,34.444,13.39,46.426l-0.773,3.084
					c-0.727,2.899-0.081,7.189,7.134,11.164c3.457,1.905,8.146,3.653,13.203,4.92c1.261,0.316,7.84,1.892,13.628,1.892
					c8.487,0,11.153-3.52,11.895-6.475l0.719-2.87c16.667-4.54,29.915-17.919,34.133-34.735c3.654-14.568,0.263-30.007-9.071-41.702
					l10.43-63.097c0.601-2.891-0.129-7.132-6.808-11.166c-3.435-2.075-8.115-3.916-13.179-5.186
					C71.89,6.425,66.896,5.842,62.896,6.05c-7.79,0.405-10.436,3.799-11.271,6.629L31.332,72.391
					C17.045,78.051,5.996,90.55,2.26,105.442z"/>
			</g>
		</g>
		<g id="XMLID_328_">
			<g>
				<path fill="#FFFFFF" d="M2.278,101.442c-4.238,16.901,0.884,34.444,13.39,46.426l-0.772,3.084
					c-0.728,2.899-0.081,7.189,7.134,11.164c3.457,1.905,8.146,3.653,13.203,4.92c1.261,0.316,7.84,1.892,13.628,1.892
					c8.487,0,11.153-3.52,11.896-6.475l0.719-2.87c16.667-4.54,29.915-17.919,34.133-34.735c3.654-14.568,0.263-30.007-9.071-41.702
					l10.43-63.097c0.601-2.891-0.129-7.132-6.808-11.166c-3.435-2.075-8.115-3.916-13.179-5.186
					C71.908,2.425,66.914,1.842,62.914,2.05c-7.79,0.405-10.436,3.799-11.271,6.629L31.35,68.391
					C17.063,74.051,6.014,86.55,2.278,101.442z"/>
			</g>
		</g>
		<g id="XMLID_327_">
			<g>
				<path fill="#F074AB" d="M79.474,84.136c9.583,10.104,13.953,24.744,10.314,39.252c-5.658,22.558-28.531,36.258-51.088,30.602
					c-22.559-5.658-36.259-28.531-30.603-51.089c3.743-14.922,15.019-25.968,28.753-30.1"/>
			</g>
		</g>
		<g id="XMLID_326_">
			<g>
				<path fill="#232323" d="M57.375,10.459c0.715-2.854,8.839-3.277,18.146-0.942c9.308,2.334,16.271,6.54,15.554,9.394
					L80.397,83.496c-0.765,3.042-13.499,2.473-23.426-0.017c-9.927-2.49-21.424-7.997-20.66-11.041L57.375,10.459z"/>
			</g>
		</g>
		<g id="XMLID_325_">
			<g>
				<path fill="#84CEC4" d="M56.057,156.52l-1.121,4.474c-0.626,2.494-8.793,2.593-18.244,0.223
					c-9.449-2.369-16.603-6.311-15.977-8.804l1.151-4.594"/>
			</g>
		</g>
		<g id="XMLID_322_">
			<g>
				<path fill="#FFFFFF" d="M70.422,87.806c0,0,0.137,0.121,0.394,0.347c0.274,0.248,0.592,0.507,1.162,1.044
					c0.269,0.253,0.567,0.532,0.892,0.837c0.295,0.306,0.614,0.636,0.955,0.989c0.668,0.718,1.385,1.558,2.133,2.497
					c0.742,0.943,1.493,2.004,2.213,3.168c0.718,1.166,1.396,2.438,2.028,3.781c1.257,2.688,2.24,5.715,2.741,8.81l0.189,1.203
					l0.135,1.083c0.073,0.742,0.16,1.603,0.178,2.352c0.078,1.537,0.013,3.053-0.116,4.509c-0.126,1.457-0.374,2.85-0.626,4.162
					c-0.284,1.307-0.607,2.531-0.982,3.635c-0.739,2.212-1.532,3.991-2.164,5.194c-0.304,0.609-0.568,1.073-0.744,1.392
					c-0.177,0.319-0.271,0.489-0.271,0.489c-0.567,1.023-1.856,1.392-2.879,0.825c-1.023-0.567-1.392-1.856-0.825-2.879
					c0.009-0.017,0.019-0.033,0.028-0.049l0.049-0.083c0,0,0.087-0.146,0.25-0.42c0.161-0.275,0.416-0.669,0.681-1.203
					c0.548-1.054,1.311-2.589,1.905-4.546c0.313-0.972,0.576-2.047,0.807-3.192c0.21-1.148,0.394-2.369,0.433-3.642
					c0.055-1.27,0.055-2.585-0.073-3.912c-0.049-0.684-0.137-1.261-0.233-1.96l-0.182-1.076l-0.219-0.944
					c-0.618-2.63-1.641-5.139-2.856-7.322c-0.601-1.097-1.298-2.087-1.977-3.001c-0.69-0.907-1.393-1.721-2.077-2.435
					c-0.681-0.717-1.358-1.32-1.966-1.837c-0.31-0.252-0.6-0.487-0.868-0.705c-0.262-0.192-0.504-0.368-0.721-0.527
					c-0.389-0.304-0.904-0.61-1.162-0.79c-0.286-0.188-0.439-0.288-0.439-0.288c-1.603-1.054-2.048-3.208-0.994-4.811
					c1.054-1.603,3.208-2.048,4.811-0.994C70.165,87.596,70.305,87.705,70.422,87.806z"/>
			</g>
		</g>
		<g id="XMLID_320_">
			<g>
				<path fill="#FFFFFF" d="M68.737,139.371c0.321,1.741,1.994,2.895,3.735,2.575c1.743-0.32,2.899-1.993,2.576-3.735
					c-0.317-1.744-1.993-2.897-3.734-2.578C69.572,135.954,68.418,137.628,68.737,139.371z"/>
			</g>
		</g>
		<g id="XMLID_317_">
			<g>
				<path fill="#FFFFFF" d="M83.051,29.801l-8.136,44.18c-0.2,1.087-1.243,1.806-2.33,1.605c-1.054-0.194-1.761-1.187-1.62-2.238
					l6.053-44.513c0.227-1.672,1.768-2.844,3.44-2.616c1.672,0.228,2.844,1.768,2.616,3.44
					C83.067,29.703,83.058,29.758,83.051,29.801z"/>
			</g>
		</g>
		<g id="XMLID_316_">
			<g>
				<path fill="#3D3D3D" d="M73.011,87.588c-7.364,0.001-16.38-2.132-16.526-2.17c-5.045-1.265-10.565-3.312-14.768-5.474
					c-5.65-2.908-7.984-5.448-7.346-7.993c0.013-0.053,0.028-0.105,0.046-0.157L55.459,9.878c0.449-1.613,2.156-3.547,7.662-3.834
					c3.627-0.189,8.197,0.356,12.885,1.532c4.689,1.176,8.98,2.855,12.084,4.73c4.719,2.85,5.312,5.362,4.945,6.996L82.371,83.822
					c-0.01,0.054-0.021,0.108-0.034,0.161C81.644,86.74,77.655,87.588,73.011,87.588z M38.322,72.737
					c1.002,1.876,9.343,6.346,19.136,8.802c9.793,2.455,19.258,2.452,21.025,1.271L89.1,18.584c0.01-0.054,0.021-0.108,0.034-0.161
					c-0.15-0.95-4.549-4.572-14.101-6.967c-9.551-2.396-15.14-1.278-15.753-0.43c-0.014,0.053,0.005,0.024-0.013,0.076
					L38.322,72.737z"/>
			</g>
		</g>
		<g id="XMLID_315_">
			<g>
				<path fill="#3D3D3D" d="M83.928,22.123c-3.271,0-7.179-0.534-11.182-1.538c-8.856-2.22-17.293-6.577-16.282-10.607
					c0.134-0.537,0.676-0.859,1.213-0.727c0.536,0.135,0.861,0.678,0.727,1.213c-0.429,1.712,5.135,5.75,14.829,8.181
					c4.407,1.106,8.671,1.619,11.997,1.446c3.378-0.175,4.768-1.004,4.933-1.661c0.134-0.537,0.676-0.861,1.213-0.728
					c0.535,0.134,0.861,0.677,0.727,1.213c-0.468,1.87-2.809,2.967-6.768,3.173C84.88,22.112,84.412,22.123,83.928,22.123z"/>
			</g>
		</g>
		<g id="XMLID_314_">
			<g>
				<path fill="#3D3D3D" d="M48.939,157.26c-3.543,0.001-7.137-0.43-10.725-1.329c-23.592-5.917-37.972-29.924-32.056-53.515
					c3.76-14.99,15.3-27.071,30.117-31.529c1.057-0.319,2.173,0.28,2.491,1.339c0.318,1.058-0.281,2.173-1.339,2.491
					c-13.475,4.055-23.97,15.041-27.389,28.672c-5.379,21.452,7.697,43.282,29.149,48.662c21.453,5.381,43.28-7.697,48.662-29.149
					c3.356-13.385-0.316-27.362-9.826-37.389c-0.76-0.802-0.727-2.067,0.075-2.828c0.801-0.758,2.067-0.727,2.827,0.075
					c10.456,11.025,14.495,26.396,10.803,41.115C86.711,143.878,68.685,157.259,48.939,157.26z"/>
			</g>
		</g>
		<g id="XMLID_313_">
			<g>
				<path fill="#3D3D3D" d="M48.861,164.929c-5.336,0-11.529-1.489-12.655-1.771c-4.732-1.187-9.081-2.8-12.245-4.544
					c-4.001-2.205-5.745-4.455-5.185-6.687l1.15-4.593c0.27-1.072,1.358-1.722,2.427-1.454c1.071,0.268,1.723,1.355,1.454,2.426
					l-1.102,4.392c0.627,1.208,5.416,4.309,14.473,6.58c9.06,2.272,14.745,1.797,15.869,1.028l1.069-4.271
					c0.269-1.071,1.358-1.721,2.427-1.454c1.071,0.268,1.722,1.354,1.454,2.426l-1.121,4.474
					C56.21,164.131,52.765,164.929,48.861,164.929z"/>
			</g>
		</g>
	</g>
</g>
<g id="DESIGNED_BY_FREEPIK">
</g>
</svg>
