<svg xmlns="http://www.w3.org/2000/svg" viewBox="0 0 80 80"><path d="M11 12C4.937 12 0 16.938 0 23v36c0 1.645 1.355 3 3 3h6.059c.5 4.488 4.32 8 8.941 8s8.441-3.512 8.941-8H50.06c.5 4.488 4.32 8 8.941 8s8.441-3.512 8.941-8H78c1.094 0 2-.906 2-2v-4c0-.707-.438-1.227-1-1.582V40.496l-6.996-13.762a5.096 5.096 0 0 0-.469-.734H74c1.645 0 3-1.355 3-3v-2c0-4.957-4.043-9-9-9zm0 2h57c3.879 0 7 3.121 7 7v2c0 .566-.434 1-1 1H46v36H26.941c-.5-4.488-4.32-8-8.941-8s-8.441 3.512-8.941 8H3c-.566 0-1-.434-1-1V23c0-4.984 4.016-9 9-9zm36 4c-.55 0-1 .45-1 1s.45 1 1 1 1-.45 1-1-.45-1-1-1zm4 0c-.55 0-1 .45-1 1s.45 1 1 1 1-.45 1-1-.45-1-1-1zm4 0c-.55 0-1 .45-1 1s.45 1 1 1 1-.45 1-1-.45-1-1-1zm4 0c-.55 0-1 .45-1 1s.45 1 1 1 1-.45 1-1-.45-1-1-1zm4 0c-.55 0-1 .45-1 1s.45 1 1 1 1-.45 1-1-.45-1-1-1zm4 0c-.55 0-1 .45-1 1s.45 1 1 1 1-.45 1-1-.45-1-1-1zm-54 4c-2.2 0-4 1.8-4 4v10c0 2.2 1.8 4 4 4h22c2.2 0 4-1.8 4-4V26c0-2.2-1.8-4-4-4zm0 2h22c1.117 0 2 .883 2 2v10c0 1.117-.883 2-2 2H13c-1.117 0-2-.883-2-2V26c0-1.117.883-2 2-2zm35 2h5v9c0 2.2 1.8 4 4 4h1.395a1.99 1.99 0 0 1 1.664.89l.218.329A4.001 4.001 0 0 0 63.605 42H77v2h-2c-2.2 0-4 1.8-4 4v1h.203c.457 1.707 1.953 3 3.797 3h2v2c-.55 0-1 .45-1 1s.45 1 1 1h1v4H67.941c-.5-4.488-4.32-8-8.941-8s-8.441 3.512-8.941 8H48zm7 0h12.547a2.99 2.99 0 0 1 2.672 1.64L76.504 40H63.605a1.99 1.99 0 0 1-1.664-.89l-.222-.329A3.99 3.99 0 0 0 58.395 37H57c-1.117 0-2-.883-2-2zm20 20h2v4h-2c-1.117 0-2-.883-2-2s.883-2 2-2zM4 47c-.55 0-1 .45-1 1s.45 1 1 1 1-.45 1-1-.45-1-1-1zm4 0c-.55 0-1 .45-1 1s.45 1 1 1 1-.45 1-1-.45-1-1-1zm4 0c-.55 0-1 .45-1 1s.45 1 1 1 1-.45 1-1-.45-1-1-1zm4 0c-.55 0-1 .45-1 1s.45 1 1 1 1-.45 1-1-.45-1-1-1zm4 0c-.55 0-1 .45-1 1s.45 1 1 1 1-.45 1-1-.45-1-1-1zm4 0c-.55 0-1 .45-1 1s.45 1 1 1 1-.45 1-1-.45-1-1-1zm4 0c-.55 0-1 .45-1 1s.45 1 1 1 1-.45 1-1-.45-1-1-1zm4 0c-.55 0-1 .45-1 1s.45 1 1 1 1-.45 1-1-.45-1-1-1zm4 0c-.55 0-1 .45-1 1s.45 1 1 1 1-.45 1-1-.45-1-1-1zm4 0c-.55 0-1 .45-1 1s.45 1 1 1 1-.45 1-1-.45-1-1-1zm4 0c-.55 0-1 .45-1 1s.45 1 1 1 1-.45 1-1-.45-1-1-1zm-26 7c3.879 0 7 3.121 7 7s-3.121 7-7 7-7-3.121-7-7 3.121-7 7-7zm41 0c3.879 0 7 3.121 7 7s-3.121 7-7 7-7-3.121-7-7 3.121-7 7-7zm10 0c-.55 0-1 .45-1 1s.45 1 1 1 1-.45 1-1-.45-1-1-1zm4 0c-.55 0-1 .45-1 1s.45 1 1 1 1-.45 1-1-.45-1-1-1zm-55 4c-1.645 0-3 1.355-3 3s1.355 3 3 3 3-1.355 3-3-1.355-3-3-3zm41 0c-1.645 0-3 1.355-3 3s1.355 3 3 3 3-1.355 3-3-1.355-3-3-3zm-41 2c.563 0 1 .438 1 1 0 .563-.438 1-1 1-.563 0-1-.438-1-1 0-.563.438-1 1-1zm41 0c.563 0 1 .438 1 1 0 .563-.438 1-1 1-.563 0-1-.438-1-1 0-.563.438-1 1-1z"/></svg>