<svg xmlns="http://www.w3.org/2000/svg" viewBox="0 0 26 26"><path d="M12 0C9 9 3 13 3 13l9 3zm0 16H2.5c-.602 0-.5.5-.5 1 0 1.77 2.957 3.3 5.281 4.188-.09.003-.199 0-.281 0-.8 0-2.102-.2-3-1-.898.699-2.2.906-3 .906-.398 0-.7.008-1-.094v1.813c.3 0 .602.093 1 .093 1.7 0 2.398-.406 3-.906.898.8 2.2 1 3 1 .8 0 2.102-.207 3-.906.898.699 2.2.906 3 .906.8 0 2.102-.207 3-.906.898.699 2.2.906 3 .906.8 0 2.102-.207 3-.906.898.699 2.2.906 3 .906.398 0 .7-.094 1-.094V21c-.3.102-.602.188-1 .188-.8 0-2.102-.176-3-.875-.898.699-2.2.875-3 .875a6.07 6.07 0 0 1-1.594-.22c2.063-.827 4.446-2.155 6.188-4.062.5-.398.593-.906-.407-.906zm9 0s0-5.898-7-14c2 9-1 12-1 12zM4 23.188c-.898.699-2.2.906-3 .906-.398 0-.7.008-1-.094v1.813c.3 0 .602.093 1 .093 1.7 0 2.398-.406 3-.906.898.8 2.2 1 3 1 .8 0 2.102-.207 3-.906.898.699 2.2.906 3 .906.8 0 2.102-.207 3-.906.898.699 2.2.906 3 .906.8 0 2.102-.207 3-.906.898.699 2.2.906 3 .906.398 0 .7-.094 1-.094V24c-.3.102-.602.188-1 .188-.8 0-2.102-.176-3-.875-.898.699-2.2.875-3 .875-.8 0-2.102-.176-3-.875-.898.699-2.2.875-3 .875-.8 0-2.102-.176-3-.875-.898.699-2.2.875-3 .875-.8 0-2.102-.2-3-1z"/></svg>