<svg viewBox="0 0 16 16" xmlns="http://www.w3.org/2000/svg" fill-rule="evenodd" clip-rule="evenodd" stroke-linejoin="round" stroke-miterlimit="1.41"><path d="M1.36 10.28l.07-.8a2.57 2.57 0 0 0-.1-.97c0-.03-.02-.05-.03-.08 0-.03-.02-.05-.03-.08a8.68 8.68 0 0 1-.13-3.95 2.73 2.73 0 0 1 .2-.53l.08-.1.06-.07.05-.06.1-.14a1.37 1.37 0 0 1 .26-.26 2.74 2.74 0 0 1 .87-.3c.04 0 .07-.02.1-.03a.31.31 0 0 0 .15-.17.59.59 0 0 0 .03-.2v-.09c0-.05 0-.1.02-.15l.07-.15c.04-.08.1-.15.15-.22a2.6 2.6 0 0 1 1.9-.91 3.07 3.07 0 0 1 .64.03l.08.02H6l.06-.01A.27.27 0 0 0 6.13 1l.06-.08.03-.02a1.04 1.04 0 0 1 .15-.13.95.95 0 0 1 .41-.13h.2l.07-.02c.04 0 .08-.02.13-.04l.1-.03.06-.02a1.08 1.08 0 0 1 .24-.05h.04l.1.01c.1.02.18.05.27.09a1.92 1.92 0 0 1 .44.28l.09.07.04.03.03.02c.05.04.1.07.16.09a.9.9 0 0 0 .4.06c.06 0 .12 0 .18-.02l.05-.02h.04l.02-.01a1.35 1.35 0 0 1 .45-.01 2.06 2.06 0 0 1 1.17.57 2.75 2.75 0 0 1 .44.55l.06.1.04.05.13.16.1.08.12.03h.02l.05.02.1.06.02.03.03.03.02.01.1.07.1.05.03.02.05.03a.5.5 0 0 1 .14.15c.07.1.1.23.12.35a2 2 0 0 1 0 .14v.1c0 .05.02.1.04.13l.04.06.06.05.1.07c.06.04.1.08.15.14a.6.6 0 0 1 .06.13l.07.2c.04.16.06.32.08.47a4.02 4.02 0 0 1-.51 2.39l-.06.1a2.67 2.67 0 0 0-.34 1.36 3.71 3.71 0 0 0 .2 1.2c.05.18.22.78.2 1.1-.02.6-.75.51-1.13.58-.43.08-.84.45-.73 1.2.1.77-.13 1.14-.61 1.27-.6.16-.76-.59-.76-.59 0 .58-.77.58-.96-.04-.2-.63-.57.1-.48.94.1.84-1.42 1.27-1.37.33.06-.95-.36-1.37-.36-1.37.07.57-.7 1-.98.38-.28-.63-.27-.73-.73.29-.46 1.01-1.36.34-1.26-.08.08-.37.16-1.08.16-1.08-.44.17-1.39.42-1.18-.3.2-.73.06-1.45.06-1.45s.02.09-.43.11c-.64.04-.73-.7-.7-.98z" fill-opacity=".2"></path><path d="M1.79 9.9l.07-.8a2.57 2.57 0 0 0-.1-.97l-.02-.08-.04-.09a8.68 8.68 0 0 1-.13-3.95 2.73 2.73 0 0 1 .21-.52l.07-.1.06-.08.05-.06.1-.13a1.37 1.37 0 0 1 .26-.26c.1-.07.21-.12.33-.16a2.74 2.74 0 0 1 .55-.14.49.49 0 0 0 .1-.04.3.3 0 0 0 .14-.16.59.59 0 0 0 .03-.2v-.1c0-.05 0-.1.02-.14a1.6 1.6 0 0 1 .22-.38c.08-.1.17-.18.26-.27A2.6 2.6 0 0 1 5.62.63a3.07 3.07 0 0 1 .63.04l.08.02h.1c.02 0 .04 0 .06-.02a.27.27 0 0 0 .07-.06l.07-.07.02-.02A1.04 1.04 0 0 1 6.8.39a.94.94 0 0 1 .42-.13h.19l.07-.02L7.6.2l.1-.04.06-.02A1.08 1.08 0 0 1 8 .1h.14a1.92 1.92 0 0 1 .71.36c.03.04.06.06.1.08l.03.04.03.02.16.09a.9.9 0 0 0 .4.06l.18-.03h.06L9.85.7h.03a1.35 1.35 0 0 1 .44-.01 2.02 2.02 0 0 1 1.17.56 2.75 2.75 0 0 1 .44.55l.07.1.03.06.13.16.1.08.12.03h.02l.05.02a.35.35 0 0 1 .13.09l.02.02.02.02.11.07.08.04a.74.74 0 0 1 .23.2c.08.1.1.23.12.36v.24l.04.13.04.05.07.06.1.07.14.13a.6.6 0 0 1 .07.13l.06.21a4.02 4.02 0 0 1-.43 2.85l-.05.1a2.67 2.67 0 0 0-.34 1.36 3.71 3.71 0 0 0 .18 1.2c.06.19.23.8.22 1.11-.03.59-.75.51-1.14.58-.43.08-.83.44-.73 1.2.1.77-.13 1.13-.61 1.26-.6.17-.76-.58-.76-.58 0 .58-.77.58-.96-.05-.2-.62-.57.11-.48.95.1.83-1.42 1.27-1.36.33.05-.95-.37-1.38-.37-1.38.07.58-.7 1-.98.38s-.27-.72-.73.3c-.46 1-1.36.34-1.26-.09.08-.36.16-1.08.16-1.08-.44.18-1.39.42-1.18-.3.2-.72.06-1.44.06-1.44s.02.08-.43.1c-.64.04-.73-.69-.7-.98z" fill="#fff"></path><path d="M4.05 12.48h.02v.01l.01.02v.04l-.01.09-.01.06v.07l-.02.07v.08l-.02.09-.01.09-.02.09v.04l-.01.05v.04l-.02.05v.04l-.01.04v.04l-.02.04v.04l-.01.03v.05H3.9v.07l.01.02v.02h.01v.02l.01.02.01.02v.02h.02v.02l.01.01v.01l.01.01.01.01v.01l.02.01v.01h.01v.02h.02v.02h.01l.01.01.01.01h.01v.02h.02v.01l.02.01.02.02.02.01.02.01.01.01h.01l.01.01h.01l.01.01.02.01.02.01h.02l.01.01h.02v.01h.03l.01.01h.04l.01.01h.19l.02-.01h.02l.01-.01h.02l.01-.01h.01l.02-.01.02-.01.01-.01.02-.01h.01l.01-.02h.02v-.01l.02-.01.01-.01.02-.01.01-.02h.01l.01-.02.02-.01.01-.01.01-.02.01-.01.02-.02v-.01l.02-.02.01-.02.01-.01.02-.02v-.02l.02-.02.01-.02.01-.02.01-.02.01-.02.01-.02.02-.02v-.02l.05-.1.04-.08.03-.08.04-.07.03-.07.02-.03.01-.03.02-.03.01-.03.01-.02.02-.03.01-.02.01-.02.01-.02.02-.02v-.02l.02-.02.01-.01.01-.01.01-.02h.01v-.01l.01-.01h.01l.01-.01.01-.01h.01l.01-.01h.09l.01.01h.01v.01h.01v.01l.02.01v.02h.01l.01.02.01.01.01.02V13l.02.02v.02l.02.02v.02l.01.02.01.02.02.04.02.05.03.05.02.05.03.06v.02l.01.02.01.01v.01l.02.01v.02h.01v.02h.01l.01.02H6v.02h.02v.01l.01.01h.01v.02h.02v.01h.01l.01.01.01.01h.01v.01h.02v.01h.02l.01.01h.01l.01.01h.03l.01.01h.05v.01h.12v-.01h.03l.01-.01h.02l.01-.01h.02l.01-.01h.01l.01-.01h.01l.01-.01h.01v-.01h.02v-.01l.02-.01.01-.01.01-.01h.01v-.01l.02-.01.01-.02h.01l.01-.01.02-.02.01-.01v-.01l.01-.01.01-.01v-.01h.01l.01-.02.01-.02h.01v-.02h.01v-.02h.01v-.02h.01v-.02h.01v-.02l.01-.01v-.02l.01-.01v-.03h.01v-.05l.01-.02v-.15l.01-.01.01-.01h.04l.01.01h.01V13l.02.01.01.01.01.02.02.02.01.02.01.02h.01v.02l.02.02v.01l.02.02v.01l.01.02.01.02.01.02.01.02.01.02.01.02.01.02.01.02.01.02v.03l.02.02v.03l.02.02v.03l.01.02.01.03.01.03v.03l.01.03.01.03.01.03v.03l.01.03v.04l.01.03v.04l.01.03v.04l.01.04v.11l.01.04v.44l.01.02v.01l.01.02v.01l.01.02.01.02.01.02.01.02h.01l.01.02v.01l.02.01.02.02.02.02.02.01.02.02h.02l.01.01h.02v.01h.02l.01.01h.02l.01.01h.03l.01.01h.26l.02-.01h.02l.01-.01h.03l.02-.01.02-.01h.01L8 14.8l.02-.01.02-.01h.01l.02-.02h.01l.02-.01.01-.01h.02l.02-.02h.01l.02-.02h.01l.01-.01.02-.02h.01l.02-.02h.01l.01-.02.02-.01.01-.01.01-.01.01-.02h.02v-.02l.02-.01.01-.02h.01l.01-.02.01-.02.01-.01.01-.01.01-.02.01-.01.01-.02.01-.01v-.02l.01-.01.01-.02v-.01l.02-.02v-.03l.01-.02v-.01l.01-.02v-.03l.01-.02v-.35l-.01-.04v-.23l.01-.03v-.07l.01-.03v-.04l.01-.03v-.03l.02-.03v-.07l.02-.02v-.03l.01-.03.01-.03.01-.02v-.03l.02-.02v-.03l.02-.02V13l.02-.02.01-.02.01-.02.01-.01v-.01l.01-.01h.01v-.02h.01v-.01h.01l.01-.01.01-.01h.01v-.01h.02v-.01h.01v-.01h.04v-.01h.07v.01h.02v.01h.01l.01.01v.01h.01l.01.01v.01H9l.01.02.01.01v.01l.01.01.01.01v.01l.01.01v.01l.01.02.01.02v.01l.01.02v.01l.01.02v.01l.01.02.01.02v.02h.01v.02l.01.01v.02h.01l.01.02v.01l.01.01.01.01v.02h.01l.01.02.01.02h.01v.02h.02v.01l.01.01.01.01v.01h.02v.02h.01l.01.01.01.01.02.01v.01h.01l.01.01.01.01h.01l.01.01h.01l.01.01.02.01.02.01h.02v.01h.01l.01.01h.03l.01.01h.03l.01.01h.18l.01-.01h.02l.01-.01h.01l.02-.01.01-.01.02-.01h.01v-.01l.01-.01h.01v-.01h.01v-.01h.01l.01-.02h.01v-.02h.01v-.01h.01v-.02h.01v-.01l.01-.01v-.01l.01-.02v-.02h.01v-.04h.01v-.08l.01-.02v-.03l.01-.01.01-.01h.04l.01.01v.01l.01.02v.02l.01.01v.02l.01.02.01.03.01.02v.02l.01.01v.01l.01.02.01.01v.02l.02.01v.02l.01.01.01.02v.01l.02.02v.01l.02.02v.01l.02.02.01.01.01.02.01.01.02.01.01.02.01.01.02.01.01.02h.02v.01h.01v.01h.02v.01h.01l.01.01.02.01h.01l.01.01h.01l.01.01h.03v.01h.04v.01h.22l.01-.01h.02l.02-.01h.02l.02-.01.02-.01h.02l.02-.02h.02l.02-.01.02-.01.02-.01.01-.01.02-.01.02-.01.02-.01.01-.01.02-.01.01-.01.02-.02h.01l.02-.02.01-.01.01-.02.02-.01.01-.02.01-.01.02-.02v-.01l.02-.02v-.02l.02-.01.01-.02.01-.02v-.02l.02-.01v-.02l.01-.02.01-.02v-.02l.02-.03v-.04l.01-.02v-.03l.01-.02v-.02l.01-.03v-.05l.01-.03v-.39l-.01-.04v-.03l-.01-.04v-.03l-.01-.04v-.31l.01-.03V12l.01-.03v-.03l.01-.03.01-.02v-.03l.02-.02v-.03l.02-.02v-.03l.02-.02v-.02l.02-.03.01-.02.01-.02.02-.02v-.02l.02-.02.02-.02.01-.02.02-.01.01-.02.02-.02.01-.01.02-.02.02-.02.01-.01.02-.02.02-.01.02-.01.01-.02h.02l.02-.02.02-.01.02-.01.02-.01.02-.01.02-.01.02-.01.02-.01h.02l.02-.02h.02l.02-.01h.02l.02-.01h.02l.02-.01h.03l.02-.01h.05l.02-.01h.05l.04-.01h.08l.05-.01h.04l.05-.01h.05l.02-.01h.07l.02-.01h.02l.03-.01h.04l.02-.01h.02l.02-.01.02-.01h.02l.03-.01.01-.01h.02l.02-.01.02-.01.02-.01.02-.01.01-.01h.01l.01-.01.02-.01.01-.01h.01v-.01l.01-.01h.01V11h.01l.01-.02h.01l.01-.02.01-.01.01-.02.01-.01v-.01h.01v-.02h.01v-.01l.01-.01v-.02l.01-.01v-.02l.01-.01v-.05h.01v-.32l-.01-.03v-.04l-.02-.04v-.08l-.02-.04v-.04l-.01-.05-.01-.04-.01-.04-.01-.03-.01-.04-.01-.04V9.9l-.02-.03-.02-.07-.01-.07-.02-.05-.02-.1-.02-.03V9.5l-.02-.04v-.05l-.02-.04v-.04l-.02-.04v-.04l-.02-.05v-.04l-.02-.04v-.04l-.01-.04V9l-.02-.04v-.08l-.01-.03v-.03l-.01-.04v-.06l-.01-.04v-.1l-.01-.03v-.49l.01-.04v-.04l.01-.05.01-.04.01-.04V7.8l.02-.04v-.04l.02-.05v-.04l.02-.04.01-.04.01-.05.02-.04.01-.04.01-.02v-.02l.02-.03v-.02l.01-.02.01-.03.01-.02.01-.02.01-.02.01-.02.01-.03.01-.02.01-.02.01-.02.02-.02v-.03l.02-.03.02-.03.01-.02.02-.03.02-.04.02-.03.02-.03.01-.03.02-.03.01-.02.01-.03.02-.02v-.03l.02-.02.01-.03.01-.02.02-.03v-.03l.02-.02.01-.03.01-.02.01-.03.01-.03.01-.02.01-.03.02-.04.02-.05.01-.04.02-.05.01-.04.02-.05v-.04l.02-.05.02-.05v-.05l.02-.05.01-.05.01-.06.02-.05v-.05l.01-.05.01-.05.01-.06v-.05l.01-.05.01-.06V5.3l.01-.05v-.1l.01-.04v-.53l-.01-.04v-.06l-.01-.02V4.4l-.01-.03v-.03l-.01-.03v-.03l-.01-.03v-.02l-.01-.03v-.03l-.01-.03v-.03l-.02-.03v-.02l-.01-.03v-.02l-.02-.03v-.03l-.01-.02-.01-.03-.01-.02v-.02l-.02-.01v-.02l-.01-.02V3.8l-.02-.02v-.01l-.01-.01-.01-.01v-.01l-.02-.01-.01-.02-.02-.01v-.01h-.01l-.01-.02h-.01l-.01-.01-.02-.02-.02-.01-.02-.02-.03-.02-.02-.01-.03-.02-.02-.01v-.01h-.01l-.01-.02h-.01V3.5l-.02-.01v-.01l-.01-.01h-.01v-.02h-.01v-.01h-.01v-.02h-.01V3.4l-.01-.01v-.02l-.01-.01v-.04l-.01-.02v-.24l-.01-.02V3l-.01-.03v-.02l-.01-.02V2.9l-.01-.01v-.03h-.01v-.02l-.01-.02-.01-.02-.01-.02-.01-.02-.01-.02-.01-.02L13 2.7l-.01-.02-.01-.01h-.01v-.01l-.02-.01v-.01l-.02-.01v-.01l-.02-.01V2.6l-.02-.01h-.01l-.01-.02h-.02v-.01l-.02-.01-.02-.01-.02-.01-.02-.01-.02-.01-.04-.03h-.01l-.02-.01-.01-.01-.02-.01h-.01l-.02-.02h-.01l-.02-.02V2.4l-.02-.01-.01-.01-.01-.02-.02-.01-.01-.01-.01-.01-.01-.01h-.01l-.01-.01h-.01l-.01-.01-.01-.01h-.02l-.02-.01-.02-.01h-.05l-.01-.01h-.03l-.01-.01h-.02l-.02-.01-.01-.01h-.02v-.01h-.02V2.2l-.01-.01-.02-.02h-.02v-.02l-.02-.01-.01-.01v-.01l-.02-.01V2.1l-.02-.02-.02-.02-.02-.02-.01-.02-.02-.02-.01-.03-.02-.02-.02-.03-.01-.03-.02-.02-.01-.03-.02-.02-.02-.04-.02-.03-.03-.04-.02-.03-.02-.03-.02-.02-.02-.03-.02-.03-.02-.02-.02-.03-.02-.03-.02-.02-.02-.03-.03-.02-.02-.03-.02-.02-.02-.03-.03-.02-.02-.02-.02-.03-.03-.02-.03-.03-.02-.02-.03-.02-.03-.03-.03-.02-.02-.02-.03-.02-.03-.02-.03-.02-.03-.02-.03-.02L11.1 1l-.03-.02-.03-.02L11 .94h-.02l-.02-.02h-.02L10.93.9h-.02l-.02-.02h-.03l-.02-.02h-.02L10.8.85l-.02-.01-.02-.01h-.02l-.02-.01L10.7.8h-.05l-.02-.01h-.02l-.02-.01-.02-.01h-.03l-.02-.01h-.02l-.02-.01h-.05l-.02-.01h-.02l-.02-.01h-.08l-.03-.01h-.33L9.9.74h-.03l-.02.01h-.02l-.01.01H9.8l-.03.01h-.02l-.03.01H9.7l-.03.01H9.6L9.58.8h-.19L9.37.77h-.04L9.3.76h-.02L9.27.75h-.02L9.24.74h-.02L9.2.73h-.01L9.17.72 9.13.7h-.02L9.1.68h-.02L9.06.66h-.02L9.02.65 9 .63h-.02L8.97.6 8.95.59 8.93.57 8.9.56 8.88.54 8.86.52 8.84.51 8.81.48 8.77.45 8.74.43 8.7.4 8.66.38 8.65.37 8.63.35H8.6V.32h-.03L8.56.31 8.54.3 8.52.29 8.5.28 8.48.27 8.46.26 8.44.25 8.42.24 8.4.23 8.37.21 8.36.2H8.3L8.29.18h-.03L8.24.17h-.03L8.2.15h-.04L8.15.14h-.07V.13H7.9l-.02.01h-.03l-.02.01h-.01L7.8.18l-.01.01-.03.01-.03.01-.05.02-.05.02-.03.01h-.02l-.01.01h-.02l-.02.01H7.5l-.02.01h-.04L7.41.3h-.24l-.03.01h-.02l-.03.01h-.03l-.02.01H7v.01h-.03l-.02.01-.02.01h-.01l-.01.01H6.9v.01h-.02L6.87.4h-.02l-.01.01h-.02v.02H6.8v.02l-.01.01-.02.01v.01h-.02V.5h-.04L6.7.52l-.01.02-.03.03-.01.01-.02.02-.01.02-.02.02-.02.02-.02.02-.01.01h-.02V.7L6.5.72h-.01v.01h-.05l-.01.01H6.3L6.29.71h-.04L6.2.7h-.09L6.08.68h-.06L6 .67h-.12L5.85.66H5.5l-.04.01h-.04L5.38.7h-.12l-.04.02h-.04l-.04.01-.04.01-.04.01-.04.01-.04.01-.03.01-.03.01-.04.01-.03.01-.03.02h-.04l-.03.02-.03.01-.04.02-.03.01-.03.01-.03.02-.03.01-.04.02-.03.02-.03.01-.03.02-.03.02-.03.02-.03.01-.03.02-.03.02-.03.02-.03.02-.03.02-.03.02-.02.02-.03.02-.03.03-.03.02-.02.02L4 1.3l-.02.02-.02.01-.01.02-.02.02-.02.01-.01.02-.02.01-.02.02-.01.02-.02.01-.01.02-.02.02-.01.02-.02.01-.01.02-.02.02-.02.02-.02.03-.02.03v.01l-.02.02-.02.02v.02l-.01.01-.01.02H3.6v.02l-.02.02v.02l-.02.01v.02l-.01.02-.01.02v.01l-.02.02v.04l-.01.01V2H3.5v.34l-.01.02-.01.02v.02l-.01.01-.01.02-.01.02-.01.02h-.01v.01l-.01.01H3.4v.02h-.02v.01h-.01l-.01.01v.01h-.02v.01h-.02v.01h-.01l-.02.02h-.02l-.02.01-.02.01h-.02l-.01.01h-.02l-.02.01h-.03l-.03.01-.03.01h-.03l-.03.01h-.03l-.04.02H2.9l-.05.02-.04.01H2.8l-.02.01h-.02l-.02.01-.02.01H2.7l-.02.01-.02.01h-.02l-.02.02H2.6l-.02.01-.02.01-.02.01h-.02l-.02.02h-.02l-.02.02h-.02l-.02.02-.02.01-.01.01-.02.01-.02.02h-.02l-.02.02-.01.02h-.02l-.02.02-.01.02-.02.01-.01.02H2.2v.02l-.02.01v.01l-.03.03-.02.02-.02.02-.01.03-.03.03-.03.03-.05.07-.02.03-.03.03-.01.02-.02.02-.02.02-.01.02h-.01v.02l-.02.01v.01l-.01.01-.01.02-.02.02v.01l-.01.02-.01.01v.02h-.02v.02l-.02.03v.03l-.02.03-.02.03v.03l-.02.03-.01.04-.02.03v.04l-.02.04-.01.03-.01.04-.01.04-.01.04-.01.05-.02.04v.05l-.01.05-.01.04-.01.05-.01.05v.05l-.02.05v.06l-.01.05v.05l-.02.06v.11l-.01.05v.06L1.46 5v.06l-.01.06v.16l-.01.06v.91l.01.06v.12l.01.06v.06l.01.06v.05l.01.05v.04l.01.04v.04l.01.04v.04l.01.04V7l.01.04v.04l.01.04.01.04v.04l.02.04v.04l.01.05v.03l.01.04.01.03.01.04v.04l.02.03v.04l.01.04.01.03.01.04.01.03.01.04.01.03.01.04.02.03v.04l.02.02v.03l.02.02V8l.01.02.01.03.01.01v.02l.01.02.01.03.01.03.02.04v.04l.02.03v.04l.01.04.01.03.01.04v.05l.01.02v.06l.01.02v.08l.01.02v.44l-.01.06-.01.09-.02.2-.01.11-.01.11-.01.11-.01.1v.29l.01.02v.04l.01.02v.04l.01.02v.02l.01.02.01.02v.02l.01.02.01.02v.02l.02.02v.02l.01.02.01.02.01.02.01.02.02.01v.02l.02.02.01.01v.01l.01.01h.01v.02h.01l.01.01.02.02h.01v.02h.02l.01.02h.01l.02.01.01.01.01.01h.01l.01.01h.02l.01.01h.01l.01.01h.01l.01.01h.02l.01.01h.03l.02.01h.07l.02.01h.18l.03-.01h.03l.03-.01h.05l.02-.01h.02l.02-.01h.03v-.01h.02v-.01h.02v-.01h.01v-.02h.01v-.01h.07v.01l.01.01v.05l.01.03v.02l.01.03v.06L3 11v.04l.01.05v.14l.01.02v.37l-.01.03v.1l-.01.03v.03l-.01.04v.03l-.01.03v.04l-.01.03-.01.04v.03l-.02.03v.04l-.01.03-.01.04-.01.03v.03l-.01.02v.03l-.01.01v.19l.01.02.01.01v.02h.01l.01.02h.01v.01h.01l.01.01.01.01.02.01.01.01h.02v.01h.02l.01.01h.01l.02.01h.04l.01.01h.31l.03-.01h.03l.02-.01h.03l.03-.01.03-.01h.02l.03-.01.03-.01h.02l.03-.02h.03l.02-.01.03-.01h.02l.03-.02h.02l.03-.01.02-.01h.02l.02-.02.05-.01h.02zM8.06.06h.1l.02.01h.02l.01.01h.04l.02.01h.01L8.3.1l.02.01h.02l.01.01h.02l.02.02h.01l.02.01h.02l.02.02h.02L8.5.2h.02l.02.02h.02l.02.02.02.01.02.01.01.01.02.02h.02L8.7.3l.02.01.04.03.03.02.04.03.03.03.04.02.02.02.02.02.02.01.03.02.02.02.02.02h.01l.02.02h.01l.02.02.02.01.02.01.02.01.02.01.01.01h.02l.01.01h.02v.01h.03l.01.01h.02l.02.01h.02l.01.01h.02l.03.01h.08l.03.01h.16L9.7.7h.02l.02-.01h.02l.03-.01h.03l.01-.01h.02l.01-.01h.04l.03-.01h.05L10 .64h.36l.03.01h.04l.03.01h.02l.02.01h.03l.02.01h.02l.02.01h.03l.02.01.02.01h.03l.02.01.02.01h.02l.03.02h.02l.02.01.02.01.02.01.03.01.02.01h.02l.02.02h.02l.02.02.02.01.02.01.03.01.03.02.03.02.03.02.03.02.03.02.04.02.03.02.03.02.03.03.02.02.03.02.03.03.03.02.03.03.02.02.03.03.03.02.02.02.02.03.03.02.02.03.02.02.03.03.02.03.02.02.02.03.02.03.03.02.02.03.02.03.02.03.02.02.02.04.02.03.03.04.02.03.01.03.02.02.01.03.02.02.02.03.02.03.01.02.01.02.02.02.01.02.02.02.01.02h.01l.01.01v.01l.02.01v.01l.02.01v.01l.02.01.01.01h.01l.01.01h.01v.01h.02l.01.01h.04l.02.01h.03l.02.01h.01l.02.01h.01l.02.01h.01l.02.01v.01h.02l.01.02h.02v.01l.02.01v.01l.02.01.02.02v.01h.01l.01.01v.01h.02v.02h.02l.01.01.01.01.02.01h.01l.01.02h.02l.04.03h.02l.02.02.02.01.02.01.01.01h.02l.01.02h.02v.02h.02l.01.02h.02v.02H13l.01.02.01.01.02.02.01.01v.01l.01.01.01.01v.01l.01.01.01.01v.01l.01.01.01.01v.01l.01.02.01.02v.01l.01.01v.01l.01.02v.02l.01.01v.01l.01.01v.03l.01.02v.03l.01.02v.05l.01.02v.26l.01.02v.03h.01v.02l.01.01v.02h.01v.01h.01v.01l.01.01.01.01v.01h.01l.01.01v.01h.02v.01l.02.01.02.02.03.02.02.02.03.01.02.02.02.01.01.01.01.01.01.01.01.01.02.02.02.02.01.02h.01l.01.02.01.02.01.01.01.02.01.02.01.01v.02l.02.02v.02l.01.02.01.03.01.03.01.02.01.03v.03l.01.03.01.02v.03l.02.03v.06l.01.03v.03l.01.03v.03l.01.03v.03l.01.03v.05l.01.03v.06l.01.04v.09l.01.04v.54l-.01.06v.05l-.02.06v.1l-.02.06v.05l-.02.05v.06l-.02.05v.05l-.02.06-.01.05-.02.05-.01.05-.01.05-.02.05-.01.04-.02.05-.01.04-.02.05-.02.04-.01.05-.01.03-.01.02-.01.03-.01.03-.02.02v.03l-.02.03-.01.02-.01.03-.02.02v.03l-.02.03-.01.02-.02.03v.02l-.02.03-.02.03-.01.03-.02.03-.02.03-.02.04-.02.03v.02l-.03.03-.01.03-.01.02-.01.02-.01.02-.01.02-.01.03-.01.02-.01.02-.01.02-.01.02-.01.02-.01.03v.02l-.02.02v.02l-.02.03v.02l-.02.04-.01.04-.01.04-.01.04-.02.04v.04l-.02.05v.04l-.01.04-.01.04v.04l-.02.05v.08l-.01.04v.08l-.01.03v.49l.01.04v.06l.01.04v.03l.01.03v.04l.01.04.01.04v.04l.01.04.01.04.01.05.01.04v.04l.02.04v.04l.02.04v.04l.02.04.01.05.01.04.01.04.03.09.01.05.02.07.02.06v.04l.02.04v.04l.02.04v.04l.01.04.01.04.01.04.01.04.01.04v.04l.01.04.01.04v.04l.01.04v.04l.01.04v.29l-.01.02v.01l-.01.01v.02l-.01.02-.01.02-.01.02v.01l-.01.01v.01l-.02.01v.01l-.02.02v.01l-.02.01v.01l-.01.01-.02.02-.01.01h-.01l-.01.01v.01h-.02v.01l-.02.01-.02.01-.01.01-.01.01-.02.01-.02.01h-.03l-.02.02h-.02l-.02.01-.02.01h-.02l-.03.01h-.02l-.02.01-.02.01h-.05l-.02.01h-.03l-.02.01h-.05l-.02.01h-.07l-.05.01h-.04l-.05.01h-.08l-.05.01h-.04l-.01.01h-.06l-.02.01h-.02l-.02.01h-.02l-.02.01h-.02l-.01.01h-.02l-.02.02h-.02l-.02.01-.02.01h-.02l-.01.02h-.02l-.02.02h-.02l-.01.02-.02.01-.02.01-.01.01-.02.02-.01.01-.02.01-.02.02v.01l-.02.02-.02.01-.01.02-.02.01v.02l-.02.02-.01.02-.02.01v.02l-.02.02-.01.02-.01.02-.01.02-.01.02-.01.03v.02l-.02.02v.02l-.01.03v.02l-.02.03V12l-.01.03v.05l-.01.03v.32l.01.04v.03l.01.04v.07l.01.03v.39l-.01.03v.02l-.01.03v.02l-.01.03-.01.02v.03l-.02.02v.02l-.01.02-.01.03v.02l-.02.02v.02l-.02.02-.01.02-.01.02-.02.02v.01l-.02.02-.01.02-.02.01-.01.02-.02.02-.01.01-.02.02-.01.01-.02.01-.02.02-.01.01-.02.01-.02.02h-.02l-.02.02-.02.01-.02.01-.02.01-.02.01-.02.01h-.02l-.02.02h-.02l-.02.01-.03.01h-.02l-.02.01h-.02l-.01.01h-.04l-.02.01h-.2l-.01-.01h-.02l-.02-.01h-.02v-.01h-.02v-.01h-.02v-.01h-.02v-.01h-.02v-.02h-.02l-.01-.01-.01-.01h-.01v-.01l-.03-.02-.01-.01-.02-.02-.01-.01-.02-.02v-.01l-.02-.02-.01-.01-.02-.02v-.02l-.02-.01v-.02l-.02-.02v-.01l-.02-.02v-.02l-.02-.01v-.02l-.01-.01v-.02l-.02-.01v-.02h-.01v.03l-.01.01v.01l-.01.01v.01l-.01.01v.01l-.02.01v.02l-.02.01v.02h-.02v.01l-.01.01-.02.01v.01H9.9l-.01.01-.01.01h-.01v.01h-.02v.01h-.02v.01H9.8v.01h-.02v.01h-.02l-.02.01H9.7v.01h-.2v-.01h-.02l-.02-.01h-.02l-.01-.01h-.01l-.01-.01h-.02v-.01h-.02v-.01h-.02l-.01-.01-.01-.01h-.01l-.01-.01-.01-.01h-.01l-.01-.02h-.01l-.01-.01h-.01l-.01-.02h-.01l-.01-.02h-.01v-.01l-.02-.01v-.01l-.02-.01v-.01l-.01-.01-.01-.02h-.01v-.02h-.02v-.02l-.01-.01v-.02h-.02v-.02l-.01-.01v-.02l-.01-.01-.01-.01v-.02l-.01-.01v-.02l-.01-.01v-.02l-.01-.01v-.02h-.01v-.02L9 13.07v-.04l-.01-.01v-.01L8.97 13h-.01v-.02l-.01-.01v-.01h-.01v-.01h-.01v-.01h-.01v-.01h-.01v-.01H8.9v-.01h-.04l-.01.01h-.01v.01h-.01v.01h-.01v.01H8.8v.02l-.01.01-.01.01V13l-.01.01-.01.02-.01.02v.01l-.02.02v.03l-.02.02v.02l-.01.03-.01.02v.03l-.02.02v.03l-.01.03v.03l-.01.03v.03l-.01.03v.04l-.01.03v.07l-.01.03v.14l-.01.04v.19l.01.03v.26l-.01.02v.02l-.01.02v.02l-.01.01-.01.02v.02l-.01.02-.01.01-.01.02-.01.02v.01l-.02.02v.02l-.02.01-.01.02-.01.01-.01.02-.01.01-.02.02v.01l-.02.01-.01.02-.02.01-.01.01-.02.02-.01.01-.01.01-.02.01-.01.02h-.02l-.01.02-.02.01-.01.01-.02.01-.02.01-.01.01-.02.01-.02.01h-.01l-.02.02h-.02l-.01.01-.02.01h-.02l-.01.02h-.02L8 14.9l-.01.01h-.02l-.02.01h-.02l-.01.01H7.9l-.02.01h-.05l-.02.01h-.25l-.02-.01h-.01l-.02-.01h-.02l-.01-.01h-.02l-.01-.01-.01-.01H7.4l-.01-.02h-.02v-.01l-.02-.01-.01-.01-.02-.01v-.01l-.02-.01-.01-.02h-.01l-.01-.02-.01-.01-.01-.02-.01-.01v-.02l-.02-.01v-.02l-.01-.01v-.02l-.01-.02-.01-.01v-.04l-.01-.02v-.02l-.01-.02v-.55l-.01-.03v-.04l-.01-.03v-.04l-.01-.03v-.03l-.01-.03v-.03l-.02-.03v-.03l-.01-.03v-.03l-.01-.03-.01-.02-.01-.03-.01-.02v-.03l-.02-.02v-.03l-.01-.02-.01-.02-.01-.02-.01-.02-.01-.02v-.02l-.02-.02v-.01l-.02-.02v-.02l-.01-.01-.01-.02-.01-.01v-.02H6.9v-.02l-.01-.01-.01.02v.06l-.01.01v.03h-.01v.02l-.01.01v.02l-.01.02v.01l-.01.01-.01.02-.01.02v.01l-.01.01-.01.01v.01l-.01.02h-.01v.02h-.02v.02h-.01l-.01.02-.02.02-.01.02-.01.01-.01.01-.01.01-.02.02-.02.01v.01H6.6v.01l-.02.01-.02.01-.01.01h-.01l-.01.01h-.01l-.01.01-.01.01h-.03v.01h-.02l-.01.01h-.02l-.01.01h-.03v.01h-.07v.01h-.13v-.01h-.03l-.01-.01h-.02l-.02-.01-.02-.01h-.01l-.01-.01-.01-.01h-.01l-.01-.01-.01-.01h-.01L6 13.62l-.01-.01-.01-.01-.01-.01-.01-.01-.01-.01-.01-.01-.01-.01-.01-.01v-.02H5.9v-.02l-.01-.01-.01-.02h-.01v-.02l-.02-.02v-.01l-.01-.02v-.01l-.03-.06-.03-.05-.02-.05-.02-.05-.02-.04v-.02l-.02-.02v-.02l-.01-.02-.01-.01-.01-.02v-.01l-.02-.01V13h-.01v-.02h-.01l-.01-.01H5.6v-.01h-.04l-.01.01-.02.02-.02.02v.01l-.01.02-.02.01v.02l-.02.02-.01.02-.01.02-.01.02-.02.03-.01.03-.02.02-.01.03-.02.03-.03.07-.03.07-.04.08-.04.09-.04.09-.01.02-.01.03-.01.02-.02.02v.02l-.02.02-.01.02-.01.02-.02.02v.02l-.02.02-.01.02-.02.02-.01.01V14l-.02.01-.01.02-.01.01-.02.02-.01.01-.02.01-.01.02h-.01l-.02.02-.01.01-.02.01-.01.01-.02.01H4.8l-.02.02h-.01l-.01.01-.02.01h-.01l-.02.01H4.7l-.02.01h-.01l-.02.01h-.01l-.02.01h-.04l-.02.01h-.19l-.01-.01h-.03l-.01-.01H4.3l-.01-.01h-.02v-.01h-.02l-.01-.01h-.02l-.01-.01-.01-.01h-.02v-.01l-.02-.01h-.01l-.01-.02h-.02v-.01H4.1l-.01-.02h-.01l-.01-.01-.01-.01-.01-.01-.01-.01-.01-.01-.01-.01H4v-.04h-.01L3.98 14h-.01v-.02l-.02-.01v-.01l-.01-.01-.01-.01v-.01l-.01-.01-.01-.01v-.02H3.9l-.01-.02-.01-.02v-.01l-.01-.01v-.01l-.01-.02-.01-.02v-.02l-.01-.01v-.07l-.01-.02v-.07l.02-.04v-.04l.01-.04v-.04l.02-.04v-.04l.01-.04v-.05l.02-.04v-.04l.02-.1.01-.08.01-.09.01-.08.01-.08.01-.06v-.06l.01-.06-.02.01-.03.01-.02.01-.03.01h-.02l-.03.02h-.02l-.03.01-.03.01h-.02l-.03.02h-.03l-.03.01h-.02l-.03.01-.03.01h-.03l-.03.01h-.03l-.02.01H3.4l-.03.01h-.31l-.01-.01h-.02l-.01-.01H3l-.02-.01h-.02v-.01h-.02v-.01l-.02-.01-.01-.01H2.9l-.01-.02h-.01v-.01h-.02v-.02h-.01v-.01l-.01-.01-.01-.01v-.01l-.01-.01v-.01l-.01-.01v-.01l-.01-.01v-.04l-.01-.01v-.22l.01-.02v-.01l.01-.02.01-.03.01-.04v-.03l.02-.03v-.04l.01-.03v-.03l.01-.04v-.03l.01-.03v-.03l.01-.04v-.03l.01-.03v-.06l.01-.04v-.15l.01-.03v-.34l-.01-.04V11l-.01-.04v-.06l-.01-.03v-.02h-.02l-.01.01h-.02l-.01.01h-.02l-.02.01h-.02l-.03.01h-.02l-.03.01h-.06l-.03.01h-.12l-.01.01h-.15l-.01-.01h-.03l-.01-.01h-.02l-.02-.01H2.2v-.01h-.02l-.01-.01h-.01l-.01-.01h-.01l-.02-.02H2.1v-.01l-.02-.01-.02-.01v-.01h-.02v-.02h-.01l-.01-.01h-.01L2 10.74l-.02-.01v-.01l-.01-.01-.01-.01-.01-.02h-.01v-.02h-.02l-.01-.03-.01-.01-.01-.02-.02-.02v-.02l-.02-.03v-.02l-.02-.02v-.02l-.01-.02-.01-.02v-.02l-.02-.03v-.04l-.01-.02v-.02l-.01-.02v-.03l-.01-.02v-.04l-.01-.02v-.06l-.01-.02v-.31l.02-.12v-.1l.02-.12.02-.2v-.09l.01-.06v-.04L1.84 9v-.43l-.01-.02V8.5l-.01-.02v-.04L1.8 8.4v-.04l-.01-.03-.01-.04-.01-.03-.01-.04-.01-.03-.01-.04-.01-.02V8.1l-.01-.02-.01-.02-.01-.02v-.02L1.66 8v-.02l-.02-.03v-.03l-.02-.03-.01-.04-.01-.03-.01-.04-.01-.04-.01-.03-.01-.04-.01-.04-.01-.03-.01-.04-.01-.04V7.5l-.02-.04v-.04l-.01-.03v-.04l-.02-.04v-.04l-.01-.05v-.04l-.01-.04-.01-.04v-.04L1.43 7v-.05l-.01-.04v-.04l-.01-.04V6.8l-.01-.05v-.04l-.01-.04v-.06l-.01-.06V6.5l-.01-.06v-.06l-.01-.06v-.18l-.01-.06v-.92l.01-.06v-.11l.01-.06v-.06l.01-.05v-.06l.01-.05.01-.06V4.6l.02-.06V4.5l.01-.05.01-.06v-.05l.02-.04v-.05l.02-.05v-.04l.02-.05v-.05l.02-.04.01-.04.01-.04.01-.04.02-.04v-.03l.02-.04.01-.04.02-.03.01-.03.01-.03.02-.03.01-.03.02-.03v-.02l.01-.01.01-.02V3.5l.02-.02v-.01l.01-.02h.01l.01-.02v-.01l.02-.02.02-.02v-.01l.02-.02.02-.02.02-.02.01-.02.03-.03.02-.03.05-.07.03-.03.02-.04.02-.02.02-.02.02-.03L2.1 3l.01-.01.02-.02.02-.02.02-.02.01-.01.02-.02.02-.01.02-.02.02-.01.02-.02.01-.01.02-.01.02-.02h.02l.02-.02.02-.01.02-.01.02-.01.02-.01.03-.01.02-.01.02-.01.02-.01.02-.01h.02l.02-.02h.02l.02-.01h.03l.02-.02h.04l.02-.02h.04l.05-.02.04-.01.04-.01.04-.01H3l.03-.01h.03l.03-.02h.07l.01-.01h.03l.01-.01h.01l.01-.01h.02V2.5h.02v-.01h.02v-.01h.02v-.01l.02-.01v-.02h.02v-.01h.01V2.4h.01v-.02h.01v-.01h.01v-.02h.01v-.02l.01-.02V2.3l.01-.02V2.2l.01-.02v-.22l.01-.02v-.02l.01-.02.01-.02v-.02l.02-.02v-.02l.01-.01.01-.02.01-.02.01-.02.01-.02.01-.01V1.7l.02-.01v-.02l.02-.01v-.02l.02-.01V1.6h.02l.02-.04.02-.03.02-.02.02-.02.01-.02.02-.02.01-.02.02-.01.02-.02.01-.02.02-.02.01-.01.02-.02.02-.02.02-.01.01-.02.02-.02.02-.01.02-.02.02-.02.03-.03.03-.02.03-.02.03-.02.03-.02.03-.03.03-.02.03-.02.03-.02.03-.02.03-.02.03-.01.03-.02.03-.02.03-.02.04-.02.03-.01.03-.02.03-.01.04-.02.03-.01.03-.02.05.01.03-.02h.04L4.8.76l.03-.01.04-.01.03-.02h.04L4.97.7H5l.04-.02h.04l.04-.02h.04L5.2.63l.05-.01h.04l.04-.01h.04L5.4.6h.17l.05-.01H6l.03.01h.06l.04.01h.05l.04.01.04.01h.04l.02.01h.05l.01.01h.08V.63h.02V.62h.01L6.5.61V.6h.02V.58h.01l.02-.02.01-.02.02-.02L6.6.5l.02-.02.01-.02.02-.01.01-.02.02-.01.01-.01L6.7.4h.02V.39l.02-.01.02-.01V.36h.02L6.8.33l.02-.01h.01l.02-.01V.3h.05l.02-.01h.02V.27h.02l.02-.01H7l.02-.01.02-.01h.04L7.1.23h.03l.03-.01h.05l.03-.01h.17L7.42.2h.08l.02-.01h.01l.02-.01h.01L7.6.15l.06-.02.05-.02h.03L7.76.1h.03L7.8.08h.02l.01-.01h.04L7.9.06h.07l.01-.01h.08z" fill="#cfcfcf"></path><path d="M2.2 10.04c-.09-.42.41-1.37.02-2.3-.38-.92-.43-3.5.13-4.16.28-.32.3-.53 1.1-.68.36-.07.41-.33.39-.55-.04-.32.9-1.48 2.5-1.19.45.09.24-.38 1-.39.4 0 .55-.45 1.4.26.32.26.7.2.9.15.05-.01 1.09-.23 1.84 1 .33.55.42.3.59.48.18.2.52.12.5.74 0 .34.24.35.37.51.17.23.44 1.6-.3 2.85-.73 1.25-.14 2.51.03 3.16.16.58.36.88-.28.84-.64-.05-1.01.42-1.25.75-.23.32-.2.6-.16 1.19.04.59-.46 1.09-.58.16-.11-.92-.7-.74-.64-.37.09.61-.23 1.03-.53.13-.2-.6-1.04-.18-1 .94.05.78-.42.85-.49.82-.28-.15-.1-.82-.21-1.16-.17-.5-.95-1.34-1.02-.65-.1 1-.52.45-.54.16-.03-.28-.57-.74-.89 0-.32.75-.47 1.3-.77.88-.13-.16.08-.52.07-.78 0-.27.08-.45-.09-.88-.16-.42-.3.16-.44.11-.15-.05-.64.7-.43-.4.2-1.11-.27-1.97-.64-1.4-.25.38-.53-.02-.58-.22z" fill="#485c97"></path><path d="M9.02 5.9c.59.1 1 .58.9 1.05-.08.48-.63.77-1.21.67-.6-.11-1-.58-.91-1.06.08-.47.63-.77 1.22-.66z" fill="#62dc52"></path><path d="M8.45 6.32c.06 0 .1.06.09.12a.1.1 0 1 1-.1-.12z" fill="#121211"></path><path d="M8.4 6.42c.03 0 .05.03.04.05 0 .02-.02.04-.05.03-.02 0-.04-.02-.03-.05 0-.02.03-.04.05-.03zm.08-.03l.02.02c0 .02-.02.02-.03.02a.02.02 0 0 1-.01-.02c0-.02 0-.02.02-.02z" fill="#fff"></path><path d="M9.4 6.49a.1.1 0 1 1-.03.21.1.1 0 0 1-.1-.12.1.1 0 0 1 .13-.09z" fill="#121211"></path><path d="M9.36 6.6c.03 0 .04.02.04.04 0 .03-.03.04-.05.04a.04.04 0 0 1-.04-.05c0-.03.03-.04.05-.04zm.08-.04s.02.02.01.03c0 0-.01.02-.02.01a.02.02 0 0 1-.02-.02c0-.01.01-.02.03-.02z" fill="#fff"></path><path d="M8.9 6.5c.05.02.08.07.07.13a.1.1 0 0 1-.1.1.11.11 0 0 1-.07-.13c.01-.06.06-.1.1-.1z" fill="#4a2121"></path><clipPath id="a"><path d="M8.9 6.5c.05.02.08.07.07.13a.1.1 0 0 1-.1.1.11.11 0 0 1-.07-.13c.01-.06.06-.1.1-.1z"></path></clipPath><g clip-path="url(#a)"><path d="M8.9 6.6c.05 0 .1.05.08.1 0 .05-.06.08-.12.06-.06 0-.1-.05-.09-.1 0-.05.06-.08.12-.07z" fill="#c85b5b"></path></g><path d="M5.22 7.91c.45-.12.9.09.99.45.1.36-.2.76-.65.87-.45.12-.9-.08-1-.45-.09-.36.2-.75.66-.87z" fill="#4cc2c2"></path><path d="M4.95 8.4c.04-.02.09 0 .1.05.01.05-.01.1-.06.1a.08.08 0 0 1-.1-.05.08.08 0 0 1 .06-.1z" fill="#121211"></path><path d="M4.95 8.48c.02 0 .04 0 .04.02s0 .04-.02.04-.04 0-.04-.02 0-.04.02-.04zM5 8.43l.01.02v.02c-.02 0-.03 0-.03-.02L5 8.43z" fill="#fff"></path><path d="M5.68 8.2c.05 0 .1.02.1.06.02.05 0 .1-.05.1a.08.08 0 1 1-.05-.16z" fill="#121211"></path><path d="M5.69 8.29c.02 0 .03 0 .04.02 0 .02 0 .04-.03.04-.01 0-.03 0-.04-.02 0-.02.01-.04.03-.04zm.04-.05s.02 0 .02.02l-.01.02c-.01 0-.02 0-.02-.02v-.02z" fill="#fff"></path><path d="M5.34 8.38c.03-.01.07.02.08.06.02.05 0 .1-.04.1-.04.01-.08-.02-.09-.06 0-.05.01-.1.05-.1z" fill="#4a2121"></path><clipPath id="b"><path d="M5.34 8.38c.03-.01.07.02.08.06.02.05 0 .1-.04.1-.04.01-.08-.02-.09-.06 0-.05.01-.1.05-.1z"></path></clipPath><g clip-path="url(#b)"><path d="M5.35 8.45c.05-.02.1 0 .1.04.01.04-.02.07-.06.09-.05 0-.1-.01-.1-.05-.01-.03.02-.07.06-.08z" fill="#c85b5b"></path></g><path d="M9.43 11.36c0-.02.03-.03.05-.03.03 0 .05.01.06.03l.07.18.2.01.04.04c0 .03 0 .05-.02.07l-.14.12.04.19c0 .02 0 .04-.02.06a.06.06 0 0 1-.06 0l-.17-.1-.16.1a.06.06 0 0 1-.09-.06l.05-.19-.15-.12a.06.06 0 0 1-.02-.07c.01-.02.03-.03.06-.04l.19-.01.07-.18zm-5.33-1.2c.01-.03.03-.04.06-.04.02 0 .04.01.05.03l.07.18.2.01c.02 0 .04.02.04.04.01.03 0 .05-.01.07l-.15.12.05.19c0 .02 0 .04-.03.06a.06.06 0 0 1-.06 0l-.16-.1-.17.1a.06.06 0 0 1-.09-.06l.05-.19-.15-.12a.06.06 0 0 1-.01-.07c0-.02.02-.03.05-.04l.19-.01.07-.18zm7-.58a.06.06 0 0 1 .1 0l.08.18.19.01c.02 0 .04.02.05.04 0 .03 0 .05-.02.07l-.15.12.05.19c0 .02 0 .04-.02.06a.06.06 0 0 1-.07 0l-.16-.1-.16.1a.06.06 0 0 1-.1-.06l.05-.19-.14-.12a.06.06 0 0 1-.02-.07c0-.02.03-.03.05-.04l.19-.01.07-.18zM3.53 8.35a.05.05 0 0 1 .05 0c.02.01.02.03.02.05l-.02.15.12.08c.01.02.02.03.01.05 0 .02-.02.03-.03.04l-.15.02-.05.14c0 .02-.02.03-.04.03s-.03 0-.04-.02l-.07-.14H3.2a.05.05 0 1 1-.03-.08l.1-.1-.04-.14.01-.05a.05.05 0 0 1 .06 0l.13.06.12-.09zm8.07-.91a.06.06 0 0 1 .06 0c.02 0 .03.03.03.05l-.03.19.15.11a.06.06 0 0 1-.03.1l-.19.04-.06.18c0 .02-.02.04-.05.04a.06.06 0 0 1-.05-.03l-.09-.17h-.19a.06.06 0 0 1-.05-.04c-.01-.02 0-.05 0-.07l.14-.13-.05-.18a.06.06 0 0 1 .08-.07l.17.09.15-.12zM6.64 5.38a.06.06 0 0 1 .06-.03c.02 0 .04.01.05.03l.08.18.19.02c.02 0 .04.01.05.04 0 .02 0 .04-.02.06l-.15.12.05.19c0 .02 0 .05-.02.06a.06.06 0 0 1-.07 0l-.16-.1-.16.1a.06.06 0 0 1-.07 0 .06.06 0 0 1-.02-.06l.04-.19-.14-.12a.06.06 0 0 1-.02-.06c0-.03.03-.04.05-.04l.19-.02.07-.18zm1.41-.52a.05.05 0 0 1 .05 0c.02 0 .03.02.02.04l-.02.15.12.09.02.05c0 .01-.02.03-.04.03l-.15.02-.05.14c0 .02-.02.03-.04.03-.01 0-.03 0-.04-.02l-.07-.13h-.14a.04.04 0 0 1-.05-.03l.01-.05.1-.1-.04-.15c0-.02 0-.04.02-.05a.05.05 0 0 1 .05 0l.13.06.12-.08z" fill="#fce827"></path><path d="M7.62 8.23a.05.05 0 0 1 .05 0c.02 0 .03.03.02.04l-.02.15.12.09.02.05c0 .01-.02.03-.04.03l-.15.02-.04.14-.04.04a.05.05 0 0 1-.05-.03l-.06-.13h-.15a.05.05 0 0 1-.04-.03v-.05l.11-.1-.04-.15v-.05a.05.05 0 0 1 .06 0l.13.07.12-.09zm4.21-5.32a.05.05 0 0 1 .05 0c.02.01.03.03.03.05l-.03.14.12.1c.02 0 .02.02.02.04s-.02.03-.04.03l-.14.03-.05.14c0 .01-.02.03-.04.03s-.04-.01-.05-.03l-.06-.13h-.15a.05.05 0 0 1-.03-.08l.1-.1-.04-.14.01-.05a.05.05 0 0 1 .05-.01l.13.07.12-.09zm-8.06.14v-.04a.04.04 0 0 1 .04 0l.11.03.1-.08a.04.04 0 0 1 .03 0c.02 0 .02.02.02.03v.12l.1.06.02.03c0 .02-.02.03-.03.03l-.11.04-.03.11-.02.03c-.02 0-.03 0-.04-.02l-.07-.1-.11.02c-.02 0-.03 0-.04-.02v-.04l.08-.1-.05-.1z" fill="#ed7c9a"></path><path d="M7.96.53a.8.8 0 0 1 .34.09 1.75 1.75 0 0 1 .41.25l.08.07c.02 0 .03.02.04.03l.03.02.14.08c.12.05.24.06.37.06l.17-.03h.05l.03-.02h.02l.18-.02h.24a1.78 1.78 0 0 1 1.07.53 2.65 2.65 0 0 1 .4.5l.07.1.03.05.11.14c.03.03.06.06.1.07l.11.03h.02l.05.02a.33.33 0 0 1 .11.08l.02.02.02.02.1.06.08.04.03.03c.02 0 .04.02.05.03a.5.5 0 0 1 .13.13c.07.1.1.2.1.32l.01.13v.09c0 .04.02.09.04.12 0 .02.02.04.03.05l.06.05.1.07.13.12.06.12.06.2a3.81 3.81 0 0 1-.4 2.61l-.05.08-.03.06a2.57 2.57 0 0 0-.24 1.67c.03.2.08.41.13.61l.16.52.02.06.05.18a19.93 19.93 0 0 1 .08.26l.01.06.05.23-.01.11a.3.3 0 0 1-.05.11l-.03.03a.41.41 0 0 1-.23.09h-.3a1.02 1.02 0 0 0-.46.1c-.2.1-.38.28-.52.47l-.08.1-.04.06a.79.79 0 0 0-.12.26c-.03.13-.04.26-.03.4l.03.46a.3.3 0 0 0 0 .03v.09c-.01.1-.03.22-.07.32a.73.73 0 0 1-.12.2.42.42 0 0 1-.1.08.24.24 0 0 1-.14.04h-.05l-.03-.01a.36.36 0 0 1-.17-.18 1.22 1.22 0 0 1-.1-.31l-.01-.14v-.03c-.02-.1-.05-.21-.1-.3a.47.47 0 0 0-.1-.16.2.2 0 0 0-.08-.05h-.07l-.03.02a.15.15 0 0 0-.06.1v.11c.02.12.02.25 0 .37a.67.67 0 0 1-.07.2.35.35 0 0 1-.06.09.3.3 0 0 1-.05.04.23.23 0 0 1-.08.02.23.23 0 0 1-.13-.03.39.39 0 0 1-.08-.07.76.76 0 0 1-.11-.15 1.76 1.76 0 0 1-.1-.23l-.04-.08a.6.6 0 0 0-.01-.04l-.01-.03a.32.32 0 0 0-.06-.09.22.22 0 0 0-.11-.07.29.29 0 0 0-.2.04.54.54 0 0 0-.03.02l-.04.03a.8.8 0 0 0-.1.1.98.98 0 0 0-.15.27c-.06.15-.08.3-.1.47v.13a75.85 75.85 0 0 1 0 .24v.08a.88.88 0 0 1-.2.49.5.5 0 0 1-.29.16h-.12l-.05-.03a.36.36 0 0 1-.16-.22.94.94 0 0 1-.03-.22v-.46a2.28 2.28 0 0 0-.04-.28 1.56 1.56 0 0 0-.26-.47 1.89 1.89 0 0 0-.3-.3.6.6 0 0 0-.13-.08l-.05-.01h-.02c-.02 0-.03.02-.04.04l-.01.05-.02.08v.09c-.02.1-.04.22-.08.32a.49.49 0 0 1-.1.18.26.26 0 0 1-.1.06.24.24 0 0 1-.13 0 .32.32 0 0 1-.12-.07.59.59 0 0 1-.1-.13.77.77 0 0 1-.1-.26l-.01-.04v-.02a.33.33 0 0 0-.05-.1.38.38 0 0 0-.04-.05l-.04-.04a.33.33 0 0 0-.22-.09.23.23 0 0 0-.1.02.35.35 0 0 0-.1.1.85.85 0 0 0-.14.2l-.05.12-.16.38-.03.09-.06.13-.07.13a.94.94 0 0 1-.07.12.39.39 0 0 1-.14.11.24.24 0 0 1-.13.02.35.35 0 0 1-.2-.13.4.4 0 0 1-.04-.04l-.02-.03a.33.33 0 0 1-.04-.1.48.48 0 0 1 0-.15c0-.07.02-.13.04-.2l.04-.13c.01-.06.03-.12.03-.19v-.14l.02-.18v-.06a1.29 1.29 0 0 0-.06-.42l-.03-.07a.5.5 0 0 0-.04-.1l-.02.01-.03.04-.06.08-.01.01a.3.3 0 0 1-.14.11h-.03a.2.2 0 0 1-.04 0 .3.3 0 0 0-.04.02l-.04.03-.08.06c-.02 0-.02 0-.03.02a.5.5 0 0 1-.11.06.25.25 0 0 1-.07.01.19.19 0 0 1-.1-.02l-.02-.02c-.05-.04-.07-.12-.08-.18v-.26l.03-.12.03-.18v-.05l.02-.14a2.6 2.6 0 0 0-.04-.77 1.38 1.38 0 0 0-.12-.31.44.44 0 0 0-.05-.07.25.25 0 0 0-.05-.04.14.14 0 0 0-.03-.02h-.02c-.04 0-.07.02-.1.04l-.02.03-.02.02-.02.03-.03.03-.01.02a.49.49 0 0 1-.12.11.29.29 0 0 1-.2.05.4.4 0 0 1-.24-.13l-.03-.04-.04-.05a.72.72 0 0 1-.09-.18.71.71 0 0 1-.02-.27 2.14 2.14 0 0 1 .05-.35l.05-.24v-.07l.06-.4a2.4 2.4 0 0 0-.09-.9l-.02-.07-.04-.08-.01-.05c-.07-.17-.1-.35-.14-.52a6.91 6.91 0 0 1-.13-1.48 8.06 8.06 0 0 1 .16-1.56 2.35 2.35 0 0 1 .2-.48.94.94 0 0 1 .06-.1l.06-.06.04-.06.1-.12c0-.02.02-.03.03-.04l.08-.1a1 1 0 0 1 .42-.24 2.54 2.54 0 0 1 .42-.11l.06-.01.03-.01.1-.04a.28.28 0 0 0 .13-.15.38.38 0 0 0 .02-.08v-.2a.4.4 0 0 1 .02-.13 1.41 1.41 0 0 1 .2-.34 2.39 2.39 0 0 1 1.75-.84 2.86 2.86 0 0 1 .6.03l.07.02h.03a.3.3 0 0 0 .06 0l.05-.01A.25.25 0 0 0 6.6 1l.06-.07.02-.02A.86.86 0 0 1 6.8.8c.12-.07.25-.1.38-.11h.18a.68.68 0 0 0 .18-.06c.04 0 .07-.02.1-.03L7.7.57a.9.9 0 0 1 .22-.04h.04zM3.04 9.98h.06c.1.03.18.11.24.2l.03.05.04.07.03.08c.05.13.09.27.1.41a2.76 2.76 0 0 1-.02.83l-.02.12v.07a2.08 2.08 0 0 0-.02.34.46.46 0 0 0 .07-.04l.1-.07.02-.01.03-.02.02-.01a.18.18 0 0 1 .14-.04h.01a.79.79 0 0 0 .05-.06l.04-.07.02-.02a.43.43 0 0 1 .09-.08.21.21 0 0 1 .06-.03h.08l.03.01c.06.03.1.09.12.14l.01.03a1.5 1.5 0 0 1 .13.66l-.01.17v.14l-.01.07c0 .06-.02.11-.03.17l-.05.2-.02.09-.01.08c0 .03 0 .07.02.1l.02.02.06.06.02.01h.03a.2.2 0 0 0 .05-.05 5.11 5.11 0 0 0 .22-.43l.16-.37.07-.18.04-.06a.68.68 0 0 1 .26-.28.4.4 0 0 1 .12-.04.37.37 0 0 1 .14 0 .57.57 0 0 1 .39.24.6.6 0 0 1 .1.2v.09a.54.54 0 0 0 .12.22l.05.04.03.01.02-.02.02-.02a.86.86 0 0 0 .07-.21l.03-.17v-.09l.01-.03c0-.05.02-.1.04-.14a.32.32 0 0 1 .06-.08.27.27 0 0 1 .1-.06l.03-.01c.08-.01.15 0 .22.04l.04.02.04.03.06.04a1.3 1.3 0 0 1 .16.14 2.28 2.28 0 0 1 .42.63l.06.15.02.26v.3a1.32 1.32 0 0 0 0 .15l.01.07v.05l.01.04.01.03.03.07.03.04.02.01h.04a.1.1 0 0 0 .07-.03c.1-.04.15-.14.2-.23a.92.92 0 0 0 .05-.34v-.22c0-.23.03-.45.12-.66.05-.12.12-.24.21-.34l.05-.05a.6.6 0 0 1 .36-.16.43.43 0 0 1 .22.05l.1.07c.04.05.08.1.1.16l.04.12a1.21 1.21 0 0 0 .1.23l.07.1a.24.24 0 0 0 .06.05h.01a.13.13 0 0 0 .04-.04.43.43 0 0 0 .03-.1l.02-.14v-.17l-.01-.1v-.06l.01-.1a.34.34 0 0 1 .2-.21.32.32 0 0 1 .19 0c.06 0 .1.02.14.06a.5.5 0 0 1 .16.19 1.6 1.6 0 0 1 .13.4l.02.13v.04a1.26 1.26 0 0 0 .06.22l.01.03.02.02.01.02.01.02.01.01.04.02h.02a.18.18 0 0 0 .06-.06.72.72 0 0 0 .1-.22.9.9 0 0 0 .03-.27l-.01-.27-.02-.32c0-.13.02-.26.06-.38a1 1 0 0 1 .17-.33l.1-.14.28-.29a1.4 1.4 0 0 1 .6-.31 1.23 1.23 0 0 1 .39-.02 1.42 1.42 0 0 0 .2-.01l.03-.02c.01 0 .02 0 .03-.02l.01-.02v-.12l-.02-.09c0-.02 0-.03-.02-.05l-.07-.25-.02-.08-.02-.09-.02-.06-.12-.37-.02-.08a10.7 10.7 0 0 1-.2-.87 3.25 3.25 0 0 1 .08-1.18 2.58 2.58 0 0 1 .24-.6l.06-.1a3.34 3.34 0 0 0 .43-1.43 3.54 3.54 0 0 0-.07-1.01 1.26 1.26 0 0 0-.07-.2.25.25 0 0 0-.04-.06.44.44 0 0 0-.06-.05l-.09-.06a.7.7 0 0 1-.1-.09.41.41 0 0 1-.07-.1.49.49 0 0 1-.05-.23v-.1a1.1 1.1 0 0 0 0-.1.42.42 0 0 0-.1-.23.47.47 0 0 0-.11-.09l-.1-.05a.7.7 0 0 1-.18-.14h-.01c-.01-.02-.02-.02-.03-.02l-.04-.02h-.06a.41.41 0 0 1-.1-.04.51.51 0 0 1-.13-.1 1.2 1.2 0 0 1-.2-.25l-.05-.1-.03-.05a2.53 2.53 0 0 0-.25-.31 1.86 1.86 0 0 0-.76-.5 1.55 1.55 0 0 0-.5-.06 1 1 0 0 0-.14.01h-.01l-.04.02h-.04a1.03 1.03 0 0 1-.88-.17l-.08-.06a2.76 2.76 0 0 0-.4-.25.7.7 0 0 0-.29-.08c-.04 0-.08 0-.12.02a6.43 6.43 0 0 0-.22.07.94.94 0 0 1-.24.05h-.12a.77.77 0 0 0-.32.09.5.5 0 0 0-.04.03.57.57 0 0 0-.13.14l-.02.02a.36.36 0 0 1-.3.13l-.08-.01-.08-.02h-.05a2.84 2.84 0 0 0-.7-.02 2.34 2.34 0 0 0-1.18.53 1.87 1.87 0 0 0-.32.36.73.73 0 0 0-.06.12l-.02.08v.09l-.01.18a.48.48 0 0 1-.31.36.72.72 0 0 1-.1.04L3.45 3l-.07.01-.09.02-.27.08a1.03 1.03 0 0 0-.3.18l-.15.16-.08.1-.04.05-.05.06-.02.02a1 1 0 0 0-.1.21l-.1.24a3.51 3.51 0 0 0-.13.78 8.14 8.14 0 0 0 .24 2.74c0 .03.02.07.04.1l.02.06c.04.13.08.27.1.42a4.7 4.7 0 0 1-.05.98l-.07.35-.01.06-.04.26c0 .06 0 .12.02.17a.58.58 0 0 0 .1.17l.02.02c0 .01 0 .02.02.02l.01.02h.02c.02.03.05.04.09.04l.02-.01c.02 0 .03-.02.05-.04a.3.3 0 0 0 .04-.04l.03-.05.03-.03a.46.46 0 0 1 .19-.15l.04-.02h.08zm3-.26c.08 0 .14 0 .21.02a.76.76 0 0 1 .36.18c.13.12.2.28.25.44a1.73 1.73 0 0 1 .06.33c.02.25 0 .5-.12.73a.96.96 0 0 1-.46.46c-.19.08-.39.1-.59.1-.07 0-.15 0-.23-.02a.94.94 0 0 1-.28-.1.96.96 0 0 1-.27-.19 1.08 1.08 0 0 1-.28-.55v-.11a1.92 1.92 0 0 1 .14-.74.84.84 0 0 1 .24-.3.78.78 0 0 1 .33-.15l.16-.04.45-.06h.04zm1.34-.23a.33.33 0 0 1 .17.06.47.47 0 0 1 .17.22.4.4 0 0 1 .02.19c0 .02 0 .03-.02.05l-.02.37a2.25 2.25 0 0 0 .02.4l.07.16.03.04.01.03c.04.06.1.1.16.13l.07.01a.23.23 0 0 0 .16-.07l.02-.03.01-.06a3.01 3.01 0 0 0 .08-.84v-.21a.56.56 0 0 1 .14-.32c.06-.06.14-.1.23-.1a.24.24 0 0 1 .15.05l.07.08.05.1a3.25 3.25 0 0 1 0 1.2 3.34 3.34 0 0 1-.2.67.98.98 0 0 1-.03.05.55.55 0 0 1-.22.18.98.98 0 0 1-.35.1 1.18 1.18 0 0 1-.8-.22l-.08-.06a.72.72 0 0 1-.06-.06.93.93 0 0 1-.19-.35l-.02-.07a3.24 3.24 0 0 1-.05-.74l.01-.22a8.1 8.1 0 0 1 .07-.42l.01-.04.02-.04a.38.38 0 0 1 .16-.2l.04-.03h.1zm-1.36.4a2.3 2.3 0 0 0-.83.19.69.69 0 0 0-.22.28c-.05.1-.08.2-.1.3a1.77 1.77 0 0 0-.03.34v.05l.02.07a.95.95 0 0 0 .3.51c.1.08.21.13.33.16a1.09 1.09 0 0 0 .32.03 1.08 1.08 0 0 0 .57-.15.78.78 0 0 0 .3-.39.9.9 0 0 0 .08-.28 1.45 1.45 0 0 0-.06-.6.78.78 0 0 0-.2-.37.59.59 0 0 0-.28-.13.91.91 0 0 0-.17-.02h-.03zm1.34-.24h-.02a.14.14 0 0 0-.08.07l-.01.02-.01.02-.02.03v.04l-.02.05a.6.6 0 0 0-.01.05l-.02.1-.01.1-.02.15-.01.19a3.26 3.26 0 0 0 .05.68l.02.08c.03.1.08.2.14.27a.5.5 0 0 0 .1.09 1.06 1.06 0 0 0 .88.17.7.7 0 0 0 .17-.07.44.44 0 0 0 .12-.11l.02-.05.04-.08.09-.3a3.47 3.47 0 0 0 .07-1.33.35.35 0 0 0-.04-.08.18.18 0 0 0-.03-.04.09.09 0 0 0-.04-.02c-.04-.01-.07 0-.1.03l-.02.01-.01.02-.02.02a.42.42 0 0 0-.08.3v.11l.01.11a2.6 2.6 0 0 1-.1.8v.02a.3.3 0 0 1-.11.14.39.39 0 0 1-.35.05.5.5 0 0 1-.24-.2.9.9 0 0 1-.16-.5v-.18l.03-.42v-.04l.01-.01a.2.2 0 0 0-.01-.11.31.31 0 0 0-.1-.14.19.19 0 0 0-.1-.04zm3.4-1.37h.06a.6.6 0 0 1 .33.11c.04.04.08.08.1.13a.56.56 0 0 1 .06.46l-.02.05a.28.28 0 0 1-.04.06l-.03.03a.54.54 0 0 1-.26.13l-.04.01a.7.7 0 0 1-.06.01h-.12l-.05.01a.88.88 0 0 0-.23.06 13.56 13.56 0 0 1 .15 1.45l-.01.16a.53.53 0 0 1-.07.2l-.03.06-.02.03a.35.35 0 0 1-.19.15h-.04a.23.23 0 0 1-.12-.02.33.33 0 0 1-.09-.05.72.72 0 0 1-.13-.16 1.79 1.79 0 0 1-.16-.37 4.73 4.73 0 0 1-.14-.7l-.08-.54v-.02h-.05l-.05.01c-.12.02-.24.04-.36.03a.62.62 0 0 1-.23-.06.32.32 0 0 1-.19-.23.37.37 0 0 1 0-.15.5.5 0 0 1 .14-.23c.06-.06.12-.1.18-.14l.24-.12a3.6 3.6 0 0 1 .86-.23l.1-.03a2.43 2.43 0 0 1 .54-.1h.05zM5.77 10.3h.08a.77.77 0 0 1 .31.15l.06.04a.4.4 0 0 1 .13.24.5.5 0 0 1-.2.46.46.46 0 0 1-.31.11.63.63 0 0 1-.33-.08c-.02 0-.03-.02-.04-.03a.4.4 0 0 1-.1-.1.53.53 0 0 1-.07-.32l.01-.07.01-.04.02-.05a.61.61 0 0 1 .03-.07.5.5 0 0 1 .21-.2.4.4 0 0 1 .17-.04h.02zm4.96-1.86a1.7 1.7 0 0 0-.5.08l-.12.04-.05.01-.04.01-.08.02a4.64 4.64 0 0 0-.86.28.95.95 0 0 0-.15.1l-.02.03a.3.3 0 0 0-.1.16v.03a.21.21 0 0 0 .03.1c0 .02.02.03.04.05l.08.03.1.02h.15a1.5 1.5 0 0 0 .36-.05h.04c.02 0 .05.02.06.04v.03a4.83 4.83 0 0 0 .07.52 8.98 8.98 0 0 0 .23.97l.04.08.03.06.03.05.03.04.02.02.02.03h.01l.01.02c.03.01.05.03.08.02h.02l.05-.04a.76.76 0 0 0 .11-.18 4 4 0 0 0-.04-1.08l-.09-.6v-.07l.02-.02.02-.02.03-.02.03-.01a1.43 1.43 0 0 1 .3-.07h.1a.5.5 0 0 1 .05 0l.05-.02h.05l.03-.02a.28.28 0 0 0 .15-.08l.02-.03a.29.29 0 0 0 .03-.2.7.7 0 0 0-.03-.1l-.02-.07a.23.23 0 0 0-.04-.05.27.27 0 0 0-.1-.07.52.52 0 0 0-.21-.04h-.04zm-4.98 2.02l-.07.01a.34.34 0 0 0-.18.18l-.02.04v.01a.58.58 0 0 0-.01.19c0 .05.03.11.07.15.05.06.13.08.2.1a.68.68 0 0 0 .15 0A.35.35 0 0 0 6.1 11a.3.3 0 0 0 .03-.04.31.31 0 0 0 .05-.24.2.2 0 0 0-.04-.08.4.4 0 0 0-.08-.07.91.91 0 0 0-.06-.04.52.52 0 0 0-.23-.08h-.01zM3.9 3.48a.9.9 0 0 1 .23.02l.04.02c.07.02.13.05.17.11l.02.03.01.04a.2.2 0 0 1 0 .05.2.2 0 0 1 0 .07.34.34 0 0 1-.06.1 1.24 1.24 0 0 1-.2.2 2.52 2.52 0 0 1-.5.3c-.04 0-.07.03-.1.04l-.05.02a.88.88 0 0 0-.2.16.46.46 0 0 0-.08.12.35.35 0 0 0-.03.14v.04c.02.1.08.18.16.25l.04.03.17.1a.77.77 0 0 0 .51 0l.05-.03a2.88 2.88 0 0 1 .48-.24L4.8 5a.92.92 0 0 1 .39.02c.1.02.19.07.26.14a1.46 1.46 0 0 1 .36 1.41 1.4 1.4 0 0 1-.44.64 2.37 2.37 0 0 1-.74.45l-.13.05-.1.03a1.45 1.45 0 0 1-.8.02 1.06 1.06 0 0 1-.3-.16.84.84 0 0 1-.19-.2.62.62 0 0 1-.08-.17.37.37 0 0 1-.01-.12l.01-.07.02-.04a.68.68 0 0 1 .13-.17.48.48 0 0 1 .23-.12.8.8 0 0 1 .4.05 2.72 2.72 0 0 0 .73-.18.6.6 0 0 0 .14-.1.16.16 0 0 0 .05-.08v-.08a.2.2 0 0 0-.08-.1.31.31 0 0 0-.16-.06h-.16a1.57 1.57 0 0 0-.45.13l-.21.09h-.01l-.16.04-.27.04c-.15 0-.3-.02-.45-.08a.96.96 0 0 1-.4-.3 1.42 1.42 0 0 1-.11-1.51c.07-.16.17-.3.28-.42a2.33 2.33 0 0 1 .78-.56 1.6 1.6 0 0 1 .53-.1h.03zm-.03.16a1.44 1.44 0 0 0-.76.24 2.21 2.21 0 0 0-.7.75 1.34 1.34 0 0 0-.15.64 1.32 1.32 0 0 0 .22.66.86.86 0 0 0 .3.26.9.9 0 0 0 .36.1 1.27 1.27 0 0 0 .47-.07l.04-.02.07-.03A2.95 2.95 0 0 1 4.3 6l.18-.01.14.02a.4.4 0 0 1 .15.1.36.36 0 0 1 .1.34.34.34 0 0 1-.05.1.52.52 0 0 1-.15.12 1.05 1.05 0 0 1-.28.13 2.45 2.45 0 0 1-.57.1h-.06l-.04-.01a.5.5 0 0 0-.08-.02.49.49 0 0 0-.25 0 .33.33 0 0 0-.11.07.45.45 0 0 0-.1.12v.02l-.01.02v.07l.04.1.12.16a.76.76 0 0 0 .31.17 1.2 1.2 0 0 0 .76-.03 2.02 2.02 0 0 0 .35-.15 2.58 2.58 0 0 0 .54-.38 1.14 1.14 0 0 0 .41-.84 1.28 1.28 0 0 0-.38-.94.51.51 0 0 0-.2-.1.79.79 0 0 0-.33 0c-.08 0-.15.03-.23.06a2.1 2.1 0 0 0-.46.23l-.01.01h-.01l-.04.02a.91.91 0 0 1-.81-.13.62.62 0 0 1-.26-.41.47.47 0 0 1 .03-.21.71.71 0 0 1 .27-.33l.06-.04.18-.1a3.74 3.74 0 0 0 .33-.18l.09-.05.07-.05.1-.09a.53.53 0 0 0 .07-.08V3.8h.01v-.02c.01-.01.02-.03.01-.04a.07.07 0 0 0-.02-.03.2.2 0 0 0-.06-.03.98.98 0 0 0-.22-.03h-.04zm7.85-.05a.44.44 0 0 1 .24.08l.13.13.03.05.05.06a1.84 1.84 0 0 1 .22.5 4.41 4.41 0 0 1 .14.5v.04c.02.04.02.09.01.14 0 .02 0 .04-.02.06a.21.21 0 0 1-.06.08l-.02.01a.3.3 0 0 1-.19.02h-.04a.6.6 0 0 1-.07-.03h-.03l-.02-.02-.02-.02-.02-.03-.07-.1-.06-.08-.15-.17-.02-.02-.02-.02h-.01c-.02-.02-.03-.02-.05-.02l-.02.02-.02.03a.24.24 0 0 0-.03.11l.02.03.03.04.1.12.13.15.12.15.03.05.02.05v.2l-.04.08a.2.2 0 0 1-.08.07l-.02.02a.32.32 0 0 1-.2 0l-.04-.02-.04-.01a.51.51 0 0 1-.14-.09l-.14-.16-.02-.02-.04-.04a.1.1 0 0 0-.05-.03h-.07v.01h-.01v.04l.03.05a5 5 0 0 0 .3.36l.05.04.03.02c.05.05.1.11.11.18v.07c0 .07-.03.12-.07.17l-.04.05-.04.05a.2.2 0 0 1-.1.04h-.07a.46.46 0 0 1-.14-.04 4.1 4.1 0 0 1-.65-.47l-.03-.03a.85.85 0 0 1-.13-.14.52.52 0 0 1-.1-.26.43.43 0 0 1 .03-.2.46.46 0 0 1 .06-.1l.04-.08a6 6 0 0 0 .35-.72l.03-.1c.04-.12.08-.24.15-.35a1 1 0 0 1 .74-.5zm-.01.16h-.05l-.06.02-.12.05a.84.84 0 0 0-.4.41l-.1.21c0 .05-.02.09-.03.13l-.01.04a2.72 2.72 0 0 1-.27.58 7.13 7.13 0 0 1-.14.24l-.02.02v.02a.31.31 0 0 0-.04.14.2.2 0 0 0 0 .04c.02.09.07.16.13.22l.03.04.04.03.2.16.1.08.07.06.08.05.06.04.05.03.03.02.03.02h.03l.02.01.05.01h.03l.01-.02.03-.02a.47.47 0 0 0 .05-.07.12.12 0 0 0 .02-.06l-.03-.07-.12-.11-.03-.03a2.2 2.2 0 0 1-.32-.4.24.24 0 0 1-.03-.15l.01-.04a.15.15 0 0 1 .04-.05c.04-.04.1-.06.15-.06a.32.32 0 0 1 .11.02h.03c.07.04.12.1.17.17l.03.04.03.03c.02.02.04.05.07.06l.04.02a.54.54 0 0 0 .13.04l.06-.01a.1.1 0 0 0 .02-.05.34.34 0 0 0 0-.1v-.04a1.78 1.78 0 0 0-.07-.1l-.19-.21-.05-.06a1.07 1.07 0 0 1-.1-.12.25.25 0 0 1-.03-.1V4.9a.33.33 0 0 1 .01-.1l.01-.04a.27.27 0 0 1 .14-.16h.03l.04-.01h.06l.1.07.05.04.05.05c.09.1.17.22.25.33a.44.44 0 0 0 .12.03h.02c.02 0 .03 0 .04-.02l.01-.02v-.12a4.65 4.65 0 0 0-.3-.85 1.14 1.14 0 0 0-.15-.24.35.35 0 0 0-.17-.1l-.04-.01h-.01zM4.02 5.32zm6.3-3.27l.15.01a.94.94 0 0 1 .36.13.83.83 0 0 1 .24.24 1 1 0 0 1 .1.22l.04.16v.01a.35.35 0 0 1 0 .13.35.35 0 0 1-.04.1.4.4 0 0 1-.3.17h-.06a.4.4 0 0 1-.1-.02.31.31 0 0 1-.13-.08l-.04-.06-.02-.02a.36.36 0 0 0-.12-.1.33.33 0 0 0-.16-.04h-.07l-.06.01a.34.34 0 0 0-.1.05.5.5 0 0 0-.12.12.77.77 0 0 0-.12.25 1.4 1.4 0 0 0 0 .7l.06.11.06.06c.08.07.2.1.3.1a.74.74 0 0 0 .2-.03h.08a.18.18 0 0 1 .07.02c.06.04.1.1.1.17a.4.4 0 0 1 .01.15.6.6 0 0 1-.1.24.73.73 0 0 1-.15.18.68.68 0 0 1-.4.12 1.2 1.2 0 0 1-.87-.4.75.75 0 0 1-.13-.2 2.24 2.24 0 0 1-.17-.77 2.68 2.68 0 0 1 0-.36 1.67 1.67 0 0 1 .32-.88 1.1 1.1 0 0 1 .47-.35l.25-.08.42-.06h.03zm-4.96-.6a1.85 1.85 0 0 1 .61.12.54.54 0 0 1 .13.08.9.9 0 0 1 .26.46.83.83 0 0 1 .02.25c-.02.2-.12.38-.23.53l-.05.07a1.6 1.6 0 0 1-.07.08l-.1.1a2.77 2.77 0 0 1-.33.28l-.02.01v.07a4.88 4.88 0 0 0 .3.99l.03.07.01.03c.02.05.04.1.04.15a.32.32 0 0 1-.03.15s0 .02-.02.03a.4.4 0 0 1-.24.16h-.05v.01h-.05l-.04-.02a1.4 1.4 0 0 1-.5-.33 2.05 2.05 0 0 1-.34-.44 2.94 2.94 0 0 1-.32-.88 4.82 4.82 0 0 1-.09-.5l-.02-.24v-.11a1.33 1.33 0 0 1 .16-.68.95.95 0 0 1 .25-.25.98.98 0 0 1 .25-.12 1.33 1.33 0 0 1 .38-.06h.06zm4.94.76a1.78 1.78 0 0 0-.6.13 1.02 1.02 0 0 0-.45.33c-.13.18-.2.4-.24.63L9 3.4a2.2 2.2 0 0 0 .02.64 2.26 2.26 0 0 0 .14.46l.05.1c.05.08.12.14.2.2a1.03 1.03 0 0 0 .6.19l.15-.02a.4.4 0 0 0 .21-.14.5.5 0 0 0 .12-.22v-.09a.17.17 0 0 0 0-.06c-.01-.01-.02-.03-.04-.03h-.04l-.03.01a.9.9 0 0 1-.27.02.69.69 0 0 1-.16-.04.56.56 0 0 1-.16-.1.55.55 0 0 1-.15-.21.86.86 0 0 1-.06-.2v-.13l-.01-.13v-.1a1.22 1.22 0 0 1 .2-.57.59.59 0 0 1 .35-.23h.05l.08-.01.12.01a.4.4 0 0 1 .11.04c.07.04.12.09.16.14l.04.05.01.03h.01c.04.04.1.06.14.05a.3.3 0 0 0 .04 0h.04c.05-.02.11-.06.13-.12V2.9c.01-.02.01-.04 0-.07l-.01-.07-.03-.1a.8.8 0 0 0-.2-.29.66.66 0 0 0-.14-.1.83.83 0 0 0-.35-.07h-.02zm-4.98-.6a1.09 1.09 0 0 0-.22.03.94.94 0 0 0-.38.16.65.65 0 0 0-.18.2.92.92 0 0 0-.09.23 1.4 1.4 0 0 0-.03.39l.02.25a6.15 6.15 0 0 0 .25 1.05c.07.18.16.34.26.5.11.15.25.3.4.4a.95.95 0 0 0 .26.1c.03 0 .06 0 .08-.02a.22.22 0 0 0 .09-.06v-.02c.03-.04.02-.09 0-.13v-.04l-.02-.04-.03-.04a4.89 4.89 0 0 1-.32-1.15v-.03c0-.01 0-.03.02-.04l.01-.01.07-.05a3.24 3.24 0 0 0 .54-.53.9.9 0 0 0 .17-.46.7.7 0 0 0-.02-.2.66.66 0 0 0-.17-.3.33.33 0 0 0-.05-.04 1.07 1.07 0 0 0-.2-.08 1.68 1.68 0 0 0-.42-.06h-.04zm2.36-.2h.1l.07.03.07.03c.09.06.15.14.21.23l.1.18.05.12a6.8 6.8 0 0 1 .5 1.69v.37a.77.77 0 0 1-.1.32.46.46 0 0 1-.08.1l-.02.01-.03.02a.39.39 0 0 1-.1.03.29.29 0 0 1-.23-.06.43.43 0 0 1-.1-.12 1.54 1.54 0 0 1-.13-.25 4.98 4.98 0 0 1-.26-.8l-.04-.01a.9.9 0 0 0-.25-.03.55.55 0 0 0-.2.04v.05a2.48 2.48 0 0 1-.16.47l-.13.22c-.07.1-.17.2-.28.26a.73.73 0 0 1-.27.1h-.06a.4.4 0 0 1-.27-.07.23.23 0 0 1-.06-.07A.28.28 0 0 1 6 4.2.36.36 0 0 1 6 4v-.05a5.05 5.05 0 0 1 .7-1.8 2.49 2.49 0 0 1 .66-.64l.03-.02h.01l.02-.02a.52.52 0 0 1 .23-.07h.03zm-.01.15a.32.32 0 0 0-.18.06l-.03.02-.02.01-.16.11a2.44 2.44 0 0 0-.65.82 3.7 3.7 0 0 0-.31.75c-.05.13-.08.27-.12.42l-.03.17-.02.11v.03l-.01.02v.1l.02.01c.02.03.06.05.1.05h.04a.54.54 0 0 0 .35-.1.86.86 0 0 0 .2-.23l.1-.19a1.85 1.85 0 0 0 .14-.47v-.01l.02-.03.02-.02h.01l.02-.02a.7.7 0 0 1 .1-.03.78.78 0 0 1 .34-.02 1.08 1.08 0 0 1 .24.06l.04.04v.06a1.93 1.93 0 0 0 .11.39 6.08 6.08 0 0 0 .25.59l.01.02c.03.04.05.08.1.1h.09l.06-.02.02-.02a.4.4 0 0 0 .07-.15 1.16 1.16 0 0 0 .03-.36 2.88 2.88 0 0 0-.16-.85A7.37 7.37 0 0 0 8.11 2l-.04-.1-.05-.07c0-.02-.02-.04-.03-.05a.74.74 0 0 0-.05-.08.38.38 0 0 0-.2-.14.3.3 0 0 0-.06 0h-.01zM5.99 4zm0 0zm-.67-1.84h.06l.15.09c.04.04.07.09.09.15v.16a.41.41 0 0 1-.09.13.55.55 0 0 1-.18.13.43.43 0 0 1-.15.04h-.01l-.03-.01-.01-.01-.22-.31v-.07l.01-.02a.89.89 0 0 1 .1-.15.42.42 0 0 1 .21-.14h.07zm2.22.12a.41.41 0 0 1 .12.02c.06.02.12.06.15.11l.01.03.01.04a.3.3 0 0 1-.05.2l-.02.02-.02.03-.01.02-.03.01h-.06a1.13 1.13 0 0 1-.1-.02.4.4 0 0 1-.22-.13.2.2 0 0 1-.03-.18l.02-.04a.21.21 0 0 1 .04-.05.27.27 0 0 1 .17-.06h.02zm-2.23 0c-.05 0-.1.03-.14.06l-.02.02-.02.03a.75.75 0 0 0-.07.1l.16.25h.02a.38.38 0 0 0 .1-.05.4.4 0 0 0 .09-.06.32.32 0 0 0 .06-.1.16.16 0 0 0 .01-.1.19.19 0 0 0-.06-.1.22.22 0 0 0-.09-.05h-.04zm2.22.12c-.04 0-.07 0-.1.02l-.01.02-.01.02v.06l.02.03.08.05.14.04a.34.34 0 0 0 .05-.06.14.14 0 0 0 .01-.08v-.02a.1.1 0 0 0-.04-.04l-.04-.02a.3.3 0 0 0-.09-.02h-.01z" fill="#433231"></path><path d="M4.33 9.48c.05 0 .1.04.1.1a.1.1 0 1 1-.1-.1zM2.6 7.13c.05 0 .1.04.1.1a.1.1 0 1 1-.1-.1zm4.34-.32c.05 0 .1.04.1.1a.1.1 0 1 1-.2 0c0-.06.05-.1.1-.1zm3.73-3.25a.1.1 0 1 1 0 .19.1.1 0 1 1 0-.19zM8.75 2.01a.1.1 0 1 1 0 .2.1.1 0 0 1 0-.2z" fill="#fff"></path><path d="M4.76 11.05s-.06-.98.63-1.15c.68-.17 1.23-.2 1.41.55.18.76-.14 1.55-1.17 1.44-.8-.08-.87-.84-.87-.84zM7.11 9.9s-.26 1.34.25 1.73c.52.4 1.16.26 1.32-.01.16-.28.32-1.05.25-1.67-.07-.62-.58-.3-.52.15.06.45-.1.97-.1.97 0 .13-.34.33-.57-.05-.14-.24-.14-.42-.1-1.02.14-.26-.4-.74-.53-.1zm2.49-.46s-.74.2-.86-.14c-.18-.56 1.34-.8 1.34-.8s.94-.36 1.12.1c.18.46-.12.59-.43.6-.3.02-.4.1-.4.1s.25 1.46.12 1.76c-.13.3-.33.4-.55-.01a6.75 6.75 0 0 1-.34-1.61zm-4.2 1.25s.17-.56.73-.15c.31.22.06.68-.27.69-.6.01-.46-.54-.46-.54zm-.85-2.11c-.21.1-.28.18-.26.24.03.13.55.12 1.15-.03.6-.16 1.06-.4 1.02-.53-.01-.06-.34-.09-.34-.09l.05.1s.06.03.07.05c.02.1-.35.26-.82.38-.48.13-.88.16-.9.06l.03-.07v-.11zm-.74-1.74s1.16-.1.98-.56c-.17-.47-1.16.03-1.16.03s-1.01.37-1.37-.6c-.36-.98.48-1.76 1.03-2.02.6-.28 1.8-.1.2.7-.94.46-.13 1.27.57 1.01 0 0 .93-.67 1.41-.1.37.42.67 1.42-.52 2.11-1.37.8-1.96-.11-1.84-.36.09-.15.25-.37.7-.21zm4.08-.52c-.3 0-.42.05-.43.14-.03.17.57.43 1.35.57.78.15 1.45.1 1.48-.06.01-.08-.36-.28-.36-.28l.01.14s.05.06.05.09c-.02.13-.54.12-1.16 0-.61-.1-1.1-.28-1.07-.4 0-.04.07-.08.07-.08a.75.75 0 0 1 .06-.12zm4.08-.77c0-.1-.45-.52-.45-.63 0-.15.11-.35.28-.17.18.18.33.4.33.4s.4.2.31-.22c-.1-.4-.35-1.38-.83-1.24-.49.14-.65.5-.74.85-.1.35-.42.86-.42.86s-.23.3.17.62c.4.33.73.6.87.45.14-.16.16-.26-.04-.43a2.3 2.3 0 0 1-.36-.43s-.1-.18.12-.18c.18 0 .23.24.4.32.02.01.4.23.36-.2zm-1.58-1.18s-.68.2-.73-.52c-.06-.71.26-.99.48-1.01.22-.03.35.01.48.21.13.2.6.1.51-.22-.04-.16-.18-.95-1.36-.6-1.18.36-.9 2.04-.62 2.43.26.39.94.56 1.24.28.29-.27.2-.65 0-.57zM5.61 5s-1.03-.14-1.26-2.22C4.17 1.14 5.86 1.54 6.04 1.7c0 0 .87.68-.55 1.7 0 0 .1.7.34 1.18.2.38-.22.43-.22.43zm.46-.99s.25-1.8 1.38-2.47c0 0 .36-.27.65.25.28.53.9 2.22.45 2.62 0 0-.2.13-.33-.04a3.69 3.69 0 0 1-.42-1.13s-.35-.14-.63.01c0 0-.15 1.07-.85 1.07-.35 0-.25-.3-.25-.3zM5.19 2.8L5 2.5s.21-.44.48-.22c.26.22-.06.51-.28.52zm2.5-.1s.2-.22-.01-.33c-.22-.1-.4.05-.32.18.07.14.33.16.33.16z" fill="#f3de4e"></path></svg>