<svg viewBox="0 0 64 64" xmlns="http://www.w3.org/2000/svg" fill-rule="evenodd" clip-rule="evenodd" stroke-linejoin="round" stroke-miterlimit="1.41"><path d="M32.55 9.15h.16c2.03.1 3.44 1.43 4.97 2.82C45.43 19 54.75 33.29 57.74 45.15c.47 1.87 1.01 3.8-.05 5.5-1.07 1.69-3.06 2.4-5.13 2.73-5.6.91-12.74 1.37-19.85 1.39h-.31c-7.11-.02-14.25-.48-19.84-1.39-2.08-.34-4.07-1.04-5.14-2.74-1.06-1.69-.52-3.62-.05-5.5C10.36 33.3 19.68 19 27.43 11.98c1.53-1.4 2.94-2.73 4.97-2.82h.16z" fill="#ef2b2b"/><clipPath id="a"><path d="M32.55 9.15h.16c2.03.1 3.44 1.43 4.97 2.82C45.43 19 54.75 33.29 57.74 45.15c.47 1.87 1.01 3.8-.05 5.5-1.07 1.69-3.06 2.4-5.13 2.73-5.6.91-12.74 1.37-19.85 1.39h-.31c-7.11-.02-14.25-.48-19.84-1.39-2.08-.34-4.07-1.04-5.14-2.74-1.06-1.69-.52-3.62-.05-5.5C10.36 33.3 19.68 19 27.43 11.98c1.53-1.4 2.94-2.73 4.97-2.82h.16z"/></clipPath><g clip-path="url(#a)"><path d="M34.23 8.02h.15c2.03.09 3.44 1.42 4.97 2.81 7.75 7.04 17.07 21.32 20.06 33.18.47 1.88 1.01 3.8-.05 5.5-1.07 1.7-3.06 2.4-5.13 2.74-5.6.9-12.74 1.37-19.85 1.38h-.31a131.2 131.2 0 0 1-19.84-1.38c-2.08-.34-4.07-1.04-5.14-2.74-1.06-1.7-.52-3.62-.05-5.5 2.99-11.86 12.31-26.14 20.06-33.18 1.53-1.39 2.94-2.72 4.97-2.8v-.01h.16z" fill="#f14a50"/></g><circle cx="20.51" cy="35.63" r="2.98" fill="url(#b)"/><clipPath id="c"><circle cx="20.51" cy="35.63" r="2.98"/></clipPath><g clip-path="url(#c)" fill="#fff"><circle cx="19.22" cy="37.2" r="1.29"/><circle cx="20.3" cy="35.12" r=".65"/></g><ellipse cx="20.51" cy="37.96" rx="3.1" ry=".87" fill="#5aa7e7"/><circle cx="44.41" cy="35.63" r="2.98" fill="url(#d)"/><clipPath id="e"><circle cx="44.41" cy="35.63" r="2.98"/></clipPath><g clip-path="url(#e)" fill="#fff"><circle cx="43.11" cy="37.2" r="1.29"/><circle cx="44.19" cy="35.12" r=".65"/></g><ellipse cx="44.41" cy="37.96" rx="3.1" ry=".87" fill="#5aa7e7"/><path d="M32.45 42.83h.34l.33.02.32.02a12.24 12.24 0 0 1 4.27 1.22 6.75 6.75 0 0 1 1.2.85 3.58 3.58 0 0 1 .69.87 2.22 2.22 0 0 1 .22.73c.01.1.01.18 0 .28v.04l-.2.2-.2-.2a1.36 1.36 0 0 0-.32-.77 2.73 2.73 0 0 0-.9-.74 4.45 4.45 0 0 0-.79-.36 8.08 8.08 0 0 0-1.39-.39 12.17 12.17 0 0 0-1.36-.2l-.18-.01a15.7 15.7 0 0 0-1.12-.06h-1.12l-.3.02-.73.03-.42.03c-.14 0-.27.02-.4.04l-.25.03a13.02 13.02 0 0 0-1.06.17l-.5.11a9.91 9.91 0 0 0-1.51.54 5 5 0 0 0-.69.43c-.13.1-.25.22-.36.35-.18.22-.3.47-.34.75v.03l-.2.2-.2-.2a1.51 1.51 0 0 1 0-.41 2.76 2.76 0 0 1 .84-1.49 4.83 4.83 0 0 1 .53-.44 7.4 7.4 0 0 1 1-.62l.2-.1a10.79 10.79 0 0 1 4.35-.97h.25zm-9.24-16.17l.02.58-.39.42-3.65 1.67-.58.02-.42-.4-.02-.57.4-.43 3.64-1.66.58-.02.42.39zm19.49.46l3.66 1.66.39.43-.02.57-.42.4-.58-.02-3.65-1.66-.4-.43.02-.57.43-.4.57.02z" fill="#2e0d19" fill-rule="nonzero"/><path d="M44.37 40.58s-1.46 1.88-1.46 2.7a1.46 1.46 0 0 0 2.92 0c0-.82-1.46-2.7-1.46-2.7z" fill="#5aa7e7"/><path d="M45.24 42.97c.31.21.37.7.11 1.08-.25.38-.72.52-1.03.3-.32-.2-.37-.69-.12-1.07.25-.38.72-.52 1.04-.3z" fill="#b1d6f4"/><path d="M47.69 45.89s-1.46 1.89-1.46 2.7a1.46 1.46 0 0 0 2.92 0c0-.82-1.46-2.7-1.46-2.7z" fill="#5aa7e7"/><path d="M48.56 48.28c.31.21.37.7.11 1.08-.25.38-.71.52-1.03.3-.32-.2-.37-.69-.12-1.07.25-.38.72-.52 1.04-.3z" fill="#b1d6f4"/><path d="M20.55 40.58s1.46 1.88 1.46 2.7a1.46 1.46 0 0 1-2.92 0c0-.82 1.46-2.7 1.46-2.7z" fill="#5aa7e7"/><path d="M19.68 42.97c-.31.21-.37.7-.11 1.08.25.38.71.52 1.03.3.32-.2.37-.69.12-1.07-.25-.38-.72-.52-1.04-.3z" fill="#b1d6f4"/><path d="M17.23 45.89s1.46 1.89 1.46 2.7a1.46 1.46 0 0 1-2.92 0c0-.82 1.46-2.7 1.46-2.7z" fill="#5aa7e7"/><path d="M16.36 48.28c-.32.21-.37.7-.11 1.08.25.38.71.52 1.03.3.32-.2.37-.69.12-1.07-.26-.38-.72-.52-1.04-.3z" fill="#b1d6f4"/><path d="M47.88 45.89s-1.46 1.89-1.46 2.7a1.46 1.46 0 0 0 2.92 0c0-.82-1.46-2.7-1.46-2.7z" fill="#5aa7e7"/><path d="M48.75 48.28c.32.21.37.7.11 1.08-.25.38-.71.52-1.03.3-.32-.2-.37-.69-.12-1.07.26-.38.72-.52 1.04-.3z" fill="#b1d6f4"/><defs><radialGradient id="b" cx="0" cy="0" r="1" gradientUnits="userSpaceOnUse" gradientTransform="translate(20.51 35.63) scale(2.97474)"><stop offset="0%" stop-color="#1d1d1d"/><stop offset="100%"/></radialGradient><radialGradient id="d" cx="0" cy="0" r="1" gradientUnits="userSpaceOnUse" gradientTransform="translate(44.4 35.63) scale(2.97474)"><stop offset="0%" stop-color="#1d1d1d"/><stop offset="100%"/></radialGradient></defs></svg>