<svg xmlns="http://www.w3.org/2000/svg" viewBox="0 0 40 40"><path d="M22.191 31.492C14.977 31.391 8.5 29.742 8.5 20c0-7.031-.238-10.762-2.336-13.453 2.637.219 4.797 1.183 6.3 2.828 1.544 1.691 2.266 4 2.04 6.508l-.016.14z" fill="#dff0fe"/><path d="M7.203 7.184c2.02.351 3.684 1.21 4.89 2.53 1.446 1.583 2.126 3.759 1.91 6.126l-.026.281.128.254 7.266 14.602C14.754 30.754 9 28.94 9 20c0-6.387-.2-10.102-1.797-12.816M5 6c2.742 2.664 3 6.336 3 14 0 11.46 9.11 12 15 12l-8-16.07C15.484 10.602 11.895 6 5 6z" fill="#4788c7"/><path d="M22 31.5c-7.254 0-10.5-5.273-10.5-10.5 0-3.8 1.559-6.844 2.93-9.527 1.793-3.504 3.363-6.567.73-9.922 6.79.605 7.34 6.558 7.34 8.449 0 3.695-1.3 6.563-2.45 9.094-.831 1.832-1.55 3.414-1.55 4.906 0 1.93 1.57 3.5 3.5 3.5s3.5-1.57 3.5-3.5c0-2.645 1.469-5.5 3.84-5.5 2.176 0 3.965 2.242 4.144 5.094-2.375.203-3.214 1.843-4.023 3.433-1.125 2.2-2.29 4.473-7.461 4.473z" fill="#dff0fe"/><path d="M16.207 2.2C21.387 3.222 22 7.866 22 10c0 3.586-1.277 6.402-2.406 8.887C18.738 20.77 18 22.398 18 24c0 2.207 1.793 4 4 4s4-1.793 4-4c0-2.414 1.344-5 3.34-5 1.793 0 3.289 1.797 3.601 4.16-2.273.402-3.144 2.11-3.93 3.64-1.1 2.16-2.144 4.2-7.011 4.2-6.906 0-10-5.023-10-10 0-3.68 1.527-6.664 2.875-9.3 1.64-3.204 3.203-6.255 1.332-9.5M14 1c5.973 5.973-3 10.68-3 20 0 5.805 3.715 11 11 11 9.68 0 6.313-7.93 12-7.93 0-3.168-1.945-6.07-4.66-6.07-2.711 0-4.34 3.176-4.34 6a3 3 0 0 1-6 0c0-3.328 4-7.48 4-14 0-4.496-2.336-9-9-9z" fill="#4788c7"/><path d="M25.5 24a3.5 3.5 0 1 1-7 0 3.5 3.5 0 1 1 7 0z" fill="#dff0fe"/><path d="M22 21c1.652 0 3 1.348 3 3s-1.348 3-3 3-3-1.348-3-3 1.348-3 3-3m0-1c-2.21 0-4 1.79-4 4s1.79 4 4 4 4-1.79 4-4-1.79-4-4-4z" fill="#4788c7"/><path d="M12.5 35.5h15v3h-15z" fill="#b6dcfe"/><path d="M27 36v2H13v-2h14m1-1H12v4h16z" fill="#4788c7"/><path d="M8.5 31.5h23v4h-23z" fill="#b6dcfe"/><path d="M31 32v3H9v-3h22m1-1H8v5h24z" fill="#4788c7"/></svg>