<svg viewBox="0 0 64 64" xmlns="http://www.w3.org/2000/svg" fill-rule="evenodd" clip-rule="evenodd" stroke-linejoin="round" stroke-miterlimit="1.41"><path d="M32.32 7.4h.16c2.03.09 3.43 1.42 4.97 2.82 7.75 7.03 17.07 21.31 20.06 33.17.47 1.88 1.01 3.8-.06 5.5-1.06 1.7-3.06 2.4-5.13 2.74a131.4 131.4 0 0 1-19.84 1.39h-.31a131.4 131.4 0 0 1-19.85-1.4c-2.07-.33-4.06-1.03-5.13-2.73-1.07-1.7-.52-3.62-.05-5.5 2.98-11.86 12.31-26.14 20.06-33.17 1.53-1.4 2.94-2.73 4.97-2.82h.15z" fill="#ef2b2b"/><clipPath id="a"><path d="M32.32 7.4h.16c2.03.09 3.43 1.42 4.97 2.82 7.75 7.03 17.07 21.31 20.06 33.17.47 1.88 1.01 3.8-.06 5.5-1.06 1.7-3.06 2.4-5.13 2.74a131.4 131.4 0 0 1-19.84 1.39h-.31a131.4 131.4 0 0 1-19.85-1.4c-2.07-.33-4.06-1.03-5.13-2.73-1.07-1.7-.52-3.62-.05-5.5 2.98-11.86 12.31-26.14 20.06-33.17 1.53-1.4 2.94-2.73 4.97-2.82h.15z"/></clipPath><g clip-path="url(#a)"><path d="M34 6.27h.14c2.03.09 3.43 1.42 4.97 2.81 7.75 7.04 17.07 21.32 20.06 33.18.47 1.87 1.01 3.8-.06 5.5-1.06 1.7-3.05 2.4-5.13 2.74a131.4 131.4 0 0 1-19.84 1.38h-.31a131.4 131.4 0 0 1-19.85-1.39c-2.07-.33-4.06-1.04-5.13-2.73-1.07-1.7-.52-3.63-.05-5.5C11.79 30.4 21.12 16.12 28.87 9.08c1.53-1.39 2.94-2.72 4.97-2.81h.1a1 1 0 0 1 .05 0z" fill="#f14a50"/></g><path d="M17.9 30.97l5 2.38s.18.1.06.48a2.83 2.83 0 0 1-3.63 1.88A2.98 2.98 0 0 1 17.35 32c.12-.39.55-1.03.55-1.03z" fill="url(#b)"/><clipPath id="c"><path d="M17.9 30.97l5 2.38s.18.1.06.48a2.83 2.83 0 0 1-3.63 1.88A2.98 2.98 0 0 1 17.35 32c.12-.39.55-1.03.55-1.03z"/></clipPath><g clip-path="url(#c)" fill="#fff"><path d="M18.88 32.76a1.29 1.29 0 1 1-.75 2.46 1.29 1.29 0 0 1 .75-2.46zm1.45-1.06a.65.65 0 1 1-.38 1.24.65.65 0 0 1 .38-1.25z"/></g><path d="M20.17 26.66l3.05 2.6.26.52-.17.55-.52.26-.55-.17-3.05-2.6-.26-.52.17-.55.52-.26.55.17z" fill="#2e0d19" fill-rule="nonzero"/><path d="M46.74 30.97l-5 2.38s-.17.1-.06.48a2.83 2.83 0 0 0 3.63 1.88A2.98 2.98 0 0 0 47.3 32a5.34 5.34 0 0 0-.55-1.03z" fill="url(#d)"/><clipPath id="e"><path d="M46.74 30.97l-5 2.38s-.17.1-.06.48a2.83 2.83 0 0 0 3.63 1.88A2.98 2.98 0 0 0 47.3 32a5.34 5.34 0 0 0-.55-1.03z"/></clipPath><g clip-path="url(#e)" fill="#fff"><path d="M45.76 32.76a1.29 1.29 0 1 0 .76 2.46 1.29 1.29 0 0 0-.76-2.46zm-1.44-1.06a.65.65 0 1 0 .38 1.24.65.65 0 0 0-.38-1.25z"/></g><path d="M45.12 26.38l.18.55-.26.52-3.06 2.6-.55.17-.5-.26h-.01l-.18-.55.26-.51 3.06-2.6.55-.18.51.26zm-12.84 9.85a2.33 2.33 0 0 0-.72.13 3.38 3.38 0 0 0-1.73 1.47 6.93 6.93 0 0 0-.96 2.64 7.8 7.8 0 0 0 0 2.55 7.16 7.16 0 0 0 1.02 2.73l.2.26a3.3 3.3 0 0 0 1.8 1.2 2.29 2.29 0 0 0 1.16-.07 3.3 3.3 0 0 0 1.7-1.4 5.91 5.91 0 0 0 .46-.8c.29-.61.47-1.26.57-1.92.13-.85.13-1.7 0-2.55a6.96 6.96 0 0 0-1.15-2.9 3.37 3.37 0 0 0-1.8-1.28 2.33 2.33 0 0 0-.46-.06h-.1zm.16-.76a2.93 2.93 0 0 1 1.05.23l.32.15a4.6 4.6 0 0 1 1.88 1.96c.42.77.69 1.61.83 2.47.15.92.15 1.86.02 2.78a8 8 0 0 1-1.09 3 4.5 4.5 0 0 1-2.06 1.76 3.04 3.04 0 0 1-2.45-.13 4.47 4.47 0 0 1-1.92-1.9 7.07 7.07 0 0 1-.9-2.66 9.08 9.08 0 0 1 0-2.85 7.67 7.67 0 0 1 1.04-2.8 4.58 4.58 0 0 1 2-1.78 3.27 3.27 0 0 1 1.28-.23z" fill="#2e0d19" fill-rule="nonzero"/><ellipse cx="32.32" cy="41.74" rx="3.93" ry="5.89" fill="#2e0d19"/><clipPath id="f"><ellipse cx="32.32" cy="41.74" rx="3.93" ry="5.89"/></clipPath><g clip-path="url(#f)"><ellipse cx="32.32" cy="46.51" rx="3.28" ry="3.46" fill="#f14ad0"/></g><defs><radialGradient id="b" cx="0" cy="0" r="1" gradientUnits="userSpaceOnUse" gradientTransform="rotate(16.91 -100.45 84.38) scale(2.97475)"><stop offset="0%" stop-color="#1d1d1d"/><stop offset="100%"/></radialGradient><radialGradient id="d" cx="0" cy="0" r="1" gradientUnits="userSpaceOnUse" gradientTransform="matrix(-2.84614 .86523 .86523 2.84614 44.45 32.86)"><stop offset="0%" stop-color="#1d1d1d"/><stop offset="100%"/></radialGradient></defs></svg>