<svg xmlns="http://www.w3.org/2000/svg" viewBox="0 0 48 48"><path d="M39 9.906C38.34 8.47 37 7 35.582 7H6c-3.04 0-4 .965-4 4v22s0 2 2 2h38c2 0 2-2 2-2v-5.563c0-9.437-5-17.53-5-17.53z" fill="#ffc107"/><path d="M15 20.5a1.5 1.5 0 0 1-1.5 1.5h-8A1.5 1.5 0 0 1 4 20.5v-9A1.5 1.5 0 0 1 5.5 10h8a1.5 1.5 0 0 1 1.5 1.5zm13 0a1.5 1.5 0 0 1-1.5 1.5h-8a1.5 1.5 0 0 1-1.5-1.5v-9a1.5 1.5 0 0 1 1.5-1.5h8a1.5 1.5 0 0 1 1.5 1.5zM31.5 10a1.5 1.5 0 0 0-1.5 1.5v9a1.5 1.5 0 0 0 1.5 1.5h8a1.5 1.5 0 0 0 1.5-1.5v-.727c-1.234-4.789-3.227-8.109-3.703-8.816-.582-.863-1.574-.953-2.063-.957z" fill="#795548"/><path d="M39 35a5 5 0 1 1-10 0 5 5 0 0 1 10 0m-23 0a5 5 0 1 1-10 0 5 5 0 0 1 10 0" fill="#455a64"/><path d="M36 35a1.999 1.999 0 1 1-4 0 1.999 1.999 0 1 1 4 0m-23 0a1.999 1.999 0 1 1-4 0 1.999 1.999 0 1 1 4 0" fill="#b0bec5"/><path d="M2.5 28H2v4h.5A1.5 1.5 0 0 0 4 30.5v-1A1.5 1.5 0 0 0 2.5 28z" fill="#ff3d00"/><path d="M45 28.5a1.5 1.5 0 0 0-1.5-1.5H43a1.5 1.5 0 0 0-1.5 1.5v2A1.5 1.5 0 0 0 43 32h.5a1.5 1.5 0 0 0 1.5-1.5z" fill="#f57c00"/></svg>