<?xml version="1.0" encoding="utf-8"?>
<!-- Generator: Adobe Illustrator 22.0.1, SVG Export Plug-In . SVG Version: 6.00 Build 0)  -->
<svg version="1.1" xmlns="http://www.w3.org/2000/svg" xmlns:xlink="http://www.w3.org/1999/xlink" x="0px" y="0px"
	 viewBox="0 0 177.482 78.088" enable-background="new 0 0 177.482 78.088" xml:space="preserve">
<g id="BACKGROUND">
</g>
<g id="OBJECTS">
	<g id="XMLID_223_">
		<g id="XMLID_248_">
			<path fill="#EC4647" d="M176.735,29.146c-0.001-0.012-0.002-0.024-0.002-0.036c-0.002-0.023-0.006-0.1-0.008-0.122
				c-0.442-6.082-3.254-11.306-8.131-15.104c-16.133-12.568-51.675-6.77-55.697-6.063c-0.133,0.024-0.277,0.056-0.337,0.071
				c-0.062,0.015-6.396,1.436-22.359,1.449C74.257,9.329,67.92,7.914,67.914,7.914c-0.154-0.04-0.31-0.073-0.444-0.096
				c-3.999-0.704-39.536-6.505-55.674,6.065c-4.947,3.853-7.684,8.954-8.135,15.158c-0.003,0.037-0.004,0.073-0.006,0.109
				C3.634,29.61,2.03,75.087,40.944,77.87c0.619,0.069,2.213,0.218,4.479,0.218c6.739,0,19.413-1.319,29.982-9.979
				c7.597-6.225,12.556-14.965,14.79-26.041c2.233,11.076,7.192,19.816,14.79,26.041c10.591,8.679,23.35,9.975,30.013,9.975
				c2.283,0,3.884-0.151,4.446-0.214C178.41,75.083,176.756,29.606,176.735,29.146z"/>
		</g>
		<g id="XMLID_247_">
			<path fill="#FFFFFF" d="M176.753,25.146c-0.001-0.012-0.002-0.024-0.002-0.036c-0.002-0.023-0.006-0.1-0.008-0.122
				c-0.442-6.082-3.254-11.306-8.131-15.104c-16.133-12.568-51.675-6.77-55.697-6.063c-0.133,0.024-0.277,0.056-0.337,0.071
				c-0.062,0.015-6.396,1.436-22.359,1.449C74.275,5.329,67.938,3.914,67.932,3.914c-0.154-0.04-0.31-0.073-0.444-0.096
				c-3.999-0.704-39.536-6.505-55.674,6.065c-4.947,3.854-7.684,8.954-8.135,15.158c-0.003,0.037-0.004,0.073-0.006,0.109
				c-0.02,0.459-1.624,45.936,37.29,48.719c0.619,0.069,2.213,0.218,4.479,0.218c6.739,0,19.413-1.319,29.982-9.979
				c7.597-6.225,12.556-14.965,14.79-26.041c2.233,11.076,7.192,19.816,14.79,26.041c10.591,8.679,23.35,9.975,30.013,9.975
				c2.283,0,3.884-0.151,4.446-0.214C178.428,71.083,176.774,25.606,176.753,25.146z"/>
		</g>
		<g id="XMLID_243_">
			<path fill="#F9AF80" d="M170.759,25.423c-1.847-25.391-56.78-15.696-56.78-15.696s-6.407,1.601-23.766,1.615
				c-17.358-0.015-23.765-1.615-23.765-1.615S11.513,0.033,9.667,25.423c0,0-1.846,40.162,31.853,42.47
				c0,0,40.624,5.078,43.855-38.777h4.829h0.018h4.829c3.232,43.855,43.856,38.777,43.856,38.777
				C172.606,65.586,170.759,25.423,170.759,25.423z M75.992,31.922c-2.406,30.564-32.648,27.025-32.648,27.025
				c-25.086-1.609-23.711-29.6-23.711-29.6C21.008,11.652,61.902,18.41,61.902,18.41S76.776,18.726,75.992,31.922z M138.161,58.947
				c0,0-30.241,3.539-32.647-27.025c-0.783-13.195,14.091-13.512,14.091-13.512s40.895-6.758,42.269,10.938
				C161.873,29.347,163.248,57.338,138.161,58.947z"/>
		</g>
		<g id="XMLID_239_">
			<g id="XMLID_242_">
				<path fill="#333333" d="M158.237,46.213h-48.539c1.479,2.492,3.249,4.507,5.178,6.135h38.974
					C155.703,50.487,157.138,48.381,158.237,46.213z"/>
			</g>
			<g id="XMLID_241_">
				<path fill="#333333" d="M105.767,34.213c0.296,2.241,0.754,4.276,1.341,6.135h53.365c0.622-2.249,0.976-4.365,1.171-6.135
					H105.767z"/>
			</g>
			<g id="XMLID_240_">
				<path fill="#333333" d="M161.744,28.347c-0.441-2.566-1.768-4.575-3.699-6.135H109.2c-1.639,1.435-2.961,3.412-3.477,6.135
					H161.744z"/>
			</g>
		</g>
		<g id="XMLID_230_">
			<g id="XMLID_238_">
				<path fill="#333333" d="M23.269,46.213c1.1,2.169,2.534,4.274,4.388,6.135h38.974c1.929-1.628,3.699-3.643,5.178-6.135H23.269z"
					/>
			</g>
			<g id="XMLID_232_">
				<path fill="#333333" d="M19.862,34.213c0.195,1.77,0.549,3.886,1.17,6.135h53.366c0.587-1.858,1.045-3.894,1.341-6.135H19.862z"
					/>
			</g>
			<g id="XMLID_231_">
				<path fill="#333333" d="M19.762,28.347h56.021c-0.517-2.723-1.839-4.699-3.477-6.135H23.461
					C21.529,23.772,20.203,25.782,19.762,28.347z"/>
			</g>
		</g>
		<g id="XMLID_227_">
			<path fill="#3D3D3D" d="M135.016,70.084c-6.114,0-17.841-1.172-27.478-9.068c-8.194-6.714-13.007-16.766-14.321-29.899h-6.008
				c-1.314,13.134-6.127,23.186-14.321,29.899c-13.163,10.785-30.221,9.027-31.558,8.87C6.141,67.435,7.65,25.753,7.669,25.332
				c0.366-5.046,2.587-9.164,6.603-12.292C29.33,1.31,65.273,7.489,66.796,7.758c0.046,0.008,0.092,0.018,0.137,0.029
				c0.058,0.014,6.497,1.542,23.282,1.556c16.781-0.014,23.221-1.541,23.284-1.557c0.042-0.01,0.089-0.021,0.132-0.028
				c1.522-0.269,37.466-6.447,52.522,5.282c4.017,3.128,6.237,7.246,6.601,12.238c0.001,0.018,0.002,0.036,0.003,0.054
				c0.02,0.421,1.527,42.103-33.662,44.554C138.737,69.928,137.252,70.084,135.016,70.084z M44.197,9.912
				c-10.047,0-21.11,1.329-27.47,6.285c-3.127,2.437-4.785,5.502-5.066,9.372c-0.001,0.042-0.389,9.805,3.212,19.646
				c4.695,12.829,13.706,19.788,26.783,20.684c0.037,0.002,0.074,0.006,0.111,0.011c0.162,0.019,16.55,1.896,28.614-8.012
				c7.676-6.305,12.049-16.037,12.999-28.928c0.076-1.045,0.946-1.854,1.994-1.854h9.676c1.048,0,1.918,0.809,1.994,1.854
				c0.95,12.891,5.323,22.623,12.999,28.928c12.063,9.909,28.454,8.028,28.616,8.012c0.036-0.005,0.074-0.009,0.109-0.011
				c13.114-0.898,22.138-7.893,26.82-20.788c3.489-9.608,3.192-19.045,3.172-19.572c-0.288-3.855-1.945-6.912-5.066-9.343
				c-13.417-10.452-47.717-4.779-49.314-4.508c-0.84,0.196-7.593,1.642-24.166,1.655c-16.576-0.014-23.329-1.459-24.17-1.655
				C65.206,11.545,55.326,9.912,44.197,9.912z"/>
		</g>
		<g id="XMLID_226_">
			<path fill="#3D3D3D" d="M135.238,60.084c-4.594,0-13.588-0.851-20.759-6.743c-5.876-4.829-9.229-12.009-9.963-21.341
				c0-0.006-0.001-0.013-0.001-0.018c-0.232-3.908,0.81-7.146,3.096-9.624c4.183-4.533,11.057-4.915,11.897-4.945
				c1.871-0.302,28.392-4.424,39.008,3.898c2.64,2.068,4.104,4.746,4.354,7.961c0.016,0.317,1.127,29.021-24.645,30.675
				C138.085,59.962,136.977,60.084,135.238,60.084z M106.512,31.854c0.691,8.764,3.8,15.474,9.237,19.941
				c9.231,7.586,22.168,6.173,22.296,6.159c10.012-0.644,16.866-5.593,20.426-14.716c2.7-6.921,2.407-13.773,2.403-13.842
				c-0.205-2.641-1.381-4.78-3.591-6.513c-10.091-7.908-37.243-3.532-37.516-3.487c-0.046,0.008-0.094,0.013-0.141,0.014
				c-0.067,0.001-6.773,0.206-10.553,4.312C107.178,25.782,106.316,28.518,106.512,31.854z"/>
		</g>
		<g id="XMLID_224_">
			<path fill="#3D3D3D" d="M46.262,60.082c-1.755,0-2.878-0.123-3.034-0.142C17.509,58.292,18.62,29.588,18.634,29.299
				c0.252-3.243,1.716-5.921,4.356-7.989c10.617-8.323,37.136-4.2,39.009-3.898c0.84,0.03,7.714,0.412,11.896,4.945
				c2.287,2.479,3.329,5.716,3.096,9.624c0,0.006-0.001,0.013-0.001,0.018c-0.734,9.332-4.087,16.512-9.963,21.341
				C59.864,59.226,50.88,60.082,46.262,60.082z M45.371,18.15c-7.767,0-16.373,0.99-21.148,4.733
				c-2.21,1.732-3.385,3.872-3.592,6.541c-0.002,0.04-0.295,6.893,2.405,13.813c3.559,9.123,10.413,14.072,20.373,14.711
				c0.183,0.022,13.147,1.418,22.361-6.164c5.43-4.469,8.534-11.175,9.225-19.932c0.196-3.336-0.666-6.071-2.563-8.132
				c-3.779-4.105-10.485-4.311-10.552-4.312c-0.046-0.001-0.094-0.006-0.141-0.014C61.595,19.373,54.002,18.15,45.371,18.15z"/>
		</g>
	</g>
</g>
<g id="DESIGNED_BY_FREEPIK">
</g>
</svg>
