<svg viewBox="0 0 64 64" xmlns="http://www.w3.org/2000/svg" fill-rule="evenodd" clip-rule="evenodd" stroke-linejoin="round" stroke-miterlimit="1.41"><path d="M32.7 7.4h.16c2.03.09 3.44 1.42 4.97 2.82 7.75 7.03 17.07 21.31 20.06 33.17.47 1.88 1.01 3.8-.05 5.5-1.07 1.7-3.06 2.4-5.13 2.74a131.4 131.4 0 0 1-19.85 1.39h-.31a131.4 131.4 0 0 1-19.84-1.4c-2.08-.33-4.07-1.03-5.13-2.73-1.07-1.7-.53-3.62-.06-5.5 2.99-11.86 12.31-26.14 20.06-33.17 1.54-1.4 2.94-2.73 4.97-2.82h.16z" fill="#ef2b2b"/><clipPath id="a"><path d="M32.7 7.4h.16c2.03.09 3.44 1.42 4.97 2.82 7.75 7.03 17.07 21.31 20.06 33.17.47 1.88 1.01 3.8-.05 5.5-1.07 1.7-3.06 2.4-5.13 2.74a131.4 131.4 0 0 1-19.85 1.39h-.31a131.4 131.4 0 0 1-19.84-1.4c-2.08-.33-4.07-1.03-5.13-2.73-1.07-1.7-.53-3.62-.06-5.5 2.99-11.86 12.31-26.14 20.06-33.17 1.54-1.4 2.94-2.73 4.97-2.82h.16z"/></clipPath><g clip-path="url(#a)"><path d="M34.38 6.27h.15c2.03.09 3.44 1.42 4.97 2.81 7.75 7.04 17.07 21.32 20.06 33.18.47 1.87 1.01 3.8-.05 5.5-1.07 1.7-3.06 2.4-5.13 2.74a131.4 131.4 0 0 1-19.85 1.38h-.31a131.4 131.4 0 0 1-19.84-1.39c-2.08-.33-4.07-1.04-5.13-2.73-1.07-1.7-.53-3.63-.06-5.5C12.18 30.4 21.5 16.12 29.25 9.08c1.54-1.39 2.94-2.72 4.97-2.81h.1a1 1 0 0 1 .06 0z" fill="#f14a50"/></g><circle cx="20.86" cy="33.8" r="2.98" fill="url(#b)"/><clipPath id="c"><circle cx="20.86" cy="33.8" r="2.98"/></clipPath><g clip-path="url(#c)" fill="#fff"><circle cx="19.57" cy="35.37" r="1.29"/><circle cx="20.64" cy="33.3" r=".65"/></g><circle cx="44.55" cy="33.8" r="2.98" fill="url(#d)"/><clipPath id="e"><circle cx="44.55" cy="33.8" r="2.98"/></clipPath><g clip-path="url(#e)" fill="#fff"><circle cx="43.26" cy="35.37" r="1.29"/><circle cx="44.34" cy="33.3" r=".65"/></g><path d="M19.33 25.72l3.54 1.88.37.45-.06.57-.45.37-.57-.05-3.54-1.88-.37-.45.06-.57v-.01l.44-.36.58.05zm27.48.31l.06.58-.36.44-3.54 1.9-.57.05-.45-.36-.06-.58.37-.45 3.54-1.9.57-.04.44.36zM32.7 35.25h.32a11.82 11.82 0 0 1 1.61.16c.36.06.7.13 1.06.22l.21.05.3.09a12.08 12.08 0 0 1 2.2.9 9.3 9.3 0 0 1 1.26.83 7 7 0 0 1 .67.62 4.35 4.35 0 0 1 1.16 2.32c.02.18.02.37.01.55l-.2.2-.2-.2a2.36 2.36 0 0 0-.12-.6l-.1-.31A4.15 4.15 0 0 0 39 38.15a8.42 8.42 0 0 0-1.86-.82 11.58 11.58 0 0 0-2.5-.5l-.9-.06-.41-.01H32.3l-.33.01a17.52 17.52 0 0 0-2.08.22l-.29.06a13.5 13.5 0 0 0-1.73.46 8.63 8.63 0 0 0-2.12 1.11 4.8 4.8 0 0 0-1 1.07 3.02 3.02 0 0 0-.45 1.3l-.2.2-.2-.2v-.14a3.27 3.27 0 0 1 .12-1 4 4 0 0 1 .42-.95l.1-.16a5.52 5.52 0 0 1 1.31-1.38 8.49 8.49 0 0 1 2.09-1.2 12.35 12.35 0 0 1 4.18-.9h.13l.21-.01h.24z" fill="#2e0d19" fill-rule="nonzero"/><defs><radialGradient id="b" cx="0" cy="0" r="1" gradientUnits="userSpaceOnUse" gradientTransform="translate(20.86 33.8) scale(2.97474)"><stop offset="0%" stop-color="#1d1d1d"/><stop offset="100%"/></radialGradient><radialGradient id="d" cx="0" cy="0" r="1" gradientUnits="userSpaceOnUse" gradientTransform="translate(44.56 33.8) scale(2.97474)"><stop offset="0%" stop-color="#1d1d1d"/><stop offset="100%"/></radialGradient></defs></svg>