<svg viewBox="0 0 64 64" xmlns="http://www.w3.org/2000/svg" fill-rule="evenodd" clip-rule="evenodd" stroke-linejoin="round" stroke-miterlimit="1.41"><path d="M32.25 8.66h.16c2.03.1 3.43 1.43 4.97 2.82 7.74 7.03 17.07 21.32 20.05 33.18.48 1.87 1.02 3.8-.05 5.5-1.06 1.7-3.06 2.4-5.13 2.73-5.6.92-12.73 1.37-19.84 1.39h-.31c-7.11-.02-14.25-.47-19.85-1.39-2.07-.34-4.06-1.04-5.13-2.73-1.06-1.7-.52-3.63-.05-5.5C10.05 32.8 19.38 18.5 27.13 11.48c1.53-1.4 2.94-2.73 4.97-2.81h.15z" fill="#ef2b2b"/><clipPath id="a"><path d="M32.25 8.66h.16c2.03.1 3.43 1.43 4.97 2.82 7.74 7.03 17.07 21.32 20.05 33.18.48 1.87 1.02 3.8-.05 5.5-1.06 1.7-3.06 2.4-5.13 2.73-5.6.92-12.73 1.37-19.84 1.39h-.31c-7.11-.02-14.25-.47-19.85-1.39-2.07-.34-4.06-1.04-5.13-2.73-1.06-1.7-.52-3.63-.05-5.5C10.05 32.8 19.38 18.5 27.13 11.48c1.53-1.4 2.94-2.73 4.97-2.81h.15z"/></clipPath><g clip-path="url(#a)"><path d="M33.92 7.53h.16c2.03.09 3.43 1.42 4.96 2.81 7.75 7.04 17.08 21.32 20.06 33.19.48 1.87 1.02 3.8-.05 5.5-1.06 1.69-3.06 2.39-5.13 2.73a131.3 131.3 0 0 1-19.84 1.38h-.31c-7.11 0-14.25-.47-19.85-1.38-2.07-.34-4.06-1.04-5.13-2.74-1.07-1.7-.52-3.62-.05-5.5 2.98-11.86 12.31-26.14 20.06-33.18 1.53-1.39 2.94-2.72 4.97-2.8v-.01h.15z" fill="#f14a50"/></g><g fill-rule="nonzero"><path d="M22.71 23.36l.35.46-.08.57-.46.35-3.88 1-.58-.08-.34-.46.08-.57.46-.35 3.88-1 .57.08z" fill="#2e0d19"/><path d="M19.49 30.24l5.76 3.26c.1.07.12.08.2.16.08.1.14.2.17.33l.02.12v.13l-.03.12a.76.76 0 0 1-.18.32c-.07.08-.1.09-.2.15l-5.75 3.06-.58.05-.45-.36v-.01L18.4 37l.36-.45 4.55-2.41-4.56-2.58-.36-.46.07-.57.46-.36.57.07z" fill="#100509"/><path d="M42.37 23.28l3.88 1 .46.35.08.57-.35.46-.57.08-3.89-1-.45-.35-.09-.57.35-.46c.2-.03.39-.13.58-.08z" fill="#2e0d19"/><path d="M46.04 30.52v.01l.07.57-.35.46-4.56 2.58 4.54 2.41.37.45-.06.57-.44.37-.58-.05-5.76-3.06-.1-.07a.77.77 0 0 1-.3-.53v-.12c.02-.1.01-.14.06-.24a.75.75 0 0 1 .22-.3l.1-.07 5.76-3.26.58-.07.45.35z" fill="#100509"/></g><path d="M23.18 38.4c0 7.14 4.04 12.93 9.02 12.93 4.98 0 9.02-5.8 9.02-12.94H23.18z" fill="#2e0d19"/><path d="M22.9 38.3l.04-.08a.3.3 0 0 1 .15-.11c.04-.02.05-.02.1-.02h18.08a.3.3 0 0 1 .24.21l.01.1a18.96 18.96 0 0 1-.08 1.83 17.17 17.17 0 0 1-1.1 4.65 13.28 13.28 0 0 1-2.17 3.69 9.36 9.36 0 0 1-2.51 2.12 6.7 6.7 0 0 1-6.75.09 9.72 9.72 0 0 1-3.71-3.65 13.14 13.14 0 0 1-1.05-2.05 16.08 16.08 0 0 1-1.02-3.64 18.3 18.3 0 0 1-.25-2.96v-.13l.02-.05zm9.3.4h-8.7a17.88 17.88 0 0 0 .76 4.85 15.49 15.49 0 0 0 1.57 3.43l.4.6a8.9 8.9 0 0 0 3.68 3 6.43 6.43 0 0 0 1.8.42 6.14 6.14 0 0 0 3.76-.89 8.86 8.86 0 0 0 2.29-1.98 12.69 12.69 0 0 0 2.02-3.48 16.58 16.58 0 0 0 1.15-5.93v-.02H32.2z" fill="#2e0d19" fill-rule="nonzero"/><path d="M26.73 48.65c.25-2.73 3.14-4.76 5.63-3.34.41-1.2 4.32-1.07 5.26 2.38 3.09 11.35-1.43 14.1-4.62 14.3-9.46.56-6.5-12.85-6.27-13.34z" fill="#d711b0"/><clipPath id="b"><path d="M26.73 48.65c.25-2.73 3.14-4.76 5.63-3.34.41-1.2 4.32-1.07 5.26 2.38 3.09 11.35-1.43 14.1-4.62 14.3-9.46.56-6.5-12.85-6.27-13.34z"/></clipPath><g clip-path="url(#b)"><path d="M26.73 47.7c.25-2.73 3.14-4.76 5.63-3.35.41-1.2 4.32-1.06 5.26 2.4 3.09 11.34-1.43 14.1-4.62 14.28-9.46.57-6.5-12.84-6.27-13.33z" fill="#f14ad0"/><path d="M31.43 44.43c.61-.03 1.82 4.06 1.8 7.57.1-.02.6-5.58-1.11-7.44l-.69-.13z" fill="#d711b0"/></g></svg>