<svg viewBox="0 0 64 64" xmlns="http://www.w3.org/2000/svg" fill-rule="evenodd" clip-rule="evenodd" stroke-linejoin="round" stroke-miterlimit="1.41"><path d="M30.75 8.66h.15c2.03.1 3.44 1.43 4.97 2.82 7.75 7.03 17.08 21.32 20.06 33.18.47 1.87 1.02 3.8-.05 5.5-1.07 1.7-3.06 2.4-5.13 2.73-5.6.92-12.74 1.37-19.85 1.39h-.31c-7.1-.02-14.25-.47-19.84-1.39-2.07-.34-4.07-1.04-5.13-2.73-1.07-1.7-.53-3.63-.05-5.5C8.55 32.8 17.87 18.5 25.63 11.48c1.53-1.4 2.93-2.73 4.96-2.81h.16z" fill="#ef2b2b"/><clipPath id="a"><path d="M30.75 8.66h.15c2.03.1 3.44 1.43 4.97 2.82 7.75 7.03 17.08 21.32 20.06 33.18.47 1.87 1.02 3.8-.05 5.5-1.07 1.7-3.06 2.4-5.13 2.73-5.6.92-12.74 1.37-19.85 1.39h-.31c-7.1-.02-14.25-.47-19.84-1.39-2.07-.34-4.07-1.04-5.13-2.73-1.07-1.7-.53-3.63-.05-5.5C8.55 32.8 17.87 18.5 25.63 11.48c1.53-1.4 2.93-2.73 4.96-2.81h.16z"/></clipPath><g clip-path="url(#a)"><path d="M32.42 7.53h.15c2.03.09 3.44 1.42 4.97 2.81 7.75 7.04 17.08 21.32 20.06 33.19.47 1.87 1.01 3.8-.05 5.5-1.07 1.69-3.06 2.39-5.13 2.73a131.4 131.4 0 0 1-19.85 1.38h-.31c-7.1 0-14.25-.47-19.84-1.38-2.07-.34-4.07-1.04-5.13-2.74-1.07-1.7-.53-3.62-.06-5.5 2.99-11.86 12.31-26.14 20.06-33.18 1.54-1.39 2.94-2.72 4.97-2.8v-.01h.16z" fill="#f14a50"/></g><circle cx="41.36" cy="34.19" r="5.5" fill="url(#b)"/><path d="M41.36 27.86c0 1.71.37 4.55 1.07 5.25.7.7 3.54 1.08 5.25 1.08-1.7 0-4.55.37-5.25 1.07-.7.7-1.07 3.54-1.07 5.25 0-1.7-.38-4.55-1.08-5.25-.7-.7-3.54-1.07-5.25-1.07 1.71 0 4.55-.38 5.25-1.08.7-.7 1.08-3.54 1.08-5.25z" fill="#fff"/><circle cx="20.09" cy="34.19" r="5.5" fill="url(#c)"/><path d="M20.09 27.86c0 1.71.37 4.55 1.07 5.25.7.7 3.54 1.08 5.26 1.08-1.72 0-4.56.37-5.26 1.07-.7.7-1.07 3.54-1.07 5.25 0-1.7-.37-4.55-1.07-5.25-.7-.7-3.54-1.07-5.26-1.07 1.71 0 4.56-.38 5.26-1.08.7-.7 1.07-3.54 1.07-5.25z" fill="#fff"/><path d="M37.8 39.89l.2.2v.1a1.87 1.87 0 0 1-.06.51 2.76 2.76 0 0 1-.99 1.4 5.73 5.73 0 0 1-1.41.9 9.7 9.7 0 0 1-1.7.61 14.18 14.18 0 0 1-2.27.41l-.28.02-.33.02h-.58a11.33 11.33 0 0 1-1.13-.08c-.07 0-.13-.02-.2-.03a24.6 24.6 0 0 1-.7-.11l-.27-.06a14.4 14.4 0 0 1-1.49-.45c-.26-.1-.5-.2-.75-.32l-.27-.14a7.2 7.2 0 0 1-1.18-.83 4.14 4.14 0 0 1-.62-.73 2.13 2.13 0 0 1-.32-1.2v-.02l.2-.2.2.2a1 1 0 0 0 .01.09l.02.08.07.2c.13.3.36.54.61.73l.23.17c.5.32 1.06.53 1.63.7l.6.14.24.05a14.05 14.05 0 0 0 1.06.17l.24.02.4.04.42.03.74.03h.29l.31.02h.81a17.13 17.13 0 0 0 2.05-.16 12.33 12.33 0 0 0 2.18-.55 5.51 5.51 0 0 0 .87-.44c.24-.16.46-.34.64-.57a1.58 1.58 0 0 0 .32-.72v-.03l.2-.2zm2.13-17.06l3.87 1.05.45.35.08.57-.35.46-.57.08-3.88-1.05-.45-.35-.08-.57.35-.46c.2-.03.4-.13.58-.08zm-17.84.07l.35.46-.07.58-.46.35-3.87 1.05-.57-.08-.35-.45.07-.58.45-.35 3.88-1.05.57.08z" fill="#2e0d19" fill-rule="nonzero"/><ellipse cx="48.33" cy="40.71" rx="3.74" ry="2.4" fill="#f14ad0"/><ellipse cx="13.17" cy="40.71" rx="3.74" ry="2.4" fill="#f14ad0"/><defs><radialGradient id="b" cx="0" cy="0" r="1" gradientUnits="userSpaceOnUse" gradientTransform="translate(41.36 34.19) scale(5.50036)"><stop offset="0%" stop-color="#1d1d1d"/><stop offset="100%"/></radialGradient><radialGradient id="c" cx="0" cy="0" r="1" gradientUnits="userSpaceOnUse" gradientTransform="translate(20.09 34.19) scale(5.50036)"><stop offset="0%" stop-color="#1d1d1d"/><stop offset="100%"/></radialGradient></defs></svg>