<svg viewBox="0 0 64 64" xmlns="http://www.w3.org/2000/svg" fill-rule="evenodd" clip-rule="evenodd" stroke-linejoin="round" stroke-miterlimit="1.41"><path d="M32.27 7.4h.15c2.03.09 3.44 1.42 4.97 2.82 7.75 7.03 17.08 21.31 20.06 33.17.47 1.88 1.01 3.8-.05 5.5-1.07 1.7-3.06 2.4-5.13 2.74-5.6.91-12.74 1.37-19.85 1.39h-.31c-7.1-.02-14.25-.48-19.84-1.4-2.07-.33-4.07-1.03-5.13-2.73-1.07-1.7-.53-3.62-.05-5.5 2.98-11.86 12.3-26.14 20.06-33.17 1.53-1.4 2.93-2.73 4.96-2.82h.16z" fill="#ef2b2b"/><clipPath id="a"><path d="M32.27 7.4h.15c2.03.09 3.44 1.42 4.97 2.82 7.75 7.03 17.08 21.31 20.06 33.17.47 1.88 1.01 3.8-.05 5.5-1.07 1.7-3.06 2.4-5.13 2.74-5.6.91-12.74 1.37-19.85 1.39h-.31c-7.1-.02-14.25-.48-19.84-1.4-2.07-.33-4.07-1.03-5.13-2.73-1.07-1.7-.53-3.62-.05-5.5 2.98-11.86 12.3-26.14 20.06-33.17 1.53-1.4 2.93-2.73 4.96-2.82h.16z"/></clipPath><g clip-path="url(#a)"><path d="M33.94 6.27h.15c2.03.09 3.44 1.42 4.97 2.81 7.75 7.04 17.08 21.32 20.06 33.18.47 1.87 1.02 3.8-.05 5.5-1.07 1.7-3.06 2.4-5.13 2.74a131.4 131.4 0 0 1-19.85 1.38h-.31c-7.1-.01-14.25-.47-19.84-1.39-2.07-.33-4.07-1.04-5.13-2.73-1.07-1.7-.53-3.63-.06-5.5C11.74 30.4 21.06 16.12 28.81 9.08c1.54-1.39 2.94-2.72 4.97-2.81h.16z" fill="#f14a50"/></g><path d="M21.04 32.49c.45-.5 5.07-.54 5.51.02.23.3.22.73.22 1.12a2.98 2.98 0 0 1-5.95 0c0-.4-.03-.86.22-1.14z" fill="url(#b)"/><clipPath id="c"><path d="M21.04 32.49c.45-.5 5.07-.54 5.51.02.23.3.22.73.22 1.12a2.98 2.98 0 0 1-5.95 0c0-.4-.03-.86.22-1.14z"/></clipPath><g clip-path="url(#c)" fill="#fff"><circle cx="22.5" cy="35.2" r="1.29"/><circle cx="23.57" cy="33.12" r=".65"/></g><path d="M26.67 31.96l.22.53-.22.54-.53.22h-9.86l-.53-.22-.22-.53v-.01l.22-.53.53-.22h9.86l.53.22z" fill-rule="nonzero"/><path d="M23.77 23.45l.23.53V24l-.23.53-.53.23h-4.01l-.53-.23-.22-.53.22-.53.53-.23h4.01l.53.22zm23.7 0l.22.53V24l-.22.53-.53.23h-4.02l-.53-.23-.22-.53.22-.53.53-.23h4.02l.53.22z" fill="#2e0d19" fill-rule="nonzero"/><path d="M43.16 32.49c.44-.5 5.06-.54 5.5.02.23.3.22.73.22 1.12a2.98 2.98 0 0 1-5.95 0c0-.4-.03-.86.23-1.14z" fill="url(#d)"/><clipPath id="e"><path d="M43.16 32.49c.44-.5 5.06-.54 5.5.02.23.3.22.73.22 1.12a2.98 2.98 0 0 1-5.95 0c0-.4-.03-.86.23-1.14z"/></clipPath><g clip-path="url(#e)" fill="#fff"><circle cx="44.61" cy="35.2" r="1.29"/><circle cx="45.69" cy="33.12" r=".65"/></g><path d="M48.78 31.96l.22.53-.22.54-.53.22H38.4l-.53-.22-.22-.53v-.01l.22-.53.53-.22h9.86l.53.22z" fill-rule="nonzero"/><path d="M40 40.56a17.7 17.7 0 0 1 1.85.12l.56.33.17.62-.32.56-.63.18-.2-.02a16.18 16.18 0 0 0-2.9-.02 17.95 17.95 0 0 0-1.49.15l-.27.04-.34.05-.47.1a14.03 14.03 0 0 0-.71.15l-.2.04a19.12 19.12 0 0 0-1.8.54 12.13 12.13 0 0 0-2.13 1.04A10.97 10.97 0 0 0 29 46.19l-.03.03-.3.05-.03-.3a10.7 10.7 0 0 1 4.07-3.76 12.39 12.39 0 0 1 1.96-.87l.15-.05a15.1 15.1 0 0 1 4.89-.73H40z" fill="#2e0d19" fill-rule="nonzero"/><defs><radialGradient id="b" cx="0" cy="0" r="1" gradientUnits="userSpaceOnUse" gradientTransform="translate(23.8 33.63) scale(2.97474)"><stop offset="0%" stop-color="#1d1d1d"/><stop offset="100%"/></radialGradient><radialGradient id="d" cx="0" cy="0" r="1" gradientUnits="userSpaceOnUse" gradientTransform="translate(45.9 33.63) scale(2.97474)"><stop offset="0%" stop-color="#1d1d1d"/><stop offset="100%"/></radialGradient></defs></svg>