<svg viewBox="0 0 64 64" xmlns="http://www.w3.org/2000/svg" fill-rule="evenodd" clip-rule="evenodd" stroke-linejoin="round" stroke-miterlimit="1.41"><path d="M13.7 40.46s6.59-1.46-1.07-7c-1.57-1.13-4.92-4.98-5.63-8.62-.56-2.86-4.3-4.12-3.86.5.43 4.63 1.8 6.75 2.34 6.86 0 0-.49.48-1.89-.91-1.4-1.4-4.52.78-2.26 3.25a14.58 14.58 0 0 0 4.72 3.48s-.54.55-2.57.17c-2.26-.41-2.86 3.23.76 4.32 3.32 1 8.24 1.59 9.47-2.05z" fill="#d1f3fa"/><clipPath id="a"><path d="M13.7 40.46s6.59-1.46-1.07-7c-1.57-1.13-4.92-4.98-5.63-8.62-.56-2.86-4.3-4.12-3.86.5.43 4.63 1.8 6.75 2.34 6.86 0 0-.49.48-1.89-.91-1.4-1.4-4.52.78-2.26 3.25a14.58 14.58 0 0 0 4.72 3.48s-.54.55-2.57.17c-2.26-.41-2.86 3.23.76 4.32 3.32 1 8.24 1.59 9.47-2.05z"/></clipPath><g clip-path="url(#a)"><path d="M13.03 40.97s6.58-1.46-1.08-7c-1.57-1.13-4.91-4.98-5.63-8.63-.56-2.86-4.3-4.11-3.86.51.43 4.63 1.8 6.74 2.34 6.85 0 0-.49.5-1.89-.9s-4.52.78-2.26 3.25a14.58 14.58 0 0 0 4.72 3.47s-.54.55-2.56.18c-2.27-.41-2.87 3.22.75 4.32 3.32 1 8.24 1.59 9.47-2.05z" fill="#ecfafd"/></g><path d="M50.3 40.46s-6.59-1.46 1.07-7c1.57-1.13 4.92-4.98 5.63-8.62.56-2.86 4.3-4.12 3.86.5-.43 4.63-1.8 6.75-2.34 6.86 0 0 .49.48 1.89-.91 1.4-1.4 4.52.78 2.26 3.25a14.58 14.58 0 0 1-4.72 3.48s.54.55 2.57.17c2.26-.41 2.86 3.23-.76 4.32-3.32 1-8.24 1.59-9.47-2.05z" fill="#d1f3fa"/><clipPath id="b"><path d="M50.3 40.46s-6.59-1.46 1.07-7c1.57-1.13 4.92-4.98 5.63-8.62.56-2.86 4.3-4.12 3.86.5-.43 4.63-1.8 6.75-2.34 6.86 0 0 .49.48 1.89-.91 1.4-1.4 4.52.78 2.26 3.25a14.58 14.58 0 0 1-4.72 3.48s.54.55 2.57.17c2.26-.41 2.86 3.23-.76 4.32-3.32 1-8.24 1.59-9.47-2.05z"/></clipPath><g clip-path="url(#b)"><path d="M50.97 40.97s-6.58-1.46 1.08-7c1.57-1.13 4.92-4.98 5.63-8.63.56-2.86 4.3-4.11 3.86.51-.43 4.63-1.8 6.74-2.34 6.85 0 0 .49.5 1.89-.9s4.52.78 2.26 3.25a14.58 14.58 0 0 1-4.72 3.47s.54.55 2.56.18c2.27-.41 2.87 3.22-.75 4.32-3.32 1-8.24 1.59-9.47-2.05z" fill="#ecfafd"/></g><path d="M32 11.19h.16c2.03.09 3.43 1.42 4.96 2.81 7.75 7.04 17.08 21.32 20.06 33.18.47 1.87 1.02 3.8-.05 5.5-1.07 1.7-3.06 2.4-5.13 2.73-5.6.92-12.73 1.38-19.85 1.4h-.3c-7.12-.02-14.26-.48-19.85-1.4-2.07-.33-4.06-1.04-5.13-2.73-1.07-1.7-.52-3.63-.05-5.5C9.8 35.32 19.12 21.04 26.88 14c1.53-1.39 2.93-2.72 4.97-2.8v-.01H32z" fill="#ef2b2b"/><clipPath id="c"><path d="M32 11.19h.16c2.03.09 3.43 1.42 4.96 2.81 7.75 7.04 17.08 21.32 20.06 33.18.47 1.87 1.02 3.8-.05 5.5-1.07 1.7-3.06 2.4-5.13 2.73-5.6.92-12.73 1.38-19.85 1.4h-.3c-7.12-.02-14.26-.48-19.85-1.4-2.07-.33-4.06-1.04-5.13-2.73-1.07-1.7-.52-3.63-.05-5.5C9.8 35.32 19.12 21.04 26.88 14c1.53-1.39 2.93-2.72 4.97-2.8v-.01H32z"/></clipPath><g clip-path="url(#c)"><path d="M33.67 10.05h.16c2.03.1 3.43 1.43 4.96 2.82 7.75 7.03 17.08 21.32 20.06 33.18.47 1.87 1.02 3.8-.05 5.5-1.07 1.69-3.06 2.4-5.13 2.73-5.6.91-12.73 1.37-19.85 1.39h-.3c-7.12-.02-14.26-.48-19.85-1.39-2.07-.34-4.06-1.04-5.13-2.74-1.07-1.69-.52-3.62-.05-5.5 2.98-11.85 12.3-26.14 20.06-33.17 1.53-1.4 2.93-2.73 4.97-2.81h.15z" fill="#f14a50"/></g><path d="M41.07 39.87a7.15 7.15 0 0 1-.64 3.4 8.04 8.04 0 0 1-1.88 2.63 8.9 8.9 0 0 1-2.92 1.86 10.38 10.38 0 0 1-4.19.71 11.68 11.68 0 0 1-2.1-.34 9.94 9.94 0 0 1-3.13-1.53l-.17-.14a9.87 9.87 0 0 1-1.44-1.43 8.41 8.41 0 0 1-1.39-2.64 7.33 7.33 0 0 1-.29-2.47l.01-.05.2-.2.2.2c0 .06 0 .13.02.2A6.89 6.89 0 0 0 25 43.93a7.8 7.8 0 0 0 1.91 1.63 8.71 8.71 0 0 0 3.42 1.27c.4.06.79.1 1.18.12l.43.02a9.88 9.88 0 0 0 2.6-.3c.2-.05.41-.1.62-.18l.37-.13a8.32 8.32 0 0 0 3.66-2.64 7.06 7.06 0 0 0 1.47-3.87l.2-.2.2.2z" fill="#2e0d19" fill-rule="nonzero"/><path d="M20.75 31.45c2.2 0 3.98 1.78 3.98 3.97 0 2.2-1.8.6-3.98.6-2.2 0-3.97 1.6-3.97-.6s1.78-3.97 3.97-3.97z" fill="url(#d)"/><clipPath id="e"><path d="M20.75 31.45c2.2 0 3.98 1.78 3.98 3.97 0 2.2-1.8.6-3.98.6-2.2 0-3.97 1.6-3.97-.6s1.78-3.97 3.97-3.97z"/></clipPath><g clip-path="url(#e)" fill="#fff"><path d="M19.94 33.64a1.08 1.08 0 1 1-1.1 1.87 1.08 1.08 0 0 1 1.1-1.87zm1.38-.59a.54.54 0 1 1-.55.94.54.54 0 0 1 .55-.94z"/></g><path d="M43.25 31.45a3.97 3.97 0 0 1 3.97 3.97c0 2.2-1.79.6-3.98.6-2.2 0-3.97 1.6-3.97-.6s1.78-3.97 3.98-3.97z" fill="url(#f)"/><clipPath id="g"><path d="M43.25 31.45a3.97 3.97 0 0 1 3.97 3.97c0 2.2-1.79.6-3.98.6-2.2 0-3.97 1.6-3.97-.6s1.78-3.97 3.98-3.97z"/></clipPath><g clip-path="url(#g)" fill="#fff"><path d="M42.43 33.64a1.08 1.08 0 1 1-1.09 1.87 1.08 1.08 0 0 1 1.09-1.87zm1.38-.59a.54.54 0 1 1-.54.94.54.54 0 0 1 .54-.94z"/></g><g fill="#f14ad0"><ellipse cx="49.58" cy="39.6" rx="3.74" ry="2.4"/><ellipse cx="14.42" cy="39.6" rx="3.74" ry="2.4"/></g><path d="M32 7.2c13.33 0 24.16 3.47 24.16 7.73S45.33 22.65 32 22.65 7.84 19.19 7.84 14.93 18.67 7.2 32 7.2zm0 1.24c11.2 0 20.3 2.9 20.3 6.49 0 3.58-9.1 6.49-20.3 6.49-11.2 0-20.3-2.91-20.3-6.5 0-3.57 9.1-6.48 20.3-6.48z" fill="#f9e523"/><defs><radialGradient id="d" cx="0" cy="0" r="1" gradientUnits="userSpaceOnUse" gradientTransform="translate(20.75 35.42) scale(3.97293)"><stop offset="0%" stop-color="#1d1d1d"/><stop offset="100%"/></radialGradient><radialGradient id="f" cx="0" cy="0" r="1" gradientUnits="userSpaceOnUse" gradientTransform="translate(43.25 35.42) scale(3.97293)"><stop offset="0%" stop-color="#1d1d1d"/><stop offset="100%"/></radialGradient></defs></svg>