<svg xmlns="http://www.w3.org/2000/svg" viewBox="0 0 48 48"><path d="M17 34h14v7H17z" fill="#455a64"/><path d="M34 44H14v-1c0-1.102.898-2 2-2h16c1.102 0 2 .898 2 2zM16 33h16v2H16zm3 4h10v2H19z" fill="#607d8b"/><path d="M25 11h-2c-2.7 0-4.8 2.3-4.602 5L19 24l2 1 .5 8h5l.5-8 2-1 .602-8c.199-2.7-1.903-5-4.602-5z" fill="#26a69a"/><path d="M25.5 11.3L24 14l-1.5-2.7V7.5h3zM27 8c0 .277-.223.5-.5.5A.498.498 0 0 1 26 8a.499.499 0 1 1 1 0zm-5 0c0 .277-.223.5-.5.5A.498.498 0 0 1 21 8a.499.499 0 1 1 1 0z" fill="#00897b"/><path d="M26.5 6.3c0-2.1-4.898-1.402-4.898 0v1.9c0 1.402 1.097 2.5 2.5 2.5 1.398 0 2.5-1.098 2.5-2.5-.102-.302-.102-1.598-.102-1.9z" fill="#26a69a"/><path d="M24 4c-1.7 0-2.8 1.398-2.8 3.102v.5l.698.597V6.801l3.204-1.102 1 1.102v1.398l.699-.597v-.5c0-1.102-.301-2.301-1.7-2.5l-.3-.602z" fill="#4db6ac"/></svg>