<svg xmlns="http://www.w3.org/2000/svg" viewBox="0 0 50 50"><path d="M25 0c-1.121 0-2.23.445-2.875 1.375-.633.918-.816 2.129-.719 3.625 0 .027.032.035.032.063.015.417.136.812.312 1.062.105.148.117.152.188.219.125.433.292.87.406 1.093.09.18.074.215.093.282-.18.093-.503.222-1.062.437-.016.004-.016-.004-.031 0v.031c-1.348.465-2.457 1.676-3.157 3.188-.347.742-.726 1.54-1.03 2.281-.305.742-.563 1.41-.563 2.156 0 .594.27.97.531 1.344a8.3 8.3 0 0 0 .938 1.094c.593.594 1.238 1.172 1.812 1.688-.063.675-.168 2.937.813 7 .023.093.007.125.03.218.2 3.621.739 8.727.907 11.844h-4.719A.996.996 0 0 0 16 40v4h-4.094A.996.996 0 0 0 11 45v4c0 .55.45 1 1 1h26c.55 0 1-.45 1-1v-4c0-.55-.45-1-1-1h-4v-4c0-.55-.45-1-1-1h-4.531c.168-3.117.707-8.223.906-11.844.02-.082.012-.11.031-.187v-.032c.98-4.062.875-6.324.813-7 .531-.511 1.16-1.085 1.75-1.687a8.62 8.62 0 0 0 .906-1.094c.262-.375.531-.75.531-1.343 0-.747-.258-1.43-.562-2.188a32.87 32.87 0 0 0-1.032-2.25c-.007-.016-.023-.016-.03-.031-.708-1.508-1.805-2.739-3.157-3.188-.605-.215-.895-.328-1.063-.406.016-.066-.003-.113.094-.313.149-.3.407-.789.532-1.468.16-.235.324-.364.406-.782v-.062c.168-1.5-.032-2.781-.688-3.719C27.25.47 26.141 0 25 0zm0 2c.66 0 1.012.176 1.281.563.27.386.446 1.113.313 2.312-.024.113-.016.14-.094.219a.994.994 0 0 0-.281.531c-.078.422-.196.637-.344.938-.148.3-.375.753-.375 1.343 0 .262.05.586.219.875.168.29.43.492.656.625.453.27.902.38 1.594.625v.031c.437.145 1.535 1.083 2.031 2.157v.031c.348.691.73 1.457 1 2.125.254.629.39 1.18.406 1.375-.008-.012-.043.117-.156.281-.152.219-.414.504-.719.813-.61.62-1.39 1.297-2.031 1.937a.998.998 0 0 0-.281.875s.386 2.332-.782 7a1.044 1.044 0 0 0-.03.188c-.184 3.547-.766 8.738-.938 12.062h-2.844c-.172-3.324-.754-8.515-.938-12.062a1.044 1.044 0 0 0-.03-.188c-1.169-4.668-.782-7-.782-7a.998.998 0 0 0-.281-.906c-.676-.625-1.508-1.29-2.125-1.906A6.957 6.957 0 0 1 18.75 16c-.113-.16-.148-.27-.156-.25.015-.191.152-.727.406-1.344.27-.656.645-1.43 1-2.187.496-1.074 1.594-2.012 2.031-2.156l.032-.032c.652-.25 1.101-.426 1.53-.687.216-.133.446-.274.626-.531.18-.258.281-.614.281-.907 0-.59-.227-1.043-.375-1.343-.148-.301-.266-.516-.344-.938a.994.994 0 0 0-.281-.531c-.125-.125-.098-.102-.094-.094v-.063c-.09-1.273.121-2.035.375-2.406.254-.37.54-.531 1.219-.531zm-7 39h14v3H18zm-5 5h24v2H13z"/></svg>