<svg viewBox="0 0 64 64" xmlns="http://www.w3.org/2000/svg" fill-rule="evenodd" clip-rule="evenodd" stroke-linejoin="round" stroke-miterlimit="1.41"><path d="M31.75 8.66h.15c2.03.1 3.44 1.43 4.97 2.82 7.75 7.03 17.08 21.32 20.06 33.18.47 1.87 1.02 3.8-.05 5.5-1.07 1.7-3.06 2.4-5.13 2.73-5.6.92-12.74 1.37-19.85 1.39h-.31c-7.1-.02-14.25-.47-19.84-1.39-2.07-.34-4.07-1.04-5.13-2.73-1.07-1.7-.53-3.63-.05-5.5C9.55 32.8 18.87 18.5 26.63 11.48c1.53-1.4 2.93-2.73 4.96-2.81h.16z" fill="#ef2b2b"/><clipPath id="a"><path d="M31.75 8.66h.15c2.03.1 3.44 1.43 4.97 2.82 7.75 7.03 17.08 21.32 20.06 33.18.47 1.87 1.02 3.8-.05 5.5-1.07 1.7-3.06 2.4-5.13 2.73-5.6.92-12.74 1.37-19.85 1.39h-.31c-7.1-.02-14.25-.47-19.84-1.39-2.07-.34-4.07-1.04-5.13-2.73-1.07-1.7-.53-3.63-.05-5.5C9.55 32.8 18.87 18.5 26.63 11.48c1.53-1.4 2.93-2.73 4.96-2.81h.16z"/></clipPath><g clip-path="url(#a)"><path d="M33.42 7.53h.15c2.03.09 3.44 1.42 4.97 2.81 7.75 7.04 17.08 21.32 20.06 33.19.47 1.87 1.01 3.8-.05 5.5-1.07 1.69-3.06 2.39-5.13 2.73a131.4 131.4 0 0 1-19.85 1.38h-.31c-7.1 0-14.25-.47-19.84-1.38-2.07-.34-4.07-1.04-5.13-2.74-1.07-1.7-.53-3.62-.06-5.5 2.99-11.86 12.31-26.14 20.06-33.18 1.54-1.39 2.94-2.72 4.97-2.8v-.01h.16z" fill="#f14a50"/></g><path d="M22.76 23.56l.34.47-.1.57-.46.34-3.9.92-.58-.1-.33-.46.09-.57.47-.34 3.9-.92.57.1zm18.76-.09l3.9.92.47.34.1.56v.01l-.35.47-.56.1-3.91-.93-.47-.34-.1-.56v-.01l.35-.47c.19-.03.38-.13.57-.09zM20.8 31.3h.04a4.97 4.97 0 0 1 .98.18c.27.09.54.2.8.35l.17.1a5.32 5.32 0 0 1 .64.49l.12.12a5.42 5.42 0 0 1 1.25 1.88l.07.17.14.37v.02l-.02.07-.07-.02-.15-.18a12.34 12.34 0 0 0-.69-.7 6.22 6.22 0 0 0-1.71-1.05 3.49 3.49 0 0 0-.17-.06l-.11-.04a4.01 4.01 0 0 0-.7-.14l-.14-.02-.17-.01-.1-.01h-.18l-.16-.01h-.27l-.13.02c-.08 0-.15 0-.23.02-.08 0-.16.02-.24.04l-.12.02a3.86 3.86 0 0 0-.61.18l-.1.04a3.3 3.3 0 0 0-.4.18l-.1.06a4.5 4.5 0 0 0-1.02.75l-.23.24c-.16.17-.31.37-.45.57l-.01.01-.07.03-.03-.07a5.35 5.35 0 0 1 .3-.95c.03-.04.04-.09.06-.13a5.13 5.13 0 0 1 1.36-1.69l.11-.08c.24-.16.49-.3.75-.42l.08-.03.12-.05a4.68 4.68 0 0 1 1.03-.24h.36zm22.9 0a5.96 5.96 0 0 1 .45.03l.23.04a4.6 4.6 0 0 1 .74.23l.08.03a4.84 4.84 0 0 1 1.27.87l.1.1c.34.36.62.78.84 1.22l.06.13a5.66 5.66 0 0 1 .3.93v.02l-.02.07-.07-.03a6.99 6.99 0 0 0-.5-.61l-.2-.2a4.91 4.91 0 0 0-1.02-.76l-.1-.06a4.7 4.7 0 0 0-.4-.18l-.1-.04a4.32 4.32 0 0 0-.6-.18l-.12-.02a2.93 2.93 0 0 0-.25-.04l-.23-.02-.13-.01h-.15l-.12-.01h-.33l-.1.02-.18.01-.14.02-.11.01a3.44 3.44 0 0 0-.58.13l-.15.05a3.45 3.45 0 0 0-.57.24l-.13.06a4.64 4.64 0 0 0-1 .68c-.2.17-.4.37-.6.57l-.12.12-.25.3-.02.01-.07.02-.02-.07a8.37 8.37 0 0 1 .5-1.16 6.25 6.25 0 0 1 .97-1.28l.12-.12a5 5 0 0 1 .64-.49l.17-.1a4.49 4.49 0 0 1 .7-.32l.2-.07a3.44 3.44 0 0 1 .87-.14h.14z" fill="#2e0d19" fill-rule="nonzero"/><g fill="#f14ad0"><ellipse cx="49.33" cy="39.03" rx="3.74" ry="2.4"/><ellipse cx="14.17" cy="39.03" rx="3.74" ry="2.4"/></g><path d="M39.2 38.45a5.7 5.7 0 0 1-.48 2.76 6.56 6.56 0 0 1-2.16 2.7 8.1 8.1 0 0 1-3.48 1.47 8.75 8.75 0 0 1-2.04.05c-.1 0-.2-.02-.29-.03a9.3 9.3 0 0 1-.73-.15l-.3-.08a8.33 8.33 0 0 1-1.85-.82 7.41 7.41 0 0 1-1.95-1.75 6.96 6.96 0 0 1-1.07-2.11 6.01 6.01 0 0 1-.2-2v-.04l.2-.2.2.2.02.2a5.44 5.44 0 0 0 1.86 3.48 6.83 6.83 0 0 0 3.41 1.68 8.38 8.38 0 0 0 2.55.12l.26-.03a6.79 6.79 0 0 0 1.95-.53 6.83 6.83 0 0 0 2.57-1.97 5.58 5.58 0 0 0 1.13-2.9v-.05l.2-.2.2.2z" fill="#2e0d19" fill-rule="nonzero"/></svg>