<svg xmlns="http://www.w3.org/2000/svg" viewBox="0 0 24 24"><path d="M12 0c-.8 0-1.29.605-1.188 1.906 0 .2.086.305.188.407.102.5.313.699.313 1 0 .3-.208.292-.907.593-.398.2-.918.68-1.219 1.281-.3.801-.687 1.602-.687 2 0 .399.895 1.211 1.594 1.813 0 0-.196 1.293.406 3.594.102 1.898.398 3.906.5 5.406h2.188c0-1.5.398-3.508.5-5.406.5-2.301.406-3.594.406-3.594.5-.602 1.406-1.414 1.406-1.813 0-.398-.387-1.199-.688-2-.3-.601-.82-1.18-1.218-1.28-.602-.2-.906-.294-.906-.595 0-.3.21-.5.312-1 .102 0 .188-.207.188-.406C13.289.606 12.8 0 12 0zM8 19v2h8v-2zm-1 3v2h10v-2z"/></svg>