<svg xmlns="http://www.w3.org/2000/svg" viewBox="0 0 24 24"><path d="M12 2a1.999 1.999 0 1 0 0 4 1.999 1.999 0 1 0 0-4zm-1.406 5c-.7 0-1.383.395-1.781 1.094L6.092 13.5l1.813.906L9 12.187V19h2v-4h2v4h2v-6.813l1.094 2.22 1.812-.813-2.718-5.406c-.301-.7-.981-1.094-1.782-1.094L12 11zM6.78 15.125c-1.261.262-2.32.582-3.156 1.031-.418.223-.793.477-1.094.813-.3.336-.531.824-.531 1.343 0 .82.531 1.418 1.125 1.844.594.426 1.34.735 2.219 1C7.105 21.684 9.422 22 12 22c2.578 0 4.895-.316 6.656-.844.88-.265 1.625-.574 2.219-1C21.469 19.73 22 19.133 22 18.313c0-1.043-.777-1.72-1.625-2.188-.848-.469-1.934-.785-3.219-1l-.312 1.969c1.117.187 2.008.472 2.562.781.371.203.508.375.563.438-.032.035-.094.105-.25.218-.313.223-.88.496-1.625.719-1.489.445-3.672.75-6.094.75s-4.605-.305-6.094-.75c-.746-.223-1.312-.496-1.625-.719a1.382 1.382 0 0 1-.25-.218c.074-.083.25-.223.532-.375.562-.301 1.515-.606 2.656-.844z"/></svg>