<svg xmlns="http://www.w3.org/2000/svg" viewBox="0 0 16 16"><path d="M7.5 1C6.676 1 6 1.676 6 2.5S6.676 4 7.5 4 9 3.324 9 2.5 8.324 1 7.5 1zm0 3h-1C5.676 4 5 4.676 5 5.5v3.207l1 1V12h3V9.707l1-1V5.5C10 4.676 9.324 4 8.5 4zm0-2c.281 0 .5.219.5.5s-.219.5-.5.5a.494.494 0 0 1-.5-.5c0-.281.219-.5.5-.5zm-1 3h2c.281 0 .5.219.5.5v2.793l-1 1V11H7V9.293l-1-1V5.5c0-.281.219-.5.5-.5zM4.223 9.344C2.37 9.719 1 10.434 1 11.5 1 13.14 4.27 14 7.5 14s6.5-.86 6.5-2.5c0-1.066-1.371-1.781-3.223-2.156L10 10.12v.066c1.95.313 3 .942 3 1.313 0 .508-1.941 1.5-5.5 1.5S2 12.008 2 11.5c0-.371 1.05-1 3-1.313v-.066z"/></svg>