<svg viewBox="0 0 64 64" xmlns="http://www.w3.org/2000/svg" fill-rule="evenodd" clip-rule="evenodd" stroke-linejoin="round" stroke-miterlimit="1.41"><path d="M32.25 7.4h.16c2.03.09 3.43 1.42 4.97 2.82 7.74 7.03 17.07 21.31 20.05 33.17.48 1.88 1.02 3.8-.05 5.5-1.06 1.7-3.06 2.4-5.13 2.74-5.6.91-12.73 1.37-19.84 1.39h-.31c-7.11-.02-14.25-.48-19.85-1.4-2.07-.33-4.06-1.03-5.13-2.73-1.06-1.7-.52-3.62-.05-5.5 2.98-11.86 12.31-26.14 20.06-33.17 1.53-1.4 2.94-2.73 4.97-2.82h.15z" fill="#ef2b2b"/><clipPath id="a"><path d="M32.25 7.4h.16c2.03.09 3.43 1.42 4.97 2.82 7.74 7.03 17.07 21.31 20.05 33.17.48 1.88 1.02 3.8-.05 5.5-1.06 1.7-3.06 2.4-5.13 2.74-5.6.91-12.73 1.37-19.84 1.39h-.31c-7.11-.02-14.25-.48-19.85-1.4-2.07-.33-4.06-1.03-5.13-2.73-1.06-1.7-.52-3.62-.05-5.5 2.98-11.86 12.31-26.14 20.06-33.17 1.53-1.4 2.94-2.73 4.97-2.82h.15z"/></clipPath><g clip-path="url(#a)"><path d="M33.92 6.27h.16c2.03.09 3.43 1.42 4.96 2.81C46.8 16.12 56.12 30.4 59.1 42.26c.48 1.87 1.02 3.8-.05 5.5-1.06 1.7-3.06 2.4-5.13 2.74-5.6.9-12.73 1.37-19.84 1.38h-.31c-7.11-.01-14.25-.47-19.85-1.39-2.07-.33-4.06-1.04-5.13-2.73-1.07-1.7-.52-3.63-.05-5.5C11.72 30.4 21.05 16.12 28.8 9.08c1.53-1.39 2.94-2.72 4.97-2.81h.1a1 1 0 0 1 .05 0z" fill="#f14a50"/><path d="M7.64 39.86s25.57-20.57 44.63.34l3.29-8c-2.27-10.75-7.7-19.55-16.44-26L22.95 8.66c-8.1 1.87-14.4 4.8-13.75 11.84L7.64 39.86z" fill="url(#b)"/></g><path d="M27.01 31.17c.9-2.88 9.82-3 10.34 0 .36 2.07 3.06 13.67 2.32 15.78-1.62 4.66-12.67 4.73-14.99 0-.97-2 1.7-13.78 2.33-15.78z" fill="#2e0d19"/><clipPath id="c"><path d="M27.01 31.17c.9-2.88 9.82-3 10.34 0 .36 2.07 3.06 13.67 2.32 15.78-1.62 4.66-12.67 4.73-14.99 0-.97-2 1.7-13.78 2.33-15.78z"/></clipPath><g clip-path="url(#c)"><ellipse cx="32.14" cy="48.78" rx="9.28" ry="7.81" fill="#f57bd4"/></g><path d="M27.39 31.34a22.09 22.09 0 0 0-.51 1.96 103 103 0 0 0-1.79 9.41 33.3 33.3 0 0 0-.2 2.56 7.52 7.52 0 0 0 .07 1.15 1.69 1.69 0 0 0 .12.39l.1.2a4.94 4.94 0 0 0 2.04 1.86 8.27 8.27 0 0 0 2.52.9 12.4 12.4 0 0 0 7.07-.58 7.47 7.47 0 0 0 .7-.37 4.2 4.2 0 0 0 1.6-1.6 3.15 3.15 0 0 0 .23-.63l.04-.33v-.9c-.02-.44-.06-.87-.1-1.3-.06-.5-.12-1.01-.2-1.52a87.56 87.56 0 0 0-.56-3.42c-.25-1.33-.51-2.67-.79-4l-.6-2.87a99.03 99.03 0 0 1-.22-1.11 1.33 1.33 0 0 0-.33-.57 2.44 2.44 0 0 0-.75-.53 4.4 4.4 0 0 0-1.08-.38 11.12 11.12 0 0 0-4.4-.08 7.96 7.96 0 0 0-1.83.6 3.87 3.87 0 0 0-.76.55 1.6 1.6 0 0 0-.35.54c0 .04 0 .04-.02.07zm-.74-.39c.04-.1.09-.22.15-.32a3.16 3.16 0 0 1 1.52-1.3 5.46 5.46 0 0 1 .77-.3c.49-.16.99-.28 1.5-.36a11.92 11.92 0 0 1 3.4-.02 8.5 8.5 0 0 1 2.07.57l.26.13c.5.26.97.64 1.23 1.15a2 2 0 0 1 .18.46l.04.23.02.12.09.42.1.54a186.36 186.36 0 0 1 1.8 9.4 53.04 53.04 0 0 1 .38 2.94 16.83 16.83 0 0 1 .04 1.7 3.37 3.37 0 0 1-.23 1.02c-.1.24-.22.46-.36.68a5.46 5.46 0 0 1-2.34 1.9 8.29 8.29 0 0 1-1.06.42 13.45 13.45 0 0 1-8.31-.23 7.9 7.9 0 0 1-1.73-.9 6.05 6.05 0 0 1-1.7-1.77 4.95 4.95 0 0 1-.21-.43c-.1-.25-.14-.51-.16-.77a8.62 8.62 0 0 1-.04-1.09c.01-.47.05-.93.09-1.4l.18-1.58a110.1 110.1 0 0 1 2.27-11.07l.05-.14zM23.53 19.32v.01l.01.54-.36.39-3.33 1.52-.53.02-.38-.37-.02-.54.36-.4 3.34-1.52.52-.01.39.36zm18.12-.35L45 20.5l.36.39-.01.53v.01l-.39.37-.52-.01-3.34-1.53-.36-.4.01-.53.39-.37h.52z" fill="#2e0d19" fill-rule="nonzero"/><path d="M20.89 24.8c2.04-.32 3.9.8 4.16 2.49.25 1.7-1.2 3.33-3.24 3.65-2.04.32-3.9-.8-4.16-2.49-.25-1.7 1.2-3.33 3.24-3.65z" fill="#fff"/><path d="M20.9 25.23a4.38 4.38 0 0 0-1.5.58 3.11 3.11 0 0 0-1.27 1.6 2.3 2.3 0 0 0 .01 1.33 2.19 2.19 0 0 0 .32.61 2.92 2.92 0 0 0 1.75 1.12 4.02 4.02 0 0 0 3.24-.65 2.98 2.98 0 0 0 1.16-1.68 2.3 2.3 0 0 0-.02-1.02 2.22 2.22 0 0 0-.31-.68c-.17-.25-.4-.47-.64-.65a3.26 3.26 0 0 0-1.04-.49 3.82 3.82 0 0 0-1.6-.09l-.1.01zm.03-.86a4.87 4.87 0 0 1 1.93.13 3.88 3.88 0 0 1 2.15 1.54 3.08 3.08 0 0 1-.1 3.48l-.29.36a4.58 4.58 0 0 1-2.8 1.49 4.49 4.49 0 0 1-3.45-.9 3.4 3.4 0 0 1-1-1.42 3.05 3.05 0 0 1-.05-1.8c.1-.4.3-.77.53-1.1.29-.4.66-.76 1.07-1.03a4.69 4.69 0 0 1 1.85-.73l.16-.02z" fill-rule="nonzero"/><path d="M43.62 24.8c-2.04-.32-3.9.8-4.16 2.49-.25 1.7 1.2 3.33 3.24 3.65 2.04.32 3.9-.8 4.15-2.49.26-1.7-1.2-3.33-3.23-3.65z" fill="#fff"/><path d="M42.96 24.32c.4 0 .8.06 1.18.16a4.53 4.53 0 0 1 2.6 1.78 3.54 3.54 0 0 1 .55 1.61 3.06 3.06 0 0 1-1.15 2.6 4.27 4.27 0 0 1-3.35.91 4.65 4.65 0 0 1-3.08-1.72 3.57 3.57 0 0 1-.69-1.84 3.08 3.08 0 0 1 .58-1.93c.39-.55.95-.96 1.56-1.22a4.41 4.41 0 0 1 1.7-.35h.1zm.5.89a4.39 4.39 0 0 0-1.55.1c-.37.1-.73.26-1.04.48-.25.18-.47.4-.64.65a2.22 2.22 0 0 0-.27 1.95 2.98 2.98 0 0 0 1.32 1.59 3.63 3.63 0 0 0 .85.4 4.07 4.07 0 0 0 2.46 0 2.92 2.92 0 0 0 1.62-1.28 2.3 2.3 0 0 0 .26-.98c0-.25-.03-.5-.11-.74a2.8 2.8 0 0 0-.43-.82 3.34 3.34 0 0 0-.86-.78 3.85 3.85 0 0 0-1.52-.56l-.08-.01z" fill-rule="nonzero"/><path d="M48.5 19.53s-1.78 2.05-1.78 2.94a1.78 1.78 0 0 0 3.56 0c0-.89-1.78-2.94-1.78-2.94z" fill="#5aa7e7"/><path d="M49.56 22.24c.39.24.45.8.14 1.23-.3.43-.87.59-1.26.35s-.45-.8-.14-1.23c.3-.43.87-.59 1.26-.35z" fill="#b1d6f4"/><defs><linearGradient id="b" x2="1" gradientUnits="userSpaceOnUse" gradientTransform="matrix(0 8.02014 -6.46868 0 35.37 22.41)"><stop offset="0%" stop-color="#7b53c1"/><stop offset="100%" stop-color="#7b53c1" stop-opacity="0"/></linearGradient></defs></svg>