<svg xmlns="http://www.w3.org/2000/svg" viewBox="0 0 32 32"><path d="M16 4C10.52 4 5.727 6.73 3.437 10.75c-.007.012-.023.02-.03.031C2.52 12.351 2 14.121 2 16c0 6.715 6.363 12 14 12s14-5.285 14-12c0-1.879-.52-3.648-1.406-5.219-.008-.011-.024-.02-.032-.031C26.273 6.73 21.48 4 16 4zm-1.25 2.063c.082-.008.168.003.25 0v2c-1.746.175-3.336.785-4.563 1.75-.28.222-.539.492-.78.75-.63-.536-1.43-.895-2.25-1.094-.122-.031-.25-.04-.376-.063 1.93-1.82 4.621-3.078 7.719-3.344zm2.25 0c3.2.218 5.988 1.472 7.969 3.343-.125.024-.254.031-.375.063-.82.199-1.621.558-2.25 1.094a7.469 7.469 0 0 0-.782-.75c-1.226-.965-2.816-1.575-4.562-1.75zM16 10c1.719 0 3.27.563 4.344 1.406C21.418 12.25 22 13.324 22 14.5s-.582 2.25-1.656 3.094C19.27 18.437 17.719 19 16 19c-1.719 0-3.27-.563-4.344-1.406C10.582 16.75 10 15.676 10 14.5s.582-2.25 1.656-3.094C12.73 10.562 14.281 10 16 10zm-9.688 1.313c.196.003.407.039.625.093.61.149 1.172.528 1.532.875A5.458 5.458 0 0 0 8 14.5c0 1.531.672 2.91 1.719 4-.465.27-.918.613-1.344 1.031-.723.711-1.371 1.672-1.656 2.782C5.019 20.578 4 18.378 4 16a8.54 8.54 0 0 1 1.094-4.156c.02-.028.043-.04.062-.063.16-.215.344-.332.625-.406.157-.04.336-.066.532-.063zm19.375 0a2.03 2.03 0 0 1 .532.062c.312.082.515.195.687.469A8.542 8.542 0 0 1 28 16c0 2.379-1.02 4.578-2.719 6.313-.285-1.11-.933-2.07-1.656-2.782a6.779 6.779 0 0 0-1.344-1.031c1.047-1.09 1.719-2.469 1.719-4 0-.781-.164-1.531-.469-2.219.36-.347.922-.726 1.532-.875.218-.054.43-.09.625-.094zm-14.156 8.624C12.816 20.637 14.355 21 16 21c1.633 0 3.156-.371 4.438-1.063.066.008.238-.003.468.094.383.16.883.48 1.313.907.785.773 1.336 1.804 1.187 2.937C21.38 25.203 18.813 26 16 26c-2.813 0-5.379-.797-7.406-2.125-.149-1.133.402-2.164 1.187-2.938.43-.425.93-.746 1.313-.906.191-.082.355-.086.437-.093z"/></svg>