<svg xmlns="http://www.w3.org/2000/svg" viewBox="0 0 48 48"><path d="M24 6C11.852 6 2 14.059 2 24s9.852 18 22 18 22-8.059 22-18S36.148 6 24 6zm0 23c-6.074 0-11-3.36-11-7.5 0-4.14 4.926-7.5 11-7.5s11 3.36 11 7.5c0 4.14-4.926 7.5-11 7.5z" fill="#9c27b0"/><path d="M24 38C12.172 38 2.523 31.996 2.023 23.219c-.011.258-.023.52-.023.781 0 9.941 9.852 18 22 18s22-8.059 22-18c0-.262-.012-.523-.023-.781C45.477 31.996 35.828 38 24 38z" fill="#7b1fa2"/><path d="M13.898 18.531C13.605 17.477 12.441 14 8 14c-1.598 0-2.977.852-3.82 2.184C7.734 10.156 15.273 6 24 6v8c-4.527 0-8.41 1.867-10.102 4.531z" fill="#ffc107"/><path d="M34.102 18.531C34.395 17.477 35.559 14 40 14c1.598 0 2.977.852 3.82 2.184C40.266 10.156 32.727 6 24 6v8c4.527 0 8.41 1.867 10.102 4.531z" fill="#43a047"/><path d="M43.73 16.055C42.88 14.8 41.547 14 40 14c-4.441 0-5.605 3.477-5.898 4.531-.012-.015-.024-.027-.032-.043.594.922.93 1.942.93 3.012 0 2.738-2.156 5.125-5.367 6.434 1.55-.102 5.57.05 7.367 4.066 1.371 3.063.457 5.406-.945 7.055C42.043 35.84 46 30.3 46 24c0-2.855-.824-5.547-2.27-7.945z" fill="#2196f3"/><path d="M37.66 34.84c.024 1.715-.676 3.12-1.605 4.215.746-.403 1.465-.84 2.144-1.313h.004c.324-.226.64-.46.95-.699l.081-.063a20.273 20.273 0 0 0 2.563-2.402 22.69 22.69 0 0 0 .719-.86c.039-.054.082-.105.12-.156.212-.277.415-.554.606-.84l.04-.05c.21-.313.41-.633.597-.953.016-.028.031-.059.047-.086.16-.278.308-.563.453-.848.039-.082.078-.164.117-.25.117-.242.227-.488.328-.734.04-.09.074-.176.11-.266a14.246 14.246 0 0 0 .64-2.012c.024-.09.04-.18.059-.265.058-.254.11-.512.152-.77.02-.117.04-.23.055-.347.035-.246.066-.496.09-.746.008-.11.02-.215.027-.325.027-.355.043-.71.043-1.07 0-.254-.016-.508-.027-.758-.293 4.938-3.477 8.992-8.313 11.598z" fill="#1976d2"/><path d="M25.82 14.11a15 15 0 0 1 1.39.218c.056.012.11.027.169.04.402.089.793.194 1.176.316.101.03.207.058.304.093.407.137.797.29 1.172.457.09.04.168.082.254.125.309.145.602.301.88.465l.276.164c.317.2.614.41.895.633.094.074.184.152.273.234.203.176.395.356.578.547.079.078.16.16.235.243.21.238.394.488.566.742.035.05.078.093.11.144.058-.199.144-.488.28-.824C32.884 14.387 28.809 12 24 12v2c.504 0 .996.031 1.484.074l.336.035z" fill="#2e7d32"/><path d="M13.621 17.707c.133.336.223.621.277.824.036-.05.079-.097.114-.144.168-.254.355-.504.566-.742.074-.086.156-.165.235-.247.18-.187.374-.37.578-.546.09-.079.18-.157.273-.235.281-.219.578-.43.89-.629l.278-.164c.281-.164.574-.32.883-.469.086-.039.164-.082.25-.12.375-.169.77-.32 1.176-.458.097-.035.203-.062.304-.097.383-.117.774-.227 1.176-.313a2.06 2.06 0 0 0 .168-.043c.45-.094.914-.16 1.39-.215l.337-.035c.488-.043.98-.074 1.484-.074v-2c-4.809 0-8.883 2.387-10.379 5.707z" fill="#ffa000"/><path d="M4.27 16.055C5.12 14.8 6.453 14 8 14c4.441 0 5.605 3.477 5.898 4.531.012-.015.024-.027.032-.043-.594.922-.93 1.942-.93 3.012 0 2.738 2.156 5.125 5.367 6.434-1.55-.102-5.57.05-7.367 4.066-1.371 3.063-.457 5.406.945 7.055C5.957 35.84 2 30.3 2 24c0-2.855.824-5.547 2.27-7.945z" fill="#ff3d00"/><path d="M13.035 21.031c0-.008.004-.015.004-.02a4.74 4.74 0 0 1 .106-.66l.023-.093c.047-.2.11-.395.18-.586.02-.055.043-.11.062-.164.07-.168.145-.336.23-.5.044-.082.087-.156.133-.238.055-.094.098-.188.157-.282-.008.016-.02.028-.032.043a7.007 7.007 0 0 0-.277-.824A6.764 6.764 0 0 0 13 20.5c0 .18.02.355.035.531z" fill="#dd2c00"/><path d="M34.07 18.488c.059.094.102.192.157.285.046.079.09.157.132.235.086.164.16.332.23.504.02.05.044.105.063.16a5.074 5.074 0 0 1 .203.683 5.22 5.22 0 0 1 .11.676c.015-.176.035-.351.035-.531 0-.98-.227-1.918-.621-2.793a7.827 7.827 0 0 0-.277.824c-.012-.015-.024-.027-.032-.043z" fill="#1976d2"/><path d="M2.07 25.395a17.236 17.236 0 0 0 .145 1.089c.043.258.094.516.152.77.02.09.035.18.059.27a15.672 15.672 0 0 0 .316 1.12c.098.301.207.598.324.891.036.086.07.176.11.262.101.25.21.496.328.738l.117.25a19.716 19.716 0 0 0 .5.934c.188.32.39.64.598.953.011.016.027.035.039.05.191.286.394.563.605.84.04.051.082.102.121.157.204.254.41.504.625.746.032.039.063.074.094.11.77.862 1.625 1.667 2.563 2.402l.082.066c.308.238.625.473.949.7H9.8c.68.472 1.398.91 2.144 1.312-.93-1.094-1.629-2.504-1.605-4.22-4.836-2.6-8.02-6.655-8.313-11.593-.011.25-.027.504-.027.758 0 .36.016.715.043 1.07.008.106.02.215.027.325z" fill="#dd2c00"/></svg>