<svg xmlns="http://www.w3.org/2000/svg" viewBox="0 0 40 40"><path d="M4 20.5A1.5 1.5 0 0 1 2.5 19v-1A1.5 1.5 0 0 1 4 16.5h32a1.5 1.5 0 0 1 1.5 1.5v1a1.5 1.5 0 0 1-1.5 1.5z" fill="#98ccfd"/><path d="M36 17c.55 0 1 .45 1 1v1c0 .55-.45 1-1 1H4c-.55 0-1-.45-1-1v-1c0-.55.45-1 1-1h32m0-1H4a2 2 0 0 0-2 2v1a2 2 0 0 0 2 2h32a2 2 0 0 0 2-2v-1a2 2 0 0 0-2-2z" fill="#4788c7"/><path d="M31.5 34.5c-.55 0-1-.45-1-1v-6h5v6c0 .55-.45 1-1 1z" fill="#b6dcfe"/><path d="M35 28v5.5c0 .277-.223.5-.5.5h-3a.498.498 0 0 1-.5-.5V28h4m1-1h-6v6.5a1.5 1.5 0 0 0 1.5 1.5h3a1.5 1.5 0 0 0 1.5-1.5z" fill="#4788c7"/><path d="M5.5 34.5c-.55 0-1-.45-1-1v-6h5v6c0 .55-.45 1-1 1z" fill="#b6dcfe"/><path d="M9 28v5.5c0 .277-.223.5-.5.5h-3a.498.498 0 0 1-.5-.5V28h4m1-1H4v6.5A1.5 1.5 0 0 0 5.5 35h3a1.5 1.5 0 0 0 1.5-1.5z" fill="#4788c7"/><path d="M7 31.5A2.502 2.502 0 0 1 4.5 29v-9.082l1.035-2.629 2.36-8.926A2.503 2.503 0 0 1 10.313 6.5h19.374a2.5 2.5 0 0 1 2.418 1.863l2.34 8.871 1.055 2.684V29c0 1.379-1.121 2.5-2.5 2.5z" fill="#98ccfd"/><path d="M29.688 7c.906 0 1.703.613 1.933 1.488l2.34 8.875.016.055.02.055L35 20.012V29c0 1.102-.898 2-2 2H7c-1.102 0-2-.898-2-2v-8.988l1.004-2.535.02-.055.015-.059 2.34-8.875A1.999 1.999 0 0 1 10.313 7h19.374m0-1H10.313A3.001 3.001 0 0 0 7.41 8.234l-2.34 8.871L4 19.82V29a3 3 0 0 0 3 3h26a3 3 0 0 0 3-3v-9.18l-1.07-2.715-2.34-8.87A3.001 3.001 0 0 0 29.687 6z" fill="#4788c7"/><path d="M33 23a1.999 1.999 0 1 1-4 0 1.999 1.999 0 1 1 4 0zm-22 0a1.999 1.999 0 1 1-4 0 1.999 1.999 0 1 1 4 0z" fill="#fff"/><path d="M12.602 31.5l1.046-5.77a1.5 1.5 0 0 1 1.477-1.23h9.754a1.5 1.5 0 0 1 1.473 1.23l1.046 5.77z" fill="#dff0fe"/><path d="M24.875 25c.484 0 .898.344.984.82l.942 5.18H13.199l.942-5.18c.086-.476.5-.82.984-.82h9.75m0-1h-9.754c-.965 0-1.793.691-1.965 1.64L12 32h16l-1.156-6.36c-.172-.949-1-1.64-1.969-1.64z" fill="#4788c7"/><path d="M4 17h32v3H4z" fill="#98ccfd"/><path d="M5.75 16.5l2.145-8.137A2.5 2.5 0 0 1 10.313 6.5h19.374a2.5 2.5 0 0 1 2.418 1.863l2.149 8.137z" fill="#dff0fe"/><path d="M29.688 7c.906 0 1.703.613 1.933 1.488L33.601 16H6.399l1.98-7.512A1.999 1.999 0 0 1 10.313 7h19.376m0-1H10.313A3.001 3.001 0 0 0 7.41 8.234L5.102 17h29.796L32.59 8.234A3.001 3.001 0 0 0 29.687 6z" fill="#4788c7"/><path d="M14.809 6.5l1.5-3h7.382l1.5 3z" fill="#b6dcfe"/><path d="M23.383 4l1 2h-8.766l1-2h6.766M24 3h-8l-2 4h12z" fill="#4788c7"/></svg>