<svg xmlns="http://www.w3.org/2000/svg" viewBox="0 0 24 24"><path d="M10.719 7a.727.727 0 0 0-.719.719v.625c-1.762.105-2.375.344-2.375.344-.707.234-1.672.57-2.063 1.312-.187.36-.894 2.262-1.53 4h-.876c-.367 0-.75.29-.875.656l-.25.688c-.125.367.07.656.438.656h.812l-.156.469c-.063.11-.125.617-.125.75v6.062c0 .39.328.719.719.719H6.28c.39 0 .719-.328.719-.719V22h10v1.281c0 .39.328.719.719.719h2.562c.39 0 .719-.328.719-.719V17.22c0-.133-.063-.64-.125-.75l-.155-.47h.812c.367 0 .563-.29.438-.656l-.25-.688c-.125-.367-.508-.656-.875-.656h-.875c-.63-1.684-1.336-3.523-1.563-4.031-.343-.766-1.43-1.114-2.031-1.281 0 0-.613-.239-2.375-.344v-.625A.727.727 0 0 0 13.281 7zM12 9.781c5.082 0 5.207.864 5.219.875.156.469.785 1.61 1.281 3.625 0 0-2.156.719-6.5.719-4.344 0-6.5-.719-6.5-.719.527-2.187 1.094-3.156 1.219-3.5.101-.25.199-1 5.281-1zm-7.469 7.063c.102-.012.203 0 .313 0 .433 0 1.308.37 1.875.625.617.277 1.312.508 1.312.968 0 .426-.222.625-1.031.625H5.906c-.957 0-1.906-.14-1.906-.75v-.718c0-.535.227-.711.531-.75zm14.625 0c.446 0 .844.039.844.75v.718c0 .61-.95.75-1.906.75H17c-.805 0-1.031-.199-1.031-.625 0-.46.695-.69 1.312-.968.567-.254 1.442-.625 1.875-.625z"/></svg>