<svg viewBox="0 0 64 64" xmlns="http://www.w3.org/2000/svg" fill-rule="evenodd" clip-rule="evenodd" stroke-linejoin="round" stroke-miterlimit="1.41"><path d="M31.75 8.15h.15c2.03.1 3.44 1.43 4.97 2.82C44.62 18 53.95 32.29 56.93 44.15c.47 1.87 1.02 3.8-.05 5.5-1.07 1.69-3.06 2.4-5.13 2.73-5.6.91-12.74 1.37-19.85 1.39h-.31c-7.1-.02-14.25-.48-19.84-1.39-2.07-.34-4.07-1.04-5.13-2.74-1.07-1.69-.53-3.62-.05-5.5C9.55 32.3 18.87 18 26.63 10.98c1.53-1.4 2.93-2.73 4.96-2.82h.16z" fill="#ef2b2b"/><clipPath id="a"><path d="M31.75 8.15h.15c2.03.1 3.44 1.43 4.97 2.82C44.62 18 53.95 32.29 56.93 44.15c.47 1.87 1.02 3.8-.05 5.5-1.07 1.69-3.06 2.4-5.13 2.73-5.6.91-12.74 1.37-19.85 1.39h-.31c-7.1-.02-14.25-.48-19.84-1.39-2.07-.34-4.07-1.04-5.13-2.74-1.07-1.69-.53-3.62-.05-5.5C9.55 32.3 18.87 18 26.63 10.98c1.53-1.4 2.93-2.73 4.96-2.82h.16z"/></clipPath><g clip-path="url(#a)"><path d="M33.42 7.02h.15c2.03.09 3.44 1.42 4.97 2.81 7.75 7.04 17.08 21.32 20.06 33.18.47 1.88 1.01 3.8-.05 5.5-1.07 1.7-3.06 2.4-5.13 2.74a131.4 131.4 0 0 1-19.85 1.38h-.31a131.3 131.3 0 0 1-19.84-1.38c-2.07-.34-4.07-1.04-5.13-2.74-1.07-1.7-.53-3.62-.06-5.5C11.22 31.15 20.54 16.87 28.3 9.83c1.54-1.39 2.94-2.72 4.97-2.8v-.01h.16z" fill="#f14a50"/></g><circle cx="19.9" cy="34.26" r="2.98" fill="url(#b)"/><clipPath id="c"><circle cx="19.9" cy="34.26" r="2.98"/></clipPath><g clip-path="url(#c)" fill="#fff"><circle cx="18.61" cy="35.83" r="1.29"/><circle cx="19.68" cy="33.75" r=".65"/></g><circle cx="43.6" cy="34.26" r="2.98" fill="url(#d)"/><clipPath id="e"><circle cx="43.6" cy="34.26" r="2.98"/></clipPath><g clip-path="url(#e)" fill="#fff"><circle cx="42.3" cy="35.83" r="1.29"/><circle cx="43.38" cy="33.75" r=".65"/></g><path d="M31.75 38.46h.31a8.78 8.78 0 0 1 2.25.45 6.68 6.68 0 0 1 1.09.48 8.01 8.01 0 0 1 1.58 1.14 6.8 6.8 0 0 1 1.56 2.2 6.07 6.07 0 0 1 .49 2.75l-.2.2-.2-.2-.02-.2a5.53 5.53 0 0 0-2.1-3.74 6.56 6.56 0 0 0-2.28-1.23 7.36 7.36 0 0 0-2.22-.35h-.34a9.37 9.37 0 0 0-2.57.45l-.16.06a7.21 7.21 0 0 0-2.2 1.33 6.15 6.15 0 0 0-1.22 1.54 6.1 6.1 0 0 0-.57 1.57l-.07.53v.04l-.2.2-.2-.2a5.9 5.9 0 0 1 1.48-4.43 7.34 7.34 0 0 1 3.58-2.29l.3-.08c.24-.06.48-.1.73-.14l.3-.04.43-.04h.45zM22.42 26.4l.01.58-.39.42-3.66 1.63-.58.02-.42-.4-.02-.58.4-.42 3.66-1.64H22l.42.39zm19.48-.39l3.66 1.64.4.42-.02.57-.42.4-.57-.01-3.67-1.63-.4-.42.02-.58.42-.4.58.01z" fill="#2e0d19" fill-rule="nonzero"/><defs><radialGradient id="b" cx="0" cy="0" r="1" gradientUnits="userSpaceOnUse" gradientTransform="translate(19.9 34.26) scale(2.97474)"><stop offset="0%" stop-color="#1d1d1d"/><stop offset="100%"/></radialGradient><radialGradient id="d" cx="0" cy="0" r="1" gradientUnits="userSpaceOnUse" gradientTransform="translate(43.6 34.26) scale(2.97474)"><stop offset="0%" stop-color="#1d1d1d"/><stop offset="100%"/></radialGradient></defs></svg>