<svg viewBox="0 0 64 64" xmlns="http://www.w3.org/2000/svg" fill-rule="evenodd" clip-rule="evenodd" stroke-linejoin="round" stroke-miterlimit="1.41"><path d="M31.7 8.47h.14c2.03.09 3.44 1.42 4.97 2.81 7.75 7.04 17.07 21.32 20.06 33.18.47 1.87 1.01 3.8-.05 5.5-1.07 1.7-3.06 2.4-5.13 2.73-5.6.92-12.74 1.38-19.85 1.4h-.31c-7.11-.02-14.25-.48-19.84-1.4-2.08-.33-4.07-1.04-5.14-2.73-1.06-1.7-.52-3.63-.05-5.5 3-11.86 12.32-26.14 20.07-33.18 1.53-1.39 2.94-2.72 4.97-2.81h.16z" fill="#ef2b2b"/><clipPath id="a"><path d="M31.7 8.47h.14c2.03.09 3.44 1.42 4.97 2.81 7.75 7.04 17.07 21.32 20.06 33.18.47 1.87 1.01 3.8-.05 5.5-1.07 1.7-3.06 2.4-5.13 2.73-5.6.92-12.74 1.38-19.85 1.4h-.31c-7.11-.02-14.25-.48-19.84-1.4-2.08-.33-4.07-1.04-5.14-2.73-1.06-1.7-.52-3.63-.05-5.5 3-11.86 12.32-26.14 20.07-33.18 1.53-1.39 2.94-2.72 4.97-2.81h.16z"/></clipPath><g clip-path="url(#a)"><path d="M33.37 7.33h.15c2.03.1 3.44 1.43 4.97 2.82 7.75 7.03 17.07 21.32 20.06 33.18.47 1.87 1.01 3.8-.05 5.5-1.07 1.69-3.06 2.4-5.13 2.73-5.6.91-12.74 1.37-19.85 1.39h-.31c-7.11-.02-14.25-.48-19.85-1.39-2.07-.34-4.06-1.04-5.13-2.73-1.06-1.7-.52-3.63-.05-5.5 2.99-11.86 12.31-26.15 20.06-33.18 1.53-1.4 2.94-2.73 4.97-2.81h.15z" fill="#f14a50"/></g><path d="M22.56 21.36l.33.43v.01l-.08.54-.43.33-3.69.95-.54-.08-.33-.43v-.01l.08-.54.43-.33 3.69-.95.54.08zm18.64-.08l3.67.95.44.33.08.54-.33.44-.54.08-3.69-.95-.43-.33-.08-.54.33-.44c.18-.03.37-.12.54-.08z" fill="#2e0d19" fill-rule="nonzero"/><path d="M21.77 27.46a4.47 4.47 0 0 1 6.45-2.38c1.83 1.18 3.09 4.55.89 6.98-3.35 3.69-4.08 4.67-5.92 6.42-2.23-1.23-3.19-2-7.36-4.72-2.73-1.8-2.37-5.37-.89-6.98a4.47 4.47 0 0 1 6.83.68z" fill="#d711b0"/><clipPath id="b"><path d="M21.77 27.46a4.47 4.47 0 0 1 6.45-2.38c1.83 1.18 3.09 4.55.89 6.98-3.35 3.69-4.08 4.67-5.92 6.42-2.23-1.23-3.19-2-7.36-4.72-2.73-1.8-2.37-5.37-.89-6.98a4.47 4.47 0 0 1 6.83.68z"/></clipPath><g clip-path="url(#b)"><path d="M21.98 26.22c1.28-3.14 4.78-2.76 6.62-1.58 1.84 1.19 3.09 4.56.9 6.98-3.35 3.7-3.83 4.9-5.67 6.66l-.26-.23c-2.22-1.24-3.18-2-7.35-4.73-2.74-1.8-2.38-5.37-.9-6.98 1.48-1.6 4.62-2.84 6.66-.12z" fill="#f14ad0"/><path d="M26.39 25.52a3.5 3.5 0 0 1 .74.1l.25.1.17.08c.18.1.34.24.48.4a2.3 2.3 0 0 1 .54 1.18l-.07-.08-.06-.09a2.73 2.73 0 0 0-.35-.34 1.9 1.9 0 0 0-.83-.42l-.12-.02a2.95 2.95 0 0 0-1.65.16h-.35l-.24-.24V26l.24-.25.08-.03a3.7 3.7 0 0 1 1.17-.2zm-7.61.98a3.18 3.18 0 0 1 .61.06l.13.04c.09.02.17.06.26.1l.16.08a1.94 1.94 0 0 1 .8.87l.08.19c.06.16.1.34.14.51v.01l-.06-.09-.07-.08a2.75 2.75 0 0 0-.35-.35 1.93 1.93 0 0 0-.82-.41l-.13-.03-.28-.04h-.12a3.01 3.01 0 0 0-1.25.2h-.35l-.24-.24v-.35l.24-.24.08-.03a4.02 4.02 0 0 1 1.17-.2z" fill="#f46ad8" fill-rule="nonzero"/></g><path d="M41.62 27.46a4.47 4.47 0 0 1 6.83-.68c1.48 1.6 1.84 5.18-.9 6.97-4.16 2.74-5.12 3.5-7.34 4.73h-.01c-1.84-1.75-2.57-2.73-5.92-6.42-2.2-2.43-.94-5.8.9-6.98a4.47 4.47 0 0 1 6.43 2.38z" fill="#d711b0"/><clipPath id="c"><path d="M41.62 27.46a4.47 4.47 0 0 1 6.83-.68c1.48 1.6 1.84 5.18-.9 6.97-4.16 2.74-5.12 3.5-7.34 4.73h-.01c-1.84-1.75-2.57-2.73-5.92-6.42-2.2-2.43-.94-5.8.9-6.98a4.47 4.47 0 0 1 6.43 2.38z"/></clipPath><g clip-path="url(#c)"><path d="M42.13 26.31c2.03-2.71 5.32-1.46 6.8.14 1.48 1.61 1.84 5.19-.9 6.98-4.16 2.73-4.93 3.78-7.15 5.02l-.2-.29c-1.84-1.76-2.57-2.74-5.92-6.43-2.2-2.42-.94-5.8.9-6.97 1.83-1.19 5.18-1.59 6.47 1.55z" fill="#f14ad0"/><path d="M45.72 26.63a4 4 0 0 1 1.1.2 2.61 2.61 0 0 1 .44.2l.22.16.14.12a1.76 1.76 0 0 1 .25.3l.05.09a2.31 2.31 0 0 1 .3 1.39v.01l-.05-.1-.05-.1a2.66 2.66 0 0 0-.24-.42 1.96 1.96 0 0 0-.7-.6l-.11-.07a2.72 2.72 0 0 0-.26-.1l-.12-.04a2.37 2.37 0 0 0-.45-.1 3 3 0 0 0-.81-.02l-.34-.08-.17-.3.09-.34.3-.17.07-.01.24-.01h.1zm-7.62-.97a4.47 4.47 0 0 1 .83.1 3.1 3.1 0 0 1 .72.3 2.47 2.47 0 0 1 .36.28 1.75 1.75 0 0 1 .25.3l.05.08a2.62 2.62 0 0 1 .24.62l.05.25c.01.17.02.35 0 .53l-.04-.1-.04-.1a3.2 3.2 0 0 0-.25-.42 1.97 1.97 0 0 0-.7-.6l-.11-.06a2.81 2.81 0 0 0-.26-.1l-.12-.05a1.9 1.9 0 0 0-.45-.1 3 3 0 0 0-.81-.01l-.34-.09-.17-.3.09-.33.3-.18a21.55 21.55 0 0 1 .32-.02h.09z" fill="#f46ad8" fill-rule="nonzero"/></g><path d="M23.14 40.08c0 5.75 3.83 10.41 8.55 10.41 4.73 0 8.56-4.66 8.56-10.41H23.14z" fill="#2e0d19"/><clipPath id="d"><path d="M23.14 40.08c0 5.75 3.83 10.41 8.55 10.41 4.73 0 8.56-4.66 8.56-10.41H23.14z"/></clipPath><g clip-path="url(#d)"><path d="M31.7 43.86c3.53.01 6.4 2.19 6.39 4.86 0 2.67-2.88 4.83-6.4 4.82-3.53-.01-6.4-2.18-6.39-4.85 0-2.67 2.88-4.83 6.4-4.83z" fill="#f14ad0"/></g><path d="M22.87 39.99l.04-.08a.28.28 0 0 1 .14-.1c.04-.02.05-.02.1-.02h17.1l.09.01c.08.03.15.1.18.19l.01.09a12.52 12.52 0 0 1-.29 2.72 11.39 11.39 0 0 1-3.2 5.8 8.9 8.9 0 0 1-2.39 1.56 7.6 7.6 0 0 1-3.75.57 7.6 7.6 0 0 1-2.42-.68 8.7 8.7 0 0 1-2.47-1.78 10.6 10.6 0 0 1-2.1-3.11 12.23 12.23 0 0 1-1.05-4.95v-.18l.01-.04zm8.82.37h-8.26c.04 1.59.38 3.17 1.03 4.62a10 10 0 0 0 2 2.93 8.08 8.08 0 0 0 2.32 1.64 7 7 0 0 0 4.16.54 7.02 7.02 0 0 0 2.76-1.15 8.4 8.4 0 0 0 1.78-1.64 10.81 10.81 0 0 0 2.22-4.68c.15-.73.23-1.47.26-2.21v-.05h-8.27z" fill="#2e0d19" fill-rule="nonzero"/></svg>