<svg viewBox="0 0 64 64" xmlns="http://www.w3.org/2000/svg" fill-rule="evenodd" clip-rule="evenodd" stroke-linejoin="round" stroke-miterlimit="1.41"><path d="M31.6 8.66h.16c2.03.1 3.44 1.43 4.97 2.82C44.48 18.5 53.8 32.8 56.79 44.66c.47 1.87 1.01 3.8-.05 5.5-1.07 1.7-3.06 2.4-5.14 2.73-5.59.92-12.73 1.37-19.84 1.39h-.31c-7.11-.02-14.25-.47-19.85-1.39-2.07-.34-4.06-1.04-5.13-2.73-1.06-1.7-.52-3.63-.05-5.5C9.41 32.8 18.73 18.5 26.48 11.48c1.53-1.4 2.94-2.73 4.97-2.81h.15z" fill="#ef2b2b"/><clipPath id="a"><path d="M31.6 8.66h.16c2.03.1 3.44 1.43 4.97 2.82C44.48 18.5 53.8 32.8 56.79 44.66c.47 1.87 1.01 3.8-.05 5.5-1.07 1.7-3.06 2.4-5.14 2.73-5.59.92-12.73 1.37-19.84 1.39h-.31c-7.11-.02-14.25-.47-19.85-1.39-2.07-.34-4.06-1.04-5.13-2.73-1.06-1.7-.52-3.63-.05-5.5C9.41 32.8 18.73 18.5 26.48 11.48c1.53-1.4 2.94-2.73 4.97-2.81h.15z"/></clipPath><g clip-path="url(#a)"><path d="M33.27 7.53h.16c2.03.09 3.44 1.42 4.97 2.81 7.75 7.04 17.07 21.32 20.06 33.19.47 1.87 1.01 3.8-.05 5.5-1.07 1.69-3.06 2.39-5.13 2.73a131.4 131.4 0 0 1-19.85 1.38h-.31a131.4 131.4 0 0 1-19.85-1.38c-2.07-.34-4.06-1.04-5.13-2.74-1.06-1.7-.52-3.62-.05-5.5 2.99-11.86 12.31-26.14 20.06-33.18 1.53-1.39 2.94-2.72 4.97-2.8v-.01h.15z" fill="#f14a50"/></g><circle cx="19.76" cy="34.11" r="2.98" fill="url(#b)"/><clipPath id="c"><circle cx="19.76" cy="34.11" r="2.98"/></clipPath><g clip-path="url(#c)" fill="#fff"><circle cx="18.46" cy="35.68" r="1.29"/><circle cx="19.54" cy="33.6" r=".65"/></g><circle cx="43.45" cy="34.11" r="2.98" fill="url(#d)"/><clipPath id="e"><circle cx="43.45" cy="34.11" r="2.98"/></clipPath><g clip-path="url(#e)" fill="#fff"><circle cx="42.16" cy="35.68" r="1.29"/><circle cx="43.23" cy="33.6" r=".65"/></g><path d="M22.34 25.24l.22.53-.22.54-.53.22h-4.02l-.53-.22-.22-.53v-.01l.22-.53.53-.22h4.02l.53.22zM46 24.82l.21.53-.22.54-.53.22h-4.02l-.52-.22-.23-.53v-.01l.23-.53.52-.22h4.02l.53.22z" fill="#2e0d19" fill-rule="nonzero"/><path d="M33.15 40.96c8.74-.17 13.96-1.53 13.57-2.76 1.52.65 1.54 6.19-3.9 10.38-2.27 1.75-5.56 2.63-9.05 2.93-.35.08-.72.12-1.1.12h-2.12c-.39 0-.76-.04-1.1-.12-3.5-.3-6.8-1.18-9.06-2.93-5.43-4.2-5.42-9.73-3.9-10.38-.39 1.23 4.83 2.6 13.57 2.76h.45a98.5 98.5 0 0 0 2.64 0z" fill="#fff"/><clipPath id="f"><path d="M33.15 40.96c8.74-.17 13.96-1.53 13.57-2.76 1.52.65 1.54 6.19-3.9 10.38-2.27 1.75-5.56 2.63-9.05 2.93-.35.08-.72.12-1.1.12h-2.12c-.39 0-.76-.04-1.1-.12-3.5-.3-6.8-1.18-9.06-2.93-5.43-4.2-5.42-9.73-3.9-10.38-.39 1.23 4.83 2.6 13.57 2.76h.45a98.5 98.5 0 0 0 2.64 0z"/></clipPath><g clip-path="url(#f)" fill="#2e0d19"><path d="M16.13 42.98c.15.17 2.43 2.6 5.3 2.74 0 0-3.56.62-5.1-.83l-.2-1.9zm31.23-.03c-.15.17-2.43 2.6-5.3 2.74 0 0 3.56.62 5.1-.83l.2-1.9z"/></g><defs><radialGradient id="b" cx="0" cy="0" r="1" gradientUnits="userSpaceOnUse" gradientTransform="translate(19.76 34.1) scale(2.97474)"><stop offset="0%" stop-color="#1d1d1d"/><stop offset="100%"/></radialGradient><radialGradient id="d" cx="0" cy="0" r="1" gradientUnits="userSpaceOnUse" gradientTransform="translate(43.45 34.1) scale(2.97474)"><stop offset="0%" stop-color="#1d1d1d"/><stop offset="100%"/></radialGradient></defs></svg>