<svg xmlns="http://www.w3.org/2000/svg" viewBox="0 0 50 50"><path d="M25.098 2C12.535 2 12.16 15.082 12 20.7c0 .109.012.308.031.566.16 2.23-.008 2.847-.14 3.03-.575.58-.891 1.693-.891 1.704 0 2.996 4.16 3.488 8 3.898v1.864c-.57.93-2.57 1.656-4.395 2.32-.32.137-.648.277-.984.418C9.961 36.027 5.411 37.934 5 44v4h40v-4.066c-.41-6-4.96-7.907-8.621-9.438-.332-.14-.66-.277-1.035-.437-1.778-.645-3.774-1.371-4.344-2.297V30l1.066-.14C34.992 29.464 39 28.921 39 26c0-.621-.168-1.164-.477-1.566-.355-.516-.523-1.266-.523-4.133 0-5.246 0-11.196-3.191-14.606-1.274-1.273-2.965-2.004-5.032-2.172A7.878 7.878 0 0 0 25.097 2zm-1.48 34h2.765c.379 0 .722.215.894.55L28 38h3c.55 0 1 .45 1 1v6c0 .55-.45 1-1 1H19c-.55 0-1-.45-1-1v-6c0-.55.45-1 1-1h3l.723-1.45c.172-.335.515-.55.894-.55zM25 40a1.999 1.999 0 1 0 0 4 1.999 1.999 0 1 0 0-4z"/></svg>