<svg xmlns="http://www.w3.org/2000/svg" viewBox="0 0 50 50"><path d="M25 1c-3.598 0-6.547 1.363-8.281 3.813-1.883 2.656-2.227 6.43-.969 10.437-.398.535-.719 1.375-.625 2.5.297 2.164 1.11 3.043 1.781 3.406.34 1.805 1.305 3.692 2.188 4.594.004.223-.086 2.547-.094 2.563V36c-.73 0-1.41.219-2 .563v-6.438c-.832.441-1.832.855-2.906 1.281C10.19 32.953 5.336 34.875 5 41v9h40v-9.063c-.336-6.09-5.215-8.019-9.125-9.562-1.063-.422-2.043-.813-2.875-1.25v6.438A3.968 3.968 0 0 0 31 36v-7.531c-.035-.063-.188-1.696-.188-2.719.868-.914 1.774-2.828 2.157-4.563.718-.34 1.605-1.214 1.812-3.5.098-1.136-.191-1.968-.625-2.5.586-2.062 1.532-6.644-.375-9.593-.843-1.309-2.101-2.11-3.781-2.407C29.012 1.853 27.11 1 25 1zm-2.5 35.094h5c.398 0 .805.293.906.593L29 38h2c1.102 0 2 .898 2 2v6c0 1.102-.898 2-2 2H19c-1.102 0-2-.898-2-2v-6c0-.137.004-.277.031-.406A2.015 2.015 0 0 1 19 38h2.094l.5-1.313c.199-.398.508-.593.906-.593zM25 40a3 3 0 1 0 .002 6.002A3 3 0 0 0 25 40z"/></svg>