<?xml version="1.0" encoding="utf-8"?>
<!-- Generator: Adobe Illustrator 22.0.1, SVG Export Plug-In . SVG Version: 6.00 Build 0)  -->
<svg version="1.1" xmlns="http://www.w3.org/2000/svg" xmlns:xlink="http://www.w3.org/1999/xlink" x="0px" y="0px"
	 viewBox="0 0 141.6 149.469" enable-background="new 0 0 141.6 149.469" xml:space="preserve">
<g id="Background">
</g>
<g id="Objects">
	<g>
		<polygon fill="#458985" points="71.976,0 7.053,37.02 6.652,111.754 71.173,149.469 136.096,112.449 136.497,37.715 		"/>
		<polygon fill="#FFFFFF" points="71.95,4.887 11.273,39.486 10.897,109.333 71.2,144.582 131.877,109.983 132.252,40.135 		"/>
		<polygon fill="#254456" points="71.93,8.603 14.481,41.361 14.125,107.493 71.22,140.866 128.669,108.108 129.024,41.976 		"/>
		<rect x="9.712" y="60.957" fill="#458985" width="123.725" height="27.556"/>
		<g>
			<g>
				<path fill="#F0BC5B" d="M84.035,66.426h-9.821l-4.91,8.505l4.91,8.505h9.821l4.91-8.505L84.035,66.426z M79.124,78.974
					c-2.233,0-4.044-1.81-4.044-4.044c0-2.233,1.811-4.044,4.044-4.044c2.233,0,4.044,1.81,4.044,4.044
					C83.168,77.164,81.357,78.974,79.124,78.974z"/>
				<path fill="#FFFFFF" d="M79.124,77.435c-1.383,0-2.504-1.121-2.504-2.504c0-1.383,1.121-2.504,2.504-2.504
					c1.383,0,2.504,1.121,2.504,2.504C81.628,76.314,80.507,77.435,79.124,77.435z"/>
			</g>
			<path fill="#FFFFFF" d="M20.238,83.436c-0.603,0-0.868-0.264-0.868-0.866V66.98c0-0.601,0.264-0.866,0.868-0.866h3.728
				c0.601,0,0.866,0.264,0.866,0.866v11.909h3.297v-3.897c0-0.602,0.264-0.867,0.866-0.867h3.489c0.601,0,0.866,0.264,0.866,0.867
				v7.578c0,0.601-0.264,0.866-0.866,0.866H20.238z"/>
			<path fill="#FFFFFF" d="M40.142,83.436h-3.538c-0.601,0-0.866-0.264-0.866-0.866v-6.352c0-0.962,0.29-2.165,0.938-3.849
				l2.094-5.46c0.192-0.553,0.576-0.794,1.226-0.794h6.472c0.625,0,1.009,0.241,1.203,0.794l2.092,5.46
				c0.65,1.685,0.938,2.887,0.938,3.849v6.352c0,0.601-0.264,0.866-0.866,0.866h-3.632c-0.65,0-0.938-0.264-0.938-0.866v-3.368
				h-4.258v3.368C41.008,83.171,40.744,83.436,40.142,83.436z M41.249,74.824h3.777l-1.13-3.657
				c-0.121-0.289-0.266-0.408-0.458-0.408h-0.601c-0.192,0-0.337,0.119-0.456,0.408L41.249,74.824z"/>
			<path fill="#FFFFFF" d="M54.538,83.436c-0.603,0-0.868-0.264-0.868-0.866V66.98c0-0.601,0.264-0.866,0.868-0.866h7.673
				c3.152,0,4.619,1.155,4.619,3.681v1.155c0,1.348-0.457,2.189-1.418,2.598c2.069,0.192,3.03,1.371,3.03,3.729v2.214
				c0,2.694-1.467,3.945-4.666,3.945H54.538z M59.084,72.802h2.045c0.625,0,0.913-0.313,0.913-0.962v-0.674
				c0-0.649-0.288-0.962-0.913-0.962h-2.045V72.802z M59.084,79.346h3.126c0.627,0,0.915-0.312,0.915-0.962v-0.938
				c0-0.649-0.288-0.938-0.915-0.938h-3.126V79.346z"/>
			<path fill="#FFFFFF" d="M97.955,83.436c-5.967,0-7.434-1.972-7.434-4.907V66.62c0-0.602,0.264-0.866,0.866-0.866h3.777
				c0.601,0,0.866,0.264,0.866,0.866v10.97c0,0.649,0.29,1.13,1.973,1.13c1.708,0,1.998-0.481,1.998-1.13V66.62
				c0-0.602,0.241-0.866,0.866-0.866h3.657c0.601,0,0.866,0.264,0.866,0.866v11.909C105.389,81.463,103.922,83.436,97.955,83.436z"
				/>
			<path fill="#FFFFFF" d="M109.466,83.436c-0.603,0-0.868-0.264-0.868-0.866V66.98c0-0.601,0.265-0.866,0.868-0.866h8.01
				c3.608,0,4.74,1.636,4.74,4.018v1.107c0,1.347-0.337,2.309-1.348,2.742c1.755,0.192,2.911,1.467,2.911,3.488v5.101
				c0,0.601-0.265,0.866-0.866,0.866h-3.73c-0.601,0-0.866-0.264-0.866-0.866v-3.681c0-0.722-0.241-1.034-0.915-1.034h-3.367v4.715
				c0,0.601-0.264,0.866-0.866,0.866H109.466z M114.036,73.524h1.804c0.842,0,1.058-0.481,1.058-1.13v-0.818
				c0-0.649-0.215-1.131-1.058-1.131h-1.804V73.524z"/>
		</g>
		<g>
			<g>
				<path fill="#F0BC5B" d="M57.369,105.277c-0.361,0-0.519-0.159-0.519-0.519v-9.346c0-0.361,0.159-0.519,0.519-0.519h4.86
					c2.423,0,3.548,0.938,3.548,2.942v4.5c0,2.005-1.125,2.942-3.548,2.942H57.369z M60.123,102.551h1.716
					c0.461,0,0.678-0.216,0.678-0.707V98.34c0-0.476-0.216-0.692-0.678-0.692h-1.716V102.551z"/>
				<path fill="#F0BC5B" d="M70.032,105.277h-2.12c-0.361,0-0.519-0.159-0.519-0.519v-3.808c0-0.577,0.173-1.298,0.562-2.308
					l1.255-3.274c0.115-0.332,0.346-0.476,0.736-0.476h3.88c0.375,0,0.606,0.144,0.721,0.476l1.255,3.274
					c0.389,1.01,0.563,1.731,0.563,2.308v3.808c0,0.361-0.159,0.519-0.519,0.519h-2.178c-0.389,0-0.562-0.159-0.562-0.519v-2.019
					h-2.553v2.019C70.551,105.118,70.392,105.277,70.032,105.277z M70.695,100.114h2.264l-0.678-2.192
					c-0.072-0.173-0.159-0.245-0.274-0.245h-0.36c-0.115,0-0.202,0.072-0.274,0.245L70.695,100.114z"/>
				<path fill="#F0BC5B" d="M80.704,105.277c-0.375,0-0.519-0.159-0.519-0.519v-1.846l-2.207-2.957
					c-0.447-0.591-0.548-0.88-0.548-1.774v-2.769c0-0.361,0.159-0.519,0.519-0.519h2.221c0.361,0,0.519,0.159,0.519,0.519v2.365
					c0,0.202,0,0.404,0.13,0.606l0.663,1.038c0.101,0.173,0.188,0.245,0.346,0.245h0.144c0.159,0,0.245-0.072,0.346-0.245
					l0.663-1.038c0.13-0.202,0.13-0.404,0.13-0.606v-2.365c0-0.361,0.159-0.519,0.519-0.519h2.149c0.36,0,0.519,0.159,0.519,0.519
					v2.769c0,0.894-0.115,1.183-0.548,1.774l-2.192,2.971v1.832c0,0.361-0.159,0.519-0.519,0.519H80.704z"/>
			</g>
			<g>
				<path fill="#FFFFFF" d="M47.306,52.509v-7.628c0-0.394,0.303-0.69,0.697-0.69c0.394,0,0.704,0.296,0.704,0.69v3.131h3.842
					v-3.131c0-0.394,0.316-0.69,0.711-0.69c0.394,0,0.689,0.296,0.689,0.69v7.628c0,0.394-0.31,0.689-0.704,0.689
					c-0.394,0-0.696-0.295-0.696-0.689v-3.096h-3.842v3.096c0,0.394-0.31,0.689-0.704,0.689
					C47.608,53.198,47.306,52.903,47.306,52.509z"/>
				<path fill="#FFFFFF" d="M64.476,52.783l-0.879-2.09h-3.567l-0.865,2.083c-0.078,0.19-0.204,0.31-0.387,0.373
					c-0.091,0.035-0.176,0.049-0.253,0.049c-0.105,0-0.204-0.021-0.303-0.063c-0.253-0.113-0.394-0.338-0.394-0.598
					c0-0.12,0.021-0.225,0.07-0.323l3.3-7.592c0.12-0.274,0.352-0.429,0.641-0.429c0.281,0,0.52,0.148,0.633,0.422l3.265,7.599
					c0.05,0.098,0.07,0.204,0.07,0.323c0,0.26-0.141,0.486-0.387,0.598c-0.092,0.042-0.19,0.063-0.296,0.063
					c-0.084,0-0.169-0.014-0.246-0.042C64.701,53.093,64.568,52.966,64.476,52.783z M63.006,49.293l-1.203-2.864l-1.189,2.864
					H63.006z"/>
				<path fill="#FFFFFF" d="M69.678,52.509v-7.628c0-0.394,0.303-0.69,0.697-0.69h2.357c0.739,0,1.421,0.289,1.928,0.774
					c0.5,0.486,0.788,1.161,0.788,1.893c0,0.739-0.288,1.4-0.788,1.879c-0.5,0.486-1.189,0.767-1.928,0.767h-1.654v3.005
					c0,0.394-0.31,0.689-0.703,0.689C69.981,53.198,69.678,52.903,69.678,52.509z M72.739,48.104c0.345,0,0.683-0.141,0.929-0.387
					c0.246-0.232,0.38-0.556,0.38-0.894c0-0.338-0.141-0.661-0.387-0.887c-0.246-0.225-0.57-0.359-0.929-0.359h-1.654v2.526H72.739z
					"/>
				<path fill="#FFFFFF" d="M79.538,52.509v-7.628c0-0.394,0.303-0.69,0.697-0.69h2.357c0.739,0,1.421,0.289,1.928,0.774
					c0.5,0.486,0.788,1.161,0.788,1.893c0,0.739-0.288,1.4-0.788,1.879c-0.5,0.486-1.189,0.767-1.928,0.767h-1.654v3.005
					c0,0.394-0.31,0.689-0.703,0.689C79.841,53.198,79.538,52.903,79.538,52.509z M82.599,48.104c0.345,0,0.683-0.141,0.929-0.387
					c0.246-0.232,0.38-0.556,0.38-0.894c0-0.338-0.141-0.661-0.387-0.887c-0.246-0.225-0.57-0.359-0.929-0.359h-1.654v2.526H82.599z
					"/>
				<path fill="#FFFFFF" d="M91.552,52.509v-3.047l-2.751-4.074c-0.113-0.134-0.169-0.289-0.169-0.457
					c0-0.197,0.085-0.394,0.246-0.542c0.141-0.12,0.303-0.176,0.486-0.176c0.19,0,0.366,0.084,0.499,0.246l2.386,3.617l2.371-3.631
					c0.119-0.148,0.323-0.239,0.521-0.239c0.162,0,0.31,0.056,0.443,0.169c0.176,0.148,0.26,0.331,0.26,0.535
					c0,0.162-0.056,0.324-0.176,0.471l-2.716,4.074v3.054c0,0.394-0.31,0.689-0.704,0.689
					C91.854,53.198,91.552,52.903,91.552,52.509z"/>
			</g>
		</g>
		<g>
			<g>
				<path fill="#FFFFFF" d="M64.68,31.071c0.155-0.151,0.069-0.413-0.144-0.444l-1.287-0.187c-0.085-0.012-0.158-0.066-0.196-0.142
					l-0.575-1.166c-0.096-0.194-0.371-0.194-0.467,0l-0.575,1.166c-0.038,0.077-0.111,0.13-0.196,0.142l-1.287,0.187
					c-0.214,0.031-0.299,0.293-0.144,0.444l0.931,0.908c0.061,0.06,0.089,0.146,0.075,0.23l-0.22,1.281
					c-0.036,0.213,0.187,0.375,0.378,0.275l1.151-0.605c0.076-0.04,0.167-0.04,0.242,0l1.151,0.605
					c0.191,0.1,0.414-0.062,0.378-0.275l-0.22-1.281c-0.015-0.085,0.013-0.171,0.075-0.23L64.68,31.071z"/>
				<path fill="#FFFFFF" d="M74.011,31.071c0.154-0.151,0.069-0.413-0.144-0.444L72.58,30.44c-0.085-0.012-0.158-0.066-0.196-0.142
					l-0.576-1.166c-0.096-0.194-0.371-0.194-0.467,0l-0.575,1.166c-0.038,0.077-0.111,0.13-0.196,0.142l-1.287,0.187
					c-0.214,0.031-0.299,0.293-0.144,0.444l0.931,0.908c0.061,0.06,0.089,0.146,0.075,0.23l-0.22,1.281
					c-0.036,0.213,0.187,0.375,0.378,0.275l1.151-0.605c0.076-0.04,0.166-0.04,0.242,0l1.151,0.605
					c0.191,0.1,0.414-0.062,0.378-0.275l-0.22-1.281c-0.014-0.085,0.013-0.171,0.075-0.23L74.011,31.071z"/>
				<path fill="#FFFFFF" d="M83.341,31.071c0.155-0.151,0.069-0.413-0.144-0.444L81.91,30.44c-0.085-0.012-0.158-0.066-0.196-0.142
					l-0.575-1.166c-0.096-0.194-0.371-0.194-0.467,0l-0.575,1.166c-0.038,0.077-0.111,0.13-0.196,0.142l-1.287,0.187
					c-0.214,0.031-0.299,0.293-0.144,0.444l0.931,0.908c0.062,0.06,0.089,0.146,0.075,0.23l-0.22,1.281
					c-0.036,0.213,0.187,0.375,0.378,0.275l1.151-0.605c0.076-0.04,0.167-0.04,0.242,0l1.151,0.605
					c0.191,0.1,0.414-0.062,0.378-0.275l-0.22-1.281c-0.015-0.085,0.013-0.171,0.075-0.23L83.341,31.071z"/>
			</g>
			<g>
				<path fill="#FFFFFF" d="M64.68,117.758c0.155-0.151,0.069-0.413-0.144-0.444l-1.287-0.187c-0.085-0.012-0.158-0.066-0.196-0.142
					l-0.575-1.166c-0.096-0.193-0.371-0.193-0.467,0l-0.575,1.166c-0.038,0.077-0.111,0.13-0.196,0.142l-1.287,0.187
					c-0.214,0.031-0.299,0.293-0.144,0.444l0.931,0.908c0.061,0.06,0.089,0.146,0.075,0.23l-0.22,1.282
					c-0.036,0.213,0.187,0.375,0.378,0.274l1.151-0.605c0.076-0.04,0.167-0.04,0.242,0l1.151,0.605
					c0.191,0.1,0.414-0.062,0.378-0.274l-0.22-1.282c-0.015-0.084,0.013-0.171,0.075-0.23L64.68,117.758z"/>
				<path fill="#FFFFFF" d="M74.011,117.758c0.154-0.151,0.069-0.413-0.144-0.444l-1.287-0.187
					c-0.085-0.012-0.158-0.066-0.196-0.142l-0.576-1.166c-0.096-0.193-0.371-0.193-0.467,0l-0.575,1.166
					c-0.038,0.077-0.111,0.13-0.196,0.142l-1.287,0.187c-0.214,0.031-0.299,0.293-0.144,0.444l0.931,0.908
					c0.061,0.06,0.089,0.146,0.075,0.23l-0.22,1.282c-0.036,0.213,0.187,0.375,0.378,0.274l1.151-0.605
					c0.076-0.04,0.166-0.04,0.242,0l1.151,0.605c0.191,0.1,0.414-0.062,0.378-0.274l-0.22-1.282
					c-0.014-0.084,0.013-0.171,0.075-0.23L74.011,117.758z"/>
				<path fill="#FFFFFF" d="M83.341,117.758c0.155-0.151,0.069-0.413-0.144-0.444l-1.287-0.187
					c-0.085-0.012-0.158-0.066-0.196-0.142l-0.575-1.166c-0.096-0.193-0.371-0.193-0.467,0l-0.575,1.166
					c-0.038,0.077-0.111,0.13-0.196,0.142l-1.287,0.187c-0.214,0.031-0.299,0.293-0.144,0.444l0.931,0.908
					c0.062,0.06,0.089,0.146,0.075,0.23l-0.22,1.282c-0.036,0.213,0.187,0.375,0.378,0.274l1.151-0.605
					c0.076-0.04,0.167-0.04,0.242,0l1.151,0.605c0.191,0.1,0.414-0.062,0.378-0.274l-0.22-1.282
					c-0.015-0.084,0.013-0.171,0.075-0.23L83.341,117.758z"/>
			</g>
		</g>
		<g>
			<g>
				<path fill="#FFFFFF" d="M35.474,101.173v-2.177h15.889c0.038,0,0.076,0.01,0.109,0.029l1.514,0.868
					c0.148,0.085,0.148,0.298,0,0.382l-1.514,0.868c-0.033,0.019-0.071,0.029-0.109,0.029H35.474z"/>
				<path fill="#F0BC5B" d="M21.741,100.101L21.741,100.101c-0.009-1.364,1.111-2.466,2.475-2.434l11.75,0.366l0.027,3.969
					l-11.756,0.499C22.878,102.546,21.75,101.461,21.741,100.101z"/>
				<path fill="#E4833F" d="M34.714,102.648v-5.126c0-0.419,0.34-0.759,0.759-0.759l0,0c0.419,0,0.759,0.34,0.759,0.759v5.126
					c0,0.419-0.34,0.759-0.759,0.759l0,0C35.054,103.407,34.714,103.067,34.714,102.648z"/>
			</g>
			<g>
				<path fill="#FFFFFF" d="M107.676,101.173v-2.177H91.787c-0.038,0-0.076,0.01-0.11,0.029l-1.514,0.868
					c-0.148,0.085-0.148,0.298,0,0.382l1.514,0.868c0.033,0.019,0.071,0.029,0.11,0.029H107.676z"/>
				<path fill="#F0BC5B" d="M121.408,100.101L121.408,100.101c0.009-1.364-1.111-2.466-2.475-2.434l-11.75,0.366l-0.026,3.969
					l11.756,0.499C120.271,102.546,121.399,101.461,121.408,100.101z"/>
				<path fill="#E4833F" d="M108.435,102.648v-5.126c0-0.419-0.34-0.759-0.759-0.759l0,0c-0.42,0-0.76,0.34-0.76,0.759v5.126
					c0,0.419,0.34,0.759,0.76,0.759l0,0C108.095,103.407,108.435,103.067,108.435,102.648z"/>
			</g>
		</g>
	</g>
</g>
<g id="Designed_by_Freepik">
</g>
</svg>
