<svg xmlns="http://www.w3.org/2000/svg" viewBox="0 0 40 40"><path d="M33 29.5h6.5" fill="none" stroke-linecap="round" stroke="#4788c7" stroke-miterlimit="10"/><path d="M5 29.5C2.52 29.5.5 27.48.5 25V11A4.511 4.511 0 0 1 5 6.5h17.809a9.456 9.456 0 0 1 8.511 5.262l4.813 9.617c.238.484.367 1.023.367 1.566V29.5z" fill="#98ccfd"/><path d="M22.824 6v1c3.43 0 6.512 1.91 8.051 4.984l4.809 9.618c.207.414.316.878.316 1.343V29H5c-2.207 0-4-1.793-4-4V11a4.01 4.01 0 0 1 4-4h17.813l.011-1m0 0H5a5.007 5.007 0 0 0-5 5v14a5 5 0 0 0 5 5h32v-7.055c0-.62-.145-1.234-.422-1.789l-4.808-9.62A10.01 10.01 0 0 0 22.824 6z" fill="#4788c7"/><path d="M22.5 28.5a5 5 0 1 1-10 0 5 5 0 0 1 10 0z" fill="#dff0fe"/><path d="M17.5 24c2.48 0 4.5 2.02 4.5 4.5S19.98 33 17.5 33 13 30.98 13 28.5s2.02-4.5 4.5-4.5m0-1c-3.04 0-5.5 2.46-5.5 5.5s2.46 5.5 5.5 5.5 5.5-2.46 5.5-5.5-2.46-5.5-5.5-5.5z" fill="#4788c7"/><path d="M19 28.5a1.5 1.5 0 1 1-3 0 1.5 1.5 0 0 1 3 0z" fill="#4788c7"/><path d="M8 17.5a.498.498 0 0 1-.5-.5v-6c0-.277.223-.5.5-.5h15c.277 0 .5.223.5.5v6c0 .277-.223.5-.5.5z" fill="#dff0fe"/><path d="M23 11v6H8v-6h15m0-1H8c-.55 0-1 .45-1 1v6c0 .55.45 1 1 1h15c.55 0 1-.45 1-1v-6c0-.55-.45-1-1-1z" fill="#4788c7"/><path d="M15.5 17.332v-6.664" fill="none" stroke="#4788c7" stroke-miterlimit="10"/><path d="M2 23H1v-4h1c.55 0 1 .45 1 1v2c0 .55-.45 1-1 1z" fill="#fff"/></svg>