<svg viewBox="0 0 64 64" xmlns="http://www.w3.org/2000/svg" fill-rule="evenodd" clip-rule="evenodd" stroke-linejoin="round" stroke-miterlimit="1.41"><path d="M56.32 20.38C56.32 14.1 51.22 9 44.96 9H18.88C12.61 9 7.52 14.1 7.52 20.37V43.1c0 6.27 5.1 11.36 11.36 11.36h26.08c6.27 0 11.36-5.1 11.36-11.36V20.37z" fill="#7b20ca"/><clipPath id="a"><path d="M56.32 20.38C56.32 14.1 51.22 9 44.96 9H18.88C12.61 9 7.52 14.1 7.52 20.37V43.1c0 6.27 5.1 11.36 11.36 11.36h26.08c6.27 0 11.36-5.1 11.36-11.36V20.37z"/></clipPath><g clip-path="url(#a)"><path d="M57.23 18.93c0-6.28-5.09-11.37-11.36-11.37H19.8c-6.27 0-11.36 5.1-11.36 11.37v22.72C8.44 47.92 13.53 53 19.8 53h26.07c6.27 0 11.36-5.1 11.36-11.36V18.93z" fill="#a256e4"/></g><path d="M33.3 43.29c7.8.14 12.44 1.35 12.1 2.46 1.35-.58 1.36-5.52-3.48-9.26-2.02-1.56-4.96-2.34-8.07-2.61-.31-.07-.64-.1-.99-.11h-1.88c-.35 0-.68.04-.99.1-3.11.28-6.05 1.06-8.06 2.62-4.85 3.74-4.83 8.68-3.48 9.26-.35-1.1 4.3-2.32 12.1-2.46l.4-.01a78.5 78.5 0 0 1 2.35 0z" fill="#fff"/><clipPath id="b"><path d="M33.3 43.29c7.8.14 12.44 1.35 12.1 2.46 1.35-.58 1.36-5.52-3.48-9.26-2.02-1.56-4.96-2.34-8.07-2.61-.31-.07-.64-.1-.99-.11h-1.88c-.35 0-.68.04-.99.1-3.11.28-6.05 1.06-8.06 2.62-4.85 3.74-4.83 8.68-3.48 9.26-.35-1.1 4.3-2.32 12.1-2.46l.4-.01a78.5 78.5 0 0 1 2.35 0z"/></clipPath><g clip-path="url(#b)" fill="#2e0d19"><path d="M18.13 41.48c.13-.15 2.16-2.32 4.72-2.44 0 0-3.17-.55-4.54.74l-.18 1.7zm27.83.02c-.13-.14-2.16-2.31-4.72-2.43 0 0 3.17-.56 4.54.74l.18 1.7z"/></g><path d="M13.16 23.8l14.69 4.27s-3.53 6.46-10.1 4.05c-6.59-2.41-4.6-8.31-4.6-8.31z"/><clipPath id="c"><path d="M13.16 23.8l14.69 4.27s-3.53 6.46-10.1 4.05c-6.59-2.41-4.6-8.31-4.6-8.31z"/></clipPath><g clip-path="url(#c)"><path d="M13.33 22.57l15.08 5.05s-3.52 6.46-10.1 4.05c-6.58-2.42-4.98-9.1-4.98-9.1z" fill="#fff"/></g><path d="M18.6 17.77l.06.17.06.16a5.85 5.85 0 0 0 1.1 1.84 13.56 13.56 0 0 0 1.26 1.3 19.74 19.74 0 0 0 1.33 1.11l.46.36.29.21.3.22.33.26.33.23a32.45 32.45 0 0 0 1.5 1.03l.48.31a35.45 35.45 0 0 0 2.32 1.35l.56.71-.1.9-.7.56-.9-.1-.23-.14a31.35 31.35 0 0 1-2.1-1.4l-.37-.27-.2-.15a31.74 31.74 0 0 1-1.51-1.23l-.32-.29-.34-.31-.48-.48-.07-.07-.42-.47-.23-.28a15.45 15.45 0 0 1-1.79-2.75l-.09-.19a7.49 7.49 0 0 1-.62-2.51v-.06l.04-.06.06.04z" fill="#2e0d19" fill-rule="nonzero"/><path d="M50.69 23.8l-14.7 4.27s3.53 6.46 10.11 4.05 4.59-8.31 4.59-8.31z"/><clipPath id="d"><path d="M50.69 23.8l-14.7 4.27s3.53 6.46 10.11 4.05 4.59-8.31 4.59-8.31z"/></clipPath><g clip-path="url(#d)"><path d="M50.51 22.57l-15.08 5.05s3.52 6.46 10.1 4.05c6.58-2.42 4.98-9.1 4.98-9.1z" fill="#fff"/></g><path d="M45.34 17.79a6.7 6.7 0 0 1-.53 2.33 10.3 10.3 0 0 1-1.29 2.28 14.73 14.73 0 0 1-1.3 1.61l-.1.1a22 22 0 0 1-.5.49l-.33.31-.31.29a29.96 29.96 0 0 1-1.51 1.23l-.2.15a31.03 31.03 0 0 1-2.64 1.77l-.06.04-.9.1-.7-.56-.1-.9.55-.7.1-.05.17-.1.27-.15a40.73 40.73 0 0 0 2.06-1.24l.2-.13a38.33 38.33 0 0 0 1.5-1.03l.33-.23.34-.26a34.95 34.95 0 0 0 1.15-.87l.15-.13.37-.29.44-.37.31-.28a13.16 13.16 0 0 0 1-1.02l.2-.24.34-.44c.37-.51.69-1.08.87-1.7l.01-.03.06-.05.05.07z" fill="#2e0d19" fill-rule="nonzero"/><g fill="#2e0d19" fill-rule="nonzero"><path d="M54.16 14.94l.2.63-.09.16c-.21.38-.47.75-.8 1.04a2.56 2.56 0 0 1-1.02.57 2.08 2.08 0 0 1-.61.06 3.18 3.18 0 0 1-1.9-.8 5.57 5.57 0 0 1-.72-.68h-.01l.05-.66.65.06.08.08a4.15 4.15 0 0 0 .88.73c.19.11.4.21.6.28a1.6 1.6 0 0 0 .69.04l.15-.03c.32-.1.58-.34.79-.6a3.28 3.28 0 0 0 .4-.6l.02-.04.02-.04.62-.2zm1.14 1.29l-.2.62-.1.05a4 4 0 0 0-.82.57 2.8 2.8 0 0 0-.45.5c-.09.13-.16.27-.2.42a1.12 1.12 0 0 0-.06.39c.02.34.21.66.43.92a2.83 2.83 0 0 0 .3.31l.24.2.03.03.04.03.08.64-.65.08-.15-.12a4.17 4.17 0 0 1-.86-.94 2.49 2.49 0 0 1-.38-1.1 2 2 0 0 1 .06-.6 3 3 0 0 1 .98-1.48 4.53 4.53 0 0 1 .56-.42c.17-.11.34-.22.52-.3l.01-.01.62.2z"/><path d="M48.9 15.78c.37.24.73.52 1.02.87a2.56 2.56 0 0 1 .54 1.1 1.9 1.9 0 0 1 0 .6c-.07.6-.41 1.15-.82 1.59a4.98 4.98 0 0 1-1 .83l-.64-.14.14-.63.1-.07.13-.1c.25-.18.49-.4.7-.63.12-.16.25-.33.34-.51.06-.13.11-.27.13-.41a1.15 1.15 0 0 0 0-.38 1.63 1.63 0 0 0-.52-.86 2.83 2.83 0 0 0-.33-.28 5.06 5.06 0 0 0-.26-.18l-.03-.02-.04-.02-.14-.64.63-.15.04.03zm2.31 3.73c.13 0 .25.01.38.04.61.11 1.15.47 1.59.91a5.59 5.59 0 0 1 .79 1.03l-.17.64-.63-.17a1.91 1.91 0 0 0-.15-.24c-.18-.26-.4-.51-.63-.73a2.47 2.47 0 0 0-.55-.39 1.6 1.6 0 0 0-.65-.16h-.16a1.8 1.8 0 0 0-.9.45 2.84 2.84 0 0 0-.3.3c-.08.07-.14.15-.21.23l-.02.03-.03.03-.65.08-.08-.65a7.75 7.75 0 0 1 .3-.35 3.35 3.35 0 0 1 1.58-1c.14-.03.29-.04.43-.05h.06z"/></g></svg>