<svg xmlns="http://www.w3.org/2000/svg" viewBox="0 0 80 80"><path d="M12 16v1c0 3.324-2.676 6-6 6H5v34h1c3.324 0 6 2.676 6 6v1h56v-1c0-3.324 2.676-6 6-6h1V23h-1c-3.324 0-6-2.676-6-6v-1zm1.797 2H24c0 .55.45 1 1 1s1-.45 1-1h40.203A7.836 7.836 0 0 0 73 24.797v30.406A7.836 7.836 0 0 0 66.203 62H26c0-.55-.45-1-1-1s-1 .45-1 1H13.797A7.836 7.836 0 0 0 7 55.203V24.797A7.836 7.836 0 0 0 13.797 18zM25 21c-.55 0-1 .45-1 1s.45 1 1 1 1-.45 1-1-.45-1-1-1zm0 4c-.55 0-1 .45-1 1s.45 1 1 1 1-.45 1-1-.45-1-1-1zm0 4c-.55 0-1 .45-1 1s.45 1 1 1 1-.45 1-1-.45-1-1-1zm0 4c-.55 0-1 .45-1 1s.45 1 1 1 1-.45 1-1-.45-1-1-1zm0 4c-.55 0-1 .45-1 1s.45 1 1 1 1-.45 1-1-.45-1-1-1zm0 4c-.55 0-1 .45-1 1s.45 1 1 1 1-.45 1-1-.45-1-1-1zm0 4c-.55 0-1 .45-1 1s.45 1 1 1 1-.45 1-1-.45-1-1-1zm0 4c-.55 0-1 .45-1 1s.45 1 1 1 1-.45 1-1-.45-1-1-1zm0 4c-.55 0-1 .45-1 1s.45 1 1 1 1-.45 1-1-.45-1-1-1zm0 4c-.55 0-1 .45-1 1s.45 1 1 1 1-.45 1-1-.45-1-1-1z"/></svg>