<svg xmlns="http://www.w3.org/2000/svg" viewBox="0 0 32 32"><path d="M9 5C7.363 5 6.266 6.074 5.719 7a5.75 5.75 0 0 0-.688 1.813l-.062.343.125.281L6.875 13 5 16.75V27h22V16.75L25.125 13l1.781-3.563.125-.28-.062-.345s-.14-.886-.688-1.812c-.547-.926-1.644-2-3.281-2zm0 2h14c.82 0 1.223.426 1.563 1H7.438c.34-.574.742-1 1.562-1zm-1.375 3H13c-1.48 0-2.777.805-3.469 2a3.96 3.96 0 0 0-.844.125zm11 0h5.75l-1.094 2.188a4.093 4.093 0 0 0-1.25-.188c-.129 0-.246.02-.375.031a4.065 4.065 0 0 0-2.187-1A4.052 4.052 0 0 0 18.625 10zM16 11a2 2 0 0 1 2 2c0 .102-.016.184-.031.281.3-.183.652-.281 1.031-.281.871 0 1.602.563 1.875 1.344.32-.219.742-.344 1.156-.344 1.489 0 1.875 1.316 1.969 2H7.625l.75-1.5c.34-.313.793-.5 1.344-.5.613 0 .941.23 1.375.594A1.988 1.988 0 0 1 11 14a2 2 0 0 1 2-2c.414 0 .805.125 1.125.344A1.988 1.988 0 0 1 16 11zm-9 7h7v2c0 1.102.898 2 2 2 1.102 0 2-.898 2-2v-2h7v4.844A4.648 4.648 0 0 0 22.812 25H9.188A4.648 4.648 0 0 0 7 22.844zm9 0c.55 0 1 .45 1 1s-.45 1-1 1-1-.45-1-1 .45-1 1-1z"/></svg>