<svg xmlns="http://www.w3.org/2000/svg" viewBox="0 0 40 40"><path d="M1.5 20.855v-.753l3.074-7.172-2.933-3.907.945-1.093h34.828l.945 1.093-2.933 3.907 3.074 7.172v.753z" fill="#4788c7"/><path d="M37.184 8.43l.535.617-2.52 3.351-.347.465.23.532L38 20.203v.152H2v-.152l2.918-6.808.23-.532-.347-.465-2.52-3.355.535-.613h34.368m.46-1H2.356L1 9l3 4-3 7v1.355h38V20l-3-7 3-4z" fill="#4788c7"/><path d="M12 21.5a3.509 3.509 0 0 1-2.434-1h-3.91l-.086-.398a3.03 3.03 0 0 1-.07-.602c0-1.652 1.348-3 3-3 .11 0 .227.008.34.023A3.479 3.479 0 0 1 12 14.5c.219 0 .438.023.66.066A2.995 2.995 0 0 1 15.5 12.5c.23 0 .465.027.695.086A2.983 2.983 0 0 1 18.5 11.5c.965 0 1.867.477 2.426 1.246a2.482 2.482 0 0 1 2.738.395A2.964 2.964 0 0 1 25.5 12.5c1.383 0 2.55.941 2.895 2.215A2.97 2.97 0 0 1 29.5 14.5c1.29 0 2.41.82 2.824 2.004.059 0 .117-.004.176-.004 1.652 0 3 1.348 3 3 0 .191-.02.387-.063.602l-.082.398H14.434a3.51 3.51 0 0 1-2.434 1z" fill="#fff"/><path d="M18.5 12c1.004 0 1.86.594 2.258 1.441.344-.27.77-.441 1.242-.441.676 0 1.273.34 1.633.852A2.486 2.486 0 0 1 25.5 13c1.383 0 2.5 1.117 2.5 2.5v.012A2.475 2.475 0 0 1 29.5 15a2.5 2.5 0 0 1 2.457 2.063A2.497 2.497 0 0 1 35 19.5c0 .17-.023.339-.055.499H14.223c-.551.61-1.336 1-2.223 1-.887 0-1.672-.39-2.223-1H6.06A2.613 2.613 0 0 1 6 19.5C6 18.117 7.117 17 8.5 17c.227 0 .445.04.652.098A2.996 2.996 0 0 1 12 15c.363 0 .707.074 1.031.191A2.491 2.491 0 0 1 15.5 13c.316 0 .613.066.89.172A2.486 2.486 0 0 1 18.5 12m0-1a3.47 3.47 0 0 0-2.484 1.04 3.487 3.487 0 0 0-3.672 1.977A3.964 3.964 0 0 0 8.55 16l-.051-.001A3.505 3.505 0 0 0 5 19.5c0 .277.043.52.082.703l.164.797h4.125c.727.64 1.66 1 2.629 1 .969 0 1.902-.36 2.629-1h21.133l.164-.8c.05-.247.074-.477.074-.7a3.507 3.507 0 0 0-3.34-3.496 3.495 3.495 0 0 0-3.957-1.91A3.505 3.505 0 0 0 25.5 12a3.48 3.48 0 0 0-1.82.52 2.965 2.965 0 0 0-2.598-.372A3.504 3.504 0 0 0 18.5 11z" fill="#4788c7"/><path d="M32 17.5c0-1.383-1.117-2.5-2.5-2.5-.566 0-1.082.195-1.5.512V15.5c0-1.383-1.117-2.5-2.5-2.5-.746 0-1.406.332-1.867.852A1.996 1.996 0 0 0 22 13c-.473 0-.898.172-1.242.441a2.486 2.486 0 1 0-4.367-.27A2.492 2.492 0 0 0 15.5 13c-1.277 0-2.316.96-2.469 2.191A3.02 3.02 0 0 0 12 15a3 3 0 0 0 0 6c.887 0 1.672-.39 2.223-1H30v-.05c1.14-.231 2-1.24 2-2.45z" fill="#98ccfd"/><path d="M34.945 20c.032-.16.055-.328.055-.5 0-1.383-1.117-2.5-2.5-2.5-.746 0-1.406.332-1.867.852A1.996 1.996 0 0 0 27 19c0 .102.016.195.031.293A1.982 1.982 0 0 0 26 19c-.375 0-.723.11-1.02.29A2.493 2.493 0 0 0 22.5 17c-.64 0-1.219.246-1.66.645A2.495 2.495 0 0 0 18.5 16a2.49 2.49 0 0 0-2.11 1.172A2.492 2.492 0 0 0 15.5 17c-.746 0-1.406.332-1.867.852A1.996 1.996 0 0 0 12 17c-.676 0-1.273.34-1.633.852A2.486 2.486 0 0 0 8.5 17 2.497 2.497 0 0 0 6 19.5c0 .172.027.34.059.5z" fill="#dff0fe"/><path d="M1.5 20.5h37v17h-37z" fill="#b6dcfe"/><path d="M38 21v16H2V21h36m1-1H1v18h38z" fill="#4788c7"/><path d="M2 26h36v1H2zm0 6h36v1H2z" fill="#4788c7"/><path d="M16 21v3c0 2.2 1.8 4 4 4s4-1.8 4-4v-3zM8 38c0-4.031-2.855-7-7-7v7z" fill="#fff"/><path d="M2 31v6h6l1 1H1v-8z" fill="#4788c7"/><path d="M1.527 8.5c.13-1.535.903-6 5.473-6h26c4.531 0 5.328 4.46 5.473 6z" fill="#b6dcfe"/><path d="M33 3c3.664 0 4.645 3.285 4.906 5H2.09C2.34 6.285 3.3 3 7 3h26m0-1H7C1.023 2 1 9 1 9h38s-.07-7-6-7z" fill="#4788c7"/><path d="M16 8c0-2.238 1.8-4 4-4s4 1.762 4 4z" fill="#fff"/><path d="M13.93 15.93l1.996-2 2 2-2 2zM23 17l2-2 2 2-2 2z" fill="#4788c7"/><path d="M32 38c0-4.031 2.855-7 7-7v7z" fill="#fff"/><path d="M38 31v6h-6l-1 1h8v-8z" fill="#4788c7"/></svg>