<?xml version="1.0" encoding="utf-8"?>
<!-- Generator: Adobe Illustrator 22.0.1, SVG Export Plug-In . SVG Version: 6.00 Build 0)  -->
<svg version="1.1" xmlns="http://www.w3.org/2000/svg" xmlns:xlink="http://www.w3.org/1999/xlink" x="0px" y="0px"
	 viewBox="0 0 180.642 129.829" enable-background="new 0 0 180.642 129.829" xml:space="preserve">
<g id="BACKGROUND">
</g>
<g id="DESIGNED_BY_FREEPIK">
</g>
<g id="OBJECTS">
	<g>
		
			<image overflow="visible" opacity="0.3" width="935" height="549" xlink:href="7F386891.png"  transform="matrix(0.24 0 0 0.24 -18.0743 3.189)">
		</image>
		<g>
			<g>
				<g>
					<g>
						<defs>
							<polygon id="SVGID_72_" points="5.248,81.264 118.922,81.015 120.971,81.011 115.723,46.919 0,47.175 12.048,64.2 							"/>
						</defs>
						<clipPath id="SVGID_2_">
							<use xlink:href="#SVGID_72_"  overflow="visible"/>
						</clipPath>
					</g>
				</g>
				<g>
					<g>
						<defs>
							<polygon id="SVGID_74_" points="172.927,81.264 59.254,81.015 57.205,81.011 62.452,46.919 178.175,47.175 166.128,64.2 
															"/>
						</defs>
						<clipPath id="SVGID_3_">
							<use xlink:href="#SVGID_74_"  overflow="visible"/>
						</clipPath>
					</g>
				</g>
			</g>
			<g>
				<g>
					<g>
						<polygon fill="#74551C" points="5.248,81.264 75.093,81.11 76.353,81.108 71.104,47.016 0,47.175 13.085,64.791 						"/>
					</g>
					<g>
						<defs>
							<polygon id="SVGID_76_" points="5.248,81.264 118.922,81.015 120.971,81.011 115.723,46.919 0,47.175 12.048,64.2 							"/>
						</defs>
						<clipPath id="SVGID_4_">
							<use xlink:href="#SVGID_76_"  overflow="visible"/>
						</clipPath>
						
							<linearGradient id="SVGID_5_" gradientUnits="userSpaceOnUse" x1="-1709.4481" y1="176.103" x2="-1733.6936" y2="252.0853" gradientTransform="matrix(-0.9964 0.0853 0.0853 0.9964 -1681.2845 -2.3994)">
							<stop  offset="0" style="stop-color:#B9873D"/>
							<stop  offset="0.2718" style="stop-color:#C39442"/>
							<stop  offset="0.3331" style="stop-color:#CCA249"/>
							<stop  offset="0.4489" style="stop-color:#E4C75B"/>
							<stop  offset="0.5241" style="stop-color:#F5E368"/>
							<stop  offset="0.6343" style="stop-color:#DEC55A"/>
							<stop  offset="0.8734" style="stop-color:#A27938"/>
							<stop  offset="0.9077" style="stop-color:#996D33"/>
						</linearGradient>
						
							<polygon clip-path="url(#SVGID_4_)" fill="none" stroke="url(#SVGID_5_)" stroke-width="1.7647" stroke-miterlimit="10" points="
							-10.026,77.914 118.138,77.632 120.449,77.627 116.244,50.303 -14.229,50.59 4.641,64.215 						"/>
					</g>
				</g>
				<g>
					<g>
						<polygon fill="#74551C" points="172.927,81.264 103.083,81.11 101.823,81.108 107.071,47.016 178.175,47.175 165.091,64.791 
													"/>
					</g>
					<g>
						<defs>
							<polygon id="SVGID_79_" points="172.927,81.264 59.254,81.015 57.205,81.011 62.452,46.919 178.175,47.175 166.128,64.2 
															"/>
						</defs>
						<clipPath id="SVGID_6_">
							<use xlink:href="#SVGID_79_"  overflow="visible"/>
						</clipPath>
						
							<linearGradient id="SVGID_8_" gradientUnits="userSpaceOnUse" x1="-489.202" y1="71.6397" x2="-513.4474" y2="147.6221" gradientTransform="matrix(0.9964 0.0853 -0.0853 0.9964 634.696 -2.3994)">
							<stop  offset="0" style="stop-color:#B9873D"/>
							<stop  offset="0.2718" style="stop-color:#C39442"/>
							<stop  offset="0.3331" style="stop-color:#CCA249"/>
							<stop  offset="0.4489" style="stop-color:#E4C75B"/>
							<stop  offset="0.5241" style="stop-color:#F5E368"/>
							<stop  offset="0.6343" style="stop-color:#DEC55A"/>
							<stop  offset="0.8734" style="stop-color:#A27938"/>
							<stop  offset="0.9077" style="stop-color:#996D33"/>
						</linearGradient>
						
							<polygon clip-path="url(#SVGID_6_)" fill="none" stroke="url(#SVGID_8_)" stroke-width="1.7647" stroke-miterlimit="10" points="
							188.201,77.914 60.038,77.632 57.727,77.627 61.932,50.303 192.405,50.59 173.534,64.215 						"/>
					</g>
				</g>
				<g>
					
						<linearGradient id="SVGID_9_" gradientUnits="userSpaceOnUse" x1="53.1503" y1="213.0001" x2="112.9156" y2="109.4836" gradientTransform="matrix(0.9954 -0.096 0.096 0.9954 -10.2287 -88.4375)">
						<stop  offset="0" style="stop-color:#B9873D"/>
						<stop  offset="0.2718" style="stop-color:#C39442"/>
						<stop  offset="0.3331" style="stop-color:#CCA249"/>
						<stop  offset="0.4489" style="stop-color:#E4C75B"/>
						<stop  offset="0.5241" style="stop-color:#F5E368"/>
						<stop  offset="0.6343" style="stop-color:#DEC55A"/>
						<stop  offset="0.8734" style="stop-color:#A27938"/>
						<stop  offset="0.9077" style="stop-color:#996D33"/>
					</linearGradient>
					<path fill="url(#SVGID_9_)" d="M147.382,58.351c3.171,32.85-20.894,62.05-53.741,65.221
						c-32.85,3.169-62.049-20.893-65.219-53.742c-3.17-32.85,20.89-62.049,53.74-65.219
						C115.012,1.442,144.212,25.501,147.382,58.351z"/>
					<g>
						<path fill="#FFFFFF" d="M142.895,64.092c0,30.372-24.62,54.993-54.994,54.993c-30.371,0-54.993-24.622-54.993-54.993
							c0-30.375,24.622-54.995,54.993-54.995C118.274,9.097,142.895,33.718,142.895,64.092z"/>
					</g>
					<linearGradient id="SVGID_11_" gradientUnits="userSpaceOnUse" x1="66.0559" y1="112.0523" x2="109.7464" y2="16.1301">
						<stop  offset="0" style="stop-color:#B9873D"/>
						<stop  offset="0.2718" style="stop-color:#C39442"/>
						<stop  offset="0.3331" style="stop-color:#CCA249"/>
						<stop  offset="0.4489" style="stop-color:#E4C75B"/>
						<stop  offset="0.5241" style="stop-color:#F5E368"/>
						<stop  offset="0.6343" style="stop-color:#DEC55A"/>
						<stop  offset="0.8734" style="stop-color:#A27938"/>
						<stop  offset="0.9077" style="stop-color:#996D33"/>
					</linearGradient>
					<path fill="none" stroke="url(#SVGID_11_)" stroke-width="0.9912" stroke-miterlimit="10" d="M139.857,59.076
						c2.77,28.695-18.249,54.204-46.942,56.973c-28.694,2.767-54.2-18.25-56.97-46.944c-2.769-28.696,18.248-54.201,46.941-56.969
						C111.582,9.367,137.09,30.382,139.857,59.076z"/>
				</g>
				<g>
					<g>
						<g>
							
								<text transform="matrix(0.9999 0.0114 -0.0114 0.9999 61.1917 80.883)" fill="#74551C" font-family="'BebasNeueBold'" font-size="19.0688px">quality</text>
						</g>
						<g>
							
								<text transform="matrix(0.9999 0.0114 -0.0114 0.9999 48.373 64.5005)" fill="#74551C" font-family="'BebasNeueBold'" font-size="24.8892px" letter-spacing="1">Premium</text>
						</g>
					</g>
				</g>
				<g>
					<polygon fill="#74551C" points="93.352,32.069 93.352,23.918 88.568,31.159 83.785,23.918 83.785,32.069 77.325,27.216 
						84.022,39.952 88.568,39.952 93.112,39.952 99.811,27.216 					"/>
				</g>
				<g>
					<g>
						<g>
							<path fill="#74551C" d="M87.901,110.444c-0.686-1.839-1.014-2.761-1.635-4.61c-2.117-0.038-3.176-0.088-5.287-0.248
								c1.795-1.002,2.669-1.526,4.359-2.612c-0.58-1.857-0.854-2.786-1.368-4.65c1.518,1.208,2.305,1.796,3.931,2.933
								c1.626-1.136,2.413-1.726,3.932-2.933c-0.515,1.864-0.788,2.793-1.37,4.65c1.693,1.086,2.565,1.61,4.36,2.612
								c-2.111,0.162-3.171,0.211-5.287,0.248C88.915,107.683,88.588,108.605,87.901,110.444z"/>
							<path fill="#74551C" d="M103.699,103.969c-0.642-1.118-0.955-1.68-1.569-2.807c-1.374,0.219-2.063,0.315-3.444,0.479
								c1.029-0.877,1.528-1.321,2.507-2.226c-0.597-1.135-0.89-1.704-1.459-2.847c1.159,0.593,1.748,0.881,2.947,1.436
								c0.946-0.923,1.407-1.389,2.305-2.334c-0.159,1.268-0.247,1.9-0.434,3.168c1.225,0.527,1.849,0.783,3.113,1.266
								c-1.363,0.305-2.045,0.441-3.417,0.693C104.045,102.067,103.933,102.702,103.699,103.969z"/>
							<path fill="#74551C" d="M72.104,103.97c-0.233-1.268-0.346-1.903-0.55-3.17c-1.369-0.252-2.054-0.39-3.415-0.695
								c1.265-0.483,1.887-0.739,3.112-1.266c-0.186-1.268-0.272-1.901-0.431-3.169c0.895,0.945,1.356,1.411,2.304,2.335
								c1.198-0.555,1.788-0.84,2.944-1.434c-0.567,1.141-0.86,1.71-1.458,2.844c0.978,0.906,1.479,1.351,2.507,2.227
								c-1.38-0.164-2.069-0.26-3.443-0.479C73.059,102.289,72.744,102.851,72.104,103.97z"/>
						</g>
					</g>
				</g>
			</g>
			<g>
				<g>
					<g>
						<defs>
							<polygon id="SVGID_84_" points="5.248,81.264 118.922,81.015 120.971,81.011 115.723,46.919 0,47.175 12.048,64.2 							"/>
						</defs>
						<clipPath id="SVGID_13_">
							<use xlink:href="#SVGID_84_"  overflow="visible"/>
						</clipPath>
					</g>
				</g>
				<g>
					<g>
						<defs>
							<polygon id="SVGID_86_" points="172.927,81.264 59.254,81.015 57.205,81.011 62.452,46.919 178.175,47.175 166.128,64.2 
															"/>
						</defs>
						<clipPath id="SVGID_15_">
							<use xlink:href="#SVGID_86_"  overflow="visible"/>
						</clipPath>
					</g>
				</g>
			</g>
		</g>
	</g>
</g>
</svg>
