<svg viewBox="0 0 64 64" xmlns="http://www.w3.org/2000/svg" fill-rule="evenodd" clip-rule="evenodd" stroke-linejoin="round" stroke-miterlimit="1.41"><path d="M55.26 20.38C55.26 14.1 50.16 9 43.89 9H17.82C11.55 9 6.46 14.1 6.46 20.37V43.1c0 6.27 5.1 11.36 11.36 11.36H43.9c6.27 0 11.37-5.1 11.37-11.36V20.37z" fill="#7b20ca"/><clipPath id="a"><path d="M55.26 20.38C55.26 14.1 50.16 9 43.89 9H17.82C11.55 9 6.46 14.1 6.46 20.37V43.1c0 6.27 5.1 11.36 11.36 11.36H43.9c6.27 0 11.37-5.1 11.37-11.36V20.37z"/></clipPath><g clip-path="url(#a)"><path d="M56.17 18.93c0-6.28-5.1-11.37-11.36-11.37H18.74c-6.27 0-11.37 5.1-11.37 11.37v22.72c0 6.27 5.1 11.36 11.37 11.36H44.8c6.27 0 11.36-5.1 11.36-11.36V18.93z" fill="#a256e4"/></g><circle cx="18.25" cy="27.74" r="3.03" fill="url(#b)"/><clipPath id="c"><circle cx="18.25" cy="27.74" r="3.03"/></clipPath><g clip-path="url(#c)" fill="#fff"><circle cx="16.93" cy="29.34" r="1.31"/><circle cx="18.03" cy="27.23" r=".66"/></g><path d="M41.8 25.37a3.44 3.44 0 0 1 1.07.17c.25.08.5.2.74.32l.11.07a4 4 0 0 1 .53.38 4.72 4.72 0 0 1 1.34 2v.02l.01.01-.02.08-.07-.02-.11-.12a4.75 4.75 0 0 0-.4-.37l-.24-.18a4.43 4.43 0 0 0-1.03-.57l-.1-.04a3.77 3.77 0 0 0-.39-.12l-.09-.02a3.84 3.84 0 0 0-.58-.09h-.11a2.83 2.83 0 0 0-.44 0h-.12l-.14.01-.1.01-.14.02-.17.03-.1.01-.15.03-.12.03-.1.03a2.9 2.9 0 0 0-.52.17l-.13.06a4.17 4.17 0 0 0-.5.28l-.11.06a4.46 4.46 0 0 0-.86.72 6.5 6.5 0 0 0-.5.59l-.1.13-.22.3-.08.04-.03-.07a9 9 0 0 1 .07-.33l.06-.22a6.78 6.78 0 0 1 .72-1.6 5.07 5.07 0 0 1 .86-.97l.14-.12a4.35 4.35 0 0 1 1.36-.64l.25-.05.13-.02.25-.02h.13z" fill-rule="nonzero"/><path d="M21.31 17.23l.33.48-.1.58-.49.34-4 .83-.58-.1-.33-.5.1-.58.49-.33 4-.83.58.1zm18.73-.11l4 .83.49.34.1.57-.33.5-.57.1-4-.83-.5-.34-.1-.57v-.01l.33-.48c.2-.04.39-.15.58-.11z" fill="#2e0d19" fill-rule="nonzero"/><path d="M44.6 33.4a3.33 3.33 0 0 1 4.8-1.78c1.37.88 2.3 3.39.67 5.2-2.5 2.75-3.04 3.48-4.41 4.79h-.01c-1.65-.92-2.37-1.5-5.48-3.53-2.04-1.33-1.77-4-.66-5.2a3.33 3.33 0 0 1 5.1.51z" fill="#e02e4d"/><clipPath id="d"><path d="M44.6 33.4a3.33 3.33 0 0 1 4.8-1.78c1.37.88 2.3 3.39.67 5.2-2.5 2.75-3.04 3.48-4.41 4.79h-.01c-1.65-.92-2.37-1.5-5.48-3.53-2.04-1.33-1.77-4-.66-5.2a3.33 3.33 0 0 1 5.1.51z"/></clipPath><g clip-path="url(#d)"><path d="M44.75 32.47c.96-2.35 3.57-2.06 4.94-1.18 1.37.88 2.3 3.4.66 5.2-2.49 2.75-2.85 3.66-4.22 4.96l-.2-.17c-1.65-.92-2.37-1.49-5.47-3.52-2.04-1.34-1.77-4-.67-5.2 1.1-1.2 3.45-2.12 4.96-.1z" fill="#f14a67"/><path d="M48.04 31.8c.12 0 .23.01.35.03l.13.03a1.16 1.16 0 0 1 .3.11l.13.08.09.06.16.14.05.05a2.01 2.01 0 0 1 .3.47l.04.15c.04.14.06.27.08.4v.02a1.76 1.76 0 0 1-.06-.07l-.06-.06-.17-.15-.11-.08a1.43 1.43 0 0 0-.38-.18l-.07-.02-.1-.02-.07-.01-.09-.01-.2-.02h-.2a1.94 1.94 0 0 0-.3.04 2.56 2.56 0 0 0-.42.12h-.39l-.26-.27v-.37l.27-.26a2.62 2.62 0 0 1 .87-.18h.1zm-5.67.73a2.6 2.6 0 0 1 .48.06l.1.03a1.66 1.66 0 0 1 .33.15l.09.07.16.13.05.06a1.75 1.75 0 0 1 .34.62c.04.13.06.27.07.4v.01l-.05-.06-.06-.06a2.22 2.22 0 0 0-.28-.23 1.36 1.36 0 0 0-.38-.18l-.07-.02-.1-.02-.07-.02h-.1a3.1 3.1 0 0 0-.18-.02h-.08a1.87 1.87 0 0 0-.32.02l-.12.02a2.1 2.1 0 0 0-.42.11h-.01v.01h-.37l-.26-.27v-.38l.26-.26a2.68 2.68 0 0 1 .87-.17h.12z" fill="#fa7b91" fill-rule="nonzero"/></g><path d="M29.26 34a5.63 5.63 0 0 0 1.28.4c.32.07.64.12.96.15l.39.05 1.37.13.38.05a7.91 7.91 0 0 1 1.45.29c.18.07.36.16.52.28a1.42 1.42 0 0 1 .42.53 1.26 1.26 0 0 1 .1.33 2 2 0 0 1-.21 1.05l-.08.15a3.56 3.56 0 0 1-.31.52l-.25.35a15.27 15.27 0 0 1-.82 1.01c-.22.25-.47.48-.73.69l-.02.01.16.07.14.07a7.59 7.59 0 0 1 1.14.67c.22.18.43.38.6.6.1.15.18.3.23.48a1.44 1.44 0 0 1 .05.66 1.34 1.34 0 0 1-.12.39c-.18.38-.5.66-.85.89a5.28 5.28 0 0 1-1.37.66 5.1 5.1 0 0 1-.68.18c-.33.07-.67.1-1.01.16a14.52 14.52 0 0 0-.6.11 4 4 0 0 0-2.09 1.4l-.03.03c.24-.41.52-.8.87-1.13a3.43 3.43 0 0 1 1.14-.72c.17-.07.35-.13.52-.18l.7-.2a6.47 6.47 0 0 0 1.26-.57c.22-.13.43-.27.63-.43.15-.12.29-.25.4-.4a.65.65 0 0 0 .14-.29c.01-.11-.06-.22-.13-.3a1.87 1.87 0 0 0-.45-.34 4.41 4.41 0 0 0-.76-.37 8.6 8.6 0 0 0-1.83-.51l-.2-.04a4.73 4.73 0 0 0-.3-.04h-.03l-.1.02-.14.01-.13-.01a.74.74 0 0 1-.44-.25.75.75 0 0 1 .24-1.17c.14-.08.3-.1.47-.1l.7-.11.32-.06a2.4 2.4 0 0 0 .88-.43c.2-.15.38-.32.56-.5l.24-.23a15.27 15.27 0 0 0 .94-1.06l.14-.2c.05-.09.1-.17.13-.26a.7.7 0 0 0 .04-.2v-.08l-.03-.05a.68.68 0 0 0-.17-.16 1.77 1.77 0 0 0-.4-.23 25.03 25.03 0 0 0-1.63-.48l-.64-.15-.42-.1c-.47-.13-.94-.27-1.4-.45-.4-.16-.79-.34-1.15-.59l-.03-.02.04.02zm1.92 6.84h-.01z" fill="#2e0d19" fill-rule="nonzero"/><defs><radialGradient id="b" cx="0" cy="0" r="1" gradientUnits="userSpaceOnUse" gradientTransform="translate(18.25 27.74) scale(3.0324)"><stop offset="0%" stop-color="#1d1d1d"/><stop offset="100%"/></radialGradient></defs></svg>