<svg xmlns="http://www.w3.org/2000/svg" viewBox="0 0 50 50"><path d="M15.844 0a1.004 1.004 0 0 0-.688 1.5L17.25 5H12c-3.844 0-7 3.156-7 7v4H4c-.523 0-1.059.184-1.438.563C2.184 16.94 2 17.477 2 18v6c0 .523.184 1.059.563 1.438.378.378.914.562 1.437.562h1v17c0 .879.39 1.668 1 2.219V47c0 1.645 1.355 3 3 3h4c1.645 0 3-1.355 3-3v-1h18v1c0 1.645 1.355 3 3 3h4c1.645 0 3-1.355 3-3v-1.781c.61-.551 1-1.34 1-2.219V26h1c.523 0 1.059-.184 1.438-.563.378-.378.562-.914.562-1.437v-6c0-.523-.184-1.059-.563-1.438C47.06 16.184 46.523 16 46 16h-1v-4c0-3.844-3.156-7-7-7h-5.25l2.094-3.5a1.002 1.002 0 0 0-.028-1.063A1.003 1.003 0 0 0 33.844 0a.993.993 0 0 0-.688.5L30.47 5H19.53L16.844.5c-.2-.355-.598-.55-1-.5zM12 7h6.563c.324.203.738.203 1.062 0h10.719c.34.23.785.23 1.125 0H38c2.754 0 5 2.246 5 5v31c0 .555-.445 1-1 1H8c-.555 0-1-.445-1-1V12c0-2.754 2.246-5 5-5zm1 2c-2.21 0-4 1.79-4 4v14c0 2.21 1.79 4 4 4h24c2.21 0 4-1.79 4-4V13c0-2.21-1.79-4-4-4zm0 2h24c1.191 0 2 .809 2 2v14c0 1.191-.809 2-2 2H13c-1.191 0-2-.809-2-2V13c0-1.191.809-2 2-2zm-9 7h1v6H4zm41 0h1v6h-1zM13 34c-2.2 0-4 1.8-4 4s1.8 4 4 4 4-1.8 4-4-1.8-4-4-4zm24 0c-2.2 0-4 1.8-4 4s1.8 4 4 4 4-1.8 4-4-1.8-4-4-4zm-24 2c1.117 0 2 .883 2 2s-.883 2-2 2-2-.883-2-2 .883-2 2-2zm24 0c1.117 0 2 .883 2 2s-.883 2-2 2-2-.883-2-2 .883-2 2-2zM8 46h6v1c0 .555-.445 1-1 1H9c-.555 0-1-.445-1-1zm28 0h6v1c0 .555-.445 1-1 1h-4c-.555 0-1-.445-1-1z"/></svg>