<svg xmlns="http://www.w3.org/2000/svg" viewBox="0 0 32 32"><path d="M9.375 4C8.129 4 7 4.77 6.562 5.938L4.406 11.75l-2.093-.688-.626 1.876 2.313.78V27c0 .55.45 1 1 1h3l.344-1h15.312L24 28h3c.55 0 1-.45 1-1V13.719l2.313-.781-.625-1.876-2.094.688-2.157-5.813A3.003 3.003 0 0 0 22.625 4zm0 2h13.25a1 1 0 0 1 .938.656l2 5.344H6.438l2-5.344A1 1 0 0 1 9.374 6zM11 7a1.999 1.999 0 1 0 0 4 1.999 1.999 0 1 0 0-4zm5 0a1.5 1.5 0 1 0 0 3 1.5 1.5 0 0 0 0-3zm5 0a1.999 1.999 0 1 0 0 4 1.999 1.999 0 1 0 0-4zM6 14h20v3h-4v2h4v6H6v-6h4v-2H6zm6 7l-1.25 3h2.156l.438-1h5.312l.438 1h2.156L20 21z"/></svg>