<svg xmlns="http://www.w3.org/2000/svg" viewBox="0 0 48 48"><path d="M13 33c0-.555-.445-1-1-1H8c-.555 0-1 .445-1 1v6c0 .555.445 1 1 1h4c.555 0 1-.445 1-1zm28 0c0-.555-.445-1-1-1h-4c-.555 0-1 .445-1 1v6c0 .555.445 1 1 1h4c.555 0 1-.445 1-1z" fill="#455a64"/><path d="M43 21H5c-.555 0-1 .445-1 1v2c0 .555.445 1 1 1h38c.555 0 1-.445 1-1v-2c0-.555-.445-1-1-1z" fill="#ab47bc"/><path d="M39 21c0 3.035 2.035 6-1 6H10c-3.04 0-1-2.965-1-6l1-8.5c.469-2.969 2.46-5.5 5.5-5.5h17c3.035 0 5.094 2.531 5.5 5.5z" fill="#ab47bc"/><path d="M39 24l-1-2H10l-1 2c-1.105 0-2 1.895-2 3v8c0 .555.445 1 1 1h32c.555 0 1-.445 1-1v-8c0-1.105-.895-3-2-3z" fill="#ab47bc"/><path d="M37.055 22a10.375 10.375 0 0 1-.055-.875l-.984-8.39C35.762 10.894 34.574 9 32.5 9h-17c-2.145 0-3.23 2.023-3.52 3.777L11 21.125c-.004.297-.023.59-.055.875z" fill="#e3f2fd"/><path d="M39 32c0 .555-.445 1-1 1H10c-.555 0-1-.445-1-1v-3c0-.555.445-1 1-1h28c.555 0 1 .445 1 1z" fill="#212121"/><path d="M13 30.5a1.5 1.5 0 1 1-3 0 1.5 1.5 0 0 1 3 0zm25 0a1.5 1.5 0 1 1-3 0 1.5 1.5 0 0 1 3 0z" fill="#ffeb3b"/><path d="M16 21c-1.652 0-3-1.344-3-3s1.348-3 3-3 3 1.344 3 3-1.348 3-3 3m16 0c-1.652 0-3-1.344-3-3s1.348-3 3-3 3 1.344 3 3-1.348 3-3 3m-8 0c-1.652 0-3-1.344-3-3s1.348-3 3-3 3 1.344 3 3-1.348 3-3 3" fill="#ffb74d"/><path d="M20 14c-1.102 0-2-.895-2-2s.898-2 2-2c1.102 0 2 .895 2 2s-.898 2-2 2m8 0c-1.102 0-2-.895-2-2s.898-2 2-2c1.102 0 2 .895 2 2s-.898 2-2 2" fill="#ffa726"/></svg>