<svg viewBox="0 0 64 64" xmlns="http://www.w3.org/2000/svg" fill-rule="evenodd" clip-rule="evenodd" stroke-linejoin="round" stroke-miterlimit="1.41"><path d="M56.9 22.36C56.9 16.1 51.8 11 45.52 11H19.46C13.19 11 8.1 16.1 8.1 22.36v22.72c0 6.28 5.09 11.37 11.36 11.37h26.07c6.27 0 11.36-5.1 11.36-11.37V22.36z" fill="#7b20ca"/><clipPath id="a"><path d="M56.9 22.36C56.9 16.1 51.8 11 45.52 11H19.46C13.19 11 8.1 16.1 8.1 22.36v22.72c0 6.28 5.09 11.37 11.36 11.37h26.07c6.27 0 11.36-5.1 11.36-11.37V22.36z"/></clipPath><g clip-path="url(#a)"><path d="M57.8 20.91c0-6.27-5.09-11.36-11.36-11.36H20.37c-6.27 0-11.36 5.1-11.36 11.36v22.72c0 6.28 5.1 11.37 11.36 11.37h26.07c6.27 0 11.37-5.1 11.37-11.37V20.91z" fill="#a256e4"/></g><path d="M22.5 21.2l.05.59-.38.45-3.62 1.9-.59.06-.45-.38-.05-.59.37-.45 3.63-1.9.58-.06.45.38zm20.13.2l3.63 1.9.37.45-.05.59-.46.38-.58-.05-3.62-1.9-.38-.46.06-.58.45-.38.58.05zm-21.77 5.93h.05l.18.01.25.03a3.77 3.77 0 0 1 .57.14 4.72 4.72 0 0 1 1.76 1.08 6.05 6.05 0 0 1 1.28 1.92l.07.17.14.38v.02l-.01.07-.08-.02-.16-.18-.15-.17a8.27 8.27 0 0 0-.93-.85l-.21-.16a5.9 5.9 0 0 0-1.33-.67l-.1-.03a4.08 4.08 0 0 0-.6-.14l-.11-.01-.15-.02-.17-.01-.1-.01h-.2l-.15-.01h-.27l-.14.02a3.66 3.66 0 0 0-.48.06l-.13.02a4.02 4.02 0 0 0-.62.19l-.1.03a4.42 4.42 0 0 0-.4.2l-.1.05a4.45 4.45 0 0 0-1.28 1 5.1 5.1 0 0 0-.46.59l-.01.01-.07.03-.03-.07a5.4 5.4 0 0 1 .31-.97l.06-.13a5.22 5.22 0 0 1 .86-1.25l.13-.13a4.9 4.9 0 0 1 .4-.34l.1-.08c.25-.17.5-.31.77-.44l.08-.03.12-.05a4.98 4.98 0 0 1 .63-.18l.24-.04.18-.02h.37zm23.36 0l.27.01.18.02.24.04a3.38 3.38 0 0 1 .63.18l.12.05.08.04c.27.12.52.26.76.43l.15.1a4.92 4.92 0 0 1 .4.35l.1.1c.34.37.63.8.85 1.25l.05.13a5.12 5.12 0 0 1 .31.95V31l-.02.07-.07-.03a7.22 7.22 0 0 0-.5-.63l-.2-.2a4.72 4.72 0 0 0-1.05-.77l-.1-.06a3.38 3.38 0 0 0-.4-.18l-.1-.04a4.51 4.51 0 0 0-.63-.18l-.12-.03a3.46 3.46 0 0 0-.48-.06l-.14-.01h-.15l-.12-.01h-.34l-.11.02h-.18l-.14.03-.11.01a3.56 3.56 0 0 0-.6.14l-.14.04a4.24 4.24 0 0 0-.59.25l-.12.06c-.1.05-.2.1-.3.17l-.28.18a6.43 6.43 0 0 0-1.05.92l-.13.13-.26.3-.01.01-.08.03-.02-.08.13-.34.09-.23a7.1 7.1 0 0 1 1-1.62 6.05 6.05 0 0 1 .7-.66c.1-.1.23-.18.35-.26l.18-.1a4.68 4.68 0 0 1 1.38-.5l.42-.04h.15z" fill="#2e0d19" fill-rule="nonzero"/><path d="M23.3 35.12c0 6.18 4.12 11.2 9.2 11.2 5.07 0 9.19-5.02 9.19-11.2H23.3z" fill="#2e0d19"/><clipPath id="b"><path d="M23.3 35.12c0 6.18 4.12 11.2 9.2 11.2 5.07 0 9.19-5.02 9.19-11.2H23.3z"/></clipPath><g clip-path="url(#b)"><path d="M32.5 39.19c3.8 0 6.87 2.34 6.87 5.21-.01 2.87-3.1 5.2-6.89 5.19-3.79-.01-6.86-2.35-6.86-5.22 0-2.87 3.1-5.19 6.89-5.18z" fill="#f14a67"/></g><path d="M23 35.02l.05-.08c.04-.06.1-.1.16-.12l.1-.01h18.41a.3.3 0 0 1 .25.21l.01.1a14.58 14.58 0 0 1-.3 2.93 12.23 12.23 0 0 1-2.54 5.28 10.13 10.13 0 0 1-2.05 1.85 8.68 8.68 0 0 1-3.2 1.32 8 8 0 0 1-4.86-.66 9.47 9.47 0 0 1-2.66-1.91 11.4 11.4 0 0 1-2.25-3.35 13.13 13.13 0 0 1-1.14-5.31v-.2l.02-.05zm9.5.4h-8.9c.04 1.71.4 3.41 1.1 4.97a10.74 10.74 0 0 0 2.15 3.15 8.67 8.67 0 0 0 2.5 1.76 7.5 7.5 0 0 0 6.12.07 8.23 8.23 0 0 0 2.4-1.59 11.65 11.65 0 0 0 3.22-5.93c.16-.78.25-1.58.27-2.38v-.04H32.5z" fill="#2e0d19" fill-rule="nonzero"/><path d="M15.68 32.48s.45 2.4.07 3.12a1.5 1.5 0 0 1-2.65-1.35c.37-.74 2.58-1.77 2.58-1.77z" fill="#5aa7e7"/><path d="M13.78 34.25c-.39.04-.66.46-.6.92.05.46.4.8.79.76.39-.04.66-.45.6-.92-.05-.46-.4-.8-.8-.76z" fill="#b1d6f4"/></svg>