<?xml version="1.0" encoding="utf-8"?>
<!-- Generator: Adobe Illustrator 22.0.1, SVG Export Plug-In . SVG Version: 6.00 Build 0)  -->
<svg version="1.1" xmlns="http://www.w3.org/2000/svg" xmlns:xlink="http://www.w3.org/1999/xlink" x="0px" y="0px"
	 viewBox="0 0 151.497 131.767" enable-background="new 0 0 151.497 131.767" xml:space="preserve">
<g id="BACKGROUND">
</g>
<g id="DESIGNED_BY_FREEPIK">
</g>
<g id="OBJECTS">
	<g>
		
			<image overflow="visible" opacity="0.3" width="718" height="549" xlink:href="F3551123.png"  transform="matrix(0.24 0 0 0.24 -5.4588 0.1815)">
		</image>
		<g>
			<g>
				<g>
					<g>
						<g>
							<defs>
								<path id="SVGID_12_" d="M144.307,118.471c-9.355-4.483-18.765-8.108-28.581-11.009c-0.21-0.058-0.317-0.085-0.529-0.145
									c1.38-6.713,2.76-13.429,4.14-20.143c11.046,3.192,21.655,7.258,32.16,12.32c-3.822,2.6-5.683,3.952-9.302,6.758
									C143.165,111.148,143.589,113.593,144.307,118.471z"/>
							</defs>
							<clipPath id="SVGID_2_">
								<use xlink:href="#SVGID_12_"  overflow="visible"/>
							</clipPath>
						</g>
					</g>
					<g>
						<g>
							<defs>
								<path id="SVGID_14_" d="M7.19,118.471c9.357-4.484,18.766-8.108,28.584-11.007c0.21-0.06,0.316-0.087,0.525-0.147
									c-1.38-6.713-2.759-13.429-4.137-20.143C21.114,90.369,10.507,94.432,0,99.496c3.823,2.6,5.685,3.952,9.304,6.758
									C8.331,111.148,7.909,113.593,7.19,118.471z"/>
							</defs>
							<clipPath id="SVGID_3_">
								<use xlink:href="#SVGID_14_"  overflow="visible"/>
							</clipPath>
						</g>
					</g>
				</g>
				<g>
					<defs>
						<path id="SVGID_16_" d="M128.784,105.623c-35.127-11.999-70.832-12.012-105.97-0.037c-2.1-7.697-4.2-15.392-6.302-23.09
							C55.761,69.06,95.861,69.073,135.099,82.54C132.996,90.233,130.888,97.929,128.784,105.623z"/>
					</defs>
					<clipPath id="SVGID_4_">
						<use xlink:href="#SVGID_16_"  overflow="visible"/>
					</clipPath>
				</g>
			</g>
			<g>
				<g>
					<g>
						<linearGradient id="SVGID_5_" gradientUnits="userSpaceOnUse" x1="115.1968" y1="102.8232" x2="151.4966" y2="102.8232">
							<stop  offset="0" style="stop-color:#B9873D"/>
							<stop  offset="0.2718" style="stop-color:#C39442"/>
							<stop  offset="0.3331" style="stop-color:#CCA249"/>
							<stop  offset="0.4489" style="stop-color:#E4C75B"/>
							<stop  offset="0.5241" style="stop-color:#F5E368"/>
							<stop  offset="0.6343" style="stop-color:#DEC55A"/>
							<stop  offset="0.8734" style="stop-color:#A27938"/>
							<stop  offset="0.9077" style="stop-color:#996D33"/>
						</linearGradient>
						<path fill="url(#SVGID_5_)" d="M144.307,118.471c-9.355-4.483-18.765-8.108-28.581-11.009
							c-0.21-0.058-0.317-0.085-0.529-0.145c1.38-6.713,2.76-13.429,4.14-20.143c11.046,3.192,21.655,7.258,32.16,12.32
							c-3.822,2.6-5.683,3.952-9.302,6.758C143.165,111.148,143.589,113.593,144.307,118.471z"/>
						<g>
							<defs>
								<path id="SVGID_19_" d="M144.307,118.471c-9.355-4.483-18.765-8.108-28.581-11.009c-0.21-0.058-0.317-0.085-0.529-0.145
									c1.38-6.713,2.76-13.429,4.14-20.143c11.046,3.192,21.655,7.258,32.16,12.32c-3.822,2.6-5.683,3.952-9.302,6.758
									C143.165,111.148,143.589,113.593,144.307,118.471z"/>
							</defs>
							<clipPath id="SVGID_6_">
								<use xlink:href="#SVGID_19_"  overflow="visible"/>
							</clipPath>
							<linearGradient id="SVGID_8_" gradientUnits="userSpaceOnUse" x1="115.0655" y1="103.9788" x2="155.831" y2="103.9788">
								<stop  offset="0.0106" style="stop-color:#CC822A"/>
								<stop  offset="0.0407" style="stop-color:#D29138"/>
								<stop  offset="0.0915" style="stop-color:#D9A34A"/>
								<stop  offset="0.145" style="stop-color:#DDAD55"/>
								<stop  offset="0.2053" style="stop-color:#DEB158"/>
								<stop  offset="0.5196" style="stop-color:#F9E09E"/>
								<stop  offset="0.8053" style="stop-color:#DEB158"/>
								<stop  offset="1" style="stop-color:#CC8B30"/>
							</linearGradient>
							<path clip-path="url(#SVGID_6_)" fill="none" stroke="url(#SVGID_8_)" stroke-width="0.9281" stroke-miterlimit="10" d="
								M148.665,118.471c-10.573-5.402-21.251-9.684-32.456-12.987c-0.239-0.066-0.361-0.1-0.601-0.165
								c1.108-5.382,2.211-10.765,3.317-16.146c12.361,3.571,24.162,8.272,35.803,14.245c-3.854,1.601-5.74,2.462-9.425,4.287
								C146.765,112.005,147.438,114.161,148.665,118.471z"/>
						</g>
						<g>
							<path fill="#74551C" d="M128.761,105.495c-3.971-2.015-8.009-3.862-12.099-5.539c-0.583,2.962-0.878,4.441-1.468,7.4
								C119.693,106.518,124.22,105.896,128.761,105.495z"/>
						</g>
					</g>
					<g>
						
							<linearGradient id="SVGID_9_" gradientUnits="userSpaceOnUse" x1="-1436.377" y1="102.8232" x2="-1400.0776" y2="102.8232" gradientTransform="matrix(-1 0 0 1 -1400.0776 0)">
							<stop  offset="0" style="stop-color:#B9873D"/>
							<stop  offset="0.2718" style="stop-color:#C39442"/>
							<stop  offset="0.3331" style="stop-color:#CCA249"/>
							<stop  offset="0.4489" style="stop-color:#E4C75B"/>
							<stop  offset="0.5241" style="stop-color:#F5E368"/>
							<stop  offset="0.6343" style="stop-color:#DEC55A"/>
							<stop  offset="0.8734" style="stop-color:#A27938"/>
							<stop  offset="0.9077" style="stop-color:#996D33"/>
						</linearGradient>
						<path fill="url(#SVGID_9_)" d="M7.19,118.471c9.357-4.484,18.766-8.108,28.584-11.007c0.21-0.06,0.316-0.087,0.525-0.147
							c-1.38-6.713-2.759-13.429-4.137-20.143C21.114,90.369,10.507,94.432,0,99.496c3.823,2.6,5.685,3.952,9.304,6.758
							C8.331,111.148,7.909,113.593,7.19,118.471z"/>
						<g>
							<defs>
								<path id="SVGID_23_" d="M7.19,118.471c9.357-4.484,18.766-8.108,28.584-11.007c0.21-0.06,0.316-0.087,0.525-0.147
									c-1.38-6.713-2.759-13.429-4.137-20.143C21.114,90.369,10.507,94.432,0,99.496c3.823,2.6,5.685,3.952,9.304,6.758
									C8.331,111.148,7.909,113.593,7.19,118.471z"/>
							</defs>
							<clipPath id="SVGID_11_">
								<use xlink:href="#SVGID_23_"  overflow="visible"/>
							</clipPath>
							
								<linearGradient id="SVGID_13_" gradientUnits="userSpaceOnUse" x1="-1436.5079" y1="103.9788" x2="-1395.7434" y2="103.9788" gradientTransform="matrix(-1 0 0 1 -1400.0776 0)">
								<stop  offset="0.0106" style="stop-color:#CC822A"/>
								<stop  offset="0.0407" style="stop-color:#D29138"/>
								<stop  offset="0.0915" style="stop-color:#D9A34A"/>
								<stop  offset="0.145" style="stop-color:#DDAD55"/>
								<stop  offset="0.2053" style="stop-color:#DEB158"/>
								<stop  offset="0.5196" style="stop-color:#F9E09E"/>
								<stop  offset="0.8053" style="stop-color:#DEB158"/>
								<stop  offset="1" style="stop-color:#CC8B30"/>
							</linearGradient>
							<path clip-path="url(#SVGID_11_)" fill="none" stroke="url(#SVGID_13_)" stroke-width="0.9281" stroke-miterlimit="10" d="
								M2.833,118.471c10.571-5.403,21.252-9.681,32.456-12.987c0.239-0.066,0.362-0.099,0.599-0.165
								c-1.104-5.382-2.21-10.765-3.316-16.146C20.21,92.745,8.411,97.446-3.231,103.418c3.855,1.601,5.74,2.462,9.425,4.287
								C4.732,112.005,4.059,114.161,2.833,118.471z"/>
						</g>
						<g>
							<path fill="#74551C" d="M22.735,105.496c3.974-2.016,8.011-3.865,12.101-5.54c0.584,2.961,0.879,4.441,1.465,7.4
								C31.804,106.518,27.279,105.896,22.735,105.496z"/>
						</g>
					</g>
				</g>
				<g>
					
						<linearGradient id="SVGID_15_" gradientUnits="userSpaceOnUse" x1="22.5767" y1="187.3926" x2="82.342" y2="83.876" gradientTransform="matrix(0.9954 -0.096 0.096 0.9954 10.5098 -68.9117)">
						<stop  offset="0" style="stop-color:#B9873D"/>
						<stop  offset="0.2718" style="stop-color:#C39442"/>
						<stop  offset="0.3331" style="stop-color:#CCA249"/>
						<stop  offset="0.4489" style="stop-color:#E4C75B"/>
						<stop  offset="0.5241" style="stop-color:#F5E368"/>
						<stop  offset="0.6343" style="stop-color:#DEC55A"/>
						<stop  offset="0.8734" style="stop-color:#A27938"/>
						<stop  offset="0.9077" style="stop-color:#996D33"/>
					</linearGradient>
					<path fill="url(#SVGID_15_)" d="M135.228,55.323c3.172,32.85-20.891,62.05-53.741,65.221
						c-32.849,3.169-62.048-20.892-65.218-53.741c-3.17-32.851,20.89-62.05,53.741-65.221
						C102.859-1.586,132.06,22.473,135.228,55.323z"/>
					<g>
						<circle fill="#FFFFFF" cx="75.749" cy="61.063" r="54.995"/>
					</g>
					<linearGradient id="SVGID_17_" gradientUnits="userSpaceOnUse" x1="53.9031" y1="109.0235" x2="97.5936" y2="13.1016">
						<stop  offset="0" style="stop-color:#B9873D"/>
						<stop  offset="0.2718" style="stop-color:#C39442"/>
						<stop  offset="0.3331" style="stop-color:#CCA249"/>
						<stop  offset="0.4489" style="stop-color:#E4C75B"/>
						<stop  offset="0.5241" style="stop-color:#F5E368"/>
						<stop  offset="0.6343" style="stop-color:#DEC55A"/>
						<stop  offset="0.8734" style="stop-color:#A27938"/>
						<stop  offset="0.9077" style="stop-color:#996D33"/>
					</linearGradient>
					<path fill="none" stroke="url(#SVGID_17_)" stroke-width="0.9912" stroke-miterlimit="10" d="M127.706,56.047
						c2.769,28.695-18.249,54.204-46.943,56.973c-28.693,2.768-54.2-18.249-56.97-46.944C21.024,37.379,42.04,11.874,70.734,9.107
						C99.429,6.338,124.937,27.353,127.706,56.047z"/>
				</g>
				<linearGradient id="SVGID_18_" gradientUnits="userSpaceOnUse" x1="16.4561" y1="89.0264" x2="135.0435" y2="89.0264">
					<stop  offset="0" style="stop-color:#B9873D"/>
					<stop  offset="0.2718" style="stop-color:#C39442"/>
					<stop  offset="0.3331" style="stop-color:#CCA249"/>
					<stop  offset="0.4489" style="stop-color:#E4C75B"/>
					<stop  offset="0.5241" style="stop-color:#F5E368"/>
					<stop  offset="0.6343" style="stop-color:#DEC55A"/>
					<stop  offset="0.8734" style="stop-color:#A27938"/>
					<stop  offset="0.9077" style="stop-color:#996D33"/>
				</linearGradient>
				<path fill="url(#SVGID_18_)" d="M128.728,105.623c-35.13-11.999-70.833-12.012-105.969-0.037
					c-2.101-7.697-4.202-15.392-6.303-23.09C55.705,69.06,95.804,69.073,135.043,82.54
					C132.939,90.233,130.833,97.929,128.728,105.623z"/>
				<g>
					<defs>
						<path id="SVGID_29_" d="M128.784,105.623c-35.127-11.999-70.832-12.012-105.97-0.037c-2.1-7.697-4.2-15.392-6.302-23.09
							C55.761,69.06,95.861,69.073,135.099,82.54C132.996,90.233,130.888,97.929,128.784,105.623z"/>
					</defs>
					<clipPath id="SVGID_20_">
						<use xlink:href="#SVGID_29_"  overflow="visible"/>
					</clipPath>
					<linearGradient id="SVGID_21_" gradientUnits="userSpaceOnUse" x1="12.4941" y1="89.8468" x2="139.1181" y2="89.8468">
						<stop  offset="0.0106" style="stop-color:#CC822A"/>
						<stop  offset="0.0407" style="stop-color:#D29138"/>
						<stop  offset="0.0915" style="stop-color:#D9A34A"/>
						<stop  offset="0.145" style="stop-color:#DDAD55"/>
						<stop  offset="0.2053" style="stop-color:#DEB158"/>
						<stop  offset="0.5196" style="stop-color:#F9E09E"/>
						<stop  offset="0.8053" style="stop-color:#DEB158"/>
						<stop  offset="1" style="stop-color:#CC8B30"/>
					</linearGradient>
					<path clip-path="url(#SVGID_20_)" fill="none" stroke="url(#SVGID_21_)" stroke-width="0.9764" stroke-miterlimit="10" d="
						M133.047,104.823c-37.813-13.956-76.673-13.965-114.494-0.039c-1.821-6.202-3.644-12.399-5.463-18.601
						c41.351-15.3,84.085-15.282,125.43,0.043C136.695,92.425,134.872,98.623,133.047,104.823z"/>
				</g>
				<g>
					<g>
						<g>
							
								<text transform="matrix(0.9999 0.0114 -0.0114 0.9999 49.7026 65.3472)" fill="#74551C" font-family="'BebasNeueBold'" font-size="19.0688px">quality</text>
						</g>
						<g>
							
								<text transform="matrix(0.9999 0.0114 -0.0114 0.9999 45.9713 49.0684)" fill="#74551C" font-family="'BebasNeueBold'" font-size="19.0688px">Premium</text>
						</g>
					</g>
				</g>
				<g>
					<polygon fill="#74551C" points="79.828,23.823 79.828,16.916 75.776,23.052 71.725,16.916 71.725,23.823 66.254,19.712 
						71.927,30.5 75.776,30.5 79.625,30.5 85.3,19.712 					"/>
				</g>
				<g>
					<g>
						<polygon fill="#74551C" points="75.623,79.155 76.945,83.377 81.374,83.426 77.766,85.987 79.091,90.207 75.54,87.572 
							71.932,90.138 73.34,85.942 69.787,83.308 74.209,83.35 						"/>
						<polygon fill="#74551C" points="90.816,79.905 91.896,83.354 95.51,83.393 92.564,85.484 93.647,88.93 90.745,86.777 
							87.805,88.875 88.955,85.447 86.049,83.297 89.661,83.332 						"/>
						<polygon fill="#74551C" points="60.758,80.418 61.838,83.868 65.452,83.905 62.505,85.997 63.592,89.441 60.69,87.289 
							57.745,89.389 58.896,85.957 55.994,83.811 59.606,83.842 						"/>
					</g>
				</g>
			</g>
			<g>
				<g>
					<g>
						<g>
							<defs>
								<path id="SVGID_32_" d="M144.307,118.471c-9.355-4.483-18.765-8.108-28.581-11.009c-0.21-0.058-0.317-0.085-0.529-0.145
									c1.38-6.713,2.76-13.429,4.14-20.143c11.046,3.192,21.655,7.258,32.16,12.32c-3.822,2.6-5.683,3.952-9.302,6.758
									C143.165,111.148,143.589,113.593,144.307,118.471z"/>
							</defs>
							<clipPath id="SVGID_22_">
								<use xlink:href="#SVGID_32_"  overflow="visible"/>
							</clipPath>
						</g>
					</g>
					<g>
						<g>
							<defs>
								<path id="SVGID_34_" d="M7.19,118.471c9.357-4.484,18.766-8.108,28.584-11.007c0.21-0.06,0.316-0.087,0.525-0.147
									c-1.38-6.713-2.759-13.429-4.137-20.143C21.114,90.369,10.507,94.432,0,99.496c3.823,2.6,5.685,3.952,9.304,6.758
									C8.331,111.148,7.909,113.593,7.19,118.471z"/>
							</defs>
							<clipPath id="SVGID_24_">
								<use xlink:href="#SVGID_34_"  overflow="visible"/>
							</clipPath>
						</g>
					</g>
				</g>
				<g>
					<defs>
						<path id="SVGID_36_" d="M128.784,105.623c-35.127-11.999-70.832-12.012-105.97-0.037c-2.1-7.697-4.2-15.392-6.302-23.09
							C55.761,69.06,95.861,69.073,135.099,82.54C132.996,90.233,130.888,97.929,128.784,105.623z"/>
					</defs>
					<clipPath id="SVGID_25_">
						<use xlink:href="#SVGID_36_"  overflow="visible"/>
					</clipPath>
				</g>
			</g>
		</g>
	</g>
</g>
</svg>
