<svg xmlns="http://www.w3.org/2000/svg" viewBox="0 0 40 40"><rect x="19" y="1" width="2" height="6" fill="#7496c4"/><polygon points="7.5,21.5 7.5,8.5 11.5,8.5 11.5,4.5 28.5,4.5 28.5,8.5 32.5,8.5 32.5,21.5" fill="#c2e8ff"/><path d="M28 5v4h4v12H8V9h4V5h16m1-1H11v4H7v14h26V8h-4V4z" fill="#7496c4"/><rect x="19" y="8" width="2" height="2" fill="#7496c4"/><rect x="23" y="8" width="2" height="2" fill="#7496c4"/><rect x="15" y="8" width="2" height="2" fill="#7496c4"/><rect x="11" y="12" width="2" height="2" fill="#7496c4"/><rect x="23" y="12" width="2" height="2" fill="#7496c4"/><rect x="27" y="12" width="2" height="2" fill="#7496c4"/><rect x="15" y="12" width="2" height="2" fill="#7496c4"/><rect x="19" y="12" width="2" height="2" fill="#7496c4"/><path d="M4.5 37.5V25.871l-2.767-5.015a2.18 2.18 0 0 1 .049-1.995 2.191 2.191 0 0 1 1.66-1.149L20 15.504l16.559 2.208a2.188 2.188 0 0 1 1.659 1.149 2.19 2.19 0 0 1 .039 2.017L35.5 25.871V37.5h-31z" fill="#c8d1db"/><path d="M20 16.009l16.493 2.199a1.696 1.696 0 0 1 1.284.889c.26.485.274 1.046.039 1.542l-2.692 4.878-.124.225V37H5V25.742l-.124-.226-2.681-4.858a1.696 1.696 0 0 1 .029-1.562 1.696 1.696 0 0 1 1.284-.89L20 16.009M20 15L3.376 17.217a2.715 2.715 0 0 0-2.08 3.882L4 26v12h32V26l2.706-4.902a2.714 2.714 0 0 0-2.08-3.881L20 15z" fill="#66798f"/><path d="M2.224 19.097a1.697 1.697 0 0 0-.029 1.562l2.681 4.858.124.225V37h15V16.009L3.508 18.208a1.693 1.693 0 0 0-1.284.889z" fill="#d6dfeb"/><ellipse cx="29.5" cy="23" rx="1.5" ry="2" fill="#66798f"/><ellipse cx="10.5" cy="23" rx="1.5" ry="2" fill="#66798f"/><rect x="4.5" y="28.5" width="31" height="9" fill="#f78f8f"/><path d="M35 29v8H5v-8h30m1-1H4v10h32V28z" fill="#c74343"/><rect x="5" y="28" width="30" height="10" fill="#f78f8f"/><rect x="5" y="28" width="15" height="10" fill="#f7adad"/><path d="M1 39h38v-7.123c-1.308-.263-2.852-.877-4-.877-1.458 0-3.563 1-5 1-1.438 0-3.542-1-5-1s-3.563 1-5 1c-1.438 0-3.542-1-5-1s-3.563 1-5 1c-1.438 0-3.542-1-5-1-1.148 0-2.692.614-4 .877V39z" fill="#8bb7f0"/><path d="M35 31c-1.458 0-3.563 1-5 1-1.438 0-3.542-1-5-1s-3.563 1-5 1c-1.438 0-3.542-1-5-1s-3.563 1-5 1c-1.438 0-3.542-1-5-1-1.148 0-2.692.614-4 .877V32.9c.574-.103 1.17-.271 1.754-.435C3.566 32.237 4.406 32 5 32s1.434.237 2.246.465c.934.263 1.9.535 2.754.535s1.82-.272 2.754-.535C13.566 32.237 14.406 32 15 32s1.434.237 2.246.465c.934.263 1.9.535 2.754.535s1.82-.272 2.754-.535C23.566 32.237 24.406 32 25 32s1.434.237 2.246.465c.934.263 1.9.535 2.754.535s1.82-.272 2.754-.535C33.566 32.237 34.406 32 35 32s1.434.237 2.246.465c.584.165 1.18.332 1.754.435v-1.023c-1.308-.263-2.852-.877-4-.877z" fill="#4e7ab5"/></svg>