<?xml version="1.0" encoding="utf-8"?>
<!-- Generator: Adobe Illustrator 22.0.1, SVG Export Plug-In . SVG Version: 6.00 Build 0)  -->
<svg version="1.1" xmlns="http://www.w3.org/2000/svg" xmlns:xlink="http://www.w3.org/1999/xlink" x="0px" y="0px"
	 viewBox="0 0 143.946 141.506" enable-background="new 0 0 143.946 141.506" xml:space="preserve">
<g id="BACKGROUND">
</g>
<g id="DESIGNED_BY_FREEPIK">
</g>
<g id="OBJECTS">
	<g>
		
			<image overflow="visible" opacity="0.3" width="775" height="635" xlink:href="AD63656A.png"  transform="matrix(0.24 0 0 0.24 -13.2132 2.7208)">
		</image>
		<g>
			<g>
				<g>
					<defs>
						<path id="SVGID_88_" d="M124.822,66.581c2.738,28.359-18.035,53.566-46.394,56.304c-28.359,2.736-53.567-18.035-56.305-46.396
							C19.39,48.13,40.159,22.922,68.52,20.187C96.879,17.45,122.087,38.221,124.822,66.581z"/>
					</defs>
					<clipPath id="SVGID_2_">
						<use xlink:href="#SVGID_88_"  overflow="visible"/>
					</clipPath>
				</g>
			</g>
			<g>
				<g>
					<g>
						<linearGradient id="SVGID_3_" gradientUnits="userSpaceOnUse" x1="41.5359" y1="124.9605" x2="104.0724" y2="16.6441">
							<stop  offset="0" style="stop-color:#B9873D"/>
							<stop  offset="0.2718" style="stop-color:#C39442"/>
							<stop  offset="0.3331" style="stop-color:#CCA249"/>
							<stop  offset="0.4489" style="stop-color:#E4C75B"/>
							<stop  offset="0.5241" style="stop-color:#F5E368"/>
							<stop  offset="0.6343" style="stop-color:#DEC55A"/>
							<stop  offset="0.8734" style="stop-color:#A27938"/>
							<stop  offset="0.9077" style="stop-color:#996D33"/>
						</linearGradient>
						<polygon fill="url(#SVGID_3_)" points="135.429,70.802 130.418,75.58 134.584,81.11 128.857,85 132.051,91.143 
							125.757,94.028 127.89,100.616 121.205,102.422 122.225,109.271 115.335,109.955 115.219,116.878 108.31,116.425 
							107.061,123.235 100.32,121.654 97.967,128.166 91.58,125.493 88.181,131.524 82.326,127.83 77.976,133.217 72.805,128.61 
							67.634,133.217 63.283,127.83 57.427,131.524 54.029,125.492 47.641,128.165 45.287,121.653 38.546,123.234 37.297,116.424 
							30.388,116.876 30.272,109.952 23.382,109.269 24.402,102.42 17.718,100.613 19.851,94.027 13.557,91.142 16.752,84.999 
							11.025,81.11 15.191,75.58 10.18,70.802 15.191,66.024 11.025,60.493 16.752,56.604 13.557,50.461 19.851,47.575 
							17.719,40.987 24.404,39.182 23.384,32.333 30.274,31.649 30.391,24.727 37.299,25.179 38.549,18.368 45.289,19.95 
							47.642,13.438 54.029,16.112 57.429,10.08 63.283,13.775 67.635,8.389 72.805,12.995 77.975,8.389 82.326,13.775 
							88.183,10.081 91.581,16.112 97.969,13.439 100.322,19.951 107.064,18.371 108.313,25.182 115.221,24.73 115.337,31.652 
							122.228,32.336 121.207,39.185 127.892,40.99 125.758,47.577 132.052,50.462 128.857,56.605 134.584,60.493 130.418,66.024 
													"/>
						<linearGradient id="SVGID_4_" gradientUnits="userSpaceOnUse" x1="39.2972" y1="128.8383" x2="106.3112" y2="12.7668">
							<stop  offset="0" style="stop-color:#B9873D"/>
							<stop  offset="0.2408" style="stop-color:#BC893D"/>
							<stop  offset="0.4266" style="stop-color:#E1C98B"/>
							<stop  offset="0.5294" style="stop-color:#F3E9B2"/>
							<stop  offset="0.6338" style="stop-color:#F4E794"/>
							<stop  offset="0.7702" style="stop-color:#F5E368"/>
							<stop  offset="0.8048" style="stop-color:#EEDA64"/>
							<stop  offset="0.8621" style="stop-color:#DAC058"/>
							<stop  offset="0.9346" style="stop-color:#BA9846"/>
							<stop  offset="1" style="stop-color:#996D33"/>
						</linearGradient>
						<polygon fill="none" stroke="url(#SVGID_4_)" stroke-width="6.185" stroke-miterlimit="10" points="135.429,70.802 
							130.418,75.58 134.584,81.11 128.857,85 132.051,91.143 125.757,94.028 127.89,100.616 121.205,102.422 122.225,109.271 
							115.335,109.955 115.219,116.878 108.31,116.425 107.061,123.235 100.32,121.654 97.967,128.166 91.58,125.493 
							88.181,131.524 82.326,127.83 77.976,133.217 72.805,128.61 67.634,133.217 63.283,127.83 57.427,131.524 54.029,125.492 
							47.641,128.165 45.287,121.653 38.546,123.234 37.297,116.424 30.388,116.876 30.272,109.952 23.382,109.269 24.402,102.42 
							17.718,100.613 19.851,94.027 13.557,91.142 16.752,84.999 11.025,81.11 15.191,75.58 10.18,70.802 15.191,66.024 
							11.025,60.493 16.752,56.604 13.557,50.461 19.851,47.575 17.719,40.987 24.404,39.182 23.384,32.333 30.274,31.649 
							30.391,24.727 37.299,25.179 38.549,18.368 45.289,19.95 47.642,13.438 54.029,16.112 57.429,10.08 63.283,13.775 
							67.635,8.389 72.805,12.995 77.975,8.389 82.326,13.775 88.183,10.081 91.581,16.112 97.969,13.439 100.322,19.951 
							107.064,18.371 108.313,25.182 115.221,24.73 115.337,31.652 122.228,32.336 121.207,39.185 127.892,40.99 125.758,47.577 
							132.052,50.462 128.857,56.605 134.584,60.493 130.418,66.024 						"/>
					</g>
					<path fill="#74551C" d="M131.219,70.801c0,32.264-26.152,58.416-58.414,58.416c-32.263,0-58.415-26.152-58.415-58.416
						c0-32.261,26.152-58.412,58.415-58.412C105.067,12.389,131.219,38.54,131.219,70.801z"/>
					<linearGradient id="SVGID_5_" gradientUnits="userSpaceOnUse" x1="17.1481" y1="70.8027" x2="128.4608" y2="70.8027">
						<stop  offset="0" style="stop-color:#B9873D"/>
						<stop  offset="0.1148" style="stop-color:#CFAA57"/>
						<stop  offset="0.2882" style="stop-color:#F4E583"/>
						<stop  offset="0.3326" style="stop-color:#F4E58B"/>
						<stop  offset="0.4012" style="stop-color:#F4E6A1"/>
						<stop  offset="0.4832" style="stop-color:#F4E8C3"/>
						<stop  offset="0.495" style="stop-color:#F4E8BC"/>
						<stop  offset="0.5495" style="stop-color:#F4E6A1"/>
						<stop  offset="0.6049" style="stop-color:#F4E58E"/>
						<stop  offset="0.661" style="stop-color:#F4E482"/>
						<stop  offset="0.719" style="stop-color:#F4E47E"/>
						<stop  offset="0.7703" style="stop-color:#E8D474"/>
						<stop  offset="0.8704" style="stop-color:#C8AB5A"/>
						<stop  offset="1" style="stop-color:#996D33"/>
					</linearGradient>
					
						<path fill="none" stroke="url(#SVGID_5_)" stroke-width="1.5988" stroke-linecap="round" stroke-miterlimit="10" stroke-dasharray="0,4.046" d="
						M127.661,70.802c0,30.295-24.562,54.857-54.856,54.857c-30.296,0-54.857-24.563-54.857-54.857
						c0-30.296,24.562-54.855,54.857-54.855C103.1,15.946,127.661,40.506,127.661,70.802z"/>
					<linearGradient id="SVGID_6_" gradientUnits="userSpaceOnUse" x1="20.8819" y1="70.8027" x2="124.7288" y2="70.8027">
						<stop  offset="0" style="stop-color:#B9873D"/>
						<stop  offset="0.1148" style="stop-color:#CFAA57"/>
						<stop  offset="0.2882" style="stop-color:#F4E583"/>
						<stop  offset="0.3326" style="stop-color:#F4E58B"/>
						<stop  offset="0.4012" style="stop-color:#F4E6A1"/>
						<stop  offset="0.4832" style="stop-color:#F4E8C3"/>
						<stop  offset="0.495" style="stop-color:#F4E8BC"/>
						<stop  offset="0.5495" style="stop-color:#F4E6A1"/>
						<stop  offset="0.6049" style="stop-color:#F4E58E"/>
						<stop  offset="0.661" style="stop-color:#F4E482"/>
						<stop  offset="0.719" style="stop-color:#F4E47E"/>
						<stop  offset="0.7703" style="stop-color:#E8D474"/>
						<stop  offset="0.8704" style="stop-color:#C8AB5A"/>
						<stop  offset="1" style="stop-color:#996D33"/>
					</linearGradient>
					<path fill="none" stroke="url(#SVGID_6_)" stroke-width="0.8381" stroke-linecap="round" stroke-miterlimit="10" d="
						M124.31,70.802c0,28.443-23.061,51.506-51.505,51.506c-28.445,0-51.504-23.063-51.504-51.506
						c0-28.443,23.059-51.504,51.504-51.504C101.248,19.298,124.31,42.358,124.31,70.802z"/>
				</g>
				<g>
					<defs>
						<path id="SVGID_94_" d="M124.822,66.581c2.738,28.359-18.035,53.566-46.394,56.304c-28.359,2.736-53.567-18.035-56.305-46.396
							C19.39,48.13,40.159,22.922,68.52,20.187C96.879,17.45,122.087,38.221,124.822,66.581z"/>
					</defs>
					<clipPath id="SVGID_8_">
						<use xlink:href="#SVGID_94_"  overflow="visible"/>
					</clipPath>
					<linearGradient id="SVGID_9_" gradientUnits="userSpaceOnUse" x1="-12.0486" y1="118.6831" x2="161.6819" y2="118.6831">
						<stop  offset="0" style="stop-color:#996D33"/>
						<stop  offset="0.1692" style="stop-color:#996D33"/>
						<stop  offset="0.2184" style="stop-color:#C8AB5A"/>
						<stop  offset="0.2564" style="stop-color:#E8D474"/>
						<stop  offset="0.2759" style="stop-color:#F4E47E"/>
						<stop  offset="0.437" style="stop-color:#F4E47E"/>
						<stop  offset="0.44" style="stop-color:#F4E47E"/>
						<stop  offset="0.4589" style="stop-color:#F4E482"/>
						<stop  offset="0.4772" style="stop-color:#F4E58E"/>
						<stop  offset="0.4952" style="stop-color:#F4E6A1"/>
						<stop  offset="0.5129" style="stop-color:#F4E8BC"/>
						<stop  offset="0.5168" style="stop-color:#F4E8C3"/>
						<stop  offset="0.5182" style="stop-color:#F4E8BE"/>
						<stop  offset="0.5257" style="stop-color:#F4E7A8"/>
						<stop  offset="0.5346" style="stop-color:#F4E697"/>
						<stop  offset="0.5457" style="stop-color:#F4E58C"/>
						<stop  offset="0.5611" style="stop-color:#F4E585"/>
						<stop  offset="0.6041" style="stop-color:#F4E583"/>
						<stop  offset="0.7657" style="stop-color:#B3904A"/>
						<stop  offset="0.841" style="stop-color:#996D33"/>
						<stop  offset="0.9126" style="stop-color:#A97A38"/>
						<stop  offset="1" style="stop-color:#B9873D"/>
					</linearGradient>
					<rect x="-12.049" y="93.413" clip-path="url(#SVGID_8_)" fill="url(#SVGID_9_)" width="173.73" height="50.54"/>
				</g>
				<g>
					<g>
						<polygon fill="#FFFFFF" points="72.675,27.245 73.982,31.422 78.362,31.47 74.794,34 76.104,38.174 72.592,35.567 
							69.027,38.105 70.418,33.955 66.905,31.352 71.277,31.394 						"/>
						<polygon fill="#FFFFFF" points="87.695,27.988 88.763,31.398 92.335,31.437 89.422,33.504 90.493,36.91 87.624,34.782 
							84.719,36.856 85.856,33.466 82.984,31.343 86.553,31.377 						"/>
						<polygon fill="#FFFFFF" points="57.98,28.495 59.047,31.905 62.62,31.942 59.707,34.01 60.78,37.416 57.912,35.287 55,37.363 
							56.138,33.973 53.269,31.85 56.84,31.88 						"/>
					</g>
				</g>
				<g>
					<text transform="matrix(1 0 0 1 50.3117 67.0147)"><tspan x="0" y="0" fill="#FFFFFF" font-family="'BebasNeueBold'" font-size="24.9894px">100%</tspan><tspan x="-12.52" y="19.071" fill="#FFFFFF" font-family="'BebasNeueBold'" font-size="24.9894px">premium</tspan><tspan x="-0.575" y="40.54" fill="#74551C" font-family="'BebasNeueRegular'" font-size="15.1885px" letter-spacing="1">quality</tspan></text>
				</g>
			</g>
			<g>
				<g>
					<defs>
						<path id="SVGID_97_" d="M124.822,66.581c2.738,28.359-18.035,53.566-46.394,56.304c-28.359,2.736-53.567-18.035-56.305-46.396
							C19.39,48.13,40.159,22.922,68.52,20.187C96.879,17.45,122.087,38.221,124.822,66.581z"/>
					</defs>
					<clipPath id="SVGID_11_">
						<use xlink:href="#SVGID_97_"  overflow="visible"/>
					</clipPath>
				</g>
			</g>
		</g>
	</g>
</g>
</svg>
