<svg xmlns="http://www.w3.org/2000/svg" viewBox="0 0 80 80"><path d="M39.984 5.984c-.55.012-.992.465-.984 1.016v5H28v7H16v17.79L5.59 39.312 11.04 51.3l2.847 15.18c-.469.195-.914.414-1.336.624-1 .5-1.883.895-2.551.895a1.006 1.006 0 0 0-.879.496 1.01 1.01 0 0 0 0 1.008c.184.312.52.5.879.496 1.332 0 2.45-.605 3.45-1.105S15.331 68 16 68c.668 0 1.55.395 2.55.895 1 .5 2.118 1.105 3.45 1.105 1.332 0 2.45-.605 3.45-1.105S27.331 68 28 68c.668 0 1.55.395 2.55.895 1 .5 2.118 1.105 3.45 1.105 1.332 0 2.45-.605 3.45-1.105S39.331 68 40 68c.668 0 1.55.395 2.55.895 1 .5 2.118 1.105 3.45 1.105 1.332 0 2.45-.605 3.45-1.105S51.331 68 52 68c.668 0 1.55.395 2.55.895 1 .5 2.118 1.105 3.45 1.105 1.332 0 2.45-.605 3.45-1.105S63.331 68 64 68c.668 0 1.55.395 2.55.895 1 .5 2.118 1.105 3.45 1.105.36.004.695-.184.879-.496a1.01 1.01 0 0 0 0-1.008c-.184-.312-.52-.5-.879-.496-.668 0-1.55-.395-2.55-.895-.423-.21-.868-.43-1.337-.625l2.848-15.18 5.45-11.987L64 36.788V19H52v-7H41V7a1.003 1.003 0 0 0-1.016-1.016zM30 14h9.832c.11.02.219.02.324 0H50v5c-.55 0-1 .45-1 1s.45 1 1 1h12v15.305l-22-5.336-22 5.336V21h12c.55 0 1-.45 1-1s-.45-1-1-1zm4 5c-.55 0-1 .45-1 1s.45 1 1 1 1-.45 1-1-.45-1-1-1zm4 0c-.55 0-1 .45-1 1s.45 1 1 1 1-.45 1-1-.45-1-1-1zm4 0c-.55 0-1 .45-1 1s.45 1 1 1 1-.45 1-1-.45-1-1-1zm4 0c-.55 0-1 .45-1 1s.45 1 1 1 1-.45 1-1-.45-1-1-1zm-24 7c-.55 0-1 .45-1 1s.45 1 1 1 1-.45 1-1-.45-1-1-1zm4 0c-.55 0-1 .45-1 1s.45 1 1 1 1-.45 1-1-.45-1-1-1zm4 0c-.55 0-1 .45-1 1s.45 1 1 1 1-.45 1-1-.45-1-1-1zm4 0c-.55 0-1 .45-1 1s.45 1 1 1 1-.45 1-1-.45-1-1-1zm4 0c-.55 0-1 .45-1 1s.45 1 1 1 1-.45 1-1-.45-1-1-1zm4 0c-.55 0-1 .45-1 1s.45 1 1 1 1-.45 1-1-.45-1-1-1zm4 0c-.55 0-1 .45-1 1s.45 1 1 1 1-.45 1-1-.45-1-1-1zm4 0c-.55 0-1 .45-1 1s.45 1 1 1 1-.45 1-1-.45-1-1-1zm4 0c-.55 0-1 .45-1 1s.45 1 1 1 1-.45 1-1-.45-1-1-1zm4 0c-.55 0-1 .45-1 1s.45 1 1 1 1-.45 1-1-.45-1-1-1zm-18 7.031l31.59 7.657-4.55 10.011-2.872 15.313c-.055-.004-.11-.012-.168-.012-1.332 0-2.45.605-3.45 1.105S58.669 68 58 68c-.668 0-1.55-.395-2.55-.895-1-.5-2.118-1.105-3.45-1.105-1.332 0-2.45.605-3.45 1.105S46.669 68 46 68c-.668 0-1.55-.395-2.55-.895-1-.5-2.118-1.105-3.45-1.105-1.332 0-2.45.605-3.45 1.105S34.669 68 34 68c-.668 0-1.55-.395-2.55-.895-1-.5-2.118-1.105-3.45-1.105-1.332 0-2.45.605-3.45 1.105S22.669 68 22 68c-.668 0-1.55-.395-2.55-.895-1-.5-2.118-1.105-3.45-1.105-.059 0-.113.008-.168.012l-2.871-15.313-4.55-10.011zM40 35c-.55 0-1 .45-1 1s.45 1 1 1 1-.45 1-1-.45-1-1-1zm0 4c-.55 0-1 .45-1 1s.45 1 1 1 1-.45 1-1-.45-1-1-1zm-16.023 3.281a2.077 2.077 0 0 0-.461.063l-2 .5A2.005 2.005 0 0 0 20 44.78V47c-.004.36.184.695.496.879.313.18.695.18 1.008 0 .312-.184.5-.52.496-.879v-2.219l2-.5V46c-.004.36.184.695.496.879.313.18.695.18 1.008 0 .312-.184.5-.52.496-.879v-1.719c0-1.117-.953-2-2.023-2zm32.046 0c-1.07 0-2.023.883-2.023 2V46c-.004.36.184.695.496.879.313.18.695.18 1.008 0 .312-.184.5-.52.496-.879v-1.719l2 .5V47c-.004.36.184.695.496.879.313.18.695.18 1.008 0 .312-.184.5-.52.496-.879v-2.219c0-.91-.629-1.718-1.516-1.937l-2-.5a2.077 2.077 0 0 0-.46-.063zM40 43c-.55 0-1 .45-1 1s.45 1 1 1 1-.45 1-1-.45-1-1-1zm0 4c-.55 0-1 .45-1 1s.45 1 1 1 1-.45 1-1-.45-1-1-1zm0 4c-.55 0-1 .45-1 1s.45 1 1 1 1-.45 1-1-.45-1-1-1zm0 4c-.55 0-1 .45-1 1s.45 1 1 1 1-.45 1-1-.45-1-1-1zm0 4c-.55 0-1 .45-1 1s.45 1 1 1 1-.45 1-1-.45-1-1-1zm0 4c-.55 0-1 .45-1 1s.45 1 1 1 1-.45 1-1-.45-1-1-1zM6 68c-.55 0-1 .45-1 1s.45 1 1 1 1-.45 1-1-.45-1-1-1zm68 0c-.55 0-1 .45-1 1s.45 1 1 1 1-.45 1-1-.45-1-1-1z"/></svg>