<svg xmlns="http://www.w3.org/2000/svg" viewBox="0 0 40 40"><path d="M21 7h-2V2c0-.55.45-1 1-1s1 .45 1 1z" fill="#4788c7"/><path d="M7.5 21.5v-13h4v-4h17v4h4v13z" fill="#dff0fe"/><path d="M28 5v4h4v12H8V9h4V5h16m1-1H11v4H7v14h26V8h-4z" fill="#4788c7"/><path d="M19 8h2v2h-2zm4 0h2v2h-2zm-8 0h2v2h-2zm-4 4h2v2h-2zm12 0h2v2h-2zm4 0h2v2h-2zm-12 0h2v2h-2zm4 0h2v2h-2z" fill="#4788c7"/><path d="M4.5 37.5V25.871l-2.766-5.016a2.184 2.184 0 0 1 .047-1.996c.34-.632.946-1.05 1.66-1.148L20 15.504l16.559 2.207c.714.098 1.32.516 1.66 1.148.34.637.351 1.371.039 2.02L35.5 25.87V37.5z" fill="#b6dcfe"/><path d="M20 16.008l16.492 2.199a1.692 1.692 0 0 1 1.285.89c.258.485.274 1.048.04 1.544l-2.692 4.875-.125.226V37H5V25.742l-.125-.226-2.68-4.86a1.69 1.69 0 0 1 .028-1.558 1.706 1.706 0 0 1 1.285-.891L20 16.007M20 15L3.375 17.219c-1.836.242-2.89 2.215-2.078 3.879L4 26v12h32V26l2.707-4.902a2.713 2.713 0 0 0-2.082-3.88z" fill="#4788c7"/><path d="M2.223 19.098a1.698 1.698 0 0 0-.028 1.562l2.68 4.856.125.226V37h15V16.008L3.508 18.207a1.699 1.699 0 0 0-1.285.89z" fill="#dff0fe"/><path d="M31 23c0-1.105-.672-2-1.5-2s-1.5.895-1.5 2 .672 2 1.5 2 1.5-.895 1.5-2zm-19 0c0-1.105-.672-2-1.5-2S9 21.895 9 23s.672 2 1.5 2 1.5-.895 1.5-2z" fill="#4788c7"/><path d="M4.5 28.5h31v9h-31z" fill="#98ccfd"/><path d="M35 29v8H5v-8h30m1-1H4v10h32z" fill="#4788c7"/><path d="M5 28h30v10H5z" fill="#98ccfd"/><path d="M5 28h15v10H5z" fill="#b6dcfe"/><path d="M1 39h38v-7.121c-1.309-.266-2.852-.879-4-.879-1.457 0-3.563 1-5 1-1.438 0-3.543-1-5-1-1.457 0-3.563 1-5 1-1.438 0-3.543-1-5-1-1.457 0-3.563 1-5 1-1.438 0-3.543-1-5-1-1.148 0-2.691.613-4 .879z" fill="#b6dcfe"/><path d="M1.5 32.277c.363-.086.738-.191 1.113-.297.848-.234 1.723-.48 2.387-.48.664 0 1.535.246 2.383.484.898.254 1.832.516 2.617.516.785 0 1.719-.262 2.617-.516.848-.238 1.719-.484 2.383-.484.664 0 1.535.246 2.383.484.898.254 1.832.516 2.617.516.785 0 1.719-.262 2.617-.516.848-.238 1.719-.484 2.383-.484.664 0 1.535.246 2.383.484.898.254 1.832.516 2.617.516.785 0 1.719-.262 2.617-.516.848-.238 1.719-.484 2.383-.484.664 0 1.54.246 2.387.48.375.106.75.211 1.113.297" fill="none" stroke-linecap="round" stroke="#4788c7" stroke-miterlimit="10"/></svg>