<svg xmlns="http://www.w3.org/2000/svg" viewBox="0 0 50 50"><path d="M24.875.281a.997.997 0 0 0-.844.719H24v.125a.753.753 0 0 0 0 .188V6h2V2.344a1.015 1.015 0 0 0 0-.156v-.876a.753.753 0 0 0 0-.187V1h-.031a1.001 1.001 0 0 0-1.094-.719zM15.812 7A1 1 0 0 0 15 8v9h2V9h16v8h2V8c0-.55-.45-1-1-1H15.812zM9 18v5.188c0 2.375.738 4.613 2 6.5l-5 3.03V22c0-.55-.45-1-1-1H.812A1 1 0 0 0 0 22v20.094C0 46.437 3.563 50 7.906 50h34.188C46.437 50 50 46.437 50 42.094V22c0-.55-.45-1-1-1h-4c-.55 0-1 .45-1 1v10.719l-5-3.032c1.273-1.914 2-4.167 2-6.5V18zm2 2h28v3.188c0 2.976-1.465 5.914-3.813 7.718l-1.656 1.282a.972.972 0 0 0-.312.25L25 38.75l-8.25-6.344-.031-.031-.094-.063-.031-.03-.063-.063H16.5l-1.688-1.313A9.717 9.717 0 0 1 11 23.188zm-9 3h2v11.156a.992.992 0 0 0 0 .719V41c0 .55.113 1.066.281 1.563a.88.88 0 0 0 .032.093.918.918 0 0 0 .093.282.842.842 0 0 0 .094.187C5.305 44.813 7.016 46 9 46h32c1.969 0 3.656-1.176 4.469-2.844a.933.933 0 0 0 .125-.218c.004-.012.027-.02.031-.032.027-.07.05-.144.063-.218.011-.032.019-.063.03-.094V42.5c.157-.48.282-.973.282-1.5v-6.125a.992.992 0 0 0 0-.719V23h2v19.094A5.912 5.912 0 0 1 42.094 48H7.906A5.912 5.912 0 0 1 2 42.094zm12 0v1.094L18 25v-2zm18 0v2l4-.906V23zm-19.719 8.281c.414.434.832.852 1.313 1.219l.844.656L6 40.531v-5.468zm25.469 0L44 35.063v5.468l-8.438-7.375.844-.656c.48-.371.93-.781 1.344-1.219zm-21.688 3.094l8.344 6.406.594.469.594-.469 8.343-6.406 9.532 8.375A3.025 3.025 0 0 1 41 44H9a3.025 3.025 0 0 1-2.469-1.25z"/></svg>