<svg xmlns="http://www.w3.org/2000/svg" viewBox="0 0 40 40"><path d="M5.695 21.5l1.664-5H4.641l.75-3h2.968l.493-1.473L7.625 6.5h4.082l2.223 4h12.82l8.25 11z" fill="#dff0fe"/><path d="M11.41 7l1.938 3.484.285.516H26.5L34 21H6.387l1.226-3.684L8.055 16H5.28l.5-2h2.942l.226-.684.332-1 .09-.261-.062-.274L8.246 7h3.164M12 6H7l1.332 6L8 13H5l-1 4h2.668L5 22h31l-9-12H14.223z" fill="#4788c7"/><path d="M13.5 14.5h12" fill="none" stroke-linecap="round" stroke="#4788c7" stroke-miterlimit="10"/><path d="M2.5 30.5V25c0-2.566 2.004-4.727 4.563-4.914l31.351-2.535c-1.117 7.168-4.871 12.012-5.644 12.949z" fill="#98ccfd"/><path d="M37.816 18.098C36.672 24.43 33.488 28.8 32.531 30H3v-5c0-2.305 1.8-4.246 4.11-4.418l30.706-2.484M39 17L7.027 19.586A5.428 5.428 0 0 0 2 25v6h31s4.863-5.414 6-14z" fill="#4788c7"/><path d="M30 24c0 .55-.45 1-1 1s-1-.45-1-1 .45-1 1-1 1 .45 1 1zm-4 0c0 .55-.45 1-1 1s-1-.45-1-1 .45-1 1-1 1 .45 1 1zm-4 0c0 .55-.45 1-1 1s-1-.45-1-1 .45-1 1-1 1 .45 1 1zm-4 0c0 .55-.45 1-1 1s-1-.45-1-1 .45-1 1-1 1 .45 1 1zm-4 0c0 .55-.45 1-1 1s-1-.45-1-1 .45-1 1-1 1 .45 1 1z" fill="#4788c7"/><path d="M1 39h38V28.879c-1.309-.266-2.852-.879-4-.879-1.457 0-3.563 1-5 1-1.438 0-3.543-1-5-1-1.457 0-3.563 1-5 1-1.438 0-3.543-1-5-1-1.457 0-3.563 1-5 1-1.438 0-3.543-1-5-1-1.148 0-2.691.613-4 .879z" fill="#b6dcfe"/><path d="M1.5 29.277c.363-.086.738-.191 1.113-.297.848-.234 1.723-.48 2.387-.48.664 0 1.535.246 2.383.484.898.254 1.832.516 2.617.516.785 0 1.719-.262 2.617-.516.848-.238 1.719-.484 2.383-.484.664 0 1.535.246 2.383.484.898.254 1.832.516 2.617.516.785 0 1.719-.262 2.617-.516.848-.238 1.719-.484 2.383-.484.664 0 1.535.246 2.383.484.898.254 1.832.516 2.617.516.785 0 1.719-.262 2.617-.516.848-.238 1.719-.484 2.383-.484.664 0 1.54.246 2.387.48.375.106.75.211 1.113.297" fill="none" stroke-linecap="round" stroke="#4788c7" stroke-miterlimit="10"/></svg>