<svg xmlns="http://www.w3.org/2000/svg" viewBox="0 0 80 80"><path d="M16.297 17l7.172 12.816-5.73 14.989-5.579 1.37-3.254 14.278a.994.994 0 0 0 .102.738c.09.477.508.817.992.809 1.332 0 2.45-.605 3.45-1.105S15.331 60 16 60c.668 0 1.55.395 2.55.895 1 .5 2.118 1.105 3.45 1.105 1.332 0 2.45-.605 3.45-1.105S27.331 60 28 60c.668 0 1.55.395 2.55.895 1 .5 2.118 1.105 3.45 1.105 1.332 0 2.45-.605 3.45-1.105S39.331 60 40 60c.668 0 1.55.395 2.55.895 1 .5 2.118 1.105 3.45 1.105 1.332 0 2.45-.605 3.45-1.105S51.331 60 52 60c.668 0 1.55.395 2.55.895 1 .5 2.118 1.105 3.45 1.105 1.332 0 2.45-.605 3.45-1.105S63.331 60 64 60c.668 0 1.55.395 2.55.895 1 .5 2.118 1.105 3.45 1.105.36.004.695-.184.879-.496a1.01 1.01 0 0 0 0-1.008c-.184-.312-.52-.5-.879-.496-.668 0-1.55-.395-2.55-.895-.766-.382-1.598-.824-2.54-1.011C68.016 54.707 75 45.605 75 32v-1.277L67.77 32.5a1.046 1.046 0 0 0-.239-.168l-20.36-10.367-14.034 2.004L22.184 17zm3.41 2h1.895l8.492 5.406-.739.106a6.99 6.99 0 0 0-4.84 3.078zm27.121 5.035L64.86 33.22 20.098 44.223l5.32-13.899a.993.993 0 0 0 .16-.426l.094-.242a5.004 5.004 0 0 1 3.965-3.168zm4.543 4.414l-.351.016-.098.02-.692.574.043.894.743.5.355-.015.098-.024.687-.57-.043-.895zm-3.996.914l-.352.016-.097.027-.692.567.043.898.743.5.355-.016.094-.027.691-.566-.043-.899zm-3.996.918l-.352.016-.097.023-.692.57.043.895.746.5.348-.015.098-.024.695-.57-.047-.895zm-3.996.918l-.352.016-.097.02-.692.574.043.894.746.5.348-.016.101-.023.692-.57-.047-.895zm-3.996.914l-.352.016-.097.027-.692.567.043.898.742.5.356-.016.097-.027.688-.566-.043-.899zm-3.996.918l-.352.016-.098.023-.691.57.043.895.742.5.356-.015.093-.024.692-.57-.043-.895zm41.504.27c-.57 15.738-10.801 24.824-10.801 24.824a.93.93 0 0 0-.297.395c-.434.187-.852.39-1.246.585-1 .5-1.883.895-2.551.895-.668 0-1.55-.395-2.55-.895-1-.5-2.118-1.105-3.45-1.105-1.332 0-2.45.605-3.45 1.105S46.669 60 46 60c-.668 0-1.55-.395-2.55-.895-1-.5-2.118-1.105-3.45-1.105-1.332 0-2.45.605-3.45 1.105S34.669 60 34 60c-.668 0-1.55-.395-2.55-.895-1-.5-2.118-1.105-3.45-1.105-1.332 0-2.45.605-3.45 1.105S22.669 60 22 60c-.668 0-1.55-.395-2.55-.895-1-.5-2.118-1.105-3.45-1.105-1.332 0-2.45.605-3.45 1.105a14.02 14.02 0 0 1-1.433.645l2.723-11.926zm-45.5.648l-.352.016-.098.02-.691.574.043.894.742.5.352-.016.097-.023.692-.57-.043-.895zm42.02 4.75l-.353.02-.097.023-.684.578.051.895.75.492.352-.02.097-.023.688-.582-.059-.89zm-3.99.961l-.347.024-.098.02-.683.577.05.895.75.496.352-.024.098-.023.683-.578-.054-.895zm-3.984.961l-.347.02-.098.027-.687.578.054.895.746.488.356-.02.097-.023.684-.578-.055-.895zm-3.984.961l-.352.023-.097.02-.684.578.051.895.75.496.355-.02.094-.027.688-.578-.059-.89zm-3.984.965l-.352.02-.098.023-.683.578.05.895.75.492.352-.024.098-.02.683-.577-.054-.899zm-3.989.957l-.347.023-.102.024-.68.578.051.894.75.493.348-.02.101-.023.684-.578-.055-.895zm-3.984.965l-.352.02-.097.027-.684.578.055.89.75.496.348-.023.097-.023.684-.579-.051-.894zm-3.984.96l-.352.024-.098.02-.687.578.059.898.746.489.351-.016.098-.027.683-.579-.05-.894zm-3.985.962l-.355.023-.098.023-.683.579.054.894.75.492.348-.023.098-.02.687-.578-.055-.894zm-3.988.964l-.352.02-.097.023-.684.579.055.894.75.492.347-.02.098-.027.684-.578-.051-.894zm-3.984.961l-.352.02-.098.023-.687.578.058.895.747.496.351-.023.098-.024.683-.578-.05-.894zm-3.985.961l-.355.02-.094.027-.688.578.055.895.746.488.356-.02.093-.023.688-.578-.055-.894zm-3.984.961l-.356.024-.093.02-.688.577.055.895.746.496.355-.02.094-.027.688-.578-.055-.89zm-3.988.965l-.352.02-.098.023-.683.578.05.895.75.492.352-.023.098-.02.687-.578-.058-.899zM6 60c-.55 0-1 .45-1 1s.45 1 1 1 1-.45 1-1-.45-1-1-1zm68 0c-.55 0-1 .45-1 1s.45 1 1 1 1-.45 1-1-.45-1-1-1z"/></svg>