<?xml version="1.0" encoding="utf-8"?>
<!-- Generator: Adobe Illustrator 22.0.1, SVG Export Plug-In . SVG Version: 6.00 Build 0)  -->
<svg version="1.1" xmlns="http://www.w3.org/2000/svg" xmlns:xlink="http://www.w3.org/1999/xlink" x="0px" y="0px"
	 viewBox="0 0 143.211 140.448" enable-background="new 0 0 143.211 140.448" xml:space="preserve">
<g id="Background">
</g>
<g id="Objects">
	<g>
		<polygon fill="#E53176" points="72.161,142.001 63.785,134.54 53.769,139.597 47.615,130.217 36.629,132.491 33.122,121.834 
			21.921,121.191 21.279,109.99 10.622,106.483 12.896,95.498 3.516,89.343 8.573,79.328 1.112,70.951 8.573,62.574 3.516,52.559 
			12.896,46.405 10.622,35.419 21.279,31.912 21.922,20.711 33.123,20.069 36.63,9.412 47.615,11.686 53.77,2.306 63.785,7.363 
			72.161,-0.098 80.538,7.363 90.553,2.306 96.708,11.686 107.694,9.412 111.201,20.069 122.402,20.712 123.044,31.913 
			133.701,35.419 131.427,46.405 140.807,52.56 135.75,62.574 143.211,70.951 135.75,79.328 140.807,89.343 131.427,95.498 
			133.701,106.484 123.044,109.991 122.401,121.192 111.2,121.834 107.693,132.491 96.708,130.217 90.553,139.597 80.538,134.54 		
			"/>
		<g>
			<path fill="#FFFFFF" d="M86.732,107.669c-1.875-10.661-6.113-17.466-14.571-17.466s-12.695,6.805-14.57,17.466
				c-0.156,0.888-0.185,1.755-0.107,2.597c1.227,13.238,28.129,13.238,29.355,0C86.917,109.424,86.888,108.558,86.732,107.669z"/>
			<path fill="#FFFFFF" d="M64.757,96.998c-0.02-1.451-0.978-3.743-1.844-4.74c-1.898-2.185-4.605-2.629-7.376-2.42
				c-2.34,0.177-6.287,2.113-6.863-1.666c-0.79-5.185,8.236-8.551,11.878-6.09c2.325,1.571,5.081,5.198,5.447,12.434
				C66.104,96.593,64.757,94.91,64.757,96.998z"/>
			<path fill="#FFB6F0" d="M66.198,105.312c0,0.815-1.331,1.476-2.974,1.476c-1.642,0-2.974-0.661-2.974-1.476
				s1.331-1.476,2.974-1.476C64.866,103.836,66.198,104.497,66.198,105.312z"/>
			<path fill="#21184F" d="M64.104,102.159c-0.041,0-0.083-0.007-0.124-0.02c-0.205-0.068-0.316-0.29-0.248-0.496
				c0.476-1.428,1.407-2.242,2.541-2.224c1.163,0.015,2.214,0.913,2.616,2.234c0.063,0.207-0.054,0.426-0.261,0.489
				c-0.206,0.063-0.426-0.054-0.489-0.261c-0.297-0.977-1.069-1.668-1.876-1.678c-0.006,0-0.013,0-0.019,0
				c-0.766,0-1.41,0.614-1.768,1.688C64.421,102.056,64.268,102.159,64.104,102.159z"/>
			<path fill="#21184F" d="M72.162,111.469c-0.217,0-0.392-0.175-0.392-0.392v-3.234c0-0.217,0.175-0.392,0.392-0.392
				c0.217,0,0.392,0.175,0.392,0.392v3.234C72.554,111.294,72.378,111.469,72.162,111.469z"/>
			<path fill="#FFFFFF" d="M79.566,96.998c0.02-1.451,0.978-3.743,1.844-4.74c1.898-2.185,4.605-2.629,7.376-2.42
				c2.34,0.177,6.287,2.113,6.863-1.666c0.79-5.185-8.236-8.551-11.878-6.09c-2.325,1.571-5.081,5.198-5.448,12.434
				C78.219,96.593,79.566,94.91,79.566,96.998z"/>
			<path fill="#E53176" d="M72.161,103.531c-3.844,0-4.094,2.94,0,4.312C76.256,106.471,76.005,103.531,72.161,103.531z"/>
			<path fill="#FFB6F0" d="M78.125,105.312c0,0.815,1.331,1.476,2.974,1.476c1.642,0,2.974-0.661,2.974-1.476
				s-1.331-1.476-2.974-1.476C79.457,103.836,78.125,104.497,78.125,105.312z"/>
			<path fill="#21184F" d="M80.219,102.159c-0.164,0-0.317-0.104-0.372-0.268c-0.358-1.074-1.002-1.688-1.768-1.688
				c-0.006,0-0.013,0-0.019,0c-0.807,0.011-1.579,0.701-1.876,1.678c-0.063,0.207-0.28,0.325-0.489,0.261
				c-0.207-0.063-0.324-0.282-0.261-0.489c0.402-1.321,1.454-2.219,2.616-2.234c1.13-0.014,2.064,0.796,2.541,2.224
				c0.068,0.206-0.043,0.428-0.248,0.496C80.302,102.153,80.26,102.159,80.219,102.159z"/>
			<path fill="#21184F" d="M72.161,109.003c-1.851,0-5.575-0.261-5.575-0.261s0.653,5.749,5.575,5.749s5.575-5.749,5.575-5.749
				S74.012,109.003,72.161,109.003z"/>
			<path fill="#E53176" d="M72.162,111.29c-1.71,0-2.904,0.695-3.735,1.601c0.831,0.906,2.025,1.601,3.735,1.601
				c1.71,0,2.904-0.695,3.735-1.601C75.066,111.984,73.872,111.29,72.162,111.29z"/>
			<path fill="#FFFBF6" d="M71.781,112.252h-1.249c-0.156,0-0.282-0.126-0.282-0.282v-3.105h1.813v3.105
				C72.064,112.125,71.937,112.252,71.781,112.252z"/>
			<path fill="#FFFBF6" d="M73.79,112.252h-1.249c-0.156,0-0.282-0.126-0.282-0.282v-3.105h1.813v3.105
				C74.072,112.125,73.946,112.252,73.79,112.252z"/>
			<path fill="#21184F" d="M72.162,109.395c-1.843,0-5.45-0.251-5.602-0.262c-0.216-0.015-0.379-0.202-0.363-0.418
				c0.015-0.216,0.2-0.38,0.418-0.363c0.037,0.002,3.731,0.26,5.547,0.26c1.816,0,5.51-0.258,5.547-0.26
				c0.218-0.017,0.403,0.147,0.418,0.363c0.015,0.216-0.147,0.403-0.363,0.418C77.611,109.143,74.005,109.395,72.162,109.395z"/>
		</g>
		<g>
			<g>
				<g>
					<g>
						<path fill="#FFB6F0" d="M26.505,76.621c1.245,1.875,3.116,2.126,5.83,2.259c3.134,0.132,2.978,2.153,3.015,3.916
							c0.075,1.791,6.227-0.775,6.466,3.021c0.284,3.321-1.006,5.42,2.248,5.346c3.255-0.108,3.397,2.225,3.052,6.124
							c-0.36,4.031,1.296,6.565,1.288,6.553c-0.008,0.002-3.39-0.874-7.233-0.817c-3.907,0.074-6.515-0.136-6.789-4.097
							c-0.178-3.595-3.819-2.364-5.848-4.16c-2.361-2.154,1.644-6.143-0.874-7.212c-3.581-1.628-2.517-3.114-1.497-6.366
							C26.845,79.011,26.5,76.625,26.505,76.621z"/>
						<path fill="#E53176" d="M48.38,104.222c-1.077-0.621-13.265-9.14-20.195-23.302c-0.093-0.189-0.014-0.418,0.175-0.511
							c0.19-0.093,0.419-0.014,0.512,0.175c6.889,14.078,19.588,22.848,19.706,22.917l0.283,0.207
							c0.148,0.108,0.185,0.313,0.084,0.466l0,0c-0.101,0.155-0.307,0.202-0.465,0.106L48.38,104.222z"/>
						<path fill="#E53176" d="M31.615,86.209l-0.422-0.171c-1.237-0.5-2.476-1.036-3.684-1.596
							c-0.192-0.089-0.287-0.324-0.186-0.508c0.088-0.192,0.316-0.275,0.507-0.186c1.06,0.491,2.144,0.964,3.229,1.41
							c0.285-1.303,0.605-2.616,0.954-3.91c0.054-0.201,0.264-0.325,0.469-0.27c0.204,0.055,0.325,0.265,0.27,0.469
							c-0.385,1.429-0.735,2.881-1.041,4.316L31.615,86.209z"/>
						<path fill="#E53176" d="M34.444,90.259l-0.383-0.099c-1.09-0.281-2.189-0.588-3.266-0.911
							c-0.202-0.061-0.317-0.274-0.256-0.476c0.06-0.202,0.274-0.317,0.476-0.256c0.943,0.283,1.901,0.553,2.856,0.804
							c0.287-1.257,0.604-2.52,0.946-3.758c0.059-0.204,0.267-0.323,0.47-0.267c0.204,0.056,0.323,0.267,0.267,0.47
							c-0.373,1.353-0.717,2.736-1.023,4.108L34.444,90.259z"/>
						<path fill="#E53176" d="M37.663,94.184l-0.367-0.058c-2.109-0.331-4.232-0.743-6.312-1.227
							c-0.206-0.048-0.334-0.253-0.286-0.459c0.048-0.204,0.253-0.334,0.459-0.286c1.942,0.451,3.922,0.84,5.892,1.158
							c0.387-2.025,0.851-4.054,1.381-6.035c0.054-0.206,0.264-0.325,0.468-0.271c0.204,0.055,0.325,0.264,0.27,0.468
							c-0.557,2.082-1.04,4.217-1.437,6.344L37.663,94.184z"/>
						<path fill="#E53176" d="M40.491,97.16l-0.328-0.006c-1.223-0.022-2.46-0.067-3.677-0.136c-0.211-0.012-0.372-0.192-0.36-0.403
							c0.013-0.21,0.192-0.372,0.403-0.36c1.098,0.062,2.213,0.105,3.319,0.129c0.202-1.161,0.428-2.317,0.672-3.442
							c0.046-0.208,0.248-0.337,0.455-0.293c0.206,0.045,0.337,0.249,0.293,0.455c-0.265,1.219-0.507,2.475-0.721,3.733
							L40.491,97.16z"/>
						<path fill="#E53176" d="M43.935,100.377l-0.328,0.006c-2.182,0.041-4.394,0.008-6.575-0.098
							c-0.211-0.01-0.374-0.189-0.363-0.401c0.008-0.211,0.189-0.374,0.4-0.363c2.055,0.1,4.138,0.135,6.196,0.103
							c0.273-1.979,0.62-3.967,1.031-5.914c0.042-0.207,0.247-0.339,0.453-0.295c0.207,0.044,0.338,0.246,0.295,0.453
							c-0.43,2.035-0.788,4.116-1.066,6.184L43.935,100.377z"/>
					</g>
				</g>
			</g>
			<g>
				<g>
					<g>
						<path fill="#FFB6F0" d="M117.818,76.621c-1.245,1.875-3.116,2.126-5.83,2.259c-3.134,0.132-2.978,2.153-3.015,3.916
							c-0.075,1.791-6.227-0.775-6.466,3.021c-0.284,3.321,1.006,5.42-2.248,5.346c-3.255-0.108-3.397,2.225-3.051,6.124
							c0.36,4.031-1.297,6.565-1.288,6.553c0.008,0.002,3.39-0.874,7.233-0.817c3.907,0.074,6.515-0.136,6.789-4.097
							c0.177-3.595,3.819-2.364,5.848-4.16c2.361-2.154-1.644-6.143,0.874-7.212c3.581-1.628,2.517-3.114,1.497-6.366
							C117.478,79.011,117.823,76.625,117.818,76.621z"/>
						<path fill="#E53176" d="M95.942,104.222c1.077-0.621,13.265-9.14,20.195-23.302c0.093-0.189,0.015-0.418-0.175-0.511
							c-0.19-0.093-0.419-0.014-0.512,0.175c-6.889,14.078-19.588,22.848-19.706,22.917l-0.282,0.207
							c-0.148,0.108-0.185,0.313-0.084,0.466l0,0c0.101,0.155,0.307,0.202,0.465,0.106L95.942,104.222z"/>
						<path fill="#E53176" d="M112.708,86.209l0.423-0.171c1.237-0.5,2.476-1.036,3.685-1.596c0.192-0.089,0.287-0.324,0.186-0.508
							c-0.088-0.192-0.316-0.275-0.508-0.186c-1.06,0.491-2.144,0.964-3.229,1.41c-0.285-1.303-0.605-2.616-0.954-3.91
							c-0.054-0.201-0.265-0.325-0.469-0.27c-0.204,0.055-0.325,0.265-0.27,0.469c0.385,1.429,0.735,2.881,1.041,4.316
							L112.708,86.209z"/>
						<path fill="#E53176" d="M109.879,90.259l0.383-0.099c1.09-0.281,2.189-0.588,3.266-0.911c0.202-0.061,0.317-0.274,0.256-0.476
							c-0.06-0.202-0.274-0.317-0.476-0.256c-0.943,0.283-1.901,0.553-2.856,0.804c-0.287-1.257-0.604-2.52-0.946-3.758
							c-0.059-0.204-0.267-0.323-0.47-0.267c-0.204,0.056-0.323,0.267-0.267,0.47c0.373,1.353,0.717,2.736,1.023,4.108
							L109.879,90.259z"/>
						<path fill="#E53176" d="M106.66,94.184l0.367-0.058c2.109-0.331,4.232-0.743,6.312-1.227c0.206-0.048,0.334-0.253,0.286-0.459
							c-0.048-0.204-0.253-0.334-0.459-0.286c-1.942,0.451-3.922,0.84-5.891,1.158c-0.387-2.025-0.851-4.054-1.381-6.035
							c-0.054-0.206-0.264-0.325-0.468-0.271c-0.204,0.055-0.325,0.264-0.27,0.468c0.557,2.082,1.04,4.217,1.437,6.344
							L106.66,94.184z"/>
						<path fill="#E53176" d="M103.832,97.16l0.328-0.006c1.223-0.022,2.46-0.067,3.677-0.136c0.211-0.012,0.372-0.192,0.36-0.403
							c-0.013-0.21-0.192-0.372-0.403-0.36c-1.098,0.062-2.213,0.105-3.319,0.129c-0.202-1.161-0.428-2.317-0.672-3.442
							c-0.046-0.208-0.248-0.337-0.455-0.293c-0.206,0.045-0.337,0.249-0.293,0.455c0.265,1.219,0.507,2.475,0.721,3.733
							L103.832,97.16z"/>
						<path fill="#E53176" d="M100.388,100.377l0.328,0.006c2.182,0.041,4.394,0.008,6.575-0.098
							c0.211-0.01,0.374-0.189,0.364-0.401c-0.008-0.211-0.189-0.374-0.4-0.363c-2.055,0.1-4.138,0.135-6.197,0.103
							c-0.273-1.979-0.62-3.967-1.031-5.914c-0.042-0.207-0.247-0.339-0.453-0.295c-0.207,0.044-0.338,0.246-0.295,0.453
							c0.43,2.035,0.788,4.116,1.066,6.184L100.388,100.377z"/>
					</g>
				</g>
			</g>
		</g>
		<g>
			<text transform="matrix(1 0 0 1 34.9838 60.7358)" fill="#FFFFFF" font-family="'Nickainley-Normal'" font-size="34.4082px">Easter</text>
			
				<text transform="matrix(1 0 0 1 55.6586 36.0971)" fill="#21184F" font-family="'Quicksand-Bold'" font-size="9.7332px" letter-spacing="1">HAPPY</text>
			
				<text transform="matrix(1 0 0 1 61.4682 74.8764)" fill="#FFFFFF" stroke="#FFFFFF" stroke-width="0.5" stroke-miterlimit="10" font-family="'Nickainley-Normal'" font-size="16.9552px">day</text>
		</g>
		<g>
			
				<rect x="70.995" y="11.888" transform="matrix(0.7072 -0.707 0.707 0.7072 11.8995 54.8422)" fill="#21184F" width="2.334" height="2.334"/>
			
				<rect x="64.943" y="12.205" transform="matrix(0.6294 -0.7771 0.7771 0.6294 14.1086 56.3274)" fill="#21184F" width="2.334" height="2.334"/>
			
				<rect x="58.957" y="13.153" transform="matrix(0.5447 -0.8387 0.8387 0.5447 15.3679 56.9442)" fill="#21184F" width="2.333" height="2.334"/>
			
				<rect x="53.104" y="14.721" transform="matrix(0.4541 -0.8909 0.8909 0.4541 15.4686 57.0238)" fill="#21184F" width="2.334" height="2.333"/>
			
				<rect x="47.446" y="16.893" transform="matrix(0.3582 -0.9336 0.9336 0.3582 14.3369 56.977)" fill="#21184F" width="2.334" height="2.333"/>
			
				<rect x="42.046" y="19.644" transform="matrix(0.2587 -0.966 0.966 0.2587 11.9299 57.1684)" fill="#21184F" width="2.334" height="2.334"/>
			
				<rect x="36.964" y="22.945" transform="matrix(0.1566 -0.9877 0.9877 0.1566 8.3436 57.9951)" fill="#21184F" width="2.334" height="2.334"/>
			
				<rect x="32.254" y="26.759" transform="matrix(0.0524 -0.9986 0.9986 0.0524 3.7809 59.8361)" fill="#21184F" width="2.334" height="2.334"/>
			
				<rect x="27.969" y="31.044" transform="matrix(0.9986 -0.0523 0.0523 0.9986 -1.6443 1.5675)" fill="#21184F" width="2.334" height="2.333"/>
			
				<rect x="24.155" y="35.754" transform="matrix(0.9877 -0.1566 0.1566 0.9877 -5.4701 4.4217)" fill="#21184F" width="2.333" height="2.334"/>
			
				<rect x="20.855" y="40.836" transform="matrix(0.9659 -0.2588 0.2588 0.9659 -10.1188 7.1289)" fill="#21184F" width="2.333" height="2.334"/>
			
				<rect x="18.103" y="46.236" transform="matrix(0.9337 -0.3582 0.3582 0.9337 -15.6996 10.0467)" fill="#21184F" width="2.333" height="2.334"/>
			
				<rect x="15.932" y="51.894" transform="matrix(0.8909 -0.4541 0.4541 0.8909 -22.232 13.5524)" fill="#21184F" width="2.333" height="2.334"/>
			
				<rect x="14.363" y="57.747" transform="matrix(0.8387 -0.5446 0.5446 0.8387 -29.5802 17.9613)" fill="#21184F" width="2.334" height="2.334"/>
			
				<rect x="13.415" y="63.733" transform="matrix(0.7771 -0.6294 0.6294 0.7771 -37.5979 23.6461)" fill="#21184F" width="2.334" height="2.334"/>
			
				<rect x="13.098" y="69.785" transform="matrix(0.7071 -0.7071 0.7071 0.7071 -45.991 30.866)" fill="#21184F" width="2.334" height="2.334"/>
			
				<rect x="13.415" y="75.836" transform="matrix(0.6294 -0.7771 0.7771 0.6294 -54.4339 39.869)" fill="#21184F" width="2.334" height="2.334"/>
			
				<rect x="14.363" y="81.822" transform="matrix(0.5446 -0.8387 0.8387 0.5446 -62.5303 50.8185)" fill="#21184F" width="2.334" height="2.334"/>
			
				<rect x="15.932" y="87.676" transform="matrix(0.4541 -0.8909 0.8909 0.4541 -69.819 63.728)" fill="#21184F" width="2.334" height="2.333"/>
			
				<rect x="18.103" y="93.334" transform="matrix(0.3582 -0.9336 0.9336 0.3582 -75.8622 78.6413)" fill="#21184F" width="2.334" height="2.333"/>
			
				<rect x="20.854" y="98.733" transform="matrix(0.2588 -0.9659 0.9659 0.2588 -80.1744 95.3207)" fill="#21184F" width="2.334" height="2.333"/>
			
				<rect x="24.155" y="103.816" transform="matrix(0.1563 -0.9877 0.9877 0.1563 -82.3283 113.5815)" fill="#21184F" width="2.334" height="2.333"/>
			
				<rect x="27.969" y="108.525" transform="matrix(0.0523 -0.9986 0.9986 0.0523 -81.9295 133.0539)" fill="#21184F" width="2.333" height="2.334"/>
			
				<rect x="32.254" y="112.81" transform="matrix(0.9986 -0.0523 0.0523 0.9986 -5.9128 1.903)" fill="#21184F" width="2.334" height="2.334"/>
			
				<rect x="36.964" y="116.624" transform="matrix(0.9877 -0.1566 0.1566 0.9877 -17.9784 7.4259)" fill="#21184F" width="2.334" height="2.334"/>
			
				<rect x="42.046" y="119.925" transform="matrix(0.9659 -0.2588 0.2588 0.9659 -29.868 15.3102)" fill="#21184F" width="2.334" height="2.334"/>
			
				<rect x="47.446" y="122.676" transform="matrix(0.9336 -0.3582 0.3582 0.9336 -41.1358 25.6316)" fill="#21184F" width="2.333" height="2.334"/>
			
				<rect x="53.104" y="124.848" transform="matrix(0.8909 -0.4541 0.4541 0.8909 -51.3092 38.391)" fill="#21184F" width="2.333" height="2.334"/>
			
				<rect x="58.957" y="126.416" transform="matrix(0.8388 -0.5445 0.5445 0.8388 -59.7712 53.3033)" fill="#21184F" width="2.334" height="2.333"/>
			
				<rect x="64.943" y="127.364" transform="matrix(0.7771 -0.6294 0.6294 0.7771 -66.1614 70.2636)" fill="#21184F" width="2.334" height="2.334"/>
			
				<rect x="70.995" y="127.681" transform="matrix(0.7072 -0.707 0.707 0.7072 -69.9702 88.7517)" fill="#21184F" width="2.334" height="2.334"/>
			
				<rect x="77.046" y="127.364" transform="matrix(0.6294 -0.7771 0.7771 0.6294 -70.8931 108.4092)" fill="#21184F" width="2.334" height="2.334"/>
			
				<rect x="83.032" y="126.416" transform="matrix(0.5446 -0.8387 0.8387 0.5446 -68.6593 128.7161)" fill="#21184F" width="2.334" height="2.334"/>
			
				<rect x="88.886" y="124.848" transform="matrix(0.4541 -0.8909 0.8909 0.4541 -63.1142 149.0166)" fill="#21184F" width="2.334" height="2.333"/>
			
				<rect x="94.543" y="122.676" transform="matrix(0.3582 -0.9336 0.9336 0.3582 -54.2008 168.8343)" fill="#21184F" width="2.334" height="2.334"/>
			
				<rect x="99.943" y="119.925" transform="matrix(0.2588 -0.9659 0.9659 0.2588 -42.0233 187.4186)" fill="#21184F" width="2.334" height="2.333"/>
			
				<rect x="105.026" y="116.624" transform="matrix(0.1564 -0.9877 0.9877 0.1564 -26.7552 204.2574)" fill="#21184F" width="2.334" height="2.333"/>
			
				<rect x="109.735" y="112.81" transform="matrix(0.0524 -0.9986 0.9986 0.0524 -8.7342 218.7493)" fill="#21184F" width="2.334" height="2.334"/>
			
				<rect x="114.02" y="108.525" transform="matrix(0.9986 -0.0523 0.0523 0.9986 -5.5779 6.1728)" fill="#21184F" width="2.334" height="2.333"/>
			
				<rect x="117.834" y="103.816" transform="matrix(0.9877 -0.1566 0.1566 0.9877 -14.9736 19.9333)" fill="#21184F" width="2.334" height="2.334"/>
			
				<rect x="121.135" y="98.733" transform="matrix(0.9659 -0.2587 0.2587 0.9659 -21.683 35.0454)" fill="#21184F" width="2.334" height="2.334"/>
			
				<rect x="123.886" y="93.334" transform="matrix(0.9336 -0.3582 0.3582 0.9336 -25.5543 51.0721)" fill="#21184F" width="2.333" height="2.334"/>
			
				<rect x="126.058" y="87.676" transform="matrix(0.8909 -0.4541 0.4541 0.8909 -26.4706 67.4682)" fill="#21184F" width="2.333" height="2.334"/>
			
				<rect x="127.626" y="81.822" transform="matrix(0.8387 -0.5446 0.5446 0.8387 -24.4208 83.5261)" fill="#21184F" width="2.334" height="2.334"/>
			
				<rect x="128.574" y="75.836" transform="matrix(0.7771 -0.6294 0.6294 0.7771 -19.5444 98.8229)" fill="#21184F" width="2.334" height="2.334"/>
			
				<rect x="128.892" y="69.785" transform="matrix(0.7072 -0.707 0.707 0.7072 -12.0809 112.7334)" fill="#21184F" width="2.334" height="2.334"/>
			
				<rect x="128.574" y="63.733" transform="matrix(0.6294 -0.7771 0.7771 0.6294 -2.3512 124.869)" fill="#21184F" width="2.334" height="2.334"/>
			
				<rect x="127.626" y="57.747" transform="matrix(0.5446 -0.8387 0.8387 0.5446 9.2429 134.8502)" fill="#21184F" width="2.334" height="2.334"/>
			
				<rect x="126.058" y="51.894" transform="matrix(0.4541 -0.8909 0.8909 0.4541 22.1736 142.3116)" fill="#21184F" width="2.334" height="2.333"/>
			
				<rect x="123.886" y="46.236" transform="matrix(0.3582 -0.9336 0.9336 0.3582 35.9968 147.1736)" fill="#21184F" width="2.334" height="2.333"/>
			
				<rect x="121.135" y="40.836" transform="matrix(0.2588 -0.9659 0.9659 0.2588 50.0782 149.2677)" fill="#21184F" width="2.334" height="2.334"/>
			
				<rect x="117.834" y="35.754" transform="matrix(0.1566 -0.9877 0.9877 0.1566 63.8977 148.67)" fill="#21184F" width="2.334" height="2.334"/>
			
				<rect x="114.021" y="31.044" transform="matrix(0.0523 -0.9986 0.9986 0.0523 76.9995 145.5571)" fill="#21184F" width="2.333" height="2.334"/>
			
				<rect x="109.735" y="26.759" transform="matrix(0.9986 -0.0523 0.0523 0.9986 -1.3082 5.8359)" fill="#21184F" width="2.334" height="2.334"/>
			
				<rect x="105.026" y="22.945" transform="matrix(0.9877 -0.1566 0.1566 0.9877 -2.4656 16.9254)" fill="#21184F" width="2.333" height="2.334"/>
			
				<rect x="99.943" y="19.644" transform="matrix(0.9659 -0.2588 0.2588 0.9659 -1.9415 26.8724)" fill="#21184F" width="2.333" height="2.334"/>
			
				<rect x="94.543" y="16.893" transform="matrix(0.9335 -0.3585 0.3585 0.9335 -0.1129 35.511)" fill="#21184F" width="2.334" height="2.334"/>
			
				<rect x="88.886" y="14.721" transform="matrix(0.8909 -0.4541 0.4541 0.8909 2.6066 42.6296)" fill="#21184F" width="2.333" height="2.334"/>
			
				<rect x="83.032" y="13.153" transform="matrix(0.8387 -0.5446 0.5446 0.8387 5.7828 48.1639)" fill="#21184F" width="2.334" height="2.334"/>
			
				<rect x="77.046" y="12.205" transform="matrix(0.7771 -0.6294 0.6294 0.7771 9.0196 52.2093)" fill="#21184F" width="2.334" height="2.334"/>
		</g>
	</g>
</g>
<g id="Designed_by_Freepik">
</g>
</svg>
