<svg viewBox="0 0 64 64" xmlns="http://www.w3.org/2000/svg" fill-rule="evenodd" clip-rule="evenodd" stroke-linejoin="round" stroke-miterlimit="1.41"><path d="M56.26 21.36C56.26 15.1 51.16 10 44.9 10H18.83c-6.27 0-11.37 5.1-11.37 11.36v22.72c0 6.28 5.1 11.37 11.37 11.37H44.9c6.27 0 11.36-5.1 11.36-11.37V21.36z" fill="#7b20ca"/><clipPath id="a"><path d="M56.26 21.36C56.26 15.1 51.16 10 44.9 10H18.83c-6.27 0-11.37 5.1-11.37 11.36v22.72c0 6.28 5.1 11.37 11.37 11.37H44.9c6.27 0 11.36-5.1 11.36-11.37V21.36z"/></clipPath><g clip-path="url(#a)"><path d="M57.17 19.91c0-6.27-5.09-11.36-11.36-11.36H19.74c-6.27 0-11.36 5.1-11.36 11.36v22.72C8.38 48.91 13.47 54 19.74 54H45.8c6.27 0 11.36-5.1 11.36-11.37V19.91z" fill="#a256e4"/></g><path d="M40.02 40.71a6.55 6.55 0 0 1 .33 1.86 5.49 5.49 0 0 1-1.43 3.8 7.16 7.16 0 0 1-2.04 1.64 8.5 8.5 0 0 1-1.73.75l-.1.04a12.97 12.97 0 0 1-1 .24l-.33.06c-.35.06-.7.1-1.04.13l-.39.02a10.6 10.6 0 0 1-1.65-.08 8.27 8.27 0 0 1-1.8-.5 6.2 6.2 0 0 1-2.03-1.4 5.6 5.6 0 0 1-.96-1.48l-.02-.04.07-.22.22.06.11.15.11.14a5.75 5.75 0 0 0 1.15 1.05 5.3 5.3 0 0 0 2.78.9 8.28 8.28 0 0 0 1.9-.07l.42-.06c.27-.05.55-.1.82-.17l.2-.04.4-.1.31-.09.25-.07.27-.08.3-.1.35-.13.28-.1.18-.08a9.17 9.17 0 0 0 1.62-.9 6.18 6.18 0 0 0 1.4-1.44 4.53 4.53 0 0 0 .72-1.87 5.43 5.43 0 0 0 0-1.7v-.04l.13-.2.2.12zM24.66 20.16l.25.57v.01l-.25.58-.57.24h-4.35l-.58-.24-.24-.58.24-.58.58-.24h4.35l.57.24zm19.7-4.03l.43.44v.63l-.45.44-4.03 1.62h-.63l-.43-.45v-.63l.45-.44 4.03-1.62h.63z" fill="#2e0d19" fill-rule="nonzero"/><path d="M31.86 25.84c.61-.02 3.75-.16 6.37-1.33 2.91-1.3 8.78-1.99 16.4-1.06l2.3.06.07 3.61s-1.16.25-1.3 1.93a63.4 63.4 0 0 1-1.26 6.72c-.8 3.37-4.61 4.17-5.3 4.36-.92.24-6.35 1.07-10.16-.95-3.8-2.03-5.21-7.83-5.21-7.83s-.15-1.22-.55-1.58c-.38-.34-.48-.64-1.36-.75-.88.1-.98.4-1.35.75-.4.36-.55 1.58-.55 1.58s-1.4 5.8-5.22 7.83c-3.8 2.02-9.24 1.2-10.15.95-.7-.19-4.5-.99-5.31-4.36a63.66 63.66 0 0 1-1.26-6.72c-.14-1.68-1.3-1.93-1.3-1.93l.08-3.6 2.3-.07c7.61-.93 13.48-.25 16.4 1.06a18.58 18.58 0 0 0 6.36 1.33z"/><path d="M18.82 25s-6.4-.53-7.48 2.2c-1.07 2.75-1.66 8.22 1.42 10.03 3.08 1.81 6.16 1.32 6.16 1.32s-6.4-.25-6.46-5.64c-.06-4.72.71-6.2 2.48-7.03 1.77-.84 3.88-.87 3.88-.87zm26.89 0s-6.4-.53-7.48 2.2c-1.07 2.75-1.66 8.22 1.42 10.03 3.08 1.81 6.16 1.32 6.16 1.32s-6.4-.25-6.46-5.64c-.06-4.72.71-6.2 2.48-7.03 1.78-.84 3.88-.87 3.88-.87z" fill="#fff"/></svg>