<svg viewBox="0 0 64 64" xmlns="http://www.w3.org/2000/svg" fill-rule="evenodd" clip-rule="evenodd" stroke-linejoin="round" stroke-miterlimit="1.41"><path d="M55.62 22.36C55.62 16.1 50.53 11 44.26 11H18.19c-6.27 0-11.36 5.1-11.36 11.36v22.72c0 6.28 5.09 11.37 11.36 11.37h26.07c6.27 0 11.36-5.1 11.36-11.37V22.36z" fill="#7b20ca"/><clipPath id="a"><path d="M55.62 22.36C55.62 16.1 50.53 11 44.26 11H18.19c-6.27 0-11.36 5.1-11.36 11.36v22.72c0 6.28 5.09 11.37 11.36 11.37h26.07c6.27 0 11.36-5.1 11.36-11.37V22.36z"/></clipPath><g clip-path="url(#a)"><path d="M56.53 20.91c0-6.27-5.09-11.36-11.36-11.36H19.1c-6.27 0-11.36 5.1-11.36 11.36v22.72C7.74 49.91 12.84 55 19.1 55h26.07c6.27 0 11.36-5.1 11.36-11.37V20.91z" fill="#a256e4"/></g><circle cx="19.15" cy="29.13" r="3.03" fill="url(#b)"/><clipPath id="c"><circle cx="19.15" cy="29.13" r="3.03"/></clipPath><g clip-path="url(#c)" fill="#fff"><circle cx="17.83" cy="30.73" r="1.31"/><circle cx="18.92" cy="28.62" r=".66"/></g><circle cx="43.3" cy="29.13" r="3.03" fill="url(#d)"/><clipPath id="e"><circle cx="43.3" cy="29.13" r="3.03"/></clipPath><g clip-path="url(#e)" fill="#fff"><circle cx="41.98" cy="30.73" r="1.31"/><circle cx="43.08" cy="28.62" r=".66"/></g><path d="M38.64 34.18a5.83 5.83 0 0 1-.5 2.81 6.66 6.66 0 0 1-2.2 2.76 8.16 8.16 0 0 1-3.32 1.46l-.22.03a9.12 9.12 0 0 1-2.08.06l-.3-.04a9.55 9.55 0 0 1-1.5-.38 9.85 9.85 0 0 1-.72-.3 8.28 8.28 0 0 1-1.35-.82 7.46 7.46 0 0 1-1.74-1.92 6.6 6.6 0 0 1-.7-1.58 6 6 0 0 1-.2-2.04v-.04l.2-.2.2.2a6.37 6.37 0 0 0 .25 1.22 5.57 5.57 0 0 0 1.33 2.22 6.68 6.68 0 0 0 2.57 1.67 9.73 9.73 0 0 0 .69.23 8.87 8.87 0 0 0 4.7-.07 7.54 7.54 0 0 0 1.91-.93 6.4 6.4 0 0 0 2.1-2.48c.26-.57.42-1.19.47-1.81v-.05l.2-.2c.08.06.14.13.21.2z" fill-rule="nonzero"/><path d="M17.1 22.27h4.09"/><path d="M21.73 21.73l.23.54-.23.54-.54.23H17.1l-.54-.23-.23-.54.23-.54.54-.23h4.1l.53.23z" fill-rule="nonzero"/><path d="M41.26 22.27h4.09"/><path d="M45.89 21.73l.23.54-.23.54-.54.23h-4.1l-.53-.23-.23-.54.23-.54.54-.23h4.09l.54.23z" fill-rule="nonzero"/><defs><radialGradient id="b" cx="0" cy="0" r="1" gradientUnits="userSpaceOnUse" gradientTransform="translate(19.15 29.13) scale(3.0324)"><stop offset="0%" stop-color="#1d1d1d"/><stop offset="100%"/></radialGradient><radialGradient id="d" cx="0" cy="0" r="1" gradientUnits="userSpaceOnUse" gradientTransform="translate(43.3 29.13) scale(3.0324)"><stop offset="0%" stop-color="#1d1d1d"/><stop offset="100%"/></radialGradient></defs></svg>