<svg xmlns="http://www.w3.org/2000/svg" viewBox="0 0 50 50"><path d="M43.031 11c-.308.004-.644.031-.968.063-1.305.12-2.731.445-4.188 1.093 0 0-5.61 2.52-10.25 4.594l-11.281-3.469A8.6 8.6 0 0 0 14 12.937c-.773-.011-1.473.055-2.125.344l-1.563.688c-.261.117-.578.304-.75.687-.171.383-.12.848.032 1.156.297.602.781.915 1.469 1.282l.03.031 6.626 4.031a9402.15 9402.15 0 0 0-8.094 3.625c-.21.094-.21.059-.375 0-.164-.058-.46-.246-.844-.531-1.355-1-3.36-2.457-3.937-2.906-.89-.68-1.95-.688-2.907-.375-.476.156-.96.418-1.28.937-.321.52-.364 1.274-.094 1.875.667 1.5 2.777 6.14 3.562 7.907.426.957 1.316 1.617 2.406 1.906 1.09.289 2.403.277 3.969.062 3.133-.433 7.348-1.789 12.656-4.156.418-.188.899-.395 1.344-.594l-2.313 12.219v.063c-.183.746-.277 1.32-.03 1.937.128.316.445.652.843.781.398.13.738.051 1-.062l1.563-.688c.648-.289 1.18-.789 1.687-1.375a8.675 8.675 0 0 0 1.313-2h-.032l7.438-16.093c3.71-1.739 7.273-3.47 9.875-4.938 1.34-.758 2.437-1.445 3.218-2.063.391-.308.688-.59.938-.937.25-.348.523-.918.25-1.531-.621-1.39-2.176-2.422-4.281-2.938A10.047 10.047 0 0 0 43.03 11zm0 2a8.84 8.84 0 0 1 2.094.25c1.441.352 2.32 1.055 2.688 1.531-.102.106-.176.188-.376.344-.62.492-1.64 1.145-2.937 1.875-2.59 1.46-6.242 3.246-10.063 5.031l-.343.157-.157.343-7.593 16.438a6.501 6.501 0 0 1-.969 1.5c-.39.449-.844.773-1 .843l-.625.282v-.032l2.656-14.156.375-1.875-1.75.782c-1.082.484-2.105.949-3.062 1.375-5.207 2.32-9.285 3.613-12.094 4-1.402.195-2.492.152-3.188-.032-.695-.183-.972-.441-1.125-.781-.789-1.766-2.867-6.41-3.53-7.906-.016-.04-.024-.024-.032-.032a.632.632 0 0 1 .188-.093c.343-.114.976.027 1.062.093v-.03c.652.503 2.61 1.968 3.969 2.968.398.293.8.613 1.343.813.543.199 1.25.187 1.876-.094.285-.125 5.3-2.383 9.624-4.313.036-.015.06.016.094 0 .098-.027.196-.07.282-.125.015-.008.015-.023.03-.031l.032-.031c3.332-1.485 3.898-1.742 7.281-3.25a.8.8 0 0 0 .094-.032c.012-.003.02.004.031 0a.996.996 0 0 0 .563-.25l.031-.03C33.098 16.483 38.688 14 38.688 14c1.265-.563 2.48-.867 3.562-.969.27-.023.527-.031.781-.031zM13.97 14.938c.594.011 1.25.085 1.781.25l9.125 2.78c-2.395 1.071-2.64 1.177-4.906 2.188l-7.875-4.781.594-.281c.156-.07.687-.168 1.28-.156z"/></svg>