<svg xmlns="http://www.w3.org/2000/svg" viewBox="0 0 50 50"><path d="M43.125 11c-1.73 0-3.504.379-5.25 1.156L9.625 24.781a.554.554 0 0 1-.219.063c-.234 0-.64-.324-1-.594-1.351-.996-3.32-2.426-3.937-2.906-.465-.356-1.11-.563-1.813-.563-1.039 0-1.902.414-2.344 1.094-.359.555-.421 1.238-.124 1.906l3.562 7.907c.43.964 1.543 2.125 4.406 2.125 3.258 0 8.313-1.5 14.625-4.313l1.313-.594-2.282 12.219c-.273 1.098-.234 1.844.157 2.344.25.32.625.5 1.031.5.203 0 .414-.032.625-.125l1.563-.688c1.175-.523 2.433-2.144 3-3.375l7.437-16.093c14.23-6.665 14.871-8.075 14.25-9.47C49.16 12.622 46.621 11 43.125 11zm-29.25 1.938c-.563 0-1.371.062-2 .343l-1.563.688c-.515.23-.855.672-.874 1.187-.032.965.949 1.578 1.624 1.938l4.594 2.812 9.063-4.062-8.375-2.563a8.629 8.629 0 0 0-2.469-.344z"/></svg>