<svg viewBox="0 0 64 64" xmlns="http://www.w3.org/2000/svg" fill-rule="evenodd" clip-rule="evenodd" stroke-linejoin="round" stroke-miterlimit="1.41"><path d="M57 20.54c0-6.27-5.1-11.36-11.36-11.36H19.57c-6.27 0-11.36 5.1-11.36 11.36v22.73c0 6.26 5.09 11.36 11.36 11.36h26.07c6.27 0 11.36-5.1 11.36-11.36V20.54z" fill="#7b20ca"/><clipPath id="a"><path d="M57 20.54c0-6.27-5.1-11.36-11.36-11.36H19.57c-6.27 0-11.36 5.1-11.36 11.36v22.73c0 6.26 5.09 11.36 11.36 11.36h26.07c6.27 0 11.36-5.1 11.36-11.36V20.54z"/></clipPath><g clip-path="url(#a)"><path d="M57.91 19.1c0-6.28-5.09-11.37-11.36-11.37H20.48A11.37 11.37 0 0 0 9.12 19.1v22.73c0 6.27 5.09 11.36 11.36 11.36h26.07c6.27 0 11.36-5.1 11.36-11.36V19.09z" fill="#a256e4"/><path d="M57 20.54c0-6.27-5.1-11.36-11.36-11.36H19.57c-6.27 0-11.36 5.1-11.36 11.36v22.73c0 6.26 5.09 11.36 11.36 11.36h26.07c6.27 0 11.36-5.1 11.36-11.36V20.54z" fill="#7b20ca"/><clipPath id="b"><path d="M57 20.54c0-6.27-5.1-11.36-11.36-11.36H19.57c-6.27 0-11.36 5.1-11.36 11.36v22.73c0 6.26 5.09 11.36 11.36 11.36h26.07c6.27 0 11.36-5.1 11.36-11.36V20.54z"/></clipPath><g clip-path="url(#b)" fill="#a256e4"><path d="M57.91 19.1c0-6.28-5.09-11.37-11.36-11.37H20.48A11.37 11.37 0 0 0 9.12 19.1v22.73c0 6.27 5.09 11.36 11.36 11.36h26.07c6.27 0 11.36-5.1 11.36-11.36V19.09zm53.27 0c0-6.28-5.09-11.37-11.36-11.37H73.75A11.37 11.37 0 0 0 62.4 19.1v22.73c0 6.27 5.1 11.36 11.36 11.36h26.07c6.27 0 11.36-5.1 11.36-11.36V19.09z"/></g><path d="M111.18 19.1c0-6.28-5.09-11.37-11.36-11.37H73.75A11.37 11.37 0 0 0 62.4 19.1v22.73c0 6.27 5.1 11.36 11.36 11.36h26.07c6.27 0 11.36-5.1 11.36-11.36V19.09z" fill="#a256e4"/></g><path d="M44.53 30.82a9.75 9.75 0 0 1-2.3 6.73 11.72 11.72 0 0 1-3.79 3.04 13.67 13.67 0 0 1-2.28.91 13.58 13.58 0 0 1-4.34.52 14.8 14.8 0 0 1-2.36-.34 12.64 12.64 0 0 1-6.55-4 10.75 10.75 0 0 1-1.95-3.57 9.82 9.82 0 0 1-.41-3.22v-.07l.2-.2.2.2a13.15 13.15 0 0 0 .04.4 9.32 9.32 0 0 0 2.96 5.98 11.02 11.02 0 0 0 3.73 2.38 12.35 12.35 0 0 0 4.21.9 13.96 13.96 0 0 0 3.5-.25 12.37 12.37 0 0 0 5.42-2.67 10.97 10.97 0 0 0 1.3-1.37 9.55 9.55 0 0 0 1.92-4.4c.05-.32.08-.65.1-.97l.2-.2.2.2z" fill="#2e0d19" fill-rule="nonzero"/><path d="M39 41.46c-.79-1.4.05-3.46 1.82-3.7-.18-.73 1.9-2.12 3.55-.8 5.4 4.35 3.95 7.35 2.35 8.63-4.76 3.78-7.68-3.8-7.73-4.13z" fill="#e02e4d"/><clipPath id="c"><path d="M39 41.46c-.79-1.4.05-3.46 1.82-3.7-.18-.73 1.9-2.12 3.55-.8 5.4 4.35 3.95 7.35 2.35 8.63-4.76 3.78-7.68-3.8-7.73-4.13z"/></clipPath><g clip-path="url(#c)"><path d="M38.68 41c-.78-1.4.05-3.46 1.83-3.7-.19-.73 1.9-2.12 3.54-.8 5.4 4.35 3.95 7.35 2.35 8.63-4.76 3.78-7.68-3.8-7.72-4.13z" fill="#f14a67"/><path d="M40.05 37.68c.3-.24 2.3 1.29 3.46 3 .04-.05-1.54-2.93-3.06-3.2l-.4.2z" fill="#e02e4d"/></g><path d="M21.08 23.09a4.05 4.05 0 0 1 4.05 4.05c0 2.23-1.83.61-4.06.61-2.24 0-4.04 1.62-4.04-.61a4.05 4.05 0 0 1 4.05-4.05z" fill="url(#d)"/><clipPath id="e"><path d="M21.08 23.09a4.05 4.05 0 0 1 4.05 4.05c0 2.23-1.83.61-4.06.61-2.24 0-4.04 1.62-4.04-.61a4.05 4.05 0 0 1 4.05-4.05z"/></clipPath><g clip-path="url(#e)" fill="#fff"><path d="M20.24 25.32a1.1 1.1 0 1 1-1.1 1.9 1.1 1.1 0 0 1 1.1-1.9zm1.41-.61a.56.56 0 1 1-.56.96.56.56 0 0 1 .56-.96z"/></g><path d="M44 23.09a4.05 4.05 0 0 1 4.06 4.05c0 2.23-1.83.61-4.06.61-2.24 0-4.04 1.62-4.04-.61A4.05 4.05 0 0 1 44 23.09z" fill="url(#f)"/><clipPath id="g"><path d="M44 23.09a4.05 4.05 0 0 1 4.06 4.05c0 2.23-1.83.61-4.06.61-2.24 0-4.04 1.62-4.04-.61A4.05 4.05 0 0 1 44 23.09z"/></clipPath><g clip-path="url(#g)" fill="#fff"><path d="M43.17 25.32a1.1 1.1 0 1 1-1.1 1.9 1.1 1.1 0 0 1 1.1-1.9zm1.41-.61c.27.16.36.5.2.76a.56.56 0 1 1-.2-.76z"/></g><defs><radialGradient id="d" cx="0" cy="0" r="1" gradientUnits="userSpaceOnUse" gradientTransform="translate(21.08 27.14) scale(4.05009)"><stop offset="0%" stop-color="#1d1d1d"/><stop offset="100%"/></radialGradient><radialGradient id="f" cx="0" cy="0" r="1" gradientUnits="userSpaceOnUse" gradientTransform="translate(44 27.14) scale(4.05009)"><stop offset="0%" stop-color="#1d1d1d"/><stop offset="100%"/></radialGradient></defs></svg>