<svg xmlns="http://www.w3.org/2000/svg" viewBox="0 0 50 50"><path d="M25 2C15.656 2 8 9.656 8 19v12c0 9.344 7.656 17 17 17 9.344 0 17-7.656 17-17V19c0-9.344-7.656-17-17-17zm0 2c8.254 0 15 6.746 15 15v12c0 8.254-6.746 15-15 15s-15-6.746-15-15V19c0-8.254 6.746-15 15-15zm0 2c-6.75 0-12.273 5.086-12.938 11.656-.042.438-.062.895-.062 1.344v12c0 7.2 5.8 13 13 13s13-5.8 13-13V19c0-7.2-5.8-13-13-13zm0 2c.29 0 .563.008.844.031h.031c.273.024.547.051.813.094h.03c.266.043.524.094.782.156.02.004.043-.004.063 0 .25.063.507.172.75.25.007.004.023-.004.03 0 .255.082.509.184.75.281.009.004.024-.003.032 0 .75.31 1.438.7 2.094 1.157.008.004.023-.004.031 0 .215.148.422.304.625.469.008.003.023-.004.031 0 .203.164.371.351.563.53.004.005.027-.003.031 0 1.172 1.11 2.09 2.5 2.688 4.032H14.811a11.126 11.126 0 0 1 2.688-4.031c.395-.375.832-.688 1.281-1a10.913 10.913 0 0 1 2.094-1.156A10.907 10.907 0 0 1 25 8zm-3.188 3c-.55.05-.957.543-.906 1.094.051.55.543.957 1.094.906h6c.36.004.695-.184.879-.496a1.01 1.01 0 0 0 0-1.008c-.184-.312-.52-.5-.879-.496h-6.187zM28 21c1.898 0 3.508 1.387 3.906 3.188a3.025 3.025 0 0 1 1.907 1.906H34c.793 0 1.473.308 2 .781V31c0 .094.004.188 0 .281-.523.453-1.219.719-2 .719H22c-1.7 0-3-1.3-3-3 0-1.3.898-2.414 2-2.813.2-1.199 1.2-2.187 2.5-2.187.2 0 .395-.008.594.094C24.492 22.293 26.102 21 28 21z"/></svg>