<svg viewBox="0 0 64 64" xmlns="http://www.w3.org/2000/svg" fill-rule="evenodd" clip-rule="evenodd" stroke-linejoin="round" stroke-miterlimit="1.41"><ellipse cx="32.56" cy="32.05" rx="24.56" ry="21.8" fill="#edaf06"/><clipPath id="a"><ellipse cx="32.56" cy="32.05" rx="24.56" ry="21.8"/></clipPath><g clip-path="url(#a)"><ellipse cx="33.5" cy="30.94" rx="24.56" ry="21.8" fill="#fac940"/></g><circle cx="20.43" cy="29.82" r="3.06" fill="url(#b)"/><clipPath id="c"><circle cx="20.43" cy="29.82" r="3.06"/></clipPath><g clip-path="url(#c)" fill="#fff"><circle cx="19.1" cy="31.44" r="1.33"/><circle cx="20.21" cy="29.3" r=".67"/></g><circle cx="44.8" cy="29.82" r="3.06" fill="url(#d)"/><clipPath id="e"><circle cx="44.8" cy="29.82" r="3.06"/></clipPath><g clip-path="url(#e)" fill="#fff"><circle cx="43.48" cy="31.44" r="1.33"/><circle cx="44.58" cy="29.3" r=".67"/></g><path d="M23.11 17.66v.01l.02.6-.4.42-3.77 1.68-.6.02-.43-.4v-.01l-.02-.6.4-.42 3.78-1.69.59-.01.43.4zm20.03-.39l3.78 1.68.4.43-.01.6-.43.4h-.6c-1.25-.57-2.5-1.13-3.76-1.68l-.41-.44v-.59h.01l.43-.41.6.01zm-10.56 16c-.12 0-.24.02-.36.04-.53.12-.99.46-1.34.85a3.24 3.24 0 0 0-.37.47 5.34 5.34 0 0 0-.45.77 9.56 9.56 0 0 0-.77 2.84c-.08.85-.07 1.73.05 2.58a8.78 8.78 0 0 0 .8 2.62 5.69 5.69 0 0 0 .67 1 2.77 2.77 0 0 0 1.49.94 1.89 1.89 0 0 0 .83-.05 2.8 2.8 0 0 0 1.5-1.14 5.27 5.27 0 0 0 .72-1.32c.27-.66.44-1.35.54-2.05a10.57 10.57 0 0 0-.25-4.17 7.57 7.57 0 0 0-.91-2.02 5.05 5.05 0 0 0-.37-.47c-.36-.4-.82-.73-1.35-.85a1.96 1.96 0 0 0-.35-.04h-.08zm.15-.77a2.77 2.77 0 0 1 .88.19 3.81 3.81 0 0 1 1.76 1.5 6.1 6.1 0 0 1 .47.81 10.08 10.08 0 0 1 .93 4.42c0 .53-.04 1.06-.12 1.59a9.36 9.36 0 0 1-1.14 3.26 6 6 0 0 1-.22.33 3.87 3.87 0 0 1-1.78 1.43 2.82 2.82 0 0 1-.95.15 2.6 2.6 0 0 1-.83-.15 3.83 3.83 0 0 1-1.97-1.7 6.83 6.83 0 0 1-.52-.98 9.38 9.38 0 0 1-.65-2.34 11.35 11.35 0 0 1 .32-4.8 8.13 8.13 0 0 1 1-2.08l.19-.25a3.73 3.73 0 0 1 1.96-1.33 2.8 2.8 0 0 1 .67-.05z" fill="#2e0d19" fill-rule="nonzero"/><ellipse cx="32.62" cy="39.34" rx="3.77" ry="6.46" fill="#2e0d19"/><clipPath id="f"><ellipse cx="32.62" cy="39.34" rx="3.77" ry="6.46"/></clipPath><g clip-path="url(#f)"><ellipse cx="32.61" cy="44.56" rx="3.14" ry="3.8" fill="#f14a67"/></g><defs><radialGradient id="b" cx="0" cy="0" r="1" gradientUnits="userSpaceOnUse" gradientTransform="translate(20.43 29.82) scale(3.05961)"><stop offset="0%" stop-color="#1d1d1d"/><stop offset="100%"/></radialGradient><radialGradient id="d" cx="0" cy="0" r="1" gradientUnits="userSpaceOnUse" gradientTransform="translate(44.8 29.82) scale(3.05961)"><stop offset="0%" stop-color="#1d1d1d"/><stop offset="100%"/></radialGradient></defs></svg>