<svg viewBox="0 0 64 64" xmlns="http://www.w3.org/2000/svg" fill-rule="evenodd" clip-rule="evenodd" stroke-linejoin="round" stroke-miterlimit="1.41"><ellipse cx="32.67" cy="32.15" rx="24.56" ry="21.8" fill="#edaf06"></ellipse><clipPath id="a"><ellipse cx="32.67" cy="32.15" rx="24.56" ry="21.8"></ellipse></clipPath><g clip-path="url(#a)"><ellipse cx="33.62" cy="31.03" rx="24.56" ry="21.8" fill="#fac940"></ellipse></g><path d="M23.38 18.27l.34.48-.1.6-.47.34-4.02.94-.59-.1-.34-.47.1-.6.47-.34 4.02-.95.58.1zm19.29-.09l4.01.94.48.35.1.58v.01l-.35.48-.58.1-4.02-.95-.48-.35-.1-.58.35-.49c.2-.03.4-.14.59-.1zM21.35 26.23h.05l.18.01.25.03.21.04.25.06.12.04a4.93 4.93 0 0 1 1.32.7l.33.27.12.12a5.75 5.75 0 0 1 1.5 2.5l.01.01-.02.08-.07-.02-.16-.19a8.83 8.83 0 0 0-1.31-1.18 6 6 0 0 0-1.16-.62 5.2 5.2 0 0 0-.18-.06l-.1-.04a3.82 3.82 0 0 0-.6-.14h-.12l-.14-.03-.18-.01h-.1l-.2-.01h-.42l-.14.01a6.26 6.26 0 0 0-.48.06l-.13.03a4.07 4.07 0 0 0-.62.18l-.1.04a3.48 3.48 0 0 0-.41.2c-.04 0-.07.03-.1.05a4.62 4.62 0 0 0-1.3 1.01 5.3 5.3 0 0 0-.46.6h-.01l-.07.03-.03-.07a5.46 5.46 0 0 1 .37-1.1 5.2 5.2 0 0 1 .87-1.27l.13-.13a4.5 4.5 0 0 1 .4-.34l.11-.09c.24-.16.5-.3.77-.43l.08-.04.13-.04c.14-.06.28-.1.43-.14l.2-.05.24-.04.18-.02h.38zm23.56 0l.28.01.18.03a3.88 3.88 0 0 1 2 .85 5.01 5.01 0 0 1 .5.44 5.2 5.2 0 0 1 1.23 2.35v.02l-.03.07-.07-.02-.1-.15-.1-.14-.3-.35-.21-.2a4.91 4.91 0 0 0-1.06-.78l-.1-.06a4.97 4.97 0 0 0-.4-.19l-.1-.03a3.99 3.99 0 0 0-.63-.19l-.12-.03a4.2 4.2 0 0 0-.25-.04l-.24-.02-.14-.01h-.62l-.1.01-.18.01-.15.02-.11.02a3.63 3.63 0 0 0-.6.13l-.15.05a4.62 4.62 0 0 0-.6.25l-.12.06a4.2 4.2 0 0 0-.57.36 6.4 6.4 0 0 0-1.07.92l-.13.13-.26.3-.01.02-.08.02-.02-.08a8.33 8.33 0 0 1 .52-1.18 6.16 6.16 0 0 1 1-1.33l.12-.12a4.6 4.6 0 0 1 1.57-.94l.2-.07.2-.05a4.25 4.25 0 0 1 .7-.09h.13z" fill="#2e0d19" fill-rule="nonzero"></path><g fill="#e6556e"><ellipse cx="50.7" cy="34.18" rx="3.85" ry="2.47"></ellipse><ellipse cx="14.54" cy="34.18" rx="3.85" ry="2.47"></ellipse></g><path d="M40.29 33.59a5.89 5.89 0 0 1-.5 2.83 6.75 6.75 0 0 1-2.22 2.78 8.15 8.15 0 0 1-5.68 1.57l-.3-.04-.75-.15-.3-.08a9.1 9.1 0 0 1-1.9-.84 7.45 7.45 0 0 1-2.4-2.38 6.6 6.6 0 0 1-.71-1.6 6.12 6.12 0 0 1-.2-2.05v-.04l.2-.21.2.2a6.84 6.84 0 0 0 .25 1.23 5.8 5.8 0 0 0 2.07 2.9 6.9 6.9 0 0 0 1.86 1.03l.24.09a7.22 7.22 0 0 0 1.98.4l.3.02a15.04 15.04 0 0 0 1.05 0l.32-.03.26-.03a7.14 7.14 0 0 0 4.65-2.57 5.7 5.7 0 0 0 1.17-3v-.04l.2-.2.21.2z" fill="#2e0d19" fill-rule="nonzero"></path></svg>