<svg viewBox="0 0 64 64" xmlns="http://www.w3.org/2000/svg" fill-rule="evenodd" clip-rule="evenodd" stroke-linejoin="round" stroke-miterlimit="1.41"><ellipse cx="32.95" cy="31.15" rx="24.56" ry="21.8" fill="#edaf06"/><clipPath id="a"><ellipse cx="32.95" cy="31.15" rx="24.56" ry="21.8"/></clipPath><g clip-path="url(#a)"><ellipse cx="33.89" cy="30.03" rx="24.56" ry="21.8" fill="#fac940"/></g><g fill="#e6556e"><ellipse cx="51.08" cy="34.15" rx="3.85" ry="2.47"/><ellipse cx="14.92" cy="34.15" rx="3.85" ry="2.47"/></g><path d="M17.72 27.7l5.66.02s.23.74.23 1.15a3.06 3.06 0 0 1-6.12 0c0-.42.23-1.17.23-1.17z" fill="url(#b)"/><clipPath id="c"><path d="M17.72 27.7l5.66.02s.23.74.23 1.15a3.06 3.06 0 0 1-6.12 0c0-.42.23-1.17.23-1.17z"/></clipPath><g clip-path="url(#c)" fill="#fff"><circle cx="19.22" cy="30.48" r="1.33"/><circle cx="20.32" cy="28.35" r=".67"/></g><path d="M22.39 22.84l.4.43-.02.6-.43.4-3.87 1.44-.6-.03-.4-.43.02-.6.44-.4 3.87-1.43.59.02z" fill="#2e0d19" fill-rule="nonzero"/><path d="M42.63 27.7l5.66.02s.22.74.22 1.15a3.06 3.06 0 0 1-6.12 0c0-.42.24-1.17.24-1.17z" fill="url(#d)"/><clipPath id="e"><path d="M42.63 27.7l5.66.02s.22.74.22 1.15a3.06 3.06 0 0 1-6.12 0c0-.42.24-1.17.24-1.17z"/></clipPath><g clip-path="url(#e)" fill="#fff"><circle cx="44.13" cy="30.48" r="1.33"/><circle cx="45.23" cy="28.35" r=".67"/></g><path d="M44.2 22.82l3.87 1.43.44.4.02.6-.4.43-.6.03-3.87-1.44-.43-.4-.03-.6.41-.43c.2 0 .4-.1.6-.02z" fill="#2e0d19" fill-rule="nonzero"/><path d="M27.84 48.77s6.52-10.22 10.63-5.63c0 0 .73.75 1.35 2.46 0 0-.22 1.88-1.78 1.58-2.42-.48-5.87-2.04-10.2 1.59z" fill="#2e0d19"/><clipPath id="f"><path d="M27.84 48.77s6.52-10.22 10.63-5.63c0 0 .73.75 1.35 2.46 0 0-.22 1.88-1.78 1.58-2.42-.48-5.87-2.04-10.2 1.59z"/></clipPath><g clip-path="url(#f)"><path d="M54.7 57.03a1.63 1.63 0 0 0 1.68-2.78L32.16 39.6a1.63 1.63 0 0 0-1.69 2.78L54.7 57.03z" fill="#cbcde9"/><clipPath id="g"><path d="M54.7 57.03a1.63 1.63 0 0 0 1.68-2.78L32.16 39.6a1.63 1.63 0 0 0-1.69 2.78L54.7 57.03z"/></clipPath><g clip-path="url(#g)"><path d="M52.76 54.73a.66.66 0 0 0 .68-1.13L29.97 39.4a.66.66 0 0 0-.68 1.14l23.47 14.18z" fill="#c40505"/></g></g><path d="M49.87 54.11a1.63 1.63 0 0 0 1.68-2.78l-14.18-8.57a1.63 1.63 0 0 0-1.68 2.78l14.18 8.57z" fill="#cbcde9"/><clipPath id="h"><path d="M49.87 54.11a1.63 1.63 0 0 0 1.68-2.78l-14.18-8.57a1.63 1.63 0 0 0-1.68 2.78l14.18 8.57z"/></clipPath><g clip-path="url(#h)"><path d="M48.65 52.25a.66.66 0 0 0 .69-1.13l-18.02-10.9a.66.66 0 0 0-.69 1.14l18.02 10.89z" fill="#c40505"/><path d="M37.78 45.08l1.34-2.2-.4-.24-1.33 2.21.39.23zm2.54 1.48l1.33-2.21-.38-.24-1.34 2.21.39.24zm2.53 1.47l1.34-2.2-.39-.24-1.34 2.2.4.24zm2.54 1.47l1.33-2.2-.38-.24L45 49.27l.39.24zm2.53 1.48l1.34-2.2-.39-.24-1.34 2.2.4.24zm2.54 1.48l1.33-2.21-.38-.24-1.34 2.21.39.24z" fill="#4c4e5f"/></g><defs><radialGradient id="b" cx="0" cy="0" r="1" gradientUnits="userSpaceOnUse" gradientTransform="translate(20.55 28.87) scale(3.05961)"><stop offset="0%" stop-color="#1d1d1d"/><stop offset="100%"/></radialGradient><radialGradient id="d" cx="0" cy="0" r="1" gradientUnits="userSpaceOnUse" gradientTransform="translate(45.45 28.87) scale(3.05961)"><stop offset="0%" stop-color="#1d1d1d"/><stop offset="100%"/></radialGradient></defs></svg>