<svg viewBox="0 0 64 64" xmlns="http://www.w3.org/2000/svg" fill-rule="evenodd" clip-rule="evenodd" stroke-linejoin="round" stroke-miterlimit="1.41"><ellipse cx="32.19" cy="32.08" rx="24.56" ry="21.8" fill="#edaf06"/><clipPath id="a"><ellipse cx="32.19" cy="32.08" rx="24.56" ry="21.8"/></clipPath><g clip-path="url(#a)"><ellipse cx="33.13" cy="30.96" rx="24.56" ry="21.8" fill="#fac940"/></g><path d="M22.15 19.4l.06.59-.38.45-3.65 1.92-.6.05-.45-.37-.06-.6.38-.45 3.66-1.93.59-.05.45.38zm20.33.2l3.65 1.91.38.46-.05.59-.46.38-.6-.05-3.64-1.92-.38-.46.05-.59.46-.38.59.05zM20.5 25.58h.06l.18.01.25.03a3.67 3.67 0 0 1 .46.1l.11.04a4 4 0 0 1 .82.36l.18.1a4.79 4.79 0 0 1 1.31 1.23 5.93 5.93 0 0 1 .83 1.5l.14.4-.01.09-.08-.03-.16-.18-.15-.17a8.43 8.43 0 0 0-1.16-1.02 6.32 6.32 0 0 0-1.15-.62 3.7 3.7 0 0 0-.18-.06c-.04 0-.07-.02-.11-.03a4.25 4.25 0 0 0-.6-.14l-.11-.01-.14-.02-.18-.01-.11-.01h-.18l-.16-.01h-.28l-.14.02a3.73 3.73 0 0 0-.49.06l-.12.03a3.8 3.8 0 0 0-.63.18l-.1.04a4.5 4.5 0 0 0-.4.19l-.1.05a4.4 4.4 0 0 0-1.3 1.02 5.2 5.2 0 0 0-.46.59l-.01.01-.07.03-.03-.07a5.31 5.31 0 0 1 .31-.98l.06-.13a5.22 5.22 0 0 1 .86-1.26l.14-.13a5.05 5.05 0 0 1 .4-.35l.11-.08c.24-.17.5-.31.77-.44l.08-.03.13-.05a4.87 4.87 0 0 1 .87-.22l.18-.02.28-.01h.09zm23.57 0l.28.01.18.02a4.03 4.03 0 0 1 1 .27l.08.04a5.08 5.08 0 0 1 1.32.89l.1.1c.34.37.63.8.86 1.26l.05.13a6.39 6.39 0 0 1 .32.96v.02l-.03.07-.07-.03-.1-.14-.1-.14-.3-.35-.21-.2a4.94 4.94 0 0 0-1.06-.79l-.1-.05a3.74 3.74 0 0 0-.4-.2c-.04 0-.07-.02-.1-.03a4.34 4.34 0 0 0-.63-.18l-.13-.03a3.03 3.03 0 0 0-.62-.07h-.15l-.13-.01h-.33l-.1.02-.19.01-.14.02-.11.01a3.75 3.75 0 0 0-.6.14l-.15.04a3.48 3.48 0 0 0-.6.25l-.12.07c-.1.05-.2.1-.3.17l-.28.18a6.55 6.55 0 0 0-1.06.93l-.13.13-.26.3-.01.01-.08.03-.02-.08.12-.35.1-.23a7.36 7.36 0 0 1 1-1.63 5.77 5.77 0 0 1 1.07-.92l.17-.11a4.76 4.76 0 0 1 1.4-.5l.43-.04h.14z" fill="#2e0d19" fill-rule="nonzero"/><path d="M22.97 33.44c0 6.23 4.15 11.29 9.27 11.29 5.13 0 9.28-5.06 9.28-11.3H22.97z" fill="#2e0d19"/><clipPath id="b"><path d="M22.97 33.44c0 6.23 4.15 11.29 9.27 11.29 5.13 0 9.28-5.06 9.28-11.3H22.97z"/></clipPath><g clip-path="url(#b)"><path d="M32.26 37.54c3.82.01 6.92 2.37 6.92 5.26 0 2.9-3.12 5.24-6.95 5.23-3.82 0-6.93-2.36-6.92-5.26 0-2.9 3.12-5.24 6.95-5.23z" fill="#f14a67"/></g><path d="M22.67 33.34l.05-.09a.3.3 0 0 1 .15-.11l.1-.02h18.6a.32.32 0 0 1 .25.22l.01.1a14.7 14.7 0 0 1-.31 2.95 12.33 12.33 0 0 1-2.56 5.33 10.3 10.3 0 0 1-2.07 1.87 8.83 8.83 0 0 1-3.24 1.33 8.06 8.06 0 0 1-4.89-.67c-1-.47-1.9-1.14-2.68-1.93a11.5 11.5 0 0 1-2.28-3.38 13.24 13.24 0 0 1-1.14-5.36v-.19l.01-.05zm9.57.4h-8.96c.04 1.73.4 3.44 1.12 5.01a10.84 10.84 0 0 0 2.16 3.18 8.74 8.74 0 0 0 2.52 1.78 7.57 7.57 0 0 0 6.18.07 8.22 8.22 0 0 0 2.41-1.6 11.76 11.76 0 0 0 3.25-5.98c.17-.8.26-1.6.28-2.4v-.05h-8.96z" fill="#2e0d19" fill-rule="nonzero"/><path d="M15.29 30.77s.46 2.42.08 3.15a1.5 1.5 0 0 1-2.68-1.36c.38-.74 2.6-1.79 2.6-1.79z" fill="#5aa7e7"/><path d="M13.38 32.56c-.4.04-.67.46-.62.93.06.47.42.81.8.77.4-.05.67-.46.62-.93-.05-.47-.41-.82-.8-.77z" fill="#b1d6f4"/></svg>