<svg xmlns="http://www.w3.org/2000/svg" viewBox="0 0 48 48"><path d="M43 28c0 .555-.445 1-1 1l-10 1H16L6 29c-.555 0-1-.445-1-1 0-.555.445-1 1-1h36c.555 0 1 .445 1 1zM23 9h2v8h-2zm8.77 22.906L27 30h-6l-4.77 1.906c.165.32.41.59.711.785.008.004.02.008.032.016.125.078.265.137.41.188.039.011.074.023.113.035.16.043.328.07.504.07h12a1.938 1.938 0 0 0 .617-.105c.145-.051.285-.11.41-.188.012-.008.024-.012.032-.016.3-.195.546-.46.71-.785z" fill="#63590d"/><path d="M27 8c0 .555-.445 1-1 1h-4c-.555 0-1-.445-1-1 0-.555.445-1 1-1h4c.555 0 1 .445 1 1z" fill="#827717"/><path d="M21 19.043V15s0-1 1-1h4s1 0 1 1v4.145" fill="none" stroke-width="2" stroke="#827717"/><path d="M35 24a3 3 0 0 1-3 3H16a3 3 0 0 1 0-6h16a3 3 0 0 1 3 3zm9 9a3 3 0 1 1-6.002-.002A3 3 0 0 1 44 33zm-14-6H18a2 2 0 0 0-2 2v2a2 2 0 0 0 .941 1.691 2.06 2.06 0 0 1-.714-.785L21 30h6l4.77 1.906c-.165.32-.41.59-.711.785A2 2 0 0 0 32 31v-2a2 2 0 0 0-2-2z" fill="#827717"/><path d="M40 31c0 .555.445 1 1 1 .555 0 1-.445 1-1v-2l-2 .2zM6 29v2c0 .555.445 1 1 1 .555 0 1-.445 1-1v-1.8z" fill="#827717"/><path d="M10 33a3 3 0 1 1-6.002-.002A3 3 0 0 1 10 33z" fill="#827717"/><path d="M34 24a1.999 1.999 0 1 1-4 0 1.999 1.999 0 1 1 4 0zm-16 0a1.999 1.999 0 1 1-4 0 1.999 1.999 0 1 1 4 0zm8-8h-4c-1.105 0-2.543 0-3 3l-1 7a2 2 0 0 0 2 2h8a2 2 0 0 0 2-2l-1-7c-.543-3-1.895-3-3-3z" fill="#9e9d24"/><path d="M28 25c-.363-1.934-.305-7-1.828-7h-4.344c-1.523 0-1.465 5.066-1.828 7z" fill="#263238"/><path d="M31 40c0 .555.445 1 1 1 .555 0 1-.445 1-1v-4c0-.555-.445-1-1-1-.555 0-1 .445-1 1zm2-16c0 .55-.45 1-1 1s-1-.45-1-1 .45-1 1-1 1 .45 1 1zm-16 0c0 .55-.45 1-1 1s-1-.45-1-1 .45-1 1-1 1 .45 1 1zm26 9a1.999 1.999 0 1 1-4 0 1.999 1.999 0 1 1 4 0zM9 33a1.999 1.999 0 1 1-4 0 1.999 1.999 0 1 1 4 0zm9 0c-.059 0-.117-.012-.176-.02l-.804 2.829C17.016 35.82 16.75 37 16 37v2c1.922 0 2.79-1.836 2.96-2.727L19.899 33z" fill="#3a3205"/><path d="M30.95 35.684l-.9-2.688c-.015 0-.03.004-.05.004h-2.055l1.086 3.25C29.297 37.273 30.22 39 32 39v-2c-.574 0-.96-.988-1.05-1.316zM17 40c0 .555-.445 1-1 1-.555 0-1-.445-1-1v-4c0-.555.445-1 1-1 .555 0 1 .445 1 1z" fill="#3a3205"/><path d="M2 9s9 2 22 2 22-2 22-2" fill="none" stroke-width="2" stroke="#3a3205"/><path d="M20.328 22h7.344a26.902 26.902 0 0 0-.121-1h-7.102c-.047.328-.086.664-.12 1z" fill="#546e7a"/></svg>