<svg xmlns="http://www.w3.org/2000/svg" viewBox="0 0 50 50"><path d="M24 10v6h-4.187A1 1 0 0 0 19 17v8h-3v-3c0-.55-.45-1-1-1H8.906A.996.996 0 0 0 8 22v.688L3.031 22l-.25 2L8 24.688V31H.812A1.002 1.002 0 0 0 0 32.031c.113 2.696 1.55 5.711 2.906 8.157a44.382 44.382 0 0 0 2.188 3.562c-.703.145-1.38.25-1.907.25-.605 0-1.148-.094-1.78-.094a1.006 1.006 0 0 0-.88.496 1.01 1.01 0 0 0 0 1.008c.184.313.52.5.88.496.366 0 .984.094 1.78.094 1.504 0 3.688-.45 5.5-1.625 1.817 1.191 3.989 1.625 5.5 1.625 1.504 0 3.688-.45 5.5-1.625 1.817 1.191 3.989 1.625 5.5 1.625 1.504 0 3.688-.45 5.5-1.625 1.817 1.191 3.989 1.625 5.5 1.625 1.504 0 3.688-.45 5.5-1.625a9.333 9.333 0 0 0 1.782.906c.156.114.34.176.531.188 1.148.375 2.29.531 3.188.531.796 0 1.539-.117 2.187-.375.367-.11.637-.414.703-.79a1.01 1.01 0 0 0-.398-.98 1.008 1.008 0 0 0-1.055-.074c-.352.14-.832.219-1.438.219-.535 0-1.226-.098-1.937-.25 1.082-5.05 4.625-11.25 4.625-11.25a.993.993 0 0 0-.004-1.004A.997.997 0 0 0 49 31h-7v-1.969l7.531-2.593-.656-1.875L42 26.938V26c0-.55-.45-1-1-1H31v-8c0-.55-.45-1-1-1h-4v-6zm-3 8h8v7h-8zm-11 5h4v2h-4zm0 4h30v4H10zm-7.75 6h45.094c-.93 1.684-3.063 5.77-4 10.156a5.222 5.222 0 0 1-1-.625 1.002 1.002 0 0 0-1.282 0C39.767 43.586 37.508 44 36.188 44c-1.32 0-3.547-.414-4.844-1.469a1.002 1.002 0 0 0-1.282 0C28.767 43.586 26.509 44 25.188 44c-1.32 0-3.546-.414-4.843-1.469a1.002 1.002 0 0 0-1.282 0C17.767 43.586 15.508 44 14.188 44c-1.32 0-3.546-.414-4.843-1.469a1.004 1.004 0 0 0-.875-.218.959.959 0 0 0-.406.218 5.175 5.175 0 0 1-.97.594 42.322 42.322 0 0 1-2.437-3.906C3.551 37.23 2.598 34.914 2.25 33zm6.344 13.281a1.14 1.14 0 0 0-.125.032.959.959 0 0 0-.406.218C6.766 47.586 4.508 48 3.186 48c-.605 0-1.148-.094-1.78-.094a1.006 1.006 0 0 0-.88.496 1.01 1.01 0 0 0 0 1.008c.184.313.52.5.88.496.366 0 .984.094 1.78.094 1.504 0 3.688-.45 5.5-1.625 1.817 1.191 3.989 1.625 5.5 1.625 1.504 0 3.688-.45 5.5-1.625 1.817 1.191 3.989 1.625 5.5 1.625 1.504 0 3.688-.45 5.5-1.625 1.817 1.191 3.989 1.625 5.5 1.625 1.504 0 3.688-.45 5.5-1.625 1.817 1.191 3.989 1.625 5.5 1.625.797 0 1.54-.117 2.188-.375.367-.11.637-.414.703-.79a1.01 1.01 0 0 0-.398-.98 1.008 1.008 0 0 0-1.055-.074c-.352.14-.832.219-1.438.219-1.32 0-3.546-.414-4.843-1.469a1.002 1.002 0 0 0-1.282 0C39.767 47.586 37.508 48 36.188 48c-1.32 0-3.547-.414-4.844-1.469a1.002 1.002 0 0 0-1.282 0C28.767 47.586 26.509 48 25.188 48c-1.32 0-3.546-.414-4.843-1.469a1.002 1.002 0 0 0-1.282 0C17.767 47.586 15.508 48 14.188 48c-1.32 0-3.546-.414-4.843-1.469a.994.994 0 0 0-.75-.25z"/></svg>