<svg xmlns="http://www.w3.org/2000/svg" viewBox="0 0 50 50"><path d="M23.412 8.025l-9.473 5.909-6.597-2.877a.999.999 0 0 0-1.324.54c-.102.247-2.269 6.027.212 11.475a.963.963 0 0 0 .569.498l35.25 12.125a.988.988 0 0 0 1.176-.418l3.568-5.763a1.001 1.001 0 0 0-.45-1.446L16.165 14.904l8.309-5.181-1.06-1.698zM5.094 25.004A1 1 0 0 0 4 26v14a1.003 1.003 0 0 0 1 1s17.235-.003 18.121 0h.02c1.288 0 2.355-.901 2.984-1.25.75.5 1.764 1.25 3 1.25 1.25 0 2.013-.609 3-1.25 1.723 1.325 3.501 1.977 6 0C41.875 42.5 44 39.875 44 39c0-.625-.641-.876-1-1L5.326 25.055a.985.985 0 0 0-.232-.051z"/></svg>