<svg xmlns="http://www.w3.org/2000/svg" viewBox="0 0 40 40"><path d="M13.5 8.5v-4h3v-3h7v3h3v4z" fill="#dff0fe"/><path d="M23 2v3h3v3H14V5h3V2h6m1-1h-8v3h-3v5h14V4h-3z" fill="#4788c7"/><path d="M15.188 18.535c-.2-.098-5.489-2.742-5.68-10.117L20 6.508l10.496 1.906c-.2 7.422-5.656 10.106-5.71 10.133L20 20.46z" fill="#b6dcfe"/><path d="M20 7.016l9.977 1.812c-.364 6.578-4.97 9.047-5.383 9.258L20 19.922l-4.59-1.836c-.441-.223-5.023-2.707-5.387-9.254L20 7.016M20 6L9 8c0 8.121 6 11 6 11l5 2 5-2s6-2.863 6-11z" fill="#4788c7"/><path d="M24.5 12h-2a.498.498 0 0 1-.5-.5c0-.277.223-.5.5-.5h2a.499.499 0 1 1 0 1zm-7 0h-2a.498.498 0 0 1-.5-.5c0-.277.223-.5.5-.5h2a.499.499 0 1 1 0 1z" fill="#4788c7"/><path d="M1 39h38V16.879c-1.309-.266-2.852-.879-4-.879-1.457 0-3.563 1-5 1-1.438 0-3.543-1-5-1-1.457 0-3.563 1-5 1-1.438 0-3.543-1-5-1-1.457 0-3.563 1-5 1-1.438 0-3.543-1-5-1-1.148 0-2.691.613-4 .879z" fill="#b6dcfe"/><path d="M1.5 17.277c.363-.086.738-.191 1.113-.297.848-.234 1.723-.48 2.387-.48.664 0 1.535.246 2.383.484.898.254 1.832.516 2.617.516.785 0 1.719-.262 2.617-.516.848-.238 1.719-.484 2.383-.484.664 0 1.535.246 2.383.484.898.254 1.832.516 2.617.516.785 0 1.719-.262 2.617-.516.848-.238 1.719-.484 2.383-.484.664 0 1.535.246 2.383.484.898.254 1.832.516 2.617.516.785 0 1.719-.262 2.617-.516.848-.238 1.719-.484 2.383-.484.664 0 1.54.246 2.387.48.375.106.75.211 1.113.297" fill="none" stroke-linecap="round" stroke="#4788c7" stroke-miterlimit="10"/><path d="M21 32h-2v-9h2z" fill="#fff"/><path d="M20 35l5-5H15z" fill="#fff"/></svg>