<svg xmlns="http://www.w3.org/2000/svg" viewBox="0 0 48 48"><path d="M24 10.223V16m5-2.5c0-1.934-2.238-3.5-5-3.5s-5 1.566-5 3.5 2.238 3.5 5 3.5 5-1.566 5-3.5z" fill="none" stroke-width="2" stroke="#bf360c"/><path d="M38 20.5c0-3.59-6.27-6.5-14-6.5s-14 2.91-14 6.5S16.27 27 24 27s14-2.91 14-6.5z" fill="#455a64"/><path d="M21 21h1c-.96-3.367-2.559-5.254-4.07-6.352-.965.215-1.871.48-2.696.786 2.973 1.16 4.98 4.304 5.766 5.566zm6 0h-1c.96-3.367 2.559-5.254 4.07-6.352.965.215 1.871.48 2.696.786-2.973 1.16-4.98 4.304-5.766 5.566z" fill="#263238"/><path d="M43 25a5 5 0 0 1-5 5H9.453a5 5 0 1 1 0-10H38a5 5 0 0 1 5 5z" fill="#ff5722"/><path d="M4.453 25c0 .344.035.68.102 1h38.343a4.933 4.933 0 0 0 0-2H4.555a4.962 4.962 0 0 0-.102 1z" fill="#d84315"/><path d="M44 30c-3 0-4-2-4-2s-1 2-4 2-4-2-4-2-1 2-4 2-4-2-4-2-1 2-4 2-4-2-4-2-1 2-4 2-4-2-4-2-1 2-4 2v8h40z" fill="#90caf9"/><path d="M44 34c-3 0-4-2-4-2s-1 2-4 2-4-2-4-2-1 2-4 2-4-2-4-2-1 2-4 2-4-2-4-2-1 2-4 2-4-2-4-2-1 2-4 2v4h40z" fill="#2196f3"/></svg>