<svg xmlns="http://www.w3.org/2000/svg" viewBox="0 0 40 40"><path d="M20.5 15.773s1-1.699 1-4.734c0-3.148-1-5.039-1-5.039" fill="none" stroke="#4788c7" stroke-miterlimit="10"/><path d="M15.5 29.5V16a1.5 1.5 0 0 1 1.5-1.5h8a1.5 1.5 0 0 1 1.5 1.5v13.5z" fill="#b6dcfe"/><path d="M25 15c.55 0 1 .45 1 1v13H16V16c0-.55.45-1 1-1h8m0-1h-8a2 2 0 0 0-2 2v14h12V16a2 2 0 0 0-2-2z" fill="#4788c7"/><path d="M1.5 10.5l36-9" fill="none" stroke-linecap="round" stroke="#4788c7" stroke-miterlimit="10"/><path d="M5.508 27.5c.156-4.309 2.246-8.863 2.8-10h24.387c.555 1.121 2.645 5.61 2.797 10z" fill="#dff0fe"/><path d="M32.383 18c.652 1.367 2.32 5.176 2.582 9H6.035c.27-3.762 1.938-7.613 2.59-9h23.758M33 17H8s-3 5.73-3 11h31c0-5.387-3-11-3-11z" fill="#4788c7"/><path d="M23.5 4a1.5 1.5 0 1 1-3 0 1.5 1.5 0 0 1 3 0z" fill="#b6dcfe"/><path d="M22 3c.55 0 1 .45 1 1s-.45 1-1 1-1-.45-1-1 .45-1 1-1m0-1a1.999 1.999 0 1 0 0 4 1.999 1.999 0 1 0 0-4z" fill="#4788c7"/><path d="M18.5 5a1.5 1.5 0 1 1-3 0 1.5 1.5 0 0 1 3 0z" fill="#b6dcfe"/><path d="M17 4c.55 0 1 .45 1 1s-.45 1-1 1-1-.45-1-1 .45-1 1-1m0-1a1.999 1.999 0 1 0 0 4 1.999 1.999 0 1 0 0-4zm3 14.285h1v10.86h-1z" fill="#4788c7"/><path d="M8.309 38.5C7.734 37.32 5.5 32.45 5.5 28c0-.223.004-.363.008-.5h29.984c.004.137.008.273.008.5 0 4.55-2.23 9.34-2.809 10.5z" fill="#98ccfd"/><path d="M35 28c0 4.14-1.906 8.512-2.617 10H8.62C7.911 36.492 6 32.062 6 28h29m.969-1H5.035c-.023.422-.035.543-.035 1 0 5.27 3 11 3 11h25s3-5.613 3-11c0-.457-.012-.555-.031-1z" fill="#4788c7"/></svg>