<svg xmlns="http://www.w3.org/2000/svg" viewBox="0 0 50 50"><path d="M45.063 1.875L20.405 7.969 4.438 11.937l.5 1.938L24.5 9.031c.836 1.489 2.969 6.192-.031 10.969H18v2h14v-2h-5.25c2.39-4.777.738-9.395-.281-11.469l19.093-4.719zM20.405 7.969A2.012 2.012 0 0 0 22 6a1.999 1.999 0 1 0-4 0 2 2 0 0 0 2 2c.137 0 .277-.004.406-.031zM28 2a1.999 1.999 0 1 0 0 4 1.999 1.999 0 1 0 0-4zM13.344 24l-.281.281C12.898 24.441 9 28.336 9 36s3.898 11.559 4.063 11.719l.28.281h23.313l.313-.281C37.133 47.555 41 43.55 41 36s-3.867-11.555-4.031-11.719L36.656 24zm.844 2H24v9H11.062c.266-5.063 2.38-8.102 3.126-9zM26 26h9.781c.754.926 2.926 3.996 3.188 9H26z"/></svg>