<svg xmlns="http://www.w3.org/2000/svg" viewBox="0 0 26 26"><path d="M3 4C1.3 4 0 5.3 0 7v12c0 1.7 1.3 3 3 3h20c1.7 0 3-1.3 3-3V7c0-1.7-1.3-3-3-3H3zm4 3l4 2v2L7 9l-4 2V9l4-2zm7 1h9v2h-9V8zm-8.805 4h3.61c.37 0 .71.204.883.531l1.195 2.248a.996.996 0 0 1 .117.469v3.22a.532.532 0 0 1-.531.532H9.53a.522.522 0 0 1-.53-.531V18H5v.469c0 .3-.23.531-.531.531H3.53a.532.532 0 0 1-.53-.531v-3.221c0-.164.04-.325.117-.469l1.196-2.248A.999.999 0 0 1 5.194 12zM14 12h6v2h-6v-2zm-9.5 3.75a.75.75 0 0 0-.75.75.75.75 0 0 0 .75.75.75.75 0 0 0 .75-.75.75.75 0 0 0-.75-.75zm5 0a.75.75 0 0 0-.75.75.75.75 0 0 0 .75.75.75.75 0 0 0 .75-.75.75.75 0 0 0-.75-.75zM14 16h9v2h-9v-2z"/></svg>