<svg xmlns="http://www.w3.org/2000/svg" viewBox="0 0 50 50"><path d="M25 14.906c-7.094 0-11.344 1.031-11.344 1.031h-.031l-.063.032c-1.37.488-3.742 1.16-4.812 3.25-.008.015-.023.015-.031.031-.278.516-.664 1.469-1.219 2.875S6.277 25.293 5.625 27c0 .004-.031-.004-.031 0h-1.5c-1.492 0-2.614.46-3.282 1.219C.145 28.977 0 29.89 0 30.594c0 .765.414 1.554 1.031 1.937S2.34 33 3.094 33h.25c-.028.078-.281.75-.281.75L3 33.906V47c0 1.645 1.355 3 3 3h4c1.645 0 3-1.355 3-3v-1h24v1c0 1.645 1.355 3 3 3h4c1.645 0 3-1.355 3-3V33.906l-.063-.156-.28-.75h.25c.726 0 1.394-.063 2.03-.438.637-.374 1.063-1.175 1.063-1.968 0-.703-.145-1.617-.813-2.375C48.52 27.46 47.398 27 45.907 27h-1.563c-1.266-3.285-2.617-6.793-3.032-7.781v-.032l-.03-.03c-1.075-2.153-3.567-2.817-4.876-3.22h-.062s-4.25-1.03-11.344-1.03zm0 2c6.906 0 10.875.969 10.875.969 1.29.402 3.11 1.156 3.625 2.188.344.82 1.55 3.945 2.688 6.906 0 .152.03.3.093.437.254.555.676 1.645.532 2.282-.07.316-.192.55-.657.812s-1.332.5-2.75.5H10.594c-1.367 0-2.215-.242-2.688-.5-.472-.258-.601-.492-.687-.813-.176-.64.164-1.73.406-2.312.027-.059.047-.125.063-.188a469.77 469.77 0 0 1 1.687-4.312c.555-1.406 1.02-2.55 1.094-2.688l.031-.03c.523-1.052 2.227-1.778 3.625-2.282.04-.016.086-.02.125-.031.172-.043 4-.938 10.75-.938zM25 18c-2.2 0-4 1.8-4 4s1.8 4 4 4 4-1.8 4-4-1.8-4-4-4zm0 2c1.117 0 2 .883 2 2s-.883 2-2 2-2-.883-2-2 .883-2 2-2zm-9.5 1a4.516 4.516 0 0 0-4.5 4.5c0 2.473 2.027 4.5 4.5 4.5s4.5-2.027 4.5-4.5-2.027-4.5-4.5-4.5zm19 0a4.516 4.516 0 0 0-4.5 4.5c0 2.473 2.027 4.5 4.5 4.5s4.5-2.027 4.5-4.5-2.027-4.5-4.5-4.5zm-19 2c1.39 0 2.5 1.11 2.5 2.5S16.89 28 15.5 28 13 26.89 13 25.5s1.11-2.5 2.5-2.5zm19 0c1.39 0 2.5 1.11 2.5 2.5S35.89 28 34.5 28 32 26.89 32 25.5s1.11-2.5 2.5-2.5zM4.094 29h.75c-.344.914-.508 1.355-.75 2h-1c-.547 0-.89-.121-1-.188-.11-.066-.094.016-.094-.218 0-.399.078-.766.313-1.032.234-.265.671-.562 1.78-.562zm41.031 0h.781c1.11 0 1.547.297 1.782.563.234.265.312.632.312 1.03 0 .31.023.2-.063.25-.085.052-.457.157-1.03.157h-1.032c-.25-.652-.395-1.07-.75-2zM6.031 31.531c.25.274.543.52.907.719.89.492 2.074.75 3.656.75h28.812c1.633 0 2.82-.246 3.719-.75.328-.184.578-.438.813-.688A312.17 312.17 0 0 0 45 34.312v8.782c0 .398-.508.906-.906.906H5.906A.894.894 0 0 1 5 43.094V34.28c.023-.062.695-1.86 1.031-2.75zM9 34c-1.645 0-3 1.355-3 3 0 .879.367 1.676.875 2.219.508.543 1.105.89 1.719 1.25.836.492 1.39.851 2.062 1.125.672.273 1.414.406 2.344.406 2.21 0 4-1.79 4-4s-1.79-4-4-4zm28 0c-2.21 0-4 1.79-4 4s1.79 4 4 4c.93 0 1.672-.133 2.344-.406.672-.274 1.226-.633 2.062-1.125.614-.36 1.211-.707 1.719-1.25A3.29 3.29 0 0 0 44 37c0-1.645-1.355-3-3-3zM9 36h4c1.191 0 2 .809 2 2 0 1.191-.809 2-2 2-.773 0-1.133-.074-1.563-.25-.43-.176-.98-.492-1.843-1-.586-.344-1.008-.648-1.25-.906S8 37.418 8 37c0-.555.445-1 1-1zm28 0h4c.555 0 1 .445 1 1 0 .418-.102.586-.344.844s-.664.562-1.25.906c-.863.508-1.414.824-1.843 1-.43.176-.79.25-1.563.25-1.191 0-2-.809-2-2 0-1.191.809-2 2-2zM5 45.844c.29.097.59.156.906.156H11v1c0 .555-.445 1-1 1H6c-.555 0-1-.445-1-1zm40 0V47c0 .555-.445 1-1 1h-4c-.555 0-1-.445-1-1v-1h5.094c.316 0 .62-.063.906-.156z"/></svg>