<svg xmlns="http://www.w3.org/2000/svg" viewBox="0 0 50 50"><path d="M2 0C1.477 0 .941.184.562.563.184.94 0 1.477 0 2v46c0 .523.184 1.059.563 1.438C.94 49.816 1.477 50 2 50h46c.523 0 1.059-.184 1.438-.563.378-.378.562-.914.562-1.437V2c0-.523-.184-1.059-.563-1.438C49.06.184 48.523 0 48 0zm0 2h46v46H2zm20.5 2c-1.746 0-3.219 1.32-3.469 3H17c-3.824 0-7 3.008-7 6.688v21.624c0 2.813 1.793 5.153 4.281 6.157L12 43.187a1.016 1.016 0 1 0 1.219 1.626L16.906 42h16.188l3.687 2.813A1.016 1.016 0 1 0 38 43.187l-2.281-1.718C38.227 40.449 40 38.074 40 35.312V13.689C40 9.925 36.805 7 33 7h-2.031c-.25-1.68-1.723-3-3.469-3A3.49 3.49 0 0 0 25 5.063 3.49 3.49 0 0 0 22.5 4zm0 2c.84 0 1.5.66 1.5 1.5S23.34 9 22.5 9 21 8.34 21 7.5 21.66 6 22.5 6zm5 0c.84 0 1.5.66 1.5 1.5S28.34 9 27.5 9 26 8.34 26 7.5 26.66 6 27.5 6zM17 9h2.375c.57 1.164 1.75 2 3.125 2A3.49 3.49 0 0 0 25 9.937 3.49 3.49 0 0 0 27.5 11c1.375 0 2.555-.836 3.125-2H33c2.797 0 5 2.05 5 4.688v21.624C38 37.833 35.773 40 33 40H17c-2.797 0-5-2.05-5-4.688V13.689C12 11.168 14.227 9 17 9zm0 6c-1.586 0-3 1.21-3 2.813v6.28c0 1.602 1.414 2.813 3 2.813h16c1.586 0 3-1.21 3-2.812v-6.282c0-1.6-1.414-2.812-3-2.812zm0 2h16c.613 0 1 .414 1 .813v6.28c0 .4-.387.813-1 .813H17c-.613 0-1-.414-1-.812v-6.282c0-.398.387-.812 1-.812zm1 13c-2.2 0-4 1.8-4 4s1.8 4 4 4 4-1.8 4-4-1.8-4-4-4zm14 0c-2.2 0-4 1.8-4 4s1.8 4 4 4 4-1.8 4-4-1.8-4-4-4zm-14 2c1.117 0 2 .883 2 2s-.883 2-2 2-2-.883-2-2 .883-2 2-2zm14 0c1.117 0 2 .883 2 2s-.883 2-2 2-2-.883-2-2 .883-2 2-2z"/></svg>