<svg xmlns="http://www.w3.org/2000/svg" viewBox="0 0 40 40"><rect x="1.5" y="1.5" width="37" height="37" fill="#f2faff"/><path d="M38 2v36H2V2h36m1-1H1v38h38V1z" fill="#788b9c"/><polygon points="8.771,38 11,38 16,31 13.771,31" fill="#66798f"/><polygon points="26.229,31 24,31 29,38 31.229,38" fill="#66798f"/><path d="M15 33.5A6.508 6.508 0 0 1 8.5 27V13c0-2.733 1.767-4.5 4.5-4.5h2.5V8c0-1.215 1.285-2.5 2.5-2.5h4c1.215 0 2.5 1.285 2.5 2.5v.5H27c2.733 0 4.5 1.767 4.5 4.5v14c0 3.584-2.916 6.5-6.5 6.5H15z" fill="#f78f8f"/><path d="M22 6c.953 0 2 1.047 2 2v1h3c2.43 0 4 1.57 4 4v14c0 3.308-2.692 6-6 6H15c-3.308 0-6-2.692-6-6V13c0-2.43 1.57-4 4-4h3V8c0-.953 1.047-2 2-2h4m0-1h-4c-1.499 0-3 1.501-3 3h-2c-2.998 0-5 2.002-5 5v14c0 3.85 3.15 7 7 7h10c3.85 0 7-3.15 7-7V13c0-2.998-2.002-5-5-5h-2c0-1.499-1.501-3-3-3z" fill="#c74343"/><rect x="8.5" y="13.5" width="23" height="9" fill="#c2e8ff"/><path d="M31 14v8H9v-8h22m1-1H8v10h24V13z" fill="#c74343"/><circle cx="20" cy="28" r="2.5" fill="#fff"/></svg>