<svg xmlns="http://www.w3.org/2000/svg" viewBox="0 0 80 80"><path d="M12.848 14l1.12 7.86L7.345 37H3v16.566l.484.293S7.992 56.594 9.934 62A1.001 1.001 0 0 0 10 64c1.332 0 2.45-.605 3.45-1.105S15.331 62 16 62c.668 0 1.55.395 2.55.895 1 .5 2.118 1.105 3.45 1.105 1.332 0 2.45-.605 3.45-1.105S27.331 62 28 62c.668 0 1.55.395 2.55.895 1 .5 2.118 1.105 3.45 1.105 1.332 0 2.45-.605 3.45-1.105S39.331 62 40 62c.668 0 1.55.395 2.55.895 1 .5 2.118 1.105 3.45 1.105 1.332 0 2.45-.605 3.45-1.105S51.331 62 52 62c.668 0 1.55.395 2.55.895 1 .5 2.118 1.105 3.45 1.105 1.332 0 2.45-.605 3.45-1.105S63.331 62 64 62c.668 0 1.55.395 2.55.895 1 .5 2.118 1.105 3.45 1.105.36.004.695-.184.879-.496a1.01 1.01 0 0 0 0-1.008c-.184-.312-.52-.5-.879-.496-.668 0-1.55-.395-2.55-.895-.27-.132-.548-.273-.837-.406 2.32-2.656 8.703-10.844 10.375-22.558L77.152 37h-11.57L53.578 16H35.324l-2 5h-6.808l-5-7zm2.304 2h5.332l3.575 5h-8.192zm21.524 2h15.746l1.875 3.29A1.002 1.002 0 0 0 55 23a.927.927 0 0 0 .254-.035l3.473 6.074a1 1 0 1 0 .96 1.684L63.278 37h-.066c-1.145 0-2.25.281-3.23.797A1.002 1.002 0 0 0 58 38a.99.99 0 0 0 .472.848c-.407.375-.774.8-1.086 1.27L55.465 43H19.469L15.8 38.598a1 1 0 0 0-1.242-1.493l-.09-.105H9.53l6.125-14h19.02l.023-.047A1.002 1.002 0 0 0 36 22a1 1 0 0 0-.562-.898zM39 21c-.55 0-1 .45-1 1s.45 1 1 1 1-.45 1-1-.45-1-1-1zm4 0c-.55 0-1 .45-1 1s.45 1 1 1 1-.45 1-1-.45-1-1-1zm4 0c-.55 0-1 .45-1 1s.45 1 1 1 1-.45 1-1-.45-1-1-1zm4 0c-.55 0-1 .45-1 1s.45 1 1 1 1-.45 1-1-.45-1-1-1zm-36 8c-.55 0-1 .45-1 1s.45 1 1 1 1-.45 1-1-.45-1-1-1zm4 0c-.55 0-1 .45-1 1s.45 1 1 1 1-.45 1-1-.45-1-1-1zm4 0c-.55 0-1 .45-1 1s.45 1 1 1 1-.45 1-1-.45-1-1-1zm4 0c-.55 0-1 .45-1 1s.45 1 1 1 1-.45 1-1-.45-1-1-1zm4 0c-.55 0-1 .45-1 1s.45 1 1 1 1-.45 1-1-.45-1-1-1zm4 0c-.55 0-1 .45-1 1s.45 1 1 1 1-.45 1-1-.45-1-1-1zm4 0c-.55 0-1 .45-1 1s.45 1 1 1 1-.45 1-1-.45-1-1-1zm4 0c-.55 0-1 .45-1 1s.45 1 1 1 1-.45 1-1-.45-1-1-1zm4 0c-.55 0-1 .45-1 1s.45 1 1 1 1-.45 1-1-.45-1-1-1zm4 0c-.55 0-1 .45-1 1s.45 1 1 1 1-.45 1-1-.45-1-1-1zm4 0c-.55 0-1 .45-1 1s.45 1 1 1 1-.45 1-1-.45-1-1-1zm-36 8c-.55 0-1 .45-1 1s.45 1 1 1 1-.45 1-1-.45-1-1-1zm4 0c-.55 0-1 .45-1 1s.45 1 1 1 1-.45 1-1-.45-1-1-1zm4 0c-.55 0-1 .45-1 1s.45 1 1 1 1-.45 1-1-.45-1-1-1zm4 0c-.55 0-1 .45-1 1s.45 1 1 1 1-.45 1-1-.45-1-1-1zm4 0c-.55 0-1 .45-1 1s.45 1 1 1 1-.45 1-1-.45-1-1-1zm4 0c-.55 0-1 .45-1 1s.45 1 1 1 1-.45 1-1-.45-1-1-1zm4 0c-.55 0-1 .45-1 1s.45 1 1 1 1-.45 1-1-.45-1-1-1zm4 0c-.55 0-1 .45-1 1s.45 1 1 1 1-.45 1-1-.45-1-1-1zm4 0c-.55 0-1 .45-1 1s.45 1 1 1 1-.45 1-1-.45-1-1-1zm4 0c-.55 0-1 .45-1 1s.45 1 1 1 1-.45 1-1-.45-1-1-1zM5 39h2.766a.953.953 0 0 0 .445 0h5.32l5 6h38.004l2.516-3.773A5.004 5.004 0 0 1 63.21 39h11.56c-2.075 11.871-9.06 19.773-10.235 21.035A4.797 4.797 0 0 0 64 60c-1.332 0-2.45.605-3.45 1.105S58.669 62 58 62c-.668 0-1.55-.395-2.55-.895-1-.5-2.118-1.105-3.45-1.105-1.332 0-2.45.605-3.45 1.105S46.669 62 46 62c-.668 0-1.55-.395-2.55-.895-1-.5-2.118-1.105-3.45-1.105-1.332 0-2.45.605-3.45 1.105S34.669 62 34 62c-.668 0-1.55-.395-2.55-.895-1-.5-2.118-1.105-3.45-1.105-1.332 0-2.45.605-3.45 1.105S22.669 62 22 62c-.668 0-1.55-.395-2.55-.895-1-.5-2.118-1.105-3.45-1.105-1.332 0-2.45.605-3.45 1.105-.245.125-.464.211-.695.317C9.867 55.758 5.746 53.016 5 52.539zm4 4c-.55 0-1 .45-1 1s.45 1 1 1 1-.45 1-1-.45-1-1-1zm4 0c-.55 0-1 .45-1 1s.45 1 1 1 1-.45 1-1-.45-1-1-1zm48 0c-.55 0-1 .45-1 1s.45 1 1 1 1-.45 1-1-.45-1-1-1zm4 0c-.55 0-1 .45-1 1s.45 1 1 1 1-.45 1-1-.45-1-1-1zm4 0c-.55 0-1 .45-1 1s.45 1 1 1 1-.45 1-1-.45-1-1-1zM9 48c-.55 0-1 .45-1 1s.45 1 1 1 1-.45 1-1-.45-1-1-1zm4 0c-.55 0-1 .45-1 1s.45 1 1 1 1-.45 1-1-.45-1-1-1zm4 0c-.55 0-1 .45-1 1s.45 1 1 1 1-.45 1-1-.45-1-1-1zm4 0c-.55 0-1 .45-1 1s.45 1 1 1 1-.45 1-1-.45-1-1-1zm4 0c-.55 0-1 .45-1 1s.45 1 1 1 1-.45 1-1-.45-1-1-1zm4 0c-.55 0-1 .45-1 1s.45 1 1 1 1-.45 1-1-.45-1-1-1zm4 0c-.55 0-1 .45-1 1s.45 1 1 1 1-.45 1-1-.45-1-1-1zm4 0c-.55 0-1 .45-1 1s.45 1 1 1 1-.45 1-1-.45-1-1-1zm4 0c-.55 0-1 .45-1 1s.45 1 1 1 1-.45 1-1-.45-1-1-1zm4 0c-.55 0-1 .45-1 1s.45 1 1 1 1-.45 1-1-.45-1-1-1zm4 0c-.55 0-1 .45-1 1s.45 1 1 1 1-.45 1-1-.45-1-1-1zm4 0c-.55 0-1 .45-1 1s.45 1 1 1 1-.45 1-1-.45-1-1-1zm4 0c-.55 0-1 .45-1 1s.45 1 1 1 1-.45 1-1-.45-1-1-1zm4 0c-.55 0-1 .45-1 1s.45 1 1 1 1-.45 1-1-.45-1-1-1zm4 0c-.55 0-1 .45-1 1s.45 1 1 1 1-.45 1-1-.45-1-1-1zM6 62c-.55 0-1 .45-1 1s.45 1 1 1 1-.45 1-1-.45-1-1-1zm68 0c-.55 0-1 .45-1 1s.45 1 1 1 1-.45 1-1-.45-1-1-1z"/></svg>