<?xml version="1.0" encoding="utf-8"?>
<!-- Generator: Adobe Illustrator 22.0.1, SVG Export Plug-In . SVG Version: 6.00 Build 0)  -->
<svg version="1.1" xmlns="http://www.w3.org/2000/svg" xmlns:xlink="http://www.w3.org/1999/xlink" x="0px" y="0px"
	 viewBox="0 0 216.194 182.151" enable-background="new 0 0 216.194 182.151" xml:space="preserve">
<g id="BACKGROUND">
</g>
<g id="OBJECTS">
	<g id="Firework">
	</g>
	<g>
		<g>
			<g>
				<path fill="#E56942" d="M119.408,173.712c-6.895,6.895-18.073,6.895-24.968,0l-71.787-71.787
					c-6.895-6.895-6.895-18.073,0-24.968L94.44,5.171c6.895-6.895,18.073-6.895,24.968,0l71.787,71.787
					c6.895,6.895,6.895,18.073,0,24.968L119.408,173.712z"/>
				<path fill="#D3543C" d="M106.924,167.9c-1.78,0-3.457-0.695-4.719-1.956L30.418,94.16c-2.599-2.601-2.599-6.836,0.003-9.437
					l71.783-71.786c1.262-1.259,2.939-1.954,4.719-1.954c1.78,0,3.457,0.695,4.719,1.956l71.787,71.785
					c2.599,2.601,2.599,6.836-0.004,9.437l-71.783,71.786C110.381,167.205,108.704,167.9,106.924,167.9z"/>
				<path fill="#C64332" d="M106.924,69.025c-27.827,0-52.695,12.586-69.29,32.351l64.571,64.569
					c1.262,1.26,2.939,1.956,4.719,1.956c1.78,0,3.457-0.695,4.719-1.954l64.569-64.573
					C159.617,81.611,134.75,69.025,106.924,69.025z"/>
				<path fill="#BC392F" d="M171.353,96.077l-59.72,59.72c-1.244,1.288-2.932,1.954-4.709,1.954c-1.777,0-3.465-0.666-4.708-1.954
					L42.496,96.076c-1.676,1.703-3.308,3.451-4.846,5.282l64.567,64.567c1.244,1.288,2.932,1.954,4.708,1.954
					c1.777,0,3.465-0.666,4.709-1.954l64.565-64.566C174.661,99.528,173.029,97.78,171.353,96.077z"/>
			</g>
			<g>
				<path fill="#EA6F4E" d="M106.924,176.504c-4.076,0-7.908-1.587-10.797-4.471l-71.79-71.79c-2.885-2.885-4.469-6.72-4.469-10.802
					c0-4.081,1.587-7.919,4.473-10.802L96.123,6.853c2.892-2.887,6.729-4.474,10.801-4.474c4.076,0,7.908,1.587,10.797,4.471
					l71.79,71.79c2.885,2.885,4.469,6.72,4.469,10.802c0,4.081-1.587,7.919-4.473,10.802l-71.783,71.785
					C114.832,174.917,110.996,176.504,106.924,176.504z M106.924,8.604c-2.413,0-4.687,0.942-6.403,2.655L28.738,83.039
					c-1.705,1.709-2.649,3.981-2.649,6.401s0.94,4.694,2.649,6.403l71.787,71.786c3.425,3.414,9.371,3.42,12.803-0.005
					l71.783-71.781c1.705-1.709,2.649-3.981,2.649-6.401s-0.94-4.694-2.649-6.403l-71.786-71.787
					C111.611,9.546,109.337,8.604,106.924,8.604z"/>
				<g>
					<path fill="#F48873" d="M106.924,174.504c-3.54,0-6.876-1.38-9.387-3.885L25.749,98.83c-2.503-2.503-3.882-5.839-3.882-9.389
						c0-3.553,1.379-6.886,3.887-9.387L97.537,8.268c2.516-2.507,5.848-3.889,9.387-3.889c3.54,0,6.876,1.38,9.387,3.885
						l71.787,71.79c2.503,2.503,3.882,5.839,3.882,9.389c0,3.553-1.379,6.886-3.887,9.387l-71.783,71.785
						C113.795,173.123,110.464,174.504,106.924,174.504z M24.088,89.441c0,2.952,1.15,5.728,3.236,7.817l71.788,71.788
						c2.004,1.998,4.85,3.145,7.808,3.145c2.963,0,5.813-1.147,7.817-3.149l71.788-71.783c2.087-2.095,3.236-4.869,3.236-7.815
						c0-2.952-1.149-5.728-3.236-7.817L114.737,9.838c-2.091-2.084-4.863-3.234-7.813-3.234c-2.95,0-5.726,1.152-7.817,3.24
						L27.324,81.626C25.237,83.721,24.088,86.495,24.088,89.441z"/>
				</g>
			</g>
			<g>
				<path fill="#DD6140" d="M106.924,169.731c-2.27,0-4.405-0.885-6.013-2.49L29.124,95.454c-1.602-1.603-2.485-3.74-2.485-6.013
					c0-2.274,0.883-4.408,2.488-6.012l71.783-71.787c3.232-3.216,8.816-3.205,12.027,0l71.786,71.787
					c1.602,1.604,2.485,3.74,2.485,6.014c0,2.274-0.883,4.408-2.488,6.012l-71.783,71.787
					C111.325,168.848,109.191,169.731,106.924,169.731z M106.924,12.813c-1.291,0-2.51,0.504-3.425,1.419L31.716,86.017
					c-0.912,0.913-1.416,2.129-1.416,3.425s0.5,2.512,1.412,3.423l71.786,71.785c1.83,1.831,5.02,1.831,6.85,0l71.783-71.785
					c0.912-0.913,1.416-2.129,1.416-3.425s-0.501-2.512-1.412-3.423l-71.787-71.785C109.434,13.317,108.215,12.813,106.924,12.813z"
					/>
			</g>
		</g>
		<g>
			<path fill="#C64332" d="M137.336,29.739c-0.632-0.036-1.227,0.12-1.728,0.411c0-0.001,0-0.003,0-0.005
				c-0.033,0.019-0.058,0.047-0.09,0.068c-0.145,0.091-0.282,0.192-0.407,0.305c-0.058,0.052-0.107,0.11-0.161,0.166
				c-0.093,0.098-0.179,0.201-0.256,0.311c-0.049,0.069-0.094,0.138-0.136,0.211c-0.066,0.114-0.12,0.234-0.169,0.357
				c-0.031,0.077-0.065,0.151-0.089,0.231c-0.047,0.158-0.073,0.324-0.09,0.493c-0.004,0.036-0.017,0.069-0.019,0.105
				c0.048-0.948,0.097-1.897,0.145-2.845c0.015-0.283-0.017-0.556-0.071-0.823c-0.008-0.038-0.021-0.073-0.03-0.111
				c-0.055-0.229-0.133-0.449-0.234-0.659c-0.016-0.034-0.034-0.067-0.051-0.101c-0.118-0.226-0.258-0.437-0.423-0.631
				c-0.004-0.005-0.008-0.011-0.013-0.016c-0.635-0.738-1.578-1.235-2.672-1.284c-1.065-0.048-2.032,0.355-2.724,1.022
				c-0.035,0.033-0.065,0.07-0.099,0.105c-0.138,0.145-0.263,0.298-0.374,0.464c-0.05,0.074-0.097,0.148-0.141,0.226
				c-0.077,0.138-0.14,0.282-0.197,0.431c-0.039,0.101-0.083,0.199-0.112,0.304c-0.041,0.151-0.06,0.31-0.08,0.469
				c-0.012,0.096-0.044,0.184-0.048,0.282c-0.121,3.273-0.242,6.547-0.363,9.82c-12.392-0.458-24.797-0.458-37.19-0.001
				c0.001,0.023-0.012,0.051-0.016,0.075c-0.122-3.298-0.243-6.596-0.365-9.894c-0.006-0.176-0.053-0.339-0.086-0.507
				c-0.014-0.07-0.018-0.144-0.036-0.212c-0.038-0.143-0.094-0.275-0.151-0.41c-0.045-0.108-0.09-0.215-0.145-0.317
				c-0.058-0.105-0.121-0.206-0.19-0.304c-0.091-0.133-0.193-0.256-0.302-0.375c-0.056-0.059-0.106-0.121-0.166-0.176
				c-0.691-0.655-1.651-1.048-2.706-1.002c-1.405,0.061-2.565,0.859-3.128,1.97c-0.004,0.007-0.007,0.014-0.011,0.022
				c-0.122,0.245-0.216,0.502-0.274,0.773c0,0.002-0.001,0.003-0.001,0.005c-0.059,0.277-0.095,0.561-0.079,0.855
				c0.048,0.933,0.095,1.866,0.143,2.799c-0.008-0.101-0.035-0.196-0.054-0.294c-0.014-0.076-0.021-0.155-0.042-0.229
				c-0.032-0.114-0.08-0.22-0.126-0.328c-0.037-0.087-0.075-0.173-0.121-0.256c-0.054-0.097-0.113-0.188-0.179-0.277
				c-0.061-0.084-0.127-0.162-0.197-0.239c-0.07-0.076-0.137-0.153-0.215-0.222c-0.094-0.084-0.198-0.155-0.303-0.227
				c-0.06-0.041-0.111-0.094-0.174-0.13c0,0.003,0,0.006,0.001,0.009c-0.502-0.293-1.099-0.451-1.734-0.415
				c-1.686,0.097-2.952,1.458-2.853,3.021c0.375,5.959,0.75,11.917,1.125,17.876c0.1,1.563,1.467,2.785,3.073,2.695
				c0.604-0.035,1.154-0.26,1.6-0.61v0c0.001,0,0.001-0.001,0.002-0.001c0.156-0.122,0.296-0.262,0.424-0.412
				c0.063-0.073,0.115-0.152,0.171-0.231c0.056-0.081,0.111-0.163,0.159-0.25c0.059-0.105,0.11-0.213,0.156-0.326
				c0.027-0.069,0.049-0.139,0.071-0.21c0.041-0.129,0.079-0.256,0.101-0.392c0.008-0.051,0.006-0.104,0.012-0.156
				c0.013-0.118,0.029-0.234,0.027-0.355c0.048,0.93,0.095,1.859,0.142,2.789c0.015,0.292,0.076,0.568,0.158,0.835
				c0.007,0.021,0.016,0.041,0.023,0.062c0.077,0.237,0.179,0.459,0.302,0.67c0.017,0.028,0.034,0.056,0.051,0.083
				c0.132,0.211,0.282,0.405,0.455,0.582c0.01,0.01,0.019,0.022,0.029,0.032c0.667,0.666,1.593,1.067,2.612,1.023
				c0.723-0.032,1.385-0.29,1.925-0.7c0,0.002,0,0.003,0,0.005c0.032-0.024,0.056-0.058,0.088-0.084
				c0.152-0.124,0.296-0.257,0.425-0.405c0.076-0.086,0.139-0.179,0.206-0.271c0.072-0.1,0.14-0.201,0.2-0.308
				c0.07-0.122,0.131-0.247,0.186-0.377c0.035-0.085,0.063-0.172,0.091-0.26c0.051-0.155,0.098-0.308,0.127-0.471
				c0.008-0.049,0.007-0.101,0.013-0.151c0.024-0.184,0.056-0.366,0.049-0.557c-0.122-3.299-0.244-6.599-0.365-9.898
				c0.005,0.03,0.02,0.057,0.021,0.088c12.293-0.454,24.599-0.453,36.892,0.001c-0.121,3.27-0.241,6.54-0.362,9.809
				c-0.004,0.116,0.023,0.225,0.03,0.339c0.009,0.134,0.012,0.269,0.035,0.399c0.024,0.13,0.063,0.252,0.101,0.377
				c0.037,0.124,0.076,0.245,0.127,0.362c0.046,0.106,0.095,0.207,0.151,0.306c0.076,0.138,0.162,0.267,0.255,0.392
				c0.051,0.068,0.098,0.138,0.154,0.203c0.601,0.698,1.468,1.159,2.452,1.202c1.013,0.045,1.934-0.35,2.599-1.007
				c0.028-0.028,0.053-0.058,0.08-0.087c0.148-0.156,0.279-0.325,0.396-0.507c0.033-0.052,0.065-0.103,0.095-0.156
				c0.101-0.177,0.184-0.363,0.252-0.559c0.02-0.056,0.044-0.11,0.061-0.167c0.076-0.257,0.131-0.523,0.146-0.802
				c0.048-0.945,0.097-1.891,0.145-2.836c-0.002,0.051,0.01,0.098,0.011,0.148c0.002,0.15,0.008,0.3,0.033,0.445
				c0.017,0.096,0.046,0.186,0.072,0.279c0.032,0.113,0.067,0.224,0.112,0.332c0.035,0.084,0.074,0.164,0.117,0.244
				c0.064,0.121,0.138,0.234,0.218,0.344c0.039,0.052,0.073,0.106,0.115,0.156c0.495,0.593,1.215,0.995,2.041,1.042
				c1.605,0.091,2.973-1.131,3.073-2.695c0.375-5.959,0.75-11.918,1.125-17.876C140.288,31.196,139.022,29.836,137.336,29.739z
				 M78.734,49.841c-0.177,0.01-0.303-0.127-0.312-0.272c-0.319-5.293-0.637-10.587-0.955-15.88
				c-0.011-0.173,0.104-0.297,0.287-0.308c0.152-0.008,0.31,0.099,0.321,0.272c0.312,5.294,0.624,10.587,0.936,15.881
				C79.019,49.678,78.881,49.831,78.734,49.841z M80.075,51.1c-0.176,0.011-0.302-0.129-0.31-0.273
				c-0.356-6.183-0.712-12.366-1.068-18.549c-0.01-0.174,0.106-0.297,0.288-0.307c0.153-0.009,0.311,0.099,0.321,0.272
				c0.349,6.184,0.698,12.367,1.046,18.55C80.361,50.939,80.221,51.092,80.075,51.1z M81.265,49.696
				c-0.177,0.008-0.303-0.13-0.31-0.274c-0.291-5.295-0.583-10.59-0.874-15.885c-0.009-0.174,0.105-0.296,0.288-0.306
				c0.152-0.008,0.31,0.1,0.32,0.273c0.285,5.295,0.57,10.59,0.855,15.886C81.552,49.536,81.412,49.688,81.265,49.696z
				 M85.27,52.692c-0.175,0.008-0.298-0.101-0.306-0.276c-0.351-7.433-0.701-14.867-1.052-22.3
				c-0.007-0.146,0.109-0.295,0.293-0.305c0.183-0.009,0.313,0.131,0.319,0.276c0.342,7.434,0.684,14.867,1.025,22.301
				C85.557,52.563,85.445,52.683,85.27,52.692z M86.61,54.52c-0.175,0.007-0.299-0.132-0.304-0.277
				c-0.387-8.681-0.774-17.362-1.161-26.044c-0.008-0.174,0.108-0.325,0.293-0.332c0.153-0.006,0.314,0.132,0.321,0.305
				c0.377,8.682,0.754,17.363,1.13,26.045C86.896,54.362,86.755,54.515,86.61,54.52z M87.785,52.581
				c-0.176,0.007-0.297-0.104-0.305-0.278c-0.313-7.435-0.625-14.87-0.938-22.305c-0.007-0.145,0.111-0.294,0.294-0.303
				c0.153-0.005,0.313,0.132,0.318,0.278c0.304,7.436,0.607,14.871,0.911,22.306C88.072,52.452,87.932,52.575,87.785,52.581z
				 M125.291,40.219c-11.46-0.392-22.929-0.392-34.389,0c-0.006-0.176-0.012-0.352-0.018-0.528c11.472-0.392,22.954-0.392,34.425,0
				C125.304,39.867,125.298,40.043,125.291,40.219z M128.408,52.581c-0.145-0.006-0.288-0.127-0.281-0.302
				c0.304-7.435,0.607-14.871,0.911-22.306c0.006-0.146,0.165-0.283,0.318-0.278c0.184,0.008,0.3,0.158,0.294,0.303
				c-0.313,7.435-0.625,14.87-0.937,22.305C128.706,52.477,128.584,52.589,128.408,52.581z M129.583,54.52
				c-0.146-0.007-0.285-0.158-0.279-0.303c0.377-8.682,0.753-17.363,1.13-26.045c0.008-0.175,0.167-0.312,0.321-0.305
				c0.184,0.007,0.301,0.158,0.293,0.332c-0.387,8.681-0.774,17.362-1.161,26.044C129.882,54.388,129.758,54.526,129.583,54.52z
				 M131.23,52.416c-0.009,0.174-0.131,0.285-0.306,0.276c-0.147-0.007-0.287-0.129-0.279-0.303
				c0.342-7.434,0.683-14.867,1.025-22.301c0.006-0.146,0.167-0.285,0.319-0.276c0.183,0.008,0.3,0.16,0.293,0.305
				C131.932,37.549,131.581,44.983,131.23,52.416z M134.958,49.698c-0.176-0.009-0.286-0.162-0.278-0.306
				c0.285-5.295,0.57-10.59,0.856-15.886c0.01-0.173,0.137-0.284,0.32-0.273c0.152,0.009,0.267,0.13,0.258,0.305
				c-0.291,5.295-0.582,10.59-0.874,15.885C135.231,49.568,135.106,49.706,134.958,49.698z M136.118,51.1
				c-0.147-0.008-0.285-0.163-0.277-0.306c0.349-6.183,0.697-12.367,1.046-18.55c0.01-0.174,0.168-0.281,0.321-0.272
				c0.183,0.01,0.299,0.134,0.288,0.307c-0.356,6.183-0.712,12.366-1.068,18.549C136.42,50.972,136.294,51.11,136.118,51.1z
				 M137.771,49.569c-0.008,0.146-0.135,0.284-0.312,0.272c-0.147-0.009-0.285-0.162-0.277-0.307
				c0.312-5.294,0.624-10.588,0.936-15.881c0.011-0.173,0.169-0.28,0.321-0.272c0.182,0.01,0.297,0.133,0.286,0.308
				C138.408,38.982,138.09,44.275,137.771,49.569z"/>
			<path fill="#C64332" d="M108.095,30.844c0.308,0,0.555-0.249,0.555-0.555v-3.798c0-0.306-0.247-0.555-0.555-0.555
				c-0.308,0-0.555,0.25-0.555,0.555v3.798C107.54,30.594,107.787,30.844,108.095,30.844z"/>
			<path fill="#C64332" d="M108.095,51.542c-0.308,0-0.555,0.249-0.555,0.555v3.798c0,0.306,0.247,0.555,0.555,0.555
				c0.308,0,0.555-0.249,0.555-0.555v-3.798C108.651,51.791,108.403,51.542,108.095,51.542z"/>
			<path fill="#C64332" d="M102.165,32.028c0.104,0.178,0.291,0.278,0.481,0.278c0.095,0,0.191-0.024,0.278-0.074
				c0.265-0.154,0.356-0.494,0.204-0.759l-1.9-3.29c-0.156-0.269-0.503-0.356-0.759-0.204c-0.265,0.154-0.356,0.495-0.204,0.759
				L102.165,32.028z"/>
			<path fill="#C64332" d="M114.029,50.36c-0.16-0.267-0.503-0.358-0.759-0.204c-0.265,0.154-0.356,0.495-0.204,0.759l1.9,3.288
				c0.104,0.178,0.291,0.278,0.481,0.278c0.095,0,0.191-0.024,0.278-0.074c0.265-0.154,0.356-0.494,0.204-0.759L114.029,50.36z"/>
			<path fill="#C64332" d="M95.086,34.323l3.288,1.9c0.087,0.05,0.182,0.074,0.278,0.074c0.191,0,0.377-0.1,0.481-0.278
				c0.152-0.265,0.061-0.605-0.204-0.759l-3.288-1.9c-0.265-0.152-0.607-0.065-0.759,0.204
				C94.73,33.828,94.821,34.168,95.086,34.323z"/>
			<path fill="#C64332" d="M121.109,48.063l-3.292-1.9c-0.265-0.15-0.607-0.065-0.759,0.204c-0.152,0.267-0.061,0.605,0.204,0.759
				l3.292,1.9c0.087,0.05,0.182,0.074,0.278,0.074c0.191,0,0.377-0.1,0.481-0.278C121.465,48.555,121.374,48.217,121.109,48.063z"/>
			<path fill="#C64332" d="M98.374,46.163l-3.288,1.9c-0.265,0.154-0.356,0.494-0.204,0.759C94.986,49,95.173,49.1,95.364,49.1
				c0.095,0,0.191-0.024,0.278-0.074l3.288-1.9c0.265-0.154,0.356-0.495,0.204-0.759C98.977,46.098,98.63,46.013,98.374,46.163z"/>
			<path fill="#C64332" d="M117.539,36.296c0.095,0,0.191-0.024,0.278-0.074l3.292-1.9c0.265-0.154,0.356-0.492,0.204-0.759
				c-0.16-0.269-0.499-0.356-0.759-0.204l-3.292,1.9c-0.265,0.154-0.356,0.492-0.204,0.759
				C117.161,36.196,117.348,36.296,117.539,36.296z"/>
			<path fill="#C64332" d="M102.924,50.156c-0.265-0.154-0.603-0.063-0.759,0.204l-1.9,3.288c-0.152,0.265-0.061,0.605,0.204,0.759
				c0.087,0.05,0.182,0.074,0.277,0.074c0.191,0,0.377-0.1,0.482-0.278l1.9-3.288C103.28,50.65,103.189,50.31,102.924,50.156z"/>
			<path fill="#C64332" d="M113.27,32.232c0.087,0.05,0.182,0.074,0.278,0.074c0.191,0,0.377-0.1,0.481-0.278l1.9-3.29
				c0.152-0.265,0.061-0.605-0.204-0.759c-0.26-0.152-0.607-0.065-0.759,0.204l-1.9,3.29
				C112.915,31.737,113.006,32.078,113.27,32.232z"/>
		</g>
		<g>
			<path fill="#FCFCFC" d="M137.336,26.695c-0.632-0.036-1.227,0.12-1.728,0.411c0-0.001,0-0.003,0-0.005
				c-0.033,0.019-0.058,0.047-0.09,0.068c-0.145,0.091-0.282,0.191-0.407,0.305c-0.058,0.052-0.107,0.11-0.161,0.166
				c-0.093,0.098-0.179,0.201-0.256,0.311c-0.049,0.069-0.094,0.138-0.136,0.211c-0.066,0.114-0.12,0.234-0.169,0.357
				c-0.031,0.077-0.065,0.151-0.089,0.231c-0.047,0.159-0.073,0.324-0.09,0.493c-0.004,0.036-0.017,0.069-0.019,0.105
				c0.048-0.948,0.097-1.897,0.145-2.845c0.015-0.283-0.017-0.556-0.071-0.823c-0.008-0.038-0.021-0.073-0.03-0.111
				c-0.055-0.229-0.133-0.449-0.234-0.659c-0.016-0.034-0.034-0.067-0.051-0.101c-0.118-0.226-0.258-0.437-0.423-0.632
				c-0.004-0.005-0.008-0.011-0.013-0.016c-0.635-0.738-1.578-1.235-2.672-1.284c-1.065-0.048-2.032,0.355-2.724,1.022
				c-0.035,0.033-0.065,0.07-0.099,0.105c-0.138,0.145-0.263,0.298-0.374,0.464c-0.05,0.074-0.097,0.148-0.141,0.226
				c-0.077,0.138-0.14,0.282-0.197,0.431c-0.039,0.101-0.083,0.199-0.112,0.304c-0.041,0.151-0.06,0.31-0.08,0.469
				c-0.012,0.095-0.044,0.184-0.048,0.282c-0.121,3.273-0.242,6.547-0.363,9.82c-12.392-0.458-24.797-0.458-37.19-0.001
				c0.001,0.023-0.012,0.051-0.016,0.075c-0.122-3.298-0.243-6.596-0.365-9.894c-0.006-0.176-0.053-0.339-0.086-0.507
				c-0.014-0.07-0.018-0.144-0.036-0.212c-0.038-0.143-0.094-0.275-0.151-0.41c-0.045-0.108-0.09-0.215-0.145-0.317
				c-0.058-0.106-0.121-0.206-0.19-0.304c-0.091-0.133-0.193-0.256-0.302-0.375c-0.056-0.059-0.106-0.121-0.166-0.176
				c-0.691-0.655-1.651-1.048-2.706-1.002c-1.405,0.061-2.565,0.859-3.128,1.97c-0.004,0.007-0.007,0.014-0.011,0.022
				c-0.122,0.245-0.216,0.502-0.274,0.773c0,0.002-0.001,0.003-0.001,0.005c-0.059,0.277-0.095,0.561-0.079,0.856
				c0.048,0.933,0.095,1.866,0.143,2.799c-0.008-0.101-0.035-0.196-0.054-0.294c-0.014-0.076-0.021-0.155-0.042-0.229
				c-0.032-0.114-0.08-0.22-0.126-0.328c-0.037-0.087-0.075-0.173-0.121-0.256c-0.054-0.097-0.113-0.188-0.179-0.277
				c-0.061-0.084-0.127-0.162-0.197-0.239c-0.07-0.076-0.137-0.153-0.215-0.222c-0.094-0.084-0.198-0.155-0.303-0.227
				c-0.06-0.041-0.111-0.093-0.174-0.13c0,0.003,0,0.006,0.001,0.009c-0.502-0.293-1.099-0.451-1.734-0.415
				c-1.686,0.097-2.952,1.458-2.853,3.021c0.375,5.959,0.75,11.917,1.125,17.876c0.1,1.563,1.467,2.785,3.073,2.695
				c0.604-0.035,1.154-0.26,1.6-0.61v0c0,0,0.001-0.001,0.002-0.001c0.156-0.122,0.296-0.262,0.424-0.412
				c0.063-0.073,0.115-0.152,0.171-0.231c0.056-0.082,0.111-0.163,0.159-0.25c0.059-0.106,0.11-0.213,0.156-0.326
				c0.027-0.069,0.049-0.139,0.071-0.21c0.041-0.129,0.079-0.256,0.101-0.392c0.008-0.051,0.006-0.104,0.012-0.156
				c0.013-0.118,0.029-0.234,0.027-0.355c0.048,0.93,0.095,1.859,0.142,2.789c0.015,0.292,0.076,0.568,0.158,0.835
				c0.007,0.021,0.016,0.041,0.023,0.062c0.077,0.237,0.179,0.459,0.302,0.67c0.017,0.028,0.034,0.056,0.051,0.083
				c0.132,0.211,0.282,0.405,0.455,0.582c0.01,0.01,0.019,0.021,0.029,0.032c0.667,0.666,1.593,1.067,2.612,1.023
				c0.723-0.032,1.385-0.29,1.925-0.7c0,0.001,0,0.003,0,0.005c0.032-0.024,0.056-0.058,0.088-0.083
				c0.152-0.124,0.296-0.257,0.425-0.405c0.076-0.086,0.139-0.179,0.206-0.272c0.072-0.1,0.14-0.201,0.2-0.308
				c0.07-0.122,0.131-0.247,0.186-0.377c0.035-0.085,0.063-0.172,0.091-0.26c0.051-0.155,0.098-0.308,0.127-0.471
				c0.008-0.049,0.007-0.101,0.013-0.151c0.024-0.184,0.056-0.366,0.049-0.558c-0.122-3.299-0.244-6.599-0.365-9.898
				c0.005,0.03,0.02,0.056,0.021,0.088c12.293-0.454,24.599-0.453,36.892,0.001c-0.121,3.27-0.241,6.539-0.362,9.809
				c-0.004,0.116,0.023,0.225,0.03,0.339c0.009,0.134,0.012,0.269,0.035,0.399c0.024,0.13,0.063,0.252,0.101,0.377
				c0.037,0.124,0.076,0.245,0.127,0.362c0.046,0.105,0.095,0.206,0.151,0.306c0.076,0.138,0.162,0.267,0.255,0.392
				c0.051,0.068,0.098,0.138,0.154,0.203c0.601,0.698,1.468,1.159,2.452,1.202c1.013,0.045,1.934-0.35,2.599-1.007
				c0.028-0.028,0.053-0.058,0.08-0.087c0.148-0.156,0.279-0.325,0.396-0.507c0.033-0.052,0.065-0.103,0.095-0.156
				c0.101-0.177,0.184-0.363,0.252-0.559c0.02-0.056,0.044-0.11,0.061-0.167c0.076-0.257,0.131-0.523,0.146-0.802
				c0.048-0.945,0.097-1.891,0.145-2.836c-0.002,0.051,0.01,0.098,0.011,0.148c0.002,0.15,0.008,0.3,0.033,0.445
				c0.017,0.096,0.046,0.186,0.072,0.279c0.032,0.113,0.067,0.224,0.112,0.332c0.035,0.084,0.074,0.164,0.117,0.244
				c0.064,0.121,0.138,0.234,0.218,0.345c0.039,0.052,0.073,0.106,0.115,0.155c0.495,0.593,1.215,0.995,2.041,1.043
				c1.605,0.091,2.973-1.131,3.073-2.695c0.375-5.959,0.75-11.918,1.125-17.876C140.288,28.152,139.022,26.791,137.336,26.695z
				 M78.734,46.797c-0.177,0.01-0.303-0.127-0.312-0.272c-0.319-5.293-0.637-10.587-0.955-15.88
				c-0.011-0.173,0.104-0.298,0.287-0.308c0.152-0.008,0.31,0.099,0.321,0.272c0.312,5.294,0.624,10.587,0.936,15.881
				C79.019,46.634,78.881,46.787,78.734,46.797z M80.075,48.056c-0.176,0.011-0.302-0.129-0.31-0.273
				c-0.356-6.183-0.712-12.366-1.068-18.549c-0.01-0.174,0.106-0.297,0.288-0.307c0.153-0.009,0.311,0.099,0.321,0.272
				c0.349,6.184,0.698,12.367,1.046,18.55C80.361,47.894,80.221,48.048,80.075,48.056z M81.265,46.652
				c-0.177,0.008-0.303-0.13-0.31-0.274c-0.291-5.295-0.583-10.59-0.874-15.885c-0.009-0.174,0.105-0.296,0.288-0.306
				c0.152-0.009,0.31,0.1,0.32,0.273c0.285,5.295,0.57,10.59,0.855,15.886C81.552,46.492,81.412,46.644,81.265,46.652z
				 M85.27,49.647c-0.175,0.008-0.298-0.101-0.306-0.276c-0.351-7.433-0.701-14.867-1.052-22.3
				c-0.007-0.146,0.109-0.295,0.293-0.305c0.183-0.009,0.313,0.131,0.319,0.276c0.342,7.434,0.684,14.867,1.025,22.301
				C85.557,49.519,85.445,49.639,85.27,49.647z M86.61,51.476c-0.175,0.007-0.299-0.131-0.304-0.277
				c-0.387-8.681-0.774-17.362-1.161-26.044c-0.008-0.174,0.108-0.325,0.293-0.332c0.153-0.006,0.314,0.132,0.321,0.305
				c0.377,8.682,0.754,17.363,1.13,26.045C86.896,51.317,86.755,51.47,86.61,51.476z M87.785,49.537
				c-0.176,0.007-0.297-0.104-0.305-0.278c-0.313-7.435-0.625-14.87-0.938-22.305c-0.007-0.145,0.111-0.294,0.294-0.303
				c0.153-0.005,0.313,0.132,0.318,0.278c0.304,7.436,0.607,14.871,0.911,22.306C88.072,49.408,87.932,49.531,87.785,49.537z
				 M125.291,37.174c-11.46-0.392-22.929-0.392-34.389,0c-0.006-0.176-0.012-0.352-0.018-0.528c11.472-0.392,22.954-0.392,34.425,0
				C125.304,36.823,125.298,36.998,125.291,37.174z M128.408,49.537c-0.145-0.006-0.288-0.127-0.281-0.302
				c0.304-7.435,0.607-14.871,0.911-22.306c0.006-0.146,0.165-0.283,0.318-0.278c0.184,0.008,0.3,0.158,0.294,0.303
				c-0.313,7.435-0.625,14.87-0.937,22.305C128.706,49.433,128.584,49.545,128.408,49.537z M129.583,51.476
				c-0.146-0.007-0.285-0.158-0.279-0.303c0.377-8.682,0.753-17.363,1.13-26.045c0.008-0.175,0.167-0.312,0.321-0.305
				c0.184,0.007,0.301,0.158,0.293,0.332c-0.387,8.681-0.774,17.362-1.161,26.044C129.882,51.344,129.758,51.482,129.583,51.476z
				 M131.23,49.371c-0.009,0.174-0.131,0.285-0.306,0.276c-0.147-0.007-0.287-0.129-0.279-0.304
				c0.342-7.434,0.683-14.867,1.025-22.301c0.006-0.146,0.167-0.285,0.319-0.276c0.183,0.008,0.3,0.16,0.293,0.305
				C131.932,34.505,131.581,41.938,131.23,49.371z M134.958,46.654c-0.176-0.009-0.286-0.162-0.278-0.306
				c0.285-5.295,0.57-10.59,0.856-15.886c0.01-0.173,0.137-0.284,0.32-0.273c0.152,0.01,0.267,0.13,0.258,0.305
				c-0.291,5.295-0.582,10.59-0.874,15.885C135.231,46.524,135.106,46.661,134.958,46.654z M136.118,48.056
				c-0.147-0.008-0.285-0.163-0.277-0.306c0.349-6.183,0.697-12.367,1.046-18.55c0.01-0.174,0.168-0.281,0.321-0.272
				c0.183,0.01,0.299,0.134,0.288,0.307c-0.356,6.183-0.712,12.366-1.068,18.549C136.42,47.927,136.294,48.066,136.118,48.056z"/>
			<g>
				<path fill="#FCFCFC" d="M108.095,27.799c0.308,0,0.555-0.249,0.555-0.555v-3.798c0-0.306-0.247-0.555-0.555-0.555
					c-0.308,0-0.555,0.25-0.555,0.555v3.798C107.54,27.55,107.787,27.799,108.095,27.799z"/>
				<path fill="#FCFCFC" d="M108.095,48.497c-0.308,0-0.555,0.249-0.555,0.555v3.798c0,0.306,0.247,0.555,0.555,0.555
					c0.308,0,0.555-0.249,0.555-0.555v-3.798C108.651,48.747,108.403,48.497,108.095,48.497z"/>
				<path fill="#FCFCFC" d="M102.165,28.984c0.104,0.178,0.291,0.278,0.481,0.278c0.095,0,0.191-0.024,0.278-0.074
					c0.265-0.154,0.356-0.494,0.204-0.759l-1.9-3.29c-0.156-0.269-0.503-0.356-0.759-0.204c-0.265,0.154-0.356,0.494-0.204,0.759
					L102.165,28.984z"/>
				<path fill="#FCFCFC" d="M114.029,47.315c-0.16-0.267-0.503-0.358-0.759-0.204c-0.265,0.154-0.356,0.494-0.204,0.759l1.9,3.288
					c0.104,0.178,0.291,0.278,0.481,0.278c0.095,0,0.191-0.024,0.278-0.074c0.265-0.154,0.356-0.495,0.204-0.759L114.029,47.315z"/>
				<path fill="#FCFCFC" d="M95.086,31.278l3.288,1.9c0.087,0.05,0.182,0.074,0.278,0.074c0.191,0,0.377-0.1,0.481-0.278
					c0.152-0.265,0.061-0.605-0.204-0.759l-3.288-1.9c-0.265-0.152-0.607-0.065-0.759,0.204
					C94.73,30.784,94.821,31.124,95.086,31.278z"/>
				<path fill="#FCFCFC" d="M121.109,45.018l-3.292-1.9c-0.265-0.15-0.607-0.065-0.759,0.204c-0.152,0.267-0.061,0.605,0.204,0.759
					l3.292,1.9c0.087,0.05,0.182,0.074,0.278,0.074c0.191,0,0.377-0.1,0.481-0.278C121.465,45.511,121.374,45.173,121.109,45.018z"
					/>
				<path fill="#FCFCFC" d="M98.374,43.118l-3.288,1.9c-0.265,0.154-0.356,0.495-0.204,0.759c0.104,0.178,0.291,0.278,0.481,0.278
					c0.095,0,0.191-0.024,0.278-0.074l3.288-1.9c0.265-0.154,0.356-0.494,0.204-0.759C98.977,43.053,98.63,42.969,98.374,43.118z"/>
				<path fill="#FCFCFC" d="M117.539,33.252c0.095,0,0.191-0.024,0.278-0.074l3.292-1.9c0.265-0.154,0.356-0.492,0.204-0.759
					c-0.16-0.269-0.499-0.356-0.759-0.204l-3.292,1.9c-0.265,0.154-0.356,0.492-0.204,0.759
					C117.161,33.152,117.348,33.252,117.539,33.252z"/>
				<path fill="#FCFCFC" d="M102.924,47.112c-0.265-0.154-0.603-0.063-0.759,0.204l-1.9,3.288c-0.152,0.265-0.061,0.605,0.204,0.759
					c0.087,0.05,0.182,0.074,0.277,0.074c0.191,0,0.377-0.1,0.482-0.278l1.9-3.288C103.28,47.606,103.189,47.266,102.924,47.112z"/>
				<path fill="#FCFCFC" d="M113.27,29.187c0.087,0.05,0.182,0.074,0.278,0.074c0.191,0,0.377-0.1,0.481-0.278l1.9-3.29
					c0.152-0.265,0.061-0.605-0.204-0.759c-0.26-0.152-0.607-0.065-0.759,0.204l-1.9,3.29
					C112.915,28.693,113.006,29.033,113.27,29.187z"/>
			</g>
		</g>
		<g>
			<path fill="#FCFCFC" d="M71.613,109.098c1.31,0,2.512,0.486,3.379,1.371l0.312,0.321l1.219-1.219l-0.308-0.314
				c-1.197-1.217-2.833-1.887-4.603-1.887c-3.553,0-6.338,2.826-6.338,6.435c0,3.557,2.824,6.344,6.433,6.344
				c1.674,0,3.253-0.653,4.455-1.835l0.13-0.13v-4.047h-5.045v1.729h3.323v1.551c-0.816,0.64-1.852,1.004-2.88,1.004
				c-2.633,0-4.694-2.034-4.694-4.631C66.998,111.202,69.071,109.098,71.613,109.098z"/>
			<polygon fill="#FCFCFC" points="82.007,113.872 78.992,107.378 77.426,108.111 81.144,116.091 81.144,119.869 82.866,119.869 
				82.866,116.108 86.601,108.111 85.039,107.38 			"/>
			<polygon fill="#FCFCFC" points="88.063,106.532 88.063,119.869 89.789,119.869 89.789,111.271 94.049,116.344 98.291,111.273 
				98.291,119.869 100.018,119.869 100.018,106.53 94.049,113.657 			"/>
			<path fill="#FCFCFC" d="M114.428,109.098c1.31,0,2.512,0.486,3.379,1.371l0.312,0.321l1.219-1.219l-0.308-0.314
				c-1.197-1.217-2.833-1.887-4.602-1.887c-3.553,0-6.338,2.826-6.338,6.435c0,3.557,2.824,6.344,6.433,6.344
				c1.674,0,3.253-0.653,4.455-1.835l0.317-0.314l-1.215-1.215l-0.312,0.304c-0.872,0.846-2.061,1.332-3.262,1.332
				c-2.633,0-4.694-2.034-4.694-4.631C109.813,111.202,111.886,109.098,114.428,109.098z"/>
			<polygon fill="#FCFCFC" points="123.355,107.68 121.629,107.68 121.629,119.869 129.316,119.869 129.316,118.142 
				123.355,118.142 			"/>
			<path fill="#FCFCFC" d="M138.547,115.342c0,1.898-1.497,3.032-2.941,3.032c-1.896,0-3.032-1.501-3.032-2.954v-7.741h-1.727v7.771
				c0,2.286,1.779,4.65,4.759,4.65c2.295,0,4.663-1.781,4.663-4.759v-7.663h-1.722V115.342z"/>
			<path fill="#FCFCFC" d="M148.797,113.158c0.126-0.089,0.234-0.176,0.304-0.247c0.451-0.486,0.677-1.145,0.677-1.961
				c0-1.607-1.262-3.271-3.375-3.271h-3.271v12.189h3.704c1.766,0,3.592-1.386,3.592-3.705
				C150.428,114.69,149.574,113.681,148.797,113.158z M146.819,112.586h-1.961v-3.177h1.544c1.032,0,1.653,0.792,1.653,1.557
				C148.055,111.922,147.374,112.479,146.819,112.586z M144.858,114.312h2.165c1.037,0,1.683,0.969,1.683,1.867
				c0,1.23-0.959,1.963-1.887,1.963h-1.961V114.312z"/>
			<path fill="#FCFCFC" d="M169.324,111.84h-9.552c-0.369,0-0.668,0.297-0.668,0.666c0,0.369,0.299,0.666,0.668,0.666h9.552
				c0.369,0,0.668-0.297,0.668-0.666C169.992,112.137,169.693,111.84,169.324,111.84z"/>
			<path fill="#FCFCFC" d="M56.565,111.84h-9.552c-0.369,0-0.668,0.297-0.668,0.666c0,0.369,0.299,0.666,0.668,0.666h9.552
				c0.369,0,0.668-0.297,0.668-0.666C57.233,112.137,56.934,111.84,56.565,111.84z"/>
		</g>
		<g>
			<g>
				<g>
					<g>
						<path fill="#C64332" d="M215.954,108.468c-0.325-0.858-1.035-1.448-1.866-1.793c-0.197-0.782-0.654-1.494-1.369-1.961
							l-0.017-0.011c-0.041-0.475-0.125-0.942-0.344-1.338c-0.075-0.203-0.25-0.337-0.361-0.518
							c0.005-0.076,0.034-0.145,0.034-0.223c0-0.599-0.159-1.162-0.438-1.645c-0.082-0.211-0.18-0.41-0.301-0.597
							c0-0.034,0-0.069,0-0.103c0-0.599-0.159-1.162-0.438-1.645c-0.073-0.189-0.159-0.369-0.262-0.539c0-0.049,0-0.101,0-0.153
							c0-0.681-0.206-1.315-0.558-1.841c-0.051-0.116-0.116-0.232-0.18-0.341c0-0.039,0-0.077,0-0.118
							c0-0.599-0.159-1.162-0.438-1.645c-0.082-0.215-0.185-0.417-0.305-0.606c0-0.045,0-0.088,0-0.133
							c0-0.125-0.004-0.249-0.017-0.372l0.064-0.082c0.369-0.473,0.593-1.029,0.67-1.605c0.296-0.326,0.541-0.7,0.705-1.095
							c0.228-0.513,0.318-1.07,0.271-1.615c0.266-0.483,0.43-1.031,0.477-1.536c0.03-0.346,0.009-0.685-0.064-1.01
							c0.107-0.329,0.163-0.674,0.163-1.027v-0.44c0-0.423-0.082-0.833-0.228-1.209c0.034-0.195,0.051-0.395,0.051-0.601
							c0-0.687-0.21-1.327-0.567-1.856c-0.086-0.178-0.185-0.35-0.301-0.509c0-0.002,0-0.002,0-0.004
							c0-0.754-0.249-1.45-0.679-2.004c-0.21-0.408-0.498-0.76-0.851-1.042c-0.107-0.651-0.408-1.235-0.842-1.695
							c-0.176-0.271-0.455-0.524-0.782-0.747c-0.902-1.892-2.105-3.643-3.583-5.217c-1.16-1.577-2.582-2.953-4.223-4.092
							c-1.813-1.259-3.862-2.084-6.087-2.453c-6.147-1.02-12.402-1.94-18.584-2.737c-0.941-0.129-1.886,0.168-2.599,0.795
							c-0.713,0.625-1.121,1.527-1.121,2.477v0.881c0,0.803,0.292,1.581,0.825,2.185l1.37,1.551v20.618
							c-0.089-0.987-0.863-1.864-1.835-2.463c-0.289-1.355-1.359-2.434-2.783-2.604l-0.919-0.107
							c-0.008-0.041-0.017-0.079-0.03-0.12c0.082-0.284,0.12-0.578,0.12-0.879V82.2c0-1.057-0.498-2.006-1.285-2.614
							c0.812,0.094,1.624,0.187,2.431,0.284c0.962,0.105,1.882-0.183,2.582-0.81c0.704-0.625,1.108-1.523,1.108-2.466v-0.44
							c0-0.305-0.043-0.599-0.12-0.881c0.077-0.284,0.12-0.578,0.12-0.879v-0.44c0-0.305-0.043-0.601-0.12-0.881
							c0.077-0.284,0.12-0.58,0.12-0.878v-0.44c0-0.305-0.043-0.599-0.12-0.881c0.077-0.284,0.12-0.578,0.12-0.878v-0.44
							c0-1.562-1.095-2.893-2.595-3.222v-1.918c0-1.317-0.786-2.468-1.929-2.996c-0.395-1.194-1.456-2.094-2.771-2.24
							c-8.893-0.982-17.94-1.744-26.893-2.264c-0.861-0.04-1.754,0.268-2.417,0.869c-0.582-0.631-1.342-1.075-2.21-1.118
							c-4.446-0.219-8.897-0.38-13.348-0.485c-1.495-0.103-2.741,0.874-3.201,2.243l-0.292,0.833
							c-0.193,0.543-0.236,1.121-0.137,1.675c-0.485-0.281-1.04-0.44-1.62-0.449l-0.348-0.002l-0.159-0.466
							c-0.404-1.145-1.392-1.961-2.556-2.161c-0.554-1.104-1.688-1.813-2.943-1.815h-0.992c-4.133,0-8.265,0.049-12.398,0.146
							c-1.375,0.034-2.586,0.917-3.037,2.217l-0.309,0.885c-0.219,0.632-0.241,1.304-0.073,1.933
							c-0.541-0.331-1.134-0.52-1.834-0.483l-0.245,0.009l-0.112-0.324c-0.326-0.909-1.392-1.592-2.496-1.927
							c-0.559-1.214-1.71-2.028-3.149-1.918c-4.451,0.202-8.893,0.462-13.33,0.778c-1.057,0.075-2.01,0.649-2.569,1.546
							c-0.559,0.896-0.653,2.006-0.258,2.986l0.326,0.794c-1.578-1.259-3.296-2.326-5.241-3.024
							c-2.522-0.911-5.22-1.226-8.064-0.932c-2.792,0.284-5.443,1.128-7.879,2.513c-2.354,1.338-4.451,3.059-6.225,5.11
							c-1.588,1.83-2.839,3.944-3.818,6.225c-0.092-0.214-0.196-0.425-0.336-0.621l-0.331-0.453
							c-0.284-0.387-0.649-0.698-1.057-0.924c-0.937-1.497-2.131-2.784-3.57-3.843c-1.276-1.285-2.831-2.257-4.622-2.902
							c-1.942-0.692-4.077-0.855-6.41-0.46c-6.16,1.044-12.381,2.217-18.494,3.482C1.1,67.169,0,68.518,0,70.081v0.881
							c0,1.001,0.455,1.948,1.237,2.573l0.941,0.76v26.268l-1.431,1.738C0.266,102.89,0,103.631,0,104.393v0.881
							c0,0.992,0.447,1.933,1.216,2.558c0.309,0.252,0.659,0.435,1.029,0.56c0.19,0.306,0.379,0.616,0.664,0.849
							c0.462,0.378,1.021,0.571,1.598,0.659c0.155,0.723,0.474,1.402,1.057,1.88c0.593,0.49,1.336,0.75,2.092,0.75
							c0.215,0,0.43-0.021,0.64-0.062c4.33-0.859,8.669-1.66,13.017-2.406c1.581-0.271,2.741-1.645,2.741-3.252v-0.44
							c0-0.973-0.43-1.895-1.173-2.522c-0.158-0.133-0.359-0.181-0.535-0.282c-0.123-0.286-0.281-0.545-0.479-0.786v-0.43
							c0-0.261-0.105-0.499-0.165-0.748c0.103-0.321,0.165-0.659,0.165-1.011v-0.44c0-0.301-0.043-0.595-0.12-0.879
							c0.077-0.281,0.12-0.578,0.12-0.881v-0.44c0-0.301-0.043-0.595-0.12-0.879c0.026-0.082,0.043-0.165,0.06-0.251
							c1.847-0.314,3.699-0.619,5.546-0.913c0.163-0.026,0.322-0.064,0.481-0.114l2.788-0.874c1.044-0.322,1.817-1.119,2.148-2.088
							c0.301-0.045,0.601-0.09,0.902-0.133c0.614-0.09,1.194-0.352,1.667-0.756l0.627-0.543c0.567-0.49,0.937-1.141,1.078-1.839
							c0.014-0.011,0.026-0.025,0.04-0.036c0.011,0.025,0.014,0.054,0.024,0.079c1.065,2.457,2.56,4.56,4.438,6.253
							c0.294,0.266,0.648,0.454,0.958,0.7c0.022,0.027,0.028,0.061,0.052,0.087c0.799,0.894,1.766,1.718,2.87,2.451
							c0.755,0.502,1.648,0.879,2.522,1.273c0.175,1.133,0.95,2.186,1.993,2.686l1.055-1.637c0.055,0.014,0.11,0.028,0.165,0.042
							l-0.854,1.769c0.451,0.217,0.941,0.329,1.435,0.329c0.12,0,0.241-0.006,0.361-0.019c0.413-0.045,0.828-0.072,1.241-0.116
							c0.522,0.75,1.311,1.304,2.277,1.42l1.662,0.204l0.309,0.036c0.133,0.017,0.271,0.026,0.404,0.026
							c0.107,0,0.215-0.004,0.322-0.015l3.811-0.357c0.223-0.021,0.451-0.064,0.666-0.133l2.015-0.612
							c0.95-0.286,1.638-0.984,2.018-1.832c0.551-0.045,1.1-0.112,1.651-0.155c0.567-0.043,1.117-0.232,1.59-0.55l0.735-0.488
							c0.572-0.38,0.971-0.925,1.214-1.53c0.698-0.165,1.348-0.492,1.806-1.054l0.348-0.41c0.284-0.331,0.494-0.707,0.627-1.104
							c0.408-0.217,0.773-0.518,1.061-0.891l0.387-0.509c0.335-0.445,0.541-0.954,0.623-1.48c0.43-0.389,0.79-0.853,1.014-1.295
							c0.185-0.361,0.297-0.745,0.339-1.136c0.288-0.335,0.515-0.732,0.657-1.175l0.155-0.52c0.099-0.354,0.142-0.717,0.125-1.076
							c0.241-0.359,0.425-0.741,0.537-1.121c0.09-0.321,0.086-0.65,0.081-0.976c0.6,1.635,1.201,3.258,1.801,4.896l-0.086,0.144
							c-0.447,0.38-0.778,0.872-0.971,1.426l-0.309,0.896c-0.356,1.033-0.176,2.178,0.477,3.054c0.149,0.198,0.37,0.306,0.556,0.463
							c0.096,0.41,0.202,0.824,0.454,1.178c0.295,0.417,0.687,0.738,1.122,0.974c-0.028,0.757,0.111,1.511,0.584,2.127
							c0.623,0.818,1.594,1.295,2.62,1.295c0.047,0,0.094,0,0.142-0.002c5.765-0.249,11.633-0.399,17.442-0.451
							c1.078-0.009,2.088-0.548,2.698-1.441c0.522-0.768,0.616-1.71,0.407-2.603c0.2,0.183,0.364,0.41,0.601,0.538
							c-0.044,0.769,0.095,1.539,0.565,2.168c0.619,0.829,1.594,1.319,2.629,1.323c5.765,0.026,11.633,0.152,17.433,0.376
							c0.03,0,0.064,0.002,0.094,0.002c1.061,0,1.993-0.719,2.621-1.59c0.649-0.891,0.717-2.275,0.335-3.308
							c-0.361-0.973-1.157-1.688-2.118-1.987c-0.261-0.604-0.715-1.102-1.296-1.464c-0.064-0.402-0.189-0.777-0.386-1.117
							c0.103-0.322,0.156-0.653,0.161-0.982c0.284-0.369,0.503-0.78,0.636-1.19c0.086-0.273,0.138-0.55,0.155-0.829
							c0.146-0.204,0.271-0.427,0.369-0.668l0.176-0.417c0.168-0.404,0.249-0.831,0.253-1.257c0.275-0.376,0.485-0.788,0.61-1.205
							c0.069-0.238,0.116-0.481,0.129-0.724c0.223-0.29,0.399-0.621,0.515-0.982l0.159-0.52c0.086-0.303,0.133-0.612,0.133-0.919
							c0.223-0.29,0.408-0.599,0.541-0.911c0.168-0.404,0.254-0.831,0.254-1.259c0.228-0.294,0.417-0.61,0.546-0.926
							c0.159-0.387,0.241-0.793,0.249-1.199c0.228-0.296,0.417-0.619,0.541-0.949c0.168-0.402,0.253-0.827,0.258-1.25
							c0.266-0.363,0.468-0.765,0.593-1.177c0.086-0.269,0.137-0.546,0.155-0.823c0.142-0.2,0.266-0.417,0.365-0.651l0.21-0.531
							c0.125-0.316,0.193-0.646,0.215-0.975c0.146-0.204,0.271-0.423,0.369-0.662l0.206-0.509c0.15-0.391,0.223-0.799,0.223-1.207
							c0.18-0.247,0.335-0.511,0.455-0.784c0.271-0.112,0.524-0.26,0.756-0.44l0.528-0.412c0.057-0.045,0.092-0.108,0.146-0.156
							v21.95l-1.16,1.085c-0.67,0.623-1.048,1.497-1.048,2.412V95.4c0,1.332,0.795,2.477,1.942,2.996
							c0.393,1.066,1.326,1.833,2.474,2.054v0.066c0,1.738,1.345,3.177,3.08,3.293c9.881,0.657,19.886,1.617,29.728,2.853
							c0.137,0.017,0.275,0.026,0.412,0.026c0.799,0,1.577-0.29,2.182-0.825c0.335-0.296,0.589-0.661,0.778-1.055
							c0.264,1.362,1.316,2.461,2.736,2.657c4.365,0.599,8.721,1.257,13.073,1.97c0.176,0.028,0.357,0.043,0.533,0.043
							c0.778,0,1.534-0.275,2.135-0.784c0.582-0.493,0.896-1.188,1.034-1.925c0.237,0.102,0.432,0.281,0.693,0.327
							c0.342,0.059,0.682,0.131,1.024,0.19c-0.011,0.481-0.012,0.973,0.14,1.399c0.395,1.115,1.357,1.931,2.522,2.142
							c4.339,0.782,8.678,1.622,13,2.517c0.168,0.034,0.335,0.052,0.503,0.052c0.992,0,1.92-0.593,2.59-1.379
							C216.251,111.102,216.38,109.596,215.954,108.468z M28.822,79.298c-0.417,1.087-0.962,2.015-1.663,2.827
							c-0.726,0.831-1.572,1.506-2.59,2.066c-1.031,0.565-2.191,0.96-3.445,1.173c-2.513,0.425-5.018,0.868-7.527,1.334
							c-1.564,0.29-2.698,1.654-2.698,3.243v10.117c0,0.114,0.004,0.226,0.017,0.337c-0.713,0.135-1.426,0.273-2.139,0.412V72.715
							c0-0.125-0.009-0.247-0.022-0.369c4.481-0.883,8.992-1.712,13.468-2.472c1.156-0.193,2.204-0.148,3.089,0.17
							c0.924,0.331,1.667,0.806,2.273,1.454c0.107,0.114,0.223,0.221,0.348,0.318c0.047,0.075,0.099,0.15,0.155,0.221
							c0.889,1.145,1.323,2.399,1.323,3.832C29.41,77.101,29.208,78.261,28.822,79.298z M72.183,66.048
							c-0.242-0.266-0.476-0.536-0.733-0.792l0.585,0.39C72.084,65.78,72.133,65.914,72.183,66.048z M43.209,75.759
							c0.739-1.901,1.761-3.613,3.046-5.091c1.285-1.486,2.801-2.73,4.502-3.697c1.628-0.926,3.407-1.493,5.284-1.684
							c0.46-0.047,0.911-0.071,1.357-0.071c1.332,0,2.608,0.217,3.802,0.649c1.624,0.582,3.003,1.428,4.214,2.588
							c1.203,1.149,2.178,2.575,2.896,4.234c0.713,1.66,1.074,3.499,1.074,5.465c0,1.987-0.37,3.911-1.1,5.714
							c-0.748,1.83-1.77,3.48-3.042,4.9c-1.28,1.426-2.749,2.573-4.489,3.51c-1.684,0.906-3.445,1.443-5.383,1.641
							c-1.864,0.187-3.609,0.019-5.189-0.516c-1.624-0.55-3.003-1.347-4.214-2.442c-1.19-1.074-2.109-2.376-2.81-3.982
							c-0.7-1.62-1.044-3.377-1.044-5.372C42.113,79.588,42.483,77.623,43.209,75.759z M78.277,63.504
							c0.683-0.039,1.362-0.077,2.04-0.114c0.03,0.251,0.09,0.5,0.181,0.743l6.719,18.374c0.473,1.302,1.714,2.167,3.097,2.167
							c0.004,0,0.013,0,0.017,0c1.396-0.009,2.633-0.889,3.093-2.202l0.438-1.248c0.073-0.2,0.125-0.408,0.155-0.616
							c0.09-0.159,0.168-0.324,0.232-0.5l0.485-1.34c0.017-0.039,0.03-0.077,0.043-0.116c0.06-0.127,0.116-0.26,0.163-0.397
							l0.597-1.723c0.034-0.08,0.064-0.161,0.094-0.245l4.464-12.652c0.107-0.305,0.172-0.623,0.185-0.939
							c1.504-0.024,3.011-0.041,4.515-0.049c0.021,0.299,0.082,0.597,0.185,0.885l6.719,18.69c0.468,1.312,1.714,2.187,3.106,2.187
							s2.638-0.876,3.106-2.187l0.442-1.224c0.073-0.2,0.125-0.404,0.155-0.61c0.09-0.155,0.163-0.316,0.228-0.485l0.49-1.31
							c0.021-0.049,0.039-0.099,0.052-0.148c0.056-0.112,0.103-0.228,0.146-0.346l0.602-1.708c0.034-0.082,0.069-0.165,0.099-0.251
							l4.468-12.435c0.094-0.262,0.15-0.531,0.176-0.801c0.674,0.021,1.345,0.045,2.019,0.069
							c-3.261,8.974-6.517,17.977-9.778,27.013c-0.155,0.423-0.219,0.872-0.193,1.317c-1.259-0.021-2.522-0.037-3.798-0.049
							c-0.021-0.309-0.082-0.616-0.189-0.913L107.79,76.27c-0.043-0.122-0.095-0.241-0.15-0.354
							c-0.009-0.024-0.017-0.045-0.026-0.069l-0.619-1.753c-0.039-0.114-0.086-0.223-0.142-0.331
							c-0.021-0.058-0.039-0.118-0.06-0.176l-0.322-0.831c-0.06-0.146-0.124-0.288-0.202-0.421
							c-0.034-0.249-0.095-0.496-0.189-0.737l-0.43-1.147c-0.477-1.302-1.62-2.122-3.11-2.157c-1.388,0.009-2.625,0.883-3.089,2.191
							l-6.947,19.527c-0.167,0.47-0.223,0.969-0.172,1.456c-1.276,0.039-2.552,0.084-3.823,0.131
							c-0.03-0.264-0.09-0.524-0.185-0.778C84.979,81.683,81.628,72.577,78.277,63.504z M102.91,94.336
							c-0.042-0.312-0.113-0.619-0.228-0.898c0.002-0.007,0.01-0.014,0.012-0.021c0.082-0.262,0.133-0.531,0.15-0.799
							c0.219-0.292,0.395-0.623,0.511-0.984l0.159-0.526c0.069-0.251,0.112-0.505,0.125-0.76c0.155-0.213,0.284-0.442,0.382-0.692
							l0.198-0.501c0.15-0.382,0.219-0.784,0.219-1.183c0.129-0.176,0.241-0.359,0.339-0.546l1.293,3.609l-0.047,0.073
							c-0.464,0.385-0.816,0.9-1.014,1.467l-0.301,0.855c-0.323,0.913-0.082,1.896,0.416,2.726c-0.25-0.154-0.516-0.283-0.801-0.367
							C104.03,95.175,103.537,94.674,102.91,94.336z M179.778,95.98V67.65c4.154,0.584,8.317,1.222,12.428,1.903
							c1.276,0.213,2.389,0.657,3.411,1.366c1.083,0.754,2.011,1.662,2.754,2.702c0.094,0.129,0.193,0.253,0.305,0.367
							c0.021,0.021,0.039,0.041,0.06,0.062c0.06,0.133,0.129,0.262,0.206,0.389c1.01,1.643,1.521,3.261,1.521,4.805
							c0,1.338-0.228,2.457-0.674,3.325c-0.425,0.818-1.005,1.45-1.783,1.931c-1.28,0.793-1.86,2.354-1.409,3.791l3.493,11.118
							c-0.563-0.101-1.13-0.202-1.693-0.301c0.039-0.432-0.009-0.872-0.142-1.297l-1.744-5.525
							c-0.017-0.052-0.034-0.103-0.056-0.153c-0.021-0.114-0.052-0.226-0.086-0.337l-0.619-1.905
							c-0.043-0.135-0.094-0.269-0.155-0.393c-0.043-0.217-0.103-0.428-0.18-0.627c-0.03-0.084-0.06-0.165-0.099-0.245
							c-0.026-0.204-0.073-0.406-0.137-0.606l-0.309-0.932c-0.387-1.166-1.388-2.021-2.599-2.219
							c-2.174-0.354-4.348-0.698-6.526-1.025c-0.958-0.137-1.916,0.135-2.642,0.763c-0.73,0.627-1.147,1.54-1.147,2.5v9.376
							c-0.726-0.103-1.456-0.206-2.182-0.307C179.778,96.111,179.778,96.046,179.778,95.98z M143.696,63.865
							c5.98,0.415,11.977,0.937,17.919,1.557v2.163c-4.038-0.417-8.081-0.786-12.128-1.108c-0.928-0.079-1.826,0.243-2.5,0.866
							c-0.674,0.623-1.061,1.501-1.061,2.423v4.399c0,1.72,1.323,3.153,3.037,3.289l0.885,0.071
							c0.137,0.013,0.275,0.017,0.408,0.006c0.133,0.03,0.275,0.049,0.412,0.062c2.015,0.168,4.038,0.348,6.062,0.539v2.17
							c-2.414-0.226-4.829-0.434-7.243-0.627c-0.928-0.071-1.826,0.241-2.5,0.864c-0.674,0.625-1.061,1.504-1.061,2.425v4.442
							c0,1.72,1.323,3.153,3.037,3.289l0.885,0.071c0.137,0.013,0.275,0.017,0.408,0.007c0.137,0.03,0.275,0.049,0.417,0.062
							c4.661,0.387,9.318,0.836,13.971,1.351c0.073,0.009,0.15,0.013,0.228,0.017v2.124c-7.033-0.769-14.121-1.401-21.175-1.884
							V63.865z"/>
						<path fill="#C64332" d="M26.828,75.32c-0.056-0.211-0.138-0.417-0.236-0.617c-0.49-0.969-1.285-1.727-2.337-2.206
							c-0.924-0.408-1.938-0.541-3.132-0.331c-2.513,0.425-5.018,0.868-7.527,1.334c-1.564,0.29-2.698,1.654-2.698,3.243v4.399
							c0,0.984,0.438,1.916,1.199,2.543c0.593,0.492,1.34,0.756,2.101,0.756c0.206,0,0.412-0.019,0.619-0.058l0.855-0.157
							c0.142-0.026,0.279-0.06,0.412-0.103c0.133-0.009,0.266-0.024,0.404-0.049c1.912-0.346,3.823-0.681,5.731-1.003
							c2.792-0.47,4.627-2.335,4.919-4.992c0.069-0.271,0.107-0.552,0.107-0.842c0-0.421-0.125-1.229-0.279-1.62
							C26.923,75.516,26.88,75.417,26.828,75.32z"/>
						<path fill="#C64332" d="M48.381,89.577c0.172,0.135,0.352,0.251,0.541,0.348c0.146,0.129,0.296,0.243,0.451,0.335
							c1.624,0.986,3.45,1.486,5.43,1.486c0.4,0,0.812-0.021,1.237-0.064c1.658-0.167,3.205-0.655,4.597-1.443
							c1.34-0.76,2.513-1.729,3.475-2.878c0.975-1.16,1.731-2.489,2.255-3.952c0.524-1.465,0.79-3.003,0.79-4.573
							c0-1.946-0.374-3.727-1.108-5.293c-0.051-0.114-0.112-0.223-0.176-0.326c-0.047-0.114-0.103-0.226-0.168-0.333
							c-0.223-0.393-0.485-0.801-0.79-1.226c-0.112-0.159-0.236-0.307-0.374-0.442c-0.056-0.075-0.116-0.15-0.18-0.221
							c-1.07-1.233-2.384-2.174-3.897-2.792c-1.542-0.636-3.243-0.868-5.095-0.679c-1.671,0.17-3.231,0.668-4.622,1.478
							c-1.336,0.773-2.5,1.766-3.463,2.956c-0.936,1.158-1.675,2.489-2.195,3.959c-0.52,1.465-0.782,3.005-0.782,4.577
							c0,1.798,0.335,3.488,0.988,5.011C45.997,87.143,47.032,88.513,48.381,89.577z M55.358,83.064
							c0.073-0.251,0.112-0.509,0.12-0.765c0.099-0.125,0.189-0.258,0.271-0.395l0.253-0.447c0.125-0.228,0.219-0.466,0.284-0.709
							c0.253-0.161,0.485-0.357,0.687-0.584l0.412-0.451c0.271-0.294,0.481-0.629,0.627-0.986c0.846-0.084,1.693-0.163,2.539-0.243
							c0.004,0.114,0.009,0.232,0.009,0.35c0,0.821-0.133,1.59-0.404,2.35c-0.262,0.735-0.623,1.366-1.095,1.933
							c-0.46,0.543-1.023,1.01-1.68,1.381c-0.597,0.339-1.254,0.541-2.006,0.619c-0.086,0.009-0.172,0.015-0.258,0.019
							c0.009-0.094,0.013-0.191,0.013-0.288v-0.44c0-0.206-0.026-0.408-0.069-0.606C55.19,83.56,55.289,83.311,55.358,83.064z"/>
						<path fill="#C64332" d="M184.774,81.575l0.859,0.129c0.142,0.021,0.279,0.034,0.421,0.039
							c0.133,0.036,0.266,0.067,0.408,0.088c1.916,0.296,3.832,0.601,5.744,0.919c0.412,0.069,0.799,0.099,1.147,0.099
							c2.616,0,4.562-1.74,4.859-4.339c0.073-0.268,0.107-0.548,0.107-0.831c0-0.372-0.107-1.147-0.228-1.497
							c-0.043-0.122-0.09-0.241-0.15-0.354c-0.043-0.206-0.107-0.41-0.193-0.608c-0.369-0.853-0.941-1.59-1.736-2.219
							c-0.778-0.599-1.697-0.99-2.724-1.158c-2.513-0.419-5.026-0.816-7.544-1.194c-0.958-0.144-1.916,0.133-2.642,0.763
							c-0.73,0.627-1.147,1.54-1.147,2.5v4.399C181.956,79.947,183.155,81.337,184.774,81.575z"/>
					</g>
					<g>
						<g>
							<path fill="#FCFCFC" d="M9.792,106.172c-0.233,0.192-0.466,0.384-0.698,0.576c3.415-0.667,6.835-1.299,10.26-1.895
								c-0.262-0.101-0.524-0.202-0.786-0.303C15.639,105.065,12.714,105.606,9.792,106.172z"/>
							<path fill="#FCFCFC" d="M7.655,109.23c4.359-0.864,8.725-1.671,13.1-2.421c0-0.147,0-0.293,0-0.44
								c-4.374,0.751-8.741,1.558-13.1,2.421C7.654,108.937,7.654,109.084,7.655,109.23z"/>
							<path fill="#FCFCFC" d="M17.257,103.463c-4.094,0.732-8.182,1.512-12.262,2.343c0,0.293,0,0.586,0,0.879
								c4.355-0.887,8.719-1.716,13.09-2.49c0-0.293,0-0.586,0-0.879c-0.131-0.124-0.262-0.247-0.393-0.371
								c0.292-0.052,0.583-0.103,0.875-0.155c0-0.147,0-0.294,0-0.44c-0.437,0.077-0.874,0.154-1.311,0.232
								C17.257,102.876,17.257,103.169,17.257,103.463z"/>
							<path fill="#FCFCFC" d="M68.975,98.215c-6.001,0.456-11.996,1.017-17.983,1.683c0.249,0.119,0.499,0.238,0.748,0.358
								c5.489-0.602,10.984-1.117,16.485-1.543C68.476,98.547,68.725,98.381,68.975,98.215z"/>
							<path fill="#FCFCFC" d="M57.994,101.808c1.278-0.125,2.556-0.244,3.835-0.36c0.676-0.208,1.352-0.414,2.028-0.619
								c-2.615,0.225-5.23,0.47-7.842,0.735C56.675,101.644,57.335,101.725,57.994,101.808z"/>
							<path fill="#FCFCFC" d="M74.251,81.564c0.013-0.293,0.035-0.589,0.065-0.883c0.839-0.055,1.679-0.108,2.518-0.159
								c-0.03-0.145-0.06-0.29-0.09-0.435c-0.795,0.048-1.59,0.099-2.384,0.151c0-0.147,0-0.294,0-0.44
								c-0.001-0.233-0.004-0.453-0.021-0.658c-0.014-0.203-0.034-0.423-0.065-0.655c0.721-0.047,1.443-0.093,2.165-0.138
								c-0.045-0.144-0.089-0.288-0.134-0.432c-0.677,0.042-1.354,0.085-2.031,0.129c-0.06-0.611-0.147-1.195-0.263-1.742
								c0.574-0.038,1.147-0.075,1.721-0.111c-0.059-0.143-0.118-0.286-0.177-0.429c-0.545,0.034-1.089,0.07-1.634,0.106
								c-0.061-0.288-0.134-0.578-0.22-0.866c-0.091-0.287-0.177-0.575-0.267-0.861c0.412-0.028,0.825-0.055,1.237-0.082
								c-0.103-0.14-0.207-0.28-0.31-0.42c-0.352,0.023-0.704,0.047-1.056,0.07c-0.121-0.284-0.245-0.571-0.375-0.855
								c-0.134-0.284-0.276-0.567-0.422-0.85c0.235-0.016,0.471-0.032,0.707-0.048c-0.118-0.138-0.236-0.277-0.354-0.416
								c-0.205,0.014-0.411,0.028-0.617,0.042c-0.47-0.818-1.009-1.607-1.612-2.371c-0.603-0.761-1.271-1.482-2.008-2.159
								c1.297,1.192,2.434,2.837,3.422,4.938c0.988,2.102,1.479,4.447,1.479,7.025c0,2.023-0.384,4.103-1.147,6.236
								c-0.767,2.137-1.871,4.098-3.31,5.894c-1.444,1.796-3.223,3.314-5.337,4.567c-2.119,1.252-4.512,2.008-7.184,2.277
								c-2.439,0.245-4.65,0.029-6.631-0.656c-1.977-0.684-3.613-1.647-4.902-2.896c0.614,0.687,1.361,1.323,2.242,1.907
								c0.881,0.585,1.86,1.078,2.947,1.483c1.083,0.407,2.236,0.7,3.457,0.876c1.217,0.181,2.455,0.205,3.721,0.081
								c1.09-0.107,2.173-0.33,3.262-0.664c1.085-0.334,2.144-0.752,3.173-1.25c2.485-0.214,4.971-0.41,7.458-0.588
								c0.132-0.156,0.264-0.313,0.397-0.468c-2.296,0.163-4.591,0.34-6.885,0.533c0.499-0.276,0.995-0.582,1.478-0.915
								c0.487-0.331,0.952-0.691,1.391-1.078c1.867-0.147,3.735-0.284,5.603-0.41c0.118-0.155,0.236-0.31,0.354-0.464
								c-1.809,0.121-3.618,0.252-5.426,0.392c0.707-0.611,1.322-1.245,1.853-1.9c1.559-0.115,3.118-0.223,4.677-0.324
								c0.075-0.152,0.149-0.303,0.224-0.455c-1.517,0.098-3.033,0.202-4.548,0.313c0.233-0.31,0.457-0.619,0.659-0.928
								c0.207-0.307,0.414-0.615,0.621-0.923c1.354-0.096,2.707-0.186,4.061-0.271c0.044-0.15,0.089-0.299,0.133-0.449
								c-1.311,0.082-2.622,0.169-3.932,0.261c0.146-0.303,0.302-0.592,0.466-0.868c0.16-0.276,0.315-0.579,0.461-0.912
								c1.178-0.081,2.357-0.157,3.536-0.23c0.043-0.15,0.086-0.299,0.129-0.448c-1.177,0.072-2.354,0.148-3.531,0.229
								c0.116-0.3,0.229-0.609,0.332-0.923c0.103-0.316,0.198-0.623,0.285-0.922c1.075-0.072,2.15-0.141,3.225-0.206
								c0.014-0.147,0.029-0.295,0.043-0.443c-1.045,0.063-2.09,0.13-3.135,0.2c0.06-0.296,0.125-0.594,0.198-0.894
								c0.073-0.296,0.125-0.594,0.156-0.889c0.971-0.064,1.943-0.126,2.915-0.184c0-0.147,0-0.294,0-0.44
								c-0.942,0.057-1.883,0.116-2.824,0.178C74.212,82.155,74.234,81.858,74.251,81.564z"/>
							<path fill="#FCFCFC" d="M88.233,97.553c4.377-0.169,8.755-0.282,13.133-0.34c-0.325-0.143-0.65-0.285-0.976-0.427
								c-3.758,0.057-7.516,0.154-11.273,0.293C88.823,97.237,88.528,97.394,88.233,97.553z"/>
							<path fill="#FCFCFC" d="M84.388,96.835c5.112-0.235,10.227-0.394,15.342-0.478c-0.104-0.291-0.207-0.582-0.311-0.873
								c-0.177-0.144-0.354-0.288-0.531-0.431c0.295-0.005,0.59-0.01,0.885-0.015c-0.059-0.146-0.118-0.292-0.177-0.437
								c-0.413,0.007-0.826,0.014-1.239,0.022c0.073,0.292,0.147,0.584,0.22,0.877c-4.613,0.085-9.225,0.233-13.835,0.442
								C84.623,96.238,84.506,96.537,84.388,96.835z"/>
							<path fill="#FCFCFC" d="M86.157,99.396c-0.045,0.149-0.089,0.298-0.134,0.446c5.849-0.251,11.701-0.402,17.554-0.454
								c-0.059-0.146-0.118-0.292-0.177-0.439C97.651,99.003,91.902,99.151,86.157,99.396z"/>
							<path fill="#FCFCFC" d="M113.613,96.757c-0.295,0.144-0.59,0.288-0.885,0.432c4.377,0.038,8.754,0.133,13.13,0.283
								c-0.324-0.158-0.647-0.315-0.971-0.473C121.13,96.877,117.372,96.796,113.613,96.757z"/>
							<path fill="#FCFCFC" d="M108.88,96.288c5.116,0.007,10.232,0.09,15.346,0.249c-0.104-0.296-0.207-0.592-0.311-0.888
								c-0.177-0.152-0.354-0.304-0.531-0.456c0.295,0.009,0.59,0.017,0.885,0.027c-0.059-0.148-0.118-0.297-0.177-0.446
								c-0.413-0.013-0.826-0.025-1.239-0.037c0.073,0.296,0.147,0.591,0.22,0.887c-4.612-0.133-9.226-0.204-13.839-0.214
								C109.117,95.703,108.999,95.995,108.88,96.288z"/>
							<path fill="#FCFCFC" d="M110.517,99.373c5.851,0.026,11.703,0.152,17.551,0.378c-0.057-0.149-0.115-0.298-0.173-0.447
								c-5.746-0.219-11.495-0.343-17.245-0.37C110.606,99.08,110.562,99.226,110.517,99.373z"/>
							<path fill="#FCFCFC" d="M144.063,98.415c9.505,0.661,18.996,1.586,28.463,2.773c0-0.147,0-0.294,0-0.44
								c-9.232-1.158-18.487-2.066-27.756-2.723C144.535,98.154,144.299,98.284,144.063,98.415z"/>
							<path fill="#FCFCFC" d="M142.606,100.515c9.992,0.667,19.969,1.624,29.92,2.872c0-0.147,0-0.294,0-0.44
								c-9.95-1.248-19.928-2.205-29.92-2.872C142.606,100.222,142.606,100.369,142.606,100.515z"/>
							<path fill="#FCFCFC" d="M169.932,88.991c-0.279-0.034-0.558-0.067-0.838-0.1c0,3.373,0,6.746,0,10.119
								c-9.707-1.152-19.439-2.027-29.183-2.626c0,0.293,0,0.586,0,0.879c10.025,0.617,20.036,1.525,30.021,2.726
								c0-0.439,0-0.879,0-1.319c0.865,0.104,1.729,0.211,2.594,0.319c0-0.147,0-0.294,0-0.44c-0.864-0.109-1.729-0.215-2.594-0.319
								c0-0.586,0-1.173,0-1.759c0.865,0.104,1.729,0.211,2.594,0.319c0-0.147,0-0.294,0-0.44c-0.864-0.109-1.729-0.215-2.594-0.319
								c0-0.586,0-1.173,0-1.759c0.865,0.104,1.729,0.21,2.594,0.319c0-0.147,0-0.294,0-0.44c-0.864-0.109-1.729-0.215-2.594-0.319
								C169.932,92.217,169.932,90.604,169.932,88.991z"/>
							<path fill="#FCFCFC" d="M200.662,105.506c3.423,0.622,6.841,1.279,10.254,1.971c-0.32-0.212-0.641-0.423-0.962-0.634
								c-2.919-0.586-5.841-1.146-8.768-1.681C201.011,105.276,200.836,105.391,200.662,105.506z"/>
							<path fill="#FCFCFC" d="M209.039,105.341c-0.174-0.182-0.349-0.363-0.524-0.544c0.291,0.057,0.582,0.115,0.873,0.173
								c-0.042-0.155-0.085-0.31-0.128-0.466c-0.437-0.087-0.874-0.174-1.311-0.26c0.088,0.311,0.176,0.622,0.264,0.933
								c-4.084-0.806-8.175-1.561-12.273-2.266c0.102,0.31,0.205,0.621,0.308,0.931c4.373,0.756,8.739,1.569,13.097,2.438
								C209.243,105.967,209.141,105.654,209.039,105.341z"/>
							<path fill="#FCFCFC" d="M212.871,109.636c-4.353-0.9-8.715-1.743-13.084-2.53c0.058,0.157,0.117,0.315,0.175,0.472
								c4.369,0.788,8.731,1.633,13.084,2.534C212.987,109.954,212.929,109.795,212.871,109.636z"/>
							<path fill="#FCFCFC" d="M178.675,104.196c4.391,0.604,8.776,1.265,13.155,1.983c0-0.147,0-0.294,0-0.44
								c-4.378-0.718-8.764-1.379-13.155-1.983C178.675,103.902,178.675,104.049,178.675,104.196z"/>
							<path fill="#FCFCFC" d="M188.326,101.658c-4.105-0.644-8.216-1.238-12.332-1.783c0,0.293,0,0.586,0,0.879
								c4.393,0.581,8.781,1.219,13.162,1.914c0-0.293,0-0.586,0-0.879c-0.131-0.168-0.263-0.335-0.394-0.503
								c0.292,0.046,0.585,0.093,0.877,0.139c0-0.147,0-0.294,0-0.44c-0.438-0.07-0.876-0.139-1.313-0.208
								C188.326,101.071,188.326,101.365,188.326,101.658z"/>
							<path fill="#FCFCFC" d="M180.827,101.857c-0.234,0.114-0.469,0.227-0.703,0.341c3.438,0.483,6.873,1.001,10.303,1.553
								c-0.262-0.189-0.525-0.378-0.787-0.567C186.705,102.717,183.767,102.274,180.827,101.857z"/>
							<path fill="#FCFCFC" d="M34.313,79.153c0.013-0.294,0.039-0.592,0.064-0.888c0.804-0.116,1.609-0.23,2.413-0.342
								c-0.06-0.138-0.12-0.277-0.18-0.415c-0.745,0.104-1.489,0.21-2.233,0.317c0-0.088,0.008-0.17,0.026-0.246
								c0.012-0.074,0.022-0.156,0.021-0.244c0-0.206-0.008-0.41-0.021-0.613c-0.018-0.201-0.039-0.42-0.069-0.649
								c0.527-0.076,1.054-0.151,1.582-0.226c-0.073-0.137-0.146-0.273-0.219-0.41c-0.483,0.068-0.966,0.137-1.449,0.207
								c-0.06-0.284-0.124-0.568-0.197-0.852c-0.072-0.282-0.171-0.562-0.287-0.837c0.22-0.032,0.44-0.064,0.66-0.096
								c-0.097-0.133-0.194-0.265-0.291-0.398c-0.181,0.026-0.363,0.052-0.544,0.079c-0.818-1.759-2.018-3.194-3.598-4.302
								c-0.963-1.026-2.153-1.794-3.569-2.3c-1.416-0.506-3.002-0.613-4.75-0.317c-6.14,1.042-12.265,2.195-18.374,3.46
								c0,0.294,0,0.587,0,0.881c0.726,0.583,1.451,1.167,2.177,1.754c0,9.677,0,19.355,0,29.032
								c-0.726,0.88-1.452,1.762-2.177,2.646c0,0.294,0,0.587,0,0.881c4.353-0.901,8.715-1.746,13.084-2.534
								c0-0.294,0-0.587,0-0.881c-0.161-0.132-0.321-0.264-0.482-0.396c0-0.132,0-0.263,0-0.395
								c0.889-0.161,1.778-0.319,2.667-0.476c0-0.147,0-0.294,0-0.44c-0.89,0.156-1.779,0.315-2.667,0.476c0-0.586,0-1.173,0-1.759
								c0.889-0.161,1.778-0.319,2.667-0.476c0-0.147,0-0.294,0-0.44c-0.89,0.157-1.779,0.315-2.667,0.476c0-0.586,0-1.173,0-1.759
								c0.889-0.161,1.778-0.32,2.667-0.476c0-0.147,0-0.294,0-0.44c-0.89,0.157-1.779,0.315-2.667,0.476c0-0.572,0-1.144,0-1.716
								c3.641-0.66,7.286-1.281,10.937-1.862c0.935-0.296,1.871-0.589,2.807-0.88c-4.589,0.705-9.171,1.472-13.744,2.301
								c0-0.601,0-1.201,0-1.802c5.752-1.043,11.518-1.988,17.295-2.834c0.204-0.177,0.408-0.353,0.613-0.53
								c-5.982,0.869-11.952,1.843-17.907,2.923c0-0.161,0-0.322,0-0.483c2.054-0.372,4.109-0.732,6.166-1.079
								c2.538-0.429,4.771-1.212,6.701-2.362c2.147-0.333,4.296-0.654,6.446-0.96c0.103-0.161,0.206-0.323,0.309-0.484
								c-1.946,0.276-3.891,0.563-5.834,0.862c0.878-0.633,1.622-1.332,2.235-2.098c1.462-0.218,2.925-0.429,4.388-0.635
								c0.059-0.155,0.117-0.31,0.176-0.465c-1.405,0.197-2.809,0.399-4.212,0.607c0.407-0.558,0.775-1.199,1.097-1.921
								c1.184-0.173,2.368-0.342,3.553-0.507c0.015-0.149,0.031-0.298,0.047-0.447c-1.127,0.157-2.255,0.317-3.382,0.481
								c0.115-0.309,0.227-0.62,0.33-0.929c0.103-0.308,0.18-0.612,0.24-0.913c0.966-0.14,1.931-0.276,2.898-0.41
								c0-0.147,0-0.293,0-0.44c-0.952,0.132-1.903,0.267-2.855,0.404C34.261,79.749,34.3,79.449,34.313,79.153z M23.947,77.238
								c-2.685,0.444-5.367,0.908-8.046,1.394c0-0.147,0-0.293,0-0.44c2.372-0.43,4.747-0.843,7.123-1.24
								c0.145-0.024,0.295-0.048,0.44-0.073c0.146-0.024,0.295-0.035,0.441-0.032C23.933,76.92,23.946,77.051,23.947,77.238z
								 M23.861,77.692c-0.119,1.193-0.846,1.9-2.188,2.126c-1.926,0.326-3.85,0.664-5.772,1.013c0-0.586,0-1.173,0-1.759
								C18.551,78.591,21.205,78.131,23.861,77.692z M14.198,76.743c2.489-0.46,4.981-0.901,7.474-1.324
								c0.495-0.084,0.91-0.051,1.248,0.097c0.333,0.152,0.572,0.374,0.722,0.673c-0.325-0.092-0.731-0.097-1.226-0.015
								c-2.45,0.412-4.898,0.842-7.343,1.289c0,1.173,0,2.346,0,3.518c-0.292,0.053-0.583,0.107-0.875,0.161
								C14.198,79.676,14.198,78.21,14.198,76.743z M32.886,81.015c-0.467,1.413-1.169,2.677-2.103,3.798
								c-0.938,1.12-2.128,2.078-3.574,2.876c-1.446,0.8-3.131,1.358-5.058,1.682c-2.362,0.398-4.721,0.814-7.078,1.245
								c0,3.387,0,6.775,0,10.162c-0.292-0.24-0.583-0.48-0.875-0.72c0-3.373,0-6.745,0-10.117c2.489-0.46,4.981-0.901,7.474-1.325
								c1.632-0.276,3.129-0.787,4.485-1.533c1.36-0.745,2.52-1.675,3.487-2.791c0.963-1.116,1.713-2.388,2.257-3.817
								c0.539-1.429,0.809-2.964,0.809-4.607c0-2.169-0.673-4.125-2.017-5.857c0.878,0.864,1.58,1.859,2.107,2.985
								c0.527,1.125,0.788,2.331,0.788,3.62C33.589,78.138,33.353,79.601,32.886,81.015z"/>
							<path fill="#FCFCFC" d="M55.705,97.197c2.349-0.24,4.552-0.91,6.611-2.017c2.058-1.108,3.85-2.508,5.38-4.212
								c1.529-1.705,2.745-3.654,3.641-5.86c0.896-2.205,1.345-4.524,1.345-6.957c0-2.434-0.448-4.69-1.345-6.769
								c-0.897-2.076-2.112-3.851-3.641-5.314c-1.53-1.463-3.321-2.57-5.38-3.31c-2.058-0.741-4.262-0.994-6.611-0.754
								c-2.348,0.239-4.546,0.942-6.583,2.099c-2.037,1.158-3.828,2.629-5.365,4.406c-1.541,1.776-2.747,3.799-3.626,6.055
								c-0.879,2.258-1.317,4.606-1.317,7.04c0,2.433,0.437,4.661,1.317,6.686c0.88,2.026,2.085,3.729,3.626,5.119
								c1.537,1.389,3.328,2.426,5.365,3.116C51.16,97.215,53.356,97.436,55.705,97.197z M63.858,78.834
								c0,1.202-0.198,2.357-0.594,3.46c-0.396,1.107-0.956,2.085-1.675,2.943c-0.719,0.856-1.58,1.565-2.578,2.13
								c-0.998,0.565-2.1,0.909-3.305,1.031c-1.733,0.176-3.273-0.14-4.623-0.96c-0.03-0.024-0.06-0.067-0.09-0.121
								c-0.03-0.055-0.073-0.11-0.129-0.162c0.395-0.044,0.791-0.088,1.187-0.131c-0.029-0.144-0.057-0.287-0.086-0.431
								c-0.456,0.05-0.912,0.1-1.367,0.151c-0.322-0.55-0.589-1.107-0.791-1.67c0.674-0.077,1.349-0.152,2.025-0.226
								c0-0.147,0-0.294,0-0.44c-0.719,0.079-1.439,0.159-2.158,0.241c-0.086-0.282-0.163-0.568-0.219-0.856
								c-0.06-0.285-0.103-0.574-0.133-0.863c0.91-0.104,1.82-0.206,2.73-0.305c0.044-0.152,0.089-0.303,0.133-0.455
								c-0.954,0.104-1.909,0.211-2.863,0.32c0-0.147,0-0.294,0-0.44c0-0.234,0.009-0.454,0.021-0.662
								c0.017-0.207,0.039-0.43,0.069-0.667c1.143-0.131,2.287-0.257,3.43-0.38c0.089-0.157,0.178-0.313,0.267-0.469
								c-1.219,0.131-2.436,0.265-3.654,0.404c0.056-0.298,0.133-0.608,0.219-0.927c0.09-0.317,0.189-0.615,0.309-0.892
								c1.51-0.171,3.021-0.335,4.532-0.493c0.147-0.162,0.295-0.325,0.443-0.486c-1.6,0.166-3.199,0.339-4.798,0.519
								c0.233-0.613,0.572-1.238,1.01-1.872c3.962-0.439,7.928-0.833,11.897-1.18C63.595,76.07,63.858,77.368,63.858,78.834z
								 M62.846,74.523c-3.778,0.332-7.553,0.706-11.325,1.122c0.589-0.769,1.319-1.436,2.201-1.997
								c2.451-0.259,4.904-0.501,7.358-0.726c0.383,0.17,0.766,0.385,1.145,0.644C62.462,73.898,62.669,74.217,62.846,74.523z
								 M54.824,73.092c0.413-0.148,0.83-0.284,1.256-0.406c0.425-0.122,0.874-0.206,1.342-0.252
								c0.972-0.096,1.85-0.049,2.647,0.141C58.32,72.739,56.571,72.911,54.824,73.092z M47.606,80.491
								c0-1.203,0.197-2.362,0.593-3.478c0.395-1.116,0.945-2.112,1.65-2.985c0.705-0.869,1.556-1.597,2.553-2.174
								c0.997-0.58,2.098-0.929,3.303-1.052c1.291-0.132,2.461,0.017,3.503,0.448c1.042,0.427,1.932,1.063,2.669,1.907
								c-1.528-1.213-3.293-1.72-5.289-1.521c-1.118,0.111-2.16,0.426-3.127,0.939c-0.971,0.514-1.828,1.193-2.575,2.04
								c-0.748,0.846-1.337,1.822-1.762,2.927c-0.425,1.104-0.636,2.303-0.636,3.592c0,1.026,0.168,2.071,0.503,3.132
								c0.339,1.061,0.816,1.966,1.431,2.718c-0.911-0.719-1.607-1.642-2.089-2.773C47.847,83.081,47.606,81.839,47.606,80.491z"/>
							<path fill="#FCFCFC" d="M128.245,73.363c0.899,0.035,1.798,0.073,2.697,0.112c0.059-0.144,0.118-0.288,0.177-0.432
								c-0.899-0.04-1.798-0.077-2.697-0.113c0.207-0.578,0.415-1.156,0.622-1.735c0.898,0.036,1.796,0.075,2.693,0.116
								c0.059-0.144,0.118-0.288,0.177-0.432c-0.897-0.042-1.795-0.08-2.693-0.117c0.206-0.578,0.412-1.156,0.617-1.734
								c0.899,0.038,1.798,0.078,2.697,0.12c0.043-0.145,0.086-0.29,0.129-0.434c-0.898-0.043-1.795-0.083-2.693-0.121
								c0.22-0.577,0.44-1.154,0.66-1.731c1.253,0.055,2.506,0.114,3.758,0.177c0.177-0.138,0.354-0.275,0.531-0.413
								c-1.385-0.072-2.77-0.138-4.155-0.198c0.206-0.577,0.412-1.155,0.617-1.732c1.635,0.073,3.271,0.155,4.905,0.244
								c0.045-0.144,0.089-0.289,0.134-0.433c-1.472-0.081-2.945-0.155-4.418-0.223c0.795-0.55,1.591-1.098,2.386-1.644
								c0.102-0.288,0.204-0.577,0.306-0.865c-0.279-0.014-0.558-0.028-0.837-0.042c-1.001,0.699-2.002,1.4-3.003,2.104
								c-3.432,9.468-6.866,18.971-10.299,28.509c-0.148-0.415-0.296-0.829-0.445-1.243c3.405-9.438,6.81-18.842,10.213-28.212
								c0.987-0.691,1.973-1.379,2.96-2.064c0.102-0.288,0.204-0.577,0.306-0.866c-4.418-0.218-8.839-0.378-13.26-0.482
								c-0.102,0.291-0.204,0.582-0.306,0.873c0.486,0.744,0.973,1.489,1.459,2.235c-1.49,4.14-2.979,8.287-4.469,12.44
								c-0.029-0.074-0.058-0.147-0.086-0.221c-0.899-0.015-1.799-0.028-2.699-0.039c-0.206-0.589-0.412-1.177-0.617-1.766
								c0.9,0.009,1.799,0.021,2.699,0.035c-0.059-0.148-0.118-0.295-0.177-0.443c-0.9-0.014-1.799-0.025-2.699-0.034
								c-0.206-0.589-0.412-1.177-0.618-1.765c0.898,0.008,1.797,0.019,2.695,0.031c-0.059-0.147-0.118-0.295-0.177-0.443
								c-0.898-0.013-1.796-0.023-2.695-0.03c-0.207-0.588-0.414-1.176-0.622-1.764c0.899,0.007,1.799,0.016,2.699,0.027
								c-0.059-0.147-0.118-0.295-0.177-0.442c-0.899-0.011-1.799-0.02-2.699-0.026c-0.206-0.588-0.412-1.176-0.618-1.763
								c1.253,0.007,2.505,0.019,3.757,0.036c0.075-0.146,0.15-0.292,0.224-0.437c-1.386-0.019-2.772-0.032-4.158-0.04
								c-0.206-0.588-0.412-1.175-0.618-1.763c1.635,0.007,3.27,0.022,4.906,0.045c-0.074-0.148-0.147-0.296-0.22-0.443
								c-1.474-0.02-2.948-0.033-4.422-0.041c0.383-0.584,0.766-1.169,1.149-1.752c-0.102-0.294-0.204-0.589-0.306-0.883
								c-0.281-0.002-0.561-0.003-0.842-0.005c-0.472,0.746-0.944,1.493-1.416,2.239c1.991,5.503,3.982,11.018,5.972,16.544
								c-0.148,0.408-0.296,0.816-0.445,1.225c-2.24-6.246-4.479-12.477-6.719-18.693c0.472-0.733,0.944-1.466,1.417-2.198
								c-0.118-0.294-0.236-0.587-0.354-0.881c-4.436-0.009-8.873,0.04-13.309,0.146c-0.104,0.296-0.208,0.592-0.311,0.888
								c0.486,0.721,0.973,1.444,1.459,2.166c-1.488,4.211-2.976,8.428-4.464,12.651c-0.03-0.072-0.061-0.144-0.091-0.216
								c-0.899,0.027-1.799,0.057-2.698,0.089c-0.206-0.579-0.412-1.158-0.617-1.737c0.899-0.033,1.799-0.064,2.698-0.092
								c-0.059-0.145-0.118-0.29-0.177-0.435c-0.899,0.029-1.799,0.06-2.698,0.093c-0.206-0.579-0.411-1.157-0.617-1.736
								c0.898-0.034,1.795-0.067,2.693-0.096c-0.059-0.145-0.118-0.289-0.177-0.434c-0.898,0.03-1.796,0.063-2.693,0.098
								c-0.207-0.579-0.414-1.157-0.621-1.735c0.899-0.036,1.798-0.07,2.698-0.101c-0.059-0.145-0.118-0.289-0.177-0.434
								c-0.899,0.031-1.798,0.066-2.698,0.102c-0.206-0.578-0.411-1.156-0.617-1.734c1.252-0.052,2.504-0.099,3.755-0.142
								c0.075-0.149,0.15-0.299,0.224-0.448c-1.386,0.047-2.771,0.099-4.157,0.157c-0.206-0.578-0.411-1.155-0.617-1.733
								c1.634-0.07,3.268-0.133,4.903-0.188c-0.073-0.144-0.147-0.289-0.22-0.433c-1.473,0.05-2.947,0.107-4.42,0.169
								c0.383-0.603,0.766-1.205,1.148-1.807c-0.102-0.289-0.204-0.579-0.306-0.868c-0.281,0.012-0.561,0.023-0.842,0.035
								c-0.47,0.768-0.94,1.537-1.411,2.307c1.988,5.409,3.976,10.829,5.965,16.261c-0.147,0.415-0.294,0.83-0.44,1.246
								c-2.24-6.14-4.48-12.265-6.72-18.375c0.472-0.756,0.944-1.511,1.415-2.265c-0.118-0.288-0.236-0.576-0.354-0.865
								c-4.419,0.201-8.835,0.459-13.249,0.773c0.118,0.285,0.236,0.57,0.353,0.856c1,0.663,2,1.328,3,1.997
								c3.488,9.451,6.978,18.939,10.469,28.461c-0.413,0.664-0.826,1.329-1.239,1.994c-0.118,0.093-0.236,0.186-0.354,0.279
								c-0.102,0.299-0.204,0.597-0.306,0.895c4.683-0.225,9.368-0.387,14.054-0.484c-0.103-0.292-0.207-0.583-0.311-0.874
								c-0.102-0.085-0.205-0.17-0.307-0.255c-0.059-0.073-0.118-0.145-0.177-0.217c0.043-0.133,0.087-0.265,0.13-0.398
								c0.899-0.02,1.799-0.038,2.699-0.053c0.045-0.148,0.089-0.295,0.134-0.442c-0.9,0.015-1.799,0.032-2.699,0.052
								c0.222-0.591,0.443-1.183,0.665-1.773c0.898-0.019,1.796-0.035,2.694-0.049c0.045-0.147,0.089-0.295,0.134-0.443
								c-0.9,0.014-1.799,0.03-2.699,0.048c0.207-0.591,0.415-1.181,0.622-1.772c0.898-0.017,1.796-0.032,2.695-0.045
								c0.059-0.148,0.118-0.296,0.177-0.443c-0.898,0.012-1.796,0.027-2.694,0.044c0.206-0.576,0.411-1.152,0.617-1.728
								c0.9-0.016,1.799-0.029,2.699-0.04c0.043-0.147,0.087-0.295,0.129-0.442c-0.898,0.011-1.796,0.024-2.694,0.04
								c0.22-0.605,0.44-1.209,0.66-1.813c0.9-0.015,1.799-0.027,2.699-0.036c0.045-0.147,0.089-0.295,0.134-0.442
								c-0.9,0.01-1.799,0.021-2.699,0.036c0.206-0.59,0.412-1.179,0.618-1.769c0.9-0.013,1.799-0.024,2.699-0.033
								c0.059-0.147,0.118-0.295,0.177-0.442c-0.899,0.008-1.799,0.019-2.699,0.031c0.207-0.589,0.415-1.179,0.622-1.768
								c0.898-0.012,1.796-0.021,2.695-0.029c0.059-0.147,0.118-0.294,0.177-0.441c-0.898,0.007-1.796,0.016-2.694,0.027
								c0.206-0.589,0.411-1.178,0.617-1.767c0.826-0.01,1.653-0.017,2.479-0.022c1.68,4.68,3.359,9.369,5.039,14.066
								c-0.413,0.645-0.826,1.29-1.239,1.935c-0.118,0.087-0.236,0.175-0.354,0.262c-0.102,0.294-0.204,0.587-0.307,0.881
								c4.687-0.004,9.374,0.057,14.06,0.182c-0.104-0.296-0.207-0.593-0.311-0.889c-0.102-0.09-0.204-0.18-0.307-0.27
								c-0.059-0.075-0.118-0.15-0.177-0.226c0.043-0.131,0.086-0.261,0.129-0.392c0.899,0.023,1.799,0.048,2.698,0.075
								c0.045-0.146,0.089-0.291,0.134-0.436c-0.899-0.028-1.799-0.053-2.698-0.076c0.222-0.581,0.444-1.161,0.665-1.742
								c0.898,0.024,1.796,0.05,2.694,0.079c0.045-0.146,0.089-0.291,0.134-0.436c-0.899-0.029-1.799-0.056-2.698-0.08
								c0.207-0.58,0.415-1.161,0.622-1.742c0.898,0.025,1.796,0.053,2.694,0.083c0.059-0.145,0.118-0.289,0.177-0.434
								c-0.898-0.03-1.796-0.058-2.694-0.084c0.206-0.566,0.412-1.132,0.617-1.698c0.899,0.027,1.799,0.056,2.698,0.087
								c0.043-0.145,0.086-0.291,0.129-0.436c-0.898-0.032-1.796-0.061-2.694-0.088c0.22-0.594,0.44-1.188,0.66-1.782
								c0.899,0.028,1.799,0.059,2.698,0.091c0.045-0.145,0.089-0.29,0.134-0.435c-0.899-0.033-1.799-0.064-2.698-0.092
								c0.206-0.58,0.412-1.16,0.617-1.739c0.899,0.029,1.798,0.061,2.698,0.095c0.059-0.145,0.118-0.289,0.177-0.433
								c-0.899-0.034-1.798-0.066-2.698-0.096c0.207-0.58,0.415-1.159,0.622-1.738c0.898,0.031,1.796,0.064,2.693,0.099
								c0.059-0.144,0.118-0.289,0.177-0.433c-0.898-0.036-1.796-0.069-2.694-0.1c0.206-0.579,0.412-1.158,0.617-1.737
								c0.899,0.032,1.798,0.067,2.698,0.104c0.059-0.144,0.118-0.289,0.177-0.433c-0.899-0.037-1.798-0.072-2.698-0.105
								c0.206-0.579,0.412-1.158,0.617-1.736c0.899,0.034,1.798,0.07,2.698,0.108c0.045-0.145,0.089-0.29,0.134-0.435
								c-0.899-0.039-1.798-0.075-2.697-0.109C127.834,74.52,128.039,73.941,128.245,73.363z M91.151,78.971
								c-0.147-0.435-0.294-0.87-0.44-1.304c0.309-0.01,0.619-0.02,0.928-0.03C91.476,78.082,91.313,78.526,91.151,78.971z
								 M91.816,77.191c-0.427,0.013-0.855,0.028-1.282,0.042c-0.207-0.58-0.415-1.159-0.622-1.738
								c0.84-0.03,1.681-0.057,2.521-0.083C92.227,76.005,92.021,76.598,91.816,77.191z M103.4,73.962
								c0.102,0.263,0.204,0.526,0.306,0.79c-0.191,0.002-0.383,0.004-0.574,0.005C103.222,74.492,103.311,74.227,103.4,73.962z
								 M96.06,92.339c-0.148-0.407-0.296-0.815-0.445-1.222c2.314-6.523,4.629-13.031,6.943-19.523
								c0.147,0.395,0.294,0.789,0.441,1.184C100.685,79.283,98.372,85.803,96.06,92.339z M102.381,76.964
								c0.206-0.589,0.412-1.177,0.618-1.766c0.295-0.003,0.59-0.006,0.885-0.008c0.207,0.585,0.415,1.17,0.622,1.755
								C103.798,76.95,103.089,76.956,102.381,76.964z M115.647,78.745c-0.147-0.442-0.294-0.883-0.441-1.325
								c0.31,0.004,0.619,0.009,0.929,0.013C115.973,77.871,115.81,78.308,115.647,78.745z M116.313,76.996
								c-0.428-0.007-0.855-0.013-1.283-0.019c-0.207-0.589-0.415-1.178-0.622-1.767c0.841,0.01,1.681,0.022,2.522,0.036
								C116.724,75.83,116.518,76.413,116.313,76.996z"/>
							<path fill="#FCFCFC" d="M168.171,87.023c-0.308-0.036-0.616-0.072-0.924-0.107c-0.747,0.661-1.496,1.325-2.244,1.989
								c-4.681-0.518-9.368-0.971-14.059-1.36c0-0.601,0-1.201,0-1.802c4.5,0.373,8.996,0.806,13.487,1.297c0-0.147,0-0.294,0-0.44
								c-4.491-0.492-8.988-0.924-13.487-1.297c0-0.117,0-0.235,0-0.352c3.617,0.3,7.231,0.639,10.843,1.015
								c0-0.469,0-0.938,0-1.407c0.882,0.092,1.763,0.186,2.645,0.282c0-0.147,0-0.294,0-0.44c-0.882-0.096-1.763-0.191-2.645-0.283
								c0-0.587,0-1.173,0-1.759c0.882,0.092,1.763,0.186,2.645,0.283c0-0.147,0-0.294,0-0.44c-0.882-0.096-1.763-0.191-2.645-0.283
								c0-1.598,0-3.196,0-4.794c-0.278-0.029-0.556-0.058-0.834-0.086c0,2.654,0,5.308,0,7.963
								c-3.612-0.371-7.227-0.703-10.844-0.997c0,1.158,0,2.315,0,3.473c-0.294-0.024-0.589-0.048-0.883-0.071
								c0-1.48,0-2.961,0-4.442c3.603,0.287,7.204,0.612,10.802,0.974c0-2.786,0-5.572,0-8.358c3.083,0.311,6.164,0.649,9.243,1.015
								c0-0.147,0-0.294,0-0.44c-6.1-0.726-12.209-1.342-18.326-1.85c0-0.586,0-1.173,0-1.759c6.117,0.508,12.226,1.124,18.326,1.85
								c0-0.147,0-0.294,0-0.44c-6.1-0.726-12.209-1.342-18.326-1.85c0-0.132,0-0.263,0-0.395
								c5.249,0.435,10.494,0.951,15.731,1.548c0-0.455,0-0.909,0-1.364c0.865,0.098,1.73,0.199,2.595,0.302c0-0.147,0-0.294,0-0.44
								c-0.865-0.103-1.73-0.203-2.595-0.302c0-0.586,0-1.173,0-1.759c0.865,0.098,1.73,0.199,2.595,0.302c0-0.147,0-0.294,0-0.44
								c-0.865-0.103-1.73-0.204-2.595-0.302c0-1.613,0-3.226,0-4.839c-0.279-0.032-0.559-0.063-0.838-0.095
								c0,2.654,0,5.309,0,7.963c-5.237-0.588-10.48-1.095-15.728-1.522c0,1.158,0,2.317,0,3.475
								c-0.294-0.024-0.589-0.047-0.883-0.071c0-1.466,0-2.933,0-4.399c5.235,0.417,10.464,0.913,15.687,1.49
								c0-2.933,0-5.865,0-8.798c-8.891-0.982-17.802-1.732-26.723-2.25c0,0.294,0,0.587,0,0.881
								c0.736,0.776,1.472,1.554,2.208,2.333c0,9.678,0,19.355,0,29.032c-0.736,0.687-1.472,1.376-2.208,2.066
								c0,0.294,0,0.587,0,0.881c10.01,0.582,20.008,1.455,29.981,2.62C168.171,94.355,168.171,90.688,168.171,87.023z"/>
							<path fill="#FCFCFC" d="M206.774,103.134c-0.219-0.203-0.437-0.407-0.656-0.61c-0.042-0.14-0.085-0.28-0.128-0.42
								c0.886,0.171,1.772,0.344,2.657,0.519c-0.044-0.156-0.088-0.311-0.132-0.466c-0.885-0.175-1.771-0.348-2.657-0.519
								c-0.205-0.626-0.409-1.251-0.613-1.877c0.888,0.17,1.775,0.342,2.662,0.516c-0.044-0.156-0.088-0.311-0.132-0.466
								c-0.885-0.174-1.771-0.346-2.658-0.514c-0.189-0.622-0.378-1.244-0.566-1.867c0.886,0.168,1.772,0.338,2.658,0.511
								c-0.058-0.158-0.117-0.316-0.175-0.474c-0.886-0.173-1.772-0.343-2.658-0.511c-0.189-0.608-0.378-1.215-0.567-1.823
								c0.887,0.167,1.773,0.336,2.659,0.507c-0.044-0.155-0.088-0.311-0.132-0.466c-0.886-0.171-1.772-0.34-2.659-0.507
								c-0.205-0.639-0.409-1.278-0.614-1.917c0.888,0.166,1.776,0.334,2.663,0.504c-0.044-0.155-0.088-0.31-0.132-0.466
								c-0.886-0.17-1.772-0.338-2.659-0.503c-0.205-0.625-0.409-1.249-0.614-1.873c1.31,0.243,2.62,0.491,3.929,0.743
								c0.102-0.127,0.205-0.254,0.307-0.381c-1.454-0.282-2.908-0.557-4.364-0.826c-0.088-0.281-0.176-0.561-0.264-0.841
								c0.174-0.114,0.35-0.233,0.524-0.365c0.174-0.129,0.35-0.262,0.524-0.407c1.455,0.271,2.91,0.549,4.363,0.833
								c0.058-0.136,0.117-0.271,0.175-0.406c-1.395-0.273-2.791-0.54-4.188-0.802c0.405-0.423,0.771-0.94,1.091-1.554
								c1.178,0.223,2.355,0.45,3.531,0.682c0.015-0.144,0.031-0.287,0.047-0.431c-1.12-0.22-2.24-0.437-3.361-0.649
								c0.115-0.269,0.226-0.543,0.328-0.818c0.103-0.273,0.179-0.552,0.239-0.833c0.96,0.183,1.92,0.369,2.879,0.558
								c0-0.147,0-0.293,0-0.44c-0.945-0.186-1.891-0.369-2.836-0.55c0.06-0.281,0.098-0.568,0.111-0.859
								c0.013-0.289,0.039-0.579,0.064-0.866c0.8,0.153,1.599,0.308,2.398,0.465c-0.06-0.158-0.119-0.317-0.179-0.475
								c-0.739-0.145-1.479-0.288-2.219-0.43c0-0.089,0.009-0.165,0.026-0.238c0.013-0.071,0.021-0.149,0.021-0.237
								c0-0.206-0.008-0.412-0.021-0.62c-0.017-0.208-0.038-0.433-0.068-0.673c0.524,0.1,1.048,0.201,1.572,0.303
								c-0.072-0.161-0.145-0.322-0.217-0.482c-0.48-0.093-0.96-0.186-1.44-0.277c-0.06-0.304-0.123-0.609-0.196-0.918
								c-0.072-0.306-0.171-0.617-0.286-0.933c0.219,0.042,0.438,0.083,0.656,0.125c-0.097-0.165-0.193-0.33-0.29-0.496
								c-0.18-0.035-0.361-0.069-0.541-0.103c-0.813-2.031-2.008-3.87-3.582-5.506c-0.96-1.348-2.146-2.515-3.559-3.496
								c-1.414-0.981-2.999-1.619-4.746-1.909c-6.143-1.018-12.299-1.925-18.467-2.72c0,0.294,0,0.587,0,0.881
								c0.733,0.828,1.465,1.657,2.197,2.487c0,9.677,0,19.355,0,29.032c-0.732,0.636-1.465,1.273-2.197,1.912
								c0,0.294,0,0.587,0,0.881c4.395,0.567,8.784,1.19,13.167,1.87c0-0.294,0-0.587,0-0.881c-0.161-0.186-0.322-0.372-0.484-0.558
								c0-0.132,0-0.264,0-0.395c0.892,0.138,1.783,0.277,2.674,0.419c0-0.147,0-0.294,0-0.44c-0.891-0.142-1.783-0.282-2.674-0.419
								c0-0.586,0-1.173,0-1.759c0.892,0.138,1.783,0.277,2.674,0.419c0-0.147,0-0.293,0-0.44c-0.891-0.142-1.783-0.282-2.674-0.419
								c0-0.586,0-1.173,0-1.759c0.892,0.138,1.783,0.277,2.674,0.419c0-0.147,0-0.294,0-0.44c-0.891-0.142-1.783-0.282-2.674-0.419
								c0-0.572,0-1.144,0-1.716c2.133,0.329,4.265,0.671,6.395,1.027c0.584,1.843,1.168,3.686,1.752,5.53
								c-0.481,0.651-0.963,1.303-1.444,1.955c0.103,0.311,0.205,0.622,0.308,0.932c4.376,0.737,8.745,1.529,13.105,2.379
								C206.978,103.761,206.876,103.447,206.774,103.134z M185.257,73.911c2.499,0.377,4.997,0.772,7.492,1.186
								c0.496,0.081,0.91,0.255,1.248,0.516c0.334,0.263,0.572,0.567,0.722,0.915c-0.325-0.201-0.73-0.343-1.227-0.426
								c-2.45-0.41-4.903-0.802-7.358-1.176c0,1.173,0,2.346,0,3.518c-0.292-0.045-0.585-0.089-0.878-0.133
								C185.257,76.844,185.257,75.377,185.257,73.911z M186.134,88.122c0,3.372,0,6.745,0,10.117
								c-0.292-0.338-0.585-0.676-0.878-1.014c0-3.372,0-6.745,0-10.117c2.163,0.326,4.324,0.666,6.483,1.02
								c0.103,0.31,0.205,0.62,0.308,0.931C190.078,88.735,188.107,88.423,186.134,88.122z M192.308,89.98
								c0.059,0.156,0.117,0.313,0.175,0.469c-1.838-0.304-3.678-0.598-5.519-0.881c0-0.147,0-0.294,0-0.44
								C188.747,89.402,190.528,89.687,192.308,89.98z M186.965,91.811c0-0.601,0-1.201,0-1.802
								c1.885,0.291,3.769,0.592,5.651,0.903c0.204,0.634,0.407,1.269,0.611,1.904C191.141,92.468,189.054,92.132,186.965,91.811z
								 M192.748,79.496c-1.926-0.32-3.854-0.628-5.784-0.925c0-0.586,0-1.173,0-1.759c2.66,0.41,5.317,0.841,7.972,1.293
								C194.817,79.257,194.091,79.718,192.748,79.496z M186.965,76.371c0-0.147,0-0.294,0-0.44c2.38,0.367,4.758,0.75,7.134,1.151
								c0.146,0.024,0.295,0.05,0.44,0.074c0.146,0.024,0.295,0.066,0.44,0.116c0.03,0.085,0.043,0.219,0.043,0.407
								C192.339,77.221,189.653,76.785,186.965,76.371z M203.851,100.376c-1.368-4.363-2.737-8.721-4.107-13.073
								c1.285-0.796,2.274-1.865,2.973-3.217c0.695-1.35,1.045-2.964,1.044-4.842c0-2.169-0.669-4.351-2.008-6.532
								c0.874,1.158,1.573,2.389,2.098,3.69c0.524,1.302,0.784,2.597,0.784,3.888c0,1.584-0.269,3.042-0.806,4.378
								c-0.541,1.335-1.522,2.53-2.951,3.588c1.384,4.402,2.766,8.81,4.148,13.223C204.635,101.111,204.243,100.743,203.851,100.376
								z"/>
						</g>
					</g>
				</g>
			</g>
			<g>
				<g>
					<g>
						<path fill="#FFC466" d="M19.356,104.849c-3.423,0.592-6.846,1.234-10.27,1.893c0.247-0.181,0.477-0.379,0.708-0.576
							c2.913-0.56,5.842-1.103,8.772-1.613C18.83,104.652,19.093,104.751,19.356,104.849z"/>
						<path fill="#FFC466" d="M20.755,106.364v0.444c-4.378,0.757-8.739,1.563-13.101,2.419v-0.444
							C12.016,107.927,16.377,107.121,20.755,106.364z"/>
						<path fill="#FFC466" d="M18.566,102.792c-0.296,0.049-0.576,0.099-0.872,0.148c0.132,0.132,0.263,0.247,0.395,0.378v0.872
							c-4.378,0.774-8.739,1.613-13.101,2.485v-0.872c4.082-0.823,8.18-1.613,12.261-2.337v-0.889
							c0.444-0.066,0.889-0.148,1.317-0.23V102.792z"/>
						<path fill="#FFC466" d="M68.977,98.217c-0.247,0.165-0.494,0.329-0.757,0.494c-5.497,0.428-10.994,0.938-16.474,1.547
							c-0.247-0.115-0.51-0.247-0.757-0.362C56.979,99.237,62.969,98.678,68.977,98.217z"/>
						<path fill="#FFC466" d="M63.858,100.834c-0.675,0.197-1.35,0.411-2.024,0.609c-1.284,0.115-2.567,0.247-3.835,0.362
							c-0.658-0.082-1.317-0.164-1.991-0.247C58.625,101.295,61.241,101.048,63.858,100.834z"/>
						<path fill="#FFC466" d="M73.947,83.783c-0.082,0.296-0.148,0.593-0.198,0.889c1.037-0.066,2.09-0.132,3.127-0.198
							c-0.016,0.148-0.033,0.296-0.049,0.444c-1.07,0.066-2.139,0.132-3.226,0.214c-0.082,0.296-0.181,0.592-0.28,0.922
							c-0.099,0.313-0.214,0.609-0.329,0.922c1.185-0.082,2.353-0.165,3.538-0.23c-0.049,0.148-0.099,0.296-0.132,0.444
							c-1.185,0.066-2.37,0.148-3.538,0.23c-0.148,0.329-0.296,0.642-0.461,0.905c-0.164,0.28-0.329,0.576-0.461,0.872
							c1.3-0.082,2.617-0.181,3.917-0.263c-0.033,0.148-0.082,0.296-0.132,0.461c-1.35,0.082-2.699,0.165-4.049,0.263
							c-0.214,0.313-0.428,0.609-0.625,0.922c-0.198,0.313-0.428,0.625-0.658,0.938c1.514-0.115,3.028-0.23,4.542-0.313
							c-0.066,0.148-0.148,0.296-0.214,0.444c-1.563,0.099-3.127,0.214-4.69,0.329c-0.527,0.658-1.136,1.284-1.843,1.893
							c1.81-0.132,3.621-0.263,5.415-0.395c-0.115,0.165-0.23,0.313-0.345,0.477c-1.876,0.115-3.736,0.263-5.596,0.411
							c-0.444,0.379-0.905,0.741-1.399,1.07c-0.477,0.329-0.971,0.642-1.481,0.922c2.304-0.197,4.592-0.378,6.896-0.543
							c-0.132,0.165-0.263,0.313-0.411,0.477c-2.485,0.181-4.97,0.362-7.455,0.576c-1.021,0.51-2.09,0.922-3.16,1.251
							c-1.103,0.346-2.172,0.56-3.275,0.675c-1.267,0.115-2.502,0.099-3.719-0.082c-1.218-0.181-2.37-0.477-3.456-0.872
							c-1.086-0.411-2.057-0.905-2.946-1.498c-0.872-0.576-1.629-1.218-2.238-1.893c1.284,1.234,2.93,2.205,4.905,2.896
							c1.975,0.675,4.18,0.889,6.632,0.642c2.666-0.263,5.053-1.02,7.176-2.271c2.123-1.251,3.901-2.765,5.332-4.575
							c1.448-1.794,2.551-3.753,3.325-5.892c0.757-2.123,1.136-4.213,1.136-6.238c0-0.28,0-0.576-0.017-0.856
							c0.889-0.099,1.794-0.165,2.699-0.247H76.3c0.049,0.148,0.099,0.296,0.132,0.444c-0.724,0.033-1.432,0.082-2.156,0.132
							c0.033,0.23,0.049,0.444,0.066,0.658c0.016,0.198,0.016,0.428,0.016,0.658v0.444c0.79-0.066,1.596-0.115,2.386-0.165
							c0.033,0.148,0.066,0.296,0.082,0.444c-0.839,0.049-1.679,0.099-2.518,0.165c-0.016,0.28-0.049,0.576-0.066,0.872
							c-0.016,0.296-0.033,0.592-0.049,0.889c0.938-0.066,1.876-0.115,2.814-0.181v0.444c-0.971,0.049-1.942,0.115-2.913,0.181
							C74.062,83.191,74.013,83.487,73.947,83.783z"/>
						<path fill="#FFC466" d="M101.366,97.213c-4.378,0.066-8.756,0.164-13.133,0.346c0.296-0.165,0.592-0.329,0.889-0.477
							c3.752-0.148,7.505-0.23,11.274-0.296C100.724,96.933,101.036,97.065,101.366,97.213z"/>
						<path fill="#FFC466" d="M99.424,95.485c0.099,0.296,0.197,0.576,0.313,0.872c-5.118,0.082-10.237,0.247-15.355,0.477
							c0.132-0.296,0.247-0.592,0.362-0.889c4.608-0.214,9.216-0.362,13.841-0.444c-0.082-0.296-0.148-0.592-0.23-0.872
							c0.411-0.017,0.823-0.017,1.234-0.033c0.066,0.148,0.132,0.296,0.181,0.444c-0.296,0-0.593,0-0.889,0.016
							C99.062,95.189,99.243,95.337,99.424,95.485z"/>
						<path fill="#FFC466" d="M103.571,99.386c-5.842,0.049-11.701,0.214-17.544,0.461c0.033-0.148,0.082-0.296,0.132-0.444
							c5.744-0.247,11.488-0.395,17.248-0.444C103.456,99.089,103.522,99.237,103.571,99.386z"/>
						<path fill="#FFC466" d="M125.855,97.476c-4.378-0.148-8.756-0.247-13.133-0.296c0.296-0.132,0.592-0.28,0.889-0.428
							c3.769,0.049,7.521,0.132,11.274,0.247C125.213,97.147,125.542,97.312,125.855,97.476z"/>
						<path fill="#FFC466" d="M123.913,95.65c0.099,0.296,0.214,0.592,0.313,0.889c-5.118-0.165-10.237-0.247-15.339-0.247
							c0.115-0.296,0.23-0.593,0.346-0.889c4.608,0.017,9.233,0.082,13.841,0.214c-0.066-0.296-0.148-0.576-0.214-0.872
							c0.411,0,0.823,0.017,1.234,0.033c0.066,0.148,0.115,0.296,0.181,0.444c-0.296-0.017-0.592-0.017-0.889-0.033
							C123.567,95.337,123.732,95.501,123.913,95.65z"/>
						<path fill="#FFC466" d="M128.06,99.748c-5.843-0.23-11.685-0.346-17.544-0.379c0.049-0.148,0.082-0.296,0.132-0.428
							c5.76,0.016,11.504,0.148,17.248,0.362C127.945,99.451,128.011,99.599,128.06,99.748z"/>
						<path fill="#FFC466" d="M172.529,100.751v0.444c-9.463-1.201-18.96-2.123-28.472-2.781c0.247-0.132,0.477-0.263,0.708-0.395
							C154.031,98.678,163.296,99.583,172.529,100.751z"/>
						<path fill="#FFC466" d="M172.529,102.94v0.444c-9.957-1.251-19.931-2.205-29.921-2.864v-0.444
							C152.599,100.735,162.572,101.706,172.529,102.94z"/>
						<path fill="#FFC466" d="M169.929,94.267v1.761c0.872,0.099,1.728,0.214,2.6,0.313v0.444c-0.872-0.099-1.728-0.214-2.6-0.313
							v1.761c0.872,0.099,1.728,0.214,2.6,0.313v0.444c-0.872-0.115-1.728-0.214-2.6-0.313v1.317
							c-9.973-1.201-19.996-2.123-30.019-2.732V96.39c9.743,0.592,19.47,1.465,29.18,2.617V88.885
							c0.28,0.033,0.56,0.066,0.839,0.099v4.839c0.872,0.115,1.728,0.214,2.6,0.329v0.444
							C171.657,94.481,170.801,94.382,169.929,94.267z"/>
						<path fill="#FFC466" d="M210.909,107.483c-3.407-0.691-6.83-1.35-10.253-1.975c0.181-0.115,0.362-0.23,0.527-0.346
							c2.93,0.527,5.859,1.086,8.772,1.679C210.267,107.055,210.596,107.269,210.909,107.483z"/>
						<path fill="#FFC466" d="M209.033,105.343c0.115,0.313,0.214,0.625,0.313,0.938c-4.361-0.872-8.723-1.679-13.1-2.436
							c-0.099-0.313-0.197-0.625-0.313-0.938c4.098,0.708,8.196,1.465,12.278,2.271c-0.082-0.313-0.181-0.626-0.263-0.938
							c0.444,0.082,0.872,0.181,1.317,0.263c0.033,0.148,0.082,0.313,0.132,0.461c-0.296-0.049-0.592-0.115-0.872-0.165
							C208.687,104.981,208.868,105.162,209.033,105.343z"/>
						<path fill="#FFC466" d="M213.049,110.116c-4.361-0.905-8.723-1.744-13.084-2.535c-0.066-0.165-0.115-0.313-0.181-0.477
							c4.378,0.79,8.739,1.629,13.084,2.535C212.934,109.803,212.983,109.951,213.049,110.116z"/>
						<path fill="#FFC466" d="M191.834,105.738v0.444c-4.378-0.724-8.772-1.382-13.166-1.992v-0.428
							C183.062,104.356,187.457,105.014,191.834,105.738z"/>
						<path fill="#FFC466" d="M189.646,101.426c-0.296-0.049-0.592-0.099-0.889-0.132c0.132,0.165,0.263,0.329,0.395,0.494v0.872
							c-4.378-0.691-8.772-1.333-13.166-1.909c0.016-0.296,0.016-0.576,0-0.872c4.131,0.543,8.229,1.136,12.343,1.778v-0.872
							c0.428,0.066,0.872,0.132,1.317,0.198V101.426z"/>
						<path fill="#FFC466" d="M190.419,103.747c-3.423-0.543-6.863-1.07-10.303-1.547c0.247-0.115,0.477-0.23,0.708-0.346
							c2.946,0.428,5.876,0.856,8.821,1.333C189.909,103.368,190.172,103.566,190.419,103.747z"/>
						<path fill="#FFC466" d="M31.93,85.232c1.448-0.23,2.913-0.444,4.378-0.642c0.066-0.148,0.115-0.313,0.181-0.461
							c-1.399,0.198-2.814,0.395-4.213,0.609c0.082-0.115,0.165-0.23,0.214-0.346c-0.56,0.115-1.119,0.23-1.662,0.362
							c-0.017,0.017-0.033,0.049-0.049,0.066c-0.938,1.119-2.123,2.074-3.572,2.864c-1.448,0.807-3.127,1.366-5.052,1.679
							c-2.37,0.411-4.723,0.823-7.077,1.251v10.171c-0.296-0.247-0.592-0.494-0.872-0.724V89.939
							c2.485-0.461,4.97-0.905,7.472-1.317c1.629-0.28,3.127-0.79,4.477-1.547c0.971-0.527,1.827-1.136,2.584-1.843
							c-7.982,1.827-15.75,3.95-23.255,6.32v10.187c-0.724,0.889-1.465,1.777-2.189,2.65v0.889
							c4.361-0.905,8.723-1.744,13.084-2.535v-0.889c-0.148-0.132-0.313-0.263-0.477-0.395v-0.395
							c0.889-0.164,1.778-0.313,2.666-0.477v-0.444c-0.889,0.165-1.777,0.329-2.666,0.477v-1.744
							c0.889-0.165,1.778-0.329,2.666-0.477v-0.444c-0.889,0.148-1.777,0.313-2.666,0.477V96.67
							c0.889-0.165,1.778-0.329,2.666-0.477v-0.444c-0.889,0.165-1.777,0.313-2.666,0.477v-1.712
							c3.637-0.658,7.291-1.284,10.944-1.86c0.922-0.296,1.86-0.592,2.798-0.889c-4.592,0.708-9.167,1.481-13.742,2.304v-1.794
							c5.76-1.053,11.521-1.992,17.297-2.847c0.197-0.165,0.411-0.346,0.609-0.527c-5.974,0.872-11.948,1.843-17.906,2.93v-0.494
							c2.057-0.362,4.115-0.724,6.172-1.07c2.535-0.428,4.773-1.218,6.698-2.37c2.139-0.329,4.295-0.642,6.435-0.954
							c0.115-0.165,0.214-0.329,0.313-0.477c-1.942,0.263-3.884,0.56-5.826,0.856C30.564,86.696,31.305,85.989,31.93,85.232z"/>
						<path fill="#FFC466" d="M63.842,79.159c-0.016,1.086-0.214,2.123-0.576,3.144c-0.395,1.103-0.954,2.074-1.679,2.929
							c-0.724,0.856-1.58,1.564-2.584,2.139c-0.987,0.56-2.09,0.905-3.292,1.02c-1.745,0.181-3.275-0.132-4.625-0.954
							c-0.033-0.016-0.066-0.066-0.099-0.115c-0.033-0.066-0.066-0.115-0.132-0.165c0.395-0.049,0.79-0.082,1.201-0.132
							c-0.033-0.148-0.066-0.28-0.099-0.428c-0.444,0.049-0.905,0.099-1.366,0.148c-0.313-0.543-0.592-1.103-0.79-1.662
							c0.675-0.082,1.35-0.165,2.024-0.23v-0.444c-0.724,0.082-1.432,0.165-2.156,0.247c-0.082-0.28-0.164-0.576-0.214-0.856
							c-0.066-0.296-0.099-0.576-0.132-0.872c0.905-0.099,1.81-0.198,2.732-0.296c0.033-0.165,0.082-0.313,0.132-0.461
							c-0.954,0.099-1.909,0.214-2.864,0.313v-0.428c0-0.247,0-0.461,0.017-0.675c0-0.066,0.016-0.132,0.016-0.198
							c-0.296,0.049-0.576,0.082-0.856,0.148c0,0.955,0.165,1.942,0.494,2.93c0.329,1.07,0.806,1.975,1.432,2.715
							c-0.922-0.708-1.613-1.629-2.09-2.765c-0.378-0.856-0.592-1.761-0.675-2.732c-2.963,0.477-5.892,1.004-8.789,1.596
							c0.132,1.86,0.56,3.604,1.251,5.217c0.889,2.024,2.09,3.72,3.637,5.118c1.531,1.382,3.325,2.419,5.365,3.111
							c2.024,0.691,4.23,0.922,6.583,0.675c2.337-0.247,4.542-0.905,6.6-2.024c2.057-1.103,3.851-2.502,5.382-4.197
							c1.531-1.712,2.748-3.654,3.637-5.875c0.889-2.189,1.35-4.46,1.35-6.879C69.717,78.484,66.771,78.797,63.842,79.159z"/>
						<path fill="#FFC466" d="M129.393,77.809c0.033-0.099,0.082-0.181,0.115-0.263c-1.185-0.099-2.353-0.165-3.538-0.23
							c-1.794,5.003-3.604,10.006-5.415,15.026c-0.148-0.411-0.296-0.823-0.444-1.234c1.662-4.625,3.325-9.233,4.987-13.825
							c-2.897-0.181-5.81-0.296-8.756-0.378c-0.016,0.033-0.016,0.066-0.033,0.099c-0.428-0.016-0.856-0.016-1.284-0.033
							c-0.017-0.033-0.017-0.066-0.033-0.099c-0.28-0.033-0.56-0.033-0.839-0.016c0.379,1.004,0.741,2.008,1.103,3.028
							c-0.148,0.411-0.296,0.823-0.444,1.234l-1.531-4.296c-2.617-0.066-5.25-0.099-7.9-0.099c-0.313,0-0.625,0-0.938,0.016
							c0.016,0.066,0.049,0.132,0.066,0.198c-0.708,0.017-1.415,0.017-2.123,0.033c0.016-0.066,0.049-0.148,0.082-0.214
							c-0.296-0.017-0.593-0.017-0.889,0c-1.827,5.184-3.67,10.385-5.513,15.586c-0.148-0.411-0.296-0.823-0.444-1.218
							c1.695-4.806,3.39-9.595,5.086-14.368c-2.962,0.033-5.908,0.115-8.821,0.23c-0.016,0.066-0.049,0.132-0.066,0.197
							c-0.428,0.017-0.856,0.033-1.284,0.05c-0.016-0.066-0.049-0.115-0.066-0.181c-0.28-0.016-0.56,0-0.839,0.033
							c0.378,1.004,0.74,2.024,1.119,3.045c-0.148,0.411-0.296,0.823-0.444,1.251c-0.527-1.416-1.037-2.847-1.563-4.263
							c-2.946,0.132-5.859,0.296-8.772,0.51c1.744,4.773,3.506,9.546,5.267,14.335c-0.428,0.658-0.839,1.317-1.251,1.991
							c-0.115,0.082-0.23,0.181-0.346,0.28c-0.099,0.296-0.214,0.592-0.313,0.889c4.69-0.23,9.365-0.379,14.055-0.477
							c-0.099-0.296-0.197-0.593-0.313-0.872c-0.099-0.099-0.197-0.181-0.296-0.263c-0.066-0.066-0.132-0.148-0.181-0.214
							c0.033-0.132,0.082-0.263,0.132-0.395c0.889-0.033,1.794-0.05,2.699-0.066c0.033-0.132,0.082-0.28,0.132-0.428
							c-0.905,0-1.794,0.033-2.699,0.049c0.214-0.592,0.444-1.185,0.658-1.777c0.905-0.017,1.794-0.033,2.699-0.049
							c0.049-0.148,0.082-0.296,0.132-0.444c-0.905,0.016-1.794,0.033-2.699,0.049c0.214-0.593,0.412-1.185,0.625-1.777
							c0.889-0.017,1.794-0.017,2.699-0.033c0.049-0.148,0.115-0.296,0.165-0.444c-0.889,0.017-1.794,0.017-2.683,0.033
							c0.198-0.576,0.411-1.136,0.609-1.712c0.905-0.016,1.81-0.033,2.699-0.049c0.049-0.148,0.082-0.296,0.132-0.444
							c-0.905,0.016-1.794,0.033-2.699,0.049c0.23-0.609,0.444-1.218,0.658-1.827c0.905,0,1.811-0.017,2.699-0.033
							c0.049-0.148,0.099-0.296,0.148-0.444c-0.905,0.016-1.81,0.033-2.699,0.049c0.198-0.592,0.411-1.185,0.609-1.777
							c0.905-0.017,1.794-0.017,2.699-0.033c0.066-0.148,0.115-0.296,0.181-0.444c-0.905,0.017-1.794,0.017-2.699,0.033
							c0.198-0.593,0.411-1.169,0.625-1.761c0.889-0.017,1.794-0.033,2.683-0.033c0.066-0.148,0.132-0.296,0.181-0.444
							c-0.889,0.017-1.794,0.017-2.699,0.033c0.214-0.592,0.411-1.185,0.625-1.761c0.823-0.017,1.646-0.033,2.485-0.033
							c1.679,4.691,3.357,9.364,5.036,14.072c-0.411,0.642-0.823,1.284-1.251,1.925c-0.115,0.099-0.23,0.181-0.345,0.263
							c-0.099,0.296-0.198,0.593-0.313,0.889c4.69,0,9.381,0.049,14.071,0.181c-0.115-0.296-0.214-0.592-0.313-0.889
							c-0.099-0.099-0.214-0.181-0.313-0.263c-0.049-0.082-0.115-0.164-0.181-0.23c0.049-0.132,0.099-0.263,0.132-0.395
							c0.905,0.016,1.81,0.049,2.699,0.082c0.049-0.148,0.099-0.296,0.132-0.444c-0.889-0.033-1.794-0.049-2.699-0.082
							c0.23-0.576,0.444-1.152,0.675-1.728c0.889,0.016,1.794,0.049,2.683,0.066c0.049-0.132,0.099-0.28,0.148-0.428
							c-0.905-0.033-1.81-0.049-2.699-0.082c0.198-0.576,0.411-1.169,0.609-1.745c0.905,0.033,1.811,0.049,2.699,0.082
							c0.066-0.148,0.115-0.28,0.181-0.428c-0.905-0.033-1.794-0.066-2.699-0.082c0.214-0.576,0.411-1.136,0.626-1.695
							c0.889,0.017,1.794,0.049,2.699,0.082c0.033-0.148,0.082-0.296,0.115-0.444c-0.889-0.033-1.794-0.049-2.683-0.082
							c0.214-0.592,0.444-1.185,0.658-1.777c0.905,0.033,1.794,0.049,2.699,0.082c0.049-0.132,0.082-0.28,0.132-0.428
							c-0.905-0.033-1.794-0.066-2.699-0.099c0.214-0.576,0.411-1.152,0.625-1.728c0.889,0.017,1.794,0.049,2.683,0.082
							c0.066-0.132,0.132-0.28,0.181-0.428c-0.889-0.033-1.794-0.066-2.699-0.099c0.214-0.576,0.428-1.152,0.625-1.728
							c0.905,0.017,1.794,0.049,2.699,0.099c0.049-0.148,0.115-0.296,0.164-0.444c-0.889-0.033-1.794-0.066-2.683-0.099
							c0.197-0.576,0.411-1.152,0.609-1.728C127.599,77.743,128.505,77.776,129.393,77.809z M91.145,78.978
							c-0.148-0.444-0.28-0.872-0.428-1.317c0.296,0,0.609-0.016,0.922-0.016C91.474,78.089,91.31,78.533,91.145,78.978z
							 M115.651,78.747c-0.148-0.444-0.296-0.889-0.444-1.333c0.313,0.016,0.625,0.016,0.922,0.016
							C115.98,77.875,115.816,78.303,115.651,78.747z"/>
						<path fill="#FFC466" d="M168.168,87.026v10.994c-9.973-1.168-19.963-2.041-29.97-2.617v-0.889
							c0.724-0.691,1.465-1.366,2.205-2.057V78.451c6.649,0.642,13.183,1.481,19.618,2.502v2.979
							c-3.588-0.362-7.192-0.675-10.796-0.971v4.444c0.296,0.016,0.592,0.049,0.889,0.066v-3.473
							c3.621,0.296,7.225,0.625,10.846,1.004v-7.965c0.28,0.033,0.543,0.066,0.823,0.082v4.806c0.889,0.082,1.761,0.181,2.65,0.28
							v0.444c-0.889-0.099-1.761-0.197-2.65-0.296v1.761c0.889,0.099,1.761,0.198,2.65,0.28v0.444
							c-0.889-0.099-1.761-0.181-2.65-0.28v1.415c-3.604-0.379-7.225-0.724-10.846-1.02v0.346c4.509,0.379,9.002,0.807,13.495,1.3
							v0.444c-4.493-0.494-8.986-0.922-13.495-1.3v1.811c4.69,0.378,9.381,0.839,14.071,1.349c0.741-0.658,1.498-1.317,2.238-1.991
							C167.559,86.943,167.855,86.993,168.168,87.026z"/>
						<path fill="#FFC466" d="M206.12,102.529c-0.049-0.148-0.082-0.28-0.132-0.428c0.889,0.181,1.778,0.346,2.666,0.527
							c-0.049-0.164-0.099-0.313-0.132-0.477c-0.889-0.165-1.777-0.346-2.666-0.51c-0.198-0.625-0.411-1.251-0.609-1.876
							c0.889,0.164,1.777,0.346,2.666,0.51c-0.049-0.148-0.099-0.313-0.132-0.461c-0.889-0.181-1.777-0.346-2.666-0.51
							c-0.181-0.625-0.379-1.251-0.56-1.876c0.872,0.165,1.761,0.346,2.65,0.51c-0.049-0.148-0.115-0.313-0.165-0.477
							c-0.889-0.164-1.777-0.329-2.666-0.51c-0.181-0.609-0.378-1.201-0.56-1.81c0.872,0.164,1.761,0.329,2.65,0.494
							c-0.049-0.148-0.082-0.296-0.132-0.461c-0.889-0.165-1.777-0.346-2.65-0.51c-0.214-0.625-0.411-1.267-0.625-1.909
							c0.889,0.164,1.777,0.329,2.666,0.51c-0.049-0.165-0.082-0.313-0.132-0.477c-0.889-0.165-1.777-0.329-2.666-0.494
							c-0.165-0.543-0.346-1.086-0.527-1.629c-0.28-0.099-0.559-0.181-0.839-0.263c1.152,3.687,2.321,7.373,3.473,11.076
							c-0.395-0.362-0.79-0.741-1.185-1.103c-1.07-3.423-2.139-6.846-3.209-10.253c-7.801-2.321-15.865-4.378-24.16-6.122v11.981
							c-0.741,0.642-1.465,1.267-2.205,1.909v0.889c4.411,0.56,8.788,1.185,13.183,1.86v-0.872c-0.165-0.198-0.329-0.379-0.494-0.56
							v-0.395c0.889,0.132,1.778,0.28,2.683,0.411v-0.428c-0.905-0.148-1.794-0.296-2.683-0.428v-1.761
							c0.889,0.148,1.778,0.28,2.683,0.428v-0.444c-0.905-0.148-1.794-0.28-2.683-0.428v-1.744c0.889,0.132,1.778,0.263,2.683,0.411
							v-0.444c-0.905-0.132-1.794-0.28-2.683-0.411v-1.728c2.14,0.329,4.263,0.675,6.402,1.037c0.576,1.843,1.169,3.687,1.744,5.53
							c-0.477,0.642-0.955,1.3-1.448,1.959c0.115,0.313,0.214,0.609,0.313,0.922c4.378,0.741,8.739,1.531,13.1,2.386l-0.296-0.938
							C206.548,102.924,206.334,102.726,206.12,102.529z M192.476,90.449c-1.827-0.296-3.67-0.592-5.514-0.889v-0.428
							c1.778,0.263,3.572,0.56,5.349,0.856C192.361,90.136,192.427,90.301,192.476,90.449z M186.14,88.128v10.105
							c-0.296-0.329-0.592-0.675-0.889-1.004V87.108c2.172,0.329,4.328,0.658,6.484,1.02c0.099,0.313,0.214,0.625,0.313,0.938
							C190.074,88.737,188.115,88.425,186.14,88.128z M186.963,91.815v-1.81c1.893,0.296,3.769,0.592,5.645,0.905
							c0.214,0.642,0.411,1.267,0.625,1.909C191.143,92.473,189.053,92.128,186.963,91.815z"/>
					</g>
				</g>
			</g>
		</g>
		<text transform="matrix(1 0 0 1 96.5526 144.7854)" fill="#FCFCFC" font-family="'Quicksand-Bold'" font-size="9.1065px">2018</text>
		<text transform="matrix(1 0 0 1 98.2242 133.5785)" fill="#FCFCFC" font-family="'Quicksand-Bold'" font-size="9.1065px">EST</text>
	</g>
</g>
<g id="DESIGNED_BY_FREEPIK">
</g>
</svg>
