<svg xmlns="http://www.w3.org/2000/svg" viewBox="0 0 24 24"><path d="M.625 4l.438 1.313.75 2.312a.967.967 0 0 0-.063.313L.25 9.655 0 9.937v3.157c0 2.402 1.113 4.203 2.344 5.375A5.732 5.732 0 0 1 0 19v2c1.7 0 2.398-.406 3-.906.898.699 2.2.906 3 .906.8 0 2.102-.207 3-.906.898.699 2.2.906 3 .906.8 0 2.102-.207 3-.906.898.699 2.2.906 3 .906.8 0 2.102-.207 3-.906.898.699 2.2.906 3 .906v-2c-.8 0-2.102-.207-3-.906-.387.3-.848.515-1.313.656C22.11 17.02 24 13.684 24 10h-2.594L15.5 4.281 15.219 4h-5.75l-.156.813L8.874 7H7.25L5.531 4.437 5.25 4zm10.5 2h3.25l1.031 1h-4.469zM3.469 9H17.5l1.031 1H2.594zm.031 3H17l-1 2H4zM3 21.094C2.102 21.793.8 22 0 22v2c1.7 0 2.398-.406 3-.906.898.699 2.2.906 3 .906.8 0 2.102-.207 3-.906.898.699 2.2.906 3 .906.8 0 2.102-.207 3-.906.898.699 2.2.906 3 .906.8 0 2.102-.207 3-.906.898.699 2.2.906 3 .906v-2c-.8 0-2.102-.207-3-.906-.898.699-2.2.906-3 .906-.8 0-2.102-.207-3-.906-.898.699-2.2.906-3 .906-.8 0-2.102-.207-3-.906-.898.699-2.2.906-3 .906-.8 0-2.102-.207-3-.906z"/></svg>