<svg xmlns="http://www.w3.org/2000/svg" viewBox="0 0 48 48"><path d="M29 8h-6v4H11.566L7 22v4h33v-4z" fill="#80deea"/><path d="M18.566 12h-7l-2-5h3z" fill="#80deea"/><path d="M35.84 20l-1.602-2H11.023l-.91 2zM9.2 22l-.09.195L9 24h29v-1.297L37.437 22zm23.44-6l-1.6-2H12.851l-.915 2zM25 12h4.602l-1.575-2H25z" fill="#0288d1"/><path d="M37 20c-3 0-3 4-5 4H12c-2 0-2-4-4-4H4l3 13.5c0 3.035 2.46 3.5 5.5 3.5h21.375C36.91 37 42.665 23 44 20h-7z" fill="#ff1744"/><path d="M35 27.5a1.5 1.5 0 1 1-3 0 1.5 1.5 0 0 1 3 0zm-5 0a1.5 1.5 0 1 1-3 0 1.5 1.5 0 0 1 3 0zm-5 0a1.5 1.5 0 1 1-3 0 1.5 1.5 0 0 1 3 0zm-5 0a1.5 1.5 0 1 1-3 0 1.5 1.5 0 0 1 3 0zm-5 0a1.5 1.5 0 1 1-3 0 1.5 1.5 0 0 1 3 0z" fill="#700808"/><path d="M6.223 30L7 33.5c0 3.035 2.46 3.5 5.5 3.5h21.375c1.469 0 3.574-3.277 5.508-7z" fill="#880e4f"/><path d="M44 32c-3 0-4-2-4-2s-1 2-4 2-4-2-4-2-1 2-4 2-4-2-4-2-1 2-4 2-4-2-4-2-1 2-4 2-4-2-4-2-1 2-4 2v8h40z" fill="#90caf9"/><path d="M44 36c-3 0-4-2-4-2s-1 2-4 2-4-2-4-2-1 2-4 2-4-2-4-2-1 2-4 2-4-2-4-2-1 2-4 2-4-2-4-2-1 2-4 2v4h40z" fill="#2196f3"/></svg>