<svg xmlns="http://www.w3.org/2000/svg" viewBox="0 0 50 50"><path d="M5.813 15a.99.99 0 0 0-.708.508 1.01 1.01 0 0 0-.043.867l1.813 4.5L4.125 25H3c-1.66 0-3 1.34-3 3v5.531c0 4.7 2.473 8.121 5.219 10.094a9.88 9.88 0 0 1-2.375.313c-.63 0-1.168-.047-1.688-.126a1 1 0 1 0-.312 1.97c.59.09 1.25.156 2 .156 1.547 0 3.707-.422 5.531-1.594 1.828 1.183 4.008 1.593 5.563 1.593 1.546 0 3.707-.421 5.53-1.593 1.825 1.172 3.985 1.593 5.532 1.593 1.547 0 3.707-.421 5.531-1.593a9.296 9.296 0 0 0 1.563.812c.148.106.32.172.5.188a10.74 10.74 0 0 0 3.468.593c1.555 0 3.735-.41 5.563-1.593 1.824 1.172 3.984 1.593 5.531 1.593.864 0 1.594-.132 2.188-.343a1.014 1.014 0 1 0-.688-1.907 4.24 4.24 0 0 1-1.5.25c-1.355 0-3.586-.433-4.937-1.5a.997.997 0 0 0-1.219 0c-.957.754-2.348 1.184-3.563 1.376 5.688-2.598 10.848-7.891 12.47-15.157.152-.699.19-1.652-.438-2.437C48.852 25.453 48.047 25 47 25h-7.688l-8.562-9.656A.986.986 0 0 0 30 15h-8a.999.999 0 0 0-.938.688L19.282 21h-3.813l-4.688-5.625A.998.998 0 0 0 10 15H5.813zM7.5 17h2.031l3.344 4H9a1.023 1.023 0 0 0-.063-.375zm15.219 0h6.843l3.563 4h-11.75zM7.875 23h27.031l2.219 2.5-.375.563a1.023 1.023 0 0 0-.375-.063H6.156a.668.668 0 0 0-.125 0L6 25.844zM3 27h1.281l1.782 5.313A.999.999 0 0 0 7 33h27c.336.004.652-.16.844-.438L38.562 27H47c.078 0 .816.36.906.469.07.086.117.355.032.75-1.836 8.218-8.801 13.73-15.22 15.062-.57-.222-1.113-.492-1.562-.843a.999.999 0 0 0-1.25 0c-1.351 1.066-3.55 1.5-4.906 1.5-1.355 0-3.55-.434-4.906-1.5a.999.999 0 0 0-1.25 0c-1.352 1.066-3.551 1.5-4.907 1.5-1.355 0-3.585-.434-4.937-1.5a1.002 1.002 0 0 0-.656-.22.986.986 0 0 0-.563.22 4.56 4.56 0 0 1-.343.25C4.784 41.23 2 38.124 2 33.53V28c0-.379.621-1 1-1zm3.719 1h28.718l-2 3H7.72zm33.937 1.344c-.617 0-.656.375-.656.375v1.312c0 .918 1.063.969 1.063.969h2.03s.907-.02.907-.938V29.72s-.035-.375-.656-.375-.688.375-.688.375v.781s-.066.406-.656.406c-.59 0-.656-.406-.656-.406v-.781s-.067-.375-.688-.375zM8.25 46.219a.999.999 0 0 0-.469.218c-1.351 1.067-3.582 1.5-4.937 1.5-.63 0-1.168-.046-1.688-.124a1 1 0 1 0-.312 1.968c.59.09 1.25.157 2 .157 1.547 0 3.707-.422 5.531-1.594 1.828 1.183 4.008 1.593 5.563 1.593 1.546 0 3.707-.421 5.53-1.593 1.825 1.172 3.985 1.593 5.532 1.593 1.547 0 3.707-.421 5.531-1.593 1.824 1.172 3.985 1.593 5.532 1.593 1.554 0 3.734-.41 5.562-1.593 1.824 1.172 3.984 1.593 5.531 1.593.864 0 1.594-.132 2.188-.343a1.014 1.014 0 1 0-.688-1.907 4.24 4.24 0 0 1-1.5.25c-1.355 0-3.586-.433-4.937-1.5a.997.997 0 0 0-1.219 0c-1.352 1.067-3.582 1.5-4.938 1.5-1.355 0-3.55-.433-4.906-1.5a.999.999 0 0 0-1.25 0c-1.351 1.067-3.55 1.5-4.906 1.5-1.355 0-3.55-.433-4.906-1.5a.999.999 0 0 0-1.25 0c-1.352 1.067-3.551 1.5-4.907 1.5-1.355 0-3.585-.433-4.937-1.5a1.002 1.002 0 0 0-.656-.218H8.25z"/></svg>