<svg xmlns="http://www.w3.org/2000/svg" viewBox="0 0 48 48"><path d="M10 18c-.55 0-1-.45-1-1v-7c0-.55.45-1 1-1s1 .45 1 1v7c0 .55-.45 1-1 1zm29-1v-7c0-.55-.45-1-1-1s-1 .45-1 1v7c0 .55.45 1 1 1s1-.45 1-1z" fill="#455a64"/><path d="M10 39c0-7.148 1.125-17 14-17s14 9.852 14 17" fill="none" stroke-width="2" stroke="#90a4ae" stroke-miterlimit="10"/><path d="M11 18H9c-.55 0-1-.45-1-1v-3c0-.55.45-1 1-1h2c.55 0 1 .45 1 1v3c0 .55-.45 1-1 1zm28 0h-2c-.55 0-1-.45-1-1v-3c0-.55.45-1 1-1h2c.55 0 1 .45 1 1v3c0 .55-.45 1-1 1z" fill="#90a4ae"/><path d="M9 12H0v-2h9zm28-2h-9v2h9zm5 7c0 1.102-.898 2-2 2 0 0-9-.063-9 3v2c0 1.102-.898 2-2 2H19c-1.102 0-2-.898-2-2v-2c0-3.063-9-3-9-3-1.102 0-2-.898-2-2 0-1.102.898-2 2-2h32c1.102 0 2 .898 2 2zm-22-5h-9v-2h9zm28 0h-9v-2h9z" fill="#b0bec5"/><path d="M15 15v2c0 .55-.45 1-1 1s-1-.45-1-1v-2zm18 0v2c0 .55.45 1 1 1s1-.45 1-1v-2z" fill="#ff3d00"/></svg>