<svg xmlns="http://www.w3.org/2000/svg" viewBox="0 0 26 26"><path d="M.906 0a1 1 0 0 0-.812 1v4.813a.753.753 0 0 0 0 .187v10.906c0 1.578.902 3.067 2.375 4-.504.133-1 .188-1.375.188-.399 0-.7.008-1-.094v1.688c.3 0 .699.125 1 .125 1.699 0 2.398-.407 3-.907.898.602 2.199.907 3 .907.8 0 1.906-.211 2.906-.813.898.602 2.2.906 3 .906.8 0 2.102-.207 3-.906.898.602 2.2.906 3 .906.898 0 2.102-.207 3-.906.898.602 2.2.906 3 .906.398 0 .7-.093 1-.093v-1.875a3.29 3.29 0 0 1-.906.156 6.29 6.29 0 0 1-1.407-.188c1.477-.914 2.407-2.36 2.407-4V15a.998.998 0 0 0-.875-1s-.239-.016-.5-.031a4.08 4.08 0 0 0-.438 0c-.078.004-.156-.012-.312.031a1.16 1.16 0 0 0-.344.188c-.164.117-.438.43-.438.812v2c0 .332-.601.906-1 .906H19.47a.999.999 0 0 0 .625-.906v-.906c.601 0 1-.399 1-1v-3c0-.688-.387-.989-.969-1a1.072 1.072 0 0 0-.094-.313l-1.375-4.094A1 1 0 0 0 17.688 6h-7.283c-.347.07-.633.32-.75.656l-1.5 4.094a1.03 1.03 0 0 0-.062.344h-.031c-.583.015-.97.41-.97 1v3c0 .699.4 1 1 1V17a.996.996 0 0 0 .532.906H5.187c-.332 0-.875-.601-.875-1v-6.843l2.594-3.47A.842.842 0 0 0 7 6.407a.466.466 0 0 0 .031-.062v-.032A.879.879 0 0 0 7.094 6V1c0-.55-.45-1-1-1H.906zM26 20.938c.031-.008.066-.024.094-.032H26zM2.094 2h3v3h-3zM3.78 7h.344L4 7.188A.913.913 0 0 0 3.781 7zm7.5 1H17l1.031 3.094h-7.875zm-9.187.906h.219V9h-.22zm0 2.094h.219v5.906c0 .766.304 1.457.78 2-.667-.578-1-1.316-1-2zm8 2c.601 0 1 .398 1 1 .097.578-.367.973-.938 1h-.062c-.7 0-1-.398-1-1 0-.7.398-1 1-1zm8 0c.5 0 1 .398 1 1s-.399 1-1 1c-.035 0-.059.004-.094 0-.625-.04-.906-.43-.906-1 0-.7.398-1 1-1zm-7 3.094h6V17a.996.996 0 0 0 .531.906h-7.156a.999.999 0 0 0 .625-.906zm-7 7.093c-.899.602-2.2.907-3 .907-.399 0-.7.008-1-.094v1.813c.3 0 .699.093 1 .093 1.699 0 2.398-.406 3-.906.898.602 2.199.906 3 .906.8 0 2.101-.207 3-.906.898.602 2.199.906 3 .906.8 0 2.101-.207 3-.906.898.602 2.199.906 3 .906.898 0 2.101-.207 3-.906.898.602 2.199.906 3 .906.398 0 .699-.093 1-.093v-1.907c-.301.102-.7.188-1 .188-.801 0-2.102-.207-3-.907-.899.602-2.2.907-3 .907-.899 0-2.102-.207-3-.907-.899.602-2.2.907-3 .907-.801 0-2.102-.207-3-.907-.899.602-2.2.907-3 .907-.801 0-2.102-.207-3-.907z"/></svg>