<svg xmlns="http://www.w3.org/2000/svg" viewBox="0 0 32 32"><path d="M3 4.875v18.969a2.291 2.291 0 0 1-.563-.282C2.079 23.313 2 23.044 2 23H0c0 .941.59 1.684 1.313 2.188C2.034 25.69 2.96 26 4 26c1.035 0 1.96-.309 2.688-.813.113-.078.207-.16.312-.25.102.086.203.176.313.25C8.034 25.692 8.96 26 10 26c1.035 0 1.96-.309 2.688-.813.113-.078.207-.16.312-.25.102.086.203.176.313.25.722.504 1.648.813 2.687.813 1.035 0 1.96-.309 2.688-.813.113-.078.207-.16.312-.25.102.086.203.176.313.25.722.504 1.648.813 2.687.813 1.035 0 1.96-.309 2.688-.813.113-.078.207-.16.312-.25.102.086.203.176.313.25.722.504 1.648.813 2.687.813 1.035 0 1.96-.309 2.688-.813C31.413 24.684 32 23.942 32 23h-2c0 .059-.082.316-.438.563a2.437 2.437 0 0 1-.562.28V19h-1c.55 0 1-.45 1-1v-.844c.004-.05.004-.105 0-.156v-5a.991.991 0 0 0-.094-.438l-3-6A.994.994 0 0 0 25 5h-9.188c-.316.063-.582.27-.718.563l-3 6A.991.991 0 0 0 12 12v6c0 .55.45 1 1 1H8v-6.688l1.719-1.718.281-.313V4.875zm2 2h3v2.563l-1.719 1.718L6 11.47V21h21v2.844a2.291 2.291 0 0 1-.563-.282c-.359-.25-.437-.519-.437-.562h-2c0 .059-.082.316-.438.563-.355.246-.925.437-1.562.437-.633 0-1.203-.188-1.563-.438-.359-.25-.437-.519-.437-.562h-2c0 .059-.082.316-.438.563-.355.246-.925.437-1.562.437-.633 0-1.203-.188-1.563-.438-.359-.25-.437-.519-.437-.562h-2c0 .059-.082.316-.438.563-.355.246-.925.437-1.562.437-.633 0-1.203-.188-1.563-.438C8.079 23.313 8 23.044 8 23H6c0 .059-.082.316-.438.563a2.437 2.437 0 0 1-.562.28zM16.625 7h7.75l1 2h-9.75zm-2 4h11.75L27 12.25V16H14v-3.75zm1.875 1a1.5 1.5 0 1 0 0 3 1.5 1.5 0 0 0 0-3zm8 0a1.5 1.5 0 1 0 0 3 1.5 1.5 0 0 0 0-3zm-8.156 6h8.312L25 19h-9z"/></svg>