<svg xmlns="http://www.w3.org/2000/svg" viewBox="0 0 50 50"><path d="M9.813 1a.984.984 0 0 0-.637.43.998.998 0 0 0-.145.758L12.656 20h-.25l-7-6.719a1.004 1.004 0 0 0-1.156-.187L.562 14.906a.997.997 0 0 0-.468 1.344l3.594 7.063v3.28L.094 33.75a.997.997 0 0 0 .469 1.344l3.687 1.812c.387.192.852.117 1.156-.187l7-6.719h.375l-3.75 17.781a.995.995 0 0 0 .192.84c.191.238.476.375.777.379h3.906c.29 0 .563-.125.75-.344L20.5 41.97h3.594a.97.97 0 0 0 .926-.453.98.98 0 0 0 0-1.032.97.97 0 0 0-.926-.453h-1.907L30.938 30h6.97c5.984 0 11.687-4.188 11.687-4.188.261-.187.418-.492.418-.812 0-.32-.157-.625-.418-.813 0 0-5.61-4.187-11.688-4.187h-6.968l-8.75-10.031h1.906a.97.97 0 0 0 .926-.453.98.98 0 0 0 0-1.032.97.97 0 0 0-.926-.453H20.5l-5.844-6.687a.986.986 0 0 0-.75-.344H9.812zm1.406 2h2.25L29.75 21.656c.188.219.46.344.75.344h7.406c4.024 0 7.45 1.992 9.063 3-1.633 1.008-5.117 3-9.063 3H30.5a.986.986 0 0 0-.75.344L13.469 47h-2.25l3.75-17.781a.995.995 0 0 0-.192-.84A1.012 1.012 0 0 0 14 28h-2a1 1 0 0 0-.688.281l-6.812 6.5-2.156-1.031 3.25-6.5a.991.991 0 0 0 .093-.438v-3.718a.991.991 0 0 0-.093-.438l-3.25-6.406L4.5 15.219l6.813 6.5A1 1 0 0 0 12 22h1.906c.297-.004.574-.14.762-.367.187-.23.262-.531.207-.82z"/></svg>