<svg xmlns="http://www.w3.org/2000/svg" viewBox="0 0 64 64"><path d="M23.914.64a1.995 1.995 0 0 0-1.082.43 1.98 1.98 0 0 0-.691 2.094c1.43 5.184 1.414 8.77.734 13.387a17.529 17.529 0 0 0-3.84-2.078 1.99 1.99 0 0 0-2.7 1.746c-.273 4.746-2.085 7.676-4 10.781C10.204 30.45 8 34.016 8 40.078c0 6.004 2.379 11.606 6.7 15.777a21.74 21.74 0 0 0 16.018 6.129c11.648-.41 21.125-10.464 21.125-22.406v-.547a37.339 37.339 0 0 0-5.547-19.676 1.973 1.973 0 0 0-2.211-.878 1.99 1.99 0 0 0-1.484 1.878 19.8 19.8 0 0 1-1.024 5.758c-.491-10.21-6.452-19.663-16.53-25.23A1.997 1.997 0 0 0 23.914.64zm.164 1.993c10.785 5.957 16.54 16.64 15.379 27.695a.98.98 0 0 0-.05.508 27.95 27.95 0 0 1-1.024 4.762.998.998 0 0 0 .664 1.25.957.957 0 0 0 .293.047c.426 0 .82-.278.957-.708.535-1.75.902-3.511 1.113-5.261 1.89-2.696 3.082-6.582 3.184-10.524.508.825.984 1.684 1.422 2.551a35.325 35.325 0 0 1 3.828 16.078v.547c0 10.875-8.61 20.031-19.192 20.406-5.476.203-10.636-1.78-14.562-5.57C12.164 50.625 10 45.535 10 40.078c0-5.492 1.96-8.668 4.035-12.027 1.965-3.18 3.992-6.465 4.277-11.711 2.497.96 6.786 3.308 7.485 8.187a.99.99 0 0 0 1.129.848c.547-.078.926-.582.851-1.129-.379-2.644-1.629-4.656-3.117-6.168.89-5.398 1.05-9.496-.582-15.445zM29 8.53a.972.972 0 0 0-.719.258.996.996 0 0 0-.07 1.41c.516.57 1.012 1.164 1.473 1.758a1.003 1.003 0 0 0 1.398.184c.441-.34.52-.97.184-1.407A30.538 30.538 0 0 0 29.69 8.86a.976.976 0 0 0-.69-.329zm3.762 5.45a.952.952 0 0 0-.38.117c-.48.27-.655.882-.386 1.363a26.986 26.986 0 0 1 3.098 8.898.995.995 0 0 0 1.14.828.998.998 0 0 0 .828-1.144 28.836 28.836 0 0 0-3.32-9.559 1 1 0 0 0-.98-.504zM18.027 43.956a.98.98 0 0 0-.386.09l-1.828.812a.993.993 0 0 0-.504 1.317 1 1 0 0 0 1.316.508l1.828-.813a.999.999 0 0 0 .504-1.32.993.993 0 0 0-.93-.594zm23.79 0a.997.997 0 0 0-.93.594.997.997 0 0 0 .504 1.32l1.828.813a1 1 0 0 0 1.32-.508.995.995 0 0 0-.508-1.317l-1.828-.812a.965.965 0 0 0-.387-.09zM20.874 48.02a1.01 1.01 0 0 0-.703.308l-1.39 1.438a1 1 0 0 0 .718 1.695.996.996 0 0 0 .723-.305l1.386-1.437a1.001 1.001 0 0 0-.734-1.7zm18.094.003a.984.984 0 0 0-.707.278 1.005 1.005 0 0 0-.028 1.418l1.391 1.437c.195.2.457.305.719.305a1 1 0 0 0 .719-1.695l-1.391-1.438a.99.99 0 0 0-.703-.305zm-13.934 2.7a1.007 1.007 0 0 0-.91.625l-.75 1.855a1.002 1.002 0 0 0 .93 1.375 1 1 0 0 0 .925-.625l.75-1.855a1 1 0 0 0-.945-1.375zm9.774 0a1.004 1.004 0 0 0-.945 1.375l.75 1.855a1.005 1.005 0 0 0 1.304.55.998.998 0 0 0 .55-1.3l-.75-1.855a1.002 1.002 0 0 0-.91-.625zm-4.887.949a1 1 0 0 0-1 1v2a1 1 0 1 0 2 0v-2c0-.555-.445-1-1-1z"/></svg>