<svg xmlns="http://www.w3.org/2000/svg" viewBox="0 0 64 64"><path d="M15 4c-3.86 0-7 3.14-7 7v37.184c-1.16.414-2 1.515-2 2.816v7H3a1 1 0 1 0 0 2h46a1 1 0 1 0 0-2h-3v-7a3 3 0 0 0-2-2.816V36h2c1.102 0 2 .898 2 2v12c0 2.207 1.793 4 4 4s4-1.793 4-4V32h1c1.652 0 3-1.348 3-3v-3.344c0-1.336-.52-2.59-1.465-3.535L49.415 13a1.998 1.998 0 0 0-2.18-.434A1.995 1.995 0 0 0 46 14.414v1.344c0 1.055.426 2.086 1.172 2.828l2.535 2.535c.188.188.293.445.293.707V29c0 1.652 1.348 3 3 3h1v18c0 1.102-.898 2-2 2-1.102 0-2-.898-2-2V38c0-2.207-1.793-4-4-4h-2V11c0-3.86-3.14-7-7-7zm0 2h22c2.758 0 5 2.242 5 5v37H10V11c0-2.758 2.242-5 5-5zm2 4c-1.652 0-3 1.348-3 3v12a1 1 0 0 0 1 1h22a1 1 0 0 0 1-1V13c0-1.652-1.348-3-3-3zm0 2h18c.55 0 1 .45 1 1v11h-8.133l2.965-4.445a1 1 0 0 0-1.664-1.11L25.465 24H16V13c0-.55.45-1 1-1zm31 2.414l9.121 9.121c.566.567.879 1.32.879 2.121V29c0 .55-.45 1-1 1h-4c-.55 0-1-.45-1-1v-7.172c0-.8-.313-1.555-.879-2.121l-2.535-2.535A2.015 2.015 0 0 1 48 15.758zM55 24a1 1 0 0 0-1 1v2a1 1 0 1 0 2 0v-2a1 1 0 0 0-1-1zm-40 4a1 1 0 1 0 0 2h14a1 1 0 1 0 0-2zm18 0a1 1 0 1 0 0 2h4a1 1 0 1 0 0-2zM9 50h34c.55 0 1 .45 1 1v7H8v-7c0-.55.45-1 1-1zm2 2a1 1 0 0 0-1 1v2a1 1 0 1 0 2 0v-2a1 1 0 0 0-1-1zm5 0a1 1 0 0 0-1 1v2a1 1 0 1 0 2 0v-2a1 1 0 0 0-1-1zm5 0a1 1 0 0 0-1 1v2a1 1 0 1 0 2 0v-2a1 1 0 0 0-1-1zm5 0a1 1 0 0 0-1 1v2a1 1 0 1 0 2 0v-2a1 1 0 0 0-1-1zm5 0a1 1 0 0 0-1 1v2a1 1 0 1 0 2 0v-2a1 1 0 0 0-1-1zm5 0a1 1 0 0 0-1 1v2a1 1 0 1 0 2 0v-2a1 1 0 0 0-1-1zm5 0a1 1 0 0 0-1 1v2a1 1 0 1 0 2 0v-2a1 1 0 0 0-1-1z"/></svg>