<?xml version="1.0" encoding="utf-8"?>
<!-- Generator: Adobe Illustrator 22.0.1, SVG Export Plug-In . SVG Version: 6.00 Build 0)  -->
<svg version="1.1" id="Layer_1" xmlns="http://www.w3.org/2000/svg" xmlns:xlink="http://www.w3.org/1999/xlink" x="0px" y="0px"
	 viewBox="0 0 179.9 384.9" style="enable-background:new 0 0 179.9 384.9;" xml:space="preserve">
<style type="text/css">
	.st0{fill:url(#XMLID_278_);}
	.st1{fill:url(#XMLID_279_);}
	.st2{fill:url(#XMLID_280_);}
	.st3{fill:url(#XMLID_281_);}
	.st4{fill:#FCDEE0;}
	.st5{fill:url(#XMLID_295_);}
	.st6{fill:url(#XMLID_315_);}
	.st7{fill:url(#XMLID_316_);}
	.st8{fill:url(#XMLID_317_);}
	.st9{fill:#F15A29;}
	.st10{fill:#F47A42;}
	.st11{fill:url(#XMLID_319_);}
	.st12{fill:url(#XMLID_321_);}
	.st13{fill:url(#XMLID_322_);}
	.st14{fill:#27AAE1;}
	.st15{fill:#6DCFF6;}
	.st16{fill:url(#XMLID_323_);}
	.st17{fill:url(#XMLID_324_);}
	.st18{fill:url(#XMLID_334_);}
	.st19{fill:#67B4A7;}
	.st20{fill:#00A79D;}
	.st21{fill:url(#XMLID_335_);}
	.st22{clip-path:url(#XMLID_336_);}
	.st23{fill:#3FBC9D;}
	.st24{fill:#B5B5B5;}
	.st25{clip-path:url(#XMLID_346_);}
	.st26{fill:#F9B9B9;}
	.st27{fill:#FFFFFF;}
	.st28{clip-path:url(#XMLID_347_);}
	.st29{fill:#B0D235;}
	.st30{fill:#004126;}
	.st31{clip-path:url(#XMLID_349_);}
	.st32{fill:#23BBAB;}
	.st33{fill:#002E51;}
	.st34{clip-path:url(#XMLID_350_);}
	.st35{fill:#ED1848;}
	.st36{fill:#48484A;}
	.st37{clip-path:url(#XMLID_351_);}
	.st38{fill:#FFF200;}
	.st39{clip-path:url(#XMLID_352_);}
	.st40{fill:#4EC9F5;}
	.st41{clip-path:url(#XMLID_353_);}
	.st42{fill:#B2D235;}
	.st43{fill:#B7D433;}
</style>
<g id="XMLID_254_">
	<defs>
		<path id="XMLID_52_" d="M158.7,0H22.5C10.1,0,0,10.1,0,22.5v338.6c0,12.4,10.1,22.5,22.5,22.5h136.1c12.4,0,22.5-10.1,22.5-22.5
			V22.5C181.2,10.1,171.1,0,158.7,0z M71.8,23.4c0,6.3-5.1,11.5-11.5,11.5H24.6c-6.3,0-11.5-5.1-11.5-11.5V23
			c0-6.3,5.1-11.5,11.5-11.5h35.7c6.3,0,11.5,5.1,11.5,11.5V23.4z"/>
	</defs>
	<clipPath id="XMLID_278_">
		<use xlink:href="#XMLID_52_"  style="overflow:visible;"/>
	</clipPath>
	<g id="XMLID_4739_" style="clip-path:url(#XMLID_278_);">
		<g id="XMLID_4727_">
			<g id="XMLID_9056_">
				<path id="XMLID_9105_" d="M27.6,180.1c-2.1-1.1-4.8-1.3-6.9,0c-2.1,1.2-3.1,3.6-3.5,5.9c-0.3,2-0.3,4.1-0.3,6.2h1.7
					c0-1.9,0-4.3,0.4-6.4c0.5-2.3,1.5-4.2,3.6-4.8c-1,1.3-1.1,3-1.2,4.6c0,0.2,0,0.3,0,0.5c-0.1,2-0.2,4.1-0.3,6.1h1.7
					c0-0.7,0.1-1.3,0.1-2c0.1-1.4,0.1-2.8,0.2-4.3c0.1-1.4-0.1-3.4,1.3-4.3c0.1,0,0.1-0.1,0.2-0.2c1.6,1.5,2.1,3.9,2.3,6.1
					c0.2,1.5,0.2,3.1,0.2,4.6h1.7c0,0,0-0.1,0-0.1c0.1-3.5,0-7.7-2-10.6c3.8,1.7,4.6,6.3,4.8,10.5h0c0,0,0,0.1,0,0.1h1.7
					C33,187.4,32,182.4,27.6,180.1z"/>
				<path id="XMLID_9115_" d="M18.2,134c-1-0.9-2.6-0.8-3.2,0.4c-0.6,1.1-0.4,2.8,0.5,3.7c0.6,0.6,1.5,0.7,2.2,0.5c0,0,0,0,0,0
					c0.2,0.1,0.4,0.1,0.6,0.1h0c1.9,2.8,4.4,5,7.4,6.5c0.1,0.1,0.3,0.1,0.4,0.1c0,0.9,0,1.8,0,2.7c0,1.2,0,2.4,0,3.6
					c0,1.1,1.7,1.1,1.7,0c0-1,0-1.9,0-2.9c2.3-0.9,4.5-2,6.6-3.3c1.4-0.9,3.4-1.9,4.3-3.4c0.3,0,0.5,0,0.8,0c1.4-0.2,2.6-1.5,2.4-3
					c-0.2-1.4-1.6-2.5-2.9-1.8c-0.1,0.1-0.3,0.2-0.3,0.3c-1.1,0.1-1.8,1.3-1.8,2.4c0,0.5,0.2,1,0.5,1.3c-0.7,1.4-3.5,2.7-4.7,3.4
					c-1.5,0.9-3.1,1.7-4.8,2.3c0-0.8,0-1.7,0-2.5c0-2.3,0-4.6,0-6.9c4.3-1.6,8.1-4.1,11.4-7.2c0.6,0.4,1.5,0.4,2.2,0.1
					c1.1-0.4,1.8-1.5,1.6-2.7c-0.2-1.3-1.3-2.2-2.6-2.2c-0.3,0-0.6,0.2-0.7,0.4c-0.8,0.7-1.2,1.7-1.2,2.8c-3,3.1-6.6,5.5-10.6,7.1
					c0-0.9,0-1.8,0-2.7c0-2.3,0-4.5,0-6.8c4.1-1.9,8.4-4.2,10.2-8.5c0.8,0.1,1.6-0.1,2.2-0.7c1.2-1.1,1.4-2.9,0.3-4.1
					c-1.1-1.2-3-1.4-4.3-0.5c-0.6,0.4-0.4,1.1,0,1.4c-0.4,0.8-0.4,1.9,0.1,2.7c0.1,0.1,0.1,0.2,0.2,0.2v0c-1.5,3.8-5.2,5.8-8.7,7.6
					c0-1,0-1.9,0-2.9c0.3-0.3,0.4-0.9,0-1.2c0-2.9,0-5.8,0-8.7c1.9-1,1-5.7-1.8-5.5c-1.4,0.1-2.4,1.6-2.3,2.9c0.1,1.4,1.2,2.4,2.4,3
					c0,2.4,0,4.7,0,7.1c-1.8-1.3-3.1-3.1-3.9-5.2c0.4-0.5,0.6-1.2,0.4-1.8c-0.3-1.3-1.9-2.1-3.1-1.6c-1.3,0.5-2.2,2.3-1.4,3.5
					c0.5,0.8,1.5,1.1,2.3,0.8c0.1,0,0.2,0,0.4,0c1.1,2.6,2.9,4.8,5.4,6.3c0,1.4,0,2.8,0,4.2c0,2.3,0,4.5,0,6.8c-3-1.5-4.9-4.2-6.7-7
					c1.2-1.7,1.2-4.4-1.1-5.1c-0.9-0.3-2,0-2.6,0.7c-0.8,1-0.4,2.3-0.6,3.5c0,0.3,0.3,0.7,0.6,0.8c0.6,0.1,1.2,0.1,1.8,0
					c2,3.4,4.3,6.9,8,8.6c0.2,0.1,0.4,0.1,0.6,0c0,1,0,2,0,2.9c0,2.2,0,4.5,0,6.7c-2.8-1.5-5.1-3.7-6.8-6.4
					c-0.1-0.1-0.2-0.2-0.2-0.3C19.2,135.8,19,134.7,18.2,134z M38.9,139.1c0.4,0,0.7-0.2,0.8-0.5v0c0,0,0,0,0,0
					c0.2-0.1,0.5,0.6,0.5,0.8c0,0.5-0.6,0.9-1.1,0.9c-0.3,0-0.5-0.1-0.6-0.2C38.3,139.8,38.5,139.1,38.9,139.1z M41.2,128.4
					c-0.2,0.4-0.7,0.6-1.1,0.5c-0.1-0.6,0.1-1.2,0.5-1.7C41.1,127.4,41.5,127.9,41.2,128.4z M39.2,115.6c-0.3,0.3-0.5,0.5-0.8,0.5
					c0-0.5-0.5-0.7-0.9-0.7c-0.1-0.4-0.1-0.7,0.3-1c0.3-0.2,0.4-0.5,0.4-0.8C39.2,113.7,40,114.6,39.2,115.6z M20.1,112.1
					c0.5-0.1,0.8,0.2,0.8,0.5c-0.2,0-0.4,0.1-0.5,0.3c-0.1,0-0.3,0.1-0.4,0.3c0,0-0.1,0.1-0.1,0.1h0c0,0,0,0,0,0
					c-0.1,0-0.1,0-0.2,0.1c-0.1,0-0.2,0-0.3-0.2C19.3,112.8,19.7,112.2,20.1,112.1z M17.7,121.8c0.7,0.1,0.9,0.6,0.9,1.1
					c-0.1,0-0.3,0.1-0.4,0.2c-0.4,0.3-0.9,0.5-1.4,0.6C16.7,122.8,16.7,121.6,17.7,121.8z M25.7,108.1c0.4-0.5,0.8-0.3,1.1,0.2
					c0.1,0.2,0.6,1.9,0.1,1.8c-0.2,0-0.4,0-0.6,0.1C25.6,109.7,25,108.9,25.7,108.1z M16.4,136.6c-0.2-0.3-0.3-1.2,0.1-1.5
					c0.3-0.2,0.7,0.1,0.9,0.4c0.2,0.4,0.2,0.9,0.1,1.3c0,0-0.1,0.1-0.1,0.1C17,137.3,16.5,136.9,16.4,136.6z"/>
				<path id="XMLID_9122_" d="M20.2,186.8c0.4,0,0.8-0.3,0.8-0.7c0,0,0-0.1,0-0.1c0-0.5-0.4-0.8-0.8-0.8c-0.1,0-0.2,0-0.3,0
					c-0.4,0-0.7,0.3-0.8,0.6c0,0.1,0,0.1,0,0.2c0,0.5,0.4,0.8,0.8,0.8C20,186.8,20.1,186.8,20.2,186.8z"/>
				<path id="XMLID_9123_" class="st40" d="M46.9,152.6c-1.6,8-3.2,16.1-4.8,24.1c-0.1,0.4,0.1,0.7,0.4,0.9c-0.1,0.5,0.2,1,0.8,1
					c3.3,0.1,6.6,0.2,9.9,0.3c0.4,0,0.9-0.4,0.8-0.8c-1-8.7-2.1-17.5-5.5-25.6C48.1,151.8,47,152,46.9,152.6z"/>
				<path id="XMLID_9124_" d="M31.1,192c0-0.4-0.3-0.8-0.8-0.8s-0.8,0.4-0.8,0.8c0,0,0,0.1,0,0.1h1.6C31.1,192.1,31.1,192,31.1,192z
					"/>
				<path id="XMLID_9125_" d="M24.7,185.4c-1.1,0-1.1,1.7,0,1.7C25.7,187,25.7,185.4,24.7,185.4z"/>
				<path id="XMLID_9127_" d="M155.3,192.1h2.5C157.1,191.7,156.1,191.6,155.3,192.1z"/>
				<path id="XMLID_9130_" d="M158.8,181.5c1.2-0.5,1.5-2.5,1.3-3.7c-0.3-1.9-1.9-3.1-3.7-2.5c-1.6,0.5-2.6,2.2-2,3.9
					c0.4,1.1,1.4,1.9,2.5,2.2c1.4,3.2,3.9,5.8,7,7.2v-1.9C161.7,185.5,159.9,183.8,158.8,181.5z M156.5,177.1
					c0.6-0.4,1.4-0.4,1.8,0.3c0.1,0.2,0.3,1.8,0.1,2.3h0c0,0,0,0-0.1,0C156.8,180.1,154.8,178.2,156.5,177.1z"/>
				<path id="XMLID_9133_" d="M163.1,162.8c-0.4-1.1-1.9-1.8-2.9-1.2c-1.2,0.7-1.2,2.2-1,3.4c0.1,0.9,0.6,1.7,1.4,2.1
					c-0.1,3,1.3,5.9,3.5,7.8v-2.5c-1.2-1.6-1.8-3.5-1.8-5.5c0.3-0.3,0.3-0.9,0.1-1.2c0,0,0,0,0,0c0,0,0-0.1,0-0.1
					C163,164.9,163.4,163.9,163.1,162.8z M160.8,163.1c0.2-0.2,0.6,0,0.7,0.3c0.2,0.5-0.3,1-0.7,1.2c0,0-0.1,0.1-0.1,0.1
					C160.6,164.1,160.6,163.3,160.8,163.1z"/>
				<path id="XMLID_9134_" d="M138.2,145.8c0.5,0,0.8-0.4,0.8-0.8c0-0.4-0.3-0.8-0.8-0.8c-0.5,0-0.8,0.4-0.8,0.8
					C137.4,145.3,137.7,145.8,138.2,145.8z"/>
				<path id="XMLID_9135_" d="M137.1,166.1c0.1,0,0.1,0,0.2,0c0.4,0,0.9-0.4,0.8-0.8c0-0.5-0.4-0.8-0.8-0.8c-0.1,0-0.1,0-0.2,0
					c-0.4,0-0.9,0.4-0.8,0.8C136.3,165.7,136.6,166.1,137.1,166.1z"/>
				<path id="XMLID_9136_" d="M136.2,159.3c0.1-0.1,0.1-0.1,0.2-0.2c0.3-0.3,0.3-0.9,0-1.2c-0.3-0.3-0.9-0.3-1.2,0
					c-0.1,0.1-0.1,0.1-0.2,0.2c-0.3,0.3-0.3,0.9,0,1.2C135.3,159.6,135.8,159.6,136.2,159.3z"/>
				<path id="XMLID_9139_" class="st40" d="M136.4,162.2c2.1-2.5,2-6.6,2.3-9.7c0.2-2.5,0.4-5,0.6-7.6c0.3-5,0.3-10.1-0.1-15.1
					c-0.5-0.2-1.1-0.3-1.6-0.2c0.1,0.1,0.2,0.3,0.2,0.6c-0.2,4.9-0.5,9.7-0.7,14.6c-0.1,2.3-0.2,4.6-0.3,6.8
					c-0.1,2.6-0.4,4.9-2.6,6.6c-2.3,1.7-5.3,1.8-8.1,1.8c0,0,0,0-0.1,0c0,0.4,0,0.7-0.1,1.1c-0.1,1.4-0.1,2.8-0.2,4.2
					c1.9-0.2,3.7-0.5,5.6-0.9C133.1,164.1,135.1,163.8,136.4,162.2z M138.2,144.1c0.5,0,0.8,0.4,0.8,0.8c0,0.4-0.3,0.8-0.8,0.8
					c-0.6,0-0.8-0.5-0.8-0.9C137.5,144.5,137.7,144.1,138.2,144.1z M135,158.1c0.1-0.1,0.1-0.1,0.2-0.2c0.3-0.3,0.8-0.3,1.2,0
					c0.3,0.3,0.3,0.9,0,1.2c-0.1,0.1-0.1,0.1-0.2,0.2c-0.3,0.3-0.8,0.3-1.2,0C134.6,159,134.7,158.4,135,158.1z M130.4,162.7
					c0-0.1,0-0.1,0-0.2c0-0.5,0.4-0.8,0.8-0.8c0.5,0,0.8,0.4,0.8,0.8c0,0.1,0,0.1,0,0.2c0,0.5-0.4,0.8-0.8,0.8
					C130.8,163.6,130.4,163.1,130.4,162.7z"/>
				<path id="XMLID_9142_" d="M134.2,141.3c0.5,0,0.8-0.4,0.8-0.8c0-0.4-0.3-0.8-0.8-0.8c-0.5,0-0.8,0.4-0.8,0.8
					C133.4,140.9,133.7,141.3,134.2,141.3z"/>
				<path id="XMLID_9145_" class="st40" d="M126,158.4c2.7,0,6,0,7.9-2.2c1.7-2,1.2-5.9,1.3-8.3c0.1-2.4,0.2-4.9,0.4-7.3
					c0.2-3.4,0.3-6.8,0.5-10.2c-0.2,0.1-0.4,0.2-0.5,0.4c-2.4,2.1-2.4,5.7-2.6,8.6c0,0.4,0,0.8-0.1,1.2c-0.1,2.7-0.2,5.5-0.6,8.2
					c-0.4,2.2-1.3,4.3-3.4,5.4c-1,0.5-2,0.7-3,0.6C126.1,155.8,126.1,157.1,126,158.4z M134.2,139.6c0.5,0,0.8,0.4,0.8,0.8
					c0,0.4-0.3,0.8-0.8,0.8c-0.5,0-0.8-0.4-0.8-0.8C133.4,140,133.7,139.6,134.2,139.6z M133.1,150.2c1.1,0,1.1,1.7,0,1.7
					C132,151.8,132,150.2,133.1,150.2z M128.5,155.7c0-0.5,0.4-0.8,0.8-0.8c0.5,0,0.8,0.4,0.8,0.8c0,0.1,0,0.2,0,0.3
					c0,0.5-0.4,0.8-0.8,0.8c-0.5,0-0.8-0.4-0.8-0.8C128.5,155.9,128.5,155.8,128.5,155.7z"/>
				<path id="XMLID_9148_" d="M133.1,151.8c1.1,0,1.1-1.7,0-1.7C132,150.2,132,151.8,133.1,151.8z"/>
				<path id="XMLID_9149_" d="M132.1,162.7c0-0.1,0-0.1,0-0.2c0-0.4-0.4-0.9-0.8-0.8c-0.5,0-0.8,0.4-0.8,0.8c0,0.1,0,0.1,0,0.2
					c0,0.4,0.4,0.9,0.8,0.8C131.7,163.5,132.1,163.2,132.1,162.7z"/>
				<path id="XMLID_9150_" d="M130.7,168.4c0.1,0,0.1,0,0.2,0c0.4,0,0.9-0.4,0.8-0.8c0-0.5-0.4-0.8-0.8-0.8c-0.1,0-0.1,0-0.2,0
					c-0.4,0-0.9,0.4-0.8,0.8C129.9,168,130.3,168.4,130.7,168.4z"/>
				<path id="XMLID_9153_" class="st40" d="M134.1,169.4c3.4-1,5.5-3.5,6.6-6.8c0.9-2.6,1.2-5.4,1.5-8.2c0-0.3,0.1-0.5,0.1-0.8
					c-0.1,0.1-0.3,0.1-0.5,0.1c-0.6,0-0.9-0.5-0.8-1c0.1-0.4,0.3-0.7,0.8-0.7c0.3,0,0.5,0.1,0.6,0.3c0.3-2.8,0.6-5.6,0.7-8.3
					c0.1-2,0.2-4.1,0.1-6.1c-0.1,0.3-0.4,0.5-0.7,0.5c-0.5,0-0.8-0.4-0.8-0.8s0.3-0.8,0.8-0.8c0.3,0,0.5,0.1,0.7,0.3
					c-0.1-1-0.2-1.9-0.5-2.9c-0.3-1.1-0.9-2.2-1.7-3.1c0.2,2.1,0.2,4.3,0.2,6.4c0,5.1-0.3,10.2-0.8,15.2c-0.1,1.2-0.3,2.5-0.4,3.7
					c-0.4,2.9-0.9,6.2-3.5,7.9c-1.6,1.1-3.5,1.4-5.3,1.7c-1.8,0.3-3.6,0.6-5.5,0.8c0,0.9-0.1,1.8-0.1,2.7
					C128.4,170,131.3,170.2,134.1,169.4z M137.1,164.4c0.1,0,0.1,0,0.2,0c0.5,0,0.8,0.4,0.8,0.8c0,0.5-0.4,0.8-0.8,0.8
					c-0.1,0-0.1,0-0.2,0c-0.5,0-0.8-0.4-0.8-0.8C136.2,164.8,136.6,164.4,137.1,164.4z M130.7,166.7c0.1,0,0.1,0,0.2,0
					c0.5,0,0.8,0.4,0.8,0.8c0,0.5-0.4,0.8-0.8,0.8c-0.1,0-0.1,0-0.2,0c-0.5,0-0.8-0.4-0.8-0.8C129.9,167.1,130.3,166.7,130.7,166.7z
					"/>
				<path id="XMLID_9155_" d="M129.4,156.9c0.5,0,0.8-0.4,0.8-0.8c0-0.1,0-0.2,0-0.3c0-0.4-0.4-0.9-0.8-0.8c-0.5,0-0.8,0.4-0.8,0.8
					c0,0.1,0,0.2,0,0.3C128.5,156.5,128.9,156.9,129.4,156.9z"/>
				<path id="XMLID_9158_" class="st40" d="M122.8,190.3c0.5-6.5,0.8-12.9,1-19.4c-0.3-0.4-0.2-0.9,0.1-1.2c0.1-2.4,0.2-4.9,0.3-7.3
					c0.1-2.6,0.8-6.2-0.3-8.7c-0.1-0.1-0.1-0.1-0.2-0.1c-0.2-0.2-0.3-0.4-0.3-0.6c0-0.1,0-0.2,0-0.3c0.3-9,0.6-17.9,1-26.9
					c0.2-6,0.4-15.6-6.4-18c2.6,3.4,2.7,8.5,2.7,12.6c0,6.4-0.7,12.9-1.1,19.3c-0.4,6.6-0.8,13.2-1.1,19.9
					c-0.5,10.9-0.9,21.7-1.2,32.6h5.5c0-0.3,0.1-0.6,0.1-0.9C122.6,191,122.6,190.6,122.8,190.3z M122.9,120.1c1.1,0,1.1,1.7,0,1.7
					C121.8,121.7,121.8,120.1,122.9,120.1z M122.2,134.3c1.1,0,1.1,1.7,0,1.7C121.1,136,121.1,134.3,122.2,134.3z M120,185.1
					c-0.1,0-0.1,0-0.2,0c-0.5,0-0.8-0.4-0.8-0.8c0-0.5,0.4-0.8,0.8-0.8c0.1,0,0.1,0,0.2,0c0.5,0,0.8,0.4,0.8,0.8
					C120.9,184.7,120.5,185.1,120,185.1z M121.2,174.2c-1.1,0-1.1-1.7,0-1.7C122.3,172.6,122.3,174.2,121.2,174.2z M122.4,160.5
					c0,0.5-0.4,0.8-0.8,0.8c-0.5,0-0.8-0.4-0.8-0.8c0-0.1,0-0.2,0-0.3c0-0.5,0.4-0.8,0.8-0.8c0.5,0,0.8,0.4,0.8,0.8
					C122.4,160.3,122.4,160.4,122.4,160.5z M122.5,145.2c0,0.5-0.4,0.8-0.8,0.8c-0.5,0-0.8-0.4-0.8-0.8c0-0.1,0-0.1,0-0.2
					c0-0.5,0.4-0.8,0.8-0.8c0.5,0,0.8,0.4,0.8,0.8C122.5,145,122.5,145.1,122.5,145.2z"/>
				<path id="XMLID_9164_" d="M122.9,121.7c1.1,0,1.1-1.7,0-1.7C121.8,120.1,121.8,121.7,122.9,121.7z"/>
				<path id="XMLID_9165_" d="M121.7,144.1c-0.5,0-0.8,0.4-0.8,0.8c0,0.1,0,0.1,0,0.2c0,0.4,0.4,0.9,0.8,0.8c0.5,0,0.8-0.4,0.8-0.8
					c0-0.1,0-0.1,0-0.2C122.5,144.5,122.1,144.1,121.7,144.1z"/>
				<path id="XMLID_9166_" d="M121.5,159.4c-0.5,0-0.8,0.4-0.8,0.8c0,0.1,0,0.2,0,0.3c0,0.4,0.4,0.9,0.8,0.8c0.5,0,0.8-0.4,0.8-0.8
					c0-0.1,0-0.2,0-0.3C122.4,159.8,122,159.3,121.5,159.4z"/>
				<path id="XMLID_9167_" d="M122.2,136c1.1,0,1.1-1.7,0-1.7C121.1,134.3,121.1,136,122.2,136z"/>
				<path id="XMLID_9168_" d="M121.2,172.6c-1.1,0-1.1,1.7,0,1.7C122.3,174.2,122.3,172.6,121.2,172.6z"/>
				<path id="XMLID_9169_" d="M120,183.4c-0.1,0-0.1,0-0.2,0c-0.4,0-0.9,0.4-0.8,0.8c0,0.5,0.4,0.8,0.8,0.8c0.1,0,0.1,0,0.2,0
					c0.4,0,0.9-0.4,0.8-0.8C120.8,183.8,120.5,183.4,120,183.4z"/>
				<path id="XMLID_9170_" d="M116,114.7c1.1,0,1.1-1.7,0-1.7C114.9,113,114.9,114.7,116,114.7z"/>
				<path id="XMLID_9173_" class="st40" d="M116,177.4c0,0,0-0.1,0-0.1c0.5-12.3,1-24.7,1.8-37c0.4-6.1,1-12.2,1.2-18.3
					c0.1-4.3,0.4-10.9-3.2-14.1c-0.1,0.1-0.2,0.2-0.3,0.3c-2.3,1.5-1.6,6.1-1.8,8.4c-0.2,3.3-0.3,6.5-0.5,9.8
					c-0.6,11.6-1.2,23.2-0.8,34.9c0.2,5.3,0.4,10.7,0.5,16c0.1,4.3,0.1,8.5-0.1,12.7c0,0.7-0.1,1.4-0.1,2.1h2.8c0-0.7,0-1.3,0.1-2
					C115.7,185.9,115.9,181.7,116,177.4z M116,113c1.1,0,1.1,1.7,0,1.7C114.9,114.7,114.9,113,116,113z M115.8,124.9
					c1.1,0,1.1,1.7,0,1.7C114.8,126.6,114.8,124.9,115.8,124.9z M115.2,139.8c1.1,0,1.1,1.7,0,1.7
					C114.1,141.5,114.1,139.8,115.2,139.8z M114.4,153.3c0.3-0.3,0.9-0.3,1.2,0c0.1,0.1,0.1,0.1,0.2,0.2c0.3,0.3,0.3,0.8,0,1.2
					c-0.3,0.3-0.9,0.3-1.2,0c-0.1-0.1-0.1-0.1-0.2-0.2C114.1,154.1,114.1,153.6,114.4,153.3z M114.2,165.6c1.1,0,1.1,1.7,0,1.7
					C113.1,167.2,113.1,165.6,114.2,165.6z M113.7,177.1c0-0.5,0.4-0.8,0.8-0.8c0.5,0,0.8,0.4,0.8,0.8c0,0.1,0,0.1,0,0.2
					c0,0.5-0.4,0.8-0.8,0.8c-0.5,0-0.8-0.4-0.8-0.8C113.7,177.2,113.7,177.1,113.7,177.1z M114.5,191c-0.6,0-0.8-0.5-0.8-0.9
					c0-0.4,0.3-0.8,0.8-0.8c0.5,0,0.8,0.4,0.8,0.8C115.3,190.6,115,191,114.5,191z"/>
				<path id="XMLID_9180_" d="M115.8,126.6c1.1,0,1.1-1.7,0-1.7C114.8,124.9,114.8,126.6,115.8,126.6z"/>
				<path id="XMLID_9181_" d="M114.6,154.6c0.3,0.3,0.9,0.3,1.2,0c0.3-0.3,0.3-0.9,0-1.2c-0.1-0.1-0.1-0.1-0.2-0.2
					c-0.3-0.3-0.9-0.3-1.2,0c-0.3,0.3-0.3,0.8,0,1.2C114.5,154.5,114.5,154.6,114.6,154.6z"/>
				<path id="XMLID_9182_" d="M114.5,178.1c0.5,0,0.8-0.4,0.8-0.8c0-0.1,0-0.1,0-0.2c0-0.4-0.4-0.9-0.8-0.8c-0.5,0-0.8,0.4-0.8,0.8
					c0,0.1,0,0.1,0,0.2C113.7,177.7,114,178.1,114.5,178.1z"/>
				<path id="XMLID_9183_" d="M115.2,141.5c1.1,0,1.1-1.7,0-1.7C114.1,139.8,114.1,141.5,115.2,141.5z"/>
				<path id="XMLID_9184_" d="M114.5,189.3c-0.5,0-0.8,0.4-0.8,0.8c0,0.4,0.2,0.9,0.8,0.9c0.5,0,0.8-0.4,0.8-0.8
					C115.3,189.7,115,189.3,114.5,189.3z"/>
				<path id="XMLID_9185_" d="M114.2,167.2c1.1,0,1.1-1.7,0-1.7C113.1,165.6,113.1,167.2,114.2,167.2z"/>
				<path id="XMLID_9186_" d="M110.3,114.4c0.1,0,0.2,0,0.3,0c0.4,0,0.8-0.3,0.8-0.7c0,0,0-0.1,0-0.1c0-0.5-0.4-0.8-0.8-0.8
					c-0.1,0-0.2,0-0.3,0c-0.4,0-0.8,0.3-0.8,0.7c0,0,0,0.1,0,0.1C109.5,114,109.8,114.4,110.3,114.4z"/>
				<path id="XMLID_9189_" class="st40" d="M111.3,177.6c0-0.7,0-1.5,0-2.2c-0.1-5.3-0.3-10.6-0.4-15.9c-0.1-6.8-0.2-13.7,0.2-20.5
					c0-0.2,0-0.3,0-0.5c0.1-3.1,0.3-6.3,0.4-9.4c0.1-3.1,0.3-6.2,0.4-9.2c0.1-2,0.1-4.1,0.2-6.2c0.1-0.9,0.1-1.8,0.2-2.6
					c0.2-1.5,0.6-2.8,1.6-3.8c-3,0.4-4.4,3-5,6.1c-0.6,3-0.5,6.4-0.5,8.8c0,2.3,0,4.6,0,7c0,3.3,0,6.6,0,9.9c0,6.9,0,13.7,0,20.6
					c0,3.2,0,6.4,0,9.6c0.3,0.1,0.6,0.3,0.6,0.8c-0.1,2.5-0.2,5.1-0.3,7.6c0,1,0,2-0.1,3.1c0,0.8,0,1.6,0,2.4c0.1,0.2,0.1,0.4,0,0.6
					c0,0.8,0,1.7,0,2.5c0,0.9,0.1,1.8-0.1,2.6c0,0.8,0.1,1.7,0.1,2.5c0,0.3,0,0.6,0,1h2.3c0-0.3,0-0.6,0.1-1
					C111.3,186.6,111.4,182.1,111.3,177.6z M110.3,112.7c0.1,0,0.2,0,0.3,0c0.5,0,0.8,0.4,0.8,0.8c0,0,0,0.1,0,0.1
					c0,0.4-0.4,0.7-0.8,0.7c-0.1,0-0.2,0-0.3,0c-0.5,0-0.8-0.4-0.8-0.8c0,0,0-0.1,0-0.1C109.5,113,109.9,112.7,110.3,112.7z
					 M109.5,128.8c0-0.5,0.4-0.8,0.8-0.8c0.5,0,0.8,0.4,0.8,0.8c0,0.1,0,0.2,0,0.3c0,0.5-0.4,0.8-0.8,0.8c-0.5,0-0.8-0.4-0.8-0.8
					C109.5,129,109.5,128.9,109.5,128.8z M109.8,138.1C109.9,138.1,109.9,138.1,109.8,138.1c0.1,0,0.1,0,0.1,0
					c0.5,0,0.8,0.4,0.8,0.8c0,0,0,0,0,0c0,0.5-0.4,0.9-0.9,0.9c-0.5,0-0.9-0.4-0.9-0.9C109,138.5,109.4,138.2,109.8,138.1z
					 M108.8,159.5c0-0.4,0.3-0.8,0.8-0.8c0.5,0,0.8,0.4,0.8,0.8c0,0.4-0.3,0.8-0.8,0.8C109.1,160.4,108.8,160,108.8,159.5z
					 M109.8,176.8c0.5,0,0.8,0.4,0.8,0.8c0,0.1,0,0.1,0,0.2c0,0.5-0.4,0.8-0.8,0.8c-0.5,0-0.8-0.4-0.8-0.8c0-0.1,0-0.1,0-0.2
					c0,0,0-0.1,0-0.1C109,177.1,109.4,176.8,109.8,176.8z M110.1,192c-0.5,0-0.8-0.4-0.8-0.8c0-0.4,0.3-0.8,0.8-0.8
					c0.5,0,0.8,0.4,0.8,0.8C111,191.6,110.7,192,110.1,192z"/>
				<path id="XMLID_9195_" d="M110.3,129.9c0.5,0,0.8-0.4,0.8-0.8c0-0.1,0-0.2,0-0.3c0-0.4-0.4-0.9-0.8-0.8c-0.5,0-0.8,0.4-0.8,0.8
					c0,0.1,0,0.2,0,0.3C109.5,129.5,109.9,130,110.3,129.9z"/>
				<path id="XMLID_9196_" d="M109,177.8c0,0.4,0.4,0.9,0.8,0.8c0.5,0,0.8-0.4,0.8-0.8c0-0.1,0-0.1,0-0.2c0-0.4-0.4-0.9-0.8-0.8
					c-0.4,0-0.8,0.3-0.8,0.7c0,0,0,0.1,0,0.1C109,177.7,109,177.7,109,177.8z"/>
				<path id="XMLID_9199_" d="M109.9,139.9c0.5,0,0.9-0.4,0.9-0.9c0,0,0,0,0,0c0-0.4-0.4-0.9-0.8-0.8c0,0,0,0-0.1,0c0,0,0,0-0.1,0
					c-0.4,0-0.9,0.4-0.8,0.8C109,139.5,109.4,139.9,109.9,139.9z M110.6,138.6C110.6,138.6,110.6,138.6,110.6,138.6
					C110.6,138.6,110.6,138.6,110.6,138.6C110.6,138.6,110.6,138.6,110.6,138.6z"/>
				<path id="XMLID_9200_" d="M109.6,160.4c0.5,0,0.8-0.4,0.8-0.8c0-0.4-0.3-0.8-0.8-0.8c-0.5,0-0.8,0.4-0.8,0.8
					C108.8,160,109.1,160.4,109.6,160.4z"/>
				<path id="XMLID_9201_" d="M110.1,190.3c-0.5,0-0.8,0.4-0.8,0.8c0,0.4,0.3,0.8,0.8,0.8c0.5,0,0.8-0.4,0.8-0.8
					C111,190.7,110.7,190.3,110.1,190.3z"/>
				<path id="XMLID_9204_" d="M125.4,172.2c0-0.1,0.1-0.2,0.1-0.3c0-0.2,0-0.3,0-0.5c5.3,0.5,11.1,0.5,14.7-4.1
					c3.5-4.6,3.6-11.5,4.1-17c0.4-3.9,0.6-7.8,0.5-11.7c-0.1-2.7-0.3-5.7-2-7.9c-1.5-2-4-3.2-6.5-2.3c-2.3,0.8-3.8,3.1-4.4,5.4
					c-1,3.8-0.8,8-1,11.9c-0.1,1.9-0.2,3.9-1.3,5.5c-0.9,1.4-2.9,2.5-4.5,1.5c0-0.1-0.1-0.1-0.1-0.2c0,0,0,0,0-0.1
					c0.3-8.9,0.6-17.7,0.9-26.6c0.2-6.7,0.3-15.9-6.8-19.3c-2.7-1.3-6.1-1.3-8.5,0.5c-2.3,1.7-3.2,4.5-3.6,7.3
					c-0.5,3.8-0.2,7.7-0.2,11.5c0,4.6,0,9.3,0,13.9c0,9.9,0,19.8,0,29.8c-3.9,2.1-6.5-2.8-6.6-6.1c-0.1-3.9,1-7.9,1.2-11.8
					c0.2-2.8,0.4-6.1-2.2-7.9c-2.1-1.4-5.6-2-7.9-0.8c-2.2,1.2-3.1,3.8-3.5,6.1c-0.6,3.5-0.9,7.1-1.2,10.6
					c-0.6,6.4-1.8,14.1,1.3,20.1c3.7,6.9,11.9,8.3,19,8.6c0,0.2,0,0.4,0,0.5c0,0.1,0,0.1-0.1,0.2c-0.1,0.3-0.1,0.6,0.1,0.9
					c0,0,0,0.1,0,0.1c-0.2-0.1-0.4-0.2-0.7-0.1c-1.8,0.4-5.6,1-8.2,2.5h4.7c1.3-0.4,2.7-0.6,3.9-0.9c0.1,0,0.2-0.1,0.3-0.1
					c0,0.3,0,0.7,0,1h1.7c0-0.3,0-0.6,0-1c0-0.8-0.1-1.7-0.1-2.5c0.2-0.8,0.1-1.7,0.1-2.6c0-0.8,0-1.7,0-2.5c0.1-0.2,0.1-0.4,0-0.6
					c0-0.8,0-1.6,0-2.4c0-1,0-2,0.1-3.1c0.1-2.5,0.1-5.1,0.3-7.6c0-0.4-0.2-0.7-0.6-0.8c0-3.2,0-6.4,0-9.6c0-6.9,0-13.7,0-20.6
					c0-3.3,0-6.6,0-9.9c0-2.3,0-4.6,0-7c0-2.4-0.1-5.8,0.5-8.8c0.6-3.1,2-5.7,5-6.1c-1,1-1.5,2.3-1.6,3.8c-0.1,0.9-0.2,1.8-0.2,2.6
					c-0.1,2.1-0.1,4.1-0.2,6.2c-0.1,3.1-0.3,6.2-0.4,9.2c-0.2,3.1-0.3,6.3-0.4,9.4c0,0.2,0,0.3,0,0.5c-0.3,6.9-0.3,13.7-0.2,20.5
					c0.1,5.3,0.3,10.6,0.4,15.9c0,0.7,0,1.5,0,2.2c0.1,4.5,0,9-0.2,13.6c0,0.3,0,0.6-0.1,1h1.7c0-0.7,0.1-1.4,0.1-2.1
					c0.2-4.2,0.2-8.5,0.1-12.7c-0.1-5.3-0.3-10.7-0.5-16c-0.4-11.7,0.3-23.2,0.8-34.9c0.2-3.3,0.3-6.5,0.5-9.8
					c0.1-2.3-0.5-6.9,1.8-8.4c0.1-0.1,0.2-0.2,0.3-0.3c3.6,3.2,3.3,9.8,3.2,14.1c-0.1,6.1-0.8,12.2-1.2,18.3
					c-0.8,12.3-1.3,24.6-1.8,37c0,0,0,0.1,0,0.1c-0.2,4.2-0.3,8.5-0.5,12.7c0,0.7,0,1.3-0.1,2h1.7c0.4-10.9,0.8-21.7,1.2-32.6
					c0.3-6.6,0.7-13.3,1.1-19.9c0.4-6.4,1.2-12.9,1.1-19.3c0-4.1-0.1-9.2-2.7-12.6c6.8,2.4,6.6,12.1,6.4,18c-0.3,9-0.6,17.9-1,26.9
					c0,0.1,0,0.2,0,0.3c0,0.2,0.1,0.4,0.3,0.6c0.1,0.1,0.1,0.1,0.2,0.1c1.1,2.5,0.4,6.1,0.3,8.7c-0.1,2.4-0.2,4.9-0.3,7.3
					c-0.3,0.3-0.4,0.8-0.1,1.2c-0.2,6.5-0.5,13-1,19.4c-0.2,0.3-0.2,0.6-0.1,0.9c0,0.3,0,0.6-0.1,0.9h1.7c0-0.1,0-0.3,0-0.4
					c0.6,0.1,1.3,0.2,1.9,0.4h5.9c-2.5-0.9-5.1-1.6-7.7-2.1C124.9,184.1,125.3,178.2,125.4,172.2z M128.9,154c2-1.1,3-3.2,3.4-5.4
					c0.5-2.7,0.5-5.4,0.6-8.2c0-0.4,0-0.8,0.1-1.2c0.2-2.9,0.2-6.5,2.6-8.6c0.2-0.2,0.4-0.3,0.5-0.4c-0.2,3.4-0.3,6.8-0.5,10.2
					c-0.1,2.4-0.2,4.9-0.4,7.3c-0.1,2.5,0.4,6.3-1.3,8.3c-1.9,2.3-5.2,2.3-7.9,2.2c0.1-1.3,0.1-2.6-0.2-3.8
					C126.8,154.7,127.9,154.5,128.9,154z M125.9,161.1c0-0.4,0-0.7,0.1-1.1c0,0,0,0,0.1,0c2.8,0,5.8,0,8.1-1.8
					c2.2-1.7,2.5-4,2.6-6.6c0.1-2.3,0.2-4.6,0.3-6.8c0.2-4.9,0.5-9.7,0.7-14.6c0-0.2-0.1-0.4-0.2-0.6c0.6-0.1,1.1,0,1.6,0.2
					c0.4,5,0.4,10,0.1,15.1c-0.1,2.5-0.3,5.1-0.6,7.6c-0.3,3.1-0.2,7.2-2.3,9.7c-1.3,1.5-3.3,1.8-5.1,2.2c-1.8,0.4-3.7,0.6-5.6,0.9
					C125.8,163.9,125.8,162.5,125.9,161.1z M125.6,167c1.8-0.2,3.7-0.5,5.5-0.8c1.8-0.3,3.8-0.7,5.3-1.7c2.6-1.8,3.1-5.1,3.5-7.9
					c0.2-1.2,0.3-2.5,0.4-3.7c0.5-5,0.8-10.1,0.8-15.2c0-2.2-0.1-4.3-0.2-6.4c0.8,0.9,1.4,2,1.7,3.1c0.2,0.9,0.4,1.9,0.5,2.9
					c-0.1-0.2-0.3-0.3-0.7-0.3c-0.5,0-0.8,0.4-0.8,0.8s0.3,0.8,0.8,0.8c0.4,0,0.6-0.2,0.7-0.5c0.1,2,0,4.1-0.1,6.1
					c-0.1,2.8-0.4,5.6-0.7,8.3c-0.1-0.2-0.3-0.3-0.6-0.3c-0.5,0-0.7,0.3-0.8,0.7c-0.1,0.5,0.2,1,0.8,1c0.2,0,0.3-0.1,0.5-0.1
					c0,0.3-0.1,0.5-0.1,0.8c-0.3,2.7-0.6,5.5-1.5,8.2c-1.1,3.2-3.2,5.8-6.6,6.8c-2.8,0.8-5.7,0.6-8.5,0.3
					C125.6,168.8,125.6,167.9,125.6,167z M107.1,186.4c-6.4-0.3-14.2-1.3-17.7-7.5c-2.2-3.9-2.2-8.6-1.8-13.2c0.2-2,0.4-4,0.6-5.9
					c0.3-3,0.5-6.1,0.9-9.1c0.1-0.5,0.2-0.9,0.2-1.4c0.5-2.6,1.5-5.2,4.3-5.4c0,0,0,0.1,0,0.1c-0.5,2.4-1,4.8-1.4,7.2
					c-0.4,2.2-0.7,4.5-1,6.7c-0.3,2.6-0.7,5.3-0.9,8c-0.1,1.9-0.1,3.8,0.2,5.7c0.4,3.4,1.9,6.8,4.8,8.8c1.6,1.1,3.3,1.4,5.2,1.7
					c2.3,0.4,4.4,1,6.5,1.9C107,184.6,107.1,185.5,107.1,186.4C107.1,186.4,107.1,186.4,107.1,186.4z M107.1,176
					c-2.9,0.2-6,0.3-8.5-1.4c-2.8-2-2.2-5.6-2.1-8.7c0.2-6.7,0.8-13.5,1.9-20.1c0.1-0.4-0.1-0.7-0.4-0.9c-0.4-0.3-1.1-0.2-1.2,0.5
					c-0.9,5.3-1.5,10.7-1.8,16.1c-0.2,2.6-0.2,5.2-0.2,7.8c0,1.8,0.2,3.4,1,4.7c0.5,0.8,1.1,1.5,2,2.1c2.7,1.9,6.1,1.9,9.3,1.7
					c0,0.5,0,1.1,0,1.6c0,0.9,0,1.9,0,2.8c-1.3-0.5-2.5-0.9-3.8-1.2c-1.9-0.5-4-0.5-5.8-1.3c-2-0.9-3.4-2.6-4.2-4.6
					c-0.7-1.6-1-3.3-1.1-4.9c-0.2-3,0.1-6,0.4-9c0.1-1.1,0.3-2.2,0.4-3.2c0.6-4.5,1.4-9,2.4-13.4c0-0.2,0-0.4,0-0.5
					c0.9,0.1,2,0.4,2.8,0.9c0.3,0.2,0.6,0.4,0.9,0.7c1.3,1.5,1,3.9,0.9,5.7c-0.2,3.6-1,7-1.2,10.6c-0.2,2.9,0.3,6.1,2.5,8.2
					c1.7,1.6,4.2,2,6.2,1.1C107.2,172.7,107.1,174.3,107.1,176z"/>
				<path id="XMLID_9209_" d="M106,180.6c1.1,0,1.1-1.7,0-1.7C104.9,178.9,104.9,180.6,106,180.6z"/>
				<path id="XMLID_9210_" d="M101.6,172.2c-0.2-0.1-0.6-0.2-0.8-0.1c-0.4,0.2-0.7,0.6-0.6,1c0.1,0.3,0.4,0.5,0.7,0.6
					c0.2,0.1,0.4,0.2,0.7,0.1c0.4-0.1,0.7-0.6,0.6-1C102,172.6,101.8,172.4,101.6,172.2z"/>
				<path id="XMLID_9211_" d="M99.4,183.6c-1.1,0-1.1,1.7,0,1.7C100.5,185.3,100.5,183.6,99.4,183.6z"/>
				<path id="XMLID_9212_" d="M98.6,168.6c-0.5,0-0.8,0.4-0.8,0.8c0,0.1,0,0.1,0,0.2c0,0.4,0.4,0.9,0.8,0.8c0.5,0,0.8-0.4,0.8-0.8
					c0-0.1,0-0.1,0-0.2C99.4,169,99.1,168.5,98.6,168.6z"/>
				<path id="XMLID_9215_" class="st40" d="M101.1,169.9c-2.2-2.1-2.7-5.3-2.5-8.2c0.3-3.6,1-7,1.2-10.6c0.1-1.8,0.5-4.2-0.9-5.7
					c-0.3-0.3-0.6-0.5-0.9-0.7c-0.8-0.5-1.8-0.8-2.8-0.9c0.1,0.1,0.1,0.3,0,0.5c-1,4.4-1.8,8.9-2.4,13.4c-0.1,1.1-0.3,2.1-0.4,3.2
					c-0.4,3-0.6,6-0.4,9c0.1,1.6,0.4,3.3,1.1,4.9c0.8,2,2.2,3.7,4.2,4.6c1.8,0.8,3.9,0.8,5.8,1.3c1.3,0.3,2.6,0.7,3.8,1.2
					c0-0.9,0-1.9,0-2.8c0-0.5,0-1.1,0-1.6c-3.2,0.2-6.6,0.2-9.3-1.7c-0.9-0.6-1.5-1.3-2-2.1c-0.8-1.4-1-2.9-1-4.7
					c0-2.6,0.1-5.2,0.2-7.8c0.3-5.4,0.9-10.7,1.8-16.1c0.1-0.6,0.7-0.7,1.2-0.5c0.3,0.2,0.5,0.5,0.4,0.9c-1.1,6.7-1.7,13.4-1.9,20.1
					c-0.1,3.1-0.7,6.6,2.1,8.7c2.4,1.8,5.6,1.6,8.5,1.4c0-1.6,0.1-3.3,0.2-4.9C105.2,172,102.8,171.5,101.1,169.9z M106,178.9
					c1.1,0,1.1,1.7,0,1.7C104.9,180.6,104.9,178.9,106,178.9z M95.3,173.9c0.1,0.1,0.1,0.2,0.1,0.4c0,0.1,0,0.1,0,0.2
					c0,0.5-0.4,0.8-0.8,0.8c-0.4,0-0.7-0.3-0.8-0.6c0-0.1,0-0.2,0-0.2c0-0.1,0-0.1,0-0.2c0-0.5,0.4-0.8,0.8-0.8
					C94.9,173.4,95.2,173.6,95.3,173.9z M93.6,162c-0.6,0-0.9-0.5-0.8-1c0.1-0.4,0.3-0.7,0.8-0.7c0.6,0,0.8,0.5,0.8,0.9
					C94.4,161.7,94.1,162,93.6,162z M99.4,169.6c0,0.5-0.4,0.8-0.8,0.8c-0.5,0-0.8-0.4-0.8-0.8c0-0.1,0-0.1,0-0.2
					c0-0.5,0.4-0.8,0.8-0.8c0.5,0,0.8,0.4,0.8,0.8C99.4,169.5,99.4,169.5,99.4,169.6z M101.5,173.9c-0.3,0.1-0.5,0-0.7-0.1
					c-0.3-0.1-0.6-0.3-0.7-0.6c-0.1-0.5,0.2-0.9,0.6-1c0.3-0.1,0.6-0.1,0.8,0.1c0.3,0.1,0.4,0.4,0.5,0.7
					C102.3,173.3,101.9,173.8,101.5,173.9z"/>
				<path id="XMLID_9220_" d="M93.8,174.2c0,0.1,0,0.1,0,0.2c0,0.1,0,0.2,0,0.2c0.1,0.3,0.4,0.6,0.8,0.6c0.5,0,0.8-0.4,0.8-0.8
					c0-0.1,0-0.1,0-0.2c0-0.1,0-0.3-0.1-0.4c-0.1-0.3-0.4-0.5-0.7-0.5C94.1,173.4,93.8,173.8,93.8,174.2z"/>
				<path id="XMLID_9223_" class="st40" d="M100.5,182c-1.8-0.3-3.6-0.6-5.2-1.7c-2.9-2-4.3-5.4-4.8-8.8c-0.2-1.9-0.3-3.8-0.2-5.7
					c0.1-2.7,0.5-5.4,0.9-8c0.3-2.2,0.6-4.5,1-6.7c0.4-2.4,0.9-4.8,1.4-7.2c0,0,0-0.1,0-0.1c-2.7,0.3-3.8,2.8-4.3,5.4
					c-0.1,0.5-0.2,0.9-0.2,1.4c-0.5,3-0.7,6.1-0.9,9.1c-0.2,1.9-0.4,3.9-0.6,5.9c-0.4,4.6-0.3,9.4,1.8,13.2
					c3.5,6.2,11.2,7.3,17.7,7.5c0,0,0,0,0,0c0-0.9-0.1-1.8-0.1-2.6C104.9,183,102.7,182.4,100.5,182z M90.4,150c0.1,0,0.1,0,0.2,0
					c0.5,0,0.8,0.4,0.8,0.8c0,0,0,0.1,0,0.1c0,0.4-0.4,0.7-0.8,0.7c-0.1,0-0.1,0-0.2,0c-0.5,0-0.8-0.4-0.8-0.8c0,0,0-0.1,0-0.1
					C89.6,150.3,90,150,90.4,150z M88.6,166.6c-0.6,0-0.8-0.5-0.8-0.9c0-0.4,0.3-0.8,0.8-0.8c0.5,0,0.8,0.4,0.8,0.8
					C89.4,166.1,89.1,166.6,88.6,166.6z M93.8,181.4c-0.1,0-0.1,0-0.2,0c-0.5,0-0.8-0.4-0.8-0.8c0-0.5,0.4-0.8,0.8-0.8
					c0.1,0,0.1,0,0.2,0c0.5,0,0.8,0.4,0.8,0.8C94.6,181.1,94.2,181.4,93.8,181.4z M99.4,185.3c-1.1,0-1.1-1.7,0-1.7
					C100.5,183.6,100.5,185.3,99.4,185.3z"/>
				<path id="XMLID_9227_" d="M93.8,179.8c-0.1,0-0.1,0-0.2,0c-0.4,0-0.9,0.4-0.8,0.8c0,0.5,0.4,0.8,0.8,0.8c0.1,0,0.1,0,0.2,0
					c0.4,0,0.9-0.4,0.8-0.8C94.6,180.2,94.2,179.8,93.8,179.8z"/>
				<path id="XMLID_9228_" d="M93.6,160.4c-0.5,0-0.7,0.3-0.8,0.7c-0.1,0.5,0.2,1,0.8,1c0.5,0,0.8-0.4,0.8-0.8
					C94.4,160.8,94.2,160.4,93.6,160.4z"/>
				<path id="XMLID_9229_" d="M90.4,151.7c0.1,0,0.1,0,0.2,0c0.4,0,0.8-0.3,0.8-0.7c0,0,0-0.1,0-0.1c0-0.5-0.4-0.8-0.8-0.8
					c-0.1,0-0.1,0-0.2,0c-0.4,0-0.8,0.3-0.8,0.7c0,0,0,0.1,0,0.1C89.6,151.3,89.9,151.7,90.4,151.7z"/>
				<path id="XMLID_9230_" d="M88.6,164.9c-0.5,0-0.8,0.4-0.8,0.8c0,0.4,0.2,0.9,0.8,0.9c0.5,0,0.8-0.4,0.8-0.8
					C89.4,165.3,89.1,164.9,88.6,164.9z"/>
				<path id="XMLID_9231_" d="M80.7,102.6c-0.1-0.7-1.3-0.9-1.5-0.2c-1.5,3.6-1.7,7.9-2.3,11.7c-0.7,4.3-1.4,8.6-2,12.8
					c-0.2,1.1,1.4,1.5,1.6,0.4c0-0.1,0-0.1,0-0.2c1.4,0.1,2.7,0.2,4.1,0.3c0.9,0.1,2.2,0.5,3-0.1c0.7-0.5,0.5-1.3,0.5-2.1
					c-0.1-1.6-0.4-3.2-0.6-4.8C82.7,114.5,81.8,108.5,80.7,102.6z"/>
				<path id="XMLID_9234_" d="M16.9,7.9c0,8.3,0,16.7,0,25c-1.5,0.7-3.1,0-4.1-1.3c-1-1.5-1.2-3.3-1-5c0.2-3.4,1-6.7,1.1-10.1
					c0.1-2.3-0.5-4.3-2.7-5.4c-1.9-0.9-4.6-1.3-6.4,0c-1.6,1.1-2.3,3.2-2.6,5.1c-0.5,3-0.8,6.1-1,9.1c-0.5,5.2-1.4,11.4,1.2,16.2
					c3.1,5.6,9.8,6.8,15.7,7.1c0,0.1,0,0.1,0,0.2c0,0.1-0.1,0.3-0.1,0.4c-0.1,0.2-0.1,0.3,0,0.4c-0.1,0-0.2,0-0.2,0
					c-2.5,0.5-9.4,1.6-8.9,5.5c-0.1,0.1-0.2,0.3-0.2,0.5c-0.3,2.2-0.2,4.5,0.1,6.7c-0.2,0.3-0.2,0.8,0.2,1c0,0.1,0,0.2,0.1,0.3
					c0.1,0.6,0.9,0.7,1.3,0.4C9.3,64,9.4,64,9.5,64.1c0.3,5.1,0.9,10.1,2,15c-0.1,0.3,0,0.7,0.4,0.9c8,4.4,18.1,4.1,25.7-0.9
					c0.5-0.3,0.5-1,0.1-1.3c0.3-4.7,0.6-9.4,0.8-14.1c0,0,0,0,0-0.1c0.4-0.2,0.7-0.4,1-0.6c0.4,0.1,0.9,0,1-0.6
					c0.5-2.8,0.8-5.5,0.8-8.3c0-0.4-0.3-0.7-0.6-0.8c-0.2-0.4-0.7-0.8-1.3-1.1c-2.4-1.1-5.1-1.8-7.7-2.2c0.4-4.9,0.6-9.7,0.8-14.6
					c0-0.1,0-0.2,0-0.2c0-0.1,0-0.2,0-0.3c4.2,0.4,9,0.3,11.9-3.2c3.1-3.8,3.2-9.5,3.6-14.1c0.3-3.2,0.5-6.3,0.4-9.5
					c-0.1-2.4-0.2-5-1.7-7.1c-2.7-3.6-7.3-2.4-8.9,1.5c-1.2,2.9-0.9,6.5-1.1,9.5c-0.1,1.5-0.1,3.1-0.6,4.6c-0.5,1.5-2.3,3.5-4,2.5
					c0,0,0-0.1-0.1-0.1c0,0,0,0,0,0C32.5,11.6,32.8,4.3,33-3c0-1.3,0.1-2.6,0.1-4h-1.7c0,1.6,0,3.1-0.1,4.3
					c-0.1,2.4-0.2,4.9-0.3,7.3c-0.2,4.8-0.3,9.7-0.5,14.5c0,0.1,0,0.2,0,0.2c0,0.2,0.1,0.4,0.3,0.6c0,0,0.1,0.1,0.1,0.1
					c0.9,2.1,0.3,4.9,0.2,7c-0.1,2-0.1,4-0.2,6c-0.3,0.3-0.3,0.7-0.1,1.1c-0.1,5.3-0.4,10.7-0.8,16c-0.1,0.3-0.2,0.6-0.1,0.8
					c-0.1,1.3-0.2,2.6-0.3,4c-0.1,0.1-0.1,0.2-0.1,0.3c-0.5,0.5-1.7,0.7-2.3,0.8c-0.5,0.1-1.1,0.2-1.6,0.2
					c0.5-13.7,0.9-27.5,1.7-41.2c0.2-3.5,0.5-7,0.7-10.5c0.3-3.4,0.5-6.9,0.6-10.3c0-0.4,0-0.8,0-1.1H27c0,1.7-0.1,3.3-0.2,5
					c-0.4,6.6-0.9,13.1-1.3,19.7c-0.2,4.3-0.4,8.6-0.6,12.8c-0.1,3-0.2,6-0.3,9c-0.1,3.4-0.2,6.9-0.4,10.3c-0.1-0.3-0.4-0.5-0.8-0.5
					c-0.5,0-0.8,0.4-0.8,0.8c0,0.4,0.2,0.9,0.8,0.9c0.4,0,0.6-0.2,0.7-0.5c-0.1,1.9-0.1,3.8-0.2,5.8c-0.7,0-1.6-0.1-2.5-0.2
					c0.1-0.1,0.3-0.3,0.3-0.6c0.2-1.8,0.3-3.6,0.4-5.5c0.2-3.5,0.2-7,0.1-10.5c-0.1-3-0.2-6-0.3-9c-0.1-3.9-0.3-7.8-0.3-11.8
					c0-6.2,0.4-12.3,0.7-18.5c0.1-2.4,0.2-4.8,0.3-7.2h-1.7C21-5.9,21-4.8,20.9-3.7c0,1-0.1,2-0.2,3c0-0.4-0.4-0.8-0.8-0.8
					c-0.5,0-0.8,0.4-0.8,0.8c0,0.1,0,0.2,0,0.3c0,0.4,0.4,0.9,0.8,0.8c0.4,0,0.7-0.3,0.8-0.6c-0.1,2.5-0.3,5-0.4,7.5
					C20.2,7.1,20,7,19.7,7c0,0,0,0-0.1,0c0,0,0,0-0.1,0c-0.4,0-0.8,0.3-0.8,0.8c0,0,0,0,0,0.1c0,0.2,0.1,0.5,0.3,0.6
					c0.2,0.2,0.4,0.3,0.6,0.3c0.3,0,0.5-0.1,0.7-0.4c-0.1,2.6-0.2,5.2-0.2,7.7c0,2.8,0,5.6,0.1,8.4c-0.1-0.3-0.4-0.5-0.8-0.5
					c-0.5,0-0.8,0.4-0.8,0.8c0,0.4,0.3,0.8,0.8,0.8c0.4,0,0.7-0.3,0.8-0.6c0.1,4.9,0.3,9.8,0.4,14.7c0.1,3.5,0,7.1-0.1,10.6
					c-0.1-0.2-0.3-0.3-0.6-0.3c-0.5,0-0.8,0.4-0.8,0.8c0,0.4,0.3,0.8,0.8,0.8c0.2,0,0.4-0.1,0.6-0.2c-0.1,1.3-0.2,2.6-0.3,3.9
					c0,0.1,0,0.2,0,0.3c-0.4-0.1-0.9-0.3-1.2-0.5c0-1.4-0.1-2.9-0.1-4.3c0-0.7,0-1.4-0.1-2c0.2-0.9,0.1-1.8,0.1-2.8c0-0.5,0-1,0-1.5
					c0.1-0.2,0.1-0.4,0-0.6c0-0.7,0-1.5,0-2.2c0-0.6,0-1.1,0-1.7c0.1,0.3,0.4,0.5,0.8,0.5c0.5,0,0.8-0.4,0.8-0.8c0,0,0-0.1,0-0.1
					c0,0,0,0,0,0c0-0.4-0.4-0.9-0.8-0.8c-0.3,0-0.6,0.2-0.7,0.5c0.1-2,0.1-4,0.2-6c0-0.4-0.2-0.6-0.5-0.7c0-2.6,0-5.2,0-7.8
					c0-5.7,0-11.4,0-17.1c0-2.7,0-5.4,0-8.1c0-1.8,0-3.6,0-5.4c0-0.4,0-0.8,0-1.2h-1.7c0,1.2,0,2.4,0,3.6
					C16.9,0.4,16.9,4.1,16.9,7.9z M35.6,20.1c0.9-0.7,1.7-1.7,2.2-2.8c0.1-0.3,0.2-0.6,0.3-0.8c0.6-2.3,0.5-4.9,0.6-7.2
					c0-0.1,0-0.2,0-0.3c0.1-2.5,0-5.7,1.8-7.6c0.2-0.2,0.4-0.3,0.5-0.5c-0.1,2.7-0.3,5.4-0.4,8.1c-0.1,1.9-0.2,3.7-0.3,5.6
					c0,0.9,0,2,0,3.1c0,1.4-0.2,2.7-0.8,3.7c-0.8,1.3-2.2,1.9-3.6,2.1c-1,0.1-2,0.1-2.9,0.1c0-0.9,0-1.9-0.1-2.8
					C33.9,21,34.8,20.7,35.6,20.1z M32.9,25.8c0-0.1,0-0.3,0-0.4c2.4,0,4.9-0.1,6.8-1.6c0.2-0.1,0.3-0.3,0.4-0.4
					c1.3-1.3,1.5-3,1.6-4.8c0.1-1.9,0.2-3.8,0.3-5.8c0.2-4.1,0.4-8.1,0.6-12.2c0-0.1,0-0.2,0-0.3c0.3,0,0.6,0.1,0.9,0.2
					C44,4.4,44,8.4,43.8,12.4C43.6,12.2,43.4,12,43,12c-0.5,0-0.8,0.4-0.8,0.8c0,0.4,0.3,0.8,0.8,0.8c0.3,0,0.6-0.2,0.7-0.4
					c-0.1,1.9-0.3,3.8-0.4,5.8c-0.2,1.7-0.2,3.7-0.7,5.5c-0.3,1-0.7,1.8-1.3,2.5c-1,1.1-2.5,1.4-3.9,1.7c-1.5,0.3-3,0.5-4.6,0.7
					C32.9,28.2,32.9,27,32.9,25.8z M32.8,31.1c1.2-0.1,2.4-0.2,3.7-0.4c-0.3,0.1-0.5,0.4-0.5,0.7c0,0.5,0.4,0.8,0.8,0.8
					c0,0,0.1,0,0.1,0c0.4,0,0.9-0.4,0.8-0.8c0-0.4-0.3-0.8-0.8-0.8c1.5-0.3,3-0.7,4.3-1.4c0,0.1-0.1,0.2-0.1,0.3
					c0,0.5,0.4,0.8,0.8,0.8c0,0,0.1,0,0.1,0c0.2,0,0.4-0.1,0.6-0.2c0.2-0.2,0.3-0.4,0.3-0.6c0-0.5-0.4-0.8-0.8-0.8c0,0-0.1,0-0.1,0
					c0,0,0,0-0.1,0c1.7-1.4,2.2-3.7,2.5-5.9c0.2-1.1,0.3-2.3,0.4-3.5c0.4-4.2,0.7-8.4,0.7-12.6c0-1.6-0.1-3.3-0.2-4.9
					c0.4,0.5,0.8,1.1,1,1.8c0.2,0.8,0.4,1.6,0.5,2.4c-0.1-0.1-0.2-0.1-0.4-0.1c-0.5,0-0.8,0.4-0.8,0.8c0,0.4,0.3,0.8,0.8,0.8
					c0.2,0,0.4-0.1,0.5-0.1c0,1.5-0.1,3-0.1,4.5c-0.1,2.3-0.3,4.6-0.5,6.8c-0.1-0.1-0.2-0.1-0.4-0.1c-0.5,0-0.8,0.4-0.8,0.8
					c0,0.4,0.2,0.9,0.8,0.9c0.1,0,0.1,0,0.2,0c0,0,0,0.1,0,0.1c-0.3,2.3-0.5,4.7-1.3,7c-0.4,1.2-0.9,2.2-1.7,3.1
					c-0.9,1.1-2.2,2-3.7,2.4c-0.8,0.2-1.6,0.4-2.5,0.4c-1.4,0.1-2.9,0-4.3-0.2C32.7,32.5,32.7,31.8,32.8,31.1z M7.6,12.3
					c0-0.1,0-0.2,0-0.3c0.5,0.1,0.9,0.2,1.4,0.4c-0.2,0.1-0.4,0.3-0.4,0.6c-0.7,4.4-1.2,8.8-1.5,13.2C7,28.5,6.9,30.7,6.9,33
					c0,1.3,0.2,2.6,0.8,3.6c0.5,0.8,1.1,1.6,2.1,2.2c2.2,1.4,4.8,1.3,7.3,1.2c0,0.4,0,0.8,0,1.2c0,0,0-0.1-0.1-0.1
					c-0.1-0.2-0.4-0.4-0.7-0.4c-1.1,0-1.1,1.7,0,1.7c0.4,0,0.6-0.2,0.7-0.5c0,0.4,0,0.9,0,1.3c-0.9-0.3-1.8-0.7-2.7-0.9
					c-1.6-0.4-3.2-0.5-4.7-1c-1.8-0.7-3-2.1-3.7-3.8C5.3,36.2,5,34.7,5,33.4C4.8,31,5,28.5,5.3,26.1h0c0.1-0.9,0.2-1.9,0.4-2.8
					C6.2,19.6,6.8,16,7.6,12.3z M11.3,46.2c0.8-0.3,0.7-1.6-0.3-1.6c-0.8,0-1,0.9-0.6,1.4c-2.2-0.6-4.2-1.5-5.7-3
					c-0.7-0.7-1.3-1.5-1.8-2.4c-1.6-3-1.7-6.6-1.5-10.2c0.1,0.2,0.4,0.4,0.7,0.4c0.5,0,0.8-0.4,0.8-0.8c0-0.4-0.2-0.9-0.8-0.9
					c-0.3,0-0.5,0.1-0.6,0.3c0.1-1.5,0.3-3,0.4-4.4c0.2-2.5,0.4-5,0.8-7.4c0-0.3,0.1-0.6,0.1-0.9C3.1,14.4,3.9,12.4,6,12
					c-0.4,1.9-0.8,3.8-1.1,5.8c-0.3,1.8-0.6,3.7-0.8,5.5c-0.3,2.2-0.6,4.5-0.7,6.7c-0.1,1.6-0.1,3.2,0.2,4.8
					c0.4,2.5,1.4,5.1,3.4,6.7C7,41.7,7.2,41.9,7.4,42c1.3,0.9,2.8,1.2,4.3,1.5c1.9,0.3,3.6,0.8,5.4,1.5c0,0.1,0,0.1,0,0.2
					c0,0.5,0.1,1.1,0.1,1.7C15.2,46.8,13.2,46.6,11.3,46.2z M10.4,53.3c1.9-1.2,4.5-1.7,6.6-2.2c0,0,0,0,0,0c0,0.2,0,0.5,0,0.7
					C14.7,51.9,12.5,52.4,10.4,53.3C10.4,53.3,10.4,53.3,10.4,53.3z M36.1,78.1c-6.9,4.2-15.7,4.5-22.9,0.7c0,0,0-0.1,0-0.1
					c-1-4.6-1.6-9.2-1.9-13.9c4.2,1.5,8.6,2,13.1,1.8c2.8-0.1,5.7-0.6,8.4-1.2c1.4-0.3,2.8-0.6,4.1-1.1c-0.3,4.6-0.5,9.1-0.8,13.7
					C36.1,78,36.1,78.1,36.1,78.1z M39.6,57.4c-0.1,1.3-0.3,2.5-0.5,3.8c0,0,0,0,0,0c-1.8,1.7-4.9,2.1-7.3,2.6c-2.6,0.6-5.3,0.9-8,1
					c-5,0.2-10-0.6-14.5-2.8C9,60.5,8.9,58.9,9,57.3c0.8,0.7,1.9,1.2,2.7,1.7c1.9,1,4,1.7,6.2,2.1c4.3,0.8,8.7,0.6,13.1,0
					C33.9,60.5,37.5,59.7,39.6,57.4z M31.7,51.6c0.3,0.1,0.6,0.1,0.8,0.2c-0.3,0-0.6,0-0.8,0C31.7,51.7,31.7,51.7,31.7,51.6z
					 M17.2,38.3c-2.3,0.1-4.8,0.2-6.8-1.2c-1.3-1-1.7-2.4-1.8-3.9c-0.1-1.1,0.1-2.3,0.1-3.4c0.2-5.5,0.7-10.9,1.6-16.4
					c0-0.1,0-0.2,0-0.3c0.2,0.2,0.4,0.4,0.5,0.6c0.8,1.3,0.4,3.3,0.3,4.7c-0.2,2.9-0.9,5.8-1,8.7c-0.1,1.8,0.3,3.8,1.4,5.3
					c0.3,0.4,0.6,0.8,1,1.1c1.4,1.2,3.3,1.5,4.9,0.9C17.2,35.8,17.2,37,17.2,38.3z"/>
				<path id="XMLID_9244_" d="M41.4,24.7c0,0,0.1-0.1,0.1-0.1c0.1-0.1,0.1-0.2,0.2-0.3c0.1-0.3,0.1-0.7-0.2-0.9
					c-0.3-0.3-0.9-0.3-1.2,0c0,0,0,0,0,0c0,0-0.1,0.1-0.1,0.1c-0.3,0.3-0.3,0.9,0,1.2C40.6,25,41.1,25.1,41.4,24.7z"/>
				<path id="XMLID_9245_" d="M38.7,18.6c0.5,0,0.8-0.4,0.8-0.8c0-0.4-0.3-0.8-0.8-0.8c-0.4,0-0.6,0.2-0.7,0.5
					C37.8,17.9,38,18.6,38.7,18.6z"/>
				<path id="XMLID_9249_" d="M3.7,18.5c0.4,0,0.8-0.3,0.8-0.7c0,0,0-0.1,0-0.1c0-0.5-0.4-0.8-0.8-0.8c0,0-0.1,0-0.1,0
					c-0.4,0-0.8,0.3-0.8,0.7c0,0,0,0.1,0,0.1c0,0.5,0.4,0.8,0.8,0.8C3.6,18.5,3.6,18.5,3.7,18.5z"/>
				<path id="XMLID_9250_" d="M39.7,9.9c0.5,0,0.8-0.4,0.8-0.8c0-0.4-0.3-0.8-0.8-0.8c-0.5,0-0.8,0.4-0.8,0.8
					C38.9,9.4,39.1,9.9,39.7,9.9z"/>
				<path id="XMLID_9251_" d="M38.1,27.4c0,0,0-0.1,0-0.1c0-0.4-0.4-0.9-0.8-0.8c-0.5,0-0.8,0.4-0.8,0.8c0,0,0,0.1,0,0.1
					c0,0.4,0.4,0.9,0.8,0.8C37.7,28.3,38.1,27.9,38.1,27.4z"/>
				<path id="XMLID_9252_" d="M35.7,22.8c0.1,0,0.1,0,0.2,0c0.4-0.1,0.7-0.4,0.7-0.8c0-0.1,0-0.2,0-0.3c0-0.4-0.4-0.9-0.8-0.8
					c0,0,0,0,0,0c-0.4,0-0.8,0.4-0.8,0.8c0,0.1,0,0.2,0,0.3C34.9,22.4,35.3,22.8,35.7,22.8z"/>
				<path id="XMLID_9254_" d="M30.6,4.6c0-0.4-0.3-0.8-0.8-0.8c-0.5,0-0.8,0.4-0.8,0.8c0,0.4,0.2,0.9,0.8,0.9
					C30.3,5.5,30.6,5.1,30.6,4.6z"/>
				<path id="XMLID_9255_" d="M30.2,12.8c0-0.4-0.4-0.9-0.8-0.8c-0.5,0-0.8,0.4-0.8,0.8c0,0,0,0.1,0,0.1c0,0.4,0.4,0.9,0.8,0.8
					c0.5,0,0.8-0.4,0.8-0.8C30.2,12.9,30.2,12.8,30.2,12.8z"/>
				<path id="XMLID_9256_" d="M30.1,25.7c0-0.1,0-0.2,0-0.3c0-0.4-0.4-0.9-0.8-0.8c-0.5,0-0.8,0.4-0.8,0.8c0,0.1,0,0.2,0,0.3
					c0,0.4,0.4,0.9,0.8,0.8C29.7,26.5,30.1,26.1,30.1,25.7z"/>
				<path id="XMLID_9257_" d="M28.9,35.5c-1.1,0-1.1,1.7,0,1.7C30,37.1,30,35.5,28.9,35.5z"/>
				<path id="XMLID_9258_" d="M27.8,44.4c-0.4,0-0.9,0.4-0.8,0.8c0,0.5,0.4,0.8,0.8,0.8c0,0,0.1,0,0.1,0c0.4,0,0.9-0.4,0.8-0.8
					c0-0.5-0.4-0.8-0.8-0.8C27.9,44.4,27.9,44.4,27.8,44.4z"/>
				<path id="XMLID_9260_" d="M24,10c1.1,0,1.1-1.7,0-1.7C22.9,8.4,22.9,10,24,10z"/>
				<path id="XMLID_9261_" class="st40" d="M17.9,61c-2.1-0.4-4.2-1.1-6.2-2.1C10.9,58.5,9.8,58,9,57.3c-0.1,1.6,0,3.2,0.3,4.9
					c4.5,2.2,9.5,3,14.5,2.8c2.7-0.1,5.4-0.5,8-1c2.4-0.5,5.5-0.9,7.3-2.6c0,0,0,0,0,0c0.2-1.3,0.4-2.5,0.5-3.8
					c-2.1,2.3-5.7,3.1-8.6,3.6C26.6,61.7,22.2,61.8,17.9,61z"/>
				<path id="XMLID_9262_" d="M24.6,19.7c0,0-0.1-0.1-0.1-0.1c-0.3-0.3-0.9-0.3-1.2,0c-0.3,0.3-0.3,0.9,0,1.2c0,0,0.1,0.1,0.1,0.1
					c0.3,0.3,0.9,0.3,1.2,0C24.9,20.5,24.9,20,24.6,19.7z"/>
				<path id="XMLID_9263_" d="M23.4,40.3c0.5,0,0.8-0.4,0.8-0.8c0,0,0-0.1,0-0.1c0-0.4-0.4-0.9-0.8-0.8c-0.5,0-0.8,0.4-0.8,0.8
					c0,0,0,0.1,0,0.1C22.6,39.9,23,40.3,23.4,40.3z"/>
				<path id="XMLID_9264_" d="M23.9,30.5c0-0.4-0.3-0.8-0.8-0.8c-0.5,0-0.8,0.4-0.8,0.8c0,0.4,0.3,0.8,0.8,0.8
					C23.7,31.3,23.9,30.9,23.9,30.5z"/>
				<path id="XMLID_9267_" d="M12.8,35.2C12.6,35,12.3,35,12,35.1c-0.4,0.1-0.7,0.6-0.6,1c0.1,0.3,0.3,0.5,0.6,0.6
					c0.2,0.1,0.4,0.2,0.7,0.1c0.4-0.1,0.7-0.6,0.6-1C13.2,35.5,13.1,35.3,12.8,35.2z M11.7,36.2c0,0.1,0.1,0.2,0.2,0.3
					C11.8,36.5,11.7,36.4,11.7,36.2z"/>
				<path id="XMLID_9268_" class="st40" d="M32.8,65.4c-2.8,0.6-5.6,1-8.4,1.2c-4.5,0.2-8.9-0.3-13.1-1.8c0.3,4.7,0.9,9.3,1.9,13.9
					c0,0,0,0.1,0,0.1c7.2,3.8,16,3.5,22.9-0.7c0,0,0-0.1,0-0.1c0.3-4.6,0.5-9.1,0.8-13.7C35.6,64.8,34.1,65.1,32.8,65.4z"/>
				<path id="XMLID_9269_" d="M10.3,32.1c-0.5,0-0.8,0.4-0.8,0.8c0,0,0,0.1,0,0.1c0,0.4,0.4,0.9,0.8,0.8c0.5,0,0.8-0.4,0.8-0.8
					c0,0,0-0.1,0-0.1c0-0.1,0-0.3-0.1-0.4C10.9,32.3,10.6,32.1,10.3,32.1z"/>
				<path id="XMLID_9270_" d="M6.1,37c0,0,0,0.1,0,0.1c0,0.1,0,0.2,0.1,0.3C6.3,37.7,6.6,38,7,38c0.5,0,0.8-0.4,0.8-0.8
					c0,0,0-0.1,0-0.1c0-0.1,0-0.3-0.1-0.4c-0.1-0.3-0.4-0.5-0.7-0.5C6.5,36.2,6.1,36.5,6.1,37z"/>
				<path id="XMLID_9271_" d="M6.3,41.4c0,0-0.1,0-0.1,0c-0.4,0-0.9,0.4-0.8,0.8c0,0.1,0,0.3,0.1,0.4c0.1,0.3,0.4,0.4,0.7,0.4
					c0,0,0.1,0,0.1,0c0.4,0,0.9-0.4,0.8-0.8c0-0.3-0.1-0.5-0.3-0.6C6.7,41.5,6.5,41.4,6.3,41.4z"/>
				<path id="XMLID_9272_" d="M5.3,26.1c0,0.4,0.2,0.9,0.8,0.9c0.5,0,0.8-0.4,0.8-0.8c0-0.4-0.3-0.9-0.8-0.9
					C5.6,25.4,5.4,25.7,5.3,26.1z"/>
				<path id="XMLID_9278_" d="M131.4,66.6c1.3-0.8,1.9-2.4,1.1-3.7c-0.8-1.3-2.5-1.8-3.9-1.1c-0.1,0-0.2,0.1-0.2,0.2c0,0,0,0,0,0
					c0,0,0,0,0,0c0,0-0.1,0-0.1,0.1c-1,0.8-1.2,2.3-0.8,3.4c-2.3,2-5,3.2-8,3.7c0-1.1-0.1-2.1-0.1-3.2c-0.1-2.2-0.1-4.5-0.2-6.7
					c0.1,0,0.1,0,0.2,0c3.8-0.8,6.8-3.6,8-7.3h0c1,0,2.1-0.6,2.7-1.4c0.8-1.2,0.9-2.8-0.2-3.8c-0.9-0.9-2.5-1.2-3.6-0.4
					c0,0-0.1,0.1-0.1,0.1c0,0,0,0,0,0c-0.3,0-0.5,0.2-0.7,0.6c-0.4,1.3-0.8,3.3,0.3,4.4c-1,3.1-3.5,5.4-6.7,6.2c0-1.3-0.1-2.7-0.1-4
					c0,0,0,0,0,0c0.1-0.2,0.1-0.5,0-0.8c0,0,0,0,0,0c0-2.4-0.1-4.9-0.1-7.3c0.9-0.7,1.4-1.7,1.5-2.9c0.1-1.5-1.1-3.7-2.9-3.1
					c-1.6,0.5-2.4,2.6-2,4.1c0.2,0.8,0.6,1.6,1.4,1.9c0.1,0.2,0.2,0.4,0.4,0.5c0,2.1,0.1,4.2,0.1,6.3c-0.5-0.2-1.2-0.5-1.3-0.6
					c-0.7-0.4-1.4-0.8-2.1-1.3c-1.2-1-2-2.2-2.6-3.5c0,0,0,0,0-0.1c0.8-2.1-2.1-5.5-3.9-3.6c-0.9,1-0.7,2.8,0.1,3.8
					c0.6,0.8,1.6,1.1,2.5,0.8c0.9,1.9,2.2,3.4,3.9,4.6c0.7,0.5,2.3,1.5,3.5,1.7c0,1.4,0.1,2.8,0.1,4.3c0,2.3,0.1,4.5,0.2,6.8
					c-4.1-0.1-7.9-2.4-9.8-6.1c0.5-0.8,0.6-1.9,0.1-2.8c-0.6-1.2-2.2-2.1-3.5-1.4c-1.4,0.7-1,2.4-0.5,3.6c0.6,1.2,1.6,2.3,3,2.4
					c2.3,3.7,6.4,6,10.8,6c0,1,0.1,2,0.1,3c0.1,3.3,0.2,6.7,0.3,10c0,1.1,1.7,1.1,1.7,0c-0.1-3-0.2-6.1-0.3-9.1
					c3.4-0.5,6.5-1.9,9.1-4.1C129.5,67.1,130.6,67.1,131.4,66.6z M128.9,49.6c-0.3,0.4-1,1-1.6,0.7c-0.1,0-0.1,0-0.1-0.1
					c-0.5-0.4-0.2-1.6,0-2.3c0,0,0.1,0,0.1-0.1C128.4,47,129.7,48.5,128.9,49.6z M108.8,45.8c-0.1-0.2-0.4-1.2-0.1-1.4
					c0.3-0.1,0.7,0.6,0.8,0.7c0.1,0.2,0.3,0.4,0.3,0.7c0,0,0,0.1,0,0.2c-0.1,0.1-0.2,0.1-0.3,0.3C109.4,46.6,108.9,46,108.8,45.8z
					 M105.2,56.6c0-0.3,0.2-0.4,0.6-0.2c0.2,0.1,0.5,0.2,0.6,0.4c0.5,0.6,0.3,1.4-0.2,1.9c-0.1-0.1-0.2-0.2-0.3-0.4
					C105.6,57.9,105.1,57.1,105.2,56.6z M117.3,42.2c0.2-0.7,1-1.6,1.4-0.5c0.3,0.6,0.1,1.3-0.2,1.9c-0.3-0.1-0.7,0-0.9,0.4
					c0,0-0.4-0.9-0.4-1C117.2,42.7,117.2,42.4,117.3,42.2z M131.1,63.8c0.3,0.6-0.1,1.2-0.6,1.5c-0.2,0.1-0.4,0.1-0.5,0.1
					c0.2-0.6-0.4-1.2-1-1.1c0-0.4,0.1-0.7,0.4-1l0,0c0,0,0,0,0,0C130,62.9,130.8,63.2,131.1,63.8z"/>
				<path id="XMLID_9285_" d="M154.9-3.4c0.5,0.5,1.3,0.6,2,0.5c1.4,1.9,3.1,3.3,5.2,4.3c0.5,0.2,1.1,0.5,1.8,0.8V0.2
					c-0.7-0.2-1.3-0.5-2-0.9c-1.3-0.7-2.5-1.7-3.4-2.9c0.6-0.6,0.7-1.6,0.3-2.4c-0.2-0.4-0.6-0.8-1-1h-2.5c0,0,0,0-0.1,0
					C154.1-6.1,153.9-4.4,154.9-3.4z M156.1-5.5c0.3-0.3,0.7-0.2,1,0c0.1,0.1,0.1,0.1,0.2,0.2c-0.2,0-0.4,0.2-0.5,0.4
					c-0.1,0.3-0.4,0.4-0.7,0.3C155.8-4.8,155.9-5.2,156.1-5.5z"/>
				<path id="XMLID_9291_" d="M95.6-2.9c-0.1,0.1-0.2,0.3-0.2,0.5C95,0.3,95.1,3,95.5,5.7c-0.2,0.4-0.2,0.8,0.2,1.1
					c0,0.1,0.1,0.3,0.1,0.4c0.1,0.7,0.9,0.7,1.4,0.4c0,0,0,0,0,0c0.2,0.1,0.4,0.2,0.6,0.3c0.3,6.2,1.1,12.3,2.4,18.3c0,0,0,0,0,0
					c-0.1,0.3,0,0.7,0.4,1c9.6,5.4,21.8,4.9,31-1.1c0.6-0.4,0.4-1.1,0.1-1.4c0.3-5.7,0.7-11.4,1-17.2c0-0.1,0-0.1,0-0.2
					c0.5-0.3,0.9-0.5,1.4-0.9c0.4,0.2,0.9,0,1.1-0.5c0.6-3.3,0.9-6.7,1-10c0-0.5-0.3-0.7-0.7-0.8c-0.3-0.6-0.9-1.1-1.7-1.4
					c-0.5-0.2-1-0.4-1.5-0.6h-5.9c0.4,0.1,0.8,0.2,1.2,0.3c-1-0.1-2.1-0.1-3.2-0.1c0,0,0,0,0,0c0-0.1,0-0.1,0-0.2h-1.7
					c-0.1,1.3-0.2,2.7-0.4,4c-0.1,0.1-0.2,0.3-0.2,0.4c-0.7,0.6-2.2,0.9-3.1,1.1c-0.7,0.1-1.4,0.2-2.1,0.2c0.1-1.9,0.1-3.8,0.2-5.7
					h-1.7c-0.1,1.9-0.1,3.7-0.2,5.6c-1.1-0.1-2.4-0.1-3.7-0.3c0.3-0.1,0.6-0.3,0.7-0.8c0.2-1.5,0.3-3,0.4-4.5H111
					c-0.1,1.5-0.2,3-0.4,4.5c0,0.3,0.1,0.5,0.2,0.6c-0.7-0.2-1.4-0.4-2-0.8c0-1.4-0.1-2.9-0.1-4.3H107c0,0.1,0,0.2,0,0.3
					c-3.3,0-6.6,0.8-9.5,2.4c0.3-0.4,0.7-0.7,1.1-1c1.2-0.8,2.6-1.3,4.1-1.7h-4.7C96.4-6,95.3-4.7,95.6-2.9z M130,25
					c-8.4,5.2-19.3,5.6-28.1,0.9c0-0.1,0-0.1,0-0.2c-1.2-5.7-2-11.4-2.3-17.2c5.1,1.9,10.6,2.5,16,2.2c3.4-0.2,6.7-0.7,10-1.4
					c1.7-0.4,3.6-0.7,5.4-1.4c-0.3,5.6-0.7,11.2-1,16.8C130,24.9,130,25,130,25z M96.9-0.7c1.1,1,2.7,1.8,3.8,2.4
					c2.2,1.1,4.6,1.9,7.1,2.3c5.2,1,10.5,0.8,15.7,0c3.8-0.6,8.3-1.6,10.8-4.7c-0.1,1.7-0.3,3.5-0.6,5.2c0,0-0.1,0-0.1,0.1
					c-2.2,2.1-6,2.6-8.9,3.2c-3.2,0.7-6.4,1.1-9.6,1.3c-6.2,0.3-12.3-0.7-17.9-3.4C96.8,3.6,96.7,1.5,96.9-0.7z"/>
				<path id="XMLID_9293_" class="st40" d="M85.1,46.4c1,0.7,3,0.4,4.1,0.4c2.4,0.1,3.9-1,3.4-3.5c-0.3-1.7-1.2-3.4-1.8-5.1
					c-0.7-2-1.4-4-2.2-5.9c-0.4-1-2-0.6-1.6,0.4c0,0,0,0,0,0c-0.8,3.7-1.6,7.4-2.3,11.2C84.5,44.7,84.2,45.8,85.1,46.4z"/>
			</g>
			<path id="XMLID_4734_" class="st40" d="M150.3,102.4c-1.1-7-2.9-13.7-5.6-20.3c-0.3-0.7-1.4-0.9-1.6,0
				c-1.3,6.8-2.3,13.6-2.8,20.5c0,0.2,0,0.4,0.1,0.5c-0.1,0.5,0.1,1.1,0.8,1c2.8-0.2,5.5-0.4,8.3-0.7
				C150.1,103.4,150.4,103,150.3,102.4z"/>
			<g id="XMLID_4717_">
				<path id="XMLID_4738_" class="st36" d="M65.2,86.6c0.6-5.3,1.8-10.5,3.7-15.5c-0.5-0.1-1.1-0.1-1.6-0.2c0.5,5.2,1,10.5,1.5,15.7
					c0.3-0.3,0.6-0.6,0.8-0.8c-1.5,0-3.1,0-4.6,0c-1.1,0-1.1,1.7,0,1.7c1.5,0,3.1,0,4.6,0c0.4,0,0.9-0.4,0.8-0.8
					c-0.5-5.2-1-10.5-1.5-15.7c-0.1-0.9-1.3-1.1-1.6-0.2c-1.9,5.2-3.2,10.5-3.8,16C63.4,87.7,65.1,87.6,65.2,86.6L65.2,86.6z"/>
			</g>
		</g>
		<g id="XMLID_4740_">
			<g id="XMLID_6485_">
				<path id="XMLID_7110_" d="M167.8,175.4c-1.6-0.6-2.9-1.6-3.9-2.9v2.5c1.1,1,2.4,1.8,3.8,2.2c0,0.8-0.1,1.6-0.1,2.4
					c-0.1,2.8-0.2,5.6-0.3,8.4c-1.2-0.2-2.4-0.6-3.4-1.2v1.9c1,0.4,2,0.8,3.1,1c0.1,0,0.2,0,0.3,0c0,0.9-0.1,1.7-0.1,2.6h1.7
					c0-1.2,0.1-2.3,0.1-3.5c0.1-2.7,0.2-5.4,0.3-8.1c4.8,0.3,6.3-5,7.4-9c1.4-0.6,2.5-2,2.4-3.6c-0.1-1.5-1.4-2.7-2.9-2.7
					c-1.5,0-2.7,1.3-2.6,2.8c0.1,1.1,0.8,1.9,1.7,2.2c-0.9,3.3-1.9,8.8-6,8.6c0-0.6,0-1.1,0.1-1.7c0.4-0.3,0.5-1,0.1-1.3
					c0.1-3.5,0.3-6.9,0.5-10.4c0,0,0,0,0,0c0.8-1,1.1-2.3,0.8-3.6c-0.3-1.3-1.4-2.6-2.9-2.2c-2.4,0.7-2,5.9,0.4,5.6c0,0,0,0.1,0,0.1
					C168.1,168.7,168,172,167.8,175.4z M176.6,167c0.9,0.4,0.9,1.2,0.6,1.9c-0.2-0.2-0.4-0.3-0.8-0.2
					C174.8,169,175.1,166.3,176.6,167z M168,162.1c0-0.2,0-0.5,0.2-0.6c0.3-0.3,0.5-0.1,0.7,0.2c0.4,0.5,0.4,1.3,0.2,1.9
					c-0.2-0.1-0.4-0.2-0.7-0.1C167.9,163.7,168,162.3,168,162.1z"/>
				<path id="XMLID_7107_" d="M179.9,185.8L179.9,185.8c0.2,0,0.3,0,0.5,0c1.2-0.2,2.1-1.2,2-2.4c-0.1-1.4-1.2-2.4-2.6-2.5
					c-0.6-0.1-0.8,0.4-0.8,0.8v0c-0.9,0.4-1.3,1.4-1.2,2.4c0.1,0.4,0.2,0.8,0.5,1.1c-1.4,3.8-4.9,6.5-8.9,7h5.1
					C177,190.7,178.9,188.5,179.9,185.8z M180.1,184.1c-0.1,0-0.2,0-0.3,0c-0.4-0.2-0.4-0.8,0.1-1c0.3-0.1,0.4-0.2,0.5-0.4
					C180.9,183.2,180.9,184,180.1,184.1z"/>
				<path id="XMLID_7092_" d="M180,145.2c-0.2,0.9-0.5,1.9,0.4,2.5c1,0.7,3,0.4,4.1,0.4c2.4,0.1,3.9-1,3.4-3.5
					c-0.3-1.7-1.2-3.4-1.8-5.1c-0.7-2-1.4-4-2.2-5.9c-0.4-1-2-0.6-1.6,0.4v0C181.5,137.8,180.7,141.5,180,145.2z"/>
				<path id="XMLID_6587_" d="M170.2,66.6L170.2,66.6c1.4,0.2,2.8,0.3,4.1,0.4c1.3,0.1,3.2,0.4,4.4,0.1c0.7-0.2,1.1-0.8,1.1-1.5
					c0-1.5-0.6-3.2-0.8-4.7c-1.3-6.7-2.7-13.4-4.9-19.9c0-0.1,0-0.1-0.1-0.2c-0.3-0.9-1.6-0.7-1.6,0.2c0,0.1,0,0.1,0,0.2
					c-0.8,8-3.4,15.7-3.7,23.7c-0.5,0.2-0.5,1,0,1.4v0C168.7,67.1,169.8,67.2,170.2,66.6z M173.6,44.8c1.3,4.3,2.3,8.7,3.2,13.1
					c0.3,1.4,0.5,2.7,0.8,4.1c0.1,0.7,0.3,1.5,0.4,2.2c0,0.2,0.2,1.4,0.3,1.3c-0.3,0.4-4.1-0.1-4.6-0.2c-1.1-0.1-2.2-0.2-3.3-0.3
					C170.6,58.1,172.5,51.5,173.6,44.8z"/>
				<path id="XMLID_6517_" d="M168.8-5.2c2.1-0.1,4.1-0.7,5.8-1.7h-5.1c-0.2,0-0.4,0-0.6,0.1c0,0,0,0,0-0.1h-1.7c0,0.3,0,0.5,0,0.8
					c-0.1,2.4-0.2,4.7-0.2,7.1c0,0,0,0-0.1,0c-0.2,0.2-2-0.4-2.3-0.5c-0.2-0.1-0.5-0.1-0.7-0.2v1.8c1,0.4,2.1,0.7,2.9,0.6
					c0,0.8,0,1.6-0.1,2.3c-0.1,3-0.2,6-0.2,9.1c0,1.1,1.7,1.1,1.7,0c0.1-2.7,0.1-5.4,0.2-8.1c2.4,0,4.8-0.5,6.9-1.7
					c1.2-0.7,3.7-2.2,3.9-3.8c0.2,0,0.5,0,0.7,0c1.2-0.2,2.1-1.4,2.1-2.7c-0.1-1.3-1.1-2.3-2.3-2.7c-0.2-0.1-0.3-0.1-0.5,0
					c0,0,0,0,0,0c-0.3-0.1-0.5,0-0.8,0.2c-0.9,0.8-1.6,2.1-1.3,3.3c0.1,0.3,0.2,0.7,0.4,0.9c-0.1,0.2-0.2,0.4-0.1,0.7
					c0.1,0.4-1.5,1.6-1.8,1.8c-0.8,0.6-1.6,1.1-2.5,1.4c-1.5,0.6-3.1,0.9-4.7,0.9c0-0.9,0-1.8,0.1-2.7
					C168.6-0.7,168.7-2.9,168.8-5.2z M180.3-2.3c0.1,0.5-0.2,1.2-0.8,1.1c-0.2,0-0.4-0.1-0.5-0.3c-0.2-0.2-0.2-0.5-0.2-0.7
					c0-0.4,0.2-0.8,0.5-1.1C179.7-3.1,180.2-2.7,180.3-2.3z"/>
			</g>
		</g>
		<g id="XMLID_7982_">
			<g id="XMLID_7987_">
				<path id="XMLID_8222_" d="M27.6,379.2c-2.1-1.1-4.8-1.3-6.9,0c-2.1,1.2-3.1,3.6-3.5,5.9c-0.3,2-0.3,4.1-0.3,6.2h1.7
					c0-1.9,0-4.3,0.4-6.4c0.5-2.3,1.5-4.2,3.6-4.8c-1,1.3-1.1,3-1.2,4.6c0,0.2,0,0.3,0,0.5c-0.1,2-0.2,4.1-0.3,6.1h1.7
					c0-0.7,0.1-1.3,0.1-2c0.1-1.4,0.1-2.8,0.2-4.3c0.1-1.4-0.1-3.4,1.3-4.3c0.1,0,0.1-0.1,0.2-0.2c1.6,1.5,2.1,3.9,2.3,6.1
					c0.2,1.5,0.2,3.1,0.2,4.6h1.7c0,0,0-0.1,0-0.1c0.1-3.5,0-7.7-2-10.6c3.8,1.7,4.6,6.3,4.8,10.5h0c0,0,0,0.1,0,0.1h1.7
					C33,386.5,32,381.5,27.6,379.2z"/>
				<path id="XMLID_8190_" d="M18.2,333.1c-1-0.9-2.6-0.8-3.2,0.4c-0.6,1.1-0.4,2.8,0.5,3.7c0.6,0.6,1.5,0.7,2.2,0.5c0,0,0,0,0,0
					c0.2,0.1,0.4,0.1,0.6,0.1h0c1.9,2.8,4.4,5,7.4,6.5c0.1,0.1,0.3,0.1,0.4,0.1c0,0.9,0,1.8,0,2.7c0,1.2,0,2.4,0,3.6
					c0,1.1,1.7,1.1,1.7,0c0-1,0-1.9,0-2.9c2.3-0.9,4.5-2,6.6-3.3c1.4-0.9,3.4-1.9,4.3-3.4c0.3,0,0.5,0,0.8,0c1.4-0.2,2.6-1.5,2.4-3
					c-0.2-1.4-1.6-2.5-2.9-1.8c-0.1,0.1-0.3,0.2-0.3,0.3c-1.1,0.1-1.8,1.3-1.8,2.4c0,0.5,0.2,1,0.5,1.3c-0.7,1.4-3.5,2.7-4.7,3.4
					c-1.5,0.9-3.1,1.7-4.8,2.3c0-0.8,0-1.7,0-2.5c0-2.3,0-4.6,0-6.9c4.3-1.6,8.1-4.1,11.4-7.2c0.6,0.4,1.5,0.4,2.2,0.1
					c1.1-0.4,1.8-1.5,1.6-2.7c-0.2-1.3-1.3-2.2-2.6-2.2c-0.3,0-0.6,0.2-0.7,0.4c-0.8,0.7-1.2,1.7-1.2,2.8c-3,3.1-6.6,5.5-10.6,7.1
					c0-0.9,0-1.8,0-2.7c0-2.3,0-4.5,0-6.8c4.1-1.9,8.4-4.2,10.2-8.5c0.8,0.1,1.6-0.1,2.2-0.7c1.2-1.1,1.4-2.9,0.3-4.1
					c-1.1-1.2-3-1.4-4.3-0.5c-0.6,0.4-0.4,1.1,0,1.4c-0.4,0.8-0.4,1.9,0.1,2.7c0.1,0.1,0.1,0.2,0.2,0.2v0c-1.5,3.8-5.2,5.8-8.7,7.6
					c0-1,0-1.9,0-2.9c0.3-0.3,0.4-0.9,0-1.2c0-2.9,0-5.8,0-8.7c1.9-1,1-5.7-1.8-5.5c-1.4,0.1-2.4,1.6-2.3,2.9c0.1,1.4,1.2,2.4,2.4,3
					c0,2.4,0,4.7,0,7.1c-1.8-1.3-3.1-3.1-3.9-5.2c0.4-0.5,0.6-1.2,0.4-1.8c-0.3-1.3-1.9-2.1-3.1-1.6c-1.3,0.5-2.2,2.3-1.4,3.5
					c0.5,0.8,1.5,1.1,2.3,0.8c0.1,0,0.2,0,0.4,0c1.1,2.6,2.9,4.8,5.4,6.3c0,1.4,0,2.8,0,4.2c0,2.3,0,4.5,0,6.8c-3-1.5-4.9-4.2-6.7-7
					c1.2-1.7,1.2-4.4-1.1-5.1c-0.9-0.3-2,0-2.6,0.7c-0.8,1-0.4,2.3-0.6,3.5c0,0.3,0.3,0.7,0.6,0.8c0.6,0.1,1.2,0.1,1.8,0
					c2,3.4,4.3,6.9,8,8.6c0.2,0.1,0.4,0.1,0.6,0c0,1,0,2,0,2.9c0,2.2,0,4.5,0,6.7c-2.8-1.5-5.1-3.7-6.8-6.4
					c-0.1-0.1-0.2-0.2-0.2-0.3C19.2,334.9,19,333.8,18.2,333.1z M38.9,338.2c0.4,0,0.7-0.2,0.8-0.5v0c0,0,0,0,0,0
					c0.2-0.1,0.5,0.6,0.5,0.8c0,0.5-0.6,0.9-1.1,0.9c-0.3,0-0.5-0.1-0.6-0.2C38.3,338.8,38.5,338.2,38.9,338.2z M41.2,327.5
					c-0.2,0.4-0.7,0.6-1.1,0.5c-0.1-0.6,0.1-1.2,0.5-1.7C41.1,326.5,41.5,327,41.2,327.5z M39.2,314.7c-0.3,0.3-0.5,0.5-0.8,0.5
					c0-0.5-0.5-0.7-0.9-0.7c-0.1-0.4-0.1-0.7,0.3-1c0.3-0.2,0.4-0.5,0.4-0.8C39.2,312.8,40,313.7,39.2,314.7z M20.1,311.2
					c0.5-0.1,0.8,0.2,0.8,0.5c-0.2,0-0.4,0.1-0.5,0.3c-0.1,0-0.3,0.1-0.4,0.3c0,0-0.1,0.1-0.1,0.1h0c0,0,0,0,0,0
					c-0.1,0-0.1,0-0.2,0.1c-0.1,0-0.2,0-0.3-0.2C19.3,311.9,19.7,311.3,20.1,311.2z M17.7,320.9c0.7,0.1,0.9,0.6,0.9,1.1
					c-0.1,0-0.3,0.1-0.4,0.2c-0.4,0.3-0.9,0.5-1.4,0.6C16.7,321.8,16.7,320.7,17.7,320.9z M25.7,307.2c0.4-0.5,0.8-0.3,1.1,0.2
					c0.1,0.2,0.6,1.9,0.1,1.8c-0.2,0-0.4,0-0.6,0.1C25.6,308.8,25,307.9,25.7,307.2z M16.4,335.7c-0.2-0.3-0.3-1.2,0.1-1.5
					c0.3-0.2,0.7,0.1,0.9,0.4c0.2,0.4,0.2,0.9,0.1,1.3c0,0-0.1,0.1-0.1,0.1C17,336.4,16.5,335.9,16.4,335.7z"/>
				<path id="XMLID_8189_" d="M20.2,385.8c0.4,0,0.8-0.3,0.8-0.7c0,0,0-0.1,0-0.1c0-0.5-0.4-0.8-0.8-0.8c-0.1,0-0.2,0-0.3,0
					c-0.4,0-0.7,0.3-0.8,0.6c0,0.1,0,0.1,0,0.2c0,0.5,0.4,0.8,0.8,0.8C20,385.8,20.1,385.8,20.2,385.8z"/>
				<path id="XMLID_8188_" class="st40" d="M46.9,351.7c-1.6,8-3.2,16.1-4.8,24.1c-0.1,0.4,0.1,0.7,0.4,0.9c-0.1,0.5,0.2,1,0.8,1
					c3.3,0.1,6.6,0.2,9.9,0.3c0.4,0,0.9-0.4,0.8-0.8c-1-8.7-2.1-17.5-5.5-25.6C48.1,350.9,47,351.1,46.9,351.7z"/>
				<path id="XMLID_8185_" d="M24.7,384.4c-1.1,0-1.1,1.7,0,1.7C25.7,386.1,25.7,384.4,24.7,384.4z"/>
				<path id="XMLID_8179_" d="M158.8,380.6c1.2-0.5,1.5-2.5,1.3-3.7c-0.3-1.9-1.9-3.1-3.7-2.5c-1.6,0.5-2.6,2.2-2,3.9
					c0.4,1.1,1.4,1.9,2.5,2.2c1.4,3.2,3.9,5.8,7,7.2v-1.9C161.7,384.6,159.9,382.9,158.8,380.6z M156.5,376.2
					c0.6-0.4,1.4-0.4,1.8,0.3c0.1,0.2,0.3,1.8,0.1,2.3h0c0,0,0,0-0.1,0C156.8,379.2,154.8,377.3,156.5,376.2z"/>
				<path id="XMLID_8176_" d="M163.1,361.9c-0.4-1.1-1.9-1.8-2.9-1.2c-1.2,0.7-1.2,2.2-1,3.4c0.1,0.9,0.6,1.7,1.4,2.1
					c-0.1,3,1.3,5.9,3.5,7.8v-2.5c-1.2-1.6-1.8-3.5-1.8-5.5c0.3-0.3,0.3-0.9,0.1-1.2c0,0,0,0,0,0c0,0,0-0.1,0-0.1
					C163,364,163.4,363,163.1,361.9z M160.8,362.2c0.2-0.2,0.6,0,0.7,0.3c0.2,0.5-0.3,1-0.7,1.2c0,0-0.1,0.1-0.1,0.1
					C160.6,363.2,160.6,362.4,160.8,362.2z"/>
				<path id="XMLID_8175_" d="M138.2,344.9c0.5,0,0.8-0.4,0.8-0.8c0-0.4-0.3-0.8-0.8-0.8c-0.5,0-0.8,0.4-0.8,0.8
					C137.4,344.4,137.7,344.9,138.2,344.9z"/>
				<path id="XMLID_8173_" d="M137.1,365.1c0.1,0,0.1,0,0.2,0c0.4,0,0.9-0.4,0.8-0.8c0-0.5-0.4-0.8-0.8-0.8c-0.1,0-0.1,0-0.2,0
					c-0.4,0-0.9,0.4-0.8,0.8C136.3,364.8,136.6,365.1,137.1,365.1z"/>
				<path id="XMLID_8172_" d="M136.2,358.4c0.1-0.1,0.1-0.1,0.2-0.2c0.3-0.3,0.3-0.9,0-1.2c-0.3-0.3-0.9-0.3-1.2,0
					c-0.1,0.1-0.1,0.1-0.2,0.2c-0.3,0.3-0.3,0.9,0,1.2C135.3,358.7,135.8,358.7,136.2,358.4z"/>
				<path id="XMLID_8166_" class="st40" d="M136.4,361.3c2.1-2.5,2-6.6,2.3-9.7c0.2-2.5,0.4-5,0.6-7.6c0.3-5,0.3-10.1-0.1-15.1
					c-0.5-0.2-1.1-0.3-1.6-0.2c0.1,0.1,0.2,0.3,0.2,0.6c-0.2,4.9-0.5,9.7-0.7,14.6c-0.1,2.3-0.2,4.6-0.3,6.8
					c-0.1,2.6-0.4,4.9-2.6,6.6c-2.3,1.7-5.3,1.8-8.1,1.8c0,0,0,0-0.1,0c0,0.4,0,0.7-0.1,1.1c-0.1,1.4-0.1,2.8-0.2,4.2
					c1.9-0.2,3.7-0.5,5.6-0.9C133.1,363.2,135.1,362.8,136.4,361.3z M138.2,343.2c0.5,0,0.8,0.4,0.8,0.8c0,0.4-0.3,0.8-0.8,0.8
					c-0.6,0-0.8-0.5-0.8-0.9C137.5,343.6,137.7,343.2,138.2,343.2z M135,357.2c0.1-0.1,0.1-0.1,0.2-0.2c0.3-0.3,0.8-0.3,1.2,0
					c0.3,0.3,0.3,0.9,0,1.2c-0.1,0.1-0.1,0.1-0.2,0.2c-0.3,0.3-0.8,0.3-1.2,0C134.6,358.1,134.7,357.5,135,357.2z M130.4,361.8
					c0-0.1,0-0.1,0-0.2c0-0.5,0.4-0.8,0.8-0.8c0.5,0,0.8,0.4,0.8,0.8c0,0.1,0,0.1,0,0.2c0,0.5-0.4,0.8-0.8,0.8
					C130.8,362.7,130.4,362.2,130.4,361.8z"/>
				<path id="XMLID_8165_" d="M134.2,340.4c0.5,0,0.8-0.4,0.8-0.8c0-0.4-0.3-0.8-0.8-0.8c-0.5,0-0.8,0.4-0.8,0.8
					C133.4,340,133.7,340.4,134.2,340.4z"/>
				<path id="XMLID_8160_" class="st40" d="M126,357.5c2.7,0,6,0,7.9-2.2c1.7-2,1.2-5.9,1.3-8.3c0.1-2.4,0.2-4.9,0.4-7.3
					c0.2-3.4,0.3-6.8,0.5-10.2c-0.2,0.1-0.4,0.2-0.5,0.4c-2.4,2.1-2.4,5.7-2.6,8.6c0,0.4,0,0.8-0.1,1.2c-0.1,2.7-0.2,5.5-0.6,8.2
					c-0.4,2.2-1.3,4.3-3.4,5.4c-1,0.5-2,0.7-3,0.6C126.1,354.9,126.1,356.2,126,357.5z M134.2,338.7c0.5,0,0.8,0.4,0.8,0.8
					c0,0.4-0.3,0.8-0.8,0.8c-0.5,0-0.8-0.4-0.8-0.8C133.4,339.1,133.7,338.7,134.2,338.7z M133.1,349.3c1.1,0,1.1,1.7,0,1.7
					C132,350.9,132,349.3,133.1,349.3z M128.5,354.8c0-0.5,0.4-0.8,0.8-0.8c0.5,0,0.8,0.4,0.8,0.8c0,0.1,0,0.2,0,0.3
					c0,0.5-0.4,0.8-0.8,0.8c-0.5,0-0.8-0.4-0.8-0.8C128.5,355,128.5,354.9,128.5,354.8z"/>
				<path id="XMLID_8159_" d="M133.1,350.9c1.1,0,1.1-1.7,0-1.7C132,349.3,132,350.9,133.1,350.9z"/>
				<path id="XMLID_8158_" d="M132.1,361.8c0-0.1,0-0.1,0-0.2c0-0.4-0.4-0.9-0.8-0.8c-0.5,0-0.8,0.4-0.8,0.8c0,0.1,0,0.1,0,0.2
					c0,0.4,0.4,0.9,0.8,0.8C131.7,362.6,132.1,362.3,132.1,361.8z"/>
				<path id="XMLID_8157_" d="M130.7,367.5c0.1,0,0.1,0,0.2,0c0.4,0,0.9-0.4,0.8-0.8c0-0.5-0.4-0.8-0.8-0.8c-0.1,0-0.1,0-0.2,0
					c-0.4,0-0.9,0.4-0.8,0.8C129.9,367.1,130.3,367.5,130.7,367.5z"/>
				<path id="XMLID_8153_" class="st40" d="M134.1,368.5c3.4-1,5.5-3.5,6.6-6.8c0.9-2.6,1.2-5.4,1.5-8.2c0-0.3,0.1-0.5,0.1-0.8
					c-0.1,0.1-0.3,0.1-0.5,0.1c-0.6,0-0.9-0.5-0.8-1c0.1-0.4,0.3-0.7,0.8-0.7c0.3,0,0.5,0.1,0.6,0.3c0.3-2.8,0.6-5.6,0.7-8.3
					c0.1-2,0.2-4.1,0.1-6.1c-0.1,0.3-0.4,0.5-0.7,0.5c-0.5,0-0.8-0.4-0.8-0.8c0-0.4,0.3-0.8,0.8-0.8c0.3,0,0.5,0.1,0.7,0.3
					c-0.1-1-0.2-1.9-0.5-2.9c-0.3-1.1-0.9-2.2-1.7-3.1c0.2,2.1,0.2,4.3,0.2,6.4c0,5.1-0.3,10.2-0.8,15.2c-0.1,1.2-0.3,2.5-0.4,3.7
					c-0.4,2.9-0.9,6.2-3.5,7.9c-1.6,1.1-3.5,1.4-5.3,1.7c-1.8,0.3-3.6,0.6-5.5,0.8c0,0.9-0.1,1.8-0.1,2.7
					C128.4,369.1,131.3,369.3,134.1,368.5z M137.1,363.5c0.1,0,0.1,0,0.2,0c0.5,0,0.8,0.4,0.8,0.8c0,0.5-0.4,0.8-0.8,0.8
					c-0.1,0-0.1,0-0.2,0c-0.5,0-0.8-0.4-0.8-0.8C136.2,363.9,136.6,363.5,137.1,363.5z M130.7,365.8c0.1,0,0.1,0,0.2,0
					c0.5,0,0.8,0.4,0.8,0.8c0,0.5-0.4,0.8-0.8,0.8c-0.1,0-0.1,0-0.2,0c-0.5,0-0.8-0.4-0.8-0.8C129.9,366.2,130.3,365.8,130.7,365.8z
					"/>
				<path id="XMLID_8152_" d="M129.4,355.9c0.5,0,0.8-0.4,0.8-0.8c0-0.1,0-0.2,0-0.3c0-0.4-0.4-0.9-0.8-0.8c-0.5,0-0.8,0.4-0.8,0.8
					c0,0.1,0,0.2,0,0.3C128.5,355.6,128.9,356,129.4,355.9z"/>
				<path id="XMLID_8144_" class="st40" d="M122.8,389.4c0.5-6.5,0.8-12.9,1-19.4c-0.3-0.4-0.2-0.9,0.1-1.2c0.1-2.4,0.2-4.9,0.3-7.3
					c0.1-2.6,0.8-6.2-0.3-8.7c-0.1-0.1-0.1-0.1-0.2-0.1c-0.2-0.2-0.3-0.4-0.3-0.6c0-0.1,0-0.2,0-0.3c0.3-9,0.6-17.9,1-26.9
					c0.2-6,0.4-15.6-6.4-18c2.6,3.4,2.7,8.5,2.7,12.6c0,6.4-0.7,12.9-1.1,19.3c-0.4,6.6-0.8,13.2-1.1,19.9
					c-0.5,10.9-0.9,21.7-1.2,32.6h5.5c0-0.3,0.1-0.6,0.1-0.9C122.6,390.1,122.6,389.7,122.8,389.4z M122.9,319.2
					c1.1,0,1.1,1.7,0,1.7C121.8,320.8,121.8,319.2,122.9,319.2z M122.2,333.4c1.1,0,1.1,1.7,0,1.7
					C121.1,335,121.1,333.4,122.2,333.4z M120,384.2c-0.1,0-0.1,0-0.2,0c-0.5,0-0.8-0.4-0.8-0.8c0-0.5,0.4-0.8,0.8-0.8
					c0.1,0,0.1,0,0.2,0c0.5,0,0.8,0.4,0.8,0.8C120.9,383.8,120.5,384.2,120,384.2z M121.2,373.3c-1.1,0-1.1-1.7,0-1.7
					C122.3,371.7,122.3,373.3,121.2,373.3z M122.4,359.6c0,0.5-0.4,0.8-0.8,0.8c-0.5,0-0.8-0.4-0.8-0.8c0-0.1,0-0.2,0-0.3
					c0-0.5,0.4-0.8,0.8-0.8c0.5,0,0.8,0.4,0.8,0.8C122.4,359.4,122.4,359.5,122.4,359.6z M122.5,344.2c0,0.5-0.4,0.8-0.8,0.8
					c-0.5,0-0.8-0.4-0.8-0.8c0-0.1,0-0.1,0-0.2c0-0.5,0.4-0.8,0.8-0.8c0.5,0,0.8,0.4,0.8,0.8C122.5,344.1,122.5,344.2,122.5,344.2z"
					/>
				<path id="XMLID_8143_" d="M122.9,320.8c1.1,0,1.1-1.7,0-1.7C121.8,319.2,121.8,320.8,122.9,320.8z"/>
				<path id="XMLID_8142_" d="M121.7,343.2c-0.5,0-0.8,0.4-0.8,0.8c0,0.1,0,0.1,0,0.2c0,0.4,0.4,0.9,0.8,0.8c0.5,0,0.8-0.4,0.8-0.8
					c0-0.1,0-0.1,0-0.2C122.5,343.6,122.1,343.2,121.7,343.2z"/>
				<path id="XMLID_8141_" d="M121.5,358.5c-0.5,0-0.8,0.4-0.8,0.8c0,0.1,0,0.2,0,0.3c0,0.4,0.4,0.9,0.8,0.8c0.5,0,0.8-0.4,0.8-0.8
					c0-0.1,0-0.2,0-0.3C122.4,358.9,122,358.4,121.5,358.5z"/>
				<path id="XMLID_8140_" d="M122.2,335c1.1,0,1.1-1.7,0-1.7C121.1,333.4,121.1,335,122.2,335z"/>
				<path id="XMLID_8139_" d="M121.2,371.7c-1.1,0-1.1,1.7,0,1.7C122.3,373.3,122.3,371.7,121.2,371.7z"/>
				<path id="XMLID_8138_" d="M120,382.5c-0.1,0-0.1,0-0.2,0c-0.4,0-0.9,0.4-0.8,0.8c0,0.5,0.4,0.8,0.8,0.8c0.1,0,0.1,0,0.2,0
					c0.4,0,0.9-0.4,0.8-0.8C120.8,382.9,120.5,382.5,120,382.5z"/>
				<path id="XMLID_8137_" d="M116,313.8c1.1,0,1.1-1.7,0-1.7C114.9,312.1,114.9,313.8,116,313.8z"/>
				<path id="XMLID_8128_" class="st40" d="M116,376.5c0,0,0-0.1,0-0.1c0.5-12.3,1-24.7,1.8-37c0.4-6.1,1-12.2,1.2-18.3
					c0.1-4.3,0.4-10.9-3.2-14.1c-0.1,0.1-0.2,0.2-0.3,0.3c-2.3,1.5-1.6,6.1-1.8,8.4c-0.2,3.3-0.3,6.5-0.5,9.8
					c-0.6,11.6-1.2,23.2-0.8,34.9c0.2,5.3,0.4,10.7,0.5,16c0.1,4.3,0.1,8.5-0.1,12.7c0,0.7-0.1,1.4-0.1,2.1h2.8c0-0.7,0-1.3,0.1-2
					C115.7,385,115.9,380.7,116,376.5z M116,312.1c1.1,0,1.1,1.7,0,1.7C114.9,313.8,114.9,312.1,116,312.1z M115.8,324
					c1.1,0,1.1,1.7,0,1.7C114.8,325.7,114.8,324,115.8,324z M115.2,338.9c1.1,0,1.1,1.7,0,1.7C114.1,340.6,114.1,338.9,115.2,338.9z
					 M114.4,352.4c0.3-0.3,0.9-0.3,1.2,0c0.1,0.1,0.1,0.1,0.2,0.2c0.3,0.3,0.3,0.8,0,1.2c-0.3,0.3-0.9,0.3-1.2,0
					c-0.1-0.1-0.1-0.1-0.2-0.2C114.1,353.2,114.1,352.7,114.4,352.4z M114.2,364.6c1.1,0,1.1,1.7,0,1.7
					C113.1,366.3,113.1,364.6,114.2,364.6z M113.7,376.2c0-0.5,0.4-0.8,0.8-0.8c0.5,0,0.8,0.4,0.8,0.8c0,0.1,0,0.1,0,0.2
					c0,0.5-0.4,0.8-0.8,0.8c-0.5,0-0.8-0.4-0.8-0.8C113.7,376.3,113.7,376.2,113.7,376.2z M114.5,390.1c-0.6,0-0.8-0.5-0.8-0.9
					c0-0.4,0.3-0.8,0.8-0.8c0.5,0,0.8,0.4,0.8,0.8C115.3,389.6,115,390.1,114.5,390.1z"/>
				<path id="XMLID_8127_" d="M115.8,325.7c1.1,0,1.1-1.7,0-1.7C114.8,324,114.8,325.7,115.8,325.7z"/>
				<path id="XMLID_8113_" d="M114.6,353.7c0.3,0.3,0.9,0.3,1.2,0c0.3-0.3,0.3-0.9,0-1.2c-0.1-0.1-0.1-0.1-0.2-0.2
					c-0.3-0.3-0.9-0.3-1.2,0c-0.3,0.3-0.3,0.8,0,1.2C114.5,353.6,114.5,353.6,114.6,353.7z"/>
				<path id="XMLID_8112_" d="M114.5,377.2c0.5,0,0.8-0.4,0.8-0.8c0-0.1,0-0.1,0-0.2c0-0.4-0.4-0.9-0.8-0.8c-0.5,0-0.8,0.4-0.8,0.8
					c0,0.1,0,0.1,0,0.2C113.7,376.8,114,377.2,114.5,377.2z"/>
				<path id="XMLID_8111_" d="M115.2,340.6c1.1,0,1.1-1.7,0-1.7C114.1,338.9,114.1,340.6,115.2,340.6z"/>
				<path id="XMLID_8109_" d="M114.2,366.3c1.1,0,1.1-1.7,0-1.7C113.1,364.6,113.1,366.3,114.2,366.3z"/>
				<path id="XMLID_8108_" d="M110.3,313.5c0.1,0,0.2,0,0.3,0c0.4,0,0.8-0.3,0.8-0.7c0,0,0-0.1,0-0.1c0-0.5-0.4-0.8-0.8-0.8
					c-0.1,0-0.2,0-0.3,0c-0.4,0-0.8,0.3-0.8,0.7c0,0,0,0.1,0,0.1C109.5,313.1,109.8,313.5,110.3,313.5z"/>
				<path id="XMLID_8100_" class="st40" d="M111.3,376.7c0-0.7,0-1.5,0-2.2c-0.1-5.3-0.3-10.6-0.4-15.9c-0.1-6.8-0.2-13.7,0.2-20.5
					c0-0.2,0-0.3,0-0.5c0.1-3.1,0.3-6.3,0.4-9.4c0.1-3.1,0.3-6.2,0.4-9.2c0.1-2,0.1-4.1,0.2-6.2c0.1-0.9,0.1-1.8,0.2-2.6
					c0.2-1.5,0.6-2.8,1.6-3.8c-3,0.4-4.4,3-5,6.1c-0.6,3-0.5,6.4-0.5,8.8c0,2.3,0,4.6,0,7c0,3.3,0,6.6,0,9.9c0,6.9,0,13.7,0,20.6
					c0,3.2,0,6.4,0,9.6c0.3,0.1,0.6,0.3,0.6,0.8c-0.1,2.5-0.2,5.1-0.3,7.6c0,1,0,2-0.1,3.1c0,0.8,0,1.6,0,2.4c0.1,0.2,0.1,0.4,0,0.6
					c0,0.8,0,1.7,0,2.5c0,0.9,0.1,1.8-0.1,2.6c0,0.8,0.1,1.7,0.1,2.5c0,0.3,0,0.6,0,1h2.3c0-0.3,0-0.6,0.1-1
					C111.3,385.7,111.4,381.2,111.3,376.7z M110.3,311.8c0.1,0,0.2,0,0.3,0c0.5,0,0.8,0.4,0.8,0.8c0,0,0,0.1,0,0.1
					c0,0.4-0.4,0.7-0.8,0.7c-0.1,0-0.2,0-0.3,0c-0.5,0-0.8-0.4-0.8-0.8c0,0,0-0.1,0-0.1C109.5,312.1,109.9,311.8,110.3,311.8z
					 M109.5,327.9c0-0.5,0.4-0.8,0.8-0.8c0.5,0,0.8,0.4,0.8,0.8c0,0.1,0,0.2,0,0.3c0,0.5-0.4,0.8-0.8,0.8c-0.5,0-0.8-0.4-0.8-0.8
					C109.5,328.1,109.5,328,109.5,327.9z M109.8,337.2C109.9,337.2,109.9,337.2,109.8,337.2c0.1,0,0.1,0,0.1,0
					c0.5,0,0.8,0.4,0.8,0.8c0,0,0,0,0,0c0,0.5-0.4,0.9-0.9,0.9c-0.5,0-0.9-0.4-0.9-0.9C109,337.6,109.4,337.2,109.8,337.2z
					 M108.8,358.6c0-0.4,0.3-0.8,0.8-0.8c0.5,0,0.8,0.4,0.8,0.8c0,0.4-0.3,0.8-0.8,0.8C109.1,359.5,108.8,359,108.8,358.6z
					 M109.8,375.8c0.5,0,0.8,0.4,0.8,0.8c0,0.1,0,0.1,0,0.2c0,0.5-0.4,0.8-0.8,0.8c-0.5,0-0.8-0.4-0.8-0.8c0-0.1,0-0.1,0-0.2
					c0,0,0-0.1,0-0.1C109,376.2,109.4,375.9,109.8,375.8z M110.1,391.1c-0.5,0-0.8-0.4-0.8-0.8c0-0.4,0.3-0.8,0.8-0.8
					c0.5,0,0.8,0.4,0.8,0.8C111,390.6,110.7,391.1,110.1,391.1z"/>
				<path id="XMLID_8099_" d="M110.3,329c0.5,0,0.8-0.4,0.8-0.8c0-0.1,0-0.2,0-0.3c0-0.4-0.4-0.9-0.8-0.8c-0.5,0-0.8,0.4-0.8,0.8
					c0,0.1,0,0.2,0,0.3C109.5,328.6,109.9,329,110.3,329z"/>
				<path id="XMLID_8098_" d="M109,376.9c0,0.4,0.4,0.9,0.8,0.8c0.5,0,0.8-0.4,0.8-0.8c0-0.1,0-0.1,0-0.2c0-0.4-0.4-0.9-0.8-0.8
					c-0.4,0-0.8,0.3-0.8,0.7c0,0,0,0.1,0,0.1C109,376.7,109,376.8,109,376.9z"/>
				<path id="XMLID_8095_" d="M109.9,339c0.5,0,0.9-0.4,0.9-0.9c0,0,0,0,0,0c0-0.4-0.4-0.9-0.8-0.8c0,0,0,0-0.1,0c0,0,0,0-0.1,0
					c-0.4,0-0.9,0.4-0.8,0.8C109,338.5,109.4,339,109.9,339z M110.6,337.7C110.6,337.7,110.6,337.7,110.6,337.7
					C110.6,337.7,110.6,337.7,110.6,337.7C110.6,337.7,110.6,337.7,110.6,337.7z"/>
				<path id="XMLID_8094_" d="M109.6,359.5c0.5,0,0.8-0.4,0.8-0.8c0-0.4-0.3-0.8-0.8-0.8c-0.5,0-0.8,0.4-0.8,0.8
					C108.8,359,109.1,359.5,109.6,359.5z"/>
				<path id="XMLID_8086_" d="M125.4,371.3c0-0.1,0.1-0.2,0.1-0.3c0-0.2,0-0.3,0-0.5c5.3,0.5,11.1,0.5,14.7-4.1
					c3.5-4.6,3.6-11.5,4.1-17c0.4-3.9,0.6-7.8,0.5-11.7c-0.1-2.7-0.3-5.7-2-7.9c-1.5-2-4-3.2-6.5-2.3c-2.3,0.8-3.8,3.1-4.4,5.4
					c-1,3.8-0.8,8-1,11.9c-0.1,1.9-0.2,3.9-1.3,5.5c-0.9,1.4-2.9,2.5-4.5,1.5c0-0.1-0.1-0.1-0.1-0.2c0,0,0,0,0-0.1
					c0.3-8.9,0.6-17.7,0.9-26.6c0.2-6.7,0.3-15.9-6.8-19.3c-2.7-1.3-6.1-1.3-8.5,0.5c-2.3,1.7-3.2,4.5-3.6,7.3
					c-0.5,3.8-0.2,7.7-0.2,11.5c0,4.6,0,9.3,0,13.9c0,9.9,0,19.8,0,29.8c-3.9,2.1-6.5-2.8-6.6-6.1c-0.1-3.9,1-7.9,1.2-11.8
					c0.2-2.8,0.4-6.1-2.2-7.9c-2.1-1.4-5.6-2-7.9-0.8c-2.2,1.2-3.1,3.8-3.5,6.1c-0.6,3.5-0.9,7.1-1.2,10.6
					c-0.6,6.4-1.8,14.1,1.3,20.1c3.7,6.9,11.9,8.3,19,8.6c0,0.2,0,0.4,0,0.5c0,0.1,0,0.1-0.1,0.2c-0.1,0.3-0.1,0.6,0.1,0.9
					c0,0,0,0.1,0,0.1c-0.2-0.1-0.4-0.2-0.7-0.1c-1.8,0.4-5.6,1-8.2,2.5h4.7c1.3-0.4,2.7-0.6,3.9-0.9c0.1,0,0.2-0.1,0.3-0.1
					c0,0.3,0,0.7,0,1h1.7c0-0.3,0-0.6,0-1c0-0.8-0.1-1.7-0.1-2.5c0.2-0.8,0.1-1.7,0.1-2.6c0-0.8,0-1.7,0-2.5c0.1-0.2,0.1-0.4,0-0.6
					c0-0.8,0-1.6,0-2.4c0-1,0-2,0.1-3.1c0.1-2.5,0.1-5.1,0.3-7.6c0-0.4-0.2-0.7-0.6-0.8c0-3.2,0-6.4,0-9.6c0-6.9,0-13.7,0-20.6
					c0-3.3,0-6.6,0-9.9c0-2.3,0-4.6,0-7c0-2.4-0.1-5.8,0.5-8.8c0.6-3.1,2-5.7,5-6.1c-1,1-1.5,2.3-1.6,3.8c-0.1,0.9-0.2,1.8-0.2,2.6
					c-0.1,2.1-0.1,4.1-0.2,6.2c-0.1,3.1-0.3,6.2-0.4,9.2c-0.2,3.1-0.3,6.3-0.4,9.4c0,0.2,0,0.3,0,0.5c-0.3,6.9-0.3,13.7-0.2,20.5
					c0.1,5.3,0.3,10.6,0.4,15.9c0,0.7,0,1.5,0,2.2c0.1,4.5,0,9-0.2,13.6c0,0.3,0,0.6-0.1,1h1.7c0-0.7,0.1-1.4,0.1-2.1
					c0.2-4.2,0.2-8.5,0.1-12.7c-0.1-5.3-0.3-10.7-0.5-16c-0.4-11.7,0.3-23.2,0.8-34.9c0.2-3.3,0.3-6.5,0.5-9.8
					c0.1-2.3-0.5-6.9,1.8-8.4c0.1-0.1,0.2-0.2,0.3-0.3c3.6,3.2,3.3,9.8,3.2,14.1c-0.1,6.1-0.8,12.2-1.2,18.3
					c-0.8,12.3-1.3,24.6-1.8,37c0,0,0,0.1,0,0.1c-0.2,4.2-0.3,8.5-0.5,12.7c0,0.7,0,1.3-0.1,2h1.7c0.4-10.9,0.8-21.7,1.2-32.6
					c0.3-6.6,0.7-13.3,1.1-19.9c0.4-6.4,1.2-12.9,1.1-19.3c0-4.1-0.1-9.2-2.7-12.6c6.8,2.4,6.6,12.1,6.4,18c-0.3,9-0.6,17.9-1,26.9
					c0,0.1,0,0.2,0,0.3c0,0.2,0.1,0.4,0.3,0.6c0.1,0.1,0.1,0.1,0.2,0.1c1.1,2.5,0.4,6.1,0.3,8.7c-0.1,2.4-0.2,4.9-0.3,7.3
					c-0.3,0.3-0.4,0.8-0.1,1.2c-0.2,6.5-0.5,13-1,19.4c-0.2,0.3-0.2,0.6-0.1,0.9c0,0.3,0,0.6-0.1,0.9h1.7c0-0.1,0-0.3,0-0.4
					c0.6,0.1,1.3,0.2,1.9,0.4h5.9c-2.5-0.9-5.1-1.6-7.7-2.1C124.9,383.2,125.3,377.2,125.4,371.3z M128.9,353.1c2-1.1,3-3.2,3.4-5.4
					c0.5-2.7,0.5-5.4,0.6-8.2c0-0.4,0-0.8,0.1-1.2c0.2-2.9,0.2-6.5,2.6-8.6c0.2-0.2,0.4-0.3,0.5-0.4c-0.2,3.4-0.3,6.8-0.5,10.2
					c-0.1,2.4-0.2,4.9-0.4,7.3c-0.1,2.5,0.4,6.3-1.3,8.3c-1.9,2.3-5.2,2.3-7.9,2.2c0.1-1.3,0.1-2.6-0.2-3.8
					C126.8,353.8,127.9,353.6,128.9,353.1z M125.9,360.2c0-0.4,0-0.7,0.1-1.1c0,0,0,0,0.1,0c2.8,0,5.8,0,8.1-1.8
					c2.2-1.7,2.5-4,2.6-6.6c0.1-2.3,0.2-4.6,0.3-6.8c0.2-4.9,0.5-9.7,0.7-14.6c0-0.2-0.1-0.4-0.2-0.6c0.6-0.1,1.1,0,1.6,0.2
					c0.4,5,0.4,10,0.1,15.1c-0.1,2.5-0.3,5.1-0.6,7.6c-0.3,3.1-0.2,7.2-2.3,9.7c-1.3,1.5-3.3,1.8-5.1,2.2c-1.8,0.4-3.7,0.6-5.6,0.9
					C125.8,363,125.8,361.6,125.9,360.2z M125.6,366.1c1.8-0.2,3.7-0.5,5.5-0.8c1.8-0.3,3.8-0.7,5.3-1.7c2.6-1.8,3.1-5.1,3.5-7.9
					c0.2-1.2,0.3-2.5,0.4-3.7c0.5-5,0.8-10.1,0.8-15.2c0-2.2-0.1-4.3-0.2-6.4c0.8,0.9,1.4,2,1.7,3.1c0.2,0.9,0.4,1.9,0.5,2.9
					c-0.1-0.2-0.3-0.3-0.7-0.3c-0.5,0-0.8,0.4-0.8,0.8c0,0.4,0.3,0.8,0.8,0.8c0.4,0,0.6-0.2,0.7-0.5c0.1,2,0,4.1-0.1,6.1
					c-0.1,2.8-0.4,5.6-0.7,8.3c-0.1-0.2-0.3-0.3-0.6-0.3c-0.5,0-0.7,0.3-0.8,0.7c-0.1,0.5,0.2,1,0.8,1c0.2,0,0.3-0.1,0.5-0.1
					c0,0.3-0.1,0.5-0.1,0.8c-0.3,2.7-0.6,5.5-1.5,8.2c-1.1,3.2-3.2,5.8-6.6,6.8c-2.8,0.8-5.7,0.6-8.5,0.3
					C125.6,367.9,125.6,367,125.6,366.1z M107.1,385.5c-6.4-0.3-14.2-1.3-17.7-7.5c-2.2-3.9-2.2-8.6-1.8-13.2c0.2-2,0.4-4,0.6-5.9
					c0.3-3,0.5-6.1,0.9-9.1c0.1-0.5,0.2-0.9,0.2-1.4c0.5-2.6,1.5-5.2,4.3-5.4c0,0,0,0.1,0,0.1c-0.5,2.4-1,4.8-1.4,7.2
					c-0.4,2.2-0.7,4.5-1,6.7c-0.3,2.6-0.7,5.3-0.9,8c-0.1,1.9-0.1,3.8,0.2,5.7c0.4,3.4,1.9,6.8,4.8,8.8c1.6,1.1,3.3,1.4,5.2,1.7
					c2.3,0.4,4.4,1,6.5,1.9C107,383.7,107.1,384.6,107.1,385.5C107.1,385.5,107.1,385.5,107.1,385.5z M107.1,375
					c-2.9,0.2-6,0.3-8.5-1.4c-2.8-2-2.2-5.6-2.1-8.7c0.2-6.7,0.8-13.5,1.9-20.1c0.1-0.4-0.1-0.7-0.4-0.9c-0.4-0.3-1.1-0.2-1.2,0.5
					c-0.9,5.3-1.5,10.7-1.8,16.1c-0.2,2.6-0.2,5.2-0.2,7.8c0,1.8,0.2,3.4,1,4.7c0.5,0.8,1.1,1.5,2,2.1c2.7,1.9,6.1,1.9,9.3,1.7
					c0,0.5,0,1.1,0,1.6c0,0.9,0,1.9,0,2.8c-1.3-0.5-2.5-0.9-3.8-1.2c-1.9-0.5-4-0.5-5.8-1.3c-2-0.9-3.4-2.6-4.2-4.6
					c-0.7-1.6-1-3.3-1.1-4.9c-0.2-3,0.1-6,0.4-9c0.1-1.1,0.3-2.2,0.4-3.2c0.6-4.5,1.4-9,2.4-13.4c0-0.2,0-0.4,0-0.5
					c0.9,0.1,2,0.4,2.8,0.9c0.3,0.2,0.6,0.4,0.9,0.7c1.3,1.5,1,3.9,0.9,5.7c-0.2,3.6-1,7-1.2,10.6c-0.2,2.9,0.3,6.1,2.5,8.2
					c1.7,1.6,4.2,2,6.2,1.1C107.2,371.8,107.1,373.4,107.1,375z"/>
				<path id="XMLID_8085_" d="M106,379.7c1.1,0,1.1-1.7,0-1.7C104.9,378,104.9,379.7,106,379.7z"/>
				<path id="XMLID_8084_" d="M101.6,371.3c-0.2-0.1-0.6-0.2-0.8-0.1c-0.4,0.2-0.7,0.6-0.6,1c0.1,0.3,0.4,0.5,0.7,0.6
					c0.2,0.1,0.4,0.2,0.7,0.1c0.4-0.1,0.7-0.6,0.6-1C102,371.7,101.8,371.4,101.6,371.3z"/>
				<path id="XMLID_8083_" d="M99.4,382.7c-1.1,0-1.1,1.7,0,1.7C100.5,384.4,100.5,382.7,99.4,382.7z"/>
				<path id="XMLID_8082_" d="M98.6,367.7c-0.5,0-0.8,0.4-0.8,0.8c0,0.1,0,0.1,0,0.2c0,0.4,0.4,0.9,0.8,0.8c0.5,0,0.8-0.4,0.8-0.8
					c0-0.1,0-0.1,0-0.2C99.4,368.1,99.1,367.6,98.6,367.7z"/>
				<path id="XMLID_8062_" class="st40" d="M101.1,369c-2.2-2.1-2.7-5.3-2.5-8.2c0.3-3.6,1-7,1.2-10.6c0.1-1.8,0.5-4.2-0.9-5.7
					c-0.3-0.3-0.6-0.5-0.9-0.7c-0.8-0.5-1.8-0.8-2.8-0.9c0.1,0.1,0.1,0.3,0,0.5c-1,4.4-1.8,8.9-2.4,13.4c-0.1,1.1-0.3,2.1-0.4,3.2
					c-0.4,3-0.6,6-0.4,9c0.1,1.6,0.4,3.3,1.1,4.9c0.8,2,2.2,3.7,4.2,4.6c1.8,0.8,3.9,0.8,5.8,1.3c1.3,0.3,2.6,0.7,3.8,1.2
					c0-0.9,0-1.9,0-2.8c0-0.5,0-1.1,0-1.6c-3.2,0.2-6.6,0.2-9.3-1.7c-0.9-0.6-1.5-1.3-2-2.1c-0.8-1.4-1-2.9-1-4.7
					c0-2.6,0.1-5.2,0.2-7.8c0.3-5.4,0.9-10.7,1.8-16.1c0.1-0.6,0.7-0.7,1.2-0.5c0.3,0.2,0.5,0.5,0.4,0.9c-1.1,6.7-1.7,13.4-1.9,20.1
					c-0.1,3.1-0.7,6.6,2.1,8.7c2.4,1.8,5.6,1.6,8.5,1.4c0-1.6,0.1-3.3,0.2-4.9C105.2,371,102.8,370.6,101.1,369z M106,378
					c1.1,0,1.1,1.7,0,1.7C104.9,379.7,104.9,378,106,378z M95.3,373c0.1,0.1,0.1,0.2,0.1,0.4c0,0.1,0,0.1,0,0.2
					c0,0.5-0.4,0.8-0.8,0.8c-0.4,0-0.7-0.3-0.8-0.6c0-0.1,0-0.2,0-0.2c0-0.1,0-0.1,0-0.2c0-0.5,0.4-0.8,0.8-0.8
					C94.9,372.5,95.2,372.7,95.3,373z M93.6,361.1c-0.6,0-0.9-0.5-0.8-1c0.1-0.4,0.3-0.7,0.8-0.7c0.6,0,0.8,0.5,0.8,0.9
					C94.4,360.8,94.1,361.1,93.6,361.1z M99.4,368.7c0,0.5-0.4,0.8-0.8,0.8c-0.5,0-0.8-0.4-0.8-0.8c0-0.1,0-0.1,0-0.2
					c0-0.5,0.4-0.8,0.8-0.8c0.5,0,0.8,0.4,0.8,0.8C99.4,368.5,99.4,368.6,99.4,368.7z M101.5,373c-0.3,0.1-0.5,0-0.7-0.1
					c-0.3-0.1-0.6-0.3-0.7-0.6c-0.1-0.5,0.2-0.9,0.6-1c0.3-0.1,0.6-0.1,0.8,0.1c0.3,0.1,0.4,0.4,0.5,0.7
					C102.3,372.4,101.9,372.8,101.5,373z"/>
				<path id="XMLID_8061_" d="M93.8,373.3c0,0.1,0,0.1,0,0.2c0,0.1,0,0.2,0,0.2c0.1,0.3,0.4,0.6,0.8,0.6c0.5,0,0.8-0.4,0.8-0.8
					c0-0.1,0-0.1,0-0.2c0-0.1,0-0.3-0.1-0.4c-0.1-0.3-0.4-0.5-0.7-0.5C94.1,372.5,93.8,372.9,93.8,373.3z"/>
				<path id="XMLID_8055_" class="st40" d="M100.5,381.1c-1.8-0.3-3.6-0.6-5.2-1.7c-2.9-2-4.3-5.4-4.8-8.8c-0.2-1.9-0.3-3.8-0.2-5.7
					c0.1-2.7,0.5-5.4,0.9-8c0.3-2.2,0.6-4.5,1-6.7c0.4-2.4,0.9-4.8,1.4-7.2c0,0,0-0.1,0-0.1c-2.7,0.3-3.8,2.8-4.3,5.4
					c-0.1,0.5-0.2,0.9-0.2,1.4c-0.5,3-0.7,6.1-0.9,9.1c-0.2,1.9-0.4,3.9-0.6,5.9c-0.4,4.6-0.3,9.4,1.8,13.2
					c3.5,6.2,11.2,7.3,17.7,7.5c0,0,0,0,0,0c0-0.9-0.1-1.8-0.1-2.6C104.9,382.1,102.7,381.5,100.5,381.1z M90.4,349.1
					c0.1,0,0.1,0,0.2,0c0.5,0,0.8,0.4,0.8,0.8c0,0,0,0.1,0,0.1c0,0.4-0.4,0.7-0.8,0.7c-0.1,0-0.1,0-0.2,0c-0.5,0-0.8-0.4-0.8-0.8
					c0,0,0-0.1,0-0.1C89.6,349.4,90,349.1,90.4,349.1z M88.6,365.6c-0.6,0-0.8-0.5-0.8-0.9c0-0.4,0.3-0.8,0.8-0.8
					c0.5,0,0.8,0.4,0.8,0.8C89.4,365.2,89.1,365.6,88.6,365.6z M93.8,380.5c-0.1,0-0.1,0-0.2,0c-0.5,0-0.8-0.4-0.8-0.8
					c0-0.5,0.4-0.8,0.8-0.8c0.1,0,0.1,0,0.2,0c0.5,0,0.8,0.4,0.8,0.8C94.6,380.1,94.2,380.5,93.8,380.5z M99.4,384.4
					c-1.1,0-1.1-1.7,0-1.7C100.5,382.7,100.5,384.4,99.4,384.4z"/>
				<path id="XMLID_8054_" d="M93.8,378.9c-0.1,0-0.1,0-0.2,0c-0.4,0-0.9,0.4-0.8,0.8c0,0.5,0.4,0.8,0.8,0.8c0.1,0,0.1,0,0.2,0
					c0.4,0,0.9-0.4,0.8-0.8C94.6,379.2,94.2,378.9,93.8,378.9z"/>
				<path id="XMLID_8053_" d="M93.6,359.5c-0.5,0-0.7,0.3-0.8,0.7c-0.1,0.5,0.2,1,0.8,1c0.5,0,0.8-0.4,0.8-0.8
					C94.4,359.9,94.2,359.5,93.6,359.5z"/>
				<path id="XMLID_8052_" d="M90.4,350.8c0.1,0,0.1,0,0.2,0c0.4,0,0.8-0.3,0.8-0.7c0,0,0-0.1,0-0.1c0-0.5-0.4-0.8-0.8-0.8
					c-0.1,0-0.1,0-0.2,0c-0.4,0-0.8,0.3-0.8,0.7c0,0,0,0.1,0,0.1C89.6,350.4,89.9,350.8,90.4,350.8z"/>
				<path id="XMLID_8051_" d="M88.6,364c-0.5,0-0.8,0.4-0.8,0.8c0,0.4,0.2,0.9,0.8,0.9c0.5,0,0.8-0.4,0.8-0.8
					C89.4,364.4,89.1,364,88.6,364z"/>
				<path id="XMLID_8050_" d="M80.7,301.7c-0.1-0.7-1.3-0.9-1.5-0.2c-1.5,3.6-1.7,7.9-2.3,11.7c-0.7,4.3-1.4,8.6-2,12.8
					c-0.2,1.1,1.4,1.5,1.6,0.4c0-0.1,0-0.1,0-0.2c1.4,0.1,2.7,0.2,4.1,0.3c0.9,0.1,2.2,0.5,3-0.1c0.7-0.5,0.5-1.3,0.5-2.1
					c-0.1-1.6-0.4-3.2-0.6-4.8C82.7,313.6,81.8,307.6,80.7,301.7z"/>
				<path id="XMLID_8038_" d="M16.9,207c0,8.3,0,16.7,0,25c-1.5,0.7-3.1,0-4.1-1.3c-1-1.5-1.2-3.3-1-5c0.2-3.4,1-6.7,1.1-10.1
					c0.1-2.3-0.5-4.3-2.7-5.4c-1.9-0.9-4.6-1.3-6.4,0c-1.6,1.1-2.3,3.2-2.6,5.1c-0.5,3-0.8,6.1-1,9.1c-0.5,5.2-1.4,11.4,1.2,16.2
					c3.1,5.6,9.8,6.8,15.7,7.1c0,0.1,0,0.1,0,0.2c0,0.1-0.1,0.3-0.1,0.4c-0.1,0.2-0.1,0.3,0,0.4c-0.1,0-0.2,0-0.2,0
					c-2.5,0.5-9.4,1.6-8.9,5.5c-0.1,0.1-0.2,0.3-0.2,0.5c-0.3,2.2-0.2,4.5,0.1,6.7c-0.2,0.3-0.2,0.8,0.2,1c0,0.1,0,0.2,0.1,0.3
					c0.1,0.6,0.9,0.7,1.3,0.4c0.1,0.1,0.3,0.1,0.4,0.2c0.3,5.1,0.9,10.1,2,15c-0.1,0.3,0,0.7,0.4,0.9c8,4.4,18.1,4.1,25.7-0.9
					c0.5-0.3,0.5-1,0.1-1.3c0.3-4.7,0.6-9.4,0.8-14.1c0,0,0,0,0-0.1c0.4-0.2,0.7-0.4,1-0.6c0.4,0.1,0.9,0,1-0.6
					c0.5-2.8,0.8-5.5,0.8-8.3c0-0.4-0.3-0.7-0.6-0.8c-0.2-0.4-0.7-0.8-1.3-1.1c-2.4-1.1-5.1-1.8-7.7-2.2c0.4-4.9,0.6-9.7,0.8-14.6
					c0-0.1,0-0.2,0-0.2c0-0.1,0-0.2,0-0.3c4.2,0.4,9,0.3,11.9-3.2c3.1-3.8,3.2-9.5,3.6-14.1c0.3-3.2,0.5-6.3,0.4-9.5
					c-0.1-2.4-0.2-5-1.7-7.1c-2.7-3.6-7.3-2.4-8.9,1.5c-1.2,2.9-0.9,6.5-1.1,9.5c-0.1,1.5-0.1,3.1-0.6,4.6c-0.5,1.5-2.3,3.5-4,2.5
					c0,0,0-0.1-0.1-0.1c0,0,0,0,0,0c0.3-7.3,0.5-14.5,0.8-21.8c0-1.3,0.1-2.6,0.1-4h-1.7c0,1.6,0,3.1-0.1,4.3
					c-0.1,2.4-0.2,4.9-0.3,7.3c-0.2,4.8-0.3,9.7-0.5,14.5c0,0.1,0,0.2,0,0.2c0,0.2,0.1,0.4,0.3,0.6c0,0,0.1,0.1,0.1,0.1
					c0.9,2.1,0.3,4.9,0.2,7c-0.1,2-0.1,4-0.2,6c-0.3,0.3-0.3,0.7-0.1,1.1c-0.1,5.3-0.4,10.7-0.8,16c-0.1,0.3-0.2,0.6-0.1,0.8
					c-0.1,1.3-0.2,2.6-0.3,4c-0.1,0.1-0.1,0.2-0.1,0.3c-0.5,0.5-1.7,0.7-2.3,0.8c-0.5,0.1-1.1,0.2-1.6,0.2
					c0.5-13.7,0.9-27.5,1.7-41.2c0.2-3.5,0.5-7,0.7-10.5c0.3-3.4,0.5-6.9,0.6-10.3c0-0.4,0-0.8,0-1.1H27c0,1.7-0.1,3.3-0.2,5
					c-0.4,6.6-0.9,13.1-1.3,19.7c-0.2,4.3-0.4,8.6-0.6,12.8c-0.1,3-0.2,6-0.3,9c-0.1,3.4-0.2,6.9-0.4,10.3c-0.1-0.3-0.4-0.5-0.8-0.5
					c-0.5,0-0.8,0.4-0.8,0.8c0,0.4,0.2,0.9,0.8,0.9c0.4,0,0.6-0.2,0.7-0.5c-0.1,1.9-0.1,3.8-0.2,5.8c-0.7,0-1.6-0.1-2.5-0.2
					c0.1-0.1,0.3-0.3,0.3-0.6c0.2-1.8,0.3-3.6,0.4-5.5c0.2-3.5,0.2-7,0.1-10.5c-0.1-3-0.2-6-0.3-9c-0.1-3.9-0.3-7.8-0.3-11.8
					c0-6.2,0.4-12.3,0.7-18.5c0.1-2.4,0.2-4.8,0.3-7.2h-1.7c-0.1,1.1-0.1,2.2-0.2,3.3c0,1-0.1,2-0.2,3c0-0.4-0.4-0.8-0.8-0.8
					c-0.5,0-0.8,0.4-0.8,0.8c0,0.1,0,0.2,0,0.3c0,0.4,0.4,0.9,0.8,0.8c0.4,0,0.7-0.3,0.8-0.6c-0.1,2.5-0.3,5-0.4,7.5
					c-0.2-0.2-0.4-0.4-0.7-0.4c0,0,0,0-0.1,0c0,0,0,0-0.1,0c-0.4,0-0.8,0.3-0.8,0.8c0,0,0,0,0,0.1c0,0.2,0.1,0.5,0.3,0.6
					c0.2,0.2,0.4,0.3,0.6,0.3c0.3,0,0.5-0.1,0.7-0.4c-0.1,2.6-0.2,5.2-0.2,7.7c0,2.8,0,5.6,0.1,8.4c-0.1-0.3-0.4-0.5-0.8-0.5
					c-0.5,0-0.8,0.4-0.8,0.8c0,0.4,0.3,0.8,0.8,0.8c0.4,0,0.7-0.3,0.8-0.6c0.1,4.9,0.3,9.8,0.4,14.7c0.1,3.5,0,7.1-0.1,10.6
					c-0.1-0.2-0.3-0.3-0.6-0.3c-0.5,0-0.8,0.4-0.8,0.8c0,0.4,0.3,0.8,0.8,0.8c0.2,0,0.4-0.1,0.6-0.2c-0.1,1.3-0.2,2.6-0.3,3.9
					c0,0.1,0,0.2,0,0.3c-0.4-0.1-0.9-0.3-1.2-0.5c0-1.4-0.1-2.9-0.1-4.3c0-0.7,0-1.4-0.1-2c0.2-0.9,0.1-1.8,0.1-2.8c0-0.5,0-1,0-1.5
					c0.1-0.2,0.1-0.4,0-0.6c0-0.7,0-1.5,0-2.2c0-0.6,0-1.1,0-1.7c0.1,0.3,0.4,0.5,0.8,0.5c0.5,0,0.8-0.4,0.8-0.8c0,0,0-0.1,0-0.1
					c0,0,0,0,0,0c0-0.4-0.4-0.9-0.8-0.8c-0.3,0-0.6,0.2-0.7,0.5c0.1-2,0.1-4,0.2-6c0-0.4-0.2-0.6-0.5-0.7c0-2.6,0-5.2,0-7.8
					c0-5.7,0-11.4,0-17.1c0-2.7,0-5.4,0-8.1c0-1.8,0-3.6,0-5.4c0-0.4,0-0.8,0-1.2h-1.7c0,1.2,0,2.4,0,3.6
					C16.9,199.4,16.9,203.2,16.9,207z M35.6,219.2c0.9-0.7,1.7-1.7,2.2-2.8c0.1-0.3,0.2-0.6,0.3-0.8c0.6-2.3,0.5-4.9,0.6-7.2
					c0-0.1,0-0.2,0-0.3c0.1-2.5,0-5.7,1.8-7.6c0.2-0.2,0.4-0.3,0.5-0.5c-0.1,2.7-0.3,5.4-0.4,8.1c-0.1,1.9-0.2,3.7-0.3,5.6
					c0,0.9,0,2,0,3.1c0,1.4-0.2,2.7-0.8,3.7c-0.8,1.3-2.2,1.9-3.6,2.1c-1,0.1-2,0.1-2.9,0.1c0-0.9,0-1.9-0.1-2.8
					C33.9,220.1,34.8,219.8,35.6,219.2z M32.9,224.9c0-0.1,0-0.3,0-0.4c2.4,0,4.9-0.1,6.8-1.6c0.2-0.1,0.3-0.3,0.4-0.4
					c1.3-1.3,1.5-3,1.6-4.8c0.1-1.9,0.2-3.8,0.3-5.8c0.2-4.1,0.4-8.1,0.6-12.2c0-0.1,0-0.2,0-0.3c0.3,0,0.6,0.1,0.9,0.2
					c0.3,3.9,0.3,7.9,0.1,11.9c-0.1-0.3-0.4-0.5-0.7-0.5c-0.5,0-0.8,0.4-0.8,0.8c0,0.4,0.3,0.8,0.8,0.8c0.3,0,0.6-0.2,0.7-0.4
					c-0.1,1.9-0.3,3.8-0.4,5.8c-0.2,1.7-0.2,3.7-0.7,5.5c-0.3,1-0.7,1.8-1.3,2.5c-1,1.1-2.5,1.4-3.9,1.7c-1.5,0.3-3,0.5-4.6,0.7
					C32.9,227.3,32.9,226.1,32.9,224.9z M32.8,230.2c1.2-0.1,2.4-0.2,3.7-0.4c-0.3,0.1-0.5,0.4-0.5,0.7c0,0.5,0.4,0.8,0.8,0.8
					c0,0,0.1,0,0.1,0c0.4,0,0.9-0.4,0.8-0.8c0-0.4-0.3-0.8-0.8-0.8c1.5-0.3,3-0.7,4.3-1.4c0,0.1-0.1,0.2-0.1,0.3
					c0,0.5,0.4,0.8,0.8,0.8c0,0,0.1,0,0.1,0c0.2,0,0.4-0.1,0.6-0.2c0.2-0.2,0.3-0.4,0.3-0.6c0-0.5-0.4-0.8-0.8-0.8c0,0-0.1,0-0.1,0
					c0,0,0,0-0.1,0c1.7-1.4,2.2-3.7,2.5-5.9c0.2-1.1,0.3-2.3,0.4-3.5c0.4-4.2,0.7-8.4,0.7-12.6c0-1.6-0.1-3.3-0.2-4.9
					c0.4,0.5,0.8,1.1,1,1.8c0.2,0.8,0.4,1.6,0.5,2.4c-0.1-0.1-0.2-0.1-0.4-0.1c-0.5,0-0.8,0.4-0.8,0.8c0,0.4,0.3,0.8,0.8,0.8
					c0.2,0,0.4-0.1,0.5-0.1c0,1.5-0.1,3-0.1,4.5c-0.1,2.3-0.3,4.6-0.5,6.8c-0.1-0.1-0.2-0.1-0.4-0.1c-0.5,0-0.8,0.4-0.8,0.8
					c0,0.4,0.2,0.9,0.8,0.9c0.1,0,0.1,0,0.2,0c0,0,0,0.1,0,0.1c-0.3,2.3-0.5,4.7-1.3,7c-0.4,1.2-0.9,2.2-1.7,3.1
					c-0.9,1.1-2.2,2-3.7,2.4c-0.8,0.2-1.6,0.4-2.5,0.4c-1.4,0.1-2.9,0-4.3-0.2C32.7,231.5,32.7,230.9,32.8,230.2z M7.6,211.4
					c0-0.1,0-0.2,0-0.3c0.5,0.1,0.9,0.2,1.4,0.4c-0.2,0.1-0.4,0.3-0.4,0.6c-0.7,4.4-1.2,8.8-1.5,13.2c-0.1,2.3-0.2,4.5-0.2,6.8
					c0,1.3,0.2,2.6,0.8,3.6c0.5,0.8,1.1,1.6,2.1,2.2c2.2,1.4,4.8,1.3,7.3,1.2c0,0.4,0,0.8,0,1.2c0,0,0-0.1-0.1-0.1
					c-0.1-0.2-0.4-0.4-0.7-0.4c-1.1,0-1.1,1.7,0,1.7c0.4,0,0.6-0.2,0.7-0.5c0,0.4,0,0.9,0,1.3c-0.9-0.3-1.8-0.7-2.7-0.9
					c-1.6-0.4-3.2-0.5-4.7-1c-1.8-0.7-3-2.1-3.7-3.8c-0.6-1.3-0.8-2.8-0.9-4.2c-0.1-2.4,0.1-4.8,0.4-7.2h0c0.1-0.9,0.2-1.9,0.4-2.8
					C6.2,218.7,6.8,215,7.6,211.4z M11.3,245.3c0.8-0.3,0.7-1.6-0.3-1.6c-0.8,0-1,0.9-0.6,1.4c-2.2-0.6-4.2-1.5-5.7-3
					c-0.7-0.7-1.3-1.5-1.8-2.4c-1.6-3-1.7-6.6-1.5-10.2c0.1,0.2,0.4,0.4,0.7,0.4c0.5,0,0.8-0.4,0.8-0.8c0-0.4-0.2-0.9-0.8-0.9
					c-0.3,0-0.5,0.1-0.6,0.3c0.1-1.5,0.3-3,0.4-4.4c0.2-2.5,0.4-5,0.8-7.4c0-0.3,0.1-0.6,0.1-0.9c0.4-2.2,1.2-4.2,3.2-4.6
					c-0.4,1.9-0.8,3.8-1.1,5.8c-0.3,1.8-0.6,3.7-0.8,5.5c-0.3,2.2-0.6,4.5-0.7,6.7c-0.1,1.6-0.1,3.2,0.2,4.8
					c0.4,2.5,1.4,5.1,3.4,6.7c0.2,0.2,0.4,0.3,0.6,0.5c1.3,0.9,2.8,1.2,4.3,1.5c1.9,0.3,3.6,0.8,5.4,1.5c0,0.1,0,0.1,0,0.2
					c0,0.5,0.1,1.1,0.1,1.7C15.2,245.9,13.2,245.7,11.3,245.3z M10.4,252.4c1.9-1.2,4.5-1.7,6.6-2.2c0,0,0,0,0,0c0,0.2,0,0.5,0,0.7
					C14.7,250.9,12.5,251.5,10.4,252.4C10.4,252.4,10.4,252.4,10.4,252.4z M36.1,277.2c-6.9,4.2-15.7,4.5-22.9,0.7c0,0,0-0.1,0-0.1
					c-1-4.6-1.6-9.2-1.9-13.9c4.2,1.5,8.6,2,13.1,1.8c2.8-0.1,5.7-0.6,8.4-1.2c1.4-0.3,2.8-0.6,4.1-1.1c-0.3,4.6-0.5,9.1-0.8,13.7
					C36.1,277.1,36.1,277.2,36.1,277.2z M39.6,256.5c-0.1,1.3-0.3,2.5-0.5,3.8c0,0,0,0,0,0c-1.8,1.7-4.9,2.1-7.3,2.6
					c-2.6,0.6-5.3,0.9-8,1c-5,0.2-10-0.6-14.5-2.8C9,259.6,8.9,258,9,256.4c0.8,0.7,1.9,1.2,2.7,1.7c1.9,1,4,1.7,6.2,2.1
					c4.3,0.8,8.7,0.6,13.1,0C33.9,259.6,37.5,258.8,39.6,256.5z M31.7,250.7c0.3,0.1,0.6,0.1,0.8,0.2c-0.3,0-0.6,0-0.8,0
					C31.7,250.8,31.7,250.7,31.7,250.7z M17.2,237.3c-2.3,0.1-4.8,0.2-6.8-1.2c-1.3-1-1.7-2.4-1.8-3.9c-0.1-1.1,0.1-2.3,0.1-3.4
					c0.2-5.5,0.7-10.9,1.6-16.4c0-0.1,0-0.2,0-0.3c0.2,0.2,0.4,0.4,0.5,0.6c0.8,1.3,0.4,3.3,0.3,4.7c-0.2,2.9-0.9,5.8-1,8.7
					c-0.1,1.8,0.3,3.8,1.4,5.3c0.3,0.4,0.6,0.8,1,1.1c1.4,1.2,3.3,1.5,4.9,0.9C17.2,234.9,17.2,236.1,17.2,237.3z"/>
				<path id="XMLID_8037_" d="M41.4,223.8c0,0,0.1-0.1,0.1-0.1c0.1-0.1,0.1-0.2,0.2-0.3c0.1-0.3,0.1-0.7-0.2-0.9
					c-0.3-0.3-0.9-0.3-1.2,0c0,0,0,0,0,0c0,0-0.1,0.1-0.1,0.1c-0.3,0.3-0.3,0.9,0,1.2C40.6,224.1,41.1,224.1,41.4,223.8z"/>
				<path id="XMLID_8036_" d="M38.7,217.7c0.5,0,0.8-0.4,0.8-0.8c0-0.4-0.3-0.8-0.8-0.8c-0.4,0-0.6,0.2-0.7,0.5
					C37.8,217,38,217.7,38.7,217.7z"/>
				<path id="XMLID_8032_" d="M3.7,217.6c0.4,0,0.8-0.3,0.8-0.7c0,0,0-0.1,0-0.1c0-0.5-0.4-0.8-0.8-0.8c0,0-0.1,0-0.1,0
					c-0.4,0-0.8,0.3-0.8,0.7c0,0,0,0.1,0,0.1c0,0.5,0.4,0.8,0.8,0.8C3.6,217.6,3.6,217.6,3.7,217.6z"/>
				<path id="XMLID_8031_" d="M39.7,209c0.5,0,0.8-0.4,0.8-0.8c0-0.4-0.3-0.8-0.8-0.8c-0.5,0-0.8,0.4-0.8,0.8
					C38.9,208.5,39.1,209,39.7,209z"/>
				<path id="XMLID_8030_" d="M38.1,226.5c0,0,0-0.1,0-0.1c0-0.4-0.4-0.9-0.8-0.8c-0.5,0-0.8,0.4-0.8,0.8c0,0,0,0.1,0,0.1
					c0,0.4,0.4,0.9,0.8,0.8C37.7,227.4,38.1,227,38.1,226.5z"/>
				<path id="XMLID_8029_" d="M35.7,221.8c0.1,0,0.1,0,0.2,0c0.4-0.1,0.7-0.4,0.7-0.8c0-0.1,0-0.2,0-0.3c0-0.4-0.4-0.9-0.8-0.8
					c0,0,0,0,0,0c-0.4,0-0.8,0.4-0.8,0.8c0,0.1,0,0.2,0,0.3C34.9,221.5,35.3,221.9,35.7,221.8z"/>
				<path id="XMLID_8028_" d="M31.1,192.1h-1.6c0,0.4,0.3,0.7,0.8,0.7C30.8,192.8,31.1,192.5,31.1,192.1z"/>
				<path id="XMLID_8027_" d="M30.6,203.7c0-0.4-0.3-0.8-0.8-0.8c-0.5,0-0.8,0.4-0.8,0.8c0,0.4,0.2,0.9,0.8,0.9
					C30.3,204.6,30.6,204.2,30.6,203.7z"/>
				<path id="XMLID_8026_" d="M30.2,211.9c0-0.4-0.4-0.9-0.8-0.8c-0.5,0-0.8,0.4-0.8,0.8c0,0,0,0.1,0,0.1c0,0.4,0.4,0.9,0.8,0.8
					c0.5,0,0.8-0.4,0.8-0.8C30.2,212,30.2,211.9,30.2,211.9z"/>
				<path id="XMLID_8025_" d="M30.1,224.7c0-0.1,0-0.2,0-0.3c0-0.4-0.4-0.9-0.8-0.8c-0.5,0-0.8,0.4-0.8,0.8c0,0.1,0,0.2,0,0.3
					c0,0.4,0.4,0.9,0.8,0.8C29.7,225.6,30.1,225.2,30.1,224.7z"/>
				<path id="XMLID_8024_" d="M28.9,234.5c-1.1,0-1.1,1.7,0,1.7C30,236.2,30,234.5,28.9,234.5z"/>
				<path id="XMLID_8023_" d="M27.8,243.5c-0.4,0-0.9,0.4-0.8,0.8c0,0.5,0.4,0.8,0.8,0.8c0,0,0.1,0,0.1,0c0.4,0,0.9-0.4,0.8-0.8
					c0-0.5-0.4-0.8-0.8-0.8C27.9,243.5,27.9,243.5,27.8,243.5z"/>
				<path id="XMLID_8022_" d="M24.5,195.2c-1.1,0-1.1,1.7,0,1.7C25.6,196.8,25.6,195.2,24.5,195.2z"/>
				<path id="XMLID_8021_" d="M24,209.1c1.1,0,1.1-1.7,0-1.7C22.9,207.5,22.9,209.1,24,209.1z"/>
				<path id="XMLID_8020_" class="st40" d="M17.9,260.1c-2.1-0.4-4.2-1.1-6.2-2.1c-0.8-0.4-1.9-0.9-2.7-1.7c-0.1,1.6,0,3.2,0.3,4.9
					c4.5,2.2,9.5,3,14.5,2.8c2.7-0.1,5.4-0.5,8-1c2.4-0.5,5.5-0.9,7.3-2.6c0,0,0,0,0,0c0.2-1.3,0.4-2.5,0.5-3.8
					c-2.1,2.3-5.7,3.1-8.6,3.6C26.6,260.7,22.2,260.9,17.9,260.1z"/>
				<path id="XMLID_8019_" d="M24.6,218.8c0,0-0.1-0.1-0.1-0.1c-0.3-0.3-0.9-0.3-1.2,0c-0.3,0.3-0.3,0.9,0,1.2c0,0,0.1,0.1,0.1,0.1
					c0.3,0.3,0.9,0.3,1.2,0C24.9,219.6,24.9,219.1,24.6,218.8z"/>
				<path id="XMLID_8018_" d="M23.4,239.4c0.5,0,0.8-0.4,0.8-0.8c0,0,0-0.1,0-0.1c0-0.4-0.4-0.9-0.8-0.8c-0.5,0-0.8,0.4-0.8,0.8
					c0,0,0,0.1,0,0.1C22.6,239,23,239.4,23.4,239.4z"/>
				<path id="XMLID_8017_" d="M23.9,229.6c0-0.4-0.3-0.8-0.8-0.8c-0.5,0-0.8,0.4-0.8,0.8c0,0.4,0.3,0.8,0.8,0.8
					C23.7,230.4,23.9,230,23.9,229.6z"/>
				<path id="XMLID_8014_" d="M12.8,234.3c-0.2-0.1-0.5-0.2-0.8-0.1c-0.4,0.1-0.7,0.6-0.6,1c0.1,0.3,0.3,0.5,0.6,0.6
					c0.2,0.1,0.4,0.2,0.7,0.1c0.4-0.1,0.7-0.6,0.6-1C13.2,234.6,13.1,234.4,12.8,234.3z M11.7,235.3c0,0.1,0.1,0.2,0.2,0.3
					C11.8,235.6,11.7,235.5,11.7,235.3z"/>
				<path id="XMLID_8013_" class="st40" d="M32.8,264.5c-2.8,0.6-5.6,1-8.4,1.2c-4.5,0.2-8.9-0.3-13.1-1.8c0.3,4.7,0.9,9.3,1.9,13.9
					c0,0,0,0.1,0,0.1c7.2,3.8,16,3.5,22.9-0.7c0,0,0-0.1,0-0.1c0.3-4.6,0.5-9.1,0.8-13.7C35.6,263.9,34.1,264.2,32.8,264.5z"/>
				<path id="XMLID_8012_" d="M10.3,231.2c-0.5,0-0.8,0.4-0.8,0.8c0,0,0,0.1,0,0.1c0,0.4,0.4,0.9,0.8,0.8c0.5,0,0.8-0.4,0.8-0.8
					c0,0,0-0.1,0-0.1c0-0.1,0-0.3-0.1-0.4C10.9,231.4,10.6,231.2,10.3,231.2z"/>
				<path id="XMLID_8011_" d="M6.1,236.1c0,0,0,0.1,0,0.1c0,0.1,0,0.2,0.1,0.3c0.1,0.3,0.4,0.5,0.8,0.5c0.5,0,0.8-0.4,0.8-0.8
					c0,0,0-0.1,0-0.1c0-0.1,0-0.3-0.1-0.4c-0.1-0.3-0.4-0.5-0.7-0.5C6.5,235.3,6.1,235.6,6.1,236.1z"/>
				<path id="XMLID_8010_" d="M6.3,240.5c0,0-0.1,0-0.1,0c-0.4,0-0.9,0.4-0.8,0.8c0,0.1,0,0.3,0.1,0.4c0.1,0.3,0.4,0.4,0.7,0.4
					c0,0,0.1,0,0.1,0c0.4,0,0.9-0.4,0.8-0.8c0-0.3-0.1-0.5-0.3-0.6C6.7,240.6,6.5,240.5,6.3,240.5z"/>
				<path id="XMLID_8009_" d="M5.3,225.2c0,0.4,0.2,0.9,0.8,0.9c0.5,0,0.8-0.4,0.8-0.8c0-0.4-0.3-0.9-0.8-0.9
					C5.6,224.5,5.4,224.8,5.3,225.2z"/>
				<path id="XMLID_7999_" d="M131.4,265.7c1.3-0.8,1.9-2.4,1.1-3.7c-0.8-1.3-2.5-1.8-3.9-1.1c-0.1,0-0.2,0.1-0.2,0.2c0,0,0,0,0,0
					c0,0,0,0,0,0c0,0-0.1,0-0.1,0.1c-1,0.8-1.2,2.3-0.8,3.4c-2.3,2-5,3.2-8,3.7c0-1.1-0.1-2.1-0.1-3.2c-0.1-2.2-0.1-4.5-0.2-6.7
					c0.1,0,0.1,0,0.2,0c3.8-0.8,6.8-3.6,8-7.3h0c1,0,2.1-0.6,2.7-1.4c0.8-1.2,0.9-2.8-0.2-3.8c-0.9-0.9-2.5-1.2-3.6-0.4
					c0,0-0.1,0.1-0.1,0.1c0,0,0,0,0,0c-0.3,0-0.5,0.2-0.7,0.6c-0.4,1.3-0.8,3.3,0.3,4.4c-1,3.1-3.5,5.4-6.7,6.2c0-1.3-0.1-2.7-0.1-4
					c0,0,0,0,0,0c0.1-0.2,0.1-0.5,0-0.8c0,0,0,0,0,0c0-2.4-0.1-4.9-0.1-7.3c0.9-0.7,1.4-1.7,1.5-2.9c0.1-1.5-1.1-3.7-2.9-3.1
					c-1.6,0.5-2.4,2.6-2,4.1c0.2,0.8,0.6,1.6,1.4,1.9c0.1,0.2,0.2,0.4,0.4,0.5c0,2.1,0.1,4.2,0.1,6.3c-0.5-0.2-1.2-0.5-1.3-0.6
					c-0.7-0.4-1.4-0.8-2.1-1.3c-1.2-1-2-2.2-2.6-3.5c0,0,0,0,0-0.1c0.8-2.1-2.1-5.5-3.9-3.6c-0.9,1-0.7,2.8,0.1,3.8
					c0.6,0.8,1.6,1.1,2.5,0.8c0.9,1.9,2.2,3.4,3.9,4.6c0.7,0.5,2.3,1.5,3.5,1.7c0,1.4,0.1,2.8,0.1,4.3c0,2.3,0.1,4.5,0.2,6.8
					c-4.1-0.1-7.9-2.4-9.8-6.1c0.5-0.8,0.6-1.9,0.1-2.8c-0.6-1.2-2.2-2.1-3.5-1.4c-1.4,0.7-1,2.4-0.5,3.6c0.6,1.2,1.6,2.3,3,2.4
					c2.3,3.7,6.4,6,10.8,6c0,1,0.1,2,0.1,3c0.1,3.3,0.2,6.7,0.3,10c0,1.1,1.7,1.1,1.7,0c-0.1-3-0.2-6.1-0.3-9.1
					c3.4-0.5,6.5-1.9,9.1-4.1C129.5,266.2,130.6,266.2,131.4,265.7z M128.9,248.7c-0.3,0.4-1,1-1.6,0.7c-0.1,0-0.1,0-0.1-0.1
					c-0.5-0.4-0.2-1.6,0-2.3c0,0,0.1,0,0.1-0.1C128.4,246.1,129.7,247.5,128.9,248.7z M108.8,244.9c-0.1-0.2-0.4-1.2-0.1-1.4
					c0.3-0.1,0.7,0.6,0.8,0.7c0.1,0.2,0.3,0.4,0.3,0.7c0,0,0,0.1,0,0.2c-0.1,0.1-0.2,0.1-0.3,0.3
					C109.4,245.7,108.9,245.1,108.8,244.9z M105.2,255.7c0-0.3,0.2-0.4,0.6-0.2c0.2,0.1,0.5,0.2,0.6,0.4c0.5,0.6,0.3,1.4-0.2,1.9
					c-0.1-0.1-0.2-0.2-0.3-0.4C105.6,257,105.1,256.2,105.2,255.7z M117.3,241.3c0.2-0.7,1-1.6,1.4-0.5c0.3,0.6,0.1,1.3-0.2,1.9
					c-0.3-0.1-0.7,0-0.9,0.4c0,0-0.4-0.9-0.4-1C117.2,241.8,117.2,241.5,117.3,241.3z M131.1,262.8c0.3,0.6-0.1,1.2-0.6,1.5
					c-0.2,0.1-0.4,0.1-0.5,0.1c0.2-0.6-0.4-1.2-1-1.1c0-0.4,0.1-0.7,0.4-1l0,0c0,0,0,0,0,0C130,262,130.8,262.3,131.1,262.8z"/>
				<path id="XMLID_7996_" d="M154.9,195.7c0.5,0.5,1.3,0.6,2,0.5c1.4,1.9,3.1,3.3,5.2,4.3c0.5,0.2,1.1,0.5,1.8,0.8v-1.8
					c-0.7-0.2-1.3-0.5-2-0.9c-1.3-0.7-2.5-1.7-3.4-2.9c0.6-0.6,0.7-1.6,0.3-2.4c-0.2-0.4-0.6-0.8-1-1h-2.5c0,0,0,0-0.1,0
					C154.1,193,153.9,194.7,154.9,195.7z M156.1,193.6c0.3-0.3,0.7-0.2,1,0c0.1,0.1,0.1,0.1,0.2,0.2c-0.2,0-0.4,0.2-0.5,0.4
					c-0.1,0.3-0.4,0.4-0.7,0.3C155.8,194.3,155.9,193.9,156.1,193.6z"/>
				<path id="XMLID_7995_" class="st40" d="M119.1,197.6c0.8-0.2,2.4-0.4,3.1-1.1c0-0.1,0.1-0.3,0.2-0.4c0.1-1.3,0.2-2.7,0.4-4h-5.5
					c-0.1,1.9-0.1,3.8-0.2,5.7C117.7,197.8,118.4,197.7,119.1,197.6z"/>
				<path id="XMLID_7994_" class="st40" d="M111.6,197.4c1.3,0.2,2.6,0.3,3.7,0.3c0.1-1.9,0.1-3.7,0.2-5.6h-2.8
					c-0.1,1.5-0.2,3-0.4,4.5C112.3,197.1,112,197.3,111.6,197.4z"/>
				<path id="XMLID_7993_" class="st40" d="M110.9,197.2c-0.2-0.1-0.2-0.3-0.2-0.6c0.2-1.5,0.3-3,0.4-4.5h-2.3
					c0,1.4,0.1,2.9,0.1,4.3C109.4,196.8,110.1,197.1,110.9,197.2z"/>
				<path id="XMLID_7989_" d="M95.6,196.2c-0.1,0.1-0.2,0.3-0.2,0.5c-0.3,2.7-0.3,5.4,0.2,8.1c-0.2,0.4-0.2,0.8,0.2,1.1
					c0,0.1,0.1,0.3,0.1,0.4c0.1,0.7,0.9,0.7,1.4,0.4c0,0,0,0,0,0c0.2,0.1,0.4,0.2,0.6,0.3c0.3,6.2,1.1,12.3,2.4,18.3c0,0,0,0,0,0
					c-0.1,0.3,0,0.7,0.4,1c9.6,5.4,21.8,4.9,31-1.1c0.6-0.4,0.4-1.1,0.1-1.4c0.3-5.7,0.7-11.4,1-17.2c0-0.1,0-0.1,0-0.2
					c0.5-0.3,0.9-0.5,1.4-0.9c0.4,0.2,0.9,0,1.1-0.5c0.6-3.3,0.9-6.7,1-10c0-0.5-0.3-0.7-0.7-0.8c-0.3-0.6-0.9-1.1-1.7-1.4
					c-0.5-0.2-1-0.4-1.5-0.6h-5.9c0.4,0.1,0.8,0.2,1.2,0.3c-1-0.1-2.1-0.1-3.2-0.1c0,0,0,0,0,0c0-0.1,0-0.1,0-0.2h-1.7
					c-0.1,1.3-0.2,2.7-0.4,4c-0.1,0.1-0.2,0.3-0.2,0.4c-0.7,0.6-2.2,0.9-3.1,1.1c-0.7,0.1-1.4,0.2-2.1,0.2c0.1-1.9,0.1-3.8,0.2-5.7
					h-1.7c-0.1,1.9-0.1,3.7-0.2,5.6c-1.1-0.1-2.4-0.1-3.7-0.3c0.3-0.1,0.6-0.3,0.7-0.8c0.2-1.5,0.3-3,0.4-4.5H111
					c-0.1,1.5-0.2,3-0.4,4.5c0,0.3,0.1,0.5,0.2,0.6c-0.7-0.2-1.4-0.4-2-0.8c0-1.4-0.1-2.9-0.1-4.3H107c0,0.1,0,0.2,0,0.3
					c-3.3,0-6.6,0.8-9.5,2.4c0.3-0.4,0.7-0.7,1.1-1c1.2-0.8,2.6-1.3,4.1-1.7h-4.7C96.4,193.1,95.3,194.4,95.6,196.2z M130,224.1
					c-8.4,5.2-19.3,5.6-28.1,0.9c0-0.1,0-0.1,0-0.2c-1.2-5.7-2-11.4-2.3-17.2c5.1,1.9,10.6,2.5,16,2.2c3.4-0.2,6.7-0.7,10-1.4
					c1.7-0.4,3.6-0.7,5.4-1.4c-0.3,5.6-0.7,11.2-1,16.8C130,224,130,224.1,130,224.1z M96.9,198.4c1.1,1,2.7,1.8,3.8,2.4
					c2.2,1.1,4.6,1.9,7.1,2.3c5.2,1,10.5,0.8,15.7,0c3.8-0.6,8.3-1.6,10.8-4.7c-0.1,1.7-0.3,3.5-0.6,5.2c0,0-0.1,0-0.1,0.1
					c-2.2,2.1-6,2.6-8.9,3.2c-3.2,0.7-6.4,1.1-9.6,1.3c-6.2,0.3-12.3-0.7-17.9-3.4C96.8,202.7,96.7,200.6,96.9,198.4z"/>
				<path id="XMLID_7988_" class="st40" d="M85.1,245.5c1,0.7,3,0.4,4.1,0.4c2.4,0.1,3.9-1,3.4-3.5c-0.3-1.7-1.2-3.4-1.8-5.1
					c-0.7-2-1.4-4-2.2-5.9c-0.4-1-2-0.6-1.6,0.4c0,0,0,0,0,0c-0.8,3.7-1.6,7.4-2.3,11.2C84.5,243.8,84.2,244.9,85.1,245.5z"/>
			</g>
			<path id="XMLID_7986_" class="st40" d="M150.3,301.5c-1.1-7-2.9-13.7-5.6-20.3c-0.3-0.7-1.4-0.9-1.6,0
				c-1.3,6.8-2.3,13.6-2.8,20.5c0,0.2,0,0.4,0.1,0.5c-0.1,0.5,0.1,1.1,0.8,1c2.8-0.2,5.5-0.4,8.3-0.7
				C150.1,302.5,150.4,302.1,150.3,301.5z"/>
			<g id="XMLID_7983_">
				<path id="XMLID_7984_" class="st36" d="M65.2,285.7c0.6-5.3,1.8-10.5,3.7-15.5c-0.5-0.1-1.1-0.1-1.6-0.2
					c0.5,5.2,1,10.5,1.5,15.7c0.3-0.3,0.6-0.6,0.8-0.8c-1.5,0-3.1,0-4.6,0c-1.1,0-1.1,1.7,0,1.7c1.5,0,3.1,0,4.6,0
					c0.4,0,0.9-0.4,0.8-0.8c-0.5-5.2-1-10.5-1.5-15.7c-0.1-0.9-1.3-1.1-1.6-0.2c-1.9,5.2-3.2,10.5-3.8,16
					C63.4,286.7,65.1,286.7,65.2,285.7L65.2,285.7z"/>
			</g>
		</g>
		<g id="XMLID_7644_">
			<g id="XMLID_7649_">
				<path id="XMLID_7900_" d="M167.8,374.4c-1.6-0.6-2.9-1.6-3.9-2.9v2.5c1.1,1,2.4,1.8,3.8,2.2c0,0.8-0.1,1.6-0.1,2.4
					c-0.1,2.8-0.2,5.6-0.3,8.4c-1.2-0.2-2.4-0.6-3.4-1.2v1.9c1,0.4,2,0.8,3.1,1c0.1,0,0.2,0,0.3,0c0,0.9-0.1,1.7-0.1,2.6h1.7
					c0-1.2,0.1-2.3,0.1-3.5c0.1-2.7,0.2-5.4,0.3-8.1c4.8,0.3,6.3-5,7.4-9c1.4-0.6,2.5-2,2.4-3.6c-0.1-1.5-1.4-2.7-2.9-2.7
					c-1.5,0-2.7,1.3-2.6,2.8c0.1,1.1,0.8,1.9,1.7,2.2c-0.9,3.3-1.9,8.8-6,8.6c0-0.6,0-1.1,0.1-1.7c0.4-0.3,0.5-1,0.1-1.3
					c0.1-3.5,0.3-6.9,0.5-10.4c0,0,0,0,0,0c0.8-1,1.1-2.3,0.8-3.6c-0.3-1.3-1.4-2.6-2.9-2.2c-2.4,0.7-2,5.9,0.4,5.6c0,0,0,0.1,0,0.1
					C168.1,367.8,168,371.1,167.8,374.4z M176.6,366.1c0.9,0.4,0.9,1.2,0.6,1.9c-0.2-0.2-0.4-0.3-0.8-0.2
					C174.8,368.1,175.1,365.4,176.6,366.1z M168,361.2c0-0.2,0-0.5,0.2-0.6c0.3-0.3,0.5-0.1,0.7,0.2c0.4,0.5,0.4,1.3,0.2,1.9
					c-0.2-0.1-0.4-0.2-0.7-0.1C167.9,362.8,168,361.4,168,361.2z"/>
				<path id="XMLID_7897_" d="M179.9,384.9L179.9,384.9c0.2,0,0.3,0,0.5,0c1.2-0.2,2.1-1.2,2-2.4c-0.1-1.4-1.2-2.4-2.6-2.5
					c-0.6-0.1-0.8,0.4-0.8,0.8v0c-0.9,0.4-1.3,1.4-1.2,2.4c0.1,0.4,0.2,0.8,0.5,1.1c-1.4,3.8-4.9,6.5-8.9,7h5.1
					C177,389.8,178.9,387.6,179.9,384.9z M180.1,383.2c-0.1,0-0.2,0-0.3,0c-0.4-0.2-0.4-0.8,0.1-1c0.3-0.1,0.4-0.2,0.5-0.4
					C180.9,382.2,180.9,383.1,180.1,383.2z"/>
				<path id="XMLID_7883_" d="M180,344.3c-0.2,0.9-0.5,1.9,0.4,2.5c1,0.7,3,0.4,4.1,0.4c2.4,0.1,3.9-1,3.4-3.5
					c-0.3-1.7-1.2-3.4-1.8-5.1c-0.7-2-1.4-4-2.2-5.9c-0.4-1-2-0.6-1.6,0.4v0C181.5,336.9,180.7,340.6,180,344.3z"/>
				<path id="XMLID_7759_" d="M170.2,265.7L170.2,265.7c1.4,0.2,2.8,0.3,4.1,0.4c1.3,0.1,3.2,0.4,4.4,0.1c0.7-0.2,1.1-0.8,1.1-1.5
					c0-1.5-0.6-3.2-0.8-4.7c-1.3-6.7-2.7-13.4-4.9-19.9c0-0.1,0-0.1-0.1-0.2c-0.3-0.9-1.6-0.7-1.6,0.2c0,0.1,0,0.1,0,0.2
					c-0.8,8-3.4,15.7-3.7,23.7c-0.5,0.2-0.5,1,0,1.4v0C168.7,266.2,169.8,266.3,170.2,265.7z M173.6,243.9c1.3,4.3,2.3,8.7,3.2,13.1
					c0.3,1.4,0.5,2.7,0.8,4.1c0.1,0.7,0.3,1.5,0.4,2.2c0,0.2,0.2,1.4,0.3,1.3c-0.3,0.4-4.1-0.1-4.6-0.2c-1.1-0.1-2.2-0.2-3.3-0.3
					C170.6,257.2,172.5,250.6,173.6,243.9z"/>
				<path id="XMLID_7722_" d="M168.8,193.9c2.1-0.1,4.1-0.7,5.8-1.7h-5.1c-0.2,0-0.4,0-0.6,0.1c0,0,0,0,0-0.1h-1.7
					c0,0.3,0,0.5,0,0.8c-0.1,2.4-0.2,4.7-0.2,7.1c0,0,0,0-0.1,0c-0.2,0.2-2-0.4-2.3-0.5c-0.2-0.1-0.5-0.1-0.7-0.2v1.8
					c1,0.4,2.1,0.7,2.9,0.6c0,0.8,0,1.6-0.1,2.3c-0.1,3-0.2,6-0.2,9.1c0,1.1,1.7,1.1,1.7,0c0.1-2.7,0.1-5.4,0.2-8.1
					c2.4,0,4.8-0.5,6.9-1.7c1.2-0.7,3.7-2.2,3.9-3.8c0.2,0,0.5,0,0.7,0c1.2-0.2,2.1-1.4,2.1-2.7c-0.1-1.3-1.1-2.3-2.3-2.7
					c-0.2-0.1-0.3-0.1-0.5,0c0,0,0,0,0,0c-0.3-0.1-0.5,0-0.8,0.2c-0.9,0.8-1.6,2.1-1.3,3.3c0.1,0.3,0.2,0.7,0.4,0.9
					c-0.1,0.2-0.2,0.4-0.1,0.7c0.1,0.4-1.5,1.6-1.8,1.8c-0.8,0.6-1.6,1.1-2.5,1.4c-1.5,0.6-3.1,0.9-4.7,0.9c0-0.9,0-1.8,0.1-2.7
					C168.6,198.4,168.7,196.1,168.8,193.9z M180.3,196.8c0.1,0.5-0.2,1.2-0.8,1.1c-0.2,0-0.4-0.1-0.5-0.3c-0.2-0.2-0.2-0.5-0.2-0.7
					c0-0.4,0.2-0.8,0.5-1.1C179.7,196,180.2,196.4,180.3,196.8z"/>
			</g>
		</g>
	</g>
</g>
</svg>
