<svg xmlns="http://www.w3.org/2000/svg" viewBox="0 0 64 64"><path d="M12.836 19.656l2.828-2.828L31.22 32.387l-2.828 2.828z" fill="#f9e3ae"/><path d="M6.262 8.57L4.57 10.262a.998.998 0 0 0-.129 1.25l4.508 7c.145.218.367.37.621.43l2.73.628c.337.075.688-.027.93-.27l2.051-2.05c.235-.238.336-.582.27-.91L15 13.66a1.007 1.007 0 0 0-.43-.629l-7.058-4.59a.998.998 0 0 0-1.25.13z" fill="#f6d397"/><path d="M36 35.8l-1.29-1.288-4.241 4.238L31.8 40a2 2 0 0 1 .52 2 4.001 4.001 0 0 0 1 3.852l13.46 13.41a4.006 4.006 0 0 0 5.66 0l2.829-2.832a4.004 4.004 0 0 0 0-5.66L41.828 37.34a3.992 3.992 0 0 0-3.848-1c-.71.2-1.468-.008-1.98-.54z" fill="#ed7899"/><path d="M52.219 59.2L31.14 38.12l-.63.629 1.29 1.25a2 2 0 0 1 .52 2 4.001 4.001 0 0 0 1 3.852l13.46 13.41a4.006 4.006 0 0 0 5.66 0z" fill="#e0678f"/><path d="M59.602 14.879l-6.243 6.242a2.002 2.002 0 0 1-1.93.52l-1.09-.29a8.007 8.007 0 0 1-5.66-5.66l-.288-1.09a2.002 2.002 0 0 1 .52-1.93l6.25-6.25c-4.481-1.421-11 1-14.552 4.599-3.55 3.601-3.187 7.21-1.789 11.69L17.5 40a10 10 0 1 0 8.5 8.5l17.3-17.32c4.47 1.41 8.141 1.761 11.688-1.79C58.54 25.84 61 19.353 59.602 14.88zm-40.23 38.3l-4.462 1.2-3.27-3.27 1.2-4.46 4.46-1.2 3.27 3.27z" fill="#c2cde7"/><path d="M59.602 14.879l-6.243 6.242a2.002 2.002 0 0 1-1.93.52l-1.09-.29a8.007 8.007 0 0 1-5.66-5.66l-.288-1.09a2.002 2.002 0 0 1 .52-1.93l6.25-6.25c-4.481-1.421-11 1-14.552 4.599a9.466 9.466 0 0 0-2.289 3.44l17.22 17.22A9.471 9.471 0 0 0 55 29.398c3.531-3.546 6-10.046 4.602-14.52z" fill="#d6dff2"/><path d="M39 44.41a1.004 1.004 0 0 0-1.36.05c-.367.372-.39.962-.05 1.36l9.898 9.899a1 1 0 0 0 1.41-1.41zm2.828-2.832A1.004 1.004 0 0 0 40.41 43l9.899 9.898a1 1 0 0 0 1.41-1.41zM18 44.75a1 1 0 0 0-1-.262l-4.46 1.203a1 1 0 0 0-.712.707l-1.2 4.461a1 1 0 0 0 .263 1l3.27 3.27a1 1 0 0 0 1 .262l4.46-1.2a.994.994 0 0 0 .707-.71L21.531 49a1 1 0 0 0-.261-1zm.55 7.621l-3.35.899-2.45-2.45.898-3.351L17 46.57 19.45 49zM45.79 27.27c.398.34.987.316 1.358-.051.368-.371.391-.961.051-1.36l-7.07-7.07a.996.996 0 0 0-1.356.055.996.996 0 0 0-.054 1.355zm-8.481 0a.996.996 0 0 0-1.356.054.996.996 0 0 0-.055 1.356l1.41 1.41c.399.34.989.316 1.36-.05.367-.372.39-.962.05-1.36zm-3.539 3.539a.993.993 0 0 0-.993-.32.988.988 0 0 0-.738.738.99.99 0 0 0 .32.992l1.41 1.41c.399.34.989.316 1.36-.05.367-.372.39-.962.05-1.36zm-3.532 3.543a1 1 0 0 0-1.41 1.41l1.41 1.41a1 1 0 0 0 1.41-1.41zM26.7 37.879a.996.996 0 0 0-1.356.055.996.996 0 0 0-.055 1.355l1.41 1.41c.399.34.988.317 1.36-.05.367-.372.39-.962.05-1.36zm-3.528 3.543a1 1 0 0 0-1.36.05.996.996 0 0 0-.05 1.356l1.41 1.41c.394.34.984.32 1.355-.05a1 1 0 0 0 .051-1.36z" fill="#8d6c9f"/><path d="M42.531 36.629a4.906 4.906 0 0 0-2.062-1.207l3.11-3.113c4.612 1.363 8.46 1.441 12.112-2.207 3.649-3.653 6.457-10.442 4.86-15.524a.996.996 0 0 0-1.66-.406l-6.243 6.238a1 1 0 0 1-1 .262l-1.09-.293a6.995 6.995 0 0 1-4.949-4.95l-.289-1.1a1.01 1.01 0 0 1 .258-1l6.25-6.25a.995.995 0 0 0-.398-1.656C46.37 3.839 39.55 6.647 35.89 10.3c-3.66 3.648-3.581 7.5-2.21 12.11l-5.508 5.51L16.551 16.3a1.9 1.9 0 0 0 0-.211L16 13.45a1.991 1.991 0 0 0-.871-1.27L8.05 7.602a1.997 1.997 0 0 0-2.5.257L3.859 9.551A1.999 1.999 0 0 0 3.602 12l4.507 7a2.02 2.02 0 0 0 1.23.86l2.731.628h.23l11.63 11.684L17.129 39a10.912 10.912 0 0 0-9.84 4.3 11.012 11.012 0 0 0-1.172 11.24 10.995 10.995 0 0 0 9.352 6.339h.62a10.995 10.995 0 0 0 7.782-3.219A10.917 10.917 0 0 0 27 48.86l4.39-4.391a4.873 4.873 0 0 0 1.212 2.062L46.07 60a4.998 4.998 0 0 0 7.07 0L56 57.14a4.998 4.998 0 0 0 0-7.07zM5.281 11L7 9.281l7 4.578.55 2.641-2.05 2.05-2.73-.628zm9 8.7l1.419-1.42 11.062 11.06-1.41 1.41zm11 28.128a1 1 0 0 0-.281.852 9 9 0 0 1-5.39 9.535A8.999 8.999 0 0 1 9 55.48a9.05 9.05 0 0 1-.14-11 8.918 8.918 0 0 1 7.171-3.601c.434 0 .867.031 1.297.09.313.047.629-.059.852-.278l17.34-17.293a.997.997 0 0 0 .25-1c-1.38-4.398-1.58-7.558 1.539-10.68C40.059 9 45.109 6.712 49.12 7l-4.93 5a2.995 2.995 0 0 0-.78 2.898l.288 1.09a9.007 9.007 0 0 0 6.36 6.364l1.09.289a3 3 0 0 0 2.902-.782l4.898-4.898c.313 4-1.949 9-4.687 11.758C51.16 31.8 48 31.609 43.602 30.23a.997.997 0 0 0-1 .25zm29.278 7.934L51.73 58.59a2.999 2.999 0 0 1-4.242 0L34 45.12a3.013 3.013 0 0 1-.82-2.441l5.449-5.45a3 3 0 0 1 2.441.82l13.48 13.43a3.001 3.001 0 0 1 0 4.239z" fill="#8d6c9f"/></svg>