<svg xmlns="http://www.w3.org/2000/svg" viewBox="0 0 48 48"><path d="M43 32s-.645.113-3.488-.781c.605-2.367.488-5.602.488-9.719 0-9.434-7.469-17.102-16.813-17.465A5.87 5.87 0 0 0 22.5 4c-.492 0-.996.027-1.496.074-.906.078-1.785.23-2.645.442C12.012 5.96 6 10 6 10c.32.746 1.094 1.398 1.875 1.902A17.411 17.411 0 0 0 5 21.5c0 3.633 1.832 6.75 3 10.5 23 6.063 30 12 30 12 5.5-4.938 5-12 5-12z" fill="#ff6d00"/><path d="M41 18s-9.27.188-16.438-2.813L22 17l-1.594 3S22.414 26.5 42 32c.832-7.918-1-14-1-14z" fill="#c5cae9"/><path d="M41.887 22.617l-4.91 4.715c-.844.816-1.625 1.563-2.352 2.262a57.808 57.808 0 0 1-4.023-1.684l3.605-3.46L40.926 18H41s.527 1.766.887 4.617zm-13.785 4.047c1.21-1.168 2.597-2.5 4.214-4.05l4.938-4.743a58.01 58.01 0 0 1-2.625-.246l-3.695 3.547c-1.575 1.512-3.16 3.031-4.633 4.45.547.339 1.144.687 1.8 1.042z" fill="#e8eaf6"/><path d="M23.5 15a3.5 3.5 0 1 0 0 7 3.5 3.5 0 1 0 0-7zm0 5a1.5 1.5 0 1 1 0-3 1.5 1.5 0 0 1 0 3zm15.89 22.547c-.417.496-.87.984-1.39 1.453 0 0-.54-.457-1.805-1.246a38.9 38.9 0 0 0-.64-.387l-.102-.058-.652-.38c-.043-.023-.082-.042-.125-.07-.262-.144-.543-.3-.84-.46-.05-.028-.102-.051-.152-.079a47.6 47.6 0 0 0-.805-.422c-.078-.039-.16-.082-.242-.12a45.212 45.212 0 0 0-1.063-.528l-.144-.07a85.42 85.42 0 0 0-1.383-.649c-.41-.183-.832-.375-1.277-.566-.016-.012-.036-.016-.051-.024-.457-.199-.938-.402-1.434-.609-.137-.059-.277-.113-.422-.172-.43-.18-.875-.355-1.332-.539-.101-.039-.195-.074-.293-.113a108.39 108.39 0 0 0-1.703-.653c-.152-.054-.316-.117-.473-.175-.488-.18-.992-.36-1.507-.543-.153-.055-.301-.11-.453-.16-.645-.227-1.313-.457-2-.688-.157-.05-.32-.102-.48-.156-.571-.188-1.161-.38-1.767-.57a177.328 177.328 0 0 0-2.918-.898c-.124-.036-.253-.075-.378-.11-.7-.207-1.422-.414-2.16-.625-.235-.067-.465-.13-.704-.196A179.9 179.9 0 0 0 8 32a37.874 37.874 0 0 0-.7-2.008C6.22 27.09 5 24.465 5 21.5c0-.496.035-.98.074-1.469 18.172 7.992 27.711 13.422 30.793 15.27a2.66 2.66 0 0 1 1.29 2.094c.07.98.085 2.32-.169 3.503 1.52.926 2.215 1.5 2.305 1.579.031.023.066.043.098.07zM5.899 15.997a17.536 17.536 0 0 1 1.977-4.095C7.094 11.398 6.32 10.746 6 10c0 0 .703-.469 1.863-1.137L8 9s.668 1.332 2 2c.25 1.332-1.582 4.582-4 5-.035.008-.066-.004-.102-.004z" fill="#37474f"/></svg>