<svg xmlns="http://www.w3.org/2000/svg" viewBox="0 0 32 32"><path d="M15.5 2C8.078 2 2 7.809 2 15c0 2.504.406 3.863 1.031 6.25l.125.5 21.094 8.438 5.469-5.47.25-.28.031-.375s.137-2.852-1.031-9.25c-.625-3.426-2.067-6.583-4.344-8.938C22.348 3.52 19.215 2 15.5 2zm0 2c3.188 0 5.738 1.234 7.688 3.25 1.019 1.055 1.87 2.328 2.53 3.75H15.595c-.703-.61-1.598-1-2.594-1-2.2 0-4 1.8-4 4s1.8 4 4 4c.469 0 .926-.098 1.344-.25 0 0 5.883 5.11 12.625 6.844l-3.219 3.218L4.844 20.25C4.312 18.242 4 17.102 4 15 4 8.937 9.113 4 15.5 4zM13 12c1.117 0 2 .883 2 2s-.883 2-2 2-2-.883-2-2 .883-2 2-2zm0 1c-.55 0-1 .45-1 1s.45 1 1 1 1-.45 1-1-.45-1-1-1zm3.844 0H26.5c.227.71.395 1.438.531 2.188.766 4.183.938 6.484.969 7.593-5.703-1.308-11.07-5.527-11.969-6.25.586-.695.969-1.558.969-2.531 0-.344-.074-.68-.156-1z"/></svg>