<svg xmlns="http://www.w3.org/2000/svg" viewBox="0 0 48 48"><path d="M44 20v-7c0-2.2-1.8-4-4-4h-5.5c0 .8-.7 1.5-1.5 1.5s-1.5-.7-1.5-1.5H8c-2.2 0-4 1.8-4 4v7c2.2 0 4 1.8 4 4s-1.8 4-4 4v7c0 2.2 1.8 4 4 4h23.5c0-.8.7-1.5 1.5-1.5s1.5.7 1.5 1.5H40c2.2 0 4-1.8 4-4v-7c-2.2 0-4-1.8-4-4s1.8-4 4-4zM33 35.5c-.8 0-1.5-.7-1.5-1.5s.7-1.5 1.5-1.5 1.5.7 1.5 1.5-.7 1.5-1.5 1.5zm0-5c-.8 0-1.5-.7-1.5-1.5s.7-1.5 1.5-1.5 1.5.7 1.5 1.5-.7 1.5-1.5 1.5zm0-5c-.8 0-1.5-.7-1.5-1.5s.7-1.5 1.5-1.5 1.5.7 1.5 1.5-.7 1.5-1.5 1.5zm0-5c-.8 0-1.5-.7-1.5-1.5s.7-1.5 1.5-1.5 1.5.7 1.5 1.5-.7 1.5-1.5 1.5zm0-5c-.8 0-1.5-.7-1.5-1.5s.7-1.5 1.5-1.5 1.5.7 1.5 1.5-.7 1.5-1.5 1.5z" fill="#ffa726"/><path d="M48 38c0 5.523-4.477 10-10 10s-10-4.477-10-10 4.477-10 10-10 10 4.477 10 10z" fill="#43a047"/><path d="M36 32h4v12h-4z" fill="#fff"/><path d="M32 36h12v4H32z" fill="#fff"/></svg>