<svg xmlns="http://www.w3.org/2000/svg" viewBox="0 0 40 40"><path d="M10.324 33.79a2.935 2.935 0 0 0 .535-1.7 2.92 2.92 0 0 0-.863-2.086 2.925 2.925 0 0 0-2.086-.863 2.92 2.92 0 0 0-1.695.535l-4.496-4.492L25.184 1.719l4.492 4.492a2.935 2.935 0 0 0-.535 1.7c0 .788.304 1.527.863 2.085.558.559 1.3.863 2.086.863.617 0 1.207-.187 1.7-.535l4.491 4.492-23.465 23.465z" fill="#dff0fe"/><path d="M25.184 2.438l3.847 3.851a3.445 3.445 0 0 0-.398 1.621c0 .922.36 1.793 1.012 2.445a3.433 3.433 0 0 0 2.445 1.012c.574 0 1.129-.137 1.62-.398l3.852 3.847-22.746 22.746-3.847-3.851a3.445 3.445 0 0 0 .398-1.621 3.44 3.44 0 0 0-1.012-2.445 3.417 3.417 0 0 0-2.445-1.012c-.574 0-1.129.137-1.62.398l-3.853-3.847L25.184 2.437m0-1.437L1 25.184l5.184 5.18a2.434 2.434 0 0 1 1.726-.716c.625 0 1.25.239 1.727.715.953.953.953 2.5 0 3.457l5.18 5.18L39 14.816l-5.184-5.18a2.434 2.434 0 0 1-1.726.716c-.625 0-1.25-.239-1.727-.715a2.447 2.447 0 0 1 0-3.457z" fill="#4788c7"/><path d="M39.5 31a8.5 8.5 0 0 1-8.5 8.5 8.499 8.499 0 0 1-8.5-8.5c0-4.695 3.805-8.5 8.5-8.5s8.5 3.805 8.5 8.5z" fill="#98ccfd"/><path d="M31 23c4.41 0 8 3.59 8 8s-3.59 8-8 8-8-3.59-8-8 3.59-8 8-8m0-1c-4.973 0-9 4.027-9 9s4.027 9 9 9 9-4.027 9-9-4.027-9-9-9z" fill="#4788c7"/><path d="M31 36V26m-5 5h10" fill="none" stroke-width="2" stroke="#fff" stroke-miterlimit="10"/></svg>