<svg xmlns="http://www.w3.org/2000/svg" viewBox="0 0 48 48"><line x1="38.5" y1="16.5" x2="43" y2="13" fill="none" stroke="#388e3c" stroke-width="2" stroke-miterlimit="10"/><path d="M35.519 8.212A2 2 0 0 0 33.681 7H14.319a2 2 0 0 0-1.838 1.212L9.211 17h29.577l-3.269-8.788z" fill="#424242"/><path d="M38.789 17L35.52 8.212A2.002 2.002 0 0 0 33.681 7H14.319a2 2 0 0 0-1.838 1.212L9.211 17" fill="none" stroke="#388e3c" stroke-width="2" stroke-miterlimit="10"/><line x1="9.5" y1="16.5" x2="5" y2="13" fill="none" stroke="#388e3c" stroke-width="2" stroke-miterlimit="10"/><path d="M11 42H7a1 1 0 0 1-1-1v-9h6v9a1 1 0 0 1-1 1zm26 0h4a1 1 0 0 0 1-1v-9h-6v9a1 1 0 0 0 1 1z" fill="#5d4037"/><path d="M39 16H9c-1.654 0-3 1.346-3 3v14c0 1.103.897 2 2 2h32c1.103 0 2-.897 2-2V19c0-1.654-1.346-3-3-3z" fill="#4caf50"/><path d="M13 25H7a1 1 0 0 1-1-1v-4a1 1 0 0 1 1-1h6a1 1 0 0 1 1 1v4a1 1 0 0 1-1 1zm22 0h6a1 1 0 0 0 1-1v-4a1 1 0 0 0-1-1h-6a1 1 0 0 0-1 1v4a1 1 0 0 0 1 1z" fill="#bbdefb"/><path d="M34 20v4a2 2 0 0 1-2 2H16a2 2 0 0 1-2-2v-4a1 1 0 0 1 1-1h18a1 1 0 0 1 1 1z" fill="#424242"/><path d="M32 27H16c-1.654 0-3-1.346-3-3v-4c0-1.103.897-2 2-2h18c1.103 0 2 .897 2 2v4c0 1.654-1.346 3-3 3zm1-7H15v4c0 .551.448 1 1 1h16c.552 0 1-.449 1-1v-4z" fill="#e0e0e0"/><path d="M8 19H7a1 1 0 0 0-1 1v4a1 1 0 0 0 1 1h1v-6zm32 0h1a1 1 0 0 1 1 1v4a1 1 0 0 1-1 1h-1v-6z" fill="#fbc02d"/><path d="M6.5 16h-4a.5.5 0 0 1-.5-.5v-3a.5.5 0 0 1 .5-.5h4a.5.5 0 0 1 .5.5v3a.5.5 0 0 1-.5.5zm39 0h-4a.5.5 0 0 1-.5-.5v-3a.5.5 0 0 1 .5-.5h4a.5.5 0 0 1 .5.5v3a.5.5 0 0 1-.5.5z" fill="#4caf50"/><path d="M6 29v5c0 1.103.897 2 2 2h32c1.103 0 2-.897 2-2v-5H6z" fill="#e0e0e0"/><path d="M37 33a2 2 0 0 0-2-2H13a2 2 0 0 0-2 2H6v1c0 1.103.897 2 2 2h32c1.103 0 2-.897 2-2v-1h-5z" fill="#757575"/></svg>