<svg xmlns="http://www.w3.org/2000/svg" viewBox="0 0 50 50"><path d="M25 11c-.637 0-.805.29-.969.469-.164.18-.277.37-.406.594a10.338 10.338 0 0 0-.75 1.718c-.223.649-.41 1.399-.563 2.219h-2.498c-.551.05-.958.543-.907 1.094.051.55.543.957 1.094.906h2.063c-.012.168-.028.328-.032.5-1.851.652-3.379 1.91-4.25 3.5H2.063A2.086 2.086 0 0 0 0 24.063a2.05 2.05 0 0 0 1.844 2.03l5.937.563A3.93 3.93 0 0 0 7 29c0 2.2 1.8 4 4 4s4-1.8 4-4c0-.59-.14-1.148-.375-1.656l2.875.281C18.621 30.559 21.512 33 25 33c3.488 0 6.379-2.441 7.5-5.375l2.875-.281A3.942 3.942 0 0 0 35 29c0 2.2 1.8 4 4 4s4-1.8 4-4a3.93 3.93 0 0 0-.781-2.344l5.937-.562A2.05 2.05 0 0 0 50 24.062 2.086 2.086 0 0 0 47.937 22H32.22c-.871-1.59-2.399-2.848-4.25-3.5-.004-.172-.024-.332-.032-.5H30c.36.004.695-.184.879-.496a1.01 1.01 0 0 0 0-1.008c-.184-.312-.52-.5-.879-.496h-2.281a14.415 14.415 0 0 0-.594-2.375c-.238-.676-.488-1.203-.75-1.625-.133-.21-.27-.39-.438-.563-.167-.17-.359-.437-.937-.437zm.031 2.844c.074.172.145.258.219.469.336.94.629 2.246.719 3.75A8.834 8.834 0 0 0 25 18c-.324 0-.652.027-.969.063.102-1.38.418-2.657.75-3.625.09-.258.16-.387.25-.594zM25 20c3.402 0 6 2.316 6 5s-2.77 6-6 6-6-3.316-6-6 2.598-5 6-5zm-3 2l-1 2h3v-2zm4 0v2h3l-1-2zM2.062 24h15.032A6.025 6.025 0 0 0 17 25c0 .184.016.379.031.563l-15-1.47c-.035-.003-.031.005-.031-.03 0-.04.023-.063.063-.063zm30.844 0h15.032c.039 0 .062.023.062.063 0 .035.004.027-.031.03l-15 1.47c.015-.184.031-.38.031-.563 0-.344-.04-.672-.094-1zM25 26a1.999 1.999 0 1 0 0 4 1.999 1.999 0 1 0 0-4zm-14 1c1.117 0 2 .883 2 2s-.883 2-2 2-2-.883-2-2 .883-2 2-2zm28 0c1.117 0 2 .883 2 2s-.883 2-2 2-2-.883-2-2c0-.977.676-1.785 1.594-1.969.133-.027.265-.031.406-.031z"/></svg>