<svg xmlns="http://www.w3.org/2000/svg" viewBox="0 0 40 40"><path d="M23.77 23.668L27.5 30.5" fill="none" stroke="#4788c7" stroke-miterlimit="10"/><path d="M40 20.004V20c0-.55-.45-1-1-1h-4v2h4.004c.55 0 .996-.445.996-.996zM28 9.332v13.332h-1V9.332zm-11 0v13.332h-1V9.332z" fill="#4788c7"/><path d="M19 26.5c-11.816 0-15.48-7.434-16.32-9.71A1699.54 1699.54 0 0 0 .719 11.5H4c.766 0 1.496.363 1.957.973l2.645 3.316.34-.129c.054-.023 5.285-2.008 7.785-2.152.52.781 2.261 2.992 5.273 2.992 3.023 0 4.766-2.227 5.277-3h3.657c2.53 0 4.566 3.008 4.566 5.5v2c0 2.492-2.008 5.5-4.5 5.5z" fill="#b6dcfe"/><path d="M4 12c.61 0 1.191.29 1.574.793l2.41 3.023.454.57.683-.257c1.426-.543 5.277-1.883 7.363-2.098C17.211 15.02 19.031 17 22 17c3 0 4.828-2.023 5.54-3h3.394C33.125 14 35 16.75 35 19v2c0 2.266-1.785 5-4 5H19C7.508 26 3.96 18.816 3.148 16.617c-.722-1.96-1.32-3.566-1.71-4.617H4m0-1H0s.895 2.398 2.21 5.965C3.599 20.723 8.149 27 19 27h12c2.797 0 5-3.203 5-6v-2c0-2.797-2.27-6-5.066-6H27s-1.672 3-5 3c-3.328 0-5-3-5-3-2.488 0-8.234 2.191-8.234 2.191l-2.41-3.02A2.953 2.953 0 0 0 4 11z" fill="#4788c7"/><path d="M22.668 11.5c-5.79 0-9.879-1.93-10.18-2.57.012-.239.094-.43.512-.43 5.96-.29 12.746-1.363 16.262-1.98l.156-.028C31.125 6.5 31.5 7.86 31.5 9c0 2.273-2.559 2.5-8.832 2.5z" fill="#dff0fe"/><path d="M29.418 7c.504.008 1.582.113 1.582 2 0 1.723-1.98 2-8.332 2-4.707 0-8.14-1.281-9.34-2.016 4.371-.226 10.043-.925 16.008-1.968L29.418 7m-.086-1c-.988.172-9.246 1.656-16.332 2-.34 0-1 .117-1 1 0 .855 4.57 3 10.668 3C28.609 12 32 11.914 32 9c0-.941-.262-3-2.668-3z" fill="#4788c7"/><path d="M31.5 13.508c2.227.148 4 2.25 4 4.812v3.364c0 2.558-1.773 4.66-4 4.808z" fill="#dff0fe"/><path d="M32 14.086c1.71.402 3 2.148 3 4.234v3.36c0 2.086-1.29 3.832-3 4.234V14.086M31.25 13H31v14h.25c2.625 0 4.75-2.383 4.75-5.32v-3.36c0-2.937-2.125-5.32-4.75-5.32zm5.75-.5v15a.499.499 0 1 0 1 0v-15a.499.499 0 1 0-1 0z" fill="#4788c7"/><path d="M29.5 30.5a1.999 1.999 0 1 1-4 0 1.999 1.999 0 1 1 4 0z" fill="#98ccfd"/><path d="M27.5 29a1.5 1.5 0 1 1 0 3 1.5 1.5 0 0 1 0-3m0-1a2.497 2.497 0 0 0-2.5 2.5c0 1.383 1.117 2.5 2.5 2.5s2.5-1.117 2.5-2.5-1.117-2.5-2.5-2.5z" fill="#4788c7"/></svg>