<?xml version="1.0" encoding="utf-8"?>
<!-- Generator: Adobe Illustrator 22.0.1, SVG Export Plug-In . SVG Version: 6.00 Build 0)  -->
<svg version="1.1" xmlns="http://www.w3.org/2000/svg" xmlns:xlink="http://www.w3.org/1999/xlink" x="0px" y="0px"
	 viewBox="0 0 144 266" style="enable-background:new 0 0 144 266;" xml:space="preserve">
<style type="text/css">
	.st0{fill:#FFFFFF;}
	.st1{fill:#FF9A00;}
	.st2{clip-path:url(#SVGID_2_);}
	.st3{fill:#FF3356;}
	.st4{fill:#FF9ABA;}
	.st5{clip-path:url(#SVGID_4_);}
	.st6{fill:#FFE900;}
	.st7{fill:#47D8D2;}
	.st8{clip-path:url(#SVGID_6_);fill:#FF9A00;}
	.st9{fill:#FF5D55;}
	.st10{clip-path:url(#SVGID_8_);}
	.st11{fill-rule:evenodd;clip-rule:evenodd;fill:#FF9933;}
	.st12{fill-rule:evenodd;clip-rule:evenodd;fill:#FFFF99;}
	.st13{fill-rule:evenodd;clip-rule:evenodd;fill:#FFAD33;}
	.st14{fill:#FFB700;}
	.st15{clip-path:url(#SVGID_10_);}
	.st16{fill:#FF7B80;}
	.st17{fill:#53C8FF;}
	.st18{clip-path:url(#SVGID_12_);}
	.st19{fill:#29ABE2;}
	.st20{fill:#9263A3;}
	.st21{fill:#EF6770;}
	.st22{fill:#3A6F92;}
	.st23{opacity:0.15;clip-path:url(#SVGID_14_);}
	.st24{opacity:0.15;}
	.st25{clip-path:url(#SVGID_16_);fill:#FFFFFF;}
	.st26{fill:#FF7F8A;}
	.st27{clip-path:url(#SVGID_18_);}
	.st28{clip-path:url(#SVGID_20_);}
	.st29{fill:#ED1E79;}
	.st30{fill:#999999;}
</style>
<g id="Layer_3">
	<g>
		<defs>
			<path id="SVGID_1_" d="M127.4,265.6H16.5c-9.2,0-16.6-7.4-16.6-16.6V16.7c0-9.2,7.4-16.6,16.6-16.6h110.9
				c9.2,0,16.6,7.4,16.6,16.6V249C144,258.2,136.6,265.6,127.4,265.6z"/>
		</defs>
		<clipPath id="SVGID_2_">
			<use xlink:href="#SVGID_1_"  style="overflow:visible;"/>
		</clipPath>
		<g class="st2">
			<path class="st3" d="M-34,15.6c9.8,4.1,13.1,7.4,17.1,17.2c4.1-9.8,7.3-13.1,17.1-17.2c-9.8-4.1-13.1-7.4-17.1-17.2
				C-20.9,8.3-24.2,11.6-34,15.6z"/>
			<ellipse class="st3" cx="19.5" cy="15.6" rx="17.1" ry="17.2"/>
			<path class="st3" d="M39.1,15.6c9.8,4.1,13.1,7.4,17.1,17.2c4.1-9.8,7.3-13.1,17.1-17.2c-9.8-4.1-13.1-7.4-17.1-17.2
				C52.2,8.3,48.9,11.6,39.1,15.6z"/>
			<path class="st3" d="M37.9,35.2c-4.1,9.8-7.3,13.2-17.1,17.2c9.8,4,13.1,7.4,17.1,17.2c4.1-9.8,7.3-13.2,17.1-17.2
				C45.2,48.3,41.9,45,37.9,35.2z"/>
			<path class="st3" d="M1.4,35.2c-4,9.8-7.2,13.1-17,17.1c9.8,4,13.1,7.2,17,17c4-9.8,7.1-13,16.9-17C8.5,48.3,5.3,45.1,1.4,35.2z"
				/>
			<ellipse class="st3" cx="92.6" cy="15.6" rx="17.1" ry="17.2"/>
			<path class="st3" d="M112.2,15.6c9.8,4.1,13.1,7.4,17.1,17.2c4.1-9.8,7.3-13.1,17.1-17.2c-9.8-4.1-13.1-7.4-17.1-17.2
				C125.3,8.3,122,11.6,112.2,15.6z"/>
			<path class="st3" d="M111,35.2c-4.1,9.8-7.3,13.2-17.1,17.2c9.8,4,13.1,7.4,17.1,17.2c4.1-9.8,7.3-13.2,17.1-17.2
				C118.3,48.3,115,45,111,35.2z"/>
			<path class="st3" d="M74.5,35.2c-4,9.8-7.2,13.1-17,17.1c9.8,4,13.1,7.2,17,17c4-9.8,7.1-13,16.9-17
				C81.6,48.3,78.4,45.1,74.5,35.2z"/>
			<path class="st3" d="M147.6,35.2c-4,9.8-7.2,13.1-17,17.1c9.8,4,13.1,7.2,17,17c4-9.8,7.1-13,16.9-17
				C154.7,48.3,151.5,45.1,147.6,35.2z"/>
			<path class="st3" d="M-34,88.9c9.8,4.1,13.1,7.4,17.1,17.2c4.1-9.8,7.3-13.1,17.1-17.2c-9.8-4.1-13.1-7.4-17.1-17.2
				C-20.9,81.5-24.2,84.8-34,88.9z"/>
			<ellipse class="st3" cx="19.5" cy="88.9" rx="17.1" ry="17.2"/>
			<path class="st3" d="M39.1,88.9c9.8,4.1,13.1,7.4,17.1,17.2c4.1-9.8,7.3-13.1,17.1-17.2c-9.8-4.1-13.1-7.4-17.1-17.2
				C52.2,81.5,48.9,84.8,39.1,88.9z"/>
			<path class="st3" d="M37.9,108.4c-4.1,9.8-7.3,13.2-17.1,17.2c9.8,4,13.1,7.4,17.1,17.2c4.1-9.8,7.3-13.2,17.1-17.2
				C45.2,121.6,41.9,118.2,37.9,108.4z"/>
			<path class="st3" d="M1.4,108.5c-4,9.8-7.2,13.1-17,17.1c9.8,4,13.1,7.2,17,17c4-9.8,7.1-13,16.9-17
				C8.5,121.6,5.3,118.3,1.4,108.5z"/>
			<ellipse class="st3" cx="92.6" cy="88.9" rx="17.1" ry="17.2"/>
			<path class="st3" d="M112.2,88.9c9.8,4.1,13.1,7.4,17.1,17.2c4.1-9.8,7.3-13.1,17.1-17.2c-9.8-4.1-13.1-7.4-17.1-17.2
				C125.3,81.5,122,84.8,112.2,88.9z"/>
			<path class="st3" d="M111,108.4c-4.1,9.8-7.3,13.2-17.1,17.2c9.8,4,13.1,7.4,17.1,17.2c4.1-9.8,7.3-13.2,17.1-17.2
				C118.3,121.6,115,118.2,111,108.4z"/>
			<path class="st3" d="M74.5,108.5c-4,9.8-7.2,13.1-17,17.1c9.8,4,13.1,7.2,17,17c4-9.8,7.1-13,16.9-17
				C81.6,121.6,78.4,118.3,74.5,108.5z"/>
			<path class="st3" d="M147.6,108.5c-4,9.8-7.2,13.1-17,17.1c9.8,4,13.1,7.2,17,17c4-9.8,7.1-13,16.9-17
				C154.7,121.6,151.5,118.3,147.6,108.5z"/>
			<path class="st3" d="M0.2,162.2c-9.8-4.1-13.1-7.4-17.1-17.2c-4.1,9.8-7.3,13.1-17.1,17.2c9.8,4.1,13.1,7.4,17.1,17.2
				C-12.8,169.5-9.6,166.2,0.2,162.2z"/>
			<ellipse class="st3" cx="19.5" cy="162.2" rx="17.1" ry="17.2"/>
			<path class="st3" d="M73.3,162.2c-9.8-4.1-13.1-7.4-17.1-17.2c-4.1,9.8-7.3,13.1-17.1,17.2c9.8,4.1,13.1,7.4,17.1,17.2
				C60.3,169.5,63.5,166.2,73.3,162.2z"/>
			<ellipse class="st3" cx="92.6" cy="162.2" rx="17.1" ry="17.2"/>
			<path class="st3" d="M146.4,162.2c-9.8-4.1-13.1-7.4-17.1-17.2c-4.1,9.8-7.3,13.1-17.1,17.2c9.8,4.1,13.1,7.4,17.1,17.2
				C133.4,169.5,136.7,166.2,146.4,162.2z"/>
			<path class="st3" d="M0.2,235.4c-9.8-4.1-13.1-7.4-17.1-17.2c-4.1,9.8-7.3,13.1-17.1,17.2c9.8,4.1,13.1,7.4,17.1,17.2
				C-12.8,242.8-9.6,239.5,0.2,235.4z"/>
			<path class="st3" d="M1.4,215.8c4-9.8,7.1-13,16.9-17c-9.8-4-13-7.3-16.9-17.1c-4,9.8-7.2,13.1-17,17.1
				C-5.9,202.8-2.6,206,1.4,215.8z"/>
			<ellipse class="st3" cx="19.5" cy="235.4" rx="17.1" ry="17.2"/>
			<path class="st3" d="M73.3,235.4c-9.8-4.1-13.1-7.4-17.1-17.2c-4.1,9.8-7.3,13.1-17.1,17.2c9.8,4.1,13.1,7.4,17.1,17.2
				C60.3,242.8,63.5,239.5,73.3,235.4z"/>
			<path class="st3" d="M37.9,216c4.1-9.8,7.3-13.2,17.1-17.2c-9.8-4-13.1-7.4-17.1-17.2c-4.1,9.8-7.3,13.2-17.1,17.2
				C30.5,202.8,33.8,206.2,37.9,216z"/>
			<path class="st3" d="M74.5,215.8c4-9.8,7.1-13,16.9-17c-9.8-4-13-7.3-16.9-17.1c-4,9.8-7.2,13.1-17,17.1
				C67.2,202.8,70.5,206,74.5,215.8z"/>
			<path class="st3" d="M37.9,254.8c-4.1,9.8-7.3,14.2-17.1,17.2H55C45.2,269,41.9,264.6,37.9,254.8z"/>
			<path class="st3" d="M1.4,254.9c-4,9.8-7.2,14.1-17,17.1h17h16.9C8.5,269,5.3,264.7,1.4,254.9z"/>
			<ellipse class="st3" cx="92.6" cy="235.4" rx="17.1" ry="17.2"/>
			<path class="st3" d="M146.4,235.4c-9.8-4.1-13.1-7.4-17.1-17.2c-4.1,9.8-7.3,13.1-17.1,17.2c9.8,4.1,13.1,7.4,17.1,17.2
				C133.4,242.8,136.7,239.5,146.4,235.4z"/>
			<path class="st3" d="M111,216c4.1-9.8,7.3-13.2,17.1-17.2c-9.8-4-13.1-7.4-17.1-17.2c-4.1,9.8-7.3,13.2-17.1,17.2
				C103.6,202.8,106.9,206.2,111,216z"/>
			<path class="st3" d="M147.6,215.8c4-9.8,7.1-13,16.9-17c-9.8-4-13-7.3-16.9-17.1c-4,9.8-7.2,13.1-17,17.1
				C140.3,202.8,143.6,206,147.6,215.8z"/>
			<path class="st3" d="M111,254.8c-4.1,9.8-7.3,14.2-17.1,17.2h34.3C118.3,269,115,264.6,111,254.8z"/>
			<path class="st3" d="M74.5,254.9c-4,9.8-7.2,14.1-17,17.1h17h16.9C81.6,269,78.4,264.7,74.5,254.9z"/>
			<path class="st3" d="M147.6,254.9c-4,9.8-7.2,14.1-17,17.1h17h16.9C154.7,269,151.5,264.7,147.6,254.9z"/>
		</g>
	</g>
</g>
<g id="Layer_2">
	<g id="Designed_by_Vecteezy">
	</g>
</g>
</svg>
