<svg xmlns="http://www.w3.org/2000/svg" viewBox="0 0 40 40"><rect x="8" y="1" width="1" height="7" fill="#36404d"/><rect x="1" y="2" width="15" height="1" fill="#66798f"/><rect x="31" y="1" width="1" height="7" fill="#36404d"/><path d="M4.5 35v-8c0-7.413 6.087-13 13.5-13h4c7.413 0 13.5 5.587 13.5 13v8" fill="none" stroke="#66798f" stroke-miterlimit="10"/><path d="M15.371 17.5a2.207 2.207 0 0 1-2.184-1.85l-.559-4.626-5.581-.521C5.212 10.35 4.5 9.559 4.5 7.682v-.325c0-.473.384-.857.857-.857h29.286c.473 0 .857.384.857.857v.325c0 1.877-.712 2.667-2.542 2.82l-5.642.526-.789 4.62a2.208 2.208 0 0 1-2.185 1.852h-8.971z" fill="#c8d1db"/><path d="M34.643 7c.197 0 .357.16.357.357v.325c0 1.626-.506 2.19-2.093 2.322l-5.255.491-.764.071-.129.756-.725 4.245A1.708 1.708 0 0 1 24.344 17h-8.973c-.841 0-1.553-.602-1.685-1.388l-.514-4.248-.097-.801-.803-.075-5.189-.485C5.506 9.872 5 9.308 5 7.682v-.325C5 7.16 5.16 7 5.357 7h29.286m0-1H5.357C4.607 6 4 6.608 4 7.357v.325C4 9.8 4.89 10.824 7 11l5.18.484.514 4.248A2.713 2.713 0 0 0 15.371 18h8.973a2.713 2.713 0 0 0 2.677-2.268l.724-4.241L33 11c2.11-.176 3-1.2 3-3.318v-.325C36 6.608 35.392 6 34.643 6z" fill="#66798f"/><rect x="24" y="2" width="15" height="1" fill="#66798f"/><rect x="4" y="31" width="32" height="1" fill="#66798f"/><rect x="27" y="6" width="3" height="3" fill="#c74343"/><rect x="10" y="6" width="3" height="3" fill="#c74343"/><path d="M10 38.5a.5.5 0 0 1-.5-.5V26a.5.5 0 0 1 .5-.5h4.681l1.628-2h7.657l1.514 2H30a.5.5 0 0 1 .5.5v12a.5.5 0 0 1-.5.5H10z" fill="#b0c1d4"/><path d="M23.717 24l1.214 1.604.3.396H30v12H10V26h4.918l.3-.369L16.547 24h7.17m.497-1h-8.143l-1.629 2H10a1 1 0 0 0-1 1v12a1 1 0 0 0 1 1h20a1 1 0 0 0 1-1V26a1 1 0 0 0-1-1h-4.271l-1.515-2z" fill="#66798f"/><circle cx="20" cy="32" r="4.5" fill="#c2e8ff"/><path d="M20 28c2.206 0 4 1.794 4 4s-1.794 4-4 4-4-1.794-4-4 1.794-4 4-4m0-1a5 5 0 1 0 .001 10.001A5 5 0 0 0 20 27z" fill="#7496c4"/><rect x="25" y="27" width="3" height="1" fill="#ffeea3"/></svg>