<svg xmlns="http://www.w3.org/2000/svg" viewBox="0 0 40 40"><path d="M8.5 1c-.277 0-.5.223-.5.5v6a.499.499 0 1 0 1 0v-6c0-.277-.223-.5-.5-.5z" fill="#4788c7"/><path d="M1.5 3h14a.499.499 0 1 0 0-1h-14a.499.499 0 1 0 0 1zm30-2c-.277 0-.5.223-.5.5v6a.499.499 0 1 0 1 0v-6c0-.277-.223-.5-.5-.5z" fill="#4788c7"/><path d="M4.5 34.5V27c0-7.414 6.086-13 13.5-13h4c7.414 0 13.5 5.586 13.5 13v7.5" fill="none" stroke-linecap="round" stroke="#4788c7" stroke-miterlimit="10"/><path d="M15.371 17.5a2.207 2.207 0 0 1-2.184-1.852l-.558-4.625-5.582-.52C5.21 10.353 4.5 9.56 4.5 7.684v-.328c0-.472.383-.855.855-.855h29.29c.472 0 .855.383.855.855v.329c0 1.875-.71 2.664-2.543 2.82l-5.64.523-.79 4.621a2.207 2.207 0 0 1-2.183 1.852z" fill="#b6dcfe"/><path d="M34.645 7c.195 0 .355.16.355.355v.329c0 1.625-.508 2.187-2.094 2.32l-5.254.492-.765.07-.13.754-.722 4.246A1.712 1.712 0 0 1 24.344 17H15.37c-.84 0-1.555-.602-1.684-1.387l-.515-4.25-.098-.8-.8-.075-5.192-.484C5.508 9.87 5 9.309 5 7.684v-.329C5 7.16 5.16 7 5.355 7h29.29m0-1H5.355C4.605 6 4 6.61 4 7.355v.329C4 9.8 4.89 10.824 7 11l5.18.484.515 4.246A2.71 2.71 0 0 0 15.371 18h8.973a2.71 2.71 0 0 0 2.676-2.27l.726-4.238L33 11c2.11-.176 3-1.2 3-3.316v-.329A1.36 1.36 0 0 0 34.645 6zM24.5 3h14a.499.499 0 1 0 0-1h-14a.499.499 0 1 0 0 1zM4 31h32v1H4z" fill="#4788c7"/><path d="M27 7h3v2h-3zM10 7h3v2h-3z" fill="#fff"/><path d="M10 38.5a.498.498 0 0 1-.5-.5V26c0-.277.223-.5.5-.5h4.68l1.629-2h7.656l1.515 2H30c.277 0 .5.223.5.5v12c0 .277-.223.5-.5.5z" fill="#dff0fe"/><path d="M23.719 24l1.21 1.605.301.395H30v12H10V26h4.918l.3-.367L16.548 24h7.172m.496-1H16.07l-1.629 2H10c-.55 0-1 .45-1 1v12c0 .55.45 1 1 1h20c.55 0 1-.45 1-1V26c0-.55-.45-1-1-1h-4.27z" fill="#4788c7"/><path d="M24.5 32a4.501 4.501 0 0 1-9 0 4.501 4.501 0 0 1 9 0z" fill="#b6dcfe"/><path d="M20 28c2.207 0 4 1.793 4 4s-1.793 4-4 4-4-1.793-4-4 1.793-4 4-4m0-1a5 5 0 1 0 0 10 5 5 0 0 0 0-10zm7.5 1h-2a.498.498 0 0 1-.5-.5c0-.277.223-.5.5-.5h2a.499.499 0 1 1 0 1z" fill="#4788c7"/></svg>