<?xml version="1.0" encoding="utf-8"?>
<!-- Generator: Adobe Illustrator 22.0.1, SVG Export Plug-In . SVG Version: 6.00 Build 0)  -->
<svg version="1.1" xmlns="http://www.w3.org/2000/svg" xmlns:xlink="http://www.w3.org/1999/xlink" x="0px" y="0px"
	 viewBox="0 0 144 269" style="enable-background:new 0 0 144 269;" xml:space="preserve">
<style type="text/css">
	.st0{fill:#FFFFFF;}
	.st1{fill:#FF9A00;}
	.st2{clip-path:url(#SVGID_2_);}
	.st3{fill:#FF3356;}
	.st4{fill:#FF9ABA;}
	.st5{clip-path:url(#SVGID_4_);}
	.st6{fill:#FFE900;}
	.st7{fill:#47D8D2;}
	.st8{clip-path:url(#SVGID_6_);fill:#FF9A00;}
	.st9{fill:#FF5D55;}
	.st10{clip-path:url(#SVGID_8_);}
	.st11{fill-rule:evenodd;clip-rule:evenodd;fill:#FF9933;}
	.st12{fill-rule:evenodd;clip-rule:evenodd;fill:#FFFF99;}
	.st13{fill-rule:evenodd;clip-rule:evenodd;fill:#FFAD33;}
	.st14{fill:#FFB700;}
	.st15{clip-path:url(#SVGID_10_);}
	.st16{fill:#FF7B80;}
	.st17{fill:#53C8FF;}
	.st18{clip-path:url(#SVGID_12_);}
	.st19{fill:#29ABE2;}
	.st20{fill:#9263A3;}
	.st21{fill:#EF6770;}
	.st22{fill:#3A6F92;}
	.st23{opacity:0.15;clip-path:url(#SVGID_14_);}
	.st24{opacity:0.15;}
	.st25{clip-path:url(#SVGID_16_);fill:#FFFFFF;}
	.st26{fill:#FF7F8A;}
	.st27{clip-path:url(#SVGID_18_);}
	.st28{clip-path:url(#SVGID_20_);}
	.st29{fill:#ED1E79;}
	.st30{fill:#999999;}
</style>
<g id="Layer_3">
	<g>
		<defs>
			<path id="SVGID_5_" d="M127.5,265.5H16.6c-9.2,0-16.6-7.4-16.6-16.6V16.6C0,7.4,7.5,0,16.6,0h110.9c9.2,0,16.6,7.4,16.6,16.6
				v232.4C144.1,258.1,136.7,265.5,127.5,265.5z"/>
		</defs>
		<clipPath id="SVGID_2_">
			<use xlink:href="#SVGID_5_"  style="overflow:visible;"/>
		</clipPath>
		<path style="clip-path:url(#SVGID_2_);fill:#FF9A00;" d="M236.7-41.5h-12L191.2-8.1l-33.4-33.4h-6.6L117.9-8.1L84.5-41.5h-24
			L27-8.1L-6.4-41.5h-6.6L-46.3-8.1l-33.4-33.4h-12v12l33.4,33.4l-33.4,33.4v6.6l33.4,33.4l-33.4,33.4v24l33.4,33.4l-33.4,33.4v6.6
			l33.4,33.4l-33.4,33.4v12h12l33.4-33.4l33.4,33.4h6.6L27,253.6L60.4,287h24l33.4-33.4l33.4,33.4h6.6l33.4-33.4l33.4,33.4h12v-12
			l-33.4-33.4l33.4-33.4v-6.6l-33.4-33.4l33.4-33.4v-24l-33.4-33.4l33.4-33.4v-6.6L203.3,3.9l33.4-33.4V-41.5z M154.6-38.2L188-4.8
			l-33.4,33.4L121.2-4.8L154.6-38.2z M105.9,77.3l-33.4,33.4L39.1,77.3l33.4-33.4L105.9,77.3z M75.7,40.6l33.4-33.4l33.4,33.4
			L109.1,74L75.7,40.6z M35.8,74L2.4,40.6L35.8,7.2l33.4,33.4L35.8,74z M23.8,86.1l-33.4,33.4l-33.4-33.4l33.4-33.4L23.8,86.1z
			 M27,89.3l33.4,33.4L27,156.1l-33.4-33.4L27,89.3z M23.8,159.4l-33.4,33.4l-33.4-33.4L-9.7,126L23.8,159.4z M35.8,171.4l33.4,33.4
			l-33.4,33.4L2.4,204.8L35.8,171.4z M39.1,168.2l33.4-33.4l33.4,33.4l-33.4,33.4L39.1,168.2z M109.1,171.4l33.4,33.4l-33.4,33.4
			l-33.4-33.4L109.1,171.4z M121.2,159.4l33.4-33.4l33.4,33.4l-33.4,33.4L121.2,159.4z M117.9,156.1l-33.4-33.4l33.4-33.4l33.4,33.4
			L117.9,156.1z M121.2,86.1l33.4-33.4L188,86.1l-33.4,33.4L121.2,86.1z M72.5-29.5l33.4,33.4L72.5,37.3L39.1,3.9L72.5-29.5z
			 M-9.7-38.2L23.8-4.8L-9.7,28.6L-43.1-4.8L-9.7-38.2z M-88.5,40.6l33.4-33.4l33.4,33.4L-55.1,74L-88.5,40.6z M-79.7,122.7
			l33.4-33.4l33.4,33.4l-33.4,33.4L-79.7,122.7z M-88.5,204.8l33.4-33.4l33.4,33.4l-33.4,33.4L-88.5,204.8z M-9.7,283.7l-33.4-33.4
			l33.4-33.4l33.4,33.4L-9.7,283.7z M72.5,274.9l-33.4-33.4l33.4-33.4l33.4,33.4L72.5,274.9z M154.6,283.7l-33.4-33.4l33.4-33.4
			l33.4,33.4L154.6,283.7z M233.4,204.8L200,238.3l-33.4-33.4l33.4-33.4L233.4,204.8z M224.7,122.7l-33.4,33.4l-33.4-33.4l33.4-33.4
			L224.7,122.7z M233.4,40.6L200,74l-33.4-33.4L200,7.2L233.4,40.6z"/>
	</g>
</g>
<g id="Layer_2">
	<g id="Designed_by_Vecteezy">
	</g>
</g>
</svg>
