<svg xmlns="http://www.w3.org/2000/svg" viewBox="0 0 32 32"><path d="M14.25 4l-.25.594s-1.086 2.375-2.469 4.968c-.691 1.297-1.445 2.626-2.187 3.75-.742 1.126-1.508 2.024-1.938 2.344l-1.281.938 1.406.75c3.645 1.945 7.278 1.664 7.375 1.656H16V4zm2.625 0L17 5.125s.258 1.945.375 4.281c.117 2.336.059 5.114-.313 6.281l-.312.97.938.28c3.597 1.184 5.875 2 5.875 2l.156.063H25v-1c0-3.48-1.266-6.684-2.656-9.125a22.956 22.956 0 0 0-2.063-3.031c-.64-.793-1.136-1.324-1.593-1.657L18.438 4zm2.344 3.844c.453.61.91 1.215 1.375 2.031 1.062 1.867 1.867 4.23 2.156 6.688-.68-.239-1.648-.583-3.656-1.25.34-1.766.351-3.958.25-6-.04-.801-.07-.813-.125-1.47zM14 9.094v7.875c-.79.008-2.3-.09-4.375-.907.453-.527.922-.937 1.375-1.625.797-1.207 1.602-2.605 2.313-3.937.39-.734.363-.754.687-1.406zM5 20v1c0 1.363.324 2.453.813 3.313-.067.078-.13.167-.25.25C5.207 24.808 4.636 25 4 25c-.633 0-1.203-.188-1.563-.438C2.079 24.313 2 24.044 2 24H0c0 .941.59 1.684 1.313 2.188C2.034 26.69 2.96 27 4 27c1.035 0 1.96-.309 2.688-.813.113-.078.207-.16.312-.25.102.086.203.176.313.25C8.034 26.692 8.96 27 10 27c1.035 0 1.96-.309 2.688-.813.113-.078.207-.16.312-.25.102.086.203.176.313.25.722.504 1.648.813 2.687.813 1.035 0 1.96-.309 2.688-.813.113-.078.207-.16.312-.25.102.086.203.176.313.25.722.504 1.648.813 2.687.813 1.035 0 1.96-.309 2.688-.813.113-.078.207-.16.312-.25.102.086.203.176.313.25.722.504 1.648.813 2.687.813 1.035 0 1.96-.309 2.688-.813C31.413 25.684 32 24.942 32 24h-2c0 .059-.082.316-.438.563-.355.246-.925.437-1.562.437-.504 0-.965-.105-1.313-.281A5.757 5.757 0 0 0 28 21v-1zm2.219 2H25.75a4.112 4.112 0 0 1-1.156 2H24c0 .059-.082.316-.438.563-.355.246-.925.437-1.562.437-.633 0-1.203-.188-1.563-.438-.359-.25-.437-.519-.437-.562h-2c0 .059-.082.316-.438.563-.355.246-.925.437-1.562.437-.633 0-1.203-.188-1.563-.438-.359-.25-.437-.519-.437-.562h-2c0 .059-.082.316-.438.563-.34.234-.87.417-1.468.437 0 0-.754-.078-1.531-.594-.606-.402-1.106-1.183-1.344-2.406z"/></svg>