<?xml version="1.0" encoding="utf-8"?>
<!-- Generator: Adobe Illustrator 22.0.1, SVG Export Plug-In . SVG Version: 6.00 Build 0)  -->
<svg version="1.1" xmlns="http://www.w3.org/2000/svg" xmlns:xlink="http://www.w3.org/1999/xlink" x="0px" y="0px"
	 viewBox="0 0 144 266" style="enable-background:new 0 0 144 266;" xml:space="preserve">
<style type="text/css">
	.st0{fill:#FFFFFF;}
	.st1{fill:#FF9A00;}
	.st2{clip-path:url(#SVGID_2_);}
	.st3{fill:#FF3356;}
	.st4{fill:#FF9ABA;}
	.st5{clip-path:url(#SVGID_4_);}
	.st6{fill:#FFE900;}
	.st7{fill:#47D8D2;}
	.st8{clip-path:url(#SVGID_6_);fill:#FF9A00;}
	.st9{fill:#FF5D55;}
	.st10{clip-path:url(#SVGID_8_);}
	.st11{fill-rule:evenodd;clip-rule:evenodd;fill:#FF9933;}
	.st12{fill-rule:evenodd;clip-rule:evenodd;fill:#FFFF99;}
	.st13{fill-rule:evenodd;clip-rule:evenodd;fill:#FFAD33;}
	.st14{fill:#FFB700;}
	.st15{clip-path:url(#SVGID_10_);fill:#FF7B80;}
	.st16{fill:#53C8FF;}
	.st17{clip-path:url(#SVGID_12_);}
	.st18{fill:#29ABE2;}
	.st19{fill:#9263A3;}
	.st20{fill:#EF6770;}
	.st21{fill:#3A6F92;}
	.st22{opacity:0.15;clip-path:url(#SVGID_14_);}
	.st23{opacity:0.15;}
	.st24{clip-path:url(#SVGID_16_);fill:#FFFFFF;}
	.st25{fill:#FF7F8A;}
	.st26{clip-path:url(#SVGID_18_);}
	.st27{clip-path:url(#SVGID_20_);}
	.st28{fill:#ED1E79;}
	.st29{fill:#999999;}
</style>
<g id="Layer_3">
	<g>
		<defs>
			<path id="SVGID_9_" d="M127.5,265.5H16.6c-9.2,0-16.6-7.4-16.6-16.6V16.6C0,7.4,7.4,0,16.6,0h110.9c9.2,0,16.6,7.4,16.6,16.6
				v232.4C144.1,258.1,136.6,265.5,127.5,265.5z"/>
		</defs>
		<clipPath id="SVGID_2_">
			<use xlink:href="#SVGID_9_"  style="overflow:visible;"/>
		</clipPath>
		<polygon style="clip-path:url(#SVGID_2_);fill:#FF7B80;" points="72,53.5 135.4,-9.9 116.4,-9.9 72,34.5 27.7,-9.9 8.7,-9.9 		"/>
		<polygon style="clip-path:url(#SVGID_2_);fill:#FF7B80;" points="-7.2,25 72,104.2 151.3,25 230.5,104.2 230.5,85.2 151.3,6 
			72,85.2 -7.2,6 -86.4,85.2 -86.4,104.2 		"/>
		<polygon style="clip-path:url(#SVGID_2_);fill:#FF7B80;" points="-7.2,53.5 72,132.8 151.3,53.5 230.5,132.8 230.5,113.7 
			151.3,34.5 72,113.7 -7.2,34.5 -86.4,113.7 -86.4,132.8 		"/>
		<polygon style="clip-path:url(#SVGID_2_);fill:#FF7B80;" points="-7.2,243.7 -70.6,307.1 -51.6,307.1 -7.2,262.7 37.2,307.1 
			56.2,307.1 		"/>
		<polygon style="clip-path:url(#SVGID_2_);fill:#FF7B80;" points="72,25 106.9,-9.9 87.9,-9.9 72,6 56.2,-9.9 37.2,-9.9 		"/>
		<polygon style="clip-path:url(#SVGID_2_);fill:#FF7B80;" points="151.3,243.7 87.9,307.1 106.9,307.1 151.3,262.7 195.6,307.1 
			214.7,307.1 		"/>
		<polygon style="clip-path:url(#SVGID_2_);fill:#FF7B80;" points="-7.2,212 72,291.2 151.3,212 230.5,291.2 230.5,272.2 151.3,193 
			72,272.2 -7.2,193 -86.4,272.2 -86.4,291.2 		"/>
		<polygon style="clip-path:url(#SVGID_2_);fill:#FF7B80;" points="-7.2,132.8 72,212 151.3,132.8 230.5,212 230.5,193 151.3,113.7 
			72,193 -7.2,113.7 -86.4,193 -86.4,212 		"/>
		<polygon style="clip-path:url(#SVGID_2_);fill:#FF7B80;" points="-7.2,183.5 72,262.7 151.3,183.5 230.5,262.7 230.5,243.7 
			151.3,164.5 72,243.7 -7.2,164.5 -86.4,243.7 -86.4,262.7 		"/>
		<polygon style="clip-path:url(#SVGID_2_);fill:#FF7B80;" points="-7.2,104.2 72,183.5 151.3,104.2 230.5,183.5 230.5,164.5 
			151.3,85.2 72,164.5 -7.2,85.2 -86.4,164.5 -86.4,183.5 		"/>
	</g>
</g>
<g id="Layer_2">
	<g id="Designed_by_Vecteezy">
	</g>
</g>
</svg>
