<svg xmlns="http://www.w3.org/2000/svg" viewBox="0 0 50 50"><path d="M17.844 2c-.055.016-.106.04-.157.063l-3 1a.999.999 0 1 0 .626 1.874l2.718-.906L24 4.875V18h-1.094A.996.996 0 0 0 22 19v22h-4v-6c0-3.3-2.7-6-6-6h-.188c-.55.05-.957.543-.906 1.094.051.55.543.957 1.094.906 2.219 0 4 1.781 4 4v6.688c-.086.285-.04.593.125.843l.031.032c.008.019.02.042.032.062l.03.031.032.032.031.03a.93.93 0 0 0 .125.126h.032l.03.031c.02.012.044.023.063.031l.032.032h.062l.031.03h.094c.02.012.043.024.063.032H33a.668.668 0 0 0 .281-.031c.102-.028.196-.07.282-.125a1.16 1.16 0 0 0 .218-.219.472.472 0 0 0 .063-.063c.09-.14.144-.3.156-.468V42a1.024 1.024 0 0 0 0-.219V35c0-2.219 1.781-4 4-4 .36.004.695-.184.879-.496a1.01 1.01 0 0 0 0-1.008c-.184-.312-.52-.5-.879-.496-3.3 0-6 2.7-6 6v6h-4V19c0-.55-.45-1-1-1h-1V4.875l5.969-.844 2.718.907a1.002 1.002 0 0 0 1.426-1.141.999.999 0 0 0-.8-.735l-3-1a1.006 1.006 0 0 0-.47-.062l-6.75.969h-.187L18.156 2a1.048 1.048 0 0 0-.312 0zM24 20h2v21h-2zM12 32c-1.645 0-3 1.355-3 3v10c0 1.645 1.355 3 3 3s3-1.355 3-3V35c0-1.645-1.355-3-3-3zm26 0c-1.645 0-3 1.355-3 3v10c0 1.645 1.355 3 3 3s3-1.355 3-3V35c0-1.645-1.355-3-3-3zm-26 2c.566 0 1 .434 1 1v10c0 .566-.434 1-1 1-.566 0-1-.434-1-1V35c0-.566.434-1 1-1zm26 0c.566 0 1 .434 1 1v10c0 .566-.434 1-1 1-.566 0-1-.434-1-1V35c0-.566.434-1 1-1z"/></svg>