<svg xmlns="http://www.w3.org/2000/svg" viewBox="0 0 50 50"><path d="M17.844 2c-.055.016-.106.04-.157.063l-3 1a.999.999 0 1 0 .626 1.874l2.718-.906L24 4.875V18h-1c-.602 0-1 .398-1 1v22h-4v-6c0-3.324-2.676-6-6-6h-.094c-.55.027-.98.496-.953 1.047.027.55.496.98 1.047.953 2.277 0 4 1.723 4 4v6.688c-.086.285-.04.593.125.843l.031.032c.008.019.02.042.032.062l.03.031.032.032.031.03a.93.93 0 0 0 .125.126h.032l.03.031c.02.012.044.023.063.031l.032.032h.062l.031.03h.094c.02.012.043.024.063.032h.156c.05.004.105.004.156 0h16a1.014 1.014 0 0 0 .438-.156.995.995 0 0 0 .437-.75V42a1.024 1.024 0 0 0 0-.219V35c0-2.277 1.723-4 4-4 .36.004.695-.184.879-.496a1.01 1.01 0 0 0 0-1.008c-.184-.312-.52-.5-.879-.496-3.324 0-6 2.676-6 6v6h-4V19c0-.602-.398-1-1-1h-1V4.875l5.969-.844 2.718.907a1.002 1.002 0 0 0 1.426-1.141.999.999 0 0 0-.8-.735l-3-1a1.006 1.006 0 0 0-.47-.062l-6.75.969H25L18.156 2a1.048 1.048 0 0 0-.312 0zM12 32c-1.7 0-3 1.3-3 3v10c0 1.7 1.3 3 3 3s3-1.3 3-3V35c0-1.7-1.3-3-3-3zm26 0c-1.7 0-3 1.3-3 3v10c0 1.7 1.3 3 3 3s3-1.3 3-3V35c0-1.7-1.3-3-3-3z"/></svg>