<?xml version="1.0" encoding="utf-8"?>
<!-- Generator: Adobe Illustrator 22.0.1, SVG Export Plug-In . SVG Version: 6.00 Build 0)  -->
<svg version="1.1" xmlns="http://www.w3.org/2000/svg" xmlns:xlink="http://www.w3.org/1999/xlink" x="0px" y="0px"
	 viewBox="0 0 144 266" style="enable-background:new 0 0 144 266;" xml:space="preserve">
<style type="text/css">
	.st0{fill:#FFFFFF;}
	.st1{fill:#FF9A00;}
	.st2{clip-path:url(#SVGID_2_);}
	.st3{fill:#FF3356;}
	.st4{fill:#FF9ABA;}
	.st5{clip-path:url(#SVGID_4_);}
	.st6{fill:#FFE900;}
	.st7{fill:#47D8D2;}
	.st8{clip-path:url(#SVGID_6_);fill:#FF9A00;}
	.st9{fill:#FF5D55;}
	.st10{clip-path:url(#SVGID_8_);}
	.st11{fill-rule:evenodd;clip-rule:evenodd;fill:#FF9933;}
	.st12{fill-rule:evenodd;clip-rule:evenodd;fill:#FFFF99;}
	.st13{fill-rule:evenodd;clip-rule:evenodd;fill:#FFAD33;}
	.st14{fill:#FFB700;}
	.st15{clip-path:url(#SVGID_10_);fill:#FF7B80;}
	.st16{fill:#53C8FF;}
	.st17{clip-path:url(#SVGID_12_);}
	.st18{fill:#29ABE2;}
	.st19{fill:#9263A3;}
	.st20{fill:#EF6770;}
	.st21{fill:#3A6F92;}
	.st22{opacity:0.15;clip-path:url(#SVGID_14_);}
	.st23{opacity:0.15;}
	.st24{clip-path:url(#SVGID_16_);fill:#FFFFFF;}
	.st25{fill:#FF7F8A;}
	.st26{clip-path:url(#SVGID_18_);}
	.st27{clip-path:url(#SVGID_20_);}
	.st28{fill:#ED1E79;}
	.st29{fill:#999999;}
</style>
<g id="Layer_3">
	<g>
		<defs>
			<path id="SVGID_11_" d="M-107.3,12h-110.9c-9.2,0-16.6-7.4-16.6-16.6v-232.4c0-9.2,7.4-16.6,16.6-16.6h110.9
				c9.2,0,16.6,7.4,16.6,16.6V-4.6C-90.7,4.6-98.2,12-107.3,12z"/>
		</defs>
		<clipPath id="SVGID_2_">
			<use xlink:href="#SVGID_11_"  style="overflow:visible;"/>
		</clipPath>
		<g class="st2">
			<polygon class="st18" points="-52.4,-78.6 -75.2,8.1 -58.8,-1.5 -42.8,-62.1 17.9,-46.2 34.3,-55.8 			"/>
			<polygon class="st18" points="-205.3,-26.1 -96.9,2.4 -68.4,-105.9 40,-77.4 30.4,-93.9 -78,-122.4 -106.5,-14 -214.8,-42.5 
				-243.3,65.9 -233.8,82.3 			"/>
			<polygon class="st18" points="-245.2,-94.5 -136.8,-66 -108.3,-174.4 0,-145.9 -9.5,-162.3 -117.9,-190.8 -146.4,-82.4 
				-254.8,-110.9 -283.3,-2.6 -273.7,13.8 			"/>
			<polygon class="st18" points="-219.6,-50.7 -111.3,-22.2 -82.8,-130.6 25.6,-102.1 16,-118.5 -92.3,-147 -120.9,-38.6 
				-229.2,-67.1 -257.7,41.2 -248.1,57.6 			"/>
		</g>
	</g>
	<path class="st21" d="M127.6,266H16.7c-9.2,0-16.6-7.4-16.6-16.6V17.1c0-9.2,7.4-16.6,16.6-16.6h110.9c9.2,0,16.6,7.4,16.6,16.6
		v232.4C144.2,258.6,136.7,266,127.6,266z"/>
	<path class="st0" d="M45.2,36H22.7c-6.8,0-12.2-5.5-12.2-12.2v0c0-6.8,5.5-12.2,12.2-12.2h22.5c6.8,0,12.2,5.5,12.2,12.2v0
		C57.5,30.5,52,36,45.2,36z"/>
	<g>
		<defs>
			<path id="SVGID_13_" d="M615.6,266H504.7c-9.2,0-16.6-7.4-16.6-16.6V17.1c0-9.2,7.4-16.6,16.6-16.6h110.9
				c9.2,0,16.6,7.4,16.6,16.6v232.4C632.2,258.6,624.7,266,615.6,266z"/>
		</defs>
		<clipPath id="SVGID_4_">
			<use xlink:href="#SVGID_13_"  style="overflow:visible;"/>
		</clipPath>
		<g style="opacity:0.15;clip-path:url(#SVGID_4_);">
			<defs>
				<rect id="SVGID_15_" x="345.4" y="-50.3" class="st23" width="358.3" height="358.3"/>
			</defs>
			<clipPath id="SVGID_6_">
				<use xlink:href="#SVGID_15_"  style="overflow:visible;"/>
			</clipPath>
			
				<rect x="28.7" y="-63.3" transform="matrix(0.7071 -0.7071 0.7071 0.7071 132.0431 214.1695)" style="clip-path:url(#SVGID_6_);fill:#FFFFFF;" width="591.6" height="22"/>
			
				<rect x="59.4" y="-32.7" transform="matrix(0.7071 -0.7071 0.7071 0.7071 119.3592 244.7907)" style="clip-path:url(#SVGID_6_);fill:#FFFFFF;" width="591.6" height="22"/>
		</g>
	</g>
</g>
<g id="Layer_2">
	<g id="Designed_by_Vecteezy">
	</g>
</g>
</svg>
