<?xml version="1.0" encoding="utf-8"?>
<!-- Generator: Adobe Illustrator 22.0.1, SVG Export Plug-In . SVG Version: 6.00 Build 0)  -->
<svg version="1.1" xmlns="http://www.w3.org/2000/svg" xmlns:xlink="http://www.w3.org/1999/xlink" x="0px" y="0px"
	 viewBox="0 0 144 264.7" style="enable-background:new 0 0 144 264.7;" xml:space="preserve">
<style type="text/css">
	.st0{fill:#FFFFFF;}
	.st1{fill:#FF9A00;}
	.st2{clip-path:url(#SVGID_2_);}
	.st3{fill:#FF3356;}
	.st4{fill:#FF9ABA;}
	.st5{clip-path:url(#SVGID_4_);}
	.st6{fill:#FFE900;}
	.st7{fill:#47D8D2;}
	.st8{clip-path:url(#SVGID_6_);fill:#FF9A00;}
	.st9{fill:#FF5D55;}
	.st10{clip-path:url(#SVGID_8_);}
	.st11{fill-rule:evenodd;clip-rule:evenodd;fill:#FF9933;}
	.st12{fill-rule:evenodd;clip-rule:evenodd;fill:#FFFF99;}
	.st13{fill-rule:evenodd;clip-rule:evenodd;fill:#FFAD33;}
	.st14{fill:#FFB700;}
	.st15{clip-path:url(#SVGID_10_);fill:#FF7B80;}
	.st16{fill:#53C8FF;}
	.st17{clip-path:url(#SVGID_12_);}
	.st18{fill:#29ABE2;}
	.st19{fill:#9263A3;}
	.st20{fill:#EF6770;}
	.st21{fill:#3A6F92;}
	.st22{opacity:0.15;clip-path:url(#SVGID_14_);}
	.st23{opacity:0.15;}
	.st24{clip-path:url(#SVGID_16_);fill:#FFFFFF;}
	.st25{clip-path:url(#SVGID_18_);}
	.st26{fill:#FF7F8A;}
	.st27{clip-path:url(#SVGID_20_);}
	.st28{fill:#ED1E79;}
	.st29{fill:#999999;}
</style>
<g id="Layer_3">
	<g>
		<defs>
			<path id="SVGID_19_" d="M127.5,265H16.6C7.4,265,0,257.6,0,248.4V16.1C0,6.9,7.4-0.5,16.6-0.5h110.9c9.2,0,16.6,7.4,16.6,16.6
				v232.4C144.1,257.6,136.6,265,127.5,265z"/>
		</defs>
		<clipPath id="SVGID_2_">
			<use xlink:href="#SVGID_19_"  style="overflow:visible;"/>
		</clipPath>
		<g class="st2">
			<g>
				<path class="st28" d="M-7.8,10.7C-9.9,18.1,6.4,31,6.4,31V17C6.4,5.9-5.3,2-7.8,10.7z"/>
				<path class="st28" d="M2.6,46.5c-2.5-8.6-14.1-4.7-14.1,6.4c0-11.1-11.7-15-14.1-6.4c-0.6,2.3,0.4,5.1,2.2,7.8H0.4
					C2.2,51.5,3.2,48.8,2.6,46.5z"/>
			</g>
			<g>
				<path class="st28" d="M42.2,17c0-11.1-11.7-15-14.1-6.4C25.9,18.1,42.2,31,42.2,31s16.3-12.9,14.1-20.4C53.9,2,42.2,5.9,42.2,17
					z"/>
				<path class="st28" d="M63.9,10.7C61.8,18.1,78,31,78,31V17C78,5.9,66.4,2,63.9,10.7z"/>
				<path class="st28" d="M38.4,46.5c-2.5-8.6-14.1-4.7-14.1,6.4c0-11.1-11.7-15-14.1-6.4c-0.6,2.3,0.4,5.1,2.2,7.8h23.9
					C38,51.5,39.1,48.8,38.4,46.5z"/>
				<path class="st28" d="M74.3,46.5c-2.5-8.6-14.1-4.7-14.1,6.4c0-11.1-11.7-15-14.1-6.4c-0.7,2.3,0.4,5.1,2.2,7.8H72
					C73.8,51.5,74.9,48.8,74.3,46.5z"/>
				<path class="st28" d="M20.5,10.7C18,2,6.4,5.9,6.4,17v14C6.4,31,22.6,18.1,20.5,10.7z"/>
			</g>
			<g>
				<path class="st28" d="M113.9,17c0-11.1-11.7-15-14.1-6.4C97.6,18.1,113.9,31,113.9,31s16.3-12.9,14.1-20.4
					C125.6,2,113.9,5.9,113.9,17z"/>
				<path class="st28" d="M135.6,10.7c-2.1,7.4,14.1,20.4,14.1,20.4V17C149.7,5.9,138,2,135.6,10.7z"/>
				<path class="st28" d="M110.1,46.5c-2.5-8.6-14.1-4.7-14.1,6.4c0-11.1-11.7-15-14.1-6.4c-0.6,2.3,0.4,5.1,2.2,7.8h23.9
					C109.7,51.5,110.8,48.8,110.1,46.5z"/>
				<path class="st28" d="M145.9,46.5c-2.5-8.6-14.1-4.7-14.1,6.4c0-11.1-11.7-15-14.1-6.4c-0.6,2.3,0.4,5.1,2.2,7.8h23.9
					C145.5,51.5,146.6,48.8,145.9,46.5z"/>
				<path class="st28" d="M92.2,10.7C89.7,2,78,5.9,78,17v14C78,31,94.3,18.1,92.2,10.7z"/>
			</g>
		</g>
		<g class="st2">
			<g>
				<path class="st28" d="M-7.8,82.3c-2.1,7.4,14.1,20.4,14.1,20.4v-14C6.4,77.6-5.3,73.7-7.8,82.3z"/>
				<path class="st28" d="M2.6,118.1c-2.5-8.6-14.1-4.7-14.1,6.4c0-11.1-11.7-15-14.1-6.4c-0.6,2.3,0.4,5.1,2.2,7.8H0.4
					C2.2,123.2,3.2,120.4,2.6,118.1z"/>
				<path class="st28" d="M-11.6,66.9c0,0,7.8-6.2,11.9-12.5h-23.9C-19.4,60.6-11.6,66.9-11.6,66.9z"/>
			</g>
			<g>
				<path class="st28" d="M42.2,88.7c0-11.1-11.7-15-14.1-6.4c-2.1,7.4,14.1,20.4,14.1,20.4s16.3-12.9,14.1-20.4
					C53.9,73.7,42.2,77.6,42.2,88.7z"/>
				<path class="st28" d="M63.9,82.3C61.8,89.8,78,102.7,78,102.7v-14C78,77.6,66.4,73.7,63.9,82.3z"/>
				<path class="st28" d="M38.4,118.1c-2.5-8.6-14.1-4.7-14.1,6.4c0-11.1-11.7-15-14.1-6.4c-0.6,2.3,0.4,5.1,2.2,7.8h23.9
					C38,123.2,39.1,120.4,38.4,118.1z"/>
				<path class="st28" d="M74.3,118.1c-2.5-8.6-14.1-4.7-14.1,6.4c0-11.1-11.7-15-14.1-6.4c-0.7,2.3,0.4,5.1,2.2,7.8H72
					C73.8,123.2,74.9,120.4,74.3,118.1z"/>
				<path class="st28" d="M20.5,82.3C18,73.7,6.4,77.6,6.4,88.7v14C6.4,102.7,22.6,89.8,20.5,82.3z"/>
				<path class="st28" d="M24.3,66.9c0,0,7.8-6.2,11.9-12.5H12.3C16.4,60.6,24.3,66.9,24.3,66.9z"/>
				<path class="st28" d="M60.1,66.9c0,0,7.8-6.2,11.9-12.5H48.2C52.3,60.6,60.1,66.9,60.1,66.9z"/>
			</g>
			<g>
				<path class="st28" d="M113.9,88.7c0-11.1-11.7-15-14.1-6.4c-2.1,7.4,14.1,20.4,14.1,20.4s16.3-12.9,14.1-20.4
					C125.6,73.7,113.9,77.6,113.9,88.7z"/>
				<path class="st28" d="M135.6,82.3c-2.1,7.4,14.1,20.4,14.1,20.4v-14C149.7,77.6,138,73.7,135.6,82.3z"/>
				<path class="st28" d="M110.1,118.1c-2.5-8.6-14.1-4.7-14.1,6.4c0-11.1-11.7-15-14.1-6.4c-0.6,2.3,0.4,5.1,2.2,7.8h23.9
					C109.7,123.2,110.8,120.4,110.1,118.1z"/>
				<path class="st28" d="M145.9,118.1c-2.5-8.6-14.1-4.7-14.1,6.4c0-11.1-11.7-15-14.1-6.4c-0.6,2.3,0.4,5.1,2.2,7.8h23.9
					C145.5,123.2,146.6,120.4,145.9,118.1z"/>
				<path class="st28" d="M92.2,82.3C89.7,73.7,78,77.6,78,88.7v14C78,102.7,94.3,89.8,92.2,82.3z"/>
				<path class="st28" d="M96,66.9c0,0,7.8-6.2,11.9-12.5H84C88.1,60.6,96,66.9,96,66.9z"/>
				<path class="st28" d="M131.8,66.9c0,0,7.8-6.2,11.9-12.5h-23.9C124,60.6,131.8,66.9,131.8,66.9z"/>
			</g>
		</g>
		<g class="st2">
			<g>
				<path class="st28" d="M-7.8,154c-2.1,7.4,14.1,20.4,14.1,20.4v-14C6.4,149.2-5.3,145.3-7.8,154z"/>
				<path class="st28" d="M2.6,189.8c-2.5-8.6-14.1-4.7-14.1,6.4c0-11.1-11.7-15-14.1-6.4c-0.6,2.3,0.4,5.1,2.2,7.8H0.4
					C2.2,194.9,3.2,192.1,2.6,189.8z"/>
				<path class="st28" d="M-11.6,138.5c0,0,7.8-6.2,11.9-12.5h-23.9C-19.4,132.3-11.6,138.5-11.6,138.5z"/>
			</g>
			<g>
				<path class="st28" d="M42.2,160.3c0-11.1-11.7-15-14.1-6.4c-2.1,7.4,14.1,20.4,14.1,20.4s16.3-12.9,14.1-20.4
					C53.9,145.3,42.2,149.2,42.2,160.3z"/>
				<path class="st28" d="M63.9,154c-2.1,7.4,14.1,20.4,14.1,20.4v-14C78,149.2,66.4,145.3,63.9,154z"/>
				<path class="st28" d="M38.4,189.8c-2.5-8.6-14.1-4.7-14.1,6.4c0-11.1-11.7-15-14.1-6.4c-0.6,2.3,0.4,5.1,2.2,7.8h23.9
					C38,194.9,39.1,192.1,38.4,189.8z"/>
				<path class="st28" d="M74.3,189.8c-2.5-8.6-14.1-4.7-14.1,6.4c0-11.1-11.7-15-14.1-6.4c-0.7,2.3,0.4,5.1,2.2,7.8H72
					C73.8,194.9,74.9,192.1,74.3,189.8z"/>
				<path class="st28" d="M20.5,154c-2.5-8.6-14.1-4.7-14.1,6.4v14C6.4,174.3,22.6,161.4,20.5,154z"/>
				<path class="st28" d="M24.3,138.5c0,0,7.8-6.2,11.9-12.5H12.3C16.4,132.3,24.3,138.5,24.3,138.5z"/>
				<path class="st28" d="M60.1,138.5c0,0,7.8-6.2,11.9-12.5H48.2C52.3,132.3,60.1,138.5,60.1,138.5z"/>
			</g>
			<g>
				<path class="st28" d="M113.9,160.3c0-11.1-11.7-15-14.1-6.4c-2.1,7.4,14.1,20.4,14.1,20.4s16.3-12.9,14.1-20.4
					C125.6,145.3,113.9,149.2,113.9,160.3z"/>
				<path class="st28" d="M135.6,154c-2.1,7.4,14.1,20.4,14.1,20.4v-14C149.7,149.2,138,145.3,135.6,154z"/>
				<path class="st28" d="M110.1,189.8c-2.5-8.6-14.1-4.7-14.1,6.4c0-11.1-11.7-15-14.1-6.4c-0.6,2.3,0.4,5.1,2.2,7.8h23.9
					C109.7,194.9,110.8,192.1,110.1,189.8z"/>
				<path class="st28" d="M145.9,189.8c-2.5-8.6-14.1-4.7-14.1,6.4c0-11.1-11.7-15-14.1-6.4c-0.6,2.3,0.4,5.1,2.2,7.8h23.9
					C145.5,194.9,146.6,192.1,145.9,189.8z"/>
				<path class="st28" d="M92.2,154c-2.5-8.6-14.1-4.7-14.1,6.4v14C78,174.3,94.3,161.4,92.2,154z"/>
				<path class="st28" d="M96,138.5c0,0,7.8-6.2,11.9-12.5H84C88.1,132.3,96,138.5,96,138.5z"/>
				<path class="st28" d="M131.8,138.5c0,0,7.8-6.2,11.9-12.5h-23.9C124,132.3,131.8,138.5,131.8,138.5z"/>
			</g>
		</g>
		<g class="st2">
			<g>
				<path class="st28" d="M-7.8,225.6C-9.9,233.1,6.4,246,6.4,246v-14C6.4,220.9-5.3,217-7.8,225.6z"/>
				<path class="st28" d="M2.6,261.4c-2.5-8.6-14.1-4.7-14.1,6.4c0-11.1-11.7-15-14.1-6.4c-0.6,2.3,0.4,5.1,2.2,7.8H0.4
					C2.2,266.5,3.2,263.7,2.6,261.4z"/>
				<path class="st28" d="M-11.6,210.2c0,0,7.8-6.2,11.9-12.5h-23.9C-19.4,203.9-11.6,210.2-11.6,210.2z"/>
			</g>
			<g>
				<path class="st28" d="M42.2,232c0-11.1-11.7-15-14.1-6.4c-2.1,7.4,14.1,20.4,14.1,20.4s16.3-12.9,14.1-20.4
					C53.9,217,42.2,220.9,42.2,232z"/>
				<path class="st28" d="M63.9,225.6C61.8,233.1,78,246,78,246v-14C78,220.9,66.4,217,63.9,225.6z"/>
				<path class="st28" d="M38.4,261.4c-2.5-8.6-14.1-4.7-14.1,6.4c0-11.1-11.7-15-14.1-6.4c-0.6,2.3,0.4,5.1,2.2,7.8h23.9
					C38,266.5,39.1,263.7,38.4,261.4z"/>
				<path class="st28" d="M74.3,261.4c-2.5-8.6-14.1-4.7-14.1,6.4c0-11.1-11.7-15-14.1-6.4c-0.7,2.3,0.4,5.1,2.2,7.8H72
					C73.8,266.5,74.9,263.7,74.3,261.4z"/>
				<path class="st28" d="M20.5,225.6C18,217,6.4,220.9,6.4,232v14C6.4,246,22.6,233.1,20.5,225.6z"/>
				<path class="st28" d="M24.3,210.2c0,0,7.8-6.2,11.9-12.5H12.3C16.4,203.9,24.3,210.2,24.3,210.2z"/>
				<path class="st28" d="M60.1,210.2c0,0,7.8-6.2,11.9-12.5H48.2C52.3,203.9,60.1,210.2,60.1,210.2z"/>
			</g>
			<g>
				<path class="st28" d="M113.9,232c0-11.1-11.7-15-14.1-6.4c-2.1,7.4,14.1,20.4,14.1,20.4s16.3-12.9,14.1-20.4
					C125.6,217,113.9,220.9,113.9,232z"/>
				<path class="st28" d="M135.6,225.6c-2.1,7.4,14.1,20.4,14.1,20.4v-14C149.7,220.9,138,217,135.6,225.6z"/>
				<path class="st28" d="M110.1,261.4c-2.5-8.6-14.1-4.7-14.1,6.4c0-11.1-11.7-15-14.1-6.4c-0.6,2.3,0.4,5.1,2.2,7.8h23.9
					C109.7,266.5,110.8,263.7,110.1,261.4z"/>
				<path class="st28" d="M145.9,261.4c-2.5-8.6-14.1-4.7-14.1,6.4c0-11.1-11.7-15-14.1-6.4c-0.6,2.3,0.4,5.1,2.2,7.8h23.9
					C145.5,266.5,146.6,263.7,145.9,261.4z"/>
				<path class="st28" d="M92.2,225.6C89.7,217,78,220.9,78,232v14C78,246,94.3,233.1,92.2,225.6z"/>
				<path class="st28" d="M96,210.2c0,0,7.8-6.2,11.9-12.5H84C88.1,203.9,96,210.2,96,210.2z"/>
				<path class="st28" d="M131.8,210.2c0,0,7.8-6.2,11.9-12.5h-23.9C124,203.9,131.8,210.2,131.8,210.2z"/>
			</g>
		</g>
	</g>
</g>
<g id="Layer_2">
	<g id="Designed_by_Vecteezy">
	</g>
</g>
</svg>
