<svg xmlns="http://www.w3.org/2000/svg" viewBox="0 0 26 26"><path d="M25.637 8.055l-1.684-1.68A3.065 3.065 0 0 1 22 7.09 3.09 3.09 0 0 1 18.91 4c0-.746.274-1.422.715-1.953L17.969.387a1 1 0 0 0-1.414 0L13.78 3.16a.54.54 0 0 1 .211.117l.34.34a.5.5 0 1 1-.707.707l-.34-.34a.481.481 0 0 1-.12-.21L.354 16.585a1 1 0 0 0 0 1.414l1.657 1.656A3.044 3.044 0 0 1 4 18.91 3.09 3.09 0 0 1 7.09 22a3.04 3.04 0 0 1-.746 1.988l1.68 1.68a1 1 0 0 0 1.414 0l12.78-12.777c-.034-.024-.073-.04-.105-.07l-.34-.34a.5.5 0 1 1 .707-.708l.34.34c.032.032.047.067.07.106l2.747-2.75a1 1 0 0 0 0-1.414zm-9.61-2.032a.497.497 0 0 1-.351.145.5.5 0 0 1-.356-.145l-.34-.34a.5.5 0 1 1 .707-.706l.34.34a.5.5 0 0 1 0 .706zm1.7 1.7a.5.5 0 0 1-.356.144.497.497 0 0 1-.351-.144l-.34-.34a.5.5 0 1 1 .707-.707l.34.34a.5.5 0 0 1 0 .707zm1.699 1.699a.506.506 0 0 1-.711 0l-.34-.34a.5.5 0 1 1 .707-.707l.34.34a.503.503 0 0 1 .004.707zm1.695 1.7a.5.5 0 0 1-.355.144.497.497 0 0 1-.352-.145l-.34-.34a.505.505 0 0 1 0-.71.503.503 0 0 1 .707.003l.34.34a.5.5 0 0 1 0 .707z"/></svg>