<?xml version="1.0" encoding="utf-8"?>
<!-- Generator: Adobe Illustrator 22.0.1, SVG Export Plug-In . SVG Version: 6.00 Build 0)  -->
<svg version="1.1" id="Layer_1" xmlns="http://www.w3.org/2000/svg" xmlns:xlink="http://www.w3.org/1999/xlink" x="0px" y="0px"
	 viewBox="0 0 176 368.1" style="enable-background:new 0 0 176 368.1;" xml:space="preserve">
<style type="text/css">
	.st0{fill:#3F5DAB;}
	.st1{fill:none;}
	.st2{fill:#B7E4F9;}
	.st3{clip-path:url(#SVGID_2_);}
	.st4{fill:#4378BC;}
	.st5{fill:#488ECC;}
	.st6{fill:#599EC9;}
	.st7{fill:#6AADCE;}
	.st8{fill:#79BDD8;}
	.st9{fill:#8ECCE1;}
	.st10{fill:#9CDAEA;}
	.st11{clip-path:url(#SVGID_4_);}
	.st12{clip-path:url(#SVGID_6_);}
	.st13{fill:#B4E3F3;}
	.st14{fill:#D5EEF6;}
	.st15{fill:#ECF8FD;}
	.st16{fill:#FFFFFF;}
	.st17{fill:#FFEAC0;}
	.st18{fill:#FCCB5B;}
	.st19{clip-path:url(#SVGID_8_);}
	.st20{fill:#FFF200;}
	.st21{fill:#603913;}
	.st22{fill:#D7DF23;}
	.st23{fill:#FFF2DA;}
	.st24{clip-path:url(#SVGID_10_);}
	.st25{fill:#F2DBBB;}
	.st26{fill:#EE2A7B;}
	.st27{fill:#BBAF32;}
	.st28{clip-path:url(#SVGID_12_);}
	.st29{fill:#EF3E23;}
	.st30{fill:#EC6C25;}
	.st31{fill:#E78828;}
	.st32{fill:#F19620;}
	.st33{fill:#F3A321;}
	.st34{fill:#F1B120;}
	.st35{fill:#F6C31F;}
	.st36{fill:#F4D122;}
	.st37{fill:#FED112;}
	.st38{fill:#FEE709;}
	.st39{fill:#F1E912;}
	.st40{fill:#04739A;}
	.st41{fill:#27AAE1;}
	.st42{clip-path:url(#SVGID_14_);}
	.st43{fill:#054D66;}
	.st44{opacity:0.57;}
	.st45{fill:#F1F2F2;}
	.st46{fill:#991D57;}
	.st47{fill:#EE3F90;}
	.st48{clip-path:url(#SVGID_16_);}
	.st49{fill:#00A79D;}
	.st50{fill:#007F73;}
	.st51{clip-path:url(#SVGID_18_);}
</style>
<g>
	<defs>
		<path id="SVGID_7_" d="M145.6,368.1H30.4C13.6,368.1,0,354.5,0,337.7V30.4C0,13.6,13.6,0,30.4,0h115.2C162.3,0,176,13.6,176,30.4
			v307.3C176,354.5,162.3,368.1,145.6,368.1z"/>
	</defs>
	<clipPath id="SVGID_2_">
		<use xlink:href="#SVGID_7_"  style="overflow:visible;"/>
	</clipPath>
	<g class="st3">
		<g>
			<path class="st20" d="M134.7,29.7c0,0-2.6,7.9-2.3,14.2c0.4,6.3,1.9,14.3,5.6,17.9c3.7,3.6,10.3,6.6,11.5,9.5c0,0-1.1,1.2-2.6,1
				c0,0-1.8-2.9-4.3-3.4c-2.5-0.5-12.3-1.4-16.3-8.9c-4-7.5-3.1-18.1-2.2-21.5c0.9-3.5,4.8-8.3,7-9.8
				C131.1,28.6,132.7,28,134.7,29.7z"/>
			<g>
				<path class="st21" d="M131.3,29C131.3,29,131.3,29,131.3,29c0.1-0.1,0.2-0.1,0.3-0.1c0,0,1.2,0.9,2.2,0.9c0.1,0,0.2,0.1,0.2,0.2
					c0,0.1-0.1,0.2-0.2,0.2c-1.1,0-2.4-0.9-2.4-0.9C131.3,29.2,131.3,29.1,131.3,29z"/>
			</g>
			<g>
				<path class="st21" d="M129.1,35c0.7-1.8,1.4-3,1.4-3c0.1-0.1,0.2-0.1,0.2-0.1c0.1,0.1,0.1,0.2,0.1,0.2c0,0-3,5-3.2,10.9
					c0,0.1-0.1,0.2-0.2,0.2c-0.1,0-0.2-0.1-0.2-0.2C127.4,39.9,128.2,37,129.1,35z"/>
			</g>
			<g>
				<path class="st21" d="M127.2,44.9c0-0.1,0.1-0.1,0.2-0.1c0.1,0,0.2,0.1,0.2,0.2c-0.6,8.4,3.4,13.9,5,15.2c1.2,1,3.7,2.9,3.7,3
					c0.1,0.1,0.1,0.2,0,0.2c-0.1,0.1-0.2,0.1-0.2,0c0,0-2.6-1.9-3.8-3C130.7,59,126.5,53.5,127.2,44.9
					C127.1,44.9,127.2,44.9,127.2,44.9z"/>
			</g>
			<g>
				<path class="st21" d="M143.1,68.2C143.1,68.2,143.2,68.1,143.1,68.2c1.2-0.6,1.7-1.4,1.7-1.4c0-0.1,0.2-0.1,0.2-0.1
					c0.1,0,0.1,0.2,0.1,0.2c0,0-0.5,0.9-1.8,1.4c-0.1,0-0.2,0-0.2-0.1C143.1,68.3,143.1,68.3,143.1,68.2z"/>
			</g>
			<path class="st22" d="M149.5,71.2c-0.5-1.3-2.2-2.6-4.2-4c0,0-1.3,1.1-2.4,1.8c2.4,0.6,4,3.3,4,3.3
				C148.4,72.5,149.5,71.2,149.5,71.2z"/>
			<g>
				<path class="st21" d="M124.4,37.2c1.3-3.2,4.6-7.2,6.6-8.7c0.1,0,1.7-0.7,3.8,1c0.1,0,0.1,0.1,0.1,0.2c0,0.1-2.6,7.9-2.2,14.1
					c0.2,4,1.3,13.6,5.5,17.8c1.5,1.5,3.6,2.9,5.6,4.2c2.7,1.8,5.3,3.6,6,5.3c0,0.1,0,0.1,0,0.2c0,0.1-1.2,1.3-2.7,1.1
					c-0.1,0-0.1,0-0.1-0.1c0,0-1.8-2.8-4.1-3.3c-0.3-0.1-0.6-0.1-1-0.2c-3.5-0.6-11.8-2-15.4-8.8c-3.9-7.3-3.2-17.8-2.3-21.7
					C124.1,38,124.2,37.6,124.4,37.2z M134.5,29.7c-1.8-1.5-3.2-0.9-3.3-0.9c-2,1.4-5.2,5.3-6.5,8.5c-0.2,0.4-0.3,0.8-0.4,1.2
					c-0.9,3.8-1.6,14.1,2.2,21.4c3.5,6.6,11.7,8,15.1,8.6c0.4,0.1,0.8,0.1,1,0.2c2.3,0.5,4,2.9,4.3,3.4c1.1,0.1,2-0.7,2.3-0.9
					c-0.7-1.6-3.2-3.3-5.8-5c-2-1.3-4.1-2.7-5.6-4.3c-4.3-4.3-5.4-14-5.6-18C131.9,38,134.2,30.7,134.5,29.7z"/>
			</g>
		</g>
		<g>
			<path class="st20" d="M197.1,26.5c0,0-5.7-6.1-11.4-8.8c-5.7-2.7-13.5-5.2-18.4-3.7c-4.9,1.5-10.7,5.9-13.8,5.5
				c0,0-0.6-1.5,0.3-2.8c0,0,3.3-0.2,5-2.1c1.6-1.9,7.1-10.1,15.6-10c8.5,0.1,17.3,5.9,20,8.3c2.6,2.4,5,8.2,5.3,10.8
				C199.7,23.8,199.5,25.5,197.1,26.5z"/>
			<g>
				<path class="st21" d="M187.4,12.6c0,0.1,0.1,0.1,0,0.2c-0.1,0.1-0.2,0.1-0.2,0.1c-7.1-4.6-13.8-3.6-15.8-2.9
					c-1.5,0.5-4.4,1.9-4.4,1.9c-0.1,0-0.2,0-0.2-0.1c0-0.1,0-0.2,0.1-0.2c0,0,2.9-1.3,4.4-1.9C173.3,8.8,180.1,7.9,187.4,12.6
					C187.3,12.5,187.4,12.6,187.4,12.6z"/>
			</g>
			<g>
				<path class="st21" d="M159.2,15.4c0,0,0,0.1,0,0.1c-0.1,1.2,0.3,2,0.3,2c0,0.1,0,0.2-0.1,0.2c-0.1,0-0.2,0-0.2-0.1
					c0,0-0.5-0.9-0.4-2.2c0-0.1,0.1-0.2,0.2-0.2C159.2,15.3,159.2,15.4,159.2,15.4z"/>
			</g>
			<path class="st22" d="M153.5,19.6c1.4,0.2,3.4-0.6,5.5-1.7c0,0-0.3-1.6-0.4-3c-1.7,1.8-4.8,1.9-4.8,1.9
				C153,18,153.5,19.6,153.5,19.6z"/>
			<g>
				<path class="st21" d="M195.4,13.8c2.2,2.7,4.2,7.5,4.4,10c0,0.1-0.2,1.9-2.7,2.8c-0.1,0-0.1,0-0.2,0c-0.1-0.1-5.7-6.1-11.3-8.7
					c-3.6-1.7-12.5-5.4-18.3-3.7c-2.1,0.6-4.3,1.8-6.4,2.9c-2.9,1.5-5.6,2.9-7.5,2.7c-0.1,0-0.1-0.1-0.1-0.1c0-0.1-0.6-1.6,0.3-2.9
					c0,0,0.1-0.1,0.1-0.1c0,0,3.3-0.2,4.9-2.1c0.2-0.2,0.4-0.5,0.6-0.8c2.2-2.8,7.4-9.4,15.1-9.3c8.3,0.1,17.1,5.7,20.1,8.4
					C194.8,13.2,195.1,13.5,195.4,13.8z M197.1,26.3c2.2-0.9,2.4-2.4,2.4-2.5c-0.3-2.4-2.2-7.1-4.4-9.7c-0.3-0.4-0.6-0.7-0.9-0.9
					c-2.9-2.7-11.6-8.2-19.9-8.3c-7.5-0.1-12.6,6.4-14.8,9.2c-0.3,0.3-0.5,0.6-0.7,0.8c-1.5,1.8-4.5,2.1-5,2.2
					c-0.6,0.9-0.4,2.1-0.3,2.4c1.8,0.1,4.4-1.2,7.2-2.7c2.1-1.1,4.3-2.2,6.4-2.9c5.8-1.8,14.9,2,18.5,3.7
					C191.1,20,196.4,25.5,197.1,26.3z"/>
			</g>
		</g>
		<g>
			<path class="st20" d="M53.2,151.9c0,0-8.1,2-13.2,5.8c-5.1,3.7-11,9.3-12,14.4s0,12.2-1.8,14.8c0,0-1.6-0.2-2.3-1.6
				c0,0,1.4-3,0.5-5.4c-0.9-2.4-5.4-11.1-1.3-18.5c4.1-7.4,13.5-12.4,16.9-13.5c3.4-1.2,9.6-0.5,12,0.5
				C52.1,148.3,53.5,149.3,53.2,151.9z"/>
			<g>
				<path class="st21" d="M51.9,148.7C51.9,148.7,51.9,148.7,51.9,148.7c0.1,0,0.2,0.1,0.2,0.2c0,0-0.1,1.5,0.5,2.4
					c0.1,0.1,0,0.2-0.1,0.2c-0.1,0-0.2,0-0.2-0.1c-0.6-0.9-0.5-2.5-0.5-2.6C51.8,148.8,51.8,148.7,51.9,148.7z"/>
			</g>
			<g>
				<path class="st21" d="M45.7,150c1.9-0.4,3.3-0.4,3.3-0.4c0.1,0,0.2,0.1,0.2,0.2c0,0.1-0.1,0.2-0.2,0.2c-0.1,0-5.8,0.2-10.9,3.2
					c-0.1,0.1-0.2,0-0.2-0.1c0-0.1,0-0.2,0.1-0.2C40.6,151.2,43.5,150.4,45.7,150z"/>
			</g>
			<g>
				<path class="st21" d="M36.3,153.7c0.1,0,0.1,0,0.2,0.1c0,0.1,0,0.2-0.1,0.2c-7.4,4.1-9.8,10.4-10.1,12.5
					c-0.2,1.5-0.5,4.7-0.5,4.7c0,0.1-0.1,0.2-0.2,0.2c-0.1,0-0.2-0.1-0.2-0.2c0,0,0.2-3.2,0.5-4.8C26.3,164.3,28.7,157.9,36.3,153.7
					C36.3,153.8,36.3,153.8,36.3,153.7z"/>
			</g>
			<g>
				<path class="st21" d="M25.3,179.8c0,0,0.1,0,0.1,0c1,0.7,1.9,0.7,2,0.7c0.1,0,0.2,0.1,0.2,0.2c0,0.1-0.1,0.2-0.2,0.2
					c0,0-1.1,0-2.2-0.7c-0.1-0.1-0.1-0.2,0-0.2C25.2,179.8,25.2,179.8,25.3,179.8z"/>
			</g>
			<path class="st22" d="M26.2,186.8c0.8-1.2,1-3.3,1.1-5.7c0,0-1.6-0.5-2.8-1.1c0.7,2.3-0.6,5.2-0.6,5.2
				C24.6,186.5,26.2,186.8,26.2,186.8z"/>
			<g>
				<path class="st21" d="M41.3,147.3c3.4-0.6,8.5-0.1,10.9,0.9c0.1,0.1,1.5,1.1,1.2,3.7c0,0.1-0.1,0.1-0.1,0.1
					c-0.1,0-8.1,2.1-13.1,5.7c-3.2,2.3-10.7,8.4-12,14.3c-0.4,2.1-0.5,4.6-0.6,7c-0.1,3.3-0.2,6.3-1.2,7.9c0,0.1-0.1,0.1-0.2,0.1
					c-0.1,0-1.7-0.3-2.4-1.7c0,0,0-0.1,0-0.1c0,0,1.4-3,0.5-5.3c-0.1-0.2-0.2-0.6-0.4-0.9c-1.4-3.3-4.7-11-0.9-17.7
					c4.1-7.3,13.2-12.3,17-13.6C40.4,147.5,40.8,147.4,41.3,147.3z M53,151.7c0.3-2.4-1-3.2-1-3.3c-2.2-0.9-7.3-1.5-10.6-0.8
					c-0.5,0.1-0.9,0.2-1.2,0.3c-3.8,1.3-12.8,6.3-16.8,13.4c-3.7,6.5-0.4,14.1,0.9,17.4c0.2,0.4,0.3,0.7,0.4,1
					c0.8,2.2-0.3,5-0.5,5.5c0.5,1,1.7,1.3,2,1.4c1-1.5,1-4.4,1.1-7.6c0.1-2.4,0.1-4.9,0.6-7c1.2-6,8.9-12.1,12.1-14.5
					C44.6,154,52,152,53,151.7z"/>
			</g>
		</g>
		<g>
			<path class="st20" d="M105.9,203.6c0,0-4.9-6.8-10.2-10.1c-5.3-3.3-12.7-6.8-17.8-5.9c-5.1,0.9-11.3,4.6-14.4,3.8
				c0,0-0.4-1.6,0.6-2.7c0,0,3.3,0.2,5.2-1.5c1.9-1.7,8.3-9.2,16.7-8.1c8.4,1.1,16.5,8,18.8,10.7c2.3,2.7,4,8.7,3.9,11.4
				C108.8,201.3,108.4,203,105.9,203.6z"/>
			<g>
				<path class="st21" d="M108.4,201.2C108.4,201.2,108.4,201.3,108.4,201.2c0,0.1,0,0.2-0.1,0.3c0,0-1.4,0.5-2,1.3
					c-0.1,0.1-0.2,0.1-0.2,0c-0.1-0.1-0.1-0.2,0-0.2c0.7-0.9,2.1-1.4,2.2-1.4C108.3,201.1,108.3,201.2,108.4,201.2z"/>
			</g>
			<g>
				<path class="st21" d="M104.8,195.9c1.1,1.7,1.6,2.9,1.6,2.9c0,0.1,0,0.2-0.1,0.2c-0.1,0-0.2,0-0.2-0.1c0-0.1-2.3-5.3-7-8.9
					c-0.1-0.1-0.1-0.2,0-0.2c0.1-0.1,0.2-0.1,0.2,0C101.8,191.7,103.7,194.1,104.8,195.9z"/>
			</g>
			<g>
				<path class="st21" d="M97.9,188.6c0,0.1,0,0.1,0,0.2c-0.1,0.1-0.2,0.1-0.2,0c-6.5-5.4-13.3-5.3-15.3-4.8
					c-1.5,0.4-4.5,1.3-4.6,1.3c-0.1,0-0.2,0-0.2-0.1c0-0.1,0-0.2,0.1-0.2c0,0,3.1-1,4.6-1.3C84.4,183.2,91.3,183.1,97.9,188.6
					C97.9,188.6,97.9,188.6,97.9,188.6z"/>
			</g>
			<g>
				<path class="st21" d="M69.6,188c0,0,0,0.1,0,0.1c-0.3,1.2,0.1,2.1,0.1,2.1c0,0.1,0,0.2-0.1,0.2c-0.1,0-0.2,0-0.2-0.1
					c0,0-0.4-1-0.1-2.3c0-0.1,0.1-0.2,0.2-0.1C69.6,187.9,69.6,188,69.6,188z"/>
			</g>
			<path class="st22" d="M63.5,191.5c1.4,0.3,3.4-0.2,5.7-1c0,0-0.1-1.7,0-3c-1.9,1.5-5,1.3-5,1.3C63.1,189.9,63.5,191.5,63.5,191.5
				z"/>
			<g>
				<path class="st21" d="M105.8,190.9c1.9,2.9,3.2,7.9,3.2,10.4c0,0.1-0.4,1.8-3,2.5c-0.1,0-0.1,0-0.2-0.1c0-0.1-4.9-6.8-10.2-10
					c-3.4-2.1-11.8-6.9-17.7-5.8c-2.1,0.4-4.4,1.2-6.7,2.1c-3.1,1.1-6,2.2-7.8,1.8c-0.1,0-0.1-0.1-0.1-0.1c0-0.1-0.4-1.7,0.7-2.9
					c0,0,0.1-0.1,0.1-0.1c0,0,3.3,0.2,5.1-1.4c0.2-0.2,0.4-0.4,0.7-0.7c2.5-2.5,8.5-8.4,16.1-7.4c8.3,1.1,16.3,7.7,18.9,10.8
					C105.2,190.1,105.5,190.5,105.8,190.9z M106,203.4c2.3-0.6,2.7-2.1,2.7-2.2c0-2.4-1.3-7.3-3.1-10.2c-0.2-0.4-0.5-0.7-0.8-1
					c-2.6-3-10.5-9.6-18.7-10.7c-7.4-1-13.3,4.8-15.8,7.3c-0.3,0.3-0.5,0.5-0.7,0.7c-1.8,1.6-4.7,1.6-5.3,1.5
					c-0.7,0.9-0.6,2-0.6,2.4c1.7,0.4,4.5-0.7,7.5-1.8c2.3-0.8,4.6-1.7,6.7-2.1c6-1,14.5,3.8,17.9,5.9
					C100.7,196.5,105.3,202.6,106,203.4z"/>
			</g>
		</g>
		<g>
			<path class="st20" d="M-3,258.7c0,0,6.4-5.4,9.3-10.9c2.9-5.6,5.8-13.2,4.5-18.2c-1.3-5-5.4-11-4.9-14.1c0,0,1.6-0.5,2.7,0.4
				c0,0,0,3.4,1.9,5.1c1.8,1.7,9.8,7.6,9.3,16.1c-0.5,8.5-6.8,17-9.3,19.5c-2.5,2.5-8.4,4.6-11.1,4.8C-0.5,261.5-2.2,261.2-3,258.7z
				"/>
			<g>
				<path class="st21" d="M4.6,257.1c-1.6,1.2-2.8,1.8-2.8,1.8c-0.1,0-0.2,0-0.2-0.1c0-0.1,0-0.2,0.1-0.2c0.1,0,5.2-2.7,8.4-7.7
					c0.1-0.1,0.2-0.1,0.2-0.1c0.1,0.1,0.1,0.2,0.1,0.2C8.6,253.8,6.3,255.8,4.6,257.1z"/>
			</g>
			<g>
				<path class="st21" d="M11.3,249.7c-0.1,0-0.1,0-0.2,0c-0.1-0.1-0.1-0.2,0-0.2c4.9-6.9,4.3-13.6,3.6-15.6
					c-0.5-1.5-1.6-4.4-1.7-4.5c0-0.1,0-0.2,0.1-0.2c0.1,0,0.2,0,0.2,0.1c0,0,1.2,3,1.7,4.5C15.7,235.7,16.3,242.6,11.3,249.7
					C11.3,249.6,11.3,249.7,11.3,249.7z"/>
			</g>
			<g>
				<path class="st21" d="M9.8,221.4c0,0-0.1,0-0.1,0c-1.2-0.2-2,0.2-2.1,0.2c-0.1,0-0.2,0-0.2-0.1c0-0.1,0-0.2,0.1-0.2
					c0,0,0.9-0.5,2.3-0.3c0.1,0,0.2,0.1,0.1,0.2C9.9,221.4,9.9,221.4,9.8,221.4z"/>
			</g>
			<path class="st22" d="M6,215.5c-0.2,1.4,0.5,3.4,1.5,5.6c0,0,1.7-0.3,3-0.2c-1.7-1.8-1.7-4.9-1.7-4.9C7.5,215,6,215.5,6,215.5z"
				/>
			<g>
				<path class="st21" d="M9.7,257.7c-2.8,2.1-7.6,3.8-10.2,4c-0.1,0-1.9-0.3-2.7-2.8c0-0.1,0-0.1,0.1-0.2c0.1-0.1,6.4-5.4,9.3-10.9
					c1.8-3.5,6-12.3,4.5-18.1c-0.5-2.1-1.6-4.3-2.5-6.5c-1.4-3-2.6-5.8-2.3-7.6c0-0.1,0.1-0.1,0.1-0.1c0.1,0,1.7-0.5,2.9,0.5
					c0,0,0.1,0.1,0.1,0.1c0,0,0,3.3,1.8,5c0.2,0.2,0.5,0.4,0.8,0.7c2.7,2.4,9,7.9,8.6,15.5c-0.5,8.3-6.5,16.8-9.3,19.7
					C10.4,257.1,10,257.4,9.7,257.7z M-2.8,258.8c0.8,2.2,2.3,2.5,2.3,2.5c2.4-0.2,7.2-1.9,9.9-3.9c0.4-0.3,0.7-0.6,1-0.8
					c2.8-2.8,8.8-11.2,9.2-19.4c0.4-7.5-5.8-12.9-8.4-15.2c-0.3-0.3-0.6-0.5-0.8-0.7c-1.7-1.6-1.9-4.6-1.9-5.1
					c-0.9-0.7-2.1-0.5-2.4-0.4c-0.2,1.7,1,4.5,2.3,7.3c1,2.2,2,4.5,2.6,6.6c1.5,5.9-2.7,14.8-4.6,18.3C3.7,253-2,258.1-2.8,258.8z"
					/>
			</g>
		</g>
		<g>
			<path class="st20" d="M85.1,264c0,0,1.2-8.2-0.3-14.4c-1.5-6.1-4.4-13.7-8.7-16.6c-4.2-2.9-11.3-4.6-13-7.3c0,0,0.8-1.4,2.4-1.5
				c0,0,2.2,2.5,4.8,2.6c2.5,0.1,12.3-0.8,17.6,5.9c5.2,6.7,6.2,17.2,6,20.8c-0.2,3.6-3.2,9-5.1,10.9
				C88.8,264.4,87.3,265.4,85.1,264z"/>
			<g>
				<path class="st21" d="M88.5,264.1C88.5,264.1,88.5,264.1,88.5,264.1c-0.1,0.1-0.2,0.2-0.2,0.1c0,0-1.4-0.6-2.4-0.5
					c-0.1,0-0.2,0-0.2-0.1c0-0.1,0-0.2,0.1-0.2c1.1-0.2,2.5,0.5,2.6,0.5C88.5,263.9,88.5,264,88.5,264.1z"/>
			</g>
			<g>
				<path class="st21" d="M89.7,257.8c-0.4,1.9-0.9,3.2-0.9,3.2c0,0.1-0.1,0.1-0.2,0.1c-0.1,0-0.1-0.1-0.1-0.2
					c0-0.1,2.1-5.4,1.2-11.3c0-0.1,0.1-0.2,0.1-0.2c0.1,0,0.2,0.1,0.2,0.1C90.5,252.7,90.1,255.7,89.7,257.8z"/>
			</g>
			<g>
				<path class="st21" d="M89.8,247.8c0,0.1-0.1,0.1-0.2,0.1c-0.1,0-0.2-0.1-0.2-0.2c-0.9-8.4-5.8-13-7.6-14.1
					c-1.3-0.8-4.2-2.2-4.2-2.2c-0.1,0-0.1-0.1-0.1-0.2c0-0.1,0.1-0.1,0.2-0.1c0,0,2.9,1.5,4.2,2.3C83.9,234.4,88.9,239.2,89.8,247.8
					C89.8,247.7,89.8,247.7,89.8,247.8z"/>
			</g>
			<g>
				<path class="st21" d="M70,227.6c0,0,0,0.1-0.1,0.1c-1,0.7-1.4,1.5-1.4,1.5c0,0.1-0.1,0.1-0.2,0.1c-0.1,0-0.1-0.1-0.1-0.2
					c0,0,0.4-1,1.5-1.7c0.1-0.1,0.2,0,0.2,0.1C70,227.5,70,227.5,70,227.6z"/>
			</g>
			<path class="st22" d="M63.2,225.8c0.8,1.2,2.6,2.2,4.8,3.2c0,0,1.1-1.3,2.1-2.2c-2.4-0.2-4.5-2.5-4.5-2.5
				C64,224.3,63.2,225.8,63.2,225.8z"/>
			<g>
				<path class="st21" d="M93.9,254.8c-0.7,3.4-3.2,7.9-5,9.7c-0.1,0.1-1.6,1-3.9-0.3c-0.1,0-0.1-0.1-0.1-0.2
					c0-0.1,1.2-8.3-0.3-14.3c-0.9-3.8-3.7-13.2-8.6-16.5c-1.8-1.2-4-2.2-6.2-3.2c-3-1.3-5.8-2.6-6.8-4.2c0-0.1,0-0.1,0-0.2
					c0-0.1,0.9-1.5,2.5-1.6c0.1,0,0.1,0,0.1,0.1c0,0,2.2,2.4,4.7,2.5c0.3,0,0.6,0,1,0c3.6,0,11.9-0.1,16.7,5.9
					c5.2,6.5,6.3,16.9,6,20.9C94,253.9,94,254.4,93.9,254.8z M85.2,264c2.1,1.2,3.4,0.4,3.4,0.3c1.7-1.7,4.2-6.2,4.9-9.5
					c0.1-0.5,0.2-0.9,0.2-1.3c0.3-4-0.9-14.2-6-20.7c-4.6-5.9-12.9-5.8-16.4-5.8c-0.4,0-0.8,0-1,0c-2.4-0.1-4.5-2.2-4.8-2.6
					c-1.1,0.1-1.9,1-2.1,1.3c1,1.5,3.7,2.7,6.6,3.9c2.2,1,4.5,2,6.3,3.2c5,3.4,7.8,12.8,8.7,16.7C86.3,255.3,85.4,262.9,85.2,264z"
					/>
			</g>
		</g>
		<g>
			<path class="st20" d="M155.5,208c0,0-4.6,6.9-5.9,13.1c-1.3,6.2-1.9,14.3,0.7,18.7c2.6,4.4,8.2,9,8.6,12.1c0,0-1.4,0.9-2.8,0.3
				c0,0-1-3.2-3.2-4.4c-2.3-1.2-11.5-4.6-13.4-12.8c-1.9-8.3,1.7-18.2,3.5-21.4c1.7-3.1,6.8-6.8,9.3-7.7
				C152.3,206.1,154,205.9,155.5,208z"/>
			<g>
				<path class="st21" d="M152.4,206.5C152.4,206.5,152.4,206.5,152.4,206.5c0.1-0.1,0.2-0.1,0.3,0c0,0,1,1.1,1.9,1.4
					c0.1,0,0.1,0.1,0.1,0.2c0,0.1-0.1,0.1-0.2,0.1c-1.1-0.3-2.1-1.5-2.1-1.5C152.3,206.7,152.3,206.6,152.4,206.5z"/>
			</g>
			<g>
				<path class="st21" d="M148.6,211.7c1.2-1.6,2.2-2.5,2.2-2.5c0.1-0.1,0.2-0.1,0.2,0c0.1,0.1,0.1,0.2,0,0.2c0,0-4.2,4-5.9,9.7
					c0,0.1-0.1,0.1-0.2,0.1c-0.1,0-0.1-0.1-0.1-0.2C145.7,216,147.3,213.4,148.6,211.7z"/>
			</g>
			<g>
				<path class="st21" d="M144.2,220.7c0-0.1,0.1-0.1,0.2-0.1c0.1,0,0.1,0.1,0.1,0.2c-2.8,8-0.3,14.3,0.9,16
					c0.9,1.3,2.8,3.8,2.8,3.8c0.1,0.1,0,0.2,0,0.2c-0.1,0.1-0.2,0-0.2,0c0,0-2-2.5-2.9-3.8C143.9,235.3,141.4,228.9,144.2,220.7
					C144.2,220.8,144.2,220.7,144.2,220.7z"/>
			</g>
			<g>
				<path class="st21" d="M153.5,247.4c0,0,0.1-0.1,0.1-0.1c1.2-0.2,1.9-0.8,1.9-0.8c0.1-0.1,0.2-0.1,0.2,0c0.1,0.1,0.1,0.2,0,0.2
					c0,0-0.8,0.7-2.1,0.9c-0.1,0-0.2-0.1-0.2-0.1C153.5,247.5,153.5,247.5,153.5,247.4z"/>
			</g>
			<path class="st22" d="M158.9,252c-0.2-1.4-1.4-3.1-3-5c0,0-1.5,0.7-2.8,1.1c2.1,1.2,3,4.2,3,4.2C157.5,252.9,158.9,252,158.9,252
				z"/>
			<g>
				<path class="st21" d="M143.6,212.6c2.1-2.8,6.3-5.8,8.6-6.6c0.1,0,1.9-0.2,3.4,2c0,0.1,0,0.1,0,0.2c0,0.1-4.6,7-5.9,13.1
					c-0.8,3.9-2.3,13.5,0.7,18.6c1.1,1.9,2.7,3.7,4.3,5.5c2.1,2.5,4.1,4.8,4.4,6.7c0,0.1,0,0.1-0.1,0.2c-0.1,0-1.5,1-2.9,0.4
					c0,0-0.1-0.1-0.1-0.1c0,0-1-3.2-3.1-4.3c-0.2-0.1-0.6-0.3-0.9-0.4c-3.2-1.5-10.8-5-12.5-12.5c-1.9-8.1,1.5-18,3.5-21.5
					C143,213.3,143.3,213,143.6,212.6z M155.2,208c-1.4-1.9-2.9-1.8-3-1.7c-2.3,0.8-6.4,3.8-8.4,6.5c-0.3,0.4-0.5,0.7-0.7,1.1
					c-1.9,3.5-5.3,13.2-3.4,21.2c1.7,7.3,9.2,10.8,12.4,12.3c0.4,0.2,0.7,0.3,0.9,0.4c2.1,1.1,3.1,3.9,3.3,4.4
					c1.1,0.4,2.1-0.1,2.4-0.3c-0.3-1.7-2.2-4-4.3-6.4c-1.6-1.8-3.2-3.7-4.3-5.6c-3.1-5.3-1.5-14.9-0.7-18.8
					C150.6,215.4,154.7,208.9,155.2,208z"/>
			</g>
		</g>
		<g>
			<path class="st20" d="M180.4,299.7c0,0-6.2-5.6-12.1-7.7c-5.9-2.1-13.9-3.9-18.6-2c-4.8,1.9-10.1,6.8-13.3,6.7
				c0,0-0.7-1.5,0.1-2.8c0,0,3.3-0.5,4.8-2.6c1.5-2.1,6.2-10.7,14.6-11.4c8.4-0.7,17.8,4.4,20.6,6.5c2.8,2.2,5.7,7.7,6.2,10.3
				C182.7,296.9,182.7,298.6,180.4,299.7z"/>
			<g>
				<path class="st21" d="M177.7,292.4c1.4,1.4,2.2,2.5,2.2,2.5c0.1,0.1,0,0.2,0,0.2c-0.1,0.1-0.2,0-0.2,0c0,0-3.4-4.7-8.8-7.3
					c-0.1,0-0.1-0.1-0.1-0.2c0-0.1,0.1-0.1,0.2-0.1C173.9,288.9,176.2,290.9,177.7,292.4z"/>
			</g>
			<g>
				<path class="st21" d="M169.4,286.8c0.1,0.1,0.1,0.1,0,0.2c0,0.1-0.1,0.1-0.2,0.1c-7.5-3.9-14.1-2.4-16-1.5
					c-1.4,0.7-4.2,2.2-4.2,2.3c-0.1,0-0.2,0-0.2-0.1c0-0.1,0-0.2,0.1-0.2c0,0,2.8-1.6,4.2-2.3C155,284.3,161.8,282.8,169.4,286.8
					C169.4,286.7,169.4,286.8,169.4,286.8z"/>
			</g>
			<g>
				<path class="st21" d="M141.7,292.1c0,0,0.1,0.1,0.1,0.1c0,1.2,0.5,2,0.5,2c0.1,0.1,0,0.2,0,0.2c-0.1,0.1-0.2,0-0.2,0
					c0,0-0.6-0.9-0.6-2.2c0-0.1,0.1-0.2,0.2-0.2C141.6,292,141.6,292.1,141.7,292.1z"/>
			</g>
			<path class="st22" d="M136.4,296.8c1.4,0,3.3-0.9,5.4-2.2c0,0-0.5-1.6-0.6-2.9c-1.5,1.9-4.6,2.4-4.6,2.4
				C135.7,295.3,136.4,296.8,136.4,296.8z"/>
			<g>
				<path class="st21" d="M177.6,287.3c2.4,2.5,4.8,7.1,5.3,9.5c0,0.1,0,1.9-2.4,3.1c-0.1,0-0.1,0-0.2,0c-0.1-0.1-6.2-5.6-12.1-7.7
					c-3.7-1.3-13-4.2-18.5-2c-2,0.8-4.1,2.1-6.1,3.4c-2.8,1.8-5.4,3.4-7.2,3.4c-0.1,0-0.1,0-0.2-0.1c0-0.1-0.7-1.6,0.1-2.9
					c0,0,0.1-0.1,0.1-0.1c0,0,3.3-0.5,4.7-2.5c0.2-0.2,0.3-0.5,0.6-0.9c2-3,6.6-10,14.2-10.6c8.3-0.7,17.6,4.1,20.8,6.6
					C176.9,286.7,177.3,287,177.6,287.3z M180.4,299.5c2.1-1.1,2.2-2.6,2.2-2.7c-0.5-2.4-2.8-6.9-5.2-9.3c-0.3-0.3-0.6-0.6-1-0.9
					c-3.2-2.4-12.3-7.1-20.5-6.5c-7.5,0.6-12,7.5-13.9,10.4c-0.2,0.3-0.4,0.6-0.6,0.9c-1.4,1.9-4.3,2.5-4.8,2.6
					c-0.5,1-0.2,2.1-0.1,2.5c1.8,0,4.3-1.6,6.9-3.3c2-1.3,4.1-2.6,6.2-3.4c5.6-2.3,15,0.6,18.8,2
					C173.8,293.8,179.6,298.8,180.4,299.5z"/>
			</g>
		</g>
		<g>
			<path class="st20" d="M19.7,281.8c0,0,5.7,6.1,11.4,8.8c5.7,2.7,13.5,5.2,18.4,3.7c4.9-1.5,10.7-5.9,13.8-5.5
				c0,0,0.6,1.5-0.3,2.8c0,0-3.4,0.2-5,2.1c-1.6,1.9-7.1,10.1-15.6,10c-8.5-0.1-17.3-5.9-20-8.4c-2.6-2.4-5-8.2-5.3-10.8
				C17.1,284.5,17.2,282.8,19.7,281.8z"/>
			<g>
				<path class="st21" d="M17.5,284.5C17.5,284.5,17.5,284.5,17.5,284.5c-0.1-0.1,0-0.2,0.1-0.3c0,0,1.3-0.7,1.8-1.6
					c0-0.1,0.2-0.1,0.2-0.1c0.1,0,0.1,0.2,0.1,0.2c-0.5,1-1.9,1.7-2,1.7C17.6,284.6,17.5,284.6,17.5,284.5z"/>
			</g>
			<g>
				<path class="st21" d="M21.6,289.3c-1.3-1.5-1.9-2.7-1.9-2.7c0-0.1,0-0.2,0.1-0.2c0.1,0,0.2,0,0.2,0.1c0,0,2.9,5,8.1,8
					c0.1,0,0.1,0.2,0.1,0.2c0,0.1-0.2,0.1-0.2,0.1C25.1,293.2,23,291,21.6,289.3z"/>
			</g>
			<g>
				<path class="st21" d="M29.4,295.7c0-0.1-0.1-0.1,0-0.2c0.1-0.1,0.2-0.1,0.2-0.1c7.1,4.6,13.8,3.6,15.8,2.9
					c1.5-0.5,4.4-1.9,4.4-1.9c0.1,0,0.2,0,0.2,0.1c0,0.1,0,0.2-0.1,0.2c0,0-2.9,1.3-4.4,1.9C43.5,299.5,36.7,300.4,29.4,295.7
					C29.4,295.8,29.4,295.7,29.4,295.7z"/>
			</g>
			<g>
				<path class="st21" d="M57.5,292.9c0,0,0-0.1,0-0.1c0.1-1.2-0.3-2-0.3-2c0-0.1,0-0.2,0.1-0.2c0.1,0,0.2,0,0.2,0.1
					c0,0,0.5,0.9,0.4,2.2c0,0.1-0.1,0.2-0.2,0.2C57.6,293,57.6,293,57.5,292.9z"/>
			</g>
			<path class="st22" d="M63.2,288.7c-1.4-0.2-3.4,0.6-5.5,1.7c0,0,0.3,1.6,0.4,3c1.7-1.8,4.8-1.9,4.8-1.9
				C63.8,290.3,63.2,288.7,63.2,288.7z"/>
			<g>
				<path class="st21" d="M21.3,294.5c-2.2-2.7-4.2-7.5-4.4-10c0-0.1,0.2-1.9,2.7-2.8c0.1,0,0.1,0,0.2,0c0.1,0.1,5.7,6.1,11.3,8.7
					c3.6,1.7,12.5,5.4,18.3,3.7c2.1-0.6,4.3-1.8,6.4-2.9c2.9-1.5,5.6-2.9,7.5-2.7c0.1,0,0.1,0.1,0.1,0.1c0,0.1,0.6,1.6-0.3,2.9
					c0,0-0.1,0.1-0.1,0.1c0,0-3.3,0.2-4.9,2.1c-0.2,0.2-0.4,0.5-0.6,0.8c-2.2,2.8-7.4,9.4-15.1,9.3c-8.3-0.1-17.1-5.7-20.1-8.4
					C21.9,295.1,21.6,294.8,21.3,294.5z M19.6,282c-2.2,0.9-2.4,2.4-2.4,2.5c0.3,2.4,2.2,7.1,4.4,9.7c0.3,0.4,0.6,0.7,0.9,0.9
					c2.9,2.7,11.6,8.2,19.9,8.3c7.5,0.1,12.6-6.4,14.8-9.2c0.3-0.3,0.5-0.6,0.7-0.8c1.5-1.8,4.5-2.1,5-2.2c0.6-0.9,0.4-2.1,0.3-2.4
					c-1.8-0.1-4.4,1.2-7.2,2.7c-2.1,1.1-4.3,2.2-6.4,2.9c-5.8,1.8-14.9-2-18.5-3.7C25.7,288.3,20.3,282.8,19.6,282z"/>
			</g>
		</g>
		<g>
			<path class="st20" d="M13.3,359.8c0,0,2.2-8,1.4-14.3c-0.8-6.3-2.7-14.1-6.6-17.5c-3.9-3.4-10.7-6-12-8.8c0,0,1-1.3,2.5-1.2
				c0,0,1.9,2.7,4.4,3.1c2.5,0.4,12.3,0.7,16.8,7.9c4.4,7.2,4.1,17.9,3.5,21.4c-0.7,3.5-4.3,8.6-6.4,10.2
				C16.9,360.6,15.4,361.4,13.3,359.8z"/>
			<g>
				<path class="st21" d="M16.7,360.2C16.7,360.2,16.7,360.3,16.7,360.2c-0.1,0.1-0.2,0.1-0.3,0.1c0,0-1.3-0.8-2.3-0.7
					c-0.1,0-0.2-0.1-0.2-0.2c0-0.1,0.1-0.2,0.2-0.2c1.1-0.1,2.4,0.8,2.5,0.8C16.7,360.1,16.8,360.2,16.7,360.2z"/>
			</g>
			<g>
				<path class="st21" d="M18.6,354.1c-0.6,1.9-1.3,3.1-1.3,3.1c0,0.1-0.2,0.1-0.2,0.1c-0.1,0-0.1-0.2-0.1-0.2
					c0-0.1,2.7-5.1,2.5-11.1c0-0.1,0.1-0.2,0.2-0.2c0.1,0,0.2,0.1,0.2,0.2C20,349.1,19.3,352.1,18.6,354.1z"/>
			</g>
			<g>
				<path class="st21" d="M20,344.2c0,0.1-0.1,0.1-0.2,0.1c-0.1,0-0.2-0.1-0.2-0.2c0.1-8.5-4.2-13.6-5.9-14.9
					c-1.2-1-3.9-2.7-3.9-2.7c-0.1-0.1-0.1-0.2,0-0.2c0.1-0.1,0.2-0.1,0.2,0c0,0,2.7,1.8,3.9,2.7C15.7,330.2,20.1,335.5,20,344.2
					C20,344.1,20,344.2,20,344.2z"/>
			</g>
			<g>
				<path class="st21" d="M2.7,321.8c0,0,0,0.1-0.1,0.1c-1.1,0.5-1.5,1.4-1.5,1.4c0,0.1-0.1,0.1-0.2,0.1c-0.1,0-0.1-0.1-0.1-0.2
					c0,0,0.5-0.9,1.7-1.5c0.1,0,0.2,0,0.2,0.1C2.7,321.7,2.7,321.7,2.7,321.8z"/>
			</g>
			<path class="st22" d="M-3.9,319.2c0.6,1.3,2.3,2.5,4.4,3.8c0,0,1.2-1.2,2.3-1.9c-2.4-0.5-4.2-3.1-4.2-3.1
				C-2.9,317.9-3.9,319.2-3.9,319.2z"/>
			<g>
				<path class="st21" d="M23.1,351.7c-1.1,3.3-4.1,7.5-6.1,9c-0.1,0.1-1.7,0.8-3.8-0.8c-0.1,0-0.1-0.1-0.1-0.2
					c0-0.1,2.2-8.1,1.4-14.2c-0.5-3.9-2.1-13.5-6.6-17.4c-1.6-1.4-3.7-2.7-5.8-3.9c-2.8-1.7-5.5-3.3-6.3-4.9c0-0.1,0-0.1,0-0.2
					c0-0.1,1.1-1.4,2.7-1.3c0.1,0,0.1,0,0.1,0.1c0,0,1.9,2.7,4.3,3.1c0.3,0,0.6,0.1,1,0.1c3.6,0.4,11.9,1.3,15.9,7.9
					c4.3,7.1,4.2,17.5,3.5,21.5C23.4,350.8,23.3,351.2,23.1,351.7z M13.5,359.7c1.9,1.4,3.3,0.8,3.4,0.7c1.9-1.5,4.9-5.6,6-8.8
					c0.1-0.4,0.3-0.9,0.3-1.2c0.7-3.9,0.8-14.2-3.5-21.2c-3.9-6.4-12.1-7.3-15.6-7.7c-0.4,0-0.8-0.1-1-0.1c-2.4-0.4-4.2-2.7-4.5-3.1
					c-1.1,0-2,0.8-2.2,1.1c0.8,1.6,3.4,3.1,6.1,4.7c2.1,1.2,4.2,2.5,5.8,3.9c4.6,4,6.2,13.7,6.7,17.6
					C15.6,351.3,13.8,358.7,13.5,359.7z"/>
			</g>
		</g>
		<g>
			<path class="st20" d="M93.5,293.7c0,0-0.5,8.3,1.5,14.3c2,6,5.6,13.3,10.1,15.8c4.5,2.5,11.7,3.6,13.5,6.1c0,0-0.7,1.5-2.2,1.7
				c0,0-2.5-2.3-5-2.1c-2.5,0.1-12.2,1.8-18-4.3c-5.8-6.2-7.7-16.6-7.8-20.2c-0.1-3.6,2.4-9.3,4.1-11.3
				C89.8,293.6,91.1,292.5,93.5,293.7z"/>
			<g>
				<path class="st21" d="M90.1,293.9C90.1,293.9,90.1,293.9,90.1,293.9c0-0.1,0.1-0.2,0.2-0.1c0,0,1.4,0.5,2.4,0.2
					c0.1,0,0.2,0,0.2,0.1c0,0.1,0,0.2-0.1,0.2c-1.1,0.3-2.5-0.2-2.6-0.3C90.1,294.1,90.1,294,90.1,293.9z"/>
			</g>
			<g>
				<path class="st21" d="M89.4,300.3c0.2-2,0.6-3.2,0.6-3.3c0-0.1,0.1-0.1,0.2-0.1c0.1,0,0.1,0.1,0.1,0.2c0,0.1-1.6,5.6-0.2,11.4
					c0,0.1,0,0.2-0.1,0.2c-0.1,0-0.2,0-0.2-0.1C89.1,305.4,89.2,302.4,89.4,300.3z"/>
			</g>
			<g>
				<path class="st21" d="M90.2,310.3c0-0.1,0.1-0.1,0.1-0.1c0.1,0,0.2,0,0.2,0.1c1.6,8.3,6.9,12.5,8.8,13.4
					c1.4,0.7,4.4,1.9,4.4,1.9c0.1,0,0.1,0.1,0.1,0.2c0,0.1-0.1,0.1-0.2,0.1c0,0-3-1.2-4.4-1.9C97.3,323.1,91.8,318.8,90.2,310.3
					C90.2,310.3,90.2,310.3,90.2,310.3z"/>
			</g>
			<g>
				<path class="st21" d="M111.7,328.7c0,0,0-0.1,0.1-0.1c1-0.7,1.2-1.6,1.2-1.7c0-0.1,0.1-0.1,0.2-0.1c0.1,0,0.1,0.1,0.1,0.2
					c0,0-0.3,1-1.4,1.8c-0.1,0.1-0.2,0-0.2,0C111.7,328.8,111.7,328.7,111.7,328.7z"/>
			</g>
			<path class="st22" d="M118.6,329.9c-0.9-1.1-2.8-2-5.1-2.8c0,0-1,1.4-1.9,2.3c2.4,0,4.7,2.1,4.7,2.1
				C117.9,331.4,118.6,329.9,118.6,329.9z"/>
			<g>
				<path class="st21" d="M85.5,303.6c0.4-3.4,2.5-8.2,4.1-10.1c0.1-0.1,1.5-1.2,3.9,0c0.1,0,0.1,0.1,0.1,0.2
					c0,0.1-0.5,8.4,1.5,14.2c1.3,3.7,4.8,12.8,10,15.7c1.9,1.1,4.2,1.9,6.5,2.6c3.1,1.1,6,2.1,7.1,3.6c0,0.1,0,0.1,0,0.2
					c0,0.1-0.8,1.6-2.3,1.8c-0.1,0-0.1,0-0.1,0c0,0-2.4-2.2-4.9-2.1c-0.3,0-0.6,0-1,0.1c-3.6,0.3-11.9,1.1-17.1-4.5
					c-5.7-6.1-7.7-16.3-7.8-20.3C85.5,304.5,85.5,304.1,85.5,303.6z M93.3,293.8c-2.2-1-3.4-0.1-3.4,0c-1.6,1.9-3.6,6.5-4,9.9
					c-0.1,0.5-0.1,0.9-0.1,1.3c0.1,4,2.1,14.1,7.7,20.1c5.1,5.5,13.3,4.7,16.9,4.4c0.4,0,0.8-0.1,1-0.1c2.4-0.1,4.6,1.8,5.1,2.1
					c1.1-0.2,1.8-1.2,2-1.5c-1.1-1.4-3.9-2.3-6.9-3.4c-2.3-0.8-4.6-1.6-6.5-2.7c-5.3-3-8.9-12.1-10.1-15.9
					C93,302.5,93.3,294.8,93.3,293.8z"/>
			</g>
		</g>
		<g>
			<path class="st20" d="M65.1,389c0,0,5.1-6.6,6.8-12.7c1.7-6.1,2.9-14.1,0.6-18.7s-7.6-9.6-7.7-12.7c0,0,1.4-0.8,2.8-0.1
				c0,0,0.7,3.3,2.9,4.6c2.2,1.3,11.1,5.4,12.5,13.7s-3,18.1-4.9,21.1c-1.9,3-7.2,6.3-9.8,7C68.1,391.1,66.4,391.2,65.1,389z"/>
			<g>
				<path class="st21" d="M77.2,377.1c0,0.1-0.1,0.1-0.2,0c-0.1,0-0.1-0.1-0.1-0.2c3.3-7.8,1.3-14.2,0.2-16.1c-0.8-1.4-2.5-4-2.6-4
					c-0.1-0.1,0-0.2,0-0.2c0.1-0.1,0.2,0,0.2,0c0,0,1.8,2.7,2.6,4C78.5,362.6,80.6,369.1,77.2,377.1
					C77.2,377.1,77.2,377.1,77.2,377.1z"/>
			</g>
			<g>
				<path class="st21" d="M69.8,349.8c0,0-0.1,0.1-0.1,0.1c-1.2,0.1-1.9,0.7-2,0.7c-0.1,0.1-0.2,0.1-0.2,0c-0.1-0.1-0.1-0.2,0-0.2
					c0,0,0.8-0.7,2.2-0.8c0.1,0,0.2,0.1,0.2,0.2C69.8,349.7,69.8,349.8,69.8,349.8z"/>
			</g>
			<path class="st22" d="M64.7,344.9c0.1,1.4,1.2,3.2,2.6,5.2c0,0,1.6-0.6,2.9-0.9c-2-1.4-2.7-4.4-2.7-4.4
				C66.1,344.1,64.7,344.9,64.7,344.9z"/>
			<g>
				<path class="st21" d="M77.3,385.3c-2.3,2.6-6.7,5.3-9.1,6c-0.1,0-1.9,0.1-3.2-2.2c0-0.1,0-0.1,0-0.2c0.1-0.1,5.1-6.6,6.7-12.6
					c1.1-3.8,3.2-13.3,0.6-18.6c-1-1.9-2.4-3.9-3.9-5.8c-2-2.6-3.8-5.1-3.9-7c0-0.1,0-0.1,0.1-0.2c0.1,0,1.5-0.9,2.9-0.2
					c0,0,0.1,0.1,0.1,0.1c0,0,0.7,3.2,2.8,4.5c0.2,0.1,0.5,0.3,0.9,0.5c3.1,1.7,10.5,5.8,11.7,13.3c1.3,8.2-2.8,17.8-5,21.2
					C77.8,384.5,77.6,384.9,77.3,385.3z M65.3,389c1.2,2,2.8,2,2.8,1.9c2.3-0.7,6.6-3.3,8.9-5.9c0.3-0.3,0.6-0.7,0.8-1
					c2.2-3.3,6.2-12.8,4.9-21c-1.2-7.4-8.4-11.4-11.5-13.1c-0.4-0.2-0.7-0.4-0.9-0.5c-2-1.2-2.8-4.1-3-4.6c-1-0.5-2.1,0-2.4,0.1
					c0.2,1.8,1.9,4.1,3.8,6.7c1.4,1.9,2.9,3.9,3.9,5.9c2.7,5.5,0.5,15-0.6,18.9C70.5,382,65.9,388.2,65.3,389z"/>
			</g>
		</g>
		<g>
			<path class="st20" d="M166.3,335.5c0,0-5.9,5.9-8.4,11.7c-2.5,5.8-4.7,13.6-3,18.5c1.7,4.9,6.3,10.5,6,13.6c0,0-1.5,0.6-2.8-0.2
				c0,0-0.3-3.3-2.3-4.9c-2-1.6-10.3-6.8-10.6-15.2c-0.2-8.5,5.3-17.5,7.6-20.2c2.3-2.7,8-5.3,10.6-5.7
				C163.5,333,165.2,333.1,166.3,335.5z"/>
			<g>
				<path class="st21" d="M163.5,333.4C163.5,333.4,163.6,333.4,163.5,333.4c0.1-0.1,0.2,0,0.3,0c0,0,0.7,1.3,1.6,1.8
					c0.1,0,0.1,0.1,0.1,0.2c0,0.1-0.1,0.1-0.2,0.1c-1-0.5-1.7-1.9-1.8-1.9C163.5,333.6,163.5,333.5,163.5,333.4z"/>
			</g>
			<g>
				<path class="st21" d="M158.8,337.7c1.5-1.3,2.6-2,2.6-2c0.1-0.1,0.2,0,0.2,0.1c0.1,0.1,0,0.2-0.1,0.2c0,0-4.9,3.1-7.7,8.4
					c0,0.1-0.2,0.1-0.2,0.1c-0.1,0-0.1-0.2-0.1-0.2C155.1,341.4,157.2,339.2,158.8,337.7z"/>
			</g>
			<g>
				<path class="st21" d="M152.7,345.7c0.1,0,0.1-0.1,0.2,0c0.1,0,0.1,0.2,0.1,0.2c-4.3,7.3-3.2,13.9-2.3,15.9c0.6,1.4,2,4.3,2,4.3
					c0,0.1,0,0.2-0.1,0.2c-0.1,0-0.2,0-0.2-0.1c0,0-1.4-2.9-2-4.3C149.5,360,148.3,353.2,152.7,345.7
					C152.7,345.7,152.7,345.7,152.7,345.7z"/>
			</g>
			<g>
				<path class="st21" d="M153.7,337.6c2.6-2.3,7.3-4.4,9.8-4.8c0.1,0,1.9,0.1,2.9,2.6c0,0.1,0,0.1,0,0.2c-0.1,0.1-5.9,5.9-8.3,11.6
					c-1.5,3.6-4.9,12.7-3,18.4c0.7,2,1.9,4.2,3.1,6.3c1.6,2.8,3.1,5.5,3,7.4c0,0.1,0,0.1-0.1,0.1c-0.1,0-1.6,0.6-2.9-0.2
					c0,0-0.1-0.1-0.1-0.1c0,0-0.3-3.3-2.2-4.8c-0.2-0.2-0.5-0.4-0.8-0.6c-2.9-2.1-9.6-7.1-9.8-14.7c-0.2-8.3,5.1-17.3,7.7-20.4
					C153,338.2,153.4,337.9,153.7,337.6z M166.1,335.5c-1-2.2-2.5-2.3-2.5-2.3c-2.4,0.4-7,2.4-9.6,4.7c-0.3,0.3-0.7,0.6-0.9,0.9
					c-2.6,3-7.8,11.9-7.6,20.1c0.2,7.5,6.8,12.4,9.7,14.5c0.3,0.2,0.6,0.5,0.8,0.6c1.9,1.5,2.3,4.4,2.3,5c1,0.6,2.1,0.3,2.4,0.2
					c0.1-1.8-1.4-4.4-2.9-7.1c-1.2-2.1-2.4-4.3-3.1-6.3c-2-5.8,1.5-14.9,3-18.6C160,341.7,165.3,336.2,166.1,335.5z"/>
			</g>
		</g>
		<g>
			<path class="st20" d="M47.6,59.9c0,0,7.5,3.5,13.8,3.9c6.3,0.3,14.4-0.3,18.4-3.5c4-3.2,7.7-9.5,10.7-10.3c0,0,1.1,1.2,0.7,2.7
				c0,0-3,1.4-3.8,3.8c-0.8,2.4-2.8,12-10.7,15.1c-7.9,3.1-18.3,1-21.6-0.2c-3.3-1.2-7.7-5.7-9-8C46.2,63.4,45.7,61.7,47.6,59.9z"/>
			<g>
				<path class="st21" d="M46.6,63.2C46.6,63.2,46.6,63.2,46.6,63.2c-0.1-0.1-0.1-0.2,0-0.3c0,0,1-1.1,1.1-2.1
					c0-0.1,0.1-0.2,0.2-0.2c0.1,0,0.2,0.1,0.2,0.2c-0.1,1.1-1.2,2.3-1.2,2.3C46.7,63.2,46.6,63.3,46.6,63.2z"/>
			</g>
			<g>
				<path class="st21" d="M52.2,66.2c-1.7-0.9-2.8-1.8-2.8-1.8c-0.1-0.1-0.1-0.2,0-0.2c0.1-0.1,0.2-0.1,0.2,0c0,0,4.6,3.6,10.5,4.4
					c0.1,0,0.2,0.1,0.1,0.2c0,0.1-0.1,0.2-0.2,0.1C56.9,68.4,54.2,67.2,52.2,66.2z"/>
			</g>
			<g>
				<path class="st21" d="M61.8,69.2c-0.1,0-0.1-0.1-0.1-0.2c0-0.1,0.1-0.2,0.2-0.1c8.3,1.6,14.2-1.8,15.7-3.2
					c1.2-1.1,3.3-3.4,3.4-3.4c0.1-0.1,0.2-0.1,0.2,0c0.1,0.1,0.1,0.2,0,0.2c0,0-2.2,2.3-3.4,3.4C76.3,67.3,70.3,70.8,61.8,69.2
					C61.9,69.2,61.9,69.2,61.8,69.2z"/>
			</g>
			<g>
				<path class="st21" d="M86.9,56c0,0-0.1-0.1-0.1-0.1c-0.3-1.2-1.1-1.8-1.1-1.8c-0.1-0.1-0.1-0.2,0-0.2c0.1-0.1,0.2-0.1,0.2,0
					c0,0,0.8,0.6,1.2,1.9c0,0.1,0,0.2-0.1,0.2C86.9,56,86.9,56,86.9,56z"/>
			</g>
			<path class="st22" d="M90.6,50c-1.4,0.4-2.9,1.9-4.5,3.7c0,0,0.9,1.4,1.5,2.6c0.9-2.3,3.7-3.6,3.7-3.6C91.7,51.2,90.6,50,90.6,50
				z"/>
			<g>
				<path class="st21" d="M53.9,71c-3-1.7-6.7-5.4-7.8-7.6c0-0.1-0.5-1.8,1.5-3.6c0.1,0,0.1-0.1,0.2,0c0.1,0,7.6,3.5,13.8,3.9
					c4,0.2,13.6,0.3,18.3-3.5c1.7-1.4,3.3-3.2,4.8-5c2.1-2.5,4.1-4.8,5.9-5.3c0.1,0,0.1,0,0.2,0.1c0,0.1,1.2,1.3,0.8,2.8
					c0,0.1,0,0.1-0.1,0.1c0,0-3,1.4-3.7,3.7c-0.1,0.3-0.2,0.6-0.3,1C86.3,61,84,69,76.9,71.8c-7.7,3-18,1.1-21.8-0.2
					C54.7,71.4,54.3,71.2,53.9,71z M47.6,60.1c-1.7,1.7-1.3,3.1-1.3,3.2c1.2,2.1,4.7,5.8,7.7,7.4c0.4,0.2,0.8,0.4,1.2,0.5
					c3.7,1.4,13.9,3.3,21.5,0.3c7-2.7,9.3-10.7,10.3-14c0.1-0.4,0.2-0.7,0.3-1c0.8-2.3,3.4-3.7,3.9-3.9c0.2-1.1-0.4-2.1-0.7-2.4
					c-1.7,0.5-3.6,2.8-5.7,5.2c-1.6,1.8-3.2,3.7-4.9,5.1c-4.7,3.8-14.5,3.7-18.5,3.5C55.6,63.7,48.6,60.6,47.6,60.1z"/>
			</g>
		</g>
		<g>
			<path class="st20" d="M11.3,12c0,0-5,6.7-6.6,12.7C3,30.8,1.9,38.9,4.3,43.5c2.3,4.6,7.7,9.5,7.9,12.6c0,0-1.4,0.8-2.8,0.2
				c0,0-0.8-3.3-3-4.5C4.2,50.4-4.8,46.5-6.2,38.1C-7.6,29.8-3.4,20-1.5,17c1.9-3,7.2-6.4,9.7-7.1C8.2,9.9,9.9,9.7,11.3,12z"/>
			<g>
				<path class="st21" d="M8.3,10.3C8.3,10.3,8.3,10.3,8.3,10.3c0.1-0.1,0.2-0.1,0.3,0c0,0,0.9,1.2,1.9,1.5c0.1,0,0.1,0.1,0.1,0.2
					c0,0.1-0.1,0.1-0.2,0.1c-1.1-0.4-2-1.6-2-1.7C8.2,10.4,8.2,10.3,8.3,10.3z"/>
			</g>
			<g>
				<path class="st21" d="M4.3,15.2c1.3-1.5,2.3-2.4,2.3-2.4c0.1-0.1,0.2-0.1,0.2,0c0.1,0.1,0,0.2,0,0.2c0,0-4.4,3.8-6.5,9.4
					c0,0.1-0.1,0.1-0.2,0.1C0,22.5,0,22.4,0,22.3C1.1,19.4,2.8,16.9,4.3,15.2z"/>
			</g>
			<g>
				<path class="st21" d="M-0.7,24c0-0.1,0.1-0.1,0.2,0c0.1,0,0.1,0.1,0.1,0.2C-3.6,32-1.5,38.4-0.5,40.2c0.8,1.3,2.6,4,2.6,4
					c0.1,0.1,0,0.2,0,0.2c-0.1,0.1-0.2,0-0.2,0c0,0-1.8-2.7-2.6-4C-1.9,38.5-4,32-0.7,24C-0.7,24-0.7,24-0.7,24z"/>
			</g>
			<g>
				<path class="st21" d="M7.1,51.2c0,0,0.1-0.1,0.1-0.1c1.2-0.1,1.9-0.7,1.9-0.7c0.1-0.1,0.2-0.1,0.2,0c0.1,0.1,0.1,0.2,0,0.2
					c0,0-0.8,0.7-2.1,0.8c-0.1,0-0.2-0.1-0.2-0.2C7,51.3,7,51.2,7.1,51.2z"/>
			</g>
			<path class="st22" d="M12.2,56.1c-0.1-1.4-1.2-3.2-2.7-5.1c0,0-1.6,0.6-2.9,0.9c2,1.4,2.8,4.4,2.8,4.4
				C10.7,56.9,12.2,56.1,12.2,56.1z"/>
			<g>
				<path class="st21" d="M-0.8,15.8c2.2-2.6,6.6-5.4,9-6.1c0.1,0,1.9-0.1,3.3,2.2c0,0.1,0,0.1,0,0.2c-0.1,0.1-5,6.7-6.6,12.7
					c-1,3.8-3.1,13.3-0.4,18.6c1,1.9,2.5,3.9,3.9,5.8c2,2.6,3.9,5,4,6.9c0,0.1,0,0.1-0.1,0.2c-0.1,0-1.5,0.9-2.9,0.2
					c0,0-0.1-0.1-0.1-0.1c0,0-0.8-3.2-2.9-4.4c-0.2-0.1-0.5-0.3-0.9-0.5C2.3,49.7-5.1,45.7-6.4,38.1c-1.4-8.2,2.6-17.9,4.7-21.2
					C-1.4,16.6-1.1,16.2-0.8,15.8z M11.1,12C9.8,9.9,8.3,10,8.2,10c-2.3,0.7-6.6,3.4-8.8,6c-0.3,0.4-0.6,0.7-0.8,1
					c-2.1,3.4-6,12.9-4.7,21c1.2,7.4,8.5,11.3,11.6,13c0.4,0.2,0.7,0.4,0.9,0.5c2.1,1.2,2.9,4,3,4.6c1,0.5,2.1,0,2.4-0.2
					c-0.2-1.8-2-4.1-3.9-6.6c-1.5-1.9-3-3.9-4-5.8c-2.8-5.4-0.7-15,0.4-18.9C6,19,10.5,12.8,11.1,12z"/>
			</g>
		</g>
		<g>
			<path class="st20" d="M78.3,109.2c0,0,1.3,8.2,4.5,13.7c3.2,5.4,8.2,11.8,13.1,13.4c4.9,1.5,12.2,1.1,14.5,3.2
				c0,0-0.4,1.6-1.8,2.1c0,0-2.9-1.7-5.3-1.1c-2.4,0.7-11.6,4.3-18.5-0.5c-7-4.8-11-14.7-11.8-18.1c-0.8-3.5,0.5-9.6,1.7-11.9
				C74.7,110,75.8,108.6,78.3,109.2z"/>
			<g>
				<path class="st21" d="M75,110.2C75,110.2,75,110.2,75,110.2c0-0.1,0.1-0.2,0.2-0.2c0,0,1.5,0.2,2.4-0.3c0.1,0,0.2,0,0.2,0.1
					c0,0.1,0,0.2-0.1,0.2c-1,0.5-2.5,0.3-2.6,0.3C75.1,110.3,75,110.3,75,110.2z"/>
			</g>
			<g>
				<path class="st21" d="M75.7,116.5c-0.2-2-0.1-3.3-0.1-3.3c0-0.1,0.1-0.2,0.2-0.2c0.1,0,0.2,0.1,0.2,0.2c0,0.1-0.4,5.8,2.2,11.2
					c0,0.1,0,0.2-0.1,0.2c-0.1,0-0.2,0-0.2-0.1C76.5,121.7,75.9,118.7,75.7,116.5z"/>
			</g>
			<g>
				<path class="st21" d="M78.5,126.2c0-0.1,0-0.1,0.1-0.2c0.1,0,0.2,0,0.2,0.1c3.3,7.8,9.4,10.8,11.4,11.3c1.5,0.4,4.6,0.9,4.7,0.9
					c0.1,0,0.2,0.1,0.1,0.2c0,0.1-0.1,0.2-0.2,0.1c0,0-3.2-0.6-4.7-0.9C88.1,137.2,81.9,134.2,78.5,126.2
					C78.5,126.2,78.5,126.2,78.5,126.2z"/>
			</g>
			<g>
				<path class="st21" d="M103.4,139.7c0,0,0-0.1,0-0.1c0.8-0.9,0.9-1.9,0.9-1.9c0-0.1,0.1-0.2,0.2-0.2c0.1,0,0.2,0.1,0.2,0.2
					c0,0-0.1,1.1-0.9,2.1c-0.1,0.1-0.2,0.1-0.2,0C103.4,139.8,103.4,139.7,103.4,139.7z"/>
			</g>
			<path class="st22" d="M110.4,139.5c-1.1-0.9-3.1-1.4-5.5-1.7c0,0-0.6,1.6-1.4,2.7c2.4-0.5,5.1,1.1,5.1,1.1
				C110,141,110.4,139.5,110.4,139.5z"/>
			<g>
				<path class="st21" d="M72.6,120.6c-0.3-3.4,0.8-8.5,1.9-10.7c0.1-0.1,1.2-1.4,3.8-0.8c0.1,0,0.1,0.1,0.1,0.1
					c0,0.1,1.3,8.3,4.4,13.6c2,3.4,7.3,11.5,13,13.3c2.1,0.6,4.5,0.9,6.9,1.2c3.2,0.4,6.3,0.8,7.7,2c0,0,0.1,0.1,0.1,0.2
					c0,0.1-0.4,1.7-1.9,2.2c0,0-0.1,0-0.1,0c0,0-2.8-1.7-5.2-1c-0.3,0.1-0.6,0.2-1,0.3c-3.4,1.1-11.4,3.6-17.7-0.8
					c-6.8-4.8-11-14.3-11.9-18.2C72.7,121.5,72.6,121.1,72.6,120.6z M78.2,109.4c-2.3-0.5-3.3,0.6-3.4,0.7
					c-1.1,2.1-2.2,7.1-1.9,10.5c0,0.5,0.1,0.9,0.2,1.3c0.9,3.9,5,13.3,11.7,18c6.2,4.3,14,1.8,17.4,0.8c0.4-0.1,0.7-0.2,1-0.3
					c2.3-0.6,4.9,0.8,5.4,1c1.1-0.4,1.5-1.5,1.6-1.9c-1.4-1.1-4.3-1.5-7.4-1.8c-2.4-0.3-4.9-0.6-6.9-1.2c-5.8-1.8-11.2-10-13.2-13.4
					C79.6,117.9,78.3,110.4,78.2,109.4z"/>
			</g>
		</g>
		<g>
			<path class="st20" d="M97.6,17.8c0,0-4.3-7.1-9.4-10.9C83.2,3.1,76.1-0.9,71-0.4S59.3,3.2,56.3,2.2c0,0-0.2-1.6,0.9-2.6
				c0,0,3.3,0.5,5.3-1.1c2-1.6,9-8.5,17.3-6.7S95.6,1.1,97.7,4c2.1,2.9,3.3,9,3,11.7C100.7,15.7,100.2,17.3,97.6,17.8z"/>
			<g>
				<path class="st21" d="M100.3,15.6C100.3,15.6,100.3,15.6,100.3,15.6c0,0.1,0,0.2-0.1,0.2c0,0-1.4,0.4-2.1,1.2
					c-0.1,0.1-0.2,0.1-0.2,0c-0.1-0.1-0.1-0.2,0-0.2c0.7-0.8,2.2-1.2,2.3-1.3C100.2,15.5,100.3,15.5,100.3,15.6z"/>
			</g>
			<g>
				<path class="st21" d="M97.2,10c0.9,1.8,1.4,3,1.4,3c0,0.1,0,0.2-0.1,0.2c-0.1,0-0.2,0-0.2-0.1c0-0.1-1.9-5.5-6.3-9.5
					c-0.1-0.1-0.1-0.2,0-0.2c0.1-0.1,0.2-0.1,0.2,0C94.6,5.5,96.2,8.1,97.2,10z"/>
			</g>
			<g>
				<path class="st21" d="M90.9,2.2c0,0.1,0,0.1,0,0.2c-0.1,0.1-0.2,0.1-0.2,0c-6.1-5.9-12.8-6.3-14.9-6c-1.5,0.2-4.6,0.9-4.7,1
					c-0.1,0-0.2,0-0.2-0.1c0-0.1,0-0.2,0.1-0.2c0,0,3.1-0.7,4.7-1C77.8-4.3,84.7-3.8,90.9,2.2C90.9,2.2,90.9,2.2,90.9,2.2z"/>
			</g>
			<g>
				<path class="st21" d="M62.8-0.7c0,0,0,0.1,0,0.1c-0.4,1.2-0.1,2.1-0.1,2.1c0,0.1,0,0.2-0.1,0.2c-0.1,0-0.2,0-0.2-0.1
					c0,0-0.3-1,0.1-2.3c0-0.1,0.1-0.1,0.2-0.1C62.7-0.8,62.7-0.7,62.8-0.7z"/>
			</g>
			<path class="st22" d="M56.3,2.2c1.3,0.4,3.4,0,5.8-0.6c0,0,0-1.7,0.2-3c-2,1.4-5.1,0.9-5.1,0.9C56.1,0.6,56.3,2.2,56.3,2.2z"/>
			<g>
				<path class="st21" d="M98.5,5.1c1.6,3.1,2.6,8.1,2.3,10.6c0,0.1-0.6,1.8-3.2,2.2c-0.1,0-0.1,0-0.2-0.1c0-0.1-4.4-7.1-9.3-10.8
					C85,4.7,76.9-0.8,71-0.2c-2.1,0.2-4.5,0.9-6.8,1.5C61,2.2,58.1,3,56.3,2.4c-0.1,0-0.1-0.1-0.1-0.1c0-0.1-0.2-1.7,0.9-2.8
					c0,0,0.1-0.1,0.1,0c0,0,3.3,0.5,5.2-1c0.2-0.2,0.5-0.4,0.8-0.7c2.7-2.3,9.2-7.7,16.6-6.1c8.1,1.8,15.6,9,18,12.3
					C98.1,4.3,98.3,4.6,98.5,5.1z M97.7,17.6c2.3-0.4,2.8-1.9,2.8-1.9c0.2-2.4-0.7-7.4-2.3-10.4c-0.2-0.4-0.4-0.8-0.7-1.1
					C95.2,0.9,87.8-6.3,79.8-8c-7.3-1.6-13.6,3.7-16.3,6c-0.3,0.3-0.6,0.5-0.8,0.7c-1.9,1.5-4.8,1.2-5.4,1.1c-0.8,0.8-0.8,2-0.8,2.3
					c1.7,0.5,4.6-0.3,7.6-1.2c2.3-0.7,4.7-1.3,6.9-1.5C77-1.1,85.1,4.4,88.4,6.7C93.1,10.2,97.2,16.7,97.7,17.6z"/>
			</g>
		</g>
		<g>
			<path class="st20" d="M167.9,105.7c0,0-8.1-1.8-14.3-0.8c-6.2,1-14,3.4-17.2,7.4c-3.2,4-5.4,10.9-8.2,12.4c0,0-1.3-0.9-1.3-2.5
				c0,0,2.7-2.1,2.9-4.6c0.3-2.5,0.1-12.4,7.1-17.1c7-4.7,17.6-5,21.2-4.5c3.5,0.5,8.8,3.9,10.5,5.9
				C168.5,102.1,169.3,103.6,167.9,105.7z"/>
			<g>
				<path class="st21" d="M168.1,102.3C168.2,102.3,168.2,102.3,168.1,102.3c0.1,0.1,0.2,0.2,0.1,0.3c0,0-0.7,1.3-0.6,2.3
					c0,0.1-0.1,0.2-0.2,0.2c-0.1,0-0.2-0.1-0.2-0.2c-0.1-1.1,0.6-2.5,0.7-2.5C168,102.3,168.1,102.3,168.1,102.3z"/>
			</g>
			<g>
				<path class="st21" d="M162,100.7c1.9,0.5,3.1,1.1,3.1,1.1c0.1,0,0.1,0.1,0.1,0.2c0,0.1-0.1,0.1-0.2,0.1c-0.1,0-5.3-2.5-11.2-2
					c-0.1,0-0.2-0.1-0.2-0.2c0-0.1,0.1-0.2,0.2-0.2C156.9,99.5,159.9,100.1,162,100.7z"/>
			</g>
			<g>
				<path class="st21" d="M152,99.8c0.1,0,0.1,0.1,0.1,0.2c0,0.1-0.1,0.2-0.2,0.2c-8.5,0.3-13.4,4.9-14.6,6.6c-0.9,1.3-2.5,4-2.5,4
					c0,0.1-0.2,0.1-0.2,0.1c-0.1,0-0.1-0.2-0.1-0.2c0,0,1.7-2.8,2.6-4C138.2,104.8,143.3,100.1,152,99.8
					C151.9,99.8,151.9,99.8,152,99.8z"/>
			</g>
			<g>
				<path class="st21" d="M130.4,118.1c0,0,0.1,0,0.1,0.1c0.6,1.1,1.4,1.5,1.4,1.5c0.1,0,0.1,0.1,0.1,0.2c0,0.1-0.1,0.1-0.2,0.1
					c0,0-1-0.5-1.6-1.6c0-0.1,0-0.2,0.1-0.2C130.3,118.1,130.4,118.1,130.4,118.1z"/>
			</g>
			<path class="st22" d="M128.1,124.8c1.3-0.7,2.4-2.4,3.6-4.6c0,0-1.2-1.2-2-2.2c-0.4,2.4-2.9,4.3-2.9,4.3
				C126.7,123.9,128.1,124.8,128.1,124.8z"/>
			<g>
				<path class="st21" d="M159.3,96.3c3.3,0.9,7.7,3.8,9.3,5.7c0.1,0.1,0.9,1.6-0.6,3.9c0,0.1-0.1,0.1-0.2,0.1
					c-0.1,0-8.2-1.8-14.3-0.8c-3.9,0.7-13.4,2.7-17.1,7.4c-1.3,1.7-2.5,3.9-3.6,6c-1.5,2.9-3,5.6-4.6,6.5c-0.1,0-0.1,0-0.2,0
					c-0.1,0-1.4-1-1.4-2.6c0-0.1,0-0.1,0.1-0.1c0,0,2.6-2,2.8-4.5c0-0.3,0.1-0.6,0.1-1c0.2-3.6,0.8-11.9,7.1-16.2
					c6.9-4.7,17.3-5,21.3-4.5C158.4,96.1,158.9,96.2,159.3,96.3z M167.8,105.6c1.3-2,0.6-3.3,0.6-3.4c-1.6-1.8-5.8-4.6-9.1-5.5
					c-0.4-0.1-0.9-0.2-1.3-0.3c-3.9-0.5-14.2-0.2-21.1,4.4c-6.2,4.2-6.8,12.4-7,15.9c0,0.4-0.1,0.8-0.1,1c-0.2,2.4-2.5,4.3-2.9,4.6
					c0,1.1,0.9,1.9,1.2,2.2c1.5-0.9,2.9-3.5,4.4-6.3c1.1-2.1,2.3-4.3,3.7-6c3.8-4.8,13.4-6.8,17.3-7.5
					C159.2,103.8,166.8,105.3,167.8,105.6z"/>
			</g>
		</g>
		<g>
			<path class="st20" d="M174.5,179.2c0,0-6.1-5.6-12-7.8c-5.9-2.2-13.8-4.1-18.6-2.2c-4.8,1.9-10.2,6.7-13.3,6.6
				c0,0-0.7-1.5,0.1-2.8c0,0,3.3-0.5,4.8-2.5c1.5-2.1,6.3-10.6,14.7-11.2c8.4-0.6,17.8,4.5,20.6,6.7c2.8,2.2,5.6,7.7,6.1,10.4
				C176.9,176.3,176.9,178.1,174.5,179.2z"/>
			<g>
				<path class="st21" d="M176.5,176.4C176.5,176.4,176.5,176.4,176.5,176.4c0.1,0.1,0,0.2,0,0.3c0,0-1.3,0.8-1.7,1.7
					c0,0.1-0.1,0.1-0.2,0.1c-0.1,0-0.1-0.1-0.1-0.2c0.5-1,1.8-1.8,1.8-1.9C176.3,176.3,176.4,176.3,176.5,176.4z"/>
			</g>
			<g>
				<path class="st21" d="M172,171.9c1.4,1.4,2.1,2.5,2.2,2.5c0.1,0.1,0,0.2,0,0.2c-0.1,0.1-0.2,0-0.2,0c0,0-3.3-4.8-8.7-7.3
					c-0.1,0-0.1-0.1-0.1-0.2c0-0.1,0.1-0.1,0.2-0.1C168.1,168.3,170.4,170.3,172,171.9z"/>
			</g>
			<g>
				<path class="st21" d="M163.7,166.1c0.1,0.1,0.1,0.1,0,0.2c0,0.1-0.2,0.1-0.2,0.1c-7.5-4-14.1-2.5-16-1.6
					c-1.4,0.7-4.2,2.2-4.2,2.2c-0.1,0-0.2,0-0.2-0.1c0-0.1,0-0.2,0.1-0.2c0,0,2.8-1.6,4.2-2.2C149.3,163.5,156.1,162,163.7,166.1
					C163.7,166.1,163.7,166.1,163.7,166.1z"/>
			</g>
			<g>
				<path class="st21" d="M135.9,171.2c0,0,0.1,0.1,0,0.1c0,1.2,0.5,2,0.5,2c0.1,0.1,0,0.2,0,0.2c-0.1,0.1-0.2,0-0.2,0
					c0,0-0.6-0.9-0.6-2.2c0-0.1,0.1-0.2,0.2-0.2C135.8,171.1,135.8,171.2,135.9,171.2z"/>
			</g>
			<path class="st22" d="M130.5,175.8c1.4,0.1,3.3-0.9,5.4-2.2c0,0-0.5-1.6-0.6-2.9c-1.5,1.9-4.7,2.3-4.7,2.3
				C129.8,174.3,130.5,175.8,130.5,175.8z"/>
			<g>
				<path class="st21" d="M171.8,166.7c2.4,2.5,4.7,7.1,5.2,9.6c0,0.1,0,1.9-2.5,3c-0.1,0-0.1,0-0.2,0c-0.1-0.1-6.2-5.6-12-7.8
					c-3.7-1.4-12.9-4.4-18.5-2.2c-2,0.8-4.1,2.1-6.1,3.4c-2.8,1.7-5.4,3.4-7.3,3.3c-0.1,0-0.1,0-0.2-0.1c0-0.1-0.7-1.6,0.1-2.9
					c0,0,0.1-0.1,0.1-0.1c0,0,3.3-0.5,4.7-2.4c0.2-0.2,0.3-0.5,0.6-0.8c2-3,6.6-9.9,14.3-10.5c8.3-0.6,17.5,4.3,20.7,6.8
					C171.2,166.1,171.5,166.4,171.8,166.7z M174.5,179c2.1-1.1,2.2-2.6,2.2-2.6c-0.5-2.4-2.8-6.9-5.1-9.4c-0.3-0.3-0.6-0.6-1-0.9
					c-3.1-2.4-12.3-7.3-20.5-6.7c-7.5,0.5-12.1,7.4-14,10.3c-0.2,0.3-0.4,0.6-0.6,0.9c-1.4,1.9-4.3,2.5-4.8,2.6
					c-0.6,1-0.2,2.1-0.1,2.5c1.8,0,4.3-1.6,7-3.2c2-1.3,4.2-2.6,6.2-3.4c5.7-2.2,15,0.8,18.7,2.2C168,173.2,173.8,178.3,174.5,179z"
					/>
			</g>
		</g>
		<g>
			<path class="st20" d="M-6.8,105.9c0,0,8.3,0,14.2-2.5c5.8-2.4,12.9-6.4,15.1-11.1c2.2-4.6,2.9-11.9,5.3-13.9c0,0,1.5,0.6,1.8,2.1
				c0,0-2.1,2.6-1.8,5.1s2.6,12.1-3.2,18.3c-5.8,6.2-16.1,8.8-19.7,9.1c-3.6,0.3-9.4-1.8-11.5-3.4C-6.6,109.6-7.8,108.3-6.8,105.9z"
				/>
			<g>
				<path class="st21" d="M0,109.5c-2-0.1-3.3-0.4-3.3-0.4c-0.1,0-0.2-0.1-0.1-0.2c0-0.1,0.1-0.2,0.2-0.1c0.1,0,5.7,1.2,11.4-0.5
					c0.1,0,0.2,0,0.2,0.1c0,0.1,0,0.2-0.1,0.2C5.3,109.5,2.2,109.6,0,109.5z"/>
			</g>
			<g>
				<path class="st21" d="M10,108.1c-0.1,0-0.1-0.1-0.2-0.1c0-0.1,0-0.2,0.1-0.2c8.2-2.2,12-7.7,12.8-9.7c0.6-1.4,1.6-4.5,1.6-4.5
					c0-0.1,0.1-0.1,0.2-0.1c0.1,0,0.1,0.1,0.1,0.2c0,0-1,3.1-1.6,4.5C22.3,100.2,18.4,105.9,10,108.1C10,108.1,10,108.1,10,108.1z"
					/>
			</g>
			<g>
				<path class="st21" d="M27,85.5c0,0-0.1,0-0.1-0.1c-0.8-0.9-1.7-1.1-1.7-1.1c-0.1,0-0.2-0.1-0.1-0.2c0-0.1,0.1-0.2,0.2-0.1
					c0,0,1,0.2,1.9,1.2c0.1,0.1,0.1,0.2,0,0.2C27,85.5,27,85.5,27,85.5z"/>
			</g>
			<path class="st22" d="M27.7,78.5c-1.1,0.9-1.8,2.9-2.5,5.2c0,0,1.4,0.9,2.5,1.7c-0.1-2.4,1.8-4.9,1.8-4.9
				C29.3,79.1,27.7,78.5,27.7,78.5z"/>
			<g>
				<path class="st21" d="M3.6,113.2c-3.5-0.2-8.3-2-10.3-3.5c-0.1-0.1-1.2-1.4-0.3-3.9c0-0.1,0.1-0.1,0.2-0.1
					c0.1,0,8.4-0.1,14.1-2.4c3.7-1.5,12.4-5.6,15-11c0.9-1.9,1.6-4.3,2.2-6.6c0.9-3.2,1.7-6.1,3.1-7.3c0,0,0.1-0.1,0.2,0
					c0.1,0,1.6,0.7,1.9,2.2c0,0.1,0,0.1,0,0.1c0,0-2.1,2.6-1.8,5c0,0.3,0.1,0.6,0.2,1c0.6,3.5,1.9,11.8-3.4,17.4
					c-5.7,6.1-15.8,8.8-19.8,9.1C4.5,113.2,4.1,113.2,3.6,113.2z M-6.7,106.1c-0.8,2.2,0.2,3.4,0.2,3.4c2,1.4,6.7,3.2,10.1,3.4
					c0.5,0,0.9,0,1.3,0c3.9-0.3,13.9-3,19.5-9c5.1-5.5,3.8-13.6,3.3-17.1c-0.1-0.4-0.1-0.8-0.2-1c-0.3-2.4,1.5-4.7,1.8-5.2
					c-0.3-1.1-1.3-1.7-1.6-1.9c-1.3,1.2-2.1,4.1-2.9,7.1c-0.6,2.3-1.3,4.7-2.2,6.7c-2.6,5.5-11.5,9.6-15.2,11.2
					C2,105.8-5.6,106-6.7,106.1z"/>
			</g>
		</g>
	</g>
</g>
</svg>
