<svg xmlns="http://www.w3.org/2000/svg" viewBox="0 0 48 48"><path d="M41 31v3H5a3 3 0 0 1-3-3V11a3 3 0 0 1 3-3h17c18 0 19 23 19 23z" fill="#00bcd4"/><path d="M16 34V14.004c0-1.106-.895-2-2-2H7c-1.105 0-2 .894-2 2V34z" fill="#80deea"/><path d="M41 33h4" fill="none" stroke-width="2" stroke="#455a64"/><path d="M29 34a5 5 0 1 1-10 0 5 5 0 0 1 10 0z" fill="#455a64"/><path d="M26 34a1.999 1.999 0 1 1-4 0 1.999 1.999 0 1 1 4 0z" fill="#b0bec5"/><path d="M14 22c0 .55-.45 1-1 1H8c-.55 0-1-.45-1-1v-7c0-.55.45-1 1-1h5c.55 0 1 .45 1 1zm16.777-8H20c-.55 0-1 .45-1 1v7c0 .55.45 1 1 1h15a1 1 0 0 0 1-1s-.113-.563-.41-1.41c-1.07-2.387-2.606-4.785-4.813-6.59z" fill="#006064"/></svg>