<svg xmlns="http://www.w3.org/2000/svg" viewBox="0 0 26 26"><path d="M2.813 5A1 1 0 0 0 2 6c0 .555-.445 1-1 1-.55 0-1 .45-1 1v10c0 .55.45 1 1 1 .555 0 1 .445 1 1 0 .55.45 1 1 1h20c.55 0 1-.45 1-1 0-.555.445-1 1-1 .55 0 1-.45 1-1V8c0-.55-.45-1-1-1-.555 0-1-.445-1-1 0-.55-.45-1-1-1H2.812zm.78 2H18v1h2V7h2.406c.305.77.824 1.29 1.594 1.594v8.812c-.77.305-1.29.824-1.594 1.594H20v-1h-2v1H3.594c-.305-.77-.824-1.29-1.594-1.594V8.594C2.77 8.289 3.29 7.77 3.594 7zM18 9v2h2V9zm0 3v2h2v-2zm0 3v2h2v-2z"/></svg>