<svg xmlns="http://www.w3.org/2000/svg" viewBox="0 0 40 40"><polygon points="6.771,40 9,40 14,33 11.771,33" fill="#66798f"/><polygon points="28.229,33 26,33 31,40 33.229,40" fill="#66798f"/><line x1="23.5" y1="6.379" x2="23.5" y2="1" fill="none" stroke="#66798f" stroke-miterlimit="10"/><line x1="16.5" y1="6.379" x2="16.5" y2="1" fill="none" stroke="#66798f" stroke-miterlimit="10"/><path d="M10 36.5c-1.93 0-3.5-1.57-3.5-3.5V14c0-4.136 3.364-7.5 7.5-7.5h12c4.136 0 7.5 3.364 7.5 7.5v19c0 1.93-1.57 3.5-3.5 3.5H10z" fill="#f78f8f"/><path d="M26 7c3.86 0 7 3.14 7 7v19c0 1.654-1.346 3-3 3H10c-1.654 0-3-1.346-3-3V14c0-3.86 3.14-7 7-7h12m0-1H14a8 8 0 0 0-8 8v19a4 4 0 0 0 4 4h20a4 4 0 0 0 4-4V14a8 8 0 0 0-8-8z" fill="#c74343"/><path d="M6.5 25.5V14c0-4.136 3.364-7.5 7.5-7.5h12c4.136 0 7.5 3.364 7.5 7.5v11.5h-27z" fill="#ffc49c"/><path d="M26 7c3.86 0 7 3.14 7 7v11H7V14c0-3.86 3.14-7 7-7h12m0-1H14a8 8 0 0 0-8 8v12h28V14a8 8 0 0 0-8-8z" fill="#a16a4a"/><rect x="6.5" y="14.5" width="27" height="11" fill="#c2e8ff"/><path d="M33 15v10H7V15h26m1-1H6v12h28V14z" fill="#a16a4a"/><circle cx="28" cy="31" r="2" fill="#fff"/><circle cx="12" cy="31" r="2" fill="#fff"/><line x1="27.5" y1="26" x2="27.5" y2="14.087" fill="none" stroke="#a16a4a" stroke-miterlimit="10"/><line x1="12.5" y1="26" x2="12.5" y2="14.087" fill="none" stroke="#a16a4a" stroke-miterlimit="10"/><path d="M8.5 4.5l2.485-1.656A8 8 0 0 1 15.422 1.5h9.156c1.579 0 3.123.468 4.438 1.344L31.5 4.5" fill="none" stroke="#66798f" stroke-miterlimit="10"/></svg>