<?xml version="1.0" encoding="utf-8"?>
<!-- Generator: Adobe Illustrator 22.0.1, SVG Export Plug-In . SVG Version: 6.00 Build 0)  -->
<svg version="1.1" id="Layer_2_copy" xmlns="http://www.w3.org/2000/svg" xmlns:xlink="http://www.w3.org/1999/xlink" x="0px"
	 y="0px" viewBox="0 0 130 256.7" style="enable-background:new 0 0 130 256.7;" xml:space="preserve">
<style type="text/css">
	.st0{fill:#8F6C56;}
	.st1{clip-path:url(#SVGID_2_);}
	.st2{fill:#FBB885;}
	.st3{fill:#FEDFC0;}
	.st4{clip-path:url(#SVGID_4_);}
	.st5{fill:#95CD8B;}
	.st6{fill:#FFF37A;}
	.st7{clip-path:url(#SVGID_6_);}
	.st8{fill:#FCD8D1;}
	.st9{fill:#E7685D;}
	.st10{fill:#E7555D;}
	.st11{clip-path:url(#SVGID_8_);}
	.st12{fill:#7B5427;}
	.st13{fill:#FCDD7C;}
	.st14{clip-path:url(#SVGID_10_);}
	.st15{fill:#ECF5E4;}
	.st16{fill:none;stroke:#E7685D;stroke-width:9;stroke-linecap:round;stroke-linejoin:round;stroke-miterlimit:10;}
	.st17{clip-path:url(#SVGID_12_);}
	.st18{fill:#FED9B9;}
	.st19{fill:#C6DD7D;}
	.st20{fill:#956143;}
	.st21{fill:none;}
	.st22{clip-path:url(#SVGID_14_);}
	.st23{fill:#FFFDEB;}
	.st24{fill:#49361F;}
	.st25{fill:#EE9CB0;}
	.st26{fill:#F6967D;}
</style>
<g>
	<path class="st21" d="M51.3,10.7V6.9c0-3.8-3.1-6.9-6.9-6.9H18.6c-3.8,0-6.9,3.1-6.9,6.9v3.8c0,3.8,3.1,6.9,6.9,6.9h25.8
		C48.2,17.7,51.3,14.6,51.3,10.7z"/>
	<polygon class="st21" points="65,197.9 105.1,244.3 130,215.5 130,194.1 105.1,222.8 65,176.4 24.9,222.8 0,194.1 0,215.5 
		24.9,244.3 	"/>
	<polygon class="st21" points="28.1,256.7 46.7,256.7 65,235.5 83.3,256.7 101.9,256.7 65,214 	"/>
	<path class="st21" d="M130,231.7l-21.6,25c12-0.2,21.6-10,21.6-22V231.7z"/>
	<path class="st21" d="M65,8.5l40.1,46.4L130,26.1V14c0-12.1-9.8-22-22-22H22C9.8-8,0,1.8,0,14v12.1l24.9,28.7L65,8.5z M11.7,10.7
		V6.9c0-3.8,3.1-6.9,6.9-6.9h25.8c3.8,0,6.9,3.1,6.9,6.9v3.8c0,3.8-3.1,6.9-6.9,6.9H18.6C14.8,17.7,11.7,14.6,11.7,10.7z"/>
	<polygon class="st21" points="65,94.4 105.1,140.8 130,112.1 130,90.6 105.1,119.3 65,73 24.9,119.3 0,90.6 0,112.1 24.9,140.8 	
		"/>
	<polygon class="st21" points="65,56.8 105.1,103.2 130,74.5 130,53 105.1,81.7 65,35.4 24.9,81.7 0,53 0,74.5 24.9,103.2 	"/>
	<polygon class="st21" points="65,149.5 105.1,195.9 130,167.2 130,139 105.1,167.7 65,121.3 24.9,167.7 0,139 0,167.2 24.9,195.9 	
		"/>
	<path class="st21" d="M0,234.7c0,12,9.6,21.8,21.6,22L0,231.7V234.7z"/>
	<polygon class="st5" points="65,35.4 105.1,81.7 130,53 130,26.1 105.1,54.8 65,8.5 24.9,54.8 0,26.1 0,53 24.9,81.7 	"/>
	<polygon class="st25" points="65,73 105.1,119.3 130,90.6 130,74.5 105.1,103.2 65,56.8 24.9,103.2 0,74.5 0,90.6 24.9,119.3 	"/>
	<polygon class="st26" points="65,121.3 105.1,167.7 130,139 130,112.1 105.1,140.8 65,94.4 24.9,140.8 0,112.1 0,139 24.9,167.7 	
		"/>
	<polygon class="st5" points="65,176.4 105.1,222.8 130,194.1 130,167.2 105.1,195.9 65,149.5 24.9,195.9 0,167.2 0,194.1 
		24.9,222.8 	"/>
	<path class="st25" d="M130,215.5l-24.9,28.7L65,197.9l-40.1,46.4L0,215.5v16.1l21.6,25c0.1,0,0.2,0,0.4,0h6.1L65,214l36.9,42.6h6.1
		c0.1,0,0.2,0,0.4,0l21.6-25V215.5z"/>
	<polygon class="st26" points="46.7,256.7 83.3,256.7 65,235.5 	"/>
</g>
</svg>
