<svg xmlns="http://www.w3.org/2000/svg" viewBox="0 0 64 64"><path d="M44 36a6.996 6.996 0 0 1 5.441-6.828A2.004 2.004 0 0 0 51 27.23V21a2 2 0 0 0-2-2H3a2 2 0 0 0-2 2v6.23c.004.93.652 1.735 1.559 1.942a6.992 6.992 0 0 1 5.445 6.824 6.999 6.999 0 0 1-5.445 6.824A2.001 2.001 0 0 0 1 44.77V51a2 2 0 0 0 2 2h46a2 2 0 0 0 2-2v-6.23a2.004 2.004 0 0 0-1.559-1.942A6.996 6.996 0 0 1 44 36z" fill="#f9e3ae"/><path d="M19 23v26c0 2.21-1.79 4-4 4H3a2 2 0 0 1-2-2v-6.23a2.004 2.004 0 0 1 1.559-1.942A7 7 0 0 0 8.027 36a7 7 0 0 0-5.468-6.828A2.004 2.004 0 0 1 1 27.23V21a2 2 0 0 1 2-2h12c2.21 0 4 1.79 4 4z" fill="#5dbc9d"/><path d="M56 26a6.996 6.996 0 0 0 5.441 6.828A2.004 2.004 0 0 1 63 34.77V41a2 2 0 0 1-2 2H15a2 2 0 0 1-2-2v-6.23a2.004 2.004 0 0 1 1.559-1.942A7 7 0 0 0 20.027 26a7 7 0 0 0-5.468-6.828A2.004 2.004 0 0 1 13 17.23V11a2 2 0 0 1 2-2h46a2 2 0 0 1 2 2v6.23a2.004 2.004 0 0 1-1.559 1.942A6.996 6.996 0 0 0 56 26z" fill="#ffefb8"/><path d="M45.75 9l-17 34H27L44 9z" fill="#fff6df"/><path d="M31 13v26c0 2.21-1.79 4-4 4H15a2 2 0 0 1-2-2v-6.23a2.004 2.004 0 0 1 1.559-1.942A7 7 0 0 0 20.027 26a7 7 0 0 0-5.468-6.828A2.004 2.004 0 0 1 13 17.23V11a2 2 0 0 1 2-2h12c2.21 0 4 1.79 4 4z" fill="#72caaf"/><path d="M56 26a6.996 6.996 0 0 0 5.441 6.828A2.004 2.004 0 0 1 63 34.77V41a2 2 0 0 1-2 2H43.25l17-34H61a2 2 0 0 1 2 2v6.23a2.004 2.004 0 0 1-1.559 1.942A6.996 6.996 0 0 0 56 26zm.25-17l-17 34H34L51 9z" fill="#fff6df"/><path d="M61.66 20.148A2.996 2.996 0 0 0 64 17.23V11a3 3 0 0 0-3-3H15a3 3 0 0 0-3 3v6.23c-.004.258.031.52.102.77H3a3 3 0 0 0-3 3v6.23a2.996 2.996 0 0 0 2.34 2.918A6.004 6.004 0 0 1 7.008 36c0 2.8-1.938 5.227-4.668 5.852A2.996 2.996 0 0 0 0 44.77V51a3 3 0 0 0 3 3h46a3 3 0 0 0 3-3v-6.23a2.706 2.706 0 0 0-.102-.77H61a3 3 0 0 0 3-3v-6.23a2.996 2.996 0 0 0-2.34-2.918A6.004 6.004 0 0 1 56.992 26c0-2.8 1.938-5.227 4.668-5.852zM50 44.77V51c0 .55-.45 1-1 1H3c-.55 0-1-.45-1-1v-6.23a1.002 1.002 0 0 1 .781-1 7.999 7.999 0 0 0 0-15.598 1.002 1.002 0 0 1-.781-1V21c0-.55.45-1 1-1h10.84c.164.059.332.11.5.148A6.004 6.004 0 0 1 19.008 26c0 2.8-1.938 5.227-4.668 5.852A2.996 2.996 0 0 0 12 34.77V41a3 3 0 0 0 3 3h34.629c.234.188.367.473.371.77zM55 26a8.002 8.002 0 0 0 6.219 7.8c.465.106.793.524.781 1V41c0 .55-.45 1-1 1H15c-.55 0-1-.45-1-1v-6.23a1.002 1.002 0 0 1 .781-1 7.999 7.999 0 0 0 0-15.598 1.222 1.222 0 0 1-.41-.203.996.996 0 0 1-.371-.77V11c0-.55.45-1 1-1h46c.55 0 1 .45 1 1v6.23a1 1 0 0 1-.781 1A7.999 7.999 0 0 0 55 26z" fill="#8d6c9f"/><path d="M49 22H37c-.55 0-1 .45-1 1s.45 1 1 1h12c.55 0 1-.45 1-1s-.45-1-1-1zm-8 6h-4c-.55 0-1 .45-1 1s.45 1 1 1h4c.55 0 1-.45 1-1s-.45-1-1-1zm6 0h-2c-.55 0-1 .45-1 1s.45 1 1 1h2c.55 0 1-.45 1-1s-.45-1-1-1z" fill="#ed7899"/><path d="M31 12c-.55 0-1 .45-1 1v26c0 .55.45 1 1 1s1-.45 1-1V13c0-.55-.45-1-1-1zm-4 5h-2c-.55 0-1 .45-1 1s.45 1 1 1h2c.55 0 1-.45 1-1s-.45-1-1-1zm0 5h-2c-.55 0-1 .45-1 1s.45 1 1 1h2c.55 0 1-.45 1-1s-.45-1-1-1zm0 5h-2c-.55 0-1 .45-1 1s.45 1 1 1h2c.55 0 1-.45 1-1s-.45-1-1-1zm0 5h-2c-.55 0-1 .45-1 1s.45 1 1 1h2c.55 0 1-.45 1-1s-.45-1-1-1zm0 5h-2c-.55 0-1 .45-1 1s.45 1 1 1h2c.55 0 1-.45 1-1s-.45-1-1-1zm0-25h-2c-.55 0-1 .45-1 1s.45 1 1 1h2c.55 0 1-.45 1-1s-.45-1-1-1z" fill="#8d6c9f"/></svg>