<svg xmlns="http://www.w3.org/2000/svg" viewBox="0 0 48 48"><path d="M38.027 8.73L35.2 5.898s-2.12-2.12-4.242 0l-3.89 3.891a1.5 1.5 0 1 1-2.122 2.121L9 27.914c-2.121 2.121 0 4.246 0 4.246l2.828 2.828a2.999 2.999 0 1 1 4.242 4.242l2.828 2.829c2.122 2.12 4.243 0 4.243 0S32.949 32.19 39.09 26.05a1.5 1.5 0 1 1 2.12-2.121l3.888-3.887c2.12-2.121 0-4.242 0-4.242l-2.828-2.828a2.999 2.999 0 1 1-4.242-4.242zm-.351 13.79a1.507 1.507 0 0 1-2.121 0 1.504 1.504 0 0 1 0-2.125 1.507 1.507 0 0 1 2.12 0 1.502 1.502 0 0 1 0 2.125zm-3.535-3.54a1.5 1.5 0 1 1-2.121-2.12 1.5 1.5 0 0 1 2.12 2.12zm-3.536-3.535a1.5 1.5 0 1 1-2.12-2.12 1.5 1.5 0 0 1 2.12 2.12z" fill="#ef6c00"/><path d="M31.984 9.73l-2.828-2.832s-2.12-2.12-4.242 0l-3.887 3.891a1.507 1.507 0 0 1 0 2.121 1.504 1.504 0 0 1-2.125 0L2.957 28.914c-2.121 2.121 0 4.242 0 4.242l2.828 2.828a3.002 3.002 0 0 1 4.242 0 3.004 3.004 0 0 1 0 4.246l2.828 2.829c2.122 2.12 4.243 0 4.243 0s9.808-9.868 15.949-16.008a1.5 1.5 0 1 1 2.121-2.121l3.887-3.887c2.125-2.121 0-4.242 0-4.242l-2.828-2.828a2.999 2.999 0 1 1-4.242-4.242zm-.351 13.79a1.5 1.5 0 1 1-2.122-2.121 1.5 1.5 0 0 1 2.122 2.12zm-3.535-3.54a1.5 1.5 0 1 1-2.121-2.12 1.5 1.5 0 0 1 2.12 2.12zm-3.535-3.535a1.5 1.5 0 1 1-2.122-2.12 1.5 1.5 0 0 1 2.122 2.12z" fill="#ffa000"/></svg>