<svg xmlns="http://www.w3.org/2000/svg" viewBox="0 0 50 50"><path d="M17 2c-4.5 0-8 3.5-8 8s3.5 8 8 8 8-3.5 8-8-3.5-8-8-8zm12.406 4c-.199 0-.394.086-.593.188L27.688 7l-1.094-.813c-.102-.101-.207-.093-.407-.093.5 1.199.813 2.601.813 4 0 1.398-.313 2.8-.813 4H36a.87.87 0 0 0 .688-.281l2-2c.199-.2.312-.418.312-.72V9c0-.3-.113-.488-.313-.688l-2-2C36.489 6.114 36.301 6 36 6h-1.688c-.3 0-.519.113-.718.313L32.5 7.405l-1.094-1.093c-.199-.2-.52-.313-.718-.313zM15 8c1.102 0 2 .898 2 2 0 1.102-.898 2-2 2-1.102 0-2-.898-2-2 0-1.102.898-2 2-2zm7.813 12a.967.967 0 0 0-.25.094l-2 1a1.007 1.007 0 0 0 .875 1.812l1.656-.843 2.218.75 2.5 4.093c-.699.7-2.425 1.992-5.625 2.094l-4.78-1.906C17.304 26.992 17.101 27 17 27H5c-.602 0-1 .398-1 1v3l40.594-1.906c-3.7-5.2-12.696-7.2-18.094-8h-.031a1.006 1.006 0 0 0-.157-.032l-3-1a1.03 1.03 0 0 0-.406-.062h-.093zM46 31L4 33c-.5 0-1 .5-1 1 0 1.602.2 2.813.5 3.813 1.2-.301 1.906-.907 1.906-.907.2-.199.305-.21.407-.312C6.21 36.195 6.897 36 7.5 36c.8 0 1.492.313 2.094.813C9.695 36.813 10.898 38 13 38c2.102 0 3.406-1.094 3.406-1.094.102-.101.18-.218.282-.218.5-.399 1.113-.594 1.812-.594.8 0 1.492.312 2.094.812.101 0 1.304 1.188 3.406 1.188 2.102 0 3.406-1.094 3.406-1.094.102-.102.305-.21.407-.313.5-.398 1.085-.5 1.687-.5.8 0 1.492.313 2.094.813.101 0 1.304 1.188 3.406 1.188 2.102 0 3.406-1.094 3.406-1.094.102-.102.305-.18.407-.282.5-.398 1.085-.624 1.687-.624.8 0 1.492.312 2.094.812 0 0 .601.512 1.5.813 1.199-1.301 2.414-3.102 2.812-5.5.102-.301-.02-.614-.218-.813-.102-.398-.387-.5-.688-.5zM7.406 37.969a1.169 1.169 0 0 0-.218.062.88.88 0 0 0-.094.032 1.204 1.204 0 0 0-.188.124.466.466 0 0 0-.062.032.965.965 0 0 0-.282.281C6.07 38.922 4.547 40 2 40a1.006 1.006 0 0 0-.879.496 1.01 1.01 0 0 0 0 1.008c.184.312.52.5.879.496a9.598 9.598 0 0 0 5.5-1.719A9.598 9.598 0 0 0 13 42a9.598 9.598 0 0 0 5.5-1.719A9.598 9.598 0 0 0 24 42a9.598 9.598 0 0 0 5.5-1.719A9.598 9.598 0 0 0 35 42a9.598 9.598 0 0 0 5.5-1.719A9.598 9.598 0 0 0 46 42c.36.004.695-.184.879-.496a1.01 1.01 0 0 0 0-1.008c-.184-.312-.52-.5-.879-.496-2.793 0-4.348-1.305-4.656-1.594a.472.472 0 0 0-.063-.062l-.062-.063a.472.472 0 0 0-.063-.062l-.031-.032a.466.466 0 0 0-.063-.03 1.302 1.302 0 0 0-.093-.063h-.032a1.243 1.243 0 0 0-.124-.063h-.063a.466.466 0 0 0-.063-.031 1.075 1.075 0 0 0-.594.063.88.88 0 0 0-.093.03l-.031.032a.466.466 0 0 0-.063.031l-.031.032-.031.03-.032.032a.951.951 0 0 0-.25.25C39.07 38.922 37.547 40 35 40c-2.793 0-4.348-1.305-4.656-1.594a.472.472 0 0 0-.063-.062l-.062-.063-.032-.031-.03-.031-.032-.032a.466.466 0 0 0-.063-.03l-.03-.032a.88.88 0 0 0-.095-.031 1.243 1.243 0 0 0-.125-.063h-.062a.466.466 0 0 0-.063-.031h-.03a1.048 1.048 0 0 0-.313 0h-.032a1.075 1.075 0 0 0-.343.125.466.466 0 0 0-.063.031l-.031.032-.031.03a.472.472 0 0 0-.063.063s-.078.047-.093.063a.954.954 0 0 0-.125.156C28.07 38.922 26.547 40 24 40c-2.793 0-4.348-1.305-4.656-1.594a.472.472 0 0 0-.063-.062l-.062-.063a.472.472 0 0 0-.063-.062l-.031-.032a.466.466 0 0 0-.063-.03 1.302 1.302 0 0 0-.093-.063h-.032l-.03-.032h-.063l-.032-.03h-.062a.466.466 0 0 0-.063-.032h-.03a1.048 1.048 0 0 0-.313 0h-.032a1.075 1.075 0 0 0-.218.063.88.88 0 0 0-.094.03l-.031.032a.466.466 0 0 0-.063.031l-.031.032-.031.03-.032.032a.985.985 0 0 0-.156.156l-.031.032a.472.472 0 0 0-.063.062C17.07 38.922 15.547 40 13 40c-2.71 0-4.25-1.223-4.625-1.563l-.031-.03c-.031-.032-.09-.122-.094-.126h-.031a.945.945 0 0 0-.125-.125h-.031A.472.472 0 0 0 8 38.094h-.031a.967.967 0 0 0-.25-.094h-.032a.972.972 0 0 0-.28-.031zm0 6a1.169 1.169 0 0 0-.218.062.88.88 0 0 0-.094.032 1.204 1.204 0 0 0-.188.124.466.466 0 0 0-.062.032.965.965 0 0 0-.282.281C6.07 44.922 4.547 46 2 46a1.006 1.006 0 0 0-.879.496 1.01 1.01 0 0 0 0 1.008c.184.312.52.5.879.496a9.598 9.598 0 0 0 5.5-1.719A9.598 9.598 0 0 0 13 48a9.598 9.598 0 0 0 5.5-1.719A9.598 9.598 0 0 0 24 48a9.598 9.598 0 0 0 5.5-1.719A9.598 9.598 0 0 0 35 48a9.598 9.598 0 0 0 5.5-1.719A9.598 9.598 0 0 0 46 48c.36.004.695-.184.879-.496a1.01 1.01 0 0 0 0-1.008c-.184-.312-.52-.5-.879-.496-2.793 0-4.348-1.305-4.656-1.594a.472.472 0 0 0-.063-.062l-.062-.063a.472.472 0 0 0-.063-.062l-.031-.032a.466.466 0 0 0-.063-.03 1.302 1.302 0 0 0-.093-.063h-.032a1.243 1.243 0 0 0-.124-.063h-.063a.466.466 0 0 0-.063-.031 1.075 1.075 0 0 0-.594.063.88.88 0 0 0-.093.03l-.031.032a.466.466 0 0 0-.063.031l-.031.032-.031.03-.032.032a.951.951 0 0 0-.25.25C39.07 44.922 37.547 46 35 46c-2.793 0-4.348-1.305-4.656-1.594a.472.472 0 0 0-.063-.062l-.062-.063-.032-.031-.03-.031-.032-.032a.466.466 0 0 0-.063-.03l-.03-.032a.88.88 0 0 0-.095-.031 1.243 1.243 0 0 0-.125-.063h-.062a.466.466 0 0 0-.063-.031h-.03a1.048 1.048 0 0 0-.313 0h-.032a1.075 1.075 0 0 0-.343.125.466.466 0 0 0-.063.031l-.031.032-.031.03a.472.472 0 0 0-.063.063s-.078.047-.093.063a.954.954 0 0 0-.125.156C28.07 44.922 26.547 46 24 46c-2.793 0-4.348-1.305-4.656-1.594a.472.472 0 0 0-.063-.062l-.062-.063a.472.472 0 0 0-.063-.062l-.031-.032a.466.466 0 0 0-.063-.03 1.302 1.302 0 0 0-.093-.063h-.032l-.03-.032h-.063l-.032-.03h-.062a.466.466 0 0 0-.063-.032h-.03a1.048 1.048 0 0 0-.313 0h-.032a1.075 1.075 0 0 0-.218.063.88.88 0 0 0-.094.03l-.031.032a.466.466 0 0 0-.063.031l-.031.032-.031.03-.032.032a.985.985 0 0 0-.156.156l-.031.032a.472.472 0 0 0-.063.062C17.07 44.922 15.547 46 13 46c-2.71 0-4.25-1.223-4.625-1.563l-.031-.03c-.031-.032-.09-.122-.094-.126h-.031a.945.945 0 0 0-.125-.125h-.031A.472.472 0 0 0 8 44.094h-.031a.967.967 0 0 0-.25-.094h-.032a.972.972 0 0 0-.28-.031z"/></svg>