<svg xmlns="http://www.w3.org/2000/svg" viewBox="0 0 48 48"><path d="M32 15a2 2 0 0 1-2 2H18a2 2 0 0 1-2-2v-5a2 2 0 0 1 2-2h12a2 2 0 0 1 2 2z" fill="#cfd8dc"/><path d="M36 24H12v-9a2 2 0 0 1 2-2h20a2 2 0 0 1 2 2z" fill="#cfd8dc"/><path d="M15 15h2v2h-2zm4 0h2v2h-2zm4 0h2v2h-2zm4 0h2v2h-2zm4 0h2v2h-2zm-12-5h2v2h-2zm4 0h2v2h-2zm4 0h2v2h-2z" fill="#546e7a"/><path d="M24 17c-3 0-14 6-14 6s2 11 6.418 17.586C18.305 43.398 21.352 40.18 24 40c2.648.18 5.691 3.398 7.582.586C36 34 38 23 38 23s-11-6-14-6z" fill="#3f51b5"/><path d="M27.938 18.086C26.277 17.44 24.831 17 24 17c-.832 0-2.277.441-3.934 1.086l3.47 21.977c.155-.028.312-.051.464-.063.152.012.309.031.465.063z" fill="#283593"/><path d="M44 35c-3 0-4-2-4-2s-1 2-4 2-4-2-4-2-1 2-4 2-4-2-4-2-1 2-4 2-4-2-4-2-1 2-4 2-4-2-4-2-1 2-4 2v8h40z" fill="#90caf9"/><path d="M44 39c-3 0-4-2-4-2s-1 2-4 2-4-2-4-2-1 2-4 2-4-2-4-2-1 2-4 2-4-2-4-2-1 2-4 2-4-2-4-2-1 2-4 2v4h40z" fill="#2196f3"/><path d="M30 29l-1 3 2 1 1-3zm-12 0l1 3-2 1-1-3z"/><path d="M23 4h2v4h-2z" fill="#90a4ae"/></svg>