<svg xmlns="http://www.w3.org/2000/svg" viewBox="0 0 16 16"><path d="M7 1v1H5v2H3v2.742l-2 .336v1.274l1 2.375v1.289H1c0 1.101.902 2 2 2 .598 0 1.133-.274 1.5-.692.367.418.902.692 1.5.692s1.133-.274 1.5-.692c.367.418.902.692 1.5.692s1.133-.274 1.5-.692c.367.418.902.692 1.5.692 1.098 0 2-.899 2-2h-1v-1.29l1-2.374V7.078l-2-.336V4h-2V2H8V1zM6 3h3v2h2v1.578l-3.5-.586-3.5.586V5h2zm1.5 4.008l5.5.914v.226l-1 2.375v2.493a1 1 0 0 1-1-1h-1a1 1 0 1 1-2 0H7a1 1 0 1 1-2 0H4a1 1 0 0 1-1 1v-2.493L2 8.148v-.226zM4.5 9c-.3 0-.5.469-.5 1s.2 1 .5 1 .5-.469.5-1-.2-1-.5-1zm6 0c-.3 0-.5.469-.5 1s.2 1 .5 1 .5-.469.5-1-.2-1-.5-1z"/></svg>