<svg xmlns="http://www.w3.org/2000/svg" viewBox="0 0 26 26"><path d="M12 0v2H8.906A.996.996 0 0 0 8 3v2H6c-.55 0-1 .45-1 1v4.656l-1.313.438c-1.398.5-2.074 2.105-1.374 3.406L4 18v2.188c-.898.699-2.2.906-3 .906-.398 0-.7.008-1-.094v1.813c.3 0 .602.093 1 .093 1.7 0 2.398-.406 3-.906.898.7 2.2.906 3 .906.8 0 2.102-.207 3-.906.898.7 2.2.906 3 .906.8 0 2.102-.207 3-.906.898.7 2.2.906 3 .906.8 0 2.102-.207 3-.906.898.7 2.2.906 3 .906.398 0 .7-.117 1-.218v-1.782c-.3.102-.602.188-1 .188-.8 0-2.102-.207-3-.907V18l1.688-3.5c.699-1.3.023-2.906-1.375-3.406L21 10.656V6c0-.55-.45-1-1-1h-2V3c0-.55-.45-1-1-1h-3V0zm-2 4h6v2c0 .55.45 1 1 1h2v3l-6-2-6 2V7h2c.55 0 1-.45 1-1zm-1 8c.602 0 1 .7 1 1.5S9.602 15 9 15s-1-.7-1-1.5.398-1.5 1-1.5zm9 0c.602 0 1 .7 1 1.5s-.398 1.5-1 1.5-1-.7-1-1.5.398-1.5 1-1.5zM4 23.188c-.898.699-2.2.906-3 .906-.398 0-.7.008-1-.094v1.813c.3 0 .602.093 1 .093 1.7 0 2.398-.406 3-.906.898.7 2.2.906 3 .906.8 0 2.102-.207 3-.906.898.7 2.2.906 3 .906.8 0 2.102-.207 3-.906.898.7 2.2.906 3 .906.8 0 2.102-.207 3-.906.898.7 2.2.906 3 .906.398 0 .7-.117 1-.218v-1.782c-.3.102-.602.188-1 .188-.8 0-2.102-.207-3-.907-.898.7-2.2.907-3 .907-.8 0-2.102-.207-3-.907-.898.7-2.2.907-3 .907-.8 0-2.102-.207-3-.907-.898.7-2.2.907-3 .907-.8 0-2.102-.207-3-.907z"/></svg>