<svg xmlns="http://www.w3.org/2000/svg" viewBox="0 0 50 50"><path d="M25 .313a.977.977 0 0 0-.938.687H24v5h2V1h-.063A.977.977 0 0 0 25 .312zM16 7c-.55 0-1 .45-1 1v9h20V8a1 1 0 0 0-1-1zM9 18v5.188c0 2.363.688 4.628 1.969 6.53l-4.969 3V22c0-.55-.45-1-1-1H1c-.55 0-1 .45-1 1v20.094C0 46.449 3.55 50 7.906 50h34.188C46.449 50 50 46.45 50 42.094V22a1 1 0 0 0-1-1h-4a1 1 0 0 0-1 1v10.719l-5-3c1.281-1.914 2-4.2 2-6.532V18zm5 5h4v2l-4-.906zm18 0h4v1.094L32 25zm-19.719 8.281c.41.426.836.852 1.313 1.219l.844.656L6 40.531v-5.468zm25.438 0L44 35.063v5.468l-8.438-7.375.844-.656c.473-.363.907-.793 1.313-1.219zM16.03 34.375L25 41.25l8.969-6.875 9.5 8.375A3.025 3.025 0 0 1 41 44H9a3.025 3.025 0 0 1-2.469-1.25z"/></svg>