<svg xmlns="http://www.w3.org/2000/svg" viewBox="0 0 64 64"><path d="M45.074.004c-1.57 0-3.14.598-4.34 1.793-1.09 1.09-1.68 3.492-2 5.805-.43-1.278-.968-2.457-1.62-3.11-2-2-5.255-2-7.255 0a5.094 5.094 0 0 0-1.5 3.625c0 1.371.532 2.656 1.5 3.63.11.108.239.214.375.316H17c-1.648 0-3 1.34-3 3v6c0 .796.313 1.546.879 2.117.32.32.7.562 1.121.71v8.172H3c-1.648 0-3 1.34-3 3v2c0 .797.313 1.547.883 2.118.316.32.695.562 1.117.71v17.172C2 58.712 3.352 60 5 60h54c1.648 0 3-1.29 3-2.938v-33.17c.422-.149.8-.391 1.121-.711.566-.57.879-1.32.879-2.117v-6c0-1.66-1.352-3-3-3H46.672c1.129-.45 2.125-.977 2.738-1.59a6.137 6.137 0 0 0 0-8.676A6.113 6.113 0 0 0 45.074.004zm0 1.996A4.14 4.14 0 0 1 48 3.21a4.145 4.145 0 0 1 0 5.849c-1.121 1.117-4.863 2.125-7.61 2.644.141-3.246.712-7.445 1.762-8.492A4.123 4.123 0 0 1 45.074 2zm-11.59 2.992a3.12 3.12 0 0 1 2.215.914c.836.84 1.637 3.77 2.086 6.047-2.57-.254-5.722-.836-6.512-1.625a3.125 3.125 0 0 1 2.21-5.336zM17 14h21v8.059H16.992a1.01 1.01 0 0 1-.703-.297.962.962 0 0 1-.289-.7v-6C16 14.5 16.45 14 17 14zm23 0h21c.55 0 1 .5 1 1.063v6a.968.968 0 0 1-.29.699 1.01 1.01 0 0 1-.702.297H51a1 1 0 0 0-1 1c0 .55.45.941 1 .941h9v33.063c0 .546-.45 1-1 1H31.82c.121-.313.18-.653.18-1v-1.004c.55 0 1-.45 1-1v-2a1 1 0 0 0-1-1V39.89c.422-.149.8-.391 1.121-.711.566-.57.879-1.32.879-2.117v-2c0-1.66-1.352-3-3-3H18V24h20v25.059c0 .55.45 1 1 1s1-.45 1-1zm3 8a1 1 0 1 0 0 2h4a1 1 0 1 0 0-2zM3 34h13v4.059H2.984a1.027 1.027 0 0 1-.695-.297.968.968 0 0 1-.289-.7v-2C2 34.5 2.45 34 3 34zm15 0h13c.55 0 1 .5 1 1.063v2a.968.968 0 0 1-.29.699 1.018 1.018 0 0 1-.698.297H18zM4 40h12v9.059c0 .55.45 1 1 1s1-.45 1-1V40h12v17.063c0 .546-.45 1-1 1H5c-.55 0-1-.454-1-1zm3 12a1 1 0 0 0-1 1v2a1 1 0 1 0 2 0v-2a1 1 0 0 0-1-1zm5 0a1 1 0 0 0-1 1v2a1 1 0 1 0 2 0v-2a1 1 0 0 0-1-1zm5 0a1 1 0 0 0-1 1v2a1 1 0 1 0 2 0v-2a1 1 0 0 0-1-1zm5 0a1 1 0 0 0-1 1v2a1 1 0 1 0 2 0v-2a1 1 0 0 0-1-1zm5 0a1 1 0 0 0-1 1v2a1 1 0 1 0 2 0v-2a1 1 0 0 0-1-1zm10 0a1 1 0 0 0-1 1v2a1 1 0 1 0 2 0v-2a1 1 0 0 0-1-1zm5 0a1 1 0 0 0-1 1v2a1 1 0 1 0 2 0v-2a1 1 0 0 0-1-1zm5 0a1 1 0 0 0-1 1v2a1 1 0 1 0 2 0v-2a1 1 0 0 0-1-1zm5 0a1 1 0 0 0-1 1v2a1 1 0 1 0 2 0v-2a1 1 0 0 0-1-1zm5 0a1 1 0 0 0-1 1v2a1 1 0 1 0 2 0v-2a1 1 0 0 0-1-1z"/></svg>