<svg xmlns="http://www.w3.org/2000/svg" viewBox="0 0 64 64"><path d="M59 59.059H19a2 2 0 0 1-2-2v-34a2 2 0 0 1-2-2v-6c0-1.102.895-2 2-2h44c1.105 0 2 .898 2 2v6a2 2 0 0 1-2 2v34a2 2 0 0 1-2 2z" fill="#85cbf8"/><path d="M3 54h56a2 2 0 0 1 2 2 3 3 0 0 1-3 3H6a3 3 0 0 1-3-3z" fill="#7bbeeb"/><path d="M15 13h48v10H15z" fill="#9fddff"/><path d="M29 59.059H5a2 2 0 0 1-2-2v-18a2 2 0 0 1-2-2v-2c0-1.102.895-2 2-2h28c1.105 0 2 .898 2 2v2a2 2 0 0 1-2 2v18a2 2 0 0 1-2 2z" fill="#f9e3ae"/><path d="M3 39h28v5H3z" fill="#f6d397"/><path d="M17 23h44v5H17z" fill="#7bbeeb"/><path d="M3 33h28a2 2 0 0 1 2 2v2a2 2 0 0 1-2 2H3a2 2 0 0 1-2-2v-2a2 2 0 0 1 2-2z" fill="#faefde"/><path d="M6 54h22a3 3 0 0 1 3 3v2H3v-2a3 3 0 0 1 3-3z" fill="#f6d397"/><path d="M61 12.059H46.672a8.279 8.279 0 0 0 2.738-1.59 6.127 6.127 0 0 0 0-8.668 6.132 6.132 0 0 0-8.672 0c-1.09 1.09-1.68 3.488-2 5.8a8.478 8.478 0 0 0-1.617-3.113 5.13 5.13 0 1 0-7.25 7.25c.117.117.242.219.379.313H17a3 3 0 0 0-3 3v6a3.005 3.005 0 0 0 2 2.828v8.172H3a3 3 0 0 0-3 3v2a3 3 0 0 0 .879 2.12c.316.321.7.567 1.121.72v17.168A2.999 2.999 0 0 0 5 60h54a2.999 2.999 0 0 0 3-2.941V23.89a3.048 3.048 0 0 0 1.121-.711 2.998 2.998 0 0 0 .879-2.12v-6a3 3 0 0 0-3-3zM42.148 3.21a4.135 4.135 0 0 1 5.852 0 4.13 4.13 0 0 1 0 5.848c-1.121 1.12-4.86 2.132-7.61 2.652.141-3.25.712-7.45 1.758-8.5zM31.27 5.91a3.13 3.13 0 0 1 4.421 0c.84.839 1.637 3.769 2.09 6-2.57-.25-5.722-.84-6.511-1.622a3.126 3.126 0 0 1 0-4.418zM16 15.058a1.016 1.016 0 0 1 .27-.746c.19-.2.453-.313.73-.313h21v8.059H17a1.003 1.003 0 0 1-.988-1zm15 23H18V34h13c.277 0 .54.113.73.313.188.203.286.472.27.746v2a1.003 1.003 0 0 1-1 1zm-29-3a1.016 1.016 0 0 1 .27-.746c.19-.2.453-.313.73-.313h13v4.059H3a1 1 0 0 1-.98-1zm14.18 23H5a1 1 0 0 1-1-1V40h12v9.059a1 1 0 1 0 2 0V40h12v17.059a1 1 0 0 1-1 1zm45.82-37a1.003 1.003 0 0 1-.988 1H51c-.55 0-1 .449-1 1A.999.999 0 0 0 51 24h9v33.059a1 1 0 0 1-1 1H31.82a2.72 2.72 0 0 0 .18-1v-1a1 1 0 0 0 1-1v-2c0-.551-.45-1-1-1V39.89a3.048 3.048 0 0 0 1.121-.711 2.998 2.998 0 0 0 .879-2.12v-2a3 3 0 0 0-3-3H18V24h20v25.059a1 1 0 1 0 2 0V14h21c.277 0 .54.113.73.313.188.203.286.472.27.746z" fill="#8d6c9f"/><path d="M37 52c-.55 0-1 .45-1 1v2c0 .55.45 1 1 1s1-.45 1-1v-2c0-.55-.45-1-1-1zm5 0c-.55 0-1 .45-1 1v2c0 .55.45 1 1 1s1-.45 1-1v-2c0-.55-.45-1-1-1zm5 0c-.55 0-1 .45-1 1v2c0 .55.45 1 1 1s1-.45 1-1v-2c0-.55-.45-1-1-1zm5 4c.55 0 1-.45 1-1v-2c0-.55-.45-1-1-1s-1 .45-1 1v2c0 .55.45 1 1 1zm5 0c.55 0 1-.45 1-1v-2c0-.55-.45-1-1-1s-1 .45-1 1v2c0 .55.45 1 1 1zM47 22h-4c-.55 0-1 .45-1 1s.45 1 1 1h4c.55 0 1-.45 1-1s-.45-1-1-1zM17 52c-.55 0-1 .45-1 1v2c0 .55.45 1 1 1s1-.45 1-1v-2c0-.55-.45-1-1-1zm-5 0c-.55 0-1 .45-1 1v2c0 .55.45 1 1 1s1-.45 1-1v-2c0-.55-.45-1-1-1zm-5 0c-.55 0-1 .45-1 1v2c0 .55.45 1 1 1s1-.45 1-1v-2c0-.55-.45-1-1-1zm15 0c-.55 0-1 .45-1 1v2c0 .55.45 1 1 1s1-.45 1-1v-2c0-.55-.45-1-1-1zm5 0c-.55 0-1 .45-1 1v2c0 .55.45 1 1 1s1-.45 1-1v-2c0-.55-.45-1-1-1z" fill="#8d6c9f"/></svg>