<svg xmlns="http://www.w3.org/2000/svg" viewBox="0 0 48 48"><path d="M14.5 11.93v1.504a.501.501 0 0 0 1 0V11.93c-.16.043-.324.07-.5.07s-.34-.027-.5-.07zm18 0v1.504c0 .273.227.5.5.5s.5-.227.5-.5V11.93c-.16.043-.324.07-.5.07s-.34-.027-.5-.07zm-9 0v1.504a.501.501 0 0 0 1 0V11.93c-.16.043-.324.07-.5.07s-.34-.027-.5-.07z" fill="#795548"/><path d="M17 10c0-1.105-2-4-2-4s-2 2.895-2 4c0 .934.64 1.707 1.5 1.93V11a.501.501 0 0 1 1 0v.93c.86-.223 1.5-.996 1.5-1.93zm18 0c0-1.105-2-4-2-4s-2 2.895-2 4c0 .934.64 1.707 1.5 1.93V11c0-.273.227-.5.5-.5s.5.227.5.5v.93c.86-.223 1.5-.996 1.5-1.93zm-9 0c0-1.105-2-4-2-4s-2 2.895-2 4c0 .934.64 1.707 1.5 1.93V11a.501.501 0 0 1 1 0v.93c.86-.223 1.5-.996 1.5-1.93z" fill="#ffb300"/><path d="M16 11c0 .55-.45 1-1 1s-1-.45-1-1 .45-1 1-1 1 .45 1 1zm18 0c0 .55-.45 1-1 1s-1-.45-1-1 .45-1 1-1 1 .45 1 1zm-9 0c0 .55-.45 1-1 1s-1-.45-1-1 .45-1 1-1 1 .45 1 1z" fill="#ff9800"/><path d="M15 10.5c-.277 0-.5.227-.5.5v.93c.16.043.324.07.5.07s.34-.027.5-.07V11c0-.273-.223-.5-.5-.5zm18 0c-.273 0-.5.227-.5.5v.93c.16.043.324.07.5.07s.34-.027.5-.07V11c0-.273-.227-.5-.5-.5zm-9 0c-.277 0-.5.227-.5.5v.93c.16.043.324.07.5.07s.34-.027.5-.07V11c0-.273-.223-.5-.5-.5z" fill="#e65100"/><path d="M17 28c0 .555-.445 1-1 1h-2a1 1 0 0 1-1-1V14a1 1 0 0 1 1-1h2c.555 0 1 .445 1 1zm18-.105c0 .554-.445 1-1 1h-2a1 1 0 0 1-1-1v-14c0-.551.45-1 1-1h2a1 1 0 0 1 1 1zM26 28c0 .555-.445 1-1 1h-2a1 1 0 0 1-1-1V14a1 1 0 0 1 1-1h2c.555 0 1 .445 1 1z" fill="#f8bbd0"/><path d="M29.93 32.305c-4.703 3.53-8.075 3.558-11.93.062-3.52 3.203-6.563 3.477-10 .832V40h32v-6.797C38.445 34.398 36.973 35 35.5 35c-1.809 0-3.613-.898-5.57-2.695z" fill="#632d21"/><path d="M37 26H11a3 3 0 0 0-3 3v1.984c0-.132.023-.257.04-.386 3.437 3.297 5.737 3.195 9.253-.32L18 29.57l.707.707c3.645 3.649 6.04 3.63 10.668-.074l.7-.558.632.632c3.516 3.516 5.813 3.614 9.254.317.016.133.039.258.039.39V29a3 3 0 0 0-3-3z" fill="#ff4081"/><path d="M30.707 30.277l-.633-.632-.699.558c-4.629 3.703-7.02 3.723-10.668.074L18 29.57l-.707.707c-3.516 3.516-5.813 3.618-9.254.32-.016.13-.039.255-.039.387V33.2c3.438 2.645 6.48 2.371 10-.832 3.855 3.496 7.227 3.469 11.93-.062C31.887 34.102 33.69 35 35.5 35c1.473 0 2.945-.602 4.5-1.797v-2.219c0-.132-.023-.261-.04-.39-3.44 3.297-5.737 3.199-9.253-.317z" fill="#fce4ec"/><path d="M6 39v1a2 2 0 0 0 2 2h32a2 2 0 0 0 2-2v-1z" fill="#9fa8da"/></svg>