<svg xmlns="http://www.w3.org/2000/svg" viewBox="0 0 24 24"><path d="M6.531 2.125C6.43 2.18 4 3.504 4 7.25c0 1.82.266 2.96.531 4.063.239.988.469 1.921.469 3.374 0 1.961-.746 3.352-1.25 4.063L2 17v5h5l-1.844-1.844A8.922 8.922 0 0 0 7 14.688c0-1.692-.277-2.786-.531-3.844C6.223 9.813 6 8.836 6 7.25c0-2.496 1.422-3.348 1.469-3.375zm6 0C12.43 2.18 10 3.504 10 7.25c0 1.82.266 2.96.531 4.063.239.988.469 1.921.469 3.374 0 1.961-.746 3.352-1.25 4.063L8 17v5h5l-1.844-1.844A8.922 8.922 0 0 0 13 14.688c0-1.692-.277-2.786-.531-3.844C12.223 9.813 12 8.836 12 7.25c0-2.496 1.422-3.348 1.469-3.375zM17 3v2h3v2h-2v2h2v2h-3v2h3v2h-2v2h2v2h-3v2h5V3z"/></svg>