<svg xmlns="http://www.w3.org/2000/svg" viewBox="0 0 64 64"><path d="M6 11h52v46H6z" fill="#85cbf8"/><path d="M10 51h44c2.21 0 4 1.79 4 4v1c0 .55-.45 1-1 1H7c-.55 0-1-.45-1-1v-1c0-2.21 1.79-4 4-4z" fill="#ed7899"/><path d="M9 11h46a3 3 0 0 1 3 3v5a3 3 0 0 1-3 3H9a3 3 0 0 1-3-3v-5a3 3 0 0 1 3-3z" fill="#ace3ff"/><path d="M16 5a2 2 0 0 1 2 2v8a1.999 1.999 0 1 1-4 0V7a2 2 0 0 1 2-2zm16 0a2 2 0 0 1 2 2v8a1.999 1.999 0 1 1-4 0V7a2 2 0 0 1 2-2zm16 0a2 2 0 0 1 2 2v8a1.999 1.999 0 1 1-4 0V7a2 2 0 0 1 2-2z" fill="#ffefb8"/><path d="M17.5 29l1.238 2.262L21 32.5l-2.262 1.238L17.5 36l-1.238-2.262L14 32.5l2.262-1.238zm29.922-1l.848 1.559 1.57.863-1.57.848-.848 1.57-.863-1.57L45 30.422l1.559-.863zm-5.07 15l.59 1.059 1.058.59-1.059.581-.59 1.07-.581-1.07-1.07-.582 1.07-.59z" fill="#9fddff"/><path d="M12 24c.55 0 1-.45 1-1v-2c0-.55-.45-1-1-1s-1 .45-1 1v2c0 .55.45 1 1 1zm5 0c.55 0 1-.45 1-1v-2c0-.55-.45-1-1-1s-1 .45-1 1v2c0 .55.45 1 1 1zm5 0c.55 0 1-.45 1-1v-2c0-.55-.45-1-1-1s-1 .45-1 1v2c0 .55.45 1 1 1zm5 0c.55 0 1-.45 1-1v-2c0-.55-.45-1-1-1s-1 .45-1 1v2c0 .55.45 1 1 1zm5 0c.55 0 1-.45 1-1v-2c0-.55-.45-1-1-1s-1 .45-1 1v2c0 .55.45 1 1 1zm5 0c.55 0 1-.45 1-1v-2c0-.55-.45-1-1-1s-1 .45-1 1v2c0 .55.45 1 1 1zm5 0c.55 0 1-.45 1-1v-2c0-.55-.45-1-1-1s-1 .45-1 1v2c0 .55.45 1 1 1zm5 0c.55 0 1-.45 1-1v-2c0-.55-.45-1-1-1s-1 .45-1 1v2c0 .55.45 1 1 1zm5 0c.55 0 1-.45 1-1v-2c0-.55-.45-1-1-1s-1 .45-1 1v2c0 .55.45 1 1 1zm2 26H10c-.55 0-1 .45-1 1s.45 1 1 1h44c.55 0 1-.45 1-1s-.45-1-1-1z" fill="#8d6c9f"/><path d="M56 10h-5V7a3 3 0 0 0-6 0v3H35V7a3 3 0 0 0-6 0v3H19V7a3 3 0 0 0-6 0v3H8a3 3 0 0 0-3 3v42a3 3 0 0 0 3 3h48a3 3 0 0 0 3-3V13a3 3 0 0 0-3-3zm-9-3c0-.55.45-1 1-1s1 .45 1 1v8c0 .55-.45 1-1 1s-1-.45-1-1zM31 7c0-.55.45-1 1-1s1 .45 1 1v8c0 .55-.45 1-1 1s-1-.45-1-1zM15 7c0-.55.45-1 1-1s1 .45 1 1v8c0 .55-.45 1-1 1s-1-.45-1-1zm42 13c-.55 0-1 .45-1 1v2c0 .55.45 1 1 1v31c0 .55-.45 1-1 1H8c-.55 0-1-.45-1-1V24c.55 0 1-.45 1-1v-2c0-.55-.45-1-1-1v-7c0-.55.45-1 1-1h5v3a3 3 0 0 0 6 0v-3h10v3a3 3 0 0 0 6 0v-3h10v3a3 3 0 0 0 6 0v-3h5c.55 0 1 .45 1 1z" fill="#8d6c9f"/><path d="M34.04 46a1.999 1.999 0 1 1-4 0 1.999 1.999 0 1 1 4 0zM32 42.07a1.067 1.067 0 0 0 1.059-1l.863-13a1.939 1.939 0 0 0-.512-1.46 1.999 1.999 0 0 0-1.414-.587c-.531 0-1.039.211-1.418.586a1.927 1.927 0 0 0-.508 1.45l.86 13c.035.562.5.996 1.058 1z" fill="#fff"/></svg>