<svg xmlns="http://www.w3.org/2000/svg" viewBox="0 0 64 64"><linearGradient id="a" gradientUnits="userSpaceOnUse" x1="19" y1="26" x2="19" y2="33.583" spreadMethod="reflect"><stop offset="0" stop-color="#6dc7ff"/><stop offset="1" stop-color="#e6abff"/></linearGradient><path d="M22 32a1 1 0 0 1-1 1h-4a1 1 0 0 1-1-1v-4a1 1 0 0 1 1-1h4a1 1 0 0 1 1 1v4z" fill="url(#a)"/><linearGradient id="b" gradientUnits="userSpaceOnUse" x1="27" y1="26" x2="27" y2="33.583" spreadMethod="reflect"><stop offset="0" stop-color="#6dc7ff"/><stop offset="1" stop-color="#e6abff"/></linearGradient><path d="M30 32a1 1 0 0 1-1 1h-4a1 1 0 0 1-1-1v-4a1 1 0 0 1 1-1h4a1 1 0 0 1 1 1v4z" fill="url(#b)"/><linearGradient id="c" gradientUnits="userSpaceOnUse" x1="35" y1="26" x2="35" y2="33.583" spreadMethod="reflect"><stop offset="0" stop-color="#6dc7ff"/><stop offset="1" stop-color="#e6abff"/></linearGradient><path d="M38 32a1 1 0 0 1-1 1h-4a1 1 0 0 1-1-1v-4a1 1 0 0 1 1-1h4a1 1 0 0 1 1 1v4z" fill="url(#c)"/><linearGradient id="d" gradientUnits="userSpaceOnUse" x1="19" y1="34.5" x2="19" y2="41.75" spreadMethod="reflect"><stop offset="0" stop-color="#6dc7ff"/><stop offset="1" stop-color="#e6abff"/></linearGradient><path d="M22 40a1 1 0 0 1-1 1h-4a1 1 0 0 1-1-1v-4a1 1 0 0 1 1-1h4a1 1 0 0 1 1 1v4z" fill="url(#d)"/><linearGradient id="e" gradientUnits="userSpaceOnUse" x1="27" y1="34.5" x2="27" y2="41.75" spreadMethod="reflect"><stop offset="0" stop-color="#6dc7ff"/><stop offset="1" stop-color="#e6abff"/></linearGradient><path d="M30 40a1 1 0 0 1-1 1h-4a1 1 0 0 1-1-1v-4a1 1 0 0 1 1-1h4a1 1 0 0 1 1 1v4z" fill="url(#e)"/><linearGradient id="f" gradientUnits="userSpaceOnUse" x1="35" y1="34.5" x2="35" y2="41.75" spreadMethod="reflect"><stop offset="0" stop-color="#6dc7ff"/><stop offset="1" stop-color="#e6abff"/></linearGradient><path d="M38 40a1 1 0 0 1-1 1h-4a1 1 0 0 1-1-1v-4a1 1 0 0 1 1-1h4a1 1 0 0 1 1 1v4z" fill="url(#f)"/><linearGradient id="g" gradientUnits="userSpaceOnUse" x1="32" y1="4.75" x2="32" y2="58.021" spreadMethod="reflect"><stop offset="0" stop-color="#1a6dff"/><stop offset="1" stop-color="#c822ff"/></linearGradient><path d="M53 36h-5V15c0-2.757-2.243-5-5-5h-3V9c0-1.654-1.346-3-3-3h-2c-1.654 0-3 1.346-3 3v1H22V9c0-1.654-1.346-3-3-3h-2c-1.654 0-3 1.346-3 3v1h-3c-2.757 0-5 2.243-5 5v32c0 2.757 2.243 5 5 5h25v1c0 2.757 2.243 5 5 5h12c2.757 0 5-2.243 5-5V41c0-2.757-2.243-5-5-5zm-9-14h2v14h-2V22zM34 9c0-.552.449-1 1-1h2c.551 0 1 .448 1 1v4c0 .552-.449 1-1 1h-2c-.551 0-1-.448-1-1V9zM16 9c0-.552.449-1 1-1h2c.551 0 1 .448 1 1v4c0 .552-.449 1-1 1h-2c-.551 0-1-.448-1-1V9zm-5 3h3v1c0 1.654 1.346 3 3 3h2c1.654 0 3-1.346 3-3v-1h10v1c0 1.654 1.346 3 3 3h2c1.654 0 3-1.346 3-3v-1h3c1.654 0 3 1.346 3 3v5H8v-5c0-1.654 1.346-3 3-3zm0 38c-1.654 0-3-1.346-3-3V22h2v24c0 1.103.897 2 2 2h24v2H11zm25-9v5H12V22h30v14h-1c-2.757 0-5 2.243-5 5zm20 12c0 1.654-1.346 3-3 3H41c-1.654 0-3-1.346-3-3V41c0-1.654 1.346-3 3-3h12c1.654 0 3 1.346 3 3v12z" fill="url(#g)"/><linearGradient id="h" gradientUnits="userSpaceOnUse" x1="49.5" y1="4.75" x2="49.5" y2="58.021" spreadMethod="reflect"><stop offset="0" stop-color="#1a6dff"/><stop offset="1" stop-color="#c822ff"/></linearGradient><polygon points="48,41 46,41 46,48 53,48 53,46 48,46" fill="url(#h)"/></svg>