<svg xmlns="http://www.w3.org/2000/svg" viewBox="0 0 26 26"><path d="M7.5 0C6.102 0 4.79.398 3.687 1c.399 0 .708.207.907.406.199.2.304.48.406.782a5.442 5.442 0 0 1 2.5-.594c3.2 0 5.906 2.605 5.906 5.906 0 3.2-2.605 5.906-5.906 5.906-3.2 0-5.906-2.605-5.906-5.906.035-.008.058.012.093 0 0-1.8.813-2.5.813-2.5l.813.688c.101.101.18.125.28.125.102 0 .22-.118.22-.22.3-1.398.187-3.179.187-3.28 0-.102-.094-.22-.094-.22C3.805 1.994 3.79 2 3.687 2c-.101 0-1.773-.113-3.374.188-.102 0-.22.117-.22.218 0 .102-.007.281.095.281l.906.813s-.27.414-.532 1.156C.543 4.7.52 4.738.5 4.781c-.04.114-.059.219-.094.344A7.25 7.25 0 0 0 0 7.5C0 11.602 3.398 15 7.5 15S15 11.602 15 7.5 11.602 0 7.5 0zM20 2c-.602 0-1 .398-1 1v3c0 .602.398 1 1 1s1-.398 1-1V3c0-.602-.398-1-1-1zm-9.688 2a.345.345 0 0 0-.218.094l-2.5 2.343c-.367-.066-.746-.003-1 .25-.399.399-.399 1.125 0 1.625.054.055.12.086.187.126L7 10.905c0 .2.102.406.5.406.3 0 .5-.304.5-.406l.156-2.562c.012-.008.02-.024.031-.031.254-.317.348-.711.282-1.063l2.219-2.563c.101-.101.199-.394 0-.593A.515.515 0 0 0 10.312 4zm4.876 0c.5 1.102.812 2.3.812 3.5 0 .898-.105 1.7-.406 2.5H24v13c0 .602-.398 1-1 1H5c-.602 0-1-.398-1-1v-7.813c-.7-.3-1.398-.78-2-1.28v9c0 1.698 1.3 3 3 3h18c1.7 0 3-1.302 3-3V7c0-1.7-1.3-3-3-3h-1v2c0 1.102-.898 2-2 2-1.102 0-2-.898-2-2V4zM15 12v2h2v-2zm4 0v2h2v-2zM7 16v2h2v-2zm4 0v2h2v-2zm4 0v2h2v-2zm4 0v2h2v-2zM7 20v2h2v-2zm4 0v2h2v-2zm4 0v2h2v-2zm4 0v2h2v-2z"/></svg>