<svg xmlns="http://www.w3.org/2000/svg" viewBox="0 0 24 24"><path d="M11 9.398C9.398 9.801 9.398 6.102 6.7 4.7c.1 1.2-.099 2.3-.599 2.601C5.102 7.898 3.5 7 2.5 6.398c.8 1.204 1.898 3.5 1.2 4.403-.7 1-1.2 1.097-2.2 1.3 1.5 2.5 5.3 2.899 5.3 3.5.2 2-2.8 2-3.1 3.399 1.698-.602 2.902.398 3.1.8C3 22.2 0 22.103 0 22.103.3 23.199 1.3 24 1.3 24c1.9-.102 6.802-2.602 10-7.8.098-.2-2.1-3.802-4.3-5.4 3.102 1.098 5.102 4.2 5.3 4 .9-1.402 3.302-6.5 4-8.5-.198 2-1.1 5.5-2.698 8.5.199 0 4.296.302 6 1.802-2.903-.801-6.602-.5-6.801-.5-.602 1-3.2 4-4 4.898 2 .898 2.597 2.3 2.699 2.898 2.102-1.597.398-2.699 1.5-3.898 1.102-1.102 4.602-.7 6.8 1.3-.198-.698 0-1.698.5-2.402.5-.699 1.9-.5 3.5-.5-.8-1.097-2.402-2.5-2.198-3.296.199-.801.796-1.5 2-2.102-1.602-1-5.102 0-5.403-1.2-.3-1.198 3.301-2.3 4.801-7-.898.4-3 .302-3.7-.402-.698-.699-.8-2.296-1-4.097-1.1 1.597-1.8 2.898-3.1 3-1.302.097-2.5-.7-3.2-1.801-.3 2.3.602 7.398-1 7.898z"/></svg>