<svg xmlns="http://www.w3.org/2000/svg" viewBox="0 0 50 50"><path d="M19.254 3a.961.961 0 0 0-.39.07c-.087.032-.102.04-.145.059l-4.895.887c-.476.086-.824.5-.824.984v5.594c0 4.176-1.508 7.84-3.71 10.078a.993.993 0 0 0-.29.703V46c0 .55.45 1 1 1h29.984a1 1 0 0 0 1-1V21.36a.997.997 0 0 0-.285-.7C38.5 18.418 37 14.762 37 10.594V5c0-.484-.348-.898-.824-.984l-4.895-.887c-.043-.02-.058-.027-.144-.059a1.003 1.003 0 0 0-1.028.18c-.039.035-.148.102-.203.145a9.498 9.498 0 0 1-2.414 1.246c-.043.011-.09.023-.133.039a10.15 10.15 0 0 1-.64.187 7.61 7.61 0 0 1-.742.149c-.032.004-.059.011-.09.015a6.72 6.72 0 0 1-.887.063 6.72 6.72 0 0 1-.887-.063 7.287 7.287 0 0 1-.832-.164 9.719 9.719 0 0 1-3.187-1.472c-.055-.043-.164-.11-.203-.145a.999.999 0 0 0-.637-.25zM18.05 5.281c-.024.27-.051.535-.051.813 0 4.328 3.055 8 7 8s7-3.672 7-8c0-.278-.027-.543-.05-.813l3.05.555v4.758c0 4.457 1.535 8.414 3.984 11.105V45H11V21.71c2.46-2.69 4-6.651 4-11.116V5.836zm1.996.43a9.705 9.705 0 0 0 3.61 1.281c.155.02.312.043.476.055.277.027.566.047.867.047.3 0 .59-.02.867-.047.164-.012.32-.035.477-.055.082-.015.164-.027.246-.039a9.705 9.705 0 0 0 3.363-1.242c.012.129.047.25.047.383 0 3.402-2.316 6-5 6s-5-2.598-5-6c0-.133.035-.254.047-.383zM18 21l-1 1v2h2v-1h3v3l-5 3v4h7v-2h-5v-1l5-3v-5l-1-1zm9 0l-1 1v2h2v-1h3v3h-2v2h2v3h-3v-1h-2v2l1 1h5l1-1v-4l-1-1 1-1v-4l-1-1z"/></svg>