<svg xmlns="http://www.w3.org/2000/svg" viewBox="0 0 48 48"><path d="M44 24c0 11.047-8.953 20-20 20S4 35.047 4 24 12.953 4 24 4s20 8.953 20 20z" fill="#e0e0e0"/><path d="M17.148 42.77C19.781 39.785 26.11 30.602 27 20c0 0-11-1-22.59 8.047 1.402 6.832 6.305 12.375 12.738 14.723z" fill="#ff3d00"/><path d="M43.785 26.77C41.215 24.23 36.085 20 26 20c0 0 7.438 9.3 8.863 20.777a19.97 19.97 0 0 0 8.922-14.007z" fill="#43a047"/><path d="M27 22s4.16-5.914 5.488-16.09a19.867 19.867 0 0 0-18.324.687C16.496 8.005 22.664 13.333 27 22z" fill="#ffc107"/><path d="M30 21a3 3 0 1 1-6.002-.002A3 3 0 0 1 30 21z" fill="#bf1600"/></svg>