<svg xmlns="http://www.w3.org/2000/svg" viewBox="0 0 50 50"><path d="M25.5 2C23.602 2 22 3.602 22 5.5c0 1.594 1.14 2.973 2.625 3.375-1.2.016-2.305.836-2.625 2.125l-1.906 6.188c-.5 1.5.199 3.105 1.5 3.906l3.593 2.218-1.375 3.282c-.101.101-.324.793-.125 1.593.2.399.508.801.907 1 .199.102.52.22.718.22.801 0 1.477-.606 1.875-1.407l1.407-3.5c.601-1.5.207-3.188-1.094-4.188l-1.906-1.406 1-3.218 2.968.906-.25.906c-.101.602-.21 1.105-.312 1.406 1.8 1.602 2.406 4.086 1.406 6.188L29 28.594v.218c-.8 1.602-2.188 2.5-3.688 2.5-.5 0-1-.113-1.5-.312-.898-.398-1.601-1.195-2-2.094-.5-1.398-.105-2.695.094-3.093l.688-1.72-2.094-1.28c-1.3-.801-2.2-2.211-2.5-3.813h-.906C12.695 19 10 21.613 10 25.813c0 2.5.805 3.699 1.406 4.5.301.5.5.699.5 1 0 .8-.898 1.882-2 3.28-.5.602-1 1.208-1.5 1.907-.101.2-.219.395-.219.594V47c0 .602.399 1 1 1h2.907c.601 0 1-.398 1-1v-8.094c1.5-.898 5.414-3.5 6.312-7 1.899.7 5.782 1.895 10.782 2.094-.4 4.3-1.188 9.805-1.188 9.906 0 .2-.008.489.094.688.199.398.906 1.601.906 2.5 0 .601.398 1 1 1h3c.602 0 1-.399 1-1 0-1.2-.605-2.489-.906-3.188.3-1.5 1.406-6.914 1.906-11.312.898-.7 2.906-2.594 2.906-5.594 0-.602.008-1.3-.093-2-.102-2.102-.208-5.207.593-6.406 1.2.3 2.48.199 3.282 0 .898.3 2.617.718 2.718.718h.282c.3 0 .519-.113.718-.312 1.102-1.2 1.102-3.113 0-4.313l-1.812-2c-.399-.699-1.586-2.898-4.188-3.5.2-.898.082-1.976-.718-2.874-.399-.399-.977-.399-1.376 0-.3.199-.312.574-.312.875-3.7.898-5.887 3.406-7.188 5.906l-.03.031-3.188-.938C27.793 10.79 26.898 9.399 25.5 9 27.398 9 29 7.398 29 5.5S27.398 2 25.5 2zM9.094 21C5.695 21 2 24.398 2 30c0 .602.398 1 1 1h3c.602 0 1-.398 1-1 0-.102-.008-1.71 1.094-2.813C7.992 26.79 8 26.313 8 25.813c0-1.8.512-3.414 1.313-4.812zm29.093 12.188c-.101.101-.175.304-.374.406-.5 3.8-1.32 8-1.72 10 .2.398.302.812.5 1.312h.094c.301 0 .52-.207.72-.406l2.5-3.5c.198-.3.195-.605.093-.906-.102-.102-1.21-3.106-1.813-6.907zm-17.5 1.218c-.898 1.7-2.292 3.086-3.593 4.188l3.218 8.718a.924.924 0 0 0 .875.688h2.907c.3 0 .613-.207.812-.406.2-.2.196-.606.094-.907l-2.906-8.593c.3-.602.793-1.602 1.093-3-.898-.2-1.8-.387-2.5-.688z"/></svg>