<svg xmlns="http://www.w3.org/2000/svg" viewBox="0 0 50 50"><path style="line-height:normal;text-indent:0;text-align:start;text-decoration-line:none;text-decoration-style:solid;text-decoration-color:#000;text-transform:none;block-progression:tb;isolation:auto;mix-blend-mode:normal" d="M34.998 2a1 1 0 0 0-.867.506s-1.903 3.12-.807 6.277h-.002c.586 1.689 1.923 2.912 3.069 3.768a13.293 13.293 0 0 0 1.869 1.185c.251.452.47.921.66 1.407-1.271-1.068-2.637-1.667-3.514-2.057a1 1 0 0 0-.388-.086A1 1 0 0 0 34 14c0 1.479.002 3.593 1.393 5.715 1.294 1.973 3.385 2.772 4.57 3.084a16.945 16.945 0 0 1-.428 3.092c-.39-.91-1.021-1.814-1.986-2.647a1 1 0 0 0-.64-.244 1 1 0 0 0-.696.27S34 25.368 34 28.908c0 1.706.901 3.132 1.832 4.139-.08.088-.15.185-.23.271-.587.625-1.39 1.27-2.278 1.916.061-.18.135-.367.186-.54.412-1.419.488-2.63.488-2.63A1 1 0 0 0 33.035 31a1 1 0 0 0-.15.006s-3.494.308-5.678 2.693c-1.212 1.325-1.294 3.08-1.158 4.412.064.628.185 1.18.295 1.602-.497.33-.943.658-1.344.984a17.384 17.384 0 0 0-1.344-.984c.11-.422.231-.974.295-1.602.136-1.332.054-3.087-1.158-4.412-2.184-2.385-5.678-2.693-5.678-2.693a1 1 0 0 0-.1-.006 1 1 0 0 0-1.013 1.064s.076 1.211.488 2.63c.05.172.115.354.176.535-.884-.644-1.683-1.288-2.268-1.91-.08-.087-.15-.184-.23-.272.93-1.007 1.832-2.433 1.832-4.139 0-3.54-2.213-5.638-2.213-5.638a1 1 0 0 0-.73-.268 1 1 0 0 0-.606.242c-.965.833-1.596 1.737-1.986 2.647a16.945 16.945 0 0 1-.428-3.092c1.185-.312 3.276-1.11 4.57-3.084C15.998 17.593 16 15.479 16 14a1 1 0 0 0-1.03-1 1 1 0 0 0-.376.086c-.873.388-2.23.982-3.496 2.041.188-.478.394-.945.642-1.39.33-.172.99-.53 1.87-1.186 1.145-.856 2.482-2.08 3.068-3.768h-.002c1.096-3.158-.807-6.277-.807-6.277a1 1 0 0 0-.916-.504 1 1 0 0 0-.515.172S10 4.994 10 9.364v3.392c-.15.268-.298.537-.428.812a10.29 10.29 0 0 0-.982-2.437c-.719-1.264-1.535-1.918-1.535-1.918A1 1 0 0 0 6.402 9a1 1 0 0 0-.802.457c-1.057 1.637-1.881 4.25-1.522 6.69.403 2.73 2.832 4.039 3.95 4.527C8.01 21.114 8 21.555 8 22c0 .025.004.05.004.074a9.873 9.873 0 0 0-1.68-1.006c-1.612-.766-3.136-1.05-3.136-1.05a1 1 0 0 0-.2-.018 1 1 0 0 0-.978 1.137s.447 3.914 2.164 6.427c1.085 1.59 2.687 2.112 3.898 2.168a6.26 6.26 0 0 0 1.537-.125c.258.584.544 1.15.858 1.698A6.12 6.12 0 0 0 8.629 31c-2.182 0-4.111 1.125-4.111 1.125a1 1 0 0 0-.436 1.27s.48 1.128 1.434 2.251C6.469 36.77 7.995 38 10.066 38a7.614 7.614 0 0 0 4.774-1.637 36.379 36.379 0 0 0 2.396 1.684c-1.785.112-3.204.569-4.183 1.058-1.12.56-1.76 1.188-1.76 1.188a1 1 0 0 0 .152 1.539S14.555 44 18 44c2.385 0 3.774-1.548 4.475-2.654.373.246.726.486 1.017.7-1.188 1.17-1.953 2.371-2.426 3.595a1 1 0 1 0 1.868.718c.402-1.041 1-1.996 2.066-3.005 1.066 1.009 1.664 1.964 2.066 3.005a1 1 0 1 0 1.868-.718c-.473-1.224-1.238-2.425-2.426-3.594a25 25 0 0 1 1.012-.695C28.226 42.459 29.63 44 32 44c3.444 0 6.555-2.168 6.555-2.168a1 1 0 0 0 .152-1.539s-.64-.628-1.76-1.188c-.977-.488-2.39-.945-4.17-1.058.832-.539 1.632-1.1 2.383-1.684A7.618 7.618 0 0 0 39.934 38c2.071 0 3.597-1.23 4.55-2.354a9.902 9.902 0 0 0 1.434-2.251 1 1 0 0 0-.436-1.27S43.552 31 41.372 31a6.12 6.12 0 0 0-1.839.305c.314-.548.6-1.114.858-1.698.39.08.931.154 1.537.125 1.21-.056 2.813-.578 3.898-2.168 1.717-2.513 2.164-6.427 2.164-6.427A1 1 0 0 0 47.008 20a1 1 0 0 0-.196.018s-1.524.284-3.136 1.05a9.873 9.873 0 0 0-1.68 1.006A1 1 0 0 0 42 22c0-.445-.01-.886-.027-1.326 1.117-.488 3.546-1.797 3.949-4.528.36-2.439-.465-5.052-1.522-6.689A1 1 0 0 0 43.557 9a1 1 0 0 0-.612.213s-.816.654-1.535 1.918a10.273 10.273 0 0 0-.982 2.437c-.13-.275-.278-.544-.428-.812V9.363c0-4.37-4.438-7.19-4.438-7.19A1 1 0 0 0 34.998 2zM14.6 4.734c.325.947.61 2.177.187 3.393-.36 1.038-1.391 2.088-2.375 2.822-.22.164-.213.125-.412.256V9.363c0-2.119 1.574-3.716 2.6-4.629zm20.8 0c1.026.913 2.6 2.51 2.6 4.63v1.841c-.2-.131-.193-.092-.412-.256-.984-.734-2.015-1.784-2.375-2.822-.422-1.216-.138-2.446.187-3.393zM6.715 11.941c.07.11.062.047.137.178C7.412 13.106 8 14.671 8 17v1.328c-.87-.53-1.765-1.269-1.943-2.474-.182-1.233.188-2.683.658-3.913zm36.57 0c.47 1.23.84 2.68.658 3.913-.178 1.205-1.072 1.944-1.943 2.474V17c0-2.33.587-3.894 1.148-4.88.075-.132.067-.07.137-.179zm-29.383 3.711c-.09.96-.29 1.936-.966 2.967-.689 1.05-1.757 1.613-2.666 1.957.284-1.517.846-2.713 1.68-3.527.608-.595 1.286-1.033 1.952-1.397zm22.196 0c.666.364 1.344.802 1.953 1.397.833.814 1.395 2.01 1.68 3.527-.91-.344-1.978-.908-2.667-1.957-.675-1.031-.876-2.007-.966-2.967zm-31.75 6.846c.458.142.551.108 1.117.377 1.343.639 2.523 1.588 2.69 2.803a1 1 0 0 0 .02.11l.48 1.886c-.213.028-.212.075-.489.062-.789-.037-1.633-.265-2.34-1.3-.747-1.094-1.187-2.671-1.478-3.938zm41.304 0c-.291 1.267-.731 2.844-1.478 3.938-.707 1.035-1.551 1.263-2.34 1.3-.277.013-.276-.034-.488-.062l.478-1.887a1 1 0 0 0 .022-.11c.166-1.214 1.346-2.163 2.69-2.802.565-.27.658-.235 1.116-.377zm-32.615 3.06c.458.673.963 1.68.963 3.35 0 .753-.494 1.605-1.045 2.344-.319-.46-.563-.636-.82-1.502-.376-1.264-.372-2.682.902-4.191zm23.926 0c1.274 1.51 1.278 2.928.902 4.192-.257.866-.501 1.041-.82 1.502-.55-.739-1.045-1.59-1.045-2.344 0-1.67.505-2.677.963-3.35zM8.629 33c.986 0 2.437.654 3.566 1.373.586.373.66.47 1.004.742-.623.435-1.57.885-3.133.885-1.274 0-2.282-.77-3.025-1.646-.381-.45-.389-.567-.576-.897C7.08 33.228 7.872 33 8.629 33zm32.742 0c.757 0 1.548.228 2.164.457-.187.33-.195.447-.576.897-.743.876-1.75 1.646-3.025 1.646-1.564 0-2.51-.45-3.133-.885.344-.271.418-.37 1.004-.742C38.934 33.654 40.385 33 41.37 33zm-23.11.344c.99.288 2.191.76 3.057 1.707.619.675.752 1.805.645 2.857-.027.266-.061.249-.106.477l-1.496-1.172a1 1 0 0 0-.08-.057c-.883-.56-1.525-1.83-1.87-3.021-.125-.429-.087-.449-.15-.791zm13.477 0c-.062.342-.024.362-.148.79-.346 1.192-.988 2.462-1.871 3.022a1 1 0 0 0-.08.057l-1.496 1.172c-.045-.228-.079-.21-.106-.477-.107-1.052.026-2.182.645-2.857.866-.946 2.068-1.42 3.056-1.707zM18 40c1.322 0 2.146.199 2.697.379C20.271 41.099 19.544 42 18 42s-2.972-.578-4.049-1.107C14.832 40.453 16.17 40 18 40zm14 0c1.831 0 3.168.453 4.049.893C34.972 41.422 33.544 42 32 42c-1.544 0-2.271-.901-2.697-1.621.55-.18 1.375-.379 2.697-.379z"/></svg>