<svg xmlns="http://www.w3.org/2000/svg" viewBox="0 0 50 50"><path style="line-height:normal;text-indent:0;text-align:start;text-decoration-line:none;text-decoration-style:solid;text-decoration-color:#000;text-transform:none;block-progression:tb;isolation:auto;mix-blend-mode:normal" d="M14.816 2.018a1.013 1.013 0 0 0-.38.156C14.256 2.297 10 5.245 10 9.364v3.392c-.157.28-.31.562-.445.851-.792-2.98-2.407-4.323-2.498-4.394a.996.996 0 0 0-1.455.244c-.983 1.523-1.88 4.267-1.522 6.69.276 1.864 1.663 3.435 3.95 4.505C8.01 21.1 8 21.548 8 22c0 .03.004.06.004.09-1.99-1.507-4.649-2.04-4.818-2.072a.998.998 0 0 0-1.176 1.12c.022.166.584 4.111 2.164 6.426C5.328 29.255 7 29.742 8.39 29.742c.454 0 .853-.06 1.216-.14.264.596.556 1.173.877 1.732-.616-.2-1.242-.334-1.853-.334-2.05 0-4.03 1.077-4.113 1.123-.451.249-.64.799-.438 1.272C4.16 33.583 6.106 38 10.065 38c2.362 0 3.944-.943 4.788-1.627a34.159 34.159 0 0 0 2.337 1.654c-3.832.247-5.81 2.178-5.898 2.266a1.002 1.002 0 0 0 .152 1.539C11.578 41.92 14.734 44 18 44c2.398 0 3.79-1.537 4.486-2.645.368.243.719.48 1.006.692-1.188 1.17-1.953 2.37-2.426 3.594a1 1 0 1 0 1.868.718c.402-1.041 1-1.996 2.066-3.005 1.066 1.009 1.664 1.964 2.066 3.005a1 1 0 1 0 1.868-.718c-.473-1.224-1.238-2.425-2.426-3.594.287-.212.637-.449 1.004-.692C28.21 42.463 29.602 44 32 44c3.266 0 6.422-2.08 6.555-2.168a1.002 1.002 0 0 0 .152-1.54c-.088-.087-2.066-2.018-5.898-2.265.815-.529 1.6-1.082 2.337-1.654.844.684 2.425 1.627 4.788 1.627 3.959 0 5.905-4.417 5.986-4.605a1 1 0 0 0-.438-1.272C45.4 32.077 43.418 31 41.37 31c-.61 0-1.235.134-1.851.332.32-.558.612-1.135.875-1.73a5.6 5.6 0 0 0 1.216.14c1.39 0 3.063-.487 4.217-2.178 1.58-2.315 2.142-6.26 2.164-6.427a.995.995 0 0 0-.3-.862 1.01 1.01 0 0 0-.877-.257c-.17.032-2.828.564-4.817 2.07 0-.03.004-.058.004-.088 0-.451-.009-.9-.027-1.346 2.268-1.052 3.672-2.631 3.949-4.508.357-2.423-.54-5.167-1.524-6.689a.991.991 0 0 0-.673-.441.996.996 0 0 0-.782.197c-.09.071-1.706 1.415-2.498 4.394-.134-.289-.288-.57-.445-.851V9.363c0-4.118-4.257-7.066-4.438-7.19a.996.996 0 0 0-1.431.333c-.076.133-1.843 3.294-.809 6.275.959 2.763 4.133 4.536 4.936 4.951.259.465.484.948.678 1.448-1.276-1.082-2.66-1.705-3.53-2.092A.997.997 0 0 0 34 14c0 1.515 0 3.59 1.395 5.715 1.262 1.926 3.372 2.744 4.568 3.072a16.947 16.947 0 0 1-.422 3.074c-.42-.945-1.075-1.825-1.994-2.619a1 1 0 0 0-1.336.028c-.09.085-2.211 2.106-2.211 5.638 0 1.567.885 3.066 1.84 4.13-.082.09-.155.191-.238.28-.584.622-1.382 1.266-2.264 1.909.55-1.598.653-3.053.66-3.163a1.002 1.002 0 0 0-1.113-1.056c-.147.017-3.619.442-5.678 2.691-1.677 1.831-1.22 4.66-.867 6.016-.496.33-.94.657-1.34.982-.4-.326-.846-.652-1.342-.982.353-1.356.812-4.185-.865-6.016-2.059-2.249-5.53-2.674-5.678-2.691a1.011 1.011 0 0 0-.804.267 1.002 1.002 0 0 0-.309.79c.007.11.111 1.565.648 3.152-.877-.64-1.67-1.28-2.252-1.899-.083-.089-.156-.19-.238-.28.955-1.063 1.84-2.562 1.84-4.13 0-3.532-2.122-5.553-2.213-5.638a1 1 0 0 0-1.336-.028c-.919.794-1.574 1.673-1.994 2.617a16.95 16.95 0 0 1-.42-3.072c1.196-.328 3.308-1.146 4.57-3.072C16 17.59 16 15.515 16 14a.999.999 0 0 0-1.406-.914c-.87.387-2.253 1.01-3.53 2.092.194-.5.42-.981.678-1.446.803-.415 3.977-2.188 4.936-4.95 1.034-2.982-.733-6.143-.809-6.276a1 1 0 0 0-1.053-.488z" font-weight="400" font-family="sans-serif" white-space="normal" overflow="visible"/></svg>