<svg xmlns="http://www.w3.org/2000/svg" viewBox="0 0 48 48"><path d="M8.004 41.996c-.188-8.402 11-10.996 11-10.996h10s11.008 2.344 11 10.996v2h-32z" fill="#fdd835"/><path d="M29.004 31h-10s-11.188 2.594-11 10.996v2h1v-2.02c-.16-7.081 9.039-9.695 10.121-9.976h9.766c1.03.246 10.12 2.645 10.113 9.996v2h1v-2c.008-8.652-11-10.996-11-10.996z" fill="#4caf50"/><path d="M17.14 31.738C17.77 33.32 19.923 36 24 36s6.23-2.68 6.86-4.262l.066-.164C29.78 31.168 29.004 31 29.004 31h-10s-.781.184-1.918.602z" fill="#4caf50"/><path d="M19 31v-6h10v6s-1.191 3-5 3-5-3-5-3zm16-12a1.999 1.999 0 1 1-4 0 1.999 1.999 0 1 1 4 0m-18 0a1.999 1.999 0 1 0-4 0 1.999 1.999 0 1 0 4 0" fill="#fb8c00"/><path d="M24 7c-4.973 0-9 4.027-9 9v4.691c0 4.797 3.621 8.98 8.402 9.29C28.645 30.315 33 26.167 33 21v-5c0-4.973-4.027-9-9-9z" fill="#ffa726"/><path d="M27 19c0-.55.45-1 1-1s1 .45 1 1-.45 1-1 1-1-.45-1-1m-8 0c0 .55.45 1 1 1s1-.45 1-1-.45-1-1-1-1 .45-1 1" fill="#37474f"/><path d="M14 14v3.285c.918 0 1 .715 1 .715l1-3.41c0-1.66.66-3.25 1.832-4.422L19 9s2.848 1 5 1 5-1 5-1l1.168 1.168A6.253 6.253 0 0 1 32 14.59L33 18s.063-.742 1-.742V14c0-5.523-4.477-10-10-10S14 8.477 14 14z" fill="#a1887f"/><path d="M25.309 43H24a1.999 1.999 0 1 1 0-4 2 2 0 0 1 2 2v3" fill="none" stroke-width="2" stroke="#4caf50" stroke-miterlimit="10"/><path d="M20.508 25c.566.871 1.652 2 3.492 2s2.926-1.129 3.492-2c0 0-1.332-1-3.492-1s-3.492 1-3.492 1z" fill="#e65100"/><path d="M21.39 25.27c.079.257.29.449.56.488a15.44 15.44 0 0 0 2.05.156c.8 0 1.59-.094 2.055-.16a.683.683 0 0 0 .543-.45c.09-.245.207-.542.293-.675 0 0-1.235-.629-2.891-.629s-2.848.629-2.848.629c.078.148.168.41.239.64z" fill="#fff"/><path d="M24 24.719a7.17 7.17 0 0 1 2.625.511c.086-.226.188-.48.266-.601 0 0-1.235-.629-2.891-.629s-2.848.629-2.848.629c.075.14.16.39.227.613A6.865 6.865 0 0 1 24 24.72z" fill="#ffebee"/></svg>