<svg xmlns="http://www.w3.org/2000/svg" viewBox="0 0 24 24"><path d="M22.602 1.398c-2.5-2.5-11.403-1.898-17.301 4C-.602 11.301-1.2 20.2 1.3 22.7s11.398 1.903 17.3-4c5.899-5.898 6.5-14.898 4-17.3zM2 22l4-5 1 1zm14.398-10.5L15 10.102 13.102 12l1.398 1.398c.3.301.3.801 0 1-.3.301-.8.301-1 0L12 13.102 10.102 15l1.398 1.398c.3.301.3.801 0 1-.3.301-.8.301-1 0L9 16.102l-1 1L7 16l1-1-1.398-1.398c-.301-.301-.301-.801 0-1 .296-.301.796-.301 1 0L9 13.898 10.898 12 9.5 10.602c-.3-.301-.3-.801 0-1 .3-.301.8-.301 1 0L11.898 11l2-2L12.5 7.602c-.3-.301-.3-.801 0-1 .3-.301.8-.301 1 0L15 7.898l1-1L17 8l-1 1 1.398 1.398c.301.301.301.801 0 1-.199.403-.699.403-1 .102zM18 7l-1-1 5-4z"/></svg>