<svg xmlns="http://www.w3.org/2000/svg" viewBox="0 0 24 24"><path d="M6 2C4.355 2 3 3.355 3 5v14c0 1.645 1.355 3 3 3h12c1.645 0 3-1.355 3-3V5c0-1.645-1.355-3-3-3zm0 2h2v3h8V4h2c.555 0 1 .445 1 1v6h-3.156c-.446-1.723-1.98-3-3.844-3-1.863 0-3.398 1.277-3.844 3H5V5c0-.555.445-1 1-1zm4 0h4v1h-4zm2 6c.809 0 1.43.387 1.75 1h-3.5c.32-.613.941-1 1.75-1zm-7 3h3.156c.446 1.723 1.98 3 3.844 3 1.863 0 3.398-1.277 3.844-3H19v6c0 .555-.445 1-1 1h-2v-3H8v3H6c-.555 0-1-.445-1-1zm5.25 0h3.5c-.32.613-.941 1-1.75 1s-1.43-.387-1.75-1zM10 19h4v1h-4z"/></svg>