<svg xmlns="http://www.w3.org/2000/svg" viewBox="0 0 32 32"><path d="M16 4a3.324 3.324 0 0 0-3.313 3.313A3.324 3.324 0 0 0 16 10.624a3.324 3.324 0 0 0 3.313-3.313A3.324 3.324 0 0 0 16 4zm0 2c.738 0 1.313.574 1.313 1.313 0 .738-.575 1.312-1.313 1.312a1.296 1.296 0 0 1-1.313-1.313A1.297 1.297 0 0 1 16 6zM8.25 8.688l-.719 1.874L13 12.688v3.906l-4.688 5.093 1.47 1.344 4.968-5.343.25-.313V13h2v4.375l.25.313 4.969 5.343 1.468-1.343L19 16.593v-3.907l5.469-2.124-.719-1.876L17.781 11H14.22zM16 24c-5.664 0-10.406 2.094-10.406 2.094l.812 1.812S10.828 26 16 26s9.594 1.906 9.594 1.906l.812-1.812S21.664 24 16 24z"/></svg>