<svg xmlns="http://www.w3.org/2000/svg" viewBox="0 0 50 50"><path d="M28 0c-.602 0-1 .398-1 1v8c0 .602.398 1 1 1h3v1h-7V6c0-.55-.45-1-1-1H9.906A.996.996 0 0 0 9 6v5H7.187c-1.101 0-2.898.406-3.5 3.406L0 38.5h50l-3.688-24.188c-.5-2.898-2.398-3.312-3.5-3.312H39v-1h3c.602 0 1-.398 1-1V1c0-.602-.398-1-1-1zM11 7h11v16H11zm2 3v2h7v-2zm0 4v2h7v-2zm16.094 1h11.218c1.102 0 2.188.898 2.188 2l.5 3.594c.102.601-.012 1.195-.313 1.593-.398.5-.894.813-1.593.813H29.187A2.199 2.199 0 0 1 27 20.812v-3.718c0-1.2.895-2.094 2.094-2.094zM13 18v2h7v-2zm15 7.094h2.094c.5 0 .906.406.906.906v2.094c0 .5-.406.906-.906.906H28a.907.907 0 0 1-.906-.906V26c0-.5.406-.906.906-.906zm6 0h2.094c.5 0 .906.406.906.906v2.094c0 .5-.406.906-.906.906H34a.907.907 0 0 1-.906-.906V26c0-.5.406-.906.906-.906zm6 0h2.094c.5 0 .906.406.906.906v2.094c0 .5-.406.906-.906.906H40a.907.907 0 0 1-.906-.906V26c0-.5.406-.906.906-.906zm-12 6h2.094c.5 0 .906.406.906.906v2.094c0 .5-.406.906-.906.906H28a.907.907 0 0 1-.906-.906V32c0-.5.406-.906.906-.906zm6 0h2.094c.5 0 .906.406.906.906v2.094c0 .5-.406.906-.906.906H34a.907.907 0 0 1-.906-.906V32c0-.5.406-.906.906-.906zm6 0h2.094c.5 0 .906.406.906.906v2.094c0 .5-.406.906-.906.906H40a.907.907 0 0 1-.906-.906V32c0-.5.406-.906.906-.906zM0 39.5v7c0 2 1.5 3.5 3.5 3.5h43c2 0 3.5-1.5 3.5-3.5v-7zM25 42c1.102 0 2 .898 2 2 0 1.102-.898 2-2 2-1.102 0-2-.898-2-2 0-1.102.898-2 2-2z"/></svg>