<svg xmlns="http://www.w3.org/2000/svg" viewBox="0 0 32 32"><path d="M16 5C9.937 5 5 9.938 5 16c0 6.063 4.938 11 11 11 6.063 0 11-4.938 11-11 0-6.063-4.938-11-11-11zm0 2c4.98 0 9 4.02 9 9s-4.02 9-9 9-9-4.02-9-9 4.02-9 9-9zm-1 3v1.188c-1.156.417-2 1.519-2 2.812 0 1.645 1.355 3 3 3 .566 0 1 .434 1 1 0 .566-.434 1-1 1-.566 0-1-.434-1-1h-2c0 1.293.844 2.395 2 2.813V22h2v-1.188c1.156-.417 2-1.519 2-2.812 0-1.645-1.355-3-3-3-.566 0-1-.434-1-1 0-.566.434-1 1-1 .566 0 1 .434 1 1h2c0-1.293-.844-2.395-2-2.813V10z"/></svg>