<svg xmlns="http://www.w3.org/2000/svg" viewBox="0 0 40 40"><path d="M20 35.5c-8.547 0-15.5-6.953-15.5-15.5S11.453 4.5 20 4.5 35.5 11.453 35.5 20 28.547 35.5 20 35.5z" fill="#b6dcfe"/><path d="M20 5c8.27 0 15 6.73 15 15s-6.73 15-15 15S5 28.27 5 20 11.73 5 20 5m0-1C11.164 4 4 11.164 4 20s7.164 16 16 16 16-7.164 16-16S28.836 4 20 4z" fill="#4788c7"/><path d="M32 20c0 6.629-5.371 12-12 12S8 26.629 8 20 13.371 8 20 8s12 5.371 12 12z" fill="#dff0fe"/><path d="M24.914 22.723c0-4.559-7.168-4.211-7.168-6.774 0-.828.742-1.539 2.266-1.539 1.726 0 2.968.488 3.933 1.074v-2.789c-.703-.39-1.758-.62-3.164-.695v-2H19.13v2.043c-1.234.133-2.23.57-2.984 1.316A3.766 3.766 0 0 0 15 16.121c0 4.274 7.168 4.406 7.168 6.746 0 .832-1.043 1.477-2.207 1.477-2.895 0-4.563-1.008-4.961-1.332v2.86c1.191.616 2.746.933 4.129.944V29h1.652v-2.258c1.309-.16 2.324-.578 3.04-1.258.726-.699 1.093-1.62 1.093-2.761z" fill="#4788c7"/></svg>