<svg xmlns="http://www.w3.org/2000/svg" viewBox="0 0 26 26"><path d="M13 1c0 2.5-3 1.8-3 4-1.898 0-3 1.602-3 3 1.602 4 7.188 5 7.188 5S7.397 13.094 6 9.094c-1.398 0-4 1.394-4 4.094 0 1.324.46 2.542 1.344 3.5l1.281 5.937v.031l.031.063C5.074 23.977 6.176 25 7.594 25h10.812a3.042 3.042 0 0 0 2.969-2.375l1.563-7.313c.644-.656 1.156-1.57 1.156-2.718 0-2.301-2.387-4.887-5.688-5.688C17.805 3.606 15 1.5 13 1zm6.719 14.375c.562-.027.992.234.968 1.031l-1.25 5.782a1.033 1.033 0 0 1-1.03.812H7.593c-.383 0-.852-.363-1.032-.906h-.03l-.813-3.844c.574.23 1.203.406 1.906.531l.594 2.813a.497.497 0 0 0 .312.449.494.494 0 0 0 .535-.105.497.497 0 0 0 .121-.532l-.53-2.5c.456.043.933.094 1.437.094h.062l.344 2.563a.502.502 0 0 0 .563.437.502.502 0 0 0 .437-.563l-.344-2.468a11.98 11.98 0 0 0 1.469-.188l.063 2.719a.5.5 0 1 0 1 0l-.063-2.969a9.348 9.348 0 0 0 1.531-.593L15 21.468a.5.5 0 0 0 .469.532.5.5 0 0 0 .531-.469l.188-4.156c1.011-.664 1.699-1.379 2.406-1.688a2.877 2.877 0 0 1 1.125-.312zm-1.344 1.094a.88.88 0 0 0-.094.031.5.5 0 0 0-.375.438l-.687 4.5a.494.494 0 0 0 .14.542.5.5 0 0 0 .828-.418l.72-4.5a.507.507 0 0 0-.118-.43.503.503 0 0 0-.414-.163z"/></svg>