<svg xmlns="http://www.w3.org/2000/svg" viewBox="0 0 16 16"><path d="M3 1.004a2 2 0 0 0-1.414.582 2.006 2.006 0 0 0 0 2.828c.777.777 2.05.777 2.828 0 .074-.074.137-.156.195-.242L6.617 5.5 4.641 6.863a1.9 1.9 0 0 0-.227-.277A2 2 0 0 0 3 6.004a2 2 0 0 0-1.414.582 2.006 2.006 0 0 0 0 2.828c.777.777 2.05.777 2.828 0 .445-.445.625-1.05.563-1.633l2.515-1.703L10.402 8H12L4.977 3.219a1.993 1.993 0 0 0-.563-1.633A2 2 0 0 0 3 1.004zm0 .992c.254 0 .508.098.707.297a.993.993 0 0 1 0 1.414.993.993 0 0 1-1.414 0 .993.993 0 0 1 0-1.414c.2-.2.453-.297.707-.297zM10.402 3L8.398 4.3l.903.598L12.098 3zM12 5v1h1V5zm2 0v1h1V5zM3 6.996c.254 0 .508.098.707.297a.993.993 0 0 1 0 1.414.993.993 0 0 1-1.414 0 .993.993 0 0 1 0-1.414c.2-.2.453-.297.707-.297zM14 7v1h1V7zm0 2v1h1V9zM2 11v1h1v-1zm12 0v1h1v-1zM2 13v1h1v-1zm2 0v1h1v-1zm2 0v1h1v-1zm2 0v1h1v-1zm2 0v1h1v-1zm2 0v1h1v-1zm2 0v1h1v-1z"/></svg>