<svg xmlns="http://www.w3.org/2000/svg" viewBox="0 0 40 40"><path d="M21.5 32.5V11c0-1.379 1.121-2.5 2.5-2.5h10a2.17 2.17 0 0 1 1.988 1.3l3.11 7.173a4.8 4.8 0 0 1 .402 1.925V30c0 1.379-1.121 2.5-2.5 2.5z" fill="#98ccfd"/><path d="M34 9c.664 0 1.266.395 1.527 1l3.114 7.172c.238.547.359 1.129.359 1.726V30c0 1.102-.898 2-2 2H22V11c0-1.102.898-2 2-2h10m0-1H24a3 3 0 0 0-3 3v22h16a3 3 0 0 0 3-3V18.898c0-.73-.152-1.453-.441-2.125l-3.114-7.171A2.664 2.664 0 0 0 34 8z" fill="#4788c7"/><path d="M35.5 32.5c0 2.21-1.79 4-4 4s-4-1.79-4-4 1.79-4 4-4 4 1.79 4 4z" fill="#b6dcfe"/><path d="M31.5 29c1.93 0 3.5 1.57 3.5 3.5S33.43 36 31.5 36 28 34.43 28 32.5s1.57-3.5 3.5-3.5m0-1a4.501 4.501 0 0 0 0 9 4.501 4.501 0 0 0 0-9z" fill="#4788c7"/><path d="M33 32.5a1.5 1.5 0 1 1-3 0 1.5 1.5 0 0 1 3 0z" fill="#4788c7"/><path d="M.5 3.5h21v29H.5z" fill="#dff0fe"/><path d="M21 4v28H1V4h20m1-1H0v30h22z" fill="#4788c7"/><path d="M13.5 32.5c0 2.21-1.79 4-4 4s-4-1.79-4-4 1.79-4 4-4 4 1.79 4 4z" fill="#b6dcfe"/><path d="M9.5 29c1.93 0 3.5 1.57 3.5 3.5S11.43 36 9.5 36 6 34.43 6 32.5 7.57 29 9.5 29m0-1a4.501 4.501 0 0 0 0 9 4.501 4.501 0 0 0 0-9z" fill="#4788c7"/><path d="M11 32.5a1.5 1.5 0 1 1-3 0 1.5 1.5 0 0 1 3 0z" fill="#4788c7"/><path d="M36 24h3v3h-3zm-17.5-9c0 4.14-3.36 7.5-7.5 7.5-4.14 0-7.5-3.36-7.5-7.5 0-4.14 3.36-7.5 7.5-7.5 4.14 0 7.5 3.36 7.5 7.5z" fill="#fff"/><path d="M11 8c3.86 0 7 3.14 7 7s-3.14 7-7 7-7-3.14-7-7 3.14-7 7-7m0-1a8 8 0 1 0 0 16 8 8 0 0 0 0-16z" fill="#4788c7"/><path d="M13.46 11.309L11 15l2.46 2.46" fill="none" stroke-linecap="round" stroke-linejoin="round" stroke="#4788c7" stroke-miterlimit="10"/><path d="M12 15c0 .55-.45 1-1 1s-1-.45-1-1 .45-1 1-1 1 .45 1 1z" fill="#4788c7"/><path d="M38.64 17.172L35.96 11H29c-.55 0-1 .45-1 1v9c0 .55.45 1 1 1h10v-3.102c0-.597-.121-1.18-.36-1.726z" fill="#fff"/></svg>