<svg xmlns="http://www.w3.org/2000/svg" viewBox="0 0 64 64"><linearGradient id="a" gradientUnits="userSpaceOnUse" x1="32" y1="4" x2="32" y2="59.9" spreadMethod="reflect"><stop offset="0" stop-color="#1a6dff"/><stop offset="1" stop-color="#c822ff"/></linearGradient><path d="M32 58a5.933 5.933 0 0 1-4.691-2.293c-1.662.899-3.562 1.017-5.259.313a5.94 5.94 0 0 1-3.457-3.913c-1.879.2-3.679-.424-4.978-1.723s-1.918-3.099-1.697-4.938c-1.81-.54-3.235-1.801-3.938-3.497a5.937 5.937 0 0 1 .321-5.212C6.835 35.547 6 33.837 6 32s.835-3.547 2.291-4.691c-.897-1.662-1.016-3.562-.312-5.259a5.94 5.94 0 0 1 3.911-3.457c-.193-1.879.426-3.679 1.725-4.978s3.097-1.921 4.938-1.697c.54-1.81 1.801-3.235 3.497-3.938a5.95 5.95 0 0 1 5.212.321C28.452 6.836 30.162 6 32 6s3.548.836 4.691 2.293c1.661-.899 3.561-1.017 5.259-.313a5.94 5.94 0 0 1 3.457 3.913c1.878-.203 3.678.424 4.978 1.723a5.937 5.937 0 0 1 1.697 4.938c1.81.541 3.235 1.801 3.938 3.497a5.94 5.94 0 0 1-.321 5.212C57.164 28.452 58 30.162 58 32s-.836 3.548-2.293 4.691c.899 1.661 1.017 3.561.313 5.259a5.943 5.943 0 0 1-3.912 3.457c.194 1.879-.425 3.679-1.724 4.978a5.924 5.924 0 0 1-4.938 1.697c-.539 1.81-1.8 3.235-3.496 3.938s-3.597.585-5.212-.321C35.547 57.165 33.837 58 32 58zm-4.717-4.309a2.03 2.03 0 0 1 1.598.78 3.945 3.945 0 0 0 6.238.002 2.02 2.02 0 0 1 2.6-.517 3.947 3.947 0 0 0 5.763-2.387 2.028 2.028 0 0 1 2.204-1.473 3.947 3.947 0 0 0 4.41-4.41 2.024 2.024 0 0 1 1.474-2.204 3.954 3.954 0 0 0 2.604-2.297 3.944 3.944 0 0 0-.218-3.466 2.028 2.028 0 0 1 .517-2.6C55.443 34.356 56 33.22 56 32s-.557-2.356-1.527-3.119a2.026 2.026 0 0 1-.517-2.6 3.95 3.95 0 0 0 .217-3.466 3.953 3.953 0 0 0-2.605-2.297 2.024 2.024 0 0 1-1.472-2.205 3.947 3.947 0 0 0-4.411-4.409 2.033 2.033 0 0 1-2.203-1.474 3.948 3.948 0 0 0-5.763-2.386 2.03 2.03 0 0 1-2.601-.518C34.356 8.557 33.219 8 32 8s-2.356.557-3.119 1.527a2.023 2.023 0 0 1-2.6.517 3.954 3.954 0 0 0-3.466-.217 3.951 3.951 0 0 0-2.297 2.604 2.035 2.035 0 0 1-2.205 1.473 3.914 3.914 0 0 0-3.284 1.125 3.95 3.95 0 0 0-1.125 3.285 2.027 2.027 0 0 1-1.475 2.204 3.952 3.952 0 0 0-2.603 2.297 3.944 3.944 0 0 0 .218 3.466 2.027 2.027 0 0 1-.519 2.6 3.952 3.952 0 0 0 .002 6.238 2.026 2.026 0 0 1 .517 2.6 3.95 3.95 0 0 0 2.387 5.763 2.026 2.026 0 0 1 1.473 2.203c-.147 1.227.263 2.424 1.125 3.286s2.058 1.267 3.285 1.125a2.04 2.04 0 0 1 2.204 1.472 3.948 3.948 0 0 0 5.763 2.387 2.044 2.044 0 0 1 1.002-.264z" fill="url(#a)"/><linearGradient id="b" gradientUnits="userSpaceOnUse" x1="24" y1="4" x2="24" y2="59.9" spreadMethod="reflect"><stop offset="0" stop-color="#1a6dff"/><stop offset="1" stop-color="#c822ff"/></linearGradient><path d="M24 30c-2.757 0-5-2.243-5-5s2.243-5 5-5 5 2.243 5 5-2.243 5-5 5zm0-8c-1.654 0-3 1.346-3 3s1.346 3 3 3 3-1.346 3-3-1.346-3-3-3z" fill="url(#b)"/><linearGradient id="c" gradientUnits="userSpaceOnUse" x1="32" y1="4" x2="32" y2="59.9" spreadMethod="reflect"><stop offset="0" stop-color="#1a6dff"/><stop offset="1" stop-color="#c822ff"/></linearGradient><polygon points="22.289,46.114 20.711,44.886 41.711,17.886 43.289,19.114" fill="url(#c)"/><linearGradient id="d" gradientUnits="userSpaceOnUse" x1="40" y1="4" x2="40" y2="59.9" spreadMethod="reflect"><stop offset="0" stop-color="#1a6dff"/><stop offset="1" stop-color="#c822ff"/></linearGradient><path d="M40 44c-2.757 0-5-2.243-5-5s2.243-5 5-5 5 2.243 5 5-2.243 5-5 5zm0-8c-1.654 0-3 1.346-3 3s1.346 3 3 3 3-1.346 3-3-1.346-3-3-3z" fill="url(#d)"/><linearGradient id="e" gradientUnits="userSpaceOnUse" x1="40" y1="35.417" x2="40" y2="42.684" spreadMethod="reflect"><stop offset="0" stop-color="#6dc7ff"/><stop offset="1" stop-color="#e6abff"/></linearGradient><circle cx="40" cy="39" r="3" fill="url(#e)"/><linearGradient id="f" gradientUnits="userSpaceOnUse" x1="24" y1="21.5" x2="24" y2="28.5" spreadMethod="reflect"><stop offset="0" stop-color="#6dc7ff"/><stop offset="1" stop-color="#e6abff"/></linearGradient><circle cx="24" cy="25" r="3" fill="url(#f)"/></svg>