<svg xmlns="http://www.w3.org/2000/svg" viewBox="0 0 16 16"><path d="M4.5 1A2.507 2.507 0 0 0 2 3.5C2 4.875 3.125 6 4.5 6a2.49 2.49 0 0 0 1.504-.512c.289.219.629.387.996.461V7H2.5C1.676 7 1 7.676 1 8.5v4c0 .824.676 1.5 1.5 1.5h10c.824 0 1.5-.676 1.5-1.5v-4c0-.824-.676-1.5-1.5-1.5H8V5.95c.371-.075.707-.243.996-.462A2.49 2.49 0 0 0 10.5 6C11.875 6 13 4.875 13 3.5S11.875 1 10.5 1c-.563 0-1.082.195-1.5.512A2.492 2.492 0 0 0 7.5 1c-.563 0-1.078.195-1.5.512A2.483 2.483 0 0 0 4.5 1zm0 1c.316 0 .605.098.844.262A2.473 2.473 0 0 0 5 3.5c0 .453.133.871.344 1.238A1.48 1.48 0 0 1 4.5 5 1.49 1.49 0 0 1 3 3.5C3 2.664 3.664 2 4.5 2zm3 0C8.336 2 9 2.664 9 3.5S8.336 5 7.5 5A1.49 1.49 0 0 1 6 3.5C6 2.664 6.664 2 7.5 2zm3 0c.836 0 1.5.664 1.5 1.5S11.336 5 10.5 5a1.48 1.48 0 0 1-.844-.262C9.867 4.371 10 3.953 10 3.5c0-.453-.133-.871-.344-1.238A1.48 1.48 0 0 1 10.5 2zm-8 6h10c.281 0 .5.219.5.5v4c0 .281-.219.5-.5.5h-10a.494.494 0 0 1-.5-.5v-4c0-.281.219-.5.5-.5zm5 1c-2.5 0-4 1.375-4 1.375L5.5 12H7v-1h1v1h1.5l2-1.625S9.957 9 7.5 9z"/></svg>