<svg xmlns="http://www.w3.org/2000/svg" viewBox="0 0 80 80"><path d="M45 7c-9.012 0-17.031 4.27-22.152 10.89a27.903 27.903 0 0 0-5.02 5.024C11.246 28.04 7 36.024 7 45c0 15.453 12.547 28 28 28 8.977 0 16.96-4.246 22.086-10.828a27.903 27.903 0 0 0 5.023-5.02C68.73 52.032 73 44.012 73 35 73 19.547 60.453 7 45 7zm0 2c14.371 0 26 11.629 26 26 0 5.703-1.84 10.969-4.953 15.25A27.868 27.868 0 0 0 68 40c0-15.453-12.547-28-28-28-3.617 0-7.07.7-10.25 1.953A25.833 25.833 0 0 1 45 9zm-5 5c14.371 0 26 11.629 26 26 0 5.703-1.84 10.969-4.953 15.25A27.853 27.853 0 0 0 63 45c0-15.453-12.547-28-28-28-3.617 0-7.074.7-10.25 1.953A25.833 25.833 0 0 1 40 14zm-5 5c14.371 0 26 11.629 26 26S49.371 71 35 71 9 59.371 9 45s11.629-26 26-26zm0 3c-.55 0-1 .45-1 1s.45 1 1 1 1-.45 1-1-.45-1-1-1zm-5.688.75h-.066c-.07.008-.133.016-.2.035a1 1 0 0 0-.706 1.227 1 1 0 1 0 1.93-.52.995.995 0 0 0-.957-.742zm11.375 0a.999.999 0 0 0-.957.742 1 1 0 1 0 1.93.52 1 1 0 0 0-.972-1.262zm-16.71 2.2a.968.968 0 0 0-.477.128 1.003 1.003 0 0 0 .242 1.836c.254.066.528.031.758-.102a.988.988 0 0 0 .465-.609.974.974 0 0 0-.102-.758.986.986 0 0 0-.886-.496zm21.976 0a1 1 0 0 0-.922 1.257.99.99 0 0 0 .469.605.997.997 0 0 0 1.363-.363 1 1 0 0 0-.91-1.5zm-26.496 3.49a1.003 1.003 0 0 0-.723.293 1.012 1.012 0 0 0 0 1.418 1.011 1.011 0 0 0 1.418 0 1.012 1.012 0 0 0 0-1.418 1.03 1.03 0 0 0-.695-.293zm31.113 0c-.27 0-.53.106-.722.293a1.012 1.012 0 0 0 0 1.418c.39.387 1.027.387 1.418 0a1.012 1.012 0 0 0 0-1.418 1.013 1.013 0 0 0-.696-.293zM54.027 33a1 1 0 0 0-.84 1.5.996.996 0 0 0 1.364.363.99.99 0 0 0 .367-1.363 1.003 1.003 0 0 0-.89-.5zm-38.125 0a.999.999 0 0 0-.453 1.863.997.997 0 1 0 1-1.726 1.01 1.01 0 0 0-.547-.137zm13.664 2.3l-1.035 11.22h2.785c.762-1.262 2.118-2.008 3.805-2.008 2.387 0 4.047 1.668 4.047 4.125 0 2.445-1.645 4.062-4.09 4.062-2.144 0-3.734-1.265-3.965-3.168H28.22c.18 3.438 2.937 5.84 6.832 5.844 4.226 0 7.09-2.758 7.09-6.816 0-3.86-2.621-6.575-6.344-6.575-1.86 0-3.246.625-4.14 1.782h-.231l.515-5.75H41V35.3zm-15.828 3.01a.999.999 0 0 0-.25 1.964 1 1 0 0 0 1.227-.707.998.998 0 0 0-.098-.761 1.016 1.016 0 0 0-.61-.465.88.88 0 0 0-.269-.031zm42.52 0c-.024-.004-.047 0-.07 0a.89.89 0 0 0-.2.035 1 1 0 1 0 .52 1.93 1 1 0 0 0-.25-1.965zM13 44c-.55 0-1 .45-1 1s.45 1 1 1 1-.45 1-1-.45-1-1-1zm44 0c-.55 0-1 .45-1 1s.45 1 1 1 1-.45 1-1-.45-1-1-1zm-43.242 5.691c-.024 0-.047.004-.07.004a.89.89 0 0 0-.2.035 1 1 0 1 0 .52 1.93.997.997 0 0 0 .707-1.222 1.006 1.006 0 0 0-.957-.747zm42.48.004a1 1 0 1 0 .977 1.258.997.997 0 0 0-.977-1.258zM15.922 55a1.003 1.003 0 0 0-.844 1.5c.133.227.352.395.61.465.257.07.53.035.761-.102A.997.997 0 0 0 15.922 55zm38.082 0a1 1 0 1 0 .305 1.969 1.008 1.008 0 0 0 .71-1.227.99.99 0 0 0-.468-.605.993.993 0 0 0-.547-.137zm-34.547 4.559a.984.984 0 0 0-.723.289 1 1 0 0 0-.293.707c0 .265.106.52.293.71a1.008 1.008 0 0 0 1.418-.003 1.007 1.007 0 0 0 0-1.414.992.992 0 0 0-.695-.29zm31.113 0a.984.984 0 0 0-.722.289 1.004 1.004 0 0 0 0 1.418c.39.386 1.023.386 1.414 0 .39-.391.39-1.028 0-1.418a.992.992 0 0 0-.692-.29zm-4.597 3.492a.974.974 0 0 0-.473.136.994.994 0 0 0-.367 1.364c.277.476.887.644 1.367.367.227-.133.395-.352.465-.61a.975.975 0 0 0-.102-.757.999.999 0 0 0-.89-.5zm-22.02.004c-.34.015-.648.203-.82.496-.133.23-.168.504-.102.761a.999.999 0 0 0 1.832.238.997.997 0 0 0-.91-1.495zm16.75 2.195h-.074a1.14 1.14 0 0 0-.195.035 1 1 0 0 0-.707 1.227c.144.531.691.847 1.226.707a1 1 0 0 0 .703-1.227.994.994 0 0 0-.953-.742zm-11.406 0a.999.999 0 0 0-.957.742 1 1 0 1 0 1.93.52 1 1 0 0 0-.973-1.262zM35 66c-.55 0-1 .45-1 1s.45 1 1 1 1-.45 1-1-.45-1-1-1z"/></svg>