<svg xmlns="http://www.w3.org/2000/svg" viewBox="0 0 64 64"><linearGradient id="a" gradientUnits="userSpaceOnUse" x1="30.735" y1="26.167" x2="30.735" y2="43.314" spreadMethod="reflect"><stop offset="0" stop-color="#6dc7ff"/><stop offset="1" stop-color="#e6abff"/></linearGradient><path d="M30 43a11.04 11.04 0 0 1-9.53-5.503l1.732-1A9.037 9.037 0 0 0 30 41c4.963 0 9-4.037 9-9a8.996 8.996 0 0 0-1.205-4.503l1.73-1.002A10.988 10.988 0 0 1 41 32c0 6.065-4.935 11-11 11z" fill="url(#a)"/><linearGradient id="b" gradientUnits="userSpaceOnUse" x1="21" y1="11.333" x2="21" y2="34.03" spreadMethod="reflect"><stop offset="0" stop-color="#6dc7ff"/><stop offset="1" stop-color="#e6abff"/></linearGradient><path d="M21 34c-6.065 0-11-4.935-11-11h2c0 4.963 4.037 9 9 9s9-4.037 9-9-4.037-9-9-9v-2c6.065 0 11 4.935 11 11s-4.935 11-11 11z" fill="url(#b)"/><linearGradient id="c" gradientUnits="userSpaceOnUse" x1="39.736" y1="34.5" x2="39.736" y2="52.371" spreadMethod="reflect"><stop offset="0" stop-color="#6dc7ff"/><stop offset="1" stop-color="#e6abff"/></linearGradient><path d="M39 52a11.04 11.04 0 0 1-9.527-5.499l1.73-1.002A9.038 9.038 0 0 0 39 50c4.963 0 9-4.037 9-9a8.996 8.996 0 0 0-1.205-4.503l1.73-1.002A10.988 10.988 0 0 1 50 41c0 6.065-4.935 11-11 11z" fill="url(#c)"/><linearGradient id="d" gradientUnits="userSpaceOnUse" x1="21" y1="6.667" x2="21" y2="57.513" spreadMethod="reflect"><stop offset="0" stop-color="#1a6dff"/><stop offset="1" stop-color="#c822ff"/></linearGradient><polygon points="24,26 22,26 22,18 18,18 18,20 20,20 20,26 18,26 18,28 24,28" fill="url(#d)"/><linearGradient id="e" gradientUnits="userSpaceOnUse" x1="32" y1="6.667" x2="32" y2="57.513" spreadMethod="reflect"><stop offset="0" stop-color="#1a6dff"/><stop offset="1" stop-color="#c822ff"/></linearGradient><path d="M48.082 26.896c-1.506-4.112-4.773-7.472-8.994-8.998C36.993 12.135 31.478 8 25 8h-5v.051C12.195 8.569 6 15.066 6 23c0 6.478 4.135 11.993 9.897 14.087 1.526 4.221 4.885 7.488 8.998 8.994C26.904 51.646 32.1 55.558 38 55.958V56h5c8.271 0 15-6.729 15-15 0-6.306-4.041-11.982-9.918-14.104zM53.949 42h2a12.923 12.923 0 0 1-.952 4h-1.872c.449-1.266.732-2.605.824-4zm-.004-2a15.013 15.013 0 0 0-.809-4h1.847c.529 1.258.866 2.605.975 4h-2.013zm-.014-6h-1.686a14.985 14.985 0 0 0-3.434-4.333c-.017-.109-.04-.216-.059-.324A13.086 13.086 0 0 1 53.931 34zm-13.035 9h-.732a15.093 15.093 0 0 0 3.093-4h1.68a13.072 13.072 0 0 1-4.041 4zm6.062-12h-2.013a14.975 14.975 0 0 0-.81-4h1.848c.529 1.258.866 2.605.975 4zm-.961 6h-1.872c.449-1.266.732-2.605.824-4h2a12.867 12.867 0 0 1-.952 4zm-1.066-12h-1.686a14.989 14.989 0 0 0-3.447-4.345c-.016-.104-.029-.209-.048-.312A13.077 13.077 0 0 1 44.931 25zm-13.035 9h-.732a15.093 15.093 0 0 0 3.093-4h1.68a13.072 13.072 0 0 1-4.041 4zm6.053-12h-2a14.906 14.906 0 0 0-.824-4h1.872c.522 1.247.845 2.593.952 4zm-.952 6h-1.872c.449-1.266.732-2.605.824-4h2a12.867 12.867 0 0 1-.952 4zm-1.06-12h-1.68a15.073 15.073 0 0 0-3.093-4h.732a13.072 13.072 0 0 1 4.041 4zM8 23c0-7.168 5.832-13 13-13s13 5.832 13 13-5.832 13-13 13S8 30.168 8 23zm10.342 14.75c.543.098 1.096.162 1.658.199V38h5c8.042 0 14.606-6.365 14.966-14.32A12.956 12.956 0 0 1 43 32c0 7.168-5.832 13-13 13-4.971 0-9.496-2.895-11.658-7.25zm9.001 9.001A14.73 14.73 0 0 0 30 47h4c8.042 0 14.606-6.365 14.966-14.32A12.954 12.954 0 0 1 52 41c0 7.168-5.832 13-13 13-4.97 0-9.495-2.894-11.657-7.249zM49.896 52h-.732a15.093 15.093 0 0 0 3.093-4h1.68a13.072 13.072 0 0 1-4.041 4z" fill="url(#e)"/></svg>