<svg xmlns="http://www.w3.org/2000/svg" viewBox="0 0 50 50"><path d="M18 7C8.074 7 0 15.074 0 25s8.074 18 18 18 18-8.074 18-18S27.926 7 18 7zm8.844.094C33.434 10.367 38 17.156 38 25c0 7.848-4.566 14.633-11.156 17.906C35.898 41.976 43 34.296 43 25c0-9.297-7.102-16.973-16.156-17.906zm7 0C40.434 10.367 44.969 17.156 44.969 25c0 7.848-4.535 14.633-11.125 17.906 9.054-.933 16.125-8.61 16.125-17.906 0-9.297-7.07-16.973-16.125-17.906zM17.5 16.5H19v17h-2V21.312h-4.406v-1.625c.601 0 1.117.008 1.719-.093.5-.102 1-.301 1.5-.5.398-.2.792-.602 1.093-1 .301-.399.492-.895.594-1.594z"/></svg>