<svg xmlns="http://www.w3.org/2000/svg" viewBox="0 0 16 16"><path d="M7.5 1a1.5 1.5 0 0 0-1.438 1.102A1.753 1.753 0 0 0 5.5 2C4.676 2 4 2.676 4 3.5c0 .18.031.348.09.5H2.5C1.734 4 1 4.516 1 5.293v7.414C1 13.484 1.734 14 2.5 14h10c.766 0 1.5-.512 1.5-1.293V5.293C14 4.516 13.266 4 12.5 4h-1.59c.059-.152.09-.32.09-.5 0-.824-.676-1.5-1.5-1.5-.203 0-.387.043-.563.102A1.5 1.5 0 0 0 7.5 1zm0 1c.281 0 .5.219.5.5 0-.012-.035.172-.117.375l-.016.027a3.7 3.7 0 0 0-.367.512 3.7 3.7 0 0 0-.367-.512l-.016-.027C7.035 2.672 7 2.488 7 2.5c0-.281.219-.5.5-.5zm-2 1c.266 0 .559.203.797.465.082.18.168.363.258.535h-.723s-.258-.008-.488-.094a.654.654 0 0 1-.262-.16C5.032 3.688 5 3.641 5 3.5c0-.281.219-.5.5-.5zm4 0c.281 0 .5.219.5.5 0 .14-.031.188-.082.246a.654.654 0 0 1-.262.16c-.23.086-.488.094-.488.094h-.723c.09-.172.176-.355.258-.535C8.941 3.203 9.234 3 9.5 3zm-7 2H7v2H2V5.293C2 5.199 2.164 5 2.5 5zM8 5h4.5c.34 0 .5.195.5.293V7H8zM2 8h11v4.707c0 .098-.164.293-.5.293H8V9H7v4H2.5c-.34 0-.5-.195-.5-.293z"/></svg>