<svg xmlns="http://www.w3.org/2000/svg" viewBox="0 0 40 40"><path d="M9.145 8.785L20 2l10.855 6.785" fill="none" stroke="#4788c7" stroke-miterlimit="10"/><path d="M1.5 7.5h37v29h-37z" fill="#fff"/><path d="M38 8v28H2V8h36m1-1H1v30h38zM21 2c0 .55-.45 1-1 1s-1-.45-1-1 .45-1 1-1 1 .45 1 1z" fill="#4788c7"/><path d="M5 11h30v22H5z" fill="#b6dcfe"/><path d="M22.5 16.98c0 1.38-2.5 5-2.5 5s-2.5-3.62-2.5-5c0-1.382 1.117-2.5 2.5-2.5s2.5 1.118 2.5 2.5zm-5 10.114c0-1.383 2.5-5 2.5-5s2.5 3.617 2.5 5a2.5 2.5 0 1 1-5 0z" fill="#fff"/><path d="M14.25 22.336C15.445 21.645 20 22 20 22s-2.055 3.973-3.25 4.664a2.497 2.497 0 0 1-3.414-.914 2.497 2.497 0 0 1 .914-3.414zm11.5-.672C24.555 22.355 20 22 20 22s2.055-3.973 3.25-4.664a2.497 2.497 0 0 1 3.414.914 2.497 2.497 0 0 1-.914 3.414z" fill="#fff"/><path d="M23.25 26.758C22.055 26.066 20 22 20 22s4.555-.266 5.75.426a2.498 2.498 0 0 1 .914 3.414 2.503 2.503 0 0 1-3.414.918zm-6.5-9.422C17.945 18.027 20 22 20 22s-4.555.355-5.75-.336a2.497 2.497 0 0 1-.914-3.414 2.497 2.497 0 0 1 3.414-.914z" fill="#fff"/><path d="M23 22a3 3 0 1 1-6.002-.002A3 3 0 0 1 23 22z" fill="#b6dcfe"/></svg>