<svg xmlns="http://www.w3.org/2000/svg" viewBox="0 0 50 50"><path d="M22.5 2c-1.063 0-1.73 1.074-1.469 2.063l-.125.03.219 1.188C12.207 6.761 7.25 12.344 7.25 12.344A1.001 1.001 0 0 0 8 14h34a1.001 1.001 0 0 0 .75-1.656S37.805 6.77 28.906 5.281l.282-1.156h-.032C29.395 3.09 28.656 2 27.5 2zm.438 2h4.187l-.406 1.781c-.063.282-.004.574.164.809.164.23.426.383.71.41 6.415.758 9.805 3.313 11.688 5H10.72c1.883-1.688 5.273-4.242 11.687-5 .278-.031.532-.176.7-.402.164-.227.23-.512.175-.785zM2.813 14c-.551.05-.958.543-.907 1.094.051.55.543.957 1.094.906h2.188c.464 0 .984.445 1.03.906L7.5 27.625v.031a5.075 5.075 0 0 0 1.625 3.032 2.958 2.958 0 0 0-.875 1.25h.031l-3.125 8C4.41 41.877 5.934 44 8 44h34c2.066 0 3.59-2.121 2.844-4.063l-3.125-8h.031a2.95 2.95 0 0 0-.875-1.25 5.075 5.075 0 0 0 1.625-3.03v-.032l1.281-10.719c.047-.46.567-.906 1.032-.906H47c.36.004.695-.184.879-.496a1.01 1.01 0 0 0 0-1.008c-.184-.312-.52-.5-.879-.496h-2.188c-1.535 0-2.847 1.148-3 2.688L40.5 27.343v.031c-.242 1.508-1.508 2.625-3 2.625h-25c-1.492 0-2.758-1.117-3-2.625v-.031L8.187 16.687C8.036 15.149 6.723 14 5.188 14H2.813zM25 16c-2.418 0-4.598.86-6 2.344C18.11 17.5 16.867 17 15.5 17c-1.934 0-3.629 1.004-4.406 2.563a1.007 1.007 0 0 0 1.812.875C13.328 19.593 14.234 19 15.5 19c1.238 0 2.129.566 2.563 1.375.003.008-.004.023 0 .031a.45.45 0 0 0 .03.063c.02.023.04.043.063.062v.032l.032.03.03.032c.009.02.02.043.032.063l.031.03c.02.012.043.024.063.032v.031c.02.012.043.024.062.032l.032.03a.405.405 0 0 0 .062.032h.031c.02.012.043.023.063.031l.031.032a.45.45 0 0 0 .063.03h.093l.032.032h.312c.086-.012.168-.031.25-.063h.031l.032-.03a.958.958 0 0 0 .28-.22.949.949 0 0 0 .156-.188c.024-.038.04-.085.064-.124C20.753 19.035 22.663 18 25 18c2.402 0 4.348 1.105 5.125 2.5.035.055.078.11.125.156a.61.61 0 0 0 .031.063l.032.031h.03c.009.02.02.043.032.063h.031a.45.45 0 0 0 .063.03l.031.032c.02.012.043.023.063.031h.03c.02.012.044.024.063.032l.032.03h.093c.02.012.043.024.063.032h.249a1.01 1.01 0 0 0 .438-.125.985.985 0 0 0 .157-.156.985.985 0 0 0 .156-.157v-.03l.031-.032v-.063a.949.949 0 0 0 .094-.125C32.414 19.535 33.293 19 34.5 19c1.266 0 2.172.594 2.594 1.438a1.007 1.007 0 0 0 1.812-.875C38.13 18.003 36.434 17 34.5 17c-1.367 0-2.61.5-3.5 1.344C29.598 16.859 27.418 16 25 16zM11.094 32h27.812c.383 0 .824.273.969.656l3.094 8c.254.66-.235 1.344-.969 1.344H8c-.734 0-1.223-.684-.969-1.344l3.094-8c.168-.449.438-.656.969-.656zM25 32.5c-2.46 0-4.5 2.04-4.5 4.5s2.04 4.5 4.5 4.5 4.5-2.04 4.5-4.5-2.04-4.5-4.5-4.5zm0 2c1.34 0 2.5 1.16 2.5 2.5s-1.16 2.5-2.5 2.5-2.5-1.16-2.5-2.5 1.16-2.5 2.5-2.5zm.5.875a1.005 1.005 0 0 0-.594.313l-1.218 1.218a1.004 1.004 0 0 0-.348 1.004c.086.371.379.664.75.75.375.086.762-.05 1.004-.347l1.218-1.22a1.002 1.002 0 0 0-.719-1.719l-.093.001z"/></svg>