<svg xmlns="http://www.w3.org/2000/svg" viewBox="0 0 50 50"><path d="M11.813 2A1 1 0 0 0 11 3v21H3a1.002 1.002 0 0 0-.719 1.719l22 22a.999.999 0 0 0 1.438 0l22-22A1.002 1.002 0 0 0 47 24h-8V3c0-.55-.45-1-1-1H11.812zM13 4h24v21c0 .55.45 1 1 1h6.563L25 45.563 5.437 26H12c.55 0 1-.45 1-1zm11 7v2.219c-1.648.195-4.531 1.554-4.531 5 0 6.41 9.343 3.086 9.343 7.937 0 1.633-.718 3.063-3.812 3.063-3.125 0-3.973-2.375-3.969-3.719H18.97c.336 4.324 3.316 5.309 5.031 5.563V33h2v-1.906c1.484-.145 4.969-1.219 4.969-5.157 0-3.308-2.692-4.234-5.282-4.843-2.132-.5-4.03-1.051-4.03-3.094 0-.91.359-2.906 3.343-2.906 2.063 0 3.086 1.289 3.406 2.875h2.032C29.835 15.75 28.89 13.766 26 13.28V11z"/></svg>