<svg xmlns="http://www.w3.org/2000/svg" viewBox="0 0 48 48"><path d="M36 24V4H12v20H4l20 20 20-20z" fill="#e53935"/><path d="M23 21v1.984c0 .852-.14 1.48-.55 2.016H29l-.012 2H19v-2h1.207c.254-.059.484-.195.625-.547.137-.348.168-.781.168-1.355V21h-2v-2h2v-1.86c0-1.28.324-2.288 1.129-3.03.805-.739 1.543-1.11 2.848-1.11 1.308 0 2.156.344 2.902 1.035.75.688 1.121 1.8 1.121 2.965h-2c0-.594-.168-1.242-.508-1.57-.336-.328-.996-.492-1.601-.492-.575 0-1.028.203-1.356.613-.332.41-.535.941-.535 1.597V19h3v2z" fill="#fff"/></svg>