<svg xmlns="http://www.w3.org/2000/svg" viewBox="0 0 50 50"><path d="M11.813 2A1 1 0 0 0 11 3v21H3a1.002 1.002 0 0 0-.719 1.719l22 22a.999.999 0 0 0 1.438 0l22-22A1.002 1.002 0 0 0 47 24h-8V3c0-.55-.45-1-1-1H11.812zM13 4h24v21c0 .55.45 1 1 1h6.563L25 45.563 5.437 26H12c.55 0 1-.45 1-1zm12 9.094c-4.188 0-5.469 3.078-5.469 4.875 0 1.808.805 3.207 1.125 3.75H19.25v1.093h2.063c.144.32.593 1.418.593 2.22 0 2.394-2.32 4.058-2.656 4.28l1.156 1.563c.367-.238 1.215-.813 2.375-.813 1.465 0 3.461.97 4.907.97 1.851 0 3.019-.673 3.5-1.095l-1.032-1.593c-.289.222-1.164.875-2.125.875-.984 0-3.008-.75-4.312-.75-1.051 0-2.086.511-2.5.687l-.063-.031c.352-.29 2.782-1.89 2.782-4.531 0-.68-.34-1.524-.47-1.782h3.282V21.72h-3.813c-.144-.29-1.25-2-1.25-3.657 0-.722.567-3.156 3.438-3.156 3.168 0 3.469 2.969 3.5 4.375h2.031c.032-2.062-.523-6.187-5.656-6.187z"/></svg>