<svg xmlns="http://www.w3.org/2000/svg" viewBox="0 0 64 64"><linearGradient id="a" gradientUnits="userSpaceOnUse" x1="21.75" y1="24.667" x2="21.75" y2="39.742" spreadMethod="reflect"><stop offset="0" stop-color="#6dc7ff"/><stop offset="1" stop-color="#e6abff"/></linearGradient><polygon points="17.207,38.207 15.793,36.793 26.293,26.293 27.707,27.707" fill="url(#a)"/><linearGradient id="b" gradientUnits="userSpaceOnUse" x1="26" y1="24.667" x2="26" y2="39.742" spreadMethod="reflect"><stop offset="0" stop-color="#6dc7ff"/><stop offset="1" stop-color="#e6abff"/></linearGradient><path d="M26 39c-1.654 0-3-1.346-3-3s1.346-3 3-3 3 1.346 3 3-1.346 3-3 3zm0-4a1 1 0 1 0 0 2 1 1 0 0 0 0-2z" fill="url(#b)"/><linearGradient id="c" gradientUnits="userSpaceOnUse" x1="18" y1="24.667" x2="18" y2="39.742" spreadMethod="reflect"><stop offset="0" stop-color="#6dc7ff"/><stop offset="1" stop-color="#e6abff"/></linearGradient><path d="M18 31c-1.654 0-3-1.346-3-3s1.346-3 3-3 3 1.346 3 3-1.346 3-3 3zm0-4a1 1 0 1 0 0 2 1 1 0 0 0 0-2z" fill="url(#c)"/><linearGradient id="d" gradientUnits="userSpaceOnUse" x1="32.09" y1="10.007" x2="31.923" y2="54.507" spreadMethod="reflect"><stop offset="0" stop-color="#1a6dff"/><stop offset="1" stop-color="#c822ff"/></linearGradient><path d="M55 15H9c-1.654 0-3 1.346-3 3v32c0 1.654 1.346 3 3 3h46c1.654 0 3-1.346 3-3V18c0-1.654-1.346-3-3-3zm1 35a1 1 0 0 1-1 1H9a1 1 0 0 1-1-1V18a1 1 0 0 1 1-1h46a1 1 0 0 1 1 1v32z" fill="url(#d)"/><linearGradient id="e" gradientUnits="userSpaceOnUse" x1="22.09" y1="9.969" x2="21.923" y2="54.469" spreadMethod="reflect"><stop offset="0" stop-color="#1a6dff"/><stop offset="1" stop-color="#c822ff"/></linearGradient><path d="M32 19H12c-1.103 0-2 .897-2 2v26c0 1.103.897 2 2 2h20c1.103 0 2-.897 2-2V21c0-1.103-.897-2-2-2zm0 2v22H12V21h20zM12 47v-2h20v2H12z" fill="url(#e)"/><linearGradient id="f" gradientUnits="userSpaceOnUse" x1="32.008" y1="10.006" x2="31.841" y2="54.506" spreadMethod="reflect"><stop offset="0" stop-color="#1a6dff"/><stop offset="1" stop-color="#c822ff"/></linearGradient><rect x="10" y="11" width="44" height="2" fill="url(#f)"/><linearGradient id="g" gradientUnits="userSpaceOnUse" x1="46.037" y1="10.059" x2="45.871" y2="54.559" spreadMethod="reflect"><stop offset="0" stop-color="#1a6dff"/><stop offset="1" stop-color="#c822ff"/></linearGradient><rect x="38" y="19" width="16" height="2" fill="url(#g)"/><linearGradient id="h" gradientUnits="userSpaceOnUse" x1="44.052" y1="10.051" x2="43.886" y2="54.551" spreadMethod="reflect"><stop offset="0" stop-color="#1a6dff"/><stop offset="1" stop-color="#c822ff"/></linearGradient><rect x="38" y="23" width="12" height="2" fill="url(#h)"/><linearGradient id="i" gradientUnits="userSpaceOnUse" x1="44.067" y1="10.051" x2="43.901" y2="54.551" spreadMethod="reflect"><stop offset="0" stop-color="#1a6dff"/><stop offset="1" stop-color="#c822ff"/></linearGradient><rect x="38" y="27" width="12" height="2" fill="url(#i)"/><linearGradient id="j" gradientUnits="userSpaceOnUse" x1="44.082" y1="10.052" x2="43.916" y2="54.551" spreadMethod="reflect"><stop offset="0" stop-color="#1a6dff"/><stop offset="1" stop-color="#c822ff"/></linearGradient><rect x="38" y="31" width="12" height="2" fill="url(#j)"/><linearGradient id="k" gradientUnits="userSpaceOnUse" x1="53.138" y1="10.085" x2="52.972" y2="54.585" spreadMethod="reflect"><stop offset="0" stop-color="#1a6dff"/><stop offset="1" stop-color="#c822ff"/></linearGradient><rect x="52" y="45" width="2" height="4" fill="url(#k)"/><linearGradient id="l" gradientUnits="userSpaceOnUse" x1="49.138" y1="10.07" x2="48.972" y2="54.57" spreadMethod="reflect"><stop offset="0" stop-color="#1a6dff"/><stop offset="1" stop-color="#c822ff"/></linearGradient><rect x="48" y="45" width="2" height="4" fill="url(#l)"/><linearGradient id="m" gradientUnits="userSpaceOnUse" x1="45.138" y1="10.055" x2="44.972" y2="54.556" spreadMethod="reflect"><stop offset="0" stop-color="#1a6dff"/><stop offset="1" stop-color="#c822ff"/></linearGradient><rect x="44" y="45" width="2" height="4" fill="url(#m)"/></svg>