<svg xmlns="http://www.w3.org/2000/svg" viewBox="0 0 24 24"><path d="M0 3v14h24V3H0zm5.125 1.5h13.75l.89.768a1.282 1 44.999 0 0 .426 1.164 1.282 1 44.999 0 0 1.356.373l.953.82v4.75l-.953.822a1 1.282 44.999 0 0-1.354.371 1 1.282 44.999 0 0-.427 1.164l-.891.768H5.125l-.893-.77a1.282 1 44.999 0 0-.425-1.162 1.282 1 44.999 0 0-1.354-.373l-.953-.82v-4.75l.953-.822a1 1.282 44.999 0 0 1.354-.371 1 1.282 44.999 0 0 .427-1.164l.891-.768zM12 6.625A3.625 3.375 0 0 0 8.375 10 3.625 3.375 0 0 0 12 13.375 3.625 3.375 0 0 0 15.625 10 3.625 3.375 0 0 0 12 6.625zm-6.5 2A1.5 1.375 0 0 0 4 10a1.5 1.375 0 0 0 1.5 1.375A1.5 1.375 0 0 0 7 10a1.5 1.375 0 0 0-1.5-1.375zm13 0A1.5 1.375 0 0 0 17 10a1.5 1.375 0 0 0 1.5 1.375A1.5 1.375 0 0 0 20 10a1.5 1.375 0 0 0-1.5-1.375zM0 18v2h.75c9.149 0 20.377 1.865 20.377 1.865l.873.145V18h-1.5v.01h-1.531c-.008.008-.019.01-.026.017-.37.37-.514.858-.406 1.244l-.902.579c-3.62-.494-9.972-1.234-16.135-1.3V18H0z"/></svg>