<svg xmlns="http://www.w3.org/2000/svg" viewBox="0 0 40 40"><path d="M10 22.215c-2.48 0-4.5-2.02-4.5-4.5V6c0-2.48 2.02-4.5 4.5-4.5s4.5 2.02 4.5 4.5v11.715c0 2.48-2.02 4.5-4.5 4.5z" fill="#dff0fe"/><path d="M10 2c2.207 0 4 1.793 4 4v11.715c0 2.207-1.793 4-4 4s-4-1.793-4-4V6c0-2.207 1.793-4 4-4m0-1C7.25 1 5 3.25 5 6v11.715c0 2.75 2.25 5 5 5s5-2.25 5-5V6c0-2.75-2.25-5-5-5z" fill="#4788c7"/><path d="M10 38.5A7.507 7.507 0 0 1 2.5 31a7.474 7.474 0 0 1 2.813-5.852L5.5 25v-9.5h9V25l.188.148A7.474 7.474 0 0 1 17.5 31c0 4.137-3.363 7.5-7.5 7.5z" fill="#98ccfd"/><path d="M14 16v9.238l.375.301A6.972 6.972 0 0 1 17 31c0 3.86-3.14 7-7 7s-7-3.14-7-7c0-2.133.957-4.121 2.625-5.46L6 25.237V16h8m1-1H5v9.762A7.976 7.976 0 0 0 2 31a8 8 0 0 0 16 0 7.976 7.976 0 0 0-3-6.238z" fill="#4788c7"/><path d="M25.5 25.5c-2.758 0-5-2.387-5-5.316 0-2.301 3.309-7.133 5-9.368 1.691 2.235 5 7.067 5 9.368 0 2.93-2.242 5.316-5 5.316z" fill="#b6dcfe"/><path d="M25.5 11.648c1.992 2.7 4.5 6.7 4.5 8.536C30 22.84 27.98 25 25.5 25S21 22.84 21 20.184c0-1.836 2.508-5.836 4.5-8.536m0-1.648S20 16.969 20 20.184C20 23.394 22.46 26 25.5 26s5.5-2.605 5.5-5.816C31 16.969 25.5 10 25.5 10z" fill="#4788c7"/><path d="M34.5 12.5c-1.652 0-3-1.457-3-3.25 0-1.367 1.906-4.07 3-5.457 1.094 1.387 3 4.09 3 5.457 0 1.793-1.348 3.25-3 3.25z" fill="#b6dcfe"/><path d="M34.5 4.61C35.71 6.214 37 8.284 37 9.25c0 1.516-1.121 2.75-2.5 2.75S32 10.766 32 9.25c0-.965 1.29-3.035 2.5-4.64m0-1.61S31 7.18 31 9.25c0 2.07 1.566 3.75 3.5 3.75S38 11.32 38 9.25C38 7.18 34.5 3 34.5 3z" fill="#4788c7"/><path d="M33 36.5c-1.93 0-3.5-1.625-3.5-3.625 0-1.54 2.258-4.598 3.5-6.102 1.242 1.504 3.5 4.563 3.5 6.102 0 2-1.57 3.625-3.5 3.625z" fill="#b6dcfe"/><path d="M33 27.566c1.43 1.797 3 4.2 3 5.309C36 34.598 34.652 36 33 36s-3-1.402-3-3.125c0-1.11 1.57-3.512 3-5.309M33 26s-4 4.598-4 6.875S30.79 37 33 37s4-1.848 4-4.125S33 26 33 26zM9.5 19h5a.499.499 0 1 1 0 1h-5a.498.498 0 0 1-.5-.5c0-.277.223-.5.5-.5zm0 4h5a.499.499 0 1 1 0 1h-5a.498.498 0 0 1-.5-.5c0-.277.223-.5.5-.5zm0-12h5a.499.499 0 1 1 0 1h-5a.498.498 0 0 1-.5-.5c0-.277.223-.5.5-.5zm0-4h5a.499.499 0 1 1 0 1h-5a.498.498 0 0 1-.5-.5c0-.277.223-.5.5-.5z" fill="#4788c7"/></svg>