<svg xmlns="http://www.w3.org/2000/svg" viewBox="0 0 64 64"><linearGradient id="a" gradientUnits="userSpaceOnUse" x1="32" y1="11.5" x2="32" y2="52.519" spreadMethod="reflect"><stop offset="0" stop-color="#1a6dff"/><stop offset="1" stop-color="#c822ff"/></linearGradient><path d="M59 43c1.103 0 2-.897 2-2v-2c0-1.103-.897-2-2-2h-3v-2c0-1.103-.897-2-2-2h-3V16c0-1.654-1.346-3-3-3H6c-1.654 0-3 1.346-3 3v32c0 1.654 1.346 3 3 3h53c1.103 0 2-.897 2-2v-2c0-1.103-.897-2-2-2h-3v-2h3zm0-4v2h-6v-2h6zm-8 8v2h-6v-2h6zm-19-2v-2h6v2h-6zm-1.848-2.762A6.998 6.998 0 0 1 27 43c-3.859 0-7-3.141-7-7s3.141-7 7-7a6.993 6.993 0 0 1 6.316 4H32c-1.103 0-2 .897-2 2v2c0 1.103.897 2 2 2h3v2h-3c-.833 0-1.547.513-1.848 1.238zM45 41v-2h6v2h-6zm-8-2h6v2h-6v-2zm3-2v-2h6v2h-6zm-2 0h-6v-2h6v2zm2 8v-2h6v2h-6zm14-8h-6v-2h6v2zm-5-9.09A6.006 6.006 0 0 1 44.09 23H48a1 1 0 0 1 1 1v3.91zm0-6.726A2.966 2.966 0 0 0 48 21H6c-.352 0-.686.072-1 .184V20a1 1 0 0 1 1-1h42a1 1 0 0 1 1 1v1.184zM6 15h42a1 1 0 0 1 1 1v1.184A2.966 2.966 0 0 0 48 17H6c-.352 0-.686.072-1 .184V16a1 1 0 0 1 1-1zm-1 9a1 1 0 0 1 1-1h3.91A6.008 6.008 0 0 1 5 27.91V24zm0 24v-3.91A6.006 6.006 0 0 1 9.91 49H6a1 1 0 0 1-1-1zm6.931 1A8.01 8.01 0 0 0 5 42.069V29.931A8.008 8.008 0 0 0 11.931 23H42.07a8.01 8.01 0 0 0 6.931 6.931V33H35.487A8.998 8.998 0 0 0 27 27c-4.963 0-9 4.037-9 9s4.037 9 9 9c1.026 0 2.04-.19 3-.529V45c0 1.103.897 2 2 2h3v2H11.931zM37 47h6v2h-6v-2zm22 0v2h-6v-2h6zm-5-2h-6v-2h6v2z" fill="url(#a)"/><linearGradient id="b" gradientUnits="userSpaceOnUse" x1="24.5" y1="30.5" x2="24.5" y2="41.333" spreadMethod="reflect"><stop offset="0" stop-color="#6dc7ff"/><stop offset="1" stop-color="#e6abff"/></linearGradient><path d="M27 41a5 5 0 0 1 0-10v10z" fill="url(#b)"/></svg>