<svg xmlns="http://www.w3.org/2000/svg" viewBox="0 0 50 50"><path d="M9.906 5.969A.88.88 0 0 0 9.812 6H3c-.55 0-1 .45-1 1v24.094c.047.515.48.91 1 .906h44c.55 0 1-.45 1-1V7c0-.55-.45-1-1-1h-6.813a.972.972 0 0 0-.28-.031c-.044.008-.087.02-.126.031H10.22a.936.936 0 0 0-.313-.031zM4 8h5v22H4zm7 0h28v22H11zm30 0h5v22h-5zm-16 3c-2.95 0-5.32 2.188-5.813 5H19c-2.2 0-4 1.8-4 4s1.8 4 4 4c.36.004.695-.184.879-.496a1.01 1.01 0 0 0 0-1.008c-.184-.312-.52-.5-.879-.496-1.117 0-2-.883-2-2s.883-2 2-2h1c.55 0 1-.45 1-1 0-2.219 1.781-4 4-4 2.219 0 4 1.781 4 4 0 .55.45 1 1 1h1c1.117 0 2 .883 2 2s-.883 2-2 2a1.006 1.006 0 0 0-.879.496 1.01 1.01 0 0 0 0 1.008c.184.312.52.5.879.496 2.2 0 4-1.8 4-4s-1.8-4-4-4h-.188c-.492-2.813-2.863-5-5.812-5zm12.906 21.969c-.043.008-.086.02-.125.031A1.002 1.002 0 0 0 37 34v2.594c-.734-.188-1.48-.36-2.375-.563C27.934 34.516 17.609 33 3 33h-.188c-.55.05-.957.543-.906 1.094.051.55.543.957 1.094.906 14.473 0 24.648 1.484 31.188 2.969 6.539 1.484 9.374 2.937 9.374 2.937A.997.997 0 0 0 45 40v-6a1.006 1.006 0 0 0-.496-.879 1.01 1.01 0 0 0-1.008 0c-.312.184-.5.52-.496.879v4.5c-.828-.344-2.11-.832-4-1.375V34a1 1 0 0 0-1.094-1.031zM2.72 36c-.551.078-.938.59-.86 1.14.079.551.59.938 1.141.86 13.309 0 22.664 2.484 28.688 4.938 6.023 2.453 8.656 4.812 8.656 4.812.297.258.71.316 1.07.156A.996.996 0 0 0 42 47v-5a1.006 1.006 0 0 0-.496-.879 1.01 1.01 0 0 0-1.008 0c-.312.184-.5.52-.496.879v3.063a29.378 29.378 0 0 0-3-1.876v-2.5a1.004 1.004 0 0 0-1.125-1 .998.998 0 0 0-.875 1v1.5a50.18 50.18 0 0 0-2.563-1.124C26.18 38.516 16.56 36 3 36h-.281z"/></svg>