<svg xmlns="http://www.w3.org/2000/svg" viewBox="0 0 64 64"><path d="M20.02 2a.974.974 0 0 0-.586.176 1 1 0 0 0-.399 1.097l3.719 13.008A2.991 2.991 0 0 0 21 19c0 .863.375 1.64.96 2.188l-8.495 5.843a16.988 16.988 0 0 0-7.27 12.13L4.25 56.67A3.007 3.007 0 0 0 7.234 60h49.532c.851 0 1.668-.363 2.234-1 .566-.633.84-1.484.746-2.328L57.801 39.16a16.97 16.97 0 0 0-7.266-12.129l-8.496-5.843a3 3 0 0 0 .727-1.032l10.058 1.828a1 1 0 0 0 .355-1.969l-8.3-1.507 4.617-2.64a.999.999 0 1 0-.992-1.735l-5.914 3.379a2.972 2.972 0 0 0-1.344-1.23l3.719-13.009A1.002 1.002 0 0 0 43.402 2.2L40 4.75 36.598 2.2a.985.985 0 0 0-1.196 0L32 4.75 28.598 2.2a.985.985 0 0 0-1.196 0L24 4.75 20.598 2.2a.995.995 0 0 0-.578-.2zM28 4.25l3.402 2.55c.352.27.844.27 1.196 0L36 4.25l3.402 2.55c.352.27.844.27 1.196 0l1.625-1.214L39.246 16H24.754L21.777 5.586 23.402 6.8c.352.27.844.27 1.196 0zM24 18h16c.55 0 1 .45 1 1s-.45 1-1 1H24c-.55 0-1-.45-1-1s.45-1 1-1zm.313 4h15.375l9.718 6.68a14.988 14.988 0 0 1 6.407 10.703l1.949 17.508a.996.996 0 0 1-.25.777.986.986 0 0 1-.746.332H7.234a.986.986 0 0 1-.746-.332.979.979 0 0 1-.246-.777l1.946-17.508a14.988 14.988 0 0 1 6.406-10.703zM31 28c-2.758 0-5 2.242-5 5v.93c0 1.601.625 3.11 1.758 4.242l.777.777c.317.317.563.676.781 1.051H27a1 1 0 1 0 0 2h2.953c.016.16.047.32.047.484V45c0 .55-.45 1-1 1h-3a1 1 0 1 0 0 2h12a1 1 0 1 0 0-2h-6.184A2.93 2.93 0 0 0 32 45v-2.516a6.962 6.962 0 0 0-2.05-4.953l-.778-.773A3.971 3.971 0 0 1 28 33.93V33c0-1.652 1.348-3 3-3h2c1.652 0 3 1.348 3 3v.512c0 .55.45 1 1 1s1-.45 1-1V33c0-2.758-2.242-5-5-5zm3 12a1 1 0 1 0 0 2h2a1 1 0 1 0 0-2zM9 52a1 1 0 0 0-1 1v2a1 1 0 1 0 2 0v-2a1 1 0 0 0-1-1zm5 0a1 1 0 0 0-1 1v2a1 1 0 1 0 2 0v-2a1 1 0 0 0-1-1zm5 0a1 1 0 0 0-1 1v2a1 1 0 1 0 2 0v-2a1 1 0 0 0-1-1zm5 0a1 1 0 0 0-1 1v2a1 1 0 1 0 2 0v-2a1 1 0 0 0-1-1zm5 0a1 1 0 0 0-1 1v2a1 1 0 1 0 2 0v-2a1 1 0 0 0-1-1zm6 0a1 1 0 0 0-1 1v2a1 1 0 1 0 2 0v-2a1 1 0 0 0-1-1zm5 0a1 1 0 0 0-1 1v2a1 1 0 1 0 2 0v-2a1 1 0 0 0-1-1zm5 0a1 1 0 0 0-1 1v2a1 1 0 1 0 2 0v-2a1 1 0 0 0-1-1zm5 0a1 1 0 0 0-1 1v2a1 1 0 1 0 2 0v-2a1 1 0 0 0-1-1zm5 0a1 1 0 0 0-1 1v2a1 1 0 1 0 2 0v-2a1 1 0 0 0-1-1z"/></svg>