<svg xmlns="http://www.w3.org/2000/svg" viewBox="0 0 16 16"><path d="M5.512 1a2.512 2.512 0 0 0-2.5 2.5v5.621C2.414 9.746 2 10.562 2 11.5A3.51 3.51 0 0 0 5.5 15 3.51 3.51 0 0 0 9 11.5c0-.926-.402-1.734-.988-2.36V3.5c0-1.371-1.13-2.5-2.5-2.5zM11 1s-1 1.367-1 2 .45 1 1 1 1-.367 1-1-1-2-1-2zM5.512 2a1.5 1.5 0 0 1 1.5 1.5v5.79c0 .14.058.273.164.366A2.492 2.492 0 0 1 5.5 14 2.492 2.492 0 0 1 3 11.5c0-.742.328-1.395.844-1.86a.495.495 0 0 0 .168-.37V3.5a1.5 1.5 0 0 1 1.5-1.5zM13.5 4.625S12 6.621 12 7.469C12 8.316 12.672 9 13.5 9S15 8.316 15 7.469c0-.848-1.5-2.844-1.5-2.844zM5 5v5.09c-.598.21-1 .773-1 1.41a1.5 1.5 0 0 0 3 0c0-.637-.402-1.2-1-1.41V5zm7 5s-1 1.367-1 2 .45 1 1 1 1-.367 1-1-1-2-1-2z"/></svg>