<svg xmlns="http://www.w3.org/2000/svg" viewBox="0 0 16 16"><path d="M7.5 1c-1.5 0-2.922.531-2.922.531l-.547.2 1.407 2.558c-.446.223-1.118.59-1.938 1.258C2.281 6.53 1 8.027 1 10c0 1.504.648 2.625 1.797 3.23 1.144.602 2.707.77 4.703.77 1.996 0 3.559-.168 4.703-.77C13.352 12.625 14 11.504 14 10c0-1.969-1.246-3.465-2.43-4.45-.25-.206-.496-.382-.734-.55H14V4H9.809l1.14-2.277-.527-.192S9 1 7.5 1zm0 1c.98 0 1.605.242 2.008.367L8.69 4H6.42l-.9-1.64C5.934 2.233 6.535 2 7.5 2zM6.258 5h2.61c.062.027 1.03.46 2.066 1.32C11.996 7.207 13 8.46 13 10c0 1.254-.39 1.883-1.262 2.344C10.871 12.8 9.434 13 7.5 13c-1.934 0-3.371-.2-4.242-.656C2.39 11.883 2 11.254 2 10c0-1.531 1.031-2.785 2.125-3.676A9.835 9.835 0 0 1 6.258 5zM7 6v1h-.5C5.676 7 5 7.676 5 8.5S5.676 10 6.5 10h2c.281 0 .5.219.5.5s-.219.5-.5.5H5v1h2v.5h1V12h.5c.824 0 1.5-.676 1.5-1.5S9.324 9 8.5 9h-2a.494.494 0 0 1-.5-.5c0-.281.219-.5.5-.5H9V7H8V6z"/></svg>