<svg xmlns="http://www.w3.org/2000/svg" viewBox="0 0 64 64"><path d="M56.84 37.36a3.093 3.093 0 0 0-.649 2.421l.95 6a.997.997 0 0 1-.653 1.117l-5.66 2.172a3.087 3.087 0 0 0-1.777 1.77l-2.172 5.66a.995.995 0 0 1-1.117.648l-6-.949a3.095 3.095 0 0 0-2.422.653l-4.711 3.808a1.003 1.003 0 0 1-1.29 0l-4.71-3.808a3.086 3.086 0 0 0-2.418-.653l-6 .95a.997.997 0 0 1-1.121-.649l-2.168-5.66a3.1 3.1 0 0 0-1.774-1.781L7.512 46.89a1 1 0 0 1-.653-1.121l.95-6a3.08 3.08 0 0 0-.649-2.418l-3.808-4.704a.994.994 0 0 1 0-1.289l3.808-4.71a3.08 3.08 0 0 0 .649-2.419l-.95-6a1 1 0 0 1 .653-1.12l5.66-2.169a3.098 3.098 0 0 0 1.777-1.77l2.172-5.66a.997.997 0 0 1 1.117-.652l6 .95a3.093 3.093 0 0 0 2.422-.649l4.711-3.808a.994.994 0 0 1 1.29 0l4.71 3.808a3.084 3.084 0 0 0 2.418.649l6-.95a1 1 0 0 1 1.121.653l2.168 5.66c.313.816.957 1.46 1.774 1.777l5.66 2.172a1 1 0 0 1 .648 1.117l-.95 6a3.093 3.093 0 0 0 .65 2.422l3.812 4.711c.312.371.312.918 0 1.29z" fill="#ed7899"/><path d="M51 32c0 10.492-8.508 19-19 19s-19-8.508-19-19 8.508-19 19-19 19 8.508 19 19z" fill="#f283a5"/><path d="M32 49c-.55 0-1 .45-1 1v2c0 .55.45 1 1 1s1-.45 1-1v-2c0-.55-.45-1-1-1zm0-34c.55 0 1-.45 1-1v-2c0-.55-.45-1-1-1s-1 .45-1 1v2c0 .55.45 1 1 1zM18.559 44l-1.41 1.41a1 1 0 1 0 1.41 1.41L20 45.441A1.018 1.018 0 1 0 18.559 44zM44.73 20.27a.995.995 0 0 0 .711-.29l1.41-1.41a1 1 0 0 0-1.41-1.41L44 18.56a1 1 0 0 0 .71 1.71zM45.441 44A1.018 1.018 0 1 0 44 45.441l1.41 1.41a.995.995 0 0 0 1.356-.054.996.996 0 0 0 .054-1.356zM18.559 20A1.018 1.018 0 1 0 20 18.559l-1.41-1.41a.995.995 0 0 0-1.356.054.996.996 0 0 0-.054 1.356zm19.062 29.129a1.001 1.001 0 0 0-1.219-.672.996.996 0 0 0-.71 1.191l.519 1.93c.082.36.352.64.703.738a1 1 0 0 0 1.227-1.257zM26.379 14.871a1 1 0 0 0 1.219.672.996.996 0 0 0 .71-1.191l-.519-1.93a.993.993 0 0 0-.703-.738 1 1 0 0 0-1.227 1.257zM23.5 46.719a.998.998 0 0 0-.762-.098.994.994 0 0 0-.61.469l-1 1.73a1 1 0 0 0 1.731 1l1-1.73a.993.993 0 0 0 .106-.758 1.006 1.006 0 0 0-.465-.613zm17-29.438c.23.133.504.168.762.098a.994.994 0 0 0 .61-.469l1-1.73a1.002 1.002 0 0 0-.86-1.535.994.994 0 0 0-.871.535l-1 1.73a.993.993 0 0 0-.106.758c.067.258.235.477.465.613zm1.371 29.809a.998.998 0 0 0-1.344-.328.996.996 0 0 0-.386 1.328l1 1.73a.994.994 0 0 0 .87.535 1.002 1.002 0 0 0 .86-1.535zm-19-32.91a.998.998 0 0 0-1.344-.328.997.997 0 0 0-.386 1.328l1 1.73a.996.996 0 0 0 1.343.328 1 1 0 0 0 .387-1.328zm4.731 34.242a1.001 1.001 0 0 0-1.223.707l-.52 1.93a1 1 0 1 0 1.227 1.258.993.993 0 0 0 .703-.739l.52-1.93a1 1 0 0 0-.098-.761.988.988 0 0 0-.61-.465zm8.796-32.844a1.001 1.001 0 0 0 1.223-.707l.52-1.93a1 1 0 1 0-1.227-1.258.993.993 0 0 0-.703.739l-.52 1.93a1 1 0 0 0 .098.761.99.99 0 0 0 .61.465z" fill="#8d6c9f"/><path d="M61.422 33.89a3.01 3.01 0 0 0 0-3.78l-3.712-4.58a1.003 1.003 0 0 1-.211-.793l.922-5.816a3.01 3.01 0 0 0-1.89-3.274L51 13.54a1.004 1.004 0 0 1-.578-.578l-2.113-5.5a2.993 2.993 0 0 0-3.27-1.89l-5.82.917a.992.992 0 0 1-.79-.207l-4.538-3.703a3.01 3.01 0 0 0-3.782 0L25.531 6.29a1 1 0 0 1-.793.211l-5.816-.922a3.01 3.01 0 0 0-3.274 1.89L13.54 13a1.004 1.004 0 0 1-.578.578l-5.5 2.113a2.993 2.993 0 0 0-1.89 3.27l.917 5.82a.992.992 0 0 1-.207.79l-3.703 4.538a3.01 3.01 0 0 0 0 3.782l3.711 4.578a1 1 0 0 1 .211.793l-.922 5.816a3.01 3.01 0 0 0 1.89 3.274L13 50.46c.266.102.477.312.578.578l2.113 5.5a2.993 2.993 0 0 0 3.27 1.89l5.82-.917a.992.992 0 0 1 .79.207l4.577 3.71a3 3 0 0 0 3.782 0l4.582-3.71a.988.988 0 0 1 .789-.207l5.82.918a2.998 2.998 0 0 0 3.27-1.89L50.46 51c.102-.266.312-.477.578-.578l5.5-2.113a2.993 2.993 0 0 0 1.89-3.27l-.917-5.82a.992.992 0 0 1 .207-.79zm-5.262 3.32a2.988 2.988 0 0 0-.629 2.36l.918 5.82a.999.999 0 0 1-.629 1.09l-5.5 2.11a2.999 2.999 0 0 0-1.73 1.73l-2.11 5.5a.999.999 0 0 1-1.09.63l-5.82-.919a2.99 2.99 0 0 0-2.36.63l-4.581 3.71a1 1 0 0 1-1.258 0l-4.582-3.71a2.988 2.988 0 0 0-2.36-.63l-5.82.918a.999.999 0 0 1-1.09-.629l-2.109-5.5a2.999 2.999 0 0 0-1.73-1.73l-5.5-2.11a.999.999 0 0 1-.63-1.09l.919-5.82a2.99 2.99 0 0 0-.63-2.36L4.13 32.63a1 1 0 0 1 0-1.258l3.71-4.582a2.99 2.99 0 0 0 .63-2.36l-.918-5.82a.999.999 0 0 1 .629-1.09l5.5-2.109a2.999 2.999 0 0 0 1.73-1.73l2.11-5.5a.999.999 0 0 1 1.09-.63l5.82.919a2.99 2.99 0 0 0 2.36-.63l4.581-3.71a1 1 0 0 1 1.258 0l4.582 3.71a2.99 2.99 0 0 0 2.36.63l5.82-.918a.999.999 0 0 1 1.09.629l2.109 5.5a2.999 2.999 0 0 0 1.73 1.73l5.5 2.11a.999.999 0 0 1 .63 1.09l-.919 5.82a2.99 2.99 0 0 0 .63 2.36l3.71 4.581a1 1 0 0 1 0 1.258z" fill="#8d6c9f"/><path d="M34 26c.55 0 1-.45 1-1s-.45-1-1-1h-7c-.55 0-1 .45-1 1v14c0 .55.45 1 1 1h7c.55 0 1-.45 1-1s-.45-1-1-1h-6v-6h5c.55 0 1-.45 1-1s-.45-1-1-1h-5v-4zM22 39V25c0-.55-.45-1-1-1s-1 .45-1 1v10.23L13.871 24.5a1.006 1.006 0 0 0-1.129-.473A.996.996 0 0 0 12 25v14c0 .55.45 1 1 1s1-.45 1-1V28.77l6.129 10.73A1.002 1.002 0 0 0 22 39zm29.21-15a1.015 1.015 0 0 0-.757.137 1.006 1.006 0 0 0-.433.633l-2.098 9.789-2-7.82a1.004 1.004 0 0 0-.973-.755 1 1 0 0 0-.969.754l-2 7.82L40 24.79a1.022 1.022 0 1 0-2 .422l3 14a1 1 0 0 0 1 .789c.469.016.887-.305 1-.762l2-8.117 2 8.117c.113.457.531.778 1 .762a.999.999 0 0 0 1-.79l3-14a.999.999 0 0 0-.79-1.21z" fill="#f9efde"/></svg>