<svg xmlns="http://www.w3.org/2000/svg" viewBox="0 0 24 24"><path d="M8 2C6.355 2 5 3.355 5 5v5.875c-2.05 1.21-3.355 3.582-2.906 6.188.41 2.382 2.254 4.316 4.625 4.812C10.539 22.672 14 19.723 14 16c0-2.172-1.262-3.95-3-5V5c0-1.645-1.355-3-3-3zm0 2c.566 0 1 .434 1 1v1H8v6.844A3.476 3.476 0 0 0 6 16a3.5 3.5 0 0 0 3.5 3.5c.168 0 .34-.008.5-.031a4.08 4.08 0 0 1-2.875.437c-1.54-.32-2.797-1.633-3.063-3.187-.34-1.969.735-3.668 2.344-4.375L7 12.063V5c0-.566.434-1 1-1zm12.5.5S19 6.672 19 7.5a1.5 1.5 0 0 0 3 0c0-.828-1.5-3-1.5-3zm-3 6s-1.5 2.172-1.5 3a1.5 1.5 0 0 0 3 0c0-.828-1.5-3-1.5-3zm3 5s-1.5 2.172-1.5 3a1.5 1.5 0 0 0 3 0c0-.828-1.5-3-1.5-3z"/></svg>