<svg xmlns="http://www.w3.org/2000/svg" viewBox="0 0 24 24"><path d="M12 0L9.656 3.219 6 1.594l-.438 3.968L1.595 6 3.22 9.656 0 12l3.219 2.344L1.594 18l3.968.438L6 22.405l3.656-1.625L12 24l2.344-3.219L18 22.406l.438-3.968L22.405 18l-1.625-3.656L24 12l-3.219-2.344L22.406 6l-3.968-.438L18 1.595 14.344 3.22zm1 5.094v5.968h-2.031V7h-1v-.844zm-7.031 7.875H8.5v.531H6.625v1.25h1.594v.531H6.625v1.75h-.656zm3.062 0h1.344c.438 0 .793.11 1.031.312.239.203.344.496.344.875a.89.89 0 0 1-.156.531 1.14 1.14 0 0 1-.469.376c.223.074.402.18.5.343.098.164.125.383.125.625v.313c0 .117.035.261.063.375.027.113.058.191.124.25v.062h-.656a.451.451 0 0 1-.156-.281 2.845 2.845 0 0 1-.031-.406v-.313c0-.21-.04-.379-.156-.5a.614.614 0 0 0-.47-.187h-.78v1.687H9.03zm3.5 0H15v.531h-1.813v1.156h1.532v.531h-1.531V16.5H15v.531h-2.469zm3.063 0h2.437v.531H16.25v1.156h1.531v.531H16.25V16.5h1.813v.531h-2.47zm-5.906.531v1.313h.656c.261 0 .441-.083.562-.188.121-.105.188-.254.188-.469a.629.629 0 0 0-.188-.469c-.117-.113-.289-.187-.531-.187z"/></svg>