<svg xmlns="http://www.w3.org/2000/svg" viewBox="0 0 32 32"><path d="M16 2.594l-.688.687-2.624 2.531-3.594-.5-.969-.156-.156.969-.625 3.563-3.219 1.718-.875.469.438.844L5.28 16l-1.593 3.281-.438.844.875.469 3.219 1.718.625 3.563.156.969.969-.157 3.594-.5 2.624 2.532.688.687.688-.687 2.625-2.532 3.593.5.969.157.156-.969.625-3.594 3.219-1.687.844-.469-.407-.844L26.72 16l1.593-3.281.407-.844-.844-.469-3.219-1.687-.625-3.594-.156-.969-.969.157-3.593.5-2.625-2.532zm0 2.781l2.281 2.219.344.343.469-.062 3.125-.469.562 3.125.094.469.406.25 2.782 1.469-1.375 2.844-.22.437.22.438 1.375 2.843-2.782 1.469-.406.25-.094.469-.562 3.125-3.125-.469-.469-.063-.344.344L16 26.625l-2.281-2.219-.344-.343-.469.062-3.125.469-.562-3.125L9.125 21l-.438-.25-2.78-1.5 1.374-2.813L7.5 16l-.219-.438-1.375-2.812 2.782-1.5.437-.25.094-.469.562-3.125 3.125.469.469.063.344-.344zM15.969 11l-.156.156c-.083.094-.575.406-.844.406v1c.312 0 .808-.16 1.031-.28V15h1v-4zM9 16v4h1v-1.5h1.344v-1H10V17h1.563v-1zm7 0v4h2.563v-1H17v-.5h1.344v-1H17V17h1.563v-1zm4 0v4h2.563v-1H21v-.5h1.344v-1H21V17h1.563v-1zm-7.5.031V20h1v-1.469L14.094 20h1.094l-.72-1.719c.313-.226.532-.586.532-1a1.25 1.25 0 0 0-1.25-1.25zm1 1h.25c.14 0 .25.11.25.25s-.11.25-.25.25h-.25z"/></svg>