<svg xmlns="http://www.w3.org/2000/svg" viewBox="0 0 16 16"><path d="M8.008 1.02a.51.51 0 0 0-.336.128L6.465 2.242l-1.598-.344a.498.498 0 0 0-.578.336l-.5 1.555-1.555.5a.502.502 0 0 0-.336.578L1.93 5h1.36l1.05-.34a.503.503 0 0 0 .32-.32l.442-1.363 1.402.296a.507.507 0 0 0 .441-.117l1.063-.96 1.066.96a.512.512 0 0 0 .442.117l1.402-.296.441 1.363a.5.5 0 0 0 .32.324L12.73 5h1.364l.027-.133a.501.501 0 0 0-.34-.578l-1.55-.5-.5-1.555a.497.497 0 0 0-.583-.336l-1.593.344-1.211-1.094a.496.496 0 0 0-.336-.128zM1.5 6c-.277 0-.5.223-.5.5V10h1V9h1V8H2V7h1V6zm3 0c-.277 0-.5.223-.5.5V10h1V8.848l.46-.172L5.939 10H7l-.602-1.676.278-.105A.503.503 0 0 0 7 7.75V6.5c0-.277-.223-.5-.5-.5zm4 0c-.277 0-.5.223-.5.5v3c0 .277.223.5.5.5H11V9H9v-.152l1.676-.63A.503.503 0 0 0 11 7.75V6.5c0-.277-.223-.5-.5-.5zm4 0c-.277 0-.5.223-.5.5v3c0 .277.223.5.5.5H15V9h-2v-.152l1.676-.63A.503.503 0 0 0 15 7.75V6.5c0-.277-.223-.5-.5-.5zM5 7h1v.406l-1 .375zm4 0h1v.406l-1 .375zm4 0h1v.406l-1 .375zM1.934 11l-.036.152c-.05.25.094.5.336.578l1.555.5.5 1.551c.078.246.32.395.578.336l1.598-.34 1.207 1.094a.51.51 0 0 0 .336.129.496.496 0 0 0 .336-.129l1.21-1.094 1.598.344c.262.059.5-.094.578-.34l.504-1.547 1.551-.5a.505.505 0 0 0 .336-.582L14.09 11h-1.297l-1.11.36a.49.49 0 0 0-.324.324l-.437 1.363-1.406-.3a.485.485 0 0 0-.438.116l-1.07.965-1.063-.965a.49.49 0 0 0-.437-.117l-1.406.3-.438-1.362a.492.492 0 0 0-.32-.325L3.227 11z"/></svg>