<svg xmlns="http://www.w3.org/2000/svg" viewBox="0 0 26 26"><path d="M10.156.219a.795.795 0 0 0-.719.312L7.75 2.812l-2.844.094a.829.829 0 0 0-.781.688l-.438 2.812L1.22 7.813a.826.826 0 0 0-.375.968l.906 2.688-1.5 2.406a.785.785 0 0 0 .125 1l2.031 1.969-.219 2.843a.818.818 0 0 0 .594.844l2.719.782 1.094 2.593c.152.356.527.582.906.5l2.781-.562 2.219 1.781a.78.78 0 0 0 .5.188.78.78 0 0 0 .5-.188l2.219-1.781 2.781.562c.379.082.754-.144.906-.5l1.094-2.593 2.719-.782a.815.815 0 0 0 .593-.843l-.218-2.844 2.031-1.969a.785.785 0 0 0 .125-1l-1.5-2.406.906-2.688a.826.826 0 0 0-.375-.969l-2.468-1.406-.438-2.812a.829.829 0 0 0-.781-.688l-2.844-.094-1.688-2.28a.814.814 0 0 0-1-.25L13 1.5 10.437.281a.793.793 0 0 0-.28-.062zm2.875 4.75h1.094c-.012.27-.02.574-.031.937-.012.36-.031.68-.031.969v3.25c0 .148.234.844.937.844v1h-4.031v-1c.515 0 .969-.606.969-.781V7.03h-.97v-.968c.895 0 1.997-1 2.063-1.094zM10.5 13.937c.746 0 1.27.122 1.625.407.309.238.469.597.469 1.062 0 .633-.442 1.063-.875 1.219v.031c.351.14.527.473.656.938.156.574.313 1.21.406 1.406h-1.156c-.074-.148-.203-.535-.344-1.156-.14-.633-.37-.805-.844-.813h-.312V19H8.969v-4.969c.363-.062.918-.094 1.531-.094zM5 13.97h3.063v.937H6.125v1.156h1.813v.907H6.125V19H5zm9 0h3.094v.937h-1.969v1.063h1.844v.906h-1.844v1.188h2.063V19H14zm4 0h3.094v.937h-1.969v1.063h1.844v.906h-1.844v1.188h2.063V19H18zm-7.375.812c-.277 0-.418.008-.5.031v1.407h.438c.566 0 .906-.309.906-.75 0-.457-.32-.688-.844-.688z"/></svg>