<svg xmlns="http://www.w3.org/2000/svg" viewBox="0 0 40 40"><path d="M2.5 14.5h35v24h-35z" fill="#dff0fe"/><path d="M37 15v23H3V15h34m1-1H2v25h36z" fill="#4788c7"/><path d="M1.5 8.5h37v6h-37z" fill="#dff0fe"/><path d="M38 9v5H2V9h36m1-1H1v7h38z" fill="#4788c7"/><path d="M17.5 14.5h5v24h-5z" fill="#b6dcfe"/><path d="M22 15v23h-4V15h4m1-1h-6v25h6z" fill="#4788c7"/><path d="M17.5 8.5h5v6h-5z" fill="#b6dcfe"/><path d="M22 9v5h-4V9h4m1-1h-6v7h6z" fill="#4788c7"/><path d="M22.5 1.5l-2.5 7m6.5-4l-6 4m-3-7l2.5 7m-6.5-4l6 4" fill="none" stroke-linecap="round" stroke="#4788c7" stroke-miterlimit="10"/></svg>