<svg xmlns="http://www.w3.org/2000/svg" viewBox="0 0 64 64"><linearGradient id="a" gradientUnits="userSpaceOnUse" x1="32" y1="31.5" x2="32" y2="50.933" spreadMethod="reflect"><stop offset="0" stop-color="#6dc7ff"/><stop offset="1" stop-color="#e6abff"/></linearGradient><rect x="31" y="32" width="2" height="18" fill="url(#a)"/><linearGradient id="b" gradientUnits="userSpaceOnUse" x1="32" y1="6.5" x2="32" y2="58.502" spreadMethod="reflect"><stop offset="0" stop-color="#1a6dff"/><stop offset="1" stop-color="#c822ff"/></linearGradient><path d="M58 23c0-2.757-2.243-5-5-5H41.459A5.965 5.965 0 0 0 43 14c0-3.309-2.691-6-6-6a5.997 5.997 0 0 0-5 2.69A5.997 5.997 0 0 0 27 8c-3.309 0-6 2.691-6 6 0 1.538.586 2.937 1.541 4H11c-2.757 0-5 2.243-5 5v5h4v23c0 2.757 2.243 5 5 5h34c2.757 0 5-2.243 5-5V28h4v-5zm-29 3v-6h6v6h-6zm6 2v26h-6V28h6zm2-18c2.206 0 4 1.794 4 4s-1.794 4-4 4h-4v-4c0-2.206 1.794-4 4-4zm-14 4c0-2.206 1.794-4 4-4s4 1.794 4 4v4h-4c-2.206 0-4-1.794-4-4zM8 23c0-1.654 1.346-3 3-3h16v6H8v-3zm4.184 29H19v-2h-7v-2h3v-2h-3V28h15v26H15a2.995 2.995 0 0 1-2.816-2zM52 46h-3v2h3v2h-7v2h6.816A2.995 2.995 0 0 1 49 54H37V28h15v18zm4-20H37v-6h16c1.654 0 3 1.346 3 3v3z" fill="url(#b)"/><linearGradient id="c" gradientUnits="userSpaceOnUse" x1="37" y1="11.75" x2="37" y2="16.667" spreadMethod="reflect"><stop offset="0" stop-color="#6dc7ff"/><stop offset="1" stop-color="#e6abff"/></linearGradient><path d="M37 16h-2v-2a2 2 0 1 1 4 0 2 2 0 0 1-2 2z" fill="url(#c)"/><linearGradient id="d" gradientUnits="userSpaceOnUse" x1="27" y1="11.75" x2="27" y2="16.667" spreadMethod="reflect"><stop offset="0" stop-color="#6dc7ff"/><stop offset="1" stop-color="#e6abff"/></linearGradient><path d="M29 16h-2a2 2 0 1 1 0-4 2 2 0 0 1 2 2v2z" fill="url(#d)"/></svg>