<svg xmlns="http://www.w3.org/2000/svg" viewBox="0 0 40 40"><path d="M18.605 7.027A2.04 2.04 0 0 1 18 5.567c0-.551.215-1.07.605-1.462.391-.39.91-.605 1.461-.605.555 0 1.07.215 1.461.605l13.266 13.262-2.926 2.926z" fill="#dff0fe"/><path d="M20.066 4c.422 0 .813.164 1.11.46l12.91 12.907-2.219 2.219-12.906-12.91a1.56 1.56 0 0 1 0-2.215A1.543 1.543 0 0 1 20.066 4m0-1c-.656 0-1.312.25-1.812.754a2.563 2.563 0 0 0 0 3.629L31.867 21l3.633-3.633L21.883 3.754A2.545 2.545 0 0 0 20.066 3z" fill="#4788c7"/><path d="M5.207 17.367L18.473 4.105a2.04 2.04 0 0 1 1.46-.605c.551 0 1.07.215 1.462.605.39.391.605.91.605 1.461a2.05 2.05 0 0 1-.605 1.461L8.133 20.293z" fill="#dff0fe"/><path d="M19.934 4c.418 0 .808.164 1.105.46.297.294.461.688.461 1.106 0 .422-.164.813-.46 1.11L8.128 19.586l-2.215-2.219 12.91-12.906A1.56 1.56 0 0 1 19.934 4m0-1c-.66 0-1.317.25-1.817.754L4.5 17.367 8.133 21 21.746 7.383a2.563 2.563 0 0 0 0-3.63A2.543 2.543 0 0 0 19.934 3z" fill="#4788c7"/><path d="M5.477 36.5l-3.86-18h36.766l-3.86 18z" fill="#98ccfd"/><path d="M37.762 19l-3.64 17H5.878l-3.64-17h35.523M39 18H1l4.07 19h29.86z" fill="#4788c7"/><path d="M.5 15.5h39v4H.5z" fill="#b6dcfe"/><path d="M39 16v3H1v-3h38m1-1H0v5h40z" fill="#4788c7"/><path d="M13 25.637L18.363 31 27 22.363" fill="none" stroke-width="3" stroke="#fff" stroke-miterlimit="10"/></svg>