<svg xmlns="http://www.w3.org/2000/svg" viewBox="0 0 26 26"><path d="M19.531 1.531L14.25 4.406 5.5 9.188.219 12.094 2.5 16.219V13A1.5 1.5 0 0 1 4 11.5h.813l.03-.125 11.595-6.344.875.25c.023.078.05.172.093.25a1.29 1.29 0 0 0 1.75.532c.074-.043.125-.133.188-.188l.906.281 2 3.657-.25.906c-.078.023-.172.02-.25.062-.293.16-.492.43-.594.719H25l-2.594-4.719zm-1.093 6.563a1.308 1.308 0 0 0-1.032 1.281c0 .715.567 1.313 1.282 1.313.714 0 1.312-.598 1.312-1.313s-.598-1.281-1.313-1.281c-.09 0-.164-.016-.25 0zm-4.875.875a4.242 4.242 0 0 0-2.188.531c-.871.477-1.523 1.203-1.875 2h7.25a3.01 3.01 0 0 0-.313-.875c-.566-1.035-1.664-1.621-2.875-1.656zM4 13v13h22V13zm4.406 1.594h13.188l.656.656c-.016.082-.063.16-.063.25a1.32 1.32 0 0 0 1.313 1.313c.09 0 .168-.047.25-.063l.656.656v4.188l-.656.656c-.082-.016-.16-.063-.25-.063a1.32 1.32 0 0 0-1.313 1.313c0 .09.047.168.063.25l-.656.656H8.406l-.656-.656c.016-.082.063-.16.063-.25A1.32 1.32 0 0 0 6.5 22.187c-.09 0-.168.047-.25.063l-.656-.656v-4.188l.656-.656c.082.016.16.063.25.063A1.32 1.32 0 0 0 7.813 15.5c0-.09-.047-.168-.063-.25zm6.594 1.5c-2.168 0-3.938 1.52-3.938 3.406 0 1.887 1.77 3.406 3.938 3.406s3.938-1.52 3.938-3.406c0-1.887-1.77-3.406-3.938-3.406zm-6.5 2.093c-.715 0-1.313.598-1.313 1.313s.598 1.313 1.313 1.313 1.313-.598 1.313-1.313-.598-1.313-1.313-1.313zm13 0a1.32 1.32 0 0 0-1.313 1.313 1.32 1.32 0 0 0 1.313 1.313 1.32 1.32 0 0 0 1.313-1.313 1.32 1.32 0 0 0-1.313-1.313z"/></svg>