<svg xmlns="http://www.w3.org/2000/svg" viewBox="0 0 40 40"><path d="M1.883 14.074l29.531-12.32 6.93 16.61-29.532 12.32z" fill="#98ccfd"/><path d="M31.148 2.406l6.543 15.692L9.082 30.03 2.535 14.34 31.148 2.406m.536-1.308L1.23 13.805 8.543 31.34 39 18.633z" fill="#4788c7"/><path d="M25.95 14.441a6 6 0 0 0-7.848-3.226 5.996 5.996 0 0 0-3.223 7.844 5.994 5.994 0 0 0 7.844 3.226 5.994 5.994 0 0 0 3.226-7.844zm-14.141 5.094a2.507 2.507 0 0 0-3.27-1.344 2.502 2.502 0 0 0-1.348 3.27 2.504 2.504 0 0 0 3.27 1.348 2.507 2.507 0 0 0 1.348-3.274zm21-8.995a2.504 2.504 0 0 0-3.27-1.349 2.507 2.507 0 0 0-1.348 3.274 2.507 2.507 0 0 0 3.27 1.344 2.502 2.502 0 0 0 1.348-3.27z" fill="#fff"/><path d="M6.5 20.5h32v18h-32z" fill="#98ccfd"/><path d="M38 21v17H7V21h31m1-1H6v19h33z" fill="#4788c7"/><path d="M28 29.5c0 3.04-2.46 5.5-5.5 5.5S17 32.54 17 29.5s2.46-5.5 5.5-5.5 5.5 2.46 5.5 5.5zm-14 0c0 1.379-1.121 2.5-2.5 2.5A2.502 2.502 0 0 1 9 29.5c0-1.379 1.121-2.5 2.5-2.5s2.5 1.121 2.5 2.5zm22 0c0 1.379-1.121 2.5-2.5 2.5a2.502 2.502 0 0 1-2.5-2.5c0-1.379 1.121-2.5 2.5-2.5s2.5 1.121 2.5 2.5z" fill="#fff"/></svg>