<svg xmlns="http://www.w3.org/2000/svg" viewBox="0 0 48 48"><path d="M3 18.738L36.273 5l7.637 18.484-33.277 13.743z" fill="#81c784"/><path d="M3.004 18.738l1.848-.761 7.628 18.488-1.851.762z" fill="#1b5e20"/><path d="M9.871 35.379l33.274-13.742.765 1.847-33.277 13.743z" fill="#1b5e20"/><path d="M43.91 23.488l-1.847.762-7.637-18.484L36.273 5z" fill="#1b5e20"/><path d="M36.113 7.23L4.688 20.207l-.762-1.848L35.352 5.383zM9.219 31.512a4.998 4.998 0 0 1 6.527 2.71l-4.621 1.91z" fill="#1b5e20"/><path d="M6.215 23.902a4.996 4.996 0 0 0 2.71-6.527l-4.62 1.906zm34.476-5.582a5.003 5.003 0 0 0-2.71 6.532l4.62-1.91zm-3.051-7.39a5 5 0 0 1-6.53-2.715l4.624-1.906zM15.285 25.313a1.999 1.999 0 1 1-4 0 1.999 1.999 0 1 1 4 0zm20.336-8.399c0 1.106-.894 2-2 2a1.999 1.999 0 1 1 0-4c1.106 0 2 .899 2 2zm-18.562 7.043c-1.625-3.656.93-6.98 3.957-8.324 3.03-1.348 7.21-1.02 8.836 2.637 1.625 3.656-.934 6.98-3.961 8.328-3.028 1.343-7.207 1.011-8.832-2.641z" fill="#1b5e20"/><path d="M8 23h36v20H8z" fill="#a5d6a7"/><path d="M8 23h2v20H8z" fill="#388e3c"/><path d="M8 41h36v2H8z" fill="#388e3c"/><path d="M42 23h2v20h-2z" fill="#388e3c"/><path d="M9 23h34v2H9zm0 14a5 5 0 0 1 5 5H9z" fill="#388e3c"/><path d="M9 29a5 5 0 0 0 5-5H9zm34 8a5 5 0 0 0-5 5h5zm0-8a5 5 0 0 1-5-5h5zm-24 4c0-4 3.688-6 7-6 3.313 0 7 2 7 6s-3.688 6-7 6c-3.313 0-7-2-7-6zm-2 0a1.999 1.999 0 1 1-4 0 1.999 1.999 0 1 1 4 0zm22 0a1.999 1.999 0 1 1-4 0 1.999 1.999 0 1 1 4 0z" fill="#388e3c"/></svg>