<svg xmlns="http://www.w3.org/2000/svg" viewBox="0 0 80 80"><path d="M20 9v1c0 5.43.695 8.27 2.434 12.719C22.18 23.777 22 24.863 22 26c0 3.105 1.14 5.914 2.863 8.348l-.031.215.168.312.016.016-12.871 5.379c-.118.05-.165.101-.239.156C9.641 41.277 8 43.437 8 46c0 3.3 2.7 6 6 6 .914 0 1.758-.227 2.516-.582a1.41 1.41 0 0 0 .254-.074h.003L23 48.738v4.407c-.578.015-1.152-.016-1.73.109h-.036l-.093.023-.008.004c-.016.008-.035.008-.051.012-4.773 1.34-7.184 6.84-5.586 12.113 1.598 5.278 6.649 8.64 11.422 7.301a7.105 7.105 0 0 0 1.93-.879l.148-.062.082-.055.035-.059h.004A8.736 8.736 0 0 0 30.86 70h18.215l.047.09.063.078.191.086c.945 1.086 2.121 1.965 3.555 2.402h.004a.879.879 0 0 0 .093.031c.02.008.035.016.055.02 4.773 1.34 9.824-2.023 11.422-7.3 1.598-5.274-.813-10.774-5.586-12.114-.613-.172-1.223-.137-1.836-.145l-.078-.082H57v-4.328l6.438 2.696c.046.02.05-.004.093.007l-.066-.02c.039.02.09.013.129.032.183.035.386.059.422.05.035-.003-.106-.003-.207-.003.68.273 1.398.5 2.191.5 3.3 0 6-2.7 6-6 0-2.473-1.531-4.563-3.676-5.477.168.125.223.227.192.188a1.811 1.811 0 0 0-.356-.277s0-.004-.004-.004c-.035-.024-.027-.04-.074-.059l-.004-.004-13.082-5.472-.012-.067.157-.156.058-.082.055-.403C56.91 31.79 58 29.035 58 26v-.055c-.004 0 0 0 0-.004v-.011c-.008-1.11-.188-2.176-.434-3.211C59.305 18.269 60 15.429 60 10V9h-1c-3.52 0-7.852 1.664-10.668 2.863A20.833 20.833 0 0 0 45 10.66l-.16-.066-.102-.02-.043.008A19.42 19.42 0 0 0 40 10h-.047a19.411 19.411 0 0 0-4.168.469h-.07l-.102.023-.02.016a19.884 19.884 0 0 0-3.66 1.242l-.277.063-.058.027C28.78 10.64 24.496 9 21 9zm2.098 2.207c2.914.293 6.738 1.594 9.156 2.637l.43.183.41-.203a17.308 17.308 0 0 1 3.894-1.379l.067-.004.097-.02.012-.01A18.504 18.504 0 0 1 39.93 12l.011.004L40 12h.008c.125 0 .25.008.375.012l.039.008.098.003.015-.007c1.285.035 2.524.199 3.703.484l.063.023.097.024.008-.004a17.37 17.37 0 0 1 3.5 1.281l.016.004.062.035h.004l.328.164.34-.144.223.008.113-.145c2.43-1.023 6.082-2.254 8.91-2.539-.093 3.941-.554 6.379-1.804 9.79l-.301.03-.457.77.035.351.031.098.153.164-.055.14.082.317c.258 1 .406 2.024.414 3.074l-.004.016.004.059c-.004 3.246-1.262 6.218-3.395 8.609l-.933 1.047 3.703 1.547A1.002 1.002 0 0 0 56 39c.55 0 1-.45 1-1 0-.035-.004-.066-.004-.102l10.176 4.258.09.063.125.047C68.91 42.832 70 44.273 70 46c0 2.219-1.781 4-4 4-.598 0-1.16-.14-1.688-.39l-.113-.051-.105-.024-7.235-3.023A1.002 1.002 0 0 0 56 45c-.452 0-.85.309-.968.75L55 45.734v9.438l1.11-.125c.16-.02.32-.027.48-.031.004-.004.008 0 .012 0l.086-.004.011-.004a5.688 5.688 0 0 1 1.676.21c3.563 1 5.543 5.227 4.215 9.61-1.328 4.387-5.403 6.95-8.961 5.953h-.004c-.008 0-.012-.004-.016-.004l-.027-.011c-1.336-.383-2.426-1.207-3.223-2.34L50.062 68h-18.01l.008-.66-.715-.543-.86.25-.214.281-.047.09-.004.582h-.282l-.296.426c-.805 1.144-1.907 1.976-3.266 2.355-3.559 1-7.637-1.566-8.965-5.953-1.328-4.383.649-8.605 4.207-9.61h.008l.035-.007.008-.004a5.84 5.84 0 0 1 2.223-.16l.937.11.235.132.097.035.887-.117.441-.781-.363-.82-.309-.172-.093-.032-.723.094v-7.762l-.031.016A1.006 1.006 0 0 0 24 45a1.002 1.002 0 0 0-.86 1.512l-7.042 2.945-.137.012-.18.09A3.902 3.902 0 0 1 14 50c-2.219 0-4-1.781-4-4 0-1.766 1.137-3.227 2.719-3.766l.191-.066.102-.09 9.992-4.183c0 .035-.004.07-.004.105 0 .55.45 1 1 1a1.002 1.002 0 0 0 .625-1.781l3.703-1.547-.933-1.047C25.258 32.23 24 29.25 24 26c0-.117.008-.234.012-.348l.015-.058.004-.102-.015-.027c.043-.887.18-1.75.398-2.598l.082-.316-.121-.301v-.004l.125-.047.191-.297.04-.093-.067-.891-.758-.484-.183.066c-1.114-3.156-1.535-5.547-1.625-9.293zm6.164 2.734l-.309.168-.078.063-.375.816.43.79.886.124.309-.168.078-.062.375-.817-.43-.785zm23.273.274l-.676.586.067.894.23.266.078.062.875.192.676-.59-.066-.895-.23-.265-.079-.063zm-25.488 2.66l-.887.137-.25.254-.055.078-.12.89.64.63.887-.137.242-.25.058-.082.122-.891zm28.52.34l-.817.363-.195.875.144.324.055.082.785.434.82-.367.192-.875-.145-.32-.058-.086zM34 21c-2.2 0-4 1.8-4 4s1.8 4 4 4 4-1.8 4-4-1.8-4-4-4zm10 1c-.55 0-1 .45-1 1s.45 1 1 1 1-.45 1-1-.45-1-1-1zm4 0c-.55 0-1 .45-1 1s.45 1 1 1 1-.45 1-1-.45-1-1-1zm-14 1c1.117 0 2 .883 2 2s-.883 2-2 2-2-.883-2-2 .883-2 2-2zm12 1c-.55 0-1 .45-1 1s.45 1 1 1 1-.45 1-1-.45-1-1-1zm-2 2c-.55 0-1 .45-1 1s.45 1 1 1 1-.45 1-1-.45-1-1-1zm4 0c-.55 0-1 .45-1 1s.45 1 1 1 1-.45 1-1-.45-1-1-1zm3.266 10.047l-.313.168-.078.062-.379.809.422.789.883.14.312-.167.078-.063.383-.812-.422-.79zm-22.895.164l-.664.602.09.894.234.262.078.062.88.168.663-.605-.086-.89-.238-.263-.078-.062zm19.649 1.98l-.34.094-.09.043-.543.715.242.86.836.32.34-.094.09-.043.543-.711-.243-.863zm-15.477.204l-.898.039-.504.738.289.848.289.199.093.043.895-.04.508-.738-.293-.847-.29-.2zm11.82 1.136l-.351.024-.094.023-.684.582.059.895.75.488.352-.023.097-.024.68-.582-.059-.894zm-8.152.074l-.863.235-.328.832.472.766.328.124.102.02.86-.234.327-.832-.468-.766-.328-.125zm3.941.391l-.101.004-.785.426-.125.886.632.633.348.051.102-.004.785-.43.129-.886-.637-.63zM24 41c-.55 0-1 .45-1 1s.45 1 1 1 1-.45 1-1-.45-1-1-1zm32 0c-.55 0-1 .45-1 1s.45 1 1 1 1-.45 1-1-.45-1-1-1zm-3.383 13.184l-.332.12-.082.051-.488.754.305.84.859.254.332-.121.086-.05.488-.75-.308-.844zm-23.879 1.273l-.738.5-.047.895.2.293.066.074.847.293.747-.5.042-.899-.199-.289-.07-.074zm21.418 1.566l-.886.137-.247.254-.054.082-.121.89.64.626.887-.137.25-.254.05-.086.122-.887zm-18.785 1.82l-.871.22-.344.824.09.343.04.09.694.567.868-.219.347-.828-.086-.344-.043-.09zm16.832 1.876l-.785.43-.148.32-.02.07-.008.04-.008.046-.004.027.266.856.844.3.746-.5.098-.277h.004l.015-.054.004-.012-.004-.008.004-.008h-.004l-.187-.86zm-16.484 2.12l-.66.606-.067.348-.004.098.395.808.883.164.656-.601.066-.348.004-.102-.394-.8zm16.91 2.048l-.895.011-.527.727.008.352.02.097.542.711.895-.012.531-.726-.008-.352-.02-.097z"/></svg>