<svg xmlns="http://www.w3.org/2000/svg" viewBox="0 0 50 50"><path d="M17 2C8.727 2 2 8.727 2 17c0 7.96 6.219 14.488 14.063 14.969a1.004 1.004 0 0 0 1.062-.938 1.004 1.004 0 0 0-.938-1.062C9.38 29.55 4 23.918 4 17 4 9.809 9.809 4 17 4c6.918 0 12.55 5.379 12.969 12.188.035.55.511.972 1.062.937.551-.035.973-.512.938-1.063C31.489 8.22 24.96 2 17 2zm29 1c-.55 0-1 .45-1 1s.45 1 1 1 1-.45 1-1-.45-1-1-1zm-3 3c-.55 0-1 .45-1 1s.45 1 1 1 1-.45 1-1-.45-1-1-1zm-3 3c-.55 0-1 .45-1 1s.45 1 1 1 1-.45 1-1-.45-1-1-1zm-25.813 2.125l-1.124 6.188h2.062c.223-.31.703-.875 1.719-.875.363 0 1.937.136 1.937 2.093 0 .696-.414 2.157-1.937 2.157-1.414 0-1.79-1.176-1.844-1.688h-2.281c-.024 1.348.941 3.531 4.156 3.531 3.055 0 4.156-2.523 4.156-4 0-.773-.386-3.812-3.437-3.812-1.29 0-1.88.566-2.188.875l-.031-.031.438-2.563h4.624v-1.875zM37 12c-.55 0-1 .45-1 1s.45 1 1 1 1-.45 1-1-.45-1-1-1zm-3 3c-.55 0-1 .45-1 1s.45 1 1 1 1-.45 1-1-.45-1-1-1zm-3 3c-.55 0-1 .45-1 1s.45 1 1 1 1-.45 1-1-.45-1-1-1zm2.625.031c-.55.051-.957.543-.906 1.094.05.55.543.957 1.093.906C40.623 20.45 46 26.082 46 33c0 7.191-5.809 13-13 13-6.918 0-12.55-5.379-12.969-12.188a1.004 1.004 0 0 0-1.062-.937 1.004 1.004 0 0 0-.938 1.063C18.511 41.78 25.04 48 33 48c8.273 0 15-6.727 15-15 0-7.96-6.219-14.488-14.063-14.969a.668.668 0 0 0-.124 0h-.188zM28 21c-.55 0-1 .45-1 1s.45 1 1 1 1-.45 1-1-.45-1-1-1zm-3 3c-.55 0-1 .45-1 1s.45 1 1 1 1-.45 1-1-.45-1-1-1zm-3 3c-.55 0-1 .45-1 1s.45 1 1 1 1-.45 1-1-.45-1-1-1zm10.469.688c-.063.425-1.188 2.218-3.282 2.218v1.719H32v7.281h2.281V27.688zM19 30c-.55 0-1 .45-1 1s.45 1 1 1 1-.45 1-1-.45-1-1-1zm-3 3c-.55 0-1 .45-1 1s.45 1 1 1 1-.45 1-1-.45-1-1-1zm-3 3c-.55 0-1 .45-1 1s.45 1 1 1 1-.45 1-1-.45-1-1-1zm-3 3c-.55 0-1 .45-1 1s.45 1 1 1 1-.45 1-1-.45-1-1-1zm-3 3c-.55 0-1 .45-1 1s.45 1 1 1 1-.45 1-1-.45-1-1-1zm-3 3c-.55 0-1 .45-1 1s.45 1 1 1 1-.45 1-1-.45-1-1-1z"/></svg>