<svg xmlns="http://www.w3.org/2000/svg" viewBox="0 0 40 40"><path d="M3.5 7.5h33v29h-33z" fill="#dff0fe"/><path d="M36 8v28H4V8h32m1-1H3v30h34z" fill="#4788c7"/><path d="M2.5 3.5h35v4h-35z" fill="#dff0fe"/><path d="M37 4v3H3V4h34m1-1H2v5h36zm-14 8h-8c-.55 0-1 .45-1 1s.45 1 1 1h8c.55 0 1-.45 1-1s-.45-1-1-1z" fill="#4788c7"/><path d="M25.5 32.5h7m-1-2v-4m-5 4v-4" fill="none" stroke-linecap="round" stroke="#4788c7" stroke-miterlimit="10"/><path d="M26.5 25L25 27h3zm5 0L30 27h3z" fill="#4788c7"/></svg>