<svg xmlns="http://www.w3.org/2000/svg" viewBox="0 0 40 40"><path d="M9.379 38.5c-4.64 0-7.879-3.266-7.879-7.945 0-5.239 2.8-14.125 4.93-14.125h3.043l.129-.301c2-4.606 4.968-6.484 10.25-6.484 5.421 0 8.574 1.937 10.546 6.484l.133.3h3.04c2.128 0 4.929 8.887 4.929 14.126 0 4.68-3.238 7.945-7.879 7.945z" fill="#b6dcfe"/><path d="M19.852 10.145c5.191 0 8.207 1.847 10.085 6.183l.262.602h3.371c1.39 0 4.43 7.773 4.43 13.625C38 35.008 35.035 38 30.621 38H9.38C4.965 38 2 35.008 2 30.555 2 24.703 5.04 16.93 6.43 16.93H9.8l.259-.602c1.933-4.45 4.675-6.183 9.793-6.183m0-1c-5.524 0-8.63 1.992-10.711 6.785H6.43C3.734 15.93 1 25.43 1 30.555 1 35.832 4.75 39 9.379 39H30.62c4.63 0 8.38-3.168 8.38-8.445 0-5.125-2.734-14.625-5.43-14.625h-2.715c-2.078-4.793-5.484-6.785-11.003-6.785z" fill="#4788c7"/><path d="M19.5 4.5a3 3 0 1 1-6.002-.002A3 3 0 0 1 19.5 4.5z" fill="#dff0fe"/><path d="M16.5 2C17.879 2 19 3.121 19 4.5S17.879 7 16.5 7A2.502 2.502 0 0 1 14 4.5C14 3.121 15.121 2 16.5 2m0-1a3.5 3.5 0 1 0 0 7 3.5 3.5 0 1 0 0-7z" fill="#4788c7"/><path d="M26.5 4.5a3 3 0 1 1-6.002-.002A3 3 0 0 1 26.5 4.5z" fill="#dff0fe"/><path d="M23.5 2C24.879 2 26 3.121 26 4.5S24.879 7 23.5 7A2.502 2.502 0 0 1 21 4.5C21 3.121 22.121 2 23.5 2m0-1a3.5 3.5 0 1 0 0 7 3.5 3.5 0 1 0 0-7z" fill="#4788c7"/><path d="M29.453 16.5c-.457-2.46-4.21-5-9.453-5-5.242 0-8.996 2.54-9.453 5H6.52c.37-5.008 6.277-9 13.48-9s13.11 3.992 13.48 9z" fill="#dff0fe"/><path d="M20 8c6.68 0 12.2 3.508 12.922 8h-3.074c-.844-2.758-5.086-5-9.848-5-4.762 0-9.004 2.242-9.848 5H7.078C7.801 11.508 13.32 8 20 8m0-1C12.27 7 6 11.477 6 17h5c0-2.36 3.848-5 9-5s9 2.64 9 5h5c0-5.523-6.27-10-14-10z" fill="#4788c7"/></svg>