<svg xmlns="http://www.w3.org/2000/svg" viewBox="0 0 48 48"><path d="M34 22h-.84c-1.543-3.531-5.058-6-9.16-6s-7.617 2.469-9.16 6H14c-4.418 0-8 7-8 12s3.582 8 8 8h20c4.418 0 8-3 8-8s-3.582-12-8-12z" fill="#e91e63"/><path d="M24 8a1.999 1.999 0 1 1-4 0 1.999 1.999 0 1 1 4 0z" fill="#ff9800"/><path d="M28 8a1.999 1.999 0 1 1-4 0 1.999 1.999 0 1 1 4 0z" fill="#ff9800"/><path d="M33 23c0-4.965-4.035-9-9-9s-9 4.035-9 9l-2 2h1c4 0 3.934-2.2 4.078-2.969A6.01 6.01 0 0 1 24 17a6.01 6.01 0 0 1 5.922 5.031C30.066 22.801 30 25 34 25h1z" fill="#ad1457"/><path d="M24 10c-7.168 0-13 5.832-13 13 0 0 0 2 2 2s2-2 2-2c0-4.965 4.035-9 9-9s9 4.035 9 9c0 0 0 2 2 2s2-2 2-2c0-7.168-5.832-13-13-13z" fill="#ffc107"/></svg>