<svg xmlns="http://www.w3.org/2000/svg" viewBox="0 0 24 24"><path d="M14 1v2c-1.184 0-2.246.352-2.969 1.094C10.31 4.836 10 5.875 10 7v2h2V7c0-.773.191-1.219.469-1.5.277-.281.715-.5 1.531-.5v2l4.094-3zM2 2v2h2.281l2.625 7.813-1.5 2h-.031a2.082 2.082 0 0 0-.156 2.124A2.02 2.02 0 0 0 7 17h13v-2H7c.004-.004-.012-.016 0-.031L8.5 13h9.406c.399 0 .805-.195.907-.594l3.093-7A.994.994 0 0 0 21 4h-.594l-3.093 7H8.719L5.938 2.687 5.718 2zm5 16a1.999 1.999 0 1 0 0 4 1.999 1.999 0 1 0 0-4zm11 0a1.999 1.999 0 1 0 0 4 1.999 1.999 0 1 0 0-4z"/></svg>