<svg xmlns="http://www.w3.org/2000/svg" viewBox="0 0 32 32"><path d="M5 6c-.55 0-1 .45-1 1s.45 1 1 1h2.219l2.625 10.5c.222.89 1.02 1.5 1.937 1.5H24.25c.902 0 1.668-.598 1.906-1.469L28.75 9h-2.094l-2.406 9H11.781L9.156 7.5A1.983 1.983 0 0 0 7.22 6zm18 14c-1.645 0-3 1.355-3 3s1.355 3 3 3 3-1.355 3-3-1.355-3-3-3zm-9 0c-1.645 0-3 1.355-3 3s1.355 3 3 3 3-1.355 3-3-1.355-3-3-3zm4-14l-4 4h3v5h2v-5h3zm-4 16c.563 0 1 .438 1 1 0 .563-.438 1-1 1-.563 0-1-.438-1-1 0-.563.438-1 1-1zm9 0c.563 0 1 .438 1 1 0 .563-.438 1-1 1-.563 0-1-.438-1-1 0-.563.438-1 1-1z"/></svg>