<svg xmlns="http://www.w3.org/2000/svg" viewBox="0 0 40 40"><path d="M24.406 20.77c.645-1.188.95-2.403.907-3.63-.102-2.913-2.118-5.257-3.79-6.714l-.351-.305-2.672 2.672V4.5h8.293l-2.32 2.32.379.352c1.601 1.492 3.507 3.805 3.507 6.328-.004 3.227-2.129 5.723-3.953 7.27z" fill="#98ccfd"/><path d="M25.586 5l-1.832 1.832.758.707c1.25 1.164 3.343 3.492 3.343 5.961 0 2.133-.996 3.934-2.195 5.332a7.013 7.013 0 0 0 .152-1.71c-.109-3.09-2.214-5.552-3.96-7.071l-.704-.614L19 11.587V5h6.586M28 4H18v10l3.195-3.195c2.54 2.207 6.227 6.843.875 12.195 0 0 6.785-3.5 6.785-9.5 0-2.75-2.078-5.215-3.664-6.691z" fill="#4788c7"/><path d="M37.367 11.684l-3.469 12.71a1.497 1.497 0 0 1-1.445 1.106H11.91" fill="none" stroke-linecap="round" stroke="#4788c7" stroke-miterlimit="10"/><path d="M3.5 3a1.5 1.5 0 1 1-3 0 1.5 1.5 0 0 1 3 0z" fill="#dff0fe"/><path d="M2 2c.55 0 1 .45 1 1s-.45 1-1 1-1-.45-1-1 .45-1 1-1m0-1a1.999 1.999 0 1 0 0 4 1.999 1.999 0 1 0 0-4z" fill="#4788c7"/><path d="M32.5 36.5a1.999 1.999 0 1 1-4 0 1.999 1.999 0 1 1 4 0z" fill="#98ccfd"/><path d="M30.5 35a1.5 1.5 0 1 1 0 3 1.5 1.5 0 0 1 0-3m0-1a2.497 2.497 0 0 0-2.5 2.5c0 1.383 1.117 2.5 2.5 2.5s2.5-1.117 2.5-2.5-1.117-2.5-2.5-2.5z" fill="#4788c7"/><path d="M19.5 36.5a1.999 1.999 0 1 1-4 0 1.999 1.999 0 1 1 4 0z" fill="#98ccfd"/><path d="M17.5 35a1.5 1.5 0 1 1 0 3 1.5 1.5 0 0 1 0-3m0-1a2.497 2.497 0 0 0-2.5 2.5c0 1.383 1.117 2.5 2.5 2.5s2.5-1.117 2.5-2.5-1.117-2.5-2.5-2.5z" fill="#4788c7"/><path d="M2 1.5h2.117A4.305 4.305 0 0 1 8.36 5.066l4.5 25.868a4.304 4.304 0 0 0 4.239 3.566H34.5" fill="none" stroke-linecap="round" stroke="#4788c7" stroke-miterlimit="10"/></svg>