<svg xmlns="http://www.w3.org/2000/svg" viewBox="0 0 50 50"><path d="M31 .594L25.281 6.28a1.03 1.03 0 0 0 0 1.438c.39.39 1.047.39 1.438 0L30 4.406V15h2V4.406l3.281 3.313c.196.195.461.281.719.281.258 0 .523-.086.719-.281a1.03 1.03 0 0 0 0-1.438zM32 15v10a1 1 0 1 1-2 0V15H16.281l-2.125-8.594C13.476 4.117 12.32 2 8.656 2H2a1.999 1.999 0 1 0 0 4 2 2 0 0 0 2-2h4.656c2.086 0 2.887.668 3.563 2.938l8 32.28c.426 1.61.906 3.391 2.718 4.25C22.367 44.16 22 45.036 22 46c0 2.207 1.793 4 4 4s4-1.793 4-4c0-.73-.219-1.41-.563-2h6.125A3.968 3.968 0 0 0 35 46c0 2.207 1.793 4 4 4s4-1.793 4-4a3.96 3.96 0 0 0-1.063-2.688A.927.927 0 0 0 42 43c0-.55-.45-1-1-1H25.719c-2.696 0-2.989-1.078-3.563-3.25L21.47 36h18.343c.418 0 .793-.266.938-.656l7.188-19a.988.988 0 0 0-.126-.907A.99.99 0 0 0 47 15zm-6 29a1.999 1.999 0 1 1-2 2c0-1.105.898-2 2-2zm13 0a1.999 1.999 0 1 1 0 4 1.999 1.999 0 1 1 0-4z"/></svg>