<svg xmlns="http://www.w3.org/2000/svg" viewBox="0 0 24 24"><path d="M12 0L9.656 3.219 6 1.594l-.438 3.968L1.595 6 3.22 9.656 0 12l3.219 2.344L1.594 18l3.968.438L6 22.405l3.656-1.625L12 24l2.344-3.219L18 22.406l.438-3.968L22.405 18l-1.625-3.656L24 12l-3.219-2.344L22.406 6l-3.968-.438L18 1.595 14.344 3.22zM6.625 10c.488 0 .86.137 1.156.406.297.27.446.614.438 1.063v.031H7.28c0-.25-.07-.434-.187-.563a.66.66 0 0 0-.5-.218.559.559 0 0 0-.438.187.638.638 0 0 0-.156.438c0 .164.07.3.188.406.117.105.308.25.593.375.485.156.844.324 1.094.563.25.238.375.566.375.968 0 .414-.145.762-.438 1-.292.239-.671.344-1.156.344-.476 0-.879-.117-1.218-.375-.34-.258-.512-.664-.5-1.188l.03-.03h.938c0 .304.059.554.188.687s.312.187.562.187c.211 0 .364-.047.469-.156.105-.11.156-.285.156-.469a.604.604 0 0 0-.156-.437 1.379 1.379 0 0 0-.531-.344c-.516-.176-.895-.371-1.157-.594-.261-.222-.406-.535-.406-.937 0-.399.14-.719.438-.969.297-.25.695-.375 1.156-.375zm3.375.063h1l1.438 4.874h-1.032l-.281-1.062h-1.25l-.281 1.063H8.563zm2.813 0h1v4.124h1.843v.75h-2.844zm3.437 0h2.813v.75h-1.844v1.25h1.531v.718h-1.531v1.406h1.843v.75H16.25zm-5.781 1.53l-.406 1.532h.843l-.406-1.531z"/></svg>