<svg xmlns="http://www.w3.org/2000/svg" viewBox="0 0 26 26"><path d="M9.906.219a.88.88 0 0 0-.469.312L7.75 2.812l-2.844.094a.825.825 0 0 0-.781.688l-.438 2.812L1.22 7.813a.826.826 0 0 0-.375.968l.906 2.688-1.5 2.375a.829.829 0 0 0 .125 1.031l2.031 1.969-.219 2.812a.818.818 0 0 0 .594.844l2.719.813 1.094 2.593a.793.793 0 0 0 .906.469l2.781-.563 2.219 1.813a.78.78 0 0 0 .5.188.78.78 0 0 0 .5-.188l2.219-1.813 2.781.563a.799.799 0 0 0 .906-.469l1.094-2.593 2.719-.813a.815.815 0 0 0 .593-.844l-.218-2.812 2.031-1.969a.828.828 0 0 0 .125-1.031l-1.5-2.375.906-2.688a.826.826 0 0 0-.375-.969l-2.468-1.406-.438-2.812a.829.829 0 0 0-.781-.688l-2.844-.094-1.688-2.28a.809.809 0 0 0-1-.25L13 1.5 10.437.281a.791.791 0 0 0-.53-.062zm4.906 7.468h1.032c.207 0 .375.168.375.375v8.376a.375.375 0 0 1-.375.375h-1.031a.375.375 0 0 1-.376-.375V8.063c0-.208.168-.376.376-.376zm-8.78 1.688c.48 0 .933.14 1.374.406.149.09.215.27.157.438L7.28 11a.38.38 0 0 1-.25.219c-.113.035-.215.035-.312-.031-.246-.168-.453-.25-.688-.25-.437 0-.468.39-.468.5 0 .246.027.382.656.812.648.418 1.531 1.117 1.531 2.313 0 1.402-.96 2.343-2.375 2.343-.586 0-1.184-.183-1.531-.468a.376.376 0 0 1-.125-.407L4 15.25a.38.38 0 0 1 .219-.25.408.408 0 0 1 .343.031c.211.137.532.281.844.281.383 0 .594-.187.594-.562 0-.309-.055-.574-.688-1-.632-.398-1.468-1.078-1.468-2.188 0-1.257.941-2.187 2.187-2.187zm4.718 0c1.031 0 2.25.48 2.25 2.719v2.844c0 .562.027 1.015.063 1.343.019.047.03.102.03.157 0 .21-.183.386-.374.375h-.969c-.156 0-.29-.079-.344-.22a1.856 1.856 0 0 1-1.094.345c-1.117 0-1.906-.942-1.906-2.25 0-1.56 1.063-2.633 2.781-2.782-.03-.883-.316-.969-.656-.969-.32 0-.613.098-.875.282a.418.418 0 0 1-.344.062.407.407 0 0 1-.25-.25l-.218-.75c-.051-.152.023-.312.156-.406.352-.254 1.023-.5 1.75-.5zm9.281 0c1.371 0 2.25 1.297 2.25 3.281 0 .27-.02.453-.031.625a.375.375 0 0 1-.375.344h-2.656c.097 1.707.855 1.688 1.156 1.688.438 0 .73-.094.906-.188.102-.055.239-.078.344-.031a.432.432 0 0 1 .219.281l.156.75c.04.168-.035.36-.188.438-.425.222-1.039.343-1.625.343-1.738 0-2.78-1.379-2.78-3.687 0-2.297 1.062-3.844 2.624-3.844zm.032 1.406c-.372.067-.696.692-.813 1.406h1.656c-.066-.804-.343-1.16-.468-1.28-.125-.118-.25-.15-.375-.126zm-8.844 2.625c-1.063.14-1.063.895-1.063 1.156 0 .493.172.813.438.813.426 0 .554-.48.594-.688.023-.105.03-.246.03-.343z"/></svg>