<svg xmlns="http://www.w3.org/2000/svg" viewBox="0 0 16 16"><path d="M8.012 1.02a.496.496 0 0 0-.336.128L6.465 2.242l-1.598-.344a.499.499 0 0 0-.578.336l-.5 1.555-1.555.5a.496.496 0 0 0-.332.578L1.93 5h1.36l1.05-.336a.515.515 0 0 0 .324-.324l.438-1.367 1.406.3a.488.488 0 0 0 .437-.117l1.063-.96 1.066.96a.516.516 0 0 0 .442.117l1.402-.3.441 1.367a.5.5 0 0 0 .32.324L12.73 5h1.364l.027-.133a.501.501 0 0 0-.34-.578l-1.55-.5-.5-1.555a.501.501 0 0 0-.583-.336l-1.593.344-1.211-1.094a.487.487 0 0 0-.332-.128zM1.5 6c-.277 0-.5.223-.5.5v1c0 .188.105.363.273.445L3 8.81V9H1v1h2.5c.277 0 .5-.223.5-.5v-1a.496.496 0 0 0-.273-.445L2 7.19V7h2V6zm4 0c-.277 0-.5.223-.5.5V10h1V9h1v1h1V7.5a.497.497 0 0 0-.148-.352l-1-1A.497.497 0 0 0 6.5 6zM9 6v3.5c0 .277.223.5.5.5H11V9h-1V6zm3.5 0c-.277 0-.5.223-.5.5v3c0 .277.223.5.5.5H15V9h-2v-.152l1.676-.63A.503.503 0 0 0 15 7.75V6.5c0-.277-.223-.5-.5-.5zM6 7h.293L7 7.707V8H6zm7 0h1v.402l-1 .375zM1.934 11l-.032.152c-.054.25.09.5.332.578l1.555.5.5 1.551a.507.507 0 0 0 .578.34l1.598-.344 1.207 1.094a.51.51 0 0 0 .336.129.496.496 0 0 0 .336-.129l1.21-1.094 1.598.344c.254.047.5-.094.578-.34l.5-1.55 1.551-.5a.501.501 0 0 0 .34-.579L14.09 11h-1.297l-1.11.36a.492.492 0 0 0-.324.32l-.437 1.367-1.406-.3a.494.494 0 0 0-.438.112l-1.07.97-1.063-.966a.49.49 0 0 0-.437-.117l-1.406.3-.438-1.362a.506.506 0 0 0-.324-.325L3.227 11z"/></svg>