<svg xmlns="http://www.w3.org/2000/svg" viewBox="0 0 80 80"><path d="M40 5.008a5.509 5.509 0 0 0-3.906 1.61l-2.282 2.28-2.984-1.234c-2.805-1.164-6.05.184-7.21 2.988l-1.235 2.985h-3.227a5.532 5.532 0 0 0-5.52 5.52v3.226l-2.984 1.234c-2.808 1.164-4.148 4.406-2.988 7.211l1.234 2.985-2.28 2.28a5.535 5.535 0 0 0 0 7.81l2.28 2.285-1.234 2.98c-1.164 2.805.18 6.05 2.988 7.21l2.985 1.235v3.23c0 3.04 2.48 5.52 5.52 5.52h3.226l1.234 2.985c1.16 2.804 4.406 4.148 7.211 2.988l2.985-1.238 2.28 2.285a5.538 5.538 0 0 0 7.81 0l2.285-2.285 2.98 1.238c2.805 1.16 6.05-.184 7.21-2.988l1.235-2.985h3.23c3.04 0 5.52-2.48 5.52-5.52v-3.23l2.985-1.234c2.804-1.16 4.148-4.406 2.988-7.211l-1.238-2.98 2.285-2.286c2.148-2.148 2.148-5.66 0-7.808l-2.285-2.282 1.238-2.984c1.16-2.805-.184-6.05-2.988-7.21l-2.985-1.235v-3.227c0-3.039-2.48-5.52-5.52-5.52h-3.23l-1.234-2.984c-1.16-2.808-4.406-4.148-7.211-2.988l-2.98 1.234-2.286-2.28A5.5 5.5 0 0 0 40 5.007zm0 1.984a3.51 3.51 0 0 1 2.488 1.04l3.23 3.226 4.216-1.746a3.501 3.501 0 0 1 4.597 1.906l1.75 4.219h4.563a3.503 3.503 0 0 1 3.52 3.52v4.562l4.218 1.75a3.5 3.5 0 0 1 1.906 4.597l-1.746 4.215 3.227 3.23a3.504 3.504 0 0 1 0 4.977l-3.227 3.23 1.746 4.216a3.501 3.501 0 0 1-1.906 4.597l-4.219 1.75v4.563a3.503 3.503 0 0 1-3.52 3.52h-4.562l-1.75 4.218a3.5 3.5 0 0 1-4.597 1.906l-4.215-1.746-3.23 3.227a3.504 3.504 0 0 1-4.977 0l-3.23-3.227-4.22 1.746a3.497 3.497 0 0 1-4.593-1.906l-1.75-4.219h-4.563a3.503 3.503 0 0 1-3.52-3.52v-4.562l-4.218-1.75a3.5 3.5 0 0 1-1.906-4.597l1.746-4.215-3.227-3.23a3.504 3.504 0 0 1 0-4.977l3.227-3.23-1.746-4.22a3.497 3.497 0 0 1 1.906-4.593l4.219-1.75v-4.563a3.503 3.503 0 0 1 3.52-3.52h4.562l1.75-4.218a3.5 3.5 0 0 1 4.593-1.906l4.22 1.746 3.23-3.227A3.503 3.503 0 0 1 40 6.992zM40 9c-.55 0-1 .45-1 1s.45 1 1 1 1-.45 1-1-.45-1-1-1zm-11.473 2.281a1.002 1.002 0 0 0-.934 1.387c.216.508.798.75 1.31.539a.994.994 0 0 0 .538-1.305 1 1 0 0 0-.914-.62zm22.977 0a.999.999 0 0 0-.945.621.994.994 0 0 0 .539 1.305 1.004 1.004 0 0 0 1.308-.539 1.002 1.002 0 0 0-.902-1.387zM40 14c-.55 0-1 .45-1 1s.45 1 1 1 1-.45 1-1-.45-1-1-1zm-4.875.48a1.003 1.003 0 0 0-.984 1.195 1 1 0 0 0 1.175.786c.543-.11.895-.633.79-1.176a1.007 1.007 0 0 0-.981-.805zm9.777 0a1.004 1.004 0 0 0-1.007.805 1.003 1.003 0 0 0 .789 1.176 1 1 0 1 0 .218-1.98zm-14.46 1.422a.97.97 0 0 0-.391.078.992.992 0 0 0-.54 1.305.997.997 0 0 0 1.305.543c.512-.215.754-.797.543-1.308a1.006 1.006 0 0 0-.918-.618zm19.148 0a1.005 1.005 0 0 0-.95.618c-.21.511.032 1.093.544 1.308a.997.997 0 0 0 1.304-.543.992.992 0 0 0-.539-1.305.959.959 0 0 0-.36-.078zM18.8 17.785c-.269 0-.53.106-.722.293a1.012 1.012 0 0 0 0 1.418c.39.387 1.027.387 1.418 0a1.012 1.012 0 0 0 0-1.418 1.013 1.013 0 0 0-.695-.293zm42.427 0c-.27 0-.532.106-.723.293a1.012 1.012 0 0 0 0 1.418c.39.387 1.027.387 1.418 0a1.012 1.012 0 0 0 0-1.418 1.013 1.013 0 0 0-.695-.293zm-7.32.426a.987.987 0 0 0-.848.445.999.999 0 1 0 1.66 1.11 1 1 0 0 0-.813-1.555zm-27.782.004a.998.998 0 0 0-.844 1.55.999.999 0 1 0 .844-1.55zm-3.79 3.11a.984.984 0 0 0-.722.288 1.004 1.004 0 0 0 .707 1.711c.266 0 .52-.105.711-.293a1.012 1.012 0 0 0 0-1.418.992.992 0 0 0-.695-.289zm35.356 0a1.016 1.016 0 0 0-.722.288 1.012 1.012 0 0 0 0 1.418c.39.387 1.027.387 1.418 0a1.012 1.012 0 0 0 0-1.418.992.992 0 0 0-.696-.289zm3.106 3.784a.974.974 0 0 0-.567.168 1.004 1.004 0 0 0-.277 1.387 1.003 1.003 0 0 0 1.668-1.113 1.01 1.01 0 0 0-.824-.442zm-41.563 0a1.008 1.008 0 0 0-.851.446 1 1 0 0 0 .273 1.386 1.003 1.003 0 0 0 1.39-.273 1.003 1.003 0 0 0-.812-1.559zm-6.93 2.407a.999.999 0 0 0-.945.62 1 1 0 1 0 .945-.621zm55.419 0a1.003 1.003 0 0 0-.93 1.387 1 1 0 1 0 .93-1.387zm-4.618 1.918a.999.999 0 0 0-.934 1.379c.216.511.798.753 1.31.542a.997.997 0 0 0 .539-1.308.99.99 0 0 0-.915-.613zm-46.18 0a1.005 1.005 0 0 0-.945.613c-.21.512.032 1.098.54 1.308a1.002 1.002 0 0 0 1.308-.543.999.999 0 0 0-.902-1.378zm7.071 5.207c-2.523 0-4.195 1.359-4.195 3.406 0 1.68.96 2.695 3.012 3.156l1.457.336c1.445.336 2.062.813 2.062 1.625 0 .945-.96 1.625-2.285 1.625-1.434 0-2.434-.648-2.559-1.656H19.52c.101 2.047 1.812 3.344 4.402 3.344 2.734 0 4.426-1.368 4.426-3.563 0-1.719-.961-2.672-3.25-3.187L23.8 39.43c-1.399-.32-1.969-.766-1.969-1.524 0-.96.86-1.586 2.156-1.586 1.235 0 2.11.625 2.25 1.617h1.934c-.098-1.937-1.809-3.296-4.176-3.296zm18.793.28v11.274h7.188V44.43h-5.172v-9.508zm9.758 0v11.274h7.297v-1.742h-5.282v-3.156h4.997v-1.64h-4.996v-2.993h5.28v-1.742zm-18.367 0l-4 11.274h2.039l.968-2.883h4.149l.953 2.883h2.164l-4.008-11.273zm1.023 2.15h.133l1.527 4.648h-3.207zM10 39c-.55 0-1 .45-1 1s.45 1 1 1 1-.45 1-1-.45-1-1-1zm60 0c-.55 0-1 .45-1 1s.45 1 1 1 1-.45 1-1-.45-1-1-1zm-53.09 9.566c-.133 0-.265.024-.39.075-.508.214-.75.797-.54 1.308a.994.994 0 0 0 1.305.54.997.997 0 0 0-.375-1.923zm46.211 0a.997.997 0 0 0-.406 1.922 1 1 0 1 0 .406-1.922zM12.293 50.48a.97.97 0 0 0-.39.079.997.997 0 0 0-.544 1.304c.215.512.797.754 1.309.543a.998.998 0 0 0 .539-1.308.996.996 0 0 0-.914-.618zm55.445 0a.995.995 0 0 0-.945.618 1.004 1.004 0 0 0 .539 1.308 1.006 1.006 0 0 0 1.309-.547.999.999 0 0 0-.903-1.379zm-6.93 2.407a.995.995 0 0 0-1 1.195 1.001 1.001 0 0 0 1.813.36 1.004 1.004 0 0 0-.812-1.555zm-41.585.004a.995.995 0 0 0-.84 1.55 1 1 0 1 0 1.664-1.11.995.995 0 0 0-.824-.44zm3.113 3.785c-.27 0-.531.105-.723.293a1.012 1.012 0 0 0 0 1.418c.39.386 1.028.386 1.418 0a1.012 1.012 0 0 0 0-1.418 1.013 1.013 0 0 0-.695-.293zm35.355 0c-.27 0-.53.105-.722.293a1.012 1.012 0 0 0 0 1.418c.39.386 1.027.386 1.418 0a1.012 1.012 0 0 0 0-1.418 1.013 1.013 0 0 0-.696-.293zm-31.562 3.11a.987.987 0 0 0-.848.444.977.977 0 0 0-.148.75c.05.262.203.489.426.637a.977.977 0 0 0 .75.149 1 1 0 0 0-.18-1.98zm27.773 0a1 1 0 0 0-.844 1.555 1 1 0 0 0 1.813-.36.996.996 0 0 0-.152-.75.985.985 0 0 0-.817-.446zm-35.101.429a.984.984 0 0 0-.723.289c-.39.39-.39 1.027 0 1.418.39.387 1.024.387 1.414 0 .39-.39.39-1.027 0-1.418a.992.992 0 0 0-.691-.29zm42.426 0a1.016 1.016 0 0 0-.723.289 1.012 1.012 0 0 0 0 1.418c.39.387 1.027.387 1.418 0a1.012 1.012 0 0 0 0-1.418.992.992 0 0 0-.695-.29zm-30.774 1.879a.997.997 0 0 0-.941.62.994.994 0 0 0 .539 1.306 1.004 1.004 0 0 0 1.308-.54 1.002 1.002 0 0 0-.906-1.386zm19.125 0a1.002 1.002 0 0 0-.934 1.387 1 1 0 1 0 1.848-.766 1.004 1.004 0 0 0-.914-.621zM35.152 63.52a1.008 1.008 0 0 0-1.011.804.996.996 0 0 0 .152.75.998.998 0 1 0 1.664-1.11.997.997 0 0 0-.805-.444zm9.73 0a.989.989 0 0 0-.836.445.996.996 0 0 0 1.028 1.535.994.994 0 0 0 .785-1.172 1.003 1.003 0 0 0-.976-.808zM40 64c-.55 0-1 .45-1 1s.45 1 1 1 1-.45 1-1-.45-1-1-1zm11.488 2.715a.999.999 0 0 0-.93 1.383c.212.507.797.75 1.305.543a1 1 0 0 0-.375-1.926zm-22.945.004a1.001 1.001 0 0 0-.95.613 1.006 1.006 0 0 0 .547 1.309.999.999 0 1 0 .403-1.922zM40 69c-.55 0-1 .45-1 1s.45 1 1 1 1-.45 1-1-.45-1-1-1z"/></svg>