<svg xmlns="http://www.w3.org/2000/svg" viewBox="0 0 40 40"><path d="M2.5 2.5h35v35h-35z" fill="#98ccfd"/><path d="M37 3v34H3V3h34m1-1H2v36h36z" fill="#4788c7"/><path d="M6 6h28v19H6z" fill="#fff"/><path d="M25 31a3 3 0 0 0 3 3c.352 0-.352 0 0 0a3 3 0 0 0 3-3zm-7.5 1h-11a.498.498 0 0 1-.5-.5c0-.277.223-.5.5-.5h11a.499.499 0 1 1 0 1z" fill="#4788c7"/><path d="M33.5 32h-11a.498.498 0 0 1-.5-.5c0-.277.223-.5.5-.5h11a.499.499 0 1 1 0 1z" fill="#4788c7"/><path d="M21 9h10v3H21zm0 5h10v3H21zm0 5h10v3H21zM9 9h10v3H9zm0 5h10v3H9zm0 5h10v3H9z" fill="#b6dcfe"/></svg>