<svg xmlns="http://www.w3.org/2000/svg" viewBox="0 0 40 40"><path d="M2.5 11h35v27.5h-35z" fill="#fff"/><path d="M37 11.5V38H3V11.5h34m1-1H2V39h36z" fill="#4788c7"/><path d="M21.5 21.5h11v17h-11z" fill="#b6dcfe"/><path d="M32 22v16H22V22h10m1-1H21v18h12z" fill="#4788c7"/><path d="M7.5 21.5h9v8h-9z" fill="#b6dcfe"/><path d="M16 22v7H8v-7h8m1-1H7v9h10z" fill="#4788c7"/><path d="M36 18.5c-1.93 0-3.5-1.57-3.5-3.5a.499.499 0 1 0-1 0c0 1.93-1.57 3.5-3.5 3.5s-3.5-1.57-3.5-3.5a.499.499 0 1 0-1 0c0 1.93-1.57 3.5-3.5 3.5s-3.5-1.57-3.5-3.5a.499.499 0 1 0-1 0c0 1.93-1.57 3.5-3.5 3.5S8.5 16.93 8.5 15a.499.499 0 1 0-1 0 3.504 3.504 0 0 1-3.844 3.484C1.886 18.312.5 16.711.5 14.828v-3.703l2.941-5.46a.5.5 0 0 0 .059-.24V3A1.5 1.5 0 0 1 5 1.5h30A1.5 1.5 0 0 1 36.5 3v2.426a.5.5 0 0 0 .059.238l2.941 5.461v3.703c0 1.883-1.387 3.485-3.156 3.656A3.3 3.3 0 0 1 36 18.5z" fill="#b6dcfe"/><path d="M35 2c.55 0 1 .45 1 1v2.426c0 .168.04.328.117.476L39 11.254v3.574c0 1.625-1.188 3.012-2.703 3.156A3.006 3.006 0 0 1 33 15c0-.55-.45-1-1-1s-1 .45-1 1c0 1.652-1.348 3-3 3s-3-1.348-3-3c0-.55-.45-1-1-1s-1 .45-1 1c0 1.652-1.348 3-3 3s-3-1.348-3-3c0-.55-.45-1-1-1s-1 .45-1 1c0 1.652-1.348 3-3 3s-3-1.348-3-3c0-.55-.45-1-1-1s-1 .45-1 1a3.006 3.006 0 0 1-3.297 2.984C2.188 17.84 1 16.454 1 14.828v-3.574l2.883-5.352A1 1 0 0 0 4 5.426V3c0-.55.45-1 1-1h30m0-1H5a2 2 0 0 0-2 2v2.426L0 11v3.828c0 2.09 1.527 3.953 3.605 4.152A3.998 3.998 0 0 0 8 15c0 2.21 1.79 4 4 4s4-1.79 4-4c0 2.21 1.79 4 4 4s4-1.79 4-4c0 2.21 1.79 4 4 4s4-1.79 4-4a3.998 3.998 0 0 0 4.395 3.98C38.473 18.781 40 16.918 40 14.828V11l-3-5.574V3a2 2 0 0 0-2-2z" fill="#4788c7"/><path d="M3 5h34v1H3z" fill="#4788c7"/><path d="M1.137 11h37.726l-2.691-5H3.828z" fill="#dff0fe"/><path d="M0 11h40v1H0zm30.5 19c0 .55-.45 1-1 1s-1-.45-1-1 .45-1 1-1 1 .45 1 1z" fill="#4788c7"/></svg>