<svg xmlns="http://www.w3.org/2000/svg" viewBox="0 0 64 64"><linearGradient id="a" gradientUnits="userSpaceOnUse" x1="32" y1="9.5" x2="32" y2="55.288" spreadMethod="reflect"><stop offset="0" stop-color="#1a6dff"/><stop offset="1" stop-color="#c822ff"/></linearGradient><path d="M55 21h-7c0-1.654-1.346-3-3-3h-1v-3c0-2.757-2.243-5-5-5H25c-2.757 0-5 2.243-5 5v3h-1c-1.654 0-3 1.346-3 3H9c-1.654 0-3 1.346-3 3v4c0 1.654 1.346 3 3 3 1 0 1.061.349 1.144.828l3.006 16.369A6.988 6.988 0 0 0 20.049 54h23.902c3.413 0 6.394-2.44 6.979-5.803l2.926-16.369C53.939 31.349 54 31 55 31c1.654 0 3-1.346 3-3v-4c0-1.654-1.346-3-3-3zm-9 0h-6a1 1 0 0 1 1-1h4a1 1 0 0 1 1 1zm-24-6c0-1.654 1.346-3 3-3h14c1.654 0 3 1.346 3 3v3h-1c-1.654 0-3 1.346-3 3H26c0-1.654-1.346-3-3-3h-1v-3zm-3 5h4a1 1 0 0 1 1 1h-6a1 1 0 0 1 1-1zm32.886 11.486L48.88 47.855A4.993 4.993 0 0 1 43.951 52h-4.333l-.449-.898A1.985 1.985 0 0 0 37.385 50h-10.77c-.76 0-1.443.422-1.785 1.103l-.448.897h-4.333c-2.438 0-4.59-1.743-5.008-4.145l-2.926-16.369A4.31 4.31 0 0 0 12 31h40.002a3.917 3.917 0 0 0-.116.486zM56 28a1 1 0 0 1-1 1H9a1 1 0 0 1-1-1v-4a1 1 0 0 1 1-1h46a1 1 0 0 1 1 1v4z" fill="url(#a)"/><linearGradient id="b" gradientUnits="userSpaceOnUse" x1="14" y1="9.5" x2="14" y2="55.288" spreadMethod="reflect"><stop offset="0" stop-color="#1a6dff"/><stop offset="1" stop-color="#c822ff"/></linearGradient><rect x="13" y="24" width="2" height="4" fill="url(#b)"/><linearGradient id="c" gradientUnits="userSpaceOnUse" x1="20" y1="9.5" x2="20" y2="55.288" spreadMethod="reflect"><stop offset="0" stop-color="#1a6dff"/><stop offset="1" stop-color="#c822ff"/></linearGradient><rect x="19" y="24" width="2" height="4" fill="url(#c)"/><linearGradient id="d" gradientUnits="userSpaceOnUse" x1="26" y1="9.5" x2="26" y2="55.288" spreadMethod="reflect"><stop offset="0" stop-color="#1a6dff"/><stop offset="1" stop-color="#c822ff"/></linearGradient><rect x="25" y="24" width="2" height="4" fill="url(#d)"/><linearGradient id="e" gradientUnits="userSpaceOnUse" x1="32" y1="9.5" x2="32" y2="55.288" spreadMethod="reflect"><stop offset="0" stop-color="#1a6dff"/><stop offset="1" stop-color="#c822ff"/></linearGradient><rect x="31" y="24" width="2" height="4" fill="url(#e)"/><linearGradient id="f" gradientUnits="userSpaceOnUse" x1="38" y1="9.5" x2="38" y2="55.288" spreadMethod="reflect"><stop offset="0" stop-color="#1a6dff"/><stop offset="1" stop-color="#c822ff"/></linearGradient><rect x="37" y="24" width="2" height="4" fill="url(#f)"/><linearGradient id="g" gradientUnits="userSpaceOnUse" x1="44" y1="9.5" x2="44" y2="55.288" spreadMethod="reflect"><stop offset="0" stop-color="#1a6dff"/><stop offset="1" stop-color="#c822ff"/></linearGradient><rect x="43" y="24" width="2" height="4" fill="url(#g)"/><linearGradient id="h" gradientUnits="userSpaceOnUse" x1="50" y1="9.5" x2="50" y2="55.288" spreadMethod="reflect"><stop offset="0" stop-color="#1a6dff"/><stop offset="1" stop-color="#c822ff"/></linearGradient><rect x="49" y="24" width="2" height="4" fill="url(#h)"/><linearGradient id="i" gradientUnits="userSpaceOnUse" x1="40.91" y1="35.833" x2="40.91" y2="48.181" spreadMethod="reflect"><stop offset="0" stop-color="#6dc7ff"/><stop offset="1" stop-color="#e6abff"/></linearGradient><path d="M38 37v10a1 1 0 0 0 1 1h2.153a.999.999 0 0 0 .986-.836l1.667-10A1 1 0 0 0 42.82 36H39a1 1 0 0 0-1 1z" fill="url(#i)"/><linearGradient id="j" gradientUnits="userSpaceOnUse" x1="23.09" y1="35.833" x2="23.09" y2="48.181" spreadMethod="reflect"><stop offset="0" stop-color="#6dc7ff"/><stop offset="1" stop-color="#e6abff"/></linearGradient><path d="M26 37v10a1 1 0 0 1-1 1h-2.153a.999.999 0 0 1-.986-.836l-1.667-10A1 1 0 0 1 21.18 36H25a1 1 0 0 1 1 1z" fill="url(#j)"/><linearGradient id="k" gradientUnits="userSpaceOnUse" x1="32" y1="35.833" x2="32" y2="48.181" spreadMethod="reflect"><stop offset="0" stop-color="#6dc7ff"/><stop offset="1" stop-color="#e6abff"/></linearGradient><path d="M33 48h-2a1 1 0 0 1-1-1V37a1 1 0 0 1 1-1h2a1 1 0 0 1 1 1v10a1 1 0 0 1-1 1z" fill="url(#k)"/></svg>