<svg xmlns="http://www.w3.org/2000/svg" viewBox="0 0 40 40"><path d="M33.4 15.6l-12-12c-.8-.8-2-.8-2.8 0-.8.8-.8 2 0 2.8l12 12c.4.4.9.6 1.4.6s1-.2 1.4-.6c.8-.8.8-2 0-2.8z" fill="#89b5f2"/><path d="M33.4 15.6l-12-12c-.8-.8-2-.8-2.8 0-.8.8-.8 2 0 2.8l12 12c.4.4.9.6 1.4.6s1-.2 1.4-.6c.8-.8.8-2 0-2.8z" fill="none" stroke="#4c78b7" stroke-linejoin="round" stroke-miterlimit="10"/><path d="M21.4 3.6c-.8-.8-2-.8-2.8 0l-12 12c-.8.8-.8 2 0 2.8.4.4.9.6 1.4.6s1-.2 1.4-.6l12-12c.8-.8.8-2 0-2.8z" fill="#b3ddf6"/><path d="M21.4 3.6c-.8-.8-2-.8-2.8 0l-12 12c-.8.8-.8 2 0 2.8.4.4.9.6 1.4.6s1-.2 1.4-.6l12-12c.8-.8.8-2 0-2.8z" fill="none" stroke="#7395c6" stroke-linejoin="round" stroke-miterlimit="10"/><path d="M31.39 37H8.61c-.85 0-1.53-.595-1.7-1.36L4 21h32l-2.995 14.64c-.17.765-.85 1.36-1.615 1.36z" fill="#fb8e8d"/><path d="M31.39 37H8.61c-.85 0-1.53-.595-1.7-1.36L4 21h32l-2.995 14.64c-.17.765-.85 1.36-1.615 1.36z" fill="none" stroke="#cb413f" stroke-linejoin="round" stroke-miterlimit="10"/><path d="M36.286 22H3.714C2.771 22 2 21.1 2 20v-2c0-1.1.771-2 1.714-2h32.571c.944 0 1.715.9 1.715 2v2c0 1.1-.771 2-1.714 2z" fill="#faa7a7"/><path d="M36.286 22H3.714C2.771 22 2 21.1 2 20v-2c0-1.1.771-2 1.714-2h32.571c.944 0 1.715.9 1.715 2v2c0 1.1-.771 2-1.714 2z" fill="none" stroke="#cb413f" stroke-linejoin="round" stroke-miterlimit="10"/><line x1="15.5" y1="24.5" x2="15.5" y2="33.5" fill="none" stroke="#cb413f" stroke-linecap="round" stroke-linejoin="round" stroke-miterlimit="10"/><line x1="18.5" y1="24.5" x2="18.5" y2="33.5" fill="none" stroke="#cb413f" stroke-linecap="round" stroke-linejoin="round" stroke-miterlimit="10"/><line x1="21.5" y1="24.5" x2="21.5" y2="33.5" fill="none" stroke="#cb413f" stroke-linecap="round" stroke-linejoin="round" stroke-miterlimit="10"/><line x1="24.5" y1="24.5" x2="24.5" y2="33.5" fill="none" stroke="#cb413f" stroke-linecap="round" stroke-linejoin="round" stroke-miterlimit="10"/></svg>