<svg xmlns="http://www.w3.org/2000/svg" viewBox="0 0 24 24"><path d="M.906 2.969C.863 2.977.82 2.989.781 3A.994.994 0 0 0 0 3.703c-.105.367.004.758.281 1.016l7 7c.399.398 1.04.398 1.438 0a1.014 1.014 0 0 0 0-1.438l-7-7a1.004 1.004 0 0 0-.813-.312zM22.875 3a1.008 1.008 0 0 0-.594.281l-7 7a1.014 1.014 0 0 0 0 1.438c.399.398 1.04.398 1.438 0l7-7a.996.996 0 0 0 .215-1.172A.996.996 0 0 0 22.875 3zM0 10v4h1l2 10h18l2-10h1v-4h-4.188l-2.406 2.406c-.39.39-.894.594-1.406.594a1.984 1.984 0 0 1-1.406-.594A1.981 1.981 0 0 1 14.28 10H9.72a1.98 1.98 0 0 1-.313 2.406c-.39.39-.894.594-1.406.594a1.984 1.984 0 0 1-1.406-.594L4.187 10zm7 4h2v8H7zm4 0h2v8h-2zm4 0h2v8h-2z"/></svg>