<svg xmlns="http://www.w3.org/2000/svg" viewBox="0 0 16 16"><path d="M8 1.023a6.01 6.01 0 0 0-6 6C2 9.093 3.05 10.922 4.648 12H4v1H3v1h10v-1h-1v-1h-.645c.004-.004.012-.008.016-.016A5.99 5.99 0 0 0 14 7.024c0-3.305-2.691-6-6-6zm0 1c2.766 0 5 2.235 5 5 0 1.16-.406 2.215-1.066 3.063A1.506 1.506 0 0 0 10.5 9c-.164 0-.27.105-.41.156C9.793 8.512 9.25 8 8.5 8c-.172 0-.34.031-.5.074V5.95L7 4.7V4a.504.504 0 0 0-.145-.363A.504.504 0 0 0 6 4v.7L5 5.95V9c-.516 0-.973.25-1.266.633A4.967 4.967 0 0 1 3 7.023c0-2.765 2.234-5 5-5zM8 3v1h1V3zm2 1v1h1V4zM6.5 5.676L7 6.3v5.605a5.317 5.317 0 0 1-1-.312V6.3zM9 6v1h1V6zm2 1v1h1V7zM8.5 9c.46 0 .82.344.86.797l.824.332A.478.478 0 0 1 10.5 10c.281 0 .5.219.5.5 0 .223-.035.402-.129.563-.023.035-.074.07-.105.109A4.964 4.964 0 0 1 8.512 12H8V9.16A.84.84 0 0 1 8.5 9zM5 10v1.023a4.858 4.858 0 0 1-.578-.52A.576.576 0 0 1 5 10z"/></svg>