<svg xmlns="http://www.w3.org/2000/svg" viewBox="0 0 50 50"><path d="M25 2C13.453 2 4 11.453 4 23c0 5.75 2.273 10.914 6.031 14.719A.972.972 0 0 0 10 38v3H6.906A.996.996 0 0 0 6 42v4c0 .55.45 1 1 1h36c.55 0 1-.45 1-1v-4c0-.55-.45-1-1-1h-3v-3.094a1.044 1.044 0 0 0-.031-.187C43.727 33.914 46 28.75 46 23c0-11.547-9.453-21-21-21zm0 2c0 .55.45 1 1 1 .516 0 .918-.402.969-.906 2.61.27 5.058 1.086 7.25 2.312A.971.971 0 0 0 34 7c0 .55.45 1 1 1 .39 0 .71-.238.875-.563.684.481 1.324 1.032 1.938 1.594A.996.996 0 0 0 37 10c0 .55.45 1 1 1a.996.996 0 0 0 .969-.813c.562.614 1.113 1.254 1.593 1.938-.324.164-.562.484-.562.875 0 .55.45 1 1 1a.97.97 0 0 0 .594-.219c.265.473.492.969.718 1.469A1.017 1.017 0 0 0 42 16c0 .55.45 1 1 1 .438 1.297.762 2.629.906 4.031-.504.051-.906.453-.906.969 0 .55.45 1 1 1 0 4.824-1.762 9.148-4.719 12.5a5.01 5.01 0 0 0-4-2.438C34.59 31.875 33.434 31 32 31c-.363 0-.707.133-1.063.219C30.052 29.957 28.695 29 27 29c-.344 0-.676.031-1 .094v-12.5l-.281-.313L21 11.563V9a.998.998 0 0 0-.367-.797A.997.997 0 0 0 19.78 8 1.002 1.002 0 0 0 19 9v2.625L14.375 16.5l-.281.313v.375L14.03 33H14a3.986 3.986 0 0 0-3.563 2.188C7.649 31.883 6 27.672 6 23 6 12.547 14.547 4 25 4zm4 2c-.55 0-1 .45-1 1s.45 1 1 1 1-.45 1-1-.45-1-1-1zm3 3c-.55 0-1 .45-1 1s.45 1 1 1 1-.45 1-1-.45-1-1-1zm-3 3c-.55 0-1 .45-1 1s.45 1 1 1 1-.45 1-1-.45-1-1-1zm6 0c-.55 0-1 .45-1 1s.45 1 1 1 1-.45 1-1-.45-1-1-1zm-15 1.438l4 4V37h-8l.094-19.406zM32 15c-.55 0-1 .45-1 1s.45 1 1 1 1-.45 1-1-.45-1-1-1zm6 0c-.55 0-1 .45-1 1s.45 1 1 1 1-.45 1-1-.45-1-1-1zm-3 3c-.55 0-1 .45-1 1s.45 1 1 1 1-.45 1-1-.45-1-1-1zm6 0c-.55 0-1 .45-1 1s.45 1 1 1 1-.45 1-1-.45-1-1-1zm-23 1v2h4v-2zm14 2c-.55 0-1 .45-1 1s.45 1 1 1 1-.45 1-1-.45-1-1-1zm6 0c-.55 0-1 .45-1 1s.45 1 1 1 1-.45 1-1-.45-1-1-1zm-20 2v2h4v-2zm17 1c-.55 0-1 .45-1 1s.45 1 1 1 1-.45 1-1-.45-1-1-1zm6 0c-.55 0-1 .45-1 1s.45 1 1 1 1-.45 1-1-.45-1-1-1zm-23 3v2h4v-2zm20 0c-.55 0-1 .45-1 1s.45 1 1 1 1-.45 1-1-.45-1-1-1zm-20 4v2h4v-2zm9 0c1.184 0 2.254.777 2.688 1.719l.437.937.938-.468c.222-.11.57-.188.937-.188.89 0 1.574.508 1.844 1.313l.25.687H35c1.3 0 2.395.844 2.813 2H26v-5.781c.34-.114.672-.219 1-.219zm-13 4v2h-1.813c-.066-.059-.12-.125-.187-.188.082-1.085.875-1.812 2-1.812zm-2 4h26v2H12zm-4 4h34v2H8z"/></svg>