<svg xmlns="http://www.w3.org/2000/svg" viewBox="0 0 64 64"><linearGradient id="a" gradientUnits="userSpaceOnUse" x1="18" y1="49.667" x2="18" y2="56.564" spreadMethod="reflect"><stop offset="0" stop-color="#6dc7ff"/><stop offset="1" stop-color="#e6abff"/></linearGradient><rect x="11" y="50" width="14" height="6" fill="url(#a)"/><linearGradient id="b" gradientUnits="userSpaceOnUse" x1="39.5" y1="44.417" x2="39.5" y2="48.083" spreadMethod="reflect"><stop offset="0" stop-color="#6dc7ff"/><stop offset="1" stop-color="#e6abff"/></linearGradient><rect x="38" y="45" width="3" height="2" fill="url(#b)"/><linearGradient id="c" gradientUnits="userSpaceOnUse" x1="39.5" y1="40.667" x2="39.5" y2="43" spreadMethod="reflect"><stop offset="0" stop-color="#6dc7ff"/><stop offset="1" stop-color="#e6abff"/></linearGradient><rect x="38" y="41" width="3" height="2" fill="url(#c)"/><linearGradient id="d" gradientUnits="userSpaceOnUse" x1="39.5" y1="32.083" x2="39.5" y2="35.758" spreadMethod="reflect"><stop offset="0" stop-color="#6dc7ff"/><stop offset="1" stop-color="#e6abff"/></linearGradient><rect x="38" y="33" width="3" height="2" fill="url(#d)"/><linearGradient id="e" gradientUnits="userSpaceOnUse" x1="39.5" y1="28.333" x2="39.5" y2="32.001" spreadMethod="reflect"><stop offset="0" stop-color="#6dc7ff"/><stop offset="1" stop-color="#e6abff"/></linearGradient><rect x="38" y="29" width="3" height="2" fill="url(#e)"/><linearGradient id="f" gradientUnits="userSpaceOnUse" x1="39.5" y1="20.583" x2="39.5" y2="23.918" spreadMethod="reflect"><stop offset="0" stop-color="#6dc7ff"/><stop offset="1" stop-color="#e6abff"/></linearGradient><rect x="38" y="21" width="3" height="2" fill="url(#f)"/><linearGradient id="g" gradientUnits="userSpaceOnUse" x1="39.5" y1="16.75" x2="39.5" y2="19.834" spreadMethod="reflect"><stop offset="0" stop-color="#6dc7ff"/><stop offset="1" stop-color="#e6abff"/></linearGradient><rect x="38" y="17" width="3" height="2" fill="url(#g)"/><linearGradient id="h" gradientUnits="userSpaceOnUse" x1="18" y1="5" x2="18" y2="59.332" spreadMethod="reflect"><stop offset="0" stop-color="#1a6dff"/><stop offset="1" stop-color="#c822ff"/></linearGradient><path d="M22.403 8.548C21.518 6.952 19.871 6 18 6s-3.518.952-4.403 2.548l-4.235 7.624A2.84 2.84 0 0 0 9 17.558V54.98A3.024 3.024 0 0 0 12.021 58H23.98A3.024 3.024 0 0 0 27 54.979V17.558a2.85 2.85 0 0 0-.36-1.384l-4.237-7.626zM16 40V19.876c.667.078 1.333.121 2 .121s1.333-.042 2-.121V40h-4zm-4.57-23.435l1.887-3.396c1.556.542 3.119.829 4.683.829s3.127-.287 4.683-.829l1.886 3.396c-4.41 1.927-8.728 1.927-13.139 0zM14 19.522V40h-3V18.547c.998.413 1.999.739 3 .975zM11 46h14v2H11v-2zm0-2v-2h14v2H11zm11-4V19.522a19.73 19.73 0 0 0 3-.974V40h-3zM15.345 9.519C15.873 8.567 16.865 8 18 8s2.127.567 2.655 1.519l1.044 1.879c-2.481.798-4.918.798-7.398 0l1.044-1.879zM23.979 56H12.021A1.022 1.022 0 0 1 11 54.979V50h14v4.979c0 .563-.458 1.021-1.021 1.021z" fill="url(#h)"/><linearGradient id="i" gradientUnits="userSpaceOnUse" x1="46" y1="5" x2="46" y2="59.332" spreadMethod="reflect"><stop offset="0" stop-color="#1a6dff"/><stop offset="1" stop-color="#c822ff"/></linearGradient><path d="M52 6H40c-1.654 0-3 1.346-3 3v46c0 1.654 1.346 3 3 3h12c1.654 0 3-1.346 3-3V9c0-1.654-1.346-3-3-3zm1 49a1 1 0 0 1-1 1H40a1 1 0 0 1-1-1v-4h6v-2h-6V39h6v-2h-6V27h6v-2h-6V15h6v-2h-6V9a1 1 0 0 1 1-1h12a1 1 0 0 1 1 1v46z" fill="url(#i)"/></svg>