<svg xmlns="http://www.w3.org/2000/svg" viewBox="0 0 80 80"><path d="M23 9.305l-10 13.68V54c0 .387.223.691.418 1-.195.309-.418.613-.418 1v5c0 1.258.895 2.14 2 2.582v.586C15 67.378 17.621 70 20.832 70h4.336C28.375 70 31 67.379 31 64.168v-.586c1.105-.441 2-1.324 2-2.582v-5c0-.387-.223-.691-.418-1 .195-.309.418-.613.418-1V22.984zM46 10c-1.645 0-3 1.355-3 3v7.832a.904.904 0 0 0 0 .324v5.676a.904.904 0 0 0 0 .324v5.676a.904.904 0 0 0 0 .324v5.676a.904.904 0 0 0 0 .324v5.676a.904.904 0 0 0 0 .324v5.676a.904.904 0 0 0 0 .324v5.676a.904.904 0 0 0 0 .324v5.676a.904.904 0 0 0 0 .324V67c0 1.645 1.355 3 3 3h18c1.645 0 3-1.355 3-3V13c0-1.645-1.355-3-3-3zm0 2h18c.563 0 1 .438 1 1v54c0 .566-.434 1-1 1H46c-.566 0-1-.434-1-1v-3h2c.36.004.695-.184.879-.496a1.01 1.01 0 0 0 0-1.008c-.184-.312-.52-.5-.879-.496h-2v-4h2c.36.004.695-.184.879-.496a1.01 1.01 0 0 0 0-1.008c-.184-.312-.52-.5-.879-.496h-2v-4h2c.36.004.695-.184.879-.496a1.01 1.01 0 0 0 0-1.008c-.184-.312-.52-.5-.879-.496h-2v-4h2c.36.004.695-.184.879-.496a1.01 1.01 0 0 0 0-1.008c-.184-.312-.52-.5-.879-.496h-2v-4h2c.36.004.695-.184.879-.496a1.01 1.01 0 0 0 0-1.008c-.184-.312-.52-.5-.879-.496h-2v-4h2c.36.004.695-.184.879-.496a1.01 1.01 0 0 0 0-1.008c-.184-.312-.52-.5-.879-.496h-2v-4h2c.36.004.695-.184.879-.496a1.01 1.01 0 0 0 0-1.008c-.184-.312-.52-.5-.879-.496h-2v-4h2c.36.004.695-.184.879-.496a1.01 1.01 0 0 0 0-1.008c-.184-.312-.52-.5-.879-.496h-2v-7c0-.566.434-1 1-1zm9 3c-1.645 0-3 1.355-3 3s1.355 3 3 3 3-1.355 3-3-1.355-3-3-3zm-34.418 1h4.836l5.52 7.547C30.233 24.043 28.727 25 27.5 25c-1.656 0-3.836-1.75-3.836-1.75L23 22.66l-.664.59S20.156 25 18.5 25c-1.227 0-2.734-.957-3.438-1.453zM55 17c.563 0 1 .438 1 1 0 .563-.438 1-1 1-.563 0-1-.438-1-1 0-.563.438-1 1-1zm-32 8.238c.55.457 1.582 1.235 3.016 1.582A1.002 1.002 0 0 0 27 28c.55 0 1-.45 1-1v-.047c1.148-.105 2.195-.531 3-1V54c-.55 0-1 .45-1 1s.45 1 1 1v5c0 .566-.434 1-1 1h-1c-.55 0-1 .45-1 1s.45 1 1 1v.168A3.816 3.816 0 0 1 25.168 68h-4.336A3.816 3.816 0 0 1 17 64.168V64c.55 0 1-.45 1-1s-.45-1-1-1h-1c-.566 0-1-.434-1-1v-5c.55 0 1-.45 1-1s-.45-1-1-1V25.953c.805.469 1.852.895 3 1V27c0 .55.45 1 1 1a1.002 1.002 0 0 0 .984-1.18c1.434-.347 2.465-1.125 3.016-1.582zM51 26c-.55 0-1 .45-1 1s.45 1 1 1 1-.45 1-1-.45-1-1-1zm4 0c-.55 0-1 .45-1 1s.45 1 1 1 1-.45 1-1-.45-1-1-1zm-36 4c-.55 0-1 .45-1 1s.45 1 1 1 1-.45 1-1-.45-1-1-1zm8 0c-.55 0-1 .45-1 1s.45 1 1 1 1-.45 1-1-.45-1-1-1zm-8 4c-.55 0-1 .45-1 1s.45 1 1 1 1-.45 1-1-.45-1-1-1zm8 0c-.55 0-1 .45-1 1s.45 1 1 1 1-.45 1-1-.45-1-1-1zm-8 4c-.55 0-1 .45-1 1s.45 1 1 1 1-.45 1-1-.45-1-1-1zm8 0c-.55 0-1 .45-1 1s.45 1 1 1 1-.45 1-1-.45-1-1-1zm24 0c-.55 0-1 .45-1 1s.45 1 1 1 1-.45 1-1-.45-1-1-1zm4 0c-.55 0-1 .45-1 1s.45 1 1 1 1-.45 1-1-.45-1-1-1zm-36 4c-.55 0-1 .45-1 1s.45 1 1 1 1-.45 1-1-.45-1-1-1zm8 0c-.55 0-1 .45-1 1s.45 1 1 1 1-.45 1-1-.45-1-1-1zm-8 4c-.55 0-1 .45-1 1s.45 1 1 1 1-.45 1-1-.45-1-1-1zm8 0c-.55 0-1 .45-1 1s.45 1 1 1 1-.45 1-1-.45-1-1-1zm-8 4c-.55 0-1 .45-1 1s.45 1 1 1 1-.45 1-1-.45-1-1-1zm8 0c-.55 0-1 .45-1 1s.45 1 1 1 1-.45 1-1-.45-1-1-1zm24 0c-.55 0-1 .45-1 1s.45 1 1 1 1-.45 1-1-.45-1-1-1zm4 0c-.55 0-1 .45-1 1s.45 1 1 1 1-.45 1-1-.45-1-1-1zm-36 4c-.55 0-1 .45-1 1s.45 1 1 1 1-.45 1-1-.45-1-1-1zm4 0c-.55 0-1 .45-1 1s.45 1 1 1 1-.45 1-1-.45-1-1-1zm4 0c-.55 0-1 .45-1 1s.45 1 1 1 1-.45 1-1-.45-1-1-1zm-6 8c-.55 0-1 .45-1 1s.45 1 1 1 1-.45 1-1-.45-1-1-1zm4 0c-.55 0-1 .45-1 1s.45 1 1 1 1-.45 1-1-.45-1-1-1zm26 0c-.55 0-1 .45-1 1s.45 1 1 1 1-.45 1-1-.45-1-1-1zm4 0c-.55 0-1 .45-1 1s.45 1 1 1 1-.45 1-1-.45-1-1-1z"/></svg>