<svg xmlns="http://www.w3.org/2000/svg" viewBox="0 0 26 26"><path d="M5.813 0a.997.997 0 0 0-.625.406L2.28 4.281a1.302 1.302 0 0 0-.062.094l-.031.031a.466.466 0 0 0-.032.063l-.031.031v.031a.466.466 0 0 0-.031.063l-.031.031v.063l-.032.03v.063L2 4.813V5c-.004.05-.004.105 0 .156V9c0 .086.012.168.031.25L2.97 13l-.938 3.75c-.02.082-.031.164-.031.25v8c0 .55.45 1 1 1h4a.668.668 0 0 0 .125 0l7.844-.969.187.032 3.594.906c.082.02.164.031.25.031h4c.55 0 1-.45 1-1v-6a.967.967 0 0 0-.063-.313l-1.187-3.53 1.219-4.907c.02-.082.031-.164.031-.25V5.125A.668.668 0 0 0 24 5v-.094a1.025 1.025 0 0 0-.188-.468v-.032l-3-4A.998.998 0 0 0 20 0H5.813zM6.5 2h6.438l-1 2H5zm7.563 0H19.5L21 4h-7.938zM4 6h18v3.875l-1.219 4.906a1.04 1.04 0 0 0-.093.375l-.657 2.594a1 1 0 0 0 1.782.844l.187.531V24h-2.875l-3.563-.875a1.056 1.056 0 0 0-.187-.063h-.063l-.062-.03a.88.88 0 0 0-.094-.032h-.094l-2.75-.938a.998.998 0 0 0-.5-.062 1 1 0 0 0-.687 1.469L7 24H4v-6.875l.969-3.875a.986.986 0 0 0 0-.5L4 8.875zm6.813 2c-.551.05-.958.543-.907 1.094.051.55.543.957 1.094.906h5c.36.004.695-.184.879-.496a1.01 1.01 0 0 0 0-1.008c-.184-.312-.52-.5-.879-.496h-5.188z"/></svg>