<svg xmlns="http://www.w3.org/2000/svg" viewBox="0 0 48 48"><path d="M3 12v24c0 2.21 1.79 4 4 4h33c1 0 1-.996 1-.996V12z" fill="#f57c00"/><path d="M40 8H7a4 4 0 0 0 0 8h33c1 0 1 1 1 1V9a1 1 0 0 0-1-1z" fill="#942a09"/><path d="M7 12v4h33c1 0 1 1.004 1 1.004V38h2V12z" fill="#4caf50"/><path d="M7 14v2h28.684a7.065 7.065 0 0 1-.602-2z" fill="#c8e6c9"/><path d="M45 23h-9c-2.21 0-4 1.79-4 4s1.79 4 4 4h9z" fill="#bf360c"/><path d="M38 27a1.999 1.999 0 1 1-4 0 1.999 1.999 0 1 1 4 0z" fill="#ffecb3"/></svg>