<svg xmlns="http://www.w3.org/2000/svg" viewBox="0 0 48 48"><path d="M43 24c0-.7.398-1.3.898-1.7C43.102 12.103 34.5 4 24 4c-5 0-9.5 1.8-13 4.8V9c0 1.102-.898 2-2 2h-.2C5.8 14.5 4 19 4 24c0 8.2 4.898 15.2 12 18.3.3-.198.7-.3 1-.3.898 0 1.602.5 1.898 1.3 1.602.4 3.403.7 5.102.7 10.5 0 19.102-8.102 19.898-18.3-.5-.4-.898-1-.898-1.7z" fill="#bbdefb"/><path d="M22.102 33.102c-.602-.903-.602-2.204-.204-3.102-.5 0-1.097.2-1.5.5-1.398.898-1.898 2.898-.796 4.3.898 1.4 2.898 1.9 4.296.802.5-.301.801-.801 1.102-1.204-1.102.102-2.3-.398-2.898-1.296zM13.5 27.3c-.3-.8-.2-1.698.3-2.3-.3 0-.8 0-1.198.2-1.204.5-1.801 1.8-1.403 2.902.5 1.199 1.801 1.796 2.903 1.398.5-.2.796-.5.898-.8-.602 0-1.2-.598-1.5-1.4zm6-11.3c.3-1.3 1.3-2.102 2.5-2.3-.398-.302-.602-.5-1.102-.598-1.597-.403-3.398.597-3.796 2.296-.403 1.704.597 3.403 2.296 3.801.403.102.903.102 1.301 0-1.097-.8-1.597-2.097-1.199-3.199z" fill="#1e88e5"/><path d="M43 24c0-.7.398-1.3.898-1.7C43.102 12.103 34.5 4 24 4c0 0 3.7 2.102 6.602 7H31c1.7 0 3 1.3 3 3 0 .898-.398 1.7-1.102 2.3.204.598.301 1.098.5 1.7.903.2 1.602 1 1.602 2 0 .8-.398 1.398-1.102 1.8.102.7.102 1.4.102 2.2 0 5.5-1.5 9.8-3.3 12.898.198.301.3.704.3 1.102 0 1.102-.898 2-2 2-.2 0-.3 0-.5-.102C26.2 42.7 24 44 24 44c10.5 0 19.102-8.102 19.898-18.3-.5-.4-.898-1-.898-1.7zm-5.5 9c-.398 0-.7-.102-1-.2.898-.402 1.5-1.3 1.5-2.3 0-1-.602-1.898-1.5-2.3.3-.098.602-.2 1-.2 1.398 0 2.5 1.102 2.5 2.5S38.898 33 37.5 33z" fill="#1e88e5"/></svg>