<svg xmlns="http://www.w3.org/2000/svg" viewBox="0 0 40 40"><path d="M6 13.5v-1h-.5c-2.207 0-4-1.793-4-4s1.793-4 4-4h27v9z" fill="#b6dcfe"/><path d="M32 5v8H6.5v-1h-1C3.57 12 2 10.43 2 8.5S3.57 5 5.5 5H32m1-1H5.5a4.501 4.501 0 0 0 0 9v1H33z" fill="#4788c7"/><path d="M5.5 8h30v23.5h-30z" fill="#98ccfd"/><path d="M35 8v23H6V8h29m1-1H5v25h31z" fill="#4788c7"/><path d="M6 28V10h11c4.965 0 9 4.04 9 9s-4.035 9-9 9z" fill="#fff"/><path d="M6 35.5c-2.48 0-4.5-2.02-4.5-4.5V9h.031A4.008 4.008 0 0 0 5.5 12.5h27v23z" fill="#dff0fe"/><path d="M2 11.324A4.487 4.487 0 0 0 5.5 13H32v22H6c-2.207 0-4-1.793-4-4V11.324M2 8.5H1V31a5 5 0 0 0 5 5h27V12H5.5A3.5 3.5 0 0 1 2 8.5z" fill="#4788c7"/><path d="M25.5 20.5h13v7h-13z" fill="#dff0fe"/><path d="M38 21v6H26v-6h12m1-1H25v8h14z" fill="#4788c7"/><path d="M31 24c0 .55-.45 1-1 1s-1-.45-1-1 .45-1 1-1 1 .45 1 1z" fill="#4788c7"/></svg>