<svg xmlns="http://www.w3.org/2000/svg" viewBox="0 0 32 32"><path d="M16 19c-1.652 0-3-1.348-3-3s1.348-3 3-3 3 1.348 3 3-1.348 3-3 3zm0-4c-.55 0-1 .45-1 1s.45 1 1 1 1-.45 1-1-.45-1-1-1zM7.516 25.898l-.707-.707c-5.07-5.066-5.07-13.316 0-18.382l.707-.707 4.949 4.949-.707.707A5.963 5.963 0 0 0 10 16a5.96 5.96 0 0 0 1.758 4.242l.707.707zm.03-16.937c-3.39 4.062-3.39 10.016 0 14.078l2.134-2.133A7.936 7.936 0 0 1 8 16c0-1.8.59-3.508 1.68-4.906zm16.938 16.937l-4.949-4.949.707-.707a6.005 6.005 0 0 0 0-8.484l-.707-.707 4.95-4.95.706.708c5.07 5.066 5.07 13.316 0 18.382zm-2.164-4.992l2.133 2.133c3.39-4.062 3.39-10.016 0-14.078l-2.133 2.133a8.02 8.02 0 0 1 0 9.812z"/></svg>