<svg xmlns="http://www.w3.org/2000/svg" viewBox="0 0 64 64"><linearGradient id="a" gradientUnits="userSpaceOnUse" x1="31.999" y1="15" x2="31.999" y2="49" spreadMethod="reflect"><stop offset="0" stop-color="#1a6dff"/><stop offset="1" stop-color="#c822ff"/></linearGradient><path d="M56.732 49h-40.81c-1.528 0-2.844-.749-3.532-2.008L3.697 34.248a3.964 3.964 0 0 1 0-4.496l8.758-12.84C13.42 15.677 14.669 15 15.922 15h40.811C59.086 15 61 16.933 61 19.308v25.385C61 47.067 59.086 49 56.732 49zm-40.81-32c-.625 0-1.317.408-1.854 1.092L5.35 30.879a1.976 1.976 0 0 0 0 2.242l8.781 12.886c.332.631.984.993 1.791.993h40.811C57.982 47 59 45.965 59 44.692V19.308C59 18.035 57.982 17 56.732 17h-40.81z" fill="url(#a)"/><linearGradient id="b" gradientUnits="userSpaceOnUse" x1="32.108" y1="19" x2="32.108" y2="45" spreadMethod="reflect"><stop offset="0" stop-color="#1a6dff"/><stop offset="1" stop-color="#c822ff"/></linearGradient><path d="M56 45H16.394a1 1 0 0 1-.826-.437l-8.178-12a1.001 1.001 0 0 1 0-1.126l8.183-12a.998.998 0 0 1 .825-.437H56a1 1 0 0 1 1 1v24a1 1 0 0 1-1 1zm-39.078-2H55V21H16.927L9.426 32l7.496 11z" fill="url(#b)"/><linearGradient id="c" gradientUnits="userSpaceOnUse" x1="34" y1="29" x2="34" y2="35" spreadMethod="reflect"><stop offset="0" stop-color="#6dc7ff"/><stop offset="1" stop-color="#e6abff"/></linearGradient><circle cx="34" cy="32" r="3" fill="url(#c)"/></svg>