<svg xmlns="http://www.w3.org/2000/svg" viewBox="0 0 48 48"><path d="M38 10v1h-4v-1h-4v2h-4v-2h-4v1h-8v1h-4v-2H6v32h36V10z" fill="#795548"/><path d="M14 42h-4V12h4zm8-32h-4v32h4zm8 2h-4v30h4zm8-1h-4v31h4z" fill="#a1887f"/><path d="M6 10l2-4 2 4-2 2zm34 2l2-2-2-4-2 4zm-28 2l2-2-2-4-2 4zm8-2l2-2-2-4-2 4zm8 2l2-2-2-4-2 4zm8-1l2-2-2-4-2 4zm-20 0l2-2-2-4-2 4zm8-1l2-2-2-4-2 4zm8 0l2-2-2-4-2 4z" fill="#ffe0b2"/><path d="M10 20H6v-2h4zm8-2h-4v2h4zm8 0h-4v2h4zm8 0h-4v2h4zm8 0h-4v2h4zM10 33H6v2h4zm8 0h-4v2h4zm8 0h-4v2h4zm8 0h-4v2h4zm8 0h-4v2h4z" fill="#3e2723"/><path d="M14 20h-4v-2h4zm8-2h-4v2h4zm8 0h-4v2h4zm8 0h-4v2h4zM14 33h-4v2h4zm8 0h-4v2h4zm8 0h-4v2h4zm8 0h-4v2h4z" fill="#6d4c41"/></svg>