<svg xmlns="http://www.w3.org/2000/svg" viewBox="0 0 40 40"><polygon points="1.5,38.5 1.5,7.1 3.508,2.25 9.047,14.299 10.468,10.51 14.543,3.09 20,14.362 25.457,3.09 29.562,10.574 30.953,14.299 36.492,2.25 38.5,7.1 38.5,38.5" fill="#b08159"/><path d="M36.468 3.499L38 7.199V38H2V7.199l1.532-3.7 4.559 9.919 1.002 2.18.843-2.247.975-2.599 3.605-6.572 4.584 9.47.9 1.859.9-1.859 4.584-9.47 3.605 6.572.975 2.599.843 2.247 1.002-2.18 4.559-9.919M36.516 1L31 13l-1-2.666L25.429 2 20 13.214 14.571 2 10 10.334 9 13 3.484 1 1 7v32h38V7l-2.484-6z" fill="#704e34"/><rect x="1" y="15" width="38" height="1" fill="#704e34"/><rect x="1" y="30" width="38" height="1" fill="#704e34"/><polygon points="23,38 17,38 17,7 20,1 23,7" fill="#d6aa70"/><polygon points="23,9.157 23,7 20,1 17,7 17,9.465 20,3.236" fill="#b08159"/><rect x="17" y="15" width="6" height="1" fill="#b08159"/><rect x="17" y="30" width="6" height="1" fill="#b08159"/><polygon points="12,38 6,38 6,9 9,3 12,9" fill="#d6aa70"/><polygon points="12,11.157 12,9 9,3 6,9 6,11.465 9,5.236" fill="#b08159"/><rect x="6" y="15" width="6" height="1" fill="#b08159"/><rect x="6" y="30" width="6" height="1" fill="#b08159"/><polygon points="34,38 28,38 28,9 31,3 34,9" fill="#d6aa70"/><polygon points="34,11.157 34,9 31,3 28,9 28,11.465 31,5.236" fill="#b08159"/><rect x="28" y="15" width="6" height="1" fill="#b08159"/><rect x="28" y="30" width="6" height="1" fill="#b08159"/></svg>