<svg xmlns="http://www.w3.org/2000/svg" viewBox="0 0 64 64"><path d="M5 5h54v54H5z" fill="#c5e4fa"/><path d="M59 20.11v13l-26 26H20zm0-8.91v5.21L16.219 59.191H11l.191-.191zM5 58.84h1.86L58.98 6.719l-.449-2.79L5 57.45z" fill="#e3f2ff"/><path d="M51.379 26.941a1 1 0 0 0 .812-.425.999.999 0 0 0 .13-.907c-4.11-11.78-15.583-16-24.52-15a1.007 1.007 0 1 0 .23 2c8.149-.93 18.649 2.95 22.399 13.692.152.39.53.644.949.64zM24.93 13.21a1 1 0 0 0-.559-1.92A20.179 20.179 0 0 0 20 13.18 21.788 21.788 0 0 0 9.54 29.41a1.006 1.006 0 0 0 .858 1.13h.141a.997.997 0 0 0 1-.868A19.813 19.813 0 0 1 21 14.91a18.25 18.25 0 0 1 3.93-1.7zM15 46.578a27.364 27.364 0 0 1-3.7-13.219 1 1 0 1 0-2 0 30.078 30.078 0 0 0 11.59 22.942 1 1 0 0 0 1.352-.219.997.997 0 0 0-.133-1.363A27.633 27.633 0 0 1 15 46.579zm7 2.492a.997.997 0 0 0-1.363 0 .994.994 0 0 0-.098 1.36c.402.433.813.847 1.242 1.242a1 1 0 0 0 1.414-.059 1 1 0 0 0-.054-1.414c-.407-.351-.79-.73-1.141-1.129zm6.61 6.032a12.006 12.006 0 0 1-2.731-2.454 1.006 1.006 0 0 0-1.395-.253c-.453.316-.57.94-.254 1.394a14.05 14.05 0 0 0 3.27 3 1 1 0 1 0 1.102-1.668zM30.672 8c1.004.043 2.004.145 3 .309h.156a1 1 0 0 0 1.082-.918 1.006 1.006 0 0 0-.922-1.082A27.197 27.197 0 0 0 30.75 6a1.002 1.002 0 0 0-.078 2z" fill="#8d6c9f"/><path d="M7 25.21a1 1 0 0 0 1.238-.679 22.895 22.895 0 0 1 10.41-13.61 21.633 21.633 0 0 1 8.793-2.82c.266-.027.508-.156.68-.363.168-.207.246-.472.219-.738a.994.994 0 0 0-1.09-.898 23.693 23.693 0 0 0-9.59 3.07A24.872 24.872 0 0 0 6.34 24 1.001 1.001 0 0 0 7 25.21zm39.54.72a1 1 0 0 0-.54 1.3c.258.653.469 1.32.64 2a.995.995 0 0 0 1 .758c.079.012.16.012.239 0a.975.975 0 0 0 .621-.449c.14-.227.184-.5.121-.758a18.152 18.152 0 0 0-.723-2.293.998.998 0 0 0-1.359-.558zm-23.22-7.02c7.27-4.082 16.461-1.812 21 5.18a1 1 0 0 0 1.383.297c.465-.301.598-.922.297-1.387-5.129-7.89-15.504-10.434-23.7-5.809-7.929 4.579-11 14.278-7.562 24.137a27.093 27.093 0 0 0 3.274 6 .994.994 0 0 0 .914.473.996.996 0 0 0 .722-1.61 25.776 25.776 0 0 1-3-5.543c-3.57-10.289.782-18.34 6.672-21.738zM49.559 45a18.227 18.227 0 0 1-15.368-8.36 1.002 1.002 0 0 0-1.68 1.09 20.224 20.224 0 0 0 17 9.282 1 1 0 1 0 0-2z" fill="#8d6c9f"/><path d="M31.898 31.55a.998.998 0 1 0-1.848.738c.216.751.47 1.485.77 2.2a1.002 1.002 0 1 0 1.852-.77 18.115 18.115 0 0 1-.703-2 .697.697 0 0 0-.07-.167zM55 39.41l-2 .211a1 1 0 1 0 .102 2h.109l2-.21c.55-.06.953-.556.894-1.106A1.007 1.007 0 0 0 55 39.41z" fill="#8d6c9f"/><path d="M33.68 30.66c.082.168.148.34.199.52 1.52 5.32 5.71 9.101 11.5 10.379a17.43 17.43 0 0 0 4.2.382 1 1 0 1 0 0-2 15.865 15.865 0 0 1-3.72-.332 12.791 12.791 0 0 1-10-9c-.086-.3-.199-.59-.34-.87A4.928 4.928 0 0 0 30.552 27a5.065 5.065 0 0 0-3.742 2.262 5.003 5.003 0 0 0-.598 4.187 26.479 26.479 0 0 0 6.41 11 1 1 0 1 0 1.438-1.39 24.486 24.486 0 0 1-5.938-10.18 2.993 2.993 0 0 1 .36-2.52A3.093 3.093 0 0 1 30.78 29a2.925 2.925 0 0 1 2.899 1.66zM48.512 50a21.268 21.268 0 0 1-12.082-4.762 1 1 0 1 0-1.238 1.57A23.241 23.241 0 0 0 48.397 52h.063a.997.997 0 0 0 1.023-.977.999.999 0 0 0-.972-1.023zm-1.59 3.852a24.03 24.03 0 0 1-2.473-.422 1.022 1.022 0 1 0-.437 2 25.92 25.92 0 0 0 2.68.449h.109a1 1 0 1 0 .11-2z" fill="#8d6c9f"/><path d="M43.05 34.2a8.113 8.113 0 0 1-3.402-4.66A9.173 9.173 0 0 0 39 28a9.007 9.007 0 0 0-9-4.941 9.114 9.114 0 0 0-6.629 4 8.886 8.886 0 0 0-1.09 7.492A30.421 30.421 0 0 0 38.18 53.398a1.001 1.001 0 1 0 .86-1.808A28.423 28.423 0 0 1 24.29 34a6.91 6.91 0 0 1 .85-5.82A7.128 7.128 0 0 1 30.329 25a6.997 6.997 0 0 1 7.41 5.07 10.073 10.073 0 0 0 4.223 5.782 1 1 0 0 0 1.098-1.672zm13.778 2.01a.998.998 0 0 0-.363-.675 1.018 1.018 0 0 0-.735-.215l-5 .52c-1.367.168-2.75.117-4.101-.149a1.021 1.021 0 0 0-1.215.786c-.117.55.234 1.093.785 1.214.934.2 1.887.293 2.84.29.637 0 1.27-.036 1.902-.102l5-.52a.994.994 0 0 0 .887-1.148z" fill="#8d6c9f"/><path d="M49.078 33.941c.5-.004.996-.027 1.492-.082l3.54-.37a.999.999 0 0 0 .894-1.102 1.008 1.008 0 0 0-1.106-.899l-3.539.383a8.991 8.991 0 0 1-2.82-.082c-2.21-.488-3.527-1.578-4-3.34a13.004 13.004 0 0 0-13.867-9.39 13.263 13.263 0 0 0-6.844 2.851 1.002 1.002 0 0 0 1.262 1.55A11.217 11.217 0 0 1 29.87 21a10.999 10.999 0 0 1 11 6c.297.64.535 1.313.707 2 .703 2.46 2.613 4.102 5.524 4.738a9.08 9.08 0 0 0 1.976.203zM40.828 56.7A28.358 28.358 0 0 1 20.95 37.62c-1.43-4.292-1.11-8.62.84-11.62a1.002 1.002 0 1 0-.762-1.61 1.009 1.009 0 0 0-.906.52c-2.293 3.5-2.691 8.5-1.07 13.36a30.267 30.267 0 0 0 21.23 20.359.998.998 0 0 0 1.29-1.203.988.988 0 0 0-.743-.715zm6.442-43.598c.304 0 .59-.137.78-.372l1.259-1.55a.998.998 0 0 0-1.547-1.258L46.5 11.469a1.002 1.002 0 0 0 .781 1.633zm8.261 5.476A1.002 1.002 0 0 0 54.238 18l-1.867.71A1.001 1.001 0 0 0 51.79 20a.996.996 0 0 0 1.29.578l1.92-.707c.496-.215.73-.789.531-1.293zM42.86 10.55a.995.995 0 0 0 1.32-.5L45 8.22a1.003 1.003 0 0 0-1.828-.82l-.82 1.831a.983.983 0 0 0-.02.766c.094.246.285.445.527.555zm6.831 5.552a.993.993 0 0 0 .653.398.998.998 0 0 0 .746-.18l1.62-1.172a.99.99 0 0 0 .442-.921.997.997 0 0 0-1.613-.696L49.922 14.7a.999.999 0 0 0-.23 1.403zM38.61 9.281h.16c.496.004.921-.351 1-.84l.32-2a1.01 1.01 0 0 0-.84-1.16c-.55-.09-1.07.285-1.16.84l-.32 2c-.047.266.02.54.175.758.16.215.399.363.664.402zM5 12c.55 0 1-.45 1-1V6h5c.55 0 1-.45 1-1s-.45-1-1-1H5c-.55 0-1 .45-1 1v6c0 .55.45 1 1 1zm54-8h-6c-.55 0-1 .45-1 1s.45 1 1 1h5v5c0 .55.45 1 1 1s1-.45 1-1V5c0-.55-.45-1-1-1zM11 58H6v-5c0-.55-.45-1-1-1s-1 .45-1 1v6c0 .55.45 1 1 1h6c.55 0 1-.45 1-1s-.45-1-1-1zm48-6c-.55 0-1 .45-1 1v5h-5c-.55 0-1 .45-1 1s.45 1 1 1h6c.55 0 1-.45 1-1v-6c0-.55-.45-1-1-1z" fill="#8d6c9f"/></svg>