<svg xmlns="http://www.w3.org/2000/svg" viewBox="0 0 48 48"><path d="M6 10c0-2.21 1.79-4 4-4h28c2.21 0 4 1.79 4 4v28a4 4 0 0 1-4 4H10a4 4 0 0 1-4-4z" fill="#ff3d00"/><path d="M28.95 19.05l4.241-4.241A12.944 12.944 0 0 1 37 24c0 3.59-1.453 6.84-3.809 9.191L28.95 28.95A6.963 6.963 0 0 0 31 24a6.963 6.963 0 0 0-2.05-4.95zM17 24c0-1.934.781-3.684 2.05-4.95l-4.24-4.24A12.944 12.944 0 0 0 11 24c0 3.59 1.453 6.84 3.809 9.191l4.242-4.242A6.963 6.963 0 0 1 17 24zm10 0a3 3 0 1 0-6.002.002A3 3 0 0 0 27 24z" fill="#fff"/></svg>