<svg xmlns="http://www.w3.org/2000/svg" viewBox="0 0 64 64"><path d="M17.805 14a4.993 4.993 0 0 0-3.746 1.691L1.418 30.016a3.009 3.009 0 0 0 0 3.968l12.64 14.325A4.994 4.994 0 0 0 17.806 50H59c2.758 0 5-2.242 5-5V19c0-2.758-2.242-5-5-5zm0 2H59c1.652 0 3 1.348 3 3v26c0 1.652-1.348 3-3 3H17.805a2.99 2.99 0 0 1-2.246-1.016L2.918 32.66a1 1 0 0 1 0-1.32l12.64-14.324A2.994 2.994 0 0 1 17.806 16zM57 18a1 1 0 1 0 0 2h2a1 1 0 1 0 0-2zm0 5a1 1 0 1 0 0 2h2a1 1 0 1 0 0-2zm0 5a1 1 0 1 0 0 2h2a1 1 0 1 0 0-2zm-38 2a1.999 1.999 0 1 0 0 4 1.999 1.999 0 1 0 0-4zm9 0a1.999 1.999 0 1 0 0 4 1.999 1.999 0 1 0 0-4zm9 0a1.999 1.999 0 1 0 0 4 1.999 1.999 0 1 0 0-4zm9 0a1.999 1.999 0 1 0 0 4 1.999 1.999 0 1 0 0-4zm11 4a1 1 0 1 0 0 2h2a1 1 0 1 0 0-2zm0 5a1 1 0 1 0 0 2h2a1 1 0 1 0 0-2zm0 5a1 1 0 1 0 0 2h2a1 1 0 1 0 0-2z"/></svg>