<svg xmlns="http://www.w3.org/2000/svg" viewBox="0 0 50 50"><path d="M11 11c-1.043 0-1.832.602-2.375 1.281a.466.466 0 0 0-.031.063L.188 24.438a1 1 0 0 0 0 1.125l8.343 12 .063.093C9.098 38.531 10.059 39 11 39h36c1.645 0 3-1.355 3-3V14c0-1.645-1.355-3-3-3zm0 2h36c.555 0 1 .445 1 1v22c0 .555-.445 1-1 1H11c-.414 0-.598-.102-.719-.344a1.243 1.243 0 0 0-.062-.125L2.219 25l7.969-11.469c.257-.32.656-.531.812-.531zm3 9c-1.645 0-3 1.355-3 3s1.355 3 3 3 3-1.355 3-3-1.355-3-3-3zm8 0c-1.645 0-3 1.355-3 3s1.355 3 3 3 3-1.355 3-3-1.355-3-3-3zm8 0c-1.645 0-3 1.355-3 3s1.355 3 3 3 3-1.355 3-3-1.355-3-3-3zm8 0c-1.645 0-3 1.355-3 3s1.355 3 3 3 3-1.355 3-3-1.355-3-3-3zm-24 2c.563 0 1 .438 1 1 0 .563-.438 1-1 1-.563 0-1-.438-1-1 0-.563.438-1 1-1zm8 0c.563 0 1 .438 1 1 0 .563-.438 1-1 1-.563 0-1-.438-1-1 0-.563.438-1 1-1zm8 0c.563 0 1 .438 1 1 0 .563-.438 1-1 1-.563 0-1-.438-1-1 0-.563.438-1 1-1zm8 0c.563 0 1 .438 1 1 0 .563-.438 1-1 1-.563 0-1-.438-1-1 0-.563.438-1 1-1z"/></svg>