<svg xmlns="http://www.w3.org/2000/svg" viewBox="0 0 26 26"><path d="M1 2c-.6 0-1 .4-1 1v1c0 .6.4 1 1 1h2c.6 0 1-.4 1-1V3c0-.6-.4-1-1-1H1zm6 0c-.6 0-1 .4-1 1v1c0 .48.26.83.67.95.08-.85.54-1.42 1.39-1.77.82-.32 1.46-.16 1.94.16V3c0-.6-.4-1-1-1H7zm6 0c-.6 0-1 .4-1 1v1c0 .6.4 1 1 1h2c.6 0 1-.4 1-1V3c0-.6-.4-1-1-1h-2zm8 0c-.6 0-1 .4-1 1v1c0 .6.4 1 1 1h4c.6 0 1-.4 1-1V3c0-.6-.4-1-1-1h-4zM8.93 4c-.16 0-.32.04-.5.11-.45.18-.71.42-.77.89-.02.16-.02.34 0 .55.06.48.24 1.12.56 2 .24.67.56 1.47.98 2.43.07.18.14.37.23.56.93 2.23 1.86 4.76 2.35 5.96.15.35.27.65.38.92.41.98.63 1.53.86 2.54 0 .01.01.03.01.04.12.73-1.11 1.26-2.5 1.26h-.26c-.85-.04-1.56-.21-2.18-.21-.66 0-1.2.19-1.62.7-.57.77-.72 2.16.34 2.24.11.01.35 0 .49-.03.35-.06.84-.03 1.24-.03 1.53 0 3.26.48 4.78 1.07H24.1l1.9-.78V17.5c-.19-.63-.44-1.34-.77-2.14-.05-.13-.1-.25-.16-.37-.56-1.31-1.175-2.155-1.695-2.865-1.01-1.37-2.376-1.126-2.516-1.016-.536.421-.61.89-1.064.91-.36.017-.895-1.019-1.615-1.019-.14 0-.28.02-.43.08-1.01.42-.705 1.52-1.055 1.67-.445.25-.714-.75-1.384-.75-.2 0-.422.05-.692.16a.925.925 0 0 0-.369.25c-.45.52 0 1.84-.375 1.465-.365-.365-.465-.945-.865-1.875-.41-.96-.58-1.72-1.13-3.13-.71-1.76-1.21-2.99-1.66-3.77a4.712 4.712 0 0 0-.37-.55C9.56 4.17 9.27 4 8.93 4zM1 7c-.6 0-1 .4-1 1v1c0 .6.4 1 1 1h2c.6 0 1-.4 1-1V8c0-.6-.4-1-1-1H1zm12 0c-.29 0-.53.09-.7.26-.03.03-.06.07-.09.11.07.19.15.38.23.58.23.56.52 1.31.82 2.05H15c.6 0 1-.4 1-1V8c0-.6-.4-1-1-1h-2zm8 0c-.6 0-1 .4-1 1v1c0 .6.4 1 1 1h4c.6 0 1-.4 1-1V8c0-.6-.4-1-1-1h-4zm-14.2.02c-.49.07-.8.45-.8.98v1c0 .6.4 1 1 1h.99c-.03-.06-.06-.12-.08-.18a58.03 58.03 0 0 1-1.11-2.8zM1 12c-.6 0-1 .4-1 1v1c0 .6.4 1 1 1h2c.6 0 1-.4 1-1v-1c0-.6-.4-1-1-1H1zm6 0c-.6 0-1 .4-1 1v1c0 .6.4 1 1 1h2c.4 0 .71-.18.87-.48-.32-.79-.69-1.66-1.05-2.52H7zm-6 5c-.6 0-1 .4-1 1v1c0 .6.4 1 1 1h2c.6 0 1-.4 1-1v-1c0-.6-.4-1-1-1H1zm6 0c-.6 0-1 .4-1 1v1c0 .6.4 1 1 1h2c.6 0 1-.4 1-1v-1c0-.6-.4-1-1-1H7z"/></svg>