<svg xmlns="http://www.w3.org/2000/svg" viewBox="0 0 50 50"><path d="M2.75 1.813a1.143 1.143 0 0 0-.125.03.994.994 0 0 0-.781.704c-.106.367.004.758.281 1.015l44.313 44.313a1.014 1.014 0 0 0 1.437 0 1.014 1.014 0 0 0 0-1.438l-9.094-9.093a40.974 40.974 0 0 0 1-3.719C45.207 32.465 49 30.575 49 28c0-3.18-5.46-4.93-10.281-5.844C37.219 13.84 32.656 8 30 8c-1.328 0-2.27.633-3.094 1.188-.683.46-1.222.812-1.906.812-.688 0-1.262-.398-1.938-.844C22.238 8.61 21.294 8 20 8c-1.59 0-3.762 1.816-5.594 4.969L3.562 2.125a1.004 1.004 0 0 0-.812-.313zM20 10c.691 0 1.262.398 1.938.844C22.762 11.39 23.706 12 25 12c1.29 0 2.219-.613 3.031-1.156.676-.45 1.246-.844 1.969-.844 1.023 0 4.215 3.336 6 9.313-.012.093-.082.238-.219.375C34.457 21.012 29.851 22 25.063 22H25c-.566 0-1.09-.035-1.625-.063l-7.5-7.5C17.531 11.438 19.363 10 20 10zm-7.344 6.719a29.774 29.774 0 0 0-1.406 5.468C6.434 23.105 1 24.828 1 28c0 2.566 3.781 4.465 9.188 5.625C10.698 36.441 12.377 44 15.75 44c4.805 0 6.45-3.469 9.063-3.469 2.613 0 4.8 3.469 9.062 3.469 1.309 0 2.426-1.188 3.313-2.781L34 38.062c-.473 1.211-1.441 2.387-3.375 2.032-1.652-.305-2.813-1.235-2.813-2.032 0-.601 2.25-1.234 4.5-1.687l-3.468-3.469A86.205 86.205 0 0 1 25 33c-13.43 0-22-2.96-22-5 0-.879 2.164-2.55 8.031-3.75.387 3.441 8.414 4.73 13.906 4.75l-2.062-2.063c-6.012-.335-9.777-1.98-9.875-2.906.098-.879.223-1.68.375-2.468 1.402.988 3.723 1.617 6.156 2l-2.625-2.625c-1.836-.547-2.937-1.172-2.937-1.625 0-.06-.02-.133-.031-.188.085-.297.187-.563.28-.844zm23.907 4.875c.164.781.328 1.586.437 2.437-.02.153-.164.32-.281.438-1.145 1.14-4.512 2.043-8.438 2.375L25.438 24c4.113-.043 8.832-.805 11.125-2.406zm2.406 2.656C44.824 25.445 47 27.121 47 28c0 1.535-4.918 3.578-13.063 4.5l-3.843-3.844c3.422-.437 6.582-1.336 8.031-2.781.598-.598.793-1.172.844-1.625zM14.625 36c2.648.43 6.625 1.266 6.625 2.063 0 .796-1.16 1.726-2.813 2.03-3.292.61-3.812-3.296-3.812-4.093z"/></svg>