<svg xmlns="http://www.w3.org/2000/svg" viewBox="0 0 50 50"><path d="M42.422 30.309a.996.996 0 0 0-.723-.309h-1.5a1 1 0 0 0-1 .965c-.105 2.996-.886 3.234-1.898 3.234-1.078 0-2.117-1.879-2.867-5.172.3-1.07.757-2.808 1.343-5.308l3.5-15.5a1.011 1.011 0 0 0-.195-.844.993.993 0 0 0-.781-.375h-5.7c-.468 0-.874.324-.98.785l-1.34 6.074c-.863-2.086-1.855-3.793-2.93-5.02C25.75 7.009 23.458 6 20.899 6 17.172 6 10.371 8.527 8.52 18.004A27.378 27.378 0 0 0 8 23.398C8 40.508 19.488 41 20.8 41c4.63 0 8.067-1.79 10.669-5.59C32.703 39.078 34.527 41 36.8 41c2.258 0 3.433-1.543 4.37-3.21.93-1.65 1.415-3.794 1.528-6.75a.991.991 0 0 0-.277-.731zm-14.703-4.797c-.547 2.84-1.305 5-1.828 6.273C24.17 35.562 22.39 36 21.199 36 19.914 36 16 36 16 24c0-8.625 1.816-13 5.398-13 .907 0 3.38 1.227 6.86 12.516z"/></svg>