<svg xmlns="http://www.w3.org/2000/svg" viewBox="0 0 48 48"><path d="M10 26c0 3.2 1 6.2 3 8.602 2 2.597 3 6 3 9.398h16s1-6.8 3-9.602C36.8 32 38 29 38 25.801c0-5.403-3.2-10.602-8-12.801V6H18v7s-8 3.2-8 13z" fill="#ff8a65"/><path d="M36 26c0-2.2.602-3.898 1.3-4.602-.198-.699-.5-1.296-.8-1.898-1.5 1-2.5 3.398-2.5 6.5 0 2.898.898 5.3 2.3 6.398.302-.597.598-1.296.9-1.898-.598-.898-1.2-2.398-1.2-4.5zm-12-7c-3.898 0-7 3.102-7 7s3.102 7 7 7 7-3.102 7-7-3.102-7-7-7zm0 12c-2.8 0-5-2.2-5-5s2.2-5 5-5 5 2.2 5 5-2.2 5-5 5zM11.398 19.398c-.296.602-.597 1.204-.796 1.903.699.699 1.296 2.398 1.296 4.597 0 2.204-.597 3.801-1.296 4.5.199.704.5 1.301.796 1.903C13 31.398 14 29 14 26c0-3.102-1-5.602-2.602-6.602zM18 11h12v2H18z" fill="#ffab91"/><path d="M16 6c0 1.102.898 2 2 2h12c1.102 0 2-.898 2-2 0-1.102-.898-2-2-2H18c-1.102 0-2 .898-2 2z" fill="#ff7043"/><path d="M22.7 29.898l1.5 7.301-.2-8-3-2.398 3.602-6H15.8l-2.602-3.903c-.699.801-1.3 1.704-1.898 2.903l2.597 2.898L22.602 22l-4.204 5.602z" fill="#8c2a0b"/></svg>