<svg xmlns="http://www.w3.org/2000/svg" viewBox="0 0 32 32"><path d="M8 8c-2.418 0-4.355 1.773-4.813 4.063C1.419 12.23 0 13.69 0 15.5 0 17.422 1.578 19 3.5 19H12c2.2 0 4-1.8 4-4 0-2.012-1.527-3.637-3.469-3.906C11.77 9.304 10.06 8 8 8zm17 0v2.156c-.371.098-.71.215-1.031.406l-1.5-1.5-1.407 1.407 1.5 1.5c-.19.32-.308.66-.406 1.031H20v2h2.156c.098.371.215.71.407 1.031l-1.5 1.5 1.406 1.407 1.5-1.5c.32.19.66.308 1.031.406V20h2v-2.156c.371-.098.71-.215 1.031-.407l1.5 1.5 1.407-1.406-1.5-1.5c.19-.32.308-.66.406-1.031H32v-2h-2.156c-.098-.371-.215-.71-.407-1.031l1.5-1.5-1.406-1.406-1.5 1.5c-.32-.192-.66-.31-1.031-.407V8zM8 10c1.41 0 2.574.95 2.906 2.25l.188.813.812-.063c.192-.008.219 0 .094 0 1.117 0 2 .883 2 2s-.883 2-2 2H3.5c-.84 0-1.5-.66-1.5-1.5S2.66 14 3.5 14c.105 0 .21.012.313.031l1.187.25V13c0-1.668 1.332-3 3-3zm18 2c1.117 0 2 .883 2 2s-.883 2-2 2-2-.883-2-2 .883-2 2-2zm-5.969 8.063L17.5 23.28A4.001 4.001 0 0 0 16 23c-2.2 0-4 1.8-4 4h2c0-1.117.883-2 2-2s2 .883 2 2h2c0-.95-.348-1.813-.906-2.5l2.5-3.219z"/></svg>