<svg xmlns="http://www.w3.org/2000/svg" viewBox="0 0 24 24"><path d="M17 2l-1 2.594-2.531-1.157L14.594 6 12 7l2.594 1-1.156 2.531L16 9.406 17 12l1-2.594 2.5 1.156L19.406 8 22 7l-2.594-1L20.5 3.437 18 4.595zM6.437 3.031c-1.636 0-3.003 1.215-3.28 2.813A2.856 2.856 0 0 0 2 8.156C2 9.726 3.25 11 4.781 11h5C11.008 11 12 9.977 12 8.719c0-1.258-.992-2.281-2.219-2.281 0-1.887-1.504-3.407-3.344-3.407zM17 5a1.999 1.999 0 1 1 0 4 1.999 1.999 0 1 1 0-4zm-1 8l-3.125 3.125A3.077 3.077 0 0 0 12 16a3 3 0 1 0 3 3c0-.59-.176-1.129-.469-1.594z"/></svg>