<svg xmlns="http://www.w3.org/2000/svg" viewBox="0 0 50 50"><path d="M24.688 1c-5.18 0-8.485 2.254-10.344 4.875C12.484 8.496 12 11.375 12 13v27c0 3.977-2.469 6.281-2.469 6.281a.993.993 0 0 0-.238 1.074 1 1 0 0 0 .895.645H16.5c.176-.008.352-.063.5-.156 0 0 .906-.555 1.625-1.782C19.344 44.837 20 42.903 20 40v-1.094C21.207 39.41 22.895 40 25.094 40c6.11 0 9.922-1.969 12.125-4.5C39.422 32.969 40 29.996 40 28c0-4.371-2.43-7.852-6.844-10.125C35.81 15.871 37 13.363 37 10.406c0-1.633-.762-3.906-2.688-5.875C32.388 2.563 29.258 1 24.688 1zm0 2c4.128 0 6.667 1.355 8.218 2.938C34.457 7.52 35 9.44 35 10.405c0 2.95-.902 4.84-4.188 6.719a1.007 1.007 0 0 0-.519.945c.027.39.281.73.645.867C35.895 20.938 38 23.872 38 28c0 1.605-.484 4.121-2.281 6.188C33.922 36.254 30.785 38 25.094 38c-2.867 0-5.625-1.469-5.625-1.469a.997.997 0 0 0-1.469.875V40c0 2.598-.594 4.164-1.125 5.063-.453.769-.664.882-.75.937h-3.938c.88-1.316 1.813-3.21 1.813-6V13c0-1.172.457-3.793 2-5.969S20.066 3 24.688 3zM25 4c-1.082 0-2.672.434-4.188 1.688C19.297 6.94 18 9.073 18 12.188v20c0 .117.023.234.063.343.402 1.207 1.328 2.239 2.562 3.063 1.234.824 2.79 1.406 4.469 1.406 1.523 0 3.699-.383 5.593-1.75 1.895-1.367 3.407-3.777 3.407-7.438 0-2.984-.598-5.027-1.594-6.468-.965-1.399-2.23-2.18-3.344-2.907a.984.984 0 0 0 .469-.375C30.488 16.817 32 14.88 32 11.407c0-2.824-1.23-4.781-2.719-5.906C27.793 4.375 26.141 4 25 4zm0 2c.66 0 2.004.293 3.063 1.094C29.12 7.894 30 9.129 30 11.406c0 2.594-.871 3.832-1.719 5.031-1.316-.285-2.582-.53-3.593-.53-.93 0-1.715.09-2.407.405C21.59 16.63 21 17.367 21 18.188c0 .895.71 1.641 1.469 1.97.758.327 1.636.437 2.718.437.899 0 1.942-.16 3-.375 1.047.683 1.985 1.304 2.657 2.281.73 1.059 1.25 2.598 1.25 5.313 0 3.14-1.133 4.78-2.563 5.812C28.101 34.656 26.27 35 25.094 35c-1.219 0-2.403-.438-3.344-1.063-.91-.605-1.531-1.41-1.75-2v-19.75c0-2.585.953-4.046 2.063-4.968C23.172 6.297 24.581 6 25 6zm-.313 11.906c.711 0 1.786.207 2.813.407-.805.144-1.61.28-2.313.28-.917 0-1.593-.132-1.937-.28-.344-.149-.25-.122-.25-.125 0-.079-.11.046.125-.063.234-.11.79-.219 1.563-.219z"/></svg>