<svg xmlns="http://www.w3.org/2000/svg" viewBox="0 0 40 40"><path d="M8 3h24v1H8zm1 3h22v1H9zm2 3h18v1H11zm2 3h14v1H13zm3 3h8v1h-8zM9 36h23v1H9zm0-3h22v1H9zm2-3h18v1H11zm2-3h14v1H13zm3-3h8v1h-8z" fill="#4788c7"/><path d="M5.504 38.5c.203-9.637 6.27-14.656 13.57-19.758 6.86-4.793 12.14-9.129 12.348-17.242h3.074c-.207 9.578-6.312 14.625-13.66 19.758C14.023 26.02 8.78 30.328 8.578 38.5z" fill="#98ccfd"/><path d="M33.977 2c-.407 9.02-6.329 13.887-13.43 18.848C13.754 25.598 8.492 29.914 8.097 38H6.024c.399-9.074 6.282-13.922 13.34-18.848 6.84-4.78 12.137-9.12 12.54-17.152h2.074M35 1h-4.07c0 8.438-5.594 12.758-12.14 17.332C12.007 23.07 5 28.437 5 39h4.07c0-8.438 5.504-12.758 12.051-17.332C27.902 16.93 35 11.563 35 1z" fill="#4788c7"/><path d="M31.492 38.5c-.238-8.695-6.73-13.23-12.469-17.242C12.016 16.363 5.715 11.164 5.508 1.5h3C8.71 9.66 13.96 13.977 20.78 18.742 28.161 23.895 34.29 28.95 34.492 38.5z" fill="#dff0fe"/><path d="M8.023 2c.403 8.074 5.668 12.398 12.473 17.152 7.129 4.98 13.07 9.86 13.48 18.848h-2.003c-.465-8.629-6.934-13.148-12.664-17.152C12.28 15.938 6.422 11.105 6.023 2h2M9 1H5c0 10.563 6.953 15.93 13.738 20.668C25.281 26.242 31 30.563 31 39h4c0-10.563-7.148-15.93-13.934-20.668C14.523 13.758 9 9.437 9 1z" fill="#4788c7"/></svg>