<svg xmlns="http://www.w3.org/2000/svg" viewBox="0 0 50 50"><path d="M9 2c-.602 0-1 .398-1 1v24.188C4.3 29.085 2 32.8 2 37c0 6.102 4.898 11 11 11s11-4.898 11-11c0-4.102-2.3-7.914-6-9.813V24h3v-2h-3v-2h2v-2h-2v-2h3v-2h-3v-2h2v-2h-2V8h3V6h-3V3c0-.602-.398-1-1-1zm35 0l-.813 1.313C42.587 4.112 40 8.101 40 10c0 2.2 1.8 4 4 4s4-1.8 4-4c0-1.898-2.586-5.914-3.188-6.813zM12 14h2v19.094c1.7.398 3 2.008 3 3.906 0 2.2-1.8 4-4 4s-4-1.8-4-4c0-1.898 1.3-3.406 3-3.906zm22.5.594l-.813 1.219C33.087 16.71 30 21.398 30 23.5c0 2.5 2 4.5 4.5 4.5s4.5-2 4.5-4.5c0-2.102-3.086-6.79-3.688-7.688zM44 27l-.813 1.188C42.489 29.288 39 34.602 39 37c0 2.8 2.2 5 5 5s5-2.2 5-5c0-2.398-3.488-7.813-4.188-8.813z"/></svg>