<svg xmlns="http://www.w3.org/2000/svg" viewBox="0 0 50 50"><path d="M16.406 1.219c-.21.031-.41.129-.562.281-.696.66-1.867 2.02-2.938 3.281-.941 1.11-1.562 1.867-1.75 2.094-.031.02-.062.04-.094.063 0 0-5.535 5.277-7.843 10.53a.998.998 0 0 0 .437 1.282c1.684.926 3.625 2.063 5.5 3.469-3.34 1.465-6.707 4.508-9 8.156a1 1 0 0 0 .032 1.094C1.69 33.64 4.968 39 4.968 39a.997.997 0 0 0 1.595.125S7.53 38.309 8 37.844v.093c-.047.926-.031 1.657-.031 1.657.015.453.34.84.781.937l5.5 1.282c.05.015.102.023.156.03.004.005.028-.003.031 0 1.543 1.391 3.997 2.552 7.75 2.938C22.927 45.496 23.884 46 25 46c1.11 0 2.047-.512 2.781-1.219 3.805-.379 6.301-1.508 7.844-2.906a.987.987 0 0 0 .406-.125l5.188-2a1 1 0 0 0 .656-.969s-.121-1-.375-2.281c.219.133.39.21.594.344.816.535 1.437 1 1.437 1a1.002 1.002 0 0 0 1.375-.157s2.535-2.992 4.875-5.937a.999.999 0 0 0 0-1.25c-.965-1.254-2.43-2.195-3.812-3l1.468-.031a1.001 1.001 0 0 0 .969-1.187l-.906-4.876a1 1 0 0 0-1-.812s-1.79.023-3 .031c.852-.512 2.188-1.438 2.188-1.438a1 1 0 0 0 .406-1.343S44.809 15.492 43.312 13c-.75-1.246-1.546-2.535-2.28-3.594-.735-1.058-1.262-1.84-2.032-2.344a.995.995 0 0 0-.875-.125c-1.152.391-2.11.872-2.906 1.375.011-.023.156-.374.156-.374a.998.998 0 0 0-.094-1.063s-.437-.594-1.031-1.313c-.594-.718-1.309-1.53-2.031-2.062a.986.986 0 0 0-.563-.219 1.02 1.02 0 0 0-.562.156 10.15 10.15 0 0 0-2.157 1.813c.012-1.035.032-1.781.032-1.781a1.027 1.027 0 0 0-.258-.739A1.01 1.01 0 0 0 28 2.406l-5.625-.219a1.002 1.002 0 0 0-1 1.188l.438 2.313c-.028-.036-.036-.028-.063-.063a28.63 28.63 0 0 0-2.406-2.656c-.824-.79-1.582-1.453-2.532-1.719a1.02 1.02 0 0 0-.406-.031zM16.72 3.5c.343.195.715.39 1.25.906.722.696 1.508 1.586 2.218 2.469a56.79 56.79 0 0 1 2.563 3.469 1.002 1.002 0 0 0 1.813-.75L23.53 4.25l3.438.125c-.024.738-.086 2.063 0 4.031V8.5a10.6 10.6 0 0 0-.469 1.656 1.002 1.002 0 0 0 1.969.375c.383-2.043 1.484-3.605 3.125-4.844.363.36.73.684 1.093 1.125.348.418.454.555.626.782-.239.46-1.176 2.242-2.344 4.937a1 1 0 0 0 1.594 1.156c.73-.68 1.218-1.539 2.093-2.406.778-.77 1.926-1.539 3.563-2.187.25.258.636.676 1.187 1.469.692 1 1.453 2.246 2.188 3.468 1.207 2.012 1.906 3.285 2.25 3.906-.98.543-2.805 1.602-4.375 2.97a1.002 1.002 0 0 0-.27 1.116.997.997 0 0 0 .957.633c1.813-.062 4.672-.062 5.532-.062l.53 2.906-4.187.063a.998.998 0 0 0-1.008.808c-.093.48.176.957.633 1.129 0 0 1.235.512 2.688 1.313a15.1 15.1 0 0 1 3.25 2.437 351.647 351.647 0 0 1-3.657 4.469c-.273-.196-.32-.25-.75-.532-.87-.57-1.921-1.214-2.874-1.562a.992.992 0 0 0-1.047.234.992.992 0 0 0-.235 1.047c.649 1.793.66 2.817.688 3.282l-2.188.843c.364-.972.469-1.824.469-2.343 0-1.098-.559-2.352-1.094-4.032.914-.652 1.625-1.578 1.625-2.781 0-1.75-1.304-3.18-2.968-3.5A47.936 47.936 0 0 1 35 19a.986.986 0 0 0-.344-.75S30.832 15 25 15h-.094a1.116 1.116 0 0 0-.25.063c-4.836 1.695-8.968 2.968-8.968 2.968A1 1 0 0 0 15 19c0 2.813-.309 5.219-.688 7.406-1.601.367-2.843 1.762-2.843 3.469 0 1.148.656 2.059 1.5 2.719-.48 1.66-.969 3.02-.969 4.093 0 .59.098 1.586.594 2.688L10 38.781c0-.27-.02-.328 0-.75.043-.843.156-1.875.344-2.406a.998.998 0 1 0-1.5-1.156 19.055 19.055 0 0 0-2.875 2.375c-.64-1.043-2.324-3.778-3.75-5.907 2.484-3.68 6.324-6.769 9.219-7.5a1 1 0 0 0 .406-1.718C9.684 19.797 7.426 18.555 5.5 17.5c2.043-4.008 5.746-7.871 6.469-8.594.726.332 3.215 1.551 5.875 5.125a.997.997 0 0 0 .941.492.995.995 0 0 0 .856-.636 1.005 1.005 0 0 0-.203-1.043c-2.211-2.973-4.633-4.656-6.063-5.469.367-.438.488-.602 1.063-1.281.87-1.024 1.68-1.961 2.28-2.594zM25.125 17c4.676.043 7.5 2.234 7.906 2.563.035 3.042.266 5.699.625 7.875.082.527.563.898 1.094.843.156-.015.195-.031.156-.031.903 0 1.625.723 1.625 1.625 0 .707-.465 1.277-1.093 1.5-.497.176-.77.71-.626 1.219C35.47 34.859 36 36.41 36 36.687c0 .54-.152 1.899-1.25 3.188-1.098 1.29-3.188 2.64-7.438 3-.265.02-.511.14-.687.344-.398.48-.965.781-1.625.781a2.068 2.068 0 0 1-1.625-.781.999.999 0 0 0-.688-.375c-4.207-.375-6.328-1.711-7.437-3-1.11-1.29-1.25-2.64-1.25-3.157 0-.488.453-2.062 1.031-4.156a1 1 0 0 0-.594-1.187 1.585 1.585 0 0 1-.968-1.469c0-.879.691-1.594 1.562-1.625.008.008.043.027.125.031a.999.999 0 0 0 1.063-.812c.41-2.207.664-4.856.718-7.719A329.05 329.05 0 0 0 25.126 17zm-2.313 5.063a.88.88 0 0 0-.093.03.967.967 0 0 0-.25.095L18.28 24.28a1.002 1.002 0 0 0-.582.844 1.002 1.002 0 0 0 1.488.938l4.188-2.094a1 1 0 0 0-.563-1.906zm4.125 1.062a.996.996 0 0 0-.875.945.998.998 0 0 0 .782 1.024l4.187 1.062a1.001 1.001 0 0 0 1.266-1.258 1.003 1.003 0 0 0-.797-.68l-4.156-1.062a1.02 1.02 0 0 0-.407-.031zm-6.218 5c-.649 0-1.188.508-1.188 1.156 0 .649.54 1.188 1.188 1.188.648 0 1.156-.54 1.156-1.188 0-.648-.508-1.156-1.156-1.156zm8.187 0c-.648 0-1.156.508-1.156 1.156 0 .649.508 1.188 1.156 1.188.649 0 1.188-.54 1.188-1.188 0-.648-.54-1.156-1.188-1.156zm-7.031 5.406c-4.82 1.176-5.219 5.219-5.219 5.219h16.688s.058-3.828-5.219-5.219c0 0-1.07 2.063-3.125 2.063-2.055 0-3.125-2.063-3.125-2.063z"/></svg>