<svg xmlns="http://www.w3.org/2000/svg" viewBox="0 0 40 40"><path d="M13 34.5c-2.82 0-5.105-1-5.203-1.043l-.293-.129-.004-.32c-.004-.102-.023-1.828.375-3.469-1.453 1.328-2.453 2.73-2.469 2.75l-.46.652-4.34-7.875.117-.23c.101-.211 2.367-4.79 5.922-6.484-2.29-1.649-3.692-1.856-3.707-1.856l-.641-.086.238-.598c.13-.32 3.23-7.878 10.2-12.238l.257-.16.262.156c1.762 1.035 2.992 2.602 3.816 4.02l-.636-5.09h7.144l-.629 4.414c.457-.805 1.024-1.61 1.703-2.273l.239-.23.308.132c2.215.957 4.094 3.035 4.172 3.125l.309.34-.317.336c-.293.312-.722.785-1.199 1.328.883-.672 1.52-1.063 1.574-1.098l.282-.172.27.192c.218.152 5.358 3.828 6.202 8.312l.094.492-.488.094c-.278.051-.535.106-.785.164a5.11 5.11 0 0 1 1.632.367l.223.094.066.235c.586 2.101.012 3.75-.011 3.816l-.121.332h-2.16c1.488.664 3.218 1.703 4.312 3.207l.176.246-.133.27c-1.637 3.3-4.914 5.14-5.055 5.215l-.406.226-.254-.39a13.321 13.321 0 0 0-1.477-1.84c.368 1.324.395 2.492.395 2.558l.004.211-.149.149c-.085.086-2.16 2.148-5.355 2.148z" fill="#dff0fe"/><path d="M23 3l-1.102 7.758S22.863 7.078 25 5c2.14.926 4 3 4 3s-3.836 4.066-4.25 5.668C26.89 10.898 30 9 30 9s5.184 3.66 6 8c-3.688.707-5 2-5 2s1.918-.855 3.871-.855c.645 0 1.293.093 1.879.34.555 1.976 0 3.515 0 3.515H32s4.746 1.105 6.848 4C37.262 29.2 34 31 34 31s-1.586-2.438-3-3c.96 1.742 1 4 1 4s-1.973 2-5 2H13c-2.746 0-5-1-5-1s-.055-3.285 1-5c-2.277 1.563-4 4-4 4l-3.828-6.945s2.594-5.325 6.476-6.57C4.781 16.21 3 16 3 16S6.094 8.32 13 4c3.734 2.2 5 7 5 7l-1-8h6m1.152-1h-8.285l.14 1.125.31 2.488c-.743-.922-1.672-1.804-2.81-2.476l-.523-.309-.515.324C5.367 7.598 2.203 15.301 2.07 15.625l-.484 1.215 1.297.152s1.047.168 2.804 1.309c-3.28 2-5.316 6.113-5.414 6.312l-.23.469.254.453 3.828 6.95.77 1.394.921-1.3c.008-.013.504-.704 1.293-1.563a16.051 16.051 0 0 0-.109 2l.012.64.582.258C7.695 33.957 10.074 35 13 35h14c3.406 0 5.617-2.203 5.71-2.297l.298-.3-.008-.419c0-.035-.008-.32-.05-.754.081.118.152.223.21.317l.508.777.816-.449c.145-.078 3.555-1.992 5.258-5.43l.27-.543-.356-.488c-.718-.988-1.695-1.785-2.703-2.414h.504l.238-.66c.028-.074.653-1.867.02-4.125l-.13-.461-.44-.192c-.008 0-.012-.003-.02-.003l-.14-.743c-.88-4.683-6.18-8.472-6.407-8.632l-.223-.16.004-.004-.613-.688c-.082-.09-2.027-2.25-4.348-3.25l-.613-.266-.48.465a8.201 8.201 0 0 0-.559.606l.242-1.746z" fill="#4788c7"/><path d="M24.75 13.668s3.75-2.152 7.219-3.012C30.879 9.625 30 9 30 9s-3.11 1.898-5.25 4.668zM15 16c-.707-2.203-4.527-6.262-6.484-8.297A28.81 28.81 0 0 0 6.703 9.82C8.933 11.148 14.187 14.39 15 16zm22.758 11.715c.402-.52.777-1.09 1.09-1.715C36.746 23.11 32 22 32 22s3.773 2.496 5.758 5.715zM7.645 18.48l.003.004v-.004zm-.005.008a6.543 6.543 0 0 0-.917.39c-.102.052-.203.102-.305.161a9.117 9.117 0 0 0-.488.3c-2.278 1.516-3.903 4.15-4.504 5.231-.082.16-.153.297-.196.375l-.058.106 1.113 2.023c.613-1.824 2.164-5.613 5.356-8.586zM18 13c.95-4.031 1-10 1-10h-2l1 8s.004 1.68 0 2zm3.938-2.516C21.331 12.23 21 13.668 21 13.668s2.531-4.82 5.527-7.809A9.29 9.29 0 0 0 25 5c-2.137 2.078-3.102 5.758-3.102 5.758zM14.5 25.5a1.999 1.999 0 1 1-4 0 1.999 1.999 0 1 1 4 0z" fill="#b6dcfe"/><path d="M12.5 24a1.5 1.5 0 1 1 0 3 1.5 1.5 0 0 1 0-3m0-1a2.497 2.497 0 0 0-2.5 2.5c0 1.383 1.117 2.5 2.5 2.5s2.5-1.117 2.5-2.5-1.117-2.5-2.5-2.5z" fill="#4788c7"/><path d="M29.5 25.5a1.999 1.999 0 1 1-4 0 1.999 1.999 0 1 1 4 0z" fill="#b6dcfe"/><path d="M27.5 24a1.5 1.5 0 1 1 0 3 1.5 1.5 0 0 1 0-3m0-1a2.497 2.497 0 0 0-2.5 2.5c0 1.383 1.117 2.5 2.5 2.5s2.5-1.117 2.5-2.5-1.117-2.5-2.5-2.5z" fill="#4788c7"/><path d="M20 36.5a2.505 2.505 0 0 1-1.992-1.004l-.121-.156-.192-.031c-3.648-.614-6.195-2.59-6.195-4.809 0-1.074.598-3.219 1.938-5.594l.062-.117v-5.687c.668.27 1.586.398 2.5.398 1.563 0 2.633-.527 3.672-1.043 1-.492 1.941-.957 3.328-.957 2.004 0 3.5.793 3.5 1.5v5.793l.063.113c1.34 2.375 1.937 4.52 1.937 5.594 0 2.219-2.547 4.195-6.191 4.809l-.196.03-.12.157A2.505 2.505 0 0 1 20 36.5z" fill="#fff"/><path d="M23 18c2.035 0 3 .8 3 1v5.922l.129.226C27.414 27.434 28 29.523 28 30.5c0 1.938-2.43 3.754-5.777 4.313l-.387.066-.242.312c-.39.516-.973.809-1.594.809a1.993 1.993 0 0 1-1.594-.809l-.242-.312-.387-.066C14.43 34.252 12 32.437 12 30.5c0-.977.586-3.066 1.871-5.348l.129-.23v-5.137A8.745 8.745 0 0 0 16 20c1.676 0 2.855-.582 3.895-1.094C20.879 18.422 21.73 18 23 18m0-1c-2.984 0-4.094 2-7 2-1.66 0-3-.45-3-1v6.66c-1.25 2.219-2 4.531-2 5.84 0 2.531 2.8 4.66 6.61 5.3.55.72 1.41 1.2 2.39 1.2.98 0 1.84-.48 2.39-1.2 3.81-.64 6.61-2.769 6.61-5.3 0-1.309-.75-3.621-2-5.84V19c0-1.102-1.79-2-4-2z" fill="#4788c7"/><path d="M23 30.5c0-.828-1.344-1.5-3-1.5s-3 .672-3 1.5 1.344 1.5 3 1.5 3-.672 3-1.5zm1-6a1.5 1.5 0 1 1-3 0 1.5 1.5 0 0 1 3 0zm-5 0a1.5 1.5 0 1 1-3 0 1.5 1.5 0 0 1 3 0z" fill="#4788c7"/><path d="M24.898 31a5 5 0 0 0-9.796 0z" fill="#98ccfd"/><path d="M22 27a1.999 1.999 0 1 1-4 0 1.999 1.999 0 1 1 4 0z" fill="#fff"/></svg>