<svg xmlns="http://www.w3.org/2000/svg" viewBox="0 0 16 16"><path d="M8 1a5.01 5.01 0 0 0-5 5c0 1.762.875 2.828 1.648 3.586.391.379.75.7.993 1 .238.3.359.559.359.914v1a1.5 1.5 0 0 0 1.008 1.406A.758.758 0 0 0 7 14c0 .55.45 1 1 1s1-.45 1-1c0-.031 0-.063-.004-.094A1.5 1.5 0 0 0 10 12.5v-1c0-.344.121-.598.36-.902.238-.301.6-.621.988-1C12.125 8.836 13 7.762 13 6c0-2.754-2.246-5-5-5zm0 1c2.215 0 4 1.785 4 4 0 1.453-.625 2.172-1.348 2.883-.363.355-.75.687-1.074 1.094-.219.273-.289.66-.39 1.023H6.812c-.097-.371-.171-.762-.39-1.035-.32-.41-.711-.742-1.07-1.094C4.625 8.164 4 7.453 4 6c0-2.215 1.785-4 4-4zM7 3c0 1.863-1 2.55-1 3.5C6 7.414 6.46 8 7.375 8H8c-.004.316 0 .258 0 1h1c0-.79-.004-.75 0-1.07.559-.153 1-.575 1-1.43C10 4.29 7 3 7 3zm0 9h2v.5c0 .281-.219.5-.5.5h-1a.494.494 0 0 1-.5-.5z"/></svg>