<svg xmlns="http://www.w3.org/2000/svg" viewBox="0 0 40 40"><path d="M14.5 29.832V28c0-1.914-1.168-3.762-2.52-5.898-1.632-2.579-3.48-5.5-3.48-9.102C8.5 6.66 13.66 1.5 20 1.5S31.5 6.66 31.5 13c0 3.602-1.848 6.523-3.48 9.102-1.352 2.136-2.52 3.984-2.52 5.898v1.832z" fill="#dff0fe"/><path d="M20 2c6.066 0 11 4.934 11 11 0 3.457-1.809 6.316-3.402 8.836C26.262 23.946 25 25.94 25 28v1.332H15V28c0-2.059-1.262-4.055-2.598-6.164C10.81 19.316 9 16.457 9 13 9 6.934 13.934 2 20 2m0-1C13.371 1 8 6.371 8 13c0 6.668 6 10.957 6 15v2.332h12V28c0-4.043 6-8.332 6-15 0-6.629-5.371-12-12-12zm4 34c0 2.21-1.79 4-4 4s-4-1.79-4-4 1.79-4 4-4 4 1.79 4 4z" fill="#4788c7"/><path d="M17 36.5a2.502 2.502 0 0 1-2.5-2.5v-5.5h11V34c0 1.379-1.121 2.5-2.5 2.5z" fill="#dff0fe"/><path d="M25 29v5c0 1.102-.898 2-2 2h-6c-1.102 0-2-.898-2-2v-5h10m1-1H14v6a3 3 0 0 0 3 3h6a3 3 0 0 0 3-3z" fill="#4788c7"/><path d="M19 34h6.488v1H19zm-4.441 0H17v1h-2.441zM19 32h7v1h-7zm-5 0h3v1h-3zm5-2h7v1h-7zm-5 0h3v1h-3z" fill="#4788c7"/><path d="M26 16c0 2.621-2.46 4.75-5.5 4.75S15 18.621 15 16s3-4.816 3-9c0 0 8 3.063 8 9z" fill="#98ccfd"/><path d="M18.164 23.453c.766-1.105 1.426-2.48 1.89-3.84.466-1.379.735-2.828.77-4.293.047-.738-.054-1.465-.12-2.203-.169-.715-.267-1.465-.556-2.152C19.703 9.527 18.875 8.246 18 7c1 1.137 1.988 2.344 2.61 3.773.378.688.57 1.446.828 2.188.156.766.347 1.535.386 2.324a15.773 15.773 0 0 1-.324 4.727c-.36 1.566-.852 3.035-1.66 4.535z" fill="#4788c7"/></svg>