<svg xmlns="http://www.w3.org/2000/svg" viewBox="0 0 48 48"><path d="M40 17h2v24h-2z" fill="#b0bec5"/><path d="M36 39h5v2h-5zm0-16h5v2h-5zm2-4h3v2h-3zm0 16h3v2h-3zm0-4h3v2h-3zm0-4h3v2h-3z" fill="#b0bec5"/><path d="M30 30c0-6.629-12-24-12-24S6 23.371 6 30c0 6.629 5.371 12 12 12s12-5.371 12-12z" fill="#bbdefb"/><path d="M27.453 22S24 25 18 22s-9.453 0-9.453 0C7.062 25.121 6 28.035 6 30c0 6.629 5.371 12 12 12s12-5.371 12-12c0-1.965-1.063-4.879-2.547-8z" fill="#2196f3"/><path d="M36 7h5v2h-5zm2 8h3v2h-3zm0-4h3v2h-3z" fill="#ff3d00"/><path d="M40 7h2v10h-2z" fill="#ff3d00"/></svg>