<svg xmlns="http://www.w3.org/2000/svg" viewBox="0 0 50 50"><path d="M25 8c-5.453 0-8.578.414-10.559 1.078-1.976.66-2.84 1.781-3.238 2.574l-.004.016c-1.101 2.3-2.11 4.406-3.12 6.832a.998.998 0 0 0 .019.813.99.99 0 0 0 .613.53c.633.192 1.297.227 1.879-.03.582-.254.957-.72 1.258-1.2a.766.766 0 0 0 .047-.082C13.18 15.965 14.73 15 17 15h1.574c-.992 10.742-3.008 14.742-4.668 16.531-.863.93-1.672 1.34-2.469 2.035C10.637 34.262 10 35.375 10 37c0 1.633.73 2.941 1.684 3.766.949.828 2.078 1.234 3.117 1.234 1.71 0 3.219-.535 4.324-1.688 1.105-1.148 1.816-2.792 2.379-4.988C22.598 31.09 23.168 24.508 24.105 15h4.676C27.918 23.23 27 29.418 27 34.402c0 2.157.508 4.043 1.637 5.43C29.766 41.219 31.516 42 33.597 42c1.727 0 3.895-.336 5.598-1.98C40.898 38.375 42 35.559 42 31c0-.55-.45-1-1-1h-1.5c-.55 0-1 .45-1 1 0 .555-.305 1.504-.813 2.203-.503.695-1.12 1.098-1.687 1.098-.71 0-1.012-.074-1.203-.246-.192-.172-.484-.688-.64-1.989-.302-2.496-.044-7.761.769-17.066H41c.55 0 1-.45 1-1V9c0-.55-.45-1-1-1zm0 2h15v3h-6a1 1 0 0 0-.996.91c-.902 10.063-1.195 15.371-.832 18.399.18 1.511.531 2.55 1.285 3.234.754.68 1.703.758 2.543.758 1.434 0 2.566-.899 3.313-1.926.136-.191.207-.414.328-.617-.36 2.289-.973 3.988-1.836 4.82C36.609 39.734 35.075 40 33.598 40c-1.614 0-2.664-.516-3.41-1.434C29.44 37.652 29 36.242 29 34.402c0-4.972.992-11.375 1.895-20.3A1 1 0 0 0 29.903 13h-6.704a1 1 0 0 0-.996.902c-1 10.106-1.59 16.868-2.637 20.926-.52 2.027-1.156 3.344-1.882 4.098C16.957 39.684 16.14 40 14.8 40c-.461 0-1.23-.242-1.805-.742-.578-.5-.996-1.192-.996-2.258 0-1.227.21-1.46.75-1.926.535-.465 1.547-1.023 2.621-2.183 2.152-2.317 4.367-6.91 5.328-18.813a.999.999 0 0 0-1-1.078H17c-2.063 0-3.863.84-5.293 2.371.43-.922.828-1.863 1.29-2.824v-.004c.3-.605.491-1.035 2.081-1.57C16.676 10.437 19.652 10 25 10z"/></svg>