<svg xmlns="http://www.w3.org/2000/svg" viewBox="0 0 50 50"><path d="M32.41 2H7v46h23v-.1c-.52-.58-.99-1.22-1.38-1.9H9V4h22v10h10v11h2V12.59L32.41 2zM33 12V5.41L39.59 12H33zM20 24h-6v-6h6v6zm-4-2h2v-2h-2v2zm4 10h-6v-6h6v6zm-4-2h2v-2h-2v2zm4 10h-6v-6h6v6zm-4-2h2v-2h-2v2zm20-16H22v-2h14v2zM22 36h5.69c-.23.64-.41 1.31-.52 2H22v-2zm13-8v.7c-.92.32-1.79.76-2.6 1.3H22v-2h13zm5 2.05V29h1v-2h-4v2h1v1.05c-5.04.5-9 4.78-9 9.95 0 5.51 4.49 10 10 10s10-4.49 10-10c0-5.17-3.96-9.45-9-9.95zM39 48c-4.41 0-8-3.59-8-8s3.59-8 8-8 8 3.59 8 8-3.59 8-8 8zm9.293-14.364l-2.828-2.828 1.414-1.414 2.828 2.828-1.414 1.414zM35.6 43.8l-1.2-1.6 3.6-2.7V34h2v6.5l-4.4 3.3z"/></svg>