<svg xmlns="http://www.w3.org/2000/svg" viewBox="0 0 50 50"><path d="M49.71 32.22l-1.42 1.42-2.83-2.83 1.42-1.42 2.83 2.83zM38 34v5.5l-3.6 2.7 1.2 1.6 4.4-3.3V34h-2zm11 6c0 5.51-4.49 10-10 10-2.25 0-4.33-.75-6-2H7V2h25.41L43 12.59v18.25c3.53 1.54 6 5.07 6 9.16zM32 13h8.59L32 4.41V13zm-10 9h14v-2H22v2zm0 8h13v-2H22v2zm-2 4h-6v6h6v-6zm0-8h-6v6h6v-6zm0-8h-6v6h6v-6zm9.84 18H22v2h7.2c.14-.7.36-1.37.64-2zM47 40c0-4.07-3.06-7.44-7-7.94V30h1v-2h-4v2h1v2.07A7.997 7.997 0 0 0 32.08 36c-.36.62-.64 1.29-.83 2-.16.64-.25 1.31-.25 2 0 4.41 3.59 8 8 8s8-3.59 8-8zM18 20h-2v2h2v-2zm0 8h-2v2h2v-2zm0 8h-2v2h2v-2z"/></svg>