<svg xmlns="http://www.w3.org/2000/svg" viewBox="0 0 40 40"><polygon points="16.5,35.75 16.5,32.5 23.5,32.5 23.5,35.75 20,38.375" fill="#bae0bd"/><path d="M23 33v2.5l-3 2.25-3-2.25V33h6m1-1h-8v4l4 3 4-3v-4z" fill="#5e9c76"/><path d="M13.5 19.5v-16h-1a1 1 0 0 1 0-2h15a1 1 0 0 1 0 2h-1v16h-13z" fill="#e1ebf2"/><path d="M27.5 2c.271 0 .5.229.5.5s-.229.5-.5.5H26v16H14V3h-1.5c-.271 0-.5-.229-.5-.5s.229-.5.5-.5h15m0-1h-15c-.825 0-1.5.675-1.5 1.5S11.675 4 12.5 4h.5v16h14V4h.5c.825 0 1.5-.675 1.5-1.5S28.325 1 27.5 1z" fill="#788b9c"/><path d="M15 32.5c-.827 0-1.5-.673-1.5-1.5V16.5h13V31c0 .827-.673 1.5-1.5 1.5H15z" fill="#8bb7f0"/><path d="M26 17v14c0 .551-.449 1-1 1H15c-.551 0-1-.449-1-1V17h12m1-1H13v15c0 1.1.9 2 2 2h10c1.1 0 2-.9 2-2V16z" fill="#4e7ab5"/><rect x="18" y="4" width="1" height="12" fill="#788b9c"/><rect x="18" y="4" width="5" height="1" fill="#788b9c"/><rect x="19" y="8" width="2" height="1" fill="#788b9c"/><rect x="18" y="12" width="3" height="1" fill="#788b9c"/><rect x="18" y="20" width="5" height="1" fill="#4e7ab5"/><rect x="18" y="24" width="3" height="1" fill="#4e7ab5"/><rect x="18" y="28" width="3" height="1" fill="#4e7ab5"/><rect x="18" y="16" width="1" height="17" fill="#4e7ab5"/></svg>