<svg xmlns="http://www.w3.org/2000/svg" viewBox="0 0 64 64"><path d="M16 53h35a2 2 0 0 0 2-2V7a2 2 0 0 0-2-2H16a2 2 0 0 0-2 2v44a2 2 0 0 0 2 2z" fill="#faefde"/><path d="M19 53H9V8a3 3 0 0 1 3-3h7z" fill="#cda1a7"/><path d="M49 59H11a2 2 0 0 1-2-2v-2a2 2 0 0 1 2-2h38a2 2 0 0 1 2 2v2a2 2 0 0 1-2 2z" fill="#efd8be"/><path d="M19 8a1 1 0 0 0-1 1v4a1 1 0 1 0 2 0V9a1 1 0 0 0-1-1z" fill="#8d6c9f"/><path d="M51 4H12C9.793 4 8 5.793 8 8v48c0 2.207 1.793 4 4 4h37c1.652 0 3-1.348 3-3v-3.184c1.16-.414 2-1.515 2-2.816V7c0-1.652-1.348-3-3-3zm-2 54H12c-1.102 0-2-.898-2-2 0-1.246 1.39-2 2-2h38v3c0 .55-.45 1-1 1zm3-7c0 .55-.45 1-1 1H20V17a1 1 0 1 0-2 0v35h-6c-.617 0-1.34.223-2 .633V8c0-1.102.898-2 2-2h39c.55 0 1 .45 1 1z" fill="#8d6c9f"/><path d="M15 8h-2a1 1 0 1 0 0 2h2a1 1 0 1 0 0-2zm0 5h-2a1 1 0 1 0 0 2h2a1 1 0 1 0 0-2zm0 5h-2a1 1 0 1 0 0 2h2a1 1 0 1 0 0-2zm0 5h-2a1 1 0 1 0 0 2h2a1 1 0 1 0 0-2zm0 5h-2a1 1 0 1 0 0 2h2a1 1 0 1 0 0-2zm0 5h-2a1 1 0 1 0 0 2h2a1 1 0 1 0 0-2zm0 5h-2a1 1 0 1 0 0 2h2a1 1 0 1 0 0-2zm0 5h-2a1 1 0 1 0 0 2h2a1 1 0 1 0 0-2zm0 5h-2a1 1 0 1 0 0 2h2a1 1 0 1 0 0-2z" fill="#8d6c9f"/></svg>