<svg xmlns="http://www.w3.org/2000/svg" viewBox="0 0 24 24"><path d="M2 3v2h17v14H9v2h13v-2h-1V5c0-1.094-.906-2-2-2zm3 4c-1.66 0-3 1.344-3 3 0 1.66 1.34 3 3 3a3 3 0 0 0 0-6zm7 0v2.094c-.156-.035-.324-.094-.5-.094-.828 0-1.5.45-1.5 1s.672 1 1.5 1 1.5-.45 1.5-1V8h1V7zm-7 3c1.266 0 1.5 1.313 1.5 1.313s-.578.437-1.5.437-1.5-.438-1.5-.438S3.734 10 5 10zm8.281 2.281l-2.562 2.563-1.469-.5v.031A7.035 7.035 0 0 0 7.031 14H2v7h6v-4.906c.2.039.398.09.594.156l2.094.688c.355.128.757.042 1.03-.22l3-3z"/></svg>