<svg xmlns="http://www.w3.org/2000/svg" viewBox="0 0 64 64"><path d="M31.918 3.125a2.978 2.978 0 0 0-2.297 1.098L26.527 8H5c-1.652 0-3 1.348-3 3v6c0 1.652 1.348 3 3 3h1v28H5c-1.652 0-3 1.348-3 3s1.348 3 3 3h26v4c0 .063.023.117.035.172A2.996 2.996 0 0 0 29 61c0 1.652 1.348 3 3 3s3-1.348 3-3a2.996 2.996 0 0 0-2.035-2.828c.012-.055.035-.11.035-.172v-4h26c1.652 0 3-1.348 3-3s-1.348-3-3-3h-1V20h1c1.652 0 3-1.348 3-3v-6c0-1.652-1.348-3-3-3H37.465L34.23 4.187a3.002 3.002 0 0 0-2.312-1.062zm.016 2c.195-.02.507.043.77.352L34.843 8h-5.735l2.059-2.508a.979.979 0 0 1 .766-.367zM5 10h54c.55 0 1 .45 1 1v6c0 .55-.45 1-1 1H5c-.55 0-1-.45-1-1v-6c0-.55.45-1 1-1zm2 2c-.55 0-1 .45-1 1v2c0 .55.45 1 1 1s1-.45 1-1v-2c0-.55-.45-1-1-1zm5 0c-.55 0-1 .45-1 1v2c0 .55.45 1 1 1s1-.45 1-1v-2c0-.55-.45-1-1-1zm5 0c-.55 0-1 .45-1 1v2c0 .55.45 1 1 1s1-.45 1-1v-2c0-.55-.45-1-1-1zm5 0c-.55 0-1 .45-1 1v2c0 .55.45 1 1 1s1-.45 1-1v-2c0-.55-.45-1-1-1zm5 0c-.55 0-1 .45-1 1v2c0 .55.45 1 1 1s1-.45 1-1v-2c0-.55-.45-1-1-1zm5 0c-.55 0-1 .45-1 1v2c0 .55.45 1 1 1s1-.45 1-1v-2c0-.55-.45-1-1-1zm5 0c-.55 0-1 .45-1 1v2c0 .55.45 1 1 1s1-.45 1-1v-2c0-.55-.45-1-1-1zm5 0c-.55 0-1 .45-1 1v2c0 .55.45 1 1 1s1-.45 1-1v-2c0-.55-.45-1-1-1zm5 0c-.55 0-1 .45-1 1v2c0 .55.45 1 1 1s1-.45 1-1v-2c0-.55-.45-1-1-1zm5 0c-.55 0-1 .45-1 1v2c0 .55.45 1 1 1s1-.45 1-1v-2c0-.55-.45-1-1-1zm5 0c-.55 0-1 .45-1 1v2c0 .55.45 1 1 1s1-.45 1-1v-2c0-.55-.45-1-1-1zM8 20h48v28H8V37.5l8.016 3.34c-.004.055-.016.105-.016.16 0 1.652 1.348 3 3 3s3-1.348 3-3c0-.355-.074-.691-.188-1.012l6.641-5.43c.453.274.98.442 1.547.442.613 0 1.184-.188 1.66-.504l3.492 2.613c-.09.286-.152.578-.152.891 0 1.652 1.348 3 3 3s3-1.348 3-3c0-.46-.113-.895-.3-1.285l7.3-7.3v4.07c0 .55.45 1 1 1s1-.45 1-1V27a1.001 1.001 0 0 0-.617-.922A1.001 1.001 0 0 0 49 26h-6.484c-.551 0-1 .45-1 1s.449 1 1 1h4.07l-7.3 7.3A2.96 2.96 0 0 0 38 35c-.613 0-1.184.188-1.66.504l-3.492-2.613c.09-.286.152-.578.152-.891 0-1.652-1.348-3-3-3s-3 1.348-3 3c0 .355.074.691.188 1.012l-6.641 5.43A2.988 2.988 0 0 0 19 38c-.879 0-1.664.387-2.215.996L8 35.332zm22 10.844c.637 0 1.156.52 1.156 1.156 0 .637-.52 1.156-1.156 1.156-.637 0-1.156-.52-1.156-1.156 0-.637.52-1.156 1.156-1.156zm8 6c.637 0 1.156.52 1.156 1.156 0 .637-.52 1.156-1.156 1.156-.637 0-1.156-.52-1.156-1.156 0-.637.52-1.156 1.156-1.156zm-19 2.968a1.187 1.187 0 1 1 .001 2.374A1.187 1.187 0 0 1 19 39.813zM5 50h54c.55 0 1 .45 1 1s-.45 1-1 1H5c-.55 0-1-.45-1-1s.45-1 1-1zm27 10c.55 0 1 .45 1 1s-.45 1-1 1-1-.45-1-1 .45-1 1-1z"/></svg>