<svg xmlns="http://www.w3.org/2000/svg" viewBox="0 0 40 40"><path d="M.934 13.668L20 1.594l19.066 12.074L20 25.742z" fill="#98ccfd"/><path d="M20 2.184l18.133 11.484L20 25.148 1.867 13.668 20 2.184M20 1L0 13.668l20 12.668 20-12.668z" fill="#4788c7"/><path d="M20 38.5c-1.27 0-2.445-.527-3.316-1.484l-.082-.09-.122-.043A10.515 10.515 0 0 1 9.5 27V16.5h21V27c0 4.426-2.805 8.395-6.98 9.883l-.122.043-.082.09c-.87.957-2.046 1.484-3.316 1.484z" fill="#fff"/><path d="M30 17v10a10.01 10.01 0 0 1-6.648 9.41l-.239.086-.168.184a3.944 3.944 0 0 1-5.89 0l-.168-.184-.239-.086A10.01 10.01 0 0 1 10 27V17h20m1-1H9v11c0 4.781 3.055 8.836 7.316 10.355A4.966 4.966 0 0 0 20 39c1.465 0 2.77-.64 3.684-1.645C27.945 35.835 31 31.781 31 27z" fill="#4788c7"/><path d="M32 37.5c-2.785 0-5.36-1-6.594-1.566 1.602-1.121 5.094-4.141 5.094-9.149v-4.902c0-3.778-4.074-6.211-4.246-6.317l-.352-.203-.273.301c-.027.027-2.707 2.91-9.45 3.84-3.214.445-6.679 2.73-6.679 6.7l1 .081-1-.023v.523c0 5.074 3.832 8.211 5.621 9.399C13.781 36.68 11.223 37.5 9 37.5c-3.727 0-6.266-1.707-7.219-2.48C3.266 33.73 7.5 29.172 7.5 19c0-4.785 9.71-5.5 15.5-5.5 5.395 0 9.5 3.664 9.5 5.5 0 10.23 4.285 14.785 5.746 16.043-.844.766-3.062 2.457-6.246 2.457z" fill="#b6dcfe"/><path d="M23 14c5.2 0 9 3.508 9 5 0 9.55 3.703 14.293 5.496 16.031C36.516 35.816 34.61 37 32 37c-2.203 0-4.273-.648-5.605-1.188C28.21 34.352 31 31.364 31 26.785v-4.902c0-4.059-4.309-6.637-4.492-6.746l-.7-.403-.546.594c-.028.027-2.625 2.781-9.149 3.684C12.688 19.484 9 21.937 9 26.203v.582c0 4.63 3.035 7.711 5.047 9.246C12.672 36.484 10.723 37 9 37a11.222 11.222 0 0 1-6.445-2.02C4.367 33.203 8 28.46 8 19c0-3.176 5.469-5 15-5m0-1c-7.434 0-16 1.098-16 6 0 11.945-6 16-6 16s2.926 3 8 3c3.305 0 7.246-1.719 7.246-1.719S10 33.035 10 26.785v-.582c0-3.676 3.242-5.789 6.25-6.203 7.04-.973 9.75-4 9.75-4s4 2.352 4 5.883v4.902c0 6.13-5.605 9.203-5.605 9.203S27.945 38 32 38c4.39 0 7-3 7-3s-6-4.055-6-16c0-2.168-4.313-6-10-6z" fill="#4788c7"/><path d="M27 25.5a1.5 1.5 0 1 1-3 0 1.5 1.5 0 0 1 3 0zm-11 0a1.5 1.5 0 1 1-3 0 1.5 1.5 0 0 1 3 0z" fill="#4788c7"/><path d="M32.5 21.184c-1.688-.793-6.121-2.54-12.5-2.54s-10.813 1.747-12.5 2.54v-6.036C8.523 14.594 12.867 12.5 20 12.5c7.156 0 11.48 2.094 12.5 2.648z" fill="#98ccfd"/><path d="M20 13c6.527 0 10.668 1.777 12 2.45v4.964c-2.098-.883-6.285-2.27-12-2.27s-9.902 1.383-12 2.27V15.45C9.336 14.777 13.473 13 20 13m0-1c-8.445 0-13 2.855-13 2.855V22s4.953-2.855 13-2.855S33 22 33 22v-7.145S28.445 12 20 12zM4 22.7H3V11.866l1-.605z" fill="#4788c7"/><path d="M3.5 27.29c-.906-1.7-2-4.013-2-4.79 0-1.102.898-2 2-2 1.102 0 2 .898 2 2 0 .777-1.094 3.09-2 4.79z" fill="#dff0fe"/><path d="M3.5 21A1.5 1.5 0 0 1 5 22.5c0 .516-.68 2.098-1.5 3.71C2.68 24.599 2 23.017 2 22.5A1.5 1.5 0 0 1 3.5 21m0-1A2.497 2.497 0 0 0 1 22.5c0 1.383 2.5 5.832 2.5 5.832S6 23.882 6 22.5C6 21.117 4.883 20 3.5 20z" fill="#4788c7"/></svg>