<svg xmlns="http://www.w3.org/2000/svg" viewBox="0 0 16 16"><path d="M8 1.008a.49.49 0 0 0-.148.023l-6.5 2a.5.5 0 0 0 0 .957l2.128.653c-1.015.984-1.625 2.3-1.976 3.695C1.074 10.046 1 11.895 1 13.5c0 .277.223.5.5.5h4.352c.656.637 1.41 1 2.148 1 .707 0 1.516-.332 2.227-1H14.5c.277 0 .5-.223.5-.5 0-1.605-.074-3.45-.504-5.16-.351-1.399-.96-2.715-1.976-3.7l2.125-.652a.5.5 0 0 0 0-.957l-6.497-2A.49.49 0 0 0 8 1.008zM8 2.03l4.797 1.477L8 4.988l-4.797-1.48zM5 5.11l2.852.88a.551.551 0 0 0 .296 0L11 5.108v1.125c-.004.008-.012.032-.059.067a2.269 2.269 0 0 1-.562.304C9.848 6.816 9.027 7 8 7s-1.848-.184-2.379-.395a2.429 2.429 0 0 1-.566-.304c-.043-.035-.051-.059-.055-.067zm-1 .422v.801c0 .371.21.57.426.746.215.176.488.324.824.457C5.926 7.805 6.855 8 8 8s2.074-.195 2.75-.465c.336-.133.61-.281.824-.457.215-.176.426-.375.426-.746v-.8c.746.796 1.223 1.859 1.527 3.054.352 1.406.407 2.969.426 4.414h-2.93c.579-.953.977-2.258.977-4h-1c0 3.883-2.027 5-3 5-.512 0-1.281-.383-1.898-1.219C5.48 11.945 5 10.676 5 9H4c0 1.66.438 2.996 1.066 4h-3.02c.02-1.445.075-3.008.43-4.414.301-1.2.778-2.258 1.524-3.055zM6.5 9a.499.499 0 1 0 0 1 .499.499 0 1 0 0-1zm3 0a.499.499 0 1 0 0 1 .499.499 0 1 0 0-1z"/></svg>