<svg xmlns="http://www.w3.org/2000/svg" viewBox="0 0 26 26"><path d="M13 0a.98.98 0 0 0-.5.125S.02 7.602 0 7.938c-.008.109.586.667 1.313 1.312-.028.082-.07.172-.094.25-.254.867-.196 1.492-.188 1.594v6.25a1.714 1.714 0 0 0-.718 1.406c0 .48.187.906.5 1.219A1.568 1.568 0 0 0 .406 21C.406 22.148 2 24.25 2 24.25S3.594 22.187 3.594 21c0-.383-.149-.727-.375-1 .332-.316.562-.754.562-1.25 0-.582-.308-1.09-.75-1.406v-1.875C3.215 16.5 4.02 17.246 5 17.625c.719 1.824 1.594 3.781 2.813 5.375 1.28 1.676 3.007 3 5.187 3s3.906-1.324 5.188-3c1.218-1.594 2.093-3.55 2.812-5.375 1.117-.434 2-1.36 2-2.625 0-1.332-.883-2.277-1.656-2.563-.18-.066-.18-.003-.344-.03v-2.001c0-.289-.121-.558-.313-.75C20.407 9.38 18.712 8 13 8 7.488 8 5.746 9.254 5.375 9.594 5.598 8.402 7.387 7.027 13 6.844c9.914-.324 9 2.152 9 4.687 0 0 4.02-3.258 4-3.594C25.98 7.603 13.5.125 13.5.125A.98.98 0 0 0 13 0zM3.031 10.75c.934.781 1.903 1.54 1.969 1.594v.094c-.164.03-.164-.04-.344.03-.668.255-1.441 1.005-1.625 2.063V10.97s-.008-.067 0-.219zM13 12c2.035 0 4.645.496 6 .781v1.625l1.125-.156s.309-.02.531.063c.223.082.344.023.344.687 0 .523-.395.918-.906.969l-.594.062-.219.594c-.703 1.824-1.613 3.75-2.687 5.156C15.52 23.188 14.37 24 13 24s-2.52-.813-3.594-2.219c-1.074-1.406-1.984-3.336-2.687-5.156l-.219-.594L5.906 16A1 1 0 0 1 5 15c0-.617.105-.563.344-.656.238-.094.562-.094.562-.094L7 14.375v-1.594c1.352-.285 3.96-.781 6-.781z"/></svg>