<svg xmlns="http://www.w3.org/2000/svg" viewBox="0 0 50 50"><path d="M25 0c-1.543 0-2.996.316-4.137 1.14C19.727 1.96 19 3.34 19 5v4.832a.904.904 0 0 0 0 .324v17.532C15.402 29.75 13 33.57 13 38c0 6.637 5.363 12 12 12s12-5.363 12-12c0-4.43-2.402-8.25-6-10.313V10.169a.904.904 0 0 0 0-.324V5c0-1.66-.727-3.04-1.863-3.86C27.997.317 26.543 0 25 0zm0 2c1.258 0 2.3.281 2.965.758C28.629 3.238 29 3.863 29 5v4h-8V5c0-1.137.371-1.762 1.035-2.242C22.7 2.28 23.742 2 25 2zm-4 9h8v2h-4v2h4v2h-2v2h2v2h-4v2h4v5.2c0 .378.215.726.55.894C32.82 30.727 35 34.07 35 38c0 5.566-4.434 10-10 10s-10-4.434-10-10c0-3.93 2.18-7.273 5.45-8.906.335-.168.55-.516.55-.895z"/></svg>