<svg xmlns="http://www.w3.org/2000/svg" viewBox="0 0 50 50"><path d="M12 2C9.25 2 7 4.25 7 7s2.25 5 5 5 5-2.25 5-5-2.25-5-5-5zm17 0v2H19v2h27v26H20v2h8.5L23 45h2l5-10 5 10h2l-5.5-11H47c.55 0 1-.45 1-1V5c0-.55-.45-1-1-1H31V2zM12 4c1.668 0 3 1.332 3 3s-1.332 3-3 3-3-1.332-3-3 1.332-3 3-3zm-4.5 9A5.513 5.513 0 0 0 2 18.5v12.313a.668.668 0 0 0 0 .125V31a.972.972 0 0 0 .031.281C2.18 32.793 3.453 34 5 34a2.95 2.95 0 0 0 1-.188V44.5C6 46.422 7.578 48 9.5 48a3.49 3.49 0 0 0 2.5-1.063A3.49 3.49 0 0 0 14.5 48c1.922 0 3.5-1.578 3.5-3.5V19h11c1.645 0 3-1.355 3-3a3.016 3.016 0 0 0-2.938-3H15a.994.994 0 0 0-.906.563L12 17.75l-2.094-4.188A.994.994 0 0 0 9 13zm0 2h.875l2.719 5.438c.164.351.52.578.906.578.387 0 .742-.227.906-.578L15.625 15h13.469c.52.047.906.469.906 1 0 .566-.434 1-1 1H17c-.55 0-1 .45-1 1v26.5c0 .84-.66 1.5-1.5 1.5-.79 0-1.426-.578-1.5-1.344V34a1 1 0 0 0-1.094-1.031c-.043.008-.086.02-.125.031A1.002 1.002 0 0 0 11 34v10.313a.668.668 0 0 0 0 .124v.22A1.487 1.487 0 0 1 9.5 46c-.84 0-1.5-.66-1.5-1.5V21a.998.998 0 0 0-.367-.797A.997.997 0 0 0 6.78 20 1.002 1.002 0 0 0 6 21v10c0 .566-.434 1-1 1a.985.985 0 0 1-1-.938V31a.753.753 0 0 0 0-.188V18.5C4 16.555 5.555 15 7.5 15z"/></svg>