<svg xmlns="http://www.w3.org/2000/svg" viewBox="0 0 32 32"><path d="M9.5 4A3.514 3.514 0 0 0 6 7.5C6 9.422 7.578 11 9.5 11S13 9.422 13 7.5 11.422 4 9.5 4zm0 2c.84 0 1.5.66 1.5 1.5S10.34 9 9.5 9 8 8.34 8 7.5 8.66 6 9.5 6zM17 7v1h-2v2h10v10H14v2h2.5L14 27h2l2-4 2 4h2l-2.5-5H27V8h-8V7zm-8 5c-2.2 0-4 1.8-4 4v5.25l2 1V28h2v-7l-.563-.25L7 20.031V16c0-1.117.883-2 2-2h1.75c.531 0 1.031.219 1.406.594l2.125 2.125.313.281H19v-2h-3.563l-1.843-1.813c-.008-.007-.024.008-.031 0C12.816 12.45 11.8 12 10.75 12zm1 9v7h2v-7z"/></svg>