<svg xmlns="http://www.w3.org/2000/svg" viewBox="0 0 40 40"><rect x="1.5" y="1.5" width="25" height="25" fill="#f2faff"/><path d="M26 2v24H2V2h24m1-1H1v26h26V1z" fill="#788b9c"/><polygon points="13.5,38.5 13.5,26.207 26.207,13.5 38.5,13.5 38.5,38.5" fill="#8bb7f0"/><path d="M38 14v24H14V26.414L26.414 14H38m1-1H26L13 26v13h26V13z" fill="#4e7ab5"/><rect x="22.679" y="28" width="7.5" height="3" fill="#fff"/><polygon points="28.383,20 24.593,20 19.429,34 22.754,34 26.364,22.671 26.492,22.671 30.104,34 33.429,34" fill="#fff"/><line x1="7" y1="10" x2="21" y2="10" fill="none" stroke="#788b9c" stroke-width="2" stroke-miterlimit="10"/><line x1="14" y1="6" x2="14" y2="10" fill="none" stroke="#788b9c" stroke-width="2" stroke-miterlimit="10"/><path d="M19 10S16.624 20 7 20m2-7s3.451 5 9 5" fill="none" stroke="#788b9c" stroke-width="2" stroke-miterlimit="10"/></svg>