<svg xmlns="http://www.w3.org/2000/svg" viewBox="0 0 16 16"><path d="M2.5 2C1.676 2 1 2.676 1 3.5v6c0 .824.676 1.5 1.5 1.5H6v1.5c0 .824.676 1.5 1.5 1.5h6c.824 0 1.5-.676 1.5-1.5v-6c0-.824-.676-1.5-1.5-1.5H10V3.5C10 2.676 9.324 2 8.5 2zm0 1h6c.281 0 .5.219.5.5V6h4.5c.281 0 .5.219.5.5v6c0 .281-.219.5-.5.5h-6a.494.494 0 0 1-.5-.5V10H2.5a.494.494 0 0 1-.5-.5v-6c0-.281.219-.5.5-.5zM5 4v1H3v1h2.96c-.116.21-.26.445-.452.688a.352.352 0 0 1-.035.039c-.215-.188-.368-.329-.368-.329l-.71.704s.128.128.34.312A2.821 2.821 0 0 1 3 8v1c1.07 0 1.902-.422 2.543-.953C6.203 8.507 7.059 9 8 9V8c-.516 0-1.176-.309-1.727-.672l.016-.016c.441-.554.66-1.007.79-1.312H8V5H6V4zm5.078 3L8 10.875V12h1v-.875L9.066 11h2.868l.066.125V12h1v-1.125L10.922 7zm.422 1.324L11.398 10H9.602z"/></svg>