<svg xmlns="http://www.w3.org/2000/svg" viewBox="0 0 64 64"><path d="M39.82 11.309c-.242-2.73-4.101-4.91-8.82-4.91s-8.578 2.18-8.82 4.91" fill="#8b8e98"/><path d="M12.66 21.102c.738-6.172 8.668-11 18.34-11 9.531 0 17.36 4.707 18.309 10.738" fill="#8b8e98"/><path d="M49.309 20.82L38 20.91h-4.3l-6.5.09H12.66c.66-5.59 7.25-10.102 15.692-10.89A26.033 26.033 0 0 1 31 10.077c.906 0 1.809.043 2.71.133a26.5 26.5 0 0 1 3.661.61c1.637.382 3.227.949 4.738 1.69.938.458 1.828.997 2.672 1.61a10.531 10.531 0 0 1 4.528 6.7z" fill="#8b8e98"/><path d="M12.8 21.121a3.71 3.71 0 0 0-3.562 2.738A34.682 34.682 0 0 0 8 33.08c0 15.75 10.3 28.523 23 28.523s23-12.774 23-28.524a34.516 34.516 0 0 0-1.23-9.219 3.703 3.703 0 0 0-3.56-2.738z" fill="#ed7899"/><path d="M54 33.078a33.593 33.593 0 0 1-3.379 14.863A2.233 2.233 0 0 1 49 49.148a2.23 2.23 0 0 1-1.93-.609 2.195 2.195 0 0 1-.41-2.598A29.577 29.577 0 0 0 50 32.078c0-2.656-.328-5.277-1.93-10.578h2.758a3.745 3.745 0 0 1 1.942 2.36A34.834 34.834 0 0 1 54 33.077z" fill="#f283a5"/><path d="M50 32.078a29.158 29.158 0 0 1-4.14 15.274l3.288 3.226C45 57.29 38.378 61.602 31 61.602c-12.7 0-23-12.774-23-28.524a34.834 34.834 0 0 1 1.23-9.219 3.7 3.7 0 0 1 3.57-2.738h36.4c.566 0 1.124.129 1.628.379H48.07C49.672 26.8 50 29.422 50 32.078z" fill="#ed7899"/><path d="M26.3 56.77v.25a3.01 3.01 0 0 1-1.59 2.257 3.01 3.01 0 0 1-2.76.004C13.73 54.921 8 44.828 8 33.078c-.004-2.035.172-4.07.52-6.078a2.353 2.353 0 0 1 1.093-1.574 2.346 2.346 0 0 1 3.547 2.273 30.572 30.572 0 0 0-.16 3.38C13 41.261 17.82 50 24.672 53.71a3 3 0 0 1 1.628 3.06z" fill="#e0678f"/><path d="M42.11 12.512l-8.43 8.43L27.2 21l10.17-10.18c1.637.383 3.227.95 4.738 1.692zm7.199 8.308L38 20.91l6.8-6.789a10.524 10.524 0 0 1 4.509 6.7zM33.71 10.21L22.899 21H17.5l10.852-10.79a27.323 27.323 0 0 1 5.36 0z" fill="#989ba3"/><path d="M14.059 33.2h.09a1.001 1.001 0 1 0 .081-2l-2-.169a1.001 1.001 0 0 0-1.082.91c-.03.54.372 1.012.91 1.059zm8.151 17.46l-1.14 1.64a1.002 1.002 0 0 0 1.64 1.15l1.15-1.641a1.002 1.002 0 0 0-1.641-1.149zm-3.87-3.898l-1.531 1.289a.998.998 0 0 0-.118 1.41.998.998 0 0 0 1.41.117l1.528-1.289a.998.998 0 1 0-1.29-1.527zm-1.399-4.282a1 1 0 0 0-1.32-.48l-1.812.852a1 1 0 0 0 .852 1.809l1.808-.852a1 1 0 0 0 .472-1.329zm-1.57-4.968a1 1 0 0 0-1.16-.813l-2 .352a1 1 0 0 0-.914 1.086c.047.55.531.96 1.082.914h.18l2-.352c.27-.047.507-.199.66-.422.152-.226.207-.5.152-.765zm33.07-9.25c.079.488.504.843 1 .84h.16c.544-.094.91-.61.82-1.153-.14-.828-.312-1.66-.51-2.469a.997.997 0 0 0-1.18-.566A.996.996 0 0 0 48 26a64.8 64.8 0 0 1 .441 2.262zM49.828 32c-.55 0-1 .45-1 1a28.071 28.071 0 0 1-1.726 9.82 1 1 0 0 0 .023.766 1.007 1.007 0 0 0 1.855-.066A29.919 29.919 0 0 0 50.828 33a1 1 0 0 0-1-1zM31 50c-.55 0-1 .45-1 1v4c0 .55.45 1 1 1s1-.45 1-1v-4c0-.55-.45-1-1-1z" fill="#8d6c9f"/><path d="M61.95 55l-3-8.898a8.72 8.72 0 0 0-3.802-4.73l-1-.61A35.53 35.53 0 0 0 55 33.078v-.726l5.898.738H61a.998.998 0 0 0 1.059-.942 1 1 0 0 0-.938-1.058l-6.242-.781A35.214 35.214 0 0 0 54 24.71l2.078-.89a8.714 8.714 0 0 0 5-5.63L62 15a1.049 1.049 0 0 0-.7-1.3 1.045 1.045 0 0 0-1.3.698l-.922 3.23A6.72 6.72 0 0 1 55.29 22l-1.867.8a4.717 4.717 0 0 0-3.223-2.538c-.84-4.063-4.43-7.473-9.449-9.41a5.595 5.595 0 0 0-2.629-3.543L41.7 3.73c.34-.398.317-.988-.05-1.359a1.004 1.004 0 0 0-1.36-.05l-4 4a15.29 15.29 0 0 0-10.527 0l-4-4a1 1 0 0 0-1.41 1.41l3.578 3.578a5.617 5.617 0 0 0-2.621 3.53c-5 1.93-8.61 5.34-9.45 9.43a4.72 4.72 0 0 0-3.218 2.54L6.71 22a6.726 6.726 0 0 1-3.832-4.34L2 14.398A1.045 1.045 0 0 0 .7 13.7c-.552.168-.864.75-.7 1.301l1 3.191a8.714 8.714 0 0 0 5 5.63l2 .89a35.833 35.833 0 0 0-.89 5.61l-6.231.78a.998.998 0 0 0-.938 1.06c.032.55.508.972 1.059.94h.129L7 32.352v.727c0 2.586.277 5.164.828 7.692l-1 .609A8.753 8.753 0 0 0 3 46.109L.05 55a1.001 1.001 0 1 0 1.9.629l3-8.899a6.783 6.783 0 0 1 2.929-3.652l.5-.297C11.609 54.31 20.53 62.601 31 62.601S50.39 54.31 53.66 42.79l.5.3a6.76 6.76 0 0 1 2.93 3.65l3 8.902a1.001 1.001 0 0 0 1.898-.63zM31 7.398c3.2 0 6 1.09 7.219 2.602A28.296 28.296 0 0 0 31 9.078a28.59 28.59 0 0 0-7.21.902C25 8.48 27.808 7.398 31 7.398zm0 3.68c8.379 0 15.648 3.91 17.121 9h-34.25c1.469-5.078 8.668-9 17.129-9zm0 49.524c-12.129 0-22-12.352-22-27.524a33.693 33.693 0 0 1 1.2-9 2.725 2.725 0 0 1 2.6-2H30V47c0 .55.45 1 1 1s1-.45 1-1V22.121h17.2a2.716 2.716 0 0 1 2.6 2 33.651 33.651 0 0 1 1.2 9c0 15.129-9.871 27.48-22 27.48z" fill="#8d6c9f"/></svg>