<svg xmlns="http://www.w3.org/2000/svg" viewBox="0 0 16 16"><path d="M6 1v1.516a2.493 2.493 0 0 0-.98 1.789c-.278.37-.793.957-1.235 1.773L2.727 5.023l-.704.704 1.332 1.335A6.075 6.075 0 0 0 3.008 9H1v1h2.063a7.4 7.4 0 0 0 .41 1.82l-1.45 1.45.704.71 1.195-1.195c.09.156.172.32.273.465a4.055 4.055 0 0 0 3.047 1.688h.008a.122.122 0 0 0 .04.019.039.039 0 0 0 .026.012c.012.008.02.011.032.015.02.004.043.012.066.016.008 0 .02.004.031.004a.19.19 0 0 0 .067 0 .761.761 0 0 0 .097-.008.565.565 0 0 0 .114-.043c.007-.004.02-.008.027-.015h.008a4.055 4.055 0 0 0 3.047-1.688c.101-.145.183-.309.273-.465l1.192 1.195.71-.71-1.453-1.45a7.421 7.421 0 0 0 .41-1.82H14V9h-2.012a6.028 6.028 0 0 0-.316-1.86l1.32-1.425-.734-.68-1.024 1.098c-.453-.856-.976-1.453-1.257-1.836A2.501 2.501 0 0 0 9 2.516V1H8v1.05A2.614 2.614 0 0 0 7.5 2c-.172 0-.34.02-.5.05V1zm1.5 2c.66 0 1.207.418 1.41 1H6.09c.203-.582.75-1 1.41-1zM5.758 5H7v8.875c-.793-.137-1.48-.508-1.992-1.215C4.383 11.805 4 10.55 4 9.094 4 7.03 5.094 5.87 5.758 5zM8 5h1.242C9.906 5.871 11 7.031 11 9.094c0 1.457-.383 2.71-1.008 3.566-.512.707-1.199 1.078-1.992 1.215z"/></svg>