<svg xmlns="http://www.w3.org/2000/svg" viewBox="0 0 16 16"><path style="line-height:normal;text-indent:0;text-align:start;text-decoration-line:none;text-decoration-style:solid;text-decoration-color:#000;text-transform:none;block-progression:tb;isolation:auto;mix-blend-mode:normal" d="M3.5 2C2.677 2 2 2.677 2 3.5V8h1V3.5c0-.281.219-.5.5-.5h9c.281 0 .5.219.5.5V8h1V3.5c0-.823-.677-1.5-1.5-1.5h-9zm0 7C2.677 9 2 9.677 2 10.5v2c0 .823.677 1.5 1.5 1.5S5 13.323 5 12.5H4c0 .281-.219.5-.5.5a.493.493 0 0 1-.5-.5v-2c0-.281.219-.5.5-.5s.5.219.5.5h1C5 9.677 4.323 9 3.5 9zm4 0c-.59 0-.935.238-1.121.44-.411.442-.38 1.032-.377 1.06 0 .808.734 1.172 1.271 1.44.426.21.727.374.727.568 0 .002-.01.244-.14.377-.03.029-.113.115-.36.115H6.092c.06.191.156.403.338.588.185.188.521.412 1.07.412s.886-.225 1.072-.414c.426-.433.427-1.028.426-1.086 0-.82-.74-1.188-1.281-1.457-.42-.208-.714-.37-.715-.574 0-.002-.009-.227.111-.352.074-.077.205-.117.387-.117h1.414c-.168-.503-.598-1-1.414-1zm4 0c-.59 0-.937.238-1.123.44-.411.442-.378 1.032-.375 1.06 0 .808.732 1.172 1.27 1.44.425.21.726.374.726.568 0 .002-.008.244-.139.377-.028.029-.112.115-.359.115h-1.408c.06.191.156.403.338.588.185.188.521.412 1.07.412s.886-.225 1.072-.414c.426-.433.427-1.028.426-1.086 0-.82-.74-1.188-1.281-1.457-.42-.208-.714-.37-.715-.574 0-.002-.009-.227.111-.352.074-.077.205-.117.387-.117h1.414c-.168-.502-.598-1-1.414-1z" font-weight="400" font-family="sans-serif" white-space="normal" overflow="visible"/></svg>