<svg xmlns="http://www.w3.org/2000/svg" viewBox="0 0 16 16"><path style="line-height:normal;text-indent:0;text-align:start;text-decoration-line:none;text-decoration-style:solid;text-decoration-color:#000;text-transform:none;block-progression:tb;isolation:auto;mix-blend-mode:normal" d="M4.5 2C3.677 2 3 2.677 3 3.5V8h1V3.5c0-.281.219-.5.5-.5H9v3h3v2h1V5.293L9.707 2H4.5zM10 3.707L11.293 5H10V3.707zM4.5 9C3.677 9 3 9.677 3 10.5v2c0 .823.677 1.5 1.5 1.5S6 13.323 6 12.5H5c0 .281-.219.5-.5.5a.493.493 0 0 1-.5-.5v-2c0-.281.219-.5.5-.5s.5.219.5.5h1C6 9.677 5.323 9 4.5 9zm4 0c-.59 0-.935.238-1.121.44-.411.442-.38 1.032-.377 1.06 0 .808.734 1.172 1.271 1.44.426.21.727.374.727.568 0 .002-.01.244-.14.377-.03.029-.113.115-.36.115H7.092c.06.191.156.403.338.588.185.188.521.412 1.07.412s.886-.225 1.072-.414c.426-.433.427-1.028.426-1.086 0-.82-.74-1.188-1.281-1.457-.42-.208-.714-.37-.715-.574 0-.002-.009-.227.111-.352.074-.077.205-.117.387-.117h1.414c-.168-.503-.598-1-1.414-1zM11 9l1 5h1l1-5h-1l-.5 2.875L12 9h-1z" font-weight="400" font-family="sans-serif" white-space="normal" overflow="visible"/></svg>