<svg xmlns="http://www.w3.org/2000/svg" viewBox="0 0 16 16"><path style="line-height:normal;text-indent:0;text-align:start;text-decoration-line:none;text-decoration-style:solid;text-decoration-color:#000;text-transform:none;block-progression:tb;isolation:auto;mix-blend-mode:normal" d="M4.5 2C3.677 2 3 2.677 3 3.5V8h1V3.5c0-.281.219-.5.5-.5H9v3h3v2h1V5.293L9.707 2H4.5zM10 3.707L11.293 5H10V3.707zM3 9v5h1.5c.823 0 1.5-.677 1.5-1.5v-2C6 9.677 5.323 9 4.5 9H3zm4 0v5h2v-1H8V9H7zm3 0v5h2v-1h-1V9h-1zm-6 1h.5c.281 0 .5.219.5.5v2c0 .281-.219.5-.5.5H4v-3z" font-weight="400" font-family="sans-serif" white-space="normal" overflow="visible"/></svg>