<svg xmlns="http://www.w3.org/2000/svg" viewBox="0 0 80 80"><path d="M40 7C21.785 7 7 21.785 7 40s14.785 33 33 33 33-14.785 33-33S58.215 7 40 7zm0 2c17.133 0 31 13.867 31 31S57.133 71 40 71 9 57.133 9 40 22.867 9 40 9zm0 3c-.55 0-1 .45-1 1s.45 1 1 1 1-.45 1-1-.45-1-1-1zm5.293.516a1.003 1.003 0 0 0-1.008.808c-.105.54.246 1.067.79 1.176a1.005 1.005 0 0 0 1.175-.785 1.007 1.007 0 0 0-.785-1.18 3.355 3.355 0 0 0-.172-.02zm-10.555.004c-.066 0-.133.003-.199.015a1.001 1.001 0 0 0 .39 1.965.998.998 0 0 0 .786-1.176c-.094-.465-.5-.8-.977-.804zm-5.062 1.535a.998.998 0 0 0-.93 1.383.997.997 0 0 0 1.305.542c.512-.214.754-.796.543-1.308a1.006 1.006 0 0 0-.918-.617zm20.68 0a1.005 1.005 0 0 0-.95.617c-.21.512.032 1.094.543 1.308a.997.997 0 0 0 1.305-.543.998.998 0 0 0-.899-1.382zm-25.344 2.492a1.02 1.02 0 0 0-.57.172.999.999 0 1 0 1.113 1.66.996.996 0 0 0 .277-1.383 1 1 0 0 0-.82-.45zm30.004 0a1 1 0 0 0-.848.45.999.999 0 0 0 1.66 1.11 1 1 0 0 0 .152-.752.98.98 0 0 0-.425-.636.98.98 0 0 0-.54-.172zm-34.094 3.36c-.27 0-.531.105-.719.296a.995.995 0 0 0 0 1.41.995.995 0 0 0 1.41 0 .995.995 0 0 0 0-1.41.983.983 0 0 0-.691-.297zm38.183 0c-.27 0-.53.105-.718.296a.995.995 0 0 0 0 1.41.995.995 0 0 0 1.41 0 .995.995 0 0 0 0-1.41.983.983 0 0 0-.692-.297zm-18.992 3.905c-3.238 0-5.87.954-7.699 2.637-1.828 1.684-2.809 4.067-2.898 6.719l-.036 1.035h6.79l.058-.937c.07-1.04.434-1.793 1.004-2.317.574-.523 1.39-.851 2.512-.851 1.093 0 1.926.324 2.468.793.547.468.84 1.082.84 1.879 0 .875-.148 1.37-.55 1.917-.403.543-1.145 1.141-2.372 1.88l.012-.005c-1.5.883-2.656 1.864-3.398 3.11-.746 1.246-1.028 2.715-.93 4.39v.004l.035 2.336h6.742v-2.168c0-.89.13-1.375.52-1.906.39-.527 1.137-1.125 2.434-1.887v-.004h.003c2.98-1.773 4.836-4.382 4.836-7.851 0-2.543-1.082-4.797-2.937-6.352-1.852-1.554-4.434-2.422-7.434-2.422zM62.461 24a.995.995 0 0 0-.84 1.55.992.992 0 0 0 1.383.278A.997.997 0 0 0 62.46 24zm-44.895 0a.993.993 0 0 0-.847.441 1 1 0 0 0 .277 1.387 1 1 0 1 0 .57-1.828zm22.547 1.813c2.617 0 4.723.753 6.153 1.953 1.425 1.199 2.218 2.832 2.218 4.82 0 2.809-1.261 4.59-3.859 6.133-1.387.816-2.363 1.531-3.023 2.426-.66.898-.91 1.949-.91 3.09v.167h-2.77l-.012-.433v-.02c-.082-1.398.137-2.39.649-3.25.511-.863 1.367-1.633 2.695-2.414l.008-.004h.004c1.316-.797 2.277-1.511 2.941-2.402.664-.89.945-1.953.945-3.11a4.457 4.457 0 0 0-1.53-3.394c-.966-.828-2.286-1.277-3.778-1.277-1.524 0-2.88.476-3.86 1.375-.757.695-1.183 1.668-1.422 2.73H31.73c.258-1.715.875-3.21 2.036-4.281 1.406-1.297 3.496-2.11 6.347-2.11zm24.84 2.855a.999.999 0 0 0-.934 1.379 1.003 1.003 0 0 0 1.852-.766 1.002 1.002 0 0 0-.918-.613zm-49.875 0a.995.995 0 0 0-.945.617 1.005 1.005 0 0 0 .539 1.309 1.002 1.002 0 0 0 1.308-.543.997.997 0 0 0-.543-1.305.943.943 0 0 0-.359-.078zm51.406 5.066a.857.857 0 0 0-.199.016c-.539.11-.89.637-.785 1.176.11.543.637.894 1.176.789.543-.11.894-.637.789-1.18a1 1 0 0 0-.98-.8zm-52.937 0a1 1 0 1 0 .953 1.192 1 1 0 0 0-.781-1.176c-.059-.008-.114-.016-.172-.016zM13 39c-.55 0-1 .45-1 1s.45 1 1 1 1-.45 1-1-.45-1-1-1zm54 0c-.55 0-1 .45-1 1s.45 1 1 1 1-.45 1-1-.45-1-1-1zm-53.477 5.266a1.001 1.001 0 1 0 .191 1.984 1.003 1.003 0 1 0-.191-1.984zm52.985 0a1.003 1.003 0 0 0-.223 1.984 1.007 1.007 0 0 0 1.18-.785 1.007 1.007 0 0 0-.79-1.18 2.73 2.73 0 0 0-.167-.02zm-26.973 3.379c-1.234 0-2.36.402-3.16 1.171-.8.774-1.238 1.887-1.238 3.11 0 1.215.437 2.32 1.238 3.09.8.77 1.926 1.172 3.16 1.172 1.254 0 2.383-.403 3.184-1.172.8-.774 1.222-1.883 1.222-3.09 0-1.215-.421-2.328-1.222-3.106-.797-.773-1.93-1.175-3.184-1.175zm25.434 1.683a1.008 1.008 0 0 0-.95.621.999.999 0 0 0 .543 1.305 1.004 1.004 0 0 0 1.31-.54 1.002 1.002 0 0 0-.903-1.386zm-49.906.004c-.133 0-.266.023-.391.074a1.006 1.006 0 0 0-.54.543c-.1.246-.1.52-.003.766a.998.998 0 0 0 1.309.539.98.98 0 0 0 .542-.54 1 1 0 0 0-.918-1.382zm24.472.313c.844 0 1.414.242 1.793.609.379.371.613.898.613 1.672 0 .761-.23 1.281-.613 1.648-.379.367-.95.614-1.793.614-.812 0-1.39-.247-1.777-.614-.387-.37-.621-.894-.621-1.648 0-.77.234-1.293.625-1.664.386-.375.96-.617 1.773-.617zM62.47 54a1 1 0 1 0 .535.168.934.934 0 0 0-.535-.168zm-44.907 0a.974.974 0 0 0-.566.168 1.004 1.004 0 0 0-.277 1.387c.308.457.93.582 1.39.273A.999.999 0 0 0 17.562 54zm3.36 4.094a.988.988 0 0 0-.719.293.995.995 0 0 0 0 1.41.995.995 0 0 0 1.41 0 .995.995 0 0 0 0-1.41.963.963 0 0 0-.691-.293zm38.183 0a.988.988 0 0 0-.718.293.995.995 0 0 0 0 1.41.995.995 0 0 0 1.41 0 .995.995 0 0 0 0-1.41.963.963 0 0 0-.692-.293zM25.02 61.449a.993.993 0 0 0-.848.442 1 1 0 1 0 .848-.441zm29.992 0a1 1 0 0 0-.567.164.997.997 0 0 0-.273 1.39c.305.458.926.583 1.387.278.457-.308.582-.93.273-1.39a.983.983 0 0 0-.82-.442zm-25.32 2.492a.999.999 0 0 0-.946.621 1 1 0 1 0 1.305-.542 1.022 1.022 0 0 0-.36-.079zm20.648 0c-.133 0-.266.028-.387.079a1.006 1.006 0 0 0-.547 1.308 1.004 1.004 0 0 0 1.852 0 1 1 0 0 0 0-.766.999.999 0 0 0-.918-.62zm-15.578 1.54a1 1 0 1 0-.053 2 1 1 0 0 0 .053-2zm10.508.003a.808.808 0 0 0-.196.016c-.543.11-.894.633-.789 1.176a1.01 1.01 0 0 0 1.18.79c.258-.056.488-.208.637-.427a1 1 0 0 0-.832-1.555zM40 66c-.55 0-1 .45-1 1s.45 1 1 1 1-.45 1-1-.45-1-1-1z"/></svg>