<svg xmlns="http://www.w3.org/2000/svg" viewBox="0 0 64 64"><path d="M61 11v42c0 1.102-.898 2-2 2H5c-1.102 0-2-.898-2-2V11c0-1.102.898-2 2-2h54c1.102 0 2 .898 2 2z" fill="#85cbf8"/><path d="M61 52.621V53c0 1.102-.898 2-2 2H5c-1.102 0-2-.898-2-2v-.379a3 3 0 0 1 3-3h52a3 3 0 0 1 3 3z" fill="#7bbeeb"/><path d="M59 8H5c-1.652 0-3 1.348-3 3v42c0 1.652 1.348 3 3 3h54c1.652 0 3-1.348 3-3V11c0-1.652-1.348-3-3-3zm1 45c0 .55-.45 1-1 1H5c-.55 0-1-.45-1-1V11c0-.55.45-1 1-1h54c.55 0 1 .45 1 1z" fill="#8d6c9f"/><path d="M7 48a1 1 0 0 0-1 1v2a1 1 0 1 0 2 0v-2a1 1 0 0 0-1-1zm5 0a1 1 0 0 0-1 1v2a1 1 0 1 0 2 0v-2a1 1 0 0 0-1-1zm5 0a1 1 0 0 0-1 1v2a1 1 0 1 0 2 0v-2a1 1 0 0 0-1-1zm5 0a1 1 0 0 0-1 1v2a1 1 0 1 0 2 0v-2a1 1 0 0 0-1-1zm5 0a1 1 0 0 0-1 1v2a1 1 0 1 0 2 0v-2a1 1 0 0 0-1-1zm5 0a1 1 0 0 0-1 1v2a1 1 0 1 0 2 0v-2a1 1 0 0 0-1-1zm5 0a1 1 0 0 0-1 1v2a1 1 0 1 0 2 0v-2a1 1 0 0 0-1-1zm5 0a1 1 0 0 0-1 1v2a1 1 0 1 0 2 0v-2a1 1 0 0 0-1-1zm5 0a1 1 0 0 0-1 1v2a1 1 0 1 0 2 0v-2a1 1 0 0 0-1-1zm5 0a1 1 0 0 0-1 1v2a1 1 0 1 0 2 0v-2a1 1 0 0 0-1-1zm5 0a1 1 0 0 0-1 1v2a1 1 0 1 0 2 0v-2a1 1 0 0 0-1-1z" fill="#8d6c9f"/><path d="M27 20H17a1 1 0 1 0 0 2h10a1 1 0 1 0 0-2zm0 8H17a1 1 0 1 0 0 2h10a1 1 0 1 0 0-2zm-12.96-7a1.999 1.999 0 1 1-4 0 1.999 1.999 0 1 1 4 0zM53 28H43a1 1 0 1 0 0 2h10a1 1 0 1 0 0-2zm-12.96 1a1.999 1.999 0 1 1-4 0 1.999 1.999 0 1 1 4 0zm-26 0a1.999 1.999 0 1 1-4 0 1.999 1.999 0 1 1 4 0zM27 36H17a1 1 0 1 0 0 2h10a1 1 0 1 0 0-2zm26-16H43a1 1 0 1 0 0 2h10a1 1 0 1 0 0-2zm-14.602-.469a.498.498 0 0 0-.796 0l-2 2.668A.5.5 0 0 0 36 23h4a.5.5 0 0 0 .398-.8zM53 36H43a1 1 0 1 0 0 2h10a1 1 0 1 0 0-2zm-14.602-.469a.498.498 0 0 0-.796 0l-2 2.668A.5.5 0 0 0 36 39h4a.5.5 0 0 0 .398-.8zm-26 0a.498.498 0 0 0-.796 0l-2 2.668A.5.5 0 0 0 10 39h4a.5.5 0 0 0 .398-.8z" fill="#fff"/></svg>