<svg xmlns="http://www.w3.org/2000/svg" viewBox="0 0 40 40"><path d="M25 28c0 3.313-2.688 6-6 6-3.313 0-6-2.688-6-6 0-3.313 2.688-6 6-6 3.313 0 6 2.688 6 6z" fill="none" stroke-width="2" stroke="#4788c7" stroke-miterlimit="10"/><path d="M5.07 23.5H1.5v-7h3.57L38.5 6.668v26.664z" fill="#b6dcfe"/><path d="M38 7.336v25.328L5.281 23.04 5.145 23H2v-6h3.145l.136-.04L38 7.337M39 6L5 16H1v8h4l34 10z" fill="#4788c7"/><path d="M1.5 16.5h3v7h-3z" fill="#98ccfd"/><path d="M4 17v6H2v-6h2m1-1H1v8h4z" fill="#4788c7"/><path d="M8 20a1 1 0 0 1-.273-1.96l27-8a1.002 1.002 0 0 1 .547 1.926l-27 7.995A.926.926 0 0 1 8 20z" fill="#fff"/><path d="M3 3l34 34" fill="none" stroke-width="2" stroke-linecap="round" stroke="#4788c7" stroke-miterlimit="10"/></svg>