<svg xmlns="http://www.w3.org/2000/svg" viewBox="0 0 64 64"><path d="M59 50L5 36V20L59 6z" fill="#c2cde7"/><path d="M5 22v3l54-9v-6z" fill="#ced8ed"/><path d="M59 50L5 36v-1.648c0-1.79 1.555-3.18 3.332-2.98l47.11 5.233A3.997 3.997 0 0 1 59 40.578z" fill="#b5c4e0"/><path d="M63 5v46a1.999 1.999 0 1 1-4 0V5a1.999 1.999 0 1 1 4 0zM5 19v18a1.999 1.999 0 1 1-4 0V19a1.999 1.999 0 1 1 4 0z" fill="#f9dd8f"/><path d="M61 2c-1.652 0-3 1.348-3 3v.227l-41.578 10.78L4.707 4.294a1 1 0 1 0-1.414 1.414L14.176 16.59l-8.203 2.125C5.824 17.195 4.559 16 3 16c-1.652 0-3 1.348-3 3v18c0 1.652 1.348 3 3 3 1.559 0 2.824-1.195 2.973-2.715l6.972 1.809-1.187 4.433a4.955 4.955 0 0 0 .5 3.793 4.96 4.96 0 0 0 3.035 2.328l9.113 2.446a5.16 5.16 0 0 0 1.305.172c.867 0 1.723-.23 2.492-.672a4.961 4.961 0 0 0 2.328-3.035l1.23-4.59 13.223 3.43 12.309 12.308c.195.195.45.293.707.293a1 1 0 0 0 .707-1.707l-9.902-9.902L58 50.773V51c0 1.652 1.348 3 3 3s3-1.348 3-3V5c0-1.652-1.348-3-3-3zM4 37c0 .55-.45 1-1 1s-1-.45-1-1V19c0-.55.45-1 1-1s1 .45 1 1zm24.598 11.04a2.968 2.968 0 0 1-1.399 1.82c-.691.402-1.5.507-2.273.3l-9.117-2.441a2.979 2.979 0 0 1-1.82-1.399 2.984 2.984 0 0 1-.302-2.273l1.196-4.453 14.941 3.875zM20 38.854V35a1 1 0 1 0-2 0v3.34L6 35.227V20.773l9.816-2.546 26.38 26.382zm35.934 9.317c.004-.043.023-.082.023-.129 0-.555-.445-1-1-1h-2a.985.985 0 0 0-.582.207l-6.36-1.648-27.953-27.954 34.223-8.875a1 1 0 0 0 .676.27h2a1 1 0 0 0 1-1c0-.074-.027-.14-.043-.211L58 7.293v41.414zM62 51c0 .55-.45 1-1 1s-1-.45-1-1V5c0-.55.45-1 1-1s1 .45 1 1z" fill="#8d6c9f"/><path d="M54.957 12.043h-2a1 1 0 1 0 0 2h2a1 1 0 1 0 0-2zm0 5h-2a1 1 0 1 0 0 2h2a1 1 0 1 0 0-2zm0 5h-2a1 1 0 1 0 0 2h2a1 1 0 1 0 0-2zm0 5h-2a1 1 0 1 0 0 2h2a1 1 0 1 0 0-2zm0 5h-2a1 1 0 1 0 0 2h2a1 1 0 1 0 0-2zm0 5h-2a1 1 0 1 0 0 2h2a1 1 0 1 0 0-2zm0 5h-2a1 1 0 1 0 0 2h2a1 1 0 1 0 0-2zM19 32a1 1 0 0 0 1-1v-6a1 1 0 1 0-2 0v6a1 1 0 0 0 1 1z" fill="#8d6c9f"/></svg>