<svg xmlns="http://www.w3.org/2000/svg" viewBox="0 0 32 32"><path d="M11.5 23C9.957 23 9 22.09 9 20.617h2c0 .301 0 .383.5.383.434 0 .5-.313.5-.5 0-.273-.227-.5-.5-.5A2.502 2.502 0 0 1 9 17.5c0-1.379 1.121-2.5 2.5-2.5 1.625 0 2.5 1.238 2.5 2.406h-2c0-.12-.05-.406-.5-.406-.273 0-.5.227-.5.5s.227.5.5.5c1.379 0 2.5 1.121 2.5 2.5 0 1.426-1.074 2.5-2.5 2.5zm5.5-3h4c0-1.652-1.348-3-3-3s-3 1.348-3 3 1.348 3 3 3a3 3 0 0 0 2.816-2H18c-.55 0-1-.45-1-1zM28.707 5.707l-1.414-1.414L20 11.586l-3.293-3.293-1.414 1.414L20 14.414zM25 10.828V24c0 .55-.45 1-1 1H8c-.55 0-1-.45-1-1V8c0-.55.45-1 1-1h15.172l1.82-1.82A2.997 2.997 0 0 0 24 5H8C6.348 5 5 6.348 5 8v16c0 1.652 1.348 3 3 3h16c1.652 0 3-1.348 3-3V8.828z"/></svg>