<svg xmlns="http://www.w3.org/2000/svg" viewBox="0 0 64 64"><path d="M59 15v34a9.999 9.999 0 0 1-10 10H15A9.999 9.999 0 0 1 5 49V15C5 9.48 9.48 5 15 5h34c5.52 0 10 4.48 10 10z" fill="#c2cde7"/><path d="M58.969 1.031L40 20l-7.59-7.59-4 4L40 28 62.969 5.031z" fill="#72caaf"/><path d="M40 23.086a2.51 2.51 0 0 1-1.77-.73l-7.878-7.883 2.12-2.121L40 19.879 58.91.969l2.121 2.12L41.77 22.356a2.51 2.51 0 0 1-1.77.73z" fill="#97e0bb"/><path d="M57.66 54A9.999 9.999 0 0 1 49 59H15c-3.7 0-6.93-2.012-8.66-5z" fill="#acb7d0"/><path d="M63.707 4.293l-4-4a1 1 0 0 0-1.414 0L53.57 5.016A10.843 10.843 0 0 0 49 4H15C8.93 4 4 8.93 4 15v34c0 2.492.84 4.785 2.242 6.633.024.023.035.058.063.082C8.316 58.316 11.46 60 15 60h34c3.54 0 6.684-1.684 8.695-4.285.028-.024.043-.059.063-.082A10.93 10.93 0 0 0 60 49V15c0-1.637-.371-3.176-1.016-4.57l4.723-4.723a1 1 0 0 0 0-1.414zM58 15v34a8.942 8.942 0 0 1-.566 3.11A.964.964 0 0 0 57 52c-.555 0-1 .445-1 1v1.64A8.981 8.981 0 0 1 49 58H15a8.981 8.981 0 0 1-7-3.36V53c0-.555-.445-1-1-1-.156 0-.3.043-.434.11A8.942 8.942 0 0 1 6 49V15c0-4.96 4.04-9 9-9h34c1.07 0 2.094.191 3.047.54L40 18.585l-7.293-7.293a1 1 0 0 0-1.414 0l-4 4a1 1 0 0 0 0 1.414l12 12c.195.195.45.293.707.293a.993.993 0 0 0 .707-.293l16.754-16.754c.348.953.539 1.977.539 3.047zM40 26.586L29.414 16 32 13.414l7.293 7.293a1 1 0 0 0 1.414 0L59 2.414 61.586 5z" fill="#8d6c9f"/><path d="M12 52c-.555 0-1 .445-1 1v2c0 .555.445 1 1 1 .555 0 1-.445 1-1v-2c0-.555-.445-1-1-1zm15 0c-.555 0-1 .445-1 1v2c0 .555.445 1 1 1 .555 0 1-.445 1-1v-2c0-.555-.445-1-1-1zm5 0c-.555 0-1 .445-1 1v2c0 .555.445 1 1 1 .555 0 1-.445 1-1v-2c0-.555-.445-1-1-1zm5 0c-.555 0-1 .445-1 1v2c0 .555.445 1 1 1 .555 0 1-.445 1-1v-2c0-.555-.445-1-1-1zm5 0c-.555 0-1 .445-1 1v2c0 .555.445 1 1 1 .555 0 1-.445 1-1v-2c0-.555-.445-1-1-1zm4 3c0 .555.445 1 1 1 .555 0 1-.445 1-1v-2c0-.555-.445-1-1-1-.555 0-1 .445-1 1zm6 1c.555 0 1-.445 1-1v-2c0-.555-.445-1-1-1-.555 0-1 .445-1 1v2c0 .555.445 1 1 1zm-35-4c-.555 0-1 .445-1 1v2c0 .555.445 1 1 1 .555 0 1-.445 1-1v-2c0-.555-.445-1-1-1zm5 0c-.555 0-1 .445-1 1v2c0 .555.445 1 1 1 .555 0 1-.445 1-1v-2c0-.555-.445-1-1-1z" fill="#8d6c9f"/><path d="M21 26h4c1.652 0 3 1.348 3 3 0 .555.445 1 1 1 .555 0 1-.445 1-1 0-2.758-2.242-5-5-5h-4c-2.758 0-5 2.242-5 5v3c0 2.758 2.242 5 5 5h4c1.652 0 3 1.348 3 3v3c0 1.652-1.348 3-3 3h-4c-1.652 0-3-1.348-3-3 0-.555-.445-1-1-1-.555 0-1 .445-1 1 0 2.758 2.242 5 5 5h4c2.758 0 5-2.242 5-5v-3c0-2.758-2.242-5-5-5h-4c-1.652 0-3-1.348-3-3v-3c0-1.652 1.348-3 3-3zm13 11v6c0 2.758 2.242 5 5 5h2c2.758 0 5-2.242 5-5 0-.555-.445-1-1-1-.555 0-1 .445-1 1 0 1.652-1.348 3-3 3h-2c-1.652 0-3-1.348-3-3v-3h9c.555 0 1-.445 1-1v-2c0-2.758-2.242-5-5-5h-2c-2.758 0-5 2.242-5 5zm10 0v1h-8v-1c0-1.652 1.348-3 3-3h2c1.652 0 3 1.348 3 3z" fill="#fff"/></svg>