<svg xmlns="http://www.w3.org/2000/svg" viewBox="0 0 24 24"><path d="M11 2a2 2 0 0 0-2 2 2 2 0 0 0 1.219 1.844l.062.437a5.92 5.92 0 0 0-1.719.844L3.47 2.031 2.03 3.47l18.5 18.5 1.438-1.438-5.094-5.093A5.98 5.98 0 0 0 17.906 13h.375c.348.598.98 1 1.719 1a1.999 1.999 0 1 0 0-4c-.738 0-1.371.402-1.719 1h-.375c-.152-.91-.52-1.715-1.031-2.438l.625-.624A1.999 1.999 0 0 0 20 6a1.999 1.999 0 1 0-3.938.5l-.625.625c-.906-.64-1.972-1.07-3.156-1.125l-.062-.438A1.98 1.98 0 0 0 13 4a2 2 0 0 0-2-2zM3.531 7.656A1.99 1.99 0 0 0 3 9a2 2 0 0 0 2 2 1.94 1.94 0 0 0 1.156-.375A5.913 5.913 0 0 0 6 12c0 .484.078.957.188 1.406A1.998 1.998 0 0 0 5 13a1.999 1.999 0 1 0 0 4c1.02 0 1.844-.766 1.969-1.75a6.04 6.04 0 0 0 2 1.938l-.313.843A1.998 1.998 0 0 0 9 22a2 2 0 0 0 2-2c0-.48-.188-.906-.469-1.25l.344-.875c.363.066.742.125 1.125.125.477 0 .93-.05 1.375-.156A1.94 1.94 0 0 0 13 19a2 2 0 0 0 2 2c.52 0 .988-.207 1.344-.531l-5.438-5.438a1.38 1.38 0 0 1-1.031.469A1.377 1.377 0 0 1 8.5 14.125c0-.41.184-.777.469-1.031zM14.5 9a1.5 1.5 0 1 1 0 3 1.5 1.5 0 0 1 0-3z"/></svg>