<svg xmlns="http://www.w3.org/2000/svg" viewBox="0 0 32 32"><path d="M3.719 2.281L2.28 3.72l26 26 1.438-1.438-7.407-7.406c.247-.32.489-.645.688-1l1.031.406A1.99 1.99 0 0 0 26 22a1.999 1.999 0 1 0 0-4c-.46 0-.879.172-1.219.438l-1.062-.407c.113-.418.176-.84.218-1.281A1.98 1.98 0 0 0 25 15c0-.957-.664-1.77-1.563-1.969-.187-.469-.449-.89-.718-1.312l.781-.781A1.999 1.999 0 0 0 26 9a1.999 1.999 0 1 0-3.938.5l-.625.625A8.027 8.027 0 0 0 17 8.062V7.72c.598-.348 1-.98 1-1.719a1.999 1.999 0 1 0-4 0c0 .738.402 1.371 1 1.719v.343a8.048 8.048 0 0 0-3.875 1.594l-.5-.5A2.02 2.02 0 0 0 11 8a2 2 0 0 0-2-2c-.43 0-.828.145-1.156.375zM16 10c3.309 0 6 2.691 6 6a5.97 5.97 0 0 1-1.094 3.438l-3.781-3.782A1.99 1.99 0 0 0 18 14a2 2 0 0 0-2-2c-.691 0-1.297.344-1.656.875l-1.781-1.781A5.97 5.97 0 0 1 16 10zm-7.344 2.844A7.836 7.836 0 0 0 8.062 15H7.72c-.348-.598-.98-1-1.719-1a1.999 1.999 0 1 0 0 4c.738 0 1.371-.402 1.719-1h.343c.118.918.383 1.8.782 2.594L7.469 21a1.98 1.98 0 0 0-.532-.063 1.999 1.999 0 1 0 0 4c1.106 0 2-.894 2-2a1.98 1.98 0 0 0-.062-.53L10 21.28a7.92 7.92 0 0 0 2.25 1.782c-.148.28-.25.597-.25.937a1.999 1.999 0 1 0 4 0c.695 0 1.387-.113 2.031-.281l.407 1.062c-.266.34-.438.754-.438 1.219a2 2 0 0 0 2 2 1.975 1.975 0 0 0 1.969-1.813l-4.375-4.406A6.131 6.131 0 0 1 16 22c-3.309 0-6-2.691-6-6 0-.547.082-1.09.219-1.594zM20 15c-.55 0-1 .45-1 1s.45 1 1 1 1-.45 1-1-.45-1-1-1zm-7.156 2.031c-.469.082-.844.477-.844.969 0 .55.45 1 1 1 .492 0 .887-.375.969-.844z"/></svg>