<svg xmlns="http://www.w3.org/2000/svg" viewBox="0 0 40 40"><line x1="20" y1="20" x2="8" y2="32" fill="none" stroke="#5e9c76" stroke-width="2" stroke-linecap="round" stroke-miterlimit="10"/><line x1="32.214" y1="32.214" x2="20" y2="20" fill="none" stroke="#5e9c76" stroke-width="2" stroke-linecap="round" stroke-miterlimit="10"/><line x1="32" y1="8" x2="20" y2="20" fill="none" stroke="#5e9c76" stroke-width="2" stroke-miterlimit="10"/><circle cx="32" cy="8" r="2.5" fill="#bae0bd"/><path d="M32 6c1.103 0 2 .897 2 2s-.897 2-2 2-2-.897-2-2 .897-2 2-2m0-1a3 3 0 1 0 0 6 3 3 0 0 0 0-6z" fill="#5e9c76"/><line x1="7.786" y1="7.786" x2="20" y2="20" fill="none" stroke="#5e9c76" stroke-width="2" stroke-miterlimit="10"/><path d="M20 30.357c-5.711 0-10.357-4.646-10.357-10.357S14.289 9.643 20 9.643 30.357 14.289 30.357 20 25.711 30.357 20 30.357z" fill="#bae0bd"/><path d="M20 10.143c5.435 0 9.857 4.422 9.857 9.857S25.435 29.857 20 29.857 10.143 25.435 10.143 20s4.422-9.857 9.857-9.857m0-1C14.004 9.143 9.143 14.004 9.143 20S14.004 30.857 20 30.857 30.857 25.996 30.857 20 25.996 9.143 20 9.143z" fill="#5e9c76"/><circle cx="8" cy="8" r="2.5" fill="#bae0bd"/><path d="M8 6c1.103 0 2 .897 2 2s-.897 2-2 2-2-.897-2-2 .897-2 2-2m0-1a3 3 0 1 0 0 6 3 3 0 0 0 0-6z" fill="#5e9c76"/><circle cx="8" cy="32" r="2.5" fill="#bae0bd"/><path d="M8 30c1.103 0 2 .897 2 2s-.897 2-2 2-2-.897-2-2 .897-2 2-2m0-1a3 3 0 1 0 0 6 3 3 0 0 0 0-6z" fill="#5e9c76"/><line x1="20" y1="12" x2="20" y2="4" fill="none" stroke="#5e9c76" stroke-width="2" stroke-linecap="round" stroke-miterlimit="10"/><circle cx="20" cy="4" r="2.5" fill="#bae0bd"/><path d="M20 2c1.103 0 2 .897 2 2s-.897 2-2 2-2-.897-2-2 .897-2 2-2m0-1a3 3 0 1 0 0 6 3 3 0 0 0 0-6z" fill="#5e9c76"/><circle cx="20" cy="20" r="2.5" fill="#bae0bd"/><path d="M20 18c1.103 0 2 .897 2 2s-.897 2-2 2-2-.897-2-2 .897-2 2-2m0-1a3 3 0 1 0 0 6 3 3 0 0 0 0-6z" fill="#5e9c76"/><circle cx="32" cy="32" r="2.5" fill="#bae0bd"/><path d="M32 30c1.103 0 2 .897 2 2s-.897 2-2 2-2-.897-2-2 .897-2 2-2m0-1a3 3 0 1 0 0 6 3 3 0 0 0 0-6z" fill="#5e9c76"/><line x1="20" y1="28" x2="20" y2="36" fill="none" stroke="#5e9c76" stroke-width="2" stroke-linecap="round" stroke-linejoin="round" stroke-miterlimit="10"/><circle cx="20" cy="36" r="2.5" fill="#bae0bd"/><path d="M20 34c1.103 0 2 .897 2 2s-.897 2-2 2-2-.897-2-2 .897-2 2-2m0-1a3 3 0 1 0 0 6 3 3 0 0 0 0-6z" fill="#5e9c76"/><line x1="28" y1="20" x2="36" y2="20" fill="none" stroke="#5e9c76" stroke-width="2" stroke-linecap="round" stroke-linejoin="round" stroke-miterlimit="10"/><circle cx="36" cy="20" r="2.5" fill="#bae0bd"/><path d="M36 18c1.103 0 2 .897 2 2s-.897 2-2 2-2-.897-2-2 .897-2 2-2m0-1a3 3 0 1 0 0 6 3 3 0 0 0 0-6z" fill="#5e9c76"/><line x1="3" y1="3" x2="37" y2="37" fill="none" stroke="#36404d" stroke-miterlimit="10"/><line x1="4" y1="20" x2="12" y2="20" fill="none" stroke="#5e9c76" stroke-width="2" stroke-linecap="round" stroke-miterlimit="10"/><circle cx="4" cy="20" r="2.5" fill="#bae0bd"/><path d="M4 18c1.103 0 2 .897 2 2s-.897 2-2 2-2-.897-2-2 .897-2 2-2m0-1a3 3 0 1 0 0 6 3 3 0 0 0 0-6z" fill="#5e9c76"/></svg>