<svg xmlns="http://www.w3.org/2000/svg" viewBox="0 0 40 40"><path d="M20 20L8 32m24.215.215L20 20" fill="#dff0fe" stroke-width="2" stroke-linecap="round" stroke="#4788c7" stroke-miterlimit="10"/><path d="M32 8L20 20" fill="#dff0fe" stroke-width="2" stroke="#4788c7" stroke-miterlimit="10"/><path d="M34.5 8c0 1.379-1.121 2.5-2.5 2.5A2.502 2.502 0 0 1 29.5 8c0-1.379 1.121-2.5 2.5-2.5s2.5 1.121 2.5 2.5z" fill="#dff0fe"/><path d="M32 6c1.102 0 2 .898 2 2 0 1.102-.898 2-2 2-1.102 0-2-.898-2-2 0-1.102.898-2 2-2m0-1a3 3 0 1 0 .002 6.002A3 3 0 0 0 32 5z" fill="#4788c7"/><path d="M7.785 7.785L20 20" fill="#dff0fe" stroke-width="2" stroke="#4788c7" stroke-miterlimit="10"/><path d="M20 30.355c-5.71 0-10.355-4.644-10.355-10.355 0-5.71 4.644-10.355 10.355-10.355 5.71 0 10.355 4.644 10.355 10.355 0 5.71-4.644 10.355-10.355 10.355z" fill="#dff0fe"/><path d="M20 10.145c5.434 0 9.855 4.421 9.855 9.855S25.434 29.855 20 29.855 10.145 25.434 10.145 20s4.421-9.855 9.855-9.855m0-1C14.004 9.145 9.145 14.004 9.145 20S14.004 30.855 20 30.855 30.855 25.996 30.855 20 25.996 9.145 20 9.145z" fill="#4788c7"/><path d="M10.5 8c0 1.379-1.121 2.5-2.5 2.5A2.502 2.502 0 0 1 5.5 8c0-1.379 1.121-2.5 2.5-2.5s2.5 1.121 2.5 2.5z" fill="#dff0fe"/><path d="M8 6c1.102 0 2 .898 2 2 0 1.102-.898 2-2 2-1.102 0-2-.898-2-2 0-1.102.898-2 2-2m0-1a3 3 0 1 0 .002 6.002A3 3 0 0 0 8 5z" fill="#4788c7"/><path d="M10.5 32c0 1.379-1.121 2.5-2.5 2.5A2.502 2.502 0 0 1 5.5 32c0-1.379 1.121-2.5 2.5-2.5s2.5 1.121 2.5 2.5z" fill="#dff0fe"/><path d="M8 30c1.102 0 2 .898 2 2 0 1.102-.898 2-2 2-1.102 0-2-.898-2-2 0-1.102.898-2 2-2m0-1a3 3 0 1 0 .002 6.002A3 3 0 0 0 8 29z" fill="#4788c7"/><path d="M20 12V4" fill="none" stroke-width="2" stroke-linecap="round" stroke="#4788c7" stroke-miterlimit="10"/><path d="M22.5 4c0 1.379-1.121 2.5-2.5 2.5A2.502 2.502 0 0 1 17.5 4c0-1.379 1.121-2.5 2.5-2.5s2.5 1.121 2.5 2.5z" fill="#dff0fe"/><path d="M20 2c1.102 0 2 .898 2 2 0 1.102-.898 2-2 2-1.102 0-2-.898-2-2 0-1.102.898-2 2-2m0-1a3 3 0 1 0 .002 6.002A3 3 0 0 0 20 1z" fill="#4788c7"/><path d="M22.5 20c0 1.379-1.121 2.5-2.5 2.5a2.502 2.502 0 0 1-2.5-2.5c0-1.379 1.121-2.5 2.5-2.5s2.5 1.121 2.5 2.5z" fill="#dff0fe"/><path d="M20 18c1.102 0 2 .898 2 2 0 1.102-.898 2-2 2-1.102 0-2-.898-2-2 0-1.102.898-2 2-2m0-1a3 3 0 1 0 .002 6.002A3 3 0 0 0 20 17z" fill="#4788c7"/><path d="M34.5 32c0 1.379-1.121 2.5-2.5 2.5a2.502 2.502 0 0 1-2.5-2.5c0-1.379 1.121-2.5 2.5-2.5s2.5 1.121 2.5 2.5z" fill="#dff0fe"/><path d="M32 30c1.102 0 2 .898 2 2 0 1.102-.898 2-2 2-1.102 0-2-.898-2-2 0-1.102.898-2 2-2m0-1a3 3 0 1 0 .002 6.002A3 3 0 0 0 32 29z" fill="#4788c7"/><path d="M20 28v8" fill="none" stroke-width="2" stroke-linecap="round" stroke-linejoin="round" stroke="#4788c7" stroke-miterlimit="10"/><path d="M22.5 36c0 1.379-1.121 2.5-2.5 2.5a2.502 2.502 0 0 1-2.5-2.5c0-1.379 1.121-2.5 2.5-2.5s2.5 1.121 2.5 2.5z" fill="#dff0fe"/><path d="M20 34c1.102 0 2 .898 2 2 0 1.102-.898 2-2 2-1.102 0-2-.898-2-2 0-1.102.898-2 2-2m0-1a3 3 0 1 0 .002 6.002A3 3 0 0 0 20 33z" fill="#4788c7"/><path d="M28 20h8" fill="none" stroke-width="2" stroke-linecap="round" stroke-linejoin="round" stroke="#4788c7" stroke-miterlimit="10"/><path d="M38.5 20c0 1.379-1.121 2.5-2.5 2.5a2.502 2.502 0 0 1-2.5-2.5c0-1.379 1.121-2.5 2.5-2.5s2.5 1.121 2.5 2.5z" fill="#dff0fe"/><path d="M36 18c1.102 0 2 .898 2 2 0 1.102-.898 2-2 2-1.102 0-2-.898-2-2 0-1.102.898-2 2-2m0-1a3 3 0 1 0 .002 6.002A3 3 0 0 0 36 17z" fill="#4788c7"/><path d="M4 20h8" fill="none" stroke-width="2" stroke-linecap="round" stroke="#4788c7" stroke-miterlimit="10"/><path d="M6.5 20c0 1.379-1.121 2.5-2.5 2.5A2.502 2.502 0 0 1 1.5 20c0-1.379 1.121-2.5 2.5-2.5s2.5 1.121 2.5 2.5z" fill="#dff0fe"/><path d="M4 18c1.102 0 2 .898 2 2 0 1.102-.898 2-2 2-1.102 0-2-.898-2-2 0-1.102.898-2 2-2m0-1a3 3 0 1 0 .002 6.002A3 3 0 0 0 4 17z" fill="#4788c7"/><path d="M3 3l34 34" fill="none" stroke-width="2" stroke-linecap="round" stroke="#4788c7" stroke-miterlimit="10"/></svg>