<svg xmlns="http://www.w3.org/2000/svg" viewBox="0 0 16 16"><path style="line-height:normal;text-indent:0;text-align:start;text-decoration-line:none;text-decoration-style:solid;text-decoration-color:#000;text-transform:none;block-progression:tb;isolation:auto;mix-blend-mode:normal" d="M3.5 2C2.677 2 2 2.677 2 3.5V8h1V3.5c0-.281.219-.5.5-.5h9c.281 0 .5.219.5.5V8h1V3.5c0-.823-.677-1.5-1.5-1.5h-9zM0 9l1 2.5L0 14h1l.5-1.25L2 14h1l-1-2.5L3 9H2l-.5 1.25L1 9H0zm5.5 0C4.677 9 4 9.677 4 10.5V14h1v-1.002l1-.002V14h1v-3.5C7 9.677 6.323 9 5.5 9zm4 0C8.677 9 8 9.677 8 10.5V14h1v-3.5c0-.281.219-.5.5-.5s.5.219.5.5V14h1v-3.5c0-.281.219-.5.5-.5s.5.219.5.5V14h1v-3.5c0-.823-.677-1.5-1.5-1.5-.384 0-.733.151-1 .393A1.488 1.488 0 0 0 9.5 9zM14 9v5h2v-1h-1V9h-1zm-8.5 1c.281 0 .5.219.5.5v1.496l-1 .002V10.5c0-.281.219-.5.5-.5z" font-weight="400" font-family="sans-serif" white-space="normal" overflow="visible"/></svg>