<svg xmlns="http://www.w3.org/2000/svg" viewBox="0 0 64 64"><linearGradient id="a" gradientUnits="userSpaceOnUse" x1="37" y1="30.938" x2="37" y2="35.189" spreadMethod="reflect"><stop offset="0" stop-color="#6dc7ff"/><stop offset="1" stop-color="#e6abff"/></linearGradient><circle cx="37" cy="33" r="2" fill="url(#a)"/><linearGradient id="b" gradientUnits="userSpaceOnUse" x1="27" y1="30.938" x2="27" y2="35.189" spreadMethod="reflect"><stop offset="0" stop-color="#6dc7ff"/><stop offset="1" stop-color="#e6abff"/></linearGradient><circle cx="27" cy="33" r="2" fill="url(#b)"/><linearGradient id="c" gradientUnits="userSpaceOnUse" x1="32" y1="37" x2="32" y2="41.379" spreadMethod="reflect"><stop offset="0" stop-color="#6dc7ff"/><stop offset="1" stop-color="#e6abff"/></linearGradient><path d="M34 37h-4a1 1 0 0 0-1 1 3 3 0 1 0 6 0 1 1 0 0 0-1-1z" fill="url(#c)"/><linearGradient id="d" gradientUnits="userSpaceOnUse" x1="32" y1="5.75" x2="32" y2="58.806" spreadMethod="reflect"><stop offset="0" stop-color="#1a6dff"/><stop offset="1" stop-color="#c822ff"/></linearGradient><path d="M53 56v-2c0-6.415-2.841-12.322-7.811-16.333.081-.227.165-.453.234-.685A5.007 5.007 0 0 0 50 32c0-.47-.086-.916-.208-1.347A4.988 4.988 0 0 0 53 26c0-1.639-.803-3.083-2.025-3.995A4.985 4.985 0 0 0 52 19c0-2.757-2.243-5-5-5 0-2.757-2.243-5-5-5-.789 0-1.554.192-2.243.539C39.127 7.498 37.245 6 35 6a4.955 4.955 0 0 0-3 1.019A4.955 4.955 0 0 0 29 6c-2.249 0-4.133 1.502-4.76 3.548A4.91 4.91 0 0 0 22 9c-2.757 0-5 2.243-5 5-2.757 0-5 2.243-5 5 0 1.094.374 2.146 1.025 3.005C11.803 22.917 11 24.361 11 26a4.988 4.988 0 0 0 3.208 4.653A4.917 4.917 0 0 0 14 32a5.007 5.007 0 0 0 4.577 4.982c.069.232.154.458.234.685C13.841 41.677 11 47.584 11 54v2H9v2h46v-2h-2zm-19-8c0 1.103-.897 2-2 2s-2-.897-2-2c0-.399.124-.782.343-1.109.544.064 1.095.109 1.657.109s1.112-.044 1.657-.109c.219.327.343.71.343 1.109zm-5.858 1L24 51.301v-6.83a13.934 13.934 0 0 0 4.3 2.025c-.193.474-.3.982-.3 1.504 0 .347.058.678.142 1zm7.557-2.504A13.94 13.94 0 0 0 40 44.471v6.83L35.858 49c.084-.322.142-.653.142-1 0-.522-.108-1.03-.301-1.504zM32 45c-6.617 0-12-5.383-12-12v-4.091a6.015 6.015 0 0 0 4.447-3.395A4.997 4.997 0 0 0 32 24.997a4.997 4.997 0 0 0 7.553.518A6.017 6.017 0 0 0 44 28.91V33c0 6.617-5.383 12-12 12zm13.876-10.13c.082-.612.124-1.236.124-1.87v-3.829c1.164.413 2 1.525 2 2.829 0 1.35-.896 2.494-2.124 2.87zM16 32c0-1.304.836-2.416 2-2.829V33c0 .634.042 1.258.124 1.87A3.006 3.006 0 0 1 16 32zm-.864-3.134A2.993 2.993 0 0 1 13 26c0-1.654 1.346-3 3-3v-2c-.372 0-.731.047-1.08.125-.58-.563-.92-1.308-.92-2.125 0-1.654 1.346-3 3-3h2v-2c0-1.654 1.346-3 3-3 .743 0 1.447.3 2 .81V13h2v-2c0-1.654 1.346-3 3-3 .864 0 1.662.369 2.247 1.038l.753.861.753-.861A2.955 2.955 0 0 1 35 8c1.654 0 3 1.346 3 3v2h2v-1.213A2.986 2.986 0 0 1 42 11c1.654 0 3 1.346 3 3v2h2c1.654 0 3 1.346 3 3 0 .817-.34 1.562-.92 2.125A4.932 4.932 0 0 0 48 21v2c1.654 0 3 1.346 3 3 0 1.33-.875 2.487-2.136 2.866C47.946 27.737 46.564 27 45 27c-2.206 0-4-1.794-4-4v-1h-2c0 1.654-1.346 3-3 3s-3-1.346-3-3h-2c0 1.654-1.346 3-3 3s-3-1.346-3-3h-2v1c0 2.206-1.794 4-4 4-1.564 0-2.946.737-3.864 1.866zM47 56v-2h-2v2H19v-2h-2v2h-4v-2c0-5.624 2.409-10.819 6.649-14.436A14.072 14.072 0 0 0 22 42.783v8.518c0 .716.368 1.36.985 1.724a1.99 1.99 0 0 0 1.986.024l4.138-2.299C29.838 51.516 30.861 52 32 52s2.162-.484 2.891-1.25l4.138 2.299c.306.17.639.255.972.255.35 0 .698-.094 1.014-.279A1.983 1.983 0 0 0 42 51.301v-8.518c.93-.951 1.72-2.036 2.351-3.219C48.591 43.182 51 48.377 51 54v2h-4z" fill="url(#d)"/></svg>