<svg xmlns="http://www.w3.org/2000/svg" viewBox="0 0 50 50"><path d="M49.555 24.168l-8.246-5.496c-.188-.125-.344-.508-.301-.73l1.941-9.715a1.008 1.008 0 0 0-.27-.907 1.008 1.008 0 0 0-.906-.27L32.06 8.993c-.223.04-.606-.113-.73-.3L25.831.444c-.371-.558-1.293-.558-1.664 0L18.671 8.69c-.125.188-.512.344-.73.301l-9.715-1.94a1.005 1.005 0 0 0-.907.27 1.008 1.008 0 0 0-.27.906l1.942 9.714c.043.223-.113.606-.3.73L.444 24.169a1.003 1.003 0 0 0 0 1.664l8.246 5.496c.188.125.344.508.301.73L7.05 41.774c-.067.329.035.668.27.907.238.234.577.34.906.27l9.714-1.942c.215-.043.606.113.73.3l5.497 8.247a1.003 1.003 0 0 0 1.664 0l5.496-8.246c.125-.188.512-.344.73-.301l9.715 1.941a.998.998 0 0 0 .907-.27 1.01 1.01 0 0 0 .27-.906l-1.942-9.714c-.043-.223.113-.606.3-.73l8.247-5.497a1.003 1.003 0 0 0 0-1.664zM25 37c-6.629 0-12-5.371-12-12s5.371-12 12-12 12 5.371 12 12-5.371 12-12 12z"/></svg>