<svg xmlns="http://www.w3.org/2000/svg" viewBox="0 0 50 50"><path d="M25 0C11.203 0 0 11.203 0 25c0 7.05 2.922 13.422 7.625 17.969V43c.105.21.285.375.5.469.016.015.047.015.063.031h.03C12.657 47.527 18.544 50 25 50a24.938 24.938 0 0 0 16.813-6.5l.03-.031c.227-.086.419-.254.532-.469v-.031C47.078 38.422 50 32.05 50 25 50 11.203 38.797 0 25 0zm0 2c12.715 0 23 10.285 23 23 0 6.309-2.52 12.035-6.625 16.188-1.941-1.47-4.266-2.258-6.25-3.063-2.195-.89-3.777-1.766-4.25-2.938v-.093c1.742-.227 3.406-.516 4.594-.969.718-.273 1.328-.578 1.812-.969.485-.39.907-.926.907-1.656a.994.994 0 0 0-.313-.75c-.121-.11-.355-.535-.5-1.281-.145-.746-.223-1.754-.25-2.907-.055-2.3.055-5.18-.094-8-.148-2.82-.515-5.597-1.718-7.78C34.148 8.667 32 7.21 29.03 7.218c-.957-.664-2.254-1.125-3.937-1.125h-.063c-4.05.293-6.851 1.926-8.593 4.25-1.743 2.324-2.465 5.238-2.813 8.125-.348 2.886-.305 5.781-.406 8.093-.051 1.157-.153 2.184-.313 2.938s-.386 1.188-.562 1.344a.986.986 0 0 0-.344.75c0 .71.402 1.39.906 1.812.504.422 1.106.676 1.813.907 1.156.374 2.758.566 4.406.78-.004.036.004.055 0 .094-.473 1.172-2.055 2.047-4.25 2.938-1.984.805-4.309 1.594-6.25 3.063A22.949 22.949 0 0 1 2 25C2 12.285 12.285 2 25 2zm.094 6.094h.062c1.469.015 2.563.5 3 .875a.996.996 0 0 0 .688.219c2.523-.09 3.785.87 4.718 2.562.934 1.691 1.329 4.21 1.47 6.906.14 2.696.038 5.535.093 7.938.027 1.199.102 2.304.281 3.25.125.648.344 1.207.657 1.718-.028.028.023-.011-.032.032-.23.183-.687.43-1.281.656-1.188.453-2.95.867-5.031 1.063a1.003 1.003 0 0 0-.907 1.187c.079.398.094.7.094 1 0 .117.024.234.063.344.843 2.21 3.125 3.199 5.406 4.125 1.898.77 3.898 1.52 5.469 2.593A22.89 22.89 0 0 1 25 48a22.89 22.89 0 0 1-14.844-5.438c1.57-1.074 3.57-1.824 5.469-2.593 2.281-.926 4.563-1.914 5.406-4.125.028-.059.047-.125.063-.188.11-.652.093-1.043.093-1.343a.998.998 0 0 0-.875-1c-2.082-.247-3.832-.54-4.968-.907-.567-.183-.969-.406-1.156-.562-.079-.067-.07-.063-.094-.094.37-.54.633-1.148.781-1.844.203-.957.293-2.05.344-3.25.105-2.402.078-5.226.406-7.937.328-2.711 1.023-5.27 2.438-7.157 1.406-1.874 3.476-3.199 7.03-3.468z"/></svg>