<svg xmlns="http://www.w3.org/2000/svg" viewBox="0 0 32 32"><path d="M16 3C8.832 3 3 8.832 3 16s5.832 13 13 13 13-5.832 13-13S23.168 3 16 3zm0 2c6.086 0 11 4.914 11 11s-4.914 11-11 11S5 22.086 5 16 9.914 5 16 5zm0 3c-2.75 0-5 2.25-5 5 0 1.516.707 2.863 1.781 3.781A7.005 7.005 0 0 0 9 23h2c0-2.773 2.227-5 5-5s5 2.227 5 5h2a7.008 7.008 0 0 0-3.719-6.188c.543-.32 1.086-.656 1.594-1 1.523-1.03 2.781-2.03 2.781-2.03l.907-.782-.907-.781s-1.258-1-2.781-2.031c-.762-.516-1.582-1.063-2.406-1.47C17.645 8.314 16.855 8 16 8zm0 2c.25 0 .898.188 1.594.531.695.344 1.472.797 2.187 1.281.856.583 1.059.817 1.532 1.188-.473.371-.676.605-1.532 1.188a19.19 19.19 0 0 1-2.187 1.28C16.898 15.813 16.25 16 16 16c-1.668 0-3-1.332-3-3s1.332-3 3-3z"/></svg>