<svg xmlns="http://www.w3.org/2000/svg" viewBox="0 0 64 64"><path d="M31 2C15.012 2 2 15.008 2 31s13.012 29 29 29 29-13.008 29-29S46.988 2 31 2zm0 2c14.887 0 27 12.113 27 27S45.887 58 31 58 4 45.887 4 31 16.113 4 31 4zm-.438 4.008a23.09 23.09 0 0 0-15.828 6.726c-8.964 8.97-8.964 23.559 0 32.528a1 1 0 0 0 1.418 0 1 1 0 0 0 0-1.414c-.336-.336-.636-.692-.945-1.043 2.105-3.965 5.504-6.79 9.445-7.989 1.676 2.098 3.887 3.586 6.348 3.586 2.46 0 4.672-1.488 6.348-3.586 3.941 1.2 7.34 4.024 9.445 7.989-.309.351-.61.707-.945 1.043a1 1 0 0 0 .71 1.707 1 1 0 0 0 .708-.293c8.964-8.965 8.964-23.559 0-32.528a24.17 24.17 0 0 0-2.094-1.855 1.004 1.004 0 0 0-1.406.172.997.997 0 0 0 .172 1.402 20.685 20.685 0 0 1 1.91 1.7c7.328 7.327 8.078 18.757 2.289 26.952-2.27-3.851-5.68-6.644-9.61-7.996.535-.914.985-1.886 1.317-2.863.851-.398 1.586-1.414 1.953-2.777.543-2.032-.004-3.762-1.3-4.11a.634.634 0 0 1-.075-.015 9.134 9.134 0 0 0-.402-1.563c.09.024.175.055.25.09a1 1 0 0 0 1.363-1.137c-1.098-5.027-4.828-8.027-9.977-8.027H31c-1.43 0-3.52.418-4.922 1.324-2.547.14-4.348 2.012-4.629 4.844-.176 1.723-.012 3 .086 3.766.027.23.067.52.063.578-.008.043-.012.086-.02.125-.027.008-.05.011-.074.02-1.297.347-1.844 2.077-1.3 4.109.366 1.359 1.105 2.375 1.952 2.773.332.977.782 1.95 1.317 2.863-3.934 1.352-7.34 4.145-9.61 7.996C8.074 34.91 8.82 23.48 16.148 16.152a21.068 21.068 0 0 1 18.192-5.886 1 1 0 0 0 .316-1.977 22.574 22.574 0 0 0-4.093-.281zm8.098 1.379a.998.998 0 0 0-.894.648.999.999 0 0 0 .586 1.29c.714.265 1.418.573 2.101.913a.97.97 0 0 0 .45.11c.363 0 .714-.2.894-.551a1.005 1.005 0 0 0-.445-1.344c-.743-.375-1.52-.71-2.301-1.004a1.05 1.05 0 0 0-.39-.062zM31 16.707h.656c3.66 0 6.352 1.785 7.578 4.953-.367.031-.718.152-.996.422-.265.254-.656.84-.273 1.875.394 1.07.531 1.695.574 2.582.016.36.254.664.57.824.25.13.559.137.825.04.074.269.125.812-.07 1.55-.262.977-.735 1.434-.81 1.473h-.003a.996.996 0 0 0-.957.715c-1.047 3.52-3.887 7.261-7.094 7.261-3.207 0-6.047-3.742-7.094-7.261-.125-.426-.457-.707-.902-.707-.133-.047-.606-.504-.867-1.48-.196-.731-.145-1.27-.07-1.544.269.117.585.11.855-.027.316-.164.523-.485.543-.844.015-.328.05-.652.105-.973.059-.332.016-.687-.05-1.18-.09-.726-.23-1.816-.082-3.312.195-1.937 1.269-3.05 2.968-3.05a1 1 0 0 0 .598-.2c.84-.625 2.594-1.117 3.996-1.117zm-3.574 3.352a1.654 1.654 0 0 0-1.528.738l-1.054 1.601a.996.996 0 0 0 .285 1.383c.168.114.36.168.547.168.328 0 .644-.16.84-.449l.886-1.355.758.37a14.241 14.241 0 0 0 6.203 1.434h1.684a1 1 0 1 0 0-2h-1.684c-1.832 0-3.675-.426-5.328-1.23l-1.027-.5a1.563 1.563 0 0 0-.582-.16zm-6.051 27.336a.992.992 0 0 0-.988.492l-1 1.734a.997.997 0 0 0 .363 1.363.995.995 0 0 0 1.363-.363l1-1.734a.998.998 0 0 0-.738-1.492zm19.25 0a1.002 1.002 0 0 0-.738 1.496l1 1.73a.995.995 0 0 0 1.363.363.993.993 0 0 0 .363-1.363l-1-1.73a1.002 1.002 0 0 0-.988-.496zm-14.809 1.949a1.007 1.007 0 0 0-.832.734l-.515 1.934a1 1 0 0 0 1.933.515l.52-1.933a1.001 1.001 0 0 0-1.106-1.25zm10.372 0a1.013 1.013 0 0 0-.403.027c-.531.14-.847.691-.707 1.223l.52 1.933a1.004 1.004 0 0 0 1.226.707 1 1 0 0 0 .707-1.222l-.515-1.934a1.007 1.007 0 0 0-.828-.734zM31 50a1 1 0 0 0-1 1v2a1 1 0 1 0 2 0v-2a1 1 0 0 0-1-1z"/></svg>