<svg xmlns="http://www.w3.org/2000/svg" viewBox="0 0 26 26"><path d="M13 0C5.832 0 0 5.832 0 13s5.832 13 13 13 13-5.832 13-13S20.168 0 13 0zm0 2c6.086 0 11 4.914 11 11a10.95 10.95 0 0 1-2.875 7.406c-.75-1.379-2.957-2.511-5.313-3 0 0-1.124-.304-.624-1.406.699-.898 1.124-1.887 1.124-2.188 0 0 .993-.8 1.094-2 .102-1.101-.218-1.218-.218-1.218.398-1.301.507-6.196-2.594-5.594-.5-1-3.781-1.793-5.281.906C8.613 7.207 8.3 9.102 9 10.5c0 .102-.21-.105-.313.594 0 .699.325 1.695.626 2.094.101.199.3.304.5.406 0 0 .195 1.21 1.093 2.312.2.899-.719 1.406-.719 1.406-2.437.489-4.652 1.622-5.406 3A10.945 10.945 0 0 1 2 13C2 6.914 6.914 2 13 2z"/></svg>