<svg xmlns="http://www.w3.org/2000/svg" viewBox="0 0 64 64"><linearGradient id="a" gradientUnits="userSpaceOnUse" x1="36.5" y1="29.167" x2="36.5" y2="34.669" spreadMethod="reflect"><stop offset="0" stop-color="#6dc7ff"/><stop offset="1" stop-color="#e6abff"/></linearGradient><circle cx="36.5" cy="32" r="2.5" fill="url(#a)"/><linearGradient id="b" gradientUnits="userSpaceOnUse" x1="27.5" y1="29.167" x2="27.5" y2="34.669" spreadMethod="reflect"><stop offset="0" stop-color="#6dc7ff"/><stop offset="1" stop-color="#e6abff"/></linearGradient><circle cx="27.5" cy="32" r="2.5" fill="url(#b)"/><linearGradient id="c" gradientUnits="userSpaceOnUse" x1="32" y1="36.833" x2="32" y2="41.334" spreadMethod="reflect"><stop offset="0" stop-color="#6dc7ff"/><stop offset="1" stop-color="#e6abff"/></linearGradient><path d="M28 37a4 4 0 0 0 8 0h-8z" fill="url(#c)"/><linearGradient id="d" gradientUnits="userSpaceOnUse" x1="32" y1="4.5" x2="32" y2="59.046" spreadMethod="reflect"><stop offset="0" stop-color="#1a6dff"/><stop offset="1" stop-color="#c822ff"/></linearGradient><path d="M32 6C17.663 6 6 17.663 6 32s11.663 26 26 26 26-11.663 26-26S46.337 6 32 6zm0 2c13.233 0 24 10.767 24 24a23.888 23.888 0 0 1-5.529 15.305 22.991 22.991 0 0 0-7.923-6.737A12.922 12.922 0 0 0 44.636 36H45c2.757 0 5-2.243 5-5s-2.243-5-5-5h-.051C44.435 19.299 38.83 14 32 14s-12.435 5.299-12.949 12H19c-2.757 0-5 2.243-5 5s2.243 5 5 5h.363a12.91 12.91 0 0 0 2.09 4.57 23.02 23.02 0 0 0-7.925 6.734A23.89 23.89 0 0 1 8 32C8 18.767 18.767 8 32 8zm-9.197 12.983c.066.004.13.017.197.017 2.129 0 3.858-1.675 3.977-3.775a10.902 10.902 0 0 1 1.982-.788c.018.187.041.374.041.563 0 3.309-2.691 6-6 6-.405 0-.802-.045-1.191-.123.271-.666.604-1.3.994-1.894zm17.483-1.195c-.41.139-.842.212-1.286.212-2.056 0-3.734-1.564-3.956-3.562a11.013 11.013 0 0 1 5.242 3.35zm-7.283-3.737A6.004 6.004 0 0 0 39 22c.87 0 1.706-.2 2.479-.553.339.576.624 1.184.855 1.821A7.982 7.982 0 0 1 39 24c-4.394 0-7.97-3.562-7.997-7.949.329-.03.66-.051.997-.051.338 0 .672.021 1.003.051zM21 27c0-.753.077-1.488.222-2.199A7.97 7.97 0 0 0 23 25c3.114 0 5.811-1.792 7.132-4.396C31.802 23.805 35.147 26 39 26c1.334 0 2.63-.284 3.841-.79A11 11 0 0 1 43 27v6c0 6.065-4.935 11-11 11s-11-4.935-11-11v-6zm11 19c3.605 0 6.87-1.477 9.227-3.855.714.35 1.41.729 2.076 1.154A15.965 15.965 0 0 1 32 48c-4.266 0-8.31-1.707-11.303-4.701a21.061 21.061 0 0 1 2.075-1.156A12.953 12.953 0 0 0 32 46zm13-18c1.654 0 3 1.346 3 3s-1.346 3-3 3v-6zm-26 5v1c-1.654 0-3-1.346-3-3s1.346-3 3-3v5zm13 23c-6.686 0-12.74-2.751-17.096-7.177a21.045 21.045 0 0 1 4.154-4.35C22.445 47.986 27.089 50 32 50c4.912 0 9.556-2.014 12.942-5.527a21.046 21.046 0 0 1 4.154 4.35C44.739 53.249 38.686 56 32 56z" fill="url(#d)"/></svg>