<svg xmlns="http://www.w3.org/2000/svg" viewBox="0 0 64 64"><path d="M59 31c0 15.465-12.535 28-28 28S3 46.465 3 31 15.535 3 31 3s28 12.535 28 28z" fill="#c5e4fa"/><path d="M12.715 52.285a27.923 27.923 0 0 0 9.176 5.824L56 24v-6.426a27.983 27.983 0 0 0-3.715-4.86zm-1.953-2.047L50 11h-6L8.223 46.777a28.325 28.325 0 0 0 2.539 3.461zm-2.965-7.035L41 10l-3-2L6.363 39.637a27.516 27.516 0 0 0 1.434 3.566z" fill="#e3f2ff"/><path d="M48 53H14l.594-10.246L23 36l8-1 7.332 1 8.074 5.746z" fill="#c2cde7"/><path d="M31 43c2.984 0 5.688-1.832 7.684-4.805.582-.867.332-2.16-.512-2.636l-.168-.098c-1.852 2.777-4.297 4.754-7.004 4.754s-5.148-1.977-7.004-4.754l-.168.098c-.844.476-1.094 1.77-.512 2.636C25.313 41.168 28.016 43 31 43z" fill="#ced8ea"/><path d="M22.379 31.418c-.207 0-.871-.55-1.219-1.848-.355-1.316-.039-2.18.125-2.222 0 0 1.27-.223 1.281-.473.016-.367.055-.734.118-1.09.054-.3.011-.64-.055-1.152-.102-.793-.254-1.985-.09-3.63.227-2.25 1.543-3.593 3.54-3.593.151 0 .3-.05.421-.14.969-.723 2.902-1.27 4.5-1.27h.703c4.277 0 7.367 2.188 8.633 6.047-.484-.055-.324.289-.668.621-.27.258-1.191.465-.871 1.336.437 1.18.59 1.879.637 2.871.011.25 1.265-.195 1.277-.195.172.058.48 1.582.129 2.89-.348 1.297-1.016 1.848-1.219 1.848a.716.716 0 0 0-.676.504c-1.187 3.992-4.297 8.035-7.945 8.035-3.648 0-6.758-4.043-7.945-8.035a.7.7 0 0 0-.676-.504z" fill="#faefde"/><path d="M22.633 24.668s3.031 0 4.367-3.332c2 .664 2.664 2.664 12 2 .926-.066 1.063.258 1.332 0 .348-.332-.484-1.344.004-1.29C39.07 18.189 35.98 16 31.703 16H31c-1.598 0-3.531.547-4.496 1.27a.71.71 0 0 1-.422.14c-1.996 0-3.316 1.344-3.539 3.594-.164 1.64-.012 2.836.09 3.629v.035z" fill="#cda1a7"/><path d="M31 3C15.535 3 3 15.535 3 31s12.535 28 28 28 28-12.535 28-28S46.465 3 31 3zm0 50C18.852 53 9 43.148 9 31S18.852 9 31 9a21.931 21.931 0 0 1 15.176 6.07c.23.22.453.446.676.672.257.27.507.543.753.828A21.911 21.911 0 0 1 53 31c0 12.148-9.852 22-22 22z" fill="#f9e3ae"/><path d="M31 53C18.852 53 9 43.148 9 31H7.34c-2.492 0-4.363 2.25-3.945 4.707C5.633 48.93 17.14 59 31 59c13.86 0 25.367-10.07 27.605-23.293C59.023 33.25 57.152 31 54.66 31H53c0 12.148-9.852 22-22 22z" fill="#f6d397"/><path d="M31 2C15.012 2 2 15.008 2 31s13.012 29 29 29 29-13.008 29-29S46.988 2 31 2zm0 56C16.113 58 4 45.887 4 31S16.113 4 31 4s27 12.113 27 27-12.113 27-27 27z" fill="#8d6c9f"/><path d="M31 50a1 1 0 0 0-1 1v2a1 1 0 1 0 2 0v-2a1 1 0 0 0-1-1zm6.012.078a.993.993 0 0 0-1.223-.707.995.995 0 0 0-.707 1.223l.516 1.933a1.004 1.004 0 0 0 1.226.707c.531-.144.852-.691.707-1.226zM21.75 47.52a1.005 1.005 0 0 0-1.367.367l-1 1.73a.999.999 0 0 0 .867 1.5c.344 0 .68-.176.867-.5l1-1.73a1 1 0 0 0-.367-1.367zm19.867.367a1.002 1.002 0 0 0-1.734 1l1 1.734c.187.32.523.5.867.5a.965.965 0 0 0 .5-.137.994.994 0 0 0 .367-1.363zM26.21 49.371a.995.995 0 0 0-1.222.707l-.52 1.93a1.002 1.002 0 0 0 1.934.52l.516-1.934a.995.995 0 0 0-.707-1.223zM38.352 11.32c.71.27 1.418.578 2.097.922.149.07.301.106.45.106a.998.998 0 0 0 .453-1.891 22.299 22.299 0 0 0-2.301-1.008 1 1 0 0 0-1.285.586.993.993 0 0 0 .586 1.285z" fill="#8d6c9f"/><path d="M47.266 14.738a22.931 22.931 0 0 0-2.094-1.855 1 1 0 0 0-1.406.168.997.997 0 0 0 .172 1.402 21.873 21.873 0 0 1 1.914 1.7c7.328 7.327 8.074 18.757 2.285 26.949-2.27-3.848-5.676-6.641-9.61-7.997.535-.914.985-1.882 1.317-2.863.851-.394 1.586-1.41 1.953-2.773.543-2.032-.004-3.758-1.3-4.106-.024-.008-.048-.011-.071-.02a9.989 9.989 0 0 0-.403-1.562c.086.028.172.059.25.09a.995.995 0 0 0 1.024-.156.996.996 0 0 0 .336-.98c-1.098-5.028-4.828-8.028-9.977-8.028H31c-1.43 0-3.52.418-4.922 1.324-2.543.14-4.348 2.012-4.629 4.84-.172 1.727-.012 3.004.086 3.766.031.23.067.52.067.582l-.024.125c-.023.008-.05.011-.074.02-1.297.347-1.844 2.073-1.3 4.109.366 1.359 1.105 2.379 1.952 2.773.332.977.782 1.95 1.317 2.863-3.934 1.356-7.34 4.145-9.61 7.993-5.789-8.192-5.043-19.622 2.285-26.95a21.064 21.064 0 0 1 18.188-5.886 1.007 1.007 0 0 0 1.148-.829 1.005 1.005 0 0 0-.832-1.148 23.094 23.094 0 0 0-19.918 6.445c-8.964 8.97-8.964 23.563 0 32.528a1 1 0 1 0 1.414-1.414c-.332-.336-.632-.692-.941-1.043 2.105-3.965 5.504-6.79 9.441-7.989 1.676 2.094 3.891 3.586 6.352 3.586 2.46 0 4.676-1.492 6.352-3.586 3.937 1.2 7.336 4.024 9.437 7.989-.305.351-.605.707-.941 1.043a1 1 0 1 0 1.414 1.414c8.968-8.965 8.968-23.559.004-32.524zM31 38.402c-3.207 0-6.047-3.742-7.094-7.261-.125-.422-.46-.707-.902-.707-.133-.047-.606-.504-.867-1.48-.196-.731-.145-1.27-.07-1.544.273.117.585.11.855-.027.316-.164.523-.485.543-.844a7.97 7.97 0 0 1 .105-.973c.059-.332.016-.687-.05-1.18-.09-.726-.23-1.816-.082-3.316.195-1.933 1.273-3.047 2.968-3.047a1 1 0 0 0 .598-.199c.836-.625 2.594-1.117 3.996-1.117h.66c3.656 0 6.348 1.785 7.574 4.953-.367.031-.718.152-.996.422-.265.254-.656.84-.273 1.879.394 1.066.531 1.691.574 2.578.016.36.254.664.57.828.25.125.559.133.825.035.074.274.129.813-.07 1.551-.262.977-.731 1.434-.81 1.473a.997.997 0 0 0-.96.715c-1.047 3.52-3.887 7.261-7.094 7.261z" fill="#8d6c9f"/><path d="M36.047 21.945h-1.684a12.24 12.24 0 0 1-5.328-1.226l-1.027-.5a1.659 1.659 0 0 0-2.11.578l-1.054 1.601a.993.993 0 0 0 .285 1.383.994.994 0 0 0 1.383-.285l.89-1.348.758.368a14.258 14.258 0 0 0 6.207 1.433h1.68a1 1 0 0 0 1-1 1 1 0 0 0-1-1.004z" fill="#8d6c9f"/></svg>