<svg xmlns="http://www.w3.org/2000/svg" viewBox="0 0 26 26"><path d="M22.383 13.73c-.078-.023-.563-.246-.258-1.183h-.008c.79-.82 1.39-2.149 1.39-3.453 0-2.008-1.312-3.059-2.839-3.059s-2.832 1.05-2.832 3.059c0 1.308.598 2.644 1.39 3.465.114.308.11.546.051.722.817.703 2 2.156 1.594 4.922-.394-1.258-.988-2.398-1.726-3.262-.727-.988-2.45-1.882-4.032-2.414-.093-.03-.691-.304-.316-1.457h-.008c.973-1.011 1.711-2.648 1.711-4.258 0-2.472-1.617-3.769-3.5-3.769S9.508 4.34 9.508 6.813c0 1.617.738 3.257 1.71 4.269.384 1.016-.296 1.395-.44 1.445-1.02.375-2.126.91-2.958 1.52-.047.031-.086.07-.129.101a5.904 5.904 0 0 0-.8.754v.004c-.758.864-1.36 2.024-1.762 3.297-.406-2.765.773-4.219 1.594-4.918-.059-.176-.063-.414.05-.726.793-.82 1.391-2.153 1.391-3.465 0-2.004-1.305-3.059-2.832-3.059s-2.84 1.055-2.84 3.059c0 1.308.602 2.633 1.39 3.457h-.007c.305.937-.18 1.156-.258 1.183C1.941 14.297.055 15.36.055 16.45v2.598c0 1.441 4.804 3.883 12.965 3.883 8.16 0 12.925-2.442 12.925-3.883V16.45c0-1.094-1.883-2.152-3.562-2.719z"/></svg>