<svg xmlns="http://www.w3.org/2000/svg" viewBox="0 0 26 26"><path d="M9.719.063C8.406.077 6.934.675 6 2.342c-.93 1.66-1.29 3.93-.563 5.782-.027.137-.226-.137-.312.719-.082.824.285 2.015.688 2.562.175.23.46.383.656.469 0 0 .226 1.488 1.375 2.875.265 1.098-.813 1.656-.813 1.656-3.613.696-6.937 2.703-6.937 4.875v1.688c0 2.355 5.468 2.875 10.406 2.875 1.488 0 3.02-.157 4.438-.375a7.48 7.48 0 0 1-2.97-5.969c0-1.457.434-2.813 1.157-3.969-.027-.215.004-.46.156-.781.801-1.078 1.305-2.32 1.344-2.719 0 0 1.21-.976 1.281-2.437.078-1.457-.25-1.531-.25-1.531.52-1.59.672-7.524-3.156-6.813C12.18.625 11.031.047 9.719.062zM19.5 13.187a6.312 6.312 0 1 0 0 12.625 6.312 6.312 0 0 0 0-12.625zm2.344 3.188a.568.568 0 0 1 .437.094l.594.375c.133.09.219.25.25.406a.564.564 0 0 1-.094.438l-3.406 5a.76.76 0 0 1-.625.343.848.848 0 0 1-.594-.25l-2-2a.594.594 0 0 1 0-.843l.5-.5a.612.612 0 0 1 .844 0l1.063 1.093 2.656-3.906a.606.606 0 0 1 .375-.25z"/></svg>