<svg xmlns="http://www.w3.org/2000/svg" viewBox="0 0 16 16"><path d="M4.5 2A2.507 2.507 0 0 0 2 4.5c0 .941.535 1.754 1.305 2.18C1.406 7.207 0 8.934 0 11h1c0-1.93 1.57-3.5 3.5-3.5 1.27 0 2.441.703 3.063 1.84l.437.805.438-.805A3.497 3.497 0 0 1 11.5 7.5c1.93 0 3.5 1.57 3.5 3.5h1c0-2.066-1.406-3.793-3.309-4.32A2.494 2.494 0 0 0 14 4.5C14 3.125 12.875 2 11.5 2A2.507 2.507 0 0 0 9 4.5c0 .934.527 1.746 1.293 2.172A4.514 4.514 0 0 0 8 8.199a4.514 4.514 0 0 0-2.293-1.527A2.492 2.492 0 0 0 7 4.5C7 3.125 5.875 2 4.5 2zm0 1C5.336 3 6 3.664 6 4.5S5.336 6 4.5 6A1.49 1.49 0 0 1 3 4.5C3 3.664 3.664 3 4.5 3zm7 0c.836 0 1.5.664 1.5 1.5S12.336 6 11.5 6A1.49 1.49 0 0 1 10 4.5c0-.836.664-1.5 1.5-1.5zM4 10l-2.5 2.5L4 15v-2h3v-1H4zm8 0v2H9v1h3v2l2.5-2.5z"/></svg>