<svg xmlns="http://www.w3.org/2000/svg" viewBox="0 0 48 48"><path d="M35 44s-6-2-11-2-11 2-11 2l-1-12h24z" fill="#cc9721"/><path d="M14 28a4 4 0 1 1-8 0 4 4 0 0 1 8 0m28 0a4 4 0 1 1-8 0 4 4 0 0 1 8 0" fill="#ffa726"/><path d="M38 18c0-12.727-28-8.285-28 0v9c0 8.285 6.27 15 14 15s14-6.715 14-15z" fill="#ffb74d"/><path d="M32 26a1.999 1.999 0 1 1-4 0 1.999 1.999 0 1 1 4 0m-12 0a1.999 1.999 0 1 0-4 0 1.999 1.999 0 1 0 4 0" fill="#784719"/><path d="M24 4C15.496 4 3.125 9 3 36l10 8V24l16.75-9L35 22v22l10-8c0-12-.543-29-15-29l-2-3z" fill="#ffe082"/><path d="M19 35h10s-2 3-5 3-5-3-5-3z" fill="#fb8c00"/></svg>