<svg xmlns="http://www.w3.org/2000/svg" viewBox="0 0 48 48"><path d="M35 44s-5.875-2-10.875-2S13 44 13 44l-1-12h25z" fill="#4e342e"/><path d="M14.125 28a4 4 0 1 1-8 0 4 4 0 0 1 8 0m28 0a4 4 0 1 1-8 0 4 4 0 0 1 8 0" fill="#ffa726"/><path d="M38.125 18c0-12.727-28-8.285-28 0v9c0 8.285 6.27 15 14 15s14-6.715 14-15z" fill="#ffaa45"/><path d="M32 26a1.999 1.999 0 1 1-4 0 1.999 1.999 0 1 1 4 0m-12 0a1.999 1.999 0 1 0-4 0 1.999 1.999 0 1 0 4 0" fill="#784719"/><path d="M24.125 4C15.621 4 3.125 9 3 36l10 8V24l17-9 5 7 .125 22L45 36c0-12-.418-29-14.875-29l-2-3z" fill="#795548"/><path d="M19.125 35h10s-2 3-5 3-5-3-5-3z" fill="#f27f03"/></svg>