<svg xmlns="http://www.w3.org/2000/svg" viewBox="0 0 24 24"><path d="M11 3v4.094a4.964 4.964 0 0 0-1.75.75L6.312 4.906 4.907 6.313 7.844 9.25A4.908 4.908 0 0 0 7.125 11H3v2h4.125c.133.637.367 1.227.719 1.75l-2.938 2.938 1.407 1.406 2.937-2.938a4.964 4.964 0 0 0 1.75.75V21h2v-4.094a4.964 4.964 0 0 0 1.75-.75l2.938 2.938 1.406-1.407-2.938-2.937a4.908 4.908 0 0 0 .719-1.75H21v-2h-4.125a4.908 4.908 0 0 0-.719-1.75l2.938-2.938-1.407-1.406-2.937 2.938a4.964 4.964 0 0 0-1.75-.75V3zm1 6a3 3 0 1 1-.002 6.002A3 3 0 0 1 12 9z"/></svg>