<svg xmlns="http://www.w3.org/2000/svg" viewBox="0 0 80 80"><path d="M31 14c-5.648 0-10.473 2.156-13.813 6.09C13.848 24.023 12 29.672 12 36.598c0 5.265 2.031 12.761 2.031 12.761l.203.739H24v.148c-1.285.379-4.082 1.266-6.918 2.574-1.922.887-3.867 1.961-5.387 3.254C10.175 57.367 9 58.945 9 60.832V66h44v-5.168c0-1.887-1.176-3.465-2.695-4.758-1.52-1.293-3.465-2.367-5.387-3.254-2.836-1.308-5.633-2.195-6.918-2.574v-.148h9.73l.223-.692S50 43.086 50 35.7c0-5.289-1.238-9.746-3.328-12.945-1.992-3.043-4.832-4.906-7.996-5.086-.203-.344-.438-.86-1.426-1.648C35.973 14.996 33.922 14 31 14zm0 2c2.477 0 4.027.8 5 1.578.973.781 1.305 1.469 1.305 1.469l.277.55h.617c2.594 0 4.977 1.465 6.797 4.25C46.816 26.634 48 30.724 48 35.7c0 6.395-1.492 11.457-1.781 12.399H38v-.446a9.964 9.964 0 0 0 3-7.125V35.45c0-5.242-4.059-7.89-4.059-7.89l-.812-.524-.55.793S33.436 31 28.75 31c-1.371 0-3.184.395-4.785 1.43C22.363 33.465 21 35.262 21 37.738v2.79a9.964 9.964 0 0 0 3 7.124v.446h-8.203C15.52 46.996 14 40.926 14 36.598c0-6.57 1.75-11.723 4.715-15.211C21.675 17.895 25.852 16 31 16zm7 5c-.55 0-1 .45-1 1s.45 1 1 1 1-.45 1-1-.45-1-1-1zm0 3c-.55 0-1 .45-1 1s.45 1 1 1 1-.45 1-1-.45-1-1-1zm-1.61 5.754c.735.566 2.61 2.183 2.61 5.695v5.078a7.98 7.98 0 0 1-6.59 7.864l-.281.05-.211.2a1.353 1.353 0 0 1-1.836 0l-.21-.2-.282-.05A7.98 7.98 0 0 1 23 40.527v-2.789c0-1.785.855-2.855 2.047-3.629C26.242 33.34 27.805 33 28.75 33c4.523 0 6.75-2.227 7.64-3.246zM52.794 32c.07.652.125 1.32.156 2H70v-2zm-26.172 4.168c-.828 0-1.5.664-1.5 1.488a1.487 1.487 0 0 0 1.5 1.485c.828 0 1.5-.664 1.5-1.485a1.498 1.498 0 0 0-1.5-1.488zm9 0c-.828 0-1.5.664-1.5 1.488a1.487 1.487 0 0 0 1.5 1.485c.828 0 1.5-.664 1.5-1.485a1.498 1.498 0 0 0-1.5-1.488zM52.797 40a54.534 54.534 0 0 1-.23 2H70v-2zm-1.352 8c-.23.934-.425 1.625-.539 2H70v-2zM26 49.176a9.898 9.898 0 0 0 2.988 1.133A3.339 3.339 0 0 0 31 51c.758 0 1.453-.27 2.012-.691A9.898 9.898 0 0 0 36 49.176v3.472c-.148.258-1.402 2.352-5 2.352s-4.852-2.094-5-2.352zm-2 3.168v.922l.129.23S26.246 57 31 57c4.754 0 6.871-3.504 6.871-3.504l.129-.23v-.922c1.375.422 3.684 1.187 6.082 2.293 1.828.843 3.633 1.863 4.926 2.96C50.3 58.696 51 59.802 51 60.833V64H11v-3.168c0-1.031.7-2.137 1.992-3.234 1.293-1.098 3.098-2.118 4.926-2.961 2.398-1.106 4.707-1.871 6.082-2.293zM15 60c-.55 0-1 .45-1 1s.45 1 1 1 1-.45 1-1-.45-1-1-1zm4 0c-.55 0-1 .45-1 1s.45 1 1 1 1-.45 1-1-.45-1-1-1zm4 0c-.55 0-1 .45-1 1s.45 1 1 1 1-.45 1-1-.45-1-1-1zm4 0c-.55 0-1 .45-1 1s.45 1 1 1 1-.45 1-1-.45-1-1-1zm4 0c-.55 0-1 .45-1 1s.45 1 1 1 1-.45 1-1-.45-1-1-1zm4 0c-.55 0-1 .45-1 1s.45 1 1 1 1-.45 1-1-.45-1-1-1zm4 0c-.55 0-1 .45-1 1s.45 1 1 1 1-.45 1-1-.45-1-1-1zm4 0c-.55 0-1 .45-1 1s.45 1 1 1 1-.45 1-1-.45-1-1-1zm4 0c-.55 0-1 .45-1 1s.45 1 1 1 1-.45 1-1-.45-1-1-1z"/></svg>