<svg xmlns="http://www.w3.org/2000/svg" viewBox="0 0 50 50"><path d="M19.098 4C8.102 4 7.8 14.7 7.602 21.7c-.102 2.698-.204 5.8-1 6.5-.204.198-.301.5-.301.702 0 2.297 3.3 3.098 7 3.5v.098c-.602 1.398-2.5 2.2-4.7 3C4.899 37.102.399 39 0 44.902c0 .297.102.496.3.696.2.3.4.402.7.402h36c.3 0 .5-.102.7-.3.198-.2.3-.5.3-.7-.398-6-4.898-7.902-8.598-9.402a178.051 178.051 0 0 1-2.601-1.196c-1.102-.601-1.7-1.203-2-1.804V32.5C27.5 32.102 32 31.2 32 28.902c0-.3-.102-.601-.3-.703-.802-.699-.7-4-.7-6.898 0-5.102 0-10.801-2.902-13.903C26.898 6.2 25.3 5.602 23.402 5.5 22.801 5 21.301 4 19.098 4zM33 16v2h17v-2zm0 8v2h17v-2zm-2 8v2h19v-2z"/></svg>