<svg xmlns="http://www.w3.org/2000/svg" viewBox="0 0 64 64"><linearGradient id="a" gradientUnits="userSpaceOnUse" x1="31.994" y1="7.125" x2="31.994" y2="57.081" spreadMethod="reflect"><stop offset="0" stop-color="#1a6dff"/><stop offset="1" stop-color="#c822ff"/></linearGradient><path d="M55.982 13.567l-5.549-5.549c-1.3-1.299-3.566-1.299-4.865 0L42 11.586l-.567-.567c-1.3-1.299-3.566-1.299-4.865 0l-.614.614c-1.324-.891-3.233-.767-4.385.385l-.551.55a3.443 3.443 0 0 0-.388 4.389L10.703 36.884a7.044 7.044 0 0 0-1.978 3.945L7.054 52.358a.93.93 0 0 0-.009.105A3.537 3.537 0 0 0 7 53c0 2.206 1.794 4 4 4 .154 0 .304-.016.469-.038a.88.88 0 0 0 .125-.011l11.576-1.676a7.035 7.035 0 0 0 3.946-1.979l19.926-19.925a3.413 3.413 0 0 0 1.958.617c.919 0 1.783-.358 2.432-1.007l.551-.55a3.442 3.442 0 0 0 .388-4.389l.612-.611a3.446 3.446 0 0 0 0-4.865L52.414 22l3.568-3.567a3.446 3.446 0 0 0 0-4.866zm-15.964-1.134l11.549 11.549a1.441 1.441 0 0 1 0 2.037l-.567.567L37.414 13l.568-.568c.543-.544 1.492-.544 2.036.001zM11.394 54.96a1.087 1.087 0 0 0-.128.011c-.088.012-.175.029-.266.029-1.103 0-2-.897-2-2 0-.112.018-.221.036-.328a.895.895 0 0 0 .013-.137l.261-1.802a8.075 8.075 0 0 1 3.956 3.955l-1.872.272zm11.49-1.663l-7.581 1.097a10.073 10.073 0 0 0-5.697-5.697l1.099-7.581c.022-.15.066-.296.102-.443a18.041 18.041 0 0 1 12.521 12.522c-.149.036-.294.08-.444.102zm2.818-1.414a4.814 4.814 0 0 1-.534.454 20.064 20.064 0 0 0-13.505-13.505c.14-.187.288-.368.453-.534L32 18.414 45.586 32 25.702 51.883zm24.866-20.865l-.551.55c-.543.545-1.492.545-2.036 0L32.433 16.019a1.441 1.441 0 0 1-.001-2.036l.55-.549v-.001c.272-.272.634-.422 1.018-.422s.746.149 1.018.422l15.549 15.549c.562.561.562 1.475.001 2.036zm-33.861-3.311l-1.414-1.414 11-11 1.414 1.414-11 11zm18.824 3.753l-2.991-2.99a1.577 1.577 0 0 0-1.125-.468h-.001c-.425 0-.825.166-1.125.467l-5.819 5.819a1.58 1.58 0 0 0-.467 1.126c0 .425.166.824.466 1.126l2.991 2.99c.3.302.7.468 1.125.468h.001c.425 0 .825-.166 1.125-.467l5.819-5.819c.301-.301.467-.7.467-1.126a1.58 1.58 0 0 0-.466-1.126zm-6.945 6.368l-2.415-2.414 1.914-1.914 2.414 2.414-1.913 1.914zm3.328-3.328L29.5 32.086l1.914-1.914 2.415 2.414-1.915 1.914z" fill="url(#a)"/><linearGradient id="b" gradientUnits="userSpaceOnUse" x1="49.201" y1="9.043" x2="49.201" y2="20.604" spreadMethod="reflect"><stop offset="0" stop-color="#6dc7ff"/><stop offset="1" stop-color="#e6abff"/></linearGradient><path d="M54.568 17.019L51 20.586 43.414 13l3.568-3.567c.543-.545 1.492-.545 2.036 0l5.549 5.549c.562.561.562 1.475.001 2.037z" fill="url(#b)"/></svg>