<svg xmlns="http://www.w3.org/2000/svg" viewBox="0 0 50 50"><path d="M44.781 2c-.511.047-1.035.195-1.562.375-1.293.441-2.684 1.207-4.125 2.063l-.563-.594a.966.966 0 0 0-.437-.25s-.348-.086-.969-.156a9.597 9.597 0 0 0-2.531.062c-2.059.32-4.801 1.363-7.594 4.156-2.719 2.719-4.313 5.09-5.375 6.938-1.063 1.847-1.645 3.156-2.219 3.781-.914.996-2.093.469-2.093.469a1.003 1.003 0 0 0-1.313.531 1.003 1.003 0 0 0 .531 1.313s2.567 1 4.344-.938c.969-1.055 1.496-2.41 2.5-4.156 1.004-1.746 2.445-3.914 5.031-6.5 2.516-2.512 4.828-3.364 6.5-3.625 1.555-.242 2.313.027 2.438.062l.093.094A156.872 156.872 0 0 0 24.095 17.5C16.53 25.063 7.906 35.406 7.906 35.406a1.002 1.002 0 0 0-.218.657c-1.88 2.773-2.938 5.078-3.5 6.718-.36 1.051-.52 1.746-.594 2.219L2.25 46.313a1.014 1.014 0 0 0 0 1.437c.398.398 1.04.398 1.438 0L5 46.406c.473-.074 1.168-.234 2.219-.593 1.644-.563 3.968-1.61 6.75-3.5.226 0 .445-.079.625-.22 0 0 10.344-8.624 17.906-16.187 7.262-7.261 12.23-13.824 12.625-14.343a.906.906 0 0 0 .156-.188l.032-.031.03-.031a.842.842 0 0 0 .094-.188c.91-1.516 1.723-2.988 2.188-4.344.242-.703.398-1.379.375-2.062-.023-.684-.262-1.418-.781-1.938-.52-.52-1.254-.758-1.938-.781-.172-.008-.328-.016-.5 0zm.438 2c.316.012.43.086.562.219.133.133.207.246.219.562.012.317-.059.782-.25 1.344-.29.84-.863 1.887-1.5 3L40.875 5.75c1.113-.637 2.16-1.21 3-1.5.563-.191 1.027-.262 1.344-.25zm-6.063 2.875l3.969 4c-.723.953-5.164 6.758-12.031 13.625-6.848 6.848-15.762 14.344-17.219 15.563l-3.938-3.938c1.22-1.457 8.715-10.371 15.563-17.219C32.387 12.02 38.227 7.578 39.156 6.875zm-30.312 30.5l3.781 3.781c-2.45 1.614-4.523 2.578-5.938 3.063-.816.281-.824.238-1.218.312.074-.394.031-.402.312-1.218.485-1.415 1.45-3.489 3.063-5.938z"/></svg>