<svg xmlns="http://www.w3.org/2000/svg" viewBox="0 0 80 80"><path d="M64.344 9.008c-1.707 0-3.41.644-4.707 1.941L58.5 12.086l-.379-.379a3.013 3.013 0 0 0-4.242 0l-.973.973-1.347-1.012a3.333 3.333 0 0 0-2.543-.621 3.332 3.332 0 0 0-2.22 1.39c-2.741 3.97-8.878 12.786-11.628 16.254-.938 1.188-1.91 1.383-3.02 1.258-.738-.086-1.496-.379-2.168-.71A1.504 1.504 0 0 0 28.5 28a1.5 1.5 0 1 0 .398 2.945c.848.442 1.875.856 3.02.989 1.602.183 3.473-.301 4.816-1.997 2.871-3.628 8.961-12.386 11.707-16.359a1.327 1.327 0 0 1 1.918-.312l1.121.843-.773.77c-.879.879-.879 2.125-.426 3.215L21.043 47.332c-3.836 3.832-8.773 11.426-11.305 15.45a4.822 4.822 0 0 0 .098 5.261l-1.399 1.394a1.51 1.51 0 0 0-.41 1.461c.137.528.547.938 1.075 1.075a1.506 1.506 0 0 0 1.46-.41l1.395-1.399a4.822 4.822 0 0 0 5.262.098c4.023-2.532 11.617-7.469 15.449-11.305l29.238-29.238c1.09.453 2.332.457 3.215-.422l3.172-3.172a3.018 3.018 0 0 0 0-4.246l-.379-.379 1.137-1.137c2.59-2.59 2.59-6.824 0-9.414a6.629 6.629 0 0 0-4.707-1.941zm0 1.988c1.191 0 2.379.453 3.293 1.367a4.64 4.64 0 0 1 0 6.586L65.086 21.5l1.793 1.793v.004a.981.981 0 0 1 0 1.41l-3.172 3.172a.986.986 0 0 1-1.402.008l-.707-.684-30.344 30.344c-3.496 3.492-11.117 8.516-15.102 11.02a2.81 2.81 0 0 1-3.5-.399l-.82-.82a2.81 2.81 0 0 1-.398-3.5c2.504-3.985 7.527-11.606 11.02-15.102L52.8 18.402l-.688-.707a.982.982 0 0 1 .008-1.402l3.172-3.172a.986.986 0 0 1 1.414 0l1.793 1.793 2.55-2.55a4.635 4.635 0 0 1 3.294-1.368zM61 15c-.55 0-1 .45-1 1s.45 1 1 1 1-.45 1-1-.45-1-1-1zm3 3c-.55 0-1 .45-1 1s.45 1 1 1 1-.45 1-1-.45-1-1-1zm-10 1c-.55 0-1 .45-1 1s.45 1 1 1 1-.45 1-1-.45-1-1-1zm3 3c-.55 0-1 .45-1 1s.45 1 1 1 1-.45 1-1-.45-1-1-1zm-6 2c-.55 0-1 .45-1 1s.45 1 1 1 1-.45 1-1-.45-1-1-1zm9 1c-.55 0-1 .45-1 1s.45 1 1 1 1-.45 1-1-.45-1-1-1zm-12 2c-.55 0-1 .45-1 1s.45 1 1 1 1-.45 1-1-.45-1-1-1zm-3 3c-.55 0-1 .45-1 1s.45 1 1 1 1-.45 1-1-.45-1-1-1zm-3 3c-.55 0-1 .45-1 1s.45 1 1 1 1-.45 1-1-.45-1-1-1zm-3 3c-.55 0-1 .45-1 1s.45 1 1 1 1-.45 1-1-.45-1-1-1zm-3 3c-.55 0-1 .45-1 1s.45 1 1 1 1-.45 1-1-.45-1-1-1zm-3 3c-.55 0-1 .45-1 1s.45 1 1 1 1-.45 1-1-.45-1-1-1zm-3 3c-.55 0-1 .45-1 1s.45 1 1 1 1-.45 1-1-.45-1-1-1zm-3 3c-.55 0-1 .45-1 1s.45 1 1 1 1-.45 1-1-.45-1-1-1zm-3 3c-.55 0-1 .45-1 1s.45 1 1 1 1-.45 1-1-.45-1-1-1z"/></svg>