<svg xmlns="http://www.w3.org/2000/svg" viewBox="0 0 50 50"><path d="M36.875 4.063a.962.962 0 0 0-.813.406L23.907 22a1.14 1.14 0 0 0-.156.406c-.258 1.367.234 2.864 1.438 4.313 1.964 2.367 5.488 4.218 8 4.218.285 0 .558-.046.812-.093a.96.96 0 0 0 .688-.5L47.843 5.53a1.034 1.034 0 0 0-.032-1c-.18-.3-.523-.468-.874-.468zM21.719 23.718c-6.719 1.539-8.352 6.96-9.938 12.218-1.566 5.192-3.047 10.094-9.094 12.126-.464.156-.765.609-.687 1.093.078.485.512.844 1 .844 19.55 0 29.465-2.664 30.594-17.125-.145.008-.258.063-.407.063-3.09 0-7.195-2.122-9.53-4.938-1.321-1.59-1.821-3.07-1.938-4.281z"/></svg>