<?xml version="1.0" encoding="utf-8"?>
<!-- Generator: Adobe Illustrator 22.0.1, SVG Export Plug-In . SVG Version: 6.00 Build 0)  -->
<svg version="1.0" xmlns:x="ns_extend;" xmlns:i="ns_ai;" xmlns:graph="ns_graphs;"
	 xmlns="http://www.w3.org/2000/svg" xmlns:xlink="http://www.w3.org/1999/xlink" xmlns:a="http://ns.adobe.com/AdobeSVGViewerExtensions/3.0/"
	 x="0px" y="0px" viewBox="0 0 149.563 204.902" enable-background="new 0 0 149.563 204.902" xml:space="preserve">
<metadata><?xpacket begin="﻿" id="W5M0MpCehiHzreSzNTczkc9d"?>
<x:xmpmeta xmlns:x="adobe:ns:meta/" x:xmptk="Adobe XMP Core 5.6-c143 79.161210, 2017/08/11-10:28:36        ">
   <rdf:RDF xmlns:rdf="http://www.w3.org/1999/02/22-rdf-syntax-ns#">
      <rdf:Description rdf:about=""
            xmlns:dc="http://purl.org/dc/elements/1.1/"
            xmlns:xmp="http://ns.adobe.com/xap/1.0/"
            xmlns:xmpGImg="http://ns.adobe.com/xap/1.0/g/img/"
            xmlns:xmpMM="http://ns.adobe.com/xap/1.0/mm/"
            xmlns:stRef="http://ns.adobe.com/xap/1.0/sType/ResourceRef#"
            xmlns:stEvt="http://ns.adobe.com/xap/1.0/sType/ResourceEvent#"
            xmlns:illustrator="http://ns.adobe.com/illustrator/1.0/"
            xmlns:xmpTPg="http://ns.adobe.com/xap/1.0/t/pg/"
            xmlns:stDim="http://ns.adobe.com/xap/1.0/sType/Dimensions#"
            xmlns:stFnt="http://ns.adobe.com/xap/1.0/sType/Font#"
            xmlns:xmpG="http://ns.adobe.com/xap/1.0/g/"
            xmlns:pdf="http://ns.adobe.com/pdf/1.3/">
         <dc:format>image/svg+xml</dc:format>
         <dc:title>
            <rdf:Alt>
               <rdf:li xml:lang="x-default">card 01</rdf:li>
            </rdf:Alt>
         </dc:title>
         <xmp:MetadataDate>2018-04-02T13:42:54+07:00</xmp:MetadataDate>
         <xmp:ModifyDate>2018-04-02T13:42:54+07:00</xmp:ModifyDate>
         <xmp:CreateDate>2018-04-02T13:42:53+07:00</xmp:CreateDate>
         <xmp:CreatorTool>Adobe Illustrator CC 22.0 (Windows)</xmp:CreatorTool>
         <xmp:Thumbnails>
            <rdf:Alt>
               <rdf:li rdf:parseType="Resource">
                  <xmpGImg:width>256</xmpGImg:width>
                  <xmpGImg:height>72</xmpGImg:height>
                  <xmpGImg:format>JPEG</xmpGImg:format>
                  <xmpGImg:image>/9j/4AAQSkZJRgABAgEASABIAAD/7QAsUGhvdG9zaG9wIDMuMAA4QklNA+0AAAAAABAASAAAAAEA&#xA;AQBIAAAAAQAB/+4ADkFkb2JlAGTAAAAAAf/bAIQABgQEBAUEBgUFBgkGBQYJCwgGBggLDAoKCwoK&#xA;DBAMDAwMDAwQDA4PEA8ODBMTFBQTExwbGxscHx8fHx8fHx8fHwEHBwcNDA0YEBAYGhURFRofHx8f&#xA;Hx8fHx8fHx8fHx8fHx8fHx8fHx8fHx8fHx8fHx8fHx8fHx8fHx8fHx8fHx8f/8AAEQgASAEAAwER&#xA;AAIRAQMRAf/EAaIAAAAHAQEBAQEAAAAAAAAAAAQFAwIGAQAHCAkKCwEAAgIDAQEBAQEAAAAAAAAA&#xA;AQACAwQFBgcICQoLEAACAQMDAgQCBgcDBAIGAnMBAgMRBAAFIRIxQVEGE2EicYEUMpGhBxWxQiPB&#xA;UtHhMxZi8CRygvElQzRTkqKyY3PCNUQnk6OzNhdUZHTD0uIIJoMJChgZhJRFRqS0VtNVKBry4/PE&#xA;1OT0ZXWFlaW1xdXl9WZ2hpamtsbW5vY3R1dnd4eXp7fH1+f3OEhYaHiImKi4yNjo+Ck5SVlpeYmZ&#xA;qbnJ2en5KjpKWmp6ipqqusra6voRAAICAQIDBQUEBQYECAMDbQEAAhEDBCESMUEFURNhIgZxgZEy&#xA;obHwFMHR4SNCFVJicvEzJDRDghaSUyWiY7LCB3PSNeJEgxdUkwgJChgZJjZFGidkdFU38qOzwygp&#xA;0+PzhJSktMTU5PRldYWVpbXF1eX1RlZmdoaWprbG1ub2R1dnd4eXp7fH1+f3OEhYaHiImKi4yNjo&#xA;+DlJWWl5iZmpucnZ6fkqOkpaanqKmqq6ytrq+v/aAAwDAQACEQMRAD8A6h+YevwaNqVzcXHqGNpV&#xA;QCPfcoCNiR4ZrcoJmXZYaEAxWy/NTRIBLzS5Jd+QoF6cVX+b/JyHhlmSFtx+aejSTl1S5AKqOg6q&#xA;WP8AN/lYTAqCFeT8wdNsLm2uJhcMlzb+pGFAJAZ9q1b/ACciIFJIUL380tGnmhdFuQIw3KoH7VKf&#xA;te2E4ygEN2X5k6VLqNoqrcVMnHcDq6sg/a8Wx4CthFa5+ZWkwy3Fgy3HrQTKrMAONY5AWp8X+Tjw&#xA;ErYSyf8AMvSXiKqtzyqOoHY1/mx8OSeIMk0D8wNM1u/+pWonSUoz1kAAovyY4mJCBT2aaURRPIRU&#xA;ICSB7ZtCXWRjZpAfp23/AN9v+H9cjxuT+Tl3h36dt/8Afb/h/XHjX8nLvCLs7tLqIyICoDcaH5A/&#xA;xyQNtGXGYGir4Wt2KuxV2KuxVSu7u3tLaS5uHEcMYq7Gp9tgKkk9AB1wE0kC0rufOXli2hSWbUYh&#xA;6i81iWry8QrOSYlBkFAh6r1265A5YjqyGOR6I+w1TTtQiWWyuY50ZQ/wMCQDsOS9V6dxkoyB5MTE&#xA;jmiskh2KuxV2KuxV2KoDWNWXTIElaMy824UBpTYnwPhlGfN4YurYzlSUf42i/wCWRv8Agx/TMX+U&#xA;B3NfjeTv8bRf8sjf8GP6Y/ygO5fG8mQWdwLm1iuAvESqH49aVGZ0JcUQe9tBsK2TS8K/PP8A3cf+&#xA;XpP+TWa+f94XY4/oDxzJJdiqdeYv959I/wCYJP8AibZCPVJSXJoRek/8dWz/AOM8f/ExgPJQiPM3&#xA;/KRal/zEy/8AEjjHkkpZhQy/8raf4pWvT0ZP4ZDJyZRfUd7T6pNXYcDUjftmwlydfi+oMSutT0i3&#xA;kZJZzEw+KjDoD0G3fMWWWINEu2HEti1jQppFSG5Ll2oooAaeG564BmgTVo9XkybRQn1Z+BJX1D12&#xA;7DMmHJ1+qviF9yPybjOxVxIAJJoB1OJKsJ1rznrhlK6NZLJaFX9G7chuboaEcajip/ZJ679M43Xe&#xA;0eS/3AHBdWd78wO73u80/ZuMf3p9Vclmk+ddfjcHWLFRZqq+vcpRWR3NAAlTyA7/AEdcho/aTLHf&#xA;MAYXVjmPOuvw/Vcs3ZmKW2I+quRZhd2tpqVhJby/HbXKU5Kd6HdWU9iOqnxzsgRONjcF0e8T5hLr&#xA;byV5Tt1QRaTaho4/REnpKXKFOB5NSpJU0JOAYYDoyOWR6quk+V9D0m9ubvTrSO2lulVHWNVVQqVN&#xA;FVQKVJqf7MMccYmwiWQkUU1ybB2KuxV2KoPTNWttSjeW2D+iposrLRXB7r/bQ5ESB5dGUokc3alq&#xA;ltp0aS3Af0mYKzqtVQH9pj2H4+2EyA5rGJPJKvOn+8EH/GX/AI1OYWv+ke9ozcmH5qXHdir0XRf+&#xA;OTaf8Yl/Vm+wfQPc5cOQRmXMnhf56Cgl/wCYmP8A5NHNfP8AvC7HH9AeN5JLsVTrzH/vPo//ADAp&#xA;/wATbIR6pKS5NCL0n/jqWf8Axnj/AOJjAeShEeZ6f4i1KnT6zLT/AII4x5JKWYUMt/LA/wDOzj/j&#xA;BJ/DK8nJlF9S3v8AvJLtX4Tt4/dmxPJ1+L6g8e85tqH6ZmdlRfTdVeFuYb0uJPKMBWB+L3zT6i+M&#xA;27iFVsl3liXULq8triOMQu8kLW1s4b1/iFXEqFeK8ehHLIYx6hXO0k7bvatHNbeT4Qh9Q1ArToPG&#xA;ubmHJ1eq+oe5HZNxnYqlnmYTny9qIg/vDBIOhbbj8VApBJ416ZgdqcX5bJw8+EuTo68aN8rDzQXO&#xA;q2Glwzafbrc2MFlLPNGRK91JccQyJEtWrVuQYMa9AM870+PHKIs0TIDpQHUl6DPfESf2q19JfS6Z&#xA;fG+jVIHVJLP0+ayKCikpIOStzElfs9tshmjARsHfz+/lVJ04PEKeieV4J4PL2nxT/wB4sK1FCtAR&#xA;VQVapFBQZ6N2VjlDTYxLnwvP62QlmkRytNM2DiuxV2KuxV2KuxViPmLSfOT65a6nol6i6bYRyO+k&#xA;A8PrU/xHgW+FRzagqx2642WwcNeap5V0fzbaahf3Ovagl3Z3z+tb2RJY27khhGpYEUTcfCad8bQe&#xA;GtuaJ86f7wQf8Zf+NTmDr/pHvcfNyYfmpcd2KvRdF/45Np/xiX9Wb7B9A9zlw5BGZcyeG/np9iX/&#xA;AJio/wDk0cwJ/wB4XY4/oDxnCl2Kp35kH+j6N/zAp/xNshHqkpJk0IvSf+OpZ/8AGeP/AImMB5KE&#xA;R5l/5SDUf+YiT/iRwR5JKWZJDLfyxP8Azs6/8YX/AIZXk5MovqW9/wB5Jd6fCd82J5OvxfUHl3m2&#xA;FrCG4keRbqC4l5QSOXMse26ry2VPh2AO345q9V6QSdw7jHZ6UhfKcM2pW0kcUi2irLG1xcKzpNwD&#xA;cuCslDxJTffp45DSEyG2ycorzep6Py+rPVuf7w0Na7UGbaHJ1eq+oe5HZJxnYq7FXn+ueWm067X6&#xA;ldSQJdGT00U8kUcuTEqw6jkAN6Uzzjtvs/8ALZBw1WSRIruFbV8enN6LR6vxIniF8I/G6p5f8qrf&#xA;XEV3e3Mtw1nIvNSxWNmT4lPprtvy+Kp38NhmR2D2f48uM1wwlve/cRQr7fkw12r4Bwx24h0Z5nfu&#xA;gdirsVdirsVdirsVYbqiT+TNN1TUbOcTWlzO08FhJH/d3Ny9Xb1FI+CpLceP04Ukqmm2lx5rtNF1&#xA;nUJ1W1t3W7TT44+I+tQsyrIZGYtxBFVWn0nG1tG+dP8AeCD/AIy/8anMDX/SPe05uTD81LjuxV6L&#xA;ov8AxybT/jEv6s32D6B7nLhyCMy5k8g/NXUrPTbiae7skv42nRRDJSgJjry3DZrsguZdjiPoDzZf&#xA;OXl8M5Pl6AhjUD4NhQCn2PbBwHvZ2HDzl5eEjMfL1uVKgBfg2IJqfsd648B71sJjrHmbRoP0bLJo&#xA;sMyS2YdI240QM5ooqp6cfxyIie9JKWt5x8vmZHHl+AKoYMnwUNaUP2O1MPAe9FhEWnm/QZr61SPQ&#xA;IInMqgOOG1fhH7HYmuJge9QXqereRPL8OknWLmFJPUVLhxHaJLISzK3Hd05Fi1MsOKo3ZaPH9VUk&#xA;qab+Vd3b1XUrS3ZgDSSyKsNg1OtCadaH265ECJ/iZmch/Cnt55P0bRbe11KxSEm5cRI8cKxHiyM9&#xA;eQLbfBjkxVG7tGLNxGqelkAihFQeoObFwEPcadp9ynp3FtFNHWvCRFcV+RByMoA8xbMZJDkS1baX&#xA;ptqCttaQwK32hHGiA08eIGMYRjyFKckjzJRCoqiigKPACmSYkkt4odiqFfVLBHZGmAZSQwodiNvD&#xA;FjxhSlv9Gmp6rRycfs805Ur4VGU5dPjyfXGMq7wCyjm4eRpUs7nTS3pWpRSfiKovGtO/QYcWGGMV&#xA;CIiPIUpy8R3NovLVWvLEjKruqs+yAkAn5Yra4kDrtiqwzQiQRF19Q9EqOX3Yotfil2KuxVplVhxY&#xA;BlPUHcYq2FCgBRQDoBirTKrbMAfnvjStelF/Iv3DBwhad6UX8i/cMeELS4AAUGw8MKuxV4f+eo/c&#xA;yf8AMVH/AMmjmBP+8LsMf0B4vhZOxVPPMv8AvPo3/MAn/E2yMeqSkeSQitK/46dp/wAZo/8AiQwH&#xA;kofTv+Kn02+03TE0yS7E1hb3E9xG+6qKrsjLRuPGp+MdRkcmr8IgcJl6QdufwCcWg8SEp8QjUq3W&#xA;T+adM1GxuLJNJlvn41NuRHEjUO/Jgx4/jXpmt0vb+PUSMIwmSPIfbvs2nsmcKMpxA+P6lPWtTk1b&#xA;y3peoyQm0ae6Km1LcghjSdPtFU68fDNpPJx4hLlf7XH8DwsxhfFXVnGZ7r1jzIkkcbV5SkhPmBX+&#xA;GC2QgSCe5yTo8skS15RU5+HxCoxtTAgA96/CxdirsVYjff723H/GR/8AiRxcWXNQxQmOg/8AHQH+&#xA;q2LPHzZJi5CyREJR2UMUOxPavcYrTvVjaX0erBQ/Taldt+mKL6NFYhIZSgEgHENQVI67YppAa/pt&#xA;9qemG3sb6TTZyyutzGDyHHehFV2J6jITiSKBplCQBsi2MXHkXzdNHqCf4pljN68bBkjcFEjqAin1&#xA;fhHHrx3b9onKThnv6ubcMsdvSyTRrDzBbSyHU9TS+hKkRRLAIih5kj4+RLUSi75dCMhzNtUjE8gm&#xA;2TYOxV2KuxV2KuxV2KvEPz1H+jyf8xUf/Js5gT/vC7DH9AeLYWTsVT3zN/vNov8AzAR/8TbIx6pK&#xA;RZJCK0v/AI6dp/xmj/4kMB5KH1LcfW5dFsUiZIp3tVWJiQWVSqgyAb+K+1euGZNAnuYYCOKQPek2&#xA;n6Zr8V60kk8fCNwnwqOV6DDGvqzBVHBxIHIVNt+nTMfHghjlKURRmd/NyjkMgBI7BMfNiuuiWBLh&#xA;0a7DIVoQAYZT1HXMiYIx797h4zeUsxzOcJKtS121stSt7SeCR0MM11PeKEMVskC15TVbmvMEhSFP&#xA;Q5EyF02CEuG+nJvTNbt77ULu1jt5IhEsUsVy4QR3UcsYYSw0Ysyr9klgN9sRLdTCXDfTkmmSa3Yq&#xA;7FWI33+9tx/xkf8A4kcXFlzUMUJjoP8Ax0B/qtizx82SYuQoX8AntJYSaBxQkGhG+AhsxTMZAhg8&#xA;esxR3c9i8c6w2gjpdPRonaWvwIVJPJafFsP1VxzJ3YgZHkjPLl7Fqdwt5PHPZtbO6GC4oGHBuKkg&#xA;FhRuo3yUDZcbUTMMZ25szy91LsVdirsVdirsVdirsVdirsVeJ/nsCbZqb0uY/wDk2cwJ/wB4XYYv&#xA;oDxTi3gfuwsm+DeB+7FU98zq31bRNj/xz0/4m+Rj1SUh4t4H7skhFaYrfpK02P8AfR9v8oYDySH1&#xA;Dd2TrpVnq9u7QXtppoEU0aqSU4BnR+QPwmike4zB7TwyGPxoSlGeOB5ddut/Z3MdJlHi+HICUZy+&#xA;W7GrV5rGWOVbqWMyRSrM6EFiAhei8q0qVpXt1zkoCWnMZCchcZcR6/TxbXysjn05vQZAMgI4QaIr&#xA;50itQnsX8v2Mdkf3FvcRosfTjWGfYgbA1zqdBnxZMAGM2Igc+Y58/N0+owyjmuQ3NvR86F0yHl4R&#xA;2s5vWWWE8+YZQF9NiaIRvy2NPfATQ3ZQiZEAc2lJnt4Hs5VihDKTRKgxr1QDbj8+2IN8llExJB5o&#xA;nCxdirsVYjff723H/GR/+JHFxZc1DFCY6D/x0B/qtizx82SYuQgtagefS7mKK5+pXDxutreUVvRm&#xA;ZSI5QrfCxRjWh2OA8l2vfkxy30CaXT7bT9QJ1K8iUPczzxxosjo3JXCL8I38Mp4XaDKALJ9PRXtd&#xA;J1N9ctdQgvZI9KihZbzTHhiZZ5fjoyyn41Ksw2G22+SiDbRqZAijz6Mpy1wnYq7FXYq7FXYq7FXY&#xA;q7FXYqxPWtG1C51GaRLfnGzAq22/wgdzmBlxSMiQHOxZYiIBLHpPKmtG5nYWJKs4Kn4NxwUePiMq&#xA;OCfc2jNDvVbHytrCXEzSWRCssYUnh1Bevf3GIwT7kHNDvS/WPKXnWXU45LKCD6sI2UCSMsVqVqCR&#xA;ItdxtsMl4Eu4r40e9QTyd58+vW8nC3QRpIGJhqp5FKAj1a9jSmIwnuKnNHvRM/lPz0yw+pHaSESh&#xA;n9OFlogBG1Zj2/HCcMu4oGaPeiW8qa2WjJsTtJGWPwdA4J75AYJ9zI54d6K1LyxqstnKsdlydhsB&#xA;xr1+eE4Z9yBmh3oZfKuuKaixb6Cg/jkfAn3MvHh3vTM2rq1K6tYrqEwy1KEgmhp0wSFs8eQwNhu2&#xA;t4raBYYqhErSpqdzX+OIFClyTMzZ5qmFg7FXYqgZNFsZJGkYNyclm37k1xYHGFv6B0/wb/gsUeGF&#xA;W20u0tpfViDcgCNzXriyEAEXiyU57eGdOEq8lrWnuMUEW5YFWUyJsSoSlNqLWlPvwUz4tqUjYjjG&#xA;qyuojYt8JA5Vblvt44gIyHiNonCh2KuxV2KuxV2KuxV2KuxV2Kv/2Q==</xmpGImg:image>
               </rdf:li>
            </rdf:Alt>
         </xmp:Thumbnails>
         <xmpMM:InstanceID>xmp.iid:b39f6687-e9a4-1844-af7a-ddd378e5e475</xmpMM:InstanceID>
         <xmpMM:DocumentID>xmp.did:b39f6687-e9a4-1844-af7a-ddd378e5e475</xmpMM:DocumentID>
         <xmpMM:OriginalDocumentID>uuid:5D20892493BFDB11914A8590D31508C8</xmpMM:OriginalDocumentID>
         <xmpMM:RenditionClass>default</xmpMM:RenditionClass>
         <xmpMM:DerivedFrom rdf:parseType="Resource">
            <stRef:instanceID>xmp.iid:3eb1a3d1-9090-5449-9d8f-12faa585808f</stRef:instanceID>
            <stRef:documentID>xmp.did:3eb1a3d1-9090-5449-9d8f-12faa585808f</stRef:documentID>
            <stRef:originalDocumentID>uuid:5D20892493BFDB11914A8590D31508C8</stRef:originalDocumentID>
            <stRef:renditionClass>default</stRef:renditionClass>
         </xmpMM:DerivedFrom>
         <xmpMM:History>
            <rdf:Seq>
               <rdf:li rdf:parseType="Resource">
                  <stEvt:action>saved</stEvt:action>
                  <stEvt:instanceID>xmp.iid:18F3C9E9379CE611A371D05B2D010247</stEvt:instanceID>
                  <stEvt:when>2016-10-27T19:43:08+08:00</stEvt:when>
                  <stEvt:softwareAgent>Adobe Illustrator CS6 (Windows)</stEvt:softwareAgent>
                  <stEvt:changed>/</stEvt:changed>
               </rdf:li>
               <rdf:li rdf:parseType="Resource">
                  <stEvt:action>saved</stEvt:action>
                  <stEvt:instanceID>xmp.iid:20BC1E5D1324E711A76BA5449E4FBA2B</stEvt:instanceID>
                  <stEvt:when>2017-04-18T16:45:24+08:00</stEvt:when>
                  <stEvt:softwareAgent>Adobe Illustrator CS6 (Windows)</stEvt:softwareAgent>
                  <stEvt:changed>/</stEvt:changed>
               </rdf:li>
               <rdf:li rdf:parseType="Resource">
                  <stEvt:action>converted</stEvt:action>
                  <stEvt:parameters>from application/postscript to application/vnd.adobe.illustrator</stEvt:parameters>
               </rdf:li>
               <rdf:li rdf:parseType="Resource">
                  <stEvt:action>saved</stEvt:action>
                  <stEvt:instanceID>xmp.iid:E9C35AD92F2FE711A3CEEA9BA9CC713C</stEvt:instanceID>
                  <stEvt:when>2017-05-02T21:04:42+08:00</stEvt:when>
                  <stEvt:softwareAgent>Adobe Illustrator CS6 (Windows)</stEvt:softwareAgent>
                  <stEvt:changed>/</stEvt:changed>
               </rdf:li>
               <rdf:li rdf:parseType="Resource">
                  <stEvt:action>saved</stEvt:action>
                  <stEvt:instanceID>xmp.iid:02EB8ED9BF6AE7118FE3A78FD048C4E2</stEvt:instanceID>
                  <stEvt:when>2017-07-17T16:33:33+08:00</stEvt:when>
                  <stEvt:softwareAgent>Adobe Illustrator CS6 (Windows)</stEvt:softwareAgent>
                  <stEvt:changed>/</stEvt:changed>
               </rdf:li>
               <rdf:li rdf:parseType="Resource">
                  <stEvt:action>converted</stEvt:action>
                  <stEvt:parameters>from application/postscript to application/vnd.adobe.illustrator</stEvt:parameters>
               </rdf:li>
               <rdf:li rdf:parseType="Resource">
                  <stEvt:action>saved</stEvt:action>
                  <stEvt:instanceID>xmp.iid:3eb1a3d1-9090-5449-9d8f-12faa585808f</stEvt:instanceID>
                  <stEvt:when>2018-04-02T12:01:31+07:00</stEvt:when>
                  <stEvt:softwareAgent>Adobe Illustrator CC 22.0 (Windows)</stEvt:softwareAgent>
                  <stEvt:changed>/</stEvt:changed>
               </rdf:li>
               <rdf:li rdf:parseType="Resource">
                  <stEvt:action>saved</stEvt:action>
                  <stEvt:instanceID>xmp.iid:b39f6687-e9a4-1844-af7a-ddd378e5e475</stEvt:instanceID>
                  <stEvt:when>2018-04-02T13:42:54+07:00</stEvt:when>
                  <stEvt:softwareAgent>Adobe Illustrator CC 22.0 (Windows)</stEvt:softwareAgent>
                  <stEvt:changed>/</stEvt:changed>
               </rdf:li>
            </rdf:Seq>
         </xmpMM:History>
         <illustrator:StartupProfile>Print</illustrator:StartupProfile>
         <xmpTPg:HasVisibleOverprint>False</xmpTPg:HasVisibleOverprint>
         <xmpTPg:HasVisibleTransparency>True</xmpTPg:HasVisibleTransparency>
         <xmpTPg:NPages>1</xmpTPg:NPages>
         <xmpTPg:MaxPageSize rdf:parseType="Resource">
            <stDim:w>149.563378</stDim:w>
            <stDim:h>204.901824</stDim:h>
            <stDim:unit>Points</stDim:unit>
         </xmpTPg:MaxPageSize>
         <xmpTPg:Fonts>
            <rdf:Bag>
               <rdf:li rdf:parseType="Resource">
                  <stFnt:fontName>Pacifico</stFnt:fontName>
                  <stFnt:fontFamily>Pacifico</stFnt:fontFamily>
                  <stFnt:fontFace>Regular</stFnt:fontFace>
                  <stFnt:fontType>TrueType</stFnt:fontType>
                  <stFnt:versionString>Version 1.000</stFnt:versionString>
                  <stFnt:composite>False</stFnt:composite>
                  <stFnt:fontFileName>Pacifico.ttf</stFnt:fontFileName>
               </rdf:li>
            </rdf:Bag>
         </xmpTPg:Fonts>
         <xmpTPg:PlateNames>
            <rdf:Seq>
               <rdf:li>Cyan</rdf:li>
               <rdf:li>Magenta</rdf:li>
               <rdf:li>Yellow</rdf:li>
               <rdf:li>Black</rdf:li>
            </rdf:Seq>
         </xmpTPg:PlateNames>
         <xmpTPg:SwatchGroups>
            <rdf:Seq>
               <rdf:li rdf:parseType="Resource">
                  <xmpG:groupName>Default Swatch Group</xmpG:groupName>
                  <xmpG:groupType>0</xmpG:groupType>
               </rdf:li>
            </rdf:Seq>
         </xmpTPg:SwatchGroups>
         <pdf:Producer>Adobe PDF library 10.01</pdf:Producer>
      </rdf:Description>
   </rdf:RDF>
</x:xmpmeta>
                                                                                                    
                                                                                                    
                                                                                                    
                                                                                                    
                                                                                                    
                                                                                                    
                                                                                                    
                                                                                                    
                                                                                                    
                                                                                                    
                                                                                                    
                                                                                                    
                                                                                                    
                                                                                                    
                                                                                                    
                                                                                                    
                                                                                                    
                                                                                                    
                                                                                                    
                                                                                                    
                           
<?xpacket end="w"?>
	</metadata>
<g id="Background">
</g>
<g id="Designed_by_Freepik">
</g>
<g id="Object">
	<g>
		<defs>
			<rect id="SVGID_33_" x="4.563" y="4.902" width="145" height="200"/>
		</defs>
		<clipPath id="SVGID_1_">
			<use xlink:href="#SVGID_33_"  overflow="visible"/>
		</clipPath>
		<g clip-path="url(#SVGID_1_)">
			<g opacity="0.5">
				<g>
					<g>
						<path fill="#FFFFFF" d="M13.909-2.212c2.347,13.429-0.932,27.1-0.664,40.594c0.293,14.71,0.431,29.422,0.577,44.134
							c0.291,29.327,1.406,58.625,1.84,87.946c0.119,8.061,0.226,16.111-0.319,24.159c-0.567,8.372-1.432,16.721-1.155,25.124
							c0.016,0.482,0.769,0.483,0.75,0c-0.292-7.436,0.284-14.847,0.82-22.258c0.534-7.383,0.632-14.726,0.547-22.126
							c-0.168-14.531-0.689-29.053-1.12-43.578c-0.887-29.862-0.752-59.742-1.277-89.611c-0.133-7.556,0.3-14.979,0.853-22.512
							c0.54-7.359,0.835-14.672-0.544-21.958C14.179-2.5,13.874-2.413,13.909-2.212L13.909-2.212z"/>
					</g>
				</g>
				<g>
					<g>
						<path fill="#FFFFFF" d="M38.122-2.122c2.445,13.42-0.739,27.014-0.537,40.503c0.221,14.712,0.531,29.418,0.634,44.133
							c0.206,29.332,1.311,58.624,1.771,87.948c0.127,8.06,0.24,16.111-0.298,24.159c-0.56,8.371-1.391,16.723-1.088,25.124
							c0.023,0.642,1.023,0.645,1,0c-0.269-7.439,0.342-14.845,0.885-22.258c0.541-7.383,0.645-14.726,0.566-22.126
							c-0.155-14.53-0.665-29.053-1.092-43.578c-0.877-29.864-0.521-59.745-1.281-89.611c-0.376-14.775,3.074-29.907,0.404-44.559
							C38.971-3.02,38.007-2.752,38.122-2.122L38.122-2.122z"/>
					</g>
				</g>
				<g>
					<g>
						<path fill="#FFFFFF" d="M62.663-2.122c2.445,13.42-0.739,27.014-0.537,40.503c0.221,14.712,0.531,29.418,0.634,44.133
							c0.206,29.332,1.311,58.624,1.771,87.948c0.127,8.06,0.24,16.111-0.298,24.159c-0.56,8.371-1.391,16.723-1.088,25.124
							c0.023,0.642,1.023,0.645,1,0c-0.269-7.439,0.342-14.845,0.885-22.258c0.541-7.383,0.645-14.726,0.566-22.126
							c-0.155-14.53-0.665-29.053-1.092-43.578c-0.877-29.864-0.521-59.745-1.281-89.611c-0.376-14.775,3.074-29.907,0.404-44.559
							C63.512-3.02,62.548-2.752,62.663-2.122L62.663-2.122z"/>
					</g>
				</g>
				<g>
					<g>
						<path fill="#FFFFFF" d="M87.204-2.122c2.445,13.42-0.739,27.014-0.537,40.503c0.221,14.712,0.531,29.418,0.634,44.133
							c0.206,29.332,1.311,58.624,1.771,87.948c0.127,8.06,0.24,16.111-0.298,24.159c-0.56,8.371-1.391,16.723-1.088,25.124
							c0.023,0.642,1.023,0.645,1,0c-0.269-7.439,0.342-14.845,0.885-22.258c0.541-7.383,0.645-14.726,0.566-22.126
							c-0.155-14.53-0.665-29.053-1.092-43.578c-0.877-29.864-0.521-59.745-1.281-89.611c-0.376-14.775,3.074-29.907,0.404-44.559
							C88.053-3.02,87.089-2.752,87.204-2.122L87.204-2.122z"/>
					</g>
				</g>
				<g>
					<g>
						<path fill="#FFFFFF" d="M111.745-2.122c2.445,13.42-0.739,27.014-0.537,40.503c0.221,14.712,0.531,29.418,0.634,44.133
							c0.206,29.332,1.311,58.624,1.771,87.948c0.127,8.06,0.24,16.111-0.298,24.159c-0.56,8.371-1.391,16.723-1.088,25.124
							c0.023,0.642,1.023,0.645,1,0c-0.269-7.439,0.342-14.845,0.885-22.258c0.541-7.383,0.645-14.726,0.566-22.126
							c-0.155-14.53-0.665-29.053-1.092-43.578c-0.877-29.864-0.521-59.745-1.281-89.611c-0.376-14.775,3.074-29.907,0.404-44.559
							C112.594-3.02,111.63-2.752,111.745-2.122L111.745-2.122z"/>
					</g>
				</g>
				<g>
					<g>
						<path fill="#FFFFFF" d="M136.614-2.212c2.347,13.429-0.932,27.1-0.664,40.594c0.293,14.71,0.431,29.422,0.577,44.134
							c0.291,29.327,1.406,58.625,1.84,87.946c0.119,8.061,0.226,16.111-0.319,24.159c-0.567,8.372-1.432,16.721-1.155,25.124
							c0.016,0.482,0.769,0.483,0.75,0c-0.292-7.436,0.284-14.847,0.82-22.258c0.534-7.383,0.632-14.726,0.547-22.126
							c-0.168-14.531-0.689-29.053-1.12-43.578c-0.887-29.862-0.752-59.742-1.277-89.611c-0.133-7.556,0.3-14.979,0.853-22.512
							c0.54-7.359,0.835-14.672-0.544-21.958C136.884-2.5,136.579-2.413,136.614-2.212L136.614-2.212z"/>
					</g>
				</g>
			</g>
			<g>
				<g opacity="0.5">
					<g>
						<g>
							<path fill="#FFFFFF" d="M187.099,43.395c-13.429,2.347-27.1-0.932-40.594-0.664c-14.71,0.293-29.422,0.431-44.134,0.577
								c-29.327,0.291-58.625,1.406-87.947,1.84c-8.061,0.119-16.111,0.226-24.159-0.319c-8.372-0.567-16.721-1.432-25.124-1.155
								c-0.482,0.016-0.483,0.769,0,0.75c7.436-0.292,14.847,0.284,22.258,0.82c7.383,0.534,14.726,0.632,22.126,0.547
								c14.531-0.168,29.053-0.689,43.578-1.12c29.862-0.887,59.742-0.752,89.611-1.277c7.556-0.133,14.979,0.3,22.512,0.853
								c7.359,0.54,14.672,0.835,21.958-0.544C187.387,43.665,187.3,43.36,187.099,43.395L187.099,43.395z"/>
						</g>
					</g>
					<g>
						<g>
							<path fill="#FFFFFF" d="M187.009,67.608c-13.42,2.445-27.014-0.739-40.503-0.537c-14.712,0.221-29.418,0.531-44.133,0.634
								c-29.332,0.206-58.624,1.311-87.949,1.771c-8.06,0.127-16.111,0.24-24.159-0.298c-8.371-0.56-16.723-1.391-25.124-1.088
								c-0.642,0.023-0.645,1.023,0,1c7.439-0.269,14.845,0.342,22.258,0.885c7.383,0.541,14.726,0.645,22.126,0.566
								c14.53-0.155,29.053-0.665,43.578-1.092c29.865-0.877,59.745-0.521,89.612-1.281c14.775-0.376,29.907,3.074,44.559,0.404
								C187.907,68.457,187.639,67.493,187.009,67.608L187.009,67.608z"/>
						</g>
					</g>
					<g>
						<g>
							<path fill="#FFFFFF" d="M187.009,92.149c-13.42,2.445-27.014-0.739-40.503-0.537c-14.712,0.221-29.418,0.531-44.133,0.634
								c-29.332,0.206-58.624,1.311-87.949,1.771c-8.06,0.127-16.111,0.24-24.159-0.298c-8.371-0.56-16.723-1.391-25.124-1.088
								c-0.642,0.023-0.645,1.023,0,1c7.439-0.269,14.845,0.342,22.258,0.885c7.383,0.541,14.726,0.645,22.126,0.566
								c14.53-0.155,29.053-0.665,43.578-1.092c29.865-0.877,59.745-0.52,89.612-1.281c14.775-0.376,29.907,3.074,44.559,0.404
								C187.907,92.998,187.639,92.034,187.009,92.149L187.009,92.149z"/>
						</g>
					</g>
					<g>
						<g>
							<path fill="#FFFFFF" d="M187.009,116.69c-13.42,2.445-27.014-0.739-40.503-0.537c-14.712,0.221-29.418,0.531-44.133,0.634
								c-29.332,0.206-58.624,1.311-87.949,1.771c-8.06,0.127-16.111,0.24-24.159-0.298c-8.371-0.56-16.723-1.391-25.124-1.088
								c-0.642,0.023-0.645,1.023,0,1c7.439-0.269,14.845,0.342,22.258,0.885c7.383,0.541,14.726,0.645,22.126,0.566
								c14.53-0.155,29.053-0.665,43.578-1.092c29.865-0.877,59.745-0.521,89.612-1.281c14.775-0.376,29.907,3.074,44.559,0.404
								C187.907,117.539,187.639,116.575,187.009,116.69L187.009,116.69z"/>
						</g>
					</g>
					<g>
						<g>
							<path fill="#FFFFFF" d="M187.009,141.231c-13.42,2.445-27.014-0.739-40.503-0.537c-14.712,0.221-29.418,0.531-44.133,0.634
								c-29.332,0.206-58.624,1.311-87.949,1.771c-8.06,0.127-16.111,0.24-24.159-0.298c-8.371-0.56-16.723-1.391-25.124-1.088
								c-0.642,0.023-0.645,1.023,0,1c7.439-0.269,14.845,0.342,22.258,0.885c7.383,0.541,14.726,0.645,22.126,0.566
								c14.53-0.155,29.053-0.665,43.578-1.092c29.865-0.877,59.745-0.52,89.612-1.281c14.775-0.376,29.907,3.074,44.559,0.404
								C187.907,142.08,187.639,141.116,187.009,141.231L187.009,141.231z"/>
						</g>
					</g>
					<g>
						<g>
							<path fill="#FFFFFF" d="M187.099,166.1c-13.429,2.347-27.1-0.932-40.594-0.664c-14.71,0.293-29.422,0.431-44.134,0.577
								c-29.327,0.291-58.625,1.406-87.947,1.84c-8.061,0.119-16.111,0.226-24.159-0.319c-8.372-0.567-16.721-1.432-25.124-1.155
								c-0.482,0.016-0.483,0.769,0,0.75c7.436-0.292,14.847,0.284,22.258,0.82c7.383,0.534,14.726,0.632,22.126,0.547
								c14.531-0.168,29.053-0.689,43.578-1.12c29.862-0.887,59.742-0.752,89.611-1.277c7.556-0.133,14.979,0.3,22.512,0.853
								c7.359,0.54,14.672,0.835,21.958-0.544C187.387,166.37,187.3,166.065,187.099,166.1L187.099,166.1z"/>
						</g>
					</g>
				</g>
				<g opacity="0.5">
					<g>
						<g>
							<path fill="#FFFFFF" d="M187.099,192.536c-13.429,2.347-27.1-0.932-40.594-0.664c-14.71,0.293-29.422,0.431-44.134,0.577
								c-29.327,0.291-58.625,1.406-87.947,1.84c-8.061,0.119-16.111,0.226-24.159-0.319c-8.372-0.567-16.721-1.432-25.124-1.155
								c-0.482,0.016-0.483,0.769,0,0.75c7.436-0.292,14.847,0.284,22.258,0.82c7.383,0.534,14.726,0.632,22.126,0.547
								c14.531-0.168,29.053-0.689,43.578-1.12c29.862-0.887,59.742-0.752,89.611-1.277c7.556-0.133,14.979,0.3,22.512,0.853
								c7.359,0.54,14.672,0.835,21.958-0.544C187.387,192.807,187.3,192.501,187.099,192.536L187.099,192.536z"/>
						</g>
					</g>
				</g>
				<g opacity="0.5">
					<g>
						<g>
							<path fill="#FFFFFF" d="M187.099,20.093c-13.429,2.347-27.1-0.932-40.594-0.664c-14.71,0.293-29.422,0.431-44.134,0.577
								c-29.327,0.291-58.625,1.406-87.947,1.84c-8.061,0.119-16.111,0.226-24.159-0.319c-8.372-0.567-16.721-1.432-25.124-1.155
								c-0.482,0.016-0.483,0.769,0,0.75c7.436-0.292,14.847,0.284,22.258,0.82c7.383,0.534,14.726,0.632,22.126,0.547
								c14.531-0.168,29.053-0.689,43.578-1.12c29.862-0.887,59.742-0.752,89.611-1.277c7.556-0.133,14.979,0.3,22.512,0.853
								c7.359,0.54,14.672,0.835,21.958-0.544C187.387,20.364,187.3,20.058,187.099,20.093L187.099,20.093z"/>
						</g>
					</g>
				</g>
			</g>
		</g>
		<g clip-path="url(#SVGID_1_)">
			<g>
				<g>
					<path fill="#867E8D" d="M40.973,69.371c-0.532-0.152-1.061-0.271-1.581-0.354c-6.483-1.022-12.947,1.433-15.827,8.271
						c-6.729,15.989,22.622,20.663,26.741,5.368C52.085,76.048,46.408,70.925,40.973,69.371z"/>
					<path fill="#FFCD95" d="M38.978,74.404c-0.289-0.082-0.577-0.146-0.859-0.192c-3.523-0.554-7.037,0.78-8.602,4.496
						c-3.656,8.689,12.295,11.23,14.533,2.919C45.017,78.034,41.931,75.251,38.978,74.404z"/>
				</g>
				<g>
					<path fill="#867E8D" d="M123.64,69.371c-0.532-0.152-1.062-0.271-1.582-0.354c-6.481-1.022-12.946,1.433-15.826,8.271
						c-6.729,15.989,22.621,20.663,26.74,5.368C134.753,76.048,129.074,70.925,123.64,69.371z"/>
					<path fill="#FFCD95" d="M121.644,74.404c-0.289-0.082-0.577-0.146-0.858-0.192c-3.525-0.554-7.039,0.78-8.604,4.496
						c-3.656,8.689,12.294,11.23,14.535,2.919C127.684,78.034,124.598,75.251,121.644,74.404z"/>
				</g>
			</g>
			<path fill="#FFFFFF" d="M92.536,71.238c-1.859-0.533-3.711-0.946-5.529-1.234c-22.677-3.576-45.291,5.01-55.362,28.936
				c-23.538,55.928,79.128,72.276,93.54,18.776C131.411,94.597,111.548,76.681,92.536,71.238z"/>
			<path fill="#867E8D" d="M55.905,95.913c-5.271,1.235-10.457,5.083-12.852,9.205c-4.056,6.979-0.629,15.125,6.871,17.456
				c7.298,2.268,16.178-3.575,19.161-10.076c2.571-5.606-0.027-14.45-6.347-16.481C60.6,95.331,58.244,95.364,55.905,95.913z"/>
			<path fill="#867E8D" d="M88.812,96.017c-6.319,2.03-8.919,10.875-6.346,16.481c2.982,6.501,11.86,12.344,19.159,10.076
				c7.5-2.331,10.928-10.477,6.872-17.456c-2.396-4.122-7.583-7.97-12.853-9.205C93.306,95.364,90.949,95.331,88.812,96.017z"/>
			<path fill="#FFFFFF" d="M100.94,187.932c-0.68-7.186-1.125-13.911-2.621-21.581c-1.385-7.109-3.713-14.289-7.719-19.344
				c-4.357-5.498-10.09-6.717-15.71-4.838c-8.977,3.002-16.112,13.791-20.513,24.404c-3.157,7.613-4.932,16.367-4.335,24.878
				c-0.671,5.165,1.004,11.888,2.985,15.302c3.484,6.001,9.14,7.932,14.419,8.818c2.356,0.396,4.749,0.37,7.117,0.201
				c1.065-0.076,2.127-0.219,3.185-0.383c0.758-0.117,1.514-0.263,2.266-0.408c-1.744,0.336,1.98-0.365,1.563-0.287
				c5.145-0.972,10.688-2.003,15.305-5.471C102.403,205.081,101.622,195.151,100.94,187.932z"/>
			<path fill="#8B8B8B" d="M90.54,193.289c-0.4-4.23-0.662-8.189-1.543-12.704c-0.816-4.185-2.186-8.411-4.543-11.387
				c-2.564-3.236-5.939-3.954-9.248-2.849c-5.285,1.768-9.485,8.119-12.076,14.367c-1.858,4.481-2.903,9.634-2.552,14.645
				c-0.395,3.039,0.591,6.998,1.758,9.008c2.051,3.531,5.379,4.67,8.488,5.19c1.387,0.233,2.796,0.218,4.189,0.118
				c0.627-0.045,1.252-0.129,1.875-0.225c0.446-0.068,0.891-0.155,1.334-0.24c-1.027,0.197,1.166-0.217,0.92-0.168
				c3.027-0.574,6.291-1.182,9.01-3.221C91.401,203.384,90.94,197.539,90.54,193.289z"/>
			<path fill="#472411" d="M81.311,118.852c0,1.724-2.193,3.122-4.9,3.122c-2.706,0-4.9-1.398-4.9-3.122
				c0-1.724,2.194-3.122,4.9-3.122C79.118,115.73,81.311,117.128,81.311,118.852z"/>
			<g>
				<g>
					<path fill="#472411" d="M75.705,121.016c0.1,2.382,0.094,4.782,0.466,7.142c0.033,0.212,0.395,0.212,0.429,0
						c0.381-2.421,0.323-4.84-0.072-7.253C76.451,120.438,75.685,120.549,75.705,121.016L75.705,121.016z"/>
				</g>
			</g>
			<g>
				<g>
					<path fill="#472411" d="M70.358,125.022c0.987,2.749,3.301,4.363,6.257,4.19c2.711-0.159,5.7-1.836,6.15-4.69
						c0.048-0.307-0.349-0.665-0.6-0.349c-2.824,3.553-8.693,5.825-11.322,0.645C70.708,124.553,70.256,124.737,70.358,125.022
						L70.358,125.022z"/>
				</g>
			</g>
			<path fill="#F28889" d="M53.884,121.865c0,2.163-3.098,3.916-6.919,3.916c-3.822,0-6.92-1.753-6.92-3.916
				c0-2.164,3.098-3.918,6.92-3.918C50.786,117.947,53.884,119.701,53.884,121.865z"/>
			<path fill="#F28889" d="M112.548,120.256c0,2.163-3.098,3.917-6.92,3.917c-3.82,0-6.92-1.754-6.92-3.917
				c0-2.163,3.1-3.917,6.92-3.917C109.45,116.339,112.548,118.093,112.548,120.256z"/>
			<g>
				<defs>
					<path id="SVGID_35_" d="M57.308,164.583c-1.639,1.129-5.457,0.222-7.38-0.152c-2.008-0.391-5.179-1.234-6.21-2.121
						c-2.332-2.006-4.769-5.438-5.083-8.575c-0.3-3.001,0.829-6.001-1.88-8.235c-2.463-2.033-6.219-2.176-8.503,0.205
						c-7.074,7.375,0.285,19.271,6.292,24.734c3.663,3.33,8.086,4.273,12.935,4.376c5.688,0.12,9.199-2.39,13.116-5.973
						C62.85,166.779,59.859,162.828,57.308,164.583z"/>
				</defs>
				<clipPath id="SVGID_2_">
					<use xlink:href="#SVGID_35_"  overflow="visible"/>
				</clipPath>
				<g clip-path="url(#SVGID_2_)">
					<path fill="#867E8D" d="M57.308,164.583c-1.639,1.129-5.457,0.222-7.38-0.152c-2.008-0.391-5.179-1.234-6.21-2.121
						c-2.332-2.006-4.769-5.438-5.083-8.575c-0.3-3.001,0.829-6.001-1.88-8.235c-2.463-2.033-6.219-2.176-8.503,0.205
						c-7.074,7.375,0.285,19.271,6.292,24.734c3.663,3.33,8.086,4.273,12.935,4.376c5.688,0.12,9.199-2.39,13.116-5.973
						C62.85,166.779,59.859,162.828,57.308,164.583z"/>
				</g>
				<g clip-path="url(#SVGID_2_)">
					<g>
						<path fill="#472411" d="M26.752,144.904c0.25,2.508,0.463,5.482,1.701,7.717c0.097,0.175,0.426,0.109,0.399-0.108
							c-0.309-2.558-1.18-5.024-1.477-7.608C27.331,144.511,26.712,144.502,26.752,144.904L26.752,144.904z"/>
					</g>
				</g>
				<g clip-path="url(#SVGID_2_)">
					<g>
						<path fill="#472411" d="M30.163,143.591c0.242,2.152,0.245,4.681,1.184,6.664c0.088,0.186,0.387,0.091,0.381-0.103
							c-0.059-2.193-0.658-4.466-0.953-6.643C30.728,143.164,30.123,143.242,30.163,143.591L30.163,143.591z"/>
					</g>
				</g>
				<g clip-path="url(#SVGID_2_)">
					<g>
						<path fill="#472411" d="M34.165,143.068c-0.072,2.903-0.64,6.466,0.159,9.277c0.097,0.343,0.598,0.343,0.695,0
							c0.8-2.814,0.231-6.378,0.159-9.277C35.162,142.416,34.181,142.415,34.165,143.068L34.165,143.068z"/>
					</g>
				</g>
			</g>
			<g>
				<defs>
					<path id="SVGID_37_" d="M95.259,164.583c1.639,1.129,5.455,0.222,7.379-0.152c2.008-0.391,5.18-1.234,6.211-2.121
						c2.332-2.006,4.77-5.438,5.082-8.575c0.301-3.001-0.828-6.001,1.881-8.235c2.463-2.033,6.219-2.176,8.504,0.205
						c7.072,7.375-0.285,19.271-6.293,24.734c-3.662,3.33-8.086,4.273-12.934,4.376c-5.688,0.12-9.199-2.39-13.117-5.973
						C89.718,166.779,92.706,162.828,95.259,164.583z"/>
				</defs>
				<clipPath id="SVGID_3_">
					<use xlink:href="#SVGID_37_"  overflow="visible"/>
				</clipPath>
				<g clip-path="url(#SVGID_3_)">
					<path fill="#867E8D" d="M95.259,164.583c1.639,1.129,5.455,0.222,7.379-0.152c2.008-0.391,5.18-1.234,6.211-2.121
						c2.332-2.006,4.77-5.438,5.082-8.575c0.301-3.001-0.828-6.001,1.881-8.235c2.463-2.033,6.219-2.176,8.504,0.205
						c7.072,7.375-0.285,19.271-6.293,24.734c-3.662,3.33-8.086,4.273-12.934,4.376c-5.688,0.12-9.199-2.39-13.117-5.973
						C89.718,166.779,92.706,162.828,95.259,164.583z"/>
				</g>
				<g clip-path="url(#SVGID_3_)">
					<g>
						<path fill="#472411" d="M125.191,144.904c-0.297,2.584-1.168,5.052-1.477,7.608c-0.026,0.217,0.303,0.283,0.399,0.108
							c1.238-2.235,1.45-5.209,1.701-7.717C125.855,144.503,125.236,144.511,125.191,144.904L125.191,144.904z"/>
					</g>
				</g>
				<g clip-path="url(#SVGID_3_)">
					<g>
						<path fill="#472411" d="M121.79,143.508c-0.295,2.178-0.894,4.45-0.953,6.643c-0.005,0.195,0.293,0.29,0.381,0.103
							c0.939-1.983,0.942-4.512,1.184-6.664C122.441,143.245,121.837,143.16,121.79,143.508L121.79,143.508z"/>
					</g>
				</g>
				<g clip-path="url(#SVGID_3_)">
					<g>
						<path fill="#472411" d="M117.387,143.068c-0.072,2.903-0.64,6.466,0.159,9.277c0.097,0.343,0.598,0.343,0.695,0
							c0.8-2.814,0.231-6.378,0.159-9.277C118.384,142.416,117.403,142.415,117.387,143.068L117.387,143.068z"/>
					</g>
				</g>
			</g>
			<g>
				<g>
					<path fill="#472411" d="M52.3,114.025c0.894-1.646,1.448-3.639,3.71-3.389c1.686,0.187,2.887,1.47,3.238,3.068
						c0.666,3.027,5.383,1.749,4.658-1.284c-0.862-3.61-4.373-6.111-8.063-5.948c-3.58,0.159-7,3.551-5.654,7.277
						C50.509,114.631,51.794,114.956,52.3,114.025L52.3,114.025z"/>
				</g>
			</g>
			<g>
				<g>
					<path fill="#472411" d="M100.419,113.75c1.347-3.724-2.073-7.118-5.653-7.277c-3.69-0.164-7.201,2.338-8.064,5.948
						c-0.724,3.028,3.991,4.316,4.658,1.284c0.352-1.598,1.552-2.882,3.239-3.068c2.258-0.25,2.818,1.747,3.71,3.389
						C98.816,114.959,100.099,114.633,100.419,113.75L100.419,113.75z"/>
				</g>
			</g>
		</g>
	</g>
</g>
</svg>
