<svg xmlns="http://www.w3.org/2000/svg" viewBox="0 0 16 16"><path style="line-height:normal;text-indent:0;text-align:start;text-decoration-line:none;text-decoration-style:solid;text-decoration-color:#000;text-transform:none;block-progression:tb;isolation:auto;mix-blend-mode:normal" d="M11.514 1.996a.5.5 0 0 0-.045.002.5.5 0 0 0-.178.049L5.064 4.92A1.507 1.507 0 0 1 5 4.5l-.008.008A.5.5 0 0 0 4.5 4h-2a.5.5 0 0 0-.5.5v9a.5.5 0 0 0 .5.5h10a.5.5 0 0 0 .5-.5v-7a.5.5 0 0 0-.5-.5h-6c-.313 0-.603-.093-.842-.254l6.051-2.793a.5.5 0 0 0-.195-.957zM3 5h1.207C4.465 6.105 5.32 7 6.5 7H12v1H3V5zm0 4h9v4h-1a1 1 0 0 0-1-1H5a1 1 0 0 0-1 1H3V9zm5.5 1a.5.5 0 0 0-.5.5.5.5 0 0 0 .5.5.5.5 0 0 0 .5-.5.5.5 0 0 0-.5-.5zm2 0a.5.5 0 0 0-.5.5.5.5 0 0 0 .5.5.5.5 0 0 0 .5-.5.5.5 0 0 0-.5-.5z" font-weight="400" font-family="sans-serif" white-space="normal" overflow="visible"/></svg>