<svg xmlns="http://www.w3.org/2000/svg" viewBox="0 0 50 50"><path d="M32.594 4a2.96 2.96 0 0 0-2.125.875L3.875 31.75c-1.168 1.18-1.168 3.129 0 4.313l9.563 9.656c.19.183.453.285.718.281H41a1.012 1.012 0 0 0 .996-1.547A1.012 1.012 0 0 0 41 44H25.031l22.094-22.313c1.168-1.18 1.172-3.128 0-4.312L34.75 4.875A3.034 3.034 0 0 0 32.594 4zm0 2c.25 0 .52.11.718.313l12.376 12.5a.974.974 0 0 1 .25.937c-.118-.422-.477-.75-.938-.75-.55 0-1 .45-1 1 0 .543.43.984.969 1L43 22.969A.998.998 0 0 0 42 22c-.55 0-1 .45-1 1 0 .543.43.984.969 1L40 26c0-.55-.45-1-1-1s-1 .45-1 1 .45 1 1 1l-2 2c0-.55-.45-1-1-1s-1 .45-1 1 .45 1 1 1h.063l-2.094 2.094c.004-.035.031-.059.031-.094 0-.55-.45-1-1-1a.957.957 0 0 0-.5.156l-1.688-1.593A.972.972 0 0 0 31 29c0-.55-.45-1-1-1-.25 0-.48.098-.656.25l-1.625-1.531c.18-.18.281-.442.281-.719 0-.55-.45-1-1-1a.99.99 0 0 0-.75.344l-1.656-1.563A.976.976 0 0 0 25 23c0-.55-.45-1-1-1-.352 0-.633.195-.813.469l-1.75-1.594c.325-.164.563-.484.563-.875 0-.55-.45-1-1-1-.414 0-.754.266-.906.625l-.563-.531a.954.954 0 0 0-.156-.125L31.906 6.312c.2-.203.438-.312.688-.312zM33 7c-.55 0-1 .45-1 1s.45 1 1 1 1-.45 1-1-.45-1-1-1zm-3 3c-.55 0-1 .45-1 1s.45 1 1 1 1-.45 1-1-.45-1-1-1zm6 0c-.55 0-1 .45-1 1s.45 1 1 1 1-.45 1-1-.45-1-1-1zm-9 3c-.55 0-1 .45-1 1s.45 1 1 1 1-.45 1-1-.45-1-1-1zm6 0c-.55 0-1 .45-1 1s.45 1 1 1 1-.45 1-1-.45-1-1-1zm6 0c-.55 0-1 .45-1 1s.45 1 1 1 1-.45 1-1-.45-1-1-1zm-15 3c-.55 0-1 .45-1 1s.45 1 1 1 1-.45 1-1-.45-1-1-1zm6 0c-.55 0-1 .45-1 1s.45 1 1 1 1-.45 1-1-.45-1-1-1zm6 0c-.55 0-1 .45-1 1s.45 1 1 1 1-.45 1-1-.45-1-1-1zm6 0c-.55 0-1 .45-1 1s.45 1 1 1 1-.45 1-1-.45-1-1-1zm-15 3c-.55 0-1 .45-1 1s.45 1 1 1 1-.45 1-1-.45-1-1-1zm6 0c-.55 0-1 .45-1 1s.45 1 1 1 1-.45 1-1-.45-1-1-1zm6 0c-.55 0-1 .45-1 1s.45 1 1 1 1-.45 1-1-.45-1-1-1zm-21.031 1.406c.054.07.117.133.187.188L32.344 33.75 22.187 44h-7.593l-9.281-9.375a1.01 1.01 0 0 1 0-1.438zM30 22c-.55 0-1 .45-1 1s.45 1 1 1 1-.45 1-1-.45-1-1-1zm6 0c-.55 0-1 .45-1 1s.45 1 1 1 1-.45 1-1-.45-1-1-1zm-3 3c-.55 0-1 .45-1 1s.45 1 1 1 1-.45 1-1-.45-1-1-1z"/></svg>