<svg xmlns="http://www.w3.org/2000/svg" viewBox="0 0 64 64"><path d="M59 5H15a2 2 0 0 0-2 2v38L9 59h44a8 8 0 0 0 8-8V7a2 2 0 0 0-2-2z" fill="#faefde"/><path d="M17 59.059l-.148-9.457L60.34 6.122 61 29.058l-30 30zM14.059 45.32A1.33 1.33 0 0 1 13 43.06L51.059 5l5.75.25L17 45.059zm-1.079-8.23L45 5.059h3l-35.02 35.03z" fill="#fff7f0"/><path d="M22.5 17l1.238 2.262L26 20.5l-2.262 1.238L22.5 24l-1.238-2.262L19 20.5l2.262-1.238zm25.078 8l.863 1.559 1.559.863-1.559.848-.863 1.57-.848-1.57-1.57-.848 1.57-.863zm-13.93 13l.582 1.059 1.07.59-1.07.581-.582 1.07-.59-1.07L32 39.648l1.059-.59z" fill="#fff"/><path d="M50 59H9.578A8.577 8.577 0 0 1 1 50.422V45h44v8z" fill="#bbdef9"/><path d="M59 4H15a3 3 0 0 0-3 3v37H3a3 3 0 0 0-3 3v4c0 4.969 4.031 9 9 9h44c4.969 0 9-4.031 9-9V7a3 3 0 0 0-3-3zM9 58c-3.867 0-7-3.133-7-7v-1h31c.55 0 1-.45 1-1s-.45-1-1-1H2v-1c0-.55.45-1 1-1h40c.55 0 1 .45 1 1v4a8.998 8.998 0 0 0 3.36 7zm51-7c0 3.867-3.133 7-7 7s-7-3.133-7-7v-4a3 3 0 0 0-3-3H14V7c0-.55.45-1 1-1h44c.55 0 1 .45 1 1z" fill="#8d6c9f"/><path d="M17 10c-.55 0-1 .45-1 1v2c0 .55.45 1 1 1s1-.45 1-1v-2c0-.55-.45-1-1-1zm5 0c-.55 0-1 .45-1 1v2c0 .55.45 1 1 1s1-.45 1-1v-2c0-.55-.45-1-1-1zm5 0c-.55 0-1 .45-1 1v2c0 .55.45 1 1 1s1-.45 1-1v-2c0-.55-.45-1-1-1zm5 0c-.55 0-1 .45-1 1v2c0 .55.45 1 1 1s1-.45 1-1v-2c0-.55-.45-1-1-1zm5 0c-.55 0-1 .45-1 1v2c0 .55.45 1 1 1s1-.45 1-1v-2c0-.55-.45-1-1-1zm5 0c-.55 0-1 .45-1 1v2c0 .55.45 1 1 1s1-.45 1-1v-2c0-.55-.45-1-1-1zm5 0c-.55 0-1 .45-1 1v2c0 .55.45 1 1 1s1-.45 1-1v-2c0-.55-.45-1-1-1zm5 0c-.55 0-1 .45-1 1v2c0 .55.45 1 1 1s1-.45 1-1v-2c0-.55-.45-1-1-1zm5 0c-.55 0-1 .45-1 1v2c0 .55.45 1 1 1s1-.45 1-1v-2c0-.55-.45-1-1-1zM41 48h-4c-.55 0-1 .45-1 1s.45 1 1 1h4c.55 0 1-.45 1-1s-.45-1-1-1z" fill="#8d6c9f"/></svg>