<svg xmlns="http://www.w3.org/2000/svg" viewBox="0 0 16 16"><path style="line-height:normal;text-indent:0;text-align:start;text-decoration-line:none;text-decoration-style:solid;text-decoration-color:#000;text-transform:none;block-progression:tb;isolation:auto;mix-blend-mode:normal" d="M4 2v9H2v1.5c0 .412.145.804.422 1.08.276.276.668.42 1.078.42h8c.41 0 .802-.144 1.078-.42.277-.276.422-.668.422-1.08V2H4zm1 1h7v9.5c0 .19-.055.298-.129.371-.074.074-.182.129-.371.129-.309 0-.5-.244-.5-.625V11H5V3zm-2 9h7v.375c0 .23.145.416.232.625H3.5c-.189 0-.297-.055-.371-.129-.074-.073-.129-.18-.129-.371V12z" font-weight="400" font-family="sans-serif" white-space="normal" overflow="visible"/></svg>