<svg xmlns="http://www.w3.org/2000/svg" viewBox="0 0 64 64"><linearGradient id="a" gradientUnits="userSpaceOnUse" x1="32" y1="6.375" x2="32" y2="58.31" spreadMethod="reflect"><stop offset="0" stop-color="#1a6dff"/><stop offset="1" stop-color="#c822ff"/></linearGradient><path d="M55 7H21c-1.654 0-3 1.346-3 3v36H6v4c0 3.859 3.14 7 7 7h38.003a6.942 6.942 0 0 0 4.871-1.976A6.943 6.943 0 0 0 58 50V10c0-1.654-1.346-3-3-3zM21 9h34c.551 0 1 .448 1 1v1.184A2.966 2.966 0 0 0 55 11H21c-.352 0-.686.072-1 .184V10c0-.552.449-1 1-1zm-8 46c-2.757 0-5-2.243-5-5v-2h36v1.748c0 2.05.848 3.923 2.197 5.252H13zm43-5c0 1.364-.54 2.639-1.519 3.589a4.954 4.954 0 0 1-3.636 1.408C48.174 54.917 46 52.563 46 49.748V46H20V14c0-.552.449-1 1-1h34c.551 0 1 .448 1 1v36z" fill="url(#a)"/><linearGradient id="b" gradientUnits="userSpaceOnUse" x1="26" y1="14.625" x2="26" y2="24.263" spreadMethod="reflect"><stop offset="0" stop-color="#6dc7ff"/><stop offset="1" stop-color="#e6abff"/></linearGradient><path d="M22 23v-7a1 1 0 0 1 1-1h7l-8 8z" fill="url(#b)"/></svg>