<svg xmlns="http://www.w3.org/2000/svg" viewBox="0 0 50 50"><path d="M33.875 3a1 1 0 0 0-.656.375l-4 5-.563.688.625.656.438.437C25.609 14.055 21.082 15 13 15h-.813l-.156.813c-1.96 9.812-8.969 29.843-8.969 29.843l-.687 1.969 1.969-.688s20.031-7.007 29.843-8.968l.813-.157V37c0-8.086.945-12.61 4.844-16.719l.437.438.594.562.688-.437 6-4a1.014 1.014 0 1 0-1.126-1.688l-5.312 3.531-9.781-9.78 3.437-4.282A1 1 0 0 0 33.875 3zm-2.75 8.563l7.313 7.312c-4.18 4.39-5.333 9.535-5.407 17.344-8.222 1.742-20.273 5.758-25.281 7.468L22.188 29.25c.527.281 1.117.469 1.75.469a3.766 3.766 0 0 0 3.75-3.75c0-2.059-1.692-3.719-3.75-3.719-2.06 0-3.75 1.66-3.75 3.719 0 .683.207 1.32.53 1.875L6.314 42.25c1.71-5.008 5.726-17.059 7.468-25.281 7.805-.074 12.953-1.227 17.344-5.407zM23.937 24.25c.977 0 1.75.742 1.75 1.719 0 .976-.773 1.75-1.75 1.75-.43 0-.824-.125-1.125-.375a.945.945 0 0 0-.125-.125 1.756 1.756 0 0 1-.5-1.25c0-.977.774-1.719 1.75-1.719z"/></svg>