<svg xmlns="http://www.w3.org/2000/svg" viewBox="0 0 80 80"><path d="M64.344 9.008c-1.707 0-3.41.644-4.707 1.941L36.5 34.086l-1.5-1.5-6.574 6.574-16.344 7.153L8.84 71.16l24.848-3.242 7.152-16.344L47.414 45l-1.5-1.5 23.137-23.137c2.59-2.59 2.59-6.824 0-9.414a6.629 6.629 0 0 0-4.707-1.941zm0 1.988c1.191 0 2.379.453 3.293 1.367a4.64 4.64 0 0 1 0 6.586L43.086 43.5l1.5 1.5-5.426 5.426-6.847 15.656-19.528 2.543 11.7-11.695A1.999 1.999 0 0 0 27 55a2 2 0 0 0-2.001-2 1.999 1.999 0 0 0-1.934 2.516l-11.69 11.699 2.543-19.528 15.656-6.847L35 35.414l1.5 1.5 24.55-24.55a4.635 4.635 0 0 1 3.294-1.368zM63 14c-.55 0-1 .45-1 1s.45 1 1 1 1-.45 1-1-.45-1-1-1zm-3 3c-.55 0-1 .45-1 1s.45 1 1 1 1-.45 1-1-.45-1-1-1zm-3 3c-.55 0-1 .45-1 1s.45 1 1 1 1-.45 1-1-.45-1-1-1zm-3 3c-.55 0-1 .45-1 1s.45 1 1 1 1-.45 1-1-.45-1-1-1zm-3 3c-.55 0-1 .45-1 1s.45 1 1 1 1-.45 1-1-.45-1-1-1zm-3 3c-.55 0-1 .45-1 1s.45 1 1 1 1-.45 1-1-.45-1-1-1zm-3 3c-.55 0-1 .45-1 1s.45 1 1 1 1-.45 1-1-.45-1-1-1zm-6 5c-.55 0-1 .45-1 1s.45 1 1 1 1-.45 1-1-.45-1-1-1zm3 3c-.55 0-1 .45-1 1s.45 1 1 1 1-.45 1-1-.45-1-1-1z"/></svg>