<svg xmlns="http://www.w3.org/2000/svg" viewBox="0 0 16 16"><path d="M14.5 1c-3.456 0-5.85.725-7.113 2.156-.766.867-.883 1.753-.89 2.166-.47.529-1.05 1.37-1.259 1.678H3.5a.5.5 0 0 0-.5.5V9h-.5C1.673 9 1 9.673 1 10.5v2c0 .827.673 1.5 1.5 1.5h6c.827 0 1.5-.673 1.5-1.5v-2C10 9.673 9.327 9 8.5 9H8V7.5a.5.5 0 0 0-.5-.5H6.459c.278-.391.545-.738.773-.994.102.005.121.012.311.012 1.591 0 5.932-.376 7.426-4.342A.501.501 0 0 0 14.5 1zm-.781 1.014C12.197 4.82 8.802 5.05 7.525 5.025c.058-.316.218-.77.633-1.23.688-.761 2.209-1.66 5.56-1.781zM4 8h3v1.5a.5.5 0 0 0 .5.5h1a.5.5 0 0 1 .5.5v2a.5.5 0 0 1-.5.5h-6a.5.5 0 0 1-.5-.5v-2a.5.5 0 0 1 .5-.5h1a.5.5 0 0 0 .5-.5V8z"/></svg>