<svg xmlns="http://www.w3.org/2000/svg" viewBox="0 0 50 50"><path d="M48.121 14.04L35.891 1.808a.993.993 0 0 0-1.414 0l-3.63 3.625 3.86 3.859-1.414 1.414-3.86-3.86-2.585 2.587 6.859 6.859-1.414 1.414-6.86-6.86-2.585 2.587 3.859 3.859-1.414 1.414-3.86-3.86-2.585 2.587 6.859 6.859-1.414 1.414-6.86-6.86-2.585 2.587 3.859 3.859-1.414 1.414-3.86-3.86-2.585 2.587 6.859 6.859-1.414 1.414-6.86-6.86-2.585 2.587 3.859 3.859-1.414 1.414-3.86-3.86-3.554 3.555a1.006 1.006 0 0 0-.293.707c0 .27.105.524.293.707l12.23 12.235a1 1 0 0 0 1.414 0l32.598-32.598a1 1 0 0 0 0-1.414z"/></svg>