<svg xmlns="http://www.w3.org/2000/svg" viewBox="0 0 16 16"><path d="M8 3c-1.857 0-3.543.34-4.807.924-.632.292-1.16.644-1.55 1.07C1.253 5.42 1 5.94 1 6.5v3c0 .56.252 1.08.643 1.506.39.426.918.778 1.55 1.07C4.457 12.66 6.143 13 8 13c1.857 0 3.543-.34 4.807-.924.632-.292 1.16-.644 1.55-1.07.39-.426.643-.945.643-1.506v-3c0-.56-.252-1.08-.643-1.506-.39-.426-.918-.778-1.55-1.07C11.543 3.34 9.857 3 8 3zm0 1c1.733 0 3.298.33 4.387.832.544.251.966.546 1.234.838.268.292.379.562.379.83 0 .268-.111.538-.379.83-.268.292-.69.587-1.234.838C11.298 8.67 9.733 9 8 9c-1.733 0-3.298-.33-4.387-.832-.544-.251-.966-.546-1.234-.838C2.11 7.038 2 6.768 2 6.5c0-.268.111-.538.379-.83.268-.292.69-.587 1.234-.838C4.702 4.33 6.267 4 8 4zm0 1a4 1.5 0 0 0-4 1.5A4 1.5 0 0 0 8 8a4 1.5 0 0 0 4-1.5A4 1.5 0 0 0 8 5zM2 8.342c.336.28.736.523 1.193.734 1.032.476 2.35.778 3.807.877v2c-1.327-.1-2.514-.382-3.387-.785-.544-.251-.966-.546-1.234-.838C2.11 10.038 2 9.768 2 9.5V8.342zm12 0V9.5c0 .268-.111.538-.379.83-.268.292-.69.587-1.234.838-.873.403-2.06.685-3.387.785v-2c1.457-.1 2.775-.4 3.807-.877A5.38 5.38 0 0 0 14 8.342z"/></svg>