<svg xmlns="http://www.w3.org/2000/svg" viewBox="0 0 64 64"><path d="M18.77.016c-3.543-.012-6.754 1.418-6.946 1.507l-.652.293.066.715c.032.305.797 7.563 5.575 10.324 1.507.868 3.207 1.168 4.828 1.168 2.558 0 4.93-.746 6.117-1.187a31.21 31.21 0 0 1 3.273 3.031c-.011.375-.031.75-.031 1.13v2.472a2.198 2.198 0 0 1-.36-.25C28.169 17.113 25.18 16 22 16c-8.727 0-18 6.66-18 19 0 5.96 2.613 13.191 6.992 19.344C15.23 60.3 20.22 64 24 64c1.457 0 2.895-.406 4.27-1.207a7.335 7.335 0 0 1 7.46 0C37.105 63.593 38.543 64 40 64c3.781 0 8.77-3.7 13.008-9.656C57.387 48.19 60 40.96 60 35c0-12.34-9.273-19-18-19-3.18 0-6.168 1.113-8.64 3.219-.114.097-.235.18-.36.25v-2.473a31.072 31.072 0 0 1 3.684-14.652 1 1 0 1 0-1.762-.946 33.047 33.047 0 0 0-3.695 11.809 34.024 34.024 0 0 0-2.118-1.852c-.136-1.105-1.097-7.593-5.558-10.168C22.059.325 20.379.02 18.77.016zm-.06 1.996c1.321-.004 2.673.234 3.84.91 2.466 1.422 3.645 4.55 4.18 6.664-.011-.008-.023-.02-.035-.024l-4.836-3.23a1.001 1.001 0 0 0-1.109 1.664l4.832 3.227c.074.05.145.105.215.152-2.086.61-5.461 1.2-7.985-.254-3.097-1.793-4.164-6.281-4.472-8.055 1.055-.386 3.172-1.05 5.37-1.054zM22 18c2.734 0 5.207.922 7.344 2.746a4.085 4.085 0 0 0 5.312 0C36.793 18.922 39.266 18 42 18c11.656 0 16 10.43 16 17 0 12.695-11.742 27-18 27-1.102 0-2.2-.313-3.266-.938A9.41 9.41 0 0 0 32 59.77a9.42 9.42 0 0 0-4.734 1.292C26.199 61.688 25.102 62 24 62 17.742 62 6 47.695 6 35c0-6.57 4.344-17 16-17zm20.5 4a1 1 0 1 0 0 2c.95 0 1.887.16 2.785.48a.998.998 0 0 0 1.277-.605.996.996 0 0 0-.605-1.277A10.33 10.33 0 0 0 42.5 22zm6.652 2.738a1.003 1.003 0 0 0-.699.317.996.996 0 0 0 .04 1.414C50.722 28.57 52 31.679 52 35a1 1 0 1 0 2 0c0-3.867-1.508-7.508-4.137-9.984a1 1 0 0 0-.71-.278zM26.098 34a.98.98 0 0 0-.551.168C25.44 34.238 23 35.895 23 38.5c0 2.605 2.441 4.262 2.547 4.332a1.006 1.006 0 0 0 1.11 0c.1-.07 2.542-1.727 2.542-4.332 0-2.605-2.441-4.262-2.543-4.332a1.006 1.006 0 0 0-.558-.168zM38 34a.993.993 0 0 0-.555.168c-.101.066-2.445 1.656-2.445 4.164s2.344 4.102 2.445 4.168c.168.11.36.168.555.168.195 0 .387-.059.555-.168.101-.066 2.445-1.66 2.445-4.168s-2.348-4.098-2.445-4.164A.993.993 0 0 0 38 34zm-11.902 2c.55.535 1.254 1.438 1.254 2.5 0 1.066-.704 1.965-1.25 2.5-.547-.535-1.254-1.438-1.254-2.5 0-1.066.703-1.965 1.25-2.5zM38 36c.516.516 1.152 1.348 1.152 2.332 0 .984-.636 1.82-1.152 2.336-.516-.516-1.152-1.352-1.152-2.336 0-.984.636-1.816 1.152-2.332zm-27 2.965a1 1 0 1 0 0 2l2 .004a1 1 0 1 0 0-2zm2.676 4.156a.968.968 0 0 0-.395.024l-1.933.511a1 1 0 0 0-.707 1.227.997.997 0 0 0 1.218.71l1.938-.515c.531-.144.848-.691.707-1.223a.998.998 0 0 0-.828-.734zm1.328 3.86a.968.968 0 0 0-.375.124l-1.734.997a.998.998 0 0 0-.368 1.367.996.996 0 0 0 1.364.367l1.734-.996c.48-.278.645-.887.371-1.367a1.008 1.008 0 0 0-.992-.493zm2.664 3.312a.982.982 0 0 0-.711.289l-1.414 1.41a1 1 0 1 0 1.41 1.418L18.371 52a1 1 0 0 0-.703-1.707zm3.43 2.555a1.004 1.004 0 0 0-.993.492l-1 1.726a1.002 1.002 0 0 0 .864 1.504 1 1 0 0 0 .863-.496l1.004-1.73a1.005 1.005 0 0 0-.363-1.371 1.014 1.014 0 0 0-.375-.125z"/></svg>