<svg xmlns="http://www.w3.org/2000/svg" viewBox="0 0 40 40"><path d="M13.5 8.5c0 3.313-2.688 6-6 6-3.313 0-6-2.688-6-6 0-3.313 2.688-6 6-6 3.313 0 6 2.688 6 6z" fill="#dff0fe"/><path d="M7.5 3C10.531 3 13 5.469 13 8.5S10.531 14 7.5 14A5.508 5.508 0 0 1 2 8.5C2 5.469 4.469 3 7.5 3m0-1a6.5 6.5 0 1 0 0 13 6.5 6.5 0 0 0 0-13z" fill="#4788c7"/><path d="M8 8h22v1H8zm11 4h1v9h-1z" fill="#4788c7"/><path d="M7 37.5A2.502 2.502 0 0 1 4.5 35V21c0-1.379 1.121-2.5 2.5-2.5h25c1.379 0 2.5 1.121 2.5 2.5v14c0 1.379-1.121 2.5-2.5 2.5z" fill="#98ccfd"/><path d="M32 19c1.102 0 2 .898 2 2v14c0 1.102-.898 2-2 2H7c-1.102 0-2-.898-2-2V21c0-1.102.898-2 2-2h25m0-1H7a3.01 3.01 0 0 0-3 3v14c0 1.648 1.352 3 3 3h25c1.648 0 3-1.352 3-3V21c0-1.648-1.352-3-3-3z" fill="#4788c7"/><path d="M9.5 23.5h20v9h-20z" fill="#fff"/><path d="M29 24v8H10v-8h19m1-1H9v10h21z" fill="#4788c7"/><path d="M14.5 27a.498.498 0 0 1-.5-.5v-3a.499.499 0 1 1 1 0v3c0 .277-.223.5-.5.5zm5 0a.498.498 0 0 1-.5-.5v-3a.499.499 0 1 1 1 0v3c0 .277-.223.5-.5.5zm5 0a.498.498 0 0 1-.5-.5v-3a.499.499 0 1 1 1 0v3c0 .277-.223.5-.5.5zm-3 0l1.5 5h-3z" fill="#4788c7"/><path d="M37.5 8.5c0 3.313-2.688 6-6 6-3.313 0-6-2.688-6-6 0-3.313 2.688-6 6-6 3.313 0 6 2.688 6 6z" fill="#dff0fe"/><path d="M31.5 3C34.531 3 37 5.469 37 8.5S34.531 14 31.5 14A5.508 5.508 0 0 1 26 8.5C26 5.469 28.469 3 31.5 3m0-1a6.5 6.5 0 1 0 0 13 6.5 6.5 0 0 0 0-13z" fill="#4788c7"/><path d="M35 8.5a3.5 3.5 0 1 1-7 0 3.5 3.5 0 1 1 7 0z" fill="#98ccfd"/><path d="M16.5 2.5c3.309 0 6 2.691 6 6s-2.691 6-6 6z" fill="#dff0fe"/><path d="M17 3.023c2.8.254 5 2.614 5 5.477 0 2.863-2.2 5.223-5 5.477V3.023M16.5 2H16v13h.5a6.5 6.5 0 0 0 0-13zm-7 7h-2a.504.504 0 0 1-.5-.5c0-.273.227-.5.5-.5h2c.273 0 .5.227.5.5s-.227.5-.5.5z" fill="#4788c7"/></svg>