<svg xmlns="http://www.w3.org/2000/svg" viewBox="0 0 26 26"><path d="M12 0v5.281c-.043-.027-.082-.066-.125-.093C10.684 4.457 9.312 4 7.812 4 3.513 4 0 7.512 0 11.813 0 19.511 7.508 26 10.406 26c.25 0 .492-.027.719-.063.227-.035.445-.062.656-.125.426-.125.82-.3 1.219-.5.8.399 1.594.688 2.594.688C18.492 26 26 20.812 26 11.812c0-3.859-2.813-7.066-6.5-7.687C20.855 2.285 21 0 21 0s-3.094-.086-5.094 1.813C14.828 2.84 14.281 4.163 14 5.188V0zm6.188 6C21.386 6 24 8.613 24 11.813 24 20.011 17.195 24 15.594 24c-.5 0-1.094-.207-1.594-.406L13 23V8.687L14.313 7.5c1.101-1 2.476-1.5 3.874-1.5zm-1.625 5.938a.554.554 0 0 0-.375.156c-.5.5-1.188 1.406-1.188 2.406 0 1 .688 1.906 1.188 2.406.199.2.519.2.718 0 .399-.398 1.188-1.304 1.188-2.406s-.688-1.906-1.188-2.406a.484.484 0 0 0-.343-.156z"/></svg>