<svg xmlns="http://www.w3.org/2000/svg" viewBox="0 0 32 32"><path d="M15.719 4l-.188.063S11 5.813 11 10c0 1.793 1.04 3.066 2 3.875v13.219l.531.281S14.645 28 16 28c1.355 0 2.469-.625 2.469-.625l.531-.281V14.562c1-1.164 2-2.71 2-4.562 0-1.926-1.203-3.402-2.281-4.375-1.078-.973-2.157-1.5-2.157-1.5L16.345 4zm-7 1l-.188.063C8.348 5.136 4 6.94 4 11c0 1.71 1.043 2.984 2 3.813v11.28l.531.282S7.645 27 9 27c1.355 0 2.469-.625 2.469-.625l.531-.281V15.53c.102-.117.215-.219.313-.344-.47-.374-.989-.832-1.438-1.406-.824 1.106-1.875 2.008-2.438 2.406l1.126 1.625c.023-.015.296-.234.437-.343v7.281c-.3.113-.535.25-1 .25-.465 0-.7-.137-1-.25V15l.438-.906C8.414 14.082 6 12.832 6 11c0-.8.285-1.469.688-2.031C7.543 10.273 9 11.39 9.874 12a5.641 5.641 0 0 1-.375-2c0-.277.031-.55.063-.813-.606-.554-1.122-1.132-1.376-1.624.305-.208.583-.399.782-.5.27.164.601.39.937.656a7.227 7.227 0 0 1 .938-1.782 10.59 10.59 0 0 0-1.281-.812L9.342 5zm14 0l-.188.063A8.66 8.66 0 0 0 21 5.905c.398.52.77 1.11 1.031 1.75.367-.261.707-.476.938-.593.23.14.527.347.812.562-.07.094-.11.188-.187.281-.364.434-.719.813-.719.813l1.375 1.437s.438-.441.875-.969c.031-.039.063-.085.094-.124.441.585.781 1.242.781 1.937 0 2.18-2.57 4.484-3.563 5.188l1.125 1.625c.028-.02.274-.215.438-.344v7.281c-.3.113-.535.25-1 .25-.465 0-.7-.137-1-.25V15l.438-.906a6.083 6.083 0 0 1-.907-.594A7.2 7.2 0 0 1 20 15.531v10.563l.531.281S21.645 27 23 27c1.355 0 2.469-.625 2.469-.625l.531-.281V15.562c1.027-1.21 2-2.816 2-4.562 0-3.55-4.258-5.781-4.438-5.875L23.345 5zM16 6.125c.164.094.441.277.781.531-.066.086-.113.164-.187.25-.364.434-.719.813-.719.813l1.375 1.437s.438-.441.875-.969c.031-.039.063-.085.094-.124.453.597.781 1.26.781 1.937 0 1.176-.832 2.52-1.75 3.531a13.06 13.06 0 0 1-1.813 1.656l1.126 1.626s.246-.2.437-.344v9.281c-.3.113-.535.25-1 .25-.465 0-.7-.137-1-.25V14l.438-.906S13 11.704 13 10c0-.152.012-.293.031-.438.399.473.883.872 1.313 1.25 1.07.95 2.125 1.594 2.125 1.594l1.062-1.687s-.945-.586-1.875-1.406c-.695-.618-1.281-1.395-1.531-1.907.738-.75 1.617-1.16 1.875-1.281zm6.5 4c-.02.797-.203 1.57-.469 2.281.633.496 1.2.852 1.438 1l1.062-1.687a14.472 14.472 0 0 1-2.031-1.594z"/></svg>