<svg xmlns="http://www.w3.org/2000/svg" viewBox="0 0 50 50"><path d="M25.156 2.063c-.199 0-.414.023-.562.124C24.195 2.29 18 6.5 18 11c0 0-.102.602 0 1 0 .3.086.605.188.906 1.3 5.602 5.414 9.102 6.812 10 1.398-.898 5.387-4.418 6.688-9.218.101-.301.117-.481.218-.782.102-.3.086-.605.188-.906v-1c0-4.398-6.207-8.613-6.407-8.813-.148-.101-.332-.124-.53-.124zm9.907 3c-.2 0-.415.023-.563.125-.102.101-.906.605-1.906 1.406.699 1.199 1.21 2.511 1.312 3.812.301.399.508.883.907 1.281.699-.898 1.195-1.98 1.593-3.28.5.5 1.094.991 1.594 1.593-.8 2.2-2.2 3.895-3.5 5.094.602.601 1.5 1.511 2.5 2.312 1.102-.898 2.2-2.093 3-3.593V14c0 .7-.113 1.488-.313 2.188-.199.8-.476 1.511-.874 2.312-1.899 1.7-4 2.594-5.5 3.094-.399-.5-.915-1.086-1.313-1.688.8-.199 1.988-.707 3.188-1.406-.899-.8-1.782-1.688-2.282-2.188-.101 0-.117.094-.218.094-.7 1.602-1.594 2.992-2.594 4.094C31.793 23.3 34 25.188 35 25.688c1.398-.899 5.387-4.387 6.688-9.188.101-.3.117-.512.218-.813.102-.3.086-.574.188-.874C41.992 14.914 42 14 42 14c0-4.398-6.207-8.613-6.406-8.813-.149-.101-.332-.125-.532-.125zm-20 .093c-.2 0-.415.055-.563.157C14.2 5.313 8 9.5 8 14c0 0-.102.602 0 1 0 .3.086.605.188.906 1.3 5.602 5.414 9.102 6.812 10 .898-.601 3.113-2.492 4.813-5.093-.399-.7-.915-1.301-1.313-2-1.8 1.5-3.695 2.375-5.094 2.875-.398-.5-.914-1.086-1.312-1.688.8-.2 2.02-.707 3.219-1.406A60.256 60.256 0 0 1 13 16.406c-.8.5-1.594.887-2.094 1.188-.199-.602-.394-1.305-.594-1.907.602-.3 1.293-.68 2.094-1.28.399-.302.79-.602 1.188-1-.899-1-1.508-2.106-1.906-2.907.5-.602 1-1.094 1.5-1.594.199.7.82 1.899 1.718 3 .7-.898 1.196-2.011 1.594-3.312.2-.7.508-1.305.906-1.906-.898-.801-1.71-1.274-1.812-1.375a.935.935 0 0 0-.531-.157zm11.343.344c.5.5 1.094.992 1.594 1.594-.8 2.199-2.2 3.894-3.5 5.093.602.602 1.5 1.512 2.5 2.313 1.102-.898 2.2-2.094 3-3.594v.188a8.49 8.49 0 0 1-.313 2.219c-.199.8-.476 1.48-.875 2.28-1.898 1.7-4 2.595-5.5 3.095-.398-.5-.914-1.086-1.312-1.688.8-.2 1.988-.707 3.188-1.406-.899-.801-1.782-1.688-2.282-2.188-.8.5-1.593.887-2.093 1.188-.2-.602-.426-1.305-.625-1.906.601-.399 1.324-.774 2.125-1.376.398-.3.789-.699 1.187-1-.898-1-1.508-2.105-1.906-2.906.5-.601 1-1.093 1.5-1.593.199.699.82 1.898 1.718 3 .7-.899 1.196-2.012 1.594-3.313zm-10.218 7.813a9.544 9.544 0 0 1-1.688 1.78c.602.602 1.5 1.512 2.5 2.313.2-.101.3-.304.5-.406-.5-1.102-1.012-2.293-1.313-3.594zM29 21.905c-1.8 1.801-3.398 2.899-3.5 3-.2.102-.3.094-.5.094-.102 0-.305.008-.406-.094-.102-.1-1.794-1.007-3.594-2.905v24c0 .3.113.488.313.688.1.1 1.289 1.312 3.687 1.312 2.398 0 3.586-1.21 3.688-1.313.199-.199.312-.386.312-.687zm-10 3c-1.7 1.801-3.3 2.899-3.5 3-.102.102-.3.094-.5.094-.102 0-.305.008-.406-.094-.102-.1-1.794-1.007-3.594-2.905v19c0 .3.113.488.313.688.101.1 1.288 1.312 3.687 1.312 2.398 0 3.586-1.21 3.688-1.313.199-.199.312-.386.312-.687zm20 0c-1.7 1.801-3.3 2.899-3.5 3-.102.102-.3.094-.5.094-.102 0-.305.008-.406-.094-.102-.1-1.794-1.007-3.594-2.905v19c0 .3.113.488.313.688.1.1 1.289 1.312 3.687 1.312 2.398 0 3.586-1.21 3.688-1.313.199-.199.312-.386.312-.687z"/></svg>