<svg xmlns="http://www.w3.org/2000/svg" viewBox="0 0 50 50"><path d="M37.406.875L36.438 1c-2.282.285-4.063 1.625-4.063 1.625l-.875.625.688.813s2.41 3.183 2.593 5.906a2.017 2.017 0 0 1-.093.187c-.11.203-.301.516-.532.906-.457.778-1.02 1.91-1.406 3.438-.582 2.3-1.785 7.41-7.875 12.594-3.398 2.894-6.059 4.343-9.125 6.062-3.066 1.719-6.496 3.715-11.125 7.657-.387.328-.586.683-.813 1.093-.226.41-.445.86-.624 1.282-.36.84-.626 1.593-.626 1.593l-.156.438.25.406 1.063 1.688.125.25.281.124c.934.47 2.285 1.254 3.656 1.313.653.027 4.133.043 9.25-1.375s11.79-4.266 18.438-9.969C43.672 30.625 46 23.316 46 18.281c0-3.289-1.238-5.578-2.563-7.062a11.568 11.568 0 0 0-1.874-1.688c-.555-.398-1.06-.715-1.063-.719-1.082-.972-1.879-2.714-2.344-4.218-.465-1.504-.625-2.719-.625-2.719zm-1.593 2.406c.097.551.113.86.437 1.906.52 1.676 1.375 3.696 2.938 5.094.367.332.703.528 1.187.875a9.766 9.766 0 0 1 1.594 1.406c1.066 1.196 2.031 2.91 2.031 5.72 0 4.421-2.016 11.128-9.844 17.843-6.398 5.488-12.773 8.21-17.656 9.563-4.883 1.351-8.355 1.324-8.625 1.312-.234-.012-.73-.184-1.281-.406 5.3-3.215 8.613-4.5 11.656-5.813 3.324-1.43 6.352-2.968 10.938-6.968C37.175 26.84 39.28 18.523 39.28 12.53h-2c0 5.528-1.875 13.211-9.406 19.782-4.45 3.882-7.14 5.218-10.406 6.624-3.117 1.344-6.793 2.77-12.625 6.376L4.625 45c.09-.25.176-.496.406-1.031.164-.38.356-.778.532-1.094.175-.316.343-.531.343-.531 4.516-3.844 7.77-5.762 10.813-7.469 3.043-1.707 5.918-3.227 9.468-6.25 6.5-5.535 7.93-11.398 8.5-13.656.325-1.29.801-2.16 1.22-2.875.21-.356.394-.68.562-1 .168-.32.34-.672.312-1.188-.16-2.922-1.629-5.113-2.406-6.156.383-.2.887-.3 1.438-.469z"/></svg>