<svg xmlns="http://www.w3.org/2000/svg" viewBox="0 0 40 40"><path d="M6.776 38.497c-3.168 0-5.27-1.69-5.27-2.809l-.003-.338c-.019-1.727-.057-5.32 2.638-7.821.737-.685 1.468-1.292 2.315-1.995 2.033-1.688 4.563-3.79 9.003-8.448 1.732-1.817 3.39-3.58 4.936-5.223 2.155-2.291 4.016-4.27 5.618-5.91 3.437-3.52 7.293-4.45 8.852-4.45.237 0 .443.02.596.057.852.207 3.644 4.159 2.921 8.198-.588 3.285-3.867 12.543-9.781 18.655-6.355 6.566-18.113 10.044-21.731 10.083l-.094.001z" fill="#ffeea3"/><path d="M34.864 2.004c.263 0 .412.027.441.031.733.322 3.245 3.945 2.585 7.635-.58 3.238-3.814 12.366-9.648 18.395-6.163 6.367-17.926 9.893-21.377 9.931h-.089c-3.098 0-4.77-1.639-4.77-2.309l-.003-.344c-.018-1.655-.054-5.098 2.478-7.45.727-.675 1.453-1.278 2.295-1.977 2.043-1.697 4.585-3.808 9.045-8.487 1.73-1.815 3.385-3.575 4.93-5.217C22.907 9.92 24.77 7.94 26.37 6.301c3.321-3.399 7.009-4.297 8.494-4.297m0-1c-1.933 0-5.847 1.158-9.209 4.6-2.778 2.845-6.457 6.835-10.557 11.136-6.289 6.597-8.783 8.087-11.296 10.421C.74 30.003 1.006 34.2 1.006 35.687c0 1.473 2.409 3.309 5.77 3.309l.1-.001c3.847-.041 15.752-3.692 22.085-10.235s9.41-16.095 9.914-18.914c.764-4.27-2.155-8.495-3.295-8.772a3.136 3.136 0 0 0-.716-.07z" fill="#ba9b48"/><path d="M4.75 38.247c-1.958-.503-3.245-1.688-3.245-2.559l-.002-.338c-.019-1.727-.057-5.32 2.638-7.821.738-.686 1.472-1.295 2.322-2.001l.322-.268c.131.903.596 1.809 1.432 1.977.089.018.177.026.264.026.501 0 .919-.272 1.289-.513.198-.129.386-.251.56-.317.157-.06.34-.085.535-.112.141-.02.281-.04.42-.071.836-.184 1.564-.721 2.238-1.255a51.68 51.68 0 0 0 3.162-2.722c.774-.723 1.659-1.587 2.369-2.684 1.095-1.692 1.704-3.91 1.673-6.084-.009-.673-.092-1.242-.251-1.728 2.036-2.164 3.958-4.206 5.537-5.823 3.437-3.52 7.293-4.45 8.852-4.45.299 0 .489.031.596.057.171.042.605.376 1.13 1.099-.259.187-.518.378-.778.57-.517.382-1.039.768-1.576 1.129-1.326.89-2.042 2.971-2.619 4.643-.115.334-.223.647-.327.923a41.97 41.97 0 0 0-1.883 6.567c-.187.932.063 2.129.36 3.284.265 1.024 1.012 2.126 2.027 2.126.693-.02 1.125-.468 1.506-.863.175-.181.34-.353.507-.464.15-.1.335-.171.532-.246l.003-.001a41.147 41.147 0 0 1-2.46 4.045c-.684-.462-1.536-.754-2.295-.77a50.962 50.962 0 0 0-1.037-.009c-.462 0-2.328.018-2.797.018-.545 0-1.091-.006-1.636-.026l-.158-.003c-2.364 0-5.078 1.895-7.258 3.417-.456.318-.884.618-1.273.873a65.932 65.932 0 0 0-8.4 6.546c-.956.878-1.686 2.389-2.279 3.828z" fill="#a6714e"/><path d="M34.864 2.004c.263 0 .413.027.44.031.086.038.296.206.572.527l-.358.264c-.509.376-1.034.765-1.56 1.118-1.465.983-2.212 3.152-2.813 4.894-.113.329-.22.638-.322.91a42.621 42.621 0 0 0-1.905 6.646c-.207 1.032.054 2.295.367 3.507.321 1.245 1.222 2.501 2.511 2.501h.053c.334-.01.621-.102.872-.236a40.04 40.04 0 0 1-.984 1.537c-.674-.363-1.44-.584-2.138-.599a51.33 51.33 0 0 0-1.041-.01c-.463 0-.93.005-1.398.009-.465.005-.932.009-1.399.009-.541 0-1.083-.006-1.624-.026a5.165 5.165 0 0 0-.176-.003c-2.522 0-5.307 1.945-7.545 3.508-.452.315-.875.612-1.261.865a66.384 66.384 0 0 0-8.464 6.596c-.931.856-1.646 2.232-2.229 3.594-1.635-.525-2.455-1.484-2.455-1.957l-.003-.344c-.018-1.655-.054-5.098 2.478-7.45A47.593 47.593 0 0 1 6.5 26.148c.286.769.82 1.419 1.621 1.579.119.024.241.036.362.036.649 0 1.155-.329 1.561-.593.167-.109.34-.221.464-.268a2.22 2.22 0 0 1 .427-.085c.153-.021.306-.044.457-.077.94-.207 1.721-.781 2.441-1.351a51.706 51.706 0 0 0 3.193-2.749c.796-.744 1.707-1.633 2.448-2.778 1.163-1.799 1.786-4.059 1.753-6.363a6.762 6.762 0 0 0-.191-1.586c1.962-2.086 3.809-4.047 5.334-5.609 3.321-3.402 7.008-4.3 8.494-4.3m0-1c-1.933 0-5.847 1.157-9.209 4.6-1.637 1.676-3.592 3.756-5.756 6.057.238.553.32 1.212.329 1.85.03 2.09-.545 4.186-1.593 5.806-.65 1.005-1.464 1.818-2.291 2.59a50.637 50.637 0 0 1-3.131 2.696c-.635.503-1.297.996-2.035 1.158-.341.075-.693.078-1.024.204-.574.217-1.092.797-1.671.797a.856.856 0 0 1-.166-.016c-.67-.134-1.047-1.087-1.068-1.941a6.024 6.024 0 0 1 .02-.601c-1.343 1.134-2.404 1.972-3.466 2.958-3.062 2.842-2.796 7.039-2.796 8.526 0 1.206 1.617 2.656 4.048 3.141.525-1.313 1.3-3.111 2.313-4.042a65.27 65.27 0 0 1 8.336-6.496c2.177-1.429 5.564-4.208 8.257-4.209a46.004 46.004 0 0 0 1.8.03c.938 0 1.873-.018 2.797-.018.342 0 .682.003 1.021.009.75.015 1.729.369 2.412.986 1.466-2.054 2.682-4.204 3.667-6.246-.338.353-.7.664-1.118.863-.334.158-.696.245-1.009.453-.592.395-1.011 1.222-1.711 1.243h-.025c-.713 0-1.318-.884-1.542-1.751-.227-.881-.534-2.166-.355-3.061a41.44 41.44 0 0 1 1.861-6.489c.597-1.583 1.314-4.36 2.756-5.327.95-.638 1.851-1.352 2.765-1.992-.627-.97-1.284-1.606-1.702-1.707a3.05 3.05 0 0 0-.714-.071z" fill="#7a4f34"/></svg>