<svg xmlns="http://www.w3.org/2000/svg" viewBox="0 0 24 24"><path d="M13.344 2c-1.317 0-2.39.5-3.156 1.156a7.343 7.343 0 0 0-2.563-.125c-1.617.215-3.637 1.188-4.781 3.656-1.598 3.45-.414 6.204-.156 6.75-.106.29-.301.668-.313 1.563a5.168 5.168 0 0 0 1.781 3.969c1.25 1.093 2.742 1.347 4.032 1.25 0 0 1.624 1.781 4.437 1.781a5.912 5.912 0 0 0 4.406-1.906c.582-.067 2.887-.414 4.219-2.813 1.523-2.746.066-5.133-.156-5.468 1.015-1.516 1.234-3.602.125-5.438-1.196-1.977-2.871-2.297-3.5-2.375-.164-.242-.266-.445-.782-.844C16.177 2.57 14.992 2 13.345 2zm0 2c1.207 0 1.91.39 2.375.75.465.36.625.625.625.625l.281.5.563.031s1.37-.054 2.312 1.5c.875 1.45.457 2.977-.531 3.844C18.594 7.742 15.602 5 12 5c-.297 0-.59.027-.875.063C11.613 4.46 12.227 4 13.344 4zM8.688 5h.124c-.21.418-.343.742-.437 1A7.027 7.027 0 0 0 5 12c0 .906.184 1.766.5 2.563.008.03.023.035.031.062.012.031.02.063.032.094.019.043.042.094.062.125a7.013 7.013 0 0 0 3 3.281c-1.063.207-2.207.176-3.156-.656-.934-.817-1.106-1.688-1.094-2.438.012-.75.25-1.281.25-1.281l.188-.438-.22-.406s-1.312-2.406.063-5.375c.871-1.879 2.086-2.347 3.219-2.5.285-.039.566-.035.813-.031zm3.5 2A4.993 4.993 0 0 1 17 12c0 .508-.11.977-.25 1.438a3.282 3.282 0 0 1-1-.438c-.594-.39-1.105-.965-1.281-1.813l-.125-.593-.563-.188c-1.457-.426-1.664-1.125-1.75-1.906-.086-.781.156-1.5.156-1.5zm-2.126.406a5.129 5.129 0 0 0-.03 1.313c.128 1.18 1.019 2.539 2.687 3.281.039.121.078.23.125.344-.067.05-.102.105-.188.156-.394.227-.879.43-1.781.063l-.781-.313-.438.688C8.953 14.034 8.453 14.055 8 14a1.61 1.61 0 0 1-.594-.219c-.027-.015-.039-.023-.062-.031C7.137 13.2 7 12.625 7 12c0-2.078 1.266-3.836 3.063-4.594zm9.563 5.844c.277.523.672 1.629-.125 3.063-.95 1.71-3 1.875-3 1.875l-.438.03-.28.313S14.558 20 12.624 20a4.534 4.534 0 0 1-1.938-.406c.72-.285 1.188-.563 1.188-.563a.466.466 0 0 0 .063-.031H12c3.281 0 6.031-2.29 6.781-5.344.29-.11.586-.242.844-.406zm-5.688.813c.227.23.47.43.72.593.382.254.765.422 1.124.563C14.867 16.293 13.531 17 12 17c-1.2 0-2.266-.457-3.125-1.156.652-.207 1.336-.64 1.938-1.313 1.132.25 2.175.102 2.843-.281.106-.059.188-.121.281-.188z"/></svg>