<svg xmlns="http://www.w3.org/2000/svg" viewBox="0 0 24 24"><path d="M16.656 1.906l-.906 1.782s.55.324.781.812c.114.242.172.488.063.906-.082.313-.274.739-.688 1.25l-.5.532-.125.093L16.72 8.72l.093-.125a6.47 6.47 0 0 1 .47-.438l.062-.062c.511-.414.937-.606 1.25-.688.418-.11.664-.05.906.063.488.23.813.781.813.781l1.78-.906s-.534-1.117-1.75-1.688c-.132-.062-.288-.11-.437-.156l2-2L20.5 2.094l-2 2c-.047-.149-.094-.305-.156-.438-.57-1.215-1.688-1.75-1.688-1.75zm-6.125 4.75c-.222.004-.344.032-.344.032s-3.074 4.007-2.874 4.406c.5.3 1.792 1.113 2.593 2.812-1.3-1-2.699-1-4-1 0 0-4.3 7.7-4 9 1 .2 3.586-.992 7.188-3.093 0 0-.102-1.926-.5-2.625 1.199.398 2.406 1.5 2.406 1.5.602.101 2.188-.887 2.688-1.688.101-.2.699-1.887 0-2.688 1 .399 2 1.376 2 1.376 1-.602 1.5-1 1.5-1S17.706 11.8 14.905 9c-2.101-2.102-3.71-2.352-4.375-2.344z"/></svg>