<svg xmlns="http://www.w3.org/2000/svg" viewBox="0 0 50 50"><path d="M28.598.008c-.121.004-.243.02-.368.043-.718.14-1.199.527-1.55.879-.2-.075-.188-.133-.457-.164a2.271 2.271 0 0 0-1.348.226c-.473.246-.875.692-1.137 1.258h.004c-.27.598-.316 1.238-.164 1.766.137.46.41.773.672 1.043-.223.222-.46.449-.61.82a2.147 2.147 0 0 0 .063 1.64c.477 1.028 1.516 1.403 2.25 1.434.012.133 0 .246.05.399.106.328.376.78.876.964.45.168.715.067 1.023.028.016.11-.011.191.035.316.13.36.47.762.907.934.789.308 1.304.011 1.703-.2.281.364.61.88.812 1.57.34 1.18.32 2.743-1.511 4.802-1.836-1.52-3.825-2.559-5.614-3.125-1.097-.344-2.12-.52-3.03-.496-.915.027-1.778.23-2.376.918C15.121 19.32 10.402 27 6.734 33.862c-1.836 3.435-3.402 6.65-4.43 9.138-.515 1.242-.898 2.3-1.113 3.152-.109.426-.18.797-.191 1.164-.008.371-.02.813.414 1.25h.004c.336.336.703.403 1.012.426a3.72 3.72 0 0 0 .922-.058c.656-.11 1.433-.336 2.367-.672 1.87-.672 4.36-1.79 7.312-3.317 5.91-3.054 13.672-7.746 21.82-13.738a.862.862 0 0 0 .118-.098c.625-.625.836-1.484.86-2.402.023-.914-.15-1.934-.497-3.023-.652-2.067-1.95-4.375-3.898-6.434 2.421-1.738 4.148-1.586 5.425-1.078a4.983 4.983 0 0 1 1.782 1.203c-.215.406-.559.95-.235 1.781.172.438.574.778.934.907.125.046.207.019.316.035-.039.308-.14.574.028 1.02.183.5.636.773.96.878.157.05.27.04.403.05.031.735.41 1.774 1.433 2.25a2.145 2.145 0 0 0 1.641.06c.371-.149.598-.383.82-.606.27.262.582.535 1.043.672.528.152 1.168.105 1.766-.164.566-.262 1.012-.66 1.258-1.133s.277-.96.226-1.348c-.03-.27-.09-.257-.168-.457.356-.351.743-.832.883-1.55.2-1.004-.308-1.872-.789-2.301-.07-.067-.074-.043-.148-.094.11-.563.09-1.277-.492-1.957-.54-.637-1.09-.629-1.536-.64a2.872 2.872 0 0 0-1.398-1.7c-1.106-.598-1.98-.344-2.617-.015.316-.524.375-1.102.36-1.637.358.09.714.191 1.14.156a2.58 2.58 0 0 0 1.695-.824 2.227 2.227 0 0 0 .531-1.73c-.027-.192-.133-.301-.191-.466.113-.019.203.016.324-.019a2.262 2.262 0 0 0 1.317-1.121c.3-.598.347-1.258.195-1.793a2.919 2.919 0 0 0-.746-1.238c-.094-.094-.106-.059-.196-.137.102-.121.13-.082.223-.23.238-.391.445-.907.426-1.508-.02-.606-.297-1.25-.797-1.79-.535-.578-1.188-.921-1.832-.968-.645-.047-1.2.187-1.602.46-.156.102-.109.137-.238.25a2.646 2.646 0 0 0-2.754-.476 2.264 2.264 0 0 0-1.258 1.363c-.101.32-.054.594-.05.883-.153-.043-.262-.117-.434-.136a2.337 2.337 0 0 0-1.578.382c-.563.395-.844 1.047-.895 1.598-.027.242.051.43.078.645-.124-.012-.207-.079-.34-.075-.5.02-1.035.22-1.503.578v-.003c.375-.665.722-1.614.078-2.813a2.853 2.853 0 0 0-1.703-1.398c-.008-.446 0-.996-.637-1.54-.684-.578-1.398-.597-1.957-.488-.055-.074-.027-.078-.094-.152-.379-.414-1.09-.86-1.933-.828zm.02 2.008c.26-.055.288.007.433.164.144.16.219.343.219.343a1.002 1.002 0 0 0 1.406.536s.304-.098.492-.09c.023.062.062.16.066.281.016.273-.015.531-.015.531a1.01 1.01 0 0 0 .308.844c.23.215.551.313.864.258 0 0 .074-.016.246.027.168.043.332.094.523.45.285.527-.316 1.374-.316 1.374a1 1 0 0 0 .187 1.457s.54.371.676 1.215c.023.137.074.27.148.383-.027.598-.042 1.215-.167 1.922-.063.371-.165.77-.301 1.191-.035-.168-.063-.336-.106-.492-.554-1.918-1.89-3.05-1.89-3.05a1.001 1.001 0 0 0-1.266-.04s-.113.07-.164.106c.074-.344-.04-.7-.293-.942a1.006 1.006 0 0 0-.961-.23s-.266.074-.582.129c-.125.023-.105.027-.219.023.016-.176.047-.379.047-.379a1.006 1.006 0 0 0-.324-.972 1.008 1.008 0 0 0-1.008-.18s-.285.098-.574.094c-.29-.004-.383.023-.531-.297-.04-.082-.028-.02-.016-.055a.915.915 0 0 1 .219-.262c.261-.222.625-.39.625-.39a.995.995 0 0 0 .613-.95.99.99 0 0 0-.66-.913s-.36-.149-.594-.368a.618.618 0 0 1-.203-.28c-.023-.075-.043-.142.063-.372.113-.254.195-.293.234-.316.035-.02.086-.028.187-.016.2.023.45.164.45.164a.997.997 0 0 0 1.484-.457s.047-.312.7-.441zM42.03 3.742c.086.028.125.098.211.18.168.172.274.422.274.422a1.003 1.003 0 0 0 1.808.187s.293-.441.606-.652c.156-.106.265-.133.347-.129.082.008.223.027.508.336.242.258.258.387.262.492.004.106-.035.238-.133.399-.195.324-.566.597-.566.597a.998.998 0 0 0 .144 1.739s.395.199.672.48c.14.14.223.285.25.379.027.094.043.152-.055.351-.05.102-.043.082-.125.11a1.322 1.322 0 0 1-.496.008c-.43-.063-.863-.262-.863-.262a.998.998 0 0 0-1.066 1.672s.41.351.68.758c.136.199.21.398.226.488.012.086.035.043-.043.125-.106.121-.18.152-.363.168a2.17 2.17 0 0 1-.754-.121c-.567-.184-1.059-.512-1.059-.512a1.006 1.006 0 0 0-1.238.094.998.998 0 0 0-.196 1.226s.2.371.297.828c.094.454.075.774-.175 1.012-.454.43-.672.469-1.149.477-.472.011-1.191-.117-2.144-.125-.926-.008-2.059.164-3.407.683.598-1.125 1.016-2.195 1.172-3.093.184-1.032.176-1.891.211-2.465.035-.574.113-.719.133-.739.2-.18.305-.199.434-.207.125-.003.296.036.476.125.367.184.668.5.668.5a1 1 0 0 0 1.34.137.998.998 0 0 0 .266-1.32s-.313-.531-.48-1.098c-.087-.285-.122-.566-.106-.715.015-.148.011-.12.058-.152.047-.04.078-.05.211-.035s.344.082.551.187c.41.211.75.512.75.512a.999.999 0 0 0 1.586-1.145s-.223-.539-.297-1.066a1.728 1.728 0 0 1 .016-.613c.035-.106.004-.082.105-.121.25-.102.371-.125.453-.102zM21.258 16.145c.601-.016 1.441.109 2.379.406 1.87.59 4.14 1.847 6.043 3.754h.004c1.906 1.906 3.156 4.133 3.742 5.98.297.926.418 1.758.402 2.371-.016.594-.18.918-.266 1.016-.742.543-1.476 1.066-2.21 1.59-.27-.477-.559-1.094-.993-1.762-.648-.992-1.875-1.953-3.738-1.953a.998.998 0 0 0-.879 1.504c.18.308.516.5.88.496 1.3 0 1.62.371 2.066 1.047.308.48.566 1.16 1 1.836a180.628 180.628 0 0 1-8.13 5.347c-.382-.504-.624-1.058-1.023-1.726-.492-.836-1.328-1.75-2.808-2.27a1.033 1.033 0 0 0-.395-.062 1.001 1.001 0 0 0-.27 1.949c1.086.379 1.383.773 1.754 1.402.274.461.543 1.09 1.02 1.754a139.315 139.315 0 0 1-7.723 4.344c-2.902 1.5-5.336 2.59-7.074 3.21-.844.306-1.512.49-1.96.567.019-.11.015-.16.054-.3.172-.688.527-1.684 1.02-2.88.726-1.757 1.761-3.953 2.976-6.34.344.165.664.286.937.45.543.32.985.688 1.348 1.766a.999.999 0 1 0 1.895-.637c-.5-1.488-1.403-2.363-2.22-2.848-.39-.234-.737-.398-1.019-.535.145-.273.278-.539.426-.812a165.611 165.611 0 0 1 5.598-9.653c.226.168.465.274.683.371.387.168.778.317 1.188.528.812.425 1.7 1.07 2.496 2.707a.997.997 0 0 0 .832.582.996.996 0 0 0 .965-1.457c-.977-2.004-2.293-3.043-3.367-3.606-.536-.277-1.008-.453-1.309-.586-.3-.133-.344-.234-.266-.097a.788.788 0 0 0-.117-.164c1.82-2.801 3.606-5.297 5.137-7.059.031-.031.32-.21.922-.23zm16.676.328c.73.011 1.382.14 2.144.12.215-.003.442-.03.668-.077l.082.015c.555.086 1.09.563 1.09.563a.99.99 0 0 0 1.348.062s.847-.597 1.375-.316c.355.191.406.355.449.523.043.172.031.246.031.246a1 1 0 0 0 1.098 1.168s.258-.027.531-.015c.121.004.215.047.277.07.012.191-.086.492-.086.492a1.012 1.012 0 0 0-.05.824c.105.27.316.48.59.582 0 0 .18.075.335.22.16.144.223.167.168.429-.129.656-.441.7-.441.7a1.003 1.003 0 0 0-.457 1.483s.14.254.164.454c.012.101.004.152-.016.187-.023.04-.062.117-.316.235-.23.105-.297.082-.371.062a.65.65 0 0 1-.281-.203c-.22-.238-.364-.594-.364-.594a1.009 1.009 0 0 0-.918-.664.999.999 0 0 0-.949.617s-.168.364-.39.621a.98.98 0 0 1-.258.22c-.04.015.023.026-.059-.013-.32-.148-.293-.242-.297-.53-.004-.29.094-.575.094-.575.129-.344.059-.73-.18-1.008a1.006 1.006 0 0 0-.972-.324s-.203.027-.38.047c-.003-.117 0-.094.02-.219.059-.316.133-.586.133-.586a.999.999 0 0 0-.23-.957 1.01 1.01 0 0 0-.942-.297c.035-.047.102-.16.102-.16.27-.352.277-.832.027-1.188 0 0-.98-1.382-2.77-2.214z"/></svg>