<svg xmlns="http://www.w3.org/2000/svg" viewBox="0 0 24 24"><path d="M14.063-.031C14.03-.04 14-.023 14 0c0 .102.207.188-.094.188-.398 0-.894.007-1.094.406-.101.3-.105.605.094.906.2.3.707.488.906.688-.398-.102-1.199.007-1.5.406-.601.601.602.992 1 1.094-.398.101-.425.425-.124.624.199.2.605.29.906.188-.2.2-.301.488 0 .688.199.199.613.019.812.218-.101 0-.117.094-.219.094 0 .2.211.3.313.5.398.7-.012 2.012-.313 2.813-.011.019-.019.042-.03.062-.231.188-.473.363-.657.531-2.836-2.742-4.906-2.219-4.906-2.219s-3.489 4.407-3.188 4.907c.5.3 1.594.82 2.594 2.719-1.5-1.102-3-1.418-3.5-1.22C4.602 13.696-.3 22.5 0 24c1.102.3 4.914-1.602 8.813-4 .3-.2-.313-1.512-.813-2.313 1.3.5 2 1.625 2 1.625.602.102 3.305-1.601 3.906-2.5.102-.199-.105-1.507-.906-2.406 1.2 0 2.188 1.5 2.188 1.5.898-.601 1.624-1 1.624-1s.442-1.984-2.218-4.906c.168-.184.344-.426.531-.656.02-.012.043-.02.063-.031.8-.301 2.113-.711 2.812-.313.2.102.3.313.5.313 0-.102.094-.118.094-.22.199.2.02.614.218.813.2.301.489.2.688 0-.102.301-.012.707.188.906.199.301.523.274.625-.124.101.398.492 1.601 1.093 1 .399-.301.508-1.102.407-1.5.199.199.386.707.687.906.3.199.605.195.906.094.399-.2.407-.696.407-1.094 0-.301.085-.094.187-.094s-.113-.3-.313-.5c-.398-.5.114-.21.313-.313.2-.199-.3-.585-.5-.687-.2-.2-.605-.406-.906-.406.101-.102.406-.082.406-.281 0-.2-.398-.407-.5-.407A2.576 2.576 0 0 0 21.594 7h-.782c.102-.102.18-.086.282-.188-.301-.398-1.48-.207-1.782.094.102-.199.176-.312-.125-.312-.199 0-.394.093-.593.093-.309.094-.59.227-.875.344 1.93-1.261 2.578-.875 3.281-1.437.3-.2.012-.399-.188-.5.301 0 .575-.094.875-.094.399-.102.825-.105 1.125-.406.102-.301.29-.606.188-.907-.102-.3-.395-.18-.594-.28.5-.102 1.008-.2 1.407-.5a.755.755 0 0 0 .187-.5c0-.2-.207-.509-.406-.407.398-.5.398-1.29 0-1.688-.602-.601-1.282-.218-1.782.282.102-.2-.011-.492-.312-.594-.3-.102-.488.086-.688.188-.3.3-.312.812-.312 1.312-.3-.5-.895-.313-1.094.188-.199.398-.195.812-.093 1.312a.541.541 0 0 0-.813.094c-.523.59-.516 1.539-1.531 3.187.117-.285.25-.566.343-.875 0-.199.094-.394.094-.593 0-.301-.113-.227-.312-.125.3-.301.492-1.481.093-1.782-.101.102-.085.18-.187.281v-.78a2.568 2.568 0 0 0-.406-.907c0-.102-.207-.5-.407-.5-.199 0-.18.305-.28.406 0-.3-.208-.707-.407-.906-.102-.2-.488-.7-.688-.5-.101.2.188.71-.312.313-.148-.149-.344-.32-.438-.344z"/></svg>