<svg xmlns="http://www.w3.org/2000/svg" viewBox="0 0 48 48"><path d="M35.965 17.984c2.37-2.37 3.762-1.898 1.39-4.27l-3.12-3.12c-2.372-2.371-2.9-.98-5.27 1.39L6.777 31.492a6.066 6.066 0 0 0 0 8.582l1.106 1.149a6.073 6.073 0 0 0 8.582 0z" fill="#8bc34a"/><path d="M29.277 20.848a3482.388 3482.388 0 0 0-9.851 9.925c-4.88 4.938-6.668 8.211-7.485 9.547-1.511.153-2.894.203-3.976-.34-.434-1.3-.113-2.789.223-4.304 1.957-1.223 4.949-3.227 8.867-7.172 3.277-3.3 6.718-6.766 9.437-9.512-.547-.09-1.086-.48-1.226-1.062a1.958 1.958 0 0 1-.047-.473L8.98 33.121c-1.363 1.367-5.75 4.031-1.597 7.535 3.77 4.516 6.387-.672 7.758-2.035l15.332-16.555c-.407-.351-.782-.918-.754-1.468-.102.12-.258.199-.442.25z" fill="#689f38"/><path d="M40.227 9.79c3.296.452 1.644 2.87 1.046 3.023 2.7 1.511 1.653 3.624.75 3.175.454.606.903.907.903 2.719 0 .453-.606 1.211-2.25.453.597.606 1.347 2.27.75 3.328-.305.453-1.055.453-1.356.153.153.906.153 3.625-1.199 4.082-1.8.906-2.101-.606-2.695-1.512-.305 2.57-2.7 1.207-2.555-.152-2.547 1.664-3.3-.454-2.394-1.512-1.954 1.812-3.454.605-2.856-.906-.746.906-4.496.754-2.848-2.418-.449.453-3.75.453-2.101-1.817-1.649.606-4.2-1.058-1.496-2.718-1.805 0-3.305-1.364-1.653-2.418-2.703-.91-.449-2.118.75-2.723-.597-.305-2.25-.906.297-1.817-.894-.906.75-1.359 3.149-1.054-.746-.91.304-3.176 4.504-.758-.75-1.965.75-2.418 2.851-1.36-.3-.91 2.246-.605 2.848.602 1.05-1.36 3.601-.754 3.3 1.211 1.204-.754 3.598.754 2.255 2.418z" fill="#558b2f"/><path d="M33.785 9.672c-.129-1.031-.984-1.945-2.086-1.856-.566.047-1.191 1.215-.5 1.512-.422-.96-2.05-.996-2.89-.867-.57.086-1.047.441-.934 1.09.129.738.816.804 1.402.937-.976-.675-3.054-.168-3.78.692-.255.3-.68.965-.407 1.363.258.375 1.086.45 1.469.32-1.004.168-2.184 1.215-2.407 2.239-.093.433-.043.968.438 1.097.445.125 1.422.02 1.605-.508-.398.504-.586 1.614-.433 2.239.293 1.175 2.195 1.636 2.554.265-.312.5-.48 1.625-.203 2.164.38.746 2.438.793 2.223-.218-.426.765.277 1.726.875 2.109.953.617 3.129 1.105 3.172-.684.008 1.004 5.21-6.703 4.445-6.433.684-.063 1.582-.817 1.192-1.61-.422-.863-2.098-1.058-2.739-.449.485-.351 1.797-1.496.95-2.133-.711-.543-2.063-.355-2.536.403.516-.473 1.23-1.035 1.172-1.844-.035-.457-.566-.813-.976-.926-.325-.086-.848-.07-1.145.137-.21.148-.336.531-.465.652" fill="#7cb342"/><path d="M32.68 12.938c-.754.398-1.082 1.046-.418 1.703-.766-.465-3.614-.024-2.93 1.437.227.48 1.188.352 1.55.16-.73.285-2.237 1.192-2.206 2.188.047 1.363 2.203 1.77 2.633.562-.325 1.043-1 2.356-.008 3.293 1.187 1.121 3.187.328 3.683-1.015-.52 1.125.66 2 1.7 1.445 1.246-.672 1.242-2.023.285-2.977.793.266 1.91.254 2.422-.574.996-1.601-.836-1.965-2.07-1.969.663-.246 2.085-1.57 1.581-2.472-.609-1.098-2.644-.477-3.457.375.367-.442.942-1.098.567-1.52-.856-.965-1.496.383-1.496 1.332 0 0-.164-2.426-1.836-1.969z" fill="#33691e"/><path d="M8.07 33.938c-.218-1.055-.254-2.239-.043-3.543l-1.25 1.101c-2.144 2.14-2.328 5.477-.593 7.852-1.504-2.297.445-4.153 1.886-5.41zm6.153 5.789c-1.27 1.601-3.118 3.789-5.52 2.168 2.367 1.656 5.645 1.44 7.758-.672l1.527-1.817a8.105 8.105 0 0 1-3.765.32z" fill="#dcedc8"/><path d="M7.324 40.688c-1.172-1.168-1.105-3.004 0-4.243.844-.945 2.61-1.93 2.61-1.93s-.754 2.766.02 3.544c.8.8 3.472.062 3.448.02-.027-.048-.558 1.41-1.84 2.608-1.378 1.293-3.07 1.172-4.238 0z" fill="#dcedc8"/></svg>