<svg xmlns="http://www.w3.org/2000/svg" viewBox="0 0 24 24"><path d="M16.5 2A1.5 1.5 0 0 0 15 3.5c0 .238.059.457.156.656A1.477 1.477 0 0 0 14.5 4 1.5 1.5 0 0 0 13 5.5c0 .46.234.852.563 1.125-.915.824-2.387 1.781-3.97 2.813-.308.203-4.769 3.316-5.624 4.124-.106.086-.2.168-.281.25a4.798 4.798 0 0 0 0 6.782c1.87 1.87 5.011 1.968 6.78 0 2.735-3.035 5.43-7.328 6.782-9.25.27.398.734.656 1.25.656.691 0 1.266-.488 1.438-1.125.171.07.363.125.562.125A1.5 1.5 0 0 0 22 9.5a1.48 1.48 0 0 0-.375-1 1.48 1.48 0 0 0 .375-1 1.48 1.48 0 0 0-1.281-1.469c.18-.3.281-.656.281-1.031a2 2 0 0 0-2-2c-.375 0-.73.102-1.031.281A1.48 1.48 0 0 0 16.5 2zM15 7.938c-.363.378-5.066 5.246-7.25 7.25-2.121 1.949-2.29 0 .688-2.532 2.792-2.375 5.41-3.722 6.562-4.719zm.875 1.718c.05.035.105.067.156.094-1.144 1.508-3 4.594-4.781 6.875-2.957 3.676-3.938 1.824-3 .781 4.082-4.539 6.535-6.808 7.625-7.75z"/></svg>