<svg xmlns="http://www.w3.org/2000/svg" viewBox="0 0 24 24"><path d="M14.094 1.781s-.403.282-.875.719c-.336.313-.653.813-.938 1.313-.847.367-2.172.917-3.344 2.187-1.175 1.27-2.105 3.242-2.374 6.188A2.237 2.237 0 0 0 5.655 12C4.191 12 2 12.746 2 16.375 2 19.48 4.633 22 7.5 22c2.684 0 5.5-2.52 5.5-5.625C13 12.723 10.312 12 9.344 12c-.305 0-.559.07-.781.156.257-2.472 1.003-3.906 1.843-4.812.36-.387.742-.664 1.125-.907-.219 3.274 1.23 5.864 2 7.407.293.68.469 1.515.469 2.531 0 1.664-.652 3.145-1.656 4.281 1.515 1.375 3.73 1.79 5.781.782 2.324-1.141 3.648-4.403 2.375-7-1.5-3.051-4.078-2.532-4.906-2.126-.184.09-.34.2-.469.313-.969-1.945-2.223-4.46-1.281-7.719.05-.172.367-.613.719-.937.351-.324.656-.531.656-.531zM15 5.063s-.969 1.949.063 4.125c1.09.996 2.921.878 3.937.593 0 0-.406-2.222-1.625-3.25C16.102 5.461 15 5.063 15 5.063z"/></svg>