<svg xmlns="http://www.w3.org/2000/svg" viewBox="0 0 50 50"><path d="M19.5 2C9.172 2 1 12.188 1 24.5 1 36.813 9.172 47 19.5 47c.137 0 .273.004.406 0 .074.008.145.008.219 0 13.207 0 19.734-4.473 22.906-9.156 1.586-2.34 2.356-4.703 2.782-6.5.214-.899.332-1.664.437-2.188.055-.261.094-.46.125-.562.578-.453 1.176-.996 1.656-1.625.528-.692.969-1.442.969-2.375 0-1.59-1.191-2.914-2.906-3.969-.047-.102-.102-.3-.188-.563-.176-.523-.43-1.289-.75-2.187-.64-1.8-1.625-4.168-3.343-6.531C38.374 6.62 31.98 2 20.343 2h-.093a1.006 1.006 0 0 0-.156.031C19.898 2.023 19.699 2 19.5 2zm0 2c9 0 16.5 9.066 16.5 20.5S28.5 45 19.5 45 3 35.934 3 24.5 10.5 4 19.5 4zm9.188.969c5.804 1.496 9.28 4.515 11.5 7.562 1.562 2.145 2.488 4.301 3.093 6 .301.852.528 1.586.719 2.157.094.285.18.523.281.75.102.226.14.496.625.78C46.434 23.11 47 24.04 47 24.595c0 .172-.176.652-.563 1.156A8.022 8.022 0 0 1 45 27.156c-.43.324-.453.602-.531.844a6.78 6.78 0 0 0-.188.75c-.117.574-.242 1.293-.437 2.125-.395 1.664-1.067 3.773-2.469 5.844-2.117 3.125-5.879 6.25-13.094 7.593C34.101 40.496 38 33.013 38 24.5c0-8.313-3.715-15.637-9.313-19.531zm-9.532 3.343a11.507 11.507 0 0 0-5.25 1.47c-.46.261-.64.835-.406 1.312l5.031 10.281a1 1 0 1 0 1.813-.031l4.718-10.531c.204-.485 0-1.043-.468-1.282a11.297 11.297 0 0 0-5.438-1.219zm.063 1.97c1.195-.04 2.41.23 3.593.687l-3.406 7.625-3.656-7.438c1.125-.496 2.281-.836 3.469-.875zm7.312.874a.996.996 0 0 0-.75.563L21.063 22.25A1 1 0 0 0 22 23.656l9.78-.25a1.004 1.004 0 0 0 .969-1.125c-.484-4.246-2.348-8.23-5.406-10.906a1.004 1.004 0 0 0-.813-.219zM11.72 11.5a.993.993 0 0 0-.5.281c-1.395 1.32-2.582 2.977-3.469 4.969a18.7 18.7 0 0 0-1.563 6.188.999.999 0 0 0 1 1.093l9.782-.25a.99.99 0 0 0 .828-.48.993.993 0 0 0 .047-.957L12.78 12.062a.999.999 0 0 0-1.062-.562zM27 13.938c1.793 1.988 2.918 4.64 3.438 7.5l-6.875.187zm-15.344.374l3.719 7.5L8.344 22c.219-1.52.582-3.02 1.219-4.438.566-1.265 1.304-2.308 2.093-3.25zM31.781 24.97L22 25.22c-.336.02-.637.203-.809.492a1.002 1.002 0 0 0-.035.945l5.063 10.282a.996.996 0 0 0 1.562.28c1.39-1.327 2.578-2.991 3.469-4.968a18.725 18.725 0 0 0 1.563-6.188 1 1 0 0 0-1.032-1.093zM17 25.344l-9.781.25a1.004 1.004 0 0 0-.969 1.125c.484 4.242 2.32 8.23 5.375 10.906.238.219.57.309.887.238a.997.997 0 0 0 .707-.582l4.719-10.531A1 1 0 0 0 17 25.344zM30.531 27c-.218 1.508-.46 3.02-1.093 4.438-.567 1.261-1.305 2.304-2.094 3.25l-3.719-7.5zm-11.156.063a.998.998 0 0 0-.719.593l-4.718 10.532a1 1 0 0 0 .468 1.28c3.512 1.766 7.406 1.56 10.688-.25.46-.261.64-.835.406-1.312l-5.031-10.281a1 1 0 0 0-1-.563h-.094zm-3.938.312L12 35.063c-1.793-1.993-2.918-4.641-3.438-7.5zm4.157 3.031l3.656 7.438c-2.254.984-4.703 1.097-7.063.187z"/></svg>