<svg xmlns="http://www.w3.org/2000/svg" viewBox="0 0 32 32"><path d="M15 3v2.563L13.406 4 12 5.406l3 3v5.844l-5.063-2.938L8.845 7.22l-1.938.5.563 2.156-2.22-1.282-1 1.75 2.219 1.281-2.157.594.5 1.906 4.094-1.063L14 16l-5.063 2.938-4.124-1.094-.5 1.937 2.156.563-2.219 1.312 1 1.719 2.25-1.281-.594 2.187 1.907.5 1.124-4.125L15 17.72v5.875l-3.031 3 1.437 1.437L15 26.438V29h2v-2.563L18.594 28 20 26.594l-3-3v-5.875l5.063 2.937 1.093 4.125 1.938-.5-.594-2.218 2.25 1.312 1-1.719-2.25-1.312 2.156-.563-.5-1.937-4.093 1.093L18 16l5.063-2.969 4.093 1.094.5-1.906-2.156-.594 2.219-1.281-1-1.75L24.5 9.906l.563-2.187-1.938-.5-1.094 4.093L17 14.25V8.406l3-3L18.594 4 17 5.563V3z"/></svg>