<svg xmlns="http://www.w3.org/2000/svg" viewBox="0 0 50 50"><path d="M23.219 1c-2.473-.016-4.438 1.613-5 4.469-.543 2.789.992 8.5 2.656 13.281-3.785-3.469-8.402-7.383-11.25-8-3.242-.707-5.734.887-6.375 3.781-.156.707.047 2.89-.406 4.906-.426 1.942-1.524 3.735-1.688 4.47C.52 26.811 2.13 29.288 5.375 30c3.258.71 10.297-1.113 15.5-2.875-3.941 3.645-8.996 8.648-9.875 11.781-.863 3.09.57 5.606 3.375 6.375.684.196 2.824.114 4.781.657 1.89.523 3.606 1.644 4.313 1.843 2.812.77 5.343-.652 6.218-3.75.723-2.578-.375-7.734-1.593-12.343 6.172 9.304 15.008 16.812 16.843 17.28.211.055.438.094.657.094 1.097 0 2.199-.726 2.812-1.843.496-.907.52-1.86.094-2.532a.945.945 0 0 0-.469-.374c-7.285-2.876-14.004-9.676-17.562-13.72 3.523 2.434 7.375 4.645 9.718 4.907 3.149.355 5.395-1.406 5.72-4.219.077-.687-.356-2.722-.126-4.687.215-1.887 1.07-3.696 1.157-4.407.32-2.82-1.473-5.015-4.626-5.375-2.535-.285-6.765 1.215-11 3 3.235-3.71 6.043-7.886 6.563-10.562.645-3.258-1.047-5.715-4-6.281-.719-.145-2.906.113-4.969-.281-1.988-.383-3.843-1.418-4.593-1.563A6.346 6.346 0 0 0 23.218 1z"/></svg>