<svg xmlns="http://www.w3.org/2000/svg" viewBox="0 0 40 40"><path d="M13.246 38.5a.764.764 0 0 1-.574-.254l-.188-.207-.273.05c-1.492.274-2.91.411-4.211.411-.883 0-1.707-.063-2.457-.18l-.18-.03-.16.093a.764.764 0 0 1-1.066-.266l-.09-.156-.172-.063C2.344 37.34 1.5 36.418 1.5 35.301c0-1.336 1.332-2.293 3.96-3.7l.263-.14v-.3c0-.415.343-.747.765-.747.157 0 .305.043.434.129l.246.16.262-.137a86.51 86.51 0 0 0 3.136-1.714l.192-.114.047-.215c.074-.34.39-.59.75-.59a.89.89 0 0 1 .203.032l.21.055.184-.114a48.783 48.783 0 0 0 3.536-2.41l.148-.11.039-.175a.763.763 0 0 1 .746-.582h.18l.148-.11a46.315 46.315 0 0 0 3.863-3.476l.2-.2-.067-.269a.625.625 0 0 1-.02-.164c0-.406.345-.738.766-.738.04 0 .079.008.118.015l.265.04.18-.2a51.218 51.218 0 0 0 3.844-4.761l.203-.282-.192-.285a.73.73 0 0 1-.12-.394c0-.407.343-.739.769-.739.043 0 .09.004.133.012l.328.063.183-.278a60.806 60.806 0 0 0 2.004-3.273l.125-.219-.101-.23a.706.706 0 0 1-.063-.293c0-.36.266-.664.633-.723l.246-.043.117-.223c.469-.902.848-1.789 1.188-2.57C32.62 2.801 33.258 1.5 34.906 1.5c2.383 0 3.594 2.906 3.594 8.64 0 1.18-.098 2.368-.293 3.626l-.035.226.148.172a.73.73 0 0 1 .18.469.742.742 0 0 1-.402.644l-.203.106-.051.219a24.758 24.758 0 0 1-1.274 3.843l-.12.278.19.238a.703.703 0 0 1 .169.453.744.744 0 0 1-.75.734l-.293.008-.141.258a27.205 27.205 0 0 1-2.133 3.375l-.137.191.055.223a.692.692 0 0 1 .024.168c0 .399-.325.719-.743.734l-.222.008-.145.168a30.95 30.95 0 0 1-2.215 2.39l-.242.24.133.312c.035.09.055.183.055.277 0 .406-.344.738-.766.738a.774.774 0 0 1-.348-.086l-.293-.144-.25.215A36.405 36.405 0 0 1 26 32.09l-.281.2.09.331a.95.95 0 0 1 .027.184c0 .406-.344.738-.77.738a.788.788 0 0 1-.449-.145l-.27-.191-.28.176c-.973.605-2 1.176-3.047 1.699l-.215.11-.051.238a.76.76 0 0 1-1.102.504l-.207-.102-.215.09c-1.605.7-3.253 1.27-4.898 1.7l-.273.07-.079.269a.773.773 0 0 1-.734.539z" fill="#dff0fe"/><path d="M34.906 2C37.465 2 38 6.426 38 10.14a22.86 22.86 0 0 1-.285 3.547l-.07.454.296.347c.059.07.059.125.059.14 0 .122-.105.188-.137.204l-.398.211-.11.441a23.495 23.495 0 0 1-1.246 3.766l-.238.559.383.468c.059.067.059.118.059.137 0 .125-.118.234-.262.234l-.59.012-.277.52a26.821 26.821 0 0 1-2.094 3.316l-.266.422.11.45c0 .124-.118.234-.258.237l-.446.016-.289.34a30.67 30.67 0 0 1-2.18 2.352l-.488.476.266.629a.204.204 0 0 1 .016.082c0 .133-.117.238-.266.238a.326.326 0 0 1-.125-.031l-.59-.293-.5.426c-.754.64-1.55 1.262-2.363 1.844l-.566.398.18.668.01.055c0 .133-.12.238-.269.238a.285.285 0 0 1-.164-.055l-.539-.383-.562.352a36.734 36.734 0 0 1-3.008 1.676l-.434.219-.097.472a.26.26 0 0 1-.262.196.344.344 0 0 1-.129-.032l-.414-.21-.43.187a33.15 33.15 0 0 1-4.824 1.672l-.547.14-.16.543a.258.258 0 0 1-.254.18.271.271 0 0 1-.203-.094l-.371-.41-.547.102C10.656 37.863 9.27 38 8 38c-.855 0-1.656-.059-2.379-.176l-.36-.058-.312.191a.32.32 0 0 1-.148.043.259.259 0 0 1-.23-.133l-.184-.312-.34-.125C3.28 37.152 2 36.504 2 35.3c0-1.077 1.297-1.976 3.695-3.257l.528-.281v-.63c.011-.12.125-.218.265-.218.059 0 .11.016.157.047l.496.324.52-.273a86.139 86.139 0 0 0 3.155-1.727l.387-.223.094-.433a.26.26 0 0 1 .262-.195s.02 0 .074.015l.418.11.363-.227a48.2 48.2 0 0 0 3.574-2.434l.293-.218.082-.36a.259.259 0 0 1 .23-.187h.395l.274-.223a48.016 48.016 0 0 0 3.906-3.512l.387-.441-.133-.547c0-.129.121-.238.254-.238l.054.008.532.082.36-.395a52.832 52.832 0 0 0 3.882-4.812l.398-.559-.375-.57a.246.246 0 0 1-.039-.121c0-.13.114-.235.297-.235h.016l.652.125.367-.558a59.754 59.754 0 0 0 2.02-3.301l.25-.438-.203-.46a.248.248 0 0 1-.02-.09c0-.13.11-.215.219-.23l.492-.087.23-.441c.477-.922.86-1.817 1.2-2.606C33.102 2.957 33.633 2 34.906 2m0-1c-2.738 0-3.148 3.082-4.988 6.629a1.245 1.245 0 0 0-1.05 1.219c0 .175.038.34.105.492a60.586 60.586 0 0 1-1.989 3.25 1.088 1.088 0 0 0-.226-.024c-.7 0-1.27.555-1.27 1.239 0 .246.078.476.203.668a51.392 51.392 0 0 1-3.808 4.718c-.063-.007-.125-.02-.192-.02-.699 0-1.27.556-1.27 1.24 0 .097.017.19.036.28a46.142 46.142 0 0 1-3.82 3.442c-.004 0-.008-.004-.016-.004a1.26 1.26 0 0 0-1.234.969 49.058 49.058 0 0 1-3.5 2.382 1.26 1.26 0 0 0-1.57.938c-1.114.64-2.16 1.2-3.122 1.703a1.287 1.287 0 0 0-.707-.21c-.699 0-1.265.558-1.265 1.241v.008C2.62 32.55 1 33.63 1 35.3c0 1.255.855 2.395 2.703 3.067a1.269 1.269 0 0 0 1.762.446C6.21 38.932 7.05 39 8 39c1.371 0 2.816-.148 4.3-.418.231.254.567.418.942.418.578 0 1.059-.379 1.211-.895a34.323 34.323 0 0 0 4.973-1.722c.172.086.367.14.574.14a1.26 1.26 0 0 0 1.242-.992 37.619 37.619 0 0 0 3.086-1.722c.207.148.461.238.738.238.7 0 1.266-.559 1.266-1.242 0-.106-.016-.207-.043-.309a37.575 37.575 0 0 0 2.434-1.89c.168.081.359.136.566.136.7 0 1.266-.555 1.266-1.238a1.27 1.27 0 0 0-.094-.473 32.137 32.137 0 0 0 2.25-2.426 1.247 1.247 0 0 0 1.223-1.234 1.32 1.32 0 0 0-.036-.281 28.265 28.265 0 0 0 2.168-3.438 1.249 1.249 0 0 0 1.246-1.238c0-.293-.109-.559-.285-.77a24.34 24.34 0 0 0 1.301-3.925c.399-.211.672-.617.672-1.09 0-.3-.113-.574-.297-.79.188-1.202.297-2.433.297-3.698C39 4.27 37.73 1 34.906 1z" fill="#4788c7"/><path d="M34 14c0 .55-.45 1-1 1s-1-.45-1-1 .45-1 1-1 1 .45 1 1zm-7 12c0 .55-.45 1-1 1s-1-.45-1-1 .45-1 1-1 1 .45 1 1zm-16 8c0 .55-.45 1-1 1s-1-.45-1-1 .45-1 1-1 1 .45 1 1zm18-16.5c0 .277-.223.5-.5.5a.498.498 0 0 1-.5-.5.499.499 0 1 1 1 0zm3 3c0 .277-.223.5-.5.5a.498.498 0 0 1-.5-.5.499.499 0 1 1 1 0zm-9 7c0 .277-.223.5-.5.5a.498.498 0 0 1-.5-.5.499.499 0 1 1 1 0zm-7 4c0 .277-.223.5-.5.5a.498.498 0 0 1-.5-.5.499.499 0 1 1 1 0zm5 1c0 .277-.223.5-.5.5a.498.498 0 0 1-.5-.5.499.499 0 1 1 1 0zm16-23c0 .277-.223.5-.5.5a.498.498 0 0 1-.5-.5.499.499 0 1 1 1 0zm-3-3c0 .277-.223.5-.5.5a.498.498 0 0 1-.5-.5.499.499 0 1 1 1 0z" fill="#4788c7"/></svg>