<svg xmlns="http://www.w3.org/2000/svg" viewBox="0 0 40 40"><title>Durian</title><polygon points="18.88 36.63 16.99 37.88 15.72 35.89 13.63 36.67 12.76 34.43 10.56 34.72 10.13 32.33 7.93 32.1 7.95 29.65 5.84 28.92 6.32 26.53 4.39 25.33 5.31 23.09 3.65 21.47 4.97 19.5 3.65 17.53 5.31 15.9 4.39 13.67 6.32 12.47 5.84 10.08 7.95 9.35 7.93 6.9 10.13 6.67 10.56 4.28 12.76 4.57 13.63 2.33 15.72 3.11 16.99 1.12 18.88 2.37 20.5 0.71 22.12 2.37 24.01 1.12 25.28 3.11 27.37 2.33 28.24 4.57 30.44 4.28 30.87 6.67 33.07 6.9 33.05 9.35 35.16 10.08 34.68 12.47 36.61 13.67 35.69 15.9 37.35 17.53 36.03 19.5 37.35 21.47 35.69 23.09 36.61 25.33 34.68 26.53 35.16 28.92 33.05 29.65 33.07 32.1 30.87 32.33 30.44 34.72 28.24 34.43 27.37 36.67 25.28 35.89 24.01 37.88 22.12 36.63 20.5 38.28 18.88 36.63" fill="#bae0bd"/><path d="M20.5 1.43l1 1L22 3l.69-.45 1.13-.74.82 1.19.44.68.76-.28 1.24-.4.55 1.41.28.73.78-.1 1.31-.2.28 1.56.13.74.75.08 1.38.14V9.7l.68.24 1.36.47-.32 1.59-.14.68.59.37 1.28.8-.63 1.53-.26.63.49.47 1.13 1.1-.9 1.35-.37.56.37.56.9 1.35-1.13 1.1-.49.47.26.63.64 1.53-1.28.8-.59.37.14.68.33 1.62-1.36.47-.68.24v2.32l-1.38.14-.75.08-.13.74-.3 1.57-1.31-.16-.78-.1-.28.73-.55 1.37-1.25-.47-.76-.28-.44.68-.78 1.22-1.13-.74L22 36l-.58.59-1 1-1-1L19 36l-.69.45-1.13.74-.82-1.19-.44-.68-.76.28-1.24.4-.55-1.41-.28-.73-.78.1-1.31.2-.28-1.56-.13-.74-.75-.08-1.38-.14V29.3l-.68-.24-1.36-.47.32-1.59.14-.68-.59-.37L5 25.13l.63-1.53.28-.6-.49-.47L4.3 21.4l.9-1.35.37-.56-.37-.56-.9-1.33 1.13-1.1.48-.5-.26-.63-.65-1.5 1.28-.8.59-.37-.13-.7-.33-1.62 1.36-.47.68-.24v-2.3l1.38-.14.75-.08.13-.74.29-1.57 1.31.16.78.1.28-.73.55-1.37 1.25.47.76.28.43-.75.78-1.22 1.13.74L19 3l.58-.59 1-1M20.5 0l-1.69 1.72-2-1.3-1.29 2.08-2.17-.81L12.43 4l-2.28-.3-.44 2.52-2.28.24L7.45 9l-2.19.76.5 2.48-2 1.24 1 2.31L3 17.46l1.37 2L3 21.54l1.72 1.68-1 2.31 2 1.24-.5 2.48 2.23.75v2.54l2.28.24.45 2.49 2.28-.3.91 2.33 2.17-.81 1.33 2.07 2-1.3L20.5 39l1.69-1.72 2 1.3 1.33-2.07 2.17.81.88-2.32 2.28.3.45-2.49 2.28-.24v-2.54l2.19-.76-.5-2.48 2-1.24-1-2.31 1.73-1.7-1.37-2 1.37-2-1.72-1.68 1-2.31-2-1.24.5-2.48L33.55 9V6.46l-2.28-.24-.45-2.49-2.25.27-.91-2.33-2.17.81L24.16.43l-2 1.3L20.5 0z" fill="#5e9c76"/><path d="M20.5 34.5c-7.17 0-13-6.73-13-15s5.83-15 13-15 13 6.73 13 15-5.83 15-13 15z" fill="#ffeea3"/><path d="M20.5 5C27.39 5 33 11.5 33 19.5S27.39 34 20.5 34 8 27.5 8 19.5 13.61 5 20.5 5m0-1C13 4 7 10.94 7 19.5S13 35 20.5 35 34 28.06 34 19.5 28 4 20.5 4z" fill="#ba9b48"/><path d="M20.5 4.1V15a4.51 4.51 0 0 1-4.5 4.5H7.37M20.5 4.1V15a4.51 4.51 0 0 0 4.5 4.5h8.75M20.5 34.9V24a4.51 4.51 0 0 1 4.5-4.5h8.75M20.5 34.9V24a4.51 4.51 0 0 0-4.5-4.5H7.37" fill="none" stroke="#ba9b48" stroke-miterlimit="10"/></svg>