<svg xmlns="http://www.w3.org/2000/svg" viewBox="0 0 50 50"><path d="M25 2.563l-.719.75-1.312 1.343-1.563-1-.843-.562-.532.844-1.062 1.656-1.719-.625-.906-.344-.375.906-.75 1.907-1.781-.22-.97-.124-.155.937-.376 2.063-1.843.187-.906.094.03.906.032 2.156-1.813.626-.843.28.187.845.438 2.124-1.688 1.032-.718.468.343.782.813 1.968L4.5 22.97l-.594.593.469.688L5.531 26l-1.156 1.75-.469.688.594.593 1.469 1.407-.813 1.968-.343.782.718.468 1.688 1.032-.438 2.124-.187.844.843.282 1.813.624-.031 2.157-.031.906.906.094 1.844.187.374 2.063.157.937.969-.125 1.78-.218.75 1.906.376.906.906-.344 1.719-.625 1.062 1.657.532.843.843-.562 1.563-1 1.312 1.343.719.75.719-.75 1.312-1.343 1.563 1 .843.562.532-.843 1.062-1.657 1.719.625.906.344.375-.906.75-1.907 1.782.22.968.124.157-.937.374-2.063 1.844-.187.907-.094-.032-.906-.031-2.157 1.813-.624.843-.282-.187-.843-.438-2.126 1.688-1.03.718-.47-.343-.78-.813-1.97 1.469-1.406.594-.593-.469-.688L44.469 26l1.156-1.75.469-.688-.594-.593-1.469-1.407.813-1.968.343-.782-.718-.468-1.688-1.032.438-2.125.187-.843-.843-.281-1.813-.626.031-2.156.032-.906-.907-.094-1.843-.187-.376-2.063-.156-.937-.968.125-1.782.218-.75-1.906-.375-.906-.906.344-1.719.625-1.062-1.657-.532-.843-.843.562-1.563 1-1.312-1.343zm0 2.874l1.188 1.22.593.562.688-.438 1.375-.906.968 1.5.407.656L31 7.75l1.531-.563.657 1.72.28.718.782-.094 1.625-.219.344 1.876.156.75.75.062 1.656.188-.031 1.937v.719l.688.25 1.656.562-.407 1.938-.124.687.593.375 1.532.938-.75 1.843-.282.625.5.47 1.344 1.312-1.094 1.593-.375.563.375.563 1.094 1.593-1.344 1.313-.5.468.282.625.75 1.844-1.532.938-.593.375.124.687.407 1.938-1.657.562-.687.25v.719l.031 1.938-1.656.187-.75.063-.156.75-.344 1.874-1.625-.218-.781-.094-.282.719-.656 1.718L31 44.25l-.781-.281-.407.656-.968 1.5-1.375-.906-.688-.438-.593.563L25 46.562l-1.188-1.218-.593-.563-.688.438-1.375.906-.968-1.5-.407-.656-.781.281-1.531.563-.657-1.72-.28-.718-.782.094-1.625.218-.344-1.874-.156-.75-.75-.063-1.656-.188.031-1.937v-.719l-.688-.25-1.656-.562.406-1.938.126-.687-.594-.375-1.531-.938.75-1.843.28-.625-.5-.47L6.5 28.157l1.094-1.593.375-.563-.375-.563L6.5 23.845l1.344-1.313.5-.468-.281-.625-.75-1.844 1.53-.938.595-.375-.126-.687-.406-1.938 1.656-.562.688-.25v-.719l-.031-1.938L12.875 12l.75-.063.156-.75.344-1.874 1.625.218.781.094.282-.719.656-1.719L19 7.75l.781.281.407-.656.968-1.5 1.375.906.688.438.593-.563zm-1 3.625C16.477 9.626 10.469 16.457 10.031 25H20c2.207 0 4-1.793 4-4zm2 0V21c0 2.207 1.793 4 4 4h9.969C39.53 16.457 33.523 9.625 26 9.062zm-1 15.25A5.985 5.985 0 0 1 23.312 26 5.985 5.985 0 0 1 25 27.688 5.985 5.985 0 0 1 26.688 26 5.985 5.985 0 0 1 25 24.312zM10.031 27c.442 8.543 6.446 15.375 13.969 15.938V31c0-2.207-1.793-4-4-4zM30 27c-2.207 0-4 1.793-4 4v11.938c7.523-.563 13.531-7.395 13.969-15.938z"/></svg>