<?xml version="1.0" encoding="utf-8"?>
<!-- Generator: Adobe Illustrator 22.0.1, SVG Export Plug-In . SVG Version: 6.00 Build 0)  -->
<svg version="1.1" xmlns="http://www.w3.org/2000/svg" xmlns:xlink="http://www.w3.org/1999/xlink" x="0px" y="0px"
	 viewBox="0 0 254.355 295.38" enable-background="new 0 0 254.355 295.38" xml:space="preserve">
<g id="BACKGROUND">
</g>
<g id="OBJECTS">
	<g>
		<g>
			<path fill="#FFFFFF" d="M122.44,278.665c-1.047-0.422-25.972-10.614-53.536-35.743C43.5,219.762,11.013,178.979,0.52,116.211
				L0,113.1l2.015-2.427c0.449-0.541,11.242-13.402,31.804-26.29C52.7,72.548,83.842,58.4,124.98,58.204l0.775-0.001
				c73.405,0,120.466,48.934,122.434,51.017l2.323,2.46l-0.526,3.343c-9.899,62.894-42.555,103.998-68.207,127.404
				c-27.813,25.379-53.114,35.8-54.178,36.231l-2.58,1.046L122.44,278.665z"/>
			<path fill="#0A1633" d="M243.181,113.952c0,0-46.463-49.199-118.168-48.858c-76.496,0.364-117.696,49.98-117.696,49.98
				c19.684,117.75,117.696,157.198,117.696,157.198S224.618,231.884,243.181,113.952z"/>
		</g>
		<path fill="#FFFFFF" d="M216.601,193.881c0.489-3.515,2.491-21.035-2.062-45.028l5.202,1.864c0,0-4.147-38.621-10.249-49.241
			c8.436-64.253-8.568-89.313-8.817-89.729l-6.317-10.683l-5.697,11.705c-3.076,7.908-21.264,22.196-31.035,29.871
			c-1.275,1.001-2.479,1.947-3.59,2.829c-2.264,1.796-4.234,3.659-5.968,5.548l-1.089-3.979l-7.181,4.191l3.09-13.347l-13.63,8.296
			c-2.878,1.751-5.616,3.875-8.166,6.171l-9.279,2.567c-1.716,0.475-3.364,0.978-4.98,1.493c-2.751-4.047-6.163-7.717-10.228-10.942
			c-1.108-0.879-2.311-1.822-3.582-2.821c-9.774-7.677-27.967-21.967-31.043-29.877L57.012,0l-7.049,11.747
			c-0.696,1.16-16.807,28.878-8.817,89.729c-1.73,4.823-10.356,49.241-10.356,49.241l3.959-0.687
			c-4.406,24.143-0.157,65.703-0.157,65.703l4.707-6.878c1.164,7.42,14.828,43.513,14.995,43.98l-1.737-31.893
			c4.54,19.541,28.752,51.605,29.369,52.419l-4.008-20.371c3.059,4.374,6.799,8.995,11.264,13.341
			c8.708,8.473,21.624,18.451,27.948,23.211l7.931,5.839l4.016-3.284c0.721-0.589,17.762-14.546,29.291-25.765
			c4.439-4.319,8.26-8.911,11.446-13.252l-1.047,18.703c0.617-0.813,21.687-31.3,26.225-50.84l-0.173,26.761
			c0.189-0.527,12.789-32.924,13.845-41.877l8.053,13.067L216.601,193.881z"/>
		<g>
			<g>
				<path fill="#0D4D8C" d="M171.154,87.439c-0.593-1.776,21.908,30.772,21.908,30.772l3.552,13.045l4.343,30.179
					c0,0,5.723,21.334-19.145,48.571c-24.869,27.237-34.342,35.526-34.342,35.526l-22.871,29.013l2.74-171.119L171.154,87.439z"/>
				<path fill="#0D4D8C" d="M73.828,87.439c0.592-1.776-21.909,30.772-21.909,30.772l-3.552,13.045l-4.342,30.179
					c0,0,3.599,17.189,16.405,39.689c18.243,32.054,37.082,44.408,37.082,44.408l28.05,29.013l10.263-179.211L73.828,87.439z"/>
				<path fill="#1795D2" d="M126.958,202.9l-7.697,13.619c0,0-11.771,0.481-16.839-11.601c-5.069-12.083-2.108-26.294-2.108-26.294
					s-13.619,0.592-17.763,7.697c0,0-4.145-20.329-0.592-26.25c0,0-7.697,3.75-12.434,9.672c0,0-4.737-13.619,0-23.092
					c0,0,4.706-15.748-2.384-22.676c0,0,11.848,4.281,24.879,11.407c13.031,7.125,21.094,23.824,21.094,23.824
					s7.155-3.322,6.949-10.061c0,0-2.961,3.299-5.116,2.337c0,0-2.04-10.178-6.44-19.808c-5.265-11.526-13.038-23.137-12.93-27.374
					l28.619,11.959l1.973,42.237L126.958,202.9z"/>
				<path fill="#1795D2" d="M124.377,202.9l7.698,13.619c0,0,11.77,0.481,16.839-11.601c5.069-12.083,2.108-26.294,2.108-26.294
					s13.618,0.592,17.763,7.697c0,0,4.145-20.329,0.593-26.25c0,0,7.697,3.75,12.434,9.672c0,0,4.736-13.619,0-23.092
					c0,0-4.706-15.748,2.384-22.676c0,0-11.848,4.281-24.88,11.407c-13.031,7.125-21.897,23.824-21.897,23.824
					s-6.352-3.322-6.146-10.061c0,0,2.961,3.299,5.117,2.337c0,0,2.04-10.178,6.439-19.808
					c5.265-11.526,13.038-23.137,12.931-27.374l-28.619,11.959l-1.974,42.237L124.377,202.9z"/>
				<g>
					<path fill="#FFFFFF" d="M137.419,159.203c0,0,8.967,1.657,16.862,1.065l-3.16-2.189c0,0,22.331-3.296,23.305-20.192
						c0,0-2.184,5.999-11.065,7.973c-8.882,1.974-18.75,3.356-18.75,3.356L137.419,159.203z"/>
					<path fill="#FFFFFF" d="M113.113,159.203c0,0-8.766,1.657-16.661,1.065l3.16-2.189c0,0-22.331-3.296-23.304-20.192
						c0,0,2.184,5.999,11.065,7.973c8.881,1.974,18.75,3.356,18.75,3.356L113.113,159.203z"/>
					<path fill="#0A1633" d="M137.419,159.203c0,0,8.882-4.145,12.434-7.401c0,0,5.921,1.777,12.73-0.592
						c6.81-2.368,10.954-7.697,11.842-13.322c0,0-1.791,1.639-4.16,1.935c0,0,0.155-4.131,3.272-7.56
						c5.921-6.513,10.658-8.289,10.658-8.289l1.184-6.81c0,0-12.139,1.184-25.461,10.066
						C149.943,133.88,144.227,143.217,137.419,159.203z"/>
					<path fill="#FFFFFF" d="M166.136,131.671c0,0-3.653,1.185-6.82,3.709c-0.852-0.462-1.813-0.749-2.851-0.749
						c-3.324,0-8.684,7.136-8.684,10.461c0,0,3.355,3.256,7.845,2.96c6.949-0.458,7.106-6.297,7.106-9.622
						C162.732,138.43,164.411,134.866,166.136,131.671z"/>
					<path fill="#00ADEE" d="M161.004,139.516c0,2.807-2.275,5.082-5.082,5.082c-2.806,0-5.082-2.276-5.082-5.082
						s2.275-5.082,5.082-5.082C158.729,134.434,161.004,136.709,161.004,139.516z"/>
					<path fill="#00ADEE" d="M159.821,138.135c0,0.953-0.774,1.727-1.728,1.727c-0.954,0-1.727-0.773-1.727-1.727
						c0-0.954,0.773-1.727,1.727-1.727C159.047,136.407,159.821,137.181,159.821,138.135z"/>
					<path fill="#0A1633" d="M145.511,150.717c0,0,9.474-9.079,24.276-19.934l-11.448,0.79
						C158.34,131.572,146.892,135.124,145.511,150.717z"/>
				</g>
				<path fill="#0A1633" d="M124.97,183.047c-9.842,0-19.197,4.041-21.316,9.474c-1.974,5.06,1.467,14.223,7.402,20.428
					c6.512,6.809,22.499,5.625,27.829,0c5.904-6.232,9.375-15.367,7.401-20.428C144.166,187.087,134.811,183.047,124.97,183.047z"/>
				<path fill="#FFFFFF" d="M113.423,193.112h24.869C138.292,193.112,124.081,184.823,113.423,193.112z"/>
				<path fill="#0A1633" d="M156.823,159.508c0,0,18.226-4.612,24.664-14.137C181.487,145.37,181.75,164.669,156.823,159.508z"/>
				<path fill="#0A1633" d="M94.448,159.508c0,0-18.227-4.612-24.665-14.137C69.783,145.37,69.521,164.669,94.448,159.508z"/>
				<path fill="#0A1633" d="M107.799,179.79c0,0,14.803-22.5,33.158-1.776C140.957,178.014,124.377,172.685,107.799,179.79z"/>
				<path fill="#0A1633" d="M124.081,233.986c-9.77,0-13.577-3.199-13.577-3.199c-0.929,1.866,0.742,7.39,4.886,10.166
					c5.287,3.542,13.872,2.802,18.369,0c4.227-2.634,5.865-8.448,4.886-10.166C138.645,230.787,132.963,233.986,124.081,233.986z"/>
				<g>
					<path fill="#0A1633" d="M113.113,159.203c0,0-8.882-4.145-12.434-7.401c0,0-5.921,1.777-12.73-0.592
						c-6.809-2.368-10.954-7.697-11.842-13.322c0,0,1.791,1.639,4.16,1.935c0,0-0.154-4.131-3.272-7.56
						c-5.921-6.513-10.658-8.289-10.658-8.289l-1.184-6.81c0,0,12.138,1.184,25.461,10.066
						C100.588,133.88,106.303,143.217,113.113,159.203z"/>
					<path fill="#FFFFFF" d="M84.395,131.671c0,0,3.653,1.185,6.82,3.709c0.852-0.462,1.813-0.749,2.851-0.749
						c3.324,0,8.684,7.136,8.684,10.461c0,0-3.355,3.256-7.845,2.96c-6.949-0.458-7.105-6.297-7.105-9.622
						C87.8,138.43,86.12,134.866,84.395,131.671z"/>
					<path fill="#00ADEE" d="M89.527,139.516c0,2.807,2.276,5.082,5.082,5.082c2.807,0,5.082-2.276,5.082-5.082
						s-2.275-5.082-5.082-5.082C91.802,134.434,89.527,136.709,89.527,139.516z"/>
					<path fill="#00ADEE" d="M90.711,138.135c0,0.953,0.773,1.727,1.727,1.727c0.954,0,1.727-0.773,1.727-1.727
						c0-0.954-0.773-1.727-1.727-1.727C91.484,136.407,90.711,137.181,90.711,138.135z"/>
					<path fill="#0A1633" d="M105.02,150.717c0,0-9.474-9.079-24.276-19.934l11.448,0.79
						C92.191,131.572,103.638,135.124,105.02,150.717z"/>
				</g>
				<path fill="#0A1633" d="M143.324,82.11c0,0-1.776-17.763,15.395-31.382c11.325-8.982,32.566-24.868,36.71-35.526
					c0,0,15.987,26.645,7.698,87.04c0,0,6.513,16.579,7.105,33.158c0,0-6.513-5.921-15.394-10.658
					C194.838,124.742,173.128,89.808,143.324,82.11z"/>
				<path fill="#0A1633" d="M184.772,92.158c-11.25-12.434-30.986-10.443-51.711-6.298l-7.796-7.512l-11.941,8.302
					c-20.724-4.145-36.316-6.926-47.566,5.508c-11.25,12.434-8.289,26.053-8.289,26.053c5.329-1.184,18.356,1.776,18.356,1.776
					c-7.698-5.329-4.737-17.763-4.737-17.763c2.96,10.658,24.868,16.875,24.868,16.875c-5.625-8.882-1.184-14.803-1.184-14.803
					s5.775,9.945,18.356,19.243c4.172,3.084,12.039,34.953,12.039,34.953c2.161-3.796,8.065-31.869,12.237-34.953
					c12.58-9.298,18.356-19.243,18.356-19.243s4.441,5.921-1.184,14.803c0,0,21.908-6.217,24.868-16.875
					c0,0,2.961,12.434-4.737,17.763c0,0,13.027-2.96,18.356-1.776C193.062,118.211,196.023,104.592,184.772,92.158z"/>
				<path fill="#0D4D8C" d="M164.837,59.124c0,0,24.474-10.003,28.422-27.047c0,0,3.059,15.283-9.079,26.259
					c0,0,4.095,1.25,7.253,0.139c0,0-2.122,9.263-9.227,11.671c0,0,2.96,0.926,7.303,0l-3.849,5.28c0,0,8.289,9.448,11.546,20.007
					c0,0-5.624-13.894-27.533-26.398c0,0,6.81-1.389,10.658-4.724C180.331,64.311,168.884,63.106,164.837,59.124z"/>
				<path fill="#0A1633" d="M91.219,83.294l13.41-18.248c-2.277-4.686-5.909-9.737-11.686-14.318
					C81.618,41.746,60.377,25.86,56.232,15.202c0,0-15.987,26.645-7.698,87.04c0,0-6.513,16.579-7.105,33.158
					c0,0,6.513-5.921,15.395-10.658C56.825,124.742,61.416,90.992,91.219,83.294z"/>
				<path fill="#0D4D8C" d="M86.825,59.124c0,0-24.474-10.003-28.421-27.047c0,0-3.059,15.283,9.079,26.259
					c0,0-4.095,1.25-7.253,0.139c0,0,2.122,9.263,9.227,11.671c0,0-2.96,0.926-7.302,0l3.849,5.28c0,0-8.29,9.448-11.546,20.007
					c0,0,5.625-13.894,27.533-26.398c0,0-6.81-1.389-10.658-4.724C71.331,64.311,82.778,63.106,86.825,59.124z"/>
				<path fill="#0A1633" d="M92.009,89.808l-26.25,2.35c0,0,11.25-20.508,48.356-30.772c0,0-5.132,8.487-5.132,17.171
					c0,0,10.658-18.356,24.276-26.645c0,0-4.934,21.316-0.987,28.421c0,0,1.579-17.566,11.053-23.092l3.948,14.408
					c0,0,24.473,0,40.263,23.685L92.009,89.808z"/>
				<path fill="#0A1633" d="M184.195,123.973c0,0,14.393,0.93,15.972,49.303l10.231,20.132c0,0,7.532-47.351-22.862-98.074
					L184.195,123.973z"/>
				<path fill="#0A1633" d="M66.336,123.973c0,0-14.393,0.93-15.972,49.303l-10.231,20.132c0,0-7.532-47.351,22.863-98.074
					L66.336,123.973z"/>
				<path fill="#0A1633" d="M124.229,217.622c-11.35,0-21.017-5.293-24.684-12.704c-0.032,0.445-0.053,0.892-0.053,1.344
					c0,11.878,11.076,21.507,24.737,21.507c13.662,0,24.738-9.629,24.738-21.507c0-0.452-0.021-0.899-0.053-1.344
					C145.247,212.328,135.579,217.622,124.229,217.622z"/>
				<path fill="#0A1633" d="M210.398,193.408c0,0-0.113-24.079-8.008-31.974c0,0,0.79,7.895-0.789,11.842
					c0,0-6.316-4.737-13.421-7.105c0,0,5.724,5.329,4.934,17.171c0,0-6.316-2.566-14.211-4.145c0,0,4.539,17.96,0.593,29.013
					c0,0-7.895-8.092-16.58-10.461c0,0,3.817,18.278-6.992,33.285c-10.094,14.016-31.635,25.747-31.635,25.747
					s-21.541-11.731-31.635-25.747c-10.809-15.007-6.992-33.285-6.992-33.285c-8.684,2.368-16.579,10.461-16.579,10.461
					c-3.948-11.053,0.592-29.013,0.592-29.013c-7.895,1.579-14.211,4.145-14.211,4.145c-0.79-11.842,4.934-17.171,4.934-17.171
					c-7.105,2.369-13.421,7.105-13.421,7.105c-1.579-3.948-0.789-11.842-0.789-11.842c-7.895,7.895-6.054,31.974-6.054,31.974
					c3.158-5.526,8.423-11.447,8.423-11.447c-7.105,15.79,0.79,37.895,0.79,37.895c0.79-7.105,8.684-13.421,8.684-13.421
					c0,23.684,17.368,46.58,17.368,46.58c-3.947-15.001-1.579-22.303-1.579-22.303s6.379,17.011,20.559,30.808
					c11.454,11.146,30.964,25.379,30.964,25.379s17.404-14.234,28.86-25.379c14.179-13.797,21.742-30.808,21.742-30.808
					s1.184,7.302-2.763,22.303c0,0,17.368-22.895,17.368-46.58c0,0,7.895,6.316,8.685,13.421c0,0,7.895-22.105,0.79-37.895
					C200.022,181.961,207.241,187.882,210.398,193.408z"/>
				<path fill="#0A1633" d="M140.561,259.151l-16.273-2.369c0,0,21.799-10.658,26.141-29.21
					C150.429,227.571,152.009,246.124,140.561,259.151z"/>
				<path fill="#0A1633" d="M108.178,259.151l16.273-2.369c0,0-21.799-10.658-26.141-29.21
					C98.31,227.571,96.731,246.124,108.178,259.151z"/>
			</g>
			<g>
				<path fill="#1795D2" d="M170.211,68.912c0.216-0.009,0.432-0.013,0.649-0.026c13.816-0.789,16.184-7.5,16.184-7.5
					c-4.736,0.79-11.448-3.553-11.448-3.553c10.969-6.129,15.804-19.439,17.206-24.1c-5.076,16.032-27.965,25.39-27.965,25.39
					c4.046,3.983,15.494,5.187,15.494,5.187C177.125,67.088,171.88,68.512,170.211,68.912z"/>
				<path fill="#1795D2" d="M81.243,68.912c-0.216-0.009-0.431-0.013-0.648-0.026c-13.816-0.789-16.184-7.5-16.184-7.5
					c4.737,0.79,11.447-3.553,11.447-3.553c-10.968-6.129-15.804-19.439-17.205-24.1c5.076,16.032,27.964,25.39,27.964,25.39
					c-4.046,3.983-15.493,5.187-15.493,5.187C74.33,67.088,79.576,68.512,81.243,68.912z"/>
				<path fill="#1795D2" d="M193.259,32.077c-0.109,0.471-0.24,0.934-0.379,1.393C193.138,32.592,193.259,32.077,193.259,32.077z"/>
			</g>
		</g>
	</g>
</g>
<g id="DESIGNED_BY_FREEPIK">
</g>
</svg>
