<svg xmlns="http://www.w3.org/2000/svg" viewBox="0 0 50 50"><path d="M24.984 1.984c-.55.012-.992.465-.984 1.016v5.586l-3.293-3.293a1.004 1.004 0 0 0-1.645.32 1 1 0 0 0 .231 1.094L24 11.414V23.27l-10.266-5.926-1.722-6.434a1.001 1.001 0 1 0-1.934.52l1.207 4.496-4.84-2.79a.958.958 0 0 0-.472-.144c-.035 0-.067 0-.098.004a.997.997 0 1 0-.43 1.867l4.84 2.793-4.496 1.207a1.005 1.005 0 0 0-.71 1.227c.144.531.69.851 1.226.707l6.43-1.723L23 25l-10.266 5.926-6.43-1.723a.952.952 0 0 0-.296-.035.994.994 0 0 0-.973.887c-.058.5.266.96.754 1.082l4.496 1.207-4.84 2.793a1.003 1.003 0 0 0-.02 1.758.996.996 0 0 0 1.02-.032l4.84-2.789-1.207 4.496c-.098.348-.004.723.25.98.254.259.629.36.977.263a.99.99 0 0 0 .707-.723l1.722-6.434L24 26.73v11.856l-4.707 4.707a.992.992 0 0 0-.273.973.99.99 0 0 0 .714.714.992.992 0 0 0 .973-.273L24 41.414V47c-.004.36.184.695.496.879.313.18.695.18 1.008 0 .312-.184.5-.52.496-.879v-5.586l3.293 3.293c.25.262.625.367.973.273a.99.99 0 0 0 .714-.714.992.992 0 0 0-.273-.973L26 38.586V26.73l10.266 5.926 1.722 6.434a.99.99 0 0 0 .707.722.996.996 0 0 0 .977-.261c.254-.258.348-.633.25-.98l-1.207-4.497 4.836 2.79c.312.199.703.206 1.023.03.32-.18.516-.519.512-.886a.987.987 0 0 0-.535-.871l-4.836-2.793 4.5-1.207a1 1 0 1 0-.52-1.934l-6.43 1.723L27 25l10.266-5.926 6.43 1.723a1.002 1.002 0 0 0 1.226-.707 1.005 1.005 0 0 0-.707-1.227l-4.5-1.207 4.836-2.793a.996.996 0 1 0-.453-1.867.972.972 0 0 0-.547.14l-4.836 2.79 1.207-4.496a1.006 1.006 0 0 0-1.016-1.274 1.005 1.005 0 0 0-.918.754l-1.722 6.434L26 23.27V11.414l4.707-4.707a.992.992 0 0 0 .273-.973.99.99 0 0 0-.714-.714.992.992 0 0 0-.973.273L26 8.586V3a1.003 1.003 0 0 0-1.016-1.016zm5.532 12.477a.994.994 0 0 0-.88.512l-1.902 3.293a1 1 0 0 0 .368 1.367c.476.273 1.09.11 1.367-.367l1.894-3.293a.986.986 0 0 0 .016-1 1.002 1.002 0 0 0-.863-.512zm-11.063.004a.992.992 0 0 0-.816 1.508l1.894 3.293c.278.476.89.64 1.367.367a1 1 0 0 0 .368-1.367l-1.903-3.293a.993.993 0 0 0-.91-.508zM14 24a1.006 1.006 0 0 0-.879.496 1.01 1.01 0 0 0 0 1.008c.184.312.52.5.879.496h3.8c.36.004.696-.184.88-.496a1.01 1.01 0 0 0 0-1.008c-.184-.312-.52-.5-.88-.496zm18.2 0a1.006 1.006 0 0 0-.88.496 1.01 1.01 0 0 0 0 1.008c.184.312.52.5.88.496H36c.36.004.695-.184.879-.496a1.01 1.01 0 0 0 0-1.008c-.184-.312-.52-.5-.879-.496zm-10.782 6.223a1.003 1.003 0 0 0-.887.511l-1.894 3.293a.995.995 0 0 0 .855 1.532.99.99 0 0 0 .871-.532l1.903-3.293a1 1 0 0 0-.848-1.512zm7.137 0a1.002 1.002 0 0 0-.82 1.512l1.902 3.292a1.003 1.003 0 0 0 1.758.02.995.995 0 0 0-.032-1.02l-1.894-3.293a1.003 1.003 0 0 0-.914-.511z"/></svg>