<svg xmlns="http://www.w3.org/2000/svg" viewBox="0 0 64 64"><path d="M50.34 1.273c-.754.036-1.473.497-1.778 1.22L46.63 7.101c-.2.449-.746.718-1.168.515-1.84-.867-3.922-.804-6.07.196-3.98 1.859-5.871 6.847-5.891 9.636 0 .02 0 .031.012.051l-.782 1.25a48.91 48.91 0 0 1-19.742 18.04l-.25.12c-6.68 3.34-9.558 11.32-6.527 18.2a14.001 14.001 0 0 0 12.828 8.37c2.57 0 5.09-.718 7.3-2.07l.9-.55c11.41-6.989 20.32-17.731 25.1-30.22l1.75-4.57c.052-.129.09-.25.141-.383.07.024.153.032.23.032h.06a.967.967 0 0 0 .71-.36c1.782-2.148 3.54-7.191 1.68-11.172-.95-2.039-2.36-3.367-4.2-3.957-.51-.16-.812-.64-.69-1.12l1.242-5.04c.238-.988-.301-2-1.262-2.351l-.91-.336c-.246-.09-.5-.125-.75-.11zm.07 1.985l.903.332-1.243 5.043c-.37 1.52.508 3.02 2.04 3.508 1.28.41 2.288 1.379 2.988 2.898 1.093 2.328.574 5.121-.278 7.09-.16.371-.328.723-.5 1.023a20.695 20.695 0 0 1-1.539-1.863 17.179 17.179 0 0 1-1.05-1.57 1.95 1.95 0 0 0-1.7-.969c-.672 0-1.3.34-1.672.91-1.39 2.102-3.418 3.13-4.468 3.54-.551-1.012-1.493-3.169-1.121-5.77a2.017 2.017 0 0 0-.48-1.61 1.967 1.967 0 0 0-2.169-.558 20.682 20.682 0 0 1-4.5 1.086c.149-.809.438-1.758.89-2.696.759-1.62 1.97-3.214 3.72-4.035 1.601-.738 3.078-.808 4.367-.195.37.18.773.265 1.183.265 1.149 0 2.23-.726 2.688-1.82zm-9.62 13.894c-.622 4.387 1.76 7.7 1.862 7.836.239.332.649.473 1.047.383.16-.043 3.961-1.012 6.313-4.633a21.72 21.72 0 0 0 2.55 3.45 7.778 7.778 0 0 1-.343 1.16l-1.75 4.574c-4.617 12.09-13.239 22.469-24.27 29.23l-.91.559a11.942 11.942 0 0 1-6.25 1.77c-4.77 0-9.09-2.813-11.02-7.211a12.003 12.003 0 0 1 5.61-15.57l.25-.122a50.973 50.973 0 0 0 20.559-18.766l.874-1.41a22.976 22.976 0 0 0 5.477-1.25zm-4.052 5.141a.995.995 0 0 0-1.004.46 52.714 52.714 0 0 1-1.398 2.138.999.999 0 1 0 1.644 1.136c.5-.722.989-1.468 1.458-2.218a1.002 1.002 0 0 0-.7-1.516zm-4.129 5.41c-.254.027-.5.149-.672.36a48.7 48.7 0 0 1-15.953 12.726 1.004 1.004 0 0 0 .454 1.898c.148 0 .3-.035.44-.109a50.65 50.65 0 0 0 16.606-13.242 1.004 1.004 0 0 0-.875-1.633zm-18.797 22.8c-.124.02-.253.063-.374.134l-1.735 1A.996.996 0 0 0 11.34 53c.187.32.52.5.867.5.168 0 .34-.043.496-.137l1.735-1A.996.996 0 0 0 14.805 51a1.007 1.007 0 0 0-.992-.496zm2.813 2.563a.995.995 0 0 0-.988.496l-1 1.731A.992.992 0 0 0 15 56.656a.995.995 0 0 0 1.363-.363l1-1.73A.998.998 0 0 0 17 53.194c-.121-.07-.25-.11-.375-.129zm6.75 0c-.129.02-.254.059-.375.13a.998.998 0 0 0-.363 1.367l1 1.73a.995.995 0 0 0 1.363.363.993.993 0 0 0 .363-1.363l-1-1.73a.995.995 0 0 0-.988-.497zM20 54a1 1 0 0 0-1 1v2a1 1 0 1 0 2 0v-2a1 1 0 0 0-1-1z"/></svg>