<svg xmlns="http://www.w3.org/2000/svg" viewBox="0 0 50 50"><path d="M46.156 1.063a1.05 1.05 0 0 0-.625.437c-.023.035-2.258 3.402-4.937 5.656-.293-.004-.602-.008-.938-.031-.492-.035-1.039-.094-1.593-.094-1.856 0-4.602.403-7.063 3.719 1.383.824 3.496.91 7.406.25-1.566 1.566-2 5.781-2 5.781s3.13-.254 5.157-2.281c-.266 2.05 1.874 4.523 2.937 5.906a.848.848 0 0 0 .125-.187c2.414-5.14 1.063-8.32.406-9.75 2.852-3.403 3.895-7.028 3.938-7.188a1.043 1.043 0 0 0-.469-1.156l-1.625-.938a.966.966 0 0 0-.719-.125zM29.594 12.219c-1.078 1.011-2.192 2.183-3.313 3.406-1.84 2.004-3.75 4.07-5.781 5.594-2.824 2.117-5.824 3.203-8.75 4.25C6.227 27.445 1 29.324 1 38c0 6.066 4.934 11 11 11 14.734 0 28.336-14.816 31.656-26.438l-.718-.937-.344-.406c-.735-.938-1.668-2.133-2.313-3.469-1.808.832-3.457.98-3.718 1l-2.376.188.22-2.375c.042-.418.218-1.723.624-3.157-.277.012-.558.031-.812.031-1.77 0-3.121-.296-4.25-.968zm1.593 6.531a.998.998 0 0 1 .75.188.98.98 0 0 1 .25 1.375c-.292.421-7.304 10.382-20.593 13.406a.845.845 0 0 1-.219.031.995.995 0 0 1-.969-.781.988.988 0 0 1 .75-1.188c12.543-2.855 19.34-12.496 19.407-12.593.156-.227.375-.391.625-.438z"/></svg>