<svg xmlns="http://www.w3.org/2000/svg" viewBox="0 0 16 16"><path d="M6 1c-.512 0-.828.348-1.086.71-.254.36-.473.806-.664 1.278a12.007 12.007 0 0 0-.648 2.23c-.82.15-1.497.329-1.86.509-.21.105-.363.207-.465.293-.101.085-.183.19-.183.19a.503.503 0 0 0-.078.415.5.5 0 0 0 .265.324s.574.278 1.68.535c.047.012.113.024.164.036v.035C2.305 7.738 2 8.387 2 9c0 .797.598 2 1.5 2 .078 0 .16-.008.246-.016C4.476 13.262 6.293 15 8 15c1.688 0 3.484-1.703 4.254-4.016.086.008.168.016.246.016.902 0 1.5-1.203 1.5-2 0-.719-.625-1.281-1.281-1.45.101-.023.226-.042.32-.066 1.106-.257 1.68-.535 1.68-.535a.49.49 0 0 0 .254-.289.49.49 0 0 0-.024-.379s-.078-.133-.172-.23a1.873 1.873 0 0 0-.441-.317c-.344-.187-1.004-.367-1.82-.515a11.455 11.455 0 0 0-.715-2.242c-.207-.473-.442-.922-.707-1.278C10.824 1.344 10.512 1 10 1c-.55 0-.969.281-1.344.508-.187.113-.36.219-.492.289-.129.066-.23.078-.164.078s-.04-.012-.172-.078c-.133-.07-.308-.176-.496-.29C6.953 1.286 6.547 1 6 1zm0 1c.082 0 .46.152.82.367.184.106.364.219.547.313.184.097.356.195.633.195s.45-.098.633-.195c.18-.094.36-.207.539-.313C9.523 2.157 9.895 2 10 2c-.059 0 .098.043.293.297.191.258.402.652.594 1.082.379.86.683 1.902.742 2.32.035.219.207.39.426.418.597.086.77.192 1.074.297-.168.047-.094.047-.316.102C11.784 6.754 10.194 7 8 7s-3.785-.246-4.813-.484c-.19-.047-.12-.047-.273-.086.332-.11.54-.223 1.156-.313a.492.492 0 0 0 .422-.422c.067-.437.336-1.472.684-2.328.176-.43.37-.824.55-1.078C5.91 2.04 6.056 2 6 2zm6.395 5.617v.008h-.051c.02 0 .035-.004.05-.008zm-8.27.094c.605.098 1.313.18 2.125.234a.498.498 0 0 0 .25.93.498.498 0 0 0 .29-.906C7.18 7.984 7.565 8 8 8c.434 0 .824-.016 1.21-.031a.498.498 0 0 0 .29.906.498.498 0 0 0 .25-.93 22.69 22.69 0 0 0 2.125-.234v.766l.473.023c.304.016.652.281.652.5 0 .41-.34.977-.5 1-.04 0-.188-.004-.473-.078l-.464-.11-.172.56C10.816 12.542 9.17 14 8 14c-1.176 0-2.816-1.457-3.39-3.625l-.173-.57-.46.117c-.29.074-.438.078-.477.078-.16-.023-.5-.59-.5-1 0-.254.047-.5.625-.5h.5z"/></svg>