<svg xmlns="http://www.w3.org/2000/svg" viewBox="0 0 48 48"><path d="M41 19.5c0-3.04-7.61-5.5-17-5.5S7 16.46 7 19.5 14.61 25 24 25s17-2.46 17-5.5z" fill="#ce8b05"/><path d="M29 33l-5 1-5-1S8 34.984 8 46h32c0-10.977-11-13-11-13" fill="#3f51b5"/><path d="M24 39l-5-6v-6h10v6z" fill="#ff9800"/><path d="M35 21a1.999 1.999 0 1 1-4 0 1.999 1.999 0 1 1 4 0m-18 0a1.999 1.999 0 1 0-4 0 1.999 1.999 0 1 0 4 0" fill="#ffa726"/><path d="M33 15c0-7.637-18-4.973-18 0v7c0 4.973 4.027 9 9 9s9-4.027 9-9z" fill="#ffb74d"/><path d="M27 21c0-.55.45-1 1-1s1 .45 1 1-.45 1-1 1-1-.45-1-1m-8 0c0 .55.45 1 1 1s1-.45 1-1-.45-1-1-1-1 .45-1 1" fill="#784719"/><path d="M30 33.254V42H18v-8.75c-.945.281-2.445.824-4 1.793V46h20V35.059a16.635 16.635 0 0 0-4-1.805z" fill="#4caf50"/><path d="M15 44a1 1 0 1 1 1 1c-.555 0-1-.445-1-1zm17 1a1 1 0 1 0 0-2c-.555 0-1 .445-1 1 0 .555.445 1 1 1z" fill="#1b5e20"/><path d="M24 14c-3.742 0-7.191.395-10 1.059V18s3-2 10-2 10 2 10 2v-2.941C31.191 14.395 27.742 14 24 14z" fill="#ce8b05"/><path d="M28 4c-2 0-2 2-4 2s-2-2-4-2-6 6.027-6 11v.059C16.809 14.395 20.258 14 24 14s7.191.395 10 1.059V15c0-4.973-4-11-6-11z" fill="#fbc02d"/><path d="M14.422 12c-.266 1.004-.422 2.023-.422 3 0 0 4-1 10-1s10 1 10 1c0-.977-.16-1.996-.422-3 0 0-5.578-1-9.578-1-4 0-9.578 1-9.578 1z" fill="#ed9f21"/><path d="M32 21l2-1.742V18s-.64-.422-2-.879zm-18-3v1.285L16 21v-3.879c-1.36.457-2 .879-2 .879z" fill="#424242"/></svg>