<svg xmlns="http://www.w3.org/2000/svg" viewBox="0 0 50 50"><path d="M18.781 0c-1.52 0-2.699 1.004-3.593 2.281-.895 1.278-1.614 2.926-2.313 4.688-1.371 3.449-2.727 7.383-4.375 9.625-.3.133-.617.265-.906.406C3.07 19.2 0 22.348 0 26.125c0 2.457 1.332 4.71 3.469 6.531 2.039 1.739 4.855 3.14 8.156 4.188 1.164 2.734 2.563 5.46 4.281 7.75C18.23 47.684 21.238 50 25 50c3.762 0 6.77-2.316 9.094-5.406 1.718-2.29 3.117-5.016 4.281-7.75 3.297-1.047 6.117-2.45 8.156-4.188C48.668 30.836 50 28.582 50 26.125c0-3.777-3.07-6.926-7.594-9.125-.289-.14-.605-.273-.906-.406-1.496-2.145-2.84-6.102-4.25-9.563-.727-1.777-1.457-3.426-2.375-4.718C33.957 1.02 32.746 0 31.219 0c-1.64 0-2.77.977-3.688 1.719-.918.742-1.61 1.25-2.531 1.25-.922 0-1.613-.508-2.531-1.25C21.55.977 20.422 0 18.78 0zm0 2c.836 0 1.512.535 2.438 1.281.926.746 2.097 1.688 3.781 1.688 1.684 0 2.855-.942 3.781-1.688C29.707 2.535 30.383 2 31.22 2c.617 0 1.289.426 2.031 1.469.742 1.043 1.453 2.617 2.156 4.344 1.012 2.48 1.957 5.304 3.125 7.656-3.91-1.266-8.539-2-13.531-2-4.969 0-9.57.746-13.469 2 1.242-2.426 2.196-5.29 3.188-7.781.68-1.711 1.379-3.231 2.094-4.25C17.526 2.417 18.148 2 18.78 2zM25 15.469c5.875 0 11.23 1.082 15.281 2.781.153.125.336.2.532.219.238.105.488.199.718.312C45.695 20.805 48 23.457 48 26.125c0 1.73-.938 3.43-2.781 5-1.239 1.055-2.867 2.043-4.813 2.875C41.934 33.21 43 31.66 43 29.812c0-2.175-.996-3.5-2.063-4-.34-.16-.636-.171-.937-.218v-.407c.004-.05.004-.105 0-.156V25a.988.988 0 0 0-.25-.656c-.008-.02-.023-.043-.031-.063-.055-.11-.114-.23-.188-.343-.351-.528-.945-1.133-1.968-1.72C35.516 21.052 31.848 20 25 20c-6.848 0-10.52 1.047-12.563 2.219-1.023.586-1.617 1.191-1.968 1.718-.074.114-.133.235-.188.344-.008.02-.023.043-.031.063l-.031.031A1.01 1.01 0 0 0 10 25v.125a1.024 1.024 0 0 0 0 .219v.343c-.371.04-.465-.078-.938.157C8.017 26.359 7 27.695 7 29.812 7 31.657 8.07 33.208 9.594 34c-1.946-.832-3.574-1.82-4.813-2.875-1.843-1.57-2.781-3.266-2.781-5 0-2.668 2.305-5.32 6.469-7.344.351-.172.719-.34 1.094-.5.03-.008.062-.02.093-.031 4.059-1.71 9.442-2.781 15.344-2.781zM25 22c6.64 0 9.977 1.031 11.563 1.938.792.453 1.144.875 1.312 1.125.168.25.125.218.125.218v2.375l1.156-.187s.473-.078.907.125c.433.203.937.562.937 2.218a2.768 2.768 0 0 1-2.5 2.782l-.594.062-.218.594c-.266.7-.579 1.414-.876 2.125a1 1 0 0 0-.28.688v.03c-1.137 2.63-2.47 5.208-4.032 7.282C30.379 46.195 27.941 48 25 48s-5.379-1.805-7.5-4.625c-1.566-2.082-2.902-4.672-4.031-7.313a1 1 0 0 0-.281-.687c-.004-.012-.028-.02-.032-.031-.289-.696-.55-1.407-.812-2.094l-.219-.594-.625-.062A2.765 2.765 0 0 1 9 29.812c0-1.578.484-1.933.938-2.156.453-.222.937-.187.937-.187l1.125.125v-2.312s-.04.03.125-.22c.164-.25.523-.671 1.313-1.125C15.015 23.032 18.358 22 25 22z"/></svg>