<svg xmlns="http://www.w3.org/2000/svg" viewBox="0 0 50 50"><path d="M18.781 0c-3.273 0-4.965 4.426-6.75 9.125-.601 1.578-1.203 3.191-1.875 4.625 4.211-1.453 9.27-2.281 14.844-2.281 5.629 0 10.734.832 14.969 2.312-.598-1.308-1.164-2.75-1.719-4.187C36.348 4.664 34.55 0 31.219 0c-1.574 0-2.68.898-3.657 1.688-.859.695-1.593 1.28-2.562 1.28-.969 0-1.703-.585-2.563-1.28C21.462.897 20.355 0 18.782 0zM25 13.469c-14.02 0-25 5.55-25 12.656 0 4.43 4.332 8.441 11.625 10.75C14.316 43.175 18.461 50 25 50c6.54 0 10.684-6.852 13.375-13.156C45.66 34.535 50 30.55 50 26.125c0-7.105-10.98-12.656-25-12.656zM25 22c11.43 0 12.883 2.973 13 3.25v2.375l1.156-.156c.008 0 .723-.082 1.219.343.52.45.625 1.336.625 2a2.78 2.78 0 0 1-2.5 2.782l-.594.062-.218.594C33.913 43.18 29.753 48 25 48c-4.754 0-8.887-4.82-12.656-14.75l-.219-.594-.625-.062A2.769 2.769 0 0 1 9 29.812c0-.91.215-1.566.625-1.937.516-.465 1.246-.402 1.25-.406l1.125.125V25.28c.145-.366 1.672-3.28 13-3.28z"/></svg>