<svg xmlns="http://www.w3.org/2000/svg" viewBox="0 0 50 50"><path d="M24.969 1.973A1.998 1.998 0 0 0 23 4v3.586l-2.293-2.293a1.004 1.004 0 0 0-1.645.32 1 1 0 0 0 .231 1.094L23 10.414v11.121l-9.629-5.562-1.36-5.063a1.001 1.001 0 1 0-1.933.52l.84 3.133-3.105-1.797a2.08 2.08 0 0 0-.95-.282 2.003 2.003 0 0 0-1.05 3.75l3.105 1.793-3.129.836a1.005 1.005 0 0 0-.71 1.227c.144.531.69.851 1.226.707l5.066-1.36L21 25l-9.629 5.563-5.066-1.36a.952.952 0 0 0-.297-.035.994.994 0 0 0-.973.887c-.058.5.266.96.754 1.082l3.129.836-3.105 1.793a2.005 2.005 0 0 0-.735 2.734 2.005 2.005 0 0 0 2.734.734l3.106-1.797-.84 3.133c-.098.348-.004.723.25.98.254.259.629.36.977.263a.99.99 0 0 0 .707-.723l1.36-5.063L23 28.465v11.12l-3.707 3.708a.992.992 0 0 0-.273.973.99.99 0 0 0 .714.714.992.992 0 0 0 .973-.273L23 42.414V46c-.012.723.367 1.39.992 1.754a1.982 1.982 0 0 0 2.016 0A1.988 1.988 0 0 0 27 46v-3.586l2.293 2.293c.25.262.625.367.973.273a.99.99 0 0 0 .714-.714.992.992 0 0 0-.273-.973L27 39.586V28.465l9.629 5.562 1.36 5.063a.99.99 0 0 0 .706.722.996.996 0 0 0 .977-.261c.254-.258.348-.633.25-.98l-.84-3.133 3.105 1.796c.958.551 2.18.223 2.735-.734.55-.957.223-2.18-.734-2.734l-3.106-1.793 3.133-.836a1 1 0 1 0-.52-1.934l-5.066 1.36L29 25l9.629-5.563 5.066 1.36a1.002 1.002 0 0 0 1.227-.707 1.005 1.005 0 0 0-.707-1.227l-3.133-.836 3.105-1.793a2.002 2.002 0 1 0-2-3.468l-3.105 1.796.84-3.132a1.006 1.006 0 0 0-1.016-1.274 1.005 1.005 0 0 0-.918.754l-1.36 5.063L27 21.535v-11.12l3.707-3.708a.992.992 0 0 0 .273-.973.99.99 0 0 0-.714-.714.992.992 0 0 0-.973.273L27 7.586V4a2 2 0 0 0-2.031-2.027zm5.547 12.488a.994.994 0 0 0-.88.512l-1.902 3.293a1 1 0 0 0 .368 1.367c.476.273 1.09.11 1.367-.367l1.894-3.293a.986.986 0 0 0 .016-1 1.002 1.002 0 0 0-.863-.512zm-11.063.004a.992.992 0 0 0-.816 1.508l1.894 3.293c.278.476.89.64 1.367.367a1 1 0 0 0 .368-1.367l-1.903-3.293a.993.993 0 0 0-.91-.508zM14 24a1.006 1.006 0 0 0-.879.496 1.01 1.01 0 0 0 0 1.008c.184.312.52.5.879.496h3.8c.36.004.696-.184.88-.496a1.01 1.01 0 0 0 0-1.008c-.184-.312-.52-.5-.88-.496zm18.2 0a1.006 1.006 0 0 0-.88.496 1.01 1.01 0 0 0 0 1.008c.184.312.52.5.88.496H36c.36.004.695-.184.879-.496a1.01 1.01 0 0 0 0-1.008c-.184-.312-.52-.5-.879-.496zm-10.782 6.223a1.003 1.003 0 0 0-.887.511l-1.894 3.293a.995.995 0 0 0 .855 1.532.99.99 0 0 0 .871-.532l1.903-3.293a1 1 0 0 0-.848-1.512zm7.137 0a1.002 1.002 0 0 0-.82 1.512l1.902 3.292a1.003 1.003 0 0 0 1.758.02.995.995 0 0 0-.032-1.02l-1.894-3.293a1.003 1.003 0 0 0-.914-.511z"/></svg>