<svg xmlns="http://www.w3.org/2000/svg" viewBox="0 0 32 32"><path d="M16.313 2.219a3.81 3.81 0 0 0-1.594.5l-.031.031h-.032l-.094-.031-.03-.031H14.5c-2.8-1.2-6.07 1.359-5.375 4.468v.094l-.063.063v.03c-.3.34-.527.708-.687 1.095-2.129.324-3.766 2.417-3.25 4.718v.094l-.063.063v.03c-1.707 1.923-1.039 4.852.97 6.032.09 1.723.773 3.004 1.75 3.813 1.046.87 2.284 1.277 3.405 1.656 1.122.379 2.106.75 2.75 1.312.485.422.852.926 1 1.813.051.297.063.64.063 1.031h2c0-1.133.453-1.938 1.281-2.781.828-.844 2.043-1.621 3.313-2.532 1.27-.91 2.613-1.93 3.656-3.312 1.016-1.344 1.71-3.066 1.75-5.188 1.266-1.515 1.316-3.96-.344-5.437l-.062-.063v-.062c.297-2.371-1.614-4.273-3.75-4.406a3.77 3.77 0 0 0-2.125.5l-.032.031h-.093c-.196-1.957-1.88-3.418-3.75-3.531a3.446 3.446 0 0 0-.532 0zm.5 2a1.852 1.852 0 0 1 1.656 1.156c-1.254.148-2.375.914-3 2A1.545 1.545 0 0 0 15 7.312a1.5 1.5 0 0 0 0 3h.063l-.126.188.032.031c-.762.961-.969 2.137-.75 3.219a1.972 1.972 0 0 1-.75-.75l-.313-.5-.25-.406L12.47 12l-.594-.094h-.094c-1.629-.136-2.312-2.02-1.219-3.25l.72-.719-.095-.5-.093-.593V6.78l-.031-.031c-.41-1.645 1.289-2.805 2.656-2.219l.531.25.5.25.938-.562c.007-.004.023.004.03 0 .36-.2.743-.266 1.095-.25zm5.968 2.968c1.07.04 1.965.961 1.813 2.188h.031l-.125.563-.094.562.938.75.031.031c1.18 1.094.684 2.95-.938 3.219l-.593.125-.594.094-.375 1.125-.031.031c-.317.758-.922 1.094-1.594 1.125-.684.031-1.367-.277-1.781-1l-.313-.5-.25-.406L18.47 15l-.594-.094h-.094c-1.629-.136-2.312-2.02-1.218-3.25l.062-.062.031-.094.313-.5.187-.313-.062-.343L17 9.75l-.031-.031v-.031c-.348-1.66 1.18-2.848 2.687-2.188.012.004.02-.004.032 0l1.062.531.938-.562c.007-.004.023.004.03 0a2.056 2.056 0 0 1 1.063-.282zM21 10.313a1.5 1.5 0 1 0 0 3.001 1.5 1.5 0 0 0 0-3zm-12.844.25c.203 1.235.942 2.364 2.094 2.938-.453.258-.75.754-.75 1.313a1.5 1.5 0 0 0 3 .093c.82.766 1.89 1.164 2.969 1.063.129.113.261.219.406.312-.207.606-.668 1.051-1.438 1.219l-.593.125-.594.094-.375 1.125-.031.031c-.317.758-.922 1.094-1.594 1.125-.684.031-1.367-.277-1.781-1l-.313-.5-.25-.406L8.47 18l-.594-.094h-.094c-1.629-.136-2.312-2.02-1.218-3.25l.718-.719-.093-.5-.094-.593v-.063l-.032-.031c-.257-1.04.27-1.863 1.094-2.188zm16.719 5.876c-.21 1.074-.66 1.937-1.25 2.718-.832 1.102-1.988 2.028-3.219 2.907-.945.675-1.933 1.343-2.812 2.093.277-.93.62-1.656.968-2.281.399-.71.829-1.324 1.188-2 .168-.316.32-.664.438-1.031.394.11.785.176 1.187.156a3.79 3.79 0 0 0 3.344-2.438l.031-.03V16.5l.031-.031c.032-.008.063-.024.094-.032zM17.719 17h.031c.176.305.39.574.625.813-.043.382-.156.714-.375 1.125-.277.519-.734 1.125-1.188 1.937a12.74 12.74 0 0 0-.687 1.438c-.285-1.235-.563-2.31-.781-3A4.015 4.015 0 0 0 17.719 17zm-9.407 3.719c.82.879 1.954 1.336 3.063 1.281.848-.04 1.684-.402 2.344-1 .242.871.511 1.848.75 3.094-.86-.535-1.797-.864-2.656-1.157-1.13-.382-2.141-.746-2.782-1.28a2.532 2.532 0 0 1-.719-.938z"/></svg>