<svg xmlns="http://www.w3.org/2000/svg" viewBox="0 0 24 24"><path d="M12 2v8h-1V3H9v11.594s-2.867-1.906-3.375-1.906C4.309 12.688 4 14 4 14l5.063 6.688c.507.8 1.519 1.312 2.53 1.312h4.438C18.258 22 20 20.2 20 18V5h-2v5h-1V3h-1.969L15 10h-1V2zm2.656 10c.7-.004 1.403.395 1.688 1.156l.093.375.313.031c1.367.36 1.707 2.2.656 2.97l-.25.25.032.374c.058 1.414-1.543 2.371-2.75 1.532l-.313-.188-.313.188c-1.402.539-2.761-.711-2.343-2.125l.062-.375-.187-.22c-.856-1.097-.059-2.784 1.344-2.843l.374-.031.157-.281c.207-.305.457-.56.75-.688.219-.098.453-.125.687-.125zm-.156 2a1.5 1.5 0 1 0 0 3 1.5 1.5 0 0 0 0-3z"/></svg>