<svg xmlns="http://www.w3.org/2000/svg" viewBox="0 0 80 80"><path d="M15 9c-1.645 0-3 1.355-3 3v56c0 1.645 1.355 3 3 3h48c1.645 0 3-1.355 3-3v-2h1c1.645 0 3-1.355 3-3v-6c0-.77-.305-1.465-.785-2 .48-.535.785-1.23.785-2v-6c0-.77-.305-1.465-.785-2 .48-.535.785-1.23.785-2v-6c0-.77-.305-1.465-.785-2 .48-.535.785-1.23.785-2v-6c0-.77-.305-1.465-.785-2 .48-.535.785-1.23.785-2v-6c0-1.645-1.355-3-3-3h-1v-2c0-1.645-1.355-3-3-3zm0 2h4v58h-4c-.566 0-1-.434-1-1V12c0-.566.434-1 1-1zm6 0h42c.566 0 1 .434 1 1v56c0 .566-.434 1-1 1H21v-2c.55 0 1-.45 1-1s-.45-1-1-1V15c.55 0 1-.45 1-1s-.45-1-1-1zm4 2c-.55 0-1 .45-1 1s.45 1 1 1 1-.45 1-1-.45-1-1-1zm4 0c-.55 0-1 .45-1 1s.45 1 1 1 1-.45 1-1-.45-1-1-1zm4 0c-.55 0-1 .45-1 1s.45 1 1 1 1-.45 1-1-.45-1-1-1zm4 0c-.55 0-1 .45-1 1s.45 1 1 1 1-.45 1-1-.45-1-1-1zm4 0c-.55 0-1 .45-1 1s.45 1 1 1 1-.45 1-1-.45-1-1-1zm4 0c-.55 0-1 .45-1 1s.45 1 1 1 1-.45 1-1-.45-1-1-1zm4 0c-.55 0-1 .45-1 1s.45 1 1 1 1-.45 1-1-.45-1-1-1zm4 0c-.55 0-1 .45-1 1s.45 1 1 1 1-.45 1-1-.45-1-1-1zm4 0c-.55 0-1 .45-1 1s.45 1 1 1 1-.45 1-1-.45-1-1-1zm4 0c-.55 0-1 .45-1 1s.45 1 1 1 1-.45 1-1-.45-1-1-1zm5 3h1c.566 0 1 .434 1 1v6c0 .566-.434 1-1 1h-1zm-5 1c-.55 0-1 .45-1 1s.45 1 1 1 1-.45 1-1-.45-1-1-1zm0 4c-.55 0-1 .45-1 1s.45 1 1 1 1-.45 1-1-.45-1-1-1zm0 4c-.55 0-1 .45-1 1s.45 1 1 1 1-.45 1-1-.45-1-1-1zm5 1h1c.566 0 1 .434 1 1v6c0 .566-.434 1-1 1h-1zm-25.547 2.379c-7.656 0-12.906 5.3-12.906 13.031 0 7.988 5.11 13.047 13.172 13.047 1.968 0 3.86-.281 5.265-.766v-1.968c-.984.453-3.093.75-5.234.75-6.691 0-11-4.293-11-10.97 0-6.5 4.39-11.155 10.5-11.155 6.25 0 10.531 3.859 10.531 9.5 0 3.847-1.265 6.328-3.234 6.328-1.125 0-1.766-.637-1.766-1.735V35.27h-2.36v1.906h-.25c-.608-1.356-2.015-2.203-3.655-2.203-3.203 0-5.438 2.656-5.438 6.453 0 3.972 2.188 6.64 5.438 6.64 1.828 0 3.234-.886 3.906-2.484h.25c.187 1.531 1.61 2.625 3.437 2.625 3.594 0 5.875-3.23 5.875-8.328 0-6.777-5.14-11.5-12.53-11.5zM61 29c-.55 0-1 .45-1 1s.45 1 1 1 1-.45 1-1-.45-1-1-1zm0 4c-.55 0-1 .45-1 1s.45 1 1 1 1-.45 1-1-.45-1-1-1zm5 3h1c.566 0 1 .434 1 1v6c0 .566-.434 1-1 1h-1zm-5 1c-.55 0-1 .45-1 1s.45 1 1 1 1-.45 1-1-.45-1-1-1zm-21.094.129c2.125 0 3.485 1.687 3.485 4.36 0 2.675-1.375 4.374-3.516 4.374-2.047 0-3.297-1.652-3.297-4.375 0-2.73 1.234-4.36 3.328-4.36zM61 41c-.55 0-1 .45-1 1s.45 1 1 1 1-.45 1-1-.45-1-1-1zm0 4c-.55 0-1 .45-1 1s.45 1 1 1 1-.45 1-1-.45-1-1-1zm5 1h1c.566 0 1 .434 1 1v6c0 .566-.434 1-1 1h-1zm-5 3c-.55 0-1 .45-1 1s.45 1 1 1 1-.45 1-1-.45-1-1-1zm0 4c-.55 0-1 .45-1 1s.45 1 1 1 1-.45 1-1-.45-1-1-1zm5 3h1c.566 0 1 .434 1 1v6c0 .566-.434 1-1 1h-1zm-5 1c-.55 0-1 .45-1 1s.45 1 1 1 1-.45 1-1-.45-1-1-1zm0 4c-.55 0-1 .45-1 1s.45 1 1 1 1-.45 1-1-.45-1-1-1zm-36 4c-.55 0-1 .45-1 1s.45 1 1 1 1-.45 1-1-.45-1-1-1zm4 0c-.55 0-1 .45-1 1s.45 1 1 1 1-.45 1-1-.45-1-1-1zm4 0c-.55 0-1 .45-1 1s.45 1 1 1 1-.45 1-1-.45-1-1-1zm4 0c-.55 0-1 .45-1 1s.45 1 1 1 1-.45 1-1-.45-1-1-1zm4 0c-.55 0-1 .45-1 1s.45 1 1 1 1-.45 1-1-.45-1-1-1zm4 0c-.55 0-1 .45-1 1s.45 1 1 1 1-.45 1-1-.45-1-1-1zm4 0c-.55 0-1 .45-1 1s.45 1 1 1 1-.45 1-1-.45-1-1-1zm4 0c-.55 0-1 .45-1 1s.45 1 1 1 1-.45 1-1-.45-1-1-1zm4 0c-.55 0-1 .45-1 1s.45 1 1 1 1-.45 1-1-.45-1-1-1zm4 0c-.55 0-1 .45-1 1s.45 1 1 1 1-.45 1-1-.45-1-1-1z"/></svg>