<svg xmlns="http://www.w3.org/2000/svg" viewBox="0 0 48 48"><path d="M32 34H16l-1-16h18z" fill="#3e2723"/><path d="M29 33l-5 1-5-1S8 34.984 8 46h32c0-10.977-11-13-11-13" fill="#3f51b5"/><path d="M24 39l-5-6v-6h10v6z" fill="#ff9800"/><path d="M30 33.254V42H18v-8.746c-.945.277-2.445.82-4 1.789V46h20V35.059a16.635 16.635 0 0 0-4-1.805z" fill="#4caf50"/><path d="M15 44a1 1 0 1 1 1 1c-.555 0-1-.445-1-1zm17 1a1 1 0 1 0 0-2c-.555 0-1 .445-1 1 0 .555.445 1 1 1z" fill="#1b5e20"/><path d="M41 18.5c0-3.04-7.61-5.5-17-5.5S7 15.46 7 18.5 14.61 24 24 24s17-2.46 17-5.5z" fill="#ce8b05"/><path d="M28 3c-2 0-2 2-4 2s-2-2-4-2-6 6.027-6 11v.059C16.809 13.395 20.258 13 24 13s7.191.395 10 1.059V14c0-4.973-4-11-6-11z" fill="#fbc02d"/><path d="M24 15c-4.715 0-7.61.906-9 1.5V23c0 4.973 4.027 9 9 9s9-4.027 9-9v-6.5c-1.39-.594-4.285-1.5-9-1.5z" fill="#ffb74d"/><path d="M24 15c-7 0-10 2-10 2l-3.746 4.73C9.98 24.406 10 26.766 10 28l6 6V21l10.05-5.934A33.53 33.53 0 0 0 24 15zm13.746 6.73L34 17s-1.55-1.023-4.996-1.605L32 19v15l6-6c0-1.234.02-3.594-.254-6.27z" fill="#795548"/><path d="M14.422 11c-.266 1.004-.422 2.023-.422 3 0 0 4-1 10-1s10 1 10 1c0-.977-.16-1.996-.422-3 0 0-5.578-1-9.578-1-4 0-9.578 1-9.578 1z" fill="#ed9f21"/><path d="M27 23c0-.55.45-1 1-1s1 .45 1 1-.45 1-1 1-1-.45-1-1m-8 0c0 .55.45 1 1 1s1-.45 1-1-.45-1-1-1-1 .45-1 1" fill="#784719"/></svg>