<svg xmlns="http://www.w3.org/2000/svg" viewBox="0 0 16 16"><path d="M6 1c-.512 0-.828.348-1.086.71-.254.36-.473.806-.664 1.278a12.007 12.007 0 0 0-.648 2.23c-.82.15-1.497.329-1.86.509-.21.105-.363.207-.465.293-.101.085-.183.19-.183.19a.503.503 0 0 0-.078.415.5.5 0 0 0 .265.324s.235.098.598.223C1.113 9.176 1 11.52 1 13.5c0 .277.223.5.5.5h4.352c.656.637 1.41 1 2.148 1 .707 0 1.52-.328 2.23-1h4.27c.277 0 .5-.223.5-.5 0-1.98-.113-4.324-.879-6.328.363-.125.598-.223.598-.223a.49.49 0 0 0 .254-.289.49.49 0 0 0-.024-.379s-.078-.133-.172-.23a1.873 1.873 0 0 0-.441-.317c-.344-.187-1.004-.367-1.82-.515a11.455 11.455 0 0 0-.715-2.242c-.207-.473-.442-.922-.707-1.278C10.824 1.344 10.512 1 10 1c-.55 0-.969.281-1.344.508-.187.113-.36.219-.492.289-.129.066-.23.078-.164.078s-.04-.012-.172-.078c-.133-.07-.308-.176-.496-.29C6.953 1.286 6.547 1 6 1zm0 1c.082 0 .46.152.82.367.184.106.364.219.547.313.184.097.356.195.633.195s.45-.098.633-.195c.18-.094.36-.207.539-.313C9.523 2.157 9.895 2 10 2c-.059 0 .098.043.293.297.191.258.402.652.594 1.082.379.86.683 1.902.742 2.32.035.219.207.39.426.418.597.086.77.192 1.074.297-.168.047-.094.047-.316.102C11.784 6.754 10.194 7 8 7s-3.785-.246-4.813-.484c-.19-.047-.12-.047-.273-.086.332-.11.54-.223 1.156-.313a.492.492 0 0 0 .422-.422c.067-.437.336-1.472.684-2.328.176-.43.37-.824.55-1.078C5.91 2.04 6.056 2 6 2zM2.844 7.453c.047.012.066.02.117.031C4.066 7.746 5.727 8 8 8c2.273 0 3.934-.254 5.04-.516.05-.011.07-.02.116-.03.645 1.651.793 3.694.817 5.546h-2.95c.579-.953.977-2.258.977-4h-1c0 3.887-2.027 5-3 5-.512 0-1.281-.383-1.898-1.219C5.48 11.945 5 10.676 5 9H4c0 1.66.438 2.996 1.066 4H2.027c.024-1.852.172-3.895.817-5.547zM6.5 9a.499.499 0 1 0 0 1 .499.499 0 1 0 0-1zm3 0a.499.499 0 1 0 0 1 .499.499 0 1 0 0-1z"/></svg>