<svg xmlns="http://www.w3.org/2000/svg" viewBox="0 0 50 50"><path d="M26.906-.031c-.238.027-.46.136-.625.312l-.5.5-1.343-.687A1.004 1.004 0 0 0 23.28.28l-.5.5-1.343-.687A.998.998 0 0 0 20 1v12c0 1.492-.953 2.672-2.719 3.938-1.765 1.265-4.246 2.48-6.781 3.906-2.535 1.426-5.125 3.062-7.125 5.312C1.375 28.406 0 31.31 0 35c0 7.145 5.855 13 13 13 1.633 0 3.2-.352 4.594-.875.742.676 1.597 1.23 2.5 1.688.297.148.593.285.906.406.313.125.64.25.969.343l.187.063c.211.059.41.113.625.156.184.04.375.063.563.094.176.027.351.043.531.063.277.03.559.023.844.03.093.005.187.032.281.032h.125c.05 0 .105-.031.156-.031.282-.008.57 0 .844-.032a10.982 10.982 0 0 0 6.281-2.812c1.465.582 3 .875 4.594.875 7.145 0 13-5.855 13-13 0-3.715-1.379-6.676-3.375-9s-4.586-4.055-7.125-5.531c-2.54-1.477-5.035-2.711-6.813-3.938C30.91 15.305 30 14.211 30 13V2c0-.55-.45-1-1-1h-.563L27.72.281a1.004 1.004 0 0 0-.813-.312zm-2.687 2.25l1.343.687c.387.192.852.117 1.157-.187L27 2.438l.281.28A.99.99 0 0 0 28 3v10c0 2.191 1.59 3.824 3.563 5.188 1.972 1.363 4.476 2.566 6.937 4 2.46 1.433 4.871 3.082 6.625 5.125C46.879 29.355 48 31.765 48 35c0 6.055-4.945 11-11 11-1.129 0-2.184-.16-3.188-.469C35.176 43.7 36 41.445 36 39c0-10.207-6.281-16.688-6.281-16.688a1 1 0 0 0-.907-.312.995.995 0 0 0-.773.684.992.992 0 0 0 .242 1.003S34 29.61 34 39a8.994 8.994 0 0 1-3.469 7.094c-.144.11-.289.21-.437.312-.024.016-.04.047-.063.063a9.337 9.337 0 0 1-.687.406c-.02.012-.043.02-.063.031a9.165 9.165 0 0 1-2.218.844c-.125.031-.247.07-.375.094a8.586 8.586 0 0 1-1.532.156h-.25c-.273-.004-.543-.004-.812-.031h-.032c-.3-.032-.585-.098-.875-.157-.011-.003-.019.004-.03 0C19.077 46.958 16 43.325 16 39c0-5.047 1.906-9.594 1.906-9.594A1.002 1.002 0 0 0 16.781 28a1 1 0 0 0-.687.594S14 33.449 14 39c0 2.445.824 4.7 2.188 6.531-1 .293-2.11.469-3.188.469-6.055 0-11-4.945-11-11 0-3.207 1.125-5.535 2.875-7.5 1.75-1.965 4.16-3.52 6.625-4.906 2.465-1.387 4.984-2.606 6.969-4.032C20.453 17.137 22 15.36 22 13V2.625l.563.281c.386.192.851.117 1.156-.187z"/></svg>