<svg xmlns="http://www.w3.org/2000/svg" viewBox="0 0 32 32"><path d="M10 3c0 6.043 6 6 6 6-1.516 0-2.82.871-3.5 2.125C11.82 9.871 10.516 9 9 9c-2.2 0-4 1.8-4 4s1.8 4 4 4c.2 0 .402-.035.594-.063A3.925 3.925 0 0 0 9 19c0 2.059 1.586 3.73 3.594 3.938A3.925 3.925 0 0 0 12 25c0 2.2 1.8 4 4 4s4-1.8 4-4c0-.758-.223-1.457-.594-2.063C21.414 22.73 23 21.06 23 19c0-.742-.207-1.434-.563-2.031.184.027.375.031.563.031 2.2 0 4-1.8 4-4s-1.8-4-4-4c-1.516 0-2.82.871-3.5 2.125C18.86 9.941 17.66 9.09 16.25 9 17.398 8.926 22 8.285 22 3c-5.25 0-5.918 4.602-6 5.75C15.918 7.602 15.25 3 10 3zm-1 8c1.117 0 2 .883 2 2s-.883 2-2 2-2-.883-2-2 .883-2 2-2zm7 0c1.117 0 2 .883 2 2s-.883 2-2 2-2-.883-2-2 .883-2 2-2zm7 0c1.117 0 2 .883 2 2s-.883 2-2 2-2-.883-2-2 .883-2 2-2zm-10.5 3.875c.031.055.063.102.094.156-.063.008-.125.024-.188.031.035-.058.059-.124.094-.187zm7 0c.035.066.086.121.125.188a3.683 3.683 0 0 0-.219-.032c.032-.054.063-.101.094-.156zM13 17c1.117 0 2 .883 2 2s-.883 2-2 2-2-.883-2-2 .883-2 2-2zm6 0c1.117 0 2 .883 2 2s-.883 2-2 2-2-.883-2-2 .883-2 2-2zm-3 6c1.117 0 2 .883 2 2s-.883 2-2 2-2-.883-2-2 .883-2 2-2z"/></svg>