<svg xmlns="http://www.w3.org/2000/svg" viewBox="0 0 48 48"><path d="M23 16h-4a8 8 0 0 0-8 8v18a1 1 0 0 0 1 1h18c.555 0 1-.445 1-1V24a8 8 0 0 0-8-8z" fill="#cddc39"/><path d="M18 5h6v8h-6z" fill="#9fa8da"/><path d="M20 13h2v2h-2zm2-4a2 2 0 0 0 2 2V7a2 2 0 0 0-2 2z" fill="#5c6bc0"/><path d="M27 16c0 .555-.445 1-1 1H16a1 1 0 1 1 0-2h10c.555 0 1 .445 1 1z" fill="#7986cb"/><path d="M23 9a1 1 0 0 0 1 1V8a1 1 0 0 0-1 1z" fill="#1a237e"/><path d="M27 31c0 3.313-2.688 6-6 6-3.313 0-6-2.688-6-6 0-3.313 2.688-6 6-6 3.313 0 6 2.688 6 6z" fill="#f0f4c3"/><path d="M21 38c-3.86 0-7-3.14-7-7s3.14-7 7-7 7 3.14 7 7-3.14 7-7 7zm0-12c-2.758 0-5 2.242-5 5s2.242 5 5 5 5-2.242 5-5-2.242-5-5-5z" fill="#1b5e20"/><path d="M25.875 26.125l-9.75 9.75" fill="none" stroke-width="2" stroke="#1b5e20"/><path d="M30 9.5a1.5 1.5 0 1 1-3 0 1.5 1.5 0 0 1 3 0zm4-2a1.5 1.5 0 1 1-3 0 1.5 1.5 0 0 1 3 0zm0 4a1.5 1.5 0 1 1-3 0 1.5 1.5 0 0 1 3 0zm4 2a1.5 1.5 0 1 1-3 0 1.5 1.5 0 0 1 3 0zm0-8a1.5 1.5 0 1 1-3 0 1.5 1.5 0 0 1 3 0zm0 4a1.5 1.5 0 1 1-3 0 1.5 1.5 0 0 1 3 0z" fill="#558b2f"/></svg>