<svg xmlns="http://www.w3.org/2000/svg" viewBox="0 0 40 40"><rect x="19" y="5.5" width="2" height="4" fill="#8b75a1"/><polygon points="9.5,17.5 9.5,11.288 16.01,7.5 23.99,7.5 30.5,11.288 30.5,17.5" fill="#dcd5f2"/><path d="M23.855 8L30 11.575V17H10v-5.425L16.145 8h7.71m.27-1h-8.25L9 11v7h22v-7l-6.875-4z" fill="#8b75a1"/><rect x="9.5" y="11.5" width="21" height="27" fill="#f78f8f"/><path d="M30 12v26H10V12h20m1-1H9v28h22V11z" fill="#c74343"/><path d="M17.5 5.5c-.551 0-1-.449-1-1v-2c0-.551.449-1 1-1h5c.551 0 1 .449 1 1v2c0 .551-.449 1-1 1h-5z" fill="#f78f8f"/><path d="M22.5 2a.5.5 0 0 1 .5.5v2a.5.5 0 0 1-.5.5h-5a.5.5 0 0 1-.5-.5v-2a.5.5 0 0 1 .5-.5h5m0-1h-5A1.5 1.5 0 0 0 16 2.5v2A1.5 1.5 0 0 0 17.5 6h5A1.5 1.5 0 0 0 24 4.5v-2A1.5 1.5 0 0 0 22.5 1z" fill="#c74343"/><circle cx="20" cy="24.429" r="6.107" fill="none" stroke="#fff" stroke-miterlimit="10"/><line x1="15.929" y1="28.5" x2="24.071" y2="20.357" fill="none" stroke="#fff" stroke-miterlimit="10"/><circle cx="25.5" cy="2.5" r=".5" fill="#c74343"/><circle cx="27.5" cy="2.5" r=".5" fill="#c74343"/><circle cx="29.5" cy="4.5" r=".5" fill="#c74343"/><circle cx="31.5" cy="6.5" r=".5" fill="#c74343"/><circle cx="33.5" cy="6.5" r=".5" fill="#c74343"/><circle cx="33.5" cy="8.5" r=".5" fill="#c74343"/><circle cx="29.5" cy="2.5" r=".5" fill="#c74343"/><circle cx="31.5" cy="2.5" r=".5" fill="#c74343"/><circle cx="33.5" cy="2.5" r=".5" fill="#c74343"/><circle cx="33.5" cy="4.5" r=".5" fill="#c74343"/><circle cx="35.5" cy="6.5" r=".5" fill="#c74343"/><circle cx="35.5" cy="8.5" r=".5" fill="#c74343"/><circle cx="35.5" cy="10.5" r=".5" fill="#c74343"/><circle cx="35.5" cy="2.5" r=".5" fill="#c74343"/><circle cx="37.5" cy="2.5" r=".5" fill="#c74343"/><circle cx="35.5" cy="4.5" r=".5" fill="#c74343"/><circle cx="37.5" cy="8.5" r=".5" fill="#c74343"/><circle cx="37.5" cy="10.5" r=".5" fill="#c74343"/><circle cx="37.5" cy="12.5" r=".5" fill="#c74343"/><circle cx="37.5" cy="4.5" r=".5" fill="#c74343"/><circle cx="37.5" cy="6.5" r=".5" fill="#c74343"/><circle cx="31.5" cy="4.5" r=".5" fill="#c74343"/></svg>