<svg xmlns="http://www.w3.org/2000/svg" viewBox="0 0 48 48"><path d="M36.023 36.02c8.2-8.2 9.465-20.23 2.829-26.868C32.21 2.512 20.18 3.777 11.98 11.98c-8.199 8.2-9.468 20.23-2.828 26.868 6.637 6.64 18.668 5.375 26.871-2.828z" fill="#795548"/><path d="M27.992 6.895c3.778 0 7.043 1.27 9.442 3.671 5.851 5.848 4.582 16.633-2.829 24.043-4.128 4.13-9.449 6.496-14.593 6.496-3.782 0-7.047-1.27-9.45-3.667C7.79 34.66 6.52 30.672 6.989 26.21c.489-4.621 2.762-9.176 6.407-12.816 4.128-4.13 9.449-6.5 14.597-6.5" fill="#8bc34a"/><path d="M11.844 31.941a1.995 1.995 0 0 1 .855-2.695c.992-.508 5.606-1.273 5.606-1.273s-2.79 4.328-3.774 4.832a1.995 1.995 0 0 1-2.687-.864zm3.543 1.72c.496-.993 4.566-4.009 4.566-4.009s-.5 4.832-1.004 5.817a1.997 1.997 0 0 1-2.691.87l.008.005a1.988 1.988 0 0 1-.879-2.684zm-4.742-7.688a2.004 2.004 0 0 1 2.113-1.887c1.101.055 4.883 1.527 4.883 1.527s-4.008 2.532-5.118 2.465a1.964 1.964 0 0 1-1.293-.586 1.976 1.976 0 0 1-.585-1.52zm9.472 9.672c-.07-1.102 2.602-5.278 2.602-5.278s1.324 3.942 1.386 5.04a2.005 2.005 0 0 1-1.878 2.12 2.028 2.028 0 0 1-1.536-.59 1.972 1.972 0 0 1-.574-1.292zm-7.96-15.329a1.993 1.993 0 0 1 2.671-.921c.996.476 3.274 3.492 3.274 3.492s-4.024.582-5.02.105a1.994 1.994 0 0 1-.926-2.676zm13.046 14.77c-.488-.996.106-5.262.106-5.262s3.011 2.512 3.492 3.504c.472.996.07 2.192-.926 2.68a2.022 2.022 0 0 1-2.293-.383 2.097 2.097 0 0 1-.379-.54zm-9.71-19.438a2 2 0 0 1 2.827 0c.778.778 1.594 4.422 1.594 4.422s-3.637-.808-4.422-1.593a2.003 2.003 0 0 1 0-2.829zm12.515 12.36s3.777 1.008 4.562 1.793a2 2 0 0 1-.02 2.847s-.01.008-.015.016a2.003 2.003 0 0 1-2.828 0c-.777-.781-1.7-4.656-1.7-4.656zm-8.781-13.024a2.002 2.002 0 0 1 .925-2.68 1.998 1.998 0 0 1 2.676.919c.48.988-.176 4.968-.176 4.968s-3.074-2.324-3.425-3.207zm15.75 10.301a1.992 1.992 0 0 1 .925 2.668 2.017 2.017 0 0 1-2.675.934c-1.051-.512-3.375-3.645-3.375-3.645s4.125-.441 5.125.043zM23.922 12.891a1.998 1.998 0 0 1 1.867-2.121l.008.007a1.987 1.987 0 0 1 2.113 1.875c.063 1.094-2.32 4.989-2.32 4.989s-1.64-4.243-1.668-4.75zm6.437 9.558s4.055-2.316 5.16-2.262a2.006 2.006 0 0 1 1.88 2.106c-.055 1.105-1.051 1.809-2.098 1.89-1.047.083-4.942-1.734-4.942-1.734zm-1.28-9.637a1.998 1.998 0 0 1 3.562 1.81c-.493.991-4.618 3.5-4.618 3.5s.653-4.509 1.055-5.31zm4.425 2.66a2 2 0 1 1 1.832 3.555c-.793.41-5.793.762-5.793.762s2.973-3.809 3.96-4.316z" fill="#689f38"/><path d="M30.297 30.332c.426-.426.426-1.059.035-1.45-.23-.222-1.219-.632-2.426-1.027.367 1.23.758 2.243.977 2.48.39.388 1.023.388 1.414-.003zm-8.68 3.336a1 1 0 0 0 1.71-.77c-.022-.406-.323-1.52-.675-2.683-.722 1.27-1.293 2.441-1.316 2.828a.96.96 0 0 0 .281.625zm5.09-.621c.488-.238.695-.844.453-1.348-.02-.043-.176-.324-.945-1.094-.274-.273-.57-.554-.86-.82-.109 1.356-.113 2.504.012 2.813.047.093.113.191.188.265.3.297.761.371 1.152.184zm5.945-7.731c-.3-.128-1.418-.16-2.742-.093.367.441.777.914 1.16 1.293.473.472.672.582.707.601a1.01 1.01 0 0 0 1.336-.472.987.987 0 0 0-.46-1.329zM20.145 29.43c-1.2.968-2.207 1.87-2.391 2.203a.978.978 0 0 0 .18 1.156.96.96 0 0 0 .25.184v-.004a.988.988 0 0 0 .765.062.99.99 0 0 0 .582-.496c.168-.332.407-1.625.614-3.105zm12.203-9.965c.476-.246.668-.856.414-1.352a.995.995 0 0 0-.176-.234 1 1 0 0 0-1.164-.188c-.324.172-1.207 1.114-2.16 2.23 1.476-.144 2.761-.32 3.086-.456zm.422 3.82c.558-.043 1.14-.379 1.171-.941A1.003 1.003 0 0 0 33 21.285c-.367.016-1.54.524-2.813 1.168 1.172.48 2.239.844 2.583.832zm-17.48 6.938c.3.304.776.379 1.16.18.323-.2 1.171-1.27 2.066-2.532-1.414.281-2.637.574-2.985.754a.973.973 0 0 0-.488.574 1.01 1.01 0 0 0 .066.774.91.91 0 0 0 .18.25zm2.468-10.933c.226.214 1.176.577 2.324.91-.336-1.15-.7-2.102-.91-2.329a1.003 1.003 0 0 0-1.414.004 1 1 0 0 0 0 1.414zm-2.129 3.745c.277.11 1.36.102 2.644-.008-.343-.414-.73-.851-1.09-1.207-.484-.484-.675-.586-.695-.593a.992.992 0 0 0-1.343.453 1.01 1.01 0 0 0 .187 1.148 1.2 1.2 0 0 0 .297.207zm12.383-4.953c1.187-.809 2.199-1.582 2.394-1.906a.988.988 0 0 0-.445-1.336.996.996 0 0 0-1.34.437c-.137.286-.375 1.453-.61 2.805zm-7.133-1.57l.016.035.011.031c.004.004.098.176.512.59.36.355.809.75 1.23 1.105.13-1.27.149-2.351.028-2.652a.924.924 0 0 0-.188-.262.982.982 0 0 0-1.136-.191 1.004 1.004 0 0 0-.473 1.344zm4.652 1.168c.63-1.172 1.121-2.246 1.137-2.614a.986.986 0 0 0-1.055-.918l-.129.008a1 1 0 0 0-.812 1.016c.058.285.422 1.316.86 2.508zm-10.285 7.168a1.01 1.01 0 0 0-1.062.945.995.995 0 0 0 .296.758.97.97 0 0 0 .641.297c.371-.02 1.512-.567 2.742-1.254-1.125-.39-2.215-.727-2.617-.746z" fill="#5d4037"/><path d="M28.008 28.008c2.734-2.735 3.156-6.746.945-8.957-2.215-2.215-6.223-1.793-8.957.941-2.734 2.735-3.156 6.746-.945 8.957 2.215 2.215 6.226 1.793 8.957-.941z" fill="#e6ee9c"/></svg>