<svg xmlns="http://www.w3.org/2000/svg" viewBox="0 0 50 50"><path d="M46.438 2.031l-4.25.281a.96.96 0 0 0-.657.313l-.875.938-6.531 12.406.625-.375zM46.093 5.5l-6.938 7.875 7.563-4.906zm-9.688 1.813l-3.531.656a.973.973 0 0 0-.688.468l-1.218 2.126-3.594 11.687 1.375-.344zm6.657 6.062l-10.75 6.063-.97 1.78 7.97-2 3.406-2.718c.242-.195.414-.5.406-.813zm-15.282.719l-2.812.5a.983.983 0 0 0-.719.5l-4.875 9.156 5.719-1.438zm9.125 7.812L26.594 24.5c-.043.023-.094.023-.157.031l-9.53 2.407a6126.07 6126.07 0 0 0-9.595 9.5c-1.156 1.148-1.57 2.8-1.218 4.343a7.9 7.9 0 0 0-2.625 1.938 1.007 1.007 0 0 0 1.5 1.343 5.96 5.96 0 0 1 2-1.468c.054.074.097.148.156.218-.555.485-.93 1.047-1.25 1.47-.484.64-.82 1.07-1.813 1.374a1 1 0 1 0 .563 1.907c1.457-.45 2.297-1.368 2.844-2.094.492-.649.797-1.082 1.312-1.375.145.066.285.133.438.187-.04.13-.028.133-.094.313-.176.468-.457.992-.719 1.218a.998.998 0 0 0 .297 1.762c.36.11.754.008 1.016-.261.703-.614 1.047-1.403 1.281-2.032.11-.289.164-.547.219-.75a4.81 4.81 0 0 0 3.25-1.687 4604.226 4604.226 0 0 1 9.906-11.469L35.344 25.5a.949.949 0 0 0 .468-.531zM14.656 32L14 36l4.438-.781-5.5 6.343a2.787 2.787 0 0 1-2.063 1c-.79.016-1.508-.269-2.031-.812-1.074-1.11-1.137-2.902-.125-3.906L14.656 32z"/></svg>