<svg xmlns="http://www.w3.org/2000/svg" viewBox="0 0 50 50"><path d="M25 2c-1.246 0-2.059.8-2.563 1.281C21.934 3.761 21.72 4 21 4c-1.766 0-2.906.895-3.594 1.688A3.175 3.175 0 0 0 15.438 5c-1.024 0-1.942.316-2.594.844-.653.527-1.078 1.23-1.406 1.906-.657 1.352-1.032 2.754-1.563 3.469-.172.23-.672.777-1.25 1.437s-1.234 1.469-1.75 2.469c-1.031 2.004-1.402 4.82.469 7.875.629 1.027.441 2.176.625 3.875.183 1.7.949 3.77 3.5 5.781.789.625 1.664 2 2.531 3.438.867 1.437 1.68 2.933 3 3.812 1.64 1.09 4.324 2.422 4.875 4.688.027.133.078.261.156.375C22.02 45.625 22 46.273 22 47v1h5v-1c0-3.102.867-4.262 1.969-5.063 1.101-.8 2.652-1.113 4.031-2.03 1.32-.88 2.133-2.376 3-3.813.867-1.438 1.742-2.813 2.531-3.438 2.551-2.011 3.317-4.082 3.5-5.781.184-1.7-.004-2.848.625-3.875 1.871-3.055 1.5-5.871.469-7.875-.516-1-1.172-1.809-1.75-2.469-.578-.66-1.078-1.207-1.25-1.437-.531-.715-.906-2.117-1.563-3.469-.328-.676-.753-1.379-1.406-1.906-.652-.528-1.57-.844-2.593-.844-.754 0-1.454.277-2.032.75-.004-.004-.027.004-.031 0C31.66 4.785 30.36 4 28.562 4c-.074 0-.113.012-.25-.094-.136-.105-.332-.324-.593-.594C27.199 2.777 26.305 2 25 2zm0 2c.605 0 .832.223 1.281.688.227.23.461.511.813.78.351.27.886.532 1.468.532 1.594 0 2.372.773 2.75 1.5-.238.602-.39 1.29-.468 2.063-.028.273-.102.44-.407.718-.304.278-.804.606-1.343 1.063-1.082.91-2.207 2.535-1.938 5.219.18 1.78.032 2.593-.25 3.843-.281 1.25-.707 2.871-.937 5.813-.11 1.383-.328 2.343-.594 3.156-.559-1.129-.875-1.996-.688-4.406.157-2.02-.492-3.438-1.03-4.625-.54-1.188-.977-2.13-.813-3.782.27-2.683-.856-4.308-1.938-5.218-.539-.457-1.039-.785-1.343-1.063-.305-.277-.38-.445-.407-.719a7.502 7.502 0 0 0-.562-2.187c.004-.008-.004-.023 0-.031C18.848 6.879 19.53 6 21 6c1.36 0 2.266-.762 2.813-1.281C24.358 4.199 24.53 4 25 4zm-9.563 3c.454 0 .692.129 1 .531.31.403.606 1.145.72 2.25.085.852.573 1.524 1.062 1.969.488.445.988.773 1.406 1.125.832.703 1.434 1.316 1.219 3.469-.211 2.11.422 3.605.968 4.812.547 1.207.997 2.121.875 3.657-.285 3.628.739 4.933 1.563 6.78.023.079.055.15.094.22-.164.347-.328.675-.5 1.093-.703 1.7-1.352 4.035-1.657 8.282-1.394-1.497-3.207-2.368-4.062-2.938-.684-.457-1.547-1.758-2.406-3.188-.86-1.43-1.754-2.96-3.031-3.968-2.215-1.75-2.567-3.055-2.72-4.438-.152-1.383.098-3.031-.937-4.718-1.55-2.532-1.183-4.34-.375-5.907.403-.785.946-1.465 1.469-2.062.523-.598 1.012-1.07 1.375-1.563.91-1.23 1.23-2.715 1.75-3.781.258-.535.555-.96.875-1.219.32-.258.676-.406 1.313-.406zm19.126 0c.636 0 .992.148 1.312.406.32.258.617.684.875 1.219.52 1.066.84 2.55 1.75 3.781.363.492.852.965 1.375 1.563.523.597 1.066 1.277 1.469 2.062.808 1.567 1.176 3.375-.375 5.907-1.035 1.687-.785 3.335-.938 4.718-.152 1.383-.504 2.688-2.718 4.438-1.278 1.008-2.172 2.539-3.032 3.968-.86 1.43-1.722 2.731-2.406 3.188-.867.578-2.54.934-4.094 2.063-1.37.996-2.347 2.878-2.593 5.687h-1.125c.085-7.117.804-10.363 1.625-12.344.87-2.097 1.984-3.465 2.28-7.281.22-2.816.587-4.234.876-5.531.289-1.297.511-2.52.312-4.5-.215-2.153.387-2.766 1.219-3.469.418-.352.918-.68 1.406-1.125.489-.445.977-1.117 1.063-1.969.113-1.105.41-1.847.718-2.25.31-.402.547-.531 1-.531zm1.28 7.5c-.042.008-.085.02-.124.031a1.002 1.002 0 0 0-.782 1c0 5.856-1.14 9.18-2.562 11.813-1.422 2.633-3.207 4.605-4.438 7.562a1.003 1.003 0 0 0 .532 1.313 1.003 1.003 0 0 0 1.312-.532c1.078-2.59 2.793-4.503 4.344-7.374 1.55-2.872 2.813-6.66 2.813-12.782a1 1 0 0 0-1.094-1.031zm-21.937.469c-.043.008-.086.02-.125.031A1.002 1.002 0 0 0 13 16c0 6.27 1.121 9.387 2.531 11.875 1.41 2.488 2.95 4.234 4.125 8.438a1.004 1.004 0 1 0 1.938-.532c-1.262-4.508-3.02-6.625-4.313-8.906C15.988 24.594 15 22.043 15 16a1 1 0 0 0-1.094-1.031z"/></svg>