<svg xmlns="http://www.w3.org/2000/svg" viewBox="0 0 24 24"><path d="M10 2.094s.203 3.386.719 4.281c.258.445.535.84.875 1.125-.227.184-.45.375-.656.563-.344-1.38-1.817-2.286-2.844-2.75C6.766 4.715 2 4 2 4s2.418 4.012 3.813 4.594c1.19.496 2.476.414 3.562 1.125-.36.46-.652.914-.875 1.344.168-.028.328-.063.5-.063.582 0 1.125.16 1.625.438C12.07 9.604 15.934 6 21 6V4c-3.02 0-5.758 1.04-7.938 2.438-.242-.614-.378-1.34-.53-2.188C12.351 3.234 10 2.094 10 2.094zm6.719 6.937a3.109 3.109 0 0 0-.782.219c-2.042.836-2.859 3.57-1.812 6.125s3.582 3.96 5.625 3.125c2.043-.836 2.828-3.602 1.781-6.156-.918-2.235-2.949-3.57-4.812-3.313zm-.438 2.781c.617.055 1.25.56 1.594 1.313.457 1.008.191 2.094-.563 2.438-.753.343-1.73-.18-2.187-1.188-.457-1.004-.191-2.125.563-2.469.187-.086.386-.113.593-.094zM9 12c-2.21 0-4 2.238-4 5s1.79 5 4 5 4-2.238 4-5-1.79-5-4-5zm-1.5 3c.828 0 1.5.895 1.5 2s-.672 2-1.5 2S6 18.105 6 17s.672-2 1.5-2z"/></svg>