<svg xmlns="http://www.w3.org/2000/svg" viewBox="0 0 32 32"><path d="M12 3c0 1.5-1.29 3.125-2.813 5.156C7.665 10.187 6 12.668 6 16c0 4.426 2.867 8.18 6.844 9.5C12.617 26.25 12 28 12 28l2-1v2l2-2 2 2v-2l2 1-.844-2.5A10.008 10.008 0 0 0 26 16c0-3.332-1.664-5.813-3.188-7.844C21.29 6.125 20 4.5 20 3h-2c0 2.5 1.71 4.375 3.188 6.344C22.663 11.313 24 13.332 24 16c0 4.465-3.535 8-8 8s-8-3.535-8-8c0-2.668 1.336-4.688 2.813-6.656C12.288 7.375 14 5.5 14 3zm4.031 3.031l-.843 1.125c-.852 1.137-2.083 2.492-3.157 3.969C10.957 12.602 10 14.219 10 16c0 3.324 2.676 6 6 6s6-2.676 6-6c0-1.805-1-3.422-2.094-4.906-1.093-1.485-2.36-2.852-3.093-3.906zM16 9.344c.754.957 1.54 1.93 2.281 2.937C19.285 13.645 20 15.004 20 16c0 2.277-1.723 4-4 4s-4-1.723-4-4c0-1.02.648-2.34 1.625-3.688.73-1.007 1.582-1.996 2.375-2.968zm0 3.25c-.7.898-2 2.304-2 3.406 0 1.102.898 2 2 2 1.102 0 2-.898 2-2 0-1.102-1.398-2.605-2-3.406z"/></svg>