<svg xmlns="http://www.w3.org/2000/svg" viewBox="0 0 24 24"><path d="M9 2c0 .996-1.043 2.527-2.313 4.344C5.418 8.16 4 10.332 4 13c0 2.195.953 4.027 2.438 5.219.91.73 2.023 1.218 3.218 1.5C9.36 20.309 9 21 9 21h1l1 1 1-1 1 1 1-1h1l-.625-1.281c1.184-.282 2.285-.774 3.188-1.5C19.047 17.027 20 15.195 20 13c0-2.668-1.418-4.84-2.688-6.656C16.044 4.527 15 2.996 15 2h-2c0 2.082 1.457 3.738 2.688 5.5C16.918 9.262 18 11.055 18 13c0 1.648-.633 2.809-1.688 3.656C15.258 17.504 13.735 18 12 18c-1.734 0-3.258-.496-4.313-1.344C6.633 15.81 6 14.648 6 13c0-1.945 1.082-3.738 2.313-5.5C9.543 5.738 11 4.082 11 2zm3.031 2.281l-.844 1.125c-.652.867-1.656 2.032-2.53 3.313C7.78 10 7 11.418 7 13c0 1.363.688 2.52 1.656 3.156.969.637 2.137.844 3.344.844 1.207 0 2.375-.207 3.344-.844C16.313 15.52 17 14.363 17 13c0-1.656-.824-3.102-1.719-4.375-.894-1.273-1.922-2.402-2.469-3.188zM12 7.625c.555.695 1.125 1.367 1.656 2.125C14.453 10.883 15 12.05 15 13c0 .793-.258 1.145-.75 1.469-.492.324-1.305.531-2.25.531-.945 0-1.758-.207-2.25-.531C9.258 14.145 9 13.793 9 13c0-.875.535-2.016 1.313-3.156.53-.778 1.113-1.504 1.687-2.219zM12 9c-.54.691-2 2.406-2 3.719 0 .937 1 1.293 2 1.281 1-.012 2-.344 2-1.281 0-1.29-1.54-3.106-2-3.719z"/></svg>