<svg xmlns="http://www.w3.org/2000/svg" viewBox="0 0 48 48"><path d="M25.899 9C36.392 9 43 18.096 43 26c0 9.389-8.507 17-19 17S5 35.389 5 26c0-9.388 6.606-16.999 17.099-17h3.8z" fill="#ffab00"/><path d="M22.896 11.995l-.161-.023c-.08-.015-.24-.026-.442-.041a9.781 9.781 0 0 0-1.732.078c-.36.049-.753.118-1.162.217-.409.105-.842.219-1.274.391-.446.139-.873.365-1.323.568-.438.223-.868.488-1.3.75-.403.303-.837.575-1.216.903-.37.338-.765.645-1.099.992l-.955 1.017-.774.988c-.504.6-.804 1.183-1.068 1.558L10 20l.315-.648c.217-.403.45-1.027.883-1.69l.665-1.096.853-1.158c.302-.399.67-.766 1.017-1.166.357-.391.776-.733 1.17-1.107.425-.334.854-.674 1.301-.973.459-.28.902-.582 1.373-.797.457-.247.923-.433 1.369-.606.448-.167.884-.3 1.291-.406a11.726 11.726 0 0 1 2.033-.336 7.67 7.67 0 0 1 .834-.012 1.002 1.002 0 1 1-.163 1.996l-.045-.006z" fill="#fb8c00"/><path d="M23.85 10.011l.188-.012a6.71 6.71 0 0 1 .555-.008 9.491 9.491 0 0 1 1.818.231c.368.072.755.198 1.16.326.398.155.82.303 1.225.525.42.19.816.455 1.218.714.398.264.763.587 1.135.888.334.347.694.664.99 1.025.284.372.593.711.832 1.082l.674 1.071.5 1.01c.332.61.476 1.179.635 1.547L35 19l-.3-.556c-.208-.344-.422-.877-.829-1.43l-.615-.908-.782-.931c-.272-.319-.608-.597-.916-.904-.319-.297-.691-.54-1.031-.812-.376-.224-.737-.468-1.12-.652-.387-.178-.758-.362-1.145-.475-.373-.145-.753-.218-1.104-.305-.358-.059-.694-.123-1.007-.138-.625-.062-1.142-.015-1.49.014a3.93 3.93 0 0 0-.373.057l-.138.028-.034.007a1.002 1.002 0 1 1-.266-1.984z" fill="#fb8c00"/><path d="M24.532 11.847l-.106.057c-.052.024-.16.094-.291.173-.262.173-.639.44-1.068.809-.421.375-.911.832-1.372 1.388-.478.543-.923 1.18-1.35 1.837a19.954 19.954 0 0 0-1.082 2.045c-.29.684-.55 1.333-.723 1.908-.206.567-.305 1.059-.401 1.399L18 22l.055-.552c.042-.35.065-.86.182-1.458.085-.606.243-1.3.431-2.048.209-.74.473-1.522.79-2.292.338-.758.707-1.513 1.131-2.181.406-.68.865-1.27 1.275-1.768.418-.492.81-.876 1.1-1.139.152-.13.264-.229.37-.308l.135-.102a1.003 1.003 0 1 1 1.089 1.681l-.026.014z" fill="#fb8c00"/><line x1="24" y1="5" x2="24" y2="11" fill="none" stroke="#5d4037" stroke-width="2" stroke-miterlimit="10"/><circle cx="36" cy="28" r="1" fill="#f57c00"/><circle cx="38" cy="31" r="1" fill="#f57c00"/><circle cx="40" cy="28" r="1" fill="#f57c00"/><circle cx="30" cy="31" r="1" fill="#f57c00"/><circle cx="32" cy="34" r="1" fill="#f57c00"/><circle cx="34" cy="31" r="1" fill="#f57c00"/><circle cx="34" cy="37" r="1" fill="#f57c00"/><circle cx="26" cy="37" r="1" fill="#f57c00"/><circle cx="28" cy="40" r="1" fill="#f57c00"/><circle cx="30" cy="37" r="1" fill="#f57c00"/><circle cx="24" cy="40" r="1" fill="#f57c00"/><circle cx="28" cy="34" r="1" fill="#f57c00"/><circle cx="36" cy="34" r="1" fill="#f57c00"/><circle cx="30" cy="25" r="1" fill="#f57c00"/><circle cx="32" cy="28" r="1" fill="#f57c00"/><circle cx="34" cy="25" r="1" fill="#f57c00"/><circle cx="36" cy="22" r="1" fill="#f57c00"/><circle cx="38" cy="25" r="1" fill="#f57c00"/><circle cx="40" cy="22" r="1" fill="#f57c00"/><circle cx="38" cy="19" r="1" fill="#f57c00"/><circle cx="32" cy="22" r="1" fill="#f57c00"/><circle cx="22" cy="37" r="1" fill="#f57c00"/><circle cx="24" cy="34" r="1" fill="#f57c00"/><circle cx="18" cy="37" r="1" fill="#f57c00"/><circle cx="20" cy="34" r="1" fill="#f57c00"/><circle cx="20" cy="40" r="1" fill="#f57c00"/><circle cx="14" cy="37" r="1" fill="#f57c00"/><circle cx="34" cy="19" r="1" fill="#f57c00"/><path d="M23 11s4.741-5.889 11.999-5.998C37.691 4.961 40.729 5.944 44 8c-4.916 5.083-9.428 6.149-13 5.987C26.123 13.766 23 11 23 11z" fill="#4caf50"/><path d="M23 11s.267-.218.749-.571c.249-.165.517-.409.896-.595.367-.205.787-.439 1.261-.672.941-.43 2.074-.859 3.321-1.194a43.816 43.816 0 0 1 1.934-.445c.664-.11 1.342-.218 2.021-.298.68-.057 1.36-.143 2.031-.157.67-.04 1.331-.031 1.969-.024 1.276.009 2.465.117 3.477.25C42.687 7.556 44 8 44 8s-1.361.228-3.354.441c-.998.125-2.156.232-3.39.361l-3.85.409-1.945.225c-.634.104-1.27.157-1.876.251-.599.119-1.195.177-1.75.276-.548.118-1.079.199-1.568.283-.469.117-.912.203-1.311.282-.399.069-.748.192-1.037.258-.58.147-.919.214-.919.214z" fill="#2e7d32"/></svg>