<svg xmlns="http://www.w3.org/2000/svg" viewBox="0 0 32 32"><path d="M12.5 4.031a7.747 7.747 0 0 0-3.313.844C7.353 5.816 6.22 7.188 6.22 7.188l-.22.28v1.626L7.094 9s1.144-.102 2.562-.031c.434.02.715.187 1.156.25-.636.27-1.234.437-1.874.906-1.137.836-2.204 2.063-2.657 3.781-.453 1.719-.297 3.871.719 6.469l.25.625H9v-1c0-3.531 1.695-5.117 3.469-6.031.5-.258.98-.422 1.437-.563L13 26.937 12.937 28h6.126L19 26.937l-.906-13.53c.457.14.937.304 1.437.562C21.305 14.883 23 16.469 23 20v1h1.75l.25-.625c1.016-2.598 1.172-4.75.719-6.469-.453-1.719-1.52-2.945-2.657-3.781-.742-.547-1.464-.75-2.187-1.031.488-.078.984-.172 1.469-.188 1.394-.05 2.531.094 2.531.094L26 9.125V7.469l-.219-.282s-1.133-1.37-2.968-2.312c-1.72-.883-4.231-1.281-6.813.063-1.203-.625-2.402-.934-3.5-.907zm.031 1.938c.89-.028 1.864.21 2.938.875l.531.343.531-.343c2.149-1.332 3.907-.922 5.344-.188.207.106.16.133.344.25-1.551.059-3.414.258-4.813 1.282L17 8.5v1.625l.906.094s2.246.234 3.969 1.5c.863.633 1.582 1.46 1.906 2.687.086.328.07.793.094 1.188-.883-1.602-2.129-2.715-3.406-3.375C18.242 11.07 16.03 11 16.03 11h-.062s-2.211.07-4.438 1.219c-1.277.66-2.523 1.773-3.406 3.375.023-.395.008-.86.094-1.188.324-1.226 1.043-2.054 1.906-2.687 1.723-1.266 3.969-1.5 3.969-1.5l.906-.094V8.469l-.438-.281c-1.382-.942-3.218-1.141-4.78-1.22h-.063c.215-.14.156-.183.406-.312.719-.367 1.516-.66 2.406-.687zM15.937 13h.126l.875 13h-1.875z"/></svg>