<svg xmlns="http://www.w3.org/2000/svg" viewBox="0 0 32 32"><path d="M19.969 3s-1.032.012-2.032.688c-.742.503-1.464 1.398-1.78 2.75A5.364 5.364 0 0 0 14 6a5.168 5.168 0 0 0-1.906.344 5.334 5.334 0 0 0-.969.531 5.261 5.261 0 0 0-1.094 1 5.949 5.949 0 0 0-.781 1.25c-1.016.117-1.992.41-2.75 1.094C5.55 11.074 5 12.399 5 14c0 3.848 2.16 7.367 2.781 9.656.004.008-.004.024 0 .032.317 1.328.844 2.593 1.688 3.593C10.316 28.29 11.55 29 13 29c.914 0 1.629-.355 2.125-.625s.773-.375.844-.375c.07 0 .398.11.906.375.508.266 1.227.625 2.125.625 1.418 0 2.613-.672 3.438-1.656.82-.977 1.367-2.235 1.78-3.625.005-.008-.003-.024 0-.032.274-.898.973-2.812 1.595-4.843C26.433 16.8 27 14.668 27 13c0-1.719-.281-3.2-1.125-4.313C25.031 7.575 23.637 7 22 7c-1.125 0-2.09.297-2.813.563-.644.238-1.046.343-1.062.375L18 7.813c.043-1.563.582-2.141 1.063-2.47.5-.34.968-.343.968-.343zM14 8c1.16 0 1.648.352 2.094.75.222.2.414.418.656.656.242.239.613.594 1.25.594.828 0 1.273-.328 1.906-.563C20.54 9.204 21.226 9 22 9c1.215 0 1.836.316 2.281.906.446.59.719 1.614.719 3.094 0 1.156-.52 3.27-1.125 5.25s-1.25 3.848-1.563 4.875c-.375 1.266-.867 2.297-1.406 2.938-.539.64-1.054.937-1.906.937-.367 0-.723-.164-1.188-.406-.464-.242-1.019-.594-1.843-.594-.824 0-1.375.387-1.813.625-.437.238-.754.375-1.156.375-.82 0-1.434-.36-2-1.031-.566-.672-1.016-1.668-1.281-2.782v-.03C8.96 20.327 7 17.07 7 14c0-1.172.344-1.863.844-2.313.308-.277.71-.453 1.187-.562.348 5.887 3.281 11.719 3.281 11.719l1.782-.875s-2.996-6.313-3.063-11.782c.008-.027.028-.156.063-.25.015-.035.043-.085.062-.124.035-.075.074-.16.125-.25.012-.016.02-.043.031-.063.07-.117.172-.242.282-.375.117-.145.258-.305.406-.438C12.453 8.29 13.074 8 14 8z"/></svg>