<svg xmlns="http://www.w3.org/2000/svg" viewBox="0 0 50 50"><path d="M25 3c-.55 0-1 .45-1 1a.92.92 0 0 0 .152.5l1.907.484c.183-.07.37-.132.554-.195-.355-1.082-.87-1.504-1.082-1.64l-.011.019A.956.956 0 0 0 25 3zm-5.7 3C11.782 6 4 12.734 4 24c0 8.504 3.89 14.695 11.563 18.402 1.453.7 3.148 1.344 4.792 1.965 1.88.715 4.45 1.688 4.825 2.207.187.266.496.426.82.426.023 0 .047 0 .074-.004a1 1 0 0 0 .82-.547c.473-.949 1.797-1.496 3.626-2.25 1.164-.484 2.484-1.027 3.953-1.82C42.875 37.855 46 32.605 46 23c0-10.168-6.027-17-15-17-.273 0-.57.023-.86.04C25.505 6.468 18 10.366 18 23c0 5.422 2.84 10.453 2.867 10.504A.998.998 0 0 1 20 35a.997.997 0 0 1-.867-.504C19.003 34.273 16 28.946 16 23c0-8.648 3.453-13.875 7.516-16.602C22.434 6.125 21.082 6 19.3 6z"/></svg>