<svg xmlns="http://www.w3.org/2000/svg" viewBox="0 0 50 50"><path d="M25.656 1a7.137 7.137 0 0 0-.875.031 6.11 6.11 0 0 0-3 1.125c-1.707 1.219-2.816 3.11-3.875 5.125-2.113 4.028-3.96 8.473-8.312 9.907-3.875 1.273-6.176 3.605-7.375 6.03-1.2 2.427-1.348 4.895-1.188 6.595.157 1.695 1.098 5.23 4.313 7.625 1.676 1.246 4.133 1.707 6.906 1.593 2.176 3.086 5.055 5.82 8.469 7.25 7.949 3.332 14.77 3.356 19.75 1.5 4.98-1.855 8.148-5.652 8.5-9.812.218-2.567-.387-4.496-1.625-5.844-1.239-1.348-2.95-2.074-4.782-2.594-3.335-.949-7.207-1.347-10.156-2.937 2.953-5.215 3.942-10.149 3.532-14.282-.524-5.289-3.38-9.316-7.313-10.718-1.055-.375-2.059-.57-2.969-.594zm-.031 2c.656.023 1.414.18 2.313.5 3.058 1.09 5.503 4.324 5.968 9 .375 3.797-.57 8.523-3.625 13.656a1.06 1.06 0 0 0-.25.375c-.011.02-.02.043-.031.063v.031a38.138 38.138 0 0 1-2.188 3.156c-2.515 3.278-6.93 5.543-11.218 6.563-4.29 1.02-8.434.66-10.032-.532-.253-.187-.464-.414-.687-.624 9.563-4.196 19.762-11.168 22.5-26.032a1.02 1.02 0 0 0-1.125-1.219c-.445.06-.8.403-.875.844-2.645 14.356-12.39 20.727-21.844 24.782-.996-1.567-1.398-3.176-1.468-3.938-.13-1.39.019-3.512 1-5.5.98-1.988 2.746-3.879 6.156-5 5.351-1.762 7.453-6.977 9.5-10.875 1.023-1.95 2.05-3.582 3.25-4.438.597-.43 1.238-.71 2.031-.78.2-.02.406-.04.625-.032zm5.719 25.344C34.809 30.277 38.918 30.625 42 31.5c1.68.477 3.016 1.098 3.844 2 .828.902 1.277 2.133 1.093 4.313-.273 3.238-2.753 6.421-7.156 8.062-4.394 1.64-10.695 1.691-18.25-1.469-.008-.004-.023.004-.031 0-2.602-1.097-4.996-3.176-6.906-5.625.816-.117 1.633-.238 2.469-.437a26.603 26.603 0 0 0 6.375-2.407c4.933 2.715 10.898 4.301 18.156 3.75.386.008.742-.199.922-.539.183-.34.156-.753-.063-1.07a1.03 1.03 0 0 0-.984-.422c-6.364.485-11.567-.77-15.969-2.968 1.504-1.032 2.848-2.239 3.938-3.657a39.745 39.745 0 0 0 1.906-2.687z"/></svg>