<svg xmlns="http://www.w3.org/2000/svg" viewBox="0 0 64 64"><path d="M9 57V11a2 2 0 0 1 2-2h25.34c1.062 0 2.078.422 2.832 1.172l8.656 8.656A4.013 4.013 0 0 1 49 21.66V57a2 2 0 0 1-2 2H11a2 2 0 0 1-2-2z" fill="#efd8be"/><path d="M13 53V7a2 2 0 0 1 2-2h25.34c1.062 0 2.078.422 2.832 1.172l8.656 8.656A4.013 4.013 0 0 1 53 17.66V53a2 2 0 0 1-2 2H15a2 2 0 0 1-2-2z" fill="#bbdef9"/><path d="M53.102 36.898V17.66L49.398 17 13.25 53.14A3.002 3.002 0 0 0 16 54.942h19.059zM44.43 11.57L13 43v6l35.238-35.238c-.297-1.07-3.808-2.192-3.808-2.192zM12.852 37.148L41 9h3L12.852 40.148z" fill="#cce7fc"/><path d="M21.5 10l1.238 2.262L25 13.5l-2.262 1.238L21.5 17l-1.238-2.262L18 13.5l2.262-1.238z" fill="#fff"/><path d="M41.34 4.809v9.613a2.39 2.39 0 0 0 2.39 2.387h9.61z" fill="#f9e3ae"/><path d="M42.422 26l.848 1.559 1.57.863-1.57.848-.848 1.57-.863-1.57L40 28.422l1.559-.863zM22.648 38l.582 1.059 1.07.59-1.07.581-.582 1.07-.578-1.07-1.07-.582 1.07-.59z" fill="#fff"/><path d="M34 38a1.999 1.999 0 1 1-4 0 1.999 1.999 0 1 1 4 0zm-2-3.941a1.056 1.056 0 0 0 1.059-1l.863-14a1.93 1.93 0 0 0-.512-1.457 1.986 1.986 0 0 0-1.414-.59c-.531 0-1.039.21-1.418.59-.39.378-.601.91-.578 1.457l.86 14a1.057 1.057 0 0 0 1.062 1z" fill="#8d6c9f"/><path d="M52.54 14.121l-8.661-8.66A4.985 4.985 0 0 0 40.339 4H15a3 3 0 0 0-3 3v1h-1a3 3 0 0 0-3 3v46a3 3 0 0 0 3 3h36a3 3 0 0 0 3-3v-1h1a3 3 0 0 0 3-3V17.66a4.985 4.985 0 0 0-1.46-3.539zm-1.411 1.41c.144.14.27.293.383.457H43a1 1 0 0 1-1-1V6.5c.164.11.32.238.46.379zM48 57c0 .55-.45 1-1 1H11c-.55 0-1-.45-1-1V11c0-.55.45-1 1-1h1v43a3 3 0 0 0 3 3h33zm3-3H15c-.55 0-1-.45-1-1V7c0-.55.45-1 1-1h25v9a3 3 0 0 0 3 3h9v35c0 .55-.45 1-1 1z" fill="#8d6c9f"/><path d="M18 46c-.55 0-1 .45-1 1v2c0 .55.45 1 1 1s1-.45 1-1v-2c0-.55-.45-1-1-1zm5 0c-.55 0-1 .45-1 1v2c0 .55.45 1 1 1s1-.45 1-1v-2c0-.55-.45-1-1-1zm5 0c-.55 0-1 .45-1 1v2c0 .55.45 1 1 1s1-.45 1-1v-2c0-.55-.45-1-1-1zm5 0c-.55 0-1 .45-1 1v2c0 .55.45 1 1 1s1-.45 1-1v-2c0-.55-.45-1-1-1zm5 0c-.55 0-1 .45-1 1v2c0 .55.45 1 1 1s1-.45 1-1v-2c0-.55-.45-1-1-1zm5 0c-.55 0-1 .45-1 1v2c0 .55.45 1 1 1s1-.45 1-1v-2c0-.55-.45-1-1-1zm5 0c-.55 0-1 .45-1 1v2c0 .55.45 1 1 1s1-.45 1-1v-2c0-.55-.45-1-1-1z" fill="#8d6c9f"/></svg>