<svg xmlns="http://www.w3.org/2000/svg" viewBox="0 0 50 50"><path d="M45.863 2.645A1.002 1.002 0 0 0 44.93 2c-7.516 0-11.49 6.71-15.332 13.2-1.918 3.241-3.899 6.59-6.32 9.183-4.352 4.656-8.395 7.676-11.641 10.101-4.54 3.391-8.121 6.067-9.594 11-.133.446.059.926.46 1.157C4.064 47.53 6.278 48 8.915 48c7.992 0 19.594-4.355 27.492-14.086 6.508-8.012 9.512-17.121 8.032-24.367-.575-2.828.183-3.762.792-4.508.446-.543 1.051-1.289.633-2.394zM12.832 36.09c3.313-2.477 7.434-5.555 11.906-10.344 2.57-2.75 4.61-6.195 6.582-9.527 2.801-4.73 5.489-9.262 9.367-11.211-3.578 3.383-5.886 7.68-8.296 12.164-1.817 3.39-3.7 6.898-6.2 10.012-5.832 7.265-10.894 9.804-15.355 12.043-1.547.77-3.043 1.523-4.473 2.433 1.617-1.937 3.82-3.594 6.469-5.57zm.043 9.043a2.25 2.25 0 0 1-3.14 0c-.868-.852-1.438-1.676 0-3.086 1.437-1.41 2.273-.852 3.14 0 .867.851.867 2.23 0 3.086zM20 41.813a2.25 2.25 0 0 1-3.14 0c-.868-.852-1.438-1.676 0-3.086 1.433-1.41 2.273-.852 3.14 0a2.155 2.155 0 0 1 0 3.086zm7.3-3.84c-1.843 1.808-2.87 1.074-3.964 0a2.721 2.721 0 0 1 0-3.895c1.094-1.074 2.879-1.062 3.965 0 1.082 1.067 1.844 2.082 0 3.895zm4.384-5.618c-1.98 0-3.27-1.437-3.27-3.21 0-1.774.43-3.211 3.27-3.211s3.27 1.437 3.27 3.21c-.005 1.774-1.294 3.211-3.27 3.211zm6.707-9.171a3.233 3.233 0 0 1-4.512 0c-1.246-1.227-1.645-2.817 0-4.434 1.644-1.617 3.266-1.227 4.512 0a3.096 3.096 0 0 1 0 4.434zm2.617-8.66a2.25 2.25 0 0 1-3.14 0c-.868-.852-1.438-1.676 0-3.086 1.437-1.41 2.273-.852 3.14 0a2.152 2.152 0 0 1 0 3.085z"/></svg>