<svg xmlns="http://www.w3.org/2000/svg" viewBox="0 0 32 32"><path d="M19.344 3l-.313.469s-.5.812-1 1.875c-.37.789-.761 1.703-.937 2.656H16c-2.98 0-6.074 1.96-8.563 4.344C4.95 14.727 3 17.488 3 20c0 3.113 1.316 5.148 2 6 .207.258.375.441.406.469.004.004.063.093.063.093l.031-.03c.059.066.535.663 1.563 1.25C8.148 28.397 9.8 29 12 29c2.598 0 5.395-1.945 7.75-4.438C22.105 22.07 24 18.965 24 16v-1.094c.95-.187 1.863-.61 2.656-1 1.07-.527 1.875-1.062 1.875-1.062l.469-.281V11.28l-.563-.25-1.718-.844c.355-.792.582-1.656.781-2.468.344-1.387.5-2.594.5-2.594L26.875 4s-1.18.137-2.563.469c-.824.199-1.714.433-2.53.812l-.876-1.718L20.625 3zm.562 3.063l1.875 3.687.157.313.312.156L25.906 12c-.086.043-.066.05-.156.094-.844.414-1.77.726-2.406.812l-4.25-4.25c.082-.687.36-1.636.75-2.469.031-.07.031-.058.062-.125zm5.813.187c-.074.406-.055.469-.188 1a13.633 13.633 0 0 1-.687 2l-1.407-.688-.718-1.437a11.636 11.636 0 0 1 2.062-.719c.5-.12.551-.09.938-.156zM17 10h.563L19 11.438V12h-2zm-2 .125V12h-2v-1.125c.7-.34 1.371-.613 2-.75zm6 3.313l1 1V16c0 2.035-1.586 4.93-3.719 7.188C16.148 25.445 13.445 27 12 27c-1.844 0-3.117-.473-3.938-.938-.027-.015-.035-.046-.062-.062h1v-4h4v-4h4v-4h4zM9 14h2v2H9zm4 0h2v2h-2zm-6 1.875V16h-.094c.032-.04.063-.086.094-.125zM5.656 18H7v2H5c0-.492.246-1.191.656-2zM9 18h2v2H9zm-3.75 4H7v2h-.969c-.293-.496-.578-1.152-.781-2z"/></svg>