<svg xmlns="http://www.w3.org/2000/svg" viewBox="0 0 40 40"><path d="M21.117 6.543C21.117 1.395 18.801.5 17.5.5" fill="none" stroke-linecap="round" stroke="#4788c7" stroke-miterlimit="10"/><path d="M20 38.5c-7.184 0-14.5-9.625-14.5-19.07C5.5 9.902 10.195 3.5 17.188 3.5c1.792 0 3.273 1.05 3.289 1.063l.27.195.28-.172c.02-.012 1.801-1.086 3.141-1.086 7.625 0 10.332 8.395 10.332 15.586C34.5 28.52 27.047 38.5 20 38.5z" fill="#b6dcfe"/><path d="M24.168 4C31.426 4 34 12.129 34 19.086 34 28.277 26.805 38 20 38c-6.934 0-14-9.371-14-18.57C6 10.2 10.496 4 17.188 4c1.62 0 2.984.96 2.996.969l.539.39.566-.347C21.72 4.75 23.172 4 24.168 4m0-1c-1.504 0-3.398 1.156-3.398 1.156S19.176 3 17.188 3C9.957 3 5 9.488 5 19.43 5 29.37 12.75 39 20 39s15-9.973 15-19.914C35 10.52 31.422 3 24.168 3z" fill="#4788c7"/><path d="M23.5 32.5s3-4.648 3-13.5c0-6.523-3.977-15.5-9.313-15.5" fill="none" stroke-linecap="round" stroke-linejoin="round" stroke="#4788c7" stroke-miterlimit="10"/></svg>