<svg xmlns="http://www.w3.org/2000/svg" viewBox="0 0 50 50"><path d="M21.688 2c-.602 0-1 .398-1 1s.5 1 1 1c.8 0 2.398.414 3 3.313.3-.2.605-.301.906-.5l1-.313C25.492 2.398 22.687 2 21.687 2zM22 8C13.602 8 8 15.414 8 26.313 8 37.112 16.602 48 25 48s17-11.102 17-22c0-9-3.895-18-12.594-18-.699 0-1.304.113-1.906.313 3.898 3.898 4.5 12 4.5 16.5 0 9.5-2.992 14.98-3.094 15.28-.199.302-.508.5-.906.5-.2 0-.3.009-.5-.093-.5-.3-.707-.906-.406-1.406 0-.102 2.906-5.383 2.906-14.282 0-7.199-1.406-12.718-3.906-15.218C24.992 8.594 23.687 8 22.187 8z"/></svg>