<svg xmlns="http://www.w3.org/2000/svg" viewBox="0 0 48 48"><path d="M26 9l-2-5-2 5s0-1-4-3l1 6 5 1 5-1 1-6c-4 2-4 3-4 3z" fill="#ff5252"/><path d="M41.848 27.5C41.848 18.941 33.859 12 24 12c-9.86 0-17.848 6.941-17.848 15.5C6.152 36.059 14.141 43 24 43c9.86 0 17.848-6.941 17.848-15.5z" fill="#ffecb3"/><path d="M23.5 18.93a1.5 1.5 0 0 0-1.5-1.5h-.078c.058-.2.066-.43.027-.649a1.513 1.513 0 0 0-1.738-1.222c-.02.011-.031.011-.05.011a1.498 1.498 0 0 0-1.212 1.7 1.495 1.495 0 0 0-1.96-.72 1.485 1.485 0 0 0-.778 1.938 1.51 1.51 0 0 0-2.082-.218 1.497 1.497 0 0 0-.27 2.082 1.501 1.501 0 0 0-1.789 2.41 1.494 1.494 0 0 0-1.898.91c-.281.77.117 1.617.879 1.906-.813-.02-1.5.621-1.54 1.442-.03.82.59 1.511 1.4 1.558a1.503 1.503 0 0 0-1.083 1.813c.203.8 1 1.289 1.8 1.101a1.504 1.504 0 0 0-.5 2.047 1.503 1.503 0 0 0 2.032.531 1.501 1.501 0 0 0 2.18 2.063c-.36.719-.09 1.597.62 1.988a1.48 1.48 0 0 0 2.009-.55 1.51 1.51 0 0 0 1.07 1.788c.133.04.262.051.39.051a1.49 1.49 0 0 0 1.5-1.469c.13.102.27.18.43.23.79.27 1.641-.151 1.91-.929a1.487 1.487 0 0 0-.94-1.902.982.982 0 0 0-.157-.05A1.492 1.492 0 0 0 23.5 33.8c0-.76-.57-1.39-1.3-1.487.73-.09 1.3-.723 1.3-1.481 0-.762-.559-1.39-1.29-1.488a1.501 1.501 0 0 0-.01-2.973c.73-.098 1.3-.726 1.3-1.488s-.57-1.39-1.309-1.48a1.508 1.508 0 0 0 1.309-1.489c0-.762-.57-1.39-1.309-1.492A1.5 1.5 0 0 0 23.5 18.93zm13.59 9.648a1.51 1.51 0 0 0 1.398-1.558 1.502 1.502 0 0 0-1.55-1.442 1.486 1.486 0 0 0 .89-1.906 1.494 1.494 0 0 0-1.898-.91c.64-.5.77-1.422.289-2.082a1.506 1.506 0 0 0-2.07-.34 1.5 1.5 0 0 0-.278-2.07 1.51 1.51 0 0 0-2.082.218 1.49 1.49 0 0 0-.777-1.937 1.497 1.497 0 0 0-1.961.719 1.498 1.498 0 0 0-1.211-1.7h-.02c-.011 0-.02 0-.039-.011a1.499 1.499 0 0 0-1.73 1.222c-.04.23-.031.45.031.66-.031-.011-.05-.011-.082-.011a1.5 1.5 0 0 0-1.5 1.5 1.5 1.5 0 0 0 1.313 1.492 1.499 1.499 0 0 0 0 2.976 1.494 1.494 0 0 0-1.313 1.48c0 .763.563 1.392 1.3 1.493a1.49 1.49 0 0 0-1.3 1.477c0 .761.563 1.39 1.29 1.492a1.498 1.498 0 0 0-1.29 1.488c0 .762.563 1.39 1.3 1.48a1.502 1.502 0 0 0 .031 2.98.634.634 0 0 0-.16.052 1.489 1.489 0 0 0-.94 1.898c.269.778 1.12 1.2 1.91.938.16-.059.3-.14.43-.239a1.49 1.49 0 0 0 1.883 1.418 1.5 1.5 0 0 0 1.077-1.789c.41.7 1.301.95 2.012.551.71-.39.977-1.281.61-2 .57.578 1.5.602 2.1.04.59-.56.63-1.5.079-2.102.711.41 1.61.183 2.027-.52a1.495 1.495 0 0 0-.488-2.05c.79.19 1.602-.301 1.8-1.098a1.498 1.498 0 0 0-1.081-1.809z" fill="#ff1744"/><path d="M18 6l1 6 2 1c.066-1.563-3-7-3-7zm12 0s-3.066 5.438-3 7l2-1z" fill="#d50000"/><path d="M27.559 11.324L27 13v.238c7.945 1.215 14 7.14 14 14.262 0 6.82-5.543 12.586-13 14.094-2 .406-4.082-1.723-4.082-1.723S22 42 20 41.594C12.543 40.086 7 34.32 7 27.5c0-7.121 6.055-13.047 14-14.262V13l-.813-1.629C11.527 12.906 5 19.523 5 27.5 5 36.613 13.508 44 24 44s19-7.387 19-16.5c0-8.055-6.656-14.727-15.441-16.176z" fill="#d50000"/><path d="M23 12c0 .55-.45 1-1 1s-1-.45-1-1 .45-1 1-1 1 .45 1 1zm2 0c0 .55-.45 1-1 1s-1-.45-1-1 .45-1 1-1 1 .45 1 1zm2 0c0 .55-.45 1-1 1s-1-.45-1-1 .45-1 1-1 1 .45 1 1zm-3-2c0 .55-.45 1-1 1s-1-.45-1-1 .45-1 1-1 1 .45 1 1zm2 0c0 .55-.45 1-1 1s-1-.45-1-1 .45-1 1-1 1 .45 1 1zm-6 11.5a1.5 1.5 0 1 1-3 0 1.5 1.5 0 0 1 3 0zm-4 3a1.5 1.5 0 1 1-3 0 1.5 1.5 0 0 1 3 0zm4 3a1.5 1.5 0 1 1-3 0 1.5 1.5 0 0 1 3 0zm0 6a1.5 1.5 0 1 1-3 0 1.5 1.5 0 0 1 3 0zm-4-3a1.5 1.5 0 1 1-3 0 1.5 1.5 0 0 1 3 0zm15-9a1.5 1.5 0 1 1-3 0 1.5 1.5 0 0 1 3 0zm4 3a1.5 1.5 0 1 1-3 0 1.5 1.5 0 0 1 3 0zm-4 3a1.5 1.5 0 1 1-3 0 1.5 1.5 0 0 1 3 0zm0 6a1.5 1.5 0 1 1-3 0 1.5 1.5 0 0 1 3 0zm4-3a1.5 1.5 0 1 1-3 0 1.5 1.5 0 0 1 3 0z" fill="#d50000"/></svg>