<svg xmlns="http://www.w3.org/2000/svg" viewBox="0 0 48 48"><path d="M36 44H8V8h20l8 8z" fill="#42a5f5"/><path d="M40 40H12V4h20l8 8z" fill="#90caf9"/><path d="M38.5 13H31V5.5z" fill="#e1f5fe"/><path d="M23.398 29.898c0-.199 0-.398.102-.597.102-.2.2-.301.3-.5.098-.2.302-.2.5-.301.2-.102.4-.102.598-.102.204 0 .5 0 .704.102.199.102.398.2.5.3.097.098.199.302.296.5.102.2.102.4.102.598 0 .204 0 .403-.102.602-.097.2-.199.3-.296.5-.102.2-.301.2-.5.3-.204.098-.403.098-.704.098-.296 0-.5 0-.597-.097-.102-.102-.403-.2-.5-.301-.102-.102-.2-.3-.301-.5-.102-.2-.102-.398-.102-.602zm2.704-3.097H23.8L23.398 17h3z" fill="#1976d2"/></svg>