<svg xmlns="http://www.w3.org/2000/svg" viewBox="0 0 50 50"><path d="M35.406 1C32.266 1 30 2.98 30 5.688c0 1.41.578 2.207 1.063 2.625.359.312.773.476 1.156.593-.18.594-.258 1.305 0 2.031.332.934 1.105 1.665 2.312 2.126-1.105 3.18-3.484 6.773-10.156 13.03a192.297 192.297 0 0 1-5.5 4.47.996.996 0 0 0-.492.957c.035.39.293.722.66.851a1 1 0 0 0 1.05-.246 203.217 203.217 0 0 0 4.47-3.594 158.468 158.468 0 0 0 3.406-2.875c.68-.586 1.43-1.23 2.156-1.875.16-.14.34-.324.5-.468.914-.817 1.84-1.665 2.813-2.563.98-.91 1.953-1.805 3-2.813.18-.175.378-.355.562-.53.824-.802 1.668-1.637 2.531-2.5a.954.954 0 0 0 .125-.157c2.89-2.977 4.035-6.918 2.813-9.875C41.867 3.43 40.14 1 35.406 1zM24.5 7c-6.043 0-6.5 3.848-6.5 5.031 0 1.961 1.59 4.074 4 4.313.059.8.336 1.496.813 2.062.914 1.09 2.55 1.496 4 1-.024.387-.114.867-.25 1.438 2.289-2.387 4.039-4.594 5.125-6.469a12.962 12.962 0 0 0-.844-2.5C29.437 8.82 27.059 7 24.5 7zm17.469 8.188c-.313.382-.64.765-1 1.124a204.352 204.352 0 0 1-8.25 7.813c.183-.059.351-.11.5-.156.652 1.031 1.742 1.593 3.062 1.593.602 0 1.215-.128 1.782-.343.386 1.25 1.34 2.781 4 2.781C45.19 28 47 25.566 47 21.344c0-3.29-2.39-5.516-5.031-6.157zm-29.375 8.78c-2.739-.042-4.992 1.137-6.438 2.688-3.625 3.887-2.789 8.121-2.031 11.844.734 3.602 1.332 6.453-1.688 8.75a.965.965 0 0 0-.187 1.375c.195.258.48.406.781.406.211 0 .446-.05.625-.187A8.269 8.269 0 0 0 5.5 46.906c.066-.035.129-.043.188-.093 1.519-1.31 3.925-.774 6.718-.157 1.7.375 3.614.782 5.531.782 2.266 0 4.555-.575 6.625-2.5 2.915-2.711 3.602-8.563-.28-13.657a.97.97 0 0 0-1.376-.187 1.006 1.006 0 0 0-.187 1.406c.476.629.84 1.254 1.156 1.875-.035.188-.18.309-.375.406-.66.45-4.129.008-6.188-1.781-1.195-1.043-1.949-2.465-2-3.719a2.91 2.91 0 0 1 .844-2.218c.04-.04.032-.079.063-.125.734.359 1.527.812 2.312 1.406.442.336 1.043.222 1.375-.219a.968.968 0 0 0-.187-1.375c-2.586-1.953-4.996-2.746-7.125-2.781z"/></svg>