<svg xmlns="http://www.w3.org/2000/svg" viewBox="0 0 48 48"><path d="M28 15s-.5-1 1-2c4.898-2.8 8.602-.5 11-3-.2 3.8-2 5-2 5zm-3 .7C22.398 7.397 28.2 4 28.5 3.897L28 3l.5.898-1-1.796c-.102 0-7.5 4.296-4.5 14.199zm-8-.7v-1c-.8-5.5-5.398-1.898-10-4 .602 2.7 3 5 3 5z" fill="#388e3c"/><path d="M32 16h-7c-.3-1-.5-2.3-.602-3.2 1.301-2 5.5-1.698 8.602-6.8 2.398 5.5-1 10-1 10zm-9 0s.398.7 0-2c-.8-5.602-5.602-3.5-8-10-4.898 7.898 1 12 1 12z" fill="#4caf50"/><path d="M20 33a5 5 0 1 1-10 0 5 5 0 0 1 10 0z" fill="#ff4081"/><path d="M29 34a5 5 0 1 1-10 0 5 5 0 0 1 10 0z" fill="#ff4081"/><path d="M38 33a5 5 0 1 1-10 0 5 5 0 0 1 10 0z" fill="#ff4081"/><path d="M33 27a5 5 0 1 1-10 0 5 5 0 0 1 10 0z" fill="#ff4081"/><path d="M41 26a5 5 0 1 1-10 0 5 5 0 0 1 10 0zm-24 0a5 5 0 1 1-10 0 5 5 0 0 1 10 0z" fill="#ff4081"/><path d="M25 27a5 5 0 1 1-10 0 5 5 0 0 1 10 0zm-9-8a5 5 0 1 1-10 0 5 5 0 0 1 10 0zm26 0a5 5 0 1 1-10 0 5 5 0 0 1 10 0z" fill="#ff4081"/><path d="M22 19a5 5 0 1 1-10 0 5 5 0 0 1 10 0zm14 0a5 5 0 1 1-10 0 5 5 0 0 1 10 0z" fill="#ff4081"/><path d="M29 19a5 5 0 1 1-10 0 5 5 0 0 1 10 0zm0 22a5 5 0 1 1-10 0 5 5 0 0 1 10 0z" fill="#ff4081"/><path d="M34 38a5 5 0 1 1-10 0 5 5 0 0 1 10 0zm-10 0a5 5 0 1 1-10 0 5 5 0 0 1 10 0z" fill="#ff4081"/><path d="M24 38c-.2-.102-.3-.102-.398-.102.097.102.296.102.398.102z" fill="#c51162"/><path d="M42 19c0-2.8-2.2-5-5-5 1.7 0 3 3.3 3 5 0 1.7-1.3 3-3 3-.602 0-1.2-.2-1.7-.5.4-.7.7-1.602.7-2.5 0-1.2-.398-2.3-1.102-3.102.5-1 1.301-1.898 2.102-1.898-1.102 0-2.2.398-3 1-.8-.602-1.898-1-3-1 1.7 0 3 3.3 3 5 0 1.7-1.3 3-3 3-1 0-1.8-.5-2.398-1.2.199-.6.398-1.198.398-1.8 0-.8-.2-1.5-.5-2.2.5-1.402 1.398-2.8 2.5-2.8-1.398 0-2.602.602-3.5 1.398C26.602 14.602 25.398 14 24 14c1.7 0 3 3.3 3 5 0 1.7-1.3 3-3 3s-3-1.3-3-3 1.3-5 3-5c-1.398 0-2.602.602-3.5 1.398C19.602 14.602 18.398 14 17 14c1.102 0 2 1.398 2.5 2.8-.3.7-.5 1.4-.5 2.2 0 .602.102 1.3.398 1.8C18.801 21.5 18 22 17 22c-1.7 0-3-1.3-3-3s1.3-5 3-5c-1.102 0-2.2.398-3 1-.8-.602-1.898-1-3-1 .8 0 1.602.8 2.102 1.898C12.398 16.7 12 17.801 12 19c0 .898.2 1.7.7 2.5-.5.3-1 .5-1.7.5-1.7 0-3-1.3-3-3s1.3-5 3-5c-2.8 0-5 2.2-5 5 0 1.602.8 3.102 2 4-.602.8-1 1.898-1 3 0 2.2 1.5 4.102 3.5 4.8-.3.598-.5 1.4-.5 2.2 0 2.398 1.7 4.398 4 4.898V38c0 2.8 2.2 5 5 5h.398c.801 1.8 2.5 3 4.602 3 2.102 0 3.8-1.3 4.602-3H29c2.8 0 5-2.2 5-5v-.102c2.3-.5 4-2.5 4-4.898 0-.8-.2-1.602-.602-2.2A4.951 4.951 0 0 0 41 26c0-1.102-.398-2.2-1-3 1.2-.898 2-2.398 2-4zm-15.898 4.5c.5-.2 1-.602 1.398-1 .7.7 1.602 1.2 2.602 1.398.5 1 .898 2.301.898 3.102 0 1.7-1.3 3-3 3s-3-1.3-3-3c0-.898.398-2.398 1.102-3.5zM24 24zm0 6c.602.8 1.5 1.5 2.5 1.8.3.802.5 1.598.5 2.302 0 1.699-1.3 3-3 3s-3-1.301-3-3c0-.602.2-1.403.5-2.301 1-.403 1.898-1 2.5-1.801zm-6.102-6.102c1-.199 1.903-.699 2.602-1.398.398.398.898.7 1.398 1C22.602 24.602 23 26 23 27c0 1.7-1.3 3-3 3s-3-1.3-3-3c0-.8.3-2 .898-3.102zM9 26c0-.602.2-1.398.5-2.3.5.198 1 .3 1.5.3 1.102 0 2.2-.398 3-1 .102.102.2.102.3.2.5 1 .7 2.1.7 2.8 0 1.7-1.3 3-3 3s-3-1.3-3-3zm6 10c-1.7 0-3-1.3-3-3 0-.602.2-1.3.398-2a4.73 4.73 0 0 0 3.204-1.602c.5.903 1.199 1.602 2.097 2C17.9 32 18 32.602 18 33c0 1.7-1.3 3-3 3zm1 2v-.102c1.398-.296 2.5-1.097 3.2-2.296.198.5.402 1 .8 1.398l1.3 1.2c.2.1.4.198.598.3A2.916 2.916 0 0 1 19 41c-1.7 0-3-1.3-3-3zm8 6c-1.102 0-2.102-.7-2.602-1.602a4.864 4.864 0 0 0 2.5-3.398h.204c.296 1.5 1.296 2.7 2.5 3.398-.5.903-1.5 1.602-2.602 1.602zm5-3c-1.5 0-2.7-1.102-2.898-2.5.199-.102.398-.2.597-.3L28 37c.3-.398.602-.898.8-1.398.7 1.097 1.802 2 3.2 2.296h.102V38C32 39.7 30.699 41 29 41zm4-5c-1.7 0-3-1.3-3-3 0-.398.102-1 .3-1.602a5.76 5.76 0 0 0 2.098-2c.801.903 2 1.403 3.204 1.602.296.7.398 1.5.398 2 0 1.7-1.3 3-3 3zm3-7c-1.7 0-3-1.3-3-3 0-.8.3-1.8.7-2.8.1-.098.198-.098.3-.2.8.602 1.898 1 3 1 .5 0 1-.102 1.5-.3.3.8.5 1.6.5 2.3 0 1.7-1.3 3-3 3z" fill="#c51162"/></svg>