<svg xmlns="http://www.w3.org/2000/svg" viewBox="0 0 24 24"><path d="M8.188 2a2.016 2.016 0 0 0-1.594 1L2.28 10.5c-.55.953-.234 1.95.719 2.5l8 5v-.5a1.5 1.5 0 0 1 1.5-1.5h.5c.172-.637.809-1 1.5-1h.5c.172-.637.809-1 1.5-1H18l1.813-3.375c.55-.953.14-2.074-.813-2.625L9.312 2.281A1.959 1.959 0 0 0 8.188 2zM10 5c.734 0 1.313.594 1.313 1.344 0 .3-.106.75-.25 1.25.292-.399.69-.696.937-.844.637-.352 1.469-.148 1.813.5.343.648.136 1.492-.5 1.844-.243.148-.668.304-1.157.406.489.102.91.258 1.156.406.637.399.891 1.196.5 1.844a1.338 1.338 0 0 1-1.812.5c-.242-.148-.594-.445-.938-.844.149.45.25.95.25 1.25 0 .75-.578 1.344-1.312 1.344-.734 0-1.313-.594-1.313-1.344 0-.3.106-.75.25-1.25A3.413 3.413 0 0 1 8 12.25c-.637.352-1.469.148-1.813-.5-.343-.648-.136-1.492.5-1.844.243-.148.668-.304 1.157-.406-.489-.102-.914-.258-1.157-.406-.636-.399-.89-1.196-.5-1.844A1.338 1.338 0 0 1 8 6.75c.246.148.594.492.938.844-.149-.45-.25-.95-.25-1.25C8.688 5.594 9.265 5 10 5zm0 3.5c-.55 0-1 .45-1 1s.45 1 1 1 1-.45 1-1-.45-1-1-1zm6.5 6.5c-.328.328-.5.727-.5 1v1.5c0 .273.227.5.5.5s.5-.227.5-.5V16c0-.273-.242-.742-.5-1zm2 2c-.273 0-.5.227-.5.5V19c0 .273.242.742.5 1 .328-.328.5-.727.5-1v-1.5c0-.273-.227-.5-.5-.5zM15 19c-.273 0-.742.242-1 .5.328.328.727.5 1 .5h1.5c.273 0 .5-.227.5-.5s-.227-.5-.5-.5zm3.5 2c-.273 0-.5.227-.5.5s.227.5.5.5H20c.273 0 .672-.172 1-.5-.258-.258-.727-.5-1-.5z"/></svg>