<svg xmlns="http://www.w3.org/2000/svg" viewBox="0 0 24 24"><path d="M6.594 0L0 9.813l9.406 6.28s.387-1.105 1.688-.905c.5-.899 2.011-1.399 2.812-1 .7-1.5 2.7-1.676 3.5-1.376L20 9zm3.125 5.656C10.78 5.762 11 7 11 7s1.387-.805 2.188.594c.699 1.398-.688 2.218-.688 2.218s1.094 1.086.094 2.188-2.188 0-2.188 0-.793 1.512-2.094.813c-1.3-.801-.718-2.22-.718-2.22s-1.508-.386-1.407-1.687C6.29 7.508 8 7.594 8 7.594s-.21-1.606 1.188-1.907a1.78 1.78 0 0 1 .53-.03zm.187 2.032c-.883 0-1.594.742-1.594 1.625a1.59 1.59 0 0 0 1.594 1.593A1.59 1.59 0 0 0 11.5 9.312c0-.882-.71-1.624-1.594-1.624zm6.594 8.78a.417.417 0 0 0-.313.126c-.308.316.028 1.176.782 1.906s1.629 1.066 1.937.75c.309-.316-.058-1.176-.812-1.906-.563-.547-1.188-.88-1.594-.875zm4.938 1.25c-.383-.05-.805.704-.938 1.688-.133.985.055 1.824.438 1.875.382.051.804-.703.937-1.687.133-.985-.055-1.824-.438-1.875zm-4.75 2.407c-.356.008-.633.11-.72.313-.167.41.427 1.058 1.345 1.437.917.379 1.8.348 1.968-.063.168-.41-.426-1.058-1.343-1.437a3.113 3.113 0 0 0-1.25-.25zm5.406 2.281c-1.051 0-1.907.34-1.907.782 0 .44.856.812 1.907.812 1.05 0 1.906-.371 1.906-.813 0-.44-.855-.78-1.906-.78z"/></svg>