<svg xmlns="http://www.w3.org/2000/svg" viewBox="0 0 40 40"><path d="M35.191 30.54c-.87-1.477-2.058-2.392-2.652-2.044-.59.352-.36 1.832.512 3.309.875 1.476 2.058 2.39 2.652 2.043.59-.352.363-1.832-.512-3.309zm-6.523 1.19c-1.473-.609-2.875-.59-3.14.047-.262.633.718 1.641 2.187 2.25 1.473.61 2.879.59 3.14-.043.266-.632-.714-1.644-2.187-2.254zM36.012 37c-1.66-.012-3.004.426-3.008.977C33 38.53 34.34 38.988 35.996 39c1.656.012 3.004-.426 3.008-.977.004-.554-1.336-1.011-2.992-1.023z" fill="#4788c7"/><path d="M3.594 20.7a2.42 2.42 0 0 1-1.043-1.552 2.403 2.403 0 0 1 .351-1.832l9.735-14.722A2.44 2.44 0 0 1 14.684 1.5c.476 0 .937.14 1.34.402l20.382 13.586a2.448 2.448 0 0 1 .692 3.387l-3.825 5.785a7.023 7.023 0 0 0-.687-.039c-1.66 0-2.945.758-3.742 2.2a3.787 3.787 0 0 0-1.617-.384c-1.461 0-2.688.946-3.157 2.356a2.746 2.746 0 0 0-.68-.082c-1.495 0-3.156 1.152-3.613 2.805z" fill="#98ccfd"/><path d="M14.684 2c.379 0 .746.11 1.058.316l20.39 13.59a1.947 1.947 0 0 1 .552 2.692l-3.664 5.539c-.149-.008-.29-.016-.43-.016-1.707 0-3.059.715-3.953 2.07a4.227 4.227 0 0 0-1.41-.25c-1.536 0-2.848.899-3.473 2.29a2.853 2.853 0 0 0-.367-.02c-1.5 0-3.149.984-3.864 2.531L3.867 20.282a1.936 1.936 0 0 1-.828-1.235 1.935 1.935 0 0 1 .281-1.457l9.735-14.723c.36-.543.968-.867 1.629-.867m0-1c-.957 0-1.899.465-2.461 1.316L2.484 17.04a2.951 2.951 0 0 0 .832 4.074l16.84 11.258c.024-1.816 1.758-3.16 3.23-3.16.372 0 .723.086 1.032.266.254-1.543 1.422-2.536 2.809-2.536.59 0 1.218.18 1.832.57.851-1.956 2.332-2.39 3.53-2.39.337 0 .653.035.927.082l4-6.05a2.953 2.953 0 0 0-.832-4.079L16.297 1.484A2.918 2.918 0 0 0 14.684 1z" fill="#4788c7"/><path d="M25.14 18.457s2.204 2.277.145 4.523c-2.047 2.25-4.64-.03-4.64-.03s-1.63 3.163-4.344 1.632c-2.715-1.535-1.399-4.43-1.399-4.43s-3.062-.746-2.894-3.625c.164-2.882 3.773-2.703 3.773-2.703s-.414-3.347 2.559-3.87c2.973-.524 3.73 2.757 3.73 2.757s2.918-1.688 4.477 1.23c1.558 2.922-1.406 4.516-1.406 4.516z" fill="#fff"/><path d="M21.707 16.324a2.497 2.497 0 0 0-3.383-1.027 2.492 2.492 0 0 0-1.027 3.379 2.498 2.498 0 1 0 4.41-2.352z" fill="#b6dcfe"/></svg>