<svg xmlns="http://www.w3.org/2000/svg" viewBox="0 0 26 26"><path d="M4 0c-.523 0-1.059.184-1.438.563C2.184.94 2 1.477 2 2v19c0 .523.184 1.059.563 1.438.378.378.914.562 1.437.562h1v1c0 .523.184 1.059.563 1.438.378.378.914.562 1.437.562h15c.523 0 1.059-.184 1.438-.563.378-.378.562-.914.562-1.437V5c0-.523-.184-1.059-.563-1.438C23.06 3.184 22.523 3 22 3h-1V2c0-.523-.184-1.059-.563-1.438C20.06.184 19.523 0 19 0zm0 2h15v1.688a1.025 1.025 0 0 0 0 .593V21H4zm6 3l.406 8h2.188L13 5zm11 0h1v19H7v-1h12c.523 0 1.059-.184 1.438-.563.378-.378.562-.914.562-1.437zm-9.5 9.688A1.32 1.32 0 0 0 10.187 16a1.32 1.32 0 0 0 1.313 1.313A1.32 1.32 0 0 0 12.813 16a1.32 1.32 0 0 0-1.313-1.313z"/></svg>