<svg xmlns="http://www.w3.org/2000/svg" viewBox="0 0 48 48"><path d="M31.273 11.273C31.273 15.29 24 24 24 24s-7.273-8.71-7.273-12.727A7.275 7.275 0 0 1 24 4a7.275 7.275 0 0 1 7.273 7.273z" fill="#ffd54f"/><path d="M14.145 13.148C17.965 14.391 24 24 24 24s-10.531 4.227-14.352 2.984A7.271 7.271 0 0 1 4.98 17.82c1.239-3.82 5.344-5.91 9.165-4.672z" fill="#ffd54f"/><path d="M10.637 30.023C12.997 26.773 24 24 24 24s.766 11.32-1.598 14.57a7.275 7.275 0 0 1-10.16 1.61 7.267 7.267 0 0 1-1.605-10.157z" fill="#ffd54f"/><path d="M25.598 38.57C23.234 35.32 24 24 24 24s11.004 2.773 13.363 6.023a7.266 7.266 0 0 1-1.605 10.157 7.275 7.275 0 0 1-10.16-1.61z" fill="#ffd54f"/><path d="M38.352 26.984C34.532 28.227 24 24 24 24s6.035-9.61 9.855-10.852c3.82-1.238 7.926.852 9.165 4.672a7.271 7.271 0 0 1-4.668 9.164z" fill="#ffd54f"/><path d="M20 11.273C20 17.433 24 24 24 24s-7.273-8.71-7.273-12.727A7.275 7.275 0 0 1 24 4s-4 1.629-4 7.273zm-9.34 12.598C16.52 25.773 24 24 24 24s-10.531 4.227-14.352 2.984A7.271 7.271 0 0 1 4.98 17.82s.31 4.309 5.68 6.051zm9.094 12.777C23.375 31.664 24 24 24 24s.766 11.32-1.598 14.57a7.275 7.275 0 0 1-10.16 1.61s4.195 1.035 7.512-3.532zm14.965-4.703C31.098 26.961 24 24 24 24s11.004 2.773 13.363 6.023a7.266 7.266 0 0 1-1.605 10.157s2.277-3.668-1.04-8.235zm.148-15.683C29.007 18.168 24 24 24 24s6.035-9.61 9.855-10.852c3.82-1.238 7.926.852 9.165 4.672 0 0-2.782-3.3-8.153-1.558z" fill="#ffca28"/><path d="M26.273 15.996C26.273 17.254 24 24 24 24s-2.273-6.746-2.273-8.004A2.276 2.276 0 0 1 24 13.723a2.276 2.276 0 0 1 2.273 2.273zm-9.183 3.367C18.285 19.753 24 24 24 24s-7.121.074-8.313-.313a2.272 2.272 0 0 1-1.46-2.863 2.276 2.276 0 0 1 2.863-1.46zm.367 9.777C18.195 28.122 24 24 24 24s-2.129 6.797-2.867 7.813a2.268 2.268 0 0 1-3.172.5 2.27 2.27 0 0 1-.504-3.172zm9.41 2.673C26.13 30.797 24 24 24 24s5.805 4.121 6.543 5.14a2.27 2.27 0 0 1-.504 3.172 2.271 2.271 0 0 1-3.172-.5zm5.446-8.125C31.12 24.073 24 24 24 24s5.715-4.246 6.91-4.637a2.273 2.273 0 0 1 1.402 4.325z" fill="#e91e63"/></svg>