<svg xmlns="http://www.w3.org/2000/svg" viewBox="0 0 50 50"><path d="M28.906 1.344a1.002 1.002 0 0 0-.75 1.406c.543 1.309.535 2.34.282 3.438-.254 1.097-.801 2.214-1.22 3.5-.398 1.226-.66 2.62-.374 4.187-1.852-1.535-3.715-2.805-5.657-3.531a9.611 9.611 0 0 0-2.718-.594c-2.778-.195-5.688.875-8.5 3.688C6.16 17.245 3.348 23.886 2 30.311c-.672 3.211-.965 6.36-.75 9.094.215 2.735.902 5.121 2.438 6.657 3 3 8.91 3.41 15.187 2.25 6.277-1.16 12.992-4.04 17.438-8.563 3.71-3.781 4.39-7.684 3.062-11.25-.555-1.488-1.41-2.926-2.469-4.344 1.215.399 2.399.582 3.563.532 3.32-.149 6.218-2.098 8.281-5.094a1.001 1.001 0 0 0-1.063-1.532c-1.957.508-3.906.899-5.468.844-1.215-.043-2.067-.394-2.75-1 2.008-2.133 2.886-4.843 2.906-7.375.02-2.855-.91-5.504-2.5-7.094a1.002 1.002 0 0 0-1.688.688c-.015 1.746-.632 4.18-1.593 6-.48.91-1.047 1.648-1.625 2.125-.227.188-.438.145-.657.25.141-1.574.27-3.172-.093-4.813-.473-2.152-1.809-4.277-4.563-6.156A1.01 1.01 0 0 0 29 1.344h-.094zm1.625 3.687c.883 1.012 1.489 2.043 1.719 3.094.375 1.695.152 3.598-.031 5.688a1.001 1.001 0 0 0 .906 1.062c1.176.094 2.258-.348 3.125-1.063.867-.714 1.555-1.675 2.125-2.75.652-1.23 1.074-2.613 1.375-3.968a9.822 9.822 0 0 1 .625 3.437c-.016 2.39-.848 4.86-2.969 6.656a1.002 1.002 0 0 0-.187 1.344c1.136 1.664 3.011 2.309 4.937 2.375.883.032 1.793-.047 2.719-.187-1.36 1.11-2.852 1.894-4.5 1.968-2.602.114-5.633-1.14-8.844-4.53-1.722-1.817-2.46-3.262-2.718-4.47-.258-1.207-.055-2.246.312-3.374.367-1.13.934-2.317 1.25-3.688.117-.5.14-1.043.156-1.594zM17.47 11.656a6.3 6.3 0 0 1 .812.031 8.81 8.81 0 0 1 2.219.532c2.984 1.117 6.176 3.984 9.594 7.406 3.418 3.418 6.297 6.617 7.406 9.594 1.11 2.976.727 5.71-2.625 9.125-4.031 4.105-10.402 6.902-16.344 8-5.941 1.097-11.39.328-13.437-1.719-.992-.992-1.653-2.902-1.844-5.375-.191-2.473.047-5.465.688-8.531 1.285-6.133 4.148-12.555 7.468-15.875 2.219-2.219 4.153-3.133 6.063-3.188zm2.468 2.125c-.449 0-1.003.153-1.53.438-1.06.578-1.657 1.488-1.345 2.062.313.574 1.442.578 2.5 0 1.063-.574 1.657-1.488 1.344-2.062-.156-.285-.52-.438-.968-.438zm7 4c-.5.028-1.128.309-1.687.813-.898.808-1.285 1.86-.844 2.343.438.485 1.508.22 2.407-.593.89-.801 1.285-1.864.843-2.344-.164-.184-.418-.234-.718-.219zm-14.125 2.657c-.539-.004-1.25.417-1.812 1.125-.746.945-.918 2.03-.406 2.437.515.406 1.535-.023 2.281-.969.746-.945.918-2.035.406-2.437a.745.745 0 0 0-.469-.157zm6.97 1.53c-.5.055-1.095.372-1.626.907-.851.852-1.183 1.914-.718 2.375.464.465 1.523.133 2.375-.719.851-.851 1.18-1.914.718-2.375-.172-.172-.449-.218-.75-.187zm7.03 4.22c-.5.054-1.125.375-1.656.906-.851.851-1.152 1.914-.687 2.375.465.46 1.523.164 2.375-.688.851-.851 1.183-1.914.718-2.375-.171-.172-.449-.25-.75-.218zm-15.468 1.406c-.5.054-1.125.375-1.656.906-.852.852-1.149 1.914-.688 2.375.46.46 1.523.164 2.375-.688.852-.851 1.148-1.914.688-2.375-.172-.171-.418-.25-.72-.218zm22.312 2.593c-.535.083-1.191.622-1.625 1.407-.586 1.054-.574 2.156 0 2.468.57.317 1.508-.289 2.094-1.343.582-1.051.57-2.157 0-2.469-.145-.082-.29-.09-.469-.063zm-15.281 1.625c-.5.055-1.094.375-1.625.907-.852.847-1.184 1.91-.719 2.375.461.46 1.524.168 2.375-.688.852-.851 1.18-1.91.719-2.375-.172-.172-.45-.25-.75-.218zm-10.094 4c-.531.083-1.156.614-1.594 1.407-.59 1.047-.605 2.183-.03 2.5.57.316 1.503-.29 2.093-1.344.582-1.055.602-2.184.031-2.5a.8.8 0 0 0-.5-.063zm17.219.47c-.45.019-.984.187-1.5.5-1.027.624-1.59 1.597-1.25 2.156.34.554 1.438.503 2.469-.126 1.035-.624 1.62-1.593 1.281-2.156-.168-.277-.55-.394-1-.375zM15.625 40.5c-.45.023-.984.188-1.5.5-1.027.625-1.559 1.598-1.219 2.156.34.563 1.438.5 2.469-.125 1.031-.629 1.594-1.593 1.25-2.156-.168-.277-.55-.398-1-.375z"/></svg>