<svg xmlns="http://www.w3.org/2000/svg" viewBox="0 0 64 64"><path d="M45.14 3.91c-.421-.058-.84.16-1.03.54-.051.077-.833 1.671-.989 3.542-2.75-.762-5.66-.953-5.809-.96a1.007 1.007 0 0 0-1.062.929c0 .11-.07 1.348.18 2.969-1.64-.86-3.25-1.508-4.832-1.93-5.868-1.559-11.16-.027-15.727 4.55C11.29 18.122 7.321 26.63 5.5 35.739c-1.922 9.582-.95 17.41 2.59 20.942 2.34 2.34 6.558 3.558 11.922 3.558 2.738 0 5.777-.32 9.02-.968 9.109-1.82 17.62-5.79 22.187-10.368 4.57-4.57 6.101-9.863 4.55-15.73a22.996 22.996 0 0 0-1.32-3.61c1.43.418 2.531.528 2.63.536h.093a.983.983 0 0 0 .898-.578c.09-.192 2.09-4.598-.03-8.45 2.269-1.328 3.542-3.77 3.6-3.89.22-.43.098-.961-.292-1.258-.11-.082-2.168-1.594-4.668-1.883 1.511-3.371.73-7.297.691-7.488-.101-.48-.531-.832-1.012-.801-.129.012-2.898.11-5.511 1.422-1.61-2.66-5.535-3.242-5.707-3.262zm.458 2.14c1.043.27 2.894.93 3.613 2.29.078.148.14.308.21.527.079.301.31.551.61.664.297.098.63.07.89-.101 1.599-1.04 3.517-1.442 4.618-1.59.148 1.488.211 4.531-1.43 6.629a1.008 1.008 0 0 0-.07 1.14c.219.352.64.54 1.05.461 1.622-.32 3.333.438 4.29.97-.512.741-1.414 1.839-2.606 2.444a10.528 10.528 0 0 0-1.082-1.015 1 1 0 1 0-1.246 1.562c.465.367.903.805 1.305 1.297.043.05.102.078.156.121.02.028.047.059.063.09 1.601 2.29.96 5.16.543 6.461-.813-.152-2.16-.473-3.5-1.121-1.64-2.738-3.903-5.54-6.742-8.379-2.54-2.543-5.051-4.61-7.508-6.21-.364-1.2-.473-2.372-.512-3.173 1.34.153 3.66.492 5.531 1.18.035.015.078.02.117.031.008 0 .008.008.016.012 2.074.926 3.059 3.937 3.07 3.969a.996.996 0 0 0 1.25.644.999.999 0 0 0 .657-1.25c-.051-.152-1.157-3.566-3.786-5-.011-1.004.266-2.004.493-2.652zm-18.285 4.372c1.226 0 2.476.168 3.765.515 1.942.524 3.953 1.41 6 2.672 2.531 1.54 5.133 3.653 7.781 6.301 2.891 2.89 5.133 5.719 6.703 8.461 1.06 1.817 1.817 3.59 2.266 5.317 1.363 5.12.012 9.773-4.016 13.8-9.44 9.434-33.921 14.16-40.312 7.782-6.379-6.391-1.66-30.868 7.781-40.31 3.02-3.019 6.38-4.538 10.032-4.538zm.488 2.808a.996.996 0 0 0-.977 1.02c.012.555.504.984 1.02.98.664-.02 1.347.028 2.039.13a.995.995 0 0 0 1.133-.844.994.994 0 0 0-.84-1.133 14.554 14.554 0 0 0-2.375-.153zm-3.043.512c-.13-.012-.262 0-.395.04-2.117.652-4.086 1.882-5.86 3.655a18.232 18.232 0 0 0-1.757 2.051 1 1 0 1 0 .8 1.598c.31 0 .61-.14.81-.402a15.875 15.875 0 0 1 1.562-1.836c1.539-1.54 3.23-2.598 5.035-3.157a.996.996 0 0 0 .66-1.25 1 1 0 0 0-.855-.699zm-.528 6.305a1.021 1.021 0 0 0-.707.297l-1.414 1.41a1.004 1.004 0 0 0 .707 1.71c.258 0 .512-.1.707-.292l1.415-1.418a.995.995 0 0 0 0-1.41.988.988 0 0 0-.708-.297zm8.899 1a1.021 1.021 0 0 0-.707.297l-1.414 1.41a1.004 1.004 0 0 0 .707 1.71c.258 0 .512-.1.707-.292l1.414-1.418a.995.995 0 0 0 0-1.41.988.988 0 0 0-.707-.297zm8.195 4.058a1 1 0 0 0-.71.29l-1.41 1.418a.988.988 0 0 0 0 1.41.98.98 0 0 0 .702.293.987.987 0 0 0 .707-.293l1.418-1.41a1.012 1.012 0 0 0 0-1.418 1 1 0 0 0-.707-.29zm-11.73 5.551a.984.984 0 0 0-.707.293l-1.414 1.41a1.004 1.004 0 0 0 0 1.418 1.006 1.006 0 0 0 1.414 0L30.3 32.36a.995.995 0 0 0 0-1.41.984.984 0 0 0-.707-.293zm-10.73.106c-.255 0-.509.097-.708.293l-1.41 1.414a.993.993 0 0 0 0 1.414.99.99 0 0 0 .707.293.985.985 0 0 0 .703-.293l1.418-1.414a1 1 0 0 0-.71-1.707zm20.34 4.672a.987.987 0 0 0-.708.293l-1.418 1.414a1 1 0 0 0 .707 1.707c.258 0 .516-.098.711-.293l1.41-1.414a.993.993 0 0 0 0-1.414.991.991 0 0 0-.703-.293zm9.483.586a.993.993 0 0 0-.707.292l-1.417 1.415a1 1 0 0 0 .707 1.707c.257 0 .515-.098.71-.293l1.41-1.414a.993.993 0 0 0 0-1.414.991.991 0 0 0-.703-.293zm-17.093 3.535a1 1 0 0 0-.707.293l-1.414 1.414a1 1 0 1 0 1.414 1.414l1.414-1.414a1 1 0 0 0-.707-1.707zm-8.192.64a.993.993 0 0 0-.707.293l-1.414 1.414a.993.993 0 0 0 0 1.414c.192.196.45.293.703.293a.987.987 0 0 0 .707-.293l1.418-1.414a1 1 0 0 0-.707-1.707zm20.524 2.48a.991.991 0 0 0-.703.294l-1.414 1.414a.993.993 0 0 0 0 1.414.987.987 0 0 0 .707.293.985.985 0 0 0 .703-.293l1.418-1.414a1 1 0 0 0-.711-1.707zm-30.598 1.587a.985.985 0 0 0-.703.293l-1.414 1.414a1 1 0 1 0 1.414 1.414l1.41-1.414a.993.993 0 0 0 0-1.414.993.993 0 0 0-.707-.293zm19.629 2.656c-.254 0-.508.098-.707.293l-1.41 1.414a.993.993 0 0 0 0 1.414c.191.195.45.293.707.293a.985.985 0 0 0 .703-.293l1.414-1.414a1 1 0 0 0-.707-1.707zm-12.094.844c-.254 0-.508.097-.707.293l-1.41 1.414a.993.993 0 0 0 0 1.414.99.99 0 0 0 .707.293.985.985 0 0 0 .703-.293l1.418-1.414a1 1 0 0 0-.71-1.707z"/></svg>