<svg xmlns="http://www.w3.org/2000/svg" viewBox="0 0 50 50"><path d="M29.063 1.344a.992.992 0 0 0-.594.218 1.044 1.044 0 0 0-.313 1.188c.871 2.098.27 3.719-.437 5.594-.352.933-.723 1.883-.907 2.937 2.075 1.563 4.106 3.512 6.125 5.531 2.122 2.122 4.793 4.778 6.688 7.844.148.008.293.032.438.032 3.347 0 6.425-1.81 8.687-5.094a.981.981 0 0 0 0-1.125.992.992 0 0 0-1.063-.407c-1.503.391-3.457.844-5.156.844-1.383 0-2.383-.273-3.093-.875 1.78-1.847 2.824-4.343 2.937-7.093.121-2.938-.871-5.872-2.5-7.5a.963.963 0 0 0-1.063-.22.993.993 0 0 0-.624.907c-.032 3.055-1.715 7.55-3.876 8.563.344-3.782.461-7.66-4.656-11.157a.983.983 0 0 0-.593-.187zM17.75 9.688c-2.695 0-5.258 1.222-7.781 3.75C2.75 20.655-1.992 40.383 3.688 46.062 6.02 48.395 10.03 48.876 13 48.876c6.898 0 17.148-2.852 23.313-9.125 8.3-8.45.738-16.012-4.782-21.531-4.496-4.496-8.933-8.532-13.781-8.532zm2.188 4.093c.449 0 .812.153.968.438.313.574-.281 1.488-1.343 2.062-1.06.578-2.188.574-2.5 0-.313-.574.285-1.484 1.343-2.062.528-.285 1.082-.438 1.532-.438zm7 4c.3-.015.554.035.718.219.442.48.047 1.543-.843 2.344-.899.812-1.97 1.078-2.407.593-.441-.484-.054-1.535.844-2.343.559-.504 1.188-.785 1.688-.813zm-14.125 2.657c.18 0 .34.054.468.156.512.402.34 1.492-.406 2.437-.746.946-1.766 1.375-2.281.969-.512-.406-.34-1.492.406-2.438.563-.707 1.273-1.128 1.813-1.125zm6.968 1.53c.301-.03.578.016.75.188.461.461.133 1.524-.718 2.375-.852.852-1.91 1.184-2.375.719-.465-.46-.133-1.523.718-2.375.532-.535 1.125-.852 1.625-.906zm7.063 4.22c.3-.032.547.015.718.187.461.46.165 1.555-.687 2.406-.852.856-1.914 1.149-2.375.688-.465-.465-.164-1.524.688-2.375.53-.532 1.156-.852 1.656-.907zm-15.5 1.406c.3-.032.547.047.719.218.46.461.164 1.524-.688 2.375-.852.852-1.945 1.149-2.406.688-.461-.465-.133-1.523.719-2.375.53-.531 1.156-.852 1.656-.906zm22.312 2.593c.18-.027.324-.019.469.063.57.309.55 1.422-.031 2.469-.586 1.054-1.492 1.66-2.063 1.343-.574-.312-.586-1.414 0-2.468.434-.785 1.09-1.324 1.625-1.407zm-15.281 1.625c.3-.03.578.047.75.22.46.464.133 1.523-.719 2.374-.851.856-1.914 1.149-2.375.688-.465-.465-.133-1.528.719-2.375.531-.532 1.125-.852 1.625-.907zm-10.094 4a.8.8 0 0 1 .5.063c.57.316.551 1.441-.031 2.5-.59 1.055-1.523 1.656-2.094 1.344-.574-.317-.558-1.453.032-2.5.437-.793 1.062-1.324 1.593-1.407zm17.219.47c.45-.02.832.097 1 .374.34.563-.246 1.535-1.281 2.157-1.032.628-2.13.683-2.469.124-.34-.558.223-1.53 1.25-2.156.516-.312 1.05-.48 1.5-.5zM15.625 40.5c.45-.023.832.098 1 .375.344.563-.219 1.527-1.25 2.156-1.031.625-2.129.688-2.469.125-.34-.558.192-1.531 1.219-2.156.516-.313 1.05-.477 1.5-.5z"/></svg>