<svg xmlns="http://www.w3.org/2000/svg" viewBox="0 0 32 32"><path d="M12.375 4a2.33 2.33 0 0 0-1.625.656c-.477.461-.75 1.164-.75 1.969 0 1.012.379 2.05.875 3.125.496 1.074 1.14 2.176 1.781 3.188.106.167.207.308.313.468-.063-.023-.121-.039-.188-.062-1.125-.41-2.344-.805-3.5-1.063-1.156-.258-2.23-.402-3.219-.187-.808.176-1.449.64-1.78 1.219a2.45 2.45 0 0 0-.25 1.75c.19.878.66 1.437 1 1.874.34.438.59.774.718 1.375.129.602.035.922-.094 1.47-.129.546-.328 1.347-.125 2.28.117.536.45 1.07 1 1.438.551.367 1.305.484 2.094.313.988-.215 1.898-.786 2.844-1.5.945-.715 1.898-1.598 2.75-2.438.281-.277.523-.547.781-.813V20c0 2.14.145 4.04 1.031 5.563C16.918 27.085 18.641 28 21 28v-2c-1.918 0-2.707-.504-3.25-1.438C17.207 23.63 17 22.027 17 20v-.938c.34.352.617.66 1 1.032 1.668 1.62 3.473 3.304 5.375 3.718.79.172 1.543.055 2.094-.312.55-.367.883-.902 1-1.438.203-.933.004-1.734-.125-2.28-.13-.536-.215-.86-.094-1.438v-.032c.133-.601.379-.937.719-1.375.34-.437.808-.996 1-1.875a2.45 2.45 0 0 0-.25-1.75c-.332-.578-.973-1.042-1.782-1.218-.988-.215-2.062-.07-3.218.187-1.157.258-2.407.653-3.532 1.063-.054.02-.101.043-.156.062.106-.16.207-.3.313-.469.64-1.011 1.285-2.113 1.781-3.187.496-1.074.875-2.113.875-3.125 0-.824-.316-1.55-.813-2A2.454 2.454 0 0 0 19.532 4c-.898 0-1.562.355-2.062.594-.5.238-.852.406-1.469.406-.617 0-.93-.164-1.438-.406-.507-.242-1.23-.594-2.187-.594zm0 2c.5 0 .785.152 1.313.406C14.214 6.66 14.98 7 16 7c1.02 0 1.8-.336 2.344-.594.543-.258.808-.406 1.187-.406a.58.58 0 0 1 .313.125c.078.07.156.14.156.5 0 .441-.246 1.328-.688 2.281-.44.953-1.046 2.004-1.656 2.969-.828 1.313-1.207 1.77-1.656 2.375-.45-.605-.828-1.063-1.656-2.375-.61-.965-1.215-2.016-1.656-2.969C12.245 7.953 12 7.062 12 6.625c0-.379.094-.473.156-.531A.318.318 0 0 1 12.375 6zm-5.469 8.031c.48-.015 1.168.047 1.938.219 1.023.227 2.207.578 3.281.969 1.45.527 1.969.812 2.656 1.125-.496.566-.87 1.043-1.969 2.125-.812.8-1.726 1.617-2.562 2.25-.836.633-1.633 1.062-2.063 1.156-.37.082-.492.016-.562-.031-.07-.047-.11-.14-.125-.219-.105-.492-.043-.809.094-1.375.136-.566.312-1.379.093-2.375-.214-.996-.695-1.684-1.062-2.156-.367-.473-.574-.723-.656-1.094a.549.549 0 0 1 .062-.313c.051-.09.117-.171.469-.25a2.32 2.32 0 0 1 .406-.03zm17.625 0c.41-.031.754-.015.969.031.352.079.418.16.469.25.05.09.078.235.062.313-.082.371-.289.621-.656 1.094-.367.472-.844 1.16-1.063 2.156-.218.996-.042 1.809.094 2.375.137.566.2.883.094 1.375-.016.078-.055.172-.125.219-.07.047-.191.113-.563.031-.824-.18-2.851-1.676-4.437-3.219-1.105-1.074-1.605-1.687-2.156-2.312.687-.313 1.207-.598 2.656-1.125a26.876 26.876 0 0 1 3.25-.969c.512-.113.996-.188 1.406-.219z"/></svg>