<svg xmlns="http://www.w3.org/2000/svg" viewBox="0 0 24 24"><path d="M9.438 2a2.674 2.674 0 0 0-1.5.5c-.641.46-.918 1.184-1.032 1.844a.496.496 0 0 1-.562.406c-.692-.09-1.496 0-2.063.406-1.218.88-1.52 2.61-.656 3.813.98 1.36 5.035 2.113 6.969 2.406-2.004.094-6.281.621-7.406 1.875-.989 1.102-.899 2.844.218 3.844.59.527 1.328.656 2 .625a.512.512 0 0 1 .532.468c.058.692.324 1.442.843 1.907 1.117 1.004 2.856.914 3.844-.188 1.227-1.367 1.168-5.078 1.094-6.718-.02-.918 1.097-1.27 1.625-1.032 1.531.59 4.906 1.793 6.594 1.063 1.359-.59 2.003-2.215 1.406-3.594-.278-.64-.926-1.129-1.563-1.406a.522.522 0 0 1-.281-.656c.242-.625.344-1.368.031-2.094-.597-1.375-2.203-2.028-3.562-1.438-1.547.668-3.399 4.66-4.125 6.532-.028-.008-.012-.051 0-.063.336-1.926.886-6.016-.094-7.375A2.754 2.754 0 0 0 9.437 2zm4.53 11.469a1.017 1.017 0 0 0-1 1.563c1.415 2.14 3.637 5.808 7.126 6.75a1.505 1.505 0 0 0 1.812-1v-.032a1.527 1.527 0 0 0-1.062-1.969c-2.766-.742-4.903-3.215-6.219-4.937a.996.996 0 0 0-.656-.375z"/></svg>