<svg xmlns="http://www.w3.org/2000/svg" viewBox="0 0 40 40"><path d="M20 15s-1.168 13.957 8.5 22.5" fill="none" stroke-linecap="round" stroke="#4788c7" stroke-miterlimit="10"/><path d="M28.5 38a.497.497 0 0 1-.332-.125C18.426 29.265 18.988 15.145 19 15c.023-.273.797-.52 1.04-.496.276.02.983.223.96.496-.012.137-1.527 13.855 7.832 22.125A.5.5 0 0 1 28.5 38z" fill="#4788c7"/><path d="M20 16.73c-1.313-1.546-3.629-4.44-5.363-6.609a269.746 269.746 0 0 0-1.965-2.445c-1.578-1.934-1.574-4.406.008-6.02A3.821 3.821 0 0 1 15.422.5c1.058 0 2.098.418 2.926 1.176.21.191.437.43.71.71.172.176.93.938.93.938l.38-.355c.21-.211.402-.406.573-.586.274-.278.5-.516.715-.711C22.48.918 23.52.5 24.578.5a3.82 3.82 0 0 1 2.742 1.156c1.582 1.61 1.586 4.086.008 6.02-.418.508-1.129 1.398-1.965 2.445-1.734 2.168-4.05 5.063-5.363 6.61z" fill="#98ccfd"/><path d="M24.578 1c.899 0 1.746.355 2.383 1.008 1.398 1.422 1.39 3.62-.02 5.351-.418.508-1.128 1.399-1.964 2.446-1.579 1.968-3.633 4.539-4.977 6.148-1.344-1.61-3.398-4.18-4.977-6.148-.84-1.047-1.55-1.938-1.964-2.446-1.41-1.73-1.418-3.93-.02-5.351A3.307 3.307 0 0 1 15.422 1c.933 0 1.851.371 2.586 1.043.203.187.426.418.691.687.172.18.367.38.578.594L19.98 4l.032.031.707-.707c.215-.215.406-.414.582-.594.262-.27.484-.5.691-.687C22.727 1.371 23.645 1 24.578 1m0-1c-1.156 0-2.324.445-3.262 1.305-.351.324-.753.761-1.304 1.312-.004-.004-.008-.008-.012-.015-.004.007-.008.011-.012.015-.55-.55-.953-.988-1.304-1.312C17.746.449 16.578 0 15.422 0c-1.121 0-2.23.426-3.098 1.305-1.758 1.789-1.761 4.574-.043 6.687C13.661 9.68 18.277 15.523 20 17.5c1.723-1.977 6.34-7.82 7.715-9.508 1.723-2.113 1.715-4.898-.04-6.687A4.313 4.313 0 0 0 24.579 0z" fill="#4788c7"/><path d="M7.55 25.5a4.11 4.11 0 0 1-2.894-1.18c-1.55-1.527-1.543-3.96.02-5.668.191-.21.43-.437.71-.71.176-.172.938-.93.938-.93l-.355-.38a71.32 71.32 0 0 0-.582-.573c-.282-.27-.52-.5-.711-.711-1.567-1.707-1.57-4.145-.02-5.668A4.11 4.11 0 0 1 7.551 8.5c1.09 0 2.199.414 3.125 1.172.508.418 1.398 1.129 2.445 1.965 2.168 1.734 5.063 4.054 6.61 5.363-1.547 1.313-4.442 3.629-6.61 5.363a269.746 269.746 0 0 0-2.445 1.965C9.75 25.086 8.64 25.5 7.55 25.5z" fill="#98ccfd"/><path d="M7.55 9c.973 0 1.973.375 2.81 1.059a244.13 244.13 0 0 0 2.445 1.964c1.968 1.579 4.543 3.633 6.148 4.977-1.605 1.344-4.18 3.398-6.148 4.977-1.047.84-1.938 1.55-2.446 1.964C9.523 24.625 8.523 25 7.551 25c-.973 0-1.852-.36-2.543-1.04-1.356-1.331-1.34-3.468.035-4.968.187-.203.418-.426.687-.691.18-.172.38-.367.594-.578L7 17.02l.031-.032-.707-.707c-.215-.215-.414-.406-.594-.582-.27-.261-.5-.484-.687-.691-1.379-1.5-1.395-3.637-.035-4.969A3.558 3.558 0 0 1 7.55 9m0-1a4.594 4.594 0 0 0-3.246 1.324c-1.785 1.758-1.692 4.512 0 6.36.324.351.761.754 1.312 1.304-.004.004-.008.008-.015.012.007.004.011.008.015.012-.55.55-.988.953-1.312 1.304-1.692 1.848-1.785 4.606 0 6.36A4.594 4.594 0 0 0 7.55 26c1.176 0 2.39-.43 3.441-1.285C12.68 23.34 18.523 18.723 20.5 17c-1.977-1.723-7.82-6.34-9.508-7.715C9.942 8.43 8.727 8 7.551 8z" fill="#4788c7"/><path d="M32.45 25.5c-1.09 0-2.2-.414-3.126-1.172a269.746 269.746 0 0 0-2.445-1.965c-2.168-1.734-5.063-4.054-6.61-5.363 1.547-1.313 4.442-3.629 6.61-5.363a269.746 269.746 0 0 0 2.445-1.965C30.25 8.914 31.36 8.5 32.45 8.5a4.11 4.11 0 0 1 2.895 1.18c1.55 1.527 1.543 3.96-.02 5.668-.191.21-.43.437-.71.71-.176.172-.938.93-.938.93l.355.38c.211.21.407.402.586.573.278.274.516.504.711.715 1.563 1.703 1.57 4.14.016 5.664a4.11 4.11 0 0 1-2.895 1.18z" fill="#98ccfd"/><path d="M32.45 9c.972 0 1.85.36 2.542 1.04 1.356 1.331 1.34 3.468-.035 4.968-.187.203-.418.426-.687.691-.18.172-.38.367-.594.578L33 16.98l-.031.032.707.707c.215.215.414.406.594.582.27.262.5.484.687.691 1.379 1.5 1.395 3.637.035 4.969A3.558 3.558 0 0 1 32.45 25c-.972 0-1.972-.375-2.808-1.059-.508-.418-1.399-1.128-2.446-1.964-1.968-1.579-4.543-3.633-6.148-4.977 1.605-1.344 4.18-3.398 6.148-4.977 1.047-.84 1.938-1.55 2.446-1.964C30.477 9.375 31.477 9 32.449 9m0-1c-1.176 0-2.39.43-3.441 1.285C27.32 10.66 21.477 15.277 19.5 17c1.977 1.723 7.82 6.34 9.508 7.715 1.05.855 2.265 1.285 3.441 1.285a4.594 4.594 0 0 0 3.246-1.324c1.785-1.758 1.692-4.512 0-6.36-.324-.351-.761-.753-1.312-1.304a.04.04 0 0 0 .015-.012l-.015-.016c.55-.547.988-.949 1.312-1.3 1.692-1.848 1.785-4.606 0-6.36A4.594 4.594 0 0 0 32.45 8z" fill="#4788c7"/><path d="M13.453 21.453c.758-.601 1.563-1.25 2.356-1.887L13.242 17l2.567-2.566c-.793-.637-1.598-1.286-2.356-1.887L9 17zm13.094-8.906c-.758.601-1.563 1.25-2.356 1.887L26.758 17l-2.567 2.566c.793.637 1.598 1.286 2.352 1.887L31 17zm-11-2.094c.601.758 1.25 1.563 1.887 2.356L20 10.242l2.566 2.567c.637-.793 1.286-1.598 1.887-2.352L20 6z" fill="#fff"/></svg>