<svg xmlns="http://www.w3.org/2000/svg" viewBox="0 0 64 64"><path d="M61 33c0 13.809-6 30-29 30S3 46.809 3 33c0-13.809 13-22 29-22s29 8.191 29 22z" fill="#ed7899"/><path d="M23.55 58.719a3.08 3.08 0 0 1-1.6 2.078 3.08 3.08 0 0 1-2.622.094A25.097 25.097 0 0 1 6 48.289a37.824 37.824 0 0 1-2.898-12.578A3.49 3.49 0 0 1 6.59 32a2.48 2.48 0 0 1 2.469 2.358c.441 8.172 3.32 16.903 12.64 20.7a3.143 3.143 0 0 1 1.852 3.66z" fill="#e0678f"/><path d="M61 33c.023 3.64-.438 7.27-1.379 10.79a2.49 2.49 0 0 1-3.55 1.57 2.465 2.465 0 0 1-1.231-2.848A36.338 36.338 0 0 0 56 33a14.79 14.79 0 0 0-5-11 2.464 2.464 0 0 1-.078-3.578 2.453 2.453 0 0 1 3.348-.14A19.116 19.116 0 0 1 61 33z" fill="#f283a5"/><path d="M48.2 12.57s-3.688-4.199-8-4a7.858 7.858 0 0 0-3.31.942 7.881 7.881 0 0 1-7.14.199 7.425 7.425 0 0 0-2-.68c-4.281-.761-8.48 2.75-8.48 2.75s1.742 4.73 6 5.489h.378c-1.25 2.539-.207 5.73-.207 5.73s3.637-.52 5.297-3c.5 4.102 4.84 7 4.84 7a13.193 13.193 0 0 0 3-5.55c.223.128.457.23.703.312 2.64.816 5.707-1.5 5.707-1.5a8.986 8.986 0 0 0-2.539-3.774 28.53 28.53 0 0 0 5.75-3.918z" fill="#72caaf"/><path d="M48.719 13.45l.152-.13c.207-.172.336-.418.363-.683a1.02 1.02 0 0 0-.234-.739c-.16-.18-4-4.57-8.82-4.359a9.014 9.014 0 0 0-3.73 1 7.64 7.64 0 0 1-2.45.832 13.824 13.824 0 0 1 3.48-7.812.999.999 0 0 0-1.41-1.367 15.806 15.806 0 0 0-4 9.167 6.303 6.303 0 0 1-1.851-.578A8.739 8.739 0 0 0 27.87 8c-4.691-.828-9.11 2.809-9.293 3-.32.27-.441.715-.297 1.11a.512.512 0 0 1 0 .109C8.29 15.75 2 23.329 2 33c0 9.32 2.922 31 30 31s30-21.68 30-31c0-8.648-5-15.64-13.281-19.55zM27.519 10c.243.043.485.098.72.172a7.06 7.06 0 0 1 1 .418 8.292 8.292 0 0 0 2.632.781c-.008.598.027 1.195.098 1.79A1 1 0 0 0 33 14h.14a.997.997 0 0 0 .669-.39.993.993 0 0 0 .191-.75 12.483 12.483 0 0 1-.07-1.481 9.332 9.332 0 0 0 3.398-1h.113a6.712 6.712 0 0 1 2.778-.777c2.75-.114 5.3 1.847 6.511 3h-.07c-.5.398-1.18.918-1.941 1.437A20.64 20.64 0 0 1 42 15.57a1.007 1.007 0 0 0-.57.801 1 1 0 0 0 .379.899 7.17 7.17 0 0 1 1.902 2.601 7.357 7.357 0 0 1-3 1.05 3.232 3.232 0 0 1-1.16-.12c-1.75-.551-2.903-3-3.2-3.84a1.003 1.003 0 0 0-1.265-.637 1.003 1.003 0 0 0-.637 1.266 9.868 9.868 0 0 0 3 4.308 12.473 12.473 0 0 1-2 3.73c-1.16-1-3.36-3.058-3.68-5.698a1.004 1.004 0 0 0-.757-.852h-.242a1.003 1.003 0 0 0-.82.442 6.683 6.683 0 0 1-3.731 2.34 7.824 7.824 0 0 1 .11-3.56h.343c.383 0 .765-.019 1.148-.062.551-.062.95-.562.883-1.113a1.008 1.008 0 0 0-1.113-.887 8.52 8.52 0 0 1-1.84 0 1.024 1.024 0 0 0-.219 0h-.09a6.67 6.67 0 0 1-4.14-2.867 10.699 10.699 0 0 1-.813-1.32 15.2 15.2 0 0 1 1.614-1A8.87 8.87 0 0 1 27.52 10zM32 62C21.54 62 4 58.23 4 33c0-8.828 5.871-15.762 15.25-19a9.243 9.243 0 0 0 5 4 10.6 10.6 0 0 0 .2 5.29c.148.468.613.76 1.1.69a10.75 10.75 0 0 0 4.63-2A13.748 13.748 0 0 0 35 27.84a1.003 1.003 0 0 0 1.281-.16 14.818 14.818 0 0 0 2.899-4.899h.25l.28.047c.208.016.419.016.63 0h.469A9.9 9.9 0 0 0 45.539 21a.994.994 0 0 0 .34-1.11 10.605 10.605 0 0 0-1.8-3.199A28.253 28.253 0 0 0 47 14.851C55 18.372 60 24.88 60 33c0 25.23-17.54 29-28 29z" fill="#8d6c9f"/><path d="M19.469 51a1.006 1.006 0 0 0-.758-.105c-.258.07-.477.234-.61.464l-1 1.73a.998.998 0 0 0 1.727 1l1-1.73a.998.998 0 0 0-.36-1.359zM15 48.578L13.54 50a1.013 1.013 0 0 0 .026 1.434c.403.39 1.043.379 1.434-.024L16.371 50c.29-.395.254-.938-.082-1.29A1 1 0 0 0 15 48.579zm-1-3.109a1.008 1.008 0 0 0-.61-.469.984.984 0 0 0-.761.102l-1.73 1a1 1 0 0 0 1 1.726l1.73-1a1 1 0 0 0 .371-1.36zm-1.5-3.617a.997.997 0 0 0-1.219-.711l-1.93.507a1 1 0 1 0 .508 1.93l1.93-.508a.997.997 0 0 0 .711-1.218zM11 39c.55 0 1-.45 1-1s-.45-1-1-1H9c-.55 0-1 .45-1 1s.45 1 1 1zm45.672-8.352a1.024 1.024 0 0 0-1.211-.789 1.02 1.02 0 0 0-.79 1.211 16.222 16.222 0 0 1-.433 8.54c-.172.523.114 1.09.637 1.265a1 1 0 0 0 1.266-.637 18.224 18.224 0 0 0 .53-9.59zM55 25.89a24.615 24.615 0 0 0-1.2-2.21 1.002 1.002 0 1 0-1.816-.074c-.175.347-.136.769.106 1.074.402.648.77 1.316 1.101 2 .266.414.79.574 1.243.379.449-.2.687-.692.566-1.168z" fill="#8d6c9f"/></svg>