<svg xmlns="http://www.w3.org/2000/svg" viewBox="0 0 24 24"><path d="M13 2s-.559.844-1 2c-.117.313-.223.656-.313 1C11.07 3.258 8.191 3.535 7 3c0 3.375 3.523 2.207 4.25 2.719C8.422 5.484 7.395 7.395 6 8c3.102 1.566 5.008.063 5.719-1.844-.11.746-.645 4.922 2.281 4.844 0-2.617-.484-3.336-1.313-4.906.008-.004.024.004.032 0 .004.004.027-.004.031 0C13.957 7.594 15.941 9.304 18 8c-.145-.168-1.637-1.695-3.75-2.063C15.836 6.005 16.914 6.13 18 4c-1.367 0-3.262.004-4.688.969A99.587 99.587 0 0 0 15 2zM7 5c-3.914.895-5 4.227-5 8 0 4.953 4.473 9 10 9 4.89 0 10-2.836 10-10 0-2.98-1.172-6.027-4-7-.191.402-.48.785-1 1 .543.188 1.418 1.395 2 2-.313.813-1.805 1.52-4.344 1 .145 1.375.153 2.29 0 2.969C12.57 11.848 11.375 11 10.625 9 8.25 10.5 4.934 8.676 5 8c.875-.605 2-1.832 3-2-.168-.105-.746-.477-1-1z"/></svg>