<svg xmlns="http://www.w3.org/2000/svg" viewBox="0 0 40 40"><path d="M19.773 15.5c-6.71 0-9.671-8.508-10.203-10.234C10.582 4.465 14.684 1.5 20.156 1.5c3.563 0 7.344 1.707 7.344 4.871 0 2.785-3.086 3.313-3.215 3.332l-.441.07.02.45c0 .023.105 2.695-1.348 4.214-.672.708-1.594 1.063-2.743 1.063z" fill="#b6dcfe"/><path d="M20.156 2C23.473 2 27 3.531 27 6.371c0 2.348-2.684 2.82-2.793 2.84l-.883.14.04.891c0 .028.093 2.492-1.212 3.856-.582.605-1.363.902-2.379.902-6.02 0-8.894-7.36-9.617-9.555C11.45 4.47 15.22 2 20.156 2m0-1C13.578 1 9 5.09 9 5.09S11.86 16 19.773 16c4.872 0 4.59-5.805 4.59-5.805S28 9.63 28 6.371C28 3.004 24.223 1 20.156 1z" fill="#4788c7"/><path d="M27.5 23.484c0-9.59-.46-12.902-9.016-15.968" fill="none" stroke-linecap="round" stroke="#4788c7" stroke-miterlimit="10"/><path d="M26.785 35.785a3.574 3.574 0 0 1-3.57-3.57v-.5h-.5a3.582 3.582 0 0 1-3.496-2.844l-.078-.371-.38-.027a3.294 3.294 0 0 1-.593-.082l-.355-.09-.192.316a3.543 3.543 0 0 1-3.05 1.742A3.575 3.575 0 0 1 11 26.785a3.574 3.574 0 0 1 3.57-3.57c.282 0 .578.047.926.14l.356.094.199-.312A3.476 3.476 0 0 1 19 21.5a3.47 3.47 0 0 1 1.66.438l.367.203.262-.325A3.483 3.483 0 0 1 24 20.5c.941 0 1.824.371 2.488 1.043l.211.215.29-.09A3.48 3.48 0 0 1 28 21.5a3.51 3.51 0 0 1 3.422 2.773l.11.524.515-.149c.36-.101.664-.148.953-.148 1.93 0 3.5 1.57 3.5 3.5s-1.57 3.5-3.5 3.5c-.035 0-.066-.008-.102-.012l-.148-.015-.266-.02-.164.211a3.557 3.557 0 0 1-1.797 1.238l-.257.078-.078.254a3.537 3.537 0 0 1-3.403 2.551z" fill="#98ccfd"/><path d="M24 21c.805 0 1.563.316 2.133.895l.422.425.578-.172c.332-.101.605-.148.867-.148 1.406 0 2.64 1 2.934 2.375l.222 1.05 1.028-.292c.316-.09.574-.133.816-.133 1.652 0 3 1.348 3 3s-1.348 3-2.98 3l-.051-.008a3.83 3.83 0 0 0-.184-.02l-.535-.038-.328.425c-.39.512-.926.88-1.543 1.063l-.516.156-.152.516c-.398 1.308-1.57 2.191-2.926 2.191a3.073 3.073 0 0 1-3.07-3.07v-1h-1a3.08 3.08 0 0 1-3.008-2.445l-.152-.743-.758-.05a3.32 3.32 0 0 1-.512-.075l-.715-.172-.379.63a3.034 3.034 0 0 1-2.62 1.5 3.076 3.076 0 0 1-3.071-3.07 3.073 3.073 0 0 1 3.07-3.071c.239 0 .489.035.793.12l.711.188.395-.62A2.984 2.984 0 0 1 19 22c.48 0 .96.129 1.422.379l.73.398.528-.648A2.975 2.975 0 0 1 24 21m0-1c-1.258 0-2.367.594-3.102 1.5A3.95 3.95 0 0 0 19 21c-1.426 0-2.664.75-3.375 1.871a3.911 3.911 0 0 0-1.055-.156 4.07 4.07 0 1 0 0 8.14c1.485 0 2.77-.796 3.48-1.98.22.055.446.082.68.098a4.069 4.069 0 0 0 3.985 3.242 4.07 4.07 0 0 0 4.07 4.07 4.058 4.058 0 0 0 3.883-2.902 4.07 4.07 0 0 0 2.047-1.41c.097.004.187.027.285.027 2.21 0 4-1.79 4-4s-1.79-4-4-4c-.379 0-.742.07-1.09.168A3.997 3.997 0 0 0 28 21a3.9 3.9 0 0 0-1.156.191A3.987 3.987 0 0 0 24 20z" fill="#4788c7"/><path d="M24.078 38.488c-.398 0-.789-.086-1.152-.25L7.8 31.29l-6.3 2.52v-9.77l5.395-2.004a8.536 8.536 0 0 1 2.98-.535c1.383 0 2.762.34 3.988.984l9.528 5.012a2.457 2.457 0 0 1 1.043 3.274l-.2.39 1.16.805 9.817-4.035a2.362 2.362 0 0 1 3.125 1.348c.41 1.081-.211 2.507-1.336 3.046l-11.68 5.867a2.745 2.745 0 0 1-1.242.297z" fill="#dff0fe"/><path d="M9.875 22a8.09 8.09 0 0 1 3.754.926l9.531 5.012a1.958 1.958 0 0 1 .828 2.609l-.398.773.715.5.578.403.445.308.508-.207 9.566-3.933c.23-.094.47-.141.715-.141a1.86 1.86 0 0 1 1.75 1.21c.32.837-.195 1.99-1.097 2.427L25.098 37.75a2.312 2.312 0 0 1-1.02.238 2.19 2.19 0 0 1-.941-.207L8.203 30.926l-.39-.18-.399.16L2 33.07v-8.683l5.066-1.883A8.113 8.113 0 0 1 9.875 22m0-1a9.078 9.078 0 0 0-3.156.566L1 23.691v10.856l6.785-2.711L22.72 38.69a3.258 3.258 0 0 0 2.824-.05l11.672-5.864c1.316-.632 2.105-2.312 1.586-3.675a2.873 2.873 0 0 0-3.781-1.633l-9.567 3.933L24.88 31a2.948 2.948 0 0 0-1.254-3.945l-9.531-5.012A9.074 9.074 0 0 0 9.875 21z" fill="#4788c7"/><path d="M15.582 28.648l6.121 3.094a1.993 1.993 0 0 0 2.621-.777" fill="none" stroke-linecap="round" stroke="#4788c7" stroke-miterlimit="10"/></svg>