<svg xmlns="http://www.w3.org/2000/svg" viewBox="0 0 26 26"><path d="M16.906.031c-.402 2.203-2.597 3.317-3.218 6.344-1.383 6.734 4.449 4.547 4.312 5.375-.125 1.066-.441 1.762-.781 2.219h-.063c-.515.004-1.332.476-1.593 1.094-.395-.657-2.239-.86-2.688.437-1.145-.281-1.879.563-1.844.938.918.937 2.297 1.843 5.844 1.843 1.105 0 1.563.469 1.563.469l4.218-2.438c-.187-.789-1.394-2.074-3.125-1.062-.234-.61-.636-.922-1.093-1.094.328-.8.683-2.035.78-3.812.169-3.082.259-4.215-1.124-7.563 1.515 2.14 2.246 3.461 1.781 8.813 1.695.355 3.094-1.934 3.094-4.344 0-3.898-4.332-5.773-6.063-7.219zM6.031 15.312c-.43.04-.91.157-1.468.376-1.41.558-4.5 2-4.5 2l2.843 6.28 1.469-.937c.8-.511 1.246-.593 2.281-.062 1.004.515 4.074 2.125 4.844 2.5 2.367 1.148 3.387.129 4.531-.532.977-.562 7.899-5.14 8.625-5.656 1.137-.8 1.485-1.515.969-2.187-.39-.508-1.281-.93-3.063.125-2.597 1.547-3.363 2.02-3.656 2.156.078.219.094.32.094.625 0 1.535-1.773 1.98-2.719 2H12c-1.762 0-3.469-1.844-3.469-1.844S10.551 21 12 21h4.25c.008 0 1.75-.07 1.75-1 0-.852-.469-1-3.125-1-1.734 0-3.5-1.031-3.5-1.031s-1.742-1.29-2.281-1.625c-.957-.598-1.778-1.153-3.063-1.032z"/></svg>