<svg xmlns="http://www.w3.org/2000/svg" viewBox="0 0 48 48"><path d="M37.89 11.664a2 2 0 0 0 2.22-3.328c-.919-.613-4.387-.422-4.387-.422s1.25 3.137 2.168 3.75z" fill="#2196f3"/><path d="M37.5 21H10v3h27.5a1.5 1.5 0 0 1 0 3H10v3h27.5c2.48 0 4.5-2.02 4.5-4.5S39.98 21 37.5 21z" fill="#4caf50"/><path d="M38 33H10.5a1.5 1.5 0 0 1 0-3H38v-3H10.5C8.02 27 6 29.02 6 31.5S8.02 36 10.5 36H38z" fill="#4caf50"/><path d="M37.5 33H10v3h27.5a1.5 1.5 0 0 1 0 3H6v3h31.5c2.48 0 4.5-2.02 4.5-4.5S39.98 33 37.5 33zM9 19.5c0-.176-3-.172-3 0 0 2.48 2.02 4.5 4.5 4.5H38v-3H10.5A1.5 1.5 0 0 1 9 19.5z" fill="#4caf50"/><path d="M9 19.438H6c0-5.11 4.172-6.215 10.492-7.887 1.645-.438 9.91-2.887 11.98-3.508l.864 2.875c-2.121.637-10.41 3.09-12.078 3.531C10.46 16.254 9 16.88 9 19.438z" fill="#4caf50"/><path d="M33.422 9.617l-6.43 2.945-1.414-4.796 6.996-1.024z" fill="#37474f"/><path d="M27.273 13.52a.999.999 0 0 1-.671 1.242l-.961.285a1 1 0 0 1-1.243-.68l-1.984-6.71a1.003 1.003 0 0 1 .68-1.243l.957-.285a1.006 1.006 0 0 1 1.242.676z" fill="#2e7d32"/></svg>