<svg xmlns="http://www.w3.org/2000/svg" viewBox="0 0 24 24"><path d="M19.313 2c-.82.11-2.688 2.031-2.688 2.031S18.867 5.11 19.688 5c.82-.11 1.421-.867 1.312-1.688-.11-.82-.867-1.421-1.688-1.312zm-5.188 2l-1.906.625L10 4.281l1.25 3.813 1.594-1.563 1.875-.625zM8.687 6.063L3.72 7.718A2.507 2.507 0 0 0 2 10.094v.406C2 11.879 3.121 13 4.5 13h15c.273 0 .5.227.5.5s-.227.5-.5.5h-15A2.502 2.502 0 0 0 2 16.5C2 17.879 3.121 19 4.5 19h15c.273 0 .5.227.5.5s-.227.5-.5.5H2v2h17.5c1.379 0 2.5-1.121 2.5-2.5S20.879 17 19.5 17h-15a.504.504 0 0 1-.5-.5c0-.273.227-.5.5-.5h15c1.379 0 2.5-1.121 2.5-2.5S20.879 11 19.5 11h-15a.501.501 0 0 1-.5-.5v-.406c0-.215.14-.434.344-.5l4.968-1.656z"/></svg>