<svg xmlns="http://www.w3.org/2000/svg" viewBox="0 0 26 26"><path d="M18 3c-4.406 0-8 3.594-8 8v1h12v-1c0-.55-.45-1-1-1h-8.906A5.97 5.97 0 0 1 18 5c3.324 0 6 2.676 6 6 0 1.781-.77 3.371-2 4.469V13H10v1.875c0 1.336-4.242-2.43-5.844-4.031-.976-.98-1.066-1.496-.75-1.813.317-.316.063-.562.063-.562l-.375-.375a.356.356 0 0 0-.5 0l-2.5 2.5a.356.356 0 0 0 0 .5l.375.375s.242.226.531-.063c.29-.289.848-.246 1.844.75C3.84 13.152 10 20.418 10 22c0 .55.45 1 1 1h10c.55 0 1-.45 1-1v-4.094c.328-.183.563-.343.563-.343A8.008 8.008 0 0 0 26 11c0-4.406-3.594-8-8-8z"/></svg>