<svg xmlns="http://www.w3.org/2000/svg" viewBox="0 0 50 50"><path d="M35.5 7c-7.191 0-13.152 5.242-14.281 12.125C19.949 19.477 19 20.625 19 22v6.375c-.633-.29-1.633-.957-2.75-1.813-2.313-1.765-5.063-4.28-6.563-5.78-.886-.887-1.32-1.532-1.437-1.845-.117-.312-.102-.148-.031-.218.476-.477.687-1.164.594-1.657-.094-.492-.438-.812-.438-.812l-.688-.688a1.685 1.685 0 0 0-1.187-.5c-.434 0-.863.176-1.188.5L.5 20.375a1.693 1.693 0 0 0 0 2.375l.688.688.03.03s.317.313.782.407c.465.094 1.16-.098 1.625-.563.04-.039-.098-.074.219.032.316.105.976.508 1.875 1.406.812.813 4.308 4.875 7.437 8.969 1.567 2.047 3.063 4.117 4.156 5.843.547.864.989 1.63 1.282 2.25.293.622.406 1.126.406 1.188 0 1.652 1.348 3 3 3h19c1.652 0 3-1.348 3-3v-9.75c3.629-2.637 6-6.926 6-11.75C50 13.504 43.496 7 35.5 7zm0 2C42.414 9 48 14.586 48 21.5c0 3.629-1.543 6.875-4 9.156v-6.5c.004-.05.004-.105 0-.156v-2c0-1.652-1.348-3-3-3H23.25c1.164-5.703 6.195-10 12.25-10zm-29 8.188l.25.28c-.453.552-.652 1.407-.375 2.157.297.809.918 1.605 1.906 2.594 1.574 1.574 4.32 4.082 6.75 5.937 1.215.926 2.32 1.68 3.281 2.094.481.207.938.414 1.563.281.313-.066.672-.285.875-.593.203-.31.25-.649.25-.938v-4h21v7.5c-.023.125-.023.25 0 .375V43c0 .469-.531 1-1 1H22c-.469 0-1-.531-1-1 0-.7-.242-1.297-.594-2.031-.351-.735-.832-1.563-1.406-2.469-1.148-1.813-2.695-3.926-4.281-6-3.172-4.148-6.461-8.055-7.563-9.156-1.015-1.016-1.867-1.633-2.687-1.907-.746-.246-1.532-.039-2.063.375l-.281-.25zM22.531 21H41c.469 0 1 .531 1 1v1H21v-1c0-.383.363-.797.75-.938.258.086.54.063.781-.062z"/></svg>