<svg xmlns="http://www.w3.org/2000/svg" viewBox="0 0 24 24"><path d="M14 3a2 2 0 0 0-2 2 1.99 1.99 0 0 0-1.719 1H20.72A1.99 1.99 0 0 0 19 5c-.09 0-.164.02-.25.031C18.406 4.421 17.75 4 17 4c-.414 0-.805.125-1.125.344A1.988 1.988 0 0 0 14 3zM2 7v2h2.656L9 12.531v3.594c0 .738.41 1.434 1.063 1.781.652.352 1.449.285 2.062-.125l3.656-2.437 2.313 2.969a1.003 1.003 0 0 0 1.593-1.22l-2.312-2.968a2.021 2.021 0 0 0-.906-.656L22 7H9l.719 3.531L5.344 7zm8.969 5.313l3.844 1.28c-.047.028-.079.063-.126.095L11 16.125v-3.594c0-.07-.023-.148-.031-.219zM18.906 15l1.438 1.906c.496.664.254 1.692-.407 2.188-.664.496-1.69.445-2.187-.219l-1.531-2.031c-.149.355-.219.75-.219 1.156a3 3 0 1 0 3-3h-.094z"/></svg>