<svg xmlns="http://www.w3.org/2000/svg" viewBox="0 0 24 24"><path d="M14 6c-1.3 0-2.512.895-2.813 2.094h-.093c-.5 0-1 .406-1 .906H22c0-.8-.707-1.406-1.406-1.406-.2 0-.399-.008-.5.093-.2-.601-.68-1-1.282-1-.398 0-.699.208-1 .407-.398-.301-.812-.407-1.312-.407-.2 0-.3.024-.5.125A2.8 2.8 0 0 0 14 6zM0 10v2h3.656l5.281 4.438.032.062 2.25 3.438h.031a2.15 2.15 0 0 0 2.969.625h.031l2.781-1.813 2.375 2.781a.799.799 0 1 0 1.188-1.062l-2.782-3.282-.062-.062L24 10H8l1.063 4.5-4.844-4.094-.125-.125V10zm10.813 6.375l4.968 1.313-2.406 1.53-.031.032c-.192.129-.64.02-.781-.188zM19.718 18a.388.388 0 0 0-.219.094c.7.8 1.688 2 1.688 2 .398.5.71 1.418-.188 2.218-.3.301-.602.375-1 .375-.7 0-1.086-.5-1.188-.5-.101-.101-1.019-1.175-1.718-1.875 0 .102-.094.387-.094.688 0 1.602 1.3 3 3 3s3-1.3 3-3-1.3-3-3-3c-.102 0-.195-.012-.281 0z"/></svg>