<?xml version="1.0" encoding="utf-8"?>
<!-- Generator: Adobe Illustrator 22.0.1, SVG Export Plug-In . SVG Version: 6.00 Build 0)  -->
<svg version="1.1" xmlns="http://www.w3.org/2000/svg" xmlns:xlink="http://www.w3.org/1999/xlink" x="0px" y="0px"
	 viewBox="0 0 121.997 192.167" enable-background="new 0 0 121.997 192.167" xml:space="preserve">
<g id="BACKGROUND">
</g>
<g id="OBJECTS">
	<g>
		<g>
			<path d="M61.021,137.831c-0.085,0-0.17-0.014-0.251-0.043l-13.411-4.758c-0.085-0.03-0.164-0.076-0.233-0.134L30.044,118.45
				l-11.601-7.468c-0.127-0.082-0.227-0.2-0.285-0.339l-7.096-16.855L4.878,93.06c-0.212-0.025-0.403-0.139-0.526-0.313
				c-0.122-0.175-0.165-0.394-0.116-0.602L7.619,77.65l-6.693,1.004c-0.266,0.037-0.537-0.067-0.703-0.281
				c-0.167-0.214-0.205-0.502-0.1-0.751l8.511-20.246l1.422-40.086c0.006-0.143,0.052-0.282,0.133-0.399L20.829,1.449
				c0.13-0.188,0.339-0.307,0.567-0.323c0.23-0.015,0.452,0.075,0.606,0.245l22.254,24.556l5.25-1.671
				c0.073-0.023,0.15-0.035,0.228-0.035h0.001l21.247,0.033c0.062,0,0.123,0.008,0.184,0.023l6.602,1.673l22.275-24.579
				c0.154-0.17,0.38-0.259,0.605-0.245c0.229,0.016,0.438,0.134,0.567,0.323l10.64,15.441c0.081,0.118,0.127,0.256,0.133,0.399
				l1.423,40.086l8.448,20.1c0.088,0.123,0.14,0.273,0.14,0.436c0,0.414-0.335,0.75-0.75,0.75c-0.007,0-0.014,0-0.02,0
				c-0.037,0-0.074-0.003-0.111-0.008l-6.692-1.004l3.382,14.495c0.049,0.208,0.006,0.427-0.117,0.602
				c-0.122,0.175-0.313,0.289-0.525,0.313l-6.184,0.728l-7.097,16.855c-0.058,0.139-0.158,0.257-0.285,0.339l-11.678,7.526
				l-17.119,14.389c-0.068,0.057-0.146,0.102-0.229,0.132l-13.298,4.758C61.192,137.816,61.107,137.831,61.021,137.831z
				 M47.99,131.661l13.03,4.623l12.92-4.622l17.092-14.359l11.559-7.456l7.177-17.044c0.105-0.249,0.336-0.422,0.604-0.454
				l5.784-0.681l-3.442-14.753c-0.057-0.242,0.011-0.497,0.18-0.679c0.168-0.183,0.415-0.269,0.662-0.233l6.465,0.97l-8.046-19.142
				c-0.035-0.083-0.055-0.173-0.059-0.264l-1.42-40.005L100.517,3.08L78.575,27.292c-0.186,0.207-0.469,0.293-0.74,0.224
				l-6.948-1.761l-21.037-0.033l-5.599,1.782c-0.279,0.088-0.586,0.007-0.783-0.211L21.526,3.08l-9.979,14.481l-1.419,40.005
				c-0.004,0.091-0.024,0.181-0.059,0.264L2.023,76.972l6.466-0.97c0.244-0.035,0.494,0.05,0.662,0.233
				c0.169,0.183,0.236,0.437,0.18,0.679L5.887,91.668l5.785,0.681c0.268,0.031,0.499,0.205,0.603,0.454l7.176,17.044l11.483,7.4
				L47.99,131.661z"/>
		</g>
		<g>
			<path d="M72.051,50.245c-0.043,0-0.086-0.003-0.13-0.011L61.029,48.34l-9.726,1.892c-0.377,0.07-0.745-0.147-0.859-0.511
				l-7.137-22.707c-0.124-0.396,0.096-0.816,0.491-0.94c0.394-0.125,0.816,0.095,0.94,0.49l6.936,22.068l9.203-1.79
				c0.092-0.017,0.183-0.018,0.272-0.002l10.351,1.8l5.793-22.041c0.106-0.401,0.523-0.638,0.916-0.535
				c0.4,0.105,0.641,0.516,0.535,0.916l-5.969,22.707C72.688,50.02,72.386,50.245,72.051,50.245z"/>
		</g>
		<g>
			<path d="M71.142,85.799H51.16c-0.299,0-0.569-0.178-0.688-0.452L38.793,58.357c-0.139-0.321-0.037-0.696,0.245-0.903
				l11.678-8.564c0.335-0.246,0.804-0.172,1.048,0.162c0.245,0.334,0.173,0.803-0.161,1.048l-11.195,8.21l11.245,25.988H70.65
				l11.255-26.01l-10.321-8.207c-0.324-0.258-0.378-0.729-0.12-1.054c0.258-0.324,0.732-0.377,1.054-0.12l10.771,8.564
				c0.266,0.211,0.356,0.574,0.222,0.885L71.83,85.346C71.711,85.621,71.441,85.799,71.142,85.799z"/>
		</g>
		<g>
			<path d="M42.53,128.778c-0.334,0-0.64-0.226-0.726-0.565l-3.049-11.967c-0.051-0.2-0.018-0.412,0.093-0.586l8.613-13.628
				l2.959-17.111c0.071-0.408,0.467-0.681,0.867-0.611c0.408,0.071,0.682,0.459,0.611,0.867l-2.984,17.258
				c-0.017,0.097-0.053,0.189-0.105,0.273l-8.521,13.481l2.969,11.654c0.103,0.401-0.14,0.81-0.541,0.912
				C42.654,128.77,42.591,128.778,42.53,128.778z"/>
		</g>
		<g>
			<path d="M79.405,128.867c-0.067,0-0.136-0.009-0.204-0.028c-0.398-0.113-0.631-0.528-0.518-0.926l3.325-11.735l-8.516-13.471
				c-0.053-0.083-0.089-0.176-0.105-0.273l-2.984-17.258c-0.07-0.408,0.203-0.796,0.611-0.867c0.402-0.068,0.796,0.203,0.867,0.611
				l2.959,17.111l8.614,13.628c0.114,0.18,0.146,0.4,0.088,0.605l-3.416,12.057C80.033,128.652,79.732,128.867,79.405,128.867z"/>
		</g>
		<g>
			<path d="M71.532,116.421c-0.196,0-0.391-0.077-0.535-0.224l-5.614-5.708l-4.431-0.417l-3.688,0.325l-6.666,5.465
				c-0.247,0.202-0.595,0.227-0.866,0.06c-0.272-0.167-0.41-0.487-0.343-0.799l3.741-17.286l-0.772-12.743
				c-0.024-0.414,0.29-0.769,0.704-0.794c0.379-0.029,0.768,0.289,0.794,0.703l0.778,12.846c0.004,0.068-0.002,0.137-0.016,0.204
				l-3.308,15.285l5.181-4.248c0.117-0.096,0.26-0.154,0.41-0.167l3.795-0.334c0.063-0.017,0.128-0.026,0.195-0.026h0.13
				c0.07,0,0.139,0.01,0.204,0.028l4.57,0.43c0.176,0.017,0.341,0.095,0.465,0.221l4.096,4.164L67.549,98.03
				c-0.011-0.06-0.014-0.12-0.011-0.18l0.778-12.846c0.025-0.413,0.412-0.722,0.794-0.703c0.414,0.025,0.729,0.38,0.704,0.794
				l-0.773,12.755l3.229,17.687c0.059,0.324-0.101,0.649-0.393,0.8C71.768,116.394,71.65,116.421,71.532,116.421z"/>
		</g>
		<g>
			<path d="M39.481,116.81c-0.389,0-0.718-0.301-0.747-0.695c-0.03-0.413,0.28-0.772,0.693-0.803l10.64-0.778
				c0.413-0.027,0.772,0.28,0.803,0.693c0.03,0.413-0.28,0.772-0.693,0.803l-10.64,0.778C39.518,116.81,39.499,116.81,39.481,116.81
				z"/>
		</g>
		<g>
			<path d="M82.821,116.81c-0.008,0-0.017,0-0.025-0.001l-11.289-0.389c-0.414-0.014-0.738-0.361-0.725-0.775
				c0.015-0.413,0.318-0.76,0.775-0.724l11.289,0.389c0.414,0.014,0.738,0.361,0.725,0.775
				C83.556,116.492,83.223,116.81,82.821,116.81z"/>
		</g>
		<g>
			<path d="M60.827,130.435c-0.099,0-0.197-0.02-0.29-0.059l-7.267-3.049c-0.138-0.058-0.255-0.155-0.337-0.28l-3.957-6.034
				c-0.094-0.143-0.136-0.313-0.119-0.484l0.519-5.32c0.04-0.413,0.405-0.711,0.819-0.674c0.412,0.04,0.714,0.407,0.673,0.819
				l-0.492,5.057l3.687,5.621l6.765,2.839l6.765-2.839l3.686-5.618l-0.491-4.664c-0.043-0.412,0.256-0.781,0.668-0.825
				c0.406-0.034,0.78,0.256,0.824,0.667l0.518,4.931c0.018,0.172-0.024,0.345-0.119,0.49l-3.957,6.034
				c-0.082,0.125-0.199,0.223-0.337,0.28l-7.267,3.049C61.024,130.415,60.925,130.435,60.827,130.435z"/>
		</g>
		<g>
			<path d="M74.319,133.073H47.61c-0.414,0-0.75-0.336-0.75-0.75c0-0.414,0.336-0.75,0.75-0.75h26.709c0.414,0,0.75,0.336,0.75,0.75
				C75.069,132.737,74.733,133.073,74.319,133.073z"/>
		</g>
		<g>
			<path d="M39.482,116.81c-0.184,0-0.368-0.067-0.513-0.203l-8.175-7.655c-0.091-0.085-0.159-0.191-0.198-0.31l-8.889-26.568
				c-0.077-0.228-0.039-0.479,0.101-0.675l17.063-23.778c0.241-0.336,0.709-0.415,1.047-0.172c0.336,0.242,0.413,0.71,0.172,1.047
				l-16.84,23.466l8.707,26.024l8.036,7.526c0.303,0.283,0.318,0.758,0.035,1.06C39.881,116.731,39.682,116.81,39.482,116.81z"/>
		</g>
		<g>
			<polygon points="44.85,80.329 40.228,72.738 33.513,72.446 37.26,79.161 			"/>
		</g>
		<g>
			<path d="M51.159,85.799c-0.153,0-0.309-0.047-0.442-0.145l-7.396-5.417c-0.334-0.245-0.406-0.714-0.162-1.048
				c0.244-0.334,0.713-0.409,1.049-0.162l7.396,5.417c0.334,0.245,0.406,0.714,0.162,1.048
				C51.618,85.692,51.39,85.799,51.159,85.799z"/>
		</g>
		<g>
			<path d="M40.227,74.072c-0.398,0-0.729-0.312-0.748-0.713l-0.746-15.263c-0.021-0.414,0.299-0.766,0.712-0.786
				c0.419-0.019,0.767,0.298,0.786,0.712l0.746,15.263c0.02,0.414-0.299,0.766-0.712,0.786
				C40.252,74.072,40.24,74.072,40.227,74.072z"/>
		</g>
		<g>
			<path d="M34,73.488c-0.042,0-0.084-0.003-0.127-0.011l-4.663-0.795c-0.408-0.07-0.683-0.457-0.613-0.865
				c0.07-0.408,0.459-0.681,0.865-0.613l4.663,0.795c0.408,0.07,0.683,0.457,0.613,0.865C34.676,73.23,34.359,73.488,34,73.488z"/>
		</g>
		<g>
			<path d="M33.513,92.546c-0.182,0-0.361-0.067-0.501-0.192l-11.095-9.959c-0.309-0.277-0.334-0.751-0.058-1.059
				c0.278-0.309,0.752-0.333,1.06-0.057l10.754,9.653l17.219-6.584c0.388-0.147,0.82,0.046,0.968,0.433
				c0.148,0.387-0.046,0.821-0.433,0.969l-17.646,6.748C33.694,92.53,33.603,92.546,33.513,92.546z"/>
		</g>
		<g>
			<path d="M18.849,111.101c-0.11,0-0.223-0.024-0.329-0.076c-0.372-0.182-0.525-0.631-0.344-1.004l7.307-14.927l-13.966-1.254
				c-0.412-0.037-0.717-0.401-0.68-0.814c0.037-0.413,0.384-0.723,0.814-0.68l15.052,1.352c0.246,0.022,0.465,0.164,0.586,0.379
				c0.121,0.215,0.129,0.476,0.021,0.698l-7.786,15.906C19.394,110.947,19.126,111.101,18.849,111.101z"/>
		</g>
		<g>
			<path d="M30.951,118.984c-0.009,0-0.017,0-0.027-0.001c-0.414-0.015-0.737-0.363-0.722-0.777l0.357-9.829
				c0.015-0.413,0.326-0.745,0.776-0.722c0.414,0.015,0.737,0.363,0.722,0.777l-0.356,9.829
				C31.685,118.665,31.353,118.984,30.951,118.984z"/>
		</g>
		<g>
			<path d="M9.379,58.29c-0.23,0-0.457-0.105-0.604-0.304c-0.247-0.333-0.177-0.803,0.156-1.049l23.063-17.074L20.727,2.089
				c-0.118-0.397,0.107-0.814,0.504-0.933c0.403-0.121,0.815,0.107,0.934,0.504l11.418,38.278c0.09,0.303-0.019,0.629-0.272,0.817
				L9.825,58.143C9.691,58.242,9.534,58.29,9.379,58.29z"/>
		</g>
		<g>
			<path d="M44.024,55.479c-0.226,0-0.449-0.101-0.597-0.294L32.268,40.609c-0.252-0.329-0.189-0.8,0.14-1.052
				c0.329-0.252,0.801-0.188,1.052,0.14l11.159,14.576c0.252,0.329,0.189,0.8-0.14,1.052C44.343,55.429,44.182,55.479,44.024,55.479
				z"/>
		</g>
		<g>
			<path d="M4.966,93.065c-0.188,0-0.373-0.07-0.517-0.206c-0.244-0.232-0.304-0.598-0.146-0.896l23.92-45.009L1.384,78.399
				c-0.27,0.316-0.742,0.353-1.058,0.083c-0.314-0.269-0.352-0.742-0.083-1.057l31.288-36.656c0.249-0.292,0.676-0.348,0.992-0.133
				c0.316,0.215,0.42,0.634,0.24,0.972L6.896,90.282l15.137-9.087c0.354-0.213,0.815-0.097,1.028,0.257
				c0.214,0.355,0.099,0.816-0.257,1.029L5.352,92.958C5.233,93.03,5.099,93.065,4.966,93.065z"/>
		</g>
		<g>
			<path d="M8.6,77.494c-0.168,0-0.337-0.056-0.477-0.171c-0.32-0.263-0.365-0.736-0.103-1.056L21.389,60.05
				c0.264-0.319,0.736-0.365,1.056-0.102c0.32,0.263,0.365,0.736,0.103,1.056L9.179,77.221C9.031,77.401,8.816,77.494,8.6,77.494z"
				/>
		</g>
		<g>
			<path d="M82.821,116.81c-0.2,0-0.399-0.08-0.548-0.237c-0.282-0.302-0.268-0.777,0.035-1.06l8.035-7.526l8.707-26.024
				L82.211,58.497c-0.241-0.337-0.164-0.805,0.172-1.047c0.338-0.242,0.806-0.164,1.047,0.172L100.493,81.4
				c0.141,0.195,0.179,0.447,0.102,0.675l-8.889,26.568c-0.039,0.118-0.107,0.225-0.198,0.31l-8.174,7.655
				C83.189,116.743,83.004,116.81,82.821,116.81z"/>
		</g>
		<g>
			<polygon points="77.452,80.329 82.074,72.738 88.789,72.446 85.042,79.161 			"/>
		</g>
		<g>
			<path d="M82.076,73.683c-0.013,0-0.025,0-0.038-0.001c-0.414-0.021-0.732-0.373-0.712-0.787l0.746-14.874
				c0.021-0.414,0.374-0.723,0.786-0.711c0.414,0.021,0.732,0.373,0.712,0.787l-0.746,14.874
				C82.803,73.371,82.472,73.683,82.076,73.683z"/>
		</g>
		<g>
			<path d="M88.301,73.488c-0.358,0-0.676-0.258-0.738-0.624c-0.069-0.408,0.205-0.796,0.613-0.865l4.664-0.795
				c0.409-0.067,0.796,0.205,0.865,0.613c0.069,0.408-0.205,0.796-0.613,0.865l-4.664,0.795
				C88.385,73.485,88.343,73.488,88.301,73.488z"/>
		</g>
		<g>
			<path d="M88.789,92.546c-0.09,0-0.181-0.016-0.268-0.049l-17.647-6.748c-0.387-0.148-0.581-0.582-0.433-0.969
				c0.148-0.386,0.58-0.582,0.968-0.433l17.22,6.584l10.753-9.653c0.308-0.277,0.782-0.253,1.059,0.057
				c0.277,0.308,0.252,0.782-0.057,1.059L89.29,92.354C89.151,92.48,88.971,92.546,88.789,92.546z"/>
		</g>
		<g>
			<path d="M103.453,111.101c-0.277,0-0.544-0.154-0.675-0.42L95.12,95.037c-0.107-0.219-0.101-0.478,0.017-0.692
				c0.118-0.214,0.334-0.357,0.576-0.383l14.925-1.614c0.405-0.044,0.782,0.253,0.827,0.665c0.044,0.412-0.254,0.782-0.665,0.826
				l-13.862,1.499l7.188,14.684c0.182,0.372,0.028,0.821-0.344,1.004C103.675,111.077,103.563,111.101,103.453,111.101z"/>
		</g>
		<g>
			<path d="M91.352,118.984c-0.402,0-0.734-0.318-0.749-0.723l-0.357-9.829c-0.016-0.414,0.308-0.762,0.722-0.777
				c0.463-0.027,0.762,0.309,0.776,0.722l0.357,9.829c0.016,0.414-0.308,0.762-0.722,0.777
				C91.37,118.984,91.361,118.984,91.352,118.984z"/>
		</g>
		<g>
			<path d="M112.663,58.29c-0.156,0-0.313-0.049-0.448-0.149L88.989,40.754c-0.25-0.188-0.358-0.51-0.271-0.811L99.877,1.665
				c0.115-0.398,0.53-0.626,0.93-0.51c0.397,0.116,0.626,0.532,0.51,0.93L90.303,39.864l22.811,17.076
				c0.332,0.249,0.399,0.718,0.151,1.05C113.118,58.186,112.892,58.29,112.663,58.29z"/>
		</g>
		<g>
			<path d="M78.278,55.479c-0.158,0-0.319-0.05-0.455-0.154c-0.329-0.252-0.392-0.723-0.14-1.052l11.159-14.576
				c0.251-0.328,0.723-0.392,1.052-0.14c0.329,0.252,0.392,0.723,0.14,1.052L78.874,55.185
				C78.727,55.378,78.503,55.479,78.278,55.479z"/>
		</g>
		<g>
			<path d="M116.67,92.757c-0.134,0-0.269-0.036-0.389-0.108l-16.787-10.17c-0.354-0.215-0.468-0.676-0.253-1.03
				c0.215-0.354,0.677-0.467,1.03-0.253l14.493,8.78L89.536,41.603c-0.177-0.339-0.07-0.756,0.247-0.969
				c0.317-0.212,0.743-0.153,0.99,0.138L121.8,77.428c0.268,0.316,0.229,0.789-0.088,1.057c-0.315,0.268-0.788,0.228-1.057-0.088
				L93.982,46.885l23.354,44.776c0.155,0.298,0.094,0.664-0.152,0.894C117.04,92.688,116.856,92.757,116.67,92.757z"/>
		</g>
		<g>
			<path d="M113.703,77.494c-0.216,0-0.431-0.093-0.579-0.273L99.755,61.004c-0.263-0.32-0.218-0.792,0.103-1.056
				c0.319-0.263,0.792-0.218,1.056,0.102l13.368,16.218c0.263,0.32,0.218,0.792-0.103,1.056
				C114.039,77.438,113.871,77.494,113.703,77.494z"/>
		</g>
		<g>
			<path d="M51.161,85.799c-0.057,0-0.114-0.006-0.171-0.02c-0.403-0.094-0.654-0.497-0.561-0.901l3.341-14.335l-3.351-20.929
				c-0.065-0.409,0.213-0.794,0.622-0.859c0.413-0.065,0.793,0.214,0.858,0.622l3.374,21.075c0.016,0.096,0.013,0.194-0.01,0.289
				L51.89,85.219C51.809,85.565,51.501,85.799,51.161,85.799z"/>
		</g>
		<g>
			<path d="M71.276,86.576c-0.358,0-0.676-0.258-0.738-0.624l-2.6-15.256c-0.014-0.081-0.015-0.164-0.001-0.245l3.373-21.075
				c0.065-0.408,0.449-0.687,0.858-0.622c0.409,0.065,0.687,0.45,0.622,0.859l-3.354,20.952L72.016,85.7
				c0.069,0.408-0.205,0.796-0.613,0.865C71.36,86.573,71.318,86.576,71.276,86.576z"/>
		</g>
		<g>
			<path d="M68.677,71.32H54.534c-0.414,0-0.75-0.336-0.75-0.75c0-0.414,0.336-0.75,0.75-0.75h14.144c0.414,0,0.75,0.336,0.75,0.75
				C69.427,70.984,69.091,71.32,68.677,71.32z"/>
		</g>
		<g>
			<path d="M58.815,129.591c-0.371,0-0.693-0.275-0.742-0.652l-0.754-5.739l-1.652-2.178l-4.509,2.14
				c-0.375,0.178-0.82,0.018-0.999-0.356c-0.178-0.374-0.018-0.821,0.356-0.999l5.06-2.401c0.318-0.152,0.704-0.059,0.919,0.225
				l2.141,2.822c0.079,0.104,0.129,0.226,0.146,0.356l0.779,5.936c0.055,0.411-0.234,0.788-0.646,0.841
				C58.88,129.589,58.847,129.591,58.815,129.591z"/>
		</g>
		<g>
			<path d="M63.164,129.591c-0.032,0-0.065-0.002-0.099-0.006c-0.41-0.054-0.7-0.431-0.645-0.841l0.778-5.936
				c0.017-0.129,0.066-0.252,0.146-0.356l2.142-2.822c0.215-0.283,0.6-0.377,0.919-0.225l5.059,2.401
				c0.374,0.178,0.534,0.625,0.357,0.999c-0.178,0.374-0.623,0.535-0.999,0.356l-4.508-2.14L64.66,123.2l-0.753,5.739
				C63.858,129.316,63.536,129.591,63.164,129.591z"/>
		</g>
		<g>
			<path d="M55.897,120.833c-0.268,0-0.526-0.143-0.662-0.395c-0.195-0.365-0.059-0.82,0.307-1.016l5.255-2.822
				c0.227-0.122,0.502-0.118,0.727,0.01l4.933,2.822c0.36,0.206,0.484,0.664,0.279,1.023c-0.206,0.358-0.664,0.485-1.023,0.278
				l-4.572-2.615l-4.889,2.625C56.138,120.804,56.016,120.833,55.897,120.833z"/>
		</g>
		<g>
			<path d="M61.021,118.271c-0.414,0-0.75-0.336-0.75-0.75v-8.208c0-0.414,0.336-0.75,0.75-0.75c0.414,0,0.75,0.336,0.75,0.75v8.208
				C61.771,117.935,61.435,118.271,61.021,118.271z"/>
		</g>
		<g>
			<path d="M70.787,85.799c-0.232,0-0.462-0.108-0.608-0.311c-0.243-0.336-0.168-0.805,0.168-1.047l7.493-5.417
				c0.335-0.242,0.805-0.167,1.047,0.168c0.243,0.336,0.168,0.805-0.168,1.047l-7.493,5.417
				C71.092,85.752,70.939,85.799,70.787,85.799z"/>
		</g>
		<g>
			<path d="M60.99,190.742c-0.16,0-0.32-0.051-0.455-0.153l-38.571-29.433c-0.083-0.063-0.151-0.143-0.202-0.234l-9.479-17.207
				c-0.042-0.077-0.071-0.161-0.084-0.249l-3.529-23.061l-3.919-4.639c-0.144-0.17-0.204-0.396-0.165-0.617L8.64,92.602
				c0.073-0.407,0.463-0.675,0.871-0.605c0.407,0.073,0.679,0.463,0.605,0.871l-3.992,22.2l3.827,4.531
				c0.089,0.105,0.148,0.234,0.168,0.371l3.542,23.138l9.338,16.952l37.986,28.986l37.392-28.983l9.328-16.937l2.267-23.117
				c0.018-0.187,0.105-0.359,0.244-0.484l5.052-4.545l-2.312-21.808c-0.043-0.412,0.255-0.781,0.667-0.825
				c0.423-0.047,0.781,0.255,0.825,0.666l2.351,22.189c0.025,0.239-0.065,0.476-0.244,0.637l-5.12,4.606l-2.253,22.98
				c-0.01,0.101-0.04,0.199-0.089,0.289l-9.478,17.207c-0.05,0.09-0.117,0.169-0.197,0.231l-37.97,29.432
				C61.314,190.69,61.152,190.742,60.99,190.742z"/>
		</g>
		<g>
			<path d="M61.021,189.52c-0.414,0-0.75-0.336-0.75-0.75v-51.689c0-0.414,0.336-0.75,0.75-0.75c0.414,0,0.75,0.336,0.75,0.75
				v51.689C61.771,189.184,61.435,189.52,61.021,189.52z"/>
		</g>
		<g>
			<path d="M22.418,161.31c-0.178,0-0.356-0.063-0.499-0.19c-0.31-0.276-0.336-0.75-0.061-1.059l25.191-28.238
				c0.276-0.31,0.751-0.335,1.059-0.06c0.31,0.276,0.336,0.75,0.061,1.059L22.978,161.06
				C22.829,161.226,22.624,161.31,22.418,161.31z"/>
		</g>
		<g>
			<path d="M9.377,120.833c-0.385,0-0.713-0.295-0.746-0.686c-0.035-0.413,0.271-0.776,0.683-0.811l21.572-1.849
				c0.433-0.038,0.776,0.271,0.812,0.683c0.035,0.413-0.271,0.776-0.683,0.811L9.443,120.83
				C9.42,120.832,9.399,120.833,9.377,120.833z"/>
		</g>
		<g>
			<path d="M12.941,144.103c-0.271,0-0.533-0.148-0.667-0.405c-0.19-0.368-0.047-0.82,0.321-1.011l29.591-15.325
				c0.368-0.19,0.819-0.047,1.011,0.321c0.19,0.368,0.047,0.82-0.321,1.011l-29.591,15.325
				C13.174,144.076,13.057,144.103,12.941,144.103z"/>
		</g>
		<g>
			<path d="M5.324,116.032c-0.307,0-0.594-0.189-0.705-0.493c-0.142-0.389,0.059-0.82,0.448-0.961l13.526-4.931
				c0.392-0.142,0.82,0.06,0.962,0.448c0.142,0.389-0.059,0.82-0.448,0.961L5.58,115.987C5.496,116.017,5.409,116.032,5.324,116.032
				z"/>
		</g>
		<g>
			<path d="M60.827,189.52c-0.283,0-0.555-0.162-0.682-0.436L38.5,142.084c-0.173-0.376-0.009-0.822,0.368-0.995
				c0.373-0.173,0.82-0.01,0.995,0.367l21.644,47c0.173,0.376,0.009,0.821-0.368,0.995C61.038,189.497,60.932,189.52,60.827,189.52z
				"/>
		</g>
		<g>
			<path d="M99.145,160.973c-0.206,0-0.411-0.084-0.56-0.25l-24.891-27.9c-0.275-0.309-0.249-0.783,0.06-1.059
				c0.308-0.275,0.781-0.249,1.059,0.06l24.891,27.9c0.275,0.309,0.249,0.783-0.061,1.059
				C99.501,160.91,99.323,160.973,99.145,160.973z"/>
		</g>
		<g>
			<path d="M110.719,120.833c-0.024,0-0.047-0.001-0.07-0.003l-19.804-1.849c-0.413-0.038-0.716-0.404-0.678-0.816
				c0.038-0.413,0.411-0.718,0.816-0.677l19.804,1.849c0.413,0.039,0.716,0.404,0.678,0.816
				C111.429,120.541,111.102,120.833,110.719,120.833z"/>
		</g>
		<g>
			<path d="M108.436,144.103c-0.117,0-0.237-0.028-0.349-0.086l-29.104-15.325c-0.366-0.193-0.507-0.646-0.314-1.013
				c0.194-0.365,0.647-0.506,1.014-0.314l29.104,15.325c0.366,0.193,0.507,0.646,0.314,1.013
				C108.966,143.957,108.705,144.103,108.436,144.103z"/>
		</g>
		<g>
			<path d="M116.054,116.032c-0.088,0-0.178-0.016-0.266-0.048l-13.04-4.931c-0.387-0.146-0.582-0.58-0.436-0.967
				c0.147-0.388,0.577-0.582,0.967-0.437l13.04,4.931c0.387,0.146,0.582,0.58,0.436,0.967
				C116.642,115.847,116.357,116.032,116.054,116.032z"/>
		</g>
		<g>
			<path d="M61.037,189.52c-0.105,0-0.212-0.021-0.313-0.068c-0.377-0.174-0.541-0.619-0.368-0.995l21.646-47
				c0.174-0.376,0.622-0.538,0.995-0.367c0.377,0.173,0.541,0.619,0.368,0.995l-21.646,46.999
				C61.592,189.358,61.321,189.52,61.037,189.52z"/>
		</g>
	</g>
</g>
<g id="DESIGNED_BY_FREEPIK">
</g>
</svg>
