<svg xmlns="http://www.w3.org/2000/svg" viewBox="0 0 50 50"><path d="M24 4c-3.031 0-5.707 1.422-7.781 3.063-2.074 1.64-3.559 3.507-4.313 4.687-1.074 1.684-1.793 3.71-1.719 5.813.06 1.738.774 2.843.688 3.875-.09 1.058-.54 2.093-1.281 2.75-.528.468-1.614.921-2.219 2.156A3.85 3.85 0 0 0 7 27.969c-.016.68.098 1.336.281 1.906.43 1.352 1.344 2.504 1.563 3.25.09.305.144.61.156.906.02.551-.117 1.012-.375 1.313C7.965 36.114 5 39.937 5 46v1h40v-1c0-1.098-.145-2.46-.344-3.344-.164-.73-.504-1.742-.843-2.687-.34-.946-.684-1.844-.75-2.032-.133-.378-.036-1.41.25-2.53C43.597 34.284 44 33.12 44 32c0-2.621-1.277-4.422-2.531-5.563-.63-.57-1.258-.996-1.719-1.312-.348-.238-.59-.504-.625-.5A1.526 1.526 0 0 1 39 24c0-.074.184-.828.438-1.781.253-.953.53-2.2.53-3.719 0-.793-.222-1.703-.656-2.813a18.196 18.196 0 0 0-1.937-3.624c-1.703-2.477-4.305-4.918-7.844-5.75-.011-.004-.02.003-.031 0-.168-.043-.309-.067-.438-.094h-.03c-.184-.035-.384-.094-.626-.125-.285-.035-.601-.047-.906-.063C26.73 4.816 25.457 4 24 4zm0 2c.848 0 1.621.492 2 1.25l.375.75H27c.387 0 .773.043 1.156.094.145.02.313.027.5.062.012.004.02-.004.032 0 .136.028.25.07.343.094h.032c2.91.676 5.136 2.73 6.656 4.938a16.23 16.23 0 0 1 1.718 3.218c.376.965.532 1.79.532 2.094 0 1.29-.203 2.348-.438 3.219-.234.87-.531 1.468-.531 2.281 0 .535.102 1.098.375 1.625.371.715.785.809 1.25 1.125.465.316 1 .7 1.5 1.156C41.129 28.816 42 29.996 42 32c0 .54-.324 1.71-.625 2.906-.3 1.196-.652 2.446-.219 3.688.114.328.418 1.14.75 2.062.332.922.703 1.95.813 2.438.093.41.133 1.199.187 1.906h-1c-.273-1.98-1.004-3.523-2-4.688-1.152-1.343-2.617-2.18-4.031-2.843-1.414-.664-2.781-1.168-3.844-1.75-1.02-.559-1.691-1.153-2.031-1.969-.094-1.148-.02-1.398 0-2.406.594-.48 1.227-.985 1.813-1.563C32.983 28.63 34 27.071 34 25v-3c0-6.93-6.469-10.844-6.469-10.844l-.375-.219-.375.094s-2.656.637-5.312 2.281C18.812 14.957 16 17.762 16 22v3c0 2.027.926 3.512 2.063 4.625.609.598 1.28 1.121 1.937 1.656.016 1.078.094 1.293 0 2.469-.34.816-1.012 1.41-2.031 1.969-1.063.582-2.43 1.086-3.844 1.75-1.414.664-2.879 1.5-4.031 2.843-.996 1.165-1.727 2.708-2 4.688h-.969c.324-4.777 2.617-7.89 3.031-8.375.672-.785.875-1.758.844-2.656a5.769 5.769 0 0 0-.25-1.438c-.406-1.375-1.32-2.523-1.563-3.281A3.874 3.874 0 0 1 9 28.031c.008-.304.082-.562.188-.781.222-.45.921-.828 1.75-1.563 1.19-1.058 1.812-2.562 1.937-4.062.152-1.824-.652-3.074-.688-4.125-.054-1.598.508-3.25 1.407-4.656.617-.965 2.02-2.75 3.875-4.219C19.324 7.156 21.598 6 24 6zm2.781 7.125A13.23 13.23 0 0 1 29.844 16c-1.86.059-3.407 1.156-3.407 1.156l1.125 1.688S28.977 18 30 18h1.063c.55 1.152.937 2.484.937 4v3c0 1.453-.621 2.383-1.594 3.344-.972.96-2.289 1.82-3.437 2.968-.645.645-1.16.688-1.969.688-.813 0-1.29-.04-1.969-.719-1.289-1.289-2.629-2.18-3.562-3.093C18.535 27.273 18 26.468 18 25v-3c0-1.582.492-2.895 1.25-4H20c1.023 0 2.438.844 2.438.844l1.125-1.688s-1.118-.758-2.594-1.031c.5-.418 1.02-.79 1.562-1.125 1.992-1.234 3.692-1.723 4.25-1.875zM21 20c-.602 0-1 .398-1 1s.398 1 1 1 1-.5 1-1c0-.602-.398-1-1-1zm8 0c-.602 0-1 .398-1 1s.398 1 1 1 1-.398 1-1-.398-1-1-1zm-5 7c-1 0-2 1-2 1s.262 2 3 2 3-2 3-2-1.2-1-2-1-1 1-1 1 0-1-1-1zm-1.938 6.125c.981.742 2.083.875 2.938.875.832 0 1.953-.11 2.938-.844.007.25.027.547.062.938l.063.25c.55 1.48 1.734 2.433 3 3.125.308.168.617.32.937.468V41c0 1.055-.762 2.094-1.656 2.875-.766.672-1.426 1.02-1.625 1.125H21.28c-.199-.105-.86-.453-1.625-1.125C18.762 43.094 18 42.055 18 41v-3.063c.32-.148.629-.3.938-.468 1.265-.692 2.449-1.645 3-3.125l.062-.25c.035-.403.055-.715.063-.969zM16 38.813V41c0 1.723.977 3.043 1.969 4h-7.75c.25-1.441.707-2.594 1.406-3.406.875-1.02 2.043-1.73 3.344-2.344.332-.156.687-.293 1.031-.438zm18 0c.344.144.7.28 1.031.437 1.301.613 2.469 1.324 3.344 2.344.7.812 1.156 1.965 1.406 3.406h-7.75c.992-.957 1.969-2.277 1.969-4z"/></svg>