<svg xmlns="http://www.w3.org/2000/svg" viewBox="0 0 80 80"><path d="M40 7c-1.5 0-2.54.93-3.715 1.648C35.113 9.363 33.84 10 32 10a1.001 1.001 0 0 0-.844 1.543L33 14.406V17c0 3.855 3.145 7 7 7s7-3.145 7-7v-2.594l1.844-2.863A1.001 1.001 0 1 0 48 10c-1.875 0-3.145-.637-4.313-1.352C42.523 7.934 41.5 7 40 7zm0 2c.5 0 1.363.566 2.645 1.352.937.574 2.218 1.078 3.703 1.367l-1.192 1.851c-.101.16-.156.348-.156.54V15H35v-.89c0-.192-.055-.38-.156-.54l-1.196-1.855c1.47-.29 2.743-.79 3.68-1.36C38.613 9.57 39.5 9 40 9zm0 2.266a1.425 1.425 0 0 0-1.422 1.421c0 .79.637 1.422 1.422 1.422a1.42 1.42 0 0 0 1.422-1.421c0-.786-.637-1.418-1.422-1.422zm-4.977 6.218c1.204.715 2.946 1.47 4.977 1.47s3.773-.755 4.977-1.47A4.981 4.981 0 0 1 40 22a4.981 4.981 0 0 1-4.977-4.516zM35 26c-4.406 0-8 3.594-8 8v14.719a5.014 5.014 0 0 0 4.02 4.906l.07.012.91.113V66c0 2.2 1.8 4 4 4h8c2.2 0 4-1.8 4-4V53.75l.91-.113.07-.012A5.014 5.014 0 0 0 53 48.719V34c0-4.406-3.594-8-8-8h-2c-.379 0-.727.215-.895.55L40 30.767l-2.105-4.215A1.002 1.002 0 0 0 37 26zm0 2h1.383l2.722 5.45a1.002 1.002 0 0 0 1.79 0L43.617 28H45c3.324 0 6 2.676 6 6v13h-4c-.55 0-1 .45-1 1s.45 1 1 1h3.977a2.978 2.978 0 0 1-2.383 2.656l-.63.082a1 1 0 1 0-1.862.7.97.97 0 0 0-.102.433V62h-4v2h4v2c0 1.117-.883 2-2 2h-8c-1.117 0-2-.883-2-2v-2h4v-2h-4v-9.129a.994.994 0 0 0-.102-.434.998.998 0 1 0-1.863-.699l-.629-.082A2.978 2.978 0 0 1 29.023 49H33c.55 0 1-.45 1-1s-.45-1-1-1h-4V34c0-3.324 2.676-6 6-6zm-2 7c-.55 0-1 .45-1 1s.45 1 1 1 1-.45 1-1-.45-1-1-1zm14 0c-.55 0-1 .45-1 1s.45 1 1 1 1-.45 1-1-.45-1-1-1zm-14 4c-.55 0-1 .45-1 1s.45 1 1 1 1-.45 1-1-.45-1-1-1zm14 0c-.55 0-1 .45-1 1s.45 1 1 1 1-.45 1-1-.45-1-1-1zm-14 4c-.55 0-1 .45-1 1s.45 1 1 1 1-.45 1-1-.45-1-1-1zm14 0c-.55 0-1 .45-1 1s.45 1 1 1 1-.45 1-1-.45-1-1-1z"/></svg>