<svg xmlns="http://www.w3.org/2000/svg" viewBox="0 0 32 32"><path d="M16 3L3 7l3.105.953L9 8.843v2.36c-.648.242-1.23.684-1.71 1.25-.716.848-1.286 1.969-1.767 3.313C4.563 18.449 4 22.039 4 26v1h8.898c.907.617 1.95 1 3.102 1 1.156 0 2.195-.383 3.105-1H28v-1c0-3.96-.563-7.55-1.523-10.234-.48-1.344-1.051-2.465-1.766-3.313-.48-.566-1.063-1.008-1.711-1.25v-2.36L29 7zm0 2.094L22.203 7 16 8.906 9.797 7zM11 9.46L16 11l.297-.09L21 9.46v2.321c-.012.016 0 .02-.047.051-.156.133-.48.324-.926.504-.894.355-2.28.664-4.027.664-1.746 0-3.133-.309-4.027-.664-.446-.18-.77-.371-.926-.504-.047-.031-.035-.035-.047-.05zm-1.496 3.684c.09.085.184.168.277.242.387.312.864.574 1.453.804.09.04.196.067.293.102-.695.3-1.343.676-1.87 1.215A3.574 3.574 0 0 0 8.624 18c0 2.176.691 4.566 1.926 6.504.11.172.23.332.347.496H6.07c.094-3.348.567-6.406 1.336-8.563.426-1.19.93-2.12 1.414-2.69.254-.302.48-.49.684-.602zm12.992 0c.203.113.43.3.688.601.48.57.984 1.5 1.41 2.691.77 2.157 1.242 5.215 1.332 8.563h-4.82c.117-.16.234-.32.34-.488 1.234-1.938 1.929-4.328 1.929-6.512h-2c0 1.742-.605 3.855-1.613 5.438C18.75 25.015 17.442 26 16 26c-1.438 0-2.75-.988-3.762-2.574-1.008-1.582-1.613-3.692-1.613-5.426 0-.477.14-.77.46-1.094.321-.324.845-.64 1.509-.898 1.324-.516 3.129-.801 4.61-1.055v-.004c1.433-.105 2.636-.386 3.562-.758.59-.23 1.066-.492 1.453-.804.093-.075.187-.157.277-.242zM13 18c-.55 0-1 .45-1 1s.45 1 1 1 1-.45 1-1-.45-1-1-1zm6 0c-.55 0-1 .45-1 1s.45 1 1 1 1-.45 1-1-.45-1-1-1z"/></svg>