<svg xmlns="http://www.w3.org/2000/svg" viewBox="0 0 48 48"><path d="M9 25.684V13H7v12.684A2.99 2.99 0 0 0 5 28.5c0 1.656 3 6 3 6s3-4.344 3-6a2.99 2.99 0 0 0-2-2.816z" fill="#ffc107"/><path d="M25 37c-5 0-5-4-5-4v-6h10v6s0 4-5 4z" fill="#ff9800"/><path d="M7 13L25 2l18 11-18 10zm23 20s-1 4-5 4-5-4-5-4S9 34.984 9 46h32c0-10.977-11-13-11-13" fill="#455a64"/><path d="M36 21a1.999 1.999 0 1 1-4 0 1.999 1.999 0 1 1 4 0m-18 0a1.999 1.999 0 1 0-4 0 1.999 1.999 0 1 0 4 0" fill="#ffa726"/><path d="M34 15c0-6-18-4.973-18 0v7c0 4.973 4.027 9 9 9s9-4.027 9-9z" fill="#ffb74d"/><path d="M28 21c0-.55.45-1 1-1s1 .45 1 1-.45 1-1 1-1-.45-1-1m-8 0c0 .55.45 1 1 1s1-.45 1-1-.45-1-1-1-1 .45-1 1" fill="#784719"/><path d="M15 17v2.285L17 21v-5h-1.96c-.024.328-.04.66-.04 1zm18-1v5l2-1.742V17c0-.336-.012-.668-.027-1z" fill="#424242"/><path d="M35 18s-5-1-10-1-10 1-10 1c0-4 1-6 1-6s2.375-2 9.25-2S34 12 34 12s1 2 1 6z" fill="#62808c"/></svg>