<svg xmlns="http://www.w3.org/2000/svg" viewBox="0 0 40 40"><path d="M.934 13.668L20 1.594l19.066 12.074L20 25.742z" fill="#98ccfd"/><path d="M20 2.184l18.133 11.484L20 25.148 1.867 13.668 20 2.184M20 1L0 13.668l20 12.668 20-12.668z" fill="#4788c7"/><path d="M29.102 27.5c-1.875 0-3.403-1.57-3.403-3.5s1.528-3.5 3.403-3.5c2.445 0 3.398.605 3.398 2.168 0 1.672-.71 4.832-3.398 4.832zm-18.204 0c-2.687 0-3.398-3.16-3.398-4.832 0-1.559.953-2.168 3.398-2.168 1.875 0 3.403 1.57 3.403 3.5s-1.528 3.5-3.403 3.5z" fill="#dff0fe"/><path d="M29.102 21c2.675 0 2.898.79 2.898 1.668C32 24.164 31.395 27 29.102 27c-1.602 0-2.903-1.348-2.903-3s1.301-3 2.903-3m-18.204 0c1.602 0 2.903 1.348 2.903 3s-1.301 3-2.903 3C8.605 27 8 24.164 8 22.668 8 21.789 8.223 21 10.898 21m18.204-1c-2.157 0-3.903 1.79-3.903 4s1.746 4 3.903 4C32.004 28 33 24.875 33 22.668 33 20.457 31.254 20 29.102 20zm-18.204 0C8.746 20 7 20.457 7 22.668 7 24.875 8.004 28 10.898 28c2.157 0 3.903-1.79 3.903-4s-1.746-4-3.903-4z" fill="#4788c7"/><path d="M20 38.5c-1.27 0-2.445-.527-3.316-1.484l-.082-.09-.118-.043A10.514 10.514 0 0 1 9.5 27V16.5h21V27c0 4.426-2.805 8.395-6.98 9.883l-.122.043-.082.09c-.87.957-2.046 1.484-3.316 1.484z" fill="#fff"/><path d="M30 17v10a10.01 10.01 0 0 1-6.648 9.41l-.239.086-.168.184a3.944 3.944 0 0 1-5.89 0l-.168-.184-.239-.086A10.01 10.01 0 0 1 10 27V17h20m1-1H9v11c0 4.781 3.055 8.836 7.316 10.355A4.966 4.966 0 0 0 20 39c1.465 0 2.77-.64 3.684-1.645C27.945 35.835 31 31.781 31 27z" fill="#4788c7"/><path d="M30.5 25.5v-2.71c0-2.192-6.629-5.028-7.344-5.267l-.445-.144-.176.437c-.629 1.575-3.523 1.97-6.324 2.348-3.3.453-6.711.918-6.711 3.55V25.5h-.063c-.195-1.55-.847-6.844-.93-9.508l22.977.09c-.101 2.172-.742 7.797-.93 9.418z" fill="#b6dcfe"/><path d="M9.027 16.496l21.93.086c-.086 1.238-.273 3.14-.46 4.902-1.696-2.316-7.118-4.414-7.184-4.433l-.891-.293-.352.87c-.52 1.306-3.39 1.696-5.925 2.044-2.598.351-5.461.742-6.618 2.332-.207-1.848-.422-3.98-.5-5.508M8 15.492C8 18.382 9 26 9 26h1v-2.285C10 19.48 21.469 21.84 23 18c1.438.473 7 3.191 7 4.79V26h1s1-8.492 1-10.414z" fill="#4788c7"/><path d="M27 25.5a1.5 1.5 0 1 1-3 0 1.5 1.5 0 0 1 3 0zm-11 0a1.5 1.5 0 1 1-3 0 1.5 1.5 0 0 1 3 0z" fill="#4788c7"/><path d="M31.5 19.848C29.898 19.094 25.828 17.5 20 17.5s-9.898 1.594-11.5 2.348v-4.891c.973-.531 4.965-2.457 11.5-2.457s10.527 1.926 11.5 2.457z" fill="#98ccfd"/><path d="M20 13c5.95 0 9.738 1.621 11 2.258v3.824C29.023 18.25 25.187 17 20 17c-5.188 0-9.023 1.25-11 2.082v-3.824C10.262 14.62 14.055 13 20 13m0-1c-7.797 0-12 2.668-12 2.668v6S12.574 18 20 18s12 2.668 12 2.668v-6S27.797 12 20 12zM4 33.7H3V11.866l1-.605z" fill="#4788c7"/><path d="M3.5 37.29c-.906-1.7-2-4.013-2-4.79 0-1.102.898-2 2-2 1.102 0 2 .898 2 2 0 .777-1.094 3.09-2 4.79z" fill="#dff0fe"/><path d="M3.5 31A1.5 1.5 0 0 1 5 32.5c0 .516-.68 2.098-1.5 3.71C2.68 34.599 2 33.017 2 32.5A1.5 1.5 0 0 1 3.5 31m0-1A2.497 2.497 0 0 0 1 32.5c0 1.383 2.5 5.832 2.5 5.832S6 33.882 6 32.5C6 31.117 4.883 30 3.5 30z" fill="#4788c7"/></svg>