<svg xmlns="http://www.w3.org/2000/svg" viewBox="0 0 26 26"><path d="M12.137 12.84l-2.489 8.55c-2.164-1.453-4.515-2.652-9.503-.585l2.43-8.461.03-.016c4.97-2.043 7.375-.95 9.532.512zm1.3.824l-2.457 8.457c2.16 1.469 4.551 2.637 9.536.574l2.37-8.246c-5.077 1.739-7.288.668-9.448-.785zm-.886-2.363l2.453-8.473c-2.16-1.46-4.555-2.633-9.54-.566L3.009 10.77c1.98-.817 3.543-1.192 4.851-1.18 1.993.012 3.387.836 4.692 1.71zm3.75-7.582l-2.457 8.52c2.152 1.46 4.758 2.656 9.531.523l2.453-8.489c-4.98 2.055-7.375.903-9.527-.554z"/></svg>