<svg xmlns="http://www.w3.org/2000/svg" viewBox="0 0 32 32"><path d="M12.906 5c-1.312 0-2.734.328-4.312.938l-.469.156-.125.5-1.781 6.125-.5 1.781 1.75-.531c1.164-.36 2.136-.531 3-.531h.062c1.461.007 2.574.453 3.594 1.03l1.125.626.344-1.219 1.875-6.469.218-.75-.656-.406C15.973 5.598 14.641 5 12.906 5zm0 2c.969 0 1.711.273 2.406.625l-1.343 4.594c-.989-.422-2.07-.774-3.406-.781h-.094c-.578 0-1.254.203-1.875.312L9.78 7.687C10.96 7.277 12.046 7 12.905 7zm6.063.625l-.375 1.219-1.875 6.531-.219.75.656.375c1.098.668 2.477 1.281 4.188 1.281 1.191 0 2.613-.05 4.218-.718l.438-.188.125-.469L27.969 10l.468-1.719-1.687.469c-1.188.32-1.934.25-3 .25-1.64 0-2.785-.246-3.688-.75zm1.281 2.813c1.04.355 2.168.562 3.5.562.512 0 1.25-.117 1.875-.156l-1.25 4.406c-1.074.371-2.027.531-3.031.531-.977 0-1.735-.285-2.469-.656zM10 15.405c-1.363 0-2.613.39-4.188 1l-.468.188-.125.468-1.844 6.188-.531 1.781 1.781-.531c1.047-.309 2.418-.5 3.281-.5 1.578 0 2.168.297 3.25.906l1.094.625.344-1.218L14.5 17.75l.219-.75-.656-.375c-1.168-.71-2.477-1.219-4.063-1.219zm0 2c.918 0 1.645.23 2.375.594L11 22.656C10.152 22.29 9.21 22 7.906 22c-.644 0-1.426.215-2.187.344l1.25-4.157c1.21-.445 2.176-.78 3.031-.78zm6 .5l-.344 1.219-1.875 6.469-.219.75.626.375c1.054.656 2.421 1.281 4.156 1.281 1.222 0 2.57-.16 4.187-.781l.469-.157.125-.5 1.844-6.156.5-1.687-1.719.437c-1.074.266-2.02.375-2.875.375-1.613 0-2.758-.43-3.781-1zm1.25 2.844c1.027.434 2.168.781 3.625.781.535 0 1.148-.14 1.719-.218l-1.219 4.125c-1.133.375-2.094.562-3.031.562-.989 0-1.735-.293-2.438-.656z"/></svg>