<svg xmlns="http://www.w3.org/2000/svg" viewBox="0 0 64 64"><path d="M13.66 7.398A29.86 29.86 0 0 1 24.13 5c1.574-.004 3.14.168 4.672.52a32.205 32.205 0 0 1 6.527 2.93l-5.617 19.12a20.126 20.126 0 0 0-11-3.64c-3.574.097-7.102.84-10.41 2.191z" fill="#ed7899"/><path d="M28.8 5.52A20.639 20.639 0 0 0 24.13 5a29.86 29.86 0 0 0-10.47 2.398l-.52 1.813a1.59 1.59 0 0 0 .4 1.601c.417.418 1.034.57 1.6.399a25.956 25.956 0 0 1 7-1.191 20.63 20.63 0 0 1 4.669.52 32.237 32.237 0 0 1 6.53 2.929l-4.077 13.82.449.281 5.617-19.12a32.205 32.205 0 0 0-6.527-2.93z" fill="#f283a5"/><path d="M55.57 39.27A33.29 33.29 0 0 1 45.43 41 21.247 21.247 0 0 1 33 37.32l-5.488 18.93c1.617.93 7.09 3.86 11.27 3.86a31.091 31.091 0 0 0 11.546-2.641z" fill="#f9e3ae"/><path d="M22.45 53.262c1.39-4.692 4.722-16 5.722-19.422a45.825 45.825 0 0 0-2.211-1.281 18.473 18.473 0 0 0-8.352-2.23h-1.09a35.472 35.472 0 0 0-8.46 1.862 44.92 44.92 0 0 0-1.618.618L1 51.609a29.238 29.238 0 0 1 10.07-2 20.334 20.334 0 0 1 11.38 3.692z" fill="#85cbf8"/><path d="M51.34 51.469a31.094 31.094 0 0 1-11.55 2.64c-3.75 0-8.52-2.347-10.642-3.507L27.52 56.25c1.62.93 7.09 3.86 11.27 3.86a31.094 31.094 0 0 0 11.55-2.641l5.23-18.2-.789.22z" fill="#f6d397"/><path d="M23.45 47.262a20.274 20.274 0 0 0-11.38-3.692 28.36 28.36 0 0 0-9.25 1.758L1 51.61a29.238 29.238 0 0 1 10.07-2 20.334 20.334 0 0 1 11.38 3.692c1.39-4.692 4.722-16 5.722-19.422l-.652-.379c-1.38 4.648-3.149 10.648-4.07 13.762z" fill="#6fc6f0"/><path d="M63 13.64a28.734 28.734 0 0 1-10.36 2.079A21.238 21.238 0 0 1 40.353 12l-5.57 19.14a22.011 22.011 0 0 0 12 3.61 25.816 25.816 0 0 0 10.616-2.46v-.13l.23-.05z" fill="#72caaf"/><path d="M39.352 17a21.293 21.293 0 0 0 12.296 3.762c3.368-.047 6.7-.684 9.84-1.89L63 13.64a28.734 28.734 0 0 1-10.36 2.078A21.238 21.238 0 0 1 40.353 12l-5.57 19.14.39.231z" fill="#82d8bb"/><path d="M28.691 33c-.71-.43-1.48-.89-2.28-1.32a19.426 19.426 0 0 0-8.802-2.34h-1.168a36.48 36.48 0 0 0-8.722 1.922c-.54.199-1.09.398-1.66.629a.996.996 0 0 0-.59.648L0 51.33c-.11.366 0 .757.277 1.015a.992.992 0 0 0 1.032.207 28.15 28.15 0 0 1 9.722-2 19.48 19.48 0 0 1 10.88 3.55 1.002 1.002 0 0 0 1.5-.563c1.39-4.686 4.718-15.999 5.718-19.417A1 1 0 0 0 28.69 33zM21.86 51.719a20.525 20.525 0 0 0-10.789-3.16c-2.914.035-5.804.52-8.57 1.441l4.762-16.41 1.129-.418a34.444 34.444 0 0 1 8.218-1.813h1c2.754.07 5.45.793 7.871 2.11.508.281 1 .57 1.508.86-1.09 3.671-3.687 12.542-5.129 17.39zM8.66 27.05a28.71 28.71 0 0 1 10.059-2.128 19.219 19.219 0 0 1 10.46 3.488c.16.106.348.16.54.16.12 0 .238-.02.351-.058.293-.11.52-.352.61-.653L36.29 8.73a1 1 0 0 0-.462-1.152 33.406 33.406 0 0 0-6.797-3A21.76 21.76 0 0 0 24.11 4c-3.726.164-7.39 1-10.82 2.469a1.011 1.011 0 0 0-.59.652L7.34 25.84a1.002 1.002 0 1 0 1.309 1.21zm5.828-18.902c3.063-1.273 6.328-2 9.64-2.148 1.493-.004 2.977.16 4.43.488 1.95.61 3.82 1.43 5.59 2.442l-.828 2.832A27.312 27.312 0 0 0 28 9.55 21.708 21.708 0 0 0 23.11 9a27.15 27.15 0 0 0-7.329 1.238 1.004 1.004 0 0 0 .578 1.922A25.078 25.078 0 0 1 23.13 11c1.492-.004 2.976.16 4.43.488a27.23 27.23 0 0 1 5.191 2.23L29.121 26a20.242 20.242 0 0 0-10.402-3.11 28.637 28.637 0 0 0-8.93 1.598zm49.192 4.75a1.004 1.004 0 0 0-1-.199 27.762 27.762 0 0 1-10 2 20.4 20.4 0 0 1-11.73-3.578.989.989 0 0 0-.903-.121.987.987 0 0 0-.625.66l-5.602 19.2c-.133.433.04.898.418 1.14a23.047 23.047 0 0 0 12.543 3.762 26.802 26.802 0 0 0 11-2.543 1.93 1.93 0 0 0 .758-.82L64 13.921a1.004 1.004 0 0 0-.32-1.024zM56.79 31.36a1.147 1.147 0 0 0-.2.2c-7.32 3.18-14.39 2.863-20.59-.868l3.602-12.402a21.832 21.832 0 0 0 9.128 3.25h.122a1 1 0 0 0 1.058-.937 1.005 1.005 0 0 0-.941-1.063 19.928 19.928 0 0 1-8.79-3.27l.801-2.75a22.497 22.497 0 0 0 11.711 3.192 28.747 28.747 0 0 0 8.848-1.48zm-1.52 6.96A32.299 32.299 0 0 1 45.43 40a20.36 20.36 0 0 1-11.871-3.5A.998.998 0 0 0 32 37l-5.45 19c-.116.434.067.89.45 1.121 2.11 1.2 7.469 4 11.77 4a32.085 32.085 0 0 0 11.949-2.723.987.987 0 0 0 .59-.648l5.23-18.2a1 1 0 0 0-.262-1 1.009 1.009 0 0 0-1.007-.23zM51 51.56V51c0-.55-.45-1-1-1s-1 .45-1 1v2c0 .55.45 1 1 1 .11-.004.219-.023.32-.059l-.8 2.79a29.595 29.595 0 0 1-10.73 2.39c-3.47 0-8-2.223-10.09-3.351l.722-2.48a.98.98 0 0 0 .59.21c.55 0 1-.45 1-1v-2a1.014 1.014 0 0 0-.532-.871l3.11-10.738A22.786 22.786 0 0 0 45.43 42a33.218 33.218 0 0 0 8.672-1.238z" fill="#8d6c9f"/><path d="M52.352 20.73a1 1 0 0 0 1 .93h.07c.965-.07 1.926-.191 2.879-.36a1.015 1.015 0 0 0-.352-2 25.51 25.51 0 0 1-2.668.329.994.994 0 0 0-.93 1.102zM6 42.25c-.55 0-1 .45-1 1v2c0 .55.45 1 1 1s1-.45 1-1v-2c0-.55-.45-1-1-1zm5-.5c-.55 0-1 .45-1 1v2c0 .55.45 1 1 1s1-.45 1-1v-2c0-.55-.45-1-1-1zm5 .5c-.55 0-1 .45-1 1v2c0 .55.45 1 1 1s1-.45 1-1v-2c0-.55-.45-1-1-1zm5 2c-.55 0-1 .45-1 1v2c0 .55.45 1 1 1s1-.45 1-1v-2c0-.55-.45-1-1-1zm14 7.25c-.55 0-1 .45-1 1v2c0 .55.45 1 1 1s1-.45 1-1v-2c0-.55-.45-1-1-1zm5 .75c-.55 0-1 .45-1 1v2c0 .55.45 1 1 1s1-.45 1-1v-2c0-.55-.45-1-1-1zm4 .25v2c0 .55.45 1 1 1s1-.45 1-1v-2c0-.55-.45-1-1-1s-1 .45-1 1z" fill="#8d6c9f"/></svg>