<svg xmlns="http://www.w3.org/2000/svg" viewBox="0 0 24 24"><path d="M12 2a3 3 0 1 0 .002 6.002A3 3 0 0 0 12 2zM9 9c-3.324 0-6 2.676-6 6v2h2v-2c0-1.98 1.316-3.535 3.156-3.906A2.896 2.896 0 0 0 8 12v5h2v-5c0-.555.445-1 1-1h2c.555 0 1 .445 1 1v5h2v-5c0-.32-.063-.617-.156-.906C17.684 11.464 19 13.02 19 15v2h2v-2c0-3.324-2.676-6-6-6zm-5 9a1.999 1.999 0 1 0 0 4 1.999 1.999 0 1 0 0-4zm5 0a1.999 1.999 0 1 0 0 4 1.999 1.999 0 1 0 0-4zm6 0a1.999 1.999 0 1 0 0 4 1.999 1.999 0 1 0 0-4zm5 0a1.999 1.999 0 1 0 0 4 1.999 1.999 0 1 0 0-4z"/></svg>