<svg xmlns="http://www.w3.org/2000/svg" viewBox="0 0 50 50"><path d="M25 7c-9.074 0-15.207.984-19.445 3.105-.946.473-1.817 1.036-2.48 1.832C2.41 12.739 2 13.793 2 15c0 6.168 1.04 18.285 3.05 24.316 1.169 3.508 4.634 4.633 4.634 4.633C12.836 45 18.309 46 25 46c6.602 0 12.152-.504 15.363-2.078.086-.027 3.434-1.145 4.586-4.606C46.961 33.286 48 21.168 48 15c0-1.21-.418-2.266-1.082-3.066-.668-.801-1.54-1.364-2.469-1.829C40.207 7.985 34.074 7 25 7zm0 2c8.926 0 14.793 1.016 18.55 2.895.798.398 1.427.835 1.829 1.32.402.48.621.996.621 1.785 0 5.926-1.137 18.242-2.95 23.684-.831 2.492-3.366 3.367-3.366 3.367l-.067.023-.066.031C37.098 43.332 31.53 44 25 44c-6.492 0-11.836-1-14.684-1.95 0 0-2.535-.874-3.367-3.366C5.137 33.242 4 20.926 4 15c0-.793.215-1.3.613-1.781.399-.485 1.028-.922 1.832-1.324C10.207 10.015 16.075 9 25 9zm0 3c-8.137 0-12.918 1.71-15.844 2.598A2.983 2.983 0 0 0 7.04 17.55c.2 5.238 2.066 15.68 2.738 19.344.22 1.187 1.141 2.085 2.258 2.37C14.816 39.986 19.867 41 25 41c2.566 0 5.352-.254 7.734-.594 2.383-.34 4.29-.73 5.364-1.144h.004c.937-.367 1.894-1.13 2.117-2.328v-.004c.664-3.63 2.539-14.121 2.742-19.38a2.99 2.99 0 0 0-2.148-2.968C38.011 13.762 33.14 12 25 12zm0 2c7.855 0 12.313 1.64 15.25 2.5a.978.978 0 0 1 .71.973c-.187 4.875-2.05 15.488-2.71 19.093-.066.356-.336.621-.875.829-.664.257-2.621.703-4.922 1.03-2.305.329-5.02.575-7.453.575-4.867 0-9.816-.984-12.465-1.668-.433-.113-.719-.406-.789-.797-.668-3.64-2.52-14.203-2.707-19.062a.95.95 0 0 1 .695-.957C12.766 15.594 17.137 14 25 14zm-7 20v2h2v-2zm6 0v2h2v-2zm6 0v2h2v-2z"/></svg>