<svg xmlns="http://www.w3.org/2000/svg" viewBox="0 0 32 32"><path d="M16 6c-4.848 0-8.766.89-10.875 1.5-1.422.414-2.293 1.855-2.094 3.313l1.594 11.874c.176 1.293 1.18 2.356 2.469 2.563 1.87.3 5.293.75 8.906.75 3.613 0 7.035-.45 8.906-.75 1.29-.207 2.293-1.27 2.469-2.563l1.594-11.875c.199-1.457-.672-2.902-2.094-3.312C24.765 6.887 20.848 6 16 6zm0 2c4.598 0 8.336.863 10.313 1.438A.981.981 0 0 1 27 10.531l-1.625 11.875c-.063.453-.371.778-.781.844-1.805.293-5.153.75-8.594.75s-6.79-.457-8.594-.75c-.41-.066-.718-.39-.781-.844L5 10.531a.98.98 0 0 1 .688-1.094C7.663 8.864 11.402 8 16 8zm0 2c-2.871 0-5.18.496-6.438.844-1.015.277-1.68 1.304-1.53 2.344l.937 6.593a2.12 2.12 0 0 0 1.781 1.782c1.102.167 3.113.437 5.25.437s4.145-.27 5.25-.438a2.117 2.117 0 0 0 1.781-1.78l.938-6.595a2.145 2.145 0 0 0-1.532-2.343C21.18 10.496 18.872 10 16 10zm0 2c2.637 0 4.777.469 5.906.781.082.024.102.07.094.125l-.938 6.594c-.007.047-.05.082-.125.094-1.042.16-2.96.406-4.937.406-1.977 0-3.895-.246-4.938-.406-.074-.012-.117-.047-.124-.094L10 12.906c-.008-.054.016-.105.094-.125A22.606 22.606 0 0 1 16 12zm-2 4c-.55 0-1 .45-1 1s.45 1 1 1 1-.45 1-1-.45-1-1-1zm4 0c-.55 0-1 .45-1 1s.45 1 1 1 1-.45 1-1-.45-1-1-1z"/></svg>