<svg xmlns="http://www.w3.org/2000/svg" viewBox="0 0 80 80"><path d="M39 8c-9.02 0-16.336 4.441-21.313 10.89C12.712 25.337 10 33.778 10 42c0 7.559 2.004 26.11 2.004 26.11l.098.89H32.48a15.3 15.3 0 0 0 4.063 1.59A4.983 4.983 0 0 0 40 72a5 5 0 0 0 3.46-1.41c1.606-.375 3.102-1 4.454-1.824h19.918l.152-.813S70 57.078 70 40c0-7.8-2.57-14.371-6.09-19.016-3.37-4.445-7.594-7.125-11.488-7.347C51.703 12.734 47.555 8 39 8zm0 2c8.59 0 12.082 5.125 12.082 5.125l.3.422h.52c3.067 0 7.16 2.355 10.414 6.644C65.57 26.484 68 32.641 68 40c0 15.992-1.68 25.672-1.875 26.766H50.52A14.78 14.78 0 0 0 52.062 65H53c3.855 0 7-3.145 7-7v-3.785c.61-.55 1-1.34 1-2.215v-5c0-1.645-1.355-3-3-3h-.652l.636-3.836.098-.629-.52-.363c-.027-.02-2.75-1.977-4.601-8.445l-.523-1.836-1.211 1.476c-8.551 10.45-27.934 8.656-28.13 8.637l-1.3-.129 1.187 7.117c-1.488.516-2.547 1.89-2.547 3.496 0 .977.493 1.594.79 1.961.054.067.125.153.16.207.047 1.672 1.383 3.032 3.074 3.172l.582 3.5A15.097 15.097 0 0 0 29.723 67H13.906C13.75 65.496 12 48.883 12 42c0-7.777 2.594-15.836 7.27-21.89C23.945 14.058 30.629 10 39 10zm13 7c-.55 0-1 .45-1 1s.45 1 1 1 1-.45 1-1-.45-1-1-1zm0 4c-.55 0-1 .45-1 1s.45 1 1 1 1-.45 1-1-.45-1-1-1zm0 4c-.55 0-1 .45-1 1s.45 1 1 1 1-.45 1-1-.45-1-1-1zm-.43 7.969c1.535 4.441 3.442 6.597 4.348 7.433L52.984 58a13.281 13.281 0 0 1-.875 3H53c.5 0 .965-.137 1.379-.355.25-.747.445-1.52.578-2.317L55.516 55H58v3a4.98 4.98 0 0 1-4.625 4.984l.012-.023c-.13.012-.254.039-.387.039h-9.188c-.417-1.156-1.519-2-2.812-2h-2c-1.645 0-3 1.355-3 3v1h.418c.441 1.105 1.324 2 2.582 2h2c1.258 0 2.14-.895 2.582-2h5.871a13.093 13.093 0 0 1-6.707 3.7l-.316.066-.215.238c-1.164 1.281-3.266 1.281-4.43 0l-.215-.238-.316-.067A13.082 13.082 0 0 1 27.016 58l-.86-5.156h-1.41c-.75 0-1.36-.57-1.36-1.27 0-.625-.347-1.058-.597-1.37-.238-.298-.352-.45-.352-.716 0-.91.766-1.66 1.739-1.707l1.125-.054-1.11-6.637c4.45.23 19.09.305 27.38-8.121zM32 46a1.999 1.999 0 1 0 0 4 1.999 1.999 0 1 0 0-4zm16 0a1.999 1.999 0 1 0 0 4 1.999 1.999 0 1 0 0-4zm9.016 0H58c.566 0 1 .434 1 1v5c0 .566-.434 1-1 1h-2.152zM39 63h2c.566 0 1 .434 1 1 0 .566-.434 1-1 1h-2c-.566 0-1-.434-1-1 0-.566.434-1 1-1z"/></svg>