<svg xmlns="http://www.w3.org/2000/svg" viewBox="0 0 16 16"><path d="M13 13H3c-1.652 0-3-1.348-3-3 0-1.293.836-2.434 2.035-2.84.164-1.12 1.02-1.976 2.102-2.133A4.004 4.004 0 0 1 8 2c1.465 0 2.79.793 3.492 2.05C13.391 3.696 15 5.18 15 7c0 .23-.027.465-.086.695A2.983 2.983 0 0 1 16 10c0 1.652-1.348 3-3 3zM4.523 5.504l-.074.492C3.672 6 3 6.672 3 7.5l.012.422-.41.117A2.007 2.007 0 0 0 1 10c0 1.102.898 2 2 2h10c1.102 0 2-.898 2-2a1.99 1.99 0 0 0-.938-1.688l-.347-.218.148-.383A2.01 2.01 0 0 0 14 7c0-1.102-.898-2-2-2-.191 0-.395.035-.621.11l-.438.144-.18-.422A2.991 2.991 0 0 0 8 3a3 3 0 0 0-2.953 2.574l-.063.43h-.433z"/></svg>