<svg xmlns="http://www.w3.org/2000/svg" viewBox="0 0 40 40"><path d="M6.535 32.5l-.187-.008A5.96 5.96 0 0 1 .5 26.5a5.98 5.98 0 0 1 3.766-5.566l.367-.149-.059-.39A5.9 5.9 0 0 1 4.5 19.5c0-3.309 2.691-6 6-6 .516 0 1.047.07 1.57.215l.504.137.114-.508A7.46 7.46 0 0 1 20 7.5c2.7 0 5.2 1.465 6.531 3.82l.164.293.336-.043c.317-.043.64-.07.969-.07a7.497 7.497 0 0 1 7.441 6.602l.028.25.222.125A7.52 7.52 0 0 1 39.5 25c0 4.137-3.363 7.5-7.5 7.5z" fill="#dff0fe"/><path d="M20 8a7.016 7.016 0 0 1 6.094 3.566l.332.586.668-.086C27.44 12.02 27.73 12 28 12a6.999 6.999 0 0 1 6.945 6.16l.059.5.441.25A7.02 7.02 0 0 1 39 25c0 3.86-3.14 7-7 7H6.676l-.317-.008A5.467 5.467 0 0 1 1 26.5a5.475 5.475 0 0 1 3.453-5.102l.734-.296-.117-.782A5.492 5.492 0 0 1 5 19.5c0-3.031 2.469-5.5 5.5-5.5a5.4 5.4 0 0 1 1.441.2l1.008.273.23-1.02A6.951 6.951 0 0 1 20 8m0-1c-3.809 0-6.992 2.664-7.797 6.234A6.449 6.449 0 0 0 10.5 13 6.5 6.5 0 0 0 4 19.5c0 .332.031.652.078.969a6.495 6.495 0 0 0 2.254 12.523V33H32a8 8 0 0 0 8-8 8.002 8.002 0 0 0-4.063-6.96C35.462 14.073 32.094 11 28 11c-.352 0-.695.031-1.035.074A7.993 7.993 0 0 0 20 7z" fill="#4788c7"/></svg>