<svg xmlns="http://www.w3.org/2000/svg" viewBox="0 0 26 26"><path d="M10.25 3C7.094 3 4.547 5.379 4.125 8.406 1.883 9.004.187 10.965.187 13.375c0 2.672 2.083 4.82 4.688 5.125.727 2.031 2.594 3.5 4.875 3.5 1.563 0 2.844-.793 3.813-1.875.796.617 1.73 1.063 2.812 1.063 2.059 0 3.75-1.372 4.375-3.22h.094c2.726 0 4.968-2.218 4.968-4.937 0-2.316-1.667-4.195-3.843-4.719-.7-1.925-2.489-3.343-4.657-3.343-.812 0-1.535.25-2.218.593C13.945 4.079 12.27 3 10.25 3zm0 2c1.648 0 3.066.918 3.781 2.25l.531 1.031.938-.719a3 3 0 0 1 1.813-.593c1.468 0 2.675 1.008 2.968 2.343l.157.72.718.062a2.95 2.95 0 0 1 2.657 2.937c0 1.625-1.313 2.938-2.97 2.938-.202 0-.402-.024-.593-.063l-1.094-.219-.093 1.094c-.125 1.344-1.27 2.407-2.688 2.407-.86 0-1.602-.391-2.094-1l-.937-1.157-.719 1.313C12.07 19.34 10.996 20 9.75 20a3.222 3.222 0 0 1-3.188-2.594l-.156-.812h-.843c-.055 0-.075.027-.094.031-1.824 0-3.282-1.46-3.282-3.25 0-1.664 1.27-3.008 2.907-3.188l.875-.093v-.906C5.984 6.862 7.883 5 10.25 5z"/></svg>