<svg xmlns="http://www.w3.org/2000/svg" viewBox="0 0 40 40"><path d="M1.5 38.5V29L5.504 1.5h28.992l4.008 27.57-.004 9.43z" fill="#98ccfd"/><path d="M34.063 2L38 29.07V38H2v-8.93L5.938 2h28.125m.867-1H5.07L1 29v10h38V29z" fill="#4788c7"/><path d="M37.992 29H2.008L5.934 2h28.129z" fill="#dff0fe"/><path d="M35 33.5a1.5 1.5 0 1 1-3 0 1.5 1.5 0 0 1 3 0zm-23 0a1.5 1.5 0 1 1-3 0 1.5 1.5 0 0 1 3 0zm4 0a1.5 1.5 0 1 1-3 0 1.5 1.5 0 0 1 3 0zm-8 0a1.5 1.5 0 1 1-3 0 1.5 1.5 0 0 1 3 0zm3.953-11l-.203-.027C9.93 22.343 8.5 20.816 8.5 19c0-1.25.656-2.379 1.758-3.016l.246-.144v-.29c-.004-2.257 1.789-4.05 3.996-4.05.258 0 .52.027.785.078l.402.082.157-.379a4.498 4.498 0 1 1 8.297-.043l.144.336.516-.054c.062-.008.133-.02.199-.02 1.93 0 3.5 1.57 3.5 3.5a1.388 1.388 0 0 0-.016.117l-.015.403.394.101A3.494 3.494 0 0 1 31.5 19c0 1.93-1.57 3.5-3.5 3.5z" fill="#fff"/><path d="M20 9a3.99 3.99 0 0 1 3.68 2.434l.289.675.73-.074c.059-.008.113-.012.168-.02.043-.007.086-.015.133-.015 1.64 0 2.977 1.32 3 2.957a.902.902 0 0 0-.012.145l-.027.804.777.2A2.993 2.993 0 0 1 31 19c0 1.652-1.348 3-3 3H12.152l-.367-.027C10.223 21.859 9 20.555 9 19c0-1.07.563-2.035 1.508-2.582l.504-.293-.008-.582c0-.031 0-.063-.004-.094A3.504 3.504 0 0 1 14.5 12c.223 0 .453.023.688.07l.804.16.313-.757A3.991 3.991 0 0 1 20 9m0-1a4.995 4.995 0 0 0-4.617 3.09A4.395 4.395 0 0 0 14.5 11a4.501 4.501 0 0 0-4.5 4.5c0 .02.004.035.004.05A3.985 3.985 0 0 0 8 19c0 2.11 1.64 3.82 3.715 3.973V23H28c2.21 0 4-1.79 4-4a3.992 3.992 0 0 0-3.016-3.863c.004-.047.016-.09.016-.137 0-2.21-1.79-4-4-4-.137 0-.266.027-.398.04A5.007 5.007 0 0 0 20 8z" fill="#4788c7"/></svg>