<svg xmlns="http://www.w3.org/2000/svg" viewBox="0 0 64 64"><linearGradient id="a" gradientUnits="userSpaceOnUse" x1="32" y1="9.833" x2="32" y2="54.335" spreadMethod="reflect"><stop offset="0" stop-color="#1a6dff"/><stop offset="1" stop-color="#c822ff"/></linearGradient><path d="M55 43c1.654 0 3-1.346 3-3V14c0-1.654-1.346-3-3-3H23c-1.654 0-3 1.346-3 3v3H9c-1.654 0-3 1.346-3 3v30c0 1.654 1.346 3 3 3h46c1.654 0 3-1.346 3-3v-2c0-1.654-1.346-3-3-3h-5v-2h5zM22 14a1 1 0 0 1 1-1h32a1 1 0 0 1 1 1v26a1 1 0 0 1-1 1H23a1 1 0 0 1-1-1V14zm-2 17h-8v-6h8v6zM8 50V20a1 1 0 0 1 1-1h11v4h-8c-1.103 0-2 .897-2 2v6c0 1.103.897 2 2 2h8v7c0 1.654 1.346 3 3 3h5v2h-5a2.995 2.995 0 0 0-2.816 2H12c-1.103 0-2 .897-2 2v2H9a1 1 0 0 1-1-1zm12.184 1H12v-2h8v1c0 .353.072.686.184 1zM55 47a1 1 0 0 1 1 1v2a1 1 0 0 1-1 1h-5c0-1.103-.897-2-2-2H30c-1.103 0-2 .897-2 2h-5a1 1 0 0 1-1-1v-2a1 1 0 0 1 1-1h32zm-7-2H30v-2h18v2z" fill="url(#a)"/><linearGradient id="b" gradientUnits="userSpaceOnUse" x1="39" y1="9.833" x2="39" y2="54.335" spreadMethod="reflect"><stop offset="0" stop-color="#1a6dff"/><stop offset="1" stop-color="#c822ff"/></linearGradient><path d="M26 39h26c1.103 0 2-.897 2-2V17c0-1.103-.897-2-2-2H26c-1.103 0-2 .897-2 2v20c0 1.103.897 2 2 2zm0-22h26v20H26V17z" fill="url(#b)"/><linearGradient id="c" gradientUnits="userSpaceOnUse" x1="14" y1="9.833" x2="14" y2="54.335" spreadMethod="reflect"><stop offset="0" stop-color="#1a6dff"/><stop offset="1" stop-color="#c822ff"/></linearGradient><rect x="10" y="35" width="8" height="2" fill="url(#c)"/><linearGradient id="d" gradientUnits="userSpaceOnUse" x1="14" y1="9.833" x2="14" y2="54.335" spreadMethod="reflect"><stop offset="0" stop-color="#1a6dff"/><stop offset="1" stop-color="#c822ff"/></linearGradient><rect x="10" y="39" width="8" height="2" fill="url(#d)"/><linearGradient id="e" gradientUnits="userSpaceOnUse" x1="39" y1="22.833" x2="39" y2="31.002" spreadMethod="reflect"><stop offset="0" stop-color="#6dc7ff"/><stop offset="1" stop-color="#e6abff"/></linearGradient><path d="M43 30a1 1 0 0 1-1 1h-6a1 1 0 0 1-1-1v-6a1 1 0 0 1 1-1h6a1 1 0 0 1 1 1v6z" fill="url(#e)"/></svg>