<svg xmlns="http://www.w3.org/2000/svg" viewBox="0 0 50 50"><path d="M29 .813C9.758.813 0 16.343 0 47c0 .293.121.559.344.75.183.152.422.25.656.25.055 0 .102.008.156 0 .059-.008 5.953-1 16.844-1h.031c1.953 1.824 4.25 3 6.969 3 2.734 0 5.234-1.176 7.375-3.031.043.004.078.031.125.031 10.66 0 16.258.96 16.313.969.058.011.128.031.187.031.23 0 .477-.066.656-.219.227-.191.344-.484.344-.781 0-5.582-.543-9.29-1.031-11.5A5.963 5.963 0 0 1 45 37h-.094c-.488 3.387-3.386 6-6.906 6h-4.719a19.286 19.286 0 0 1-1.187 1.438c-.055.058-.13.128-.188.187-.261.27-.406.406-.406.406C29.598 46.844 27.371 48 25 48c-4.8 0-8.887-4.813-12.688-14.813-.101-.398-.511-.593-.812-.593-1.398-.098-2.5-1.282-2.5-2.782 0-.601.102-1.417.5-1.718.398-.301 1.188-.188 1.188-.188H11c8.3 0 16.2-8.199 19-13.5C33 20.805 37.988 26.7 38.188 27c.199.2.511.406.812.406 0 0 1.422 0 2 1.188V24c0-2 2-2 2-2h2c.676 0 1.332.105 1.938.313C46.203 11.87 39.663 4.422 30.75 4.03l-.781-2.53c-.13-.418-.532-.688-.969-.688zM33.281 43c.422-.555.887-1.23 1.344-2h-4.813c-.417-1.156-1.511-2-2.812-2h-2c-1.652 0-3 1.348-3 3s1.348 3 3 3h2c1.3 0 2.395-.844 2.813-2zm1.344-2H38a5.019 5.019 0 0 0 4.906-4S41 37 41 35v-4c0 1.3-2.5 1.594-2.5 1.594-.398 0-.805.41-.906.812a26.104 26.104 0 0 1-1.469 4.625 8.77 8.77 0 0 0-.281.594A20.97 20.97 0 0 1 34.625 41zM43 24v11h2c2.2 0 4-1.8 4-4v-3c0-2.2-1.8-4-4-4z"/></svg>