<svg xmlns="http://www.w3.org/2000/svg" viewBox="0 0 80 80"><path d="M58.707 10.293l-1.414 1.414L65.586 20H34a1 1 0 1 0 0 2h31.586l-8.293 8.293 1.414 1.414 9.912-9.912a1 1 0 0 0 .192-.191l.603-.604-.607-.607a1 1 0 0 0-.184-.186 1 1 0 0 0-.006-.004l-9.91-9.91zM11 20a1 1 0 0 0-1 1 1 1 0 0 0 1 1 1 1 0 0 0 1-1 1 1 0 0 0-1-1zm6 0a1 1 0 0 0-1 1 1 1 0 0 0 1 1 1 1 0 0 0 1-1 1 1 0 0 0-1-1zm5 0a1 1 0 0 0-1 1 1 1 0 0 0 1 1 1 1 0 0 0 1-1 1 1 0 0 0-1-1zm4 0a1 1 0 0 0-1 1 1 1 0 0 0 1 1 1 1 0 0 0 1-1 1 1 0 0 0-1-1zm4 0a1 1 0 0 0-1 1 1 1 0 0 0 1 1 1 1 0 0 0 1-1 1 1 0 0 0-1-1zm-8.707 28.293l-9.912 9.912a1 1 0 0 0-.192.191l-.603.604.607.607a1 1 0 0 0 .184.186 1 1 0 0 0 .006.004l9.91 9.91 1.414-1.414L14.414 60H46a1 1 0 1 0 0-2H14.414l8.293-8.293-1.414-1.414zM50 58a1 1 0 0 0-1 1 1 1 0 0 0 1 1 1 1 0 0 0 1-1 1 1 0 0 0-1-1zm4 0a1 1 0 0 0-1 1 1 1 0 0 0 1 1 1 1 0 0 0 1-1 1 1 0 0 0-1-1zm4 0a1 1 0 0 0-1 1 1 1 0 0 0 1 1 1 1 0 0 0 1-1 1 1 0 0 0-1-1zm5 0a1 1 0 0 0-1 1 1 1 0 0 0 1 1 1 1 0 0 0 1-1 1 1 0 0 0-1-1zm6 0a1 1 0 0 0-1 1 1 1 0 0 0 1 1 1 1 0 0 0 1-1 1 1 0 0 0-1-1z"/></svg>