<svg xmlns="http://www.w3.org/2000/svg" viewBox="0 0 64 64"><path d="M7 7h50a2 2 0 0 1 2 2v46a2 2 0 0 1-2 2H7a2 2 0 0 1-2-2V9a2 2 0 0 1 2-2z" fill="#c2cde7"/><path d="M9 52h46c2.21 0 4 1.79 4 4 0 .55-.45 1-1 1H6c-.55 0-1-.45-1-1 0-2.21 1.79-4 4-4z" fill="#acb7d0"/><path d="M38 29c0 3.313-2.688 6-6 6-3.313 0-6-2.688-6-6 0-3.313 2.688-6 6-6 3.313 0 6 2.688 6 6z" fill="#85cbf8"/><path d="M49 17c0 2.21-1.79 4-4 4s-4-1.79-4-4 1.79-4 4-4 4 1.79 4 4z" fill="#72caaf"/><path d="M34 44a1.999 1.999 0 1 1-4 0 1.999 1.999 0 1 1 4 0z" fill="#fff"/><path d="M47 38a3 3 0 1 1-6.002-.002A3 3 0 0 1 47 38z" fill="#ed7899"/><path d="M23 17a3 3 0 1 1-6.002-.002A3 3 0 0 1 23 17zm-4 15a1.999 1.999 0 1 1-4 0 1.999 1.999 0 1 1 4 0z" fill="#f9e3ae"/><path d="M14 50c-.55 0-1 .45-1 1v2c0 .55.45 1 1 1s1-.45 1-1v-2c0-.55-.45-1-1-1zm-5 0c-.55 0-1 .45-1 1v2c0 .55.45 1 1 1s1-.45 1-1v-2c0-.55-.45-1-1-1zm20 0c-.55 0-1 .45-1 1v2c0 .55.45 1 1 1s1-.45 1-1v-2c0-.55-.45-1-1-1zm5 0c-.55 0-1 .45-1 1v2c0 .55.45 1 1 1s1-.45 1-1v-2c0-.55-.45-1-1-1zm5 0c-.55 0-1 .45-1 1v2c0 .55.45 1 1 1s1-.45 1-1v-2c0-.55-.45-1-1-1zm5 0c-.55 0-1 .45-1 1v2c0 .55.45 1 1 1s1-.45 1-1v-2c0-.55-.45-1-1-1zm5 0c-.55 0-1 .45-1 1v2c0 .55.45 1 1 1s1-.45 1-1v-2c0-.55-.45-1-1-1zm5 0c-.55 0-1 .45-1 1v2c0 .55.45 1 1 1s1-.45 1-1v-2c0-.55-.45-1-1-1zm-35 0c-.55 0-1 .45-1 1v2c0 .55.45 1 1 1s1-.45 1-1v-2c0-.55-.45-1-1-1zm5 0c-.55 0-1 .45-1 1v2c0 .55.45 1 1 1s1-.45 1-1v-2c0-.55-.45-1-1-1z" fill="#8d6c9f"/><path d="M57 6H7a3 3 0 0 0-3 3v46a3 3 0 0 0 3 3h50a3 3 0 0 0 3-3V9a3 3 0 0 0-3-3zm1 49c0 .55-.45 1-1 1H7c-.55 0-1-.45-1-1V9c0-.55.45-1 1-1h50c.55 0 1 .45 1 1z" fill="#8d6c9f"/><path d="M20 21c2.21 0 4-1.79 4-4s-1.79-4-4-4-4 1.79-4 4 1.79 4 4 4zm0-6a1.999 1.999 0 1 1 0 4 1.999 1.999 0 1 1 0-4zm12 26a3 3 0 1 0 .002 6.002A3 3 0 0 0 32 41zm0 4c-.55 0-1-.45-1-1s.45-1 1-1 1 .45 1 1-.45 1-1 1zm13-33a5 5 0 0 0-5 5c.008.922.27 1.828.762 2.61l-4.332 4a6.998 6.998 0 0 0-8.61-.18l-2.949-2.95a1.004 1.004 0 0 0-1.36.051c-.366.371-.39.961-.05 1.36l2.95 2.949A6.983 6.983 0 0 0 25 29v.379l-5.45 1.09a3.005 3.005 0 0 0-3.648-1.262 3.006 3.006 0 0 0-1.87 3.379 2.995 2.995 0 0 0 3.003 2.422 3 3 0 0 0 2.906-2.54l5.45-1.09A7 7 0 0 0 31 35.923V39c0 .55.45 1 1 1s1-.45 1-1v-3.078a7.018 7.018 0 0 0 3.941-2l3.36 2.52a4.086 4.086 0 0 0 1.703 5.14 4.09 4.09 0 0 0 4.914-6.46 4.085 4.085 0 0 0-5.406-.27l-3.383-2.532a7.002 7.002 0 0 0-.36-7.3l4.34-4a4.994 4.994 0 0 0 5.91.023A4.997 4.997 0 0 0 45 12zM17 33c-.55 0-1-.45-1-1s.45-1 1-1 1 .45 1 1-.45 1-1 1zm15 1a5 5 0 1 1 0-10 5 5 0 0 1 0 10zm12 2a1.999 1.999 0 1 1 0 4 1.999 1.999 0 1 1 0-4zm1-16a3 3 0 1 1 .002-6.002A3 3 0 0 1 45 20z" fill="#8d6c9f"/></svg>