<svg xmlns="http://www.w3.org/2000/svg" viewBox="0 0 50 50"><path d="M48 0H2C.898 0 0 .898 0 2v46c0 1.102.898 2 2 2h46c1.102 0 2-.898 2-2V2c0-1.102-.898-2-2-2zm-8 24c-1.492 0-2.781-.828-3.469-2.043l-5.562 1.418a5.975 5.975 0 0 1-1.957 5.078l3.761 5.758A3.963 3.963 0 0 1 34 34c2.21 0 4 1.79 4 4s-1.79 4-4 4-4-1.79-4-4c0-1.055.414-2.004 1.082-2.719l-3.758-5.75a5.976 5.976 0 0 1-4.601.019l-3.762 5.786A3.954 3.954 0 0 1 20 38c0 2.21-1.79 4-4 4s-4-1.79-4-4 1.79-4 4-4c.453 0 .887.094 1.293.23l3.734-5.742a5.97 5.97 0 0 1-2-5.043l-5.562-1.484A3.978 3.978 0 0 1 10 24c-2.21 0-4-1.79-4-4s1.79-4 4-4 4 1.79 4 4c0 .012-.004.02-.004.031l5.55 1.48A5.994 5.994 0 0 1 24 18.09v-5.23c-1.723-.45-3-2-3-3.86 0-2.21 1.79-4 4-4s4 1.79 4 4c0 1.86-1.277 3.41-3 3.86v5.23a6.007 6.007 0 0 1 4.426 3.36l5.578-1.419c0-.011-.004-.02-.004-.031 0-2.21 1.79-4 4-4s4 1.79 4 4-1.79 4-4 4z"/></svg>