<svg xmlns="http://www.w3.org/2000/svg" viewBox="0 0 26 26"><path d="M20.902 0H5.098C2.293 0 0 2.293 0 5.094v15.812C0 23.707 2.293 26 5.098 26h15.808C23.707 26 26 23.707 26 20.906V5.094C26 2.293 23.707 0 20.902 0zM11 2.79a1.684 1.684 0 1 1 0 3.367 1.684 1.684 0 0 1 0-3.368zm-.523 20.25c-4.684 0-6.5-3.923-6.5-6.7 0-2.356 1.367-4.89 3.808-5.965.227-.102 1.125.137 1.125.809 0 .379-.203.648-.383.804-.18.16-2.691 1.211-2.691 4.371s2.781 4.797 4.687 4.797c1.903 0 3.024-1.21 3.34-1.523.313-.313 1.008-1.656 1.008-1.656s.27-.965.918-.743c.652.227.832.52.832.875 0 .36-1.418 4.93-6.144 4.93zm11.996-4.013l-1.727 1.008s-.672.293-1.23-.402c-.52-.645-2.512-3.73-2.512-3.73h-5.895s-1.171.003-1.171-1.165V8.211s.027-1.082 1.105-1.082c1.074 0 1.117 1.082 1.117 1.082V10h3.39s.985.008.985 1.04c0 1.026-1.129.929-1.129.929H12.16v1.93h4.633c.77 0 1.133.253 1.445.78.422.72 2.485 3.813 2.485 3.813l.965-.605s.695-.313.984.136c.297.446-.2 1.004-.2 1.004z" fill-rule="evenodd"/></svg>