<svg xmlns="http://www.w3.org/2000/svg" viewBox="0 0 40 40"><path d="M8 32h30c.55 0 1-.45 1-1s-.45-1-1-1H8v-6l-7 7 7 7z" fill="#4788c7"/><path d="M38.5 9.5h-37" fill="none" stroke-linecap="round" stroke="#4788c7" stroke-miterlimit="10"/><path d="M36.5 9.5a3 3 0 1 1-6.002-.002A3 3 0 0 1 36.5 9.5z" fill="#dff0fe"/><path d="M33.5 7C34.879 7 36 8.121 36 9.5S34.879 12 33.5 12A2.502 2.502 0 0 1 31 9.5C31 8.121 32.121 7 33.5 7m0-1a3.5 3.5 0 1 0 0 7 3.5 3.5 0 1 0 0-7z" fill="#4788c7"/><path d="M27.5 9.5a3 3 0 1 1-6.002-.002A3 3 0 0 1 27.5 9.5z" fill="#dff0fe"/><path d="M24.5 7C25.879 7 27 8.121 27 9.5S25.879 12 24.5 12A2.502 2.502 0 0 1 22 9.5C22 8.121 23.121 7 24.5 7m0-1a3.5 3.5 0 1 0 0 7 3.5 3.5 0 1 0 0-7z" fill="#4788c7"/><path d="M18.5 9.5a3 3 0 1 1-6.002-.002A3 3 0 0 1 18.5 9.5z" fill="#dff0fe"/><path d="M15.5 7C16.879 7 18 8.121 18 9.5S16.879 12 15.5 12A2.502 2.502 0 0 1 13 9.5C13 8.121 14.121 7 15.5 7m0-1a3.5 3.5 0 1 0 0 7 3.5 3.5 0 1 0 0-7z" fill="#4788c7"/><path d="M9.5 9.5a3 3 0 1 1-6.002-.002A3 3 0 0 1 9.5 9.5z" fill="#dff0fe"/><path d="M6.5 7C7.879 7 9 8.121 9 9.5S7.879 12 6.5 12A2.502 2.502 0 0 1 4 9.5C4 8.121 5.121 7 6.5 7m0-1a3.5 3.5 0 1 0 0 7 3.5 3.5 0 1 0 0-7z" fill="#4788c7"/></svg>