<?xml version="1.0" encoding="utf-8"?>
<!-- Generator: Adobe Illustrator 22.0.1, SVG Export Plug-In . SVG Version: 6.00 Build 0)  -->
<svg version="1.1" xmlns="http://www.w3.org/2000/svg" xmlns:xlink="http://www.w3.org/1999/xlink" x="0px" y="0px"
	 viewBox="0 0 158.591 115.232" enable-background="new 0 0 158.591 115.232" xml:space="preserve">
<g id="BACKGROUND">
</g>
<g id="OBJECTS">
	<g>
		<g>
			<path d="M83.606,44.474H77.31c-0.278,0-0.534-0.154-0.664-0.4l-3.148-5.982c-0.115-0.219-0.115-0.481,0-0.699l3.148-5.982
				c0.129-0.246,0.385-0.4,0.664-0.4h6.296c0.278,0,0.534,0.154,0.664,0.4l3.149,5.982c0.115,0.219,0.115,0.48,0,0.699l-3.149,5.982
				C84.14,44.319,83.884,44.474,83.606,44.474z M77.762,42.974h5.391l2.753-5.232l-2.753-5.231h-5.391l-2.753,5.231L77.762,42.974z"
				/>
		</g>
		<g>
			<path d="M80.458,89.138c-0.23,0-0.448-0.105-0.59-0.286l-3.03-3.856c-0.093-0.118-0.148-0.262-0.158-0.412l-3.266-46.79
				c-0.029-0.413,0.283-0.771,0.696-0.8c0.41-0.018,0.771,0.283,0.8,0.696l3.25,46.56l2.298,2.925l2.298-2.925l3.25-46.56
				c0.028-0.413,0.391-0.717,0.8-0.696c0.413,0.028,0.725,0.387,0.696,0.8l-3.266,46.79c-0.01,0.15-0.065,0.294-0.158,0.412
				l-3.03,3.856C80.906,89.032,80.688,89.138,80.458,89.138z"/>
		</g>
		<g>
			<path d="M83.489,85.281c-0.216,0-0.43-0.093-0.578-0.271l-2.453-2.963l-2.453,2.963c-0.264,0.317-0.737,0.361-1.056,0.1
				c-0.319-0.265-0.363-0.737-0.099-1.057l3.03-3.66c0.285-0.344,0.87-0.344,1.155,0l3.03,3.66c0.264,0.319,0.22,0.792-0.099,1.057
				C83.827,85.225,83.657,85.281,83.489,85.281z"/>
		</g>
		<g>
			<path d="M76.463,71.453c-0.063,0-0.128-0.008-0.192-0.025c-0.4-0.106-0.639-0.517-0.533-0.917l7.144-26.979
				c0.106-0.399,0.516-0.639,0.917-0.532c0.4,0.105,0.639,0.517,0.533,0.917l-7.144,26.979
				C77.099,71.232,76.795,71.453,76.463,71.453z"/>
		</g>
		<g>
			<path d="M84.391,71.275c-0.332,0-0.636-0.222-0.725-0.558l-7.143-26.98c-0.106-0.4,0.133-0.812,0.533-0.917
				c0.405-0.106,0.811,0.133,0.917,0.532l7.143,26.98c0.106,0.4-0.133,0.812-0.533,0.917C84.519,71.267,84.455,71.275,84.391,71.275
				z"/>
		</g>
		<g>
			<path d="M80.458,81.621c-0.414,0-0.75-0.336-0.75-0.75V55.666c0-0.414,0.336-0.75,0.75-0.75c0.414,0,0.75,0.336,0.75,0.75v25.205
				C81.208,81.285,80.872,81.621,80.458,81.621z"/>
		</g>
		<g>
			<path d="M74.374,38.086c-0.353,0-0.668-0.251-0.736-0.61l-0.528-2.788c-0.027-0.141-0.013-0.286,0.041-0.419l0.866-2.158
				c0.09-0.225,0.284-0.393,0.52-0.449l2.597-0.63c0.406-0.1,0.808,0.149,0.906,0.552c0.098,0.402-0.15,0.808-0.552,0.905
				l-2.222,0.539l-0.64,1.597l0.487,2.572c0.077,0.407-0.19,0.8-0.597,0.877C74.467,38.082,74.42,38.086,74.374,38.086z"/>
		</g>
		<g>
			<path d="M86.468,37.948c-0.082,0-0.166-0.014-0.248-0.042c-0.391-0.137-0.597-0.565-0.46-0.956l0.836-2.385l-0.613-1.526
				l-2.535-0.546c-0.405-0.088-0.663-0.486-0.576-0.892c0.088-0.405,0.489-0.663,0.891-0.575l2.925,0.63
				c0.244,0.053,0.446,0.223,0.538,0.454l0.866,2.158c0.067,0.169,0.072,0.355,0.012,0.527l-0.928,2.65
				C87.068,37.755,86.778,37.948,86.468,37.948z"/>
		</g>
		<g>
			<path d="M78.972,32.51c-0.006,0-0.013,0-0.02,0l-1.293-0.034c-0.29-0.008-0.549-0.182-0.666-0.447L70.76,17.897
				c-0.127-0.289-0.06-0.627,0.168-0.845l2.715-2.598c0.19-0.181,0.462-0.25,0.714-0.182c0.253,0.068,0.453,0.265,0.525,0.517
				l4.811,16.764c0.066,0.229,0.019,0.478-0.128,0.666C79.423,32.402,79.204,32.51,78.972,32.51z M72.345,17.773l5.248,11.899
				l-3.81-13.275L72.345,17.773z"/>
		</g>
		<g>
			<path d="M81.738,32.51c-0.231,0-0.451-0.107-0.593-0.291c-0.146-0.188-0.194-0.437-0.128-0.666l4.811-16.764
				c0.072-0.252,0.271-0.448,0.525-0.517c0.253-0.068,0.525,0.001,0.714,0.182l2.715,2.598c0.228,0.218,0.295,0.556,0.168,0.845
				l-6.232,14.132c-0.117,0.266-0.376,0.439-0.666,0.447l-1.294,0.034C81.752,32.51,81.745,32.51,81.738,32.51z M86.927,16.397
				l-3.81,13.278l5.249-11.902L86.927,16.397z"/>
		</g>
		<g>
			<path d="M76.462,74.381c-0.102,0-0.206-0.021-0.305-0.065L42.079,59.126l-21.844,1.872c-0.362,0.034-0.701-0.206-0.791-0.563
				l-6.251-24.688L2.457,23.881c-0.17-0.188-0.234-0.45-0.168-0.696L7.483,3.688C7.584,3.31,7.956,3.072,8.345,3.144l29.75,5.527
				c0.119,0.021,0.23,0.072,0.325,0.146l36.204,28.333c0.326,0.256,0.383,0.727,0.128,1.053c-0.255,0.327-0.727,0.385-1.053,0.129
				l-36.059-28.22L8.753,4.745L3.843,23.177l10.588,11.701c0.082,0.091,0.141,0.2,0.171,0.319l6.14,24.252l21.402-1.834
				c0.124-0.014,0.252,0.01,0.369,0.063l34.254,15.269c0.378,0.168,0.548,0.611,0.38,0.99
				C77.023,74.215,76.749,74.381,76.462,74.381z"/>
		</g>
		<g>
			<path d="M20.171,61.001c-0.082,0-0.166-0.014-0.248-0.042c-0.391-0.137-0.597-0.564-0.46-0.956l17.243-49.286L3.292,24.074
				c-0.384,0.153-0.821-0.033-0.975-0.418c-0.154-0.385,0.033-0.821,0.418-0.975L37.68,8.712c0.273-0.109,0.584-0.049,0.797,0.154
				c0.212,0.203,0.287,0.512,0.189,0.79L20.879,60.499C20.771,60.808,20.481,61.001,20.171,61.001z"/>
		</g>
		<g>
			<path d="M74.163,38.491c-0.023,0-0.047-0.001-0.071-0.003l-44.574-4.178l-15.557,1.815c-0.414,0.039-0.784-0.247-0.832-0.658
				c-0.048-0.411,0.247-0.784,0.658-0.832l15.635-1.824c0.053-0.006,0.106-0.006,0.157-0.002l44.652,4.185
				c0.413,0.039,0.715,0.404,0.677,0.817C74.872,38.2,74.545,38.491,74.163,38.491z"/>
		</g>
		<g>
			<path d="M42.209,59.112c-0.246,0-0.487-0.121-0.631-0.344c-0.225-0.348-0.125-0.812,0.224-1.036l31.954-20.621
				c0.347-0.224,0.813-0.126,1.037,0.224c0.225,0.348,0.125,0.812-0.224,1.036L42.615,58.992
				C42.489,59.073,42.348,59.112,42.209,59.112z"/>
		</g>
		<g>
			<path d="M42.209,59.112c-0.272,0-0.535-0.149-0.668-0.408L28.842,33.899c-0.189-0.369-0.043-0.82,0.326-1.01
				c0.368-0.187,0.82-0.043,1.009,0.326l12.699,24.806c0.189,0.369,0.043,0.82-0.326,1.01C42.44,59.086,42.324,59.112,42.209,59.112
				z"/>
		</g>
		<g>
			<path d="M13.875,36.131c-0.183,0-0.366-0.066-0.51-0.2c-0.304-0.281-0.322-0.756-0.04-1.059L37.408,8.899
				c0.282-0.304,0.757-0.321,1.06-0.04c0.304,0.281,0.322,0.756,0.04,1.059L14.424,35.891C14.277,36.05,14.076,36.131,13.875,36.131
				z"/>
		</g>
		<g>
			<path d="M9.052,21.714c-0.397,0-0.728-0.312-0.748-0.713L7.459,3.918C7.438,3.504,7.757,3.152,8.17,3.132
				C8.589,3.098,8.936,3.43,8.957,3.844l0.845,17.083c0.021,0.414-0.298,0.766-0.712,0.786C9.077,21.714,9.064,21.714,9.052,21.714z
				"/>
		</g>
		<g>
			<path d="M13.875,36.131c-0.314,0-0.606-0.198-0.711-0.512L8.341,21.202c-0.131-0.394,0.081-0.818,0.474-0.949
				c0.394-0.132,0.818,0.081,0.949,0.473l4.822,14.417c0.131,0.394-0.08,0.818-0.474,0.949
				C14.034,36.118,13.953,36.131,13.875,36.131z"/>
		</g>
		<g>
			<path d="M84.392,74.381c-0.287,0-0.561-0.165-0.686-0.444c-0.168-0.379,0.001-0.822,0.38-0.99l34.255-15.269
				c0.116-0.052,0.245-0.073,0.369-0.063l21.402,1.834l6.14-24.252c0.03-0.119,0.089-0.229,0.171-0.319l10.588-11.701l-4.911-18.432
				l-28.887,5.367l-36.059,28.22c-0.326,0.256-0.798,0.198-1.053-0.129c-0.255-0.326-0.198-0.797,0.129-1.053l36.204-28.333
				c0.095-0.074,0.206-0.125,0.325-0.146l29.75-5.527c0.388-0.071,0.761,0.166,0.862,0.544l5.195,19.497
				c0.065,0.246,0.002,0.508-0.168,0.696l-10.736,11.865l-6.25,24.688c-0.09,0.357-0.427,0.599-0.791,0.563l-21.844-1.872
				L84.697,74.316C84.598,74.36,84.494,74.381,84.392,74.381z"/>
		</g>
		<g>
			<path d="M140.684,61.001c-0.31,0-0.6-0.193-0.708-0.502L122.189,9.656c-0.097-0.278-0.023-0.587,0.189-0.79
				c0.212-0.203,0.524-0.264,0.797-0.154l34.945,13.97c0.385,0.153,0.572,0.59,0.418,0.975c-0.154,0.385-0.589,0.576-0.975,0.418
				l-33.414-13.357l17.243,49.286c0.137,0.392-0.069,0.819-0.461,0.956C140.849,60.987,140.766,61.001,140.684,61.001z"/>
		</g>
		<g>
			<path d="M86.692,38.491c-0.382,0-0.709-0.291-0.746-0.68c-0.039-0.413,0.264-0.778,0.677-0.817l44.652-4.185
				c0.051-0.004,0.105-0.004,0.157,0.002l15.635,1.824c0.412,0.048,0.706,0.421,0.658,0.832c-0.048,0.411-0.43,0.697-0.832,0.658
				l-15.557-1.815l-44.573,4.178C86.739,38.49,86.715,38.491,86.692,38.491z"/>
		</g>
		<g>
			<path d="M118.646,59.112c-0.14,0-0.28-0.039-0.406-0.12L86.286,38.371c-0.348-0.225-0.448-0.688-0.224-1.036
				c0.226-0.35,0.689-0.447,1.037-0.224l31.954,20.621c0.348,0.225,0.448,0.688,0.224,1.036
				C119.133,58.991,118.892,59.112,118.646,59.112z"/>
		</g>
		<g>
			<path d="M118.646,59.112c-0.115,0-0.232-0.026-0.341-0.082c-0.369-0.189-0.515-0.641-0.326-1.01l12.698-24.806
				c0.189-0.368,0.642-0.513,1.009-0.326c0.369,0.189,0.515,0.641,0.326,1.01l-12.698,24.806
				C119.181,58.963,118.918,59.112,118.646,59.112z"/>
		</g>
		<g>
			<path d="M146.98,36.131c-0.201,0-0.402-0.081-0.55-0.24L122.347,9.918c-0.282-0.304-0.264-0.778,0.04-1.059
				c0.302-0.281,0.778-0.264,1.06,0.04l24.084,25.973c0.282,0.304,0.264,0.778-0.04,1.059
				C147.346,36.065,147.163,36.131,146.98,36.131z"/>
		</g>
		<g>
			<path d="M151.803,21.714c-0.012,0-0.025,0-0.038-0.001c-0.414-0.021-0.732-0.372-0.712-0.786l0.844-17.083
				c0.021-0.414,0.353-0.747,0.786-0.712c0.414,0.021,0.732,0.372,0.712,0.786l-0.844,17.083
				C152.532,21.402,152.2,21.714,151.803,21.714z"/>
		</g>
		<g>
			<path d="M146.98,36.131c-0.079,0-0.159-0.013-0.238-0.039c-0.393-0.131-0.605-0.556-0.474-0.949l4.822-14.417
				c0.131-0.393,0.556-0.605,0.949-0.473c0.393,0.131,0.605,0.556,0.474,0.949l-4.822,14.417
				C147.586,35.933,147.294,36.131,146.98,36.131z"/>
		</g>
		<g>
			<path d="M63.025,113.261c-0.066,0-0.134-0.009-0.201-0.027l-25.067-6.966c-0.211-0.059-0.386-0.207-0.479-0.405l-11.53-24.674
				c-0.113-0.243-0.088-0.528,0.066-0.748l15.78-22.509c0.238-0.339,0.706-0.421,1.045-0.184c0.339,0.238,0.421,0.706,0.184,1.045
				L27.291,80.946l11.2,23.969l24.146,6.71l14.123-27.438c0.189-0.367,0.643-0.513,1.01-0.323c0.368,0.19,0.513,0.642,0.324,1.011
				l-14.403,27.979C63.561,113.109,63.3,113.261,63.025,113.261z"/>
		</g>
		<g>
			<path d="M37.959,106.295c-0.268,0-0.528-0.145-0.663-0.397c-0.194-0.365-0.056-0.82,0.31-1.015l39.47-21.014
				c0.364-0.194,0.819-0.057,1.015,0.31c0.194,0.365,0.056,0.82-0.31,1.015l-39.47,21.014
				C38.198,106.267,38.078,106.295,37.959,106.295z"/>
		</g>
		<g>
			<path d="M48.574,100.643c-0.173,0-0.347-0.06-0.488-0.181L25.939,81.441c-0.314-0.271-0.35-0.744-0.08-1.058
				c0.269-0.314,0.742-0.351,1.058-0.081l22.147,19.021c0.314,0.271,0.35,0.744,0.08,1.058
				C48.995,100.554,48.786,100.643,48.574,100.643z"/>
		</g>
		<g>
			<path d="M63.024,113.261c-0.175,0-0.351-0.06-0.493-0.185l-14.45-12.618c-0.312-0.271-0.344-0.746-0.072-1.058
				c0.272-0.313,0.746-0.346,1.058-0.071l14.45,12.618c0.312,0.272,0.344,0.746,0.072,1.058
				C63.441,113.174,63.233,113.261,63.024,113.261z"/>
		</g>
		<g>
			<path d="M48.575,100.643c-0.199,0-0.398-0.079-0.546-0.235c-0.284-0.302-0.27-0.776,0.032-1.061l27.888-26.262
				c0.301-0.284,0.776-0.271,1.06,0.031c0.284,0.302,0.27,0.776-0.032,1.06l-27.888,26.262
				C48.944,100.575,48.759,100.643,48.575,100.643z"/>
		</g>
		<g>
			<path d="M37.959,106.295c-0.022,0-0.045-0.001-0.068-0.003c-0.413-0.037-0.717-0.401-0.68-0.814l4.25-47.183
				c0.037-0.412,0.398-0.719,0.815-0.68c0.413,0.037,0.717,0.401,0.68,0.814l-4.25,47.183
				C38.67,106.002,38.343,106.295,37.959,106.295z"/>
		</g>
		<g>
			<path d="M39.36,92.729c-0.276,0-0.542-0.153-0.673-0.418c-0.184-0.371-0.031-0.82,0.34-1.004l32.877-16.259l-45.369,6.565
				c-0.414,0.054-0.79-0.225-0.85-0.635c-0.059-0.41,0.225-0.79,0.635-0.85l50.035-7.24c0.367-0.046,0.714,0.167,0.824,0.52
				c0.109,0.352-0.053,0.731-0.384,0.895L39.692,92.651C39.585,92.704,39.472,92.729,39.36,92.729z"/>
		</g>
		<g>
			<path d="M98.009,113.261c-0.275,0-0.536-0.152-0.667-0.407L82.939,84.875c-0.189-0.369-0.045-0.821,0.324-1.011
				c0.369-0.188,0.821-0.044,1.01,0.323l14.123,27.438l24.147-6.71l11.199-23.966l-15.707-22.153
				c-0.24-0.338-0.16-0.806,0.178-1.045c0.336-0.24,0.806-0.16,1.045,0.178l15.96,22.509c0.156,0.22,0.182,0.507,0.068,0.751
				l-11.53,24.674c-0.093,0.198-0.268,0.347-0.479,0.405l-25.067,6.966C98.143,113.252,98.075,113.261,98.009,113.261z"/>
		</g>
		<g>
			<path d="M123.076,106.295c-0.119,0-0.24-0.028-0.352-0.088l-39.47-21.014c-0.366-0.194-0.504-0.649-0.31-1.015
				c0.195-0.365,0.649-0.503,1.015-0.31l39.47,21.014c0.366,0.194,0.504,0.649,0.31,1.015
				C123.604,106.151,123.344,106.295,123.076,106.295z"/>
		</g>
		<g>
			<path d="M112.46,100.643c-0.211,0-0.421-0.089-0.569-0.262c-0.27-0.313-0.234-0.787,0.08-1.058l22.147-19.021
				c0.315-0.268,0.789-0.232,1.058,0.081c0.27,0.313,0.234,0.787-0.08,1.058l-22.147,19.021
				C112.807,100.583,112.633,100.643,112.46,100.643z"/>
		</g>
		<g>
			<path d="M98.009,113.261c-0.209,0-0.417-0.087-0.566-0.257c-0.272-0.312-0.24-0.786,0.072-1.058l14.451-12.618
				c0.311-0.274,0.785-0.241,1.058,0.071c0.272,0.312,0.24,0.786-0.072,1.059l-14.451,12.617
				C98.36,113.2,98.184,113.261,98.009,113.261z"/>
		</g>
		<g>
			<path d="M112.46,100.643c-0.185,0-0.369-0.067-0.514-0.204L84.057,74.177c-0.302-0.284-0.316-0.759-0.032-1.06
				c0.284-0.302,0.759-0.316,1.06-0.031l27.888,26.262c0.302,0.284,0.316,0.759,0.032,1.061
				C112.858,100.564,112.659,100.643,112.46,100.643z"/>
		</g>
		<g>
			<path d="M123.075,106.295c-0.382,0-0.71-0.291-0.746-0.68l-4.43-47.183c-0.039-0.413,0.264-0.778,0.676-0.817
				c0.411-0.031,0.778,0.264,0.817,0.677l4.43,47.183c0.039,0.413-0.264,0.778-0.676,0.817
				C123.123,106.294,123.099,106.295,123.075,106.295z"/>
		</g>
		<g>
			<path d="M121.674,92.729c-0.112,0-0.225-0.024-0.332-0.078L84.239,74.303c-0.331-0.163-0.493-0.542-0.384-0.895
				c0.109-0.353,0.459-0.57,0.824-0.52l50.035,7.24c0.41,0.06,0.694,0.439,0.635,0.85c-0.06,0.409-0.436,0.688-0.85,0.635
				l-45.37-6.565l32.877,16.259c0.371,0.184,0.523,0.633,0.34,1.004C122.216,92.575,121.95,92.729,121.674,92.729z"/>
		</g>
	</g>
</g>
<g id="DESIGNED_BY_FREEPIK">
</g>
</svg>
