<svg xmlns="http://www.w3.org/2000/svg" viewBox="0 0 48 48"><path d="M42 37a5 5 0 0 1-5 5H11a5 5 0 0 1-5-5V11a5 5 0 0 1 5-5h26a5 5 0 0 1 5 5z" fill="#3f51b5"/><path d="M24 12.5c0 1.379-1.121 2.5-2.5 2.5a2.502 2.502 0 0 1-2.5-2.5c0-1.379 1.121-2.5 2.5-2.5s2.5 1.121 2.5 2.5zm0 13c0 1.383 1.719 2.5-2.5 2.5a2.497 2.497 0 0 1-2.5-2.5v-7c0-1.383 1.117-2.5 2.5-2.5s2.5 1.117 2.5 2.5z" fill="#fff"/><path d="M31 26.5a1.5 1.5 0 0 1-1.5 1.5H22a1.5 1.5 0 0 1 0-3h7.5a1.5 1.5 0 0 1 1.5 1.5z" fill="#fff"/><path d="M26.496 27A6.42 6.42 0 0 1 27 29.5c0 3.586-2.914 6.5-6.5 6.5a6.505 6.505 0 0 1-6.5-6.5c0-3.414 2.648-6.219 6-6.477v-2c-4.453.262-8 3.957-8 8.477 0 4.688 3.813 8.5 8.5 8.5 4.688 0 8.5-3.813 8.5-8.5 0-.867-.133-1.71-.379-2.5z" fill="#fff"/><path d="M33.086 34.668l-4.898-8.086a1 1 0 0 1 .23-1.395c.45-.32 2.047.102 2.367.551l3.531 5.985 1.235-.618a1.004 1.004 0 0 1 1.344.446 1.001 1.001 0 0 1-.45 1.344z" fill="#fff"/><path d="M23 22h5" fill="none" stroke-width="2" stroke-linecap="round" stroke="#fff"/></svg>