<svg xmlns="http://www.w3.org/2000/svg" viewBox="0 0 64 64"><path d="M20 33h8c.55 0 1 .45 1 1v24c0 .55-.45 1-1 1h-8c-.55 0-1-.45-1-1V34c0-.55.45-1 1-1zm14-14h8c.55 0 1 .45 1 1v38c0 .55-.45 1-1 1h-8c-.55 0-1-.45-1-1V20c0-.55.45-1 1-1z" fill="#faefde"/><path d="M36 54h4a3 3 0 0 1 3 3v1H33v-1a3 3 0 0 1 3-3z" fill="#efd8be"/><path d="M33 20h10v1a3 3 0 0 1-3 3h-4a3 3 0 0 1-3-3z" fill="#fff7f0"/><path d="M48 5h8c.55 0 1 .45 1 1v52c0 .55-.45 1-1 1h-8c-.55 0-1-.45-1-1V6c0-.55.45-1 1-1z" fill="#faefde"/><path d="M6 45h8c.55 0 1 .45 1 1v12c0 .55-.45 1-1 1H6c-.55 0-1-.45-1-1V46c0-.55.45-1 1-1z" fill="#72caaf"/><path d="M22 54h4a3 3 0 0 1 3 3v1H19v-1a3 3 0 0 1 3-3z" fill="#efd8be"/><path d="M19 34h10v1a3 3 0 0 1-3 3h-4a3 3 0 0 1-3-3z" fill="#fff7f0"/><path d="M8 54h4a3 3 0 0 1 3 3v1H5v-1a3 3 0 0 1 3-3z" fill="#66bfa1"/><path d="M5 45h10v1a3 3 0 0 1-3 3H8a3 3 0 0 1-3-3z" fill="#97e0bb"/><path d="M50 54h4a3 3 0 0 1 3 3v1H47v-1a3 3 0 0 1 3-3z" fill="#efd8be"/><path d="M47 6h10v1a3 3 0 0 1-3 3h-4a3 3 0 0 1-3-3z" fill="#fff7f0"/><path d="M28 32h-8a2 2 0 0 0-2 2v24a2 2 0 0 0 2 2h8a2 2 0 0 0 2-2V34a2 2 0 0 0-2-2zm-8 26V34h8v24zm-6-14H6a2 2 0 0 0-2 2v12a2 2 0 0 0 2 2h8a2 2 0 0 0 2-2V46a2 2 0 0 0-2-2zM6 58V46h8v12zm36-40h-8a2 2 0 0 0-2 2v38a2 2 0 0 0 2 2h8a2 2 0 0 0 2-2V20a2 2 0 0 0-2-2zm-8 40V20h8v38zM56 4h-8a2 2 0 0 0-2 2v52a2 2 0 0 0 2 2h8a2 2 0 0 0 2-2V6a2 2 0 0 0-2-2zm-8 54V6h8v52z" fill="#8d6c9f"/><path d="M11 48H9c-.55 0-1 .45-1 1s.45 1 1 1h2c.55 0 1-.45 1-1s-.45-1-1-1zm0 5H9c-.55 0-1 .45-1 1s.45 1 1 1h2c.55 0 1-.45 1-1s-.45-1-1-1z" fill="#8d6c9f"/></svg>