<svg xmlns="http://www.w3.org/2000/svg" viewBox="0 0 40 40"><path d="M35.313 35.5H17.5c-3.867 0-7-3.133-7-7v-10a5 5 0 0 1 5-5h19.813" fill="none" stroke="#98ccfd" stroke-miterlimit="10"/><path d="M35.313 26.563H15.5c-2.762 0-5-2.344-5-5.239v-9.492c0-4.05 3.133-7.332 7-7.332h17.813" fill="none" stroke="#4788c7" stroke-miterlimit="10"/><path d="M10.5 20a4.501 4.501 0 0 1-9 0 4.501 4.501 0 0 1 9 0z" fill="#b6dcfe"/><path d="M6 16c2.207 0 4 1.793 4 4s-1.793 4-4 4-4-1.793-4-4 1.793-4 4-4m0-1a5 5 0 1 0 0 10 5 5 0 0 0 0-10z" fill="#4788c7"/><path d="M38.5 5a3.5 3.5 0 1 1-7 0 3.5 3.5 0 1 1 7 0z" fill="#b6dcfe"/><path d="M35 2c1.652 0 3 1.348 3 3s-1.348 3-3 3-3-1.348-3-3 1.348-3 3-3m0-1c-2.21 0-4 1.79-4 4s1.79 4 4 4 4-1.79 4-4-1.79-4-4-4z" fill="#4788c7"/><path d="M38.5 14a3.5 3.5 0 1 1-7 0 3.5 3.5 0 1 1 7 0z" fill="#fff"/><path d="M35 11c1.652 0 3 1.348 3 3s-1.348 3-3 3-3-1.348-3-3 1.348-3 3-3m0-1c-2.21 0-4 1.79-4 4s1.79 4 4 4 4-1.79 4-4-1.79-4-4-4z" fill="#98ccfd"/><path d="M38.5 26a3.5 3.5 0 1 1-7 0 3.5 3.5 0 1 1 7 0z" fill="#b6dcfe"/><path d="M35 23c1.652 0 3 1.348 3 3s-1.348 3-3 3-3-1.348-3-3 1.348-3 3-3m0-1c-2.21 0-4 1.79-4 4s1.79 4 4 4 4-1.79 4-4-1.79-4-4-4z" fill="#4788c7"/><path d="M38.5 35a3.5 3.5 0 1 1-7 0 3.5 3.5 0 1 1 7 0z" fill="#fff"/><path d="M35 32c1.652 0 3 1.348 3 3s-1.348 3-3 3-3-1.348-3-3 1.348-3 3-3m0-1c-2.21 0-4 1.79-4 4s1.79 4 4 4 4-1.79 4-4-1.79-4-4-4z" fill="#98ccfd"/></svg>