<svg xmlns="http://www.w3.org/2000/svg" viewBox="0 0 48 48"><path d="M12 23.855c0-10 7-15 18-15m0 20s-11 0-18-5" fill="none" stroke-width="2" stroke="#b0bec5" stroke-miterlimit="10"/><path d="M30 4.715v8.14l4.07-4.07zm0 20.14V33l4.07-4.07z" fill="#b0bec5"/><path d="M42 8.855c0 2.211-1.79 4-4 4s-4-1.789-4-4a4 4 0 0 1 8 0zm0 20c0 2.211-1.79 4-4 4s-4-1.789-4-4a4 4 0 0 1 8 0z" fill="#00bcd4"/><path d="M42 18.855c0 2.211-1.79 4-4 4s-4-1.789-4-4a4 4 0 0 1 8 0zm0 20c0 2.211-1.79 4-4 4s-4-1.789-4-4a4 4 0 0 1 8 0z" fill="#80deea"/><path d="M18 23.855c0 3.317-2.688 6-6 6-3.313 0-6-2.683-6-6 0-3.312 2.688-6 6-6 3.313 0 6 2.688 6 6z" fill="#0097a7"/></svg>