<svg xmlns="http://www.w3.org/2000/svg" viewBox="0 0 26 26"><path d="M18 0v1.656L22.094 4H18c-.55 0-1 .45-1 1v.938c-.965-.02-1.95-.024-2.875-.032-1.89-.015-3.668.02-5.25.219-1.582.2-2.965.547-4.063 1.313C3.716 8.203 3 9.483 3 11c0 .91.45 1.742 1.063 2.313.613.57 1.382.957 2.25 1.28 1.734.653 3.886 1.044 6 1.47 2.113.425 4.195.898 5.624 1.562.715.332 1.231.707 1.563 1.094.332.386.5.746.5 1.281 0 1.336-.316 2.035-.969 2.594-.652.558-1.781.988-3.437 1.218C12.28 24.27 7.027 24 .125 24v2c6.848 0 12.031.293 15.719-.219 1.844-.254 3.355-.703 4.469-1.656C21.425 23.172 22 21.727 22 20c0-.996-.371-1.902-.969-2.594-.597-.691-1.402-1.187-2.281-1.593-1.758-.817-3.926-1.286-6.063-1.72-2.136-.433-4.234-.827-5.687-1.374-.727-.274-1.277-.582-1.594-.875C5.09 11.55 5 11.34 5 11c0-.984.285-1.453.938-1.906.652-.453 1.769-.793 3.187-.969 2.113-.266 4.938-.203 7.875-.156V9c0 .55.45 1 1 1h7c.55 0 1-.45 1-1V5c0-.55-.45-1-1-1z"/></svg>