<svg xmlns="http://www.w3.org/2000/svg" viewBox="0 0 48 48"><path d="M9 15v23h4v-3a1 1 0 0 1 1-1h9a1 1 0 0 1 1 1v3h21V15z" fill="#388e3c"/><path d="M26 34h2v4h-2zm3 0h2v4h-2zm3 0h2v4h-2zm3 0h2v4h-2zm6 0h2v4h-2z" fill="#fdd835"/><path d="M3 7h4s2 0 2 2v33" fill="none" stroke-width="2" stroke-linejoin="round" stroke="#b0bec5"/><path d="M10 23h7v7h-7z" fill="#b0bec5"/><path d="M24 22a1.999 1.999 0 1 1-4 0 1.999 1.999 0 1 1 4 0zm-7 5h13v2H17z" fill="#1b5e20"/><path d="M23 21h6v2h-6z" fill="#1b5e20"/><path d="M31 19h2v12h-2zm3 0h2v12h-2zm3 0h2v12h-2z" fill="#eceff1"/><path d="M29 27h12v2H29zm0-3h12v2H29zm0-3h12v2H29z" fill="#eceff1"/><path d="M30 20h10v10H30z" fill="#37474f"/></svg>