<svg xmlns="http://www.w3.org/2000/svg" viewBox="0 0 64 64"><path d="M3 2C1.348 2 0 3.348 0 5s1.348 3 3 3c.55 0 1 .45 1 1v50c0 1.652 1.348 3 3 3s3-1.348 3-3v-9h8c1.102 0 2-.898 2-2v-3c0-.55.45-1 1-1h10c.55 0 1 .45 1 1v3c0 1.102.898 2 2 2h27c1.652 0 3-1.348 3-3V17c0-1.652-1.348-3-3-3H10V7c0-2.758-2.242-5-5-5zm0 2h2c1.652 0 3 1.348 3 3v52c0 .55-.45 1-1 1s-1-.45-1-1V9c0-1.652-1.348-3-3-3-.55 0-1-.45-1-1s.45-1 1-1zm7 12h51c.55 0 1 .45 1 1v30c0 .55-.45 1-1 1H34v-3c0-1.652-1.348-3-3-3H21c-1.652 0-3 1.348-3 3v3h-8V38h3c1.652 0 3-1.348 3-3V25c0-1.652-1.348-3-3-3h-3zm33 3a1 1 0 0 0-1 1v2.184c-.848.3-1.516.968-1.816 1.816H38a1 1 0 1 0 0 2h2v2h-2a1 1 0 1 0 0 2h2v2h-2a1 1 0 1 0 0 2h2.184c.3.848.968 1.516 1.816 1.816V38a1 1 0 1 0 2 0v-2h2v2a1 1 0 1 0 2 0v-2h2v2a1 1 0 1 0 2 0v-2.184A2.989 2.989 0 0 0 53.816 34H56a1 1 0 1 0 0-2h-2v-2h2a1 1 0 1 0 0-2h-2v-2h2a1 1 0 1 0 0-2h-2.184A2.989 2.989 0 0 0 52 22.184V20a1 1 0 1 0-2 0v2h-2v-2a1 1 0 1 0-2 0v2h-2v-2a1 1 0 0 0-1-1zm-21 2a1.999 1.999 0 1 0 0 4 1.999 1.999 0 1 0 0-4zm-12 3h3c.55 0 1 .45 1 1v10c0 .55-.45 1-1 1h-3zm33 0h8c.55 0 1 .45 1 1v8c0 .55-.45 1-1 1h-8c-.55 0-1-.45-1-1v-8c0-.55.45-1 1-1zm-22 4a1 1 0 1 0 0 2h10a1 1 0 1 0 0-2zm0 4a1 1 0 1 0 0 2h6a1 1 0 1 0 0-2zm16 11a1 1 0 0 0-1 1v2a1 1 0 1 0 2 0v-2a1 1 0 0 0-1-1zm5 0a1 1 0 0 0-1 1v2a1 1 0 1 0 2 0v-2a1 1 0 0 0-1-1zm5 0a1 1 0 0 0-1 1v2a1 1 0 1 0 2 0v-2a1 1 0 0 0-1-1zm5 0a1 1 0 0 0-1 1v2a1 1 0 1 0 2 0v-2a1 1 0 0 0-1-1zm5 0a1 1 0 0 0-1 1v2a1 1 0 1 0 2 0v-2a1 1 0 0 0-1-1z"/></svg>