<svg xmlns="http://www.w3.org/2000/svg" viewBox="0 0 26 26"><path d="M22 0v3h-1c-.602 0-1 .398-1 1v5c0 .602.398 1 1 1h4c.602 0 1-.398 1-1V4c0-.602-.398-1-1-1h-1V0zM8 2v3H7c-.602 0-1 .398-1 1v5c0 .602.398 1 1 1h4c.602 0 1-.398 1-1V6c0-.602-.398-1-1-1h-1V2zm8 7v3h-1c-.602 0-1 .398-1 1v4c0 .602.398 1 1 1h4c.602 0 1-.398 1-1v-4c0-.602-.398-1-1-1h-1V9zm6 2v3h2v-3zM2 12v3H1c-.602 0-1 .398-1 1v5c0 .602.398 1 1 1h4c.602 0 1-.398 1-1v-5c0-.602-.398-1-1-1H4v-3zm6 1v3h2v-3zm-6 4h2v3H2zm14 2v3h2v-3zM2 23v3h2v-3z"/></svg>