<svg xmlns="http://www.w3.org/2000/svg" viewBox="0 0 40 40"><polygon points="32,8 1,8 1,10 32,10 32,16 39,9 32,2" fill="#4e7ab5"/><line x1="1" y1="30.5" x2="39" y2="30.5" fill="none" stroke="#788b9c" stroke-miterlimit="10"/><circle cx="6.5" cy="30.5" r="3" fill="#bae0bd"/><path d="M6.5 28C7.879 28 9 29.122 9 30.5S7.879 33 6.5 33 4 31.878 4 30.5 5.121 28 6.5 28m0-1a3.5 3.5 0 1 0 0 7 3.5 3.5 0 0 0 0-7z" fill="#5e9c76"/><circle cx="15.5" cy="30.5" r="3" fill="#bae0bd"/><path d="M15.5 28c1.379 0 2.5 1.122 2.5 2.5S16.879 33 15.5 33 13 31.878 13 30.5s1.121-2.5 2.5-2.5m0-1a3.5 3.5 0 1 0 0 7 3.5 3.5 0 0 0 0-7z" fill="#5e9c76"/><circle cx="24.5" cy="30.5" r="3" fill="#bae0bd"/><path d="M24.5 28c1.379 0 2.5 1.122 2.5 2.5S25.879 33 24.5 33 22 31.878 22 30.5s1.121-2.5 2.5-2.5m0-1a3.5 3.5 0 1 0 0 7 3.5 3.5 0 0 0 0-7z" fill="#5e9c76"/><circle cx="33.5" cy="30.5" r="3" fill="#bae0bd"/><path d="M33.5 28c1.379 0 2.5 1.122 2.5 2.5S34.879 33 33.5 33 31 31.878 31 30.5s1.121-2.5 2.5-2.5m0-1a3.5 3.5 0 1 0 0 7 3.5 3.5 0 0 0 0-7z" fill="#5e9c76"/></svg>