<svg xmlns="http://www.w3.org/2000/svg" viewBox="0 0 50 50"><path d="M37.094.094a1.995 1.995 0 0 0-1.696 1.336 1.995 1.995 0 0 0 .508 2.101L42.375 10H2a2.001 2.001 0 1 0 0 4h40.375l-6.469 6.469a2.003 2.003 0 0 0 .864 3.383 1.997 1.997 0 0 0 1.949-.54L50.03 12 38.72.687a1.998 1.998 0 0 0-1.625-.593zM10 32.906c-2.465 0-4.504 1.766-4.969 4.094H1c-.555 0-1 .445-1 1 0 .555.445 1 1 1h4.031c.465 2.328 2.504 4.094 4.969 4.094A5.105 5.105 0 0 0 15.094 38 5.105 5.105 0 0 0 10 32.906zm15 0c-2.465 0-4.504 1.766-4.969 4.094H17c.047.328.094.66.094 1 0 .34-.047.672-.094 1h3.031c.465 2.328 2.504 4.094 4.969 4.094A5.105 5.105 0 0 0 30.094 38 5.105 5.105 0 0 0 25 32.906zm15 0c-2.465 0-4.504 1.766-4.969 4.094H32c.047.328.094.66.094 1 0 .34-.047.672-.094 1h3.031c.465 2.328 2.504 4.094 4.969 4.094A5.105 5.105 0 0 0 45.094 38 5.105 5.105 0 0 0 40 32.906zM47 37c.047.328.094.66.094 1 0 .34-.047.672-.094 1h2a1 1 0 1 0 0-2z"/></svg>