<svg xmlns="http://www.w3.org/2000/svg" viewBox="0 0 26 26"><path d="M12.875 0a1.08 1.08 0 0 0-.313.094l-12 6A.994.994 0 0 0 0 7v2c0 .55.45 1 1 1v15c0 .55.45 1 1 1h22c.55 0 1-.45 1-1V10c.55 0 1-.45 1-1V7a.994.994 0 0 0-.563-.906l-12-6A1.002 1.002 0 0 0 12.876 0zM13 4.125l10 5V24H3V9.125zM6 10c-.602 0-1 .398-1 1v3c0 .602.398 1 1 1h14c.602 0 1-.398 1-1v-3c0-.602-.398-1-1-1zm2.5 1c.8 0 1.5.7 1.5 1.5S9.3 14 8.5 14 7 13.3 7 12.5 7.7 11 8.5 11zM6 17c-.602 0-1 .398-1 1v3c0 .602.398 1 1 1h14c.602 0 1-.398 1-1v-3c0-.602-.398-1-1-1zm2.5 1c.8 0 1.5.7 1.5 1.5S9.3 21 8.5 21 7 20.3 7 19.5 7.7 18 8.5 18z"/></svg>