<svg xmlns="http://www.w3.org/2000/svg" viewBox="0 0 50 50"><path d="M25 0C11.203 0 0 11.203 0 25s11.203 25 25 25 25-11.203 25-25S38.797 0 25 0zm0 2c12.715 0 23 10.285 23 23S37.715 48 25 48 2 37.715 2 25 12.285 2 25 2zm0 3.594l-.719.687a.954.954 0 0 0-.125.157l-4.875 4.843a1.014 1.014 0 0 0 0 1.438c.399.398 1.04.398 1.438 0L24 9.438V19c-.004.36.184.695.496.879.313.18.695.18 1.008 0 .312-.184.5-.52.496-.879V9.437l3.281 3.282c.399.398 1.04.398 1.438 0a1.014 1.014 0 0 0 0-1.438l-4.875-4.844a.954.954 0 0 0-.125-.156l-.063-.062a.954.954 0 0 0-.156-.125zM13.906 18.969c-.043.008-.086.02-.125.031a.994.994 0 0 0-.781.703c-.105.367.004.758.281 1.016L16.562 24H6.907c-.55.027-.98.496-.953 1.047.027.55.496.98 1.047.953h9.563l-3.282 3.281a1.014 1.014 0 0 0 0 1.438c.399.398 1.04.398 1.438 0l4.844-4.875a.965.965 0 0 0 .28-.282l.563-.562-.562-.563a.954.954 0 0 0-.125-.156h-.032a.472.472 0 0 0-.062-.062l-4.906-4.938a1.004 1.004 0 0 0-.813-.312zM35.875 19a1.008 1.008 0 0 0-.594.281l-4.843 4.875-.094.032a.472.472 0 0 0-.063.062v.031a.945.945 0 0 0-.125.125 1.302 1.302 0 0 0-.062.094l-.5.5.468.469c.02.023.04.043.063.062l.063.094a.526.526 0 0 0 .062.063l.031.03a.906.906 0 0 0 .188.157l4.812 4.844c.399.398 1.04.398 1.438 0a1.014 1.014 0 0 0 0-1.438L33.437 26H43c.36.004.695-.184.879-.496a1.01 1.01 0 0 0 0-1.008c-.184-.312-.52-.5-.879-.496h-9.563l3.282-3.281a.996.996 0 0 0 .215-1.172.996.996 0 0 0-1.059-.547zM24.906 29.969c-.043.008-.086.02-.125.031A1.002 1.002 0 0 0 24 31v9.563l-3.281-3.282a1.004 1.004 0 0 0-.813-.312c-.043.008-.086.02-.125.031a.994.994 0 0 0-.781.703c-.105.367.004.758.281 1.016l4.875 4.843c.02.032.04.063.063.094l.062.063c.047.047.102.09.157.125l.562.562.563-.562a1.16 1.16 0 0 0 .218-.219l4.938-4.906a1.014 1.014 0 0 0 0-1.438 1.014 1.014 0 0 0-1.438 0L26 40.563V31a1 1 0 0 0-1.094-1.031z"/></svg>