<svg xmlns="http://www.w3.org/2000/svg" viewBox="0 0 50 50"><path d="M25 0C11.215 0 0 11.215 0 25s11.215 25 25 25 25-11.215 25-25S38.785 0 25 0zm-5.707 11.293L25 5.586l5.707 5.707a1 1 0 1 1-1.414 1.414L26 9.414V19c0 .55-.45 1-1 1s-1-.45-1-1V9.414l-3.293 3.293a1 1 0 1 1-1.414-1.414zM14 31a1 1 0 0 1-.707-1.707L16.586 26H7c-.55 0-1-.45-1-1s.45-1 1-1h9.586l-3.293-3.293a1 1 0 1 1 1.414-1.414L20.414 25l-5.707 5.707A.993.993 0 0 1 14 31zm16.707 7.707L25 44.414l-5.707-5.707a1 1 0 1 1 1.414-1.414L24 40.586V31a1 1 0 1 1 2 0v9.586l3.293-3.293a1 1 0 1 1 1.414 1.414zM43 26h-9.586l3.293 3.293a1 1 0 1 1-1.414 1.414L29.586 25l5.707-5.707a1 1 0 1 1 1.414 1.414L33.414 24H43a1 1 0 1 1 0 2z"/></svg>