<svg xmlns="http://www.w3.org/2000/svg" viewBox="0 0 40 40"><path d="M8.5 1.5h23v37h-23z" fill="#dff0fe"/><path d="M31 2v36H9V2h22m1-1H8v38h24z" fill="#4788c7"/><path d="M12.5 5.5h15v18h-15z" fill="#98ccfd"/><path d="M27 6v17H13V6h14m1-1H12v19h16z" fill="#4788c7"/><path d="M28 11v1H12v-1zm0 6v1H12v-1z" fill="#4788c7"/><path d="M22 14.5c0-.277.223-.5.5-.5h2a.499.499 0 1 1 0 1h-2a.498.498 0 0 1-.5-.5zm0 6c0-.277.223-.5.5-.5h2a.499.499 0 1 1 0 1h-2a.498.498 0 0 1-.5-.5zm0-12c0-.277.223-.5.5-.5h2a.499.499 0 1 1 0 1h-2a.498.498 0 0 1-.5-.5z" fill="#fff"/><path d="M22.5 30c0 1.379-1.121 2.5-2.5 2.5a2.502 2.502 0 0 1-2.5-2.5c0-1.379 1.121-2.5 2.5-2.5s2.5 1.121 2.5 2.5z" fill="#98ccfd"/><path d="M20 28c1.102 0 2 .898 2 2 0 1.102-.898 2-2 2-1.102 0-2-.898-2-2 0-1.102.898-2 2-2m0-1a3 3 0 1 0 .002 6.002A3 3 0 0 0 20 27z" fill="#4788c7"/></svg>