<svg xmlns="http://www.w3.org/2000/svg" viewBox="0 0 48 48"><path d="M13 4h23v40H13z" fill="#2196f3"/><path d="M15 6h19v4H15zm0 6h19v4H15zm0 6h19v4H15zm0 6h19v4H15z" fill="#37474f"/><path d="M27 38a1.999 1.999 0 1 1-4 0 1.999 1.999 0 1 1 4 0z" fill="#bbdefb"/><path d="M32 8c0 .55-.45 1-1 1s-1-.45-1-1 .45-1 1-1 1 .45 1 1zm0 6c0 .55-.45 1-1 1s-1-.45-1-1 .45-1 1-1 1 .45 1 1zm0 6c0 .55-.45 1-1 1s-1-.45-1-1 .45-1 1-1 1 .45 1 1zm0 6c0 .55-.45 1-1 1s-1-.45-1-1 .45-1 1-1 1 .45 1 1z" fill="#76ff03"/></svg>