<svg xmlns="http://www.w3.org/2000/svg" viewBox="0 0 64 64"><path d="M59 33c0 15.465-12.535 28-28 28S3 48.465 3 33 15.535 5 31 5s28 12.535 28 28z" fill="#c5e4fa"/><path d="M12.71 54.29a27.922 27.922 0 0 0 9.18 5.82L56 26v-6.43a28.018 28.018 0 0 0-3.71-4.86zm-1.948-2.052L50 13h-6L8.219 48.781a28.205 28.205 0 0 0 2.543 3.457zM7.79 45.21L41 12l-3-2L6.36 41.64a27.89 27.89 0 0 0 1.43 3.57z" fill="#e3f2ff"/><path d="M31 5C15.535 5 3 17.535 3 33s12.535 28 28 28 28-12.535 28-28S46.465 5 31 5zm0 50A22.004 22.004 0 0 1 9.793 38.867a22.003 22.003 0 0 1 9.895-24.738 21.999 21.999 0 0 1 26.484 2.941l.68.668a22.007 22.007 0 0 1 4.172 24.383A22.005 22.005 0 0 1 31 55z" fill="#f9e3ae"/><path d="M31 55C18.852 55 9 45.148 9 33H7.34a3.997 3.997 0 0 0-3.95 4.71c2.286 13.462 13.95 23.313 27.606 23.313 13.656 0 25.317-9.851 27.606-23.312a4.012 4.012 0 0 0-.872-3.277A3.991 3.991 0 0 0 54.66 33H53c0 12.148-9.852 22-22 22z" fill="#f6d397"/><path d="M58 9L31 36 20 25l-4 4 15 15 31-31z" fill="#72caaf"/><path d="M31 39.078a2.48 2.48 0 0 1-1.77-.726L17.941 27.059l2.118-2.118L31 35.88 57.941 8.94l2.118 2.118-27.29 27.293a2.48 2.48 0 0 1-1.769.726z" fill="#97e0bb"/><path d="M38.352 13.32c.714.27 1.414.575 2.097.918.496.25 1.098.051 1.348-.441a1.009 1.009 0 0 0-.445-1.348 23.523 23.523 0 0 0-2.301-1 1 1 0 0 0-1.024.133.989.989 0 0 0-.363.965.994.994 0 0 0 .688.773z" fill="#8d6c9f"/><path d="M62.71 12.29l-4-4a1.002 1.002 0 0 0-1.41 0l-5.07 5.07A1.03 1.03 0 0 0 52 13a28.742 28.742 0 0 0-21-9C17.996 3.992 6.578 12.645 3.066 25.16a28.995 28.995 0 0 0 12.84 32.61 28.999 28.999 0 0 0 34.864-3.567c9.507-8.871 11.949-22.984 5.968-34.531l6-6a1.002 1.002 0 0 0-.027-1.383zM58 33c0 14.91-12.09 27-27 27S4 47.91 4 33 16.09 6 31 6a26.762 26.762 0 0 1 19.57 8.39.96.96 0 0 0 .39.239l-3 3a1.041 1.041 0 0 0-.198-.328l-.524-.531a23.059 23.059 0 0 0-2.09-1.86 1.002 1.002 0 0 0-1.023-.2 1 1 0 1 0-.203 1.77 21.225 21.225 0 0 1 1.906 1.7l.473.492c.105.11.234.195.379.25L31 34.59l-10.29-10.3a1.002 1.002 0 0 0-1.41 0l-4 4a1.002 1.002 0 0 0 0 1.41l15 15c.391.386 1.02.386 1.41 0l19-19 .188.538c.102.301.196.602.282.903 0 .129.082.257.11.39.12.453.222.91.312 1.367v.23c.812 4.49.16 9.114-1.864 13.2-.097.211-.207.41-.308.621-.102.211-.34.621-.52.922-.18.3-.34.54-.52.809-.18.27-.3.468-.468.699-.348.473-.711.93-1.094 1.371l-.43.46a20.913 20.913 0 0 1-15.183 6.774 20.942 20.942 0 0 1-15.336-6.425c-.25-.258-.488-.528-.719-.797-.23-.274-.48-.551-.7-.832-.222-.282-.331-.442-.491-.668-.16-.23-.508-.703-.739-1.07-.101-.172-.199-.34-.3-.5-.25-.43-.5-.864-.72-1.301-.07-.141-.132-.282-.19-.41-.22-.47-.442-.95-.622-1.43-.058-.16-.109-.332-.168-.492-.16-.457-.32-.918-.449-1.38-.07-.25-.12-.507-.191-.757-.07-.25-.18-.75-.262-1.14a11.949 11.949 0 0 1-.156-1.141c-.043-.38-.082-.532-.102-.801 0-.48-.058-1-.07-1.442v-.527c0-.52 0-1 .07-1.55v-.462c0-.488.13-1 .211-1.468 0-.192.059-.391.098-.582.09-.418.2-.84.312-1.258.07-.27.137-.531.22-.801.077-.27.23-.691.359-1 .128-.309.25-.672.39-1 .14-.328.309-.691.48-1 .169-.309.22-.45.34-.672.22-.418.47-.816.72-1.226.09-.141.171-.293.26-.422a19.42 19.42 0 0 1 1.142-1.559l.308-.36c.32-.382.66-.761 1-1.12.34-.36.461-.461.7-.68l.312-.29c.36-.327.73-.64 1.117-.94l.402-.29.797-.57.551-.36.7-.41a24.97 24.97 0 0 1 1.25-.66l.46-.23.903-.383.378-.148c.329-.121.66-.239 1-.352.766-.246 1.547-.45 2.34-.61.371-.07.739-.14 1.121-.187h.239a21.21 21.21 0 0 1 3.3-.281h.641l.79.05 1.077.13h.364a.995.995 0 0 0 .746-.176 1.009 1.009 0 0 0 .226-1.402 1.009 1.009 0 0 0-.652-.403H34.3c-.403-.058-.801-.11-1.211-.14L32.25 10h-.77a22.894 22.894 0 0 0-3.351.18l-.438.058-1.09.184-.331.066c-.668.14-1.332.317-2 .524l-.43.129-.899.32-.66.258-.77.332c-.452.199-.89.418-1.32.648l-.43.242a10.05 10.05 0 0 0-1 .618l-.452.293c-.372.246-.739.503-1.098.777l-.25.18c-.45.347-.883.71-1.313 1.09l-.199.19c-.219.212-.449.411-.668.63l-.222.25c-.348.36-.688.75-1 1.14-.137.16-.278.313-.41.47-.43.542-.848 1.1-1.227 1.683-.113.168-.211.347-.32.527-.262.422-.524.852-.762 1.29-.13.25-.25.5-.38.75-.132.25-.26.491-.382.75-.117.26-.168.41-.25.612l-.098.239a25.279 25.279 0 0 0-.69 2v.058a22.86 22.86 0 0 0-.83 8.723c.067.664.165 1.348.302 2.05l.058.278c.121.594.262 1.184.43 1.77l.148.511c.16.508.34 1 .532 1.52a25.863 25.863 0 0 0 .898 2.02l.332.628c.254.469.524.926.809 1.371l.332.512c.332.5.687.98 1.07 1.45l.25.308a22.74 22.74 0 0 0 1.39 1.543l.079.078A23 23 0 0 0 31 56a23.123 23.123 0 0 0 16.29-6.73l.23-.239c.32-.332.628-.66.94-1l.2-.242c.309-.367.61-.75.899-1.14l.09-.137a22.847 22.847 0 0 0 4-17.692v-.261c-.098-.5-.208-1-.34-1.5 0-.137-.079-.278-.118-.418-.101-.332-.203-.672-.312-1-.11-.332-.149-.43-.23-.641a28.26 28.26 0 0 0-.32-.8l3-3A27.065 27.065 0 0 1 58 33zm-27 9.59L17.41 29 20 26.41l10.29 10.3a1 1 0 0 0 1.41 0L58 10.41 60.59 13z" fill="#8d6c9f"/></svg>