<svg xmlns="http://www.w3.org/2000/svg" viewBox="0 0 64 64"><path d="M57 57H7a2 2 0 0 1-2-2V9a2 2 0 0 1 2-2h50a2 2 0 0 1 2 2v46a2 2 0 0 1-2 2z" fill="#cda1a7"/><path d="M58 57H6c-.55 0-1-.45-1-1 0-2.21 1.79-4 4-4h46c2.21 0 4 1.79 4 4 0 .55-.45 1-1 1z" fill="#c4939c"/><path d="M14 50c-.555 0-1 .445-1 1v2c0 .555.445 1 1 1 .555 0 1-.445 1-1v-2c0-.555-.445-1-1-1zm-5 0c-.555 0-1 .445-1 1v2c0 .555.445 1 1 1 .555 0 1-.445 1-1v-2c0-.555-.445-1-1-1zm20 0c-.555 0-1 .445-1 1v2c0 .555.445 1 1 1 .555 0 1-.445 1-1v-2c0-.555-.445-1-1-1zm5 0c-.555 0-1 .445-1 1v2c0 .555.445 1 1 1 .555 0 1-.445 1-1v-2c0-.555-.445-1-1-1zm5 0c-.555 0-1 .445-1 1v2c0 .555.445 1 1 1 .555 0 1-.445 1-1v-2c0-.555-.445-1-1-1zm5 0c-.555 0-1 .445-1 1v2c0 .555.445 1 1 1 .555 0 1-.445 1-1v-2c0-.555-.445-1-1-1zm5 0c-.555 0-1 .445-1 1v2c0 .555.445 1 1 1 .555 0 1-.445 1-1v-2c0-.555-.445-1-1-1zm5 0c-.555 0-1 .445-1 1v2c0 .555.445 1 1 1 .555 0 1-.445 1-1v-2c0-.555-.445-1-1-1zm-35 0c-.555 0-1 .445-1 1v2c0 .555.445 1 1 1 .555 0 1-.445 1-1v-2c0-.555-.445-1-1-1zm5 0c-.555 0-1 .445-1 1v2c0 .555.445 1 1 1 .555 0 1-.445 1-1v-2c0-.555-.445-1-1-1z" fill="#8d6c9f"/><path d="M57 6H7C5.348 6 4 7.348 4 9v46c0 1.652 1.348 3 3 3h50c1.652 0 3-1.348 3-3V9c0-1.652-1.348-3-3-3zm1 49c0 .55-.45 1-1 1H7c-.55 0-1-.45-1-1V9c0-.55.45-1 1-1h50c.55 0 1 .45 1 1z" fill="#8d6c9f"/><path d="M29 22H17.484l3.293-3.293a1 1 0 1 0-1.414-1.414l-5.07 5.07a1 1 0 0 0 0 1.414l5.07 5.07a1 1 0 1 0 1.414-1.413L17.344 24H29c.555 0 1-.445 1-1 0-.555-.445-1-1-1zm0 16H17.484l3.293-3.293a1 1 0 1 0-1.414-1.414l-5.07 5.07a1 1 0 0 0 0 1.414l5.07 5.07a1 1 0 1 0 1.414-1.413L17.344 40H29c.555 0 1-.445 1-1 0-.555-.445-1-1-1zm15.637-24.707a1 1 0 1 0-1.414 1.414L46.516 18H35c-.555 0-1 .445-1 1 0 .555.445 1 1 1h11.656l-3.433 3.438a.993.993 0 0 0 0 1.414 1 1 0 0 0 1.414 0l5.07-5.075a1 1 0 0 0 0-1.414zm0 16a1 1 0 1 0-1.414 1.414L46.516 34H35c-.555 0-1 .445-1 1 0 .555.445 1 1 1h11.656l-3.433 3.438a.993.993 0 0 0 0 1.414 1 1 0 0 0 1.414 0l5.07-5.075a1 1 0 0 0 0-1.414z" fill="#faefde"/></svg>