<svg xmlns="http://www.w3.org/2000/svg" viewBox="0 0 50 50"><path d="M2 0C.906 0 0 .906 0 2v46c0 1.094.906 2 2 2h46c1.094 0 2-.906 2-2V2c0-1.094-.906-2-2-2zm0 2h46v46H2zm33.906 5.969c-.043.008-.086.02-.125.031a.994.994 0 0 0-.781.703c-.105.367.004.758.281 1.016L38.563 13h-9.657c-.55.027-.98.496-.953 1.047.027.55.496.98 1.047.953h9.563l-3.282 3.281a1.014 1.014 0 0 0 0 1.438c.399.398 1.04.398 1.438 0l4.843-4.875a.965.965 0 0 0 .282-.281l.562-.563-.562-.563a.954.954 0 0 0-.125-.156h-.032a.472.472 0 0 0-.062-.062L36.719 8.28a1.004 1.004 0 0 0-.813-.312zM13.875 12a1.008 1.008 0 0 0-.594.281l-4.75 4.781c-.031.02-.062.04-.094.063a1.01 1.01 0 0 0-.468.469v.031L7.594 18l.406.406v.032c.086.167.215.308.375.406.031.023.063.043.094.062l4.812 4.813c.399.398 1.04.398 1.438 0a1.014 1.014 0 0 0 0-1.438L11.438 19H21c.36.004.695-.184.879-.496a1.01 1.01 0 0 0 0-1.008c-.184-.312-.52-.5-.879-.496h-9.563l3.282-3.281a.996.996 0 0 0 .215-1.172.996.996 0 0 0-1.059-.547zm22.031 13.969c-.043.008-.086.02-.125.031a.994.994 0 0 0-.781.703c-.105.367.004.758.281 1.016L38.563 31h-9.657c-.55.027-.98.496-.953 1.047.027.55.496.98 1.047.953h9.563l-3.282 3.281a1.014 1.014 0 0 0 0 1.438c.399.398 1.04.398 1.438 0l4.843-4.875a.965.965 0 0 0 .282-.282l.562-.562-.562-.563a.954.954 0 0 0-.125-.156h-.032a.472.472 0 0 0-.062-.062l-4.906-4.938a1.004 1.004 0 0 0-.813-.312zM13.875 30a1.008 1.008 0 0 0-.594.281l-4.75 4.782a.996.996 0 0 0-.562.562L7.594 36l.406.438c.098.203.266.37.469.468l4.812 4.813c.399.398 1.04.398 1.438 0a1.014 1.014 0 0 0 0-1.438L11.438 37H21c.36.004.695-.184.879-.496a1.01 1.01 0 0 0 0-1.008c-.184-.312-.52-.5-.879-.496h-9.563l3.282-3.281a.996.996 0 0 0 .215-1.172.996.996 0 0 0-1.059-.547z"/></svg>