<svg xmlns="http://www.w3.org/2000/svg" viewBox="0 0 50 50"><path d="M25 7C15.61 7 7.07 10.73.781 16.77l-.722.695 5.535 5.77.726-.696C11.176 17.875 17.75 15 25 15s13.824 2.875 18.684 7.54l.722.694 5.535-5.77-.722-.694C42.929 10.73 34.39 7 25 7zm0 2c8.5 0 16.191 3.293 22.047 8.59l-2.766 2.879C39.148 15.867 32.418 13 25 13c-7.418 0-14.148 2.867-19.281 7.469l-2.766-2.88C8.81 12.294 16.5 9 25 9zm0 10c-6.168 0-11.785 2.453-15.914 6.422l-.723.691 5.559 5.793.719-.695C17.344 28.613 20.973 27 25 27s7.656 1.613 10.36 4.21l.718.696 5.559-5.793-.719-.691C36.785 21.453 31.168 19 25 19zm0 2c5.281 0 10.055 2.012 13.746 5.238l-2.789 2.903C32.997 26.605 29.199 25 25 25c-4.2 0-7.996 1.605-10.957 4.14l-2.79-2.902C14.946 23.012 19.72 21 25 21zm0 10c-2.95 0-5.633 1.176-7.61 3.074l-.718.692L25 43.44l.719-.75 7.61-7.925-.72-.692A10.963 10.963 0 0 0 25 31zm0 2c2.055 0 3.86.797 5.375 1.957L25 40.559l-5.375-5.602C21.141 33.797 22.945 33 25 33z"/></svg>