<svg xmlns="http://www.w3.org/2000/svg" viewBox="0 0 50 50"><path style="line-height:normal;text-indent:0;text-align:start;text-decoration-line:none;text-decoration-style:solid;text-decoration-color:#000;text-transform:none;block-progression:tb;isolation:auto;mix-blend-mode:normal" d="M19.951 6.002a1 1 0 0 0-.795.46l-6.515 10.241-1.194-.598a1 1 0 0 0-1.342.448l-7 14A1 1 0 0 0 3 31v12a1 1 0 0 0 1 1h8a1 1 0 0 0 .408-.082l.217.082a.998.998 0 0 0 .908-.582l6.744-14.678a3.029 3.029 0 0 1 1.737-1.574 3.008 3.008 0 0 1 2.328.15l1.412.705 3.367-6.173L27 21l-2 4-6-8-4 5-1.553-3.107a1 1 0 0 0 .397-.356l6.203-9.748L24 14.32V16a1 1 0 0 0 .629.928l4.703 1.88.832 1.29 1.104-1.98-.295-.458a1 1 0 0 0-.602-.588L26 15.322V14a1 1 0 0 0-.186-.582l-5-7a1 1 0 0 0-.863-.416zM37.5 7c-1.4 0-2.647.841-3.2 2.08-1.21.28-2.3 1.283-2.3 2.92 0 1.449 1.206 3 3 3h9.543c.046 0 .09-.004.135-.01A2.482 2.482 0 0 0 47 12.5a2.505 2.505 0 0 0-2.164-2.479A3.004 3.004 0 0 0 42 8c-.604 0-1.168.18-1.639.488A3.496 3.496 0 0 0 37.5 7zm-4.549 13.002a1 1 0 0 0-.828.52l-5.539 10.152-3.137-1.569a1 1 0 0 0-1.355.475l-6 13A1 1 0 0 0 17 44h29a1 1 0 0 0 1-1v-6.871a1 1 0 0 0-.037-.408 1 1 0 0 0-.004-.018 1 1 0 0 0-.006-.017 1 1 0 0 0-.004-.008 1 1 0 0 0-.19-.342l-5.927-8.89a1 1 0 0 0-1.28-.34l-1.236.617-4.502-6.305a1 1 0 0 0-.863-.416zm.162 2.877l4.073 5.703a1 1 0 0 0 1.261.313l1.211-.606 4.047 6.072L39 31l-3 2-3-3-5 8-5.805-3.87 1.282-2.775 3.076 1.54a1 1 0 0 0 1.324-.416l5.236-9.6z" font-weight="400" font-family="sans-serif" white-space="normal" overflow="visible"/></svg>