<svg xmlns="http://www.w3.org/2000/svg" viewBox="0 0 64 64"><path d="M29 47h6v6h-6zm15 10H20l4-4h16z" fill="#ffeb9b"/><path d="M49 61H15a1.999 1.999 0 1 1 0-4h34a1.999 1.999 0 1 1 0 4z" fill="#f5c872"/><path d="M12 23h7v4h-7zm33 0h7v4h-7z" fill="#ffefb8"/><path d="M32 43c-7.18 0-13-5.82-13-13V14c0-7.18 5.82-13 13-13s13 5.82 13 13v16c0 7.18-5.82 13-13 13z" fill="#c2cde7"/><path d="M19 25v5c0 7.18 5.82 13 13 13s13-5.82 13-13v-5z" fill="#b5c4e0"/><path d="M24 32h16c.602 0 .96-.398.96-1s-.358-1-.96-1H24c-.48 0-.96.398-.96 1s.358 1 .96 1z" fill="#c7d0e5"/><path d="M63 51c0 6.629-5.371 12-12 12s-12-5.371-12-12 5.371-12 12-12 12 5.371 12 12z" fill="#ed7899"/><path d="M22 23a1 1 0 0 0-1 1v2a1 1 0 1 0 2 0v-2a1 1 0 0 0-1-1zm5 4a1 1 0 0 0 1-1v-2a1 1 0 1 0-2 0v2a1 1 0 0 0 1 1zm5 0a1 1 0 0 0 1-1v-2a1 1 0 1 0-2 0v2a1 1 0 0 0 1 1zm5 0a1 1 0 0 0 1-1v-2a1 1 0 1 0-2 0v2a1 1 0 0 0 1 1zm5 0a1 1 0 0 0 1-1v-2a1 1 0 1 0-2 0v2a1 1 0 0 0 1 1z" fill="#8d6c9f"/><path d="M51 38c-1.059 0-2.09.129-3.078.371A17.796 17.796 0 0 0 50 30v-2h1c1.102 0 2-.898 2-2v-2c0-1.102-.898-2-2-2h-5v-8c0-7.719-6.281-14-14-14S18 6.281 18 14v8h-5c-1.102 0-2 .898-2 2v2c0 1.102.898 2 2 2h1v2c0 8.55 6 15.71 14 17.535V52h-2.34c-1.34 0-2.59.52-3.539 1.46L19.59 56H15a3.01 3.01 0 0 0-3 3c0 1.648 1.352 3 3 3h29.078A12.92 12.92 0 0 0 51 64c7.172 0 13-5.828 13-13s-5.828-13-13-13zm-5-14h5v2h-5zm-26 4v-8h7a1 1 0 1 0 0-2h-7v-2h7a1 1 0 1 0 0-2h-7c0-.684.07-1.348.18-2H27a1 1 0 1 0 0-2h-6.3c1.652-4.652 6.085-8 11.3-8 5.215 0 9.648 3.348 11.3 8H37a1 1 0 1 0 0 2h6.82c.11.652.18 1.316.18 2h-7a1 1 0 1 0 0 2h7v2h-7a1 1 0 1 0 0 2h7v10c0 6.617-5.383 12-12 12s-12-5.383-12-12zm-7-2v-2h5v2zm3 4v-2h2v2c0 7.719 6.281 14 14 14s14-6.281 14-14v-2h2v2c0 3.578-1.191 6.89-3.172 9.559-.008 0-.008 0-.008.011a13.084 13.084 0 0 0-4.59 4.14v.009A15.976 15.976 0 0 1 32 46c-8.82 0-16-7.18-16-16zm22.05 22H36v-4.469a17.795 17.795 0 0 0 2.738-.84A12.896 12.896 0 0 0 38 51c0 .34.012.672.05 1zM34 47.879V52h-4v-4.117c.656.07 1.324.117 2 .117.676 0 1.344-.047 2-.121zm-10.46 7A2.959 2.959 0 0 1 25.66 54h12.692c.16.691.378 1.36.648 2H22.41zM15 60c-.55 0-1-.45-1-1s.45-1 1-1h25.05c.462.719.99 1.39 1.579 2zm36 2c-.441 0-.879-.031-1.309-.078A10.85 10.85 0 0 1 44.68 60a11.096 11.096 0 0 1-2.168-2 10.83 10.83 0 0 1-1.313-2c-.12-.23-.23-.48-.34-.719v-.011a10.85 10.85 0 0 1-.78-2.961A12.07 12.07 0 0 1 40 51c0-2.148.61-4.148 1.68-5.84a11.13 11.13 0 0 1 4.441-4.02A10.936 10.936 0 0 1 51 40c6.07 0 11 4.93 11 11s-4.93 11-11 11z" fill="#8d6c9f"/><path d="M55.95 46.05a1 1 0 0 0-1.415 0L51 49.587l-3.535-3.535a1 1 0 1 0-1.414 1.414L49.586 51l-3.535 3.535a1 1 0 1 0 1.414 1.414L51 52.414l3.535 3.535a1 1 0 0 0 1.414-1.414L52.414 51l3.535-3.535a1 1 0 0 0 0-1.414z" fill="#faefde"/></svg>