<svg xmlns="http://www.w3.org/2000/svg" viewBox="0 0 50 50"><path d="M12 8C5.937 8 1 12.937 1 19v22a1 1 0 0 0 1 1h36c6.063 0 11-4.937 11-11V9a1 1 0 0 0-1-1H12zm0 2h35v21c0 4.983-4.017 9-9 9H3V19c0-4.983 4.017-9 9-9zm7.227 7.69c-3.841 0-6.217 2.809-6.217 7.33 0 4.516 2.38 7.32 6.226 7.32 3.003 0 5.249-1.678 5.721-4.276l.043-.228h-2.117l-.04.143c-.41 1.483-1.794 2.404-3.607 2.404-2.523 0-4.08-2.054-4.08-5.363 0-3.314 1.555-5.375 4.073-5.375 1.795 0 3.179 1.038 3.613 2.712l.039.149h2.113l-.033-.227c-.421-2.703-2.78-4.59-5.734-4.59zM27 18v14h4.875c4.141 0 6.607-2.617 6.607-7 0-4.377-2.466-7-6.607-7H27zm2 2h2.756c2.926 0 4.601 1.827 4.601 5.014 0 3.169-1.675 4.986-4.601 4.986H29V20z"/></svg>