<svg xmlns="http://www.w3.org/2000/svg" viewBox="0 0 16 16"><path d="M4 1C1.89 1 1.043 2.77 1.043 2.77A.53.53 0 0 0 1 2.977v2.398c0 .105.031.207.094.29 0 0 .281.378.828.702.441.262 1.226.422 2.078.508V13.5c0 .277.223.5.5.5h2c.277 0 .5-.223.5-.5V4.375s.012-.805-.348-1.637C6.293 1.906 5.45 1 4 1zm8 0c-1.45 0-2.293.906-2.652 1.738C8.988 3.57 9 4.375 9 4.375V13.5c0 .277.223.5.5.5h2c.277 0 .5-.223.5-.5V6.875c.852-.086 1.637-.246 2.078-.508.547-.324.828-.703.828-.703A.474.474 0 0 0 15 5.375V2.977a.53.53 0 0 0-.043-.207S14.109 1 12 1zM4 2c1.066 0 1.473.531 1.734 1.137.262.605.266 1.238.266 1.238V13H5V6.5c0-.277-.223-.5-.5-.5-1.016 0-1.668-.254-2.07-.492-.332-.196-.39-.297-.43-.348V3.117C2.047 3.012 2.504 2 4 2zm8 0c1.496 0 1.953 1.012 2 1.117V5.16c-.04.05-.098.152-.43.348-.402.238-1.054.492-2.07.492-.277 0-.5.223-.5.5V13h-1V4.375s.004-.633.266-1.238C10.527 2.53 10.934 2 12 2zM3.5 4a.499.499 0 1 0 0 1 .499.499 0 1 0 0-1zm9 0a.499.499 0 1 0 0 1 .499.499 0 1 0 0-1z"/></svg>