<svg xmlns="http://www.w3.org/2000/svg" viewBox="0 0 48 48"><path d="M33 46h-4c-.55 0-1-.45-1-1v-2h6v2c0 .55-.45 1-1 1zm-18 0h4c.55 0 1-.45 1-1v-2h-6v2c0 .55.45 1 1 1z" fill="#78909c"/><path d="M38.5 3C36.86 3 28 4.781 28 22v22h6V22s-.074-4.504 3-7z" fill="#bbdefb"/><path d="M45 11.5C45 6.805 42.09 3 38.5 3S32 6.805 32 11.5s2.91 8.5 6.5 8.5 6.5-3.805 6.5-8.5zM9.5 3C11.14 3 20 4.781 20 22v22h-6V22s.074-4.504-3-7z" fill="#bbdefb"/><path d="M16 11.5C16 6.805 13.09 3 9.5 3S3 6.805 3 11.5 5.91 20 9.5 20s6.5-3.805 6.5-8.5z" fill="#bbdefb"/><path d="M34.68 18.367c-1.332-1.27-2.282-3.187-2.578-5.402C31.43 15.156 31 18.039 31 22v22h3V22s-.027-1.727.68-3.633zm-18.782-5.402c-.296 2.215-1.246 4.133-2.578 5.402C14.027 20.273 14 22 14 22v22h3V22c0-3.96-.43-6.844-1.102-9.035z" fill="#90caf9"/><path d="M39 15c-1.102 0-2-.898-2-2v-3c0-1.102.898-2 2-2 1.102 0 2 .898 2 2v3c0 1.102-.898 2-2 2zm-5-2.5v-2c0-.273-.227-.5-.5-.5s-.5.227-.5.5v2c0 .273.227.5.5.5s.5-.227.5-.5zm10 0v-2c0-.273-.227-.5-.5-.5s-.5.227-.5.5v2c0 .273.227.5.5.5s.5-.227.5-.5zM9 15c1.102 0 2-.898 2-2v-3c0-1.102-.898-2-2-2-1.102 0-2 .898-2 2v3c0 1.102.898 2 2 2zm5.5-2c.273 0 .5-.227.5-.5v-2c0-.273-.227-.5-.5-.5s-.5.227-.5.5v2c0 .273.227.5.5.5zm-10 0c.273 0 .5-.227.5-.5v-2c0-.273-.227-.5-.5-.5s-.5.227-.5.5v2c0 .273.227.5.5.5z" fill="#37474f"/></svg>