<svg xmlns="http://www.w3.org/2000/svg" viewBox="0 0 80 80"><path d="M21 12c-8.707 0-12.844 6.469-12.844 6.469A.982.982 0 0 0 8 19v12c0 .137.027.27.078.395C8.082 31.395 11.48 39 21 39c1.855 0 3.758-.457 5.344-1.27.629 2.247.656 4.25.656 4.25V53c-.004.36.184.695.496.879.313.18.695.18 1.008 0 .312-.184.5-.52.496-.879V42.02s.309-7.192-4.39-10.813a1.002 1.002 0 0 0-1.575.484 1.01 1.01 0 0 0 .356 1.102c1.023.789 1.75 1.883 2.277 3.035C24.371 36.54 22.609 37 21 37c-8.168 0-10.809-5.805-11-6.246V19.328C10.383 18.754 13.723 14 21 14c3.273 0 5.594 1.07 7.39 2.84 1.801 1.765 3.055 4.293 3.9 7.191C33.976 29.821 34 37 34 42v23c0 .566-.434 1-1 1h-3a.975.975 0 0 1-.988-.969A.997.997 0 0 0 28 64c-.55 0-1 .45-1 1 0 1.645 1.355 3 3 3h3c1.645 0 3-1.355 3-3V42c0-5 .023-12.32-1.79-18.531-.905-3.102-2.276-5.95-4.413-8.059C27.657 13.305 24.727 12 21 12zm38 0c-3.727 0-6.656 1.305-8.797 3.41-2.137 2.11-3.508 4.957-4.414 8.059C43.977 29.679 44 37 44 42v23c0 1.645 1.355 3 3 3h3c1.36 0 2.336-1.016 2.695-2.27A1.002 1.002 0 0 0 52 64v2l-1-1c0 .566-.434 1-1 1h-3c-.566 0-1-.434-1-1V42c0-5 .023-12.18 1.71-17.969.845-2.898 2.099-5.426 3.9-7.191C53.405 15.07 55.726 14 59 14c7.277 0 10.617 4.754 11 5.328v11.426C69.809 31.195 67.168 37 59 37c-1.61 0-3.371-.46-4.668-1.172.527-1.152 1.254-2.246 2.277-3.035.344-.262.485-.711.348-1.117a.995.995 0 0 0-.945-.684 1.01 1.01 0 0 0-.621.215C50.69 34.828 51 42.02 51 42.02V53c-.004.36.184.695.496.879.313.18.695.18 1.008 0 .312-.184.5-.52.496-.879V41.98s.027-2.003.656-4.25C55.242 38.543 57.145 39 59 39c9.52 0 12.922-7.605 12.922-7.605.05-.125.078-.258.078-.395V19a.982.982 0 0 0-.156-.531S67.707 12 59 12zm-34.035 3.996a1 1 0 0 0-.414 1.898s1.734.91 2.554 2.555c.247.492.848.692 1.344.446.492-.247.692-.848.446-1.344-1.18-2.356-3.446-3.446-3.446-3.446a.958.958 0 0 0-.484-.109zm30.039 0c-.156 0-.313.04-.453.11 0 0-2.266 1.09-3.446 3.445a1.003 1.003 0 0 0 .446 1.344 1.003 1.003 0 0 0 1.344-.446c.82-1.644 2.554-2.554 2.554-2.554a.999.999 0 0 0-.445-1.899zM14.5 24a1.5 1.5 0 1 0 0 3 1.5 1.5 0 0 0 0-3zm51 0a1.5 1.5 0 1 0 0 3 1.5 1.5 0 0 0 0-3zM32 31c-.55 0-1 .45-1 1s.45 1 1 1 1-.45 1-1-.45-1-1-1zm16 0c-.55 0-1 .45-1 1s.45 1 1 1 1-.45 1-1-.45-1-1-1zM28 56c-.55 0-1 .45-1 1s.45 1 1 1 1-.45 1-1-.45-1-1-1zm24 0c-.55 0-1 .45-1 1s.45 1 1 1 1-.45 1-1-.45-1-1-1zm-24 4c-.55 0-1 .45-1 1s.45 1 1 1 1-.45 1-1-.45-1-1-1zm24 0c-.55 0-1 .45-1 1s.45 1 1 1 1-.45 1-1-.45-1-1-1z"/></svg>