<svg xmlns="http://www.w3.org/2000/svg" viewBox="0 0 50 50"><path d="M37.691 2.016c-1.707.097-3.421.668-5.027 1.691-.148.094-.3.18-.445.285-2.617 1.824-4.606 4.676-5.594 8.028-.82 2.777-.875 5.613-.219 8.136a12.127 12.127 0 0 0 1.86 4.012l10.964 3.336c.004 0 0-.004.004-.004 1.387-.52 2.668-1.328 3.809-2.36.02-.019.043-.035.066-.054 1.922-1.762 3.41-4.172 4.23-6.95l.013-.05c.12-.414.226-.832.312-1.246.016-.082.027-.164.043-.246.07-.356.133-.711.176-1.067.004-.039.004-.078.008-.113.293-2.465-.004-4.902-.887-7.062-1.215-2.977-3.39-5.07-6.129-5.93-.05-.016-.094-.035-.14-.05a9.043 9.043 0 0 0-3.044-.356zM30.47 8.559l15.527 4.582a13.928 13.928 0 0 1-.574 4.425c-.137.477-.3.942-.488 1.391l-16.73-4.937c.085-.48.202-.957.343-1.43a13.775 13.775 0 0 1 1.922-4.031zm-18.73 1.492c-2.395-.102-4.59.55-6.266 1.886-2.285 1.82-3.516 4.688-3.473 8.079.047 3.27 1.277 6.582 3.465 9.328.207.258.418.504.629.738l.226.234c.14.145.282.293.422.426.09.09.184.168.281.254.122.11.247.223.372.328.105.086.207.164.312.242.113.09.23.18.348.262.11.082.226.156.336.235l.324.207c.12.074.242.144.363.214.098.055.195.11.297.16.129.07.258.133.39.196.087.039.172.082.262.12.141.063.278.122.418.177.075.027.153.058.227.086.148.054.297.109.45.156l.179.059c.16.05.32.097.48.14.043.008.086.02.13.031.175.043.35.082.527.118l.066.011c1.012.2 1.969.258 2.824.258h.008c.16 0 .312-.004.46-.008l8.735-7.355c.649-2.84.95-6.828-2.152-10.719-2.305-3.125-5.895-5.281-9.602-5.773a13.48 13.48 0 0 0-1.039-.09zm5.374 3.73a13.002 13.002 0 0 1 3.68 3.348c.203.262.383.527.562.793L7.668 28.824c-.215-.234-.434-.469-.64-.73a14.236 14.236 0 0 1-2.372-4.39zM29.777 26.72c.485 1.215.43 2.191-.152 3.02l-.094.136-.05.184c-1.106 1.593-2.626 4.914-3.313 7.25-.625 2.113-.844 4.02-.637 5.511.317 2.266 1.508 2.942 2.192 3.145.246.07.496.105.742.105 2.05 0 4.055-2.449 5.258-6.535.617-2.082 1.293-5.183 1.23-7.222l.055-.176-.004-.153c-.024-1.246.742-2.308 1.793-3.129zm-5.347 2.613l-6.055 5.102c1.98.625 3.637 1.859 4.129 3.265l.058.16.122.153c.226.629.539 1.293.882 1.968a19.75 19.75 0 0 1 .684-3.234c.363-1.234.93-2.695 1.559-4.078a9.75 9.75 0 0 1-1.38-3.336zM34.57 42.97c-1.074 2.304-2.457 3.89-4.03 4.625.612.265 1.198.406 1.737.406a2.67 2.67 0 0 0 1.696-.57c1.12-.89 1.289-2.504.597-4.461z"/></svg>