<svg xmlns="http://www.w3.org/2000/svg" viewBox="0 0 64 64"><path d="M51 25.738C46 29 38.309 30 34.309 26c-4-4-3-11.66.242-16.73z" fill="#7e8189"/><path d="M54.078 23.121a8.29 8.29 0 0 1-.68.738c-.73.711-1.535 1.34-2.398 1.88L34.55 9.25c.54-.852 1.173-1.64 1.88-2.36a8.14 8.14 0 0 1 .742-.68c4.777-4.07 12.488-4.48 16.937 0 4.45 4.481 4.04 12.13-.03 16.911z" fill="#8b8e98"/><path d="M43.371 29.512l-23.21 19.34a1.96 1.96 0 0 1-1.552.43 1.919 1.919 0 0 1-1.148-.552l-2.86-2.859-.07-.062-3-3a1.997 1.997 0 0 1-.12-2.7l19.37-23.187a.989.989 0 0 1 .723-.363.986.986 0 0 1 .758.293l5.59 5.59L43.442 28c.058.059.105.129.148.2.27.429.176.991-.219 1.312z" fill="#ced8ed"/><path d="M43.371 29.512l-23.21 19.34a1.96 1.96 0 0 1-1.552.43l-4-3.41-.07-.063L37.852 22.44l5.738 5.79c.25.421.16.964-.219 1.28z" fill="#b5c4e0"/><path d="M54.11 26a1.999 1.999 0 0 1-2.829 0L51 25.738 34.309 9a1.999 1.999 0 0 1 0-2.828 1.995 1.995 0 0 1 2.832 0l17 17A1.998 1.998 0 0 1 54.11 26z" fill="#ced8ed"/><path d="M11.71 51.71l-3.12-3.132a1.992 1.992 0 0 1-.149-2.656L11 42.238l7 7.07-3.672 2.544a2.003 2.003 0 0 1-2.617-.141z" fill="#c2cde7"/><path d="M30.07 33.05l-2.832 2.829a1.999 1.999 0 1 1-2.828-2.828l2.828-2.832a2.008 2.008 0 0 1 2.832 0 2.008 2.008 0 0 1 0 2.832z" fill="#faefde"/><path d="M54.82 5.469A12.458 12.458 0 0 0 46 2a14.525 14.525 0 0 0-8.84 3 3.005 3.005 0 0 0-2.95.05 2.997 2.997 0 0 0-1.48 2.552 2.98 2.98 0 0 0 .57 1.77 19.53 19.53 0 0 0-2.3 6.276c-.39.106-.738.325-1 .633L10.672 39.488c-.559.66-.8 1.528-.672 2.383L7.66 45.29a3.002 3.002 0 0 0 .219 4l.8.8-.3.302a8.004 8.004 0 0 0-1.691 8.664A8.009 8.009 0 0 0 14 64h11c.55 0 1-.45 1-1s-.45-1-1-1H14.059A6 6 0 0 1 9.8 51.8l.3-.3.91.91a3.01 3.01 0 0 0 2.137.89 2.863 2.863 0 0 0 1.801-.62l3.473-2.399a2.866 2.866 0 0 0 2.379-.652L44 30.28c.305-.261.527-.613.629-1A19.255 19.255 0 0 0 50.94 27a3 3 0 0 0 4.758-2.43 2.882 2.882 0 0 0-.36-1.422 14.867 14.867 0 0 0 2.93-8.078 12.407 12.407 0 0 0-3.448-9.6zM13.75 51.07a.998.998 0 0 1-1.328-.07l-3.133-3.129a1 1 0 0 1 0-1.39l1.852-2.68 4.937 4.93.442.44zm5.77-3a.994.994 0 0 1-1.348-.07l-5.902-5.898a.999.999 0 0 1-.06-1.352l18.47-22.148.87-1 11.18 11.18-1 .878zm24.66-20.699v-.05L33 16.147a17.29 17.29 0 0 1 1.82-5.25L49.441 25.55a17.481 17.481 0 0 1-5.261 1.828zm9.351-2.262l-.133.153a1.032 1.032 0 0 1-.226.16A1.005 1.005 0 0 1 52 25.27l-.82-.82L35.852 9.128 35 8.3a1 1 0 0 1-.29-.7c0-.132.024-.257.071-.382-.222-1.078 0 0 0 0 .051-.11.121-.211.207-.297a.64.64 0 0 1 .184-.14.965.965 0 0 1 .527-.153.998.998 0 0 1 .7.293l.71.707 15.582 15.52.707.71a1 1 0 0 1 .301.711 1.02 1.02 0 0 1-.168.54zM56.27 15A12.864 12.864 0 0 1 54 21.61L38.68 6.3c4.558-3.25 11-3.12 14.718.59A10.343 10.343 0 0 1 56.27 15z" fill="#8d6c9f"/><path d="M30.781 21l-1.41 1.41c-.285.246-.41.63-.324.992a1 1 0 0 0 .738.739 1 1 0 0 0 .996-.32l1.41-1.41a.996.996 0 0 0 .32-.993.988.988 0 0 0-.738-.738.99.99 0 0 0-.992.32zm7.071 7.102l-1.41 1.41a1 1 0 0 0-.325.992c.09.363.375.648.738.738.368.086.75-.035.997-.32l1.41-1.41a1 1 0 0 0-1.41-1.41zm-3.543-3.532L32.899 26a1 1 0 1 0 1.41 1.41L35.73 26a1 1 0 0 0-1.41-1.41zm-7.778 4.95L23.7 32.352a3 3 0 1 0 4.242 4.238l2.829-2.828a2.999 2.999 0 0 0 0-4.242 3.068 3.068 0 0 0-4.239 0zm2.828 2.832l-2.828 2.828c-.39.386-1.02.386-1.41 0a.995.995 0 0 1 0-1.41l2.828-2.829a1.01 1.01 0 0 1 .996-.324c.364.09.649.375.739.738.086.368-.04.75-.325.997zM33 62h-4c-.55 0-1 .45-1 1s.45 1 1 1h4c.55 0 1-.45 1-1s-.45-1-1-1z" fill="#8d6c9f"/></svg>