<svg xmlns="http://www.w3.org/2000/svg" viewBox="0 0 50 50"><path d="M34 .938c-2.55 0-4.91.886-6.781 2.343l15.5 15.5A11.027 11.027 0 0 0 45.062 12C45.063 5.906 40.102.937 34 .937zm-8.313 3.78A11.015 11.015 0 0 0 22.938 12c0 6.094 4.97 11.063 11.063 11.063 2.785 0 5.336-1.043 7.281-2.75zm-4.5 9.782c-2.796 4.227-8.09 11.86-12.5 16.281-.19.164-.609.63-.656 1.313-.027.386.067.972.656 1.562l3.626 3.625c.476.477.992.719 1.53.719.59 0 1.052-.293 1.313-.594 4.336-4.328 12.106-9.746 16.375-12.593-5.21-1.004-9.332-5.102-10.343-10.313zm1 8.031c.301 0 .586.117.813.344l.125.094a1.175 1.175 0 0 1 0 1.656l-2.719 2.719a1.172 1.172 0 0 1-1.656 0l-.094-.094a1.172 1.172 0 0 1 0-1.656l2.688-2.719c.226-.227.543-.344.843-.344zm14 6.563c-1.847-.051-3.808.648-5.562 2.406L16.906 45.219c-1.476 1.476-3.273 2.011-5.062 1.531-1.75-.469-3.176-1.852-3.625-3.531-.453-1.692.129-3.469 1.656-5l.281-.25-1.5-1.5-.25.281c-2.086 2.086-2.875 4.582-2.219 7.031.641 2.395 2.63 4.34 5.094 5 .598.16 1.215.25 1.813.25 1.91 0 3.758-.789 5.281-2.312L32.094 33c2.656-2.652 5.722-2.031 7.437-.313 1.715 1.715 2.254 4.622-.406 7.282l-6.344 6.343c-.41.41-.41 1.09 0 1.5.41.41 1.09.41 1.5 0l6.313-6.343c1.636-1.637 2.496-3.559 2.468-5.532-.023-1.761-.734-3.453-2.03-4.75a7.178 7.178 0 0 0-4.844-2.093z"/></svg>