<svg xmlns="http://www.w3.org/2000/svg" viewBox="0 0 50 50"><path d="M25 3C12.86 3 3 12.86 3 25v7h2v-7C5 13.941 13.941 5 25 5s20 8.941 20 20v7h2v-7c0-12.14-9.86-22-22-22zm0 5C15.656 8 8 15.656 8 25v7h2v-7c0-8.254 6.746-15 15-15s15 6.746 15 15v7h2v-7c0-9.344-7.656-17-17-17zm0 5c-6.637 0-12 5.363-12 12v7h2v-7c0-5.566 4.434-10 10-10s10 4.434 10 10v7h2v-7c0-6.637-5.363-12-12-12zm0 5c-3.844 0-7 3.156-7 7v7h2v-7c0-2.754 2.246-5 5-5s5 2.246 5 5v7h2v-7c0-3.844-3.156-7-7-7zm0 5c-1.102 0-2 .898-2 2v7h4v-7c0-1.102-.898-2-2-2zM2.812 33.031a.976.976 0 0 0-.75.688l-2 7a.972.972 0 0 0-.03.281h-.063v4A1.04 1.04 0 0 0 1 46.031h48A1.04 1.04 0 0 0 50.031 45v-4h-.062a.972.972 0 0 0-.032-.281l-2-7A.973.973 0 0 0 47 33.03H3a.753.753 0 0 0-.188 0zm.938 1.938h42.5l1.469 5.062H2.28zm-1.719 7H47.97v2H2.03z"/></svg>