<svg xmlns="http://www.w3.org/2000/svg" viewBox="0 0 50 50"><path d="M25 3C12.285 3 2.937 13.594 2.937 25v7h4v-7c0-9.219 7.575-18 18.063-18 10.508 0 18 8.566 18 18v7h4v-7c0-11.566-9.309-22-22-22zm0 5C15.074 8 8 16.344 8 25v7h4v-7c0-6.469 5.328-13 13-13 7.703 0 12.938 6.305 12.938 13v7h4v-7c0-8.805-7.04-17-16.938-17zm0 5c-7.191 0-12 5.96-12 12v7h4v-7c0-3.96 2.992-8 8-8s8 4.04 8 8v7h4v-7c0-6.04-4.809-12-12-12zm0 5a6.914 6.914 0 0 0-5.281 2.469C18.566 21.844 18 23.434 18 25v7h4v-7c0-.434.258-1.344.781-1.969C23.305 22.406 23.957 22 25 22s1.695.406 2.219 1.031c.523.625.781 1.535.781 1.969v7h4v-7c0-1.566-.566-3.156-1.719-4.531A6.914 6.914 0 0 0 25 18zm0 5c-1.102 0-2 .898-2 2v7h4v-7c0-1.102-.898-2-2-2zM3 33.031a.96.96 0 0 0-.938.688L.282 40.03h49.437l-1.782-6.312A.961.961 0 0 0 47 33.03zM-.031 41.97V45c0 .574.457 1.031 1.031 1.031h48c.574 0 1.031-.457 1.031-1.031v-3.031z"/></svg>