<svg xmlns="http://www.w3.org/2000/svg" viewBox="0 0 40 40"><path d="M2.5 2.5h35v24h-35z" fill="#dff0fe"/><path d="M37 3v23H3V3h34m1-1H2v25h36z" fill="#4788c7"/><path d="M2 16h1v9H2z" fill="#98ccfd"/><path d="M1.5 29.5V28A1.5 1.5 0 0 1 3 26.5h34a1.5 1.5 0 0 1 1.5 1.5v1.5z" fill="#dff0fe"/><path d="M37 27c.55 0 1 .45 1 1v1H2v-1c0-.55.45-1 1-1h34m0-1H3a2 2 0 0 0-2 2v2h38v-2a2 2 0 0 0-2-2z" fill="#4788c7"/><path d="M5 5h30v21H5z" fill="#98ccfd"/><path d="M12.5 15c0 3.04-2.46 5.5-5.5 5.5S1.5 18.04 1.5 15 3.96 9.5 7 9.5s5.5 2.46 5.5 5.5z" fill="#fff"/><path d="M7 10c2.758 0 5 2.242 5 5s-2.242 5-5 5-5-2.242-5-5 2.242-5 5-5m0-1c-3.313 0-6 2.688-6 6 0 3.313 2.688 6 6 6 3.313 0 6-2.688 6-6 0-3.313-2.688-6-6-6z" fill="#4788c7"/><path d="M33 16.5c0 1.379-1.121 2.5-2.5 2.5a2.502 2.502 0 0 1-2.5-2.5c0-1.379 1.121-2.5 2.5-2.5s2.5 1.121 2.5 2.5zm-7 1c0 1.379-1.121 2.5-2.5 2.5a2.502 2.502 0 0 1-2.5-2.5c0-1.379 1.121-2.5 2.5-2.5s2.5 1.121 2.5 2.5z" fill="#fff"/><path d="M24 11.5h2v6l-2-.184zm7-1h2v6l-2-.184z" fill="#fff"/><path d="M33 11l-9 1V8l9-1z" fill="#fff"/><path d="M9 18.5c0-.828-.895-1.5-2-1.5s-2 .672-2 1.5.895 1.5 2 1.5 2-.672 2-1.5z" fill="#4788c7"/><path d="M15.5 26.5c-1.102 0-2-.898-2-2 0-1.102.898-2 2-2h6c1.102 0 2 .898 2 2 0 1.102-.898 2-2 2z" fill="#fff"/><path d="M21.5 23a1.5 1.5 0 0 1 0 3h-6a1.5 1.5 0 0 1 0-3h6m0-1h-6a2.507 2.507 0 0 0-2.5 2.5c0 1.375 1.125 2.5 2.5 2.5h6c1.375 0 2.5-1.125 2.5-2.5S22.875 22 21.5 22z" fill="#4788c7"/><path d="M1.5 38.5V27c0-2.48 2.02-4.5 4.5-4.5h14.5v4h-8v12z" fill="#b6dcfe"/><path d="M20 23v3h-8v12H2V27c0-2.207 1.793-4 4-4h14m1-1H6a5 5 0 0 0-5 5v12h12V27h8z" fill="#4788c7"/><path d="M5.418 23.059L7 27l1.602-4H6c-.2 0-.39.031-.582.059z" fill="#fff"/></svg>