<svg xmlns="http://www.w3.org/2000/svg" viewBox="0 0 64 64"><path d="M11 5h50v34H11z" fill="#72caaf"/><path d="M60 19.57L40.57 39h18.215L60 37.785zm0-12.14L28.43 39h7.285L60 14.715z" fill="#84d5b5"/><path d="M43 30c0-1.105-1.121-2-2.5-2s-2.5.895-2.5 2 1.121 2 2.5 2 2.5-.895 2.5-2zm10-2c0-1.105-1.121-2-2.5-2s-2.5.895-2.5 2 1.121 2 2.5 2 2.5-.895 2.5-2z" fill="#faefde"/><path d="M51.5 5l-34 34h6.07l34-34z" fill="#84d5b5"/><path d="M61 45H11a2 2 0 0 1-2-2v-2a2 2 0 0 1 2-2h50a2 2 0 0 1 2 2v2a2 2 0 0 1-2 2z" fill="#cda1a7"/><path d="M16 14a5 5 0 1 1-10 0 5 5 0 0 1 10 0z" fill="#faefde"/><path d="M18 41V29.625l2.465 1.664A10.017 10.017 0 0 0 26.059 33H30.5c1.383 0 2.5-1.117 2.5-2.5S31.883 28 30.5 28h-2.98a5 5 0 0 1-2.934-.95l-4.16-3.015c-.942-.683-2-1.2-3.121-1.52l-1.371-.39a14.308 14.308 0 0 0-7.864 0h-.004a9.99 9.99 0 0 0-5.058 3.367A9.14 9.14 0 0 0 1 31.211V40.5C1 41.883 2.117 43 3.5 43S6 41.883 6 40.5V29.668 41l-.855 18.863A3 3 0 0 0 8.14 63h.004a2.997 2.997 0 0 0 2.996-2.852L12 43l.855 17.148A3.002 3.002 0 0 0 15.852 63h.007a3 3 0 0 0 2.996-3.137z" fill="#85cbf8"/><path d="M62 38.23V7.06c0-1.66-1.352-3-3-3H13c-1.648 0-3 1.34-3 3v1.03A5.99 5.99 0 0 0 5 14a5.99 5.99 0 0 0 5 5.91v.8c-.75.09-1.488.24-2.21.45-2.2.63-4.13 1.91-5.56 3.711A10.155 10.155 0 0 0 0 31.211V40.5a3.504 3.504 0 0 0 4.879 3.219L4.14 59.82a3.953 3.953 0 0 0 1.109 2.942A3.972 3.972 0 0 0 8.148 64 3.995 3.995 0 0 0 12 61.078 3.995 3.995 0 0 0 15.852 64h.007a3.967 3.967 0 0 0 2.891-1.238 3.953 3.953 0 0 0 1.11-2.942l-.63-13.761H61c1.648 0 3-1.348 3-3v-2c0-1.309-.84-2.418-2-2.829zM7 14c0-1.86 1.27-3.43 3-3.871.32-.09.648-.129 1-.129s.68.04 1 .129c1.73.441 3 2.012 3 3.871 0 1.86-1.27 3.43-3 3.871-.32.09-.648.129-1 .129s-.68-.04-1-.129A3.994 3.994 0 0 1 7 14zm10.86 45.91c.019.55-.169 1.07-.551 1.469a1.976 1.976 0 0 1-1.45.621h-.007a1.99 1.99 0 0 1-1.993-1.898l-.699-14.043-.101-2-.059-1.11A1.008 1.008 0 0 0 12 42c-.531 0-.969.422-1 .95l-.059 1.1-.101 2-.7 14.052a1.992 1.992 0 0 1-2 1.898c-.55 0-1.07-.219-1.449-.621a1.987 1.987 0 0 1-.55-1.469L7 41V29.672c0-.563-.45-1-1-1s-1 .437-1 1V40.5a1.5 1.5 0 0 1-3 0v-9.29c0-1.839.629-3.651 1.79-5.089a8.987 8.987 0 0 1 4.55-3.043c.55-.156 1.101-.27 1.66-.348.66-.101 1.328-.152 2-.152 1.238 0 2.469.16 3.66.5l1.371.402c1.008.29 1.957.75 2.809 1.36L24 27.86A6 6 0 0 0 27.52 29h2.98a1.5 1.5 0 0 1 0 3h-4.441a9.005 9.005 0 0 1-5.04-1.54l-2.46-1.66c-.309-.21-.7-.23-1.028-.062a1.013 1.013 0 0 0-.531.883v11.43l.14 3.008.09 2zM62 43.06c0 .55-.45 1-1 1H19.14L19 41v-9.488l.91.61A10.943 10.943 0 0 0 26.06 34h4.44c1.93 0 3.5-1.57 3.5-3.5S32.43 27 30.5 27h-2.98c-.848 0-1.66-.262-2.348-.762l-4.16-3.02a11.161 11.161 0 0 0-3.434-1.667l-1.367-.39A15.366 15.366 0 0 0 12 20.577v-.668a5.99 5.99 0 0 0 4.594-8.07.976.976 0 0 0 .406-.781v-2c0-.555-.445-1-1-1-.555 0-1 .445-1 1v.492a5.96 5.96 0 0 0-3-1.461v-1.03c0-.547.45-1 1-1h46c.55 0 1 .453 1 1v31H30a1 1 0 1 0 0 2h31c.55 0 1 .453 1 1z" fill="#8d6c9f"/><path d="M51 12.059a1 1 0 0 0 1-1v-2c0-.555-.445-1-1-1-.555 0-1 .445-1 1v2a1 1 0 0 0 1 1zm-5 0a1 1 0 0 0 1-1v-2c0-.555-.445-1-1-1-.555 0-1 .445-1 1v2a1 1 0 0 0 1 1zm10 0a1 1 0 0 0 1-1v-2c0-.555-.445-1-1-1-.555 0-1 .445-1 1v2a1 1 0 0 0 1 1zm-15 0a1 1 0 0 0 1-1v-2c0-.555-.445-1-1-1-.555 0-1 .445-1 1v2a1 1 0 0 0 1 1zm-5 0a1 1 0 0 0 1-1v-2c0-.555-.445-1-1-1-.555 0-1 .445-1 1v2a1 1 0 0 0 1 1zm-5-4c-.555 0-1 .445-1 1v2a1 1 0 1 0 2 0v-2c0-.555-.445-1-1-1zm-5 0c-.555 0-1 .445-1 1v2a1 1 0 1 0 2 0v-2c0-.555-.445-1-1-1zm-5 0c-.555 0-1 .445-1 1v2a1 1 0 1 0 2 0v-2c0-.555-.445-1-1-1zm5 30h-4a1 1 0 1 0 0 2h4a1 1 0 1 0 0-2z" fill="#8d6c9f"/><path d="M40.5 33c1.93 0 3.5-1.348 3.5-3 0-.09-.023-.176-.031-.262.008-.05.031-.097.031-.152V19.82l8-1.601V25.3a3.924 3.924 0 0 0-1.5-.301c-1.93 0-3.5 1.348-3.5 3s1.57 3 3.5 3 3.5-1.348 3.5-3V17a1 1 0 0 0-1.195-.98l-10 2A1 1 0 0 0 42 19v8.3c-.457-.187-.96-.3-1.5-.3-1.93 0-3.5 1.348-3.5 3s1.57 3 3.5 3zm10-4c-.8 0-1.5-.469-1.5-1s.7-1 1.5-1 1.5.469 1.5 1-.7 1-1.5 1zm-10 0c.8 0 1.5.469 1.5 1s-.7 1-1.5 1-1.5-.469-1.5-1 .7-1 1.5-1z" fill="#faefde"/></svg>