<svg xmlns="http://www.w3.org/2000/svg" viewBox="0 0 50 50"><path d="M4 6a1 1 0 0 0-1 1v36a1 1 0 0 0 1 1h42a1 1 0 0 0 1-1V7a1 1 0 0 0-1-1zm31.012 6.938a.984.984 0 0 1 .718.253C39.078 16.234 41 20.54 41 25c0 4.46-1.922 8.766-5.27 11.805a1.003 1.003 0 0 1-1.414-.07 1 1 0 0 1 .07-1.41C37.364 32.624 39 28.956 39 25c0-3.957-1.64-7.625-4.613-10.324a1.004 1.004 0 0 1-.07-1.414 1.01 1.01 0 0 1 .695-.325zm-20.024 0a1 1 0 0 1 .625 1.738C12.637 17.375 11 21.043 11 25s1.64 7.625 4.613 10.324a1 1 0 0 1-1.343 1.48C10.922 33.767 9 29.465 9 25c0-4.46 1.922-8.766 5.27-11.805.203-.183.464-.27.718-.258zm4.028 4.425a1 1 0 0 1 .621 1.738C17.937 20.646 17 22.739 17 25s.938 4.355 2.637 5.898a1 1 0 0 1-1.344 1.48A9.988 9.988 0 0 1 15 25c0-2.79 1.2-5.48 3.293-7.379a1.01 1.01 0 0 1 .723-.258zm11.972 0a1.01 1.01 0 0 1 .719.258C33.801 19.52 35 22.211 35 25c0 2.79-1.2 5.48-3.293 7.379a.992.992 0 0 1-1.41-.066 1 1 0 0 1 .066-1.415C32.063 29.355 33 27.262 33 25c0-2.262-.938-4.355-2.637-5.898a1 1 0 0 1 .625-1.739zM25 21c2.207 0 4 1.793 4 4s-1.793 4-4 4-4-1.793-4-4 1.793-4 4-4zm0 2a1.999 1.999 0 1 0 0 4 1.999 1.999 0 1 0 0-4z"/></svg>