<svg xmlns="http://www.w3.org/2000/svg" viewBox="0 0 50 50"><path style="line-height:normal;text-indent:0;text-align:start;text-decoration-line:none;text-decoration-style:solid;text-decoration-color:#000;text-transform:none;block-progression:tb;isolation:auto;mix-blend-mode:normal" d="M12.01 8c-6.064 0-11 4.937-11 11v22a1 1 0 0 0 1 1H38c6.063 0 11-4.937 11-11V9a1 1 0 0 0-1-1H12.01zm0 2H47v21c0 4.983-4.017 9-9 9H3.01V19c0-4.983 4.017-9 9-9zm2.355 8.734c-2.55 0-4.263 1.391-4.263 3.461 0 1.72.964 2.73 3.128 3.278l1.502.39c1.557.391 2.252.982 2.252 1.916 0 1.094-1.098 1.889-2.611 1.889-1.611 0-2.717-.727-2.887-1.898l-.015-.108H9.752l.01.135c.16 2.097 1.915 3.45 4.474 3.45 2.733 0 4.5-1.431 4.5-3.647 0-1.786-1.013-2.769-3.494-3.391l-1.226-.324c-1.556-.4-2.162-.887-2.162-1.739 0-1.118.967-1.84 2.464-1.84 1.393 0 2.34.676 2.532 1.811l.015.106h1.71l-.01-.133c-.128-1.976-1.855-3.356-4.2-3.356zm5.87.266v1.72H24V31h1.838V20.72h3.683V19h-9.287zm10.954 0v12H33v-4.65h2.684L38.19 31h1.998l-2.742-4.932c1.442-.518 2.297-1.792 2.297-3.441 0-2.169-1.55-3.627-3.857-3.627h-4.698zM33 20.553h2.691c1.437 0 2.295.794 2.295 2.123 0 1.369-.791 2.12-2.228 2.12H33v-4.243z" font-weight="400" font-family="sans-serif" white-space="normal" overflow="visible"/></svg>