<svg xmlns="http://www.w3.org/2000/svg" viewBox="0 0 48 48"><path d="M14.602 4H13.5c-.3 0-.5-.2-.5-.5s.2-.5.5-.5h1.102zM14.5 5h-1c-.3 0-.5.2-.5.5s.2.5.5.5h1zm0 2h-1c-.3 0-.5.2-.5.5s.2.5.5.5h1zm5-3h1c.3 0 .5-.2.5-.5s-.2-.5-.5-.5h-1zm0 2h1c.3 0 .5-.2.5-.5s-.2-.5-.5-.5h-1zm0 2h1c.3 0 .5-.2.5-.5s-.2-.5-.5-.5h-1z" fill="#5d4037"/><path d="M25.2 28.102c0-1.903 1-4.704.6-6.301C24.8 17.699 19.5 18 17 18c-2.602 0-7.8-.398-8.8 3.8-.4 1.598.6 4.4.6 6.302C8.8 31.199 5 33.898 5 38.3c0 2.097.602 3.898 1.898 5.097C9.102 45.5 12.5 46 17 45.898c4.5.102 7.898-.398 10.102-2.5C28.398 42.102 29 40.301 29 38.301c0-4.403-3.8-7.102-3.8-10.2z" fill="#ff9800"/><path d="M43 12s-3.7-1.41-8-1.41S27 12 27 12l1.898 24.102S31.426 39 36 39s5.398-3.3 5.102-3.8z" fill="#00838f"/><path d="M35 10c-4.234 0-8 2-8 2l.227 2.898C28.129 14.5 31.3 13.04 35 13.04c3.7 0 6.863 1.461 7.762 1.86L43 12s-3.766-2-8-2zm-3 26c-1.2-1.3 1-6 1-6-2.8-.602-4.102-1.3-4.7-1.7l.598 7.802L26 39l-5 2-1.602-.578c-.796-.3-2.007.02-2.195 1.383 0 0 .996 1.496 1.797 2.195.8.7 4.3.934 7 .934S33.898 42 36 42h5s1-1.5 1-3.234c0-2-.602-3.067-.898-3.567 0 0-6.704 3.5-9.102.801zm3 0c.602 0 1-.398 1-1s-.398-1-1-1-1 .398-1 1 .398 1 1 1zm4-2c0-.602-.398-1-1-1s-1 .398-1 1 .398 1 1 1 1-.398 1-1zm-4-1c.602 0 1-.398 1-1s-.398-1-1-1-1 .398-1 1 .398 1 1 1z" fill="#00bcd4"/><path d="M21 34v2h-1c0 .5-.5 1-1 1h-4c-.5 0-1-.5-1-1h-1v-2zm-2-24h-4v16h4z" fill="#5d4037"/><path d="M20 28a3 3 0 1 1-6.002-.002A3 3 0 0 1 20 28z" fill="#3e2723"/><path d="M20 3c0-.602-.398-1-1-1h-4c-.602 0-1 .398-1 1v6c0 .602.398 1 1 1h4c.602 0 1-.398 1-1zm-4 5.5c0 .3-.2.5-.5.5s-.5-.2-.5-.5v-5c0-.3.2-.5.5-.5s.5.2.5.5zm3 0c0 .3-.3.5-.5.5s-.5-.2-.5-.5v-5c0-.3.2-.5.5-.5s.5.2.5.5z" fill="#c16629"/><path d="M34 8h3v7h-3z" fill="#006064"/><path d="M33.7 41s-4.325 3-5.802 3H23c-1.8-.2-4.7-1.102-5.8-2.2l-.813 1.61C18.918 45.445 21.945 46 23 46h5.3c1.302 0 4.302-2 5.7-2.8V46h6.48l1-5z" fill="#6d4c41"/></svg>