<svg xmlns="http://www.w3.org/2000/svg" viewBox="0 0 50 50"><path d="M25 7C15.079 7 7 15.079 7 25s8.079 18 18 18 18-8.079 18-18S34.921 7 25 7zm0 33.882c-8.756 0-15.882-7.126-15.882-15.882S16.244 9.118 25 9.118 40.882 16.244 40.882 25 33.756 40.882 25 40.882zM25 17c-4.41 0-8 3.59-8 8s3.59 8 8 8 8-3.59 8-8-3.59-8-8-8zm0 14c-3.31 0-6-2.69-6-6s2.69-6 6-6 6 2.69 6 6-2.69 6-6 6zm18.229 6.31A21.89 21.89 0 0 0 47 25c0-4.557-1.393-8.8-3.771-12.31l1.77-1.77a4.186 4.186 0 0 0-5.919-5.919l-1.77 1.77C33.8 4.393 29.557 3 25 3s-8.8 1.393-12.31 3.771l-1.77-1.77a4.186 4.186 0 0 0-5.919 5.919l1.77 1.77A21.89 21.89 0 0 0 3 25c0 4.557 1.393 8.8 3.771 12.31l-1.77 1.77a4.186 4.186 0 0 0 5.919 5.919l1.77-1.77C16.2 45.607 20.443 47 25 47s8.8-1.393 12.31-3.771l1.77 1.77a4.149 4.149 0 0 0 2.954 1.226 4.186 4.186 0 0 0 2.965-7.145l-1.77-1.77zm.293 6.212a2.1 2.1 0 0 1-2.965 0l-1.561-1.561-1.488-1.488c-.272.231-.555.44-.849.65h-.01a19.752 19.752 0 0 1-11.65 3.782 19.762 19.762 0 0 1-11.817-3.897c-.23-.168-.461-.346-.681-.534l-1.498 1.488-1.561 1.561a2.1 2.1 0 0 1-2.965 0 2.1 2.1 0 0 1 0-2.965l1.561-1.561 1.488-1.477v-.01a10.657 10.657 0 0 1-.283-.367C6.646 33.779 5.095 29.568 5.095 25s1.55-8.779 4.149-12.142c.094-.126.189-.251.283-.367l-1.488-1.488-1.561-1.56a2.1 2.1 0 0 1 0-2.965 2.1 2.1 0 0 1 2.965 0l3.049 3.049c.084-.073.168-.136.262-.21h.01A19.741 19.741 0 0 1 25 5.095c4.442 0 8.559 1.467 11.87 3.939.22.157.429.325.639.492l3.049-3.049a2.1 2.1 0 0 1 2.965 0 2.1 2.1 0 0 1 0 2.965l-1.561 1.561-1.488 1.488.461.597.01.01a19.807 19.807 0 0 1 3.96 11.901 19.71 19.71 0 0 1-3.771 11.639c-.21.293-.43.587-.66.859l1.488 1.498 1.561 1.561a2.102 2.102 0 0 1-.001 2.966zM9.527 12.481v.01l-1.488-1.488 1.488 1.478zM27 26a1 1 0 0 1-1-1 1.001 1.001 0 0 0-2 0 1 1 0 1 1-2 0c0-1.654 1.346-3 3-3s3 1.346 3 3a1 1 0 0 1-1 1z"/></svg>