<svg xmlns="http://www.w3.org/2000/svg" viewBox="0 0 48 48"><path d="M34 12H12c3.102-2.5 3.8-5.398 4-6.898.102-.704.602-1.204 1.2-1.403C18.5 3.4 20.601 3 23 3c2.398 0 4.5.398 5.8.7.7.1 1.2.698 1.2 1.402.2 1.5.898 4.398 4 6.898zm0 24H12c3.102 2.5 3.8 5.398 4 6.898.102.704.602 1.204 1.2 1.403 1.3.3 3.402.699 5.8.699 2.398 0 4.5-.398 5.8-.7.7-.1 1.098-.698 1.2-1.402.2-1.5.898-4.398 4-6.898z" fill="#37474f"/><path d="M30 38H16c-2.8 0-5-2.3-5-5V15c0-2.8 2.3-5 5-5h14c2.8 0 5 2.3 5 5v18c0 2.8-2.2 5-5 5z" fill="#c5cae9"/><path d="M29.7 36H16.3c-1.8 0-3.3-1.5-3.3-3.3V15.3c0-1.8 1.5-3.3 3.3-3.3h13.4c1.8 0 3.3 1.5 3.3 3.3v17.4c0 1.8-1.5 3.3-3.3 3.3z" fill="#263238"/><path d="M13.3 14c.302.602 1 1 1.7 1h16c.7 0 1.398-.398 1.7-1-.5-1.2-1.7-2-3-2H16.3c-1.3 0-2.5.8-3 2z" fill="#455a64"/><path d="M35 22c1.063 0 1-1 1-1v-4s.063-1-1-1c-.824 0-1 2.031-1 3 0 .969.176 3 1 3z" fill="#9fa8da"/></svg>