<svg xmlns="http://www.w3.org/2000/svg" viewBox="0 0 64 64"><path d="M61 11v42a2 2 0 0 1-2 2H5a2 2 0 0 1-2-2V11a2 2 0 0 1 2-2h54a2 2 0 0 1 2 2z" fill="#85cbf8"/><path d="M36.18 54.5L61 29.68V11a2 2 0 0 0-2-2h-.57l-45.5 45.5zM3 45.398L39.398 9h-2.277L3 43.121zM43.684 9L2 50.684V53c0 .934.645 1.715 1.512 1.934L7.398 55l46-46z" fill="#9fddff"/><path d="M24.102 27.746l1.238 2.266 2.262 1.234-2.262 1.238-1.238 2.266-1.239-2.266-2.265-1.238 2.265-1.234zM48 17.145l.855 1.562 1.563.855-1.563.856L48 21.98l-.855-1.562-1.563-.855 1.563-.856zM36.86 37.684l.581 1.066 1.067.582-1.067.582-.582 1.066-.582-1.066-1.066-.582 1.066-.582z" fill="#fff8f8"/><path d="M21 15H9v12h4v-8h8zm22 28h12V31h-4v8h-8z" fill="#faefde"/><path d="M59 8H5c-1.652 0-3 1.348-3 3v42c0 1.652 1.348 3 3 3h54c1.652 0 3-1.348 3-3V11c0-1.652-1.348-3-3-3zm1 45c0 .55-.45 1-1 1H5c-.55 0-1-.45-1-1V11c0-.55.45-1 1-1h54c.55 0 1 .45 1 1z" fill="#8d6c9f"/><path d="M7 48a1 1 0 0 0-1 1v2a1 1 0 1 0 2 0v-2a1 1 0 0 0-1-1zm5 0a1 1 0 0 0-1 1v2a1 1 0 1 0 2 0v-2a1 1 0 0 0-1-1zm5 0a1 1 0 0 0-1 1v2a1 1 0 1 0 2 0v-2a1 1 0 0 0-1-1zm5 0a1 1 0 0 0-1 1v2a1 1 0 1 0 2 0v-2a1 1 0 0 0-1-1zm5 0a1 1 0 0 0-1 1v2a1 1 0 1 0 2 0v-2a1 1 0 0 0-1-1zm5 0a1 1 0 0 0-1 1v2a1 1 0 1 0 2 0v-2a1 1 0 0 0-1-1zm5 0a1 1 0 0 0-1 1v2a1 1 0 1 0 2 0v-2a1 1 0 0 0-1-1zm5 0a1 1 0 0 0-1 1v2a1 1 0 1 0 2 0v-2a1 1 0 0 0-1-1zm5 0a1 1 0 0 0-1 1v2a1 1 0 1 0 2 0v-2a1 1 0 0 0-1-1zm5 0a1 1 0 0 0-1 1v2a1 1 0 1 0 2 0v-2a1 1 0 0 0-1-1zm5 0a1 1 0 0 0-1 1v2a1 1 0 1 0 2 0v-2a1 1 0 0 0-1-1zM22 19v-4a1 1 0 0 0-1-1H9a1 1 0 0 0-1 1v12a1 1 0 0 0 1 1h4a1 1 0 0 0 1-1v-7h7a1 1 0 0 0 1-1zm-2-1h-7a1 1 0 0 0-1 1v7h-2V16h10zm36 13a1 1 0 0 0-1-1h-4a1 1 0 0 0-1 1v7h-7a1 1 0 0 0-1 1v4a1 1 0 0 0 1 1h12a1 1 0 0 0 1-1zm-2 11H44v-2h7a1 1 0 0 0 1-1v-7h2z" fill="#8d6c9f"/></svg>