<svg xmlns="http://www.w3.org/2000/svg" viewBox="0 0 16 16"><path style="line-height:normal;text-indent:0;text-align:start;text-decoration-line:none;text-decoration-style:solid;text-decoration-color:#000;text-transform:none;block-progression:tb;isolation:auto;mix-blend-mode:normal" d="M12.484 1a.5.5 0 0 0-.338.146l-11 11A.5.5 0 0 0 1.5 13H8v-1H2.707L12 2.707V8h1V1.5a.5.5 0 0 0-.516-.5zM12 9v1.055a2.475 2.475 0 0 0-.87.369l-.776-.778-.708.708.776.775a2.479 2.479 0 0 0-.371.871H9v1h1.05v.002c.066.317.198.608.372.87l-.776.774.708.708.775-.776c.262.174.554.302.871.367V16h1v-1.05h.002c.307-.064.59-.187.846-.352l.78.863.743-.672-.805-.887c.183-.268.316-.574.383-.902H16v-1h-1.05v-.002a2.482 2.482 0 0 0-.364-.87l.764-.751-.7-.713-.77.756a2.493 2.493 0 0 0-.88-.37V9h-1zm.5 2c.834 0 1.5.666 1.5 1.5s-.666 1.5-1.5 1.5-1.5-.666-1.5-1.5.666-1.5 1.5-1.5z"/></svg>