<svg xmlns="http://www.w3.org/2000/svg" viewBox="0 0 50 50"><path d="M15 3c-1.652 0-3 1.348-3 3v10.09l2-2.235V9h22v4.855l2 2.235V6c0-1.652-1.348-3-3-3zm0 2h20c.55 0 1 .45 1 1v1H14V6c0-.55.45-1 1-1zm1.254 9.332L7.156 24.5l9.098 10.168 1.492-1.336L9.844 24.5l7.902-8.832zm17.492 0l-1.492 1.336 7.902 8.832-7.902 8.832 1.492 1.336L42.844 24.5zM12 32.91V44c0 1.652 1.348 3 3 3h20c1.652 0 3-1.348 3-3V32.91l-2 2.235V39H14v-3.855zM14 41h22v3c0 .55-.45 1-1 1H15c-.55 0-1-.45-1-1zm8 1a1.006 1.006 0 0 0-.879.496 1.01 1.01 0 0 0 0 1.008c.184.312.52.5.879.496h6c.36.004.695-.184.879-.496a1.01 1.01 0 0 0 0-1.008c-.184-.312-.52-.5-.879-.496z"/></svg>