<svg xmlns="http://www.w3.org/2000/svg" viewBox="0 0 64 64"><path d="M21 0c-3.86 0-7 3.14-7 7v16.578L8.29 29.29a1.01 1.01 0 0 0 0 1.422L14 36.42V57c0 3.86 3.14 7 7 7h22c3.86 0 7-3.14 7-7V36.422l5.71-5.711a1.01 1.01 0 0 0 0-1.422L50 23.58V7c0-3.86-3.14-7-7-7zm0 2h22a5 5 0 0 1 5 5v1H16V7a5 5 0 0 1 5-5zm6 2a1 1 0 1 0 0 2h2a1 1 0 1 0 0-2zm6 0a1 1 0 1 0 0 2h4a1 1 0 1 0 0-2zm-17 6h32v11.578l-5.29-5.289a1.01 1.01 0 0 0-1.42 0l-3 3a1.01 1.01 0 0 0 0 1.422L47.59 30l-9.3 9.29a1.01 1.01 0 0 0 0 1.42l3 3a1.015 1.015 0 0 0 1.42 0L48 38.423V52H16V38.422l5.29 5.289a1.015 1.015 0 0 0 1.42 0l3-3a1.01 1.01 0 0 0 0-1.422L16.41 30l9.3-9.29a1.01 1.01 0 0 0 0-1.42l-3-3a1.01 1.01 0 0 0-1.42 0L16 21.577zm6 8.41L23.59 20 16 27.578l-1.71 1.711A1 1 0 0 0 14 30c0 .262.098.52.29.71L16 32.423 23.59 40 22 41.59 10.41 30zm20 0L53.59 30 42 41.59 40.41 40 48 32.422l1.71-1.711A1 1 0 0 0 50 30a.995.995 0 0 0-.29-.71L48 27.577 40.41 20zM19 46a1 1 0 0 0-1 1v2a1 1 0 1 0 2 0v-2a1 1 0 0 0-1-1zm5 0a1 1 0 0 0-1 1v2a1 1 0 1 0 2 0v-2a1 1 0 0 0-1-1zm5 0a1 1 0 0 0-1 1v2a1 1 0 1 0 2 0v-2a1 1 0 0 0-1-1zm6 0a1 1 0 0 0-1 1v2a1 1 0 1 0 2 0v-2a1 1 0 0 0-1-1zm5 0a1 1 0 0 0-1 1v2a1 1 0 1 0 2 0v-2a1 1 0 0 0-1-1zm5 0a1 1 0 0 0-1 1v2a1 1 0 1 0 2 0v-2a1 1 0 0 0-1-1zm-29 8h32v3a5 5 0 0 1-5 5H21a5 5 0 0 1-5-5zm16 2a1.999 1.999 0 1 0 0 4 1.999 1.999 0 1 0 0-4z"/></svg>