<svg xmlns="http://www.w3.org/2000/svg" viewBox="0 0 26 26"><path d="M13 4a12.01 12.01 0 0 0-10.406 6 1.006 1.006 0 0 0 .375 1.375c.484.277 1.097.11 1.375-.375A9.973 9.973 0 0 1 13 6c3.71 0 6.93 2.008 8.656 5 .278.484.89.652 1.375.375s.653-.89.375-1.375A12.01 12.01 0 0 0 13 4zm0 4c-4.406 0-8 3.594-8 8-.004.36.184.695.496.879.313.18.695.18 1.008 0 .312-.184.5-.52.496-.879 0-3.324 2.676-6 6-6s6 2.676 6 6c-.004.36.184.695.496.879.313.18.695.18 1.008 0 .312-.184.5-.52.496-.879 0-4.406-3.594-8-8-8zm0 4c-2.21 0-4 1.79-4 4s1.79 4 4 4 4-1.79 4-4-1.79-4-4-4z"/></svg>