<svg xmlns="http://www.w3.org/2000/svg" viewBox="0 0 26 26"><path d="M15.203 17.137h-.094c-.718 2.02-2.02 3.027-3.91 3.027-1.418 0-2.558-.527-3.426-1.586-.87-1.055-1.304-2.52-1.304-4.39 0-2.418.601-4.387 1.804-5.907 1.2-1.515 2.649-2.273 4.34-2.273 1.532 0 2.492.617 2.883 1.855h.063l.152-1.57h3.465c-.461 4.504-.696 7.445-.696 8.832 0 1.48.391 2.219 1.172 2.219.825 0 1.5-.563 2.035-1.68.532-1.121.801-2.586.801-4.39 0-2.473-.765-4.5-2.297-6.083-1.53-1.578-3.664-2.37-6.406-2.37-2.937 0-5.379 1.054-7.324 3.163-1.945 2.11-2.918 4.68-2.918 7.715 0 2.938.86 5.25 2.578 6.942 1.723 1.691 4.094 2.539 7.125 2.539 2.313 0 4.426-.453 6.348-1.364v3.028c-1.758.77-4.016 1.156-6.778 1.156-3.793 0-6.875-1.117-9.25-3.352C1.188 20.41 0 17.406 0 13.633c0-3.848 1.27-7.078 3.805-9.7C6.34 1.314 9.605 0 13.602 0c3.695 0 6.687 1.016 8.972 3.05C24.86 5.087 26 7.77 26 11.099c0 2.738-.7 4.933-2.094 6.59-1.398 1.652-3.129 2.48-5.191 2.48-1.016 0-1.844-.281-2.48-.84-.637-.562-.981-1.293-1.032-2.191zm-2.05-8.371c-.923 0-1.676.543-2.255 1.625-.582 1.086-.87 2.34-.87 3.765 0 1.016.199 1.805.593 2.371.395.567.902.848 1.531.848.965 0 1.727-.531 2.282-1.602.55-1.066.828-2.492.828-4.277 0-.848-.192-1.512-.578-2-.383-.484-.895-.73-1.532-.73z"/></svg>