<svg xmlns="http://www.w3.org/2000/svg" viewBox="0 0 64 64"><path d="M4.66 41h56v16h-56z" fill="#c2cde7"/><path d="M8.66 49h48a4 4 0 0 1 4 4v4h-56v-4c0-2.21 1.79-4 4-4z" fill="#b5c4e0"/><path d="M60.66 41h-56l6-34h44z" fill="#ced8ed"/><path d="M55.719 13L54.66 7h-44l-1.058 6z" fill="#dae2ef"/><path d="M15 49a1.999 1.999 0 1 1-4 0 1.999 1.999 0 1 1 4 0z" fill="#ed7899"/><path d="M61.922 40.48l-5.652-32a2.997 2.997 0 0 0-3-2.48H12.68a2.997 2.997 0 0 0-3 2.48l-5.649 32a4.985 4.985 0 0 0-.082.872V55a3 3 0 0 0 3 3H59a3 3 0 0 0 3-3V41.352c0-.293-.027-.586-.078-.872zM11.692 8.828a.997.997 0 0 1 1-.828H53.32a.997.997 0 0 1 1 .828L59.81 40H6.19zM59 56H7c-.55 0-1-.45-1-1V42h54v13c0 .55-.45 1-1 1z" fill="#8d6c9f"/><path d="M35 47c-.55 0-1 .45-1 1v2c0 .55.45 1 1 1s1-.45 1-1v-2c0-.55-.45-1-1-1zm5 0c-.55 0-1 .45-1 1v2c0 .55.45 1 1 1s1-.45 1-1v-2c0-.55-.45-1-1-1zm5 0c-.55 0-1 .45-1 1v2c0 .55.45 1 1 1s1-.45 1-1v-2c0-.55-.45-1-1-1zm5 0c-.55 0-1 .45-1 1v2c0 .55.45 1 1 1s1-.45 1-1v-2c0-.55-.45-1-1-1zm5 0c-.55 0-1 .45-1 1v2c0 .55.45 1 1 1s1-.45 1-1v-2c0-.55-.45-1-1-1zm-42-1a3 3 0 1 0 .002 6.002A3 3 0 0 0 13 46zm0 4c-.55 0-1-.45-1-1s.45-1 1-1 1 .45 1 1-.45 1-1 1zm10-2h-4c-.55 0-1 .45-1 1s.45 1 1 1h4c.55 0 1-.45 1-1s-.45-1-1-1zm9.29-18.29a1 1 0 0 0 1.41 0l5-5c.34-.398.316-.987-.052-1.358a1.004 1.004 0 0 0-1.359-.051L34 26.59V13c0-.55-.45-1-1-1s-1 .45-1 1v13.59l-3.29-3.29a1.004 1.004 0 0 0-1.358.052c-.368.37-.391.96-.051 1.359z" fill="#8d6c9f"/><path d="M23 36h20a3 3 0 0 0 3-3v-4c0-.55-.45-1-1-1s-1 .45-1 1v4c0 .55-.45 1-1 1H23c-.55 0-1-.45-1-1v-4c0-.55-.45-1-1-1s-1 .45-1 1v4a3 3 0 0 0 3 3z" fill="#8d6c9f"/></svg>