<svg xmlns="http://www.w3.org/2000/svg" viewBox="0 0 50 50"><path d="M24.781 2.938A2 2 0 0 0 23 4.967v23.72l-3.594-3.594a1.998 1.998 0 0 0-3.32.742 1.995 1.995 0 0 0 .508 2.102L25 36.343l8.406-8.407a2.003 2.003 0 0 0-.863-3.382c-.7-.188-1.445.02-1.95.539L27 28.687V4.97a2 2 0 0 0-2.031-2.032 1.502 1.502 0 0 0-.188 0zM2 36v5.688c0 1.476.45 2.906 1.5 3.906S5.996 47 7.438 47h35.156c1.46 0 2.906-.414 3.937-1.438C47.563 44.54 48 43.06 48 41.594V36h-4v5.594c0 .734-.156 1.004-.281 1.125-.125.12-.387.281-1.125.281H7.437c-.757 0-1.035-.168-1.156-.281-.12-.114-.281-.305-.281-1.032V36z"/></svg>