<svg xmlns="http://www.w3.org/2000/svg" viewBox="0 0 40 40"><polygon points="28.675,13.632 26.368,11.325 23.239,14.454 21,12.214 21,19 27.786,19 25.546,16.761" fill="#c74343"/><circle cx="32" cy="8" r="6.5" fill="#8bb7f0"/><path d="M32 2c3.308 0 6 2.692 6 6s-2.692 6-6 6-6-2.692-6-6 2.692-6 6-6m0-1a7 7 0 1 0 0 14 7 7 0 0 0 0-14z" fill="#4e7ab5"/><polygon points="11.325,26.368 13.632,28.675 16.761,25.546 19,27.786 19,21 12.214,21 14.454,23.239" fill="#c74343"/><circle cx="8" cy="32" r="6.5" fill="#8bb7f0"/><path d="M8 26c3.308 0 6 2.692 6 6s-2.692 6-6 6-6-2.692-6-6 2.692-6 6-6m0-1a7 7 0 1 0 0 14 7 7 0 0 0 0-14z" fill="#4e7ab5"/></svg>