<svg xmlns="http://www.w3.org/2000/svg" viewBox="0 0 50 50"><path d="M12 3c-1.645 0-3 1.355-3 3v2.832a.904.904 0 0 0 0 .324v30.676a.904.904 0 0 0 0 .324V44c0 1.645 1.355 3 3 3h20c1.645 0 3-1.355 3-3v-3.832a.904.904 0 0 0 0-.324V32h9c1.64 0 3-1.355 3-3V17.098A3.112 3.112 0 0 0 43.906 14H35V9.168a.904.904 0 0 0 0-.324V6c0-1.645-1.355-3-3-3zm0 2h20c.555 0 1 .445 1 1v2H11V6c0-.555.445-1 1-1zm-1 5h22v4h-7.906A3.111 3.111 0 0 0 22 17.098V29c0 1.645 1.36 3 3 3h1.871c-.047.328-.043.79-.137 1-.18.426-.449.742-1.113 1.14a1 1 0 1 0 .516 1.86c2.23 0 4.996-1.043 6.425-4H33v7H11zm14.094 6h8.738c.11.02.219.02.324 0h9.75c.606 0 1.094.488 1.094 1.098V29c0 .664-.34 1-1 1H32a.996.996 0 0 0-.938.656c-.558 1.524-1.445 2.309-2.433 2.774.25-.746.371-1.516.371-2.43 0-.55-.45-1-1-1h-3c-.66 0-1-.336-1-1V17.098c0-.61.488-1.098 1.094-1.098zM35 18a1.002 1.002 0 0 0-.984 1.18A2.99 2.99 0 0 0 32 22v3c0 .55-.45 1-1 1v1h3c0 .55.45 1 1 1s1-.45 1-1h3v-1c-.55 0-1-.45-1-1v-3a2.992 2.992 0 0 0-2.016-2.824c.008-.059.016-.117.016-.176 0-.55-.45-1-1-1zM11 41h22v3c0 .555-.445 1-1 1H12c-.555 0-1-.445-1-1zm8 1a1.006 1.006 0 0 0-.879.496 1.01 1.01 0 0 0 0 1.008c.184.312.52.5.879.496h6c.36.004.695-.184.879-.496a1.01 1.01 0 0 0 0-1.008c-.184-.312-.52-.5-.879-.496z"/></svg>