<svg xmlns="http://www.w3.org/2000/svg" viewBox="0 0 64 64"><linearGradient id="a" gradientUnits="userSpaceOnUse" x1="41" y1="10.417" x2="41" y2="23.236" spreadMethod="reflect"><stop offset="0" stop-color="#6dc7ff"/><stop offset="1" stop-color="#e6abff"/></linearGradient><path d="M45.535 18.885A1 1 0 0 1 45 18v-3a2 2 0 0 0-2-2h-1v-1a1 1 0 0 0-2 0v1h-1a2 2 0 0 0-2 2v3a1 1 0 0 1-.535.886c-.303.159-.465.499-.465.841v.274c0 .552.447.999.999.999H39a2 2 0 0 0 4 0h2a1 1 0 0 0 1-1v-.273c0-.342-.162-.682-.465-.842z" fill="url(#a)"/><linearGradient id="b" gradientUnits="userSpaceOnUse" x1="32" y1="4.833" x2="32" y2="58.566" spreadMethod="reflect"><stop offset="0" stop-color="#1a6dff"/><stop offset="1" stop-color="#c822ff"/></linearGradient><path d="M53 6H29c-1.654 0-3 1.346-3 3v3H13c-1.654 0-3 1.346-3 3v5h-.5c-.827 0-1.5.673-1.5 1.5v3c0 .827.673 1.5 1.5 1.5h.5v4h-.5c-.827 0-1.5.673-1.5 1.5v3c0 .827.673 1.5 1.5 1.5h.5v19c0 1.654 1.346 3 3 3h28c1.654 0 3-1.346 3-3V28h9c1.654 0 3-1.346 3-3V9c0-1.654-1.346-3-3-3zM26 20H16v-2h10v2zM16 46h6v-2h-6v-2h4v-2h-4V22h10v10c0 1.654 1.346 3 3 3h1.172c.802 0 1.555-.312 2.121-.879L38 28.415V48H16v-2zm26 9a1 1 0 0 1-1 1H13a1 1 0 0 1-1-1V15a1 1 0 0 1 1-1h13v2H16c-1.103 0-2 .897-2 2v30c0 1.103.897 2 2 2h22c1.103 0 2-.897 2-2V28h2v27zm12-30a1 1 0 0 1-1 1H38.828c-.79 0-1.563.32-2.12.878l-5.829 5.829a1.008 1.008 0 0 1-.707.293H29a1 1 0 0 1-1-1V9a1 1 0 0 1 1-1h24a1 1 0 0 1 1 1v16z" fill="url(#b)"/><linearGradient id="c" gradientUnits="userSpaceOnUse" x1="27" y1="4.833" x2="27" y2="58.566" spreadMethod="reflect"><stop offset="0" stop-color="#1a6dff"/><stop offset="1" stop-color="#c822ff"/></linearGradient><rect x="24" y="52" width="6" height="2" fill="url(#c)"/></svg>