<svg xmlns="http://www.w3.org/2000/svg" viewBox="0 0 50 50"><path d="M24.781-.031A2 2 0 0 0 23 2v10.188l-3.594-3.594a2.006 2.006 0 0 0-1.437-.625 2 2 0 0 0-1.375 3.437l7 7L25 19.844l1.406-1.438 7-7c.598-.48.867-1.258.696-2.004a1.998 1.998 0 0 0-1.504-1.504 1.995 1.995 0 0 0-2.004.696L27 12.188V2a2 2 0 0 0-2.031-2.031 1.501 1.501 0 0 0-.188 0zm-15 16a1.995 1.995 0 0 0-1.695 1.336 1.995 1.995 0 0 0 .508 2.101L12.188 23H2a2.001 2.001 0 1 0 0 4h10.188l-3.594 3.594a1.995 1.995 0 0 0-.696 2.004c.172.75.754 1.332 1.504 1.504a1.995 1.995 0 0 0 2.004-.696l7-7L19.844 25l-1.438-1.406-7-7a2.006 2.006 0 0 0-1.437-.625 1.502 1.502 0 0 0-.188 0zm30.188 0a1.999 1.999 0 0 0-1.375.625l-7 7L30.156 25l1.438 1.406 7 7c.48.598 1.258.867 2.004.696a1.998 1.998 0 0 0 1.504-1.504 1.995 1.995 0 0 0-.696-2.004L37.813 27H48a1.988 1.988 0 0 0 1.754-.992 1.982 1.982 0 0 0 0-2.016A1.988 1.988 0 0 0 48 23H37.812l3.594-3.594a1.992 1.992 0 0 0 .453-2.21 1.997 1.997 0 0 0-1.89-1.227zM25 22c-1.645 0-3 1.355-3 3s1.355 3 3 3 3-1.355 3-3-1.355-3-3-3zm0 2c.563 0 1 .438 1 1 0 .563-.438 1-1 1-.563 0-1-.438-1-1 0-.563.438-1 1-1zm0 6.156l-1.406 1.438-7 7a1.995 1.995 0 0 0-.696 2.004c.172.75.754 1.332 1.504 1.504a1.995 1.995 0 0 0 2.004-.696L23 37.813V48c-.012.723.367 1.39.992 1.754a1.982 1.982 0 0 0 2.016 0A1.988 1.988 0 0 0 27 48V37.812l3.594 3.594c.48.598 1.258.867 2.004.696a1.998 1.998 0 0 0 1.504-1.504 1.995 1.995 0 0 0-.696-2.004l-7-7z"/></svg>