<svg xmlns="http://www.w3.org/2000/svg" viewBox="0 0 40 40"><path d="M12.832 6.5c.504-.543.813-1.434 1.277-2.762.118-.343.25-.718.399-1.129.3-.84 1.637-1.109 5.492-1.109s5.191.27 5.492 1.105c.149.415.281.79.399 1.133.464 1.328.773 2.215 1.277 2.762z" fill="#b6dcfe"/><path d="M20 2c2.848 0 4.79.133 5.023.777.149.41.278.782.395 1.125.297.848.539 1.543.82 2.098H13.762c.281-.555.523-1.25.816-2.098.121-.343.25-.715.399-1.125C15.21 2.133 17.152 2 20 2m0-1c-4.016 0-5.543.266-5.965 1.438C13.145 4.913 12.88 6.101 12 6.5V7h16v-.5c-.879-.402-1.145-1.586-2.035-4.063C25.543 1.266 24.015 1 20 1z" fill="#4788c7"/><path d="M20 38.5c-3.855 0-5.191-.27-5.492-1.105-.149-.415-.281-.79-.399-1.133-.464-1.328-.773-2.215-1.277-2.762h14.336c-.504.547-.813 1.434-1.277 2.762-.118.343-.25.718-.399 1.133-.3.835-1.637 1.105-5.492 1.105z" fill="#b6dcfe"/><path d="M26.238 34c-.281.555-.523 1.25-.816 2.098-.121.343-.25.715-.399 1.125-.234.644-2.175.777-5.023.777s-4.79-.133-5.023-.777c-.149-.41-.278-.785-.395-1.125-.297-.848-.539-1.543-.82-2.098h12.476M28 33H12v.5c.879.398 1.145 1.586 2.035 4.063C14.457 38.733 15.985 39 20 39c4.016 0 5.543-.266 5.965-1.438.89-2.476 1.156-3.664 2.035-4.062z" fill="#4788c7"/><path d="M13 33.5c-2.48 0-4.5-2.02-4.5-4.5V11c0-2.48 2.02-4.5 4.5-4.5h14c2.48 0 4.5 2.02 4.5 4.5v18c0 2.48-2.02 4.5-4.5 4.5z" fill="#dff0fe"/><path d="M27 7c2.207 0 4 1.793 4 4v18c0 2.207-1.793 4-4 4H13c-2.207 0-4-1.793-4-4V11c0-2.207 1.793-4 4-4h14m0-1H13a5 5 0 0 0-5 5v18a5 5 0 0 0 5 5h14a5 5 0 0 0 5-5V11a5 5 0 0 0-5-5z" fill="#4788c7"/><path d="M26 31H14a3 3 0 0 1-3-3V12a3 3 0 0 1 3-3h12a3 3 0 0 1 3 3v16a3 3 0 0 1-3 3zm6-12h.883C33.5 19 34 18.5 34 17.883v-2.766C34 14.5 33.5 14 32.883 14H32z" fill="#4788c7"/><path d="M23 20a3 3 0 1 1-6.002-.002A3 3 0 0 1 23 20zm3-7.5a1.5 1.5 0 1 1-3 0 1.5 1.5 0 0 1 3 0z" fill="#fff"/><path d="M27 17a1.999 1.999 0 1 1-4 0 1.999 1.999 0 1 1 4 0z" fill="#98ccfd"/><path d="M17 24a1.999 1.999 0 1 1-4 0 1.999 1.999 0 1 1 4 0z" fill="#b6dcfe"/><path d="M28 22a1.999 1.999 0 1 1-4 0 1.999 1.999 0 1 1 4 0zm-3 3.5a1.5 1.5 0 1 1-3 0 1.5 1.5 0 0 1 3 0zM18 12c0 .55-.45 1-1 1s-1-.45-1-1 .45-1 1-1 1 .45 1 1zm-2 7.5a1.5 1.5 0 1 1-3 0 1.5 1.5 0 0 1 3 0z" fill="#dff0fe"/><path d="M17 15.5a1.5 1.5 0 1 1-3 0 1.5 1.5 0 0 1 3 0z" fill="#98ccfd"/><path d="M22.32 14.535c0 1.106-.894 2-2 2-1.105 0-2-.894-2-2a1.999 1.999 0 1 1 4 0z" fill="#b6dcfe"/><path d="M21 26.5a1.5 1.5 0 1 1-3 0 1.5 1.5 0 0 1 3 0z" fill="#98ccfd"/></svg>