<svg xmlns="http://www.w3.org/2000/svg" viewBox="0 0 64 64"><path d="M7 7h50a2 2 0 0 1 2 2v46a2 2 0 0 1-2 2H7a2 2 0 0 1-2-2V9a2 2 0 0 1 2-2z" fill="#c2cde7"/><path d="M9 52h46c2.21 0 4 1.79 4 4 0 .55-.45 1-1 1H6c-.55 0-1-.45-1-1 0-2.21 1.79-4 4-4z" fill="#acb7d0"/><path d="M21 15h22v30H21z" fill="#faefde"/><path d="M25 31h14v10H25z" fill="#efd8be"/><path d="M22 50c-.55 0-1 .45-1 1v2c0 .55.45 1 1 1s1-.45 1-1v-2c0-.55-.45-1-1-1zm5 0c-.55 0-1 .45-1 1v2c0 .55.45 1 1 1s1-.45 1-1v-2c0-.55-.45-1-1-1zm5 0c-.55 0-1 .45-1 1v2c0 .55.45 1 1 1s1-.45 1-1v-2c0-.55-.45-1-1-1zm5 0c-.55 0-1 .45-1 1v2c0 .55.45 1 1 1s1-.45 1-1v-2c0-.55-.45-1-1-1zm5 0c-.55 0-1 .45-1 1v2c0 .55.45 1 1 1s1-.45 1-1v-2c0-.55-.45-1-1-1zm5 0c-.55 0-1 .45-1 1v2c0 .55.45 1 1 1s1-.45 1-1v-2c0-.55-.45-1-1-1zm-30 0c-.55 0-1 .45-1 1v2c0 .55.45 1 1 1s1-.45 1-1v-2c0-.55-.45-1-1-1z" fill="#8d6c9f"/><path d="M57 6H7a3 3 0 0 0-3 3v46a3 3 0 0 0 3 3h50a3 3 0 0 0 3-3V9a3 3 0 0 0-3-3zm1 49c0 .55-.45 1-1 1H7c-.55 0-1-.45-1-1V9c0-.55.45-1 1-1h50c.55 0 1 .45 1 1z" fill="#8d6c9f"/><path d="M42 14H22a2 2 0 0 0-2 2v28a2 2 0 0 0 2 2h20a2 2 0 0 0 2-2V16a2 2 0 0 0-2-2zM22 44V16h20v28z" fill="#8d6c9f"/><path d="M39 18H25c-.55 0-1 .45-1 1v22c0 .55.45 1 1 1h14c.55 0 1-.45 1-1V19c0-.55-.45-1-1-1zm-1 2v10H26V20zm0 20H26v-8h12z" fill="#8d6c9f"/><path d="M35 25.04a3 3 0 1 1-6.002-.002 3 3 0 0 1 6.002.001z" fill="#ed7899"/><path d="M10 10a1.999 1.999 0 1 0 0 4 1.999 1.999 0 1 0 0-4zm0 3zm44-3a1.999 1.999 0 1 0 0 4 1.999 1.999 0 1 0 0-4zm0 3zM10 50a1.999 1.999 0 1 0 0 4 1.999 1.999 0 1 0 0-4zm0 3zm44-3a1.999 1.999 0 1 0 0 4 1.999 1.999 0 1 0 0-4zm0 3z" fill="#8d6c9f"/></svg>