<svg xmlns="http://www.w3.org/2000/svg" viewBox="0 0 40 40"><path d="M4.895 36.473c.789-1.356 1.71-3.008 2.558-4.578l.2-.372-.329-.257C3.566 28.296 1.5 24.296 1.5 20 1.5 11.453 9.8 4.5 20 4.5S38.5 11.453 38.5 20 30.2 35.5 20 35.5c-2.176 0-4.34-.332-6.438-.984l-.16-.051-.16.058c-2.945 1.094-5.988 1.797-8.347 1.95z" fill="#dff0fe"/><path d="M20 5c9.926 0 18 6.73 18 15s-8.074 15-18 15c-2.121 0-4.238-.324-6.285-.96l-.328-.102-.32.117c-2.52.937-5.106 1.582-7.258 1.832a182.478 182.478 0 0 0 2.086-3.758l.394-.738-.656-.52C4 28 2 24.141 2 20c0-8.27 8.074-15 18-15m0-1C9.508 4 1 11.164 1 20c0 4.602 2.32 8.738 6.012 11.656A150.129 150.129 0 0 1 4 37c2.598 0 6.172-.805 9.414-2.008A22.09 22.09 0 0 0 20 36c10.492 0 19-7.164 19-16S30.492 4 20 4z" fill="#4788c7"/><path d="M30.5 17h-21a.504.504 0 0 1-.5-.5c0-.273.227-.5.5-.5h21c.273 0 .5.227.5.5s-.227.5-.5.5zm0 4h-21a.504.504 0 0 1-.5-.5c0-.273.227-.5.5-.5h21c.273 0 .5.227.5.5s-.227.5-.5.5zm-11 4h-10a.504.504 0 0 1-.5-.5c0-.273.227-.5.5-.5h10c.273 0 .5.227.5.5s-.227.5-.5.5z" fill="#4788c7"/></svg>