<svg xmlns="http://www.w3.org/2000/svg" viewBox="0 0 26 26"><path d="M7 6c-3.86 0-7 3.14-7 7s3.14 7 7 7h12c.242 0 .484-.008.719-.031a6.948 6.948 0 0 0 3.187-1.157 7.072 7.072 0 0 0 2.25-2.468c.11-.2.192-.414.282-.625a6.31 6.31 0 0 0 .25-.656c.07-.22.109-.43.156-.657a6.955 6.955 0 0 0 .125-2.125 6.957 6.957 0 0 0-.282-1.344c-.003-.007.004-.023 0-.03a7.07 7.07 0 0 0-.53-1.25 7.072 7.072 0 0 0-2.813-2.813 7.24 7.24 0 0 0-1.25-.531c-.008-.004-.024.003-.032 0-.218-.07-.43-.11-.656-.157A6.955 6.955 0 0 0 19 6zm12 2c2.773 0 5 2.227 5 5s-2.227 5-5 5-5-2.227-5-5 2.227-5 5-5z"/></svg>