<svg xmlns="http://www.w3.org/2000/svg" viewBox="0 0 80 80"><path d="M25 24c-8.824 0-16 7.176-16 16v1h.102C9.629 49.352 16.52 56 25 56h30c.54 0 1.07-.027 1.598-.078.234-.027.465-.07.699-.106.281-.043.57-.074.848-.129.273-.054.539-.132.808-.203.227-.054.457-.105.684-.172.355-.109.699-.242 1.047-.374.113-.043.23-.079.343-.126.426-.175.84-.37 1.246-.578l.067-.03c.004-.005.008-.005.012-.005 4.851-2.523 8.238-7.453 8.597-13.199H71v-1c0-.55-.027-1.098-.082-1.637-.547-5.37-3.762-9.965-8.297-12.43A15.883 15.883 0 0 0 55 24zm0 2h22.27a16.42 16.42 0 0 0-1.77 1.137A.972.972 0 0 0 45 27a1.002 1.002 0 0 0-.938 1.344 16.106 16.106 0 0 0-1.62 1.761A.967.967 0 0 0 42 30a1.002 1.002 0 0 0-.688 1.727A15.871 15.871 0 0 0 39.035 39H39c-.55 0-1 .45-1 1s.45 1 1 1h.035a15.871 15.871 0 0 0 2.278 7.273A1.002 1.002 0 0 0 42 50a.967.967 0 0 0 .441-.105c.496.628 1.04 1.214 1.621 1.761A1.002 1.002 0 0 0 45 53a.972.972 0 0 0 .5-.137A16.42 16.42 0 0 0 47.27 54H25c-6.39 0-11.758-4.262-13.441-10.105.136.07.289.105.441.105.55 0 1-.45 1-1s-.45-1-1-1a.996.996 0 0 0-.781.379A14.03 14.03 0 0 1 11 40c0-.813.086-1.605.219-2.379A.996.996 0 0 0 12 38c.55 0 1-.45 1-1s-.45-1-1-1a.967.967 0 0 0-.441.105C13.242 30.262 18.609 26 25 26zm30 0c7.742 0 14 6.258 14 14 0 7.258-5.5 13.21-12.566 13.926-.473.05-.95.074-1.434.074-7.742 0-14-6.258-14-14s6.258-14 14-14zm-34 1c-.55 0-1 .45-1 1s.45 1 1 1 1-.45 1-1-.45-1-1-1zm6 0c-.55 0-1 .45-1 1s.45 1 1 1 1-.45 1-1-.45-1-1-1zm6 0c-.55 0-1 .45-1 1s.45 1 1 1 1-.45 1-1-.45-1-1-1zm6 0c-.55 0-1 .45-1 1s.45 1 1 1 1-.45 1-1-.45-1-1-1zm-21 3c-.55 0-1 .45-1 1s.45 1 1 1 1-.45 1-1-.45-1-1-1zm6 0c-.55 0-1 .45-1 1s.45 1 1 1 1-.45 1-1-.45-1-1-1zm6 0c-.55 0-1 .45-1 1s.45 1 1 1 1-.45 1-1-.45-1-1-1zm6 0c-.55 0-1 .45-1 1s.45 1 1 1 1-.45 1-1-.45-1-1-1zm-21 3c-.55 0-1 .45-1 1s.45 1 1 1 1-.45 1-1-.45-1-1-1zm6 0c-.55 0-1 .45-1 1s.45 1 1 1 1-.45 1-1-.45-1-1-1zm6 0c-.55 0-1 .45-1 1s.45 1 1 1 1-.45 1-1-.45-1-1-1zm6 0c-.55 0-1 .45-1 1s.45 1 1 1 1-.45 1-1-.45-1-1-1zm6 0c-.55 0-1 .45-1 1s.45 1 1 1 1-.45 1-1-.45-1-1-1zm-21 3c-.55 0-1 .45-1 1s.45 1 1 1 1-.45 1-1-.45-1-1-1zm6 0c-.55 0-1 .45-1 1s.45 1 1 1 1-.45 1-1-.45-1-1-1zm6 0c-.55 0-1 .45-1 1s.45 1 1 1 1-.45 1-1-.45-1-1-1zm6 0c-.55 0-1 .45-1 1s.45 1 1 1 1-.45 1-1-.45-1-1-1zm-21 3c-.55 0-1 .45-1 1s.45 1 1 1 1-.45 1-1-.45-1-1-1zm6 0c-.55 0-1 .45-1 1s.45 1 1 1 1-.45 1-1-.45-1-1-1zm6 0c-.55 0-1 .45-1 1s.45 1 1 1 1-.45 1-1-.45-1-1-1zm6 0c-.55 0-1 .45-1 1s.45 1 1 1 1-.45 1-1-.45-1-1-1zm-15 3c-.55 0-1 .45-1 1s.45 1 1 1 1-.45 1-1-.45-1-1-1zm6 0c-.55 0-1 .45-1 1s.45 1 1 1 1-.45 1-1-.45-1-1-1zm6 0c-.55 0-1 .45-1 1s.45 1 1 1 1-.45 1-1-.45-1-1-1zm6 0c-.55 0-1 .45-1 1s.45 1 1 1 1-.45 1-1-.45-1-1-1zm-21 3c-.55 0-1 .45-1 1s.45 1 1 1 1-.45 1-1-.45-1-1-1zm6 0c-.55 0-1 .45-1 1s.45 1 1 1 1-.45 1-1-.45-1-1-1zm6 0c-.55 0-1 .45-1 1s.45 1 1 1 1-.45 1-1-.45-1-1-1zm6 0c-.55 0-1 .45-1 1s.45 1 1 1 1-.45 1-1-.45-1-1-1zm6 0c-.55 0-1 .45-1 1s.45 1 1 1 1-.45 1-1-.45-1-1-1zm-21 3c-.55 0-1 .45-1 1s.45 1 1 1 1-.45 1-1-.45-1-1-1zm6 0c-.55 0-1 .45-1 1s.45 1 1 1 1-.45 1-1-.45-1-1-1zm6 0c-.55 0-1 .45-1 1s.45 1 1 1 1-.45 1-1-.45-1-1-1zm6 0c-.55 0-1 .45-1 1s.45 1 1 1 1-.45 1-1-.45-1-1-1zm-15 3c-.55 0-1 .45-1 1s.45 1 1 1 1-.45 1-1-.45-1-1-1zm6 0c-.55 0-1 .45-1 1s.45 1 1 1 1-.45 1-1-.45-1-1-1zm6 0c-.55 0-1 .45-1 1s.45 1 1 1 1-.45 1-1-.45-1-1-1zm6 0c-.55 0-1 .45-1 1s.45 1 1 1 1-.45 1-1-.45-1-1-1z"/></svg>