<svg xmlns="http://www.w3.org/2000/svg" viewBox="0 0 40 40"><path d="M38.75 18c-2.18-3.027-5.734-5-9.75-5-3.59 0-6.8 1.586-9 4.082C17.8 14.586 14.59 13 11 13a11.98 11.98 0 0 0-9.746 5M37 11.14A15.903 15.903 0 0 0 29 9a15.91 15.91 0 0 0-9 2.773A15.91 15.91 0 0 0 11 9c-2.914 0-5.648.777-8 2.14" fill="none" stroke-width="2" stroke-linecap="round" stroke-linejoin="round" stroke="#4788c7" stroke-miterlimit="10"/><path d="M36.5 25c0 4.14-3.36 7.5-7.5 7.5-4.14 0-7.5-3.36-7.5-7.5 0-4.14 3.36-7.5 7.5-7.5 4.14 0 7.5 3.36 7.5 7.5z" fill="#98ccfd"/><path d="M29 18c3.86 0 7 3.14 7 7s-3.14 7-7 7-7-3.14-7-7 3.14-7 7-7m0-1a8 8 0 1 0 0 16 8 8 0 0 0 0-16z" fill="#4788c7"/><path d="M18.5 25c0 4.14-3.36 7.5-7.5 7.5-4.14 0-7.5-3.36-7.5-7.5 0-4.14 3.36-7.5 7.5-7.5 4.14 0 7.5 3.36 7.5 7.5z" fill="#98ccfd"/><path d="M11 18c3.86 0 7 3.14 7 7s-3.14 7-7 7-7-3.14-7-7 3.14-7 7-7m0-1a8 8 0 1 0 0 16 8 8 0 0 0 0-16z" fill="#4788c7"/></svg>