<svg xmlns="http://www.w3.org/2000/svg" viewBox="0 0 40 40"><circle cx="29" cy="25" r="7.5" fill="#8bb7f0"/><path d="M29 18c3.86 0 7 3.14 7 7s-3.14 7-7 7-7-3.14-7-7 3.14-7 7-7m0-1a8 8 0 1 0 0 16 8 8 0 0 0 0-16z" fill="#4e7ab5"/><circle cx="11" cy="25" r="7.5" fill="#8bb7f0"/><path d="M11 18c3.86 0 7 3.14 7 7s-3.14 7-7 7-7-3.14-7-7 3.14-7 7-7m0-1a8 8 0 1 0 0 16 8 8 0 0 0 0-16z" fill="#4e7ab5"/><path d="M0 20.219C1.852 15.976 6.083 13 11 13c3.107 0 6.057 1.191 8.307 3.354l.693.666.693-.666A11.935 11.935 0 0 1 29 13c4.917 0 9.148 2.976 11 7.219v-2.125C37.699 14.438 33.639 12 29 12a12.943 12.943 0 0 0-9 3.633A12.943 12.943 0 0 0 11 12c-4.639 0-8.699 2.438-11 6.094v2.125zm2-8.438A15.912 15.912 0 0 1 11 9c2.987 0 5.916.845 8.469 2.444l.531.332.531-.332A15.944 15.944 0 0 1 29 9c3.335 0 6.434 1.029 9 2.781v-1.185a16.896 16.896 0 0 0-18 .001 16.896 16.896 0 0 0-18 0v1.184z" fill="#f78f8f"/></svg>