<svg xmlns="http://www.w3.org/2000/svg" viewBox="0 0 40 40"><path d="M37 30l-7-7v5H16v4h14v5z" fill="#4788c7"/><path d="M20.5 30a8.5 8.5 0 0 1-8.5 8.5A8.499 8.499 0 0 1 3.5 30c0-4.695 3.805-8.5 8.5-8.5s8.5 3.805 8.5 8.5z" fill="#98ccfd"/><path d="M12 22c4.41 0 8 3.59 8 8s-3.59 8-8 8-8-3.59-8-8 3.59-8 8-8m0-1c-4.973 0-9 4.027-9 9s4.027 9 9 9 9-4.027 9-9-4.027-9-9-9zm25-11l-7-7v5H16v4h14v5z" fill="#4788c7"/><path d="M20.5 10a8.5 8.5 0 0 1-8.5 8.5A8.499 8.499 0 0 1 3.5 10c0-4.695 3.805-8.5 8.5-8.5s8.5 3.805 8.5 8.5z" fill="#98ccfd"/><path d="M12 2c4.41 0 8 3.59 8 8s-3.59 8-8 8-8-3.59-8-8 3.59-8 8-8m0-1c-4.973 0-9 4.027-9 9s4.027 9 9 9 9-4.027 9-9-4.027-9-9-9z" fill="#4788c7"/></svg>