<svg xmlns="http://www.w3.org/2000/svg" viewBox="0 0 50 50"><path d="M30.906 4.969c-.043.008-.086.02-.125.031a.994.994 0 0 0-.781.703c-.105.367.004.758.281 1.016L36.563 13H22.937C22.43 8.516 18.617 5 14 5c-4.96 0-9 4.04-9 9s4.04 9 9 9c4.617 0 8.43-3.516 8.938-8h13.625l-6.282 6.281a1.014 1.014 0 0 0 0 1.438c.399.398 1.04.398 1.438 0l8-8 .687-.719-.687-.719-8-8a1.004 1.004 0 0 0-.813-.312zm7 22c-.043.008-.086.02-.125.031a.994.994 0 0 0-.781.703c-.105.367.004.758.281 1.016L43.563 35H29.937c-.507-4.488-4.32-8-8.937-8-4.96 0-9 4.035-9 9s4.04 9 9 9c4.617 0 8.43-3.512 8.938-8h13.625l-6.282 6.281a1.014 1.014 0 0 0 0 1.438c.399.398 1.04.398 1.438 0l8-8 .687-.719-.687-.719-8-8a1.004 1.004 0 0 0-.813-.312z"/></svg>