<svg xmlns="http://www.w3.org/2000/svg" viewBox="0 0 40 40"><path d="M37 10l-7-7-7 7h5v14h4V10z" fill="#4788c7"/><path d="M30 36.5c-4.688 0-8.5-3.813-8.5-8.5 0-4.688 3.813-8.5 8.5-8.5 4.688 0 8.5 3.813 8.5 8.5 0 4.688-3.813 8.5-8.5 8.5z" fill="#98ccfd"/><path d="M30 20c4.41 0 8 3.59 8 8s-3.59 8-8 8-8-3.59-8-8 3.59-8 8-8m0-1c-4.973 0-9 4.027-9 9s4.027 9 9 9 9-4.027 9-9-4.027-9-9-9zm-13-9l-7-7-7 7h5v14h4V10z" fill="#4788c7"/><path d="M10 36.5c-4.688 0-8.5-3.813-8.5-8.5 0-4.688 3.813-8.5 8.5-8.5 4.688 0 8.5 3.813 8.5 8.5 0 4.688-3.813 8.5-8.5 8.5z" fill="#98ccfd"/><path d="M10 20c4.41 0 8 3.59 8 8s-3.59 8-8 8-8-3.59-8-8 3.59-8 8-8m0-1c-4.973 0-9 4.027-9 9s4.027 9 9 9 9-4.027 9-9-4.027-9-9-9z" fill="#4788c7"/></svg>