<svg xmlns="http://www.w3.org/2000/svg" viewBox="0 0 40 40"><circle cx="29" cy="23" r="7.5" fill="#8bb7f0"/><path d="M29 16c3.86 0 7 3.14 7 7s-3.14 7-7 7-7-3.14-7-7 3.14-7 7-7m0-1a8 8 0 1 0 0 16 8 8 0 0 0 0-16z" fill="#4e7ab5"/><circle cx="11" cy="23" r="7.5" fill="#8bb7f0"/><path d="M11 16c3.86 0 7 3.14 7 7s-3.14 7-7 7-7-3.14-7-7 3.14-7 7-7m0-1a8 8 0 1 0 0 16 8 8 0 0 0 0-16z" fill="#4e7ab5"/><path d="M0 18.219C1.852 13.976 6.083 11 11 11c3.107 0 6.057 1.191 8.307 3.354l.693.666.693-.666A11.935 11.935 0 0 1 29 11c4.917 0 9.148 2.976 11 7.219v-2.125C37.699 12.438 33.639 10 29 10a12.943 12.943 0 0 0-9 3.633A12.943 12.943 0 0 0 11 10c-4.639 0-8.699 2.438-11 6.094v2.125z" fill="#f78f8f"/></svg>