<svg xmlns="http://www.w3.org/2000/svg" viewBox="0 0 26 26"><path d="M8 8c-4.406 0-8 3.594-8 8-.004.36.184.695.496.879.313.18.695.18 1.008 0 .312-.184.5-.52.496-.879 0-3.324 2.676-6 6-6 1.684 0 3.191.7 4.281 1.813a.999.999 0 0 0 1.438 0A5.967 5.967 0 0 1 18 10c3.324 0 6 2.676 6 6-.004.36.184.695.496.879.313.18.695.18 1.008 0 .312-.184.5-.52.496-.879 0-4.406-3.594-8-8-8-1.918 0-3.621.773-5 1.906C11.621 8.773 9.918 8 8 8zm0 4c-2.21 0-4 1.79-4 4s1.79 4 4 4 4-1.79 4-4-1.79-4-4-4zm10 0c-2.21 0-4 1.79-4 4s1.79 4 4 4 4-1.79 4-4-1.79-4-4-4z"/></svg>