<svg xmlns="http://www.w3.org/2000/svg" viewBox="0 0 50 50"><path d="M14 17C6.281 17 0 23.281 0 31c-.004.36.184.695.496.879.313.18.695.18 1.008 0 .312-.184.5-.52.496-.879 0-6.637 5.363-12 12-12 4.29 0 8.031 2.25 10.156 5.625L25 25.969l.844-1.344C27.969 21.25 31.71 19 36 19c6.64 0 12 5.363 12 12-.004.36.184.695.496.879.313.18.695.18 1.008 0 .312-.184.5-.52.496-.879 0-7.719-6.281-14-14-14-4.508 0-8.441 2.21-11 5.531C22.441 19.211 18.508 17 14 17zm0 5c-4.96 0-9 4.035-9 9s4.04 9 9 9 9-4.035 9-9-4.04-9-9-9zm22 0c-4.965 0-9 4.035-9 9s4.035 9 9 9 9-4.035 9-9-4.035-9-9-9z"/></svg>