<svg xmlns="http://www.w3.org/2000/svg" viewBox="0 0 64 64"><path d="M25 0C11.215 0 0 11.215 0 25s11.215 25 25 25a24.849 24.849 0 0 0 14.75-4.832l2.543 2.539c.11.11.363.395.363.445a4.98 4.98 0 0 0 1.465 3.383L54.465 61.88A4.98 4.98 0 0 0 58 63.344a4.987 4.987 0 0 0 3.535-1.465l.344-.344A4.964 4.964 0 0 0 63.344 58c0-1.336-.52-2.59-1.465-3.535L51.535 44.12a4.971 4.971 0 0 0-3.406-1.453c-.066-.004-.313-.266-.422-.375l-2.539-2.543A24.849 24.849 0 0 0 50 25C50 11.215 38.785 0 25 0zm0 2c12.684 0 23 10.316 23 23S37.684 48 25 48 2 37.684 2 25 12.316 2 25 2zm0 4C14.523 6 6 14.523 6 25a1 1 0 1 0 2 0c0-9.375 7.625-17 17-17s17 7.625 17 17-7.625 17-17 17a1 1 0 1 0 0 2c10.477 0 19-8.523 19-19S35.477 6 25 6zm0 8a1 1 0 0 0-1 1v9h-9a1 1 0 1 0 0 2h9v9a1 1 0 1 0 2 0v-9h9a1 1 0 1 0 0-2h-9v-9a1 1 0 0 0-1-1zM9.684 28.148a.99.99 0 0 0-.399.028l-1.933.515a1.004 1.004 0 0 0-.704 1.23.995.995 0 0 0 1.223.704l1.934-.516a1.004 1.004 0 0 0-.121-1.96zm1.336 3.856c-.13.02-.254.062-.375.133l-1.73 1a.993.993 0 0 0-.368 1.363.996.996 0 0 0 1.363.363l1.73-1a.998.998 0 0 0 .372-1.363 1.004 1.004 0 0 0-.992-.496zm2.668 3.309a.993.993 0 0 0-.708.292l-1.418 1.415a1 1 0 0 0 .708 1.707c.257 0 .515-.098.71-.293l1.41-1.414a.993.993 0 0 0 0-1.415.991.991 0 0 0-.703-.292zm3.437 2.55a.992.992 0 0 0-.988.492l-1 1.735a.997.997 0 0 0 .363 1.363c.156.09.328.137.5.137.344 0 .68-.184.863-.5l1-1.735a1.002 1.002 0 0 0-.363-1.367 1.038 1.038 0 0 0-.375-.125zm3.594 1.602a1.009 1.009 0 0 0-.828.73l-.516 1.934a1.001 1.001 0 0 0 .707 1.226 1.003 1.003 0 0 0 1.227-.71l.515-1.93a1.004 1.004 0 0 0-.707-1.227.987.987 0 0 0-.398-.023zm23.191 1.86l1.875 1.874a4.942 4.942 0 0 0-1.32.922l-.344.344c-.39.39-.687.84-.922 1.316l-1.875-1.87a24.481 24.481 0 0 0 2.586-2.587zm4.09 3.33c.77 0 1.535.293 2.121.88l10.344 10.343c.566.566.879 1.32.879 2.121 0 .8-.313 1.555-.88 2.121l-.343.344a3.002 3.002 0 0 1-4.242 0L45.535 50.12a2.982 2.982 0 0 1-.879-2.12c0-.8.313-1.555.88-2.121l.343-.344A2.994 2.994 0 0 1 48 44.656z"/></svg>