<svg xmlns="http://www.w3.org/2000/svg" viewBox="0 0 26 26"><path d="M13 4c-.55 0-1 .45-1 1v2h2V5c0-.55-.45-1-1-1zM0 5v2l11-.531V5.53zm26 0l-11 .531v.938L26 7zM11.75 8c-.445 0-.848.29-.969.719l-.281 1C10.133 9.289 9.61 9 9 9a1.999 1.999 0 1 0 0 4c.207 0 .406-.035.594-.094l-.313 1.188L2 15v1h6v1c0 .55.45 1 1 1h8c.55 0 1-.45 1-1v-1h6v-1l-7.281-.906-.313-1.188c.188.059.387.094.594.094a1.999 1.999 0 1 0 0-4c-.61 0-1.133.29-1.5.719l-.281-1A1.002 1.002 0 0 0 14.25 8zM3 17c-.55 0-1 .45-1 1s.45 1 1 1 1-.45 1-1-.45-1-1-1zm3 0c-.55 0-1 .45-1 1s.45 1 1 1 1-.45 1-1-.45-1-1-1zm14 0c-.55 0-1 .45-1 1s.45 1 1 1 1-.45 1-1-.45-1-1-1zm3 0c-.55 0-1 .45-1 1s.45 1 1 1 1-.45 1-1-.45-1-1-1zm-12 2c-.55 0-1 .45-1 1v1c0 .55.45 1 1 1s1-.45 1-1v-1c0-.55-.45-1-1-1zm4 0c-.55 0-1 .45-1 1v1c0 .55.45 1 1 1s1-.45 1-1v-1c0-.55-.45-1-1-1z"/></svg>