<svg xmlns="http://www.w3.org/2000/svg" viewBox="0 0 24 24"><path d="M14 2C8.86 2 4 5 4 5s.02.824 0 2h2l1 1-1 1H3.937a35 35 0 0 1-.156 2H6l1 1-1 1H3.469c-.145.645-.336 1.203-.563 1.625L6 16v1a1.999 1.999 0 1 0 4 0v-1l3.813-2.281S13 12.64 13 11.469C13 8.839 14 2 14 2zm-1.469 13.656L11 16.562V17c0 1.652-1.348 3-3 3s-3-1.348-3-3v-.344l-1.031-.468-.031.03s-1.032 1.36-1.032 3.063S3.812 22 3.812 22h10.22c.238-2.617 1.39-4.27 2.405-5.25zm-4.531.5c.473 0 .844.371.844.844a.835.835 0 0 1-.844.844.835.835 0 0 1-.844-.844c0-.473.371-.844.844-.844zm9.594.907c-.934.742-2.262 2.253-2.532 4.937H22l-.625-1.844a4.416 4.416 0 0 0-3.031-2.875z"/></svg>