<svg xmlns="http://www.w3.org/2000/svg" viewBox="0 0 50 50"><path d="M31 2C19.5 2 7.906 10.79 7.406 11.188c-.3.199-.406.507-.406.906 0 0 .094 1.207.094 2.906H12l1 2-1 2H7.094c0 1.898-.082 4-.282 6H12l1 2-1 2H6.312a18.21 18.21 0 0 1-1.125 3.5v1c0 .102.118.21.22.313 0 0 .085.093.187.093l.093.094h.125l5.094 1.906 1 2.907c.899 2.601 3.395 4.28 6.094 4.28 2.898 0 5.387-1.886 6.188-4.687L25 35.688l5.688-3.782c.101-.101.21-.304.312-.406v-.688c0-.101.008-.117-.094-.218 0 0 .008-.094-.093-.094-.5-.7-1.813-2.7-1.813-4.5 0-2 2-15.805 3-22.906 0-.301.012-.582-.188-.781C31.613 2.112 31.302 2 31 2zm-13 9c.602 0 1 .398 1 1s-.398 1-1 1-1-.398-1-1 .398-1 1-1zm0 4c.602 0 1 .398 1 1s-.398 1-1 1-1-.398-1-1 .398-1 1-1zm0 4c.602 0 1 .398 1 1s-.398 1-1 1-1-.398-1-1 .398-1 1-1zm0 4c.602 0 1 .398 1 1s-.398 1-1 1-1-.398-1-1 .398-1 1-1zm0 4c.602 0 1 .398 1 1s-.398 1-1 1-1-.398-1-1 .398-1 1-1zm0 4c.602 0 1 .398 1 1s-.398 1-1 1-1-.398-1-1 .398-1 1-1zm13.906 2.313l-.218.187-5.094 3.406-.594 2C25 42.508 21.605 45 17.906 45a8.548 8.548 0 0 1-8-5.594l-.719-2L6 36.188c-.5 1.3-1 2.914-1 4.812 0 4.102 2.21 6.586 2.313 6.688.101.199.386.312.687.312h19v-1c0-9.602 6.793-12.71 7.094-12.813 0 0 .105-.085.406-.187zm5.782 1.593c-1.5.5-2.68 1.094-2.782 1.094-.3.102-5.906 2.8-5.906 11v1h7v-1c0-7.7 5.512-10.305 5.813-10.406l.374-.188c-.601-.3-1.3-.613-2-.812zM18 35c1.102 0 2 .898 2 2 0 1.102-.898 2-2 2-1.102 0-2-.898-2-2 0-1.102.898-2 2-2zm26.094 2.688c-.801.3-1.5.718-1.5.718C42.394 38.508 38 40.602 38 47v1h10c.3 0 .613-.207.813-.406.199-.301.195-.606.093-.907l-1.312-4c-.7-2-1.899-3.699-3.5-5z"/></svg>