<svg xmlns="http://www.w3.org/2000/svg" viewBox="0 0 64 64"><path d="M27 25h10v16H27z" fill="#9fddff"/><path d="M51.5 39.738l5.36-13.449A29.973 29.973 0 0 0 59 15.18V9a2 2 0 0 0-2-2H39a2 2 0 0 0-2 2v32h12.64c.82 0 1.555-.5 1.86-1.262zM27 41V9a2 2 0 0 0-2-2H7a2 2 0 0 0-2 2v6.18c0 3.804.723 7.574 2.129 11.11L12.5 39.737A2.002 2.002 0 0 0 14.36 41z" fill="#c2cde7"/><path d="M17.5 39.738L12.129 26.29A30.055 30.055 0 0 1 10 15.18V7.72c0-1.1.898-.72 2-.72H7a2 2 0 0 0-2 2v6.18c0 3.804.723 7.574 2.129 11.11L12.5 39.737A2.002 2.002 0 0 0 14.36 41h5c-.82 0-1.555-.5-1.86-1.262z" fill="#acb7d0"/><path d="M46.5 39.738l5.36-13.449A29.973 29.973 0 0 0 54 15.18V7.72c0-1.1-.898-.72-2-.72h5a2 2 0 0 1 2 2v6.18a30.07 30.07 0 0 1-2.129 11.11L51.5 39.737A2.002 2.002 0 0 1 49.64 41h-5c.82 0 1.555-.5 1.86-1.262z" fill="#ced8ed"/><path d="M15 49v-8h34v8a2 2 0 0 1-2 2H17a2 2 0 0 1-2-2z" fill="#85cbf8"/><path d="M18 46h28a3 3 0 0 1 3 3 2 2 0 0 1-2 2H17a2 2 0 0 1-2-2 3 3 0 0 1 3-3z" fill="#7bbeeb"/><path d="M43 41h-6V12c-.77-2.95 1.078-5.602 4.371-5H43z" fill="#acb7d0"/><path d="M21 41h6V12c-.078-4.512-1.078-5.602-4.371-5H21z" fill="#ced8ed"/><path d="M48 3c-5 0-9 1.79-9 4h18c0-2.21-4-4-9-4zM16 3c-5 0-9 1.79-9 4h18c0-2.21-4-4-9-4z" fill="#9fddff"/><path d="M37 57v-6h8v6z" fill="#c2cde7"/><path d="M37 57h8a1.999 1.999 0 1 1 0 4h-8a1.999 1.999 0 1 1 0-4z" fill="#85cbf8"/><path d="M19 57v-6h8v6z" fill="#c2cde7"/><path d="M19 57h8a1.999 1.999 0 1 1 0 4h-8a1.999 1.999 0 1 1 0-4z" fill="#85cbf8"/><path d="M57.852 6.14C57.078 3.73 53.109 2 48 2c-5.11 0-9.078 1.73-9.852 4.14A3.001 3.001 0 0 0 36 9v15h-3v-2c.55 0 1-.45 1-1s-.45-1-1-1h-2c-.55 0-1 .45-1 1s.45 1 1 1v2h-3V9a3.001 3.001 0 0 0-2.148-2.86C25.078 3.73 21.109 2 16 2c-5.11 0-9.078 1.73-9.852 4.14A3.001 3.001 0 0 0 4 9v6.18c0 3.933.75 7.828 2.21 11.48l5.36 13.45A2.989 2.989 0 0 0 14 42v7a3 3 0 0 0 3 3h1v4.18A3.001 3.001 0 0 0 19 62h8a3.001 3.001 0 0 0 1-5.82V52h8v4.18A3.001 3.001 0 0 0 37 62h8a3.001 3.001 0 0 0 1-5.82V52h1a3 3 0 0 0 3-3v-7a3.002 3.002 0 0 0 2.43-1.86l5.36-13.449A30.909 30.909 0 0 0 60 15.18V9a3.001 3.001 0 0 0-2.148-2.86zM55.422 6H40.578C41.7 5 44.36 4 48 4c3.64 0 6.3 1 7.422 2zM39 8h18c.55 0 1 .45 1 1v1H38V9c0-.55.45-1 1-1zm-3 18v14h-8V26zM23.422 6H8.578C9.7 5 12.36 4 16 4c3.64 0 6.3 1 7.422 2zM7 8h18c.55 0 1 .45 1 1v1H6V9c0-.55.45-1 1-1zm6.43 31.371l-5.371-13.45A28.908 28.908 0 0 1 6 15.18V12h20v28H14.36c-.41 0-.778-.25-.93-.629zM27 60h-8c-.55 0-1-.45-1-1s.45-1 1-1h8c.55 0 1 .45 1 1s-.45 1-1 1zm-1-4h-6v-4h6zm19 4h-8c-.55 0-1-.45-1-1s.45-1 1-1h8c.55 0 1 .45 1 1s-.45 1-1 1zm-1-4h-6v-4h6zm4-7c0 .55-.45 1-1 1H17c-.55 0-1-.45-1-1v-7h32zm7.941-23.078l-5.37 13.45c-.153.378-.52.628-.93.628H38V12h20v3.18a28.908 28.908 0 0 1-2.059 10.742z" fill="#8d6c9f"/><path d="M35 44c-.55 0-1 .45-1 1v2c0 .55.45 1 1 1s1-.45 1-1v-2c0-.55-.45-1-1-1zm-6 0c-.55 0-1 .45-1 1v2c0 .55.45 1 1 1s1-.45 1-1v-2c0-.55-.45-1-1-1zm-5 0c-.55 0-1 .45-1 1v2c0 .55.45 1 1 1s1-.45 1-1v-2c0-.55-.45-1-1-1zm-5 0c-.55 0-1 .45-1 1v2c0 .55.45 1 1 1s1-.45 1-1v-2c0-.55-.45-1-1-1zm21 4c.55 0 1-.45 1-1v-2c0-.55-.45-1-1-1s-1 .45-1 1v2c0 .55.45 1 1 1zm5 0c.55 0 1-.45 1-1v-2c0-.55-.45-1-1-1s-1 .45-1 1v2c0 .55.45 1 1 1z" fill="#8d6c9f"/></svg>