<svg xmlns="http://www.w3.org/2000/svg" viewBox="0 0 40 40"><path d="M13 2s.008-.004.012-.004c.008-.012.008-.016-.012.004z" fill="#98ccfd"/><path d="M13.016 1.984S13.008 1.988 13 2c0 0 .008-.004.012-.004.004-.008.004-.012.004-.012z" fill="#4788c7"/><path d="M10.695 11.398c-.52-.168-.8-.421-.933-.824-.219-.644-.313-2.722 3.5-8.062.027-.043.054-.078.078-.11.52-.199 2.648-.902 6.66-.902 4.012 0 6.14.703 6.66.902.024.032.05.067.078.11 3.813 5.34 3.719 7.418 3.5 8.062-.133.403-.414.656-.886.805L20 15.387z" fill="#98ccfd"/><path d="M20 2c3.617 0 5.68.59 6.344.82 3.765 5.285 3.57 7.153 3.422 7.598-.059.18-.168.36-.567.484l-.047.016-.047.02L20 14.84l-9.105-3.902-.047-.02-.047-.016c-.395-.125-.504-.304-.567-.484-.148-.445-.343-2.313 3.422-7.598C14.32 2.59 16.383 2 20 2m0-1c-4.66 0-6.863.941-6.988.996-.157.277-6.54 8.598-2.512 9.86L20 15.93l9.5-4.075c4.027-1.261-2.355-9.582-2.512-9.859C26.863 1.941 24.66 1 20 1z" fill="#4788c7"/><path d="M26.988 1.996A.04.04 0 0 1 27 2c-.02-.02-.02-.016-.012-.004z" fill="#98ccfd"/><path d="M26.984 1.984s0 .004.004.008A.056.056 0 0 0 27 2c-.008-.012-.016-.016-.016-.016z" fill="#4788c7"/><path d="M7.5 20.95c-1.04-.75-3.02-1.891-5.906-2.368.324-1.55 1.386-6.23 2.816-8.297.34-.488.742-.726 1.23-.726 1.036 0 2.258 1.027 2.82 1.597l-.952 4.746z" fill="#98ccfd"/><path d="M5.64 10.059c.708 0 1.657.675 2.274 1.261l-.894 4.485-.02.097v4.118c-1.094-.665-2.703-1.418-4.809-1.836.407-1.86 1.38-5.809 2.63-7.614.316-.457.605-.511.82-.511m0-1c-.586 0-1.164.25-1.641.941-1.8 2.602-3 9-3 9 4.602.602 7 3 7 3v-6l1-5S7.273 9.059 5.64 9.059z" fill="#4788c7"/><path d="M32.5 16l-.96-4.844c.562-.57 1.788-1.601 2.82-1.601.488 0 .89.238 1.23.73 1.43 2.067 2.492 6.746 2.816 8.297-2.886.473-4.867 1.617-5.906 2.363z" fill="#98ccfd"/><path d="M34.36 10.059c.214 0 .503.054.82.511 1.25 1.805 2.222 5.754 2.629 7.614A14.92 14.92 0 0 0 33 20.02v-4.118l-.02-.097-.894-4.485c.617-.586 1.566-1.261 2.273-1.261m0-1C32.727 9.059 31 11 31 11l1 5v6s2.398-2.398 7-3c0 0-1.2-6.398-3-9-.477-.691-1.055-.941-1.64-.941z" fill="#4788c7"/><path d="M20 38.5c-7.305 0-11.96-2.715-13.293-3.61l2.914-3.886-.219-.3C8.692 29.733 7.5 27.308 7.5 22v-5c0-4.836-3.324-6.695-4.75-7.27C3.578 8.508 6.11 5.5 11 5.5h.27l.937-1.406c-.016 1.64.453 3.804 2.656 5.164l4.09 3.277 2.3-.039 3.052-4.07c1.355-.457 2.328-1.239 2.89-2.328.364-.703.504-1.438.535-2.098l1 1.5H29c4.89 0 7.422 3.008 8.25 4.23-1.426.575-4.75 2.434-4.75 7.27v5c0 5.309-1.191 7.734-1.902 8.703l-.22.3 2.915 3.888C31.961 35.785 27.305 38.5 20 38.5z" fill="#b6dcfe"/><path d="M28.023 5.34l.145.215.297.445H29c4.07 0 6.422 2.195 7.465 3.508-2 .98-4.465 3.277-4.465 7.492v5c0 5.36-1.266 7.668-1.809 8.41l-.433.598.441.594 2.371 3.156C30.863 35.805 26.508 38 20 38S9.137 35.805 7.43 34.762l2.37-3.16.442-.594-.433-.598C9.266 29.668 8 27.36 8 22v-5c0-4.215-2.465-6.512-4.465-7.492C4.578 8.195 6.934 6 11 6h.535l.285-.43c.282 1.496 1.055 3.028 2.727 4.078l3.953 3.165.281.226.36-.008L21.02 13l.488-.008.293-.39 2.812-3.754c1.407-.504 2.422-1.352 3.028-2.52.168-.324.293-.656.382-.988M27 2s1.496 4.602-3 6l-3 4-1.875.031-4-3.199C11.504 6.602 13 2 13 2l-2 3c-6.398 0-9 5-9 5s5 1.2 5 7v5c0 5.574 1.32 8.066 2 9l-3 4s5 4 14 4 14-4 14-4l-3-4c.68-.934 2-3.426 2-9v-5c0-5.8 5-7 5-7s-2.602-5-9-5z" fill="#4788c7"/><path d="M22.5 15.418a7.933 7.933 0 0 0 3.574-1.8l6.426 3.671V22c0 4.602-.895 7.035-1.598 8.234l-.328.47c-.02.026-2.082 2.651-8.074 2.792z" fill="#dff0fe"/><path d="M26.129 14.227L32 17.578V22c0 4.39-.848 6.734-1.453 7.844l-.379.566c-.02.027-1.867 2.305-7.168 2.567V15.813a8.54 8.54 0 0 0 3.129-1.586M26 13s-1.5 1.625-4 2v19c6.414 0 8.79-2.719 8.988-3.02L31 31c.68-.934 2-3.426 2-9v-5z" fill="#4788c7"/><path d="M17.5 33.492c-5.992-.137-8.055-2.762-8.074-2.789l-.371-.547C8.359 28.934 7.5 26.508 7.5 22v-4.71l6.426-3.673a7.933 7.933 0 0 0 3.574 1.801z" fill="#dff0fe"/><path d="M13.871 14.227A8.54 8.54 0 0 0 17 15.812v17.165c-5.3-.262-7.148-2.54-7.156-2.551l-.352-.512C8.882 28.832 8 26.484 8 22v-4.422l5.871-3.351M14 13l-7 4v5c0 5.574 1.32 8.066 2 9l.012-.02C9.21 31.281 11.586 34 18 34V15c-2.5-.375-4-2-4-2z" fill="#4788c7"/><path d="M18 12h4v2h-4z" fill="#b6dcfe"/><path d="M20.5 12.117l1.824-3.644c1.582-.27 3.735-2.41 4.832-5.336l1.305 1.957c-.313 1.129-2.074 6.414-7.961 7.336z" fill="#dff0fe"/><path d="M27.254 4.184l.66.992c-.406 1.316-2.035 5.457-6.684 6.597l1.43-2.863c1.649-.422 3.473-2.332 4.594-4.726M27 2c-.938 3.438-3.469 6-5 6l-2 4v1c7.375-.781 9-8 9-8z" fill="#4788c7"/><path d="M19.5 12.43c-5.887-.926-7.648-6.211-7.96-7.336l1.304-1.957c1.097 2.925 3.25 5.066 4.832 5.336l1.824 3.644z" fill="#dff0fe"/><path d="M12.746 4.184c1.121 2.394 2.945 4.304 4.59 4.726l1.434 2.863c-4.653-1.14-6.282-5.285-6.684-6.597l.66-.992M13 2l-2 3s1.625 7.219 9 8v-1l-2-4c-1.531 0-4.063-2.563-5-6z" fill="#4788c7"/></svg>