<?xml version="1.0" encoding="utf-8"?>
<!-- Generator: Adobe Illustrator 22.0.1, SVG Export Plug-In . SVG Version: 6.00 Build 0)  -->
<svg version="1.1" xmlns="http://www.w3.org/2000/svg" xmlns:xlink="http://www.w3.org/1999/xlink" x="0px" y="0px"
	 viewBox="0 0 349.898 305.21" enable-background="new 0 0 349.898 305.21" xml:space="preserve">
<g id="BACKGROUND">
</g>
<g id="OBJECTS">
	<g>
		<path fill="#DCA1A1" d="M281.234,100.315c0.824,0.061,1.612,0.509,1.988,1.297c0.546,1.164-0.412,2.206-1.527,2.449
			c-1.152,0.254-2.23-0.412-2.109-1.685C279.694,101.345,280.349,100.654,281.234,100.315z"/>
		<path fill="#DCA1A1" d="M274.773,93.6c2.279,0.655,2.667,4.424-0.194,4.533c-1.091,0.049-2.158-0.594-2.23-1.77
			c-0.085-1.176,0.836-2.424,2.024-2.582C274.543,93.77,274.676,93.697,274.773,93.6z"/>
		<path fill="#DCA1A1" d="M262.409,94.909c0.085,0.315,0.388,0.594,0.8,0.509c1.115-0.23,2.23,0.812,2.279,1.915
			c0.061,1.103-0.994,1.745-1.988,1.77C261.125,99.151,260.955,96.194,262.409,94.909z"/>
		<path fill="#DCA1A1" d="M278.167,109.551c1.891,3.406,1.152,6.327-3.442,6.776c-1.467,0.146-3.091-0.291-4.497-0.654
			c-2.945-0.764-11.382-3.951-9.467-8.436c0.036-0.085,0.036-0.158,0.049-0.23C265.137,101.309,274.797,103.515,278.167,109.551z"/>
		<path fill="#DCA1A1" d="M229.343,116.691c4.849,1.648,7.176,7.721,2.012,10.788c-2.848,1.697-7.115,2.242-10.291,1.406
			c-4.764-1.273-9.515-10.133-1.285-11.079c0.606-0.073,0.836-0.667,0.667-1.091C223.403,116.182,226.506,115.721,229.343,116.691z"
			/>
		<path fill="#DCA1A1" d="M134.676,123.648c0.509,0.024,0.776-0.412,0.764-0.836c0.873,0.061,1.745,0.158,2.582,0.352
			c3.127,0.752,4.558,1.939,5.503,5.042c0.957,3.139,0.157,5.273-2.715,6.982c-2.436,1.442-5.576,1.406-8.255,0.885
			c-2.17-0.424-6.436-1.297-7.976-2.945c-5.079-5.37,1.358-8.509,4.533-9.297C130.931,123.382,132.834,123.527,134.676,123.648z"/>
		<path fill="#DCA1A1" d="M56.264,111.576c-1.261,0.352-2.485-0.303-2.606-1.661c-0.061-0.739,0.17-1.503,0.594-2.121
			c0.024,0,0.036,0.012,0.061,0c1.224-0.364,2.594-0.23,3.333,0.945C58.434,109.976,57.501,111.224,56.264,111.576z"/>
		<path fill="#DCA1A1" d="M75.064,99.842c-0.764,0.727-2.206,0.473-3.042-0.012c-0.812-0.461-1.43-2.097-0.291-2.473
			c0.024,0.412,0.533,0.764,0.873,0.364C74.107,95.976,76.761,98.23,75.064,99.842z"/>
		<path fill="#DCA1A1" d="M64.47,100.036c0.849,1.236,0.121,2.739-1.103,3.37c-1.297,0.679-2.824,0.036-3.249-1.382
			c-0.461-1.527,0.764-2.849,2.206-3.152C63.161,98.933,63.973,99.333,64.47,100.036z"/>
		<path fill="#DCA1A1" d="M70.676,105.745c3.673-0.121,8.945-0.303,8.691,4.958c-0.194,4.024-4.436,6.8-8.024,7.382
			c-4.582,0.751-10.23-3.673-6.315-8.279C66.555,108,68.87,107.2,70.676,105.745z"/>
		<path fill="#3E3E3D" d="M131.67,228.727c3.151,2.23,6.558,4.109,10.073,5.564c8.255,3.418,17.285,4.873,26.376,4.933
			c-0.024,0.073-0.048,0.145-0.048,0.23c0.024,12.376,1.394,24.873,2.182,37.224c0.424,6.727,2.727,15.697-3.273,20.57
			c-5.03,4.097-14.206,2.958-19.309-0.158c-10.982-6.715-11.661-21.382-13.091-32.812
			C133.113,252.436,132.082,240.642,131.67,228.727z"/>
		<path fill="#3E3E3D" d="M210.846,229.612c-1.77,16.606-3.539,33.212-6.012,49.721c-1.188,7.915-3.442,16.17-11.757,19.2
			c-8.23,2.982-15.927-1.042-20.109-8.133c0.691-7.854-0.812-16.339-1.321-24.194c-0.582-8.897-0.788-17.903-1.915-26.752
			c-0.012-0.085-0.036-0.17-0.073-0.242c8.836-0.085,17.709-1.442,25.964-3.588C200.967,234.242,206.167,232.278,210.846,229.612z"
			/>
		<path fill="#3E3E3D" d="M274.579,99.612c1.891-0.073,3.588-1.467,3.515-3.454c-0.073-1.721-1.442-3.285-3.139-3.455
			c-0.109-0.182-0.291-0.315-0.582-0.291c-1.988,0.085-3.503,1.867-3.515,3.83C270.846,98.291,272.628,99.673,274.579,99.612z
			 M286.131,100.291c0.109,0.497,0.206,0.982,0.291,1.479l-1.673,0.242c-0.024-0.267-0.085-0.546-0.206-0.824
			c-0.764-1.855-3.418-3.03-5.139-1.733c-0.303,0.23-0.339,0.558-0.218,0.812c-0.545,0.594-0.921,1.37-0.982,2.109
			c-0.097,1.091,0.376,1.988,1.139,2.533l-2.376,0.352c-3.358-2.703-8.182-4.109-12.036-3.321l-0.339-1.551
			c1.467-0.473,2.546-1.843,2.255-3.467c-0.327-1.806-2.073-3.115-3.879-2.788c-0.061-0.17-0.23-0.291-0.436-0.23l-2.703-1.37
			C269.512,87.151,283.04,86.958,286.131,100.291z"/>
		<path fill="#3E3E3D" d="M286.421,101.77c1.551,9.782-3.709,19.915-10.073,26.945c-13.406,14.764-33.66,19.903-51.285,27.794
			c-1.248-3.697-2.618-7.273-4.073-10.667c2.836-1.127,5.648-2.339,8.4-3.685c14.097-6.861,22.861-17.867,25.139-33.479
			c0.642-4.352,0.921-8.909,0.873-13.539c0.279,0.036,0.582-0.024,0.849-0.23c1.103-0.873,2.315-1.661,3.576-2.376l2.703,1.37
			c-1.673,0.57-2.691,2.327-2.388,4.061c0.327,1.83,2.109,2.824,3.867,2.558c0.194-0.036,0.388-0.073,0.582-0.133l0.339,1.551
			c-2.885,0.582-5.236,2.388-6,5.806c-0.012,0.049-0.012,0.109,0,0.158c-1.661,8.23,20.909,15.806,22.061,5.758
			c0.376-3.321-1.37-6.267-4.024-8.4l2.376-0.352c0.715,0.521,1.673,0.739,2.63,0.533c1.636-0.352,2.946-1.794,2.776-3.43
			L286.421,101.77z"/>
		<path fill="#3E3E3D" d="M251.137,63.345c-0.267,0.073-0.436,0.218-0.557,0.4c-0.17-0.545-0.339-1.103-0.509-1.636
			c-4.691-14.485-15.164-25.382-28.764-31.952c-3.515-1.697-7.139-3.055-10.836-4.157c8.848-16.945,34.145-19.2,47.612-6.146
			c5.818,5.636,7.964,13.951,7.212,21.842C264.494,50.133,260.131,61.03,251.137,63.345z"/>
		<path fill="#3E3E3D" d="M85.986,68.57c-17.2-6.097-23.333-26.836-10.739-40.642c12.545-13.745,33.261-10.8,45.212,2.012
			c0.012,0.024,0.036,0.024,0.061,0.049c-0.703,0.267-1.406,0.533-2.109,0.824c-13.915,5.842-25.588,16.158-30.424,30.764
			c-0.764,2.291-1.358,4.667-1.842,7.091C86.095,68.63,86.046,68.594,85.986,68.57z"/>
		<path fill="#3E3E3D" d="M63.634,104.836c1.903-0.776,3.115-3.042,2.145-4.982c-0.945-1.867-3.442-2.776-5.248-1.636
			c-0.17,0.097-0.23,0.242-0.242,0.376c-1.139,0.63-1.879,1.964-1.636,3.406C59.04,104.291,61.464,105.733,63.634,104.836z
			 M54.483,106.642c-1.576,0.4-2.412,2.279-2.097,3.891c0.024,0.097,0.049,0.194,0.073,0.291l-0.461,0.158
			c-1.564-5.103-1.285-10.109,2.739-14.073c4.703-4.642,12.691-5.345,19.709-3.333L74.058,96c-0.606,0-1.212,0.194-1.709,0.545
			c-0.073-0.085-0.182-0.157-0.339-0.17c-1.709-0.182-2.606,1.952-1.855,3.309c0.618,1.127,2.121,1.818,3.515,1.818l-0.036,2.4
			c-1.127-0.024-2.279,0.097-3.345,0.303c-0.461,0.085-0.618,0.521-0.533,0.897c-3.2,0.558-6.703,2.812-7.721,5.976l-3.03-0.4
			c0.279-0.739,0.255-1.564-0.17-2.364C58.083,106.933,55.937,105.818,54.483,106.642z"/>
		<path fill="#3E3E3D" d="M52.458,110.824c0.533,1.83,2.594,2.594,4.364,1.964c1.018-0.364,1.842-1.151,2.182-2.109l3.03,0.4
			c-0.206,0.63-0.303,1.297-0.291,1.988c0.133,5.358,5.879,7.903,10.521,6.849c4.63-1.055,9.491-5.115,8.909-10.303
			c-0.485-4.206-3.939-5.648-7.539-5.709l0.036-2.4c0.618,0,1.224-0.133,1.709-0.436c1.345-0.836,1.757-2.921,0.715-4.145
			C75.573,96.303,74.822,96,74.058,96l0.388-2.424c5.297,1.527,10.049,4.618,12.388,8.751c0.061,0.121,0.145,0.206,0.23,0.279
			c0.654,2.897,1.442,5.709,2.339,8.412c5.939,17.782,18.994,29.624,34.824,36.497c-2.4,5.006-4.279,10.315-5.806,15.709
			c-20.606-4.824-38.8-15.212-52.776-31.212c-4.291-4.921-11.2-13.091-13.649-21.03L52.458,110.824z"/>
		<path fill="#3E3E3D" d="M156.264,71.794c0.461,8.824-0.218,17.757-2.206,26.376c-2.17,9.454-7.188,16.509-17.576,17.006
			c-7.673,0.352-15.757-2.376-22.133-6.533c-7.091-4.618-12.497-11.879-13.951-20.303c-1.551-8.945,2.388-17.127,7.067-24.473
			c9.224-14.436,23.285-22.776,40.582-17.345C155.707,50.436,155.888,64.642,156.264,71.794z M138.058,77.83
			c0.085,1.248,2.036,1.261,1.951,0c-0.4-6.036-5.248-11.479-11.564-11.418c-4.933,0.049-12.061,4.8-10.776,10.436
			c0.061,0.291,0.449,0.303,0.594,0.085c2.497-3.903,4.17-8.206,9.612-8.545C133.295,68.061,137.658,72.63,138.058,77.83z"/>
		<path fill="#3E3E3D" d="M236.167,60.642c8.339,12.873,9.988,33.648-3.612,43.745c-15.346,11.382-29.503-3.127-36.242-16.473
			c-3.479-6.885-6.242-14.315-7.442-21.964c-1.115-7.079-1.479-21.236,6.994-23.236c0.17,0.17,0.412,0.267,0.703,0.23
			c1.188-0.146,2.376-0.23,3.564-0.279c0.024,0.012,0.049,0.012,0.073,0.012c0.012,0,0.036,0,0.049-0.012
			C214.519,42.097,228.203,48.339,236.167,60.642z M222.361,65.648c0.497,0.897,2.061,0.291,1.697-0.715
			c-2.049-5.588-9.624-8.121-14.691-5.006c-5.042,3.091-6.206,10.861-1.988,15.091c0.436,0.436,1.212-0.133,0.873-0.679
			c-2.521-3.988-2.291-10.048,2.097-12.751C214.785,58.861,220.082,61.503,222.361,65.648z"/>
		<path fill="#F5F5F5" d="M218.991,146.642c4.873,11.345,8.073,23.297,9.176,35.6c0.958,10.57,0.994,22.23-4.17,31.83
			c-9.442,17.576-33.345,21.952-51.442,22.751c-14.242,0.642-29.588-2.327-40.994-10.8c-0.073-0.582-0.582-0.861-1.055-0.8
			c-4.303-3.406-8-7.636-10.776-12.812c-10.473-19.467-0.546-44.921,6.182-64.194c15.103,6.158,32.521,7.939,48.654,6.145
			c0.97,0.303,2,0.449,3.042,0.497c0.133,0.073,0.291,0.109,0.473,0.097c13.927-0.764,27.818-3.455,40.897-8.352
			C218.991,146.618,218.991,146.63,218.991,146.642z"/>
		<path fill="#F5F5F5" d="M175.876,95.588c0.909,6.23,2.558,12.352,3.491,18.582c1.188,7.951,1.588,15.891,1.927,23.891
			c-2.339-0.315-4.703-1.6-6.751-3.83c-0.412-0.449-0.982,0.121-0.776,0.594c3.442,8.085,15.551,6.57,18.267-1.236
			c0.339-0.994-1.151-1.588-1.661-0.703c-1.842,3.224-4.4,4.909-7.115,5.212c0.17-13.624-0.994-29.697-5.891-42.594
			c2.485-1.951,6.836-6.267,6.279-9.673c-0.703-4.364-7.867-2.739-10.691-2.545c-2.703,0.182-7.83,0.327-7.236,4.376
			c0.57,3.818,6.303,7.139,9.588,8.097C175.561,95.83,175.743,95.733,175.876,95.588z M253.076,95.612
			c0.424,17.782-4.861,33.757-21.139,42.8c-15.733,8.751-34.242,13.127-52.133,14.388c-0.085-0.327-0.327-0.594-0.715-0.57
			c-30.497,2.327-65.66-2.049-82.836-31.006c-7.83-13.224-10.17-30.327-8.933-45.491c1.358-16.57,9.37-30.291,23.709-38.873
			c13.891-8.315,30.315-10.436,46.157-11.685c16.994-1.345,34.582-2.194,51.188,2.424c13.709,3.818,27.079,11.745,34.654,24.133
			C250.737,64.327,252.737,81.091,253.076,95.612z M239.803,99.854c8.121-12.303,5.636-29.358-2.291-41.079
			c-9.127-13.503-25.224-20.133-41.236-17.915c-0.485,0.073-0.715,0.485-0.739,0.921c-10.036,0.533-10.121,16.206-8.751,24.752
			c2.23,14.036,9.297,31.273,21.285,39.818C218.737,113.951,232.688,110.642,239.803,99.854z M229.961,130.024
			c4.57-1.576,7.915-5.855,5.236-10.594c-3.551-6.279-11.418-5.164-17.212-3.357c-0.303,0.097-0.4,0.351-0.364,0.582
			c-3.285,1.188-5.006,5.115-3.576,8.606C216.567,131.394,224.494,131.915,229.961,130.024z M157.707,89.939
			c1.249-9.442,1.091-19.03-0.4-28.436c-1.042-6.545-2.376-14.994-9.612-17.309c-0.4-0.133-0.703-0.012-0.921,0.206
			c-13.26-4.473-27.212,0.4-36.048,11.188c-8.897,10.861-16.327,24.909-10.8,38.97c5.273,13.43,19.733,22.085,33.854,22.751
			c6.133,0.303,12.546-1.224,16.764-5.927C155.585,105.757,156.761,97.103,157.707,89.939z M146.191,129.794
			c0.097-7.479-9.006-8.63-14.509-8.17c-0.145,0.012-0.242,0.061-0.327,0.133c-4.63,0.146-10.17,2.303-10.933,6.885
			c-1.091,6.461,8.861,9.055,13.406,9.551C139.125,138.776,146.107,136.085,146.191,129.794z"/>
		<path fill="#222221" d="M262.409,94.909c-1.454,1.285-1.285,4.242,1.091,4.194c0.994-0.024,2.048-0.667,1.988-1.77
			c-0.049-1.103-1.164-2.145-2.279-1.915C262.797,95.503,262.494,95.224,262.409,94.909z M262.967,94.133
			c1.806-0.327,3.551,0.982,3.879,2.788c0.291,1.624-0.788,2.994-2.255,3.467c-0.194,0.061-0.388,0.097-0.582,0.133
			c-1.757,0.267-3.539-0.727-3.867-2.558c-0.303-1.733,0.715-3.491,2.388-4.061C262.737,93.842,262.906,93.964,262.967,94.133z"/>
		<path fill="#222221" d="M221.064,128.885c3.176,0.836,7.442,0.291,10.291-1.406c5.164-3.067,2.836-9.139-2.012-10.788
			c-2.836-0.97-5.939-0.509-8.897,0.024c0.17,0.424-0.061,1.018-0.667,1.091C211.549,118.751,216.3,127.612,221.064,128.885z
			 M214.046,125.26c-1.43-3.491,0.291-7.418,3.576-8.606c-0.036-0.23,0.061-0.485,0.364-0.582
			c5.794-1.806,13.661-2.921,17.212,3.357c2.679,4.739-0.667,9.018-5.236,10.594C224.494,131.915,216.567,131.394,214.046,125.26z"
			/>
		<path fill="#222221" d="M117.67,76.848c-1.285-5.636,5.842-10.388,10.776-10.436c6.315-0.061,11.164,5.382,11.564,11.418
			c0.085,1.261-1.867,1.248-1.951,0c-0.4-5.2-4.764-9.77-10.182-9.442c-5.442,0.339-7.115,4.642-9.612,8.545
			C118.119,77.152,117.731,77.139,117.67,76.848z"/>
		<path fill="#222221" d="M175.307,95.758c-3.285-0.958-9.018-4.279-9.588-8.097c-0.594-4.049,4.533-4.194,7.236-4.376
			c2.824-0.194,9.988-1.818,10.691,2.545c0.558,3.406-3.794,7.721-6.279,9.673c4.897,12.897,6.061,28.97,5.891,42.594
			c2.715-0.303,5.273-1.988,7.115-5.212c0.509-0.885,2-0.291,1.661,0.703c-2.715,7.806-14.824,9.321-18.267,1.236
			c-0.206-0.473,0.364-1.042,0.776-0.594c2.048,2.23,4.412,3.515,6.751,3.83c-0.339-8-0.739-15.939-1.927-23.891
			c-0.933-6.23-2.582-12.351-3.491-18.582C175.743,95.733,175.561,95.83,175.307,95.758z"/>
		<path fill="#222221" d="M57.646,108.739c-0.739-1.176-2.109-1.309-3.333-0.945c-0.024,0.012-0.036,0-0.061,0
			c-0.424,0.618-0.655,1.382-0.594,2.121c0.121,1.358,1.346,2.012,2.606,1.661C57.501,111.224,58.434,109.976,57.646,108.739z
			 M54.483,106.642c1.455-0.824,3.6,0.291,4.352,1.673c0.424,0.8,0.448,1.624,0.17,2.364c-0.339,0.958-1.164,1.745-2.182,2.109
			c-1.77,0.63-3.83-0.133-4.364-1.964c-0.024-0.097-0.049-0.194-0.073-0.291C52.07,108.921,52.907,107.042,54.483,106.642z"/>
		<path fill="#222221" d="M79.367,110.703c0.255-5.261-5.018-5.079-8.691-4.958c-1.806,1.455-4.121,2.255-5.648,4.061
			c-3.915,4.606,1.733,9.03,6.315,8.279C74.931,117.503,79.173,114.727,79.367,110.703z M72.264,119.915
			c-4.642,1.054-10.388-1.491-10.521-6.849c-0.012-0.691,0.085-1.358,0.291-1.988c1.018-3.164,4.521-5.418,7.721-5.976
			c-0.085-0.376,0.073-0.812,0.533-0.897c1.067-0.206,2.218-0.327,3.345-0.303c3.6,0.061,7.055,1.503,7.539,5.709
			C81.755,114.8,76.895,118.86,72.264,119.915z"/>
		<path fill="#222221" d="M73.67,101.503c-1.394,0-2.897-0.691-3.515-1.818c-0.752-1.357,0.145-3.491,1.855-3.309
			c0.158,0.012,0.267,0.085,0.339,0.17C72.846,96.194,73.452,96,74.058,96c0.764,0,1.515,0.303,2.036,0.921
			c1.042,1.224,0.63,3.309-0.715,4.145C74.895,101.37,74.289,101.503,73.67,101.503z M71.731,97.358
			c-1.139,0.376-0.521,2.012,0.291,2.473c0.836,0.485,2.279,0.739,3.042,0.012c1.697-1.612-0.958-3.867-2.461-2.121
			C72.264,98.121,71.755,97.77,71.731,97.358z"/>
		<path fill="#222221" d="M281.694,104.061c1.115-0.242,2.073-1.285,1.527-2.449c-0.376-0.788-1.164-1.236-1.988-1.297
			c-0.885,0.339-1.539,1.03-1.648,2.061C279.464,103.648,280.543,104.315,281.694,104.061z M284.749,102.012
			c0.17,1.636-1.139,3.079-2.776,3.43c-0.958,0.206-1.915-0.012-2.63-0.533c-0.764-0.546-1.236-1.442-1.139-2.533
			c0.061-0.739,0.436-1.515,0.982-2.109c-0.121-0.255-0.085-0.582,0.218-0.812c1.721-1.297,4.376-0.121,5.139,1.733
			C284.664,101.467,284.724,101.745,284.749,102.012z"/>
		<path fill="#222221" d="M60.531,98.218c1.806-1.139,4.303-0.23,5.248,1.636c0.97,1.939-0.242,4.206-2.145,4.982
			c-2.17,0.897-4.594-0.545-4.982-2.836c-0.242-1.442,0.497-2.776,1.636-3.406C60.301,98.461,60.361,98.315,60.531,98.218z
			 M63.367,103.406c1.224-0.63,1.952-2.133,1.103-3.37c-0.497-0.703-1.309-1.103-2.146-1.164c-1.442,0.303-2.667,1.624-2.206,3.152
			C60.543,103.442,62.07,104.085,63.367,103.406z"/>
		<path fill="#222221" d="M209.367,59.927c5.067-3.115,12.642-0.582,14.691,5.006c0.364,1.006-1.2,1.612-1.697,0.715
			c-2.279-4.145-7.576-6.788-12.012-4.061c-4.388,2.703-4.618,8.764-2.097,12.751c0.339,0.545-0.436,1.115-0.873,0.679
			C203.161,70.788,204.325,63.018,209.367,59.927z"/>
		<path fill="#222221" d="M196.276,40.861c16.012-2.218,32.109,4.412,41.236,17.915c7.927,11.721,10.412,28.776,2.291,41.079
			c-7.115,10.788-21.067,14.097-31.733,6.497c-11.988-8.546-19.054-25.782-21.285-39.818c-1.37-8.545-1.285-24.218,8.751-24.752
			C195.561,41.346,195.791,40.933,196.276,40.861z M200.203,42.679c-0.024,0-0.048,0-0.073-0.012
			c-1.188,0.049-2.376,0.133-3.564,0.279c-0.291,0.036-0.533-0.061-0.703-0.23c-8.473,2-8.109,16.158-6.994,23.236
			c1.2,7.648,3.964,15.079,7.442,21.964c6.739,13.345,20.897,27.854,36.242,16.473c13.6-10.097,11.951-30.873,3.612-43.745
			c-7.964-12.303-21.648-18.545-35.915-17.976C200.24,42.679,200.216,42.679,200.203,42.679z"/>
		<path fill="#222221" d="M133.779,117.309c-14.121-0.667-28.582-9.321-33.854-22.751c-5.527-14.061,1.903-28.109,10.8-38.97
			c8.836-10.788,22.788-15.661,36.048-11.188c0.218-0.218,0.521-0.339,0.921-0.206c7.236,2.315,8.57,10.764,9.612,17.309
			c1.491,9.406,1.648,18.994,0.4,28.436c-0.945,7.164-2.121,15.818-7.164,21.442C146.325,116.085,139.913,117.612,133.779,117.309z
			 M100.398,88.339c1.454,8.424,6.861,15.685,13.951,20.303c6.376,4.158,14.46,6.885,22.133,6.533
			c10.388-0.497,15.406-7.551,17.576-17.006c1.988-8.618,2.667-17.552,2.206-26.376c-0.376-7.152-0.558-21.358-8.218-25.273
			c-17.297-5.43-31.357,2.909-40.582,17.345C102.786,71.212,98.846,79.394,100.398,88.339z"/>
		<path fill="#222221" d="M258.082,19.855C244.615,6.8,219.319,9.055,210.47,26c3.697,1.103,7.321,2.461,10.836,4.157
			c13.6,6.57,24.073,17.467,28.764,31.952c0.17,0.533,0.339,1.091,0.509,1.636c0.121-0.182,0.291-0.327,0.557-0.4
			c8.994-2.315,13.358-13.212,14.158-21.648C266.046,33.806,263.9,25.491,258.082,19.855z M172.967,290.399
			c4.182,7.091,11.879,11.115,20.109,8.133c8.315-3.03,10.57-11.285,11.757-19.2c2.473-16.509,4.242-33.115,6.012-49.721
			c-4.679,2.667-9.879,4.63-15.224,6.012c-8.255,2.146-17.127,3.503-25.964,3.588c0.036,0.073,0.061,0.158,0.073,0.242
			c1.127,8.848,1.333,17.855,1.915,26.752C172.155,274.06,173.658,282.545,172.967,290.399z M134.579,264.278
			c1.43,11.43,2.109,26.097,13.091,32.812c5.103,3.115,14.279,4.255,19.309,0.158c6-4.873,3.697-13.842,3.273-20.57
			c-0.788-12.352-2.158-24.848-2.182-37.224c0-0.085,0.024-0.158,0.048-0.23c-9.091-0.061-18.121-1.515-26.376-4.933
			c-3.515-1.455-6.921-3.333-10.073-5.564C132.082,240.642,133.113,252.436,134.579,264.278z M125.913,148.218
			c-6.727,19.273-16.654,44.727-6.182,64.194c2.776,5.176,6.473,9.406,10.776,12.812c0.473-0.061,0.982,0.218,1.055,0.8
			c11.406,8.473,26.751,11.442,40.994,10.8c18.097-0.8,42-5.176,51.442-22.751c5.164-9.6,5.127-21.26,4.17-31.83
			c-1.103-12.303-4.303-24.255-9.176-35.6c0-0.012,0-0.024-0.012-0.036c-13.079,4.897-26.97,7.588-40.897,8.352
			c-0.182,0.012-0.339-0.024-0.473-0.097c-1.042-0.048-2.073-0.194-3.042-0.497C158.434,156.157,141.016,154.376,125.913,148.218z
			 M87.319,75.733c-1.236,15.164,1.103,32.267,8.933,45.491c17.176,28.957,52.339,33.333,82.836,31.006
			c0.388-0.024,0.63,0.242,0.715,0.57c17.891-1.261,36.4-5.636,52.133-14.388c16.279-9.042,21.564-25.018,21.139-42.8
			c-0.339-14.521-2.339-31.285-10.048-43.879c-7.576-12.388-20.945-20.315-34.654-24.133c-16.606-4.618-34.194-3.77-51.188-2.424
			c-15.842,1.249-32.267,3.37-46.157,11.685C96.689,45.442,88.676,59.164,87.319,75.733z M75.246,27.927
			C62.652,41.733,68.786,62.473,85.986,68.57c0.061,0.024,0.109,0.061,0.158,0.097c0.485-2.424,1.079-4.8,1.842-7.091
			c4.836-14.606,16.509-24.921,30.424-30.764c0.703-0.291,1.406-0.558,2.109-0.824c-0.024-0.024-0.049-0.024-0.061-0.049
			C108.507,17.127,87.792,14.182,75.246,27.927z M51.998,110.982c2.449,7.939,9.358,16.109,13.649,21.03
			c13.976,16,32.17,26.388,52.776,31.212c1.527-5.394,3.406-10.703,5.806-15.709c-15.83-6.873-28.885-18.715-34.824-36.497
			c-0.897-2.703-1.685-5.515-2.339-8.412c-0.085-0.073-0.17-0.157-0.23-0.279c-2.339-4.133-7.091-7.224-12.388-8.751
			c-7.018-2.012-15.006-1.309-19.709,3.333C50.713,100.873,50.434,105.879,51.998,110.982z M276.349,128.715
			c6.364-7.03,11.624-17.164,10.073-26.945c-0.085-0.497-0.182-0.982-0.291-1.479c-3.091-13.333-16.618-13.139-26.303-7.758
			c-1.261,0.715-2.473,1.503-3.576,2.376c-0.267,0.206-0.57,0.267-0.849,0.23c0.048,4.63-0.23,9.188-0.873,13.539
			c-2.279,15.612-11.042,26.618-25.139,33.479c-2.752,1.345-5.564,2.558-8.4,3.685c1.455,3.394,2.824,6.97,4.073,10.667
			C242.688,148.618,262.943,143.479,276.349,128.715z M282.543,90.279c7.709,6.17,7.236,17.648,4.073,26.048
			c-9.103,24.23-38.642,34.048-60.994,41.879c5.2,16.145,7.794,34.436,3.03,50.158c-2.703,8.909-8.485,15.382-15.745,20
			c0.048,0.121,0.061,0.255,0.048,0.412c-1.176,12.691-2.691,25.37-4.351,38.012c-1.152,8.703-1.115,19.758-6.376,27.176
			c-7.564,10.655-23.636,9.418-29.673-1.297c-2.315,8.412-13.127,10.606-20.958,8.388c-12.218-3.467-16.206-15.733-17.879-27.042
			c-2.279-15.382-4.327-31.224-4.073-46.8c-7.891-6.206-13.879-14.764-15.661-24.788c-1.661-9.37-0.049-19.273,1.855-28.509
			c0.63-3.067,1.357-6.158,2.182-9.236c-26.897-3.915-51.854-23.139-65.042-46.606c-5.527-9.842-5.794-23.455,7.333-26.618
			c8.23-1.976,19.745-0.57,25.757,6.085c-1.539-9.091-1.757-18.667-0.17-27.6c-0.085,0.012-0.182,0.012-0.291-0.012
			c-18.824-3.648-24.509-27.37-13.6-41.503c12.752-16.545,36.521-14.436,49.976-0.012c0.267,0.291,0.327,0.618,0.267,0.921
			c15.345-5.527,32.4-6.521,48.509-7.176c12.788-0.521,25.891-0.024,38.23,3.406c7.806-19.782,37.515-20.642,51.139-6.582
			c11.455,11.818,10.121,41.745-8.436,46.388c-0.255,0.061-0.461,0.012-0.655-0.061c2.497,8.655,4.048,18.218,4.327,27.588
			C263.125,87.067,274.118,83.527,282.543,90.279z"/>
		<path fill="#222221" d="M132.555,136.073c2.679,0.521,5.818,0.558,8.255-0.885c2.873-1.709,3.673-3.842,2.715-6.982
			c-0.946-3.103-2.376-4.291-5.503-5.042c-0.836-0.194-1.709-0.291-2.582-0.352c0.012,0.424-0.255,0.861-0.764,0.836
			c-1.842-0.121-3.745-0.267-5.564,0.182c-3.176,0.788-9.612,3.927-4.533,9.297C126.119,134.776,130.385,135.648,132.555,136.073z
			 M133.828,138.194c-4.545-0.497-14.497-3.091-13.406-9.551c0.764-4.582,6.303-6.739,10.933-6.885
			c0.085-0.073,0.182-0.121,0.327-0.133c5.503-0.461,14.606,0.691,14.509,8.17C146.107,136.085,139.125,138.776,133.828,138.194z"/>
		<path fill="#222221" d="M274.579,98.133c2.861-0.109,2.473-3.879,0.194-4.533c-0.097,0.097-0.23,0.17-0.4,0.182
			c-1.188,0.158-2.109,1.406-2.024,2.582C272.421,97.539,273.488,98.182,274.579,98.133z M274.579,99.612
			c-1.952,0.061-3.733-1.321-3.721-3.37c0.012-1.964,1.527-3.745,3.515-3.83c0.291-0.024,0.473,0.109,0.582,0.291
			c1.697,0.17,3.067,1.733,3.139,3.455C278.167,98.145,276.47,99.539,274.579,99.612z"/>
		<path fill="#222221" d="M278.167,109.551c-3.37-6.036-13.03-8.242-17.358-2.546c-0.012,0.073-0.012,0.146-0.049,0.23
			c-1.915,4.485,6.521,7.673,9.467,8.436c1.406,0.364,3.03,0.8,4.497,0.654C279.318,115.879,280.058,112.957,278.167,109.551z
			 M276.967,105.261c2.655,2.133,4.4,5.079,4.024,8.4c-1.151,10.048-23.721,2.473-22.061-5.758c-0.012-0.049-0.012-0.109,0-0.158
			c0.764-3.418,3.115-5.224,6-5.806C268.785,101.151,273.609,102.558,276.967,105.261z"/>
	</g>
	<g>
		<path fill="#DE97C7" d="M70.074,209.808c-2.28-0.47-4.77-0.46-7.09-0.6c-0.49-0.03-0.47,0.69,0,0.74
			c2.28,0.25,4.69,0.69,6.99,0.62C70.394,210.558,70.514,209.898,70.074,209.808z M58.874,205.978c3.36,1.24,7,2.15,10.6,2.02
			c0.47-0.02,0.44-0.65,0-0.71c-3.56-0.44-6.97-0.92-10.38-2.09C58.594,205.028,58.384,205.808,58.874,205.978z M60.454,223.708
			c-0.43-1.77-4.39-20.68-4.67-20.68c0.66-0.01,0.92-0.57,0.82-1.06c18.38,3.51,37.35,4.79,55.98,6.13
			c19.26,1.38,38.57,2.16,57.88,2.34c28.31,0.28,56.62-0.76,84.84-3.06c0.26,0.15,0.58,0.16,0.86,0.01
			c0.05-0.03,0.11-0.06,0.17-0.09c10.26-0.84,20.51-1.85,30.74-3.02c0.4-0.05,0.65-0.31,0.77-0.62l0.48,0.08
			c-0.06,0.1-0.1,0.22-0.11,0.36c-1.63,15.21-1.63,30.41-7.2,44.81c-35.8,2.05-71.63,4.08-107.5,3.97
			c-17.72-0.05-35.45-0.62-53.12-1.98c-18.43-1.43-36.58-4.26-54.86-6.87c0-0.02,0-0.05,0-0.07
			C64.144,237.148,62.124,230.448,60.454,223.708z M206.924,247.308c2.51,0.8,5.13,0.91,7.67,0.2c0.47-0.13,0.27-0.87-0.2-0.74
			c-2.47,0.65-4.86,0.71-7.33,0.03C206.734,246.708,206.604,247.208,206.924,247.308z M213.584,249.448
			c0.43-0.07,0.33-0.82-0.11-0.78c-4.54,0.47-8.94,0.61-13.48,0.02c-0.32-0.04-0.4,0.52-0.07,0.57
			C204.434,249.958,209.044,250.148,213.584,249.448z"/>
		<path fill="#D266AD" d="M290.484,196.938c0.44,0.01,0.44-0.69,0-0.68l-6,0.03c-0.4,0-0.4,0.62,0,0.62L290.484,196.938z
			 M295.364,198.138c-2.47,0.34-4.89,0.62-7.38,0.64c-0.44,0-0.44,0.68,0,0.68c2.53,0.04,5.1-0.07,7.59-0.54
			C296.094,198.818,295.864,198.068,295.364,198.138z M319.104,216.598c7.32,5.99,14.86,11.98,22.97,16.87
			c-9.23,2.67-18.36,4.86-28,5.61c-9.29,0.73-18.48,0.15-27.73-0.78c0.55-2.6,0.91-5.24,1.22-7.84c1.03-8.74,1.75-17.58,2.37-26.36
			c0.07-0.97-1.21-1.07-1.61-0.36l-0.48-0.08c0.01-0.05,0.03-0.09,0.04-0.14c0.4-0.22,0.4-0.98-0.14-1.12
			c-9.68-2.5-18.93-5.06-27.94-9.22c6.5,1.47,13.81,1.29,20.29,1.56c8.68,0.36,17.38,0.36,26.06,0.02c8.36-0.34,16.71-1,25.02-1.99
			c3.55-0.42,7.21-1.25,10.77-1.46c1.1-0.06,2.29,0.23,3.33,0.09c-7.28,9.38-15.99,17.36-25.99,23.8
			C318.844,215.478,318.634,216.218,319.104,216.598z M328.774,229.798c-1.87-2.04-4.62-3.59-7.19-4.54
			c-0.29-0.1-0.49,0.37-0.21,0.5c2.58,1.24,4.64,2.8,6.85,4.59C328.604,230.658,329.114,230.178,328.774,229.798z M328.654,227.448
			c-1.65-1.56-3.4-2.9-4.9-4.62c-0.3-0.35-0.8,0.16-0.5,0.5c1.43,1.69,3.06,3.52,4.97,4.68
			C328.564,228.208,328.954,227.728,328.654,227.448z"/>
		<path fill="#D266AD" d="M282.954,202.938c-8.97,0.99-17.94,1.86-26.93,2.59c0.44-1.32,0.46-8.7,0.47-11.94
			C264.794,197.778,273.754,201.318,282.954,202.938z"/>
		<path fill="#D266AD" d="M79.674,190.958c-0.55,3.99,0.04,8.37,0.9,12.26c-7.75-0.81-15.52-1.59-23.29-2.16
			C64.844,197.938,72.244,194.378,79.674,190.958z"/>
		<path fill="#D266AD" d="M30.874,228.858c-8.7-2.09-17.14-5.06-25.56-8.09c6.59-3.34,12.84-7.42,19.04-11.42
			c0.46-0.3,0.62-0.99,0.18-1.4c-7.46-6.85-12.7-15-16.37-24.35c21.14,9.44,44.44,9.83,67.13,7.42c-6.96,3.15-13.97,6.27-20.74,9.8
			c-0.38,0.2-0.36,0.69-0.13,0.98c-0.95,1.88-0.06,3.77,0.38,5.77c0.91,4.01,1.84,8.01,2.8,12.01c0.97,4.01,1.9,8.07,2.91,12.11
			c-4.67-0.21-9.35,0.2-14.05-0.2C41.204,231.048,36.004,230.098,30.874,228.858z M24.474,223.978c0.39-0.01,0.5-0.64,0.1-0.7
			c-3.91-0.57-7.43-1.28-11.12-2.75c-0.3-0.12-0.51,0.38-0.22,0.53C16.644,222.798,20.634,223.988,24.474,223.978z M18.794,220.408
			c2.31,1.13,5.1,1.83,7.69,1.61c0.51-0.04,0.52-0.77,0-0.81c-2.62-0.19-4.94-0.56-7.4-1.47
			C18.694,219.588,18.424,220.228,18.794,220.408z"/>
		<path fill="#222221" d="M323.754,222.828c1.5,1.72,3.25,3.06,4.9,4.62c0.3,0.28-0.09,0.76-0.43,0.56
			c-1.91-1.16-3.54-2.99-4.97-4.68C322.954,222.988,323.454,222.478,323.754,222.828z"/>
		<path fill="#222221" d="M321.584,225.258c2.57,0.95,5.32,2.5,7.19,4.54c0.34,0.38-0.17,0.86-0.55,0.55
			c-2.21-1.79-4.27-3.35-6.85-4.59C321.094,225.628,321.294,225.158,321.584,225.258z"/>
		<path fill="#222221" d="M290.484,196.258c0.44-0.01,0.44,0.69,0,0.68l-6-0.03c-0.4,0-0.4-0.62,0-0.62L290.484,196.258z"/>
		<path fill="#222221" d="M287.984,198.778c2.49-0.02,4.91-0.3,7.38-0.64c0.5-0.07,0.73,0.68,0.21,0.78
			c-2.49,0.47-5.06,0.58-7.59,0.54C287.544,199.458,287.544,198.778,287.984,198.778z"/>
		<path fill="#222221" d="M214.594,247.508c-2.54,0.71-5.16,0.6-7.67-0.2c-0.32-0.1-0.19-0.6,0.14-0.51
			c2.47,0.68,4.86,0.62,7.33-0.03C214.864,246.638,215.064,247.378,214.594,247.508z"/>
		<path fill="#222221" d="M213.474,248.668c0.44-0.04,0.54,0.71,0.11,0.78c-4.54,0.7-9.15,0.51-13.66-0.19
			c-0.33-0.05-0.25-0.61,0.07-0.57C204.534,249.278,208.934,249.138,213.474,248.668z"/>
		<path fill="#222221" d="M59.094,205.198c3.41,1.17,6.82,1.65,10.38,2.09c0.44,0.06,0.47,0.69,0,0.71
			c-3.6,0.13-7.24-0.78-10.6-2.02C58.384,205.808,58.594,205.028,59.094,205.198z"/>
		<path fill="#222221" d="M62.984,209.208c2.32,0.14,4.81,0.13,7.09,0.6c0.44,0.09,0.32,0.75-0.1,0.76
			c-2.3,0.07-4.71-0.37-6.99-0.62C62.514,209.898,62.494,209.178,62.984,209.208z"/>
		<path fill="#222221" d="M26.484,222.018c-2.59,0.22-5.38-0.48-7.69-1.61c-0.37-0.18-0.1-0.82,0.29-0.67
			c2.46,0.91,4.78,1.28,7.4,1.47C27.004,221.248,26.994,221.978,26.484,222.018z"/>
		<path fill="#222221" d="M13.454,220.528c3.69,1.47,7.21,2.18,11.12,2.75c0.4,0.06,0.29,0.69-0.1,0.7
			c-3.84,0.01-7.83-1.18-11.24-2.92C12.944,220.908,13.154,220.408,13.454,220.528z"/>
		<path fill="#222221" d="M79.674,190.958c-7.43,3.42-14.83,6.98-22.39,10.1c7.77,0.57,15.54,1.35,23.29,2.16
			C79.714,199.328,79.124,194.948,79.674,190.958z M54.554,200.818c6.77-3.53,13.78-6.65,20.74-9.8
			c-22.69,2.41-45.99,2.02-67.13-7.42c3.67,9.35,8.91,17.5,16.37,24.35c0.44,0.41,0.28,1.1-0.18,1.4c-6.2,4-12.45,8.08-19.04,11.42
			c8.42,3.03,16.86,6,25.56,8.09c5.13,1.24,10.33,2.19,15.59,2.63c4.7,0.4,9.38-0.01,14.05,0.2c-1.01-4.04-1.94-8.1-2.91-12.11
			c-0.96-4-1.89-8-2.8-12.01c-0.44-2-1.33-3.89-0.38-5.77C54.194,201.508,54.174,201.018,54.554,200.818z M256.024,205.528
			c8.99-0.73,17.96-1.6,26.93-2.59c-9.2-1.62-18.16-5.16-26.46-9.35C256.484,196.828,256.464,204.208,256.024,205.528z
			 M173.514,252.878c35.87,0.11,71.7-1.92,107.5-3.97c5.57-14.4,5.57-29.6,7.2-44.81c0.01-0.14,0.05-0.26,0.11-0.36
			c0.4-0.71,1.68-0.61,1.61,0.36c-0.62,8.78-1.34,17.62-2.37,26.36c-0.31,2.6-0.67,5.24-1.22,7.84c9.25,0.93,18.44,1.51,27.73,0.78
			c9.64-0.75,18.77-2.94,28-5.61c-8.11-4.89-15.65-10.88-22.97-16.87c-0.47-0.38-0.26-1.12,0.18-1.4c10-6.44,18.71-14.42,25.99-23.8
			c-1.04,0.14-2.23-0.15-3.33-0.09c-3.56,0.21-7.22,1.04-10.77,1.46c-8.31,0.99-16.66,1.65-25.02,1.99
			c-8.68,0.34-17.38,0.34-26.06-0.02c-6.48-0.27-13.79-0.09-20.29-1.56c9.01,4.16,18.26,6.72,27.94,9.22
			c0.54,0.14,0.54,0.9,0.14,1.12c-0.01,0.05-0.03,0.09-0.04,0.14c-0.12,0.31-0.37,0.57-0.77,0.62c-10.23,1.17-20.48,2.18-30.74,3.02
			c-0.06,0.03-0.12,0.06-0.17,0.09c-0.28,0.15-0.6,0.14-0.86-0.01c-28.22,2.3-56.53,3.34-84.84,3.06
			c-19.31-0.18-38.62-0.96-57.88-2.34c-18.63-1.34-37.6-2.62-55.98-6.13c0.1,0.49-0.16,1.05-0.82,1.06c0.28,0,4.24,18.91,4.67,20.68
			c1.67,6.74,3.69,13.44,5.08,20.25c0,0.02,0,0.05,0,0.07c18.28,2.61,36.43,5.44,54.86,6.87
			C138.064,252.258,155.794,252.828,173.514,252.878z M281.924,249.828c-0.03,0.42-0.31,0.84-0.85,0.87
			c-36.46,2.09-72.96,4.15-109.5,3.97c-35.41-0.18-72.24-1.43-106.87-9.49c-0.4-0.09-0.51-0.42-0.43-0.71
			c-0.03-0.05-0.06-0.09-0.08-0.14c-1.3-3.76-2.39-7.61-3.38-11.49c-8.71,2.17-19.05,0.26-27.64-1.61
			c-10.58-2.3-20.83-5.95-30.97-9.7c-1.07-0.39-0.61-2.11,0.47-1.72c0.28,0.11,0.57,0.21,0.85,0.31
			c6.22-4.04,12.68-7.69,18.93-11.68c-7.43-7.06-13.25-15.74-16.41-25.54c-0.18-0.55,0.17-0.91,0.6-1.01
			c0.23-0.36,0.7-0.6,1.19-0.37c22.67,10.54,48.08,10.12,72.39,7.18c0.13-0.1,0.3-0.11,0.46-0.05c0.01-0.01,0.02-0.01,0.03-0.01
			c0.85-0.1,1.2,1.26,0.46,1.63c0.44,4.4,0.46,8.74,1.24,13.15c10.7,1.12,21.4,2.27,32.13,3.02c18.94,1.32,37.92,2.06,56.9,2.22
			c27.66,0.24,55.32-0.78,82.88-2.99c-0.08-0.6-0.01-1.25,0-2c0.09-3.85,0.26-7.69,0.39-11.54c0.03-0.7,0.74-1.09,1.35-0.77
			c0.26,0.13,0.53,0.25,0.79,0.38c0.05-0.02,0.08-0.05,0.14-0.06c7.48-0.68,15.57,0.96,23.1,1.27c7.72,0.32,15.45,0.36,23.17,0.12
			c7.72-0.24,15.43-0.75,23.12-1.55c4.4-0.46,8.79-1.01,13.17-1.65c0.23-0.04,3.28-0.51,5.2-0.43c0.08-0.38,0.47-0.57,0.82-0.61
			c0.62-0.07,0.88,0.01,1.27,0.51c0.26,0.34,0.32,0.74,0.11,1.09c0.48,0.19,0.8,0.68,0.41,1.2c-7.33,9.6-16.07,17.76-26.13,24.4
			c7.34,5.94,15.07,11.29,22.58,17.01c0.15,0.11,0.23,0.26,0.26,0.41c0.26,0.41,0.18,1.07-0.43,1.3
			c-17.79,6.65-38.93,8.46-57.57,4.75C285.224,243.148,283.964,246.678,281.924,249.828z"/>
	</g>
</g>
<g id="TEXTURE">
</g>
<g id="DESIGNED_BY_FREEPIK">
</g>
</svg>
