<svg xmlns="http://www.w3.org/2000/svg" viewBox="0 0 50 50"><path d="M16.5 1c-1.363 0-2.473.36-3.406.75-.934.39-1.703.793-2.625 1.031-1.356.348-2.426.106-4.813.594-.968.2-1.886.863-2.25 1.844C3.043 6.199 3 7.367 3 9.125c0 1.54.105 9.086 0 11.656-.11 2.649-.355 4.809-1.031 6.188-1.098 2.242-2 5.402-2 8.406 0 1.102.117 1.91.25 2.469.031.133.058.207.093.312a1.784 1.784 0 0 0-.28.969v.031l.28 7.219s.032.059.032.063c0 .058-.008.394.219.75.246.386.812.718 1.406.718.34 0 2.125.063 2.125.063a.753.753 0 0 0 .187 0s.196-.024.438-.125c.12-.051.265-.14.437-.313.157-.156.29-.437.313-.75 0 .117-.035.106.031.313.074.238.285.52.563.687.277.168.562.219.812.219h4.5a1.07 1.07 0 0 0 .219-.031s.23-.04.5-.188.75-.562.75-1.218v-2.157c.242.028.496.032.812.063.852.082 1.934.191 3 .281 1.91.164 3.383.285 3.75.313-.011.296-.031.624-.031.624a.987.987 0 0 0 .063.438s.093.27.28.469c.188.199.524.383.907.468.387.086.93.153 1.469.22l1 .124a.753.753 0 0 0 .187 0s.211.004.469-.062a1.86 1.86 0 0 0 .5-.219c.203-.125.563-.453.563-.969 0 .051.023-.086.03-.125.095 0 .141.004.22 0 .003.028-.004.063 0 .094.042.242.062.438.062.438h.063c.007.124-.016.277.156.562.226.383.832.758 1.406.719-.152.011.14-.008.375 0 .234.008.55.015.844.031a64.4 64.4 0 0 1 1.125.063c.05.003.105.003.156 0 0 0 .34-.047.625-.25.277-.2.516-.637.563-1.063h.03v-.031c.012-.184.005-.239 0-.407.321-.003.575.004.97 0 .332-.003.656 0 .906 0 .078 0 .054-.003.125 0l.031.594c.023.211.11.407.25.563 0 0 .223.426.906.593.305.079.301.032.407.032.105 0 .218.008.343 0 .25-.016.559-.035.844-.063.574-.05 1.094-.125 1.094-.125.32-.023.61-.195.781-.468 0 0 .094-.18.188-.376.046-.097.078-.207.124-.343.024-.07.075-.13.094-.25.004-.016-.035-.074-.031-.094a.925.925 0 0 0-.063-.5c.086.215.098.348.094.406-.004.032.004.047 0 .063.028-.082.067-.207.125-.344.047-.105.055-.129.094-.219.375-.082.734-.148 1.031-.218.035.05.059.101.094.156.11.168.176.246.219.312.015.063 0 .051.031.125.07.157.2.375.469.532.27.156.633.152.875.093-.055.016.136-.027.343-.062.208-.035.465-.082.72-.125.503-.086 1-.157 1-.157a.996.996 0 0 0 .624-.374l.313-.438c.105-.148.172-.32.187-.5l.125-1c.121-.047.25-.105.375-.156.153-.059.164-.078.282-.125l.28.468c.098.16.239.29.407.376 0 0 .14.078.313.124.171.047.414.102.812-.03.25-.083.281-.102.469-.188.187-.086.398-.176.625-.282.449-.207.875-.406.875-.406.222-.101.398-.277.5-.5 0 0 .058-.148.125-.343a3.5 3.5 0 0 0 .093-.376c.028-.14.094-.285-.03-.656-.005-.011.003-.02 0-.031-.016-.066-.044-.168-.063-.281-.043-.23-.074-.54-.125-.844-.051-.305-.121-.621-.157-.875-.035-.254-.062-.48-.062-.438-.004-.421-.23-.769-.469-1-.023-.953-.21-2.832-1.281-4.312-1.363-1.883-3.68-2.855-5.75-2.781-1.648.058-2.66.523-3.25.781-.59.258-.629.332-1.5.063-1.004-.31-1.727-.633-2.063-.782-.117-1.152-.59-2.164-1.437-2.75-1.066-.738-2.41-1.054-3.813-1.312-1.917-.352-2.972-.438-4.75-1.625-.816-.543-1.292-1.125-1.718-2.125-.426-1-.758-2.446-1.125-4.438-.2-1.09-.317-3.968-.344-6.906-.027-2.938 0-6.012 0-7.781 0-1.227-.883-2.157-1.906-2.688C19.07 1.25 17.828 1 16.5 1zm0 2c1.059 0 2.055.234 2.688.563.632.328.812.609.812.906 0 1.746-.027 4.847 0 7.812s.098 5.739.375 7.25c.375 2.032.707 3.574 1.25 4.844.543 1.27 1.324 2.258 2.438 3 2.078 1.387 3.683 1.602 5.53 1.938 1.305.238 2.423.546 3.032.968.594.41.82.774.719 1.688-.004.027.004.035 0 .062a.88.88 0 0 0-.032.094c-.09.535-.574 1.54-1.187 2.563-.633 1.058-1.348 2.117-1.844 3a1.007 1.007 0 0 0-.082 1.058A1.003 1.003 0 0 0 32 38.687c.418-.742 1.168-1.84 1.844-2.968.453-.758.687-1.543.968-2.313.504.215.91.43 1.844.719 1.246.383 2.239.105 2.907-.188.667-.292 1.156-.546 2.5-.593 1.312-.047 3.183.722 4.062 1.937.652.903.797 2.367.844 3.094-.684.348-4.106 2.035-10.844 2.688-6.777.656-11.738.695-20.344-1.907-1.539-.465-3.293-.652-4.906-.75-1.613-.097-3.11-.133-3.906-.25-3.735-.558-4.54-.707-4.782-.75-.003-.023.008-.008 0-.031a8.463 8.463 0 0 1-.218-2c0-2.586.851-5.54 1.812-7.5a9.283 9.283 0 0 0 .625-1.75c1.88.96 7.492 4.148 9.719 9.406.215.508.805.746 1.313.532.507-.215.746-.805.53-1.313C13.103 27.977 5.86 24.559 4.75 24.062A41.81 41.81 0 0 0 5 20.845c.113-2.782 0-10.282 0-11.719 0-1.7.11-2.758.281-3.219.172-.46.188-.472.782-.593 2.117-.434 3.136-.137 4.906-.594 1.172-.301 2.07-.778 2.906-1.125C14.711 3.246 15.477 3 16.5 3zm1.219 2.656A1.23 1.23 0 0 0 16.5 6.875c0 .664.555 1.188 1.219 1.188s1.187-.524 1.187-1.188c0-.664-.523-1.219-1.187-1.219zm-.094 5.282c-.664 0-1.188.554-1.188 1.218 0 .664.524 1.188 1.188 1.188.664 0 1.219-.524 1.219-1.188a1.23 1.23 0 0 0-1.219-1.219zm.156 4.968c-.664 0-1.187.555-1.187 1.219s.523 1.188 1.187 1.188S19 17.788 19 17.125a1.23 1.23 0 0 0-1.219-1.219zm.719 5.5c-.664 0-1.188.524-1.188 1.188 0 .664.524 1.218 1.188 1.218a1.23 1.23 0 0 0 1.219-1.218c0-.664-.555-1.188-1.219-1.188zm2.406 4.344c-.664 0-1.187.555-1.187 1.219s.523 1.187 1.187 1.187 1.219-.523 1.219-1.187a1.23 1.23 0 0 0-1.219-1.219zm3.782 2.719a1.23 1.23 0 0 0-1.22 1.218c0 .665.555 1.188 1.22 1.188.664 0 1.187-.523 1.187-1.188 0-.664-.523-1.218-1.188-1.218zM29.405 30c-.664 0-1.218.523-1.218 1.188a1.23 1.23 0 0 0 1.218 1.218c.664 0 1.188-.554 1.188-1.218 0-.665-.524-1.188-1.188-1.188zM2.031 39.406c.688.121 1.883.336 4.656.75 1.067.16 2.5.157 4.063.25 1.563.094 3.223.278 4.469.657 8.82 2.664 14.226 2.632 21.093 1.968 5.77-.558 9.676-2.008 11.313-2.718.031.246.047.507.094.78.054.317.11.63.156.876.016.086.02.152.031.218-.156.075-.199.094-.406.188-.152.07-.297.125-.438.188l-.25-.376a.999.999 0 0 0-.75-.468l-.53-.063a1.016 1.016 0 0 0-.47.063s-.328.152-.656.281c-.164.063-.316.113-.437.156-.063.02-.137.055-.157.063-.238.05-.449.176-.562.281-.145.137-.203.25-.25.344a1.652 1.652 0 0 0-.156.406c-.051.23-.063.438-.063.438l-.062.718c-.188.032-.258.047-.532.094-.199.035-.378.063-.562.094-.027-.047-.031-.047-.063-.094-.074-.117-.144-.234-.218-.344-.074-.11-.078-.14-.282-.343-.343-.344-.535-.333-.687-.376-.152-.042-.25-.062-.25-.062a1.016 1.016 0 0 0-.406 0s-1.457.348-1.594.375c-.246.05-.477.152-.656.281a1.04 1.04 0 0 0-.219.188 1.088 1.088 0 0 0-.125.218l-.031.032s-.145.277-.282.593c-.066.157-.132.34-.187.5-.027.079-.04.145-.063.25-.003.016.004.047 0 .063-.195.02-.25.008-.5.031-.222.02-.433.051-.624.063l-.032-.594a1.005 1.005 0 0 0-.343-.656s-.305-.446-1.063-.532c-.246-.027-.39 0-.656 0s-.57-.003-.907 0c-.667.008-1.386 0-1.624 0a1.27 1.27 0 0 0-.844.344c-.18.172-.285.336-.344.469-.121.262-.156.5-.156.5a.753.753 0 0 0 0 .188v.218c-.18-.008-.192-.02-.407-.031-.296-.016-.597-.023-.843-.031-.078-.004-.133.004-.188 0-.004-.032.004-.032 0-.063-.039-.215-.062-.55-.062-.406 0-.383-.219-.684-.375-.844a1.591 1.591 0 0 0-.407-.312c-.226-.114-.406-.157-.406-.157a1.009 1.009 0 0 0-.375 0s-.457.04-.843 0c-.418-.042-.887-.003-1.25.344-.243.235-.196.446-.22.657L24 45.03s-.059.168-.094.344c-.183-.02-.258-.023-.562-.063-.399-.05-.742-.113-1-.156.015-.281.058-.426.031-.75-.047-.55-.504-1.039-.844-1.187-.285-.125-.457-.094-.531-.094v-.031h-.094c-.09-.008-2.02-.168-4.093-.344-1.063-.09-2.133-.168-2.97-.25-.417-.043-.773-.094-1.03-.125-.13-.016-.243-.02-.313-.031-.277-.094-.707-.145-1.094.093a1.235 1.235 0 0 0-.562.844c-.047.285.004.328.031.438h-.031V46H7.438c-.012-.484-.032-1.156-.032-1.156a.668.668 0 0 0 0-.125s-.105-.434-.406-.782c-.3-.347-.844-.644-1.5-.687-.672-.043-1.3.148-1.656.563-.332.386-.313.84-.313.906H3.5v1.219a58.202 58.202 0 0 0-1.219-.032z"/></svg>