<svg xmlns="http://www.w3.org/2000/svg" viewBox="0 0 48 48"><path d="M8 25c0 11.934 16 18 16 18s16-5.973 16-18V8c-3.945 0-16-3-16-3S11.941 8 8 8v17z" fill="#c5cae9"/><path d="M40 25c0 11.934-16 18-16 18V5s12.059 3 16 3v17z" fill="#9fa8da"/><path d="M36 25c0 7.223-8.555 12.004-12.004 13.637C20.563 37.007 12 32.227 12 25V11.605c4.191-.636 9.55-1.89 12-2.488 2.45.598 7.813 1.852 12 2.488z" fill="#f44336"/><path d="M36 25.031c0 7.223-8.555 12-12.004 13.637L24 9.148c2.45.594 7.813 1.852 12 2.489z" fill="#e53935"/><path d="M11 11c0 .55-.45 1-1 1s-1-.45-1-1 .45-1 1-1 1 .45 1 1zm7-2c0 .55-.45 1-1 1s-1-.45-1-1 .45-1 1-1 1 .45 1 1zm7-2c0 .55-.45 1-1 1s-1-.45-1-1 .45-1 1-1 1 .45 1 1zM11 17c0 .55-.45 1-1 1s-1-.45-1-1 .45-1 1-1 1 .45 1 1zm0 6c0 .55-.45 1-1 1s-1-.45-1-1 .45-1 1-1 1 .45 1 1zm1 6c0 .55-.45 1-1 1s-1-.45-1-1 .45-1 1-1 1 .45 1 1zm3 5c0 .55-.45 1-1 1s-1-.45-1-1 .45-1 1-1 1 .45 1 1zm5 4c0 .55-.45 1-1 1s-1-.45-1-1 .45-1 1-1 1 .45 1 1z" fill="#9fa8da"/><path d="M39 11c0 .55-.45 1-1 1s-1-.45-1-1 .45-1 1-1 1 .45 1 1zm-7-2c0 .55-.45 1-1 1s-1-.45-1-1 .45-1 1-1 1 .45 1 1zm7 8c0 .55-.45 1-1 1s-1-.45-1-1 .45-1 1-1 1 .45 1 1zm0 6c0 .55-.45 1-1 1s-1-.45-1-1 .45-1 1-1 1 .45 1 1zm-1 6c0 .55-.45 1-1 1s-1-.45-1-1 .45-1 1-1 1 .45 1 1zm-3 5c0 .55-.45 1-1 1s-1-.45-1-1 .45-1 1-1 1 .45 1 1zm-5 4c0 .55-.45 1-1 1s-1-.45-1-1 .45-1 1-1 1 .45 1 1z" fill="#7986cb"/><path d="M24 25.84l12-8.16v-4l-12 8.16z" fill="#ffcdd2"/><path d="M24 21.84l-10.957 7.45a13.52 13.52 0 0 0 1.816 2.765l9.137-6.215zM20 17l-2 2.5-2-2.5 2-2.5z" fill="#fff"/><path d="M32 29l-2 2.5-2-2.5 2-2.5z" fill="#ffcdd2"/></svg>