<svg xmlns="http://www.w3.org/2000/svg" viewBox="0 0 50 50"><path d="M25 4.969l-.25.062C24.629 5.06 12.773 8 9 8H8v20c0 12.48 15.977 18.68 16.656 18.938l.344.124.344-.124C26.024 46.684 42 40.574 42 28V8h-1c-3.781 0-15.633-2.941-15.75-2.969zm0 4.125l.25.062c2.71.656 7.86 1.852 11.906 2.469l.844.125V28c0 7.746-8.781 12.742-12.563 14.531L25 42.75l-.438-.219C20.785 40.742 12 35.754 12 28V11.75l.844-.125c4.058-.621 9.199-1.813 11.906-2.469zm0 2.062c-2.602.63-7.145 1.676-11 2.313V28c0 .43.031.836.094 1.25L36 14.656V13.47c-3.848-.637-8.395-1.684-11-2.313zM19 16.5l2 2.5-2 2.5-2-2.5zm17 4.844L16.531 34.312c2.48 2.985 6.207 5.11 8.469 6.22C28.629 38.75 36 34.343 36 28zM31 28.5l2 2.5-2 2.5-2-2.5z"/></svg>