<svg xmlns="http://www.w3.org/2000/svg" viewBox="0 0 40 40"><rect x="2.5" y="13.5" width="4" height="25" fill="#f78f8f"/><path d="M6 14v24H3V14h3m1-1H2v26h5V13z" fill="#c74343"/><rect x="14.5" y="18.5" width="4" height="20" fill="#f78f8f"/><path d="M18 19v19h-3V19h3m1-1h-5v21h5V18z" fill="#c74343"/><rect x="20.5" y="25.5" width="4" height="13" fill="#f78f8f"/><path d="M24 26v12h-3V26h3m1-1h-5v14h5V25z" fill="#c74343"/><rect x="26.5" y="22.5" width="4" height="16" fill="#f78f8f"/><path d="M30 23v15h-3V23h3m1-1h-5v17h5V22z" fill="#c74343"/><rect x="32.5" y="27.5" width="4" height="11" fill="#f78f8f"/><path d="M36 28v10h-3V28h3m1-1h-5v12h5V27z" fill="#c74343"/><rect x="8.5" y="21.5" width="4" height="17" fill="#f78f8f"/><path d="M12 22v16H9V22h3m1-1H8v18h5V21z" fill="#c74343"/><polyline points="3,2 10,7 14,5 22,11 26,9 35,16" fill="none" stroke="#c74343" stroke-miterlimit="10"/><polygon points="32.207,17.5 36.5,13.207 36.5,17.5" fill="#f78f8f"/><path d="M36 14.414V17h-2.586L36 14.414M37 12l-6 6h6v-6z" fill="#c74343"/></svg>