<svg xmlns="http://www.w3.org/2000/svg" viewBox="0 0 50 50"><path d="M25 2.063L24.156 3.5l-2.468 4.094L19.843 4.5 19 3.062 18.156 4.5l-2.468 4.094L13.844 5.5 13 4.062 12.156 5.5l-1.844 3.094L7.845 4.5 7 3.062 6.156 4.5l-3 5L3 9.719V14H2v2h46v-2h-1V9.719l-.156-.219-3-5L43 3.062 42.156 4.5 40 8.094 37.844 4.5 37 3.062 36.156 4.5l-2.531 4.219L31 4.344l-.844 1.406-1.468 2.469L25.843 3.5zm0 3.843l2 3.344V14h-4V9.25zm-18 1l2 3.344V14H5v-3.75zm12 0l2 3.344V14h-4v-3.75zm18 0l2 3.344V14h-4v-3.75zm6 0l2 3.344V14h-4v-3.75zm-30 1l2 3.344V14h-4v-2.75zm18 .282l2 3.343V14h-4v-2.469zm-27.094 9.78a.88.88 0 0 0-.094.032H2v2h1v14H2v2h46v-2h-1V20h1v-2h-1.781a.936.936 0 0 0-.313-.031.88.88 0 0 0-.093.031h-5.594a.936.936 0 0 0-.313-.031.88.88 0 0 0-.093.031h-5.594a.936.936 0 0 0-.313-.031.88.88 0 0 0-.093.031h-5.594a.936.936 0 0 0-.313-.031.88.88 0 0 0-.093.031h-5.594a.936.936 0 0 0-.313-.031.88.88 0 0 0-.093.031h-5.594a.936.936 0 0 0-.313-.031.88.88 0 0 0-.094.031H10.22a.936.936 0 0 0-.313-.031.88.88 0 0 0-.094.031H4.22a.936.936 0 0 0-.313-.031zM5 20h4v14H5zm6 0h4v14h-4zm6 0h4v14h-4zm6 0h4v14h-4zm6 0h4v14h-4zm6 0h4v14h-4zm6 0h4v14h-4zM3.906 37.969a.88.88 0 0 0-.094.031H2v2h1v8h44v-8h1v-2h-7.813a1.016 1.016 0 0 0-.406 0h-5.593a.972.972 0 0 0-.282-.031c-.043.008-.086.02-.125.031h-5.687a1.048 1.048 0 0 0-.313 0H22.22a.936.936 0 0 0-.313-.031.88.88 0 0 0-.093.031h-5.72a1.048 1.048 0 0 0-.312 0h-5.687a1.048 1.048 0 0 0-.313 0H4.22a.936.936 0 0 0-.313-.031zM5 40h4v6H5zm6 0h4v6h-4zm6 0h4v6h-4zm6 0h4v6h-4zm6 0h4v6h-4zm6 0h4v6h-4zm6 0h4v6h-4z"/></svg>