<svg xmlns="http://www.w3.org/2000/svg" viewBox="0 0 80 80"><path d="M25 8v.832a.904.904 0 0 0 0 .324V33h-3l-7.5-10H10v10.617l2.738 1.371A6.02 6.02 0 0 0 10.094 39H8v2h2.094a6.02 6.02 0 0 0 2.644 4.012L10 46.382V57h4.5L22 47h3v23.832a.904.904 0 0 0 0 .324V72h11c.36.004.695-.184.879-.496a1.01 1.01 0 0 0 0-1.008c-.184-.312-.52-.5-.879-.496h-4.172l4.48-7H41c.36.004.695-.184.879-.496a1.01 1.01 0 0 0 0-1.008c-.184-.312-.52-.5-.879-.496h-3.414l3.21-5.02c.067.012.138.02.204.02h5c.36.004.695-.184.879-.496a1.01 1.01 0 0 0 0-1.008c-.184-.312-.52-.5-.879-.496h-3.934l4.48-7H55c3.785 0 8.332-1.555 12.008-3.078 3.676-1.52 6.472-3.047 6.472-3.047L75.09 40l-1.61-.875s-2.796-1.527-6.472-3.047C63.332 34.555 58.785 33 55 33h-8.453l-4.48-7H46c.36.004.695-.184.879-.496a1.01 1.01 0 0 0 0-1.008c-.184-.312-.52-.5-.879-.496h-5c-.066 0-.137.004-.203.016L37.586 19H41c.36.004.695-.184.879-.496a1.01 1.01 0 0 0 0-1.008c-.184-.312-.52-.5-.879-.496h-4.691l-4.48-7H36c.36.004.695-.184.879-.496a1.01 1.01 0 0 0 0-1.008c-.184-.312-.52-.5-.879-.496zm2 2h2.453l16 25H55c3.215 0 7.668 1.445 11.242 2.922 2.512 1.043 3.399 1.555 4.414 2.078-1.015.523-1.902 1.035-4.414 2.078C62.668 43.555 58.215 45 55 45h-9.547l-16 25H27V45h-6l-7.5 10H12v-7.383l6.125-3.062-3.004-.664A3.958 3.958 0 0 1 12.141 41H22v-2h-9.86a3.958 3.958 0 0 1 2.981-2.89l3.004-.665L12 32.383V25h1.5L21 35h6zm18 7c-.55 0-1 .45-1 1s.45 1 1 1 1-.45 1-1-.45-1-1-1zm5 7c-.55 0-1 .45-1 1s.45 1 1 1 1-.45 1-1-.45-1-1-1zm-20 9c-.55 0-1 .45-1 1s.45 1 1 1 1-.45 1-1-.45-1-1-1zm4 0c-.55 0-1 .45-1 1s.45 1 1 1 1-.45 1-1-.45-1-1-1zm4 0c-.55 0-1 .45-1 1s.45 1 1 1 1-.45 1-1-.45-1-1-1zm4 0c-.55 0-1 .45-1 1s.45 1 1 1 1-.45 1-1-.45-1-1-1zm13 6c-.55 0-1 .45-1 1s.45 1 1 1 1-.45 1-1-.45-1-1-1zm4 0c-.55 0-1 .45-1 1s.45 1 1 1 1-.45 1-1-.45-1-1-1zm-29 6c-.55 0-1 .45-1 1s.45 1 1 1 1-.45 1-1-.45-1-1-1zm4 0c-.55 0-1 .45-1 1s.45 1 1 1 1-.45 1-1-.45-1-1-1zm4 0c-.55 0-1 .45-1 1s.45 1 1 1 1-.45 1-1-.45-1-1-1zm4 0c-.55 0-1 .45-1 1s.45 1 1 1 1-.45 1-1-.45-1-1-1zm8 9c-.55 0-1 .45-1 1s.45 1 1 1 1-.45 1-1-.45-1-1-1zm-5 7c-.55 0-1 .45-1 1s.45 1 1 1 1-.45 1-1-.45-1-1-1z"/></svg>