<svg xmlns="http://www.w3.org/2000/svg" viewBox="0 0 26 26"><path d="M20.375.375l-1.156 1.156L18.687 1l-.812.844.5.5-1.031 1.031-.5-.5-.844.844.5.5-6.219 6.218a1.784 1.784 0 0 0-1.812-.28L5.156 6.843a.99.99 0 0 0-1.406 0l-.719.718a.99.99 0 0 0 0 1.407l3.25 3.25a1.77 1.77 0 0 0-.218 1.312l-1.125 1.156-.063.032c-.586.398-1.129.344-1.219.187-1.304-2.254-1.101-1.86-1.281-2.094-.64-.828-1.086-.632-1.375-.343l-.688.5c-.43.426-.398 1.472.376 2.437.753.942.98.746 1.218 1.156.172.29.356.606.094 1l-.5.532a1.5 1.5 0 0 0 0 2.125L5.75 24.5c.586.59 1.57.59 2.156 0l4.563-4.563a1.768 1.768 0 0 0 1.656-.468l1.344-1.344c.66-.66.68-1.703.094-2.406L21.78 9.5l.532.5.812-.813-.5-.53 1.031-1.032.5.5.844-.813-.531-.53 1.156-1.157-1.25-1.25-1.156 1.156-.75-.75 1.156-1.156-1.25-1.25-1.156 1.156-.75-.75 1.156-1.156zm-.719 3.25l.719.719-1.031 1.031-.719-.719zM17.781 5.5l.719.719-6.188 6.218-.75-.75zm3.875.125l.719.719-1.031 1.031-.719-.719zM19.781 7.5l.719.719-6.188 6.219-.75-.75z"/></svg>