<svg xmlns="http://www.w3.org/2000/svg" viewBox="0 0 32 32"><path d="M23.563 4.031l-1.282 1.25L23.72 6.72l1.25-1.282zm-2.844 1.25L19.28 6.72l7 7 1.438-1.438zm4.843.75l-1.28 1.25 1.437 1.438 1.25-1.281zm-6.843 1.25L17.28 8.72l7 7 1.438-1.438zm8.843.75l-1.28 1.25 1.437 1.438 1.25-1.281zm-10.28 2.25L12.5 15.062l-.406-.374-.719-.688-1.469 1.469L6.72 12.28l-1.44 1.44 3.188 3.187-2.031 2.032.718.718.344.313-1.594 1.593a5.635 5.635 0 0 1-.531-.656c-.246-.355-.379-.718-.406-.968-.028-.25-.02-.387.25-.657L3.78 17.875a2.837 2.837 0 0 0-.812 2.281c.082.75.422 1.387.781 1.907.242.351.508.648.75.906a2.386 2.386 0 0 0 .156 3.25L6.75 28.25a2.39 2.39 0 0 0 3.313 0h.03l2.876-2.875.344.313.718.687 4.938-4.938-.719-.718-.281-.25 4.75-4.75-1.438-1.438-4.75 4.75-.562-.562 4.75-4.75-1.438-1.438-4.781 4.781-.563-.562 4.782-4.781zm-5.907 6.531l4.75 4.657-2.094 2.093-4.75-4.656zm-2.469 4.563l2.625 2.594-2.844 2.843a.363.363 0 0 1-.53 0l-2.095-2.03c-.16-.157-.19-.372-.03-.532z"/></svg>