<svg xmlns="http://www.w3.org/2000/svg" viewBox="0 0 50 50"><path d="M22.188-.031c-.051 0-1.243.023-2.47 1.218-.355.344-.87.844-1.468 1.407-1.246 1.18-2.785 2.656-3.719 3.625-.469.484-4.62 4.957-6.156 12.593C7.5 22.723 7 28.992 7 36.032 7 37.097 7.953 38 9.063 38a1.97 1.97 0 0 0 1.406-.594c.386-.386.629-.906.625-1.468-.004-.086-.25-8.778 2.219-16.22 1.66-5.206 4.34-6.558 4.78-6.75h3.5L20.814 16H41.25L39.125 5.969h.844c1.652 0 3-1.348 3-3 0-1.653-1.348-3-3-3zM11 3c-4.965 0-9 4.035-9 9a8.988 8.988 0 0 0 4.188 7.594c.078-.414.167-.817.25-1.188.066-.328.144-.62.218-.937C5.036 16.172 4 14.184 4 12c0-3.86 3.14-7 7-7 .59 0 1.164.078 1.719.219.18-.203.312-.34.375-.407.336-.347.742-.753 1.187-1.187A9.02 9.02 0 0 0 11 3zm7.594 11.969c-.61.406-2.067 1.715-3.188 4.875a8.935 8.935 0 0 0 3.313-3.25c-.008-.239.004-.48.062-.719l.25-.906zM19.375 18c-2.172 2.797-3.637 6.305-4.156 10h8.875c.207-3.77.808-7.254 1.718-10zm8.531 0c-.972 2.633-1.593 6.14-1.812 10h9.812c-.218-3.86-.84-7.367-1.812-10zm8.282 0c.906 2.746 1.511 6.23 1.718 10h8.875c-.5-3.754-1.93-7.223-4.125-10zM15.061 30c-.015.336-.062.664-.062 1 0 2.473.398 4.832 1.125 7h8.469c-.375-2.324-.594-4.719-.594-7 0-.336.023-.664.031-1zm10.97 0c-.009.332-.032.664-.032 1 0 2.441.23 4.809.594 7h8.812c.364-2.191.594-4.559.594-7 0-.336-.023-.668-.031-1zm11.937 0c.008.336.031.664.031 1 0 2.281-.223 4.676-.594 7h8.469A22.017 22.017 0 0 0 47 31c0-.336-.047-.664-.063-1zM16.906 40c2.356 5.176 6.696 8.895 11.782 9.781-1.594-2.191-2.926-5.793-3.75-9.781zm10.063 0c1.008 4.68 2.629 8.25 4.031 9.5 1.402-1.25 3.023-4.82 4.031-9.5zm10.093 0c-.824 3.988-2.156 7.59-3.75 9.781 5.086-.886 9.426-4.61 11.782-9.781z"/></svg>