<svg xmlns="http://www.w3.org/2000/svg" viewBox="0 0 24 24"><path d="M19 3l-.5 1H3.687C2.489 4 .793 5.512.095 7.813-.406 9.413 2.105 9 1.906 10.5 1.707 11.7 0 15.492 0 18.594 0 20.894 1.105 22 2.406 22h2.406c1.141 0 2.567-.707 2.907-7h1.875A4.416 4.416 0 0 0 14 10.594V10h7.5c.8 0 1.5-.7 1.5-1.5V8h1V5h-1V4h-2V3zm-9 7h2v.594C12 11.969 10.969 13 9.594 13H7.78c.004-.348.032-.625.032-1s.136-.738.375-1.063a4.36 4.36 0 0 0 1.906.97c.3.1.511-.302.312-.5a5.247 5.247 0 0 1-.969-1.313c.184-.051.364-.094.563-.094z"/></svg>