<svg xmlns="http://www.w3.org/2000/svg" viewBox="0 0 32 32"><path d="M24 6v1H5.437l-.28.5-2 3.313-.157.25V13h1c.582 0 .824.121.938.219.113.097.152.222.187.437.07.43-.063 1.031-.063 1.031l-.03.032-3 9.906-.032.156V26h7.75l.219-.719L11.906 19H13c.047 0 1.672.031 3.375-.656C18.102 17.644 20 15.964 20 13h9v-1h1V8h-1V7h-2V6zM6.531 9H27v2H8.281c.465.652.672 1.344.781 2h2.563L8.25 24H4.344l2.625-8.719h-.032c.012-.027.364-.883.188-1.937a2.754 2.754 0 0 0-.906-1.625 2.773 2.773 0 0 0-.969-.531zM15 13h3c0 2.188-1.102 2.984-2.375 3.5s-2.594.5-2.594.5h-.5l.813-2.656c.02.039.011.086.031.125C13.75 15.195 14.684 16 16 16v-2c-.629 0-.703-.195-.844-.469A1.51 1.51 0 0 1 15 13z"/></svg>