<svg xmlns="http://www.w3.org/2000/svg" viewBox="0 0 64 64"><path d="M7 8c-1.652 0-3 1.348-3 3v42c0 1.652 1.348 3 3 3h50c1.652 0 3-1.348 3-3V11c0-1.652-1.348-3-3-3zm0 2h50c.55 0 1 .45 1 1v33h-8v-3c0-.55-.45-1-1-1h-5v-1c0-.55-.45-1-1-1h-5v-1c0-.55-.45-1-1-1h-5v-3c0-.55-.45-1-1-1h-6c-.55 0-1 .45-1 1v1h-4v-5c0-.55-.45-1-1-1h-6c-.55 0-1 .45-1 1v15H6V11c0-.55.45-1 1-1zm8 4a3.01 3.01 0 0 0-3 3c0 1.648 1.352 3 3 3 .54 0 1.05-.152 1.488-.402l2.723 2.332A2.72 2.72 0 0 0 19 23c0 1.648 1.352 3 3 3s3-1.352 3-3v-.05l2.719-1.024A2.984 2.984 0 0 0 30 23c.184 0 .363-.023.543-.055l3.02 4.317A2.988 2.988 0 0 0 33 29c0 1.648 1.352 3 3 3s3-1.352 3-3c0-.36-.07-.719-.188-1.04l1.657-1.382a2.958 2.958 0 0 0 2.82.121L48.582 32h-4.066a1 1 0 1 0 0 2H51a.986.986 0 0 0 .383-.078c.047-.016.082-.055.125-.078.07-.043.14-.074.203-.133.2-.2.293-.461.289-.727v-6.468a1 1 0 1 0-2 0v4.062l-5.3-5.297c.198-.39.3-.82.3-1.281 0-1.648-1.352-3-3-3a3.01 3.01 0 0 0-3 3c0 .36.07.719.188 1.04l-1.649 1.382A3.07 3.07 0 0 0 36 26c-.281 0-.54.04-.8.11l-2.927-4.176A2.98 2.98 0 0 0 33 20c0-1.652-1.348-3-3-3s-3 1.348-3 3c0 .016.004.031.004.047l-2.715 1.023A2.997 2.997 0 0 0 22 20c-.54 0-1.059.152-1.5.402l-2.71-2.324c.14-.328.21-.7.21-1.078 0-1.648-1.352-3-3-3zm0 1.902c.066 0 .121-.004.176.02.066 0 .12.023.176.047h.023c.055.02.11.043.164.086.055.023.11.054.164.11.031.023.067.054.11.085.18.2.285.465.285.75A1.1 1.1 0 0 1 15 18.098c-.133 0-.258-.028-.375-.07-.016-.008-.027-.008-.043-.016-.016-.004-.027-.012-.039-.02a1.092 1.092 0 0 1-.313-.199l-.03-.031c-.036-.047-.079-.102-.11-.149a1.065 1.065 0 0 1-.188-.613c0-.23.067-.438.188-.613.031-.047.074-.102.117-.149l.043-.039a1.065 1.065 0 0 1 .75-.297zm14.977 3.004c.046 0 .09.012.132.016.555.058.989.512.989 1.078 0 .145-.032.281-.082.406-.012.032-.032.055-.047.082a.845.845 0 0 1-.153.23.532.532 0 0 1-.093.095c-.075.07-.164.128-.258.175-.016.008-.031.02-.047.028A1.099 1.099 0 0 1 28.902 20c0-.598.48-1.082 1.075-1.094zM22 21.902a1.099 1.099 0 0 1 .43 2.11c-.043.023-.09.035-.133.047a.94.94 0 0 1-.297.039.921.921 0 0 1-.188-.02.312.312 0 0 1-.128-.031.802.802 0 0 1-.235-.102.434.434 0 0 1-.14-.097c-.036-.024-.059-.043-.09-.067A1.106 1.106 0 0 1 22 21.902zm20 1c.055 0 .11-.004.164.02.043 0 .078 0 .113.02.196.046.36.144.504.277.2.21.317.472.317.781a1.099 1.099 0 0 1-2.196 0c0-.309.118-.57.317-.781.21-.2.472-.317.781-.317zm-6 5A1.1 1.1 0 0 1 37.098 29c0 .309-.118.57-.317.781-.21.2-.472.317-.781.317-.055 0-.11.004-.156-.008-.043-.012-.086-.012-.121-.031-.032 0-.051-.016-.075-.028a.749.749 0 0 1-.222-.093.265.265 0 0 1-.086-.067.27.27 0 0 1-.09-.07 1.094 1.094 0 0 1-.152-.176c-.012-.008-.012-.02-.02-.031A1.099 1.099 0 0 1 36 27.903zM14 30h4v14h-4zm12 4h4v10h-4zm-6 2h4v8h-4zm12 2h4v6h-4zm6 2h4v4h-4zm6 2h4v2h-4zM6 46h52v7c0 .55-.45 1-1 1H7c-.55 0-1-.45-1-1zm4 2c-.55 0-1 .45-1 1v2c0 .55.45 1 1 1s1-.45 1-1v-2c0-.55-.45-1-1-1zm5 0c-.55 0-1 .45-1 1v2c0 .55.45 1 1 1s1-.45 1-1v-2c0-.55-.45-1-1-1zm5 0c-.55 0-1 .45-1 1v2c0 .55.45 1 1 1s1-.45 1-1v-2c0-.55-.45-1-1-1zm5 0c-.55 0-1 .45-1 1v2c0 .55.45 1 1 1s1-.45 1-1v-2c0-.55-.45-1-1-1zm5 0c-.55 0-1 .45-1 1v2c0 .55.45 1 1 1s1-.45 1-1v-2c0-.55-.45-1-1-1zm5 0c-.55 0-1 .45-1 1v2c0 .55.45 1 1 1s1-.45 1-1v-2c0-.55-.45-1-1-1zm5 0c-.55 0-1 .45-1 1v2c0 .55.45 1 1 1s1-.45 1-1v-2c0-.55-.45-1-1-1zm5 0c-.55 0-1 .45-1 1v2c0 .55.45 1 1 1s1-.45 1-1v-2c0-.55-.45-1-1-1zm5 0c-.55 0-1 .45-1 1v2c0 .55.45 1 1 1s1-.45 1-1v-2c0-.55-.45-1-1-1zm5 0c-.55 0-1 .45-1 1v2c0 .55.45 1 1 1s1-.45 1-1v-2c0-.55-.45-1-1-1z"/></svg>