<svg xmlns="http://www.w3.org/2000/svg" viewBox="0 0 40 40"><path d="M15.5 5a3.5 3.5 0 1 1-7 0 3.5 3.5 0 1 1 7 0z" fill="#dff0fe"/><path d="M12 2c1.652 0 3 1.348 3 3s-1.348 3-3 3-3-1.348-3-3 1.348-3 3-3m0-1C9.79 1 8 2.79 8 5s1.79 4 4 4 4-1.79 4-4-1.79-4-4-4z" fill="#4788c7"/><path d="M17.5 38.5c-1.102 0-2-.898-2-2V20.895l-3.563-5.137L9.32 17.57l2.223 3.207c.266.38.363.84.281 1.297a1.738 1.738 0 0 1-1.703 1.426 1.73 1.73 0 0 1-1.426-.746l-2.707-3.902a2.727 2.727 0 0 1 .688-3.793l5.316-3.692c.25-.172.535-.316.903-.457l6.921-2.305 2.11-5.918a1.79 1.79 0 0 1 2.285-1.082 1.784 1.784 0 0 1 1.082 2.282l-2.402 6.734c-.106.508-.414.863-.825 1l-4.472 1.488 3.277 4.727 11.488-7.98a2.008 2.008 0 0 1 2.786.503 2.005 2.005 0 0 1-.504 2.786L19.5 23.656V36.5c0 1.102-.898 2-2 2z" fill="#b6dcfe"/><path d="M23.61 2a1.29 1.29 0 0 1 1.21 1.723l-2.402 6.73-.023.07-.016.075a.714.714 0 0 1-.469.55l-3.84 1.278-1.265.422.758 1.097 2.613 3.766.57.82.82-.57 11.079-7.691a1.497 1.497 0 0 1 2.086.375 1.502 1.502 0 0 1-.375 2.09L19.43 23.097l-.43.297V36.5a1.5 1.5 0 0 1-3 0V20.738l-.18-.258-3.187-4.597-.57-.824-.82.57-1.798 1.246-.82.57.57.82 1.938 2.797c.187.27.258.598.199.922a1.214 1.214 0 0 1-.512.793 1.19 1.19 0 0 1-.699.223c-.406 0-.785-.2-1.016-.531l-1.94-2.793-.767-1.11a2.207 2.207 0 0 1-.363-1.664 2.204 2.204 0 0 1 .922-1.433l1.02-.707 4.3-2.985a3.53 3.53 0 0 1 .79-.398l.011-.004 6.664-2.219.461-.156.164-.457 2.028-5.688A1.294 1.294 0 0 1 23.609 2m0-1c-.941 0-1.82.586-2.156 1.52l-2.027 5.687-6.707 2.234a4.736 4.736 0 0 0-1.012.512l-4.3 2.985-1.02.707a3.228 3.228 0 0 0-.813 4.492l.77 1.105L8.28 23.04a2.243 2.243 0 0 0 1.84.961 2.233 2.233 0 0 0 1.832-3.508l-1.937-2.797 1.793-1.242L15 21.051V36.5c0 1.383 1.117 2.5 2.5 2.5s2.5-1.117 2.5-2.5V23.918l14.926-10.363a2.505 2.505 0 0 0 .629-3.48 2.504 2.504 0 0 0-3.48-.63l-11.079 7.696-2.61-3.766 3.84-1.277a1.719 1.719 0 0 0 1.137-1.309l2.403-6.73A2.288 2.288 0 0 0 23.609 1z" fill="#4788c7"/></svg>