<svg xmlns="http://www.w3.org/2000/svg" viewBox="0 0 50 50"><path d="M22.5 2c-2.648 0-4.86 1.906-5.375 4.406C15.746 7.473 9.602 12.781 9 22.875c0 .086.012.168.031.25l2.313 10.719-3.188 9.906c-.527 1.64.364 3.418 1.969 4.031v.032c.008.003.023-.004.031 0 1.703.601 3.617-.313 4.188-2.032L17 37.75l1.656 7.719c.364 1.703 2.074 2.808 3.782 2.468 1.746-.347 2.882-2.074 2.5-3.812l-2.157-9.75a6.31 6.31 0 0 0-.843-2.031l-.032-.032-4.843-8.374c.042-1.883.707-3.504 1.125-4.375l2.875 2.062c1.855 1.336 4.492.836 5.718-1.094l3.75-5.906c.516-.813.59-1.781.282-2.625H39c1.645 0 3-1.355 3-3s-1.355-3-3-3H27.781c-.66-2.297-2.777-4-5.281-4zm0 2C24.445 4 26 5.555 26 7.5S24.445 11 22.5 11A3.484 3.484 0 0 1 19 7.5C19 5.555 20.555 4 22.5 4zm5.469 4H39c.566 0 1 .434 1 1 0 .566-.434 1-1 1H27.406a5.49 5.49 0 0 0 .563-2zm-10.75.938C17.859 11.265 19.977 13 22.5 13c.805 0 1.559-.188 2.25-.5l-1.844 3.031-3.968-2.75a.992.992 0 0 0-1.032-.152 1 1 0 1 0-.125 1.777l4.844 3.375c.227.149.504.203.77.145a1.02 1.02 0 0 0 .636-.457l3.094-5A.986.986 0 0 1 27.75 12h.406c.13.023.254.078.375.156.477.313.617.926.313 1.406l-3.75 5.907a2.006 2.006 0 0 1-2.875.562l-6.157-4.468a.992.992 0 0 0-1.03-.153 1 1 0 1 0-.125 1.777l1.624 1.188c-.508.973-1.468 3.145-1.468 5.75v.094l1.124 9.625-.062.218a.88.88 0 0 0-.031.094l-.032.032c-.027.07-.05.144-.062.218-.012.04-.023.082-.031.125l-3.531 10.594c-.227.684-.95 1.059-1.626.813-.644-.235-.96-.942-.75-1.594l3.282-10.157a.984.984 0 0 0 .031-.53L11 22.906c.473-7.563 4.18-12.048 6.219-13.97zm.375 19.906l2.625 4.5.031.031c.281.438.48.93.594 1.438l2.125 9.718a1.186 1.186 0 0 1-.938 1.438 1.19 1.19 0 0 1-1.406-.907v-.03l-2-9.407a.967.967 0 0 0-.094-.25l-.437-.875.062-.219a.977.977 0 0 0 .032-.437z"/></svg>