<svg xmlns="http://www.w3.org/2000/svg" viewBox="0 0 48 48"><path d="M36 8H22.398a3.42 3.42 0 0 0-4.898-.8c-.602.402-6.102 4.6-7.398 14.402v.296c-.102.403-.102.903 0 1.704l1.796 8.296L9.102 40.7c-.403 1.301.296 2.7 1.597 3.2.301.101.5.101.801.101 1 0 2-.7 2.398-1.7l2.903-9 2.3 8.9c.297 1.198 1.297 2 2.399 2 .2 0 .398 0 .5-.098a2.528 2.528 0 0 0 1.898-3l-2.5-9.602c-.097-.3-.199-.5-.296-.8l-4-8.4v-.198c.097-1.301.398-2.403.699-3.301l3 2c.3.199.699.3 1.097.3.602 0 1.102-.203 1.5-.703L28.5 14.2c.5-.597.602-1.398.3-2.097H36c1.102 0 2-.903 2-2C38 9 37.102 8 36 8zm-14.398 8.3l-2-1.3c1-1.398 1.796-2.102 1.898-2.2.3-.198.602-.5.8-.8h2.9z" fill="#607d8b"/><path d="M26 8.5a4.501 4.501 0 0 1-9 0 4.501 4.501 0 0 1 9 0z" fill="#ffb74d"/><path d="M19 26.3V31c0 .7 0 1.7-.2 2.398l-1.1 3.5-.9-3.699.098-.5s.204-1.199.102-1.8c0 0 0-7.297.102-8.797zm-1.7-5.6c.098-.7.302-1.4.5-2L14 16zM29.7 9.8c-.5-.402-1.098-.698-1.7-.8v-.898h-2V9c-.102 1.2-.8 2.2-1.602 3H27c.2-.3.398-.7.602-1.102.296.102.597.204.898.403.2.199.398.398.5.699h2c-.2-.898-.602-1.7-1.3-2.2z" fill="#455a64"/></svg>