<svg xmlns="http://www.w3.org/2000/svg" viewBox="0 0 50 50"><path d="M23 2c-2.8 0-5 2.2-5 5s2.2 5 5 5 5-2.2 5-5-2.2-5-5-5zm6.906 4c.102.3.094.7.094 1 0 .8-.207 1.605-.406 2.406.3.102.699.293 1 .594.398.3.8.695 1 1.094H39.5c1.398 0 2.5-1.102 2.5-2.5C42 7.094 40.898 6 39.5 6zM16 7.406C13.8 9.606 9.5 14.898 9 23l2.406 10.813-3.094 10c-.398 1.199-.699 2.874 1 3.874 1.7 1 3.5-.28 4-1.78l3.876-12L16.093 24c0-1.2.199-2.29.5-3.188l-2.782-2c-.398-.3-.617-.906-.218-1.406.3-.398.906-.617 1.406-.218l2.313 1.625 4.5 3.187c1.398 1 3.382.586 4.28-.813L30 14.907c.5-1 .707-2.407-.594-3.407-1.398-1-2.71-.21-3.312.688l-2.907 4.718-4.78-3.312c-.4-.301-.618-.906-.22-1.406 0-.102.125-.094.125-.094-1.3-1.2-2.21-2.887-2.312-4.688zM18.313 26l.875 7.813.125.374-.125.407-1 3.093 1.812 8c.3 1.2 1.313 2.618 3.313 2.22 1.699-.302 1.988-2.302 1.687-3.5l-2.313-10.22c-.101-.601-.386-1.18-.687-1.78z"/></svg>