<svg xmlns="http://www.w3.org/2000/svg" viewBox="0 0 48 48"><path d="M38.992 10.426l-1.414-1.418 6.02-6.02 1.414 1.414z" fill="#827717"/><path d="M33.688 16.434c2.12-.707 5.19-2.364 6.363-3.536 1.172-1.171 2.476-6.007 3.89-7.421l-1.414-1.415c-1.414 1.415-6.254 2.715-7.425 3.887-1.172 1.172-2.829 4.242-3.536 6.364z" fill="#827717"/><path d="M33.688 16.434l-.708 2.12-3.539-3.534 2.122-.707h2.125z" fill="#827717"/><path d="M39.277 13.54a7.49 7.49 0 0 0 .774-.642c.187-.187.39-.472.601-.808L35.91 7.344c-.336.215-.62.418-.808.605-.204.2-.418.473-.645.77z" fill="#63590d"/><path d="M28.95 17.535a1 1 0 0 1 0 1.414.993.993 0 0 1-1.415 0l-4.242-4.242a1 1 0 1 1 1.414-1.414zm-6.415 7.172a1 1 0 0 1 0 1.414l-1.414 1.414a1 1 0 0 1-1.414 0l-1.414-1.414a1 1 0 0 1 0-1.414l1.414-1.414a1 1 0 0 1 1.414 0z" fill="#37474f"/><path d="M29.441 17.848a.993.993 0 0 1 0 1.414l-1.296 1.3a1 1 0 0 1-1.415 0l-1.414-1.417a1 1 0 0 1 0-1.415l1.297-1.296a1 1 0 0 1 1.414 0zM4.695 38.355l4.95-2.125 2.12 2.125-2.12 4.95zm30.012-7.769a1 1 0 0 1 0 1.414l-.707.707a1 1 0 0 1-1.414 0l-7.777-7.777a1 1 0 0 1 0-1.414l.707-.707a1 1 0 0 1 1.414 0zm-8.121 5.121a1 1 0 0 0 1.414 0l.707-.707a1 1 0 0 0 0-1.414l-5.656-5.656a1 1 0 0 0-1.414 0l-.707.707a1 1 0 0 0 0 1.414z" fill="#37474f"/><path d="M29.96 20.855l1.415 1.415s1.414 1.414 0 2.828l-1.414 1.414" fill="none" stroke-width="2" stroke="#37474f"/><path d="M9.656 43.293a1 1 0 1 1-1.414 1.414l-4.949-4.95a1 1 0 1 1 1.414-1.413zm11.532-12.949l10.375-10.375.707-2.121-2.122-2.121-2.12.707-10.376 10.375z" fill="#546e7a"/><path d="M11.766 38.355l2.12-2.125c.708-.707 2.829-1.414 3.536-2.12l3.765-3.766-3.535-3.535-3.765 3.765c-.707.707-1.414 2.828-2.121 3.535L9.645 36.23z" fill="#c68632"/></svg>