<svg xmlns="http://www.w3.org/2000/svg" viewBox="0 0 24 24"><path d="M12 0C9.09 0 8.262 1.383 8.062 3H3S2 6.5 2 8c0 0 1.102 1.29 4 2.188V9h2v1.688c1.102.199 2.5.312 4 .312s2.898-.113 4-.313V9h2v1.188C20.898 9.288 22 8 22 8c0-1.5-1-5-1-5h-5.063C15.739 1.383 14.91 0 12 0zm0 1.594c1.379 0 2.105.468 2.375 1.406h-4.75c.27-.938.996-1.406 2.375-1.406zM3 10c-.398 4.602 1 10 1 10s-2.398-4.602-2-9c-.5 0-2 1.313-2 3.313 0 1.898.79 5.699 1.688 7C2.487 22.512 4.601 24 12 24s9.512-1.488 10.313-2.688c.898-1.199 1.687-5.101 1.687-7 0-2-1.5-3.312-2-3.312.398 4.398-2 9-2 9s1.398-5.398 1-10c0 0-1.102.586-3 1.188V13h-2v-1.406c-1.2.199-2.5.406-4 .406s-2.8-.105-4-.406V13H6v-1.813C4.102 10.587 3 10 3 10z"/></svg>