<svg xmlns="http://www.w3.org/2000/svg" viewBox="0 0 80 80"><path d="M40 7.883l-.45.222S27.75 14 12 14h-1v1c0 23.203 7.09 37.23 14.25 45.406 7.156 8.18 14.441 10.547 14.441 10.547l.309.098.309-.098s7.285-2.367 14.441-10.547C61.91 52.23 69 38.203 69 15v-1h-1c-15.75 0-27.55-5.895-27.55-5.895zm0 2.21c1.148.555 12.082 5.618 26.965 5.86-.2 22.195-6.973 35.434-13.715 43.14-6.598 7.536-12.79 9.653-13.25 9.81-.46-.157-6.652-2.274-13.25-9.81-6.742-7.706-13.516-20.945-13.715-43.14 14.883-.242 25.817-5.305 26.965-5.86zm-1.875 5.16l-.348.063-.093.04-.61.656.164.879.805.402.348-.066.093-.036.606-.66-.164-.879zm4.078.075l-.89.106-.45.777.356.82.304.176.094.035.89-.105.446-.778-.351-.824-.305-.176zm-7.89 1.25l-.348.043-.094.027-.652.618.105.89.774.45.351-.044.098-.027.648-.617-.105-.89zm11.71.043l-.882.16-.399.801.403.8.312.157.098.027.883-.16.402-.797-.403-.8-.316-.16zm-15.586 1.07l-.355.016-.098.027-.687.575.047.894.75.496.347-.02.102-.023.687-.574-.05-.895zm19.5.016l-.874.188-.376.816.43.785.32.145.098.027.875-.188.371-.816-.426-.785-.324-.145zm-23.468.871l-.348.008-.101.02-.707.55.015.895.73.523.352-.008.102-.02.707-.546-.02-.898zm27.39.012l-.859.254-.313.84.485.753.332.122.101.02.86-.255.308-.84-.488-.754-.328-.12zm3.996.664l-.847.293-.274.851.516.73.336.106.102.016.843-.29.278-.85-.52-.735-.336-.105zm-35.734.02l-.101.015-.723.523-.02.895.707.55.356.009.098-.016.726-.527.016-.895-.707-.547zm-3.902.456c-.024-.003-.047 0-.067 0-.058.004-.074.004-.05.004l-.942.059v.984a.991.991 0 0 0 .63.942c.382.152.823.054 1.105-.25a.999.999 0 0 0-.676-1.738zm43.531 0a.997.997 0 0 0-.613 1.766l.004.004a.994.994 0 0 0 1.093.207c.371-.16.614-.527.61-.934v-.98l-.942-.059c.024 0 .004 0-.054-.004a.408.408 0 0 0-.098 0zm-.246 4.141l-.703.555-.09.344-.008.101.332.832.867.23.703-.558.09-.34.008-.101-.332-.832zm-43.55.082l-.626.64-.047.345v.074l.004.062.461.77.89.093.61-.66.035-.351v-.031l-.004-.032v-.008l-.433-.78zm43.19 4.067l-.738.507-.113.332-.016.102.282.852.847.289.735-.508.113-.332.016-.106-.274-.847zm-42.902.152l-.566.695-.016.352.012.101.504.742.898.036.567-.692.015-.351-.015-.102-.504-.742zm42.242 3.953l-.77.46-.136.325-.02.102.22.867.827.344.77-.457.137-.328.02-.098-.22-.871zm-40.75.21l-.894.02-.524.723.008.356.02.097.547.711.898-.02.523-.726-.007-.351-.02-.102zm39.782 3.837l-.801.406-.156.317-.028.101.16.879.805.398.8-.406.157-.316.027-.098-.164-.879zm-38.891.234l-.89.074-.477.758.027.352.027.097.594.672.895-.074.476-.758-.03-.351-.028-.098zm37.629 3.727l-.832.324-.188.3-.035.095.07.894.762.473.836-.328.188-.297.039-.094-.078-.895zm-36.445.246l-.883.16-.399.805.063.343.035.098.656.61.883-.16.398-.801-.062-.344-.035-.102zm34.816 3.59l-.848.281-.203.293-.043.094.035.894.735.508.851-.285.2-.29.043-.093-.036-.898zm-33.266.265l-.863.23-.336.833.09.34.047.093.703.555.863-.23.336-.832-.09-.34-.047-.09zm31.38 3.422l-.88.184-.234.262-.05.086-.075.894.668.594.879-.18.234-.266.051-.085.074-.895zm-29.551.285l-.833.34-.23.864.137.328.05.086.77.46.828-.331.23-.872-.136-.324-.05-.086zM52.5 51.168l-.887.129-.246.25-.058.086-.125.887.632.632.887-.132.25-.25.059-.083.125-.886zm-25.047.27l-.808.386-.176.88.152.316.063.085.789.415.808-.383.176-.883-.152-.316-.059-.083zM50 54.48l-.895.036-.273.218-.066.078-.22.868.563.695.895-.031.273-.223.067-.078.218-.871zm-20.004.215l-.758.477-.07.894.187.297.067.078.84.32.754-.476.074-.894-.188-.297-.07-.078zm16.32 2.805l-.296.191-.07.07-.31.844.493.747.894.054.297-.191.07-.07.31-.844-.493-.75zm-13.441.172l-.703.55.027.9.215.273.078.07.867.23.703-.554-.023-.895-.219-.277-.074-.067zm10.367 2.52l-.312.163-.082.063-.383.809.414.793.887.14.312-.16.078-.063.387-.812-.418-.793zm-7.168.117l-.648.617.11.89.241.258.082.059.887.148.645-.62-.106-.888-.242-.257-.086-.059zm3.848 2.136a1 1 0 1 0-.418 1.898s.012.009.043.024l.45.223.487-.246a.992.992 0 0 0 .532-1.133.994.994 0 0 0-.996-.762c-.004-.004-.004-.004-.008 0-.032-.004-.063-.004-.09-.004z"/></svg>