<svg xmlns="http://www.w3.org/2000/svg" viewBox="0 0 64 64"><path d="M54.29 11.57l-3.5-.23a27.878 27.878 0 0 1-15.63-6.078L33.81 4.18a2.88 2.88 0 0 0-3.618 0L28.84 5.262A27.885 27.885 0 0 1 13.2 11.34l-3.5.23A2.91 2.91 0 0 0 7 14.648l.672 12.223a39.338 39.338 0 0 0 13.508 27l8.91 6.75a2.91 2.91 0 0 0 3.8 0l8.91-6.75a39.354 39.354 0 0 0 13.509-27L57 14.641a2.897 2.897 0 0 0-2.71-3.07z" fill="#72caaf"/><path d="M54.29 11.57l-3.5-.23a27.878 27.878 0 0 1-15.63-6.078L33.81 4.18A2.872 2.872 0 0 0 32 3.54v57.82c.7 0 1.375-.25 1.898-.712l8.91-6.75a39.343 39.343 0 0 0 13.512-27L57 14.641a2.897 2.897 0 0 0-2.71-3.07z" fill="#66bfa1"/><path d="M32.5 21l1.238 2.262L36 24.5l-2.262 1.238L32.5 28l-1.238-2.262L29 24.5l2.262-1.238zm-9.078 8l.848 1.559 1.57.863-1.57.848-.848 1.57-.863-1.57L21 31.422l1.559-.863zm13.226 4l.582 1.059 1.07.59-1.07.581-.582 1.07-.59-1.07L35 34.648l1.059-.59z" fill="#7dd8ba"/><path d="M54.29 11.57l-3.5-.23a27.878 27.878 0 0 1-15.63-6.078L33.81 4.18a2.88 2.88 0 0 0-3.618 0L28.84 5.262A27.885 27.885 0 0 1 13.2 11.34l-3.5.23A2.91 2.91 0 0 0 7 14.648l.672 12.223a39.338 39.338 0 0 0 13.508 27l8.91 6.75a2.91 2.91 0 0 0 3.8 0l8.91-6.75a39.354 39.354 0 0 0 13.509-27L57 14.641a2.897 2.897 0 0 0-2.71-3.07zM51 31.172a22.199 22.199 0 0 1-2.7 9.43.999.999 0 0 0-.5-.153c-.585 0-1.062.477-1.062 1.063v1.058c.004.133.032.266.082.39a22.135 22.135 0 0 1-4 4.22l-10.148 8.28c-.39.313-.945.313-1.332 0l-10.211-8.28a22.257 22.257 0 0 1-4-4.22.974.974 0 0 0 .082-.39v-1.058c0-.586-.477-1.063-1.063-1.063a.999.999 0 0 0-.5.153 22.254 22.254 0 0 1-2.699-9.43l-.828-15.113 1.219-.11a32.67 32.67 0 0 0 17.14-6.77L32 8l1.52 1.18a32.674 32.674 0 0 0 17.14 6.761l1.219.11z" fill="#f9e3ae"/><path d="M54.29 11.57l-3.5-.23a27.878 27.878 0 0 1-15.63-6.078L33.81 4.18A2.872 2.872 0 0 0 32 3.54V8l1.52 1.18a32.674 32.674 0 0 0 17.14 6.761l1.219.11L51 31.17a22.199 22.199 0 0 1-2.7 9.43.999.999 0 0 0-.5-.152c-.585 0-1.062.477-1.062 1.063v1.058c.004.133.032.266.082.39a22.135 22.135 0 0 1-4 4.22l-10.148 8.28c-.192.15-.43.231-.672.231v5.668c.7 0 1.375-.25 1.898-.71l8.91-6.75a39.343 39.343 0 0 0 13.512-27L57 14.64a2.897 2.897 0 0 0-2.71-3.07z" fill="#f6d397"/><path d="M55.172 10.75l-4.781-.64A28.999 28.999 0 0 1 36.12 4l-2.25-1.781a3.007 3.007 0 0 0-3.75 0L27.88 4a29.03 29.03 0 0 1-14.277 6.102l-4.782.636a3.004 3.004 0 0 0-2.601 3.153l1 16.64a30.993 30.993 0 0 0 11.84 22.598l9.87 7.723a5.003 5.003 0 0 0 6.16 0l9.872-7.723A30.993 30.993 0 0 0 56.8 30.53l1-16.64a3.002 3.002 0 0 0-2.63-3.141zM54.8 30.422a28.99 28.99 0 0 1-11.082 21.137l-9.867 7.722a3.003 3.003 0 0 1-3.704 0l-9.867-7.722A28.978 28.978 0 0 1 9.21 30.422l-1-16.64a.999.999 0 0 1 .867-1.052l4.781-.64c5.59-.746 10.868-3 15.27-6.52l2.242-1.789a.999.999 0 0 1 1.25 0l2.238 1.79A30.996 30.996 0 0 0 50.12 12.09l4.777.64a1 1 0 0 1 .872 1z" fill="#8d6c9f"/><path d="M51 14.898l-1.148-.097a28.96 28.96 0 0 1-15.18-6L33.23 7.69a1.994 1.994 0 0 0-2.46 0l-1.442 1.12a28.896 28.896 0 0 1-15.18 6L13 14.9a2.003 2.003 0 0 0-1.82 2.1L12 31.32a23.002 23.002 0 0 0 8.48 16.602l9.668 7.84a3.01 3.01 0 0 0 3.782 0l9.672-7.84A23.006 23.006 0 0 0 52 31.32L52.82 17A2.003 2.003 0 0 0 51 14.898zM50 31.2a20.996 20.996 0 0 1-2.559 8.93A1.031 1.031 0 0 0 47 40c-.55 0-1 .45-1 1v1c0 .125.023.254.07.371a21.092 21.092 0 0 1-3.78 4L32.628 54.2a1 1 0 0 1-1.258 0l-9.67-7.84a20.955 20.955 0 0 1-3.777-4c.047-.113.074-.234.078-.359v-1c0-.55-.45-1-1-1a.995.995 0 0 0-.48.14A21.012 21.012 0 0 1 14 31.21l-.82-14.312 1.148-.097a30.907 30.907 0 0 0 16.23-6.403L32 9.27l1.441 1.12a31 31 0 0 0 16.23 6.4l1.15.1z" fill="#8d6c9f"/><path d="M39.102 17.621a28.915 28.915 0 0 1-3.391-2l-2.57-1.8a1.998 1.998 0 0 0-2.29 0l-2.57 1.8a28.944 28.944 0 0 1-8.562 4.098c-.528.156-.832.71-.68 1.242.156.527.711.832 1.242.68a30.921 30.921 0 0 0 9.149-4.38l2.57-1.84 2.57 1.798a30.372 30.372 0 0 0 3.621 2.18 1 1 0 0 0 .91-1.777zm5.108 2.039a30.14 30.14 0 0 1-1.679-.55 1.003 1.003 0 0 0-1.285.605A1.003 1.003 0 0 0 41.852 21c.59.215 1.191.41 1.796.59a1 1 0 1 0 .563-1.918zM22 40c-.55 0-1 .45-1 1v2c0 .55.45 1 1 1s1-.45 1-1v-2c0-.55-.45-1-1-1zm5 0c-.55 0-1 .45-1 1v2c0 .55.45 1 1 1s1-.45 1-1v-2c0-.55-.45-1-1-1zm5 0c-.55 0-1 .45-1 1v2c0 .55.45 1 1 1s1-.45 1-1v-2c0-.55-.45-1-1-1zm5 0c-.55 0-1 .45-1 1v2c0 .55.45 1 1 1s1-.45 1-1v-2c0-.55-.45-1-1-1zm5 0c-.55 0-1 .45-1 1v2c0 .55.45 1 1 1s1-.45 1-1v-2c0-.55-.45-1-1-1z" fill="#8d6c9f"/></svg>