<svg xmlns="http://www.w3.org/2000/svg" viewBox="0 0 64 64"><path d="M32 1.555c-.66 0-1.32.222-1.875.664l-2.242 1.797a28.99 28.99 0 0 1-14.274 6.093l-4.78.641a3.011 3.011 0 0 0-2.595 3.148l.977 16.637a31.021 31.021 0 0 0 11.84 22.602l9.867 7.722a5 5 0 0 0 6.16 0l9.871-7.722a31.021 31.021 0 0 0 11.84-22.602l.977-16.633a3.016 3.016 0 0 0-2.598-3.152l-4.777-.64a28.99 28.99 0 0 1-14.274-6.094l-2.242-1.797A3.021 3.021 0 0 0 32 1.555zm0 2.008a1 1 0 0 1 .625.218l2.238 1.793a30.991 30.991 0 0 0 15.262 6.52l4.777.64a.997.997 0 0 1 .864 1.047l-.97 16.64A29.028 29.028 0 0 1 43.72 51.564l-9.871 7.718a2.987 2.987 0 0 1-3.696 0l-9.87-7.718A29.035 29.035 0 0 1 9.202 30.422l-.973-16.64a1 1 0 0 1 .864-1.048l4.777-.64c5.586-.742 10.86-3 15.258-6.52l2.246-1.793A.984.984 0 0 1 32 3.562zm0 3.703c-.43 0-.867.14-1.23.421l-1.442 1.125a28.958 28.958 0 0 1-15.18 5.989l-1.152.105a1.992 1.992 0 0 0-1.816 2.102l.789 14.308a23.048 23.048 0 0 0 8.476 16.606l9.664 7.832a2.99 2.99 0 0 0 1.891.668 2.99 2.99 0 0 0 1.89-.668l9.665-7.832a23.055 23.055 0 0 0 8.476-16.606l.79-14.308a1.987 1.987 0 0 0-1.817-2.102l-1.152-.11a28.925 28.925 0 0 1-15.18-5.987L33.23 7.688A2.006 2.006 0 0 0 32 7.266zm0 2l1.441 1.125a30.972 30.972 0 0 0 16.23 6.402l1.153.102-.789 14.312a20.989 20.989 0 0 1-2.558 8.934A.957.957 0 0 0 47 40a1 1 0 0 0-1 1v1c0 .133.027.254.074.371a20.994 20.994 0 0 1-3.777 3.992l-9.668 7.84a1.01 1.01 0 0 1-1.258 0l-9.668-7.84a21.139 21.139 0 0 1-3.781-3.992A.916.916 0 0 0 18 42v-1a1 1 0 0 0-1-1 .957.957 0 0 0-.477.14 20.989 20.989 0 0 1-2.558-8.933l-.79-14.312 1.153-.102a30.972 30.972 0 0 0 16.23-6.402zm0 4.156c-.402 0-.805.117-1.145.36l-2.574 1.796a28.781 28.781 0 0 1-8.558 4.098c-.528.156-.832.71-.68 1.242a1 1 0 0 0 .96.723.977.977 0 0 0 .278-.043 30.854 30.854 0 0 0 9.145-4.38L32 15.423l2.566 1.797a31.038 31.038 0 0 0 3.621 2.183.998.998 0 0 0 1.348-.433.997.997 0 0 0-.43-1.344 28.729 28.729 0 0 1-3.39-2.047l-2.57-1.797a2.014 2.014 0 0 0-1.145-.36zm10.133 5.629a.999.999 0 0 0-.887.664.997.997 0 0 0 .602 1.277 30.2 30.2 0 0 0 1.8.586c.094.027.188.043.282.043.433 0 .832-.285.96-.723a1.006 1.006 0 0 0-.683-1.242 29.021 29.021 0 0 1-1.68-.547 1.065 1.065 0 0 0-.394-.058zM22 40a1 1 0 0 0-1 1v2a1 1 0 1 0 2 0v-2a1 1 0 0 0-1-1zm5 0a1 1 0 0 0-1 1v2a1 1 0 1 0 2 0v-2a1 1 0 0 0-1-1zm5 0a1 1 0 0 0-1 1v2a1 1 0 1 0 2 0v-2a1 1 0 0 0-1-1zm5 0a1 1 0 0 0-1 1v2a1 1 0 1 0 2 0v-2a1 1 0 0 0-1-1zm5 0a1 1 0 0 0-1 1v2a1 1 0 1 0 2 0v-2a1 1 0 0 0-1-1z"/></svg>