<svg xmlns="http://www.w3.org/2000/svg" viewBox="0 0 24 24"><path d="M10.246 13.223a2 2 0 0 1-2.754-.653s-.156.125-.383.297l-1.218-1.793L9.34 8.586l.707 1.035-2.227 1.574.524.852a1 1 0 0 0 1.375.324L22 3.625 20.828 2l-9.965 7.047L10.148 8l1.211-.875-1.171-1.617-7.278 5.176 1.262 1.629.906-.653 1.227 1.797a7.41 7.41 0 0 1-.703.445c.082.485-.04 1.547-.305 1.711l-2.992 2.114a.997.997 0 0 0-.325 1.375l1.579 2.421a.998.998 0 0 0 1.375.329L6.637 20.8a4.087 4.087 0 0 0 1.61-1.844l.331-1.277.613.875a1 1 0 0 0 1.41.23l.68-.504c.973-1.023.922-2.23.137-3.504-.008-.015-.016-.02-.023-.035l6.16-4.57a2.002 2.002 0 0 0 .648-2.754zm.524 4.097l-1.02-1.445.797-.613c.008.011.012.027.02.039.503.816.663 1.32.203 2.02z"/></svg>