<svg xmlns="http://www.w3.org/2000/svg" viewBox="0 0 40 40"><path d="M13.2 21.215a.5.5 0 0 1 0-.707L33 .707 35.293 3 15.141 23.152z" fill="#dff0fe"/><path d="M33 1.414L34.586 3 15.14 22.445l-1.586-1.586L33 1.414M33 0L12.848 20.152a.993.993 0 0 0 0 1.414l2.293 2.293L36 3zM21 10l-2 2h-1l-6 6v1l-2 2-2-2 2-2h1l6-6v-1l2-2z" fill="#4788c7"/><path d="M12 16l1-1 5 5-1 1zm3-3l1-1 4.7 4.7-1 1zm3.918 8.254c.45 0 .867.172 1.18.484l1.418 1.418c.312.313.484.73.484 1.18 0 .445-.172.867-.484 1.18a1.66 1.66 0 0 1-1.18.484 1.66 1.66 0 0 1-1.18-.484l-1.418-1.418a1.674 1.674 0 0 1 0-2.36 1.667 1.667 0 0 1 1.18-.484m0-1c-.684 0-1.367.262-1.887.777a2.68 2.68 0 0 0 0 3.774l1.418 1.418c.52.52 1.203.777 1.887.777a2.66 2.66 0 0 0 1.887-.777 2.68 2.68 0 0 0 0-3.774l-1.418-1.418a2.674 2.674 0 0 0-1.887-.777z" fill="#4788c7"/><path d="M9.191 39.5a.85.85 0 0 1-.605-.25l-3.832-3.809a.845.845 0 0 1 0-1.195l5.746-5.71a3.548 3.548 0 0 1 2.52-1.036c.5 0 .996.105 1.449.305.05.183.05.648-.004 1.09l-.965.933v.215c0 3.203-1.324 6.48-3.73 9.234a.847.847 0 0 1-.579.223z" fill="#98ccfd"/><path d="M13.02 28c.335 0 .671.055.988.16 0 .14-.008.324-.024.504l-.68.66-.304.293v.422c0 3.07-1.27 6.219-3.574 8.875A.361.361 0 0 1 9.19 39a.357.357 0 0 1-.254-.102L5.11 35.09a.34.34 0 0 1-.101-.242c0-.055.012-.157.101-.246l5.746-5.711A3.046 3.046 0 0 1 13.02 28m0-1a4.06 4.06 0 0 0-2.872 1.184l-5.746 5.71a1.342 1.342 0 0 0 0 1.903l3.832 3.808a1.358 1.358 0 0 0 1.914 0C12.855 36.508 14 33.027 14 30.043l.934-.906s.242-1.551-.164-1.742A4.075 4.075 0 0 0 13.02 27z" fill="#4788c7"/><path d="M14.348 32.953c-2.582-2.941-2.465-7.437.34-10.242L28.75 8.305a.413.413 0 0 1 .3-.125c.184 0 .442.136.442.437v1.488a4.09 4.09 0 0 1-1.199 2.903L16.805 24.84c-.785.781-1.246 1.922-1.262 3.125-.016 1.07.312 2.07.934 2.86z" fill="#b6dcfe"/><path d="M28.992 8.77v1.335a3.61 3.61 0 0 1-1.062 2.56L16.457 24.48c-1.645 1.641-1.855 4.368-.629 6.286l-1.441 1.445a7.015 7.015 0 0 1 .664-9.156L28.992 8.77m.059-1.09a.939.939 0 0 0-.66.273L14.336 22.355c-3.113 3.114-3.113 8.207 0 11.32l2.828-2.831c-1.559-1.555-1.437-4.223 0-5.657l11.48-11.828a4.604 4.604 0 0 0 1.348-3.254V8.617a.935.935 0 0 0-.941-.937z" fill="#4788c7"/></svg>