<svg xmlns="http://www.w3.org/2000/svg" viewBox="0 0 80 80"><path d="M40 10.234l-.824 1.2S34 18.902 34 28.25V38h-4c-1.094 0-2 .906-2 2v4H17v-3c0-.918-.43-1.734-1.086-2.285A3.972 3.972 0 0 0 17 36c0-1.852-1.285-3.406-3-3.855V23.73A1.999 1.999 0 0 0 13 20a1.999 1.999 0 0 0-1 3.73v8.415c-1.715.449-3 2.003-3 3.855 0 1.047.418 2 1.086 2.715A2.984 2.984 0 0 0 9 41v15.094c0 2.195 1.8 4 4 4 1.754 0 3.238-1.157 3.773-2.735L27 61.191V69h8v-4.809l5 1.875 5-1.875V69h8v-7.809l10.227-3.832c.535 1.578 2.02 2.735 3.773 2.735 2.2 0 4-1.805 4-4V41c0-.918-.43-1.734-1.086-2.285A3.972 3.972 0 0 0 71 36c0-1.852-1.285-3.406-3-3.855V23.73A1.999 1.999 0 0 0 67 20a1.999 1.999 0 0 0-1 3.73v8.415c-1.715.449-3 2.003-3 3.855 0 1.047.418 2 1.086 2.715A2.984 2.984 0 0 0 63 41v3H52v-4c0-1.094-.906-2-2-2h-4v-9.75c0-9.348-5.176-16.816-5.176-16.816zM13 12c-.55 0-1 .45-1 1s.45 1 1 1 1-.45 1-1-.45-1-1-1zm54 0c-.55 0-1 .45-1 1s.45 1 1 1 1-.45 1-1-.45-1-1-1zm-27 2.14c1.133 1.872 4 6.977 4 14.11V40c0 .55.45 1 1 1s1-.45 1-1h4v6c0 .55.45 1 1 1s1-.45 1-1h11v9.309l-23 8.625-23-8.625V46h11c0 .55.45 1 1 1s1-.45 1-1v-6h4c0 .55.45 1 1 1s1-.45 1-1V28.25c0-7.133 2.867-12.238 4-14.11zM13 16c-.55 0-1 .45-1 1s.45 1 1 1 1-.45 1-1-.45-1-1-1zm54 0c-.55 0-1 .45-1 1s.45 1 1 1 1-.45 1-1-.45-1-1-1zm-27 6c-.55 0-1 .45-1 1s.45 1 1 1 1-.45 1-1-.45-1-1-1zm0 4c-.55 0-1 .45-1 1s.45 1 1 1 1-.45 1-1-.45-1-1-1zm-.016 3.984c-.55.012-.992.465-.984 1.016v8c-.004.36.184.695.496.879.313.18.695.18 1.008 0 .312-.184.5-.52.496-.879v-8a1.003 1.003 0 0 0-1.016-1.016zM12.91 34.012c.059.004.121.004.184 0A1.975 1.975 0 0 1 15 36c0 1.117-.883 2-2 2s-2-.883-2-2c0-1.086.836-1.941 1.91-1.988zm54 0c.059.004.121.004.184 0A1.975 1.975 0 0 1 69 36c0 1.117-.883 2-2 2s-2-.883-2-2c0-1.086.836-1.941 1.91-1.988zM12 40h2c.566 0 1 .434 1 1v15.094c0 1.113-.883 2-2 2s-2-.887-2-2V41c0-.566.434-1 1-1zm54 0h2c.566 0 1 .434 1 1v15.094c0 1.113-.883 2-2 2s-2-.887-2-2V41c0-.566.434-1 1-1zm-31 3c-.55 0-1 .45-1 1s.45 1 1 1 1-.45 1-1-.45-1-1-1zm10 0c-.55 0-1 .45-1 1s.45 1 1 1 1-.45 1-1-.45-1-1-1zm-10.016 3.984c-.55.012-.992.465-.984 1.016 0 3.176 2.516 5.734 5.645 5.926.113.047.234.07.355.074a.939.939 0 0 0 .36-.074C43.483 53.73 46 51.176 46 48a1.006 1.006 0 0 0-.496-.879 1.01 1.01 0 0 0-1.008 0c-.312.184-.5.52-.496.879 0 2.219-1.781 4-4 4-2.219 0-4-1.781-4-4a1.003 1.003 0 0 0-1.016-1.016zM29 49c-.55 0-1 .45-1 1s.45 1 1 1 1-.45 1-1-.45-1-1-1zm22 0c-.55 0-1 .45-1 1s.45 1 1 1 1-.45 1-1-.45-1-1-1zm-22 4c-.55 0-1 .45-1 1s.45 1 1 1 1-.45 1-1-.45-1-1-1zm22 0c-.55 0-1 .45-1 1s.45 1 1 1 1-.45 1-1-.45-1-1-1zm-22 8.941l4 1.5V67h-4zm22 0V67h-4v-3.559z"/></svg>