<svg xmlns="http://www.w3.org/2000/svg" viewBox="0 0 32 32"><path d="M15.594 3l-.281.25S12 6.098 12 11v5h-2v2H6V8H4v7H3v11h3v-1.563l4 1.438V29h2v-2.406l1 .375V29h2v-1.313l.656.25.344.125.344-.125.656-.25V29h2v-2.031l1-.375V29h2v-3.125l4-1.438V26h3V15h-1V8h-2v10h-4v-2h-2v-5c0-4.902-3.313-7.75-3.313-7.75l-.28-.25zM16 5.531c.727.793 2 2.418 2 5.469v5h-1v-4h-2v4h-1v-5c0-3.055 1.273-4.676 2-5.469zM12 18h8v4h2v-2h4v2.313l-10 3.625-10-3.625V20h4v2h2zm1 1a3 3 0 0 0 6 0h-2c0 .55-.45 1-1 1s-1-.45-1-1z"/></svg>