<svg xmlns="http://www.w3.org/2000/svg" viewBox="0 0 64 64"><path d="M28.07 2c-1.004 0-1.937.5-2.496 1.336L22.464 8H11c-1.652 0-3 1.348-3 3v6c0 1.652 1.348 3 3 3h.098l3.53 33.523A4.985 4.985 0 0 0 19.603 58h24.8c2.563 0 4.7-1.922 4.97-4.477L52.901 20H53c1.652 0 3-1.348 3-3v-6c0-1.652-1.348-3-3-3H41.535l-3.11-4.664A2.998 2.998 0 0 0 35.93 2zm0 2h7.86c.336 0 .644.168.832.445L39.132 8H24.868l2.371-3.555c.188-.277.496-.445.832-.445zM11 10h42c.55 0 1 .45 1 1v6c0 .55-.45 1-1 1H12c-.023 0-.04.012-.063.016-.019-.004-.039-.016-.062-.016H11c-.55 0-1-.45-1-1v-6c0-.55.45-1 1-1zm3 2a1 1 0 0 0-1 1v2a1 1 0 1 0 2 0v-2a1 1 0 0 0-1-1zm5 0a1 1 0 0 0-1 1v2a1 1 0 1 0 2 0v-2a1 1 0 0 0-1-1zm5 0a1 1 0 0 0-1 1v2a1 1 0 1 0 2 0v-2a1 1 0 0 0-1-1zm5 0a1 1 0 0 0-1 1v2a1 1 0 1 0 2 0v-2a1 1 0 0 0-1-1zm6 0a1 1 0 0 0-1 1v2a1 1 0 1 0 2 0v-2a1 1 0 0 0-1-1zm5 0a1 1 0 0 0-1 1v2a1 1 0 1 0 2 0v-2a1 1 0 0 0-1-1zm5 0a1 1 0 0 0-1 1v2a1 1 0 1 0 2 0v-2a1 1 0 0 0-1-1zm5 0a1 1 0 0 0-1 1v2a1 1 0 1 0 2 0v-2a1 1 0 0 0-1-1zm-36.89 8h37.78l-3.507 33.313A2.992 2.992 0 0 1 44.398 56H19.602a2.992 2.992 0 0 1-2.985-2.688zm10.406 5a1 1 0 0 0-.707 1.707l7.777 7.777-7.777 7.782a.995.995 0 0 0 0 1.41.994.994 0 0 0 .707.293.993.993 0 0 0 .707-.293L32 35.898l7.777 7.778c.196.195.45.293.707.293a.993.993 0 0 0 .707-.293.995.995 0 0 0 0-1.41l-7.777-7.782 7.777-7.777a1 1 0 1 0-1.414-1.414L32 33.07l-7.777-7.777a1 1 0 0 0-.707-.293zM21 52a1 1 0 1 0 0 2h14a1 1 0 1 0 0-2zm18 0a1 1 0 1 0 0 2h4a1 1 0 1 0 0-2z"/></svg>