<svg xmlns="http://www.w3.org/2000/svg" viewBox="0 0 26 26"><path d="M3 6l-.5 1H2c-.55 0-1 .45-1 1v5.125c0 .406.191.836.563 1A1.386 1.386 0 0 1 2.25 16L.406 19.875a.907.907 0 0 0 .406 1.219l1.063.5a.907.907 0 0 0 1.219-.407L4.625 18h3.688c.41 0 .785-.246.937-.625l1.063-2.656 2.843.281L16 14v-3h4s.5.105.5.5-.5.715-.5 1.938V15c0 .55.45 1 1 1h1c.55 0 1-.45 1-1v-1.563c0-1.222-.5-1.542-.5-1.937s.5-.5.5-.5h2v-1h1V8h-1V6h-2v1H6.5L6 6zm3.625 8.344l2.656.25L8.312 17H5.126l.781-1.625c.242.36.586.758 1.032.938l.687-.282c-.531-.398-.828-1.066-1-1.687zm9.625.625l-2.844 1a22.8 22.8 0 0 0 3.781 7.594.723.723 0 0 0 1.032.125l1.187-1a.721.721 0 0 0 .125-1 19.768 19.768 0 0 1-3.281-6.72z"/></svg>