<svg xmlns="http://www.w3.org/2000/svg" viewBox="0 0 50 50"><path d="M48.969 0c-.09.004-.192.031-.282.063L37.594 3.75c-.16.055-.324.156-.438.281L14.438 28.938l3.468 2.437c.285.2.543.46.75.75l2.407 3.438 24.906-22.72c.125-.113.226-.277.281-.437l3.688-11.094c.12-.359.05-.761-.22-1.03a.999.999 0 0 0-.75-.282zM7.437 26.75a1.02 1.02 0 0 0-.625.25l-1.78 1.656c-.2.184-.34.45-.345.719-.003.273.122.527.313.719L19.906 45c.188.188.422.313.688.313h.031c.27-.004.5-.122.688-.313L23 43.25a1.02 1.02 0 0 0 .094-1.281L17 33.28a1.085 1.085 0 0 0-.25-.25l-8.688-6.093a.945.945 0 0 0-.624-.188zm.75 9.375l-3.906 4.938a5.477 5.477 0 0 1 4.657 4.656l4.937-3.907zM3.5 43a3.5 3.5 0 1 0 0 7 3.5 3.5 0 1 0 0-7z"/></svg>