<?xml version="1.0" encoding="utf-8"?>
<!-- Generator: Adobe Illustrator 22.0.1, SVG Export Plug-In . SVG Version: 6.00 Build 0)  -->
<svg version="1.1" xmlns="http://www.w3.org/2000/svg" xmlns:xlink="http://www.w3.org/1999/xlink" x="0px" y="0px"
	 viewBox="0 0 265.833 386.449" enable-background="new 0 0 265.833 386.449" xml:space="preserve">
<g id="BACKGROUND">
</g>
<g id="OBJECTS">
	<g>
		<g>
			<g>
				<path fill="#D1D3D4" d="M241.648,361.781c-0.243,0-0.438-0.196-0.438-0.439V212.364c0-0.242,0.195-0.439,0.438-0.439
					c0.243,0,0.439,0.197,0.439,0.439v148.978C242.088,361.584,241.891,361.781,241.648,361.781z"/>
			</g>
			<g>
				<path fill="#D1D3D4" d="M189.236,373.767c-0.243,0-0.439-0.196-0.439-0.439V231.653c0-0.242,0.195-0.439,0.439-0.439
					s0.44,0.196,0.44,0.439v141.675C189.677,373.571,189.479,373.767,189.236,373.767z"/>
			</g>
			<g>
				<path fill="#D1D3D4" d="M138.977,350.425c-0.243,0-0.438-0.197-0.438-0.44V208.311c0-0.242,0.195-0.439,0.438-0.439
					s0.439,0.197,0.439,0.439v141.674C139.417,350.228,139.221,350.425,138.977,350.425z"/>
			</g>
			<g>
				<path fill="#D1D3D4" d="M94.894,367.052c-0.243,0-0.439-0.197-0.439-0.44V224.937c0-0.242,0.196-0.438,0.439-0.438
					c0.243,0,0.44,0.196,0.44,0.438v141.675C95.334,366.855,95.137,367.052,94.894,367.052z"/>
			</g>
			<g>
				<path fill="#D1D3D4" d="M55.818,348.804c-0.243,0-0.439-0.196-0.439-0.44V206.69c0-0.242,0.196-0.439,0.439-0.439
					c0.243,0,0.44,0.197,0.44,0.439v141.674C56.258,348.608,56.061,348.804,55.818,348.804z"/>
			</g>
			<g>
				<path fill="#D1D3D4" d="M21.673,370.168c-0.243,0-0.439-0.197-0.439-0.44V217.983c0-0.242,0.196-0.438,0.439-0.438
					c0.243,0,0.44,0.196,0.44,0.438v151.745C22.113,369.971,21.916,370.168,21.673,370.168z"/>
			</g>
			<g>
				<polygon fill="#FBB040" points="238.924,353.115 243.381,356.703 249.098,356.466 247.063,361.815 249.054,367.179 
					243.34,366.896 238.852,370.448 237.355,364.925 232.592,361.756 237.381,358.625 				"/>
				<path opacity="0.05" fill="#231F20" d="M244.474,356.657c-0.244,2.689-1.473,7.325-6.783,9.506l1.161,4.285l4.487-3.552
					l5.715,0.283l-1.991-5.364l2.035-5.349L244.474,356.657z"/>
				<path opacity="0.2" fill="#FFFFFF" d="M241.086,358.259c0.148,1.318-0.267,2.448-0.926,2.523
					c-0.66,0.074-1.314-0.935-1.463-2.254c-0.148-1.32,0.268-2.45,0.926-2.523C240.282,355.93,240.937,356.94,241.086,358.259z"/>
			</g>
			<g>
				<polygon fill="#FBB040" points="136.617,341.06 141.075,344.648 146.793,344.412 144.758,349.76 146.749,355.125 
					141.033,354.842 136.547,358.393 135.05,352.871 130.285,349.702 135.075,346.571 				"/>
				<path opacity="0.05" fill="#231F20" d="M142.169,344.603c-0.244,2.688-1.473,7.324-6.783,9.506l1.161,4.284l4.486-3.551
					l5.716,0.282l-1.991-5.364l2.035-5.349L142.169,344.603z"/>
				<path opacity="0.2" fill="#FFFFFF" d="M138.779,346.205c0.148,1.318-0.266,2.449-0.925,2.522
					c-0.66,0.074-1.314-0.935-1.463-2.254c-0.148-1.319,0.267-2.45,0.925-2.523C137.976,343.876,138.632,344.885,138.779,346.205z"
					/>
			</g>
			<g>
				<polygon fill="#FBB040" points="97.604,359.765 99.363,365.21 104.272,368.15 99.636,371.505 98.358,377.082 93.735,373.71 
					88.035,374.217 89.813,368.779 87.569,363.515 93.291,363.527 				"/>
				<path opacity="0.05" fill="#231F20" d="M100.302,365.773c-1.679,2.112-5.25,5.316-10.887,4.225l-1.38,4.22l5.7-0.507
					l4.624,3.372l1.277-5.577l4.636-3.355L100.302,365.773z"/>
				<path opacity="0.2" fill="#FFFFFF" d="M96.589,365.253c-0.599,1.183-1.565,1.9-2.157,1.601c-0.593-0.3-0.587-1.502,0.013-2.688
					c0.601-1.185,1.568-1.901,2.158-1.602C97.195,362.865,97.189,364.068,96.589,365.253z"/>
			</g>
			<g>
				<polygon fill="#FBB040" points="23.198,365.215 24.33,368.724 27.493,370.619 24.507,372.781 23.683,376.375 20.704,374.201 
					17.032,374.528 18.178,371.024 16.731,367.632 20.418,367.639 				"/>
				<path opacity="0.05" fill="#231F20" d="M24.935,369.086c-1.081,1.361-3.383,3.426-7.014,2.723l-0.89,2.719l3.672-0.327
					l2.979,2.174l0.824-3.594l2.987-2.162L24.935,369.086z"/>
				<path opacity="0.2" fill="#FFFFFF" d="M22.543,368.751c-0.386,0.763-1.009,1.226-1.39,1.031
					c-0.382-0.192-0.378-0.968,0.008-1.732c0.388-0.764,1.011-1.225,1.391-1.032C22.934,367.213,22.929,367.988,22.543,368.751z"/>
			</g>
			<g>
				<polygon fill="#FBB040" points="54.994,343.189 57.449,345.94 61.109,346.393 59.25,349.58 59.95,353.2 56.346,352.415 
					53.12,354.2 52.752,350.531 50.058,348.013 53.432,346.53 				"/>
				<path opacity="0.05" fill="#231F20" d="M58.149,346.027c-0.439,1.682-1.709,4.501-5.315,5.326l0.286,2.847l3.227-1.784
					l3.604,0.784l-0.7-3.62l1.859-3.187L58.149,346.027z"/>
				<path opacity="0.2" fill="#FFFFFF" d="M55.826,346.688c-0.045,0.854-0.428,1.527-0.854,1.505
					c-0.427-0.022-0.738-0.732-0.692-1.587c0.045-0.854,0.43-1.528,0.854-1.506C55.561,345.124,55.87,345.833,55.826,346.688z"/>
			</g>
			<g>
				<polygon fill="#FBB040" points="188.648,366.714 191.102,369.466 194.763,369.919 192.904,373.105 193.604,376.725 190,375.941 
					186.773,377.725 186.405,374.057 183.712,371.539 187.087,370.055 				"/>
				<path opacity="0.05" fill="#231F20" d="M191.803,369.553c-0.438,1.682-1.709,4.5-5.314,5.326l0.285,2.846l3.227-1.784
					l3.604,0.784l-0.7-3.62l1.858-3.185L191.803,369.553z"/>
				<path opacity="0.2" fill="#FFFFFF" d="M189.479,370.213c-0.045,0.855-0.428,1.528-0.854,1.506
					c-0.427-0.023-0.737-0.732-0.692-1.587c0.046-0.854,0.43-1.529,0.854-1.507C189.215,368.649,189.524,369.359,189.479,370.213z"
					/>
			</g>
		</g>
		<g>
			<g>
				<path fill="#DCF2F4" d="M262.56,168.022c0-19.595-15.886-35.479-35.479-35.479c-19.595,0-35.479,15.884-35.479,35.479
					c0,3.863,0.625,7.579,1.768,11.06c-0.81,0.715-1.585,1.467-2.326,2.253c-7.114-4.797-15.686-7.599-24.913-7.599
					c-13.875,0-26.27,6.335-34.452,16.27c-5.939-4.479-13.33-7.137-21.341-7.137c-1.071,0-2.13,0.053-3.178,0.146
					c2.568-4.909,4.028-10.49,4.028-16.414c0-19.596-15.885-35.479-35.479-35.479c-4.201,0-8.229,0.735-11.968,2.075
					c-6.413-6.364-15.242-10.299-24.99-10.299c-19.594,0-35.479,15.884-35.479,35.479c0,8.236,2.814,15.811,7.523,21.832
					c-3.754,6.424-5.916,13.893-5.916,21.871c0,23.979,19.441,43.419,43.419,43.419c11.619,0,22.163-4.571,29.955-12.005
					c5.683,12.019,17.912,20.334,32.087,20.334c8.011,0,15.402-2.657,21.341-7.137c8.181,9.936,20.577,16.269,34.452,16.269
					c17.067,0,31.891-9.589,39.393-23.667c3.558,1.196,7.363,1.857,11.325,1.857c19.594,0,35.48-15.885,35.48-35.479
					c0-3.863-0.626-7.578-1.768-11.059C257.915,188.111,262.56,178.611,262.56,168.022z"/>
				<path opacity="0.04" fill="#231F20" d="M205.522,239.293c3.558,1.196,7.363,1.857,11.325,1.857
					c19.594,0,35.48-15.885,35.48-35.479c0-3.52-0.525-6.915-1.482-10.125c-5.155,4.322-11.823,6.826-20.219,4.735
					c0,0,0,40.627-41.906,32.55c0,0-27.594,27.161-69.902,0.718c0,0-20.992,9.345-47.042-12.514c0,0-63.061,14.245-51.267-42.375
					c0,0-9.334,1.148-14.977-7.825c1.279,3.402,3.06,6.56,5.261,9.374c-3.754,6.424-5.916,13.893-5.916,21.871
					c0,23.979,19.441,43.419,43.419,43.419c11.619,0,22.163-4.571,29.955-12.005c5.683,12.019,17.912,20.334,32.087,20.334
					c8.011,0,15.402-2.657,21.341-7.137c8.181,9.936,20.577,16.269,34.452,16.269C183.197,262.96,198.02,253.372,205.522,239.293z"
					/>
				<path opacity="0.05" fill="#231F20" d="M30.989,174.628c0,0,38.155,9.672,53.127,30.934
					C84.115,205.561,69.798,160.464,30.989,174.628z"/>
				<path opacity="0.05" fill="#231F20" d="M202.759,188.313c0,0,18.442-27.062,48.064-27.081
					C250.823,161.231,208.016,145.4,202.759,188.313z"/>
			</g>
			<g>
				<g>
					<path fill="#FBB040" d="M154.981,153.523C101.918,139.568,70.215,85.238,84.17,32.174C87.297,20.286,92.456,9.472,99.168,0
						c-33.617,11.653-61,39.304-70.729,76.298c-15.512,58.986,19.729,119.38,78.715,134.893
						c57.799,15.2,116.941-18.334,133.895-75.183C217.479,154.222,186.016,161.685,154.981,153.523z"/>
					<path opacity="0.05" fill="#231F20" d="M241.05,136.008c-12.686,9.803-27.659,16.485-43.62,19.3
						c-26.167,20.081-61.01,28.275-95.379,19.237c-38.007-9.996-66.15-38.627-77.216-73.505
						c-1.569,50.282,31.595,96.812,82.319,110.152C164.953,226.391,224.096,192.857,241.05,136.008z"/>
				</g>
				<g>
					<path fill="#F9C0D2" d="M212.669,130.465c0.527,14.056-11.457,25.915-36.294,26.847c-24.838,0.93-53.121-9.418-53.649-23.474
						c-0.526-14.057,26.904-26.495,51.741-27.426C199.304,105.481,212.142,116.411,212.669,130.465z"/>
					<path opacity="0.08" fill="#231F20" d="M229.176,151.005c-0.272-3.553-1.576-7.255-3.376-9.838
						c-0.218-0.348-0.471-0.676-0.754-0.988c-0.945-1.106-1.996-1.888-3.086-2.214c-1.693-0.813-3.746-1.369-6.022-1.681
						c-0.014-0.002-0.025-0.004-0.037-0.005c-0.557-0.075-1.124-0.139-1.704-0.185c0-0.001-0.001-0.003-0.001-0.006
						c-0.066-0.278-0.138-0.55-0.22-0.816c-0.004-0.012-0.007-0.023-0.011-0.034c-0.077-0.254-0.162-0.502-0.255-0.743
						c-0.01-0.023-0.018-0.046-0.025-0.068c-0.09-0.227-0.186-0.448-0.287-0.663c-0.017-0.033-0.031-0.066-0.047-0.099
						c-0.098-0.201-0.204-0.394-0.313-0.583c-0.024-0.042-0.047-0.084-0.071-0.126c-0.105-0.175-0.219-0.342-0.336-0.505
						c-0.011-0.016-0.02-0.033-0.031-0.048c-1.131-13.529-13.935-23.881-38.131-22.973c-4.717,0.177-9.526,0.77-14.223,1.709
						c-0.082-0.37-0.167-0.741-0.257-1.114c0,0.001,0.002,0.001,0.002,0.002c-1.612-13.316-7.347-31.707-35-23.15
						c0,0-8.344-3.478-20.047,3.706c-10.781,6.616-13.782,24.437-7.179,36.635c6.602,12.197-5.769,11.166-5.769,11.166
						s8.585,7.052,13.901,0.321c0.407,0.587,0.832,1.153,1.278,1.697c0.095,0.116,0.193,0.229,0.291,0.343
						c0.293,0.345,0.596,0.679,0.906,1.003c0.092,0.097,0.182,0.195,0.276,0.29c0.399,0.403,0.811,0.79,1.24,1.158
						c0.061,0.051,0.124,0.099,0.185,0.149c0.373,0.313,0.759,0.612,1.155,0.898c0.124,0.09,0.25,0.179,0.376,0.266
						c0.397,0.272,0.804,0.531,1.224,0.776c0.081,0.047,0.158,0.099,0.239,0.145c0.502,0.283,1.023,0.545,1.56,0.788
						c0.116,0.052,0.238,0.1,0.356,0.15c0.438,0.189,0.887,0.363,1.35,0.525c0.149,0.052,0.299,0.105,0.451,0.155
						c0.991,0.321,2.034,0.582,3.139,0.775c-0.306,0.196-0.59,0.417-0.832,0.688c-2.414,2.697-0.495,8.121,4.291,12.117
						c1.832,1.529,3.559,2.406,5.13,2.761c3.036,1.096,7.092,1.774,11.963,1.723c0.276-0.002,0.568-0.018,0.849-0.025
						c0.45-0.012,0.894-0.019,1.356-0.044c0.763-0.04,1.543-0.098,2.34-0.174c0.41-0.039,0.805-0.081,1.183-0.123
						c0.179-0.021,0.341-0.043,0.514-0.064c0.201-0.025,0.406-0.049,0.599-0.076c0.141-0.019,0.271-0.04,0.406-0.06
						c0.214-0.032,0.431-0.063,0.635-0.096c0.098-0.016,0.189-0.033,0.284-0.05c0.23-0.04,0.457-0.08,0.672-0.122
						c0.066-0.013,0.129-0.026,0.193-0.04c0.236-0.047,0.469-0.096,0.688-0.148c0.037-0.008,0.073-0.017,0.109-0.027
						c0.24-0.056,0.47-0.115,0.691-0.176c0.018-0.005,0.036-0.011,0.055-0.015c0.231-0.065,0.45-0.132,0.659-0.2
						c0.01-0.004,0.02-0.008,0.03-0.011c0.212-0.07,0.412-0.144,0.604-0.219c0.004-0.001,0.007-0.003,0.011-0.004
						c0,0,0.002-0.001,0.004-0.001c0.697-0.148,1.434-0.372,2.219-0.682c0.046-0.019,0.094-0.039,0.141-0.058
						c0.318-0.129,0.645-0.274,0.979-0.432c0.093-0.043,0.186-0.086,0.279-0.131c0.391-0.191,0.786-0.396,1.198-0.626
						c1.163-0.654,2.204-1.343,3.142-2.054c5.309,0.754,10.764,1.074,16.064,0.875c1.821-0.068,3.564-0.202,5.248-0.384
						c0.967,2.187,2.539,4.063,4.598,5.526c0.421,0.298,0.853,0.57,1.292,0.819c0.126,0.071,0.256,0.129,0.384,0.195
						c0.32,0.171,0.641,0.334,0.969,0.477c0.141,0.06,0.284,0.109,0.428,0.165c0.325,0.128,0.649,0.249,0.982,0.35
						c0.137,0.041,0.274,0.074,0.412,0.111c0.347,0.094,0.698,0.176,1.052,0.241c0.122,0.021,0.245,0.039,0.368,0.056
						c0.379,0.058,0.758,0.098,1.142,0.119c0.104,0.007,0.207,0.01,0.311,0.014c0.413,0.013,0.826,0.005,1.243-0.023
						c0.08-0.006,0.157-0.009,0.237-0.017c0.45-0.038,0.9-0.102,1.353-0.191c0.051-0.009,0.102-0.017,0.153-0.028
						c0.49-0.102,0.981-0.231,1.474-0.392c0.013-0.005,0.024-0.005,0.037-0.01c0.012,0,0.024-0.004,0.035-0.006
						c0.535-0.065,1.078-0.151,1.636-0.255c0.073-0.014,0.149-0.031,0.224-0.045c0.508-0.1,1.018-0.209,1.544-0.342
						c0.232-0.058,0.472-0.129,0.708-0.195c0.395-0.109,0.786-0.212,1.189-0.339c0.677-0.213,1.365-0.448,2.068-0.717
						c0.456-0.174,0.913-0.361,1.367-0.553c0.118-0.051,0.234-0.103,0.352-0.153c0.357-0.155,0.711-0.314,1.064-0.478
						c0.106-0.05,0.214-0.099,0.32-0.149c0.933-0.444,1.854-0.92,2.758-1.427c0.014-0.008,0.026-0.015,0.04-0.023
						c0.452-0.253,0.897-0.515,1.34-0.782c0.024-0.016,0.05-0.031,0.075-0.046c1.387-0.844,2.719-1.751,3.976-2.707
						c1.504,1.631,3.504,2.357,5.652,2.191C226.558,161.009,229.675,157.505,229.176,151.005z"/>
					<g>
						<g>
							<g>
								<path fill="#FEDFC0" d="M186.221,162.454c-6.391-4.54-8.167-13.017-1.348-22.617c6.818-9.6,19.645-16.686,26.038-12.146
									c6.391,4.538,3.924,18.986-2.894,28.586C201.2,165.872,192.611,166.993,186.221,162.454z"/>
								<path fill="#FEDFC0" d="M182.043,156.186c-2.798-7.323,1.053-15.598,13.294-20.271c12.238-4.671,28.235-3.977,31.028,3.35
									c2.799,7.323-8.666,18.502-20.905,23.176C193.22,167.109,184.838,163.509,182.043,156.186z"/>
								<path fill="#FEDFC0" d="M222.404,158.313c-4.155,0.321-7.771-2.667-8.275-9.167c-0.5-6.497,2.307-14.045,6.461-14.367
									c4.156-0.317,8.085,6.711,8.585,13.208C229.675,154.489,226.558,157.993,222.404,158.313z"/>
							</g>
							<path fill="#F9C0D2" d="M217.559,133.54c-1.065-0.213-2.19-0.369-3.362-0.462c-0.537-2.303-1.601-4.192-3.286-5.388
								c-6.393-4.54-19.22,2.546-26.038,12.146c-6.819,9.6-5.043,18.077,1.348,22.617c3.502,2.488,7.664,3.26,11.835,1.886
								c2.277-0.282,4.744-0.883,7.404-1.899c3.998-1.527,7.909-3.75,11.272-6.304C219.067,149.006,217.962,137.099,217.559,133.54z
								"/>
						</g>
						<g>
							<g>
								<g>
									<g>
										<g>
											<g>
												<path fill="#FEDFC0" d="M144.561,137.898c10.62-5.969,17.314-4.428,20.738,0.743c3.422,5.167,2.486,13.877-8.13,19.849
													c-10.624,5.972-14.001-1.747-17.344-6.97C137.015,147.129,133.941,143.868,144.561,137.898z"/>
											</g>
										</g>
									</g>
									<g>
										<g>
											<g>
												<path fill="#FEDFC0" d="M139.966,143.577c12.738-2.466,13.213,1.587,14.465,7.626c1.253,6.034,3.503,9.415-9.413,10.647
													c-12.915,1.232-21.545-2.323-22.507-6.368C121.279,150.294,127.224,146.047,139.966,143.577z"/>
											</g>
										</g>
									</g>
									<g>
										<g>
											<g>
												<g>
													<path fill="#F7D5B7" d="M132.126,147.84c4.786,3.994,4.939,7.944,2.523,10.643c-2.415,2.697-6.488,3.119-11.27-0.874
														c-4.786-3.996-6.705-9.42-4.291-12.117C121.505,142.795,127.342,143.846,132.126,147.84z"/>
												</g>
											</g>
										</g>
										<g>
											<g>
												<g>
													<path fill="#F7D5B7" d="M130.396,157.522c-2.84,2.037-5,0.214-6.114-3.142c-1.115-3.356-0.763-6.979,2.074-9.012
														c2.842-2.037,6.046-0.965,7.161,2.394C134.63,151.116,133.231,155.486,130.396,157.522z"/>
												</g>
											</g>
										</g>
									</g>
								</g>
							</g>
							<path fill="#F9C0D2" d="M165.3,138.642c-3.424-5.171-10.118-6.712-20.738-0.743c-4.33,2.434-6.383,4.417-7.105,6.211
								c-1.561,0.357-2.994,0.75-4.313,1.167c0.576,2.567,1.307,8.999-3.55,15.44c3.866,1.181,9.119,1.736,15.425,1.133
								c3.399-0.323,5.74-0.799,7.332-1.429c1.423-0.305,3.015-0.915,4.82-1.93C167.786,152.519,168.721,143.808,165.3,138.642z"/>
						</g>
					</g>
					<g>
						<g>
							<path opacity="0.08" fill="#231F20" d="M122.726,133.838c0.144,3.844,2.375,7.408,6.033,10.542
								c-0.52,0.067-1.048,0.23-1.575,0.494c-3.187-1.247-6.185-1.176-7.855,0.404c5.315,1.626,12.192,1.627,21.231-0.59
								c26.042-6.386,27.609-20.739,23.718-37.277C142.694,110.76,122.272,121.691,122.726,133.838z"/>
							<path fill="#FEDFC0" d="M99.476,120.645c4.734,17.034,12.827,29.662,38.442,22.543c25.615-7.119,26.031-22.11,21.297-39.146
								c-4.735-17.038-20.666-22.514-37.161-17.93C105.559,90.694,94.741,103.607,99.476,120.645z"/>
							<path opacity="0.08" fill="#231F20" d="M144.054,93.905c-1.663-1.577-13.186-2.104-15.258-3.509
								c-2.071-1.404-8.144-0.497-10.75,0c-1.173,0.224-7.737,3.61-14.754,7.656c-4.536,6.031-6.272,13.755-3.815,22.593
								c3.252,11.702,8.09,21.325,19.105,23.893c-12.284-4.995-6.779-18.644-6.779-18.644l2.672,1.841
								c0.238-5.227,2.673-12.452,2.673-12.452l0.237,2.057c7.9-12.889,23.697-15.823,23.697-15.823l13.709-2.444
								C154.599,98.386,145.718,95.483,144.054,93.905z"/>
						</g>
						<path fill="#F49D8C" d="M130.609,125.82c0.274,0.989,1.676,1.458,3.133,1.054c1.455-0.404,2.413-1.53,2.139-2.52
							c-0.273-0.981-1.675-1.455-3.131-1.05C131.291,123.707,130.335,124.837,130.609,125.82z"/>
						<g>
							<path fill="#594A42" d="M117.957,128.22c-0.863,0-1.699-0.2-2.389-0.588c-0.739-0.415-1.251-1.022-1.442-1.708
								c-0.141-0.505,0.154-1.029,0.66-1.17c0.505-0.144,1.03,0.154,1.171,0.66c0.054,0.192,0.252,0.398,0.543,0.561
								c0.515,0.29,1.436,0.496,2.474,0.204c1.484-0.415,2.347-1.636,2.182-2.225c-0.141-0.505,0.155-1.03,0.66-1.17
								c0.506-0.143,1.03,0.154,1.171,0.66c0.495,1.771-1.141,3.906-3.5,4.566C118.984,128.15,118.466,128.22,117.957,128.22z"/>
						</g>
						<g>
							<path fill="#594A42" d="M144.58,120.755c-0.867,0-1.708-0.201-2.399-0.591c-0.734-0.416-1.245-1.021-1.435-1.705
								c-0.14-0.505,0.155-1.029,0.662-1.17c0.505-0.136,1.03,0.157,1.169,0.662c0.054,0.192,0.249,0.396,0.538,0.558
								c0.517,0.291,1.439,0.496,2.481,0.208c1.482-0.417,2.345-1.638,2.18-2.227c-0.142-0.506,0.154-1.03,0.659-1.171
								c0.504-0.141,1.029,0.154,1.171,0.659c0.495,1.771-1.138,3.905-3.497,4.569C145.606,120.687,145.089,120.755,144.58,120.755z
								"/>
						</g>
						<path opacity="0.5" fill="#F49D8C" d="M111.695,135.624c0.634,2.255,2.971,3.567,5.227,2.937
							c2.252-0.632,3.567-2.972,2.936-5.226c-0.632-2.253-2.971-3.569-5.225-2.938C112.377,131.03,111.064,133.371,111.695,135.624z
							"/>
						<path opacity="0.5" fill="#F49D8C" d="M148.3,125.361c0.633,2.255,2.973,3.569,5.228,2.937
							c2.253-0.632,3.568-2.969,2.934-5.224c-0.631-2.253-2.969-3.568-5.224-2.939C148.984,120.766,147.668,123.108,148.3,125.361z"
							/>
						<path fill="#594A42" d="M133.454,134.255c0.356,1.269,1.624,2.021,2.833,1.684c1.209-0.339,1.901-1.643,1.545-2.91
							c-0.355-1.268-1.622-2.021-2.832-1.682C133.79,131.686,133.097,132.989,133.454,134.255z"/>
						<path fill="#CC5E44" d="M159.99,107.009c-1.612-13.315-7.347-31.707-35-23.149c0,0-8.344-3.478-20.047,3.706
							c-10.781,6.616-13.782,24.436-7.179,36.635c6.602,12.197-5.769,11.166-5.769,11.166s11.087,9.115,15.864-3.246
							c1.957-5.062,2.934-10.944,4.366-16.477c0.375,2.516,1.057,5.26,2.18,8.208c0,0.001-0.488-8.548,5.229-17.371
							c-0.749,1.677-1.05,4.682-1.05,6.842C118.583,113.323,133.873,91.649,159.99,107.009z"/>
						<path fill="#E88A7E" d="M153.735,94.747c-7.88-3.896-19.232-4.712-30.908-1.458c-12.124,3.381-21.664,10.328-26.174,18.076
							c-0.132,1.032,0.255,2.552,1.043,3.899c4.306-5.334,12.211-10.206,21.243-13.595c1.747-1.807,3.912-3.283,6.661-4.291
							c0,0,6.907-0.91,14.751-0.002c5.373-0.135,10.395,0.345,14.439,1.696C154.733,97.495,154.132,95.94,153.735,94.747z"/>
						<g>
							<g>
								<path fill="#F7B0AA" d="M123.638,95.391c0,0-3.68-4.468-14.152-5.036c-9.828-0.535-3.52,5.834-1.933,13.839
									c0.944,4.762,9.608,1.635,16.603-6.951L123.638,95.391z"/>
								<path opacity="0.3" fill="#FFFFFF" d="M106.554,92.982c-0.107,1.042,2.064,2.114,4.844,2.394
									c2.782,0.279,5.121-0.336,5.226-1.377c0.105-1.043-2.063-2.114-4.845-2.393C108.996,91.325,106.659,91.942,106.554,92.982z"
									/>
								<path opacity="0.05" fill="#231F20" d="M107.554,104.194c-0.206-1.042-0.495-2.059-0.816-3.033l0,0
									c0,0,1.899,3.804,7.953,1.427c6.055-2.378,6.378-7.559,6.378-7.559l0.641-1.221c1.347,0.882,1.929,1.583,1.929,1.583
									l0.519,1.852C117.162,105.829,108.497,108.955,107.554,104.194z"/>
							</g>
							<g>
								<path fill="#F7B0AA" d="M142.657,94.352c-2.804-7.661-0.728-16.383-8.846-10.817c-8.65,5.93-9.469,11.658-9.469,11.658
									l0.517,1.853C135.3,100.742,144.326,98.91,142.657,94.352z"/>
								<path opacity="0.3" fill="#FFFFFF" d="M135.855,84.564c0.688,0.791-0.468,2.917-2.577,4.748
									c-2.109,1.835-4.376,2.681-5.064,1.894c-0.685-0.792,0.47-2.918,2.579-4.753C132.903,84.619,135.168,83.774,135.855,84.564z
									"/>
								<path opacity="0.05" fill="#231F20" d="M142.657,94.352c-0.365-0.999-0.646-2.014-0.881-3.014l0,0
									c0,0,0.355,4.234-6.053,5.351c-6.408,1.118-9.377-3.137-9.377-3.137l-1.183-0.714c-0.692,1.455-0.822,2.355-0.822,2.355
									l0.517,1.853C135.3,100.742,144.326,98.91,142.657,94.352z"/>
							</g>
							<g>
								<path fill="#F7B0AA" d="M123.148,95.994c0,0-0.011,7.321-2.952,12.754c0,0,1.313,0.531,3.17-0.961l2.143,2.064
									c0,0,2.226-2.461-1.625-13.803"/>
								<path opacity="0.05" fill="#231F20" d="M123.148,95.994l0.736,0.054c1.365,4.02,1.964,6.919,2.172,8.992
									c-0.987-3.034-2.714-4.334-3.284-4.688C123.145,97.831,123.148,95.994,123.148,95.994z"/>
							</g>
							<g>
								<path fill="#F7B0AA" d="M125.222,95.409c0,0,3.816,6.251,9.154,9.363c0,0-0.845,1.138-3.208,0.828l-0.758,2.877
									c0,0-3.18-0.947-5.786-12.635"/>
								<path opacity="0.05" fill="#231F20" d="M125.222,95.409l-0.598,0.432c0.921,4.144,1.917,6.931,2.819,8.81
									c-0.734-3.107,0.066-5.113,0.368-5.71C126.182,96.98,125.222,95.409,125.222,95.409z"/>
							</g>
							<path fill="#F9D7D4" d="M120.763,97.074c0.544,1.952,2.57,3.088,4.519,2.541c1.952-0.547,3.088-2.569,2.542-4.52
								c-0.547-1.952-2.573-3.089-4.521-2.542C121.353,93.101,120.213,95.125,120.763,97.074z"/>
							<path opacity="0.05" fill="#231F20" d="M127.784,97.205c-0.366,1.134-1.27,2.066-2.501,2.41
								c-1.949,0.547-3.975-0.59-4.519-2.541c-0.412-1.456,0.122-2.954,1.23-3.847C122.593,94.646,124.252,97.529,127.784,97.205z"
								/>
							<path opacity="0.3" fill="#FFFFFF" d="M125.3,94.465c0.56,0.358,1.197,0.398,1.43,0.092c0.233-0.308-0.033-0.847-0.588-1.209
								c-0.559-0.359-1.197-0.401-1.43-0.093C124.479,93.563,124.746,94.103,125.3,94.465z"/>
						</g>
					</g>
					<g>
						<g>
							<path opacity="0.08" fill="#231F20" d="M169.262,179.007c3.269,0.469,8.067,0.405,14.464-1.618
								c7.537-2.384,17.877-2.054,25.394-1.329c0.02,0.002,0.038,0.003,0.058,0.005c7.852,0.838,9.441-7.144,9.708-11.808
								l-2.801-37.975c0-3.31-1.039-8.2-3.724-10.21c-0.713-0.535,0.696,0.059-0.072-0.401c-2.438-1.459-4.918-2.878-7.434-4.217
								c-3.179-1.692-6.558-3.064-10.116-3.857c-5.695-1.269-11.675-1.335-17.485-0.945c-1.681,0.113-3.359,0.274-5.031,0.47
								c-1.642,0.193-3.32,0.366-4.917,0.802c-1.046,0.287-2.188,0.724-2.772,1.654c-0.33,0.526-0.512,1.254-0.512,1.865v58.694
								C164.02,177.231,168.94,178.904,169.262,179.007z"/>
							<path fill="#F7B0AA" d="M168.068,176.211c3.191,0.469,7.877,0.406,14.121-1.617c7.357-2.385,17.453-2.054,24.792-1.328
								c0.019,0.002,0.035,0.002,0.057,0.004c7.664,0.838,9.217-7.144,9.477-11.808v-39.001c0-3.31-1.631-6.095-4.251-8.105
								c-0.696-0.536-1.438-1.021-2.19-1.482c-2.38-1.459-4.801-2.878-7.256-4.217c-3.104-1.692-6.402-3.064-9.875-3.857
								c-5.561-1.268-11.398-1.336-17.073-0.945c-1.641,0.112-3.277,0.274-4.91,0.47c-1.604,0.192-3.243,0.366-4.802,0.801
								c-1.021,0.287-2.137,0.724-2.705,1.654c-0.324,0.526-0.5,1.254-0.5,1.866v58.694
								C162.952,174.436,167.754,176.109,168.068,176.211z"/>
							<path fill="#FAD4DF" d="M212.263,114.357c-0.696-0.536-1.438-1.021-2.19-1.482c-2.38-1.459-4.801-2.878-7.256-4.217
								c-3.104-1.692-6.402-3.064-9.875-3.857c-5.561-1.268-11.398-1.336-17.073-0.945c-1.641,0.112-3.277,0.274-4.91,0.47
								c-1.604,0.192-3.243,0.366-4.802,0.801c-0.24,0.068-0.487,0.147-0.73,0.235c-0.073,0.291-0.112,0.588-0.112,0.861v53.748
								c0,6.496,4.379,8.028,4.665,8.121c2.908,0.431,7.182,0.373,12.875-1.48c6.709-2.183,15.914-1.882,22.605-1.216
								c0.017,0.001,0.033,0.001,0.051,0.003c6.989,0.768,8.406-6.542,8.641-10.812v-35.714c0-1.262-0.268-2.434-0.742-3.512
								C213.051,115.011,212.675,114.671,212.263,114.357z"/>
							<path opacity="0.05" fill="#231F20" d="M182.562,157.725c-9.646-2.82-15.213-1.853-19.61,0.214v9.402
								c0,7.094,4.802,8.768,5.116,8.869c3.191,0.469,7.877,0.406,14.121-1.617c7.357-2.385,17.453-2.054,24.792-1.328
								c0.019,0.002,0.035,0.002,0.057,0.004c7.664,0.838,9.217-7.144,9.477-11.808v-39.001c0-0.953-0.15-1.856-0.404-2.717
								l-0.215-0.053C215.895,119.692,202.173,163.46,182.562,157.725z"/>
							<path opacity="0.2" fill="#FFFFFF" d="M181.683,137.649c0.159,1.076-0.623,2.072-1.746,2.223
								c-1.125,0.151-2.161-0.599-2.319-1.675c-0.158-1.075,0.624-2.072,1.747-2.223
								C180.488,135.823,181.526,136.574,181.683,137.649z M185.682,120.5c-1.123,0.15-1.904,1.148-1.747,2.222
								c0.157,1.076,1.195,1.828,2.32,1.675c1.123-0.149,1.904-1.144,1.747-2.222C187.846,121.1,186.805,120.348,185.682,120.5z
								 M191.104,127.064c-1.123,0.15-1.905,1.147-1.747,2.222c0.157,1.077,1.195,1.825,2.319,1.672
								c1.124-0.147,1.904-1.142,1.746-2.221C193.266,127.664,192.226,126.913,191.104,127.064z M182.68,128.195
								c-1.124,0.15-1.906,1.147-1.748,2.221c0.158,1.078,1.195,1.826,2.318,1.675c1.124-0.149,1.906-1.145,1.747-2.221
								C184.842,128.797,183.803,128.044,182.68,128.195z M187.465,160.775c1.124-0.15,1.904-1.144,1.746-2.221
								c-0.157-1.074-1.195-1.826-2.318-1.675c-1.125,0.15-1.905,1.147-1.748,2.221
								C185.304,160.176,186.341,160.925,187.465,160.775z M187.79,134.842c-1.124,0.152-1.905,1.147-1.748,2.221
								c0.159,1.076,1.198,1.827,2.321,1.677c1.122-0.152,1.903-1.146,1.746-2.224C189.952,135.443,188.914,134.691,187.79,134.842z
								 M179.04,161.907c1.124-0.151,1.905-1.146,1.748-2.222c-0.158-1.074-1.197-1.827-2.32-1.675
								c-1.123,0.15-1.905,1.147-1.748,2.221C176.878,161.309,177.917,162.058,179.04,161.907z M182.043,154.213
								c1.124-0.151,1.906-1.146,1.748-2.222c-0.158-1.076-1.196-1.827-2.32-1.677c-1.123,0.15-1.904,1.148-1.746,2.222
								C179.882,153.612,180.92,154.364,182.043,154.213z M180.572,113.854c-1.123,0.151-1.904,1.146-1.747,2.221
								c0.16,1.076,1.197,1.826,2.32,1.675c1.122-0.151,1.904-1.145,1.747-2.223C182.734,114.455,181.696,113.705,180.572,113.854z
								 M194.108,119.367c-1.124,0.153-1.905,1.148-1.747,2.222c0.158,1.08,1.195,1.828,2.319,1.677
								c1.123-0.152,1.906-1.144,1.747-2.221C196.269,119.969,195.232,119.217,194.108,119.367z M185.358,146.433
								c1.122-0.148,1.905-1.145,1.746-2.222c-0.157-1.074-1.195-1.825-2.317-1.673c-1.124,0.15-1.906,1.146-1.748,2.221
								C183.197,145.835,184.234,146.585,185.358,146.433z M177.258,121.632c-1.122,0.152-1.905,1.146-1.746,2.221
								c0.159,1.079,1.196,1.826,2.318,1.676c1.125-0.15,1.906-1.146,1.747-2.222C179.42,122.234,178.383,121.481,177.258,121.632z
								 M176.934,147.566c1.123-0.151,1.904-1.145,1.746-2.222c-0.159-1.075-1.197-1.826-2.32-1.675
								c-1.122,0.15-1.904,1.146-1.746,2.221C174.771,146.966,175.809,147.716,176.934,147.566z M188.998,112.723
								c-1.125,0.151-1.904,1.146-1.748,2.22c0.158,1.078,1.196,1.828,2.321,1.677c1.122-0.149,1.904-1.147,1.744-2.222
								C191.158,113.323,190.12,112.572,188.998,112.723z M210.957,117.104c-1.122,0.151-1.904,1.147-1.746,2.221
								c0.157,1.079,1.195,1.827,2.319,1.677c1.123-0.152,1.905-1.145,1.748-2.224C213.118,117.705,212.08,116.955,210.957,117.104z
								 M197.423,111.591c-1.123,0.15-1.907,1.146-1.747,2.221c0.158,1.075,1.195,1.826,2.318,1.676
								c1.124-0.152,1.906-1.144,1.748-2.223C199.583,112.191,198.546,111.44,197.423,111.591z M170.043,159.141
								c-1.124,0.153-1.905,1.147-1.747,2.222c0.158,1.077,1.195,1.828,2.32,1.675c1.122-0.151,1.904-1.143,1.746-2.222
								C172.205,159.743,171.166,158.992,170.043,159.141z M214.151,154.341c-0.424-0.607-1.179-0.968-1.984-0.859
								c-1.123,0.151-1.905,1.147-1.747,2.22c0.158,1.079,1.196,1.828,2.319,1.678c0.477-0.064,0.884-0.286,1.191-0.595
								c0.114-0.777,0.185-1.526,0.221-2.196V154.341z M208.852,161.259c-1.123,0.151-1.904,1.15-1.746,2.222
								c0.12,0.823,0.755,1.452,1.549,1.637c1-0.327,1.824-0.875,2.499-1.579c0.033-0.194,0.048-0.395,0.017-0.603
								C211.013,161.86,209.975,161.107,208.852,161.259z M168.833,122.765c-1.123,0.148-1.904,1.147-1.747,2.22
								c0.157,1.077,1.197,1.828,2.32,1.676c1.123-0.15,1.904-1.145,1.746-2.221C170.994,123.365,169.957,122.613,168.833,122.765z
								 M213.064,131.445c-1.123,0.151-1.904,1.149-1.747,2.223c0.157,1.076,1.195,1.828,2.318,1.675
								c0.184-0.024,0.354-0.078,0.516-0.145v-3.606C213.819,131.455,213.448,131.393,213.064,131.445z M172.721,118.883
								c1.122-0.149,1.905-1.146,1.747-2.222c-0.158-1.074-1.197-1.826-2.318-1.675c-1.125,0.151-1.906,1.148-1.748,2.221
								C170.558,118.285,171.596,119.036,172.721,118.883z M200.784,120.458c0.16,1.077,1.197,1.828,2.32,1.675
								c1.123-0.15,1.906-1.146,1.747-2.222c-0.156-1.075-1.195-1.828-2.319-1.675C201.409,118.386,200.628,119.384,200.784,120.458
								z M199.529,125.931c-1.123,0.151-1.905,1.147-1.747,2.222c0.158,1.078,1.195,1.825,2.319,1.676
								c1.123-0.152,1.905-1.145,1.747-2.22C201.689,126.533,200.652,125.78,199.529,125.931z M171.513,141.004
								c1.124-0.151,1.904-1.147,1.747-2.224c-0.158-1.073-1.196-1.826-2.319-1.674c-1.122,0.15-1.905,1.148-1.746,2.22
								C169.349,140.402,170.389,141.152,171.513,141.004z M174.827,133.224c1.123-0.149,1.905-1.144,1.748-2.221
								c-0.16-1.074-1.197-1.825-2.321-1.676c-1.123,0.153-1.904,1.148-1.746,2.222
								C172.665,132.626,173.703,133.375,174.827,133.224z M197.636,157.422c-0.157-1.075-1.195-1.828-2.318-1.677
								c-1.124,0.152-1.906,1.148-1.748,2.222c0.16,1.077,1.197,1.825,2.322,1.676C197.013,159.492,197.796,158.498,197.636,157.422
								z M168.51,148.699c1.123-0.151,1.904-1.146,1.745-2.223c-0.156-1.074-1.196-1.825-2.317-1.675
								c-1.125,0.151-1.906,1.148-1.749,2.221C166.347,148.099,167.385,148.85,168.51,148.699z M190.47,153.081
								c1.123-0.152,1.904-1.145,1.746-2.222c-0.157-1.076-1.195-1.828-2.319-1.677c-1.124,0.152-1.905,1.148-1.747,2.224
								C188.308,152.481,189.346,153.23,190.47,153.081z M166.403,134.357c1.122-0.152,1.903-1.146,1.746-2.222
								c-0.158-1.076-1.197-1.828-2.32-1.675c-0.183,0.025-0.353,0.079-0.515,0.145v3.606
								C165.647,134.349,166.018,134.409,166.403,134.357z M166.043,117.792c-0.075-0.505-0.348-0.934-0.729-1.235v3.022
								C165.844,119.158,166.146,118.496,166.043,117.792z M165.314,109.279v2.186c0.424,0.606,1.179,0.964,1.984,0.855
								c1.123-0.149,1.905-1.146,1.747-2.223c-0.156-1.075-1.195-1.825-2.318-1.673
								C166.125,108.503,165.628,108.831,165.314,109.279z M170.614,104.542c0.282-0.038,0.542-0.13,0.772-0.262
								c-0.142,0.017-0.286,0.03-0.428,0.046c-0.405,0.049-0.813,0.096-1.22,0.147C170.014,104.553,170.309,104.584,170.614,104.542
								z M177.472,167.465c-0.157-1.077-1.195-1.828-2.319-1.677c-1.124,0.15-1.905,1.148-1.748,2.221
								c0.017,0.102,0.047,0.198,0.077,0.294c1.196-0.019,2.528-0.133,3.996-0.371C177.493,167.779,177.497,167.622,177.472,167.465
								z M207.317,150.816c1.125-0.152,1.906-1.146,1.748-2.222c-0.158-1.077-1.196-1.826-2.319-1.677
								c-1.123,0.153-1.905,1.147-1.746,2.224C205.157,150.217,206.194,150.966,207.317,150.816z M206.061,156.288
								c-0.158-1.074-1.198-1.825-2.318-1.674c-1.123,0.151-1.906,1.147-1.749,2.222c0.158,1.076,1.197,1.826,2.321,1.674
								C205.437,158.36,206.219,157.368,206.061,156.288z M185.753,165.852c-0.351-0.807-1.229-1.323-2.176-1.196
								c-1.122,0.151-1.904,1.146-1.746,2.223c0.002,0.012,0.006,0.022,0.008,0.035c0.339-0.101,0.666-0.188,1.016-0.301
								C183.777,166.312,184.75,166.063,185.753,165.852z M213.424,148.008c0.075,0.508,0.348,0.938,0.727,1.239v-3.024
								C213.621,146.644,213.32,147.307,213.424,148.008z M192.003,163.524c-0.921,0.122-1.603,0.818-1.735,1.654
								c1.315-0.127,2.65-0.206,3.986-0.243C193.978,164.006,193.031,163.384,192.003,163.524z M202.747,164.068
								c-0.156-1.075-1.196-1.827-2.319-1.677c-1.124,0.152-1.904,1.147-1.747,2.224c0.018,0.116,0.05,0.227,0.087,0.336
								c1.308,0.041,2.584,0.111,3.813,0.199C202.735,164.823,202.804,164.452,202.747,164.068z M173.618,155.344
								c1.124-0.151,1.906-1.146,1.749-2.221c-0.158-1.076-1.196-1.827-2.321-1.675c-1.122,0.151-1.904,1.145-1.746,2.223
								C171.458,154.745,172.497,155.495,173.618,155.344z M175.151,107.291c-1.123,0.151-1.905,1.147-1.746,2.221
								c0.157,1.077,1.196,1.827,2.319,1.678c1.122-0.151,1.905-1.146,1.746-2.222C177.313,107.892,176.275,107.141,175.151,107.291
								z M202.208,144.17c1.123-0.15,1.905-1.146,1.746-2.223c-0.158-1.074-1.196-1.826-2.318-1.674
								c-1.123,0.151-1.905,1.145-1.747,2.221C200.047,143.572,201.085,144.323,202.208,144.17z M205.213,136.475
								c1.123-0.152,1.904-1.147,1.746-2.224c-0.158-1.075-1.196-1.825-2.319-1.675c-1.123,0.152-1.905,1.147-1.747,2.222
								C203.051,135.875,204.089,136.626,205.213,136.475z M193.782,145.303c1.125-0.152,1.906-1.146,1.748-2.221
								c-0.158-1.077-1.196-1.828-2.319-1.676c-1.123,0.151-1.906,1.146-1.748,2.222
								C191.622,144.703,192.66,145.452,193.782,145.303z M208.526,128.696c1.122-0.15,1.904-1.144,1.747-2.222
								c-0.158-1.073-1.195-1.825-2.319-1.674c-1.124,0.151-1.905,1.146-1.749,2.222
								C206.366,128.098,207.403,128.848,208.526,128.696z M196.786,137.607c1.125-0.15,1.906-1.146,1.749-2.222
								c-0.159-1.075-1.197-1.828-2.321-1.676c-1.123,0.15-1.904,1.149-1.746,2.223
								C194.625,137.008,195.663,137.758,196.786,137.607z M198.893,151.948c1.123-0.15,1.905-1.144,1.748-2.221
								c-0.158-1.076-1.198-1.829-2.32-1.676c-1.123,0.149-1.904,1.148-1.747,2.222C196.731,151.349,197.769,152.1,198.893,151.948z
								 M192.002,105.026c-1.124,0.152-1.906,1.148-1.747,2.222c0.159,1.076,1.195,1.829,2.319,1.678
								c1.123-0.152,1.904-1.147,1.747-2.223C194.163,105.626,193.126,104.877,192.002,105.026z M210.633,143.037
								c1.123-0.15,1.904-1.142,1.746-2.22c-0.157-1.078-1.194-1.827-2.317-1.675c-1.123,0.15-1.907,1.145-1.748,2.22
								C208.472,142.439,209.51,143.189,210.633,143.037z M181.829,108.381c0.158,1.077,1.197,1.827,2.32,1.675
								c1.123-0.15,1.904-1.145,1.747-2.222c-0.159-1.075-1.196-1.827-2.319-1.674C182.452,106.311,181.672,107.304,181.829,108.381
								z M205.847,110.458c-1.123,0.152-1.905,1.146-1.749,2.22c0.159,1.078,1.198,1.828,2.321,1.678
								c1.122-0.152,1.904-1.146,1.746-2.221c-0.024-0.174-0.081-0.335-0.148-0.49c-0.672-0.4-1.344-0.801-2.021-1.192
								C205.947,110.456,205.897,110.452,205.847,110.458z M200.998,107.792c0.028-0.003,0.055-0.014,0.083-0.019
								c-0.712-0.351-1.435-0.678-2.165-0.99C199.313,107.482,200.128,107.91,200.998,107.792z"/>
						</g>
						<path opacity="0.3" fill="#FFFFFF" d="M183.251,121.882c-8.872-0.582-15.829-4.627-15.539-9.034
							c0.289-4.407,7.716-7.506,16.588-6.925c8.872,0.584,15.829,4.628,15.541,9.035
							C199.552,119.364,192.123,122.465,183.251,121.882z"/>
					</g>
				</g>
			</g>
			<g>
				<path opacity="0.05" fill="#231F20" d="M153.194,213.375c2.586-0.426,5.149-0.945,7.685-1.554
					c6.295-4.459,15.231-9.073,25.763-9.697c1.46-0.769,2.902-1.57,4.328-2.404C181.122,195.516,162.016,190.961,153.194,213.375z"
					/>
				<path fill="#DCF2F4" d="M148.333,223.53c0,0,24.062-22.214,52.929-15.561C201.262,207.968,163.12,182.903,148.333,223.53z"/>
				<g>
					<path opacity="0.05" fill="#231F20" d="M64.857,189.507c8.063,6.677,17.171,12.26,27.15,16.493
						C88.034,197.308,80.007,186.845,64.857,189.507z"/>
					<path fill="#DCF2F4" d="M47.177,194.803c0,0,32.646,2.583,47.362,28.292C94.538,223.095,87.045,178.075,47.177,194.803z"/>
				</g>
			</g>
		</g>
	</g>
</g>
</svg>
