<svg xmlns="http://www.w3.org/2000/svg" viewBox="0 0 50 50"><path d="M25.875 3.313c-4.691.105-7.66 2.003-8.938 4.937-1.214 2.793-.96 6.313-.093 9.969-.465.547-.848 1.316-.75 2.468v.063c.168 1.219.535 2.078 1 2.688.226.296.562.304.843.468.157 1.055.415 2.121.813 3 .227.5.46.934.719 1.313.12.176.304.289.437.437v3.594c-.32.77-1.082 1.39-2.281 2-1.25.633-2.883 1.215-4.531 1.938-1.649.722-3.317 1.617-4.656 3-1.34 1.382-2.301 3.261-2.438 5.75L5.937 46h40.126L46 44.937c-.137-2.488-1.098-4.367-2.438-5.75-1.34-1.382-3.03-2.277-4.687-3-1.656-.722-3.297-1.3-4.563-1.937-1.214-.61-1.972-1.223-2.312-2v-3.625c.121-.14.293-.238.406-.406a8.73 8.73 0 0 0 .75-1.313c.395-.87.657-1.926.813-2.968.32-.165.687-.176.937-.5.48-.63.762-1.524.875-2.75.09-1.06-.215-1.829-.687-2.407.52-1.601 1.136-4.164.937-6.781-.11-1.438-.488-2.871-1.343-4.063-.774-1.078-2.024-1.816-3.594-2.156-1.059-1.414-2.98-1.968-5.188-1.968zm.031 2h.032c1.996.007 3.273.57 3.687 1.28l.25.438.5.063c1.375.191 2.129.722 2.688 1.5.558.777.878 1.863.968 3.062.184 2.403-.511 5.219-.968 6.5L32.75 19l.781.406c-.008.028.32.36.282 1.094v.031c-.094.942-.336 1.473-.5 1.688-.168.218-.254.187-.22.187h-.906l-.093.907c-.086.898-.41 1.925-.782 2.75-.187.414-.359.78-.53 1.03-.173.25-.376.395-.282.345l-.5.28V32.5c0-.012-.18.43-.906.813-.727.382-1.848.687-3.094.687-1.258 0-2.371-.285-3.094-.656-.722-.371-.906-.758-.906-.844a.991.991 0 0 0-.094-.438V27.72l-.5-.282c.094.051-.11-.093-.281-.343a7.04 7.04 0 0 1-.563-1.032c-.37-.824-.695-1.851-.78-2.75l-.063-.906h-.844a.58.58 0 0 1-.219-.187c-.176-.23-.426-.77-.562-1.688V20.5c-.004-.016.004-.016 0-.031-.016-.758.453-1.18.375-1.125l.562-.407-.156-.687c-.922-3.645-1.066-6.945-.094-9.188.973-2.234 2.942-3.648 7.125-3.75zm-5 29.062a4.8 4.8 0 0 0 1.094.75c1.078.555 2.457.875 4 .875 1.555 0 2.96-.34 4.031-.906.375-.2.73-.422 1.032-.688.656.688 1.496 1.215 2.375 1.657 1.449.726 3.101 1.289 4.656 1.968 1.554.68 2.98 1.45 4.031 2.532.836.863 1.352 2.011 1.625 3.437H8.25c.273-1.426.79-2.574 1.625-3.438 1.047-1.082 2.48-1.851 4.031-2.53 1.551-.68 3.188-1.239 4.625-1.97.887-.449 1.73-.984 2.375-1.687z"/></svg>