<svg xmlns="http://www.w3.org/2000/svg" viewBox="0 0 48 48"><path d="M38 44H12V4h26c2.2 0 4 1.8 4 4v32c0 2.2-1.8 4-4 4z" fill="#673ab7"/><path d="M10 4h2v40h-2c-2.2 0-4-1.8-4-4V8c0-2.2 1.8-4 4-4z" fill="#311b92"/><path d="M36 24.2c-.102 4.8-3.102 6.902-5.3 6.698-.598-.097-2.098-.097-2.9-1.597-.8 1-1.8 1.597-3.1 1.597-2.598 0-3.302-2.5-3.4-3.097-.1-.7-.198-1.403-.1-2.2.1-1 1.1-6.5 5.698-6.5 2.204 0 3.5 1.098 3.704 1.297L30 27.2c0 .301-.2 1.602 1.102 1.602 2.097 0 2.398-3.903 2.398-4.602.102-1.199.3-8.199-7-8.199-6.898 0-7.898 7.398-8 9.2-.5 8.5 6 8.5 7.2 8.5 1.698 0 3.698-.7 3.902-.802l.398 2c-.3.204-2 1.102-4.398 1.102-2.204 0-10.102-.398-9.801-10.8.3-2.098 1.597-11.2 10.8-11.2C35.802 14 36 22.102 36 24.2zm-11.898 1.3c-.102 1 0 1.8.199 2.3.199.5.597.802 1.199.802.102 0 .3 0 .398-.102.204-.102.301-.102.5-.3.204-.098.301-.302.5-.598.204-.204.301-.602.403-1l.5-5.403c-.2-.097-.5-.097-.7-.097-.5 0-.902.097-1.203.296-.296.204-.597.5-.898.801-.2.403-.398.801-.602 1.301-.199.5-.199 1.3-.296 2z" fill="#fff"/></svg>