<svg xmlns="http://www.w3.org/2000/svg" viewBox="0 0 50 50"><path d="M25.5 0C25.102.602 23 2.313 23 2.313s1.414.289 2.313-.313c0 0 .187-.898.187-2zm21 0c-.7 1-4.094 3.688-4.094 3.688s2.094.5 3.594-.5c0 0 .398-1.489.5-3.188zM27.594 1.688c-1.102.699-4.196 2.105-5.094.906-.5-.602-1.305-.805-1.906-.406-.2.101-.305.3-.407.5C19.79 2.586 19 2.397 19 2.5c0 0 .895.8 1.094 1v.094c-.2.199-1.008 1-.907 1 .102 0 .82-.207 1.22-.407.3.399.788.508 1.187.407.199.5.707 1.02 1.406 1.218 1.398.5 2.188-1.32 3.688.282 1.1-.5 1.312-1.282 1.312-1.282l-1.813-.5c-.699.5-1.78.688-1.78.688 1.5-.5 3.187-2.613 3.187-3.313zm21.812 1.125C47.805 4.011 42.707 6 41.406 4c-.601-1-1.906-1.293-2.906-.594-.3.2-.488.48-.688.781-.601-.199-1.914-.593-1.812-.593.102.101 1.395 1.418 1.594 1.719v.093c-.301.2-1.602 1.594-1.5 1.594.101 0 1.207-.3 1.906-.5.5.602 1.207.914 1.906.813.301.699 1.094 1.5 2.094 2 2.102.898 3.512-2.012 5.813.687C49.71 9.3 50 8 50 8l-2.813-.813c-1.199.801-3 .907-3 .907 2.399-.602 5.22-3.98 5.22-5.281zM2 8c.5 1.5 1.313 2.688 1.313 2.688 1.5.398 3.28-.594 3.28-.594S2.802 8.699 2 8zm23 0c-6.066 0-10.188 2.492-12.656 5.75C9.875 17.008 9 20.95 9 24v4.625c-.992.605-1.906 1.777-1.906 3.563 0 2.242 1.543 4.027 3.593 4.53 1.34 3.337 2.97 6.563 5.157 9C18.137 48.274 21.074 50 24.688 50c3.566 0 6.539-1.727 8.843-4.281 2.196-2.438 3.844-5.66 5.188-9 2.023-.516 3.593-2.328 3.593-4.532 0-1.449-.566-2.515-1.312-3.187v-5c0-4.328-1.152-8.34-3.781-11.281C34.589 9.777 30.512 8 25 8zm-12.906.406c0-.101-1 .606-1.5.906a2.13 2.13 0 0 0-.781-.5c-1-.3-2.106.282-2.407 1.282-.601 2.101-5.699 1.719-7.5 1.219.399 1.101 3.7 3.289 6 3.187 0 0-1.605.398-2.906 0L.812 16s.602.992 2.5 1.094c1.301-2.899 3.274-.887 4.876-2.188.8-.601 1.312-1.511 1.312-2.312.7-.102 1.2-.586 1.5-1.188h1.906c.2-.199-1.418-.992-1.719-1.094.102-.398.907-1.906.907-1.906zM25 10c5.09 0 8.5 1.578 10.719 4.063C37.937 16.547 39 20.026 39 24v4.063c-.563-.102-.957-.051-1.156-.032-.184-3.433-1.098-5.87-2.75-7.281-1.828-1.559-4.207-1.965-6.532-2.125-2.324-.16-4.656-.094-6.562-.438-1.906-.343-3.254-.968-4.094-2.625a1 1 0 0 0-1-.562.996.996 0 0 0-.906 1c0 2.992-.895 4.773-1.875 6.5-.879 1.55-1.805 3.164-2 5.25l-.406.281c-.082-.008-.344-.05-.719-.031v-4c0-2.652.805-6.215 2.938-9.031C16.07 12.152 19.468 10 25 10zm-7.375 8.313c1.14.992 2.531 1.582 4 1.843 2.219.399 4.637.317 6.813.469 2.175.152 4.046.52 5.343 1.625C35.078 23.355 36 25.27 36 29c0 .55.45 1 1 1h.594a.668.668 0 0 0 .125 0s.726-.082 1.375.156c.648.239 1.218.516 1.218 2.032 0 1.374-1.16 2.578-2.437 2.718a1 1 0 0 0-.813.625c-1.324 3.383-2.984 6.574-5.03 8.844-2.048 2.27-4.41 3.625-7.344 3.625-2.989 0-5.31-1.355-7.344-3.625-2.035-2.27-3.676-5.457-5-8.844a1 1 0 0 0-.844-.625c-1.434-.152-2.406-1.183-2.406-2.718 0-1.458.558-1.75 1.219-2 .66-.25 1.374-.188 1.374-.188a.753.753 0 0 0 .188 0h.188a.985.985 0 0 0 .437-.156l1-.594c.3-.176.492-.496.5-.844 0-1.84.855-3.136 1.875-4.937.75-1.32 1.379-3.067 1.75-5.157zM22.5 27a4.516 4.516 0 0 0-4.5 4.5c0 2.473 2.027 4.5 4.5 4.5 1.418 0 2.672-.684 3.5-1.719.828 1.035 2.082 1.719 3.5 1.719 2.473 0 4.5-2.027 4.5-4.5S31.973 27 29.5 27c-1.418 0-2.672.684-3.5 1.719C25.172 27.684 23.918 27 22.5 27zm0 2c1.39 0 2.5 1.11 2.5 2.5a2.47 2.47 0 0 1-1 2 1.5 1.5 0 0 0-3 0 2.47 2.47 0 0 1-1-2c0-1.39 1.11-2.5 2.5-2.5zm5.5.5a1.5 1.5 0 0 0 3 0c.61.453 1 1.172 1 2 0 1.39-1.11 2.5-2.5 2.5S27 32.89 27 31.5c0-.828.39-1.547 1-2z"/></svg>