<svg xmlns="http://www.w3.org/2000/svg" viewBox="0 0 32 32"><path d="M11.5.938c-1.305.765-2.027 1.707-2.406 2.468-.082.168-.04.16-.094.313-.156-.028-.133-.055-.313-.063-.847-.043-2.03.137-3.343.906l1.031 1.72c.996-.587 1.734-.65 2.219-.626.484.024.594.094.594.094a1 1 0 0 0 1.5-.844s-.028-.156.187-.593c.215-.438.668-1.043 1.656-1.625zm10.906 2.906l-.781 1.844c1.063.453 1.543.972 1.813 1.375.269.402.28.562.28.562a1.002 1.002 0 0 0 1.563.688s.145-.102.625-.188c.48-.086 1.227-.105 2.282.344l.78-1.844c-1.394-.594-2.6-.617-3.437-.469-.164.032-.14.051-.281.094-.07-.137-.027-.137-.125-.281-.473-.707-1.32-1.532-2.719-2.125zM15 5a10 10 0 0 0-6.344 2.25l1.281 1.563A7.96 7.96 0 0 1 15 7c4.43 0 8 3.57 8 8v1.406c-.043-.015-.082-.047-.125-.062C22.551 14.464 20.969 13 19 13c-.566 0-1-.434-1-1v-1h-2v1c0 .566-.434 1-1 1h-4c-1.969 0-3.55 1.465-3.875 3.344-.043.015-.082.047-.125.062V15c0-.555.05-1.105.156-1.625l-1.937-.406C5.086 13.62 5 14.309 5 15v3.594h.031A2.76 2.76 0 0 0 5 19c0 1.309.945 2.25 2.125 2.656C7.477 25.742 10.828 29 15 29c4.172 0 7.523-3.258 7.875-7.344C24.055 21.25 25 20.31 25 19c0-.14-.012-.273-.031-.406H25V15c0-5.512-4.488-10-10-10zM2.719 7.25l-.781 1.844C3 9.547 3.511 10.098 3.78 10.5c.27.402.281.563.281.563.055.34.282.628.602.761.316.133.68.094.961-.105 0 0 .113-.102.594-.188.48-.086 1.226-.105 2.281.344l.781-1.844c-1.394-.594-2.57-.617-3.406-.469-.188.036-.156.075-.313.126-.07-.145-.019-.157-.125-.313-.472-.707-1.32-1.531-2.718-2.125zM17 14.188c.535.488 1.227.812 2 .812 1.117 0 2 .883 2 2v1h1c.566 0 1 .434 1 1 0 .566-.434 1-1 1h-1v1c0 3.324-2.676 6-6 6s-6-2.676-6-6v-1H8c-.566 0-1-.434-1-1 0-.566.434-1 1-1h1v-1c0-1.117.883-2 2-2h4c.773 0 1.465-.324 2-.813zM13 18c-.55 0-1 .45-1 1s.45 1 1 1 1-.45 1-1-.45-1-1-1zm4.5 0a1.5 1.5 0 1 0 0 3 1.5 1.5 0 0 0 0-3z"/></svg>