<svg xmlns="http://www.w3.org/2000/svg" viewBox="0 0 16 16"><path d="M7 7.5c0 .277-.223.5-.5.5a.498.498 0 0 1-.5-.5.499.499 0 1 1 1 0zm3 0c0 .277-.223.5-.5.5a.498.498 0 0 1-.5-.5.499.499 0 1 1 1 0z"/><path d="M8 14c-1.71 0-3.523-1.738-4.254-4.016-.086.008-.168.016-.246.016C2.598 10 2 8.797 2 8c0-.605.367-1.133.898-1.363-.015-.211-.03-.418-.035-.625l1-.024c.008.313.032.637.07.965l.063.524-.527.035A.49.49 0 0 0 3 8c0 .41.34.98.5 1 .04 0 .188-.008.477-.078l.468-.117.164.57C5.184 11.543 6.824 13 8 13c1.172 0 2.816-1.457 3.39-3.629l.169-.559.468.11c.286.07.434.078.473.078.16-.02.5-.59.5-1a.49.49 0 0 0-.469-.488L12 7.477l.066-.524c.258-2.14-.218-3.25-1.597-3.707l-.547-.18.523-1.058-1.449-.004.008-1 3.05.012-.742 1.5c1.883.941 1.895 3.011 1.793 4.12A1.5 1.5 0 0 1 14 8c0 .797-.598 2-1.5 2-.078 0-.16-.008-.246-.016C11.484 12.297 9.688 14 8 14z"/><path d="M5 6V5c4.2 0 5.121-2.305 5.156-2.402l.942.343C11.05 3.066 9.94 6 5 6zm.5-3a.504.504 0 0 1-.445-.27c-.203-.394-.907-1.472-1.72-1.757a.5.5 0 1 1 .328-.945c.806.28 1.442.988 1.837 1.534C5.895 1.016 6.531.31 7.336.028a.497.497 0 0 1 .637.309.503.503 0 0 1-.309.637c-.812.285-1.516 1.363-1.719 1.757A.504.504 0 0 1 5.5 3zm9 2a.504.504 0 0 1-.445-.27c-.082-.16-.395-.644-.72-.757a.501.501 0 0 1 .33-.946c.343.121.624.364.835.602.21-.238.492-.48.836-.602a.501.501 0 0 1 .328.946c-.305.105-.617.554-.719.757A.504.504 0 0 1 14.5 5zm-13 1a.504.504 0 0 1-.445-.27c-.082-.16-.395-.644-.72-.757a.503.503 0 0 1-.308-.637.497.497 0 0 1 .637-.309c.344.121.625.364.836.602.21-.238.492-.48.836-.602a.498.498 0 0 1 .637.309.503.503 0 0 1-.309.637c-.305.105-.617.554-.719.757A.504.504 0 0 1 1.5 6z"/></svg>