<svg xmlns="http://www.w3.org/2000/svg" viewBox="0 0 50 50"><path d="M25.5 0C25.102.602 23 2.313 23 2.313s1.414.289 2.313-.313c0 0 .187-.898.187-2zm21 0c-.7 1-4.094 3.688-4.094 3.688s2.094.5 3.594-.5c0 0 .398-1.489.5-3.188zM27.594 1.688c-1.102.699-4.196 2.105-5.094.906-.5-.602-1.305-.805-1.906-.406-.2.101-.305.3-.407.5C19.79 2.586 19 2.397 19 2.5c0 0 .895.8 1.094 1v.094c-.2.199-1.008 1-.907 1 .102 0 .82-.207 1.22-.407.3.399.788.508 1.187.407.199.5.707 1.02 1.406 1.218 1.398.5 2.188-1.32 3.688.282 1.1-.5 1.312-1.282 1.312-1.282l-1.813-.5c-.699.5-1.78.688-1.78.688 1.5-.5 3.187-2.613 3.187-3.313zm21.812 1.125C47.805 4.011 42.707 6 41.406 4c-.601-1-1.906-1.293-2.906-.594-.3.2-.488.48-.688.781-.601-.199-1.914-.593-1.812-.593.102.101 1.395 1.418 1.594 1.719v.093c-.301.2-1.602 1.594-1.5 1.594.101 0 1.207-.3 1.906-.5.5.602 1.207.914 1.906.813.301.699 1.094 1.5 2.094 2 2.102.898 3.512-2.012 5.813.687C49.71 9.3 50 8 50 8l-2.813-.813c-1.199.801-3 .907-3 .907 2.399-.602 5.22-3.98 5.22-5.281zM2 8c.5 1.5 1.313 2.688 1.313 2.688 1.5.398 3.28-.594 3.28-.594S2.802 8.699 2 8zm23 0C12.344 8 9 18.465 9 24v4.594a3.891 3.891 0 0 0-.656.468c-.832.75-1.25 1.786-1.25 3.125 0 2.25 1.488 4.098 3.593 4.594 3.59 8.887 8.157 13.219 14 13.219 5.766 0 10.485-4.445 14.032-13.219 2.047-.52 3.593-2.433 3.593-4.593 0-1.387-.457-2.47-1.312-3.22V24c0-10.02-5.98-16-16-16zm-12.906.406c0-.101-1 .606-1.5.906a2.13 2.13 0 0 0-.781-.5c-1-.3-2.106.282-2.407 1.282-.601 2.101-5.699 1.719-7.5 1.219.399 1.101 3.7 3.289 6 3.187 0 0-1.605.398-2.906 0L.812 16s.602.992 2.5 1.094c1.301-2.899 3.274-.887 4.876-2.188.8-.601 1.312-1.511 1.312-2.312.7-.102 1.2-.586 1.5-1.188h1.906c.2-.199-1.418-.992-1.719-1.094.102-.398.907-1.906.907-1.906zm5.687 10.156c2.16 1.754 5.297 1.84 8.344 1.938C31.43 20.672 36 20.824 36 29c0 .555.445 1 1 1h.594c.039 0 .086.004.125 0 .347-.047 1.363-.035 1.968.5.403.355.626.898.626 1.688 0 1.343-1.11 2.57-2.438 2.718a.982.982 0 0 0-.813.625C33.825 43.801 29.66 48 24.688 48c-5.04 0-9.063-4.082-12.344-12.469a1.021 1.021 0 0 0-.844-.625c-1.414-.148-2.406-1.273-2.406-2.718 0-.754.199-1.27.594-1.626.515-.468 1.328-.562 1.78-.562.087 0 .165-.004.22 0 .07.008.152.008.218 0 .211.02.403-.04.594-.156l1-.594c.3-.18.5-.492.5-.844 0-1.672.719-2.941 1.563-4.406.855-1.484 1.804-3.113 2.218-5.438zM22.5 27a4.516 4.516 0 0 0-4.5 4.5c0 2.473 2.027 4.5 4.5 4.5 1.418 0 2.672-.684 3.5-1.719.828 1.035 2.082 1.719 3.5 1.719 2.473 0 4.5-2.027 4.5-4.5S31.973 27 29.5 27c-1.418 0-2.672.684-3.5 1.719C25.172 27.684 23.918 27 22.5 27zm0 2c1.39 0 2.5 1.11 2.5 2.5a2.47 2.47 0 0 1-1 2 1.5 1.5 0 0 0-3 0 2.47 2.47 0 0 1-1-2c0-1.39 1.11-2.5 2.5-2.5zm5.5.5a1.5 1.5 0 0 0 3 0c.61.453 1 1.172 1 2 0 1.39-1.11 2.5-2.5 2.5S27 32.89 27 31.5c0-.828.39-1.547 1-2z"/></svg>