<svg xmlns="http://www.w3.org/2000/svg" viewBox="0 0 40 40"><path d="M31.652 20.5L25.5 16.719v-3.82l7.395 4.601H37c.84 0 1.5.66 1.5 1.5s-.66 1.5-1.5 1.5z" fill="#dff0fe"/><path d="M26 13.8l6.508 4.048.242.152H37c.57 0 1 .43 1 1 0 .57-.43 1-1 1h-5.203L26 16.441v-2.64M25 12v5l6.512 4H37c1.125 0 2-.875 2-2s-.875-2-2-2h-3.965z" fill="#4788c7"/><path d="M23 38.5c-.84 0-1.5-.66-1.5-1.5V25.5h3V37c0 .84-.66 1.5-1.5 1.5z" fill="#dff0fe"/><path d="M24 26v11c0 .57-.43 1-1 1-.57 0-1-.43-1-1V26h2m1-1h-4v12c0 1.125.875 2 2 2s2-.875 2-2z" fill="#4788c7"/><path d="M30.965 35.5c-.41 0-.797-.16-1.086-.45L24.5 30.759V24.5h3v4.738l4.59 3.676c.336.34.508.734.472 1.14-.03.344-.21.696-.511.997a1.53 1.53 0 0 1-1.086.449z" fill="#dff0fe"/><path d="M27 25v4.48l.375.301 4.36 3.489c.206.21.648.738-.04 1.425a1.034 1.034 0 0 1-1.465 0l-.039-.039-.043-.035L25 30.52V25h2m1-1h-4v7l5.523 4.402a2.029 2.029 0 0 0 2.88 0c.695-.695 1.054-1.824 0-2.879L28 29z" fill="#4788c7"/><path d="M25 9.5c-1.965 0-3.5-1.54-3.5-3.5s1.535-3.5 3.5-3.5c3.93 0 6.473 5.137 7.262 7z" fill="#dff0fe"/><path d="M25 3c3.23 0 5.496 3.887 6.492 6H25c-1.71 0-3-1.29-3-3s1.29-3 3-3m0-1c-2.25 0-4 1.75-4 4s1.75 4 4 4h8s-2.813-8-8-8z" fill="#4788c7"/><path d="M21.5 26.5V16c0-1.96 1.535-3.5 3.5-3.5s3.5 1.54 3.5 3.5v4.133l3.64 6.367z" fill="#b6dcfe"/><path d="M25 13c1.71 0 3 1.29 3 3v4.266l.133.23L31.277 26H22V16c0-1.71 1.29-3 3-3m0-1c-2.25 0-4 1.75-4 4v11h12l-4-7v-4c0-2.25-1.75-4-4-4z" fill="#4788c7"/><path d="M16.5 5a3.5 3.5 0 1 1-7 0 3.5 3.5 0 1 1 7 0z" fill="#98ccfd"/><path d="M13 2c1.652 0 3 1.348 3 3s-1.348 3-3 3-3-1.348-3-3 1.348-3 3-3m0-1c-2.21 0-4 1.79-4 4s1.79 4 4 4 4-1.79 4-4-1.79-4-4-4zM4.5 27A1.5 1.5 0 0 1 6 28.5c0 .828-1.5 3-1.5 3S3 29.328 3 28.5A1.5 1.5 0 0 1 4.5 27z" fill="#4788c7"/><path d="M16.508 4.727L15.02 2.488C16.977 2.211 18 1 18 1s.094 2.605-1.492 3.727zm-6.996 0L11 2.488C9.047 2.211 8.02 1 8.02 1s-.094 2.605 1.492 3.727z" fill="#4788c7"/><path d="M10 37.441l-1.5.75V12.5H6.43A4.935 4.935 0 0 1 1.5 7.57V5.035c0-.86.66-1.535 1.5-1.535s1.5.676 1.5 1.535V8c0 .84.66 1.5 1.5 1.5h3.938l3.94.984c.845.168 1.563.579 2.06 1.16l4.855 4.856H25c.84 0 1.5.676 1.5 1.535 0 .836-.645 1.465-1.5 1.465h-5c-.297 0-.5-.05-.61-.148l-2.89-2.747v5.293l2.7 7.59-2.614 6.532-1.027-1.29-1.692.485 2.403-5.7-1.786-5.015H11.5v13.691z" fill="#98ccfd"/><path d="M3 4c.563 0 1 .453 1 1.035V8c0 1.121.879 2 2 2h3.879l3.926.98c.699.141 1.336.5 1.754.989l.027.027.027.031L20.586 17H25c.563 0 1 .453 1 1.035 0 .559-.422.965-1 .965h-5a.933.933 0 0 1-.285-.031l-2.027-1.922L16 15.44v6.543l.059.164 2.605 7.329-2.223 5.558-.285-.355-.414-.524-.64.184-.368.105 1.922-4.558.149-.36-.13-.363-1.597-4.5L14.84 24H11v13.383l-1-.5-1 .5V12H6.43A4.436 4.436 0 0 1 2 7.57V5.035C2 4.453 2.438 4 3 4m0-1c-1.125 0-2 .91-2 2.035V7.57c0 3 2.43 5.43 5.43 5.43H8v26l2-1 2 1V25h2.133l1.597 4.5L13 35.98l2.375-.675L16.73 37l3-7.5L17 21.812V17.77l2.055 1.953c.25.222.61.277.945.277h5c1.125 0 2-.84 2-1.965S26.125 16 25 16h-4l-4.68-4.68c-.543-.636-1.355-1.129-2.32-1.32l-4-1H6c-.531 0-1-.406-1-1V5.035C5 3.91 4.125 3 3 3z" fill="#4788c7"/><path d="M4.5 29v-3c0-1.887 1.422-3.5 3.309-3.5H11.5" fill="none" stroke-linecap="round" stroke="#4788c7" stroke-miterlimit="10"/><path d="M8 23h3v3H8z" fill="#98ccfd"/><path d="M8.5 27c.273 0 .5-.227.5-.5v-1c0-.273-.227-.5-.5-.5s-.5.227-.5.5v1c0 .273.227.5.5.5z" fill="#4788c7"/></svg>