<svg xmlns="http://www.w3.org/2000/svg" viewBox="0 0 80 80"><path d="M23 11s-.05 1.738.684 3.234A5.95 5.95 0 0 0 23 17c0 3.3 2.7 6 6 6s6-2.7 6-6a5.95 5.95 0 0 0-.684-2.766C35.051 12.738 35 11 35 11s-.727.855-2.121 1.434A5.974 5.974 0 0 0 29 11a5.974 5.974 0 0 0-3.879 1.434C23.727 11.855 23 11 23 11zm-10 1c-1.645 0-3 1.355-3 3 0 .227.05.402.094.59 0 .098.011.191.043.285l2.941 9.762c.219 1 .934 1.816 1.875 2.168L23 31v13.121c-2.469.488-5.07 2.488-5.797 6.043A2.001 2.001 0 0 0 16 52c0 1.105 2 3 2 3s2-1.895 2-3c0-.66-.32-1.238-.813-1.602.692-3.195 3.22-4.398 4.997-4.398H29c.36.004.695-.184.879-.496a1.01 1.01 0 0 0 0-1.008c-.184-.312-.52-.5-.879-.496h-4V30.316a.997.997 0 0 0-.629-.925l-8.7-3.453c-.003 0-.01-.004-.015-.004a.993.993 0 0 1-.636-.762c-.008-.035-.016-.074-.028-.113l-2.918-9.688c-.008-.027-.015-.055-.023-.078A1.117 1.117 0 0 1 12 15c0-.566.434-1 1-1 .46 0 .828.3.95.719a1 1 0 0 0 1.234.68l-.934.265 2.45 8.121a.988.988 0 0 0 .585.64l6.344 2.52c.172.067.355.086.539.055h6.809c1.277 0 2.39.598 3.132 1.531a1 1 0 0 0 1.344.207l-.785.547 6.55 9.293c.188.262.493.422.817.422H49c.566 0 1 .434 1 1 0 .566-.434 1-1 1h-8a.968.968 0 0 1-.813-.426l-.042-.054.015.027c-.012-.02-.031-.043-.047-.063a1 1 0 0 0-1.265-.187l.773-.516-2.805-3.976a.995.995 0 0 0-1.117-.375.996.996 0 0 0-.699.949v10.656c0 .164.04.32.113.465l4.473 8.563c.094.18.238.328.414.421l-.813-.406-3.449 8.074-.37-.445a1 1 0 0 0-.848-.352l-.63.047 3.094-7.199a.991.991 0 0 0-.03-.86l-3.032-5.808a1.01 1.01 0 0 0-.89-.535H28c-.55 0-1 .45-1 1v17.383l-.55-.278a1.01 1.01 0 0 0-.9 0l-.55.278V48h-2v21c0 .348.18.668.473.852.297.18.664.199.976.043L26 69.117l1.55.778c.313.156.68.136.977-.043.293-.184.473-.504.473-.852V51h3.426l2.535 4.848-3.566 8.289a.998.998 0 0 0 .996 1.39l1.773-.14 1.086 1.3a1 1 0 0 0 1.688-.25l4.457-10.44a1 1 0 0 0-.454-1.278l.266.133L37 46.793v-7.262l1.523 2.164a.94.94 0 0 0 .114.13l-.055-.048c.09.106.2.196.324.262.543.559 1.258.961 2.094.961h8c1.645 0 3-1.355 3-3s-1.355-3-3-3h-4v-5c0-2.219 1.781-4 4-4 1.137 0 2.148.473 2.879 1.234a.997.997 0 0 0 1.496-.059l-.613.759 7.316 5.847c.176.14.395.219.625.219H67c.566 0 1 .434 1 1 0 .566-.434 1-1 1h-7a.973.973 0 0 1-.617-.223.994.994 0 0 0-1.383.13l.621-.731-3.996-3.192a.994.994 0 0 0-1.059-.12 1.001 1.001 0 0 0-.566.902v5.238c0 .191.055.379.156.539L59.176 50h-5.489a1.007 1.007 0 0 0-.969 1.266l1.012 3.671a.924.924 0 0 0 .157.325l5.343 7.351.786-.586a1 1 0 0 0-.211 1.391A.967.967 0 0 1 60 64c0 .566-.434 1-1 1a.973.973 0 0 1-.805-.418l-.058-.07-.004-.004-5.793-7.973-.606.606a.998.998 0 0 0 .262-.973L50.5 50.734a.996.996 0 0 0-.965-.734H48c-.55 0-1 .45-1 1v16c0 .566-.434 1-1 1-.566 0-1-.434-1-1V45h-2v22c0 1.645 1.355 3 3 3s3-1.355 3-3V52.816l.91 3.32.41-.41a.998.998 0 0 0-.101 1.294l6.355 8.746c.094.125.219.23.36.3.539.543 1.242.934 2.066.934 1.645 0 3-1.355 3-3 0-.438-.215-.793-.383-1.164a1.012 1.012 0 0 0-.191-.602l-5.817-8L54.996 52H61a1 1 0 0 0 .844-1.535L55 39.715v-2.871l3.125 2.5c.184.144.41.222.64.218.395.192.766.438 1.235.438h7c1.645 0 3-1.355 3-3s-1.355-3-3-3h-5.95l-7.816-6.25a1.006 1.006 0 0 0-.277-.152C51.898 26.645 50.539 26 49 26c-3.3 0-6 2.7-6 6v5h-.445L36 27.703l-.016-.02c-.03-.046-.062-.085-.066-.093-.004-.004-.004-.008-.008-.012l-.18-.258a.982.982 0 0 0-.453-.351C34.187 25.809 32.7 25 30.977 25h-6.825l-5.68-2.254-2.593-8.605a.996.996 0 0 0-.383-.528C14.984 12.7 14.117 12 13 12zm16 1c2.223 0 4 1.777 4 4s-1.777 4-4 4-4-1.777-4-4 1.777-4 4-4zm19.828 0C45.628 13 43 15.625 43 18.828c0 3.2 2.629 5.828 5.828 5.828 2.024 0 4.27-1.281 6.234-2.472 1.97-1.196 3.543-2.387 3.543-2.387l1.024-.777-1.004-.801s-1.602-1.278-3.582-2.559c-.988-.64-2.074-1.285-3.137-1.785-1.058-.496-2.066-.875-3.078-.875zm0 2c.438 0 1.297.246 2.23.688.93.437 1.958 1.042 2.899 1.652 1.262.816 1.7 1.183 2.293 1.637-.59.421-.996.75-2.223 1.496-1.867 1.132-4.203 2.183-5.199 2.183A3.834 3.834 0 0 1 45 18.828 3.832 3.832 0 0 1 48.828 15zM29 28c-.55 0-1 .45-1 1s.45 1 1 1 1-.45 1-1-.45-1-1-1zm0 4c-.55 0-1 .45-1 1s.45 1 1 1 1-.45 1-1-.45-1-1-1zm0 4c-.55 0-1 .45-1 1s.45 1 1 1 1-.45 1-1-.45-1-1-1zm0 4c-.55 0-1 .45-1 1s.45 1 1 1 1-.45 1-1-.45-1-1-1zM12 62c-.55 0-1 .45-1 1s.45 1 1 1 1-.45 1-1-.45-1-1-1zm4 0c-.55 0-1 .45-1 1s.45 1 1 1 1-.45 1-1-.45-1-1-1zm4 0c-.55 0-1 .45-1 1s.45 1 1 1 1-.45 1-1-.45-1-1-1zm21 0c-.55 0-1 .45-1 1s.45 1 1 1 1-.45 1-1-.45-1-1-1zm10 0c-.55 0-1 .45-1 1s.45 1 1 1 1-.45 1-1-.45-1-1-1zm14 0c-.55 0-1 .45-1 1s.45 1 1 1 1-.45 1-1-.45-1-1-1zm4 0c-.55 0-1 .45-1 1s.45 1 1 1 1-.45 1-1-.45-1-1-1z"/></svg>