<svg xmlns="http://www.w3.org/2000/svg" viewBox="0 0 26 26"><path d="M.844 0a1.003 1.003 0 0 0-.688.441 1.023 1.023 0 0 0-.125.809l1 4c.07.285.266.527.532.656L5 7.625V12l2 1H4.5a3.472 3.472 0 0 0-3.469 3c-.261-.008-.511.105-.718.313C-.087 16.71 0 18 0 18s1.29.086 1.688-.313C1.887 17.488 2 17.25 2 17v-.5C2 15.055 3.055 14 4.5 14H5v12l1-.594L7 26V16h1.344l1.562 3-2.094 5.313L8.906 24l.688 1 2.312-5.688c.102-.3.102-.613 0-.812L10 14.781v-4.219l1.156 1.938c.176.3.496.492.844.5h4c.36.004.695-.184.879-.496a1.01 1.01 0 0 0 0-1.008c-.184-.312-.52-.5-.879-.496h-1v-1c0-.555.445-1 1-1h1c.34 0 .633.18.813.438.027.054.058.105.093.156A.94.94 0 0 1 18 10v3c-.004.129.02.254.063.375L19.5 17h-2.25a1.019 1.019 0 0 0-.219-.031 1.044 1.044 0 0 0-.187.031h-.657a1.016 1.016 0 0 0-.406 0H15v-3h-2v4c0 .55.45 1 1 1h1v6c-.004.36.184.695.496.879.313.18.695.18 1.008 0 .312-.184.5-.52.496-.879v-4.75l2.094 4.188a1.007 1.007 0 0 0 1.812-.875L18.625 19H21a1.003 1.003 0 0 0 .938-1.375L20 12.781v-.469l.219.282A1 1 0 0 0 21 13h4c.36.004.695-.184.879-.496a1.01 1.01 0 0 0 0-1.008c-.184-.312-.52-.5-.879-.496h-3.531l-1.844-2.438A3.004 3.004 0 0 0 17 7h-1c-1.645 0-3 1.355-3 3v1h-.469L9.937 6.687a.853.853 0 0 0-.156-.28c-.039-.055-.074-.114-.125-.157l-.031-.031c-.012-.008-.02-.024-.031-.032h-.031a.882.882 0 0 0-.25-.125A.88.88 0 0 0 9.03 6H6.25L2.844 4.312 1.969.75A1.003 1.003 0 0 0 .844 0zM5 0s.012.66.281 1.375C5.11 1.715 5 2.094 5 2.5 5 3.879 6.121 5 7.5 5S10 3.879 10 2.5c0-.43-.121-.832-.313-1.188C9.938.625 10 0 10 0s-.441.219-1 .5A2.534 2.534 0 0 0 7.5 0C6.934 0 6.418.215 6 .531 5.43.242 5 0 5 0zm11.5 1A2.478 2.478 0 0 0 14 3.5C14 4.898 15.102 6 16.5 6 18 6 21 3.5 21 3.5S18 1 16.5 1z"/></svg>