<svg xmlns="http://www.w3.org/2000/svg" viewBox="0 0 50 50"><path d="M10.813 0s-.079 1.61.624 2.906A5.087 5.087 0 0 0 11 5c0 2.8 2.2 5 5 5s5-2.2 5-5a5 5 0 0 0-.563-2.281C21.044 1.457 21 0 21 0s-.598.695-1.75 1.188A4.99 4.99 0 0 0 16 0a4.98 4.98 0 0 0-3.313 1.25C11.45.758 10.813 0 10.813 0zm-7.5 1a1.767 1.767 0 0 0-.407.094 3.11 3.11 0 0 0-1.594 1.218 3.39 3.39 0 0 0-.312 2l1.813 7.375c.199.801.78 1.508 1.28 1.907 0 0 .095-.008.095.094L10 17.093v8.937c-3.965.235-7.23 3.242-7.875 7.094-.281.066-.54.195-.719.375C.906 34 1 36 1 36s1.992.102 2.594-.5c.383-.383.543-.902.437-1.375C4.231 30.75 7.078 28 10.5 28H14v1h-4v20c0 .398.2.707.5.906.3.2.7.2 1 0l.906-.593.906.593c.2.102.395.188.594.188.2 0 .301.008.5-.094.301-.2.5-.508.5-.906V32h2l2 3.906-3.718 9.282a.96.96 0 0 0 .218 1c.2.3.602.41 1 .312l1.5-.313.907 1.22c.199.3.574.406.875.406.398 0 .71-.325.812-.626l4.188-10.5c.3-.8.312-1.675-.188-2.374l-2.5-5v-4.125c.398.5.988.812 1.688.812H30.5a2.465 2.465 0 0 0 2.438-2c.03.164.062.324.062.5 0 1.398-1.102 2.5-2.5 2.5H27v6c0 .602.398 1 1 1h15c.398 0 .707-.195.906-.594.2-.398.106-.793-.093-1.093L37 23.687v-3.5L39.313 23c.5.602 1.292 1 2.093 1H47.5c1.398 0 2.5-1.102 2.5-2.5S48.898 19 47.5 19h-5l-3.688-4.406c-.8-1-2.007-1.594-3.406-1.594H30.5c-2 0-3.5 1.5-3.5 3.5V21h-1.406l-4-7.5c-.7-1.5-2.207-2.5-3.907-2.5h-6.375L7.688 8.906 6.313 3c-.399-1.2-1.426-2-2.625-2-.149 0-.25-.012-.376 0zM32 2c-2.8 0-5 2.2-5 5s2.2 5 5 5 7.688-3.79 8.188-4.188l1-.812-1-.813C39.586 5.79 34.699 2 32 2zm-5 33v12.5c0 1.398 1.102 2.5 2.5 2.5s2.5-1.102 2.5-2.5v-9.313l.094.5c0 .102.093.211.093.313l4.907 6.906c.398.602 1.113.992 1.812 1.094h.282c.601 0 1.226-.2 1.624-.5.602-.398.899-.988 1-1.688.2-.8-.007-1.398-.406-2L36.5 36l-.188-1z"/></svg>