<svg xmlns="http://www.w3.org/2000/svg" viewBox="0 0 64 64"><path d="M31 2C15.012 2 2 15.008 2 31s13.012 29 29 29 29-13.008 29-29S46.988 2 31 2zm0 2c14.887 0 27 12.113 27 27S45.887 58 31 58 4 45.887 4 31 16.113 4 31 4zm-.438 4.008a23.09 23.09 0 0 0-15.828 6.726c-8.964 8.97-8.964 23.559 0 32.528a1 1 0 0 0 1.418 0 1 1 0 0 0 0-1.414c-8.191-8.188-8.187-21.508 0-29.696a21.06 21.06 0 0 1 18.188-5.886 1 1 0 1 0 .316-1.977 22.55 22.55 0 0 0-4.093-.281zm8.094 1.379a.997.997 0 0 0-.89.648.999.999 0 0 0 .586 1.29c.714.265 1.418.573 2.101.913a.97.97 0 0 0 .45.11c.363 0 .714-.2.894-.551a1.005 1.005 0 0 0-.445-1.344c-.743-.375-1.52-.71-2.301-1.004a1.057 1.057 0 0 0-.395-.062zm5.778 3.289a.998.998 0 0 0-.496 1.777 20.685 20.685 0 0 1 1.91 1.7c8.191 8.187 8.191 21.507 0 29.695a1.004 1.004 0 0 0 0 1.418c.195.191.453.293.71.293.255 0 .512-.102.708-.293 8.964-8.97 8.964-23.563 0-32.532a24.17 24.17 0 0 0-2.094-1.855 1.013 1.013 0 0 0-.738-.203zM17 26a1 1 0 0 0-1 1v8c0 .266.094.52.281.707a.993.993 0 0 0 .707.293h28A1.01 1.01 0 0 0 46 35v-8a1 1 0 0 0-1-1zm1 2h26.012L44 34H17.988zm3.375 18.395a.992.992 0 0 0-.988.492l-1 1.734a.997.997 0 0 0 .363 1.363.995.995 0 0 0 1.363-.363l1-1.734a.998.998 0 0 0-.738-1.492zm19.25 0a1.002 1.002 0 0 0-.738 1.496l1 1.73a.995.995 0 0 0 1.363.363.993.993 0 0 0 .363-1.363l-1-1.73a1.002 1.002 0 0 0-.988-.496zm-4.438 1.949a.946.946 0 0 0-.402.027c-.531.14-.847.691-.707 1.223l.52 1.933a1.004 1.004 0 0 0 1.226.707 1 1 0 0 0 .707-1.222l-.515-1.934a1.007 1.007 0 0 0-.828-.734zm-10.37 0a1.007 1.007 0 0 0-.833.734l-.515 1.934a1 1 0 0 0 1.933.515l.52-1.933a1.001 1.001 0 0 0-1.106-1.25zM31 49a1 1 0 0 0-1 1v2a1 1 0 1 0 2 0v-2a1 1 0 0 0-1-1z"/></svg>