<svg xmlns="http://www.w3.org/2000/svg" viewBox="0 0 50 50"><path d="M17.063 0a1 1 0 0 0-.782.594L14.72 4.03l-3.595-.53a.995.995 0 0 0-1.02.547.992.992 0 0 0 .176 1.14l2.75 2.938-1.469 3.594a1.001 1.001 0 0 0 .907 1.406c-1.235 1.523-2.121 3.281-2.688 5.219l-.969-2.313 1.876-1.812a1 1 0 0 0-.813-1.719l-2.688.313L6 10.53A1 1 0 0 0 5 10h-.094a.993.993 0 0 0-.781.75L3.5 13.344l-2.688.469c-.421.074-.75.41-.816.835-.062.426.152.844.535 1.04l2.281 1.25-.406 2.5a.994.994 0 0 0 .508 1.039.992.992 0 0 0 1.148-.133l2-1.75 2.407 1.125c.312.148.68.125.969-.063A21.14 21.14 0 0 0 9 24v4.625c-.992.605-1.906 1.777-1.906 3.563 0 2.242 1.543 4.027 3.593 4.53 1.34 3.337 2.97 6.563 5.157 9C18.137 48.274 21.074 50 24.688 50c3.566 0 6.539-1.727 8.843-4.281 2.196-2.438 3.844-5.66 5.188-9 2.023-.516 3.593-2.328 3.593-4.532 0-1.44-.574-2.484-1.312-3.156-.004-.004.004-.027 0-.031v-5c0-2.426-.375-4.75-1.156-6.844l1.843-.781 3.22 3.156a.997.997 0 0 0 1.16.176c.382-.2.597-.625.527-1.05l-.688-4.282 3.532-1.781a.996.996 0 0 0 .566-1.004.994.994 0 0 0-.754-.871l-4.219-1.031L43.97 5.28a1 1 0 0 0-1.125-.781.996.996 0 0 0-.75.563l-1.75 3.53-4.157-.78a.997.997 0 0 0-1.07.488.998.998 0 0 0 .133 1.168l3.094 3.344-.375.874c-.242-.328-.477-.66-.75-.968C35.863 11.203 34.117 10 32 9.188a1 1 0 0 0 1.094-1.032l-.063-2.031 1.782-.813c.382-.175.617-.574.582-.992a1 1 0 0 0-.739-.883l-1.906-.5-.156-2A1 1 0 0 0 31.5 0l-.094.001a1.009 1.009 0 0 0-.656.469l-1.156 1.75-1.938-.313a.994.994 0 0 0-1.039.508.992.992 0 0 0 .133 1.148L28 5.032l-.969 1.78a1 1 0 0 0 .344 1.313A23.198 23.198 0 0 0 25 8a22.61 22.61 0 0 0-3.719.313l1.75-1.063a1 1 0 0 0-.312-1.844l-3.657-.75-.875-3.875A1 1 0 0 0 17.063 0zm13.78 3.969c.083.316.317.574.626.687a1 1 0 0 0-.469.875v.063a.998.998 0 0 0-.875-.282c.14-.332.094-.714-.125-1 .32.028.633-.101.844-.343zm-13.968.156l.344 1.594c.09.383.394.676.781.75l1.813.375-1.438.906c-.355.215-.54.625-.469 1.031l.188 1.031a.997.997 0 0 0 .093.438l.032.25-.219-.188a1 1 0 0 0-.719-.656l-.312-.281a.997.997 0 0 0-1.125-.156l-1.375.719.656-1.657c.148-.36.078-.773-.188-1.062l-1.25-1.344 1.47.219a.999.999 0 0 0 1.062-.563zM30.031 7.5l1.344 1.375c.074.074.156.137.25.188a17.418 17.418 0 0 0-3.375-.813l.031-.031zm12.625.906l.563 2.313c.086.37.379.664.75.75l2.187.531-1.812.906c-.39.2-.606.63-.532 1.063l.313 2-1.531-1.5a1.001 1.001 0 0 0-1.094-.188l-2 .844.906-2.125a.997.997 0 0 0-.156-1.063l-1.469-1.624 1.938.374a1 1 0 0 0 1.062-.53zM25 10c5.09 0 8.5 1.578 10.719 4.063.488.546.902 1.14 1.281 1.78l-.313.75A1 1 0 0 0 38 17.939c.668 1.812 1 3.863 1 6.062v4.063c-.563-.102-.957-.051-1.156-.032-.184-3.433-1.098-5.87-2.75-7.281-1.828-1.559-4.207-1.965-6.532-2.125-2.324-.16-4.656-.094-6.562-.438-1.906-.343-3.254-.968-4.094-2.625a1 1 0 0 0-1-.562h-.093A1 1 0 0 0 16 16c0 2.992-.895 4.773-1.875 6.5-.879 1.55-1.805 3.164-2 5.25l-.406.281c-.082-.008-.344-.05-.719-.031v-4c0-5.219 1.77-9.621 5.813-12.094l2.218 2.031a.993.993 0 0 0 1.149.133.994.994 0 0 0 .508-1.039l-.438-2.469A19.657 19.657 0 0 1 25 10zM5.437 13.813l.282.562a1 1 0 0 0 1 .531l.406-.062-.219.219a1 1 0 0 0-.218 1.124l.25.625-.625-.312a.997.997 0 0 0-1.063.156l-.438.407.063-.5a.998.998 0 0 0-.5-1.032l-.438-.25.532-.094a.994.994 0 0 0 .812-.75zm12.188 4.5c1.14.992 2.531 1.582 4 1.843 2.219.399 4.637.317 6.813.469 2.175.152 4.046.52 5.343 1.625C35.078 23.355 36 25.27 36 29c0 .55.45 1 1 1h.594a.668.668 0 0 0 .125 0s.726-.082 1.375.156c.648.239 1.218.516 1.218 2.032 0 1.374-1.16 2.578-2.437 2.718a1 1 0 0 0-.813.625c-1.324 3.383-2.984 6.574-5.03 8.844-2.048 2.27-4.41 3.625-7.344 3.625-2.989 0-5.31-1.355-7.344-3.625-2.035-2.27-3.676-5.457-5-8.844a1 1 0 0 0-.844-.625c-1.434-.152-2.406-1.183-2.406-2.718 0-1.458.558-1.75 1.219-2 .66-.25 1.374-.188 1.374-.188a.753.753 0 0 0 .188 0h.188a.985.985 0 0 0 .437-.156l1-.594c.3-.176.492-.496.5-.844 0-1.84.855-3.136 1.875-4.937.75-1.32 1.379-3.067 1.75-5.157zM22.5 27a4.516 4.516 0 0 0-4.5 4.5c0 2.473 2.027 4.5 4.5 4.5 1.418 0 2.672-.684 3.5-1.719.828 1.035 2.082 1.719 3.5 1.719 2.473 0 4.5-2.027 4.5-4.5S31.973 27 29.5 27c-1.418 0-2.672.684-3.5 1.719C25.172 27.684 23.918 27 22.5 27zm0 2c1.39 0 2.5 1.11 2.5 2.5a2.47 2.47 0 0 1-1 2 1.5 1.5 0 0 0-3 0 2.47 2.47 0 0 1-1-2c0-1.39 1.11-2.5 2.5-2.5zm5.5.5a1.5 1.5 0 0 0 3 0c.61.453 1 1.172 1 2 0 1.39-1.11 2.5-2.5 2.5S27 32.89 27 31.5c0-.828.39-1.547 1-2z"/></svg>