<svg xmlns="http://www.w3.org/2000/svg" viewBox="0 0 24 24"><path d="M3.5 2c0 .824-.676 1.5-1.5 1.5.824 0 1.5.676 1.5 1.5 0-.824.676-1.5 1.5-1.5-.824 0-1.5-.676-1.5-1.5zm8.531 0C7.527 2 4 3.281 4 11c0 .164-.008.336 0 .5a2.45 2.45 0 0 0-1 2c0 1.227.898 2.254 2.063 2.469C6.272 18.89 8.694 22 12 22s5.727-3.11 6.938-6.031A2.526 2.526 0 0 0 21 13.5a2.45 2.45 0 0 0-1-2c.012-.164 0-.336 0-.5 0-6.75-3.469-9-7.969-9zM20.5 3c0 .824-.676 1.5-1.5 1.5.824 0 1.5.676 1.5 1.5 0-.824.676-1.5 1.5-1.5-.824 0-1.5-.676-1.5-1.5zM3 6c0 .55-.45 1-1 1 .55 0 1 .45 1 1 0-.55.45-1 1-1-.55 0-1-.45-1-1zm6.594 1.344c1.527 2.718 5.636 1.082 8.125 1.812A6.09 6.09 0 0 1 18 11c0 .316-.027.64-.063.969l-.093.812.812.25A.484.484 0 0 1 19 13.5c0 .273-.258.5-.594.5l-.812-.156-.282.781C16.36 17.293 14.352 20 12 20c-2.352 0-4.36-2.703-5.313-5.375l-.375-.75L5.5 14a.501.501 0 0 1-.5-.5c0-.25.168-.414.344-.469l.812-.25-.093-.812A9.09 9.09 0 0 1 6 11c0-.441.055-.836.125-1.219 1.172-.933 2.074-.176 3.469-2.437zM9.5 11c-.55 0-1 .45-1 1s.45 1 1 1 1-.45 1-1-.45-1-1-1zm5 0a1.5 1.5 0 1 0 0 3 1.5 1.5 0 0 0 0-3z"/></svg>