<svg xmlns="http://www.w3.org/2000/svg" viewBox="0 0 80 80"><path d="M39 9c-6.922 0-13.328 3.902-18.031 7.723-4.707 3.824-7.75 7.652-7.75 7.652l-.84 1.055 1.25.496s1.023.402 2.133 1.62C16.867 28.767 18 30.739 18 34c0 4.02.691 7.02 1.05 8.313a3.51 3.51 0 0 0-.96.624c-1.578-.378-3.098.016-4.05.97l-1.325 1.327 3.344 5.016 2.128 8.93-1.16 1.164-.707.703 1.414 1.418.707-.711 1.497-1.492.457-.461-2.473-10.364-2.637-3.949.168-.164c.738-.738 3.203-1.246 5.156 2.043l.063.106 4.531 4.53L39.73 37.48a1.624 1.624 0 0 1 2.32.004 1.619 1.619 0 0 1-.003 2.317l-7.84 7.844-.707.707 1.414 1.414 8.55-8.551.376-.371.37-.375a1.627 1.627 0 0 1 2.321 0 1.632 1.632 0 0 1 0 2.324l-.41.41h-.004l-.707.703-.375.375-7.094 7.098-.707.707 1.414 1.414.707-.707 7.098-7.094a1.624 1.624 0 0 1 2.32 0 1.627 1.627 0 0 1 0 2.32l-1.16 1.16-.004-.003-.703.71-5.23 5.227-.707.707 1.418 1.414 4.812-4.812a1.627 1.627 0 0 1 2.32 0 1.627 1.627 0 0 1 0 2.32L34.208 70.055a2.152 2.152 0 0 1-2.46.414l-.638-.301-2.129 2.125-.71.707 1.418 1.414.703-.707 1.324-1.316c1.363.332 2.844.14 3.91-.922l.816-.817C37.395 71.472 38.633 72 40 72c1.29 0 2.438-.5 3.367-1.246C51.691 69.172 58 61.883 58 53.105V52h1.082c1.668 0 3.086-1.332 3.086-3 0 .11.023-.137.094-.402.07-.262.175-.602.281-.961.21-.723.457-1.465.457-2.235 0-1.297-.762-2.398-1.848-2.976.426-1.864 1.848-8.41 1.848-12.903 0-9.843-6.305-14.07-11.371-14.394-.281-.512-.957-1.621-2.54-2.906C47.083 10.598 43.83 9 39 9zm0 2c4.395 0 7.14 1.402 8.828 2.777 1.688 1.371 2.266 2.645 2.266 2.645l.265.578H51c4.074 0 10 3.148 10 12.523 0 4.094-1.426 10.766-1.813 12.516-.414.082-.789.293-1.187.441v-4.17c0-4.735-1.898-7.68-3.824-9.325-1.922-1.648-3.914-2.074-3.914-2.074l-.578-.12-.387.444s-.93 1.098-3.098 2.278C44.031 30.687 40.695 31.89 36 31.89c-2.316 0-5.684.418-8.61 1.964-2.89 1.528-5.312 4.336-5.37 8.63-.32-.118-.625-.274-.946-.38C20.871 41.485 20 38.56 20 34c0-3.738-1.367-6.27-2.762-7.797-.605-.668-1.195-1.09-1.707-1.433.848-1.004 3.008-3.5 6.696-6.493C26.754 14.597 32.844 11 39 11zm12 8c-.55 0-1 .45-1 1s.45 1 1 1 1-.45 1-1-.45-1-1-1zm0 4c-.55 0-1 .45-1 1s.45 1 1 1 1-.45 1-1-.45-1-1-1zm-.7 6.023c.485.145 1.407.477 2.575 1.477C54.425 31.828 56 34.094 56 38.309v7.16l1.453-.739c.813-.417 1.774-.73 2.047-.73.86 0 1.5.637 1.5 1.402 0 .196-.172.973-.375 1.672-.105.348-.21.692-.297 1.004-.082.309-.16.535-.16.922 0 .543-.453 1-1.086 1H56v3.105c0 7.883-5.688 14.399-13.176 15.735l-.285.05-.21.196A3.442 3.442 0 0 1 40 70a3.394 3.394 0 0 1-2.14-.77l4.859-4.855 2.613-2.617 5.602-5.602a3.654 3.654 0 0 0 0-5.148v-.004c-.422-.422-.938-.676-1.473-.844l.727-.726a3.66 3.66 0 0 0 0-5.153c-.485-.48-1.083-.734-1.704-.89.778-1.387.637-3.16-.539-4.336-.949-.95-2.293-1.203-3.511-.88-.098-.769-.383-1.523-.97-2.109a3.627 3.627 0 0 0-2.573-1.058 3.63 3.63 0 0 0-2.578 1.058l-13.11 13.11-2.953-2.953c-.574-.934-1.234-1.66-1.934-2.2.063-.007.122-.023.184-.023.273 0 1.23.313 2.047.73l1.453.74v-2.84c0-3.668 1.844-5.691 4.328-7.004 2.48-1.313 5.61-1.734 7.672-1.734 5.035 0 8.727-1.301 11.156-2.625 1.754-.953 2.657-1.762 3.145-2.243z"/></svg>