<svg xmlns="http://www.w3.org/2000/svg" viewBox="0 0 48 48"><path d="M37 20a1.999 1.999 0 1 1-4 0 1.999 1.999 0 1 1 4 0" fill="#ef840f"/><path d="M35 14c0-7.637-18-4.973-18 0v7c0 4.973 4.027 9 9 9s9-4.027 9-9z" fill="#ef840f"/><path d="M26 30a8.928 8.928 0 0 1-5-1.52V30s0 6 5 6 5-6 5-6v-1.52A8.928 8.928 0 0 1 26 30z" fill="#d17315"/><path d="M31.996 23.223a2.2 2.2 0 0 0-.5-.438c.25-.27.57-.719.633-1.293a1.815 1.815 0 0 0-.418-1.355 1.907 1.907 0 0 0-.73-.551c.058-.148.097-.313.113-.484a1.812 1.812 0 0 0-.422-1.352 1.836 1.836 0 0 0-1.735-.648 1.817 1.817 0 0 0-.375-.739c-.398-.488-.937-.445-1.527-.445-.828 0-1.223.836-1.308.914l-5.641 4.688-.574-2.137c-.008-.278-.086-.918-.575-1.438-.257-.273-.73-.605-1.546-.625-.141 0-.266.024-.391.043V21a8.997 8.997 0 0 0 10.008 8.941l4.597-3.773c.13-.105.778-.68.856-1.54.047-.507-.113-.991-.465-1.405" fill="#d17315"/><path d="M26 5c-6.074 0-10 4.926-10 11v2.285L17 21v-2l13-5 4 4v2l2-1.742V16c0-4.023-1.04-8.016-6-9l-1-2z" fill="#424242"/><path d="M31 30s-1 4-5 4-5-4-5-4-11 1.984-11 13h32c0-10.977-11-13-11-13" fill="#4fc3f7"/><path d="M26 36c5 0 6.746-3.93 6.95-5.43C31.792 30.148 31 30 31 30s-1 4-5 4-5-4-5-4-.793.145-1.953.566C19.254 32.063 21 36 26 36" fill="#01579b"/><path d="M30.973 24.398s.918-.757.261-1.53c-.675-.802-1.578 0-1.578 0s-2.527 2.05-2.898 2.37c-.352.301-.774-.148-.406-.468.468-.407 4.242-3.5 4.242-3.5s.949-.758.343-1.497c-.632-.77-1.562.086-1.562.086s-2.809 2.274-3.297 2.696c-.351.3-.765-.16-.406-.47.469-.401 3.898-3.19 3.898-3.19s.942-.766.332-1.508c-.629-.766-1.543.105-1.543.105s-3.918 3.203-4.367 3.59c-.36.313-.719-.195-.402-.465.469-.406 3.84-3.156 3.84-3.156s.957-.742.363-1.465c-.719-.875-1.668-.02-1.668-.02l-7.11 5.86-.5-3.375s.04-1.117-1.09-1.14c-1.132-.02-1.152 1.1-1.152 1.1l-.332 8.095s3.575 3.55 4.934 4.351c1.36.805 4.156-1.597 4.156-1.597z" fill="#ffbc6c"/><path d="M10 43h1l10.078-12.32-4.082-4.977S8.125 32.188 7 33c-1.125.813-2 2.438-2 5 0 2.184 5 5 5 5" fill="#ffbc6c"/></svg>