<svg xmlns="http://www.w3.org/2000/svg" viewBox="0 0 24 24"><path d="M12.031 2c-4.289 0-7.687 1.188-8 7.969C4.59 9.785 5.305 9.707 6 10c1.176-.945 2.195-.387 3.594-2.656 1.523 2.71 5.656.894 8.406 1.968.281 1.407 0 3.47 0 3.47l.656.25A.48.48 0 0 1 19 13.5c0 .273-.238.512-.594.5l-.687-.125-.344.844C16.422 17.387 14.352 20 12 20h-.031l-2.313 1.438C10.38 21.785 11.16 22 12 22c3.305 0 5.727-3.11 6.938-6.031A2.526 2.526 0 0 0 21 13.5a2.45 2.45 0 0 0-1-2c.008-.164 0-.336 0-.5 0-6.75-3.469-9-7.969-9zm-.062 7.969L6.313 13.53l-1.188.75s.332-2.597.156-2.875C4.832 10.69 4 11.155 4 11.155l-1.875 4.969c-.242.613-.125 1.703.219 2.25L3.688 20.5c.757 1.207 1.753 1.813 3 1.031l3.406-2.125L15 16.344l-.531-.844-4.063 2.531-.375-.968L14.937 14l-.5-.844-4.75 2.969-.374-.938 5.25-3.28-.532-.876L8.97 14.22l-.375-.938 3.906-2.469z"/></svg>