<svg xmlns="http://www.w3.org/2000/svg" viewBox="0 0 64 64"><path d="M61 29L31.95 12 3 29v3l29 13 29-13z" fill="#acb7d0"/><path d="M22.238 4.941H48c1.656 0 3 1.34 3 3v28l-19.05 9-18.95-9V14.18c0-.797.316-1.559.879-2.121L20.12 5.82a2.996 2.996 0 0 1 2.117-.879z" fill="#bbdef9"/><path d="M51 29.469V8.629l-25.93 32.75L29 44l8-1 5.3-2.531zM22.79 40L50.5 5H46L19 39.102zM16 38.21L43.5 5H42L15 37.531z" fill="#cce7fc"/><path d="M44.5 13l1.238 2.262L48 16.5l-2.262 1.238L44.5 20l-1.238-2.262L41 16.5l2.262-1.238zm-4.852 18l.582 1.059 1.07.59-1.07.581-.582 1.07-.59-1.07L38 32.648l1.059-.59z" fill="#fff"/><path d="M23 4.941v10H13z" fill="#ffefb8"/><path d="M59 59.23H4.89c-1.105 0-2-.894-2-2V31.871l29.11 13 29-13v25.36a2 2 0 0 1-2 2z" fill="#faefde"/><path d="M6.89 52H57c2.21 0 4 1.79 4 4v1.23c0 1.106-.895 2-2 2H4.89c-1.105 0-2-.894-2-2V56c0-2.21 1.79-4 4-4z" fill="#efd8be"/><path d="M60.54 27.559L52 22.429V7a3 3 0 0 0-3-3H23.66a4.985 4.985 0 0 0-3.539 1.46l-6.66 6.661A4.985 4.985 0 0 0 12 15.661v6.78L3.46 27.56A3 3 0 0 0 2 30.129V57a3 3 0 0 0 3 3h54a3 3 0 0 0 3-3V30.129a3 3 0 0 0-1.46-2.57zm-39-20.68c.14-.14.296-.27.46-.379V13c0 .55-.45 1-1 1h-6.5c.11-.164.238-.32.379-.46zm-17 22.402L12 24.77V31c0 .55.45 1 1 1s1-.45 1-1V16h7a3 3 0 0 0 3-3V6h25c.55 0 1 .45 1 1v24c0 .55.45 1 1 1s1-.45 1-1v-6.23l7.512 4.511a1 1 0 0 1 .488.86v1.218l-26.77 12a3.006 3.006 0 0 1-2.449 0L4 31.352v-1.223c0-.352.188-.68.488-.86zM59 58H5c-.55 0-1-.45-1-1V33.54l26 11.64c1.3.582 2.79.582 4.09 0L60 33.54V57c0 .55-.45 1-1 1z" fill="#8d6c9f"/><path d="M12 50c-.55 0-1 .45-1 1v2c0 .55.45 1 1 1s1-.45 1-1v-2c0-.55-.45-1-1-1zm-5 0c-.55 0-1 .45-1 1v2c0 .55.45 1 1 1s1-.45 1-1v-2c0-.55-.45-1-1-1zm10 0c-.55 0-1 .45-1 1v2c0 .55.45 1 1 1s1-.45 1-1v-2c0-.55-.45-1-1-1zm5 0c-.55 0-1 .45-1 1v2c0 .55.45 1 1 1s1-.45 1-1v-2c0-.55-.45-1-1-1zm5 0c-.55 0-1 .45-1 1v2c0 .55.45 1 1 1s1-.45 1-1v-2c0-.55-.45-1-1-1zm5 0c-.55 0-1 .45-1 1v2c0 .55.45 1 1 1s1-.45 1-1v-2c0-.55-.45-1-1-1zm5 0c-.55 0-1 .45-1 1v2c0 .55.45 1 1 1s1-.45 1-1v-2c0-.55-.45-1-1-1zm5 0c-.55 0-1 .45-1 1v2c0 .55.45 1 1 1s1-.45 1-1v-2c0-.55-.45-1-1-1zm5 0c-.55 0-1 .45-1 1v2c0 .55.45 1 1 1s1-.45 1-1v-2c0-.55-.45-1-1-1zm5 0c-.55 0-1 .45-1 1v2c0 .55.45 1 1 1s1-.45 1-1v-2c0-.55-.45-1-1-1zm5 0c-.55 0-1 .45-1 1v2c0 .55.45 1 1 1s1-.45 1-1v-2c0-.55-.45-1-1-1zM25.71 24.71l5.29-5.3V37c0 .55.45 1 1 1s1-.45 1-1V19.41l5.29 5.29c.398.34.987.316 1.358-.052.368-.37.391-.96.051-1.359l-7-7a1.002 1.002 0 0 0-1.41 0l-7 7a1 1 0 0 0 1.41 1.41z" fill="#8d6c9f"/><path d="M21.422 27l.848 1.559 1.57.863-1.57.848-.848 1.57-.863-1.57L19 29.422l1.559-.863z" fill="#fff"/></svg>