<svg xmlns="http://www.w3.org/2000/svg" viewBox="0 0 48 48"><path d="M25 28L14.605 15.293a1 1 0 0 0-1.414 0L3 28zM3 28h42v9H3z" fill="#ffc107"/><path d="M43.04 28H32.48l-1-4.664 11.56 2z" fill="#00796b"/><path d="M39.824 16.125a2.502 2.502 0 0 0-1.402-3.246c-1.285-.508-3.738.117-4.246 1.402l-4 10.297a2.504 2.504 0 0 0 1.402 3.246 2.502 2.502 0 0 0 3.246-1.402z" fill="#00796b"/><path d="M41.824 16.125a2.502 2.502 0 0 0-1.402-3.246c-1.285-.508-3.738.117-4.246 1.402l-4 10.297a2.504 2.504 0 0 0 1.402 3.246 2.502 2.502 0 0 0 3.246-1.402z" fill="#009688"/><path d="M20.441 21.367l-.894-2.265a2.636 2.636 0 0 1 1.465-3.415l15.511-4.406C38.437 10.562 40.97 12.406 41 15v2c-.04.75-.469 1.445-1.21 1.75 0 0-1.727-.543-3.33.25-1.605.793-12.6 3.855-12.6 3.855a2.636 2.636 0 0 1-3.419-1.488" fill="#009688"/><path d="M42 15c0 2.21-1.79 4-4 4s-4-1.79-4-4 1.79-4 4-4 4 1.79 4 4zm3 13H34.48l-1-4.664 11.52 2z" fill="#009688"/><path d="M20.3 22.254l.536-.223a2.644 2.644 0 0 1-.395-.668l-.894-2.261a2.62 2.62 0 0 1-.168-.797l-1.727.715zm-2.519 4.254c0-.832.676-1.512 1.508-1.508H26l2 1.203c0 1.067-.434 1.317-.61 1.465a1.501 1.501 0 0 1-.96.348h-7.14a1.509 1.509 0 0 1-1.509-1.508" fill="#ff9800"/><path d="M24.203 25.563l-1.133 1.433h4.688c.144-.242.23-.516.242-.793a1.663 1.663 0 0 0-.145-.785l-2.773-7.531c-.367-.992-1.68-1.414-2.883-.813-1.207.606-1.449 1.856-.969 2.856zM11 25c0 .55-.45 1-1 1s-1-.45-1-1 .45-1 1-1 1 .45 1 1zm2-3c0 .55-.45 1-1 1s-1-.45-1-1 .45-1 1-1 1 .45 1 1zm2 3c0 .55-.45 1-1 1s-1-.45-1-1 .45-1 1-1 1 .45 1 1z" fill="#ff9800"/></svg>