<svg xmlns="http://www.w3.org/2000/svg" viewBox="0 0 26 26"><path d="M12.156 6.031a2.873 2.873 0 0 0-1.469.469l-8.874 5.813c-.5.3-.813.773-.813 1.374v.626c0 .5.188.98.688 1.28l.218.22c.07.07.203.117.375.187H0v2h9.688l1.812 2.906c.398.602 1.086.707 1.688.407.601-.399.707-1.118.406-1.72l-2.781-4.405c-.2-.301-.418-.399-.72-.5l-2.405-.376 4.718-3c.301-.199.707-.105.906.094L17.5 15.5c.238.238.523.395.813.5h-5.5L14 18h12v-2h-6.313l5.407-1.688a1.49 1.49 0 0 0 .812-1.906c-.199-.699-1.02-1.105-1.718-.906L19.593 13l-5.188-6c-.562-.688-1.41-1.008-2.25-.969z"/></svg>