<svg xmlns="http://www.w3.org/2000/svg" viewBox="0 0 80 80"><path d="M35 12c-2.2 0-4 1.8-4 4v39.516l-6.219-3.098a.986.986 0 0 0-.472-.105C23.895 52.163 23.48 52 23 52c-1.098 0-2.105.45-2.828 1.172l-8 7.996a.953.953 0 0 0-.223.336C11.383 62.195 11 63.043 11 64c0 .73.215 1.41.563 2H10a1.006 1.006 0 0 0-.879.496 1.01 1.01 0 0 0 0 1.008c.184.312.52.5.879.496h60c.36.004.695-.184.879-.496a1.01 1.01 0 0 0 0-1.008c-.184-.312-.52-.5-.879-.496h-1.563A3.93 3.93 0 0 0 69 64c0-.957-.383-1.809-.95-2.5a.956.956 0 0 0-.222-.332l-8-7.996A4.002 4.002 0 0 0 57 52c-.48 0-.895.164-1.309.316a.986.986 0 0 0-.472.106L49 55.516V16c0-2.2-1.8-4-4-4s-4 1.8-4 4v20h-2V16c0-2.2-1.8-4-4-4zm0 2c1.117 0 2 .883 2 2v21c0 .55.45 1 1 1h4c.55 0 1-.45 1-1V16c0-1.117.883-2 2-2s2 .883 2 2v41.129a1.003 1.003 0 0 0 1.445.895l6.77-3.368-.442-.886a.995.995 0 0 0 1.34.449A1.99 1.99 0 0 1 57 54c.559 0 1.05.223 1.41.586.192.187.445.293.711.293h-.418l7.656 7.644c0 .004.004.008.004.008.02.02.035.04.051.055.363.363.586.855.586 1.414 0 1.117-.883 2-2 2a1.966 1.966 0 0 1-1.438-.617l-6.449-6.445a1.003 1.003 0 0 0-1.152-.188l-9.418 4.691c-.156.079-.29.196-.387.34A4.995 4.995 0 0 1 42 66h-4a4.995 4.995 0 0 1-4.156-2.219 1.014 1.014 0 0 0-.387-.34l-9.418-4.691a1.005 1.005 0 0 0-1.152.188l-6.45 6.445A1.966 1.966 0 0 1 15 66a1.984 1.984 0 0 1-1.999-2c0-.559.223-1.05.586-1.414a.581.581 0 0 0 .066-.074l7.641-7.633h-.414a1 1 0 0 0 .707-.293A1.98 1.98 0 0 1 23 54c.309 0 .602.078.887.219a.998.998 0 0 0 1.34-.45l-.442.887 6.77 3.367A1.003 1.003 0 0 0 33 57.13V16c0-1.117.883-2 2-2zM23.793 60.863l8.742 4.352c.219.281.457.539.711.785H18.652zm32.414 0L61.347 66H46.755a7.54 7.54 0 0 0 .71-.785zM14 70c-.55 0-1 .45-1 1s.45 1 1 1 1-.45 1-1-.45-1-1-1zm4 0c-.55 0-1 .45-1 1s.45 1 1 1 1-.45 1-1-.45-1-1-1zm4 0c-.55 0-1 .45-1 1s.45 1 1 1 1-.45 1-1-.45-1-1-1zm4 0c-.55 0-1 .45-1 1s.45 1 1 1 1-.45 1-1-.45-1-1-1zm4 0c-.55 0-1 .45-1 1s.45 1 1 1 1-.45 1-1-.45-1-1-1zm4 0c-.55 0-1 .45-1 1s.45 1 1 1 1-.45 1-1-.45-1-1-1zm4 0c-.55 0-1 .45-1 1s.45 1 1 1 1-.45 1-1-.45-1-1-1zm4 0c-.55 0-1 .45-1 1s.45 1 1 1 1-.45 1-1-.45-1-1-1zm4 0c-.55 0-1 .45-1 1s.45 1 1 1 1-.45 1-1-.45-1-1-1zm4 0c-.55 0-1 .45-1 1s.45 1 1 1 1-.45 1-1-.45-1-1-1zm4 0c-.55 0-1 .45-1 1s.45 1 1 1 1-.45 1-1-.45-1-1-1zm4 0c-.55 0-1 .45-1 1s.45 1 1 1 1-.45 1-1-.45-1-1-1zm4 0c-.55 0-1 .45-1 1s.45 1 1 1 1-.45 1-1-.45-1-1-1zm4 0c-.55 0-1 .45-1 1s.45 1 1 1 1-.45 1-1-.45-1-1-1z"/></svg>