<svg xmlns="http://www.w3.org/2000/svg" viewBox="0 0 50 50"><path d="M23.75 10.875a6.356 6.356 0 0 0-3.406 1l-16.5 10.781C2.652 23.45 2 24.676 2 26.094v1.218c0 1.403.602 2.575 1.594 3.188l.437.344c.063.039.192.101.282.156.042.023.109.04.156.063.058.03.086.062.156.093.074.035.137.059.219.094.207.086.426.188.687.25l11.875 1.906 3.938 6.313a3.168 3.168 0 0 0 2.718 1.531c.618 0 1.215-.191 1.657-.5a3.181 3.181 0 0 0 1.468-2.063c.18-.835.012-1.667-.437-2.312l-5.094-8.094c-.437-.734-1.176-1.222-2.093-1.375l-1.813-.281 6.469-4.156c.152-.094.32-.086.468.062l7.75 7.5a5.42 5.42 0 0 0 2 1.157c.168.054.329.117.5.156.094.02.188.047.282.062.152.024.312.02.468.032.106.007.208.03.313.03.465 0 .938-.081 1.406-.218l9.938-3.125c2.035-.766 3.086-2.652 2.5-4.688-.672-1.742-2.668-2.734-4.438-2.187l-7.781 2.406-9.156-10.593a6.183 6.183 0 0 0-4.719-2.188zM1 31a1 1 0 1 0 0 2h2.844a6.97 6.97 0 0 1-.906-.5l-.063-.031-.031-.032-.375-.28A5.179 5.179 0 0 1 1.219 31zm26 0c-.402 0-.75.25-.906.594L27 33h6.531a7.49 7.49 0 0 1-2.437-1.469l-.063-.062-.5-.469zm17.906 0L38.5 33H49c.555 0 1-.445 1-1 0-.555-.445-1-1-1z"/></svg>