<svg xmlns="http://www.w3.org/2000/svg" viewBox="0 0 64 64"><linearGradient id="a" gradientUnits="userSpaceOnUse" x1="32" y1="8.667" x2="32" y2="55.269" spreadMethod="reflect"><stop offset="0" stop-color="#1a6dff"/><stop offset="1" stop-color="#c822ff"/></linearGradient><path d="M32 54C25.958 54 7 41.137 7 23c0-7.168 5.832-13 13-13 5.397 0 10.037 3.307 12 8 1.963-4.693 6.603-8 12-8 7.168 0 13 5.832 13 13 0 18.137-18.958 31-25 31zM20 12c-6.065 0-11 4.935-11 11 0 17.425 18.551 29 23 29s23-11.575 23-29c0-6.065-4.935-11-11-11s-11 4.935-11 11h-2c0-6.065-4.935-11-11-11z" fill="url(#a)"/><line x1="44" y1="14" x2="44" y2="14" fill="#7933ff"/><linearGradient id="b" gradientUnits="userSpaceOnUse" x1="48" y1="13.5" x2="48" y2="22.08" spreadMethod="reflect"><stop offset="0" stop-color="#6dc7ff"/><stop offset="1" stop-color="#e6abff"/></linearGradient><path d="M52 22h-2c0-3.309-2.691-6-6-6v-2c4.411 0 8 3.589 8 8z" fill="url(#b)"/></svg>