<svg xmlns="http://www.w3.org/2000/svg" viewBox="0 0 24 24"><path d="M7.156 0C5.371 0 3.79.89 2.625 2.438 1.562 3.835 1 5.449 1 7.188c0 1.824.61 3.789 1.719 5.906.945 1.789 2.234 3.707 3.906 5.719 1.367 1.636 2.914 3.261 4.625 4.906l.688.656.687-.656c1.965-1.883 3.605-3.559 4.875-5.063 1.676-1.984 2.957-3.883 3.875-5.718C22.438 10.805 23 8.718 23 6.688c0-1.524-.672-2.997-1.844-4.344C19.914.906 18.398.063 16.75.063c-1.422 0-2.637.625-3.563 1.5-.523.496-.812 1.148-1.187 1.75-.379-.614-.656-1.282-1.188-1.782C9.873.645 8.605 0 7.156 0zm0 2c.88 0 1.614.371 2.282 1 .667.629 1.253 1.527 1.656 2.469l.875 2.093.937-2.093c.414-.934 1-1.817 1.656-2.438.657-.62 1.348-.969 2.188-.969.996 0 1.922.454 2.906 1.594C20.61 4.754 21 5.738 21 6.687c0 1.668-.45 3.43-1.406 5.344-.824 1.653-2.028 3.422-3.625 5.313-1.028 1.218-2.473 2.691-4.031 4.218-1.364-1.351-2.637-2.699-3.75-4.03-1.606-1.93-2.856-3.716-3.72-5.345C3.458 10.262 3 8.57 3 7.188c0-1.332.398-2.453 1.219-3.53C5.105 2.476 5.98 2 7.156 2z"/></svg>