<svg xmlns="http://www.w3.org/2000/svg" viewBox="0 0 16 16"><path d="M8 2C6.348 2 5 3.348 5 5s1.348 3 3 3c1.191 0 2.305-.7 3.16-1.352.86-.656 1.461-1.312 1.461-1.312L12.93 5l-.313-.34s-.605-.656-1.46-1.308C10.296 2.699 9.183 2 8 2zm0 6a5.01 5.01 0 0 0-5 5h1c0-1.43.75-2.668 1.871-3.375L8 12l2.129-2.375A3.978 3.978 0 0 1 12 13h1c0-2.754-2.246-5-5-5zm0-5c.754 0 1.766.55 2.547 1.148.562.426.75.645.957.852-.203.21-.39.426-.95.852C9.775 6.449 8.767 7 8 7c-1.11 0-2-.89-2-2 0-1.11.89-2 2-2zm0 6c.41 0 .797.078 1.172.195L8 10.5 6.828 9.195A3.899 3.899 0 0 1 8 9z"/></svg>