<svg xmlns="http://www.w3.org/2000/svg" viewBox="0 0 40 40"><path d="M20 23.004c-6.363 0-11.54-3.938-11.54-8.774 0-4.835 5.177-8.77 11.54-8.77 6.363 0 11.54 3.935 11.54 8.77 0 4.836-5.177 8.774-11.54 8.774z" fill="#98ccfd"/><path d="M20 5.918c6.11 0 11.082 3.73 11.082 8.312 0 4.582-4.973 8.313-11.082 8.313-6.11 0-11.082-3.73-11.082-8.313 0-4.582 4.973-8.312 11.082-8.312M20 5C13.371 5 8 9.133 8 14.23c0 5.098 5.371 9.23 12 9.23s12-4.132 12-9.23C32 9.133 26.629 5 20 5z" fill="#4788c7"/><path d="M20 38.5c-1.27 0-2.445-.527-3.316-1.484l-.082-.09-.118-.043A10.514 10.514 0 0 1 9.5 27V14.5h21V27c0 4.426-2.805 8.395-6.98 9.883l-.122.043-.082.09c-.87.957-2.046 1.484-3.316 1.484z" fill="#fff"/><path d="M30 15v12a10.01 10.01 0 0 1-6.648 9.41l-.239.086-.168.184a3.944 3.944 0 0 1-5.89 0l-.168-.184-.239-.086A10.01 10.01 0 0 1 10 27V15h20m1-1H9v13c0 4.781 3.055 8.836 7.316 10.355A4.966 4.966 0 0 0 20 39c1.465 0 2.77-.64 3.684-1.645C27.945 35.835 31 31.781 31 27z" fill="#4788c7"/><path d="M32 37.5c-2.785 0-5.36-1-6.594-1.566 1.598-1.121 5.094-4.141 5.094-9.149v-4.902c0-2.918-2.48-6.25-3.602-7.606.649-.05 1.258-.093 1.817-.093 2.07 0 3.785.363 3.785 4.816 0 10.23 4.281 14.785 5.746 16.043-.844.766-3.062 2.457-6.246 2.457zm-23 0c-3.727 0-6.266-1.707-7.219-2.48C3.266 33.73 7.5 29.172 7.5 19c0-3.922 3.07-4.727 7.68-4.727 1.203 0 2.457.055 3.78.11 1.33.058 2.708.117 4.04.117.68 0 1.344-.031 1.977-.074-1.122 1.16-3.872 3.398-8.793 4.078-3.22.445-6.684 2.73-6.684 6.7v1.581c0 5.074 3.832 8.211 5.621 9.399C13.781 36.68 11.223 37.5 9 37.5z" fill="#b6dcfe"/><path d="M28.715 14.684c1.984 0 3.285.3 3.285 4.316 0 9.55 3.703 14.293 5.496 16.031C36.516 35.816 34.61 37 32 37c-2.203 0-4.273-.648-5.605-1.188C28.21 34.352 31 31.364 31 26.785v-4.902c0-2.613-1.86-5.504-3.121-7.172.293-.016.57-.027.836-.027m-13.535.09c1.191 0 2.437.054 3.758.109C20.273 14.94 21.655 15 23 15c.21 0 .422-.004.633-.008-1.395 1.113-3.801 2.504-7.52 3.016C12.688 18.484 9 20.938 9 25.203v1.582c0 4.63 3.035 7.711 5.05 9.246-1.374.453-3.323.969-5.05.969a11.222 11.222 0 0 1-6.445-2.02C4.367 33.203 8 28.46 8 19c0-1.7.563-2.746 1.828-3.39 1.137-.579 2.785-.837 5.352-.837m13.535-1.09c-1.602 0-3.559.317-5.715.317-2.605 0-5.355-.227-7.82-.227-4.57 0-8.18.778-8.18 5.227 0 11.945-6 16-6 16s2.926 3 8 3c3.305 0 7.246-1.719 7.246-1.719S10 33.035 10 26.785v-1.582c0-3.676 3.242-5.789 6.25-6.203 7.04-.973 9.75-5 9.75-5s4 4.352 4 7.883v4.902c0 6.13-5.605 9.203-5.605 9.203S27.945 38 32 38c4.39 0 7-3 7-3s-6-4.055-6-16c0-4.469-1.664-5.316-4.285-5.316z" fill="#4788c7"/><path d="M27 23.5a1.5 1.5 0 1 1-3 0 1.5 1.5 0 0 1 3 0zm-11 0a1.5 1.5 0 1 1-3 0 1.5 1.5 0 0 1 3 0z" fill="#4788c7"/><path d="M32.55 19.313C30.946 18.78 26.396 17.5 20 17.5c-6.395 0-10.945 1.281-12.55 1.813l-.873-11.33 5.484 3.66 7.915-7.914 6.914 7.907 6.539-3.735z" fill="#b6dcfe"/><path d="M19.95 4.465l6.296 7.195.54.613.71-.406 5.363-3.062-.757 9.843C30.086 18.04 25.782 17 20 17c-5.781 0-10.086 1.04-12.102 1.648l-.742-9.675 4.29 2.859.683.453 7.82-7.82M20 3l-8 8-6-4 1 13s5.113-2 13-2 13 2 13 2l1-13-7 4z" fill="#4788c7"/><path d="M22.5 4c0 1.379-1.121 2.5-2.5 2.5A2.502 2.502 0 0 1 17.5 4c0-1.379 1.121-2.5 2.5-2.5s2.5 1.121 2.5 2.5z" fill="#dff0fe"/><path d="M20 2c1.102 0 2 .898 2 2 0 1.102-.898 2-2 2-1.102 0-2-.898-2-2 0-1.102.898-2 2-2m0-1a3 3 0 1 0 .002 6.002A3 3 0 0 0 20 1z" fill="#4788c7"/><path d="M35.5 8c0 1.379-1.121 2.5-2.5 2.5A2.502 2.502 0 0 1 30.5 8c0-1.379 1.121-2.5 2.5-2.5s2.5 1.121 2.5 2.5z" fill="#dff0fe"/><path d="M33 6c1.102 0 2 .898 2 2 0 1.102-.898 2-2 2-1.102 0-2-.898-2-2 0-1.102.898-2 2-2m0-1a3 3 0 1 0 .002 6.002A3 3 0 0 0 33 5z" fill="#4788c7"/><path d="M9.5 8c0 1.379-1.121 2.5-2.5 2.5A2.502 2.502 0 0 1 4.5 8c0-1.379 1.121-2.5 2.5-2.5S9.5 6.621 9.5 8z" fill="#dff0fe"/><path d="M7 6c1.102 0 2 .898 2 2 0 1.102-.898 2-2 2-1.102 0-2-.898-2-2 0-1.102.898-2 2-2m0-1a3 3 0 1 0 .002 6.002A3 3 0 0 0 7 5z" fill="#4788c7"/></svg>