<svg xmlns="http://www.w3.org/2000/svg" viewBox="0 0 80 80"><path d="M40 7a1.999 1.999 0 0 0-1.965 2.367l-5.21 4.469-4.84-2.07A1.999 1.999 0 1 0 25 13.73l-.001 5.425v-.004C20.426 23.914 17 30.437 17 40c0 6.285 1.684 13.234 1.684 13.234l.183.766h8.84a57.65 57.65 0 0 0-3.613 1.465c-2.422 1.082-4.864 2.387-6.758 3.93C15.44 60.94 14 62.797 14 65v6h52v-6c0-2.203-1.441-4.059-3.336-5.605-1.894-1.543-4.336-2.848-6.758-3.93A57.65 57.65 0 0 0 52.293 54h8.422l.23-.676S63 47.281 63 37c0-8.348-3.898-14.047-8-17.668V13.73a1.998 1.998 0 1 0-2.984-1.968l-4.84 2.074-5.211-4.469A1.999 1.999 0 0 0 40 7zm-.66 3.887a1.987 1.987 0 0 0 1.32 0l6.164 5.277 5.98-2.562c.063.046.13.09.196.128V25H41.035s-.195-.008-.543 0H27V13.73c.066-.039.133-.082.195-.128l5.98 2.562zM30 20c-.55 0-1 .45-1 1s.45 1 1 1 1-.45 1-1-.45-1-1-1zm4 0c-.55 0-1 .45-1 1s.45 1 1 1 1-.45 1-1-.45-1-1-1zm4 0c-.55 0-1 .45-1 1s.45 1 1 1 1-.45 1-1-.45-1-1-1zm4 0c-.55 0-1 .45-1 1s.45 1 1 1 1-.45 1-1-.45-1-1-1zm4 0c-.55 0-1 .45-1 1s.45 1 1 1 1-.45 1-1-.45-1-1-1zm4 0c-.55 0-1 .45-1 1s.45 1 1 1 1-.45 1-1-.45-1-1-1zm5 2.082C58.254 25.41 61 30.18 61 37c0 9.188-1.516 14.148-1.785 15H47v-1.91c3.191-2.348 5-6.309 5-10.723V33.32c0-3.03-.895-5.054-1.93-6.32H55zm-30 .074V27h7.586c-.89.516-1.742 1.152-2.465 1.984C28.848 30.445 28 32.473 28 35.051v4.32c0 4.41 1.809 8.375 5 10.719V52H20.477C20.23 50.918 19 45.379 19 40c0-8.04 2.46-13.578 6-17.844zM40.965 27h5.863c.098.027.692.195 1.453.984.824.86 1.719 2.391 1.719 5.336v6.047c0 5.535-2.93 9.906-8.059 10.82l-.285.047-.215.2c-.39.355-.882.566-1.441.566s-1.05-.21-1.441-.566l-.215-.2-.285-.047C32.929 49.273 30 44.903 30 39.371v-4.32c0-2.156.652-3.633 1.629-4.754.976-1.125 2.32-1.887 3.71-2.387 2.778-.996 5.626-.91 5.626-.91zM34.5 35a1.5 1.5 0 1 0 0 3 1.5 1.5 0 0 0 0-3zm11 0a1.5 1.5 0 1 0 0 3 1.5 1.5 0 0 0 0-3zM45 51.258v4.996c-.121.242-1.422 2.746-5 2.746-3.578 0-4.879-2.504-5-2.746v-4.992c.762.34 1.57.613 2.438.789.703.566 1.582.949 2.562.949.98 0 1.86-.383 2.563-.95A11.42 11.42 0 0 0 45 51.259zm-12 3.074v2.477l.105.207S35.18 61 40 61c4.82 0 6.895-3.984 6.895-3.984l.105-.207v-2.477c1.68.496 4.848 1.504 8.094 2.953 2.328 1.043 4.636 2.3 6.304 3.664C63.066 62.31 64 63.703 64 65v4H16v-4c0-1.297.934-2.691 2.602-4.05 1.668-1.364 3.976-2.622 6.304-3.665 3.246-1.45 6.414-2.457 8.094-2.953zM20 65c-.55 0-1 .45-1 1s.45 1 1 1 1-.45 1-1-.45-1-1-1zm4 0c-.55 0-1 .45-1 1s.45 1 1 1 1-.45 1-1-.45-1-1-1zm4 0c-.55 0-1 .45-1 1s.45 1 1 1 1-.45 1-1-.45-1-1-1zm4 0c-.55 0-1 .45-1 1s.45 1 1 1 1-.45 1-1-.45-1-1-1zm4 0c-.55 0-1 .45-1 1s.45 1 1 1 1-.45 1-1-.45-1-1-1zm4 0c-.55 0-1 .45-1 1s.45 1 1 1 1-.45 1-1-.45-1-1-1zm4 0c-.55 0-1 .45-1 1s.45 1 1 1 1-.45 1-1-.45-1-1-1zm4 0c-.55 0-1 .45-1 1s.45 1 1 1 1-.45 1-1-.45-1-1-1zm4 0c-.55 0-1 .45-1 1s.45 1 1 1 1-.45 1-1-.45-1-1-1zm4 0c-.55 0-1 .45-1 1s.45 1 1 1 1-.45 1-1-.45-1-1-1zm4 0c-.55 0-1 .45-1 1s.45 1 1 1 1-.45 1-1-.45-1-1-1z"/></svg>