<svg xmlns="http://www.w3.org/2000/svg" viewBox="0 0 50 50"><path d="M24.941.098a1.01 1.01 0 0 0-.753.41l-4.434 6.125-5.2-3.465a1.001 1.001 0 0 0-1.523 1.074l1.785 7.09.184 2.68c-.012.062-1.652 7.8-1.75 10.054-.047 1.133-.152 2.11-.313 2.844-.156.738-.386 1.168-.562 1.32a.98.98 0 0 0-.344.735c0 .687.38 1.328.875 1.738.5.414 1.114.692 1.813.922 1.164.371 2.765.594 4.437.797-.004.047-.023.066-.031.121-.324.766-1.082 1.387-2.313 1.988-1.265.617-2.921 1.192-4.593 1.895-1.668.703-3.387 1.558-4.75 2.906C6.113 40.68 5.152 42.527 5 44.961A.992.992 0 0 0 5.938 46H44c.55 0 1-.438 1-.977v-.062c-.152-2.434-1.117-4.281-2.469-5.629-1.355-1.348-3.058-2.203-4.718-2.906-1.665-.703-3.301-1.278-4.563-1.895-1.227-.601-1.988-1.222-2.313-1.988-.003-.035-.027-.086-.03-.121 1.765-.234 3.437-.547 4.624-.984.715-.262 1.332-.543 1.813-.918.48-.372.906-.91.906-1.618a.99.99 0 0 0-.313-.734c-.128-.113-.382-.55-.53-1.285-.15-.735-.22-1.719-.25-2.848-.063-2.254-2.137-9.965-2.141-10.035h-.004l.375-2.629 1.59-7.152a1.002 1.002 0 0 0-1.531-1.05l-5.2 3.464L25.813.508a1.002 1.002 0 0 0-.872-.41zM25 2.797l4.188 5.789c.316.437.921.543 1.367.246l3.93-2.621-1.063 4.754v.008l-.012.066v.004c0 .008-.004.02-.004.031L33.133 13H16.937l-.125-1.793c.004-.004.004-.008 0-.012 0-.054-.003-.105-.011-.16 0-.008 0-.012-.004-.02v-.007a.454.454 0 0 0-.016-.07l-.004-.02c0-.008-.004-.012-.007-.02l-1.165-4.625 3.84 2.559a1.002 1.002 0 0 0 1.367-.246zM16.8 15h16.458c.387 1.512 1.84 7.023 1.898 9.098.032 1.175.094 2.254.282 3.183a4.8 4.8 0 0 0 .687 1.711c-.023.02 0-.027-.031 0-.227.176-.664.395-1.25.613-1.18.434-2.957.829-5.063 1.04a.98.98 0 0 0-.906 1.007c.012.473.031.922.063 1.254a.877.877 0 0 0 .062.246c.57 1.504 1.89 2.438 3.344 3.149 1.449.715 3.117 1.238 4.683 1.898 1.567.66 3 1.453 4.063 2.508.844.84 1.375 1.95 1.656 3.336H7.25c.285-1.387.813-2.496 1.656-3.336 1.067-1.055 2.524-1.848 4.094-2.508 1.574-.66 3.23-1.183 4.688-1.898 1.457-.711 2.804-1.645 3.375-3.149.03-.078.05-.16.062-.246.055-.597.082-.976.094-1.285a.983.983 0 0 0-.907-1.008c-2.082-.222-3.843-.496-4.968-.86-.559-.179-.938-.394-1.125-.55-.078-.062-.067-.058-.094-.09a4.823 4.823 0 0 0 .781-1.804c.2-.934.297-2.008.344-3.184.086-2.066 1.238-7.605 1.55-9.125z"/></svg>