<svg xmlns="http://www.w3.org/2000/svg" viewBox="0 0 32 32"><path d="M18.969 5c-.996 0-1.79.11-2.532.469-.742.36-1.332.894-2.062 1.625-.48.48-1.766 1.922-3.156 3.5-1.39 1.578-2.824 3.234-3.438 3.937-.418.48-.441 1.2-.125 1.719C6.113 16.805 5 18.273 5 20c0 1.113.477 2.117 1.219 2.844A5.036 5.036 0 0 0 4 27h2c0-1.668 1.332-3 3-3s3 1.332 3 3h2a5.036 5.036 0 0 0-2.219-4.156C12.523 22.117 13 21.114 13 20a3.9 3.9 0 0 0-.75-2.281c.41-.18.773-.434 1.094-.782L14 16.22V19c0 1.352 1.105 2.457 2.469 2.469.508.004.867-.043 1.062-.063.086.078.258.203.469.344.379.25.977.469 1.688.469.738 0 1.316-.301 1.656-.532.125-.082.191-.113.25-.156.093.016.183.035.437.063.344.035.805.05 1.313-.157.488-.199.777-.48.968-.656.192-.176.282-.195.25-.187a4.88 4.88 0 0 1 .594-.032c.34-.003.805-.03 1.313-.28.734-.364 1.531-1.184 1.531-2.376V10.5C28 7.48 25.52 5 22.5 5zm0 2H22.5c1.938 0 3.5 1.563 3.5 3.5v7.406c0 .29-.215.5-.406.594-.082.043-.215.063-.469.063s-.617-.036-1.094.093c-.539.145-.851.465-1.062.657-.211.19-.336.265-.375.28-.016.009-.137.024-.344 0-.207-.023-.426-.093-.813-.093-.41 0-.68.176-.843.281-.164.106-.25.188-.344.25-.184.125-.29.188-.563.188-.335 0-.437-.074-.562-.157-.125-.082-.168-.214-.625-.468-.434-.242-.875-.219-1.156-.188-.282.032-.528.067-.875.063A.456.456 0 0 1 16 19v-7.906l-1.75 1.875-2.375 2.625a1.306 1.306 0 0 1-1.75.156l-.438-.344c.704-.804 1.81-2.082 3.032-3.469 1.386-1.574 2.789-3.132 3.062-3.406.692-.691 1.14-1.058 1.531-1.25.391-.191.801-.281 1.657-.281zM9 18c1.117 0 2 .883 2 2s-.883 2-2 2-2-.883-2-2 .883-2 2-2z"/></svg>