<svg xmlns="http://www.w3.org/2000/svg" viewBox="0 0 26 26"><path d="M6.094 5c-1.082 0-1.989.625-2.532 1.438a.466.466 0 0 0-.03.062l-3.407 6a.995.995 0 0 0 0 1l3.469 5.938c.015.027.047.035.062.062.512.945 1.48 1.5 2.531 1.5H23c1.645 0 3-1.355 3-3V8c0-1.645-1.355-3-3-3zm0 2H23c.555 0 1 .445 1 1v10c0 .555-.445 1-1 1H6.187c-.32 0-.68-.234-.78-.438a.466.466 0 0 0-.032-.062L2.156 13 5.25 7.531l.031-.031c.242-.32.52-.5.813-.5zM6 11.5a1.5 1.5 0 1 0 0 3 1.5 1.5 0 0 0 0-3zm5 0a1.5 1.5 0 1 0 0 3 1.5 1.5 0 0 0 0-3zm5 0a1.5 1.5 0 1 0 0 3 1.5 1.5 0 0 0 0-3zm5 0a1.5 1.5 0 1 0 0 3 1.5 1.5 0 0 0 0-3z"/></svg>