<svg xmlns="http://www.w3.org/2000/svg" viewBox="0 0 64 64"><linearGradient id="a" gradientUnits="userSpaceOnUse" x1="35" y1="39.75" x2="35" y2="46.768" spreadMethod="reflect"><stop offset="0" stop-color="#6dc7ff"/><stop offset=".216" stop-color="#87c1ff"/><stop offset="1" stop-color="#e6abff"/></linearGradient><path d="M34 46h-2v-1c0-2.757 2.243-5 5-5h1v2h-1c-1.654 0-3 1.346-3 3v1z" fill="url(#a)"/><linearGradient id="b" gradientUnits="userSpaceOnUse" x1="32" y1="4" x2="32" y2="60.514" spreadMethod="reflect"><stop offset="0" stop-color="#1a6dff"/><stop offset="1" stop-color="#c822ff"/></linearGradient><path d="M58 32C58 17.664 46.336 6 32 6S6 17.664 6 32s11.664 26 26 26c3.539 0 6.915-.713 9.993-2H42v-.003C51.387 52.071 58 42.794 58 32zm-35-1v1h2V21.5c0-.827.673-1.5 1.5-1.5s1.5.673 1.5 1.5V32h2V18c0-1.103.897-2 2-2s2 .897 2 2v14h2V22c0-1.103.897-2 2-2s2 .897 2 2v15.755a1.97 1.97 0 0 0 1.187 1.823 1.97 1.97 0 0 0 2.147-.348l3.252-2.958a2.003 2.003 0 0 1 2.828 0c.378.378.586.88.586 1.415 0 .534-.208 1.036-.586 1.414l-6.262 6.262A8.949 8.949 0 0 1 36.785 48H25c-2.757 0-5-2.243-5-5V25.5c0-.827.673-1.5 1.5-1.5s1.5.673 1.5 1.5V31zm7 21v3.91a23.9 23.9 0 0 1-2-.25V52h-2v3.24a23.715 23.715 0 0 1-4-1.432v-4.494A6.924 6.924 0 0 0 25 50h11.785A11.03 11.03 0 0 0 40 49.525v5.099a23.745 23.745 0 0 1-4 1.036V52h-2v3.91c-.66.055-1.326.09-2 .09v-4h-2zm12 1.809V48.69a11.041 11.041 0 0 0 2.566-1.913l6.262-6.262A3.973 3.973 0 0 0 52 37.687a3.973 3.973 0 0 0-1.172-2.829c-.755-.755-1.76-1.171-2.828-1.171s-2.073.416-2.794 1.138L42 37.755V22c0-2.206-1.794-4-4-4-.732 0-1.409.212-2 .556V18c0-2.206-1.794-4-4-4s-4 1.794-4 4v.351A3.464 3.464 0 0 0 26.5 18c-1.93 0-3.5 1.57-3.5 3.5v.851A3.464 3.464 0 0 0 21.5 22c-1.93 0-3.5 1.57-3.5 3.5V43c0 1.902.765 3.627 2 4.89v4.881C12.834 48.615 8 40.864 8 32 8 18.767 18.767 8 32 8s24 10.767 24 24c0 9.665-5.747 18.009-14 21.809z" fill="url(#b)"/></svg>