<svg xmlns="http://www.w3.org/2000/svg" viewBox="0 0 48 48"><path d="M43 24c0 10.492-8.508 19-19 19S5 34.492 5 24 13.508 5 24 5s19 8.508 19 19z" fill="#f44336"/><path d="M36.113 23.273c-.922-.566-2.175-.226-2.812.778L31 26.969V13.32c-.004-.75-.746-1.347-1.5-1.34-.758.008-1.512.625-1.5 1.375v9.067a4.819 4.819 0 0 0-1-.32V11.34c-.004-.746-.71-1.348-1.469-1.34-.754.008-1.531.629-1.531 1.375V22h-1v-9.691c-.004-.75-.762-1.325-1.516-1.309-.761.008-1.488.598-1.484 1.348v9.754c-.348.07-.684.183-1 .32v-7.098c-.008-.746-.762-1.347-1.516-1.34-.757.02-1.484.63-1.484 1.387l.047 9.45v.144c-.016.152-.047.3-.047.457V32a5 5 0 0 0 5 5h5c3 0 4.895-2.316 6-4l4.652-6.883c.625-1.004.383-2.27-.539-2.844z" fill="#ffcdd2"/></svg>