<svg xmlns="http://www.w3.org/2000/svg" viewBox="0 0 48 48"><path d="M9 40V8c0-2.2 1.8-4 4-4h16c2.2 0 4 1.8 4 4v32c0 2.2-1.8 4-4 4H13c-2.2 0-4-1.8-4-4z" fill="#37474f"/><path d="M29 7H13c-.602 0-1 .398-1 1v29c0 .602.398 1 1 1h16c.602 0 1-.398 1-1V8c0-.602-.398-1-1-1z" fill="#bbdefb"/><path d="M18 40h6v2h-6z" fill="#78909c"/><path d="M42 11H24a2 2 0 0 0-2 2v18l6-4h14a2 2 0 0 0 2-2V13a2 2 0 0 0-2-2z" fill="#f44336"/><path d="M34 15c0 .55-.45 1-1 1s-1-.45-1-1 .45-1 1-1 1 .45 1 1zm0 8c0 .55-.45 1-1 1s-1-.45-1-1 .45-1 1-1 1 .45 1 1z" fill="#fff"/><path d="M36 21v-3a3 3 0 0 0-6 0v3c0 .55-.45 1-1 1v1h8v-1c-.55 0-1-.45-1-1z" fill="#fff"/></svg>