<svg xmlns="http://www.w3.org/2000/svg" viewBox="0 0 80 80"><path d="M25 8c-2.75 0-5 2.25-5 5v54c0 2.75 2.25 5 5 5h30c2.75 0 5-2.25 5-5V50h-2v10H22V18h36v4h2v-9c0-2.75-2.25-5-5-5zm0 2h30c1.668 0 3 1.332 3 3v3H22v-3c0-1.668 1.332-3 3-3zm11 2a1.006 1.006 0 0 0-.879.496 1.01 1.01 0 0 0 0 1.008c.184.312.52.5.879.496h8c.36.004.695-.184.879-.496a1.01 1.01 0 0 0 0-1.008c-.184-.312-.52-.5-.879-.496zm-4.05 0c-.552 0-1 .45-1 1-.005.55.445 1 .995 1a.98.98 0 0 0 .707-.29c.188-.187.297-.444.297-.71 0-.55-.449-.996-1-1zM26 20c-.55 0-1 .45-1 1s.45 1 1 1 1-.45 1-1-.45-1-1-1zm0 4c-.55 0-1 .45-1 1s.45 1 1 1 1-.45 1-1-.45-1-1-1zm14 1c-1.645 0-3 1.355-3 3v16c0 1.645 1.355 3 3 3h3v5l6.668-5H66c1.645 0 3-1.355 3-3V28c0-1.645-1.355-3-3-3zm0 2h26c.566 0 1 .434 1 1v16c0 .566-.434 1-1 1H49l-4 3v-3h-5c-.566 0-1-.434-1-1V28c0-.566.434-1 1-1zm-14 1c-.55 0-1 .45-1 1s.45 1 1 1 1-.45 1-1-.45-1-1-1zm27 2a1.002 1.002 0 0 0-.984 1.172A2.991 2.991 0 0 0 50 34v2a2 2 0 0 1-2 2v2h4c0 .55.45 1 1 1s1-.45 1-1h4v-2a2 2 0 0 1-2-2v-2c0-1.277-.809-2.41-2.016-2.828A1.002 1.002 0 0 0 53 30zm-27 2c-.55 0-1 .45-1 1s.45 1 1 1 1-.45 1-1-.45-1-1-1zm0 4c-.55 0-1 .45-1 1s.45 1 1 1 1-.45 1-1-.45-1-1-1zm0 4c-.55 0-1 .45-1 1s.45 1 1 1 1-.45 1-1-.45-1-1-1zm0 4c-.55 0-1 .45-1 1s.45 1 1 1 1-.45 1-1-.45-1-1-1zm0 4c-.55 0-1 .45-1 1s.45 1 1 1 1-.45 1-1-.45-1-1-1zm0 4c-.55 0-1 .45-1 1s.45 1 1 1 1-.45 1-1-.45-1-1-1zm0 4c-.55 0-1 .45-1 1s.45 1 1 1 1-.45 1-1-.45-1-1-1zm-4 6h36v5c0 1.668-1.332 3-3 3H25c-1.668 0-3-1.332-3-3zm18 2a1.999 1.999 0 1 0 0 4 1.999 1.999 0 1 0 0-4z"/></svg>