<svg xmlns="http://www.w3.org/2000/svg" viewBox="0 0 40 40"><path d="M11.156 33.5l3.09-4H28c1.93 0 3.5-1.57 3.5-3.5V14.5h-3.453l5.41-6.707 5.488 6.707H35.5V26c0 4.137-3.363 7.5-7.5 7.5z" fill="#dff0fe"/><path d="M33.46 8.586L37.89 14H35v12c0 3.86-3.14 7-7 7H12.176l2.316-3H28c2.207 0 4-1.793 4-4V14h-2.906l4.367-5.414M33.453 7L27 15h4v11a3 3 0 0 1-3 3H14l-3.863 5H28a8 8 0 0 0 8-8V15h4z" fill="#4788c7"/><path d="M1.055 26.5H4.5V15c0-4.137 3.363-7.5 7.5-7.5h16.844l-3.09 4H12c-1.93 0-3.5 1.57-3.5 3.5v11.5h3.453l-5.41 6.707z" fill="#dff0fe"/><path d="M27.824 8l-2.316 3H12c-2.207 0-4 1.793-4 4v12h2.906L6.54 32.414 2.11 27H5V15c0-3.86 3.14-7 7-7h15.824m2.04-1H12a8 8 0 0 0-8 8v11H0l6.547 8L13 26H9V15a3 3 0 0 1 3-3h14z" fill="#4788c7"/></svg>