<svg xmlns="http://www.w3.org/2000/svg" viewBox="0 0 50 50"><path d="M19.875.406c-3.68.067-6.367 1.196-8 3.344-1.934 2.547-2.285 6.395-1.063 11.469-.449.55-.789 1.386-.656 2.5.266 2.203 1.121 3.11 1.844 3.468.344 1.731 1.297 3.676 2.219 4.594v.469c.008 1.016.004 1.895-.094 3.031-.613 1.407-2.648 2.23-5 3.157C5.219 33.972.363 35.87 0 41.938L-.063 43h27.157c1.902 4.121 6.078 7 10.906 7 6.617 0 12-5.383 12-12s-5.383-12-12-12c-4.11 0-7.742 2.059-9.906 5.219-.715-.364-1.297-.758-1.719-1.219a2.462 2.462 0 0 1-.469-.719c-.097-1.136-.07-2.02-.062-3.031v-.469c.894-.914 1.816-2.863 2.156-4.593.723-.364 1.578-1.266 1.844-3.47.133-1.09-.188-1.917-.625-2.468.582-1.98 1.77-7.105-.282-10.406-.859-1.383-2.16-2.254-3.875-2.594-.945-1.191-2.757-1.844-5.187-1.844zM38 28c5.516 0 10 4.484 10 10s-4.484 10-10 10-10-4.484-10-10 4.484-10 10-10zm4.844 5.594l-.625.781-4.844 6.188-3.719-3.313-.75-.656-1.312 1.5.75.656 4.5 4 .781.719.656-.844 5.5-7 .625-.781zm-16.407 1.25c-.066.238-.136.476-.187.718.05-.246.121-.48.188-.718zm-.375 2.031z"/></svg>