<svg xmlns="http://www.w3.org/2000/svg" viewBox="0 0 32 32"><path d="M16 4c-1.941 0-3.75.45-5.375 1.188l.594 1.312 3.219 8.281c-.266.34-.438.758-.438 1.219 0 .164.027.316.063.469L8.25 22.25a9.877 9.877 0 0 1-.625-.875l-1.688 1.063C8.04 25.745 11.793 28 16 28c6.594 0 12-5.406 12-12S22.594 4 16 4zm0 2c5.172 0 9.438 3.957 9.938 9h-8.22a1.97 1.97 0 0 0-1.405-.969l-1.532-3.906a5.99 5.99 0 0 1 3.875.5l.875-1.813A7.938 7.938 0 0 0 16 8c-.668 0-1.313.098-1.938.25l-.75-1.906C14.172 6.12 15.06 6 16 6zM8.687 8.531c-.136 2.348-2.203.555-3.03 2.625.413 2.07 2.905 3.719 2.905 3.719S5.04 13.82 4.626 11.75C1.398 10.234 0 13.219 0 13.219s3.027-.977 4.563 3.469c1.09 3.152 4.3 2.539 5.656 1.25 1.36-1.29.96-3.477-.281-4.72.277-1.105.683-2.476-1.25-4.687zM17.72 17h4.187A5.97 5.97 0 0 1 16 22v2c4.066 0 7.438-3.066 7.938-7h2c-.5 5.043-4.766 9-9.938 9-2.39 0-4.59-.91-6.313-2.344l5.75-5.75c.18.055.368.094.563.094.738 0 1.371-.402 1.719-1z"/></svg>