<svg xmlns="http://www.w3.org/2000/svg" viewBox="0 0 50 50"><path d="M30 0a19.928 19.928 0 0 0-17.75 10.844 11.057 11.057 0 0 0-2.438-1.469c-.37-.168-.832-.066-1.124.219a.99.99 0 0 0-.22 1.094c.31.73.2.835-.75 1.5-.878.613-2.113 1.484-2.25 3.374-4.312.356-5.39 6.004-5.437 6.25a1 1 0 0 0 .344.97c.29.23.695.273 1.031.124.012-.004 1.008-.406 2.407-.406 1.722 0 3.261.617 4.593 1.844a6.32 6.32 0 0 0 2.438 1.375C13.316 34.125 21.19 40 30 40c11.027 0 20-8.973 20-20S41.027 0 30 0zm-9 6l1.563 2.156A13.86 13.86 0 0 1 30 6v2c-2.23 0-4.371.621-6.25 1.781l1.688 2.313c.957-.524 1.855-.781 2.75-.781v2c-.5 0-.993.12-1.563.406l2.5 3.437A2.82 2.82 0 0 1 30 17c1.305 0 2.398.836 2.813 2h13v2h-1.876a14.015 14.015 0 0 1-5.624 10.313l-1.22-1.625c2.84-2.13 4.563-5.25 4.844-8.688h-2c-.269 2.352-1.484 4.465-3.437 5.906l-1.188-1.625A6.477 6.477 0 0 0 37.907 21h-5.093A2.985 2.985 0 0 1 30 23a3.07 3.07 0 0 1-.688-.094l-6.156 9.938-1.718-1.063 2.375-3.843c-.872-.594-1.915-1.415-2.782-2.5l1.563-1.25c.566.71 1.355 1.421 2.281 2.062l2.75-4.438A2.935 2.935 0 0 1 27 20c0-.613.184-1.18.5-1.656L19.406 7.187zm-10.5 6.031c.434.293.777.606 1.063.906.953 1.012 1.16 2.047 1.343 2.97.067.34.332.597.656.718 1.11.418 2.145 1.457 2.657 2.625.347.797.394 1.578.156 2.156-.723 1.63-2.117 2.594-3.75 2.594-.594 0-1.18-.156-1.719-.406-.406-.188-.785-.407-1.125-.719C8.09 21.316 6.023 20.5 3.812 20.5a9.38 9.38 0 0 0-1.343.094c.558-1.375 1.664-3.078 3.594-3 1.359 1.418 3.515 1.847 5.093 1.968.406.032.793.063 1.094.063.477 0 .793-.027.844-.031A.978.978 0 0 0 14 18.53c-.047-.55-.559-.984-1.094-.937-.37.031-.957.054-1.625 0-1.332-.106-2.949-.489-3.812-1.438-.09-1.265.543-1.707 1.406-2.312.578-.406 1.332-.953 1.625-1.813zM25 41.406V44h-4c-2.242 0-4 1.758-4 4v2h26v-2c0-2.242-1.758-4-4-4h-4v-2.594A21.952 21.952 0 0 1 30 42c-1.71 0-3.383-.21-5-.594z"/></svg>