<svg xmlns="http://www.w3.org/2000/svg" viewBox="0 0 26 26"><path d="M2 4v1.156c-.43.125-.824.313-1.156.657C.258 6.418 0 7.304 0 8.313c0 1.906 1.027 3.39 2.438 3.812.605 3.316 2.12 6.191 4.03 8.25C8.524 22.585 10.856 24 13 24c2.145 0 4.512-1.41 6.594-3.625 1.941-2.063 3.48-4.945 4-8.281.617-.203 1.18-.547 1.562-1.063.547-.734.844-1.672.844-2.719 0-1.007-.258-1.894-.844-2.5-.332-.343-.726-.53-1.156-.656V4h-2v2c0 .55.45 1 1 1 .434 0 .605.098.719.219.113.12.281.402.281 1.093 0 .653-.184 1.192-.438 1.532-.253.34-.511.469-.75.469a.998.998 0 0 0-1 .874c-.324 3.145-1.835 5.88-3.656 7.813-1.82 1.934-4 3-5.156 3-1.156 0-3.266-1.031-5.063-2.969-1.796-1.937-3.332-4.71-3.75-7.875a.998.998 0 0 0-1-.844c-.199 0-1.187-.644-1.187-2 0-.69.168-.972.281-1.093C2.395 7.098 2.566 7 3 7c.55 0 1-.45 1-1V4zm7 0a1.999 1.999 0 1 0 0 4 1.999 1.999 0 1 0 0-4zm8 0a1.999 1.999 0 1 0 0 4 1.999 1.999 0 1 0 0-4zm-8.188 8l-.906 2 2.313 1-2.313 1 .907 2 9.28-4-.905-2-4.157 1.781zm8 3.406L14 16.594 17.188 18l.906-2z"/></svg>