<svg xmlns="http://www.w3.org/2000/svg" viewBox="0 0 24 24"><path d="M3 4c0 .73-.02 2.504 0 2.781-.71.524-1 1.387-1 2.344 0 1.234.516 1.93.938 2.281.343.29.718.422 1.062.5C4.367 16.441 7.355 21 12 21s7.633-4.559 8-9.094c.348-.078.719-.21 1.063-.5.421-.355.937-1.047.937-2.281 0-.957-.29-1.82-1-2.344.02-.277 0-2.05 0-2.781h-2v4s1 .14 1 1.125c0 1.273-2 .875-2 .875v1c0 3.238-1.879 8-6 8s-6-4.762-6-8v-1s-2 .398-2-.875C4 8.141 5 8 5 8V4zm6.5 2a1.5 1.5 0 1 0 0 3 1.5 1.5 0 0 0 0-3zm5 0a1.5 1.5 0 1 0 0 3 1.5 1.5 0 0 0 0-3zm-5.25 4.156l-1.031 1.688 1.406.875 1.906-1.188zm5.688 0l-6.72 4.156L9.25 16 16 11.844zm-.344 3.281l-1.906 1.157L14.938 16 16 14.312z"/></svg>