<svg xmlns="http://www.w3.org/2000/svg" viewBox="0 0 50 50"><path d="M25 .781l-.938 2.406-5.437 14.157-15.188.843-2.593.125 2.031 1.625 11.781 9.594-3.906 14.657-.656 2.5 2.156-1.407L25 37.031l12.75 8.25 2.156 1.407-.656-2.5-3.906-14.657 11.781-9.593 2.031-1.625-2.593-.125-15.188-.844-5.438-14.157zm0 5.563l4.75 12.343.25.594.656.032 13.219.718-10.281 8.344-.5.406.156.625 3.375 12.75L25.531 35 25 34.656l-.531.344-11.094 7.156 3.375-12.75.156-.625-.5-.406-10.281-8.344 13.219-.718.656-.032.25-.593z"/></svg>