<svg xmlns="http://www.w3.org/2000/svg" viewBox="0 0 80 80"><path d="M40.063 7C21.848 6.965 7.035 21.723 7 39.938 6.965 58.151 21.723 72.965 39.938 73 58.151 73.035 72.965 58.277 73 40.062 73.035 21.849 58.277 7.035 40.062 7zm-.004 2C57.19 9.031 71.03 22.926 71 40.059 70.969 57.19 57.074 71.03 39.941 71 22.81 70.969 8.97 57.074 9 39.941 9.031 22.81 22.926 8.97 40.059 9zm0 3a1 1 0 1 0-.008 2 1 1 0 0 0 .008-2zm-5.266.512a.665.665 0 0 0-.2.02.997.997 0 1 0 .387 1.956.997.997 0 0 0-.187-1.976zm10.55.02a.993.993 0 0 0-1.003.8.999.999 0 1 0 1.957.395.999.999 0 0 0-.781-1.18 1.222 1.222 0 0 0-.172-.016zm-15.616 1.503c-.133 0-.266.027-.391.074a1 1 0 0 0-.543 1.309.997.997 0 0 0 1.305.543.997.997 0 0 0 .543-1.305 1.006 1.006 0 0 0-.914-.62zm20.68.043a1.001 1.001 0 0 0-.95.613 1 1 0 0 0 0 .766.98.98 0 0 0 .54.543 1 1 0 0 0 .765 0 .98.98 0 0 0 .543-.54 1 1 0 0 0-.54-1.304.889.889 0 0 0-.359-.078zM25.058 16.52c-.204 0-.399.058-.57.168-.458.308-.583.93-.274 1.39a1 1 0 0 0 1.66-1.11 1.008 1.008 0 0 0-.816-.448zm30.003.058a.993.993 0 0 0-.847.442.998.998 0 0 0 1.023 1.539.999.999 0 0 0 .363-1.809.98.98 0 0 0-.538-.172zm-34.097 3.293a1.025 1.025 0 0 0-.727.29c-.39.39-.39 1.023 0 1.417a1 1 0 0 0 1.414 0c.391-.39.391-1.023.004-1.414a1.01 1.01 0 0 0-.691-.293zm38.18.078a.99.99 0 0 0-.723.29 1 1 0 0 0 .707 1.706.98.98 0 0 0 .707-.289c.39-.39.39-1.023.004-1.418a1.009 1.009 0 0 0-.695-.289zm-41.543 4.004c-.34-.004-.66.16-.852.442a1.01 1.01 0 0 0-.152.753c.05.258.207.489.425.637a.993.993 0 0 0 1.387-.273 1 1 0 0 0-.808-1.559zm44.894.094a.996.996 0 0 0-.848 1.55.997.997 0 0 0 1.383.282 1 1 0 0 0-.535-1.832zm-23.246 2.68c-8.453 0-14.25 5.812-14.25 14.28 0 8.673 5.68 14.266 14.535 14.27 2.035 0 3.988-.277 5.461-.757v-2.426c-1.027.426-3.184.718-5.34.718-7.304 0-11.988-4.57-11.988-11.718 0-6.996 4.738-11.938 11.39-11.938 6.723 0 11.27 4.137 11.27 10.328 0 3.887-1.281 6.38-3.297 6.38-1.164 0-1.812-.716-1.812-1.91V34.34h-2.91v2.066h-.29c-.667-1.504-2.19-2.426-3.988-2.426-3.488 0-5.879 2.891-5.879 7.047 0 4.325 2.375 7.235 5.934 7.235 2.004 0 3.488-.942 4.207-2.668h.289c.273 1.656 1.832 2.77 3.887 2.77 4 0 6.531-3.473 6.531-8.981 0-7.492-5.625-12.656-13.75-12.656zm-24.152 1.89A.997.997 0 0 0 14.152 30c.098.242.293.438.54.543A1.004 1.004 0 0 0 16 29.234a1.026 1.026 0 0 0-.543-.543 1.018 1.018 0 0 0-.36-.074zm49.875.102zm-51.414 4.96a1 1 0 1 0-.061 2 1 1 0 0 0 .06-2zm52.941.11a1.008 1.008 0 0 0-.84.441 1.001 1.001 0 0 0 1.027 1.54c.54-.106.891-.633.786-1.176a1.003 1.003 0 0 0-.973-.805zm-27.832 2.926c2.137 0 3.504 1.676 3.504 4.379 0 2.703-1.367 4.414-3.54 4.414-2.07 0-3.335-1.66-3.335-4.414 0-2.754 1.25-4.38 3.371-4.38zM13 38.945a1 1 0 1 0 0 2 1 1 0 0 0 0-2zm54 .106c-.55 0-.996.449-1 1 0 .55.45 1 1 1 .55.004 1-.446 1-.996a.98.98 0 0 0-.29-.707 1.012 1.012 0 0 0-.71-.297zm-53.488 5.168a.857.857 0 0 0-.2.015 1 1 0 0 0-.785 1.176.997.997 0 0 0 1.172.79c.543-.11.895-.634.79-1.177a.995.995 0 0 0-.977-.804zm52.984.097a1 1 0 1 0 .172.02 1.286 1.286 0 0 0-.172-.02zm-51.453 4.97c-.133 0-.266.023-.39.073a1.006 1.006 0 0 0-.544.54 1.01 1.01 0 0 0 0 .769 1 1 0 0 0 1.305.54.993.993 0 0 0 .543-1.302.994.994 0 0 0-.914-.62zm49.902.097A.99.99 0 0 0 64 50a.995.995 0 0 0 .535 1.305 1.001 1.001 0 0 0 .774-1.848 1.058 1.058 0 0 0-.364-.074zm-47.414 4.574a.962.962 0 0 0-.562.168 1 1 0 1 0 .563-.168zm44.91.086a1 1 0 1 0 .535.168 1.007 1.007 0 0 0-.535-.168zm-41.554 4.012a1.016 1.016 0 0 0-.723.289 1.01 1.01 0 0 0-.004 1.418c.39.39 1.024.39 1.418 0a1 1 0 0 0-.691-1.707zm38.183.074a1.003 1.003 0 0 0-.726 1.707c.39.39 1.023.39 1.418.004a1.004 1.004 0 0 0-.692-1.711zm-34.093 3.289c-.34-.008-.66.16-.852.441a1.005 1.005 0 0 0 .277 1.391.996.996 0 0 0 1.383-.277.994.994 0 0 0-.27-1.383.99.99 0 0 0-.538-.172zm29.992.066a.996.996 0 0 0-.844 1.55.996.996 0 0 0 1.387.278c.457-.304.582-.925.277-1.386a.988.988 0 0 0-.82-.442zM29.64 63.922a1 1 0 1 0 .898.621A.98.98 0 0 0 30 64a1.022 1.022 0 0 0-.36-.078zm20.648.047a1.002 1.002 0 0 0-.934.613 1.006 1.006 0 0 0 .54 1.309 1 1 0 0 0 .765 0 .993.993 0 0 0 .543-1.301.994.994 0 0 0-.914-.621zm-15.582 1.5a1 1 0 1 0-.055 2 1 1 0 0 0 .055-2zm10.512.027a1.008 1.008 0 0 0-.836.441.984.984 0 0 0-.149.75.997.997 0 0 0 1.172.79c.543-.106.895-.633.79-1.176a1.004 1.004 0 0 0-.977-.805zm-5.27.504c-.55 0-1 .45-1 1-.004.55.446 1 .996 1a.98.98 0 0 0 .707-.29c.188-.187.297-.444.297-.71 0-.55-.449-.996-1-1z"/></svg>