<svg xmlns="http://www.w3.org/2000/svg" viewBox="0 0 48 48"><path d="M40.977 22.89c-.149 3.473-1.008 6.227-2.575 8.266-1.562 2.043-3.668 3.063-6.312 3.063-1.164 0-2.172-.254-3.02-.754-.847-.5-1.484-1.219-1.922-2.153-1.355 1.895-3.125 2.844-5.304 2.844-1.98 0-3.512-.832-4.598-2.5-1.082-1.668-1.488-3.87-1.219-6.605.243-2.238.813-4.23 1.7-5.973.886-1.738 2.007-3.078 3.363-4.012 1.355-.937 2.82-1.406 4.39-1.406 1.942 0 3.594.45 4.961 1.348l1.282.87-1.035 11.75c-.137 1.071-.016 1.892.355 2.462.371.57.965.851 1.777.851 1.25 0 2.293-.726 3.133-2.183.84-1.457 1.3-3.363 1.383-5.727.23-4.73-.723-8.367-2.856-10.906-2.136-2.54-5.296-3.813-9.484-3.813-2.617 0-4.95.665-6.992 1.993-2.05 1.332-3.664 3.218-4.84 5.664-1.18 2.445-1.848 5.25-1.996 8.406-.215 4.8.746 8.512 2.89 11.133 2.141 2.62 5.344 3.933 9.618 3.933a17.8 17.8 0 0 0 3.535-.375c1.234-.254 2.3-.59 3.191-1.007l.774 3.129c-.828.542-1.942.984-3.348 1.316a18.284 18.284 0 0 1-4.234.496c-3.582 0-6.63-.723-9.153-2.164-2.52-1.445-4.402-3.57-5.64-6.387-1.239-2.812-1.778-6.172-1.617-10.07.164-3.746 1.015-7.098 2.562-10.067 1.543-2.968 3.649-5.261 6.313-6.878C18.723 5.812 21.727 5 25.074 5c3.403 0 6.332.73 8.785 2.188 2.453 1.453 4.29 3.539 5.508 6.25 1.223 2.71 1.758 5.863 1.61 9.453zm-20.434 2.157c-.152 1.789.008 3.148.469 4.074.457.93 1.203 1.399 2.234 1.399.664 0 1.293-.293 1.89-.88.598-.581 1.094-1.421 1.485-2.519l.856-9.617a5.137 5.137 0 0 0-1.63-.266c-1.558 0-2.769.664-3.628 1.992-.86 1.329-1.418 3.27-1.676 5.817z" fill="#2196f3"/></svg>