<svg xmlns="http://www.w3.org/2000/svg" viewBox="0 0 50 50"><path d="M9.188-.031c-4.836 0-7.829 2.82-8.657 8.125l-.5 1.844c-.093.359.008.75.281 1 .29.261 7.25 6.5 21.407 10.718.035.008.058.024.093.032 2.836.535 5.336.812 7.407.812.199 0 .386-.027.562-.031l-.281.468c-.422.844-.176 1.88.656 2.5l10.094 6.407c.027.02.063.047.094.062.273.137.597.188.906.188.617 0 1.172-.282 1.438-.688l1.468-1.843c.098-.114 2.399-2.864 3.75-5.875 1.23-2.868 1.88-6.063 2.188-8.22.14-.831-.102-1.702-.625-2.374-.532-.688-1.313-1.121-2.125-1.188-4.602-.62-10.485-2.808-12.375-9.687-.297-1.04-1.29-1.75-2.438-1.75a2.82 2.82 0 0 0-.375.031c-1.187.191-3.023.727-4.937 1.281-2.063.598-4.375 1.258-5.438 1.313-.484 0-1.82-.453-3.093-.906-2.618-.93-6.192-2.22-9.5-2.22zM12.28 21.53c-1.84.028-3.219.664-4.125 1.844-1.203 1.57-1.426 3.977-.656 7.156a2.678 2.678 0 0 0-.406 1.813c.203 1.543.808 2.226 1.343 2.531.34 1.195 1.137 2.43 1.782 3.094.004.183-.008.351 0 .531.02.535.043 1.035 0 1.625-.469.813-1.895 1.34-3.406 1.906C4.059 43.066.28 44.496 0 48.938A1.015 1.015 0 0 0 1 50h26a.978.978 0 0 0 .719-.313c.187-.203.3-.476.281-.75-.281-4.417-4.004-5.84-6.719-6.874-1.492-.57-2.914-1.106-3.312-1.907-.047-.597-.02-1.113 0-1.656.008-.176.027-.348.031-.531.656-.657 1.418-1.856 1.75-3.094.531-.309 1.137-1.023 1.344-2.563a2.61 2.61 0 0 0-.375-1.75c.574-1.855 1.332-5.164-2.938-6.78-.636-1.005-1.863-1.735-3.5-2.063-.71-.121-1.386-.196-2-.188z"/></svg>