<svg xmlns="http://www.w3.org/2000/svg" viewBox="0 0 32 32"><path d="M18.125 5c-3.305 0-7.164.547-10.156 3.563C4.977 11.578 3 16.867 3 26v1h9.656c.989.625 2.102 1 3.344 1 1.238 0 2.355-.383 3.344-1H29v-1c0-8.125-1.57-12.844-3.625-15.594-1.809-2.422-3.89-3.094-5.438-3.25L19 5.5l-.281-.5zm-.563 2.063l.813 1.437.281.5h.594c1.012 0 2.848.34 4.531 2.594 1.602 2.144 3.02 6.238 3.157 13.406h-5.375c.109-.14.21-.293.312-.438C23.235 22.625 24 20.207 24 18h-2c0 1.723-.645 3.828-1.75 5.406C19.145 24.984 17.664 26 16 26c-1.664 0-3.145-1.012-4.25-2.594C10.645 21.824 10 19.711 10 18c0-1.203.336-1.59 1.031-1.969.696-.379 1.852-.586 3.094-.75 1.242-.164 2.578-.285 3.75-.844C19.047 13.88 20 12.66 20 11h-2c0 1.043-.297 1.29-1 1.625-.703.336-1.867.52-3.125.688-1.258.167-2.602.324-3.781.968C8.914 14.926 8 16.234 8 18c0 2.2.77 4.59 2.125 6.531.11.157.223.317.344.469H5.063c.152-8.137 1.945-12.648 4.312-15.031 2.32-2.34 5.273-2.848 8.188-2.906zm-6 9.093l-1.124 1.688 1.593 1.062c-.004.035-.031.059-.031.094 0 .55.45 1 1 1s1-.45 1-1l.563-.844zm8.876 0l-3 2L18 19c0 .55.45 1 1 1s1-.45 1-1c0-.035-.027-.059-.031-.094l1.593-1.062zM14.5 21c-.824 0-1.5.676-1.5 1.5v1c0 .281.219.5.5.5h4.969c.285 0 .531-.219.531-.5v-1.063A1.44 1.44 0 0 0 17.562 21z"/></svg>