<svg xmlns="http://www.w3.org/2000/svg" viewBox="0 0 48 48"><path d="M35 45s-6-2-11-2-11 2-11 2V33h22z" fill="#4e342e"/><path d="M14 29a4 4 0 1 1-8 0 4 4 0 0 1 8 0m28 0a4 4 0 1 1-8 0 4 4 0 0 1 8 0" fill="#ffa726"/><path d="M38 19c0-12.727-28-8.285-28 0v9c0 8.285 6.27 15 14 15s14-6.715 14-15z" fill="#ffb74d"/><path d="M24 5C15.496 5 3 10 2.875 37L13 45V24l16.75-9L35 22v23l10-8c0-12-.543-29-15-29l-2-3z" fill="#795548"/><path d="M30 36.805c0 3.222-2.688 1.945-6 1.945-3.316 0-6 1.277-6-1.945v-.973C18 32.609 20.813 31 24 31c3.184 0 6 1.61 6 4.832z" fill="#c62828"/><path d="M18.754 33h10.492c-1.039-1.793-3.027-2-5.246-2-2.219 0-4.207.207-5.246 2" fill="#eceff1"/><path d="M33 23v2.336a2.582 2.582 0 0 1-2.582 2.582 2.567 2.567 0 0 1-2.418-1.7zm-18 0v2.336a2.582 2.582 0 0 0 2.582 2.582 2.571 2.571 0 0 0 2.418-1.7z" fill="#784719"/></svg>