<svg xmlns="http://www.w3.org/2000/svg" viewBox="0 0 16 16"><path d="M10 7.5c0 .277-.223.5-.5.5a.498.498 0 0 1-.5-.5.499.499 0 1 1 1 0z"/><path d="M8 14c-1.71 0-3.523-1.738-4.254-4.016-.086.008-.168.016-.246.016C2.598 10 2 8.797 2 8c0-.605.367-1.133.898-1.363-.16-1.922.164-3.27 1-4.207C4.758 1.469 6.098 1 8 1l3.254.012.8.004-.742 1.5c1.88.941 1.895 3.011 1.793 4.125.528.23.895.757.895 1.359 0 .797-.598 2-1.5 2-.078 0-.164-.008-.246-.016C11.484 12.297 9.688 14 8 14zM4.434 8.809l.175.566C5.18 11.543 6.824 13 8 13c1.172 0 2.816-1.457 3.39-3.629l.169-.562.468.113c.227.058.395.078.473.078.16-.02.5-.59.5-1a.49.49 0 0 0-.469-.488L12 7.48l.066-.527c.258-2.14-.218-3.25-1.597-3.707l-.547-.18.523-1.058L8 2c-1.602 0-2.695.355-3.355 1.094-.696.781-.922 2.008-.711 3.863l.062.52-.527.035A.49.49 0 0 0 3 8c0 .41.34.98.5 1 .04 0 .188-.008.473-.078z"/><path d="M5 6V5c4.2 0 5.121-2.305 5.156-2.402l.942.343C11.05 3.066 9.94 6 5 6zm5.273.023l.707.707-1.125 1.125-.707-.707zM7 7.5c0 .277-.223.5-.5.5a.498.498 0 0 1-.5-.5.499.499 0 1 1 1 0z"/><path d="M5.727 6.023l1.125 1.125-.707.707L5.02 6.73zM9 11H7v-1c0-.55.45-1 1-1s1 .45 1 1z"/></svg>