<svg xmlns="http://www.w3.org/2000/svg" viewBox="0 0 50 50"><path d="M7 2c-.832 0-1.55.387-2.082.918C4.387 3.449 4 4.168 4 5v13.07c0 1.867.21 3.047.648 3.961.442.914 1.043 1.438 1.594 2.043 1.07 1.278 7.38 8.836 7.758 9.29V36c-.004.36.184.695.496.879.313.18.695.18 1.008 0 .312-.184.5-.52.496-.879v-3a.989.989 0 0 0-.234-.64s-6.93-8.305-8.02-9.602c-.008-.012-.02-.02-.027-.031-.621-.684-1.012-1.032-1.266-1.567C6.195 20.63 6 19.785 6 18.07V5c0-.168.113-.45.332-.668C6.551 4.113 6.832 4 7 4c.168 0 .45.113.668.332.219.219.332.5.332.668v12a1 1 0 0 0 .293.707l.98.98c.059.758.45 1.45 1.02 2.02.312.313 3.937 3.89 5.992 5.992.25.262.617.371.969.281a.991.991 0 0 0 .723-.703 1.002 1.002 0 0 0-.262-.976c-2.082-2.13-5.774-5.774-6.008-6.008-.383-.383-.457-.625-.457-.793 0-.168.074-.41.457-.793.383-.383.625-.457.793-.457.168 0 .41.074.793.457.46.461 5.5 5.488 5.992 5.992l.016.016C21.305 25.675 22 27.477 22 31v4c-.004.36.184.695.496.879.313.18.695.18 1.008 0 .312-.184.5-.52.496-.879v-4c0-3.828-.984-6.45-3.3-8.715-.61-.62-5.544-5.543-5.993-5.992-.617-.617-1.375-1.043-2.207-1.043-.832 0-1.59.426-2.207 1.043-.098.098-.184.207-.273.316l-.02-.023V5c0-.832-.387-1.55-.918-2.082C8.551 2.387 7.832 2 7 2zm36 0c-.832 0-1.55.387-2.082.918C40.387 3.449 40 4.168 40 5v11.586l-.02.023c-.09-.109-.175-.218-.273-.316-.617-.617-1.375-1.043-2.207-1.043-.832 0-1.59.426-2.207 1.043-.45.45-5.383 5.371-5.992 5.992C26.984 24.551 26 27.172 26 31v3c-.004.36.184.695.496.879.313.18.695.18 1.008 0 .312-.184.5-.52.496-.879v-3c0-3.523.695-5.324 2.7-7.285l.015-.016c.492-.504 5.531-5.531 5.992-5.992.383-.383.625-.457.793-.457.168 0 .41.074.793.457.383.383.457.625.457.793 0 .168-.074.41-.457.793-.234.234-3.926 3.879-6.008 6.008a1.002 1.002 0 0 0-.262.976.991.991 0 0 0 .723.703c.352.09.719-.02.969-.28 2.055-2.102 5.68-5.68 5.992-5.993.57-.57.961-1.262 1.02-2.02l.98-.98A1 1 0 0 0 42 17V5c0-.168.113-.45.332-.668.219-.219.5-.332.668-.332.168 0 .45.113.668.332.219.219.332.5.332.668v13.07c0 1.715-.195 2.559-.453 3.09-.254.535-.645.883-1.266 1.567-.008.011-.02.02-.027.03-1.09 1.298-8.02 9.602-8.02 9.602a1 1 0 1 0 .586 1.648.996.996 0 0 0 .946-.366s6.89-8.254 7.996-9.567c.547-.605 1.148-1.129 1.586-2.043.441-.914.652-2.093.652-3.96V5c0-.832-.387-1.55-.918-2.082C44.551 2.387 43.832 2 43 2zm-5.953 34a.832.832 0 0 0-.172.008l-24 3a1 1 0 0 0-.809.601 1.003 1.003 0 0 0 1.059 1.383l24-3A.999.999 0 1 0 37.047 36zm0 3.5a.832.832 0 0 0-.172.008l-24 3a1 1 0 0 0-.809.601 1.003 1.003 0 0 0 1.059 1.383l24-3a.999.999 0 1 0-.078-1.992zm0 3.5a.832.832 0 0 0-.172.008l-24 3a1 1 0 0 0-.809.601 1.003 1.003 0 0 0 1.059 1.383l24-3A.999.999 0 1 0 37.047 43z"/></svg>