<svg xmlns="http://www.w3.org/2000/svg" viewBox="0 0 40 40"><path d="M20.023 38.5c-5.515 0-10.027-1.668-13.414-4.953C3.22 30.257 1.5 25.898 1.5 20.594c0-5.461 1.8-10.059 5.348-13.66C10.395 3.328 14.984 1.5 20.488 1.5 34.734 1.5 38.5 12.281 38.5 17.984c0 3.578-.914 6.563-2.723 8.868C33.883 29.273 31.602 30.5 29 30.5c-2.89 0-4.668-1.36-5.219-3.965-1.297 2.602-3.41 3.965-6.187 3.965-4.899 0-7.094-4.414-7.094-8.79 0-3.6.816-6.398 2.5-8.542 1.914-2.434 4.32-3.668 7.156-3.668 1.965 0 3.356 1.055 4.164 2.043.035-.496.078-1.05.125-1.59l.043-.453h3.785l-.046.543c-.68 7.844-1.036 12.55-1.043 12.793 0 3.219 1.03 3.664 2.148 3.664 3.902 0 5.168-5.727 5.168-8.5 0-3.762-1.242-6.813-3.8-9.328C28.44 6.449 25.335 5.5 20.312 5.5c-4.754 0-8.016 1.203-10.575 3.902C6.926 12.372 5.5 16.09 5.5 20.461c0 4.293 1.352 7.832 4.016 10.512 2.43 2.437 5.738 3.527 10.73 3.527 3.371 0 6.852-.715 9.547-1.953l.707-.328V36.3l-.266.14c-2.57 1.368-6.007 2.059-10.21 2.059zm.024-25c-1.64 0-2.938.738-3.961 2.266-1.055 1.562-1.586 3.543-1.586 5.886 0 1.535.344 2.75 1.02 3.606.656.836 1.507 1.242 2.609 1.242 1.633 0 2.894-.773 3.86-2.36 1.003-1.644 1.511-3.878 1.511-6.632 0-2.735-1.098-4.008-3.453-4.008z" fill="#dff0fe"/><path d="M20.488 2C33.938 2 38 12.063 38 17.984c0 3.477-.871 6.332-2.617 8.563C33.637 28.773 31.508 30 29 30c-3.254 0-4.887-1.852-4.902-5.328h-.11C22.902 28.148 20.773 30 17.594 30 12.625 30 11 25.207 11 21.71c0-3.304.68-6.046 2.395-8.233C15.109 11.293 17.363 10 20.156 10c2.703 0 4.242 2.23 4.477 3.05h.09c.03-.41.101-1.777.222-3.05h2.785c-.699 8.055-1.046 12.684-1.046 12.828 0 3.027.882 4.172 2.652 4.172C33.707 27 35 20.719 35 18c0-4.02-1.367-7.145-3.95-9.688C28.466 5.77 24.888 5 20.313 5c-4.41 0-8.054 1.02-10.937 4.059C6.492 12.102 5 15.899 5 20.46c0 4.484 1.422 8.11 4.16 10.863C11.902 34.078 15.598 35 20.246 35c3.668 0 7.156-.8 9.754-2v3c-2.668 1.418-6.133 2-9.977 2-5.406 0-9.761-1.605-13.066-4.813C3.652 29.98 2 25.782 2 20.595c0-5.352 1.734-9.785 5.203-13.309C10.668 3.762 15.098 2 20.488 2m-2.36 25c1.802 0 3.235-.867 4.29-2.602 1.055-1.73 1.582-4.03 1.582-6.894 0-3-1.316-4.504-3.953-4.504-1.805 0-3.262.828-4.375 2.484C14.559 17.141 14 19.195 14 21.652c0 1.657.375 2.961 1.125 3.918.75.953 1.75 1.43 3.004 1.43m2.36-26c-5.641 0-10.352 1.879-14 5.582C2.847 10.282 1 14.996 1 20.594c0 5.445 1.77 9.922 5.262 13.312C9.742 37.286 14.372 39 20.023 39c4.286 0 7.801-.71 10.446-2.117l.531-.281v-5.164l-1.418.656C26.949 33.304 23.547 34 20.246 34c-4.848 0-8.05-1.043-10.375-3.383C7.301 28.035 6 24.617 6 20.461c0-4.238 1.379-7.844 4.102-10.715C12.559 7.156 15.707 6 20.312 6c4.88 0 7.88.906 10.036 3.027C32.805 11.445 34 14.383 34 18c0 2.508-1.176 8-4.664 8-.66 0-1.652 0-1.652-3.172.011-.27.367-4.933 1.043-12.742L28.82 9h-4.785l-.086.906c-.015.168-.031.336-.043.504-.93-.785-2.203-1.41-3.75-1.41-2.957 0-5.566 1.336-7.547 3.86C10.852 15.097 10 17.991 10 21.71c0 4.626 2.348 9.29 7.594 9.29 1.93 0 4.34-.625 6.05-3.21C24.497 29.882 26.325 31 29 31c2.762 0 5.176-1.293 7.172-3.84C38.047 24.762 39 21.676 39 17.984 39 11.156 34.07 1 20.488 1zm-2.36 25c-.95 0-1.656-.332-2.219-1.05-.605-.766-.91-1.88-.91-3.298 0-2.242.504-4.129 1.5-5.609.926-1.375 2.086-2.043 3.547-2.043 1.46 0 2.953.414 2.953 3.504 0 2.668-.484 4.808-1.438 6.375C20.695 25.309 19.57 26 18.13 26z" fill="#4788c7"/></svg>