<svg xmlns="http://www.w3.org/2000/svg" viewBox="0 0 16 16"><path d="M5.5 1A2.507 2.507 0 0 0 3 3.5V6H1.594c-.035-.008-.067-.008-.102-.008A.479.479 0 0 0 1.418 6H.5a.5.5 0 1 0 0 1H1v4.5a.5.5 0 1 0 1 0V7h1v1.125h1v-.531c.348-1.02.703-1.93 1.258-2.555C5.832 4.402 6.598 4 8 4s2.168.402 2.738 1.04c.242.269.442.6.621.96H9c-1.133 0-1.578-.32-1.793-.57C6.992 5.176 7 4.988 7 4.988l-1 .024s.023.562.445 1.058C6.863 6.57 7.668 7 9 7h2v1c0 1.984-.531 3.242-1.18 4H9.8v.02c-.613.71-1.331.98-1.8.98-.512 0-1.281-.383-1.898-1.219C5.48 10.945 5 9.676 5 8H4c0 1.66.438 2.996 1.066 4H3v1h2.852c.656.637 1.41 1 2.148 1 .707 0 1.516-.332 2.227-1H13.5c.277 0 .5-.223.5-.5 0-1.61.063-3.273-1-5.117V3.5C13 2.125 11.875 1 10.5 1zm0 1h5c.836 0 1.5.664 1.5 1.5v1.578a4.996 4.996 0 0 0-.516-.703C10.738 3.539 9.61 3 8 3c-1.61 0-2.738.54-3.484 1.375a4.961 4.961 0 0 0-.516.7V3.5C4 2.664 4.664 2 5.5 2zm1 6a.499.499 0 1 0 0 1 .499.499 0 1 0 0-1zm3 0a.499.499 0 1 0 0 1 .499.499 0 1 0 0-1zM12 8v.125h.27c.695 1.336.714 2.54.714 3.875h-1.96c.578-.953.976-2.258.976-4z"/></svg>