<svg xmlns="http://www.w3.org/2000/svg" viewBox="0 0 80 80"><path d="M28 11c-7.168 0-13 5.832-13 13v14c0 .352.074.684.188 1H13v-3h-2v3H9a1.006 1.006 0 0 0-.879.496 1.01 1.01 0 0 0 0 1.008c.184.312.52.5.879.496h10v1.766a3.01 3.01 0 0 0 1.656 2.683l1.766.88C21.148 47.761 18 51.768 18 57c0 6.29 2.04 13.277 2.04 13.277l.21.723h15.723a12.713 12.713 0 0 0 4.156 1.8c.762.708 1.746 1.2 2.871 1.2s2.113-.488 2.875-1.2a12.749 12.749 0 0 0 4.156-1.8c3.934 0 14.938.344 14.938.344l.761.02.223-.727s1.902-6.13 1.902-13.137c0-5.738-3.562-9.727-5.152-11.234l1.64-.817A3.01 3.01 0 0 0 66 42.766V41c1.645 0 3-1.355 3-3V24c0-7.168-5.832-13-13-13zm0 2h28c6.086 0 11 4.914 11 11v3c-.55 0-1 .45-1 1s.45 1 1 1v9c0 .566-.434 1-1 1v-1.766a3.01 3.01 0 0 0-1.656-2.683l-2.457-1.227a10.537 10.537 0 0 0-1.36-3.36c-1.191-1.878-3.476-3.76-7.109-3.91C52.922 25.427 49.328 21 42 21c-8.395 0-13.254 3.156-15.887 6.363-2.004 2.446-2.75 4.91-2.992 5.961l-2.465 1.227A3.01 3.01 0 0 0 19 37.234V39h-1c-.566 0-1-.434-1-1V28c.55 0 1-.45 1-1s-.45-1-1-1v-2c0-6.086 4.914-11 11-11zm-1 2c-.55 0-1 .45-1 1s.45 1 1 1 1-.45 1-1-.45-1-1-1zm4 0c-.55 0-1 .45-1 1s.45 1 1 1 1-.45 1-1-.45-1-1-1zm4 0c-.55 0-1 .45-1 1s.45 1 1 1 1-.45 1-1-.45-1-1-1zm4 0c-.55 0-1 .45-1 1s.45 1 1 1 1-.45 1-1-.45-1-1-1zm4 0c-.55 0-1 .45-1 1s.45 1 1 1 1-.45 1-1-.45-1-1-1zm4 0c-.55 0-1 .45-1 1s.45 1 1 1 1-.45 1-1-.45-1-1-1zm4 0c-.55 0-1 .45-1 1s.45 1 1 1 1-.45 1-1-.45-1-1-1zm4 0c-.55 0-1 .45-1 1s.45 1 1 1 1-.45 1-1-.45-1-1-1zm4 1c-.55 0-1 .45-1 1s.45 1 1 1 1-.45 1-1-.45-1-1-1zm-36 1c-.55 0-1 .45-1 1s.45 1 1 1 1-.45 1-1-.45-1-1-1zm39 1c-.55 0-1 .45-1 1s.45 1 1 1 1-.45 1-1-.45-1-1-1zm-41 2c-.55 0-1 .45-1 1s.45 1 1 1 1-.45 1-1-.45-1-1-1zm43 1c-.55 0-1 .45-1 1s.45 1 1 1 1-.45 1-1-.45-1-1-1zm-22 2c6.953 0 10.188 4.582 10.188 4.582l.3.418H53c3.246 0 4.855 1.492 5.832 3.035.961 1.52 1.16 3 1.168 3.055v12.387l.371.3c.004.004.004.004.008.004.023.02 5.476 4.547 5.476 10.719 0 6.012-1.355 10.848-1.636 11.824-.906-.027-7.5-.23-11.89-.293a12.487 12.487 0 0 0 3.151-6.426L55.914 60h-.539c1.59 0 2.875-1.336 2.875-2.922 0 .195-.04.156.184-.152.222-.305.566-.883.566-1.617 0-1.254-.809-2.188-1.844-2.743l.922-5.539-.539-.359s-.434-.266-1.184-1.297c-.753-1.035-1.73-2.773-2.523-5.547l-.523-1.84-1.211 1.48c-3.446 4.208-9.13 5.821-14.032 6.321-4.902.5-8.902-.097-8.902-.097l-1.352-.204 1.118 7.055c-1.078.543-1.93 1.48-1.93 2.77 0 .734.344 1.312.566 1.617.223.308.184.347.184.152 0 1.586 1.285 2.922 2.875 2.922h-.516l.41 2.602v.003A12.512 12.512 0 0 0 33.642 69H21.793C21.508 67.965 20 62.344 20 57s4.715-10.297 4.715-10.297l.027-.031.258-.266V34.105c.008-.054.395-2.707 2.66-5.468C29.95 25.844 34.094 23 42 23zm-22 1c-.55 0-1 .45-1 1s.45 1 1 1 1-.45 1-1-.45-1-1-1zm44 1c-.55 0-1 .45-1 1s.45 1 1 1 1-.45 1-1-.45-1-1-1zM23 35.617v8.766l-1.45-.727a.989.989 0 0 1-.55-.89v-2.598a.904.904 0 0 0 0-.324v-2.61c0-.379.21-.722.55-.89zm39 0l1.45.727c.34.168.55.511.55.89v2.598a.904.904 0 0 0 0 .324v2.61c0 .379-.21.722-.55.89l-1.45.727zm-9.547 6.207c.742 2.094 1.563 3.73 2.281 4.723.63.86.895 1.008 1.188 1.25l-1.016 6.078 1.016.145c.601.09 1.078.605 1.078 1.289 0 .195-.031.234-.184.441-.152.21-.566.594-.566 1.328 0 .535-.395.922-.875.922h-1.156l-.711 4.277c-.73 4.391-4.082 7.762-8.29 8.657l-.312.066-.218.238A2.247 2.247 0 0 1 43 72c-.672 0-1.262-.29-1.688-.758L41.094 71l-.313-.063c-4.203-.898-7.554-4.269-8.285-8.66v.008L31.816 58h-1.191c-.48 0-.875-.387-.875-.922 0-.734-.414-1.117-.566-1.328-.153-.207-.184-.246-.184-.441 0-.7.5-1.227 1.125-1.293l1.047-.11-.969-6.117c1.406.152 4.145.387 8.067-.012 4.71-.484 10.226-2.043 14.183-5.953zM11 43v6.145c-1.715.449-3 2.003-3 3.855 0 2.2 1.8 4 4 4s4-1.8 4-4c0-1.852-1.285-3.406-3-3.855V43zm27 7c-2.2 0-4 1.8-4 4s1.8 4 4 4 4-1.8 4-4-1.8-4-4-4zm-26 1c1.117 0 2 .883 2 2s-.883 2-2 2-2-.883-2-2 .883-2 2-2zm36 0c-2.2 0-4 1.8-4 4s1.8 4 4 4 4-1.8 4-4-1.8-4-4-4zm-9.02 1.262c.61.34 1.02.98 1.02 1.738 0 1.117-.883 2-2 2s-2-.883-2-2c0-.29.063-.563.172-.809a1.498 1.498 0 0 0 2.808-.93zM48 53c1.117 0 2 .883 2 2 0 .29-.063.563-.172.809a1.498 1.498 0 0 0-2.808.93A1.977 1.977 0 0 1 46 55c0-1.117.883-2 2-2zm-10 7c-.55 0-1 .45-1 1s.45 1 1 1 1-.45 1-1-.45-1-1-1zm10 1c-.55 0-1 .45-1 1s.45 1 1 1 1-.45 1-1-.45-1-1-1z"/></svg>