<svg xmlns="http://www.w3.org/2000/svg" viewBox="0 0 50 50"><path d="M17.5 0C11.75 0 7 4.75 7 10.5v2.313a1.016 1.016 0 0 0 0 .406v6.875c0 .812.02 1.422.094 1.906H5v-2H3v2H.906c-.55.027-.98.496-.953 1.047.027.55.496.98 1.047.953h8v2c0 1.645 1.355 3 3 3h.469c-.766.668-1.375 1.727-1.375 3.188 0 2.242 1.543 4.027 3.594 4.53 1.34 3.337 2.968 6.563 5.156 9C22.137 48.274 25.074 50 28.687 50c3.567 0 6.54-1.727 8.844-4.281 2.196-2.438 3.844-5.66 5.188-9 2.023-.516 3.593-2.328 3.593-4.532 0-1.449-.566-2.515-1.312-3.187 1.645 0 3-1.355 3-3v-3.094c1.195-.722 2-2.101 2-3.812v-5.907a1.016 1.016 0 0 0 0-.406V10.5C50 4.75 45.25 0 39.5 0zm0 2h22c4.648 0 8.5 3.852 8.5 8.5v1.219a.626.626 0 0 1-.094-.25l-.031-.031c-.375-2.422-1.336-4.547-2.938-6.063C43.337 3.859 41.117 3 38.5 3h-20c-2.617 0-4.836.86-6.438 2.375-1.601 1.516-2.562 3.64-2.937 6.063l-.031.03a.626.626 0 0 1-.094.25V10.5C9 5.852 12.852 2 17.5 2zm1 3h20c2.184 0 3.84.684 5.063 1.844 1.218 1.152 2.015 2.812 2.343 4.875v.031A2.643 2.643 0 0 0 48 13.969v5.125c0 .172-.047.293-.063.437C47.708 18.11 46.484 17 45 17h-1.094C42 11.191 37.023 7 28.688 7c-8.438 0-13.485 4.18-15.532 10H12c-1.645 0-3 1.355-3 3v-6.031a2.643 2.643 0 0 0 2.094-2.219v-.031c.328-2.063 1.125-3.723 2.344-4.875C14.66 5.684 16.316 5 18.5 5zm10.188 4C36.355 9 40.331 12.445 42 17.563V28.03c-.043.004-.125-.004-.156 0-.184-3.433-1.098-5.87-2.75-7.281-1.828-1.559-4.207-1.965-6.532-2.125-2.324-.16-4.656-.094-6.562-.438-1.906-.343-3.254-.968-4.094-2.625a1 1 0 0 0-1-.562h-.093A1 1 0 0 0 20 16c0 2.992-.895 4.773-1.875 6.5-.879 1.55-1.805 3.164-2 5.25l-.406.281c-.082-.008-.344-.05-.719-.031V17.719C16.781 12.512 20.848 9 28.688 9zm-7.063 9.313c1.14.992 2.531 1.582 4 1.843 2.219.399 4.637.317 6.813.469 2.175.152 4.046.52 5.343 1.625C39.078 23.355 40 25.27 40 29c0 .55.45 1 1 1h.594a.668.668 0 0 0 .125 0s.726-.082 1.375.156c.648.239 1.218.516 1.218 2.032 0 1.374-1.16 2.578-2.437 2.718a1 1 0 0 0-.813.625c-1.324 3.383-2.984 6.574-5.03 8.844-2.048 2.27-4.41 3.625-7.344 3.625-2.989 0-5.31-1.355-7.344-3.625-2.035-2.27-3.676-5.457-5-8.844a1 1 0 0 0-.844-.625c-1.434-.152-2.406-1.183-2.406-2.718 0-1.458.558-1.75 1.219-2 .66-.25 1.374-.188 1.374-.188a.753.753 0 0 0 .188 0h.188a.985.985 0 0 0 .437-.156l1-.594c.3-.176.492-.496.5-.844 0-1.84.855-3.136 1.875-4.937.75-1.32 1.379-3.067 1.75-5.157zM12 19h1v8h-1c-.555 0-1-.445-1-1v-2.813a1.016 1.016 0 0 0 0-.406V20c0-.555.445-1 1-1zm32 0h1c.555 0 1 .445 1 1v6c0 .555-.445 1-1 1h-1zM3 25v2.813A.753.753 0 0 0 3 28v3.156c-1.719.446-3 1.992-3 3.844 0 2.2 1.8 4 4 4s4-1.8 4-4c0-1.852-1.281-3.398-3-3.844V28a.753.753 0 0 0 0-.188V25zm19.5 2a3.514 3.514 0 0 0-3.5 3.5c0 1.922 1.578 3.5 3.5 3.5s3.5-1.578 3.5-3.5-1.578-3.5-3.5-3.5zm12 0a3.514 3.514 0 0 0-3.5 3.5c0 1.922 1.578 3.5 3.5 3.5s3.5-1.578 3.5-3.5-1.578-3.5-3.5-3.5zm-12 2c.84 0 1.5.66 1.5 1.5s-.66 1.5-1.5 1.5-1.5-.66-1.5-1.5.66-1.5 1.5-1.5zm12 0c.84 0 1.5.66 1.5 1.5s-.66 1.5-1.5 1.5-1.5-.66-1.5-1.5.66-1.5 1.5-1.5zM3.812 33c.106.016.208.016.313 0 .031 0 .063-.004.094 0A1.995 1.995 0 0 1 6 35c0 1.117-.883 2-2 2s-2-.883-2-2c0-1.05.79-1.906 1.813-2z"/></svg>