<svg xmlns="http://www.w3.org/2000/svg" viewBox="0 0 48 48"><path d="M42 24h2v14h-2z" fill="#5c6bc0"/><path d="M45 39a1.999 1.999 0 1 1-4 0 1.999 1.999 0 1 1 4 0z" fill="#5c6bc0"/><path d="M29 33a1.999 1.999 0 1 1-4 0 1.999 1.999 0 1 1 4 0m-18 0a1.999 1.999 0 1 0-4 0 1.999 1.999 0 1 0 4 0" fill="#ffa726"/><path d="M27 27c0-7.637-18-4.973-18 0v7c0 4.973 4.027 9 9 9s9-4.027 9-9z" fill="#ffb74d"/><path d="M18 18c-6.074 0-10 4.926-10 11v2.285L10 33v-5l12-4 4 4v5l2-1.742V29c0-4.023-1.04-8.016-6-9l-1-2z" fill="#424242"/><path d="M21 33c0 .55.45 1 1 1s1-.45 1-1-.45-1-1-1-1 .45-1 1m-8 0c0 .55.45 1 1 1s1-.45 1-1-.45-1-1-1-1 .45-1 1" fill="#784719"/><path d="M30 27h16v2H30zm-2-2h2v6h-2z" fill="#9fa8da"/><path d="M40 26h6v4h-6z" fill="#9fa8da"/><path d="M27 6H11c-4.973 0-9 4-9 9s4 16 4 16h2V15a2 2 0 0 1 2-2h18a2 2 0 0 1 2 2v16h2s4-11 4-16-4.027-9-9-9z" fill="#f44336"/><path d="M28 11H10c-2.21 0-4 1.79-4 4v16h2V15a2 2 0 0 1 2-2h18a2 2 0 0 1 2 2v16h2V15c0-2.21-1.79-4-4-4z" fill="#b71c1c" fill-opacity=".549"/></svg>