<svg xmlns="http://www.w3.org/2000/svg" viewBox="0 0 80 80"><path d="M28 11c-7.168 0-13 5.832-13 13v14c0 .352.074.684.188 1H13v-3h-2v3H9a1.006 1.006 0 0 0-.879.496 1.01 1.01 0 0 0 0 1.008c.184.312.52.5.879.496h10v1.766a3.01 3.01 0 0 0 1.656 2.683l2.469 1.23.766 3.587c-1.106.48-1.891 1.566-1.891 2.832 0 .707.215 1.355.395 1.988.093.316.18.613.242.84.062.23.078.445.078.324 0 1.516 1.27 2.75 2.785 2.75h.75c.797 6.934 5.91 12.527 12.676 13.855C39.77 73.54 40.82 74 42 74s2.23-.46 3.074-1.145C51.84 71.527 56.954 65.934 57.75 59h.75c1.516 0 2.785-1.23 2.785-2.75 0 .121.016-.094.078-.324.063-.227.149-.524.242-.84.18-.633.395-1.281.395-1.988 0-1.168-.676-2.176-1.645-2.703l1.098-3.504 2.89-1.442A3.01 3.01 0 0 0 66 42.766V41c1.645 0 3-1.355 3-3V24c0-7.168-5.832-13-13-13zm0 2h28c6.086 0 11 4.914 11 11v3c-.55 0-1 .45-1 1s.45 1 1 1v9c0 .566-.434 1-1 1v-1.766a3.01 3.01 0 0 0-1.656-2.683l-2.813-1.406c-.566-1.653-1.601-3.118-2.86-4.274-1.753-1.605-3.937-2.566-6.077-2.738-.282-.418-.965-1.36-2.453-2.442C48.273 22.332 45.328 21 41.137 21c-5.067 0-9.57 2.383-12.813 5.39-2.246 2.087-3.914 4.446-4.742 6.7-.008.004-.02.012-.031.015l-2.895 1.446A3.01 3.01 0 0 0 19 37.234V39h-1c-.566 0-1-.434-1-1V28c.55 0 1-.45 1-1s-.45-1-1-1v-2c0-6.086 4.914-11 11-11zm-1 2c-.55 0-1 .45-1 1s.45 1 1 1 1-.45 1-1-.45-1-1-1zm4 0c-.55 0-1 .45-1 1s.45 1 1 1 1-.45 1-1-.45-1-1-1zm4 0c-.55 0-1 .45-1 1s.45 1 1 1 1-.45 1-1-.45-1-1-1zm4 0c-.55 0-1 .45-1 1s.45 1 1 1 1-.45 1-1-.45-1-1-1zm4 0c-.55 0-1 .45-1 1s.45 1 1 1 1-.45 1-1-.45-1-1-1zm4 0c-.55 0-1 .45-1 1s.45 1 1 1 1-.45 1-1-.45-1-1-1zm4 0c-.55 0-1 .45-1 1s.45 1 1 1 1-.45 1-1-.45-1-1-1zm4 0c-.55 0-1 .45-1 1s.45 1 1 1 1-.45 1-1-.45-1-1-1zm4 1c-.55 0-1 .45-1 1s.45 1 1 1 1-.45 1-1-.45-1-1-1zm-36 1c-.55 0-1 .45-1 1s.45 1 1 1 1-.45 1-1-.45-1-1-1zm39 1c-.55 0-1 .45-1 1s.45 1 1 1 1-.45 1-1-.45-1-1-1zm-41 2c-.55 0-1 .45-1 1s.45 1 1 1 1-.45 1-1-.45-1-1-1zm43 1c-.55 0-1 .45-1 1s.45 1 1 1 1-.45 1-1-.45-1-1-1zm-22.863 2c3.773 0 6.258 1.168 7.832 2.309 1.57 1.14 2.168 2.191 2.168 2.191A.982.982 0 0 0 51 28a1.002 1.002 0 0 0 1.996.105c1.438.262 3.035 1.06 4.32 2.239 1.59 1.46 2.684 3.43 2.684 5.515v8.989l-1.656 5.28c-.114.048-.227.099-.344.13v-4.34c0-4.176-1.453-6.785-2.969-8.273a8.083 8.083 0 0 0-2.047-1.458A1.002 1.002 0 0 0 52 35a1 1 0 0 0-1 .966c-.086.062-1.04.754-3.066 1.535-2.125.813-5.301 1.637-9.465 1.637-2.059 0-5.043.37-7.649 1.75-2.605 1.379-4.82 3.937-4.82 7.847v1.524c-.148-.04-.29-.106-.434-.164l.32-.067L25 45.895V36c0-1.992 1.734-5.402 4.688-8.14C32.636 25.116 36.703 23 41.136 23zM20 24c-.55 0-1 .45-1 1s.45 1 1 1 1-.45 1-1-.45-1-1-1zm44 1c-.55 0-1 .45-1 1s.45 1 1 1 1-.45 1-1-.45-1-1-1zm-12 6c-.55 0-1 .45-1 1s.45 1 1 1 1-.45 1-1-.45-1-1-1zm-29 4.617v8.766l-1.45-.727a.989.989 0 0 1-.55-.89v-2.598a.904.904 0 0 0 0-.324v-2.61c0-.379.21-.722.55-.89zm39 0l1.45.727c.34.168.55.511.55.89v2.598a.904.904 0 0 0 0 .324v2.61c0 .379-.21.722-.55.89l-1.45.727zM51.715 37.81c.316.105 1.008.37 1.918 1.265C54.789 40.207 56 42.195 56 45.918v7.27l1.438-.7c.609-.297 1.273-.488 1.421-.488.653 0 1.141.492 1.141 1.098 0 .144-.145.828-.316 1.433-.09.305-.18.606-.25.883-.075.277-.149.469-.149.836 0 .414-.328.75-.785.75h-2.484l-.051.95c-.344 6.558-5.18 11.902-11.496 13.03l-.282.051-.214.192A2.9 2.9 0 0 1 42 72a2.9 2.9 0 0 1-1.973-.777l-.215-.192-.28-.05c-6.317-1.13-11.153-6.473-11.497-13.032l-.05-.949H25.5c-.457 0-.785-.336-.785-.75 0-.367-.074-.559-.149-.836-.07-.277-.16-.578-.25-.883-.171-.605-.316-1.289-.316-1.433 0-.606.488-1.098 1.14-1.098.15 0 .813.191 1.422.488l1.438.7v-4.454c0-3.199 1.59-4.937 3.754-6.078 2.168-1.144 4.914-1.52 6.715-1.52 4.43 0 7.851-.878 10.176-1.773 1.972-.754 2.742-1.332 3.07-1.554zM11 43v6.145c-1.715.449-3 2.003-3 3.855 0 2.2 1.8 4 4 4s4-1.8 4-4c0-1.852-1.285-3.406-3-3.855V43zm25 5c-2.2 0-4 1.8-4 4s1.8 4 4 4 4-1.8 4-4-1.8-4-4-4zm12 1c-2.2 0-4 1.8-4 4s1.8 4 4 4 4-1.8 4-4-1.8-4-4-4zm-11.02 1.262c.61.34 1.02.98 1.02 1.738 0 1.117-.883 2-2 2s-2-.883-2-2c0-.29.063-.563.172-.809a1.498 1.498 0 0 0 2.808-.93zM12 51c1.117 0 2 .883 2 2s-.883 2-2 2-2-.883-2-2 .883-2 2-2zm36 0c1.117 0 2 .883 2 2 0 .29-.063.563-.172.809a1.498 1.498 0 0 0-2.808.93A1.977 1.977 0 0 1 46 53c0-1.117.883-2 2-2zm-12 7c-.55 0-1 .45-1 1s.45 1 1 1 1-.45 1-1-.45-1-1-1zm11 1c-.55 0-1 .45-1 1s.45 1 1 1 1-.45 1-1-.45-1-1-1zm1 4c-.55 0-1 .45-1 1s.45 1 1 1 1-.45 1-1-.45-1-1-1z"/></svg>