<svg xmlns="http://www.w3.org/2000/svg" viewBox="0 0 24 24"><path d="M21 11c0 6.707-4.281 6.438-4.824 6.438-.617 0-1.149-.133-1.598-.399a2.547 2.547 0 0 1-1.015-1.137c-.36.5-.774.875-1.25 1.125a3.257 3.257 0 0 1-1.555.38c-.52 0-.988-.118-1.399-.345a2.908 2.908 0 0 1-1.027-.972c-.273-.418-.465-.926-.578-1.516-.117-.594-.137-1.254-.066-1.98.101-.918.3-1.746.597-2.489.297-.742.664-1.375 1.106-1.894A4.798 4.798 0 0 1 10.895 7a3.943 3.943 0 0 1 1.789-.426c2.023 0 3.082 1.024 3.296 1.172l-.546 6.211c-.043.355-.204 1.75 1.125 1.75C16.91 15.707 19 15.25 19 11c0-.133.918-7-6.574-7C6.27 4 5 9.895 5 12c0 8.387 5.313 8 7 8 2.02 0 3.055-.426 3.281-.531l.45 1.824c-.254.164-1.25.707-3.731.707-3.063 0-9-.145-9-10 0-1.363.75-10 9.469-10C20.813 2 21 9.563 21 11zm-10.93 1.594c-.078.941.004 1.66.25 2.152.242.488.637.734 1.18.734 1.105 0 1.656-1.433 1.785-1.793l.45-5.082a5.406 5.406 0 0 0-.86-.14c-.82 0-1.46.351-1.918 1.055-.453.703-.75 1.726-.887 3.074z"/></svg>