<svg xmlns="http://www.w3.org/2000/svg" viewBox="0 0 24 24"><path d="M10 2a3 3 0 0 0-3 3v7a3 3 0 0 0 3 3c.555 0 1.055-.176 1.5-.438a5.988 5.988 0 0 1 1.438-1.968c.039-.192.062-.39.062-.594V5a3 3 0 0 0-3-3zM3 12c0 3.52 2.613 6.418 6 6.906V22h2v-3.094c.102-.015.21-.011.313-.031A6.067 6.067 0 0 1 11 17v-.094A4.962 4.962 0 0 1 10 17c-2.758 0-5-2.242-5-5zm14 0a5 5 0 1 0 0 10 5 5 0 0 0 0-10zm-1.813 2L17 15.813 18.813 14 20 15.188 18.187 17 20 18.813 18.812 20 17 18.187 15.187 20 14 18.812 15.813 17 14 15.187z"/></svg>