<svg xmlns="http://www.w3.org/2000/svg" viewBox="0 0 80 80"><path d="M40 7c-7.719 0-14 6.281-14 14v13h-9v-2h-2v6h2v-2h1.84v5.84c0 10.648 7.91 19.48 18.16 20.941V67h-6c-2.207 0-4 1.793-4 4v2h20.273a18.507 18.507 0 0 1-.918-2H29c0-1.102.898-2 2-2h14.688a19.742 19.742 0 0 1-.426-2H43v-4.223c.7-.101 1.395-.234 2.082-.402.063-.73.156-1.453.297-2.156A19.08 19.08 0 0 1 40 61c-10.566 0-19.16-8.594-19.16-19.16V36H26v6c0 7.719 6.281 14 14 14s14-6.281 14-14v-6h5.16v5.84c0 1.324-.14 2.633-.41 3.914.691-.2 1.402-.356 2.125-.473.188-1.133.285-2.281.285-3.441V36H63v2h2v-6h-2v2h-9V21c0-7.719-6.281-14-14-14zm0 2c5.96 0 10.879 4.328 11.824 10.016A1.001 1.001 0 0 0 52 21v4c-.55 0-1 .45-1 1s.45 1 1 1v4c-.55 0-1 .45-1 1s.45 1 1 1v9c0 6.64-5.36 12-12 12s-12-5.36-12-12v-9c.55 0 1-.45 1-1s-.45-1-1-1v-4c.55 0 1-.45 1-1s-.45-1-1-1v-4a1.001 1.001 0 1 0 .176-1.984C29.12 13.328 34.039 9 40 9zm-3 1c-.55 0-1 .45-1 1s.45 1 1 1 1-.45 1-1-.45-1-1-1zm6 0c-.55 0-1 .45-1 1s.45 1 1 1 1-.45 1-1-.45-1-1-1zm-9 3c-.55 0-1 .45-1 1s.45 1 1 1 1-.45 1-1-.45-1-1-1zm6 0c-.55 0-1 .45-1 1s.45 1 1 1 1-.45 1-1-.45-1-1-1zm6 0c-.55 0-1 .45-1 1s.45 1 1 1 1-.45 1-1-.45-1-1-1zm-15 3c-.55 0-1 .45-1 1s.45 1 1 1 1-.45 1-1-.45-1-1-1zm6 0c-.55 0-1 .45-1 1s.45 1 1 1 1-.45 1-1-.45-1-1-1zm6 0c-.55 0-1 .45-1 1s.45 1 1 1 1-.45 1-1-.45-1-1-1zm6 0c-.55 0-1 .45-1 1s.45 1 1 1 1-.45 1-1-.45-1-1-1zm-15 3c-.55 0-1 .45-1 1s.45 1 1 1 1-.45 1-1-.45-1-1-1zm6 0c-.55 0-1 .45-1 1s.45 1 1 1 1-.45 1-1-.45-1-1-1zm6 0c-.55 0-1 .45-1 1s.45 1 1 1 1-.45 1-1-.45-1-1-1zm-15 3c-.55 0-1 .45-1 1s.45 1 1 1 1-.45 1-1-.45-1-1-1zm6 0c-.55 0-1 .45-1 1s.45 1 1 1 1-.45 1-1-.45-1-1-1zm6 0c-.55 0-1 .45-1 1s.45 1 1 1 1-.45 1-1-.45-1-1-1zm6 0c-.55 0-1 .45-1 1s.45 1 1 1 1-.45 1-1-.45-1-1-1zm-15 3c-.55 0-1 .45-1 1s.45 1 1 1 1-.45 1-1-.45-1-1-1zm6 0c-.55 0-1 .45-1 1s.45 1 1 1 1-.45 1-1-.45-1-1-1zm6 0c-.55 0-1 .45-1 1s.45 1 1 1 1-.45 1-1-.45-1-1-1zm-15 3c-.55 0-1 .45-1 1s.45 1 1 1 1-.45 1-1-.45-1-1-1zm6 0c-.55 0-1 .45-1 1s.45 1 1 1 1-.45 1-1-.45-1-1-1zm6 0c-.55 0-1 .45-1 1s.45 1 1 1 1-.45 1-1-.45-1-1-1zm6 0c-.55 0-1 .45-1 1s.45 1 1 1 1-.45 1-1-.45-1-1-1zm-15 3c-.55 0-1 .45-1 1s.45 1 1 1 1-.45 1-1-.45-1-1-1zm6 0c-.55 0-1 .45-1 1s.45 1 1 1 1-.45 1-1-.45-1-1-1zm6 0c-.55 0-1 .45-1 1s.45 1 1 1 1-.45 1-1-.45-1-1-1zm-15 3c-.55 0-1 .45-1 1s.45 1 1 1 1-.45 1-1-.45-1-1-1zm6 0c-.55 0-1 .45-1 1s.45 1 1 1 1-.45 1-1-.45-1-1-1zm6 0c-.55 0-1 .45-1 1s.45 1 1 1 1-.45 1-1-.45-1-1-1zm6 0c-.55 0-1 .45-1 1s.45 1 1 1 1-.45 1-1-.45-1-1-1zm-9 8a1.999 1.999 0 1 0 0 4 1.999 1.999 0 1 0 0-4zm24 6c-8.824 0-16 7.176-16 16s7.176 16 16 16 16-7.176 16-16-7.176-16-16-16zm0 2c7.742 0 14 6.258 14 14 0 3.512-1.297 6.707-3.422 9.16L54.84 53.422A13.937 13.937 0 0 1 64 50zm-10.578 4.84L73.16 74.578A13.937 13.937 0 0 1 64 78c-7.742 0-14-6.258-14-14 0-3.512 1.297-6.707 3.422-9.16zM39 63h2v4h-2z"/></svg>