<svg xmlns="http://www.w3.org/2000/svg" viewBox="0 0 64 64"><path d="M11 2.055c-3.86 0-7 3.14-7 7v42c0 3.86 3.14 7 7 7h42c3.86 0 7-3.14 7-7v-42c0-3.86-3.14-7-7-7zm0 2h11V26h-4v-4c0-1.102-.898-2-2-2h-4c-1.102 0-2 .898-2 2v4c0 1.102.898 2 2 2h4v4c0 1.102.898 2 2 2h12c1.102 0 2-.898 2-2V22h6v14H28c-1.102 0-2 .898-2 2v10c0 1.102.898 2 2 2h10c1.102 0 2-.898 2-2V38h11.586l-4.293 4.293a1 1 0 1 0 1.414 1.414l6-6c.008-.008.012-.02.02-.031a1.02 1.02 0 0 0 .195-.293l.004-.004c.004-.008 0-.016.008-.024.035-.105.054-.21.062-.32 0-.031-.004-.062-.008-.097a.912.912 0 0 0-.047-.25c-.011-.032-.02-.067-.035-.098a.945.945 0 0 0-.199-.297l-6-6a.995.995 0 0 0-1.41 0 .993.993 0 0 0 0 1.414L51.586 36H40V22c0-1.102-.898-2-2-2h-6c-1.102 0-2 .898-2 2v10H18v-4h4c1.102 0 2-.898 2-2V4.055h29c2.758 0 5 2.242 5 5v42c0 2.758-2.242 5-5 5H11c-2.758 0-5-2.242-5-5v-42c0-2.758 2.242-5 5-5zm-2 4a1 1 0 0 0-1 1v2a1 1 0 1 0 2 0v-2a1 1 0 0 0-1-1zm5 0a1 1 0 0 0-1 1v2a1 1 0 1 0 2 0v-2a1 1 0 0 0-1-1zm5 0a1 1 0 0 0-1 1v2a1 1 0 1 0 2 0v-2a1 1 0 0 0-1-1zm9 0a1 1 0 0 0-1 1v2a1 1 0 1 0 2 0v-2c0-.555-.445-1-1-1zm5 0a1 1 0 0 0-1 1v2a1 1 0 1 0 2 0v-2c0-.555-.445-1-1-1zm5 0a1 1 0 0 0-1 1v2a1 1 0 1 0 2 0v-2c0-.555-.445-1-1-1zm5 0a1 1 0 0 0-1 1v2a1 1 0 1 0 2 0v-2c0-.555-.445-1-1-1zm5 0a1 1 0 0 0-1 1v2a1 1 0 1 0 2 0v-2c0-.555-.445-1-1-1zm5 0a1 1 0 0 0-1 1v2a1 1 0 1 0 2 0v-2c0-.555-.445-1-1-1zM12 22h4v4h-4zm16 16h10v10H28z"/></svg>