<svg xmlns="http://www.w3.org/2000/svg" viewBox="0 0 40 40"><path d="M35.5 5.5h-27c-2.21 0-4 1.79-4 4v6c0 2.21 1.79 4 4 4h23c2.21 0 4 1.79 4 4v6c0 2.21-1.79 4-4 4h-27" fill="none" stroke-linecap="square" stroke="#4788c7" stroke-miterlimit="10"/><path d="M38.5 5.5a3 3 0 1 1-6.002-.002A3 3 0 0 1 38.5 5.5z" fill="#dff0fe"/><path d="M35.5 3C36.879 3 38 4.121 38 5.5S36.879 8 35.5 8A2.502 2.502 0 0 1 33 5.5C33 4.121 34.121 3 35.5 3m0-1a3.5 3.5 0 1 0 0 7 3.5 3.5 0 1 0 0-7z" fill="#4788c7"/><path d="M7.5 33.5a3 3 0 1 1-6.002-.002A3 3 0 0 1 7.5 33.5z" fill="#dff0fe"/><path d="M4.5 31C5.879 31 7 32.121 7 33.5S5.879 36 4.5 36A2.502 2.502 0 0 1 2 33.5C2 32.121 3.121 31 4.5 31m0-1a3.5 3.5 0 1 0 0 7 3.5 3.5 0 1 0 0-7z" fill="#4788c7"/><path d="M7.5 12.5a3 3 0 1 1-6.002-.002A3 3 0 0 1 7.5 12.5z" fill="#dff0fe"/><path d="M4.5 10C5.879 10 7 11.121 7 12.5S5.879 15 4.5 15A2.502 2.502 0 0 1 2 12.5C2 11.121 3.121 10 4.5 10m0-1a3.5 3.5 0 1 0 0 7 3.5 3.5 0 1 0 0-7z" fill="#4788c7"/><path d="M38.5 26.5a3 3 0 1 1-6.002-.002 3 3 0 0 1 6.002.002z" fill="#dff0fe"/><path d="M35.5 24c1.379 0 2.5 1.121 2.5 2.5S36.879 29 35.5 29a2.502 2.502 0 0 1-2.5-2.5c0-1.379 1.121-2.5 2.5-2.5m0-1a3.5 3.5 0 1 0 0 7 3.5 3.5 0 1 0 0-7z" fill="#4788c7"/></svg>