<svg xmlns="http://www.w3.org/2000/svg" viewBox="0 0 40 40"><path d="M3.21 35.5c-.616 0-1.17-.32-1.48-.852a1.69 1.69 0 0 1 0-1.707L18.523 3.86c.309-.535.86-.855 1.477-.855.617 0 1.168.32 1.477.855L38.27 32.941a1.69 1.69 0 0 1 0 1.707 1.698 1.698 0 0 1-1.48.852z" fill="#98ccfd"/><path d="M20 3.508c.21 0 .73.058 1.043.601l16.793 29.082a1.189 1.189 0 0 1 0 1.207c-.106.18-.418.602-1.047.602H3.211c-.629 0-.941-.422-1.047-.602a1.19 1.19 0 0 1 0-1.207L18.957 4.11A1.172 1.172 0 0 1 20 3.508m0-1c-.742 0-1.484.367-1.91 1.101L1.3 32.691C.45 34.161 1.513 36 3.21 36h33.58c1.698 0 2.76-1.84 1.91-3.309L21.91 3.61A2.18 2.18 0 0 0 20 2.508z" fill="#4788c7"/><path d="M21.195 30a1.195 1.195 0 1 1-2.39 0 1.195 1.195 0 0 1 2.39 0zM19 15h2v12h-2z" fill="#fff"/></svg>