<svg xmlns="http://www.w3.org/2000/svg" viewBox="0 0 26 26"><path d="M12.313 0c-.301 0-.614-.012-.813.188l-11 8.5c-.3.3-.508.601-.406 1 .101.398.418.71.719.812l3.875 1L.5 14.719a.993.993 0 0 0-.363.98.99.99 0 0 0 .707.77l3.875 1L.5 20.719a.993.993 0 0 0-.363.98.99.99 0 0 0 .707.77l13.406 3.5a.998.998 0 0 0 .938-.25l10.5-9.782a1 1 0 0 0-.532-1.718l-3.437-.563 3.968-3.719a1 1 0 0 0-.53-1.718l-3.345-.594 4-3.719c.2-.199.29-.601.188-1-.102-.398-.414-.617-.813-.719zm7.656 9.344l2.875.5-8.625 8.062-10.906-2.843 3.812-2.938L14.313 14h.28c.302 0 .52-.113.72-.313zm-.094 6l2.969.5-8.625 8.062-10.875-2.843 3.844-2.938 7.062 1.844a.998.998 0 0 0 .938-.25z"/></svg>