<svg xmlns="http://www.w3.org/2000/svg" viewBox="0 0 80 80"><path style="line-height:normal;text-indent:0;text-align:start;text-decoration-line:none;text-decoration-style:solid;text-decoration-color:#000;text-transform:none;block-progression:tb;isolation:auto;mix-blend-mode:normal" d="M40.033 10.25a1 1 0 0 0-.453.092l-34 15.75a1 1 0 0 0 0 1.816L17.65 33.5 5.58 39.092a1 1 0 0 0 0 1.816L17.65 46.5 5.58 52.092a1 1 0 0 0 0 1.816l34 15.75a1 1 0 0 0 .84 0l34-15.75a1 1 0 0 0 0-1.816L62.35 46.5l12.07-5.592a1 1 0 0 0 0-1.816L62.35 33.5l12.07-5.592a1 1 0 0 0 0-1.816l-34-15.75a1 1 0 0 0-.387-.092zM40 12.352L71.62 27l-12.102 5.607L40 41.648l-19.408-8.992a1 1 0 0 0-.252-.117L8.38 27 40 12.352zM20.031 34.604l1.338.619A1 1 0 0 0 21 36a1 1 0 0 0 1 1 1 1 0 0 0 1-1 1 1 0 0 0-.002-.021l7.031 3.255A1 1 0 0 0 31 40a1 1 0 0 0 .45-.107l2.413 1.119A1 1 0 0 0 33 42a1 1 0 0 0 1 1 1 1 0 0 0 1-1 1 1 0 0 0-.156-.535l4.736 2.193a1 1 0 0 0 .84 0l4.734-2.193A1 1 0 0 0 45 42a1 1 0 0 0 1 1 1 1 0 0 0 1-1 1 1 0 0 0-.861-.99l2.412-1.117A1 1 0 0 0 49 40a1 1 0 0 0 .97-.766L57 35.98a1 1 0 0 0 0 .02 1 1 0 0 0 1 1 1 1 0 0 0 1-1 1 1 0 0 0-.371-.775l1.34-.621L63 36.008A1 1 0 0 0 64 37a1 1 0 0 0 .64-.232L71.62 40l-9.747 4.516A1 1 0 0 0 61 44a1 1 0 0 0-1 1 1 1 0 0 0 .066.354l-.548.253-6.967 3.227A1 1 0 0 0 53 48a1 1 0 0 0-1-1 1 1 0 0 0-1 1 1 1 0 0 0 1 1 1 1 0 0 0 .283-.041L49.6 50.201A1 1 0 0 0 49 50a1 1 0 0 0-.998.941l-7.022 3.252A1 1 0 0 0 41 54a1 1 0 0 0-1-1 1 1 0 0 0-1 1 1 1 0 0 0 .02.193l-7.024-3.254A1 1 0 0 0 31 50a1 1 0 0 0-.6.201l-2.68-1.241A1 1 0 0 0 28 49a1 1 0 0 0 1-1 1 1 0 0 0-1-1 1 1 0 0 0-1 1 1 1 0 0 0 .445.832l-6.853-3.176a1 1 0 0 0-.252-.117l-.404-.187A1 1 0 0 0 20 45a1 1 0 0 0-1-1 1 1 0 0 0-.873.514L8.381 40l6.98-3.232A1 1 0 0 0 16 37a1 1 0 0 0 1-.992l3.031-1.404zM13 38a1 1 0 0 0-1 1 1 1 0 0 0 1 1 1 1 0 0 0 1-1 1 1 0 0 0-1-1zm6 0a1 1 0 0 0-1 1 1 1 0 0 0 1 1 1 1 0 0 0 1-1 1 1 0 0 0-1-1zm6 0a1 1 0 0 0-1 1 1 1 0 0 0 1 1 1 1 0 0 0 1-1 1 1 0 0 0-1-1zm30 0a1 1 0 0 0-1 1 1 1 0 0 0 1 1 1 1 0 0 0 1-1 1 1 0 0 0-1-1zm6 0a1 1 0 0 0-1 1 1 1 0 0 0 1 1 1 1 0 0 0 1-1 1 1 0 0 0-1-1zm6 0a1 1 0 0 0-1 1 1 1 0 0 0 1 1 1 1 0 0 0 1-1 1 1 0 0 0-1-1zm-51 3a1 1 0 0 0-1 1 1 1 0 0 0 1 1 1 1 0 0 0 1-1 1 1 0 0 0-1-1zm6 0a1 1 0 0 0-1 1 1 1 0 0 0 1 1 1 1 0 0 0 1-1 1 1 0 0 0-1-1zm6 0a1 1 0 0 0-1 1 1 1 0 0 0 1 1 1 1 0 0 0 1-1 1 1 0 0 0-1-1zm24 0a1 1 0 0 0-1 1 1 1 0 0 0 1 1 1 1 0 0 0 1-1 1 1 0 0 0-1-1zm6 0a1 1 0 0 0-1 1 1 1 0 0 0 1 1 1 1 0 0 0 1-1 1 1 0 0 0-1-1zm6 0a1 1 0 0 0-1 1 1 1 0 0 0 1 1 1 1 0 0 0 1-1 1 1 0 0 0-1-1zm-39 3a1 1 0 0 0-1 1 1 1 0 0 0 1 1 1 1 0 0 0 1-1 1 1 0 0 0-1-1zm6 0a1 1 0 0 0-1 1 1 1 0 0 0 1 1 1 1 0 0 0 1-1 1 1 0 0 0-1-1zm6 0a1 1 0 0 0-1 1 1 1 0 0 0 1 1 1 1 0 0 0 1-1 1 1 0 0 0-1-1zm6 0a1 1 0 0 0-1 1 1 1 0 0 0 1 1 1 1 0 0 0 1-1 1 1 0 0 0-1-1zm6 0a1 1 0 0 0-1 1 1 1 0 0 0 1 1 1 1 0 0 0 1-1 1 1 0 0 0-1-1zm6 0a1 1 0 0 0-1 1 1 1 0 0 0 1 1 1 1 0 0 0 1-1 1 1 0 0 0-1-1zm-21 3a1 1 0 0 0-1 1 1 1 0 0 0 1 1 1 1 0 0 0 1-1 1 1 0 0 0-1-1zm6 0a1 1 0 0 0-1 1 1 1 0 0 0 1 1 1 1 0 0 0 1-1 1 1 0 0 0-1-1zm6 0a1 1 0 0 0-1 1 1 1 0 0 0 1 1 1 1 0 0 0 1-1 1 1 0 0 0-1-1zm-25.969.604l19.55 9.054a1 1 0 0 0 .839 0l19.549-9.054L71.619 53 40 67.648 8.38 53l11.651-5.396zM37 50a1 1 0 0 0-1 1 1 1 0 0 0 1 1 1 1 0 0 0 1-1 1 1 0 0 0-1-1zm6 0a1 1 0 0 0-1 1 1 1 0 0 0 1 1 1 1 0 0 0 1-1 1 1 0 0 0-1-1z"/></svg>