<svg xmlns="http://www.w3.org/2000/svg" viewBox="0 0 48 48"><path d="M40 40H8a1.997 1.997 0 1 1-1.727-3.008l16-28A2.002 2.002 0 0 1 24 8c.71 0 1.367.379 1.727.992l16 28A1.997 1.997 0 0 1 40 40z" fill="#ffc107"/><path d="M22 34.14c0-.269.047-.511.145-.745a1.67 1.67 0 0 1 .402-.59c.172-.168.383-.301.625-.395.242-.09.515-.14.82-.14.309 0 .582.05.828.14.25.094.461.227.633.395.176.164.313.363.402.59.098.234.145.476.145.746s-.047.515-.145.742a1.727 1.727 0 0 1-.402.586 1.853 1.853 0 0 1-.633.394 2.39 2.39 0 0 1-.828.137 2.27 2.27 0 0 1-.82-.14 1.825 1.825 0 0 1-.625-.391 1.673 1.673 0 0 1-.402-.586A1.85 1.85 0 0 1 22 34.14M25.48 30h-2.972l-.422-12h3.812z" fill="#5d4037"/></svg>