<svg xmlns="http://www.w3.org/2000/svg" viewBox="0 0 50 50"><path d="M49.957 17.074a.994.994 0 0 0-.789-.695l-8.871-1.508 9.387-8.773c.277-.258.382-.657.273-1.02a.994.994 0 0 0-.789-.695L23.426.008a1.012 1.012 0 0 0-.774.191L.391 17.24A1 1 0 0 0 .75 19l9.73 2.51L.39 29.239c-.301.23-.446.617-.371.992.078.375.359.672.73.77l9.73 2.512L.39 41.234c-.3.23-.445.618-.37.993.078.375.359.671.73.77l26.992 6.968a1 1 0 0 0 .934-.238L49.684 30.09a1 1 0 0 0-.516-1.715l-8.871-1.508 9.387-8.773c.277-.258.382-.657.273-1.02zm-3.113 12.938L27.714 47.89 3.239 41.57l9.465-7.243c.074-.055.121-.129.176-.2l14.863 3.84c.086.02.168.028.25.028a1 1 0 0 0 .684-.27l9.781-9.14zM27.71 35.895l-24.473-6.32 9.703-7.427 14.801 3.82a1 1 0 0 0 .934-.238l9.781-9.144 8.387 1.426z"/></svg>