<svg xmlns="http://www.w3.org/2000/svg" viewBox="0 0 80 80"><path style="line-height:normal;text-indent:0;text-align:start;text-decoration-line:none;text-decoration-style:solid;text-decoration-color:#000;text-transform:none;block-progression:tb;isolation:auto;mix-blend-mode:normal" d="M40 7C21.786 7 7 21.786 7 40s14.786 33 33 33 33-14.786 33-33S58.214 7 40 7zm0 2c17.133 0 31 13.867 31 31S57.133 71 40 71 9 57.133 9 40 22.867 9 40 9zm0 2a1 1 0 0 0-1 1 1 1 0 0 0 1 1 1 1 0 0 0 1-1 1 1 0 0 0-1-1zm7.996 1l-.8.404-.153.883.158.315.06.08.803.398.8-.406.154-.881-.159-.314-.06-.08-.803-.399zm-15.644.064l-.891.094-.26.24-.06.08-.16.881.607.657.892-.094.258-.24.06-.08.163-.881-.61-.657zM40 15a1 1 0 0 0-1 1 1 1 0 0 0 1 1 1 1 0 0 0 1-1 1 1 0 0 0-1-1zm10.291.506l-.853.271-.295.846.105.336.047.09.728.521.854-.27.295-.847-.106-.336-.046-.088-.729-.523zm-20.23.008l-.864.236-.217.28-.046.087-.016.897.707.55.863-.238.217-.277.047-.09.018-.895-.71-.55zM40 19a1 1 0 0 0-1 1 1 1 0 0 0 1 1 1 1 0 0 0 1-1 1 1 0 0 0-1-1zm18.848.012l-.73.517-.022.897.203.287.072.07.852.276.732-.52.022-.894-.206-.288-.07-.07-.853-.275zm-38.258.076l-.291.2-.07.07-.291.847.505.738.895.04.29-.2.073-.07.29-.848-.505-.74-.896-.037zm7.713.168l-.826.348-.178.304-.035.094.1.89.773.454.824-.348.18-.305.033-.093-.1-.891-.771-.453zm23.746.039l-.883.156-.402.801.062.348.033.093.655.614.882-.159.403-.8-.063-.346-.035-.094-.652-.613zm9.562 2.916l-.828.342-.222.867.134.326.053.084.77.461.828-.342.222-.869-.134-.324-.053-.086-.77-.46zm-42.873.037l-.88.164-.239.258-.053.086-.093.89.658.608.88-.164.241-.26.053-.084.093-.89-.66-.608zM40 23a1 1 0 0 0-1 1 1 1 0 0 0 1 1 1 1 0 0 0 1-1 1 1 0 0 0-1-1zm-13.041.156l-.79.422-.15.32-.025.096.182.879.81.379.791-.422.149-.318.025-.098-.18-.877-.812-.38zm26.426.073l-.893.074-.474.76.03.351.026.098.594.67.893-.077.474-.76-.03-.35-.025-.097-.595-.67zm-36.711 2.61l-.842.306-.195.294-.04.092.053.895.75.492.842-.305.194-.295.039-.091-.053-.895-.748-.492zm47.004.022l-.873.201-.36.82.08.345.04.091.683.578.873-.203.361-.82-.08-.342-.039-.092-.685-.578zM40 27a1 1 0 0 0-1 1 1 1 0 0 0 1 1 1 1 0 0 0 1-1 1 1 0 0 0-1-1zm-14.06.156l-.747.494-.119.332-.017.1.263.855.844.303.748-.496.117-.33.018-.1-.264-.857-.844-.3zm27.562.094l-.545.713-.004.351.018.1.527.723.897.01.544-.713.004-.352-.017-.1-.53-.722-.894-.01zm-38.3 2.45l-.8.402-.158.316-.027.096.158.88.803.4.8-.401.157-.317.03-.096-.161-.88-.803-.4zm49.943.062l-.891.097-.455.772.037.35.03.095.609.656.892-.097.455-.772-.039-.35-.027-.095-.611-.656zM40 31a1 1 0 0 0-1 1 1 1 0 0 0 1 1 1 1 0 0 0 1-1 1 1 0 0 0-1-1zm-14.71.217l-.724.531-.103.336-.012.1.305.843.857.262.723-.531.102-.338.011-.098-.303-.843-.857-.262zm28.858.068l-.578.684-.02.353.013.098.494.748.892.053.578-.686.022-.351-.012-.1-.494-.748-.895-.05zM14.25 33.72l-.742.502-.117.332-.016.097.27.856.845.297.742-.5.118-.334.015-.098-.27-.855-.845-.297zm50.94.092l-.55.707-.005.353.015.098.524.726.896.018.55-.71.005-.353-.016-.097-.523-.727-.897-.015zM40 35a1 1 0 0 0-1 1 1 1 0 0 0 1 1 1 1 0 0 0 1-1 1 1 0 0 0-1-1zm-15.111.31l-.696.565-.088.342-.005.1.343.826.868.22.697-.564.086-.342.008-.1-.344-.828-.87-.218zm29.656.04l-.61.658-.037.35.008.099.457.772.89.093.61-.656.037-.35-.005-.1-.458-.77-.892-.096zm-40.76 2.476l-.674.592-.072.344-.004.101.377.813.875.185.674-.591.074-.344.002-.1-.375-.814-.877-.186zm51.863.018l-.634.633-.051.35.002.099.428.787.886.13.635-.632.05-.348-.003-.101-.426-.787-.887-.131zM40 39a1 1 0 0 0-1 1 1 1 0 0 0 1 1 1 1 0 0 0 1-1 1 1 0 0 0-1-1zm14.73.42l-.67.596-.068.345-.004.1.383.81.879.178.668-.595.07-.346.002-.1-.383-.81-.877-.178zm-30.027.014l-.64.627-.053.347.002.1.42.79.884.14.641-.627.055-.35-.004-.1-.42-.79-.885-.137zm40.99 2.474l-.71.547-.096.34-.008.1.322.835.863.24.71-.544.095-.34.01-.1-.324-.836-.862-.242zm-51.949.055l-.594.672-.029.351.01.1.476.758.893.074.594-.672.027-.351-.008-.1-.476-.76-.893-.072zM40 43a1 1 0 0 0-1 1 1 1 0 0 0 1 1 1 1 0 0 0 1-1 1 1 0 0 0-1-1zm14.627.504l-.695.564-.088.342-.006.1.344.828.867.22.697-.564.086-.342.008-.1-.344-.827-.869-.221zm-29.82.04l-.61.657-.037.352.008.1.457.769.89.096.61-.657.037-.351-.006-.1-.457-.77-.892-.095zm40.482 2.411l-.773.453-.137.324-.024.098.215.871.826.348.774-.451.137-.325.021-.097-.213-.871-.826-.35zm-50.236.086l-.895.041-.504.74.018.354.021.097.569.692.894-.041.504-.742-.015-.352-.024-.098-.568-.691zM40 47a1 1 0 0 0-1 1 1 1 0 0 0 1 1 1 1 0 0 0 1-1 1 1 0 0 0-1-1zm14.285.576l-.722.53-.104.337-.012.1.305.842.855.261.723-.529.104-.338.011-.1-.304-.843-.856-.26zm-29.133.067l-.576.685-.021.352.011.1.495.747.894.053.576-.685.022-.352-.012-.1-.494-.748-.895-.052zm39.217 2.275l-.824.353-.176.305-.033.094.105.89.776.448.824-.354.176-.304.033-.094-.105-.89-.776-.448zm-48.389.041l-.882.15-.409.8.061.347.033.094.65.617.883-.15.409-.8-.06-.347-.034-.094-.65-.617zM40 51a1 1 0 0 0-1 1 1 1 0 0 0 1 1 1 1 0 0 0 1-1 1 1 0 0 0-1-1zm13.713.607l-.77.46-.134.326-.022.097.223.87.828.341.77-.459.134-.326.022-.098-.223-.869-.828-.342zm-27.084.088l-.895.034-.51.736.012.353.022.098.562.697.897-.033.51-.736-.014-.354-.022-.097-.562-.698zm-9.18 2.016l-.86.252-.314.84.1.338.045.09.717.537.86-.25.312-.84-.098-.34-.045-.088-.717-.54zm45.453 0l-.857.256-.211.283-.045.088.004.896.719.536.857-.256.211-.284.045-.09-.002-.896-.72-.533zM40 55a1 1 0 0 0-1 1 1 1 0 0 0 1 1 1 1 0 0 0 1-1 1 1 0 0 0-1-1zm12.79.588l-.792.422-.148.32-.026.096.18.877.812.38.79-.421.15-.319.025-.097-.181-.877-.81-.381zm-25.233.072l-.893.074-.475.76.03.352.025.097.596.67.892-.076.475-.76-.031-.351-.026-.096-.593-.67zm-8.121 1.51l-.803.398-.16.883.156.315.06.08.8.404.802-.398.16-.881-.156-.317-.059-.08-.8-.404zm41.476.06l-.89.102-.258.242-.059.08-.154.883.613.652.89-.101.257-.242.06-.08.154-.883-.613-.653zM40 59a1 1 0 0 0-1 1 1 1 0 0 0 1 1 1 1 0 0 0 1-1 1 1 0 0 0-1-1zm11.607.475l-.84.31-.193.295-.037.094.059.892.752.489.84-.31.193-.296.037-.094-.059-.892-.752-.488zm-22.863.023l-.873.197-.367.817.078.343.037.094.682.582.875-.197.365-.816-.078-.344-.037-.094-.682-.582zM40 63a1 1 0 0 0-1 1 1 1 0 0 0 1 1 1 1 0 0 0 1-1 1 1 0 0 0-1-1zm-9.62.2l-.853.27-.295.846.108.336.045.088.728.524.856-.272.293-.846-.106-.335-.047-.088-.728-.524zm19.59.007l-.863.236-.216.28-.047.088-.018.896.707.549.865-.236.217-.28.045-.088.018-.896-.707-.549zM40 67a1 1 0 0 0-1 1 1 1 0 0 0 1 1 1 1 0 0 0 1-1 1 1 0 0 0-1-1z"/></svg>