<svg xmlns="http://www.w3.org/2000/svg" viewBox="0 0 80 80"><path d="M40 7c-7.61 0-14.358 3.723-18.547 9.434L10.555 9.168a1 1 0 0 0-.565-.176 1 1 0 0 0-.545 1.84l60 40a1 1 0 1 0 1.11-1.664L59.58 41.852C61.631 37.312 63 33.122 63 30 63 17.317 52.682 7 40 7zm0 2c11.58 0 21 9.421 21 21 0 2.781-1.23 6.572-3.098 10.732l-11.586-7.724A6.93 6.93 0 0 0 47 30c0-3.859-3.14-7-7-7a6.965 6.965 0 0 0-5.2 2.332l-11.663-7.777C26.962 12.378 33.083 9 40 9zm0 2a1 1 0 0 0-1 1 1 1 0 0 0 1 1 1 1 0 0 0 1-1 1 1 0 0 0-1-1zm-4.72.613a1 1 0 0 0-.2.033 1 1 0 0 0-.707 1.227 1 1 0 0 0 1.225.707 1 1 0 0 0 .709-1.226 1 1 0 0 0-.928-.74 1 1 0 0 0-.1 0zm9.37.002a1 1 0 0 0-.957.742 1 1 0 0 0 .707 1.225 1 1 0 0 0 1.225-.707 1 1 0 0 0-.707-1.225 1 1 0 0 0-.268-.035zm-13.675 1.797a1 1 0 0 0-.477.135 1 1 0 0 0-.365 1.365 1 1 0 0 0 1.365.367 1 1 0 0 0 .367-1.367 1 1 0 0 0-.89-.5zm17.976.002a1 1 0 0 0-.818.5 1 1 0 0 0 .367 1.365 1 1 0 0 0 1.365-.365 1 1 0 0 0-.365-1.367 1 1 0 0 0-.549-.133zm-21.664 2.857a1 1 0 0 0-.723.293 1 1 0 0 0 0 1.415 1 1 0 0 0 1.415 0 1 1 0 0 0 0-1.415 1 1 0 0 0-.692-.293zm25.453 0a1 1 0 0 0-.72.293 1 1 0 0 0 0 1.415 1 1 0 0 0 1.414 0 1 1 0 0 0 0-1.415 1 1 0 0 0-.694-.293zm-33.297 3.43A22.852 22.852 0 0 0 17 30c0 12.337 21.29 41.363 22.195 42.594L40 73.686l.805-1.092c.619-.841 10.745-14.65 17.103-27.25l-1.672-1.115C50.881 54.847 42.597 66.67 40 70.295 36.057 64.793 19 40.389 19 30c0-3.291.782-6.395 2.137-9.17l-1.694-1.129zm36.12.299a1 1 0 0 0-.477.133 1 1 0 0 0-.365 1.367 1 1 0 0 0 1.365.365 1 1 0 0 0 .365-1.365 1 1 0 0 0-.889-.5zm1.86 4.342a1 1 0 0 0-.296.033 1 1 0 0 0-.709 1.225 1 1 0 0 0 1.227.707 1 1 0 0 0 .707-1.225 1 1 0 0 0-.928-.74zm-34.82.002a1 1 0 0 0-.957.74 1 1 0 0 0 .708 1.225 1 1 0 0 0 1.224-.707 1 1 0 0 0-.707-1.225 1 1 0 0 0-.267-.033zM40 25c2.757 0 5 2.243 5 5a4.9 4.9 0 0 1-.375 1.88l-8.129-5.42A4.953 4.953 0 0 1 40 25zm-6.89 3.81A6.96 6.96 0 0 0 33 30c0 3.859 3.14 7 7 7a6.949 6.949 0 0 0 3.746-1.098l-1.898-1.265A4.962 4.962 0 0 1 40 35c-2.731 0-4.95-2.204-4.992-4.924l-1.899-1.265zM22 29a1 1 0 0 0-1 1 1 1 0 0 0 1 1 1 1 0 0 0 1-1 1 1 0 0 0-1-1zm36 0a1 1 0 0 0-1 1 1 1 0 0 0 1 1 1 1 0 0 0 1-1 1 1 0 0 0-1-1zm-35.35 4.66a1 1 0 0 0-.296.033 1 1 0 0 0-.708 1.225 1 1 0 0 0 1.225.707 1 1 0 0 0 .707-1.225 1 1 0 0 0-.928-.74zm34.727.002a1 1 0 0 0-.957.74 1 1 0 0 0 .707 1.225 1 1 0 0 0 1.225-.707 1 1 0 0 0-.707-1.225 1 1 0 0 0-.268-.033z"/></svg>