<svg xmlns="http://www.w3.org/2000/svg" viewBox="0 0 80 80"><path style="line-height:normal;text-indent:0;text-align:start;text-decoration-line:none;text-decoration-style:solid;text-decoration-color:#000;text-transform:none;block-progression:tb;isolation:auto;mix-blend-mode:normal" d="M24 9a1 1 0 0 0-1 1 1 1 0 0 0 1 1 1 1 0 0 0 1-1 1 1 0 0 0-1-1zm-3.615.477a1 1 0 0 0-.07.002 1 1 0 0 0-.198.033 1 1 0 0 0-.707 1.224 1 1 0 0 0 1.225.707 1 1 0 0 0 .707-1.224 1 1 0 0 0-.957-.742zm7.23.002a1 1 0 0 0-.957.74 1 1 0 0 0 .707 1.224 1 1 0 0 0 1.225-.707 1 1 0 0 0-.707-1.224 1 1 0 0 0-.268-.033zm-10.638 1.398a1 1 0 0 0-.477.133 1 1 0 0 0-.365 1.367 1 1 0 0 0 1.365.365 1 1 0 0 0 .365-1.365 1 1 0 0 0-.888-.5zm13.976 0a1 1 0 0 0-.818.5 1 1 0 0 0 .365 1.365 1 1 0 0 0 1.365-.365 1 1 0 0 0-.365-1.367 1 1 0 0 0-.547-.133zM14.115 13.1a1 1 0 0 0-.72.293 1 1 0 0 0 0 1.414 1 1 0 0 0 1.414 0 1 1 0 0 0 0-1.414 1 1 0 0 0-.694-.293zm19.8.002a1 1 0 0 0-.722.293 1 1 0 0 0 0 1.414 1 1 0 0 0 1.414 0 1 1 0 0 0 0-1.414 1 1 0 0 0-.693-.293zM36.1 16a1 1 0 0 0-.477.133 1 1 0 0 0-.365 1.367 1 1 0 0 0 1.365.365 1 1 0 0 0 .365-1.365 1 1 0 0 0-.888-.5zm-24.272.002a1 1 0 0 0-.818.498 1 1 0 0 0 .367 1.365 1 1 0 0 0 1.365-.365 1 1 0 0 0-.365-1.365 1 1 0 0 0-.549-.133zM24 19c-2.75 0-5 2.25-5 5s2.25 5 5 5 5-2.25 5-5-2.25-5-5-5zm-13.531.377a1 1 0 0 0-.957.742 1 1 0 0 0 .707 1.225 1 1 0 0 0 1.224-.707 1 1 0 0 0-.707-1.227 1 1 0 0 0-.267-.033zm27.062 0a1 1 0 0 0-.07.002 1 1 0 0 0-.197.033 1 1 0 0 0-.707 1.225 1 1 0 0 0 1.224.707 1 1 0 0 0 .707-1.225 1 1 0 0 0-.957-.742zM24 21c1.669 0 3 1.331 3 3s-1.331 3-3 3-3-1.331-3-3 1.331-3 3-3zM9.984 22.986A1 1 0 0 0 9 24c0 5.167 3.627 11.66 7.164 17.049 3.537 5.39 7.07 9.594 7.07 9.594l.784.933.761-.951s3.528-4.394 7.06-9.875C35.373 35.27 39 28.823 39 24a1 1 0 1 0-2 0c0 3.733-3.372 10.286-6.84 15.666-3.098 4.808-5.576 7.886-6.201 8.676-.953-1.168-3.305-4.097-6.123-8.39C14.373 34.673 11 28.165 11 24a1 1 0 0 0-1.016-1.014zM56 30a1 1 0 0 0-1 1 1 1 0 0 0 1 1 1 1 0 0 0 1-1 1 1 0 0 0-1-1zm-3.586.479a1 1 0 0 0-.297.033 1 1 0 0 0-.707 1.224 1 1 0 0 0 1.225.707 1 1 0 0 0 .707-1.224 1 1 0 0 0-.928-.74zm7.201.001a1 1 0 0 0-.957.74 1 1 0 0 0 .707 1.225 1 1 0 0 0 1.225-.707 1 1 0 0 0-.707-1.224 1 1 0 0 0-.268-.034zm-10.64 1.395a1 1 0 0 0-.477.135 1 1 0 0 0-.365 1.365 1 1 0 0 0 1.365.367 1 1 0 0 0 .367-1.367 1 1 0 0 0-.89-.5zm13.978.004a1 1 0 0 0-.82.498 1 1 0 0 0 .367 1.367 1 1 0 0 0 1.365-.367 1 1 0 0 0-.365-1.365 1 1 0 0 0-.547-.133zm-16.838 2.22a1 1 0 0 0-.72.294 1 1 0 0 0 0 1.414 1 1 0 0 0 1.414 0 1 1 0 0 0 0-1.414 1 1 0 0 0-.694-.293zm19.8.003a1 1 0 0 0-.724.293 1 1 0 0 0 0 1.414 1 1 0 0 0 1.414 0 1 1 0 0 0 0-1.414 1 1 0 0 0-.69-.293zM68.1 37a1 1 0 0 0-.477.133 1 1 0 0 0-.367 1.367 1 1 0 0 0 1.367.365 1 1 0 0 0 .365-1.365 1 1 0 0 0-.888-.5zm-24.272.002a1 1 0 0 0-.818.498 1 1 0 0 0 .365 1.367 1 1 0 0 0 1.365-.367 1 1 0 0 0-.365-1.365 1 1 0 0 0-.547-.133zM56 40c-2.75 0-5 2.25-5 5s2.25 5 5 5 5-2.25 5-5-2.25-5-5-5zm-13.533.379a1 1 0 0 0-.955.74 1 1 0 0 0 .707 1.225 1 1 0 0 0 1.224-.707 1 1 0 0 0-.707-1.225 1 1 0 0 0-.27-.033zm27.094 0a1 1 0 0 0-.297.033 1 1 0 0 0-.707 1.225 1 1 0 0 0 1.224.707 1 1 0 0 0 .707-1.225 1 1 0 0 0-.927-.74zM56 42c1.669 0 3 1.331 3 3s-1.331 3-3 3-3-1.331-3-3 1.331-3 3-3zm-14.016 1.986A1 1 0 0 0 41 45c0 5.167 3.627 11.66 7.164 17.049 3.537 5.39 7.07 9.594 7.07 9.594l.784.933.761-.951s3.528-4.394 7.06-9.875C67.373 56.27 71 49.823 71 45a1 1 0 1 0-2 0c0 3.733-3.372 10.286-6.84 15.666-3.098 4.808-5.576 7.886-6.201 8.676-.953-1.168-3.305-4.097-6.123-8.39C46.373 55.673 43 49.165 43 45a1 1 0 0 0-1.016-1.014z"/></svg>