<svg xmlns="http://www.w3.org/2000/svg" viewBox="0 0 80 80"><path style="line-height:normal;text-indent:0;text-align:start;text-decoration-line:none;text-decoration-style:solid;text-decoration-color:#000;text-transform:none;block-progression:tb;isolation:auto;mix-blend-mode:normal" d="M29.324 5.586L14.586 20.324l11.338 11.338-1.18 1.182c-1.42 1.42-1.93 3.39-1.584 5.232C20.85 37.434 18.454 37 15.941 37c-.085 0-.322.006-.552.074-.23.069-.449.18-.7.336-.501.314-1.173.84-2.345 1.86l-.809.703L22.34 50.777A4.992 4.992 0 0 0 20 55c0 2.75 2.25 5 5 5a4.992 4.992 0 0 0 4.223-2.34l10.804 10.805.703-.809c1.02-1.172 1.546-1.844 1.86-2.345.157-.251.267-.47.336-.7.068-.23.074-.467.074-.552 0-2.512-.434-4.908-1.076-7.217 1.841.345 3.812-.164 5.232-1.584l1.182-1.18 11.338 11.336 14.738-14.738-.707-.707-10.742-10.742c2.684-3.264 2.614-8.062-.434-11.11L51.883 17.47c-3.048-3.048-7.846-3.118-11.11-.434L29.324 5.585zm0 2.828l11.338 11.338.87-.87a6.304 6.304 0 0 1 8.937 0l10.648 10.65a6.304 6.304 0 0 1 0 8.937l-.869.869 11.338 11.338-11.91 11.91-11.338-11.338-2.596 2.596a3.86 3.86 0 0 1-4.75.56l-2.416-1.47.955 2.662A24.992 24.992 0 0 1 41 64.056s-.015.05-.105.194c-.117.187-.631.793-1.002 1.252L14.498 40.107c.459-.37 1.066-.885 1.252-1.002.144-.09.193-.105.193-.105 2.973 0 5.817.52 8.461 1.469l2.662.955-1.468-2.416a3.86 3.86 0 0 1 .56-4.75l2.594-2.596-11.338-11.338 11.91-11.91zM39 20a1 1 0 0 0-1 1 1 1 0 0 0 1 1 1 1 0 0 0 1-1 1 1 0 0 0-1-1zm-3 3a1 1 0 0 0-1 1 1 1 0 0 0 1 1 1 1 0 0 0 1-1 1 1 0 0 0-1-1zm-3 3a1 1 0 0 0-1 1 1 1 0 0 0 1 1 1 1 0 0 0 1-1 1 1 0 0 0-1-1zm-3 3a1 1 0 0 0-1 1 1 1 0 0 0 1 1 1 1 0 0 0 1-1 1 1 0 0 0-1-1zm29 11a1 1 0 0 0-1 1 1 1 0 0 0 1 1 1 1 0 0 0 1-1 1 1 0 0 0-1-1zm-29 3a1 1 0 0 0-1 1 1 1 0 0 0 1 1 1 1 0 0 0 1-1 1 1 0 0 0-1-1zm26 0a1 1 0 0 0-1 1 1 1 0 0 0 1 1 1 1 0 0 0 1-1 1 1 0 0 0-1-1zm-23 3a1 1 0 0 0-1 1 1 1 0 0 0 1 1 1 1 0 0 0 1-1 1 1 0 0 0-1-1zm20 0a1 1 0 0 0-1 1 1 1 0 0 0 1 1 1 1 0 0 0 1-1 1 1 0 0 0-1-1zm-17 3a1 1 0 0 0-1 1 1 1 0 0 0 1 1 1 1 0 0 0 1-1 1 1 0 0 0-1-1zm14 0a1 1 0 0 0-1 1 1 1 0 0 0 1 1 1 1 0 0 0 1-1 1 1 0 0 0-1-1zm-40.465.86a1 1 0 0 0-.957.742 1 1 0 0 0 .707 1.224 1 1 0 0 0 1.225-.707 1 1 0 0 0-.707-1.224 1 1 0 0 0-.268-.036zm6.248.312a1 1 0 0 0-.945.617 1 1 0 0 0 .54 1.307 1 1 0 0 0 1.308-.541 1 1 0 0 0-.541-1.307 1 1 0 0 0-.362-.076zm8.03 2.078l3.935 3.936a1 1 0 0 0-.02.043A2.985 2.985 0 0 1 25 58c-1.668 0-3-1.332-3-3 0-1.224.728-2.258 1.771-2.729a1 1 0 0 0 .041-.021zM9 54a1 1 0 0 0-1 1 1 1 0 0 0 1 1 1 1 0 0 0 1-1 1 1 0 0 0-1-1zm6 0a1 1 0 0 0-1 1 1 1 0 0 0 1 1 1 1 0 0 0 1-1 1 1 0 0 0-1-1zm.77 3.826a1 1 0 0 0-.391.076 1 1 0 0 0-.541 1.307 1 1 0 0 0 1.307.541 1 1 0 0 0 .54-1.307 1 1 0 0 0-.915-.617zm-6.217.315a1 1 0 0 0-.07.002 1 1 0 0 0-.198.033 1 1 0 0 0-.707 1.224 1 1 0 0 0 1.225.707 1 1 0 0 0 .707-1.224 1 1 0 0 0-.957-.742zm8.39 2.93a1 1 0 0 0-.722.292 1 1 0 0 0 0 1.414 1 1 0 0 0 1.414 0 1 1 0 0 0 0-1.414 1 1 0 0 0-.692-.293zm-6.824.927a1 1 0 0 0-.476.135 1 1 0 0 0-.366 1.365 1 1 0 0 0 1.366.365 1 1 0 0 0 .367-1.365 1 1 0 0 0-.89-.5zm10.078 1.24a1 1 0 0 0-.947.617 1 1 0 0 0 .543 1.307 1 1 0 0 0 1.307-.54 1 1 0 0 0-.543-1.308 1 1 0 0 0-.36-.076zm7.639 0a1 1 0 0 0-.39.076 1 1 0 0 0-.542 1.307 1 1 0 0 0 1.307.541 1 1 0 0 0 .541-1.307 1 1 0 0 0-.916-.617zM25 64a1 1 0 0 0-1 1 1 1 0 0 0 1 1 1 1 0 0 0 1-1 1 1 0 0 0-1-1zm-11.299 1.314a1 1 0 0 0-.722.293 1 1 0 0 0 0 1.414 1 1 0 0 0 1.414 0 1 1 0 0 0 0-1.414 1 1 0 0 0-.692-.293zm3.25 2.543a1 1 0 0 0-.818.5 1 1 0 0 0 .365 1.366 1 1 0 0 0 1.367-.366 1 1 0 0 0-.367-1.367 1 1 0 0 0-.547-.133zm3.899 1.598a1 1 0 0 0-.957.742 1 1 0 0 0 .707 1.225 1 1 0 0 0 1.224-.707 1 1 0 0 0-.707-1.225 1 1 0 0 0-.267-.035zm8.298 0a1 1 0 0 0-.07.002 1 1 0 0 0-.197.033 1 1 0 0 0-.707 1.225 1 1 0 0 0 1.224.707 1 1 0 0 0 .707-1.225 1 1 0 0 0-.957-.742zM25 70a1 1 0 0 0-1 1 1 1 0 0 0 1 1 1 1 0 0 0 1-1 1 1 0 0 0-1-1z"/></svg>