<svg xmlns="http://www.w3.org/2000/svg" viewBox="0 0 64 64"><path d="M27 55V4a1.999 1.999 0 1 1 4 0v51" fill="#ffefb8"/><path d="M39 59H19l1.8-2.398A3.998 3.998 0 0 1 24 55h10a4 4 0 0 1 3.2 1.602z" fill="#f6d397"/><path d="M43 63H15a1.999 1.999 0 1 1 0-4h28a1.999 1.999 0 1 1 0 4z" fill="#c2cde7"/><path d="M8 43h39a2 2 0 0 0 2-2V29a2 2 0 0 0-2-2H8c-.629 0-1.223.297-1.602.8l-4.5 6a2.004 2.004 0 0 0 0 2.4l4.5 6c.38.503.973.8 1.602.8z" fill="#f9e3ae"/><path d="M1.5 35c0 .434.14.855.398 1.2l4.5 6c.38.503.973.8 1.602.8h39a2 2 0 0 0 2-2v-6z" fill="#f6d397"/><path d="M54 23H15a2 2 0 0 1-2-2V9a2 2 0 0 1 2-2h39c.629 0 1.223.297 1.602.8l4.5 6a2.01 2.01 0 0 1 0 2.4l-4.5 6c-.38.503-.973.8-1.602.8z" fill="#81d6bb"/><path d="M60 15c0 .434-.14.855-.398 1.2l-4.5 6c-.38.503-.973.8-1.602.8h-39a2 2 0 0 1-2-2v-6z" fill="#72caaf"/><path d="M60.898 13.2l-4.5-6A2.999 2.999 0 0 0 54 6H32V4a3 3 0 0 0-6 0v2H15a3 3 0 0 0-3 3v12a3 3 0 0 0 3 3h11v2H8c-.945 0-1.832.445-2.398 1.2l-4.5 6a3 3 0 0 0 0 3.6l4.5 6A2.999 2.999 0 0 0 8 44h18v10h-2a5.004 5.004 0 0 0-4 2l-1.5 2H15a3 3 0 0 0 0 6h28a3 3 0 0 0 0-6h-3.5L38 56a5.004 5.004 0 0 0-4-2h-2V44h15a3 3 0 0 0 3-3V29a3 3 0 0 0-3-3H32v-2h22c.945 0 1.832-.445 2.398-1.2l4.5-6a3 3 0 0 0 0-3.6zM28 4c0-.55.45-1 1-1s1 .45 1 1v2h-2zm15 56c.55 0 1 .45 1 1s-.45 1-1 1H15c-.55 0-1-.45-1-1s.45-1 1-1zm-6.602-2.8L37 58H21l.602-.8A2.999 2.999 0 0 1 24 56h10c.945 0 1.832.445 2.398 1.2zM30 54h-2V44h2zm18-25v12c0 .55-.45 1-1 1H8c-.316 0-.61-.148-.8-.398l-4.5-6a1.008 1.008 0 0 1 0-1.204l4.5-6c.19-.25.484-.398.8-.398h39c.55 0 1 .45 1 1zm-18-3h-2v-2h2zm29.3-10.398l-4.5 6c-.19.25-.484.398-.8.398H15c-.55 0-1-.45-1-1V9c0-.55.45-1 1-1h39c.316 0 .61.148.8.398l4.5 6c.266.356.266.848 0 1.204z" fill="#8d6c9f"/><path d="M53 10h-4c-.55 0-1 .45-1 1s.45 1 1 1h4c.55 0 1-.45 1-1s-.45-1-1-1zm-8 0H17c-.55 0-1 .45-1 1s.45 1 1 1h28c.55 0 1-.45 1-1s-.45-1-1-1zm-6 27c.55 0 1-.45 1-1v-2c0-.55-.45-1-1-1s-1 .45-1 1v2c0 .55.45 1 1 1zm5 0c.55 0 1-.45 1-1v-2c0-.55-.45-1-1-1s-1 .45-1 1v2c0 .55.45 1 1 1zm-10 0c.55 0 1-.45 1-1v-2c0-.55-.45-1-1-1s-1 .45-1 1v2c0 .55.45 1 1 1zm-5 0c.55 0 1-.45 1-1v-2c0-.55-.45-1-1-1s-1 .45-1 1v2c0 .55.45 1 1 1zm-5 0c.55 0 1-.45 1-1v-2c0-.55-.45-1-1-1s-1 .45-1 1v2c0 .55.45 1 1 1zm-5 0c.55 0 1-.45 1-1v-2c0-.55-.45-1-1-1s-1 .45-1 1v2c0 .55.45 1 1 1zm-5 0c.55 0 1-.45 1-1v-2c0-.55-.45-1-1-1s-1 .45-1 1v2c0 .55.45 1 1 1zm-6-1c0 .55.45 1 1 1s1-.45 1-1v-2c0-.55-.45-1-1-1s-1 .45-1 1z" fill="#8d6c9f"/></svg>