<svg xmlns="http://www.w3.org/2000/svg" viewBox="0 0 80 80"><path d="M39.984 3.986A1 1 0 0 0 39 5v5.025C23.239 10.544 10.544 23.24 10.025 39H5a1 1 0 1 0 0 2h5.025C10.544 56.761 23.24 69.456 39 69.975V75a1 1 0 1 0 2 0v-5.025C56.761 69.456 69.456 56.76 69.975 41H75a1 1 0 0 0 .1-.004A1 1 0 0 0 75 39h-5.025C69.456 23.239 56.76 10.544 41 10.025V5a1 1 0 0 0-1.016-1.014zM39 12.026V20a1 1 0 1 0 2 0v-7.975C55.678 12.541 67.46 24.322 67.975 39h-18.56l4.292-4.293a1 1 0 0 0-.727-1.717 1 1 0 0 0-.687.303L45.586 40l6.707 6.707a1 1 0 1 0 1.414-1.414L49.414 41h18.56C67.46 55.678 55.679 67.46 41 67.975V60a1 1 0 0 0-1.016-1.014A1 1 0 0 0 39 60v7.975C24.322 67.459 12.54 55.678 12.025 41h18.561l-4.293 4.293a1 1 0 1 0 1.414 1.414l5.912-5.912a1 1 0 0 0 .192-.191l.603-.604-.607-.607a1 1 0 0 0-.184-.186 1 1 0 0 0-.006-.004l-5.91-5.91a1 1 0 0 0-.717-.303 1 1 0 0 0-.697 1.717L30.586 39H12.025C12.541 24.322 24.322 12.54 39 12.025zm-3.676 3.435a1 1 0 0 0-.199.02 1 1 0 0 0-.787 1.175 1 1 0 0 0 1.176.785 1 1 0 0 0 .787-1.175 1 1 0 0 0-.977-.805zm9.385 0a1 1 0 0 0-1.006.805 1 1 0 0 0 .785 1.175 1 1 0 0 0 1.176-.785 1 1 0 0 0-.785-1.177 1 1 0 0 0-.17-.018zm-13.887 1.365a1 1 0 0 0-.388.076 1 1 0 0 0-.541 1.307 1 1 0 0 0 1.306.541 1 1 0 0 0 .541-1.307 1 1 0 0 0-.918-.617zm18.385 0a1 1 0 0 0-.947.617 1 1 0 0 0 .54 1.305 1 1 0 0 0 1.307-.541 1 1 0 0 0-.54-1.307 1 1 0 0 0-.36-.074zm4.147 2.217a1 1 0 0 0-.85.443 1 1 0 0 0 .275 1.387 1 1 0 0 0 1.387-.275 1 1 0 0 0-.275-1.387 1 1 0 0 0-.537-.168zm-26.676.002a1 1 0 0 0-.567.168 1 1 0 0 0-.275 1.387 1 1 0 0 0 1.387.275 1 1 0 0 0 .275-1.387 1 1 0 0 0-.82-.443zm-3.635 2.984a1 1 0 0 0-.72.293 1 1 0 0 0 0 1.414 1 1 0 0 0 1.413 0 1 1 0 0 0 0-1.414 1 1 0 0 0-.693-.293zm33.941.002a1 1 0 0 0-.722.291 1 1 0 0 0 0 1.416 1 1 0 0 0 1.414 0 1 1 0 0 0 0-1.416 1 1 0 0 0-.692-.29zm2.985 3.633a1 1 0 0 0-.567.168 1 1 0 0 0-.275 1.389 1 1 0 0 0 1.387.275 1 1 0 0 0 .275-1.387 1 1 0 0 0-.82-.445zm-39.905.002a1 1 0 0 0-.85.443 1 1 0 0 0 .276 1.389 1 1 0 0 0 1.387-.277 1 1 0 0 0-.275-1.387 1 1 0 0 0-.538-.168zm-2.214 4.148a1 1 0 0 0-.946.618 1 1 0 0 0 .541 1.306 1 1 0 0 0 1.307-.54 1 1 0 0 0-.541-1.307 1 1 0 0 0-.361-.077zm44.332 0a1 1 0 0 0-.389.077 1 1 0 0 0-.543 1.306 1 1 0 0 0 1.307.541 1 1 0 0 0 .543-1.306 1 1 0 0 0-.918-.618zm-45.694 4.504a1 1 0 0 0-1.008.805 1 1 0 0 0 .788 1.176 1 1 0 0 0 1.175-.785 1 1 0 0 0-.787-1.176 1 1 0 0 0-.168-.02zm47.057 0a1 1 0 0 0-.2.02 1 1 0 0 0-.784 1.176 1 1 0 0 0 1.175.785 1 1 0 0 0 .785-1.176 1 1 0 0 0-.976-.805zM40 38a2 2 0 0 0-2 2 2 2 0 0 0 2 2 2 2 0 0 0 2-2 2 2 0 0 0-2-2zm23.566 5.68a1 1 0 0 0-1.005.804 1 1 0 0 0 .785 1.176 1 1 0 0 0 1.175-.785 1 1 0 0 0-.785-1.176 1 1 0 0 0-.17-.02zm-47.1.002a1 1 0 0 0-.198.02 1 1 0 0 0-.786 1.175 1 1 0 0 0 1.176.787 1 1 0 0 0 .785-1.176 1 1 0 0 0-.976-.806zm45.731 4.502a1 1 0 0 0-.945.615 1 1 0 0 0 .541 1.306 1 1 0 0 0 1.307-.54 1 1 0 0 0-.541-1.307 1 1 0 0 0-.362-.074zm-44.361.002a1 1 0 0 0-.39.076 1 1 0 0 0-.542 1.306 1 1 0 0 0 1.307.541 1 1 0 0 0 .541-1.306 1 1 0 0 0-.916-.617zm42.14 4.146a1 1 0 0 0-.849.443 1 1 0 0 0 .275 1.387 1 1 0 0 0 1.389-.275 1 1 0 0 0-.277-1.387 1 1 0 0 0-.537-.168zm-39.917.002a1 1 0 0 0-.567.168 1 1 0 0 0-.277 1.389 1 1 0 0 0 1.387.275 1 1 0 0 0 .277-1.387 1 1 0 0 0-.82-.445zm2.984 3.637a1 1 0 0 0-.72.293 1 1 0 0 0 0 1.414 1 1 0 0 0 1.413 0 1 1 0 0 0 0-1.414 1 1 0 0 0-.693-.293zm33.94.002a1 1 0 0 0-.721.293 1 1 0 0 0 0 1.414 1 1 0 0 0 1.414 0 1 1 0 0 0 0-1.414 1 1 0 0 0-.694-.293zm-30.294 2.982a1 1 0 0 0-.85.443 1 1 0 0 0 .276 1.39 1 1 0 0 0 1.387-.278 1 1 0 0 0-.275-1.387 1 1 0 0 0-.538-.168zm26.66 0a1 1 0 0 0-.568.168 1 1 0 0 0-.275 1.387 1 1 0 0 0 1.387.275 1 1 0 0 0 .277-1.387 1 1 0 0 0-.82-.443zm-22.51 2.217a1 1 0 0 0-.944.617 1 1 0 0 0 .54 1.307 1 1 0 0 0 1.307-.541 1 1 0 0 0-.54-1.307 1 1 0 0 0-.362-.076zm18.354.002a1 1 0 0 0-.388.076 1 1 0 0 0-.541 1.307 1 1 0 0 0 1.306.54 1 1 0 0 0 .541-1.306 1 1 0 0 0-.918-.617zm-13.847 1.365a1 1 0 0 0-1.006.805 1 1 0 0 0 .785 1.176 1 1 0 0 0 1.176-.786 1 1 0 0 0-.785-1.175 1 1 0 0 0-.17-.02zm9.342 0a1 1 0 0 0-.2.02 1 1 0 0 0-.785 1.175 1 1 0 0 0 1.176.787 1 1 0 0 0 .785-1.175 1 1 0 0 0-.977-.807z"/></svg>