<svg xmlns="http://www.w3.org/2000/svg" viewBox="0 0 80 80"><path d="M39.984 4.986A1 1 0 0 0 39 6v6a1 1 0 1 0 2 0V6a1 1 0 0 0-1.016-1.014zm-4.06 3.28a1 1 0 0 0-.1.01 1 1 0 0 0-.861 1.12 1 1 0 0 0 1.121.862 1 1 0 0 0 .861-1.123 1 1 0 0 0-1.021-.87zm8.084.002a1 1 0 0 0-.953.869 1 1 0 0 0 .861 1.12 1 1 0 0 0 1.123-.86 1 1 0 0 0-.861-1.122 1 1 0 0 0-.17-.007zm-11.992.789a1 1 0 0 0-.297.035 1 1 0 0 0-.707 1.224 1 1 0 0 0 1.224.707 1 1 0 0 0 .707-1.224 1 1 0 0 0-.927-.742zm16 .002a1 1 0 0 0-.957.74 1 1 0 0 0 .707 1.224 1 1 0 0 0 1.224-.707 1 1 0 0 0-.707-1.224 1 1 0 0 0-.267-.033zm-19.871 1.3a1 1 0 0 0-.391.077 1 1 0 0 0-.541 1.306 1 1 0 0 0 1.307.541 1 1 0 0 0 .54-1.306 1 1 0 0 0-.915-.618zm23.74 0a1 1 0 0 0-.947.618 1 1 0 0 0 .54 1.306 1 1 0 0 0 1.307-.54 1 1 0 0 0-.54-1.307 1 1 0 0 0-.36-.077zm-27.408 1.795a1 1 0 0 0-.477.133 1 1 0 0 0-.367 1.365A1 1 0 0 0 25 14.02a1 1 0 0 0 .365-1.368 1 1 0 0 0-.888-.498zm30.976.002a1 1 0 0 0-.82.498A1 1 0 0 0 55 14.02a1 1 0 0 0 1.365-.366A1 1 0 0 0 56 12.29a1 1 0 0 0-.547-.133zm3.402 2.246a1 1 0 0 0-.777.391 1 1 0 0 0 .184 1.402 1 1 0 0 0 1.402-.183 1 1 0 0 0-.184-1.403 1 1 0 0 0-.625-.207zm-37.71.002a1 1 0 0 0-.07.002 1 1 0 0 0-.555.205 1 1 0 0 0-.184 1.403 1 1 0 0 0 1.402.183 1 1 0 0 0 .184-1.402 1 1 0 0 0-.777-.39zm40.79 2.674a1 1 0 0 0-.722.293 1 1 0 0 0 0 1.414 1 1 0 0 0 1.414 0 1 1 0 0 0 0-1.414 1 1 0 0 0-.691-.293zm-43.841.002a1 1 0 0 0-.721.293 1 1 0 0 0 0 1.414 1 1 0 0 0 1.414 0 1 1 0 0 0 0-1.414 1 1 0 0 0-.693-.293zm46.515 3.045a1 1 0 0 0-.07.002 1 1 0 0 0-.555.205 1 1 0 0 0-.183 1.402 1 1 0 0 0 1.402.184 1 1 0 0 0 .184-1.402 1 1 0 0 0-.778-.391zm-49.218.002a1 1 0 0 0-.778.39 1 1 0 0 0 .184 1.403 1 1 0 0 0 1.402-.184 1 1 0 0 0-.183-1.402 1 1 0 0 0-.625-.207zM66.822 23.5a1 1 0 0 0-.476.133A1 1 0 0 0 65.979 25a1 1 0 0 0 1.367.365A1 1 0 0 0 67.71 24a1 1 0 0 0-.889-.5zm-53.717.002a1 1 0 0 0-.818.498 1 1 0 0 0 .365 1.365A1 1 0 0 0 14.02 25a1 1 0 0 0-.368-1.365 1 1 0 0 0-.547-.133zm55.543 3.633a1 1 0 0 0-.388.076 1 1 0 0 0-.543 1.307 1 1 0 0 0 1.306.543 1 1 0 0 0 .541-1.307 1 1 0 0 0-.916-.62zm-57.265.002a1 1 0 0 0-.945.617 1 1 0 0 0 .54 1.307 1 1 0 0 0 1.307-.541 1 1 0 0 0-.54-1.307 1 1 0 0 0-.362-.076zm-1.336 3.84a1 1 0 0 0-.957.742 1 1 0 0 0 .707 1.224 1 1 0 0 0 1.224-.707 1 1 0 0 0-.707-1.224 1 1 0 0 0-.267-.035zm59.935.002a1 1 0 0 0-.296.033 1 1 0 0 0-.707 1.224 1 1 0 0 0 1.224.707 1 1 0 0 0 .707-1.224 1 1 0 0 0-.928-.74zm-60.76 3.976a1 1 0 0 0-.95.87 1 1 0 0 0 .86 1.12 1 1 0 0 0 1.122-.86 1 1 0 0 0-.861-1.122 1 1 0 0 0-.17-.008zm61.481 0a1 1 0 0 0-.1.008 1 1 0 0 0-.86 1.123 1 1 0 0 0 1.122.861 1 1 0 0 0 .862-1.123 1 1 0 0 0-1.024-.869zM6 39a1 1 0 1 0 0 2h6a1 1 0 1 0 0-2H6zm62 0a1 1 0 1 0 0 2h6a1 1 0 1 0 0-2h-6zM9.232 43.047a1 1 0 0 0-.1.008 1 1 0 0 0-.86 1.123 1 1 0 0 0 1.123.86 1 1 0 0 0 .86-1.122 1 1 0 0 0-1.023-.87zm61.463.004a1 1 0 0 0-.95.869 1 1 0 0 0 .859 1.121 1 1 0 0 0 1.123-.861 1 1 0 0 0-.862-1.121 1 1 0 0 0-.17-.008zm-60.601 3.972a1 1 0 0 0-.297.034 1 1 0 0 0-.707 1.224 1 1 0 0 0 1.224.71 1 1 0 0 0 .707-1.227 1 1 0 0 0-.927-.74zm59.84.002a1 1 0 0 0-.957.743 1 1 0 0 0 .707 1.224 1 1 0 0 0 1.224-.707 1 1 0 0 0-.707-1.226 1 1 0 0 0-.267-.034zm-1.27 3.836a1 1 0 0 0-.947.618 1 1 0 0 0 .54 1.306 1 1 0 0 0 1.307-.54 1 1 0 0 0-.54-1.307 1 1 0 0 0-.36-.077zm-57.295.002a1 1 0 0 0-.39.076 1 1 0 0 0-.541 1.307 1 1 0 0 0 1.306.541 1 1 0 0 0 .541-1.307 1 1 0 0 0-.916-.617zm1.76 3.635a1 1 0 0 0-.477.135 1 1 0 0 0-.365 1.365 1 1 0 0 0 1.365.367 1 1 0 0 0 .368-1.367 1 1 0 0 0-.891-.5zm53.67.006a1 1 0 0 0-.819.498 1 1 0 0 0 .366 1.365 1 1 0 0 0 1.365-.365 1 1 0 0 0-.365-1.365 1 1 0 0 0-.547-.133zm-2.22 3.363a1 1 0 0 0-.778.39 1 1 0 0 0 .185 1.403 1 1 0 0 0 1.403-.185 1 1 0 0 0-.186-1.4 1 1 0 0 0-.625-.208zm-49.155.002a1 1 0 0 0-.07.002 1 1 0 0 0-.555.205 1 1 0 0 0-.184 1.403 1 1 0 0 0 1.4.185 1 1 0 0 0 .186-1.402 1 1 0 0 0-.777-.393zm2.67 3.05a1 1 0 0 0-.721.294 1 1 0 0 0 0 1.414 1 1 0 0 0 1.414 0 1 1 0 0 0 0-1.414 1 1 0 0 0-.693-.293zm43.842 0a1 1 0 0 0-.723.294 1 1 0 0 0 0 1.414 1 1 0 0 0 1.414 0 1 1 0 0 0 0-1.414 1 1 0 0 0-.691-.293zM35 63a1 1 0 0 0-1 1 1 1 0 0 0 .178.568l4.92 8.868.004-.002A1 1 0 0 0 40 74a1 1 0 0 0 .898-.566l.004.002 4.92-8.868A1 1 0 0 0 46 64a1 1 0 0 0-1-1H35zm23.889.59a1 1 0 0 0-.07.002 1 1 0 0 0-.553.205 1 1 0 0 0-.186 1.402 1 1 0 0 0 1.402.186 1 1 0 0 0 .184-1.403 1 1 0 0 0-.777-.392zm-37.774.002a1 1 0 0 0-.777.39 1 1 0 0 0 .185 1.403 1 1 0 0 0 1.4-.186 1 1 0 0 0-.183-1.402 1 1 0 0 0-.625-.205zm34.36 2.254a1 1 0 0 0-.477.133 1 1 0 0 0-.365 1.367 1 1 0 0 0 1.365.365 1 1 0 0 0 .367-1.365 1 1 0 0 0-.89-.5zm-31.024.002a1 1 0 0 0-.818.5A1 1 0 0 0 24 67.713a1 1 0 0 0 1.365-.365A1 1 0 0 0 25 65.982a1 1 0 0 0-.549-.134zm3.71 1.79a1 1 0 0 0-.946.618 1 1 0 0 0 .54 1.306 1 1 0 0 0 1.308-.54 1 1 0 0 0-.542-1.307 1 1 0 0 0-.36-.076zm23.71 0a1 1 0 0 0-.39.077 1 1 0 0 0-.542 1.306 1 1 0 0 0 1.307.541 1 1 0 0 0 .541-1.306 1 1 0 0 0-.916-.617zm-3.84 1.305a1 1 0 0 0-.07.002 1 1 0 0 0-.197.034 1 1 0 0 0-.707 1.224 1 1 0 0 0 1.224.707 1 1 0 0 0 .707-1.224 1 1 0 0 0-.957-.743zm-16.064.002a1 1 0 0 0-.957.74 1 1 0 0 0 .707 1.225 1 1 0 0 0 1.224-.707 1 1 0 0 0-.707-1.224 1 1 0 0 0-.267-.034z"/></svg>