<svg xmlns="http://www.w3.org/2000/svg" viewBox="0 0 40 40"><path d="M20 38.5c-10.313 0-17.5-2.637-17.5-5s7.188-5 17.5-5c10.313 0 17.5 2.637 17.5 5s-7.188 5-17.5 5z" fill="#dff0fe"/><path d="M20 29c10.379 0 17 2.664 17 4.5 0 1.836-6.621 4.5-17 4.5S3 35.336 3 33.5C3 31.664 9.621 29 20 29m0-1c-9.941 0-18 2.46-18 5.5S10.059 39 20 39s18-2.46 18-5.5S29.941 28 20 28z" fill="#4788c7"/><path d="M23.5 5a3.5 3.5 0 1 1-7 0 3.5 3.5 0 1 1 7 0z" fill="#b6dcfe"/><path d="M20 2c1.652 0 3 1.348 3 3s-1.348 3-3 3-3-1.348-3-3 1.348-3 3-3m0-1c-2.21 0-4 1.79-4 4s1.79 4 4 4 4-1.79 4-4-1.79-4-4-4z" fill="#4788c7"/><path d="M16.5 33.5v-9.77l-3-2V16c0-3.086 2.55-5.5 5.809-5.5h1.382c3.258 0 5.809 2.414 5.809 5.5v5.73l-3 2v9.77z" fill="#98ccfd"/><path d="M20.691 11C23.668 11 26 13.195 26 16v5.465l-3 2V33h-6v-9.535l-3-2V16c0-2.805 2.332-5 5.309-5h1.382m0-1H19.31C15.867 10 13 12.559 13 16v6l3 2v10h8V24l3-2v-6c0-3.441-2.867-6-6.309-6z" fill="#4788c7"/></svg>