<svg xmlns="http://www.w3.org/2000/svg" viewBox="0 0 64 64"><path d="M32 0c-3.309 0-6 2.691-6 6s2.691 6 6 6 6-2.691 6-6-2.691-6-6-6zm0 2c2.207 0 4 1.793 4 4s-1.793 4-4 4-4-1.793-4-4 1.793-4 4-4zm0 10.574c-1.414 0-2.828.192-4.203.586a10.941 10.941 0 0 0-5.57 3.703A10.199 10.199 0 0 0 20 23.215V32.5a3.504 3.504 0 0 0 4.867 3.223l-.465 9.75C14.414 46.738 8 50.238 8 54.5 8 59.914 18.316 64 32 64s24-4.086 24-9.5c0-4.25-6.422-7.762-16.402-9.027l-.47-9.754A3.43 3.43 0 0 0 40.5 36c1.93 0 3.5-1.57 3.5-3.5v-9.285c0-2.3-.793-4.555-2.227-6.348a10.948 10.948 0 0 0-5.57-3.707A15.228 15.228 0 0 0 32 12.574zm0 2c1.23 0 2.46.168 3.656.508a8.995 8.995 0 0 1 4.559 3.031A8.23 8.23 0 0 1 42 23.215V32.5a1.5 1.5 0 0 1-3 0V21.625c0-.55-.45-1-1-1s-1 .45-1 1v11.422l.86 17.86A2 2 0 0 1 35.854 53a2 2 0 0 1-2-1.902L33 34.949A1.005 1.005 0 0 0 32 34c-.531 0-.969.418-1 .95l-.855 16.148A2.002 2.002 0 0 1 28.14 53a1.994 1.994 0 0 1-2-2.09l.203-4.258c.043-.129.058-.265.047-.406-.004-.023-.016-.039-.02-.059L27 33V21.668c0-.55-.45-1-1-1s-1 .45-1 1V32.5a1.5 1.5 0 0 1-3 0v-9.285c0-1.848.633-3.66 1.785-5.102a8.995 8.995 0 0 1 4.559-3.031A13.218 13.218 0 0 1 32 14.574zm-7.7 32.93l-.155 3.312a3.958 3.958 0 0 0 1.105 2.95A3.966 3.966 0 0 0 28.145 55 4.003 4.003 0 0 0 32 52.078 4.004 4.004 0 0 0 35.86 55a3.964 3.964 0 0 0 2.89-1.234 3.958 3.958 0 0 0 1.105-2.95l-.156-3.312C49.082 48.754 54 51.922 54 54.5c0 3.547-9.035 7.5-22 7.5s-22-3.953-22-7.5c0-2.59 4.914-5.75 14.3-6.996zm18.743 9.004a.983.983 0 0 0-.398.012 36.22 36.22 0 0 1-2.868.539 1 1 0 1 0 .145 1.988c.05 0 .098 0 .148-.012 1.07-.156 2.09-.347 3.028-.566a.996.996 0 0 0 .746-1.2.997.997 0 0 0-.801-.761zm-22.086.004a1 1 0 0 0-.055 1.957c3.192.738 7.032 1.129 11.098 1.129 1.266 0 2.523-.035 3.746-.114.55-.035.969-.507.938-1.062a1.003 1.003 0 0 0-1.063-.934c-1.18.075-2.398.11-3.621.11-3.863 0-7.64-.383-10.645-1.078a.98.98 0 0 0-.398-.008z"/></svg>