<svg xmlns="http://www.w3.org/2000/svg" viewBox="0 0 50 50"><path d="M24.746 2a.979.979 0 0 0-.215.023C15.398 2.141 8 9.551 8 18.676c0 2.3.46 4.504 1.32 6.5.52 1.215 1.668 3.101 3.149 5.398 1.476 2.297 3.27 4.95 5.004 7.469a653.632 653.632 0 0 0 6.715 9.539A.993.993 0 0 0 25 48c.32 0 .625-.152.813-.418 0 0 3.242-4.504 6.714-9.539 1.735-2.52 3.528-5.172 5.004-7.469 1.48-2.297 2.63-4.183 3.153-5.398a16.475 16.475 0 0 0 1.316-6.5c0-9.168-7.898-16.54-17.043-16.653a.944.944 0 0 0-.21-.023zm0 2C32.902 4 40 10.602 40 18.676c0 2.035-.406 3.96-1.156 5.71-.383.895-1.532 2.837-2.992 5.102-1.461 2.27-3.243 4.907-4.973 7.418A506.427 506.427 0 0 1 25 45.262c-.652-.907-2.84-3.95-5.879-8.356-1.73-2.511-3.512-5.148-4.973-7.418-1.46-2.265-2.609-4.207-2.992-5.101A14.44 14.44 0 0 1 10 18.676C10 10.563 16.59 4 24.746 4zm6.543 7c-.18 0-.336.09-.43.223l-3.922 5.875-2.082-1.953-.007-.004a.498.498 0 0 0-.816.195h-.005L19.273 27.3h.004a.565.565 0 0 0-.035.18c0 .285.23.519.52.519.16 0 .3-.082.394-.2l.004.005L25 22l2.313 1.879h.003a.485.485 0 0 0 .32.121c.22 0 .4-.14.47-.34h.003l3.688-11.973a.53.53 0 0 0-.508-.688z"/></svg>