<svg xmlns="http://www.w3.org/2000/svg" viewBox="0 0 80 80"><path d="M39.637 8a1.05 1.05 0 0 0-.219.023C26.48 8.141 16 18.621 16 31.535c0 3.246.652 6.352 1.86 9.168.718 1.68 2.37 4.402 4.492 7.7 2.12 3.292 4.699 7.1 7.191 10.718a937.523 937.523 0 0 0 9.645 13.711.993.993 0 0 0 .812.418c.32 0 .625-.152.813-.418 0 0 4.656-6.473 9.644-13.71 2.492-3.618 5.07-7.427 7.191-10.72 2.122-3.297 3.774-6.02 4.493-7.699A23.231 23.231 0 0 0 64 31.535C64 18.582 52.793 8.137 39.848 8.023A.97.97 0 0 0 39.637 8zm0 2C51.597 10 62 19.672 62 31.535c0 2.98-.598 5.813-1.7 8.383-.581 1.355-2.23 4.137-4.331 7.398-2.106 3.266-4.672 7.063-7.157 10.668A770.384 770.384 0 0 1 40 70.512c-.691-.961-4.258-5.918-8.813-12.528-2.484-3.605-5.05-7.402-7.156-10.668-2.101-3.261-3.75-6.043-4.332-7.398A21.215 21.215 0 0 1 18 31.535C18 19.633 27.672 10 39.637 10zM40 13c-.55 0-1 .45-1 1s.45 1 1 1 1-.45 1-1-.45-1-1-1zm-4.652.613h-.067c-.07.008-.133.016-.199.035a1 1 0 1 0 .516 1.93.999.999 0 0 0-.25-1.965zm9.304 0a.999.999 0 0 0-.25 1.965.998.998 0 1 0 .516-1.93 1.012 1.012 0 0 0-.266-.035zM30.977 15.41a.976.976 0 0 0-.477.137.99.99 0 0 0-.367 1.363c.133.23.351.399.61.469a1 1 0 1 0 .234-1.969zm17.976.004c-.34.016-.648.203-.82.496-.133.23-.168.504-.102.762a.999.999 0 0 0 1.832.238.997.997 0 0 0-.91-1.496zM27.285 18.27a1.003 1.003 0 0 0-.723.293 1.012 1.012 0 0 0 0 1.417 1.011 1.011 0 0 0 1.418 0 1.012 1.012 0 0 0 0-1.418 1.03 1.03 0 0 0-.695-.292zm25.457 0a1.003 1.003 0 0 0-.722 1.71c.39.387 1.023.387 1.414 0 .39-.39.39-1.027 0-1.418a1.013 1.013 0 0 0-.692-.292zm2.82 3.73a.988.988 0 0 0-.941.742.99.99 0 0 0 .098.758 1.002 1.002 0 0 0 1.734-1 1.003 1.003 0 0 0-.89-.5zm-31.199 0c-.336.02-.644.207-.816.5a.996.996 0 0 0 .363 1.363 1 1 0 0 0 1.367-.363.994.994 0 0 0-.367-1.363.993.993 0 0 0-.547-.137zm22.043 1.54a.6.6 0 0 0-.48.245l-4.36 6.543-2.32-2.172-.004-.004h-.004a.544.544 0 0 0-.383-.16.555.555 0 0 0-.523.371l-.004.004-5.293 13.317.004.004a.532.532 0 0 0-.039.199c0 .316.258.574.578.574.18 0 .336-.09.442-.223l.007.008 5.383-6.465 2.57 2.098.008-.004c.098.082.219.14.356.14.242 0 .445-.16.52-.378h.007l4.102-13.328a.593.593 0 0 0-.566-.77zm-23.8 2.804a1 1 0 0 0-.961.738 1.005 1.005 0 0 0 .71 1.227.997.997 0 0 0 1.223-.707 1 1 0 0 0-.973-1.258zm34.789 0c-.024-.004-.047 0-.07 0a1 1 0 0 0-.902 1.258.993.993 0 0 0 1.222.707.988.988 0 0 0 .609-.465 1 1 0 0 0-.86-1.5zM22 31c-.55 0-1 .45-1 1s.45 1 1 1 1-.45 1-1-.45-1-1-1zm36 0c-.55 0-1 .45-1 1s.45 1 1 1 1-.45 1-1-.45-1-1-1zm-35.348 4.66a1.005 1.005 0 0 0-1.008 1.258 1 1 0 0 0 1.227.707.997.997 0 0 0 .707-1.223.996.996 0 0 0-.926-.742zm34.723 0a.994.994 0 0 0-.953.742.986.986 0 0 0 .098.758c.132.23.351.399.609.465a1 1 0 0 0 1.226-.703 1.005 1.005 0 0 0-.98-1.262zM24.391 40a1 1 0 0 0-.238 1.965.97.97 0 0 0 .757-.102.99.99 0 0 0 .367-1.363 1.001 1.001 0 0 0-.886-.5zm31.152.004a1.007 1.007 0 0 0-.824.496 1.008 1.008 0 0 0 .371 1.371 1 1 0 0 0 1.363-.371.997.997 0 0 0-.91-1.496z"/></svg>