<svg xmlns="http://www.w3.org/2000/svg" viewBox="0 0 80 80"><path style="line-height:normal;text-indent:0;text-align:start;text-decoration-line:none;text-decoration-style:solid;text-decoration-color:#000;text-transform:none;block-progression:tb;isolation:auto;mix-blend-mode:normal" d="M71 11.768l-1.205.253-18.809 3.96-22-4L9 16.188v52.043l20.014-4.212 22 4L71 63.81V11.769zM29.014 14.02l22 4L69 14.232V62.19l-18.014 3.79-22-4L11 65.768V17.81l18.014-3.791zm2.806 11.154l-.875.195-.367.819.436.783.322.144.096.024.875-.196.367-.816-.436-.783-.32-.145-.098-.025zm-4.013.99l-.348.06-.094.034-.617.65.154.883.8.406.347-.06.094-.033.615-.65-.153-.884-.798-.406zm7.99.004l-.873.195-.367.819.433.783.322.144.098.024.873-.195.367-.817-.433-.783-.322-.145-.098-.025zm3.978.994l-.875.195-.367.819.436.783.322.145.096.023.875-.195.367-.817-.436-.783-.32-.145-.098-.025zm-15.822.402l-.348.061-.093.033-.616.653.153.882.799.407.347-.06.094-.036.615-.65-.152-.883-.799-.407zm35.752.541l-.351.014-.098.022-.695.566.037.895.74.505.351-.013.098-.022.695-.566-.037-.895-.74-.506zm-15.953.053l-.873.196-.367.816.433.783.323.145.097.023.875-.193.365-.819-.433-.783-.322-.144-.098-.024zm-23.652.809l-.348.058-.094.036-.615.65.152.883.8.406.347-.06.094-.034.615-.652-.153-.883-.798-.404zm35.603.027l-.351.014-.098.023-.695.565.037.896.74.506.352-.016.097-.021.695-.566-.037-.895-.74-.506zm-7.973.158l-.875.196-.367.816.436.783.322.145.096.025.875-.195.367-.818-.436-.784-.32-.144-.098-.024zm3.971.73l-.351.016-.098.022-.695.566.037.895.74.506.352-.014.097-.023.696-.565-.038-.896-.74-.506zm8.016 1.72l-.654.61-.063.349v.1l.402.8.881.158.654-.611.063-.348v-.1l-.402-.8-.881-.158zm0 4.1l-.654.61-.063.348v.1l.402.8.881.159.654-.612.063-.347v-.1l-.402-.8-.881-.159zm0 4.099l-.654.613-.063.346v.1l.402.802.881.156.654-.611.063-.348v-.1l-.402-.8-.881-.158zm0 4.1l-.654.613-.063.345v.102l.402.8.881.159.654-.613.063-.346v-.102l-.402-.8-.881-.159zm-37.727.09a1 1 0 0 0-.697 1.716L24.586 49l-3.293 3.293a1 1 0 1 0 1.414 1.414L26 50.414l3.293 3.293a1 1 0 1 0 1.414-1.414L27.414 49l3.293-3.293a1 1 0 0 0-.727-1.717 1 1 0 0 0-.687.303L26 47.586l-3.293-3.293a1 1 0 0 0-.717-.303zm37.727 4.011l-.654.611-.063.348v.1l.402.8.881.159.654-.614.063-.345v-.1l-.402-.803-.881-.156zm-27.934.197l-.885.14-.416.794.387.808.31.164.096.032.885-.143.416-.793-.387-.808-.31-.164-.096-.03zm3.908 1.235l-.884.14-.416.795.386.807.313.164.096.031.884-.142.416-.793-.386-.809-.313-.164-.096-.03zm3.91 1.234l-.884.14-.416.796.386.808.313.162.096.031.884-.142.416-.793-.386-.809-.313-.164-.095-.029zm19.446.639l-.35.04-.095.028-.653.615.102.89.775.452.35-.041.095-.03.653-.613-.102-.89-.775-.451zm-15.535.595l-.885.143-.416.793.387.808.312.163.094.03.885-.142.418-.793-.387-.808-.313-.164-.095-.03zm11.61.582l-.352.041-.096.028-.653.615.104.89.773.452.35-.041.098-.028.65-.615-.101-.89-.774-.452zm-7.7.653l-.885.142-.416.793.387.809.31.164.096.03.885-.141.416-.795-.387-.809-.31-.162-.096-.031zm3.771.525l-.35.041-.095.03-.652.613.101.89.776.452.35-.04.095-.029.652-.615-.103-.89-.774-.452z" font-weight="400" font-family="sans-serif" white-space="normal" overflow="visible"/></svg>