<svg xmlns="http://www.w3.org/2000/svg" viewBox="0 0 80 80"><path style="line-height:normal;text-indent:0;text-align:start;text-decoration-line:none;text-decoration-style:solid;text-decoration-color:#000;text-transform:none;block-progression:tb;isolation:auto;mix-blend-mode:normal" d="M40.04 4a1 1 0 0 0-.985.674l-6.537 19.004-.17.234.043.139-2.135 6.205-25.582 8.799a1 1 0 0 0 0 1.89l19.004 6.537.234.17.139-.043 6.205 2.135 8.799 25.582a1 1 0 0 0 1.89 0l6.537-19.004.17-.234-.043-.139 2.135-6.205 25.582-8.799a1 1 0 0 0 0-1.89l-19.006-6.54-.232-.17-.139.044-6.203-2.135-8.8-25.58A1 1 0 0 0 40.038 4zM40 8.074l3.451 10.035A1 1 0 0 0 43 18a1 1 0 0 0-1 1 1 1 0 0 0 1 1 1 1 0 0 0 .904-.574l2.666 7.754A1 1 0 0 0 46 27a1 1 0 0 0-1 1 1 1 0 0 0 1 1 1 1 0 0 0 .955-.705l1.057 3.072a1 1 0 0 0 .62.621L71.927 40 61.89 43.451A1 1 0 0 0 62 43a1 1 0 0 0-1-1 1 1 0 0 0-1 1 1 1 0 0 0 .574.904L52.82 46.57A1 1 0 0 0 53 46a1 1 0 0 0-1-1 1 1 0 0 0-1 1 1 1 0 0 0 .705.955l-3.072 1.057a1 1 0 0 0-.621.62L40 71.927 36.549 61.89A1 1 0 0 0 37 62a1 1 0 0 0 1-1 1 1 0 0 0-1-1 1 1 0 0 0-.904.574L33.43 52.82A1 1 0 0 0 34 53a1 1 0 0 0 1-1 1 1 0 0 0-1-1 1 1 0 0 0-.955.705l-1.057-3.072a1 1 0 0 0-.62-.621L8.073 40l10.035-3.451A1 1 0 0 0 18 37a1 1 0 0 0 1 1 1 1 0 0 0 1-1 1 1 0 0 0-.574-.904l7.754-2.666A1 1 0 0 0 27 34a1 1 0 0 0 1 1 1 1 0 0 0 1-1 1 1 0 0 0-.705-.955l3.072-1.057a1 1 0 0 0 .621-.62L40 8.073zm24.398 6.305l-.34.096-.09.045-.542.71.244.864.838.318.338-.096.09-.045.544-.71-.246-.862-.836-.32zm-48.837.14l-.864.245-.318.838.096.337.043.09.712.545.862-.246.32-.836-.096-.34-.045-.09-.71-.542zM40 15a1 1 0 0 0-1 1 1 1 0 0 0 1 1 1 1 0 0 0 1-1 1 1 0 0 0-1-1zm-20.967.984l-.894.01-.53.723.262.857.285.207.09.045.897-.01.529-.722-.264-.858-.285-.207-.09-.045zm41.68.194l-.338.095-.09.043-.545.713.246.862.836.32.34-.096.09-.045.543-.71-.244-.864-.838-.318zm2.57 1.43l-.857.263-.207.285-.045.09.01.895.722.529.858-.262.209-.285.043-.09-.01-.896-.723-.53zm-40.564.175l-.897.01-.529.723.264.857.285.207.09.045.894-.01.53-.724-.264-.856-.283-.209-.09-.043zm34.31.192l-.34.097-.09.043-.542.713.244.861.838.32.338-.095.09-.045.544-.713-.246-.861-.836-.32zm-39.672.228l-.86.246-.32.836.096.34.043.09.713.543.862-.244.32-.838-.096-.338-.045-.09-.713-.545zm9.045 1.379l-.896.01-.527.722.261.856.285.209.09.043.897-.008.529-.725-.264-.855-.285-.209-.09-.043zm26.942.191l-.338.098-.09.043-.545.713.246.861.836.32.34-.097.09-.043.543-.713-.244-.861-.838-.32zM40 21a1 1 0 0 0-1 1 1 1 0 0 0 1 1 1 1 0 0 0 1-1 1 1 0 0 0-1-1zm21.484.293l-.857.262-.207.285-.045.09.01.896.724.53.856-.264.209-.285.043-.09-.01-.895-.723-.529zm-31.396.088l-.897.008-.529.724.264.856.285.209.09.043.894-.01.53-.723-.264-.855-.283-.21-.09-.042zm19.572.191l-.34.096-.09.045-.542.713.244.861.838.318.34-.095.09-.043.542-.713-.244-.861-.838-.32zm-30.504.317l-.861.244-.32.838.097.338.043.09.713.544.861-.246.32-.836-.097-.34-.043-.09-.713-.542zM43 24a1 1 0 0 0-1 1 1 1 0 0 0 1 1 1 1 0 0 0 1-1 1 1 0 0 0-1-1zm16.686.977l-.856.263-.209.285-.043.09.008.895.725.53.855-.265.209-.283.043-.09-.008-.896-.724-.53zm-38.73.595l-.862.246-.32.836.097.34.043.09.713.543.861-.244.32-.838-.097-.338-.043-.09-.713-.545zM40 27a1 1 0 0 0-1 1 1 1 0 0 0 1 1 1 1 0 0 0 1-1 1 1 0 0 0-1-1zm17.887 1.662l-.856.262-.209.285-.043.09.01.896.723.53.857-.264.207-.285.043-.09-.008-.897-.724-.527zm-35.133.596l-.861.244-.32.838.095.338.045.09.71.544.864-.246.318-.836-.095-.34-.043-.09-.713-.542zM43 30a1 1 0 0 0-1 1 1 1 0 0 0 1 1 1 1 0 0 0 1-1 1 1 0 0 0-1-1zm-9 3a1 1 0 0 0-1 1 1 1 0 0 0 1 1 1 1 0 0 0 1-1 1 1 0 0 0-1-1zm6 0a1 1 0 0 0-1 1 1 1 0 0 0 1 1 1 1 0 0 0 1-1 1 1 0 0 0-1-1zm6 0a1 1 0 0 0-1 1 1 1 0 0 0 1 1 1 1 0 0 0 1-1 1 1 0 0 0-1-1zm-21 3a1 1 0 0 0-1 1 1 1 0 0 0 1 1 1 1 0 0 0 1-1 1 1 0 0 0-1-1zm6 0a1 1 0 0 0-1 1 1 1 0 0 0 1 1 1 1 0 0 0 1-1 1 1 0 0 0-1-1zm6 0a1 1 0 0 0-1 1 1 1 0 0 0 1 1 1 1 0 0 0 1-1 1 1 0 0 0-1-1zm6 0a1 1 0 0 0-1 1 1 1 0 0 0 1 1 1 1 0 0 0 1-1 1 1 0 0 0-1-1zm-27 3a1 1 0 0 0-1 1 1 1 0 0 0 1 1 1 1 0 0 0 1-1 1 1 0 0 0-1-1zm6 0a1 1 0 0 0-1 1 1 1 0 0 0 1 1 1 1 0 0 0 1-1 1 1 0 0 0-1-1zm6 0a1 1 0 0 0-1 1 1 1 0 0 0 1 1 1 1 0 0 0 1-1 1 1 0 0 0-1-1zm6 0a1 1 0 0 0-1 1 1 1 0 0 0 1 1 1 1 0 0 0 1-1 1 1 0 0 0-1-1zm6 0a1 1 0 0 0-1 1 1 1 0 0 0 1 1 1 1 0 0 0 1-1 1 1 0 0 0-1-1zm6 0a1 1 0 0 0-1 1 1 1 0 0 0 1 1 1 1 0 0 0 1-1 1 1 0 0 0-1-1zm6 0a1 1 0 0 0-1 1 1 1 0 0 0 1 1 1 1 0 0 0 1-1 1 1 0 0 0-1-1zm6 0a1 1 0 0 0-1 1 1 1 0 0 0 1 1 1 1 0 0 0 1-1 1 1 0 0 0-1-1zm6 0a1 1 0 0 0-1 1 1 1 0 0 0 1 1 1 1 0 0 0 1-1 1 1 0 0 0-1-1zm-27 3a1 1 0 0 0-1 1 1 1 0 0 0 1 1 1 1 0 0 0 1-1 1 1 0 0 0-1-1zm6 0a1 1 0 0 0-1 1 1 1 0 0 0 1 1 1 1 0 0 0 1-1 1 1 0 0 0-1-1zm6 0a1 1 0 0 0-1 1 1 1 0 0 0 1 1 1 1 0 0 0 1-1 1 1 0 0 0-1-1zm6 0a1 1 0 0 0-1 1 1 1 0 0 0 1 1 1 1 0 0 0 1-1 1 1 0 0 0-1-1zm-21 3a1 1 0 0 0-1 1 1 1 0 0 0 1 1 1 1 0 0 0 1-1 1 1 0 0 0-1-1zm6 0a1 1 0 0 0-1 1 1 1 0 0 0 1 1 1 1 0 0 0 1-1 1 1 0 0 0-1-1zm6 0a1 1 0 0 0-1 1 1 1 0 0 0 1 1 1 1 0 0 0 1-1 1 1 0 0 0-1-1zm-9 3a1 1 0 0 0-1 1 1 1 0 0 0 1 1 1 1 0 0 0 1-1 1 1 0 0 0-1-1zm20.576.688l-.863.246-.318.836.095.34.045.09.711.542.861-.244.32-.838-.095-.338-.045-.09-.71-.544zm-35.088.587l-.855.264-.21.283-.042.09.008.897.724.529.856-.264.209-.285.043-.09-.01-.894-.723-.53zM40 51a1 1 0 0 0-1 1 1 1 0 0 0 1 1 1 1 0 0 0 1-1 1 1 0 0 0-1-1zm19.373 1.373l-.861.244-.319.838.096.338.043.09.713.545.861-.246.32-.836-.095-.34-.045-.09-.713-.543zm-38.684.586l-.855.264-.209.285-.043.09.01.896.722.527.856-.261.209-.285.043-.09-.008-.897-.725-.529zM37 54a1 1 0 0 0-1 1 1 1 0 0 0 1 1 1 1 0 0 0 1-1 1 1 0 0 0-1-1zm24.172 2.057l-.861.246-.32.836.097.34.043.09.713.542.861-.244.32-.838-.097-.338-.043-.09-.713-.544zm-30.942.338l-.34.095-.09.045-.542.711.244.861.838.32.338-.095.09-.045.544-.71-.246-.864-.836-.318zm-11.34.25l-.855.263-.209.283-.043.09.01.897.723.529.857-.264.207-.285.045-.09-.01-.894-.724-.53zm31.81.134l-.895.01-.53.723.264.855.283.21.09.042.897-.008.529-.724-.264-.856-.285-.209-.09-.043zM40 57a1 1 0 0 0-1 1 1 1 0 0 0 1 1 1 1 0 0 0 1-1 1 1 0 0 0-1-1zm-13.455 1.193l-.338.096-.09.043-.545.713.246.861.836.32.34-.095.09-.045.543-.713-.244-.861-.838-.319zm27.84.385l-.897.008-.529.725.264.855.285.209.09.043.896-.01.527-.722-.261-.856-.285-.209-.09-.043zm8.586 1.164l-.862.244-.32.838.098.338.043.09.713.545.86-.246.321-.836-.097-.34-.043-.09-.713-.543zm-40.11.248l-.34.098-.09.043-.542.713.244.861.838.32.338-.097.09-.043.544-.713-.246-.861-.836-.32zm-5.767.338l-.858.264-.207.285-.045.09.01.894.723.53.857-.262.207-.285.045-.09-.01-.897-.722-.529zm40.974.047l-.894.01-.53.724.264.856.283.209.09.043.897-.01.529-.723-.264-.857-.285-.207-.09-.045zm-38.892 1.414l-.338.098-.09.043-.545.713.246.86.836.321.34-.097.09-.043.543-.713-.244-.862-.838-.32zm42.578.385l-.897.01-.529.722.264.858.285.207.09.045.894-.01.53-.723-.262-.857-.285-.207-.09-.045zM40 63a1 1 0 0 0-1 1 1 1 0 0 0 1 1 1 1 0 0 0 1-1 1 1 0 0 0-1-1zm24.77.426l-.862.246-.32.836.096.34.045.09.71.542.864-.244.318-.838-.096-.337-.043-.09-.712-.545zm-49.278.162l-.34.096-.09.045-.542.71.244.864.838.318.337-.096.09-.043.545-.712-.246-.862-.836-.32z" font-weight="400" font-family="sans-serif" white-space="normal" overflow="visible"/></svg>