<svg xmlns="http://www.w3.org/2000/svg" viewBox="0 0 50 50"><path d="M25 2c-.152 0-.305.035-.45.105l-21.995 11c-.34.172-.555.516-.555.895v2a1 1 0 0 0 1.445.895L25 6.117l21.55 10.778a1.02 1.02 0 0 0 .977-.043c.293-.184.473-.504.473-.852v-2c0-.379-.215-.723-.55-.895l-22-11A1.011 1.011 0 0 0 25 2zm0 6.352L4.344 18.684c-.11.054-.23.082-.344.125V47c0 .55.45 1 1 1h40c.55 0 1-.45 1-1V18.809c-.113-.043-.234-.07-.344-.125zm7.113 14.335c1.754 0 3.184.325 4.168 1.266.887.848 1.332 2.137 1.332 3.574 0 1.684-.468 2.825-1.234 3.72-.984 1.163-2.586 1.733-3.992 1.733-.27 0-.325 0-.575-.027V37H29V23c.84-.2 1.957-.313 3.113-.313zM13.625 23H22v1.922l-5.246 9.7v.073H22V37h-8.375v-1.563l5.39-10.07v-.05h-5.39zM24 23h3v14h-3zm8.563 1.844c-.372 0-.528.05-.75.125v5.8c.199.051.207.051.476.051 1.723 0 2.688-1.187 2.688-3.101 0-1.559-.641-2.875-2.414-2.875z"/></svg>