<?xml version="1.0" encoding="utf-8"?>
<!-- Generator: Adobe Illustrator 22.0.1, SVG Export Plug-In . SVG Version: 6.00 Build 0)  -->
<svg version="1.1" id="Layer_1" xmlns="http://www.w3.org/2000/svg" xmlns:xlink="http://www.w3.org/1999/xlink" x="0px" y="0px"
	 viewBox="0 0 99.048 114.222" enable-background="new 0 0 99.048 114.222" xml:space="preserve">
<g>
	<g>
		<path fill="#EE3138" d="M21.556,2.09c0,0.267,0.097,0.535,0.243,0.705c-0.182,0.085-0.352,0.121-0.523,0.121
			c-0.619,0-0.984-0.547-0.984-1.154c0-0.765,0.583-1.64,2.017-1.64c1.009,0,2.041,0.535,2.564,0.243
			c0.122,0.073,0.17,0.195,0.17,0.316c0,0.231-0.146,0.474-0.425,0.474h-0.11l-1.652,7.764c-0.122,0.571-0.596,0.778-1.045,0.778
			c-0.28,0-0.51-0.061-0.644-0.158l1.956-8.639h-0.061C21.957,0.899,21.556,1.519,21.556,2.09z"/>
		<path fill="#EE3138" d="M26.648,4.228l-1.155,5.371c-0.704,3.281-1.336,4.678-3.037,4.678c-0.729,0-1.337-0.401-1.337-1.422
			c0-0.207,0.158-0.328,0.401-0.328c0.097,0.437,0.377,0.668,0.839,0.668c0.826,0,1.179-1.118,1.713-3.596l1.154-5.371h-0.608
			c-0.061-0.389,0.134-0.705,0.51-0.705h0.243l0.097-0.437c0.34-1.567,1.373-2.515,2.527-2.515c1.033,0,1.531,0.388,1.531,1.179
			c0,0.68-0.401,1.021-0.85,0.996c-0.158-0.012-0.328-0.06-0.486-0.17c0.134-0.291,0.194-0.62,0.194-0.79
			c0-0.231-0.146-0.353-0.449-0.353c-0.559,0-0.863,0.815-1.057,1.726l-0.085,0.364h0.936c0.061,0.389-0.134,0.705-0.511,0.705
			H26.648z"/>
		<path fill="#EE3138" d="M36.26,8.821c-0.134,0.644-0.668,0.875-1.166,0.875c-0.255,0-0.486-0.073-0.656-0.183l0.802-3.669
			l-1.263-4.933c-0.911,0.097-1.251,0.656-1.251,1.179c0,0.267,0.097,0.535,0.243,0.705c-0.182,0.085-0.353,0.121-0.522,0.121
			c-0.62,0-0.984-0.547-0.984-1.154c0-0.765,0.583-1.64,2.017-1.64c1.009,0,2.041,0.535,2.564,0.243
			c0.121,0.073,0.17,0.195,0.17,0.316c0,0.231-0.146,0.474-0.425,0.474H35.75l0.923,3.827c1.045-1.531,1.483-2.989,1.227-4.666
			C38.094,0.122,38.362,0,38.702,0c0.583,0,0.717,0.462,0.693,0.693c-0.146,1.652-1.397,3.778-2.503,5.176L36.26,8.821z"/>
		<path fill="#EE3138" d="M44.62,4.715c-0.316,0.267-0.79,0.838-1.288,1.154c0.012,0.048,0.012,0.097,0.012,0.134
			c0,1.859-1.713,3.694-3.171,3.694c-1.251,0-1.786-1.009-1.786-2.151c0-1.835,1.276-4.131,3.11-4.131
			c0.608,0,1.094,0.17,1.458,0.717c-0.025,0.28-0.231,0.413-0.413,0.34c-0.231-0.085-0.486-0.134-0.778-0.134
			c-1.106,0-1.823,1.629-1.823,2.819c0,1.069,0.365,1.482,0.79,1.482c0.62,0,1.397-0.899,1.397-1.993
			c0-0.158-0.024-0.328-0.061-0.498c-0.219-0.012-0.425-0.061-0.559-0.146c-0.255-0.668,0.012-1.276,0.705-1.276
			c0.413,0,0.765,0.207,0.96,0.559c0.486-0.304,0.936-0.826,1.446-1.239C44.851,4.241,44.79,4.569,44.62,4.715z"/>
		<path fill="#EE3138" d="M44.986,4.872c0.048-0.195-0.012-0.304-0.122-0.304c-0.061,0-0.133,0.049-0.243,0.146
			c-0.158-0.097-0.243-0.474,0-0.668c0.413-0.328,0.85-0.583,1.361-0.583c0.437,0,0.68,0.206,0.583,0.668l-0.741,3.451
			c-0.109,0.498,0.049,0.717,0.413,0.717c0.425,0,0.79-0.244,1.118-0.632l0.729-3.439c0.121-0.559,0.583-0.765,1.021-0.765
			c0.219,0,0.425,0.06,0.571,0.158l-0.85,4.022c-0.134,0.619,0.024,0.887,0.267,0.887c0.219,0,0.498-0.146,0.68-0.583
			c0.231,0,0.364,0.122,0.364,0.328c0,0.85-0.996,1.422-1.677,1.422c-0.595,0-1.191-0.304-1.13-1.373
			c-0.486,0.79-1.081,1.373-1.774,1.373c-1.348,0-1.348-1.422-1.142-2.333L44.986,4.872z"/>
		<path fill="#EE3138" d="M63.163,8.044c-0.073,0.352,0.085,0.498,0.328,0.498c0.45,0,0.972-0.304,1.276-0.608
			c0.134,0.061,0.207,0.17,0.207,0.291c0,0.085-0.036,0.183-0.109,0.267c-0.571,0.644-1.385,1.203-2.199,1.203
			c-0.607,0-1.251-0.304-0.948-1.725l0.51-2.418c0.122-0.595-0.012-0.717-0.292-0.717c-0.304,0-0.693,0.122-1.118,0.632
			l-0.778,3.463c-0.121,0.559-0.583,0.766-1.021,0.766c-0.219,0-0.365-0.024-0.51-0.122l1.579-7.509
			c-0.425-0.036-0.899-0.255-1.422-0.449l-1.555,7.302c-0.121,0.571-0.595,0.778-1.045,0.778c-0.279,0-0.51-0.061-0.644-0.158
			l1.859-8.226h-0.097c-0.863,0-1.798,0.619-1.798,1.823c0,0.206,0.036,0.413,0.17,0.632c-1.13,0.303-1.531-0.341-1.531-0.972
			c0-1.895,2.248-2.333,3.511-2.333c0.644,0,1.677,0.146,2.357,0.146c0.535,0,1.093-0.109,1.434-0.352
			c0.352,0.438,0.389,0.862,0.267,1.47l-0.595,2.843c0.45-0.656,0.996-1.105,1.616-1.105c0.607,0,1.446,0.352,1.142,1.786
			L63.163,8.044z"/>
		<path fill="#EE3138" d="M65.303,4.872c0.036-0.195-0.012-0.304-0.122-0.304c-0.061,0-0.133,0.049-0.243,0.146
			c-0.158-0.097-0.243-0.474,0-0.668c0.413-0.328,0.85-0.583,1.361-0.583c0.437,0,0.68,0.206,0.583,0.668l-0.741,3.512
			c-0.146,0.68,0.049,0.899,0.365,0.899c0.449,0,0.972-0.304,1.276-0.608c0.134,0.061,0.206,0.17,0.206,0.291
			c0,0.085-0.036,0.183-0.109,0.267c-0.571,0.644-1.385,1.203-2.199,1.203c-0.607,0-1.312-0.34-1.081-1.446L65.303,4.872z
			 M66.628,1.045c0.474,0,0.826,0.377,0.778,0.85c-0.073,0.474-0.474,0.85-0.948,0.85c-0.474,0-0.826-0.377-0.753-0.85
			C65.753,1.422,66.154,1.045,66.628,1.045z"/>
		<path fill="#EE3138" d="M67.952,4.046c0.413-0.328,0.85-0.583,1.361-0.583c0.437,0,0.693,0.206,0.583,0.668l-0.121,0.547
			c0.51-0.729,1.288-1.214,1.993-1.214c0.644,0,1.106,0.51,0.826,1.786l-0.596,2.795c-0.073,0.352,0.085,0.498,0.328,0.498
			c0.449,0,0.972-0.304,1.276-0.608c0.134,0.061,0.207,0.17,0.207,0.291c0,0.085-0.036,0.183-0.109,0.267
			c-0.571,0.644-1.385,1.203-2.199,1.203c-0.607,0-1.251-0.304-0.948-1.725l0.51-2.418c0.109-0.51-0.061-0.717-0.328-0.717
			c-0.328,0-0.814,0.304-1.082,0.632l-0.741,3.463c-0.121,0.559-0.583,0.766-1.021,0.766c-0.218,0-0.425-0.061-0.571-0.158
			l0.996-4.666c0.048-0.195-0.012-0.304-0.122-0.304c-0.061,0-0.133,0.049-0.243,0.146C67.794,4.617,67.709,4.241,67.952,4.046z"/>
		<path fill="#EE3138" d="M74.66,2.333c0.073-0.328-0.158-0.401-0.352-0.17c-0.17-0.158-0.182-0.279-0.182-0.377
			c0-0.279,0.875-0.863,1.531-0.863c0.438,0,0.681,0.207,0.583,0.669l-0.996,4.654l0.243-0.061c0.778-0.231,1.179-0.68,1.179-1.41
			c0-0.34-0.036-0.608-0.17-0.753c0.158-0.328,0.522-0.559,0.948-0.559c0.486,0,0.68,0.255,0.68,0.911
			c0.012,0.972-0.753,1.701-1.519,2.066c0.17,0.717,0.498,2.089,1.13,2.089c0.316,0,0.462-0.17,0.559-0.583
			c0.231,0,0.365,0.122,0.365,0.328c0,0.85-0.729,1.422-1.555,1.422c-1.215,0-1.531-1.944-1.713-2.892l-0.28,0.073l-0.437,2.053
			c-0.121,0.559-0.583,0.766-1.021,0.766c-0.219,0-0.365-0.024-0.51-0.122L74.66,2.333z"/>
	</g>
</g>
<g>
	<g>
		<path fill="#3B3C36" d="M11.074,48.194c-0.316,0.267-0.79,0.838-1.288,1.154c0.012,0.048,0.012,0.097,0.012,0.134
			c0,1.859-1.713,3.694-3.171,3.694c-1.251,0-1.786-1.009-1.786-2.151c0-1.835,1.276-4.131,3.111-4.131
			c0.608,0,1.094,0.17,1.458,0.717c-0.024,0.28-0.231,0.413-0.413,0.34c-0.231-0.085-0.486-0.134-0.778-0.134
			c-1.105,0-1.823,1.629-1.823,2.819c0,1.069,0.365,1.483,0.79,1.483c0.62,0,1.397-0.899,1.397-1.993
			c0-0.158-0.024-0.328-0.061-0.498c-0.219-0.012-0.425-0.061-0.559-0.146c-0.255-0.668,0.012-1.276,0.705-1.276
			c0.413,0,0.765,0.207,0.96,0.559c0.486-0.304,0.936-0.826,1.446-1.239C11.305,47.721,11.244,48.048,11.074,48.194z"/>
		<path fill="#3B3C36" d="M12.885,48.267c0.486-0.984,1.009-1.324,1.568-1.324c0.583,0,0.887,0.461,0.887,0.96
			c0,0.547-0.34,1.142-0.972,1.142c-0.109,0-0.243-0.013-0.352-0.049c0.085-0.073,0.134-0.231,0.134-0.377
			c0-0.17-0.121-0.304-0.377-0.304c-0.401,0-0.972,0.547-1.592,3.354l-0.146,0.741c-0.121,0.559-0.583,0.766-1.021,0.766
			c-0.218,0-0.425-0.061-0.571-0.158l0.996-4.666c0.036-0.194-0.012-0.304-0.122-0.304c-0.061,0-0.133,0.049-0.243,0.146
			c-0.158-0.097-0.243-0.474,0-0.668c0.413-0.328,0.85-0.583,1.361-0.583c0.437,0,0.68,0.207,0.583,0.668L12.885,48.267z"/>
		<path fill="#3B3C36" d="M27.953,51.523c-0.073,0.352,0.085,0.498,0.328,0.498c0.45,0,0.972-0.304,1.276-0.607
			c0.134,0.061,0.206,0.17,0.206,0.291c0,0.085-0.036,0.183-0.109,0.267c-0.571,0.644-1.385,1.203-2.199,1.203
			c-0.608,0-1.252-0.304-0.948-1.725l0.51-2.418c0.122-0.595-0.012-0.717-0.292-0.717c-0.304,0-0.693,0.122-1.118,0.632L24.83,52.41
			c-0.121,0.559-0.583,0.766-1.021,0.766c-0.219,0-0.365-0.025-0.51-0.122l1.58-7.509c-0.425-0.036-0.899-0.255-1.422-0.449
			l-1.555,7.303c-0.121,0.571-0.595,0.778-1.045,0.778c-0.279,0-0.51-0.061-0.644-0.158l1.859-8.226h-0.097
			c-0.863,0-1.798,0.619-1.798,1.823c0,0.207,0.036,0.413,0.17,0.632c-1.13,0.303-1.531-0.341-1.531-0.972
			c0-1.895,2.248-2.333,3.511-2.333c0.644,0,1.677,0.146,2.357,0.146c0.535,0,1.093-0.109,1.434-0.352
			c0.352,0.438,0.389,0.862,0.267,1.47l-0.595,2.843c0.45-0.656,0.996-1.105,1.616-1.105c0.608,0,1.446,0.352,1.142,1.786
			L27.953,51.523z"/>
		<path fill="#3B3C36" d="M30.093,48.352c0.036-0.194-0.012-0.304-0.122-0.304c-0.061,0-0.133,0.049-0.243,0.146
			c-0.158-0.097-0.243-0.474,0-0.668c0.413-0.328,0.85-0.583,1.361-0.583c0.437,0,0.68,0.207,0.583,0.668l-0.741,3.512
			c-0.146,0.68,0.049,0.899,0.365,0.899c0.449,0,0.972-0.304,1.276-0.607c0.134,0.061,0.207,0.17,0.207,0.291
			c0,0.085-0.036,0.183-0.109,0.267c-0.571,0.644-1.385,1.203-2.199,1.203c-0.608,0-1.312-0.34-1.081-1.446L30.093,48.352z
			 M31.417,44.525c0.474,0,0.826,0.376,0.778,0.85c-0.073,0.474-0.474,0.85-0.948,0.85c-0.474,0-0.826-0.376-0.753-0.85
			C30.542,44.901,30.943,44.525,31.417,44.525z"/>
		<path fill="#3B3C36" d="M32.742,47.526c0.413-0.328,0.85-0.583,1.361-0.583c0.437,0,0.693,0.207,0.583,0.668l-0.121,0.547
			c0.51-0.729,1.288-1.215,1.993-1.215c0.644,0,1.106,0.51,0.826,1.786l-0.596,2.795c-0.073,0.352,0.085,0.498,0.328,0.498
			c0.449,0,0.972-0.304,1.276-0.607c0.134,0.061,0.207,0.17,0.207,0.291c0,0.085-0.036,0.183-0.109,0.267
			c-0.571,0.644-1.385,1.203-2.199,1.203c-0.608,0-1.252-0.304-0.948-1.725l0.51-2.418c0.11-0.51-0.061-0.717-0.328-0.717
			c-0.328,0-0.814,0.304-1.081,0.632l-0.741,3.463c-0.121,0.559-0.583,0.766-1.021,0.766c-0.218,0-0.425-0.061-0.571-0.158
			l0.996-4.666c0.048-0.194-0.012-0.304-0.122-0.304c-0.061,0-0.133,0.049-0.243,0.146C32.584,48.097,32.499,47.721,32.742,47.526z"
			/>
		<path fill="#3B3C36" d="M39.449,45.813c0.073-0.328-0.158-0.401-0.352-0.17c-0.17-0.158-0.182-0.279-0.182-0.377
			c0-0.279,0.875-0.863,1.531-0.863c0.437,0,0.681,0.207,0.583,0.668l-0.996,4.654l0.243-0.061c0.778-0.231,1.179-0.68,1.179-1.41
			c0-0.34-0.036-0.608-0.17-0.753c0.158-0.328,0.522-0.559,0.948-0.559c0.486,0,0.68,0.255,0.68,0.911
			c0.012,0.972-0.753,1.701-1.519,2.066c0.17,0.717,0.498,2.089,1.13,2.089c0.316,0,0.462-0.17,0.559-0.583
			c0.231,0,0.365,0.122,0.365,0.328c0,0.851-0.729,1.422-1.555,1.422c-1.215,0-1.531-1.944-1.713-2.892l-0.28,0.073l-0.437,2.053
			c-0.121,0.559-0.583,0.766-1.021,0.766c-0.219,0-0.365-0.025-0.51-0.122L39.449,45.813z"/>
		<path fill="#3B3C36" d="M52.597,52.301c-0.134,0.644-0.668,0.875-1.166,0.875c-0.255,0-0.486-0.073-0.656-0.183l0.802-3.669
			l-1.263-4.933c-0.911,0.097-1.251,0.656-1.251,1.179c0,0.267,0.097,0.535,0.243,0.705c-0.182,0.085-0.352,0.121-0.522,0.121
			c-0.62,0-0.984-0.547-0.984-1.154c0-0.765,0.583-1.64,2.017-1.64c1.009,0,2.041,0.535,2.564,0.243
			c0.121,0.073,0.17,0.195,0.17,0.316c0,0.231-0.146,0.474-0.425,0.474h-0.036l0.923,3.827c1.045-1.531,1.483-2.989,1.227-4.666
			c0.194-0.194,0.462-0.316,0.802-0.316c0.583,0,0.717,0.462,0.693,0.693c-0.146,1.652-1.397,3.778-2.503,5.176L52.597,52.301z"/>
		<path fill="#3B3C36" d="M60.957,48.194c-0.316,0.267-0.79,0.838-1.288,1.154c0.012,0.048,0.012,0.097,0.012,0.134
			c0,1.859-1.713,3.694-3.171,3.694c-1.251,0-1.786-1.009-1.786-2.151c0-1.835,1.276-4.131,3.111-4.131
			c0.608,0,1.094,0.17,1.458,0.717c-0.025,0.28-0.231,0.413-0.413,0.34c-0.231-0.085-0.486-0.134-0.778-0.134
			c-1.106,0-1.823,1.629-1.823,2.819c0,1.069,0.365,1.483,0.79,1.483c0.62,0,1.397-0.899,1.397-1.993
			c0-0.158-0.024-0.328-0.061-0.498c-0.219-0.012-0.425-0.061-0.559-0.146c-0.255-0.668,0.012-1.276,0.705-1.276
			c0.413,0,0.765,0.207,0.96,0.559c0.486-0.304,0.935-0.826,1.446-1.239C61.188,47.721,61.127,48.048,60.957,48.194z"/>
		<path fill="#3B3C36" d="M61.323,48.352c0.049-0.194-0.012-0.304-0.122-0.304c-0.061,0-0.133,0.049-0.243,0.146
			c-0.158-0.097-0.243-0.474,0-0.668c0.413-0.328,0.851-0.583,1.361-0.583c0.437,0,0.68,0.207,0.583,0.668l-0.741,3.451
			c-0.109,0.498,0.049,0.717,0.413,0.717c0.425,0,0.79-0.243,1.118-0.632l0.729-3.439c0.121-0.559,0.583-0.765,1.021-0.765
			c0.219,0,0.425,0.06,0.571,0.158l-0.851,4.022c-0.134,0.619,0.024,0.887,0.267,0.887c0.218,0,0.498-0.146,0.68-0.583
			c0.231,0,0.364,0.122,0.364,0.328c0,0.851-0.996,1.422-1.677,1.422c-0.595,0-1.191-0.304-1.13-1.373
			c-0.486,0.79-1.081,1.373-1.774,1.373c-1.348,0-1.348-1.422-1.142-2.333L61.323,48.352z"/>
		<path fill="#3B3C36" d="M76.038,45.266c0,0.644-0.389,1.24-0.984,1.24c-0.219,0-0.583-0.146-0.717-0.486
			c0.729-0.304,0.79-1.47-0.158-1.47c-1.057,0-2.163,2.333-2.163,4.872c0,1.434,0.486,2.624,1.713,2.624
			c0.644,0,1.373-0.182,2.175-0.631c0.134,0.061,0.207,0.17,0.207,0.291c0,0.085-0.024,0.183-0.109,0.267
			c-0.863,0.863-1.932,1.203-2.953,1.203c-1.907,0-2.746-1.677-2.746-3.548c0-3.099,1.823-5.905,4.046-5.905
			C75.528,43.723,76.038,44.525,76.038,45.266z"/>
		<path fill="#3B3C36" d="M80.085,47.295c0.206-0.243,0.522-0.352,0.826-0.352c0.219,0,0.425,0.06,0.571,0.158l-0.851,4.022
			c-0.146,0.68,0.048,0.899,0.364,0.899c0.45,0,0.972-0.304,1.276-0.607c0.134,0.061,0.207,0.17,0.207,0.291
			c0,0.085-0.036,0.183-0.11,0.267c-0.571,0.644-1.446,1.203-2.102,1.203c-0.571,0-1.142-0.267-1.13-1.227
			c-0.51,0.717-1.154,1.227-1.847,1.227c-1.264,0-1.519-1.263-1.519-2.042c0-2.126,1.373-4.24,3.062-4.24
			C79.38,46.894,79.781,47.028,80.085,47.295z M79.842,47.903c-0.207-0.073-0.389-0.097-0.571-0.097c-1.47,0-1.993,1.92-1.993,3.244
			c0,0.608,0.28,0.875,0.656,0.875c0.389,0,0.899-0.316,1.227-0.766L79.842,47.903z"/>
		<path fill="#3B3C36" d="M86.574,51.122c-0.133,0.619,0.024,0.887,0.267,0.887c0.219,0,0.498-0.146,0.681-0.583
			c0.231,0,0.364,0.122,0.364,0.328c0,0.851-0.996,1.422-1.677,1.422c-0.607,0-1.47-0.304-1.166-1.725l0.51-2.418
			c0.109-0.51-0.061-0.717-0.328-0.717c-0.328,0-0.814,0.304-1.081,0.632l-0.741,3.463c-0.121,0.559-0.583,0.766-1.021,0.766
			c-0.218,0-0.425-0.061-0.571-0.158l0.996-4.666c0.049-0.194-0.012-0.304-0.122-0.304c-0.061,0-0.133,0.049-0.243,0.146
			c-0.158-0.097-0.243-0.474,0-0.668c0.413-0.328,0.85-0.583,1.361-0.583c0.437,0,0.693,0.207,0.583,0.668l-0.122,0.547
			c0.51-0.729,1.288-1.215,1.993-1.215c0.644,0,1.093,0.51,0.826,1.786L86.574,51.122z"/>
		<path fill="#3B3C36" d="M88.713,46.688c0.377-0.426,0.462-0.766,0.462-1.009c0-0.388-0.279-0.595-0.279-1.021
			c0-0.437,0.364-0.814,0.838-0.814c0.498,0,0.863,0.401,0.863,0.862c0,0.899-0.924,1.993-1.628,2.297
			C88.835,47.003,88.713,46.882,88.713,46.688z"/>
		<path fill="#3B3C36" d="M93.124,47.708l-0.717,3.414c-0.134,0.619,0.024,0.887,0.267,0.887c0.219,0,0.498-0.146,0.68-0.583
			c0.231,0,0.365,0.122,0.365,0.328c0,0.851-0.996,1.422-1.677,1.422c-0.607,0-1.458-0.353-1.154-1.798l0.778-3.67h-0.607
			c-0.061-0.389,0.134-0.705,0.51-0.705h0.243l0.219-0.996c0.121-0.559,0.583-0.766,1.021-0.766c0.219,0,0.425,0.061,0.571,0.158
			l-0.34,1.604h0.887c0.061,0.389-0.134,0.705-0.511,0.705H93.124z"/>
	</g>
</g>
<g>
	<g>
		<path fill="#3B3C36" d="M1.69,76.505V75.87l0.985-0.657c0-4.312,0-8.624,0-12.914L1.843,61.73v-0.569c2.67,0,5.122,0,7.792,0
			v3.436H8.541l-0.613-2.145H4.951c0,1.904,0,3.83,0,5.757h2.101l0.569-1.204h0.656c0,1.073,0,2.627,0,3.699H7.622l-0.569-1.16
			H4.951c0,1.62,0,3.217,0,4.837c0,0.35-0.088,0.547-0.46,0.678v0.11c1.248,0,2.473,0,3.721,0l0.744-2.101H9.92v3.436
			C7.184,76.505,4.448,76.505,1.69,76.505z"/>
		<path fill="#3B3C36" d="M14.934,75.213l0.963,0.657v0.635c-1.248,0-2.889,0-4.159,0V75.87l0.985-0.657c0-4.29,0-8.558,0-12.848
			l-0.832-0.569v-0.634h3.874v0.634l-0.832,0.569C14.934,66.655,14.934,70.924,14.934,75.213z"/>
		<path fill="#3B3C36" d="M23.034,62.54c0,4.181,0,8.361,0,12.542l0.963,0.678v0.744c-1.269,0-2.977,0-4.225,0v-0.744l0.963-0.678
			c0-4.181,0-8.361,0-12.542h-1.642l-0.7,2.517h-1.051l0.088-3.896h8.909l0.087,3.896h-1.051l-0.744-2.517H23.034z"/>
		<path fill="#3B3C36" d="M28.026,61.796v-0.634H31.9v0.634l-0.832,0.569v5.691h3.546v-5.691l-0.832-0.569v-0.634h3.874v0.634
			l-0.832,0.569v12.98l0.985,0.525v0.635h-4.159V75.87l0.963-0.525v-6.042h-3.546v6.042l0.985,0.525v0.635h-4.181V75.87l0.985-0.525
			v-12.98L28.026,61.796z"/>
		<path fill="#3B3C36" d="M39.694,76.505V75.87l0.985-0.657c0-4.312,0-8.624,0-12.914l-0.832-0.569v-0.569c2.671,0,5.122,0,7.793,0
			v3.436h-1.095l-0.613-2.145h-2.977c0,1.904,0,3.83,0,5.757h2.101l0.569-1.204h0.657c0,1.073,0,2.627,0,3.699h-0.657l-0.569-1.16
			h-2.101c0,1.62,0,3.217,0,4.837c0,0.35-0.087,0.547-0.46,0.678v0.11c1.248,0,2.473,0,3.721,0l0.744-2.101h0.963v3.436
			C45.189,76.505,42.453,76.505,39.694,76.505z"/>
		<path fill="#3B3C36" d="M55.062,71.689c-0.438-1.182-0.832-1.488-2.123-1.488c0,1.379,0,3.611,0,5.012l0.963,0.657v0.635
			c-1.27,0-2.889,0-4.159,0V75.87l0.963-0.657c0-4.246,0-8.602,0-12.848l-0.81-0.569v-0.634h4.444c2.364,0,4.29,0.897,4.29,3.567
			v1.992c0,1.882-1.051,2.933-2.473,3.217c0.657,0.35,0.941,0.766,1.182,1.445l1.029,2.824c0.219,0.591,0.613,1.445,1.313,1.292
			v0.854c-0.438,0.219-1.116,0.284-1.598,0.284c-1.379,0-1.51-0.985-1.948-2.145L55.062,71.689z M52.917,62.518
			c0,2.386,0,4.028,0,6.413h1.401c1.466,0,2.036-0.81,2.036-2.21v-1.992c0-1.401-0.504-2.21-2.014-2.21H52.917z"/>
		<path fill="#3B3C36" d="M69.029,73.134l2.211-11.557h1.423l2.101,11.426h0.022c0.613-3.589,1.248-7.18,1.839-10.77l-0.832-0.394
			v-0.678h3.043v0.678l-0.788,0.416L75.53,76.592h-2.32l-1.729-8.799l-1.861,8.799h-2.211l-2.386-14.271L64.17,61.84v-0.678h4.093
			v0.7l-0.897,0.416l1.642,10.857H69.029z"/>
		<path fill="#3B3C36" d="M80.785,75.432l0.788,0.394v0.679h-2.999v-0.679l0.788-0.416c1.094-4.531,2.32-9.828,3.437-14.337h2.254
			l3.524,14.272l0.788,0.481v0.679H85.47v-0.569l0.788-0.481l-0.722-3.086h-4.027L80.785,75.432z M81.793,71.121h3.437l-1.707-7.376
			H83.5L81.793,71.121z"/>
		<path fill="#3B3C36" d="M92.367,69.764l-3.174-7.727l-0.613-0.219v-0.635h1.97c0.788,0,0.963,0.219,1.226,0.898l2.101,5.428
			l2.101-5.297l-0.832-0.416v-0.613h3.152v0.613l-0.81,0.416l-2.824,7.267v5.625l0.963,0.679v0.722c-1.269,0-2.977,0-4.225,0v-0.722
			l0.964-0.679V69.764z"/>
	</g>
</g>
<g>
	<g>
		<g>
			<path fill="#EE3138" d="M7.811,82.65c1.3,0.004,1.951,0.006,3.251,0.01c-0.002,0.24-0.003,0.36-0.004,0.601
				c-0.133,0.093-0.282,0.184-0.446,0.269c-0.164,0.086-0.33,0.143-0.498,0.171c-1.043,2.099-1.564,3.106-2.599,5.019
				c-0.007,1.348-0.011,2.023-0.018,3.371c0.175,0.05,0.349,0.133,0.519,0.248c0.171,0.115,0.331,0.237,0.479,0.365
				c-0.001,0.231-0.002,0.346-0.003,0.577c-1.623-0.305-2.433-0.465-4.052-0.8c0.001-0.214,0.001-0.32,0.002-0.534
				c0.149-0.055,0.316-0.103,0.5-0.145c0.184-0.041,0.377-0.062,0.579-0.064c0.005-1.293,0.008-1.94,0.013-3.233
				c-1.059-2.087-1.59-3.082-2.658-4.962c-0.203-0.041-0.396-0.099-0.576-0.174c-0.181-0.075-0.347-0.154-0.497-0.236
				c0-0.202,0-0.302,0-0.504c1.741,0.006,2.611,0.01,4.352,0.015c-0.001,0.221-0.001,0.331-0.002,0.552
				c-0.124,0.076-0.266,0.152-0.425,0.225c-0.159,0.074-0.345,0.132-0.557,0.174c0.753,1.546,1.128,2.348,1.875,4.004
				c0.727-1.517,1.092-2.303,1.823-3.925c-0.203-0.055-0.397-0.125-0.582-0.208c-0.185-0.084-0.344-0.167-0.476-0.249
				C7.809,82.992,7.81,82.878,7.811,82.65z"/>
			<path fill="#EE3138" d="M10.85,88.181c0.006-0.82,0.108-1.571,0.307-2.264c0.199-0.692,0.491-1.291,0.875-1.801
				c0.384-0.509,0.856-0.911,1.415-1.203c0.56-0.292,1.202-0.443,1.928-0.443c0.725,0,1.365,0.152,1.92,0.465
				c0.555,0.314,1.017,0.756,1.388,1.329c0.371,0.574,0.65,1.258,0.838,2.049c0.188,0.792,0.278,1.653,0.27,2.574
				c-0.008,0.923-0.113,1.77-0.314,2.534c-0.201,0.765-0.492,1.41-0.872,1.93c-0.381,0.52-0.85,0.895-1.409,1.125
				c-0.558,0.23-1.2,0.284-1.923,0.17c-0.723-0.115-1.36-0.371-1.913-0.755c-0.553-0.385-1.016-0.867-1.391-1.443
				c-0.375-0.576-0.657-1.226-0.845-1.953C10.936,89.771,10.844,89.002,10.85,88.181z M13.1,88.377
				c-0.005,0.697,0.034,1.345,0.117,1.949c0.083,0.604,0.218,1.133,0.404,1.592c0.186,0.458,0.426,0.834,0.719,1.125
				c0.293,0.291,0.647,0.469,1.061,0.529c0.379,0.055,0.702-0.026,0.969-0.246c0.267-0.22,0.486-0.546,0.658-0.979
				c0.172-0.433,0.298-0.96,0.378-1.579c0.08-0.62,0.124-1.3,0.13-2.038c0.006-0.737-0.03-1.423-0.108-2.055
				c-0.079-0.631-0.207-1.176-0.384-1.635c-0.177-0.458-0.413-0.818-0.707-1.078c-0.294-0.261-0.653-0.392-1.078-0.398
				c-0.407-0.006-0.749,0.115-1.024,0.358c-0.276,0.243-0.498,0.578-0.665,1.005c-0.167,0.427-0.286,0.934-0.357,1.524
				C13.144,87.04,13.106,87.681,13.1,88.377z"/>
			<path fill="#EE3138" d="M20.47,82.685c1.635,0.004,2.452,0.005,4.087,0.008c-0.002,0.282-0.003,0.423-0.006,0.705
				c-0.294,0.257-0.632,0.433-1.013,0.525c-0.024,2.832-0.035,4.248-0.059,7.081c-0.005,0.601,0.039,1.107,0.133,1.521
				c0.094,0.415,0.233,0.757,0.417,1.028c0.184,0.271,0.406,0.475,0.666,0.612c0.26,0.138,0.554,0.224,0.882,0.255
				c0.292,0.028,0.561-0.006,0.805-0.103c0.244-0.097,0.459-0.27,0.643-0.52c0.183-0.25,0.326-0.587,0.427-1.01
				c0.101-0.423,0.153-0.952,0.158-1.587c0.022-2.853,0.033-4.28,0.055-7.133c-0.203-0.065-0.413-0.157-0.629-0.273
				s-0.394-0.242-0.534-0.383c0.002-0.286,0.003-0.43,0.006-0.716c1.316,0.002,1.974,0.003,3.291,0.005
				c-0.002,0.293-0.003,0.44-0.005,0.733c-0.16,0.167-0.339,0.3-0.534,0.401c-0.196,0.101-0.386,0.182-0.573,0.244
				c-0.021,2.882-0.032,4.322-0.053,7.204c-0.012,1.636-0.321,2.857-0.926,3.647c-0.605,0.79-1.452,1.12-2.542,0.998
				c-1.187-0.132-2.1-0.615-2.74-1.417c-0.64-0.803-0.953-1.99-0.939-3.577c0.024-2.816,0.036-4.223,0.06-7.039
				c-0.177-0.038-0.362-0.104-0.556-0.196c-0.193-0.092-0.37-0.204-0.528-0.337C20.466,83.091,20.467,82.956,20.47,82.685z"/>
			<path fill="#EE3138" d="M30.655,87.362c0.346-0.119,0.618-0.339,0.815-0.659c0.197-0.32,0.288-0.657,0.273-1.009
				c-0.114-0.211-0.257-0.38-0.429-0.506c-0.171-0.125-0.355-0.236-0.549-0.329c-0.043-0.234-0.048-0.47-0.015-0.709
				c0.033-0.24,0.094-0.459,0.184-0.659c0.09-0.2,0.195-0.372,0.316-0.514c0.12-0.143,0.242-0.227,0.366-0.253
				c0.177,0.013,0.353,0.069,0.53,0.167c0.176,0.098,0.332,0.236,0.468,0.414c0.136,0.177,0.245,0.401,0.328,0.67
				c0.082,0.27,0.123,0.588,0.12,0.955c-0.002,0.354-0.058,0.714-0.166,1.08c-0.108,0.364-0.259,0.702-0.451,1.011
				c-0.193,0.309-0.422,0.574-0.69,0.793c-0.267,0.22-0.556,0.37-0.867,0.449C30.795,87.902,30.748,87.722,30.655,87.362z"/>
			<path fill="#EE3138" d="M37.234,95.418c0.204,0.077,0.386,0.172,0.545,0.286c0.159,0.114,0.314,0.229,0.465,0.343
				c-0.001,0.306-0.002,0.459-0.003,0.765c-1.643-0.083-2.464-0.133-4.106-0.247c0.002-0.301,0.003-0.451,0.004-0.752
				c0.196-0.146,0.383-0.257,0.562-0.332c0.178-0.074,0.356-0.133,0.534-0.176c0.025-4.506,0.037-6.758,0.062-11.264
				c-0.442-0.149-0.804-0.343-1.085-0.582c0.002-0.301,0.003-0.451,0.004-0.752c0.563,0.001,0.844,0.001,1.407,0.002
				c0.177,0,0.378-0.006,0.604-0.019c0.225-0.013,0.462-0.03,0.71-0.049c0.248-0.02,0.5-0.04,0.757-0.06
				c0.256-0.02,0.504-0.029,0.743-0.029c0.486,0,0.935,0.084,1.346,0.254c0.411,0.17,0.764,0.426,1.059,0.766
				c0.295,0.341,0.524,0.768,0.686,1.28c0.162,0.512,0.242,1.11,0.24,1.791c-0.003,0.982-0.16,1.785-0.473,2.406
				c-0.313,0.622-0.74,1.082-1.282,1.381c0.352,0.854,0.726,1.727,1.123,2.62c0.397,0.893,0.816,1.757,1.258,2.593
				c0.255,0.267,0.383,0.4,0.639,0.667c-0.001,0.278-0.001,0.416-0.002,0.694c-0.892-0.026-1.337-0.041-2.228-0.076
				c-0.228-0.275-0.343-0.413-0.571-0.688c-0.406-0.755-0.765-1.624-1.076-2.605c-0.311-0.981-0.585-1.943-0.82-2.884
				c-0.431-0.013-0.647-0.019-1.078-0.033C37.248,92.598,37.243,93.538,37.234,95.418z M37.957,83.859
				c-0.276-0.001-0.498,0.037-0.668,0.117c-0.011,2.239-0.016,3.359-0.027,5.598c0.316,0.009,0.474,0.013,0.789,0.021
				c0.455,0.012,0.844-0.224,1.166-0.708c0.323-0.486,0.486-1.215,0.49-2.186c0.002-0.5-0.041-0.928-0.128-1.287
				c-0.088-0.358-0.211-0.652-0.371-0.882c-0.159-0.23-0.345-0.4-0.559-0.508C38.437,83.914,38.206,83.86,37.957,83.859z"/>
			<path fill="#EE3138" d="M50.446,82.717c-0.017,0.616-0.048,1.254-0.092,1.91c-0.044,0.657-0.101,1.274-0.172,1.849
				c-0.218,0-0.327,0-0.544,0c-0.245-0.97-0.367-1.455-0.612-2.425c-0.993,0-1.489-0.001-2.482-0.002
				c-0.002,2.011-0.004,3.016-0.006,5.027c0.649,0.004,0.973,0.005,1.622,0.007c0.234-0.632,0.352-0.948,0.586-1.581
				c0.17,0,0.256,0,0.426,0c0.044,0.671,0.065,1.418,0.065,2.239c0,0.822-0.022,1.589-0.066,2.301c-0.171,0-0.256,0-0.427-0.001
				c-0.234-0.65-0.351-0.974-0.585-1.624c-0.649-0.002-0.974-0.004-1.623-0.009c-0.003,2.134-0.004,3.201-0.007,5.335
				c1.041,0.013,1.561,0.016,2.601,0.018c0.283-1.043,0.424-1.565,0.706-2.609c0.219,0,0.328-0.001,0.547-0.001
				c0.035,0.26,0.071,0.555,0.106,0.883c0.035,0.328,0.065,0.668,0.087,1.016c0.022,0.349,0.04,0.703,0.053,1.058
				c0.013,0.356,0.021,0.685,0.021,0.986c-2.889,0.015-4.333-0.001-7.221-0.081c0.001-0.31,0.001-0.465,0.002-0.776
				c0.151-0.119,0.321-0.231,0.507-0.336c0.187-0.104,0.383-0.182,0.588-0.232c0.009-4.634,0.014-6.951,0.023-11.585
				c-0.177-0.055-0.365-0.134-0.564-0.237c-0.198-0.102-0.373-0.222-0.523-0.359c0.001-0.31,0.001-0.466,0.002-0.776
				C46.258,82.717,47.654,82.717,50.446,82.717z"/>
			<path fill="#EE3138" d="M58.188,95.574c0.205,0.06,0.387,0.141,0.547,0.242c0.161,0.101,0.317,0.202,0.468,0.303
				c0.001,0.308,0.002,0.462,0.003,0.769c-1.643,0.072-2.465,0.1-4.109,0.141c-0.001-0.311-0.001-0.466-0.002-0.777
				c0.195-0.169,0.382-0.3,0.559-0.393c0.177-0.093,0.355-0.168,0.533-0.227c-0.012-4.62-0.019-6.93-0.031-11.55
				c-0.443-0.148-0.806-0.344-1.09-0.59c-0.001-0.311-0.001-0.466-0.002-0.777c0.563,0,0.844,0,1.407-0.001
				c0.177,0,0.378-0.007,0.604-0.021c0.225-0.014,0.462-0.031,0.71-0.051c0.247-0.02,0.5-0.041,0.756-0.062
				c0.256-0.021,0.504-0.03,0.743-0.03c0.486,0,0.936,0.084,1.348,0.252c0.412,0.168,0.767,0.421,1.065,0.755
				c0.298,0.335,0.53,0.753,0.696,1.254c0.167,0.501,0.252,1.086,0.255,1.756c0.005,0.965-0.146,1.759-0.453,2.384
				c-0.308,0.626-0.731,1.102-1.271,1.428c0.359,0.83,0.74,1.673,1.143,2.525c0.404,0.853,0.83,1.67,1.278,2.45
				c0.257,0.239,0.386,0.358,0.643,0.595c0.001,0.271,0.002,0.406,0.004,0.676c-0.89,0.058-1.335,0.085-2.226,0.134
				c-0.231-0.251-0.346-0.376-0.576-0.629c-0.413-0.712-0.778-1.548-1.097-2.506c-0.32-0.958-0.601-1.904-0.844-2.836
				c-0.431,0.011-0.647,0.016-1.078,0.026C58.178,92.719,58.181,93.671,58.188,95.574z M58.815,83.869
				c-0.276,0.001-0.498,0.042-0.667,0.125c0.008,2.266,0.012,3.399,0.02,5.665c0.316-0.006,0.473-0.009,0.789-0.016
				c0.455-0.01,0.842-0.265,1.16-0.762c0.319-0.499,0.476-1.23,0.472-2.198c-0.002-0.498-0.049-0.923-0.139-1.279
				c-0.091-0.355-0.216-0.647-0.377-0.874c-0.161-0.228-0.349-0.395-0.563-0.502C59.295,83.921,59.063,83.868,58.815,83.869z"/>
			<path fill="#EE3138" d="M68.681,96.272c-1.661,0.144-2.492,0.208-4.155,0.32c-0.002-0.301-0.003-0.452-0.004-0.753
				c0.354-0.314,0.712-0.528,1.076-0.644c-0.027-4.467-0.04-6.7-0.068-11.167c-0.177-0.038-0.364-0.108-0.559-0.213
				c-0.195-0.104-0.369-0.222-0.52-0.354c-0.002-0.301-0.003-0.452-0.004-0.753c1.656-0.002,2.484-0.003,4.14-0.005
				c0.002,0.294,0.003,0.442,0.005,0.736c-0.158,0.144-0.333,0.264-0.522,0.363c-0.189,0.098-0.372,0.169-0.549,0.209
				c0.03,4.418,0.044,6.627,0.074,11.045c0.178,0.039,0.363,0.096,0.554,0.172c0.191,0.076,0.368,0.179,0.528,0.308
				C68.678,95.83,68.679,95.978,68.681,96.272z"/>
			<path fill="#EE3138" d="M77.525,94.534c-0.176,0.142-0.391,0.288-0.647,0.44c-0.256,0.152-0.525,0.294-0.807,0.425
				c-0.282,0.131-0.565,0.245-0.848,0.34c-0.282,0.095-0.535,0.155-0.756,0.181c-0.762,0.087-1.443,0.021-2.043-0.201
				c-0.6-0.222-1.113-0.605-1.539-1.148c-0.425-0.543-0.753-1.244-0.98-2.101c-0.228-0.857-0.346-1.866-0.354-3.023
				c-0.009-1.259,0.118-2.334,0.381-3.219c0.264-0.884,0.617-1.605,1.06-2.165c0.442-0.558,0.946-0.962,1.51-1.215
				c0.564-0.253,1.142-0.377,1.735-0.377c0.584,0,1.133,0.056,1.647,0.165c0.513,0.109,0.922,0.267,1.225,0.469
				c0.002,0.182-0.003,0.414-0.014,0.698c-0.011,0.284-0.028,0.589-0.052,0.917c-0.024,0.327-0.054,0.655-0.091,0.982
				c-0.037,0.328-0.081,0.626-0.132,0.895c-0.218,0.009-0.326,0.013-0.544,0.021c-0.306-1.099-0.46-1.652-0.766-2.766
				c-0.098-0.061-0.245-0.105-0.439-0.133c-0.194-0.029-0.39-0.042-0.584-0.04c-0.363,0.004-0.712,0.106-1.046,0.311
				c-0.334,0.203-0.628,0.53-0.881,0.981c-0.253,0.452-0.453,1.037-0.597,1.754c-0.145,0.718-0.213,1.592-0.205,2.616
				c0.006,0.836,0.081,1.594,0.224,2.273c0.142,0.679,0.34,1.254,0.591,1.723c0.251,0.469,0.553,0.825,0.9,1.065
				c0.348,0.241,0.729,0.338,1.146,0.295c0.133-0.014,0.27-0.043,0.411-0.089c0.142-0.046,0.274-0.1,0.398-0.163
				c0.123-0.062,0.231-0.129,0.324-0.2c0.092-0.071,0.156-0.133,0.191-0.185c-0.012-1.379-0.017-2.068-0.029-3.447
				c-0.23-0.007-0.448-0.052-0.652-0.136c-0.204-0.084-0.396-0.188-0.574-0.312c-0.002-0.282-0.004-0.422-0.006-0.704
				c1.45-0.088,2.174-0.135,3.623-0.235c0.002,0.272,0.004,0.408,0.006,0.68c-0.079,0.114-0.184,0.22-0.316,0.321
				c-0.132,0.1-0.299,0.189-0.502,0.265C77.505,92.107,77.512,92.916,77.525,94.534z"/>
			<path fill="#EE3138" d="M82.779,94.598c-1.604,0.243-2.407,0.356-4.014,0.57c-0.002-0.271-0.003-0.406-0.006-0.677
				c0.149-0.126,0.323-0.249,0.521-0.368c0.198-0.119,0.385-0.213,0.561-0.282c-0.035-3.991-0.052-5.987-0.086-9.978
				c-0.213-0.044-0.417-0.111-0.612-0.203c-0.195-0.092-0.356-0.192-0.48-0.298c-0.002-0.271-0.003-0.407-0.006-0.677
				c1.608-0.004,2.412-0.006,4.021-0.01c0.002,0.259,0.003,0.388,0.006,0.647c-0.132,0.115-0.279,0.219-0.442,0.313
				c-0.162,0.094-0.328,0.159-0.495,0.196c0.014,1.668,0.021,2.502,0.036,4.17c1.405-0.093,2.107-0.142,3.511-0.245
				c-0.013-1.594-0.019-2.391-0.032-3.986c-0.195-0.04-0.37-0.103-0.525-0.189c-0.156-0.086-0.296-0.179-0.42-0.278
				c-0.002-0.253-0.003-0.38-0.005-0.634c1.608-0.004,2.412-0.006,4.02-0.011c0.002,0.239,0.003,0.359,0.004,0.598
				c-0.15,0.118-0.322,0.215-0.515,0.292c-0.195,0.077-0.384,0.139-0.57,0.185c0.027,3.623,0.04,5.434,0.067,9.057
				c0.203,0.011,0.4,0.044,0.589,0.097c0.19,0.054,0.355,0.116,0.497,0.187c0.002,0.239,0.002,0.359,0.004,0.598
				c-1.599,0.284-2.399,0.419-4.002,0.673c-0.002-0.254-0.003-0.38-0.005-0.634c0.132-0.12,0.276-0.236,0.434-0.348
				c0.158-0.111,0.325-0.202,0.501-0.272c-0.014-1.706-0.021-2.559-0.034-4.265c-1.403,0.124-2.105,0.183-3.51,0.295
				c0.015,1.785,0.023,2.678,0.038,4.463c0.176,0.022,0.341,0.063,0.491,0.122c0.15,0.059,0.301,0.141,0.453,0.245
				C82.776,94.21,82.777,94.34,82.779,94.598z"/>
			<path fill="#EE3138" d="M95.318,92.332c-1.807,0.38-2.712,0.561-4.524,0.903c-0.001-0.23-0.002-0.345-0.003-0.574
				c0.175-0.112,0.374-0.23,0.598-0.355c0.223-0.124,0.449-0.226,0.678-0.306c-0.017-3.357-0.025-5.036-0.042-8.393
				c-0.615,0.013-0.923,0.019-1.538,0.032c-0.333,1.046-0.5,1.576-0.832,2.651c-0.217,0.014-0.326,0.021-0.543,0.034
				c-0.036-0.204-0.074-0.467-0.111-0.787c-0.037-0.32-0.071-0.651-0.1-0.993c-0.029-0.342-0.054-0.683-0.074-1.021
				c-0.02-0.338-0.031-0.627-0.032-0.866c3.381-0.01,5.071-0.016,8.451-0.028c0,0.212-0.009,0.46-0.026,0.744
				c-0.018,0.284-0.039,0.572-0.066,0.866c-0.026,0.293-0.057,0.577-0.092,0.85c-0.035,0.273-0.071,0.505-0.106,0.694
				c-0.222,0.017-0.333,0.025-0.555,0.042c-0.339-0.9-0.509-1.359-0.851-2.293c-0.615,0.014-0.922,0.021-1.537,0.034
				c0.011,3.232,0.017,4.847,0.028,8.079c0.228,0.005,0.454,0.019,0.678,0.042c0.223,0.022,0.423,0.063,0.599,0.121
				C95.317,92.017,95.317,92.122,95.318,92.332z"/>
		</g>
	</g>
</g>
<g>
	<g>
		<circle fill="#C09E16" cx="4.652" cy="57.077" r="1.05"/>
	</g>
	<g>
		<path fill="#C09E16" d="M9.976,57.077c0,0.58-0.47,1.05-1.05,1.05c-0.58,0-1.05-0.47-1.05-1.05s0.47-1.05,1.05-1.05
			C9.506,56.028,9.976,56.497,9.976,57.077z"/>
	</g>
	<g>
		<path fill="#C09E16" d="M14.249,57.077c0,0.58-0.47,1.05-1.05,1.05c-0.58,0-1.05-0.47-1.05-1.05s0.47-1.05,1.05-1.05
			C13.779,56.028,14.249,56.497,14.249,57.077z"/>
	</g>
	<g>
		<circle fill="#C09E16" cx="17.473" cy="57.077" r="1.05"/>
	</g>
	<g>
		<path fill="#C09E16" d="M22.796,57.077c0,0.58-0.47,1.05-1.05,1.05s-1.05-0.47-1.05-1.05s0.47-1.05,1.05-1.05
			S22.796,56.497,22.796,57.077z"/>
	</g>
	<g>
		<path fill="#C09E16" d="M27.069,57.077c0,0.58-0.47,1.05-1.05,1.05s-1.05-0.47-1.05-1.05s0.47-1.05,1.05-1.05
			S27.069,56.497,27.069,57.077z"/>
	</g>
	<g>
		<circle fill="#C09E16" cx="30.293" cy="57.077" r="1.05"/>
	</g>
	<g>
		<path fill="#C09E16" d="M35.616,57.077c0,0.58-0.47,1.05-1.05,1.05c-0.58,0-1.05-0.47-1.05-1.05s0.47-1.05,1.05-1.05
			C35.146,56.028,35.616,56.497,35.616,57.077z"/>
	</g>
	<g>
		<circle fill="#C09E16" cx="38.84" cy="57.077" r="1.05"/>
	</g>
	<g>
		<circle fill="#C09E16" cx="43.114" cy="57.077" r="1.05"/>
	</g>
	<g>
		<path fill="#C09E16" d="M48.437,57.077c0,0.58-0.47,1.05-1.05,1.05c-0.58,0-1.05-0.47-1.05-1.05s0.47-1.05,1.05-1.05
			C47.967,56.028,48.437,56.497,48.437,57.077z"/>
	</g>
	<g>
		<circle fill="#C09E16" cx="51.66" cy="57.077" r="1.05"/>
	</g>
	<g>
		<path fill="#C09E16" d="M56.984,57.077c0,0.58-0.47,1.05-1.05,1.05c-0.58,0-1.05-0.47-1.05-1.05s0.47-1.05,1.05-1.05
			C56.514,56.028,56.984,56.497,56.984,57.077z"/>
	</g>
	<g>
		<circle fill="#C09E16" cx="60.207" cy="57.077" r="1.05"/>
	</g>
	<g>
		<path fill="#C09E16" d="M65.53,57.077c0,0.58-0.47,1.05-1.05,1.05c-0.58,0-1.05-0.47-1.05-1.05s0.47-1.05,1.05-1.05
			C65.061,56.028,65.53,56.497,65.53,57.077z"/>
	</g>
	<g>
		<path fill="#C09E16" d="M69.804,57.077c0,0.58-0.47,1.05-1.05,1.05c-0.58,0-1.05-0.47-1.05-1.05s0.47-1.05,1.05-1.05
			C69.334,56.028,69.804,56.497,69.804,57.077z"/>
	</g>
	<g>
		<circle fill="#C09E16" cx="73.028" cy="57.077" r="1.05"/>
	</g>
	<g>
		<path fill="#C09E16" d="M78.351,57.077c0,0.58-0.47,1.05-1.05,1.05c-0.58,0-1.05-0.47-1.05-1.05s0.47-1.05,1.05-1.05
			C77.881,56.028,78.351,56.497,78.351,57.077z"/>
	</g>
	<g>
		<circle fill="#C09E16" cx="81.575" cy="57.077" r="1.05"/>
	</g>
	<g>
		<circle fill="#C09E16" cx="85.848" cy="57.077" r="1.05"/>
	</g>
	<g>
		<path fill="#C09E16" d="M91.171,57.077c0,0.58-0.47,1.05-1.05,1.05c-0.58,0-1.05-0.47-1.05-1.05s0.47-1.05,1.05-1.05
			C90.701,56.028,91.171,56.497,91.171,57.077z"/>
	</g>
	<g>
		<circle fill="#C09E16" cx="94.395" cy="57.077" r="1.05"/>
	</g>
</g>
<g>
	<g>
		<path fill="#C09E16" d="M18.412,79.476c0,0.412-0.334,0.745-0.745,0.745c-0.412,0-0.745-0.334-0.745-0.745
			c0-0.411,0.334-0.745,0.745-0.745C18.079,78.73,18.412,79.064,18.412,79.476z"/>
	</g>
	<g>
		<path fill="#C09E16" d="M21.446,79.476c0,0.412-0.334,0.745-0.745,0.745c-0.412,0-0.745-0.334-0.745-0.745
			c0-0.411,0.334-0.745,0.745-0.745C21.113,78.73,21.446,79.064,21.446,79.476z"/>
	</g>
	<g>
		<path fill="#C09E16" d="M24.48,79.476c0,0.412-0.334,0.745-0.745,0.745c-0.412,0-0.745-0.334-0.745-0.745
			c0-0.411,0.334-0.745,0.745-0.745C24.147,78.73,24.48,79.064,24.48,79.476z"/>
	</g>
	<g>
		<path fill="#C09E16" d="M27.514,79.476c0,0.412-0.334,0.745-0.745,0.745c-0.412,0-0.745-0.334-0.745-0.745
			c0-0.411,0.334-0.745,0.745-0.745C27.181,78.73,27.514,79.064,27.514,79.476z"/>
	</g>
	<g>
		<path fill="#C09E16" d="M30.548,79.476c0,0.412-0.334,0.745-0.745,0.745c-0.412,0-0.745-0.334-0.745-0.745
			c0-0.411,0.334-0.745,0.745-0.745C30.215,78.73,30.548,79.064,30.548,79.476z"/>
	</g>
	<g>
		<path fill="#C09E16" d="M33.582,79.476c0,0.412-0.334,0.745-0.745,0.745c-0.411,0-0.745-0.334-0.745-0.745
			c0-0.411,0.334-0.745,0.745-0.745C33.249,78.73,33.582,79.064,33.582,79.476z"/>
	</g>
	<g>
		<path fill="#C09E16" d="M36.616,79.476c0,0.412-0.334,0.745-0.745,0.745c-0.412,0-0.745-0.334-0.745-0.745
			c0-0.411,0.334-0.745,0.745-0.745C36.282,78.73,36.616,79.064,36.616,79.476z"/>
	</g>
	<g>
		<path fill="#C09E16" d="M39.65,79.476c0,0.412-0.334,0.745-0.745,0.745c-0.412,0-0.745-0.334-0.745-0.745
			c0-0.411,0.334-0.745,0.745-0.745C39.316,78.73,39.65,79.064,39.65,79.476z"/>
	</g>
	<g>
		<path fill="#C09E16" d="M42.684,79.476c0,0.412-0.334,0.745-0.745,0.745c-0.412,0-0.745-0.334-0.745-0.745
			c0-0.411,0.334-0.745,0.745-0.745C42.35,78.73,42.684,79.064,42.684,79.476z"/>
	</g>
	<g>
		<path fill="#C09E16" d="M45.718,79.476c0,0.412-0.334,0.745-0.745,0.745c-0.411,0-0.745-0.334-0.745-0.745
			c0-0.411,0.334-0.745,0.745-0.745C45.384,78.73,45.718,79.064,45.718,79.476z"/>
	</g>
	<g>
		<path fill="#C09E16" d="M48.752,79.476c0,0.412-0.334,0.745-0.745,0.745c-0.412,0-0.745-0.334-0.745-0.745
			c0-0.411,0.334-0.745,0.745-0.745C48.418,78.73,48.752,79.064,48.752,79.476z"/>
	</g>
	<g>
		<path fill="#C09E16" d="M51.786,79.476c0,0.412-0.334,0.745-0.745,0.745c-0.411,0-0.745-0.334-0.745-0.745
			c0-0.411,0.334-0.745,0.745-0.745C51.452,78.73,51.786,79.064,51.786,79.476z"/>
	</g>
	<g>
		<path fill="#C09E16" d="M54.82,79.476c0,0.412-0.334,0.745-0.745,0.745c-0.412,0-0.745-0.334-0.745-0.745
			c0-0.411,0.334-0.745,0.745-0.745C54.486,78.73,54.82,79.064,54.82,79.476z"/>
	</g>
	<g>
		<path fill="#C09E16" d="M57.854,79.476c0,0.412-0.334,0.745-0.745,0.745c-0.412,0-0.745-0.334-0.745-0.745
			c0-0.411,0.334-0.745,0.745-0.745C57.52,78.73,57.854,79.064,57.854,79.476z"/>
	</g>
	<g>
		<path fill="#C09E16" d="M60.888,79.476c0,0.412-0.334,0.745-0.745,0.745c-0.411,0-0.745-0.334-0.745-0.745
			c0-0.411,0.334-0.745,0.745-0.745C60.554,78.73,60.888,79.064,60.888,79.476z"/>
	</g>
	<g>
		<path fill="#C09E16" d="M63.922,79.476c0,0.412-0.334,0.745-0.745,0.745c-0.412,0-0.745-0.334-0.745-0.745
			c0-0.411,0.334-0.745,0.745-0.745C63.588,78.73,63.922,79.064,63.922,79.476z"/>
	</g>
	<g>
		<path fill="#C09E16" d="M66.956,79.476c0,0.412-0.334,0.745-0.745,0.745c-0.411,0-0.745-0.334-0.745-0.745
			c0-0.411,0.334-0.745,0.745-0.745C66.622,78.73,66.956,79.064,66.956,79.476z"/>
	</g>
	<g>
		<path fill="#C09E16" d="M69.99,79.476c0,0.412-0.334,0.745-0.745,0.745c-0.412,0-0.745-0.334-0.745-0.745
			c0-0.411,0.334-0.745,0.745-0.745C69.656,78.73,69.99,79.064,69.99,79.476z"/>
	</g>
	<g>
		<path fill="#C09E16" d="M73.024,79.476c0,0.412-0.334,0.745-0.745,0.745c-0.411,0-0.745-0.334-0.745-0.745
			c0-0.411,0.334-0.745,0.745-0.745C72.69,78.73,73.024,79.064,73.024,79.476z"/>
	</g>
	<g>
		<path fill="#C09E16" d="M76.058,79.476c0,0.412-0.334,0.745-0.745,0.745c-0.412,0-0.745-0.334-0.745-0.745
			c0-0.411,0.334-0.745,0.745-0.745C75.724,78.73,76.058,79.064,76.058,79.476z"/>
	</g>
	<g>
		<path fill="#C09E16" d="M79.091,79.476c0,0.412-0.334,0.745-0.745,0.745c-0.411,0-0.745-0.334-0.745-0.745
			c0-0.411,0.334-0.745,0.745-0.745C78.758,78.73,79.091,79.064,79.091,79.476z"/>
	</g>
	<g>
		<path fill="#C09E16" d="M82.125,79.476c0,0.412-0.334,0.745-0.745,0.745c-0.411,0-0.745-0.334-0.745-0.745
			c0-0.411,0.334-0.745,0.745-0.745C81.792,78.73,82.125,79.064,82.125,79.476z"/>
	</g>
</g>
<g>
	<g>
		<polygon fill="#3B3C36" points="70.451,23.669 70.095,22.059 70.058,22.059 69.646,23.706 68.355,27.244 71.668,27.244 		"/>
		<path fill="#3B3C36" d="M28.091,31.278c0.374-0.281,0.68-0.667,0.917-1.161c0.237-0.493,0.409-1.079,0.515-1.759
			c0.106-0.68,0.159-1.42,0.159-2.218c0-0.799-0.059-1.538-0.178-2.219c-0.119-0.68-0.306-1.266-0.561-1.759
			c-0.256-0.493-0.593-0.88-1.011-1.161c-0.418-0.281-0.927-0.421-1.526-0.421c-0.574,0-1.055,0.14-1.441,0.421
			c-0.387,0.281-0.696,0.668-0.926,1.161c-0.231,0.493-0.393,1.08-0.487,1.759c-0.094,0.68-0.14,1.42-0.14,2.219
			c0,0.798,0.062,1.538,0.187,2.218c0.125,0.68,0.321,1.267,0.59,1.759c0.268,0.493,0.611,0.88,1.03,1.161
			c0.418,0.281,0.92,0.421,1.507,0.421C27.261,31.699,27.717,31.559,28.091,31.278z"/>
		<path fill="#3B3C36" d="M49.524,10.703C3.863,10.703,0,17.869,0,26.708c0,8.839,5.602,16.005,49.524,16.005
			s49.524-7.166,49.524-16.005C99.048,17.869,95.185,10.703,49.524,10.703z M96.554,25.039c0.022,0.216,0.038,0.435,0.05,0.655
			c0.009,0.178-0.126,0.329-0.304,0.338c-0.006,0.001-0.012,0.001-0.018,0.001c-0.169,0-0.311-0.132-0.321-0.304
			c-0.011-0.211-0.027-0.419-0.047-0.627c-0.018-0.176,0.111-0.334,0.288-0.351C96.379,24.744,96.536,24.862,96.554,25.039z
			 M96.18,23.09c0.064,0.212,0.12,0.426,0.168,0.643c0.038,0.173-0.071,0.345-0.244,0.383c-0.023,0.005-0.047,0.007-0.07,0.007
			c-0.147,0-0.28-0.102-0.313-0.252c-0.045-0.201-0.096-0.4-0.156-0.597c-0.052-0.17,0.044-0.349,0.215-0.4
			C95.951,22.823,96.129,22.92,96.18,23.09z M94.93,21.156c0.152-0.091,0.35-0.043,0.441,0.108c0.117,0.193,0.224,0.388,0.322,0.586
			c0.079,0.159,0.013,0.351-0.146,0.431c-0.046,0.023-0.094,0.033-0.142,0.033c-0.118,0-0.232-0.065-0.288-0.179
			c-0.09-0.181-0.188-0.36-0.295-0.537C94.73,21.446,94.778,21.248,94.93,21.156z M93.677,19.707
			c0.125-0.126,0.329-0.128,0.454-0.002c0.162,0.16,0.313,0.322,0.455,0.486c0.116,0.135,0.101,0.338-0.033,0.454
			c-0.061,0.052-0.136,0.078-0.21,0.078c-0.09,0-0.18-0.038-0.243-0.111c-0.131-0.153-0.271-0.302-0.42-0.449
			C93.553,20.036,93.552,19.833,93.677,19.707z M90.469,17.616c0.079-0.158,0.272-0.223,0.431-0.144
			c0.2,0.1,0.393,0.201,0.579,0.303c0.156,0.086,0.212,0.281,0.127,0.437c-0.058,0.106-0.168,0.166-0.282,0.166
			c-0.052,0-0.105-0.012-0.154-0.039c-0.179-0.099-0.365-0.196-0.557-0.292C90.454,17.968,90.389,17.775,90.469,17.616z
			 M88.697,16.87c0.065-0.166,0.251-0.249,0.416-0.183c0.206,0.08,0.407,0.161,0.603,0.243c0.163,0.069,0.24,0.257,0.172,0.42
			c-0.052,0.123-0.171,0.197-0.296,0.197c-0.042,0-0.084-0.008-0.125-0.025c-0.19-0.08-0.386-0.159-0.587-0.237
			C88.715,17.222,88.633,17.035,88.697,16.87z M86.873,16.258c0.053-0.169,0.232-0.265,0.403-0.211
			c0.21,0.066,0.416,0.132,0.616,0.199c0.168,0.056,0.259,0.239,0.203,0.407c-0.045,0.134-0.17,0.219-0.305,0.219
			c-0.034,0-0.068-0.005-0.102-0.017c-0.197-0.065-0.399-0.131-0.605-0.195C86.914,16.608,86.82,16.428,86.873,16.258z
			 M85.016,15.748c0.044-0.172,0.22-0.276,0.391-0.232c0.212,0.055,0.421,0.11,0.625,0.166c0.171,0.047,0.272,0.223,0.226,0.395
			c-0.039,0.142-0.169,0.237-0.31,0.237c-0.028,0-0.056-0.004-0.085-0.011c-0.201-0.055-0.406-0.11-0.616-0.163
			C85.076,16.096,84.972,15.92,85.016,15.748z M83.139,15.319c0.038-0.174,0.209-0.284,0.382-0.246
			c0.214,0.046,0.424,0.092,0.631,0.14c0.173,0.04,0.281,0.212,0.241,0.385c-0.034,0.149-0.166,0.25-0.313,0.25
			c-0.024,0-0.048-0.002-0.072-0.008c-0.204-0.046-0.412-0.093-0.623-0.139C83.212,15.664,83.102,15.492,83.139,15.319z
			 M81.621,14.696l0.634,0.119c0.174,0.033,0.289,0.202,0.256,0.376c-0.029,0.154-0.164,0.261-0.315,0.261
			c-0.02,0-0.04-0.002-0.06-0.006l-0.629-0.117c-0.174-0.032-0.29-0.2-0.258-0.374C81.28,14.78,81.447,14.67,81.621,14.696z
			 M79.714,14.375l0.637,0.102c0.175,0.029,0.294,0.195,0.264,0.37c-0.026,0.157-0.162,0.269-0.317,0.269
			c-0.017,0-0.035-0.001-0.053-0.004l-0.631-0.101c-0.175-0.028-0.296-0.191-0.268-0.367C79.374,14.468,79.54,14.35,79.714,14.375z
			 M75.882,13.859l0.641,0.076c0.176,0.021,0.302,0.182,0.28,0.358c-0.02,0.163-0.159,0.282-0.319,0.282
			c-0.013,0-0.026-0.001-0.039-0.002l-0.635-0.075c-0.176-0.02-0.303-0.179-0.283-0.356C75.546,13.966,75.696,13.839,75.882,13.859z
			 M73.961,13.654l0.641,0.065c0.177,0.018,0.305,0.176,0.286,0.353c-0.017,0.165-0.157,0.288-0.32,0.288
			c-0.011,0-0.022-0.001-0.034-0.002l-0.637-0.065c-0.177-0.017-0.306-0.174-0.288-0.351C73.627,13.765,73.787,13.637,73.961,13.654
			z M72.038,13.476l0.641,0.056c0.177,0.016,0.307,0.172,0.292,0.348c-0.015,0.168-0.155,0.293-0.32,0.293
			c-0.009,0-0.019-0.001-0.029-0.001l-0.638-0.056c-0.177-0.015-0.308-0.17-0.293-0.347C71.705,13.593,71.868,13.47,72.038,13.476z
			 M70.113,13.323l0.642,0.049c0.177,0.013,0.309,0.168,0.296,0.345c-0.013,0.169-0.154,0.297-0.32,0.297
			c-0.008,0-0.017,0-0.025-0.001l-0.639-0.048c-0.177-0.013-0.31-0.167-0.297-0.344C69.782,13.443,69.937,13.309,70.113,13.323z
			 M70.976,16.578c0,0.271-0.22,0.49-0.49,0.49s-0.49-0.219-0.49-0.49s0.22-0.49,0.49-0.49S70.976,16.307,70.976,16.578z
			 M68.187,13.192l0.641,0.041c0.177,0.011,0.312,0.164,0.3,0.341c-0.011,0.17-0.153,0.301-0.32,0.301c-0.007,0-0.014,0-0.021-0.001
			l-0.641-0.041c-0.177-0.011-0.311-0.164-0.3-0.341S68.006,13.172,68.187,13.192z M68.979,16.578c0,0.271-0.22,0.49-0.49,0.49
			s-0.49-0.219-0.49-0.49s0.22-0.49,0.49-0.49S68.979,16.307,68.979,16.578z M66.259,13.08l0.642,0.035
			c0.177,0.01,0.313,0.161,0.303,0.339c-0.009,0.171-0.151,0.303-0.32,0.303c-0.006,0-0.012,0-0.018-0.001l-0.641-0.035
			c-0.177-0.009-0.313-0.16-0.304-0.338C65.93,13.207,66.07,13.06,66.259,13.08z M66.983,16.578c0,0.271-0.22,0.49-0.49,0.49
			c-0.271,0-0.49-0.219-0.49-0.49s0.22-0.49,0.49-0.49C66.763,16.087,66.983,16.307,66.983,16.578z M64.331,12.986l0.643,0.03
			c0.177,0.008,0.314,0.159,0.306,0.336c-0.008,0.172-0.15,0.306-0.321,0.306c-0.005,0-0.01,0-0.015-0.001l-0.641-0.029
			c-0.177-0.008-0.315-0.158-0.307-0.335C64.004,13.116,64.161,12.989,64.331,12.986z M64.987,16.578c0,0.271-0.219,0.49-0.49,0.49
			s-0.49-0.219-0.49-0.49s0.22-0.49,0.49-0.49S64.987,16.307,64.987,16.578z M63.806,31.98c0.2-0.125,0.415-0.234,0.646-0.328
			c0.231-0.094,0.459-0.166,0.683-0.215l4.829-12.074h1.385l4.698,12.074c0.249,0.05,0.499,0.122,0.749,0.215
			c0.249,0.094,0.468,0.203,0.655,0.328v0.711h-5.859V31.98c0.237-0.112,0.493-0.218,0.767-0.318s0.537-0.175,0.786-0.225
			l-1.086-2.976h-4.156l-1.104,2.976c0.574,0.075,1.117,0.256,1.628,0.543v0.711h-4.623V31.98z M62.404,12.907l0.642,0.024
			c0.177,0.007,0.316,0.156,0.309,0.334c-0.007,0.173-0.149,0.309-0.321,0.309c-0.004,0-0.008,0-0.013,0L62.38,13.55
			c-0.177-0.007-0.316-0.156-0.309-0.333C62.078,13.039,62.231,12.912,62.404,12.907z M62.5,16.087c0.271,0,0.49,0.219,0.49,0.49
			s-0.22,0.49-0.49,0.49c-0.271,0-0.49-0.219-0.49-0.49S62.229,16.087,62.5,16.087z M63.207,20.019c0,0.2-0.009,0.456-0.028,0.768
			c-0.019,0.312-0.05,0.64-0.094,0.983c-0.044,0.343-0.093,0.68-0.15,1.01c-0.056,0.331-0.11,0.608-0.159,0.833H61.99l-1.029-2.826
			c-0.112-0.062-0.294-0.112-0.543-0.15c-0.25-0.037-0.506-0.056-0.768-0.056c-0.512,0-0.992,0.103-1.441,0.309
			c-0.449,0.206-0.848,0.534-1.198,0.983c-0.35,0.449-0.624,1.026-0.824,1.731c-0.2,0.705-0.299,1.551-0.299,2.537
			c0,1.784,0.356,3.157,1.067,4.118c0.711,0.961,1.678,1.441,2.901,1.441c0.349,0,0.646-0.028,0.889-0.084
			c0.243-0.056,0.409-0.134,0.496-0.234l0.917-2.62h0.768c0.05,0.2,0.096,0.44,0.14,0.721c0.044,0.281,0.081,0.58,0.112,0.899
			c0.031,0.318,0.053,0.633,0.066,0.945c0.012,0.312,0.018,0.592,0.018,0.842c-0.437,0.274-0.982,0.468-1.638,0.58
			c-0.655,0.112-1.326,0.169-2.012,0.169c-1.036,0-1.975-0.128-2.817-0.384c-0.842-0.255-1.56-0.661-2.153-1.216
			c-0.593-0.555-1.051-1.26-1.376-2.115c-0.324-0.855-0.487-1.882-0.487-3.079c0-1.186,0.178-2.205,0.534-3.061
			c0.356-0.854,0.833-1.557,1.432-2.106c0.599-0.548,1.294-0.951,2.087-1.207c0.792-0.256,1.625-0.384,2.499-0.384
			c0.824,0,1.569,0.06,2.237,0.178C62.236,19.66,62.783,19.819,63.207,20.019z M60.474,12.843l0.643,0.02
			c0.177,0.006,0.317,0.154,0.311,0.332c-0.005,0.174-0.148,0.311-0.321,0.311c-0.004,0-0.007,0-0.011,0l-0.642-0.02
			c-0.177-0.005-0.317-0.153-0.312-0.331C60.149,12.977,60.311,12.854,60.474,12.843z M60.504,16.087c0.271,0,0.49,0.219,0.49,0.49
			s-0.22,0.49-0.49,0.49c-0.271,0-0.49-0.219-0.49-0.49S60.233,16.087,60.504,16.087z M58.546,12.79l0.643,0.016
			c0.177,0.005,0.318,0.152,0.313,0.33c-0.005,0.174-0.148,0.313-0.321,0.313c-0.003,0-0.006,0-0.009,0l-0.641-0.016
			c-0.177-0.004-0.318-0.151-0.314-0.329C58.221,12.927,58.363,12.791,58.546,12.79z M58.507,16.087c0.271,0,0.49,0.219,0.49,0.49
			s-0.219,0.49-0.49,0.49c-0.271,0-0.49-0.219-0.49-0.49S58.236,16.087,58.507,16.087z M56.617,12.751l0.643,0.012
			c0.178,0.004,0.318,0.151,0.315,0.328c-0.004,0.175-0.147,0.314-0.321,0.314c-0.002,0-0.004,0-0.006,0l-0.642-0.012
			c-0.177-0.003-0.319-0.149-0.316-0.327C56.293,12.889,56.45,12.76,56.617,12.751z M56.511,16.087c0.271,0,0.49,0.219,0.49,0.49
			s-0.22,0.49-0.49,0.49c-0.271,0-0.49-0.219-0.49-0.49S56.24,16.087,56.511,16.087z M54.687,12.721l0.643,0.009
			c0.178,0.003,0.319,0.149,0.317,0.326c-0.002,0.176-0.146,0.316-0.321,0.316c-0.002,0-0.003,0-0.005,0l-0.642-0.009
			c-0.177-0.002-0.32-0.148-0.318-0.325C54.364,12.861,54.494,12.721,54.687,12.721z M54.515,16.087c0.271,0,0.49,0.219,0.49,0.49
			s-0.22,0.49-0.49,0.49s-0.49-0.219-0.49-0.49S54.244,16.087,54.515,16.087z M52.759,12.702l0.643,0.006
			c0.178,0.002,0.32,0.147,0.319,0.325c-0.002,0.176-0.145,0.318-0.321,0.318c-0.001,0-0.002,0-0.003,0l-0.643-0.006
			c-0.177-0.001-0.32-0.147-0.319-0.324C52.437,12.843,52.596,12.728,52.759,12.702z M52.518,16.087c0.271,0,0.49,0.219,0.49,0.49
			s-0.22,0.49-0.49,0.49c-0.271,0-0.49-0.219-0.49-0.49S52.247,16.087,52.518,16.087z M50.829,12.692L50.829,12.692l0.644,0.003
			c0.178,0.001,0.32,0.146,0.319,0.323c-0.001,0.177-0.145,0.319-0.321,0.319c0,0-0.001,0-0.002,0l-0.641-0.003
			c-0.178-0.001-0.321-0.145-0.32-0.323C50.508,12.835,50.652,12.692,50.829,12.692z M48.901,12.691l0.622-0.001l0.021,0.643
			l-0.643,0.001c-0.178,0-0.321-0.144-0.321-0.321C48.579,12.834,48.723,12.691,48.901,12.691z M46.971,12.698l0.644-0.003h0.001
			c0.177,0,0.321,0.143,0.322,0.321c0.001,0.177-0.143,0.321-0.32,0.322l-0.642,0.003c-0.001,0-0.001,0-0.001,0
			c-0.177,0-0.321-0.142-0.322-0.319C46.651,12.843,46.793,12.699,46.971,12.698z M45.041,12.713l0.644-0.006
			c0.001,0,0.002,0,0.003,0c0.176,0,0.32,0.142,0.321,0.319c0.002,0.177-0.141,0.322-0.319,0.324l-0.642,0.006
			c-0.001,0-0.002,0-0.004,0c-0.176,0-0.319-0.141-0.321-0.318C44.722,12.861,44.864,12.715,45.041,12.713z M44.533,16.087
			c0.271,0,0.49,0.219,0.49,0.49s-0.219,0.49-0.49,0.49c-0.271,0-0.49-0.219-0.49-0.49S44.262,16.087,44.533,16.087z M43.113,12.739
			l0.643-0.009c0.177-0.022,0.324,0.139,0.326,0.317c0.003,0.177-0.139,0.323-0.317,0.326l-0.643,0.009c-0.001,0-0.003,0-0.005,0
			c-0.175,0-0.319-0.141-0.321-0.316C42.793,12.888,42.935,12.741,43.113,12.739z M42.537,16.087c0.271,0,0.49,0.219,0.49,0.49
			s-0.22,0.49-0.49,0.49c-0.271,0-0.49-0.219-0.49-0.49S42.266,16.087,42.537,16.087z M41.184,12.775l0.642-0.013
			c0.195-0.002,0.324,0.137,0.328,0.315c0.003,0.177-0.138,0.324-0.315,0.328l-0.642,0.013c-0.002,0-0.004,0-0.007,0
			c-0.175,0-0.318-0.139-0.321-0.314C40.865,12.926,41.006,12.779,41.184,12.775z M41.031,16.578c0,0.271-0.22,0.49-0.49,0.49
			c-0.271,0-0.49-0.219-0.49-0.49s0.219-0.49,0.49-0.49C40.811,16.087,41.031,16.307,41.031,16.578z M39.255,12.823l0.642-0.017
			c0.155,0.004,0.325,0.135,0.33,0.313c0.004,0.177-0.136,0.324-0.313,0.329l-0.642,0.017c-0.003,0-0.006,0-0.008,0
			c-0.174,0-0.317-0.138-0.321-0.313C38.937,12.976,39.077,12.828,39.255,12.823z M39.034,16.578c0,0.271-0.22,0.49-0.49,0.49
			c-0.271,0-0.49-0.219-0.49-0.49s0.219-0.49,0.49-0.49C38.815,16.087,39.034,16.307,39.034,16.578z M37.325,12.883l0.643-0.021
			c0.182,0.003,0.326,0.134,0.331,0.311c0.006,0.177-0.133,0.326-0.311,0.331l-0.641,0.021c-0.004,0-0.007,0-0.012,0
			c-0.172,0-0.315-0.136-0.321-0.31C37.009,13.038,37.148,12.889,37.325,12.883z M37.038,16.578c0,0.271-0.22,0.49-0.49,0.49
			c-0.271,0-0.49-0.219-0.49-0.49s0.22-0.49,0.49-0.49C36.818,16.087,37.038,16.307,37.038,16.578z M35.397,12.957l0.642-0.026
			c0.174-0.003,0.327,0.131,0.334,0.308c0.007,0.178-0.131,0.327-0.308,0.335l-0.642,0.026c-0.004,0-0.009,0-0.014,0
			c-0.171,0-0.313-0.136-0.321-0.308C35.082,13.114,35.22,12.964,35.397,12.957z M35.042,16.578c0,0.271-0.22,0.49-0.49,0.49
			c-0.271,0-0.49-0.219-0.49-0.49s0.219-0.49,0.49-0.49C34.822,16.087,35.042,16.307,35.042,16.578z M33.045,16.578
			c0,0.271-0.22,0.49-0.49,0.49c-0.271,0-0.49-0.219-0.49-0.49s0.22-0.49,0.49-0.49C32.826,16.087,33.045,16.307,33.045,16.578z
			 M33.045,36.112c0,0.271-0.22,0.49-0.49,0.49c-0.271,0-0.49-0.219-0.49-0.49c0-0.271,0.22-0.49,0.49-0.49
			C32.826,35.621,33.045,35.841,33.045,36.112z M31.542,13.151l0.643-0.037c0.18-0.021,0.329,0.126,0.339,0.303
			c0.01,0.177-0.126,0.329-0.303,0.338l-0.641,0.037c-0.006,0.001-0.013,0.001-0.019,0.001c-0.169,0-0.31-0.132-0.32-0.302
			C31.229,13.314,31.365,13.162,31.542,13.151z M31.049,16.578c0,0.271-0.22,0.49-0.49,0.49c-0.271,0-0.49-0.219-0.49-0.49
			s0.22-0.49,0.49-0.49C30.829,16.087,31.049,16.307,31.049,16.578z M29.614,13.274l0.642-0.044
			c0.187-0.013,0.331,0.122,0.342,0.299c0.012,0.177-0.122,0.33-0.299,0.342l-0.64,0.044c-0.008,0.001-0.016,0.001-0.023,0.001
			c-0.167,0-0.308-0.129-0.32-0.299C29.304,13.441,29.437,13.287,29.614,13.274z M29.052,16.578c0,0.271-0.219,0.49-0.49,0.49
			c-0.271,0-0.49-0.219-0.49-0.49s0.219-0.49,0.49-0.49C28.833,16.087,29.052,16.307,29.052,16.578z M27.69,13.42l0.641-0.051
			c0.174-0.026,0.331,0.118,0.345,0.295c0.014,0.177-0.118,0.331-0.295,0.345l-0.64,0.051c-0.009,0.001-0.018,0.001-0.026,0.001
			c-0.166,0-0.307-0.127-0.32-0.296C27.381,13.589,27.513,13.434,27.69,13.42z M25.765,13.588l0.641-0.059
			c0.173-0.009,0.333,0.115,0.349,0.291c0.016,0.176-0.114,0.333-0.291,0.349l-0.638,0.059c-0.01,0.001-0.021,0.001-0.031,0.001
			c-0.164,0-0.304-0.125-0.319-0.291C25.459,13.762,25.589,13.605,25.765,13.588z M23.843,13.783l0.641-0.068
			c0.174-0.021,0.334,0.11,0.353,0.287c0.018,0.176-0.111,0.335-0.287,0.352l-0.636,0.068c-0.012,0.001-0.024,0.002-0.036,0.002
			c-0.162,0-0.301-0.122-0.319-0.286C23.54,13.961,23.667,13.802,23.843,13.783z M21.924,14.009l0.64-0.079
			c0.18-0.028,0.336,0.105,0.357,0.28c0.021,0.176-0.105,0.336-0.281,0.357l-0.635,0.079c-0.014,0.002-0.028,0.003-0.041,0.003
			c-0.159,0-0.298-0.118-0.319-0.281C21.624,14.193,21.748,14.032,21.924,14.009z M20.009,14.271l0.638-0.092
			c0.175-0.023,0.338,0.098,0.363,0.274c0.025,0.176-0.098,0.338-0.274,0.363l-0.634,0.092c-0.016,0.002-0.032,0.003-0.047,0.003
			c-0.157,0-0.294-0.115-0.317-0.275C19.712,14.461,19.834,14.297,20.009,14.271z M18.099,14.576l0.636-0.107
			c0.175-0.029,0.34,0.09,0.369,0.265c0.029,0.175-0.09,0.34-0.265,0.369l-0.631,0.107c-0.018,0.003-0.037,0.004-0.055,0.004
			c-0.154,0-0.29-0.11-0.316-0.267C17.807,14.773,17.924,14.606,18.099,14.576z M16.196,14.933l0.633-0.126
			c0.176-0.031,0.343,0.08,0.377,0.254c0.034,0.175-0.08,0.343-0.254,0.377l-0.627,0.124c-0.022,0.004-0.043,0.006-0.064,0.006
			c-0.15,0-0.284-0.105-0.314-0.257C15.91,15.138,16.022,14.969,16.196,14.933z M14.304,15.352c0.206-0.05,0.417-0.099,0.63-0.147
			c0.173-0.041,0.345,0.07,0.384,0.243c0.039,0.173-0.07,0.344-0.243,0.384c-0.21,0.048-0.417,0.096-0.62,0.146
			c-0.025,0.006-0.051,0.009-0.076,0.009c-0.145,0-0.276-0.099-0.312-0.246C14.026,15.568,14.132,15.394,14.304,15.352z
			 M12.429,15.849c0.204-0.06,0.411-0.119,0.624-0.176c0.169-0.046,0.348,0.055,0.394,0.226c0.046,0.171-0.055,0.348-0.226,0.394
			c-0.208,0.056-0.412,0.114-0.612,0.173c-0.03,0.009-0.06,0.013-0.09,0.013c-0.139,0-0.267-0.091-0.308-0.231
			C12.16,16.077,12.258,15.898,12.429,15.849z M10.579,16.446c0.2-0.072,0.404-0.142,0.613-0.212c0.17-0.057,0.35,0.035,0.406,0.203
			c0.056,0.168-0.035,0.35-0.203,0.407c-0.205,0.068-0.405,0.137-0.6,0.207c-0.036,0.012-0.073,0.019-0.109,0.019
			c-0.132,0-0.255-0.082-0.302-0.213C10.325,16.691,10.412,16.507,10.579,16.446z M8.771,17.176c0.193-0.088,0.392-0.174,0.597-0.26
			c0.164-0.068,0.352,0.009,0.421,0.172c0.069,0.164-0.009,0.352-0.172,0.421c-0.199,0.083-0.392,0.167-0.579,0.253
			C8.994,17.78,8.948,17.79,8.904,17.79c-0.122,0-0.239-0.07-0.293-0.188C8.538,17.44,8.609,17.249,8.771,17.176z M4.07,20.679
			c0.13-0.175,0.269-0.348,0.418-0.519c0.117-0.134,0.319-0.147,0.453-0.03c0.133,0.117,0.147,0.32,0.03,0.453
			c-0.137,0.157-0.266,0.316-0.384,0.478c-0.063,0.085-0.16,0.131-0.259,0.131c-0.066,0-0.133-0.021-0.19-0.063
			C3.995,21.023,3.965,20.822,4.07,20.679z M3.1,22.423c0.081-0.205,0.172-0.408,0.273-0.609c0.08-0.158,0.272-0.223,0.431-0.144
			c0.159,0.08,0.223,0.272,0.144,0.431c-0.093,0.185-0.176,0.371-0.25,0.559c-0.05,0.126-0.171,0.203-0.299,0.203
			c-0.039,0-0.08-0.008-0.119-0.023C3.114,22.775,3.034,22.588,3.1,22.423z M2.708,23.693c0.04-0.173,0.211-0.283,0.385-0.242
			c0.173,0.039,0.281,0.212,0.242,0.385c-0.046,0.201-0.085,0.404-0.117,0.609c-0.025,0.158-0.162,0.271-0.317,0.271
			c-0.017,0-0.034-0.001-0.051-0.004c-0.175-0.028-0.295-0.193-0.267-0.368C2.618,24.126,2.659,23.908,2.708,23.693z M2.447,25.654
			c0.009-0.177,0.158-0.328,0.339-0.302c0.177,0.01,0.313,0.161,0.303,0.339c-0.012,0.208-0.019,0.419-0.023,0.63
			c-0.003,0.175-0.147,0.315-0.321,0.315c-0.002,0-0.004,0-0.006,0c-0.178-0.003-0.319-0.15-0.315-0.328
			C2.427,26.089,2.435,25.871,2.447,25.654z M2.506,28.275c-0.026-0.217-0.045-0.437-0.059-0.658
			c-0.011-0.177,0.124-0.329,0.301-0.34c0.183-0.014,0.33,0.124,0.34,0.301c0.013,0.208,0.031,0.416,0.056,0.621
			c0.021,0.176-0.105,0.336-0.281,0.356c-0.013,0.002-0.026,0.003-0.038,0.003C2.664,28.559,2.525,28.439,2.506,28.275z
			 M3.241,30.435c-0.134,0-0.259-0.084-0.304-0.218c-0.072-0.211-0.135-0.424-0.191-0.639c-0.044-0.172,0.059-0.347,0.231-0.392
			c0.171-0.044,0.347,0.06,0.391,0.231c0.051,0.2,0.11,0.397,0.176,0.592c0.057,0.168-0.032,0.35-0.2,0.408
			C3.31,30.429,3.275,30.435,3.241,30.435z M4.255,32.106c-0.054,0.035-0.115,0.052-0.175,0.052c-0.105,0-0.208-0.051-0.269-0.146
			c-0.124-0.189-0.237-0.38-0.342-0.574c-0.084-0.156-0.025-0.351,0.131-0.435c0.157-0.083,0.352-0.025,0.435,0.131
			c0.095,0.178,0.2,0.353,0.313,0.527C4.446,31.809,4.404,32.008,4.255,32.106z M5.539,33.53c-0.063,0.065-0.148,0.099-0.232,0.099
			c-0.08,0-0.16-0.029-0.223-0.09c-0.163-0.156-0.317-0.315-0.462-0.476c-0.119-0.132-0.109-0.335,0.023-0.454
			C4.778,32.491,4.981,32.5,5.1,32.632c0.135,0.149,0.278,0.297,0.43,0.443C5.658,33.198,5.662,33.402,5.539,33.53z M5.64,19.796
			c-0.09,0-0.18-0.038-0.244-0.112c-0.115-0.135-0.1-0.338,0.035-0.453c0.163-0.14,0.334-0.278,0.515-0.414
			c0.142-0.105,0.344-0.079,0.45,0.063c0.107,0.142,0.078,0.343-0.063,0.45c-0.169,0.127-0.33,0.257-0.483,0.388
			C5.789,19.77,5.715,19.796,5.64,19.796z M7.073,34.685c-0.062,0.092-0.163,0.142-0.267,0.142c-0.062,0-0.124-0.018-0.179-0.055
			c-0.187-0.125-0.365-0.252-0.536-0.38c-0.142-0.107-0.171-0.308-0.064-0.45c0.106-0.141,0.308-0.171,0.45-0.065
			c0.163,0.122,0.332,0.242,0.509,0.361C7.133,34.338,7.172,34.538,7.073,34.685z M7.201,18.679c-0.109,0-0.215-0.055-0.275-0.156
			c-0.092-0.152-0.043-0.35,0.109-0.441c0.182-0.109,0.371-0.218,0.567-0.325c0.156-0.086,0.351-0.028,0.436,0.127
			c0.085,0.156,0.028,0.351-0.127,0.436c-0.189,0.104-0.37,0.207-0.545,0.313C7.315,18.664,7.258,18.679,7.201,18.679z
			 M8.754,35.616c-0.057,0.112-0.17,0.176-0.287,0.176c-0.049,0-0.098-0.011-0.144-0.035c-0.199-0.1-0.392-0.202-0.578-0.306
			c-0.155-0.087-0.211-0.283-0.125-0.438c0.086-0.154,0.282-0.21,0.437-0.125c0.179,0.1,0.365,0.198,0.556,0.294
			C8.77,35.264,8.834,35.457,8.754,35.616z M8.109,20.618c-0.256-0.1-0.49-0.206-0.702-0.318v-0.711h6.14v0.711
			c-0.175,0.1-0.374,0.2-0.599,0.3s-0.487,0.181-0.786,0.243l2.677,5.017l2.546-5.017c-0.287-0.062-0.562-0.143-0.824-0.243
			c-0.262-0.1-0.487-0.2-0.674-0.3v-0.711h4.586v0.711c-0.187,0.112-0.396,0.222-0.627,0.328c-0.231,0.106-0.465,0.178-0.702,0.215
			l-3.631,6.365v4.23c0.249,0.025,0.496,0.09,0.739,0.196c0.243,0.106,0.471,0.222,0.683,0.347v0.711H11.17V31.98
			c0.212-0.112,0.449-0.218,0.712-0.318c0.262-0.1,0.536-0.175,0.824-0.225v-4.212l-3.781-6.383
			C8.636,20.793,8.365,20.718,8.109,20.618z M10.521,36.376c-0.05,0.126-0.171,0.202-0.298,0.202c-0.04,0-0.08-0.007-0.119-0.023
			c-0.206-0.082-0.406-0.165-0.601-0.249c-0.163-0.07-0.238-0.259-0.168-0.422c0.07-0.162,0.259-0.239,0.422-0.167
			c0.19,0.082,0.385,0.162,0.585,0.242C10.507,36.023,10.587,36.21,10.521,36.376z M12.34,37.004
			c-0.044,0.136-0.17,0.222-0.306,0.222c-0.033,0-0.066-0.005-0.099-0.016c-0.21-0.068-0.415-0.136-0.615-0.205
			c-0.168-0.058-0.257-0.241-0.199-0.409c0.058-0.168,0.24-0.256,0.409-0.199c0.196,0.068,0.398,0.135,0.603,0.201
			C12.302,36.654,12.394,36.835,12.34,37.004z M14.192,37.529c-0.038,0.144-0.168,0.239-0.31,0.239
			c-0.027,0-0.055-0.003-0.083-0.011c-0.212-0.056-0.42-0.114-0.623-0.171c-0.171-0.048-0.27-0.226-0.222-0.397
			c0.048-0.171,0.227-0.27,0.396-0.222c0.201,0.057,0.406,0.114,0.614,0.169C14.136,37.181,14.238,37.357,14.192,37.529z
			 M16.066,37.975c-0.034,0.149-0.166,0.251-0.313,0.251c-0.023,0-0.047-0.002-0.071-0.008c-0.213-0.048-0.423-0.096-0.63-0.146
			c-0.173-0.041-0.279-0.215-0.238-0.387c0.041-0.173,0.217-0.28,0.387-0.238c0.204,0.048,0.411,0.097,0.622,0.144
			C15.996,37.631,16.104,37.803,16.066,37.975z M17.639,38.618c-0.02,0-0.04-0.002-0.061-0.006l-0.633-0.124
			c-0.174-0.034-0.287-0.204-0.252-0.378c0.034-0.174,0.202-0.289,0.378-0.252l0.628,0.123c0.174,0.033,0.288,0.202,0.255,0.376
			C17.924,38.51,17.79,38.618,17.639,38.618z M19.536,38.953c-0.017,0-0.035-0.001-0.052-0.004l-0.636-0.106
			c-0.175-0.03-0.292-0.196-0.262-0.372c0.03-0.174,0.193-0.292,0.371-0.262l0.631,0.106c0.175,0.029,0.294,0.194,0.265,0.369
			C19.827,38.842,19.69,38.953,19.536,38.953z M21.441,39.243c-0.015,0-0.03-0.001-0.045-0.003l-0.638-0.092
			c-0.176-0.026-0.297-0.19-0.271-0.365c0.026-0.176,0.185-0.292,0.365-0.272l0.634,0.092c0.176,0.024,0.298,0.187,0.273,0.363
			C21.736,39.126,21.599,39.243,21.441,39.243z M23.351,39.493c-0.013,0-0.026-0.001-0.039-0.003l-0.639-0.08
			c-0.176-0.023-0.301-0.184-0.278-0.36c0.023-0.176,0.183-0.301,0.36-0.278l0.636,0.08c0.176,0.021,0.301,0.182,0.28,0.358
			C23.65,39.374,23.511,39.493,23.351,39.493z M21.858,30.997c-0.537-0.605-0.942-1.322-1.217-2.153
			c-0.275-0.83-0.412-1.732-0.412-2.705c0-0.974,0.137-1.875,0.412-2.705c0.274-0.83,0.68-1.547,1.217-2.153
			c0.536-0.605,1.198-1.076,1.984-1.413c0.786-0.336,1.691-0.505,2.714-0.505c1.023,0,1.928,0.169,2.714,0.505
			c0.786,0.337,1.444,0.808,1.975,1.413c0.53,0.606,0.933,1.323,1.208,2.153c0.274,0.83,0.412,1.732,0.412,2.705
			c0,0.973-0.137,1.875-0.412,2.705c-0.275,0.83-0.677,1.548-1.208,2.153c-0.53,0.606-1.188,1.076-1.975,1.414
			c-0.786,0.336-1.691,0.505-2.714,0.505c-1.023,0-1.928-0.169-2.714-0.505C23.056,32.074,22.394,31.603,21.858,30.997z
			 M31.049,36.112c0,0.271-0.22,0.49-0.49,0.49c-0.271,0-0.49-0.219-0.49-0.49c0-0.271,0.22-0.49,0.49-0.49
			C30.829,35.621,31.049,35.841,31.049,36.112z M25.266,39.709c-0.011,0-0.023-0.001-0.034-0.002l-0.641-0.069
			c-0.176-0.02-0.303-0.18-0.283-0.356c0.02-0.176,0.178-0.302,0.356-0.283l0.636,0.069c0.176,0.018,0.304,0.176,0.286,0.353
			C25.568,39.587,25.428,39.709,25.266,39.709z M27.184,39.896c-0.01,0-0.02-0.001-0.029-0.001l-0.641-0.06
			c-0.177-0.017-0.306-0.174-0.289-0.35c0.017-0.176,0.169-0.3,0.35-0.29l0.638,0.06c0.177,0.016,0.307,0.173,0.291,0.349
			C27.489,39.771,27.349,39.896,27.184,39.896z M28.562,35.621c0.271,0,0.49,0.22,0.49,0.49c0,0.271-0.219,0.49-0.49,0.49
			c-0.271,0-0.49-0.219-0.49-0.49C28.072,35.841,28.291,35.621,28.562,35.621z M29.104,40.057c-0.009,0-0.017-0.001-0.025-0.001
			l-0.641-0.051c-0.177-0.014-0.309-0.169-0.295-0.346c0.014-0.177,0.168-0.305,0.346-0.294l0.64,0.051
			c0.177,0.014,0.309,0.168,0.295,0.345C29.411,39.929,29.271,40.057,29.104,40.057z M31.027,40.196c-0.007,0-0.014,0-0.022-0.001
			l-0.642-0.044c-0.177-0.012-0.31-0.166-0.297-0.343c0.012-0.177,0.163-0.315,0.343-0.298l0.64,0.044
			c0.177,0.012,0.311,0.165,0.299,0.342C31.336,40.066,31.194,40.196,31.027,40.196z M32.951,40.315c-0.006,0-0.012,0-0.018-0.001
			l-0.642-0.037c-0.177-0.011-0.313-0.162-0.302-0.339c0.011-0.177,0.162-0.318,0.339-0.302l0.641,0.037
			c0.177,0.009,0.313,0.161,0.303,0.338C33.262,40.182,33.12,40.315,32.951,40.315z M33.485,13.688c-0.17,0-0.312-0.134-0.321-0.305
			c-0.009-0.178,0.128-0.328,0.305-0.337l0.643-0.031c0.177-0.012,0.328,0.129,0.336,0.306c0.008,0.178-0.129,0.328-0.306,0.336
			l-0.641,0.031C33.496,13.688,33.49,13.688,33.485,13.688z M34.876,40.414c-0.005,0-0.01,0-0.015-0.001l-0.643-0.031
			c-0.177-0.009-0.314-0.16-0.305-0.337c0.009-0.176,0.156-0.325,0.337-0.304l0.641,0.031c0.177,0.008,0.314,0.158,0.306,0.336
			C35.188,40.279,35.046,40.414,34.876,40.414z M34.061,36.112c0-0.271,0.219-0.49,0.49-0.49c0.271,0,0.49,0.22,0.49,0.49
			c0,0.271-0.22,0.49-0.49,0.49C34.28,36.602,34.061,36.382,34.061,36.112z M36.801,40.498c-0.004,0-0.008,0-0.012,0l-0.643-0.026
			c-0.177-0.008-0.315-0.158-0.308-0.335c0.008-0.177,0.176-0.31,0.334-0.308l0.641,0.026c0.177,0.007,0.316,0.156,0.309,0.333
			C37.115,40.362,36.973,40.498,36.801,40.498z M36.057,36.112c0-0.271,0.22-0.49,0.49-0.49c0.271,0,0.49,0.22,0.49,0.49
			c0,0.271-0.22,0.49-0.49,0.49C36.277,36.602,36.057,36.382,36.057,36.112z M38.727,40.566c-0.004,0-0.007,0-0.011,0l-0.643-0.021
			c-0.177-0.006-0.316-0.156-0.31-0.333c0.006-0.178,0.167-0.317,0.332-0.31l0.641,0.021c0.177,0.006,0.317,0.154,0.311,0.331
			C39.043,40.428,38.9,40.566,38.727,40.566z M38.054,36.112c0-0.271,0.219-0.49,0.49-0.49c0.271,0,0.49,0.22,0.49,0.49
			c0,0.271-0.22,0.49-0.49,0.49C38.273,36.602,38.054,36.382,38.054,36.112z M40.654,40.621c-0.003,0-0.006,0-0.009,0l-0.642-0.017
			c-0.177-0.005-0.318-0.152-0.313-0.33s0.15-0.321,0.33-0.313l0.642,0.017c0.177,0.005,0.317,0.153,0.313,0.329
			C40.97,40.483,40.828,40.621,40.654,40.621z M40.54,36.602c-0.271,0-0.49-0.219-0.49-0.49c0-0.271,0.219-0.49,0.49-0.49
			c0.271,0,0.49,0.22,0.49,0.49C41.031,36.382,40.811,36.602,40.54,36.602z M42.581,40.664c-0.002,0-0.004,0-0.006,0l-0.643-0.013
			c-0.178-0.004-0.318-0.151-0.315-0.328c0.004-0.177,0.149-0.306,0.328-0.314l0.642,0.013c0.177,0.003,0.319,0.149,0.316,0.327
			C42.899,40.524,42.756,40.664,42.581,40.664z M42.537,36.602c-0.271,0-0.49-0.219-0.49-0.49c0-0.271,0.22-0.49,0.49-0.49
			c0.271,0,0.49,0.22,0.49,0.49C43.027,36.382,42.807,36.602,42.537,36.602z M44.509,40.694c-0.001,0-0.003,0-0.004,0l-0.644-0.009
			c-0.178-0.002-0.319-0.149-0.317-0.326c0.002-0.178,0.136-0.328,0.326-0.316l0.642,0.009c0.177,0.002,0.32,0.148,0.318,0.325
			C44.828,40.553,44.684,40.694,44.509,40.694z M44.533,36.602c-0.271,0-0.49-0.219-0.49-0.49c0-0.271,0.22-0.49,0.49-0.49
			c0.271,0,0.49,0.22,0.49,0.49C45.023,36.382,44.804,36.602,44.533,36.602z M45.35,27.974c0,1.598-0.421,2.811-1.264,3.641
			c-0.842,0.83-2.031,1.245-3.566,1.245c-1.672,0-2.964-0.374-3.875-1.123c-0.911-0.749-1.366-1.947-1.366-3.594v-7.301
			c-0.25-0.037-0.512-0.103-0.786-0.197s-0.524-0.209-0.748-0.346v-0.711h5.765v0.711c-0.412,0.262-0.886,0.443-1.423,0.543v7.207
			c0,0.611,0.068,1.123,0.206,1.535c0.137,0.412,0.337,0.746,0.599,1.002c0.262,0.256,0.577,0.44,0.945,0.552
			c0.368,0.112,0.783,0.168,1.245,0.168c0.412,0,0.789-0.059,1.132-0.178c0.343-0.119,0.643-0.309,0.899-0.571
			c0.256-0.262,0.452-0.605,0.59-1.029c0.137-0.424,0.206-0.948,0.206-1.573v-7.019c-0.287-0.062-0.584-0.149-0.889-0.262
			c-0.306-0.112-0.559-0.237-0.758-0.375v-0.711h4.642v0.711c-0.224,0.163-0.474,0.294-0.749,0.393
			c-0.275,0.1-0.543,0.181-0.805,0.243V27.974z M46.436,40.714c-0.001,0-0.002,0-0.003,0l-0.643-0.006
			c-0.178-0.002-0.32-0.147-0.318-0.325c0.001-0.176,0.145-0.318,0.321-0.318c0.001,0,0.002,0,0.003,0l0.643,0.006
			c0.177,0.001,0.32,0.147,0.319,0.324C46.756,40.572,46.612,40.714,46.436,40.714z M46.529,36.602c-0.271,0-0.49-0.219-0.49-0.49
			c0-0.271,0.219-0.49,0.49-0.49c0.271,0,0.49,0.22,0.49,0.49C47.02,36.382,46.8,36.602,46.529,36.602z M46.529,17.068
			c-0.271,0-0.49-0.219-0.49-0.49s0.219-0.49,0.49-0.49c0.271,0,0.49,0.219,0.49,0.49S46.8,17.068,46.529,17.068z M48.364,40.724
			L48.364,40.724l-0.644-0.003c-0.178-0.001-0.32-0.146-0.319-0.323c0.001-0.177,0.145-0.32,0.321-0.32h0.001l0.642,0.003
			c0.178,0.001,0.321,0.145,0.32,0.322C48.685,40.581,48.541,40.724,48.364,40.724z M48.526,36.602c-0.271,0-0.49-0.219-0.49-0.49
			c0-0.271,0.22-0.49,0.49-0.49c0.271,0,0.49,0.22,0.49,0.49C49.016,36.382,48.796,36.602,48.526,36.602z M48.526,17.068
			c-0.271,0-0.49-0.219-0.49-0.49s0.22-0.49,0.49-0.49c0.271,0,0.49,0.219,0.49,0.49S48.796,17.068,48.526,17.068z M50.293,40.725
			l-0.644,0.001c-0.178,0-0.321-0.144-0.321-0.321c0-0.178,0.144-0.321,0.321-0.321l0.642-0.001h0.001
			c0.177,0,0.321,0.143,0.321,0.32C50.614,40.58,50.47,40.724,50.293,40.725z M50.522,36.602c-0.271,0-0.49-0.219-0.49-0.49
			c0-0.271,0.22-0.49,0.49-0.49c0.271,0,0.49,0.22,0.49,0.49C51.012,36.382,50.793,36.602,50.522,36.602z M50.522,17.068
			c-0.271,0-0.49-0.219-0.49-0.49s0.22-0.49,0.49-0.49c0.271,0,0.49,0.219,0.49,0.49S50.793,17.068,50.522,17.068z M52.221,40.717
			l-0.643,0.004c-0.001,0-0.001,0-0.001,0c-0.177,0-0.321-0.143-0.322-0.319c-0.001-0.178,0.142-0.322,0.319-0.323l0.643-0.004
			c0.168,0.014,0.322,0.142,0.323,0.319C52.542,40.571,52.399,40.716,52.221,40.717z M52.518,36.602c-0.271,0-0.49-0.219-0.49-0.49
			c0-0.271,0.22-0.49,0.49-0.49c0.271,0,0.49,0.22,0.49,0.49C53.009,36.382,52.789,36.602,52.518,36.602z M54.151,40.699
			l-0.644,0.007c-0.001,0-0.002,0-0.003,0c-0.176,0-0.32-0.142-0.321-0.319c-0.002-0.177,0.141-0.322,0.319-0.324l0.642-0.007
			c0.178,0.014,0.323,0.14,0.325,0.318C54.471,40.551,54.329,40.697,54.151,40.699z M54.515,36.602c-0.271,0-0.49-0.219-0.49-0.49
			c0-0.271,0.219-0.49,0.49-0.49s0.49,0.22,0.49,0.49C55.005,36.382,54.785,36.602,54.515,36.602z M56.08,40.67l-0.644,0.011
			c-0.002,0-0.003,0-0.005,0c-0.175,0-0.319-0.141-0.321-0.317c-0.002-0.177,0.139-0.323,0.317-0.326l0.642-0.011
			c0.178-0.009,0.324,0.138,0.327,0.316S56.258,40.667,56.08,40.67z M56.511,36.602c-0.271,0-0.49-0.219-0.49-0.49
			c0-0.271,0.219-0.49,0.49-0.49c0.271,0,0.49,0.22,0.49,0.49C57.001,36.382,56.782,36.602,56.511,36.602z M58.009,40.631
			l-0.643,0.014c-0.002,0-0.004,0-0.007,0c-0.174,0-0.318-0.139-0.321-0.315c-0.004-0.177,0.137-0.324,0.315-0.328l0.641-0.015
			c0.167-0.014,0.325,0.136,0.329,0.314C58.327,40.48,58.187,40.626,58.009,40.631z M58.507,36.602c-0.271,0-0.49-0.219-0.49-0.49
			c0-0.271,0.22-0.49,0.49-0.49c0.271,0,0.49,0.22,0.49,0.49C58.998,36.382,58.778,36.602,58.507,36.602z M59.938,40.578
			l-0.642,0.019c-0.003,0-0.007,0-0.01,0c-0.173,0-0.316-0.138-0.321-0.312c-0.005-0.178,0.135-0.326,0.312-0.331l0.642-0.019
			c0.167-0.001,0.325,0.134,0.331,0.312C60.255,40.425,60.116,40.573,59.938,40.578z M60.504,36.602c-0.271,0-0.49-0.219-0.49-0.49
			c0-0.271,0.22-0.49,0.49-0.49c0.271,0,0.49,0.22,0.49,0.49C60.994,36.382,60.774,36.602,60.504,36.602z M61.868,40.513
			l-0.643,0.023c-0.004,0-0.008,0-0.012,0c-0.172,0-0.315-0.137-0.321-0.31c-0.006-0.178,0.133-0.326,0.31-0.333l0.641-0.023
			c0.162,0.009,0.326,0.131,0.333,0.309C62.183,40.357,62.045,40.506,61.868,40.513z M62.01,36.112c0-0.271,0.22-0.49,0.49-0.49
			c0.271,0,0.49,0.22,0.49,0.49c0,0.271-0.22,0.49-0.49,0.49C62.229,36.602,62.01,36.382,62.01,36.112z M63.796,40.432l-0.643,0.029
			c-0.005,0-0.01,0-0.014,0c-0.171,0-0.313-0.135-0.321-0.308c-0.008-0.177,0.13-0.327,0.307-0.335l0.641-0.028
			c0.18-0.014,0.328,0.129,0.336,0.306C64.111,40.273,63.973,40.424,63.796,40.432z M64.006,36.112c0-0.271,0.22-0.49,0.49-0.49
			s0.49,0.22,0.49,0.49c0,0.271-0.219,0.49-0.49,0.49S64.006,36.382,64.006,36.112z M65.723,40.335l-0.642,0.034
			c-0.006,0.001-0.012,0.001-0.017,0.001c-0.17,0-0.312-0.133-0.321-0.304c-0.009-0.178,0.127-0.328,0.304-0.338l0.642-0.034
			c0.175-0.019,0.328,0.127,0.338,0.304C66.037,40.175,65.901,40.326,65.723,40.335z M66.002,36.112c0-0.271,0.22-0.49,0.49-0.49
			c0.271,0,0.49,0.22,0.49,0.49c0,0.271-0.22,0.49-0.49,0.49C66.222,36.602,66.002,36.382,66.002,36.112z M67.651,40.22l-0.643,0.04
			c-0.007,0.001-0.013,0.001-0.02,0.001c-0.169,0-0.31-0.131-0.32-0.302c-0.011-0.177,0.124-0.33,0.301-0.34l0.64-0.04
			c0.182-0.011,0.33,0.123,0.342,0.3C67.963,40.056,67.828,40.209,67.651,40.22z M67.999,36.112c0-0.271,0.22-0.49,0.49-0.49
			s0.49,0.22,0.49,0.49c0,0.271-0.22,0.49-0.49,0.49S67.999,36.382,67.999,36.112z M69.577,40.087l-0.641,0.047
			c-0.008,0.001-0.016,0.001-0.024,0.001c-0.167,0-0.308-0.129-0.32-0.298c-0.013-0.177,0.12-0.331,0.297-0.344l0.64-0.047
			c0.18-0.013,0.331,0.12,0.344,0.297C69.887,39.919,69.754,40.074,69.577,40.087z M69.995,36.112c0-0.271,0.22-0.49,0.49-0.49
			s0.49,0.22,0.49,0.49c0,0.271-0.22,0.49-0.49,0.49S69.995,36.382,69.995,36.112z M71.502,39.93l-0.642,0.055
			c-0.009,0.001-0.018,0.001-0.027,0.001c-0.165,0-0.306-0.127-0.32-0.294c-0.015-0.177,0.116-0.332,0.293-0.347l0.639-0.055
			c0.182-0.009,0.333,0.115,0.349,0.292C71.81,39.758,71.679,39.914,71.502,39.93z M73.425,39.747l-0.641,0.064
			c-0.01,0.001-0.021,0.001-0.031,0.001c-0.164,0-0.304-0.124-0.32-0.291c-0.017-0.176,0.112-0.334,0.289-0.351l0.638-0.063
			c0.183-0.016,0.334,0.111,0.352,0.287C73.73,39.572,73.601,39.73,73.425,39.747z M75.346,39.536l-0.641,0.074
			c-0.012,0.001-0.024,0.002-0.036,0.002c-0.162,0-0.301-0.122-0.319-0.286c-0.019-0.176,0.108-0.335,0.284-0.355l0.636-0.073
			c0.175-0.026,0.336,0.104,0.357,0.28C75.648,39.356,75.522,39.516,75.346,39.536z M77.264,39.293l-0.64,0.085
			c-0.014,0.002-0.028,0.002-0.041,0.002c-0.159,0-0.298-0.118-0.318-0.281c-0.023-0.176,0.102-0.337,0.278-0.36l0.634-0.084
			c0.178-0.023,0.338,0.098,0.362,0.274C77.563,39.106,77.44,39.269,77.264,39.293z M77.439,14.373
			c0.024-0.176,0.18-0.308,0.362-0.276l0.638,0.087c0.176,0.024,0.298,0.187,0.273,0.363c-0.023,0.161-0.16,0.277-0.318,0.277
			c-0.015,0-0.03-0.001-0.045-0.003l-0.634-0.087C77.539,14.711,77.415,14.549,77.439,14.373z M77.826,31.98
			c0.225-0.149,0.471-0.29,0.739-0.42c0.268-0.131,0.546-0.24,0.833-0.327V21.029c-0.249-0.1-0.499-0.212-0.748-0.336
			c-0.25-0.125-0.474-0.256-0.674-0.393v-0.711h4.043l5.372,7.787l0.861,1.61h0.075l-0.093-1.606V21.14
			c-0.3-0.1-0.59-0.221-0.87-0.365c-0.281-0.143-0.528-0.296-0.739-0.457v-0.73h4.642v0.73c-0.237,0.187-0.499,0.352-0.786,0.496
			c-0.287,0.143-0.556,0.252-0.805,0.327v11.775h-1.591l-6.608-9.546l-0.749-1.442h-0.056l0.168,1.497v7.806
			c0.249,0.062,0.527,0.165,0.833,0.309c0.306,0.144,0.564,0.29,0.777,0.44v0.711h-4.623V31.98z M79.177,39.011l-0.637,0.099
			c-0.016,0.003-0.033,0.004-0.049,0.004c-0.156,0-0.293-0.114-0.317-0.273c-0.027-0.175,0.094-0.34,0.269-0.366l0.633-0.098
			c0.179-0.025,0.34,0.092,0.368,0.267C79.471,38.818,79.352,38.983,79.177,39.011z M81.083,38.685l-0.634,0.114
			c-0.019,0.004-0.038,0.005-0.056,0.005c-0.153,0-0.289-0.11-0.316-0.265c-0.031-0.174,0.086-0.341,0.26-0.372l0.63-0.114
			c0.174-0.026,0.342,0.084,0.374,0.258C81.373,38.484,81.258,38.652,81.083,38.685z M82.981,38.303
			c-0.208,0.045-0.418,0.09-0.632,0.134c-0.022,0.004-0.043,0.006-0.065,0.006c-0.15,0-0.283-0.105-0.314-0.257
			c-0.035-0.174,0.077-0.343,0.25-0.379c0.211-0.043,0.42-0.087,0.625-0.131c0.173-0.036,0.345,0.073,0.382,0.246
			C83.265,38.095,83.155,38.266,82.981,38.303z M84.868,37.857c-0.206,0.053-0.415,0.105-0.628,0.157
			c-0.025,0.006-0.05,0.009-0.076,0.009c-0.145,0-0.276-0.099-0.312-0.246c-0.041-0.173,0.065-0.346,0.237-0.388
			c0.209-0.05,0.415-0.102,0.618-0.154c0.172-0.043,0.347,0.059,0.392,0.231C85.143,37.638,85.04,37.813,84.868,37.857z
			 M86.736,37.329c-0.202,0.063-0.409,0.125-0.619,0.186c-0.03,0.009-0.061,0.013-0.091,0.013c-0.139,0-0.267-0.09-0.308-0.23
			c-0.05-0.171,0.047-0.349,0.217-0.399c0.208-0.061,0.411-0.122,0.61-0.184c0.171-0.054,0.35,0.043,0.402,0.212
			C87,37.097,86.905,37.277,86.736,37.329z M88.576,36.698c-0.198,0.076-0.401,0.15-0.61,0.224
			c-0.035,0.013-0.072,0.018-0.107,0.018c-0.132,0-0.256-0.082-0.303-0.214c-0.059-0.168,0.028-0.351,0.195-0.41
			c0.203-0.072,0.402-0.144,0.596-0.218c0.163-0.065,0.351,0.019,0.415,0.186C88.825,36.449,88.742,36.635,88.576,36.698z
			 M90.37,35.933c-0.191,0.092-0.389,0.183-0.591,0.272c-0.042,0.019-0.087,0.028-0.13,0.028c-0.123,0-0.241-0.071-0.294-0.191
			c-0.072-0.162,0.001-0.352,0.163-0.424c0.197-0.087,0.388-0.176,0.574-0.265c0.16-0.077,0.352-0.009,0.429,0.151
			C90.598,35.664,90.53,35.856,90.37,35.933z M92.087,34.989c-0.18,0.114-0.368,0.227-0.562,0.338
			c-0.05,0.028-0.105,0.042-0.159,0.042c-0.112,0-0.22-0.058-0.279-0.162c-0.088-0.154-0.035-0.35,0.12-0.439
			c0.186-0.106,0.365-0.214,0.537-0.323c0.15-0.093,0.349-0.05,0.443,0.1C92.282,34.695,92.237,34.894,92.087,34.989z
			 M92.152,18.543c0.1-0.147,0.3-0.185,0.446-0.086c0.187,0.126,0.365,0.254,0.535,0.383c0.141,0.107,0.169,0.309,0.062,0.451
			c-0.063,0.083-0.159,0.127-0.256,0.127c-0.068,0-0.136-0.021-0.194-0.065c-0.161-0.122-0.33-0.243-0.506-0.363
			C92.091,18.889,92.052,18.69,92.152,18.543z M93.668,33.811c-0.16,0.142-0.329,0.283-0.506,0.422
			c-0.059,0.046-0.129,0.069-0.199,0.069c-0.095,0-0.189-0.042-0.253-0.122c-0.11-0.139-0.086-0.341,0.053-0.451
			c0.167-0.132,0.326-0.265,0.478-0.399c0.133-0.119,0.335-0.107,0.454,0.028C93.813,33.49,93.8,33.694,93.668,33.811z
			 M95.008,32.346c-0.128,0.176-0.265,0.35-0.412,0.523c-0.064,0.075-0.154,0.113-0.245,0.113c-0.073,0-0.147-0.025-0.208-0.077
			c-0.135-0.115-0.151-0.318-0.036-0.453c0.136-0.16,0.263-0.321,0.381-0.484c0.104-0.144,0.304-0.176,0.449-0.071
			C95.08,32.001,95.112,32.202,95.008,32.346z M95.97,30.598c-0.081,0.205-0.172,0.408-0.272,0.609
			c-0.056,0.113-0.17,0.178-0.288,0.178c-0.048,0-0.097-0.011-0.143-0.034c-0.159-0.079-0.223-0.272-0.144-0.431
			c0.092-0.185,0.175-0.372,0.25-0.56c0.066-0.165,0.252-0.244,0.417-0.18C95.956,30.247,96.036,30.433,95.97,30.598z
			 M96.363,29.327c-0.034,0.149-0.166,0.251-0.313,0.251c-0.023,0-0.047-0.003-0.071-0.008c-0.173-0.039-0.282-0.211-0.243-0.384
			c0.046-0.203,0.084-0.405,0.116-0.61c0.028-0.175,0.191-0.296,0.368-0.267c0.175,0.028,0.295,0.192,0.268,0.368
			C96.452,28.896,96.411,29.112,96.363,29.327z M96.294,27.671c-0.005,0-0.009,0-0.014,0c-0.177-0.008-0.315-0.158-0.307-0.335
			c0.009-0.208,0.013-0.417,0.013-0.628c0-0.178,0.144-0.321,0.321-0.321c0.178,0,0.321,0.144,0.321,0.321
			c0,0.22-0.004,0.439-0.014,0.656C96.607,27.536,96.465,27.671,96.294,27.671z"/>
	</g>
</g>
<g>
	<g>
		<g>
			<g>
				<g>
					<path fill="#C09E16" d="M49.524,103.88c0,0-0.286,0.093-0.798,0.12c-0.511,0.036-1.256-0.026-2.104-0.291
						c-0.422-0.136-0.87-0.32-1.319-0.562c-0.228-0.116-0.445-0.261-0.676-0.399c-0.214-0.153-0.432-0.308-0.654-0.467
						c-0.391-0.272-0.858-0.473-1.337-0.553c-0.478-0.088-0.977-0.047-1.392,0.124c-0.418,0.171-0.717,0.486-0.847,0.851
						c-0.064,0.186-0.093,0.38-0.084,0.592c0.015,0.156,0.055,0.322,0.131,0.472c0.147,0.298,0.395,0.574,0.705,0.778
						c0.305,0.214,0.661,0.347,1.006,0.429c0.348,0.07,0.691,0.096,0.998,0.064c0.311-0.018,0.585-0.084,0.817-0.144
						c0.226-0.071,0.412-0.135,0.535-0.187c0.126-0.051,0.194-0.079,0.194-0.079l0.092,0.109c0,0-0.045,0.061-0.129,0.175
						c-0.087,0.113-0.226,0.272-0.433,0.45c-0.208,0.177-0.49,0.364-0.853,0.523c-0.364,0.15-0.812,0.268-1.319,0.269
						c-0.506,0.009-1.07-0.097-1.617-0.377c-0.536-0.28-1.078-0.757-1.345-1.455c-0.132-0.343-0.19-0.727-0.148-1.121
						c0.037-0.338,0.136-0.696,0.303-1.023c0.163-0.33,0.407-0.623,0.689-0.854c0.285-0.229,0.608-0.394,0.938-0.502
						c0.666-0.207,1.353-0.188,1.969-0.022c0.619,0.169,1.163,0.479,1.614,0.866c0.199,0.173,0.394,0.342,0.585,0.508
						c0.197,0.148,0.385,0.306,0.582,0.435c0.389,0.268,0.784,0.483,1.162,0.652c0.38,0.161,0.742,0.289,1.072,0.36
						c0.329,0.078,0.623,0.119,0.867,0.135c0.49,0.036,0.764-0.017,0.764-0.017L49.524,103.88z"/>
				</g>
				<g>
					<path fill="#C09E16" d="M10.891,100.951c0,0-0.008-0.047-0.042-0.139c-0.034-0.09-0.094-0.223-0.207-0.367
						c-0.112-0.144-0.276-0.301-0.514-0.406c-0.115-0.058-0.251-0.093-0.396-0.125c-0.055-0.01-0.159-0.024-0.235-0.031
						c-0.074,0.002-0.146-0.006-0.228,0.006c-0.321,0.022-0.657,0.169-0.929,0.43c-0.266,0.258-0.478,0.657-0.414,1.027
						c0.047,0.409,0.294,0.808,0.694,1.014c0.396,0.219,0.946,0.262,1.504,0.183l0.116-0.016l0.095-0.02
						c0.062-0.01,0.128-0.027,0.194-0.046c0.133-0.034,0.259-0.084,0.382-0.14c0.243-0.118,0.464-0.282,0.667-0.496
						c0.408-0.426,0.756-1.04,1.279-1.622c0.264-0.286,0.579-0.555,0.936-0.762c0.176-0.107,0.365-0.194,0.556-0.269
						c0.099-0.037,0.188-0.066,0.297-0.101l0.271-0.077c0.755-0.211,1.567-0.336,2.398-0.255c0.413,0.041,0.82,0.142,1.208,0.272
						c0.388,0.134,0.758,0.287,1.134,0.46c0.378,0.177,0.735,0.396,1.068,0.66c0.33,0.266,0.616,0.596,0.831,0.966
						c0.222,0.367,0.374,0.773,0.472,1.187c0.044,0.205,0.091,0.419,0.11,0.631c0.024,0.226,0.014,0.441-0.008,0.661
						c-0.101,0.874-0.562,1.712-1.272,2.268c-0.704,0.563-1.646,0.836-2.556,0.746c-0.455-0.039-0.897-0.166-1.308-0.345
						c-0.054-0.024-0.097-0.041-0.161-0.071l-0.142-0.071c-0.109-0.059-0.208-0.117-0.303-0.18c-0.192-0.126-0.37-0.27-0.536-0.424
						c-0.665-0.62-1.124-1.425-1.349-2.288c-0.226-0.862-0.195-1.804,0.134-2.64c0.325-0.839,0.936-1.528,1.629-1.987
						c0.692-0.467,1.443-0.762,2.181-0.937c0.743-0.179,1.451-0.268,2.17-0.295c0.711-0.016,1.41,0.05,2.065,0.225
						c0.654,0.173,1.257,0.469,1.751,0.854c0.497,0.383,0.873,0.858,1.131,1.343c0.262,0.484,0.41,0.976,0.485,1.434
						c0.075,0.458,0.086,0.884,0.049,1.263c-0.071,0.759-0.288,1.325-0.487,1.675c-0.101,0.176-0.196,0.299-0.263,0.378
						c-0.067,0.079-0.106,0.117-0.106,0.117l-0.076-0.065c0,0,0.031-0.041,0.082-0.125c0.051-0.084,0.122-0.212,0.19-0.389
						c0.141-0.349,0.277-0.902,0.253-1.604c-0.022-0.695-0.192-1.556-0.702-2.345c-0.254-0.392-0.598-0.753-1.022-1.043
						c-0.424-0.291-0.937-0.493-1.496-0.616c-0.561-0.122-1.173-0.152-1.808-0.107c-0.627,0.039-1.307,0.141-1.951,0.316
						c-0.647,0.18-1.289,0.425-1.847,0.8c-0.554,0.375-1.019,0.875-1.284,1.491c-0.264,0.614-0.319,1.335-0.16,2.033
						c0.158,0.698,0.517,1.372,1.028,1.898c0.128,0.131,0.267,0.251,0.412,0.361c0.073,0.055,0.149,0.107,0.219,0.151
						c0.036,0.024,0.087,0.051,0.13,0.076l0.119,0.061c0.336,0.17,0.693,0.299,1.063,0.362c0.736,0.129,1.53-0.022,2.163-0.462
						c0.631-0.432,1.107-1.13,1.224-1.906c0.027-0.191,0.042-0.393,0.03-0.58c-0.009-0.202-0.045-0.395-0.087-0.593
						c-0.087-0.391-0.223-0.767-0.422-1.105c-0.204-0.335-0.467-0.628-0.774-0.867c-0.307-0.24-0.661-0.417-1.018-0.566
						c-0.734-0.285-1.495-0.514-2.226-0.516c-0.735-0.008-1.455,0.181-2.13,0.42l-0.264,0.097l-0.226,0.097
						c-0.148,0.075-0.295,0.147-0.429,0.239c-0.273,0.174-0.504,0.396-0.719,0.641c-0.438,0.482-0.767,1.11-1.306,1.649
						c-0.266,0.269-0.588,0.502-0.935,0.659c-0.174,0.076-0.351,0.139-0.528,0.182c-0.088,0.022-0.176,0.043-0.27,0.057
						l-0.138,0.022l-0.117,0.011c-0.674,0.061-1.382-0.001-1.98-0.361c-0.296-0.176-0.54-0.433-0.7-0.718
						c-0.162-0.286-0.246-0.595-0.26-0.899c-0.006-0.156,0.002-0.297,0.04-0.466c0.033-0.144,0.098-0.28,0.161-0.404
						c0.138-0.244,0.314-0.444,0.509-0.603c0.389-0.319,0.861-0.463,1.269-0.442c0.821,0.027,1.36,0.493,1.545,0.86
						c0.101,0.183,0.142,0.337,0.163,0.44c0.02,0.103,0.022,0.16,0.022,0.16L10.891,100.951z"/>
				</g>
				<g>
					<path fill="#C09E16" d="M31.754,102.564c0,0,0.021,0.055,0.062,0.163c0.041,0.104,0.098,0.275,0.149,0.495
						c0.102,0.437,0.19,1.131-0.05,1.979c-0.122,0.42-0.337,0.872-0.682,1.289c-0.337,0.417-0.822,0.791-1.396,1.037
						c-0.573,0.252-1.245,0.389-1.956,0.342c-0.355-0.024-0.721-0.094-1.082-0.229c-0.36-0.134-0.717-0.339-1.019-0.635
						c-0.092-0.099-0.122-0.121-0.206-0.228c-0.077-0.091-0.135-0.18-0.193-0.269c-0.111-0.183-0.206-0.377-0.277-0.579
						c-0.141-0.405-0.2-0.832-0.196-1.257c0.024-0.849,0.261-1.693,0.698-2.454c0.216-0.382,0.483-0.746,0.812-1.065
						c0.341-0.328,0.694-0.567,1.096-0.798c0.787-0.445,1.699-0.705,2.625-0.729c1.859-0.045,3.699,0.808,4.986,2.208
						c0.63,0.72,1.146,1.513,1.566,2.387c0.408,0.871,0.664,1.859,0.579,2.867c-0.071,1.008-0.524,1.984-1.194,2.736
						c-0.673,0.754-1.531,1.312-2.452,1.669c-0.92,0.352-1.923,0.545-2.939,0.386c-1.013-0.167-1.934-0.659-2.621-1.394
						c-0.69-0.73-1.089-1.727-1.109-2.69c-0.036-0.965,0.223-1.875,0.593-2.649c0.372-0.79,0.844-1.484,1.373-2.09
						c0.531-0.604,1.116-1.114,1.709-1.551c1.197-0.864,2.431-1.423,3.552-1.78c1.122-0.363,2.132-0.539,2.962-0.632
						c0.832-0.09,1.487-0.109,1.932-0.114c0.445,0.008,0.683,0.012,0.683,0.012l0.003,0.1c0,0-0.234,0.028-0.673,0.081
						c-0.438,0.057-1.079,0.145-1.878,0.324c-0.4,0.087-0.838,0.2-1.309,0.335c-0.469,0.145-0.97,0.312-1.492,0.523
						c-1.041,0.424-2.169,1.017-3.231,1.869c-0.529,0.426-1.043,0.914-1.497,1.478c-0.463,0.554-0.871,1.19-1.174,1.876
						c-0.304,0.696-0.519,1.435-0.49,2.18c0.024,0.74,0.285,1.469,0.796,2.048c0.504,0.577,1.244,1,2.026,1.151
						c0.788,0.15,1.667,0.013,2.485-0.269c0.817-0.292,1.599-0.742,2.213-1.365c0.618-0.616,1.054-1.417,1.172-2.295
						c0.128-0.878-0.054-1.796-0.396-2.642c-0.168-0.426-0.384-0.835-0.625-1.226c-0.244-0.387-0.501-0.779-0.798-1.115
						c-1.187-1.374-3.029-2.133-4.721-1.947c-0.844,0.087-1.631,0.399-2.293,0.848c-0.317,0.221-0.653,0.481-0.892,0.752
						c-0.247,0.282-0.46,0.596-0.63,0.928c-0.334,0.664-0.542,1.382-0.549,2.061c-0.023,0.678,0.172,1.308,0.577,1.713
						c0.406,0.407,0.993,0.635,1.566,0.694c0.576,0.059,1.145-0.017,1.637-0.195c0.497-0.18,0.908-0.453,1.232-0.781
						c0.323-0.325,0.538-0.7,0.689-1.058c0.289-0.727,0.298-1.38,0.258-1.806c-0.007-0.109-0.019-0.203-0.033-0.284
						c-0.01-0.081-0.023-0.151-0.036-0.207c-0.024-0.112-0.036-0.17-0.036-0.17L31.754,102.564z"/>
				</g>
			</g>
			<g>
				<g>
					<path fill="#C09E16" d="M49.524,103.88c0,0,0.286,0.093,0.798,0.12c0.511,0.036,1.256-0.026,2.104-0.291
						c0.422-0.136,0.87-0.32,1.319-0.562c0.228-0.116,0.446-0.261,0.677-0.399c0.214-0.153,0.432-0.308,0.655-0.467
						c0.391-0.272,0.858-0.473,1.337-0.553c0.478-0.088,0.977-0.047,1.392,0.124c0.418,0.171,0.717,0.486,0.847,0.851
						c0.064,0.186,0.093,0.38,0.084,0.592c-0.015,0.156-0.055,0.322-0.131,0.472c-0.147,0.298-0.395,0.574-0.705,0.778
						c-0.305,0.214-0.661,0.347-1.006,0.429c-0.348,0.07-0.691,0.096-0.998,0.064c-0.311-0.018-0.585-0.084-0.817-0.144
						c-0.226-0.071-0.412-0.135-0.535-0.187c-0.126-0.051-0.194-0.079-0.194-0.079l-0.091,0.109c0,0,0.045,0.061,0.129,0.175
						c0.087,0.113,0.226,0.272,0.433,0.45c0.208,0.177,0.49,0.364,0.853,0.523c0.364,0.15,0.812,0.268,1.319,0.269
						c0.506,0.009,1.07-0.097,1.617-0.377c0.536-0.28,1.078-0.757,1.345-1.455c0.132-0.343,0.19-0.727,0.148-1.121
						c-0.037-0.338-0.137-0.696-0.303-1.023c-0.163-0.33-0.407-0.623-0.689-0.854c-0.285-0.229-0.608-0.394-0.938-0.502
						c-0.666-0.207-1.353-0.188-1.969-0.022c-0.619,0.169-1.163,0.479-1.614,0.866c-0.199,0.173-0.394,0.342-0.585,0.508
						c-0.197,0.148-0.385,0.306-0.582,0.435c-0.389,0.268-0.784,0.483-1.162,0.652c-0.38,0.161-0.742,0.289-1.072,0.36
						c-0.329,0.078-0.623,0.119-0.867,0.135c-0.49,0.036-0.764-0.017-0.764-0.017L49.524,103.88z"/>
				</g>
				<g>
					<path fill="#C09E16" d="M88.156,100.951c0,0,0.008-0.047,0.042-0.139c0.034-0.09,0.094-0.223,0.208-0.367
						c0.112-0.144,0.276-0.301,0.513-0.406c0.115-0.058,0.252-0.093,0.396-0.125c0.055-0.01,0.159-0.024,0.235-0.031
						c0.074,0.002,0.146-0.006,0.228,0.006c0.321,0.022,0.657,0.169,0.929,0.43c0.267,0.258,0.478,0.657,0.414,1.027
						c-0.047,0.409-0.294,0.808-0.694,1.014c-0.396,0.219-0.946,0.262-1.504,0.183l-0.116-0.016l-0.095-0.02
						c-0.062-0.01-0.128-0.027-0.194-0.046c-0.133-0.034-0.259-0.084-0.382-0.14c-0.243-0.118-0.464-0.282-0.667-0.496
						c-0.408-0.426-0.756-1.04-1.279-1.622c-0.264-0.286-0.579-0.555-0.936-0.762c-0.176-0.107-0.365-0.194-0.556-0.269
						c-0.099-0.037-0.188-0.066-0.297-0.101l-0.271-0.077c-0.755-0.211-1.567-0.336-2.398-0.255
						c-0.413,0.041-0.82,0.142-1.208,0.272c-0.388,0.134-0.758,0.287-1.134,0.46c-0.378,0.177-0.735,0.396-1.068,0.66
						c-0.33,0.266-0.616,0.596-0.831,0.966c-0.222,0.367-0.374,0.773-0.472,1.187c-0.044,0.205-0.091,0.419-0.11,0.631
						c-0.023,0.226-0.014,0.441,0.008,0.661c0.101,0.874,0.561,1.712,1.272,2.268c0.704,0.563,1.646,0.836,2.556,0.746
						c0.455-0.039,0.897-0.166,1.308-0.345c0.054-0.024,0.097-0.041,0.161-0.071l0.142-0.071c0.109-0.059,0.208-0.117,0.303-0.18
						c0.192-0.126,0.37-0.27,0.536-0.424c0.665-0.62,1.124-1.425,1.349-2.288c0.226-0.862,0.195-1.804-0.134-2.64
						c-0.325-0.839-0.936-1.528-1.629-1.987c-0.693-0.467-1.443-0.762-2.181-0.937c-0.743-0.179-1.451-0.268-2.17-0.295
						c-0.711-0.016-1.41,0.05-2.065,0.225c-0.654,0.173-1.257,0.469-1.751,0.854c-0.497,0.383-0.873,0.858-1.131,1.343
						c-0.262,0.484-0.41,0.976-0.485,1.434c-0.075,0.458-0.086,0.884-0.049,1.263c0.071,0.759,0.287,1.325,0.487,1.675
						c0.101,0.176,0.196,0.299,0.263,0.378c0.067,0.079,0.106,0.117,0.106,0.117l0.076-0.065c0,0-0.031-0.041-0.082-0.125
						c-0.051-0.084-0.122-0.212-0.19-0.389c-0.141-0.349-0.277-0.902-0.253-1.604c0.022-0.695,0.193-1.556,0.702-2.345
						c0.254-0.392,0.598-0.753,1.022-1.043c0.424-0.291,0.937-0.493,1.496-0.616c0.561-0.122,1.173-0.152,1.808-0.107
						c0.627,0.039,1.307,0.141,1.951,0.316c0.647,0.18,1.289,0.425,1.847,0.8c0.554,0.375,1.019,0.875,1.284,1.491
						c0.264,0.614,0.319,1.335,0.16,2.033c-0.158,0.698-0.517,1.372-1.028,1.898c-0.128,0.131-0.267,0.251-0.413,0.361
						c-0.073,0.055-0.149,0.107-0.218,0.151c-0.036,0.024-0.087,0.051-0.13,0.076l-0.119,0.061c-0.336,0.17-0.693,0.299-1.063,0.362
						c-0.736,0.129-1.53-0.022-2.163-0.462c-0.631-0.432-1.107-1.13-1.224-1.906c-0.027-0.191-0.042-0.393-0.03-0.58
						c0.009-0.202,0.046-0.395,0.087-0.593c0.087-0.391,0.223-0.767,0.422-1.105c0.204-0.335,0.467-0.628,0.774-0.867
						c0.307-0.24,0.661-0.417,1.018-0.566c0.734-0.285,1.495-0.514,2.225-0.516c0.735-0.008,1.455,0.181,2.13,0.42l0.264,0.097
						l0.226,0.097c0.148,0.075,0.295,0.147,0.429,0.239c0.273,0.174,0.504,0.396,0.718,0.641c0.438,0.482,0.767,1.11,1.307,1.649
						c0.266,0.269,0.588,0.502,0.935,0.659c0.174,0.076,0.351,0.139,0.528,0.182c0.088,0.022,0.176,0.043,0.27,0.057l0.138,0.022
						l0.117,0.011c0.674,0.061,1.382-0.001,1.98-0.361c0.296-0.176,0.539-0.433,0.7-0.718c0.162-0.286,0.246-0.595,0.26-0.899
						c0.006-0.156-0.002-0.297-0.04-0.466c-0.033-0.144-0.098-0.28-0.161-0.404c-0.138-0.244-0.314-0.444-0.509-0.603
						c-0.389-0.319-0.861-0.463-1.269-0.442c-0.821,0.027-1.36,0.493-1.546,0.86c-0.101,0.183-0.142,0.337-0.163,0.44
						c-0.02,0.103-0.022,0.16-0.022,0.16L88.156,100.951z"/>
				</g>
				<g>
					<path fill="#C09E16" d="M67.293,102.564c0,0-0.021,0.055-0.062,0.163c-0.04,0.104-0.098,0.275-0.149,0.495
						c-0.102,0.437-0.19,1.131,0.05,1.979c0.121,0.42,0.337,0.872,0.682,1.289c0.337,0.417,0.822,0.791,1.396,1.037
						c0.573,0.252,1.245,0.389,1.956,0.342c0.355-0.024,0.721-0.094,1.082-0.229c0.36-0.134,0.717-0.339,1.019-0.635
						c0.092-0.099,0.121-0.121,0.206-0.228c0.077-0.091,0.135-0.18,0.193-0.269c0.111-0.183,0.206-0.377,0.277-0.579
						c0.141-0.405,0.2-0.832,0.196-1.257c-0.024-0.849-0.26-1.693-0.698-2.454c-0.217-0.382-0.483-0.746-0.812-1.065
						c-0.341-0.328-0.694-0.567-1.096-0.798c-0.787-0.445-1.699-0.705-2.625-0.729c-1.859-0.045-3.699,0.808-4.986,2.208
						c-0.63,0.72-1.146,1.513-1.566,2.387c-0.408,0.871-0.665,1.859-0.579,2.867c0.071,1.008,0.524,1.984,1.194,2.736
						c0.673,0.754,1.531,1.312,2.452,1.669c0.92,0.352,1.923,0.545,2.939,0.386c1.013-0.167,1.934-0.659,2.621-1.394
						c0.69-0.73,1.089-1.727,1.109-2.69c0.036-0.965-0.223-1.875-0.593-2.649c-0.372-0.79-0.844-1.484-1.373-2.09
						c-0.531-0.604-1.116-1.114-1.709-1.551c-1.197-0.864-2.431-1.423-3.552-1.78c-1.122-0.363-2.132-0.539-2.962-0.632
						c-0.832-0.09-1.487-0.109-1.932-0.114c-0.445,0.008-0.682,0.012-0.682,0.012l-0.003,0.1c0,0,0.234,0.028,0.673,0.081
						c0.438,0.057,1.079,0.145,1.878,0.324c0.4,0.087,0.838,0.2,1.309,0.335c0.469,0.145,0.97,0.312,1.492,0.523
						c1.041,0.424,2.169,1.017,3.231,1.869c0.529,0.426,1.043,0.914,1.497,1.478c0.463,0.554,0.87,1.19,1.174,1.876
						c0.304,0.696,0.519,1.435,0.49,2.18c-0.024,0.74-0.285,1.469-0.796,2.048c-0.504,0.577-1.244,1-2.026,1.151
						c-0.788,0.15-1.667,0.013-2.485-0.269c-0.818-0.292-1.599-0.742-2.213-1.365c-0.618-0.616-1.054-1.417-1.172-2.295
						c-0.128-0.878,0.054-1.796,0.396-2.642c0.168-0.426,0.384-0.835,0.625-1.226c0.244-0.387,0.501-0.779,0.798-1.115
						c1.187-1.374,3.03-2.133,4.721-1.947c0.844,0.087,1.631,0.399,2.293,0.848c0.317,0.221,0.653,0.481,0.892,0.752
						c0.247,0.282,0.46,0.596,0.63,0.928c0.334,0.664,0.542,1.382,0.549,2.061c0.023,0.678-0.172,1.308-0.577,1.713
						c-0.406,0.407-0.992,0.635-1.566,0.694c-0.576,0.059-1.145-0.017-1.637-0.195c-0.497-0.18-0.908-0.453-1.232-0.781
						c-0.323-0.325-0.538-0.7-0.689-1.058c-0.289-0.727-0.298-1.38-0.258-1.806c0.007-0.109,0.019-0.203,0.033-0.284
						c0.01-0.081,0.023-0.151,0.036-0.207c0.024-0.112,0.036-0.17,0.036-0.17L67.293,102.564z"/>
				</g>
			</g>
		</g>
		<g>
			<g>
				<path fill="#C09E16" d="M42.096,109.201c0,0-0.022-0.023-0.076-0.061c-0.053-0.037-0.137-0.088-0.254-0.126
					c-0.117-0.037-0.267-0.063-0.439-0.033c-0.086,0.011-0.175,0.043-0.267,0.079c-0.035,0.015-0.098,0.047-0.142,0.071
					c-0.041,0.029-0.083,0.051-0.125,0.089c-0.17,0.133-0.302,0.342-0.354,0.59c-0.051,0.244-0.018,0.546,0.157,0.728
					c0.18,0.21,0.468,0.339,0.769,0.303c0.303-0.027,0.625-0.21,0.906-0.465l0.059-0.053l0.045-0.047
					c0.031-0.029,0.061-0.063,0.091-0.099c0.061-0.069,0.112-0.144,0.159-0.222c0.091-0.157,0.152-0.332,0.184-0.528
					c0.066-0.391,0.029-0.864,0.1-1.385c0.039-0.259,0.113-0.527,0.233-0.777c0.057-0.126,0.13-0.245,0.208-0.359
					c0.041-0.058,0.08-0.108,0.127-0.168l0.122-0.145c0.341-0.402,0.745-0.778,1.238-1.046c0.245-0.133,0.51-0.23,0.775-0.304
					c0.267-0.072,0.53-0.126,0.804-0.172c0.277-0.044,0.558-0.057,0.843-0.035c0.284,0.023,0.567,0.099,0.827,0.224
					c0.262,0.121,0.5,0.289,0.71,0.482c0.102,0.098,0.208,0.199,0.299,0.31c0.098,0.117,0.174,0.24,0.245,0.371
					c0.274,0.524,0.333,1.164,0.147,1.742c-0.179,0.579-0.601,1.085-1.141,1.378c-0.268,0.15-0.562,0.246-0.858,0.301
					c-0.039,0.007-0.069,0.014-0.116,0.021l-0.106,0.014c-0.083,0.008-0.16,0.013-0.237,0.014c-0.154,0.002-0.308-0.011-0.458-0.034
					c-0.604-0.095-1.163-0.369-1.613-0.765c-0.451-0.394-0.788-0.93-0.921-1.519c-0.135-0.589-0.055-1.203,0.157-1.72
					c0.209-0.521,0.516-0.968,0.86-1.344c0.346-0.38,0.706-0.696,1.097-0.982c0.389-0.277,0.803-0.504,1.234-0.653
					c0.429-0.151,0.876-0.213,1.296-0.185c0.421,0.026,0.809,0.149,1.135,0.321c0.328,0.17,0.596,0.389,0.811,0.615
					c0.215,0.227,0.381,0.46,0.503,0.685c0.247,0.449,0.339,0.845,0.361,1.116c0.01,0.136,0.004,0.24-0.004,0.31
					c-0.008,0.07-0.015,0.105-0.015,0.105l-0.067-0.007c0,0,0.002-0.034-0.001-0.1c-0.003-0.066-0.012-0.164-0.041-0.288
					c-0.054-0.248-0.186-0.606-0.464-0.988c-0.274-0.378-0.694-0.793-1.275-1.04c-0.289-0.122-0.617-0.194-0.962-0.195
					c-0.346-0.002-0.707,0.079-1.065,0.222c-0.358,0.144-0.71,0.358-1.047,0.622c-0.334,0.258-0.674,0.571-0.966,0.911
					c-0.292,0.344-0.557,0.722-0.726,1.141c-0.167,0.417-0.237,0.871-0.152,1.313c0.084,0.441,0.326,0.863,0.678,1.192
					c0.351,0.329,0.805,0.569,1.287,0.669c0.121,0.025,0.243,0.039,0.365,0.045c0.062,0.003,0.123,0.003,0.179,0.002
					c0.029-0.001,0.068-0.005,0.101-0.007l0.089-0.011c0.251-0.032,0.499-0.095,0.728-0.199c0.458-0.206,0.843-0.589,1.03-1.073
					c0.188-0.479,0.19-1.046-0.037-1.522c-0.057-0.117-0.125-0.235-0.202-0.334c-0.081-0.109-0.174-0.202-0.272-0.297
					c-0.195-0.185-0.413-0.343-0.652-0.456c-0.239-0.11-0.496-0.174-0.757-0.191c-0.261-0.018-0.525,0.017-0.78,0.069
					c-0.516,0.118-1.026,0.277-1.433,0.552c-0.412,0.273-0.741,0.649-1.027,1.037l-0.111,0.153l-0.089,0.139
					c-0.054,0.098-0.109,0.193-0.149,0.294c-0.086,0.2-0.131,0.41-0.158,0.628c-0.062,0.434-0.009,0.907-0.105,1.41
					c-0.046,0.25-0.138,0.501-0.272,0.719c-0.068,0.108-0.143,0.21-0.225,0.3c-0.04,0.045-0.082,0.09-0.129,0.133l-0.069,0.064
					l-0.061,0.05c-0.352,0.288-0.769,0.52-1.238,0.546c-0.231,0.014-0.463-0.038-0.66-0.136c-0.198-0.098-0.361-0.239-0.484-0.402
					c-0.062-0.085-0.111-0.166-0.154-0.275c-0.036-0.093-0.051-0.193-0.063-0.285c-0.015-0.188,0.007-0.365,0.056-0.527
					c0.097-0.324,0.304-0.582,0.539-0.724c0.467-0.295,0.942-0.238,1.184-0.104c0.125,0.064,0.206,0.134,0.257,0.183
					c0.05,0.049,0.072,0.081,0.072,0.081L42.096,109.201z"/>
			</g>
			<g>
				<path fill="#C09E16" d="M56.952,109.201c0,0,0.022-0.023,0.076-0.061c0.053-0.037,0.137-0.088,0.254-0.126
					c0.117-0.037,0.267-0.063,0.439-0.033c0.086,0.011,0.175,0.043,0.267,0.079c0.035,0.015,0.098,0.047,0.142,0.071
					c0.041,0.029,0.083,0.051,0.125,0.089c0.17,0.133,0.302,0.342,0.354,0.59c0.051,0.244,0.018,0.546-0.157,0.728
					c-0.181,0.21-0.468,0.339-0.769,0.303c-0.303-0.027-0.625-0.21-0.906-0.465l-0.059-0.053l-0.045-0.047
					c-0.031-0.029-0.061-0.063-0.091-0.099c-0.061-0.069-0.112-0.144-0.16-0.222c-0.091-0.157-0.152-0.332-0.184-0.528
					c-0.066-0.391-0.028-0.864-0.1-1.385c-0.039-0.259-0.113-0.527-0.233-0.777c-0.057-0.126-0.13-0.245-0.208-0.359
					c-0.041-0.058-0.08-0.108-0.127-0.168l-0.122-0.145c-0.341-0.402-0.745-0.778-1.238-1.046c-0.245-0.133-0.51-0.23-0.775-0.304
					c-0.267-0.072-0.53-0.126-0.804-0.172c-0.277-0.044-0.558-0.057-0.843-0.035c-0.284,0.023-0.567,0.099-0.827,0.224
					c-0.262,0.121-0.5,0.289-0.71,0.482c-0.102,0.098-0.208,0.199-0.299,0.31c-0.098,0.117-0.174,0.24-0.245,0.371
					c-0.274,0.524-0.333,1.164-0.147,1.742c0.179,0.579,0.601,1.085,1.141,1.378c0.268,0.15,0.562,0.246,0.858,0.301
					c0.039,0.007,0.069,0.014,0.116,0.021l0.106,0.014c0.083,0.008,0.16,0.013,0.236,0.014c0.154,0.002,0.308-0.011,0.458-0.034
					c0.604-0.095,1.163-0.369,1.613-0.765c0.45-0.394,0.788-0.93,0.92-1.519c0.135-0.589,0.055-1.203-0.157-1.72
					c-0.209-0.521-0.516-0.968-0.86-1.344c-0.346-0.38-0.706-0.696-1.096-0.982c-0.39-0.277-0.804-0.504-1.234-0.653
					c-0.429-0.151-0.876-0.213-1.296-0.185c-0.421,0.026-0.809,0.149-1.135,0.321c-0.328,0.17-0.596,0.389-0.811,0.615
					c-0.215,0.227-0.381,0.46-0.503,0.685c-0.247,0.449-0.339,0.845-0.36,1.116c-0.01,0.136-0.004,0.24,0.004,0.31
					c0.008,0.07,0.015,0.105,0.015,0.105l0.067-0.007c0,0-0.002-0.034,0.001-0.1c0.003-0.066,0.012-0.164,0.041-0.288
					c0.053-0.248,0.186-0.606,0.464-0.988c0.274-0.378,0.694-0.793,1.275-1.04c0.289-0.122,0.617-0.194,0.962-0.195
					c0.346-0.002,0.707,0.079,1.065,0.222c0.358,0.144,0.71,0.358,1.046,0.622c0.334,0.258,0.674,0.571,0.967,0.911
					c0.292,0.344,0.557,0.722,0.726,1.141c0.167,0.417,0.237,0.871,0.152,1.313c-0.084,0.441-0.326,0.863-0.678,1.192
					c-0.351,0.329-0.805,0.569-1.287,0.669c-0.121,0.025-0.243,0.039-0.366,0.045c-0.061,0.003-0.123,0.003-0.178,0.002
					c-0.029-0.001-0.068-0.005-0.101-0.007l-0.089-0.011c-0.251-0.032-0.499-0.095-0.728-0.199c-0.458-0.206-0.843-0.589-1.03-1.073
					c-0.188-0.479-0.19-1.046,0.037-1.522c0.057-0.117,0.125-0.235,0.202-0.334c0.081-0.109,0.174-0.202,0.272-0.297
					c0.196-0.185,0.413-0.343,0.652-0.456c0.239-0.11,0.496-0.174,0.757-0.191c0.261-0.018,0.525,0.017,0.78,0.069
					c0.516,0.118,1.026,0.277,1.433,0.552c0.412,0.273,0.741,0.649,1.027,1.037l0.111,0.153l0.089,0.139
					c0.054,0.098,0.109,0.193,0.148,0.294c0.086,0.2,0.131,0.41,0.158,0.628c0.062,0.434,0.009,0.907,0.105,1.41
					c0.046,0.25,0.138,0.501,0.272,0.719c0.068,0.108,0.143,0.21,0.225,0.3c0.04,0.045,0.082,0.09,0.129,0.133l0.069,0.064
					l0.061,0.05c0.352,0.288,0.769,0.52,1.238,0.546c0.231,0.014,0.464-0.038,0.66-0.136c0.198-0.098,0.361-0.239,0.484-0.402
					c0.062-0.085,0.111-0.166,0.153-0.275c0.036-0.093,0.051-0.193,0.063-0.285c0.015-0.188-0.007-0.365-0.056-0.527
					c-0.097-0.324-0.304-0.582-0.539-0.724c-0.467-0.295-0.942-0.238-1.184-0.104c-0.125,0.064-0.206,0.134-0.257,0.183
					c-0.05,0.049-0.072,0.081-0.072,0.081L56.952,109.201z"/>
			</g>
		</g>
	</g>
</g>
</svg>
