<svg xmlns="http://www.w3.org/2000/svg" viewBox="0 0 24 24"><path d="M16.125 2c-1.152.066-2.465.715-3.25 1.531-.71.742-1.293 1.836-1.063 2.906 1.254.032 2.528-.605 3.282-1.437.703-.777 1.222-1.879 1.031-3zm.063 4.438c-1.81 0-2.56 1.125-3.813 1.125-1.29 0-2.473-1.063-4.031-1.063C6.223 6.5 3 8.492 3 13.125 3 17.34 6.813 22 8.969 22c1.308.012 1.629-.836 3.406-.844 1.777-.011 2.156.856 3.469.844 1.476-.012 2.625-1.621 3.469-2.906.605-.922.843-1.399 1.312-2.438-3.473-.879-4.164-6.5 0-7.656-.785-1.34-3.074-2.563-4.438-2.563z"/></svg>