<svg xmlns="http://www.w3.org/2000/svg" viewBox="0 0 32 32"><path d="M15.063 9.094c-.016 0-.126.027-.126.125 0 .082.063.094.126.094 4.804 0 12.628 1.898 12.374 6.03-.207 3.368-6.308 7.313-20.343 7.313-.086 0-.157.074-.157.125 0 .051.06.082.157.094 0 0 24.386.992 24.906-7.531.422-6.914-16.922-6.25-16.938-6.25zM3.374 10.25c-.02 0-.047.016-.063.031C1.895 12.277 1.043 13.61.156 15.25l-.125.25c-.074.16-.043.332.063.5.523.82 3.469 1.781 10.031 1.781 4.89 0 10.094-.785 10.094-2.25 0-1.414-5.137-2.281-10.094-2.281-1.648 0-3.281.238-3.75.313.45-.692 2.293-3.192 2.313-3.22.007-.011.03-.015.03-.03 0-.012.005-.02 0-.032a.082.082 0 0 0-.062-.031zm6.75 4.531c2.996 0 4.813.446 4.813.75 0 .305-1.817.719-4.813.719-2.996 0-4.844-.414-4.844-.719 0-.304 1.848-.75 4.844-.75z"/></svg>