<svg xmlns="http://www.w3.org/2000/svg" viewBox="0 0 16 16"><path d="M2.5 3C1.676 3 1 3.676 1 4.5v7c0 .82.676 1.5 1.5 1.5h11c.824 0 1.5-.676 1.5-1.5v-7c0-.824-.68-1.5-1.5-1.5zm0 1h11c.281 0 .5.219.5.5v7c0 .281-.219.5-.5.5h-11a.494.494 0 0 1-.5-.5v-7c0-.285.215-.5.5-.5zM7 5C5.348 5 4 6.348 4 8s1.348 3 3 3h2a3 3 0 0 0 0-6zm0 1c1.11 0 2 .89 2 2 0 1.11-.89 2-2 2-1.11 0-2-.89-2-2 0-1.11.89-2 2-2zm-.375.875c-.46.164-.875.602-.875 1.125s.375 1 .875 1.125zm.625 0v2.25c.5-.125.867-.602.867-1.125S7.75 7 7.25 6.875z"/></svg>