<svg xmlns="http://www.w3.org/2000/svg" viewBox="0 0 48 48"><path d="M31 17c0 7.73-6.27 14-14 14S3 24.73 3 17 9.27 3 17 3s14 6.27 14 14z" fill="#00acc1"/><path d="M28 17c0 6.074-4.926 11-11 11S6 23.074 6 17 10.926 6 17 6s11 4.926 11 11z" fill="#eee"/><path d="M16 8h2v9h-2z"/><path d="M22.652 20.953l-1.699 1.7-4.808-4.81 1.699-1.695z"/><path d="M19 17a1.999 1.999 0 1 1-4 0 1.999 1.999 0 1 1 4 0z"/><path d="M18 17c0 .55-.45 1-1 1s-1-.45-1-1 .45-1 1-1 1 .45 1 1z" fill="#00acc1"/><path d="M11.898 42l14.403-24.102c.8-1.296 2.699-1.296 3.398 0L44.102 42c.796 1.3-.204 3-1.704 3H13.602c-1.5 0-2.5-1.7-1.704-3z" fill="#ffc107"/><path d="M26.398 39.898c0-.199 0-.398.102-.597.102-.2.2-.301.3-.5.098-.2.302-.2.5-.301.2-.102.4-.102.598-.102.204 0 .5 0 .704.102.199.102.398.2.5.3.097.098.199.302.296.5.102.2.102.4.102.598 0 .204 0 .403-.102.602-.097.2-.199.3-.296.5-.102.2-.301.2-.5.3-.204.098-.403.098-.704.098-.296 0-.5 0-.597-.097-.102-.102-.403-.2-.5-.301-.102-.102-.2-.3-.301-.5-.102-.2-.102-.398-.102-.602zm2.801-3.097h-2.3L26.5 27h3z" fill="#263238"/></svg>