<svg xmlns="http://www.w3.org/2000/svg" viewBox="0 0 64 64"><linearGradient id="a" gradientUnits="userSpaceOnUse" x1="31.986" y1="5.139" x2="31.986" y2="59.146" spreadMethod="reflect"><stop offset="0" stop-color="#1a6dff"/><stop offset="1" stop-color="#c822ff"/></linearGradient><path d="M15 58.335v-10.07c-6-4.962-8.88-11.664-8.88-18.459 0-13.312 11.693-24.142 26.051-24.142 14.157 0 25.681 10.83 25.681 24.142 0 13.313-11.581 24.143-25.819 24.143-2.429 0-4.906-.311-7.153-.899L15 58.335zm17.183-50.67c-13.256 0-24.041 9.933-24.041 22.142 0 6.253 3.174 12.697 8.527 17.238l.331.3v7.649l7.642-4.085.399.108c2.179.609 4.6.932 6.991.932 13.135 0 23.824-9.934 23.824-22.143S45.237 7.665 32.183 7.665z" fill="url(#a)"/><linearGradient id="b" gradientUnits="userSpaceOnUse" x1="32.183" y1="22.514" x2="32.183" y2="38.264" spreadMethod="reflect"><stop offset="0" stop-color="#6dc7ff"/><stop offset="1" stop-color="#e6abff"/></linearGradient><polygon points="34.789,37.698 28.388,31.048 16.062,37.865 29.576,23.524 35.977,30.173 48.304,23.356" fill="url(#b)"/></svg>