<svg xmlns="http://www.w3.org/2000/svg" viewBox="0 0 50 50"><path d="M23 3c-.55 0-1 .45-1 1v7.75l-5 10V20c0-.55-.45-1-1-1H3c-.285 0-.559.129-.75.344a.99.99 0 0 0-.25.781l3 24c.063.5.496.875 1 .875h10a1 1 0 0 0 1-1v-1h1.156c.414 1.164 1.54 2 2.844 2h19c2.207 0 4-1.793 4-4 0-.824-.262-1.582-.688-2.219A4.022 4.022 0 0 0 46 35c0-.98-.352-1.867-.938-2.563A4.017 4.017 0 0 0 47 29c0-.98-.352-1.867-.938-2.563A4.017 4.017 0 0 0 48 23c0-2.207-1.793-4-4-4H29.375c.61-1.93 1.625-5.383 1.625-7 0-3.766-2.758-9-5.469-9zm1 2h1.531C26.45 5 29 8.48 29 12c0 1.566-1.398 6.082-1.938 7.688a.998.998 0 0 0 .125.906A.992.992 0 0 0 28 21h16c1.102 0 2 .898 2 2 0 1.102-.898 2-2 2h-1c-.555 0-1 .445-1 1 0 .555.445 1 1 1 1.102 0 2 .898 2 2 0 1.102-.898 2-2 2h-1c-.555 0-1 .445-1 1 0 .555.445 1 1 1 1.102 0 2 .898 2 2 0 1.102-.898 2-2 2h-2c-.555 0-1 .445-1 1 0 .555.445 1 1 1 1.102 0 2 .898 2 2 0 1.102-.898 2-2 2H21c-.55 0-1-.45-1-1a1 1 0 0 0-1-1h-2V24h.5c.379 0 .734-.223.906-.563l5.5-11A.93.93 0 0 0 24 12zM4.125 21H15v22H6.875zM11.5 38a1.5 1.5 0 1 0 0 3 1.5 1.5 0 0 0 0-3z"/></svg>