<svg xmlns="http://www.w3.org/2000/svg" viewBox="0 0 80 80"><path d="M48.988 10a.99.99 0 0 0-.761.355.998.998 0 0 0-.223.817s1.488 8.652 2.422 17.937c-3.223-5.515-5.785-8.734-5.785-8.734a.993.993 0 0 0-.782-.375H29.668c-.3 0-.582.133-.773.367a.996.996 0 0 0-.207.832c-.016.29-.348 6.73-1.641 14.578-1.906-2.914-3.266-4.445-3.266-4.445a1.006 1.006 0 0 0-.746-.332H8a1.003 1.003 0 0 0-.797 1.605s9.973 13.239 12.875 26.61c.102.457.508.785.977.785H35.44c.34.133.723.07 1.004-.164.282-.184.45-.496.453-.832 1.598-4.156 3.067-8.387 4.325-13.02 2.957 7.457 5.39 15.641 5.793 23.07a1 1 0 0 0 1 .946h14.316c.55 0 .996-.445 1-.996C63.98 67.214 67 57.922 67 40.168c0-15.457-2.84-29.367-2.84-29.367a.996.996 0 0 0-.976-.801zM52 12h4c0 .55.45 1 1 1s1-.45 1-1h4c0 .352.184.676.484.855.149.77.371 1.993.703 4.16-.062-.007-.124-.015-.187-.015-.55 0-1 .45-1 1a1.002 1.002 0 0 0 1.453.89C64.187 24.13 65 31.767 65 40.169c0 8.238-.64 14.492-1.39 19.039a.998.998 0 0 0-1.505.348 85.725 85.725 0 0 0-1.82-7.598A1 1 0 0 0 61 51a1.002 1.002 0 0 0-1.297-.953 93.68 93.68 0 0 0-2.5-7.067c.465-.097.797-.507.797-.98a1.002 1.002 0 0 0-1.555-.832 102.638 102.638 0 0 0-3.629-7.719c-.398-5.328-1.039-10.476-1.597-14.476A.995.995 0 0 0 52 18c0-.55-.45-1-1-1-.023 0-.047 0-.07.004a273.49 273.49 0 0 0-.664-4.328A.994.994 0 0 0 51 13c.55 0 1-.45 1-1zm2 2c-.55 0-1 .45-1 1s.45 1 1 1 1-.45 1-1-.45-1-1-1zm6 0c-.55 0-1 .45-1 1s.45 1 1 1 1-.45 1-1-.45-1-1-1zm-3 3c-.55 0-1 .45-1 1s.45 1 1 1 1-.45 1-1-.45-1-1-1zm-3 3c-.55 0-1 .45-1 1s.45 1 1 1 1-.45 1-1-.45-1-1-1zm6 0c-.55 0-1 .45-1 1s.45 1 1 1 1-.45 1-1-.45-1-1-1zm-28.566 2h11.914c.797 1.02 15.734 20.453 17.843 46H48.887c-.797-10.66-5.235-22.297-9.578-31.426-3.711-7.797-6.754-12.773-7.875-14.574zM57 23c-.55 0-1 .45-1 1s.45 1 1 1 1-.45 1-1-.45-1-1-1zm6 0c-.55 0-1 .45-1 1s.45 1 1 1 1-.45 1-1-.45-1-1-1zm-32.531 1.25c.5.844 1.117 1.914 1.781 3.09-.16.183-.25.418-.25.66a1.002 1.002 0 0 0 1.168.984 157.8 157.8 0 0 1 4.336 8.45c.281.586.559 1.203.836 1.816A.996.996 0 0 0 38 40c0 .55.45 1 1 1 .04 0 .082-.004.121-.012.285.649.57 1.293.852 1.953l-.032.102c-.168.7-.355 1.367-.535 2.047A.977.977 0 0 0 39 45c-.55 0-1 .45-1 1 0 .508.379.934.879.992a125.305 125.305 0 0 1-2.852 8.649A79.48 79.48 0 0 0 32.957 47H33c.55 0 1-.45 1-1s-.45-1-1-1a.998.998 0 0 0-.754.348 72.78 72.78 0 0 0-3.61-7.02c.419-2.285.731-4.406.997-6.398A1.002 1.002 0 0 0 31 31c0-.55-.45-1-1-1-.04 0-.074.004-.113.008.273-2.278.46-4.258.582-5.758zM54 26c-.55 0-1 .45-1 1s.45 1 1 1 1-.45 1-1-.45-1-1-1zm6 0c-.55 0-1 .45-1 1s.45 1 1 1 1-.45 1-1-.45-1-1-1zm-3 3c-.55 0-1 .45-1 1s.45 1 1 1 1-.45 1-1-.45-1-1-1zm6 0c-.55 0-1 .45-1 1s.45 1 1 1 1-.45 1-1-.45-1-1-1zm-9 3c-.55 0-1 .45-1 1s.45 1 1 1 1-.45 1-1-.45-1-1-1zm6 0c-.55 0-1 .45-1 1s.45 1 1 1 1-.45 1-1-.45-1-1-1zM9.836 33h12.723c.445.512 3.343 3.977 6.472 10.246.035.137.098.27.188.379C31.094 47.43 33.03 52.227 34.566 58H21.812C18.88 45.602 11.415 35.148 9.836 33zM33 33c-.55 0-1 .45-1 1s.45 1 1 1 1-.45 1-1-.45-1-1-1zm24 2c-.55 0-1 .45-1 1s.45 1 1 1 1-.45 1-1-.45-1-1-1zm6 0c-.55 0-1 .45-1 1s.45 1 1 1 1-.45 1-1-.45-1-1-1zm-33 1c-.55 0-1 .45-1 1s.45 1 1 1 1-.45 1-1-.45-1-1-1zm6 0c-.55 0-1 .45-1 1s.45 1 1 1 1-.45 1-1-.45-1-1-1zm24 2c-.55 0-1 .45-1 1s.45 1 1 1 1-.45 1-1-.45-1-1-1zm-27 1c-.55 0-1 .45-1 1s.45 1 1 1 1-.45 1-1-.45-1-1-1zm30 2c-.55 0-1 .45-1 1s.45 1 1 1 1-.45 1-1-.45-1-1-1zm-27 1c-.55 0-1 .45-1 1s.45 1 1 1 1-.45 1-1-.45-1-1-1zm24 2c-.55 0-1 .45-1 1s.45 1 1 1 1-.45 1-1-.45-1-1-1zm3 3c-.55 0-1 .45-1 1s.45 1 1 1 1-.45 1-1-.45-1-1-1zm-27 1c-.55 0-1 .45-1 1s.45 1 1 1 1-.45 1-1-.45-1-1-1zm27 5c-.55 0-1 .45-1 1s.45 1 1 1 1-.45 1-1-.45-1-1-1zm-.684 7.73a1.011 1.011 0 0 0 .985.223c-.176.95-.356 1.844-.531 2.61a66.816 66.816 0 0 0-.454-2.833z"/></svg>