<svg xmlns="http://www.w3.org/2000/svg" viewBox="0 0 64 64"><path d="M55 49H9a2 2 0 0 1-2-2V19a2 2 0 0 1 2-2h46a2 2 0 0 1 2 2v28a2 2 0 0 1-2 2z" fill="#72caaf"/><path d="M53.988 17H10.012a8.5 8.5 0 0 1 11.86-7.3 10.6 10.6 0 0 1 1-1.829C24.851 4.93 28.198 3 32 3c3.68 0 6.93 1.8 8.93 4.578.48.66.879 1.371 1.199 2.121a8.5 8.5 0 0 1 11.86 7.3z" fill="#c2cde7"/><path d="M39.762 8.883l-.012.008c-.746.832-2.047.89-2.844.109A7.01 7.01 0 0 0 32 7c-1.95 0-3.77.8-5.07 2.16-.754.781-2.024.746-2.79-.02l-.003-.003a1.987 1.987 0 0 1-.035-2.785C26.102 4.282 28.902 3 32 3c2.977 0 5.668 1.176 7.648 3.094.778.754.836 1.98.114 2.789z" fill="#ced9ed"/><path d="M7.035 47c.004 1.105.899 2 2 2H55a2 2 0 0 0 2-2 3 3 0 0 0-3-3H10.035a3 3 0 0 0-3 3z" fill="#5dbc9d"/><path d="M22 33a1.999 1.999 0 1 1-4 0 1.999 1.999 0 1 1 4 0zm12 0a1.999 1.999 0 1 1-4 0 1.999 1.999 0 1 1 4 0zm12 0a1.999 1.999 0 1 1-4 0 1.999 1.999 0 1 1 4 0z" fill="#fff6df"/><path d="M55 16h-.117a9.51 9.51 0 0 0-12.246-7.559A11.987 11.987 0 0 0 32 2c-4.5 0-8.578 2.5-10.637 6.441A9.51 9.51 0 0 0 9.117 16H9c-1.652 0-3 1.348-3 3v28c0 1.652 1.348 3 3 3h5v11c0 .55-.45 1-1 1a1 1 0 1 0 0 2c1.652 0 3-1.348 3-3V50h4v11c0 .55-.45 1-1 1a1 1 0 1 0 0 2c1.652 0 3-1.348 3-3V50h20v11c0 .55-.45 1-1 1a1 1 0 1 0 0 2c1.652 0 3-1.348 3-3V50h4v11c0 .55-.45 1-1 1a1 1 0 1 0 0 2c1.652 0 3-1.348 3-3V50h5c1.652 0 3-1.348 3-3V19c0-1.652-1.348-3-3-3zm-36.5-6c1.031 0 2.031.207 2.977.617.246.106.52.11.77.012a1 1 0 0 0 .546-.54A9.991 9.991 0 0 1 32 4a9.99 9.99 0 0 1 9.207 6.09 1 1 0 0 0 .547.539c.25.098.523.094.77-.012A7.429 7.429 0 0 1 45.5 10a7.497 7.497 0 0 1 7.34 6H11.16a7.497 7.497 0 0 1 7.34-6zM56 47c0 .55-.45 1-1 1H9c-.55 0-1-.45-1-1V19c0-.55.45-1 1-1h46c.55 0 1 .45 1 1z" fill="#8d6c9f"/><path d="M20 30c-1.652 0-3 1.348-3 3s1.348 3 3 3 3-1.348 3-3-1.348-3-3-3zm0 4.2c-.66 0-1.2-.54-1.2-1.2 0-.66.54-1.2 1.2-1.2.66 0 1.2.54 1.2 1.2 0 .66-.54 1.2-1.2 1.2zM32.02 30c-1.657 0-3 1.348-3 3s1.343 3 3 3c1.652 0 3-1.348 3-3s-1.348-3-3-3zm0 4.2c-.665 0-1.204-.54-1.204-1.2a1.202 1.202 0 0 1 2.402 0c0 .66-.538 1.2-1.198 1.2zM47 33c0-1.652-1.348-3-3-3s-3 1.348-3 3 1.348 3 3 3 3-1.348 3-3zm-3 1.2c-.66 0-1.2-.54-1.2-1.2 0-.66.54-1.2 1.2-1.2.66 0 1.2.54 1.2 1.2 0 .66-.54 1.2-1.2 1.2zM12 42a1 1 0 0 0-1 1v2a1 1 0 1 0 2 0v-2a1 1 0 0 0-1-1zm5 0a1 1 0 0 0-1 1v2a1 1 0 1 0 2 0v-2a1 1 0 0 0-1-1zm5 0a1 1 0 0 0-1 1v2a1 1 0 1 0 2 0v-2a1 1 0 0 0-1-1zm5 0a1 1 0 0 0-1 1v2a1 1 0 1 0 2 0v-2a1 1 0 0 0-1-1zm5 0a1 1 0 0 0-1 1v2a1 1 0 1 0 2 0v-2a1 1 0 0 0-1-1zm5 0a1 1 0 0 0-1 1v2a1 1 0 1 0 2 0v-2a1 1 0 0 0-1-1zm5 0a1 1 0 0 0-1 1v2a1 1 0 1 0 2 0v-2a1 1 0 0 0-1-1zm5 0a1 1 0 0 0-1 1v2a1 1 0 1 0 2 0v-2a1 1 0 0 0-1-1zm5 0a1 1 0 0 0-1 1v2a1 1 0 1 0 2 0v-2a1 1 0 0 0-1-1z" fill="#8d6c9f"/></svg>