<svg xmlns="http://www.w3.org/2000/svg" viewBox="0 0 40 40"><path d="M30 38c.68 0 1-.484 1-2.133V30" fill="none" stroke-width="2" stroke-linecap="round" stroke="#4788c7" stroke-miterlimit="10"/><path d="M31 31v-1" fill="none" stroke-width="2" stroke="#4788c7" stroke-miterlimit="10"/><path d="M26 38c.68 0 1-.484 1-2.133V30" fill="none" stroke-width="2" stroke-linecap="round" stroke="#4788c7" stroke-miterlimit="10"/><path d="M27 31v-1" fill="none" stroke-width="2" stroke="#4788c7" stroke-miterlimit="10"/><path d="M13 38c.68 0 1-.484 1-2.133V30" fill="none" stroke-width="2" stroke-linecap="round" stroke="#4788c7" stroke-miterlimit="10"/><path d="M14 31v-1" fill="none" stroke-width="2" stroke="#4788c7" stroke-miterlimit="10"/><path d="M9 38c.68 0 1-.484 1-2.133V30" fill="none" stroke-width="2" stroke-linecap="round" stroke="#4788c7" stroke-miterlimit="10"/><path d="M10 31v-1" fill="none" stroke-width="2" stroke="#4788c7" stroke-miterlimit="10"/><path d="M11 16.5A5.508 5.508 0 0 1 5.5 11c0-3.031 2.469-5.5 5.5-5.5.777 0 1.535.164 2.254.484l.484.22.188-.497A6.529 6.529 0 0 1 20 1.5a6.495 6.495 0 0 1 5.734 3.441l.235.442.441-.235A5.499 5.499 0 0 1 29 4.5c3.031 0 5.5 2.469 5.5 5.5s-2.469 5.5-5.5 5.5a5.45 5.45 0 0 1-4.398-2.21l-.301-.4-.399.301a6.457 6.457 0 0 1-7.382.29l-.45-.286-.258.465A5.51 5.51 0 0 1 11 16.5z" fill="#fff"/><path d="M20 2a5.992 5.992 0 0 1 5.293 3.18l.473.879.882-.47A4.96 4.96 0 0 1 29 5c2.758 0 5 2.242 5 5s-2.242 5-5 5a4.95 4.95 0 0 1-4-2.012l-.602-.8-.8.601A5.917 5.917 0 0 1 20 14a5.969 5.969 0 0 1-3.215-.941l-.894-.57-.516.929A5.004 5.004 0 0 1 11 16c-2.758 0-5-2.242-5-5s2.242-5 5-5a4.96 4.96 0 0 1 2.047.441l.969.438.379-.996A6.026 6.026 0 0 1 20 2m0-1c-2.996 0-5.543 1.887-6.543 4.531A5.94 5.94 0 0 0 11 5c-3.313 0-6 2.688-6 6 0 3.313 2.688 6 6 6a5.993 5.993 0 0 0 5.25-3.098 6.951 6.951 0 0 0 7.95-.312A5.992 5.992 0 0 0 29 16c3.313 0 6-2.688 6-6a6.002 6.002 0 0 0-8.824-5.293A7.001 7.001 0 0 0 20 1z" fill="#4788c7"/><path d="M4.5 10.5h31v19h-31z" fill="#98ccfd"/><path d="M35 11v18H5V11h30m1-1H4v20h32z" fill="#4788c7"/><path d="M21.5 20a1.5 1.5 0 1 1-3 0 1.5 1.5 0 0 1 3 0zm8 0a1.5 1.5 0 1 1-3 0 1.5 1.5 0 0 1 3 0zm-16 0a1.5 1.5 0 1 1-3 0 1.5 1.5 0 0 1 3 0z" fill="#fff"/></svg>