<svg xmlns="http://www.w3.org/2000/svg" viewBox="0 0 48 48"><path d="M12.5 42h23a6.5 6.5 0 0 0 6.5-6.5v-23A6.5 6.5 0 0 0 35.5 6h-23A6.5 6.5 0 0 0 6 12.5v23a6.5 6.5 0 0 0 6.5 6.5z" fill="#00c300"/><path d="M37.113 22.418c0-5.867-5.879-10.637-13.105-10.637-7.23 0-13.11 4.77-13.11 10.637 0 5.258 4.665 9.66 10.961 10.492.426.094 1.008.285 1.157.649.132.332.086.847.043 1.183 0 0-.157.926-.188 1.121-.058.332-.266 1.297 1.133.707 1.398-.586 7.55-4.441 10.3-7.61h-.003c1.902-2.081 2.812-4.194 2.812-6.542zm-18.238 3.488H16.27a.685.685 0 0 1-.684-.687v-5.207a.685.685 0 1 1 1.371 0v4.52h1.918a.689.689 0 0 1 0 1.374zm2.691-.687a.685.685 0 1 1-1.37 0v-5.207a.685.685 0 1 1 1.371 0zm6.274 0a.689.689 0 0 1-1.238.414l-2.668-3.637v3.223a.69.69 0 0 1-1.38 0v-5.207a.689.689 0 0 1 1.239-.414l2.672 3.636v-3.222a.689.689 0 0 1 1.375 0zm4.21-3.293a.689.689 0 0 1 0 1.375h-1.913v1.23h1.914a.689.689 0 0 1 0 1.375h-2.602a.689.689 0 0 1-.687-.687v-5.207c0-.38.308-.688.687-.688h2.602a.689.689 0 0 1 0 1.375h-1.914v1.23h1.914z" fill="#fff"/></svg>