<svg xmlns="http://www.w3.org/2000/svg" viewBox="0 0 50 50"><path d="M10 0C4.465 0 0 4.465 0 10v30c0 5.535 4.465 10 10 10h30c5.535 0 10-4.465 10-10V10c0-5.535-4.465-10-10-10zm0 2h30c4.465 0 8 3.535 8 8v30c0 4.465-3.535 8-8 8H10c-4.465 0-8-3.535-8-8V10c0-4.465 3.535-8 8-8zm2 6c-2.84 0-5 2.086-5 4.688 0 2.601 2.133 4.812 5 4.812 2.95 0 5-2.242 5-4.813v-.03C16.879 10.108 14.84 8 12 8zm0 2c1.95 0 2.91 1.082 3 2.719-.012 1.613-.96 2.781-3 2.781-1.934 0-3-1.215-3-2.813C9 11.09 10.04 10 12 10zm-4.188 8A1 1 0 0 0 7 19v23c0 .55.45 1 1 1h8c.55 0 1-.45 1-1V19c0-.55-.45-1-1-1H7.813zm11 0A1 1 0 0 0 18 19v23c0 .55.45 1 1 1h8c.55 0 1-.45 1-1V29c0-.398.133-1.27.5-1.906.367-.637.82-1.094 2-1.094 1.395 0 1.805.496 2.125 1.125.32.629.375 1.46.375 1.875v13c0 .55.45 1 1 1h8c.55 0 1-.45 1-1V29c0-3.543-1.035-6.313-2.813-8.188C38.41 18.938 35.941 18 33.313 18c-2.442 0-4.165.781-5.313 1.625V19c0-.55-.45-1-1-1h-8.187zM9 20h6v21H9zm11 0h6v2.094a.997.997 0 0 0 .758.953.998.998 0 0 0 1.117-.485S28.165 22 29 21.345c.836-.657 2.184-1.344 4.313-1.344 2.171 0 4.035.738 5.406 2.188C40.089 23.637 41 25.843 41 29v12h-6V29c0-.488-.012-1.637-.594-2.781C33.824 25.074 32.504 24 30.5 24c-1.82 0-3.117 1.004-3.75 2.094-.633 1.09-.75 2.203-.75 2.906v12h-6z"/></svg>