<svg xmlns="http://www.w3.org/2000/svg" viewBox="0 0 40 40"><path d="M4 32.5A2.502 2.502 0 0 1 1.5 30V10c0-1.379 1.121-2.5 2.5-2.5h32c1.379 0 2.5 1.121 2.5 2.5v20c0 1.379-1.121 2.5-2.5 2.5z" fill="#98ccfd"/><path d="M36 8c1.102 0 2 .898 2 2v20c0 1.102-.898 2-2 2H4c-1.102 0-2-.898-2-2V10c0-1.102.898-2 2-2h32m0-1H4a3 3 0 0 0-3 3v20a3 3 0 0 0 3 3h32a3 3 0 0 0 3-3V10a3 3 0 0 0-3-3z" fill="#4788c7"/><path d="M17 20a8.978 8.978 0 0 1 3-6.695A8.951 8.951 0 0 0 14 11c-4.973 0-9 4.027-9 9s4.027 9 9 9a8.951 8.951 0 0 0 6-2.305A8.978 8.978 0 0 1 17 20z" fill="#dff0fe"/><path d="M26 11a8.951 8.951 0 0 0-6 2.305A8.978 8.978 0 0 1 23 20a8.978 8.978 0 0 1-3 6.695A8.951 8.951 0 0 0 26 29c4.973 0 9-4.027 9-9s-4.027-9-9-9z" fill="#fff"/><path d="M23 20a8.978 8.978 0 0 0-3-6.695A8.978 8.978 0 0 0 17 20a8.978 8.978 0 0 0 3 6.695A8.978 8.978 0 0 0 23 20z" fill="#b6dcfe"/></svg>