<svg xmlns="http://www.w3.org/2000/svg" viewBox="0 0 26 26"><path d="M3.906 4A3.913 3.913 0 0 0 0 7.906v10.188A3.913 3.913 0 0 0 3.906 22h18.188A3.913 3.913 0 0 0 26 18.094V7.906A3.913 3.913 0 0 0 22.094 4zm0 2h18.188C23.14 6 24 6.86 24 7.906v10.188C24 19.14 23.14 20 22.094 20H3.906A1.914 1.914 0 0 1 2 18.094V7.906C2 6.86 2.86 6 3.906 6zM9 7.188A5.811 5.811 0 0 0 3.187 13 5.811 5.811 0 0 0 9 18.813c1.55 0 2.957-.606 4-1.594a5.793 5.793 0 0 0 4 1.593A5.811 5.811 0 0 0 22.813 13 5.811 5.811 0 0 0 13 8.781a5.793 5.793 0 0 0-4-1.594zm8 1.75A4.072 4.072 0 0 1 21.063 13 4.07 4.07 0 0 1 17 17.063a4.063 4.063 0 0 1-2.906-1.22A5.812 5.812 0 0 0 14.813 13c0-1.027-.25-2.008-.72-2.844A4.063 4.063 0 0 1 17 8.937z"/></svg>