<svg xmlns="http://www.w3.org/2000/svg" viewBox="0 0 16 16"><path d="M2.5 1C1.676 1 1 1.676 1 2.5v10c0 .824.676 1.5 1.5 1.5h10c.824 0 1.5-.676 1.5-1.5v-10c0-.824-.676-1.5-1.5-1.5zm0 1h10c.281 0 .5.219.5.5v10c0 .281-.219.5-.5.5h-10a.494.494 0 0 1-.5-.5v-10c0-.281.219-.5.5-.5zm7.25 1a1.25 1.25 0 1 0-.002 2.498A1.25 1.25 0 0 0 9.75 3zm-2.813.125c-.585 0-1.062.477-1.062 1.063A1.05 1.05 0 0 0 6.938 5.25a1.064 1.064 0 0 0 0-2.125zm-2.5.375a.813.813 0 0 0-.812.813.809.809 0 0 0 .234.578.809.809 0 0 0 .579.234.813.813 0 0 0 0-1.625zm-.125 2a1.3 1.3 0 0 0-1.296 1.25H3V9h2.25v1.25h2.5V12H12V8.5a2.25 2.25 0 0 0-2.25-2.25 2.24 2.24 0 0 0-1.5.582 1.555 1.555 0 0 0-2.688-.324C5.423 5.934 4.93 5.5 4.313 5.5z"/></svg>