<svg xmlns="http://www.w3.org/2000/svg" viewBox="0 0 48 48"><path d="M15 40h23l6 6V25c0-2.2-1.8-4-4-4H15c-2.2 0-4 1.8-4 4v11c0 2.2 1.8 4 4 4z" fill="#558b2f"/><path d="M28.8 32.8h-3.6l-.7 2.098h-2.2l3.7-10h1.898l3.704 10h-2.204zm-3.1-1.6h2.5L27 27.397z" fill="#1b5e20"/><path d="M33 25H10l-6 6V8c0-2.2 1.8-4 4-4h25c2.2 0 4 1.8 4 4v13c0 2.2-1.8 4-4 4z" fill="#8bc34a"/><path d="M25.398 14.2c0 1-.199 1.8-.5 2.5-.296.698-.699 1.3-1.296 1.698L25.3 19.7 24 20.9l-2.2-1.7c-.198 0-.5.102-.8.102A5.69 5.69 0 0 1 19.2 19c-.5-.2-1-.602-1.4-1-.402-.398-.698-1-.902-1.602-.199-.597-.296-1.296-.296-2.097v-.403c0-.796.097-1.5.296-2.097.204-.602.5-1.2.903-1.602.398-.398.8-.8 1.398-1C19.7 9 20.301 8.9 21 8.9c.602 0 1.2.101 1.8.3.5.2 1 .602 1.4 1 .402.403.698 1 .902 1.602.199.597.296 1.3.296 2.097zm-2.199-.5c0-1.098-.199-1.9-.597-2.4-.403-.6-.903-.8-1.602-.8-.7 0-1.3.3-1.602.8-.398.598-.597 1.4-.597 2.4v.5c0 .5.097 1 .199 1.402.102.398.2.796.398 1 .204.296.403.5.704.597.296.102.597.2.898.2.7 0 1.3-.297 1.602-.797.398-.602.597-1.403.597-2.5z" fill="#fff"/></svg>