<svg xmlns="http://www.w3.org/2000/svg" viewBox="0 0 16 16"><path d="M2.5 2c-.75 1-.5 2.625-.133 3.102-.844.886-1.36 2.085-1.36 3.632C1 11.875 3.478 14 8.005 14 12.53 14 15 11.875 15 8.734c0-1.597-.492-2.796-1.297-3.664C14 4.625 14.25 3 13.5 2c-1.875 0-3 1.375-3 1.375S9.625 3 8 3s-2.504.398-2.504.398S4.375 2 2.5 2zm2.75 5.5c1.215 0 1.258.477 2.664.496.031 0 .066-.004.102-.004h.199c1.273-.05 1.36-.492 2.535-.492A2.25 2.25 0 0 1 13 9.75c0 .785 0 3.25-5 3.25s-5-2.402-5-3.25A2.25 2.25 0 0 1 5.25 7.5zM5.5 9c-.277 0-.5.45-.5 1s.223 1 .5 1 .5-.45.5-1-.223-1-.5-1zm5 0c-.277 0-.5.45-.5 1s.223 1 .5 1 .5-.45.5-1-.223-1-.5-1z"/></svg>