<svg xmlns="http://www.w3.org/2000/svg" viewBox="0 0 16 16"><path d="M7.5 1A3.514 3.514 0 0 0 4 4.5C4 6.422 5.578 8 7.5 8S11 6.422 11 4.5 9.422 1 7.5 1zm0 2C8.34 3 9 3.66 9 4.5S8.34 6 7.5 6 6 5.34 6 4.5 6.66 3 7.5 3zM4.977 8.379a1 1 0 0 0-.438 1.894c.34.176.703.313 1.078.43L4.234 12.36a1 1 0 1 0 .586 1.648.996.996 0 0 0 .946-.366l1.734-2.08 1.734 2.079a.996.996 0 0 0 1.723-.286.998.998 0 0 0-.191-.996l-1.383-1.656a6.487 6.487 0 0 0 1.074-.43.998.998 0 0 0 .43-1.347.997.997 0 0 0-1.348-.43A4.412 4.412 0 0 1 7.5 9a4.412 4.412 0 0 1-2.04-.504.998.998 0 0 0-.483-.117z"/></svg>