<svg xmlns="http://www.w3.org/2000/svg" viewBox="0 0 64 64"><path d="M11 4c-3.86 0-7 3.14-7 7v42c0 3.86 3.14 7 7 7h42c3.86 0 7-3.14 7-7V11c0-3.86-3.14-7-7-7zm0 2h42c2.758 0 5 2.242 5 5v42c0 2.758-2.242 5-5 5H11c-2.758 0-5-2.242-5-5V11c0-2.758 2.242-5 5-5zm-2 4c-.555 0-1 .445-1 1v2c0 .555.445 1 1 1 .555 0 1-.445 1-1v-2c0-.555-.445-1-1-1zm5 0c-.555 0-1 .445-1 1v2c0 .555.445 1 1 1 .555 0 1-.445 1-1v-2c0-.555-.445-1-1-1zm5 0c-.555 0-1 .445-1 1v2c0 .555.445 1 1 1 .555 0 1-.445 1-1v-2c0-.555-.445-1-1-1zm5 0c-.555 0-1 .445-1 1v2c0 .555.445 1 1 1 .555 0 1-.445 1-1v-2c0-.555-.445-1-1-1zm5 0c-.555 0-1 .445-1 1v2c0 .555.445 1 1 1 .555 0 1-.445 1-1v-2c0-.555-.445-1-1-1zm5 0c-.555 0-1 .445-1 1v2c0 .555.445 1 1 1 .555 0 1-.445 1-1v-2c0-.555-.445-1-1-1zm5 0c-.555 0-1 .445-1 1v2c0 .555.445 1 1 1 .555 0 1-.445 1-1v-2c0-.555-.445-1-1-1zm5 0c-.555 0-1 .445-1 1v2c0 .555.445 1 1 1 .555 0 1-.445 1-1v-2c0-.555-.445-1-1-1zm5 0c-.555 0-1 .445-1 1v2c0 .555.445 1 1 1 .555 0 1-.445 1-1v-2c0-.555-.445-1-1-1zm5 0c-.555 0-1 .445-1 1v2c0 .555.445 1 1 1 .555 0 1-.445 1-1v-2c0-.555-.445-1-1-1zm-30.004 7.996c-5.516 0-10 4.484-10 10s4.484 10 10 10 10-4.484 10-10-4.484-10-10-10zm0 2c4.41 0 8 3.59 8 8s-3.59 8-8 8-8-3.59-8-8 3.59-8 8-8zm0 2.996a5.011 5.011 0 0 0-5.004 5.004A5.011 5.011 0 0 0 23.996 33 5.011 5.011 0 0 0 29 27.996a5.011 5.011 0 0 0-5.004-5.004zm0 2A3.007 3.007 0 0 1 27 27.996 3.007 3.007 0 0 1 23.996 31a3.007 3.007 0 0 1-3.004-3.004 3.007 3.007 0 0 1 3.004-3.004zM37.641 29c-1.77 0-3.27 1.3-3.559 3.09a7.137 7.137 0 0 1-2.016 3.976 7.11 7.11 0 0 1-3.968 2.012C26.297 38.371 25 39.871 25 41.641v.14a3.605 3.605 0 0 0 4.148 3.551 14.454 14.454 0 0 0 4.184-1.285v5.285A3.671 3.671 0 0 0 37 53a3.671 3.671 0 0 0 3.668-3.668v-4.664h4.664A3.671 3.671 0 0 0 49 41a3.671 3.671 0 0 0-3.668-3.668h-5.285a14.39 14.39 0 0 0 1.285-4.184 3.633 3.633 0 0 0-.836-2.906A3.583 3.583 0 0 0 37.781 29zm0 2h.14c.985 0 1.719.883 1.574 1.855a12.333 12.333 0 0 1-1.667 4.625 6.834 6.834 0 0 1-.344.543.832.832 0 0 0 .68 1.309h7.308a1.667 1.667 0 1 1 0 3.336h-6.664v6.664a1.667 1.667 0 1 1-3.336 0v-7.316a.826.826 0 0 0-.832-.828.852.852 0 0 0-.488.156c-.18.12-.356.238-.532.343a12.357 12.357 0 0 1-4.625 1.668A1.599 1.599 0 0 1 27 41.781v-.14c0-.813.605-1.453 1.406-1.582a9.156 9.156 0 0 0 7.649-7.653c.133-.8.773-1.406 1.586-1.406z"/></svg>