<svg xmlns="http://www.w3.org/2000/svg" viewBox="0 0 48 48"><path d="M43 24c0 10.496-8.508 19-19 19S5 34.496 5 24C5 13.508 13.508 5 24 5s19 8.508 19 19z" fill="#d32f2f"/><path d="M17.055 41.672c-.032-.649-.028-4.012 2.312-14.05.313-3.349-.125-4.536-.125-5.927 0-3.16 1.64-3.824 2.602-3.824 1.363 0 3.25.524 3.25 2.727 0 2.52-2.055 3.183-2.055 3.183s-.148.645-.32 2.434c-.168 1.797.547 3.738 3.472 3.738 4.696 0 5.418-6.515 5.418-8.308 0-2.477-1.812-7.504-7.449-7.504-7.515 0-8.808 6.734-8.808 8.53 0 .767.214 2.122.359 2.7 1.418.23 1.27 2.176.664 2.727-.676.605-4.14 1.328-4.14-6.282 0-7.246 6.456-10.98 12.128-10.98 5.395 0 11.274 3.723 11.274 10.898 0 6.403-4.606 11.442-9.438 11.442-2.902 0-4.441-2.39-4.441-2.39 0 2.237-4.113 9.933-4.64 10.91" fill="#fff"/></svg>