<svg xmlns="http://www.w3.org/2000/svg" viewBox="0 0 16 16"><path style="line-height:normal;text-indent:0;text-align:start;text-decoration-line:none;text-decoration-style:solid;text-decoration-color:#000;text-transform:none;block-progression:tb;isolation:auto;mix-blend-mode:normal" d="M13.28 1.014L8.382 5.676 6.729 4.02l-.708.708 2.346 2.345 5.604-5.338-.692-.722zM2.5 2C1.677 2 1 2.677 1 3.5v9c0 .823.677 1.5 1.5 1.5h9c.823 0 1.5-.677 1.5-1.5V4.043l-1 .951V12.5c0 .281-.219.5-.5.5h-9a.493.493 0 0 1-.5-.5v-9c0-.281.219-.5.5-.5h7.244l1.05-1H2.5zm2 5C3.673 7 3 7.673 3 8.5c0 .73.699 1.126 1.26 1.443.24.137.74.42.74.557a.5.5 0 0 1-.5.5H3.092c.207.581.757 1 1.408 1 .827 0 1.5-.673 1.5-1.5 0-.719-.69-1.11-1.246-1.426C4.49 8.926 4 8.648 4 8.5a.5.5 0 0 1 .5-.5h1.408c-.207-.581-.757-1-1.408-1zM9 8c-1.103 0-2 .897-2 2s.897 2 2 2c.737 0 1.376-.405 1.723-1H9c-.551 0-1-.448-1-1h3c0-1.103-.897-2-2-2z" font-weight="400" font-family="sans-serif" white-space="normal" overflow="visible"/></svg>