<svg xmlns="http://www.w3.org/2000/svg" viewBox="0 0 50 50"><path d="M43.188.188l-1.376 1.5L38.5 5.313C37.7 5.112 36.898 5 36 5H11c-5 0-9 4-9 9v25c0 5 4 9 9 9h25c5 0 9-4 9-9V14c0-.7-.086-1.395-.188-2.094l3.782-4.094 1.312-1.5L48.406 5l-3.718-3.406zm.218 3L47 6.5l-3 3.313-14.406 15.78-11.282-10.78 3.375-3.626 7.72 7.313zM13.313 22.5c3.8 0 6.585 2.21 6.687 5.313h-2.813c-.3-1.7-1.8-2.813-4-2.813-2.3 0-3.78 1.113-3.78 2.813 0 1.3 1.007 2.085 3.405 2.687l2.094.5c3.801.898 5.406 2.512 5.406 5.313 0 3.5-2.82 5.687-7.218 5.687C8.992 42 6.199 39.898 6 36.5h2.906c.2 1.8 2 2.906 4.5 2.906 2.301 0 4-1.207 4-2.906 0-1.398-1.101-2.305-3.5-2.906L11.5 33c-3.5-.7-5-2.3-5-5 0-3.3 2.71-5.5 6.813-5.5zm16.28 4.906c3.9 0 6.313 2.696 6.313 7.094v1h-10v.188c.102 2.5 1.48 4 3.782 4 1.699 0 2.812-.586 3.312-1.688h2.688c-.602 2.5-2.895 4.094-6.094 4.094-4 0-6.5-2.782-6.5-7.282s2.5-7.406 6.5-7.406zm0 2.282c-2.1 0-3.488 1.519-3.687 3.718H33c0-2.199-1.406-3.718-3.406-3.718z"/></svg>