<svg xmlns="http://www.w3.org/2000/svg" viewBox="0 0 50 50"><path d="M25 1C11.758 1 1 11.758 1 25s10.758 24 24 24 24-10.758 24-24S38.242 1 25 1zm0 2c12.16 0 22 9.84 22 22s-9.84 22-22 22S3 37.16 3 25 12.84 3 25 3zm-.688 10c-3.5.3-6.312 3.488-6.312 7.188v9.718c0 .5-.313.992-.813 1.094H17c-.602 0-1-.398-1-1v-6h-6v5.813c0 3.699 2.813 6.789 6.313 7.187H17c3.898 0 7-3.102 7-7v-9.906c0-.5.313-.992.813-1.094H25c.602 0 1 .398 1 1v10c0 3.898 3.102 7 7 7s7-3.102 7-7v-6h-6v6c0 .602-.398 1-1 1s-1-.398-1-1V20c0-3.898-3.102-7-7-7zm.188 1.906c.2.102.3.094.5.094 2.8 0 5 2.2 5 5v3c0 .602-.398 1-1 1-.082 0-.145-.016-.219-.031a.34.34 0 0 1-.093-.063l-.282-.093A.955.955 0 0 1 28 23v-3c0-1.7-1.3-3-3-3-.2 0-.395-.008-.594.094-1.398.199-2.406 1.601-2.406 3V30c0 2.8-2.2 5-5 5h-.5c-2.602-.3-4.5-2.586-4.5-5.188V26h2v4c0 1.7 1.3 3 3 3 .2 0 .395.008.594-.094 1.398-.3 2.406-1.593 2.406-3.093v-9.72c0-2.6 1.898-4.886 4.5-5.187zM28 25.844c.152.05.305.066.469.093.172.028.351.063.531.063.18 0 .36-.035.531-.063.164-.027.317-.042.469-.093V30c0 1.7 1.3 3 3 3s3-1.3 3-3v-4h2v4c0 2.8-2.2 5-5 5s-5-2.2-5-5z"/></svg>