<svg xmlns="http://www.w3.org/2000/svg" viewBox="0 0 50 50"><path d="M37.54 2H12.46C6.692 2 2 6.691 2 12.46v25.08C2 43.308 6.691 48 12.46 48h25.08C43.308 48 48 43.309 48 37.54V12.46C48 6.692 43.309 2 37.54 2zm1.335 35.809s-1.563-2.621-4.184-2.621c-2.527 0-4.011 2.62-9.097 2.62-11.32 0-16.672-9.456-16.672-9.456 10.2 6.71 17.164 1.957 17.164 1.957-4.598-2.668-14.371-15.426-14.371-15.426 8.512 7.246 12.191 9.156 12.191 9.156-2.195-1.816-8.355-10.687-8.355-10.687C20.477 18.34 30.27 25.305 30.27 25.305c2.777-7.707-2.668-14.575-2.668-14.575 13.324 9.063 9.015 19.06 9.015 19.06s3.79 4.276 2.258 8.019z"/></svg>