<svg xmlns="http://www.w3.org/2000/svg" viewBox="0 0 64 64"><path d="M13 7h38c3.313 0 6 2.688 6 6v38c0 3.313-2.688 6-6 6H13c-3.313 0-6-2.688-6-6V13c0-3.313 2.688-6 6-6z" fill="#b5c4e0"/><path d="M11 7h42c2.21 0 4 1.79 4 4a3 3 0 0 1-3 3H10a3 3 0 0 1-3-3c0-2.21 1.79-4 4-4z" fill="#ced8ed"/><path d="M34 50.262c-7.32 0-7.32-6.203-7.32-8.532v-8.468H23c-.55 0-1-.45-1-1v-3.813a1 1 0 0 1 .68-.949c4.601-1.578 4.77-3.36 4.941-5.262v-1.41a1 1 0 0 1 1-1h4.7c.55 0 1 .45 1 1v6.531H39c.55 0 1 .45 1 1v3.801c0 .55-.45 1-1 1h-4.64v8.469a1.863 1.863 0 0 0 1.831 1.832c.774.09 1.551-.16 2.13-.68a.998.998 0 0 1 1.679.457l1 3.89c.07.278.02.567-.14.802-.79 1.191-4.329 2.308-6.5 2.308z" fill="#faefde"/><path d="M51 6H13c-3.867 0-7 3.133-7 7v38c0 3.867 3.133 7 7 7h38c3.867 0 7-3.133 7-7V13c0-3.867-3.133-7-7-7zm5 45a5 5 0 0 1-5 5H13a5 5 0 0 1-5-5V13a5 5 0 0 1 5-5h38a5 5 0 0 1 5 5z" fill="#8d6c9f"/><path d="M41 43a1.992 1.992 0 0 0-1.406-1.438 1.993 1.993 0 0 0-1.946.508c-.347.352-.718.39-1.418.39-.699 0-.832-.831-.832-.831v-7.45H39c1.105 0 2-.894 2-2v-3.8c0-1.102-.895-2-2-2h-3.64v-5.54a2 2 0 0 0-2-2h-4.7a2 2 0 0 0-2 2v1.31c-.16 1.761-.281 3-4.27 4.402A2 2 0 0 0 21 28.449v3.801a2 2 0 0 0 2 2h2.7v7.469c0 6.332 2.8 9.531 8.32 9.531h.351c2.188 0 6.2-1.102 7.3-2.75a1.99 1.99 0 0 0 .278-1.59zm-6.64 6.23H34c-5.93 0-6.32-4.43-6.32-7.53v-9.438H23V28.46c5.672-1.941 5.422-4.45 5.672-6.64v-1h4.7v7.53H39v3.797h-5.64v9.473a2.859 2.859 0 0 0 2.831 2.828 3.659 3.659 0 0 0 2.829-1l1 3.89c-.508.782-3.579 1.923-5.692 1.923zM17 12c-.55 0-1 .45-1 1v2c0 .55.45 1 1 1s1-.45 1-1v-2c0-.55-.45-1-1-1zm-5 0c-.55 0-1 .45-1 1v2c0 .55.45 1 1 1s1-.45 1-1v-2c0-.55-.45-1-1-1zm20 4c.55 0 1-.45 1-1v-2c0-.55-.45-1-1-1s-1 .45-1 1v2c0 .55.45 1 1 1zm5 0c.55 0 1-.45 1-1v-2c0-.55-.45-1-1-1s-1 .45-1 1v2c0 .55.45 1 1 1zm5-4c-.55 0-1 .45-1 1v2c0 .55.45 1 1 1s1-.45 1-1v-2c0-.55-.45-1-1-1zm5 0c-.55 0-1 .45-1 1v2c0 .55.45 1 1 1s1-.45 1-1v-2c0-.55-.45-1-1-1zm5 0c-.55 0-1 .45-1 1v2c0 .55.45 1 1 1s1-.45 1-1v-2c0-.55-.45-1-1-1zm-30 4c.55 0 1-.45 1-1v-2c0-.55-.45-1-1-1s-1 .45-1 1v2c0 .55.45 1 1 1zm5 0c.55 0 1-.45 1-1v-2c0-.55-.45-1-1-1s-1 .45-1 1v2c0 .55.45 1 1 1z" fill="#8d6c9f"/></svg>