<svg xmlns="http://www.w3.org/2000/svg" viewBox="0 0 26 26"><path d="M21.125 0H4.875A4.876 4.876 0 0 0 0 4.875v16.25A4.876 4.876 0 0 0 4.875 26h16.25A4.876 4.876 0 0 0 26 21.125V4.875A4.876 4.876 0 0 0 21.125 0zm-3.11 21.203a.252.252 0 0 1-.078.176c-.066.055-1.542 1.316-4.937 1.316-4.07 0-4.188-4.539-4.188-5.054v-5.723h-1.94a.232.232 0 0 1-.231-.234v-2.04c0-.097.058-.183.148-.218.035-.016 3.676-1.477 3.676-4.91 0-.13.101-.235.23-.235H13c.129 0 .234.106.234.235v4.328h3.762c.133 0 .234.105.234.234v2.781a.233.233 0 0 1-.234.235h-3.762v5.457c0 .07.028 1.77 1.766 1.77 1.438 0 2.645-.743 2.656-.75a.227.227 0 0 1 .239-.005c.074.04.117.118.117.204v2.433z"/></svg>