<svg xmlns="http://www.w3.org/2000/svg" viewBox="0 0 48 48"><path d="M30 6c-1.875-.063-2 2-2 2s-.125 1-1 1-1-1-1-1c0-2.313-.938-3-2-3-1.063 0-1.375.375-2 1-1 0-1 1-1 1h2v1s-.125 1-1 1-1-1-1-1-.125-2.063-2-2c-1.875.063-12 6-12 6s1.125 2 5 2 5-1 5-1 1.375 2 5 2c-1 .375-2 2-2 2s.688 3 4 3h1c3.313 0 4-3 4-3s-1-1.625-2-2c3.625 0 5-2 5-2s1.125 1 5 1 5-2 5-2-10.125-5.938-12-6z" fill="#dd9f05"/><path d="M39.5 17a3.5 3.5 0 1 0 0 7 3.5 3.5 0 1 0 0-7zm0 5a1.5 1.5 0 1 1 0-3 1.5 1.5 0 0 1 0 3z" fill="#ffc107"/><path d="M38.246 30l-4.465-6.031L31 16.973 32.754 16l4.371 6.031L40 29.027zM26 40s-4.938.438-7-1c-.125 1.063 1 4 1 4v3s5-1.75 6-6zM15 21c.281 0-2 2.5-2 7-2.063-1.125-3-2-3-2l-3-1s1.188-4 8-4z" fill="#ffc107"/><path d="M35.305 22.066c-.532.04-1.18.079-1.899.168-.36.04-.746.082-1.152.125a.83.83 0 0 0-.535.235c-.157.12-.344.203-.524.308-2.906 1.594-6.78 3.72-10.656 5.844-2.289 1.254-4.57 2.508-6.66 3.652C11.66 32.824 10 31.128 10 29c0-2.188 1.207-4.125 1.207-4.125L9 25s-2 1.188-2 5c0 3.559 1.922 4.324-.434 8.14C6.196 38.677 6 39 6 39s.504.016 1.355-.027c5.29.23 7.567 5.027 11.438 5.027H21l1.043-2.457s-4.414.11-6-1.793c-1.668-2-.043-3.938-.043-3.938s0-.011.004-.015c2.031-1.117 4.242-2.328 6.457-3.543l10.656-5.844c.184-.098.356-.21.543-.277a.843.843 0 0 0 .485-.324c.253-.32.5-.622.726-.907.461-.558.844-1.082 1.16-1.507C36.664 22.535 37 22 37 22s-.633-.008-1.695.066z" fill="#ffc107"/><path d="M35 28.5C35 34.3 30.3 39 24.5 39S14 34.3 14 28.5 18.7 18 24.5 18 35 22.7 35 28.5z" fill="#ffc107"/><path d="M28.95 38a10.262 10.262 0 0 0 1.698-1H18.352c.53.387 1.097.719 1.699 1zm-13.384-4c.215.348.446.684.7 1h16.468c.254-.316.485-.652.7-1zM14 28.5c0 .168.016.332.023.5h20.95c.011-.168.027-.332.027-.5 0-.168-.016-.332-.023-.5H14.023c-.007.168-.023.332-.023.5zm.313 2.5c.082.34.183.676.296 1h19.782c.117-.324.214-.66.297-1zm4.039-11h12.296a10.262 10.262 0 0 0-1.699-1h-8.898c-.602.281-1.168.613-1.7 1zm-2.086 2a9.951 9.951 0 0 0-.7 1h17.868a9.951 9.951 0 0 0-.7-1zm-1.656 3c-.118.324-.215.66-.297 1h20.374c-.082-.34-.183-.676-.296-1z" fill="#dd9f05"/><path d="M32 31.27c-.016.144-.105.27-.191.386-.735.969-1.829 1.91-2.778 2.668-.777.625-1.699 1.301-1.785 2.293-.035.438.07.957-.262 1.242-.277.243-.312.227-.566-.043-.25-.273-.336-.656-.379-1.023a6.14 6.14 0 0 1 .16-2.215c.2-.754.547-1.516.403-2.281-.133-.723-1.122-1.45-1.059-2.184.023-.27.125-.574-.04-.793-.167-.226-.507-.207-.78-.277-.493-.133-.274-.793-.723-1.043-.898-.5-2.8.078-3.395-.758-.328-.46-.132-1.941-.605-2.242-.488-.309-.066 1.258-.582 1-.617-.305-1.918-1.668-1.168-2.332.516-.457.418-.98.418-1.668-.188-.5-1.508-.328-2.277-.168a10.46 10.46 0 0 1 7.355-3.793c.129-.008-.351.547.984 1.945.165.168.286.442.168.645-.187.328-.687.074-.953-.2-.265-.273-.765-.527-.953-.195-.078.13-.047.293-.004.442.121.426.313.828.567 1.191.133.188.316.38.547.371.296-.008.464-.332.683-.531.547-.512 1.617-.078 1.66.668a.894.894 0 0 1-.258.688c-.14.132-.324.207-.488.3-.949.54-1.05.606-.699 1.637-.14.242-.48.305-.746.21-.262-.097-.063-.007-.254-.21-.3.047-1 1.145-1 1.613 0 .305.883.258 1.156.387.887.422.45 1 2.297 1 .793 0 1.684-.012 2.442.23 1.261.399 2.226 1.391 2.925 2.516.098.16.203.336.18.524zm-6.34-13.204c-.21.278-.64.903-.66.997-.023.12.05.238.133.332.285.347.445.632.851.828.227.105.504.183.715.047.106-.07.176-.184.238-.293.165-.274.696-1.497.633-1.516a10.693 10.693 0 0 0-1.91-.395z" fill="#6d4c41"/><path d="M36.004 18.004A1 1 0 0 1 36.988 17c.207.004 1.778.016 2.926 1.156.66.653 1.008 1.52 1.063 2.567a1.494 1.494 0 0 1-2.036 1.168c.051-.399.059-.739.059-.891 0-1.848-1.527-1.996-1.996-2a1.006 1.006 0 0 1-1-.996zM39.5 24a3.46 3.46 0 0 1-1.32-.262c-.192.16-.422.262-.711.262-.688 0-1.356-.11-2.008-1.441-.945-1.922-2.832-3.286-2.91-3.34a1 1 0 0 0-1.164 1.625c.015.011 1.562 1.136 2.277 2.597C34.79 25.734 36.375 26 37.47 26c1.39 0 2.441-.79 3.023-2.16a3.47 3.47 0 0 1-.992.16zM12.012 40.492C9.168 39.113 8.21 35.77 8.016 34.97c.175-.785.957-1.438 1.78-2.13C10.829 31.974 12 30.993 12 29.5c0-1.871-.71-2.762-1.52-3.172A10.92 10.92 0 0 0 10 29.5c0 .559-.723 1.164-1.488 1.809-.399.332-.832.695-1.227 1.109A14.71 14.71 0 0 1 7.004 30H7c0-.027.004-.055.004-.082-.008-.2-.004-.324-.004-.336 0-.043.008-.125.02-.219.097-1.535.527-2.582.964-3.265C5.57 26.57 5 28.695 5 29.555c-.004.117-.074 2.89 1.035 5.73.602 2.887 3.133 7.809 8.684 7.809.328 0 .676-.04 1.02-.074-1.204-.72-2.376-1.7-3.727-2.528zm2.14-9.578c.028-.05.067-.094.102-.14a10.634 10.634 0 0 1-.254-2.27c-.625.293-1.246.754-1.629 1.5-.719 1.406-.266 3.246 1.215 5.55 1.254 1.95 1.89 3.063 2.156 3.782.086.137.184.277.301.414.445.54 1.121.91 1.86 1.176.507-2.215-1.598-4.906-2.653-6.48-1.059-1.583-1.45-2.837-1.098-3.532z" fill="#c18706"/><path d="M30 6c-1.875-.063-2 2-2 2s-.125 1-1 1-1-1-1-1c0-2.313-.938-3-2-3-1.063 0-1.375.375-2 1-1 0-1 1-1 1h2v1s-.125 1-1 1-1-1-1-1-.125-2.063-2-2c-.719.023-2.652.914-4.766 2H19c0 2.582 3 3 3 3h5c3 0 3-3 3-3h4.766C32.652 6.914 30.719 6.023 30 6z" fill="#ffc107"/><path d="M27 11c0 2.484-1.117 6-2.5 6S22 13.484 22 11s1.117-3 2.5-3 2.5.516 2.5 3z" fill="#ffc107"/><path d="M21.723 19.445l-.446-.89 1.813-.91.933-2.801.954.312-1.067 3.2z" fill="#ffc107"/><path d="M23 18h1v2h-1zm4.277 1.445l.446-.89-1.813-.91-.933-2.801-.954.312 1.067 3.2z" fill="#ffc107"/><path d="M25 18h1v2h-1zm0-15.984s-.277-.036-.684 0H24l-.02.039c-1.183.18-2.98.953-2.98 3.96 0 0 .031-2 2-2h6.504c.957 0 1.875-.382 2.55-1.062L33 2z" fill="#ffc107"/></svg>