<svg xmlns="http://www.w3.org/2000/svg" viewBox="0 0 50 50"><path d="M39.594 0H10.406C4.668 0 0 4.668 0 10.402v29.196C0 45.332 4.668 50 10.406 50h29.188C45.332 50 50 45.332 50 39.598V10.402C50 4.668 45.332 0 39.594 0zm.87 34.922l-4.538.062s-.98.188-2.266-.675c-1.695-1.141-3.297-4.106-4.547-3.723-1.05.32-1.27 1.531-1.27 2.77 0 .445-.32.644-1.163.644h-2.032c-2.746 0-5.468-.125-8.437-3.3-4.203-4.497-8.113-12.88-8.113-12.88s-.22-.457.02-.734c.269-.313.995-.273.995-.273h4.86s.457.09.789.324c.27.195.422.566.422.566s.785 1.95 1.824 3.707c2.031 3.438 2.976 4.188 3.664 3.82 1.008-.535.703-4.855.703-4.855s.02-1.566-.504-2.266c-.406-.539-1.172-.699-1.508-.742-.273-.035.172-.656.754-.937.875-.418 2.418-.442 4.246-.422 1.422.012 1.832.097 2.387.23 1.676.395 1.105 1.926 1.105 5.594 0 1.176-.218 2.828.649 3.379.375.234 1.285.031 3.558-3.754 1.083-1.793 1.891-3.902 1.891-3.902s.18-.328.453-.492c.282-.165.274-.16.66-.16.387 0 4.266-.032 5.114-.032.851 0 1.648-.012 1.785.5.2.734-.574 2.375-2.664 5.106-3.43 4.472-3.813 4.054-.965 6.644 2.723 2.473 3.285 3.676 3.379 3.824 1.129 1.832-1.25 1.977-1.25 1.977z"/></svg>