<svg xmlns="http://www.w3.org/2000/svg" viewBox="0 0 40 40"><path d="M4.434 22.305l-.176-.203C2.453 20 1.5 17.547 1.5 15 1.5 8.105 8.453 2.5 17 2.5S32.5 8.105 32.5 15 25.547 27.5 17 27.5c-2.527 0-5.043-.508-7.273-1.469l-.176-.074-6.809 2.27z" fill="#b6dcfe"/><path d="M17 3c8.27 0 15 5.383 15 12s-6.73 12-15 12c-2.46 0-4.906-.492-7.078-1.43l-.352-.148-.36.117-5.726 1.91L4.84 22.7l.148-.515-.351-.41C2.91 19.765 2 17.425 2 15 2 8.383 8.73 3 17 3m0-1C8.164 2 1 7.82 1 15c0 2.762 1.07 5.32 2.879 7.426L2 29l7.527-2.508C11.757 27.45 14.301 28 17 28c8.836 0 16-5.82 16-13S25.836 2 17 2z" fill="#4788c7"/><path d="M32.484 35.344l-.207.09A13.356 13.356 0 0 1 27 36.5c-6.34 0-11.5-4.262-11.5-9.5s5.16-9.5 11.5-9.5 11.5 4.262 11.5 9.5c0 1.672-.547 3.328-1.578 4.785l-.133.184 1.48 6.129z" fill="#dff0fe"/><path d="M27 18c6.066 0 11 4.035 11 9 0 1.566-.516 3.121-1.488 4.496l-.262.371.105.442 1.18 4.886-4.633-2.207-.406-.191-.418.176C30.488 35.653 28.778 36 27 36c-6.066 0-11-4.035-11-9s4.934-9 11-9m0-1c-6.629 0-12 4.477-12 10s5.371 10 12 10a13.83 13.83 0 0 0 5.473-1.11L39 39l-1.672-6.926C38.383 30.586 39 28.855 39 27c0-5.523-5.371-10-12-10z" fill="#4788c7"/><path d="M24 25.5a1.5 1.5 0 1 1-3 0 1.5 1.5 0 0 1 3 0zm9 0a1.5 1.5 0 1 1-3 0 1.5 1.5 0 0 1 3 0zM14 11a1.999 1.999 0 1 1-4 0 1.999 1.999 0 1 1 4 0zm10 0a1.999 1.999 0 1 1-4 0 1.999 1.999 0 1 1 4 0z" fill="#4788c7"/></svg>