<svg xmlns="http://www.w3.org/2000/svg" viewBox="0 0 80 80"><path d="M40 7C21.785 7 7 21.785 7 40c0 5.883 1.57 11.395 4.27 16.176l-5.852 18.66 19.691-5.445C29.59 71.664 34.637 73 40 73c18.215 0 33-14.785 33-33S58.215 7 40 7zm0 2c17.133 0 31 13.867 31 31S57.133 71 40 71a30.85 30.85 0 0 1-14.39-3.543l-.348-.184L8.426 71.93l5.004-15.961-.223-.38A30.838 30.838 0 0 1 9 40C9 22.867 22.867 9 40 9zm0 3c-.55 0-1 .45-1 1s.45 1 1 1 1-.45 1-1-.45-1-1-1zm5.293.516a1.003 1.003 0 0 0-1.008.808c-.105.54.246 1.067.79 1.176a1.005 1.005 0 0 0 1.175-.785 1.007 1.007 0 0 0-.785-1.18 3.355 3.355 0 0 0-.172-.02zm-10.555.004c-.066 0-.133.003-.199.015a1.001 1.001 0 0 0 .39 1.965.998.998 0 0 0 .786-1.176c-.094-.465-.5-.8-.977-.804zm-5.062 1.535a.998.998 0 0 0-.93 1.383.997.997 0 0 0 1.305.542c.512-.214.754-.796.543-1.308a1.006 1.006 0 0 0-.918-.617zm20.68 0a1.005 1.005 0 0 0-.95.617c-.21.512.032 1.094.543 1.308a.997.997 0 0 0 1.305-.543.998.998 0 0 0-.899-1.382zm-25.344 2.492a1.02 1.02 0 0 0-.57.172.999.999 0 1 0 1.113 1.66.996.996 0 0 0 .277-1.383 1 1 0 0 0-.82-.45zm30.004 0a1 1 0 0 0-.848.45.999.999 0 0 0 1.66 1.11 1 1 0 0 0 .152-.752.98.98 0 0 0-.425-.636.98.98 0 0 0-.54-.172zm-34.094 3.36c-.27 0-.531.105-.719.296a.995.995 0 0 0 0 1.41.995.995 0 0 0 1.41 0 .995.995 0 0 0 0-1.41.983.983 0 0 0-.691-.297zm38.183 0c-.27 0-.53.105-.718.296a.995.995 0 0 0 0 1.41.995.995 0 0 0 1.41 0 .995.995 0 0 0 0-1.41.983.983 0 0 0-.692-.297zM62.461 24a.995.995 0 0 0-.84 1.55.992.992 0 0 0 1.383.278A.997.997 0 0 0 62.46 24zm-44.895 0a.993.993 0 0 0-.847.441 1 1 0 0 0 .277 1.387 1 1 0 1 0 .57-1.828zm11.043.637c-.777 0-1.91.293-2.843 1.312-.63.688-3.024 3.024-3.024 7.254 0 4.371 3.035 8.246 3.422 8.762a42.404 42.404 0 0 0 3.992 4.957c2.387 2.547 5.746 5.484 9.89 7.273a47.68 47.68 0 0 0 4.595 1.696c2.082.664 3.976.566 5.422.347 1.015-.148 2.214-.672 3.374-1.414 1.165-.742 2.278-1.68 2.747-2.984v-.004c.355-1.004.539-1.938.601-2.691.035-.38.04-.711.016-1.004-.024-.297-.012-.52-.246-.907-.508-.843-1.172-.93-1.926-1.304-.399-.2-1.566-.778-2.73-1.336-1.165-.563-2.208-1.07-2.762-1.274-.387-.14-.828-.32-1.418-.254-.594.07-1.172.489-1.532 1.032-.421.632-1.98 2.484-2.421 2.992-.125.14-.114.11-.098.11.016-.005-.105.003-.414-.153-.524-.262-1.258-.52-2.313-1.082a19.758 19.758 0 0 1-3.812-2.684c-2.207-1.968-3.758-4.476-4.191-5.218v-.004c-.126-.215-.067-.118-.075-.102-.004.016.07-.105.262-.297l.004-.004c.441-.441.871-1.008 1.234-1.437.477-.555.676-1.02.926-1.516.43-.855.191-1.766-.07-2.281.008.012-.153-.356-.34-.797-.184-.438-.418-1.012-.672-1.621-.5-1.215-1.059-2.578-1.39-3.375-.372-.895-.844-1.484-1.442-1.766-.594-.277-1.121-.195-1.203-.199h-.004c-.496-.027-1.035-.027-1.559-.027zm0 2c.52 0 1.036 0 1.457.023h.008c.403.02.438.012.446.016.011.004.183.078.453.722v.004c.324.782.882 2.145 1.386 3.364.25.613.489 1.183.676 1.632.188.45.293.711.403.922v.004c.136.27.164.281.062.48-.277.555-.344.75-.656 1.118-.418.488-.864 1.055-1.13 1.324-.202.2-.53.488-.726 1.016-.191.523-.113 1.23.223 1.8.484.836 2.102 3.497 4.586 5.711A21.647 21.647 0 0 0 40 47.727c1.168.625 2.098.98 2.363 1.113.485.238.989.41 1.547.344.559-.07 1.04-.41 1.363-.782.477-.547 1.942-2.242 2.575-3.195.16-.238.113-.156.097-.152-.015.004.168.02.508.144.164.059 1.422.637 2.574 1.192 1.153.558 2.325 1.136 2.711 1.328.598.3.95.535 1.07.582.008.152.008.386-.015.672a9.13 9.13 0 0 1-.496 2.191v.004c-.192.531-.98 1.355-1.938 1.973-.957.613-2.093 1.047-2.593 1.12-1.282.192-2.82.262-4.52-.277a44.233 44.233 0 0 1-4.402-1.625h-.004c-3.77-1.629-6.957-4.382-9.23-6.808a40.473 40.473 0 0 1-2.688-3.188c-.649-.851-.961-1.336-1.156-1.597-.407-.54-3.024-4.164-3.024-7.563 0-3.531 1.688-5.012 2.5-5.906.512-.559 1.09-.66 1.367-.66zm36.344 2.031a.999.999 0 0 0-.934 1.379 1.003 1.003 0 0 0 1.852-.766 1.002 1.002 0 0 0-.918-.613zm-49.875 0a.995.995 0 0 0-.945.617 1.005 1.005 0 0 0 .539 1.309 1.002 1.002 0 0 0 1.308-.543.997.997 0 0 0-.543-1.305.943.943 0 0 0-.359-.078zm51.406 5.066a.857.857 0 0 0-.199.016c-.539.11-.89.637-.785 1.176.11.543.637.894 1.176.789.543-.11.894-.637.789-1.18a1 1 0 0 0-.98-.8zm-52.937 0a1 1 0 1 0 .953 1.192 1 1 0 0 0-.781-1.176c-.059-.008-.114-.016-.172-.016zM13 39c-.55 0-1 .45-1 1s.45 1 1 1 1-.45 1-1-.45-1-1-1zm54 0c-.55 0-1 .45-1 1s.45 1 1 1 1-.45 1-1-.45-1-1-1zm-53.477 5.266a1.001 1.001 0 1 0 .191 1.984 1.003 1.003 0 1 0-.191-1.984zm52.985 0a1.003 1.003 0 0 0-.223 1.984 1.007 1.007 0 0 0 1.18-.785 1.007 1.007 0 0 0-.79-1.18 2.73 2.73 0 0 0-.167-.02zm-1.54 5.062a1.008 1.008 0 0 0-.948.621.999.999 0 0 0 .543 1.305 1.004 1.004 0 0 0 1.308-.54 1.002 1.002 0 0 0-.902-1.386zm-49.906.004c-.132 0-.265.023-.39.074a1.006 1.006 0 0 0-.54.543c-.1.246-.1.52-.003.766a.998.998 0 0 0 1.309.539.98.98 0 0 0 .542-.54 1 1 0 0 0-.918-1.382zM62.47 54a1 1 0 1 0 .535.168.934.934 0 0 0-.535-.168zM17 56c-.55 0-1 .45-1 1s.45 1 1 1 1-.45 1-1-.45-1-1-1zm42.105 2.094a.988.988 0 0 0-.718.293.995.995 0 0 0 0 1.41.995.995 0 0 0 1.41 0 .995.995 0 0 0 0-1.41.963.963 0 0 0-.692-.293zM15 61c-.55 0-1 .45-1 1s.45 1 1 1 1-.45 1-1-.45-1-1-1zm40.012.45a1 1 0 0 0-.567.163.997.997 0 0 0-.273 1.39c.305.458.926.583 1.387.278.457-.308.582-.93.273-1.39a.983.983 0 0 0-.82-.442zM24 63c-.55 0-1 .45-1 1s.45 1 1 1 1-.45 1-1-.45-1-1-1zm5.691.941a.999.999 0 0 0-.945.621 1 1 0 1 0 1.305-.542 1.022 1.022 0 0 0-.36-.079zm20.649 0c-.133 0-.266.028-.387.079a1.006 1.006 0 0 0-.547 1.308 1.004 1.004 0 0 0 1.852 0 1 1 0 0 0 0-.766.999.999 0 0 0-.918-.62zM19 64c-.55 0-1 .45-1 1s.45 1 1 1 1-.45 1-1-.45-1-1-1zm15.762 1.48a1 1 0 1 0-.053 2.002 1 1 0 0 0 .053-2.002zm10.508.004a.808.808 0 0 0-.196.016c-.543.11-.894.633-.789 1.176a1.01 1.01 0 0 0 1.18.79c.258-.056.488-.208.637-.427a1 1 0 0 0-.832-1.555zM13 66c-.55 0-1 .45-1 1s.45 1 1 1 1-.45 1-1-.45-1-1-1zm27 0c-.55 0-1 .45-1 1s.45 1 1 1 1-.45 1-1-.45-1-1-1z"/></svg>