<svg xmlns="http://www.w3.org/2000/svg" viewBox="0 0 48 48"><path d="M22.809 24.512L19.32 36.59c-3.03-2.055-6.328-3.746-13.32-.832l3.41-11.946.04-.019c6.964-2.887 10.335-1.348 13.359.719z" fill="#03a9f4"/><path d="M24.633 25.68l-3.445 11.94c3.027 2.07 6.382 3.719 13.363.809l3.324-11.645c-7.113 2.453-10.215.945-13.242-1.105z" fill="#ffc107"/><path d="M23.387 22.336l3.441-11.965c-3.027-2.059-6.387-3.715-13.375-.797L10.012 21.59c2.773-1.152 4.968-1.684 6.804-1.664 2.79.015 4.747 1.176 6.57 2.41z" fill="#ff5722"/><path d="M28.645 11.633l-3.442 12.031c3.02 2.063 6.668 3.75 13.36.738L42 12.414c-6.98 2.902-10.336 1.274-13.355-.781z" fill="#7cb342"/></svg>