<svg xmlns="http://www.w3.org/2000/svg" viewBox="0 0 50 50"><path d="M6.223 2C3.918 2 2 3.918 2 6.223v37.562C2 46.082 3.918 48 6.223 48h37.562C46.082 48 48 46.082 48 43.785V6.223C48 3.918 46.082 2 43.785 2zm-.02 2h37.594C45.012 4 46 4.988 46 6.203v37.594A2.206 2.206 0 0 1 43.797 46H6.203A2.206 2.206 0 0 1 4 43.797V6.203C4 4.988 4.988 4 6.203 4zM34 8c-.195 0-.75.223-1 1L22.016 28c-.196.195-.196.383 0 .578L29 41c.383.73.613.988 1 1h5c.57 0 1.371-.262 1-1l-7.086-12.422c-.187-.195-.187-.383 0-.578L39.652 9c.196-.383-.27-1-.652-1zm-21.363 5c-.586 0-.805.281-.203 1.457l3.453 6.324c.187.2.187.387 0 .574L10.05 31.742c-.364.637-.063 1.242.949 1.258h5c.422-.027.793-.484 1-1l6-10.45c.188-.195.188-.382 0-.57L19 14c-.266-.578-.398-.98-1-1z" fill-rule="evenodd"/></svg>