<svg xmlns="http://www.w3.org/2000/svg" viewBox="0 0 24 24"><path d="M5.656 2L7 7v3h1V7l1.438-5H8.374l-.781 3.125H7.5L6.781 2zm5.875 2c-.469 0-.847.145-1.125.406-.277.262-.406.59-.406 1.032v2.968c0 .485.137.871.406 1.156.274.286.64.438 1.094.438.469 0 .824-.129 1.094-.406.265-.281.406-.668.406-1.156v-2.97c0-.433-.133-.788-.406-1.062C12.32 4.13 11.96 4 11.53 4zM14 4v4.906c0 .348.063.672.188.844.12.172.289.25.53.25.196 0 .419-.066.626-.188.21-.12.402-.296.594-.53V10H17V4h-1v4.406c-.098.125-.32.235-.438.313-.117.082-.203.125-.28.125-.098 0-.177-.035-.22-.094-.046-.063-.062-.176-.062-.313V4zm-2.5 1c.137 0 .293.02.375.094a.412.412 0 0 1 .125.312v3.125a.464.464 0 0 1-.125.344c-.082.09-.234.125-.375.125-.137 0-.305-.04-.375-.125A.497.497 0 0 1 11 8.531V5.406c0-.12.047-.234.125-.312.078-.074.25-.094.375-.094zM5 11c-1.102 0-2 .898-2 2v7c0 1.102.898 2 2 2h14c1.102 0 2-.898 2-2v-7c0-1.102-.898-2-2-2zm-.094 1h3.157c.07 0 .124.055.124.125v.906c0 .059-.054.125-.124.125h-.938v6.75c0 .059-.066.125-.125.125H6c-.059 0-.125-.066-.125-.125v-6.75h-.969c-.07 0-.125-.066-.125-.125v-.906c0-.07.055-.125.125-.125zM12 12h1c.059 0 .125.055.125.125v2.281c.09-.078.16-.129.25-.187.172-.09.445-.219.625-.219.36 0 .652.137.844.406.191.262.156.875.156 1.344V19c0 .805-.54 1.094-1 1.094a1.48 1.48 0 0 1-.625-.157c-.09-.039-.16-.117-.25-.187v.125c0 .059-.066.125-.125.125h-1c-.059 0-.125-.066-.125-.125v-7.75c0-.07.066-.125.125-.125zm-4 2h1c.059 0 .125.066.125.125v4.469c0 .195.066.281.156.281.13 0 .516-.254.594-.344v-4.406c0-.059.066-.125.125-.125h1c.07 0 .125.066.125.125v5.75c0 .059-.055.125-.125.125h-1c-.07 0-.125-.066-.125-.125v-.313c-.14.13-.8.532-1.156.532a.72.72 0 0 1-.625-.313c-.14-.18-.219-.43-.219-.781v-4.875c0-.059.066-.125.125-.125zm9.438 0c.511 0 .855.16 1.125.469.269.3.437.73.437 1.281V17c0 .059-.035.125-.094.125H17v1.188c0 .878 1 .855 1 .062V18c0-.059.012-.121.094-.125l.781-.031c.07 0 .125.066.125.125v.406c0 1.371-1.074 1.656-1.625 1.656-.488 0-1.438-.488-1.438-1.687V15.75c0-1.46 1.012-1.75 1.5-1.75zm.093 1a.436.436 0 0 0-.343.125c-.032.05-.063.18-.063.438V16h.781v-.438c0-.257-.054-.386-.093-.437A.435.435 0 0 0 17.53 15zm-3.968.125a.466.466 0 0 0-.282.031.566.566 0 0 0-.156.125v3.531c.07.07.137.094.188.125A.397.397 0 0 0 13.5 19c.129 0 .344-.012.344-.375v-3.063c0-.16-.035-.273-.094-.343-.035-.055-.098-.082-.188-.094z"/></svg>