<svg xmlns="http://www.w3.org/2000/svg" viewBox="0 0 16 16"><path d="M6.5 1c-.277 0-.5.223-.5.5v.781a5.51 5.51 0 0 0-1.125.469l-.555-.555a.512.512 0 0 0-.71 0L2.194 3.61a.512.512 0 0 0 0 .711l.563.555c-.2.355-.356.73-.469 1.125H1.5c-.277 0-.5.223-.5.5v2c0 .277.223.5.5.5h.781c.117.398.274.773.469 1.125l-.555.559a.507.507 0 0 0 0 .707L3.61 12.8a.505.505 0 0 0 .711 0l.555-.555a5.51 5.51 0 0 0 1.124.47v.785c0 .277.223.5.5.5h2a.503.503 0 0 0 .5-.5v-.781a5.509 5.509 0 0 0 1.125-.469l.559.55a.5.5 0 0 0 .707 0l1.41-1.41a.5.5 0 0 0 0-.706l-.559-.559A5.52 5.52 0 0 0 12.715 9h.785c.277 0 .5-.223.5-.5v-2c0-.277-.223-.5-.5-.5h-.79a5.48 5.48 0 0 0-.46-1.129l.55-.55a.505.505 0 0 0 0-.712l-1.41-1.414a.502.502 0 0 0-.706 0l-.555.555c-.352-.2-.73-.355-1.129-.473V1.5c0-.277-.223-.5-.5-.5zM7 2h1v.602c0 .238.168.441.398.492a4.34 4.34 0 0 1 1.579.656.507.507 0 0 0 .632-.066l.426-.426.707.707-.43.426a.513.513 0 0 0-.062.632c.313.465.527 1 .645 1.579.05.23.253.398.492.398H13v1h-.61a.498.498 0 0 0-.488.402 4.491 4.491 0 0 1-.66 1.567.497.497 0 0 0 .063.629l.437.437-.707.707-.437-.433a.496.496 0 0 0-.63-.063 4.42 4.42 0 0 1-1.57.66.502.502 0 0 0-.398.492V13H7v-.61a.498.498 0 0 0-.402-.488 4.491 4.491 0 0 1-1.567-.66.503.503 0 0 0-.633.067l-.433.433-.707-.707.433-.433a.503.503 0 0 0 .067-.63 4.423 4.423 0 0 1-.664-1.574A.506.506 0 0 0 2.602 8H2V7h.61a.506.506 0 0 0 .492-.398c.113-.57.343-1.098.656-1.57a.507.507 0 0 0-.063-.634l-.437-.433.707-.707.433.433c.168.168.43.196.63.067a4.423 4.423 0 0 1 1.574-.664A.506.506 0 0 0 7 2.602zm.586 3A2.514 2.514 0 0 0 5 7.414 2.514 2.514 0 0 0 7.414 10 2.514 2.514 0 0 0 10 7.586 2.514 2.514 0 0 0 7.586 5zm-.031 1A1.494 1.494 0 0 1 9 7.555 1.494 1.494 0 0 1 7.445 9 1.494 1.494 0 0 1 6 7.445 1.494 1.494 0 0 1 7.555 6z"/></svg>