<svg xmlns="http://www.w3.org/2000/svg" viewBox="0 0 24 24"><path d="M4 2c0 2.508.996 4.57 2.406 6.281 1.14 1.387 2.547 2.586 3.969 3.719C7.062 14.648 4 17.504 4 22h2c0-3.71 2.855-6.184 5.969-8.719.722.574 1.437 1.14 2.094 1.719h-1.876c-.8.7-1.582 1.3-2.28 2h6.155c.524.64.958 1.297 1.282 2H8.406c-.398.602-.71 1.3-.812 2h10.343c.047.324.063.648.063 1h2c0-2.508-.996-4.57-2.406-6.281-1.41-1.711-3.219-3.125-4.969-4.5A62.104 62.104 0 0 1 9.937 9h1.876c.8-.7 1.582-1.3 2.28-2H7.939c-.524-.64-.958-1.297-1.282-2h8.938c.398-.602.71-1.3.812-2H6.063A6.908 6.908 0 0 1 6 2zm14 0c0 3.398-2.387 5.793-5.188 8.094.102.101.274.21.376.312l1.218.906C17.406 8.915 20 6.2 20 2z"/></svg>