<svg xmlns="http://www.w3.org/2000/svg" viewBox="0 0 50 50"><path d="M8.938 1.969a2.106 2.106 0 0 0-.22.031 2.002 2.002 0 0 0-1.687 2.063c.2 6.98 2.461 11.87 5.75 15.312 2.32 2.426 5.063 4.137 7.844 5.625C13.867 28.64 7.344 33.684 7 45.969c-.031 1.105.863 2 1.969 2.031.02 0 .011.031.031.031 1.078 0 1.969-.883 2-1.968C11.328 34.27 17.871 30.816 25.5 27a2.02 2.02 0 0 0 .906-.469c7.696-3.855 16.2-8.406 16.594-22.5.031-1.105-.863-2-1.969-2.031A2.003 2.003 0 0 0 39 3.938V4H12.812c-.55.05-.957.543-.906 1.094.051.55.543.957 1.094.906h25.844c-.07.695-.164 1.367-.282 2H13.406c-.55.05-.957.543-.906 1.094.05.55.543.957 1.094.906h24.5a16.695 16.695 0 0 1-.719 2H15.812c-.55.05-.957.543-.906 1.094.051.55.543.957 1.094.906h20.344a15.51 15.51 0 0 1-1.469 2H19.219c-.551.05-.957.543-.907 1.094.051.55.543.957 1.094.906h13.438a25.421 25.421 0 0 1-2.782 2h-5.249c-.551.05-.958.543-.907 1.094.051.55.543.957 1.094.906h1.469c-.48.25-.977.504-1.469.75-3.559-1.793-6.895-3.594-9.344-6.156-2.66-2.782-4.476-6.422-4.656-12.625a1.997 1.997 0 0 0-2.063-2zm22.5 24.187c-1.176.668-2.348 1.262-3.5 1.844h-3.625a.668.668 0 0 0-.125 0h-.094a1.005 1.005 0 1 0 .218 2h5.72c.984.629 1.929 1.29 2.78 2h-14a.668.668 0 0 0-.125 0h-.093a1.005 1.005 0 1 0 .218 2h16.063c.54.621 1.023 1.281 1.469 2H15.406c-.55.05-.957.543-.906 1.094.05.55.543.957 1.094.906h21.812c.27.625.512 1.297.719 2H13.406c-.55.05-.957.543-.906 1.094.05.55.543.957 1.094.906h24.968c.118.633.211 1.305.282 2H12.812c-.55.05-.957.543-.906 1.094.051.55.543.957 1.094.906h26v.031c.031 1.086.89 1.969 1.969 1.969.02 0 .043-.031.062-.031a1.973 1.973 0 0 0 1.938-2.032c-.328-11.394-5.973-16.41-11.532-19.78z"/></svg>