<svg xmlns="http://www.w3.org/2000/svg" viewBox="0 0 40 40"><path d="M25.5 31.5a3.474 3.474 0 0 1-2.773-1.39l-.086-.114-.133-.05C19.215 28.702 17 25.511 17 22v-9.785h17V22c0 3.512-2.215 6.703-5.508 7.945l-.133.051-.086.113c-.675.883-1.683 1.391-2.773 1.391z" fill="#fff"/><path d="M33.5 12.715V22c0 3.305-2.082 6.309-5.184 7.48l-.265.098-.176.23A2.975 2.975 0 0 1 25.5 31c-.93 0-1.797-.434-2.375-1.191l-.176-.23-.265-.099C19.582 28.31 17.5 25.305 17.5 22v-9.285h16m1-1h-18V22c0 3.852 2.426 7.133 5.828 8.414.735.957 1.875 1.586 3.172 1.586 1.297 0 2.438-.629 3.172-1.586C32.074 29.133 34.5 25.852 34.5 22z" fill="#4788c7"/><path d="M34.29 30.02c-2.036 0-3.509-.532-4.282-.903C31.289 28.09 34 25.437 34 21.371v-3.183c0-3.036-3.098-6.61-3.23-6.758l-.114-.13h.008c.7-.058 1.363-.113 1.945-.113 1.7 0 2.996.282 2.996 3.836 0 8.27 2.055 12 2.778 13.055a5.188 5.188 0 0 1-4.094 1.942zm-16.763 0c-2.629 0-3.988-1.395-4.43-1.961.59-1.036 2.298-4.754 2.298-13.04 0-2.707 1.73-3.761 6.171-3.761.98 0 2 .043 3.082.09 1.086.047 2.211.093 3.297.093.742 0 1.461-.043 2.125-.097l-.09.133c-.02.03-2.183 3.117-7.609 3.863C19.785 15.7 17 17.59 17 20.898l1 .067-1-.02v.426c0 4.098 2.945 6.828 4.398 7.93-.851.308-2.28.719-3.87.719z" fill="#b6dcfe"/><path d="M32.61 11.684c1.34 0 2.495 0 2.495 3.336 0 7.668 1.77 11.55 2.657 13.011a4.705 4.705 0 0 1-3.473 1.489 9.953 9.953 0 0 1-3.34-.555c1.446-1.336 3.551-3.91 3.551-7.594v-3.183c0-2.481-1.906-5.25-2.844-6.465.336-.024.657-.04.953-.04m-11.043.075c.97 0 1.985.043 3.059.09 1.094.047 2.223.093 3.32.093.332 0 .657-.007.977-.02-.953.915-3.02 2.43-6.617 2.927-2.797.386-5.805 2.441-5.805 6.05v.477c0 3.695 2.266 6.332 3.871 7.734-.773.22-1.77.414-2.844.414-2.101 0-3.3-.957-3.832-1.53.723-1.43 2.2-5.29 2.2-12.97 0-1.675.742-2.27 1.39-2.601 1.168-.598 3-.664 4.281-.664m11.043-1.074c-1.304 0-2.902.257-4.66.257-2.129 0-4.37-.183-6.383-.183-3.726 0-6.671.633-6.671 4.262 0 9.746-2.395 13.054-2.395 13.054s1.422 2.446 5.027 2.446c2.696 0 4.91-1.11 4.91-1.11S17.5 26.47 17.5 21.371v-.473c0-3 2.488-4.722 4.941-5.058 5.743-.793 7.954-4.082 7.954-4.082s3.105 3.55 3.105 6.43v3.187c0 5-4.414 7.8-4.414 7.8s1.894 1.348 5.203 1.348c3.207 0 4.711-2.449 4.711-2.449s-2.895-3.304-2.895-13.05c0-3.649-1.355-4.34-3.496-4.34z" fill="#4788c7"/><path d="M15 14.7V13c0-5.79 4.71-10.5 10.5-10.5S36 7.21 36 13v1.7z" fill="#98ccfd"/><path d="M25.5 3c5.516 0 10 4.484 10 10v1.2h-20V13c0-5.516 4.484-10 10-10m0-1c-6.074 0-11 4.926-11 11v2.2h22V13c0-6.074-4.926-11-11-11z" fill="#4788c7"/><path d="M24 1.5h3v9h-3z" fill="#98ccfd"/><path d="M26.5 2v8h-2V2h2m1-1h-4v10h4z" fill="#4788c7"/><path d="M14 15.5V15c0-1.379 1.121-2.5 2.5-2.5h18c1.379 0 2.5 1.121 2.5 2.5v.5z" fill="#98ccfd"/><path d="M34.5 13c1.102 0 2 .898 2 2h-22c0-1.102.898-2 2-2h18m0-1h-18a3 3 0 0 0-3 3v1h24v-1a3 3 0 0 0-3-3z" fill="#4788c7"/><path d="M24.5 6h2v7h-2z" fill="#98ccfd"/><path d="M17.5 11h16v3.816h-16z" fill="#98ccfd"/><path d="M31.5 19.5a1.5 1.5 0 1 1-3 0 1.5 1.5 0 0 1 3 0z" fill="#4788c7"/><path d="M14 38.5a3.474 3.474 0 0 1-2.773-1.39l-.086-.114-.133-.05C7.715 35.702 5.5 32.511 5.5 29v-9.785h17V29c0 3.512-2.215 6.703-5.508 7.945l-.133.051-.086.113C16.098 37.992 15.09 38.5 14 38.5z" fill="#fff"/><path d="M22 19.715V29c0 3.305-2.082 6.309-5.184 7.48l-.265.098-.176.23A2.975 2.975 0 0 1 14 38c-.93 0-1.797-.434-2.375-1.191l-.176-.23-.265-.099C8.082 35.31 6 32.305 6 29v-9.285h16m1-1H5V29c0 3.852 2.426 7.133 5.828 8.414C11.563 38.371 12.703 39 14 39c1.297 0 2.438-.629 3.172-1.586C20.574 36.133 23 32.852 23 29z" fill="#4788c7"/><path d="M22.79 37.02c-2.036 0-3.509-.532-4.282-.903 1.281-1.027 3.992-3.68 3.992-7.746v-3.183c0-3.036-3.098-6.61-3.23-6.758l-.114-.13h.008c.7-.058 1.363-.113 1.945-.113 1.7 0 2.996.282 2.996 3.836 0 8.27 2.055 12 2.778 13.055a5.188 5.188 0 0 1-4.094 1.942zm-16.763 0c-2.629 0-3.988-1.395-4.43-1.961.59-1.036 2.298-4.754 2.298-13.04 0-2.706 1.73-3.761 6.171-3.761.98 0 2 .043 3.082.09 1.086.047 2.211.093 3.297.093.742 0 1.461-.043 2.125-.097l-.09.133c-.02.03-2.183 3.117-7.609 3.863-2.586.36-5.371 2.25-5.371 5.558l1 .067-1-.02v.426c0 4.098 2.945 6.828 4.398 7.93-.851.308-2.28.719-3.87.719z" fill="#b6dcfe"/><path d="M21.11 18.684c1.34 0 2.495 0 2.495 3.336 0 7.668 1.77 11.55 2.657 13.011a4.705 4.705 0 0 1-3.473 1.489 9.953 9.953 0 0 1-3.34-.555C20.895 34.629 23 32.055 23 28.37v-3.183c0-2.477-1.906-5.25-2.848-6.465.34-.024.66-.04.957-.04m-11.043.075c.97 0 1.985.043 3.059.09 1.094.047 2.223.093 3.32.093.332 0 .657-.007.977-.02-.953.915-3.02 2.43-6.617 2.927C8.008 22.23 5 24.289 5 27.898v.473c0 3.7 2.266 6.336 3.871 7.738-.773.22-1.77.414-2.844.414-2.101 0-3.3-.957-3.832-1.53.723-1.43 2.2-5.294 2.2-12.97 0-1.68.742-2.273 1.39-2.601 1.168-.598 3.004-.664 4.281-.664m11.043-1.074c-1.304 0-2.902.257-4.66.257-2.129 0-4.37-.183-6.383-.183-3.726 0-6.671.633-6.671 4.262C3.395 31.766 1 35.074 1 35.074s1.422 2.446 5.027 2.446c2.696 0 4.91-1.11 4.91-1.11S6 33.47 6 28.371v-.473c0-3 2.488-4.722 4.941-5.058 5.743-.793 7.954-4.082 7.954-4.082S22 22.308 22 25.188v3.183c0 5-4.414 7.8-4.414 7.8s1.894 1.349 5.203 1.349c3.207 0 4.711-2.446 4.711-2.446s-2.895-3.308-2.895-13.054c0-3.645-1.355-4.336-3.496-4.336z" fill="#4788c7"/><path d="M3.5 21.7V20C3.5 14.21 8.21 9.5 14 9.5S24.5 14.21 24.5 20v1.7z" fill="#98ccfd"/><path d="M14 10c5.516 0 10 4.484 10 10v1.2H4V20c0-5.516 4.484-10 10-10m0-1C7.926 9 3 13.926 3 20v2.2h22V20c0-6.074-4.926-11-11-11z" fill="#4788c7"/><path d="M12.5 8.5h3v9h-3z" fill="#98ccfd"/><path d="M15 9v8h-2V9h2m1-1h-4v10h4z" fill="#4788c7"/><path d="M2.5 22.5V22c0-1.379 1.121-2.5 2.5-2.5h18c1.379 0 2.5 1.121 2.5 2.5v.5z" fill="#98ccfd"/><path d="M23 20c1.102 0 2 .898 2 2H3c0-1.102.898-2 2-2h18m0-1H5a3 3 0 0 0-3 3v1h24v-1a3 3 0 0 0-3-3z" fill="#4788c7"/><path d="M13 13h2v7h-2z" fill="#98ccfd"/><path d="M6 18h16v3.816H6z" fill="#98ccfd"/><path d="M20 26.5a1.5 1.5 0 1 1-3 0 1.5 1.5 0 0 1 3 0zm-9 0a1.5 1.5 0 1 1-3 0 1.5 1.5 0 0 1 3 0z" fill="#4788c7"/></svg>