<svg xmlns="http://www.w3.org/2000/svg" viewBox="0 0 40 40"><path d="M25.5 31.5a3.468 3.468 0 0 1-2.772-1.389l-.087-.114-.134-.05C19.213 28.705 17 25.512 17 22v-9.786h17V22c0 3.512-2.213 6.705-5.507 7.947l-.134.05-.087.114A3.468 3.468 0 0 1 25.5 31.5z" fill="#f5ce85"/><path d="M33.5 12.714V22c0 3.305-2.083 6.31-5.183 7.479l-.268.101-.174.228C27.297 30.566 26.431 31 25.5 31s-1.797-.434-2.375-1.192l-.174-.228-.268-.101C19.583 28.31 17.5 25.305 17.5 22v-9.286h16m1-1h-18V22c0 3.853 2.426 7.131 5.83 8.415.731.957 1.872 1.585 3.17 1.585s2.439-.628 3.17-1.585c3.404-1.283 5.83-4.562 5.83-8.415V11.714z" fill="#967a44"/><path d="M34.289 30.021c-2.037 0-3.506-.533-4.283-.904C31.291 28.088 34 25.438 34 21.373v-3.185c0-3.034-3.098-6.608-3.229-6.759l-.113-.13h.006c.701-.058 1.362-.113 1.946-.113 1.697 0 2.996.282 2.996 3.836 0 8.271 2.054 12.002 2.775 13.058a5.196 5.196 0 0 1-4.092 1.941zm-16.763 0c-2.629 0-3.986-1.397-4.429-1.964.589-1.035 2.297-4.752 2.297-13.036 0-2.709 1.73-3.764 6.172-3.764.982 0 2.002.044 3.082.09a77.15 77.15 0 0 0 3.299.095c.74 0 1.459-.045 2.123-.097l-.09.132c-.021.031-2.183 3.115-7.608 3.864C19.785 15.699 17 17.59 17 20.898l1 .067-1-.019v.426c0 4.095 2.944 6.829 4.397 7.928-.851.31-2.281.721-3.871.721z" fill="#a6714e"/><path d="M32.61 11.685c1.339 0 2.496 0 2.496 3.336 0 7.668 1.77 11.55 2.655 13.011a4.701 4.701 0 0 1-3.471 1.489 9.902 9.902 0 0 1-3.342-.558c1.447-1.335 3.553-3.91 3.553-7.591v-3.185c0-2.479-1.906-5.25-2.846-6.465.337-.022.658-.037.955-.037m-11.044.072c.971 0 1.985.044 3.06.09 1.092.047 2.222.096 3.321.096.331 0 .656-.009.975-.023-.953.917-3.019 2.43-6.618 2.927-2.795.386-5.804 2.444-5.804 6.052v.475c0 3.697 2.267 6.333 3.872 7.736-.776.218-1.77.413-2.846.413-2.1 0-3.299-.955-3.83-1.529.723-1.431 2.198-5.292 2.198-12.971 0-1.677.744-2.271 1.392-2.602 1.167-.596 3.002-.664 4.28-.664m11.044-1.072c-1.306 0-2.903.257-4.662.257-2.127 0-4.368-.186-6.381-.186-3.726 0-6.672.636-6.672 4.264 0 9.746-2.395 13.053-2.395 13.053s1.42 2.447 5.026 2.447c2.695 0 4.911-1.109 4.911-1.109S17.5 26.47 17.5 21.373v-.474c0-3 2.487-4.722 4.941-5.061 5.742-.793 7.954-4.079 7.954-4.079s3.105 3.549 3.105 6.43v3.185c0 5.001-4.416 7.8-4.416 7.8s1.897 1.348 5.206 1.348c3.208 0 4.711-2.447 4.711-2.447s-2.895-3.306-2.895-13.053c-.001-3.646-1.357-4.337-3.496-4.337z" fill="#7a4f34"/><path d="M15 14.7V13c0-5.79 4.71-10.5 10.5-10.5S36 7.21 36 13v1.7H15z" fill="#8bb7f0"/><path d="M25.5 3c5.514 0 10 4.486 10 10v1.2h-20V13c0-5.514 4.486-10 10-10m0-1c-6.075 0-11 4.925-11 11v2.2h22V13c0-6.075-4.925-11-11-11z" fill="#4e7ab5"/><rect x="24" y="1.5" width="3" height="9" fill="#8bb7f0"/><path d="M26.5 2v8h-2V2h2m1-1h-4v10h4V1z" fill="#4e7ab5"/><path d="M14 15.5V15c0-1.379 1.121-2.5 2.5-2.5h18c1.379 0 2.5 1.121 2.5 2.5v.5H14z" fill="#8bb7f0"/><path d="M34.5 13c1.103 0 2 .897 2 2h-22c0-1.103.897-2 2-2h18m0-1h-18a3 3 0 0 0-3 3v1h24v-1a3 3 0 0 0-3-3z" fill="#4e7ab5"/><rect x="24.5" y="6" width="2" height="7" fill="#8bb7f0"/><rect x="17.5" y="11" width="16" height="3.818" fill="#8bb7f0"/><circle cx="30" cy="19.5" r="1.5" fill="#36404d"/><circle cx="21" cy="19.5" r="1.5" fill="#36404d"/><path d="M14 38.5a3.468 3.468 0 0 1-2.772-1.389l-.087-.114-.134-.05C7.713 35.705 5.5 32.512 5.5 29v-9.786h17V29c0 3.512-2.213 6.705-5.507 7.947l-.134.05-.087.114A3.468 3.468 0 0 1 14 38.5z" fill="#f5ce85"/><path d="M22 19.714V29c0 3.305-2.083 6.31-5.183 7.479l-.268.101-.174.228C15.797 37.566 14.931 38 14 38s-1.797-.434-2.375-1.192l-.174-.228-.268-.101C8.083 35.31 6 32.305 6 29v-9.286h16m1-1H5V29c0 3.853 2.426 7.131 5.83 8.415C11.561 38.372 12.702 39 14 39s2.439-.628 3.17-1.585C20.574 36.131 23 32.853 23 29V18.714z" fill="#967a44"/><path d="M22.789 37.021c-2.037 0-3.506-.533-4.283-.904 1.285-1.028 3.994-3.679 3.994-7.744v-3.185c0-3.034-3.098-6.608-3.229-6.759l-.113-.13h.006c.701-.058 1.362-.113 1.946-.113 1.697 0 2.996.282 2.996 3.836 0 8.271 2.054 12.002 2.775 13.058a5.196 5.196 0 0 1-4.092 1.941zm-16.763 0c-2.629 0-3.986-1.397-4.429-1.964.589-1.035 2.297-4.752 2.297-13.036 0-2.709 1.73-3.764 6.172-3.764.982 0 2.002.044 3.082.09a77.15 77.15 0 0 0 3.299.095c.74 0 1.459-.045 2.123-.097l-.09.132c-.021.031-2.183 3.115-7.608 3.864-2.587.358-5.372 2.249-5.372 5.557l1 .067-1-.019v.426c0 4.095 2.944 6.829 4.397 7.928-.851.31-2.281.721-3.871.721z" fill="#a6714e"/><path d="M21.11 18.685c1.339 0 2.496 0 2.496 3.336 0 7.668 1.77 11.55 2.655 13.011a4.701 4.701 0 0 1-3.471 1.489 9.902 9.902 0 0 1-3.342-.558c1.446-1.335 3.552-3.91 3.552-7.59v-3.185c0-2.479-1.906-5.25-2.846-6.465.338-.023.659-.038.956-.038m-11.044.072c.971 0 1.985.044 3.06.09 1.092.047 2.222.096 3.321.096.331 0 .656-.009.975-.023-.953.917-3.019 2.43-6.618 2.927C8.009 22.232 5 24.291 5 27.898v.475c0 3.697 2.267 6.333 3.872 7.736-.776.218-1.77.413-2.846.413-2.1 0-3.299-.955-3.83-1.529.723-1.431 2.198-5.292 2.198-12.971 0-1.677.744-2.271 1.392-2.602 1.167-.595 3.002-.663 4.28-.663m11.044-1.072c-1.306 0-2.903.257-4.662.257-2.127 0-4.368-.186-6.381-.186-3.726 0-6.672.636-6.672 4.264C3.395 31.767 1 35.074 1 35.074s1.42 2.447 5.026 2.447c2.695 0 4.911-1.109 4.911-1.109S6 33.47 6 28.373v-.474c0-3 2.487-4.722 4.941-5.061 5.742-.793 7.954-4.079 7.954-4.079S22 22.307 22 25.187v3.185c0 5.001-4.416 7.8-4.416 7.8s1.897 1.348 5.206 1.348c3.208 0 4.711-2.447 4.711-2.447s-2.895-3.306-2.895-13.053c-.001-3.644-1.357-4.335-3.496-4.335z" fill="#7a4f34"/><path d="M3.5 21.7V20C3.5 14.21 8.21 9.5 14 9.5S24.5 14.21 24.5 20v1.7h-21z" fill="#8bb7f0"/><path d="M14 10c5.514 0 10 4.486 10 10v1.2H4V20c0-5.514 4.486-10 10-10m0-1C7.925 9 3 13.925 3 20v2.2h22V20c0-6.075-4.925-11-11-11z" fill="#4e7ab5"/><rect x="12.5" y="8.5" width="3" height="9" fill="#8bb7f0"/><path d="M15 9v8h-2V9h2m1-1h-4v10h4V8z" fill="#4e7ab5"/><path d="M2.5 22.5V22c0-1.379 1.121-2.5 2.5-2.5h18c1.379 0 2.5 1.121 2.5 2.5v.5h-23z" fill="#8bb7f0"/><path d="M23 20c1.103 0 2 .897 2 2H3c0-1.103.897-2 2-2h18m0-1H5a3 3 0 0 0-3 3v1h24v-1a3 3 0 0 0-3-3z" fill="#4e7ab5"/><rect x="13" y="13" width="2" height="7" fill="#8bb7f0"/><rect x="6" y="18" width="16" height="3.818" fill="#8bb7f0"/><circle cx="18.5" cy="26.5" r="1.5" fill="#36404d"/><circle cx="9.5" cy="26.5" r="1.5" fill="#36404d"/></svg>