<svg xmlns="http://www.w3.org/2000/svg" viewBox="0 0 24 24"><path d="M11.25 2c-.352 0-.75.418-.75.781v2.344l-.75-1.563s-3 .731-3 4.657c0 0-.75.078-.75 1.562 0 0 .23.106.781.25.828-1.207 1.965-1.812 2.719-2 .11-.84.914-1.594 1.75-1.594h1.5c.836 0 1.64.754 1.75 1.594.754.188 1.89.797 2.719 2 .55-.144.781-.25.781-.25 0-1.484-.75-1.562-.75-1.562 0-3.926-3-4.656-3-4.656l-.75 1.562V2.781c0-.363-.398-.781-.75-.781zm0 5.438c-.352 0-.75.417-.75.78v2.345L9.75 9s-3 .73-3 4.656c0 0-.75.078-.75 1.563 0 0 1.582.781 6 .781s6-.781 6-.781c0-1.485-.75-1.563-.75-1.563 0-3.926-3-4.656-3-4.656l-.75 1.563V8.219c0-.364-.398-.781-.75-.781zM6.906 16.53c-.183.649-.265 1.403-.218 2.25-.012.172-.032.352-.032.532 0 .113.024.226.032.343-.418.32-.688.836-.688 1.407 0 .355.105.66.281.937H8.5c-.02-.05-.016-.105-.031-.156l-.25-.532-.563.094c-.183 0-.312-.152-.312-.343 0-.176.101-.305.218-.344l.532-.157-.063-.593A6.249 6.249 0 0 1 8 19.312c0-.304.016-.609.063-.875.742-.625 1.335-.175 2.187-1.468-1.504-.078-2.598-.27-3.344-.438zm10.157 0c-1.013.228-2.625.47-5.063.47-.523 0-.988-.012-1.438-.031 1.114 1.558 3.665.554 5.25 1.031.122.387.188.824.188 1.313 0 .222-.008.425-.031.656l-.063.593.531.157c.118.039.22.168.22.343 0 .192-.141.336-.376.344l-.562-.093-.188.53c-.015.052-.011.106-.031.157h2.219a1.74 1.74 0 0 0 .281-.938c0-.57-.27-1.085-.688-1.406.008-.117.032-.23.032-.343 0-.16-.02-.317-.032-.47a7.321 7.321 0 0 0-.25-2.312z"/></svg>