<svg xmlns="http://www.w3.org/2000/svg" viewBox="0 0 48 48"><path d="M27 16.25h12v13.5H27z" fill="#3e2723"/><path d="M36.75 29l-3.75.77-3.75-.77S21 30.527 21 39h24c0-8.441-8.25-10-8.25-10" fill="#00695c"/><path d="M33 34l-4-5v-4h8v4z" fill="#ff9800"/><path d="M40 21c0 3.727-3.273 7-7 7-3.73 0-7-3.273-7-7v-6c0-3.727 14-5.727 14 0z" fill="#ffb74d"/><path d="M35 20c0-.55.45-1 1-1s1 .45 1 1-.45 1-1 1-1-.45-1-1m-6 0c0 .55.45 1 1 1s1-.45 1-1-.45-1-1-1-1 .45-1 1" fill="#784719"/><path d="M24 16c-1.918 2.457-2 5.676-2 10l5 4V19l9-5 3 4v12l5-4c0-1.605.168-7.832-2-10-2.246-2.246-14.11-4.988-18 0z" fill="#4e342e"/><path d="M39.996 14c0-.023.004-.043.004-.066V13c0-3.867-3.133-7-7-7s-7 3.133-7 7v.934c0 .023.004.043.004.066H24v2h18v-2z" fill="#ff5722"/><path d="M31 5h4v9h-4z" fill="#d84315"/><path d="M9 20.25h12v13.5H9z" fill="#4e342e"/><path d="M38 29.36V36H28v-6.664c-.707.215-2.105.883-3 1.574V39h16v-8.074c-1.172-.848-2.29-1.352-3-1.567z" fill="#ffa000"/><path d="M28 36h-3v-2h3zm13-2h-3v2h3z" fill="#263238"/><path d="M18.75 33l-3.75.77-3.75-.77S3 34.527 3 43h24c0-8.441-8.25-10-8.25-10" fill="#00897b"/><path d="M15 38l-4-5v-4h8v4z" fill="#ff9800"/><path d="M20 33.36V40H10v-6.664c-.707.215-2.105.883-3 1.574V43h16v-8.074c-1.172-.848-2.29-1.352-3-1.567z" fill="#f9a825"/><path d="M10 40H7v-2h3zm13-2h-3v2h3z" fill="#263238"/><path d="M22 25c0 3.727-3.273 7-7 7-3.73 0-7-3.273-7-7v-6c0-3.727 14-5.727 14 0z" fill="#ffb74d"/><path d="M17 24c0-.55.45-1 1-1s1 .45 1 1-.45 1-1 1-1-.45-1-1m-6 0c0 .55.45 1 1 1s1-.45 1-1-.45-1-1-1-1 .45-1 1" fill="#784719"/><path d="M6 20c-1.918 2.457-2 5.676-2 10l5 4V23l9-5 3 4v12l5-4c0-1.605.168-7.832-2-10-2.246-2.246-14.11-4.988-18 0z" fill="#795548"/><path d="M21.996 18c0-.023.004-.043.004-.066V17c0-3.867-3.133-7-7-7s-7 3.133-7 7v.934c0 .023.004.043.004.066H6v2h18v-2z" fill="#ff5722"/><path d="M13 9h4v9h-4z" fill="#d84315"/></svg>