<svg xmlns="http://www.w3.org/2000/svg" viewBox="0 0 40 40"><path d="M1.5 38.5V20.27l11-7.336v6.976l11-7v6.59h11l-.035 19z" fill="#b6dcfe"/><path d="M23 13.82V20h10.996l-.031 18H2V20.535l10-6.668v6.953l1.535-.976L23 13.82M24 12l-11 7v-7L1 20v19h33.965L35 19H24z" fill="#4788c7"/><path d="M28.527 38.5l1.95-37h6.05l1.98 37z" fill="#dff0fe"/><path d="M36.05 2l1.93 36h-8.925l1.894-36h5.102M37 1h-7l-2 38h11.035z" fill="#4788c7"/><path d="M5 24h4v4H5zm7 0h4v4h-4zm-7 7h4v4H5zm7 0h4v4h-4zm7-7h4v4h-4zm0 7h4v4h-4z" fill="#fff"/></svg>