<svg xmlns="http://www.w3.org/2000/svg" viewBox="0 0 40 40"><path d="M20 38.5c-1.27 0-2.445-.527-3.316-1.484l-.082-.09-.118-.043A10.514 10.514 0 0 1 9.5 27V12.383a4.75 4.75 0 0 1 4.742-4.746h11.516a4.75 4.75 0 0 1 4.742 4.746V27c0 4.426-2.805 8.395-6.98 9.883l-.122.043-.082.09c-.87.957-2.046 1.484-3.316 1.484z" fill="#fff"/><path d="M25.758 8.14A4.246 4.246 0 0 1 30 12.384V27a10.01 10.01 0 0 1-6.648 9.41l-.239.086-.168.184a3.944 3.944 0 0 1-5.89 0l-.168-.184-.239-.086A10.01 10.01 0 0 1 10 27V12.383a4.246 4.246 0 0 1 4.242-4.242h11.516m0-1H14.242A5.24 5.24 0 0 0 9 12.383V27c0 4.781 3.055 8.836 7.316 10.355A4.966 4.966 0 0 0 20 39c1.465 0 2.77-.64 3.684-1.645C27.945 35.835 31 31.781 31 27V12.383a5.24 5.24 0 0 0-5.242-5.242z" fill="#4788c7"/><path d="M32 37.5c-2.785 0-5.36-1-6.594-1.566 1.598-1.121 5.094-4.141 5.094-9.149v-3.902c0-3.688-3.965-8.04-4.133-8.223l-.293-.316.246-.024c.86-.07 1.676-.136 2.395-.136 2.07 0 3.785.363 3.785 4.816 0 10.23 4.285 14.785 5.746 16.04-.844.769-3.062 2.46-6.246 2.46zm-23 0c-3.727 0-6.266-1.707-7.219-2.48C3.266 33.73 7.5 29.172 7.5 19c0-3.922 3.07-4.727 7.68-4.727 1.203 0 2.457.055 3.78.11 1.33.058 2.708.117 4.04.117.988 0 1.95-.066 2.828-.137l-.242.356c-.027.039-2.695 3.86-9.402 4.785-3.22.445-6.684 2.73-6.684 6.7l1 .081-1-.023v.523c0 5.074 3.832 8.211 5.621 9.399C13.781 36.68 11.223 37.5 9 37.5z" fill="#b6dcfe"/><path d="M28.715 14.684c1.984 0 3.285.3 3.285 4.316 0 9.55 3.703 14.293 5.496 16.031C36.516 35.816 34.61 37 32 37c-2.203 0-4.273-.648-5.605-1.188C28.21 34.352 31 31.364 31 26.785v-3.902c0-3.227-2.828-6.875-3.883-8.121.57-.043 1.11-.078 1.598-.078m-13.535.09c1.191 0 2.437.054 3.758.109C20.273 14.94 21.655 15 23 15c.602 0 1.191-.023 1.762-.059-.95 1.04-3.578 3.368-8.649 4.067C12.688 19.484 9 21.938 9 26.203v.582c0 4.63 3.035 7.711 5.05 9.246-1.374.453-3.323.969-5.05.969a11.222 11.222 0 0 1-6.445-2.02C4.367 33.203 8 28.46 8 19c0-1.7.563-2.746 1.828-3.39 1.137-.579 2.785-.837 5.352-.837m13.535-1.09c-1.602 0-3.559.317-5.715.317-2.605 0-5.355-.227-7.82-.227-4.57 0-8.18.778-8.18 5.227 0 11.945-6 16-6 16s2.926 3 8 3c3.305 0 7.246-1.719 7.246-1.719S10 33.035 10 26.785v-.582c0-3.676 3.242-5.789 6.25-6.203 7.04-.973 9.75-5 9.75-5s4 4.352 4 7.883v3.902c0 6.13-5.605 9.203-5.605 9.203S27.945 38 32 38c4.39 0 7-3 7-3s-6-4.055-6-16c0-4.469-1.664-5.316-4.285-5.316z" fill="#4788c7"/><path d="M27 23.5a1.5 1.5 0 1 1-3 0 1.5 1.5 0 0 1 3 0zm-11 0a1.5 1.5 0 1 1-3 0 1.5 1.5 0 0 1 3 0z" fill="#4788c7"/><path d="M7.5 17.102V15C7.5 8.105 13.105 2.5 20 2.5S32.5 8.105 32.5 15v2.102z" fill="#98ccfd"/><path d="M20 3c6.617 0 12 5.383 12 12v1.602H8V15C8 8.383 13.383 3 20 3m0-1C12.82 2 7 7.82 7 15v2.602h26V15c0-7.18-5.82-13-13-13z" fill="#4788c7"/><path d="M17.5 1.5h5v9.855h-5z" fill="#98ccfd"/><path d="M22 2v8.855h-4V2h4m1-1h-6v10.855h6z" fill="#4788c7"/><path d="M5.5 19.5V18c0-1.379 1.121-2.5 2.5-2.5h24c1.379 0 2.5 1.121 2.5 2.5v1.5z" fill="#98ccfd"/><path d="M32 16c1.102 0 2 .898 2 2v1H6v-1c0-1.102.898-2 2-2h24m0-1H8a3 3 0 0 0-3 3v2h30v-2a3 3 0 0 0-3-3z" fill="#4788c7"/><path d="M22 9h-4l-.215 5.43h4.418z" fill="#98ccfd"/><path d="M10.5 13.215h19v4.07h-19z" fill="#98ccfd"/></svg>