<svg xmlns="http://www.w3.org/2000/svg" viewBox="0 0 40 40"><path d="M18 5C12.059 5 8 9.059 8 15v5" fill="none" stroke-width="2" stroke-linecap="round" stroke="#4788c7" stroke-miterlimit="10"/><path d="M13.5 38.5V22c0-7.605 4.809-12.602 4.855-12.648l.145-.149V7.5h5v1.703l.145.149C23.69 9.398 28.5 14.395 28.5 22v16.5z" fill="#b6dcfe"/><path d="M23 8v1.406l.285.293C23.332 9.746 28 14.613 28 22v16H14V22c0-7.387 4.668-12.254 4.715-12.3L19 9.41V8h4m1-1h-6v2s-5 5.086-5 13v17h16V22c0-7.914-5-13-5-13z" fill="#4788c7"/><path d="M18 22h6v11h-6z" fill="#fff"/><path d="M23.5 6.676V4.324l8-3.554v9.46z" fill="#dff0fe"/><path d="M31 1.54v7.92l-7-3.108V4.648l7-3.109M32 0l-9 4v3l9 4z" fill="#4788c7"/><path d="M18.5 2.5h5v6h-5z" fill="#98ccfd"/><path d="M23 3v5h-4V3h4m1-1h-6v7h6z" fill="#4788c7"/></svg>