<svg xmlns="http://www.w3.org/2000/svg" viewBox="0 0 40 40"><path d="M19.071 5.5h-5.349a5 5 0 0 0-4.258 2.38L5.5 14.321" fill="none" stroke="#8b75a1" stroke-miterlimit="10"/><rect x="21.5" y="4.5" width="5" height="3" fill="#dcd5f2"/><path d="M26 5v2h-4V5h4m1-1h-6v4h6V4z" fill="#8b75a1"/><polygon points="25.5,7.653 25.5,4.347 32.5,1.722 32.5,10.278" fill="#b0c1d4"/><path d="M32 2.443v7.114l-6-2.25V4.693l6-2.25M33 1l-8 3v4l8 3V1z" fill="#66798f"/><path d="M13 38.5a2.502 2.502 0 0 1-2.5-2.5V18.778c0-1.609.505-3.147 1.46-4.446L16.253 8.5h7.494l4.294 5.833a7.459 7.459 0 0 1 1.459 4.445V36c0 1.379-1.121 2.5-2.5 2.5H13z" fill="#f78f8f"/><path d="M23.494 9l4.143 5.629A6.95 6.95 0 0 1 29 18.779V36c0 1.103-.897 2-2 2H13c-1.103 0-2-.897-2-2V18.779c0-1.504.471-2.938 1.362-4.149L16.506 9h6.988M24 8h-8l-4.443 6.036A8.006 8.006 0 0 0 10 18.779V36a3 3 0 0 0 3 3h14a3 3 0 0 0 3-3V18.779a8.003 8.003 0 0 0-1.557-4.742L24 8z" fill="#c74343"/><path d="M16.5 8.5V5c0-1.379 1.121-2.5 2.5-2.5h2c1.379 0 2.5 1.121 2.5 2.5v3.5h-7z" fill="#f78f8f"/><path d="M21 3c1.103 0 2 .897 2 2v3h-6V5c0-1.103.897-2 2-2h2m0-1h-2a3 3 0 0 0-3 3v4h8V5a3 3 0 0 0-3-3z" fill="#c74343"/><rect x="15" y="24" width="10" height="5" fill="#fff"/></svg>