<svg xmlns="http://www.w3.org/2000/svg" viewBox="0 0 50 50"><path d="M24.281 1c-.91 0-1.718.629-1.937 1.516l-.457 1.82a20.811 20.811 0 0 0-4.524 1.21l-1.3-1.35a2.018 2.018 0 0 0-2.438-.34l-1.25.718a2.015 2.015 0 0 0-.922 2.285l.52 1.82a20.837 20.837 0 0 0-3.293 3.294l-1.82-.52a2.015 2.015 0 0 0-2.286.922l-.719 1.25c-.457.79-.316 1.8.34 2.438l1.352 1.3a20.811 20.811 0 0 0-1.211 4.524l-1.82.457v-.004A2.006 2.006 0 0 0 1 24.28v1.438c0 .91.629 1.718 1.516 1.937l1.82.457a20.65 20.65 0 0 0 1.21 4.524l-1.35 1.3a2.007 2.007 0 0 0-.34 2.438l.718 1.25a2.013 2.013 0 0 0 2.285.922l1.817-.52a21.22 21.22 0 0 0 3.297 3.297l-.52 1.817c-.25.879.133 1.828.922 2.285l1.25.719c.79.457 1.8.316 2.438-.344l1.3-1.348c1.438.567 2.95.973 4.524 1.207l.453 1.824A2.01 2.01 0 0 0 24.28 49h1.438c.914 0 1.722-.629 1.941-1.516h-.004l.457-1.824a20.585 20.585 0 0 0 4.524-1.207l1.3 1.348a2.014 2.014 0 0 0 2.438.344l1.25-.72a2.015 2.015 0 0 0 .922-2.284l-.52-1.817a21.22 21.22 0 0 0 3.297-3.297l1.817.52a2.015 2.015 0 0 0 2.285-.922l.719-1.25c.457-.79.316-1.8-.344-2.438l-1.348-1.3c.567-1.438.973-2.95 1.207-4.524l1.824-.457v.004A2.006 2.006 0 0 0 49 25.72v-1.44c0-.91-.629-1.718-1.516-1.937l-1.82-.457a20.65 20.65 0 0 0-1.21-4.524l1.347-1.3a2.01 2.01 0 0 0 .344-2.438l-.72-1.25a2.01 2.01 0 0 0-2.28-.922h-.004l-1.817.52a21.027 21.027 0 0 0-3.297-3.293l.52-1.82a2.015 2.015 0 0 0-.922-2.286l-1.25-.719a2.007 2.007 0 0 0-2.438.34l-1.3 1.352a20.811 20.811 0 0 0-4.524-1.211l-.453-1.82A2.01 2.01 0 0 0 25.72 1zm0 2h1.438l.765 3.055.688.078c1.898.215 3.703.71 5.387 1.437l.632.278 2.184-2.262h.004l1.246.719-.871 3.039.555.414a19.156 19.156 0 0 1 3.933 3.933l.414.555 3.035-.871.72 1.25-2.255 2.184.274.632a18.852 18.852 0 0 1 1.437 5.387l.078.688L47 24.28v1.438l-3.055.765-.078.688a18.857 18.857 0 0 1-1.441 5.387l-.274.632 2.258 2.184-.719 1.25-3.035-.871-.414.555a19.156 19.156 0 0 1-3.933 3.933l-.555.414.871 3.035-1.25.72-2.184-2.259-.632.278a18.852 18.852 0 0 1-5.387 1.437l-.688.078L25.72 47h-1.44l-.765-3.055-.688-.078a18.823 18.823 0 0 1-5.387-1.441l-.632-.274-2.184 2.258h-.004l-1.246-.719.871-3.035-.555-.414a19.156 19.156 0 0 1-3.933-3.933l-.414-.555-3.04.871-.718-1.25 2.258-2.184-.274-.632a18.852 18.852 0 0 1-1.437-5.387l-.078-.688L3 25.72v-1.44l3.055-.765.078-.688A18.852 18.852 0 0 1 7.57 17.44l.278-.632-2.262-2.184.719-1.25 3.039.871.414-.555a19.156 19.156 0 0 1 3.933-3.933l.555-.414-.871-3.04 1.246-.718h.004l2.184 2.262.632-.278a18.852 18.852 0 0 1 5.387-1.437l.688-.078zM24 11.004l-1.152.18a13.972 13.972 0 0 0-8.743 5.035l-.734.91 7.848 4.531.535-.457a4.96 4.96 0 0 1 1.578-.91l.668-.234zm2 0v9.05l.668.239a5.004 5.004 0 0 1 1.578.91l.535.457.614-.351 7.234-4.18-.734-.91a13.972 13.972 0 0 0-8.743-5.035zm-4 2.562v5.227a6.273 6.273 0 0 0-.875.504L16.59 16.68A11.767 11.767 0 0 1 22 13.566zm6 0a11.758 11.758 0 0 1 5.41 3.114l-4.531 2.617a6.549 6.549 0 0 0-.879-.504zm-15.625 5.297l-.422 1.09A13.936 13.936 0 0 0 11 25c0 1.785.348 3.484.953 5.047l.422 1.09 7.84-4.528-.125-.695A4.833 4.833 0 0 1 20 25c0-.305.031-.61.09-.914l.125-.695zm25.25 0l-7.84 4.528.125.695c.059.305.09.61.09.914 0 .305-.031.61-.09.914l-.125.695 7.84 4.528.422-1.09C38.652 28.484 39 26.785 39 25c0-1.785-.348-3.484-.953-5.047zM13.59 21.875l4.46 2.578c-.01.184-.05.356-.05.547 0 .191.04.363.05.547l-4.46 2.578C13.309 27.109 13 26.102 13 25c0-1.102.309-2.11.59-3.125zm22.82 0c.281 1.016.59 2.023.59 3.125 0 1.102-.309 2.11-.59 3.125l-4.46-2.578c.01-.184.05-.356.05-.547 0-.191-.04-.363-.05-.547zM21.22 28.34l-.614.351-7.234 4.18.734.91a13.972 13.972 0 0 0 8.743 5.035l1.152.18v-9.05l-.668-.239a5.004 5.004 0 0 1-1.578-.91zm7.562 0l-.535.457a4.96 4.96 0 0 1-1.578.91l-.668.234v9.055l1.152-.18a13.972 13.972 0 0 0 8.743-5.035l.734-.91zm-7.66 2.363c.281.192.574.36.879.504v5.227a11.767 11.767 0 0 1-5.41-3.114zm7.754 0l4.535 2.617A11.767 11.767 0 0 1 28 36.434v-5.227c.305-.145.598-.312.875-.504z"/></svg>