<svg xmlns="http://www.w3.org/2000/svg" viewBox="0 0 50 50"><path d="M17.969.031c-3.977.106-6.621 1.852-8.094 4.25C8.402 6.68 8 9.598 8 12.22V45c0 .55.45 1 1 1s1-.45 1-1V12.219c0-2.414.39-5 1.563-6.906C12.733 3.405 14.582 2.092 18.03 2a.99.99 0 0 0 .856-.512.995.995 0 0 0-.032-1 .99.99 0 0 0-.886-.457zm22 3c-3.969.11-6.621 1.856-8.094 4.25-1.273 2.067-1.707 4.524-1.813 6.844l-16.03-2.531c.07-2.348.495-3.735 1.093-4.469.652-.8 1.566-1.082 2.938-1.125a.99.99 0 0 0 .855-.512.995.995 0 0 0-.031-1A.99.99 0 0 0 18 4.031c-1.652.051-3.277.5-4.375 1.844C12.555 7.188 12.027 9.129 12 12a.978.978 0 0 0 0 .906v4.875a.753.753 0 0 0 0 .188v4.843a.996.996 0 0 0 0 .844v4.532a.975.975 0 0 0 0 .937v4.438a.996.996 0 0 0 0 .937v4.75c-.023.125-.023.25 0 .375V45c0 .55.45 1 1 1s1-.45 1-1v-4.344l16 3.438V49c0 .55.45 1 1 1s1-.45 1-1v-5.625a.753.753 0 0 0 0-.188V21.281a.997.997 0 0 0 0-.75v-4.843a.997.997 0 0 0 0-.75c.027-2.333.434-4.793 1.563-6.626C34.733 6.407 36.59 5.098 40.03 5a.99.99 0 0 0 .856-.512.995.995 0 0 0-.032-1 .99.99 0 0 0-.886-.457zm0 4c-1.653.051-3.282.496-4.375 1.844C34.5 10.223 34 12.223 34 15.219V49c0 .55.45 1 1 1s1-.45 1-1V15.219c0-2.774.477-4.293 1.125-5.094.648-.8 1.531-1.082 2.906-1.125a.99.99 0 0 0 .856-.512.995.995 0 0 0-.032-1 .99.99 0 0 0-.886-.457zM14 13.625l16 2.5v3.594L14 17.03zM14 19l16 2.688v3.593l-16-2.843zm0 5.438l16 2.843v3.625l-16-3.062zm0 5.406l16 3.062v3.563L14 33.25zm0 5.437L30 38.5v3.563l-16-3.407z"/></svg>