<svg xmlns="http://www.w3.org/2000/svg" viewBox="0 0 64 64"><path d="M31 2C15.012 2 2 15.008 2 31s13.012 29 29 29 29-13.008 29-29S46.988 2 31 2zm0 2c14.887 0 27 12.113 27 27S45.887 58 31 58 4 45.887 4 31 16.113 4 31 4zm0 4C18.316 8 8 18.316 8 31s10.316 23 23 23 23-10.316 23-23c0-7.105-3.207-13.7-8.797-18.094a1 1 0 1 0-1.238 1.574C49.07 18.492 52 24.516 52 31c0 11.578-9.422 21-21 21s-21-9.422-21-21 9.422-21 21-21c1.027 0 2.059.074 3.066.223a.995.995 0 0 0 1.133-.848.998.998 0 0 0-.844-1.133A23.4 23.4 0 0 0 31 8zm7.531 1.344a.995.995 0 0 0-.886.656.998.998 0 0 0 .59 1.281c.785.29 1.562.63 2.312 1.012a.997.997 0 0 0 1.348-.438.996.996 0 0 0-.438-1.343 22.08 22.08 0 0 0-2.531-1.11.98.98 0 0 0-.395-.058zM29 18c-2.758 0-5 2.242-5 5a1 1 0 1 0 2 0c0-1.652 1.348-3 3-3h4c1.652 0 3 1.348 3 3v2.84a3.38 3.38 0 0 1-2.316 3.21A5.38 5.38 0 0 0 30 34.16V37a1 1 0 1 0 2 0v-2.84c0-1.457.93-2.75 2.316-3.21A5.38 5.38 0 0 0 38 25.84V23c0-2.758-2.242-5-5-5zM13 30a1 1 0 0 0-1 1v2a1 1 0 1 0 2 0v-2a1 1 0 0 0-1-1zm5 0a1 1 0 0 0-1 1v2a1 1 0 1 0 2 0v-2a1 1 0 0 0-1-1zm5 0a1 1 0 0 0-1 1v2a1 1 0 1 0 2 0v-2a1 1 0 0 0-1-1zm16 0a1 1 0 0 0-1 1v2a1 1 0 1 0 2 0v-2a1 1 0 0 0-1-1zm5 0a1 1 0 0 0-1 1v2a1 1 0 1 0 2 0v-2a1 1 0 0 0-1-1zm5 0a1 1 0 0 0-1 1v2a1 1 0 1 0 2 0v-2a1 1 0 0 0-1-1zM31 40a1.999 1.999 0 1 0 0 4 1.999 1.999 0 1 0 0-4z"/></svg>