<svg xmlns="http://www.w3.org/2000/svg" viewBox="0 0 40 40"><path d="M9.5 10.5h18v3h-18z" fill="#dff0fe"/><path d="M27 11v2H10v-2h17m1-1H9v4h19z" fill="#4788c7"/><path d="M9.5 17.5h18v3h-18z" fill="#dff0fe"/><path d="M27 18v2H10v-2h17m1-1H9v4h19z" fill="#4788c7"/><path d="M9.5 24.5h18v3h-18z" fill="#dff0fe"/><path d="M27 25v2H10v-2h17m1-1H9v4h19z" fill="#4788c7"/><path d="M9.5 31.5h18v3h-18z" fill="#dff0fe"/><path d="M27 32v2H10v-2h17m1-1H9v4h19z" fill="#4788c7"/><path d="M7.5 38.5V9c0-3.969 3.098-7.227 7-7.484v4.02A3.509 3.509 0 0 0 11.5 9v29.5z" fill="#dff0fe"/><path d="M14 2.07v3.055A4.01 4.01 0 0 0 11 9v29H8V9c0-3.52 2.613-6.441 6-6.93M15 1a8 8 0 0 0-8 8v30h5V9a3 3 0 0 1 3-3z" fill="#4788c7"/><path d="M26.5 38.5V9c0-3.969 3.098-7.227 7-7.484v4.02A3.509 3.509 0 0 0 30.5 9v29.5z" fill="#dff0fe"/><path d="M33 2.07v3.055A4.01 4.01 0 0 0 30 9v29h-3V9c0-3.52 2.613-6.441 6-6.93M34 1a8 8 0 0 0-8 8v30h5V9a3 3 0 0 1 3-3z" fill="#4788c7"/></svg>