<svg xmlns="http://www.w3.org/2000/svg" viewBox="0 0 64 64"><linearGradient id="a" gradientUnits="userSpaceOnUse" x1="31" y1="23.75" x2="31" y2="28.195" spreadMethod="reflect"><stop offset="0" stop-color="#6dc7ff"/><stop offset="1" stop-color="#e6abff"/></linearGradient><circle cx="31" cy="26" r="2" fill="url(#a)"/><linearGradient id="b" gradientUnits="userSpaceOnUse" x1="25" y1="7.583" x2="25" y2="10.46" spreadMethod="reflect"><stop offset="0" stop-color="#6dc7ff"/><stop offset="1" stop-color="#e6abff"/></linearGradient><rect x="20" y="8" width="10" height="2" fill="url(#b)"/><linearGradient id="c" gradientUnits="userSpaceOnUse" x1="21.5" y1="53.583" x2="21.5" y2="56.338" spreadMethod="reflect"><stop offset="0" stop-color="#6dc7ff"/><stop offset="1" stop-color="#e6abff"/></linearGradient><rect x="19" y="54" width="5" height="2" fill="url(#c)"/><linearGradient id="d" gradientUnits="userSpaceOnUse" x1="42.5" y1="53.583" x2="42.5" y2="56.338" spreadMethod="reflect"><stop offset="0" stop-color="#6dc7ff"/><stop offset="1" stop-color="#e6abff"/></linearGradient><rect x="40" y="54" width="5" height="2" fill="url(#d)"/><linearGradient id="e" gradientUnits="userSpaceOnUse" x1="32" y1="5.667" x2="32" y2="57.667" spreadMethod="reflect"><stop offset="0" stop-color="#1a6dff"/><stop offset="1" stop-color="#c822ff"/></linearGradient><path d="M52 48h-3a5.997 5.997 0 0 0-3-5.188V28c0-2.757-2.243-5-5-5h-4.812A6.007 6.007 0 0 0 32 20.09V16c0-1.103-.897-2-2-2h-1v-2h1c1.103 0 2-.897 2-2V8c0-1.103-.897-2-2-2H20c-1.103 0-2 .897-2 2v2c0 1.103.897 2 2 2h1v2h-1c-1.103 0-2 .897-2 2v20c0 1.103.897 2 2 2h1c0 1.103.897 2 2 2h4c1.103 0 2-.897 2-2h1c1.103 0 2-.897 2-2v-4.09A6.005 6.005 0 0 0 36.188 29H39a1 1 0 0 1 1 1v12.812A5.997 5.997 0 0 0 37 48h-8v-2h5v-2H16v2h5v2h-9c-1.103 0-2 .897-2 2v2c0 1.103.897 2 2 2h5v1c0 1.654 1.346 3 3 3h3c1.654 0 3-1.346 3-3v-1h12v1c0 1.654 1.346 3 3 3h3c1.654 0 3-1.346 3-3v-1h5c1.103 0 2-.897 2-2v-2c0-1.103-.897-2-2-2zM20 10V8h10v2H20zm3 2h4v2h-4v-2zm-3 24V20h5v-2h-5v-2h10v4.09c-2.833.478-5 2.942-5 5.91s2.167 5.431 5 5.91V36H20zm11-6c-2.206 0-4-1.794-4-4s1.794-4 4-4 4 1.794 4 4-1.794 4-4 4zm8-3h-2.09c.055-.326.09-.659.09-1s-.035-.674-.09-1H41c1.654 0 3 1.346 3 3v14.09c-.326-.055-.659-.09-1-.09s-.674.035-1 .09V30c0-1.654-1.346-3-3-3zm4 17c2.206 0 4 1.794 4 4h-2c0-1.103-.897-2-2-2s-2 .897-2 2h-2c0-2.206 1.794-4 4-4zm-20 2h4v2h-4v-2zm1 9a1 1 0 0 1-1 1h-3a1 1 0 0 1-1-1v-1h5v1zm21 0a1 1 0 0 1-1 1h-3a1 1 0 0 1-1-1v-1h5v1zm7-3H12v-2h40v2z" fill="url(#e)"/></svg>