<svg xmlns="http://www.w3.org/2000/svg" viewBox="0 0 50 50"><path d="M19.313.031c-.192 0-.38.047-.563.125l-7.156 2.969c-.739.309-1.11 1.168-.813 1.906v.032l.781 1.875c.305.742 1.192 1.093 1.938.78l.75-.312.875 2.25-.156.063c-.285.113-.512.183-.75.312-.239.13-.586.375-.75.781-.164.407-.074.774 0 1.032s.168.469.281.75v.031l.188.5-.438.156c-5.203 2.117-7.73 8.086-5.625 13.281v.032L10.156 32a7.078 7.078 0 0 0-1.25 4c0 3.41 2.434 6.273 5.656 6.938V43c.196.344.407.672.626 1H9.875C8.262 44 7 45.387 7 47v2c0 .55.45 1 1 1h34c.55 0 1-.45 1-1v-2c0-1.613-1.262-3-2.875-3h-2.813c1.848-.79 2.79-2.895 2.063-4.781a3.82 3.82 0 0 0-3.406-2.438 3.72 3.72 0 0 0-1.469.25l-9.844 3.813h-.031c-.383.152-.871.14-1.438-.094-.433-.18-.855-.508-1.25-.875A7.062 7.062 0 0 0 23.095 36c0-.457-.074-.91-.157-1.344l12.938-5.281a1 1 0 0 0-.5-1.938 1.116 1.116 0 0 0-.25.063l-12.844 5.281c-1.047-2.031-3.023-3.508-5.375-3.812l-2.062-5.219a2.664 2.664 0 0 1 1.469-3.469h.03l.5-.218 1.5 3.656c.016.062.036.129.063.187l1 2.438c.102.238.293.43.532.531l2.875 1.219a.997.997 0 0 0 .75 0l4.093-1.625a1.01 1.01 0 0 0 .532-.532l1.25-2.875a.997.997 0 0 0 0-.75L28.468 20v-.093l-.03-.032v-.063a1.243 1.243 0 0 0-.063-.125L23.75 8.5c-.113-.281-.188-.484-.313-.719-.125-.234-.335-.574-.75-.75-.414-.176-.777-.105-1.03-.031-.255.074-.47.168-.75.281l-.188.063-.907-2.25.844-.344c.727-.305 1.106-1.168.813-1.906v-.031L20.687.937a1.536 1.536 0 0 0-1.375-.906zm-.282 2.156l.407.907-6.22 2.594-.405-.907zM17.97 5.845l.906 2.281-1.876.78-.906-2.281zm3.875 3.25c.027.062.031.078.062.156v.031l4.313 10.406-6.344 2.532-4.281-10.344c-.004-.012.004-.02 0-.031-.04-.094-.067-.114-.094-.188.074-.031.086-.054.188-.094h.03l5.938-2.406c.094-.039.114-.035.188-.062zm-7.125 5.844l1.344 3.28-.5.188c-2.372.969-3.524 3.719-2.563 6.094l1.781 4.531a7.03 7.03 0 0 0-3.125 1.375L9.72 25.813c-1.692-4.176.328-8.93 4.5-10.657.015-.004.015-.027.031-.031zm12.25 6.624l.468 1.094-.937 2.125-3.281 1.313-2.125-.907-.438-1.093zM16 31.095A4.885 4.885 0 0 1 20.906 36 4.885 4.885 0 0 1 16 40.906 4.885 4.885 0 0 1 11.094 36 4.885 4.885 0 0 1 16 31.094zm19.906 7.687a1.786 1.786 0 0 1 1.594 1.157c.355.921-.11 1.925-1.031 2.28L31.812 44H17.688a9.335 9.335 0 0 1-.718-.969 7.063 7.063 0 0 0 3.625-1.625 6.396 6.396 0 0 0 1.843 1.188c.907.375 1.95.492 2.938.093l9.844-3.78c.23-.09.457-.134.687-.126zM9.875 46h30.25c.457 0 .875.402.875 1v1H9v-1c0-.598.418-1 .875-1z"/></svg>