<svg xmlns="http://www.w3.org/2000/svg" viewBox="0 0 24 24"><path d="M13.313 0L9.03 1.719l.875 2.156 4.25-1.719zm1.28 3.188l-4.28 1.718.562 1.375C6.949 7.246 4 10.79 4 15c0 2.82 1.324 5.348 3.375 7H4v2h18v-2h-9a6.92 6.92 0 0 1-2.406-.438C11.445 21.044 12 20.105 12 19v-.031l8.656-3.5-.718-1.719-8.532 3.469A2.948 2.948 0 0 0 9 16c-1.105 0-2.043.555-2.563 1.406A6.937 6.937 0 0 1 6 15c0-3.383 2.426-6.2 5.625-6.844l.969 2.438 4.219-1.688zm2.595 6.718L13 11.687l.406 1 1.5.72L17 12.5l.688-1.5zM9 18c.602 0 1 .398 1 1s-.398 1-1 1-1-.398-1-1 .398-1 1-1z"/></svg>