<svg xmlns="http://www.w3.org/2000/svg" viewBox="0 0 26 26"><path d="M13 1.188C6.477 1.188 1.187 6.476 1.187 13S6.478 24.813 13 24.813c6.523 0 11.813-5.29 11.813-11.813 0-6.523-5.29-11.813-11.813-11.813zm-.055 19.027a1.669 1.669 0 0 1-1.683-1.684c0-.941.742-1.683 1.683-1.683.938 0 1.688.742 1.688 1.683 0 .942-.746 1.684-1.688 1.684zm2.48-7.633l-1.097.953c-.828.727-.687 1.082-.687 1.527h-1.23v-.449c0-2.168 2.07-2.543 2.07-5.746 0-1.23-.403-1.793-1.426-1.793-.942 0-1.364.461-1.227 1.57.082.7-.621.977-1.082.977-.52 0-.96-.52-.96-1.223 0-1.191 1.25-2.441 3.425-2.441 2.117 0 3.965.957 3.965 3.262.004 1.426-.52 2.289-1.75 3.363z"/></svg>