<svg xmlns="http://www.w3.org/2000/svg" viewBox="0 0 64 64"><path d="M32.5 6c-1.898 0-3.602.7-5 2.102L22.098 13.5l-1.399-1.402c.801-.797.801-1.996 0-2.797l-1.398-1.403c-.801-.796-2-.796-2.801 0L8 16.301c-.8.8-.8 2 0 2.797L9.398 20.5c.403.398.903.598 1.403.598s1-.2 1.398-.598l1.399 1.402L12 23.5c-1.3 1.3-2.102 3.102-2.102 5V57c0 1.7 1.301 3 3.004 3h42c1.7 0 3-1.3 3-3V11C58 8.2 55.801 6 53 6zm0 2H53c1.7 0 3 1.3 3 3v46c0 .602-.398 1-1 1H13c-.602 0-1-.398-1-1V28.5c0-1.3.5-2.602 1.5-3.5l4.7-4.7a.967.967 0 0 0 0-1.398.961.961 0 0 0-1.4 0L15 20.598l-1.402-1.399L19.3 13.5l2.101 2.098a.961.961 0 0 0 1.399 0L28.902 9.5c1-1 2.297-1.5 3.598-1.5zM17.902 9.3l1.399 1.4-8.5 8.5-1.403-1.4zM34 10c-1.7 0-3 1.3-3 3s1.3 3 3 3h15c1.7 0 3-1.3 3-3s-1.3-3-3-3zm0 2h15c.602 0 1 .398 1 1s-.398 1-1 1H34c-.602 0-1-.398-1-1s.398-1 1-1zm-12 9c-.25 0-.5.102-.7.3a.967.967 0 0 0 0 1.4l3 3c-.198.398-.3.8-.3 1.3v14c0 .5.102.902.3 1.3l-3 3a.967.967 0 0 0 0 1.4c.2.198.5.3.7.3.2 0 .5-.102.7-.3l3-3c.398.198.8.3 1.3.3h14c.5 0 .902-.102 1.3-.3l3 3c.2.198.5.3.7.3.2 0 .5-.102.7-.3a.967.967 0 0 0 0-1.4l-3-3c.198-.398.3-.8.3-1.3V27c0-.5-.102-.902-.3-1.3l3-3a.967.967 0 0 0 0-1.4.967.967 0 0 0-1.4 0l-3 3c-.398-.198-.8-.3-1.3-.3H27c-.5 0-.902.102-1.3.3l-3-3a.996.996 0 0 0-.7-.3zm5 5h14c.602 0 1 .398 1 1v14c0 .602-.398 1-1 1H27c-.602 0-1-.398-1-1V27c0-.602.398-1 1-1zM14 51c-.602 0-1 .398-1 1v2c0 .602.398 1 1 1s1-.398 1-1v-2c0-.602-.398-1-1-1zm5 0c-.602 0-1 .398-1 1v2c0 .602.398 1 1 1s1-.398 1-1v-2c0-.602-.398-1-1-1zm5 0c-.602 0-1 .398-1 1v2c0 .602.398 1 1 1s1-.398 1-1v-2c0-.602-.398-1-1-1zm5 0c-.602 0-1 .398-1 1v2c0 .602.398 1 1 1s1-.398 1-1v-2c0-.602-.398-1-1-1zm5 0c-.602 0-1 .398-1 1v2c0 .602.398 1 1 1s1-.398 1-1v-2c0-.602-.398-1-1-1zm5 0c-.602 0-1 .398-1 1v2c0 .602.398 1 1 1s1-.398 1-1v-2c0-.602-.398-1-1-1zm5 0c-.602 0-1 .398-1 1v2c0 .602.398 1 1 1s1-.398 1-1v-2c0-.602-.398-1-1-1zm5 0c-.602 0-1 .398-1 1v2c0 .602.398 1 1 1s1-.398 1-1v-2c0-.602-.398-1-1-1zm5 0c-.602 0-1 .398-1 1v2c0 .602.398 1 1 1s1-.398 1-1v-2c0-.602-.398-1-1-1z"/></svg>