<svg xmlns="http://www.w3.org/2000/svg" viewBox="0 0 50 50"><path d="M37.98 2.992a.96.96 0 0 0-.109.008H23a1 1 0 0 0-.707.293L16 9.586l-2.293-2.293a1 1 0 0 0-1.414 0l-4 4a1 1 0 0 0 0 1.414L10.586 15l-2.293 2.293A1 1 0 0 0 8 18v25c0 2.2 1.8 4 4 4h26c2.2 0 4-1.8 4-4V7c0-2.098-1.648-3.816-3.707-3.969a.941.941 0 0 0-.313-.039zM23.414 5h12.172l-5 5H18.414zm14.961.04A1.976 1.976 0 0 1 40 7v36c0 1.117-.883 2-2 2H12c-1.117 0-2-.883-2-2V18.414L16.414 12H31a1 1 0 0 0 .707-.293zM13 9.413L14.586 11 12 13.586 10.414 12zM25.043 19c-.3-.012-.59.11-.79.332 0 0-1.534 1.715-3.07 3.906C19.646 25.43 18 28.012 18 30.402 18 34.082 21.195 37 25 37s7-2.918 7-6.598c0-2.39-1.645-4.972-3.184-7.164-1.535-2.191-3.07-3.906-3.07-3.906-.183-.2-.433-.32-.703-.332zM25 21.613c.484.563 1.094 1.223 2.184 2.774C28.644 26.469 30 29.09 30 30.402 30 32.918 27.797 35 25 35s-5-2.082-5-4.598c0-1.312 1.355-3.933 2.816-6.015 1.09-1.551 1.7-2.211 2.184-2.774z"/></svg>