<svg xmlns="http://www.w3.org/2000/svg" viewBox="0 0 50 50"><path style="line-height:normal;text-indent:0;text-align:start;text-decoration-line:none;text-decoration-style:solid;text-decoration-color:#000;text-transform:none;block-progression:tb;isolation:auto;mix-blend-mode:normal" d="M29 0c-2.533 0-4.55 1.225-5.89 2.66a7.711 7.711 0 0 0-1.776 3.043c-1.202-.438-2.344-.685-3.316-.703-2.32-.041-4.09.89-5.233 1.945a6.907 6.907 0 0 0-1.289 1.588C11.202 9.04 11 9.4 11 10a1 1 0 1 0 2 0c0 .211.036-.134.227-.463a4.98 4.98 0 0 1 .914-1.123c.832-.768 2.062-1.446 3.841-1.414 1.038.019 2.212.215 3.57.895A1 1 0 0 0 23 7c0-.385.52-1.845 1.572-2.973C25.625 2.9 27.108 2 29 2c2.858 0 4.511.925 5.293 1.707a1 1 0 0 0 1.22.15C37.872 2.443 39.854 2 43 2a1 1 0 1 0 0-2c-3.106 0-5.49.567-7.928 1.898C33.792.874 31.886 0 29 0zm19.95 4.988a1 1 0 0 0-.886.66s-.255.731-1.271 1.586C45.777 8.09 44.045 9 41 9a1 1 0 0 0-.8.4S39.055 11 36.5 11s-3.7-1.6-3.7-1.6a1 1 0 0 0-1.6 1.2s1.856 2.4 5.3 2.4c2.966 0 4.485-1.572 4.924-2.066 3.176-.1 5.365-1.08 6.658-2.168 1.36-1.145 1.854-2.414 1.854-2.414a1 1 0 0 0-.987-1.364zM7 14a1 1 0 1 0 0 2h1v10c0 .667-.45 2.372-1.186 4.332s-1.73 4.254-2.726 6.484c-.997 2.23-1.997 4.399-2.754 6.137-.379.87-.697 1.63-.928 2.252-.23.623-.406 1-.406 1.596 0 .526.304.982.627 1.258.323.275.688.452 1.117.613.858.321 1.991.551 3.463.744C8.151 49.802 12.426 50 18 50c5.574 0 9.85-.198 12.793-.584 1.472-.193 2.605-.423 3.463-.744.429-.16.794-.338 1.117-.613.323-.276.627-.732.627-1.258 0-.596-.175-.973-.406-1.596a45.88 45.88 0 0 0-.928-2.252c-.757-1.738-1.757-3.906-2.754-6.137-.997-2.23-1.99-4.524-2.726-6.484C28.449 28.372 28 26.667 28 26V16h1a1 1 0 1 0 0-2H7zm3 2h16v10c0 1.333.55 3.002 1.314 5.035.764 2.034 1.77 4.353 2.774 6.598 1.003 2.244 2.003 4.414 2.746 6.119a45.3 45.3 0 0 1 .885 2.148c.161.436.193.622.22.704-.084.053-.165.11-.384.193-.595.223-1.631.454-3.022.637C27.752 47.798 23.526 48 18 48s-9.752-.202-12.533-.566c-1.391-.183-2.427-.414-3.022-.637-.22-.082-.3-.14-.384-.193.027-.082.059-.268.22-.704a45.74 45.74 0 0 1 .885-2.148c.743-1.705 1.743-3.875 2.746-6.12 1.003-2.244 2.01-4.563 2.774-6.597C9.449 29.002 10 27.333 10 26V16zm8.318 8l-4.27 9h4.495l-2.893 5h-1.9L15 42l5.5-4h-2.54l4.048-7H17.21l3.322-7h-2.215z" font-weight="400" font-family="sans-serif" white-space="normal" overflow="visible"/></svg>