<svg xmlns="http://www.w3.org/2000/svg" viewBox="0 0 50 50"><path d="M38.844 0c-3.75 0-8.45 2.387-10.657 4.594-2.28 2.281-2.816 5.226-1.593 8.437.047.117.113.235.156.344.176.422.36.82.594 1.25l-.719.75 8 8 .75-.719c3.852 2.114 7.484 1.801 10.031-.843 2.633-2.633 5.606-8.989 4.25-12.938l-.531-1.5-6.438 6.406c-.296.297-.89.297-1.187 0L36.219 8.5a.869.869 0 0 1-.25-.594c0-.23.101-.445.25-.593L42.656.875 41.125.344C40.449.114 39.68 0 38.844 0zM17.28 9.063c-2.746 0-5.324 1.074-7.281 3.03l-7 7c-4 4-4 10.497 0 14.5l9.063 9.063c.894 1.117 2.164 1.75 3.624 1.75 1.067 0 1.91-.246 2.594-.781a3.708 3.708 0 0 0 1.469-1.906c.602.398 2.145 1.336 4.094 0 1.949-1.336 1.695-3.492 1.593-3.594.602.3 2.06 1.031 3.907-.125s1.691-3.46 1.593-3.563c.598.301 2.41.782 4-.187 1.16-.797 2.063-2.215 2.063-3.844 0-1.465-.695-2.879-1.844-3.687L23.781 15.344l1.157-1.125s-.7-1.676-.813-2.594a10.456 10.456 0 0 0-6.844-2.563zM3.5 36.936L2.094 38.28C1.125 39.254-.02 41.156 0 43.313c.012 1.695.75 3.292 2.094 4.593 1.36 1.36 3 2.094 4.719 2.094 2.195 0 4.019-1.14 4.906-2.094l1.781-1.843c-1.14-.383-2.14-1.098-2.938-2.063z"/></svg>