<svg xmlns="http://www.w3.org/2000/svg" viewBox="0 0 40 40"><path d="M29.102 27.5c-1.875 0-3.403-1.57-3.403-3.5s1.528-3.5 3.403-3.5c2.445 0 3.398.605 3.398 2.168 0 1.672-.71 4.832-3.398 4.832zm-18.204 0c-2.687 0-3.398-3.16-3.398-4.832 0-1.563.953-2.168 3.398-2.168 1.875 0 3.403 1.57 3.403 3.5s-1.528 3.5-3.403 3.5z" fill="#dff0fe"/><path d="M29.102 21c2.675 0 2.898.79 2.898 1.668C32 24.164 31.395 27 29.102 27c-1.602 0-2.903-1.348-2.903-3s1.301-3 2.903-3m-18.204 0c1.602 0 2.903 1.348 2.903 3s-1.301 3-2.903 3C8.605 27 8 24.164 8 22.668 8 21.789 8.223 21 10.898 21m18.204-1c-2.157 0-3.903 1.79-3.903 4s1.746 4 3.903 4C32.004 28 33 24.875 33 22.668 33 20.457 31.254 20 29.102 20zm-18.204 0C8.746 20 7 20.457 7 22.668 7 24.875 8.004 28 10.898 28c2.157 0 3.903-1.79 3.903-4s-1.746-4-3.903-4z" fill="#4788c7"/><path d="M20 38.5c-1.27 0-2.445-.527-3.316-1.484l-.082-.09-.122-.043A10.515 10.515 0 0 1 9.5 27V12.383a4.747 4.747 0 0 1 4.742-4.742h11.516a4.747 4.747 0 0 1 4.742 4.742V27c0 4.426-2.805 8.395-6.98 9.883l-.122.043-.082.09c-.87.957-2.046 1.484-3.316 1.484z" fill="#fff"/><path d="M25.758 8.14A4.246 4.246 0 0 1 30 12.384V27a10.01 10.01 0 0 1-6.648 9.41l-.239.086-.168.184a3.944 3.944 0 0 1-5.89 0l-.168-.184-.239-.086A10.01 10.01 0 0 1 10 27V12.383a4.246 4.246 0 0 1 4.242-4.242h11.516m0-1H14.242A5.24 5.24 0 0 0 9 12.383V27c0 4.781 3.055 8.836 7.316 10.355A4.966 4.966 0 0 0 20 39c1.465 0 2.77-.64 3.684-1.645C27.945 35.835 31 31.781 31 27V12.383a5.24 5.24 0 0 0-5.242-5.242z" fill="#4788c7"/><path d="M30.5 23.5V16c0-.98-.324-1.996-.965-3.023C31.098 13.594 32.5 14.55 32.5 16c0 3.71-1.363 6.652-1.797 7.5zm-21.219 0C8.848 22.738 7.5 20.059 7.5 16c0-2.398 5.938-4.348 13.238-4.348.766 0 1.516.02 2.246.067-1.632.93-3.953 1.781-6.984 1.781-3.14 0-6.5 1.445-6.5 5.5v4.5zM26.63 11.145a29.27 29.27 0 0 0-.918-.153c.137-.12.25-.23.344-.324.156.121.351.281.574.477z" fill="#b6dcfe"/><path d="M20.738 12.152h.14C19.544 12.648 17.923 13 16 13c-4.316 0-7 2.3-7 6v2.7c-.484-1.278-1-3.223-1-5.7 0-1.82 5.23-3.848 12.738-3.848m9.903 1.926C31.414 14.566 32 15.2 32 16c0 2.238-.512 4.191-1 5.543V16c0-.633-.121-1.273-.36-1.922M26 10s-.508.605-1.516 1.344c1.332.14 2.59.36 3.711.668C27.137 10.785 26 10 26 10zm-5.262 1.152C14.004 11.152 7 12.906 7 16c0 5.043 2 8 2 8h1v-5c0-3.68 2.965-5 6-5 4.066 0 6.898-1.496 8.484-2.656a35.461 35.461 0 0 0-3.746-.192zm7.457.86C29.125 13.082 30 14.492 30 16v8h1s2-3.402 2-8c0-1.906-1.96-3.219-4.805-3.988zM27 23.5a1.5 1.5 0 1 1-3 0 1.5 1.5 0 0 1 3 0zm-11 0a1.5 1.5 0 1 1-3 0 1.5 1.5 0 0 1 3 0z" fill="#4788c7"/><path d="M7.5 17.102V15C7.5 8.105 13.105 2.5 20 2.5S32.5 8.105 32.5 15v2.102z" fill="#98ccfd"/><path d="M20 3c6.617 0 12 5.383 12 12v1.602H8V15C8 8.383 13.383 3 20 3m0-1C12.82 2 7 7.82 7 15v2.602h26V15c0-7.18-5.82-13-13-13z" fill="#4788c7"/><path d="M17.5 1.5h5v9.855h-5z" fill="#98ccfd"/><path d="M22 2v8.855h-4V2h4m1-1h-6v10.855h6z" fill="#4788c7"/><path d="M5.5 19.5V18c0-1.379 1.121-2.5 2.5-2.5h24c1.379 0 2.5 1.121 2.5 2.5v1.5z" fill="#98ccfd"/><path d="M32 16c1.102 0 2 .898 2 2v1H6v-1c0-1.102.898-2 2-2h24m0-1H8a3 3 0 0 0-3 3v2h30v-2a3 3 0 0 0-3-3z" fill="#4788c7"/><path d="M17 10h6v4.43h-6z" fill="#98ccfd"/><path d="M10 13.215h20v4.07H10z" fill="#98ccfd"/><path d="M17.5 9c.273 0 .5.227.5.5v2c0 .273-.227.5-.5.5a.504.504 0 0 1-.5-.5v-2c0-.273.227-.5.5-.5zm5 0c.273 0 .5.227.5.5v2c0 .273-.227.5-.5.5a.504.504 0 0 1-.5-.5v-2c0-.273.227-.5.5-.5zm9 7h-2a.504.504 0 0 1-.5-.5c0-.273.227-.5.5-.5h2c.273 0 .5.227.5.5s-.227.5-.5.5zm-21 0h-2a.504.504 0 0 1-.5-.5c0-.273.227-.5.5-.5h2c.273 0 .5.227.5.5s-.227.5-.5.5z" fill="#4788c7"/></svg>