<svg xmlns="http://www.w3.org/2000/svg" viewBox="0 0 50 50"><path d="M24.156 0c-1.148 0-2.008.941-2.093 2.063-2.352.292-4.165 1.609-5.282 3.28-1.172 1.762-1.648 3.81-1.718 5.657-.157.043-.286.059-.563.219-.414.234-.863.691-1.125 1.312C13.113 13.152 13 13.934 13 15v.781l.75.188s.691.144 1.688.312c.117.684.261 1.332.437 2.032-.469.558-.852 1.289-.719 2.406.149 1.23.489 2.105.969 2.718.266.336.613.368.938.532.175 1.047.468 2.093.906 2.968.25.504.535.97.812 1.344.125.168.305.266.438.407.008 1.234.011 2.261-.094 3.562-.324.785-1.082 1.418-2.313 2.031-1.269.633-2.921 1.219-4.593 1.938-1.672.718-3.39 1.593-4.75 2.968-1.36 1.376-2.32 3.262-2.469 5.75L4.937 46h40.126L45 44.937c-.148-2.488-1.113-4.374-2.469-5.75-1.355-1.374-3.054-2.25-4.718-2.968-1.665-.719-3.297-1.305-4.563-1.938-1.215-.61-1.98-1.226-2.313-2-.109-1.316-.101-2.347-.093-3.593.133-.145.312-.239.437-.407.274-.379.535-.843.782-1.343.425-.875.734-1.926.906-2.97.312-.163.648-.202.906-.53.48-.614.82-1.489.969-2.72.133-1.093-.235-1.816-.688-2.374.188-.59.39-1.227.563-2.094a69.237 69.237 0 0 0 1.531-.281l.75-.188V15c0-1.074-.113-1.844-.375-2.469-.262-.625-.707-1.078-1.125-1.312-.277-.156-.406-.176-.563-.219-.074-1.852-.574-3.93-1.75-5.688-1.117-1.667-2.917-2.953-5.25-3.25C27.852.942 26.992 0 25.845 0zm0 2h1.688c.015 0 .156.063.156.219v.562c-.023.125-.023.25 0 .375V9c-.004.36.184.695.496.879.313.18.695.18 1.008 0 .312-.184.5-.52.496-.879V4.219c1.527.293 2.727 1.015 3.531 2.218.992 1.477 1.469 3.434 1.469 5 0 .297.113.692.344.938.23.246.468.352.625.406.316.11.449.11.531.156.082.047.137.075.25.344.059.145.078.602.125.906a35.59 35.59 0 0 1-1 .188h-.094a1.044 1.044 0 0 0-.281.063c-.027.003-.066.027-.094.03-1.597.25-4.273.532-8.406.532-3.926 0-6.496-.258-8.125-.5-.012 0-.02-.031-.031-.031a1.008 1.008 0 0 0-.844-.125c-.012-.004-.02.004-.031 0-.324-.059-.66-.117-.844-.156.047-.293.066-.735.125-.876.113-.269.164-.296.25-.343.086-.047.215-.074.531-.188a1.57 1.57 0 0 0 .625-.406c.227-.242.344-.64.344-.938 0-1.566.484-3.523 1.469-5 .804-1.207 1.98-1.96 3.531-2.25V9c-.004.36.184.695.496.879.313.18.695.18 1.008 0 .312-.184.5-.52.496-.879V3.125c.023-.125.023-.25 0-.375v-.531c0-.156.14-.219.156-.219zM17.5 16.594c1.879.222 4.383.406 7.5.406 3.148 0 5.68-.18 7.563-.406a18.78 18.78 0 0 1-.438 1.625l-.25.781.688.406c-.043-.027.382.262.28 1.094-.116.98-.35 1.488-.53 1.719-.18.23-.274.218-.282.218l-.843.063-.094.813c-.094.863-.442 1.921-.844 2.75a7.44 7.44 0 0 1-.594 1.03c-.183.255-.375.395-.281.345l-.531.28v.595c0 1.449-.059 2.636.093 4.312v.125l.063.125c.57 1.535 1.89 2.492 3.344 3.219 1.453.726 3.12 1.261 4.687 1.937 1.567.676 3 1.485 4.063 2.563.843.855 1.375 1.988 1.656 3.406H7.25c.281-1.414.809-2.55 1.656-3.406 1.067-1.078 2.52-1.887 4.094-2.563 1.574-.676 3.23-1.21 4.688-1.937 1.457-.727 2.804-1.684 3.375-3.219l.062-.25c.152-1.676.094-2.863.094-4.313v-.593l-.532-.282c.09.047-.125-.09-.312-.343a7.261 7.261 0 0 1-.625-1.032c-.414-.828-.754-1.894-.844-2.75l-.093-.812-.844-.063c-.008 0-.102.012-.282-.218s-.414-.739-.53-1.719c-.098-.832.323-1.121.28-1.094l.657-.406-.188-.719c-.172-.66-.3-1.18-.406-1.687z"/></svg>