<svg xmlns="http://www.w3.org/2000/svg" viewBox="0 0 80 80"><path d="M38 5c-1.094 0-2 .906-2 2v.54c-7.285 1.769-12.715 8.187-12.953 15.944C21.277 24.254 20 25.954 20 28v2h4v5h.016c.03.563.195 1.059.34 1.547.078.273.156.527.206.719.051.191.063.379.063.234 0 1.36 1.14 2.422 2.484 2.469A12.946 12.946 0 0 0 32 49.519v2.731c-1.441.438-4.902 1.555-8.426 3.219-2.3 1.086-4.613 2.394-6.414 3.945C15.36 60.964 14 62.82 14 65v6h52v-6c0-2.18-1.36-4.035-3.16-5.586-1.8-1.55-4.113-2.86-6.414-3.945-3.524-1.664-6.985-2.782-8.426-3.219v-2.727a12.948 12.948 0 0 0 4.89-9.554c1.344-.047 2.485-1.11 2.485-2.469 0 .145.012-.043.063-.234.05-.192.128-.446.207-.72.144-.487.308-.983.34-1.546H56v-5h4v-2c0-2.047-1.277-3.746-3.047-4.516C56.715 15.727 51.285 9.31 44 7.54V7c0-1.094-.906-2-2-2zm0 2h4v2.117l.008.004c.062.5.488.879.992.879a.995.995 0 0 0 .855-.484C49.957 11.133 54.527 16.488 54.953 23A1.003 1.003 0 0 0 54 24c0 .55.45 1 1 1a.869.869 0 0 0 .223-.027l.511.132C57.035 25.437 58 26.59 58 28H22c0-1.41.96-2.563 2.262-2.895l.515-.132A1.002 1.002 0 0 0 26 24c0-.535-.422-.973-.953-1 .426-6.512 4.996-11.867 11.098-13.484.18.3.503.484.855.484.504 0 .93-.379.992-.879L38 9.117zm-1 5c-.55 0-1 .45-1 1s.45 1 1 1 1-.45 1-1-.45-1-1-1zm6 0c-.55 0-1 .45-1 1s.45 1 1 1 1-.45 1-1-.45-1-1-1zm-6 4c-.55 0-1 .45-1 1s.45 1 1 1 1-.45 1-1-.45-1-1-1zm6 0c-.55 0-1 .45-1 1s.45 1 1 1 1-.45 1-1-.45-1-1-1zm-14 7c-.55 0-1 .45-1 1s.45 1 1 1 1-.45 1-1-.45-1-1-1zm22 0c-.55 0-1 .45-1 1s.45 1 1 1 1-.45 1-1-.45-1-1-1zm-25 7h1.262a8.48 8.48 0 0 0-.258 2.031c-.055-.008-.04-.031-.129-.031-.305 0-.598.059-.875.148zm3.332 0h21.309c.21.586.359 1.258.359 2v3.305l1.504-.883c.258-.149.496-.281.664-.367.02-.012.027-.012.047-.024.457.047.785.367.785.77 0 .074-.117.66-.27 1.183-.078.258-.156.52-.222.758-.067.238-.133.406-.133.758 0 .266-.219.5-.563.5H51v1.367c0 5.422-3.91 9.903-9.059 10.82l-.285.047-.215.2c-.39.355-.882.566-1.441.566s-1.05-.21-1.441-.566l-.215-.2-.285-.047C32.91 49.27 29 44.79 29 39.367V38h-1.813c-.343 0-.562-.234-.562-.5 0-.352-.066-.52-.133-.758-.066-.238-.144-.5-.222-.758-.153-.523-.27-1.109-.27-1.183 0-.403.328-.723.785-.77.02.012.027.012.047.024.168.086.406.218.664.367l1.504.883V32.05c0-.762.121-1.438.332-2.051zm23.406 0H54v2.148a2.836 2.836 0 0 0-.875-.148c-.086 0-.07.02-.125.027V32c0-.723-.102-1.395-.262-2zM34.5 34a1.5 1.5 0 1 0 0 3 1.5 1.5 0 0 0 0-3zm11 0a1.5 1.5 0 1 0 0 3 1.5 1.5 0 0 0 0-3zM34 50.824c1.066.559 2.219.989 3.441 1.235.707.562 1.582.941 2.559.941.973 0 1.844-.379 2.547-.938A12.72 12.72 0 0 0 46 50.828V54c0 1.168-.64 2.742-1.738 3.953C43.16 59.164 41.668 60 40 60c-3.5 0-6-2.5-6-6zm-1.984 3.524C32.196 58.676 35.617 62 40 62c2.332 0 4.34-1.164 5.738-2.703 1.313-1.445 2.14-3.223 2.242-4.95 1.602.505 4.555 1.497 7.594 2.934 2.2 1.04 4.387 2.293 5.961 3.649C63.11 62.285 64 63.68 64 65v4H16v-4c0-1.32.89-2.715 2.465-4.07 1.574-1.356 3.762-2.61 5.96-3.649 3.04-1.433 5.99-2.43 7.59-2.933zM20 65c-.55 0-1 .45-1 1s.45 1 1 1 1-.45 1-1-.45-1-1-1zm4 0c-.55 0-1 .45-1 1s.45 1 1 1 1-.45 1-1-.45-1-1-1zm4 0c-.55 0-1 .45-1 1s.45 1 1 1 1-.45 1-1-.45-1-1-1zm4 0c-.55 0-1 .45-1 1s.45 1 1 1 1-.45 1-1-.45-1-1-1zm4 0c-.55 0-1 .45-1 1s.45 1 1 1 1-.45 1-1-.45-1-1-1zm4 0c-.55 0-1 .45-1 1s.45 1 1 1 1-.45 1-1-.45-1-1-1zm4 0c-.55 0-1 .45-1 1s.45 1 1 1 1-.45 1-1-.45-1-1-1zm4 0c-.55 0-1 .45-1 1s.45 1 1 1 1-.45 1-1-.45-1-1-1zm4 0c-.55 0-1 .45-1 1s.45 1 1 1 1-.45 1-1-.45-1-1-1zm4 0c-.55 0-1 .45-1 1s.45 1 1 1 1-.45 1-1-.45-1-1-1zm4 0c-.55 0-1 .45-1 1s.45 1 1 1 1-.45 1-1-.45-1-1-1z"/></svg>