<svg xmlns="http://www.w3.org/2000/svg" viewBox="0 0 50 50"><path d="M24.156 0C23.546 0 23 .54 23 1.219V9c0 .55-.45 1-1 1s-1-.45-1-1V2.219C17.238 3.254 15.152 7.164 15 11c-1.027.367-2 1.2-2 4v.781l.75.188C13.918 16.012 17.953 17 25 17c7.05 0 11.082-.988 11.25-1.031l.75-.188V15c0-2.82-.973-3.645-2-4-.152-3.832-2.242-7.746-6-8.781V9a1 1 0 1 1-2 0V1.219C27 .539 26.457 0 25.844 0zM15.72 18.375c-.395.55-.684 1.32-.563 2.344.266 2.203 1.121 3.11 1.844 3.468.344 1.731 1.297 3.676 2.219 4.594v.469c.008 1.016.004 1.895-.094 3.031-.613 1.407-2.648 2.23-5 3.157-3.906 1.535-8.762 3.433-9.125 9.5L4.937 46h40.126L45 44.937c-.363-6.066-5.2-7.964-9.094-9.5-2.34-.925-4.39-1.75-5-3.156-.097-1.136-.07-2.02-.062-3.031v-.469c.898-.918 1.82-2.86 2.156-4.593.703-.364 1.582-1.274 1.844-3.47.12-1.023-.168-1.792-.563-2.343-1.988.3-5.136.625-9.281.625-4.172 0-7.297-.324-9.281-.625z"/></svg>