<svg xmlns="http://www.w3.org/2000/svg" viewBox="0 0 64 64"><path d="M32.54 29.45c-.231 0-1-.61-1.368-2.071-.371-1.457 0-2.438.137-2.488 0 0 1.421-.25 1.43-.532.019-.41.062-.816.132-1.218.04-.43.02-.868-.062-1.29a16.837 16.837 0 0 1-.098-4.062c.25-2.52 1.73-4 4-4a.765.765 0 0 0 .469-.16 9.539 9.539 0 0 1 5-1.418H43c4.781 0 8.238 2.45 9.66 6.77-.539-.06-.36.32-.75.69-.39.368-1.332.52-1 1.5.422 1.02.66 2.106.711 3.208 0 .281 1.41-.219 1.43-.219a5.005 5.005 0 0 1 .14 3.23c-.39 1.45-1.132 2.07-1.363 2.07a.81.81 0 0 0-.758.56 16.206 16.206 0 0 1-3.379 6.128C51 38 62 46 62 46v11h-9S41.45 40 41 40c-4.078 0-6.371-5.52-7.7-10a.789.789 0 0 0-.76-.55z" fill="#faefde"/><path d="M63 50.75v4.672c0 1.101-.895 2-2 2H13V50.75c0-3.855 2.02-7.43 5.32-9.422l10-6.058c2.551 3.21 5.91 5.5 9.63 5.5 3.722 0 7.081-2.29 9.628-5.5l10 6.058A10.998 10.998 0 0 1 63 50.75z" fill="#ed7899"/><path d="M53 53.75v6.672H3V53.75c0-3.855 2.02-7.43 5.32-9.422l10-6.058c2.551 3.21 5.91 5.5 9.63 5.5 3.722 0 7.081-2.29 9.628-5.5l10 6.058A10.998 10.998 0 0 1 53 53.75z" fill="#c2cde7"/><path d="M17 38h22v13H17z" fill="#d6dff2"/><path d="M49 56H7c-2.21 0-4 1.79-4 4 0 .55.45 1 1 1h48c.55 0 1-.45 1-1 0-2.21-1.79-4-4-4z" fill="#acb7d0"/><path d="M15.07 30.129c-.308 0-1.308-.82-1.832-2.77-.52-1.949-.047-3.27.192-3.328 0 0 1.898-.332 1.922-.71a11.9 11.9 0 0 1 .18-1.63 6.122 6.122 0 0 0-.083-1.73 22.447 22.447 0 0 1-.129-5.441c.34-3.38 2.32-5.391 5.309-5.391.226 0 .45-.074.633-.207A12.756 12.756 0 0 1 28 7h1.059c6.421 0 11 3.281 12.953 9.07-.73-.082-.492.43-1 .93-.512.5-1.782.7-1.301 2a12.911 12.911 0 0 1 1 4.309c0 .382 1.898-.29 1.918-.29.262.09.723 2.372.191 4.333-.53 1.957-1.52 2.77-1.832 2.77-.457.015-.86.32-1 .757-1.777 6-6.437 12.05-11.918 12.05-5.48 0-10.21-6.058-11.992-12.05a1.06 1.06 0 0 0-1.008-.75z" fill="#faefde"/><path d="M41.871 17.148A.77.77 0 0 1 41 16.39v-1.64C41 7.71 36 2 29.86 2h-.051a2.127 2.127 0 0 0-3.61 0h-.05C20 2 15 7.71 15 14.75v1.64a.77.77 0 0 1-.871.758 1.003 1.003 0 0 0-1.129 1v2a.995.995 0 0 0 .871 1l3.559.473c7.02.934 14.133.934 21.148 0l3.563-.473a.998.998 0 0 0 .87-1v-2a1.002 1.002 0 0 0-1.14-1z" fill="#f9e3ae"/><path d="M25 14l.86-11A2.15 2.15 0 0 1 28 1a2.15 2.15 0 0 1 2.14 2l.54 7.621" fill="#faefde"/><path d="M42.578 21.5L28 22.5l-14.79-1V17l4 .54a79.918 79.918 0 0 0 21.59 0l3.778-.54z" fill="#f6d397"/><path d="M41 23.75c1.09-.07 8-.379 9.09-.531l2.101-.2a.72.72 0 0 0 .618-.71V20.89a.725.725 0 0 0-.243-.54.731.731 0 0 0-.566-.171 14.77 14.77 0 0 1-.719-3.121c-.59-4.399-3.91-7.77-7.922-7.77a1.527 1.527 0 0 0-2.597 0" fill="#f6d397"/><path d="M17 51h-6v-9l6-2zm22 0h6v-9l-6-2z" fill="#f9e3ae"/><path d="M59 42.21l-10-6.429a16.506 16.506 0 0 0 2.61-4.902 4.415 4.415 0 0 0 2.12-3c.235-.82.278-1.688.13-2.527a2.58 2.58 0 0 0-.81-1.493v-.14c.462-.32.74-.848.74-1.41V20.89a1.718 1.718 0 0 0-1-1.582 14.944 14.944 0 0 1-.49-2.38c-.628-4.75-4.222-8.37-8.472-8.628a2.529 2.529 0 0 0-3.367-.172A12.078 12.078 0 0 0 30.3 1 3.102 3.102 0 0 0 28-.023c-.875 0-1.71.37-2.3 1.023C19.21 1.29 14 7.34 14 14.75V15c0 .41-.07.809-.078 1.18a2.001 2.001 0 0 0-1.922 2v2a2.001 2.001 0 0 0 1.738 2h.211-.238c-1.652.441-2.34 2.851-1.602 5.61.54 2 1.66 3.5 2.88 4a23.162 23.162 0 0 0 2.722 5.6l-9.223 5.282a12.999 12.999 0 0 0-6.418 10A.931.931 0 0 0 2 53v6a3 3 0 0 0 3 3h46a3 3 0 0 0 3-3v-1h7a3 3 0 0 0 3-3v-3.559a10.999 10.999 0 0 0-5-9.23zM16 14.75c0-6 3.86-10.898 8.852-11.64L24.14 13a1 1 0 0 0 .93 1h.07c.527 0 .96-.406 1-.93l.718-10a1.15 1.15 0 0 1 2.29 0l.472 6.63a1.002 1.002 0 1 0 2-.14l-.46-6.439c5 .738 8.85 5.668 8.85 11.64v1.637l-1.562.211-1.308.16a1 1 0 1 0 .109 2h.121l1.348-.167L42 18.14v2l-3.559.468a78.856 78.856 0 0 1-20.882 0L14 20.121v-2l3.3.438 2.052.25h.109c.55.027 1.02-.395 1.05-.95a1.004 1.004 0 0 0-.952-1.05l-2-.239L16 16.39zm-.23 15.129c-.29 0-1.239-.777-1.73-2.617-.49-1.84-.052-3.09.179-3.153a.566.566 0 0 1 .27.121 1 1 0 0 0 1.512-.8c-.001-.34.07-.668.108-1l1.153.148A80.27 80.27 0 0 0 28 23.29c3.582 0 7.16-.234 10.71-.71l1.18-.157c0 .316.07.648.09 1a.99.99 0 0 0 .543.836.998.998 0 0 0 .997-.047.625.625 0 0 1 .27-.121c.241.082.679 1.3.179 3.148-.5 1.852-1.438 2.621-1.73 2.621a1.004 1.004 0 0 0-1 .72C37.588 36.261 33.178 42 28 42c-5.18 0-9.59-5.738-11.27-11.398a1 1 0 0 0-.96-.723zM44 43v6c0 .55-.45 1-1 1h-3v-9.371zm-16 1c3.5 0 6.66-2.09 9.09-5.059l.91.528V50H18V39.469l.91-.528C21.34 41.911 24.5 44 28 44zm-15 6c-.55 0-1-.45-1-1v-6l4-2.32V50zm39 9c0 .55-.45 1-1 1H5c-.55 0-1-.45-1-1v-5.078c0-3.926 2.094-7.555 5.488-9.524l.512-.296V49a3 3 0 0 0 3 3h30a3 3 0 0 0 3-3v-4.898l.512.296A11.013 11.013 0 0 1 52 53.922zm10-4c0 .55-.45 1-1 1h-7v-2c.55 0 1-.45 1-1v-2c0-.55-.45-1-1-1a.955.955 0 0 0-.559.191 13.005 13.005 0 0 0-5.93-7.52l-9.21-5.343A23.06 23.06 0 0 0 41 31.73c1.23-.46 2.352-2 2.879-4 .742-2.75 0-5.16-1.598-5.609h-.242.211a1.997 1.997 0 0 0 1.738-2v-2c0-1.105-.894-2-2-2V14.75c0-1.563-.242-3.121-.718-4.61a.988.988 0 0 0 .34-.32.548.548 0 0 1 .91 0c.199.29.527.461.878.461 3.43 0 6.41 3 6.93 6.91a15.72 15.72 0 0 0 .774 3.329.988.988 0 0 0 .75.64V22L50 22.23c-1.059.141-2.14.25-3.2.32a1 1 0 1 0 .07 2h.071a53.52 53.52 0 0 0 3.329-.34l.808-.108c-.09.562.23 1.113.762 1.32a2.88 2.88 0 0 1 0 1.95 2.862 2.862 0 0 1-1 1.679.996.996 0 0 0-1 .719c-1 3.27-3.09 6.16-5.399 7.37a1 1 0 1 0 .918 1.77 10.377 10.377 0 0 0 2.23-1.629l10.22 6.61A8.995 8.995 0 0 1 62 51.44z" fill="#8d6c9f"/><path d="M58 51v2c0 .55.45 1 1 1s1-.45 1-1v-2c0-.55-.45-1-1-1s-1 .45-1 1zm-15 3c-.55 0-1 .45-1 1v2c0 .55.45 1 1 1s1-.45 1-1v-2c0-.55-.45-1-1-1zm5 0c-.55 0-1 .45-1 1v2c0 .55.45 1 1 1s1-.45 1-1v-2c0-.55-.45-1-1-1zm-10 0c-.55 0-1 .45-1 1v2c0 .55.45 1 1 1s1-.45 1-1v-2c0-.55-.45-1-1-1zm-5 0c-.55 0-1 .45-1 1v2c0 .55.45 1 1 1s1-.45 1-1v-2c0-.55-.45-1-1-1zm-5 0c-.55 0-1 .45-1 1v2c0 .55.45 1 1 1s1-.45 1-1v-2c0-.55-.45-1-1-1zm-5 0c-.55 0-1 .45-1 1v2c0 .55.45 1 1 1s1-.45 1-1v-2c0-.55-.45-1-1-1zm-5 0c-.55 0-1 .45-1 1v2c0 .55.45 1 1 1s1-.45 1-1v-2c0-.55-.45-1-1-1zm-5 0c-.55 0-1 .45-1 1v2c0 .55.45 1 1 1s1-.45 1-1v-2c0-.55-.45-1-1-1zm-5 0c-.55 0-1 .45-1 1v2c0 .55.45 1 1 1s1-.45 1-1v-2c0-.55-.45-1-1-1z" fill="#8d6c9f"/></svg>