<svg xmlns="http://www.w3.org/2000/svg" viewBox="0 0 80 80"><path d="M14.559 13.547a.984.984 0 0 0-.723.289 1 1 0 0 0 0 1.414.987.987 0 0 0 1.414 0 .987.987 0 0 0 0-1.414.976.976 0 0 0-.691-.29zm50.91 0a.958.958 0 0 0-.719.293.995.995 0 0 0 0 1.41.995.995 0 0 0 1.41 0 .995.995 0 0 0 0-1.41.98.98 0 0 0-.691-.293zM17 16c-.55 0-1 .45-1 1s.45 1 1 1 1-.45 1-1-.45-1-1-1zm46 0c-.55 0-1 .45-1 1s.45 1 1 1 1-.45 1-1-.45-1-1-1zm-50.813.16a1.012 1.012 0 0 0-.789.367.996.996 0 0 0-.222.735c.027.261.156.504.36.675a.998.998 0 0 0 .734.22.996.996 0 0 0 .54-1.766 1.007 1.007 0 0 0-.623-.23zm55.653 0a1.001 1.001 0 0 0-.785 1.637 1 1 0 0 0 1.41.137 1.002 1.002 0 0 0-.625-1.774zm2.1 2.84a.995.995 0 0 0-.84 1.55.997.997 0 0 0 1.387.278c.457-.308.582-.926.278-1.387A.995.995 0 0 0 69.94 19zm-59.855 0c-.34-.008-.66.16-.852.441a1.003 1.003 0 0 0 .278 1.387A1 1 0 1 0 10.086 19zM20 19c-.55 0-1 .45-1 1s.45 1 1 1 1-.45 1-1-.45-1-1-1zm40 0c-.55 0-1 .45-1 1s.45 1 1 1 1-.45 1-1-.45-1-1-1zm-37 3c-.55 0-1 .45-1 1s.45 1 1 1 1-.45 1-1-.45-1-1-1zm34 0c-.55 0-1 .45-1 1s.45 1 1 1 1-.45 1-1-.45-1-1-1zm-48.727.031a1.004 1.004 0 0 0-.906.528 1 1 0 1 0 1.356-.414 1.007 1.007 0 0 0-.45-.114zm63.485 0a.98.98 0 0 0-.48.114 1 1 0 1 0 .941 1.766.995.995 0 0 0 .41-1.352.992.992 0 0 0-.871-.528zM25.875 24.86a.96.96 0 0 0-.723.293.995.995 0 0 0 0 1.41.995.995 0 0 0 1.41 0 .995.995 0 0 0 0-1.41.977.977 0 0 0-.687-.293zm28.281 0a1.003 1.003 0 0 0-.722.293 1 1 0 1 0 1.414 0 1.003 1.003 0 0 0-.692-.293zm19.11.36a1.003 1.003 0 0 0-.93 1.387 1 1 0 1 0 .93-1.387zm-66.504.004a.997.997 0 0 0-.402 1.922.994.994 0 0 0 1.304-.54 1.004 1.004 0 0 0-.539-1.308 1.058 1.058 0 0 0-.363-.074zm49.879 2.664a.974.974 0 0 0-.567.168.989.989 0 0 0-.426.636 1.001 1.001 0 0 0 1.54 1.027 1.001 1.001 0 1 0-.547-1.832zm-33.25.004a.995.995 0 0 0-.852.441 1 1 0 1 0 1.664 1.11.992.992 0 0 0-.277-1.383.934.934 0 0 0-.535-.168zm51.062.656c-.098 0-.2.015-.293.047a.995.995 0 0 0-.668 1.246.996.996 0 0 0 1.246.664.998.998 0 0 0 .668-1.246 1.006 1.006 0 0 0-.953-.711zM5.57 28.55a.997.997 0 0 0-.976.71.996.996 0 0 0 .664 1.247 1.005 1.005 0 0 0 1.25-.664 1.004 1.004 0 0 0-.938-1.293zM40 31c-4.957 0-9 4.043-9 9s4.043 9 9 9 9-4.043 9-9-4.043-9-9-9zm-18.457.344a.999.999 0 0 0-.945.62 1 1 0 1 0 .945-.621zm36.941 0a.999.999 0 0 0-.93 1.383 1 1 0 1 0 .93-1.383zm-53.765.633a1 1 0 1 0-.053 2 1 1 0 0 0 .053-2zm70.594 0a.998.998 0 0 0-.984 1.195.998.998 0 0 0 1.812.36.996.996 0 0 0-.829-1.555zM40 33c3.879 0 7 3.121 7 7s-3.121 7-7 7-7-3.121-7-7 3.121-7 7-7zm19.621 2.098a.998.998 0 0 0-.984 1.195.998.998 0 0 0 1.175.785.998.998 0 0 0 .786-1.176c-.094-.465-.5-.8-.977-.804zm-39.21 0a.996.996 0 0 0-1.005.808.994.994 0 0 0 .782 1.172.996.996 0 0 0 1.175-.781.996.996 0 0 0-.785-1.176 1.16 1.16 0 0 0-.168-.023zm-16.208.37a1.004 1.004 0 0 0-1.023.907.999.999 0 0 0 .898 1.09 1.002 1.002 0 0 0 1.094-.899 1.009 1.009 0 0 0-.899-1.093c-.023 0-.046 0-.07-.004zm71.625.005a.822.822 0 0 0-.098.007.994.994 0 0 0-.898 1.09 1 1 0 1 0 .996-1.098zM4 39c-.55 0-1 .45-1 1s.45 1 1 1 1-.45 1-1-.45-1-1-1zm16 0c-.55 0-1 .45-1 1s.45 1 1 1 1-.45 1-1-.45-1-1-1zm40 0c-.55 0-1 .45-1 1s.45 1 1 1 1-.45 1-1-.45-1-1-1zm16 0c-.55 0-1 .45-1 1s.45 1 1 1 1-.45 1-1-.45-1-1-1zm-.145 3.527a1.003 1.003 0 0 0-1.027.899.995.995 0 0 0 .902 1.094 1 1 0 0 0 .872-1.63 1.026 1.026 0 0 0-.68-.359c-.02-.004-.043-.004-.067-.004zm-71.683.004a.998.998 0 0 0-.992 1.094.998.998 0 1 0 1.766.54 1 1 0 0 0-.773-1.633zm55.469.371a.993.993 0 0 0-1.004.801c-.051.262.004.531.148.754.149.219.38.371.637.422a.996.996 0 0 0 1.176-.785.984.984 0 0 0-.149-.75.998.998 0 0 0-.808-.442zm-39.25 0a.998.998 0 0 0-.984 1.195.998.998 0 1 0 1.957-.39.999.999 0 0 0-.973-.805zM4.695 46.023a.997.997 0 0 0-.984 1.195.998.998 0 0 0 1.812.36 1 1 0 0 0-.828-1.555zm70.64 0a1 1 0 1 0-.052 2.001 1 1 0 0 0 .053-2zm-16.835.63a.995.995 0 0 0-.945.617c-.211.511.03 1.093.539 1.308a1.002 1.002 0 0 0 1.308-.543.997.997 0 0 0-.543-1.305.943.943 0 0 0-.359-.078zm-36.969.003a.999.999 0 0 0-.934 1.379 1.003 1.003 0 0 0 1.852-.765 1 1 0 0 0-.918-.614zM5.555 49.45a.999.999 0 0 0-.96 1.29 1 1 0 1 0 .96-1.29zm68.918.004a1.002 1.002 0 0 0-.313 1.957.996.996 0 0 0 1.246-.664.996.996 0 0 0-.664-1.246 1.026 1.026 0 0 0-.27-.047zm-51.09.656c-.203 0-.399.059-.567.172a.999.999 0 1 0 1.387.274 1.001 1.001 0 0 0-.82-.446zm33.265 0a.999.999 0 0 0-.574 1.832 1 1 0 0 0 1.535-1.027.998.998 0 0 0-.96-.805zm16.633 2.664a1 1 0 0 0-.945 1.383 1 1 0 0 0 .543.543 1.005 1.005 0 0 0 1.305-.543 1.003 1.003 0 0 0-.903-1.383zm-66.531.004a.956.956 0 0 0-.39.078.98.98 0 0 0-.544.54 1.002 1.002 0 0 0 1.309 1.309c.508-.216.75-.798.54-1.31a1 1 0 0 0-.915-.617zm19.121.364a.988.988 0 0 0-.719.293.987.987 0 0 0 0 1.414.995.995 0 0 0 1.41 0 .987.987 0 0 0 0-1.414.996.996 0 0 0-.69-.293zm28.285 0a.991.991 0 0 0-.722.297 1 1 0 1 0 .723-.297zM8.258 55.969a1.001 1.001 0 0 0-.89 1.469 1 1 0 0 0 1.765-.938 1.001 1.001 0 0 0-.875-.531zm63.508.004a1.002 1.002 0 0 0-.903.527 1 1 0 1 0 .902-.527zM23 56c-.55 0-1 .45-1 1s.45 1 1 1 1-.45 1-1-.45-1-1-1zm34 0c-.55 0-1 .45-1 1s.45 1 1 1 1-.45 1-1-.45-1-1-1zm12.953 3a1 1 0 1 0 .535.168.934.934 0 0 0-.535-.168zm-59.875 0a.962.962 0 0 0-.562.168 1 1 0 1 0 1.535 1.027 1.025 1.025 0 0 0-.149-.754 1.005 1.005 0 0 0-.824-.441zM20 59c-.55 0-1 .45-1 1s.45 1 1 1 1-.45 1-1-.45-1-1-1zm40 0c-.55 0-1 .45-1 1s.45 1 1 1 1-.45 1-1-.45-1-1-1zm-47.813 2.836a1.012 1.012 0 0 0-.652.227 1.002 1.002 0 0 0 1.274 1.546c.203-.168.332-.41.359-.675a.986.986 0 0 0-.223-.73.993.993 0 0 0-.758-.368zm55.657.004a1 1 0 1 0 .621.227 1.003 1.003 0 0 0-.621-.227zM17 62c-.55 0-1 .45-1 1s.45 1 1 1 1-.45 1-1-.45-1-1-1zm46 0c-.55 0-1 .45-1 1s.45 1 1 1 1-.45 1-1-.45-1-1-1zm-48.441 2.453a.991.991 0 0 0-.723.297 1 1 0 1 0 .723-.297zm50.91 0c-.27 0-.531.106-.719.297a.995.995 0 0 0 0 1.41.995.995 0 0 0 1.41 0 .995.995 0 0 0 0-1.41.983.983 0 0 0-.691-.297z"/></svg>