<svg xmlns="http://www.w3.org/2000/svg" viewBox="0 0 40 40"><path d="M11.906 37.5a4.948 4.948 0 0 1-2.93-.953C4.227 33.016 1.5 27.609 1.5 21.715c0-10.203 8.3-18.5 18.5-18.5.707 0 1.426.039 2.133.12 8.383.935 15.207 7.688 16.226 16.056.817 6.699-1.914 13.105-7.3 17.129a4.975 4.975 0 0 1-2.97.98z" fill="#dff0fe"/><path d="M20 3.715c.688 0 1.387.039 2.078.113 8.152.914 14.79 7.48 15.781 15.621.797 6.524-1.859 12.754-7.101 16.672A4.485 4.485 0 0 1 28.09 37H11.906c-.957 0-1.89-.305-2.629-.855C4.652 32.71 2 27.449 2 21.715c0-9.926 8.074-18 18-18m0-1c-10.492 0-19 8.504-19 19 0 6.246 3.023 11.773 7.68 15.234A5.403 5.403 0 0 0 11.906 38H28.09a5.458 5.458 0 0 0 3.265-1.078c5.22-3.899 8.375-10.399 7.5-17.594-1.05-8.601-8.054-15.527-16.667-16.492A19.808 19.808 0 0 0 20 2.715z" fill="#4788c7"/><path d="M11.906 37.5a4.948 4.948 0 0 1-2.93-.953C4.227 33.016 1.5 27.609 1.5 21.715c0-3.242.848-6.418 2.457-9.215h32.078a18.025 18.025 0 0 1 2.324 6.89c.817 6.7-1.914 13.106-7.3 17.13a4.975 4.975 0 0 1-2.97.98z" fill="#98ccfd"/><path d="M35.746 13a17.503 17.503 0 0 1 2.117 6.45c.793 6.523-1.86 12.753-7.105 16.671A4.485 4.485 0 0 1 28.09 37H11.906c-.957 0-1.89-.305-2.629-.855C4.652 32.71 2 27.449 2 21.715c0-3.055.777-6.059 2.25-8.715h31.496m.574-1H3.672A18.908 18.908 0 0 0 1 21.715c0 6.246 3.023 11.773 7.68 15.234A5.403 5.403 0 0 0 11.906 38H28.09a5.458 5.458 0 0 0 3.265-1.078c5.22-3.899 8.375-10.399 7.5-17.594A18.602 18.602 0 0 0 36.32 12z" fill="#4788c7"/><path d="M11 5.5a1.5 1.5 0 0 1 0-3h18a1.5 1.5 0 0 1 0 3z" fill="#dff0fe"/><path d="M29 3c.55 0 1 .45 1 1s-.45 1-1 1H11c-.55 0-1-.45-1-1s.45-1 1-1h18m0-1H11a1.999 1.999 0 1 0 0 4h18a1.999 1.999 0 1 0 0-4z" fill="#4788c7"/><path d="M33 20.5a1.5 1.5 0 1 1-3 0 1.5 1.5 0 0 1 3 0z" fill="#fff"/><path d="M16.5 29.418c-1.145-.473-2.25-1.074-3.11-1.688a7.8 7.8 0 0 1-3.39.77h-.738l1.199-3-1.2-3H10c1.531 0 2.648.36 3.379.719 1.828-1.348 4.953-2.719 7.836-2.719 4.687 0 7.125 4.574 7.226 4.77l.11.207-.09.218c-.086.196-2.106 4.805-7.246 4.805-.469 0-.98-.047-1.524-.137-1.199.848-2.539 1.114-2.597 1.125l-.594.117z" fill="#dff0fe"/><path d="M21.215 21C25.652 21 28 25.5 28 25.5S26.082 30 21.215 30a9.01 9.01 0 0 1-1.649-.168C18.406 30.727 17 31 17 31v-1.918c-1.383-.543-2.66-1.254-3.559-1.937A7.308 7.308 0 0 1 10 28l1-2.5-1-2.5c1.668 0 2.79.45 3.426.809 1.726-1.36 4.89-2.809 7.789-2.809m0-1c-2.89 0-5.934 1.273-7.895 2.64-.773-.335-1.879-.64-3.32-.64H8.523l.547 1.371.852 2.129-.852 2.129L8.523 29H10a8.345 8.345 0 0 0 3.34-.695A17.08 17.08 0 0 0 16 29.75v2.465l1.191-.235a8.086 8.086 0 0 0 2.618-1.093c.5.074.968.113 1.406.113 5.465 0 7.617-4.898 7.707-5.11l.183-.433-.218-.418c-.11-.207-2.684-5.039-7.672-5.039z" fill="#4788c7"/><path d="M25 25a1.999 1.999 0 1 1-4 0 1.999 1.999 0 1 1 4 0z" fill="#fff"/><path d="M24 25c0 .55-.45 1-1 1s-1-.45-1-1 .45-1 1-1 1 .45 1 1z" fill="#4788c7"/><path d="M24.512 13A2.475 2.475 0 0 0 24 14.5c0 1.383 1.117 2.5 2.5 2.5s2.5-1.117 2.5-2.5c0-.566-.195-1.082-.512-1.5z" fill="#fff"/></svg>