<svg xmlns="http://www.w3.org/2000/svg" viewBox="0 0 80 80"><path d="M21.5 10a3.514 3.514 0 0 0-3.5 3.5c0 1.27.723 2.34 1.746 2.953C12.645 22.32 8 31.074 8 41c0 12.746 7.46 23.762 18.254 28.902l.207.098h27.078l.207-.098C64.54 64.762 72 53.746 72 41c0-9.926-4.645-18.68-11.746-24.547C61.277 15.84 62 14.77 62 13.5c0-1.922-1.578-3.5-3.5-3.5zm0 2h37c.84 0 1.5.66 1.5 1.5s-.66 1.5-1.5 1.5h-3.25l2.46 1.809A30.098 30.098 0 0 1 63.185 22H16.816a30.098 30.098 0 0 1 5.473-5.191L24.75 15H21.5c-.84 0-1.5-.66-1.5-1.5s.66-1.5 1.5-1.5zm4.5 3c-.55 0-1 .45-1 1s.45 1 1 1 1-.45 1-1-.45-1-1-1zm4 0c-.55 0-1 .45-1 1s.45 1 1 1 1-.45 1-1-.45-1-1-1zm4 0c-.55 0-1 .45-1 1s.45 1 1 1 1-.45 1-1-.45-1-1-1zm4 0c-.55 0-1 .45-1 1s.45 1 1 1 1-.45 1-1-.45-1-1-1zm4 0c-.55 0-1 .45-1 1s.45 1 1 1 1-.45 1-1-.45-1-1-1zm4 0c-.55 0-1 .45-1 1s.45 1 1 1 1-.45 1-1-.45-1-1-1zm4 0c-.55 0-1 .45-1 1s.45 1 1 1 1-.45 1-1-.45-1-1-1zm4 0c-.55 0-1 .45-1 1s.45 1 1 1 1-.45 1-1-.45-1-1-1zm-38.7 9h49.4A29.77 29.77 0 0 1 70 41c0 11.895-6.922 22.145-16.941 27H26.94C16.921 63.145 10 52.895 10 41a29.77 29.77 0 0 1 5.3-17zM56 28c-.55 0-1 .45-1 1s.45 1 1 1 1-.45 1-1-.45-1-1-1zm-18.926 4.844l-9.761 4.883 2.453 2.453c-1.43.816-2.778 1.648-3.891 2.433C23.883 40.918 21.145 39 18 39h-1v1c0 3.73 2.047 5.582 2.855 6.238-.3.735-.855 2.27-.855 4.762v1h1c2.758 0 4.824-1.352 6.313-2.672 1.457.879 3.218 1.8 5.09 2.629L29.378 56H31c3.102 0 5.2-1.04 6.61-2.113.46.058.921.113 1.39.113 8.668 0 11.938-8.648 11.938-8.648l.14-.38-.156-.367s-2.434-5.496-8.531-7.117c-1.926-2.367-4.832-4.32-4.832-4.32zM52 34c-.55 0-1 .45-1 1s.45 1 1 1 1-.45 1-1-.45-1-1-1zm-15.105 1.172c.625.441 2.753 1.976 4.125 3.75l.218.285.352.078c5.058 1.164 7.027 5.25 7.273 5.79C48.395 46.19 45.656 52 39 52c-.445 0-.938-.047-1.453-.125l-.442-.063-.343.29c-.817.687-2.215 1.28-3.996 1.597l1.347-2.695-1.004-.406c-2.336-.946-4.617-2.211-6.355-3.285l-.664-.415-.563.551c-1.035 1.016-2.57 1.895-4.351 2.254.226-1.898.719-3.254.719-3.254l.394-.793-.734-.488s-1.836-1.344-2.344-3.965c2.156.465 4.406 1.973 5.957 3.36l.598.53.652-.468c1.46-1.05 3.371-2.313 5.406-3.379l1.207-.633-2.343-2.34zM55 39c-.55 0-1 .45-1 1s.45 1 1 1 1-.45 1-1-.45-1-1-1zm-11.5 4a1.5 1.5 0 1 0 0 3 1.5 1.5 0 0 0 0-3z"/></svg>