<svg xmlns="http://www.w3.org/2000/svg" viewBox="0 0 50 50"><path d="M10 4C8.355 4 7 5.355 7 7v1h.414c.176.434.422.832.727 1.156A23.102 23.102 0 0 0 2 24.863a23.151 23.151 0 0 0 11.438 20l.234.137h22.656l.234-.137a23.151 23.151 0 0 0 11.438-20 23.102 23.102 0 0 0-6.14-15.707c.304-.324.55-.722.722-1.156H43V7c0-1.645-1.355-3-3-3zm0 2h30c.555 0 1 .445 1 1 0 .555-.445 1-1 1H10c-.555 0-1-.445-1-1 0-.555.445-1 1-1zm.145 4h29.71a21.56 21.56 0 0 1 3.766 5.176c-.746-.125-1.578-.203-2.023-.176-1.79 0-3.618.25-5.446.61C30.582 16.737 24.891 19 19.598 19c-5.59 0-9.883-1.059-13.7-2.82A21.374 21.374 0 0 1 10.145 10zM34.5 19a1.5 1.5 0 1 1 0 3 1.5 1.5 0 0 1 0-3zm-3 4a1.5 1.5 0 1 1 0 3 1.5 1.5 0 0 1 0-3zM14 27c2.457 1.25 3.438 3.75 3.438 3.75l.082.188c.722-.653 3.492-2.938 6.925-2.938C27.555 28 32 30.223 32 31.559 32 32.887 27.555 36 24.445 36c-2.996 0-5.16-1.64-6.914-2.906-.062.14-.105.238-.11.234C17.048 34.332 15.474 36.375 14 37c.492-.625 1-3.555 1-5 0-1.457-.508-4.375-1-5zm21 0c.55 0 1 .45 1 1s-.45 1-1 1-1-.45-1-1 .45-1 1-1zm-9 3c-.55 0-1 .45-1 1s.45 1 1 1 1-.45 1-1-.45-1-1-1z"/></svg>