<svg xmlns="http://www.w3.org/2000/svg" viewBox="0 0 80 80"><path d="M35 6v2.414L37.586 11H11v58h58V48.898c1.678-.254 3-1.654 3-3.398 0-1.921-1.579-3.5-3.5-3.5H40V29.414l2.418-2.418A1 1 0 0 0 42.5 27H51a1 1 0 0 0 .316-.05l4.36-1.454A2 2 0 0 0 57 26a2 2 0 0 0 2-2 2 2 0 0 0-2-2 2 2 0 0 0-1.957 1.598L50.838 25h-6.424L48 21.414V18h6a1 1 0 0 0 .447-.105l2.453-1.227A2 2 0 0 0 58 17a2 2 0 0 0 2-2 2 2 0 0 0-2-2 2 2 0 0 0-1.994 1.879L53.764 16H48v-4.586l3-3V6H35zm2.414 2h11.172L46 10.586v6.246a1 1 0 0 0 0 .326v3.428l-8 8V44a1 1 0 0 0 1 1 1 1 0 0 0 1-1h28.5c.84 0 1.5.66 1.5 1.5s-.66 1.5-1.5 1.5H67a1 1 0 0 0-1 1 1 1 0 0 0 1 1v18H13V13h25a1 1 0 0 0 1 1 1 1 0 0 0 1-1v-2.414L37.414 8zM39 16a1 1 0 0 0-1 1 1 1 0 0 0 1 1 1 1 0 0 0 1-1 1 1 0 0 0-1-1zm0 4a1 1 0 0 0-1 1 1 1 0 0 0 1 1 1 1 0 0 0 1-1 1 1 0 0 0-1-1zm0 4a1 1 0 0 0-1 1 1 1 0 0 0 1 1 1 1 0 0 0 1-1 1 1 0 0 0-1-1zM21 37a1 1 0 0 0-1 1 1 1 0 0 0 1 1 1 1 0 0 0 1-1 1 1 0 0 0-1-1zm4 0a1 1 0 0 0-1 1 1 1 0 0 0 1 1 1 1 0 0 0 1-1 1 1 0 0 0-1-1zm-4 7a1 1 0 0 0-1 1 1 1 0 0 0 1 1 1 1 0 0 0 1-1 1 1 0 0 0-1-1zm4 0a1 1 0 0 0-1 1 1 1 0 0 0 1 1 1 1 0 0 0 1-1 1 1 0 0 0-1-1zm14 3a1 1 0 0 0-1 1 1 1 0 0 0 1 1 1 1 0 0 0 1-1 1 1 0 0 0-1-1zm4 0a1 1 0 0 0-1 1 1 1 0 0 0 1 1 1 1 0 0 0 1-1 1 1 0 0 0-1-1zm4 0a1 1 0 0 0-1 1 1 1 0 0 0 1 1 1 1 0 0 0 1-1 1 1 0 0 0-1-1zm4 0a1 1 0 0 0-1 1 1 1 0 0 0 1 1 1 1 0 0 0 1-1 1 1 0 0 0-1-1zm4 0a1 1 0 0 0-1 1 1 1 0 0 0 1 1 1 1 0 0 0 1-1 1 1 0 0 0-1-1zm4 0a1 1 0 0 0-1 1 1 1 0 0 0 1 1 1 1 0 0 0 1-1 1 1 0 0 0-1-1zm4 0a1 1 0 0 0-1 1 1 1 0 0 0 1 1 1 1 0 0 0 1-1 1 1 0 0 0-1-1zm-40 5c-2.75 0-5 2.25-5 5s2.25 5 5 5 5-2.25 5-5-2.25-5-5-5zm0 2c1.669 0 3 1.331 3 3s-1.331 3-3 3-3-1.331-3-3 1.331-3 3-3z"/></svg>