<svg xmlns="http://www.w3.org/2000/svg" viewBox="0 0 64 64"><linearGradient id="a" gradientUnits="userSpaceOnUse" x1="31.5" y1="40" x2="31.5" y2="45" spreadMethod="reflect"><stop offset="0" stop-color="#6dc7ff"/><stop offset="1" stop-color="#e6abff"/></linearGradient><path d="M52 45H11a5 5 0 0 1 5-5h31a5 5 0 0 1 5 5z" fill="url(#a)"/><linearGradient id="b" gradientUnits="userSpaceOnUse" x1="32" y1="16" x2="32" y2="58" spreadMethod="reflect"><stop offset="0" stop-color="#1a6dff"/><stop offset="1" stop-color="#c822ff"/></linearGradient><path d="M53 16c-1.1 0-2 .9-2 2 0 .74.4 1.38 1 1.73V25H12v-5.27c.6-.35 1-.99 1-1.73 0-1.1-.9-2-2-2s-2 .9-2 2c0 .74.4 1.38 1 1.73V58h2v-6h40v6h2V19.73c.6-.35 1-.99 1-1.73 0-1.1-.9-2-2-2zM40 27h5v18h-5V27zm-7 0h5v18h-5V27zm-7 0h5v18h-5V27zm-7 0h5v18h-5V27zm-7 0h5v18h-5V27zm40 23H12v-3h40v3zm0-5h-5V27h5v18z" fill="url(#b)"/><linearGradient id="c" gradientUnits="userSpaceOnUse" x1="32.067" y1="8.125" x2="32.067" y2="87.125" spreadMethod="reflect"><stop offset="0" stop-color="#1a6dff"/><stop offset="1" stop-color="#c822ff"/></linearGradient><path d="M45.98 14.77c-.38.4-1.02.42-1.42.04a16.18 16.18 0 0 0-4.49-3.02v4.29h-2V11a19.74 19.74 0 0 0-5.07-.9V17h-2v-6.89c-1.72.09-3.37.39-4.93.89v5.08h-2v-4.3a16.41 16.41 0 0 0-4.5 3.03c-.19.18-.44.27-.69.27-.26 0-.53-.1-.73-.31-.37-.4-.36-1.03.04-1.41C21.55 10.19 26.06 8.34 31 8.1V6h2v2.1c4.99.2 9.55 2.06 12.94 5.25.4.38.42 1.02.04 1.42z" fill="url(#c)"/><linearGradient id="d" gradientUnits="userSpaceOnUse" x1="39.066" y1="14.05" x2="39.066" y2="18.115" spreadMethod="reflect"><stop offset="0" stop-color="#6dc7ff"/><stop offset="1" stop-color="#e6abff"/></linearGradient><path d="M39.311 14.2l.114.565c.089.442.434.787.876.876l.565.114c.267.054.267.436 0 .49l-.566.114a1.118 1.118 0 0 0-.876.876l-.113.565c-.054.267-.436.267-.49 0l-.114-.565a1.118 1.118 0 0 0-.876-.876l-.565-.114c-.267-.054-.267-.436 0-.49l.565-.114c.442-.089.787-.434.876-.876l.114-.565c.054-.267.436-.267.49 0z" fill="url(#d)"/><linearGradient id="e" gradientUnits="userSpaceOnUse" x1="32.066" y1="15.075" x2="32.066" y2="21.173" spreadMethod="reflect"><stop offset="0" stop-color="#6dc7ff"/><stop offset="1" stop-color="#e6abff"/></linearGradient><path d="M32.433 15.301l.171.847a1.68 1.68 0 0 0 1.314 1.314l.847.171c.401.081.401.654 0 .735l-.847.171a1.68 1.68 0 0 0-1.314 1.314l-.171.847c-.081.401-.654.401-.735 0l-.171-.847a1.68 1.68 0 0 0-1.314-1.314l-.847-.171c-.401-.081-.401-.654 0-.735l.847-.171a1.68 1.68 0 0 0 1.314-1.314l.171-.847c.081-.401.654-.401.735 0z" fill="url(#e)"/><linearGradient id="f" gradientUnits="userSpaceOnUse" x1="25.066" y1="14.05" x2="25.066" y2="18.115" spreadMethod="reflect"><stop offset="0" stop-color="#6dc7ff"/><stop offset="1" stop-color="#e6abff"/></linearGradient><path d="M25.311 14.2l.114.565c.089.442.434.787.876.876l.565.114c.267.054.267.436 0 .49l-.566.114a1.118 1.118 0 0 0-.876.876l-.113.565c-.054.267-.436.267-.49 0l-.114-.565a1.118 1.118 0 0 0-.876-.876l-.565-.114c-.267-.054-.267-.436 0-.49l.565-.114c.442-.089.787-.434.876-.876l.114-.565c.054-.267.436-.267.49 0z" fill="url(#f)"/></svg>