<svg xmlns="http://www.w3.org/2000/svg" viewBox="0 0 64 64"><path d="M31 6.594a3 3 0 0 0-1.906.68l-26 21.355A2.983 2.983 0 0 0 2 30.945v2.942c0 .777.441 1.468 1.148 1.804.274.133.567.196.86.196.449 0 .894-.157 1.262-.457l.73-.602V56H3c-.555 0-1 .445-1 1 0 .555.445 1 1 1h56c.555 0 1-.445 1-1 0-.555-.445-1-1-1h-3V34.828l.73.602a1.978 1.978 0 0 0 2.125.261A1.985 1.985 0 0 0 60 33.887v-2.942a2.98 2.98 0 0 0-1.094-2.316l-26-21.356A3.008 3.008 0 0 0 31 6.593zm0 1.996c.227 0 .45.074.637.226l26 21.36a.99.99 0 0 1 .363.77v2.94L32.27 12.75a2.002 2.002 0 0 0-2.54 0L4 33.887v-2.942c0-.3.133-.582.367-.773L30.363 8.816c.188-.148.41-.226.637-.226zm0 5.707l23 18.89V46H42v-3c0-6.07-4.93-11-11-11s-11 4.93-11 11v3H8V33.187zM27 26c-.555 0-1 .445-1 1 0 .555.445 1 1 1h8c.555 0 1-.445 1-1 0-.555-.445-1-1-1zm4 8c4.96 0 9 4.04 9 9v12.95H22V43c0-4.96 4.04-9 9-9zM8 48h12v8H8zm34 0h12v8H42zm-31 2c-.555 0-1 .445-1 1v2c0 .555.445 1 1 1 .555 0 1-.445 1-1v-2c0-.555-.445-1-1-1zm5 0c-.555 0-1 .445-1 1v2c0 .555.445 1 1 1 .555 0 1-.445 1-1v-2c0-.555-.445-1-1-1zm30 0c-.555 0-1 .445-1 1v2c0 .555.445 1 1 1 .555 0 1-.445 1-1v-2c0-.555-.445-1-1-1zm5 0c-.555 0-1 .445-1 1v2c0 .555.445 1 1 1 .555 0 1-.445 1-1v-2c0-.555-.445-1-1-1z"/></svg>