<svg xmlns="http://www.w3.org/2000/svg" viewBox="0 0 64 64"><path d="M32 .746c-.781 0-1.555.285-2.121.848L1.594 29.879A2.978 2.978 0 0 0 .719 32c0 .8.308 1.555.875 2.121l28.285 28.285c.566.567 1.32.875 2.121.875.8 0 1.555-.308 2.121-.875l28.285-28.285A2.99 2.99 0 0 0 63.281 32c0-.8-.308-1.555-.875-2.121L34.121 1.594C33.555 1.027 32.777.746 32 .746zm0 1.973c.266 0 .52.101.707.289l28.281 28.289a.974.974 0 0 1 .293.703c0 .27-.101.52-.293.707L32.707 60.988a1.018 1.018 0 0 1-1.414 0L3.008 32.707a.996.996 0 0 1-.29-.707c0-.266.102-.52.29-.707L31.297 3.008a.98.98 0 0 1 .703-.29zm0 6.07c-.512 0-1.023.195-1.414.586L9.37 30.585a2 2 0 0 0 0 2.83l21.215 21.21c.39.39.902.59 1.414.59a2 2 0 0 0 1.414-.59l21.211-21.21a2 2 0 0 0 0-2.83l-21.21-21.21A1.994 1.994 0 0 0 32 8.789zm0 1.996L53.215 32 32 53.215 10.785 32zm-.188 10.262c-.46.039-.906.226-1.222.57a1.94 1.94 0 0 0-.512 1.457L31.04 36a1 1 0 1 0 2 0l.883-12.926a1.947 1.947 0 0 0-.508-1.457 1.828 1.828 0 0 0-1.074-.555 1.86 1.86 0 0 0-.528-.015zM16 30a1 1 0 0 0-1 1v2a1 1 0 1 0 2 0v-2a1 1 0 0 0-1-1zm5 0a1 1 0 0 0-1 1v2a1 1 0 1 0 2 0v-2a1 1 0 0 0-1-1zm5 0a1 1 0 0 0-1 1v2a1 1 0 1 0 2 0v-2a1 1 0 0 0-1-1zm12 0a1 1 0 0 0-1 1v2a1 1 0 1 0 2 0v-2a1 1 0 0 0-1-1zm5 0a1 1 0 0 0-1 1v2a1 1 0 1 0 2 0v-2a1 1 0 0 0-1-1zm5 0a1 1 0 0 0-1 1v2a1 1 0 1 0 2 0v-2a1 1 0 0 0-1-1zm-15.96 9c-1.106 0-2 .895-2 2s.894 2 2 2a1.999 1.999 0 1 0 0-4z"/></svg>