<svg xmlns="http://www.w3.org/2000/svg" viewBox="0 0 50 50"><path d="M13 2c-1.73 0-3.341.688-4.418 1.885C7.943 4.594 7.003 5 6 5a1 1 0 0 0-1 1v38a1 1 0 0 0 1 1c1.003 0 1.943.406 2.582 1.115C9.659 47.312 11.27 48 13 48s3.341-.688 4.418-1.885C18.057 45.406 18.997 45 20 45a1 1 0 0 0 1-1V24.377c-.803-.227-1.498-.377-2-.377-.232 0-.929 0-1.377.883-.03.072-.06.14-.094.21a1.927 1.927 0 0 1-.222.423A4.978 4.978 0 0 1 13 28c-2.618 0-4.748-2.029-4.959-4.596A1.987 1.987 0 0 1 8 23v-5c0-2.757 2.243-5 5-5a5.006 5.006 0 0 1 4.592 3.027c1.128.034 2.267.142 3.408.323V6a1 1 0 0 0-1-1c-1.003 0-1.943-.406-2.582-1.115C16.341 2.688 14.73 2 13 2zm-3 6a1 1 0 1 1 0 2 1 1 0 0 1 0-2zm6 0a1 1 0 1 1 0 2 1 1 0 0 1 0-2zm-3 7a3 3 0 0 0-3 3v.467c1.072-1.09 2.74-2.059 5.309-2.362A2.978 2.978 0 0 0 13 15zm4 3c-5.328 0-6.598 2.891-6.902 4.275a3.138 3.138 0 0 0-.051.26C10 22.822 10 23 10 23a3 3 0 0 0 3 3 2.99 2.99 0 0 0 2.652-1.625l.01.004s.013-.04.025-.07c.04-.08.078-.16.11-.243C16.104 23.426 17.007 22 19 22c3.438 0 10 4 18 4 6.5 0 7.795-3.752 7.795-3.752h-.002c.128-.221.207-.474.207-.748a1.5 1.5 0 0 0-1.5-1.5c-.389 0-.74.153-1.006.395l-.002-.002S40.5 22 37 22c-5 0-13-4-20-4zm-4 12a1.993 1.993 0 1 1 1 3.723V36c0 .55-.45 1-1 1s-1-.45-1-1v-2.277A1.99 1.99 0 0 1 11 32a2 2 0 0 1 2-2zm-3 10a1 1 0 1 1 0 2 1 1 0 0 1 0-2zm6 0a1 1 0 1 1 0 2 1 1 0 0 1 0-2z"/></svg>