<svg xmlns="http://www.w3.org/2000/svg" viewBox="0 0 26 26"><path d="M12.844 0a.984.984 0 0 0-.344.125l-12 7A.999.999 0 0 0 0 8v17c0 .55.45 1 1 1h24c.55 0 1-.45 1-1V8a.999.999 0 0 0-.5-.875l-12-7A.99.99 0 0 0 12.844 0zM13 2.156l11 6.438V24H2V8.594zM9.187 7C7.489 7 6 8.488 6 10.188c0 1.624 1.363 3.062 2.969 3.187a4.793 4.793 0 0 0-.656 2.438c0 1.972-.376 3.195-.72 3.968a1.001 1.001 0 0 0 1 1.504c.38-.055.7-.324.813-.691.457-1.028.906-2.555.906-4.782a2.883 2.883 0 0 1 3.47-2.843c.007 0 .023-.004.03 0 1.31.304 2.352 1.597 2.282 2.969-.078 1.097-.535 1.648-1.25 2.124a.987.987 0 0 0-.406.563c-.31.535-.438 1.406-.438 1.969 0 .699.492 1.312 1.094 1.312.601 0 1.094-.394 1.094-1.093 0-.274-.196-.618-.438-.97a.933.933 0 0 0 .219-.124A4.995 4.995 0 0 0 17 18.812l3.313.594-2.157-2.125L21 15h-2.969a4.951 4.951 0 0 0-.531-1.531c.828-.18 1.5-.922 1.5-1.875 0-1-.805-1.906-1.906-1.906-.399 0-.793.105-1.094.406.102-.301.188-.48.188-.781 0-1.301-.981-2.313-2.282-2.313-.898 0-1.695.512-2.094 1.313A3.23 3.23 0 0 0 9.188 7zM14 15c-.55 0-1 .45-1 1s.45 1 1 1 1-.45 1-1-.45-1-1-1z"/></svg>