<svg xmlns="http://www.w3.org/2000/svg" viewBox="0 0 50 50"><path d="M7 2C4.25 2 2 4.25 2 7v36c0 2.75 2.25 5 5 5h36c2.75 0 5-2.25 5-5V7c0-2.75-2.25-5-5-5zm0 2h36c1.668 0 3 1.332 3 3v36c0 1.668-1.332 3-3 3H7c-1.668 0-3-1.332-3-3V7c0-1.668 1.332-3 3-3zm6.563 8.688a1.008 1.008 0 0 0-.594.28A16.98 16.98 0 0 0 8 25a16.98 16.98 0 0 0 4.969 12.031.999.999 0 0 0 1.437 0l4.938-4.968a.997.997 0 0 0 0-1.407A7.96 7.96 0 0 1 17 25a7.96 7.96 0 0 1 2.344-5.656.997.997 0 0 0 0-1.407l-4.938-4.968a1.009 1.009 0 0 0-.844-.281zm22.624 0a1.008 1.008 0 0 0-.593.28l-4.938 4.97a.997.997 0 0 0 0 1.406A7.96 7.96 0 0 1 33 25a7.96 7.96 0 0 1-2.344 5.656.997.997 0 0 0 0 1.407l4.938 4.968a.999.999 0 0 0 1.437 0A16.98 16.98 0 0 0 42 25a16.98 16.98 0 0 0-4.969-12.031 1.009 1.009 0 0 0-.843-.281zm-22.437 2.5l3.625 3.593C15.969 20.504 15 22.61 15 25s.969 4.496 2.375 6.219l-3.625 3.593C11.445 32.176 10 28.782 10 25c0-3.781 1.445-7.176 3.75-9.813zm22.5 0C38.555 17.823 40 21.218 40 25c0 3.781-1.445 7.176-3.75 9.813l-3.625-3.594C34.031 29.496 35 27.39 35 25s-.969-4.496-2.375-6.219zM25 21c-2.2 0-4 1.8-4 4s1.8 4 4 4 4-1.8 4-4-1.8-4-4-4zm0 2c1.117 0 2 .883 2 2s-.883 2-2 2-2-.883-2-2 .883-2 2-2z"/></svg>