<svg xmlns="http://www.w3.org/2000/svg" viewBox="0 0 64 64"><path d="M5 9h54v36H5z" fill="#c5e4fa"/><path d="M59 12.512L26.512 45h17.25L59 29.762zM15.898 45h7.704L59.52 9.078h-7.7zm-3 0h-2.296L46.52 9.078h2.3z" fill="#e3f2ff"/><path d="M5 45h54v7a3 3 0 0 1-3 3H8a3 3 0 0 1-3-3z" fill="#ced8ed"/><path d="M33 35h6v9h-6z" fill="#ed7899"/><path d="M39 37h6v7h-6z" fill="#72caaf"/><path d="M27 39h6v5h-6z" fill="#ffeb9b"/><path d="M21 39h6v5h-6z" fill="#85cbf8"/><path d="M15 41h6v3h-6z" fill="#fff8f8"/><path d="M45 31h6v13h-6z" fill="#faefde"/><path d="M44 25a1.999 1.999 0 1 1-4 0 1.999 1.999 0 1 1 4 0zm-6-5a1.999 1.999 0 1 1-4 0 1.999 1.999 0 1 1 4 0zm-7 9a1.999 1.999 0 1 1-4 0 1.999 1.999 0 1 1 4 0zm-6-5a1.999 1.999 0 1 1-4 0 1.999 1.999 0 1 1 4 0zm-8 7a1.999 1.999 0 1 1-4 0 1.999 1.999 0 1 1 4 0z" fill="#fff8f8"/><path d="M57 8H7a3 3 0 0 0-3 3v42a3 3 0 0 0 3 3h50a3 3 0 0 0 3-3V11a3 3 0 0 0-3-3zM7 10h50c.55 0 1 .45 1 1v33h-6V31c0-.55-.45-1-1-1h-6c-.55 0-1 .45-1 1v5h-4v-1c0-.55-.45-1-1-1h-6c-.55 0-1 .45-1 1v3H21c-.55 0-1 .45-1 1v1h-5c-.55 0-1 .45-1 1v3H6V11c0-.55.45-1 1-1zm33 34v-6h4v6zm-6 0v-8h4v8zm-6 0v-4h4v4zm-6 0v-4h4v4zm-6 0v-2h4v2zm30-7v-5h4v12h-4zm11 17H7c-.55 0-1-.45-1-1v-7h52v7c0 .55-.45 1-1 1z" fill="#8d6c9f"/><path d="M20 48c-.55 0-1 .45-1 1v2c0 .55.45 1 1 1s1-.45 1-1v-2c0-.55-.45-1-1-1zm-5 0c-.55 0-1 .45-1 1v2c0 .55.45 1 1 1s1-.45 1-1v-2c0-.55-.45-1-1-1zm-5 0c-.55 0-1 .45-1 1v2c0 .55.45 1 1 1s1-.45 1-1v-2c0-.55-.45-1-1-1zm25 0c-.55 0-1 .45-1 1v2c0 .55.45 1 1 1s1-.45 1-1v-2c0-.55-.45-1-1-1zm5 0c-.55 0-1 .45-1 1v2c0 .55.45 1 1 1s1-.45 1-1v-2c0-.55-.45-1-1-1zm5 0c-.55 0-1 .45-1 1v2c0 .55.45 1 1 1s1-.45 1-1v-2c0-.55-.45-1-1-1zm5 0c-.55 0-1 .45-1 1v2c0 .55.45 1 1 1s1-.45 1-1v-2c0-.55-.45-1-1-1zm5 0c-.55 0-1 .45-1 1v2c0 .55.45 1 1 1s1-.45 1-1v-2c0-.55-.45-1-1-1zm-30 0c-.55 0-1 .45-1 1v2c0 .55.45 1 1 1s1-.45 1-1v-2c0-.55-.45-1-1-1zm5 0c-.55 0-1 .45-1 1v2c0 .55.45 1 1 1s1-.45 1-1v-2c0-.55-.45-1-1-1zM15 34a2.998 2.998 0 0 0 2.477-1.32c.558-.82.671-1.867.304-2.79l3.758-3.28a2.895 2.895 0 0 0 3 0L26.2 28c-.12.32-.191.656-.199 1a3.004 3.004 0 0 0 2.055 2.86 3.007 3.007 0 0 0 3.355-1.06 3 3 0 0 0 .04-3.519l3.55-4.46a2.87 2.87 0 0 0 2.5-.25L39.2 24c-.122.32-.192.656-.2 1a3 3 0 0 0 6 0 3.025 3.025 0 0 0-.371-1.422l5.383-6v3.883a1 1 0 1 0 2 0V15a1.233 1.233 0 0 0-.313-.7.751.751 0 0 0-.12-.07.646.646 0 0 0-.4-.16A.78.78 0 0 0 51 14h-6.488a1 1 0 1 0 0 2h4.238l-5.61 6.23a2.939 2.939 0 0 0-2.671.2L38.8 21c.12-.32.191-.656.199-1a3 3 0 0 0-6 0c.004.559.164 1.105.46 1.578l-3.64 4.55a2.836 2.836 0 0 0-2.34.302L25.8 25c.122-.32.192-.656.2-1a2.997 2.997 0 0 0-1.828-2.79 3.006 3.006 0 0 0-3.277.626 3.01 3.01 0 0 0-.676 3.266L16.46 28.39A2.996 2.996 0 0 0 15 28a3 3 0 0 0 0 6zm28-9c0 .55-.45 1-1 1s-1-.45-1-1 .45-1 1-1 1 .45 1 1zm-7-6c.55 0 1 .45 1 1s-.45 1-1 1-1-.45-1-1 .45-1 1-1zm-6 10c0 .55-.45 1-1 1s-1-.45-1-1 .45-1 1-1 1 .45 1 1zm-7-6c.55 0 1 .45 1 1s-.45 1-1 1-1-.45-1-1 .45-1 1-1zm-8 7c.55 0 1 .45 1 1s-.45 1-1 1-1-.45-1-1 .45-1 1-1z" fill="#8d6c9f"/><path d="M13.5 13l1.238 2.262L17 16.5l-2.262 1.238L13.5 20l-1.238-2.262L10 16.5l2.262-1.238zm12.922 1.16l.848 1.57 1.57.848-1.57.863L26.422 19l-.863-1.559L24 16.578l1.559-.848zM10.648 24.7l.582 1.07 1.07.582-1.07.578-.582 1.07-.59-1.07L9 26.352l1.059-.582z" fill="#fff8f8"/></svg>