<svg xmlns="http://www.w3.org/2000/svg" viewBox="0 0 24 24"><path d="M7.5 3A5.508 5.508 0 0 0 2 8.5c0 1.695.758 3.21 1.969 4.219H4c.004 0 .023.027.031.031.114.094.223.168.344.25.012.008.02.023.031.031.012.012.02.016.032.031.226.262.46.704.5 1.407.039.738-.5 3.043-.813 4.594-.254 1.246-.012 2.035 1.219 2.406l2.281.5c.21.023 1.129.183 1.313-.375.285-.867-.868-.407-.313-2.844.23-1.004.648-2.309.875-3.281.398-1.723 1.5-2.063 1.5-2.063L18 12V5L8.594 3.125c-.031-.008-.063-.023-.094-.031A5.292 5.292 0 0 0 7.5 3zM19 5v1c.832 0 .898.125 1.188.375C20.477 6.625 21 7 22 7V6c-.816 0-.863-.125-1.156-.375C20.55 5.375 20.012 5 19 5zM7.5 6C8.883 6 10 7.117 10 8.5S8.883 11 7.5 11A2.497 2.497 0 0 1 5 8.5C5 7.117 6.117 6 7.5 6zM19 8v1c.832 0 .898.125 1.188.375.289.25.812.625 1.812.625V9c-.816 0-.863-.125-1.156-.375C20.55 8.375 20.012 8 19 8zm0 3v1c.832 0 .898.125 1.188.375.289.25.812.625 1.812.625v-1c-.816 0-.863-.125-1.156-.375C20.55 11.375 20.012 11 19 11z"/></svg>