<svg xmlns="http://www.w3.org/2000/svg" viewBox="0 0 80 80"><path style="line-height:normal;text-indent:0;text-align:start;text-decoration-line:none;text-decoration-style:solid;text-decoration-color:#000;text-transform:none;block-progression:tb;isolation:auto;mix-blend-mode:normal" d="M39 7c-2.197 0-4 1.803-4 4 0 1.107.458 2.113 1.193 2.84-1.135.686-2.158 1.743-3.035 3.047-1.488 2.211-2.617 5.195-3.332 8.552C28.804 25.917 28 26.804 28 28c0 .914.491 1.65 1.14 2.2-.071.919-.13 1.848-.13 2.8 0 .352-.533 1.506-1.463 2.889-5.967-1.219-8.627-7.284-8.627-7.284a1 1 0 0 0-.723-.585l-9.986-2.014a1 1 0 0 0-.197-.02 1 1 0 0 0-1 1c0 8.683 2.303 14.875 4.629 18.889 1.743 3.009 3.536 4.83 4.326 5.553C15.386 52.648 15 53.839 15 55c0 6.48 5.661 11.83 13.5 14.37.511.92 1.377 1.63 2.5 1.63h16c1.123 0 1.989-.71 2.5-1.63 3.813-1.236 7.103-3.14 9.484-5.513a1 1 0 0 0 .047-.013C65.961 61.556 71 55.598 71 49c0-4.86-2.782-9.696-4.195-13.219-.707-1.761-.974-3.162-.778-3.754.098-.295.227-.47.66-.67.434-.2 1.192-.357 2.313-.357h2a1 1 0 0 0 .8-1.6l-3-4a1 1 0 0 0-.8-.4c-1.5 0-3.603-.032-5.484.691C60.634 26.415 59 28.167 59 31c0 2.25.791 4.846 1.543 7.334.752 2.488 1.457 4.892 1.457 6.268 0 1.738-.63 2.434-1.246 2.86a2.852 2.852 0 0 1-.85.407c-1.23-1.768-2.683-3.578-4.138-5.334-1.758-2.12-3.506-4.158-4.786-5.879-1.28-1.72-1.99-3.24-1.99-3.656 0-.952-.059-1.881-.13-2.8.649-.55 1.14-1.286 1.14-2.2 0-1.196-.804-2.083-1.826-2.56-.715-3.358-1.844-6.342-3.332-8.553-.877-1.304-1.9-2.361-3.035-3.047A3.987 3.987 0 0 0 43 11c0-2.197-1.803-4-4-4zm0 2c1.116 0 2 .884 2 2s-.884 2-2 2-2-.884-2-2 .884-2 2-2zm0 6c1.36 0 2.838 1.004 4.182 3.002 1.344 1.998 2.477 4.899 3.142 8.225a1 1 0 0 0 .828.793c.484.074.848.47.848.98a.989.989 0 0 1-.582.904 1 1 0 0 0-.574.994c.09 1.023.146 2.057.146 3.102 0 1.584 1.04 3.04 2.387 4.85 1.347 1.81 3.103 3.858 4.848 5.962 1.744 2.105 3.476 4.264 4.746 6.237.953 1.482 1.618 2.867 1.89 3.963A1 1 0 0 0 60 55a1 1 0 0 0 .943.998V56c-.566 4.97-5.315 9.393-12.324 11.582a1 1 0 0 0-.664.686A.984.984 0 0 1 47 69H31a.984.984 0 0 1-.955-.732 1 1 0 0 0-.664-.686c-7.01-2.19-11.76-6.615-12.324-11.586A1 1 0 0 0 18 55a1 1 0 0 0-.861-.99c.272-1.096.937-2.48 1.89-3.961 1.27-1.973 3.002-4.132 4.746-6.236 1.745-2.105 3.501-4.153 4.848-5.963 1.347-1.81 2.387-3.266 2.387-4.85 0-1.045.055-2.08.146-3.102a1 1 0 0 0-.574-.994A.989.989 0 0 1 30 28c0-.51.364-.906.848-.98a1 1 0 0 0 .828-.793c.665-3.326 1.798-6.227 3.142-8.225C36.162 16.004 37.64 15 39 15zm28.512 12.016L69 29c-1.295 0-2.319.157-3.152.543-.834.385-1.458 1.067-1.72 1.855-.522 1.577.068 3.254.82 5.127C66.45 40.271 69 44.935 69 49c0 4.58-2.968 8.993-7.484 11.559C62.468 58.842 63 56.974 63 55c0-1.738-.825-3.538-1.979-5.42.28-.118.574-.267.874-.475 1.06-.735 2.105-2.21 2.105-4.503 0-1.974-.795-4.37-1.543-6.846C61.709 35.28 61 32.75 61 31c0-2.167.866-2.915 2.234-3.441 1.231-.474 2.865-.533 4.278-.543zM9.094 28.225l8.24 1.662c.55 1.154 3.214 6.171 8.906 7.752-1.178 1.503-2.557 3.15-4.006 4.896-1.758 2.12-3.53 4.323-4.886 6.432-.14.216-.255.425-.385.638-.771-.743-2.133-2.219-3.59-4.734-2.05-3.54-4.063-9.015-4.28-16.646zM33 29a1 1 0 0 0-1 1 1 1 0 0 0 1 1 1 1 0 0 0 1-1 1 1 0 0 0-1-1zm4 0a1 1 0 0 0-1 1 1 1 0 0 0 1 1 1 1 0 0 0 1-1 1 1 0 0 0-1-1zm4 0a1 1 0 0 0-1 1 1 1 0 0 0 1 1 1 1 0 0 0 1-1 1 1 0 0 0-1-1zm4 0a1 1 0 0 0-1 1 1 1 0 0 0 1 1 1 1 0 0 0 1-1 1 1 0 0 0-1-1zM21 54a1 1 0 0 0-1 1 1 1 0 0 0 1 1 1 1 0 0 0 1-1 1 1 0 0 0-1-1zm4 0a1 1 0 0 0-1 1 1 1 0 0 0 1 1 1 1 0 0 0 1-1 1 1 0 0 0-1-1zm4 0a1 1 0 0 0-1 1 1 1 0 0 0 1 1 1 1 0 0 0 1-1 1 1 0 0 0-1-1zm4 0a1 1 0 0 0-1 1 1 1 0 0 0 1 1 1 1 0 0 0 1-1 1 1 0 0 0-1-1zm4 0a1 1 0 0 0-1 1 1 1 0 0 0 1 1 1 1 0 0 0 1-1 1 1 0 0 0-1-1zm4 0a1 1 0 0 0-1 1 1 1 0 0 0 1 1 1 1 0 0 0 1-1 1 1 0 0 0-1-1zm4 0a1 1 0 0 0-1 1 1 1 0 0 0 1 1 1 1 0 0 0 1-1 1 1 0 0 0-1-1zm4 0a1 1 0 0 0-1 1 1 1 0 0 0 1 1 1 1 0 0 0 1-1 1 1 0 0 0-1-1zm4 0a1 1 0 0 0-1 1 1 1 0 0 0 1 1 1 1 0 0 0 1-1 1 1 0 0 0-1-1zm4 0a1 1 0 0 0-1 1 1 1 0 0 0 1 1 1 1 0 0 0 1-1 1 1 0 0 0-1-1z"/></svg>