<svg xmlns="http://www.w3.org/2000/svg" viewBox="0 0 40 40"><path d="M20 23h-.899a.497.497 0 0 0-.093.211A.497.497 0 0 0 18.6 23h-.15a.5.5 0 0 0 0 1h.15a.501.501 0 0 0 .462-.308.498.498 0 0 0 .549.247.493.493 0 0 0 .239.061H20v-1zm-2.8 0h-.15a.5.5 0 0 0 0 1h.15a.5.5 0 0 0 0-1zm-1.4 0h-.15a.5.5 0 0 0 0 1h.15a.5.5 0 0 0 0-1zm-1.4 0h-.15a.5.5 0 0 0 0 1h.15a.5.5 0 0 0 0-1zM13 23h-.15a.5.5 0 0 0 0 1H13a.5.5 0 0 0 0-1zm-1.4 0h-.15a.5.5 0 0 0 0 1h.15a.5.5 0 0 0 0-1zm-1.4 0h-.15a.5.5 0 0 0 0 1h.15a.5.5 0 0 0 0-1zm-1.4 0h-.15a.5.5 0 0 0-.348.141A.5.5 0 0 0 8 23.6v.15a.5.5 0 0 0 .945.229A.5.5 0 0 0 8.8 23zm-.3 1.5a.5.5 0 0 0-.5.5v.15a.5.5 0 0 0 1 0V25a.5.5 0 0 0-.5-.5zm0 1.4a.5.5 0 0 0-.5.5v.15a.5.5 0 0 0 1 0v-.15a.5.5 0 0 0-.5-.5zm0 1.4a.5.5 0 0 0-.5.5v.15a.5.5 0 0 0 1 0v-.15a.5.5 0 0 0-.5-.5zm0 1.4a.5.5 0 0 0-.5.5v.15a.5.5 0 0 0 1 0v-.15a.5.5 0 0 0-.5-.5zm0 1.4a.5.5 0 0 0-.5.5v.15a.5.5 0 0 0 1 0v-.15a.5.5 0 0 0-.5-.5zm0 1.4a.5.5 0 0 0-.5.5v.15a.5.5 0 0 0 1 0V32a.5.5 0 0 0-.5-.5zm.006 1.367l-.033.001a.493.493 0 0 0-.461.518l.001.014.004.055v.017l.008.092a.493.493 0 0 0 .49.442l.046-.002a.508.508 0 0 0 .459-.544l-.01-.125a.507.507 0 0 0-.504-.468zm.233 1.261a.492.492 0 0 0-.477.632l.004.013.046.143.004.013a.491.491 0 0 0 .623.303.507.507 0 0 0 .32-.635l-.038-.119a.507.507 0 0 0-.482-.35zm.52 1.171a.492.492 0 0 0-.427.751c.025.043.051.086.078.128l.007.011a.491.491 0 0 0 .676.15.508.508 0 0 0 .164-.692l-.065-.107a.506.506 0 0 0-.433-.241zm.779 1.019a.505.505 0 0 0-.351.141.492.492 0 0 0-.018.693l.01.01.029.03.003.003.001.001.002.002.001.002.001.001.002.002.001.001.003.003.071.071a.49.49 0 0 0 .692-.01.507.507 0 0 0 0-.711l-.088-.089a.499.499 0 0 0-.359-.15zm.993.813a.506.506 0 0 0-.427.232.492.492 0 0 0 .142.678l.012.008.001.001.003.002.001.001.003.002.001.001.003.002.033.021h.001l.003.002.002.001.002.001.002.001a.003.003 0 0 0 .002.001l.003.002.068.042.011.007a.49.49 0 0 0 .672-.169.507.507 0 0 0-.164-.692l-.106-.066a.499.499 0 0 0-.268-.078zm1.152.562a.509.509 0 0 0-.479.339.493.493 0 0 0 .295.627l.013.005a.771.771 0 0 1 .026.009l.004.001.004.001h.001l.004.001h.001l.004.001h.001l.003.001h.001l.003.001.002.001.002.001.002.001.003.001.002.001.002.001.001.001.003.001.003.001.002.001.003.001.002.001.003.001.002.001.002.001.002.001.002.001.003.001.002.001.004.001h.001l.044.015.013.004a.493.493 0 0 0 .615-.32.507.507 0 0 0-.32-.635l-.118-.04a.438.438 0 0 0-.163-.03zm1.249.278a.507.507 0 0 0-.503.454.493.493 0 0 0 .432.541c.059.006.118.012.177.016l.032.001a.492.492 0 0 0 .491-.455.508.508 0 0 0-.459-.544l-.125-.011a.648.648 0 0 0-.045-.002zm1.407-.035a.578.578 0 0 0-.071.005l-.124.017a.507.507 0 0 0-.431.566.493.493 0 0 0 .545.428l.013-.002c.049-.006.099-.013.148-.021l.014-.002a.492.492 0 0 0 .405-.562.506.506 0 0 0-.499-.429zm1.234-.34a.496.496 0 0 0-.184.035l-.116.046a.508.508 0 0 0-.288.651.493.493 0 0 0 .63.289l.166-.065a.492.492 0 0 0 .263-.641.51.51 0 0 0-.471-.315zm1.123-.618a.5.5 0 0 0-.289.091l-.103.072a.508.508 0 0 0-.129.7.493.493 0 0 0 .679.135l.011-.008.019-.013h.001l.003-.002.002-.002.001-.001.004-.003.073-.051.001-.001.001-.001.018-.013.011-.008a.493.493 0 0 0 .108-.685.502.502 0 0 0-.411-.21zm.951-.861a.508.508 0 0 0-.378.168l-.083.093a.509.509 0 0 0 .035.711.494.494 0 0 0 .693-.025l.021-.023.002-.002.001-.001.001-.001.002-.002.001-.001.003-.003.003-.003.043-.048.041-.047a.498.498 0 1 0-.385-.816zm.728-1.057a.506.506 0 0 0-.446.265l-.06.11a.507.507 0 0 0 .439.746.492.492 0 0 0 .427-.247l.007-.012.011-.02.002-.004v-.001l.002-.003.001-.001.001-.002.001-.002.001-.001.002-.003.001-.001.002-.003.034-.063.001-.001.001-.002.001-.003.011-.02.006-.012a.492.492 0 0 0-.211-.66.474.474 0 0 0-.234-.06zm.46-1.196a.509.509 0 0 0-.49.375l-.032.121a.508.508 0 0 0 .487.638.493.493 0 0 0 .472-.352 5.47 5.47 0 0 0 .046-.172.492.492 0 0 0-.483-.61zm.17-1.27a.508.508 0 0 0-.506.492l-.004.125a.507.507 0 0 0 .485.52h.021a.492.492 0 0 0 .492-.466l.001-.013.002-.056v-.037l.001-.056v-.013a.493.493 0 0 0-.486-.495l-.006-.001zm-.005-1.392a.5.5 0 0 0-.5.5v.15a.5.5 0 0 0 1 0v-.15a.5.5 0 0 0-.5-.5zm0-1.4a.5.5 0 0 0-.5.5v.15a.5.5 0 0 0 1 0v-.15a.5.5 0 0 0-.5-.5zm0-1.4a.5.5 0 0 0-.5.5v.15a.5.5 0 0 0 1 0v-.15a.5.5 0 0 0-.5-.5zm0-1.4a.5.5 0 0 0-.5.5v.15a.5.5 0 0 0 1 0v-.15a.5.5 0 0 0-.5-.5zm0-1.4a.5.5 0 0 0-.5.5v.15a.5.5 0 0 0 1 0v-.15a.5.5 0 0 0-.5-.5zm0-1.4a.5.5 0 0 0-.5.5v.15a.5.5 0 0 0 1 0v-.15a.5.5 0 0 0-.5-.5z" fill="#66798f"/><path d="M16 32.5a2.503 2.503 0 0 1-2.5-2.5V4c0-1.378 1.122-2.5 2.5-2.5h19c1.378 0 2.5 1.122 2.5 2.5v26c0 1.378-1.122 2.5-2.5 2.5H16z" fill="#b0c1d4"/><path d="M35 2c1.103 0 2 .897 2 2v26c0 1.103-.897 2-2 2H16c-1.103 0-2-.897-2-2V4c0-1.103.897-2 2-2h19m0-1H16a3 3 0 0 0-3 3v26a3 3 0 0 0 3 3h19a3 3 0 0 0 3-3V4a3 3 0 0 0-3-3z" fill="#66798f"/><circle cx="30.5" cy="15.5" r="1.5" fill="#fff"/><circle cx="25.5" cy="15.5" r="1.5" fill="#fff"/><circle cx="20.5" cy="15.5" r="1.5" fill="#fff"/><circle cx="30.5" cy="20.5" r="1.5" fill="#fff"/><circle cx="25.5" cy="20.5" r="1.5" fill="#fff"/><circle cx="20.5" cy="20.5" r="1.5" fill="#fff"/><circle cx="30.5" cy="25.5" r="1.5" fill="#fff"/><circle cx="25.5" cy="25.5" r="1.5" fill="#fff"/><circle cx="20.5" cy="25.5" r="1.5" fill="#fff"/><path d="M5 32.5A2.503 2.503 0 0 1 2.5 30v-4.343c0-.935.364-1.813 1.025-2.475l.975-.975V11.793l-.975-.975A3.477 3.477 0 0 1 2.5 8.343V4c0-1.378 1.122-2.5 2.5-2.5h6c1.378 0 2.5 1.122 2.5 2.5v4.343c0 .935-.364 1.813-1.025 2.475l-.975.975v10.414l.975.975a3.477 3.477 0 0 1 1.025 2.475V30c0 1.378-1.122 2.5-2.5 2.5H5z" fill="#b0c1d4"/><path d="M11 2c1.103 0 2 .897 2 2v4.343c0 .801-.312 1.555-.879 2.121l-.828.828-.293.294v10.828l.293.293.828.828c.567.567.879 1.321.879 2.122V30c0 1.103-.897 2-2 2H5c-1.103 0-2-.897-2-2v-4.343c0-.801.312-1.555.879-2.121l.828-.828.293-.294V11.586l-.293-.293-.828-.828A2.982 2.982 0 0 1 3 8.343V4c0-1.103.897-2 2-2h6m0-1H5a3 3 0 0 0-3 3v4.343c0 1.061.421 2.078 1.172 2.828L4 12v10l-.828.828A4 4 0 0 0 2 25.657V30a3 3 0 0 0 3 3h6a3 3 0 0 0 3-3v-4.343a3.995 3.995 0 0 0-1.172-2.828L12 22V12l.828-.828A4 4 0 0 0 14 8.343V4a3 3 0 0 0-3-3z" fill="#66798f"/><rect x="17.5" y="5.5" width="16" height="5" fill="#dbf2ff"/><path d="M33 6v4H18V6h15m1-1H17v6h17V5z" fill="#7496c4"/></svg>