<svg xmlns="http://www.w3.org/2000/svg" viewBox="0 0 50 50"><path d="M25 0c-3.3 0-6 2.7-6 6s2.7 6 6 6 6-2.7 6-6-2.7-6-6-6zm0 2c2.223 0 4 1.777 4 4s-1.777 4-4 4-4-1.777-4-4 1.777-4 4-4zm-4.5 11c-1.512 0-3.125.574-4.25 1.781-1.125 1.207-1.621 3.137-.844 5.25.934 2.532 2.645 6.957 3.625 9.532a.988.988 0 0 0-.031.218V46.5c0 1.922 1.578 3.5 3.5 3.5s3.5-1.578 3.5-3.5v-2.375l1.563 2.5a.45.45 0 0 0 .03.063c.434.593.798 1.136 1.345 1.593.546.457 1.296.719 2.156.719 1.16 0 2.195-.617 2.75-1.563.554-.945.59-2.246-.094-3.374l-.031-.032-3.657-5.718.563-3.657c.414.215.879.344 1.375.344 1.59 0 2.914-1.273 3-2.844.004-.05.004-.105 0-.156V18.5c0-3.023-2.477-5.5-5.5-5.5zm0 2h9c1.941 0 3.5 1.563 3.5 3.5v13.594A.988.988 0 0 1 32 33a.985.985 0 0 1-1-.938V32a.753.753 0 0 0 0-.188V21a.998.998 0 0 0-.367-.797.997.997 0 0 0-.852-.203A1.002 1.002 0 0 0 29 21v10.937l-1 6.407a.996.996 0 0 0 .156.718l3.875 6.032c.352.582.29 1.008.094 1.343-.195.336-.578.563-1.031.563-.524 0-.64-.086-.875-.281-.223-.188-.547-.582-.969-1.157l-.031-.062-3.75-6.063a1.983 1.983 0 0 1-.282-1.406l.907-4.906c.011-.04.02-.082.031-.125a1.044 1.044 0 0 0 .063-.281c.007-.043-.004-.082 0-.125V32.5a3.568 3.568 0 0 0-.25-1.594l-4-10.281a1.008 1.008 0 0 0-1.313-.563c-.52.208-.77.793-.563 1.313l4 10.25c.125.316.176.512.188.656v.032c-.016.05-.023.101-.031.156-.012.035-.016.066-.032.093a.581.581 0 0 1-.093.126c-.16.156-.621.312-.969.312s-.34-.016-.5-.188c-.148-.16-.387-.57-.688-1.156l-.03-.093c-.052-.133-3.446-9.016-4.626-12.22-.57-1.542-.23-2.468.438-3.187C18.387 15.438 19.53 15 20.5 15zm.5 19c.05.066.098.125.156.188.461.496 1.211.812 1.969.812.188 0 .39-.004.594-.031l-.5 2.687c-.184.977.008 2 .531 2.844l.25.406a1.024 1.024 0 0 0 0 .219V46.5c0 .84-.66 1.5-1.5 1.5s-1.5-.66-1.5-1.5z"/></svg>