<svg xmlns="http://www.w3.org/2000/svg" viewBox="0 0 40 40"><path d="M18 38.5a1.5 1.5 0 0 1-1.5-1.5V24a1.5 1.5 0 0 1 3 0v13a1.5 1.5 0 0 1-1.5 1.5z" fill="#b6dcfe"/><path d="M18 23c.55 0 1 .45 1 1v13c0 .55-.45 1-1 1s-1-.45-1-1V24c0-.55.45-1 1-1m0-1a2 2 0 0 0-2 2v13a1.999 1.999 0 1 0 4 0V24a2 2 0 0 0-2-2z" fill="#4788c7"/><path d="M23.512 5a3.5 3.5 0 1 1-7.002.002A3.5 3.5 0 0 1 23.512 5z" fill="#dff0fe"/><path d="M20.012 2c1.652 0 3 1.348 3 3s-1.348 3-3 3c-1.657 0-3-1.348-3-3s1.343-3 3-3m0-1c-2.211 0-4 1.79-4 4s1.789 4 4 4a4 4 0 0 0 0-8z" fill="#4788c7"/><path d="M16.102 22.758l-2.598-9.887c-.059-.746.086-1.363.437-1.75.383-.418 1.063-.621 2.079-.621h5.402c1.27 0 2.3 1.016 2.3 2.262l.755 13.472z" fill="#b6dcfe"/><path d="M21.422 11c.992 0 1.8.79 1.8 1.762v.054l.712 12.649-7.41-3.074-2.512-9.559c-.047-.645.054-1.105.297-1.371.285-.309.843-.461 1.71-.461h5.403m0-1H16.02c-1.543 0-3.223.418-3 3l2.664 10.125L25.02 27l-.797-14.238c0-1.524-1.254-2.762-2.801-2.762z" fill="#4788c7"/><path d="M22.848 36.512c-.614 0-1.121-.367-1.364-.985l-1.836-4.351a6.235 6.235 0 0 1-.207-3.965l1.059-3.867h3.32v1.25l-1.242 4.187c-.117.407-.094.848.067 1.239l1.457 4.054c.351.836.328 1.887-.543 2.274a1.707 1.707 0 0 1-.711.164z" fill="#b6dcfe"/><path d="M23.32 23.848v.675l-1.218 4.118a2.34 2.34 0 0 0 .062 1.527l1.469 4.074.008.028.011.027c.192.457.348 1.308-.304 1.598-.168.078-.34.117-.5.117-.407 0-.73-.242-.907-.692l-1.824-4.312a5.802 5.802 0 0 1-.195-3.664l.96-3.496h2.438m1-1h-4.203l-1.16 4.23a6.82 6.82 0 0 0 .23 4.293l1.833 4.34c.324.828 1.03 1.3 1.828 1.3.297 0 .605-.066.914-.206 1.054-.47 1.308-1.715.808-2.899l-1.465-4.078a1.377 1.377 0 0 1-.046-.902l1.261-4.262z" fill="#4788c7"/><path d="M25 27.5c-.867 0-1.5-.633-1.5-1.5V13.477l-3 .14V10.5H23c2.027 0 3.5 1.473 3.5 3.5v12c0 .867-.633 1.5-1.5 1.5z" fill="#b6dcfe"/><path d="M23 11c1.738 0 3 1.262 3 3v12c0 .598-.402 1-1 1s-1-.402-1-1V12.95l-1.047.05-1.953.094V11h2m0-1h-3v4.145L23 14v12c0 1.145.84 2 2 2 1.16 0 2-.855 2-2V14c0-2.29-1.68-4-4-4z" fill="#4788c7"/><path d="M23.012 19.93v4.425c0 .551-.45 1-1 1h-3.203V19.93z" fill="#b6dcfe"/><path d="M18.605 27.535a1.65 1.65 0 0 1-1.582-1.246l-3.402-12.887 3.098-.793L20.12 25.5c.113.434.055.883-.168 1.262a1.549 1.549 0 0 1-1.348.773z" fill="#b6dcfe"/><path d="M16.36 13.215l3.277 12.414a1.13 1.13 0 0 1-.117.879 1.047 1.047 0 0 1-.915.527c-.511 0-.964-.36-1.097-.875l-3.274-12.398 2.125-.547M17.074 12l-4.062 1.043 3.527 13.371c.258.973 1.125 1.621 2.066 1.621.172 0 .344-.02.512-.062 1.125-.29 1.79-1.453 1.485-2.602z" fill="#4788c7"/><path d="M25 17l-8.02.105-2.207-1.312s-.847-2.75-.84-3.3c.008-.384.172-1.493 1.512-1.493h7.297c1.63 0 2.945 1.418 2.945 3.188z" fill="#b6dcfe"/><path d="M23.5 18a.504.504 0 0 1-.5-.5v-1c0-.273.227-.5.5-.5s.5.227.5.5v1c0 .273-.227.5-.5.5z" fill="#4788c7"/><path d="M17.777 16.625l2.344 8.875c.113.434.055.883-.168 1.262a1.55 1.55 0 0 1-.957.722 1.47 1.47 0 0 1-.39.051 1.65 1.65 0 0 1-1.583-1.246" fill="none" stroke-linecap="round" stroke="#4788c7" stroke-miterlimit="10"/></svg>