<svg xmlns="http://www.w3.org/2000/svg" viewBox="0 0 50 50"><path d="M14 2C8.5 2 3.887 3.586 3.687 3.688c-.5.101-.789.624-.687 1.124C3.102 5.415 5.488 20 16.188 20c2.199 0 3.718-.406 3.718-.406s.407-.082.907-.282c-3-5.898-10.211-10.617-10.313-10.718-.5-.301-.613-.906-.313-1.406.301-.5.907-.583 1.407-.282 6.5 3.899 11 11.508 11 11.407.898 1.398 1.406 2.898 1.406 4.5V25c0 .035-.004.063 0 .094V26H11c-.602 0-1 .398-1 1v5c0 .602.398 1 1 1h28c.602 0 1-.398 1-1v-5c0-.602-.398-1-1-1H26v-.688c0-.101-.004-.21 0-.312.332-6.953 12.012-12.309 12.406-12.406.5-.2 1.082 0 1.282.5.199.5 0 1.113-.5 1.312-.102 0-6.399 2.707-9.5 7.406.199.102.304.188.406.188.101 0 2.011.906 4.812.906C44.707 23.008 47 10.914 47 10.813c.102-.5-.195-.926-.594-1.126C46.207 9.586 42.5 8 37 8c-3 0-5.395.887-7.094 2.688-2.898 3.101-2.718 7.011-2.718 7.312-.625.594-1.157 1.313-1.625 2.094-.352-1.14-.895-2.223-1.563-3.282 1.5-3.199 1.395-7.125-.406-10.125C21.695 3.688 18.3 2 14 2zm-1.594 33L15 47.188c.102.5.5.812 1 .812h18c.5 0 .898-.313 1-.813L37.594 35z"/></svg>