<svg xmlns="http://www.w3.org/2000/svg" viewBox="0 0 50 50"><path d="M24.906 2a.984.984 0 0 0-.468.188l-22 15A1 1 0 0 0 2 18v3c0 .55.45 1 1 1h2v25c0 .55.45 1 1 1h38c.55 0 1-.45 1-1V22h2c.55 0 1-.45 1-1v-3a1 1 0 0 0-.438-.813l-22-15A1.01 1.01 0 0 0 24.907 2zM25 4.188L46 18.5V20h-1.719L25.563 7.187c-.34-.23-.786-.23-1.125 0L5.718 20H4v-1.5zm0 5.03L43 21.5V46H7V21.5zM24 18v2.094c-3.441.363-5.563 2.414-5.563 5.375 0 7.539 11.188 3.984 11.188 9.187C29.625 36.668 27.75 38 25 38s-4.57-1.512-4.719-3.344h-2.343c.015 3 2.398 5.14 6.062 5.438V42h2v-1.938c3.793-.343 6-2.382 6-5.593 0-7.43-11.219-4.457-11.219-9.157 0-1.71 1.512-3.125 4.219-3.125 2.707 0 4.258 1.54 4.313 3.25h2.343c-.093-2.937-2.32-5.023-5.656-5.343V18z"/></svg>