<svg xmlns="http://www.w3.org/2000/svg" viewBox="0 0 80 80"><path d="M67.5 6a5.513 5.513 0 0 0-5.5 5.5c0 3.027 2.473 5.5 5.5 5.5s5.5-2.473 5.5-5.5S70.527 6 67.5 6zm0 2c1.945 0 3.5 1.555 3.5 3.5S69.445 15 67.5 15a3.484 3.484 0 0 1-3.5-3.5C64 9.555 65.555 8 67.5 8zM54 13c-1.574 0-2.934.934-3.582 2.266A43.61 43.61 0 0 0 40 14c-9.316 0-17.77 2.852-23.938 7.527C9.896 26.2 6 32.738 6 40c0 7.262 3.895 13.8 10.063 18.473C22.23 63.148 30.682 66 40 66c9.316 0 17.77-2.852 23.938-7.527C70.105 53.8 74 47.262 74 40c0-9.41-6.527-17.555-16.113-22.098.066-.293.113-.593.113-.902 0-2.2-1.8-4-4-4zm0 2c1.117 0 2 .883 2 2 0 .297-.066.574-.18.828a.961.961 0 0 0-.125.235A1.987 1.987 0 0 1 54 19c-1.117 0-2-.883-2-2 0-.125.016-.25.035-.371l.012-.05v-.005A1.981 1.981 0 0 1 54 15zm-14 1c3.508 0 6.867.441 10.023 1.227C50.145 19.317 51.88 21 54 21a3.99 3.99 0 0 0 2.953-1.328C66.06 23.957 72 31.492 72 40c0 6.547-3.492 12.504-9.27 16.879C56.953 61.258 48.906 64 40 64s-16.953-2.742-22.73-7.121C11.492 52.504 8 46.547 8 40c0-6.547 3.492-12.504 9.27-16.879C23.047 18.742 31.094 16 40 16zm-1.781 8.063h-.102l-.789.43-.125.886.637.637.347.047h.098l.79-.434.128-.883-.637-.637zm4.136.019l-.84.316-.25.864.544.71.336.102.101.008.836-.316.25-.86-.539-.715-.34-.097zm-8.343.48l-.098.016-.723.535v.899l.715.535h.356l.097-.016.72-.531v-.898l-.716-.54zm12.472.086l-.859.258-.309.844.489.75.332.121.097.016.86-.258.308-.844-.492-.75-.332-.117zm-16.222.93l-.352.047-.098.031-.632.637.125.883.785.433.348-.05.093-.032.64-.632-.124-.883zm20.304.207l-.886.133-.426.785.379.813.308.168.094.03.887-.132.426-.785-.375-.813-.313-.172zm-24.222 1.418l-.34.098-.086.047-.531.722.258.856.843.308.34-.105.086-.047.531-.719-.258-.86zm27.203.32l-.543.715.246.86.223.168-.004.011.078.047.89.082.598-.668-.176-.879-.261-.234-.078-.047-.036-.027-.035-.016-.008-.004zm-30.79 1.961l-.316.16-.02.012-.034.032-.04.03-.054.052-.324.84.48.753.895.075.297-.188.058-.05-.023-.024.367-.735-.402-.8zm34.384.313l-.711.547.011.894.215.282.074.07.864.238.707-.543-.008-.894-.215-.282-.074-.066zM20.57 32.48l-.887.125-.25.243-.059.086-.137.882.63.637.886-.121.25-.246.058-.082.137-.883zm39.495.36l-.808.379-.18.875.145.32.058.082.793.422.813-.379.18-.879-.149-.316-.059-.082zM18.39 36.074l-.79.426-.148.316-.023.102.183.875.813.375.793-.426.144-.32.028-.094-.188-.879zm43.691.555l-.895.074-.476.754.027.355.028.094.59.676.894-.07.477-.762-.028-.348-.027-.097zm-.332 2.402l-.672.59-.078.344-.004.097.375.817.875.187.676-.586.074-.343.004-.102-.375-.816zm-44.07 1.176l-.582.684-.024.347.012.102.488.754.895.058.582-.683.023-.348-.012-.101-.488-.754zM61.313 43l-.84.313-.192.296-.039.094.063.895.754.484.84-.312.19-.297.036-.094-.063-.895zm-41.864 1.043l-.86.25-.312.836.098.34.043.09.715.539.863-.25.313-.84-.102-.336-.043-.094zm40.04 2.52l-.895.023-.282.215-.062.074-.234.867.55.707.899-.023.277-.219.067-.074.234-.867zm-37.884.753l-.761.47-.082.894.183.3.067.07.035.04.035.035h.004l.863.246.707-.547-.011-.894-.149-.2.008-.011-.067-.07zm34.16 1.961l-.312.16-.082.06-.402.8.406.8.883.157.316-.16.078-.059.399-.8-.403-.801zm-31.25.672l-.597.664.176.88.261.234.082.054.891.078.602-.668-.176-.879-.262-.234-.086-.05zm27.9 1.38l-.337.1-.094.044-.53.726.26.856.845.304.336-.101.09-.047.53-.723-.261-.855zm-23.524.519l-.895.066-.48.754.312.836.297.195.094.035.89-.062.485-.754-.313-.84-.297-.191zm19.847.93l-.347.05-.094.031-.64.63.128.886.785.434.348-.051.098-.031.636-.633-.125-.887zm-16.101.312l-.875.195-.367.82.433.782.324.144.098.024.875-.196.363-.816-.433-.785-.32-.145zm11.89.574l-.101.02-.719.53-.004.895.719.543h.351l.098-.02.723-.534v-.895l-.715-.539zm-7.996.125l-.843.316-.247.864.543.715.34.097.098.008.84-.316.246-.864-.54-.71-.343-.098zm4.051.191l-.098.004-.789.426-.129.887.637.637.348.05.101-.004.785-.433.126-.887-.633-.629z"/></svg>