<svg xmlns="http://www.w3.org/2000/svg" viewBox="0 0 16 16"><path d="M2.5 1C1.676 1 1 1.676 1 2.5S1.676 4 2.5 4 4 3.324 4 2.5 3.324 1 2.5 1zm8 0C9.676 1 9 1.676 9 2.5c0 .68.465 1.254 1.094 1.438a1.875 1.875 0 0 0-.067.296A9.478 9.478 0 0 0 8 4c-1.887 0-3.605.523-4.883 1.406C1.844 6.29 1 7.563 1 9c0 1.438.844 2.71 2.117 3.594C4.395 13.477 6.113 14 8 14s3.605-.523 4.879-1.406C14.156 11.71 15 10.438 15 9c0-1.207-.598-2.3-1.547-3.14.336-.36.547-.837.547-1.36 0-1.098-.902-2-2-2 0-.824-.676-1.5-1.5-1.5zm-8 1c.281 0 .5.219.5.5s-.219.5-.5.5a.494.494 0 0 1-.5-.5c0-.281.219-.5.5-.5zm8 0c.281 0 .5.219.5.5s-.219.5-.5.5a.494.494 0 0 1-.5-.5c0-.281.219-.5.5-.5zM12 3.5c.559 0 1 .441 1 1 0 .559-.441 1-1 1-.559 0-1-.441-1-1 0-.559.441-1 1-1zM8 5c.766 0 1.488.105 2.16.281A2.012 2.012 0 0 0 12 6.5c.191 0 .371-.035.547-.086C13.473 7.137 14 8.035 14 9c0 1.047-.61 2.023-1.688 2.77C11.235 12.52 9.704 13 8 13c-1.703 0-3.234-.48-4.313-1.23C2.61 11.023 2 10.047 2 9s.61-2.023 1.688-2.773C4.766 5.48 6.296 5 8 5zm-.496 1.027c-.012 0-.024 0-.035.004-1.032.063-1.973.305-2.735.688-.757.386-1.351.918-1.609 1.61a.514.514 0 0 0 .07.51.5.5 0 0 0 .868-.167c.132-.356.515-.75 1.125-1.059.613-.308 1.43-.527 2.343-.586a.498.498 0 0 0 .485-.511.496.496 0 0 0-.512-.489z"/></svg>