<svg xmlns="http://www.w3.org/2000/svg" viewBox="0 0 50 50"><path d="M9 2C6.25 2 4 4.25 4 7s2.25 5 5 5 5-2.25 5-5-2.25-5-5-5zm0 2c1.668 0 3 1.332 3 3s-1.332 3-3 3-3-1.332-3-3 1.332-3 3-3zm29 2c-3.602 0-6.559 2.258-7.594 5.469A30.733 30.733 0 0 0 25 11C12.316 11 2 19.074 2 29s10.316 18 23 18 23-8.074 23-18c0-3.598-1.352-7.078-3.781-9.906A8.053 8.053 0 0 0 46 14c0-4.484-3.516-8-8-8zm0 2c3.363 0 6 2.637 6 6s-2.637 6-6 6a2.32 2.32 0 0 1-.344-.031 5.21 5.21 0 0 0-.656-.063 1 1 0 0 0-1 1V21c0 2.242-1.758 4-4 4s-4-1.758-4-4c0-1.95 1.516-3.668 3.438-3.906a.953.953 0 0 0 .687-.438 1.05 1.05 0 0 0 .125-.843A6.44 6.44 0 0 1 32 14c0-3.363 2.637-6 6-6zM20.812 18.406c.54-.11 1.043.242 1.157.782a1.01 1.01 0 0 1-.782 1.187C15.77 21.496 12 25.047 12 29a1 1 0 1 1-2 0c0-4.914 4.457-9.277 10.813-10.594z"/></svg>