<svg xmlns="http://www.w3.org/2000/svg" viewBox="0 0 50 50"><path d="M1.813 9A1 1 0 0 0 1 10.094c1.04 11.101 3.563 18.242 5.875 22.625 1.156 2.191 2.27 3.691 3.094 4.656.18.21.344.367.5.531-.102.09-.207.176-.313.282-.715.718-1.531 1.859-2.094 3.5A1.002 1.002 0 0 0 9 43h23a.997.997 0 0 0 .938-1.313 8.548 8.548 0 0 0-2.438-3.75c.18-.183.316-.312.531-.562.79-.91 1.844-2.316 2.938-4.313a1.001 1.001 0 0 0 1.968.313c.434-1.063 1.29-1.79 2.5-2.438 1.211-.648 2.731-1.16 4.25-1.75 1.52-.59 3.067-1.261 4.282-2.375C48.184 25.7 49 24.095 49 22c0-3.3-2.7-6-6-6a5.99 5.99 0 0 0-3.969 1.5c.399-2.25.73-4.703.969-7.406A.999.999 0 0 0 39 9H1.813zm1.343 2h34.688c-1.035 10.195-3.364 16.813-5.469 20.781-1.094 2.059-2.11 3.43-2.844 4.282-.613.71-.828.851-.937.937H12.406c-.11-.086-.3-.23-.906-.938-.73-.851-1.758-2.218-2.844-4.28C6.562 27.808 4.238 21.198 3.156 11zM43 18c2.219 0 4 1.781 4 4 0 1.605-.527 2.54-1.406 3.344-.88.804-2.172 1.406-3.625 1.968-1.453.563-3.04 1.079-4.469 1.844-1.027.551-1.977 1.258-2.688 2.219 1.047-2.188 2.094-4.945 3-8.375 0-.004.032.004.032 0a.995.995 0 0 0 .808-.23A.997.997 0 0 0 39 22c0-2.219 1.781-4 4-4zM12.281 39h16.375c.133.113.867.75 1.625 2H10.75c.297-.469.57-1.129.844-1.406A4.57 4.57 0 0 1 12.28 39z"/></svg>