<svg xmlns="http://www.w3.org/2000/svg" viewBox="0 0 50 50"><path d="M2 9c-.281 0-.563.105-.75.313a1.03 1.03 0 0 0-.25.78C2.5 26.149 7.105 33.868 9.656 37h21.719c.742-.902 1.637-2.215 2.594-3.969a1 1 0 0 0 1.968.344c.434-1.063 1.29-1.79 2.5-2.438 1.211-.648 2.731-1.16 4.25-1.75 1.52-.59 3.067-1.261 4.282-2.375C48.184 25.7 49 24.095 49 22c0-3.3-2.7-6-6-6a5.99 5.99 0 0 0-3.969 1.5c.399-2.254.727-4.691.969-7.406a1.035 1.035 0 0 0-.25-.781A1.017 1.017 0 0 0 39 9zm41 9c2.219 0 4 1.781 4 4 0 1.605-.527 2.54-1.406 3.344-.88.804-2.172 1.406-3.625 1.968-1.453.563-3.04 1.079-4.469 1.844-1.008.54-1.95 1.223-2.656 2.157 1.031-2.172 2.074-4.915 2.968-8.313A1.002 1.002 0 0 0 39 22c0-2.219 1.781-4 4-4zM9.719 39c-.617.543-1.211 1.39-1.656 2.688a.998.998 0 0 0 .124.906A.987.987 0 0 0 9 43h23c.32 0 .625-.148.813-.406.187-.262.222-.602.124-.907-.425-1.308-1.035-2.144-1.656-2.687z"/></svg>