<svg xmlns="http://www.w3.org/2000/svg" viewBox="0 0 64 64"><linearGradient id="a" gradientUnits="userSpaceOnUse" x1="32" y1="4.5" x2="32" y2="58.505" spreadMethod="reflect"><stop offset="0" stop-color="#1a6dff"/><stop offset="1" stop-color="#c822ff"/></linearGradient><path d="M57 38c0-4.792-3.085-8.867-7.37-10.372l.615-5.093C50.476 21.066 52 20 53 20h2v-3c0-2.757-2.243-5-5-5H38.72l-.856-2.569A5.01 5.01 0 0 0 33.104 6h-4.207a5.012 5.012 0 0 0-4.761 3.431L23.28 12H12c-2.757 0-5 2.243-5 5v3h2c1 0 2.524 1.066 2.756 2.535l4.722 31.243A4.978 4.978 0 0 0 21.419 58h19.162a4.974 4.974 0 0 0 4.939-4.222l.757-4.792C52.214 48.837 57 43.972 57 38zM26.032 10.064A3.017 3.017 0 0 1 28.896 8h4.207c1.302 0 2.452.83 2.864 2.064L36.613 12h-1.892l-.545-1.634A1.993 1.993 0 0 0 32.282 9h-2.564c-.861 0-1.622.549-1.893 1.364L27.279 12h-1.893l.646-1.936zM9 17c0-1.654 1.346-3 3-3h38c1.654 0 3 1.346 3 3v1H9v-1zm34.545 36.467A2.986 2.986 0 0 1 40.581 56h-3.963l-.446-.892A1.992 1.992 0 0 0 34.38 54h-6.76c-.764 0-1.451.425-1.792 1.108l-.446.892h-3.963c-1.486 0-2.628-1.065-2.86-2.533l-4.827-31.243c-.132-.838-.505-1.588-1.004-2.224H17v5h2v-5h3v11h2V20h3v8h2v-8h3v5h2v-5h15.272c-.499.636-.871 1.386-1.003 2.224l-.593 4.918A10.9 10.9 0 0 0 46 27c-6.065 0-11 4.935-11 11v11h9.251l-.706 4.467zM46 47h-9v-9c0-4.962 4.037-9 9-9s9 4.038 9 9-4.037 9-9 9z" fill="url(#a)"/><linearGradient id="b" gradientUnits="userSpaceOnUse" x1="50" y1="33.875" x2="50" y2="38.252" spreadMethod="reflect"><stop offset="0" stop-color="#6dc7ff"/><stop offset="1" stop-color="#e6abff"/></linearGradient><circle cx="50" cy="36" r="2" fill="url(#b)"/><linearGradient id="c" gradientUnits="userSpaceOnUse" x1="42" y1="33.875" x2="42" y2="38.252" spreadMethod="reflect"><stop offset="0" stop-color="#6dc7ff"/><stop offset="1" stop-color="#e6abff"/></linearGradient><circle cx="42" cy="36" r="2" fill="url(#c)"/><linearGradient id="d" gradientUnits="userSpaceOnUse" x1="46" y1="38.125" x2="46" y2="43.513" spreadMethod="reflect"><stop offset="0" stop-color="#6dc7ff"/><stop offset="1" stop-color="#e6abff"/></linearGradient><path d="M49.454 43a.512.512 0 0 0 .502-.594 4 4 0 0 0-7.912 0 .514.514 0 0 0 .502.594h6.908z" fill="url(#d)"/></svg>