<svg xmlns="http://www.w3.org/2000/svg" viewBox="0 0 64 64"><path d="M31 2C15.008 2 2 15.008 2 31s13.008 29 29 29 29-13.008 29-29S46.992 2 31 2zm0 2c14.887 0 27 12.113 27 27S45.887 58 31 58 4 45.887 4 31 16.113 4 31 4zm0 4C18.316 8 8 18.316 8 31s10.316 23 23 23 23-10.316 23-23c0-7.105-3.207-13.7-8.8-18.094a.996.996 0 0 0-1.403.168 1.005 1.005 0 0 0 .168 1.406C49.07 18.492 52 24.516 52 31c0 11.578-9.422 21-21 21s-21-9.422-21-21 9.422-21 21-21c1.027 0 2.059.074 3.063.223a.997.997 0 0 0 1.136-.844 1.004 1.004 0 0 0-.844-1.137A23.4 23.4 0 0 0 31 8zm7.531 1.344c-.386.02-.746.265-.89.656-.188.516.078 1.09.597 1.281.782.285 1.559.63 2.309 1.012a.997.997 0 0 0 1.348-.438 1 1 0 0 0-.438-1.343 22.696 22.696 0 0 0-2.531-1.11.98.98 0 0 0-.395-.058zM31 18a1.999 1.999 0 1 0 0 4 1.999 1.999 0 1 0 0-4zm-1.96 6c-.481 0-.962.398-.962 1s.36 1 .961 1H30v14h-1.96c-.481 0-.962.398-.962 1s.36 1 .961 1H34c.602 0 .96-.398.96-1s-.358-1-.96-1h-2V26h1c.602 0 .96-.398.96-1s-.358-1-.96-1zM13 30c-.55 0-1 .45-1 1v2c0 .55.45 1 1 1s1-.45 1-1v-2c0-.55-.45-1-1-1zm5 0c-.55 0-1 .45-1 1v2c0 .55.45 1 1 1s1-.45 1-1v-2c0-.55-.45-1-1-1zm5 0c-.55 0-1 .45-1 1v2c0 .55.45 1 1 1s1-.45 1-1v-2c0-.55-.45-1-1-1zm16 0c-.55 0-1 .45-1 1v2c0 .55.45 1 1 1s1-.45 1-1v-2c0-.55-.45-1-1-1zm5 0c-.55 0-1 .45-1 1v2c0 .55.45 1 1 1s1-.45 1-1v-2c0-.55-.45-1-1-1zm5 0c-.55 0-1 .45-1 1v2c0 .55.45 1 1 1s1-.45 1-1v-2c0-.55-.45-1-1-1z"/></svg>