<svg xmlns="http://www.w3.org/2000/svg" viewBox="0 0 40 40"><path d="M9.5 38.5c-1.652 0-3-1.348-3-3 0-.852.375-1.668 1.031-2.242 1.29-1.297 23.485-22.543 24.633-23.625.621-.735 1.457-1.133 2.336-1.133 1.652 0 3 1.348 3 3 0 .816-.324 1.582-.922 2.152l-.074.075-.02.043c-1.351 1.32-20.972 20.093-24.668 23.613-.613.722-1.445 1.117-2.316 1.117z" fill="#dff0fe"/><path d="M34.5 9c1.379 0 2.5 1.121 2.5 2.5a2.48 2.48 0 0 1-.766 1.793l-.05.047-.04.05c-.011.016-.027.036-.035.051-1.539 1.496-21.113 20.223-24.636 23.582l-.04.036-.035.043c-.48.57-1.171.898-1.898.898A2.502 2.502 0 0 1 7 35.5c0-.719.305-1.379.86-1.867l.027-.024.023-.023C9.191 32.293 31.367 11.07 32.508 10l.043-.043.039-.047A2.495 2.495 0 0 1 34.5 9m0-1a3.47 3.47 0 0 0-2.676 1.27c-.82.77-23.281 22.257-24.625 23.613A3.47 3.47 0 0 0 6 35.5 3.5 3.5 0 0 0 9.5 39c1.074 0 2.02-.492 2.664-1.254 3.45-3.285 24.082-23.027 24.734-23.68.016-.015.016-.039.032-.054A3.482 3.482 0 0 0 38 11.5 3.5 3.5 0 0 0 34.5 8z" fill="#4788c7"/><path d="M37 11.5c0 1.379-1.121 2.5-2.5 2.5a2.502 2.502 0 0 1-2.5-2.5c0-1.379 1.121-2.5 2.5-2.5s2.5 1.121 2.5 2.5z" fill="#fff"/><path d="M19.043 26.703s15.371-15.289 15.625-15.566c-.379.383-.691.324-.86.144-.234-.238-.105-.55.047-.687.399-.364 1.075-.09 1.375.234.301.32.56 1.059.235 1.356-.242.218-.543.23-.703.039-.18-.22-.114-.516.12-.73-.257.054-15.839 15.21-15.839 15.21z" fill="#4788c7"/><path d="M5.5 34.5c-1.652 0-3-1.348-3-3 0-.684.234-1.332.684-1.883l.156-.187-.004-.016c2.117-2.66 20.605-25.34 21.812-26.8-.011.019-.011.023-.007.023a.248.248 0 0 0 .043-.032C25.816 1.883 26.64 1.5 27.5 1.5c1.652 0 3 1.348 3 3 0 .496-.133.98-.39 1.45l-.032.058-.008.02a3.198 3.198 0 0 1-.511.644c-3.426 4.277-19.383 23.808-21.5 26.387-.59.921-1.536 1.441-2.559 1.441z" fill="#dff0fe"/><path d="M27.5 2C28.879 2 30 3.121 30 4.5c0 .41-.11.816-.313 1.18l-.066.12a2.548 2.548 0 0 1-.406.509l-.05.046-.044.055c-3.394 4.246-19.25 23.652-21.45 26.332l-.034.043-.035.055A2.483 2.483 0 0 1 5.5 34 2.502 2.502 0 0 1 3 31.5c0-.715.313-1.246.57-1.566l.032-.036.027-.039.004-.007c.906-1.184 19.992-24.598 21.82-26.817l.05-.047.063-.05.051-.06A2.459 2.459 0 0 1 27.5 2m0-1c-1.059 0-1.996.48-2.64 1.227-.032.023-.07.039-.098.07C23.887 3.355 3.187 28.738 2.797 29.3A3.47 3.47 0 0 0 2 31.5 3.5 3.5 0 0 0 5.5 35a3.481 3.481 0 0 0 2.945-1.625c2.168-2.637 18.047-22.07 21.457-26.34.235-.223.434-.48.602-.762.004-.007.02-.027.023-.035.012-.011.008-.031.02-.047A3.494 3.494 0 0 0 31 4.5 3.5 3.5 0 0 0 27.5 1z" fill="#4788c7"/><path d="M30 4.5C30 5.879 28.879 7 27.5 7A2.502 2.502 0 0 1 25 4.5C25 3.121 26.121 2 27.5 2S30 3.121 30 4.5z" fill="#fff"/><path d="M13.828 21.355s13.567-16.91 13.79-17.21c-.333.421-.65.394-.837.242-.258-.215-.164-.54-.031-.692.355-.406 1.059-.207 1.39.078.337.286.676.993.387 1.32-.215.25-.515.294-.691.118-.207-.2-.172-.496.035-.738-.25.082-14.043 16.882-14.043 16.882z" fill="#4788c7"/></svg>