<svg xmlns="http://www.w3.org/2000/svg" viewBox="0 0 50 50"><path d="M34.95 2c-5.47 0-10.208 3.328-12.102 8.227 1.566.226 3.074.625 4.5 1.191V10.5h1.601v1.64c.738.372 1.457.774 2.145 1.231.09-.957.32-1.719.715-2.273.507-.727 1.238-1.098 2.175-1.098.961 0 1.692.36 2.192 1.078.5.723.761 1.75.773 3.102v.383c0 1.386-.25 2.449-.75 3.187-.07.098-.152.176-.23.262a19.832 19.832 0 0 1 3.793 9.066c4.902-1.937 8.187-6.652 8.187-12.078 0-7.168-5.832-13-13-13zm5.94 8c.958 0 1.688.36 2.188 1.078.5.723.758 1.75.77 3.102v.383c0 1.386-.25 2.449-.75 3.187-.5.73-1.23 1.098-2.192 1.098-.949 0-1.676-.36-2.187-1.078-.5-.72-.75-1.75-.77-3.098v-.383c0-1.398.246-2.469.758-3.191.512-.727 1.242-1.098 2.184-1.098zm-6.902 1.48c-.57 0-.8.22-.972.457-.227.32-.489.993-.489 2.352v.145a19.89 19.89 0 0 1 2.493 2.406c.289-.488.46-1.262.46-2.277v-.383c-.011-1.012-.19-1.79-.511-2.258-.16-.23-.39-.442-.98-.442zm6.903 0c-.57 0-.801.22-.973.457-.23.32-.492.993-.492 2.352v.383c.011 1.008.183 1.797.5 2.25.172.238.402.457.98.457.551 0 .782-.188.973-.457.32-.48.5-1.293.5-2.36v-.382c-.012-1.012-.191-1.79-.512-2.258-.16-.23-.387-.442-.976-.442zM20 12c-9.941 0-18 8.059-18 18s8.059 18 18 18c2.484 0 4.852-.504 7.004-1.414a18.07 18.07 0 0 0 7.922-6.523A17.906 17.906 0 0 0 38 30c0-3.727-1.133-7.191-3.074-10.063a18.06 18.06 0 0 0-7.918-6.523A17.962 17.962 0 0 0 20 12zM6.012 24h2.004c-.043.93-.157 7.102 3.496 10.906 1.82 1.895 4.36 2.914 7.488 3.063v-2.04c-2.418-.23-4.41-1.136-5.918-2.73-3.023-3.195-3.094-8.035-3.066-9.199h2c-.02.8-.008 5.156 2.527 7.828 1.121 1.188 2.61 1.867 4.457 2.086v-2.027c-1.156-.2-2.145-.7-2.938-1.528C14.098 28.297 14 24.957 14.017 24h2c-.008.656.03 3.453 1.5 4.984.406.422.91.703 1.484.864V24h2v5.898a3.078 3.078 0 0 0 1.645-.914c1.3-1.39 1.445-3.964 1.386-4.984h2c.035.98-.008 4.3-1.926 6.355-.82.875-1.87 1.375-3.105 1.551v2.043c1.953-.176 3.52-.875 4.668-2.113 2.504-2.7 2.398-7.09 2.363-7.836h2.004c.05 1.203.05 6.012-2.902 9.195-1.535 1.653-3.602 2.563-6.133 2.754v2.024c3.219-.153 5.777-1.258 7.621-3.223 3.567-3.813 3.45-9.832 3.41-10.75h2c.063 1.379.094 7.785-3.941 12.105-2.227 2.383-5.293 3.66-9.09 3.848V41h1.86c.628 0 1.14.898 1.14 2h-8c0-1.102.512-2 1.14-2H19v-1.02c-3.719-.16-6.73-1.39-8.941-3.699C5.918 31.957 5.953 25.398 6.012 24z"/></svg>