<svg xmlns="http://www.w3.org/2000/svg" viewBox="0 0 26 26"><path d="M13 1.063c-.512 0-1.125.171-1.313.437-.128.18-.374 5.531-.374 5.531h-1.75a.558.558 0 0 0-.47.282.52.52 0 0 0 .032.53c1.355 2.009 3.473 3.962 3.563 4.032.09.07.199.094.312.094.11 0 .219-.02.313-.094.09-.07 2.207-2.023 3.562-4.031a.52.52 0 0 0 .031-.532.508.508 0 0 0-.437-.28h-1.782S14.38 1.68 14.25 1.5c-.188-.266-.738-.438-1.25-.438zm-9.906 11c-.88.066-1.871.34-2.969.906 3.656-1.117 5.563 3.875 5.563 3.875l-1.563.812a.52.52 0 0 0-.031.906c2.125 1.165 5.043 2.04 5.156 2.063.117.023.242.02.344-.031a.51.51 0 0 0 .219-.25c.046-.106.898-2.938 1.187-5.344a.496.496 0 0 0-.219-.469.528.528 0 0 0-.531-.031l-1.563.813s-1.777-3.543-5.593-3.25zm18.968 0c-3.234.23-4.75 3.25-4.75 3.25L15.75 14.5a.528.528 0 0 0-.531.031A.496.496 0 0 0 15 15c.29 2.406 1.14 5.238 1.188 5.344a.51.51 0 0 0 .218.25.55.55 0 0 0 .344.031c.113-.023 3.031-.93 5.156-2.094a.472.472 0 0 0 .25-.437.511.511 0 0 0-.281-.438l-1.563-.812s1.907-4.992 5.563-3.875c-1.465-.754-2.734-.985-3.813-.906zM.907 19.968c-.043.008-.086.02-.125.031A1.002 1.002 0 0 0 0 21v4c0 .55.45 1 1 1h24c.55 0 1-.45 1-1v-4a1.006 1.006 0 0 0-.496-.879 1.01 1.01 0 0 0-1.008 0c-.312.184-.5.52-.496.879v3H2v-3a1 1 0 0 0-1.094-1.031z"/></svg>