<svg xmlns="http://www.w3.org/2000/svg" viewBox="0 0 50 50"><path d="M8.938 0a.932.932 0 0 0-.376.094c-.492.246-.714.851-.468 1.343l4 8 2.75 3.188c.277-.656.601-1.262 1-1.844l-2-2.344L9.906.564A1.023 1.023 0 0 0 8.937 0zm32.124 0a1.027 1.027 0 0 0-.968.563l-3.938 7.875-2 2.343c.403.586.754 1.215 1.032 1.875l2.562-3 4.156-8.219c.246-.492.024-1.097-.468-1.343A.932.932 0 0 0 41.062 0zM23 6c-.934 0-2.469.488-2.875 3.406C17.645 10.961 16 13.652 16 16.72c0 1.437.375 3.039 1.031 4.593C19.266 19.81 22.152 19 25 19s5.734.809 7.969 2.313C33.625 19.758 34 18.155 34 16.718c0-3.067-1.645-5.758-4.125-7.313C29.469 6.488 27.93 6 27 6h-1v2.063A9.349 9.349 0 0 0 25 8a9.13 9.13 0 0 0-1 .063V6zM1.094 13a.97.97 0 0 0-.969.5A1.01 1.01 0 0 0 .5 14.875L9.75 20h4.719a13.558 13.558 0 0 1-.406-2H10.25L1.5 13.125A1.194 1.194 0 0 0 1.094 13zm47.812 0a1.194 1.194 0 0 0-.406.125L39.75 18h-3.813a13.558 13.558 0 0 1-.406 2h4.719l9.25-5.125c.48-.27.645-.89.375-1.375a.97.97 0 0 0-.969-.5zM25 21c-3.207 0-7.633 1.488-9.313 4.625-.449 1.121-.687 2.383-.687 3.75C15 35.215 19.367 42 25 42s10-6.785 10-12.625c0-1.367-.238-2.629-.688-3.75C32.633 22.488 28.207 21 25 21zm-9.688 1.75l-4.78 3.344-9.907 3.968a1.02 1.02 0 0 0-.563 1.313C.22 31.77.606 32 1 32a.96.96 0 0 0 .375-.063l10-4 1.813-1.28c.136-.618.355-1.2.624-1.75.004-.012.028-.024.032-.032l.031-.094.063-.093c.003-.004-.004-.028 0-.032a8.509 8.509 0 0 1 1.374-1.906zm19.376 0a8.48 8.48 0 0 1 1.374 1.938l.063.093.031.094c.004.012.028.02.032.031.273.559.488 1.153.624 1.782l1.626 1.125 10.187 4.125A.96.96 0 0 0 49 32c.395 0 .781-.234.938-.625a1.019 1.019 0 0 0-.563-1.313l-9.906-3.937zm-21 11.094L9.061 38.5l-2.03 10.313a.978.978 0 0 0 .78 1.156c.067.015.122.031.188.031a.993.993 0 0 0 .969-.813l1.937-9.687 3.531-3.594c-.3-.676-.539-1.355-.75-2.062zm22.624 0c-.21.707-.449 1.386-.75 2.062l3.5 3.594 1.97 9.688A.996.996 0 0 0 42 50c.063 0 .121-.016.188-.031a.978.978 0 0 0 .78-1.157L40.907 38.5z"/></svg>