<svg xmlns="http://www.w3.org/2000/svg" viewBox="0 0 40 40"><path d="M19.746 10.898l3.887-4.535-.395-.324A1.998 1.998 0 0 1 22.5 4.5c0-1.102.898-2 2-2a1.99 1.99 0 0 1 1.688.938l.218.347.383-.148A2.01 2.01 0 0 1 27.5 3.5c1.102 0 2 .898 2 2 0 1.102-.898 2-2 2-.125 0-.246-.016-.363-.04l-.258-.046-4.942 4.941z" fill="#fff"/><path d="M24.5 3c.512 0 .984.262 1.266.703l.437.695.766-.293c.18-.07.36-.105.531-.105a1.5 1.5 0 0 1 0 3c-.078 0-.164-.008-.273-.027l-.516-.098-4.84 4.84-1.379-.918 3.188-3.723.668-.773-.79-.649A1.493 1.493 0 0 1 23 4.5 1.5 1.5 0 0 1 24.5 3m0-1A2.497 2.497 0 0 0 22 4.5c0 .777.363 1.465.922 1.926L19 11l3 2 5.047-5.047c.144.027.297.047.453.047C28.883 8 30 6.883 30 5.5S28.883 3 27.5 3c-.316 0-.613.066-.89.172A2.486 2.486 0 0 0 24.5 2z" fill="#4788c7"/><path d="M12.34 27.578C22.094 24.477 18.684 17.52 23.5 11.5c-.21-1.203-1.676-2.586-3-3-3.516 3.824-5.55 4.906-9.727 7.492" fill="#dff0fe" stroke-linejoin="round" stroke="#4788c7" stroke-miterlimit="10"/><path d="M26.68 15.117l7.19-5.397-.172-.367A1.956 1.956 0 0 1 33.5 8.5c0-1.102.898-2 2-2 1.102 0 2 .898 2 2 0 .164-.027.336-.086.54l-.098.347.301.203a2.001 2.001 0 0 1-1.117 3.66c-.41 0-.809-.129-1.148-.367l-.278-.2-6.933 4.622z" fill="#fff"/><path d="M35.5 7A1.5 1.5 0 0 1 37 8.5c0 .113-.02.242-.066.402l-.196.7.598.402a1.5 1.5 0 0 1-.836 2.746 1.49 1.49 0 0 1-.86-.277l-.562-.395-.57.383-6.23 4.152-.923-1.383 6.493-4.867.652-.488-.352-.738A1.515 1.515 0 0 1 34 8.5 1.5 1.5 0 0 1 35.5 7m0-1A2.497 2.497 0 0 0 33 8.5c0 .383.094.742.246 1.066L26 15l2 3 7.063-4.71A2.497 2.497 0 0 0 39 11.25c0-.863-.438-1.625-1.105-2.074A2.42 2.42 0 0 0 38 8.5C38 7.117 36.883 6 35.5 6z" fill="#4788c7"/><path d="M18.68 36.5C7.203 36.5 2.285 25.043 1.566 23.2c1.211-1.52 8.977-10.7 19.832-10.7 12.47 0 13.102 9.996 13.102 12 0 7.18-6.355 12-15.82 12z" fill="#dff0fe"/><path d="M21.398 13C33.395 13 34 22.578 34 24.5 34 31.484 27.988 36 18.68 36 7.996 36 3.129 25.691 2.14 23.285 3.774 21.301 11.21 13 21.399 13m0-1C9.223 12 1 23.11 1 23.11S5.762 37 18.68 37C28.2 37 35 32.238 35 24.5 35 19.637 32.281 12 21.398 12z" fill="#4788c7"/><path d="M22.5 23.5c7.5 0 6.89-7.012 10.89-9.012-.187-1.441-1.105-2.941-2.39-3.43-2.664 1.301-4.086 1.442-10 1.442" fill="#dff0fe" stroke-linecap="round" stroke-linejoin="round" stroke="#4788c7" stroke-miterlimit="10"/></svg>