<svg xmlns="http://www.w3.org/2000/svg" viewBox="0 0 50 50"><path d="M35.344 6c-.43-.04-.89.004-1.407.188-2.093.742-2.218 2.949-1.937 4.25-.441 1.156-1.86 2.695-3.688 3.437-.32.129-.8.281-1.468.438 1.383.402 2.75.851 4.031 1.28 1.137.384 2.328.786 3.344 1.063.054-.074.101-.148.156-.218 1.54-1.95 2.293-2.051 3.156-2.188.395-.063.836-.137 1.344-.344 1.117-.453 1.64-1.191 1.875-1.719.305-.683.332-1.464.063-2.124-.551-1.356-1.817-1.942-2.782-2.126-.492-.855-1.394-1.816-2.687-1.937zm8.687 8c-2.062 0-2.965 1.656-3.125 2.969C39.97 17.969 37.867 19 36 19c-1.297 0-3.48-.727-5.781-1.5C26.73 16.328 22.777 15 19 15c-8.305 0-18 6.023-18 23v.406l.281.313C1.54 38.977 7.738 45 21 45c15.867 0 21-8.672 21-12.875 0-2.371-1.04-4.426-2.031-5.844-.856.586-1.707 1.305-2.594 2.032C34.117 30.983 30.43 34 24 34c-4.973 0-8.598-4.164-8.75-4.344a.996.996 0 0 1 .094-1.406.992.992 0 0 1 1.406.094C16.781 28.379 19.96 32 24 32c5.715 0 8.95-2.672 12.094-5.25 1.289-1.059 2.508-2.055 3.843-2.813.81-.46 1.477-.742 2.063-.937 1.168-.469 1.762-.336 2.406-.188.39.09.828.188 1.375.188C47.88 23 49 21.555 49 20.187c0-1.437-.934-2.46-1.75-3-.043-.617-.203-1.511-.844-2.218-.398-.442-1.144-.969-2.375-.969zm-33.625 1h.031z"/></svg>