<svg xmlns="http://www.w3.org/2000/svg" viewBox="0 0 24 24"><path d="M14.219.188c-1.516.07-2.614.875-4.625 4.812C7.195 9.8 5 15.8 5 17c0 1.8 2.5 3 7 3s7-1.2 7-3c0-1.102-1.113-4.512-3.313-9.313-.398-.8-.8-1.699-1-2.5-.199-1-.292-1.492-.093-1.593.101-.102.511 1.101.812 1 .5-.301-.113-1.602.188-2 .398-.602 1.117 5 3.219 5.5.601.101.48-.399.28-.5-1.198-.602-.788-7.407-4.187-7.407a6.722 6.722 0 0 0-.687 0zm-9.719 14c-2.7 1-4.594 2.511-4.594 4.312 0 3 5.399 5.594 12 5.594 6.602 0 12-2.492 12-5.594.102-1.8-1.699-3.313-4.5-4.313.399 1.2.688 2.305.688 2.907 0 2.5-3.29 4.218-8.188 4.218-4.898 0-8.219-1.718-8.219-4.218 0-.5.313-1.606.813-2.907z"/></svg>