<svg xmlns="http://www.w3.org/2000/svg" viewBox="0 0 24 24"><path d="M19 22S14.992 5.266 14.973 5.152C14.77 3.812 13.387 3 12 3H5l3 2v1l1.5 1-2.75 15.008c3.836 0 5.871-.008 12.25-.008zm-3-3.75l-.75.7.25 1.05-1-.45-1 .45.25-1.05-.75-.7 1.05-.2.45-1.05.45 1.05zm-3.094-9.234a1.986 1.986 0 0 0-.195.847c0 1.102.894 1.996 1.996 1.996.031 0 .063-.007.094-.007A1.997 1.997 0 0 1 12.996 13 1.997 1.997 0 0 1 11 11.004c0-1.07.848-1.938 1.906-1.988zm-1.855 6.035L11.5 14l.45 1.05 1.05.2-.75.7.25 1.05-1-.45-1 .45.25-1.05-.75-.7z"/></svg>