<?xml version="1.0" encoding="utf-8"?>
<!-- Generator: Adobe Illustrator 22.0.1, SVG Export Plug-In . SVG Version: 6.00 Build 0)  -->
<svg version="1.1" xmlns="http://www.w3.org/2000/svg" xmlns:xlink="http://www.w3.org/1999/xlink" x="0px" y="0px"
	 viewBox="0 0 199.2 199" style="enable-background:new 0 0 199.2 199;" xml:space="preserve">
<style type="text/css">
	.st0{fill:url(#SVGID_1_);}
	.st1{fill:#4B4B4B;}
	.st2{fill:#8CC63F;}
	.st3{fill:#39B54A;}
	.st4{fill:#F7931E;}
	.st5{fill:#FBB03B;}
	.st6{fill:#F15A24;}
	.st7{fill:#ED1C24;}
	.st8{fill:#C1272D;}
	.st9{fill:#D61921;}
</style>
<g id="Background">
</g>
<g id="Objects">
	<g>
		<g>
			<path class="st4" d="M101.8,71.6c-2.1,4.4-7.3,6.2-11.7,4.2c-4.4-2.1-6.2-7.3-4.2-11.7c2.1-4.4,7.3-6.2,11.7-4.2
				C102.1,62,103.9,67.3,101.8,71.6z"/>
			<path class="st4" d="M107.5,125.6c9.5-20,2.2-43.3-16.2-52.1c-18.5-8.8-41.2,0.3-50.7,20.3c-16.4,34.5-28.7,36.9-28.7,36.9
				l42.5,20.2L97,171.2C97,171.2,91.1,160,107.5,125.6z"/>
			<g>
				<path class="st5" d="M111.3,112.6c0,0-8.4-9.6-29.4-19.6C61,83.1,48.3,82.6,48.3,82.6c-3,3.2-5.7,6.9-7.7,11.2
					c-6.6,13.8-12.5,22.4-17.2,27.9c0,0,14.8,2.4,38.5,13.6c23.7,11.3,34.8,21.2,34.8,21.2c1.2-7.1,4.2-17.1,10.8-30.9
					C109.5,121.3,110.8,117,111.3,112.6z"/>
				<path class="st5" d="M57,145.5c-25.4-12.1-47.8-18.3-49.9-13.8l-4.5,9.5l0,0l-3.3,6.9L91.4,192l7.8-16.5
					C101.3,171.1,82.4,157.6,57,145.5z"/>
				<path class="st6" d="M91.5,191.6C91.5,191.6,91.5,191.6,91.5,191.6c0-0.2,0-0.4,0-0.5c0,0,0,0,0,0c0-0.1,0-0.3-0.1-0.5
					c0,0,0-0.1,0-0.1c0-0.2-0.1-0.3-0.2-0.5c0,0,0-0.1,0-0.1c-0.1-0.2-0.2-0.3-0.3-0.5c0,0-0.1-0.1-0.1-0.1
					c-0.1-0.2-0.2-0.4-0.4-0.6c0,0-0.1-0.1-0.1-0.1c-0.1-0.2-0.3-0.4-0.4-0.5c0-0.1-0.1-0.1-0.1-0.2c-0.2-0.2-0.4-0.4-0.6-0.7
					c0-0.1-0.1-0.1-0.1-0.2c-0.2-0.2-0.4-0.4-0.5-0.6c-0.1-0.1-0.1-0.1-0.2-0.2c-0.2-0.2-0.5-0.5-0.7-0.7c-0.1-0.1-0.1-0.1-0.2-0.2
					c-0.2-0.2-0.4-0.4-0.7-0.6c-0.1-0.1-0.1-0.1-0.2-0.2c-0.3-0.2-0.6-0.5-0.9-0.7c-0.1-0.1-0.2-0.2-0.3-0.2
					c-0.2-0.2-0.5-0.4-0.8-0.6c-0.1-0.1-0.2-0.1-0.2-0.2c-0.3-0.3-0.7-0.5-1-0.8c-0.1-0.1-0.2-0.2-0.4-0.3c-0.3-0.2-0.6-0.4-0.9-0.7
					c-0.1-0.1-0.2-0.2-0.3-0.2c-0.4-0.3-0.7-0.5-1.1-0.8c-0.1-0.1-0.3-0.2-0.5-0.3c-0.3-0.2-0.6-0.5-1-0.7c-0.2-0.1-0.3-0.2-0.5-0.3
					c-0.3-0.2-0.7-0.5-1-0.7c-0.2-0.1-0.3-0.2-0.5-0.3c-0.4-0.2-0.7-0.5-1.1-0.7c-0.2-0.1-0.4-0.2-0.6-0.4c-0.3-0.2-0.7-0.4-1-0.7
					c-0.2-0.1-0.4-0.2-0.6-0.4c-0.5-0.3-0.9-0.6-1.4-0.9C66,170.5,58,166.2,49.2,162c-8.8-4.2-17.2-7.7-24.6-10.2
					c-0.5-0.2-1-0.4-1.5-0.5c-0.2-0.1-0.4-0.1-0.7-0.2c-0.4-0.1-0.8-0.3-1.2-0.4c-0.2-0.1-0.4-0.1-0.6-0.2c-0.4-0.1-0.9-0.3-1.3-0.4
					c-0.2-0.1-0.4-0.1-0.6-0.2c-0.4-0.1-0.8-0.2-1.2-0.4c-0.2-0.1-0.4-0.1-0.6-0.2c-0.4-0.1-0.8-0.2-1.2-0.3
					c-0.2-0.1-0.4-0.1-0.5-0.1c-0.4-0.1-0.9-0.2-1.3-0.3c-0.1,0-0.2-0.1-0.4-0.1c-0.4-0.1-0.7-0.2-1.1-0.3c-0.2,0-0.3-0.1-0.5-0.1
					c-0.4-0.1-0.8-0.2-1.2-0.3c-0.1,0-0.2,0-0.3-0.1c-0.3-0.1-0.7-0.1-1-0.2c-0.1,0-0.3,0-0.4-0.1c-0.4-0.1-0.8-0.1-1.1-0.2
					c-0.1,0-0.2,0-0.3,0c-0.3,0-0.6-0.1-0.9-0.1c-0.1,0-0.2,0-0.3,0c-0.3,0-0.7-0.1-1-0.1c-0.1,0-0.2,0-0.2,0c-0.3,0-0.5,0-0.8-0.1
					c-0.1,0-0.1,0-0.2,0c-0.3,0-0.6,0-0.9,0c-0.1,0-0.1,0-0.2,0c-0.2,0-0.5,0-0.7,0c0,0-0.1,0-0.1,0c-0.2,0-0.5,0-0.7,0.1
					c-0.1,0-0.1,0-0.2,0c-0.2,0-0.4,0.1-0.5,0.1c0,0-0.1,0-0.1,0c-0.2,0.1-0.4,0.1-0.5,0.2c0,0-0.1,0-0.1,0
					c-0.1,0.1-0.3,0.1-0.4,0.2c0,0,0,0,0,0c-0.1,0.1-0.2,0.2-0.3,0.3c0,0,0,0-0.1,0.1c-0.1,0.1-0.2,0.2-0.2,0.3
					c-2.1,4.5,16.8,17.9,42.2,30c25.4,12.1,47.8,18.3,49.9,13.8C91.4,191.9,91.5,191.8,91.5,191.6z"/>
				<path class="st4" d="M58.2,175c0-0.1,0.1-0.3,0.1-0.4c0.1-0.2,0.2-0.5,0.2-0.7c0-0.2,0.1-0.3,0.1-0.5c0.1-0.2,0.1-0.4,0.1-0.6
					c0-0.2,0.1-0.4,0.1-0.5c0-0.2,0.1-0.4,0.1-0.5c0-0.2,0-0.4,0.1-0.6c0-0.2,0-0.3,0-0.5c0-0.2,0-0.4,0-0.7c0-0.1,0-0.2,0-0.2
					c0-1-0.2-2.1-0.4-3.1c-4.6-2.9-13-6.8-19.2-9.1c-0.9,0.4-1.7,0.9-2.5,1.5c-0.1,0.1-0.2,0.2-0.3,0.2c-0.2,0.1-0.3,0.3-0.5,0.4
					c-0.1,0.1-0.3,0.2-0.4,0.3c-0.1,0.1-0.3,0.3-0.4,0.4c-0.1,0.1-0.3,0.3-0.4,0.4c-0.1,0.1-0.2,0.3-0.3,0.4
					c-0.1,0.2-0.3,0.3-0.4,0.5c-0.1,0.1-0.2,0.3-0.3,0.4c-0.1,0.2-0.3,0.4-0.4,0.6c-0.1,0.1-0.1,0.2-0.2,0.3c-0.2,0.3-0.4,0.7-0.5,1
					c-3.3,6.9-0.3,15.1,6.5,18.4c6.9,3.3,15.1,0.3,18.4-6.5C57.9,175.8,58.1,175.4,58.2,175z"/>
			</g>
			<g>
				<path class="st5" d="M99.2,129.5c-0.5,1.2-1.9,1.6-3.1,1.1c-1.2-0.5-1.6-1.9-1.1-3.1c0.6-1.2,1.9-1.6,3.1-1.1
					C99.2,126.9,99.7,128.3,99.2,129.5z"/>
			</g>
		</g>
		<g>
			<path class="st2" d="M95.4,0v76.8c0,0-6-11.3-22.7-16c0,0,9.2-11.4,0-16.8c0,0,7.6-5.1,3.5-13.6c0,0,11.4-6.7,5.2-17.8
				C81.5,12.5,91,14,95.4,0z"/>
			<path class="st3" d="M95.4,0v76.8c0,0,6-11.3,22.7-16c0,0-9.2-11.4,0-16.8c0,0-7.6-5.1-3.5-13.6c0,0-11.4-6.7-5.2-17.8
				C109.4,12.5,99.9,14,95.4,0z"/>
		</g>
		<g>
			<path class="st2" d="M28.9,38.4l66.5,38.4c0,0-12.8-0.4-25.2,11.6c0,0-5.3-13.7-14.6-8.4c0,0-0.6-9.1-10.1-9.8
				c0,0-0.1-13.2-12.8-13.4C32.8,56.8,38.8,49.2,28.9,38.4z"/>
			<path class="st3" d="M28.9,38.4l66.5,38.4c0,0-6.7-10.9-2.5-27.7c0,0-14.5,2.3-14.6-8.4c0,0-8.2,4.1-13.6-3.8
				c0,0-11.5,6.6-18-4.4C46.8,32.6,43.2,41.5,28.9,38.4z"/>
		</g>
		<g>
			<path class="st2" d="M158.1,137.3L91.5,98.9c0,0,12.8,0.4,25.2-11.6c0,0,5.3,13.7,14.6,8.4c0,0,0.6,9.1,10.1,9.8
				c0,0,0.1,13.2,12.8,13.4C154.2,118.9,148.2,126.4,158.1,137.3z"/>
			<path class="st3" d="M158.1,137.3L91.5,98.9c0,0,6.7,10.9,2.5,27.7c0,0,14.5-2.3,14.6,8.4c0,0,8.2-4.1,13.6,3.8
				c0,0,11.5-6.6,18,4.4C140.2,143.1,143.7,134.1,158.1,137.3z"/>
		</g>
		<g>
			<path class="st2" d="M162,38.4L95.4,76.8c0,0,6.7-10.9,2.5-27.7c0,0,14.5,2.3,14.6-8.4c0,0,8.2,4.1,13.6-3.8c0,0,11.5,6.6,18-4.4
				C144.1,32.6,147.6,41.5,162,38.4z"/>
			<path class="st3" d="M162,38.4L95.4,76.8c0,0,12.8-0.4,25.2,11.6c0,0,5.3-13.7,14.6-8.4c0,0,0.6-9.1,10.1-9.8
				c0,0,0.1-13.2,12.8-13.4C158.1,56.8,152.1,49.2,162,38.4z"/>
		</g>
		<g>
			<path class="st4" d="M101.3,63.1c2.7,4,1.5,9.5-2.5,12.2c-4,2.7-9.5,1.5-12.2-2.5c-2.7-4-1.5-9.5,2.5-12.2
				C93.1,57.9,98.6,59,101.3,63.1z"/>
			<path class="st5" d="M150.3,86.2c-12.2-18.5-35.9-24.4-53-13.1c-17.1,11.3-21.1,35.4-8.9,53.9c21,31.9,16.7,43.7,16.7,43.7
				l39.3-25.9l39.3-25.9C183.9,118.8,171.3,118,150.3,86.2z"/>
			<g>
				<path class="st4" d="M141.2,76.1c0,0-12.6,2.2-31.9,15c-19.4,12.8-26.4,23.4-26.4,23.4c1.2,4.3,3,8.4,5.6,12.4
					c8.4,12.8,12.7,22.3,15,29.1c0,0,9.7-11.4,31.6-25.8c21.9-14.4,36.2-18.8,36.2-18.8c-5.4-4.7-12.5-12.5-20.9-25.2
					C147.7,82.2,144.6,78.9,141.2,76.1z"/>
				<path class="st4" d="M188.8,119.1c-2.7-4.2-24,5-47.6,20.5c-23.5,15.5-40.4,31.4-37.6,35.6l5.8,8.8l0,0l4.2,6.4l85.2-56.1
					L188.8,119.1z"/>
				<path class="st6" d="M198.5,134C198.5,134,198.5,134,198.5,134c-0.2-0.2-0.3-0.2-0.4-0.3c0,0,0,0,0,0c-0.1-0.1-0.3-0.1-0.4-0.2
					c0,0-0.1,0-0.1,0c-0.2,0-0.3-0.1-0.5-0.1c0,0-0.1,0-0.1,0c-0.2,0-0.4,0-0.6,0c-0.1,0-0.1,0-0.2,0c-0.2,0-0.5,0-0.7,0
					c0,0-0.1,0-0.1,0c-0.2,0-0.4,0-0.7,0.1c-0.1,0-0.1,0-0.2,0c-0.3,0-0.6,0.1-0.8,0.1c-0.1,0-0.1,0-0.2,0c-0.3,0.1-0.5,0.1-0.8,0.2
					c-0.1,0-0.2,0-0.2,0.1c-0.3,0.1-0.6,0.2-1,0.3c-0.1,0-0.2,0.1-0.3,0.1c-0.3,0.1-0.6,0.2-0.9,0.3c-0.1,0-0.2,0.1-0.3,0.1
					c-0.4,0.1-0.7,0.2-1.1,0.4c-0.1,0-0.2,0.1-0.4,0.1c-0.3,0.1-0.6,0.2-0.9,0.3c-0.1,0-0.2,0.1-0.3,0.1c-0.4,0.1-0.8,0.3-1.2,0.5
					c-0.1,0.1-0.3,0.1-0.4,0.2c-0.3,0.1-0.7,0.3-1,0.4c-0.1,0-0.2,0.1-0.4,0.1c-0.4,0.2-0.8,0.3-1.2,0.5c-0.2,0.1-0.3,0.1-0.5,0.2
					c-0.4,0.2-0.7,0.3-1.1,0.5c-0.2,0.1-0.4,0.2-0.5,0.2c-0.4,0.2-0.8,0.3-1.1,0.5c-0.2,0.1-0.4,0.2-0.6,0.3
					c-0.4,0.2-0.8,0.4-1.2,0.6c-0.2,0.1-0.4,0.2-0.6,0.3c-0.4,0.2-0.7,0.4-1.1,0.5c-0.2,0.1-0.4,0.2-0.6,0.3c-0.5,0.2-1,0.5-1.4,0.7
					c-6.9,3.6-14.8,8.2-22.9,13.5c-8.1,5.4-15.5,10.8-21.5,15.7c-0.4,0.3-0.8,0.7-1.2,1c-0.2,0.2-0.4,0.3-0.5,0.5
					c-0.3,0.3-0.6,0.5-0.9,0.8c-0.2,0.1-0.3,0.3-0.5,0.4c-0.3,0.3-0.7,0.6-1,0.9c-0.2,0.1-0.3,0.3-0.5,0.4c-0.3,0.3-0.6,0.6-0.9,0.8
					c-0.1,0.1-0.3,0.3-0.4,0.4c-0.3,0.3-0.6,0.5-0.9,0.8c-0.1,0.1-0.3,0.3-0.4,0.4c-0.3,0.3-0.7,0.6-1,0.9c-0.1,0.1-0.2,0.2-0.3,0.3
					c-0.3,0.3-0.5,0.5-0.8,0.8c-0.1,0.1-0.2,0.2-0.3,0.3c-0.3,0.3-0.6,0.6-0.9,0.9c-0.1,0.1-0.1,0.2-0.2,0.2
					c-0.2,0.2-0.5,0.5-0.7,0.7c-0.1,0.1-0.2,0.2-0.3,0.3c-0.3,0.3-0.5,0.6-0.8,0.9c-0.1,0.1-0.1,0.1-0.2,0.2
					c-0.2,0.2-0.4,0.5-0.6,0.7c-0.1,0.1-0.1,0.2-0.2,0.2c-0.2,0.3-0.4,0.5-0.6,0.8c-0.1,0.1-0.1,0.1-0.1,0.2
					c-0.2,0.2-0.3,0.4-0.5,0.6c0,0.1-0.1,0.1-0.1,0.2c-0.2,0.2-0.3,0.5-0.5,0.7c0,0.1-0.1,0.1-0.1,0.2c-0.1,0.2-0.2,0.4-0.3,0.6
					c0,0,0,0.1-0.1,0.1c-0.1,0.2-0.2,0.4-0.3,0.6c0,0,0,0.1-0.1,0.1c-0.1,0.2-0.1,0.4-0.2,0.5c0,0,0,0.1,0,0.1
					c-0.1,0.2-0.1,0.4-0.1,0.5c0,0,0,0.1,0,0.1c0,0.2,0,0.3,0,0.5c0,0,0,0,0,0c0,0.2,0,0.3,0.1,0.4c0,0,0,0.1,0,0.1
					c0,0.1,0.1,0.3,0.2,0.4c2.7,4.2,24-5,47.6-20.5c23.5-15.5,40.4-31.4,37.6-35.6C198.7,134.2,198.6,134.1,198.5,134z"/>
				<path class="st5" d="M167.1,153.9c-0.1-0.1-0.2-0.2-0.3-0.3c-0.2-0.2-0.3-0.4-0.5-0.6c-0.1-0.1-0.2-0.2-0.3-0.4
					c-0.1-0.1-0.3-0.3-0.4-0.4c-0.1-0.1-0.3-0.2-0.4-0.4c-0.1-0.1-0.3-0.2-0.4-0.3c-0.2-0.1-0.3-0.2-0.5-0.4
					c-0.1-0.1-0.3-0.2-0.4-0.3c-0.2-0.1-0.4-0.2-0.5-0.4c-0.1,0-0.1-0.1-0.2-0.1c-0.9-0.5-1.9-0.9-2.8-1.2
					c-4.9,2.4-12.5,7.6-17.8,11.7c-0.1,1-0.1,2,0,2.9c0,0.1,0,0.3,0,0.4c0,0.2,0.1,0.4,0.1,0.6c0,0.2,0.1,0.3,0.1,0.5
					c0,0.2,0.1,0.4,0.1,0.5c0.1,0.2,0.1,0.4,0.2,0.6c0,0.2,0.1,0.3,0.2,0.5c0.1,0.2,0.1,0.4,0.2,0.6c0.1,0.1,0.1,0.3,0.2,0.4
					c0.1,0.2,0.2,0.4,0.3,0.7c0.1,0.1,0.1,0.2,0.2,0.4c0.2,0.3,0.4,0.7,0.6,1c4.2,6.4,12.8,8.1,19.1,3.9c6.4-4.2,8.1-12.8,3.9-19.1
					C167.6,154.5,167.3,154.2,167.1,153.9z"/>
			</g>
		</g>
	</g>
</g>
</svg>
