<svg xmlns="http://www.w3.org/2000/svg" viewBox="0 0 24 24"><path d="M11 2v4H9l3 4 3-4h-2V2zM2 9v2c.926 0 1.594.012 2.031.063.438.05.602.117.782.25.324.234.835 1.101 1.718 2.687l-1.718 1 4.5 2L10 12l-1.719 1C7.418 11.395 6.902 10.344 6 9.687c-.508-.367-1.117-.55-1.75-.624C3.617 8.988 2.926 9 2 9zm18.75 0c-.367.008-.684.027-1 .063-.633.074-1.242.257-1.75.624-.902.657-1.418 1.708-2.281 3.313L14 12l.688 5 4.5-2-1.72-1c.884-1.586 1.395-2.453 1.72-2.688.18-.132.343-.199.78-.25.438-.05 1.106-.062 2.032-.062V9c-.46 0-.883-.008-1.25 0zM2 17v5h20v-5h-2v3H4v-3z"/></svg>