<svg xmlns="http://www.w3.org/2000/svg" viewBox="0 0 50 50"><path d="M47 2H3c-.55 0-1 .45-1 1v44a1 1 0 0 0 1 1h44c.555 0 1-.445 1-1V3a1 1 0 0 0-1-1zM26 9a3 3 0 1 1-.002 6.002A3 3 0 0 1 26 9zm4.75 25.227C29.71 38.805 25.7 42 21 42c-5.516 0-10-4.484-10-10s4.484-10 10-10c.55 0 1 .45 1 1s-.45 1-1 1c-4.41 0-8 3.59-8 8s3.59 8 8 8a7.955 7.955 0 0 0 7.8-6.219.997.997 0 0 1 1.196-.75c.54.121.879.657.754 1.196zm6.273 3.847a1.505 1.505 0 0 1-1.98-.765L32.253 31H26a2 2 0 0 1-2-2v-9a1.999 1.999 0 1 1 4 0v2h5.5a1.5 1.5 0 0 1 0 3H28v3h4.906c.79 0 1.508.469 1.828 1.191l3.051 6.903a1.5 1.5 0 0 1-.762 1.98z"/></svg>