<svg xmlns="http://www.w3.org/2000/svg" viewBox="0 0 40 40"><path d="M9.5 6.023h21V8h-21z" fill="#dff0fe"/><path d="M30 34.5c-5.414 0-9.5-3.797-9.5-8.832h-1c0 5.035-4.086 8.832-9.5 8.832C4.762 34.5.5 30.238.5 25c0-5.672 2.934-8.953 5.52-11.848 1.726-1.93 3.238-3.62 3.453-5.652h21.054c.215 2.035 1.727 3.723 3.453 5.656 2.586 2.899 5.52 6.18 5.52 11.844 0 5.238-4.262 9.5-9.5 9.5z" fill="#dff0fe"/><path d="M30.098 8c.394 2.004 1.914 3.703 3.511 5.492C36.137 16.32 39 19.527 39 25c0 4.965-4.035 9-9 9-5.133 0-9-3.582-9-8.328h-2C19 30.418 15.133 34 10 34c-4.965 0-9-4.035-9-9 0-5.48 2.863-8.688 5.395-11.516C7.988 11.7 9.508 10.004 9.902 8h20.196M31 7H9c0 5-9 7.992-9 18 0 5.5 4.5 10 10 10s10-3.828 10-9.328C20 31.172 24.5 35 30 35s10-4.5 10-10c0-9.996-9-13-9-18z" fill="#4788c7"/><path d="M20 31.5c-.883 0-1.73-.156-2.383-.434a7.28 7.28 0 0 0 .574-.8 8.168 8.168 0 0 0 .918-1.993l.02-.078c.219-.73.34-1.476.36-2.21l.003-.06-.012-.058a6.067 6.067 0 0 0-.34-1.062c-1.476-3.668-5.949-6.207-11.128-6.305l-.426-.004c-2.117 0-4.066.317-5.797.942-.062.023-.129.046-.191.07 1.101-2.625 2.867-4.61 4.441-6.383.524-.59 1.024-1.152 1.473-1.703.332-.121.761-.23 1.336-.344 2.828-.52 7.718-.578 11.152-.578 3.434 0 8.324.059 11.16.582.5.09.953.203 1.32.332.454.559.958 1.125 1.48 1.715 1.58 1.773 3.34 3.758 4.442 6.379-.066-.028-.136-.051-.203-.074-1.719-.622-3.668-.938-5.785-.938l-.426.004c-5.18.098-9.652 2.637-11.133 6.313a6.09 6.09 0 0 0-.335 1.054l-.012.059.004.058c.02.739.14 1.485.36 2.22l.019.07c.199.667.5 1.32.914 1.992.175.28.37.547.578.8-.653.278-1.5.434-2.383.434z" fill="#98ccfd"/><path d="M20 11c3.414 0 8.273.059 11.07.574.489.086.856.184 1.114.27.433.527.906 1.058 1.406 1.62 1.332 1.5 2.8 3.15 3.867 5.208-1.543-.45-3.234-.676-5.043-.676-.144 0-.289 0-.434.004-5.378.102-10.035 2.766-11.582 6.613-.164.39-.289.778-.367 1.149l-.023.117v.117c.02.758.14 1.52.36 2.27v.007l.042.141a8.752 8.752 0 0 0 1.156 2.398A6.354 6.354 0 0 1 20 31a6.354 6.354 0 0 1-1.566-.188c.062-.093.125-.187.187-.285a8.791 8.791 0 0 0 .969-2.113l.039-.137c.219-.754.34-1.52.36-2.28l.003-.118-.023-.117a6.436 6.436 0 0 0-.36-1.133C18.055 20.766 13.4 18.105 8.02 18c-.144-.004-.289-.004-.437-.004-1.812 0-3.508.227-5.043.672 1.07-2.059 2.54-3.711 3.875-5.211.492-.555.961-1.082 1.395-1.61.289-.093.664-.183 1.12-.273C11.728 11.06 16.587 11 20 11m0-1c-4.36 0-8.64.11-11.25.59-.61.12-1.129.25-1.54.41-1.991 2.488-5.093 5.152-6.487 9.414a11.24 11.24 0 0 1 1.238-.504c1.824-.66 3.77-.914 5.625-.914.137 0 .277 0 .414.004 4.691.09 9.219 2.371 10.68 6 .129.309.242.64.308.969a7.958 7.958 0 0 1-.36 2.152v.008a7.687 7.687 0 0 1-1.808 3.082c.73.48 1.88.789 3.18.789 1.3 0 2.45-.309 3.18-.79a7.687 7.687 0 0 1-1.809-3.082v-.007a7.958 7.958 0 0 1-.36-2.152c.067-.328.18-.66.31-.969 1.46-3.629 5.988-5.91 10.679-6 .137-.004.277-.004.414-.004 1.86 0 3.8.254 5.625.914.414.137.832.309 1.234.504-1.394-4.262-4.5-6.93-6.492-9.422v-.004a9.22 9.22 0 0 0-1.531-.398C28.64 10.11 24.352 10 20 10z" fill="#4788c7"/><path d="M30.402 9a5.674 5.674 0 0 1-.304-1L30 7H10l-.098 1c-.066.344-.18.672-.304 1z" fill="#dff0fe"/><path d="M31 7h-1v-.5c0-.273.227-.5.5-.5s.5.227.5.5zM10 7H9v-.5c0-.273.227-.5.5-.5s.5.227.5.5z" fill="#4788c7"/></svg>