<svg xmlns="http://www.w3.org/2000/svg" viewBox="0 0 24 24"><path d="M4.375 5.125S2 8.492 2 12.5C2 15.535 4.465 18 7.5 18a5.516 5.516 0 0 0 4.5-2.344A5.516 5.516 0 0 0 16.5 18c3.035 0 5.5-2.465 5.5-5.5 0-4.008-2.375-7.375-2.375-7.375l-1.656 1.156S20 9.31 20 12.5a3.46 3.46 0 0 1-3.5 3.5 3.46 3.46 0 0 1-3.5-3.5c0-.867.336-2.566.594-2.906L12 8.406l-1.594 1.188c.258.34.594 2.039.594 2.906A3.46 3.46 0 0 1 7.5 16 3.46 3.46 0 0 1 4 12.5c0-3.191 2.031-6.219 2.031-6.219zM7.5 12a1.5 1.5 0 1 0 0 3 1.5 1.5 0 0 0 0-3zm9 0a1.5 1.5 0 1 0 0 3 1.5 1.5 0 0 0 0-3z"/></svg>