<svg xmlns="http://www.w3.org/2000/svg" viewBox="0 0 40 40"><path d="M9.574 38.5l1.399-10.18.304-6.71 3.457 2.554-.09 5.121-1.273 9.215z" fill="#98ccfd"/><path d="M11.734 22.57l2.496 1.844-.082 4.805L12.934 38h-2.786l1.32-9.613.005-.043.004-.047.257-5.727m-.914-1.922l-.343 7.602L9 39h4.809l1.336-9.707.093-5.379zM27 20h-2l5 19h2z" fill="#4788c7"/><path d="M27.5 5a3.5 3.5 0 1 1-7 0 3.5 3.5 0 1 1 7 0z" fill="#dff0fe"/><path d="M24 2c1.652 0 3 1.348 3 3s-1.348 3-3 3-3-1.348-3-3 1.348-3 3-3m0-1c-2.21 0-4 1.79-4 4s1.79 4 4 4 4-1.79 4-4-1.79-4-4-4z" fill="#4788c7"/><path d="M18.586 38.5l-2.129-8.738-6.195-7.102c-1.219-1.332-1.696-2.437-1.559-3.601.356-2.934 1.824-8.516 7.692-13.356L27.12 18.828c.29.352.43.793.387 1.219-.043.43-.266.812-.637 1.11a1.624 1.624 0 0 1-2.226-.216l-6.625-7.687-.383.402c-.102.106-2.52 2.684-3.13 6.258l-.034.207 5.066 7.094L22.36 38.5z" fill="#b6dcfe"/><path d="M16.328 6.41l10.41 12.738c.203.247.301.555.274.848a1.124 1.124 0 0 1-.438.758l-.074.055a1.129 1.129 0 0 1-1.477-.191l-6.265-7.27-.723-.836-.762.8c-.105.114-2.625 2.797-3.261 6.52l-.07.41.242.34 4.89 6.844L21.72 38h-2.74l-2.007-8.238-.059-.235-.16-.183-6.133-7.035c-1.117-1.22-1.543-2.172-1.422-3.192.336-2.793 1.715-8.05 7.13-12.707m.14-1.41c-5.543 4.402-7.754 9.766-8.262 14-.187 1.555.621 2.832 1.68 3.988L16 30l2.191 9H23l-3-12-5-7c.594-3.465 3-6 3-6l6.266 7.27a2.12 2.12 0 0 0 1.605.73c.48 0 .961-.16 1.356-.488l-.047.035a1.361 1.361 0 0 1-.082.062l.082-.062c1.043-.82 1.062-2.152.332-3.035z" fill="#4788c7"/></svg>