<svg xmlns="http://www.w3.org/2000/svg" viewBox="0 0 32 32"><path d="M19.438 4a3.514 3.514 0 0 0-3.5 3.5c0 1.922 1.578 3.5 3.5 3.5 1.921 0 3.5-1.578 3.5-3.5s-1.58-3.5-3.5-3.5zm0 2c.84 0 1.5.66 1.5 1.5s-.66 1.5-1.5 1.5-1.5-.66-1.5-1.5.66-1.5 1.5-1.5zm-5.032 3.031c-.515.051-.98.301-1.312.719-2.414 3.023-2.11 7.168-2.094 7.344l.031.312 3.375 3.782L15.625 27h2.063l-1.407-6.75L13 16.594c-.016-.907.082-3.57 1.594-5.532l1.25 3.657c.136.386.386.726.719.969l3.812 2.75 1.188-1.625-3.813-2.75-1.313-3.75a1.955 1.955 0 0 0-1.5-1.282 2.016 2.016 0 0 0-.53 0zm7.781 8.844l-1 1.5L22.22 27h1.28zm-10.78 1.469L9.906 27h2.03l1.157-5.813z"/></svg>