<svg xmlns="http://www.w3.org/2000/svg" viewBox="0 0 64 64"><linearGradient id="a" gradientUnits="userSpaceOnUse" x1="27.051" y1="7.975" x2="27.051" y2="-1.257" gradientTransform="scale(1 -1) rotate(-45 -45.255 -7)" spreadMethod="reflect"><stop offset="0" stop-color="#6dc7ff"/><stop offset="1" stop-color="#e6abff"/></linearGradient><path d="M10.565 53.435a1.996 1.996 0 0 1 0-2.816l4.225-4.225 2.816 2.816-4.225 4.225a1.996 1.996 0 0 1-2.816 0z" fill="url(#a)"/><linearGradient id="b" gradientUnits="userSpaceOnUse" x1="32" y1="57.999" x2="32" y2="6" gradientTransform="matrix(1 0 0 -1 0 64)" spreadMethod="reflect"><stop offset="0" stop-color="#1a6dff"/><stop offset="1" stop-color="#c822ff"/></linearGradient><path d="M23.942 47.099l-7.041-7.041c1.408-7.041-1.127-8.731 3.521-13.378l16.194-16.194c4.647-4.647 12.251-4.647 16.898 0s4.647 12.251 0 16.898L37.32 43.578c-4.647 4.647-6.337 2.112-13.378 3.521zm-7.041-7.041l-8.449 8.449c-1.936 1.936-1.936 5.105 0 7.041s5.105 1.936 7.041 0l8.449-8.449M37.32 9.781l4.929 4.929m-10.561.704l4.929 4.929m-10.562.704l4.929 4.929m-10.562.704l4.929 4.929m21.123-14.083L20.422 43.578m30.276-19.011a7.966 7.966 0 0 0 0-11.266" fill="none" stroke="url(#b)" stroke-width="2" stroke-miterlimit="10"/></svg>