<svg xmlns="http://www.w3.org/2000/svg" viewBox="0 0 24 24"><path d="M10.656 2a.302.302 0 0 0-.312.281l-.156 1.688c-.426.172-.833.41-1.188.687L7.437 3.97a.31.31 0 0 0-.406.125L5.72 6.406a.34.34 0 0 0 .093.438l1.375.968a4.997 4.997 0 0 0-.062.688c0 .23.031.465.063.688l-1.375.968a.34.34 0 0 0-.094.438l1.312 2.312c.082.145.254.192.407.125L9 12.344c.355.277.762.515 1.188.687l.156 1.688a.305.305 0 0 0 .312.281h2.688a.305.305 0 0 0 .312-.281l.156-1.688c.426-.172.833-.41 1.188-.687l1.563.687c.152.07.324.02.406-.125l1.312-2.312a.34.34 0 0 0-.093-.438l-1.375-.969c.03-.222.062-.457.062-.687a4.9 4.9 0 0 0-.063-.688l1.375-.968a.34.34 0 0 0 .094-.438L16.97 4.094c-.082-.145-.254-.192-.407-.125L15 4.656a4.985 4.985 0 0 0-1.188-.687l-.156-1.688A.302.302 0 0 0 13.344 2zM12 5.906A2.587 2.587 0 0 1 14.594 8.5 2.587 2.587 0 0 1 12 11.094 2.587 2.587 0 0 1 9.406 8.5 2.587 2.587 0 0 1 12 5.906zM2 14v6c0 1.094.906 2 2 2h16c1.094 0 2-.906 2-2v-6h-2v6H4v-6z"/></svg>