<svg xmlns="http://www.w3.org/2000/svg" viewBox="0 0 80 80"><path d="M40 8c-7.285 0-14.395 3.078-14.395 3.078l-.69.297.093.75s.5 4.117.789 8.621C23.934 22.476 18 28.844 18 40c0 3.223 1.02 8.195 1.02 8.195l.16.805h12.547c.394.395.82.758 1.273 1.09v2.148c-1.492.43-5.156 1.547-8.906 3.227-2.422 1.082-4.864 2.387-6.758 3.93C15.44 60.94 14 62.797 14 65v6h52v-6c0-2.203-1.441-4.059-3.336-5.605-1.894-1.543-4.336-2.848-6.758-3.93-3.75-1.68-7.414-2.797-8.906-3.227v-2.144c.453-.332.879-.7 1.277-1.094H60.82l.16-.805S62 43.223 62 40c0-11.156-5.934-17.523-7.797-19.254.29-4.504.79-8.621.79-8.621l.093-.75-.691-.297S47.285 8 40 8zm0 2c6.195 0 11.996 2.309 12.941 2.691-.093.778-.75 6-.91 11.336a.979.979 0 0 1-1 .973H28.97a.981.981 0 0 1-1-.973c-.16-5.336-.817-10.558-.91-11.336C28.004 12.31 33.805 10 40 10zm-1 3v4h-4v2h4v4h2v-4h4v-2h-4v-4zM25.937 23.453c.008.211.024.426.032.633a3.018 3.018 0 0 0 3 2.914h2.406C29.473 28.73 28 31.293 28 34.555v4.812c0 2.832.75 5.477 2.125 7.633h-9.281c-.207-1.09-.844-4.613-.844-7 0-8.66 3.695-14.05 5.938-16.547zm28.125 0C56.306 25.95 60 31.34 60 40c0 2.387-.637 5.91-.844 7h-9.281C51.25 44.844 52 42.2 52 39.367V33c0-2.66-.688-4.61-1.531-6h.562a3.02 3.02 0 0 0 3-2.914c.008-.207.024-.422.032-.633zM34.945 27h13.043c.934.996 2.012 2.773 2.012 6v6.367c0 5.535-2.93 9.906-8.059 10.82l-.285.047-.215.2c-.39.355-.882.566-1.441.566s-1.05-.21-1.441-.566l-.215-.2-.285-.047C32.929 49.273 30 44.903 30 39.367v-4.812c0-3.88 2.559-6.516 4.945-7.555zm-.445 8a1.5 1.5 0 1 0 0 3 1.5 1.5 0 0 0 0-3zm11 0a1.5 1.5 0 1 0 0 3 1.5 1.5 0 0 0 0-3zM35 51.262c.754.34 1.563.605 2.426.785.707.566 1.59.953 2.574.953.98 0 1.86-.383 2.563-.95.867-.175 1.68-.44 2.437-.784v4.988c-.121.242-1.422 2.746-5 2.746-3.578 0-4.879-2.504-5-2.746zm-2 3.07v2.477l.105.207S35.18 61 40 61c4.82 0 6.895-3.984 6.895-3.984l.105-.207v-2.477c1.68.496 4.848 1.504 8.094 2.953 2.328 1.043 4.636 2.3 6.304 3.664C63.066 62.31 64 63.703 64 65v4H16v-4c0-1.297.934-2.691 2.602-4.05 1.668-1.364 3.976-2.622 6.304-3.665 3.246-1.45 6.414-2.457 8.094-2.953zM20 65c-.55 0-1 .45-1 1s.45 1 1 1 1-.45 1-1-.45-1-1-1zm4 0c-.55 0-1 .45-1 1s.45 1 1 1 1-.45 1-1-.45-1-1-1zm4 0c-.55 0-1 .45-1 1s.45 1 1 1 1-.45 1-1-.45-1-1-1zm4 0c-.55 0-1 .45-1 1s.45 1 1 1 1-.45 1-1-.45-1-1-1zm4 0c-.55 0-1 .45-1 1s.45 1 1 1 1-.45 1-1-.45-1-1-1zm4 0c-.55 0-1 .45-1 1s.45 1 1 1 1-.45 1-1-.45-1-1-1zm4 0c-.55 0-1 .45-1 1s.45 1 1 1 1-.45 1-1-.45-1-1-1zm4 0c-.55 0-1 .45-1 1s.45 1 1 1 1-.45 1-1-.45-1-1-1zm4 0c-.55 0-1 .45-1 1s.45 1 1 1 1-.45 1-1-.45-1-1-1zm4 0c-.55 0-1 .45-1 1s.45 1 1 1 1-.45 1-1-.45-1-1-1zm4 0c-.55 0-1 .45-1 1s.45 1 1 1 1-.45 1-1-.45-1-1-1z"/></svg>