<svg xmlns="http://www.w3.org/2000/svg" viewBox="0 0 64 64"><path d="M41 16.441l-.54-.152a31.991 31.991 0 0 0-16.839 0l-.543.152a1.996 1.996 0 0 1-2.476-1.511L18.422 5A1.999 1.999 0 0 1 20 2.578l2-.43a48.063 48.063 0 0 1 20.11 0l2 .43c.515.129.96.453 1.238.906A2 2 0 0 1 45.578 5l-2.137 10A2.004 2.004 0 0 1 41 16.441z" fill="#faefde"/><path d="M20.29 31.898c-.278 0-1.188-.75-1.661-2.507-.469-1.762 0-3 .172-3 0 0 1.719-.301 1.738-.641.023-.496.074-.992.16-1.48a5.41 5.41 0 0 0-.078-1.57c-.14-1.071.277-1.34.5-3.571.309-3.059 13.578-3.617 18.11-2.719.5.102 2.91 4.262 3.347 5.442.512 1.238.805 2.558.863 3.898 0 .148.329.121.7 0 .37-.121 1.437.738 1.43 1.922a7.005 7.005 0 0 1-.22 1.707A10.786 10.786 0 0 1 43.149 33c-2.43 6.512-2 3.52-2.468 4.309C38.57 40.82 35.469 43.5 32 43.5c-5 0-9.18-5.488-10.79-10.91a1.007 1.007 0 0 0-.92-.692z" fill="#faefde"/><path d="M43 26s.879-3 0-3.16a7.363 7.363 0 0 1-5.262-4.73c-2.879 1-2 3.171-13.777 2.59-.5 0-2.45 2.34-3 2.3.504.57.504 1.43 0 2-1.371 1.672-3.742 4.79-1 8 1.07 1.25 3.16 2.64 3 4-.3 2.559-11.27 6-11.383 6-.348 0-.719-2.75-.617-3 3.398-7.07 6-18 6-18l1.598-3.46A5.255 5.255 0 0 1 23 16l10-1c5.828 0 7 2 10 1 2.398-.8 6.148 15.79 6 17l4 9s-10.52-2.73-12.871-4.66c-.488-.399 3.121-5.828 4.531-7A3.167 3.167 0 0 0 45 27c-1.14-1.309-2-1-2-1z" fill="#ed7899"/><path d="M61 59.379a1 1 0 0 1-1 1H4a1 1 0 0 1-1-1v-7A9.37 9.37 0 0 1 8.3 44l14.071-6.73c2.55 3.21 5.91 5.5 9.629 5.5 3.719 0 7.078-2.29 9.629-5.5L55.699 44A9.373 9.373 0 0 1 61 52.41z" fill="#c5e4fa"/><path d="M57 56H7c-2.21 0-4 1.79-4 4 0 .55.45 1 1 1h56c.55 0 1-.45 1-1 0-2.21-1.79-4-4-4z" fill="#afd7ef"/><path d="M40 38c.27-.27 4 .762 4 1.129C43.422 45.78 38.27 51 32 51s-11.32-5.121-11.941-11.672c0-.437 2.601-1.617 2.941-1.328 8 7 11 6 17 0z" fill="#faefde"/><path d="M47 54c-.55 0-1 .45-1 1v2c0 .55.45 1 1 1s1-.45 1-1v-2c0-.55-.45-1-1-1zm5 0c-.55 0-1 .45-1 1v2c0 .55.45 1 1 1s1-.45 1-1v-2c0-.55-.45-1-1-1zm4 1v2c0 .55.45 1 1 1s1-.45 1-1v-2c0-.55-.45-1-1-1s-1 .45-1 1zm-39-1c-.55 0-1 .45-1 1v2c0 .55.45 1 1 1s1-.45 1-1v-2c0-.55-.45-1-1-1zm-5 0c-.55 0-1 .45-1 1v2c0 .55.45 1 1 1s1-.45 1-1v-2c0-.55-.45-1-1-1zm-5 0c-.55 0-1 .45-1 1v2c0 .55.45 1 1 1s1-.45 1-1v-2c0-.55-.45-1-1-1zm25 0c-.55 0-1 .45-1 1v2c0 .55.45 1 1 1s1-.45 1-1v-2c0-.55-.45-1-1-1zm-5 0c-.55 0-1 .45-1 1v2c0 .55.45 1 1 1s1-.45 1-1v-2c0-.55-.45-1-1-1zm-5 0c-.55 0-1 .45-1 1v2c0 .55.45 1 1 1s1-.45 1-1v-2c0-.55-.45-1-1-1zm20 0c-.55 0-1 .45-1 1v2c0 .55.45 1 1 1s1-.45 1-1v-2c0-.55-.45-1-1-1zm-5 0c-.55 0-1 .45-1 1v2c0 .55.45 1 1 1s1-.45 1-1v-2c0-.55-.45-1-1-1z" fill="#8d6c9f"/><path d="M55.75 43.379l-1.629-.777a2.765 2.765 0 0 0-.062-3l-1.668-2.5a16.774 16.774 0 0 1-2.332-5.473l-2-8.86a15.24 15.24 0 0 0-3.797-7.078c.078-.183.136-.37.18-.562l2.136-10a2.995 2.995 0 0 0-2.297-3.559l-2-.43a48.692 48.692 0 0 0-20.543 0l-2 .43a2.995 2.995 0 0 0-2.297 3.559l2.13 9.91A15.303 15.303 0 0 0 16 22l-2.191 9.809c-.442 2-1.25 3.902-2.38 5.613L10 39.648a2.758 2.758 0 0 0-.07 3l-1.63.782A11.047 11.047 0 0 0 2 53.3V59a3 3 0 0 0 3 3h54a3 3 0 0 0 3-3v-5.7a11.057 11.057 0 0 0-6.25-9.921zM19.54 4a1 1 0 0 1 .632-.441l2-.43a46.646 46.646 0 0 1 19.7 0l2 .43a1.002 1.002 0 0 1 .77 1.191l-2.142 10a1.003 1.003 0 0 1-1.238.75l-.543-.148a32.997 32.997 0 0 0-17.367 0l-.543.148a.998.998 0 0 1-1.239-.762l-2.14-10c-.059-.25-.02-.515.11-.738zm-8 37.422a.785.785 0 0 1 .1-.672l1.481-2.25a18.81 18.81 0 0 0 2.66-6.281L18 22.41a13.324 13.324 0 0 1 2.71-5.55c.09.078.188.152.29.218.703.43 1.555.55 2.352.332l.539-.148a30.97 30.97 0 0 1 16.308 0l.54.148c.257.067.523.102.792.102a3 3 0 0 0 1.38-.364 13.262 13.262 0 0 1 3.23 6.07l2 8.86a18.779 18.779 0 0 0 2.597 6.113l1.66 2.547a.783.783 0 0 1-.098.98L42 36.79a19.61 19.61 0 0 0 1.281-3 4.997 4.997 0 0 0 2.489-3.46c.66-2.47 0-4.567-1.47-5h-.21a19.087 19.087 0 0 0-.121-2.06 1.011 1.011 0 0 0-1.172-.824 1.018 1.018 0 0 0-.828 1.176c0 .27.09 1.707.11 2.32v.66a1.005 1.005 0 0 0 1.543.79l.108-.07c.344.796.364 1.695.06 2.507-.392 1.453-1.118 2.113-1.34 2.14a1 1 0 0 0-1 .712c-1.43 4.8-5.15 9.66-9.509 9.66-4.363 0-8.082-4.86-9.511-9.66a1.053 1.053 0 0 0-1-.711c-.23 0-1-.688-1.34-2.14a3.817 3.817 0 0 1 0-2.52.498.498 0 0 1 .172.082c.297.191.68.21.996.047a.999.999 0 0 0 .543-.836v-.59c0-.582.07-2.14.12-2.434a1.014 1.014 0 0 0-.827-1.172 1.008 1.008 0 0 0-1.172.824 19.759 19.759 0 0 0-.133 2.09h-.21c-1.52.41-2.138 2.5-1.47 5a5.018 5.018 0 0 0 2.493 3.461 20.06 20.06 0 0 0 1.277 3l-10.168 4.95a.822.822 0 0 1-.18-.31zM32 44.32c3.57 0 6.75-2.5 8.95-5.8l2.062 1C40 46.078 35.89 50 32 50c-3.89 0-8-3.922-11-10.5l2.05-1c2.2 3.32 5.38 5.82 8.95 5.82zM60 59c0 .55-.45 1-1 1H5c-.55 0-1-.45-1-1v-5.7a9 9 0 0 1 5.121-8.12L19.2 40.36C22.59 47.761 27.25 52 32 52s9.41-4.238 12.8-11.64l10.079 4.82A9 9 0 0 1 60 53.3z" fill="#8d6c9f"/><path d="M23.91 22h2.55a21.086 21.086 0 0 0 9.2-2.121l1.559-.758 1.601 2.43c.192.304.535.48.899.46a.99.99 0 0 0 .84-.554.994.994 0 0 0-.07-1.008L38.898 18a1.998 1.998 0 0 0-2.54-.7l-1.558.759A19.066 19.066 0 0 1 26.469 20H23.91c-.55 0-1 .45-1 1s.45 1 1 1z" fill="#8d6c9f"/><path d="M28 9h3v3c0 .55.45 1 1 1s1-.45 1-1V9h3c.55 0 1-.45 1-1s-.45-1-1-1h-3V4c0-.55-.45-1-1-1s-1 .45-1 1v3h-3c-.55 0-1 .45-1 1s.45 1 1 1z" fill="#eb9697"/></svg>