<svg xmlns="http://www.w3.org/2000/svg" viewBox="0 0 24 24"><path d="M12 0C7.578 0 4.562 1.5 4.562 1.5l-.5.25L4 2.281l-.594 5.125C-.394 13.367 0 23.094 0 23.094l11.75.875c.043.008.082.027.125.031h.25c.082-.012.168-.016.25-.031-.02.011-.043.02-.063.031L24 23.094s.395-9.504-3.375-15.438L20 2.281l-.063-.531-.5-.25S16.422 0 12 0zm0 2c3.414 0 5.457.824 6.063 1.094l.78 6.687C17.376 9.496 14.649 9 12 9c-2.648 0-5.375.496-6.844.781l.782-6.687C6.543 2.824 8.585 2 12 2zm-1 1v2H9v2h2v1.594h2V7h2V5h-2V3zm2.906 8.094c1.496.129 2.953.367 4.094.562V14h1.188c.027.004.195.035.406.156.222.13.406.211.406.844s-.184.715-.406.844c-.223.129-.438.156-.438.156l-.625.031-.25.563c-1.148 2.652-3.793 4.98-6.281 5.375-2.488-.395-5.133-2.723-6.281-5.375l-.25-.563L4.844 16s-.215-.027-.438-.156C4.184 15.714 4 15.633 4 15s.184-.715.406-.844A1.3 1.3 0 0 1 4.813 14H6c5.227 0 7.668-2.637 7.906-2.906z"/></svg>