<svg xmlns="http://www.w3.org/2000/svg" viewBox="0 0 40 40"><path d="M30.5 26.5c-1.652 0-3-1.348-3-3s1.348-3 3-3c2.488 0 3 .734 3 1.832 0 1.82-1.453 4.168-3 4.168z" fill="#dff0fe"/><path d="M30.5 21c2.5 0 2.5.738 2.5 1.332C33 23.848 31.707 26 30.5 26a2.502 2.502 0 0 1-2.5-2.5c0-1.379 1.121-2.5 2.5-2.5m0-1a3.5 3.5 0 1 0 0 7c1.934 0 3.5-2.734 3.5-4.668C34 20.398 32.434 20 30.5 20z" fill="#4788c7"/><path d="M9.5 26.5c-1.547 0-3-2.348-3-4.168 0-1.102.512-1.832 3-1.832 1.652 0 3 1.348 3 3s-1.348 3-3 3z" fill="#dff0fe"/><path d="M9.5 21c1.379 0 2.5 1.121 2.5 2.5S10.879 26 9.5 26C8.293 26 7 23.848 7 22.332 7 21.738 7 21 9.5 21m0-1c-1.934 0-3.5.398-3.5 2.332C6 24.266 7.566 27 9.5 27a3.5 3.5 0 1 0 0-7z" fill="#4788c7"/><path d="M20 38.5c-1.27 0-2.445-.527-3.316-1.484l-.082-.09-.118-.043A10.514 10.514 0 0 1 9.5 27V12.383a4.747 4.747 0 0 1 4.742-4.742h11.516a4.747 4.747 0 0 1 4.742 4.742V27c0 4.426-2.805 8.395-6.98 9.883l-.122.043-.082.09c-.87.957-2.046 1.484-3.316 1.484z" fill="#fff"/><path d="M25.758 8.14A4.246 4.246 0 0 1 30 12.384V27a10.01 10.01 0 0 1-6.648 9.41l-.239.086-.168.184a3.944 3.944 0 0 1-5.89 0l-.168-.184-.239-.086A10.01 10.01 0 0 1 10 27V12.383a4.246 4.246 0 0 1 4.242-4.242h11.516m0-1H14.242A5.24 5.24 0 0 0 9 12.383V27c0 4.781 3.055 8.836 7.313 10.355A4.974 4.974 0 0 0 20 39a4.97 4.97 0 0 0 3.688-1.648C27.944 35.836 31 31.782 31 27V12.383a5.24 5.24 0 0 0-5.242-5.242z" fill="#4788c7"/><path d="M30.5 24.5v-4.691c0-5.664-4.29-7.262-4.332-7.278l-.32-.117-.227.262c-.031.039-3.375 3.824-9.691 3.824-4.149 0-6.43 2.102-6.43 5.918V24.5h-.184C8.742 23.262 6.5 18.14 6.5 13.875 6.5 6.754 12.855 2.5 19 2.5c4.07 0 6.223 2.04 7.14 3.258l.15.195h.25c1.804 0 6.96 1.524 6.96 8.274 0 3.351-2.262 8.93-2.828 10.273z" fill="#b6dcfe"/><path d="M19 3c3.855 0 5.879 1.914 6.742 3.059l.297.394h.5c1.676 0 6.461 1.43 6.461 7.774 0 2.335-1.145 5.816-2 8.09V18c-1.277-2.953-4.523-5.89-4.664-5.941l-.645-.227-.449.516C25.113 12.496 21.996 16 15.93 16 11.46 16 9 18.277 9 22.418v.07c-.852-2.148-2-5.605-2-8.617C7 8.601 11.207 3 19 3m0-1C10.672 2 6 8.129 6 13.871 6 18.918 9 25 9 25h1v-2.582C10 18.152 12.89 17 15.93 17 22.574 17 26 13 26 13s4 1.43 4 6.809V25h1s3-6.809 3-10.773c0-6.985-5.355-8.774-7.46-8.774C26.007 4.753 23.792 2 19 2z" fill="#4788c7"/><path d="M27 24.5a1.5 1.5 0 1 1-3 0 1.5 1.5 0 0 1 3 0zm-11 0a1.5 1.5 0 1 1-3 0 1.5 1.5 0 0 1 3 0z" fill="#4788c7"/><path d="M30.45 17.242C28.901 16.672 25.104 15.5 20 15.5c-5.172 0-8.988.605-10.453.879l.851-12.121C11.133 3.707 14.426 1.5 20 1.5c5.57 0 8.863 2.203 9.598 2.754z" fill="#fff"/><path d="M20 2c5.05 0 8.16 1.855 9.113 2.523l.79 12C28.02 15.903 24.507 15 20 15c-4.582 0-8.113.473-9.91.777l.793-11.254C11.836 3.855 14.949 2 20 2m0-1C13.379 1 9.918 4 9.918 4L9 17s4.426-1 11-1 11 2 11 2l-.918-14S26.622 1 20 1z" fill="#4788c7"/><path d="M20 12V6m-3 3h6" fill="none" stroke-width="2" stroke-linecap="round" stroke="#4788c7" stroke-miterlimit="10"/></svg>