<svg xmlns="http://www.w3.org/2000/svg" viewBox="0 0 50 50"><path d="M25-.035c-5.043 0-8.488 1.219-10.672 2.473-2.187 1.253-3.176 2.64-3.176 2.64a1.05 1.05 0 0 0-.18.715l.333 2.633c-.012.015-.024.035-.035.05C9.746 10.98 9 14.075 9 17.595c0 1.933.867 5.656 1.566 7.863-.296.25-.578.41-.867.852-.48.73-.84 1.773-.691 3.011.422 3.578 2.672 4.832 3.414 5.2.281 1.671 1.144 3.742 2.562 5.855 1.516 2.262 3.602 4.45 6.153 5.672C22.05 47.203 23.418 48 25 48c1.582 0 2.945-.797 3.86-1.953 2.546-1.223 4.617-3.414 6.124-5.676 1.403-2.113 2.254-4.18 2.536-5.848.757-.363 3.015-1.597 3.437-5.168a4.516 4.516 0 0 0-.703-3.027c-.293-.445-.578-.613-.879-.867C40.078 23.23 41 19.785 41 16c0-2.07-.508-5.063-2.32-7.316l.347-2.895a1.04 1.04 0 0 0-.18-.71s-.988-1.388-3.175-2.641C33.488 1.183 30.043-.035 25-.035zm0 2.066c4.715 0 7.77 1.121 9.645 2.196 1.48.851 2.042 1.484 2.277 1.773l-1.39 11.629c-.813.238-4.673 1.34-10.532 1.34-3.938 0-6.715-.387-8.488-.766-1.414-.297-1.73-.465-1.969-.562L13.082 5.992c.234-.285.797-.914 2.273-1.765C17.23 3.152 20.285 2.03 25 2.03zM24 6v4h-4v2h4v4h2v-4h4v-2h-4V6zm14.277 6.043C38.785 13.414 39 14.898 39 16c0 3.707-1.004 7.348-1.684 9.426-.14.441.036.918.426 1.164a3 3 0 0 1 .84.832c.277.426.48.953.39 1.703-.382 3.219-2.628 3.86-2.628 3.86a.991.991 0 0 0-.672.84c-.117 1.105-.965 3.347-2.356 5.437-1.39 2.09-3.308 4.074-5.414 5.05a.994.994 0 0 0-.406.356A2.994 2.994 0 0 1 25 46a2.982 2.982 0 0 1-2.492-1.332.996.996 0 0 0-.41-.352c-2.114-.98-4.051-2.964-5.453-5.054-1.399-2.09-2.258-4.336-2.375-5.438a.991.991 0 0 0-.657-.836s-2.242-.672-2.62-3.902h.003c-.09-.754.102-1.266.375-1.68.274-.414.649-.707.832-.816.395-.25.567-.738.414-1.18C12.012 23.668 11 18.875 11 17.594c0-2.012.266-3.82.777-5.41l.797 6.379c.043.351.27.656.594.808 0 0 .45.188 1.254.43A5.82 5.82 0 0 0 14 22c-.004.36.184.695.496.879.313.18.695.18 1.008 0 .312-.184.5-.52.496-.879 0-.738.14-1.281.375-1.719 1.922.387 4.734.75 8.625.75 4.219 0 7.715-.605 9.777-1.066.13.668.223 1.348.223 2.035-.004.36.184.695.496.879.313.18.695.18 1.008 0 .312-.184.5-.52.496-.879 0-.879-.121-1.719-.285-2.531a1.043 1.043 0 0 0 .781-.883zM19.5 27a1.5 1.5 0 1 0 0 3 1.5 1.5 0 0 0 0-3zm11 0a1.5 1.5 0 1 0 0 3 1.5 1.5 0 0 0 0-3z"/></svg>