<svg xmlns="http://www.w3.org/2000/svg" viewBox="0 0 24 24"><path d="M6.469 2.156S5.367 2.871 4.28 4 2 6.707 2 8.688c0 1.746.969 3.152 2.25 4 1.098.726 2.418 1.113 3.75 1.25V18c0 2.113 1.648 3.742 3.625 3.938a.879.879 0 0 0 .281.062h.219a.933.933 0 0 0 .281-.063C14.367 21.73 16 20.102 16 18v-.844c.004-.05.004-.105 0-.156v-3.031c1.383-.102 2.719-.504 3.813-1.25C21.085 11.848 22 10.422 22 8.688c0-1.946-1.2-3.52-2.281-4.657a15.396 15.396 0 0 0-2.157-1.875l-1.125 1.688s.926.597 1.844 1.562C19.2 6.371 20 7.633 20 8.688c0 1.066-.46 1.792-1.313 2.374-.695.473-1.664.805-2.687.907V7h-2v6.563A4.013 4.013 0 0 0 12 13c-.719 0-1.406.219-2 .563V7H8v4.938c-.996-.13-1.96-.446-2.656-.907C4.473 10.453 4 9.742 4 8.687c0-1.12.805-2.363 1.719-3.312.914-.95 1.812-1.531 1.812-1.531zM12 15c1.059 0 2 .848 2 2v1c0 .762-.414 1.379-1 1.719V19a.998.998 0 0 0-.367-.797.997.997 0 0 0-.852-.203A1.002 1.002 0 0 0 11 19v.719c-.586-.34-1-.957-1-1.719v-.844c.004-.05.004-.105 0-.156 0-1.152.941-2 2-2z"/></svg>