<svg xmlns="http://www.w3.org/2000/svg" viewBox="0 0 64 64"><linearGradient id="a" gradientUnits="userSpaceOnUse" x1="32" y1="59.679" x2="32" y2="5.651" gradientTransform="matrix(1 0 0 -1 0 64)" spreadMethod="reflect"><stop offset="0" stop-color="#1a6dff"/><stop offset="1" stop-color="#c822ff"/></linearGradient><path d="M32 58c-6.617 0-12-5.383-12-12V32.989a12.22 12.22 0 0 1-.5.011C12.056 33 6 26.944 6 19.5S12.056 6 19.5 6c5.658 0 10.498 3.45 12.5 8.407A13.444 13.444 0 0 1 44.5 6C51.944 6 58 12.056 58 19.5S51.944 33 44.5 33c-.163 0-.329-.004-.5-.011V46c0 6.617-5.383 12-12 12zM21 30.901a1.003 1.003 0 0 1 1 1V46c0 5.514 4.486 10 10 10s10-4.486 10-10V31.901a1.003 1.003 0 0 1 1.119-.993c.514.062.965.092 1.381.092C50.841 31 56 25.841 56 19.5S50.841 8 44.5 8c-6.19 0-11.23 4.85-11.476 11.041a.999.999 0 0 1-.999.96h-.051a1 1 0 0 1-.999-.96A11.457 11.457 0 0 0 19.5 8C13.159 8 8 13.159 8 19.5S13.159 31 19.5 31c.416 0 .867-.03 1.381-.091a.951.951 0 0 1 .119-.008zM33.083 49h-2.167v8h2.167v-8zM32 58c-6.617 0-12-5.383-12-12s5.383-12 12-12 12 5.383 12 12-5.383 12-12 12zm0-22c-5.514 0-10 4.486-10 10s4.486 10 10 10 10-4.486 10-10-4.486-10-10-10zm0 4v-2c-4.411 0-8 3.589-8 8h2c0-3.309 2.691-6 6-6zm12.5-26v2c1.93 0 3.5 1.57 3.5 3.5h2c0-3.033-2.467-5.5-5.5-5.5zm0-4v2c4.136 0 7.5 3.364 7.5 7.5h2c0-5.239-4.262-9.5-9.5-9.5z" fill="url(#a)"/><linearGradient id="b" gradientUnits="userSpaceOnUse" x1="14.25" y1="54.445" x2="14.25" y2="43.436" gradientTransform="matrix(1 0 0 -1 0 64)" spreadMethod="reflect"><stop offset="0" stop-color="#6dc7ff"/><stop offset="1" stop-color="#e6abff"/></linearGradient><path d="M19 10a9.5 9.5 0 0 0-9.5 9.5H19V10z" fill="url(#b)"/></svg>