<svg xmlns="http://www.w3.org/2000/svg" viewBox="0 0 64 64"><path d="M32.133 2a28.641 28.641 0 0 0-2.942.129C17.22 3.246 7.54 11.945 6.171 22.809c-.757 6.054 1.056 13.992 4.317 18.875.742 1.105 1 2.441.73 3.754l-.113.562a4.959 4.959 0 0 0 .727 3.762 4.977 4.977 0 0 0 3.176 2.14l4.996 1.016-.586 4.164a2.997 2.997 0 0 0 2.234 3.328l2.203.559a32.993 32.993 0 0 0 8.102 1.004c2.754 0 5.508-.34 8.184-1.024l2.093-.539a2.99 2.99 0 0 0 2.223-3.32l-.586-4.172 4.996-1.016A4.993 4.993 0 0 0 52.77 46l-.12-.594c-.262-1.281.003-2.625.753-3.789 3.075-4.773 4.473-11.668 4.473-16.054 0-6.282-2.688-12.192-7.574-16.641C45.449 4.5 38.953 2.05 32.133 2zm-.215 2c6.398 0 12.5 2.27 17.035 6.402 4.465 4.063 6.922 9.45 6.922 15.16 0 4.235-1.426 10.739-4.156 14.973-1.032 1.606-1.399 3.477-1.032 5.278l.126.59a2.998 2.998 0 0 1-2.344 3.54l-4.996 1.014a2 2 0 0 0-1.582 2.238l.59 4.168a1 1 0 0 1-.747 1.11l-2.09.539a31.149 31.149 0 0 1-15.296.02l-2.207-.563a1.003 1.003 0 0 1-.746-1.11l.59-4.164a2 2 0 0 0-1.583-2.238l-4.996-1.016a2.988 2.988 0 0 1-1.906-1.285 2.985 2.985 0 0 1-.438-2.254l.118-.566a6.905 6.905 0 0 0-1.028-5.266C9.13 36.05 7.453 28.684 8.156 23.06 9.406 13.117 18.332 5.152 29.38 4.117A27.737 27.737 0 0 1 31.918 4zm-.277 3c-.637.012-1.282.043-1.922.098-3.594.312-7.063 1.437-10.032 3.254a.998.998 0 0 0 .52 1.851c.18 0 .36-.047.523-.144 2.707-1.657 5.875-2.684 9.16-2.97.594-.05 1.188-.081 1.778-.089a.999.999 0 0 0 .988-1.008A.984.984 0 0 0 31.641 7zm5.129.55a.993.993 0 0 0-.79.77.998.998 0 0 0 .766 1.192c1.086.234 2.156.554 3.18.953a1.003 1.003 0 0 0 1.293-.574 1 1 0 0 0-.574-1.293 23.744 23.744 0 0 0-3.473-1.043 1.074 1.074 0 0 0-.402-.004zM20.422 29.626a4.972 4.972 0 0 0-2.809 1.016 4.952 4.952 0 0 0-1.945 3.425l-.242 2.172a4.99 4.99 0 0 0 2.48 4.89l2.282 1.313a4.987 4.987 0 0 0 2.488.668c.582 0 1.168-.105 1.73-.312a4.985 4.985 0 0 0 2.98-3.004l1.063-2.977a4.969 4.969 0 0 0-.398-4.222 4.985 4.985 0 0 0-3.504-2.395l-3.106-.512a5.26 5.26 0 0 0-1.02-.062zm23.066 0a5.238 5.238 0 0 0-1.015.063l-3.11.507a4.98 4.98 0 0 0-3.5 2.399 4.969 4.969 0 0 0-.398 4.222l1.066 2.977a4.975 4.975 0 0 0 2.98 3.004 4.975 4.975 0 0 0 1.727.312 4.99 4.99 0 0 0 2.489-.668l2.285-1.312a5 5 0 0 0 2.476-4.89l-.242-2.169a4.943 4.943 0 0 0-1.95-3.43 4.951 4.951 0 0 0-2.808-1.015zm-22.86 2c.165 0 .325.012.493.04l3.106.507a2.991 2.991 0 0 1 2.101 1.437c.453.77.543 1.692.238 2.532l-1.062 2.976c-.3.84-.953 1.496-1.79 1.805a2.985 2.985 0 0 1-2.53-.215l-2.282-1.312a3 3 0 0 1-1.492-2.93l.246-2.172a2.992 2.992 0 0 1 1.168-2.059 2.959 2.959 0 0 1 1.805-.609zm22.778 0a2.986 2.986 0 0 1 1.688.61c.66.5 1.074 1.23 1.168 2.058l.238 2.168a3.002 3.002 0 0 1-1.484 2.934l-2.282 1.312a3 3 0 0 1-2.53.215 2.992 2.992 0 0 1-1.794-1.805l-1.062-2.976a2.976 2.976 0 0 1 .242-2.532 2.98 2.98 0 0 1 2.097-1.437l3.11-.512c.203-.031.406-.043.61-.035zM32 40a2.45 2.45 0 0 0-2.285 1.582l-1.637 4.363a2.987 2.987 0 0 0 .344 2.762A2.997 2.997 0 0 0 30.887 50h2.226c.985 0 1.907-.484 2.465-1.293a2.98 2.98 0 0 0 .344-2.758l-1.637-4.367A2.45 2.45 0 0 0 32 40zm0 2a.44.44 0 0 1 .414.285l1.637 4.363a.985.985 0 0 1-.114.918.988.988 0 0 1-.824.434h-2.226a.988.988 0 0 1-.825-.434.985.985 0 0 1-.113-.918l1.637-4.363A.44.44 0 0 1 32 42zm-8 12.012a1 1 0 0 0-1 1v2c0 .55.45 1 1 1s1-.45 1-1v-2a1 1 0 0 0-1-1zm5 0a1 1 0 0 0-1 1v2c0 .55.45 1 1 1s1-.45 1-1v-2a1 1 0 0 0-1-1zm6 0a1 1 0 0 0-1 1v2c0 .55.45 1 1 1s1-.45 1-1v-2a1 1 0 0 0-1-1zm5 0a1 1 0 0 0-1 1v2c0 .55.45 1 1 1s1-.45 1-1v-2a1 1 0 0 0-1-1z"/></svg>