<svg xmlns="http://www.w3.org/2000/svg" viewBox="0 0 48 48"><path d="M25 5h-2C13.602 5 5 11 5 21c0 7 3 9 3 9 .3.3.602.602 1 .898V33c0 4 6 5 6 5v5c0 .602.398 1 1 1h16c.602 0 1-.398 1-1v-5s6-1 6-5v-2.102c.398-.296.7-.597 1-.898 0 0 3-3 3-9 0-10-8.602-16-18-16z" fill="#d7ccc8"/><path d="M27.5 37.898c0 .903-.602 1.403-1.398 1.403-1.102 0-1.903-1.903-2.102-2.7 0 1-.8 2.7-2.102 2.7-.796 0-1.398-.5-1.398-1.403C20.5 36 22.7 32.301 24 32c1.3.5 3.5 4 3.5 5.898zm.8-14.199c-2.198.602-3 3.5-2.402 5.602 1 3 3.704 4.3 6.801 3.3 1.403-.5 2.7-2.203 1.403-6C33.398 24 30.8 22.899 28.3 23.7zm-8.6 0c-2.7-1-5.098.301-5.9 2.903-1.3 3.796.2 5.597 1.4 6 3.198.898 5.902-.301 6.8-3.301.7-1.903-.102-4.801-2.3-5.602z" fill="#795548"/></svg>