<svg xmlns="http://www.w3.org/2000/svg" viewBox="0 0 26 26"><path d="M9.969-.031A1.006 1.006 0 0 0 9.813 0a1.016 1.016 0 0 0-.344.156S3 4.22 3 13c0 8.781 6.469 12.844 6.469 12.844a1 1 0 0 0 1.039.093.996.996 0 0 0 .558-.882 1.007 1.007 0 0 0-.535-.899S5 20.816 5 13c0-7.816 5.531-11.156 5.531-11.156A1 1 0 0 0 9.97-.031zM15.844 0c-.418.063-.75.379-.836.79-.082.413.101.835.46 1.054 0 0 5.532 3.34 5.532 11.156 0 7.816-5.531 11.156-5.531 11.156-.332.176-.54.524-.535.899a.996.996 0 0 0 .558.883.999.999 0 0 0 1.04-.094S23 21.78 23 13C23 4.219 16.531.156 16.531.156A1.014 1.014 0 0 0 15.844 0zm-3.031 3a1.022 1.022 0 0 0-.376.156v.031a1.015 1.015 0 0 0-.28.25C11.417 4.032 8 7.056 8 13c0 5.375 2.8 8.39 3.906 9.375a1 1 0 0 0 1.125.719 1 1 0 0 0 1.031-.719C15.146 21.418 18 18.418 18 13c0-6.023-3.52-9.063-4.188-9.594a1.028 1.028 0 0 0-.25-.219.472.472 0 0 0-.062-.062h-.031a.949.949 0 0 0-.125-.094.668.668 0 0 0-.125 0A.88.88 0 0 0 13.125 3h-.313zM13 5.281c1 .95 3 3.39 3 7.719 0 2.164-.5 3.855-1.125 5.125.363-.957.625-2.14.625-3.625C15.5 10 13 8 13 8s-2.5 2-2.5 6.5c0 1.484.262 2.668.625 3.625C10.5 16.855 10 15.165 10 13c0-4.328 2-6.77 3-7.719z"/></svg>