<svg xmlns="http://www.w3.org/2000/svg" viewBox="0 0 64 64"><path d="M33.086 2c-3.508 0-6.688 3.332-6.793 3.441C19.012 12.52 15 21.945 15 31.984c0 10.043 4.012 19.473 11.254 26.512.133.14 3.27 3.504 6.832 3.504 3.566 0 6.676-3.367 6.766-3.469 7.28-7.074 11.293-16.504 11.293-26.547 0-10.039-4.012-19.464-11.247-26.492C39.77 5.348 36.73 2 33.086 2zm0 2c2.742 0 5.297 2.8 5.367 2.875 6.895 6.7 10.692 15.617 10.692 25.11 0 9.495-3.797 18.417-10.73 25.156-.727.797-3.095 2.859-5.33 2.859-2.679 0-5.331-2.832-5.398-2.898C20.797 50.402 17 41.48 17 31.984c0-9.492 3.797-18.41 10.719-25.14C27.742 6.816 30.445 4 33.086 4zm-.012 2.14a4.208 4.208 0 0 0-3.84 2.462l-6.464 9.054a6.892 6.892 0 0 0 .015 7.844 4.916 4.916 0 0 1 .328 5.05l-2.16 4.2a8.048 8.048 0 0 0-.207 6.957l2.953 6.7c1.442 3.273 4.086 5.855 7.446 7.269l.554.23c.086.035.172.051.258.078a2.09 2.09 0 0 0 1.113.317h.004c.403 0 .778-.11 1.098-.309.105-.035.215-.054.32-.101 3.555-1.547 6.34-4.48 7.637-8.055l3.383-9.309a8.069 8.069 0 0 0-.586-6.773L43.44 29.16a6.056 6.056 0 0 1 .278-6.488 5.066 5.066 0 0 0-.344-6.192l-6.386-7.67a4.057 4.057 0 0 0-.96-1.473 4.215 4.215 0 0 0-2.954-1.195zm0 2c.59 0 1.145.227 1.563.633.406.395.629.922.629 1.477v8.184c0 2.367.277 4.746.816 7.07l2.398 10.328c.356 1.531.438 3.098.239 4.648a13.231 13.231 0 0 1-1.063 3.708l-.386.859c-.102-3.262-1.325-6.106-2.375-7.942a2.046 2.046 0 0 0-1.801-1.042c-.758 0-1.438.39-1.809 1.042-1.055 1.852-2.297 4.73-2.379 8.032l-.422-.953a13.333 13.333 0 0 1-1.093-3.899c-.16-1.52-.07-3.02.27-4.453l2.401-10.328a31.31 31.31 0 0 0 .813-7.07V10.25c0-1.16.984-2.11 2.2-2.11zm.012 3.18c-.555 0-1 .446-1 1v4.145c0 .555.445 1 1 1 .555 0 1-.445 1-1V12.32c0-.554-.445-1-1-1zm4.184.95l4.585 5.507a3.072 3.072 0 0 1 .22 3.758c-1.786 2.594-1.927 5.895-.372 8.621l1.484 2.594a6.044 6.044 0 0 1 .442 5.094l-3.379 9.312c-.805 2.215-2.293 4.13-4.203 5.528l3.433-7.676a15.172 15.172 0 0 0 1.223-4.27v-.004c.23-1.789.137-3.59-.273-5.355l-2.4-10.329a29.154 29.154 0 0 1-.761-6.617zm-8.395.277v5.887c0 2.214-.258 4.441-.766 6.617l-2.39 10.324a15.132 15.132 0 0 0-.313 5.137 15.252 15.252 0 0 0 1.254 4.492l3.547 7.922c-2.066-1.278-3.7-3.11-4.68-5.328l-2.953-6.696a6.054 6.054 0 0 1 .16-5.238l2.157-4.2a6.912 6.912 0 0 0-.457-7.1 4.9 4.9 0 0 1-.024-5.567zm26.23 6.723a.999.999 0 0 0-.386.101l-1.817.89a1 1 0 1 0 .88 1.798l1.816-.891c.496-.242.703-.844.46-1.34a1.004 1.004 0 0 0-.953-.558zm-44.21 0c-.387-.02-.77.187-.954.558a1.004 1.004 0 0 0 .461 1.34l1.817.89a1.002 1.002 0 0 0 1.34-.46 1 1 0 0 0-.461-1.336l-1.817-.89a1.052 1.052 0 0 0-.386-.102zm-1.497 5.375a1.001 1.001 0 0 0-.055 1.96l1.954.45c.074.02.148.023.223.023a1 1 0 0 0 .976-.773 1.005 1.005 0 0 0-.75-1.2l-1.95-.449a.981.981 0 0 0-.398-.011zm47.207 0a1.078 1.078 0 0 0-.402.011l-1.945.45c-.54.124-.875.66-.754 1.199a1.003 1.003 0 0 0 1.2.75l1.952-.45c.535-.125.871-.66.75-1.199a1.008 1.008 0 0 0-.8-.761zM9 30c-.555 0-1 .445-1 1 0 .555.445 1 1 1h2c.555 0 1-.445 1-1 0-.555-.445-1-1-1zm46 0c-.555 0-1 .445-1 1 0 .555.445 1 1 1h2c.555 0 1-.445 1-1 0-.555-.445-1-1-1zm-43.309 4.934a.962.962 0 0 0-.394.011l-1.953.45c-.535.125-.871.66-.75 1.199.11.465.523.777.976.777.075 0 .153-.012.227-.027l1.95-.45c.534-.124.87-.66.75-1.199a1.007 1.007 0 0 0-.806-.761zm42.618.004a1.002 1.002 0 0 0-.805.757c-.121.54.215 1.075.75 1.2l1.95.449a1.003 1.003 0 0 0 1.203-.75 1.007 1.007 0 0 0-.75-1.2l-1.954-.449a.96.96 0 0 0-.394-.008zm-21.282 3.156h.133c.797 1.398 2.13 4.21 2.13 7.37 0 3.161-1.333 5.974-2.13 7.368l.496.281-.011.028-.618-.309c-.797-1.395-2.132-4.207-2.132-7.367s1.335-5.973 2.132-7.371zM12.605 39.84a.999.999 0 0 0-.386.101l-1.817.891a1.004 1.004 0 0 0-.46 1.34 1.01 1.01 0 0 0 1.34.457l1.816-.89a1 1 0 0 0-.493-1.9zm40.79 0a1 1 0 0 0-.492 1.898l1.816.89a1.005 1.005 0 0 0 1.34-.457 1.004 1.004 0 0 0-.461-1.339l-1.817-.89a.981.981 0 0 0-.386-.102zM33.988 54.652l.063.032-.067-.028c.004-.004 0-.004.004-.004z"/></svg>