<svg xmlns="http://www.w3.org/2000/svg" viewBox="0 0 64 64"><linearGradient id="a" gradientUnits="userSpaceOnUse" x1="32" y1="29.163" x2="32" y2="16.837" gradientTransform="matrix(1 0 0 -1 0 64)" spreadMethod="reflect"><stop offset="0" stop-color="#6dc7ff"/><stop offset="1" stop-color="#e6abff"/></linearGradient><path d="M31 41c0 2.306.453 4.468 1 6.163.547-1.695 1-3.857 1-6.163s-.453-4.468-1-6.163c-.547 1.695-1 3.857-1 6.163z" fill="url(#a)"/><linearGradient id="b" gradientUnits="userSpaceOnUse" x1="32" y1="48" x2="32" y2="10" gradientTransform="matrix(1 0 0 -1 0 64)" spreadMethod="reflect"><stop offset="0" stop-color="#1a6dff"/><stop offset="1" stop-color="#c822ff"/></linearGradient><path d="M32 29c-1 0-4 5.538-4 12s3 12 4 12 4-5.538 4-12-3-12-4-12zm0-12c-2.25 0-8 8.308-8 18s5.75 18 8 18 8-8.308 8-18-5.75-18-8-18z" fill="none" stroke="url(#b)" stroke-width="2" stroke-miterlimit="10"/><linearGradient id="c" gradientUnits="userSpaceOnUse" x1="32" y1="58" x2="32" y2="6" gradientTransform="matrix(1 0 0 -1 0 64)" spreadMethod="reflect"><stop offset="0" stop-color="#1a6dff"/><stop offset="1" stop-color="#c822ff"/></linearGradient><path d="M32 7c-4.5 0-16 13.538-16 27s11.5 23 16 23 16-9.538 16-23S36.5 7 32 7z" fill="none" stroke="url(#c)" stroke-width="2" stroke-miterlimit="10"/><linearGradient id="d" gradientUnits="userSpaceOnUse" x1="264.959" y1="398.859" x2="260.323" y2="398.859" gradientTransform="matrix(0 -1 -1 0 430.859 285.771)" spreadMethod="reflect"><stop offset="0" stop-color="#6dc7ff"/><stop offset="1" stop-color="#e6abff"/></linearGradient><circle cx="32" cy="23" r="2" fill="url(#d)"/></svg>