<svg xmlns="http://www.w3.org/2000/svg" viewBox="0 0 64 64"><path d="M33.09 61C29.922 61 27 57.82 27 57.82a35.846 35.846 0 0 1-10.988-25.832c0-9.746 3.965-19.07 10.988-25.828C27-45.5 30 3 33.09 3s6.07 3.16 6.07 3.16a35.837 35.837 0 0 1 10.988 25.828A35.846 35.846 0 0 1 39.16 57.82c0 51.66-2.91 3.18-6.07 3.18z" fill="#faefde"/><path d="M30.328 8.781l-6.726 9.438a5.905 5.905 0 0 0 0 6.71A5.911 5.911 0 0 1 24 31l-2.16 4.2a7.066 7.066 0 0 0-.18 6.1l3 6.688a13.073 13.073 0 0 0 6.918 6.75l.55.23a2.54 2.54 0 0 0 2 0 12.995 12.995 0 0 0 7.102-7.48l3.38-9.308a7.079 7.079 0 0 0-.508-5.93l-1.48-2.59a7.075 7.075 0 0 1 .32-7.55 4.05 4.05 0 0 0-.294-5L35 7.921" fill="#efd8be"/><path d="M39.71 40.61a14.256 14.256 0 0 1-1.14 4l-4.52 10.07a1.084 1.084 0 0 1-1 .672c-.44 0-.835-.266-1-.672l-4.48-10.09a13.837 13.837 0 0 1-.879-9l2.399-10.328c.523-2.246.789-4.547.789-6.852v-8.16a3.151 3.151 0 0 1 .957-2.219 3.12 3.12 0 0 1 2.242-.89 3.234 3.234 0 0 1 2.262.91 3.07 3.07 0 0 1 .941 2.199v8.18c0 2.304.266 4.605.79 6.851l2.398 10.328a14.09 14.09 0 0 1 .242 5z" fill="#f9acc8"/><path d="M29.898 45.46a16.39 16.39 0 0 1 2.262-7.858 1.078 1.078 0 0 1 1.871 0 16.428 16.428 0 0 1 2.258 7.859A16.35 16.35 0 0 1 34 53.328a1.078 1.078 0 0 1-1.871 0 16.398 16.398 0 0 1-2.23-7.867z" fill="#f283a5"/><path d="M33.078 2c-3.508 0-6.687 3.328-6.789 3.441a36.84 36.84 0 0 0 0 53.047c.133.14 3.27 3.512 6.832 3.512 3.559 0 6.68-3.371 6.77-3.469a36.843 36.843 0 0 0 0-53C39.77 5.351 36.73 2 33.078 2zm5.332 55.14c-.719.79-3.09 2.86-5.332 2.86-2.68 0-5.328-2.828-5.398-2.898a34.858 34.858 0 0 1-10.7-25.125 34.844 34.844 0 0 1 10.7-25.125C27.61-43.468 30.45 4 33.078 4c2.633 0 5.3 2.8 5.371 2.879A34.851 34.851 0 0 1 49.16 32.016a34.842 34.842 0 0 1-10.71 25.132z" fill="#8d6c9f"/><path d="M36 7.34a4.233 4.233 0 0 0-3.703-1.098 4.237 4.237 0 0 0-3.059 2.36l-6.468 9.046a6.891 6.891 0 0 0 0 7.852 4.921 4.921 0 0 1 .332 5L21 34.75a8.062 8.062 0 0 0-.21 7l3 6.7a13.993 13.993 0 0 0 7.448 7.269l.551.23L32 56a2.106 2.106 0 0 0 2.21.012c.11 0 .22-.063.321-.102a14.105 14.105 0 0 0 7.64-8.05l3.38-9.31a8.071 8.071 0 0 0-.59-6.769l-1.48-2.59a6.062 6.062 0 0 1 .28-6.492 5.061 5.061 0 0 0-.34-6.187L37 8.809a4.113 4.113 0 0 0-1-1.47zm-3 .8a2.214 2.214 0 0 1 1.559.63c.41.382.636.921.632 1.48v8.18a31.22 31.22 0 0 0 .82 7.07l2.4 10.328c.66 2.8.37 5.738-.821 8.352l-.39.86a17.46 17.46 0 0 0-2.302-7.938 2.077 2.077 0 1 0-3.61 0 17.412 17.412 0 0 0-2.378 8l-.43-1a12.863 12.863 0 0 1-.82-8.352l2.399-10.328a31.25 31.25 0 0 0 .82-7.07V10.25a2.161 2.161 0 0 1 2.191-2.11zm1 46.54h-.07zm-.84-16.578a15.545 15.545 0 0 1 2.13 7.367 15.547 15.547 0 0 1-2.13 7.37l.5.282-.66-.293a15.545 15.545 0 0 1-2.129-7.367A15.503 15.503 0 0 1 33 38.1zm-7.629 9.5l-3-6.704a6.04 6.04 0 0 1 .16-5.238l2.16-4.2c1.169-2.269.989-5-.46-7.1a4.893 4.893 0 0 1 0-5.57l4.46-6.25v5.89a29.506 29.506 0 0 1-.761 6.62l-2.4 10.322a14.838 14.838 0 0 0 .97 9.629l3.55 7.922a11.94 11.94 0 0 1-4.68-5.32zm16.54-26.063a7.996 7.996 0 0 0-.372 8.621l1.48 2.59a6.086 6.086 0 0 1 .442 5.102l-3.383 9.308A11.94 11.94 0 0 1 36 52.68L39.48 45a14.991 14.991 0 0 0 .95-9.629L38 25.051a29.506 29.506 0 0 1-.762-6.621v-6.16l4.582 5.511a3.067 3.067 0 0 1 .25 3.758z" fill="#8d6c9f"/><path d="M33.078 17.46a1 1 0 0 0 1-1v-4.14a1 1 0 1 0-2 0v4.14c0 .552.45 1 1 1zm20.434 8.84a.996.996 0 0 0 1 .778h.226l1.953-.45c.536-.124.871-.66.75-1.198a1.003 1.003 0 0 0-1.203-.75l-1.949.449a1.001 1.001 0 0 0-.777 1.172zm-.172-4.14c.152 0 .305-.035.441-.101l1.82-.887a1.003 1.003 0 0 0-.882-1.8l-1.82.89a.998.998 0 0 0 .44 1.898zM57 30h-2c-.55 0-1 .45-1 1s.45 1 1 1h2c.55 0 1-.45 1-1s-.45-1-1-1zm-.352 5.398L54.7 34.95a.999.999 0 0 0-1.199.75.997.997 0 0 0 .75 1.2l1.95.453h.23a1.01 1.01 0 0 0 1.11-.891 1 1 0 0 0-.892-1.11zm-1.046 5.43l-1.82-.887a.998.998 0 0 0-1.34.457.998.998 0 0 0 .456 1.34l1.82.89a1.003 1.003 0 0 0 .883-1.8zM9.352 26.602l1.949.449h.23a1.01 1.01 0 0 0 1.11-.89 1.008 1.008 0 0 0-.891-1.11L9.8 24.6a1 1 0 0 0-.45 1.95zm3.75-6.34l-1.82-.89a1.003 1.003 0 0 0-.883 1.8l1.82.887a.998.998 0 0 0 1.34-.457.998.998 0 0 0-.457-1.34zM11 32c.55 0 1-.45 1-1s-.45-1-1-1H9c-.55 0-1 .45-1 1s.45 1 1 1zm1.488 3.7a.998.998 0 0 0-1.199-.75l-1.95.448a1.005 1.005 0 1 0 .22 2h.23l1.95-.449c.273-.058.503-.226.648-.46a.998.998 0 0 0 .101-.79zm-.269 4.241l-1.82.887a1.003 1.003 0 0 0 .882 1.8l1.82-.89a.998.998 0 0 0 .458-1.34.998.998 0 0 0-1.34-.457z" fill="#8d6c9f"/></svg>