<svg xmlns="http://www.w3.org/2000/svg" viewBox="0 0 26 26"><path d="M11.594-.094L11.313 3c-.7.2-1.399.414-2 .813l-2.407-1.72-1.812 1.72 1.718 2.374c-.398.7-.613 1.325-.812 2.125l-2.906.376v2.5l2.906.5c.2.699.512 1.398.813 2l-1.72 2.406 1.813 1.812 2.407-1.718c.601.398 1.3.613 2 .812l.5 2.906h2.5l.5-2.906c.699-.2 1.398-.512 2-.813l2.5 1.72 1.78-1.813-1.687-2.407c.399-.601.582-1.3.782-2l2.718-.5v-2.5l-3-.5c-.199-.699-.511-1.398-.812-2l1.718-2.5L19 1.907l-2.406 1.687c-.602-.399-1.301-.582-2-.781l-.5-2.907zM13 6.5c1.898 0 3.5 1.602 3.5 3.5s-1.602 3.5-3.5 3.5-3.5-1.602-3.5-3.5 1.602-3.5 3.5-3.5zM0 19v4c0 1.7 1.3 3 3 3h20c1.7 0 3-1.3 3-3v-4h-2v4c0 .602-.398 1-1 1H3c-.602 0-1-.398-1-1v-4z"/></svg>