<svg xmlns="http://www.w3.org/2000/svg" viewBox="0 0 16 16"><path d="M3.418 2C2.641 2 2 2.64 2 3.418v9.164C2 13.359 2.64 14 3.414 14h9.168c.777 0 1.418-.64 1.418-1.418V3.418C14 2.641 13.36 2 12.582 2zm0 1h9.164a.41.41 0 0 1 .418.418v9.164a.41.41 0 0 1-.418.418H3.418A.409.409 0 0 1 3 12.582V3.418A.41.41 0 0 1 3.418 3zM8 4c-.55 0-1 .45-1 1s.45 1 1 1 1-.45 1-1-.45-1-1-1zM5.484 6.059l-.468.882L7 8v1.527l-.953 2.008.906.43.93-1.965h.234l.93 1.965.906-.43L9 9.527V8l1.984-1.059-.468-.882L8.75 7h-1.5z"/></svg>