<svg xmlns="http://www.w3.org/2000/svg" viewBox="0 0 48 48"><path d="M22.96 18H38v24H22.96c-3.25 0-5.878-2.688-5.878-5.996V24c0-3.316 2.629-6 5.879-6z" fill="#ffcc80"/><path d="M34 21a3 3 0 0 0 3 3h3a3 3 0 0 0 0-6h-3a3 3 0 0 0-3 3zm-3 6a3 3 0 0 0 3 3h6a3 3 0 0 0 0-6h-6a3 3 0 0 0-3 3zm-1 6a3 3 0 0 0 3 3h6a3 3 0 0 0 0-6h-6a3 3 0 0 0-3 3zm-1 6a3 3 0 0 0 3 3h6a3 3 0 0 0 0-6h-6a3 3 0 0 0-3 3zm-4.473-25.434a8.436 8.436 0 0 0 1.914-3.632l.723-2.954c.14-.578.652-.98 1.234-.98h.672c1.782 0 2.97 2 2.97 3.293v1.395c0 2.828-.454 5.609-1.813 8.07l-2.625 4.762-8.196-4.266z" fill="#ffcc80"/><path d="M41 24h-4a1 1 0 1 0 0 2zm-1 6h-4a1 1 0 1 0 0 2zm-1 6h-4a1 1 0 1 0 0 2z" fill="#f2a25a"/><path d="M18 41H8L5 19h13z" fill="#ba68c8"/><path d="M15 36a1.999 1.999 0 1 1-4 0 1.999 1.999 0 1 1 4 0z" fill="#f3e5f5"/></svg>