<svg xmlns="http://www.w3.org/2000/svg" viewBox="0 0 40 40"><g fill="none" stroke-linecap="round" stroke="#4788c7" stroke-miterlimit="10"><path d="M10.066 19.078a13.901 13.901 0 0 0-1.586 6.59M19.645 9.824a15.89 15.89 0 0 0-8.532 4.48c-.254.247-1.793 1.766-2.84 3.887-1.207 2.446-1.808 4.97-1.793 7.493"/><path d="M4.621 23.605c.258-2.054.883-4.316 1.86-6.3" stroke-linejoin="round"/><path d="M13.465 21.2a9.942 9.942 0 0 0-.985 4.41m20.07.003a2.534 2.534 0 0 1-.058-.398l-.078-.813c-.57-4.972-4.828-8.863-9.934-8.863h-.003c-2.72.02-5.243 1.074-7.118 2.977"/><path d="M25.676 14.004c3.48 1.144 6.273 3.465 7.457 6.055.633 1.386 1.156 2.851 1.3 4.441m1.571-2.562a14.12 14.12 0 0 0-9.793-9.86M10.484 25.355a11.847 11.847 0 0 1 2.41-7.007 12.56 12.56 0 0 1 1.04-1.207c2.254-2.282 5.28-3.551 8.53-3.575M10.73 28.5a25.528 25.528 0 0 0 1.473 5.477M8.48 25.668c.008.89.122 3.277.954 6.3"/><path d="M31.516 14.902a13.96 13.96 0 0 0-9.051-3.336h-.016c-3.781.028-7.312 1.508-9.937 4.172" stroke-linejoin="round"/><path d="M6.48 25.684c.008.648.063 2.027.368 3.843"/><path d="M32.809 13.379a16.034 16.034 0 0 0-10.364-3.813h-.008" stroke-linejoin="round"/><path d="M6.48 17.305c1.153-2.332 2.778-3.989 3.25-4.442 3.332-3.375 7.852-5.261 12.696-5.297a18.06 18.06 0 0 1 11.676 4.286"/><path d="M13.117 7.883c-.176.094-.344.195-.515.293a20.488 20.488 0 0 0-1.551.976c-.328.23-.649.47-.961.72-.149.116-.3.233-.445.355-.442.375-.872.761-1.282 1.175l-.02.02a5.635 5.635 0 0 0-.163.16l-.047.047c-.7.7-2.281 2.434-3.445 4.793M33 8.582a20.07 20.07 0 0 0-10.59-3.016 20.785 20.785 0 0 0-3.465.332l-.004-.011c-.078.011-.148.035-.226.047a14.55 14.55 0 0 0-.727.16 17 17 0 0 0-.988.25" stroke-linejoin="round"/><path d="M6.715 10.219l.238-.239c.008-.003.012-.007.02-.015.406-.406.859-.824 1.382-1.266.122-.101.243-.195.364-.293l.125-.097c.347-.278.699-.54 1.058-.793.2-.137.395-.274.594-.403.367-.238.742-.46 1.121-.676l.168-.097a9.06 9.06 0 0 1 .395-.223 19.79 19.79 0 0 1 1.644-.781c.172-.074.352-.14.528-.207l.191-.07a19.74 19.74 0 0 1 1.082-.391 22.42 22.42 0 0 1 1.922-.527l.117-.028c.227-.05.45-.101.68-.144a3.106 3.106 0 0 1 .5-.082 22.331 22.331 0 0 1 3.554-.32c2.7 0 5.356.492 7.84 1.433" stroke-linejoin="round"/><path d="M29.496 35.184c-1.375-.344-2.48-.922-3.367-1.633m-4.063-2.024c.95 1.875 2.48 3.75 4.934 4.895m-2.5-10.914a2.01 2.01 0 0 0-2-1.98h-.004a1.985 1.985 0 0 0-1.422.597 1.98 1.98 0 0 0-.574 1.418m9.996-.188c.102 1.375.64 2.125 1.613 2.22a6.052 6.052 0 0 1 2.48.82M22.5 21.527h-.004a3.992 3.992 0 0 0-2.844 1.196 3.964 3.964 0 0 0-1.152 2.836m8-.071a3.964 3.964 0 0 0-.82-2.379m-8.977.856a6.092 6.092 0 0 0-.203 1.605"/><path d="M28.5 25.469c-.035-3.278-2.727-5.942-6-5.942h-.004a6.004 6.004 0 0 0-4.27 1.79m14.274 8.21c-2.629 0-3.973-1.367-4-4.058m-12.492 7.164a19.407 19.407 0 0 0 1.758 3.398M20.5 17.785a7.935 7.935 0 0 0-3.695 2.125 7.957 7.957 0 0 0-2.305 5.676m11.95-7.008a7.93 7.93 0 0 0-3.95-1.05m8 7.922a7.945 7.945 0 0 0-1.059-3.884m-2.699-11.418a16.133 16.133 0 0 1 9.934 8.059M12.48 25.61c.024 2.265.653 6.007 2.497 9.64"/><path d="M10.973 36.152c-2.258-4.89-2.48-9.234-2.493-10.507m-.367 8.773c-1.46-4.176-1.62-7.652-1.633-8.758m-.753 7.856A31.823 31.823 0 0 1 4.578 27.5m8.617 8.656a25.376 25.376 0 0 1-1.824-4.691" stroke-linejoin="round"/><path d="M14.5 25.586c.012 1.27.234 3.059.805 5.016m3.195-5.043c.012 1.144.242 2.828.855 4.632.793 2.336 2.227 4.88 4.649 6.72M16.5 25.57c.023 2.602 1.047 7.625 4.5 11.344m3.79-4.711c-2.298-2.898-2.294-6.637-2.294-6.637h.004m-2-.023c0 .047.035 1.828.75 4.004m10.262 4c-6.48-.649-7.004-7.293-7.012-8.04m8 6.02c-5.512 0-5.984-4.62-6-6.039m9.18 1.231a7.929 7.929 0 0 0-3.13-1.106"/></g></svg>