<svg xmlns="http://www.w3.org/2000/svg" viewBox="0 0 16 16"><path d="M7.5 3c-.18 0-.3.023-.375.031l.063.996C7.343 4.02 7.444 4 7.5 4c2.723 0 4.977 1.988 5.418 4.586l.984-.172C13.382 5.348 10.711 3 7.5 3zm-2.168.371A6.499 6.499 0 0 0 1 9.5h1a5.5 5.5 0 0 1 3.664-5.188zM7.5 5a4.513 4.513 0 0 0-4.36 3.375l.97.25A3.509 3.509 0 0 1 7.5 6c.676 0 1.305.203 1.844.54l.531-.845A4.43 4.43 0 0 0 7.5 5zm3.637 1.867l-.809.59A3.45 3.45 0 0 1 11 9.5c0 1.055-.277 2.207-.793 3.281l.902.438c.579-1.203.891-2.492.891-3.719 0-.984-.328-1.895-.863-2.633zM7.5 7c-.398 0-.773.102-1.098.262l.442.898C7.05 8.06 7.27 8 7.5 8 8.332 8 9 8.668 9 9.5h1C10 8.125 8.875 7 7.5 7zM5.133 8.719c-.086.273-.121.55-.133.758-.004.093-.125.55-.332.91-.207.36-.496.625-.715.675-.262.055-.629.133-1.05.22l.195.98c.43-.086.8-.164 1.074-.227.656-.144 1.078-.656 1.36-1.144.284-.493.448-.961.468-1.368.004-.109.043-.367.086-.492zM7.5 9c-.277 0-.5.223-.5.5 0 .34-.133.953-.422 1.547-.285.59-.726 1.164-1.297 1.531l.547.844c.766-.5 1.3-1.223 1.649-1.938.335-.687.503-1.359.515-1.914A.417.417 0 0 0 8 9.5c0-.277-.223-.5-.5-.5zm5.48.973a9.84 9.84 0 0 1-.617 2.851l.938.352c.39-1.043.617-2.114.676-3.149zm-4.19.894a6.433 6.433 0 0 1-.852 1.852l.828.562a7.249 7.249 0 0 0 .984-2.148z"/></svg>