<svg xmlns="http://www.w3.org/2000/svg" viewBox="0 0 40 40"><path d="M21 38.5c-3.02 0-5.76-1.21-8.146-3.596l-8.308-8.308a3.575 3.575 0 0 1 0-5.051A3.555 3.555 0 0 1 7.071 20.5c.954 0 1.851.372 2.525 1.046l3.903 3.749v-8.796l21-.068V31c0 4.206-3.294 7.5-7.5 7.5H21z" fill="#ffeea3"/><path d="M34 16.932V31c0 3.925-3.075 7-7 7h-6c-2.882 0-5.504-1.161-7.793-3.449L4.9 26.243c-.58-.58-.9-1.351-.9-2.172 0-.82.319-1.592.9-2.172.58-.58 1.351-.9 2.172-.9.82 0 1.592.319 2.186.914l3.05 2.929L14 26.468v-9.471l20-.065m1-1.003L13 16v8.121l-3.05-2.929C9.155 20.397 8.113 20 7.071 20s-2.084.398-2.879 1.193a4.072 4.072 0 0 0 0 5.758l8.308 8.308C15.51 38.267 18.617 39 21 39h6c4.497 0 8-3.503 8-8V15.929z" fill="#ba9b48"/><path d="M29.194 20.022l1.849-11.104c.253-1.391 1.377-2.405 2.671-2.405.143 0 .288.013.434.039 1.427.26 2.354 1.749 2.069 3.317l-1.848 11.097-5.175-.944z" fill="#ffeea3"/><path d="M33.715 7.012c.114 0 .23.01.344.031.545.099 1.018.428 1.334.926.332.524.45 1.166.33 1.825L33.96 20.382l-4.191-.764 1.766-10.603c.207-1.141 1.145-2.003 2.18-2.003m0-1c-1.504 0-2.863 1.17-3.165 2.824l-1.93 11.59 6.158 1.123 1.93-11.59c.336-1.843-.77-3.589-2.471-3.899a2.889 2.889 0 0 0-.522-.048z" fill="#ba9b48"/><path d="M10.549 7.928a2.765 2.765 0 0 1 .359-2.1 2.766 2.766 0 0 1 1.74-1.231 2.767 2.767 0 0 1 3.331 2.099l3.066 13.515-5.431 1.232-3.065-13.515z" fill="#ffeea3"/><path d="M13.267 5.027a2.3 2.3 0 0 1 2.225 1.78l2.955 13.027-4.456 1.011-2.955-13.028a2.286 2.286 0 0 1 2.231-2.79m0-1a3.284 3.284 0 0 0-3.206 4.011l3.177 14.003 6.406-1.453-3.177-14.003a3.286 3.286 0 0 0-3.2-2.558z" fill="#ba9b48"/><path d="M15.637 5.041a2.98 2.98 0 0 1 .328-2.188 2.612 2.612 0 0 1 2.244-1.303c1.275 0 2.418.961 2.718 2.285l3.803 17.61-5.292 1.2-3.801-17.604z" fill="#ffeea3"/><path d="M18.209 2.051c1.043 0 1.982.797 2.229 1.885l3.7 17.132-4.316.979-3.699-17.122a2.473 2.473 0 0 1 .272-1.817 2.12 2.12 0 0 1 1.357-1.007c.15-.033.304-.05.457-.05m0-1a3.09 3.09 0 0 0-.678.076c-1.731.393-2.797 2.192-2.383 4.02l3.909 18.1 6.267-1.422-3.909-18.1c-.36-1.588-1.72-2.674-3.206-2.674z" fill="#ba9b48"/><path d="M23.417 21.455l2.641-16.57c.251-1.377 1.405-2.385 2.743-2.385a2.658 2.658 0 0 1 2.22 1.214c.416.632.569 1.402.43 2.166l-2.64 16.56-5.394-.985z" fill="#ffeea3"/><path d="M28.801 3c.127 0 .255.012.381.035 1.216.222 2.013 1.458 1.772 2.778l-2.557 16.043-4.41-.804 2.56-16.065C26.757 3.835 27.705 3 28.801 3m0-1c-1.548 0-2.937 1.16-3.238 2.807L22.846 21.86l6.378 1.163L31.942 5.97c.336-1.843-.819-3.598-2.581-3.919a3.144 3.144 0 0 0-.56-.051z" fill="#ba9b48"/><rect x="14" y="18" width="20" height="6.071" fill="#ffeea3"/></svg>