<svg xmlns="http://www.w3.org/2000/svg" viewBox="0 0 16 16"><path d="M6.242 1c-.691 0-1.191.52-1.36 1.16-.507-.14-1.046-.117-1.444.277a1.505 1.505 0 0 0-.376 1.418L4.32 8.047c-.117.004-.265-.008-.543.133C3.407 8.363 3 8.832 3 9.5 3 12.672 4.7 14 6 14h3.5c1.129 0 2.035-.453 2.625-1.125.59-.668.875-1.531.875-2.375V7.625c0-.344.07-.68.207-.996.273-.629.684-1.559.684-1.559 0-.008.004-.011.004-.02A1.44 1.44 0 0 0 14 4.5c0-.824-.676-1.5-1.5-1.5-.23 0-.426.098-.621.191l.059-.23c.003-.004.003-.012.003-.02 0 0 .02-.074.036-.16L12 2.656c.008-.039.016-.031.016-.156 0-.824-.676-1.5-1.5-1.5-.704 0-1.301.488-1.461 1.148-.004.02-.313 1.286-.602 2.485-.055-.18-.055-.184-.11-.367-.16-.524-.32-1.051-.445-1.45l-.144-.488c-.02-.058-.031-.11-.043-.14-.008-.036-.02-.079-.008-.036L7.7 2.148A1.507 1.507 0 0 0 6.242 1zm0 1c.238 0 .434.164.485.383.02.074.015.05.023.086l.047.148c.035.121.086.29.148.488.121.403.282.93.438 1.454l.64 2.09A.5.5 0 0 0 8.5 7h.016c.23 0 .433-.156.484-.383l1.031-4.234a.496.496 0 0 1 .98.113c-.003.027-.011.059-.015.094-.016.062-.023.11-.027.125l-.938 3.66a.499.499 0 0 0 .32.598.499.499 0 0 0 .622-.27l1.066-2.398A.5.5 0 0 1 12.5 4c.281 0 .5.219.5.5a.515.515 0 0 1-.035.188c-.012.023-.402.917-.672 1.539A3.454 3.454 0 0 0 12 7.625V10.5a2.64 2.64 0 0 1-.625 1.719c-.41.465-1.004.781-1.875.781H6c-.602 0-2-.672-2-3.5 0-.332.094-.363.223-.43A.823.823 0 0 1 4.5 9h2c.281 0 .5.219.5.5s-.219.5-.5.5H5v1h1.5c.684 0 1.176-.516 1.352-1.148A.49.49 0 0 0 8 9.5C8 8.676 7.324 8 6.5 8H5.352l-1.32-4.398c-.04-.176-.005-.336.116-.454a.482.482 0 0 1 .704 0 .65.65 0 0 1 .062.07l1.11 3.438a.502.502 0 0 0 .953-.312L5.855 2.875h-.003l-.11-.344V2.5c0-.281.215-.5.5-.5z"/></svg>