<svg xmlns="http://www.w3.org/2000/svg" viewBox="0 0 26 26"><path d="M24.906.281s-2.695 2.563-6.062 2.563l-3.782 3.812.876.875a.514.514 0 0 1 0 .719c-.098.098-.247.125-.376.125a.454.454 0 0 1-.343-.125l-.875-.875-1.281 1.281.874.875a.514.514 0 0 1 0 .719c-.097.098-.246.125-.374.125a.454.454 0 0 1-.344-.125l-.875-.875-1.281 1.281.874.875a.514.514 0 0 1 0 .719c-.097.098-.246.125-.374.125a.454.454 0 0 1-.344-.125l-.875-.875-2.188 2.188 5.813 5.812C25.859 8.656 24.906.281 24.906.281zm-1.031 2.094c-.367 2.734-2.484 7.945-9.906 15.594l-1.344-1.344s1.805-1.773 3.813-3.813c2.796-2.84 6.195-6.605 7.437-10.437zM5.906 13.969c-.043.008-.086.02-.125.031a.994.994 0 0 0-.781.703c-.105.367.004.758.281 1.016l.907.906-5.563 5.594c-.734.734-.734 1.453 0 2.187l1.063 1.063c.867.867 3.855.644 6.53-2.032.884-.882 1.59-1.933 2-2.875l1.063 1.063c.242.297.63.434 1.004.348.371-.086.664-.38.75-.75a1.004 1.004 0 0 0-.348-1.004L6.72 14.28a1.004 1.004 0 0 0-.813-.312z"/></svg>