<svg xmlns="http://www.w3.org/2000/svg" viewBox="0 0 48 48"><path d="M39 9l-3-3.625V11" fill="none" stroke-width="2" stroke-linejoin="round" stroke="#56300d"/><path d="M25.262 18.238l1.492-1.332 2.664 2.985-1.492 1.332z" fill="#56300d"/><path d="M25.023 22.473C27.691 25.453 33 29 40 29" fill="none" stroke-width="6" stroke="#56300d"/><path d="M24.723 36.984L21.352 39l-3.426-11.18 3.293-.601z" fill="#56300d"/><path d="M22.098 38.336L25 37.078" fill="none" stroke-width="2" stroke-linecap="round" stroke="#56300d"/><path d="M23.668 23.719s.746.832 1.664 1.863a2.497 2.497 0 0 1-.195 3.527c-1.032.922-3.489 3.09-3.489 3.09" fill="none" stroke-width="2" stroke="#56300d"/><path d="M25.023 22.473l-7.097 6.347a2 2 0 0 1-2.824-.156L12.578 26a2.005 2.005 0 0 1 .156-2.824l7.77-5.602a2 2 0 0 1 2.82.156l1.86 1.918c.734.825.664 2.09-.16 2.825zm-10.43 2.62l2 2.235 7.098-6.348-1.996-2.238zm17.141-8.616L43 6l-1.332-1.488-11.266 10.472zM15.332 31.133l-8.2 7.332-2-2.238 8.204-7.329z" fill="#995f1a"/><path d="M11.016 41.063L11 32" fill="none" stroke-width="2" stroke="#995f1a" stroke-miterlimit="10"/><path d="M36.875 13.223l-6.79 7.41-3.995-4.473 8.12-5.922zM28.27 28.785c-1.922-.95-3.829-2.465-5.48-4.312l4.472-4c1.777 1.988 3.386 2.738 4.023 3.109z" fill="#c68632"/><path d="M18.902 30.629l9.692-8.664-3.996-4.473S14.156 26.82 13.41 27.488c-.746.664-.078 1.41-.078 1.41l2 2.235c.664.746 1.41.082 1.41.082s1.492-1.332 2.16-.586zM4.98 36.277l1.493-1.332 5.992 6.715-1.492 1.328z" fill="#c68632"/></svg>