<svg xmlns="http://www.w3.org/2000/svg" viewBox="0 0 24 24"><path d="M11.688.031C10.707.06 9.874.687 9.5 1.813c-.46 1.23-.074 3.906.406 6.25-1.558-1.899-3.492-3.993-4.812-4.47-1.5-.6-2.805.012-3.407 1.313-.101.301-.101 1.29-.5 2.188-.3.898-.992 1.699-1.093 2-.5 1.3.093 2.492 1.593 3.094 1.555.62 5.192.152 7.813-.313-2.145 1.402-5.059 3.488-5.688 4.938C3.212 18.21 3.7 19.398 5 20c.3.102 1.29.195 2.188.594.898.398 1.605 1.117 1.906 1.218 1.3.602 2.617.086 3.219-1.312.628-1.45.261-4.95-.094-7.438 1.695 1.81 3.96 4.024 5.375 4.438 1.398.398 2.601-.2 3-1.5.101-.3.011-1.29.312-2.188.301-.8.805-1.605.907-1.906.398-1.3-.22-2.508-1.72-2.906-1.16-.387-3.542 0-5.687.5 1.813-1.512 3.739-3.344 4.188-4.594.5-1.5-.102-2.718-1.5-3.218-.301-.102-1.383-.2-2.282-.5-1-.301-1.824-.899-2.124-1a2.697 2.697 0 0 0-1-.157zm1.406 15.063c3 5.3 8.394 8.699 9.094 9 .898.199 2.019-1.407 1.718-1.907-5.398-.898-10.812-7.093-10.812-7.093z"/></svg>