<svg xmlns="http://www.w3.org/2000/svg" viewBox="0 0 48 48"><path d="M40.371 41.91c-.781-.21-1.273-.433-1.86-.691a18.827 18.827 0 0 1-1.605-.832 23.72 23.72 0 0 1-2.914-1.98c-1.82-1.438-3.168-3.102-4.578-4.868-2.816-3.535-4.871-7.516-6.422-11.613 2.149 3.816 4.758 7.363 7.887 10.254 1.566 1.441 3.004 2.73 4.8 3.746.895.508 1.817.953 2.755 1.312.464.184.937.34 1.402.473.437.125.988.25 1.273.266a2.018 2.018 0 1 1-.633 3.965z" fill="#2e7d32"/><path d="M33.3 12.703c-.816 3.262-10.527 9.07-10.527 9.07s-5.808-9.707-4.992-12.964c1.13-4.493 6.25-2.98 8.188.254 3.234-1.934 8.46-.848 7.332 3.64zM31.844 32.3c-3.258-.816-9.07-10.527-9.07-10.527s9.71-5.808 12.968-4.992c4.492 1.13 2.98 6.25-.258 8.188 1.938 3.234.852 8.46-3.64 7.332zm-19.598-1.456c.82-3.258 10.527-9.07 10.527-9.07s5.813 9.71 4.993 12.968c-1.13 4.492-6.246 2.98-8.184-.258-3.234 1.938-8.46.852-7.336-3.64z" fill="#4caf50"/><path d="M13.703 11.25c3.262.816 9.07 10.523 9.07 10.523s-9.707 5.813-12.964 4.993c-4.493-1.13-2.98-6.246.254-8.184-1.934-3.234-.848-8.46 3.64-7.332z" fill="#4caf50"/><path d="M28.586 17.336c-.29.488-.688.89-1.078 1.277-.406.367-.824.723-1.262 1.028-.867.625-1.773 1.148-2.621 1.652l-.863.516-.512-.856c-.523-.883-1.066-1.812-1.535-2.789-.453-.984-.89-2.02-1.047-3.164a24.74 24.74 0 0 1 2.344 2.309c.707.812 1.37 1.664 1.953 2.62l-1.375-.34c.95-.581 1.93-.995 2.918-1.35.492-.184 1-.329 1.5-.485.52-.14 1.015-.293 1.578-.418z" fill="#388e3c"/><path d="M16.988 26.25c.285-.492.684-.898 1.07-1.285.407-.371.82-.727 1.255-1.035.863-.63 1.765-1.16 2.613-1.668l.86-.52.515.852c.531.879 1.082 1.804 1.554 2.777.461.984.903 2.016 1.063 3.16a23.457 23.457 0 0 1-2.355-2.297c-.715-.808-1.38-1.652-1.97-2.605l1.376.332c-.946.586-1.922 1.008-2.907 1.367-.492.184-1 .328-1.5.492-.515.145-1.011.297-1.574.43z" fill="#388e3c"/><path d="M29.11 17.156a22.17 22.17 0 0 0-.708-2.047 27.248 27.248 0 0 0-1.906-3.804l-.773-1.285-1.282.77a27.689 27.689 0 0 0-3.476 2.456c-.547.461-1.082.945-1.59 1.469a5.35 5.35 0 0 0-.145.16c.172.398.348.797.532 1.188.12-.028.242-.06.363-.09a21.793 21.793 0 0 0 2.047-.711 27.465 27.465 0 0 0 2.539-1.203 26.65 26.65 0 0 0 1.664 2.261c.465.551.945 1.086 1.473 1.594.09.086.183.168.273.25a44.19 44.19 0 0 0 1.04-.8c-.016-.067-.032-.137-.052-.208zm-2.794 11.52a46.141 46.141 0 0 0-.53-1.192l-.364.094c-.703.2-1.383.442-2.047.707a28.3 28.3 0 0 0-2.535 1.207 27.453 27.453 0 0 0-1.668-2.265 22.449 22.449 0 0 0-1.469-1.594 8.216 8.216 0 0 1-.277-.25c-.352.262-.696.531-1.04.805.016.066.036.136.052.203.203.703.445 1.382.71 2.047a27.443 27.443 0 0 0 1.903 3.804l.773 1.29 1.285-.77a28.353 28.353 0 0 0 3.473-2.457c.55-.465 1.082-.946 1.594-1.473.047-.05.094-.102.14-.156zm7.446-5.235a28.098 28.098 0 0 0-2.457-3.476 22.511 22.511 0 0 0-1.473-1.594c-.05-.047-.105-.094-.156-.14-.399.171-.797.347-1.192.53l.094.364c.2.703.445 1.383.707 2.047.356.875.77 1.71 1.207 2.535a27.415 27.415 0 0 0-2.265 1.668c-.547.46-1.082.945-1.59 1.469l-.254.277c.262.352.531.695.805 1.04.066-.016.136-.036.203-.052a21.793 21.793 0 0 0 2.047-.71 27.443 27.443 0 0 0 3.804-1.903l1.29-.773zm-16.789.981a20.73 20.73 0 0 0-.711-2.047 26.875 26.875 0 0 0-1.203-2.535 26.75 26.75 0 0 0 2.261-1.668 20.768 20.768 0 0 0 1.594-1.469l.254-.277a52.53 52.53 0 0 0-.805-1.04c-.066.016-.136.036-.203.052a21.87 21.87 0 0 0-2.05.71 27.884 27.884 0 0 0-3.805 1.903l-1.285.773.77 1.285a28.353 28.353 0 0 0 2.456 3.473c.465.547.945 1.082 1.473 1.594l.156.144a51.07 51.07 0 0 0 1.188-.535c-.032-.12-.06-.242-.09-.363z" fill="#81c784"/></svg>