<svg xmlns="http://www.w3.org/2000/svg" viewBox="0 0 26 26"><path d="M11.75.188c-1.285-.008-2.3.847-2.594 2.343-.281 1.473.535 4.422 1.406 6.938C8.59 7.64 6.176 5.64 4.689 5.313 3 4.94 1.707 5.766 1.374 7.28c-.082.371.016 1.504-.219 2.563-.222 1.02-.789 1.96-.875 2.344-.332 1.523.5 2.847 2.188 3.218 1.695.371 5.418-.73 8.125-1.656-2.051 1.91-4.73 4.664-5.188 6.313-.449 1.62.29 2.94 1.75 3.343.356.106 1.45.063 2.469.344.98.273 1.883.863 2.25.969 1.46.402 2.766-.348 3.219-1.969.488-1.762-.524-5.766-1.313-8.469 2.164 1.688 5.117 3.809 6.781 4 1.637.184 2.801-.742 2.97-2.218.038-.36-.18-1.41-.063-2.438.113-.988.547-1.941.593-2.313.165-1.476-.765-2.656-2.406-2.843-1.32-.149-3.761.746-5.968 1.687 1.683-1.949 3.417-4.219 3.687-5.625.332-1.707-.559-3.015-2.094-3.312-.375-.074-1.523.05-2.593-.157C13.655.863 12.703.325 12.312.25a2.82 2.82 0 0 0-.562-.063zm2.875 15.53c3.184 6.782 7.828 9.462 8.719 9.688.886.227 2.105-1.52 1.781-2.031-5.957-2.352-10.5-7.656-10.5-7.656z"/></svg>