<svg xmlns="http://www.w3.org/2000/svg" viewBox="0 0 40 40"><path d="M20 38.48c-1.555-.457-16.5-5.152-16.5-17.125V4.43C7.867 3.762 18.883 1.715 20 1.508c1.113.207 12 2.203 16.5 2.922v16.925c0 11.973-14.945 16.668-16.5 17.125z" fill="#dff0fe"/><path d="M20 2.016c1.469.27 11.383 2.086 16 2.836v16.503c0 11.325-13.918 15.973-16 16.602-2.086-.629-16-5.262-16-16.602V4.86c4.516-.714 14.527-2.57 16-2.843M20 1S7.25 3.375 3 4v17.355C3 34.461 20 39 20 39s17-4.54 17-17.645V4c-4.438-.688-17-3-17-3z" fill="#4788c7"/><path d="M20 2.016v35.941c2.082-.633 16-5.281 16-16.602V4.852c-4.617-.75-14.531-2.567-16-2.836z" fill="#98ccfd"/><path d="M20 34.406C16.852 33.273 7.5 29.234 7.5 21.38V8.418c2.813-.523 6.094-1.367 8.75-2.047 1.54-.394 2.875-.738 3.75-.922 1.004.211 2.633.614 4.512 1.078 2.605.645 5.547 1.371 7.988 1.88v12.972c0 7.86-9.352 11.894-12.5 13.027z" fill="#b6dcfe"/><path d="M20 5.96c1.004.216 2.586.606 4.395 1.052 2.472.613 5.242 1.297 7.605 1.8V21.38c0 7.398-8.777 11.312-11.996 12.496C16.78 32.691 8 28.777 8 21.379V8.832c2.734-.531 5.836-1.324 8.371-1.977 1.477-.378 2.766-.71 3.629-.894m0-1.024C17.602 5.43 11.562 7.188 7 8v13.379c0 8.242 9.602 12.36 13 13.558 3.39-1.195 13-5.308 13-13.558V8c-4.313-.875-10.602-2.57-13-3.063z" fill="#4788c7"/><path d="M24.395 7.012c-1.813-.45-3.391-.84-4.395-1.055v27.914h.004C23.219 32.691 32 28.777 32 21.38V8.812c-2.367-.503-5.133-1.187-7.605-1.8z" fill="#98ccfd"/><path d="M12.5 10l2.5 3.5-2.5 3.5-2.5-3.5z" fill="#fff"/><path d="M25.5 21l2.5 3.5-2.5 3.5-2.5-3.5z" fill="#dff0fe"/><path d="M32 8.809v4.511L10.39 27.64c-.89-1.081-1.6-2.3-2.019-3.671L31.45 8.69c.192.04.371.079.551.118z" fill="#fff"/><path d="M32 8.809v4.511l-12 7.95v-5l11.45-7.58.55.118z" fill="#dff0fe"/></svg>