<svg xmlns="http://www.w3.org/2000/svg" viewBox="0 0 50 50"><path d="M21.656 1l-4.25 3.188-.843.656.656.781 1.218 1.438C10.043 9.813 4 17.694 4 27c0 11.586 9.414 21 21 21s21-9.414 21-21c0-9.293-6.059-17.176-14.438-19.938l1.22-1.437.656-.781-.844-.657L28.344 1zm.688 2h5.312l2.657 2H25v2h4.031l-2.5 3H23.47l-2.5-3H23V5h-3.313zm-2.532 5.719l1.407 1.719C13.652 12.155 8 18.918 8 27c0 9.379 7.621 17 17 17s17-7.621 17-17c0-8.082-5.652-14.844-13.219-16.563l1.407-1.687C38.151 11.008 44 18.297 44 27c0 10.504-8.496 19-19 19S6 37.504 6 27c0-8.703 5.848-16.023 13.813-18.281zM25 12c8.297 0 15 6.703 15 15s-6.703 15-15 15-15-6.703-15-15 6.703-15 15-15z"/></svg>