<svg xmlns="http://www.w3.org/2000/svg" viewBox="0 0 40 40"><path d="M6.707 31l1-1L5.5 27.793l-1 1-1.23-1.23C1.36 25.448.5 22.488.5 20.5c0-.55.45-1 1-1s1 .45 1 1c0 .566.094 2.566 1.297 4.54l.328.542 9.375-9.375L15.293 18l-7.5 7.5L10 27.707l7.5-7.5L19.293 22 8.5 32.793z" fill="#b6dcfe"/><path d="M13.5 16.914L14.586 18l-7.5 7.5L10 28.414l7.5-7.5L18.586 22 8.5 32.086 7.414 31l1-1L5.5 27.086l-1 1-.86-.86C1.825 25.212 1 22.329 1 20.5a.499.499 0 1 1 1 0c0 1.598.512 3.39 1.367 4.8l.66 1.087 9.473-9.473m0-1.414l-9.277 9.277C3.34 23.332 3 21.657 3 20.5a1.5 1.5 0 0 0-3 0c0 2.066.895 5.184 2.914 7.414L4.5 29.5l1-1L7 30l-1 1 2.5 2.5L20 22l-2.5-2.5L10 27l-1.5-1.5L16 18z" fill="#4788c7"/><path d="M21.809 24.777L37.937 8.645l1.415 1.414-16.13 16.132z" fill="#dff0fe"/><path d="M37.938 9.355l.707.707-15.422 15.422-.707-.707L37.938 9.355m0-1.418l-16.836 16.84 2.12 2.121 16.84-16.84z" fill="#4788c7"/><path d="M18.309 21.277L34.437 5.145l1.415 1.414-16.13 16.132z" fill="#dff0fe"/><path d="M34.438 5.855l.707.707-15.422 15.422-.707-.707L34.438 5.855m0-1.418l-16.836 16.84 2.12 2.121 16.84-16.835z" fill="#4788c7"/><path d="M14.809 17.777L30.938 1.645l1.414 1.414-16.13 16.132z" fill="#dff0fe"/><path d="M30.938 2.355l.707.708-15.422 15.421-.707-.707L30.937 2.355m0-1.417l-16.835 16.84 2.12 2.12 16.84-16.835z" fill="#4788c7"/><path d="M38.875 13.875a.505.505 0 0 1-.71 0l-11.04-11.04a.505.505 0 0 1 0-.71.505.505 0 0 1 .71 0l11.04 11.04a.505.505 0 0 1 0 .71zm-3 3a.505.505 0 0 1-.71 0l-11.04-11.04a.505.505 0 0 1 0-.71.505.505 0 0 1 .71 0l11.04 11.04a.505.505 0 0 1 0 .71z" fill="#4788c7"/><path d="M10.008 27.7l7.492-7.493L23.293 26l-7.492 7.492z" fill="#dff0fe"/><path d="M17.5 20.914L22.586 26 15.8 32.785 10.715 27.7l6.785-6.785m0-1.414l-8.2 8.2 6.5 6.5L24 26z" fill="#4788c7"/><path d="M12.707 33.383l4.672-4.676 3.914 3.914-4.672 4.672z" fill="#98ccfd"/><path d="M17.383 29.414l3.203 3.203-3.969 3.969-3.203-3.203 3.969-3.969m0-1.414L12 33.383 16.617 38 22 32.617z" fill="#4788c7"/><path d="M24.223 28.5a1.19 1.19 0 0 1-.848-.352L11.859 16.637a1.205 1.205 0 0 1 0-1.696l.082-.078a1.203 1.203 0 0 1 1.695-.004l11.512 11.516c.23.227.352.527.352.848 0 .316-.121.62-.352.843l-.078.082a1.2 1.2 0 0 1-.847.352z" fill="#98ccfd"/><path d="M12.79 15.012c.187 0 .358.07.491.203l11.516 11.512c.27.273.27.714 0 .988l-.082.082a.708.708 0 0 1-.492.203.71.71 0 0 1-.496-.203L12.215 16.28a.685.685 0 0 1-.203-.492c0-.187.07-.36.203-.492l.082-.082a.685.685 0 0 1 .492-.203m0-1c-.434 0-.867.164-1.2.496l-.081.082a1.693 1.693 0 0 0 0 2.398L23.02 28.504a1.7 1.7 0 0 0 2.402 0l.082-.082c.66-.664.66-1.738 0-2.402L13.988 14.508a1.689 1.689 0 0 0-1.199-.496z" fill="#4788c7"/></svg>