<svg xmlns="http://www.w3.org/2000/svg" viewBox="0 0 24 24"><path d="M17.125 2.438l-1.219 1.187 1.219 1.25 1.219-1.219zm-2.469 1.187l-1.219 1.219L19.5 11.03l1.25-1.187zm4.313.656L17.719 5.5l1.218 1.25 1.25-1.219zm-6.157 1.157l-.624.625.624.625-4.343 4.25 1.187 1.218L14 7.906l.625.625-4.344 4.25 1.219 1.25 4.344-4.25.594.625-4.344 4.25 1.219 1.25 4.343-4.281.625.625.594-.594-.594-.625-1.218-1.25-.594-.625-1.844-1.844-1.219-1.25zm7.97.718l-1.25 1.219 1.218 1.219L22 7.375zM4.186 9.406a.88.88 0 0 0-.625.25c-.343.336-.367.875-.03 1.219l1.843 1.875-.625.594.594.625L4.28 15l-.625-1.5a.888.888 0 0 0-1.375-.188c-.344.336-.336.907 0 1.25l1.219 1.22c-.344.335-.367.905-.031 1.25l3.656 3.718a.856.856 0 0 0 1.219 0l1.875-1.813.594.625 2.5-2.437-6.094-6.219-.625.625L4.78 9.656a.819.819 0 0 0-.593-.25z"/></svg>