<svg xmlns="http://www.w3.org/2000/svg" viewBox="0 0 50 50"><path d="M26.098 4c-.297 0-7.5-.398-12.5 4.3C10.5 11.2 9 15.3 9 20.5v5.098c-.398.601-1 1.703-1 3.5 0 2.902 2.5 4.304 3.598 4.804C12.5 36.301 16.699 47 25 47c8.3 0 12.5-10.7 13.402-13.098C39.5 33.402 42 32 42 29.098c0-1.797-.602-3-1-3.5V20.5c0-1.5-.102-2.8-.3-4v-.098C38.097 7.398 31.601 6.398 28.5 6l-2-2zM25.5 6l2.098 2h.304c4.399.5 8.797 1.898 10.797 8.902.2 1 .301 2.297.301 3.598v5.902l.3.297s.7.801.7 2.399c0 2.101-2.7 3-2.7 3l-.5.203-.202.5C36.598 32.902 32.699 45 25 45c-7.602 0-11.598-12.098-11.598-12.2l-.203-.5-.5-.202s-2.699-.899-2.699-3c0-1.598.7-2.399.7-2.399l.3-.297V20.5c0-4.602 1.398-8.2 4-10.7C18.7 6.3 24 6 25.5 6zm2.5 7.098c-.3 0-.602.203-.8.402-4.2 5-13.2 5.598-13.298 5.598-.402 0-.8.304-.902.804l-1 6c-.102.598.3 1.098.8 1.196A1.033 1.033 0 0 0 14 26.3l.902-5.3c2.297-.2 8.899-1.3 13-5.3 2.399 3.1 5.797 4.702 7.196 5.202L36 26.301c.102.5.5.797 1 .797.102 0 .098 0 .098.101.5-.101.902-.699.804-1.199l-1-6c-.101-.398-.304-.7-.703-.8 0 0-4.898-1.602-7.398-5.602-.2-.297-.5-.5-.801-.5zm-.086 8.84a1.08 1.08 0 0 0-.914.66c-.2.5.098 1.101.598 1.304l5 2c.101.098.3.098.402.098.398 0 .8-.2.902-.7.2-.5-.101-1.1-.601-1.3l-5-2a.947.947 0 0 0-.387-.063zm-5.828.09c-.129 0-.262.023-.387.07l-5 2c-.601.203-.8.804-.601 1.304.101.399.504.598.902.598h.402l5-2c.598-.2.797-.8.598-1.3a.942.942 0 0 0-.914-.673zm-5.05 5.921a.912.912 0 0 0-.735.25c-.399.301-.5 1-.102 1.399C17 30.5 18.102 31 19.5 31c1.398 0 2.5-.5 3.098-1.402.402-.399.3-1-.098-1.399-.398-.398-1-.297-1.402.102-.297.398-.996.601-1.696.601-.703 0-1.402-.203-1.703-.601a.934.934 0 0 0-.664-.352zm11 0a.912.912 0 0 0-.735.25c-.399.301-.5 1-.102 1.399C28 30.5 29.102 31 30.5 31c1.398 0 2.5-.5 3.098-1.402.402-.399.3-1-.098-1.399-.398-.398-1-.297-1.402.102-.297.398-.996.601-1.696.601-.703 0-1.402-.203-1.703-.601a.934.934 0 0 0-.664-.352zM25 34c-2.8 0-5 2.2-5 5v1h10v-1c0-2.8-2.2-5-5-5zm.098 2c1.3 0 2.402.8 2.804 2H22.2c.399-1.2 1.602-2 2.899-2z"/></svg>