<svg xmlns="http://www.w3.org/2000/svg" viewBox="0 0 50 50"><path style="line-height:normal;text-indent:0;text-align:start;text-decoration-line:none;text-decoration-style:solid;text-decoration-color:#000;text-transform:none;block-progression:tb;isolation:auto;mix-blend-mode:normal" d="M10 4v4H6v4H2v14h4v4h4v4h4v4h4v4h4v4h6v-4h4v-4h4v-4h4v-4h4v-4h4V12h-4V8h-4V4H30v4h-4v4h-2V8h-4V4H10zm2 2h6v2h-6V6zm20 0h6v2h-6V6zM8 10h2v2H8v-2zm4 0h6v4h4v4h6v-4h4v-4h6v4h4v10h-4v4h-4v4h-4v4h-4v4h-2v-4h-4v-4h-4v-4h-4v-4H8V14h4v-4zm8 0h2v2h-2v-2zm8 0h2v2h-2v-2zm12 0h2v2h-2v-2zM4 14h2v10H4V14zm20 0h2v2h-2v-2zm20 0h2v10h-2V14zM8 26h2v2H8v-2zm32 0h2v2h-2v-2zm-28 4h2v2h-2v-2zm24 0h2v2h-2v-2zm-20 4h2v2h-2v-2zm16 0h2v2h-2v-2zm-12 4h2v2h-2v-2zm8 0h2v2h-2v-2zm-4 4h2v2h-2v-2z"/></svg>