<svg xmlns="http://www.w3.org/2000/svg" viewBox="0 0 24 24"><path d="M23.188 0l-1.094 1.094c-.5.5-3.18 1.117-4.282 2.218-.699.7-1.019 1.977-1.218 2.876l-1.5.906 1.812 1.812.907-1.5c.898-.101 2.175-.418 2.875-1.218 1.101-1.102 1.617-3.68 2.218-4.282.5-.5 1.094-1 1.094-1zM10.063 6.563l-.72.687L11 9l-1.219 1.219.5.5-3.187 3.187-.375-.375-1.907 1.906.47.47-.095.093c-.3.3-1.488 2.387-1.687 2.688l-.5.5L.719 20.78a.485.485 0 0 0-.531.125c-.2.102-.2.492 0 .594L2.5 23.813c.102.199.492.199.594 0a.469.469 0 0 0 .062-.594l1.219-1.657c.04-.027.09-.027.125-.062l.906-.906c.2-.2 1.172-.75 1.907-1.188a.93.93 0 0 1 .593.282l2.594 2.625 1.594-1.625-2.5-2.5s-.031-.426 0-.782l1.344-1.343c.16-.047.496-.13.656.03l4.5 4.5 1.718-1.687-3.25-3.218.657-.657c.41-.41.52-.96.437-1.437a2.272 2.272 0 0 0-.625-1.219l-.5-.5c.41-.672.856-1.39.969-1.563l.594-.624-1.907-1.876s-.195.293-.593.594c-.125.125-.57.399-1.063.688zm3.968 6.125l.375.374c.172.184.305.454.344.688.043.25.004.434-.188.625l-.624.625-.532-.5c-.168-.113-.219-.305-.187-.5.199.008.496.098.687 0 .2.102.281-.113.281-.313 0-.199-.18-.28-.28-.28a1.6 1.6 0 0 1-.47-.032l.376-.375c.046-.047.132-.191.218-.313z"/></svg>