<svg xmlns="http://www.w3.org/2000/svg" viewBox="0 0 50 50"><path d="M46.438 0a.991.991 0 0 0-.407.188l-26.687 19.03L18 17.376l.469-.344a.954.954 0 0 0 .156-.125l2.531-.968a.842.842 0 0 0 .188-.094l.625-.406a1 1 0 0 0 .25-1.438l-2.407-3.281a1.013 1.013 0 0 0-1.375-.25l-.593.406a1.002 1.002 0 0 0-.407.531l-1.687 1.906-7.125 5.063-2.438.938a.987.987 0 0 0-.53.218l-.595.5a.999.999 0 0 0-.156 1.344l2.375 3.313a.998.998 0 0 0 1.469.187l.594-.5a.945.945 0 0 0 .125-.125l1.937-2.219.25-.156L13 23.75l-.469.344H12.5v.031a3.292 3.292 0 0 0-1.25 1.906c-.16.68-.156 1.332-.156 1.782 0 .89-.059 2.765-1.219 3.812-.012.012-.02.023-.031.031-.559.465-2.559 2.024-4.469 3.5-1.926 1.489-3.707 2.84-4.125 3.188-.469.418-.902.738-1.125 1.375-.219.629.02 1.308.313 1.843.007.008 0 .028 0 .032.132.265.374.722.78 1.437.419.735.95 1.63 1.47 2.532 1.039 1.8 2.062 3.53 2.062 3.53a.958.958 0 0 0 .219.282s.21.18.5.344c.277.156.672.379 1.312.25.032-.008.032.008.063 0 .008 0-.008-.032 0-.032.308-.078.445-.148.593-.25.168-.113.34-.253.532-.406.379-.304.812-.707 1.281-1.125a168.69 168.69 0 0 1 2.594-2.281.466.466 0 0 0 .031-.063c2.313-2.199 2.332-5.296 2.406-6.03v-.063c.285-1.492.567-2.219 1.063-2.563.094-.058.008-.047.094 0a.801.801 0 0 1 .218.25v.063c.207.52.38.828.688 1.343.183.31.367.657.843.876.477.218 1.055.066 1.375-.094.41-.203.676-.45.97-.688.292-.238.53-.468.53-.468l.032-.032s.832-.972.406-2.093l.063-.032c-.004-.011-.055-.105-.063-.125-.008-.02-.023-.101-.031-.125 1.379-1.289 1.808-2.82 1.781-4a5.45 5.45 0 0 0-.25-1.468c3.191-2.372 10.602-7.899 10.656-7.938l.032-.031c1.007-.707 1.68-1.75 2.124-2.782.45-1.042.688-2.05.688-2.906 0-.914-.035-1.77-.063-2.343l13.844-9.844a.987.987 0 0 0 .403-.657.988.988 0 0 0-.184-.75L47.406.406A.997.997 0 0 0 46.438 0zm-.063 2.406l.906 1.281-13.156 9.344a1.02 1.02 0 0 0-.313.156l-9.906 7.157c-.34-.23-.543-.457-1.312-.75-.074-.028-.172-.035-.25-.063zm-27.5 10.406l1.031 1.438-1.687.656-.532-.75zm-2.688 2.657l.344.469-.343.218a1 1 0 0 0-.344.25l-.031.032-.032.03-4.875 3.438-.312-.468zm17.282.437c.015.438.031.563.031 1 0 .446-.184 1.317-.531 2.125-.348.809-.864 1.543-1.438 1.938L31.5 21s-8.086 6.05-11 8.219a.992.992 0 0 0-.563.437c-.21.157-.949.692-1.03.75l-.032.032c-.602.492-1.07.937-1.375 1.468-.293.516-.406 1.258-.094 1.844.012.02.02.043.032.063.292.605.671 1.53.937 2.25a.88.88 0 0 0 .031.093c.102.282.227.684.25.75a.88.88 0 0 0 .032.094c-.047.043-.188.164-.407.344-.133.11-.187.16-.312.25a5.435 5.435 0 0 1-.407-.813c-.007-.023-.023-.039-.03-.062-.196-.54-.552-1-1.095-1.313-.566-.328-1.453-.41-2.156.032l-.031.03c-1.285.856-1.629 2.302-1.938 3.938v.094c-.124 1.117-.156 3.3-1.812 4.875-.688.586-1.664 1.512-2.563 2.313-.457.406-.89.769-1.218 1.03-.125.102-.196.188-.282.25-.011-.007-.019.009-.03 0-.02-.011-.016-.019-.032-.03-.082-.145-.945-1.657-1.938-3.376-.519-.898-1.054-1.8-1.468-2.53-.414-.731-.762-1.337-.781-1.376v-.031c-.086-.156-.11-.223-.126-.25.024-.02.145-.203.47-.5.023-.02.007-.008.03-.031.211-.172 2.122-1.649 4.032-3.125 1.926-1.489 3.87-3.012 4.531-3.563h.031c2.008-1.758 1.938-4.445 1.938-5.343 0-.45.004-.942.094-1.313s.238-.598.5-.781l1.062-.782a.993.993 0 0 0 .344-.218c.023-.032.043-.063.062-.094l4.063-2.969h.031c.254-.027.488-.148.656-.343v-.032a.466.466 0 0 0 .063-.031c.578-.172 1.25-.031 1.906.219.86.328 1.531.812 1.531.812.348.27.828.282 1.188.032zm-17.094 2.625l1.313 1.813-3.063 2.218-1.344-1.875zm-7.531 1.875l.594.844-1.188 1.344-1.125-1.5zm11.375 11.469c.004.066.031.117.031.188a2.97 2.97 0 0 1-.594 1.874c-.148-.363-.285-.722-.437-1.03.008-.005.02.019.031 0 .094-.16.375-.516.844-.907l.031-.031c.012-.008.082-.086.094-.094z"/></svg>