<svg xmlns="http://www.w3.org/2000/svg" viewBox="0 0 26 26"><path d="M24.656.094L9.97 10.625l-.47-.688.844-.593 1.344-.531.062.062.344-.25-1.281-1.781-.282.187L10.5 7 9.469 8.219 5.594 11l-1.5.594-.313.25L5 13.563l.313-.25.875-1 .875-.626.468.688-1.031.719A1.586 1.586 0 0 0 6 14.78c.008.02-.008.043 0 .063-.004.535-.105 1.574-.906 2.156-.602.5-4.5 3.594-4.5 3.594s-.602.508-.5.906c.101.398 2.406 4.188 2.406 4.188s.3.218.5.218c.2-.101 1.805-1.492 2.406-2.093 1.102-1 .992-2.407 1.094-2.907.102-.898.313-1.418.813-1.718.398-.301.773.105.875.406.101.3.21.394.312.593.2.301.3.32.5.22.2-.102.688-.5.688-.5s.324-.196.124-.595a3.137 3.137 0 0 1-.124-.28c.23-.216.593-.536 1.124-1.126 1-1 .188-2.312.188-2.312l-.094-.063c.375-.281.688-.531.688-.531l.062-.031c.258-.024.516-.114.75-.281l4.188-3c.699-.5 1.195-1.688 1.093-2.688l-.062-1.5 8.125-5.844zM9.188 10.188l.468.656-1.75 1.25-.031.062-.5-.687zm1.062 5.843c.16.696-.094 1.219-.344 1.469a8.042 8.042 0 0 1-.562.656c-.086-.222-.16-.472-.25-.656-.102-.3-.008-.695.594-1.094.14-.093.37-.238.562-.375z"/></svg>