<svg xmlns="http://www.w3.org/2000/svg" viewBox="0 0 50 50"><path d="M25 2.781l-.563.375c-1.382.934-4.476 2.578-7.562 4.938-3.086 2.36-6.246 5.504-7.781 9.656-2.801 7.574.5 15.328.844 16.125l-3.376 6.75 1.157.344 14 4 1.281.343v-6.25c.668-.035 1.34-.062 2-.062.656 0 1.332.023 2 .063v6.25l1.281-.344 14-4 1.157-.344-3.376-6.75c.344-.797 3.645-8.55.844-16.125-1.535-4.152-4.695-7.293-7.781-9.656-3.086-2.364-6.172-4.012-7.563-4.938zm0 2.438c1.668 1.058 4.203 2.402 6.906 4.468 2.926 2.239 5.785 5.13 7.125 8.75 2.574 6.965-.937 15.157-.937 15.157l-.188.437.188.407 2.468 4.937L29 42.656V32.594l4.594-2.625C35.086 29.117 36 27.5 36 25.78c0-2.635-2.176-4.78-4.813-4.78a4.77 4.77 0 0 0-4.156 2.406L25 26.97l-2.031-3.563C22.117 21.914 20.5 21 18.78 21 16.145 21 14 23.176 14 25.813c0 1.718.914 3.3 2.406 4.156L21 32.594v10.062L9.437 39.375l2.47-4.938.187-.406-.188-.437s-3.511-8.192-.937-15.157c1.34-3.62 4.199-6.515 7.125-8.75C20.797 7.622 23.328 6.285 25 5.22zM15 17c-.55 0-1 .45-1 1s.45 1 1 1 1-.45 1-1-.45-1-1-1zm4 0c-.55 0-1 .45-1 1s.45 1 1 1 1-.45 1-1-.45-1-1-1zm4 0c-.55 0-1 .45-1 1s.45 1 1 1 1-.45 1-1-.45-1-1-1zm4 0c-.55 0-1 .45-1 1s.45 1 1 1 1-.45 1-1-.45-1-1-1zm4 0c-.55 0-1 .45-1 1s.45 1 1 1 1-.45 1-1-.45-1-1-1zm4 0c-.55 0-1 .45-1 1s.45 1 1 1 1-.45 1-1-.45-1-1-1zm-16.219 6c1.004 0 1.938.535 2.438 1.406l2.906 5.094L25 31l.875-1.5 2.906-5.094A2.754 2.754 0 0 1 31.188 23C32.745 23 34 24.227 34 25.781a2.807 2.807 0 0 1-1.406 2.438L27.5 31.125l-.5.281v5.657A37.726 37.726 0 0 0 25 37a41.9 41.9 0 0 0-2 .063v-5.657l-.5-.281-5.094-2.906A2.754 2.754 0 0 1 16 25.812C16 24.255 17.227 23 18.781 23z"/></svg>