<svg xmlns="http://www.w3.org/2000/svg" viewBox="0 0 24 24"><path d="M5 4v2H4a2 2 0 0 0-2 2v3c0 .422.29.54.594.719.347.207.539.578.437.969l-1 3.75a1.015 1.015 0 0 0 .688 1.25l.969.28a1.015 1.015 0 0 0 1.25-.687l.78-2.781c2.657-.047 3.567-.43 3.75-2.5H11c0 .02 2.969-1.125 2.969-1.125C13.953 9.531 14 10 14 10h3.5v1.156c-.293.176-.5.477-.5.844v1c0 .55.45 1 1 1s1-.45 1-1v-1c0-.367-.207-.668-.5-.844V10h.5c.55 0 1-.45 1-1h2V7h-1V4h-1v2H8V4zm9 7.938l-2.875 1.156c.32 2.054 2.902 6.152 4.406 7.25.485.351 1.184.18 1.469-.344l.469-.875c.23-.422.164-.96-.219-1.25-.836-.633-3.11-4.156-3.25-5.875v-.063zM6.437 12H8.47c-.074 1.188-.453 1.453-2.469 1.5z"/></svg>