<svg xmlns="http://www.w3.org/2000/svg" viewBox="0 0 40 40"><path d="M3.398 32.309l8.707-8.707 4.293 4.293-8.71 8.707z" fill="#98ccfd"/><path d="M12.105 24.309l3.586 3.586-8 8-3.586-3.586 8-8m0-1.414l-9.414 9.414 5 5 9.414-9.414z" fill="#4788c7"/><path d="M13.785 26.215l-1.21-3.117L31.23 1.5h7.27v7.27L16.902 27.426z" fill="#dff0fe"/><path d="M38 2v6.543L16.8 26.852l-2.624-1.028-1.028-2.625L31.457 2H38m1-1h-8L12 23l1.402 3.598L17 28 39 9z" fill="#4788c7"/><path d="M16.805 26.852L38 8.539V2L14.176 25.824zM8.969 38.469c-.403 0-.778-.157-1.059-.438L1.97 32.09a1.502 1.502 0 0 1 0-2.121c.285-.281.66-.438 1.062-.438.403 0 .778.157 1.063.438l5.937 5.937c.281.285.438.66.438 1.063a1.498 1.498 0 0 1-1.5 1.5z" fill="#b6dcfe"/><path d="M3.031 30.031c.27 0 .52.106.707.293l5.938 5.938a.993.993 0 0 1 .293.707c0 .27-.106.52-.293.707a.993.993 0 0 1-.707.293.993.993 0 0 1-.707-.293l-5.938-5.938a.993.993 0 0 1-.293-.707c0-.27.106-.52.293-.707a.993.993 0 0 1 .707-.293m0-1a1.98 1.98 0 0 0-1.414.586 2.006 2.006 0 0 0 0 2.828l5.938 5.938c.39.39.902.586 1.414.586a1.98 1.98 0 0 0 1.414-.586 2.006 2.006 0 0 0 0-2.828l-5.938-5.938a1.994 1.994 0 0 0-1.414-.586z" fill="#4788c7"/><path d="M18.95 32.445c-.403 0-.778-.152-1.063-.433l-9.899-9.903a1.507 1.507 0 0 1 0-2.12c.282-.282.66-.438 1.063-.438.402 0 .777.156 1.062.437l9.899 9.899a1.511 1.511 0 0 1 0 2.125c-.282.281-.66.433-1.063.433z" fill="#b6dcfe"/><path d="M9.05 20.055c.27 0 .52.101.708.289l9.898 9.898a.99.99 0 0 1 .29.707.989.989 0 0 1-.997.996.989.989 0 0 1-.707-.289l-9.898-9.898a.989.989 0 0 1-.29-.707.989.989 0 0 1 .997-.996m0-1c-.516 0-1.028.191-1.414.582a2.006 2.006 0 0 0 0 2.828l9.898 9.898c.39.39.902.582 1.414.582a1.99 1.99 0 0 0 1.414-.582 2.006 2.006 0 0 0 0-2.828l-9.898-9.898a1.99 1.99 0 0 0-1.414-.582z" fill="#4788c7"/></svg>