<svg xmlns="http://www.w3.org/2000/svg" viewBox="0 0 48 48"><path d="M32.73 38.094c-.199-.082-.582-.328-.878-.54a13.356 13.356 0 0 1-.934-.726 16.788 16.788 0 0 1-1.73-1.726c-.297-.34-.579-.7-.852-1.063C26.449 31.355 25 27.367 25 21c0-.555-.445-1-1-1-.555 0-1 .445-1 1 0 9.945 3.102 15.492 5.34 18.18.015.02.027.043.043.062.312.383.637.762.988 1.125.375.38.68.696 1.227 1.11l.16.12a2.024 2.024 0 0 0 3.094-.863 2.029 2.029 0 0 0-1.122-2.64z" fill="#2e7d32"/><path d="M14.234 30.734c4.079-.859 9.465-10.172 9.465-10.172s-8.687-6.343-12.765-5.484c-4.536.957-3.22 6.133-.059 8.192-2.059 3.16-1.176 8.421 3.36 7.464zm22.852-15.648c-4.074-.887-12.797 5.406-12.797 5.406s5.324 9.344 9.402 10.23c4.528.981 5.446-4.277 3.403-7.449 3.176-2.043 4.52-7.207-.008-8.187z" fill="#4caf50"/><path d="M16 9.64c0 4.172 8 11.141 8 11.141s8-6.968 8-11.14c0-4.633-5.332-4.414-8-1.746-2.668-2.668-8-2.887-8 1.746z" fill="#4caf50"/><path d="M28.969 26.688c-.54-.293-.98-.7-1.422-1.094a16.005 16.005 0 0 1-1.192-1.285 20.419 20.419 0 0 1-1.968-2.836l-.43-.743.66-.535a23.853 23.853 0 0 1 2.817-1.96 18.065 18.065 0 0 1 1.543-.81c.539-.234 1.082-.472 1.68-.597-1.427 1.902-3.032 3.473-4.774 4.91l.23-1.27a30.956 30.956 0 0 1 2.856 6.22z" fill="#388e3c"/><path d="M17.188 16.938c.62.058 1.19.269 1.753.476.547.23 1.09.473 1.598.762a19.713 19.713 0 0 1 2.898 1.953l.708.57-.497.754a28.215 28.215 0 0 1-2.07 2.758c-.765.871-1.566 1.723-2.547 2.445.297-1.18.754-2.25 1.25-3.297a28.148 28.148 0 0 1 1.696-2.996l.21 1.325a36.528 36.528 0 0 1-2.582-2.231c-.835-.789-1.605-1.621-2.418-2.52z" fill="#388e3c"/><path d="M29.02 14.98c-.368-.632-.77-1.23-1.188-1.812a28.128 28.128 0 0 0-2.773-3.227L24.004 8.88l-1.067 1.06c-1 .996-1.925 2.07-2.773 3.227-.418.578-.816 1.18-1.184 1.812-.074.13-.14.262-.21.391.242.316.488.625.738.926.168-.09.344-.18.512-.274.632-.367 1.234-.77 1.812-1.187A26.625 26.625 0 0 0 24 13.046a27.02 27.02 0 0 0 2.168 1.786c.582.422 1.18.82 1.812 1.188.168.093.344.183.512.277.25-.305.496-.61.735-.918l-.207-.399zm-12.247 1.915a22.633 22.633 0 0 0-1.527 1.535 27.58 27.58 0 0 0-2.59 3.379l-.816 1.253 1.254.82a26.74 26.74 0 0 0 3.73 2.048 20.34 20.34 0 0 0 2.02.789c.14.043.285.082.426.125.257-.301.507-.606.753-.914l-.375-.446a21.766 21.766 0 0 0-1.535-1.527 26.87 26.87 0 0 0-2.199-1.754c.469-.808.914-1.629 1.3-2.488.294-.656.56-1.32.79-2.02.055-.183.105-.37.16-.558a29.105 29.105 0 0 0-1.047-.528l-.344.286zm12.332 9.777a21.64 21.64 0 0 0 2.024-.774 27.811 27.811 0 0 0 3.742-2.023l1.262-.809-.813-1.261a27.456 27.456 0 0 0-2.562-3.399c-.48-.531-.98-1.05-1.524-1.543-.109-.097-.226-.191-.336-.289-.359.168-.71.344-1.062.528.055.183.105.37.16.558.223.695.488 1.367.774 2.024.382.863.824 1.687 1.289 2.496a26.78 26.78 0 0 0-2.204 1.742 20.24 20.24 0 0 0-1.546 1.52c-.125.144-.25.292-.375.44.238.31.484.61.738.911.144-.04.289-.078.433-.121z" fill="#81c784"/></svg>