<svg xmlns="http://www.w3.org/2000/svg" viewBox="0 0 24 24"><path d="M8.063 0a3.83 3.83 0 0 0-1.75.594C5.21 1.293 5 1.793 4.5 2.094c-.398.3-.992.207-2.094.906-1.101.7-2.312 2.313-1.312 3.813 2.3 3.699 7.394 4.48 8.594 5.28-1.2.5-5.18-.179-8.282 1.72-1 .601-2.113 2.074-.312 3.874.898.899 1.508.915 1.906 1.313.398.398.695 1.5 1.594 2.5.898.898 2.617 1.906 4.218.406 2.5-2.3 2.086-6.617 2.688-8.718 1.898.199 5.613 1.417 8.813.718 1.5-.3 2.187-1.894 1.687-3.094C21.602 9.614 20.793 9 20.594 8.5c-.2-.5-.008-1.113-.407-2.313-.5-1.199-1.875-2.98-3.875-1.78-3 1.8-4 5.3-5 6.5.301-1.7 1-6.7-1-10C9.813.28 8.992-.07 8.063 0zM12 14.188C14.898 19.585 21.512 23.8 22.313 24c.898.2 1.988-1.406 1.687-1.906-5.398-.899-12-7.907-12-7.907z"/></svg>