<svg xmlns="http://www.w3.org/2000/svg" viewBox="0 0 26 26"><path d="M10.031 0c-1.386 0-3.5.824-3.5 2.781 0 4.64 5.278 8.461 4.782 9.438-.497.976-4.547-2.938-8.626-2.938-1.359 0-3.164.758-2.562 3.375.309 1.352.879 1.696 1 2.281.121.583-.219 1.77.063 3.126.28 1.355 1.394 3.167 3.75 2.687 3.37-.684 5.738-5.434 7.187-6.281-.172 6.61 1.629 10.261 1.938 10.781.78 1.313 3.105.605 2.78.094-2.1-1.871-3.046-6.688-3.655-10.875 1.949.73 4.23 4.394 7.28 5.437 1.567.535 3.157-.488 3.438-1.843.285-1.356-.09-2.293.032-2.875.12-.583.687-.989.968-2.344.285-1.356.016-3.813-2.593-3.813-3.938 0-7.836 3.883-8.532 3.188-.695-.696 4.781-5.578 4.781-9.719 0-1.387-1.328-2.5-3.5-2.5-1.386 0-1.933.406-2.53.406-.598 0-1.114-.406-2.5-.406z"/></svg>