<svg xmlns="http://www.w3.org/2000/svg" viewBox="0 0 32 32"><path d="M6.77 3.355L5.355 4.77l2.196 2.195L8.965 5.55zm18.523 0l-2.352 2.348 1.418 1.414 2.348-2.347zM18.003 5c-3.554-.012-6.335.836-8.23 2.578C7.883 9.316 7 11.871 7 14.895v.757c-.605.598-1 1.36-1 2.211 0 1.356.953 2.317 2.148 2.762.668 2.195 1.032 3.742 2.524 5.758l.02.027.023.027C12.148 28.113 14.066 29 16 29c1.934 0 3.852-.887 5.285-2.563l.024-.027.02-.027c1.487-2.016 1.855-3.563 2.519-5.758C25.047 20.18 26 19.215 26 17.863c0-.851-.395-1.613-1-2.21v-.758c0-2.766-.512-4.735-1.605-6.063-.938-1.145-2.297-1.59-3.72-1.715L18.622 5zm-.581 2.074l.598 1.2c.003.046.011.117.011.14-.008.89-.18 1.016-.578 1.223-.394.207-1.172.32-2.062.422-.887.101-1.895.187-2.817.75C11.652 11.37 11 12.516 11 14h2c0-1.016.223-1.246.613-1.484.39-.235 1.137-.371 2-.47.867-.097 1.848-.155 2.774-.64.773-.406 1.394-1.246 1.582-2.328.8.129 1.406.442 1.886 1.027.657.797 1.145 2.278 1.145 4.79v1.683l.504.293c.191.106.496.625.496.992 0 .414-.656 1.106-1.078 1.14l-.676.056-.2.644c-.769 2.465-.956 3.617-2.304 5.453C18.652 26.418 17.32 27 16 27c-1.32 0-2.656-.582-3.746-1.844-1.348-1.836-1.531-2.988-2.3-5.453l-.2-.644-.676-.055C8.656 18.969 8 18.274 8 17.864c0-.368.305-.887.496-.993L9 16.578v-1.683c0-2.645.719-4.551 2.129-5.848 1.312-1.203 3.414-1.883 6.293-1.973zm-14.106.977l-.632 1.898 2.836.946.632-1.899zm25.43 0L25.906 9l.63 1.895 2.843-.946zM2 13v2h3v-2zm25 0v2h3v-2zm-14 4c-.55 0-1 .45-1 1s.45 1 1 1 1-.45 1-1-.45-1-1-1zm6 0c-.55 0-1 .45-1 1s.45 1 1 1 1-.45 1-1-.45-1-1-1zm-5 5a1.999 1.999 0 1 0 4 0z"/></svg>