<svg xmlns="http://www.w3.org/2000/svg" viewBox="0 0 50 50"><path d="M40.723 1.95a.938.938 0 0 0-.625.448l-2 3c-.297.5-.196 1.102.304 1.403.2.101.399.199.598.199.3 0 .602-.2.8-.5l2-3c.302-.5.2-1.102-.3-1.398a1.085 1.085 0 0 0-.777-.153zm-31.547.09c-.25-.04-.528.01-.778.16-.398.3-.5.902-.199 1.402l2 3c.2.199.5.398.801.398a.76.76 0 0 0 .5-.2c.5-.3.602-.902.3-1.402l-2-3a.935.935 0 0 0-.624-.359zM26.098 4c-.297 0-7.5-.398-12.5 4.3C10.5 11.2 9 15.3 9 20.5v5.098c-.398.601-1 1.703-1 3.5 0 2.902 2.5 4.304 3.598 4.804C12.5 36.301 16.699 47 25 47c8.3 0 12.5-10.7 13.402-13.098C39.5 33.402 42 32 42 29.098c0-1.797-.602-3-1-3.5V20.5c0-1.5-.102-2.8-.3-4v-.098C38.097 7.398 31.601 6.398 28.5 6l-2-2zM25.5 6l2.098 2h.304c4.399.5 8.797 1.898 10.797 8.902.2 1 .301 2.297.301 3.598v5.902l.3.297s.7.801.7 2.399c0 2.101-2.7 3-2.7 3l-.5.203-.202.5C36.598 32.902 32.699 45 25 45c-7.602 0-11.598-12.098-11.598-12.2l-.203-.5-.5-.202s-2.699-.899-2.699-3c0-1.598.7-2.399.7-2.399l.3-.297V20.5c0-4.602 1.398-8.2 4-10.7C18.7 6.3 24 6 25.5 6zM3.016 7.938a1.075 1.075 0 0 0-.914.664c-.204.5 0 1.097.5 1.296l5 2.004C7.8 12 7.898 12 8 12c.398 0 .8-.2 1-.7.2-.5-.102-1.1-.602-1.3l-5-2a.869.869 0 0 0-.382-.063zm44.07.085c-.129 0-.262.028-.387.079l-5 1.996c-.601.203-.8.804-.601 1.304.101.399.504.598.902.598h.402l5-2c.598-.2.797-.8.598-1.3a.946.946 0 0 0-.914-.677zM28 13.098c-.3 0-.602.203-.8.402-4.2 5-13.2 5.598-13.298 5.598-.402 0-.8.304-.902.804l-1 6c-.102.598.3 1.098.8 1.196A1.033 1.033 0 0 0 14 26.3l.902-5.3c2.297-.2 8.899-1.3 13-5.3 2.399 3.1 5.797 4.702 7.196 5.202L36 26.301c.102.5.5.797 1 .797.102 0 .098 0 .098.101.5-.101.902-.699.804-1.199l-1-6c-.101-.398-.304-.7-.703-.8 0 0-4.898-1.602-7.398-5.602-.2-.297-.5-.5-.801-.5zM3 16c-.602 0-1 .398-1 1s.398 1 1 1h4c.602 0 1-.398 1-1s-.398-1-1-1zm40 0c-.602 0-1 .398-1 1s.398 1 1 1h4c.602 0 1-.398 1-1s-.398-1-1-1zm-23 7c-1.398 0-2.8.598-3.8 1.7-.4.398-.298 1 .1 1.398.2.101.5.203.7.203.3 0 .602-.102.8-.301.5-.7 1.4-1.098 2.2-1.098.5 0 1 .098 1.5.399.5.3 1 .101 1.3-.399.302-.5.102-1.101-.398-1.304C21.7 23.199 20.801 23 20 23zm10.129.121a5.729 5.729 0 0 0-2.629.578c-.398.2-.602.801-.402 1.301.203.398.804.602 1.304.402 1.5-.703 2.996-.402 3.797.598.2.3.5.402.801.402.2 0 .398-.101.5-.101.5-.301.5-1 .2-1.399-.813-1.125-2.134-1.746-3.571-1.78zM20 27c-1.102 0-2 .898-2 2 0 .398.102.7.3 1h3.4c.198-.3.3-.602.3-1 0-1.102-.898-2-2-2zm10 0c-1.102 0-2 .898-2 2 0 .398.102.7.3 1h3.4c.198-.3.3-.602.3-1 0-1.102-.898-2-2-2zm-11 7v1c0 3.398 2.602 6 6 6s6-2.602 6-6v-1zm2.098 2h7.804c-.5 1.7-2.004 3-3.902 3-1.898 0-3.5-1.3-3.902-3z"/></svg>