<svg xmlns="http://www.w3.org/2000/svg" viewBox="0 0 80 80"><path d="M9 10v18h18V10zm36 0v18h18V10zm-34 2h14v9.219l-3.375-2.77-3.297 2.54-3.918-3.227-3.41 2.23zm36 0h14v14H47zm-25.5 2a1.5 1.5 0 1 0 0 3 1.5 1.5 0 0 0 0-3zm37 0a1.5 1.5 0 1 0 0 3 1.5 1.5 0 0 0 0-3zm-6 1a3.514 3.514 0 0 0-3.5 3.5c0 .14.043.242.059.371C48.457 19.418 48 20.125 48 21c0 1.645 1.355 3 3 3h5c1.645 0 3-1.355 3-3 0-1.082-.633-1.977-1.5-2.5-.43-.707-1.121-1.168-1.957-1.336C54.993 15.945 53.914 15 52.5 15zm0 2c.738 0 1.332.52 1.469 1.203l.16.8h.82c.215 0 .23-.003.051-.003.414 0 .75.242.906.59l.157.348.347.156c.348.156.59.492.59.906 0 .566-.434 1-1 1h-5c-.566 0-1-.434-1-1a.98.98 0 0 1 .563-.89l.753-.376-.242-.808A1.457 1.457 0 0 1 51 18.5c0-.84.66-1.5 1.5-1.5zM31 18c-.55 0-1 .45-1 1s.45 1 1 1 1-.45 1-1-.45-1-1-1zm4 0c-.55 0-1 .45-1 1s.45 1 1 1 1-.45 1-1-.45-1-1-1zm32 0c-.55 0-1 .45-1 1s.45 1 1 1 1-.45 1-1-.45-1-1-1zm4 0c-.55 0-1 .45-1 1s.45 1 1 1 1-.45 1-1-.45-1-1-1zm-56.727 2.238l4.008 3.309 3.305-2.543L25 23.809V26H11v-3.621zM9 31v18h18V31zm36 0v18h18V31zm-34 2h14v14H11zm36 0h14v9.219l-3.375-2.77-3.297 2.54-3.918-3.227-3.41 2.23zm-29 2a2 2 0 0 0-2 2c0 .094.031.207.059.316a1.45 1.45 0 0 0-.293-.144 2 2 0 0 0-1.239 3.8c.09.032.196.048.309.055a1.457 1.457 0 0 0-.219.223 2.003 2.003 0 0 0 3.238 2.355c.055-.078.098-.175.145-.277.043.102.09.2.145.277a2 2 0 1 0 3.234-2.355 1.295 1.295 0 0 0-.219-.223c.113-.007.223-.023.309-.054a1.994 1.994 0 0 0 1.285-2.52 2.001 2.001 0 0 0-2.52-1.281 1.45 1.45 0 0 0-.293.144c.028-.109.059-.222.059-.316a2 2 0 0 0-2-2zm39.5 0a1.5 1.5 0 1 0 0 3 1.5 1.5 0 0 0 0-3zM18 38a1.999 1.999 0 1 1 0 4 1.999 1.999 0 1 1 0-4zm13 1c-.55 0-1 .45-1 1s.45 1 1 1 1-.45 1-1-.45-1-1-1zm4 0c-.55 0-1 .45-1 1s.45 1 1 1 1-.45 1-1-.45-1-1-1zm32 0c-.55 0-1 .45-1 1s.45 1 1 1 1-.45 1-1-.45-1-1-1zm4 0c-.55 0-1 .45-1 1s.45 1 1 1 1-.45 1-1-.45-1-1-1zm-20.727 2.238l4.008 3.309 3.305-2.543L61 44.809V47H47v-3.621zM9 52v18h18V52zm36 0v18h18V52zm-34 2h14v14H11zm36 0h14v14H47zm-29 1c-.55 0-1 .45-1 1s.45 1 1 1 1-.45 1-1-.45-1-1-1zm36 1a2 2 0 0 0-2 2c0 .094.031.207.059.316a1.45 1.45 0 0 0-.293-.144 2 2 0 0 0-1.239 3.8c.09.032.196.048.309.055a1.457 1.457 0 0 0-.219.223 2.003 2.003 0 0 0 3.238 2.355c.055-.078.098-.175.145-.277.043.102.09.2.145.277a2 2 0 1 0 3.234-2.355 1.295 1.295 0 0 0-.219-.223c.113-.007.223-.023.309-.054a1.994 1.994 0 0 0 1.285-2.52 2.001 2.001 0 0 0-2.52-1.281 1.45 1.45 0 0 0-.293.144c.028-.109.059-.222.059-.316a2 2 0 0 0-2-2zm-32.453.465a1.006 1.006 0 0 0-.719.289c-.39.39-.39 1.027 0 1.418.39.387 1.024.387 1.414 0 .39-.39.39-1.027 0-1.418a.985.985 0 0 0-.695-.29zm-7.067 0a1.006 1.006 0 0 0-.726.293 1.007 1.007 0 0 0 0 1.414c.39.39 1.027.39 1.418 0a1.007 1.007 0 0 0 0-1.414 1.01 1.01 0 0 0-.692-.293zM18 58c-1.645 0-3 1.355-3 3s1.355 3 3 3 3-1.355 3-3-1.355-3-3-3zm36 1a1.999 1.999 0 1 1 0 4 1.999 1.999 0 1 1 0-4zm-41 1c-.55 0-1 .45-1 1s.45 1 1 1 1-.45 1-1-.45-1-1-1zm5 0c.563 0 1 .438 1 1 0 .563-.438 1-1 1-.563 0-1-.438-1-1 0-.563.438-1 1-1zm5 0c-.55 0-1 .45-1 1s.45 1 1 1 1-.45 1-1-.45-1-1-1zm8 0c-.55 0-1 .45-1 1s.45 1 1 1 1-.45 1-1-.45-1-1-1zm4 0c-.55 0-1 .45-1 1s.45 1 1 1 1-.45 1-1-.45-1-1-1zm32 0c-.55 0-1 .45-1 1s.45 1 1 1 1-.45 1-1-.45-1-1-1zm4 0c-.55 0-1 .45-1 1s.45 1 1 1 1-.45 1-1-.45-1-1-1zm-56.52 3.535a1 1 0 1 0 .691.293 1.003 1.003 0 0 0-.69-.293zm7.07 0a1 1 0 1 0 .691.293.996.996 0 0 0-.69-.293zM18 65c-.55 0-1 .45-1 1s.45 1 1 1 1-.45 1-1-.45-1-1-1z"/></svg>