<svg xmlns="http://www.w3.org/2000/svg" viewBox="0 0 40 40"><path d="M20 38.5c-1.406 0-2.242-.86-2.5-1.168V11h5v26.332A3.26 3.26 0 0 1 20 38.5z" fill="#dff0fe"/><path d="M22 11.5v25.64a2.754 2.754 0 0 1-4 0V11.5h4m1-1h-6v27s1.008 1.5 3 1.5 3-1.5 3-1.5z" fill="#4788c7"/><path d="M20 15.492c-.785-.25-4.5-3.68-4.5-6.992 0-4.555 3.875-6.914 4.52-7 .605.086 4.48 2.445 4.48 7 0 3.3-3.715 6.738-4.5 6.992z" fill="#dff0fe"/><path d="M20 2.027c.914.36 4 2.618 4 6.473 0 2.77-2.96 5.805-4.004 6.434C18.957 14.309 16 11.285 16 8.5c0-3.855 3.086-6.113 4-6.473M20 1c-.668 0-5 2.547-5 7.5 0 3.703 4.23 7.5 5 7.5.77 0 5-3.848 5-7.5C25 3.547 20.668 1 20 1z" fill="#4788c7"/><path d="M23.691 5.457s-1.136 4.363-6.32 7.387m4.395-9.86s-.926 3.813-5.907 6.422m1.579-5.664s.687 1.578 2.37 2.61m-1.683 1.546s.93 1.614 2.2 2.368m.445-5.153s.859 1.41 1.855 2.098m-1.098 1.922s.754 1.719 1.684 2.437" fill="none" stroke="#4788c7" stroke-miterlimit="10"/><path d="M32 38.5c-1.406 0-2.242-.86-2.5-1.168V14h5v23.332A3.26 3.26 0 0 1 32 38.5z" fill="#dff0fe"/><path d="M34 14.5v22.64a2.754 2.754 0 0 1-4 0V14.5h4m1-1h-6v24s1.008 1.5 3 1.5 3-1.5 3-1.5z" fill="#4788c7"/><path d="M32 18.492c-.785-.25-4.5-3.68-4.5-6.992 0-4.555 3.875-6.914 4.52-7 .605.086 4.48 2.445 4.48 7 0 3.3-3.715 6.738-4.5 6.992z" fill="#dff0fe"/><path d="M32 5.027c.914.36 4 2.618 4 6.473 0 2.77-2.96 5.805-4.004 6.434C30.957 17.309 28 14.285 28 11.5c0-3.855 3.086-6.113 4-6.473M32 4c-.668 0-5 2.547-5 7.5 0 3.703 4.23 7.5 5 7.5.77 0 5-3.848 5-7.5C37 6.547 32.668 4 32 4z" fill="#4788c7"/><path d="M35.691 8.457s-1.136 4.363-6.32 7.387m4.395-9.86s-.926 3.813-5.907 6.422m1.579-5.664s.687 1.578 2.37 2.61m-1.683 1.546s.93 1.614 2.2 2.368m.445-5.153s.859 1.41 1.855 2.098m-1.098 1.922s.754 1.719 1.684 2.437" fill="none" stroke="#4788c7" stroke-miterlimit="10"/><path d="M8 38.5c-1.406 0-2.242-.86-2.5-1.168V14h5v23.332A3.26 3.26 0 0 1 8 38.5z" fill="#dff0fe"/><path d="M10 14.5v22.64a2.754 2.754 0 0 1-4 0V14.5h4m1-1H5v24S6.008 39 8 39s3-1.5 3-1.5z" fill="#4788c7"/><path d="M8 18.492c-.785-.25-4.5-3.68-4.5-6.992 0-4.555 3.875-6.914 4.52-7 .605.086 4.48 2.445 4.48 7 0 3.3-3.715 6.738-4.5 6.992z" fill="#dff0fe"/><path d="M8 5.027c.914.36 4 2.618 4 6.473 0 2.77-2.96 5.805-4.004 6.434C6.957 17.309 4 14.285 4 11.5c0-3.855 3.086-6.113 4-6.473M8 4c-.668 0-5 2.547-5 7.5C3 15.203 7.23 19 8 19c.77 0 5-3.848 5-7.5C13 6.547 8.668 4 8 4z" fill="#4788c7"/><path d="M11.691 8.457s-1.136 4.363-6.32 7.387m4.395-9.86s-.926 3.813-5.907 6.422m1.579-5.664s.687 1.578 2.37 2.61m-1.683 1.546s.93 1.614 2.2 2.368m.445-5.153s.859 1.41 1.855 2.098m-1.098 1.922s.754 1.719 1.684 2.437" fill="none" stroke="#4788c7" stroke-miterlimit="10"/></svg>