<svg xmlns="http://www.w3.org/2000/svg" viewBox="0 0 40 40"><path d="M24.5.5s-2.152 1.82-1.594 5.05" fill="none" stroke-linecap="round" stroke="#4788c7" stroke-miterlimit="10"/><path d="M20 38.5c-7.695 0-13.5-5.16-13.5-12 0-13.914 9.695-25 13.5-25 1.453 0 1.863.418 2.34.898.508.516 1.086 1.102 2.66 1.102 3.277 0 4.5 4.586 4.5 7.477 0 3.488 1.027 5.675 2.023 7.789 1.016 2.164 1.977 4.207 1.977 7.648 0 6.89-5.805 12.086-13.5 12.086z" fill="#98ccfd"/><path d="M20 2c1.242 0 1.54.3 1.984.75C22.504 3.277 23.214 4 25 4c2.914 0 4 4.281 4 6.977 0 3.597 1.05 5.835 2.07 8 .992 2.113 1.93 4.109 1.93 7.437C33 33.02 27.41 38 20 38S7 33.055 7 26.5C7 13.129 16.438 2 20 2m0-1C15.578 1 6 12.832 6 26.5 6 33.465 11.91 39 20 39s14-5.621 14-12.586c0-7.047-4-8.629-4-15.437C30 7.492 28.512 3 25 3c-2.824 0-1.781-2-5-2z" fill="#4788c7"/><path d="M20 35c-6.207 0-9-3.957-9-8.82 0-13.344 10.02-20.75 10.957-15.457C23.012 16.703 29 17.145 29 26.18c0 4.863-2.793 8.82-9 8.82z" fill="#dff0fe"/><path d="M20 31.5c-2.055 0-4.5-.781-4.5-4.496 0-3.426 3.434-7.504 4.5-7.504 1.066 0 4.5 4.078 4.5 7.504 0 3.715-2.445 4.496-4.5 4.496z" fill="#98ccfd"/><path d="M20 20.004c.898.18 4 3.8 4 7C24 29.69 22.691 31 20 31s-4-1.309-4-3.996c0-3.2 3.102-6.82 4-7M20 19c-1.5 0-5 4.43-5 8.004S17.125 32 20 32s5-1.422 5-4.996C25 23.43 21.5 19 20 19z" fill="#4788c7"/></svg>