<svg xmlns="http://www.w3.org/2000/svg" viewBox="0 0 40 40"><path d="M4.548 38.504c-.771 0-1.397-.253-1.916-.775-3.301-3.321.524-8.265 13.694-21.436C26.97 5.65 32.357 1.504 35.543 1.504c.835 0 1.513.29 2.133.914 2.637 2.653-.89 8.242-12.581 19.933-9.458 9.458-16.469 16.153-20.547 16.153z" fill="#f5ce85"/><path d="M35.544 2.004c.693 0 1.258.243 1.777.766 2.322 2.337-1.44 8.087-12.58 19.227C17.238 29.5 8.735 38.004 4.548 38.004c-.639 0-1.135-.199-1.56-.628-2.588-2.605-.909-6.128 13.693-20.73C27.08 6.247 32.545 2.005 35.544 2.004m-.001-1c-3.444.001-9.081 4.447-19.57 14.936C2.981 28.932-1.437 34.343 2.279 38.081c.626.63 1.386.923 2.27.923 4.366 0 11.755-7.155 20.9-16.3C36.672 11.481 41.126 5.181 38.03 2.065c-.69-.695-1.498-1.061-2.487-1.061z" fill="#967a44"/><path d="M25.61 10.708c-.484.794-.107 2.558 1.744 2.991 1.45.339 2.956-.334 3.817-1.195l-5.561-1.796zm-8.117 8.118c-.484.794-.107 2.558 1.744 2.991 1.45.339 2.956-.334 3.817-1.195l-5.561-1.796zm-8.118 8.118c-.484.794-.107 2.558 1.744 2.991 1.45.339 2.956-.334 3.817-1.195l-5.561-1.796z" fill="#967a44"/></svg>