<svg xmlns="http://www.w3.org/2000/svg" viewBox="0 0 50 50"><path d="M46.648 3.34c-.898-.899-1.886-1.352-3.02-1.352-1.73 0-3.827 1-7.3 3.832-3.476 2.82-8.34 7.48-15.598 14.782C2.922 38.532-.79 42.262 3.59 46.66c.879.88 1.91 1.328 3.082 1.328 4.36 0 10.527-6.207 24.058-19.816C46.7 12.102 50.48 7.199 46.648 3.34zm-31.68 32.512c-1.796-.204-2-1.75-1-2.75l5 1c-1 1-2.198 1.949-4 1.75zm9-9c-1.796-.204-2-1.75-1-2.75l5 1c-1 1-2.198 1.949-4 1.75zm9-9c-1.796-.204-2-1.75-1-2.75l5 1c-1 1-2.198 1.949-4 1.75z"/></svg>