<svg xmlns="http://www.w3.org/2000/svg" viewBox="0 0 48 48"><path d="M35 11c1 0 7-1 7 8S29 44 11 44c-2 0-4-1-4-1l-1-3s1-4 7-7 10.262-5.516 12.813-8.063C27.813 22.938 31 19 31 16c0-1.957 2-4 2-4" fill="#ffe082"/><path d="M8 41s7-2 13-5 19-12 15-25c0 0 6-1 6 8S29 44 11 44c-2 0-4-1-4-1z" fill="#ffca28"/><path d="M41.063 13.938C39.187 9.918 35 12 35 4c-3 0-5 2-5 2s3 3 3 6c2 0 3.613-.156 3.79 4.75 1.355-5.73 4.273-2.813 4.273-2.813z" fill="#c0ca33"/><path d="M31 16s-.063-1.813 2-4c2.063-2.188 4.031-.406 4.031-.406l-.242 5.156s-.875-3.25-2.25-3.332C31.641 13.242 31 16 31 16z" fill="#c0ca33"/><path d="M6 41l1 2h1v-2l-2-1z" fill="#5d4037"/><path d="M35 4c-3 0-5 2-5 2h3z" fill="#827717"/></svg>