<svg xmlns="http://www.w3.org/2000/svg" viewBox="0 0 24 24"><path d="M20.531 2.46c-.668.509-1.12.99-1.383 1.548-.023.054-.003.11-.023.164l-.023-.024c-.16.352-.266.461-.329.516-.062.055-.12.102-.351.188-.461.175-1.328.503-2.555 1.617-.949.86-1.57 2.086-2.297 3.304-.726 1.22-1.523 2.442-2.648 3.305-1.29.992-2.434 1.379-3.516 1.735-1.082.355-2.172.66-3.093 1.523-.313.293-.508.629-.75.984-.243.356-.446.657-.446.657L3 18.164v1.172l.258.234C3.68 19.945 4.922 21 6.82 21 17.098 21 21 14.2 21 10.148c0-2.378-.453-3.808-.563-4.64-.054-.418-.039-.633.07-.867.11-.235.368-.551.938-.985zm-1.5 3.75c.176.978.469 2.06.469 3.938 0 3.07-3.063 9.352-12.68 9.352-.867 0-1.48-.27-1.922-.563 5.883-.226 11.696-4.03 13.172-9.445l-.726-.187c-1.375 5.047-6.957 8.707-12.563 8.883.008-.012.012-.008.024-.024.226-.332.566-.754.539-.727.613-.574 1.422-.832 2.531-1.195 1.11-.363 2.484-.86 3.96-1.992 1.38-1.059 2.274-2.441 3.024-3.703s1.38-2.402 2.016-2.977c1.098-.996 1.602-1.129 2.086-1.312.023-.008.047-.04.07-.047z"/></svg>