<svg xmlns="http://www.w3.org/2000/svg" viewBox="0 0 32 32"><path d="M15 4v2.531a6.23 6.23 0 0 0-2.75-1.5l-.5 1.938a4.217 4.217 0 0 1 2.406 1.625A6.013 6.013 0 0 1 17 4.813V4zm5 1c-2.746 0-5 2.25-5 5v1.719C13.965 10.684 12.582 10 11 10c-3.3 0-6 2.7-6 6 0 1.492.64 2.734 1.531 3.656.89.922 2.004 1.598 3.125 2.25 2.242 1.305 4.465 2.504 5.344 4.5V28h2v-1.563l.031-.062c.832-2.078 2.996-3.23 5.25-4.5 1.125-.633 2.254-1.305 3.157-2.219C26.34 18.742 27 17.508 27 16c0-3.3-2.7-6-6-6-1.582 0-2.965.684-4 1.719V10c0-1.668 1.336-3 3-3 .758 0 1.531.375 1.531.375l.938-1.75S21.379 5 20 5zm-9 7c1.648 0 3.04.996 3.656 2.406l.281.594h2.126l.28-.594C17.962 12.996 19.353 12 21 12c2.219 0 4 1.781 4 4 0 .98-.328 1.602-.969 2.25-.64.648-1.62 1.258-2.718 1.875-1.81 1.02-3.973 2.168-5.344 4.156-1.403-1.918-3.524-3.054-5.313-4.093-1.09-.633-2.05-1.247-2.687-1.907C7.332 17.621 7 16.965 7 16c0-2.219 1.777-4 4-4z"/></svg>