<svg xmlns="http://www.w3.org/2000/svg" viewBox="0 0 48 48"><path d="M45 20c0 11.2-7.8 21-21 21S3 31.2 3 20C3 6.7 15.8 7 16 7c1.398 0 1.602 5 .2 5-1.2 0-7.2.898-7.2 8 0 8.898 8.7 14 15 14 6.3 0 15-5.102 15-14 0-7-5.8-8-7.102-8h-.5c-1.296 0-4.699.102-6.699 1.898-1.097 1-1.597 2.301-1.597 4.102 0 1.3.398 2.398 1 3.3-.403 1-1.903 2.302-3 2.802 0 0-2-1.801-2-6.102C19 7.102 31.602 7 32 7c.2 0 13-.3 13 13zm-9.7 7c-.1 0-4.698-.7-8.3-2.898-.8 1.097-1.898 2-3 2.796 4.102 3.204 10.3 4 10.7 4.102h.3c1 0 1.8-.7 2-1.7.102-1.1-.602-2.1-1.7-2.3z" fill="#e64a19"/><path d="M31.898 12C33.2 12 39 13 39 20c0 8.898-8.7 14-15 14-3 0-6.5-1.102-9.3-3.3C18.601 29.897 29 26.897 29 18c0-2.3-.602-4.2-1.5-5.602-1.398 0-3.3 1.704-3.5 2.204.7.898 1 2 1 3.5 0 7.199-12.2 9-12.3 9-.5.097-.9.296-1.2.597C10 25.5 9 23 9 20c0-7.102 6-8 7.2-8h.5c.8 0 2.198 0 3.698.398 0 0 0-.097.102-.097.2-.301 1.7-2.301 3.3-3.102.098 0 .098-.097.098-.097C21 7.5 17.801 7.102 16.5 7 14.602 7.102 6 8.102 6 20c0 5.7 4.8 17 18 17s17-11 17-16c0-8.2-6.7-9-9.102-9z" fill="#bf360c"/><path d="M41 27c.602 0 1 .398 1 1s-.398 1-1 1-1-.398-1-1 .398-1 1-1zm-8 7c.602 0 1 .398 1 1s-.398 1-1 1-1-.398-1-1 .398-1 1-1zm-5 2c.602 0 1 .398 1 1s-.398 1-1 1-1-.398-1-1 .398-1 1-1zm-11-2c.602 0 1 .398 1 1s-.398 1-1 1-1-.398-1-1 .398-1 1-1zm-4 0c.602 0 1 .398 1 1s-.398 1-1 1-1-.398-1-1 .398-1 1-1zM7.3 20.2c.598 0 1 .402 1 1 0 .6-.402 1-1 1-.6 0-1-.4-1-1 0-.598.5-1 1-1zM7 25c.602 0 1 .398 1 1s-.398 1-1 1-1-.398-1-1 .398-1 1-1zm34-2c.602 0 1 .398 1 1s-.398 1-1 1-1-.398-1-1 .398-1 1-1zm1.7-3.398c.6 0 1 .398 1 1 0 .597-.4 1-1 1-.598 0-1-.403-1-1 0-.602.402-1 1-1z" fill="#ffe0b2"/></svg>