<svg xmlns="http://www.w3.org/2000/svg" viewBox="0 0 40 40"><path d="M20 36.5c-8.969 0-18.5-6.836-18.5-19.5C1.5 11.363 5.875 3.5 13 3.5c1.633 0 6.96.367 9.938 4.887h-.329c-1.62 0-3.675.218-4.789 1.207-.68-.52-2.23-1.426-4.691-1.426C9.457 8.168 6.5 12.453 6.5 16c0 7.168 6.055 13 13.5 13 7.957 0 13.5-6.852 13.5-13 0-4.922-1.91-7.313-6-7.488v-5c5.914.308 11 6.011 11 12.488 0 14.086-9.59 20.5-18.5 20.5z" fill="#dff0fe"/><path d="M13 4c1.465 0 6.047.309 8.957 3.895-1.848.07-3.238.43-4.156 1.074-.856-.563-2.41-1.301-4.672-1.301C9.113 7.668 6 12.145 6 16c0 7.445 6.281 13.5 14 13.5 8.25 0 14-7.113 14-13.5 0-4.988-1.965-7.602-6-7.957V4.059c4.918.578 10 5.32 10 11.941 0 13.742-9.332 20-18 20-8.727 0-18-6.66-18-19C2 11.57 6.184 4 13 4m14-1v6c4.336 0 6 2.418 6 7 0 5.988-5.422 12.5-13 12.5S7 22.605 7 16c0-3.492 2.879-7.332 6.129-7.332 3.187 0 4.734 1.617 4.734 1.617.871-1.203 3.266-1.398 4.746-1.398.727 0 1.235.047 1.235.047C21.114 3.89 15.664 3 13 3 5.543 3 1 11.09 1 17c0 12.742 9.39 20 19 20s19-7.027 19-21c0-7.25-5.941-13-12-13z" fill="#4788c7"/><path d="M37 21.5c0 .277-.223.5-.5.5a.498.498 0 0 1-.5-.5.499.499 0 1 1 1 0zm-2 4c0 .277-.223.5-.5.5a.498.498 0 0 1-.5-.5.499.499 0 1 1 1 0zm-4 5c0 .277-.223.5-.5.5a.498.498 0 0 1-.5-.5.499.499 0 1 1 1 0zm-4 0c0 .277-.223.5-.5.5a.498.498 0 0 1-.5-.5.499.499 0 1 1 1 0zm-5 4c0 .277-.223.5-.5.5a.498.498 0 0 1-.5-.5.499.499 0 1 1 1 0zm-6-2c0 .277-.223.5-.5.5a.498.498 0 0 1-.5-.5.499.499 0 1 1 1 0zm-5-3c0 .277-.223.5-.5.5a.498.498 0 0 1-.5-.5.499.499 0 1 1 1 0zm-4-5c0 .277-.223.5-.5.5a.498.498 0 0 1-.5-.5.499.499 0 1 1 1 0zm-3-4c0 .277-.223.5-.5.5a.498.498 0 0 1-.5-.5.499.499 0 1 1 1 0z" fill="#98ccfd"/><path d="M16.695 22.36C15.012 20.52 13.5 17.09 13.5 15c0-7.059 4.848-11.328 13-11.496v5.008c-3.68.148-9 1.96-9 6.488 0 1.438 1.023 3.617 2.133 4.707z" fill="#dff0fe"/><path d="M26 4.02v4.02c-3.84.296-9 2.28-9 6.96 0 1.41.871 3.418 1.926 4.672l-2.184 1.973C15.282 19.832 14 16.816 14 15c0-6.602 4.465-10.652 12-10.98M27 3C16.95 3 13 8.766 13 15c0 2.395 1.824 6.281 3.676 8.055l3.719-3.364C19.277 18.957 18 16.481 18 15c0-4.543 5.836-6 9-6z" fill="#4788c7"/><path d="M25.215 4.074s1.68-.32 3.832.176c-.016.55-.277 3.871-.277 3.871s-1.625-.25-3.383-.027c-.164-.531-.172-4.02-.172-4.02zm2.023 24.352c-.61 0-1.25-.106-1.754-.293-2.644-.985-5.168-2.477-7.507-4.438 1.351-.851 2.668-1.91 3.273-2.41 2.719 2.465 5.012 3.004 6.547 3.367.215.051.41.098.59.145a2.101 2.101 0 0 1 1.32 1.148c.14.332.246.852-.059 1.442-.484.937-1.847 1.039-2.41 1.039z" fill="#dff0fe"/><path d="M21.238 21.941c2.684 2.313 5.008 2.86 6.446 3.2.207.047.398.093.554.136.446.125.832.457 1.008.868.145.335.133.675-.043 1.011-.367.715-1.598.77-1.965.77-.554 0-1.133-.094-1.582-.262-2.394-.89-4.687-2.21-6.836-3.926a34.95 34.95 0 0 0 2.418-1.797m.028-1.324s-2.168 1.871-4.141 3.004c3.254 2.863 6.246 4.258 8.184 4.98.539.2 1.234.325 1.93.325 1.171 0 2.359-.352 2.855-1.309.738-1.43-.246-2.922-1.578-3.305-1.48-.394-4.094-.69-7.25-3.695z" fill="#4788c7"/><path d="M11.414 27.012c-.98 0-1.691-.364-2.23-1.14a2.097 2.097 0 0 1-.29-1.837 2.393 2.393 0 0 1 1.391-1.515c.246-.102.66-.22 1.18-.368C14.395 21.316 20.5 19.57 20.5 15c0-1.473-.563-2.934-1.195-3.89.64-.52 2.156-1.622 4.023-2.063.55.723 2.172 3.098 2.172 5.953 0 8.55-12.453 11.762-12.578 11.793-.594.148-1.074.219-1.508.219z" fill="#dff0fe"/><path d="M23.125 9.617C23.758 10.507 25 12.578 25 15c0 8.164-12.078 11.277-12.2 11.309-.554.136-.995.203-1.386.203-.816 0-1.375-.285-1.82-.922a1.613 1.613 0 0 1-.219-1.41c.16-.54.57-.989 1.094-1.196.21-.086.64-.207 1.133-.347C14.652 21.762 21 19.949 21 15c0-1.238-.398-2.652-1.035-3.77.668-.5 1.805-1.23 3.16-1.613m.402-1.125c-2.812.547-4.898 2.54-4.898 2.54C19.367 11.944 20 13.55 20 15c0 4.996-8.3 6.414-9.902 7.055-1.606.64-2.356 2.625-1.328 4.105.718 1.031 1.668 1.352 2.64 1.352.547 0 1.102-.102 1.633-.235C13.898 27.067 26 23.668 26 15c0-3.66-2.473-6.508-2.473-6.508z" fill="#4788c7"/></svg>