<svg xmlns="http://www.w3.org/2000/svg" viewBox="0 0 26 26"><path d="M9 0C6.254 0 4 2.254 4 5c0 .125.023.117.031.219C1.761 5.687 0 7.598 0 10c0 2.746 2.254 5 5 5 1.797 1.965 5 6.16 5 11h6c.95-5.832 3.637-9.45 5.031-11 2.73-.016 4.969-2.266 4.969-5 0-2.492-1.887-4.477-4.281-4.844C20.832 2.766 18.645 1 16 1c-1.133 0-2.156.387-3.063.938a5.069 5.069 0 0 0-2.78-1.782c-.145-.035-.29-.07-.438-.093C9.676.054 9.637.035 9.594.03c-.031-.004-.063.004-.094 0C9.332.016 9.172 0 9 0zm0 2c.148 0 .293.008.438.031.054.008.105.02.156.031.086.02.164.036.25.063.105.031.21.082.312.125.031.012.067.016.094.031.043.02.086.043.125.063.21.113.418.254.594.406.312.273.554.617.719.969l.062.156c.145.352.25.723.25 1.125 0 .867-.441 1.754-1.094 2.406l1.406 1.407C13.262 7.862 14 6.534 14 5c0-.469-.094-.91-.219-1.344A4.139 4.139 0 0 1 16 3c1.93 0 3.54 1.36 4.031 3.25L20.97 6v1H21a3 3 0 0 1 0 6 2.76 2.76 0 0 1-.406-.031A4.958 4.958 0 0 0 21 11h-2c0 .57-.16 1.11-.438 1.563l-.25.312a2.923 2.923 0 0 1-.437.469c-.008.004-.023-.004-.031 0-.11.09-.219.176-.344.25-.11.062-.227.105-.344.156-.14.059-.281.117-.437.156-.043.012-.082.024-.125.031-.188.036-.39.063-.594.063a3.2 3.2 0 0 1-1.75-.531L13.531 13l-.562.625C12.234 14.441 11.188 15 10 15c-1.387 0-2.566-.625-3.281-1.656l-.438-.625-.687.219C5.484 12.973 5.3 13 5 13a3 3 0 0 1 0-6h1.094V6c0-.523-.094-.766-.094-1a3 3 0 0 1 3-3zm5.063 13.438c.585.28 1.18.562 1.937.562.117 0 .23-.023.344-.031-.356.75-.82 1.969-1.438 4.031zm-2.344 1.25c-.086 1.171-.219 3.113-.219 4A76.811 76.811 0 0 0 9.719 17c.094.004.187 0 .281 0 .61 0 1.188-.129 1.719-.313z"/></svg>