<svg xmlns="http://www.w3.org/2000/svg" viewBox="0 0 40 40"><path d="M9.09 38.5a7.54 7.54 0 0 1-5.367-2.223c-2.957-2.957-2.957-7.77 0-10.73C5.836 23.437 20.199 10.383 24.5 6.559l-.773 4.46C20.605 13.759 6.867 25.942 6.785 28.4c-.012.3.113.492.223.601l.144.145.266.02c1.352 0 12.82-11.731 19.758-18.958l2.453 1.742C10.453 31.73 10.453 32.207 10.453 32.465c0 .242.094.398.172.488a.67.67 0 0 0 .508.219c2.02-.004 15.676-14.336 20.035-18.969l3.66-.394C31.078 18.184 16.5 34.23 14.453 36.277A7.538 7.538 0 0 1 9.09 38.5z" fill="#dff0fe"/><path d="M23.762 7.89l-.5 2.872c-6.434 5.64-16.899 15.187-16.977 17.62-.012.376.117.72.367.97.203.203.473.312.766.312.594 0 1.266 0 11.066-9.852a810.14 810.14 0 0 0 8.75-8.949l1.63 1.157c-1.587 1.64-5.266 5.449-8.915 9.257-9.996 10.45-9.996 10.633-9.996 11.188 0 .687.508 1.207 1.18 1.207.656 0 1.656 0 11.351-9.77 4.024-4.05 7.907-8.148 8.922-9.218l2.211-.239c-4.68 5.356-17.601 19.563-19.52 21.48A7.042 7.042 0 0 1 9.09 38a7.06 7.06 0 0 1-5.016-2.074A7.057 7.057 0 0 1 2 30.914c0-1.894.738-3.676 2.074-5.012C5.938 24.04 18.535 12.578 23.762 7.891m1.472-2.645C23.32 6.871 5.63 22.934 3.367 25.196c-3.156 3.156-3.156 8.277 0 11.437A8.078 8.078 0 0 0 9.09 39c2.066 0 4.137-.79 5.719-2.367C17.066 34.37 34.484 15.172 36 13.18l-5.07.547S13.113 32.672 11.133 32.672c-.117 0-.18-.067-.18-.207 0-.54 19.442-20.586 19.442-20.586L27.113 9.55S8.781 28.664 7.418 28.664a.09.09 0 0 1-.059-.02c-1.402-1.402 16.828-17.363 16.828-17.363z" fill="#4788c7"/><path d="M32.5 23.5a2.979 2.979 0 0 1-1.715-.543l-.285-.2-.285.2a2.979 2.979 0 0 1-1.715.543c-1.148 0-2.21-.68-2.707-1.73l-.129-.274-.3-.012A2.989 2.989 0 0 1 22.5 18.5c0-.16.023-.313.05-.469l.079-.508-.512-.062a2.988 2.988 0 0 1-2.574-2.57l-.05-.383-.384-.051A2.996 2.996 0 0 1 16.5 11.5c0-.39.074-.773.227-1.137l.14-.34-.281-.234A2.98 2.98 0 0 1 15.5 7.5a2.989 2.989 0 0 1 2.863-2.984l.301-.012.129-.274A3.014 3.014 0 0 1 21.5 2.5c.133 0 .258.02.383.04l.25.034.23-.172A2.963 2.963 0 0 1 24.5 1.5c.613 0 1.203.188 1.715.543l.285.2.285-.2A2.988 2.988 0 0 1 28.5 1.5c.613 0 1.203.188 1.715.543l.285.2.285-.2a2.988 2.988 0 0 1 3.856.36l.175.179.25-.035c.176-.027.301-.047.434-.047 1.652 0 3 1.348 3 3 0 .613-.188 1.207-.543 1.715l-.2.285.2.285c.355.508.543 1.102.543 1.715 0 .434-.102.867-.3 1.285l-.102.215.101.215c.2.418.301.851.301 1.285a2.98 2.98 0 0 1-1.086 2.29l-.277.233.136.34c.153.364.23.746.23 1.137a3.004 3.004 0 0 1-1.8 2.746l-.383.164.094.406c.059.247.09.47.09.684a3.012 3.012 0 0 1-3.004 3z" fill="#dff0fe"/><path d="M32.5 2c.676 0 1.309.266 1.781.75l.403.355.504-.074c.12-.015.226-.031.312-.031C36.879 3 38 4.121 38 5.5c0 .512-.156 1.004-.453 1.426l-.399.574.399.574c.297.422.453.914.453 1.426 0 .36-.086.719-.254 1.07l-.203.43.203.43c.168.351.254.71.254 1.07 0 .73-.328 1.422-.906 1.906l-.563.469.278.68c.129.304.191.62.191.945 0 .992-.59 1.89-1.5 2.29l-.762.331.188.813c.05.207.074.394.074.566 0 1.379-1.121 2.5-2.5 2.5a2.464 2.464 0 0 1-1.426-.453l-.574-.402-.574.402a2.477 2.477 0 0 1-3.68-.988l-.258-.547-.601-.028A2.487 2.487 0 0 1 23 18.5c0-.11.02-.234.043-.39l.16-1.016-1.02-.13a2.49 2.49 0 0 1-2.148-2.14l-.098-.761-.761-.098A2.5 2.5 0 0 1 17 11.5c0-.324.063-.64.188-.95l.28-.675-.562-.469A2.483 2.483 0 0 1 16 7.5a2.487 2.487 0 0 1 2.387-2.484l.601-.028.258-.547A2.477 2.477 0 0 1 21.5 3c.086 0 .191.016.36.04l.503.073.356-.363A2.469 2.469 0 0 1 24.5 2c.512 0 1.004.156 1.426.453l.574.399.574-.399a2.464 2.464 0 0 1 2.852 0l.574.399.574-.399A2.464 2.464 0 0 1 32.5 2m0-1c-.746 0-1.434.238-2 .633a3.46 3.46 0 0 0-2-.633c-.746 0-1.434.238-2 .633a3.48 3.48 0 0 0-4.496.418C21.84 2.027 21.672 2 21.5 2a3.5 3.5 0 0 0-3.16 2.016A3.493 3.493 0 0 0 15 7.5c0 1.078.496 2.031 1.266 2.672-.168.41-.266.855-.266 1.328a3.485 3.485 0 0 0 3.047 3.453 3.474 3.474 0 0 0 3.008 3c-.028.18-.055.36-.055.547a3.493 3.493 0 0 0 3.34 3.484A3.5 3.5 0 0 0 28.5 24c.746 0 1.434-.238 2-.633a3.46 3.46 0 0 0 2 .633 3.5 3.5 0 0 0 3.5-3.5c0-.273-.04-.54-.098-.797A3.494 3.494 0 0 0 38 16.5a3.5 3.5 0 0 0-.266-1.328A3.465 3.465 0 0 0 39 12.5c0-.54-.133-1.043-.352-1.5.22-.457.352-.96.352-1.5 0-.746-.238-1.434-.633-2a3.46 3.46 0 0 0 .633-2A3.5 3.5 0 0 0 35.5 2c-.172 0-.34.027-.504.05A3.48 3.48 0 0 0 32.5 1z" fill="#4788c7"/></svg>