<svg xmlns="http://www.w3.org/2000/svg" viewBox="0 0 50 50"><path d="M30.875 2a.995.995 0 0 0-.531.25s-.489.406-1 1.031c-.395.48-.719 1.211-1 1.938-2.125.957-5.563 2.875-8.594 6.281-2.945 3.309-5.434 8-5.719 14.281-.035-.02-.058-.011-.094-.031-.699-.36-1.695-.75-2.937-.75-1.762 0-4.004.422-5.844 1.969C3.316 28.516 2 31.168 2 35.187 2 42.297 8.18 48 15 48c3.254 0 6.52-1.438 8.969-3.781 3.773 3.75 9.582 4.96 14.843 2.375 5.887-2.89 9.137-10.922 5.938-17.438-1.836-3.734-4.465-5.453-6.906-5.968a9.383 9.383 0 0 0-3.344-.094c-.984.148-1.82.43-2.406.718-1.14.563-1.848 1.395-2.313 2.032-.66-1.668-1.351-4.16-1.625-7a27.95 27.95 0 0 1 .157-6.625c.542 1.422 1.46 2.879 3.03 4.062 1.743 1.313 3.86 1.754 5.845 1.719 1.984-.035 3.847-.54 5.25-1.219.269-.129.468-.37.542-.66a1.01 1.01 0 0 0-.167-.84c-1.31-1.746-2.243-5.101-5.376-7.062-2.046-1.281-4.21-1.867-5.874-2.156.21-.188.43-.383.625-.563.406-.371.738-.64 1-1.063.21-.351.187-.796-.063-1.125a3.541 3.541 0 0 0-1.281-1.062c-.383-.184-.75-.25-.75-.25a1.024 1.024 0 0 0-.219 0zm-1.219 5.875a13.35 13.35 0 0 1 6.719 2.031c1.996 1.25 2.895 3.453 4.125 5.469-.996.34-2.121.602-3.344.625-1.664.031-3.343-.344-4.625-1.313-3.129-2.359-2.988-5.636-2.875-6.812zm-2.437.188c-1.176 3.835-1.383 7.671-1.063 11 .305 3.16 1.051 5.828 1.844 7.718h-.125c-.785-.02-1.86.055-2.969.594-.164-.148-.328-.305-.5-.438C22.45 25.43 20.296 25 19 25c-1.266 0-2.242.422-2.938.781-.011.004-.019-.004-.03 0 .277-5.761 2.534-9.918 5.218-12.937a23.096 23.096 0 0 1 5.969-4.781zM36.03 25a6.81 6.81 0 0 1 1.375.156c1.89.399 3.95 1.594 5.563 4.875 2.66 5.422-.23 12.422-5.032 14.782-4.578 2.25-9.464 1.207-12.656-2.063 1.665-2.113 2.72-4.707 2.72-7.563 0-2.664-.691-4.726-1.719-6.25.532-.167 1.028-.167 1.532-.156.66.016 1.3.235 2.156-.187.86-.422 1.054-1.07 1.437-1.594.383-.523.797-1 1.563-1.375.55-.27 1.722-.633 3.062-.625zM11 27c.816 0 1.418.234 2 .531.582.297 1.055.782 2 .782.945 0 1.398-.485 1.969-.782.57-.297 1.18-.531 2.031-.531.82 0 2.672.332 4.188 1.5.16.125.316.266.468.406.086.344.348.617.688.719.96 1.203 1.656 2.95 1.656 5.563 0 2.527-1.066 4.863-2.688 6.718a.532.532 0 0 0-.093.094c-.004.008.004.023 0 .031a.913.913 0 0 0-.188.219C20.883 44.54 17.867 46 15 46 9.309 46 4 41.125 4 35.187c0-3.597 1.078-5.542 2.438-6.687C7.796 27.355 9.566 27 11 27z"/></svg>