<svg xmlns="http://www.w3.org/2000/svg" viewBox="0 0 50 50"><path d="M27.184 2.008a3.95 3.95 0 0 0-.747.047c-.984.152-1.894.675-2.484 1.55-.039.063-.062.13-.098.192.024-.055.036-.121.067-.168-1.758 2.668-20.985 33.789-21.344 34.43-.379.66-1.617 3.265 1.363 5.117.793.492 1.528.687 2.172.687 1.164 0 2.035-.629 2.418-1.258.39-.648 21.567-34.214 21.567-34.214s-.063.05-.082.07c.156-.164.308-.336.437-.527 1.137-1.688.688-4.024-1.082-5.215a4.133 4.133 0 0 0-2.187-.711zm-.047 1.984c.37.02.758.14 1.117.383.973.656 1.113 1.594.543 2.441-.57.848-1.574 1.122-2.516.489-.96-.649-1.195-1.801-.672-2.582a1.671 1.671 0 0 1 1.16-.707c.122-.02.243-.028.368-.024zm-.23.477c-.352-.024-.704.07-.923.36-.168.21-.273.648.086.905.45.254.946-.039 1.215-.156-.258.34-.039.902.246 1.149.254.21.649.128.922-.22.36-.46-.144-1.355-.61-1.71a1.882 1.882 0 0 0-.937-.328zM23.84 7.477c.183.343.406.668.687.953-.086.156-.14.265-.234.425.004 0 .004.004.008.004a249.05 249.05 0 0 1-1.242 2.16c-1.91 3.254-4.48 7.56-7.07 11.872-4.735 7.785-9.462 15.578-10.302 16.964l.118-.167c1.168-1.7 6.14-8.954 11.113-16.223 2.816-4.16 5.637-8.336 7.71-11.492.497-.762.938-1.453 1.34-2.075.005.004.009.004.012.008.11-.172.184-.293.286-.453a3.86 3.86 0 0 0 1.004.156c-1.165 1.82-20.168 31.496-20.442 31.953-.039.063-.277.301-.71.301-.329 0-.716-.133-1.122-.386-.496-.309-1.527-.946-.68-2.43.582-1 18.286-29.578 19.524-31.57zm20.164 2.558a3.638 3.638 0 0 0-2.531 1.258l-.012-.016s-.184.172-.512.489c-.101.093-.219.203-.351.332-4.77 4.601-27.95 26.941-28.41 27.418-.54.55-2.399 2.773.03 5.28.915.946 1.86 1.282 2.68 1.282.817 0 1.508-.336 1.915-.738.546-.543 29.777-28.043 29.777-28.043l-.012-.012v-.008l-.016-.023a3.516 3.516 0 0 0 1.043-.86c1.329-1.64.938-4.085-.734-5.44a4.15 4.15 0 0 0-2.867-.919zm.164 1.985c.477-.028.996.125 1.441.488.899.726 1.032 1.894.438 2.629-.59.73-1.762.843-2.656.117-.899-.727-1.036-1.895-.442-2.629a1.685 1.685 0 0 1 1.219-.605zm-.137.433a.91.91 0 0 0-.535.238c-.46.407-.113 1.414.293 1.86.414.441 1.344.824 1.906.324.211-.188.403-.613.086-.945-.414-.344-.976-.137-1.27-.07.329-.301.208-.915-.038-1.22a.54.54 0 0 0-.442-.187zm-3.511 2.5a5.55 5.55 0 0 0 1.132 1.625 5.554 5.554 0 0 0 1.578 1.137c-6.921 6.512-27.34 25.723-27.835 26.207a.799.799 0 0 1-.5.156c-.489 0-.942-.367-1.239-.672-.398-.414-1.23-1.273-.031-2.496.59-.597 17.547-16.945 24.79-23.926z"/></svg>