<svg xmlns="http://www.w3.org/2000/svg" viewBox="0 0 50 50"><path d="M25 0c-.176 0-.355.02-.531.031-3.602.258-6.68 3.149-8.844 7.375C13.355 11.84 12 17.863 12 24.5c0 .793-.012 1.559 0 2.313-1.922-1.176-4.027-2.34-6.344-3.563-.074-.04-.113-.086-.187-.125A1.012 1.012 0 0 0 4.875 23a1 1 0 0 0-.531 1.75c3.355 2.828 4.191 8.867 6.156 14.469.984 2.8 2.29 5.52 4.563 7.531 2.242 1.984 5.394 3.215 9.75 3.25h.281c4.004-.016 6.785-.977 8.75-2.5 1.98-1.535 3.078-3.578 3.968-5.531.891-1.953 1.594-3.84 2.626-5.25 1.03-1.41 2.332-2.38 4.718-2.719.418-.063.75-.379.836-.79a1.005 1.005 0 0 0-.46-1.054c-2.762-1.699-5.368-2.332-7.75-2.25.12-1.699.218-3.48.218-5.406 0-3.098-.328-6.05-.875-8.781-.625-3.121-1.54-5.95-2.75-8.313C32.211 3.18 29.133.29 25.531.031A3.406 3.406 0 0 0 25 0zm-1 2.406v5.531c-1.121-.085-2.031-.28-2.75-.562.55-1.688 1.172-3.063 1.813-3.969.328-.465.644-.777.937-1zm2 0c.293.223.61.535.938 1 .64.906 1.261 2.281 1.812 3.969-.719.281-1.629.477-2.75.563zM20.375 4.22a21.6 21.6 0 0 0-.875 2.156 4.79 4.79 0 0 1-.563-.531 12.81 12.81 0 0 1 1.438-1.625zm9.25 0c.492.48.977.996 1.438 1.625a4.79 4.79 0 0 1-.563.531 21.688 21.688 0 0 0-.875-2.156zM17.844 7.562c.199.196.394.399.656.594.113.086.246.168.375.25a45.081 45.081 0 0 0-.844 3.719c-.011-.008-.02-.023-.031-.031-1.004-.739-1.402-1.39-1.531-1.625.297-.746.597-1.465.937-2.125.14-.278.29-.524.438-.781zm14.312 0c.149.258.297.504.438.782.34.66.64 1.379.937 2.125-.129.234-.527.886-1.531 1.625-.012.008-.02.023-.031.031a45.081 45.081 0 0 0-.844-3.719c.129-.082.262-.164.375-.25.262-.195.457-.398.656-.594zm-11.468 1.75c.91.333 2.015.543 3.312.626v4.03c-1.707-.097-3.055-.425-4.094-.843.23-1.375.477-2.64.782-3.813zm8.625 0c.304 1.172.55 2.438.78 3.813-1.038.418-2.386.746-4.093.844V9.938c1.297-.083 2.402-.293 3.313-.626zM15.688 12.72c.304.328.667.664 1.124 1 .258.191.563.379.875.562a69.378 69.378 0 0 0-.406 3.75c-.187-.12-.37-.222-.531-.343-1.129-.844-1.652-1.614-1.844-1.938.227-1.047.489-2.07.781-3.031zm18.624 0c.293.96.555 1.984.782 3.031-.192.324-.715 1.094-1.844 1.938-.16.12-.344.222-.531.343a69.378 69.378 0 0 0-.407-3.75c.313-.183.618-.37.876-.562.457-.336.82-.672 1.124-1zm-14.718 2.437c1.195.422 2.664.727 4.406.813v4c-1.969-.094-3.54-.457-4.781-.938.097-1.336.215-2.64.375-3.875zm10.812 0c.16 1.235.278 2.54.375 3.875-1.242.48-2.812.844-4.781.938v-4c1.742-.086 3.21-.39 4.406-.813zm-15.968 3.188c.316.32.69.644 1.124.968.45.336.97.66 1.563.97a80.025 80.025 0 0 0-.125 3.81 9.255 9.255 0 0 1-.75-.5c-1.594-1.176-2.031-2.219-2.031-2.219a.842.842 0 0 0-.094-.188c.074-.976.176-1.914.313-2.843zm21.124 0c.137.93.239 1.867.313 2.843a.842.842 0 0 0-.094.188s-.437 1.043-2.031 2.219a9.255 9.255 0 0 1-.75.5 80.023 80.023 0 0 0-.125-3.813 11.33 11.33 0 0 0 1.563-.968 9.987 9.987 0 0 0 1.124-.97zm-16.468 2.781c1.355.45 2.98.758 4.906.844v4c-2.055-.09-3.688-.457-5-.938V24.5c0-1.152.043-2.27.094-3.375zm11.812 0c.051 1.105.094 2.223.094 3.375v.531c-1.313.48-2.945.848-5 .938v-4c1.926-.086 3.55-.395 4.906-.844zM14 24.313c.309.3.648.601 1.063.906a12.24 12.24 0 0 0 1.968 1.156c.043 1.285.137 2.582.219 3.844a9.645 9.645 0 0 1-1-.625c-1.594-1.176-2.031-2.219-2.031-2.219a.984.984 0 0 0-.188-.281c-.02-.82-.031-1.672-.031-2.594v-.188zm22 0v.187c0 .898-.008 1.746-.031 2.594a.984.984 0 0 0-.188.281s-.437 1.043-2.031 2.219a9.927 9.927 0 0 1-.938.593c.063-1.242.126-2.48.157-3.812a12.24 12.24 0 0 0 1.968-1.156A9.922 9.922 0 0 0 36 24.312zm-16.938 2.843c1.387.426 3.012.735 4.938.813v4c-1.898-.082-3.457-.387-4.719-.813a103.92 103.92 0 0 1-.218-4zm11.875 0a248.516 248.516 0 0 1-.156 3.969c-1.27.438-2.851.758-4.781.844v-4c1.926-.078 3.55-.387 4.938-.813zm-22.343.094c4.57 2.637 8.367 5.2 10.781 8 2.922 3.387 4.34 7.262 4.531 12.594-3.383-.2-5.808-1.098-7.5-2.594-1.894-1.676-3.101-4.04-4.031-6.688-1.293-3.683-2.05-7.867-3.781-11.312zm29.187 4.656c1.38.008 2.88.39 4.469 1.032-1.41.66-2.598 1.488-3.406 2.593-1.266 1.73-1.996 3.766-2.844 5.625-.848 1.86-1.785 3.52-3.375 4.75-1.445 1.121-3.48 1.926-6.656 2.063-.063-2.04-.317-3.922-.75-5.657.238-.5 2.031-4.136 5.187-7.03 1.696-1.552 3.715-2.817 6.032-3.25.43-.083.882-.13 1.343-.126zm-17.25 1.625a20.22 20.22 0 0 0 3.469.438v4.75a20.046 20.046 0 0 0-3.094-4.782c-.117-.136-.25-.273-.375-.406zm8.782.063c-.083.074-.168.144-.25.218-1.211 1.11-2.223 2.305-3.063 3.438v-3.281c1.223-.051 2.313-.172 3.313-.375z"/></svg>