<svg xmlns="http://www.w3.org/2000/svg" viewBox="0 0 40 40"><path d="M26.77 11.5c-.86 0-1.73-.625-2.176-1.555-.59-1.246-.266-2.644.73-3.117.223-.105.457-.156.707-.156.86 0 1.73.625 2.176 1.555.59 1.242.262 2.64-.73 3.117a1.706 1.706 0 0 1-.707.156z" fill="#dff0fe"/><path d="M26.031 7.172c.668 0 1.364.508 1.723 1.27.242.503.308 1.07.183 1.55-.105.422-.347.742-.675.899-.153.074-.32.109-.496.109-.668 0-1.36-.512-1.72-1.27-.241-.503-.308-1.07-.187-1.55.11-.422.352-.742.68-.899.152-.074.32-.11.492-.11m0-1c-.312 0-.629.063-.922.204-1.246.594-1.68 2.29-.968 3.785.547 1.14 1.601 1.84 2.625 1.84.316 0 .629-.066.922-.207 1.25-.594 1.68-2.285.968-3.781-.543-1.145-1.597-1.84-2.625-1.84z" fill="#4788c7"/><path d="M29.5 14c0-1.379-.895-2.5-2-2.5s-2 1.121-2 2.5.895 2.5 2 2.5 2-1.121 2-2.5z" fill="#dff0fe"/><path d="M27.5 12c.813 0 1.5.914 1.5 2 0 1.086-.688 2-1.5 2-.813 0-1.5-.914-1.5-2 0-1.086.688-2 1.5-2m0-1c-1.383 0-2.5 1.344-2.5 3s1.117 3 2.5 3 2.5-1.344 2.5-3-1.117-3-2.5-3z" fill="#4788c7"/><path d="M29.5 19c0-1.379-.895-2.5-2-2.5s-2 1.121-2 2.5.895 2.5 2 2.5 2-1.121 2-2.5z" fill="#dff0fe"/><path d="M27.5 17c.813 0 1.5.914 1.5 2 0 1.086-.688 2-1.5 2-.813 0-1.5-.914-1.5-2 0-1.086.688-2 1.5-2m0-1c-1.383 0-2.5 1.344-2.5 3s1.117 3 2.5 3 2.5-1.344 2.5-3-1.117-3-2.5-3z" fill="#4788c7"/><path d="M29.5 24c0-1.379-.895-2.5-2-2.5s-2 1.121-2 2.5.895 2.5 2 2.5 2-1.121 2-2.5z" fill="#dff0fe"/><path d="M27.5 22c.813 0 1.5.914 1.5 2 0 1.086-.688 2-1.5 2-.813 0-1.5-.914-1.5-2 0-1.086.688-2 1.5-2m0-1c-1.383 0-2.5 1.344-2.5 3s1.117 3 2.5 3 2.5-1.344 2.5-3-1.117-3-2.5-3z" fill="#4788c7"/><path d="M29.5 29c0-1.379-.895-2.5-2-2.5s-2 1.121-2 2.5.895 2.5 2 2.5 2-1.121 2-2.5z" fill="#dff0fe"/><path d="M27.5 27c.813 0 1.5.914 1.5 2 0 1.086-.688 2-1.5 2-.813 0-1.5-.914-1.5-2 0-1.086.688-2 1.5-2m0-1c-1.383 0-2.5 1.344-2.5 3s1.117 3 2.5 3 2.5-1.344 2.5-3-1.117-3-2.5-3z" fill="#4788c7"/><path d="M24.156 8.402c-.851 0-1.699-.582-2.164-1.492-.312-.605-.41-1.277-.273-1.883.129-.57.453-1.015.914-1.254.23-.117.484-.175.754-.175.851 0 1.699.582 2.164 1.492.312.605.41 1.277.273 1.883-.129.574-.453 1.015-.914 1.254-.23.117-.484.175-.754.175z" fill="#dff0fe"/><path d="M23.387 4.098c.652 0 1.347.488 1.718 1.218.497.965.301 2.094-.421 2.465a1.15 1.15 0 0 1-.528.121c-.652 0-1.347-.488-1.718-1.218-.258-.497-.34-1.063-.231-1.547.094-.422.324-.75.652-.918a1.14 1.14 0 0 1 .528-.121m0-1c-.34 0-.672.074-.985.23-1.226.633-1.613 2.336-.855 3.813.566 1.101 1.605 1.761 2.61 1.761.34 0 .675-.074.984-.23 1.23-.633 1.613-2.336.855-3.813-.566-1.101-1.605-1.761-2.61-1.761z" fill="#4788c7"/><path d="M13.23 11.328c-.246 0-.484-.05-.707-.156-.992-.473-1.32-1.871-.73-3.117.445-.93 1.316-1.555 2.176-1.555.25 0 .484.055.707.156.996.477 1.32 1.875.73 3.117-.441.93-1.316 1.555-2.176 1.555z" fill="#dff0fe"/><path d="M13.969 7c.172 0 .34.035.492.11.328.156.57.476.68.898.12.48.054 1.047-.188 1.55-.36.762-1.05 1.27-1.719 1.27-.175 0-.343-.035-.496-.11-.73-.347-.96-1.472-.492-2.448.36-.758 1.055-1.27 1.723-1.27m0-1c-1.028 0-2.082.695-2.625 1.84-.711 1.496-.281 3.191.969 3.781.292.14.605.207.921.207 1.024 0 2.079-.695 2.625-1.84.711-1.496.278-3.187-.968-3.781A2.13 2.13 0 0 0 13.969 6z" fill="#4788c7"/><path d="M15.844 8.402c-.27 0-.524-.058-.754-.175-.461-.239-.785-.684-.914-1.254-.137-.606-.04-1.274.273-1.883.465-.906 1.313-1.492 2.164-1.492.27 0 .524.058.754.175.461.239.785.684.914 1.254.137.606.04 1.278-.273 1.883-.465.906-1.317 1.492-2.164 1.492z" fill="#dff0fe"/><path d="M16.613 4.098c.192 0 .367.039.528.12.324.169.554.497.652.919.11.484.023 1.05-.23 1.547-.375.73-1.067 1.218-1.72 1.218-.19 0-.366-.039-.527-.12-.722-.372-.918-1.5-.421-2.466.37-.73 1.066-1.218 1.718-1.218m0-1c-1.004 0-2.043.66-2.61 1.761-.757 1.477-.37 3.18.856 3.813.309.156.645.23.985.23 1.004 0 2.043-.66 2.61-1.761.757-1.477.37-3.18-.856-3.813a2.18 2.18 0 0 0-.985-.23z" fill="#4788c7"/><path d="M26.5 11c0 1.379-1.121 2.5-2.5 2.5a2.502 2.502 0 0 1-2.5-2.5c0-1.379 1.121-2.5 2.5-2.5s2.5 1.121 2.5 2.5z" fill="#dff0fe"/><path d="M24 9c1.102 0 2 .898 2 2 0 1.102-.898 2-2 2-1.102 0-2-.898-2-2 0-1.102.898-2 2-2m0-1a3 3 0 1 0 .002 6.002A3 3 0 0 0 24 8z" fill="#4788c7"/><path d="M26.5 16c0 1.379-1.121 2.5-2.5 2.5a2.502 2.502 0 0 1-2.5-2.5c0-1.379 1.121-2.5 2.5-2.5s2.5 1.121 2.5 2.5z" fill="#dff0fe"/><path d="M24 14c1.102 0 2 .898 2 2 0 1.102-.898 2-2 2-1.102 0-2-.898-2-2 0-1.102.898-2 2-2m0-1a3 3 0 1 0 .002 6.002A3 3 0 0 0 24 13z" fill="#4788c7"/><path d="M26.5 21c0 1.379-1.121 2.5-2.5 2.5a2.502 2.502 0 0 1-2.5-2.5c0-1.379 1.121-2.5 2.5-2.5s2.5 1.121 2.5 2.5z" fill="#dff0fe"/><path d="M24 19c1.102 0 2 .898 2 2 0 1.102-.898 2-2 2-1.102 0-2-.898-2-2 0-1.102.898-2 2-2m0-1a3 3 0 1 0 .002 6.002A3 3 0 0 0 24 18z" fill="#4788c7"/><path d="M26.5 26c0 1.379-1.121 2.5-2.5 2.5a2.502 2.502 0 0 1-2.5-2.5c0-1.379 1.121-2.5 2.5-2.5s2.5 1.121 2.5 2.5z" fill="#dff0fe"/><path d="M24 24c1.102 0 2 .898 2 2 0 1.102-.898 2-2 2-1.102 0-2-.898-2-2 0-1.102.898-2 2-2m0-1a3 3 0 1 0 .002 6.002A3 3 0 0 0 24 23z" fill="#4788c7"/><path d="M26.5 31c0 1.379-1.121 2.5-2.5 2.5a2.502 2.502 0 0 1-2.5-2.5c0-1.379 1.121-2.5 2.5-2.5s2.5 1.121 2.5 2.5z" fill="#dff0fe"/><path d="M24 29c1.102 0 2 .898 2 2 0 1.102-.898 2-2 2-1.102 0-2-.898-2-2 0-1.102.898-2 2-2m0-1a3 3 0 1 0 .002 6.002A3 3 0 0 0 24 28z" fill="#4788c7"/><path d="M14.5 14c0-1.379-.895-2.5-2-2.5s-2 1.121-2 2.5.895 2.5 2 2.5 2-1.121 2-2.5z" fill="#dff0fe"/><path d="M12.5 12c.813 0 1.5.914 1.5 2 0 1.086-.688 2-1.5 2-.813 0-1.5-.914-1.5-2 0-1.086.688-2 1.5-2m0-1c-1.383 0-2.5 1.344-2.5 3s1.117 3 2.5 3 2.5-1.344 2.5-3-1.117-3-2.5-3z" fill="#4788c7"/><path d="M14.5 19c0-1.379-.895-2.5-2-2.5s-2 1.121-2 2.5.895 2.5 2 2.5 2-1.121 2-2.5z" fill="#dff0fe"/><path d="M12.5 17c.813 0 1.5.914 1.5 2 0 1.086-.688 2-1.5 2-.813 0-1.5-.914-1.5-2 0-1.086.688-2 1.5-2m0-1c-1.383 0-2.5 1.344-2.5 3s1.117 3 2.5 3 2.5-1.344 2.5-3-1.117-3-2.5-3z" fill="#4788c7"/><path d="M14.5 24c0-1.379-.895-2.5-2-2.5s-2 1.121-2 2.5.895 2.5 2 2.5 2-1.121 2-2.5z" fill="#dff0fe"/><path d="M12.5 22c.813 0 1.5.914 1.5 2 0 1.086-.688 2-1.5 2-.813 0-1.5-.914-1.5-2 0-1.086.688-2 1.5-2m0-1c-1.383 0-2.5 1.344-2.5 3s1.117 3 2.5 3 2.5-1.344 2.5-3-1.117-3-2.5-3z" fill="#4788c7"/><path d="M14.5 29c0-1.379-.895-2.5-2-2.5s-2 1.121-2 2.5.895 2.5 2 2.5 2-1.121 2-2.5z" fill="#dff0fe"/><path d="M12.5 27c.813 0 1.5.914 1.5 2 0 1.086-.688 2-1.5 2-.813 0-1.5-.914-1.5-2 0-1.086.688-2 1.5-2m0-1c-1.383 0-2.5 1.344-2.5 3s1.117 3 2.5 3 2.5-1.344 2.5-3-1.117-3-2.5-3z" fill="#4788c7"/><path d="M18.5 11c0 1.379-1.121 2.5-2.5 2.5a2.502 2.502 0 0 1-2.5-2.5c0-1.379 1.121-2.5 2.5-2.5s2.5 1.121 2.5 2.5z" fill="#dff0fe"/><path d="M16 9c1.102 0 2 .898 2 2 0 1.102-.898 2-2 2-1.102 0-2-.898-2-2 0-1.102.898-2 2-2m0-1a3 3 0 1 0 .002 6.002A3 3 0 0 0 16 8z" fill="#4788c7"/><path d="M18.5 16c0 1.379-1.121 2.5-2.5 2.5a2.502 2.502 0 0 1-2.5-2.5c0-1.379 1.121-2.5 2.5-2.5s2.5 1.121 2.5 2.5z" fill="#dff0fe"/><path d="M16 14c1.102 0 2 .898 2 2 0 1.102-.898 2-2 2-1.102 0-2-.898-2-2 0-1.102.898-2 2-2m0-1a3 3 0 1 0 .002 6.002A3 3 0 0 0 16 13z" fill="#4788c7"/><path d="M18.5 21c0 1.379-1.121 2.5-2.5 2.5a2.502 2.502 0 0 1-2.5-2.5c0-1.379 1.121-2.5 2.5-2.5s2.5 1.121 2.5 2.5z" fill="#dff0fe"/><path d="M16 19c1.102 0 2 .898 2 2 0 1.102-.898 2-2 2-1.102 0-2-.898-2-2 0-1.102.898-2 2-2m0-1a3 3 0 1 0 .002 6.002A3 3 0 0 0 16 18z" fill="#4788c7"/><path d="M18.5 26c0 1.379-1.121 2.5-2.5 2.5a2.502 2.502 0 0 1-2.5-2.5c0-1.379 1.121-2.5 2.5-2.5s2.5 1.121 2.5 2.5z" fill="#dff0fe"/><path d="M16 24c1.102 0 2 .898 2 2 0 1.102-.898 2-2 2-1.102 0-2-.898-2-2 0-1.102.898-2 2-2m0-1a3 3 0 1 0 .002 6.002A3 3 0 0 0 16 23z" fill="#4788c7"/><path d="M18.5 31c0 1.379-1.121 2.5-2.5 2.5a2.502 2.502 0 0 1-2.5-2.5c0-1.379 1.121-2.5 2.5-2.5s2.5 1.121 2.5 2.5z" fill="#dff0fe"/><path d="M16 29c1.102 0 2 .898 2 2 0 1.102-.898 2-2 2-1.102 0-2-.898-2-2 0-1.102.898-2 2-2m0-1a3 3 0 1 0 .002 6.002A3 3 0 0 0 16 28z" fill="#4788c7"/><path d="M22.5 4c0 1.379-1.121 2.5-2.5 2.5A2.502 2.502 0 0 1 17.5 4c0-1.379 1.121-2.5 2.5-2.5s2.5 1.121 2.5 2.5z" fill="#dff0fe"/><path d="M20 2c1.102 0 2 .898 2 2 0 1.102-.898 2-2 2-1.102 0-2-.898-2-2 0-1.102.898-2 2-2m0-1a3 3 0 1 0 .002 6.002A3 3 0 0 0 20 1z" fill="#4788c7"/><path d="M22.5 9c0 1.379-1.121 2.5-2.5 2.5A2.502 2.502 0 0 1 17.5 9c0-1.379 1.121-2.5 2.5-2.5s2.5 1.121 2.5 2.5z" fill="#dff0fe"/><path d="M20 7c1.102 0 2 .898 2 2 0 1.102-.898 2-2 2-1.102 0-2-.898-2-2 0-1.102.898-2 2-2m0-1a3 3 0 1 0 .002 6.002A3 3 0 0 0 20 6z" fill="#4788c7"/><path d="M22.5 14c0 1.379-1.121 2.5-2.5 2.5a2.502 2.502 0 0 1-2.5-2.5c0-1.379 1.121-2.5 2.5-2.5s2.5 1.121 2.5 2.5z" fill="#dff0fe"/><path d="M20 12c1.102 0 2 .898 2 2 0 1.102-.898 2-2 2-1.102 0-2-.898-2-2 0-1.102.898-2 2-2m0-1a3 3 0 1 0 .002 6.002A3 3 0 0 0 20 11z" fill="#4788c7"/><path d="M22.5 19c0 1.379-1.121 2.5-2.5 2.5a2.502 2.502 0 0 1-2.5-2.5c0-1.379 1.121-2.5 2.5-2.5s2.5 1.121 2.5 2.5z" fill="#dff0fe"/><path d="M20 17c1.102 0 2 .898 2 2 0 1.102-.898 2-2 2-1.102 0-2-.898-2-2 0-1.102.898-2 2-2m0-1a3 3 0 1 0 .002 6.002A3 3 0 0 0 20 16z" fill="#4788c7"/><path d="M22.5 24c0 1.379-1.121 2.5-2.5 2.5a2.502 2.502 0 0 1-2.5-2.5c0-1.379 1.121-2.5 2.5-2.5s2.5 1.121 2.5 2.5z" fill="#dff0fe"/><path d="M20 22c1.102 0 2 .898 2 2 0 1.102-.898 2-2 2-1.102 0-2-.898-2-2 0-1.102.898-2 2-2m0-1a3 3 0 1 0 .002 6.002A3 3 0 0 0 20 21z" fill="#4788c7"/><path d="M22.5 29c0 1.379-1.121 2.5-2.5 2.5a2.502 2.502 0 0 1-2.5-2.5c0-1.379 1.121-2.5 2.5-2.5s2.5 1.121 2.5 2.5z" fill="#dff0fe"/><path d="M20 27c1.102 0 2 .898 2 2 0 1.102-.898 2-2 2-1.102 0-2-.898-2-2 0-1.102.898-2 2-2m0-1a3 3 0 1 0 .002 6.002A3 3 0 0 0 20 26z" fill="#4788c7"/><path d="M22.5 34c0 1.379-1.121 2.5-2.5 2.5a2.502 2.502 0 0 1-2.5-2.5c0-1.379 1.121-2.5 2.5-2.5s2.5 1.121 2.5 2.5z" fill="#dff0fe"/><path d="M20 32c1.102 0 2 .898 2 2 0 1.102-.898 2-2 2-1.102 0-2-.898-2-2 0-1.102.898-2 2-2m0-1a3 3 0 1 0 .002 6.002A3 3 0 0 0 20 31z" fill="#4788c7"/><path d="M19.496 38.492c-7.32-.254-8.52-6.105-9.894-12.851-.86-4.207-1.747-8.543-4.235-11.817 4.403 1.754 13.906 10.512 14.13 24.668z" fill="#b6dcfe"/><path d="M6.844 15.16c4.511 2.871 11.734 10.961 12.136 22.8-6.453-.491-7.539-5.796-8.89-12.42-.735-3.602-1.492-7.298-3.246-10.38M4 13c7.879 8.086 2.305 26 16 26C20 22.828 7.758 13 4 13z" fill="#4788c7"/><path d="M20.504 38.496c.21-14.05 9.164-18.148 13.25-18.871-2.602 3.121-3.324 6.684-3.973 9.863-1.043 5.117-1.8 8.848-9.277 9.008z" fill="#b6dcfe"/><path d="M32.52 20.43c-2 2.918-2.645 6.09-3.23 8.957-1.005 4.945-1.685 8.289-8.274 8.59.375-11.95 7.289-16.297 11.504-17.547M35 19c-3.824 0-15 3.96-15 20 14 0 6.98-11.98 15-20z" fill="#4788c7"/></svg>