<svg xmlns="http://www.w3.org/2000/svg" viewBox="0 0 48 48"><path d="M44 13.602C44 7.398 42.7 4 39.7 4c-2.9 0-3.302 3.2-5.302 7a1.304 1.304 0 0 0-1.097 1.3c0 .2 0 .4.097.5a96.835 96.835 0 0 1-2.097 3.4h-.2c-.703 0-1.3.6-1.3 1.3 0 .3.097.5.199.7-1.3 1.8-2.7 3.5-4 5h-.2c-.698 0-1.3.6-1.3 1.3v.3c-1.398 1.4-2.7 2.598-4 3.598-.602 0-1.2.403-1.3 1-1.302.903-2.5 1.801-3.7 2.5-.102 0-.2-.097-.3-.097-.598 0-1.2.398-1.302 1a59.147 59.147 0 0 1-3.296 1.8c-.204-.101-.5-.203-.704-.203-.699 0-1.296.602-1.296 1.301C5.699 37.2 4 38.301 4 40.102c0 1.296.898 2.5 2.8 3.199.302.398.7.699 1.2.699.3 0 .5-.102.7-.2.8.098 1.698.2 2.698.2 1.403 0 3-.2 4.5-.398.204.296.602.398 1 .398.602 0 1.102-.398 1.301-.898 1.7-.5 3.5-1.102 5.2-1.801.203.097.402.097.601.097.602 0 1.2-.398 1.3-1 1.098-.5 2.2-1.199 3.2-1.796.2.199.5.199.8.199.7 0 1.302-.602 1.302-1.301v-.3c.898-.598 1.699-1.302 2.597-2 .2.1.403.1.602.1.699 0 1.3-.6 1.3-1.3 0-.2 0-.3-.101-.5.8-.8 1.602-1.7 2.398-2.602a1.32 1.32 0 0 0 1.301-1.296V29.3c.801-1.2 1.602-2.403 2.301-3.602.7 0 1.3-.597 1.3-1.3 0-.297-.1-.598-.3-.797.602-1.301 1-2.704 1.398-4.102.403-.2.704-.602.704-1.102 0-.296-.102-.597-.301-.796.097-1.301.199-2.602.199-4z" fill="#4caf50"/><path d="M44 13.602C33.3 41.3 9.898 41.699 4 40.102c0 1.296.898 2.5 2.8 3.199.302.398.7.699 1.2.699.3 0 .5-.102.7-.2.8.098 1.698.2 2.698.2 1.403 0 3-.2 4.5-.398.204.296.602.398 1 .398.602 0 1.102-.398 1.301-.898 1.7-.5 3.5-1.102 5.2-1.801.203.097.402.097.601.097.602 0 1.2-.398 1.3-1 1.098-.5 2.2-1.199 3.2-1.796.2.199.5.199.8.199.7 0 1.302-.602 1.302-1.301v-.3c.898-.598 1.699-1.302 2.597-2 .2.1.403.1.602.1.699 0 1.3-.6 1.3-1.3 0-.2 0-.3-.101-.5.8-.8 1.602-1.7 2.398-2.602a1.32 1.32 0 0 0 1.301-1.296V29.3c.801-1.2 1.602-2.403 2.301-3.602.7 0 1.3-.597 1.3-1.3 0-.297-.1-.598-.3-.797.602-1.301 1-2.704 1.398-4.102.403-.2.704-.602.704-1.102 0-.296-.102-.597-.301-.796.097-1.301.199-2.602.199-4z" fill="#388e3c"/><path d="M38 12c.602 0 1 .398 1 1s-.5 1-1 1c-.602 0-1-.398-1-1s.398-1 1-1zm-2 11c.602 0 1 .398 1 1s-.398 1-1 1-1-.398-1-1 .398-1 1-1zm-3-3c.602 0 1 .398 1 1s-.5 1-1 1c-.602 0-1-.398-1-1s.398-1 1-1zm-4 10c.602 0 1 .398 1 1s-.398 1-1 1-1-.398-1-1 .398-1 1-1zm-4 1c.602 0 1 .398 1 1s-.398 1-1 1-1-.398-1-1 .398-1 1-1zm-6 5c.602 0 1 .398 1 1s-.398 1-1 1-1-.398-1-1 .398-1 1-1zm-7 1c.602 0 1 .398 1 1s-.398 1-1 1-1-.398-1-1 .398-1 1-1z" fill="#aed581"/></svg>