<svg xmlns="http://www.w3.org/2000/svg" viewBox="0 0 40 40"><path d="M20 38.5c-4.984 0-9.563-3.05-12.246-8.16l-.035-.07-.055-.051c-1.418-1.407-2.637-2.739-3.05-4.516.222.043.48.09.773.133l.707.102-.149-.7A20.958 20.958 0 0 1 5.5 21c0-.477.027-.945.059-1.414l.007-.106-.035-.093c-.746-2.121-.957-4.274-1.011-5.582.394.172.925.379 1.562.562l.453.13.156-.442c1.95-5.43 6-9.274 10.829-10.282l.113-.023.094-.07c1.496-1.164 2.925-1.95 3.87-2.137.098.445.282 1.16.575 1.93l.098.254.265.058c4.402.938 8.266 4.367 10.332 9.176l.16.367.395-.074a16.902 16.902 0 0 0 2.066-.535c-.066 2.16-.445 3.363-.843 4.629-.098.316-.2.636-.293.968l-.028.094.012.102c.113.945.164 1.734.164 2.488 0 1.246-.117 2.527-.352 3.8l-.09.485.481.098c.34.066.637.101.879.117-.332 1.117-1.613 2.723-2.824 4.176l-.04.047-.027.054C29.934 35.157 25.133 38.5 20 38.5z" fill="#98ccfd"/><path d="M21.234 2.164c.11.422.262.941.47 1.484l.19.512.536.113c4.242.907 7.972 4.227 9.976 8.883l.32.742.79-.152a18.987 18.987 0 0 0 1.437-.34c-.117 1.668-.445 2.707-.785 3.793-.102.32-.203.645-.297.98l-.055.192.024.2c.11.925.16 1.699.16 2.429 0 1.219-.117 2.469-.344 3.71l-.18.97.965.191c.09.02.18.035.266.05-.566 1.114-1.812 2.61-2.496 3.434l-.078.094-.055.113C29.566 34.767 24.938 38 20 38c-4.797 0-9.207-2.95-11.8-7.895l-.075-.136-.11-.11c-1.148-1.136-2.16-2.218-2.68-3.523l1.392.2-.29-1.4A20.552 20.552 0 0 1 6 21c0-.46.027-.914.059-1.383l.015-.203-.07-.195c-.594-1.684-.84-3.395-.941-4.657.265.094.562.192.882.286l.903.261.316-.882c1.89-5.266 5.8-8.989 10.457-9.961l.227-.047.183-.145c1.367-1.066 2.461-1.652 3.203-1.91M22 1c-1.102 0-2.852.934-4.582 2.285C12.371 4.34 8.191 8.398 6.223 13.887 4.863 13.492 4 13 4 13c0 1.438.184 4.059 1.063 6.55C5.027 20.032 5 20.513 5 21c0 1.5.172 2.95.457 4.34A12.607 12.607 0 0 1 4 25.05c.242 2.313 1.664 3.887 3.313 5.52C9.969 35.63 14.648 39 20 39c5.55 0 10.387-3.629 12.98-9.004C34.582 28.066 36 26.246 36 25c0 0-.094.008-.254.008-.238 0-.629-.02-1.105-.117A21.89 21.89 0 0 0 35 21c0-.867-.07-1.71-.168-2.547C35.348 16.648 36 15.305 36 12c0 0-1.066.453-2.672.762-2.105-4.895-6.023-8.473-10.691-9.465A13.248 13.248 0 0 1 22 1z" fill="#4788c7"/><path d="M20 35.5c-6.34 0-11.5-6.504-11.5-14.5S13.66 6.5 20 6.5 31.5 13.004 31.5 21 26.34 35.5 20 35.5z" fill="#dff0fe"/><path d="M20 7c6.066 0 11 6.281 11 14s-4.934 14-11 14S9 28.719 9 21 13.934 7 20 7m0-1C13.371 6 8 12.715 8 21s5.371 15 12 15 12-6.715 12-15S26.629 6 20 6z" fill="#4788c7"/><path d="M19 10.5c0 .277-.223.5-.5.5a.498.498 0 0 1-.5-.5.499.499 0 1 1 1 0zm2 2c0 .277-.223.5-.5.5a.498.498 0 0 1-.5-.5.499.499 0 1 1 1 0zm-3 1c0 .277-.223.5-.5.5a.498.498 0 0 1-.5-.5.499.499 0 1 1 1 0zm2 2c0 .277-.223.5-.5.5a.498.498 0 0 1-.5-.5.499.499 0 1 1 1 0zm3-1c0 .277-.223.5-.5.5a.498.498 0 0 1-.5-.5.499.499 0 1 1 1 0zm2-2c0 .277-.223.5-.5.5a.498.498 0 0 1-.5-.5.499.499 0 1 1 1 0zm0 5c0 .277-.223.5-.5.5a.498.498 0 0 1-.5-.5.499.499 0 1 1 1 0zm2 0c0 .277-.223.5-.5.5a.498.498 0 0 1-.5-.5.499.499 0 1 1 1 0zm-10-1c0 .277-.223.5-.5.5a.498.498 0 0 1-.5-.5.499.499 0 1 1 1 0zm-3-3c0 .277-.223.5-.5.5a.498.498 0 0 1-.5-.5.499.499 0 1 1 1 0zm-2 4c0 .277-.223.5-.5.5a.498.498 0 0 1-.5-.5.499.499 0 1 1 1 0zm3 1c0 .277-.223.5-.5.5a.498.498 0 0 1-.5-.5.499.499 0 1 1 1 0zm6 0c0 .277-.223.5-.5.5a.498.498 0 0 1-.5-.5.499.499 0 1 1 1 0zm-3 2c0 .277-.223.5-.5.5a.498.498 0 0 1-.5-.5.499.499 0 1 1 1 0zm5 0c0 .277-.223.5-.5.5a.498.498 0 0 1-.5-.5.499.499 0 1 1 1 0zm4 0c0 .277-.223.5-.5.5a.498.498 0 0 1-.5-.5.499.499 0 1 1 1 0zm2 3c0 .277-.223.5-.5.5a.498.498 0 0 1-.5-.5.499.499 0 1 1 1 0zm-4 0c0 .277-.223.5-.5.5a.498.498 0 0 1-.5-.5.499.499 0 1 1 1 0zm-4-1c0 .277-.223.5-.5.5a.498.498 0 0 1-.5-.5.499.499 0 1 1 1 0zm-5-1c0 .277-.223.5-.5.5a.498.498 0 0 1-.5-.5.499.499 0 1 1 1 0zm-3-1c0 .277-.223.5-.5.5a.498.498 0 0 1-.5-.5.499.499 0 1 1 1 0zm-1 3c0 .277-.223.5-.5.5a.498.498 0 0 1-.5-.5.499.499 0 1 1 1 0zm3 1c0 .277-.223.5-.5.5a.498.498 0 0 1-.5-.5.499.499 0 1 1 1 0zm3-1c0 .277-.223.5-.5.5a.498.498 0 0 1-.5-.5.499.499 0 1 1 1 0zm0 3c0 .277-.223.5-.5.5a.498.498 0 0 1-.5-.5.499.499 0 1 1 1 0zm-5 0c0 .277-.223.5-.5.5a.498.498 0 0 1-.5-.5.499.499 0 1 1 1 0zm2 2c0 .277-.223.5-.5.5a.498.498 0 0 1-.5-.5.499.499 0 1 1 1 0zm3 3c0 .277-.223.5-.5.5a.498.498 0 0 1-.5-.5.499.499 0 1 1 1 0zm3-2c0 .277-.223.5-.5.5a.498.498 0 0 1-.5-.5.499.499 0 1 1 1 0zm0-3c0 .277-.223.5-.5.5a.498.498 0 0 1-.5-.5.499.499 0 1 1 1 0zm2-1c0 .277-.223.5-.5.5a.498.498 0 0 1-.5-.5.499.499 0 1 1 1 0zm4 0c0 .277-.223.5-.5.5a.498.498 0 0 1-.5-.5.499.499 0 1 1 1 0zm0 3c0 .277-.223.5-.5.5a.498.498 0 0 1-.5-.5.499.499 0 1 1 1 0zm-3 0c0 .277-.223.5-.5.5a.498.498 0 0 1-.5-.5.499.499 0 1 1 1 0zm0 3c0 .277-.223.5-.5.5a.498.498 0 0 1-.5-.5.499.499 0 1 1 1 0zm-3 1c0 .277-.223.5-.5.5a.498.498 0 0 1-.5-.5.499.499 0 1 1 1 0zm-3-3c0 .277-.223.5-.5.5a.498.498 0 0 1-.5-.5.499.499 0 1 1 1 0z" fill="#4788c7"/></svg>