<svg xmlns="http://www.w3.org/2000/svg" viewBox="0 0 48 48"><path d="M12.7 45C7.3 45 3 40.602 3 35.3c0-7.6 4.602-9.3 9.398-11 2.5-.902 5.204-1.8 7.602-3.698 1.8-1.301 3.398-2.903 5-4.602 2.102-2.3 3.7-3.602 4-4 .2-.3 2.8-1.5 3-1.3 0 0 4.2-1.4 7 1.3s2 7.7 2 8c-1 10.398-14 25-28.3 25z" fill="#4a148c"/><path d="M43 3l2 2s-2.2 3.8-4 6c1.398 1.8 3.102 4.8 1 10-2.102-.602-4-5-4-5s-1.2 1.5-5 2c-.3-3.7 1-5 1-5s-4.602.398-6-1c0 0 2.8-5.3 10-3 2.8-2 5-6 5-6z" fill="#4caf50"/><path d="M7 35s-.602-3.5 5-6 12-4.7 17-11" fill="none" stroke-width="2" stroke-linecap="round" stroke="#9575cd" stroke-miterlimit="10"/></svg>