<svg xmlns="http://www.w3.org/2000/svg" viewBox="0 0 24 24"><path d="M21.281 2s-1.078 1.645-2.375 2.688c-.96.039-2.59-.54-4.031 1.406.879.062 1.648-.114 2.906-.157-.687.688-.875 2.532-.875 2.532s1.356-.106 2.25-1c-.117.918.508 1.742.969 2.343 1.168-2.492.164-3.82.063-4.187C21.53 4.129 22 2.437 22 2.437zM13.97 7.031c-1.094 1.117-2.262 2.555-3.563 3.532C6.641 13.386 2 12.242 2 17.593A4.411 4.411 0 0 0 6.406 22c6.18 0 11.809-6.168 13.375-10.969l-.468-.594c-.254-.335-.594-.804-.844-1.343a5.182 5.182 0 0 1-1.5.375l-1.188.094.125-1.188c.02-.18.086-.707.25-1.313a10.66 10.66 0 0 1-.875.032c-.16 0-.304.011-.469 0z"/></svg>