<svg xmlns="http://www.w3.org/2000/svg" viewBox="0 0 40 40"><path d="M20 38.5a10.29 10.29 0 0 1-5.922-1.867l-.215-.149-.242.09a8.992 8.992 0 0 1-3.121.567c-4.965 0-9-4.036-9-9 0-7.168 12.355-12.871 15.66-14.008l.34-.117V1.809l1.383.691h1.91L22.5 4.207v9.813l.336.113c3.309 1.14 15.664 6.86 15.664 14.012 0 4.96-4.035 9-9 9a8.907 8.907 0 0 1-3.121-.57l-.242-.09-.215.152A10.314 10.314 0 0 1 20 38.5z" fill="#dff0fe"/><path d="M18 2.617l.766.383h1.82L22 4.414v9.961l.676.23C25.715 15.656 38 21.36 38 28.145c0 4.683-3.813 8.5-8.5 8.5-.992 0-1.984-.18-2.945-.54l-.492-.18-.43.302A9.79 9.79 0 0 1 20 38a9.765 9.765 0 0 1-5.633-1.777l-.43-.297-.492.18a8.473 8.473 0 0 1-2.945.535c-4.688 0-8.5-3.813-8.5-8.5 0-6.805 12.285-12.493 15.324-13.536l.676-.23V2.617M17 1v12.66c-2.406.828-16 6.64-16 14.485 0 5.246 4.254 9.5 9.5 9.5a9.4 9.4 0 0 0 3.293-.602A10.8 10.8 0 0 0 20 39a10.8 10.8 0 0 0 6.207-1.957 9.4 9.4 0 0 0 3.293.602c5.246 0 9.5-4.254 9.5-9.5 0-7.797-13.594-13.653-16-14.485V4l-2-2h-2z" fill="#4788c7"/><path d="M27.816 23.602A9.433 9.433 0 0 1 29.5 29c0 5.246-4.254 9.5-9.5 9.5s-9.5-4.254-9.5-9.5c0-1.23.234-2.41.66-3.488" fill="none" stroke-linecap="round" stroke="#4788c7" stroke-miterlimit="10"/></svg>