<svg xmlns="http://www.w3.org/2000/svg" viewBox="0 0 40 40"><path d="M18.16 7.5c-1.254 0-2.62-.488-3.746-1.336-1.883-1.422-1.965-3.644-1.906-4.57.898.047 2.773.277 4.476 1.343 1.407.88 2.176 2.762 2.461 4.364a3.96 3.96 0 0 1-1.285.199z" fill="#dff0fe"/><path d="M12.996 2.129c.914.101 2.379.39 3.723 1.23 1.14.715 1.828 2.2 2.14 3.579A3.667 3.667 0 0 1 18.16 7c-1.148 0-2.402-.45-3.445-1.234-1.41-1.067-1.695-2.657-1.719-3.637m-.84-1.05c-.062 0-.094.003-.094.003s-.613 3.469 2.051 5.48C15.371 7.513 16.848 8 18.16 8c.672 0 1.305-.129 1.84-.387-.227-1.691-1.02-4.015-2.754-5.101-2.168-1.36-4.59-1.434-5.09-1.434z" fill="#4788c7"/><path d="M22.5 1.5s-3.023 1.016-3.023 9.27" fill="none" stroke-linecap="round" stroke="#4788c7" stroke-miterlimit="10"/><path d="M23.5 35a3.5 3.5 0 1 1-7 0 3.5 3.5 0 1 1 7 0z" fill="#b6dcfe"/><path d="M20 32c1.652 0 3 1.348 3 3s-1.348 3-3 3-3-1.348-3-3 1.348-3 3-3m0-1c-2.21 0-4 1.79-4 4s1.79 4 4 4 4-1.79 4-4-1.79-4-4-4z" fill="#4788c7"/><path d="M23.5 23a3.5 3.5 0 1 1-7 0 3.5 3.5 0 1 1 7 0z" fill="#b6dcfe"/><path d="M20 20c1.652 0 3 1.348 3 3s-1.348 3-3 3-3-1.348-3-3 1.348-3 3-3m0-1c-2.21 0-4 1.79-4 4s1.79 4 4 4 4-1.79 4-4-1.79-4-4-4z" fill="#4788c7"/><path d="M15.5 23a3.5 3.5 0 1 1-7 0 3.5 3.5 0 1 1 7 0z" fill="#b6dcfe"/><path d="M12 20c1.652 0 3 1.348 3 3s-1.348 3-3 3-3-1.348-3-3 1.348-3 3-3m0-1c-2.21 0-4 1.79-4 4s1.79 4 4 4 4-1.79 4-4-1.79-4-4-4z" fill="#4788c7"/><path d="M31.5 23a3.5 3.5 0 1 1-7 0 3.5 3.5 0 1 1 7 0z" fill="#b6dcfe"/><path d="M28 20c1.652 0 3 1.348 3 3s-1.348 3-3 3-3-1.348-3-3 1.348-3 3-3m0-1c-2.21 0-4 1.79-4 4s1.79 4 4 4 4-1.79 4-4-1.79-4-4-4z" fill="#4788c7"/><path d="M23.5 11a3.5 3.5 0 1 1-7 0 3.5 3.5 0 1 1 7 0z" fill="#b6dcfe"/><path d="M20 8c1.652 0 3 1.348 3 3s-1.348 3-3 3-3-1.348-3-3 1.348-3 3-3m0-1c-2.21 0-4 1.79-4 4s1.79 4 4 4 4-1.79 4-4-1.79-4-4-4z" fill="#4788c7"/><path d="M15.5 11a3.5 3.5 0 1 1-7 0 3.5 3.5 0 1 1 7 0z" fill="#b6dcfe"/><path d="M12 8c1.652 0 3 1.348 3 3s-1.348 3-3 3-3-1.348-3-3 1.348-3 3-3m0-1c-2.21 0-4 1.79-4 4s1.79 4 4 4 4-1.79 4-4-1.79-4-4-4z" fill="#4788c7"/><path d="M31.5 11a3.5 3.5 0 1 1-7 0 3.5 3.5 0 1 1 7 0z" fill="#b6dcfe"/><path d="M28 8c1.652 0 3 1.348 3 3s-1.348 3-3 3-3-1.348-3-3 1.348-3 3-3m0-1c-2.21 0-4 1.79-4 4s1.79 4 4 4 4-1.79 4-4-1.79-4-4-4z" fill="#4788c7"/><path d="M27.5 29a3.5 3.5 0 1 1-7 0 3.5 3.5 0 1 1 7 0z" fill="#b6dcfe"/><path d="M24 26c1.652 0 3 1.348 3 3s-1.348 3-3 3-3-1.348-3-3 1.348-3 3-3m0-1c-2.21 0-4 1.79-4 4s1.79 4 4 4 4-1.79 4-4-1.79-4-4-4z" fill="#4788c7"/><path d="M19.5 29a3.5 3.5 0 1 1-7 0 3.5 3.5 0 1 1 7 0z" fill="#b6dcfe"/><path d="M16 26c1.652 0 3 1.348 3 3s-1.348 3-3 3-3-1.348-3-3 1.348-3 3-3m0-1c-2.21 0-4 1.79-4 4s1.79 4 4 4 4-1.79 4-4-1.79-4-4-4z" fill="#4788c7"/><path d="M27.5 17a3.5 3.5 0 1 1-7 0 3.5 3.5 0 1 1 7 0z" fill="#b6dcfe"/><path d="M24 14c1.652 0 3 1.348 3 3s-1.348 3-3 3-3-1.348-3-3 1.348-3 3-3m0-1c-2.21 0-4 1.79-4 4s1.79 4 4 4 4-1.79 4-4-1.79-4-4-4z" fill="#4788c7"/><path d="M19.5 17a3.5 3.5 0 1 1-7 0 3.5 3.5 0 1 1 7 0z" fill="#b6dcfe"/><path d="M16 14c1.652 0 3 1.348 3 3s-1.348 3-3 3-3-1.348-3-3 1.348-3 3-3m0-1c-2.21 0-4 1.79-4 4s1.79 4 4 4 4-1.79 4-4-1.79-4-4-4z" fill="#4788c7"/><path d="M11.5 17a3.5 3.5 0 1 1-7 0 3.5 3.5 0 1 1 7 0z" fill="#b6dcfe"/><path d="M8 14c1.652 0 3 1.348 3 3s-1.348 3-3 3-3-1.348-3-3 1.348-3 3-3m0-1c-2.21 0-4 1.79-4 4s1.79 4 4 4 4-1.79 4-4-1.79-4-4-4z" fill="#4788c7"/><path d="M35.5 17a3.5 3.5 0 1 1-7 0 3.5 3.5 0 1 1 7 0z" fill="#b6dcfe"/><path d="M32 14c1.652 0 3 1.348 3 3s-1.348 3-3 3-3-1.348-3-3 1.348-3 3-3m0-1c-2.21 0-4 1.79-4 4s1.79 4 4 4 4-1.79 4-4-1.79-4-4-4z" fill="#4788c7"/></svg>