<svg xmlns="http://www.w3.org/2000/svg" viewBox="0 0 50 50"><path d="M25 8c-.85 0-1.561.122-2.166.412s-1.074.77-1.348 1.299c-.44.849-.486 1.74-.488 2.63C10.363 14.18 4.262 23.662 4.01 39H2v2h46v-2h-2.01c-.252-15.34-6.353-24.82-16.988-26.658-.002-.89-.049-1.782-.488-2.631a2.982 2.982 0 0 0-1.348-1.299C26.561 8.122 25.849 8 25 8zm0 2c.65 0 1.064.102 1.303.217.239.114.332.219.433.414.14.268.197.816.229 1.459A23.525 23.525 0 0 0 25 12c-.67 0-1.323.036-1.965.09.032-.643.09-1.191.229-1.46.1-.194.194-.299.433-.413.24-.115.652-.217 1.303-.217zm0 8.51L27.49 21H31v3.51L33.49 27 31 29.49V33h-3.51L25 35.49 22.51 33H19v-3.51L16.51 27 19 24.51V21h3.51L25 18.51z"/></svg>