<svg xmlns="http://www.w3.org/2000/svg" viewBox="0 0 50 50"><path style="line-height:normal;text-indent:0;text-align:start;text-decoration-line:none;text-decoration-style:solid;text-decoration-color:#000;text-transform:none;block-progression:tb;isolation:auto;mix-blend-mode:normal" d="M2.947 2.033A1 1 0 0 0 2.25 3.75l44.023 44.023a1 1 0 1 0 1.414-1.414L42.328 41H48v-2h-2.027c-.146-8.648-2.138-15.304-5.684-19.863-2.87-3.69-6.756-5.956-11.287-6.78-.001-.895-.046-1.792-.488-2.646a2.982 2.982 0 0 0-1.348-1.299C26.561 8.122 25.849 8 25 8c-.85 0-1.561.122-2.166.412s-1.074.77-1.348 1.299c-.44.85-.487 1.744-.488 2.637-1.95.35-3.777.974-5.459 1.863L3.664 2.336a1 1 0 0 0-.717-.303zM25 10c.65 0 1.064.102 1.303.217.239.114.332.219.433.414.139.267.197.815.229 1.457A23.317 23.317 0 0 0 25 12c-.667 0-1.32.036-1.965.09.032-.643.09-1.191.229-1.46.1-.194.194-.299.433-.413.24-.115.652-.217 1.303-.217zm0 4c5.75 0 10.395 2.1 13.71 6.363 3.188 4.098 5.114 10.304 5.26 18.637h-3.642L32 30.672V29.9l2.9-2.9-2.9-2.9V20h-4.1L25 17.1 22.1 20h-.772l-4.3-4.3C19.37 14.574 22.037 14 25 14zm-12.82 2.51C6.978 21.024 4.188 28.699 4.018 39H2v2h34.67l-2-2H6.016c.167-9.757 2.768-16.96 7.584-21.08l-1.42-1.41zM25 19.93L27.07 22H30v2.93L32.07 27l-1.87 1.871-7.071-7.07L25 19.93zm-7 2.39v1.78L15.1 27l2.9 2.9V34h4.1l2.9 2.9 2.9-2.9h1.77l-2-2h-.6L25 34.07 22.93 32H20v-2.93L17.93 27 20 24.93v-.61l-2-2z" font-weight="400" font-family="sans-serif" white-space="normal" overflow="visible"/></svg>