<svg xmlns="http://www.w3.org/2000/svg" viewBox="0 0 50 50"><path d="M23.156 2.25c-.242.012-.484.04-.718.063-.864.085-1.68.25-2.438.5h-.031c-.047.015-.11.015-.157.03v.032c-2.042.336-4.3 1.543-7.093 3.875-6.961 5.809-9.73 12.29-10.469 18.156-.738 5.867.504 11.114 1.375 14.594.387 1.543.32 2.617.219 3.5-.051.441-.13.809-.125 1.25.004.441.12 1.027.531 1.438.383.382.984.527 1.406.53.422.005.754-.046 1.157-.093.804-.094 1.843-.168 3.562.281 6.953 1.817 19.664 4.52 32.469-8.281 2.894-2.895 4.61-6.152 4.906-9.313h.031c.004-.03-.004-.062 0-.093.336-1.903.23-4.098-.343-6.438-1.098-4.472-3.61-8.797-7.094-12.281-4.95-4.95-11.063-7.555-16.032-7.75a14.264 14.264 0 0 0-1.156 0zm0 2.063c.34-.008.703-.02 1.063 0 4.32.234 10.086 2.492 14.687 7.093 3.032 3.031 5.282 6.785 6.375 10.594.008.043.02.086.032.125.003.063.015.125.03.188.13.519.407 1.792.313 2.718-.047.461-.187.801-.343.969-.157.168-.356.29-1 .25a.993.993 0 0 0-.727.25.993.993 0 0 0-.336.688c-.07.972-.93 1.738-1.844 1.906-.457.086-.883.02-1.218-.188-.336-.207-.633-.574-.813-1.312a1 1 0 0 0-1.938-.032c-.195.758-.593 1.125-1.187 1.344-.594.219-1.426.215-2.188-.031-.761-.246-1.437-.715-1.843-1.313-.407-.597-.598-1.3-.344-2.25a1.004 1.004 0 0 0-.527-1.093 1.002 1.002 0 0 0-1.192.218c-.468.59-.996.704-1.75.563-.754-.14-1.66-.684-2.406-1.438-.746-.753-1.313-1.695-1.5-2.625-.188-.93-.063-1.804.625-2.656.281-.34.305-.824.063-1.191a1.003 1.003 0 0 0-1.125-.402c-1.051.3-1.875.085-2.625-.47-.75-.554-1.36-1.491-1.688-2.468-.328-.977-.344-1.973-.094-2.625.25-.652.617-1.016 1.594-1.094.398-.039.734-.308.86-.691a1.002 1.002 0 0 0-.297-1.059c-.848-.742-1.254-1.37-1.407-1.812-.152-.442-.105-.703.032-.969.253-.488 1.117-.996 2-1.156.238-.024.468-.024.718-.032zm-4.75 1.03a3.375 3.375 0 0 0 .125 1.782c.168.484.692.96 1.063 1.438-.824.433-1.504 1.042-1.813 1.843-.476 1.246-.383 2.645.063 3.969.445 1.324 1.246 2.582 2.406 3.438.71.523 1.594.785 2.531.875-.285.878-.422 1.773-.25 2.625.282 1.406 1.047 2.695 2.032 3.687.984.992 2.183 1.727 3.468 1.969.594.113 1.219.039 1.813-.125.11.68.36 1.312.718 1.843.704 1.036 1.743 1.727 2.875 2.094 1.133.367 2.387.41 3.5 0a3.867 3.867 0 0 0 1.438-.937c.238.277.453.566.75.75.813.5 1.79.629 2.656.468a4.256 4.256 0 0 0 3.25-2.906 4.16 4.16 0 0 0 .844-.218c-.023.164-.035.343-.063.5a.88.88 0 0 0-.03.093c-.22 2.578-1.677 5.52-4.344 8.188-12.247 12.246-23.688 9.547-30.563 7.75-1.977-.516-3.398-.453-4.313-.344-.425.05-.695.09-.843.094 0-.184.039-.535.093-1 .11-.957.211-2.383-.25-4.219-.863-3.453-2-8.402-1.312-13.844.688-5.441 3.148-11.363 9.75-16.875 1.734-1.445 3.184-2.394 4.406-2.937zm14.469 6.5a1.101 1.101 0 0 0-.75.313c-.734.735-.05 2.637 1.563 4.25 1.613 1.614 3.546 2.328 4.28 1.594.735-.734.02-2.668-1.593-4.281-1.21-1.211-2.578-1.91-3.5-1.875z"/></svg>