<svg xmlns="http://www.w3.org/2000/svg" viewBox="0 0 32 32"><path d="M15.063 4c-.137.008-.223.027-.25.031C14.703 4.051 4 6.047 4 18c0 1.773.203 3.281.375 4.5.309 2.188.438 3.281-.375 4.094L5.406 28c.836-.836 2.16-.691 4.438-.375C11.07 27.797 12.46 28 14 28c12.02 0 13.973-10.734 14-10.906a4.68 4.68 0 0 0 0-.625v-.032c-.082-1.343-.676-4.554-4.281-8.156C19.55 4.113 16.012 3.957 15.062 4zm.5 2c.996.07 3.582.582 6.718 3.719 3.133 3.133 3.645 5.754 3.719 6.719 0 .867-.695 1.562-1.563 1.562a1.565 1.565 0 0 1-1.562-1.563v-.125l-1.938-.375A1.502 1.502 0 0 1 18 15.5c0-.102 0-.21.031-.344l-1.187-1.187C16.71 14 16.602 14 16.5 14a1.5 1.5 0 0 1-1.5-1.5 1.48 1.48 0 0 1 1.094-1.438l-.344-1.968-.188.031c-.859 0-1.562-.7-1.562-1.563S14.703 6 15.563 6zM12.03 7.156c-.015.137-.031.266-.031.407a3.53 3.53 0 0 0 1.594 2.968A3.47 3.47 0 0 0 13 12.5c0 1.77 1.32 3.238 3.031 3.469A3.505 3.505 0 0 0 19.5 19a3.5 3.5 0 0 0 1.969-.594A3.557 3.557 0 0 0 24.437 20c.149 0 .293-.012.438-.031C23.457 22.629 20.391 26 14 26c-1.398 0-2.715-.184-3.875-.344-.996-.14-1.941-.281-2.813-.281-.25 0-.48.008-.718.031.093-.976-.059-2.043-.219-3.187C6.203 21 6 19.633 6 18c0-6.363 3.383-9.418 6.031-10.844zM19.531 9c-.176-.016-.312.031-.406.125-.367.367.176 1.488 1.219 2.531 1.043 1.043 2.164 1.586 2.531 1.219s-.176-1.488-1.219-2.531C20.875 9.563 20.06 9.047 19.531 9z"/></svg>