<svg xmlns="http://www.w3.org/2000/svg" viewBox="0 0 26 26"><path d="M11.875.094c-.66.023-1.262.125-1.781.312-1.059.16-2.332.82-3.969 2.188C-1.915 9.304-.09 17.3.937 21.406c.504 2.004-.222 2.965.22 3.407.44.44 1.152-.325 3.343.25 4.098 1.07 11.262 2.671 18.688-4.75 1.503-1.504 2.39-3.149 2.656-4.72.312-1.124.285-2.542-.094-4.093-.621-2.531-2.07-5.04-4.063-7.031C18.61 1.39 14.715-.011 11.876.094zm.375 1.375c.281.02.59.078.875.156.598.195 1.09.535 1.188 1.094 1.171-.93 3.269-.477 3.562 1.281.977-1.027 3.559 1.172 2.875 2.344 1.879.394 2.746 2.25 2.063 3.375 1.269.195 1.55 1.746 1.062 2.625 1.012 1.11.484 2.922-.375 2.781-.063-.031-.121-.055-.188-.094-.117 1.61-2.488 1.86-3-.187-.613 2.285-4.914 1.117-4.187-1.5-1.559 1.894-5.637-1.66-3.688-4-3.007.836-4.68-4.465-1.78-4.688-2.243-1.902-.516-3.343 1.593-3.187zm4.094 4.812c-.184.008-.328.047-.438.157-.437.437-.02 1.574.938 2.53.957.958 2.093 1.376 2.531.938.438-.437.02-1.543-.938-2.5-.718-.718-1.546-1.144-2.093-1.125z"/></svg>