<svg xmlns="http://www.w3.org/2000/svg" viewBox="0 0 48 48"><path d="M42.91 24.54l-10.406-9.056-9.04-10.421c-5.089.066-10.855 2.906-13.784 5.89-6.145 6.25-5.399 17.57-2.653 23.774.008.023.004.039.016.062 1.05 2.191-.375 5.098.34 5.824a.054.054 0 0 0 .015.012c.004.008.004.012.012.016.727.714 3.63-.715 5.817.34.023.011.039.007.062.015 6.191 2.75 17.5 3.492 23.742-2.656 2.98-2.938 5.82-8.707 5.88-13.8z" fill="#e65100"/><path d="M21.477 10.934c-1.098.125-2.407.488-3.567.945a17.46 17.46 0 0 0-3.398 1.77c-1.043.706-2.13 1.566-2.883 2.5-.813.964-1.45 2.105-1.953 3.312-1 2.426-1.469 5.11-1.653 7.8a41.42 41.42 0 0 0 .278 8.137 41.598 41.598 0 0 1-.98-8.152c-.044-2.75.187-5.55 1.034-8.266.434-1.351 1.028-2.683 1.872-3.89.882-1.25 1.875-2.211 2.992-3.156a19.804 19.804 0 0 1 3.62-2.399c1.317-.668 2.606-1.21 4.192-1.566z" fill="#d84315"/><path d="M24.613 16.637c-1.847.55-3.804 1.492-5.515 2.617-.864.574-1.688 1.2-2.453 1.91a15.424 15.424 0 0 0-2.008 2.344c-1.211 1.722-2.176 3.66-2.98 5.668a40.402 40.402 0 0 0-1.919 6.222 41.168 41.168 0 0 1 1.207-6.46c.582-2.125 1.336-4.227 2.418-6.22a16.68 16.68 0 0 1 1.938-2.859 21.242 21.242 0 0 1 2.445-2.406c1.785-1.473 3.664-2.691 5.906-3.656zm4.184 4.683l-18.34 16.242L26.672 19.2zm11.219 5.649c-.356 1.586-.899 2.875-1.563 4.195a20.106 20.106 0 0 1-2.39 3.621c-.946 1.117-1.899 2.11-3.153 2.996-1.203.844-2.531 1.442-3.883 1.88-2.715.85-5.511 1.081-8.261 1.038a41.52 41.52 0 0 1-8.149-.976 41.09 41.09 0 0 0 8.133.273c2.688-.184 5.371-.652 7.797-1.656 1.203-.504 2.34-1.145 3.305-1.957.925-.758 1.785-1.844 2.488-2.887a17.603 17.603 0 0 0 1.77-3.402c.453-1.16.816-2.469.937-3.567z" fill="#d84315"/><path d="M34.195 24.344c-.96 2.242-2.18 4.125-3.648 5.91a21.562 21.562 0 0 1-2.402 2.45c-.91.773-1.86 1.394-2.856 1.94-1.988 1.086-4.09 1.84-6.21 2.422-2.13.575-4.29.989-6.462 1.215a40.861 40.861 0 0 0 6.223-1.926c2.004-.804 3.937-1.77 5.656-2.984a15.014 15.014 0 0 0 2.34-2.012c.71-.765 1.336-1.59 1.906-2.457 1.125-1.71 2.067-3.668 2.61-5.515z" fill="#d84315"/><path d="M11.766 36.352c-1.871-1.84-3.86-3.2-5.543-3.887.199.808.465 1.594.804 2.344.004.011 0 .02.008.03 1.074 2.782-.351 5.087.375 5.802.727.714 3.63-.715 5.817.34.023.011.039.007.062.015.774.344 1.582.613 2.422.813-.703-1.657-2.078-3.618-3.945-5.457zm30.914-9.321c1.285-5.77-1.676-10.687-6.246-15.3l-9.426 9.44c.87-.038 4.953.712 4.953 4.962 2.644-1.32 4.953-.707 7.078 2.836 1.406-3.309 3.64-1.938 3.64-1.938zM21.105 5.277c5.899-1.117 10.723 1.88 15.329 6.453l-9.43 9.442c.039-.875-.707-4.961-4.953-4.961 1.32-2.652.707-4.961-2.832-7.09 3.304-1.402 1.886-3.844 1.886-3.844z" fill="#fb8c00"/><path d="M34.805 16.777c.547-.547-.043-2.015-1.309-3.285-1.27-1.27-2.738-1.855-3.285-1.312-.543.547.043 2.015 1.312 3.285 1.266 1.27 2.739 1.855 3.282 1.312z" fill="#ef6c00"/></svg>