<svg xmlns="http://www.w3.org/2000/svg" viewBox="0 0 50 50"><path d="M24.52 28.34c-.65-.09-1.31-.33-1.94-.79-.51.06-1.66.26-3.58.88-.77.24-1.67.56-2.7.96-.18.07-.37.09-.56.05-4.62-.9-10.25-1.56-11.28-1.05-.14.07-.3.1-.46.1V7.82l15 15 5.52 5.52zm7.01 7.01c.5 1.57.31 3.2-.19 5.12-.36 1.4-.86 2.32-1.28 2.89-.41.56-.73.78-.73.78-.39.24-.57.69-.45 1.13.12.43.51.73.96.73h5.22c.45 0 .85-.31.97-.75l.99-3.89c.03-.14.04-.28.02-.42-.01-.03-.01-.06-.01-.09l-5.5-5.5zM24 30.23c-.48-.13-.96-.34-1.42-.68-.24.03-.61.08-1.14.2-.5.11-1.15.28-1.95.53 2.13 6.15-4.19 13.99-4.26 14.09-.25.3-.3.71-.13 1.06.16.35.51.57.9.57h3.6c.34 0 .66-.18.85-.47.57-.91 5.55-8.97 5.55-12.5v-2.72c-.63.1-1.32.1-2-.08zm20.25-2.95c1.15-8.26-.57-12.38-2.25-14.4-.02.92-.23 1.84-.65 2.68 1 2.01 1.76 5.52.91 11.53-.47.83-2.26 4.27-2.29 8.9l2 .02c.02-2.46.6-4.56 1.14-6 .44 1.44.89 3.54.89 5.99h2c0-4.41-1.31-7.74-1.75-8.72zm3.46 18.61L36.95 35.13c.32-2.59 1-4.32 1.02-4.34.13-.33.08-.71-.13-.99-2.62-3.42-.8-10.74 1.02-13.42.01 0 .07-.09.07-.09 1.19-1.78 1.4-4.03.55-6.01a6.614 6.614 0 0 0-5-3.91c-1.31-.22-2.45-.28-3.02-.3-1.35-1.01-3.65-1.25-4.84-.95-6.29 1.59-15.8 1.18-18.68 1h-.01L4.11 2.29c-.913-.913-2.335.506-1.42 1.42l43.6 43.6a1.034 1.034 0 0 0 1.42 0c.39-.39.39-1.03 0-1.42z"/></svg>