<svg xmlns="http://www.w3.org/2000/svg" viewBox="0 0 50 50"><path d="M39.438 1.594L1.593 39.437l.687.72c10.45 10.445 27.426 10.448 37.875 0 10.45-10.45 10.45-27.427 0-37.876zM39.374 4.5c8.969 9.727 8.816 24.809-.625 34.25-9.441 9.441-24.523 9.594-34.25.625l1.125-1.125c9.055 8.32 23.16 8.09 31.938-.688 8.777-8.777 9.007-22.882.687-31.937zm-2.531 2.531c7.55 8.29 7.324 21.114-.688 29.125-8.011 8.012-20.84 8.239-29.125.688l5.063-5.063c2.14 1.922 5.066 2.61 8.062 2.188 3.153-.446 6.418-2.043 9.094-4.719 2.676-2.676 4.273-5.941 4.719-9.094.422-2.996-.266-5.922-2.188-8.062zM30.375 13.5c.91 1.047 1.473 2.328 1.656 3.781-.273-.25-.586-.48-.968-.593-1.012-.297-2.262-.051-2.313.125-.05.175.785 1.378 1.844 1.687a2.934 2.934 0 0 0 1.5.031c-.004.438-.032.887-.094 1.344a11.444 11.444 0 0 1-.375 1.625c-.023-.3-.586-1.473-1.563-1.938-1.058-.503-2.44-.433-2.53-.25-.09.188.613 1.665 1.718 2.188 1.066.504 2.223.281 2.375.125-.645 2.14-1.938 4.313-3.813 6.188-2.386 2.386-5.269 3.812-7.937 4.187-.457.063-.906.09-1.344.094a2.934 2.934 0 0 0-.031-1.5c-.309-1.059-1.512-1.895-1.688-1.844-.175.05-.421 1.3-.125 2.313.114.382.344.695.594.968-1.453-.183-2.734-.746-3.781-1.656l.625-.625c.773.387 1.629.434 1.719.344.094-.094.015-.875-.438-1.625l.781-.782c.81.465 1.81.504 1.907.407.101-.102.008-.989-.532-1.782l.47-.468c.812.48 1.808.535 1.905.437.102-.101.036-1.011-.53-1.812l.593-.594c.828.797 2.258.898 2.375.781.117-.117-.012-1.355-.875-2.218l-.031-.032.937-.937.032.031c.863.863 2.101.992 2.218.875.117-.117.016-1.547-.781-2.375l.594-.594c.8.567 1.71.633 1.812.532.098-.098.043-1.094-.437-1.907l.468-.468c.793.539 1.68.632 1.782.53.097-.097.058-1.097-.407-1.905l.782-.782c.75.453 1.531.531 1.625.438.09-.09.043-.946-.344-1.719zm-4.063 7.813c-.05 0-.074.011-.093.03-.145.145.011 1.762.875 2.626.863.863 2.101.992 2.218.875.118-.117.043-1.582-.78-2.407-.723-.722-1.856-1.128-2.22-1.125zm-2.156 2.406c-.05 0-.074.011-.093.031-.145.145.011 1.762.875 2.625.863.863 2.101.992 2.218.875.117-.117.012-1.582-.812-2.406-.723-.723-1.824-1.13-2.188-1.125zm-2.468 2.437c-.184-.011-.31.028-.344.063-.145.144.27 1.488 1.093 2.312.825.824 2.29.899 2.407.782.117-.118-.012-1.356-.875-2.22-.649-.648-1.727-.905-2.282-.937zM19.28 27.22c-.187.086-.261 1.468.219 2.531.484 1.063 1.816 1.695 1.969 1.625.152-.07.472-1.297-.032-2.406-.503-1.11-1.968-1.836-2.156-1.75z"/></svg>