<svg xmlns="http://www.w3.org/2000/svg" viewBox="0 0 50 50"><path d="M26.781 3a29.07 29.07 0 0 0-2.375.125c-6.496.598-11.824 3.61-15.531 7.188C5.168 13.89 3 17.93 3 21.124c0 1.746.766 3.219 2.031 4.125 1.266.906 2.918 1.336 4.875 1.563 2.836.324 6.352.207 10.281-.032-.335 4.586-1.43 11.899-4.53 16.563-.54.808-.864 1.597-.563 2.437.148.418.508.782.875.969.367.188.738.25 1.125.25h14.562c.574 0 1.168-.129 1.594-.531.426-.403.574-.883.688-1.313.07-.258.722-2.515.968-6.031.235-3.352.125-7.965-1.062-13.531 2.785-.407 5.152-.93 7.093-1.657 1.883-.707 3.383-1.609 4.438-2.812C46.43 19.922 47 18.383 47 16.687c0-3.253-2.5-6.816-6.5-9.562-3-2.059-6.906-3.629-11.406-4.031A23.685 23.685 0 0 0 26.78 3zm.032 2c5.054 0 9.382 1.602 12.562 3.781C43.008 11.273 45 14.551 45 16.687c0 1.286-.371 2.266-1.125 3.125-.754.86-1.938 1.618-3.625 2.25-3.375 1.262-8.625 1.97-15.531 2.407-5.828.37-11.032.754-14.594.343-1.781-.203-3.125-.605-3.938-1.187C5.375 23.043 5 22.359 5 21.125c0-2.203 1.828-6.074 5.25-9.375 3.422-3.3 8.363-6.105 14.344-6.656.75-.07 1.496-.094 2.218-.094zm5.03 20.875c1.169 5.43 1.286 9.914 1.063 13.125-.234 3.344-.793 5.227-.906 5.656-.086.324-.168.383-.125.344-.027.004-.082 0-.219 0H17.062c.016-.012-.046-.117.25-.563 3.567-5.363 4.59-13.066 4.907-17.78.867-.055 1.726-.13 2.625-.188 2.554-.16 4.879-.344 7-.594z"/></svg>