<svg xmlns="http://www.w3.org/2000/svg" viewBox="0 0 50 50"><path d="M35 38.82v4.06l-8 1.6V30.82l-2-2v6.7l-10-1.67V22.88l4.88.82-2.45-2.45-2.43-.4v-2.03l-2-2v26.883c0 .489.353.906.836.986l12.003 2.001c.12.02.242.018.361-.006l9.997-2.003A1 1 0 0 0 37 43.7v-2.88l-2-2zm-10 5.7l-10-1.67v-6.97l10 1.67v6.97zm22.71 1.37L37 35.18V14.34l-5-6V4.703a1 1 0 0 0-.91-.996l-11-.998a1 1 0 0 0-1.09.996V7.33l-4.55 5.3L4.11 2.29c-.39-.39-1.03-.39-1.42 0s-.39 1.03 0 1.42l43.6 43.6c.2.19.45.29.71.29s.51-.1.71-.29c.39-.39.39-1.03 0-1.42zM34.16 14.05l-6.08 1.21 3.04-4.86 3.04 3.65zM21 4.8l9 .81v2l-9-.82V4.8zm4 18.38l-6.76-6.76L25 17.55v5.63zM15.92 14l4.51-5.26 8.86.81-3.78 6.05-9.59-1.6zM35 33.18l-8-8v-7.66l8-1.6v17.26z"/></svg>