<svg xmlns="http://www.w3.org/2000/svg" viewBox="0 0 50 50"><path d="M47.71 47.37c-.2.19-.45.29-.71.29s-.51-.1-.71-.29L2.63 3.71c-.39-.39-.39-1.03 0-1.42s1.03-.39 1.42 0L14.4 12.64l3.34-3.91L29.7 9.81l-4.12 5.73-9.93-1.65 2.43 2.43L25 17.47v5.77l2 2v-7.8l10-1.99v19.79l10.71 10.71c.39.39.39 1.03 0 1.42zM32.02 10.02l-3.74 5.13 7.9-1.58-4.16-3.55zM15 21.8l3.65.61L13 16.76v26.86a1 1 0 0 0 .84.99L25 46.47V36.45l-10-1.67V21.8zm12 24.64l9.2-1.83h.01c.45-.1.79-.5.79-.98v-2.87l-10-10v15.68zM20.09 2.639a1 1 0 0 0-1.09.996V6.83l12.98 1.15H32V4.633a1 1 0 0 0-.91-.996l-11-.998z"/></svg>