<svg xmlns="http://www.w3.org/2000/svg" viewBox="0 0 64 64"><linearGradient id="a" gradientUnits="userSpaceOnUse" x1="41" y1="47.875" x2="41" y2="54.011" spreadMethod="reflect"><stop offset="0" stop-color="#6dc7ff"/><stop offset="1" stop-color="#e6abff"/></linearGradient><circle cx="41" cy="51" r="3" fill="url(#a)"/><linearGradient id="b" gradientUnits="userSpaceOnUse" x1="16" y1="4.667" x2="16" y2="58.975" spreadMethod="reflect"><stop offset="0" stop-color="#1a6dff"/><stop offset="1" stop-color="#c822ff"/></linearGradient><path d="M20 32h-1V13.722c.595-.347 1-.985 1-1.722V8c0-1.103-.897-2-2-2h-4c-1.103 0-2 .897-2 2v4c0 .737.405 1.375 1 1.722V32h-1c-1.654 0-3 1.346-3 3v16c0 3.859 3.141 7 7 7s7-3.141 7-7V35c0-1.654-1.346-3-3-3zM14 8h4v4h-4V8zm1 6h2v18h-2V14zm-3 20h8a1 1 0 0 1 1 1v3H11v-3a1 1 0 0 1 1-1zm7 16V40h2v10h-2zm-8 0V40h2v10h-2zm4-10h2v10h-2V40zm1 16a5.009 5.009 0 0 1-4.899-4h9.798A5.009 5.009 0 0 1 16 56z" fill="url(#b)"/><linearGradient id="c" gradientUnits="userSpaceOnUse" x1="41.003" y1="4.667" x2="41.003" y2="58.975" spreadMethod="reflect"><stop offset="0" stop-color="#1a6dff"/><stop offset="1" stop-color="#c822ff"/></linearGradient><path d="M55 17c0-6.374-4.206-11-10-11h-1v9a1 1 0 0 1-1 1h-4a1 1 0 0 1-1-1V6h-1c-3.082 0-5.79 1.292-7.625 3.637-2.209 2.823-2.929 6.931-1.924 10.988.989 3.999 4.398 6.888 8.483 7.319l-1.533 23.003a6.638 6.638 0 0 0 1.77 4.958A6.639 6.639 0 0 0 41 58a6.644 6.644 0 0 0 4.833-2.095 6.542 6.542 0 0 0 1.767-4.952l-1.533-23.007C51.304 27.416 55 22.977 55 17zm-9.999 9h-1.069l1.672 25.086a4.56 4.56 0 0 1-1.231 3.452A4.578 4.578 0 0 1 41 56a4.569 4.569 0 0 1-3.368-1.461 4.568 4.568 0 0 1-1.234-3.459L38.067 26h-1.068c-3.625 0-6.753-2.408-7.606-5.855-.858-3.466-.275-6.933 1.558-9.274 1.268-1.62 2.999-2.582 5.05-2.814V15c0 1.654 1.346 3 3 3h4c1.654 0 3-1.346 3-3V8.058c4.17.486 7 4.027 7 8.942-.001 5.299-3.29 9-8 9z" fill="url(#c)"/><linearGradient id="d" gradientUnits="userSpaceOnUse" x1="41" y1="4.667" x2="41" y2="58.975" spreadMethod="reflect"><stop offset="0" stop-color="#1a6dff"/><stop offset="1" stop-color="#c822ff"/></linearGradient><rect x="40" y="31" width="2" height="14" fill="url(#d)"/></svg>