<svg xmlns="http://www.w3.org/2000/svg" viewBox="0 0 40 40"><path d="M26.434 33.098L20.5 28.19V26.5h7.11c.538 1.84 1.964 2 3.39 2 2.953 0 4.5-2.266 4.5-4.5 0-3.422-1.703-3.934-2.723-3.934-.355 0-.75.063-1.172.184.278-.953 1.086-1.75 2.395-1.75 2.816 0 4.5 2.797 4.5 5.5 0 8.535-6.586 9.492-9.46 9.5z" fill="#b6dcfe"/><path d="M34 19c2.504 0 4 2.543 4 5 0 8.05-6.18 8.984-8.926 9l-2.43-.375L21 27.953V27h6.254c.789 2 2.68 2 3.746 2 3.281 0 5-2.516 5-5 0-4.004-2.254-4.434-3.223-4.434-.074 0-.152 0-.23.008C32.87 19.23 33.352 19 34 19m0-1c-1.871 0-3 1.418-3 3 .688-.297 1.277-.434 1.777-.434C34.324 20.566 35 21.891 35 24c0 2.105-1.438 4-4 4-1.492 0-2.633-.168-3-2h-8v2.426l6.219 5.144L29 34c5.438 0 10-2.875 10-10 0-2.875-1.832-6-5-6z" fill="#4788c7"/><path d="M10.96 33.5c-2.874-.008-9.46-.965-9.46-9.5 0-2.703 1.684-5.5 4.5-5.5 1.309 0 2.117.797 2.395 1.75a4.275 4.275 0 0 0-1.172-.184c-1.02 0-2.723.512-2.723 3.934 0 2.234 1.547 4.5 4.5 4.5 1.426 0 2.852-.16 3.39-2h7.11v1.691l-5.934 4.907z" fill="#b6dcfe"/><path d="M6 19c.648 0 1.129.23 1.457.574-.078-.008-.156-.008-.234-.008-1.106 0-1.985.485-2.543 1.407C4.227 21.71 4 22.727 4 24c0 2.484 1.719 5 5 5 1.066 0 2.957 0 3.746-2H19v.953l-5.645 4.672-2.43.375C8.18 32.984 2 32.05 2 24c0-2.457 1.496-5 4-5m0-1c-3.168 0-5 3.125-5 6 0 7.125 4.563 10 10 10l2.781-.43L20 28.426V26h-8c-.367 1.832-1.508 2-3 2-2.563 0-4-1.895-4-4 0-2.11.68-3.434 2.223-3.434.5 0 1.09.137 1.777.434 0-1.582-1.129-3-3-3z" fill="#4788c7"/><path d="M32 38.5c-4.844 0-6.918-2.523-8.582-4.555C22.34 32.633 21.406 31.5 20 31.5c-1.406 0-2.34 1.133-3.418 2.445C14.918 35.977 12.844 38.5 8 38.5c-2.969 0-4.973-1.398-5.906-3.156C3.004 36.02 4.133 36.5 5 36.5c2.633 0 4.758-1.55 5.355-2.145C11.937 32.77 12.5 30.031 12.5 28v-2c0-2.566-.75-4.73-1.477-6.824C10.273 17.012 9.5 14.773 9.5 12 9.5 6.21 14.21 1.5 20 1.5S30.5 6.21 30.5 12c0 2.773-.773 5.012-1.523 7.176C28.25 21.27 27.5 23.434 27.5 26v2c0 2.031.563 4.77 2.145 6.355.597.594 2.722 2.145 5.355 2.145.867 0 1.996-.48 2.906-1.156C36.973 37.102 34.97 38.5 32 38.5z" fill="#dff0fe"/><path d="M20 2c5.516 0 10 4.484 10 10 0 2.688-.727 4.79-1.496 7.012C27.766 21.145 27 23.352 27 26v2c0 2.133.602 5.016 2.293 6.707C30.086 35.5 32.301 37 35 37c.27 0 .57-.043.883-.121C34.91 37.563 33.605 38 32 38c-4.605 0-6.598-2.422-8.195-4.371C22.69 32.277 21.645 31 20 31s-2.691 1.277-3.805 2.629C14.598 35.579 12.605 38 8 38c-1.605 0-2.91-.438-3.883-1.121.313.078.613.121.883.121 2.7 0 4.914-1.5 5.707-2.293C12.398 33.016 13 30.133 13 28v-2c0-2.648-.766-4.855-1.504-6.988C10.726 16.789 10 14.687 10 12c0-5.516 4.484-10 10-10m0-1C13.703 1 9 6.227 9 12c0 5.582 3 8.918 3 14v2c0 2.094-.613 4.613-2 6-.594.594-2.574 2-5 2-1.52 0-4-1.754-4-3 0 3.148 2.703 6 7 6 8.195 0 8.922-7 12-7 3.078 0 3.805 7 12 7 4.297 0 7-2.852 7-6 0 1.246-2.48 3-4 3-2.426 0-4.406-1.406-5-2-1.387-1.387-2-3.906-2-6v-2c0-5.082 3-8.418 3-14 0-5.773-4.703-11-11-11z" fill="#4788c7"/><path d="M25 18c0-1.656-.895-3-2-3s-2 1.344-2 3 .895 3 2 3 2-1.344 2-3zm-6 0c0-1.656-.895-3-2-3s-2 1.344-2 3 .895 3 2 3 2-1.344 2-3z" fill="#4788c7"/></svg>