<svg xmlns="http://www.w3.org/2000/svg" viewBox="0 0 50 50"><path style="line-height:normal;text-indent:0;text-align:start;text-decoration-line:none;text-decoration-style:solid;text-decoration-color:#000;text-transform:none;block-progression:tb;isolation:auto;mix-blend-mode:normal" d="M41.064 3C33.03 3 28.628 6.189 26.406 9.428a13.526 13.526 0 0 0-1.36 2.533c-.988-2.456-2.392-3.717-2.392-3.717l-1.308 1.512S24 11.964 24 17h2v-.02a18.68 18.68 0 0 0 6.236-1.218c.436-.168.88-.367 1.325-.584.607.334 1.191.702 1.748 1.101A1 1 0 0 0 35 17a1 1 0 0 0 1 1 1 1 0 0 0 .848-.469c.52.477 1.008.985 1.46 1.52A1 1 0 0 0 38 19a1 1 0 0 0-1 1 1 1 0 0 0 1 1 1 1 0 0 0 1-1 1 1 0 0 0-.004-.082c.496.676.934 1.39 1.316 2.135A1 1 0 0 0 40 22a1 1 0 0 0-1 1 1 1 0 0 0 1 1 1 1 0 0 0 .918-.607c.226.567.42 1.15.576 1.746A1 1 0 0 0 41 26a1 1 0 0 0 .861.99c.088.66.139 1.329.139 2.01 0 .683-.06 1.351-.148 2.012A1 1 0 0 0 41 32a1 1 0 0 0 .482.855 15.189 15.189 0 0 1-.57 1.739A1 1 0 0 0 40 34a1 1 0 0 0-1 1 1 1 0 0 0 1 1 1 1 0 0 0 .295-.045c-.38.738-.806 1.451-1.297 2.121A1 1 0 0 0 39 38a1 1 0 0 0-1-1 1 1 0 0 0-1 1 1 1 0 0 0 1 1 1 1 0 0 0 .303-.049 16.418 16.418 0 0 1-1.457 1.52A1 1 0 0 0 36 40a1 1 0 0 0-1 1 1 1 0 0 0 .3.713 17.235 17.235 0 0 1-4.302 2.246A1 1 0 0 0 30 43a1 1 0 0 0-1 1 1 1 0 0 0 .139.504c-.905.213-1.835.363-2.791.434A1 1 0 0 0 27 44a1 1 0 0 0-1-1 1 1 0 0 0-1 1 1 1 0 0 0 .742.965c-.248.01-.491.035-.742.035-.827 0-1.632-.075-2.426-.182A1 1 0 0 0 23 44a1 1 0 0 0-1-1 1 1 0 0 0-1 1 1 1 0 0 0 .188.582 17.62 17.62 0 0 1-2.19-.625A1 1 0 0 0 18 43a1 1 0 0 0-.678.266c-5.509-2.631-9.276-7.99-9.312-14.178v-.004a1 1 0 0 0-.004-.201c.058-7.565 5.712-13.922 13.336-15.494-.364-.911-.783-1.511-1.049-1.832C12.371 13.465 6.505 20.077 6.045 28H6v1c0 9.961 8.549 18 19 18s19-8.039 19-18c0-6.251-3.372-11.756-8.46-14.977 2.755-1.89 5.307-4.947 6.495-9.785A1 1 0 0 0 41.065 3zm-1.49 2.145c-1.704 5.075-4.965 7.562-8.056 8.75-2.409.925-4.198 1.044-5.274 1.06.158-.988.517-2.508 1.813-4.396 1.746-2.547 5.099-5.038 11.517-5.414zM34 19a1 1 0 0 0-1 1 1 1 0 0 0 1 1 1 1 0 0 0 1-1 1 1 0 0 0-1-1zm2 3a1 1 0 0 0-1 1 1 1 0 0 0 1 1 1 1 0 0 0 1-1 1 1 0 0 0-1-1zm-2 3a1 1 0 0 0-1 1 1 1 0 0 0 1 1 1 1 0 0 0 1-1 1 1 0 0 0-1-1zm4 0a1 1 0 0 0-1 1 1 1 0 0 0 1 1 1 1 0 0 0 1-1 1 1 0 0 0-1-1zm-2 3a1 1 0 0 0-1 1 1 1 0 0 0 1 1 1 1 0 0 0 1-1 1 1 0 0 0-1-1zm4 0a1 1 0 0 0-1 1 1 1 0 0 0 1 1 1 1 0 0 0 1-1 1 1 0 0 0-1-1zm-6 3a1 1 0 0 0-1 1 1 1 0 0 0 1 1 1 1 0 0 0 1-1 1 1 0 0 0-1-1zm4 0a1 1 0 0 0-1 1 1 1 0 0 0 1 1 1 1 0 0 0 1-1 1 1 0 0 0-1-1zm-6 3a1 1 0 0 0-1 1 1 1 0 0 0 1 1 1 1 0 0 0 1-1 1 1 0 0 0-1-1zm4 0a1 1 0 0 0-1 1 1 1 0 0 0 1 1 1 1 0 0 0 1-1 1 1 0 0 0-1-1zm-10 3a1 1 0 0 0-1 1 1 1 0 0 0 1 1 1 1 0 0 0 1-1 1 1 0 0 0-1-1zm4 0a1 1 0 0 0-1 1 1 1 0 0 0 1 1 1 1 0 0 0 1-1 1 1 0 0 0-1-1zm4 0a1 1 0 0 0-1 1 1 1 0 0 0 1 1 1 1 0 0 0 1-1 1 1 0 0 0-1-1zm-14 3a1 1 0 0 0-1 1 1 1 0 0 0 1 1 1 1 0 0 0 1-1 1 1 0 0 0-1-1zm4 0a1 1 0 0 0-1 1 1 1 0 0 0 1 1 1 1 0 0 0 1-1 1 1 0 0 0-1-1zm4 0a1 1 0 0 0-1 1 1 1 0 0 0 1 1 1 1 0 0 0 1-1 1 1 0 0 0-1-1zm4 0a1 1 0 0 0-1 1 1 1 0 0 0 1 1 1 1 0 0 0 1-1 1 1 0 0 0-1-1z"/></svg>