<svg xmlns="http://www.w3.org/2000/svg" viewBox="0 0 64 64"><path d="M48.441 4.992c-4.523-.066-9.582 2.344-12.55 5.313-3.649 3.648-3.575 7.5-2.207 12.11l-5.512 5.51-11.625-11.624c-.008-.067-.004-.137-.016-.203l-.554-2.645a2.017 2.017 0 0 0-.868-1.265L8.055 7.601a2.02 2.02 0 0 0-2.508.265L3.863 9.551a2.009 2.009 0 0 0-.261 2.5l4.507 6.972c.282.438.72.747 1.23.864l2.735.629c.074.015.149.011.223.02l11.629 11.632-6.79 6.797c-3.84-.371-7.491 1.226-9.847 4.336-2.969 3.926-2.898 9.566.172 13.422a11.07 11.07 0 0 0 8.008 4.164 11.012 11.012 0 0 0 8.402-3.207 10.903 10.903 0 0 0 3.16-8.82l4.395-4.391c.23.765.629 1.48 1.21 2.062l13.43 13.438a4.998 4.998 0 0 0 3.54 1.457 4.982 4.982 0 0 0 3.535-1.457l2.828-2.832a5.005 5.005 0 0 0 0-7.07L42.53 36.628c-.578-.578-1.293-.973-2.058-1.207l3.105-3.11c4.61 1.364 8.465 1.442 12.113-2.207 3.645-3.644 6.457-10.445 4.86-15.523a.994.994 0 0 0-.715-.672c-.34-.082-.7.02-.945.266l-6.239 6.238a.982.982 0 0 1-.965.258l-1.093-.293a7.02 7.02 0 0 1-4.953-4.95l-.293-1.093a.993.993 0 0 1 .261-.965l6.25-6.254c.246-.246.344-.601.266-.941a1.006 1.006 0 0 0-.672-.719c-.953-.305-1.969-.45-3.012-.465zM48.355 7c.258.004.512.012.762.031l-4.922 4.922a3.002 3.002 0 0 0-.773 2.899l.293 1.097a9.026 9.026 0 0 0 6.363 6.364l1.094.292a2.995 2.995 0 0 0 2.894-.777l4.907-4.906c.308 4-1.946 9.02-4.692 11.765-3.117 3.118-6.277 2.922-10.683 1.54a1.002 1.002 0 0 0-1.004.246L25.277 47.789a.99.99 0 0 0-.28.848c.398 2.836-.528 5.617-2.54 7.629a9.02 9.02 0 0 1-6.875 2.625c-2.594-.149-4.922-1.36-6.559-3.414-2.507-3.149-2.566-7.762-.14-10.965 1.75-2.309 4.363-3.602 7.172-3.602.43 0 .867.031 1.304.09a.993.993 0 0 0 .844-.281L35.52 23.406a1 1 0 0 0 .25-1.011c-1.383-4.403-1.579-7.56 1.539-10.676C39.895 9.133 44.489 6.996 48.355 7zM6.961 9.281l7.059 4.582.554 2.645-2.058 2.055-2.73-.625-4.509-6.973zm8.7 8.965L26.757 29.34l-1.414 1.414L14.25 19.66l.7-.695zm23.765.25a1 1 0 0 0-.707 1.707l7.074 7.07a.993.993 0 0 0 1.41 0 .993.993 0 0 0 0-1.414l-7.066-7.07a1.009 1.009 0 0 0-.711-.293zm-2.828 8.484a1 1 0 0 0-.707 1.707l1.418 1.415a.994.994 0 0 0 .707.293 1 1 0 0 0 .707-1.707l-1.414-1.415a1.009 1.009 0 0 0-.711-.293zm-3.535 3.536a.98.98 0 0 0-.704.297.988.988 0 0 0 0 1.41l1.41 1.418c.196.191.454.293.711.293.254 0 .512-.102.708-.293.39-.395.39-1.024 0-1.418l-1.418-1.41a.982.982 0 0 0-.708-.297zM29.53 34.05a.993.993 0 0 0-.707.293.997.997 0 0 0 0 1.418l1.41 1.41c.196.195.453.297.707.297.258 0 .516-.102.711-.297a.995.995 0 0 0 0-1.41l-1.418-1.418a.991.991 0 0 0-.703-.293zm9.813 3.164a2.908 2.908 0 0 1 1.777.832L54.555 51.48a2.999 2.999 0 0 1 0 4.243l-2.832 2.828a2.994 2.994 0 0 1-4.239 0L34.047 45.113c-.64-.64-.926-1.547-.824-2.441l5.449-5.453a3.22 3.22 0 0 1 .672-.004zm-13.348.375c-.258 0-.512.094-.71.289a1.004 1.004 0 0 0 0 1.418l1.417 1.41c.192.195.45.293.703.293a.987.987 0 0 0 .707-.293.988.988 0 0 0 0-1.41l-1.41-1.418c-.2-.195-.453-.29-.707-.29zm-3.539 3.535c-.254 0-.508.098-.707.293a.995.995 0 0 0 0 1.41l1.414 1.418a1.006 1.006 0 0 0 1.414 0c.39-.394.39-1.023 0-1.418l-1.414-1.41a1 1 0 0 0-.707-.293zm18.664.16a1.004 1.004 0 0 0-.71 1.71l9.901 9.9c.196.195.45.292.708.292a1 1 0 0 0 .707-1.707l-9.899-9.902a1.007 1.007 0 0 0-.707-.293zm-2.828 2.828a1.004 1.004 0 0 0-.71 1.71l9.901 9.9c.192.195.45.293.703.293a.987.987 0 0 0 .708-.293.993.993 0 0 0 0-1.414L39 44.406a1.007 1.007 0 0 0-.707-.293zm-20.988.34a.976.976 0 0 0-.258.035l-4.465 1.196a1.009 1.009 0 0 0-.707.707l-1.191 4.46a1 1 0 0 0 .254.965l3.265 3.266a.996.996 0 0 0 .707.293c.09 0 .176-.012.262-.031l4.46-1.2a.995.995 0 0 0 .708-.706l1.195-4.458a1.007 1.007 0 0 0-.258-.968l-3.265-3.266a1.03 1.03 0 0 0-.707-.293zm-.301 2.113l2.45 2.45-.895 3.347-3.348.899-2.45-2.45.895-3.347z"/></svg>