<svg xmlns="http://www.w3.org/2000/svg" viewBox="0 0 24 24"><path d="M6 2c-.14.04-3 2.59-3 4 0 .672.234 1.055.656 1.594.66.754 1.438 1.18 1.969 1.468.14.075.242.149.375.22V20c0 1.102.898 2 2 2 1.102 0 2-.898 2-2V9.281c.133-.074.234-.14.375-.219.031-.011 1.398-.703 2.031-1.53C12.801 7.011 13 6.64 13 6c0-1.41-2.86-3.96-3-4v3s-.89.582-2 .594C6.89 5.582 6 5 6 5zm11 0l-1 3 1 1v7h-1c-.55 0-1 .45-1 1s.45 1 1 1v5c0 1.102.898 2 2 2 1.102 0 2-.898 2-2v-5c.55 0 1-.45 1-1s-.45-1-1-1h-1V6l1-1-1-3zm5.844 7.156c-.094.078-.203.14-.313.219.102-.078.219-.133.313-.219z"/></svg>