<svg xmlns="http://www.w3.org/2000/svg" viewBox="0 0 48 48"><path d="M41.746 15.96c0-2.558-35.492-2.558-35.492 0 0 1.407 3.367 8.97 3.86 10.028 1.011 2.18 5.363 5.403 13.886 5.403s12.883-2.985 13.887-5.403c.41-.98 3.86-8.62 3.86-10.027z" fill="#fca538"/><path d="M43 14.086C43 9.07 34.492 5 24 5S5 9.07 5 14.086c0 5.02 8.508 9.09 19 9.09s19-4.07 19-9.09z" fill="#ffb74d"/><path d="M24 20.695c-9.613 0-17.555-3.414-18.82-7.847-.114.406-.18.816-.18 1.238 0 5.02 8.508 9.09 19 9.09s19-4.07 19-9.09c0-.422-.066-.832-.18-1.238-1.265 4.433-9.207 7.847-18.82 7.847z" fill="#ffc268"/><path d="M37.723 13.445c0-2.918-6.145-5.28-13.723-5.28-7.578 0-13.723 2.362-13.723 5.28 0 2.914 6.145 5.278 13.723 5.278 7.578 0 13.723-2.364 13.723-5.278z" fill="#fb8d03"/><path d="M19.813 9.484c.234 1.149-1.016 1.164-1.305 1.954-.113.308.015.675-.14.968-.141.27-.473.375-.774.406-.528.051-1.055-.042-1.574-.14-.743-.137-1.5-.18-2.23-.387-.661-.187-1.231-.914-1.856-.883-.258.016-.59-.035-.645-.285-.059-.258.234-.437.438-.613.156-.137.27-.309.402-.473.707-.875 1.719-1.027 2.684-1.48.453-.211.808-.489 1.308-.625.379-.11.762-.215 1.14-.32.364-.102.778-.2 1.098 0 .368.222.426.718.7 1 .296.304.656.398.753.878zm10.558-.75c.059.063.121.121.2.18.32.242.656.418.929.727.04.046.082.101.086.164.004.129-.148.199-.273.222-.375.075-.766.047-1.141.11-.29.043-.563.14-.836.238-.45.156-.906.316-1.3.586-.34.23-.638.539-1.028.66s-.922-.066-.957-.476c-.031-.344.297-.653.246-.993-.188-1.156-2.48-.543-3.098-1.011-.086-.067-.156-.16-.152-.266.012-.156.18-.25.328-.305.656-.246 1.32-.289 1.938-.61a4.56 4.56 0 0 1 2.207-.53c.8.011 1.84.164 2.421.777.172.18.274.36.43.527zm7.754 4.489a1.463 1.463 0 0 1-.078.375c-.293.863-1.484 1.87-2.356 2.14-.336.102-.793-.058-.824-.41-.027-.297.258-.562.211-.855-.16-.993-2.133-.47-2.664-.871-.07-.055-.137-.137-.129-.23.008-.134.153-.216.278-.263.414-.152.855-.21 1.269-.355.563-.195.676-.043 1.195.254.121.066.25.137.387.14.234.012.43-.152.625-.285.602-.406 2.164-.918 2.086.36zm-13.871.304a.972.972 0 0 1-.047.215c-.156.457-.598.844-1.004 1.078-.469.274-.93.114-1.34-.23a1.963 1.963 0 0 1-.316-.356c-.031-.035-.059-.074-.086-.109-.07-.09-.145-.23-.242-.29-.082-.054-.2-.026-.285-.089-.04-.031-.079-.082-.075-.133.004-.082.09-.125.164-.152.239-.09.497-.125.735-.207.293-.102.625-.059.926-.031.3.027.449.011.722-.086.371-.13.88-.133.848.39zm-7.586 3.192a.594.594 0 0 1-.094.195c-.273.383-.894.543-1.449.57-.64.036-1.191-.367-1.656-.925a3.582 3.582 0 0 1-.34-.528c-.031-.05-.063-.101-.094-.156-.074-.129-.14-.305-.254-.418-.094-.094-.246-.129-.344-.238-.046-.055-.085-.121-.074-.176.02-.074.133-.078.23-.07.321.035.65.132.97.172.386.05.796.265 1.175.453.375.18.563.242.926.285.492.058 1.133.32 1.004.836z" fill="#795548"/><path d="M41.152 37.684c-.672-.22-26.949-6.18-27.465-6.282-.519-.101-2.507-.332-3.093 1.996-.438 1.75.586 2.676 1.363 2.844.527.113 26.676 6.418 27.422 6.617 1.05.282 3.02.344 3.535-1.797.535-2.226-.664-3.015-1.762-3.378z" fill="#fca538"/><path d="M41.152 37.684c-.672-.22-1.785-.016-2.367 2.312-.437 1.75-.152 2.664.594 2.863 1.05.282 3.016.344 3.531-1.797.54-2.226-.66-3.015-1.758-3.378z" fill="#ffb74d"/><path d="M11.977 33.805s28.472 6.23 29.101 6.347c-.894-.203-1.086-.699-.988-1.097.137-.543.707-.637 1.043-.543.89.242 1.101 1.453.906 2.168-.195.715-1.031 1.742-1.754 1.543-.543-.153-.828-.57-.691-.97.156-.452.64-.62 1.168-.476-.313-.32-28.785-6.972-28.785-6.972z" fill="#795548"/></svg>