<svg xmlns="http://www.w3.org/2000/svg" viewBox="0 0 48 48"><path d="M12.3 40.8c.098-.1 1.302-1.402 3.2-3.402 2.8-2.898 15-15.898 15.2-16.097.902-.903 5.198 2.398 8.8-1.2 2.3-2.3 3.102-5.203 2.102-8.703L37 16s-1.7 0-3.398-1.602C32 12.7 32 11 32 11l4.602-4.5c-3.301-1-6.5-.2-8.801 2.102-3.5 3.5-.403 7.898-1.301 8.796C26.3 17.5 9.2 33.801 9 34c-1.7 1.602-1.8 1.7-1.898 1.7-1.403 1.5-1.5 3.902-.102 5.3 1.398 1.398 3.8 1.3 5.3-.2zM10 36.5c.8 0 1.5.7 1.5 1.5s-.7 1.5-1.5 1.5-1.5-.7-1.5-1.5.602-1.5 1.5-1.5z" fill="#607d8b"/><path d="M40 37L14.5 11.7 12 8 7.398 6 6 7.398 8 12l3.7 2.5 25.5 25.3z" fill="#b0bec5"/><path d="M26.5 20.8c-2.102-5-3.3-2.3-5.7 0-2.3 2.302-5 3.5 0 5.7 4.9 2.102 10.302 11.7 12.4 13.898 2.1 2.102 4.698 2.301 7.1 0 2.302-2.296 2.098-4.898 0-7.097-2.1-2.102-11.698-7.5-13.8-12.5z" fill="#ffc107"/><path d="M20.8 20.8c2.302-2.3 3.5-5 5.7 0l-5.7 5.7c-4.902-2.102-2.3-3.3 0-5.7z" fill="#ff9800"/></svg>