<svg xmlns="http://www.w3.org/2000/svg" viewBox="0 0 48 48"><path d="M22 34c-.11-.184-2-4.066-2-9 0-7.172 5.332-11.305 8.813-13.563C27.887 11.207 23 10 19.113 10 12.668 10 6 15.582 6 24.926c0 7.054 3.336 12.187 9.914 15.262C17.121 40.75 22.633 42.495 24 43c-.05-3.23-1.844-8.73-2-9z" fill="#ff5252"/><path d="M26 12.055S23.937.668 8 5c7 14 18 7.055 18 7.055z" fill="#4caf50"/><path d="M24.25 12.66c-1.809-2.37-4.363-4.152-7.195-5.39a27.688 27.688 0 0 0-4.414-1.497C11.12 5.398 9.57 5.117 8 5c1.578-.05 3.16.066 4.734.281 1.575.223 3.141.567 4.672 1.051a22.034 22.034 0 0 1 4.45 1.953 17.578 17.578 0 0 1 3.894 3.055z" fill="#2e7d32"/><path d="M23 6s3 2 3 5" fill="none" stroke-width="2" stroke-linecap="round" stroke="#795548"/><path d="M29.145 10c-.239 0-.489.02-.739.035C24.43 10.387 17 14 17 25c0 13.344 7.223 19 8.031 19 .301.004.457-.195.594-.457.406-.785 1.54-1.238 3.105-1.867 1-.399 2.13-.852 3.391-1.504C39.321 36.418 42 31 42 24.098 42 15.664 36.832 10 29.145 10z" fill="#ff9e80"/><path d="M19.719 37.676c-.078-.156-.157-.313-.235-.477-.125-.265-.242-.547-.359-.828a20.612 20.612 0 0 1-.563-1.48c-.093-.262-.18-.532-.261-.805a26.338 26.338 0 0 1-.246-.84c-.086-.312-.164-.64-.242-.969-.063-.277-.13-.554-.188-.847a28.902 28.902 0 0 1-.2-1.145c-.046-.277-.097-.547-.132-.832a25.91 25.91 0 0 1-.145-1.406c-.023-.246-.054-.485-.07-.738A33.812 33.812 0 0 1 17 25c0-.613.031-1.195.074-1.762.012-.129.02-.254.031-.379.051-.53.122-1.047.207-1.539.02-.117.047-.226.07-.343.079-.395.169-.778.266-1.149.036-.129.067-.258.106-.383.117-.402.25-.785.394-1.16.063-.164.13-.32.196-.476.117-.274.238-.536.363-.79.121-.242.254-.476.383-.706a10.692 10.692 0 0 1 .688-1.078c.093-.133.19-.258.284-.387.32-.414.653-.801.997-1.157-.446.055-.91.086-1.391.086-.527 0-1.078-.039-1.637-.125-1.558-.238-3.21-.847-4.843-2.054a13.346 13.346 0 0 0-2.508 1.855c1.945 1.629 3.941 2.516 5.797 2.953C15.567 18.574 15 21.348 15 25c0 6.906 4.703 13.242 5.18 13.578l-.035-.062c-.145-.27-.286-.551-.426-.84z" fill="#e53935"/></svg>