<svg xmlns="http://www.w3.org/2000/svg" viewBox="0 0 40 40"><path d="M28.09 38.5c-7.496 0-18.59-6.07-18.59-19.102 0-5.968 4.258-7.898 6.316-7.898 4.618 0 6.86 2.953 9.032 5.813.632.835 1.234 1.625 1.886 2.332 2.215 2.398 4.563 3.675 6.633 4.804 2.98 1.625 5.133 2.797 5.133 6.5 0 5.188-5.395 7.551-10.41 7.551z" fill="#b6dcfe"/><path d="M15.816 12c4.368 0 6.536 2.855 8.633 5.613.645.848 1.25 1.649 1.918 2.371 2.274 2.461 4.656 3.758 6.762 4.907C36.168 26.547 38 27.543 38 30.949 38 35.793 32.863 38 28.09 38 20.797 38 10 32.09 10 19.398 10 13.808 13.922 12 15.816 12m0-1C13.203 11 9 13.445 9 19.398 9 32.285 19.684 39 28.09 39 33.926 39 39 36.082 39 30.95c0-6.65-6.477-5.774-11.898-11.645C24.234 16.199 22.066 11 15.816 11z" fill="#4788c7"/><path d="M31.5 32.7c-9.363-2.048-16.809-8.458-19.809-18.66" fill="none" stroke-linecap="round" stroke-linejoin="round" stroke="#4788c7" stroke-miterlimit="10"/><path d="M9.398 30.5C3.43 30.5 1.5 26.242 1.5 24.184c0-4.618 2.953-6.86 5.813-9.032.835-.636 1.625-1.234 2.332-1.886 2.398-2.215 3.68-4.563 4.804-6.633 1.625-2.98 2.797-5.133 6.5-5.133 5.192 0 7.551 5.395 7.551 10.41 0 7.496-6.07 18.59-19.102 18.59z" fill="#dff0fe"/><path d="M20.95 2C25.792 2 28 7.137 28 11.91 28 19.203 22.09 30 9.398 30 3.808 30 2 26.078 2 24.184c0-4.368 2.855-6.536 5.613-8.633.848-.645 1.649-1.25 2.371-1.918 2.457-2.274 3.758-4.656 4.907-6.762C16.547 3.832 17.543 2 20.949 2m0-1c-6.648 0-5.773 6.477-11.644 11.898C6.199 15.766 1 17.934 1 24.184 1 26.797 3.445 31 9.398 31 22.285 31 29 20.316 29 11.91 29 6.074 26.082 1 20.95 1z" fill="#4788c7"/><path d="M22.7 8.5c-2.048 9.363-8.458 16.809-18.66 19.809" fill="none" stroke-linecap="round" stroke-linejoin="round" stroke="#4788c7" stroke-miterlimit="10"/></svg>