<svg xmlns="http://www.w3.org/2000/svg" viewBox="0 0 40 40"><path d="M8.668 38.5c-1.227 0-2.367-.156-3.578-.32-1.13-.157-2.297-.317-3.586-.352.16-6.101 3.324-8.351 8.05-11.71 2.696-1.915 5.75-4.083 9.06-7.462 2.105-2.152 3.48-4.636 4.808-7.039 2.96-5.351 5.527-9.98 15.086-10.113-.024.289-.184.664-.41 1.195-.493 1.137-1.239 2.852-.953 5.535.41 3.907.046 11.692-7.004 19.977C24.168 35.23 17.348 38.5 8.668 38.5z" fill="#dff0fe"/><path d="M37.84 2.02c-.063.16-.137.328-.203.48-.516 1.184-1.29 2.973-.992 5.79.402 3.82.042 11.452-6.887 19.597C23.89 34.785 17.188 38 8.668 38c-1.195 0-2.32-.152-3.512-.316-.996-.137-2.02-.278-3.133-.336.297-5.477 3.192-7.532 7.82-10.82 2.716-1.93 5.79-4.114 9.126-7.524 2.152-2.2 3.547-4.715 4.89-7.145 2.817-5.086 5.258-9.504 13.98-9.84M38.93 1C24.196 1 24.95 11.465 18.255 18.305 8.832 27.93.996 27.996.996 38.32c2.856 0 5.086.68 7.672.68 7.496 0 15.012-2.422 21.852-10.465 5.957-7.004 7.738-14.46 7.12-20.351C37.188 3.87 39.454 2.32 38.93 1z" fill="#4788c7"/><path d="M31.027 18.5a2.478 2.478 0 0 1-1.699-.656c-.379-.356-.828-.914-.828-1.559 0-.508.277-1.027.828-1.543.559-.523 1.129-.789 1.692-.789.714 0 1.324.43 1.707.79.441.417.687.968.687 1.55 0 .582-.242 1.133-.687 1.55a2.478 2.478 0 0 1-1.7.657z" fill="#98ccfd"/><path d="M31.02 14.453c.55 0 1.046.356 1.367.656.34.32.527.739.527 1.184 0 .445-.187.863-.527 1.184-.364.34-.844.523-1.36.523-.515 0-1-.184-1.355-.523-.309-.286-.672-.723-.672-1.192 0-.363.227-.758.672-1.176.46-.433.914-.656 1.348-.656m0-1c-.653 0-1.34.274-2.036.926-1.488 1.398-1.125 2.77 0 3.828a2.994 2.994 0 0 0 2.043.793c.739 0 1.477-.266 2.04-.793 1.128-1.059 1.128-2.77 0-3.828-.602-.566-1.297-.926-2.047-.926z" fill="#4788c7"/><path d="M26.957 25.5c-1.445 0-2.457-.934-2.457-2.273 0-1.29.18-2.274 2.457-2.274 2.277 0 2.457.985 2.457 2.274 0 1.34-1.012 2.273-2.457 2.273z" fill="#98ccfd"/><path d="M26.957 21.453c1.867 0 1.957.64 1.957 1.774 0 1.043-.805 1.773-1.957 1.773C25.805 25 25 24.27 25 23.227c0-1.133.09-1.774 1.957-1.774m0-1c-2.57 0-2.957 1.242-2.957 2.774C24 24.757 25.164 26 26.957 26c1.79 0 2.957-1.242 2.957-2.773 0-1.532-.387-2.774-2.957-2.774z" fill="#4788c7"/><path d="M20.805 31.5c-.528 0-.996-.344-1.625-.934a2.072 2.072 0 0 1-.68-1.53c0-.575.238-1.118.68-1.528a2.432 2.432 0 0 1 1.675-.645c.637 0 1.235.23 1.676.645.606.566.98 1.012.98 1.484 0 .438-.327.965-.98 1.574-.668.63-1.234.934-1.726.934z" fill="#98ccfd"/><path d="M20.855 27.363c.508 0 .985.184 1.336.512.426.398.82.813.82 1.117 0 .281-.3.723-.82 1.211-.558.52-1.035.797-1.386.797-.36 0-.758-.305-1.285-.797A1.594 1.594 0 0 1 19 29.04c0-.437.184-.852.52-1.164a1.943 1.943 0 0 1 1.335-.512m0-1a2.94 2.94 0 0 0-2.02.782 2.564 2.564 0 0 0 0 3.785c.626.59 1.231 1.07 1.97 1.07.582 0 1.246-.297 2.07-1.07 1.879-1.758 1.102-2.75 0-3.785a2.948 2.948 0 0 0-2.02-.782z" fill="#4788c7"/><path d="M33.988 11.46c-.406 0-.789-.148-1.078-.417-.379-.355-.633-.652-.633-.938-.004-.265.211-.601.633-.996.434-.406.805-.609 1.11-.609.332 0 .66.242 1.05.61.278.257.43.605.43.968s-.152.707-.43.969a1.59 1.59 0 0 1-1.082.414z" fill="#98ccfd"/><path d="M34.02 9c.203 0 .57.344.707.473a.826.826 0 0 1 .273.605.824.824 0 0 1-.273.602c-.196.18-.454.28-.739.28-.281 0-.543-.1-.734-.28-.465-.434-.477-.563-.477-.575 0-.003.012-.195.477-.632.469-.438.707-.473.766-.473m0-1c-.41 0-.88.207-1.45.742-1.3 1.223-.785 1.93 0 2.668.39.367.907.55 1.418.55.516 0 1.032-.183 1.422-.55a1.805 1.805 0 0 0 0-2.668c-.437-.41-.867-.742-1.39-.742z" fill="#4788c7"/><path d="M14.969 34.5a1.57 1.57 0 0 1-1.09-.422c-.387-.363-.645-.664-.645-.953 0-.27.215-.61.645-1.008.434-.41.812-.617 1.121-.617.336 0 .668.246 1.063.617.28.262.437.61.437.98 0 .368-.156.715-.438.981a1.571 1.571 0 0 1-1.093.422z" fill="#98ccfd"/><path d="M15.004 32c.184 0 .48.258.719.48a.84.84 0 0 1 .277.618.85.85 0 0 1-.277.617 1.1 1.1 0 0 1-.75.285c-.29 0-.555-.102-.754-.285-.461-.434-.485-.567-.485-.59 0 0 .012-.203.485-.645.476-.445.719-.48.785-.48M15 31c-.414 0-.887.21-1.465.75-1.312 1.23-.793 1.95 0 2.691a2.1 2.1 0 0 0 1.438.559c.52 0 1.039-.188 1.433-.559a1.815 1.815 0 0 0 0-2.687C15.961 31.336 15.527 31 15 31z" fill="#4788c7"/><path d="M9.215 36.5c-.41 0-.793-.148-1.078-.418-.383-.355-.637-.652-.637-.937 0-.266.215-.602.637-.997.43-.406.804-.609 1.11-.609.327 0 .655.242 1.046.61.277.257.43.601.43.964 0 .367-.153.711-.43.973a1.573 1.573 0 0 1-1.078.414z" fill="#98ccfd"/><path d="M9.246 34.04c.2 0 .566.343.703.472a.81.81 0 0 1 .274.601.812.812 0 0 1-.274.606c-.191.18-.453.281-.734.281-.281 0-.543-.102-.738-.281-.465-.438-.477-.563-.477-.574 0-.004.012-.196.477-.633.468-.438.707-.473.77-.473m0-1c-.411 0-.88.207-1.454.742-1.3 1.223-.785 1.93 0 2.668A2.08 2.08 0 0 0 9.215 37c.512 0 1.027-.184 1.422-.55a1.805 1.805 0 0 0 0-2.669c-.442-.41-.871-.742-1.39-.742z" fill="#4788c7"/><path d="M1.5 37.5c5.238-5.637 12.105-3.758 21.195-14.566C28.777 15.704 30.348 6.262 38.5 1.5" fill="none" stroke-linecap="round" stroke-linejoin="round" stroke="#4788c7" stroke-miterlimit="10"/></svg>