<svg xmlns="http://www.w3.org/2000/svg" viewBox="0 0 50 50"><path d="M44.938 2c-2.844 0-5.27.977-7.282 2.531-2.011 1.555-3.66 3.66-5.187 5.969-3.055 4.613-5.645 10.082-9.188 13.875-5.133 5.496-9.687 8.629-13.375 11.438C6.22 38.62 3.312 41.21 2.031 45.5a.998.998 0 0 0 .469 1.125c3.316 1.895 9.031 1.883 15.344-.094 6.312-1.976 13.203-6.027 18.562-12.625 6.727-8.281 9.485-17.258 8.032-24.375-.493-2.422-.051-3.293.406-3.969.23-.34.5-.632.781-1.062.281-.43.5-1.184.25-1.844A1 1 0 0 0 44.937 2zm-4.313 3.125c-2.652 2.543-4.629 5.559-6.406 8.719-2.535 4.5-4.742 9.246-8.032 13.344-4.972 6.195-9.34 8.906-13.28 10.968-2.239 1.172-4.38 2.13-6.376 3.375 1.192-1.43 2.696-2.734 4.563-4.156 3.617-2.758 8.375-5.973 13.656-11.625 3.855-4.125 6.469-9.688 9.406-14.125 1.469-2.219 3.012-4.156 4.75-5.5.54-.418 1.125-.727 1.719-1zm1.813.969c-.25.965-.301 2.215.03 3.843 1.286 6.293-1.179 14.782-7.624 22.72-5.078 6.253-11.625 10.1-17.594 11.968-1.55.484-3.05.79-4.469 1 .153-.105.301-.21.438-.344a3.162 3.162 0 0 0 0-4.5c-.117-.117-.242-.226-.375-.343.336-.172.652-.317 1-.5.465-.243.953-.512 1.437-.782-.242.485-.351.989-.281 1.469.129.883.688 1.445 1.156 1.906a3.243 3.243 0 0 0 4.532 0c1.253-1.23 1.253-3.3 0-4.531-.454-.445-.993-.945-1.813-1.094a38.645 38.645 0 0 0 2.906-2.25 3.715 3.715 0 0 0 .844 4.032c.578.566 1.27 1.195 2.281 1.343 1.012.149 2.059-.328 3.094-1.343 1.04-1.02 1.531-2.083 1.375-3.094-.156-1.012-.8-1.657-1.375-2.219a3.845 3.845 0 0 0-3.875-.906 49.9 49.9 0 0 0 3-3.282c.016 2.247 1.797 4.157 4.25 4.157 2.465 0 4.281-1.93 4.281-4.188 0-.965-.086-2.031-.781-2.906-.695-.875-1.91-1.313-3.5-1.313-.426 0-.82.063-1.188.125A63.5 63.5 0 0 0 32 22.095c.246.691.668 1.3 1.188 1.812a4.23 4.23 0 0 0 5.906 0c1.629-1.601 1.629-4.273 0-5.875-.739-.726-1.672-1.273-2.75-1.343a3.56 3.56 0 0 0-1.532.25c.383-.711.766-1.434 1.157-2.125.07-.13.148-.25.218-.376.165.208.329.395.5.563 1.254 1.23 3.31 1.23 4.563 0a3.162 3.162 0 0 0 0-4.5c-.445-.438-1.008-.938-1.813-1.094.91-1.195 1.883-2.3 3-3.312zm-3.532 5.25a.66.66 0 0 1 .125 0c.117.015.414.172.813.562a1.17 1.17 0 0 1 0 1.688c-.48.472-1.27.472-1.75 0-.399-.39-.547-.688-.563-.781-.015-.094-.039-.317.563-.907.449-.441.672-.547.812-.562zm-2.687 7.344c.457.03.96.285 1.468.78.86.845.86 2.157 0 3a2.207 2.207 0 0 1-3.093 0c-.508-.495-.785-1.003-.813-1.437-.027-.433.137-.898.813-1.562.676-.664 1.168-.813 1.625-.782zm-4.844 8.25c1.25 0 1.707.273 1.938.562.23.29.343.852.343 1.656 0 1.29-.785 2.188-2.281 2.188s-2.25-.899-2.25-2.188c0-.804.113-1.367.344-1.656.23-.29.656-.563 1.906-.563zm-6.063 7.343c.465 0 .934.16 1.282.5.511.504.777.91.812 1.125.035.215-.008.551-.812 1.344-.805.793-1.172.848-1.407.813-.234-.036-.64-.305-1.156-.813a1.702 1.702 0 0 1 0-2.469c.352-.347.817-.5 1.282-.5zm-6.937 4.594a.66.66 0 0 1 .125 0c.117.016.414.172.813.563.48.472.48 1.183 0 1.656a1.258 1.258 0 0 1-1.75 0c-.399-.39-.579-.657-.594-.75-.016-.094-.008-.317.593-.907.45-.44.672-.546.813-.562zm-7.469 2.75a.66.66 0 0 1 .125 0c.117.016.383.172.781.563h.032c.484.472.453 1.18-.031 1.656a1.219 1.219 0 0 1-1.72 0c-.398-.39-.577-.657-.593-.75-.016-.094-.008-.317.594-.907.449-.44.672-.546.812-.562zm-3.375 1.688c.004.019-.004.042 0 .062.13.883.688 1.445 1.157 1.906.296.29.636.504 1 .657-1.954.046-3.61-.184-4.876-.594.852-.793 1.762-1.43 2.72-2.032z"/></svg>