<svg xmlns="http://www.w3.org/2000/svg" viewBox="0 0 24 24"><path d="M13.656 2c-.406.793-.554 1.523-.625 2.25a8.02 8.02 0 0 0 .094 2.125c.04.207.102.418.156.625C11.133 6.984 9.004 6.996 7 9c-1.02 1.02-1.39 1.414-2 2-5.313 5.094-2.152 7.848-1 9 .004.004-.004.027 0 .031 1.191 1.117 3.438 4.282 9-1.031.906-.867.824-.824 2-2 2.117-2.117 2.035-4.184 2-6.281.203.054.418.117.625.156a8.02 8.02 0 0 0 2.125.094c.73-.07 1.457-.219 2.25-.625-.59-.664-1.348-1.012-2-1.344-.328-.16-.629-.313-.938-.438A7.48 7.48 0 0 0 20 8c.637-.445 1.605-1.258 2-1.75-.625-.195-1.625-.27-2-.25-.086.008-.215.02-.313.031.172-.234.352-.46.5-.718C20.56 4.64 20.872 3.91 21 3c-.91.14-1.621.484-2.281.875-.266.156-.512.32-.75.5.008-.129.031-.246.031-.375 0-.332-.074-1.438-.25-2-.574.5-1.305 1.363-1.75 2a7.537 7.537 0 0 0-.563.938c-.124-.31-.277-.61-.437-.938-.332-.652-.68-1.41-1.344-2zm-3.375 7.469l1.031.312c.204.063.422.121.657.188l.469 1.687-1.72-.437zm-.969.156l.344 1.281-1.531-.406c.426-.355.824-.64 1.188-.875zm-2.156 1.75l.438 1.594L6 12.563c.23-.262.496-.528.781-.813l.094-.125c.098-.098.188-.16.281-.25zm1.032.156l1.75.469.468 1.719h-.031l-1.719-.438zm2.843.75l1.688.469.469 1.719-1.72-.469zm-4.875 1.313l1.719.469.469 1.718h-.031l-1.688-.437zm-1 .062l.375 1.375-1-.25c.14-.347.348-.719.625-1.125zm3.813.688l1.719.469.437 1.718-1.719-.468zM4.28 15.719l1.532.406.468 1.719-1.593-.438c-.301-.496-.477-1.031-.407-1.687zm2.625.687l1.719.469.438 1.719-1.688-.469z"/></svg>