<svg xmlns="http://www.w3.org/2000/svg" viewBox="0 0 50 50"><path d="M30.406 0c-.265 0-.531.094-.718.281-1.22 1.215-1.72 4.032-1.532 6.625L43.063 21.72c2.878.527 5.437-.282 6.656-1.5a1.03 1.03 0 0 0 0-1.438c-2.188-2.187-10.235-5.422-12.344-6.25-.816-2.082-4.008-9.976-6.281-12.25A.944.944 0 0 0 30.406 0zm6.188 0a.944.944 0 0 0-.688.281c-.426.426-.781 1.11-1.062 1.906 1.605 2.844 3.148 6.524 4.062 8.813 2.598 1.04 6.125 2.547 8.844 4.063.852-.235 1.566-.567 1.969-.97a.944.944 0 0 0 .281-.687 1.02 1.02 0 0 0-.281-.719c-1.52-1.519-6.844-3.23-8.625-3.78C40.543 7.124 38.832 1.8 37.312.28a1.015 1.015 0 0 0-.718-.28zm9.156 3.063c-.73 0-2.363.804-3.938 1.718.313.844.61 1.711.876 2.532.824.265 1.687.558 2.53.875 2.27-3.876 1.817-4.34 1.376-4.782a1.13 1.13 0 0 0-.844-.344zM25.531 9.936c-5.593 0-11.652 3.047-17.531 8.844-2.95 2.977-4.96 5.77-6.219 8.344a.834.834 0 0 0-.125.25C-1.992 35.117 1.094 41 5 44.906a20.935 20.935 0 0 0 3.406 2.782.98.98 0 0 0 .313.218C10.973 49.301 13.309 50 15.75 50c4.828 0 9.832-2.676 15.344-8.188 8.851-8.847 9.664-15.882 8.781-20.218a.973.973 0 0 0-.281-.5L28.906 10.5a1.018 1.018 0 0 0-.5-.281 14.614 14.614 0 0 0-2.875-.281zm0 2c.465 0 .922.043 1.375.094.192 1.028.219 2.102.219 2.875l-5.281-1.062-.282-1.344c1.348-.367 2.68-.563 3.97-.563zm3.563 1.563l3.593 3.563-2.843-.5a2.99 2.99 0 0 0-.719-.656c.023-.438.04-1.344-.031-2.407zm-11.782.719c.07.031.168.05.25.062 1.172.18 2.063.516 2.563.906a.998.998 0 0 0 .344.344c.277.39.476.969.625 1.656l.093.47c.157.91.243 1.945.25 2.843l-5.28-1.063-.813-4.062c.66-.426 1.312-.809 1.969-1.156zM23 16.594c2.535.027 4.516.453 5.188 1.125.824.824 1.105 3.246 1.125 5.156l-5.25-1.031-.938-4.75c-.004-.008-.027-.024-.031-.032zm-9.438.031l.407 2.156c-.797-.27-1.649-.433-2.438-.531a38.516 38.516 0 0 1 2.031-1.625zm17.282 2.156l4.281.719h.031l1.813 1.781c.16 1.074.125 2.282.062 3.125l-5.718-1.125c.011-1.074-.047-2.886-.47-4.5zM9.5 20.094c1.918.039 4.164.445 4.906 1.125.824.824 1.106 3.246 1.125 5.156l-5.281-1.031-.969-5c.047-.051.078-.078.125-.125.035-.035.059-.09.094-.125zm-1.906 2.093l.468 2.438a11.31 11.31 0 0 0-2.062-.5 33.87 33.87 0 0 1 1.594-1.938zm9.625.094c2.535.028 4.515.453 5.187 1.125.824.824 1.106 3.278 1.125 5.188l-5.281-1.032zm7.718 1.782l4.72.937c.773.887 1.042 3.238 1.062 5.094l-5.188-1.032c.016-1.152-.054-3.265-.593-5zM4.72 26c1.758.125 3.234.547 3.781 1.094.813.812 1.098 3.226 1.125 5.125a14.523 14.523 0 0 0-2.125-.344l-3.156-.625-.688-3.375c.305-.617.672-1.246 1.063-1.875zm6.687 2.188c2.535.027 4.516.453 5.188 1.125.824.824 1.105 3.277 1.125 5.187l-5.282-1.063zm7.656 1.562l4.813.938.031.03c.824.825 1.106 3.247 1.125 5.157l-5.312-1.031c.008-1.223-.07-3.375-.657-5.094zM2.125 32.875c.695.113 1.184.293 1.469.469l1.031 5.343-1.719-.28a11.349 11.349 0 0 1-.781-5.532zm3.594.906c.535.008 1.023.024 1.5.063l2.812.562c.281.11.508.242.688.375a.936.936 0 0 0 .344.344c.69.973.949 3.2.968 4.969L6.75 39.062zm7.75 1.907l4.5.874c.008.012.02.024.031.032.82.816 1.102 3.25 1.125 5.156l-5.094-1.156c.012-1.121-.054-3.184-.562-4.907zm-6.094 5.53l5.094 1c.746.887 1.035 3.141 1.062 4.97l-3.906-1.094c-.285-.184-.559-.356-.844-.563z"/></svg>