<svg xmlns="http://www.w3.org/2000/svg" viewBox="0 0 32 32"><path d="M14 2v2c.168 0 .691.098 1.125.563.32.343.664.917.813 1.906C15.425 6.234 14.91 6 14.312 6c-2.448 0-4.6 1.066-6.062 2.875C6.79 10.684 6 13.184 6 16.125 6 23.395 11.027 28 16 28s10-4.613 10-12.063c0-2.53-.555-4.953-1.781-6.812C22.992 7.265 20.996 6 18.5 6c-.234 0-.426.031-.625.063-.219-1.278-.707-2.227-1.313-2.875C15.723 2.292 14.746 2 14 2zm.313 6c1.347 0 2.449.777 3.312 2.156.863 1.38 1.375 3.328 1.375 5.188 0 3.363-.906 5.219-.906 5.219l1.812.875S21 19.081 21 15.343c0-2.215-.582-4.45-1.688-6.219-.265-.422-.664-.7-1-1.063.09-.011.102-.062.188-.062 1.855 0 3.129.8 4.063 2.219.933 1.418 1.437 3.488 1.437 5.719C24 22.5 19.727 26 16 26c-3.727 0-8-3.516-8-9.875 0-2.582.703-4.625 1.813-6C10.921 8.75 12.413 8 14.313 8z"/></svg>