<svg xmlns="http://www.w3.org/2000/svg" viewBox="0 0 24 24"><path d="M10 2v2c.14 0 .496.043.781.313.153.14.317.378.438.75A1.961 1.961 0 0 0 10.688 5c-1.958 0-3.696.809-4.876 2.219C4.633 8.629 4 10.586 4 12.844 4 18.426 8.016 22 12 22s8-3.598 8-9.313c0-1.94-.445-3.796-1.438-5.25A5.515 5.515 0 0 0 13.938 5c-.246 0-.457.027-.656.063-.195-.977-.601-1.696-1.125-2.188A3.184 3.184 0 0 0 10 2zm.688 5c.972 0 1.73.52 2.343 1.5.614.98.969 2.395.969 3.75 0 2.61-.875 4.281-.875 4.281l1.75.938S16 15.329 16 12.25c0-1.7-.418-3.434-1.281-4.813-.082-.132-.219-.218-.313-.343 1.094.129 1.903.593 2.5 1.468C17.594 9.57 18 11.06 18 12.689 18 17.483 14.785 20 12 20s-6-2.516-6-7.156c0-1.887.523-3.367 1.344-4.344.82-.977 1.918-1.5 3.343-1.5z"/></svg>