<svg xmlns="http://www.w3.org/2000/svg" viewBox="0 0 24 24"><path d="M11 2l-1 2-1-1v2.375c-4.055 1.09-7 4.336-7 8.156C2 18.246 6.477 22 12 22s10-3.754 10-8.469c0-3.824-2.945-7.066-7-8.156V3l-1 1-1-2-1 1.344zM9 8h.5c.926 0 1.785.352 2.5.938.715-.586 1.574-.938 2.5-.938h.5c2.762 0 5 2.46 5 5.5S17.762 19 15 19h-.5c-.926 0-1.785-.352-2.5-.938-.715.586-1.574.938-2.5.938H9c-2.762 0-5-2.46-5-5.5S6.238 8 9 8zm1.5 1a.499.499 0 1 0 0 1 .499.499 0 1 0 0-1zm3 0a.499.499 0 1 0 0 1 .499.499 0 1 0 0-1zm-5 1a.499.499 0 1 0 0 1 .499.499 0 1 0 0-1zm7 0a.499.499 0 1 0 0 1 .499.499 0 1 0 0-1zm-9 1a.499.499 0 1 0 0 1 .499.499 0 1 0 0-1zm4 0a.499.499 0 1 0 0 1 .499.499 0 1 0 0-1zm3 0a.499.499 0 1 0 0 1 .499.499 0 1 0 0-1zm4 0a.499.499 0 1 0 0 1 .499.499 0 1 0 0-1zm-9 1a.499.499 0 1 0 0 1 .499.499 0 1 0 0-1zm7 0a.499.499 0 1 0 0 1 .499.499 0 1 0 0-1zm-9 1a.499.499 0 1 0 0 1 .499.499 0 1 0 0-1zm4 0a.499.499 0 1 0 0 1 .499.499 0 1 0 0-1zm3 0a.499.499 0 1 0 0 1 .499.499 0 1 0 0-1zm4 0a.499.499 0 1 0 0 1 .499.499 0 1 0 0-1zm-9 1a.499.499 0 1 0 0 1 .499.499 0 1 0 0-1zm7 0a.499.499 0 1 0 0 1 .499.499 0 1 0 0-1zm-9 1a.499.499 0 1 0 0 1 .499.499 0 1 0 0-1zm4 0a.499.499 0 1 0 0 1 .499.499 0 1 0 0-1zm3 0a.499.499 0 1 0 0 1 .499.499 0 1 0 0-1zm4 0a.499.499 0 1 0 0 1 .499.499 0 1 0 0-1zm-9 1a.499.499 0 1 0 0 1 .499.499 0 1 0 0-1zm7 0a.499.499 0 1 0 0 1 .499.499 0 1 0 0-1zm-5 1a.499.499 0 1 0 0 1 .499.499 0 1 0 0-1zm3 0a.499.499 0 1 0 0 1 .499.499 0 1 0 0-1z"/></svg>