<svg xmlns="http://www.w3.org/2000/svg" viewBox="0 0 26 26"><path d="M22.344.125C9.406 1.488 8.375 2.238 7.156 3.344c-1.504 1.363 2.2 7.015 4.407 7.906-2.72-.188-4.5-2.145-5.782-5.844-.324-.933-3.718 1.899-3.718 6.907 0 .308 2.32 3.12 4.843 2.812-3.562.805-4.843-1.098-4.843-.406a11.014 11.014 0 0 0 1.343 4.937c.067.121 2.34.36 3.625-.843-.808 1.582-2.867 1.921-2.812 2.03.949 1.9 1.894 2.235 3.406 3.157.059.035 1.48-.496 1.969-1.531-.145 1.093-.969 1.945-.875 2 2.011 1.117 3.664 1.5 5.844 1.5 4.027 0 6.757-1.45 5.656-3.219 1.644-1.672 1.27-3.023-.844-1.781-.57.336-4.25 2.25-5.844 2.25-3.273 0-5.25-3.469-5.25-5.782 0-1.671 1.946-4.234 2.969-5.187-.012 1.074.531 2.262 1.688 3.406 1.18 1.168 3.058 2.125 5.593 2.125a.924.924 0 0 0 .922-.922.924.924 0 0 0-.922-.922c-2.078 0-3.418-.738-4.281-1.593-.863-.856-1.191-1.973-1.188-2.125a.925.925 0 0 0-.53-.875c.023-.016.042-.016.062-.031 5.957-.883 11.097-7.25 12.312-9.47.364-.663-.554-.921-3.093-.655.644-.31.988-.7.968-.907-.015-.125-.355-.164-.437-.156zm-2 1.5c.472-.059.886.102 1.031.438.195.445-.164 1.03-.813 1.312a1.452 1.452 0 0 1-1.062.063c.11.019.223.042.344.03.531-.054.914-.425.875-.812-.04-.386-.5-.648-1.032-.594a1.427 1.427 0 0 0-.375.094c.145-.156.305-.308.532-.406.16-.07.343-.105.5-.125zm-6.063 9.5a.92.92 0 0 0-.531 1.469s.543.75 1.594 1.312c1.05.563 2.687.977 4.812.594a.923.923 0 0 0-.343-1.813c-1.743.317-2.872-.019-3.594-.406-.723-.386-.969-.75-.969-.75a.925.925 0 0 0-.875-.406h-.094z"/></svg>