<svg xmlns="http://www.w3.org/2000/svg" viewBox="0 0 48 48"><path d="M9.71 39a2.711 2.711 0 0 1-2.608-2.035c-.38-1.453.48-2.945 1.921-3.328.055-.02 1.23-.352 2.903-1.008C7.492 29.203 6.027 24.12 6 20.844 6.105 12.14 13.125 9 17.813 9c1.902 0 4.175.52 6.214 1.7C25.691 9.655 27.801 9 30.41 9c3.402 0 6.172 1.066 8.227 3.168 3.332 3.406 3.37 8.156 3.363 8.687.004.188.004 6.055-4.395 10.536-.472.476-.972.925-1.503 1.336.945.32 1.964.62 3.062.902 1.45.363 2.328 1.844 1.965 3.305-.36 1.46-1.828 2.355-3.274 1.98-3.414-.86-6.222-1.945-8.53-3.156-1.606.34-3.345.512-5.212.512-2.113 0-4-.22-5.675-.618-4.032 2.164-7.7 3.168-8.04 3.258a2.74 2.74 0 0 1-.687.09zm17.76-11.164c.703.684 1.55 1.371 2.578 2.043 6.293-2.328 6.547-8.238 6.555-9.059-.004-1.078-.309-6.363-6.192-6.363-.898 0-1.672.121-2.336.332.895 1.613 1.438 3.606 1.438 6.031 0 2.664-.79 4.996-2.043 7.016zm-9.676-13.379c-1.023.012-6.32.395-6.395 6.398.02.743.368 6.446 6.364 8.875.972-.62 1.922-1.308 2.777-2.078-1.844-3.347-1.86-6.191-1.828-6.906.012-1.8.469-3.922 1.496-5.86a7.974 7.974 0 0 0-2.414-.429z" fill="#ff9800"/><path d="M38.516 39c-.22 0-.442-.027-.657-.086-19.062-4.812-19.21-16.61-19.144-18.168C18.742 15.996 21.87 9 30.41 9c1.492 0 2.703 1.223 2.703 2.73 0 1.504-1.21 2.727-2.703 2.727-6.12 0-6.297 5.711-6.297 6.363 0 .075-.004.149-.011.223-.012.312-.247 8.719 15.062 12.586 1.45.363 2.328 1.844 1.969 3.305A2.711 2.711 0 0 1 38.516 39z" fill="#ff9800"/><path d="M30.055 29.871c1.562 1.027 3.547 2.004 6.05 2.852.532-.41 1.032-.856 1.504-1.332l.059-.07c-2.324-.712-4.191-1.524-5.691-2.38-.57.348-1.204.668-1.922.93zm-9.848-14.984a.076.076 0 0 0-.016.035c.989-1.887 2.52-3.606 4.696-4.695-.297.148-.586.304-.86.476a12.45 12.45 0 0 0-1.898-.887c-1.668 1.286-2.89 2.93-3.727 4.676a7.596 7.596 0 0 1 1.805.395zm-8.281 17.742c1.66-.652 3.804-1.617 5.832-2.899a11.398 11.398 0 0 1-1.887-.988c-2.004 1.149-4.062 1.996-5.484 2.52.468.476.98.933 1.539 1.367zm13.328.488c1.351-1.203 2.59-2.562 3.586-4.101a15.268 15.268 0 0 1-1.371-1.18c.074-.125.144-.254.218-.379-2.3 3.945-6.386 6.75-10.019 8.594.258-.13.512-.262.77-.399.863.203 1.789.36 2.765.465 1.895.137 2.797.29 5.246.051 1-.082 1.965-.219 2.88-.41.288.152.593.3.898.453-1.98-.957-3.618-2.008-4.973-3.094zm3.574-16.562a11.269 11.269 0 0 0-.754-1.766c.051-.016.11-.02.16-.035l-.054-.113c-.16.074-3.989 1.867-4.895 6.336-.558 2.75-2.875 4.492-3.55 4.949.222.554.476 1.129.804 1.726a.352.352 0 0 1-.039.035l.05.086c.16-.09 3.86-2.293 4.692-6.398.61-2.992 2.906-4.45 3.586-4.82z" fill="#d66100"/><path d="M10.055 23.004c.55.027.972.5.941 1.05A1.003 1.003 0 0 1 9.941 25C9.391 24.969 8 23.89 8 23.89s1.5-.917 2.055-.886zM40 20c0 .555-.445 1-1 1-.555 0-1-.445-1-1 0-.555 1-2 1-2s1 1.445 1 2zm-27.113-6.766a.998.998 0 1 1-1.774-.918c.254-.492 1.809-1.316 1.809-1.316s.223 1.746-.035 2.234zm18.511-.687a1 1 0 1 1-1.473-1.355c.372-.407 2.09-.797 2.09-.797s-.245 1.742-.617 2.152zm6.071.937a.995.995 0 0 1 1.031.97 1 1 0 0 1-.969 1.03c-.554.016-2.031-.937-2.031-.937s1.414-1.043 1.969-1.063zM21.969 17a1 1 0 1 1 .062 2c-.554.016-2.031-.938-2.031-.938S21.414 17.02 21.969 17zm-1.965 3.918a.999.999 0 0 1 1.988.18c-.047.55-1.176 1.902-1.176 1.902s-.863-1.531-.812-2.082zM15.969 11a.995.995 0 0 1 1.031.969.997.997 0 0 1-.969 1.031c-.55.016-2.027-.938-2.027-.938S15.418 11.02 15.969 11zm22.289 15.977a1 1 0 0 1-.426-1.953c.54-.118 2.168.55 2.168.55s-1.2 1.285-1.742 1.403zm-13.043-12a.999.999 0 1 1-.426-1.954c.54-.117 2.168.551 2.168.551s-1.203 1.285-1.742 1.403zM9.258 17.969a1 1 0 0 1-1.188-.766.994.994 0 0 1 .762-1.187c.54-.118 2.168.547 2.168.547s-1.2 1.289-1.742 1.406zM34 11.96a1.004 1.004 0 0 1-.957 1.04A1.003 1.003 0 0 1 32 12.043c-.023-.555.914-2.04.914-2.04s1.063 1.403 1.086 1.958z" fill="#fff9c4"/></svg>