<svg xmlns="http://www.w3.org/2000/svg" viewBox="0 0 64 64"><linearGradient id="a" gradientUnits="userSpaceOnUse" x1="32" y1="5.15" x2="32" y2="58.682" spreadMethod="reflect"><stop offset="0" stop-color="#1a6dff"/><stop offset="1" stop-color="#c822ff"/></linearGradient><path d="M56 29c0-4.264-2.444-7.961-6-9.786V12h-2.979A4.972 4.972 0 0 0 44 13.037V9h-4a8.983 8.983 0 0 0-7 3.356V6h-2v6.356A8.983 8.983 0 0 0 24 9h-4v4.037A4.972 4.972 0 0 0 16.979 12H14v7.214C10.444 21.039 8 24.736 8 29c0 4.918 3.206 9.136 7.802 10.518A7.898 7.898 0 0 0 15 43c0 4.411 3.589 8 8 8 .352 0 .704-.023 1.054-.07C24.516 54.904 27.903 58 32 58s7.484-3.096 7.946-7.07c.35.047.702.07 1.054.07 4.411 0 8-3.589 8-8 0-1.22-.274-2.402-.802-3.482A10.947 10.947 0 0 0 56 29zM44 18v-.979A3.024 3.024 0 0 1 47.021 14H48v4.426a10.966 10.966 0 0 0-4-.381V18zm-11 0c0-3.86 3.14-7 7-7h2v7.417a10.87 10.87 0 0 0-4.096 2.185A7.995 7.995 0 0 0 33 18.069V18zm-11 0v-7h2c3.86 0 7 3.14 7 7v.069a7.985 7.985 0 0 0-4.904 2.533A10.863 10.863 0 0 0 22 18.417V18zm-6-4h.979A3.024 3.024 0 0 1 20 17.021v1.024a10.966 10.966 0 0 0-4 .381V14zm30.469 23.869l-1.612.265.97 1.315A5.95 5.95 0 0 1 47 43c0 3.309-2.691 6-6 6a6.026 6.026 0 0 1-1.728-.255l-1.349-.404L38 50c0 3.309-2.691 6-6 6s-6-2.691-6-6l.077-1.659-1.349.404A6.026 6.026 0 0 1 23 49c-3.309 0-6-2.691-6-6a5.95 5.95 0 0 1 1.173-3.551l.97-1.315-1.612-.265A8.958 8.958 0 0 1 10 29c0-4.962 4.038-9 9-9 2.464 0 4.767.983 6.483 2.768l.855.89.693-1.021a6 6 0 0 1 9.937 0l.693 1.021.855-.89A8.925 8.925 0 0 1 45 20c4.962 0 9 4.038 9 9a8.958 8.958 0 0 1-7.531 8.869z" fill="url(#a)"/><linearGradient id="b" gradientUnits="userSpaceOnUse" x1="45" y1="24.5" x2="45" y2="33.667" spreadMethod="reflect"><stop offset="0" stop-color="#6dc7ff"/><stop offset="1" stop-color="#e6abff"/></linearGradient><circle cx="45" cy="29" r="4" fill="url(#b)"/><linearGradient id="c" gradientUnits="userSpaceOnUse" x1="19" y1="24.5" x2="19" y2="33.667" spreadMethod="reflect"><stop offset="0" stop-color="#6dc7ff"/><stop offset="1" stop-color="#e6abff"/></linearGradient><circle cx="19" cy="29" r="4" fill="url(#c)"/><linearGradient id="d" gradientUnits="userSpaceOnUse" x1="32" y1="46" x2="32" y2="54.58" spreadMethod="reflect"><stop offset="0" stop-color="#6dc7ff"/><stop offset="1" stop-color="#e6abff"/></linearGradient><circle cx="32" cy="50" r="3" fill="url(#d)"/><linearGradient id="e" gradientUnits="userSpaceOnUse" x1="41" y1="39" x2="41" y2="47.393" spreadMethod="reflect"><stop offset="0" stop-color="#6dc7ff"/><stop offset="1" stop-color="#e6abff"/></linearGradient><circle cx="41" cy="43" r="3" fill="url(#e)"/><linearGradient id="f" gradientUnits="userSpaceOnUse" x1="23" y1="39" x2="23" y2="47.393" spreadMethod="reflect"><stop offset="0" stop-color="#6dc7ff"/><stop offset="1" stop-color="#e6abff"/></linearGradient><circle cx="23" cy="43" r="3" fill="url(#f)"/></svg>