<svg xmlns="http://www.w3.org/2000/svg" viewBox="0 0 48 48"><path d="M4.672 2.809s4.238 8.921 9 11.488" fill="none" stroke-width="2" stroke="#e65100" stroke-miterlimit="10"/><path d="M14.707 8.656l.25-2.258 1.84 2.09 2.59-2.84 1.086 2.34 2.757-1.754.418 2.84 4.266-1.754-.086 2.926 2.344-1.172L29.836 12l3.844.086-1 2.254 3.258 1.59-1.922 1.586 2.925 1.09-1.921 2.421 3.007.418-2.09 2.34 2.844.668-1.59 2.176 3.512.082-1.086 1.926 2.926.25-1.59 1.922 2.758.5-1.84 2.09 2.762 1.171-2.09.918 2.758 2.176-1.922.164 1.14 3.211-3.398-.867-.242 2.805-2.184-1.383-1.539 2.39-2.054-2.226-1.899 2.926-2.113-2.758-1.996 2.445-1.598-2.36-1.89 2.36-.954-2.777-2.382 1.617-.375-3.04-2.801 2.032-.543-2.867-2.793 1.473-.301-2.813-2.18 1.492-.078-2.828-2.558.66.136-2.918-2.847.203.758-2.878-3.086-.532 1.164-2.476-2.868-1.324 1.614-2.27-2.39-1.605 1.722-2.075-1.875-2.265 1.957-1.328-1.184-2.704 2.188-.722.68-2.614 2.327 1.192.168-3.262 2.676 1.172.25-3.594z" fill="#7cb342"/><path d="M18.313 7c18.93 0 17.539 16.629 20.25 19.266C42.57 30.16 44 34 44 38.5c0 2.25-5.926 4.5-13.332 4.5C23.262 43 4 38.59 4 19.465c0-7.438 6.496-7.625 6.496-7.625S12.422 7 18.312 7z" fill="#7cb342"/><path d="M30.668 41c-3.691 0-9.852-1.129-15.07-4.305C9.227 32.82 6 27.023 6 19.465c0-5.149 3.809-5.59 4.555-5.625l1.293-.059S23.934 29.566 42 38.332c-.629.82-4.621 2.668-11.332 2.668z" fill="#fff"/><path d="M12.941 20.629s-4.539.344-4.05 2c.48 1.656 2.824 1.02 4.05-2zm2.395 5.793s-4.488.738-3.863 2.348c.629 1.609 2.906.765 3.863-2.348zm3.828 4.605s-4.187 1.778-3.2 3.196c.99 1.414 3.005.058 3.2-3.196zm5.438 3.489s-3.465 2.543-2.247 3.629c1.215 1.082 2.774-.598 2.247-3.63zm5.703 1.672s-2.72 2.53-1.567 3.34c1.153.808 2.32-.79 1.567-3.34z" fill="#263238"/></svg>