<svg xmlns="http://www.w3.org/2000/svg" viewBox="0 0 24 24"><path d="M22.102 0c-1.301 3.5-2 2.5-4.801 4.398-2.5 1.801-2.903 4.903-3.602 5-5.8 1.102-6.398 5.801-7 6C4 16.398.9 18.102 0 22.602c1.102 1.199 6.7 2.5 10.398-.403 3.403 0 8.301-3.5 9-7.199C24 12.102 25.602 5 22.102 0zM7.5 22.102c-1.3.898-3.898 1.296-4.7.199-.698-1.102.098-3 1.4-3.903 1.3-.898 2.698-1.097 3.5 0 .698 1 1 2.801-.2 3.704zm7.898-4.602c-1.097 1.602-3.597 1.898-4.898 1-1.3-.898-1.102-2.8 0-4.398 1.102-1.602 3.5-2.704 4.8-1.801 1.4 1 1.2 3.597.098 5.199zm2.301-6.602c-1.199-.597-1.097-2.199-.3-3.597.8-1.5 2.601-2.602 3.8-2 1.2.597 1.2 2.8.5 4.3-.898 1.399-2.8 1.899-4 1.297z"/></svg>