<svg xmlns="http://www.w3.org/2000/svg" viewBox="0 0 64 64"><path d="M37.25 8s-.352 5.578 2.84 8.531a7.892 7.892 0 0 0 3 1.68 7.868 7.868 0 0 1 5.191 4.91 7.417 7.417 0 0 0 1 1.918c2.489 3.563 7.938 4.05 7.938 4.05s2.12-4.577-.367-8.14c-.07-.11-.16-.199-.243-.3 2.653-.93 4.192-3.938 4.192-3.938s-2.942-2.2-5.852-1.64c2.551-3.25 1.492-8.333 1.492-8.333-2.12.125-4.18.758-6 1.84a3.921 3.921 0 0 0-.28-.707c-1.29-2.45-5.102-3-5.102-3a9.001 9.001 0 0 0-.868 4.457A28.78 28.78 0 0 0 37.25 8z" fill="#72caaf"/><path d="M50.512 48.2C41.14 57.57 16 63.147 8.8 56c-7.2-7.148-1.602-32.371 7.77-41.75 9.37-9.379 20.34-3.7 29 4.95 8.66 8.652 14.32 19.62 4.94 29z" fill="#ed7899"/><path d="M33.488 57.16C27.398 58.91 21 59.672 16.058 59a2.501 2.501 0 0 1-2.117-2.922 2.492 2.492 0 0 1 2.79-2c1.062.14 2.136.207 3.21.203 4.114-.074 8.2-.71 12.137-1.89A2.47 2.47 0 0 1 35 53.57a2.5 2.5 0 0 1 .11 2.16 2.498 2.498 0 0 1-1.622 1.43z" fill="#e0678f"/><path d="M36.191 14.121a2.514 2.514 0 0 1-3.52 1.64 12.82 12.82 0 0 0-5.39-1.34c-2.562 0-4.902 1.099-7.172 3.368-3.23 3.23-6.23 9.281-8 16a2.494 2.494 0 0 1-2.449 1.813 2.492 2.492 0 0 1-2.379-3.113c1.91-7.208 5.25-14.188 9.29-18.239 5.8-5.79 12.199-5.84 18.288-3a2.492 2.492 0 0 1 1.332 2.871z" fill="#f283a5"/><path d="M61.352 15.922A10.868 10.868 0 0 0 56.68 14a13.723 13.723 0 0 0 .691-7.488.998.998 0 0 0-1-.801 14.822 14.822 0 0 0-5.512 1.418C49.25 4.469 45.32 3.89 45.15 3.87a1 1 0 0 0-1 .54 10.649 10.649 0 0 0-1 3.538 32.497 32.497 0 0 0-5.81-1 .995.995 0 0 0-.784.278.99.99 0 0 0-.305.773 16.061 16.061 0 0 0 .18 3 23.486 23.486 0 0 0-4.828-2c-5.872-1.559-11.16 0-15.73 4.55C11.3 18.103 7.32 26.63 5.5 35.739c-1.922 9.582-1 17.41 2.59 20.942C10.43 59 14.648 60.238 20 60.238a45.862 45.862 0 0 0 9-1c9.11-1.816 17.621-5.789 22.191-10.367 4.57-4.582 6.098-9.86 4.547-15.73a22.792 22.792 0 0 0-1.316-3.61c.855.254 1.738.438 2.629.54h.09a.998.998 0 0 0 .898-.583c.09-.187 2.09-4.597 0-8.449a10.567 10.567 0 0 0 3.602-3.89.997.997 0 0 0-.29-1.227zm-7.524 17.77c1.363 5.117 0 9.769-4 13.796-9.457 9.434-33.937 14.16-40.328 7.782C3.11 48.89 7.84 24.398 17.281 15a13.986 13.986 0 0 1 10-4.54c1.274.005 2.54.18 3.77.52a23.01 23.01 0 0 1 6 2.668 42.515 42.515 0 0 1 7.777 6.301 41.251 41.251 0 0 1 6.703 8.461 21.31 21.31 0 0 1 2.297 5.281zm2.942-14.204a10.893 10.893 0 0 0-1.079-1 1.003 1.003 0 0 0-1.773.528.994.994 0 0 0 .523.984c.477.387.914.82 1.297 1.3.051.044.106.087.16.122l.07.09c1.602 2.289 1 5.16.544 6.457A13.984 13.984 0 0 1 53 26.879a44.338 44.338 0 0 0-6.738-8.379 47.097 47.097 0 0 0-7.512-6.21 13.614 13.614 0 0 1-.512-3.169c1.883.184 3.739.582 5.532 1.18h.12c2.07.93 3.06 3.937 3.07 4a1.001 1.001 0 1 0 1.91-.602c.001-.148-1.16-3.558-3.792-5 .02-.922.195-1.836.524-2.699 1 .27 2.886.93 3.609 2.29.086.17.156.347.21.53a.998.998 0 0 0 .61.66 1 1 0 0 0 .89-.101 11.722 11.722 0 0 1 4.618-1.59c.152 1.492.211 4.531-1.43 6.633a1 1 0 0 0 1 1.598 6.758 6.758 0 0 1 4.29 1 7.616 7.616 0 0 1-2.63 2.468z" fill="#8d6c9f"/><path d="M24.36 13.781a14.206 14.206 0 0 0-5.86 3.649 18.755 18.755 0 0 0-1.762 2.05.999.999 0 0 0 .211 1.399c.446.328 1.07.234 1.403-.207.472-.649.996-1.262 1.558-1.832a12.259 12.259 0 0 1 5-3.16.999.999 0 0 0 .406-1.703 1 1 0 0 0-.996-.207zm5.519 1.579H30c.55.038 1.031-.38 1.07-.93a1.004 1.004 0 0 0-.93-1.07 13.88 13.88 0 0 0-2.378-.15 1 1 0 1 0 0 2c.707-.01 1.418.036 2.117.15zm2.543 5.98L31 22.762a1 1 0 1 0 1.41 1.41l1.41-1.41a1 1 0 0 0-1.41-1.41zM30.3 30.95a1.002 1.002 0 0 0-1.41 0l-1.41 1.41c-.285.245-.41.628-.324.992.09.367.375.652.742.742.364.086.747-.04.993-.324l1.41-1.41a1.001 1.001 0 0 0 0-1.41zm2 10.312a1 1 0 0 0-1.41-1.41l-1.41 1.41a1 1 0 0 0-.324.992 1.004 1.004 0 1 0 1.734.418zm6.188-5.532l-1.41 1.41a1.001 1.001 0 0 0 .418 1.731.99.99 0 0 0 .992-.32l1.41-1.41a1 1 0 0 0-1.41-1.41zm8.782 3.7c.265 0 .523-.102.71-.29l1.41-1.41c.32-.394.294-.968-.062-1.332a.999.999 0 0 0-1.328-.09l-1.41 1.41a1 1 0 0 0 .71 1.712zm-15.02 7.78l-1.41 1.411a.998.998 0 0 0 .394 1.785A1 1 0 0 0 32.25 50l1.41-1.41a1 1 0 0 0-1.41-1.41zm-8.73-26.87l-1.41 1.41a.996.996 0 0 0-.32.992.988.988 0 0 0 .737.738c.364.09.75-.035.993-.32l1.41-1.41c.34-.398.316-.988-.051-1.36a1.004 1.004 0 0 0-1.36-.05zM12.621 44.55L11.211 46c-.285.246-.41.629-.324.992a1 1 0 0 0 .738.738 1 1 0 0 0 .996-.32L14 46c.34-.398.316-.988-.05-1.36a1.004 1.004 0 0 0-1.36-.05zM42 25.398a1.002 1.002 0 0 0-1.41 0l-1.39 1.41a1 1 0 0 0-.321.997 1 1 0 0 0 .738.738c.363.086.75-.04.992-.324L42 26.809a1.002 1.002 0 0 0 0-1.41zM19.57 31.05a1.002 1.002 0 0 0-1.41 0l-1.41 1.41a.993.993 0 0 0-.32.993.988.988 0 0 0 .738.738.996.996 0 0 0 .992-.32l1.41-1.41c.387-.39.387-1.02 0-1.41zm.59 17l-1.41 1.41a.993.993 0 0 0-.32.993.988.988 0 0 0 .738.738.996.996 0 0 0 .992-.32l1.41-1.41a1 1 0 0 0-1.41-1.41zm2.531-7.562l-1.41 1.41a1.01 1.01 0 0 0-.324.997c.09.363.375.648.738.738.367.086.75-.04.996-.324l1.41-1.41a.996.996 0 0 0-.054-1.356.996.996 0 0 0-1.356-.055zM43.219 43l-1.41 1.41a.996.996 0 0 0-.32.992.988.988 0 0 0 .738.739.99.99 0 0 0 .992-.32l1.41-1.41c.34-.4.316-.99-.05-1.36a1.004 1.004 0 0 0-1.36-.051z" fill="#8d6c9f"/></svg>