<svg xmlns="http://www.w3.org/2000/svg" viewBox="0 0 24 24"><path d="M15 2c-1.52 2.023-1.977 3.691-2.063 4.906.684.563 1.383 1.227 2.094 1.938.906.906 1.739 1.793 2.375 2.656 1.309.188 2.856.016 4.594-1.531-1.43-.406-1.906-.606-4-.969 1.375-.902 2-4 2-4s-.402-.023-1 .031c-.809.074-1.977.297-3 .969.094-1.656-.45-2.848-1-4zM9 6c-.875 0-2.164.102-3.313 1.25C2.555 10.383.98 19.012 2.938 20.969c1.844 1.843 9.989 1.004 13.72-2.782C17.746 17.075 18.022 16.023 18 15c-.043-1.89-1.508-3.695-3.469-5.656C12.621 7.434 10.293 6 9 6zm.469 2c.129-.012.289 0 .531 0 0 .277.04.648-.156.844a.477.477 0 0 1-.688 0 .477.477 0 0 1 0-.688A.465.465 0 0 1 9.47 8zm-3 3c.129-.012.289 0 .531 0 0 .277.04.648-.156.844a.477.477 0 0 1-.688 0 .477.477 0 0 1 0-.688A.465.465 0 0 1 6.47 11zm6 0c.129-.012.289 0 .531 0 0 .277.04.648-.156.844a.477.477 0 0 1-.688 0 .477.477 0 0 1 0-.688.465.465 0 0 1 .313-.156zm-3 3c.129-.012.289 0 .531 0 0 .277.04.648-.156.844a.477.477 0 0 1-.688 0 .477.477 0 0 1 0-.688A.465.465 0 0 1 9.47 14zm6 0c.129-.012.289 0 .531 0 0 .277.04.648-.156.844a.477.477 0 0 1-.688 0 .477.477 0 0 1 0-.688.465.465 0 0 1 .313-.156zm-10 1c.129-.012.289 0 .531 0 0 .277.04.648-.156.844a.477.477 0 0 1-.688 0 .477.477 0 0 1 0-.688A.465.465 0 0 1 5.47 15zm7 2c.129-.012.289 0 .531 0 0 .277.04.648-.156.844a.477.477 0 0 1-.688 0 .477.477 0 0 1 0-.688.465.465 0 0 1 .313-.156zm-4 1c.129-.012.289 0 .531 0 0 .277.04.648-.156.844a.477.477 0 0 1-.688 0 .477.477 0 0 1 0-.688A.465.465 0 0 1 8.47 18zm-4 1c.129-.012.289 0 .531 0 0 .277.04.648-.156.844a.477.477 0 0 1-.688 0 .477.477 0 0 1 0-.688A.465.465 0 0 1 4.47 19z"/></svg>