<svg xmlns="http://www.w3.org/2000/svg" viewBox="0 0 32 32"><path d="M23.063 4.063l-19 19 .03.03-.062.032c.39.39.782.75 1.188 1.094l.281.281.031-.031c2.762 2.238 5.809 3.39 8.782 3.468 3.523.09 6.937-1.312 9.624-4 5.426-5.425 5.434-14.593-.875-19.875zm-.5 3.375c3.511 4.214 3.269 10.48-.688 14.437-3.957 3.957-10.223 4.2-14.438.688zm-.532 4.906c-.129-.02-.273 0-.406.031-.535.129-2.5 1.625-2.5 1.625s2.434.441 2.969.313c.535-.133.879-.684.75-1.22a1.003 1.003 0 0 0-.813-.75zm-.625 3.344c-.914.066-2.281.312-2.281.312s1.965 1.496 2.5 1.625c.535.129 1.09-.184 1.219-.719a1.023 1.023 0 0 0-.75-1.218c-.133-.032-.383-.024-.688 0zM18 18s.89 2.328 1.281 2.719c.39.39 1.047.39 1.438 0a1.03 1.03 0 0 0 0-1.438C20.329 18.891 18 18 18 18zm-4.344 1.031s-1.668 1.852-1.844 2.375a.98.98 0 0 0 .626 1.25 1.014 1.014 0 0 0 1.28-.625c.177-.523-.062-3-.062-3zm2.344.094s-.441 2.434-.313 2.969c.133.535.684.883 1.22.75.534-.133.847-.684.718-1.219S16 19.125 16 19.125z"/></svg>