<svg xmlns="http://www.w3.org/2000/svg" viewBox="0 0 48 48"><path d="M5.715 35.773c8.297 8.297 21.75 8.297 30.047 0 8.297-8.3 8.297-21.757 0-30.058z" fill="#e6ee9c"/><path d="M32.898 32.91c6.72-6.719 6.72-17.613 0-24.332L8.578 32.91c6.715 6.719 17.606 6.719 24.32 0z" fill="#ff1744"/><path d="M29.68 27.457a1.514 1.514 0 0 1 0 2.145 1.516 1.516 0 0 1-2.145 0c-.594-.594-1.074-3.22-1.074-3.22s2.629.481 3.219 1.075zm1.972-5.407a1.519 1.519 0 0 1 1.23 1.762 1.513 1.513 0 0 1-1.757 1.227c-.824-.144-3.098-2.086-3.098-2.086s2.801-1.047 3.625-.902zm-.414-5.695a1.518 1.518 0 0 1 .48 2.997c-.827.132-3.55-.965-3.55-.965s2.242-1.899 3.07-2.032zm-9.086 15.204a1.516 1.516 0 1 0 2.985-.528c-.145-.828-2.086-3.097-2.086-3.097s-1.047 2.8-.899 3.625zm-5.781-.414a1.518 1.518 0 0 0 2.996.48c.133-.824-.965-3.55-.965-3.55s-1.898 2.241-2.03 3.07z" fill="#5d4037"/><path d="M20.738 43A22.191 22.191 0 0 1 5 36.488l1.43-1.43c7.89 7.891 20.726 7.891 28.617 0 3.824-3.828 5.933-8.91 5.93-14.312a20.123 20.123 0 0 0-5.93-14.316L36.477 5A22.126 22.126 0 0 1 43 20.746c.004 5.942-2.316 11.535-6.523 15.742C32.14 40.828 26.437 43 20.738 43z" fill="#558b2f"/></svg>