<svg xmlns="http://www.w3.org/2000/svg" viewBox="0 0 40 40"><path d="M20 38.5c-.594 0-1.148-.23-1.566-.648L2.148 21.566A2.198 2.198 0 0 1 1.5 20c0-.594.23-1.148.648-1.566L18.434 2.148A2.198 2.198 0 0 1 20 1.5c.594 0 1.148.23 1.566.648l16.286 16.286c.418.418.648.972.648 1.566 0 .594-.23 1.148-.648 1.566L21.566 37.852A2.198 2.198 0 0 1 20 38.5z" fill="#98ccfd"/><path d="M20 2c.46 0 .89.18 1.215.504l16.281 16.281a1.716 1.716 0 0 1 0 2.43L21.215 37.496A1.705 1.705 0 0 1 20 38c-.46 0-.89-.18-1.215-.504L2.504 21.215a1.716 1.716 0 0 1 0-2.43L18.785 2.504A1.705 1.705 0 0 1 20 2m0-1a2.71 2.71 0 0 0-1.922.797L1.797 18.078a2.716 2.716 0 0 0 0 3.844l16.281 16.281A2.71 2.71 0 0 0 20 39a2.71 2.71 0 0 0 1.922-.797l16.281-16.281a2.716 2.716 0 0 0 0-3.844L21.922 1.797A2.71 2.71 0 0 0 20 1z" fill="#4788c7"/><path d="M22 20a1.999 1.999 0 1 1-4 0 1.999 1.999 0 1 1 4 0zm7 0a1.999 1.999 0 1 1-4 0 1.999 1.999 0 1 1 4 0zm-14 0a1.999 1.999 0 1 1-4 0 1.999 1.999 0 1 1 4 0z" fill="#fff"/></svg>