<svg xmlns="http://www.w3.org/2000/svg" viewBox="0 0 16 16"><path style="line-height:normal;text-indent:0;text-align:start;text-decoration-line:none;text-decoration-style:solid;text-decoration-color:#000;text-transform:none;block-progression:tb;isolation:auto;mix-blend-mode:normal" d="M2.5 2C1.677 2 1 2.677 1 3.5v9c0 .823.677 1.5 1.5 1.5h11c.823 0 1.5-.677 1.5-1.5v-7c0-.823-.677-1.5-1.5-1.5H6.799l-.654-1.213A1.5 1.5 0 0 0 4.825 2H2.5zm0 1h2.324c.185 0 .353.1.44.262L5.662 4H2v-.5c0-.281.219-.5.5-.5zM2 5h11.5c.281 0 .5.219.5.5v7c0 .281-.219.5-.5.5h-11a.493.493 0 0 1-.5-.5V5zm4 2a.695.695 0 0 0-.271.063.495.495 0 1 1-.612.748A2.095 2.095 0 0 0 5 8.5c0 .828.448 1.5 1 1.5s1-.672 1-1.5S6.552 7 6 7zm4 0a.695.695 0 0 0-.271.063.495.495 0 1 1-.612.748A2.095 2.095 0 0 0 9 8.5c0 .828.448 1.5 1 1.5s1-.672 1-1.5S10.552 7 10 7zm-3 4a1 1 0 0 0 2 0H7z" font-weight="400" font-family="sans-serif" white-space="normal" overflow="visible"/></svg>