<svg xmlns="http://www.w3.org/2000/svg" viewBox="0 0 64 64"><linearGradient id="a" gradientUnits="userSpaceOnUse" x1="32" y1="11.375" x2="32" y2="52.252" spreadMethod="reflect"><stop offset="0" stop-color="#1a6dff"/><stop offset="1" stop-color="#c822ff"/></linearGradient><path d="M58 16H6c-1.654 0-3 1.346-3 3v30c0 1.654 1.346 3 3 3h52c1.654 0 3-1.346 3-3V19c0-1.654-1.346-3-3-3zm1 33a1 1 0 0 1-1 1H6a1 1 0 0 1-1-1V19a1 1 0 0 1 1-1h52a1 1 0 0 1 1 1v30z" fill="url(#a)"/><linearGradient id="b" gradientUnits="userSpaceOnUse" x1="32" y1="11.375" x2="32" y2="52.252" spreadMethod="reflect"><stop offset="0" stop-color="#1a6dff"/><stop offset="1" stop-color="#c822ff"/></linearGradient><rect x="5" y="12" width="54" height="2" fill="url(#b)"/><linearGradient id="c" gradientUnits="userSpaceOnUse" x1="15.094" y1="26.667" x2="15.094" y2="41.016" spreadMethod="reflect"><stop offset="0" stop-color="#6dc7ff"/><stop offset="1" stop-color="#e6abff"/></linearGradient><path d="M9.762 40l4.211-12h2.305l4.148 12h-2.172l-1.133-3h-4.008l-1.141 3h-2.21zm3.883-5h2.938c-.938-3-1.419-4.557-1.445-4.656L13.645 35z" fill="url(#c)"/><linearGradient id="d" gradientUnits="userSpaceOnUse" x1="27.5" y1="26.667" x2="27.5" y2="41.016" spreadMethod="reflect"><stop offset="0" stop-color="#6dc7ff"/><stop offset="1" stop-color="#e6abff"/></linearGradient><path d="M21 40V28h3.066l3.461 8.266L31.012 28H34v12h-2v-9l-3.629 8h-1.813L23 31v9h-2z" fill="url(#d)"/><linearGradient id="e" gradientUnits="userSpaceOnUse" x1="39.5" y1="26.667" x2="39.5" y2="41.016" spreadMethod="reflect"><stop offset="0" stop-color="#6dc7ff"/><stop offset="1" stop-color="#e6abff"/></linearGradient><path d="M36 40V28h7v2h-5v3h5v2h-5v3h4.973l-.07 2H36z" fill="url(#e)"/><linearGradient id="f" gradientUnits="userSpaceOnUse" x1="48.934" y1="26.667" x2="48.934" y2="41.016" spreadMethod="reflect"><stop offset="0" stop-color="#6dc7ff"/><stop offset="1" stop-color="#e6abff"/></linearGradient><path d="M43.629 40l4.008-6.137L43.926 28h2.383l2.695 4.266L51.777 28h2.258l-3.789 5.895L54.238 40h-2.445l-2.891-4.453L45.949 40h-2.32z" fill="url(#f)"/></svg>