<svg xmlns="http://www.w3.org/2000/svg" viewBox="0 0 16 16"><path d="M2.5 1C1.676 1 1 1.676 1 2.5v9c0 .824.676 1.5 1.5 1.5H4v.5c0 .824.676 1.5 1.5 1.5h4c.824 0 1.5-.676 1.5-1.5V13h1.5c.824 0 1.5-.676 1.5-1.5v-9c0-.824-.676-1.5-1.5-1.5zm0 1h10c.281 0 .5.219.5.5v9c0 .281-.219.5-.5.5H11v-2h1V9H3v1h1v2H2.5a.494.494 0 0 1-.5-.5v-9c0-.281.219-.5.5-.5zM3 3v1h1V3zm2 0v5h5V3zm6 0v1h1V3zM6 4h3v3H6zM3 5v1h1V5zm8 0v1h1V5zM3 7v1h1V7zm8 0v1h1V7zm-6 3h1.094c.207.578.758 1 1.406 1a1.5 1.5 0 0 0 1.406-1H10v3c-.547 0-1 .453-1 1H6c0-.547-.453-1-1-1zm2.5 2a.499.499 0 1 0 0 1 .499.499 0 1 0 0-1z"/></svg>