<svg xmlns="http://www.w3.org/2000/svg" viewBox="0 0 64 64"><path d="M61 7v44H3V7c0-.531.102-1.04.3-1.5A3.979 3.979 0 0 1 7 3h50a3.98 3.98 0 0 1 3.7 2.5c.198.46.3.969.3 1.5z" fill="#ced8ed"/><path d="M61 51H3v-5c0-3.313 2.688-6 6-6h46c3.313 0 6 2.688 6 6z" fill="#b5c4e0"/><path d="M51 43H13a3 3 0 0 1 0-6h38a3 3 0 0 1 0 6z" fill="#7e8189"/><path d="M52 10.95h2c.55 0 1 .448 1 1v2a1 1 0 0 1-1 1h-2a1 1 0 0 1-1-1v-2c0-.552.45-1 1-1z" fill="#72caaf"/><path d="M52 26.95h2c.55 0 1 .448 1 1v2a1 1 0 0 1-1 1h-2a1 1 0 0 1-1-1v-2c0-.552.45-1 1-1z" fill="#ed7899"/><path d="M52 18.95h2c.55 0 1 .448 1 1v2a1 1 0 0 1-1 1h-2a1 1 0 0 1-1-1v-2c0-.552.45-1 1-1z" fill="#fadb6f"/><path d="M10 10.95h2c.55 0 1 .448 1 1v2a1 1 0 0 1-1 1h-2a1 1 0 0 1-1-1v-2c0-.552.45-1 1-1z" fill="#72caaf"/><path d="M10 26.95h2c.55 0 1 .448 1 1v2a1 1 0 0 1-1 1h-2a1 1 0 0 1-1-1v-2c0-.552.45-1 1-1z" fill="#ed7899"/><path d="M10 18.95h2c.55 0 1 .448 1 1v2a1 1 0 0 1-1 1h-2a1 1 0 0 1-1-1v-2c0-.552.45-1 1-1z" fill="#fadb6f"/><path d="M61 55H3a1.999 1.999 0 1 1 0-4h58a1.999 1.999 0 1 1 0 4z" fill="#b5c4e0"/><path d="M47 37v24c0 1.102-.898 2-2 2H19c-1.102 0-2-.898-2-2V37z" fill="#72caaf"/><path d="M42 40.191c0 4.418-4.48 8-10 8s-10-3.582-10-8c0-1.14.3-2.222.828-3.191h18.344c.098.172.187.352.258.54.11.23.199.46.261.698.207.621.309 1.282.309 1.953z" fill="#bbdef9"/><path d="M32.922 37l-8.883 7.031c-.86-1.12-1.367-2.43-1.367-3.84 0-1.082.379-2.171 1.027-3.191zm6.887 0l-12.2 9.66a10.202 10.202 0 0 1-2.02-1.129L36.372 37zM29.25 47.176l12.414-9.824c.086.242-.64 1.414-.64 1.414l-10.84 8.582c-.32-.043-.63-.102-.934-.172z" fill="#def0ff"/><path d="M17 11h30v20H17z" fill="#bbdef9"/><path d="M47 63H17v-3a3 3 0 0 1 3-3h24a3 3 0 0 1 3 3z" fill="#5dbc9d"/><path d="M35 56a3 3 0 1 1-6.002-.002A3 3 0 0 1 35 56z" fill="#fadb6f"/><path d="M60.7 5.5A3.979 3.979 0 0 1 57 8H7a3.979 3.979 0 0 1-3.7-2.5A3.979 3.979 0 0 1 7 3h50a3.98 3.98 0 0 1 3.7 2.5z" fill="#dae2ef"/><path d="M47 16.27v13l-2 2H32zM47 11v1.57L28.219 31.352H23L43.352 11zm-8.14 0l-20 20H17v-1.39L35.61 11z" fill="#e3f2ff"/><path d="M23.5 15l1.238 2.262L27 18.5l-2.262 1.238L23.5 22l-1.238-2.262L20 18.5l2.262-1.238zm15.922-.84l.848 1.57 1.57.848-1.57.863L39.422 19l-.863-1.559L37 16.578l1.559-.848zM33.648 24.7l.582 1.07 1.07.582-1.07.578-.582 1.07-.59-1.07L32 26.352l1.059-.582z" fill="#fff8f8"/><path d="M62 50.184V7c0-2.758-2.242-5-5-5H7C4.242 2 2 4.242 2 7v43.184c-1.16.418-2 1.52-2 2.816 0 1.648 1.352 3 3 3h13v5c0 1.648 1.352 3 3 3h26c1.648 0 3-1.352 3-3v-5h13c1.648 0 3-1.352 3-3 0-1.297-.84-2.398-2-2.816zM16 54H3c-.55 0-1-.45-1-1s.45-1 1-1h13zm0-12h-3c-1.102 0-2-.898-2-2 0-1.102.898-2 2-2h3zm30 19c0 .55-.45 1-1 1H19c-.55 0-1-.45-1-1V38h4.258A8.186 8.186 0 0 0 22 40h-1a1 1 0 1 0 0 2h1.258c1.015 4.004 4.992 7 9.742 7 4.75 0 8.727-2.996 9.742-7H43a1 1 0 1 0 0-2h-1c0-.68-.094-1.348-.258-2H46zM24 40c0-.684.117-1.352.34-2h15.324c.223.645.336 1.316.336 2 0 3.86-3.59 7-8 7s-8-3.14-8-7zm19-4H13c-2.207 0-4 1.793-4 4s1.793 4 4 4h3v6H4V7c0-1.652 1.348-3 3-3h50c1.652 0 3 1.348 3 3v43H48v-6h3c2.207 0 4-1.793 4-4s-1.793-4-4-4zm5 6v-4h3c1.102 0 2 .898 2 2 0 1.102-.898 2-2 2zm13 12H48v-2h13c.55 0 1 .45 1 1s-.45 1-1 1z" fill="#8d6c9f"/><path d="M23 45h-2a1 1 0 1 0 0 2h2a1 1 0 1 0 0-2zm0 5h-2a1 1 0 1 0 0 2h2a1 1 0 1 0 0-2zm20-5h-2a1 1 0 1 0 0 2h2a1 1 0 1 0 0-2zm0 5h-2a1 1 0 1 0 0 2h2a1 1 0 1 0 0-2zm0 5a1 1 0 0 0-1 1v3a1 1 0 1 0 2 0v-3a1 1 0 0 0-1-1zm-22 0a1 1 0 0 0-1 1v3a1 1 0 1 0 2 0v-3a1 1 0 0 0-1-1zm11-3c-2.207 0-4 1.793-4 4s1.793 4 4 4 4-1.793 4-4-1.793-4-4-4zm0 6.336A2.342 2.342 0 0 1 29.664 56 2.342 2.342 0 0 1 32 53.664 2.342 2.342 0 0 1 34.336 56 2.342 2.342 0 0 1 32 58.336zM12 10h-2c-1.102 0-2 .898-2 2v2c0 1.102.898 2 2 2h2c1.102 0 2-.898 2-2v-2c0-1.102-.898-2-2-2zm-2 4v-2h2v2zm2 4h-2c-1.102 0-2 .898-2 2v2c0 1.102.898 2 2 2h2c1.102 0 2-.898 2-2v-2c0-1.102-.898-2-2-2zm-2 4v-2h2v2zm2 4h-2c-1.102 0-2 .898-2 2v2c0 1.102.898 2 2 2h2c1.102 0 2-.898 2-2v-2c0-1.102-.898-2-2-2zm-2 4v-2h2v2zm42-14h2c1.102 0 2-.898 2-2v-2c0-1.102-.898-2-2-2h-2c-1.102 0-2 .898-2 2v2c0 1.102.898 2 2 2zm0-4h2v2h-2zm0 12h2c1.102 0 2-.898 2-2v-2c0-1.102-.898-2-2-2h-2c-1.102 0-2 .898-2 2v2c0 1.102.898 2 2 2zm0-4h2v2h-2zm2 12c1.102 0 2-.898 2-2v-2c0-1.102-.898-2-2-2h-2c-1.102 0-2 .898-2 2v2c0 1.102.898 2 2 2zm-2-4h2v2h-2zm-6-18H18c-1.102 0-2 .898-2 2v18c0 1.102.898 2 2 2h28c1.102 0 2-.898 2-2V12c0-1.102-.898-2-2-2zM18 30V12h28v18z" fill="#8d6c9f"/></svg>