<svg xmlns="http://www.w3.org/2000/svg" viewBox="0 0 64 64"><path d="M3 10c-1.7 0-3 1.3-3 3v32c0 1.7 1.3 3 3 3h3v3c0 1.7 1.3 3 3 3h52c1.7 0 3-1.3 3-3V19c0-1.7-1.3-3-3-3h-3v-3c0-1.7-1.3-3-3-3zm0 2h52c.602 0 1 .398 1 1v13H2v-8h43c.602 0 1-.398 1-1s-.398-1-1-1H2v-3c0-.602.398-1 1-1zm46 4c-.602 0-1 .398-1 1s.398 1 1 1h4c.602 0 1-.398 1-1s-.398-1-1-1zm9 2h3c.602 0 1 .398 1 1v32c0 .602-.398 1-1 1H9c-.602 0-1-.398-1-1v-3h47c1.7 0 3-1.3 3-3zM6 20c-.602 0-1 .398-1 1v2c0 .602.398 1 1 1s1-.398 1-1v-2a1 1 0 0 0-1-1zm5 0c-.602 0-1 .398-1 1v2c0 .602.398 1 1 1s1-.398 1-1v-2a1 1 0 0 0-1-1zm5 0c-.602 0-1 .398-1 1v2c0 .602.398 1 1 1s1-.398 1-1v-2a1 1 0 0 0-1-1zm5 0c-.602 0-1 .398-1 1v2c0 .602.398 1 1 1s1-.398 1-1v-2a1 1 0 0 0-1-1zm5 0c-.602 0-1 .398-1 1v2c0 .602.398 1 1 1s1-.398 1-1v-2c0-.602-.398-1-1-1zm6 0c-.602 0-1 .398-1 1v2c0 .602.398 1 1 1s1-.398 1-1v-2c0-.602-.398-1-1-1zm5 0c-.602 0-1 .398-1 1v2c0 .602.398 1 1 1s1-.398 1-1v-2c0-.602-.398-1-1-1zm5 0c-.602 0-1 .398-1 1v2c0 .602.398 1 1 1s1-.398 1-1v-2c0-.602-.398-1-1-1zm5 0c-.602 0-1 .398-1 1v2c0 .602.398 1 1 1s1-.398 1-1v-2c0-.602-.398-1-1-1zm5 0c-.602 0-1 .398-1 1v2c0 .602.398 1 1 1s1-.398 1-1v-2c0-.602-.398-1-1-1zM2 28h54v17c0 .602-.398 1-1 1H3c-.602 0-1-.398-1-1zm40 4c-2.2 0-4 1.8-4 4s1.8 4 4 4c.898 0 1.8-.3 2.5-.902.7.601 1.602.902 2.5.902 2.2 0 4-1.8 4-4s-1.8-4-4-4c-.898 0-1.8.3-2.5.902-.7-.601-1.602-.902-2.5-.902zM7 33c-.602 0-1 .398-1 1s.398 1 1 1h14c.602 0 1-.398 1-1s-.398-1-1-1zm20 0c-.602 0-1 .398-1 1s.398 1 1 1h4c.602 0 1-.398 1-1s-.398-1-1-1zm14.8.902c.7 0 1.4.399 1.798 1 .402.598 1.402.598 1.804 0 .399-.601 1.098-1 1.797-1 1.2 0 2.102.996 2.102 2.098 0 1.102-.903 2.098-2.102 2.098-.699 0-1.398-.399-1.797-1-.203-.297-.504-.5-.902-.5s-.7.203-.902.5c-.399.601-1.098 1-1.797 1-1.2 0-2.102-.996-2.102-2.098 0-1.102 1-2.098 2.102-2.098zM7 37c-.602 0-1 .398-1 1s.398 1 1 1h11c.602 0 1-.398 1-1s-.398-1-1-1z"/></svg>