<svg xmlns="http://www.w3.org/2000/svg" viewBox="0 0 24 24"><path d="M4 2c-1.102 0-2 .898-2 2v16c0 1.102.898 2 2 2h16c1.102 0 2-.898 2-2V4c0-1.102-.898-2-2-2zm5 3h1.406v1.5h2.188V5H14v1.813c.3.101.613.175.813.375.3.199.582.507.78.906.2.398.313.812.313 1.312 0 .2.008.489-.094.688l-.312.594c-.102.199-.3.398-.5.5-.2.199-.387.304-.688.406.301.101.583.207.782.406.199.2.398.293.5.594.101.199.21.418.312.719.102.199.094.48.094.78.102.9-.207 1.72-.906 2.22a3.773 3.773 0 0 1-1.094.5V18.5h-1.406V17h-2.188v1.5H9V17h-.813V6.5H9zm1.406 3.313V11H12c.602-.102.988-.207 1.188-.406.3-.2.406-.5.406-1s-.106-.801-.406-1c-.301-.2-.68-.281-1.282-.281zm-.094 4.187v2.906h1.876c.3 0 .519.008.718-.094.2-.101.399-.21.5-.312.102-.102.18-.305.281-.406.102-.2.126-.395.126-.594 0-.2-.024-.395-.126-.594 0-.199.012-.398-.187-.5-.102-.101-.3-.21-.5-.312-.2-.102-.387-.094-.688-.094z"/></svg>