<svg xmlns="http://www.w3.org/2000/svg" viewBox="0 0 26 26"><path d="M9 5v2H7v13h2v2h2v-2h2v2h2v-2.094c.266-.035.555-.05.813-.093a7.606 7.606 0 0 0 1.593-.72c.399-.3.793-.687 1.094-1.187.3-.5.406-1.02.406-1.718 0-.801-.32-1.493-.718-2.094-.5-.602-1.102-.989-2-1.188.699-.3 1.199-.695 1.5-1.094.3-.398.5-.925.5-1.624 0-.602-.083-1.102-.282-1.5-.199-.399-.508-.801-.906-1-.398-.2-.805-.399-1.406-.5L15 7.093V5h-2v2h-2V5zm1 4h2.906c.301 0 .582-.008.781.094.301 0 .52.117.72.219.198.101.398.175.5.374.1.2.187.418.187.72 0 .6-.102.988-.5 1.187-.399.3-.805.406-1.406.406H10zm0 5h3.5c.7 0 1.313.2 1.813.5s.687.895.687 1.594c0 .3-.086.707-.188.906-.199.3-.425.492-.624.594-.2.101-.481.21-.782.312-.3.102-.699.094-1 .094H10z"/></svg>