<svg xmlns="http://www.w3.org/2000/svg" viewBox="0 0 32 32"><path d="M2 7v18h28V7zm2 2h24v14H4zm19 2v1.04c-1.125.187-2 1.17-2 2.343v1h.285c.192.332.469.613.824.789L25 17.617a.372.372 0 0 1-.383.383h-1.234a.37.37 0 0 1-.383-.383V17h-2v.617c0 1.172.875 2.156 2 2.344V21h2v-1.043c.719-.14 1.246-.684 1.582-1.34H27v-1a2.01 2.01 0 0 0-1.105-1.789L23 14.378a.37.37 0 0 1 .383-.378h1.234a.37.37 0 0 1 .383.383V15h2v-.617c0-1.172-.875-2.156-2-2.344V11zM7.5 12A2.518 2.518 0 0 0 5 14.5v3C5 18.867 6.133 20 7.5 20h1c1.367 0 2.5-1.133 2.5-2.5v-3c0-1.367-1.133-2.5-2.5-2.5zm7 0a2.518 2.518 0 0 0-2.5 2.5v3c0 1.367 1.133 2.5 2.5 2.5h1c1.367 0 2.5-1.133 2.5-2.5v-3c0-1.367-1.133-2.5-2.5-2.5zm-7 2h1c.285 0 .5.215.5.5v3a.49.49 0 0 1-.5.5h-1a.489.489 0 0 1-.5-.5v-3c0-.285.215-.5.5-.5zm7 0h1c.285 0 .5.215.5.5v3a.49.49 0 0 1-.5.5h-1a.489.489 0 0 1-.5-.5v-3c0-.285.215-.5.5-.5z"/></svg>