<?xml version="1.0" encoding="utf-8"?>
<!-- Generator: Adobe Illustrator 22.0.1, SVG Export Plug-In . SVG Version: 6.00 Build 0)  -->
<svg version="1.1" xmlns="http://www.w3.org/2000/svg" xmlns:xlink="http://www.w3.org/1999/xlink" x="0px" y="0px"
	 viewBox="0 0 136.2 195.9" style="enable-background:new 0 0 136.2 195.9;" xml:space="preserve">
<style type="text/css">
	.st0{fill:#FAFEFE;}
	.st1{fill-rule:evenodd;clip-rule:evenodd;fill:#142626;}
	.st2{opacity:0.5;fill:#49A88C;}
	.st3{fill:#244647;}
	.st4{fill:#246B59;}
	.st5{fill:#49A88C;}
	.st6{fill-rule:evenodd;clip-rule:evenodd;fill:#98D19E;}
	.st7{fill-rule:evenodd;clip-rule:evenodd;fill:#49A88C;}
	.st8{fill-rule:evenodd;clip-rule:evenodd;fill:#F7CB5B;}
	.st9{fill-rule:evenodd;clip-rule:evenodd;fill:#FAFEFE;}
	.st10{fill-rule:evenodd;clip-rule:evenodd;fill:#E44224;}
	.st11{fill-rule:evenodd;clip-rule:evenodd;fill:#F97432;}
	.st12{opacity:0.5;fill-rule:evenodd;clip-rule:evenodd;fill:#244647;}
	.st13{fill:#142626;}
	.st14{clip-path:url(#SVGID_2_);}
	.st15{fill:#F7CB5B;}
	.st16{fill:#E44224;}
	.st17{fill:#F97432;}
	.st18{fill-rule:evenodd;clip-rule:evenodd;fill:#246B59;}
	.st19{fill-rule:evenodd;clip-rule:evenodd;fill:#244647;}
	.st20{opacity:0.5;fill-rule:evenodd;clip-rule:evenodd;fill:#49A88C;}
	.st21{fill:#98D19E;}
	.st22{fill-rule:evenodd;clip-rule:evenodd;fill:#FFFFFF;}
	.st23{clip-path:url(#SVGID_4_);}
	.st24{fill-rule:evenodd;clip-rule:evenodd;fill:none;}
	.st25{opacity:0.5;fill-rule:evenodd;clip-rule:evenodd;fill:none;}
	
		.st26{clip-path:url(#SVGID_6_);fill-rule:evenodd;clip-rule:evenodd;fill:none;stroke:#FFFFFF;stroke-width:3;stroke-miterlimit:10;}
	
		.st27{clip-path:url(#SVGID_6_);fill-rule:evenodd;clip-rule:evenodd;fill:none;stroke:#246B59;stroke-width:3;stroke-miterlimit:10;}
	
		.st28{clip-path:url(#SVGID_6_);fill-rule:evenodd;clip-rule:evenodd;fill:none;stroke:#98D19E;stroke-width:3;stroke-miterlimit:10;}
	
		.st29{clip-path:url(#SVGID_6_);fill-rule:evenodd;clip-rule:evenodd;fill:none;stroke:#F7CB5B;stroke-width:3;stroke-miterlimit:10;}
	
		.st30{clip-path:url(#SVGID_6_);fill-rule:evenodd;clip-rule:evenodd;fill:none;stroke:#F97432;stroke-width:3;stroke-miterlimit:10;}
	.st31{fill:#CECECE;}
</style>
<g id="BACKGROUND">
</g>
<g id="OBJECTS">
	<g>
		<rect x="58.7" y="170.9" class="st1" width="18.9" height="22.9"/>
		<polygon class="st2" points="58.7,176.9 68.2,186.1 77.5,177.1 77.5,170.9 58.7,170.9 		"/>
		<polygon class="st13" points="136.2,183.2 68.1,59.8 0,183.2 20.6,172.1 23,183.2 23.2,183.2 34.7,172.1 46.2,183.2 57.8,172.1 
			68.1,182.1 78.5,172.1 90,183.2 101.5,172.1 113,183.2 113.2,183.2 115.7,172.1 		"/>
		<polygon class="st2" points="68.1,59.8 28.3,131.9 32.5,129.6 34.3,137.9 34.5,137.9 43.1,129.6 51.7,137.9 60.4,129.6 
			68.1,137.1 75.9,129.6 84.5,137.9 93.1,129.6 101.8,137.9 101.9,137.9 103.7,129.6 107.9,131.9 		"/>
		<polygon class="st3" points="119.2,132.7 68.1,40.3 17.1,132.7 32.5,124.5 34.3,132.7 34.5,132.7 43.1,124.5 51.7,132.7 
			60.4,124.5 68.1,131.9 75.9,124.5 84.5,132.7 93.1,124.5 101.8,132.7 101.9,132.7 103.7,124.5 		"/>
		<polygon class="st2" points="68.1,40.3 44.4,83.2 45,85.8 45.1,85.8 51,80.2 56.9,85.8 62.8,80.2 68.1,85.3 73.4,80.2 79.4,85.8 
			85.3,80.2 91.2,85.8 91.3,85.8 91.8,83.2 		"/>
		<polygon class="st4" points="103.1,82.2 68.1,18.8 33.1,82.2 43.7,76.5 45,82.2 45.1,82.2 51,76.5 56.9,82.2 62.8,76.5 68.1,81.6 
			73.4,76.5 79.4,82.2 85.3,76.5 91.2,82.2 91.3,82.2 92.5,76.5 		"/>
		<polygon class="st5" points="65.1,29.7 39.9,74.2 45.8,70.5 46.4,77.2 		"/>
		<polygon class="st5" points="48.9,87.3 26.6,122.8 35.4,117.8 35.9,127.1 		"/>
		<polygon class="st5" points="9.2,174 25.1,164.1 25.5,176.7 34.3,139.7 		"/>
		<g>
			<polygon class="st11" points="68.1,0 73.1,10.1 84.3,11.8 76.2,19.6 78.1,30.8 68.1,25.5 58.1,30.8 60,19.6 51.9,11.8 63.1,10.1 
							"/>
			<polygon class="st8" points="58.1,30.8 68.4,15.4 68.1,0 63.1,10.1 51.9,11.8 60,19.6 			"/>
		</g>
		<g>
			<polygon class="st8" points="68.1,81.5 69.9,85.1 73.8,85.7 71,88.5 71.7,92.4 68.1,90.6 64.6,92.4 65.3,88.5 62.4,85.7 
				66.3,85.1 			"/>
		</g>
		<g>
			<polygon class="st8" points="34.3,132.3 36.1,135.9 40.1,136.5 37.2,139.3 37.9,143.2 34.3,141.4 30.8,143.2 31.5,139.3 
				28.6,136.5 32.6,135.9 			"/>
		</g>
		<g>
			<polygon class="st8" points="102,132.3 103.7,135.9 107.7,136.5 104.8,139.3 105.5,143.2 102,141.4 98.4,143.2 99.1,139.3 
				96.2,136.5 100.2,135.9 			"/>
		</g>
		<g>
			<polygon class="st8" points="90.1,182.7 91.2,184.9 93.6,185.3 91.8,187 92.2,189.4 90.1,188.3 87.9,189.4 88.3,187 86.5,185.3 
				89,184.9 			"/>
		</g>
		<g>
			<polygon class="st8" points="68.3,182.7 69.4,184.9 71.8,185.3 70.1,187 70.5,189.4 68.3,188.3 66.1,189.4 66.6,187 64.8,185.3 
				67.2,184.9 			"/>
		</g>
		<g>
			<polygon class="st8" points="46.2,182.5 47.3,184.7 49.7,185.1 48,186.8 48.4,189.2 46.2,188.1 44,189.2 44.5,186.8 42.7,185.1 
				45.1,184.7 			"/>
		</g>
		<path class="st11" d="M48.4,85.8c0,2-1.6,3.6-3.6,3.6c-2,0-3.6-1.6-3.6-3.6c0-2,1.6-3.6,3.6-3.6C46.7,82.2,48.4,83.8,48.4,85.8z"
			/>
		<path class="st11" d="M95.4,85.6c0,2-1.6,3.6-3.6,3.6c-2,0-3.6-1.6-3.6-3.6c0-2,1.6-3.6,3.6-3.6C93.7,81.9,95.4,83.6,95.4,85.6z"
			/>
		<path class="st11" d="M75.7,139.8c0,4.2-3.4,7.6-7.6,7.6c-4.2,0-7.6-3.4-7.6-7.6c0-4.2,3.4-7.6,7.6-7.6
			C72.3,132.2,75.7,135.6,75.7,139.8z"/>
		<path class="st11" d="M25.9,186.4c0,1.8-1.4,3.2-3.2,3.2c-1.8,0-3.2-1.4-3.2-3.2c0-1.8,1.4-3.2,3.2-3.2
			C24.4,183.2,25.9,184.7,25.9,186.4z"/>
		<path class="st11" d="M115.8,186.3c0,1.8-1.4,3.2-3.2,3.2c-1.8,0-3.2-1.4-3.2-3.2c0-1.8,1.4-3.2,3.2-3.2
			C114.4,183.1,115.8,184.5,115.8,186.3z"/>
	</g>
</g>
<g id="TEXTURE">
</g>
<g id="DESIGNED_BY_FREEPIK">
</g>
</svg>
