<svg xmlns="http://www.w3.org/2000/svg" viewBox="0 0 40 40"><path d="M4 30.5A2.502 2.502 0 0 1 1.5 28V8c0-1.379 1.121-2.5 2.5-2.5h32c1.379 0 2.5 1.121 2.5 2.5v20c0 1.379-1.121 2.5-2.5 2.5z" fill="#98ccfd"/><path d="M36 6c1.102 0 2 .898 2 2v20c0 1.102-.898 2-2 2H4c-1.102 0-2-.898-2-2V8c0-1.102.898-2 2-2h32m0-1H4a3 3 0 0 0-3 3v20a3 3 0 0 0 3 3h32a3 3 0 0 0 3-3V8a3 3 0 0 0-3-3z" fill="#4788c7"/><path d="M1 10h38v4H1z" fill="#4788c7"/><path d="M5 16h30v2H5z" fill="#fff"/><path d="M20 35.5c-6.34 0-11.5-5.16-11.5-11.5S13.66 12.5 20 12.5 31.5 17.66 31.5 24 26.34 35.5 20 35.5z" fill="#98ccfd"/><path d="M20 13c6.066 0 11 4.934 11 11s-4.934 11-11 11S9 30.066 9 24s4.934-11 11-11m0-1c-6.629 0-12 5.371-12 12s5.371 12 12 12 12-5.371 12-12-5.371-12-12-12z" fill="#4788c7"/><path d="M20 15c4.965 0 9 4.035 9 9s-4.035 9-9 9-9-4.035-9-9 4.035-9 9-9m0-2c-6.074 0-11 4.926-11 11s4.926 11 11 11 11-4.926 11-11-4.926-11-11-11z" fill="#b6dcfe"/><path d="M9 24c0 1.414.277 2.758.762 4h20.476a10.957 10.957 0 0 0-1.754-11H11.516A10.957 10.957 0 0 0 9 24z" fill="#fff"/><path d="M25.652 17H14.348A8.983 8.983 0 0 0 11 24a8.99 8.99 0 0 0 .945 4h16.11A8.99 8.99 0 0 0 29 24a8.983 8.983 0 0 0-3.348-7z" fill="#dff0fe"/><path d="M12.406 23.004c0 1.219.66 2.789 2.688 2.789.629 0 1.152-.11 1.574-.328v-.86c-.387.25-.848.375-1.375.375-.824 0-1.914-.488-1.914-2.02 0-1.636 1.195-2.14 2.039-2.14.457 0 .871.114 1.25.336v-.922c-.355-.152-.805-.226-1.348-.226-1.39-.004-2.914.906-2.914 2.996zm6.84-1.488c0-.637.781-.739 1.145-.739.5 0 .91.118 1.226.344v-.918c-.27-.133-.695-.195-1.281-.195-1.625 0-2.066.933-2.066 1.539 0 1.742 2.613 1.629 2.613 2.719 0 .703-.77.761-1.16.761-.825 0-1.364-.425-1.45-.504v.957c.079.047.618.317 1.48.317 1.927 0 2.106-1.125 2.106-1.543 0-1.746-2.613-1.692-2.613-2.738zm6.617-.696c.453 0 .871.114 1.25.336v-.922c-.36-.152-.808-.226-1.347-.226-.953 0-2.914.555-2.914 3 0 2.23 1.746 2.789 2.687 2.789.625 0 1.152-.11 1.574-.328v-.86c-.39.25-.847.375-1.375.375-.574 0-1.914-.316-1.914-2.023 0-1.828 1.43-2.14 2.04-2.14z" fill="#4788c7"/></svg>