<svg xmlns="http://www.w3.org/2000/svg" viewBox="0 0 32 32"><path d="M5 6C3.355 6 2 7.355 2 9v14c0 1.645 1.355 3 3 3h22c1.645 0 3-1.355 3-3V9c0-1.645-1.355-3-3-3zm0 2h22c.566 0 1 .434 1 1v2H5v2h23v10c0 .566-.434 1-1 1H5c-.566 0-1-.434-1-1V9c0-.566.434-1 1-1zm4.5 7A2.518 2.518 0 0 0 7 17.5v3C7 21.867 8.133 23 9.5 23s2.5-1.133 2.5-2.5V20h-2v.5a.49.49 0 0 1-.5.5.489.489 0 0 1-.5-.5v-3c0-.285.215-.5.5-.5.285 0 .5.215.5.5v.5h2v-.5c0-1.367-1.133-2.5-2.5-2.5zm6 0a2.518 2.518 0 0 0-2.5 2.5c0 1.367 1.133 2.5 2.5 2.5.285 0 .5.215.5.5 0 .363-.063.5-.5.5-.379 0-.434-.086-.438-.094-.003-.008-.062-.039-.062-.281h-2c0 .566.156 1.207.625 1.688.469.48 1.148.687 1.875.687 1.41 0 2.5-1.207 2.5-2.5 0-1.367-1.133-2.5-2.5-2.5a.489.489 0 0 1-.5-.5c0-.285.215-.5.5-.5.27 0 .344.059.406.125a.46.46 0 0 1 .094.281h2c0-.566-.195-1.152-.625-1.625-.43-.472-1.117-.781-1.875-.781zm6 0a2.518 2.518 0 0 0-2.5 2.5v3c0 1.367 1.133 2.5 2.5 2.5s2.5-1.133 2.5-2.5V20h-2v.5a.49.49 0 0 1-.5.5.489.489 0 0 1-.5-.5v-3c0-.285.215-.5.5-.5.285 0 .5.215.5.5v.5h2v-.5c0-1.367-1.133-2.5-2.5-2.5z"/></svg>