<svg xmlns="http://www.w3.org/2000/svg" viewBox="0 0 50 50"><path d="M7 8c-2.758 0-5 2.242-5 5v22c0 2.758 2.242 5 5 5h4.156c2.774 4.773 7.938 8 13.844 8 .371 0 .73-.008 1.094-.031a15.878 15.878 0 0 0 7-2.188A16.15 16.15 0 0 0 38.844 40h-2.375a13.903 13.903 0 0 0 0-16H16.062c-.55.613-3.062 2.926-3.062 8s3.418 8.402 4.094 9h18.593c-.007.012-.023.02-.03.031-.313.367-.653.727-1 1.063-.337.324-.696.617-1.063.906-.024.02-.04.043-.063.063-.02.015-.043.015-.062.03a13.21 13.21 0 0 1-1.032.72c-.042.027-.082.066-.124.093-.25.153-.493.301-.75.438-.04.023-.086.039-.125.062-.208.106-.415.215-.625.313-.075.035-.145.062-.22.093-.327.145-.66.286-1 .407-.366.129-.745.246-1.124.343-.008.004-.024-.003-.032 0-.234.06-.48.11-.718.157-.043.008-.082.023-.125.031A13.692 13.692 0 0 1 25 46c-7.719 0-14-6.281-14-14 0-.34.04-.668.063-1 .03-.445.085-.879.156-1.313.004-.011 0-.019 0-.03.07-.423.172-.84.281-1.25.008-.024-.008-.044 0-.063.11-.399.234-.805.375-1.188l.031-.093a15.092 15.092 0 0 1 1.063-2.22c.035-.058.09-.097.125-.155.187-.305.386-.622.594-.907.05-.07.101-.117.156-.187.203-.27.402-.528.625-.782.074-.082.144-.167.219-.25.214-.234.43-.468.656-.687.097-.09.215-.191.312-.281.219-.2.426-.38.656-.563.122-.097.25-.187.375-.281.223-.164.458-.316.688-.469.148-.097.285-.191.438-.281.218-.133.46-.254.687-.375.176-.094.348-.195.531-.281.215-.102.438-.192.657-.282.207-.085.414-.175.625-.25.207-.074.414-.156.625-.218.238-.074.472-.125.718-.188.192-.047.399-.086.594-.125.29-.058.582-.086.875-.125.16-.023.305-.078.469-.093.46-.047.933-.063 1.406-.063.473 0 .945.016 1.406.063.16.015.309.074.469.093.293.04.586.067.875.125.195.04.402.078.594.125.246.059.48.114.718.188.211.062.418.144.625.218.211.075.418.165.625.25.22.09.442.18.657.282.183.086.351.187.531.281.227.121.469.242.688.375.152.094.289.184.437.281.23.153.465.305.688.469.124.094.253.184.374.281.231.184.438.364.657.563.097.09.215.191.312.281.227.219.442.453.657.688a13.345 13.345 0 0 1 .844 1.031c.054.07.105.117.156.187.05.067.109.149.156.219h2.375A15.897 15.897 0 0 1 41 32c0 2.914-.79 5.645-2.156 8H43c2.758 0 5-2.242 5-5V13c0-2.758-2.242-5-5-5zm-3 7h42v5H35.531C32.715 17.52 29.04 16 25 16c-3.535 0-6.793 1.172-9.438 3.125a15.62 15.62 0 0 0-1.093.875H4zm14.813 13.969c1.503 0 2.652.996 2.75 2.375H20.28c-.129-.73-.71-1.188-1.468-1.188-.997 0-1.594.82-1.594 2.157 0 1.335.59 2.156 1.593 2.156.762 0 1.34-.426 1.47-1.125h1.28c-.109 1.37-1.222 2.312-2.75 2.312-1.84 0-2.968-1.277-2.968-3.343 0-2.063 1.125-3.344 2.969-3.344zm6.718 0c1.395 0 2.399.777 2.438 1.906h-1.25c-.063-.504-.543-.813-1.188-.813-.664 0-1.093.301-1.093.782 0 .39.289.625 1.03.781l.782.156c1.273.27 1.813.828 1.813 1.813 0 1.277-.973 2.062-2.563 2.062-1.512 0-2.484-.754-2.531-1.937h1.281c.063.515.566.843 1.313.843.687 0 1.187-.332 1.187-.812 0-.402-.316-.648-1.094-.813l-.812-.156c-1.157-.242-1.75-.843-1.75-1.812 0-1.196.972-2 2.437-2zm6.938 0c1.504 0 2.652.996 2.75 2.375h-1.282c-.128-.73-.71-1.188-1.468-1.188-.996 0-1.625.82-1.625 2.157 0 1.335.62 2.156 1.625 2.156.761 0 1.34-.426 1.468-1.125h1.282c-.11 1.37-1.223 2.312-2.75 2.312-1.836 0-2.969-1.277-2.969-3.343 0-2.063 1.125-3.344 2.969-3.344z"/></svg>