<svg xmlns="http://www.w3.org/2000/svg" viewBox="0 0 48 48"><path d="M45 35a4 4 0 0 1-4 4H7a4 4 0 0 1-4-4V13c0-2.21 1.79-4 4-4h34c2.21 0 4 1.79 4 4z" fill="#64b5f6"/><path d="M3 14h42v6H3z" fill="#37474f"/><path d="M5 22h38v5H5z" fill="#e3f2fd"/><path d="M37 30.363c0 6.903-5.598 12.5-12.5 12.5S12 37.266 12 30.363c0-6.902 5.598-12.5 12.5-12.5S37 23.461 37 30.363z" fill="#bbdefb"/><path d="M24.5 44C17.055 44 11 37.945 11 30.5S17.055 17 24.5 17 38 23.055 38 30.5 31.945 44 24.5 44zm0-24C18.71 20 14 24.71 14 30.5S18.71 41 24.5 41 35 36.29 35 30.5 30.29 20 24.5 20z" fill="#757575"/><path d="M14 30.5c0 2.453.852 4.71 2.27 6.5h16.46a10.463 10.463 0 0 0-.895-14h-14.67A10.463 10.463 0 0 0 14 30.5z" fill="#fff"/><path d="M18.61 31.754c.28 0 .511-.078.687-.234a.833.833 0 0 0 .273-.625H21c-.004.39-.11.75-.316 1.078a2.109 2.109 0 0 1-.852.757c-.36.18-.758.27-1.195.27-.817 0-1.457-.262-1.93-.79-.473-.526-.707-1.25-.707-2.179v-.101c0-.89.234-1.602.7-2.133.468-.531 1.113-.797 1.929-.797.71 0 1.285.207 1.715.617.43.414.648.961.656 1.645h-1.43a1.063 1.063 0 0 0-.273-.735c-.176-.187-.406-.28-.695-.28-.356 0-.622.132-.805.394-.18.261-.27.687-.27 1.277v.16c0 .594.09 1.024.27 1.285.176.262.45.39.812.39zm6.18-.711L25.901 27h1.676l-2.023 6h-1.532L22 27h1.676zm6 0L31.901 27h1.676l-2.023 6h-1.532L28 27h1.676z" fill="#37474f"/></svg>