<svg xmlns="http://www.w3.org/2000/svg" viewBox="0 0 24 24"><path d="M2.324 4A2.337 2.337 0 0 0 0 6.324v12.352A2.337 2.337 0 0 0 2.324 21h19.352A2.337 2.337 0 0 0 24 18.676V6.324A2.337 2.337 0 0 0 21.676 4zm0 2h19.352a.31.31 0 0 1 .324.324V8H2V6.324A.31.31 0 0 1 2.324 6zM2 11h20v7.676a.31.31 0 0 1-.324.324H2.324A.31.31 0 0 1 2 18.676zm4.5 1c-.824 0-1.5.676-1.5 1.5v3c0 .824.676 1.5 1.5 1.5h1c.824 0 1.5-.676 1.5-1.5V16H8v.5c0 .281-.219.5-.5.5h-1a.494.494 0 0 1-.5-.5v-3c0-.281.219-.5.5-.5h1c.281 0 .5.219.5.5v.5h1v-.5c0-.824-.676-1.5-1.5-1.5zm3.5 0l1.617 6h.899l1.5-6h-1.032l-.937 3.75L11.035 12zm4.984 0l1.618 6h.898l1.5-6h-1.031l-.938 3.75L16.02 12z"/></svg>