<svg xmlns="http://www.w3.org/2000/svg" viewBox="0 0 80 80"><path d="M53.5 10c-4.688 0-8.938.91-12.105 2.441C38.23 13.977 36 16.234 36 19v13.406C33.258 31.508 30 31 26.5 31c-4.688 0-8.938.91-12.105 2.441C11.23 34.977 9 37.234 9 40v21c0 2.766 2.23 5.023 5.395 6.559C17.563 69.089 21.813 70 26.5 70c4.688 0 8.938-.91 12.105-2.441 2.938-1.426 5.067-3.477 5.36-5.977 2.75.906 6.02 1.418 9.535 1.418 4.688 0 8.938-.91 12.105-2.441C68.77 59.023 71 56.766 71 54V19c0-2.766-2.23-5.023-5.395-6.559C62.437 10.911 58.187 10 53.5 10zm0 2c4.426 0 8.426.883 11.23 2.242C67.535 15.602 69 17.348 69 19c0 1.652-1.465 3.398-4.27 4.758C61.926 25.118 57.926 26 53.5 26s-8.426-.883-11.23-2.242C39.465 22.398 38 20.652 38 19c0-1.652 1.465-3.398 4.27-4.758C45.074 12.882 49.074 12 53.5 12zM48 15c-.55 0-1 .45-1 1s.45 1 1 1 1-.45 1-1-.45-1-1-1zm4 0c-.55 0-1 .45-1 1s.45 1 1 1 1-.45 1-1-.45-1-1-1zm4 0c-.55 0-1 .45-1 1s.45 1 1 1 1-.45 1-1-.45-1-1-1zm4 0c-.55 0-1 .45-1 1s.45 1 1 1 1-.45 1-1-.45-1-1-1zm-14 3c-.55 0-1 .45-1 1s.45 1 1 1 1-.45 1-1-.45-1-1-1zm4 0c-.55 0-1 .45-1 1s.45 1 1 1 1-.45 1-1-.45-1-1-1zm4 0c-.55 0-1 .45-1 1s.45 1 1 1 1-.45 1-1-.45-1-1-1zm4 0c-.55 0-1 .45-1 1s.45 1 1 1 1-.45 1-1-.45-1-1-1zm4 0c-.55 0-1 .45-1 1s.45 1 1 1 1-.45 1-1-.45-1-1-1zm-14 3c-.55 0-1 .45-1 1s.45 1 1 1 1-.45 1-1-.45-1-1-1zm4 0c-.55 0-1 .45-1 1s.45 1 1 1 1-.45 1-1-.45-1-1-1zm4 0c-.55 0-1 .45-1 1s.45 1 1 1 1-.45 1-1-.45-1-1-1zm4 0c-.55 0-1 .45-1 1s.45 1 1 1 1-.45 1-1-.45-1-1-1zm-22 2.234c.906.891 2.059 1.676 3.395 2.325C44.562 27.089 48.812 28 53.5 28c4.688 0 8.938-.91 12.105-2.441 1.336-.649 2.489-1.434 3.395-2.325V26c0 1.652-1.465 3.398-4.27 4.758C61.926 32.118 57.926 33 53.5 33s-8.426-.883-11.23-2.242C39.465 29.398 38 27.652 38 26zM56 29c-.55 0-1 .45-1 1s.45 1 1 1 1-.45 1-1-.45-1-1-1zm4 0c-.55 0-1 .45-1 1s.45 1 1 1 1-.45 1-1-.45-1-1-1zm-22 1.234c.906.891 2.059 1.672 3.395 2.325C44.562 34.089 48.812 35 53.5 35c4.688 0 8.938-.91 12.105-2.441 1.336-.653 2.489-1.434 3.395-2.325V33c0 1.652-1.465 3.398-4.27 4.758C61.926 39.118 57.926 40 53.5 40c-3.719 0-7.129-.625-9.793-1.637-.684-2.023-2.59-3.699-5.102-4.922-.19-.09-.394-.171-.59-.257C38.013 33.12 38 33.063 38 33zM26.5 33c4.426 0 8.426.883 11.23 2.242C40.535 36.602 42 38.348 42 40c0 1.652-1.465 3.398-4.27 4.758C34.926 46.118 30.926 47 26.5 47s-8.426-.883-11.23-2.242C12.465 43.398 11 41.652 11 40c0-1.652 1.465-3.398 4.27-4.758C18.074 33.882 22.074 33 26.5 33zM21 36c-.55 0-1 .45-1 1s.45 1 1 1 1-.45 1-1-.45-1-1-1zm4 0c-.55 0-1 .45-1 1s.45 1 1 1 1-.45 1-1-.45-1-1-1zm4 0c-.55 0-1 .45-1 1s.45 1 1 1 1-.45 1-1-.45-1-1-1zm4 0c-.55 0-1 .45-1 1s.45 1 1 1 1-.45 1-1-.45-1-1-1zm23 0c-.55 0-1 .45-1 1s.45 1 1 1 1-.45 1-1-.45-1-1-1zm4 0c-.55 0-1 .45-1 1s.45 1 1 1 1-.45 1-1-.45-1-1-1zm9 1.234V40c0 1.652-1.465 3.398-4.27 4.758C61.926 46.118 57.926 47 53.5 47c-3.586 0-6.879-.582-9.5-1.527v-4.88c2.742.895 6 1.407 9.5 1.407 4.688 0 8.938-.91 12.105-2.441 1.336-.653 2.489-1.434 3.395-2.325zM19 39c-.55 0-1 .45-1 1s.45 1 1 1 1-.45 1-1-.45-1-1-1zm4 0c-.55 0-1 .45-1 1s.45 1 1 1 1-.45 1-1-.45-1-1-1zm4 0c-.55 0-1 .45-1 1s.45 1 1 1 1-.45 1-1-.45-1-1-1zm4 0c-.55 0-1 .45-1 1s.45 1 1 1 1-.45 1-1-.45-1-1-1zm4 0c-.55 0-1 .45-1 1s.45 1 1 1 1-.45 1-1-.45-1-1-1zm-14 3c-.55 0-1 .45-1 1s.45 1 1 1 1-.45 1-1-.45-1-1-1zm4 0c-.55 0-1 .45-1 1s.45 1 1 1 1-.45 1-1-.45-1-1-1zm4 0c-.55 0-1 .45-1 1s.45 1 1 1 1-.45 1-1-.45-1-1-1zm4 0c-.55 0-1 .45-1 1s.45 1 1 1 1-.45 1-1-.45-1-1-1zm23 1c-.55 0-1 .45-1 1s.45 1 1 1 1-.45 1-1-.45-1-1-1zm4 0c-.55 0-1 .45-1 1s.45 1 1 1 1-.45 1-1-.45-1-1-1zm-49 1.234c.906.891 2.059 1.676 3.395 2.325C17.563 48.089 21.813 49 26.5 49c4.688 0 8.938-.91 12.105-2.441 1.336-.649 2.489-1.434 3.395-2.325V47c0 1.652-1.465 3.398-4.27 4.758C34.926 53.118 30.926 54 26.5 54s-8.426-.883-11.23-2.242C12.465 50.398 11 48.652 11 47zm58 0V47c0 1.652-1.465 3.398-4.27 4.758C61.926 53.118 57.926 54 53.5 54c-3.586 0-6.883-.582-9.5-1.527v-4.88c2.742.895 6 1.407 9.5 1.407 4.688 0 8.938-.91 12.105-2.441 1.336-.653 2.489-1.434 3.395-2.325zM29 50c-.55 0-1 .45-1 1s.45 1 1 1 1-.45 1-1-.45-1-1-1zm4 0c-.55 0-1 .45-1 1s.45 1 1 1 1-.45 1-1-.45-1-1-1zm23 0c-.55 0-1 .45-1 1s.45 1 1 1 1-.45 1-1-.45-1-1-1zm4 0c-.55 0-1 .45-1 1s.45 1 1 1 1-.45 1-1-.45-1-1-1zm-49 1.234c.906.891 2.059 1.672 3.395 2.325C17.563 55.089 21.813 56 26.5 56c4.688 0 8.938-.91 12.105-2.441 1.336-.653 2.489-1.434 3.395-2.325V54c0 1.652-1.465 3.398-4.27 4.758C34.926 60.118 30.926 61 26.5 61s-8.426-.883-11.23-2.242C12.465 57.398 11 55.652 11 54zm58 0V54c0 1.652-1.465 3.398-4.27 4.758C61.926 60.118 57.926 61 53.5 61c-3.586 0-6.883-.578-9.5-1.527v-4.88c2.742.895 6 1.407 9.5 1.407 4.688 0 8.938-.91 12.105-2.441 1.336-.653 2.489-1.434 3.395-2.325zM29 57c-.55 0-1 .45-1 1s.45 1 1 1 1-.45 1-1-.45-1-1-1zm4 0c-.55 0-1 .45-1 1s.45 1 1 1 1-.45 1-1-.45-1-1-1zm23 0c-.55 0-1 .45-1 1s.45 1 1 1 1-.45 1-1-.45-1-1-1zm4 0c-.55 0-1 .45-1 1s.45 1 1 1 1-.45 1-1-.45-1-1-1zm-49 1.234c.906.891 2.059 1.672 3.395 2.325C17.563 62.089 21.813 63 26.5 63c4.688 0 8.938-.91 12.105-2.441 1.336-.653 2.489-1.434 3.395-2.325V61c0 1.652-1.465 3.398-4.27 4.758C34.926 67.118 30.926 68 26.5 68s-8.426-.883-11.23-2.242C12.465 64.398 11 62.652 11 61zM29 64c-.55 0-1 .45-1 1s.45 1 1 1 1-.45 1-1-.45-1-1-1zm4 0c-.55 0-1 .45-1 1s.45 1 1 1 1-.45 1-1-.45-1-1-1z"/></svg>