<svg xmlns="http://www.w3.org/2000/svg" viewBox="0 0 48 48"><path d="M20 9v28s1 3 11 3 11-3 11-3V9z" fill="#ffc107"/><path d="M42 7c0-1.656-4.926-3-11-3S20 5.344 20 7s4.926 3 11 3 11-1.344 11-3z" fill="#ffc107"/><path d="M20 13s1 3 11 3 11-3 11-3v3s-1 3-11 3-11-3-11-3zm0 9s1 3 11 3 11-3 11-3v-3s-1 3-11 3-11-3-11-3zm0 6s1 3 11 3 11-3 11-3v-3s-1 3-11 3-11-3-11-3zm0 6s1 3 11 3 11-3 11-3v-3s-1 3-11 3-11-3-11-3zm0-24s1 3 11 3 11-3 11-3V7s-1 3-11 3-11-3-11-3z" fill="#ff9800"/><path d="M28 31.898v7.993c.902.066 1.887.109 3 .109.352 0 .672-.012 1-.02v-8.082c0-5.152-6.605-6.148-11.941-6.78L20 29.015c4.613.355 8 1.511 8 2.882z" fill="#f57c00"/><path d="M31 31c.324 0 .621-.012.926-.02-.219-1.27-.899-2.238-1.867-3-7.993-.164-9.707-2.335-10-2.863l-.028 1.899C24.63 27.375 28 28.527 28 29.898v.993c.902.066 1.887.109 3 .109zm-3 2.89v3c.902.067 1.887.11 3 .11.352 0 .672-.012 1-.02v-3c-.328.008-.648.02-1 .02-1.113 0-2.098-.043-3-.11z" fill="#d66805"/><path d="M6 29h22v9H6z" fill="#cfd8dc"/><path d="M6 36s1 3 11 3 11-3 11-3v4s-1 3-11 3-11-3-11-3zm22-8c0-1.656-4.926-3-11-3S6 26.344 6 28s4.926 3 11 3 11-1.344 11-3z" fill="#cfd8dc"/><path d="M6 28s1 3 11 3 11-3 11-3v3s-1 3-11 3-11-3-11-3zm0 6s1 3 11 3 11-3 11-3v3s-1 3-11 3-11-3-11-3z" fill="#90a4ae"/></svg>