<svg xmlns="http://www.w3.org/2000/svg" viewBox="0 0 40 40"><path d="M4 32.5A2.503 2.503 0 0 1 1.5 30V10c0-1.378 1.121-2.5 2.5-2.5h32c1.379 0 2.5 1.122 2.5 2.5v20c0 1.378-1.121 2.5-2.5 2.5H4z" fill="#f78f8f"/><path d="M36 8c1.103 0 2 .897 2 2v20c0 1.103-.897 2-2 2H4c-1.103 0-2-.897-2-2V10c0-1.103.897-2 2-2h32m0-1H4a3 3 0 0 0-3 3v20a3 3 0 0 0 3 3h32a3 3 0 0 0 3-3V10a3 3 0 0 0-3-3z" fill="#c74343"/><rect x="1" y="12" width="38" height="4" fill="#36404d"/><rect x="5" y="18" width="12" height="2" fill="#fff"/></svg>