<svg xmlns="http://www.w3.org/2000/svg" viewBox="0 0 40 40"><path d="M13.5 25.5c-6.617 0-12-5.383-12-12s5.383-12 12-12 12 5.383 12 12-5.383 12-12 12z" fill="#98ccfd"/><path d="M13.5 2C19.84 2 25 7.16 25 13.5S19.84 25 13.5 25 2 19.84 2 13.5 7.16 2 13.5 2m0-1C6.598 1 1 6.598 1 13.5S6.598 26 13.5 26 26 20.402 26 13.5 20.402 1 13.5 1z" fill="#4788c7"/><path d="M8 11h8v2H8zm0 3h8v2H8z" fill="#fff"/><path d="M17 17.5a3.79 3.79 0 0 1-1.922.5C12.301 18 12 14.852 12 13.5c0-2.984 1.148-4.5 3.418-4.5.582 0 1.105.234 1.582.559V7.277A4.974 4.974 0 0 0 15.418 7C10.73 7 9.5 10.25 9.5 13.5c0 3.668 1.438 6.5 5.578 6.5.692 0 1.336-.105 1.922-.281z" fill="#fff"/><path d="M26 38.5c-6.895 0-12.5-5.605-12.5-12.5S19.105 13.5 26 13.5 38.5 19.105 38.5 26 32.895 38.5 26 38.5z" fill="#dff0fe"/><path d="M26 14c6.617 0 12 5.383 12 12s-5.383 12-12 12-12-5.383-12-12 5.383-12 12-12m0-1c-7.18 0-13 5.82-13 13s5.82 13 13 13 13-5.82 13-13-5.82-13-13-13z" fill="#4788c7"/><path d="M24 23.086c0-.664.77-1.086 2-1.086 1.273 0 2.254.582 3 1v-2.23c-.375-.29-1.25-.77-3-.77-2.688 0-4 1.582-4 3.23 0 3.446 6 3.551 6 5.442C28 29.344 26.937 30 26 30c-1.922 0-3.68-.738-4-1v2c.973.508 2.77 1 4 1 2 0 4-1.168 4-3.445 0-3.68-6-3.399-6-5.47z" fill="#4788c7"/><path d="M25 18h2v3h-2zm0 13h2v3h-2z" fill="#4788c7"/></svg>