<svg xmlns="http://www.w3.org/2000/svg" viewBox="0 0 64 64"><linearGradient id="a" gradientUnits="userSpaceOnUse" x1="19" y1="21.5" x2="19" y2="28.767" spreadMethod="reflect"><stop offset="0" stop-color="#6dc7ff"/><stop offset="1" stop-color="#e6abff"/></linearGradient><path d="M25 28H13a1 1 0 0 1-1-1v-4a1 1 0 0 1 1-1h12a1 1 0 0 1 1 1v4a1 1 0 0 1-1 1z" fill="url(#a)"/><linearGradient id="b" gradientUnits="userSpaceOnUse" x1="47" y1="21.5" x2="47" y2="28.767" spreadMethod="reflect"><stop offset="0" stop-color="#6dc7ff"/><stop offset="1" stop-color="#e6abff"/></linearGradient><path d="M51 28h-8a1 1 0 0 1-1-1v-4a1 1 0 0 1 1-1h8a1 1 0 0 1 1 1v4a1 1 0 0 1-1 1z" fill="url(#b)"/><linearGradient id="c" gradientUnits="userSpaceOnUse" x1="32" y1="11.667" x2="32" y2="52.943" spreadMethod="reflect"><stop offset="0" stop-color="#1a6dff"/><stop offset="1" stop-color="#c822ff"/></linearGradient><path d="M55 16H9c-1.654 0-3 1.346-3 3v30c0 1.654 1.346 3 3 3h46c1.654 0 3-1.346 3-3V19c0-1.654-1.346-3-3-3zm1 33c0 .551-.448 1-1 1H9c-.552 0-1-.449-1-1V19c0-.551.448-1 1-1h46c.552 0 1 .449 1 1v30z" fill="url(#c)"/><linearGradient id="d" gradientUnits="userSpaceOnUse" x1="32" y1="11.667" x2="32" y2="52.943" spreadMethod="reflect"><stop offset="0" stop-color="#1a6dff"/><stop offset="1" stop-color="#c822ff"/></linearGradient><rect x="10" y="12" width="44" height="2" fill="url(#d)"/><linearGradient id="e" gradientUnits="userSpaceOnUse" x1="16.5" y1="11.667" x2="16.5" y2="52.943" spreadMethod="reflect"><stop offset="0" stop-color="#1a6dff"/><stop offset="1" stop-color="#c822ff"/></linearGradient><rect x="12" y="32" width="9" height="2" fill="url(#e)"/><linearGradient id="f" gradientUnits="userSpaceOnUse" x1="27" y1="11.667" x2="27" y2="52.943" spreadMethod="reflect"><stop offset="0" stop-color="#1a6dff"/><stop offset="1" stop-color="#c822ff"/></linearGradient><rect x="23" y="32" width="8" height="2" fill="url(#f)"/><linearGradient id="g" gradientUnits="userSpaceOnUse" x1="37" y1="11.667" x2="37" y2="52.943" spreadMethod="reflect"><stop offset="0" stop-color="#1a6dff"/><stop offset="1" stop-color="#c822ff"/></linearGradient><rect x="33" y="32" width="8" height="2" fill="url(#g)"/><linearGradient id="h" gradientUnits="userSpaceOnUse" x1="47.5" y1="11.667" x2="47.5" y2="52.943" spreadMethod="reflect"><stop offset="0" stop-color="#1a6dff"/><stop offset="1" stop-color="#c822ff"/></linearGradient><rect x="43" y="32" width="9" height="2" fill="url(#h)"/><linearGradient id="i" gradientUnits="userSpaceOnUse" x1="19" y1="11.667" x2="19" y2="52.943" spreadMethod="reflect"><stop offset="0" stop-color="#1a6dff"/><stop offset="1" stop-color="#c822ff"/></linearGradient><rect x="12" y="40" width="14" height="2" fill="url(#i)"/><linearGradient id="j" gradientUnits="userSpaceOnUse" x1="17" y1="11.667" x2="17" y2="52.943" spreadMethod="reflect"><stop offset="0" stop-color="#1a6dff"/><stop offset="1" stop-color="#c822ff"/></linearGradient><rect x="12" y="44" width="10" height="2" fill="url(#j)"/><linearGradient id="k" gradientUnits="userSpaceOnUse" x1="46.5" y1="11.667" x2="46.5" y2="52.943" spreadMethod="reflect"><stop offset="0" stop-color="#1a6dff"/><stop offset="1" stop-color="#c822ff"/></linearGradient><rect x="41" y="40" width="11" height="2" fill="url(#k)"/><linearGradient id="l" gradientUnits="userSpaceOnUse" x1="46.5" y1="11.667" x2="46.5" y2="52.943" spreadMethod="reflect"><stop offset="0" stop-color="#1a6dff"/><stop offset="1" stop-color="#c822ff"/></linearGradient><rect x="41" y="44" width="11" height="2" fill="url(#l)"/></svg>