<svg xmlns="http://www.w3.org/2000/svg" viewBox="0 0 64 64"><path d="M32 4c-5.512 0-10 4.488-10 10 0 .691.07 1.36.2 2h-7.16a3.01 3.01 0 0 0-2.9 2.238l-9.953 38a2.949 2.949 0 0 0 .532 2.59A2.966 2.966 0 0 0 5.089 60H58.91c.942 0 1.8-.43 2.371-1.172a2.95 2.95 0 0 0 .532-2.59l-9.954-38A3.007 3.007 0 0 0 48.961 16H41.8c.129-.64.199-1.309.199-2 0-5.512-4.488-10-10-10zm0 2c4.41 0 8 3.59 8 8 0 .691-.09 1.36-.25 2h-2.098c.227-.629.348-1.3.348-2 0-3.309-2.691-6-6-6s-6 2.691-6 6c0 .7.121 1.371.348 2H24.25a8.226 8.226 0 0 1-.25-2c0-4.41 3.59-8 8-8zm0 4a3.998 3.998 0 0 1 3.46 6h-6.92A3.998 3.998 0 0 1 32 10zm-16.957 8h33.918c.45 0 .848.309.96.75l8.813 33.629A.977.977 0 0 0 58.5 53v2c0 .55.45 1 1 1 .063 0 .113-.023.172-.035l.207.785c.082.3.012.61-.18.86a.988.988 0 0 1-.789.39H5.09a.988.988 0 0 1-.79-.39.99.99 0 0 1-.183-.86l.211-.785c.059.012.11.035.172.035.55 0 1-.45 1-1v-2a.977.977 0 0 0-.234-.621l8.812-33.629a.998.998 0 0 1 .965-.75zM31 20c-.55 0-1 .45-1 1v3h-1c-2.758 0-5 2.242-5 5v2c0 2.758 2.242 5 5 5h4c1.652 0 3 1.348 3 3v2c0 1.652-1.348 3-3 3h-1v-6c0-.55-.45-1-1-1s-1 .45-1 1v6h-1c-1.652 0-3-1.348-3-3 0-.55-.45-1-1-1s-1 .45-1 1c0 2.758 2.242 5 5 5h1v3c0 .55.45 1 1 1s1-.45 1-1v-3h1c2.758 0 5-2.242 5-5v-2c0-2.758-2.242-5-5-5h-1v-6c0-.55-.45-1-1-1s-1 .45-1 1v6h-1c-1.652 0-3-1.348-3-3v-2c0-1.652 1.348-3 3-3h4c1.652 0 3 1.348 3 3 0 .55.45 1 1 1s1-.45 1-1c0-2.758-2.242-5-5-5h-1v-3c0-.55-.45-1-1-1zM9.5 52c-.55 0-1 .45-1 1v2c0 .55.45 1 1 1s1-.45 1-1v-2c0-.55-.45-1-1-1zm5 0c-.55 0-1 .45-1 1v2c0 .55.45 1 1 1s1-.45 1-1v-2c0-.55-.45-1-1-1zm5 0c-.55 0-1 .45-1 1v2c0 .55.45 1 1 1s1-.45 1-1v-2c0-.55-.45-1-1-1zm5 0c-.55 0-1 .45-1 1v2c0 .55.45 1 1 1s1-.45 1-1v-2c0-.55-.45-1-1-1zm5 0c-.55 0-1 .45-1 1v2c0 .55.45 1 1 1s1-.45 1-1v-2c0-.55-.45-1-1-1zm5 0c-.55 0-1 .45-1 1v2c0 .55.45 1 1 1s1-.45 1-1v-2c0-.55-.45-1-1-1zm5 0c-.55 0-1 .45-1 1v2c0 .55.45 1 1 1s1-.45 1-1v-2c0-.55-.45-1-1-1zm5 0c-.55 0-1 .45-1 1v2c0 .55.45 1 1 1s1-.45 1-1v-2c0-.55-.45-1-1-1zm5 0c-.55 0-1 .45-1 1v2c0 .55.45 1 1 1s1-.45 1-1v-2c0-.55-.45-1-1-1zm5 0c-.55 0-1 .45-1 1v2c0 .55.45 1 1 1s1-.45 1-1v-2c0-.55-.45-1-1-1z"/></svg>