<svg xmlns="http://www.w3.org/2000/svg" viewBox="0 0 16 16"><path d="M2.5 1C1.676 1 1 1.676 1 2.5S1.676 4 2.5 4c.23 0 .445-.059.64-.152l2.278 2.277a2.427 2.427 0 0 0-.145 2.484l-1.996 1.614A1.504 1.504 0 0 0 2.5 10c-.824 0-1.5.676-1.5 1.5S1.676 13 2.5 13 4 12.324 4 11.5a1.4 1.4 0 0 0-.094-.496l1.985-1.61c.437.372.996.606 1.609.606.27 0 .523-.055.766-.133l1.066 1.707A1.488 1.488 0 0 0 9 12.5c0 .824.676 1.5 1.5 1.5s1.5-.676 1.5-1.5a1.505 1.505 0 0 0-1.824-1.465L9.14 9.371a2.5 2.5 0 0 0 .726-1.105l2.153.441c.105.727.73 1.293 1.48 1.293.824 0 1.5-.676 1.5-1.5S14.324 7 13.5 7a1.51 1.51 0 0 0-1.277.727l-2.246-.461a2.475 2.475 0 0 0-.844-1.641l1.039-1.664c.105.023.215.039.328.039.824 0 1.5-.676 1.5-1.5S11.324 1 10.5 1 9 1.676 9 2.5c0 .348.125.668.328.922l-1.066 1.71A2.476 2.476 0 0 0 7.5 5c-.508 0-.98.156-1.375.418L3.848 3.141C3.94 2.945 4 2.73 4 2.5 4 1.676 3.324 1 2.5 1zm0 1c.281 0 .5.219.5.5s-.219.5-.5.5a.494.494 0 0 1-.5-.5c0-.281.219-.5.5-.5zm8 0c.281 0 .5.219.5.5s-.219.5-.5.5a.494.494 0 0 1-.5-.5c0-.281.219-.5.5-.5zm-3 4C8.336 6 9 6.664 9 7.5c0 .54-.281 1.004-.703 1.27a.498.498 0 0 0-.14.078A1.583 1.583 0 0 1 7.5 9 1.49 1.49 0 0 1 6 7.5C6 6.664 6.664 6 7.5 6zm6 2c.281 0 .5.219.5.5s-.219.5-.5.5a.494.494 0 0 1-.5-.5c0-.281.219-.5.5-.5zm-11 3c.281 0 .5.219.5.5s-.219.5-.5.5a.494.494 0 0 1-.5-.5c0-.281.219-.5.5-.5zm8 1c.281 0 .5.219.5.5s-.219.5-.5.5a.494.494 0 0 1-.5-.5c0-.281.219-.5.5-.5z"/></svg>