<svg xmlns="http://www.w3.org/2000/svg" viewBox="0 0 64 64"><path d="M12.828.004a3.019 3.019 0 0 0-2.246.875L.879 10.582a2.994 2.994 0 0 0-.2 4.023L13.23 29.937a20.837 20.837 0 0 0 4.77 4.27V54h-6c-2.207 0-4 1.793-4 4s1.793 4 4 4h46c2.207 0 4-1.793 4-4s-1.793-4-4-4h-6V25a2.997 2.997 0 0 0-2.66-2.969c-.02-.023-.028-.054-.047-.078l-6.852-7.75a9.007 9.007 0 0 0-5.113-2.894l-9.504-1.746a19.055 19.055 0 0 1-11.062-6.415l-1.766-2.086A2.996 2.996 0 0 0 12.828.004zM12.746 2c.281.012.54.137.723.352l.797.945a.988.988 0 0 0-.735.289 1 1 0 0 0 0 1.414l1.418 1.414a1 1 0 0 0 .707.29.997.997 0 0 0 .703-.29.94.94 0 0 0 .254-.508 21.07 21.07 0 0 0 10.852 5.621l9.5 1.746a6.992 6.992 0 0 1 3.976 2.25L46.664 22H25.61l-.78-2.941a.999.999 0 1 0-1.934.508l.886 3.351a10.937 10.937 0 0 0 3.418 5.484l4.738 4.125a4.985 4.985 0 0 1 1.676 4.38l-.011.124c-.04.301-.207.57-.47.73a.99.99 0 0 1-.862.087l-9.243-3.336a18.98 18.98 0 0 1-8.25-5.84L5.422 17.238c.121-.047.234-.12.336-.218a1 1 0 0 0 0-1.415l-1.414-1.418a1.007 1.007 0 0 0-1.414 0l-.004.004-.7-.855a.996.996 0 0 1 .067-1.34l9.703-9.707a.96.96 0 0 1 .75-.289zm-2.043 4.828a.987.987 0 0 0-.703.29.993.993 0 0 0 0 1.413l1.41 1.414a1.002 1.002 0 0 0 1.418-1.414L11.41 7.117a.99.99 0 0 0-.707-.289zm-3.531 3.535a1 1 0 0 0-.71 1.707l1.413 1.414a1.002 1.002 0 0 0 1.414 0 .993.993 0 0 0 0-1.414l-1.414-1.414a.991.991 0 0 0-.703-.293zM26.324 24H49c.55 0 1 .45 1 1v35H20V35.371c.73.367 1.48.7 2.254.984A.97.97 0 0 0 22 37a1 1 0 0 0 1 1h2a.992.992 0 0 0 .766-.375l5.824 2.105a3.012 3.012 0 0 0 2.59-.266 3.002 3.002 0 0 0 1.406-2.198l.012-.121c.05-.395.054-.79.035-1.18.125.012.242.035.367.035 2.207 0 4-1.793 4-4s-1.793-4-4-4c-1.59 0-2.945.941-3.59 2.285l-3.898-3.39A8.897 8.897 0 0 1 26.324 24zM46 26a1 1 0 0 0-1 1v5a1 1 0 1 0 2 0v-5a1 1 0 0 0-1-1zm-10 4c1.102 0 2 .898 2 2 0 1.102-.898 2-2 2-.281 0-.555-.063-.797-.168a6.912 6.912 0 0 0-1.183-2.016A1.995 1.995 0 0 1 36 30zm9 6a1 1 0 1 0 0 2h2a1 1 0 1 0 0-2zm-22 5a1 1 0 1 0 0 2h2a1 1 0 1 0 0-2zm12 0c-4.32 0-8.059 2.055-9.855 5.031C25.094 46.023 25.05 46 25 46h-2a1 1 0 1 0 0 2h1.281A7.585 7.585 0 0 0 24 50c0 .68.102 1.348.281 2H23a1 1 0 1 0 0 2h2c.05 0 .094-.023.14-.031a9.407 9.407 0 0 0 2.438 2.683C29.61 58.168 32.242 59 35 59c4.32 0 8.059-2.055 9.855-5.031.051.008.094.031.145.031h2a1 1 0 1 0 0-2h-1.281A7.585 7.585 0 0 0 46 50c0-.688-.105-1.355-.281-2H47a1 1 0 1 0 0-2h-2c-.05 0-.094.023-.145.031C43.06 43.055 39.32 41 35 41zm10 0a1 1 0 1 0 0 2h2a1 1 0 1 0 0-2zm-10 2c4.965 0 9 3.14 9 7s-4.035 7-9 7c-2.328 0-4.54-.691-6.223-1.953C26.984 53.71 26 51.918 26 50c0-3.86 4.035-7 9-7zM12 56h6v4h-6c-1.102 0-2-.898-2-2 0-1.102.898-2 2-2zm40 0h6c1.102 0 2 .898 2 2 0 1.102-.898 2-2 2h-6zm-29 1a1 1 0 1 0 0 2h2a1 1 0 1 0 0-2zm22 0a1 1 0 1 0 0 2h2a1 1 0 1 0 0-2z"/></svg>