<svg xmlns="http://www.w3.org/2000/svg" viewBox="0 0 80 80"><path d="M34.184 19a5.006 5.006 0 0 0-4.871 3.875L27.203 32h-5.02a5.006 5.006 0 0 0-4.87 3.875L15.203 45h-5.02a5.006 5.006 0 0 0-4.87 3.875L2.743 60h74.515l-2.57-11.125A5.006 5.006 0 0 0 69.816 45h-5.02l-2.109-9.125A5.006 5.006 0 0 0 57.818 32h-5.02l-2.11-9.125A5.006 5.006 0 0 0 45.818 19zm0 2h11.632c1.407 0 2.61.96 2.926 2.328l2 8.672H29.258l2-8.672A2.993 2.993 0 0 1 34.184 21zM32 28c-.55 0-1 .45-1 1s.45 1 1 1 1-.45 1-1-.45-1-1-1zm4 0c-.55 0-1 .45-1 1s.45 1 1 1 1-.45 1-1-.45-1-1-1zm4 0c-.55 0-1 .45-1 1s.45 1 1 1 1-.45 1-1-.45-1-1-1zm4 0c-.55 0-1 .45-1 1s.45 1 1 1 1-.45 1-1-.45-1-1-1zm4 0c-.55 0-1 .45-1 1s.45 1 1 1 1-.45 1-1-.45-1-1-1zm-25.816 6h11.632c1.407 0 2.61.96 2.926 2.328l2 8.672H17.258l2-8.672A2.993 2.993 0 0 1 22.184 34zm15.609 0h4.414a4.935 4.935 0 0 0-.895 1.875L40 41.551l-1.313-5.676c-.16-.7-.48-1.328-.894-1.875zm8.39 0h11.633c1.407 0 2.61.96 2.926 2.328l2 8.672H41.258l2-8.672A2.993 2.993 0 0 1 46.184 34zM20 41c-.55 0-1 .45-1 1s.45 1 1 1 1-.45 1-1-.45-1-1-1zm4 0c-.55 0-1 .45-1 1s.45 1 1 1 1-.45 1-1-.45-1-1-1zm4 0c-.55 0-1 .45-1 1s.45 1 1 1 1-.45 1-1-.45-1-1-1zm4 0c-.55 0-1 .45-1 1s.45 1 1 1 1-.45 1-1-.45-1-1-1zm4 0c-.55 0-1 .45-1 1s.45 1 1 1 1-.45 1-1-.45-1-1-1zm8 0c-.55 0-1 .45-1 1s.45 1 1 1 1-.45 1-1-.45-1-1-1zm4 0c-.55 0-1 .45-1 1s.45 1 1 1 1-.45 1-1-.45-1-1-1zm4 0c-.55 0-1 .45-1 1s.45 1 1 1 1-.45 1-1-.45-1-1-1zm4 0c-.55 0-1 .45-1 1s.45 1 1 1 1-.45 1-1-.45-1-1-1zm4 0c-.55 0-1 .45-1 1s.45 1 1 1 1-.45 1-1-.45-1-1-1zm-49.816 6h11.632c1.407 0 2.61.96 2.926 2.328l2 8.672H5.258l2-8.672A2.993 2.993 0 0 1 10.184 47zm15.609 0h4.414a4.935 4.935 0 0 0-.895 1.875L28 54.551l-1.313-5.676c-.16-.7-.48-1.328-.894-1.875zm8.39 0h11.633c1.407 0 2.61.96 2.926 2.328l2 8.672H29.258l2-8.672A2.993 2.993 0 0 1 34.184 47zm15.61 0h4.414a4.935 4.935 0 0 0-.895 1.875L52 54.551l-1.313-5.676c-.16-.7-.48-1.328-.894-1.875zm8.39 0h11.633c1.407 0 2.61.96 2.926 2.328l2 8.672H53.258l2-8.672A2.993 2.993 0 0 1 58.184 47zM8 54c-.55 0-1 .45-1 1s.45 1 1 1 1-.45 1-1-.45-1-1-1zm4 0c-.55 0-1 .45-1 1s.45 1 1 1 1-.45 1-1-.45-1-1-1zm4 0c-.55 0-1 .45-1 1s.45 1 1 1 1-.45 1-1-.45-1-1-1zm4 0c-.55 0-1 .45-1 1s.45 1 1 1 1-.45 1-1-.45-1-1-1zm4 0c-.55 0-1 .45-1 1s.45 1 1 1 1-.45 1-1-.45-1-1-1zm8 0c-.55 0-1 .45-1 1s.45 1 1 1 1-.45 1-1-.45-1-1-1zm4 0c-.55 0-1 .45-1 1s.45 1 1 1 1-.45 1-1-.45-1-1-1zm4 0c-.55 0-1 .45-1 1s.45 1 1 1 1-.45 1-1-.45-1-1-1zm4 0c-.55 0-1 .45-1 1s.45 1 1 1 1-.45 1-1-.45-1-1-1zm4 0c-.55 0-1 .45-1 1s.45 1 1 1 1-.45 1-1-.45-1-1-1zm8 0c-.55 0-1 .45-1 1s.45 1 1 1 1-.45 1-1-.45-1-1-1zm4 0c-.55 0-1 .45-1 1s.45 1 1 1 1-.45 1-1-.45-1-1-1zm4 0c-.55 0-1 .45-1 1s.45 1 1 1 1-.45 1-1-.45-1-1-1zm4 0c-.55 0-1 .45-1 1s.45 1 1 1 1-.45 1-1-.45-1-1-1zm4 0c-.55 0-1 .45-1 1s.45 1 1 1 1-.45 1-1-.45-1-1-1z"/></svg>