<svg xmlns="http://www.w3.org/2000/svg" viewBox="0 0 64 64"><path d="M57.559 43H46.44c-.859 0-1.625.55-1.894 1.367l-3.34 10.02A3.955 3.955 0 0 0 41 55.648V58c0 .55.45 1 1 1h20c.55 0 1-.45 1-1v-2.352c0-.43-.07-.855-.203-1.265l-3.34-10.016A2.004 2.004 0 0 0 57.559 43z" fill="#f9e3ae"/><path d="M37.559 43H26.44c-.859 0-1.625.55-1.894 1.367l-3.34 10.02A3.955 3.955 0 0 0 21 55.648V58c0 .55.45 1 1 1h20c.55 0 1-.45 1-1v-2.352c0-.43-.07-.855-.203-1.265l-3.34-10.016A2.004 2.004 0 0 0 37.559 43zm10-16H36.44c-.859 0-1.625.55-1.894 1.367l-3.34 10.02A3.955 3.955 0 0 0 31 39.648V42c0 .55.45 1 1 1h20c.55 0 1-.45 1-1v-2.352c0-.43-.07-.855-.203-1.265l-3.34-10.016A2.004 2.004 0 0 0 47.559 27zm-10-16H26.44c-.859 0-1.625.55-1.894 1.367l-3.34 10.02A3.955 3.955 0 0 0 21 23.648V26c0 .55.45 1 1 1h20c.55 0 1-.45 1-1v-2.352c0-.43-.07-.855-.203-1.265l-3.34-10.016A2.004 2.004 0 0 0 37.559 11z" fill="#f9e3ae"/><path d="M27.559 27H16.44c-.859 0-1.625.55-1.894 1.367l-3.34 10.02A3.955 3.955 0 0 0 11 39.648V42c0 .55.45 1 1 1h20c.55 0 1-.45 1-1v-2.352c0-.43-.07-.855-.203-1.265l-3.34-10.016A2.004 2.004 0 0 0 27.559 27zm-10 16H6.44c-.859 0-1.625.55-1.894 1.367L1.203 54.383c-.133.41-.203.836-.203 1.265V58c0 .55.45 1 1 1h20c.55 0 1-.45 1-1v-2.352c0-.43-.07-.855-.203-1.265l-3.34-10.016A2.004 2.004 0 0 0 17.559 43z" fill="#f9e3ae"/><path d="M63 59H1v-1c0-2.21 1.79-4 4-4h54c2.21 0 4 1.79 4 4zM53 43H11v-1c0-2.21 1.79-4 4-4h34c2.21 0 4 1.79 4 4zM43 27H21v-1c0-2.21 1.79-4 4-4h14c2.21 0 4 1.79 4 4z" fill="#f6d397"/><path d="M63.738 54.07l-3.34-10.02a2.974 2.974 0 0 0-2.84-2.05H54v-2.352c0-.539-.09-1.07-.262-1.578l-3.34-10.02a2.974 2.974 0 0 0-2.84-2.05H44v-2.352c0-.539-.086-1.07-.258-1.582l-3.336-10.015A3 3 0 0 0 37.56 10H26.44a3 3 0 0 0-2.847 2.05l-3.336 10.016A4.954 4.954 0 0 0 20 23.648V26h-3.559c-1.293 0-2.441.82-2.84 2.05l-3.34 10.02A4.916 4.916 0 0 0 10 39.648V42H6.441c-1.293 0-2.441.82-2.84 2.05L.262 54.07A4.916 4.916 0 0 0 0 55.648V58c0 1.102.898 2 2 2h60c1.102 0 2-.898 2-2v-2.352c0-.539-.09-1.07-.262-1.578zM47.558 28c.43 0 .813.27.954.68l3.34 10.02c.097.312.148.628.148.948V42H34v-2.352c0-.539-.09-1.07-.262-1.578L33.051 36l2.437-7.32c.14-.41.524-.68.953-.68zm-3.937 16a.196.196 0 0 0-.02.05L42 48.853l-1.602-4.801a.196.196 0 0 0-.02-.051zM32 32.852l-1.602-4.801a.196.196 0 0 0-.02-.051h3.243a.196.196 0 0 0-.02.05zm-10-9.204c0-.324.05-.64.152-.949l3.34-10.015a1 1 0 0 1 .95-.684h11.117a1 1 0 0 1 .949.684l3.34 10.015c.101.309.152.625.152.95V26H22zm-10 16c0-.32.05-.636.148-.949l3.34-10.02c.14-.41.524-.679.953-.679H27.56c.43 0 .812.27.953.68L30.949 36l.903 2.7c.097.312.148.628.148.948V42H12zM23.621 44a.196.196 0 0 0-.02.05L22 48.853l-1.602-4.801a.196.196 0 0 0-.02-.051zM20 58H2v-2.352c0-.32.05-.636.148-.949l3.34-10.02c.14-.41.524-.679.953-.679H17.56c.43 0 .812.27.953.68L20.949 52l.903 2.7c.097.312.148.628.148.948V58zm20 0H24v-2.352c0-.539-.09-1.07-.262-1.578L23.051 52l2.437-7.32c.14-.41.524-.68.953-.68H37.56c.43 0 .812.27.953.68L40.949 52l.903 2.7c.097.312.148.628.148.948V58zm22 0H44v-2.352c0-.539-.09-1.07-.262-1.578L43.051 52l2.437-7.32c.14-.41.524-.68.953-.68H57.56c.43 0 .812.27.953.68l3.34 10.02c.097.312.148.628.148.948z" fill="#8d6c9f"/><path d="M47 52c-.55 0-1 .45-1 1v2c0 .55.45 1 1 1s1-.45 1-1v-2c0-.55-.45-1-1-1zm5 0c-.55 0-1 .45-1 1v2c0 .55.45 1 1 1s1-.45 1-1v-2c0-.55-.45-1-1-1zm5 0c-.55 0-1 .45-1 1v2c0 .55.45 1 1 1s1-.45 1-1v-2c0-.55-.45-1-1-1zm-30 0c-.55 0-1 .45-1 1v2c0 .55.45 1 1 1s1-.45 1-1v-2c0-.55-.45-1-1-1zm5 0c-.55 0-1 .45-1 1v2c0 .55.45 1 1 1s1-.45 1-1v-2c0-.55-.45-1-1-1zm5 0c-.55 0-1 .45-1 1v2c0 .55.45 1 1 1s1-.45 1-1v-2c0-.55-.45-1-1-1zM7 52c-.55 0-1 .45-1 1v2c0 .55.45 1 1 1s1-.45 1-1v-2c0-.55-.45-1-1-1zm5 0c-.55 0-1 .45-1 1v2c0 .55.45 1 1 1s1-.45 1-1v-2c0-.55-.45-1-1-1zm5 0c-.55 0-1 .45-1 1v2c0 .55.45 1 1 1s1-.45 1-1v-2c0-.55-.45-1-1-1zm20-16c-.55 0-1 .45-1 1v2c0 .55.45 1 1 1s1-.45 1-1v-2c0-.55-.45-1-1-1zm4 1v2c0 .55.45 1 1 1s1-.45 1-1v-2c0-.55-.45-1-1-1s-1 .45-1 1zm6 3c.55 0 1-.45 1-1v-2c0-.55-.45-1-1-1s-1 .45-1 1v2c0 .55.45 1 1 1zM28 23v-2c0-.55-.45-1-1-1s-1 .45-1 1v2c0 .55.45 1 1 1s1-.45 1-1zm4 1c.55 0 1-.45 1-1v-2c0-.55-.45-1-1-1s-1 .45-1 1v2c0 .55.45 1 1 1zm5 0c.55 0 1-.45 1-1v-2c0-.55-.45-1-1-1s-1 .45-1 1v2c0 .55.45 1 1 1zM18 39v-2c0-.55-.45-1-1-1s-1 .45-1 1v2c0 .55.45 1 1 1s1-.45 1-1zm4 1c.55 0 1-.45 1-1v-2c0-.55-.45-1-1-1s-1 .45-1 1v2c0 .55.45 1 1 1zm5 0c.55 0 1-.45 1-1v-2c0-.55-.45-1-1-1s-1 .45-1 1v2c0 .55.45 1 1 1z" fill="#8d6c9f"/></svg>