<svg xmlns="http://www.w3.org/2000/svg" viewBox="0 0 64 64"><path d="M23.238 4.941H52c1.656 0 3 1.34 3 3v48a3 3 0 0 1-3 3H14a3 3 0 0 1-3-3V17.18c0-.797.316-1.559.879-2.121L21.12 5.82a2.996 2.996 0 0 1 2.117-.879z" fill="#faefde"/><path d="M11 59l-.148-9.46L54.34 6.058 55 29 25 59zm-.148-19.852L45.059 4.941l5.75.25L11 45zm0-6L39 5h3L10.852 36.148z" fill="#fff7f0"/><path d="M45.5 13l1.238 2.262L49 16.5l-2.262 1.238L45.5 20l-1.238-2.262L42 16.5l2.262-1.238zm-15.078-2l.848 1.559 1.57.863-1.57.848-.848 1.57-.863-1.57L28 13.422l1.559-.863zM16.648 42l.582 1.059 1.07.59-1.07.581-.582 1.07-.578-1.07-1.07-.582 1.07-.59z" fill="#fff"/><path d="M23 5v12H11z" fill="#bbdef9"/><path d="M21 27h24v12H21z" fill="#c5e4fa"/><path d="M21 27h4v12h-4z" fill="#72caaf"/><path d="M53 4H23.66a4.985 4.985 0 0 0-3.539 1.46l-8.66 8.661A4.985 4.985 0 0 0 10 17.661V57a3 3 0 0 0 3 3h40a3 3 0 0 0 3-3V7a3 3 0 0 0-3-3zM21.54 6.879c.14-.14.296-.27.46-.379V15c0 .55-.45 1-1 1h-8.5c.11-.164.238-.32.379-.46zM54 57c0 .55-.45 1-1 1H13c-.55 0-1-.45-1-1V18h9a3 3 0 0 0 3-3V6h29c.55 0 1 .45 1 1z" fill="#8d6c9f"/><path d="M45 20h-4c-.55 0-1 .45-1 1s.45 1 1 1h4c.55 0 1-.45 1-1s-.45-1-1-1zm-24 2h16c.55 0 1-.45 1-1s-.45-1-1-1H21c-.55 0-1 .45-1 1s.45 1 1 1zm24 4H21c-.55 0-1 .45-1 1v12c0 .55.45 1 1 1h24c.55 0 1-.45 1-1V27c0-.55-.45-1-1-1zm-1 6h-8v-4h8zm-18 0v-4h8v4zm8 2v4h-8v-4zm-12-6h2v4h-2zm0 6h2v4h-2zm22 4h-8v-4h8z" fill="#8d6c9f"/><path d="M45 44h-8c-.55 0-1 .45-1 1s.45 1 1 1h8c.55 0 1-.45 1-1s-.45-1-1-1z" fill="#ed7899"/><path d="M15 50c-.55 0-1 .45-1 1v2c0 .55.45 1 1 1s1-.45 1-1v-2c0-.55-.45-1-1-1zm5 0c-.55 0-1 .45-1 1v2c0 .55.45 1 1 1s1-.45 1-1v-2c0-.55-.45-1-1-1zm5 0c-.55 0-1 .45-1 1v2c0 .55.45 1 1 1s1-.45 1-1v-2c0-.55-.45-1-1-1zm5 0c-.55 0-1 .45-1 1v2c0 .55.45 1 1 1s1-.45 1-1v-2c0-.55-.45-1-1-1zm5 0c-.55 0-1 .45-1 1v2c0 .55.45 1 1 1s1-.45 1-1v-2c0-.55-.45-1-1-1zm5 0c-.55 0-1 .45-1 1v2c0 .55.45 1 1 1s1-.45 1-1v-2c0-.55-.45-1-1-1zm5 0c-.55 0-1 .45-1 1v2c0 .55.45 1 1 1s1-.45 1-1v-2c0-.55-.45-1-1-1zm5 0c-.55 0-1 .45-1 1v2c0 .55.45 1 1 1s1-.45 1-1v-2c0-.55-.45-1-1-1z" fill="#8d6c9f"/></svg>