<svg xmlns="http://www.w3.org/2000/svg" viewBox="0 0 80 80"><path d="M11 16c-2.75 0-5 2.25-5 5v38c0 2.75 2.25 5 5 5h58c2.75 0 5-2.25 5-5V21c0-2.75-2.25-5-5-5zm0 2h58c1.668 0 3 1.332 3 3v38c0 1.668-1.332 3-3 3H11c-1.668 0-3-1.332-3-3V21c0-1.668 1.332-3 3-3zm19 6c-8.824 0-16 7.176-16 16s7.176 16 16 16c3.8 0 7.258-1.383 10-3.598C42.742 54.617 46.2 56 50 56c8.824 0 16-7.176 16-16s-7.176-16-16-16c-3.8 0-7.258 1.383-10 3.598C37.258 25.383 33.8 24 30 24zm0 2c3.516 0 6.707 1.309 9.168 3.45A.993.993 0 0 0 39 30c0 .55.45 1 1 1s1-.45 1-1a.993.993 0 0 0-.168-.55 14.52 14.52 0 0 1 2.012-1.462.998.998 0 0 0 1.066-.582 13.835 13.835 0 0 1 4.735-1.34c-.387.149-.645.52-.645.934 0 .55.45 1 1 1s1-.45 1-1a.999.999 0 0 0-.742-.965c.246-.012.492-.035.742-.035 1.422 0 2.79.219 4.078.61A1.002 1.002 0 0 0 55 28c.426 0 .8-.27.941-.672a13.98 13.98 0 0 1 5.672 4.887A.97.97 0 0 0 61 32c-.55 0-1 .45-1 1s.45 1 1 1 1-.45 1-1a.869.869 0 0 0-.027-.223c.496.82.918 1.692 1.234 2.614a.998.998 0 0 0 .45 1.547c.218.988.343 2.007.343 3.062 0 .34-.027.672-.05 1.004a1 1 0 0 0-.263 1.945A13.993 13.993 0 0 1 52.95 53.688 1.003 1.003 0 0 0 52 53c-.531 0-.973.418-1 .95-.332.023-.66.05-1 .05a13.69 13.69 0 0 1-3.066-.355 1.002 1.002 0 0 0-1.54-.442c-.917-.324-1.8-.73-2.624-1.23A1.002 1.002 0 0 0 44 51c0-.55-.45-1-1-1a1.002 1.002 0 0 0-.809 1.59 14.373 14.373 0 0 1-1.523-1.176L40 49.812l-.668.602A13.906 13.906 0 0 1 30 54c-7.742 0-14-6.258-14-14s6.258-14 14-14zm16 3c-.55 0-1 .45-1 1s.45 1 1 1 1-.45 1-1-.45-1-1-1zm6 0c-.55 0-1 .45-1 1s.45 1 1 1 1-.45 1-1-.45-1-1-1zm6 0c-.55 0-1 .45-1 1s.45 1 1 1 1-.45 1-1-.45-1-1-1zm-21 3c-.55 0-1 .45-1 1s.45 1 1 1 1-.45 1-1-.45-1-1-1zm6 0c-.55 0-1 .45-1 1s.45 1 1 1 1-.45 1-1-.45-1-1-1zm6 0c-.55 0-1 .45-1 1s.45 1 1 1 1-.45 1-1-.45-1-1-1zm6 0c-.55 0-1 .45-1 1s.45 1 1 1 1-.45 1-1-.45-1-1-1zm-15 3c-.55 0-1 .45-1 1s.45 1 1 1 1-.45 1-1-.45-1-1-1zm6 0c-.55 0-1 .45-1 1s.45 1 1 1 1-.45 1-1-.45-1-1-1zm6 0c-.55 0-1 .45-1 1s.45 1 1 1 1-.45 1-1-.45-1-1-1zm6 0c-.55 0-1 .45-1 1s.45 1 1 1 1-.45 1-1-.45-1-1-1zm-21 3c-.55 0-1 .45-1 1s.45 1 1 1 1-.45 1-1-.45-1-1-1zm6 0c-.55 0-1 .45-1 1s.45 1 1 1 1-.45 1-1-.45-1-1-1zm6 0c-.55 0-1 .45-1 1s.45 1 1 1 1-.45 1-1-.45-1-1-1zm6 0c-.55 0-1 .45-1 1s.45 1 1 1 1-.45 1-1-.45-1-1-1zm6 0c-.55 0-1 .45-1 1s.45 1 1 1 1-.45 1-1-.45-1-1-1zm-21 3c-.55 0-1 .45-1 1s.45 1 1 1 1-.45 1-1-.45-1-1-1zm6 0c-.55 0-1 .45-1 1s.45 1 1 1 1-.45 1-1-.45-1-1-1zm6 0c-.55 0-1 .45-1 1s.45 1 1 1 1-.45 1-1-.45-1-1-1zm6 0c-.55 0-1 .45-1 1s.45 1 1 1 1-.45 1-1-.45-1-1-1zm-21 3c-.55 0-1 .45-1 1s.45 1 1 1 1-.45 1-1-.45-1-1-1zm6 0c-.55 0-1 .45-1 1s.45 1 1 1 1-.45 1-1-.45-1-1-1zm6 0c-.55 0-1 .45-1 1s.45 1 1 1 1-.45 1-1-.45-1-1-1zm6 0c-.55 0-1 .45-1 1s.45 1 1 1 1-.45 1-1-.45-1-1-1zm6 0c-.55 0-1 .45-1 1s.45 1 1 1 1-.45 1-1-.45-1-1-1zm-21 3c-.55 0-1 .45-1 1s.45 1 1 1 1-.45 1-1-.45-1-1-1zm6 0c-.55 0-1 .45-1 1s.45 1 1 1 1-.45 1-1-.45-1-1-1zm6 0c-.55 0-1 .45-1 1s.45 1 1 1 1-.45 1-1-.45-1-1-1zm6 0c-.55 0-1 .45-1 1s.45 1 1 1 1-.45 1-1-.45-1-1-1zm-9 3c-.55 0-1 .45-1 1s.45 1 1 1 1-.45 1-1-.45-1-1-1zm6 0c-.55 0-1 .45-1 1s.45 1 1 1 1-.45 1-1-.45-1-1-1z"/></svg>