<svg xmlns="http://www.w3.org/2000/svg" viewBox="0 0 50 50"><path d="M5 7c-2.75 0-5 2.25-5 5v26c0 2.75 2.25 5 5 5h40c2.75 0 5-2.25 5-5V12c0-2.75-2.25-5-5-5zm0 2h40c1.668 0 3 1.332 3 3v26c0 1.668-1.332 3-3 3H5c-1.668 0-3-1.332-3-3V12c0-1.668 1.332-3 3-3zm12 4c-6.617 0-12 5.383-12 12s5.383 12 12 12c3.078 0 5.875-1.184 8-3.094C27.125 35.816 29.926 37 33 37c6.617 0 12-5.383 12-12s-5.383-12-12-12c-3.074 0-5.875 1.184-8 3.094C22.875 14.184 20.078 13 17 13zm16 2c5.535 0 10 4.465 10 10s-4.465 10-10 10c-2.55 0-4.89-.934-6.656-2.5C27.996 30.441 29 27.84 29 25s-1.004-5.441-2.656-7.5C28.109 15.934 30.449 15 33 15z"/></svg>