<svg xmlns="http://www.w3.org/2000/svg" viewBox="0 0 16 16"><path d="M2.5 3C1.676 3 1 3.676 1 4.5v5c0 .824.676 1.5 1.5 1.5h11c.824 0 1.5-.676 1.5-1.5v-5c0-.824-.676-1.5-1.5-1.5zM3 4h10c0 .547.453 1 1 1v4c-.547 0-1 .453-1 1H3c0-.547-.453-1-1-1V5c.547 0 1-.453 1-1zm5 1c-1.098 0-2 .902-2 2 0 1.098.902 2 2 2 1.098 0 2-.902 2-2 0-1.098-.902-2-2-2zM4 6c-.55 0-1 .45-1 1s.45 1 1 1 1-.45 1-1-.45-1-1-1zm4 0c.559 0 1 .441 1 1 0 .559-.441 1-1 1-.559 0-1-.441-1-1 0-.559.441-1 1-1zm4 0c-.55 0-1 .45-1 1s.45 1 1 1 1-.45 1-1-.45-1-1-1zM2 12c.207.582.758 1 1.406 1h1.07c1.649 0 3.313.129 4.942.379l2.852.437a1.484 1.484 0 0 0 1.207-.344 1.5 1.5 0 0 0 .523-1.14V12h-1.125c-.508 0-.898.324-.969.75l-2.336-.36A33.696 33.696 0 0 0 4.477 12z"/></svg>