<svg xmlns="http://www.w3.org/2000/svg" viewBox="0 0 32 32"><path d="M16 3c-3 0-5.406 1.094-5.406 1.094l-.969.406.469.938 1.594 3.156C9.555 9.852 4 13.704 4 20c0 2.953.957 5.195 3.031 6.438C9.105 27.68 12.011 28 16 28c3.988 0 6.895-.32 8.969-1.563C27.043 25.195 28 22.953 28 20c0-4.11-2.398-7.188-4.656-9.188 1.945.79 2.906 1.876 2.906 1.876l1.5-1.376s-2.55-2.695-7.188-3.218l1.344-2.656.469-.938-.969-.406S19 3 16 3zm0 2c1.574 0 2.766.293 3.594.563L18.375 8h-4.75l-1.219-2.438C13.234 5.293 14.426 5 16 5zm-2.688 5h5.376c.246.129 7.312 3.855 7.312 10 0 2.57-.598 3.84-2.063 4.719C22.474 25.598 19.864 26 16 26c-3.863 0-6.473-.402-7.938-1.281C6.598 23.839 6 22.57 6 20c0-6.145 7.066-9.871 7.313-10zM15 12v1.188c-1.156.421-2 1.527-2 2.812 0 .832.46 1.543.969 1.969.508.426 1.094.683 1.594.937s.945.489 1.187.688c.242.199.25.254.25.406 0 .523-.453 1-1 1-.566 0-1-.434-1-1h-2c0 1.293.844 2.395 2 2.813V24h2v-1.188c1.16-.421 2-1.53 2-2.812 0-.832-.492-1.516-1-1.938-.508-.421-1.063-.687-1.563-.937s-.914-.484-1.156-.688C15.04 16.235 15 16.169 15 16c0-.54.445-1 1-1 .566 0 1 .434 1 1h2c0-1.293-.844-2.395-2-2.813V12z"/></svg>