<svg xmlns="http://www.w3.org/2000/svg" viewBox="0 0 64 64"><path d="M3 22.012L21 9.5h22l18.11 12.512v3L32 45.469 3 25.012z" fill="#efd8be"/><path d="M17 3h30v45H17z" fill="#72caaf"/><path d="M59.11 59H5a2 2 0 0 1-2-2V26c0-1.102 1.328 1 2.441 1L32 45.469l27.2-19.047c1.1 0 1.8-1.524 1.8-.422l.11 31a2 2 0 0 1-2 2z" fill="#faefde"/><path d="M60 59H4c-.55 0-1-.219-1-.77V58c0-2.21 1.79-4 4-4h50.11c2.21 0 4 1.79 4 4v.23c0 .551-.56.77-1.11.77z" fill="#efd8be"/><path d="M35 12a3 3 0 1 1-6.002-.002A3 3 0 0 1 35 12z" fill="#fadb6f"/><path d="M41 30c.004.902-.148 1.8-.45 2.648C39.45 35.77 36.36 38 32 38a11.35 11.35 0 0 1-2.809-.34A8.14 8.14 0 0 1 24.09 34a6.89 6.89 0 0 1-.399-.75A7.837 7.837 0 0 1 23 30c0-4.422 3.48-8 9-8h.578l.942.078a11.61 11.61 0 0 1 1.71.371c.774.23 1.508.57 2.192 1A7.715 7.715 0 0 1 39.21 25a7.547 7.547 0 0 1 1.488 2.82c.203.707.305 1.442.301 2.18z" fill="#bbdef9"/><path d="M40.871 29.86c0 .94-.105 1.874-.32 2.788C39.449 35.77 36.359 38 32 38a11.35 11.35 0 0 1-2.809-.34L39.211 25a7.547 7.547 0 0 1 1.488 2.82c.114.672.172 1.356.172 2.04zm-3.449-6.391L27 36.64a10.39 10.39 0 0 1-1.238-2.22l9.468-12a8.83 8.83 0 0 1 2.192 1.048zM33.52 22.09L24.09 34a6.89 6.89 0 0 1-.399-.75L32.578 22z" fill="#def0ff"/><path d="M19 3h26a2 2 0 0 1 2 2 3 3 0 0 1-3 3H20a3 3 0 0 1-3-3 2 2 0 0 1 2-2z" fill="#97e0bb"/><path d="M60.762 20.59L48 11.352V5a3 3 0 0 0-3-3H19a3 3 0 0 0-3 3v6.352L3.238 20.59A3.003 3.003 0 0 0 2 23v34a3 3 0 0 0 3 3h54a3 3 0 0 0 3-3V23a3.003 3.003 0 0 0-1.238-2.41zm-1.172 1.62A.99.99 0 0 1 60 23v1.469l-12 8.71V13.82zM19 4h26c.55 0 1 .45 1 1v29.629L42.719 37H41c-.55 0-1 .45-1 1 .004.277.125.543.328.73l-7.156 5.18a2.005 2.005 0 0 1-2.352 0l-7.16-5.18c.211-.183.332-.449.34-.73 0-.55-.45-1-1-1h-1.719L18 34.629V5c0-.55.45-1 1-1zM4.41 22.21L16 13.82v19.36L4 24.488V23a.99.99 0 0 1 .41-.79zM59 58H5c-.55 0-1-.45-1-1v-2.441l2-1.22V55c0 .55.45 1 1 1s1-.45 1-1v-2a.994.994 0 0 0-.29-.7l13.86-8.448a1.002 1.002 0 0 0-1-1.711L4 52.219V27l25.648 18.54a4.005 4.005 0 0 0 4.692 0L60 27v25.219l-16.531-10.07a1.002 1.002 0 0 0-1 1.71l13.82 8.442A.994.994 0 0 0 56 53v2c0 .55.45 1 1 1s1-.45 1-1v-1.66l2 1.219V57c0 .55-.45 1-1 1z" fill="#8d6c9f"/><path d="M12 52c-.55 0-1 .45-1 1v2c0 .55.45 1 1 1s1-.45 1-1v-2c0-.55-.45-1-1-1zm5 0c-.55 0-1 .45-1 1v2c0 .55.45 1 1 1s1-.45 1-1v-2c0-.55-.45-1-1-1zm5 0c-.55 0-1 .45-1 1v2c0 .55.45 1 1 1s1-.45 1-1v-2c0-.55-.45-1-1-1zm5 0c-.55 0-1 .45-1 1v2c0 .55.45 1 1 1s1-.45 1-1v-2c0-.55-.45-1-1-1zm5 0c-.55 0-1 .45-1 1v2c0 .55.45 1 1 1s1-.45 1-1v-2c0-.55-.45-1-1-1zm5 0c-.55 0-1 .45-1 1v2c0 .55.45 1 1 1s1-.45 1-1v-2c0-.55-.45-1-1-1zm5 0c-.55 0-1 .45-1 1v2c0 .55.45 1 1 1s1-.45 1-1v-2c0-.55-.45-1-1-1zm5 0c-.55 0-1 .45-1 1v2c0 .55.45 1 1 1s1-.45 1-1v-2c0-.55-.45-1-1-1zm5 0c-.55 0-1 .45-1 1v2c0 .55.45 1 1 1s1-.45 1-1v-2c0-.55-.45-1-1-1zM20 33c0 .55.45 1 1 1h2a10.16 10.16 0 0 0 9 5 10.16 10.16 0 0 0 9-5h2c.55 0 1-.45 1-1s-.45-1-1-1h-1.262a7.886 7.886 0 0 0 0-4H43c.55 0 1-.45 1-1s-.45-1-1-1h-2a10.16 10.16 0 0 0-9-5 10.16 10.16 0 0 0-9 5h-2c-.55 0-1 .45-1 1s.45 1 1 1h1.262a7.886 7.886 0 0 0 0 4H21c-.55 0-1 .45-1 1zm12-10c4.41 0 8 3.14 8 7s-3.59 7-8 7-8-3.14-8-7 3.59-7 8-7zm-11 0h2c.55 0 1-.45 1-1s-.45-1-1-1h-2c-.55 0-1 .45-1 1s.45 1 1 1zm0-5h2c.55 0 1-.45 1-1s-.45-1-1-1h-2c-.55 0-1 .45-1 1s.45 1 1 1zm20 5h2c.55 0 1-.45 1-1s-.45-1-1-1h-2c-.55 0-1 .45-1 1s.45 1 1 1zm0-5h2c.55 0 1-.45 1-1s-.45-1-1-1h-2c-.55 0-1 .45-1 1s.45 1 1 1zm2-5c.55 0 1-.45 1-1V7c0-.55-.45-1-1-1s-1 .45-1 1v5c0 .55.45 1 1 1zm-22 0c.55 0 1-.45 1-1V7c0-.55-.45-1-1-1s-1 .45-1 1v5c0 .55.45 1 1 1zm11 3c2.21 0 4-1.79 4-4s-1.79-4-4-4-4 1.79-4 4 1.79 4 4 4zm0-6a1.999 1.999 0 1 1 0 4 1.999 1.999 0 1 1 0-4z" fill="#8d6c9f"/></svg>