<svg xmlns="http://www.w3.org/2000/svg" viewBox="0 0 50 50"><path style="line-height:normal;text-indent:0;text-align:start;text-decoration-line:none;text-decoration-style:solid;text-decoration-color:#000;text-transform:none;block-progression:tb;isolation:auto;mix-blend-mode:normal" d="M25 1C11.757 1 1 11.757 1 25s10.757 24 24 24 24-10.757 24-24S38.243 1 25 1zm0 2c12.162 0 22 9.838 22 22s-9.838 22-22 22S3 37.162 3 25 12.838 3 25 3zm-8 12v7h-3v2h3v3h-3v2h3v7h2.654v-7h6.448l4.584 7h3.127v-7H37v-2h-3.188v-3H37v-2h-3.188v-7H31.13v7h-6.537l-4.555-7H17zm2.654 4.158L21.516 22h-1.862v-2.842zm0 4.842h3.172l1.965 3h-5.137v-3zm6.239 0h5.236v3h-3.285l-1.951-3zm3.252 5h1.984v3.049L29.145 29z" font-weight="400" font-family="sans-serif" white-space="normal" overflow="visible"/></svg>