<svg xmlns="http://www.w3.org/2000/svg" viewBox="0 0 50 50"><path d="M42.719.844l-.969.25L32.781 3.5c-.054.012-.101.016-.156.031l-22.344 6-9.094 2.438-.968.25.25.969 2.156 7.937v.063L6 33.656V46h44V20h-2.125L42.969 1.781zM41.28 3.28l1.126 4.22c-.207-.05-.422-.121-.625-.156-.633-.102-1.23-.16-1.718-.219-.489-.059-.864-.164-.907-.188-.039-.023-.308-.285-.625-.687a14.932 14.932 0 0 0-1.218-1.406 5.369 5.369 0 0 0-.407-.375zm-7.218 2.063c.796-.004 1.296.363 1.843.906.364.363.692.82 1.032 1.25.34.43.66.863 1.218 1.188.559.32 1.098.367 1.657.437.558.07 1.14.102 1.656.188.515.085.941.214 1.218.374.254.149.383.278.47.532.007.023.023.035.03.062L45.782 20H33.906a10.994 10.994 0 0 0-.375-3.25c-1.058-3.95-4.16-6.824-7.687-7.469a8.13 8.13 0 0 0-3.594.156c-4.422 1.188-7.043 5.774-6.406 10.563H6v5.969L4.531 20.53c-.035-.222-.008-.394.125-.625.16-.277.473-.636.875-.968.403-.333.895-.63 1.344-.97.45-.34.867-.66 1.188-1.218h.03c.325-.559.36-1.086.438-1.625.078-.54.149-1.098.281-1.594.27-.992.626-1.691 2-2.062l22.344-6a3.38 3.38 0 0 1 .907-.125zm-9.938 5.781c3.246-.105 6.453 2.363 7.469 6.156.246.922.351 1.836.312 2.719h-14.03c-.66-4.008 1.453-7.738 4.875-8.656a5.98 5.98 0 0 1 1.375-.219zm14.844 1.188a3.514 3.514 0 0 0-3.5 3.5c0 1.921 1.578 3.5 3.5 3.5s3.5-1.579 3.5-3.5c0-1.922-1.578-3.5-3.5-3.5zM7.03 12.5a5.11 5.11 0 0 0-.156.5c-.184.676-.238 1.305-.313 1.813-.074.507-.195.898-.218.937-.024.043-.297.328-.688.625-.39.297-.879.625-1.375 1.031a8.522 8.522 0 0 0-.5.438l-1.125-4.188zm31.938 1.813c.84 0 1.5.66 1.5 1.5s-.66 1.5-1.5 1.5-1.5-.66-1.5-1.5.66-1.5 1.5-1.5zM8 22h4.531c-.11.148-.191.316-.281.469-.352.605-.61 1.218-.813 1.687-.203.469-.406.782-.437.813-.035.035-.355.254-.813.437-.457.184-1.011.395-1.593.657-.196.09-.395.207-.594.312zm8.438 0h23.125c1.425 0 1.953.578 2.468 1.469.258.445.473.968.688 1.468.215.5.386 1.012.843 1.47.454.452.981.632 1.5.843.52.21 1.055.41 1.532.625.476.215.867.46 1.093.688.227.226.313.367.313.687v10c0 .14-.012.168-.125.281-.113.114-.375.266-.688.407-.312.14-.66.289-1.03.437-.372.148-.778.277-1.157.656-.383.383-.504.742-.656 1.094-.153.352-.305.715-.469 1-.332.57-.555.875-1.438.875H13.564c-.883 0-1.106-.305-1.438-.875-.164-.285-.316-.645-.469-1-.152-.355-.273-.71-.656-1.094-.379-.379-.785-.508-1.156-.656a26.62 26.62 0 0 1-1.031-.438c-.313-.14-.575-.292-.688-.406-.113-.113-.125-.14-.125-.281V33.5h.031L8 33.375V29.25c0-.32.086-.46.313-.688.226-.226.617-.472 1.093-.687.477-.215 1.012-.414 1.531-.625.52-.21 1.047-.39 1.5-.844.458-.457.626-.968.844-1.468.219-.5.43-1.024.688-1.47.515-.89 1.043-1.468 2.469-1.468zm27.03 0H48v4.375c-.195-.105-.398-.223-.594-.313-.582-.261-1.136-.472-1.593-.656-.458-.183-.778-.402-.813-.437-.031-.032-.234-.344-.438-.813-.203-.468-.46-1.082-.812-1.687-.09-.153-.172-.32-.281-.469zM28 23c-5.027 0-9 4.55-9 10s3.973 10 9 10 9-4.55 9-10-3.973-10-9-10zm0 2c3.809 0 7 3.512 7 8 0 4.488-3.191 8-7 8s-7-3.512-7-8c0-4.488 3.191-8 7-8zm-14.5 5a3.514 3.514 0 0 0-3.5 3.5c0 1.922 1.578 3.5 3.5 3.5s3.5-1.578 3.5-3.5-1.578-3.5-3.5-3.5zm29 0a3.514 3.514 0 0 0-3.5 3.5c0 1.922 1.578 3.5 3.5 3.5s3.5-1.578 3.5-3.5-1.578-3.5-3.5-3.5zm-29 2c.84 0 1.5.66 1.5 1.5s-.66 1.5-1.5 1.5-1.5-.66-1.5-1.5.66-1.5 1.5-1.5zm29 0c.84 0 1.5.66 1.5 1.5s-.66 1.5-1.5 1.5-1.5-.66-1.5-1.5.66-1.5 1.5-1.5zM8 41.781c.41.184.793.317 1.094.438.304.125.511.261.469.218-.043-.042.109.18.25.5.124.29.285.668.5 1.063H8zm40 0V44h-2.313c.215-.395.376-.773.5-1.063.141-.32.293-.542.25-.5-.042.043.16-.093.47-.218.3-.121.683-.254 1.093-.438z"/></svg>