<svg xmlns="http://www.w3.org/2000/svg" viewBox="0 0 64 64"><path d="M11 4C9.348 4 8 5.348 8 7v45H4c-1.102 0-2 .898-2 2v2c0 2.207 1.793 4 4 4h48c2.207 0 4-1.793 4-4V7c0-1.652-1.348-3-3-3zm0 2h44c.55 0 1 .45 1 1v49c0 1.102-.898 2-2 2-1.102 0-2-.898-2-2v-2c0-1.102-.898-2-2-2H10V7c0-.55.45-1 1-1zm9 6c-.555 0-1 .445-1 1v1c-1.652 0-3 1.348-3 3v3c0 1.652 1.348 3 3 3h2c.55 0 1 .45 1 1v3c0 .55-.45 1-1 1h-2c-.55 0-1-.45-1-1v-1c0-.555-.445-1-1-1-.555 0-1 .445-1 1v1c0 1.652 1.348 3 3 3v1c0 .555.445 1 1 1 .555 0 1-.445 1-1v-1c1.652 0 3-1.348 3-3v-3c0-1.652-1.348-3-3-3h-2c-.55 0-1-.45-1-1v-3c0-.55.45-1 1-1h2c.55 0 1 .45 1 1v1c0 .555.445 1 1 1 .555 0 1-.445 1-1v-1c0-1.652-1.348-3-3-3v-1c0-.555-.445-1-1-1zm9 2c-.555 0-1 .445-1 1 0 .555.445 1 1 1h8c.555 0 1-.445 1-1 0-.555-.445-1-1-1zm12 0c-.555 0-1 .445-1 1 0 .555.445 1 1 1h6c.555 0 1-.445 1-1 0-.555-.445-1-1-1zm-12 4c-.555 0-1 .445-1 1 0 .555.445 1 1 1h14c.555 0 1-.445 1-1 0-.555-.445-1-1-1zm0 10c-.555 0-1 .445-1 1 0 .555.445 1 1 1h18c.555 0 1-.445 1-1 0-.555-.445-1-1-1zm0 4c-.555 0-1 .445-1 1 0 .555.445 1 1 1h8c.555 0 1-.445 1-1 0-.555-.445-1-1-1zm12 0c-.555 0-1 .445-1 1 0 .555.445 1 1 1h2c.555 0 1-.445 1-1 0-.555-.445-1-1-1zM14 44c-.555 0-1 .445-1 1v2c0 .555.445 1 1 1 .555 0 1-.445 1-1v-2c0-.555-.445-1-1-1zm5 0c-.555 0-1 .445-1 1v2c0 .555.445 1 1 1 .555 0 1-.445 1-1v-2c0-.555-.445-1-1-1zm5 0c-.555 0-1 .445-1 1v2c0 .555.445 1 1 1 .555 0 1-.445 1-1v-2c0-.555-.445-1-1-1zm5 0c-.555 0-1 .445-1 1v2c0 .555.445 1 1 1 .555 0 1-.445 1-1v-2c0-.555-.445-1-1-1zm5 0c-.555 0-1 .445-1 1v2c0 .555.445 1 1 1 .555 0 1-.445 1-1v-2c0-.555-.445-1-1-1zm5 0c-.555 0-1 .445-1 1v2c0 .555.445 1 1 1 .555 0 1-.445 1-1v-2c0-.555-.445-1-1-1zm5 0c-.555 0-1 .445-1 1v2c0 .555.445 1 1 1 .555 0 1-.445 1-1v-2c0-.555-.445-1-1-1zm5 0c-.555 0-1 .445-1 1v2c0 .555.445 1 1 1 .555 0 1-.445 1-1v-2c0-.555-.445-1-1-1zm5 0c-.555 0-1 .445-1 1v2c0 .555.445 1 1 1 .555 0 1-.445 1-1v-2c0-.555-.445-1-1-1zM4 54h46v2c0 .73.21 1.41.559 2H6c-1.102 0-2-.898-2-2z"/></svg>