<svg xmlns="http://www.w3.org/2000/svg" viewBox="0 0 50 50"><path d="M22 4c-1.574 0-2.867 1.242-2.98 2.79-.012.07-.02.14-.02.21v.008s-.004 1.703.871 3.441c.285.57.7 1.14 1.227 1.66-6.008.418-11.368 1.926-11.368 1.926a.193.193 0 0 1-.046.016l-3 1a1.001 1.001 0 0 0 .632 1.898l2.97-.992C10.315 15.949 17.327 14 24 14c.352 0 .68-.031 1-.07.32.039.648.07 1 .07 6.672 0 13.684 1.95 13.715 1.957l2.969.992a1.001 1.001 0 0 0 .632-1.898l-3-1a.23.23 0 0 1-.046-.016s-5.36-1.508-11.368-1.926c.528-.52.942-1.09 1.227-1.66.875-1.738.871-3.441.871-3.441V7a1.34 1.34 0 0 0-.02-.219C30.863 5.238 29.57 4 28 4c-1.645 0-3 1.355-3 3s1.355 3 3 3c.035 0 .066-.008.098-.008-.559.914-1.434 1.711-3.098 1.942-1.664-.23-2.54-1.028-3.098-1.942.032 0 .063.008.098.008 1.645 0 3-1.355 3-3s-1.355-3-3-3zm0 2c.563 0 1 .438 1 1 0 .563-.438 1-1 1-.563 0-1-.438-1-1v-.008A.985.985 0 0 1 22 6zm6 0c.563 0 1 .434 1 1v.008A.988.988 0 0 1 28 8c-.563 0-1-.438-1-1 0-.563.438-1 1-1zm-4 10c-6.84 0-13.66 1.871-14.11 1.996a1.002 1.002 0 0 0-.992.5C3.992 26.863 4 35 4 35c0 6.047 4.953 11 11 11h20c6.047 0 11-4.953 11-11v-.008s-.055-8.191-4.902-16.496a1 1 0 0 0-1.032-.512C39.516 17.832 32.786 16 26 16zm0 2h2c6.512 0 13.262 1.836 13.61 1.934C43.921 27.598 44 34.996 44 35.004 43.996 39.957 39.953 44 35 44H15c-4.953 0-9-4.047-9-9 0 0 .016-7.34 4.39-15.066C10.73 19.836 17.485 18 24 18z"/></svg>