<svg xmlns="http://www.w3.org/2000/svg" viewBox="0 0 26 26"><path d="M10 2.188C9 2.188 8.187 3 8.187 4c0 .82.536 1.492 1.282 1.719.05.187.082.37.156.562.133.352.297.723.531 1.063C8.113 7.824 6.375 8.746 5 9.656c-.984.653-1.785 1.32-2.375 1.781-.297.231-.531.399-.688.5-.12.083-.164.07-.03.063a1.003 1.003 0 0 0-.954 1.047c.027.55.496.98 1.047.953.586 0 .773-.203 1.031-.375.258-.172.508-.387.813-.625a36.647 36.647 0 0 1 2.281-1.656C7.922 10.152 10.25 9 13 9c2.707 0 5.063 1.152 6.875 2.344A37.085 37.085 0 0 1 22.156 13c.305.238.555.457.813.625.258.168.437.375 1.031.375a1.01 1.01 0 0 0 1.11-.89 1.01 1.01 0 0 0-.891-1.11c-.012-.004-.078-.012-.157-.063-.156-.105-.39-.269-.687-.5-.598-.464-1.414-1.128-2.406-1.78-1.375-.907-3.106-1.829-5.125-2.313.234-.34.398-.711.531-1.063.074-.191.105-.375.156-.562A1.786 1.786 0 0 0 17.813 4a1.814 1.814 0 1 0-2.875 1.469c-.024.082-.032.168-.063.25-.156.418-.398.804-.688 1.062a1.61 1.61 0 0 1-.374.25 10.898 10.898 0 0 0-1.626 0 1.61 1.61 0 0 1-.374-.25c-.29-.258-.532-.644-.688-1.062-.031-.082-.04-.168-.063-.25A1.814 1.814 0 0 0 10 2.188zm3 8c-4.352 0-11.813 3.863-11.813 9.718 0 6.356 5.29 5.907 11.813 5.907 6.523 0 11.813.449 11.813-5.907 0-5.824-7.461-9.718-11.813-9.718z"/></svg>