<svg xmlns="http://www.w3.org/2000/svg" viewBox="0 0 48 48"><path d="M41 8H7a2 2 0 0 0-2 2v28a2 2 0 0 0 2 2h34a2 2 0 0 0 2-2V10a2 2 0 0 0-2-2z" fill="#bbdefb"/><path d="M22 21h-8.969v-2H22zm0-6h-8.969v2H22zm-.031 12H13v2h8.969zm0 4H13v2h8.969zm0-8H13v2h8.969zm-12.93-6h1.996v-2H9.04zm0 4h1.996v-2H9.04zm0 12h1.996v-2H9.04zm0-8h1.996v-2H9.04zm0 4h1.996v-2H9.04zM39 19h-8.969v2H39zm0-4h-8.969v2H39zm-.031 12H30v2h8.969zm0 4H30v2h8.969zm0-8H30v2h8.969zm-12.93-6h1.996v-2H26.04zm0 4h1.996v-2H26.04zm0 12h1.996v-2H26.04zm0-8h1.996v-2H26.04zm0 4h1.996v-2H26.04z" fill="#1976d2"/></svg>