<svg xmlns="http://www.w3.org/2000/svg" viewBox="0 0 48 48"><path d="M41.766 38H6.234C4.438 38 3 36.629 3 34.848V12.227A3.224 3.224 0 0 1 6.234 9h35.532A3.227 3.227 0 0 1 45 12.227v22.62C45 36.63 43.559 38 41.766 38z" fill="#03a9f4"/><path d="M36.848 23.277c.066-1.101.351-1.613.925-1.613.547 0 .848.527.887 1.613zm4.105.657c0-1.23-.27-2.204-.781-2.883-.54-.7-1.348-1.051-2.36-1.051-2.085 0-3.394 1.547-3.394 4.023 0 1.383.344 2.426 1.035 3.082.617.598 1.504.895 2.633.895 1.047 0 2.016-.25 2.633-.656l-.27-1.688c-.605.332-1.308.512-2.094.512-.472 0-.808-.102-1.046-.309-.262-.218-.407-.57-.457-1.074h4.066c.027-.117.035-.68.035-.851zM31.06 25.53c-.223.38-.532.582-.891.582a1.58 1.58 0 0 1-.672-.148v-3.719c.43-.437.817-.488.945-.488.63 0 .942.68.942 2.015 0 .762-.113 1.352-.324 1.758zm2.054-4.82c-.437-.574-1.058-.856-1.843-.856-.715 0-1.344.301-1.934.938l-.145-.785H27V31l2.48-.414.016-2.8c.39.12.781.183 1.133.183.629 0 1.531-.157 2.234-.926.668-.73.996-1.86.996-3.36 0-1.324-.246-2.331-.746-2.972zm-9.586-.703H26V28h-2.473zm1.258-.774c.719 0 1.3-.593 1.3-1.312a1.31 1.31 0 0 0-1.3-1.32c-.738 0-1.324.585-1.324 1.32 0 .719.586 1.312 1.324 1.312zm-2.32.664c-.707 0-1.281.375-1.492 1.032l-.153-.918h-2.168V28h2.48v-5.25c.313-.383.75-.52 1.364-.52.125 0 .258 0 .438.028V19.96a2.283 2.283 0 0 0-.47-.063zm-4.785 1.957l.308-1.847h-1.601v-2.246l-2.13.355-.308 1.89-.75.122-.277 1.726h1.023v3.622c0 .941.239 1.601.723 2 .422.335 1.012.492 1.844.492.652 0 1.043-.114 1.297-.184v-1.96c-.133.042-.48.116-.72.116-.48 0-.702-.25-.702-.824v-3.265h1.293zm-7.149 1.196c-.707-.266-1.117-.473-1.117-.805 0-.273.227-.433.645-.433.738 0 1.507.28 2.023.542l.3-1.828c-.417-.203-1.269-.527-2.44-.527-.84 0-1.536.219-2.016.621-.531.43-.801 1.043-.801 1.785 0 1.348.824 1.918 2.164 2.403.86.308 1.156.527 1.156.867 0 .324-.273.515-.797.515-.625 0-1.64-.308-2.328-.703l-.28 1.852c.577.324 1.636.66 2.75.66.886 0 1.62-.21 2.1-.605.567-.434.844-1.079.844-1.907 0-1.383-.843-1.957-2.203-2.437z" fill="#fff"/></svg>