<svg xmlns="http://www.w3.org/2000/svg" viewBox="0 0 32 32"><path d="M12 3c-1.7 0-3 1.3-3 3s1.3 3 3 3h.7l1.898 2L10 16v3l9.3-10.102c.2.102.4.102.7.102 1.7 0 3-1.3 3-3s-1.3-3-3-3-3 1.3-3 3c0 .602.2 1.2.5 1.7L16 9.397 14.402 7.7c.399-.399.598-1 .598-1.7 0-1.7-1.3-3-3-3zm0 2c.602 0 1 .398 1 1s-.398 1-1 1-1-.398-1-1 .398-1 1-1zm8 0c.602 0 1 .398 1 1s-.398 1-1 1-1-.398-1-1 .398-1 1-1zM2 13v16h28V13H18.242l-2.762 3H17v-1h9.09a1.44 1.44 0 0 0-.09.5 1.5 1.5 0 0 0 1.5 1.5c.172 0 .34-.031.5-.09v8.18a1.451 1.451 0 0 0-.5-.09 1.5 1.5 0 0 0-1.5 1.5c0 .172.031.34.09.5H17v-1h-2v1H5.914A1.5 1.5 0 0 0 4.5 25c-.172 0-.34.031-.5.09v-8.18c.16.059.328.09.5.09a1.5 1.5 0 0 0 1.414-2h2.29l.323-.355L10.043 13zm13 4.137a3.91 3.91 0 0 0-.89.351l-1.782 1.934A4.057 4.057 0 0 0 12 21a3.936 3.936 0 0 0 3 3.863V24h2v.863A3.936 3.936 0 0 0 20 21a3.936 3.936 0 0 0-3-3.863V18h-2zM8 19.5a1.5 1.5 0 1 0 0 3 1.5 1.5 0 0 0 0-3zm16 0a1.5 1.5 0 1 0 0 3 1.5 1.5 0 0 0 0-3zm-9 .5h2v2h-2z"/></svg>