<svg xmlns="http://www.w3.org/2000/svg" viewBox="0 0 64 64"><path d="M49.352 5.648c-1.512-3-6.293-3.886-9.313-2-3.02 1.891-2.82 6-2.82 6L23.199 23l6.922.36 6.48-4.81 3.2-2.902s2.62 2.063 7.82-.226c5.2-2.293 3.238-6.711 1.73-9.774zM46.16 11.77a2.999 2.999 0 1 1-4.242-4.243 2.995 2.995 0 0 1 4.242.004 3.001 3.001 0 0 1 0 4.239z" fill="#b5c4e0"/><path d="M3 23h58a2 2 0 0 1 2 2v32a2 2 0 0 1-2 2H3a2 2 0 0 1-2-2V25a2 2 0 0 1 2-2z" fill="#72caaf"/><path d="M3 23h58a2 2 0 0 1 2 2v1a3 3 0 0 1-3 3H4a3 3 0 0 1-3-3v-1a2 2 0 0 1 2-2z" fill="#97e0bb"/><path d="M40.8 41c0-6.074-3.94-11-8.8-11-4.86 0-8.8 4.926-8.8 11s3.94 11 8.8 11c4.86 0 8.8-4.926 8.8-11z" fill="#bbdef9"/><path d="M12 41a3 3 0 1 1-6.002-.002A3 3 0 0 1 12 41zm46 0a3 3 0 1 1-6.002-.002A3 3 0 0 1 58 41z" fill="#fadb6f"/><path d="M48.29 30.82L27 9.531A6.986 6.986 0 0 0 25.262 5 7.122 7.122 0 0 0 20.3 2.676a7.117 7.117 0 0 0-5.14 1.894 7.001 7.001 0 0 0 9 10.66l24.1 24.098a6.002 6.002 0 0 0 0-8.488zM22.12 11.73a3.004 3.004 0 0 1-4.246 0 2.999 2.999 0 0 1 0-4.242 3.004 3.004 0 0 1 4.246 0 3.006 3.006 0 0 1 0 4.242z" fill="#ced8ed"/><path d="M32 51.27c4.422 0 9-5.739 9-11.27.008-1.86-.426-3.7-1.262-5.36l-12 15.11A6.831 6.831 0 0 0 32 51.27zM26.129 48l12.23-15.41a8.182 8.182 0 0 0-1.789-1.531l-11.68 14.77c.325.773.739 1.5 1.239 2.171zm-1.809-4l10.81-13.629a6.516 6.516 0 0 0-.82-.223L24.129 43c.05.352.11.691.191 1z" fill="#def0ff"/><path d="M61 22H40.879l-3.18-3.18L40 16.54a7.996 7.996 0 0 0 12.063-6.977A7.987 7.987 0 0 0 49.59 3.87a8.1 8.1 0 0 0-5.88-2.17 7.94 7.94 0 0 0-7.651 7.45l-4 4L28 9.101a7.988 7.988 0 0 0-2-4.782 8.12 8.12 0 0 0-5.668-2.66 8.127 8.127 0 0 0-5.871 2.168 8.01 8.01 0 0 0-2.465 5.692 8.024 8.024 0 0 0 2.344 5.742 8.002 8.002 0 0 0 9.71 1.238l2.329 2.32-3.098 3.102a.537.537 0 0 0-.05.078H3a3 3 0 0 0-3 3v32a3 3 0 0 0 3 3h58a3 3 0 0 0 3-3V25a3 3 0 0 0-3-3zM37.75 10.281c.188-.187.297-.437.3-.703a5.996 5.996 0 0 1 4.49-5.75 5.999 5.999 0 0 1 6.722 2.832 6.003 6.003 0 0 1-8.801 7.79 1.005 1.005 0 0 0-1.313.09l-2.859 2.87-2.828-2.832zM24.898 14.5a.98.98 0 0 0-.707-.29 1 1 0 0 0-.601.2 6 6 0 1 1-1.262-10.336A5.994 5.994 0 0 1 26 9.54a.99.99 0 0 0 .29.7l4.339 4.34L32 16l4.25 4.25 1.8 1.75 2 2 7.528 7.531a4.992 4.992 0 0 1 .64 6.29L37.739 27.34l-.066-.07L34.398 24l-2.347-2.352-2.832-2.828zm2.903 5.738L29.559 22H26zM62 57c0 .55-.45 1-1 1H3c-.55 0-1-.45-1-1V25c0-.55.45-1 1-1h28.57L36 28.43v1.629a8.404 8.404 0 0 0-3-1V28c0-.55-.45-1-1-1s-1 .45-1 1v1.059a8.404 8.404 0 0 0-3 1c-3 1 0 0 0-.059v-2c0-.55-.45-1-1-1s-1 .45-1 1v2c.004.426.277.805.68.941A12.83 12.83 0 0 0 22.2 41a12.83 12.83 0 0 0 4.48 10.059A1.005 1.005 0 0 0 26 52v2c0 .55.45 1 1 1s1-.45 1-1v-2.059c.926.52 1.945.86 3 1V54c0 .55.45 1 1 1s1-.45 1-1v-1.059a8.404 8.404 0 0 0 3-1c3-1 0 0 0 .059v2c0 .55.45 1 1 1s1-.45 1-1v-2a1.005 1.005 0 0 0-.68-.941A12.83 12.83 0 0 0 41.8 41a12.83 12.83 0 0 0-4.48-10.059c.278-.093.5-.308.61-.582L47.578 40A.993.993 0 0 0 49 40a6.997 6.997 0 0 0 0-9.898L42.879 24H61c.55 0 1 .45 1 1zm-30-6c-4.3 0-7.8-4.488-7.8-10s3.5-10 7.8-10 7.8 4.488 7.8 10-3.5 10-7.8 10z" fill="#8d6c9f"/><path d="M22 31c.55 0 1-.45 1-1v-2c0-.55-.45-1-1-1s-1 .45-1 1v2c0 .55.45 1 1 1zm-5-4c-.55 0-1 .45-1 1v2c0 .55.45 1 1 1s1-.45 1-1v-2c0-.55-.45-1-1-1zm0 24c-.55 0-1 .45-1 1v2c0 .55.45 1 1 1s1-.45 1-1v-2c0-.55-.45-1-1-1zm5 0c-.55 0-1 .45-1 1v2c0 .55.45 1 1 1s1-.45 1-1v-2c0-.55-.45-1-1-1zm20 0c-.55 0-1 .45-1 1v2c0 .55.45 1 1 1s1-.45 1-1v-2c0-.55-.45-1-1-1zm5 0c-.55 0-1 .45-1 1v2c0 .55.45 1 1 1s1-.45 1-1v-2c0-.55-.45-1-1-1zM12 28H7c-.55 0-1 .45-1 1s.45 1 1 1h5c.55 0 1-.45 1-1s-.45-1-1-1zm0 24H7c-.55 0-1 .45-1 1s.45 1 1 1h5c.55 0 1-.45 1-1s-.45-1-1-1zm40-22h5c.55 0 1-.45 1-1s-.45-1-1-1h-5c-.55 0-1 .45-1 1s.45 1 1 1zm5 22h-5c-.55 0-1 .45-1 1s.45 1 1 1h5c.55 0 1-.45 1-1s-.45-1-1-1zM9 37c-2.21 0-4 1.79-4 4s1.79 4 4 4 4-1.79 4-4-1.79-4-4-4zm0 6a1.999 1.999 0 1 1 0-4 1.999 1.999 0 1 1 0 4zm46-6c-2.21 0-4 1.79-4 4s1.79 4 4 4 4-1.79 4-4-1.79-4-4-4zm0 6a1.999 1.999 0 1 1 0-4 1.999 1.999 0 1 1 0 4zM44 13.648a3.999 3.999 0 0 0 1.523-7.695A4 4 0 1 0 44 13.648zm-1.371-5.41a2.003 2.003 0 0 1 2.828.004 2 2 0 1 1-3.414 1.414c0-.531.21-1.043.586-1.418zM17.172 6.781a3.999 3.999 0 1 0 5.656 5.657 3.999 3.999 0 0 0 0-5.657A3.985 3.985 0 0 0 20 5.605a3.985 3.985 0 0 0-2.828 1.176zM21.422 11a2.014 2.014 0 0 1-1.418.586 1.999 1.999 0 0 1-1.414-3.414 2 2 0 0 1 2.828 0c.781.781.781 2.047.004 2.828z" fill="#8d6c9f"/></svg>