<svg xmlns="http://www.w3.org/2000/svg" viewBox="0 0 64 64"><linearGradient id="a" gradientUnits="userSpaceOnUse" x1="32" y1="19.25" x2="32" y2="29.648" spreadMethod="reflect"><stop offset="0" stop-color="#6dc7ff"/><stop offset="1" stop-color="#e6abff"/></linearGradient><rect x="8" y="22" width="48" height="4" fill="url(#a)"/><linearGradient id="b" gradientUnits="userSpaceOnUse" x1="32" y1="9" x2="32" y2="55.445" spreadMethod="reflect"><stop offset="0" stop-color="#1a6dff"/><stop offset="1" stop-color="#c822ff"/></linearGradient><path d="M55 14H9c-1.654 0-3 1.346-3 3v34c0 1.654 1.346 3 3 3h46c1.654 0 3-1.346 3-3V17c0-1.654-1.346-3-3-3zm1 12H8v-4h48v4zM9 16h46a1 1 0 0 1 1 1v3H8v-3a1 1 0 0 1 1-1zm46 36H9a1 1 0 0 1-1-1v-1.184c.314.112.648.184 1 .184h46c.352 0 .686-.072 1-.184V51a1 1 0 0 1-1 1zm1-5a1 1 0 0 1-1 1H9a1 1 0 0 1-1-1V28h48v19z" fill="url(#b)"/><linearGradient id="c" gradientUnits="userSpaceOnUse" x1="32" y1="9" x2="32" y2="55.445" spreadMethod="reflect"><stop offset="0" stop-color="#1a6dff"/><stop offset="1" stop-color="#c822ff"/></linearGradient><rect x="9" y="10" width="46" height="2" fill="url(#c)"/><linearGradient id="d" gradientUnits="userSpaceOnUse" x1="32" y1="9" x2="32" y2="55.445" spreadMethod="reflect"><stop offset="0" stop-color="#1a6dff"/><stop offset="1" stop-color="#c822ff"/></linearGradient><path d="M52 30H12c-1.103 0-2 .897-2 2v10c0 1.103.897 2 2 2h40c1.103 0 2-.897 2-2V32c0-1.103-.897-2-2-2zm0 12H12V32h40v10z" fill="url(#d)"/><linearGradient id="e" gradientUnits="userSpaceOnUse" x1="19" y1="9" x2="19" y2="55.445" spreadMethod="reflect"><stop offset="0" stop-color="#1a6dff"/><stop offset="1" stop-color="#c822ff"/></linearGradient><rect x="14" y="34" width="10" height="2" fill="url(#e)"/><linearGradient id="f" gradientUnits="userSpaceOnUse" x1="45" y1="9" x2="45" y2="55.445" spreadMethod="reflect"><stop offset="0" stop-color="#1a6dff"/><stop offset="1" stop-color="#c822ff"/></linearGradient><rect x="40" y="34" width="10" height="2" fill="url(#f)"/><linearGradient id="g" gradientUnits="userSpaceOnUse" x1="19" y1="9" x2="19" y2="55.445" spreadMethod="reflect"><stop offset="0" stop-color="#1a6dff"/><stop offset="1" stop-color="#c822ff"/></linearGradient><rect x="14" y="38" width="10" height="2" fill="url(#g)"/><linearGradient id="h" gradientUnits="userSpaceOnUse" x1="45" y1="9" x2="45" y2="55.445" spreadMethod="reflect"><stop offset="0" stop-color="#1a6dff"/><stop offset="1" stop-color="#c822ff"/></linearGradient><rect x="40" y="38" width="10" height="2" fill="url(#h)"/><linearGradient id="i" gradientUnits="userSpaceOnUse" x1="32" y1="9" x2="32" y2="55.445" spreadMethod="reflect"><stop offset="0" stop-color="#1a6dff"/><stop offset="1" stop-color="#c822ff"/></linearGradient><rect x="26" y="34" width="12" height="2" fill="url(#i)"/><linearGradient id="j" gradientUnits="userSpaceOnUse" x1="32" y1="9" x2="32" y2="55.445" spreadMethod="reflect"><stop offset="0" stop-color="#1a6dff"/><stop offset="1" stop-color="#c822ff"/></linearGradient><rect x="26" y="38" width="12" height="2" fill="url(#j)"/></svg>