<svg xmlns="http://www.w3.org/2000/svg" viewBox="0 0 64 64"><path d="M61 11v42c0 1.102-.898 2-2 2H5c-1.102 0-2-.898-2-2V11c0-1.102.898-2 2-2h54c1.102 0 2 .898 2 2z" fill="#85cbf8"/><path d="M61 52.621V53c0 1.102-.898 2-2 2H5c-1.102 0-2-.898-2-2v-.379a3 3 0 0 1 3-3h52a3 3 0 0 1 3 3z" fill="#7bbeeb"/><path d="M25 37.16V24.84c0-.793-.879-1.274-1.543-.844L13.93 30.16a1 1 0 0 0 0 1.68L23.457 38A1 1 0 0 0 25 37.16zm14 0V24.84c0-.793.879-1.274 1.543-.844l9.527 6.164a1 1 0 0 1 0 1.68L40.543 38A1 1 0 0 1 39 37.16z" fill="#fff7f0"/><path d="M59 8H5c-1.652 0-3 1.348-3 3v42c0 1.652 1.348 3 3 3h54c1.652 0 3-1.348 3-3V11c0-1.652-1.348-3-3-3zm1 45c0 .55-.45 1-1 1H5c-.55 0-1-.45-1-1V11c0-.55.45-1 1-1h54c.55 0 1 .45 1 1z" fill="#8d6c9f"/><path d="M7 48a1 1 0 0 0-1 1v2a1 1 0 1 0 2 0v-2a1 1 0 0 0-1-1zm5 0a1 1 0 0 0-1 1v2a1 1 0 1 0 2 0v-2a1 1 0 0 0-1-1zm5 0a1 1 0 0 0-1 1v2a1 1 0 1 0 2 0v-2a1 1 0 0 0-1-1zm5 0a1 1 0 0 0-1 1v2a1 1 0 1 0 2 0v-2a1 1 0 0 0-1-1zm5 0a1 1 0 0 0-1 1v2a1 1 0 1 0 2 0v-2a1 1 0 0 0-1-1zm5 0a1 1 0 0 0-1 1v2a1 1 0 1 0 2 0v-2a1 1 0 0 0-1-1zm5 0a1 1 0 0 0-1 1v2a1 1 0 1 0 2 0v-2a1 1 0 0 0-1-1zm5 0a1 1 0 0 0-1 1v2a1 1 0 1 0 2 0v-2a1 1 0 0 0-1-1zm5 0a1 1 0 0 0-1 1v2a1 1 0 1 0 2 0v-2a1 1 0 0 0-1-1zm5 0a1 1 0 0 0-1 1v2a1 1 0 1 0 2 0v-2a1 1 0 0 0-1-1zm5 0a1 1 0 0 0-1 1v2a1 1 0 1 0 2 0v-2a1 1 0 0 0-1-1zM26 24.836a1.999 1.999 0 0 0-3.086-1.68l-9.527 6.164a1.987 1.987 0 0 0-.914 1.68c0 .684.34 1.309.914 1.68l9.527 6.164c.328.21.707.32 1.086.32a1.999 1.999 0 0 0 2-2zM24 37.16L14.473 31 24 24.836zm26.613-7.84l-9.527-6.164A1.999 1.999 0 0 0 38 24.836V37.16c0 .735.398 1.406 1.047 1.758.297.164.625.242.953.242a1.98 1.98 0 0 0 1.086-.32l9.527-6.16c.575-.371.914-1 .914-1.68 0-.684-.34-1.309-.914-1.68zM40 37.168V24.84L49.527 31z" fill="#8d6c9f"/></svg>