<?xml version="1.0" encoding="utf-8"?>
<!-- Generator: Adobe Illustrator 22.0.1, SVG Export Plug-In . SVG Version: 6.00 Build 0)  -->
<svg version="1.1" xmlns="http://www.w3.org/2000/svg" xmlns:xlink="http://www.w3.org/1999/xlink" x="0px" y="0px"
	 viewBox="0 0 130.2 187.7" style="enable-background:new 0 0 130.2 187.7;" xml:space="preserve">
<style type="text/css">
	.st0{fill:#FAFEFE;}
	.st1{fill-rule:evenodd;clip-rule:evenodd;fill:#142626;}
	.st2{opacity:0.5;fill:#49A88C;}
	.st3{fill:#244647;}
	.st4{fill:#246B59;}
	.st5{fill:#49A88C;}
	.st6{fill-rule:evenodd;clip-rule:evenodd;fill:#98D19E;}
	.st7{fill-rule:evenodd;clip-rule:evenodd;fill:#49A88C;}
	.st8{fill-rule:evenodd;clip-rule:evenodd;fill:#F7CB5B;}
	.st9{fill-rule:evenodd;clip-rule:evenodd;fill:#FAFEFE;}
	.st10{fill-rule:evenodd;clip-rule:evenodd;fill:#E44224;}
	.st11{fill-rule:evenodd;clip-rule:evenodd;fill:#F97432;}
	.st12{opacity:0.5;fill-rule:evenodd;clip-rule:evenodd;fill:#244647;}
	.st13{fill:#142626;}
	.st14{clip-path:url(#SVGID_2_);}
	.st15{fill:#F7CB5B;}
	.st16{fill:#E44224;}
	.st17{fill:#F97432;}
	.st18{fill-rule:evenodd;clip-rule:evenodd;fill:#246B59;}
	.st19{fill-rule:evenodd;clip-rule:evenodd;fill:#244647;}
	.st20{opacity:0.5;fill-rule:evenodd;clip-rule:evenodd;fill:#49A88C;}
	.st21{fill:#98D19E;}
	.st22{fill-rule:evenodd;clip-rule:evenodd;fill:#FFFFFF;}
	.st23{clip-path:url(#SVGID_4_);}
	.st24{fill-rule:evenodd;clip-rule:evenodd;fill:none;}
	.st25{opacity:0.5;fill-rule:evenodd;clip-rule:evenodd;fill:none;}
	
		.st26{clip-path:url(#SVGID_6_);fill-rule:evenodd;clip-rule:evenodd;fill:none;stroke:#FFFFFF;stroke-width:3;stroke-miterlimit:10;}
	
		.st27{clip-path:url(#SVGID_6_);fill-rule:evenodd;clip-rule:evenodd;fill:none;stroke:#246B59;stroke-width:3;stroke-miterlimit:10;}
	
		.st28{clip-path:url(#SVGID_6_);fill-rule:evenodd;clip-rule:evenodd;fill:none;stroke:#98D19E;stroke-width:3;stroke-miterlimit:10;}
	
		.st29{clip-path:url(#SVGID_6_);fill-rule:evenodd;clip-rule:evenodd;fill:none;stroke:#F7CB5B;stroke-width:3;stroke-miterlimit:10;}
	
		.st30{clip-path:url(#SVGID_6_);fill-rule:evenodd;clip-rule:evenodd;fill:none;stroke:#F97432;stroke-width:3;stroke-miterlimit:10;}
	.st31{fill:#CECECE;}
</style>
<g id="BACKGROUND">
</g>
<g id="OBJECTS">
	<g>
		<rect x="55.4" y="162.4" class="st1" width="18.9" height="22.9"/>
		<path class="st12" d="M55.4,174.1c0,0,8.4,4.3,18.9,0c0-4.2,0-4.9,0-4.9l-18.8,1.5V174.1z"/>
		<path class="st13" d="M65.1,29.1c0,0-8.6,98.3-65.1,117.9c65.1,57.7,130.2,0,130.2,0C73.7,127.4,65.1,29.1,65.1,29.1z"/>
		<path class="st12" d="M33.1,121.6c0,0,5.6,10.6,30.8,10.6c25.2,0,32.9-11.2,32.9-11.2L33.1,121.6z"/>
		<path class="st3" d="M65.1,24.9c0,0-6.2,71.5-47.4,85.8c47.4,42,94.7,0,94.7,0C71.3,96.4,65.1,24.9,65.1,24.9z"/>
		<path class="st12" d="M46.1,85.9c0,0,4.7,6.4,17.9,6.4c13.2,0,19.8-6.8,19.8-6.8L46.1,85.9z"/>
		<path class="st4" d="M65.1,21c0,0-4.1,47.2-31.3,56.7c31.3,27.7,62.6,0,62.6,0C69.2,68.2,65.1,21,65.1,21z"/>
		<polygon class="st11" points="64.8,0 69.8,10.1 81,11.8 72.9,19.6 74.8,30.8 64.8,25.5 54.8,30.8 56.7,19.6 48.6,11.8 59.8,10.1 
					"/>
		<polygon class="st8" points="54.8,30.8 65.1,15.4 64.8,0 59.8,10.1 48.6,11.8 56.7,19.6 		"/>
		<g>
			<defs>
				<path id="SVGID_1_" d="M96.7,120.9c9.8-4.9,15.8-10.2,15.8-10.2c-12.5-4.3-21.8-14-28.6-25.3c7.7-3.5,12.6-7.8,12.6-7.8
					C69.2,68.2,65.1,21,65.1,21S61,68.2,33.8,77.7c4.1,3.6,8.2,6.3,12.3,8.2c-6.8,11.1-16,20.5-28.3,24.8
					c5.1,4.5,10.3,8.1,15.3,10.8C24.5,133,13.6,142.3,0,147c65.1,57.7,130.2,0,130.2,0C116.3,142.2,105.3,132.6,96.7,120.9z"/>
			</defs>
			<clipPath id="SVGID_2_">
				<use xlink:href="#SVGID_1_"  style="overflow:visible;"/>
			</clipPath>
			<g class="st14">
				<g>
					<path class="st15" d="M92.9,70.9c-34.3,0-55.5-23.1-55.8-23.4l2.5-2.2c0.3,0.3,25.5,27.6,65,21.4l0.5,3.3
						C100.8,70.6,96.8,70.9,92.9,70.9z"/>
				</g>
				<g>
					<path class="st16" d="M78.2,146.6c-15.2,0-28.3-2.8-38.5-5.9c-20.5-6.4-32.9-15.6-33.4-16l2-2.7c0.1,0.1,12.6,9.3,32.6,15.5
						c18.4,5.7,47.1,10.1,79.4-1.8l1.1,3.1C105.9,144.5,91.3,146.6,78.2,146.6z"/>
				</g>
				<g>
					<path class="st17" d="M49.9,104.4c-1.6,0-3.1,0-4.5-0.1c-17.8-0.7-29.8-5.4-30.3-5.6l1.2-3.1c0.5,0.2,47.7,18.4,92.3-13
						l1.9,2.7C88.6,100.8,66.2,104.4,49.9,104.4z"/>
				</g>
			</g>
		</g>
		<path class="st6" d="M41.2,78.2c0,0,21.2,16.3,50.6,0C68.8,94.9,46.4,85.2,41.2,78.2z"/>
		<path class="st18" d="M24.9,111.2c0,0,33.2,25.6,79.2,0C68.2,137.5,33.1,122.3,24.9,111.2z"/>
		<path class="st6" d="M10.6,147.3c0,0,47,36.2,112,0C71.8,184.4,22.2,162.8,10.6,147.3z"/>
	</g>
</g>
<g id="TEXTURE">
</g>
<g id="DESIGNED_BY_FREEPIK">
</g>
</svg>
