<svg xmlns="http://www.w3.org/2000/svg" viewBox="0 0 16 16"><path style="line-height:normal;text-indent:0;text-align:start;text-decoration-line:none;text-decoration-style:solid;text-decoration-color:#000;text-transform:none;block-progression:tb;isolation:auto;mix-blend-mode:normal" d="M3.5 2C2.677 2 2 2.677 2 3.5V8h1V3.5c0-.281.219-.5.5-.5h9c.281 0 .5.219.5.5v9c0 .281-.219.5-.5.5H12v1h.5c.823 0 1.5-.677 1.5-1.5v-9c0-.823-.677-1.5-1.5-1.5h-9zM2 9v5h1V9H2zm3.5 0C4.677 9 4 9.677 4 10.5h1c0-.281.219-.5.5-.5s.5.219.5.5c0 .024-.073.278-.24.555a8.186 8.186 0 0 1-.647.89 16.946 16.946 0 0 1-.967 1.076L4 13.168V14h3v-1H5.508c.164-.181.189-.19.379-.422.259-.316.52-.663.728-1.006C6.823 11.23 7 10.91 7 10.5 7 9.677 6.323 9 5.5 9zm4 1c-.823 0-1.5.677-1.5 1.5v1c0 .823.677 1.5 1.5 1.5s1.5-.677 1.5-1.5h-1c0 .281-.219.5-.5.5a.493.493 0 0 1-.5-.5v-1c0-.281.219-.5.5-.5s.5.219.5.5h1c0-.823-.677-1.5-1.5-1.5z" font-weight="400" font-family="sans-serif" white-space="normal" overflow="visible"/></svg>