<svg xmlns="http://www.w3.org/2000/svg" viewBox="0 0 16 16"><path style="line-height:normal;text-indent:0;text-align:start;text-decoration-line:none;text-decoration-style:solid;text-decoration-color:#000;text-transform:none;block-progression:tb;isolation:auto;mix-blend-mode:normal" d="M4.5 2C3.677 2 3 2.677 3 3.5V8h1V3.5c0-.281.219-.5.5-.5H9v3h3v2h1V5.293L9.707 2H4.5zM10 3.707L11.293 5H10V3.707zM4.5 9C3.677 9 3 9.677 3 10.5V14h1v-1.002l1-.002V14h1v-3.5C6 9.677 5.323 9 4.5 9zM7 9l1 5h1l1-5H9l-.5 2.875L8 9H7zm4 0v5h1V9h-1zm-6.5 1c.281 0 .5.219.5.5v1.496l-1 .002V10.5c0-.281.219-.5.5-.5z" font-weight="400" font-family="sans-serif" white-space="normal" overflow="visible"/></svg>