<svg xmlns="http://www.w3.org/2000/svg" viewBox="0 0 16 16"><path style="line-height:normal;text-indent:0;text-align:start;text-decoration-line:none;text-decoration-style:solid;text-decoration-color:#000;text-transform:none;block-progression:tb;isolation:auto;mix-blend-mode:normal" d="M4.475 2c-.823 0-1.5.677-1.5 1.5v9c0 .823.677 1.5 1.5 1.5h3.5v-1h-3.5a.493.493 0 0 1-.5-.5v-9c0-.281.218-.5.5-.5h4.5v3h3v1h1V5.293L9.682 2H4.475zm5.5 1.707L11.268 5H9.975V3.707zM12.002 8l-1.236 2.633-2.764.422 2 2.05L9.529 16l2.473-1.367L14.472 16 14 13.105l2-2.048-2.764-.422L12.002 8z" font-weight="400" font-family="sans-serif" white-space="normal" overflow="visible"/></svg>