<svg xmlns="http://www.w3.org/2000/svg" viewBox="0 0 16 16"><path style="line-height:normal;text-indent:0;text-align:start;text-decoration-line:none;text-decoration-style:solid;text-decoration-color:#000;text-transform:none;block-progression:tb;isolation:auto;mix-blend-mode:normal" d="M1.5 2C.677 2 0 2.677 0 3.5V7h1V3.5c0-.281.219-.5.5-.5h4.172c.417 0 .812.144 1.031.406l.254.367.148.227h.79l.148-.227s.246-.358.254-.367C8.515 3.146 8.91 3 9.328 3H13.5c.281 0 .5.219.5.5v8c0 .281-.219.5-.5.5H12v1h1.5c.823 0 1.5-.677 1.5-1.5v-8c0-.823-.677-1.5-1.5-1.5H9.328c-.642 0-1.335.213-1.797.766H7.53c-.014.016-.015.023-.029.04-.014-.017-.015-.024-.03-.04H7.47C7.006 2.214 6.314 2 5.672 2H1.5zm0 6C.677 8 0 8.677 0 9.5v2c0 .823.677 1.5 1.5 1.5S3 12.323 3 11.5H2c0 .281-.219.5-.5.5a.493.493 0 0 1-.5-.5v-2c0-.281.219-.5.5-.5s.5.219.5.5h1C3 8.677 2.323 8 1.5 8zM4 8v5h1.5c.823 0 1.5-.677 1.5-1.5 0-.388-.17-.732-.416-1 .246-.268.416-.612.416-1C7 8.677 6.323 8 5.5 8H4zm4 0v5h1v-1.459L9.875 13H11l-1.217-2.03A1.508 1.508 0 0 0 11 9.5c0-.823-.677-1.5-1.5-1.5H8zM5 9h.5c.281 0 .5.219.5.5s-.219.5-.5.5H5V9zm4 0h.5c.281 0 .5.219.5.5s-.219.5-.5.5H9V9zm-4 2h.5c.281 0 .5.219.5.5s-.219.5-.5.5H5v-1z" font-weight="400" font-family="sans-serif" white-space="normal" overflow="visible"/></svg>