<svg xmlns="http://www.w3.org/2000/svg" viewBox="0 0 64 64"><path d="M54.344 2.04c-1.035 0-2.07.374-2.828 1.132l-2.778 2.773-.004.004-.457.461-.297.297v.004l-1.355 1.355A1.044 1.044 0 0 0 46.297 8H5c-1.652 0-3 1.348-3 3v46c0 1.652 1.348 3 3 3h46c1.652 0 3-1.348 3-3V23.324l5.297-5.304 3.531-3.536A3.965 3.965 0 0 0 64 11.656a3.965 3.965 0 0 0-1.172-2.828l-5.656-5.656c-.754-.754-1.793-1.133-2.828-1.133zm0 1.98c.52 0 1.035.187 1.414.566l5.656 5.656c.379.38.586.88.586 1.414 0 .535-.207 1.035-.586 1.414l-2.828 2.828-8.484-8.484 2.828-2.828a1.99 1.99 0 0 1 1.414-.566zm-5.657 4.808l8.485 8.485-1.418 1.421a.996.996 0 0 0-1.39.016l-1.41 1.414a.998.998 0 0 0-.017 1.395l-1.417 1.418-8.485-8.485zM5 10h39.691l-3.738 3.75c-.016.012-.031.016-.047.031-.011.012-.015.031-.031.047L21.137 33.61a.96.96 0 0 0-.285.59l-.73 6.309-.712 4.949c-.043.313.063.625.281.852.192.187.446.289.711.289.047 0 .094 0 .141-.008l4.922-.703 6.383-.676a1.01 1.01 0 0 0 .605-.29L52 25.329V57c0 .55-.45 1-1 1H5c-.55 0-1-.45-1-1V11c0-.55.45-1 1-1zm43 1.387a.991.991 0 0 0-.703.293l-1.418 1.414a1 1 0 0 0 .71 1.707 1 1 0 0 0 .708-.293l1.41-1.414A1 1 0 0 0 48 11.387zM10 14c-1.102 0-2 .898-2 2v36c0 1.102.898 2 2 2h3a1 1 0 1 0 0-2h-3V16h25.332a1 1 0 1 0 0-2zm41.535.922a1 1 0 0 0-.707.293l-1.414 1.414a1 1 0 1 0 1.414 1.414l1.414-1.414a1 1 0 0 0-.707-1.707zm-9.91.984l8.484 8.485-17.656 17.691-.45-4.363a1.003 1.003 0 0 0-.995-.899H29.18v-1.414l5.367-5.363c.39-.395.39-1.023 0-1.418a1.004 1.004 0 0 0-1.418 0l-5.316 5.32-3.793-.398zm-2.129 6.77c-.258 0-.512.097-.71.293l-2.829 2.828c-.39.39-.39 1.023 0 1.418a1.006 1.006 0 0 0 1.414 0l2.832-2.828a1.004 1.004 0 0 0-.707-1.711zM47 34.082a1 1 0 0 0-1 1V52h-3a1 1 0 1 0 0 2h3c1.102 0 2-.898 2-2V35.082a1 1 0 0 0-1-1zm-24.277 1.34l4.457.469v1.925a1 1 0 0 0 1 1.004h1.93l.464 4.512-4.855.512-3.563-3.563zM18 50a1 1 0 0 0-1 1v2a1 1 0 1 0 2 0v-2a1 1 0 0 0-1-1zm5 0a1 1 0 0 0-1 1v2a1 1 0 1 0 2 0v-2a1 1 0 0 0-1-1zm5 0a1 1 0 0 0-1 1v2a1 1 0 1 0 2 0v-2a1 1 0 0 0-1-1zm5 0a1 1 0 0 0-1 1v2a1 1 0 1 0 2 0v-2a1 1 0 0 0-1-1zm5 0a1 1 0 0 0-1 1v2a1 1 0 1 0 2 0v-2a1 1 0 0 0-1-1z"/></svg>