<svg xmlns="http://www.w3.org/2000/svg" viewBox="0 0 16 16"><path style="line-height:normal;text-indent:0;text-align:start;text-decoration-line:none;text-decoration-style:solid;text-decoration-color:#000;text-transform:none;block-progression:tb;isolation:auto;mix-blend-mode:normal" d="M4.5 2C3.677 2 3 2.677 3 3.5V8h1V3.5c0-.281.219-.5.5-.5H9v3h3v2h1V5.293L9.707 2H4.5zM10 3.707L11.293 5H10V3.707zM2 9v5h1.5c.823 0 1.5-.677 1.5-1.5v-2C5 9.677 4.323 9 3.5 9H2zm5.5 0C6.677 9 6 9.677 6 10.5V14h1v-3.5c0-.281.219-.5.5-.5s.5.219.5.5V14h1v-3.5c0-.281.219-.5.5-.5s.5.219.5.5V14h1v-3.5c0-.823-.677-1.5-1.5-1.5-.384 0-.733.151-1 .393A1.488 1.488 0 0 0 7.5 9zm6 0c-.823 0-1.5.677-1.5 1.5v2c0 .823.677 1.5 1.5 1.5s1.5-.677 1.5-1.5V12h-1.5v1a.493.493 0 0 1-.5-.5v-2c0-.281.219-.5.5-.5s.5.219.5.5h1c0-.823-.677-1.5-1.5-1.5zM3 10h.5c.281 0 .5.219.5.5v2c0 .281-.219.5-.5.5H3v-3z" font-weight="400" font-family="sans-serif" white-space="normal" overflow="visible"/></svg>