<svg xmlns="http://www.w3.org/2000/svg" viewBox="0 0 16 16"><path style="line-height:normal;text-indent:0;text-align:start;text-decoration-line:none;text-decoration-style:solid;text-decoration-color:#000;text-transform:none;block-progression:tb;isolation:auto;mix-blend-mode:normal" d="M4.5 2C3.677 2 3 2.677 3 3.5V8h1V3.5c0-.281.219-.5.5-.5H9v3h3v2h1V5.293L9.707 2H4.5zM10 3.707L11.293 5H10V3.707zM3 9v5h3v-1H4v-1h1v-1H4v-1h2V9H3zm4 0l1 2.5L7 14h1l.5-1.25L9 14h1l-1-2.5L10 9H9l-.5 1.25L8 9H7zm4 0v5h3v-1h-2v-1h1v-1h-1v-1h2V9h-3z"/></svg>