<svg xmlns="http://www.w3.org/2000/svg" viewBox="0 0 16 16"><path style="line-height:normal;text-indent:0;text-align:start;text-decoration-line:none;text-decoration-style:solid;text-decoration-color:#000;text-transform:none;block-progression:tb;isolation:auto;mix-blend-mode:normal" d="M4.5 2C3.677 2 3 2.677 3 3.5V10h1V3.5c0-.281.219-.5.5-.5H9v3h3v3h1V5.293L9.707 2H4.5zM10 3.707L11.293 5H10V3.707zM5.861 7.004a.833.833 0 0 0-.539.182.897.897 0 0 0-.273.441c-.09.302-.07.6-.02.934.073.48.305 1.042.522 1.587-.076.224-.075.398-.168.62-.126.299-.279.467-.424.738-.406.13-.853.226-1.17.418-.275.166-.516.351-.672.642a1.03 1.03 0 0 0 .07 1.016.953.953 0 0 0 .448.365.904.904 0 0 0 .574.008c.34-.106.58-.33.818-.601.225-.258.399-.69.604-1.04.15-.04.24-.106.394-.138.253-.054.421-.029.662-.057.124.148.208.382.344.498.255.216.56.394.938.367.377-.027.702-.3.892-.644l.002-.002.002-.004a.878.878 0 0 0 .11-.52.797.797 0 0 0-.26-.484c-.252-.22-.523-.267-.819-.3-.208-.024-.494.049-.734.058-.177-.265-.348-.423-.506-.754-.036-.076-.038-.141-.072-.219.152-.502.365-1.024.393-1.469.023-.38 0-.732-.165-1.06a1.12 1.12 0 0 0-.95-.582zM12 10v3h-2l2 2 .5.5.5-.5 2-2h-2v-3h-1z" font-weight="400" font-family="sans-serif" white-space="normal" overflow="visible"/></svg>