<svg xmlns="http://www.w3.org/2000/svg" viewBox="0 0 16 16"><path style="line-height:normal;text-indent:0;text-align:start;text-decoration-line:none;text-decoration-style:solid;text-decoration-color:#000;text-transform:none;block-progression:tb;isolation:auto;mix-blend-mode:normal" d="M4.5 2C3.677 2 3 2.677 3 3.5v9c0 .823.677 1.5 1.5 1.5H8v-1H4.5a.493.493 0 0 1-.5-.5v-9c0-.281.219-.5.5-.5H9v3h3v1h1V5.293L9.707 2H4.5zM10 3.707L11.293 5H10V3.707zM12.025 8l-1.236 2.633-2.762.422 2 2.05L9.555 16l2.472-1.367L14.498 16l-.473-2.895 2-2.048-2.761-.422L12.025 8zm0 2.354l.33.705.227.482.53.08.84.129-.641.656-.354.362.082.498.14.863-.667-.371-.485-.268-.484.268-.67.37.143-.862.08-.498-.352-.362-.64-.656.84-.129.527-.08.226-.482.328-.705z" font-weight="400" font-family="sans-serif" white-space="normal" overflow="visible"/></svg>