<?xml version="1.0" encoding="utf-8"?>
<!-- Generator: Adobe Illustrator 21.0.2, SVG Export Plug-In . SVG Version: 6.00 Build 0)  -->
<svg version="1.1" id="C3_T_Frame" xmlns="http://www.w3.org/2000/svg" xmlns:xlink="http://www.w3.org/1999/xlink" x="0px" y="0px"
	 viewBox="0 0 79.7091 83.5049" enable-background="new 0 0 79.7091 83.5049" xml:space="preserve">
<g id="p">
	<path fill="#175FFF" d="M1.1041,68.7041c-0.1001,0.5-0.8003,3.4004-1.1001,3.5c-0.1001-1,1.7002-6.2002,2.3003-7.0996
		C2.004,66.3037,1.4039,67.5049,1.1041,68.7041z M1.7042,72.7041v0.1006H1.6041L1.7042,72.7041z M7.7047,56.0029v0.1006
		c0.0996-0.1006,0.0996-0.1006,0.0996-0.2002H7.7047v-0.0996l0.1997-0.3008v0.4004c0.5-0.6992,1.2002-1.4004,1.4004-2.2002
		c-0.1001-0.0996,0-0.2002,0.0996-0.0996l0.6001-1.4004c0.3999-0.3994,3.3003-6,3.3003-6.501c1-0.5996,1.7002-2.8994,2.3003-4
		l-0.5,0.4004c-0.3003,0.5996-0.6001,1.2002-1.1001,1.5996l-0.1001-0.2988l-0.5,0.7988c0,0.4004-0.3003,0.7012-0.3999,1
		l-0.4004,0.2012l0.2002-0.6006l-0.2998,0.3994h-0.2002c-0.2002,0.4004-0.5,0.8008-0.8003,1.1006v0.1006
		c-0.3999,0.2998-0.5996,0.6992-0.7998,1.0996l-0.3003,0.2002h-0.0996c1.6001-3.001,3.2002-6.001,4.1001-9.2002
		c-0.2002,0.3994-0.3999,0.7988-0.7002,1.0996c2.0005-5.2002,4.9004-10.1006,7.7007-14.9009l0.2998-0.1001
		c0.3003-1,1-2.3003,1.4004-3.2002v-0.2002l0.2998-0.2998l0.1001,0.1001l0.1001-0.2002v-0.1001l0.1997-0.2998
		c0-0.3003,0.1001-0.5,0.2002-0.8003l0.2998-0.2998v-0.1001h0.1001l-0.1997,0.5l0.3999-0.5l-0.2002-0.2002l0.4004-0.6997
		c0,0.1001,0.0996,0.1997,0.0996,0.2998v0.1001l0.2002-0.2002l0.1001-0.5l0.1001-0.2998c0.0996,0.1001,0.1997,0,0.2998-0.2002
		l0.2998-0.3999l0.2002,0.5l-0.6001,0.7002v0.1001c-0.1997,0.3999-2.6001,4.3999-2.6001,4.7002v0.2998
		c1.7002-1.7998,2.8003-4.8003,4.2002-7.0005v-0.2998l0.1001,0.1001l1.1001-2h-0.5l-0.2002,0.0996h-0.1001l0.1001-0.1997
		c-1.8999,0-3.8003-0.2002-5.7002-0.2002c-0.8003,0-1.3999,0.5-2.1001,0.5c-3.7002,0-7.4004-0.5-11.1006-0.5
		c-0.9004,0-1.8003,0.2002-2.7002,0.2002c-1.7002,0-2.3003-8.0005-2.3003-9.4009c0-1,0.1001-2.6001,1.5-2.6001
		c0.5,0,5.4004,2.7002,6.6006,2.7002c0.8999,0,1.7998-0.5,2.7002-0.5c1.5,0,4.6001,0.6001,5.8003-0.2998
		c1.7002,0,3.3003,0.2998,5.0005,0.2998c0.8999,0,1.6001-0.6001,2.5-0.6001c1.2998,0,2.8999,0.6001,4-0.2998
		c1.2002,0,3.1006,0.3999,4.1006-0.4004c1.0996,0,3,0.4004,3.9004-0.2998C46.0069,2.6001,54.5069,0,60.4073,0
		c0.9004,0-6.1992,3.3003-5.3994,2.7002c3.1006-0.4004,6.8008-1.4004,9.9004-1.4004c0.7998,0,1.7002,0.1001,2.5,0.1001
		c0.5-0.2998,1.2002-0.5,1.8008-0.5c1.0996,0,2.0996,0.1001,3.2002,0c0.6992-0.3999,2.2998-0.2998,3.0996-0.2998
		c3.3008,0,4.2002,1,4.2002,4.3003c0,1.2998-0.5,3.8999-2.2002,3.8999c-2.8994,0-6.4004,1.9004-9.1006,1.9004
		c-0.6992,0-1.2998,0.5-2,0.5s-1.2998-0.2002-1.8994,0.2998c-4.3008,0.3003-2.3008,0.0005-6.4014,0.0005
		c-0.7998,0-1.5996,0.5-2.4004,0.5c-0.7998,0-1.7002-0.4004-2.3994,0.2998l-0.3008,0.1001c-1.7002-0.3003-8.4004,1.2998-11,1.2998
		c-0.8008,0-1.6006-0.3999-2.3008,0.1001c0.6006,0.6001,1.1006,1.3003,1.1006,2.1001c0,2.1001-2.1006,3.4004-2.1006,5.6006
		c-1.5996,2.8003-13.3008,25.4019-13.5005,26.8022c-1.7002,4.3994-12.6011,23.4004-12.6011,25.501
		c-0.5996,1.2998-2,3.1006-2.1001,4.5c-1.1997,1.9004-2.7998,3.4004-4.3003,5.1006c-0.5996,0-1.1001,0.0996-1.6997,0.0996
		c-1.0005,0-2.7002-0.0996-2.7002-1.5c0-3.2002,0.2998-6.5,0.5-9.7002c0-0.7998,0.6997-1.2998,0.6997-2.1006v-0.9004l-0.1997,0.1006
		v0.7998l-0.3999,0.3008c0.0996-0.3008,0.2998-1.5,0.5996-1.6006l-0.0996-0.5l0.3999-0.7002l0.1001,0.2002v0.3994l0.1997-0.5
		v-0.1992c0,0-0.1997-0.2002-0.2998-0.2002c0.5-1,1.6001-3.9004,1.7998-4.9004c0.8003-0.7998,0.4004-2.2002,1.0005-2.6006
		c0.1997-0.1992,0.3999-0.3994,0.5-0.6992v-0.1006l0.0996,0.1006c0.2002-0.5,0.2002-1,0.3003-1.6006l-0.2002,0.3994v0.4004H6.5045
		l0.1001-0.0996v-0.0996l0.5-1c0-0.2012,0.0996-0.4004,0.2998-0.6006v-0.1006l0.1001,0.1006c0-0.1006,0-0.2002,0.1001-0.2998
		v-0.0996c0,0,0.1001,0,0.1001-0.1006V56.0029z M1.9039,70.9043H1.8043c0-0.1006,0-0.1006,0.0996-0.1006V70.9043z M5.7042,58.0029
		l0.2002-0.0996l0.2002-0.5v-0.1992l2.2998-5.1016l0.1001,0.1006c-0.2002,1.2998-5.6001,14.001-6.5005,15.501
		C2.1041,66.2041,5.0045,60.1035,5.7042,58.0029z M3.1041,62.9033c0.8003-1.5,1.1001-3.3994,2.1001-4.7998
		C4.8043,59.8037,4.004,61.4033,3.1041,62.9033z M4.8043,62.3037c0-0.0996,0.2002-0.5,0.2002-0.7998v-0.2002l0.2998-0.5996
		l0.2002-0.1006c-0.2002,0.6006-0.4004,1.2998-0.5,1.9004H4.8043V62.3037z M6.3043,58.5029c0,0.1006,0,0.1006-0.1001,0.1006
		C6.2042,58.5029,6.2042,58.5029,6.3043,58.5029z M6.8043,58.8037H6.7042v-0.0996L6.8043,58.8037z M7.2042,57.3037l-0.0996-0.0996
		c-0.1001,0.0996-0.1001,0.2988-0.1001,0.3994L7.2042,57.3037z M7.6046,56.2041v0.0996c0.1001,0,0.1001,0,0.1001-0.0996H7.6046z
		 M7.8043,56.1035H7.7047H7.8043z M7.9044,55.9033H7.8043H7.9044z M7.9044,55.5029v-0.0996h0.1001L7.9044,55.5029z M8.2047,54.9033
		v0.0996l-0.1001,0.4004l-0.1001-0.0996L8.2047,54.9033z M8.4044,54.7041c0,0.0996,0,0.0996-0.1001,0.0996v-0.0996H8.4044z
		 M8.5045,54.3037l0.1001,0.0996v0.2002l-0.1001-0.2002V54.3037z M8.6046,54.2031v-0.0996c0.1001,0,0.1001,0,0.1001,0.0996H8.6046z
		 M11.0045,45.3027c-0.6001,1.5-1.2998,2.9004-2.1001,4.2998C9.3048,48.1025,10.2047,46.7031,11.0045,45.3027z M9.1046,53.5029
		l-0.1001-0.0996C9.1046,53.4033,9.1046,53.4033,9.1046,53.5029z M9.3048,52.9033v0.2998l-0.1001-0.0996v-0.1006L9.3048,52.9033z
		 M9.8048,51.2031l-0.4004,0.2002l0.1001-0.4004c0.3003-0.2998,0.3003-0.5996,0.5-0.9004c0,0.1006,0,0.2012,0.1001,0.2012
		C10.1046,50.6025,9.9044,50.9033,9.8048,51.2031z M9.5045,52.7031v-0.2002h0.1001C9.6046,52.6035,9.6046,52.7031,9.5045,52.7031z
		 M9.7047,52.2031v0.1006C9.6046,52.3037,9.7047,52.2031,9.7047,52.2031z M9.7047,52.0029c0-0.1992,0.1997-0.4004,0.2998-0.5996
		l0.2002,0.0996l-0.2002,0.5l-0.1001,0.0996H9.8048L9.7047,52.0029z M10.2047,51.0029l0.1001-0.0996v0.0996H10.2047z
		 M10.3048,50.7031l0.1997-0.2002h0.1001v0.2002l-0.2002,0.2998l-0.0996-0.0996v-0.0996V50.7031z M10.3048,50.8037
		c0.0996,0,0.0996,0,0.0996-0.1006h-0.0996V50.8037z M10.5045,51.0029c0-0.0996,0-0.0996,0.1001-0.1992
		C10.6046,50.9033,10.5045,50.9033,10.5045,51.0029z M12.2047,42.7021l-1.2002,2.6006
		C11.5045,44.5029,11.9049,43.6025,12.2047,42.7021z M11.1046,49.0029l0.3999-0.9004l0.5005-0.3994L11.1046,49.0029z
		 M11.3048,48.2031l-0.1001-0.1006l0.2002-0.1992C11.3048,48.0029,11.3048,48.1025,11.3048,48.2031z M11.4049,48.7031h0.0996v0.1006
		L11.4049,48.7031z M12.1046,47.6025l0.1001,0.1006H12.005L12.1046,47.6025z M12.3048,47.3027l-0.2002,0.1006
		c0-0.1006,0-0.1006,0.1001-0.2002h0.1001V47.3027z M12.2047,42.7021l0.3003-1l0.2998-0.1992h0.1001L12.2047,42.7021z
		 M12.6046,46.9033c-0.0996-0.1006-0.0996-0.1006-0.0996-0.2002C12.6046,46.8027,12.6046,46.8027,12.6046,46.9033z M12.7047,46.7031
		c0-0.1006,0-0.2998,0.1001-0.4004L12.7047,46.7031z M13.4049,45.5029h-0.1001l0.1001-0.2002h0.1001
		C13.505,45.4033,13.505,45.4033,13.4049,45.5029z M13.7047,45.1025v-0.0996h0.1001L13.7047,45.1025z M20.7052,25.0015v-0.1001
		h0.1001C20.8053,25.0015,20.8053,25.0015,20.7052,25.0015z M23.8053,21.7012l-0.2998,0.4004v-0.2002l0.2002-0.2002H23.8053z
		 M23.8053,21.5015h0.1001l-0.1001,0.1001V21.5015z M24.2057,21.0015l-0.1001,0.1001
		C24.1056,21.0015,24.1056,21.0015,24.2057,21.0015z M24.6056,20.2012h0.1001c0,0.1001,0,0.1001-0.1001,0.1001V20.2012z
		 M25.1056,18.1011l-0.1001-0.1997l0.2002,0.0996L25.1056,18.1011z M25.0055,22.1016c0.1001-0.2002,0.3003-0.4004,0.3999-0.7002
		l-0.3999,0.5V22.1016z M25.4054,21.4014c0.3003-0.5,0.6001-1.2002,0.8003-1.7002C25.9054,20.2012,25.6056,20.8013,25.4054,21.4014z
		 M25.8058,17.001l-0.2002,0.3003v-0.2002L25.8058,17.001z M26.2057,19.7012c0.1001-0.1001,0.1997-0.2998,0.3999-0.3999
		c-0.1001,0.7002-0.6001,1.3003-0.7998,2l0.1997-0.1001l0.3003-0.5l0.1997-0.0996c0.8003-0.9004,1.2002-2.1006,1.8003-3.1006
		c-0.2998,0,0.2998-0.7998,0.2998-0.8999c0.4004-0.8003,0.6001-1.5,1.2002-2.1001l-0.7002-0.2998l-0.0996,0.0996
		c-0.4004,0-0.5,0.9004-0.5,1.2002c-0.7002,0.8003-1.2002,2.2002-1.8003,3.1001l0.1001,0.2002l-0.2002,0.3999h-0.2002
		C26.3058,19.3013,26.3058,19.5015,26.2057,19.7012z M25.8058,16.9009c0-0.0996,0-0.0996,0.0996-0.0996
		C25.9054,16.9009,25.9054,16.9009,25.8058,16.9009z M26.2057,16.501h-0.1001c0-0.1001,0-0.1001,0.1001-0.1001V16.501z
		 M26.4054,16.001v-0.1001c0.1001,0,0.1001,0,0.1001,0.1001H26.4054z M26.6056,15.7012c0.1001,0,0.1001,0,0.2002,0.0996h-0.1001
		L26.6056,15.7012z M27.1056,15.3008l-0.1001-0.1997v-0.2002l0.2002-0.3999l0.1001,0.2002l-0.1001,0.0996L27.1056,15.3008z
		 M28.4059,16.7012l-0.5,0.7998l0.1997-0.8999l0.3003-0.2998V16.7012z"/>
</g>
</svg>
