<?xml version="1.0" encoding="utf-8"?>
<!-- Generator: Adobe Illustrator 21.0.2, SVG Export Plug-In . SVG Version: 6.00 Build 0)  -->
<svg version="1.1" id="C3_R_Frame" xmlns="http://www.w3.org/2000/svg" xmlns:xlink="http://www.w3.org/1999/xlink" x="0px" y="0px"
	 viewBox="0 0 81.1085 83.2046" enable-background="new 0 0 81.1085 83.2046" xml:space="preserve">
<g id="p">
	<path fill="#175FFF" d="M2.2042,58.103c-0.6001,1.6006-1.2002,4.8008-2.2002,5.9004C-0.0961,63.104,1.7042,59.3042,2.2042,58.103z
		 M1.7042,63.8042v0.0996c-0.1001,0-0.1001,0-0.1001-0.0996H1.7042z M73.1085,72.5044h0.0996c0-0.5,3.8008,2.2998,4.4004,2.7998
		c0.8008,0.6006,3.1006,2.7012,3.5,3.6006v2.5l-0.2998,0.2998c-2.0996,0.2002-4.2998,1.1006-6.4004,1.1006
		c-0.5,0.3994-4.7998,0.3994-5.7002,0.3994c-0.5,0-4.7002-1.1992-5.6006-1.3994c-1,0.2002-7.2998-2.2998-9.2002-2.2998
		c-0.7998,0-2.1006,0.0996-2.7002-0.5c-1.0996,0-1.7998-1-2.7002-1.5V76.605c-0.7998-0.4004-2.7002-1.8008-3.5-1.8008
		c-1.1001-0.7998-2.6006-1-3.8003-1.6992c-0.8003-0.1006-1-1.1006-1.8003-1.1006c-1.2002-1.2002-5-2.1006-6.5005-3.2002
		c-2.8999-2.0996-5.3003-4.9004-7.9004-7.4004c-1.3999-4-5.4004-5.8008-5.8003-11.2012l-0.7002-0.1992
		c-1.1001,0.5996-2.5,1.2998-2.5,2.6992c-0.7998,1.2012-1.1001,2.8008-2.2002,3.9004l-0.1001,0.4004l0.3003,0.2002l0.6997-0.3994
		l0.4004,0.1992H15.005c-0.5,0.5996-2.7002,2.5-3.4004,2.5996c-0.3999,0.7012-0.5,1.9004-1,2.501l0.1001,0.0996l0.3999,0.1006
		c0.3999-0.2002,0.7002-0.5,0.8003-1l0.2998-0.2002c0.1001,0.2002,0.1001,0.5,0.1001,0.7002c0,0.6992-0.8003,1-1.3003,1.4004
		l-0.3999-0.1006c-0.1001-0.1006-0.1001-0.1006-0.2002-0.1006c-0.3999,0-0.5996,0.3008-0.7998,0.6006l1.1001,0.2002l0.2002,0.4004
		c-1.0005,1.8994-0.9004,1.3994-2.5005,2.6992l-0.1997,0.6006c0.0996,1.0996-2.0005,4.6006-3.2002,4.6006
		c-1.4004,0-2.2002-1.1006-3.1006-2c0-0.1006-0.1997-0.6006-0.1997-0.7012c0-2.2998,0.5-4.4004,0.8999-6.7998H2.3043
		c0.1001-0.6006,0.3999-0.9004,0.6001-1.4004v-0.5l0.2998-0.5l0.2002,0.1006L3.504,60.103l-0.1997-0.1992l0.2998-0.4004
		c0,0,0-0.5,0.2002-0.5h0.1001v-0.2998l0.0996,0.1006l0.1001-0.3008l0.2002-0.2998c-0.1001,0-0.2002-0.1006-0.2002-0.2002h0.2002
		v0.0996c0,0,0-0.0996,0.1001-0.1992l-0.2002-0.0996l0.1001-0.1006c0-0.2002,0.1001-0.5,0.2998-0.7002h0.1001L4.6041,57.103v0.3008
		l-0.0996,0.4004c0.3999-0.7012,0.8999-1.1006,0.8999-2.001H5.3043L5.2042,55.603l0.2002,0.1006
		c0.3999-1.4004,3.6001-7.9014,4.5-8.8008c-0.0996-0.3994,0.4004-1.3994,0.8003-1.6006l0.3999-0.8994l0.7002-0.7998v-0.3008
		l0.7002-1.2998v0.1006c0.5996-1,1.1997-2.1006,1.1997-3.3008V38.603c-0.3999,0.3994-0.7998,1.5996-1.2998,1.6992l0.1997-0.5
		l-0.5,0.3008c-0.3999,0.7988-1.1997,1.2988-1.6001,2l-0.2998,0.1992l-0.1001-0.0996c0.8003-1.0996,3.9004-6.8008,4.3003-8
		c-0.2002,0.2988-0.3999,0.6992-0.7002,0.8994c1.4004-2.8994,3.1001-5.7002,4.9004-8.4004l0.3003-0.1001l0.1997-0.6001
		c0.3003-0.1997,0.5-0.6001,0.7002-0.8999l-0.1001-0.2998l0.2002-0.2002h-0.1001l0.5-1l0.1001,0.1997l0.1001-0.1997v-0.2002
		l0.0996,0.1001l0.1001-0.2002v-0.0996c0.1001,0,0.1001-0.3003,0.1001-0.4004h0.2002l-0.1001-0.1997l0.3999-0.6001l-0.1001,0.3999
		l0.3003-0.2998l-0.1001-0.3003l0.3999-0.6001c0.1001,0,0.2002,0,0.2002,0.1001s0,0.1001-0.1001,0.2002l0.1001-0.1001l0.1997-0.7002
		c0-0.1001,0.1001-0.1001,0.2002-0.1001l-0.1001-0.1997l0.2002,0.1001l0.2998-0.3003l0.2002,0.3003
		c-0.3999,0.3999-1.5,1.7998-1.5,2.3999c-0.7002,0.7002-1.3003,1.8003-1.5005,2.8003c0.6001-0.5,2.8003-4.3003,3.3003-5.3003
		v-0.2002l0.1001,0.1001l0.3999-0.7002v-0.2998l0.1001,0.1001c0.6001-1.1001,1.2002-2.2002,2-3.2002l0.1001-0.8003l-0.2998-0.3999
		l-0.1001-0.1001v0.2002l-0.1001,0.1001v-0.1001c0-0.1001-0.2998-0.8003-0.2998-1l0.3999-0.7002h1.2002l0.1001-0.1001v0.1001h0.2998
		l0.1001-0.6001l0.1001,0.2002l-0.1001,0.3999c0.3999,0,0.7002,0,1.1001,0.1001l0.1001,0.1001c0-0.1001,0.3999-1.3003,0.5-1.3003
		l-0.1001,0.2002c0,0.3999-0.1001,0.7998-0.1001,1.1997c0.5,0.2002,1,0.3003,1.5,0.6001c1,0.3999,1.4004,0.8003,2.2002,1.4004
		l0.2998,0.0996l0.4004-0.6997c0,0.1997-0.1001,0.6001-0.1001,0.7998c1.7002,1.1001,3.3003,2.1001,3.3003,4.3003
		c0,0.8003-0.6001,1.4004-0.8003,2.1001c0.5,0.5-1.1997,3.6006-1.3999,4.4004h0.3999c3.8003-1.8999,25.0015-12.2007,26.2017-14.2007
		c0-1.5005-5.1006-2.8003-6.3008-2.8003c-0.8994,0-1.5,0.2002-2.2998-0.3999c-0.7002,0-2.0996,0.0996-2.6006-0.4004h-0.5996
		c-0.5996,0.5-5.4004,0.4004-6.4004,0.4004c-1.1001,0-3.9004-0.3003-4.7002,0.3999c-0.8999,0-2.9004-0.2002-3.6001,0.2998
		c-1.1001,0.3003-2.5005,0.6001-3.7002,0.6001c-4.2007,0-15.501,4.9004-17.8013,8.5005l0.2002,0.7002l0.2998-0.2998
		c0.2002,0,0.8003,0.0996,0.8003,0.3999v0.8999l-0.4004,0.3999c-0.7998,0-2,0.8003-2.8999,1
		c-2.3003-0.5996-2.7002-3.1001-4.2002-4.6001l-0.3003-0.7998c0.1001-0.6001-0.1997-1.2002-0.6997-1.6001l-0.3003-0.6001
		C5.5045,11.9009,22.6056,3.2002,25.7057,3.2002C30.8058,0.7002,41.0065,0,46.7071,0c0.5,0,1.0996,0.1001,1.5,0.3999
		c0.7998,0,1.5,0.1001,2.2998,0.1001c0.7002,0,1.4004-0.1997,1.9004,0.3999c1.0996-0.5,10.9004,4.5005,11.7002,5.8008
		c0.5,0.8999,1.1006,1.5996,1.8008,2.2998c0,0.6001,1.7002,3.2002,2.2002,3.7002c0,1.5,1.5,3.2002,1.5,4.8003v0.9004
		c-0.7002,0.7998-0.2002,1.7998-0.6006,2.6997c-0.2998,0.7002-0.7998,1.2002-1,1.9004c-3.2998,2.7002-4,5.3003-8.2998,7.3008
		c-1.001,0.5-1.001,1.1992-2.3008,1.1992c-0.7002,0.5-1.4004,0.9004-2.2998,0.9004l-0.2998,0.3008
		c-0.1006,0.2988-0.3008,0.5-0.6006,0.5c-1.5,0-2.7998,0.6992-4.0996,1.3994c-0.9004-0.1006-1.7002,0.5-2.501,0.9004
		c-0.3994-0.1006-7.2002,1.2998-7.8999,1.5996c-0.5005,1.1006-1.8003,0.501-2.6006,1.1006c-0.0996-0.0996-0.2998-0.3008-0.5-0.3008
		c-0.0996,0-0.1997,0.1006-0.1997,0.2012c-1.7002,0.5996-3.1001,1.5996-5.0005,1.5996c1.7002,2.0996,3.3003,4.3008,5.4004,5.9004
		v0.1992l0.2998,0.3008l0.3003,0.0996c1.2002,1.3008,2.6001,2.4004,3.8003,3.7002h-0.2002
		c-3.6001-2.7998-6.8003-6.7002-9.8003-10.1006c-0.3003,0.0996-0.6001,0.2002-0.9004,0.4004l0.2002,0.1992l-0.3999,0.1006v-0.2002
		l-0.4004,0.2002v0.1006l-0.1001-0.1006c-0.5996,0.2998-1.1997,0.2002-1.6997,0.5c0.6001,0,1.6001,1.9004,2.2002,2.2998
		c-0.5005-0.6992-1.1001-1.3994-1.6001-2.1992l0.0996-0.1006c2.7002,3.2002,13.4009,14.9014,16.7012,15.7012v-0.2002
		c1.4004,0.8008,2.6006,1.9004,4,2.5996h0.2002l-0.2998-0.5996c-0.5-0.4004-1-0.7998-1.2998-1.2998l0.0996-0.1006l0.2002,0.1006
		c-0.4004-0.3994-1-1-1.5-1.2002l-0.2002-0.5l0.5,0.2998l-0.2998-0.3994l0.0996-0.1006c-0.3994-0.2002-1.7002-1.8994-2-2.3994
		l0.1001-0.1006c1.5005,1.5,6.1001,5.001,7.9009,5.7998c-0.4004-0.1992-0.7002-0.5-0.9004-0.8994
		c2.7998,2.1006,5.9004,3.9004,8.7002,6.1006l0.2002,0.4004l0.5996,0.1992c0,0.5996,2.501,1.2002,2.6006,1.5996l-0.2002,0.1006
		l0.2002,0.1006h0.2002c0.0996,0.3994,0.5996,0.0996,0.7002,0.5h-0.1006l0.1006,0.0996c0.2998,0,0.7998,0.5996,0.8994,0.5v0.0996
		l-0.5-0.2998l0.4004,0.2998v0.1006l0.2998-0.1006c0,0,0.6006,0.4004,0.6006,0.5h-0.2002l-0.2002-0.0996l0.2002,0.2998l0.5,0.2002
		l0.2998,0.0996c-0.0996,0.2002,0,0.3008,0.2002,0.3008h-0.1006l0.4004,0.2998l-0.4004,0.2002l-0.6992-0.7002h-0.1006
		c-1-0.6006-3.9004-3.001-4.7998-3.1006l0.6992,0.8008c1.8008,0.8994,3.501,2,5.001,3.4004h0.2002v0.0996
		c0.7998,0.5,1.7998,0.7998,2.5,1.2998h0.2998l-0.0996-0.2002h1c0.0996,0.4004,0.5,0.8008,0.8994,0.9004l0.3008,0.5l0.3994,0.1992
		l-0.0996-0.0996h0.2002l0.0996,0.0996h-0.2002L73.1085,72.5044z M1.8043,62.9038c0-0.0996,0-0.0996,0.0996-0.0996
		c0,0.0996,0,0.1992-0.0996,0.1992V62.9038z M2.1041,60.103c0-0.0996,0.1001-0.2988,0.1001-0.3994L2.004,60.103H2.1041z
		 M4.8043,55.603l-0.2002-0.0996l0.4004-1.4004c-0.8003,1.9004-1.8003,3.7012-2.8003,5.6006
		c1.1001-2.7998,2.3003-5.501,3.3003-8.2998l0.1997-0.1006l0.2002-0.3994v-0.2012c0.7002-1.5,1.3999-3.0996,2.3003-4.5
		l0.0996,0.0996c-1.1001,2.6006-2,5.2012-3.2002,7.6016l0.2002-0.1006C5.1041,54.4038,4.9044,55.0034,4.8043,55.603z M2.2042,58.103
		c0-0.0996,0.1001-0.0996,0.1001-0.1992C2.3043,58.0034,2.2042,58.0034,2.2042,58.103z M5.1041,51.5034
		c-0.5996,1.5-1.1997,3-2,4.4004C3.504,54.4038,4.2042,52.8032,5.1041,51.5034z M4.5045,57.8042
		c-0.1001,0-0.1001,0.0996-0.1001,0.0996L4.5045,57.8042z M5.1041,56.0034v0.2998c0,0.2002-0.0996,0.4004-0.0996,0.6006
		l-0.1001,0.0996l-0.2002-0.1992C4.8043,56.5034,4.9044,56.2036,5.1041,56.0034z M5.0045,54.103
		c0-0.0996,0.0996-0.0996,0.0996-0.1992L5.0045,54.103z M6.0045,53.7026v-0.1992c0.1997-0.3008,0.2998-0.7002,0.3999-1v0.2998
		C6.4044,53.0034,6.1046,53.5034,6.0045,53.7026z M6.9044,51.103l-0.2002,0.3008H6.6046l-0.1001,0.3994l-0.1001,0.1006H6.3043
		l0.1001-0.2012v-0.1992l0.2002-0.3008h0.0996l-0.0996-0.1992l0.1997-0.3008h0.1001V51.103z M6.4044,52.4038v-0.1006h0.1001v0.1006
		H6.4044z M6.8043,51.8032l-0.1001,0.1006v-0.1006l0.1001-0.1006V51.8032z M7.0045,50.603v0.0996L6.9044,50.603l0.1001-0.0996
		l0.1001-0.3008V50.103h0.0996l0.1001,0.2002H7.2042L7.0045,50.603z M7.3043,50.103H7.2042v-0.0996
		C7.3043,50.0034,7.3043,50.0034,7.3043,50.103z M7.3043,50.603v-0.0996l0.1001-0.0996C7.4044,50.5034,7.4044,50.603,7.3043,50.603z
		 M7.7047,49.2026v0.1006c0,0.0996-0.1001,0.2002-0.1001,0.2998H7.4044v-0.0996h0.1001v-0.2002L7.7047,49.2026z M7.5045,49.7026
		l-0.1001,0.1006V49.603L7.5045,49.7026z M8.0045,48.8032L7.8043,49.103v0.0996l-0.0996-0.1992l0.1997-0.2002v-0.1006
		L8.0045,48.8032z M8.0045,48.5034h0.1001v0.0996L8.0045,48.5034z M8.3043,48.2026v0.2002
		c-0.0996-0.0996-0.0996-0.0996-0.0996-0.2002H8.3043z M8.4044,48.0034v0.0996l-0.1001,0.0996V48.103L8.4044,48.0034z
		 M8.8048,43.9028H8.7047c1.3999-2.4004,2.2002-5.1006,4.1001-7.2002v0.1992C11.5045,39.3022,10.1046,41.5024,8.8048,43.9028z
		 M8.8048,47.5034l-0.1001-0.1006h0.1001V47.5034z M8.8048,48.103v0.0996H8.7047C8.7047,48.103,8.7047,48.103,8.8048,48.103z
		 M9.0045,46.8022l0.1001,0.1006c-0.1001-0.1006-0.1001,0.2998-0.1001,0.2998L8.9044,47.103v-0.0996l0.1001-0.1006V46.8022z
		 M9.0045,47.7026V47.603l0.1001,0.0996H9.0045z M9.9044,44.603c-0.0996,0.1992-0.2998,0.4004-0.2998,0.6992v0.1006L9.2047,45.603
		v-0.4004c0.2998-0.1992,0.3999-0.5,0.6001-0.7998C9.8048,44.5034,9.8048,44.603,9.9044,44.603z M9.2047,46.7026V46.603h0.1001
		v0.0996H9.2047z M9.5045,46.3022v-0.2988l0.2002-0.4004l0.1997,0.0996L9.5045,46.3022z M9.8048,44.3022l0.0996-0.0996v0.0996
		H9.8048z M10.0045,45.4028H9.9044v-0.1006L10.0045,45.4028z M10.1046,44.103l-0.1001-0.0996
		C10.1046,44.0034,10.1046,44.0034,10.1046,44.103z M10.2047,45.2026h-0.2002V45.103c0-0.0996,0.1001-0.2002,0.2002-0.3008h0.1001
		v0.2012h-0.1001V45.2026l0.1001-0.0996C10.3048,45.2026,10.3048,45.2026,10.2047,45.2026z M10.1046,45.5034l0.1001-0.2012
		C10.2047,45.4028,10.2047,45.4028,10.1046,45.5034z M10.6046,43.3022v0.1006h-0.1001v-0.1006H10.6046z M10.7047,43.2026h-0.1001
		V43.103h0.1001V43.2026z M11.2047,42.5024c-0.1001,0.1006-0.1001,0.2002-0.2002,0.2002
		C11.0045,42.603,11.0045,42.5024,11.2047,42.5024z M11.1046,44.3022v-0.0996l0.1001-0.0996L11.1046,44.3022z M11.2047,42.9028
		l0.1001-0.2002l0.5-0.4004h0.1001C11.6046,42.5024,11.3048,42.7026,11.2047,42.9028z M11.7047,43.0024
		c0.1001-0.0996,0.1001-0.0996,0.1001-0.2002h0.1001l-0.1001,0.1006C11.8048,43.0024,11.8048,43.0024,11.7047,43.0024z
		 M12.005,41.9028c0,0.0996-0.1001,0.2002-0.2002,0.2002l0.1001-0.2002H12.005z M12.4049,41.603c-0.1001,0-0.1001,0-0.2002-0.1006
		C12.3048,41.5024,12.3048,41.603,12.4049,41.603z M13.2047,40.5024h-0.1001c0-0.1006,0-0.1006,0.1001-0.2002V40.5024z
		 M13.4049,40.103c0-0.1006,0-0.1006,0.1001-0.1006c0,0.1006,0,0.1006-0.1001,0.2002V40.103z M17.7052,27.7017l-0.1001-0.1001
		h0.1001V27.7017z M18.005,26.9019h-0.1001c0-0.1001,0-0.1001,0.1001-0.1001V26.9019z M20.8053,24.3013l-0.1001,0.2002h-0.1001
		v-0.2002l0.2002-0.1997V24.3013z M20.8053,24.0015h0.1001c0,0.1001,0,0.1001-0.1001,0.1001V24.0015z M21.1051,23.6016
		l0.1001-0.1001v0.1001H21.1051z M21.2052,23.5015v-0.1001h0.1001C21.3053,23.5015,21.3053,23.5015,21.2052,23.5015z
		 M21.8053,21.6016l0.1001-0.1001h-0.1001V21.6016z M22.0055,24.6016c0.5-0.8003,0.7998-1.7002,1.3999-2.4004v-0.0996l0.1001-0.2002
		c-0.1001,0.1001-0.2002,0.2002-0.3003,0.2002c-0.2998,0.7998-0.7998,1.5-1.1997,2.1997V24.6016z M22.6056,20.0015l0.0996,0.0996
		c-0.0996,0.1001-0.0996,0.1001-0.1997,0.1001v-0.1001L22.6056,20.0015z M22.9054,19.6011c0-0.0996,0-0.0996,0.1001-0.0996v0.0996
		H22.9054z M22.9054,20.8013h0.1001l-0.1001,0.1001V20.8013z M23.2052,19.2012v-0.1001c0.1001,0,0.1001,0,0.1001,0.1001H23.2052z
		 M23.3053,18.9014c0.1001,0,0.2002,0,0.2002,0.0996h-0.1001L23.3053,18.9014z M23.5055,21.5015l0.1001,0.1997v0.1001
		c0.8999-1.8999,2.2998-3.7002,2.6001-5.9004C24.9054,17.501,24.8058,19.8013,23.5055,21.5015z M23.9054,18.2012l-0.1001,0.2002
		v0.1997l-0.1997-0.1997l0.1001-0.2002V18.001l0.0996-0.1001l0.1001,0.2002V18.2012z M24.4054,17.501v0.2002h-0.2998l0.1001-0.2002
		H24.4054z M24.4054,17.2012v-0.1001l0.1001-0.2002v0.3003H24.4054z M24.8058,15.9009h0.0996l0.3003,0.2002l-0.2002,0.6001
		l-0.2998,0.2998l-0.2002-0.2998C24.5055,16.501,24.5055,15.9009,24.8058,15.9009z M25.0055,16.9009l0.1001,0.1001v0.1001
		C25.0055,17.001,25.0055,17.001,25.0055,16.9009z M25.1056,15.4009l0.1001-0.1001v0.2002L25.1056,15.4009z M25.4054,15.2012
		c0-0.1001-0.0996-0.1001-0.1997-0.1001L25.4054,15.2012z M25.2057,15.2012h0.1001c0,0.0996,0,0.0996-0.1001,0.0996V15.2012z
		 M25.3058,15.001v-0.1001h0.0996L25.3058,15.001z M25.5055,15.2012h-0.1001H25.5055z M25.4054,17.8013
		c0-0.3003,0.2002-0.5,0.4004-0.7002C25.7057,17.3013,25.6056,17.6011,25.4054,17.8013z M25.6056,15.4009v0.1001
		c0,0.1001-0.1001,0.2002-0.1001,0.2002L25.6056,15.4009z M27.9059,41.0024l-0.1001,0.1006l1.6001,1.7998L27.9059,41.0024z
		 M29.4059,42.9028c0.8999,1.2002,1.8003,2.5,3,3.3994v-0.0996C31.3058,45.2026,30.3058,44.103,29.4059,42.9028z M29.7057,40.603
		h0.2002H29.7057z M29.8058,40.7026c0.1001,0,0.1001,0,0.1001,0.0996v0.0996C29.8058,40.9019,29.8058,40.8022,29.8058,40.7026z
		 M30.006,13.9009l-0.1001-0.1001l0.2998-0.1001c-0.0996-0.0996-0.0996-0.2998-0.0996-0.5l0.2998-0.0996l0.1001,0.2998
		l-0.2002,0.1001c0,0.1997,0,0.3999-0.1997,0.3999H30.006c0,0.1001,0,0.1001-0.1001,0.1001
		C29.9059,13.9009,29.9059,13.9009,30.006,13.9009z M30.506,40.603c0.1001,0,0.1001,0,0.1001,0.0996h-0.2002
		C30.4059,40.603,30.4059,40.603,30.506,40.603z M30.8058,40.9019c0,0.1006,0,0.1006-0.1001,0.1006
		C30.7057,40.9019,30.7057,40.9019,30.8058,40.9019z M31.1061,41.4019l-0.2002-0.0996v-0.0996c0.1001,0,0.2002,0,0.3003,0.0996
		L31.1061,41.4019z M31.7062,42.103l-0.6001-0.6006l0.1997-0.1006v0.1006l0.3003,0.2998L31.7062,42.103z M31.7062,42.103
		l0.1997,0.0996v0.0996L31.7062,42.103z M31.7062,42.5024l0.2998-0.0996l0.2998,0.5l0.3003,0.2002h-0.3003L31.7062,42.5024z
		 M32.506,44.5034v-0.1006c0.1001,0,0.1001,0,0.1001,0.1006H32.506z M32.8058,43.603l-0.0996-0.1006h0.1997L32.8058,43.603z
		 M33.1061,44.2026l-0.2002-0.1992l0.3003,0.0996l0.1001,0.0996H33.1061z M33.1061,45.103v0.0996h-0.2002V45.103H33.1061z
		 M34.6061,44.3022c-0.6001-0.2988-1-0.7998-1.5-1.1992l0.1001-0.1006c0.2998,0.1006,1.3999,0.7998,1.3999,1.2002V44.3022z
		 M33.3063,44.3022h0.0996l0.1001,0.2012h-0.1001L33.3063,44.3022z M33.6061,41.4019c0.8003,1.1006,1.8003,2.001,2.7002,3.001
		c-0.8999-1-2.1001-1.7998-2.8003-3.001H33.6061z M33.6061,44.603c0.1001,0,0.1001,0,0.1001,0.0996h-0.1001V44.603z M33.7062,46.103
		c0-0.0996,0-0.0996,0.1001-0.0996h0.0996v0.0996c-0.0996,0.0996-0.0996,0.0996-0.1997,0.0996V46.103z M34.3063,45.5034
		l-0.1001,0.0996v-0.0996H34.3063z M34.4064,45.9028v-0.1006h0.0996L34.4064,45.9028z M35.4064,46.0034
		c-0.4004,0-0.5-0.6006-0.8003-0.8008l0.7002,0.5996l0.1001,0.1006h0.0996L35.4064,46.0034z M35.506,46.7026h-0.2998V46.603
		l-0.2998-0.2002h-0.1001l0.1997-0.1006C35.2062,46.4028,35.4064,46.5034,35.506,46.7026z M35.6061,46.103
		c-0.1001,0-0.1001,0-0.1001-0.0996h0.1001V46.103z M35.6061,47.4028V47.103l0.2002,0.1992v0.2012h-0.1001L35.6061,47.4028z
		 M36.006,46.5034l0.1001,0.0996v0.0996L36.006,46.603V46.5034z M37.0065,47.103h-0.2002l-0.3999-0.4004V46.603l-0.3003-0.2002
		V46.103C36.4064,46.3022,36.8063,46.8022,37.0065,47.103z M36.5065,48.0034l-0.4004-0.3008h0.2002L36.5065,48.0034z
		 M36.1061,48.5034h0.1001v0.0996L36.1061,48.5034z M37.5065,48.9028l-0.3003,0.2002l-0.6997-0.5c0-0.2002,0-0.4004-0.2002-0.4004
		V48.103h0.3999c0,0.0996-0.1001,0.2998,0.1001,0.0996c0.1001,0.2002,0.5,0.6006,0.7002,0.6006V48.9028z M37.6066,47.603
		l-0.3003,0.0996l-0.1001-0.2998l-0.1001-0.1006h-0.0996l0.0996-0.0996h0.1001v0.0996L37.6066,47.603z M37.1061,47.8022v-0.0996
		c-0.0996,0-0.0996,0-0.0996-0.0996c0.0996,0,0.0996,0,0.0996,0.0996c0.1001,0,0.1001,0,0.1001,0.0996H37.1061z M37.2062,47.8022
		c0.1001,0,0.1001,0,0.1001,0.1006L37.2062,47.8022z M37.5065,47.8022c0-0.0996,0-0.0996,0.1001-0.0996
		C37.6066,47.8022,37.6066,47.8022,37.5065,47.8022z M38.4064,48.4028v0.1006l0.2998,0.2998h-0.0996l-0.3003-0.2002l0.1001-0.0996
		l-0.2002-0.1006l-0.2998-0.2998h-0.1001v-0.0996h0.1001c0.1001,0,0.1001,0,0.1001,0.0996l0.2998,0.2998H38.4064z M38.0065,49.5034
		h-0.1001l-0.1001-0.1006L38.0065,49.5034z M38.1066,49.603h0.0996v0.0996C38.1066,49.7026,38.1066,49.7026,38.1066,49.603z
		 M38.1066,49.9028l0.0996-0.0996h0.2002v0.0996l-0.1001,0.2002L38.1066,49.9028z M38.1066,50.103
		c0,0.0996,0.0996,0.0996,0.1997,0.2002C38.1066,50.3032,38.1066,50.2026,38.1066,50.103z M38.9064,50.3032l-0.1001,0.2002v0.0996
		h-0.2998v-0.2998l-0.2002-0.2002L38.9064,50.3032z M38.9064,49.103c-0.1001,0-0.1001,0-0.1001-0.0996h0.1001V49.103z
		 M39.2062,49.4028h-0.0996l-0.2002-0.0996h0.2002L39.2062,49.4028z M39.1066,49.8032v0.0996h-0.1001v-0.0996H39.1066z
		 M39.3063,49.5034h-0.1001v-0.1006C39.3063,49.4028,39.3063,49.4028,39.3063,49.5034c0.1001,0,0.1001,0,0.1001,0.0996
		C39.3063,49.603,39.3063,49.603,39.3063,49.5034z M39.5065,50.2026v0.1006h-0.1001L39.5065,50.2026z M39.8063,50.2026V50.103
		h0.1001L39.8063,50.2026z M40.1066,50.4038h-0.1001l0.1001-0.1006l0.1997,0.2002h-0.0996L40.1066,50.4038z M40.4064,50.7026
		c0.1001,0.1006,0.2002,0.1006,0.2002,0.2012h-0.2002V50.7026z M40.9064,51.103c-0.0996,0-0.0996,0-0.1997-0.0996h0.1001
		L40.9064,51.103z M41.4064,51.603l-0.0996,0.0996l-0.1001-0.0996l-0.3003-0.0996l-0.0996-0.2002v-0.1006h0.1997l0.3999,0.3008
		V51.603z M41.2066,52.4038v0.0996l-0.3003-0.2002V52.103C41.0065,52.103,41.2066,52.2026,41.2066,52.4038z M42.4064,52.0034
		c-0.1997-0.2002-0.3999-0.4004-0.6997-0.5l-0.1001-0.4004h0.2002l0.3999,0.3008l0.1997,0.2988l0.3003,0.3008H42.4064z
		 M41.6066,51.8032c0.1001,0,0.1001,0,0.1001,0.1006h-0.1001V51.8032z M41.9064,52.9038l-0.1997-0.2012
		C41.8067,52.7026,41.9064,52.7026,41.9064,52.9038z M42.2066,52.3032l-0.1001,0.1006h-0.1001v-0.1006l-0.1001-0.1006h-0.0996
		v-0.1992h0.0996v0.0996l0.1001,0.0996h0.1001L42.2066,52.3032z M41.9064,52.3032c-0.0996,0-0.0996,0-0.0996-0.1006L41.9064,52.3032
		z M42.2066,53.103l0.5,0.4004C42.5065,53.4038,42.3067,53.3032,42.2066,53.103z M42.7066,52.0034c0.1001,0,0.1001,0,0.1001,0.0996
		C42.7066,52.103,42.7066,52.103,42.7066,52.0034z M42.9068,52.4038l0.0996-0.1006v0.1006H42.9068z M44.2066,51.9038l-0.7998-0.8008
		v-0.0996L44.2066,51.9038z M44.2066,53.9038l0.2002,0.5l-0.9004-1.1006L44.2066,53.9038z M43.6066,54.4038
		c0-0.1006,0-0.1006,0.1001-0.1006L43.6066,54.4038z M43.8067,54.3032c0.1001,0,0.1001,0,0.2002,0.1006h-0.1001L43.8067,54.3032z
		 M44.1066,54.7036h0.1001v0.0996h-0.1001l-0.0996-0.0996H44.1066l-0.0996-0.1006h0.0996V54.7036z M44.3067,51.9038h-0.1001H44.3067
		z M44.4068,53.8032c-0.1001-0.1006-0.2002-0.1006-0.2002-0.2002C44.3067,53.603,44.4068,53.603,44.4068,53.8032z M46.0069,53.3032
		l-1.7002-1.3994C44.9068,52.4038,45.4068,52.9038,46.0069,53.3032z M44.3067,54.9038c0.1001,0,0.1001,0,0.1001,0.0996h-0.1001
		V54.9038z M44.5069,54.5034v-0.0996h-0.1001L44.5069,54.5034z M44.7066,54.603c0.1001,0,0.1001,0,0.2002,0.1006v0.0996h-0.1001
		L44.7066,54.603z M45.1066,54.9038v0.0996h-0.0996v-0.0996H45.1066z M45.1066,55.603v0.1006l-0.0996-0.1006H45.1066z
		 M45.1066,55.2036c0.1001-0.1006,0.1001-0.1006,0.2002-0.1006l-0.1001,0.1006H45.1066z M45.3067,55.9038v0.0996l-0.1001-0.0996
		v-0.1006L45.3067,55.9038z M45.4068,56.103l0.1001,0.1006h-0.1001V56.103z M46.0069,53.3032c1.4004,1.1006,2.9004,2,4.2002,3.1006
		v0.1992C50.0069,56.603,47.9073,54.8032,46.0069,53.3032z M46.5069,56.4038l-0.2002-0.1006v-0.0996L46.5069,56.4038z
		 M46.7071,56.7036l-0.1006-0.1006h0.1006V56.7036z M60.4073,63.2046c0-0.1006,0-0.1006,0.1006-0.1006v0.2002L60.4073,63.2046z
		 M63.4083,66.4038v0.0996l-0.4004-0.2988h0.2002L63.4083,66.4038z M63.5079,66.5034c0.0996,0,0.0996,0,0.0996,0.1006
		C63.5079,66.604,63.5079,66.604,63.5079,66.5034z M66.9083,68.2046l0.2002-0.1006l-0.2002,0.2002V68.2046z M67.9083,68.9038
		h-0.1006l-0.1992-0.1992L67.9083,68.9038z M68.0079,68.9038l0.1006,0.1006v0.0996c-0.1006,0-0.1006,0-0.1006-0.0996V68.9038z
		 M68.3077,69.3042h0.1006l-0.1006,0.0996V69.3042z M68.8077,69.605h0.1006l-0.1006,0.0996h-0.0996
		C68.7081,69.605,68.7081,69.605,68.8077,69.605z M68.9083,69.9038c0.0996-0.0996,0.0996-0.0996,0.2002-0.0996
		c0,0.0996,0,0.0996-0.1006,0.0996H68.9083z M69.6085,70.2046h0.2002l0.1992,0.1992h0.2002l-0.2002,0.1006h-0.0996l-0.2998-0.2002
		h-0.2002L69.6085,70.2046z"/>
</g>
</svg>
