<?xml version="1.0" encoding="utf-8"?>
<!-- Generator: Adobe Illustrator 21.0.2, SVG Export Plug-In . SVG Version: 6.00 Build 0)  -->
<svg version="1.1" id="W1_Cloud_Frame" xmlns="http://www.w3.org/2000/svg" xmlns:xlink="http://www.w3.org/1999/xlink" x="0px"
	 y="0px" viewBox="0 0 424.532 244.7854" enable-background="new 0 0 424.532 244.7854" xml:space="preserve">
<g id="p">
	<path fill="#FFEB8B" d="M0.0735,0v233c0,0-4-13,47-5s46,23,80,14s-2-14,27-24s19-8,54-7s48-38,28-37s-19-12,25-9s36-10,63-15
		s16,5,37,6s4-28,23-34s68-32,20-34s-47,32-87,4s-42-50-80-47s-38,12-55-4s-14-24-33-25s-9,3-25,1s-7-7-39-12S21.0735,23,0.0735,0z"
		/>
</g>
</svg>
