<?xml version="1.0" encoding="utf-8"?>
<!-- Generator: Adobe Illustrator 21.0.2, SVG Export Plug-In . SVG Version: 6.00 Build 0)  -->
<svg version="1.1" id="W1_Cloud_Frame_2" xmlns="http://www.w3.org/2000/svg" xmlns:xlink="http://www.w3.org/1999/xlink" x="0px"
	 y="0px" viewBox="0 0 393.3268 301.3382" enable-background="new 0 0 393.3268 301.3382" xml:space="preserve">
<g id="p">
	<path fill="#FFEB8B" d="M393.3268,0.3382l-1,301c0,0-41-30-85-22s-22-4-50-17c-28-13-34-2-77-6c-43-4-21-13-63-15s-58-16-37-32
		s-87-35-80-53s-11-22,29-15s31-8,76-34s24-38,56-41s63-28,93-42s44-15,76-5S376.3268-3.6618,393.3268,0.3382z"/>
</g>
</svg>
