<?xml version="1.0" encoding="utf-8"?>
<!-- Generator: Adobe Illustrator 21.0.2, SVG Export Plug-In . SVG Version: 6.00 Build 0)  -->
<svg version="1.1" id="G1_Drop_frame" xmlns="http://www.w3.org/2000/svg" xmlns:xlink="http://www.w3.org/1999/xlink" x="0px"
	 y="0px" viewBox="0 0 176.2739 140.4166" enable-background="new 0 0 176.2739 140.4166" xml:space="preserve">
<g id="P">
	<path id="g1-drop-frame-p_1_" fill="#FF8717" d="M50.7088,11.4438c-0.7968-1.8935-1.5952-3.7739-1.715-5.8854
		c-0.0445-0.7653,0.1353-1.3748,0.4422-2.0097c0.149-0.0864,0.2641-0.2177,0.41-0.3086c0.218-0.0039,0.4391-0.0073,0.6571-0.0104
		c0.1935,0.2173,0.519,0.1501,0.7247,0.3397L51.2417,3.58c0.1013,0.1259,0.2165,0.2368,0.347,0.3328l0.0214,0.0226
		c0.4222,1.2962-0.1474,2.6723,0.3178,3.9654c0.0092,0.5845,0.0169,1.1703,0.0261,1.7552c0.0169,0.892-0.1366,1.7511-0.4989,2.5813
		C50.8885,12.2796,50.8455,11.7695,50.7088,11.4438z M64.7989,4.3042l-0.0047-0.0038c0.0011,0.0012,0.0024,0.0021,0.0036,0.0032
		C64.7981,4.3039,64.7984,4.3039,64.7989,4.3042z M65.5111,1.4447c0.3547-0.0049,0.7094-0.0107,1.064-0.0157
		c-0.0092-0.3419-0.02-0.6848-0.0292-1.0271c-0.1166-0.1167-0.2333-0.2326-0.3515-0.3485c-0.8936-0.213-1.1331,0.2287-1.0256,1.0202
		C65.2823,1.1984,65.3959,1.3211,65.5111,1.4447z M35.7807,45.5536c0.0722,0.0041,0.2119-0.1367,0.2211-0.22
		c0.033-0.3721-0.2617-0.2399-0.4483-0.2706C35.5931,45.2464,35.4363,45.5311,35.7807,45.5536z M35.552,45.0511
		c0,0.0012-0.0108,0.0107-0.0108,0.0107c0.0038,0.0008,0.0084,0.0005,0.0123,0.0012C35.5527,45.0593,35.553,45.0549,35.552,45.0511z
		 M105.5207,33.2389l-0.0046-0.0049c0.0012,0.001,0.0013,0.0025,0.0025,0.0036C105.5192,33.2381,105.5199,33.2384,105.5207,33.2389z
		 M16.9313,63.9474c0.2794-0.4348,0.9043-0.5194,1.0762-1.0636c-0.0368-0.6468,0.023-1.317-0.1305-1.9342
		c-0.2564-1.0275-0.9473-1.1492-1.6582-0.3704c-0.7999,0.8739-0.7462,1.946-0.7109,3.0143
		C15.9488,63.8441,16.4124,64.0073,16.9313,63.9474z M40.2439,4.5955c0.1167,0.3563,0.2211,0.7148,0.2964,1.0817
		c0.0322,0.1401,0.0737,0.2764,0.132,0.4096c0.0844,0.1862,0.1766,0.3666,0.2732,0.5447c0.0614,0.1159,0.1259,0.2276,0.2042,0.3328
		c0.0752,0.1037,0.1474,0.2069,0.2257,0.307c0.066,0.1064,0.1274,0.2165,0.1919,0.3229c0.0845,0.1754,0.152,0.3573,0.2181,0.5404
		c0.1289,0.4176,0.1059,0.846,0.0829,1.2721c-0.0092,0.1539-0.0154,0.3112-0.0107,0.4663c-0.0016,0.1643,0.0046,0.3312,0.023,0.4963
		c0.2165,0.5707,0.1857,1.1937,0.3731,1.7728c0.0031,0.1237,0.0046,0.2481,0.0092,0.372c-0.0952,0.1128-0.1935,0.2234-0.2932,0.3317
		c-0.0829,0.1244-0.1474,0.2579-0.1873,0.4018c-0.0215,0.1485-0.0261,0.2979-0.0077,0.4464
		c0.1413,0.6548,0.0998,1.3262,0.1935,1.9848c0.0369,0.1427,0.0891,0.2778,0.1627,0.4061c0.0737,0.1232,0.1459,0.2445,0.2226,0.3654
		c0.043,0.056,0.0814,0.1132,0.1259,0.1686c0.0753,0.1148,0.1458,0.2326,0.221,0.347c0.063,0.1205,0.1306,0.2406,0.2073,0.3527
		c0.083,0.1125,0.172,0.2203,0.2733,0.3156c0.0537,0.0456,0.106,0.0932,0.1581,0.1385c0.1152,0.0856,0.2411,0.1555,0.3746,0.2039
		c0.1505,0.0119,0.2887-0.0238,0.4145-0.1036c0.3055-0.3239,0.436-0.7807,0.7954-1.0637c0.8398-0.7688,2.0174-1.3825,1.3111-2.8634
		c-0.0399-0.1078-0.0475-0.2169-0.0214-0.3274c-0.2242-0.2699-0.172-0.5439-0.0154-0.8199c0.023-0.2188,0.0491-0.4383,0.0722-0.6571
		c0.1581-0.2338,0.1274-0.5363,0.2855-0.77c0.0062-0.2046,0.0107-0.4096,0.0138-0.6146c-0.5358-1.5707-0.7814-3.2507-1.741-4.664
		c-0.0229-0.1167-0.0475-0.233-0.0691-0.3497c0.063-0.6756-0.3056-1.1875-0.6572-1.7047C43.9609,3.8617,43.8028,3.7,43.6262,3.5573
		c-0.1137-0.0921-0.2334-0.1773-0.3624-0.2491c-0.1842-0.1124-0.3639-0.2352-0.5389-0.3607
		c-0.0599-0.0411-0.1183-0.0883-0.1766-0.129c-0.1244-0.0844-0.2564-0.1562-0.3961-0.2073
		c-0.2257-0.0737-0.4576-0.1128-0.6956-0.1175c-0.2457-0.0012-0.4897,0.0303-0.7231,0.114
		c-0.1566,0.0695-0.2871,0.1712-0.393,0.3032c-0.2104,0.38-0.2318,0.7919-0.1965,1.2125
		C40.1656,4.284,40.1948,4.4409,40.2439,4.5955z M15.8823,13.2163c-0.0029-0.0037-0.0076-0.0052-0.0104-0.009l0.0138,0.0134
		C15.8841,13.2195,15.8838,13.2176,15.8823,13.2163z M20.5265,26.4627c0.1801,0.2219,0.1217,0.557,0.3558,0.7537
		c0.1106,0.1437,0.244,0.262,0.4026,0.3495c0.1044-0.0012,0.2042,0.0172,0.3009,0.0557c0.1306,0.1071,0.2595,0.2135,0.3977,0.3067
		c0.106-0.0088,0.2104,0.0016,0.3132,0.0299c0.5205,0.3466,0.7922-0.0161,1.0655-0.3735c0.1244-0.1236,0.2426-0.2544,0.3455-0.3984
		c-0.0031-0.3206-0.0062-0.6411-0.0093-0.9619c-0.0859-0.1631-0.2088-0.2975-0.3394-0.4233l0.0016,0.0023
		c-0.1075-0.1267-0.2196-0.2503-0.3316-0.3712l-0.0185-0.0134c-0.1289-0.1013-0.2487-0.2123-0.3546-0.3359l-0.0061-0.0035
		c-0.132-0.1209-0.2611-0.2448-0.4161-0.3343c-0.1059,0.0077-0.2058-0.0042-0.3055-0.0357
		c-0.2442-0.1861-0.4806-0.1824-0.7032,0.0369l0.0107-0.0116c-0.1336,0.109-0.2487,0.2342-0.3731,0.3516l0.0016-0.0008
		c-0.2103,0.1969-0.1382,0.5305-0.3562,0.7231C20.5142,26.0263,20.5204,26.2439,20.5265,26.4627z M105.1521,26.0993
		c-0.2779-0.0372-0.545-0.0975-0.7032-0.3662c-0.5742,0.0008-1.1545-0.0445-1.7241,0.0134
		c-1.4125,0.1413-1.7948,0.6049-1.824,2.1057c1.2958,0.0012,2.5932,0,3.8906,0.0012
		C105.1475,27.317,105.1981,26.7183,105.1521,26.0993z M151.5916,49.3141c0.0014,0.0016,0.0017,0.0032,0.0031,0.0048
		c0.0005-0.0002,0.0011-0.0004,0.0015-0.0006L151.5916,49.3141z M153.0302,43.943l-0.0031,0.0028
		c0.1866-0.2167,0.5262-0.1447,0.7081-0.3729c0.1398-0.106,0.2522-0.2383,0.3544-0.3792c0.0076-0.1129,0.0307-0.2238,0.066-0.3309
		c0.0845-0.1228,0.1859-0.2284,0.3086-0.3136l0.0246-0.0281c0.1658-0.2433,0.1688-0.4828-0.0185-0.7177l-0.0076-0.0077
		c-0.1305-0.1068-0.2442-0.2303-0.3669-0.3455l0.0045,0.0047c-0.1949-0.218-0.5328-0.1432-0.7292-0.3574
		c-0.1013,0.0107-0.2026,0.0116-0.3026,0.0012c-0.2794,0.4383-0.5067,0.9224-0.6556,1.3987
		C152.235,43.0617,152.0706,43.7899,153.0302,43.943z M149.1028,51.093c0.1198-0.1244,0.2426-0.132,0.3654-0.0046
		c0.2333,0,0.4652,0,0.6985,0c0.3133-0.2499,0.8169,0.063,1.0748-0.3589l-0.0015,0.0039c0.1166-0.1178,0.238-0.2311,0.3654-0.3382
		l0.0154-0.0103c0.2644-0.363,0.2768-0.7187-0.0261-1.0661c-0.9103,0.4628-2.0655,0.2435-2.8558,1.0327l-0.0229,0.0176
		c-0.1566,0.2192-0.5742,0.3217-0.327,0.7228C148.6269,51.093,148.865,51.093,149.1028,51.093z M153.7381,43.5706
		c-0.0008,0.001-0.002,0.0012-0.0028,0.0022c-0.0032,0.0024-0.0048,0.0062-0.008,0.0085L153.7381,43.5706z M159.818,51.0996
		c0.109-0.0157,0.218-0.0211,0.327-0.0165c0.1351-0.1101,0.264-0.2253,0.3884-0.3463v-0.0012
		c0.1152-0.1232,0.2334-0.2414,0.3577-0.3558l0.0016-0.0012c0.1289-0.1431,0.175-0.3093,0.1381-0.4989
		c-0.1458-0.4022-0.476-0.5159-0.8583-0.5462c-0.7216,0.01-1.1776,0.3842-1.4309,1.0386l-0.0015,0.0047
		c-0.1167,0.1201-0.2119,0.2629-0.3486,0.3635l0.0047-0.0015C158.7632,51.2808,159.3282,51.0394,159.818,51.0996z M143.0244,55.4335
		c0.7078,0.8748-0.2088,1.3687-0.4944,1.9902c-0.2994,0.6487-0.3486,0.6248,0.1396,1.1761c0.3394-0.0077,0.6786-0.015,1.0179-0.0227
		c0.1474-0.0905,0.2794-0.1984,0.4054-0.3155c0.1013-0.0315,0.2041-0.045,0.3086-0.0418c0.1551-0.0898,0.281-0.2135,0.4161-0.329
		l0.0107-0.0061c0.1735-0.2314,0.5005-0.1482,0.694-0.3405c0.106-0.0287,0.2134-0.0403,0.324-0.033
		c0.1259-0.1005,0.2533-0.1969,0.3824-0.2913c0.1089-0.0365,0.2195-0.0583,0.3332-0.0656c0.1335-0.104,0.2671-0.2077,0.39-0.322
		c0.0997-0.033,0.201-0.0476,0.3055-0.0422c0.155-0.0871,0.2794-0.2119,0.4192-0.3213l0.0154-0.0108
		c0.1719-0.2341,0.499-0.1612,0.6955-0.3501l0.0138-0.0096c0.1735-0.2288,0.4898-0.1509,0.6878-0.3236
		c0.1106-0.0342,0.2242-0.0518,0.3409-0.0499c0.2042-0.2,0.5251-0.1313,0.7355-0.3185c0.1166-0.0246,0.2333-0.035,0.3531-0.0315
		c0.1965-0.2141,0.522-0.1474,0.7278-0.3413l0.0107-0.0065c0.1735-0.231,0.5036-0.147,0.6971-0.3431
		c0.1075-0.0276,0.2165-0.0388,0.3285-0.0334c0.1612-0.1133,0.3573-0.1857,0.4771-0.3481c0.4951,0.0957,0.9002-0.2028,1.3408-0.3451
		l0.1612-0.0184h0.1613c0.132-0.1056,0.2687-0.2077,0.3884-0.329c0.1089-0.0226,0.2165-0.0314,0.3255-0.0284
		c0.1413-0.1041,0.2702-0.2219,0.3961-0.3455c0.2902-0.1793,0.5128-0.4299,0.7217-0.6952l0.0123-0.0161
		c0.0952-0.1224,0.2042-0.2291,0.327-0.3236c0.1075-0.028,0.2165-0.0438,0.3286-0.048c-1.1316-0.8794-2.171-0.0972-3.0553,0.377
		c-0.697,0.3717-1.371,0.6129-2.0881,0.6927c-0.3929-0.0894-0.8029-0.152-1.0609-0.4417c-1.5829-0.2634-3.1367-0.367-4.4693,0.7942
		c-0.7171,0.0031-1.4341,0.0072-2.1511,0.0107c-1.2421,0.0986-2.3552,0.4821-3.1997,1.4551l0.0077-0.0118
		c-0.0308,0-0.0569,0.0399-0.083,0.1193c-0.023,0.0772,0.0139,0.1494,0.1091,0.2184
		C141.6288,55.3894,142.3274,55.4116,143.0244,55.4335z M124.0998,8.2149l0.0107,0.0099c-0.0009-0.0013-0.0012-0.0025-0.0021-0.0038
		c0.2217,0.2079,0.4598,0.1943,0.7068,0.0488l0.0399-0.0356c0.0906-0.1382,0.1935-0.265,0.3101-0.3828
		c-0.1244-0.1381-0.2487-0.2763-0.3746-0.4149c-0.1321-0.0771-0.2565-0.1677-0.37-0.2714
		c-0.0906,0.0123-0.1812,0.0123-0.2733,0.0004c-0.3304,0.3407-0.2852,0.6939-0.039,1.0554
		C124.1056,8.2183,124.1026,8.2175,124.0998,8.2149z M107.3921,10.6496c0.2809-0.1716,0.2149-0.5278,0.4007-0.7496
		c-0.0016-0.1958-0.0016-0.3918-0.0016-0.5877c-0.0891-0.1872-0.2272-0.3258-0.4145-0.4126
		c-0.0768,0.0208-0.152,0.0181-0.2273-0.0076c-0.1458,0.089-0.264,0.2165-0.4146,0.3002l-0.0368,0.0345
		c-0.086,0.1332-0.192,0.2469-0.3209,0.3397l-0.0169,0.0207c-0.1091,0.1432-0.2334,0.273-0.3117,0.4376
		c0.0246,0.0748,0.0215,0.1486-0.0061,0.2207c0.0967,0.1678,0.2303,0.3002,0.39,0.4053
		C106.7534,10.6504,107.0727,10.6496,107.3921,10.6496z M113.7332,22.8717l0.003-0.0028c-0.0002,0.0002-0.0005,0.0003-0.0007,0.0006
		C113.7347,22.8703,113.7339,22.8709,113.7332,22.8717z M111.5883,23.2316l0.0046,0.0046c0.1274,0.1155,0.2534,0.2287,0.3792,0.3466
		c0.2196-0.0015,0.4376-0.0037,0.6556-0.0049c0.1259-0.1017,0.2518-0.2004,0.3808-0.2964c0.1029-0.041,0.2088-0.0629,0.3193-0.0664
		c0.1518-0.097,0.285-0.2159,0.4077-0.3457c0.1158-0.1178,0.2364-0.2296,0.363-0.3352l0.0154-0.015
		c0.1045-0.1267,0.2181-0.2457,0.3394-0.3566l0.0031-0.0031c0.1228-0.1294,0.2426-0.2614,0.3378-0.4145
		c-0.0061-0.106,0.0092-0.2096,0.0414-0.3102c0.1889-0.3615,0.2442-0.7166-0.0522-1.0544l0.0169,0.0153
		c-0.1136-0.1531-0.2518-0.274-0.4253-0.3566c-0.0768,0.02-0.1551,0.0185-0.2304-0.0042c-0.2241,0.1827-0.5557,0.1278-0.7615,0.3446
		l0.0046-0.0052c-0.1152,0.1182-0.2379,0.2256-0.37,0.3235l-0.0276,0.0257c-0.0921,0.1321-0.2012,0.2469-0.3271,0.3463
		l-0.0139,0.0135c-0.0976,0.132-0.2214,0.2412-0.3273,0.3652c0,0,0.0001-0.0001,0.0002-0.0002l-0.0076,0.0085
		c0.0024-0.0028,0.005-0.0055,0.0074-0.0083c-0.1412,0.122-0.2654,0.2582-0.3468,0.4274c0.0046,0.1009-0.0123,0.198-0.0522,0.2901
		c-0.1044,0.1245-0.2119,0.2457-0.3224,0.3643l0.0092-0.01C111.3886,22.7503,111.3963,22.9887,111.5883,23.2316z M139.6283,52.4887
		l0.1228,0.0035c0.0246-0.2306,0.0707-0.4706-0.2103-0.5884c-0.0445-0.0192-0.1289-0.0177-0.1581,0.0127
		c-0.238,0.2479,0.0706,0.3888,0.1228,0.5812L139.6283,52.4887z M108.5098,7.8469c0.1013-0.0399,0.2041-0.0595,0.3132-0.0583
		c0.1597-0.0941,0.2979-0.2142,0.4084-0.3635l-0.0123,0.0133c0.1347-0.1021,0.2545-0.2222,0.3553-0.3578
		c-0.0002,0.0002-0.0004,0.0004-0.0006,0.0006l0.0138-0.0139c-0.0037,0.0051-0.0094,0.0083-0.0132,0.0133
		c0.1562-0.1143,0.2789-0.2547,0.354-0.4344c-0.0016-0.0997,0.0215-0.1941,0.0722-0.2824c0.0997-0.1278,0.2011-0.255,0.3024-0.3812
		c0.0016-0.1178,0.0229-0.233,0.0645-0.3431c0.1014-0.5946,0.3501-1.2011-0.1474-1.7441c-0.327-0.0061-0.6525-0.0123-0.978-0.018
		c-0.1029,0.1187-0.2272,0.2146-0.3654,0.2894l-0.0584,0.0591c-0.0706,0.1378-0.1703,0.2534-0.2948,0.3459l-0.0138,0.0154
		c-0.1167,0.1413-0.2426,0.274-0.3133,0.4464c0.0108,0.0975-0.0045,0.1904-0.0445,0.2802
		C108.0584,6.188,107.5365,7.1226,108.5098,7.8469z M160.2983,61.6332c0.0045,0.3163,0.0092,0.6326,0.0138,0.9489
		c0.0598,0.1596,0.1811,0.284,0.2718,0.4268c0.0491,0.0983,0.0737,0.2034,0.0767,0.3139c0.0921,0.1543,0.2119,0.288,0.3394,0.4161
		v0.0023c0.1212,0.1105,0.2318,0.2302,0.3301,0.36l0.0215,0.0237c0.129,0.0921,0.238,0.2043,0.3255,0.3363l0.0307,0.0307
		c0.1306,0.086,0.2411,0.1935,0.3271,0.3271l0.0307,0.0298c0.1305,0.086,0.2411,0.1935,0.3255,0.3271l0.0307,0.0307
		c0.1336,0.0882,0.2472,0.1957,0.3409,0.3239l0.02,0.0161c0.1331,0.0917,0.2415,0.2166,0.3715,0.3136
		c0.398,0.4161,1.0256-0.0236,1.4295,0.3758c0.1213,0.0154,0.2426,0.0292,0.364,0.0445c1.4279-0.0031,2.8082,0.572,4.2544,0.3516
		c0.1014-0.0422,0.2073-0.0583,0.3177-0.0499c0.132-0.0952,0.2625-0.1881,0.3947-0.2802c0.1013-0.0536,0.2103-0.0798,0.3239-0.0798
		c0.6277-0.3284,0.7398-0.8059,0.4097-1.4108l-0.0016-0.0047c-0.218-0.1804-0.1505-0.4913-0.3162-0.697
		c-0.0461-0.1013-0.0661-0.2079-0.0614-0.3194c-0.1836-0.2218-0.124-0.5607-0.3605-0.756c0.002,0.0052,0.0054,0.0077,0.0073,0.013
		l-0.0092-0.0154c0.0009,0.0007,0.0011,0.0017,0.0019,0.0024c-0.4388-1.1775-1.9237-0.5108-2.5152-1.4203l0.0261,0.0207
		c-0.3885-0.4499-1.0272,0.0139-1.4248-0.3931c-0.1213-0.0139-0.2411-0.0276-0.3624-0.0399
		c-0.2272-0.1704-0.5358-0.1297-0.7661-0.2948c-0.4591-0.0253-0.9212-0.0499-1.3802-0.0737
		c-0.1827-0.1175-0.3828-0.1252-0.5853-0.1212c0.0105-0.0671-0.0316-0.1279-0.1425-0.1751
		c-0.4591-0.0031-0.9197-0.0053-1.3787-0.0077c-0.1531,0.1335-0.1929,0.2771-0.1633,0.4271
		C160.8237,61.0584,160.4832,61.2331,160.2983,61.6332z M156.0887,84.9354c-0.0031,0.0119,0.0897,0.0482,0.1416,0.0763
		C156.1729,84.841,156.1189,84.8115,156.0887,84.9354z M32.6717,113.9489l-0.0027-0.0024c-0.0001,0,0,0-0.0001,0
		C32.6698,113.9473,32.6706,113.9481,32.6717,113.9489z M121.9409,41.7953c-0.0009,0.0021-0.0019,0.0043-0.0027,0.0063
		l0.0061-0.0119c-0.0013,0.0014-0.0018,0.0031-0.0028,0.0046c-0.0001,0.0001-0.0001,0.0002-0.0001,0.0002
		C121.9411,41.7948,121.9411,41.795,121.9409,41.7953z M117.0786,136.1731c0.0016-0.2196,0.0031-0.4422,0.0047-0.661
		c-0.0998-0.1436-0.2211-0.271-0.3332-0.4046l-0.0093-0.0122c-0.3171-0.1501-0.5348-0.4133-0.737-0.6891
		c-0.2009-0.2188-0.5281-0.1712-0.7493-0.3457c-0.3393-0.0084-0.6786-0.0154-1.0179-0.023c-0.7109-0.436-1.236,0.0161-1.781,0.3716
		l0.0092-0.0046c-0.4637,0.2487-0.803,0.6248-1.087,1.0594l-0.0016,0.003c-0.1228,0.1297-0.2441,0.2587-0.3393,0.41
		c0.0122,0.1044,0.0061,0.2057-0.0185,0.307c-0.2763,0.5834-0.2288,1.1745-0.0307,1.7687c0.0276,0.1152,0.0414,0.2318,0.0399,0.3501
		c0.1136,0.1221,0.2196,0.2495,0.3178,0.3838l0.0292,0.0322c0.1288,0.0844,0.2364,0.1949,0.3209,0.3255l0.0353,0.0337
		c0.1335,0.0921,0.2548,0.1996,0.3654,0.3178l-0.0015-0.0031c1.0947-0.0645,2.0496,1.0233,3.2119,0.3892
		c0.1013-0.0322,0.2043-0.0483,0.3101-0.0483c0.3369-0.1503,0.5561-0.3672,0.4847-0.7592c0.209-0.1555,0.2724-0.3825,0.2615-0.6472
		c0.0253-0.095,0.0376-0.1942,0.0423-0.2929c0.0261,0.0095,0.0462,0.023,0.0744,0.0311
		C117.4134,137.6686,116.9803,136.8356,117.0786,136.1731z M156.2329,85.0184l0.0031-0.0038
		c-0.0015-0.0009-0.0042-0.0019-0.0058-0.0028C156.2312,85.0145,156.232,85.0156,156.2329,85.0184z M131.0359,105.6508v0.0003
		c-0.3777-0.2043-0.8859-0.2096-1.0809-0.6986c-1.3757-0.5159-2.845-0.4928-4.2667-0.737c-0.651-0.1213-1.4049-0.5949-1.8808,0.1796
		c-0.3808,0.6203,0.0997,1.2345,0.4069,1.7841c0.4545,0.8168,1.1469,1.467,1.6581,2.25c0.3025,0.4491,0.8982,0.0844,1.2313,0.4414
		l-0.0015-0.0016c0.1213,0.1198,0.2379,0.2442,0.3669,0.3562l-0.0031-0.0077c0.132,0.1274,0.2917,0.1796,0.4744,0.1612
		c1.1914-0.5421,1.8209-1.7473,2.8972-2.4458c0.3608-0.2334,0.4468-0.803,0.2027-1.2821
		C131.0404,105.6508,131.0359,105.6508,131.0359,105.6508z M117.3511,108.4202c-0.9442-0.502-1.8025-0.515-2.2737,0.6741
		c-0.1735,0.5995,0.152,1.2121-0.0446,1.8101c0,0.2256,0,0.4545-0.0015,0.6802c0.1182,0.1213,0.218,0.2572,0.3362,0.3739
		c0.0169,0.1113,0.0261,0.2187,0.0246,0.33c0.1105,0.1421,0.2365,0.268,0.3776,0.3808c0.109-0.0015,0.2196,0.0038,0.3301,0.02
		c0.1166,0.1221,0.2564,0.2226,0.3792,0.3393c0.2318,0.0054,0.4636,0.0146,0.6939,0.02c0.2411,0.192,0.4775,0.1851,0.7078-0.02
		l-0.0031,0.0023c0.7093-0.2503,1.1806-0.7332,1.4201-1.4448c0.0031-0.1121,0.0107-0.2257,0.0261-0.3408
		c0.4146-0.6387,0.4069-1.2421-0.1505-1.801C118.5563,109.1212,117.9637,108.7497,117.3511,108.4202z M70.5189,121.8147
		l-0.0118,0.0104c0.0038-0.0042,0.0087-0.0042,0.0126-0.0082c0-0.0008-0.0002-0.0014-0.0004-0.002
		c0,0.0001-0.0001,0.0001-0.0001,0.0001C70.5192,121.8148,70.519,121.8148,70.5189,121.8147z M174.2482,108.9635
		c-0.1182-0.1251-0.2502-0.2365-0.376-0.353c-0.1137-0.0016-0.2288-0.0092-0.3408-0.0277
		c-0.1229-0.1052-0.2411-0.2188-0.3562-0.3354l0.0031,0.0039c-0.4268-0.3378-0.8875-0.6034-1.4248-0.7217l-0.0016-0.0023
		c-0.201-0.2027-0.5312-0.1313-0.7262-0.3478c-0.1167,0-0.2349-0.0061-0.3516-0.0169c-0.1935-0.2057-0.5296-0.1197-0.7154-0.3423
		c-0.1198-0.0077-0.238-0.0146-0.3577-0.0215c-0.1229-0.1121-0.2472-0.221-0.37-0.3332c-0.1151,0.0023-0.2288-0.0031-0.3424-0.0169
		c-0.1166-0.1245-0.2549-0.2211-0.3746-0.3378c-0.1137,0.0031-0.2257-0.0023-0.3378-0.0145
		c-0.1151-0.1275-0.2549-0.228-0.3823-0.3417c-0.2319-0.0107-0.4621-0.02-0.6924-0.0284c-0.1245-0.1075-0.2426-0.2188-0.3593-0.3354
		c-0.1198,0-0.238-0.0061-0.3547-0.0215c-0.0867-0.0729-0.1823-0.0912-0.2821-0.0843c0.0028-0.0089,0.006-0.013,0.0087-0.0231
		c0.0215-0.0813-0.0107-0.155-0.0983-0.2256c-0.1151,0.0046-0.2288,0.0107-0.3439,0.0238l0.0077-0.0468
		c-0.0822-0.0614-0.1795-0.0927-0.2786-0.119c0.016-0.0754-0.0152-0.1481-0.096-0.2164c-0.2349,0.0084-0.4667,0.0161-0.7001,0.023
		l0.0047-0.043c-0.1268-0.1069-0.2491-0.22-0.3652-0.3353c0.0004,0.0004,0.0009,0.001,0.0013,0.0014l-0.0031-0.003
		c0.0006,0.0006,0.0012,0.0011,0.0018,0.0016c-0.1132-0.114-0.2233-0.2325-0.3304-0.3556c-0.0214-0.1113-0.0307-0.225-0.0307-0.3385
		c-0.1136-0.1244-0.2119-0.2618-0.3377-0.3792c-0.5036-0.5804-1.2038-0.2518-1.8041-0.3869
		c-0.1228-0.1136-0.2564-0.2142-0.3854-0.3209c-0.2272-0.0077-0.456-0.0161-0.6848-0.0246
		c-0.1505-0.145-0.3409-0.1566-0.5343-0.1589c-0.0561,0.0013-0.1076-0.0111-0.161-0.0178
		c-0.0051-0.0553-0.0118-0.1102-0.0155-0.1656c-0.1197,0.0061-0.2395,0.0138-0.3592,0.02l0.0076-0.0476
		c-0.0877-0.059-0.1815-0.096-0.2792-0.1186c0.0107-0.0736-0.0166-0.1436-0.0908-0.2084c-0.4099,0.0238-0.7293-0.2041-1.0671-0.3785
		c-0.1136-0.119-0.2241-0.1167-0.3316,0.0069c-0.4759,0.9074-0.3638,1.8915-0.3762,2.8596
		c0.1689,0.2602,0.5343,0.1313,0.7155,0.3645v-0.0015c0.4515,0.4686,0.8898,0.9709,1.6084,0.7586
		c0.1892,0.0955,0.3841,0.1804,0.5579,0.3054c0.2303,0.0108,0.4591,0.0215,0.6894,0.0345c0.5158,0.5443,1.2098,0.1237,1.7887,0.3324
		c0.1213,0.0092,0.241,0.0176,0.3608,0.0284c0.0811,0.0657,0.1735,0.1034,0.2723,0.1233c-0.0084,0.0702,0.0208,0.1369,0.1023,0.1999
		c0.2319-0.0032,0.4621-0.0093,0.6909-0.0108l-0.0045,0.0469c0.0867,0.071,0.1686,0.0685,0.2488,0.0322
		c-0.0008,0.0139-0.0029,0.021-0.0031,0.0377c0,0.0952,0.043,0.1796,0.1305,0.2548c0.1152,0,0.2318,0.0077,0.3469,0.0215
		c0.1183,0.1189,0.2549,0.2165,0.3747,0.3332c0.112-0.0045,0.2226,0,0.3347,0.0122c1.3173,0.3394,2.1433,1.6628,3.5712,1.7811
		c0.1244,0.1205,0.2534,0.2357,0.3854,0.3469c0.1106-0.0015,0.2227,0.0046,0.3332,0.0215c0.1228,0.1105,0.241,0.2256,0.3593,0.3424
		l-0.0031-0.0047c0.1935,0.2149,0.5297,0.1451,0.7247,0.3592c0.1166,0,0.2334,0.0031,0.3501,0.0169
		c0.2948,0.304,0.783,0.0061,1.067,0.3439c0.1182,0,0.2349,0.0046,0.3531,0.0138c0.3593,0.2549,0.717,0.2157,1.0747-0.0052
		l0.0078-0.0054c0.1074-0.1198,0.2226-0.2334,0.3439-0.3393c0.2763-0.1596,0.3439-0.4252,0.3577-0.717
		c-0.1198-0.1228-0.2303-0.2548-0.3547-0.373v0.0011H174.2482z M176.2599,72.8604c-0.0014-0.0015-0.0031-0.002-0.0045-0.0035
		l0.0185,0.0154C176.269,72.8687,176.2647,72.864,176.2599,72.8604z M166.5888,80.3732l0.0123-0.0069
		c-0.0017,0.001-0.0036,0.0012-0.0053,0.0022C166.5934,80.37,166.5913,80.3717,166.5888,80.3732z M157.9864,83.2287
		c0.1534-0.1036,0.2825-0.2326,0.3945-0.38c0-0.1106,0.0124-0.2209,0.0338-0.3278c0.1075-0.1228,0.215-0.2471,0.3209-0.3708
		l-0.0122,0.0108c0.2333-0.1729,0.1535-0.5205,0.3838-0.6956l0.0076-0.0037c0.14-0.8929-0.911-0.1714-1.0403-0.6861
		c0.0044-0.0019,0.0088-0.0037,0.0132-0.0056c0.4483-0.0039,0.8967-0.0062,1.3435-0.01c0.1082,0.1653,0.2107,0.2142,0.3071,0.1109
		c0.1377,0.3478,0.2498,0.7233,0.7814,0.6192c0.1274,0.0015,0.2564,0.0039,0.3838,0.0047c0.2425,0.1619,0.4759,0.1527,0.7016-0.033
		l0.0047-0.0039c0.1842-0.2227,0.5128-0.1566,0.7093-0.3547l0.0031-0.0023c0.2809-0.34,0.7646-0.0491,1.0609-0.34
		c0.1167-0.02,0.2349-0.0277,0.3531-0.0246c0.9056-0.4934,1.9564,0.1366,2.8604-0.3688c0.5692-0.3529,0.8567-0.7756,0.3431-1.3978
		l0.0154,0.0061c-0.1889-0.2365-0.5297-0.1665-0.737-0.3669c-0.5757,0-1.1515,0-1.7273,0c-0.2042,0.2005-0.5281,0.1291-0.7354,0.324
		c-1.0733-0.0014-2.1465-0.003-3.2212-0.0037c-0.2763-0.2357-0.5835-0.2941-0.9243-0.1574
		c-0.0513,0.0709-0.082,0.1409-0.1093,0.2107c-0.0136-0.0097-0.0241-0.02-0.0381-0.0296c-0.6777-0.2256-0.4875-1.0854-1.0282-1.4128
		c-0.0001-0.0068-0.0012-0.0129-0.0013-0.0197c0.0584,0.0498,0.1106,0.1041,0.1774,0.1475
		c0.8045,0.0783,1.5307-0.2303,2.2707-0.4729c0.1121-0.0261,0.2272-0.0375,0.3424-0.0322c0.1269-0.1162,0.2583-0.228,0.3792-0.3525
		c0.2104-0.2126,0.1612-0.5403,0.3378-0.7683c0.0169-0.221,0.0338-0.4405,0.0522-0.6601c0.1827-0.2487,0.1796-0.4821-0.0599-0.6963
		l0.02,0.0085c-0.152-0.2334-0.5021-0.1367-0.6479-0.3824c-0.0461-0.0998-0.0691-0.2042-0.0691-0.3124
		c-0.0997-0.1466-0.221-0.2756-0.3423-0.4038l-0.0031-0.0038c-0.932-0.4161-1.5584,0.086-2.1433,0.7163
		c-0.0999,0.0322-0.2027,0.0398-0.3071,0.0229c-0.2211,0.1804-0.5389,0.1229-0.7554,0.3141
		c-0.3639,0.0168-0.7278,0.0345-1.0901,0.0522l0.0154-0.0921c-0.1612-0.0676-0.2809-0.205-0.4437-0.2703
		c-0.1075,0-0.2057-0.0322-0.2948-0.0952l-0.1382-0.0735l-0.0907,0.0701c0.0214-0.0984-0.0102-0.1933-0.0981-0.2858l-0.0092-0.0069
		c-0.37-0.238-0.7385-0.4783-1.1285-0.6833c-0.1949,0.0039-0.3899,0.0078-0.5834,0.0116c-0.1566,0.1006-0.3086,0.1397-0.4544-0.0177
		l0.0107,0.0093c-0.0788-0.0808-0.172-0.1301-0.2722-0.1655c0.0141-0.07-0.0126-0.1408-0.0933-0.2091l0.0138,0.0092
		c-0.1935-0.2287-0.5327-0.1604-0.7385-0.3623c-1.4156-0.003-2.8312-0.0046-4.2468-0.0069
		c-0.3884,0.4767-0.9412,0.2948-1.4325,0.3615c-0.1873,0.2135-0.5358,0.1321-0.7032,0.3816
		c0.0062,0.1021,0.0078,0.2065,0.0031,0.3101c0.3117,1.8724-1.0118,1.0555-1.8101,1.0985c-0.9626,0.0284-1.9253,0.0583-2.8895,0.086
		c-1.0057-0.8874-2.3844-0.6687-3.5129-1.1915c-0.1136-0.1236-0.2272-0.2494-0.3408-0.3739l-0.063,0.0576
		c-0.0073-0.0073-0.0146-0.0148-0.0219-0.0221c0.0283-0.0118,0.0562-0.0234,0.0847-0.0356
		c-0.1137-0.1266-0.2273-0.2524-0.3378-0.3776l-0.0799,0.076c-0.0043-0.0023-0.0087-0.0048-0.013-0.0071
		c0.0309-0.0229,0.0614-0.0457,0.0929-0.0689c0.1702-0.3656,0.4518-0.7329-0.0139-1.091c0-0.0005,0.0001-0.0008,0.0001-0.0014
		c-0.4039-0.8904-0.9796-1.7149-0.7355-2.8019c0.1121-0.4958-0.316-0.8459-0.6737-1.1559
		c-0.0002-0.0006-0.0001-0.0012-0.0003-0.0018c-0.0092-0.175-0.0184-0.35-0.0276-0.5266c0.2871-0.4913,0.568-0.9857,0.8659-1.4693
		c0.3655-0.5973,0.8629-0.9044,1.583-0.6495c0.367,0.5282,0.9319,0.6149,1.5092,0.7323c0.674,0.1398,1.3741,0.2857,1.7672,0.9635
		c0.099,0.1162,0.1977,0.2349,0.291,0.3563c-0.0003,0.0033-0.0006,0.0065-0.0009,0.0098c0.37,0.7047,0.7416,1.408,1.1116,2.1111
		c0.8398,1.3097,2.0696,1.6091,3.5128,1.3588c-0.0046-0.0967,0.0123-0.1888,0.0507-0.2764c0.433-0.3869,0.3178-1.034,0.6832-1.4524
		l-0.0122,0.0123c0.1089-0.0875,0.1796-0.1965,0.2134-0.3347c-0.0002-0.0078,0.0024-0.0133,0.0024-0.0209
		c0.0483-0.0067,0.097-0.0121,0.1449-0.0197c0.1167-0.119,0.2319-0.2373,0.3485-0.3563c0.0124-0.0795,0.0186-0.1604,0.0248-0.2411
		c0.0153-0.0154,0.0351-0.027,0.0483-0.044c0.0903,0.0995,0.1912,0.1099,0.3092,0.0027c0.2395-0.0169,0.4775-0.0323,0.717-0.0491
		c0.4037-0.4016,1.0316,0.0437,1.4308-0.3769l0.0001-0.0001c0.1346-0.1014,0.2411-0.2316,0.3531-0.3547l-0.0184,0.0168
		c-0.2364-0.9865-0.829-0.664-1.4079-0.3831c-0.3562-0.0047-0.7093-0.0085-1.064-0.0131c-0.2561-0.1797-0.5123-0.234-0.7678-0.1486
		c-0.0377-0.0616-0.0729-0.1244-0.115-0.1839c-0.0708-0.1069-0.1407-0.2126-0.2182-0.3148c0.0051-0.0697,0.01-0.1394,0.0152-0.2089
		c0.139-0.0015,0.2725-0.0268,0.3979-0.0959c0.0277,0,0.0553-0.0491,0.0829-0.1458c0.0246-0.0968-0.0061-0.1912-0.0952-0.2856
		c-0.0184-0.1082-0.0261-0.2173-0.0245-0.327c-0.1045-0.1413-0.2334-0.2618-0.3547-0.3884l0.0046,0.0053
		c-0.0998-0.1113-0.2007-0.1242-0.3009-0.0499c-0.1273-0.1271-0.297-0.199-0.4422-0.3032c-0.2272-0.0346-0.456-0.0668-0.6832-0.099
		c-0.0544-0.0492-0.1091-0.0675-0.1641-0.0648c-0.0288-0.1999-0.0424-0.4047-0.2075-0.559l0.0093,0.01
		c-0.1091-0.1085-0.2028-0.2267-0.2872-0.3535c-0.0691-0.0729-0.1014-0.1601-0.0967-0.2598
		c-0.066-0.2127-0.2073-0.3574-0.4054-0.4507c-0.0859,0.0229-0.1689,0.0188-0.2533-0.0119c-0.7992,0.4833-1.77-0.2865-2.553,0.3227
		c-0.2192-0.347-0.4383-0.6951-0.6573-1.0427c0.5021-0.3865,0.3639-0.9204,0.327-1.4313c-0.1366-0.1309-0.2733-0.2676-0.4606-0.3282
		c-0.1751,0.0012-0.3516,0.0039-0.5266,0.0054c0.3163,0.7915-0.7446,0.8095-0.7861,1.3998
		c-0.6203,0.4595-0.8583,1.383-1.7856,1.4693c-0.5665-0.0249-1.1331-0.0476-1.7012-0.0702
		c-0.244-0.8395,0.0062-1.5322,0.6265-2.1138c-0.0016-0.3597-0.0031-0.7197-0.0047-1.0805
		c-0.2348-0.1808-0.3331-0.4295-0.3515-0.7166c-0.0989-0.2003-0.1991-0.401-0.2981-0.6016
		c0.1127,0.0053,0.2091-0.0302,0.2766-0.1388c-0.0169-0.1198,0.0016-0.2328,0.0553-0.3408
		c0.6172-1.0947-0.9611-1.5192-0.7615-2.4861c-0.046-0.0994-0.0706-0.2046-0.0752-0.3151
		c-0.1229-0.8475-0.7724-1.0878-1.4709-1.2743c-0.0796,0.0037-0.1463-0.0114-0.2014-0.0444
		c-0.0027-0.0165-0.0056-0.033-0.0081-0.0496c0.0688,0.0401,0.1467,0.0585,0.2401,0.0391c0.2405-0.1013,0.4358-0.2386,0.5129-0.4707
		c0.4673,0.2924,0.772,0.0601,1.0132-0.3776l0.0015-0.005c0.1121-0.1279,0.2319-0.2464,0.3424-0.3738l-0.0076,0.0096
		c0.1292-0.1136,0.253-0.2309,0.3518-0.3734c-0.0037,0.0027-0.0058,0.0069-0.0095,0.0095l0.0169-0.0173
		c-0.0021,0.003-0.0053,0.0048-0.0074,0.0078c0.1375-0.0977,0.2542-0.215,0.3537-0.3511c-0.0013,0.0009-0.0024,0.0022-0.0038,0.0032
		l0.0168-0.0161c-0.0036,0.005-0.0094,0.0079-0.013,0.0129c0.1424-0.0982,0.2553-0.2262,0.3785-0.3449l-0.0016,0.0004
		c0.1566-0.1387,0.37-0.2078,0.4806-0.4015c0.002-0.0118-0.0023-0.0223-0.0011-0.034c0.3136-0.1053,0.7485-0.0864,0.5968-0.6631
		c-0.2319,0.0112-0.4622,0.0235-0.6925,0.0354c-0.0338,0-0.0706,0.0384-0.1074,0.1151c-0.0208,0.0435-0.0187,0.0881-0.0012,0.1338
		c-0.0959-0.0095-0.1871,0.0092-0.2691,0.0827c-0.0891,0.0507-0.1859,0.0661-0.2886,0.0469
		c-0.3347,0.2575-0.7938,0.0461-1.1316,0.2952c-0.1227-0.0016-0.2456-0.0031-0.3684-0.0031
		c-1.0951-0.1538-2.134,0.2713-3.2011,0.4131c-0.2717-0.0553-0.5439-0.1097-0.8077-0.1803
		c-0.264-0.1663-0.5266-0.3374-0.8198-0.4476c-0.2822-0.0969-0.5654-0.182-0.8618-0.2176c0.1139-0.4996-0.0634-1.1631,0.7712-1.2685
		c0.1151-0.0145,0.2027-0.2525,0.304-0.3865c0.1089-0.2445,0.2179-0.489,0.327-0.7335c-0.3009-0.8433-1.2052-0.9324-1.7841-1.4295
		c-0.393,0.0262-0.7062-0.18-1.0271-0.3607c-0.3684-1.9207-0.9027-2.2865-2.6453-1.6578c-0.5635,0.2038-1.1239,0.2161-1.6904,0.3005
		c-0.1335-0.1221-0.2672-0.2452-0.4023-0.3684c-0.2733-0.0534-0.5036-0.1785-0.6602-0.4195
		c-0.1183-0.1194-0.2365-0.2399-0.3562-0.3604c-0.1105-0.0173-0.2226-0.0292-0.3347-0.0365
		c-0.3442-0.2664-0.3845-0.6255-0.3988-0.9922c0.0356-0.0972,0.083-0.1881,0.1101-0.2898c0.0991-0.27,0.0347-0.5895,0.2466-0.8246
		c0.0001-0.0001,0.0001-0.0002,0.0001-0.0003c0.0002-0.0002,0.0002-0.0004,0.0004-0.0007c0.1964-0.4594,0.4933-0.9478-0.3347-1.1013
		c-0.1243-0.0042-0.2518-0.0083-0.3792-0.013c-0.1812-0.1608-0.5113-0.0472-0.628-0.3336l-0.0598-0.0514
		c-0.1459-0.063-0.2703-0.1547-0.3747-0.276l0.0016,0.002c-0.1874-0.2073-0.5236-0.1344-0.7002-0.3658l-0.0092-0.0057
		c-0.1332-0.1034-0.2451-0.2308-0.3752-0.338c0.0011,0.0016,0.001,0.0036,0.0021,0.0052l-0.0031-0.0061
		c0.0003,0.0003,0.0007,0.0006,0.001,0.0009c-0.1196-0.1774-0.1257-0.3858-0.1576-0.5867c-0.04-0.2633-0.0116-0.5355-0.0828-0.7947
		c0.0964,0.1111,0.1801,0.0984,0.247-0.0704c-0.0185-0.0976-0.0216-0.1946-0.0047-0.2925c-0.1121-0.1428-0.218-0.2944-0.3761-0.3922
		l-0.0031,0.0222c-0.889-0.4118-1.7626-0.2537-2.6317,0.0752c-0.39,0.3358-0.9136,0.5528-1.0149,1.1431
		c0.0133,0.0645,0.0412,0.1126,0.0661,0.164c-0.3205,0.0263-0.6413,0.0515-0.963,0.0767c-0.2615-0.5134-0.7838-0.6403-1.2694-0.8268
		c-0.2021-0.0869-0.4129-0.1591-0.5884-0.3008c0.0007,0.0007,0.0012,0.0015,0.0019,0.0022l-0.0077-0.0058
		c0.0019,0.0015,0.0041,0.0021,0.0059,0.0036c-0.1159-0.1176-0.2213-0.2433-0.3159-0.3762l-0.0169-0.0315
		c-0.2579-0.1517-0.172-0.4913-0.37-0.6756l-0.0139,0.0127c-0.3326-0.5794-0.8963-0.9497-1.3104-1.453
		c0.4092-0.3665,0.8183-0.7337,1.2275-1.1002c0.043-0.1954,0.0859-0.3919,0.1274-0.5877c0.1044-0.0379,0.2087-0.0718,0.3147-0.1017
		c0.0292-0.1201,0.0583-0.2402,0.0876-0.3603l-0.1505,0.0529c0.0232-0.0825,0.0464-0.1654,0.0695-0.2484
		c0.1406-0.0138,0.258-0.0699,0.3404-0.1945c0-0.1148,0.0292-0.2227,0.086-0.3229c0.0875-0.1328,0.1781-0.2633,0.2733-0.3919
		c-0.0031-0.1129,0.023-0.2206,0.0783-0.3213c0.0952-0.1351,0.1858-0.2752,0.2702-0.4191c-0.0184-0.0979-0.0062-0.1927,0.0367-0.284
		c0.1198-1.4352-0.8044-0.7881-1.4386-0.7205c-0.1244-0.0128-0.2487-0.0255-0.373-0.0377c-0.0862-0.052-0.1786-0.0782-0.2739-0.0919
		c0.0002-0.0015,0.0006-0.002,0.0007-0.0036c0.0061-0.0797-0.0446-0.1436-0.149-0.1888c-0.109-0.013-0.2103-0.0491-0.3039-0.1082
		c-0.126-0.0673-0.2288-0.1602-0.3087-0.2787l-0.023-0.0181c-0.479-0.2168-0.9565-0.228-1.4325,0.0077l-0.0154,0.0085
		c-0.1673,0.2315-0.501,0.1628-0.6804,0.3767c0.0013-0.0017,0.0018-0.0036,0.0032-0.0054l-0.0153,0.015
		c0.0034-0.0044,0.0085-0.0053,0.012-0.0094c-0.2817,0.3434-0.232,0.6995-0.0396,1.0622l0.0169,0.0196
		c0.1289,0.1006,0.2441,0.213,0.3439,0.3397l0.0153,0.0132c0.1243,0.093,0.261,0.1586,0.413,0.1947
		c0.2207,0.043,0.4057-0.0208,0.5659-0.1654c-0.0183,0.0305-0.0422,0.0562-0.0561,0.0906c-0.0092,0.0779-0.0215,0.1543-0.0292,0.231
		c0.0751,0.3732-0.1142,0.823,0.1988,1.1247c-0.3934,0.5619-0.5231,1.2852-1.0694,1.7541
		c-0.0848,0.1243-0.1824,0.2002-0.2868,0.2507c-0.3176-0.0265-0.633-0.0662-0.9399-0.1574
		c-0.4346-0.147-0.9335-0.1286-1.2867-0.4852l-0.0046-0.0031c-0.223-0.1821-0.1569-0.514-0.363-0.7034
		c-0.0811-0.0668-0.1711-0.1129-0.2659-0.1485c0.0144-0.0739,0.0133-0.1475-0.0176-0.2197l-0.0644-0.0557
		c-0.1414-0.0832-0.2749-0.1785-0.4008-0.2859c-0.3193,0.0046-0.6371,0.0089-0.9565,0.0138
		c-0.1688,0.0753-0.2947,0.2108-0.436,0.3229l-0.0107,0.0046c-0.0874,0.0856-0.1091,0.1855-0.0937,0.2925
		c-0.2092,0.0536-0.4074,0.1284-0.5434,0.3c-0.0366-0.0172-0.0724-0.0238-0.1092-0.0449c-0.2426-0.0603-0.4669-0.0314-0.6694,0.1229
		c-0.6111,0.1179-1.2206,0.1089-1.8286-0.0327c-0.059,0.0183-0.1199,0.0379-0.1795,0.0573c-0.1907-0.0658-0.3739-0.143-0.4915-0.336
		c-0.2917-0.0124-0.5297-0.1287-0.7109-0.3605c-0.132-0.1051-0.2625-0.2095-0.3945-0.3147
		c-0.6111-0.1139-0.9443-0.5074-1.0825-1.0928c0.0353-0.1244,0.0707-0.2479,0.1075-0.3723
		c0.0047-0.3569,0.0092-0.7127,0.0139-1.0701c-0.0353-0.1186-0.0706-0.2376-0.106-0.3561c0.0015-0.1191,0.0046-0.2385,0.0061-0.3574
		c-0.4728-1.2118-0.7292-1.2947-2.0957-0.676c0.0001,0.0002,0.0001,0.0003,0.0002,0.0005c-0.0001,0-0.0001-0.0001-0.0002-0.0001
		c-1.3448-0.8985-1.3448-0.8985-2.151-0.023v0.0016c-0.4867,0.5707-1.0041,1.0613-1.847,0.7446
		c-0.4698-0.1278-0.9381-0.2564-1.4064-0.3842c-0.1258-0.2315-0.2518-0.4633-0.3776-0.6944l0.0245-0.0065
		c-0.0997-0.1374-0.2195-0.2595-0.3162-0.3985l-0.0169-0.0222c-0.1199-0.073-0.2058-0.1746-0.2626-0.3036
		c-0.0752-0.0798-0.1198-0.1755-0.1305-0.2848c-0.0721-0.188-0.1965-0.3324-0.3669-0.4384l0.02,0.0269
		c-0.5036-0.5078-1.2436-0.4257-1.8286-0.7343c-0.1105,0.0084-0.2149-0.0138-0.3117-0.0668
		c-0.3316-0.2396-0.7861-0.0147-1.1054-0.2956c-0.2073,0-0.4161-0.0011-0.6218-0.0015c-0.3916,0.2384-0.783,0.2176-1.1746,0.0058
		c-0.7937,0.0008-1.586,0.0016-2.3797,0.0019c-0.1428,0.0361-0.2011,0.1302-0.1827,0.2787c0.0096,0.0041,0.0141,0.0088,0.0228,0.013
		c-0.3841,0.0049-0.7703,0.0097-1.1558,0.0144c-0.2357-0.0159-0.4715-0.0178-0.7077,0.0088
		c-0.0503,0.0007-0.1004,0.0012-0.1507,0.0019c-0.132-0.1174-0.2717-0.2265-0.3961-0.3512
		c-1.2022-1.2091-3.0215-1.6386-3.9796-3.1532c-0.1136-0.2576-0.2257-0.5152-0.3378-0.7724
		c-0.0879-0.125-0.173-0.2494-0.2582-0.3736c0.0475-0.0008,0.0941,0.0018,0.1431-0.0044c1.1776-0.3459,2.3091-0.7477,2.6469-2.1357
		c-0.0138-0.1109-0.0138-0.2215-0.0031-0.3328c-0.1642-0.7074-0.0598-1.4589-0.3454-2.1475l-0.0031-0.0012
		c-0.1198-0.1089-0.2257-0.2298-0.3209-0.3615l-0.02-0.0299c-0.172-0.1225-0.2227-0.3217-0.3087-0.4963
		c-0.0284-0.0719-0.0622-0.1414-0.0938-0.2119c-0.0061-0.1079-0.0126-0.2154-0.0182-0.3236
		c-0.0479,0.0012-0.0952,0.0059-0.1426,0.0087c-0.0395-0.0696-0.0759-0.1409-0.1214-0.2071
		c-0.1289-0.1824-0.2993-0.3151-0.5035-0.4015c-0.0019-0.0006-0.0037-0.0008-0.0056-0.0014
		c-0.2648-0.7297-0.5294-1.4396-1.3547-1.8264c-0.5681-0.2661-0.7523-0.8667-0.6817-1.5046
		c0.1274-0.1268,0.2549-0.2542,0.3808-0.3812c0.2012-0.3562,0.2303-0.7059-0.0338-1.0464l0.0031,0.0093
		c-0.4514-0.4875-0.9534-0.9278-1.3802-1.4409c-0.0016-0.1221-0.0016-0.2438-0.0031-0.3663c0.0215,0,0.043-0.038,0.0645-0.1152
		c0.0184-0.076-0.0046-0.1516-0.0721-0.226c-0.0215-0.1141-0.0338-0.2284-0.0338-0.3455c-0.1136-0.1201-0.2211-0.2468-0.3224-0.3796
		l-0.0261-0.0311c-0.129-0.0874-0.235-0.196-0.3209-0.3254L70.8755,6.761c-0.1335-0.096-0.2594-0.2012-0.3776-0.3152
		c-0.106,0.0054-0.2134,0.0054-0.3194,0.0015c-0.132,0.1178-0.2579,0.2415-0.3715,0.3777c0.0014,0.114-0.0078,0.2269-0.0308,0.3389
		c-0.1765,0.2354-0.1765,0.4703,0.0077,0.7021c0.023,0.1078,0.0307,0.2176,0.0261,0.3289c0.1044,0.1278,0.2103,0.2553,0.3162,0.3823
		c0.0292,0.106,0.043,0.2146,0.043,0.324c0.106,0.1446,0.2211,0.278,0.3576,0.3928c-0.0011-0.0021-0.0018-0.0042-0.0029-0.0063
		l0.0031,0.0065c-0.0001,0-0.0001-0.0002-0.0002-0.0002c0.4376,0.8511,0.486,1.9203,1.3989,2.5071
		c0.0062,0.7139,0.0107,1.4287,0.0169,2.1429c-0.0193,0.5834,0.3147,0.5613,0.7043,0.4455
		c-0.0041,0.0573-0.0055,0.1145-0.005,0.1716c-0.0991,0.0412-0.198,0.0817-0.2832,0.1514
		c-0.1013,0.0952-0.1904,0.1965-0.2672,0.3128c-0.1136,0.1562-0.241,0.2937-0.3992,0.403c-0.1091,0.0534-0.2242,0.0968-0.3409,0.139
		c-0.1873,0.0345-0.37,0.0149-0.545-0.0599c-0.0522-0.0346-0.1044-0.0787-0.1597-0.1144c-0.0921-0.0975-0.1873-0.2014-0.284-0.2982
		c-0.0688-0.0695-0.1497-0.1144-0.2365-0.1475c-0.1119-0.4509-0.2226-0.9019-0.3331-1.3533
		c-0.1167-0.1224-0.2318-0.2445-0.347-0.3666c-0.3578-0.4758-0.7155-0.953-1.0717-1.4289
		c-0.5416-0.3311-0.5309-1.0608-1.0309-1.4218c0.0265-0.0309,0.0574-0.0559,0.079-0.0936c0.0553-0.2956-0.0184-0.5866-0.0215-0.8794
		c0.0092-0.2745,0.0691-0.5524-0.0798-0.8122C67.292,8.4917,67.2797,8.39,67.2844,8.2852c-0.0968-0.1562-0.215-0.2932-0.3593-0.4065
		l0.0093,0.0112c-0.1089-0.1232-0.218-0.246-0.327-0.3696c-0.0385-0.099-0.0523-0.201-0.0461-0.3071
		c-0.1735-0.2257-0.1168-0.5458-0.3117-0.7638c-0.0261-0.1121-0.0369-0.2261-0.0292-0.3416
		c-0.2058-0.2031-0.1413-0.5339-0.3486-0.737V5.3693c-0.1197-0.1106-0.2303-0.2315-0.3331-0.3601l-0.02-0.0199
		c-0.1274-0.0972-0.2411-0.2104-0.3408-0.3374L65.161,4.6354c-0.1262-0.1042-0.2491-0.2146-0.3634-0.3304
		c-0.3374-0.2626-0.6918-0.2114-1.0506-0.0523c-0.0952,0.0418-0.1965,0.0641-0.3009,0.0641
		c-0.3363,0.5109-0.5052,1.1558-1.1408,1.4283l0.0092-0.0107c-0.1397,0.1124-0.2533,0.2479-0.3623,0.3907
		c-0.0016,0.1148-0.02,0.2265-0.0522,0.3358c-0.3577,3.3729-0.3638,6.7179,0.737,9.9828c0.0583,0.3916-0.02,0.8273,0.3562,1.117
		c-0.0338,2.1572,0.1136,4.3102-0.6034,6.4316c-0.2978,0.8836-0.3608,1.9652,0.2104,2.8914
		c-0.0861,0.6909-0.1705,1.3826-0.2565,2.0735c-0.0354,0.1182-0.0338,0.2357,0.0061,0.3527
		c-0.043,0.2975,0.0476,0.5339,0.3163,0.6878c0.2718,0.638,0.9058,0.7934,1.4417,1.0828c0.0139,0.4134,0.043,0.92-0.4621,0.9918
		c-0.7569,0.1074-1.1561,0.6974-1.7165,1.0678c-0.3594,0.0479-0.7217,0.0959-1.0825,0.1439
		c-0.4498-0.2188-0.8536-0.484-0.9703-1.0203c0.6111-0.7911,0.8981-1.6098,0.2241-2.5164c-0.3347-0.4499-0.2149-1.0007-0.3193-1.502
		c-0.7799-1.0268-1.5185-1.3741-2.2493-0.9949c-0.8905,0.4622-0.5865,1.274-0.5051,1.9979
		c0.0184,0.1589,0.1519,0.3051,0.2349,0.4568c0.0245,0.8063-0.8368,1.0493-1.0763,1.6872l0.0077,0.0212
		c-0.0001,0.0002-0.0001,0.0003-0.0002,0.0005c-0.3605,0.1367-0.362,0.436-0.3375,0.7476c-0.129,0.6156-0.1904,1.255-0.4023,1.8404
		c-0.2901,0.8076-0.6509,1.622-1.7165,1.6666c-0.565-0.542-0.998-0.0234-1.3557,0.2583c-0.8782,0.6909-1.8255,0.9899-2.9248,0.843
		c0,0.001,0.0003,0.0016,0.0003,0.0026c-0.0576-0.1748-0.1608-0.3025-0.3504-0.345c0.0055,0.0018,0.008,0.004,0.0138,0.0057
		c0.023-0.1174,0.0061-0.2298-0.0538-0.335c-0.1182-0.2426-0.2395-0.4852-0.3577-0.7278c0.4775-0.6798,0.2211-1.5454,0.5942-2.2731
		c0.301-0.5858,0.241-1.3005,0.0599-1.9043c-0.3302-1.0985-0.2841-2.1997-0.258-3.3124c0.2611-0.0787,0.5328-0.3336,0.7892-0.0173
		c0.2594,0.3182,0.456,0.6955,0.7462,0.9795c0.5927,0.5815,1.1438,0.4376,1.2298-0.3573c0.0738-0.6744,0.2841-1.413-0.2471-2.0336
		c0.1151-0.9582-0.3255-1.9772,0.3116-2.8792c-0.0139-0.1174-0.0062-0.2348,0.0229-0.3485
		c0.2672-1.0605,0.2104-2.1233,0.0308-3.1866c-0.0122-0.1274-0.0215-0.2542-0.0322-0.3828c0.0261,0,0.0506-0.041,0.0675-0.1247
		c0.0185-0.0787-0.023-0.1489-0.1197-0.2108l-0.0031,0.025c-0.1121-0.0054-0.2211-0.0265-0.327-0.0648
		c-0.717-0.1758-1.4371-0.3797-2.1126,0.1285c0.0199,0.0891,0.0092,0.1743-0.0292,0.2556
		c-0.3347,1.6003-0.1781,3.1959,0.0367,4.7949c0.0225,0.0763,0.0483,0.1375,0.0739,0.1998
		c-0.528,0.0601-1.0512,0.1399-1.5139,0.4409c0.0108,0.0963-0.0046,0.1876-0.0476,0.2744c0.0277,0.9538,0.0568,1.9077,0.0845,2.8626
		c0.0997,0.129,0.1934,0.2609,0.2855,0.3946c-0.0167,0.1031-0.0366,0.2047-0.0595,0.3056
		c-0.0008,0.0003-0.0011,0.0011-0.0019,0.0014c-0.2457,0.0241-0.4606,0.1044-0.522,0.3719
		c-0.0568,0.2477,0.1719,0.6303-0.2917,0.674c-0.4023,0.0373-0.6356-0.2149-0.803-0.5603c-0.1981-0.41,0.1275-0.9459-0.3777-1.3408
		c-0.631,0.5914-0.367,1.2643-0.2503,1.9445c0.2242,1.3204,0.4238,2.6508-0.1673,3.9416c0.0031,0.1132-0.0062,0.2253-0.0292,0.3366
		c-0.175,0.1996-0.2656,0.4299-0.2364,0.6986c0.0415,0.1607,0.118,0.3015,0.2348,0.4195c-0.3005,0.1763-0.4486,0.4771-0.6017,0.7712
		c-0.1151,0.3408-0.1459,0.6894-0.1044,1.0448c0.0017,0.0108,0.007,0.0191,0.0089,0.0298
		c-0.8352,0.3248-1.6705,0.6498-2.5056,0.9748c-0.0186-0.1834-0.119-0.3041-0.2863-0.374
		c-0.0005-0.0009-0.0014-0.0016-0.0019-0.0025c-0.1041-0.095-0.2085-0.1904-0.3121-0.2855
		c0.0117-0.0446,0.0263-0.0847,0.0342-0.1356c-0.5896-1.4774-1.5691-1.305-2.6654-0.6276c-0.2717,0.1842-0.5527,0.3532-0.8198,0.542
		c-0.6111,0.3769-0.674,1.0602-0.9197,1.6413c-0.0185,0.2207-0.0384,0.441-0.0553,0.6609c-0.3654,0.2811-0.0798,0.7559-0.3209,1.074
		l0.0031-0.0011c-0.0948,0.1094-0.1392,0.2379-0.1577,0.3755c-0.05,0.011-0.1005,0.0229-0.1508,0.0332
		c-0.0493,0.2675-0.1306,0.5166-0.3655,0.6855c0.1995,0.479,0.4959,0.9588,0.0107,1.444c0.4591,1.812-0.3358,3.0792-1.6817,4.1072
		c-0.2494-0.3001-0.5918-0.4395-0.9622-0.5288c-0.1074,0.0012-0.2041-0.0322-0.2886-0.0998
		c-0.5849-0.1785-1.1684-0.1877-1.7502,0.0061c-0.2334,0.023-0.4652,0.0461-0.6971,0.0691c-0.47,0.1567-1.035,0.2323-0.8885,0.9166
		c-0.4146-0.2269-0.9959-0.0785-1.2932-0.567c-0.2297-0.1168-0.4595-0.2347-0.6891-0.3526
		c-0.0001-0.0004-0.0002-0.0007-0.0003-0.001c-0.0003,0.0002-0.0006,0.0003-0.0008,0.0004
		c-0.0002-0.0002-0.0005-0.0002-0.0007-0.0004c0,0.0002,0,0.0005,0,0.0007c-1.091,0.5979-2.0702,0.5148-3.0891-0.2743
		c-0.519-0.402-1.153-0.7992-1.9023-0.7632c0,0.0886-0.0046,0.1777-0.0123,0.2664c0.1107,0.1255,0.1996,0.2687,0.3117,0.3926
		c0.6264,0.9961,1.6245,1.8559,2.6055,2.0156c1.4079,0.2291,1.3557,1.0045,1.411,1.9445c-0.0429,0.3155-0.0844,0.6318-0.1259,0.9477
		c-0.089,0.1547-0.178,0.309-0.2671,0.4625c-0.0538,0.1079-0.1091,0.2161-0.1643,0.3236c-0.912,0.116-1.3296-0.6713-1.9622-1.0697
		c-0.0002,0-0.0004,0-0.0005,0c0.0002-0.0002,0.0004-0.0003,0.0005-0.0004c-0.0782-0.5901-0.4698-1.1036-0.4252-1.7251
		c-0.1074-0.2091-0.1382-0.4613-0.3424-0.6183c-0.1275-0.097-0.2595-0.1869-0.4023-0.2595
		c-0.9059-0.4886-1.7242-1.1645-2.7913-1.3104l-0.0015-0.0011c-0.2518-0.2272-0.4836-0.4772-0.7492-0.6898
		c-0.3347,0-0.6678,0-1.0011,0.0008c-0.2134,0.1908-0.5588,0.1225-0.7431,0.3708l0.02-0.0161
		c-0.2364,0.2096-0.2318,0.4418-0.066,0.6898c0.0154,0.2261,0.0323,0.4525,0.0461,0.679c0.0999,0.1306,0.1981,0.2599,0.2964,0.3892
		c0.0184,0.1182,0.0353,0.2353,0.0537,0.3527c0.1873,0.3225,0.436,0.5647,0.8337,0.539c1.7402-0.1099,3.147,0.574,4.3593,1.7326
		c-0.6854,0.4781-1.1315,1.0824-0.9662,2.0117c0.0199,0.1185,0.0414,0.2364,0.0629,0.3554
		c0.0865,0.1013,0.1938,0.1712,0.3138,0.2222c0.0272,0.3002,0.0823,0.5899,0.3317,0.8039
		c-0.6732,0.5658-1.1122,1.2511-1.0172,2.2103c0.0138,0.2372,0.026,0.474,0.0383,0.7116c0.0012,0.1883,0.0698,0.353,0.1577,0.511
		c-0.2161,0.2086-0.2746,0.5455-0.5078,0.7392c-0.1704,0.16-0.2487,0.3828-0.3884,0.5642
		c-0.0231,0.1171-0.0492,0.2338-0.0722,0.3501c-0.1274,0.2296-0.1274,0.4571,0.0092,0.6832c0.02,0.1202,0.0383,0.2419,0.0583,0.3624
		c0.0599,0.1113,0.1521,0.1815,0.2779,0.2072c0.1243,0.2434-0.2165,0.4177-0.0967,0.6572
		c-0.0053,0.3786,0.1196,0.6583,0.4606,0.7713c-0.1223,0.4757-0.4407,0.784-0.929,0.9463c-0.0185,0.0983-0.0415,0.1989-0.0676,0.296
		c-0.1089,0.0038-0.2179,0.0139-0.327,0.0318c-0.1136,0.119-0.2288,0.2373-0.3454,0.3563c-0.0093,0.3393-0.02,0.6785-0.0308,1.0179
		c0.2579,0.1696,0.3209,0.4337,0.347,0.7193c0.0905,0.0169,0.1827,0.0368,0.2733,0.0537c-0.0921,0.1058-0.1827,0.2103-0.2748,0.3147
		c0.0014,0.1113-0.0108,0.2202-0.0354,0.3278c-0.0005,0.0001-0.0009-0.0001-0.0015,0c-0.1091,0.0115-0.215,0.0215-0.324,0.0284
		c-0.1213,0.1152-0.2442,0.2304-0.3655,0.347c-0.3577,0.5174-0.8567,0.5942-1.4248,0.4621
		c-0.0952-0.0706-0.2042-0.1151-0.3209-0.132c-1.1684-0.6326-1.1745-0.6348-1.4939,0.5359
		c-0.0629,0.2264-0.1428,0.4222-0.3316,0.565c-0.1198,0.1183-0.2395,0.2365-0.3577,0.3562c-0.1198,0.1182-0.238,0.238-0.3578,0.3578
		c-0.1183,0.1198-0.238,0.2387-0.3562,0.3577c-0.0792,0.0896-0.1582,0.1779-0.2373,0.2664
		c-0.0243-0.0015-0.0486-0.0023-0.0729-0.0038c-0.1228,0.0353-0.2455,0.0722-0.3685,0.1075
		c-0.1228,0.1052-0.2487,0.2058-0.3761,0.3063c-0.2565,0.1573-0.3209,0.4108-0.347,0.6855c0.0844,0.1674,0.2056,0.304,0.3515,0.4222
		l-0.0046-0.0107c0.6464,1.1207,1.4847,1.9844,2.848,2.1602v-0.0016c0.2825,0.3225,0.3608,0.7763,0.6833,1.0733
		c0.0368,0.0952,0.0522,0.1919,0.0461,0.2932c0.155,0.245,0.4161,0.2925,0.6663,0.3578c0.0422,0.0022,0.078-0.0051,0.1177-0.0065
		c0.0037,0.0077,0.0028,0.0166,0.0067,0.0242c0,0.2034,0.1044,0.3101,0.304,0.3278c0.5619,0.2778,1.1238,0.5549,1.6873,0.8313
		c0.0185,0.0959,0.0292,0.1927,0.0292,0.2894c-0.502,0.5267-0.2855,1.1715-0.2948,1.7795c0.1029,0.0168,0.2058,0.0307,0.3102,0.043
		c0.2487,0.3501,0.4974,0.6993,0.7492,1.0479c1.3786,1.2505,1.371,1.3166-0.2304,1.9553c-0.1597,0.0645-0.3132,0.1428-0.4698,0.2142
		c-0.1213,1.7541,1.0609,2.772,2.1648,3.8361c0.3408,0.3769,0.6817,0.7546,1.0225,1.1323c0.218,0.1336,0.4345,0.2679,0.651,0.4008
		c0.036-0.0316,0.0728-0.0641,0.1096-0.0961c0.0003,0.0256,0.0005,0.0512,0.0009,0.0768l-0.1105,0.0193
		c0.0061,0.3423,0.0153,0.6854,0.023,1.0278c-0.6572,0.8568-0.9351,1.9031-1.4264,2.8435c0.0029,0.0285-0.0022,0.0545-0.0012,0.0824
		c-0.0433-0.0477-0.0764-0.0952-0.1354-0.1431c-1.0042,0.5028-1.7887,1.4409-3.0999,1.3434
		c-0.5051-0.0369-0.6479,0.5888-0.7154,1.0678c-0.083,0.5749-0.0016,1.1714-0.2181,1.7326
		c-0.2165,1.2743-0.8521,2.0397-2.2646,1.9222c-0.2088-0.0177-0.4637,0.0046-0.6541,0.162l0.0169-0.0292
		c-0.1673,0.0752-0.284,0.2049-0.3807,0.3561l-0.0062-0.0261c-0.1536,0.132-0.2856,0.2787-0.3347,0.4836
		c0.0445,0.0769,0.0414,0.1505-0.0139,0.2196c-0.1888,0.6418,0.1627,1.1914,0.2917,1.7795
		c0.0629,0.0883,0.0844,0.1874,0.0675,0.2933c0.0707,0.165,0.2057,0.2902,0.2948,0.4437l0.02,0.0337
		c1.0164,1.1884,2.6761,1.5369,3.6403,2.7951l-0.0215-0.056c1.3542-0.2396,2.4243,0.0138,2.7636,1.5691
		c0.0546,0.2573,0.1865,0.4809,0.3932,0.6519c-0.485,0.8857-0.5332,1.881-0.7172,2.8425c-0.6187,0.5428-1.3388,0.9089-2.0742,1.2574
		c-0.2933,0.1397-0.7524,0.2602-0.6111,0.7039c0.1382,0.4399,0.5543,0.5704,1.0011,0.4545
		c0.2226-0.0575,0.4314-0.1673,0.6479-0.2556c0.2227-0.0085,0.4453-0.0169,0.6679-0.0276c-0.0414-0.2126-0.152-0.5935,0.0537-0.5972
		c0.9719-0.0215,1.8547-0.5649,2.8389-0.4468c0.5297,0.2995,1.1009,0.5313,1.6582,0.1743c1.1837-0.7561,2.4918-0.5473,3.7615-0.5243
		c1.6305,0.0284,1.847,0.4161,1.3404,2.085c-0.5153,0.4048-0.9519,0.8282-0.3366,1.4862c0.0004,0.0005,0.0005,0.0011,0.0008,0.0016
		c-0.0007,0.0004-0.0013,0.0003-0.002,0.0007c-0.0383,0.4115,0.2734,0.6932,0.387,1.0487c0,0.0022-0.0061-0.0016-0.0061-0.0016
		c0.119,0.1168,0.2234,0.2488,0.3595,0.3464c0.0026,0.0034,0.0066,0.0042,0.0093,0.0074c-0.0031-0.0027-0.0059-0.0058-0.0092-0.0082
		c0-0.0001-0.0002-0.0001-0.0002-0.0002l0.0095,0.0084c0.1849,0.2203,0.5099,0.1672,0.7069,0.3586
		c-0.0012-0.0013-0.0028-0.0016-0.004-0.003l0.0076,0.0052c-0.001-0.001-0.0025-0.0012-0.0036-0.0023
		c0.1909,0.226,0.527,0.1593,0.7314,0.36c1.9376,0.955,2.9663,2.5363,3.192,4.6644c-0.456,0.2157-0.3025,0.8298-0.7063,1.0778
		c-0.0536,0.0722-0.1074,0.1435-0.1627,0.2149c0.0368,0.5168-0.2034,1.0674,0.1816,1.5452
		c-0.0035-0.0045-0.0044-0.0102-0.0081-0.0145l0.0092,0.0161c-0.0004-0.0006-0.0007-0.0011-0.0011-0.0017
		c0.1648,0.2081,0.1246,0.521,0.3456,0.7026c0.3103,0.3072-0.0063,0.8385,0.3955,1.1108l-0.0122,0.125
		c0.7324,0.5949,1.7473-0.0568,2.4719,0.5665c0.2257,0,0.4499-0.0023,0.674-0.0023c0.1903-0.1574,0.4253-0.2188,0.6494-0.2979
		c1.0364,0.1665,1.8409-0.9036,2.8849-0.575c0.8751,0.2763,1.5031-0.1237,2.1003-0.6334c0.4514-0.3899,0.8843-0.7883,1.5016-0.882
		c0.0262-0.026,0.0363-0.0527,0.0573-0.0789c0.1455,0.2564,0.3938,0.3264,0.672,0.3415c0.6095,0.7125,1.2191,1.424,1.8286,2.1373
		c-0.0307,0.4015,0.1919,0.7231,0.3362,1.0701c-0.0122,0.2272-0.0245,0.4576-0.0368,0.6856
		c-0.6449,1.1492-0.1996,2.3959-0.3132,3.5919c0.1152,0.1197,0.2303,0.2403,0.347,0.3623c0.3578,0.003,0.7139,0.0076,1.0717,0.0107
		c0.1075-0.0214,0.2134-0.0322,0.3224-0.0338c-0.2395-0.4513-0.3116-0.8966,0.0461-1.328c0.3839-0.0207,0.7999-0.1704,1.0548,0.2863
		c0.1213,0.1168,0.2411,0.2335,0.3639,0.3501c0.1044,0.1421,0.2365,0.2511,0.3977,0.3247c0.0997-0.0046,0.1995-0.0137,0.2993-0.0261
		c0.0015-0.2196,0.0046-0.4391,0.0061-0.6602l0.0169,0.0184c-0.0067-0.006-0.009-0.0131-0.0153-0.0192
		c0.5368-0.2312,1.0614-0.6196,1.6136-0.661c0.9673-0.0752,0.5098-0.6878,0.562-1.1208c0.0838-0.0754,0.1026-0.1664,0.0903-0.2653
		c0.0798,0.0939,0.1659,0.1829,0.2613,0.2638c0.1735,0.1397,0.4207,0.4306,0.5051,0.3899c0.2933-0.1427,0.1274-0.4913,0.1827-0.7492
		c1.0794,0.215,2.1894,0.2687,3.0615,1.14c0.4868,0.4875,0.9597,0.1405,1.2283-0.4215c0.5174-0.6433,1.004-1.3327,2.0174-0.9181
		c0.1213,0.0491,0.3254-0.1075,0.4913-0.1689c0.1166,0.0092,0.2333,0.0145,0.3515,0.02c-0.0015,0.1205-0.0031,0.241-0.0046,0.3607
		h0.0015c0.1182,0.1029,0.2426,0.1121,0.3731,0.0215c0.2948-0.0216,0.5558-0.106,0.7171-0.3808
		c0.0337,0,0.0645-0.0445,0.0936-0.1366c0.0175-0.0612-0.0122-0.1179-0.0649-0.1727c0.0086-0.007,0.0182-0.0104,0.0266-0.0177
		c0.0936-0.3784,0.5296-0.6602,0.3162-1.1239c-0.0291-0.1021-0.0444-0.2042-0.0491-0.3101
		c-0.2948-0.4598-0.1458-1.0686-0.5097-1.5069c-0.1873-0.2603-0.4346-0.4507-0.7201-0.5948
		c-0.2908-0.1296-0.5863-0.2307-0.9092-0.1765c0.0032-0.0822,0.0063-0.1643,0.0094-0.2467
		c-0.0995-0.0267-0.1958-0.0589-0.2906-0.1002c-0.0003-0.0007-0.0009-0.0012-0.0011-0.002c-0.304-0.9435,0.7631-1.507,0.6678-2.3943
		c1.3973-1.1799,1.4033-1.1922,2.9218-0.2833c0.2948,0.1759,0.4913,0.2273,0.7585-0.0037c0.2778-0.2437,0.5779-0.4581,0.8714-0.6818
		c0.1123,0.0554,0.2292,0.1002,0.3538,0.1214c0.1471,0.0115,0.2908-0.0046,0.4323-0.0341c0.1226,0.1713,0.2452,0.3427,0.3691,0.5139
		c0.0139,0.5129-0.0276,1.0126-0.3992,1.4187c0.221,0.4719,0.7535,0.463,1.1127,0.7214l0.0004-0.0004
		c0,0.0002,0.0001,0.0003,0.0001,0.0005c0.0507-0.0536,0.0998-0.1044,0.1473-0.1565c0.0814-0.2081,0.0768-0.42,0.0185-0.6319
		c-0.0101-0.0297-0.0145-0.0607-0.0235-0.0907c0.0512,0.0893,0.1083,0.1734,0.188,0.2382c-0.1481,0.1696-0.1582,0.3483-0.0464,0.535
		c-0.1048-0.003-0.2017,0.0233-0.2836,0.1085c0.0086,0.4405,0.2201,0.703,0.666,0.7659c0.4114,0.4629,0.935,0.314,1.4417,0.2679
		c0.1689-0.2484,0.4267-0.3001,0.693-0.3323c0.1899,0.2592,0.577,0.1275,0.7778,0.363c0.6172,0.2832,0.7877,0.9043,1.0886,1.4271
		c0.3194,0.1665,0.6081,0.4153,1.0026,0.3938c-0.218,0.2273-0.436,0.456-0.6556,0.6832c0.5895,0.0023,1.1776,0.0046,1.7656,0.0062
		c0.0954-0.0998,0.1262-0.2066,0.1024-0.3191c0.0873-0.0107,0.1744-0.0221,0.263-0.0325c0.2195-0.3669,0.2871-0.8322,0.6985-1.0747
		c-0.0337-0.9136,0.0308-1.801,0.717-2.5089l0.0046-0.0016c0.3025,0.0108,0.5727-0.0429,0.7278-0.3423
		c0.5727-0.2948,0.178-1.0425,0.6463-1.3849c0.3762,0.4919,0.3086,1.0992,0.4407,1.6573c0.2254,0.9495,0.6635,0.3778,1.0423,0.0958
		c0.1259,0.6943,0.255,1.3886,0.3809,2.0821c0.4882-0.3624,0.2288-0.9243,0.3685-1.3803c-0.1548-0.3307-0.3635-0.6076-0.7325-0.7171
		c0.3928-0.2201-0.06-1.4552,1.0442-0.8582c0.2058,0.1128,0.4207-0.1659,0.4683-0.3931c0.1579-0.7454,0.8045-1.2287,1.0079-1.9445
		c0.2921-0.1648,0.3521-0.429,0.3217-0.7347c0.0292-0.0951,0.04-0.1919,0.0307-0.2909c0.1075-0.0308,0.2165-0.056,0.3255-0.0775
		c-0.0015-0.1182-0.0077-0.235-0.0184-0.3531l0.0138-0.0153c0.1182-0.0914,0.2165-0.2011,0.2917-0.3301
		c0.0645-0.0768,0.1013-0.1651,0.1167-0.264c0.1182-0.1436,0.2348-0.2871,0.3515-0.4307l-0.0046,0.0229
		c0.1074-0.0053,0.2134-0.0214,0.3177-0.0514c0.0245,0,0.0522-0.0385,0.0829-0.1098c0.0235-0.063,0.0047-0.1293-0.0431-0.1974
		c0.003-0.0036,0.0058-0.0072,0.0088-0.0107c0.0405,0.0341,0.0809,0.0685,0.1218,0.1013c0.0583-0.0538,0.1183-0.106,0.1766-0.1573
		l-0.0047-0.0023c-0.0031-0.1129-0.0169-0.2242-0.0414-0.3355c0.0292-0.3393,0.0599-0.6794,0.0891-1.0187l0.1505-0.0084
		l0.1505,0.0161c0.0077,0.0989,0.0245,0.1941,0.0506,0.2909c-0.0015,0.1773-0.0184,0.4475,0.1643,0.4506
		c0.1889,0.0015,0.1735-0.2657,0.1751-0.4453c0.0076-0.2211,0.0168-0.4422,0.0261-0.6626c0.0844-0.1542,0.1766-0.3071,0.327-0.4092
		c0.0323-0.0813,0.0553-0.1658,0.0676-0.2502c-0.0193-0.0502-0.0529-0.0851-0.0825-0.1242c0.001-0.0002,0.0019-0.0005,0.0029-0.0007
		l0.0796,0.1248c0.2871,0.1245,0.436,0.4191,0.9028,0.3132c0.9919-0.2226,1.5768-0.9319,2.2662-1.5376
		c0.1842,0.5242,0.5665,0.8636,1.0409,1.1207c-0.2226,0.7072-0.2441,1.4117,0.0645,2.1042
		c0.2257,0.1742,0.3255,0.4167,0.3624,0.6893c0.9409-0.2466,1.7892-0.2085,2.3667,0.6799
		c-0.0176,0.0143-0.0372,0.0238-0.0545,0.0387c-0.098,0.2761-0.0615,0.5228,0.1435,0.736c0.9111,0.1932,1.787,0.256,2.6385-0.2938
		c0.499-0.3239,1.0902-0.3484,1.6444-0.0338l-0.0092-0.0061c0.4821,0.304,0.7723,0.129,0.866-0.39
		c0.1059-0.5796,0.0844-1.1591-0.1075-1.7233c0.0046-0.1329,0.0092-0.2641,0.0123-0.3954c0.0307,0,0.0521-0.0446,0.0675-0.1367
		c0.01-0.0535-0.0174-0.0991-0.0617-0.1411c0.1045-0.1587,0.1872-0.3286,0.2598-0.5054c-0.0168-0.0982,0.0015-0.1904,0.0537-0.2763
		c0.2426-0.5005,0.0998-1.1685,0.6679-1.5276c0.0046-0.192,0.0093-0.3831,0.0154-0.5735c-0.2411-0.4883-0.2979-0.9727,0.0153-1.4563
		l0.0031-0.0031c0.1781-0.2287,0.5296-0.1497,0.697-0.393l-0.02,0.0107c0.1217-0.077,0.2762-0.1211,0.3419-0.2564
		c0.1404,0.0384,0.2754,0.0253,0.4044-0.0637l0.0139-0.0092c0.1766-0.231,0.5052-0.162,0.7002-0.3539l0.0092-0.0031
		c0.1138-0.1245,0.2292-0.1279,0.3475-0.0123c0.5984,0.0625,0.861-0.6572,1.5517-0.5681c0.9166,0.1167,0.8414-0.5635,0.6479-1.1922
		c0.1474-1.2828-0.697-2.4174-0.6801-3.5974c0.0169-1.0233-0.2534-1.7672-0.7845-2.5256c-0.0006,0.0005-0.0009,0.0011-0.0015,0.0016
		c-0.0001-0.0005,0-0.0011,0-0.0016c-0.0139-0.2263-0.0261-0.4536-0.0415-0.6793c0.0092-0.4775,0.0168-0.9551,0.0245-1.4325
		c0.2503-0.393,0.5757-0.6848,1.0349-0.8098c0.8859-0.4608,1.6566-1.058,2.2416-1.877c0.007-0.0268,0.0159-0.053,0.0237-0.0797
		c0.6197,0.7421,1.4394,1.143,2.3712,1.3536c-0.0964,0.3867,0.1743,0.5302,0.4792,0.6506c1.0011-0.0391,1.8103,0.5949,2.7483,0.78
		c0.1029,0.2127,0.3132,0.44,0.2886,0.6349c-0.2042,1.6166-0.1904,1.662,1.2652,2.0435c1.1791,0.3086,1.3909,0.1565,1.7134-1.2352
		c0.5834-0.4914,1.3541-0.7577,1.761-1.464c0.1305-0.1082,0.2242-0.2518,0.3593-0.3562c-0.4954-0.7808-0.3258-1.6582-0.3638-2.5057
		c0.2426,0,0.4867,0,0.7292-0.0023c1.4771,0.6509,2.8281,0.0222,4.1976-0.4108c0.1382-0.1075,0.2764-0.2143,0.4146-0.3217
		c0.6786-0.8483,1.2375-1.7158,1.0793-2.9072c-0.1321-1.0042,0.4974-1.3765,1.4217-1.3665c0.9427,0.023,1.1147,0.8199,1.454,1.4494
		c-0.0076,0.1135-0.0121,0.2271-0.0121,0.3423c-0.2703,0.1682-0.3148,0.4444-0.3562,0.7247c0.1182,0.1205,0.2349,0.2395,0.3515,0.36
		c-0.0062,0.5305-0.0107,1.0602-0.0139,1.5914c-0.0107,1.5408,0.1028,1.7195,1.609,1.9469
		c0.5604,0.0859,1.0457,0.1611,1.2713,0.7507c0.13,0.1212,0.1948,0.2878,0.2855,0.4361c-0.0797,0.1003-0.1594,0.2011-0.2379,0.3009
		c0.1183,0.869,0.6986,0.8215,1.0993,0.3669c0.1876-0.2122,0.3868-0.3635,0.5943-0.4762c0.6304-0.1457,1.2585-0.3792,1.8961-0.101
		c0.1079-0.0125,0.2063-0.0472,0.3005-0.093c0.2795,0.9533,1.2737,1.2879,1.783,2.0428c0.2117-0.4596,0.9476-0.3887,1.0519-0.957
		c0.5591,0.8062,1.5093,0.2666,2.2076,0.597c2.3384-0.1642,4.6275-0.7869,6.9889-0.7531c0.2717,0.0047,0.5481-0.1995,0.8214-0.3086
		c1.0993-0.0045,1.9453,0.6403,2.8573,1.1163c-0.1014-1.3365,0.0983-1.5815,1.454-1.8017c1.3188-0.0998,2.6131,0.0537,3.8936,0.357
		c0.1028-0.4799,1.3649-0.6664,0.3639-1.4264l0.0092-0.0338c-0.2149-0.1942-0.5373-0.1405-0.7538-0.3301
		c-0.1074,0.0077-0.2119,0.0031-0.3193-0.0169c-0.1904-0.2149-0.5267-0.1335-0.7155-0.3554l0.0016,0.0008
		c-0.1228-0.1244-0.2534-0.2419-0.393-0.3486c-0.4668-0.0092-0.9335-0.02-1.4018-0.0292c-0.3101-0.2856-0.7861-0.0192-1.0901-0.3262
		c-0.7093-0.0154-1.4186-0.0308-2.1295-0.0469c-0.2042-0.1781-0.5236-0.1051-0.7124-0.3163
		c-0.241-0.0184-0.479-0.0353-0.7185-0.0522c-0.1119-0.0904-0.2095-0.0887-0.2921-0.0059
		c-0.1361-0.1042-0.2799-0.1982-0.4203-0.2964l0.0107,0.007c-0.2058-0.2265-0.5389-0.172-0.7661-0.3509
		c-0.3408-0.013-0.6817-0.0261-1.0225-0.0399c-0.129-0.126-0.2703-0.2411-0.4391-0.3125c-0.0922,0.0162-0.1827,0.007-0.2703-0.026
		c-0.1811-0.2172-0.5266-0.1229-0.6924-0.3677l-0.0169-0.0123c-0.1291-0.1014-0.2488-0.215-0.3593-0.3355l-0.0016-0.0023
		c-0.31-0.1641-0.5265-0.425-0.7363-0.6923c0.0009,0.0014,0.0014,0.0031,0.0024,0.0045l-0.0092-0.0122
		c0.0021,0.0027,0.0045,0.0051,0.0067,0.0078c-0.1242-0.1862-0.2027-0.397-0.3169-0.5882c-0.2-0.2219-0.4505-0.3501-0.7362-0.4127
		c-0.0006-0.0288,0-0.0573-0.0008-0.0862c-0.0663-0.0654-0.1315-0.1316-0.197-0.1974c1.2275-1.2085,2.7181-0.6074,4.1336-0.5319
		l-0.0047,0.02c0.826,0.2718,1.6552,0.2288,2.4857,0.0246c0.1213-0.0139,0.2456-0.0246,0.3685-0.0353
		c0.0123-0.1106,0.0215-0.2227,0.0307-0.3332c-0.0002-0.0003-0.0006-0.0006-0.0008-0.0009c0.0002,0,0.0005,0.0001,0.0008,0.0001
		c1.282-0.3931,2.5211-0.3723,3.7677,0.2126c0.4115,0.1933,0.9888,0.2916,1.4295-0.1582c-0.3194-0.3838-0.7477,0.1689-0.9857-0.2664
		c0.1719-0.3309,0.545-0.3846,0.8245-0.5658c0.3669-0.2387,0.6848-0.5105,0.5865-0.9926c-0.1152-0.5627-0.5635-0.7623-1.0656-0.7323
		c-0.7339,0.0437-1.3864-0.2649-2.0788-0.3808c-0.6864-0.7415-1.9914-0.4629-2.6362-1.4532c0.9258-0.4613,1.9329,0.0385,2.63-0.6862
		c0.7906-0.469,1.7902-0.4375,2.5133-1.0594c1.0748,0.1703,2.1695,0.499,3.0508-0.522c0.0445-0.0507,0.3162,0.0937,0.4836,0.1474
		c0.3133-0.1628,0.539-0.4177,0.7493-0.6909l0.0092-0.0138c0.0967-0.1213,0.2041-0.2273,0.3285-0.3194
		C157.7683,83.2494,157.8759,83.2304,157.9864,83.2287z M24.41,47.8903c-0.1106-0.0058-0.2181-0.0179-0.3255-0.0369
		c-0.0491,0.0833-0.1443,0.2369-0.1396,0.2395C24.1966,48.2581,24.3148,48.1007,24.41,47.8903z M42.3628,124.6318
		c0.0722,0,0.1428-0.0016,0.2134-0.0054C42.5009,124.4598,42.4303,124.4737,42.3628,124.6318z M65.875,123.253
		c-0.0015,0.3555-0.0031,0.7124-0.0031,1.0686l0.1751,0.0031l0.1735-0.0092c0.1244-0.1128,0.2564-0.215,0.3669-0.3423
		c0.2318-0.2319,0.4652-0.4622,0.6971-0.6956C66.8223,122.8416,66.3524,122.8469,65.875,123.253z M11.9322,85.3992
		c-1.4279,0.5957-1.5323,1.566-0.3454,3.1935l-0.0077-0.0047c0.2273,0.2119,0.4637,0.218,0.7063,0.0261
		c0.1106-0.0168,0.2196-0.0284,0.3301-0.0322c0.1258-0.0998,0.2395-0.2119,0.3377-0.3378c0.2242-0.3486,0.4253-0.6986,0.0798-1.0901
		C13.0009,86.3595,12.2118,86.0379,11.9322,85.3992z M27.7954,111.5928c-1.2113-0.2264-2.5118-0.512-3.3332,0.8676
		c-0.1689,0.2832-0.4238,0.3984-0.7308,0.4383l-0.0139-0.0092c-0.1105,0.1328-0.2379,0.2518-0.347,0.3837
		c0.0031,0.1121-0.0015,0.225-0.0184,0.3363c-0.2073,0.1958-0.1229,0.5297-0.3424,0.7201c0.0031,0.7001,0.0047,1.401,0.0047,2.1011
		c0.1121,0.1298,0.2118,0.2656,0.3347,0.386c0.0184,0.1075,0.0276,0.2173,0.0229,0.3271c0.112,0.1435,0.238,0.2709,0.3854,0.3792
		l0.1596-0.0023l0.1613,0.0131c0.4145-0.0024,0.8306,0.0015,1.2466-0.0108c0.2211-0.0077,0.5912,0.0461,0.5912-0.2181
		c-0.0061-1.3557,1.5092-1.7886,1.7502-2.9785c0.0829-0.0829,0.1505-0.201,0.2503-0.2411c0.5143-0.2041,1.1992-0.1328,1.1745-1.0302
		C29.0667,112.1518,28.5109,111.7241,27.7954,111.5928z M9.2918,49.1511c-0.2349-0.1723-0.1505-0.5374-0.4176-0.6905
		c-0.106-0.0015-0.2104-0.02-0.3117-0.0568c-0.1166-0.0845-0.2318-0.0787-0.3393,0.0161c-0.1398,0.1335-0.2795,0.2663-0.4191,0.4011
		c-0.0906,0.1274-0.1904,0.2476-0.2979,0.3604c0.0046,0.2146,0.0076,0.4291,0.0107,0.644c0.0968,0.1326,0.1935,0.2646,0.2934,0.3947
		c0.043,0.099,0.066,0.2019,0.066,0.3086c0.0952,0.1719,0.2318,0.3059,0.4023,0.4023c0.1074,0,0.2103,0.0208,0.3101,0.061
		c0.9534-0.1136,0.9504-0.7319,0.7646-1.4459C9.3318,49.4142,9.3119,49.2824,9.2918,49.1511z M113.0038,140.4062
		c0.0041,0.0045,0.0098,0.0057,0.0138,0.0104l-0.0153-0.0122C113.0028,140.405,113.0033,140.4056,113.0038,140.4062z
		 M6.2024,80.3924l0.0107,0.0046c-0.1105-0.1159-0.2165-0.2365-0.3177-0.3608c-0.0385-0.0944-0.0583-0.195-0.0553-0.2979
		c-0.0905-0.175-0.2241-0.3094-0.3915-0.4106c-0.1091-0.0039-0.215-0.0269-0.3163-0.0661
		c-0.1305-0.0959-0.2579-0.1949-0.3853-0.2948C4.4168,78.966,4.0867,78.966,3.7566,78.966
		c-0.1427,0.1059-0.2748,0.2226-0.3945,0.3531l0.0061-0.0015c-0.3947,0.3985-0.4608,0.8874-0.393,1.4141
		c0.0092,0.241,0.02,0.4805,0.0276,0.7216c0.1182,0.1059,0.2196,0.2287,0.301,0.3646l0.0506,0.0499
		c0.1353,0.0798,0.2534,0.1819,0.3531,0.3054l0.0092,0.0077c0.3071,0.294,0.7892,0.0214,1.0901,0.3386
		c0.3454,0,0.6909,0.0015,1.0363,0.0015c0.4177-0.3969,1.0794,0.0622,1.4847-0.4276C7.3646,81.2606,6.6507,80.9137,6.2024,80.3924z
		 M5.1568,75.3795c0.4529-0.0031,0.9058-0.0062,1.3588-0.0093c0.2718-0.2072,0.264-0.4437,0.0706-0.6985
		c-0.0322-0.0967-0.0415-0.195-0.0292-0.2963c-0.0921-0.1619-0.2118-0.2979-0.3546-0.4153l0.0092,0.0084
		c-0.1137-0.1313-0.2318-0.2579-0.3777-0.3571L5.8262,73.627c-0.8951-0.909-1.824-1.7603-3.2089-1.7995
		c-0.4499-0.0008-0.9012-0.0008-1.3526-0.0038c-0.1489,0.0983-0.2809,0.2187-0.4038,0.3462
		c-0.1166,0.119-0.2349,0.2403-0.3593,0.3532l-0.0015,0.0005c-0.1136,0.126-0.2349,0.2426-0.3531,0.3624v-0.003
		c-0.4575,0.8214,0.2581,1.0593,0.7109,1.4294c0.1259,0.0192,0.2518,0.0385,0.3777,0.0576
		c0.2149,0.1436,0.5113,0.0914,0.7001,0.2956l-0.0031-0.0032C2.8829,75.4608,4.1204,74.9627,5.1568,75.3795z M104.8036,120.7581
		c-0.0308,0-0.0599-0.0415-0.0906-0.1236c-0.0292-0.0806,0.0015-0.1635,0.0936-0.2442c0.0047-0.1205,0.0108-0.2402,0.0139-0.3607
		c0.0337,0,0.063-0.0415,0.0936-0.1221c0.0261-0.0814-0.0107-0.1552-0.1136-0.2265c-1.0594,0.8114-2.26,1.153-3.5866,1.0878
		c-0.5604-0.066-1.041-0.2886-1.4233-0.7109c-0.4698-0.0069-0.9396-0.0123-1.4094-0.02c-0.0072,0.0338-0.0098,0.0681-0.0157,0.1021
		c-0.6172,0.2727-1.0925,0.8045-1.7714,0.9595c-0.0983,0.0392-0.1996,0.0484-0.304,0.0269c-0.2241,0.1781-0.545,0.122-0.7631,0.3163
		c-0.0891,0.0446-0.1827,0.0591-0.2825,0.0446c-0.1688,0.0752-0.304,0.2011-0.4422,0.3215l-0.0076,0.0054
		c-0.1735,0.2318-0.5251,0.1519-0.694,0.393l0.0168-0.0177c-0.1459,0.1005-0.2656,0.228-0.3762,0.3608l0.0107-0.0084
		c-0.1351,0.1105-0.2579,0.2325-0.3684,0.3677l0.0107-0.0107c-0.1347,0.1071-0.2555,0.232-0.3688,0.3634
		c0.0026-0.0016,0.0055-0.0026,0.008-0.0042l-0.0092,0.0054c0.0004-0.0004,0.0008-0.0007,0.0012-0.0011
		c-0.4188,0.2552-1.0143,0.2411-1.2264,0.8088c-0.1182,2.5487,1.8547,3.7493,3.3762,5.2401l-0.0154,0.0229
		c0.1382,0.1167,0.2703,0.2426,0.436,0.324c0.1029-0.0146,0.1981,0.0031,0.2902,0.05c0.1275,0.1151,0.2595,0.2202,0.4038,0.3124
		c0.1121-0.0054,0.2165,0.0146,0.3148,0.0629c0.1321,0.1021,0.2656,0.1996,0.4038,0.2925c0.1074-0.0085,0.2103,0.007,0.3101,0.0545
		c0.1996,0.1735,0.5174,0.1021,0.6971,0.3225l0.0047,0.0037c0.717,0.3739,1.11-0.5811,1.7718-0.4337
		c-0.0092-0.0999,0.0046-0.1965,0.0461-0.2879c0.4225-0.2832,0.691-0.7136,1.0333-1.0744c-0.0029-0.3048,0.0329-0.5925,0.35-0.7489
		c-0.0123-0.112,0.0015-0.2241,0.0429-0.33c0.1416-0.1797,0.1426-0.3879,0.1435-0.5972c0.0681,0.0039,0.1265-0.0373,0.1712-0.1413
		c0.0169-0.7047,0.0338-1.4109,0.0491-2.1165c0.0261,0,0.0522-0.0377,0.0737-0.1129c0.0245-0.076-0.0047-0.1474-0.0875-0.2196
		c-0.0191-0.189-0.0526-0.3726-0.1505-0.5245c0.0137-0.0928,0.0229-0.1858,0.0384-0.2785c0.0276-0.2549,0.0153-0.5097-0.0476-0.7599
		c-0.038-0.1026-0.0803-0.2008-0.1207-0.301c0.1938-0.3098,0.5315-0.3182,0.9683-0.1115c0.5269,0.249,1.036,0.5528,1.6462,0.5143
		c0.0069,0.0125,0.0142,0.0244,0.0212,0.037c0.1428,0.1059,0.3025,0.1666,0.4806,0.182c0.4437-0.1428,0.8597-0.3041,0.6878-0.9128
		C104.5825,122.0279,104.8849,121.3584,104.8036,120.7581z M94.8131,117.1401l0.0246,0.0238
		c-0.0074-0.0072-0.0107-0.0152-0.0177-0.0225C94.8177,117.1409,94.8155,117.1405,94.8131,117.1401z M103.3788,108.5982
		l0.0046,0.0031c-0.0014-0.0014-0.0027-0.0017-0.0041-0.0031C103.3791,108.5982,103.3791,108.5982,103.3788,108.5982z
		 M98.3889,137.2094l0.0154-0.0185c-0.0067,0.0049-0.0084,0.0127-0.0146,0.0179C98.3895,137.209,98.3892,137.2091,98.3889,137.2094z
		 M100.8716,128.963l0.0031-0.0054c-0.0011,0.0011-0.0019,0.0023-0.003,0.0034
		C100.8717,128.9617,100.8716,128.9622,100.8716,128.963z M89.1587,134.2975c-0.0491-0.0045-0.0894,0.0013-0.1332,0.003
		c-0.0175-0.0727-0.0331-0.1462-0.0571-0.2163c0.0092-0.1182,0.0184-0.2365,0.0276-0.3563
		c-0.1053-0.0127-0.2107-0.0205-0.316-0.0241c0.0282-0.1122,0.0313-0.2253-0.0187-0.3398l-0.0154-0.0145
		c-0.1259-0.1037-0.2441-0.2173-0.35-0.3416l-0.0092-0.0085c-0.3455-0.1512-0.6065-0.5535-1.0702-0.3554
		c-0.4728,0.0107-0.9442,0.0215-1.4186,0.0322c-0.0737,0.1135-0.0776,0.2306-0.0455,0.3478
		c-0.1133,0.0965-0.2244,0.1929-0.3379,0.2889c-0.0253-0.0312-0.0522-0.0623-0.088-0.0924
		c-0.3573-0.1434-0.6779-0.099-0.9588,0.1753c-0.2132,0.1792-0.1574,0.5064-0.3677,0.6884v-0.0016
		c-0.2594,0.476-0.261,0.9519,0.0016,1.427L84,135.508c0.2165,0.188,0.1474,0.5297,0.3793,0.7094l-0.0138-0.013
		c0.1044,0.1389,0.2303,0.2595,0.3608,0.3739l-0.0077-0.0084c0.1121,0.1289,0.2349,0.2471,0.3562,0.3676l-0.0031-0.0037
		c0.1182,0.1228,0.2395,0.2394,0.3516,0.3623l0.0031,0.0061c0.4499,0.8114,1.1545,0.4038,1.781,0.3677l0.1751-0.0191h0.178
		c0.479-0.2856,1.0118-0.2503,1.5307-0.2196c0.5021,0.0292,0.8921-0.1182,0.7324-0.661
		C89.5825,135.9511,89.8189,135.0022,89.1587,134.2975z"/>
</g>
</svg>
