<?xml version="1.0" encoding="utf-8"?>
<!-- Generator: Adobe Illustrator 21.0.2, SVG Export Plug-In . SVG Version: 6.00 Build 0)  -->
<svg version="1.1" id="C3_E_Frame" xmlns="http://www.w3.org/2000/svg" xmlns:xlink="http://www.w3.org/1999/xlink" x="0px" y="0px"
	 viewBox="0 0 97.5044 66.5083" enable-background="new 0 0 97.5044 66.5083" xml:space="preserve">
<g id="p">
	<path fill="#175FFF" d="M67.5317,39.8413l0.4609-0.1846C67.8081,39.8413,67.7163,39.8413,67.5317,39.8413z M66.7017,39.8413
		l0.1846-0.1846h-0.0928l-0.1846,0.1846H66.7017z M50.0776,47.0493v-0.0928h-0.0918v0.0928H50.0776z M50.9995,46.4956h-0.0918
		l0.0918,0.0918V46.4956z M52.1069,46.0347l0.1836-0.0928h-0.1836V46.0347z M27.0215,53.9653
		c-0.2764-0.0918-0.6455-0.2764-1.0142-0.2764l-1.3838,0.0918c0.7383,0.0928,1.4756,0.1846,2.2139,0.1846l0.1841,0.1846V53.9653z
		 M67.6235,39.2876v0.0918h0.0928l0.0918-0.0918H67.6235z M20.6582,35.9819c-1.3833,2.6748-3.0435,5.8105-3.9658,8.9453
		l0.0923,0.0928l-0.2764,0.9219c-0.2769,1.0146-0.3691,2.0293-0.3691,3.0439c0,2.0283,1.3833,3.2275,3.3203,3.5039l0.1841-0.1836
		c-1.1987-0.2773-1.9365-0.7383-2.7666-1.6602l-0.2769-0.7383l-0.1841-0.1846V49.355l0.0923-0.0928
		c0-4.5186,2.4897-9.0381,4.1499-13.1885V35.9819z M16.6924,44.7437c0.0923-0.3691,0.2769-0.7383,0.2769-1.1074v-0.2764h-0.1846
		c-0.1846,0.9219-0.4609,1.8447-0.4609,2.7666l0.1846-0.1846l0.1841-1.0146V44.7437z M22.7793,53.3198h-0.1846l0.0923,0.0928
		C22.7793,53.4126,22.7793,53.4126,22.7793,53.3198z M16.9692,48.9858c0.5532-2.2139,1.291-4.4268,1.752-6.6406
		C18.0757,43.9136,16.9692,47.4175,16.9692,48.9858z M26.6528,54.519c0,0,0.1846,0,0.2764-0.0918h-0.1841L26.6528,54.519z
		 M19.3672,53.689h0.1841l-0.2764-0.1846C19.2749,53.5972,19.2749,53.5972,19.3672,53.689z M19.4595,52.8589v0.0928h0.0918
		C19.5513,52.8589,19.5513,52.8589,19.4595,52.8589z M19.2749,54.2427h-0.0923v0.0918
		C19.2749,54.3345,19.2749,54.3345,19.2749,54.2427z M25.6382,54.6108l-0.2764-0.1836v0.0918L25.6382,54.6108z M25.915,54.6108
		c0-0.0918,0-0.0918-0.0923-0.0918L25.915,54.6108z M26.376,54.3345h-0.3687l0.0918,0.0928L26.376,54.3345z M25.7305,53.5972
		c0.1846-0.0928,0.2769-0.0928,0.4609-0.0928C26.0073,53.4126,25.8228,53.5044,25.7305,53.5972z M25.1772,51.937
		c-0.5537,0-1.0146,0.0918-1.5679,0.0918h-1.1987l0.0918,0.0928h2.2134c0.7378,0,3.5972-0.1846,6.1792-0.3691L25.1772,51.937z
		 M25.3618,53.5044l0.0918,0.0928v-0.0928H25.3618z M23.0562,54.6108c0.2764,0,0.6455,0,0.9219-0.0918
		C23.7017,54.519,23.3325,54.519,23.0562,54.6108z M65.4106,40.4868l0.4609-0.0928l-0.0928-0.3691H65.687
		c-0.3488,0-1.014,0.4084-1.3217,0.6871l0.876-0.1042L65.4106,40.4868z M65.0415,41.7778l-0.8535,0.3281v-0.037
		c-0.0283,0.028-0.0358,0.0399-0.0495,0.0561l-0.2962,0.1138c0.0906,0,0.1751-0.0176,0.2593-0.0362
		c-0.0019,0.0153-0.0063,0.0254-0.0063,0.0508h0.0928v-0.0667C64.4968,42.0983,64.7694,41.9139,65.0415,41.7778z M67.629,40.7708
		l0.1791-0.0994C67.6816,40.703,67.6318,40.7362,67.629,40.7708z M64.3032,40.5786l-0.0918,0.0928v0.0589l0.0918-0.0109V40.5786z
		 M63.9351,40.7632l0.2764-0.0262v-0.0067L63.9351,40.7632z M73.0649,46.9419l-0.1846,0.1846l-0.2764-0.1846l-0.0928,0.1846v0.1846
		c0.2773-0.0918,1.4756-0.2764,1.4756-0.5537l-0.2764-0.1836C73.4341,46.5737,73.2495,46.7573,73.0649,46.9419z M67.629,40.7708
		l-0.651,0.3615v0.1846h0.2764c0.0879-0.04,0.2028-0.0936,0.3283-0.1525l-0.0744,0.0744v0.0918h0.0918v-0.1744
		c0.1219-0.0574,0.2565-0.1211,0.4058-0.1925C67.7717,40.8939,67.6243,40.83,67.629,40.7708z M66.4937,12.2803
		c-0.1971,0-0.3943,0.0118-0.5913,0.0301C66.7387,12.2943,67.3551,12.2803,66.4937,12.2803z M69.3765,48.8784v-0.0918
		l-0.0928,0.0918H69.3765z M72.9731,46.8501c-0.0928,0-0.0928,0-0.0928,0.0918h0.1846v-0.0918H72.9731z M71.7739,47.4956
		l0.2764-0.2764h-0.0918L71.7739,47.4956z M72.2349,47.2192h0.1846v-0.0928h-0.1846V47.2192z M73.2495,47.2192
		c-0.1846,0.0918-0.2764,0.1846-0.3691,0.1846C72.9731,47.4038,73.0649,47.4038,73.2495,47.2192z M69.0757,40.8696l-0.1846,0.1846
		l0.0928-0.1846v-0.0918l0.6586-0.2929c0.0548-0.0958,0.1046-0.1855,0.1527-0.2775l1.7707-0.1679h-0.1846l0.1846-0.1846
		l-1.691,0.2012c0.002-0.0039,0.0045-0.0083,0.0065-0.0122c-0.01,0.0051-0.02,0.01-0.03,0.015l-0.8445,0.1005
		c0.3557-0.1335,0.7048-0.2783,1.0463-0.4359c0.0308-0.0555,0.0628-0.1047,0.0928-0.1514l-1.3646,0.6141l-3.5399,0.4213
		l-0.051,0.0364l4.3072-0.4084c-0.542,0.2692-1.0643,0.5236-1.4916,0.728c0.2878,0.0859,0.696,0.1809,1.0837,0.2869
		c0.1658-0.1734,0.3016-0.363,0.4236-0.5561L69.0757,40.8696z M97.5044,0.7378c-0.0928,1.0146-2.3975,4.4268-3.3203,4.7959
		c-0.4609,0.1846-0.9219,0.3687-1.291,0.6455c-1.0146-0.1846-1.752,0.9224-2.7666,0.9224c-3.4121,0-10.79,3.7808-16.416,3.7808
		c-1.0146,0-2.1211-0.1841-2.9512,0.646c-1.5674,0.1841-3.043,0.1841-4.6113,0.1841c-0.3389,0.407-0.7781,0.5622-1.2431,0.617
		c0.3193-0.0062,0.6718-0.0128,0.9975-0.019c-1.4619,0.1361-2.9152,0.7077-4.2964,0.7077c-1.1074,0-1.9365-0.3687-2.8594,0.5537
		c-1.1992,0.1841-7.1016,0.8296-7.7471,1.4756c-3.1348,0.7373-13.5566,2.6743-16.416,2.6743c-0.1841,0-0.4604-0.0923-0.645-0.0923
		c-0.5532,0.6455-1.3833,0.7378-2.1211,0.7378c-1.8447,0-2.5825,1.0146-3.689,1.0146c0,1.291,0.2764,1.3833,1.1987,2.1211h0.7378
		c3.8735,0,7.7471-1.5679,11.6201-1.5679c0.8301,0,1.291-0.8301,2.1211-0.8301c2.2139,0,4.335-0.7378,6.5479-0.7378
		c3.874,0,7.7471-0.7378,11.6201-0.7378c1.292,0,2.0293-0.8301,2.9512-0.8301c0.7383,0,1.3838,0.5532,1.7529,1.1992
		c-2.3984,3.7808-1.6602,4.2422-5.9023,6.5479c-2.2139-0.1846-6.6406,3.3203-8.6689,3.3203c-1.7529,0-3.0439,1.3828-4.7041,1.3828
		c-1.291,0-2.0283,0.9219-3.1357,0.9219c-1.0137,0-1.752,0.6465-2.6738,0.6465c-2.3984,0-4.6113,0.9219-7.0098,0.9219
		c-0.4604,0.4609-4.7031,1.4756-5.5332,1.4756c-0.7373,0-1.3833-0.1846-2.1211-0.1846c-1.4756,0-2.7666,0.8301-4.2422,0.8301
		c-1.0146,1.752-1.752,3.6895-2.8589,5.4414c0.6455-1.9365,1.6602-3.6895,2.5825-5.4414c-0.5537,0.0918-1.0146,0.0918-1.5679,0.0918
		l-0.8301,0.6465l-0.0923,0.5527l-0.4609,0.7383l-0.1846,0.0918v-0.1846l-0.1846,0.3691l0.0923,0.2764
		c-0.2769,0.3691-0.5532,1.1074-0.7378,1.5684l-0.1846-0.1846l-0.0923,0.3691h0.0923l-0.0923,0.1836l-0.0923-0.0918l-0.1841,0.3691
		c-1.1069,2.0283-2.2134,4.0576-3.228,6.1787c0.0923,0,0.2769,0.3691,0,0.2764l-0.0923-0.1846
		c-0.2769,0.5537-0.3687,1.1992-0.4609,1.8447l0.0923-0.0918h0.0918v0.2764l-0.1841-0.0918
		c-0.0923,0.9219-0.2769,1.8438-0.7378,2.3057c0,2.6738,1.3833,4.6104,3.7812,5.7178c0.9219,0,2.1211,0.7373,4.2422,0.7373
		c1.291,0,2.2134-0.8301,3.2275-0.8301c2.3979,0,4.6113-0.6455,7.0093-1.0146c0.4609-0.4609,1.1069-0.4609,1.7524-0.4609
		l0.2764-0.1846c-0.8301,0-1.5679,0.2773-2.3975,0.2773c-0.2769,0-0.7383-0.0928-1.0146-0.1846l0.8301-0.1846h-0.7378
		l-0.0923-0.1846l-0.9224,0.0928c-0.7378-0.0928-3.1357-0.1846-3.5967-0.3691v-0.0928c4.6113-0.7373,9.8677-0.2764,14.2026-2.2129
		c-0.4609,0.0918-1.0146,0.1846-1.4756,0.1846h-0.2764c4.9795-1.291,9.96-2.583,14.8477-4.335l0.0918,0.0928h0.3691l0.8301-0.5537
		h0.3691c0.5527-0.2764,1.291-0.2764,1.752-0.7383c0.0928-0.3682,1.9365-1.1064,2.3057-1.1064v0.1846
		c0.2764,0,0.7383-0.1846,0.9229-0.3691v0.0928l0.6455-0.3691h0.0918c0.4609-0.2764,1.1064-0.5537,1.5674-0.5537h0.0928
		l-0.8301,0.3691l0.9219-0.1846l0.1846-0.2764c0.3691-0.1846,0.7383-0.2764,1.1064-0.3691l-0.1836,0.2773l-0.2773,0.0918
		c0.4609,0,0.8301-0.2764,1.1992-0.4609c0.0918,0,0.1846-0.0928,0.3691-0.1846h0.2764l0.2764-0.1846h0.1846l-0.2764,0.2764h0.0918
		l0.7383-0.1846l-0.0918,0.1534c0.4268-0.2935,0.9142-0.4649,1.4062-0.6281l-0.3691,0.3682l-1.0809,0.3329l-0.1408,0.2354
		c-1.3838,0.2764-9.8682,2.6738-9.8682,3.4121c1.3828,0,8.2998-2.7666,10.4209-3.3203c0.0928,0,0.0928-0.0918,0.0928-0.1846h0.1836
		v0.0928c0.1821-0.0609,0.679-0.2781,1.0528-0.3959c0.1129-0.1301,0.3121-0.2782,0.6308-0.4489h0.3691
		c-0.1337,0.0865-0.2256,0.1696-0.301,0.251c0.3833-0.1263,0.6911-0.3366,0.9369-0.5937c0.2001,0.0547,0.3916,0.1124,0.5601,0.1733
		c1.839-0.8273,3.6221-1.6523,4.2454-1.8599l0.8301-0.3682c-1.5067,0.9036-3.0986,1.6672-4.7248,2.387
		c0.2014,0.1194,0.2749,0.2495,0.09,0.3932h-0.1846c-0.5811,0.2397-1.1776,0.476-1.7795,0.706
		c0.0623,0.0892,0.1301,0.1734,0.1927,0.2529c-0.1341-0.0485-0.285-0.1014-0.4327-0.1614
		c-0.7239,0.2726-1.4568,0.5251-2.1938,0.7507l-0.0054,0.0054l0.2764,0.1846h0.2773l0.2764-0.2764
		c0.369,0.0193,0.7151-0.05,1.0536-0.1543c0.2471-0.1226,0.4968-0.2401,0.7556-0.3395c0.0094,0.012,0.0198,0.0247,0.0287,0.0364
		c0.0123-0.0059,0.0246-0.0126,0.0369-0.0185c-0.0183-0.0069-0.0373-0.014-0.0566-0.0211c0.1038-0.0397,0.2087-0.0769,0.3161-0.1091
		c0.8757-0.4426,1.759-0.9623,2.8461-0.9623l3.9648-2.9512c0.2773,0.2773,0.4619,0.7383,0.4619,1.1064
		c0,2.0293-2.1221,4.335-3.5049,5.7188c0.6455-0.1846,1.4756-0.6455,2.2129-0.7383c-0.6455,0.1846-1.1064,1.1064-1.8438,1.0146
		l-1.1074,0.4609c-0.4609,0.4609-0.8301,0.9229-1.1982,1.1992h-0.0928l-0.0918,0.0918c0,0,0.0918,0,0.1846-0.0918l0.2764-0.0928
		l0.0918,0.0928v0.2764l-1.1064,0.5537h-0.2764c-3.043,2.0283,0.1611,1.9512-2.2373,4.625
		c-1.752,0.2773-3.3193,1.0146-4.6104,2.3057c-1.8447,0-4.1504,1.8447-5.7188,1.8447c-1.0137,0-1.1982,0.1846-2.0283,0.7383
		c-1.7529,1.291-5.9951,2.0283-8.0234,3.2275c-4.7959,2.8594-11.0674,2.3057-15.5859,5.2568H20.105
		c-1.2915,0-2.4902-0.8301-3.7812-0.8301c-0.1846,0-0.4614,0-0.6455,0.0918c-2.3979-1.3828-6.1792-2.8584-7.9316-5.0723
		C4.2422,59.4995,0,52.7671,0,49.0776v-6.4551c0-0.7383,0.8301-1.1074,0.8301-1.8447c0-0.0928-0.0923-0.1846-0.0923-0.2764
		c0.9224-1.9375,0.9224-4.1504,2.0288-5.9951c1.3833-2.3057,4.519-9.4067,6.1792-10.6978c0.9219-0.7378,2.6743-3.8735,3.4121-5.0728
		c-1.752-0.7373-3.1357-1.752-3.1357-3.873c-0.8301-1.1069-1.4756-2.3979-1.4756-3.8735c0-0.6455,0.1846-1.291,0.3691-1.9365
		l0.8301-0.7378l2.3057,2.2134c0.2764,0.0923,0.6455,0.0923,0.9219,0.0923c1.7524,0,6.6401-1.7524,8.5771-1.7524
		c0.2764-0.2769,7.7466-2.1211,8.3921-2.1211l1.2915,0.0923c0.7378,0,0.9219-0.1846,1.5674-0.5537
		c1.1992-0.7378,3.0439,0.1846,4.335-1.1064c1.6602,0,3.4121,0.1846,4.8877-0.7378c2.3057,0.1846,4.335-0.9224,6.6406-0.9224
		c0.2764,0,0.5527,0.0923,0.8291,0.0923c1.292-0.6455,2.6748-0.8301,4.0586-0.8301c1.0146,0,2.1211,0.0923,3.1357,0.0923
		c1.0137,0,1.8438-0.8301,2.9512-0.8301c1.9365,0,3.873,0.1846,5.8096,0.1846s3.7812-0.9224,5.7178-0.9224L69.5321,1.484
		c0.0406-0.0014,0.0798-0.0084,0.1207-0.0084h6.1787c1.1064,0,2.0293-0.7378,3.1357-0.7378h13.0039
		C93.7231,0.7378,94.9224,0,95.7524,0c0.4609,0,0.9219,0.0923,1.3828,0.0923L97.5044,0.7378z M68.4194,43.0743
		c0.046,0.0728,0.0712,0.1409,0.0654,0.2046c0.2549-0.0936,0.223-0.17,0.064-0.2491C68.5065,43.045,68.463,43.0596,68.4194,43.0743z
		 M63.1255,44.8825c-0.6694,0.2891-1.4548,0.4813-1.9814,0.5984l0.1846,0.0928C63.4328,45.5737,63.1458,45.358,63.1255,44.8825z
		 M59.4849,45.7573c1.2627-0.2227,2.4666-0.8596,3.7061-1.2456c0.0353-0.0866,0.0945-0.1798,0.1749-0.278
		c-1.19,0.3692-3.147,1.4159-3.6047,1.34L59.4849,45.7573z M28.6816,54.519c0.0923,0,0.0923,0,0.0923-0.0918h-0.0923V54.519z
		 M67.7562,1.8635L65.687,2.3057C66.4097,2.3057,67.0819,2.0798,67.7562,1.8635z M18.6294,53.4126h0.4609l-0.0923-0.0928h-0.2769
		L18.6294,53.4126z M67.0708,39.6567h0.0918l0.0918-0.0928h-0.1836V39.6567z M71.2202,38.8267c0.0928,0,0.2773-0.0928,0.3691-0.1846
		L71.2202,38.8267z M68.3618,39.564v-0.0918l0.1846-0.2764l-0.1846-0.0928h-0.2773l-0.0918,0.1846l-0.3691,0.2764l-0.2764-0.0918
		l-0.0928,0.0918v0.0928h0.3691c0.0928,0,0.4609-0.1846,0.5537-0.1846L68.3618,39.564z M68.3353,42.941
		c-0.0056-0.002-0.0106-0.004-0.0163-0.006c0.0024,0.003,0.0049,0.0062,0.0073,0.0092
		C68.3292,42.943,68.3323,42.9421,68.3353,42.941z M64.3032,40.7632v-0.0349l-0.0918,0.0087v0.118l-0.0918,0.0928h0.1836
		l0.0928-0.0928l0.3691,0.0928l0.4252-0.3036l-0.8392,0.0796C64.3377,40.7361,64.315,40.7514,64.3032,40.7632z M64.3511,40.7238
		c0.004-0.0037,0.0102-0.008,0.0143-0.0118l-0.0621,0.0074v0.0089L64.3511,40.7238z M70.4829,39.2876
		c-0.1228,0-0.2286,0.1163-0.337,0.2847l0.4288-0.1929L70.4829,39.2876z M69.5366,40.6851l0.2773-0.2764l-0.1714,0.0762
		c-0.0399,0.0698-0.0851,0.1395-0.1293,0.2095L69.5366,40.6851z M72.604,38.5503c-0.8936,0.3569-1.7121,0.7863-2.5509,1.1734
		c-0.0544,0.098-0.1111,0.2023-0.1718,0.3203C71.1006,39.4322,72.3093,38.7956,72.604,38.5503z M18.3525,53.1353l-0.0923,0.0928
		h0.0923V53.1353z M22.3184,54.0581c-0.0923,0-0.0923-0.0928-0.0923-0.1846l-0.1846,0.0918h-0.2769l-0.0923-0.0918l-0.0918,0.0918
		c0.1841,0.0928,0.3687,0.1846,0.5532,0.1846L22.3184,54.0581z M22.3184,54.519l-0.1846,0.0918h0.3687
		C22.4106,54.519,22.4106,54.519,22.3184,54.519z M27.2061,54.519l0.1846-0.0918h-0.2769L27.2061,54.519z M21.5806,53.8735h-0.0923
		l0.0923,0.0918V53.8735z M21.9492,53.3198V53.228c-0.2769,0-0.5532,0-0.8301-0.0928l-0.4609,0.0928l0.4609,0.2764h1.1069
		l0.2764-0.1846H21.9492z M14.2944,51.3833v-0.0918l-0.0918-0.0928v0.0928C14.2026,51.3833,14.2026,51.3833,14.2944,51.3833z
		 M35.23,51.1069l-0.1846-0.1846c-1.0146,0.3691-2.0293,0.5537-3.1357,0.7373C33.5693,51.4761,34.9526,51.2915,35.23,51.1069z
		 M21.3037,53.8735v0.0918c0.0923,0,0.0923-0.0918,0.1846-0.0918H21.3037z M17.7993,39.4868l-0.0923-0.3691l-0.0923,0.1846
		l0.0923,0.2764L17.7993,39.4868z M19.8281,53.5972l-0.0923,0.0918h0.2769L19.8281,53.5972z M21.2114,54.0581
		c0.0923,0.0918,0.1846,0.0918,0.2769,0.0918L21.2114,54.0581z M17.3379,39.855c-0.0923,0.4619-0.1841,0.9229-0.3687,1.3838
		c0.1846,0,0.1846-0.2764,0.1846-0.4609l0.2764-0.2764c0.0923-0.2773,0.2769-0.4619,0.2769-0.7383l-0.1846-0.0918L17.3379,39.855z
		 M20.2891,53.9653h0.5537l0.0923-0.1846c-0.1846,0-0.4614-0.0918-0.646-0.0918H20.105l-0.0923,0.0918v0.0928h0.0923
		L20.2891,53.9653z M21.396,54.7036l-0.2769-0.1846h-0.3687l0.1846,0.2764L21.396,54.7036z M20.105,54.0581v-0.0928
		c-0.0923,0-0.0923,0-0.0923,0.0928H20.105z M28.313,54.0581h0.0918c0-0.0928,0-0.0928,0.0923-0.1846
		C28.4048,53.8735,28.313,53.9653,28.313,54.0581z M59.0229,44.5591h-0.0918l-0.1846,0.0918L59.0229,44.5591z M59.6694,44.3745
		h0.1836v-0.0928h-0.0918C59.6694,44.2817,59.6694,44.2817,59.6694,44.3745z M60.1304,44.1899h-0.0928v0.0918
		C60.1304,44.2817,60.1304,44.2817,60.1304,44.1899z M27.5747,53.8735h-0.3687c0.1846,0.0918,0.3687,0.0918,0.5532,0.0918
		L27.5747,53.8735z M58.0093,44.9272h0.1836c0.0928,0,0.1846-0.0918,0.2773-0.0918l0.1846-0.1846H58.562l-0.3691,0.0928
		L58.0093,44.9272z M70.7358,40.5015l0.2764-0.1846l-0.2764-0.0928l-0.3691,0.1846L70.7358,40.5015z M65.2026,42.6226
		l-0.0928,0.0918h0.0928V42.6226z M67.9692,41.2388h0.0918v-0.1846C67.9692,41.0542,67.9692,41.147,67.9692,41.2388z
		 M16.7847,41.147l-0.3687,1.1982l0.0923,0.3691l0.4609-1.1992L16.7847,41.147z M65.9399,41.6079l0.1846,0.0918v-0.0918H65.9399z
		 M27.1138,53.5972v-0.0928h-0.0923L27.1138,53.5972z M28.5894,54.0581l0.6455-0.0928
		C29.0503,53.8735,28.7739,53.9653,28.5894,54.0581z M65.3872,41.8843l0.3682-0.0918l0.0928-0.0928
		C65.6636,41.6997,65.5718,41.7925,65.3872,41.8843z M28.9585,54.0581l-0.0923,0.0918h0.0923V54.0581z M16.0469,51.1069h-0.0923
		v0.0918C16.0469,51.1987,16.0469,51.1987,16.0469,51.1069z M15.4014,48.063c0.0923-0.1846,0.0923-1.291,0.0923-1.5674
		c-0.0923,0.6455-0.1846,1.291-0.1846,1.8447C15.3091,48.2476,15.4014,48.1558,15.4014,48.063z M14.9404,46.772v0.0928h0.0923
		V46.772H14.9404z M15.3091,46.0347v-0.0928l-0.0923,0.0928H15.3091z M15.5859,50.8296l-0.0923-0.0918v0.1846l0.0923,0.0918V50.8296
		z M15.77,44.5591l-0.1841,0.3682V45.02l0.1841-0.2764V44.5591z M15.77,50.3687c0,0,0.1846,0,0.1846-0.0918
		c0-0.0928-0.2764-0.2764-0.3687-0.3691c0-0.2764,0.0923-0.5527,0.0923-0.8301c-0.0923,0-0.1846,0.0928-0.1846,0.1846
		c0,0.3691,0.0923,0.7383,0.0923,1.1064H15.77z M15.4937,45.2964v0.0928l0.0923-0.1846L15.4937,45.2964z M14.7559,48.2476
		L14.479,48.063c0.1846,0.0928,0.1846,0.8301,0.1846,1.0146l0.0923-0.1846V48.2476z M14.5713,50.4614v0.0918l0.1846,0.2764
		l-0.0923-0.2764L14.5713,50.4614z M14.7559,47.1411v0.0918c0,0.0928,0.0923,0.0928,0.1846,0.0928
		C14.9404,47.2329,14.8481,47.1411,14.7559,47.1411z M15.9546,50.9224v-0.0928L15.77,50.5532v-0.0918h-0.0918v0.0918l0.0918,0.3691
		H15.9546z M14.2944,49.8159v0.0918l0.0923,0.1846l0.1846-0.2764l-0.0923-0.2773L14.2944,49.8159z M14.7559,47.7866
		c0.0923,0,0.0923,0,0.0923-0.0918h-0.0923V47.7866z M15.2168,52.3062l0.3691-0.0928v-0.1846c0-0.3691-0.4614-0.4609-0.6455-0.7373
		h-0.0923v-0.0928h-0.0923l0.0923-0.0918h-0.0923l-0.1846-0.1846l0.0923,0.2764l-0.0923,0.3691
		C14.8481,51.7524,15.0327,52.0288,15.2168,52.3062z M15.77,44.4663l0.1846-0.1846L15.77,43.8208V44.4663z M16.416,53.1353h0.0923
		c-0.0923-0.0918-0.0923-0.0918-0.0923-0.1836l-0.0923,0.0918C16.3237,53.1353,16.3237,53.1353,16.416,53.1353z M16.6001,51.8442
		h-0.0918v0.0928l0.2764,0.1846h0.0923C16.6924,52.1216,16.6924,51.937,16.6001,51.8442z M16.6924,53.228v-0.0928L16.416,53.228
		l0.1841,0.2764C16.6001,53.4126,16.6924,53.3198,16.6924,53.228z M17.4302,53.9653V53.689c0-0.2764-0.5532-0.1846-0.8301-0.1846
		l0.4614,0.4609H17.4302z M17.6147,52.7671c0-0.0928,0-0.0928-0.0923-0.0928c0-0.0918,0-0.0918-0.0923-0.0918
		c0,0.0918,0.0923,0.0918,0.0923,0.1846H17.6147z M15.77,51.3833c0-0.0918,0-0.0918-0.0918-0.0918
		C15.6782,51.3833,15.6782,51.3833,15.77,51.3833z M17.3379,52.4897l-0.1841,0.0928h0.2764L17.3379,52.4897z M16.877,53.4126h0.0923
		l-0.0923-0.0928h-0.0923L16.877,53.4126z M16.2314,43.1753l-0.0923,0.1846l0.1846,0.0928
		C16.3237,43.3599,16.3237,43.2681,16.2314,43.1753z M15.9546,48.3403l-0.0923-0.0928v0.0928H15.9546z M16.416,51.6597v-0.0918
		l-0.0923-0.1846h-0.0923v-0.0918h-0.1846c0,0.0918,0,0.0918,0.0923,0.0918v0.0928c0.0923,0,0.1846,0.0918,0.1846,0.0918
		L16.416,51.6597z M17.9839,53.4126v0.0918h0.1841c0-0.0918,0-0.0918-0.0923-0.0918H17.9839z M16.2314,52.8589l-0.2769-0.0918
		l0.2769,0.1846V52.8589z M16.0469,53.4126l-0.3687-0.3691C15.77,53.228,15.8623,53.3198,16.0469,53.4126z"/>
</g>
</svg>
