<?xml version="1.0" encoding="utf-8"?>
<!-- Generator: Adobe Illustrator 21.0.2, SVG Export Plug-In . SVG Version: 6.00 Build 0)  -->
<svg version="1.1" id="B1_Brush_Frame_20" xmlns="http://www.w3.org/2000/svg" xmlns:xlink="http://www.w3.org/1999/xlink" x="0px"
	 y="0px" viewBox="0 0 308.5671 263.0642" enable-background="new 0 0 308.5671 263.0642" xml:space="preserve">
<g id="P">
	<path fill="#FF4568" d="M219.4954,262.7668c-0.5605-0.2051-1.1142-0.4698-1.6581-0.7618
		C218.4056,262.2492,218.9603,262.5021,219.4954,262.7668z M308.5668,166.879c-0.5654,0.0908-1.0332,0.3681-1.6143,0.4638
		c-0.1591,3.875-1.621,12.5957-6.9335,8.9219c-0.4014,1.4248-1.1562,2.7529-2.3232,3.3486
		c-1.7217-4.7275-5.1895,0.6133-6.6094,2.5645c-0.3271-0.2959-0.6103-0.6016-0.9355-0.876
		c-1.0977,1.0039-1.6152,2.6924-1.9844,4.1328c-0.0793-0.003-0.3241,0.0124-0.6494,0.0378
		c-0.0081,0.0977-0.0145,0.1865-0.0234,0.2885c-0.1055,1.0996-0.2238,2.4775-0.4971,4.0234
		c-0.2783,1.5411-0.6465,3.2998-1.1328,5.2442c-0.5235,1.9111-1.2061,3.9756-2.0196,6.1953
		c-0.8789,2.1553-1.8876,4.4766-3.1376,6.8086c-1.2784,2.2998-2.6905,4.7353-4.417,7.0391
		c-1.6719,2.374-3.6299,4.6376-5.7646,6.8691c-4.3311,4.3633-9.0273,8.623-14.1445,12.4892
		c-5.1182,3.8565-10.5606,7.4971-16.3233,10.6807c-5.7646,3.1689-11.7861,6.0322-18.0156,8.412
		c-3.0952,1.1663-6.2317,2.2449-9.4003,3.2189c1.0129,2.2202,2.9871,4.0798,5.1962,5.2635
		c-3.6533-1.5683-7.915-2.6162-11.8419-2.0673c-0.1572,0.463,0.0108,0.9472-0.0596,1.4296
		c-1.5797-0.4097-3.0748-1.0062-4.5322-1.6901c-12.5168,2.7228-25.2739,3.8145-37.5439,3.2369
		c-9.9748-0.384-19.6949-1.9369-28.8084-4.2861c-0.0583,0.2991-0.0795,0.6155-0.0406,0.959
		c-1.6263-0.2413-2.9606-1.1408-4.2551-2.1377c-1.0934-0.3188-2.1862-0.6387-3.2586-0.9795
		c-1.3565-0.6074-3.0503-1.3643-4.9136-2.1973c-0.3222-0.1426-0.652-0.2997-0.9808-0.4547
		c-1.2083-0.1583-1.9368,0.2248-3.0412-0.5237c-0.2842-0.1922-0.408-0.7261-0.5206-1.2406
		c-0.4197-0.2125-0.8402-0.4254-1.2611-0.6344c-3.9316-2.043-7.7417-4.2568-10.2202-5.838c-2.6006-1.29-5.1187-2.8105-7.667-4.243
		c-2.0212-1.2702-4.0652-2.4891-6.061-3.8153c-5.4484-2.5764-10.7834-5.2796-15.1172-9.1349
		c-4.8171-4.2849-8.4107-9.2747-12.1758-14.3052c-1.7578-1.9606-3.4639-3.9814-5.1122-6.0659
		c-0.952-0.5972-1.8296-0.9152-2.4595-2.7587c-0.0739-0.216-0.1149-0.4528-0.1685-0.6818c-1.6269-2.2108-3.2-4.4755-4.6885-6.8172
		c-0.6851-1.1132-1.3938-2.2051-2.0573-3.3348c-0.4051,0.1611-0.8422,0.3648-1.3353,0.6326c-2.5918,1.4082-2.25,2.75-6.1387,0.9951
		c-4.7866-2.1592-4.8535-4.4199-10.9214-4.7685c-0.4365-1.2071-0.8359-2.5928-0.708-3.959
		c-0.8745,1.3994-2.7031,1.5683-4.4301,1.2187c-2.1675-9.2256-6.9395-18.1093-9.9415-26.9424
		c-1.4355-4.2265-1.7695-8.8261-3.2397-13.2041c-1.5767-4.6992-3.0586-6.8369-1.0078-11.3085
		c-0.9238,0.0947-1.8433-0.4688-2.6758-0.4738c0.2798-0.541,0.4419-1.6816,0.8662-2.2803c-0.27,0.3526-1.4111,0.8624-1.936,1.378
		c-4.9175-4.291-5.9243-12.041-7.8291-18.293c-1.731-5.6836-3.4971-7.9053,1.644-11.0762
		c3.3839-2.0849,6.4702-4.7744,10.3281-5.3379c1.9712-0.289,4.5274,0.2979,6.7706-1.1601
		c3.8134-2.4785,7.6411-6.5059,10.1577-10.2149c3.956-5.8291,4.3296-13.9238,6.4536-20.5
		c5.5957-17.3271,20.4853-27.8027,34.1782-38.2832c3.644-2.789,13.9883-12.8711,18.5874-11.8593
		c-1.8052,3.1904-8.2764,5.832-8.1274,8.7324c-15.7812,5.2129-23.9097,21.956-32.4536,34.9619
		c-4.8653,7.4043-8.6895,15.5137-10.6099,24.2686C41.847,72.5294,54.1238,57.1749,63.97,46.6876
		c5.4268-5.7812,11.4077-11.0411,17.8364-15.6817c5.3003-3.8271,14.0269-11.1347,21.1187-9.7324
		c3.5513,0.7021,2.0352,2.207,4.9644,0.5312c1.5463-0.8857,2.3281-3.1982,3.764-3.9785c1.9028-1.0332,4.0381,1.0703,4.5435-2.0703
		c-0.0586,0.3613,4.5825-3.2851,4.9619-3.4922c2.8086-1.5312,6.8672-1.8554,9.9785-2.4375
		c7.5273-1.4091,15.1841-2.1093,22.8408-2.1093c3.1616,0,6.2837,0.1582,9.3863,0.3916c3.8759-1.1846,9.4062-0.6534,12.2686-0.2754
		c8.8887,1.1748,25.7578,4.9697,33.9697,0.3008c-0.5439,1.6298-0.1113,3.2617-1.4775,4.7724
		c3.9287-0.3546,7.7568-1.4834,11.6201-2.0605c-0.1894,0.9336,0.421,2.5859,0.2715,3.4834c1.7344-0.2422,3.6113,0.3935,5.375-0.2461
		c1.3369,3.0937,6.5527,1.6787,9.8516,2.0615c0.9589,3.625,4.416,8.4609,5.0975,11.1934c0.9733,3.9096,1.0917,9.8874,0.6051,15.0366
		c0.1555,0.0938,0.3105,0.1868,0.4662,0.2807c2.5283,1.6485,5.0771,3.3213,7.5352,5.2032
		c4.9336,3.7177,9.7226,7.8798,14.1132,12.583c4.3766,4.6773,8.4089,9.8123,11.9542,15.3073
		c1.3322,0.515,2.8058,0.9489,4.4902,1.3852c2.9082,0.7538,4.1201-0.3926,6.7754-0.2549c2.9443,0.1533,4.9072,2.3984,7.081,4.4433
		c1.4336,1.3467,2.958,2.6074,4.9131,3.125c0.1221,1.5323-0.3623,3.0596-1.0273,4.4248c2.2324,0.585,4.6269,0.3936,6.9052,0.4473
		c-1.6347,3.8945-5.4843,10.0039-4.667,14.5576c1.2295,6.8574,6.0176,6.6602,2.2608,12.9727
		c-1.1231,1.8867-2.0586,2.8808-3.6602,4.3242c1.7422,0.0928,3.6436-0.0176,5.3067,0.1484
		c-1.1192,1.7578-2.4805,3.4297-3.0391,5.3291c-2.6474,1.2959-7.9267,4.0869-6.7226,7.5088
		c0.3105,0.0195,0.9023-0.1426,1.2061-0.1747c1.5986-0.1671-2.9551,3.5215-2.9531,3.5068
		c-0.0428,0.3127-0.4656,0.5324-0.9276,0.7326c-0.2155,2.8092-0.5443,5.568-0.985,8.255c0.0369,1.593,0.0905,3.2324,0.139,4.5964
		c1.4854-0.0752,2.042,0.2481,3.1456-0.6172c0.7773,1.3536,1.8818,2.629,2.3624,4.0567c1.7303-0.3965,3.333-0.0527,3.788,1.7187
		c0.7627-0.1709,1.9375,0.2891,2.6397,0.1534c0.9834,4.0556-3.3496,2.7441,0.8623,5.8253
		C305.2806,163.9484,308.6077,163.4279,308.5668,166.879z M187.6432,46.0635c1.7883,0.6287,3.5557,1.3138,5.2982,2.0593
		c0.65-0.22,1.2643-0.4439,1.8266-0.6719C192.4239,46.9267,190.0559,46.4517,187.6432,46.0635z M123.9358,29.1009
		c-0.0061,0.0021-0.0124,0.0036-0.0185,0.0057c-0.012,0.0041-0.0242,0.0082-0.0362,0.0123
		C123.8994,29.1129,123.9176,29.1069,123.9358,29.1009z M63.3042,65.8047c2.7971-3.1383,5.7282-6.1245,8.7841-8.9247
		c17.7532-16.096,39.3925-26.2014,61.298-30.5309c1.1387-0.2867,2.2831-0.5925,3.4384-0.8538
		c1.2173-0.253,2.4375-0.5078,3.6519-0.7608c2.4262-0.541,4.8618-0.8525,7.2046-1.2275c2.3463-0.3467,4.623-0.5264,6.747-0.7373
		c2.127-0.1611,4.1104-0.207,5.8809-0.252c3.541-0.0224,6.2324,0.2432,7.5674,0.6104c6.8135,1.7421,14.3717,3.6602,22.6278,6.0486
		c0.2438-0.0444,0.4835-0.0893,0.7355-0.1326c3.3181-0.5261,7.3433-0.8335,11.8506-0.5918
		c-6.1843-2.8191-12.1993-5.0264-17.9141-6.7432c-9.7842-2.9033-18.6914-4.5644-26.4815-5.5937
		c-2.5791-0.3486-10.4643-0.4404-19.4941,1.1914c-1.126,0.2061-2.272,0.416-3.4302,0.6279
		c-1.1474,0.2676-2.3071,0.5381-3.4717,0.8096c-2.3403,0.499-4.6323,1.2686-6.915,1.9043
		c-0.2065,0.0674-0.4048,0.1377-0.6099,0.2061c-20.4062,5.8779-39.3647,18.0029-53.5214,34.5331
		C68.4246,58.711,65.7634,62.1855,63.3042,65.8047z M271.6498,194.0811c1.2748-1.5071,2.4691-3.1945,3.7044-4.8535
		c-1.7173,0.2583-3.2679,0.6121-4.2835,0.9102c-0.3242,0.0953-0.6654,0.2021-1.0139,0.3147
		c-2.1852,3.2051-4.522,6.2971-6.992,9.2741c0.7012,0.346,1.3691,0.7561,1.9778,1.228
		C267.0087,199.2651,269.3455,196.8835,271.6498,194.0811z M96.3553,16.7131c1.5244-0.5616,2.4096-2.1065,4.0581-2.5547
		c3.5005-0.9512,5.2378-0.0108,8.6631-1.8868c3.0591-1.6748,5.8716-3.4052,9.331-4.6689c2.7958-1.0215,4.918-1.2832,7.794-2.2012
		c1.3105-0.4189,2.7787-0.2519,3.9501-0.6758c6.2036-2.2402,12.3559-2.8935,19.1519-3.2509
		c-0.1147-0.4658-0.2456-0.8799-0.4102-1.4092c-12.2774-0.6846-22.1562,4.167-33.8202,6.3984
		c-5.0363,0.9639-7.7155,3.5323-11.7208,5.1983c-3.2885,1.3681-9.9614,1.3115-11.1235,5.3174l-0.3862,0.3857
		C91.808,17.4006,95.8011,16.9172,96.3553,16.7131z M241.8763,20.0723c1.4277,1.7324,1.9248,3.6875,3.5986,5.4717
		c1.1973-2.9316,1.6553-6.5605,2.6299-9.6631c-4.7871,1.0371-1.915-3.3387-4.1856-3.8788c-1.1503-0.2724-5.3984,2.9922-5.5078,4.124
		C238.2211,18.0636,240.8411,18.8156,241.8763,20.0723z M214.5569,2.6915c-2.0898-0.3125-3.0957,3.581-3.5244,5.042
		C214.5989,9.634,217.4573,3.1261,214.5569,2.6915z"/>
</g>
</svg>
