<?xml version="1.0" encoding="utf-8"?>
<!-- Generator: Adobe Illustrator 21.0.0, SVG Export Plug-In . SVG Version: 6.00 Build 0)  -->
<svg version="1.1" id="B1_Brush_Frame_15" xmlns="http://www.w3.org/2000/svg" xmlns:xlink="http://www.w3.org/1999/xlink" x="0px"
	 y="0px" viewBox="0 0 203.8613 218.053" enable-background="new 0 0 203.8613 218.053" xml:space="preserve">
<g id="P">
	<path id="b1-brush-frame-15-p" fill="#FF4568" d="M164.7142,186.9835c-0.0134,0.0081-0.0275,0.0137-0.041,0.0217
		c0.0198-0.0012,0.0396-0.002,0.0593-0.0032L164.7142,186.9835z M96.0635,57.954c0.0014-0.0092,0.0021-0.0177,0.0035-0.0269
		c-0.0069,0.0032-0.0137,0.0064-0.0206,0.0096L96.0635,57.954z M191.1523,11.5241c-0.0067,0.0002-0.0131,0.0005-0.0198,0.0007
		c-0.0012,0.0057-0.0027,0.0113-0.004,0.017L191.1523,11.5241z M86.257,59.4699c0.012-0.0081,0.0249-0.0135,0.0369-0.0214
		c-0.0179-0.001-0.0352,0.0021-0.0531,0.0009L86.257,59.4699z M177.5645,71.5183c-0.0089-0.0018-0.0184-0.0042-0.0273-0.0062
		c0.0018,0.0083,0.0052,0.0159,0.007,0.0242L177.5645,71.5183z M134.1685,43.2214c-0.0007,0-0.0012,0.0001-0.0019,0.0001
		c-0.0051,0.0082-0.0126,0.0137-0.0176,0.0222L134.1685,43.2214z M190.3745,65.1112c-0.0013,0.0026-0.0033,0.0038-0.0046,0.0063
		c0.006,0.0031,0.0125,0.0046,0.0185,0.0078L190.3745,65.1112z M173.0157,61.7103c-0.004,0.0041-0.0087,0.0062-0.0128,0.0102
		c0.0084,0.0029,0.017,0.0032,0.0254,0.0063L173.0157,61.7103z M19.8407,177.5482c-0.0206-0.003-0.0407-0.0081-0.0613-0.0112
		c0.0149,0.0093,0.0302,0.018,0.045,0.0273L19.8407,177.5482z M1.7178,148.5126c0.0029,0.0004,0.0058,0.0007,0.0087,0.0011
		c0.0012-0.0056,0.004-0.0092,0.0051-0.0148L1.7178,148.5126z M78.3098,216.0387c0.0029,0.0067,0.0071,0.0097,0.01,0.0163
		c0.0018-0.0003,0.0035-0.0006,0.0052-0.0009L78.3098,216.0387z M201.644,3.3859c-0.4913,0.0914-1.0662,0.3577-1.4503-0.0139
		c-0.8782-0.8492-1.8957-1.0911-3.0699-1.145c-0.5461-0.0251-1.2023-0.5565-0.7627-1.1611c0.4653-0.6404,0.1823-0.695-0.3011-0.8382
		c-1.9334-0.5731-3.864,0.1295-5.7975,0.0229c-0.2319-0.0129-0.2231,0.1113-0.0875,0.3461
		c0.3085,0.5339,0.2576,0.6094-0.1874,0.5682c-1.9965-0.1846-4.0108-0.2487-5.9737-0.6877
		c-1.2507-0.2798-2.4802-0.1705-3.7389-0.1091c-2.2069,0.1078-4.2766,1.0275-6.4952,0.9885l0.0159-0.0201
		c-0.0316-0.0092-0.063-0.0184-0.0945-0.0275c0.0217,0.0142,0.0443,0.0264,0.0662,0.0403
		c-0.7787,0.4333-1.6568,0.5105-2.5068,0.6678c-9.5116,1.761-18.894,4.0839-28.1933,6.716
		c-4.2127,1.1926-8.4586,2.301-12.5854,3.8045c-3.7736,1.3744-7.5903,2.6312-11.3932,3.9244
		c-7.7351,2.6301-15.2391,5.8666-22.8979,8.6946c-2.7044,0.9987-5.2106,2.5115-8.0813,3.0861
		c-0.3926,0.0786-0.861,0.3926-1.056,0.7338c-0.6647,1.1637-1.8275,1.6602-2.8547,2.3514c-0.5322,0.358-1.1266,0.5458-1.7164,0.7593
		c-0.1122,0.0406-0.2427,0.106-0.2975,0.1994c-0.0314,0.0536,0.0731,0.2717,0.1162,0.2715
		c1.1967-0.0018,2.1453,1.0395,3.4399,0.7422c0.8464-0.1942,1.748-0.2134,2.6224-0.1958c0.5546,0.0112,1.4218-0.6356,1.6068,0.21
		c0.1298,0.5942-0.7983,0.8545-1.3646,1.1017c-6.7899,2.9641-13.5112,6.0762-20.2056,9.2495
		c-4.7117,2.2338-9.4317,4.4578-13.9172,7.1192c-2.7058,1.6057-5.7236,2.5562-8.3893,4.2205
		c-0.1533,0.0956-0.3571,0.1703-0.5327,0.1613c-1.2067-0.0619-2.0325,0.4744-2.5789,1.5309
		c-0.0532,0.103-0.3281,0.0914-0.5076,0.129c-0.2078,0.3628-0.3953,0.7477-0.7984,0.9395c-0.23,0.1096-0.55,0.1483-0.6251-0.1237
		c-0.3494-1.2656-0.7906-0.3284-1.2039-0.0851c-1.8644,0.2847-3.1251,1.4039-3.9871,2.9966
		c-0.2302,0.4254-0.4691,0.6974-0.9269,0.7803c-0.0013-0.2561-0.0292-0.5178-0.3831-0.4365
		c-0.3175,0.0728-0.6421,0.2888-0.6099,0.6208c0.1305,1.3461-0.7554,1.6763-1.7875,1.9601
		c-0.5333,0.1467-1.0659,0.3835-1.5269,0.6885c-1.5658,1.0359-3.2321,1.8827-4.9022,2.7272
		c-0.5532,0.2797-1.0425,0.6014-1.7536,0.3872c-0.4771-0.1435-0.7661,0.3696-0.486,0.8165c0.2275,0.363,0.5635,0.6571,0.8441,0.9877
		c0.3193,0.3756,0.6971,0.737,0.4194,1.3011c-0.0479-0.0121-0.0959-0.0244-0.1439-0.0365c0.0455,0.0179,0.0912,0.0361,0.1369,0.054
		l0.0002-0.0002v0.0001l0.0134-0.0157c-0.0016,0.1316-0.003,0.2629-0.0048,0.3941l-0.0158-0.016
		c0.2292,0.3403,0.3883,0.6849-0.1572,0.8651c-0.5225,0.1725-0.7882,0.5549-0.9592,1.0381l-0.0157-0.0159
		c0.0685,0.2641,0.0603,0.5065-0.2267,0.6383c-0.3373,0.155-0.7091,0.2542-1.0131,0.4567
		c-0.3046,0.2029-0.4232,0.4875,0.0768,0.6462c0.1897,0.0601,0.408,0.2213,0.295,0.3778c-0.6985,0.9704-1.2502,2.0006-1.6443,3.1373
		c-0.1066,0.3074-0.9487,0.347-0.5057,0.9377c0.2875,0.3834-0.0523,1.0951,0.6727,1.2134c0.4196,0.0683,0.6616,0.3499,0.7743,0.7332
		c0.5727,1.9507,2.098,2.8645,3.8351,3.5521c0.0325-0.2421,0.0466-0.4889,0.1066-0.724c0.0644-0.2537,0.2319-0.4736,0.5174-0.4291
		c0.3963,0.0617,0.4356,0.3992,0.4238,0.7222c-0.0157,0.4266-0.3271,0.633-0.6491,0.8239c1.0299,0.4661,1.5508,1.4442,2.2542,2.2389
		c0.1223-0.2422,0.2448-0.4845,0.3671-0.7266c0.0027-0.0027,0.0054-0.0054,0.0081-0.0081v-0.0001
		c0.1251-0.1249,0.25-0.2498,0.3748-0.3748l0,0c0.0051-0.0051,0.0103-0.0103,0.0154-0.0154l-0.0176,0.0119
		c0.0033-0.2517,0.0066-0.5031,0.0099-0.7546c-0.0002-0.0002-0.0004-0.0004-0.0006-0.0005
		c1.8828-1.8349,4.4329-2.7301,6.3576-4.5091c0.2831-0.2618,0.7018-0.4411,1.0453-0.2881c0.5477,0.244-0.1481,0.5983-0.0073,0.9506
		c0.1699,0.426,0.6504,0.661,0.8209,0.3013c0.623-1.313,2.1788-1.5977,2.9253-2.8232c0.5174-0.8492,1.0472-0.8071,1.9378-0.2806
		c0.4284,0.2529,0.8324,0.7448,1.3396,0.4579c0.7491-0.4241,1.2814-0.2162,1.8395,0.2996c0.0939,0.0869,0.4053,0.0731,0.5113-0.0171
		c0.1947-0.1663,0.024-0.312-0.1494-0.4103c-0.5518-0.313-0.6398-0.8572-0.3409-1.2865c0.7795-1.1191,1.4328-2.4042,2.7835-2.9694
		c0.9478-0.3965,1.6935-1.0411,2.4852-1.6593c1.5754-1.2302,3.4648-2.0317,4.8505-3.5325c0.1617-0.1756,0.4177-0.3221,0.6511-0.3638
		c1.8604-0.3329,3.2492-1.5306,4.7682-2.5084c0.6768-0.4356,1.4462-0.795,2.2234-0.9919c1.4053-0.3563,2.7007-1.0182,4.0914-1.3768
		c0.9318-0.2404,1.6337-0.9088,2.5739-1.1226c4.7667-1.0825,9.3717-2.7457,14.0972-3.9749
		c2.0639-0.5368,4.1508-0.9817,6.1727-1.6741c0.203-0.0696,0.5205-0.1664,0.58,0.1842c0.0156,0.0915-0.2289,0.2568-0.38,0.3423
		c-1.3051,0.7393-2.8893,0.7545-4.1584,1.5912c0.9364,0.0497,1.8287-0.2366,2.7422-0.3611c0.4286-0.0582,0.71,0.0865,0.7094,0.6088
		c-0.0021,2.1071-0.8812,3.3779-2.8871,4.1322c-0.4111,0.1547-0.8539,0.2657-1.2187,0.497
		c-3.0839,1.9539-6.4888,3.2596-9.7499,4.8536c-3.7219,1.8191-7.3513,3.8205-11.1261,5.5369
		c-1.7764,0.8076-3.9062,0.9395-5.2399,2.6323c-4.3707,1.8279-8.1119,4.7748-12.3009,6.9268
		c-0.5659,0.2906-0.9863,0.7543-1.4165,1.2212c-0.9384,1.0178-1.9306,1.9171-3.4,2.2082c-1.1068,0.2192-2.0516,0.9246-2.9741,1.5847
		c-0.31,0.2216-0.5377,0.4982-0.6823,0.8713c-0.7608,1.9645-1.6861,3.7355-4.2245,3.7272
		c-0.4031-0.0013-0.8041,0.3269-1.2115,0.4893c-1.347,0.5367-1.2397,0.541-1.3349,2.1013
		c-0.0439,0.7236,0.1798,0.9023,0.7249,0.9742c0.6826,0.0898,1.3728,0.1204,2.0587,0.1879
		c0.1873,0.0186,0.3774,0.0956,0.4103,0.3064c0.0327,0.2084-0.1151,0.3437-0.2885,0.4308c-0.111,0.0559-0.2427,0.0713-0.3516,0.13
		c-0.1564,0.084-0.4164,0.1809-0.4258,0.2902c-0.02,0.2289,0.2393,0.2234,0.4158,0.2492c0.3105,0.0449,0.6325,0.0438,0.9318,0.1269
		c0.6515,0.1809,0.7949,0.6743,0.2769,1.0839c-0.4868,0.385-1.0587,0.6647-1.6019,0.9753c-0.3063,0.1752-0.8295,0.2049-0.6848,0.711
		c0.1267,0.4427,0.599,0.4114,0.9636,0.3531c0.8115-0.1293,1.4368,0.3983,2.1589,0.5773c0.8109,0.201,0.8685,0.5265,0.3262,1.1827
		c-0.4389,0.5309-0.9751,0.9921-1.3504,1.5616c-0.3839,0.5822-0.0708,1.1995,0.6176,1.1846
		c0.9393-0.0201,1.8742,0.2885,2.8124,0.0278c0.4955-0.1376,0.8715-0.0699,0.9442,0.5457c0.0872,0.7377,0.5132,0.8933,1.0121,0.4105
		c1.265-1.2248,2.8578-1.4867,4.4916-1.6847c0.4781-0.0581,1.1535-0.4291,1.3661,0.0781c0.2327,0.5554-0.7411,0.3021-0.8759,0.7083
		c-0.5097,1.5377-1.8841,1.6685-3.1456,1.9952c-0.4752,0.1231-1.379,0.155-1.3138,0.4466c0.1232,0.5513,0.9264,0.2885,1.4253,0.4434
		c0.5368,0.1667,0.9443-0.2283,1.3588-0.5081c1.0005-0.6758,2.1229-1.0743,3.2684-1.411c0.2245-0.0661,0.5385-0.124,0.6675,0.1428
		c0.0898,0.1856-0.1573,0.2955-0.291,0.4208c-1.0068,0.9426-1.0201,0.9523-0.3607,2.2415c0.1616,0.3158,0.2161,0.5791,0.0229,0.8677
		c-1.4655,2.1888-2.8787,4.4164-4.4352,6.5387c-0.5068,0.6913-0.835,1.3122-0.9313,2.1675
		c-0.1544,1.3732-0.7013,2.6296-1.5731,3.7244c0.262,0.4291,0.5015,0.9187,1.0912,0.9173c0.433-0.001,0.744,0.0582,0.7903,0.5626
		c0.0735,0.8043,0.6199,1.0034,1.3162,1.0464c0.2016,0.0125,0.5428-0.0278,0.4932,0.3368
		c-0.0089,0.0655-0.3261,0.1302-0.4991,0.1259c-2.3941-0.0579-4.7705,0.057-7.1156,0.6014
		c-0.3535,0.082-0.7463,0.0126-1.1193-0.0127c-0.494-0.0331-1.3674-0.1682-1.3392,0.23c0.0521,0.7319,0.8893,0.3822,1.37,0.3655
		c1.3256-0.0457,2.6317,0.076,3.9383,0.2541c0.1854,0.0251,0.391,0.0598,0.424,0.2752c0.0129,0.0845-0.0953,0.2374-0.1858,0.2798
		c-1.5179,0.7108-2.7672,1.9923-4.5412,2.1589c-2.8116,0.2641-5.6233,0.5267-8.4359,0.7776
		c-0.3726,0.0334-0.7622,0.0474-1.1248-0.0253c-0.4272-0.0856-0.4664-0.3416-0.1184-0.6243
		c0.1781-0.145,0.5452-0.1693,0.4447-0.4796c-0.0272-0.0836-0.4505-0.0515-0.6918-0.0486c-0.172,0.0018-0.3436,0.0358-0.5154,0.059
		c0.9265-0.8111,2.1255-0.9716,3.2361-1.3425c0.5338-0.1784,1.0751-0.335,1.6048-0.5246c0.0901-0.0322,0.1918-0.1798,0.1955-0.2776
		c0.0078-0.2169-0.1616-0.3222-0.3578-0.3625c-0.5132-0.1055-0.9893,0.093-1.4792,0.186c-2.0581,0.3914-3.7092,1.7625-5.7275,2.31
		c-2.1964,0.5957-3.799,2.3862-5.8539,3.3212c-0.2968,0.135-0.5397,0.3938-0.5446,0.719c-0.0169,1.1671-0.9263,1.5134-1.7509,1.6288
		c-0.9547,0.1336-1.5931,0.5466-2.2118,1.2229c-0.9399,1.0275-1.0436,0.9918-2.2464-0.0759
		c0.0905-0.0694,0.1872-0.1327,0.2673-0.2126c0.0234-0.0234-0.0011-0.0947-0.0036-0.1442
		c-0.2261,0.0151-0.2158,0.2086-0.2678,0.3549c-0.7204,0.3844-0.4359,1.0898-0.5555,1.6754
		c-0.1176,0.5758-0.4164,1.0772-1.0701,1.1666c-0.5312,0.0728-0.7746-0.3353-0.9759-0.7341c-0.2338-0.4633-0.549-0.844-1.018-1.0712
		c-0.1537-0.0743-0.3801-0.16-0.5029-0.0991c-0.1839,0.0912-0.111,0.3267-0.048,0.5018c0.2979,0.8295,0.6005,1.6489,1.3725,2.194
		c0.2528,0.1784,0.437,0.485,0.2418,0.8137c-0.1545,0.26-0.4326,0.1837-0.6779,0.1295c-0.5348-0.1182-0.764,0.0542-0.8762,0.6371
		c-0.2335,1.2131-0.2825,1.2043-1.4304,1.0098c-1.3062-0.2214-1.6765-0.0513-2.0485,0.9402
		c-0.4345,1.1587-0.1478,1.933,0.9506,2.4951c0.3325,0.1697,0.7106,0.2523,1.0364,0.4316c0.2242,0.1232,0.3253,0.3817,0.2688,0.6491
		c-0.0598,0.2823-0.2993,0.4508-0.545,0.4359c-0.6822-0.0413-1.3603-0.1442-2.04-0.223c-0.1223,0.556-0.4504,0.8413-1.0425,0.8621
		c-0.4351,0.0152-0.567,0.3608-0.3305,0.6456c0.6515,0.7847,0.4388,1.4741-0.0569,2.2195
		c-0.5369,0.8071-0.2886,1.5553,0.2964,2.2343c0.0786,0.0911,0.1966,0.2372,0.2733,0.2242
		c0.2734-0.0471,0.1418-0.2519,0.1133-0.4131c-0.3027-1.7178-0.2975-1.7061,1.1978-2.2982c0.4019-0.1591,0.78-0.3921,1.1444-0.629
		c1.4876-0.9681,3.0583-1.4418,4.7992-0.7894c0.3191,0.1196,0.6089,0.2388,0.8566-0.0195c0.5563-0.5804,0.9944-1.2835,1.9756-1.2405
		c0.2451,0.0107,0.1708-0.4141,0.1255-0.6581c-0.0636-0.3426-0.0184-0.6515,0.3652-0.7493c0.4211-0.1074,0.7154,0.085,0.8978,0.478
		c0.5796,1.2485,0.2621,2.0933-1.1083,2.9244c-1.6911,1.0255-1.7144,1.0361-0.9215,2.8019c0.2299,0.5122,0.146,0.8572-0.2822,1.1183
		c-0.3165,0.1927-0.683,0.3068-1.0335,0.4395c-0.5428,0.2057-1.1133,0.3852-0.1213,0.8226
		c0.4352,0.1921,0.3553,0.4426,0.0281,0.6873c-0.1481,0.1107-0.3409,0.2446-0.2444,0.4404c0.1377,0.28,0.4225,0.2045,0.6546,0.1374
		c0.5973-0.1722,1.1243-0.5838,1.7897-0.5242c0.2471,0.022,0.5352,0.0305,0.598,0.3268c0.0595,0.2809-0.153,0.4814-0.3843,0.5741
		c-0.7559,0.3032-1.5073,0.6438-2.2928,0.8394c-0.7665,0.1908-1.501,0.0655-1.9509-0.7399
		c-0.1627-0.291-0.3387-0.8385-0.7921-0.3701c-0.296,0.3057-0.0763,0.7255,0.1935,1.0076c0.2144,0.2244,0.4872,0.394,0.7396,0.581
		c0.5958,0.4413,1.3268,0.7668,1.15,1.7478c-0.075,0.4166,0.3232,0.4561,0.6356,0.5012c0.4838,0.07,1.0761-0.0049,1.0364,0.7703
		l-0.0184-0.0214c0,0.0105,0,0.021,0,0.0315c-0.2676,0.1182-0.2676,0.2361-0.0003,0.354c0,0.0108,0,0.0215,0,0.0323l0.0187-0.022
		c0.2545,0.384,1.121,0.6943,0.6887,1.112c-0.4421,0.4271-0.6954,0.8823-1.0181,1.3602c-0.4095,0.6066-0.5107,0.7374-0.0297,0.9946
		c0.6824,0.3644,1.3502,0.0834,2.0266,0.0093c0.3818-0.0418,0.7898-0.0507,0.911,0.4252c0.2321,0.9112-0.3633,1.7577-1.2998,1.8673
		c-0.2473,0.0289-0.505-0.0309-0.7523-0.002c-1.0198,0.1193-1.2745,0.5883-0.7983,1.5523c0.2202,0.4456,0.5679,0.8267,0.8174,1.2601
		c0.2473,0.429,0.1362,0.7129-0.4073,0.7245c-0.1773,0.0037-0.4025-0.0443-0.4003,0.2227c0.0006,0.0697,0.1771,0.1754,0.2875,0.2006
		c0.6724,0.1541,1.3519,0.2778,2.0227,0.4375c0.2451,0.0584,0.5266,0.1887,0.3089,0.512c-0.0907,0.135-0.3113,0.1824-0.4761,0.2675
		c-0.0007,0.1259-0.0012,0.2516-0.0018,0.3776c0.7564,0.2585,0.3832,1.4139,1.3397,1.5881c2.223,0.405,4.2776,1.4506,6.5247,1.7867
		c-0.4597-0.2862-0.9357-0.5504-1.3701-0.8708c-0.5048-0.3728-0.9732-0.8073-0.9787-1.5042
		c-0.0013-0.1656,0.0989-0.3781,0.2238-0.4879c0.1838-0.1617,0.291,0.0019,0.3955,0.1769c0.605,1.0141,1.4708,1.2457,2.5435,0.8129
		c-1.7252-0.5385-1.7845-0.7305-0.769-2.6197c0.011,0.001,0.0224,0.0016,0.0335,0.0026c-0.0071-0.0081-0.0155-0.0153-0.0224-0.0235
		l-0.0005,0.0007c0.0001-0.0002,0.0002-0.0004,0.0004-0.0007l-0.016,0.0206c0.2872-0.5095,0.6006-1.009,1.3011-0.6711
		c0.7146,0.345,1.2937,0.3954,2.0549-0.0955c0.8224-0.5304,1.8051,0.1266,1.8879,1.0605c0.0739,0.8347-0.3007,1.2651-1.1687,1.285
		c-0.304,0.0071-0.6099-0.113-0.9156-0.1172c-0.3905-0.0055-0.5737,0.1816-0.3729,0.5814c0.1252,0.2489,0.6639,0.3558,0.3978,0.7027
		c-0.2089,0.2721-0.5709-0.0082-0.8475-0.1215c-0.5343-0.2188-1.0623-0.3685-1.5905,0.0102
		c0.3933,0.1963,0.7922,0.3831,1.1789,0.592c0.3262,0.176,0.726,0.3326,0.7093,0.7838c-0.0162,0.437-0.3538,0.6422-0.7415,0.7366
		c-0.5868,0.1429-1.2858,0.4333-1.0346,1.0663c0.4368,1.1016-0.2787,1.9641-0.4293,2.9068
		c-0.1082,0.6752-0.3886,1.658-1.4435,1.9579c-1.0046,0.2855-0.8473,0.3337-0.379,1.4378c0.4737,1.1168,0.9233,2.2209,0.089,3.5825
		c-0.6395,1.0433-1.7566,2.2766-0.7787,3.794c0.1696,0.2633-0.027,0.5984-0.1383,0.898c-0.3505,0.9443-1.1062,1.0656-1.9772,1.095
		c-1.9789,0.0669-3.8282,0.5997-5.5505,1.6034c-0.6956,0.4054-1.1442,0.7709-0.528,1.5906c0.2631,0.3498,0.191,0.7017-0.248,0.9217
		c-0.5493,0.2751-1.6009,0.1552-1.6182,0.6942c-0.0256,0.8014,1.0901,0.5732,1.6226,0.96c0.4057,0.2947,0.8507,0.5378,1.2427,0.8487
		c0.9476,0.7513,1.9268,1.356,3.1984,1.4459c0.6036,0.0425,1.1873,0.3852,1.7773,0.5994c0.1791,0.065,0.3781,0.1879,0.3094,0.3895
		c-0.0488,0.1443-0.2322,0.2841-0.3873,0.3444c-1.6964,0.6603-3.4781,1.0199-5.2372,1.4568
		c-0.3049,0.0757-0.7757,0.1003-0.8471-0.1988c-0.306-1.2792-1.4373-0.7018-2.1562-1.0266
		c-0.0856-0.0386-0.2717,0.0143-0.3368,0.0894c-0.147,0.1686-0.0671,0.3986,0.0916,0.4724c1.0914,0.5082,0.9518,1.299,0.5401,2.1719
		c-0.0799,0.1693-0.1506,0.3487-0.1893,0.5312c-0.2288,1.0792,0.067,1.3491,1.1652,1.0109c0.5592-0.1723,1.1161-0.5637,1.1135,0.515
		c-0.0009,0.3973,0.3147,0.2267,0.5397,0.1083c0.3295-0.1733,0.6523-0.4014,1.0059-0.4803c2.5643-0.5723,5.1893-0.988,7.7859-0.7429
		c1.9487,0.184,3.7034-0.2396,5.517-0.6663c0.7943-0.187,1.5933-0.3866,2.4016-0.4742c4.3116-0.4673,8.527-1.4212,12.7172-2.4926
		c1.093-0.2795,2.1275-0.7463,3.176,0.1215c0.214,0.1771,0.6202,0.2553,0.9003,0.1972c1.3647-0.2834,2.5999,0.1993,3.866,0.5474
		c0.7861,0.2161,1.5902,0.5444,2.3814,0.5312c3.002-0.0492,5.8362,0.7747,8.6824,1.528c1.4902,0.3941,2.746,0.1505,3.7585-1.0112
		c0.9696-1.1123,2.2008-1.6148,3.6299-1.7561c3.1772-0.3142,6.353-0.5543,9.4116-1.6537c1.5341-0.5516,3.1904-0.7702,4.4105,0.9021
		c0.3683,0.5049,1.067,0.629,1.6905,0.7571c0.1796,0.0369,0.3916,0.1042,0.285,0.353c-0.0374,0.0876-0.1977,0.152-0.3118,0.1722
		c-0.5094,0.0903-1.3645-0.2757-1.3876,0.5295c-0.0426,1.4778-1.1313,1.6655-2.114,1.9917
		c-1.1843,0.3932-2.4401,0.534-3.5391,1.2293c-0.589,0.3728-1.4,0.4629-0.7094,1.4332c0.17,0.2388-0.0461,0.4591-0.2503,0.6328
		c-0.2732,0.2321-0.8685,0.2392-0.7983,0.6577c0.0479,0.2848,0.5232,0.4904,0.792,0.7469c0.3635,0.3467,0.7363,0.688,1.0615,1.0688
		c0.4937,0.5775,0.4386,0.8366-0.2375,1.1098c-0.464,0.1875-0.9651,0.2819-1.4336,0.4595c-0.3461,0.1309-0.8195,0.317-0.7437,0.7269
		c0.1008,0.5452,0.6273,0.2776,0.9365,0.2124c2.827-0.597,5.7676-0.2795,8.572-1.0999c0.6492-0.19,1.3556-0.2142,2.0118-0.4477
		c0.2358-0.084,0.5226-0.0552,0.5954,0.2547c0.0479,0.2042-0.1344,0.3687-0.3152,0.3833c-1.6161,0.1303-3.0109,0.8127-4.3513,1.666
		c-0.5178,0.3297-0.9475,0.1832-1.1994-0.39c-1.2305,0.2123-2.4625,0.4158-3.6901,0.6442
		c-0.2786,0.0516-0.7141-0.0391-0.7592,0.3563c-0.0405,0.3542,0.3346,0.4998,0.6245,0.5933
		c0.3542,0.1138,0.728,0.2263,1.0949,0.2322c2.162,0.0356,4.366,0.6105,6.4396-0.5606c0.415-0.2343,0.9671-0.248,1.4625-0.3149
		c3.56-0.4807,6.8595-1.9279,10.321-2.7724c0.4216-0.1028,0.9143-0.1858,0.7262-0.8368l0.0115,0.0115
		c0.7689-0.7994,1.745-1.2068,2.7949-1.4732c0.681-0.1729,1.4034-0.3829,1.7563-1.0024c0.4004-0.7027,0.7898-0.6257,1.5303-0.6506
		c0.7268-0.0242,1.9062,0.1187,2.4564-0.9192c0.1788-0.3372,0.6441-0.3217,1.0059-0.4286c2.1432-0.6336,4.4476-0.7437,6.4082-1.9835
		c0.3077-0.1947,0.702-0.2957,1.0692-0.3461c3.3085-0.454,6.381-1.8513,9.6597-2.4058c1.127-0.1906,2.0661-0.9415,3.2245-0.9856
		c1.502-0.0573,3.0262-0.0035,4.2201-1.1917c0.149-0.1486,0.4725-0.1349,0.7189-0.1708c2.6061-0.38,5.1422-1.0723,7.6863-1.7272
		c0.6693-0.1722,1.3366-0.3652,1.9183-0.7576c0.1977-0.1333,0.5428-0.4133,0.5184-0.4567c-0.5378-0.9586,0.3171-0.817,0.751-0.9462
		c2.0105-0.5994,4.2255-0.6522,5.868-2.2208c0.2633-0.2513,0.5726-0.1656,0.8829-0.1699c0.3882-0.0052,1.047,0.2753,0.9846-0.431
		c-0.0476-0.5375-0.6807-0.4155-1.1042-0.4208c-0.2486-0.0032-0.4976,0.0673-0.7474,0.0772
		c-0.1924,0.0076-0.4158-0.0449-0.4529-0.2547c-0.0406-0.2296,0.174-0.3008,0.3619-0.3429c0.366-0.082,0.7377-0.1436,1.0979-0.2454
		c0.0909-0.0259,0.1473-0.1734,0.2197-0.2648c-0.0988-0.0518-0.2-0.1511-0.2958-0.146c-0.2489,0.0124-0.494,0.0893-0.7432,0.1077
		c-2.2939,0.1688-4.5139,0.9149-6.8337,0.8781c3.1733-1.408,6.6492-1.5406,9.9689-2.3325c2.4376-0.5816,4.9294-0.9346,7.3953-1.4001
		c0.228-0.043,0.5759-0.1021,0.5073-0.4114c-0.0664-0.2985-0.3995-0.2036-0.6322-0.1661c-1.4756,0.2386-3.022-0.0958-4.4498,0.5544
		c-0.1591,0.0724-0.3738,0.0577-0.5563,0.0344c-0.2638-0.0341-0.4966-0.1854-0.4844-0.4681
		c0.0067-0.1516,0.1562-0.3757,0.2938-0.4279c0.4064-0.154,0.8341-0.2671,1.2628-0.3456c2.0995-0.3836,4.1999-0.7636,6.3041-1.1202
		c1.8953-0.3215,3.8448-0.4233,5.557-1.4408c-2.6098,0.1592-5.2331,0.2045-7.8261,0.5084
		c-5.3604,0.6283-10.7076,1.3721-16.054,2.1149c-6.1545,0.8552-12.3101,1.7092-18.4496,2.6636
		c-3.9047,0.6068-7.8292,1.0562-11.7274,1.7408c-4.562,0.801-9.1776,1.362-13.8115,1.6688c-0.4926,0.0328-1.384,0.3646-1.3868,0.165
		c-0.0093-0.6667,0.7797-0.7894,1.2654-1.1151c0.1002-0.0673,0.2335-0.1057,0.3553-0.1176
		c1.6086-0.1566,2.9869-0.9886,4.3708-1.6722c3.7162-1.8356,7.5622-3.3649,11.3578-5.0107c1.2692-0.5504,2.5306-1.0992,3.7381-1.772
		c1.7133-0.955,3.4973-1.69,5.4789-1.8732c0.8853-0.0818,1.7023-0.4205,2.4894-0.828c1.2891-0.6672,2.6581-1.1174,4.0676-1.4407
		c1.0447-0.2397,2.074-0.5317,3.0417-0.9877c1.8836-0.8871,3.8588-1.5182,5.8447-2.1091c4.5262-1.3466,8.899-3.0717,13.131-5.162
		c0.3993-0.1973,0.7738-0.4119,1.0674-0.7534c0.3643-0.424,0.2858-0.7898-0.1195-1.1346c-0.3591-0.3054-0.7502-0.4679-1.2138-0.287
		c-0.7476,0.2916-1.5592,0.4547-2.1623,1.0448c-0.0018-0.0023-0.0023-0.0016-0.0042-0.0039
		c-0.5839-0.2535-0.6074-0.6533-0.1378-0.9845c0.8232-0.5808,1.5488-1.2877,2.3531-1.8681c1.105-0.7972,1.2656-1.7585,1.0781-2.9617
		c-0.1783-1.145-0.1506-1.1628-1.1593-0.7286c-1.1758,0.5062-2.4475,0.5576-3.679,0.7793
		c-1.6052,0.2891-1.8666,0.0791-2.4648-1.5297c-0.4858-1.3066-0.898-1.5099-2.0583-0.8069
		c-0.7599,0.4603-1.4938,0.9271-2.3802,1.0787c-2.0818,0.3561-4.0898,1.1684-6.2598,0.9894
		c-0.3685-0.0305-0.7617,0.0223-1.1201,0.1212c-2.917,0.8049-5.891,1.4706-8.6249,2.8003c-2.7604,1.3425-5.4936,2.713-8.3669,3.8285
		c-3.8011,1.4759-7.4907,3.2374-11.255,4.8118c-0.554,0.2318-1.3965,1.0056-1.7946,0.2224
		c-0.2812-0.5533,0.7501-0.985,1.2488-1.4209c0.0919-0.0804,0.2187-0.1223,0.3321-0.176c2.0411-0.9655,3.9573-2.1314,5.8118-3.4236
		c2.117-1.4749,4.624-2.3201,6.741-3.7437c3.8714-2.6036,8.2703-3.8992,12.5101-5.5986c2.5584-1.0253,5.2565-1.7479,7.2123-3.8927
		c0.6765-0.7418,1.5132-1.3584,1.3385-2.5458c-0.0611-0.4142,0.243-0.6765,0.5118-0.9538c0.5787-0.5967,1.2404-1.038,2.0173-1.3485
		c1.1838-0.4731,2.2139-1.1725,2.9104-2.2803c0.0641-0.1017,0.1041-0.2189,0.1553-0.3288c-0.1107-0.0314-0.237-0.1146-0.3296-0.0865
		c-1.379,0.4188-2.7553,0.8471-4.1283,1.2854c-0.4415,0.141-0.9264,0.6951-1.3072,0.0601c-0.3111-0.5188,0.2504-0.9142,0.4924-1.329
		c0.2047-0.3511,0.6176-0.3786,0.9661-0.5187c1.4325-0.5753,2.5616-1.7838,4.1741-2.0043c0.1503-0.0208,0.3068-0.2183,0.4015-0.3706
		c0.1296-0.2084,0.3188-0.4771,0.2762-0.6757c-0.0915-0.4271-0.4897-0.2597-0.7747-0.2319
		c-0.4359,0.0425-0.8719,0.1054-1.3008,0.1943c-0.4839,0.1003-1.1227,0.463-1.4083,0.0323
		c-0.329-0.4962,0.5745-0.6399,0.6901-1.1562c0.2597-1.1593,1.1263-1.5865,2.249-1.5978c1.6049-0.0167,3.1095-1.1456,4.7857-0.4334
		c0.0914,0.0388,0.2482-0.0331,0.358-0.0873c1.0745-0.5323,2.2127-0.3437,3.3386-0.3092c0.8159,0.0251,1.7217,0.275,2.4309,0.0082
		c1.8165-0.6832,3.6871-0.7022,5.5614-0.835c0.3696-0.0262,0.9105-0.0229,1.0117-0.3574c0.1478-0.4888-0.5271-0.5702-0.7593-0.9172
		c-0.2638-0.3942-0.7344-0.4549-1.1818-0.4745c-0.9401-0.0413-1.8807-0.0919-2.8214-0.1005
		c-1.7452-0.0161-3.4906-0.0046-5.2361-0.0046c1.1562-0.3022,2.1566-1.0483,3.3718-1.0557c0.1697-0.0009,0.489-0.1173,0.485-0.1512
		c-0.0404-0.3519-0.3489-0.2352-0.5491-0.2368c-4.7121-0.0364-9.4249-0.1522-14.1295,0.27
		c-0.9979,0.0897-2.0102,0.0854-3.012,0.0397c-0.6161-0.0279-1.2687-0.4189-1.8295-0.2975
		c-2.4249,0.5245-4.8875,0.3119-7.3268,0.4774c-1.858,0.1259-3.7487,0.5785-5.6096-0.0582
		c-0.2261-0.0773-0.5696-0.0349-0.6276-0.3007c-0.0656-0.3,0.2648-0.3638,0.4827-0.473c1.525-0.7632,3.0481-1.5195,4.8444-1.0541
		c0.1688,0.0438,0.3786,0.0016,0.5504-0.0565c0.2338-0.079,0.4973-0.201,0.5083-0.4838c0.0113-0.2922-0.2542-0.446-0.4883-0.4833
		c-1.3534-0.2169-2.7386-0.323-3.7954-1.3696c-0.0697-0.0689-0.2449-0.0218-0.3663-0.0499
		c-1.196-0.2768-1.6291-0.9606-1.3279-2.1179c0.0628-0.2408,0.2357-0.459,0.271-0.7003c0.2013-1.37,1.973-2.4222,0.8276-4.0629
		c0.451-1.0489,1.9622-1.4041,1.8614-2.8327c-0.0052-0.0711,0.3036-0.1722,0.4721-0.2458c0.3425-0.1494,0.7779-0.2039,1.015-0.4508
		c0.5117-0.5336,1.5969-0.7591,1.5388-1.5095c-0.0704-0.9076-1.1216-1.2653-1.8604-1.6882
		c-0.606-0.3469-1.2621-0.3352-1.3763,0.6074c-0.079,0.6526-0.4072,0.6964-0.9048,0.4386
		c-0.3905-0.2026-0.7801-0.4072-1.1728-0.6057c-1.4922-0.7543-3.0242-1.1774-4.7278-0.8043
		c-0.6628,0.1453-1.3768,0.0697-2.0673,0.0689c-0.2177-0.0001-0.5386,0.0847-0.5794-0.2514
		c-0.0105-0.0864,0.2495-0.2704,0.4072-0.3022c1.617-0.3279,3.0508-1.1375,4.5784-1.6902c1.4365-0.5196,2.9145-0.9608,4.5188-0.1785
		c1.4956,0.7296,1.6149,0.5789,2.6926-0.6774c0.4391-0.5119,0.697-1.2226,1.4798-1.3702c1.3565-0.2557,2.7025-0.6085,4.0859-0.0928
		c0.586,0.2186,1.2087,0.3408,1.8179,0.4943c0.1649,0.0416,0.4065,0.1115,0.447-0.1159c0.0165-0.0923-0.2238-0.2499-0.3677-0.3477
		c-0.2946-0.2003-0.5574-0.5269-0.0887-0.6593c1.2078-0.3411,2.1906-1.1489,3.4788-1.3815
		c2.0869-0.3764,4.2115-0.7422,6.1093-1.8125c0.4508-0.2542,0.9377-0.2258,1.4537-0.2233c2.4725,0.0129,4.8583-0.3071,6.8562-2.002
		c0.3602-0.3055,0.9044-0.5046,1.3812-0.5447c3.1379-0.2635,6.0859-1.4957,9.2266-1.7582c1.113-0.0931,2.2897-0.2401,3.2086-0.978
		c0.9338-0.7498,2.0113-0.9743,3.1412-1.1345c1.1177-0.1584,2.2299-0.3588,3.3427-0.5502c0.1815-0.0312,0.3748-0.1191,0.3629-0.3387
		c-0.0047-0.0826-0.1476-0.1939-0.249-0.2281c-0.3657-0.1239-1.2333-0.101-0.1305-0.562c1.5084-0.6305,3.0106-1.2396,4.6909-1.3005
		c0.8058-0.0291,1.603-0.2888,2.4048-0.439c0.4117-0.0771,0.4661-0.1002,0.1666-0.532c-0.8771-1.2642-2.1714-1.2725-3.3472-1.0106
		c-1.7693,0.3945-3.5002,0.1328-5.2498,0.1373c-1.7618,0.0042-3.5115,0.786-5.2984-0.0912
		c-0.5037-0.2473-1.2511-0.1129-1.861-0.0065c-1.3591,0.2368-2.7304,0.4745-4.0455,0.8788
		c-2.4387,0.7495-4.9751,0.7336-7.4501,0.7932c-1.4299,0.0344-2.8651,0.0499-4.2499,0.3132
		c-1.1383,0.2166-1.9443-0.1005-2.743-0.7963c-1.0013-0.8724-1.0081-1.3882,0.1617-1.9265c0.8224-0.3784,1.5137-0.8719,2.1382-1.502
		c0.5822-0.5871,1.2762-0.9908,2.0394-1.3229c2.4752-1.0775,4.8824-2.2786,7.0993-3.8486c0.8599-0.6089,1.809-1.1481,2.794-1.5125
		c2.1511-0.7958,4.0691-1.9998,5.863-3.3576c3.051-2.3088,6.0416-4.7062,8.9492-7.1933c2.2627-1.9353,3.4129-4.4359,3.1292-7.5123
		c-0.0933-1.0145-0.2935-1.9821-0.6132-2.939c-0.199-0.5956-0.4396-1.1898-0.5331-1.8042
		c-0.0963-0.6323,0.3661-0.4772,0.7268-0.3981c-0.1339-0.6135-0.4474-1.1451-0.7578-1.6804c-0.4541-0.7834-0.3538-1.0721,0.5502-1.2
		c0.8644-0.1222,1.7493-0.0917,2.6226-0.1625c0.3561-0.0289,0.9517-0.0436,0.8763-0.4847
		c-0.1619-0.9492,0.4778-0.9343,1.0032-0.9337c0.9573,0.0013,1.9332-0.1174,2.761-0.474c1.3793-0.5939,2.764-0.7231,4.2124-0.6602
		c0.6708,0.0291,1.2322-0.1644,1.5646-0.7991c-0.6207-0.316-1.2866-0.3964-1.9746-0.4142
		c-0.9528-0.0247-1.8731-0.1077-2.3237-1.1844c-0.144-0.3442-0.5188-0.5593-0.923-0.5438
		c-2.1311,0.0824-4.1798-0.5876-6.3139-0.6282c-1.8731-0.0358-3.7322,0.2318-5.5981,0.0942
		c-0.6456-0.0475-1.3188,0.2065-1.9371-0.1627c0.5311-0.2964,1.2279-0.0935,1.7036-0.558
		c-0.4179-0.1436-0.8475-0.0837-1.2779-0.0914c-2.7124-0.0479-5.3805,0.41-8.0643,0.6832
		c-0.6333,0.0645-1.2499,0.1154-1.8557-0.1253c-0.3429-0.1363-0.7708-0.2131-0.7538-0.6954
		c0.0126-0.3613,0.3464-0.5114,0.6295-0.6328c1.2692-0.5444,2.564-1.0326,3.8178-1.6091c3.8833-1.7858,7.7928-3.5541,11.989-4.4156
		c2.7476-0.5641,5.1563-1.9295,7.7859-2.736c0.2343-0.0719,0.5348-0.2173,0.4621-0.4949c-0.1111-0.4238-0.4872-0.2617-0.7743-0.2051
		c-0.9215,0.1815-1.8129,0.5356-2.7728,0.4938c-0.4566-0.0199-0.8906-0.0838-0.9359-0.6868
		c-0.1627-2.1738,0.6719-3.4876,2.767-4.3068c0.4863-0.1901,0.8883-0.4238,1.0784-0.9581c0.538-1.5125,1.6949-2.5852,2.8143-3.6261
		c1.86-1.7299,4.1506-2.8821,6.2094-4.3507c-0.2991,0.0372-0.6035,0.0529-0.8945,0.1238c-0.7768,0.1893-1.5468,0.4056-2.3199,0.611
		c0.2728-0.9871,1.3578-0.9101,1.9548-1.4859c0.4552-0.4389,1.0613-0.7867,0.7943-1.5412
		c-0.2953-0.8342-0.9401-0.2354-1.4324-0.3088c-1.2656-0.1895-2.849,0.1686-3.1866-1.7965
		c-0.1143-0.665-0.7738-0.9528-1.4523-1.0035c-0.3066-0.0229-0.5013,0.0953-0.2881,0.4188c0.174,0.2638,0.3683,0.51,0.382,0.8403
		c0.0137,0.3262-0.0397,0.6388-0.3747,0.7863c-0.2823,0.1243-0.4874-0.0621-0.6346-0.2667
		c-0.3949-0.5493-0.9219-0.8749-1.592-0.8602c-1.6467,0.0356-3.4371-0.5262-4.7352,1.0736
		c-0.0726,0.0893-0.2164,0.1793-0.3227,0.1743c-1.1506-0.0526-1.6176,0.8074-2.1284,1.5911
		c-0.4345,0.6666-0.8361,1.3045-1.7648,0.6521c-0.3967-0.2787-0.8486-0.1828-1.2625,0.0072
		c-1.9502,0.8954-4.0609,1.2716-6.0952,1.8934c-2.1608,0.6605-4.3099,1.4944-6.582,1.5426
		c-2.1821,0.0463-4.2355,0.451-6.2011,1.3463c-3.7197,1.6943-7.6102,2.9415-11.4207,4.3977
		c-1.1837,0.4522-2.4092,0.7656-3.6776,0.4025c-0.7014-0.2007-0.9921,0.1497-1.3501,0.6683
		c-0.8063,1.1684-2.0266,1.5583-3.2651,1.0406c-1.3527-0.5654-2.6785-1.0209-4.1782-0.5714
		c-0.3888,0.1167-0.873-0.0226-1.3006-0.1088c-0.9343-0.1881-1.868-0.1537-2.8129-0.1335
		c-1.8832,0.0408-3.7574,0.0873-5.5992,0.5538c-0.4175,0.1057-0.8745,0.076-1.3127,0.0694
		c-0.1644-0.0025-0.4304-0.0799-0.4683-0.1874c-0.0741-0.2098,0.1517-0.3127,0.3343-0.355c0.8563-0.1991,1.7092-0.5022,2.575-0.5475
		c0.9406-0.0496,1.3185-1.0016,2.1636-1.1179c0.0617-0.0085,0.1254-0.0036,0.1882-0.0048l-0.0151,0.0179
		c0.0521,0.0118,0.1043,0.0234,0.1566,0.0352c-0.0413-0.0154-0.0826-0.031-0.124-0.0465c1.5076-0.577,3.0457-0.9808,4.6842-0.9053
		c0.2687,0.0124,0.8405-0.2156,0.6143-0.3976c-0.5236-0.4219-0.6408-0.5064,0.0903-0.7109
		c0.9559-0.2672,1.8754-0.6821,2.8987-0.6383c0.2693-0.4359,0.746-0.6332,1.1069-0.963c0.0795-0.0727,0.1355-0.2223,0.1264-0.33
		c-0.0179-0.2103-0.1982-0.2958-0.3833-0.3428c-0.386-0.098-0.7416,0.0045-1.0927,0.1641c-1.346,0.6113-2.7666,0.7886-4.2302,0.728
		c-1.5839-0.0653-3.1122,0.1642-4.6292,0.6694c-1.0623,0.3533-2.2013,0.4764-3.3073,0.6961
		c-0.2457,0.0488-0.6023,0.0974-0.6699-0.1567c-0.2892-1.0867-0.826-0.5745-1.3698-0.2707
		c-2.6528,1.4824-5.4867,2.4948-8.4476,3.1359c-5.6425,1.2216-11.293,2.4066-16.941,3.6032
		c-0.3052,0.0645-0.6158,0.1162-0.9264,0.1383c-0.2591,0.0182-0.5023-0.0755-0.633-0.3179
		c-0.1396-0.259-0.0146-0.4824,0.1553-0.6805c0.5791-0.6755,1.2599-1.2298,2.0532-1.6299c0.5569-0.2812,1.1821-0.448,1.6988-0.7851
		c2.3564-1.5371,4.5226-3.4014,7.3318-4.1404c0.2328-0.0612,0.4643-0.2151,0.6419-0.3834c0.7149-0.6783,1.628-0.9277,2.5269-1.2039
		c0.7189-0.2209,1.4423-0.434,2.1748-0.6019c2.6385-0.6041,4.9875-2.0658,7.6595-2.569c0.7169-0.135,1.272-0.5139,1.6172-1.1755
		c0.2776-0.532,0.725-0.8457,1.2956-1.0145c2.2761-0.6735,4.4579-1.682,6.9143-1.6954c0.6494-0.0036,1.8257,0.109,1.4212-1.3036
		c-0.074-0.258,0.288-0.3422,0.5131-0.4465c1.6512-0.7655,3.3179-1.4757,5.0663-2.0113c2.22-0.6799,4.4049-1.4735,6.6018-2.2277
		c3.3228-1.1406,6.6129-2.3884,9.9728-3.4058c3.1368-0.9501,6.1102-2.2756,9.0803-3.6081c1.8535-0.8315,3.736-1.4692,5.7373-1.758
		c0.5035-0.0726,0.9908-0.133,1.422-0.4312c0.4285-0.2966,0.9013-0.5494,0.4087-1.1766c-0.2686-0.342-0.0466-0.5158,0.2615-0.7131
		c0.6898-0.4413,1.4168-0.452,2.175-0.3071c0.7988,0.1526,1.5822,0.34,2.416,0.166c3.1204-0.6511,6.3151-1.0655,9.0016-3.0143
		c0.1998-0.1451,0.4412-0.2499,0.6788-0.3225c1.0509-0.3208,1.9288-0.864,2.5715-1.7855c0.7673-1.1006,2.0394-1.3762,3.011-0.8138
		c1.3228,0.7657,2.6074,0.6255,3.9545,0.5882c0.0253-0.1158,0.0414-0.2349,0.0804-0.3458c0.2526-0.7195,1.3061-1.2901,0.3658-2.2402
		c-0.152-0.1537,0.1523-0.4301,0.3754-0.551c0.5264-0.2861,1.0926-0.3335,1.6111-0.0532c0.9129,0.4935,1.5353,0.0956,2.1046-0.5767
		l-0.0113,0.0108c-0.2294-0.6066,0.0518-0.9946,0.5926-1.1742c0.8882-0.2952,1.7797-0.5913,2.7505-0.295
		c0.546,0.1666,1.1645,0.263,1.4914-0.3883c0.3622-0.7214,0.8489-0.9701,1.6716-0.8366c0.525,0.085,0.8569-0.5133,0.6688-1.0222
		C202.6299,3.5024,202.2167,3.2794,201.644,3.3859z M28.8527,66.9932c-0.2287-0.0013-0.4576-0.0024-0.6863-0.0034
		C28.3954,66.8312,28.6243,66.823,28.8527,66.9932z M25.9052,68.4972c-0.163,0.0947-0.3742,0.0958-0.4802-0.0978
		c-0.0986-0.1802-0.0096-0.3737,0.1386-0.4789c0.2467-0.1751,0.5074-0.3585,0.7905-0.4488c0.5747-0.183,1.1674-0.309,1.7532-0.457
		C27.7058,67.9954,26.6719,68.052,25.9052,68.4972z M29.1567,84.9836c0.0436-0.0929,0.0838-0.0496,0.0969,0.1066
		C29.209,85.049,29.1488,85.0003,29.1567,84.9836z M39.4732,58.3161c0.1219-0.2437,0.2438-0.4874,0.3659-0.7314
		C40.139,58.0447,40.248,58.4069,39.4732,58.3161z M44.6789,76.9962c-0.083,0.0817-0.2041,0.1244-0.3105,0.1822
		c0.0168-0.1191,0.0154-0.2469,0.0642-0.3513c0.046-0.0988,0.1862-0.2544,0.2271-0.2382
		C44.9237,76.6933,44.8113,76.8659,44.6789,76.9962z M43.5628,122.1782c-0.0988-0.108-0.068-0.1702,0.078-0.1735
		c0.0159,0.0435,0.0317,0.0869,0.0476,0.1302C43.6453,122.1507,43.5746,122.1912,43.5628,122.1782z M6.5201,149.1004
		c-0.4232,0.3048-0.8939,0.2881-1.3711,0.1574c0.3096-0.2767,0.6833-0.4784,0.8751-0.8876
		c0.1671-0.3566,0.4561-0.4048,0.6866-0.0612C6.9093,148.6051,6.7964,148.9013,6.5201,149.1004z M11.1359,155.9319
		c-0.1158,0.1264-0.2924,0.1976-0.4075,0.2706c-0.2099-0.0388-0.2919-0.1589-0.1908-0.261
		c0.1189-0.1198,0.2969-0.2114,0.4633-0.2446C11.1506,155.6669,11.2373,155.8209,11.1359,155.9319z M15.681,174.8027
		c-0.1016-0.0173-0.2638-0.0891-0.2743-0.1559c-0.038-0.2418,0.16-0.267,0.3217-0.2239c0.1516,0.0402,0.2847,0.1484,0.4269,0.2272
		C16.02,174.8692,15.8392,174.8298,15.681,174.8027z M17.7462,136.1752l0.0908,0.0721l-0.1246,0.0347L17.7462,136.1752z
		 M17.831,160.7239c-0.076,0.0003-0.2061-0.1155-0.2173-0.1925c-0.0269-0.1826,0.0686-0.3425,0.2711-0.3411
		c0.0772,0.0005,0.1534,0.125,0.23,0.193C18.114,160.5768,18.029,160.7231,17.831,160.7239z M18.3427,173.0589
		c-0.0399-0.0322-0.1036-0.0576-0.1151-0.098c-0.0385-0.136,0.0255-0.2216,0.166-0.2216c0.0399,0.0002,0.1036,0.0529,0.1152,0.0933
		C18.5481,172.9699,18.4844,173.0476,18.3427,173.0589z M27.0383,171.5823c0.0834,0.0021,0.225,0.1203,0.2338,0.1979
		c0.0233,0.2025-0.1341,0.3118-0.3089,0.3779c-0.1055,0.0402-0.2155,0.0688-0.3238,0.1015
		c0.0175-0.1111,0.0293-0.2238,0.0561-0.3326C26.7404,171.7453,26.8315,171.5771,27.0383,171.5823z M26.3485,172.4285
		c0.0504-0.0714,0.1659-0.0968,0.261-0.1368c-0.0418,0.0945-0.0694,0.2098-0.1417,0.2592
		C26.3456,172.6344,26.2628,172.5499,26.3485,172.4285z M22.4554,171.3174c-0.038,0.1355-0.2355,0.2266-0.3161,0.2977
		c-0.2114,0.0432-0.3448-0.0298-0.3033-0.1458c0.0518-0.1449,0.1746-0.3018,0.3091-0.3705
		C22.3138,171.0125,22.5175,171.0963,22.4554,171.3174z M21.5851,135.0995c-0.228,0.1019-0.5074,0.0347-0.6323-0.226
		c-0.129-0.2688,0.0276-0.5174,0.2258-0.6529c1.2535-0.8569,2.6068-1.4325,4.1667-1.3422c0.1057,0.006,0.2065,0.0939,0.3095,0.1435
		c-0.061,0.0947-0.1007,0.2341-0.1871,0.275C24.1784,133.9085,22.8873,134.5163,21.5851,135.0995z M27.3501,175.4818
		c-0.0086,0.4516-0.2233,0.8171-0.4538,1.1965c-0.3448,0.5676-1.3491,0.7047-1.075,1.7042c0.0528,0.1922-0.3715,0.2459-0.7762,0.269
		c-0.4144,0.038-0.6085-0.2296-0.5677-0.7875c0.0333-0.4551,0.121-0.8884,0.4723-1.1728c0.5895-0.4772,1.0134-1.0831,1.4616-1.6759
		c0.1504-0.1988,0.3511-0.4004,0.6163-0.3128C27.3985,174.825,27.3558,175.1773,27.3501,175.4818z M28.1877,170.7691
		c-0.0826-0.0479-0.1562-0.1108-0.2325-0.1693c0.0689-0.0667,0.1379-0.1327,0.207-0.1983c0.043,0.0846,0.0974,0.1661,0.1221,0.2559
		C28.2919,170.6853,28.1971,170.7744,28.1877,170.7691z M34.4946,202.8598c-0.125,0.0656-0.2499,0.1315-0.3748,0.1973
		C34.1125,202.7207,34.3419,202.8682,34.4946,202.8598z M37.6522,202.6755c-0.0056,0.0017-0.0607-0.131-0.0559-0.1337
		c0.0815-0.0446,0.168-0.0813,0.2569-0.1078c0.006-0.0017,0.0405,0.092,0.0617,0.1412
		C37.8284,202.6114,37.7421,202.6497,37.6522,202.6755z M41.5479,128.0993c-0.1679,0.0011-0.267-0.1442-0.18-0.1908
		c0.1481-0.0793,0.3464-0.0762,0.5248-0.0845c0.1664-0.0077,0.2288,0.0763,0.174,0.2448
		C41.903,128.0792,41.7256,128.0982,41.5479,128.0993z M49.059,118.431c0.1631-0.0581,0.3012-0.0113,0.2963,0.1283
		c-0.0142,0.3998-0.23,0.6815-0.6013,0.8336c-0.1393,0.057-0.285,0.0041-0.287-0.1324
		C48.4609,118.841,48.7593,118.6193,49.059,118.431z M48.5779,125.1856c-0.4484,0.0251-0.6721-0.2725-0.6769-0.6852
		c-0.0066-0.5452,0.6865-1.2646,1.1601-1.2265c0.2891,0.0231,0.385,0.2572,0.4265,0.5126
		C49.5213,124.4611,49.0894,125.157,48.5779,125.1856z M70.902,118.252c2.7141-0.0806,5.213-1.0842,7.7743-1.7916
		c1.3597-0.3752,2.7028-0.3619,4.0684-0.3384c0.388,0.0068,0.7853,0.1307,0.8286,0.5842c0.048,0.5043-0.3588,0.5177-0.741,0.6249
		c-0.4012,0.1125-0.7516,0.4062-1.1245,0.6207l0.0176-0.0174c-1.4454,1.0988-3.1824,1.0255-4.8548,1.1783
		c-0.4341,0.0397-0.5161-0.2706-0.2764-0.619c0.2061-0.2991,0.3739-0.6512-0.2066-0.5394
		c-0.9247,0.1784-1.9242,0.4439-2.5706,1.0836c-1.1541,1.1424-2.3885,1.2143-3.7921,0.7852
		C69.9424,118.4866,70.0201,118.2781,70.902,118.252z M68.9222,119.9414c0.3528-0.0724,0.7202-0.0743,1.0818-0.1039
		c-0.0328,0.9554-0.6617,0.6878-1.1729,0.5091C68.6301,120.2764,68.7063,119.986,68.9222,119.9414z M80.6821,201.8845
		c-0.1784,0.0591-0.3855-0.0056-0.3287-0.2244c0.0327-0.1256,0.2425-0.2236,0.3915-0.2944
		c0.1288-0.0614,0.2269,0.0172,0.2903,0.3158C80.9712,201.72,80.837,201.8334,80.6821,201.8845z M83.6008,160.9415
		c-0.1735,0.356-0.5361,0.2388-0.8388,0.1567c-0.3627-0.0983-0.5216,0.2181-0.77,0.328c-1.7661,0.7821-3.5586,1.5215-5.528,1.6179
		c-1.4049-0.0174-2.6361,0.6889-3.9785,0.9415c-1.3531,0.2545-2.6852,0.6193-4.0281,0.9279
		c-0.1822,0.0419-0.4056,0.0466-0.4949-0.1486c-0.0905-0.1977,0.0565-0.3611,0.2139-0.4741
		c0.1518-0.1091,0.3145-0.2098,0.4852-0.2858c3.0247-1.3458,6.0242-2.773,9.3714-3.1508c0.4125-0.0464,0.6938-0.1608,0.908-0.535
		c0.4435-0.7747,1.2355-1.0308,2.0327-1.2424c0.958-0.2543,1.7367,0.0276,2.2982,0.8516
		C83.4788,160.2319,83.7937,160.5459,83.6008,160.9415z M85.1235,66.4379c-0.0856,0.0121-0.2636-0.0895-0.2701-0.1522
		c-0.0291-0.288,0.1749-0.4318,0.4224-0.4797c0.0793-0.0154,0.184,0.1014,0.2773,0.1576
		C85.5584,66.2565,85.3791,66.4017,85.1235,66.4379z M144.0954,194.8136c0.147-0.0823,0.2272-0.0284,0.1969,0.1317
		c-0.0077,0.0405-0.0858,0.0677-0.1316,0.101c-0.0453-0.0283-0.1207-0.0497-0.1289-0.0863
		C144.022,194.9164,144.0563,194.8352,144.0954,194.8136z M139.1055,194.5444c0.1022-0.0099,0.2064,0.0001,0.3099,0.004
		c-0.0863,0.0626-0.1682,0.1351-0.2633,0.178c-0.1511,0.068-0.4075,0.1578-0.4406-0.0146
		C138.6766,194.5307,138.951,194.5596,139.1055,194.5444z M131.7521,195.8145l-0.0294,0.0933l-0.0789-0.0636L131.7521,195.8145z
		 M148.2798,172.7008c0.0278,0.0965-0.0289,0.0781-0.1257-0.0311C148.2104,172.6759,148.2738,172.6801,148.2798,172.7008z
		 M125.5596,126.4793l0.049,0.119l-0.1313-0.0178L125.5596,126.4793z M176.3064,62.8479c0.158,0.0037,0.3139,0.1005,0.4708,0.1558
		c-0.1387,0.2761-0.4039,0.1376-0.6703,0.2067c-0.1074-0.0446-0.2578-0.1072-0.4083-0.1697
		C175.8324,62.7659,176.0943,62.843,176.3064,62.8479z M175.2966,76.4342c0.0098-0.1825,0.0067-0.3666,0.0322-0.5468
		c0.0259-0.1803,0.0975-0.3652,0.3049-0.3797c0.0948-0.0067,0.2553,0.0806,0.2864,0.1628c0.1282,0.3387,0.2464,0.6866,0.3123,1.0415
		c0.0462,0.2497-0.0557,0.5015-0.3625,0.5066c-0.2636,0.0042-0.4263-0.2054-0.5733-0.4047
		C175.2966,76.6875,175.2966,76.5609,175.2966,76.4342z M173.8076,80.4848c-0.326,0.6996-0.9368,1.1282-1.5182,1.5845
		c0.1555-0.7399,0.4849-1.3889,1.0278-1.9229c0.1298-0.1278,0.2941-0.2819,0.4714-0.1608
		C173.968,80.1084,173.8849,80.3188,173.8076,80.4848z M173.2478,62.9025c0.1639,0.0056,0.3255,0.0824,0.4882,0.1278
		c-0.1639,0.2321-0.415,0.1449-0.6369,0.1761c-0.1349-0.0414-0.3814,0.0408-0.3307-0.2074
		C172.7816,62.9341,173.0814,62.8967,173.2478,62.9025z M171.7894,80.9687c0.003,0.0511,0.0287,0.1267,0.0049,0.1492
		c-0.0777,0.0728-0.1696,0.1306-0.2576,0.1922C171.5746,81.1644,171.5715,80.9904,171.7894,80.9687z M168.1049,62.5062
		c0.1459,0.0374,0.3489,0.0561,0.3531,0.0953c0.0275,0.272-0.2068,0.1873-0.3445,0.1988c-0.1074,0.009-0.3112-0.0381-0.317-0.0809
		C167.7588,62.4301,168.0251,62.5917,168.1049,62.5062z M167.7294,63.3645c0.1657-0.0443,0.4821-0.0114,0.4291,0.1573
		c-0.1617,0.5168-0.6742,0.3669-1.1329,0.4482c-0.1063-0.0462-0.2627-0.1142-0.4188-0.1822
		C166.8743,63.3677,167.3428,63.468,167.7294,63.3645z M165.406,88.6264c0.0704-0.0969,0.1813-0.176,0.2908-0.2305
		c0.3107-0.1542,0.4841-0.5933,0.9313-0.4541c0.0248,0.0078,0.0471,0.1187,0.027,0.1608c-0.2333,0.4882-0.6596,0.7249-1.1475,0.8683
		c-0.0643-0.0153-0.1707-0.0345-0.17-0.0411C165.3501,88.8259,165.3493,88.7045,165.406,88.6264z M163.3356,87.9777
		c0.1129-0.1332,0.2712-0.2388,0.4296-0.314c0.0393-0.0189,0.1562,0.1257,0.2373,0.195c-0.0803,0.275-0.2831,0.3971-0.5482,0.3881
		C163.3064,88.2417,163.2384,88.0925,163.3356,87.9777z M182.8625,34.0152c0.1415,0.0061,0.1647,0.0702,0.0707,0.1746
		c-0.0408-0.0193-0.1024-0.0292-0.1164-0.0604C182.8047,34.1017,182.847,34.0145,182.8625,34.0152z M173.4342,38.7864
		c0.2237-0.0442,0.4542-0.0533,0.6824-0.074c-0.1937,0.1257-0.3814,0.2625-0.5855,0.3675
		c-0.0975,0.0501-0.3104,0.0781-0.3339,0.0372C173.0591,38.8772,173.2731,38.8182,173.4342,38.7864z M143.259,99.4326
		c-0.0781,0.0336-0.272-0.0328-0.3026-0.1017c-0.0361-0.0807,0.0148-0.2463,0.0854-0.3208c0.4477-0.472,1.026-0.6418,1.6544-0.6797
		C144.3405,98.8574,143.8284,99.187,143.259,99.4326z M145.5153,97.9324c0.3516-0.5051,0.8576-0.7007,1.4481-0.7269
		C146.6067,97.6979,146.0905,97.8737,145.5153,97.9324z M148.3607,100.2348c-0.5946,0.3077-1.1852,0.7262-1.8769,0.2252
		c-0.0424-0.0309-0.0856-0.1269-0.0681-0.1646c0.3517-0.7589,1.1445-0.554,1.6767-0.8528c0.2405,0.0947,0.4813,0.1132,0.5551,0.2338
		C148.8176,99.9539,148.5767,100.1232,148.3607,100.2348z M147.0381,97.1632c0.6422-0.8549,1.4886-1.3535,2.5575-1.4656
		C148.8316,96.3414,148.0392,96.9349,147.0381,97.1632z M149.6504,98.9976c-0.1403,0.0406-0.2556-0.0469-0.2184-0.1694
		c0.0247-0.0812,0.1522-0.1553,0.2482-0.1845c0.1385-0.0417,0.2206,0.0388,0.2274,0.1793
		C149.8226,98.8838,149.7449,98.9703,149.6504,98.9976z M155.8869,95.8421c0.0071,0.1314-0.1696,0.3106-0.307,0.4058
		c-0.5511,0.3813-1.1617,0.2857-1.7678,0.1828c0.4398-0.4808,1.0579-0.5969,1.638-0.7828
		C155.6282,95.5909,155.875,95.6251,155.8869,95.8421z M153.4476,96.5462c0.0925-0.0518,0.2048-0.0677,0.3116-0.0936
		c-0.0652,0.0895-0.123,0.1874-0.204,0.259c-0.0862,0.0762-0.2781,0.1843-0.2914,0.1683
		C153.0658,96.642,153.3251,96.6148,153.4476,96.5462z M151.8376,97.4381l0.0633,0.0901l-0.115,0.0101L151.8376,97.4381z
		 M151.1443,94.4242c0.1625-0.0619,0.3787-0.1619,0.4742,0.0247c0.0919,0.1793-0.1127,0.3015-0.25,0.4067
		c-0.3943,0.3016-0.8544,0.4022-1.3359,0.4351C150.3121,94.8853,150.6855,94.5991,151.1443,94.4242z M131.1551,94.2931
		c1.3416-1.4835,2.061-3.4637,3.751-4.6567c-0.8603-0.6591-0.3714-1.3923-0.1908-2.1816c0.1887-0.8251,0.3514-1.4177,1.3876-1.3587
		c0.6581,0.0374,0.9429-0.5199,1.1534-1.0757c0.2056-0.5427,0.2407-1.0982,0.1957-1.6695
		c-0.0204-0.2573,0.0137-0.5438,0.3343-0.5737c0.1573-0.0148,0.34,0.1111,0.491,0.206c0.1016,0.0638,0.1605,0.1917,0.2502,0.2784
		c1.2281,1.1848,2.4747,0.8212,2.9838-0.8679c0.4371-1.4506,0.45-1.4907,1.916-1.0178c0.5719,0.1844,0.9446,0.1697,1.2854-0.345
		c0.1472-0.2223,0.4656-0.3195,0.6702-0.1476c1.0789,0.9071,0.9849,0.2231,0.9649-0.6292
		c-0.0275-1.1871,0.0573-1.2003,1.2689-1.1093c0.4962,0.0372,1.0193,0.0717,1.494-0.0427c0.8723-0.2098,0.8782-0.2445,0.9126,0.4238
		c0.0732,1.4091-0.6172,2.5377-1.3646,3.6272c-0.7532,1.0982-2.1807,1.7471-2.2031,3.3304
		c-0.8641,0.7272-1.6799,1.5229-2.6007,2.1697c-3.6508,2.5643-7.4648,4.8745-11.3223,7.1123
		c-0.6298,0.3652-1.4012,1.0659-2.0073,0.3346C130.0439,95.5197,130.737,94.7557,131.1551,94.2931z M125.2355,120.533
		c-0.1741,0.0019-0.2256-0.1008-0.1259-0.2219c0.0316-0.0383,0.1261-0.059,0.1752-0.0416c0.1002,0.0356,0.1892,0.1028,0.2828,0.1569
		C125.4567,120.4652,125.3464,120.5319,125.2355,120.533z M126.8332,49.5961c0.1072,0.0578,0.053,0.278-0.0812,0.2878
		c-0.9307,0.068-1.9254,0.7831-2.7589-0.2373c0.1054-0.0467,0.2088-0.1,0.3183-0.1348
		C125.1618,49.2412,126.0117,49.1527,126.8332,49.5961z M91.1286,58.92c0.0974,0.0538,0.1939,0.1075,0.2905,0.1614
		c-0.0524,0.0912-0.085,0.2336-0.1613,0.2632c-0.1845,0.0713-0.356-0.0002-0.3625-0.2192
		C90.8934,59.0593,91.0465,58.9886,91.1286,58.92z M86.9669,157.5497c-0.2322-0.0012-0.4644-0.002-0.6965-0.0029
		C86.503,157.3764,86.7353,157.3739,86.9669,157.5497z M86.1283,215.7568c-0.0314,0.0314-0.1074,0.0182-0.1628,0.0253
		c-0.0139-0.0521-0.0506-0.1128-0.035-0.1541c0.017-0.0457,0.0859-0.1077,0.1252-0.1028
		C86.2163,215.5442,86.2458,215.6386,86.1283,215.7568z M86.1914,159.9589c-0.0842,0.171-0.3244,0.2299-0.4518,0.0768
		c-0.149-0.179,0.0378-0.3151,0.187-0.4115c0.0956-0.062,0.2026-0.1063,0.3054-0.157
		C86.2277,159.6356,86.2591,159.8218,86.1914,159.9589z M96.1282,211.0077c0.0262,0.0094,0.0477,0.1386,0.0262,0.1562
		c-0.6689,0.5432-1.5381,0.402-2.2102,0.6802c-0.1994-0.0399-0.3959-0.0305-0.4225-0.0931
		c-0.1055-0.2484,0.1383-0.2836,0.2827-0.3145C94.5755,211.2712,95.2723,210.6938,96.1282,211.0077z M96.0845,157.7512
		c-2.5251,0.7251-5.0557,1.4303-7.584,2.1438c-0.524,0.1481-0.9982,0.3139-0.8947-0.5876c0.0735-0.6404-0.3986-1.1666-0.5968-1.7546
		c0.9383-1.0122,2.1981-1.3246,3.4822-1.4841c0.8093-0.1006,1.5883-0.3016,2.3791-0.4409c1.6404-0.2886,3.3334-0.5709,4.9073,0.3555
		c0.2183,0.1284,0.4395,0.2759,0.4586,0.5527c0.0261,0.3844-0.2649,0.5289-0.5632,0.6411
		C97.1459,157.3754,96.6245,157.5962,96.0845,157.7512z M96.4137,98.7838c0.05-0.0134,0.1135,0.0258,0.1707,0.041
		c-0.0069,0.0518,0.0044,0.1279-0.0247,0.1493c-0.0422,0.0311-0.1253,0.0469-0.1702,0.0258
		C96.2212,98.9201,96.2311,98.832,96.4137,98.7838z M100.7773,179.63c-0.8123,0.3229-1.6291,0.6336-2.4519,0.928
		c-0.0749,0.0269-0.1999-0.0861-0.3016-0.1341c0.0644-0.0994,0.1074-0.256,0.1966-0.2892c0.8187-0.306,1.6437-0.5966,2.4734-0.8724
		c0.0861-0.0286,0.213,0.0658,0.321,0.1028C100.9367,179.4565,100.8758,179.5909,100.7773,179.63z M114.1493,88.3269
		c1.2317-0.4641,2.4943-0.8302,3.6309-1.5192c0.2136-0.1297,0.4971-0.1658,0.6979,0.0295c0.2175,0.211,0.1123,0.4697-0.0312,0.6772
		c-0.9922,1.4364-2.0667,2.7386-4.141,2.3508c-0.6201-0.1718-1.2048-0.0206-1.7311,0.3914
		c-0.2599,0.2032-0.5443,0.5381-0.2823,0.7759c1.0866,0.9855,0.0394,1.1078-0.5199,1.5258
		c-1.3378,0.9998-2.8984,0.6495-4.3572,0.7222c-1.6792,0.0837-3.3609-0.3874-5.0613-0.1803
		c-0.114,0.014-0.3386-0.0406-0.3391-0.0668c-0.0048-0.2489,0.2112-0.2781,0.386-0.2987c1.4048-0.1652,2.6259-0.8402,3.855-1.4495
		C108.789,90.0293,111.5203,89.3169,114.1493,88.3269z M101.9492,54.5421c0.4307-0.324,1.18-0.9673,1.3704-0.6616
		c0.3818,0.614-0.5389,0.7217-0.9029,1.0423c-0.4521,0.3978-0.9534,0.7399-1.4351,1.1039
		C101.1117,55.4077,101.4548,54.9141,101.9492,54.5421z M97.3272,60.0429c-0.3095,0.5106-0.8486,0.7051-1.3547,0.9373
		c-0.6869,0.3153-1.4208,0.3561-2.1605,0.353c0.2605-0.81,1.1466-1.1251,1.4918-1.8682c0.4774-0.1107,0.9537-0.226,1.4323-0.3307
		c0.2509-0.0548,0.5056-0.0436,0.6517,0.203C97.527,59.5726,97.4585,59.826,97.3272,60.0429z M96.7903,57.5913
		c-0.1227,0.9175-1.2652,1.0264-1.4943,1.8594c-0.2349,0.0599-0.4681,0.1509-0.7058,0.1653
		c-0.4119,0.0251-0.9282,0.304-1.2023-0.1683c-0.2925-0.5043,0.0364-0.9712,0.3781-1.3365
		c0.4282-0.4577,0.9496-0.8036,1.5666-0.9783c0.7958-0.2252,0.8173,0.2378,0.7344,0.7943
		C96.3082,57.8151,96.5492,57.7032,96.7903,57.5913z M96.9987,55.7899c0.0086,0.3205-0.3649,0.4623-0.6642,0.5309
		c-0.6146,0.1406-1.1741-0.1431-1.7556-0.26c0.5269-0.3331,1.1422-0.3736,1.7276-0.5032
		C96.5661,55.5,96.9856,55.2965,96.9987,55.7899z M94.5151,56.0827c-0.2529,0.3903-0.616,0.6167-1.0649,0.715
		C93.6996,56.4019,94.0574,56.1675,94.5151,56.0827z M93.0639,56.8738c0.1027-0.0222,0.2088-0.0286,0.314-0.039
		c-0.1217,0.0926-0.2273,0.2281-0.4158,0.1423C92.9958,56.9412,93.0245,56.8823,93.0639,56.8738z M93.2785,61.3995
		c0.1589-0.0261,0.3215-0.0295,0.483-0.0405c-0.1111,0.1193-0.2128,0.2515-0.3426,0.345c-0.1463,0.1053-0.3821,0.1404-0.4522-0.0352
		C92.8766,61.4424,93.1231,61.4248,93.2785,61.3995z M97.4145,95.6857c0.651-0.0966,1.199-0.324,1.6658-0.7729l-0.0206,0.0203
		c0.0098,0.005,0.0215,0.0088,0.0319,0.0134c-0.0036-0.0099-0.0063-0.0209-0.0103-0.0303c0.3416-0.2818,0.7554-0.5795,1.1571-0.4911
		c1.7178,0.3779,3.4659,0.1072,5.185,0.3246c0.4358,0.0551,0.8599,0.1881,1.2687-0.0872c0.324-0.218,0.6113-0.202,0.6868,0.2291
		c0.0658,0.3765-0.2131,0.5884-0.5375,0.6498c-0.9833,0.1864-1.9734,0.3346-2.9591,0.5075
		c-0.1747,0.0305-0.4932,0.1394-0.4891,0.1586c0.068,0.3257,0.3591,0.2198,0.5635,0.2292c0.8118,0.0378,1.6252,0.0397,2.4371,0.0741
		c0.0999,0.0043,0.2523,0.1038,0.2814,0.1919c0.0751,0.2269-0.0974,0.3583-0.2877,0.3822
		c-0.8046,0.1006-1.6159,0.2781-2.4172,0.2452c-2.3214-0.0955-4.6207,0.3659-6.9168,0.309
		c-1.9564-0.0483-3.5685,0.9528-5.3925,1.2097c-0.176,0.0247-0.4714,0.06-0.5206-0.0228c-0.181-0.3058,0.1472-0.3907,0.3246-0.5186
		C93.2615,97.0104,95.1982,96.0152,97.4145,95.6857z M40.5893,123.9783c0.0052-0.0065,0.0089-0.0136,0.014-0.0201
		c-0.0007-0.0012-0.0014-0.0023-0.0021-0.0035L40.5893,123.9783z M28.5247,86.9865c-0.0023-0.0026-0.0044-0.0056-0.0067-0.0082
		c-0.0041,0.0081-0.0082,0.0162-0.0123,0.0243L28.5247,86.9865z M134.9068,89.6357c-0.0003,0.0002-0.0005,0.0005-0.0008,0.0007
		c0.0071,0.0055,0.0106,0.0112,0.0179,0.0166L134.9068,89.6357z M124.1579,134.9497c-0.077-0.097-0.3723-0.112-0.5123-0.0476
		c-0.2706,0.1244-0.274,0.4069-0.1566,0.6421c0.514,1.0297,1.5028,1.2507,2.5919,1.4545c0.0396,0,0.1656,0.0094,0.2897-0.0017
		c0.4125-0.0372,0.756-0.209,0.7599-0.6627c0.0038-0.4152-0.3571-0.5064-0.6749-0.4513
		C125.4831,136.0512,124.7549,135.7025,124.1579,134.9497z M78.7116,61.7348c0.0271-0.0138,0.0555-0.0232,0.0827-0.0369
		c-0.0332,0.0043-0.0653,0.0124-0.0986,0.0166L78.7116,61.7348z M86.2569,59.4699l-0.0161-0.0206
		c-0.0296,0.0146-0.0604,0.0254-0.09,0.0399C86.1864,59.4835,86.2212,59.4754,86.2569,59.4699z M86.1507,59.4891
		c-2.5528,0.4012-5.0341,1.0402-7.3564,2.2087C81.3668,61.3621,83.8188,60.6259,86.1507,59.4891z M2.4755,155.2844
		c-0.0021,0.0046-0.004,0.0095-0.0062,0.0141c0.1255,0.127,0.2506,0.2541,0.3759,0.3811l0.0156-0.0156
		c-0.1271-0.1253-0.2539-0.2507-0.381-0.376C2.4783,155.2869,2.4771,155.2855,2.4755,155.2844z M3.6108,152.3066
		c-0.0875-0.0553-0.2554-0.0713-0.343-0.0239c-0.7006,0.3792-1.014,1.0751-1.3141,1.7488
		c-0.2433,0.5449,0.0866,0.9427,0.5219,1.2529c0.3833-0.842,0.6929-1.719,1.2293-2.4875
		C3.8146,152.6397,3.7937,152.4218,3.6108,152.3066z M19.4919,82.9375c0.7014,0.0566,0.728-0.4975,0.8264-0.9569
		c-0.03-0.3533-0.1556-0.6833-0.535-0.5871c-0.4734,0.1201-0.9366,0.3798-0.914,0.9743
		C18.8821,82.7059,19.1672,82.9112,19.4919,82.9375z M202.7657,1.8232c-0.2321-0.0635-0.639-0.1126-0.6623,0.0818
		c-0.0487,0.4083,0.464,0.4874,0.6862,0.7612c0.1498,0.1847,0.3373,0.3641,0.5466,0.4688c0.2639,0.1319,0.4648,0.0103,0.5251-0.3268
		C203.8374,2.13,203.3,1.9694,202.7657,1.8232z M3.0835,169.585c-0.0823,0.1261-0.046,0.2454,0.0881,0.3134
		c0.3082,0.1564,1.8409-0.2541,2.0416-0.5421c0.0731-0.1336,0.0487-0.2484-0.0879-0.3145
		C4.7899,168.8792,3.2826,169.2793,3.0835,169.585z M37.1984,83.5941c-0.0144,0.001-0.0281-0.0015-0.0424-0.0008
		c0.0079,0.0064,0.016,0.0127,0.0239,0.019L37.1984,83.5941z M37.1559,83.5933c-0.4766-0.382-0.9449-0.775-1.434-1.14
		c-0.2097-0.1566-0.5081-0.1939-0.6647,0.0396c-0.2442,0.3638,0.0565,0.5653,0.3398,0.6947
		C35.9531,83.442,36.532,83.6252,37.1559,83.5933z M6.7551,171.3687c-0.0432,0.6087,0.8418,0.4821,1.3779,0.5209
		c0.1196-0.2482,0.2393-0.4961,0.3591-0.7441c-0.1145-0.0232-0.2287-0.0571-0.3442-0.0623
		C7.6371,171.0593,6.8047,170.6728,6.7551,171.3687z M8.4996,171.1299c-0.0025,0.0052-0.005,0.0104-0.0075,0.0156
		c0.0077,0.0015,0.0154,0.0027,0.0231,0.0042L8.4996,171.1299z M75.3477,62.8439c-0.0148,0.0024-0.0296,0.0046-0.0444,0.007
		l0.0121,0.0153C75.3257,62.8573,75.3373,62.8526,75.3477,62.8439z M78.6955,61.7143c-0.0104,0.0089-0.0218,0.0152-0.0323,0.0239
		c0.0163-0.0004,0.0318-0.0033,0.0482-0.0037L78.6955,61.7143z M75.3477,62.8439c1.1659-0.1878,2.3544-0.3075,3.3156-1.1057
		C77.4463,61.7708,76.3058,62.0333,75.3477,62.8439z M75.3152,62.8661l-0.0119-0.0153c-0.012,0.0065-0.0242,0.0125-0.0361,0.0189
		C75.2831,62.8686,75.2992,62.8672,75.3152,62.8661z M72.3152,63.9671c1.076-0.1181,2.0186-0.595,2.952-1.0974
		C74.1758,62.947,73.0943,63.0504,72.3152,63.9671z M72.2918,63.9912c0.0074-0.009,0.0159-0.0152,0.0234-0.024
		c-0.0135,0.0015-0.026,0.006-0.0396,0.0074L72.2918,63.9912z M69.247,70.0845c0.0405-0.0683-0.0314-0.2158-0.0762-0.3154
		c-0.0159-0.0355-0.1085-0.0584-0.1616-0.0515c-0.529,0.0681-0.9041,0.3574-1.1201,0.8369
		c-0.078,0.1733-0.0595,0.3521,0.2098,0.3781C68.5542,70.7593,68.9843,70.5274,69.247,70.0845z M150.0564,40.2099
		c0.0309-0.0485-0.0596-0.2522-0.1265-0.2715c-0.386-0.1124-0.7405-0.008-1.0397,0.252c-0.1331,0.1159-0.2393,0.2626-0.3561,0.3973
		c0.1768,0.0018,0.3541,0.0136,0.5296-0.0005C149.4306,40.558,149.826,40.5743,150.0564,40.2099z M148.5341,40.5877
		c-0.0107-0.0001-0.0214,0.0001-0.032,0l0.0143,0.0198C148.5222,40.6008,148.5284,40.5944,148.5341,40.5877z M11.9169,173.7846
		L11.9169,173.7846c0-0.0043,0.0001-0.0088,0.0001-0.0131c0-0.0004,0-0.0009,0-0.0013l0,0c0-0.0001,0-0.0001,0-0.0001
		l-0.0079,0.0179c-0.3572-0.2457-0.7307-0.444-1.1723-0.249c-0.0589,0.0259-0.1117,0.2361-0.0717,0.2894
		c0.3219,0.4285,0.7181,0.6418,1.2441,0.3306l0.0057,0.0127c0-0.0001,0-0.0002,0-0.0004l0.0002,0.0004
		c0-0.0031,0.0001-0.0063,0.0001-0.0094c-0.0001,0-0.0001-0.0001-0.0002-0.0001C11.9155,174.0363,11.9162,173.9104,11.9169,173.7846
		z M96.0104,213.6069c0.6744,0.3315,1.2877,0.1263,1.8866-0.205c-0.1096-0.0132-0.2216-0.0392-0.3247-0.0191
		C97.0551,213.4828,96.409,212.701,96.0104,213.6069z M97.9239,213.3887c-0.0089,0.005-0.018,0.0082-0.0269,0.0132
		c0.0139,0.0016,0.0279,0.0044,0.0416,0.0055c0.0151-0.0064,0.0303-0.0122,0.0453-0.0187c-0.02,0.0002-0.04-0.0002-0.0599,0.0002
		L97.9239,213.3887z M137.9662,42.7323c0.0118,0.1058,0.2536,0.2307,0.4099,0.2676c0.4776,0.1121,0.7794-0.1665,1.0353-0.5154
		c-0.3521,0.0027-0.7043-0.0015-1.0558,0.0128C138.1864,42.504,137.9418,42.5121,137.9662,42.7323z M139.4317,42.4594
		c-0.0065,0.009-0.0139,0.0162-0.0204,0.0251c0.0119-0.0001,0.0237-0.0003,0.0356-0.0004c0.006-0.0042,0.0117-0.0093,0.0176-0.0137
		c-0.0109-0.0035-0.0218-0.0077-0.0327-0.0108L139.4317,42.4594z M17.9379,131.8991c-0.0072,0.0083-0.0145,0.0165-0.0217,0.0248
		c0.0124-0.0024,0.0225-0.0095,0.035-0.0117L17.9379,131.8991z M17.0757,132.8877c0.2919-0.3103,0.5624-0.6408,0.8406-0.9638
		c-0.4324,0.083-0.815,0.2704-1.1059,0.6006c-0.1091,0.1237-0.242,0.3943-0.19,0.4599
		C16.7626,133.164,16.9576,133.0131,17.0757,132.8877z M181.826,15.0234c0.0036,0.2899,0.218,0.4058,0.4744,0.4007
		c0.0798-0.0017,0.2236-0.1374,0.2233-0.2112c-0.0014-0.2867-0.1934-0.4061-0.4656-0.4128
		C181.9763,14.8747,181.8253,14.9499,181.826,15.0234z M134.1687,43.2214l-0.0197,0.0223c0.011,0.0018,0.0222,0.0032,0.0332,0.005
		C134.1781,43.2392,134.1727,43.2309,134.1687,43.2214z M134.813,43.8518c0.1625,0.0336,0.4333,0.0242,0.5027-0.0738
		c0.1363-0.1925-0.0747-0.3309-0.2427-0.374c-0.2911-0.0746-0.5929-0.1074-0.8909-0.1553
		C134.3085,43.5379,134.4915,43.7849,134.813,43.8518z M191.0638,12.861c0.3089,0.0948,0.3915-0.1853,0.459-0.4077
		c0.121-0.3994-0.0776-0.6739-0.3785-0.8981c-0.0717,0.2794-0.1476,0.5575-0.2114,0.8384
		C190.8925,12.5709,190.8781,12.804,191.0638,12.861z M191.1521,11.5243l-0.0236,0.0175c0.0058,0.0043,0.01,0.0093,0.0157,0.0135
		C191.1469,11.545,191.1495,11.5346,191.1521,11.5243z M3.3867,160.5683c-0.0191,0.0705,0.0864,0.2319,0.1677,0.2614
		c0.1865,0.0679,0.3611,0.0106,0.448-0.1983c-0.0569-0.0919-0.0959-0.2388-0.1754-0.2652
		C3.6417,160.3043,3.4438,160.3573,3.3867,160.5683z M173.0159,61.7104l0.0124,0.0164c0.0107-0.0063,0.0219-0.0097,0.0326-0.0159
		C173.0459,61.7111,173.0309,61.71,173.0159,61.7104z M174.7948,61.5906c0.0038-0.0014-0.0152-0.127-0.04-0.1338
		c-0.6019-0.1631-1.1637-0.0529-1.6938,0.254C173.6413,61.6997,174.2289,61.8015,174.7948,61.5906z M45.6163,80.9085
		c-0.0105-0.0967-0.1201-0.2573-0.1894-0.2598c-0.2986-0.011-0.4035,0.222-0.4169,0.4667
		c-0.0105,0.1901,0.1264,0.3179,0.3269,0.3514C45.6483,81.3922,45.6419,81.1403,45.6163,80.9085z M8.0014,168.5413
		c0.0689-0.1217-0.0229-0.2228-0.1735-0.2461c-0.103,0.0578-0.2492,0.0916-0.2979,0.1795
		c-0.0675,0.1213,0.0281,0.2533,0.1732,0.2397C7.8102,168.7047,7.951,168.6298,8.0014,168.5413z M22.4485,84.3412
		c0.0692-0.0214,0.1003-0.1669,0.1481-0.2553c-0.0906-0.1664-0.2327-0.2712-0.4152-0.2197
		c-0.0668,0.0188-0.153,0.1852-0.1324,0.2551C22.1024,84.301,22.2656,84.3977,22.4485,84.3412z M177.5645,71.5184l-0.0204,0.0179
		c0.0129,0.0128,0.0266,0.0251,0.0397,0.0378C177.5775,71.5556,177.5706,71.5371,177.5645,71.5184z M178.1174,72.6026
		c0.2633-0.0784,0.1649-0.2969,0.0652-0.4211c-0.1771-0.2205-0.3945-0.4086-0.5989-0.6072c0.0891,0.2709,0.168,0.5461,0.2789,0.808
		C177.9037,72.4794,178.0571,72.6207,178.1174,72.6026z M178.7821,16.4576c0.0286,0.0411,0.1049,0.0988,0.1235,0.088
		c0.0765-0.0449,0.1392-0.1132,0.2068-0.1735c-0.0802-0.0533-0.1624-0.1523-0.2401-0.1495
		C178.7336,16.2282,178.6996,16.3392,178.7821,16.4576z M58.8589,76.5025c-0.049-0.0153-0.1417,0.0066-0.1685,0.0443
		c-0.0875,0.1227-0.0298,0.2009,0.1431,0.2137c0.1077-0.0385,0.2153-0.0768,0.3232-0.1154
		C59.0579,76.596,58.9629,76.5347,58.8589,76.5025z M187.5583,18.4565c0.0895,0.0668,0.176,0.1384,0.2726,0.193
		c0.0116,0.0064,0.1168-0.0944,0.1077-0.1182c-0.0381-0.0995-0.0834-0.2383-0.1633-0.2706
		C187.6418,18.2069,187.556,18.3054,187.5583,18.4565z M98.6007,213.1337c-0.2112,0.0676-0.4122,0.1665-0.6167,0.2549
		c0.2213-0.0024,0.4441,0.007,0.6608-0.0252c0.1183-0.0174,0.3991,0.0854,0.2957-0.2213
		C98.9271,213.1033,98.7074,213.0999,98.6007,213.1337z M132.6467,129.2612c0.0325,0.0402,0.065,0.0807,0.0974,0.1209
		c-0.0266-0.0453-0.0529-0.0905-0.0795-0.1358c-0.0072-0.0082-0.0138-0.0167-0.0212-0.0248
		C132.6445,129.2347,132.645,129.2482,132.6467,129.2612z M132.3215,128.6605c-0.0149,0.0077,0.0529,0.2156,0.1105,0.3139
		c0.0541,0.092,0.1374,0.1668,0.2113,0.2471c-0.0101-0.107-0.0103-0.2177-0.0475-0.3141
		C132.5484,128.7854,132.5959,128.519,132.3215,128.6605z M28.8235,129.9509c0.0493,0.0292,0.0991,0.0825,0.1476,0.0814
		c0.0512-0.0011,0.1388-0.0476,0.1454-0.0854c0.0273-0.1581-0.0598-0.2171-0.2156-0.1447
		C28.8607,129.8208,28.8485,129.8996,28.8235,129.9509z M27.7186,130.4727c0.0433-0.0159,0.109-0.0209,0.1235-0.0508
		c0.0141-0.0289-0.0244-0.0834-0.0399-0.1267c-0.0432,0.0158-0.1093,0.021-0.1231,0.0504
		C27.6653,130.3752,27.7032,130.4293,27.7186,130.4727z M128.9422,46.134c0.09-0.1374,0.0403-0.1909-0.1445-0.1432
		c-0.0209,0.0053-0.022,0.087-0.0325,0.1331C128.8242,46.1272,128.8831,46.1305,128.9422,46.134z M184.8242,13.6994
		c0.0142,0.0014,0.0375-0.0772,0.0565-0.1191c-0.0912-0.0225-0.1819-0.0503-0.2745-0.0605
		c-0.0146-0.0017-0.0381,0.077-0.0574,0.1186C184.6404,13.6606,184.7312,13.6885,184.8242,13.6994z M62.2029,73.3743
		c-0.0269-0.0085-0.1182,0.0802-0.1127,0.0915c0.0391,0.0806,0.0958,0.1526,0.1468,0.2274c0.0682-0.063,0.1363-0.126,0.2045-0.1896
		C62.3625,73.4578,62.2874,73.4015,62.2029,73.3743z M148.5162,40.6073l-0.0141-0.0197c-0.007,0.0042-0.0138,0.0091-0.0208,0.0134
		C148.493,40.603,148.5047,40.6057,148.5162,40.6073z M147.8437,40.7783c0.0089,0.0298,0.2285,0.0228,0.3377-0.0097
		c0.1072-0.0316,0.2013-0.1068,0.2999-0.1675c-0.1111-0.0189-0.2231-0.0488-0.3318-0.0396
		C148.013,40.5732,147.7478,40.4572,147.8437,40.7783z M7.3311,174.4647c0.0033,0.0323,0.0778,0.0576,0.1205,0.0859
		c0.0483-0.0262,0.1289-0.043,0.1396-0.0801c0.0422-0.146-0.0317-0.2021-0.1817-0.1363
		C7.3693,174.3518,7.327,174.4228,7.3311,174.4647z M139.7393,42.2896c-0.1007,0.0312-0.185,0.1147-0.2747,0.1807
		c0.1025,0.0327,0.2046,0.0769,0.3082,0.0812c0.1611,0.0065,0.3763,0.0179,0.2833-0.25
		C140.0424,42.2628,139.8389,42.2585,139.7393,42.2896z M101.821,212.5556c-0.0366,0.0203-0.0681,0.0967-0.059,0.1379
		c0.0078,0.0347,0.078,0.0555,0.1206,0.0824c0.0424-0.032,0.1146-0.0579,0.1223-0.0969
		C102.0344,212.5291,101.9594,212.4783,101.821,212.5556z M40.1308,124.172c0.1498-0.012,0.2921-0.1202,0.4368-0.1982
		c-0.158-0.0267-0.3275-0.0925-0.4651-0.0516C39.981,123.9585,40.0159,124.1813,40.1308,124.172z M40.5891,123.9784l0.0121-0.0237
		c-0.0112,0.0056-0.0223,0.0131-0.0336,0.0191C40.5747,123.9751,40.5821,123.9774,40.5891,123.9784z M197.226,7.7697l0.0759-0.0893
		l-0.1181-0.0196L197.226,7.7697z M30.8793,91.7028l0.1315,0.0849l0.0177-0.1404L30.8793,91.7028z M25.8121,128.2846
		c0.1231-0.0458,0.2462-0.0914,0.3693-0.1372c-0.0905,0.0125-0.1815,0.0225-0.2698,0.0443
		C25.8732,128.2012,25.8449,128.2524,25.8121,128.2846z M26.2427,128.1246c-0.0204,0.0076-0.0408,0.0152-0.0613,0.0228
		c0.024-0.0033,0.0478-0.0081,0.0718-0.0118L26.2427,128.1246z M34.4492,128.8654l0.0965-0.0374l-0.0787-0.0669L34.4492,128.8654z
		 M9.1608,154.8197l0.0261,0.096l0.0757-0.0776L9.1608,154.8197z M8.9569,170.9884c-0.1842-0.0856-0.2889,0.0463-0.4091,0.1362
		c0.1031-0.0092,0.2073-0.0144,0.308-0.035C8.8948,171.0816,8.9235,171.0236,8.9569,170.9884z M8.4998,171.1301l0.0154,0.0196
		c0.0113-0.0073,0.0217-0.0169,0.0327-0.0251C8.5317,171.126,8.5159,171.1284,8.4998,171.1301z M29.3196,86.2842
		c0.1481-0.1095,0.0388-0.2817-0.0516-0.4155c-0.1249,0.1249-0.2498,0.2498-0.3748,0.3748
		C29.0398,86.2633,29.2341,86.3474,29.3196,86.2842z M173.3463,1.2056c0.1183,0.0345,0.2366,0.0689,0.3549,0.1033
		c-0.0715-0.0468-0.1418-0.0961-0.2181-0.1328C173.4499,1.16,173.3925,1.1943,173.3463,1.2056z M28.5245,86.9867l-0.0188,0.0159
		c0.0107,0.0179,0.0215,0.036,0.0322,0.054C28.5347,87.0327,28.5285,87.0101,28.5245,86.9867z M28.6368,87.2219
		c-0.033-0.0553-0.066-0.1103-0.0989-0.1654c0.0037,0.0272,0.0048,0.0554,0.0153,0.0795
		C28.5683,87.1702,28.608,87.1937,28.6368,87.2219z M129.8678,32.7789c0.0477-0.0358,0.0955-0.0718,0.1434-0.1075l-0.012-0.0134
		C129.9554,32.6984,129.9117,32.7386,129.8678,32.7789z M42.4618,56.7951c0.0003-0.1123,0.0005-0.2245,0.0008-0.3367
		C42.1595,56.5747,42.1778,56.6866,42.4618,56.7951z M42.4625,56.4307c0,0.0093-0.0001,0.0185-0.0001,0.0278
		c0.0079-0.0031,0.0101-0.006,0.0184-0.009L42.4625,56.4307z M42.4618,56.7951c0,0.0111-0.0001,0.0222-0.0001,0.0333
		c0.0038-0.0009,0.0087-0.0012,0.0126-0.002c0.0038-0.0067,0.0076-0.0134,0.0114-0.02
		C42.4753,56.8027,42.4715,56.7989,42.4618,56.7951z M30.2737,62.5056l-0.133-0.0003l0.0683,0.1297L30.2737,62.5056z
		 M20.2196,130.3981c0.2506-0.1248,0.501-0.2498,0.7516-0.3746l-0.0126-0.0127c-0.2506,0.1246-0.5013,0.2495-0.7521,0.3741
		L20.2196,130.3981z M8.2731,171.9434c-0.0443-0.0178-0.0886-0.0358-0.1332-0.0535c-0.0021-0.0002-0.0047-0.0001-0.0068-0.0003
		c-0.0032,0.0067-0.0064,0.0133-0.0096,0.02C8.1733,171.9209,8.2231,171.9323,8.2731,171.9434z M129.9994,32.658l0.0118,0.0134
		c0.0402-0.0327,0.0804-0.0652,0.1207-0.098C130.0878,32.6015,130.0437,32.63,129.9994,32.658z M25.8745,84.3505
		c-0.0032-0.0013-0.0062-0.0027-0.0094-0.004c-0.0008,0.0058-0.0013,0.0117-0.0021,0.0175c0.1273,0.1292,0.2547,0.2581,0.382,0.3872
		c0.0064-0.0038,0.0123-0.008,0.0187-0.0118c-0.0018-0.0008-0.003-0.0022-0.0048-0.003
		C26.1309,84.6077,26.0027,84.4791,25.8745,84.3505z M18.3224,131.5163c-0.1281,0.1275-0.2561,0.2552-0.3845,0.3827l0.0133,0.0133
		c0.1274-0.1283,0.2547-0.2567,0.3821-0.385L18.3224,131.5163z M194.5412,37.5749l-0.0104-0.0106
		c-0.1281,0.1274-0.2561,0.2547-0.3842,0.3822c-0.0081,0.0058-0.0168,0.0109-0.025,0.0167
		c0.0126-0.0016,0.0253-0.0025,0.0378-0.0042C194.2868,37.8311,194.414,37.703,194.5412,37.5749z M99.3459,95.0903
		c-0.0453-0.0726-0.1598-0.1019-0.2542-0.1438c0.0349,0.097,0.0565,0.2115,0.1252,0.2641
		C99.3356,95.3012,99.4256,95.2183,99.3459,95.0903z M101.5695,96.2025l-0.1124,0.0308l0.082,0.0673L101.5695,96.2025z
		 M20.6077,174.2138c-0.0494,0.4455,0.2758,0.5238,0.6116,0.3416c0.3247-0.1765,0.7193-0.3989,0.7286-0.7919
		c0.0118-0.4918-0.4991-0.4978-0.8331-0.5779c-0.4067-0.0974-0.8364-0.0998-1.257-0.1387
		C20.1643,173.3952,20.6776,173.5849,20.6077,174.2138z"/>
</g>
</svg>
