<?xml version="1.0" encoding="utf-8"?>
<!-- Generator: Adobe Illustrator 21.0.0, SVG Export Plug-In . SVG Version: 6.00 Build 0)  -->
<svg version="1.1" id="B1_Brush_Frame_14" xmlns="http://www.w3.org/2000/svg" xmlns:xlink="http://www.w3.org/1999/xlink" x="0px"
	 y="0px" viewBox="0 0 441.1633 99.1451" enable-background="new 0 0 441.1633 99.1451" xml:space="preserve">
<g id="P">
	<path id="b1-brush-frame-14-p" fill="#FF4568" d="M440.0571,53.1847c-0.7791-1.0479-1.9345-2.2684-3.2157-3.4506l-1.7746-1.6918
		l-1.8356-1.5952c-1.2277-1.0521-2.4388-2.1179-3.6788-3.1304c-2.5289-1.9506-5.0046-3.9502-7.6146-5.6911
		c-5.1288-3.6443-10.4819-6.7386-15.9023-9.6181c-10.9075-5.6161-22.2622-10.0159-34.2696-13.4065
		c-17.097-4.8476-32.268-7.4028-49.5169-9.1354c-20.1914-1.9282-38.88-2.6485-58.4905-2.0307
		c-1.9281-0.0204-3.8614-0.0077-5.8074,0.1134c-1.9704,0.1052-3.9256,0.296-5.8732,0.4388c-3.83,0.1804-7.6257,0.4839-11.416,0.7161
		c-3.7792,0.3127-7.5537,0.5613-11.3002,0.9284c-7.5059,0.6503-14.9432,1.4815-22.3485,2.4287
		c17.5767-3.1868,35.3099-5.5322,52.989-7.1469c0.4047-0.0286,0.7579-0.0773,1.0566-0.1364
		c19.1486-0.0733,38.4617,1.0171,57.7112,3.8668c0.6688,0.0991,1.2452,0.096,1.297-0.0341
		c0.0494-0.1077-0.4547-0.3052-1.0755-0.3943c-19.0657-2.8511-38.0943-3.9521-57.0386-3.9189
		c-0.2606-0.2319-1.395-0.3572-2.6526-0.2673c-24.7274,1.6168-49.2216,5.0901-73.2936,10.1648
		c-7.0036-0.8494-21.2728,0.9415-33.626,4.2198c-2.2791,0.6071-4.4564,1.2605-6.5812,1.9519
		c-2.121,0.7053-4.1817,1.478-6.2445,2.2645c1.9979-0.4877,3.9468-0.9634,5.9427-1.4507c-2.9008,0.8856-5.5532,1.8215-8.0643,2.8014
		c-2.503,1.0085-4.8717,2.0369-7.2176,3.0758c-0.4307,0.114-0.8613,0.228-1.3232,0.3503
		c-11.6672,2.4536-24.6817,7.3494-36.7957,11.7234c0.3589,0.1579,0.7715,0.2862,1.1297,0.4456
		c-2.2796,0.7064-3.7578,0.7702-6.2302,1.6275c0.7571-0.0858,1.4664-0.1661,2.2238-0.2519
		c-0.0475,0.0165-0.1004,0.0349-0.1479,0.0515c-2.7571,0.625-5.9273,1.7865-9.1434,3.1651
		c-7.5277,1.9396-16.3447,5.212-25.3097,9.4238c-0.3069,0.1438-0.6147,0.2971-0.9219,0.4431
		c-1.3365,0.3055-3.2281,1.0248-5.3227,2.1036c-0.9193,0.3785-1.9698,0.8675-2.6707,1.0799
		c-6.2956,1.8792-13.6469,4.9732-21.475,9.1115c1.5738-0.679,3.2155-1.3871,4.7916-2.067c-2.265,1.1698-4.5275,2.2731-6.9211,3.8124
		c0.3368-0.0386,0.7469-0.0856,1.0862-0.1246c-1.996,0.9526-4.1155,2.0992-6.228,3.3725c-2.0948,1.3204-4.1949,2.7357-6.1547,4.2155
		c-1.9469,1.5132-3.7774,3.0292-5.3483,4.5142c-1.5615,1.5088-2.8805,2.9428-3.8434,4.2067
		c-1.9193,2.5724-2.0504,3.9999-0.7823,4.1774c0.6371,0.0956,1.622-0.1242,2.9293-0.6277c1.3157-0.4864,2.9487-1.2683,4.8616-2.3503
		c0,0,0.5281-0.3026,1.1756-0.6464c-3.4429,2.8637-6.1893,5.7292-7.284,7.8808c-0.5756,1.1476,0.6486,1.0341,1.2331,1.3642
		c0.3019,0.9318,3.4615-0.672,7.1523-3.346c0.9762-0.7238,1.8892-1.4497,2.703-2.1449c1.6772-1.0682,3.3658-2.1327,5.0499-3.2066
		c2.8346-1.7036,5.6391-3.4355,8.4467-4.9317c0.8928-0.4641,1.8664-1.2048,2.196-1.6708c0.2648-0.4208-0.2298-0.3911-1.15,0.0997
		c-2.2767,1.1448-4.5353,2.231-6.7366,3.3954c-0.9908,0.5087-1.9775,1.0171-2.9616,1.5299
		c-0.2072,0.2041-0.4125,0.4062-0.6203,0.6109c0.0584-0.1287,0.1477-0.2712,0.2514-0.4199c-0.3059,0.1599-0.608,0.3279-0.913,0.4894
		c0.1927-0.187,0.3857-0.374,0.5882-0.5635c0.2333-0.1351,0.4634-0.2684,0.6964-0.4034c0.3079-0.357,0.7008-0.7509,1.1439-1.1656
		c5.44-3.3698,10.9215-6.4785,16.266-9.0247c0.315-0.143,0.0297,0.4961,0.6483,0.3003c0.3071-0.1048,0.6218-0.2121,0.9505-0.3243
		c-0.9518,0.4618-1.9487,0.9679-2.9938,1.5635c-3.543,2.873-4.8646,3.9621-5.7666,4.7452c-0.0055,0.0017-0.02,0.0062-0.02,0.0062
		s-0.0078,0.007-0.2678,0.2376c-0.4188,0.3558-0.7854,0.6673-1.3151,1.1174c0,0,0.0121,0.0089,0.0236,0.0265
		c-0.1031,0.0917-0.2136,0.1899-0.3279,0.2915c-0.5791,0.3464-1.1583,0.6929-1.7412,1.0417
		c-0.6595,0.3853-1.2231,0.8781-1.4615,1.1882c-0.2753,0.0674-0.5661,0.1436-0.9196,0.2629
		c-3.3047,2.0319-3.3174,2.0086-6.6515,4.2077c0,0,0.0665,0.0787,0.2554,0.1191c-0.1223,0.1002-1.1343,0.9664-2.4242,1.8298
		c-1.1912,0.9045-1.1842,0.9131-4.2662,3.0387c0,0,0,0,1.683-0.7706c0,0,0,0-1.4288,0.7332c0,0,0,0,0.6088,0.1164
		c0,0,0,0-0.8858,0.0419c0,0,0,0-0.3103,0.7103c0,0-0.0025,0.0009-0.3995,0.1295c-0.4014,0.1226-1.1794,0.4002-2.7461,0.9549
		c-0.1772,0.1724-0.5976,0.5815-1.6526,1.6084c0,0-0.2527,0.3356-0.4043,0.6188c0.0591,0.1247,0.0575,0.1259-0.6178,1.2697
		c0,0,0.0762,0.1371,0.276,0.1873c0.3953-0.1216,0.3952-0.1215,0.7385,0.1452c0,0,0.4391-0.143,1.0169-0.4265
		c0.514-0.3179,0.6469-0.4,2.5483-1.5759c-0.1065,0.1759-0.2015,0.3491-0.2802,0.5111c0.1518,0.8843,0.1657,0.8728,3.4322,0.5935
		c0,0,1.5212-0.5315,3.6985-1.7346c2.3752-1.5976,2.3855-1.5817,5.1618-3.3636c0,0,0.6143-0.3723,1.6748-1.0151
		c0.9164-0.2997,1.1291-0.3501,1.8439-0.5154c0,0,0.0045-0.0016,0.0148-0.0053c-0.5086,0.3655-0.9794,0.7637-1.3411,1.1351
		c-1.0515,1.0738-0.9564,1.5538,0.2213,1.0764c-0.6168,1.9357,0.8145,2.2481,3.0636,1.9215
		c-0.2749,0.6848-0.2588,1.1989,0.0577,1.5033c-1.3237,2.2264-1.8632,3.968-1.6685,5.2661l0.3764,0.9852
		c1.0569,0.3007,3.1067-0.1924,5.7972-1.3637l0.8591-0.2922l-0.198,1.1548c4.3053-0.2711,11.2561-2.8089,16.1607-3.2893
		l3.403-0.7954c2.5494-0.4506,6.1246-1.8675,10.1841-3.7647c0,0,1.0643-0.5126,2.1286-1.0253
		c1.0757-0.4949,2.1515-0.9899,2.1515-0.9899c0.8794-0.4646,1.7525-0.9259,2.6377-1.3936c-3.9418,3.301-5.5442,6.0035-3.9557,6.9713
		c1.3215,0.7604,4.6385,0.259,8.8893-1.1759c4.2943-1.382,9.5496-3.6715,14.9163-6.3977
		c14.4688-6.9602,29.2245-12.9669,44.3146-18.4112c15.0948-5.4474,30.5656-10.2582,46.6445-14.6621
		c11.9124-3.2273,23.3828-5.9494,34.8817-8.1691c11.4972-2.2242,23.036-3.8689,35.045-4.8026
		c11.4392-1.4697,22.7055-2.5421,33.9027-3.1306c11.1938-0.5834,22.3407-0.8006,33.4927-0.3421
		c9.3717,0.374,17.6703,0.6742,25.7273,1.2072c8.0509,0.542,15.8656,1.3207,24.0865,2.9723
		c0.4776,0.0976,0.5665-0.0187,0.3631-0.2126c-0.3284-0.2288-0.97-0.4484-1.4048-0.518
		c-6.3948-1.7011-12.9302-2.9893-19.5159-4.1116c-6.5859-1.1297-13.2738-1.9639-20.0433-2.6144
		c-3.376-0.3635-6.797-0.5788-10.2165-0.8615c-3.4402-0.1851-6.8816-0.4375-10.3675-0.5517
		c-6.9564-0.3104-14.0168-0.4543-21.2001-0.4385c-3.2887-0.0377-6.5314,0.0244-9.7386,0.0114
		c-0.3547-0.0396-0.7447-0.0678-1.1671-0.0625c-2.9233-0.0421-5.8605-0.1453-8.7994-0.1069
		c1.021-0.0481,2.0406-0.1118,3.0636-0.1402c2.0255-0.0303,3.7544-0.4097,3.8912-0.8685c0.001-0.1908-0.2885-0.3588-0.7651-0.492
		c7.5088-0.6391,14.8777-1.2406,22.2383-1.5792c2.1951,0.0099,4.2106-0.0173,5.9585-0.1609
		c8.4563,0.8182,16.8864,1.8682,25.2152,3.3681l2.0495,0.4416c2.7327,0.4807,5.3964,0.6862,6.7997,0.4022
		c0.4502-0.0783,0.7325-0.1992,0.8885-0.3436c9.5612,1.2652,19.1077,3.099,28.3329,5.5285
		c9.2325,2.4156,18.1646,5.3503,26.6378,8.6422c0.8635,0.3281,1.388,0.3749,1.3519,0.1206c0.2858,0.1918,0.68,0.4128,1.0558,0.5639
		c1.0298,0.3611,2.1048,0.785,3.2157,1.2511c0.5539,0.2382,1.1186,0.4812,1.6924,0.7281c0.5579,0.2764,1.1246,0.5571,1.6985,0.8415
		c0.5155,0.2236,0.8409,0.274,0.6722,0.0473c-0.1581-0.2536-0.6753-0.6259-1.1341-0.8342c-1.1625-0.609-2.3886-1.0862-3.552-1.5912
		c-1.1771-0.4828-2.3084-0.9691-3.4384-1.3422c-0.2443-0.0755-0.4237-0.0923-0.4949-0.0504
		c-0.409-0.3494-1.1251-0.7713-1.8867-1.0844c-17.1791-7.8215-35.2511-11.7487-54.0824-14.8679
		c9.3525,0.8707,18.8432,2.4977,28.638,4.939c5.8962,1.5148,11.5398,3.0948,17.0972,4.9984
		c5.523,1.9637,11.0259,4.1243,16.472,6.9822c0.5625,0.3048,1.0009,0.4001,1.0029,0.2599
		c-0.0111-0.1465-0.4199-0.4926-0.9912-0.7676c-11.1936-5.8983-22.6271-9.493-34.2296-12.2701
		c-11.6556-2.6992-23.5284-4.6011-36.4292-6.4763c-1.0151-0.1482-2.0229-0.3365-3.0283-0.4687
		c8.1179,0.0352,16.1216,0.3689,24.1037,1.1118c11.8499,2.4756,23.4553,5.8821,34.6391,10.2533
		c5.5662,2.2411,11.0264,4.7121,16.3373,7.4601c5.271,2.8115,10.4097,5.8562,15.3282,9.2225
		c0.9332,0.6937,1.7852,1.1283,1.9191,0.9113c0.1289-0.2034-0.5105-1.0045-1.4534-1.6932
		c-5.3246-4.2407-11.0376-8.0421-16.9775-11.4955c-5.9473-3.4417-12.1338-6.5396-18.5253-9.1886
		c0.9384,0.2623,1.8721,0.5234,2.8147,0.7868c0.9062,0.3304,1.8235,0.6364,2.713,1.0101
		c8.1858,3.5332,16.124,7.6554,23.6907,12.4558c2.8062,1.8153,5.3322,3.0431,5.9066,2.5626
		c0.4392-0.5061-1.2221-2.531-3.9649-4.3382c0.4668,0.257,0.9297,0.512,1.3989,0.7703c0.4655,0.2692,0.8631,0.3668,0.8037,0.1956
		c-0.1055-0.218-0.6343-0.6617-1.0886-0.9235c-1.7105-0.9068-3.3419-1.8615-5.0619-2.6695
		c-14.6299-9.318-30.9257-15.7478-47.5656-20.1806c18.0874,4.0911,36.1327,10.8395,52.3603,21.302
		c-0.3725-0.1429-0.4909-0.0436-0.1427,0.2974c0.2983,0.2905,0.9775,0.7357,1.3566,0.8825
		c0.4359,0.1707,0.4565,0.0035,0.1533-0.2928c-0.013-0.0119-0.0187-0.0171-0.0318-0.0289
		c8.6608,5.6637,16.6321,12.5245,23.6597,20.2747c0.4111,0.4515,0.854,0.7589,0.947,0.6591
		c0.0946-0.1012-0.2115-0.5824-0.6823-1.0755c-11.6542-12.9659-26.138-23.0101-41.4842-30.2284
		c-15.3807-7.2443-31.6089-11.833-47.772-14.5742c-1.7501-0.3476-3.5056-0.6963-5.268-1.0463l-0.0006-0.0099
		c-0.4485-0.6327-1.5154-1.3653-3.0381-2.0129c11.5073,1.8651,22.8593,4.5327,34.0673,8.0187
		c9.2253,3.2274,18.2273,7.1854,26.8705,11.9021c1.2415,0.6863,2.3936,1.0581,2.5787,0.7979
		c0.1801-0.2313-0.7454-0.9956-2.0544-1.7331c-2.1077-1.2152-4.2885-2.2762-6.4548-3.3683c1.9521,0.5553,3.3681,0.6745,3.7567,0.212
		c0.3806-0.4426-0.2928-1.3536-1.6552-2.4741c1.2466,0.5502,2.5035,1.0768,3.7418,1.6456c1.2307,0.5906,2.4597,1.1804,3.6869,1.7693
		l1.8432,0.8832l1.8105,0.9495c1.208,0.6347,2.414,1.2682,3.6175,1.9005c4.7553,2.6536,9.4447,5.4195,13.9104,8.4869
		c0.5242,0.3591,0.867,0.4729,0.7673,0.2354c-0.1006-0.2363-0.5726-0.6956-1.0933-1.0503
		c-12.6741-9.3815-26.4997-16.3725-40.7239-21.5861l-2.0302-0.9663l-2.05-0.8965l-4.107-1.7902
		c-2.7722-1.0795-5.538-2.2605-8.3872-3.2378c-1.4244-0.4989-2.8559-1.0002-4.2969-1.5049c-1.4479-0.48-2.9159-0.9186-4.3955-1.3766
		c-2.9548-0.9456-6.0013-1.694-9.1197-2.507c-18.2432-4.3807-35.788-5.521-53.0661-5.5567
		c-3.1011-0.2002-6.2007-0.4182-9.2896-0.5077c-1.5453-0.0528-3.0884-0.1056-4.6289-0.1584
		c-1.5398-0.0181-3.077-0.0361-4.6113-0.0542c0.8619-0.2737,1.3759-0.5968,1.3747-0.9451c-0.0003-0.0874-0.0657-0.172-0.1363-0.2582
		c2.709-0.0085,5.4286,0.0428,8.164,0.114c2.7339,0.0382,5.4862,0.1667,8.2601,0.285c25.6962,1.1839,50.7808,4.2926,75.2299,11.1627
		c6.1019,1.7446,12.1525,3.7325,18.137,5.9985c1.5,0.5524,2.9746,1.1921,4.464,1.7856c1.4879,0.5994,2.9754,1.2024,4.4377,1.8835
		l4.4097,1.9863l4.3515,2.16c5.771,2.9594,11.4717,6.1825,16.9235,9.9152l2.0602,1.3747l2.0097,1.4633
		c1.332,0.9893,2.6927,1.9417,4.0015,2.9729l3.8982,3.1487c1.3136,1.0357,2.5265,2.2044,3.7943,3.3079
		c2.5648,2.2843,4.636,3.7786,4.8304,3.0183C441.2426,55.1054,440.8175,54.2548,440.0571,53.1847z M17.0186,86.9846
		c0.3029-0.148,0.5622-0.2273,0.9873-0.359C18.0059,86.6256,18.0017,86.6271,17.0186,86.9846z M31.0665,96.5568l-0.2559,0.0473
		l0.9225-3.7332L31.0665,96.5568z M38.6932,78.3602c-0.3975,0.0687-0.8752,0.1513-1.4844,0.2567c0,0,0.6292-0.1116,1.499-0.2658
		C38.6975,78.3575,38.6932,78.3602,38.6932,78.3602z M70.5775,54.4684c-0.539,0.3031-1.6494,0.783-0.9032,0.8232
		c-2.3105,1.0074-4.6141,2.0848-6.9471,3.1618c-2.3204,1.1058-4.6447,2.2707-6.9999,3.4474
		c-1.7384,0.9088-3.4191,1.8744-4.9904,2.8639c-2.1517,0.3883-4.3689,0.9478-7.1034,1.8822
		c4.3194-2.0206,9.133-4.5004,13.6648-6.5557c2.5138-1.1375,4.9996-2.2729,7.4984-3.3359c1.2444-0.5412,2.4857-1.0811,3.7249-1.6201
		c1.2457-0.5199,2.4893-1.0388,3.7319-1.5573C71.6971,53.8735,71.1406,54.1692,70.5775,54.4684z M79.6368,43.9421
		c-1.2219,0.4402-2.4458,0.8811-3.6723,1.3228c0.2445-0.0364,0.4903-0.073,0.7382-0.1099c-2.3219,0.949-4.6364,1.9118-6.9325,2.9145
		c-2.3044,0.9803-4.6013,1.9708-6.8787,2.9995c-6.7647,2.6083-13.8805,5.8517-20.8647,9.6172
		c1.8765-1.3887,3.6443-2.7291,5.2792-4.0008c9.1782-4.2098,18.1986-7.6258,27.7821-11.7133
		c0.6567-0.2183,1.3045-0.4337,1.9524-0.649c0.9911-0.179,1.9875-0.3589,2.9858-0.5391
		C79.8983,43.8359,79.7674,43.8891,79.6368,43.9421z"/>
</g>
</svg>
