<?xml version="1.0" encoding="utf-8"?>
<!-- Generator: Adobe Illustrator 21.0.0, SVG Export Plug-In . SVG Version: 6.00 Build 0)  -->
<svg version="1.1" id="B1_Brush_Frame_8" xmlns="http://www.w3.org/2000/svg" xmlns:xlink="http://www.w3.org/1999/xlink" x="0px"
	 y="0px" viewBox="0 0 259.4843 124.9167" enable-background="new 0 0 259.4843 124.9167" xml:space="preserve">
<g id="P">
	<path id="b1-brush-frame-8-p" fill="#FF4568" d="M153.7388,87.1133c0.0209,0.0025,0.0421,0.004,0.0629,0.0067l-0.0232-0.0355
		C153.7651,87.0939,153.7521,87.104,153.7388,87.1133z M59.0772,34.8651c-0.0099-0.0013-0.0198-0.0026-0.0298-0.0038
		c0.0026,0.0098,0.0026,0.0184,0.0053,0.0283L59.0772,34.8651z M156.358,96.8288c-0.0025-0.0016-0.0049-0.0035-0.0074-0.0051
		c-0.0037,0.0107-0.0097,0.0189-0.0132,0.0297L156.358,96.8288z M186.0541,86.592c-0.0192-0.0009-0.0374-0.0049-0.0565-0.0059
		c0.0132,0.0083,0.0266,0.0164,0.0399,0.0247L186.0541,86.592z M5.8073,56.9092c0.006-0.0044,0.0099-0.0099,0.0159-0.0143
		c0.0009-0.0014,0.0021-0.0028,0.0029-0.0042L5.8073,56.9092z M103.6263,105.0155c-0.0029,0.002-0.0067,0.0051-0.0096,0.0071
		c-0.005,0.0069-0.011,0.0111-0.0159,0.0181L103.6263,105.0155z M257.2454,59.3984c-0.4277-0.2763-0.8954-0.4898-1.3249-0.7633
		c-2.3539-1.4995-5.5445-1.6877-7.067-4.5093c-0.0911-0.1693-0.4554-0.1873-0.6887-0.2844
		c-5.1938-2.1638-10.3322-4.4466-15.2592-7.1762c-0.6659-0.369-1.2945-0.8082-1.9185-1.2466
		c-0.0935-0.0656-0.1326-0.3397-0.0742-0.4558c0.0618-0.1231,0.2631-0.2266,0.4149-0.2454c0.8298-0.1014,1.538,0.2916,2.101,0.788
		c2.392,2.1088,5.5465,2.524,8.3263,3.7507c1.2699,0.5605,2.7745,0.6887,4.1097,1.2497c0.1567,0.0658,0.5074-0.106,0.6431-0.2706
		c0.1862-0.2258,0.0142-0.4727-0.2189-0.6093c-1.886-1.106-3.4249-2.8533-5.8016-3.0651c-0.4811-0.043-0.9561-0.3456-1.3988-0.5913
		c-1.2642-0.7014-2.4401-1.625-3.7772-2.1202c-3.6862-1.3648-6.4435-4.3098-10.0968-5.736
		c-1.3231-0.5167-2.4448-1.5413-3.6731-2.3107c-1.0706-0.6704-1.6032-0.5394-2.3706,0.4252
		c-0.5314,0.6686-0.5342,1.4077-0.4495,2.184c0.0263,0.2425,0.0782,0.5806-0.2669,0.5436c-0.1726-0.0185-0.3831-0.3337-0.4526-0.554
		c-0.2618-0.8287-0.2537-1.7004-0.1229-2.5375c0.2502-1.6057-0.2818-2.8091-1.5521-3.7958
		c-0.9522-0.7393-1.6652-1.7269-2.2017-2.7997c-0.6146-1.2293-1.3414-2.3406-2.2732-3.3721
		c-1.3002-1.4386-1.6352-3.3497-1.9576-5.1867c-0.1196-0.6832,0.6331-1.5329-0.1182-2.1399
		c-0.6906-0.5579-1.6476-0.2816-2.4741-0.4579c-0.7-0.1494-1.3339,0.1748-1.9763,0.4067c-0.6395,0.2307-1.256,0.0721-1.5703-0.5015
		c-0.627-1.1446-1.4131-2.0807-2.4982-2.8407c-0.6877-0.4818-0.3994-1.3418,0.4436-1.473c0.7549-0.1178,1.5313-0.0909,2.296-0.1534
		c0.1516-0.0123,0.3552-0.1033,0.4271-0.2227c0.1526-0.2533,0.0153-0.4988-0.2003-0.652c-0.4067-0.2897-0.8336-0.5507-1.2529-0.8226
		c0.0014-0.0143,0.0017-0.029,0.0028-0.0434c-0.0092,0.0073-0.0191,0.0141-0.028,0.0215c-1.252-1.3467-2.4795-2.6677-4.5353-2.8035
		c-0.7959-0.0526-1.2982-0.6991-1.2795-1.6429c0.0204-1.029-0.1373-2.0499-0.7875-2.9041c-0.2123-0.279-0.573-0.4404-0.8827-0.1893
		c-0.1595,0.1294-0.1791,0.4406-0.2419,0.6749c-0.02,0.0746,0.002,0.1793,0.0424,0.2484c1.0272,1.7499,0.0897,4.1862,1.968,5.6464
		c0.1039,0.0809,0.1846,0.3823,0.1238,0.4568c-1.173,1.4388,0.0662,1.1342,0.8595,1.2674c0.6791,0.1141,1.019,0.6376,0.8921,1.3235
		c-0.1108,0.5999-0.4279,1.3611-1.0624,1.2552c-1.5894-0.2655-3.2556,0.0055-4.7767-0.6505
		c-0.4656-0.2007-0.6604-0.6722-0.1693-0.988c0.8361-0.5369,1.1961-1.4251,1.7675-2.1499c0.3529-0.4473,0.1862-0.9942-0.2148-1.3887
		c-0.4507-0.4434-0.9603-0.3043-1.3815,0.0349c-0.4597,0.3702-0.8629,0.812-1.2788,1.2342
		c-0.2282,0.2314-0.4066,0.626-0.7904,0.4397c-0.1545-0.075-0.226-0.4305-0.2407-0.6641c-0.065-1.0463-0.2985-1.8644-1.6464-1.7023
		c-0.2936,0.0353-0.6761-0.1605-0.9259-0.3629c-0.8353-0.6761-1.6713-1.1841-2.7969-0.6798
		c-0.205,0.0919-0.6456,0.0905-0.723-0.0305c-1.3424-2.0999-4.0038,0.6594-5.3527-1.4533
		c-0.0915-0.1436-0.3091,0.3038-0.4801,0.4467c-0.866,0.7224-1.7552,0.6684-2.3649-0.0919
		c-0.4731-0.5897-0.2128-1.4001,0.5438-1.4981c0.5551-0.0717,1.376,0.2842,1.4091-0.5746c0.0248-0.6406-0.8212-0.7743-1.3304-1.0374
		c-0.7061-0.3649-1.483-0.467-2.2197-0.0982c-0.878,0.4398-0.6887,1.2634-0.6379,2.0273c0.0173,0.2626-0.0601,0.5214-0.3854,0.5182
		c-0.1532-0.0016-0.3205-0.0974-0.4546-0.1898c-0.4421-0.3044-0.6893-0.7559-0.8305-1.2552
		c-0.3183-1.1232-1.1708-1.3776-2.1805-1.3589c-0.7657,0.0143-1.5338,0.042-2.2954,0.1169
		c-2.966,0.2924-5.9253,0.6696-8.8962,0.8904c-2.1145,0.1571-4.2485,0.2221-6.3651,0.1286
		c-1.7939-0.0795-3.5704-0.0273-5.3513,0.1061c-4.4144,0.3309-8.8261,0.6995-13.2427,0.9938
		c-0.8774,0.0583-1.6464,0.2731-2.4352,0.6396c-3.0952,1.4385-6.2701,2.6061-9.7736,2.3627
		c-0.7064-0.0493-1.3899-0.0004-1.9464,0.445c-1.0035,0.8029-2.1237,1.0294-3.3642,0.8481
		c-0.7975-0.1166-1.5117,0.1866-2.2213,0.4827c-1.3403,0.5589-2.5403,1.3053-3.6694,2.2534
		c-1.5071,1.266-2.0827,1.0936-3.2423-0.4919c-0.2509-0.3431-0.5317-0.6655-0.811-0.9866c-0.2639-0.3034-0.6812-0.4089-0.866-0.067
		c-0.7173,1.3269-1.4459,1.0632-2.3977,0.2307c-0.5469-0.4785-1.4873-0.5669-1.7169,0.2596
		c-0.4206,1.5148-1.5941,2.1136-2.746,2.8235c-0.2174,0.1341-0.3397,0.4002-0.2197,0.6543c0.0593,0.1249,0.249,0.249,0.3904,0.2627
		c0.3362,0.0322,0.6805,0.0151,1.0192-0.0118c0.7908-0.0627,1.4153,0.1846,1.4143,1.0569c-0.001,0.7717-0.6682,0.8199-1.2833,0.9406
		c-2.6277,0.5147-5.2865,0.5665-7.7681,2.1002c-1.6354,1.0109-3.6104,1.7842-5.5555,2.358l0.0202-0.0183
		c-0.0001,0-0.0002,0-0.0002,0l0,0c-0.1893,0.0002-0.3784,0.0004-0.5673,0.0008l0.0181,0.0172
		c-0.4695,0.3945-0.9463,0.8484-0.8236,1.4987c0.304,1.6118-0.9033,1.8673-1.9425,2.1701
		c-1.4651,0.4267-2.9544,0.8151-4.4598,1.0486c-4.1939,0.6508-8.2834,1.8873-12.5807,2.0037
		c-1.9028,0.0515-3.5137-0.2798-5.009-1.4252c-0.7433-0.5693-1.5843-1.0098-2.5195-1.202
		c-0.1296-0.0265-0.3474,0.0671-0.4236,0.1755c-0.0803,0.1141-0.1,0.3423-0.0389,0.4691c0.107,0.2215,0.2843,0.4139,0.4522,0.6003
		c1.2499,1.3882,1.0679,2.0295-0.658,2.5117c-1.0706,0.2995-1.8115-0.0225-2.3707-0.9555
		c-0.3808-0.6355-0.7874-0.8328-1.3232-0.0626c-1.181,1.6966-1.2063,1.6831-2.9935,1.1281
		c-0.4067-0.1263-0.8197-0.2502-1.2024-0.4332c-0.7647-0.3654-1.3068-0.3058-1.5244,0.6347
		c-0.056,0.2423-0.1683,0.4927-0.3206,0.6879c-0.4578,0.5862-1.1823,0.5053-1.363-0.1757
		c-0.2408-0.9078-0.4401-1.8626-0.0679-2.7675c0.3857-0.9367,1.2169-0.1724,1.809-0.3676c0.1571-0.0518,0.3401-0.1296,0.4334-0.2539
		c0.683-0.9108,1.4965-0.7548,2.4982-0.5671c1.361,0.2549,2.6647-0.4462,3.9077-0.9267c0.2504-0.0966-0.6675-1.0586-0.5997-1.923
		c0.1298-1.6511-0.0117-1.6656-1.6036-1.616c-0.564,0.0177-1.2903,0.3873-1.5523-0.3894c-0.2294-0.68,0.4257-1.0522,0.8719-1.4172
		c0.3923-0.3207,0.8799-0.5229,1.2805-0.8354c0.7495-0.5846,2.3287-0.7782,2.0277-1.8527c-0.2787-0.995-1.8162-1.0665-2.8513-1.4164
		c-0.295-0.0996-0.6691,0.0403-1.0072,0.0615c-1.9247,0.1207-3.7332,1.1226-5.7391,0.7114c-0.51-0.1047-0.9978,0.2739-1.3306,0.6622
		c-1.1763,1.3722-2.966,1.3887-4.2601,1.0435c-1.4094-0.3757-2.0403-0.0257-2.7757,0.8982c-0.5577,0.7006-1.3,0.7089-2.0947,0.509
		c-0.8477-0.2131-1.0046-0.7877-0.9133-1.5602c0.1011-0.8536-0.3855-1.0537-1.1081-0.8605
		c-0.5756,0.1536-1.1465,0.3329-1.7041,0.5424c-0.902,0.3387-1.6389,0.3008-2.1719-0.6547
		c-0.3892-0.6975-1.1072-1.0439-1.8049-1.3693c-0.3301-0.1541-0.6773-0.1378-0.9059,0.204
		c-0.2099,0.314-0.2172,0.6993,0.0469,0.9359c1.4863,1.331,1.9678,3.3361,3.3513,4.7781c1.7045,1.7764,3.1068,3.8418,5.2794,5.1422
		c0.1816,0.1088,0.3951,0.4658,0.3403,0.6123c-0.1694,0.4509-0.6125,0.2847-0.8301,0.0978
		c-1.5479-1.3296-3.8427-1.3345-5.2152-2.9809c-0.3529-0.4235-0.9227-0.4051-1.4371-0.2731
		c-0.7615,0.1954-1.1338,0.4608-0.7581,1.4305c1.4612,3.7727,4.4452,5.8605,7.9605,7.3247
		c1.2548,0.5227,2.0511,1.3909,2.9216,2.3478c1.0323,1.1345,0.6439,2.089,0.2084,3.2588c-0.4434,1.1914-1.3577,1.1242-2.2802,1.1863
		c-0.5098,0.0344-1.0229,0.032-1.5344,0.0233c-2.4396-0.0412-3.3876-0.7994-4.0335-3.0793c-0.204-0.7203,0.0903-1.3377,0.1557-2.004
		c0.1143-1.162-0.3507-1.5804-1.4894-1.3709c-0.3307,0.0607-0.6425,0.2203-0.9662,0.3242c-2.2968,0.7374-2.386,0.6757-3.4909-1.4749
		c-0.7231-1.4074-1.6902-2.5402-3.4562-2.6351c-0.5628-0.03-1.1262,0.0026-1.2167,0.6076c-0.2563,1.7159-1.6592,2.0322-2.9202,2.488
		c-1.4711,0.5319-1.8296,0.7219-1.343,2.0297c0.7228,1.9427-0.0687,2.803-1.6705,3.5577c-0.6176,0.2912-1.1924,0.5543-1.871,0.7003
		c-2.5943,0.5594-5.0853,1.4437-7.4189,2.7187c-0.5286,0.2887-1.5686,0.3851-1.2896,1.1884
		c0.1587,0.4558,1.0989,0.7441,1.8335,0.5683c0.2473-0.0591,0.4829-0.1673,0.7286-0.2374c0.2476-0.0707,0.5314-0.128,0.6272,0.1909
		c0.0358,0.1192-0.0815,0.3262-0.1869,0.4383c-0.2897,0.3077-0.7443,0.5654-0.6804,1.0276
		c0.2767,2.0026-0.9932,3.3566-1.9476,4.8508c-0.2747,0.4304-0.5219,0.8796-0.7548,1.334
		c-0.1583,0.3093-0.2388,0.6745,0.0071,0.9554c0.2794,0.3192,0.6099,0.17,0.8986-0.0474c0.1361-0.1023,0.2631-0.2169,0.3975-0.3218
		c0.3489-0.2716,0.7617-0.5226,1.1617-0.2486c0.489,0.335,0.1696,0.7666-0.0552,1.1158c-0.3996,0.6213-0.3301,1.3065-0.3262,1.9847
		c0.0042,0.7303-0.2842,1.306-0.8689,1.7348c-0.31,0.5003-0.7984,0.9684-0.8953,1.5069c-0.4469,2.4814-2.0179,4.0425-4.0407,5.2973
		c-0.4106,0.2545-1.0751,0.5408-0.8362,1.097c0.2366,0.5502,0.7-0.087,1.0728-0.1029c0.3179-0.0134,0.453,0.2189,0.4393,0.4882
		c-0.0393,0.7744,0.51,1.4252,0.3845,2.24c-0.1029,0.6669,0.3001,1.0547,0.8721,0.4987c0.8469-0.8234,1.4802-1.0663,2.1605,0.1649
		c0.4367,0.7896,1.3188,1.0194,2.1078,1.3448c1.7986,0.7415,3.2778,1.8975,3.9708,3.7517c0.9598,2.5668,3.0983,3.4964,5.4568,3.9712
		c1.5364,0.3094,2.9274,0.7503,4.1266,1.7503c2.5278,0.1727,5.1078-0.373,7.5813,0.5162c0.6729,0.2417,1.6257-0.6111,2.0349,0.444
		c0.2722,0.7011,0.3865,1.4801,0.4617,2.2357c0.0493,0.4945-0.1414,1.008-0.1461,1.514c-0.0057,0.6455,0.3144,1.0563,0.9381,0.5945
		c0.9027-0.6677,1.5085-0.2498,2.257,0.2932c0.9515,0.6908,2.0121,1.2349,3.0426,1.8117c0.2266,0.127,0.5247,0.0597,0.6619-0.2019
		c0.0703-0.1349,0.0757-0.3389,0.0346-0.4911c-0.1373-0.5063-0.431-0.9253-0.8452-1.245c-0.5369-0.4144-0.3634-0.8828-0.1381-1.3643
		c-0.5052-0.342-1.0106-0.6838-1.5157-1.0256c-0.1633-0.3339-0.3268-0.6677-0.4902-1.0014
		c0.8586,0.0428,1.7031,0.2347,2.3561,0.7816c1.0341,0.8666,2.3645,0.9254,3.5184,1.45c0.5659,0.2574,1.2623,0.335,1.6633-0.1921
		c0.6641-0.8727,1.3202-0.7099,1.9125-0.0815c0.6443,0.6828,1.6212-0.5245,2.0809,0.412c0.4731,0.9636,1.3196,0.9161,2.1573,1.0626
		c0.8422,0.1469,1.7568,0.3784,2.2938,1.0413c0.9542,1.1782,2.2429,1.1468,3.2421,0.627c2.1469-1.1169,3.9221,0.1934,5.8469,0.512
		c0.2392,0.0397,0.4295,0.2969,0.3267,0.5718c-0.0449,0.1196-0.2509,0.2258-0.3978,0.2496
		c-0.249,0.0401-0.5121-0.0135-0.7648,0.0146c-0.5807,0.0648-0.9507,0.3965-0.9772,0.9842
		c-0.0247,0.5504,0.2474,0.9962,0.7399,1.2485c0.4474,0.2296,0.8226,0.0322,1.1119-0.3301c0.3273-0.41,0.7672-0.9606,1.2381-0.6884
		c1.0072,0.5822,1.7344,0.1461,2.5583-0.3226c0.3661-0.2083,0.9644-0.2229,1.1729,0.1726c0.5602,1.0616,1.4769,0.8774,2.4124,0.9548
		c2.0796,0.1714,2.3382,0.7621,1.2047,2.4334c-0.0952,0.1406-0.2549,0.2559-0.2991,0.4077
		c-0.0668,0.2299-0.1571,0.5347-0.0613,0.713c0.2058,0.3835,0.6849,0.3422,0.8737,0.0895c0.8461-1.1321,2.2488-1.1236,3.3467-1.7265
		c0.5622-0.3087,1.0125-0.1335,1.1512,0.52c0.1262,0.5938-0.2789,0.6241-0.7478,0.7105c-2.2983,0.4234-4.0042,2.1876-6.2275,2.814
		c-0.2702,0.076-0.5196,0.4427-0.6526,0.7323c-0.1679,0.3664,0.0803,0.8306,0.4312,0.6885
		c1.4064-0.5689,2.8556-0.2657,4.2817-0.3735c0.7529-0.0569,1.3312-0.866,2.1611-0.618c0.9102,0.272,0.7939,1.2285,1.1448,1.8748
		c0.2145,0.3953,0.5715,0.616,0.9601,0.8057c0.4664,0.2274,1.0378,0.5,0.9789,1.0608c-0.1398,1.3333,0.7091,1.3096,1.6077,1.3703
		c1.2568,0.0846,2.7186,0.5015,2.8013,1.7695c0.1139,1.7479,1.1782,1.7512,2.2916,1.9372c1.5056,0.2516,3.0467,0.3372,4.5252,0.6918
		c1.3954,0.3344,2.8519,0.2454,4.0336-0.1854c2.2575-0.8226,4.5156-0.5505,6.6851-0.2997c1.8239,0.2109,3.7886-0.6857,5.5086,0.551
		c0.071,0.051,0.3953-0.2504,0.6072-0.3955c0.7641-1.0586,1.9661-0.8694,3.0196-0.9689c1.9313-0.1828,3.9219,0.1428,5.7364-0.895
		c0.4232-0.2421,1.156-0.2465,1.3544,0.2861c0.3197,0.8572-0.5071,0.8847-1.0449,1.0628c-0.2421,0.0799-0.507,0.1088-0.7305,0.2223
		c-0.4992,0.2537-0.8022,0.6602-0.6249,1.2395c0.1634,0.5339,0.5828,0.8151,1.1348,0.884c0.4507,0.0565,0.8093-0.1879,1.199-0.3578
		c1.8113-0.7902,1.8188-0.7853,2.9821,0.777c0.2039,0.2737,0.3779,0.6021,0.7521,0.6064c0.4428,0.0051,0.4658-0.399,0.5883-0.7109
		c0.2468-0.6299,0.4941-1.2629,0.7983-1.8657c0.2239-0.4438,0.5225-1.1777,0.8165-1.192c0.66-0.032,0.3939,0.7568,0.5775,1.1735
		c0.3167,0.7183,0.8104,1.2999,1.3322,1.8563c0.4473,0.4766,1.0706,0.4244,1.2308-0.1522c0.6763-2.4332,2.7192-3.1076,4.7318-3.7925
		c0.7421-0.2524,1.1344-0.6757,1.3516-1.3689c0.1777-0.5683,0.3116-1.1637,0.5814-1.6868c0.5333-1.0339,1.5774-1.2876,2.2424-0.3411
		c1.3271,1.8887,3.0188,1.9022,4.9656,1.4979c2.2119-0.4591,4.1807-0.0952,5.7456,1.7497c0.477,0.5626,1.2371,0.8825,1.8604,1.3239
		c1.1615,0.8224,1.4683,1.6548,0.6543,2.7938c-0.9783,1.3685-1.7479,2.9753-3.2719,3.8611
		c-0.8167,0.4748-1.5974,1.8096-2.5709,1.041c-0.7423-0.586,0.0452-1.7381,0.3282-2.6033c0.2908-0.889,0.6898-1.7453,0.7566-2.6953
		c0.0172-0.2455,0.0239-0.5302-0.283-0.5909c-0.0974-0.0193-0.2734,0.1475-0.3491,0.2692c-0.2465,0.3986-0.0803,1.2363-0.7175,1.149
		c-0.5023-0.0687-0.3637-0.8557-0.4915-1.3241c-0.1513-0.5552-0.2316-1.1296-0.3392-1.6971c-0.6495,0.9804-0.47,2.109-0.5611,3.1907
		c-0.0807,0.9573-0.3447,1.8551-1.0726,2.5308c-0.769,0.7142-1.5535,0.4098-2.3629,0.0161c-0.41-0.1991-0.6771,0.0128-0.4841,0.4778
		c0.4302,1.0366,0.3362,1.9454-0.3558,2.8749c-0.5697,0.7653-0.129,1.5655,0.7943,1.6682c0.7794,0.0868,0.6644-0.5909,0.8874-0.9938
		c0.4118-0.7437,1.0294-1.2858,1.8498-0.7513c0.6423,0.4185,0.1777,1.0411-0.0579,1.5951
		c-1.0184,2.3957-2.0002,4.8068-2.9972,7.2115c-0.0983,0.2374-0.2093,0.5-0.0056,0.7021c0.2005,0.1993,0.4719,0.119,0.6937-0.0114
		c0.7609-0.4485,1.331-0.9693,1.3477-1.9918c0.02-1.2307,0.768-2.2416,1.3102-3.2988c0.2537-0.4943,0.5989-0.4982,0.9553-0.0259
		c0.5477,0.7267,0.8212,0.2686,0.9785-0.2893c0.1449-0.5143,0.063-1.0115-0.3499-1.4119c-0.3537-0.3433-0.4542-0.7325-0.0894-1.1199
		c0.3117-0.3309,0.7472-0.5007,1.1622-0.3287c0.8615,0.3576,1.8115,0.5004,2.5831,1.0832c0.6148,0.4642,0.9182,0.1875,0.9858-0.4886
		c0.196-1.9578,1.2051-2.9086,3.2028-3.3611c1.5297-0.3464,2.9713-1.3766,2.857-3.4222c-0.0231-0.4108,0.0171-0.92,0.2396-1.2336
		c1.2703-1.7917,1.2024-4.0723,2.2373-5.9406c0.3212-0.5797,0.3171-1.171-0.1422-1.6619c-1.0404-1.112-2.0943-2.2133-3.1824-3.2784
		c-0.5495-0.538-1.9767-0.5944-1.498-1.6188c0.3063-0.6561,1.3151,0.3856,2.0858,0.3014c0.3124-0.0344,0.6771,0.1119,0.9717,0.2651
		c1.2676,0.6586,3.1166,0.6854,3.082,2.8048c-0.0037,0.2235,0.312,0.3996,0.5887,0.3593c0.2791-0.0406,0.4328-0.259,0.4482-0.5267
		c0.0149-0.2527-0.0774-0.515-0.0442-0.7625c0.151-1.1193,0.403-1.2664,1.4969-0.8448c0.3098,0.1194,0.5768,0.3498,0.8627,0.5308
		c0.1692-0.4967,0.4989-0.8333,0.9962-1.0035c-0.9045-0.6168-1.7902-1.2644-2.7208-1.8398
		c-0.7941-0.4908-1.3942-1.2075-1.1503-2.0615c0.228-0.7979,0.2398-1.05-0.6319-1.1132c-0.9334-0.0678-1.2599-0.801-1.3625-1.5918
		c-0.0952-0.7313,0.522-0.9717,1.0471-1.2681c0.4247-0.2397,0.8101-0.5499,1.2104-0.8325
		c-0.5623-0.0671-1.1405-0.0801-1.6774-0.2355c-0.5552-0.1608-0.7507-0.6508-0.6102-1.2091
		c0.1216-0.4829,0.5123-0.6535,0.9689-0.6077c0.8306,0.0829,1.6703,0.1459,2.4814,0.3271c0.6523,0.1457,0.5902,0.6852,0.4504,1.1935
		c0.8027-0.0278,1.3069-0.3233,1.7649-1.1182c1.0427-1.8109,2.0695-2.0634,3.9305-1.4095c0.6255,0.2197,1.2925,0.3216,1.942,0.4745
		c-0.0978-1.5093-1.6685-1.7886-2.3811-2.8049c-0.8734-1.2452-1.4435-2.7194-0.89-2.915c1.0958-0.387,2.0442,0.1844,2.7101,0.9573
		c0.8367,0.9707,1.9016,1.0068,2.9955,1.1154c0.2478,0.0247,0.5823,0.1157,0.6371-0.1834c0.0304-0.1649-0.2127-0.4762-0.4059-0.5701
		c-1.2809-0.6221-1.6399-1.6552-1.3701-2.9672c0.0837-0.4065,0.4727-0.6038,0.7271-0.2645c1.0651,1.4193,2.6779,2.0446,4.0898,2.963
		c0.4257,0.2767,0.8574,0.7734,1.3601,0.5534c1.4431-0.6313,2.4203,0.2926,3.5189,0.8884c1.8708,1.015,3.6979,2.1354,5.6449,2.9768
		c2.0689,0.894,4.0176,2.1875,6.3721,2.3084c-1.1425-0.7152-2.2985-1.4097-3.4209-2.1552
		c-0.8198-0.5444-0.9604-1.4485-0.7753-2.2852c0.1921-0.8693,1.1429-0.9271,1.8394-1.1747c0.5129-0.1822,1.0101,0.0864,1.4292,0.391
		c0.4825,0.3507,0.8758,0.8942,1.4058,1.0947c1.3226,0.5,2.5911,2.3015,4.1409,0.3309c0.1159-0.1473,0.5084-0.1868,0.7294-0.1245
		c1.3345,0.3776,2.5092-0.0618,3.6924-0.6016c0.5559-0.2535,1.1498-0.153,1.7546-0.0259c2.1556,0.452,4.2426,0.6619,6.5197,0.1797
		c2.0348-0.4308,4.3877-1.0765,6.3801,0.5952c0.3776,0.3168,0.8536,0.021,1.1436-0.2877c1.0262-1.092,2.1672-0.7969,3.2912-0.2816
		c1.4716,0.6749,2.8904,1.4667,4.3718,2.1176c0.6604,0.2902,1.5869,0.7427,1.1064-0.8379c-0.2961-0.974,1.2876,0.0878,1.1497-0.7391
		c-0.3224-1.9331,1.1488-1.9062,2.2298-1.9883c3.1783-0.2415,6.3727,0.2781,9.558-0.0872c0.0809-0.0094,0.1685,0.0242,0.2508,0.0457
		c2.4927,0.6498,4.5312,0.0069,6.0981-2.0847c0.8118-1.084,1.8923-1.3848,3.1799-0.9241c1.0698,0.3826,2.1678,0.4523,3.2767,0.2139
		c0.3958-0.085,0.9137-0.0986,0.9679-0.6357c0.0385-0.3829-0.3735-0.5117-0.6333-0.7167c-1.853-1.4614-1.9013-1.4818-1.1688-3.4988
		c0.2192-0.6038,0.1104-0.9426-0.2657-1.3434c-0.7044-0.7509-1.4094-1.4561-2.4861-1.7006
		c-1.5787-0.3584-3.1353-0.8138-4.7047-1.2142c-1.4769-0.3768-2.7095-1.0526-3.2421-2.5958
		c-0.3024-0.8764-0.8571-1.4559-1.7892-1.6379c-0.9636-0.1877-1.3867-0.8923-1.6905-1.7371
		c-0.2692-0.7493,0.0027-1.317,0.7432-1.2065c1.7599,0.2623,3.4909-1.0396,5.2431-0.0422c0.1233,0.0701,0.3837,0.0587,0.4915-0.0269
		c1.4435-1.145,2.7649-0.1486,4.0718,0.2769c1.624,0.5287,3.246,1.3159,4.9211,1.3116c2.3814-0.0059,4.7565-0.4041,7.0994,0.356
		c0.3533,0.1145,0.6659-0.0513,0.7808-0.4524c0.2804-0.9778-0.2669-2.3685-1.1722-2.5024
		c-2.8195-0.4169-5.1478-2.2776-7.9962-2.6088c-0.8207-0.0952-1.722-0.346-2.2997-1.0199
		c-0.4289-0.5002-1.2091-1.1983-0.9365-1.6951c0.398-0.7262,1.2104-0.0314,1.825,0.129c0.4037,0.1053,0.7625,0.3745,1.1509,0.5487
		c4.0429,1.8141,8.1215,3.5245,12.5295,4.2662c0.257,0.043,0.5479,0.0989,0.6942-0.1617
		C257.6274,59.7905,257.4613,59.538,257.2454,59.3984z M53.4004,25.4823l-0.025,0.1846l-0.1422-0.1155L53.4004,25.4823z
		 M36.535,24.3937c-0.1216-0.0222-0.3118-0.1771-0.3105-0.2714c0.0049-0.3145,0.2467-0.3509,0.4717-0.2346
		c0.1082,0.056,0.1536,0.2333,0.2276,0.3558C36.7929,24.2998,36.6515,24.4147,36.535,24.3937z M30.8491,75.4293
		c-0.7835,0.6459-2.7349,0.1744-4.1633-1.1232c-0.683-0.6207-1.1959-1.4255-1.8227-2.1132
		c-0.1449-0.1592-0.4687-0.2888-0.6608-0.2394c-0.2693,0.0688-0.2443,0.3931-0.2119,0.6496
		c0.1644,1.3157,0.9642,2.113,2.1084,2.6693c0.4293,0.2087,1.1975,0.3425,1.0427,0.9102c-0.1276,0.4683-0.9078,0.3734-1.3826,0.365
		c-1.9494-0.0334-3.9042-0.0742-5.8432-0.2582c-1.3666-0.1298-1.5877-0.6655-1.429-2.0815
		c0.2635-2.3497,0.4373-4.7095,0.6487-7.0649c0.3406-0.1743,0.3542-0.3482,0.001-0.5212c0.2751-0.7341,0.8256-0.7739,1.4561-0.555
		c1.0592,0.368,1.7802-0.0911,2.4397-0.8823c0.8713-1.0453,1.8123-2.0321,2.7066-3.0583c0.3483-0.3992,0.6849-0.8475,1.2664-0.4724
		c0.6885,0.4444,0.8204,1.1362,0.367,1.7703c-0.3865,0.5404-0.9752,0.9338-1.4594,1.4076
		c-1.1093,1.0857-2.1198,2.2375-2.2512,3.8844c-0.0184,0.2285,0.0513,0.6201,0.183,0.6712
		c0.2849,0.1108,0.4012-0.2188,0.5076-0.4413c0.3199-0.6698,0.8892-1.0101,1.567-1.2104c0.5759-0.1701,1.1209-0.3727,1.5566-0.8291
		c0.3908-0.4095,0.7753-1.1372,1.437-0.7525c0.7495,0.4359,0.8383,1.2234,0.4499,2.0189l0.0172-0.0167
		c0.399,0.9326,0.7557,1.8663,1.3408,2.7299C31.6709,72.2901,31.6542,74.7656,30.8491,75.4293z M47.1593,37.1662
		c0.5267-0.3439,1.1797-0.2394,1.5816,0.3309c0.312,0.4431,0.1639,0.9628,0.0775,1.4561c-0.5064-0.1646-1.0128-0.329-1.5195-0.4936
		C47.1405,38.0304,46.5348,37.5736,47.1593,37.1662z M45.9563,38.8365c0.1968-0.3075,0.5483-0.2845,0.8632-0.3236
		c0.1488-0.0184,0.2994-0.0227,0.4495-0.0317c-0.097,0.1176-0.1887,0.2405-0.295,0.3486c-0.2321,0.2361-0.495,0.4452-0.8469,0.3441
		C46.0397,39.1489,45.9192,38.8944,45.9563,38.8365z M43.6014,29.4447c0.2794-0.0081,0.4795,0.1314,0.4955,0.4467
		c-0.0524,0.3605-0.2396,0.6619-0.5905,0.7366c-0.421,0.0897-0.6146-0.2089-0.5884-0.5869
		C42.9444,29.6534,43.227,29.4555,43.6014,29.4447z M38.5708,28.6327c-0.2708-0.5312-0.0383-0.9302,0.4756-0.9235
		c0.6584,0.0681,1.3328,0.3224,1.7112,0.9041c0.8805,1.3536,1.5839,2.8093,2.0707,4.3551c0.1047,0.3321-0.0006,0.6848-0.3558,0.8546
		c-0.2507,0.1198-0.5952,0.0475-0.6682-0.1746C41.1598,31.6898,39.477,30.4102,38.5708,28.6327z M40.8921,42.4246
		c-0.1506-0.1581-0.2899-0.4589-0.2418-0.6437c0.0705-0.2696,0.3896-0.2509,0.6402-0.1964
		c0.8634,0.1878,1.4196,0.7683,1.8765,1.4721C42.3428,43.0822,41.5178,43.0793,40.8921,42.4246z M48.4017,44.8386
		c-1.519,0.3452-3.0269,0.2111-4.5179-0.1512c-0.9117-0.2214-0.8018-0.9205-0.6772-1.5999
		c0.6599,0.0912,1.3536,0.0863,1.9691,0.3029c0.9712,0.3417,1.891,0.7132,2.9363,0.2946c0.3609-0.1442,0.6761,0.0615,0.7881,0.4357
		C49.0236,44.5333,48.7884,44.7508,48.4017,44.8386z M49.0005,39.4272c-0.0618-0.1321-0.0994-0.2755-0.1433-0.4158
		c0.1769,0.1133,0.4042,0.189,0.334,0.4845C49.1257,39.4741,49.0209,39.4706,49.0005,39.4272z M50.6429,35.5559
		c-0.0394,0.098-0.2606,0.1834-0.39,0.1724c-0.2507-0.0214-0.466-0.1677-0.3425-0.4599c0.0419-0.0994,0.2531-0.1276,0.3869-0.1882
		C50.544,35.1465,50.7576,35.2686,50.6429,35.5559z M51.5105,41.7247l-0.132-0.1127l0.1589-0.0603L51.5105,41.7247z
		 M78.3548,96.4426c-0.1064,0.0018-0.2743-0.1608-0.3058-0.2773c-0.0247-0.0919,0.1174-0.2285,0.1852-0.3452
		c0.1345,0.0522,0.3375,0.0683,0.3876,0.1642C78.7489,96.2279,78.6352,96.4378,78.3548,96.4426z M79.101,32.675
		c-0.7364,0.7413-1.8318-0.1742-2.3531,0.2609c-0.5184,0.4326-0.6897,1.3063-1.5953,1.3497
		c-2.7579,0.1318-5.359,0.9516-7.9546,1.7993c-0.1616,0.053-0.3525,0.1605-0.4911,0.1174
		c-1.8832-0.5844-3.7572,0.5638-5.6396,0.0136c-0.8672-0.2535-1.6927-0.0293-2.4764,0.3501
		c-0.5469,0.2647-1.114,0.5872-1.6896,0.2206c-1.1765-0.7492-2.3488-1.2365-3.82-0.9371c-0.5942,0.1208-1.0267-0.5241-1.1558-1.1674
		c-0.1489-0.7425-0.5785-1.1951-1.2975-1.432c-0.2285-0.0754-0.7931-0.1985-0.2513-0.6083c0.933-0.7054,2.2936-0.8362,3.0074,0.1009
		c1.2442,1.6334,2.9603,1.7169,4.6789,1.9916c0.3265,0.052,0.6561,0.0856,0.9844,0.127c-0.3364-1.265,0.3215-2.0859,1.2595-2.7828
		c0.2888-0.2145,0.6325-0.3578,0.9471-0.1785c1.7778,1.0139,3.5916,0.3445,5.3849,0.1214c0.6205-0.0774,1.1804-0.0544,1.7383,0.2014
		c1.341,0.6149,2.4968,0.2883,3.474-0.7383c0.4839-0.5084,0.9962-0.9556,1.6951-1.0736c2.511-0.4241,4.9219-1.3561,7.5075-1.4196
		c0.82-0.0202,1.6381-0.1359,1.7161,0.9457c0.0587,0.8104-0.2402,1.6443-1.2199,1.6181
		C80.4938,31.5264,79.7832,31.9877,79.101,32.675z M86.6195,97.8407c-0.5724,0.7254-1.3887,0.4377-2.1012,0.11
		c-0.6352-0.292-1.0804-0.2101-1.5075,0.4051c-0.6174,0.8892-1.3218,0.6877-1.7925-0.1357
		c-0.4434-0.7755-1.2722-1.5382-0.7682-2.546c0.6386-1.2768,2.0326-1.0042,3.093-1.3445c1.2847,0.0396,2.265,0.5655,2.3702,1.8506
		C85.972,96.8999,87.2311,97.0649,86.6195,97.8407z M87.1186,93.7683l-0.0385-0.1367l0.1457,0.0262L87.1186,93.7683z
		 M114.2412,96.4948l-0.0145-0.163l0.1429,0.072L114.2412,96.4948z M117.0707,96.0918c-0.2963,0.2001-0.604,0.282-0.8147-0.093
		c-0.064-0.1143-0.0479-0.3383,0.0251-0.4517c0.2197-0.3416,0.5298-0.3253,0.8273-0.0954c0.1257,0.097,0.2156,0.2405,0.3221,0.3632
		C117.3115,95.9083,117.1958,96.0071,117.0707,96.0918z M144.6695,102.9976c-0.3707-0.052-0.443-0.4589-0.5092-0.7794
		c-0.0866-0.4186,0.1192-0.65,0.5394-0.5917c0.3778,0.0526,0.5488,0.3284,0.543,0.7089
		C145.1749,102.6665,145.0868,103.0561,144.6695,102.9976z M150.9239,79.2355l0.0422-0.1355l0.1122,0.0929L150.9239,79.2355z
		 M161.4933,77.6165c-0.7433-0.2219-1.3791-0.5952-1.5452-1.4333c-0.0259-0.1304,0.0801-0.3721,0.1915-0.4266
		c0.2042-0.1001,0.5463-0.2164,0.6757-0.1192c0.5479,0.4106,0.7755,1.0471,1.0021,1.6853
		C161.7037,77.4299,161.5644,77.6378,161.4933,77.6165z M175.8314,12.3151l0.0589-0.1349l0.097,0.1249L175.8314,12.3151z
		 M178.5774,13.6867c-0.1524-0.052-0.3973-0.0721-0.4194-0.1533c-0.163-0.6003-0.0096-1.1217,0.538-1.4587
		c0.0711-0.0436,0.345,0.0797,0.391,0.1844C179.3612,12.8826,179.1147,13.3439,178.5774,13.6867z M214.2276,34.967l-0.1037-0.1435
		l0.1781-0.0108L214.2276,34.967z M238.016,54.6945c-3.0165-0.8619-6.0111-1.7872-8.6625-3.5398
		c-0.2132-0.141-0.332-0.4269-0.1968-0.6808c0.1414-0.2659,0.4244-0.241,0.6714-0.1581c2.8177,0.9457,5.5667,2.0483,8.119,3.5932
		c0.2117,0.1282,0.4518,0.2539,0.4337,0.5746C238.272,54.5501,238.115,54.7228,238.016,54.6945z M36.5268,83.0057
		c-0.0007,0.0015-0.0013,0.003-0.002,0.0045c0.0067,0.0045,0.0133,0.009,0.02,0.0135L36.5268,83.0057z M43.2519,111.1171
		c-0.3484-0.142-0.6918,0.0308-0.9139,0.2883c-1.8748,2.1736-4.1536,3.9839-5.7589,6.3987c2.282-0.399,3.7726-2.1612,5.647-3.2639
		c1.0388-0.6115,1.3362-1.4601,1.3487-2.5413C43.579,111.6566,43.6403,111.2756,43.2519,111.1171z M36.5523,117.8417
		c0.0085-0.0129,0.0183-0.0247,0.0269-0.0376c-0.0179,0.0031-0.0337,0.0098-0.0517,0.0127L36.5523,117.8417z M39.75,104.4089
		c-0.9269-0.5143-1.5624-1.2473-2.0124-2.1903c-0.0976-0.2045-0.3552-0.3582-0.5715-0.475c-0.3061-0.1648-0.65-0.1874-0.9522,0.0208
		c-0.2313,0.1595-0.3197,0.4501-0.1995,0.6726c0.8051,1.4928-0.0396,2.3486-1.1419,3.1505
		c-0.4854,0.3527-0.7161,0.9003-0.8728,1.471c2.0139-0.257,3.4153-2.197,5.6052-2.0245
		C40.098,105.0729,40.1056,104.6063,39.75,104.4089z M33.9687,107.0654l0.0219,0.0222c0.0027-0.0098,0.0064-0.0193,0.0091-0.0291
		C33.989,107.0598,33.9794,107.0641,33.9687,107.0654z M127.1604,116.8011c-0.0016,0.0092-0.0026,0.0152-0.0042,0.0243
		c0.0069-0.0024,0.0143-0.0048,0.0211-0.0072L127.1604,116.8011z M131.0352,116.9908c-0.2142,0.3541-0.3228,0.7703-0.5025,1.1474
		c-0.5457,1.1458-0.9031,1.2744-2.2213,0.8267c-1.4426-0.4898-1.4498-0.4956-1.1553-2.1395
		c-0.5679,0.194-1.2858,0.4016-1.1672,1.1085c0.1754,1.0475,0.0193,2.4061,1.1005,2.9683c1.0781,0.5603,2.1216-0.082,3.032-0.8045
		c0.922-0.7317,1.2281-1.8151,1.6994-2.8052c0.0538-0.1131-0.0153-0.3784-0.1161-0.4529
		C131.4624,116.6609,131.1631,116.7785,131.0352,116.9908z M212.8393,20.0803c0.045,0.1938,0.3098,0.4228,0.5129,0.4738
		c0.2983,0.0748,0.4599-0.206,0.4561-0.4709c-0.0339-2.2314-0.6761-4.3274-1.4759-6.3828
		c-0.0405-0.1043-0.2863-0.2082-0.4041-0.1795c-0.1096,0.0267-0.2282,0.2225-0.2502,0.3588
		c-0.0402,0.2468-0.0114,0.5048-0.0114,0.7582C211.6598,16.5372,212.4202,18.2734,212.8393,20.0803z M26.8022,89.6438
		c-0.0034,0.0106-0.0045,0.0204-0.008,0.031c0.173,0.1736,0.3462,0.3468,0.5196,0.5204l0.0212-0.0212
		c-0.1736-0.173-0.3472-0.3458-0.5206-0.519C26.8099,89.6516,26.8066,89.6473,26.8022,89.6438z M24.9759,84.2605
		c-0.143-0.4766-1.0471-0.7245-1.6017-1.0775c-0.3668,0.7297-0.3548,1.7025,0.119,2.0972c1.4609,1.218,1.8381,3.2012,3.309,4.3636
		C27.5025,87.4268,25.5213,86.0784,24.9759,84.2605z M17.3466,80.6616c-0.1046,0.3109-0.3519,0.6229-0.0505,0.9043
		c0.2712,0.2529,0.6286,0.1465,0.9375,0.0114c0.8289-0.3631,1.3404-1.2937,2.377-1.3033c0.3973-0.0037,0.9966,0.0236,0.9066-0.5508
		c-0.0475-0.304-0.545-0.5375-0.8577-0.8003C19.4032,79.2102,17.9006,79.016,17.3466,80.6616z M20.6594,78.923
		c0.0029-0.0007,0.006-0.001,0.009-0.0017l-0.0009-0.0005c-0.0081-0.0068-0.0172-0.0109-0.0252-0.0177
		c-0.0032-0.0002-0.0064-0.0001-0.0096-0.0004C20.6405,78.9096,20.6512,78.9161,20.6594,78.923z M77.8699,102.4499
		c-0.3217,0.0876-0.6439,0.1742-1.0194,0.2755c-0.7888-0.7231-1.6243-0.1632-2.4427-0.075
		c-0.455,0.0491-0.4795,0.4705-0.1824,0.7527c1.3619,1.2935,3.0057,1.147,4.0584-0.3391c0.0937-0.1318,0.2255-0.3175,0.1942-0.4413
		C78.3909,102.2789,78.1113,102.3843,77.8699,102.4499z M101.9199,2.5118c0.6453,0.3568,1.3229,0.2979,1.8655-0.2148
		c0.5969-0.5642,1.2678-1.0973,1.4508-1.9938c-0.1202-0.1115-0.2634-0.3236-0.3378-0.3016
		c-1.1118,0.3291-2.2981,0.5278-3.2132,1.2884C101.1858,1.7049,101.4068,2.2282,101.9199,2.5118z M107.3307,106.5305
		c-0.3177-0.0735-0.7115-0.1667-0.9781-0.0454c-0.7014,0.3195-2.0142,0.1323-1.8816,1.2236
		c0.1023,0.8416,1.2783,0.4103,1.999,0.6589c0.2875-0.0568,0.6237-0.0878,0.9344-0.1935c0.4031-0.137,0.7914-0.3717,0.7753-0.8566
		C108.1635,106.8211,107.7441,106.626,107.3307,106.5305z M192.4428,88.593c-0.3268-0.3892-0.6541-0.7788-0.9658-1.1801
		c-0.1626-0.2092-0.518-0.4656-0.5812-0.2706c-0.3268,1.0147-1.8922,0.2164-1.8748,1.1095c0.0146,0.7633,1.0502,0.9948,1.827,1.1036
		c0.4183,0.0589,0.8464,0.0458,1.7014,0.085c-0.1868,0.0273,0.1773,0.0758,0.267-0.0589
		C193.0698,89.0015,192.6419,88.8302,192.4428,88.593z M186.2388,4.8145c0.2205-0.0104,0.4815,0.0225,0.7148-0.0436
		c0.4387-0.1241,0.735-0.4291,0.6749-0.9096c-0.0463-0.3707-0.3621-0.5449-0.7081-0.5928
		c-0.2441-0.0338-0.5169-0.0589-0.7431,0.0155c-0.6655,0.218-1.7988,0.1046-1.735,0.9929
		C184.4874,4.9127,185.5989,4.5961,186.2388,4.8145z M90.1771,17.9222c0.6415-0.0775,0.9991-0.5952,1.429-0.9726
		c0.3191-0.2798,1.1818-0.3325,0.7778-0.988c-0.2955-0.4792-0.9237-0.1887-1.3691,0.0538
		c-0.5056,0.2753-1.1393,0.4167-1.3722,1.0231c-0.0734,0.1907,0.0132,0.4786,0.1088,0.684
		C89.802,17.8309,90.029,17.8574,90.1771,17.9222z M45.7745,106.2745c-0.2529,0.0377-0.5261,0.1819-0.4725,0.4713
		c0.0385,0.209,0.2195,0.4398,0.4031,0.5605c0.1948,0.1284,0.4674,0.1386,0.7988,0.2242c0.6612-0.3083,1.5272-0.1777,2.1766-0.7495
		c-0.7215-0.1677-1.4406-0.3478-2.166-0.4962C46.2758,106.2363,46.016,106.2387,45.7745,106.2745z M183.3257,88.9009
		c-0.4173-0.032-0.5353,0.347-0.5416,0.6965c-0.0059,0.3358,0.051,0.6726,0.0803,1.009c-0.0159,0.0009-0.0316,0.0015-0.0475,0.0021
		c0.0344,0.7545,0.0573,1.5099,0.1155,2.2624c0.0102,0.1302,0.173,0.2484,0.2649,0.3719c0.0959-0.1064,0.2626-0.2046,0.2763-0.3209
		c0.1282-1.0863,0.2406-2.175,0.3331-3.2654C183.8363,89.3062,183.7153,88.9309,183.3257,88.9009z M61.3408,91.4072
		c-0.4412,0.0695-0.8464,0.314-0.6832,0.821c0.1748,0.5435,0.7077,0.6588,1.222,0.6091c0.377-0.0363,0.5432-0.3254,0.5447-0.7015
		C62.3132,91.5227,61.9021,91.3188,61.3408,91.4072z M160.7297,99.3646c-0.3631-0.0061-0.584,0.3792-0.5557,0.7338
		c0.0497,0.627,0.3548,1.1668,0.9718,1.3663c0.4668,0.1508,0.5283-0.2557,0.5416-0.6135
		C161.6404,100.1757,161.7223,99.3816,160.7297,99.3646z M193.3157,5.954c0.6653,0.0396,0.6908-0.5375,0.7817-0.9836
		c-0.0163-0.389-0.1426-0.7199-0.5535-0.6679c-0.4762,0.0601-0.6396,0.4623-0.6622,0.8961
		C192.8646,5.5324,192.9485,5.9322,193.3157,5.954z M76.3396,19.2731c0.3802,0.053,0.6618-0.0919,0.736-0.5078
		c-0.0233-0.2936-0.194-0.4807-0.4689-0.5192c-0.3802-0.0532-0.6914,0.0911-0.7283,0.5094
		C75.8532,19.0402,76.0637,19.2348,76.3396,19.2731z M50.195,110.6724c-0.4251,0.0644-0.6443,0.2555-0.6262,0.5019
		c0.0528,0.7137,0.7566,0.7539,1.2147,1.008c0.2137,0.1188,0.4448-0.1866,0.4006-0.4528
		C51.0791,111.0999,50.7407,110.6826,50.195,110.6724z M131.1599,102.5112c0.0099-0.3218-0.0566-0.659-0.1602-0.9663
		c-0.0715-0.2123-0.2766-0.5565-0.3939-0.5455c-0.4426,0.042-0.2997,0.4628-0.3721,0.8149
		c0.0408,0.2655,0.0714,0.5946,0.1461,0.9135c0.0585,0.2513,0.2313,0.5225,0.5009,0.3992
		C131.0397,103.0543,131.1532,102.7276,131.1599,102.5112z M61.0677,17.17c0.4182,0.0738,0.5836-0.2261,0.5771-0.5933
		c-0.0055-0.3169,0.009-0.6702-0.3745-0.8277c-0.3827,0.0595-0.5502,0.3435-0.6321,0.6673
		C60.5459,16.7811,60.6783,17.1012,61.0677,17.17z M209.5503,5.4321c0.2967,0.0687,0.345-0.2305,0.3305-0.5068
		c-0.1644-0.4156-0.2062-1.0076-0.8289-1.0172c-0.2858-0.0043-0.2653,0.3647-0.188,0.595
		C208.991,4.8838,209.1086,5.3301,209.5503,5.4321z M35.4907,94.2946c0.0037,0.0018,0.0072,0.0037,0.0109,0.0054
		c0.0086-0.0114,0.0175-0.0229,0.026-0.0344L35.4907,94.2946z M35.4944,95.484c0.2871,0.1795,0.7238,0.2853,0.8888-0.0196
		c0.3466-0.6392-0.3112-0.7871-0.6718-1.0598c-0.0612-0.0465-0.1386-0.0714-0.2098-0.1046
		C35.2083,94.6883,34.8578,95.0853,35.4944,95.484z M51.967,106.5513c-0.2555-0.076-0.517-0.0088-0.598,0.2447
		c-0.126,0.3943,0.1282,0.5909,0.4901,0.6201c0.248,0.02,0.4568-0.0919,0.5255-0.3655
		C52.383,106.7699,52.2074,106.6226,51.967,106.5513z M69.7005,20.1611c0.3366-0.0332,0.6682-0.1575,0.6309-0.5844
		c-0.0078-0.0884-0.2433-0.1567-0.3745-0.2347c-0.3287,0.0828-0.6619,0.1842-0.631,0.606
		C69.3321,20.0326,69.5776,20.1733,69.7005,20.1611z M137.9371,104.4952c-0.0045,0.009-0.0092,0.0179-0.0136,0.0269l0.0004,0.0002
		c0.0033,0.0171,0.006,0.0343,0.0093,0.0514c0.0075-0.0114,0.0119-0.0232,0.0197-0.0345
		C137.9487,104.5245,137.9417,104.51,137.9371,104.4952z M138.0032,102.7302c-0.0428-0.0424-0.1993-0.0483-0.2327-0.0099
		c-0.5676,0.6498-0.0154,1.1943,0.1666,1.775C138.2222,103.9175,138.6244,103.3433,138.0032,102.7302z M166.3068,87.1677
		c0.0192,0.0055,0.1268-0.1441,0.1092-0.1875c-0.3315-0.8207-1.0301-1.1574-1.8144-1.3759
		C165.0542,86.2516,165.4779,86.931,166.3068,87.1677z M164.6016,85.6043c-0.0107-0.0153-0.0215-0.0306-0.0323-0.046
		c-0.0208-0.0039-0.0386-0.0124-0.0591-0.0167c0.0109,0.016,0.0244,0.0278,0.0351,0.0442
		C164.5647,85.5911,164.5823,85.5989,164.6016,85.6043z M63.3986,20.955c0.2529-0.011,0.5355-0.0063,0.6482-0.2783
		c0.074-0.1779-0.0748-0.3346-0.2794-0.2875c-0.2323,0.0532-0.4941,0.1375-0.6522,0.2979
		C63.0084,20.795,63.1788,20.9593,63.3986,20.955z M191.4203,3.867c0.109,0.009,0.2351-0.1854,0.3535-0.2875
		c-0.0756-0.1339-0.1257-0.3425-0.2341-0.3798c-0.1163-0.0396-0.371,0.0411-0.4197,0.1408
		C190.9873,3.6107,191.1224,3.8424,191.4203,3.867z M95.7835,16.3691c0.1056-0.0341,0.1594-0.2297,0.2358-0.3546
		c-0.1139-0.0978-0.2323-0.2814-0.3399-0.2749c-0.2842,0.0167-0.4214,0.2329-0.2979,0.4948
		C95.4261,16.3289,95.6698,16.4058,95.7835,16.3691z M205.2696,98.5759c-0.2661,0.0035-0.452,0.1921-0.4615,0.4552
		c-0.0106,0.2759,0.1866,0.4493,0.4519,0.4471c0.2631-0.0023,0.4322-0.174,0.4667-0.4493
		C205.6947,98.7562,205.5394,98.5724,205.2696,98.5759z M167.9956,82.0674c0.0634,0.259,0.2788,0.4149,0.541,0.3776
		c0.1031-0.0148,0.1807-0.207,0.4669-0.5638c-0.1936-0.0889-0.4104-0.2502-0.6437-0.2792
		C168.0688,81.5655,167.9284,81.7925,167.9956,82.0674z M140.4459,120.2527c-0.0805,0.1769-0.2396,0.3845-0.2596,0.605
		c-0.0281,0.3124,0.2122,0.4595,0.4481,0.252c0.1512-0.1331,0.2015-0.425,0.2184-0.6518
		C140.867,120.2698,140.6979,120.1921,140.4459,120.2527z M133.1641,118.2148c-0.2802,0.0071-0.4193,0.226-0.347,0.4886
		c0.0332,0.1202,0.2137,0.2836,0.3256,0.282c0.2847-0.0035,0.3878-0.2172,0.3598-0.4917
		C133.3903,118.3953,133.2748,118.212,133.1641,118.2148z M200.4975,87.2589c-0.193-0.0136-0.2539,0.1612-0.1492,0.3525
		c0.162,0.2949,0.381,0.5496,0.7332,0.5777c0.1985,0.0159,0.2512-0.1504,0.1473-0.347
		C201.0472,87.5679,200.854,87.2836,200.4975,87.2589z M100.9983,112.4956c-0.053,0.0611,0.0452,0.3333,0.1475,0.433
		c0.2805,0.2723,0.5948,0.5098,0.8984,0.7585c-0.1484-0.3594-0.2753-0.7311-0.4658-1.0666
		C101.4661,112.4224,101.2237,112.2343,100.9983,112.4956z M102.0442,113.687c0.0078,0.0189,0.0149,0.0381,0.0228,0.0569
		l0.0214-0.0212C102.0738,113.7107,102.0589,113.699,102.0442,113.687z M43.531,105.9267
		c-0.1037-0.0046-0.2759,0.1612-0.3052,0.2773c-0.0247,0.0982,0.1119,0.2372,0.1777,0.3582
		c0.1341-0.0521,0.3369-0.0679,0.3874-0.1636C43.917,106.1586,43.8161,105.939,43.531,105.9267z M46.5213,101.612
		c-0.0292-0.2028-0.1592-0.2755-0.3531-0.2242c-0.0442,0.1441-0.1,0.2863-0.1208,0.4338c-0.004,0.0289,0.1282,0.1086,0.1985,0.1098
		C46.4454,101.9349,46.55,101.8133,46.5213,101.612z M0.9078,57.1554c-0.1002-0.0789-0.1972-0.1628-0.3058-0.2274
		c-0.0118-0.0071-0.1381,0.1094-0.1285,0.1473c0.0305,0.1192,0.1005,0.2286,0.1553,0.3417
		C0.7217,57.33,0.8147,57.243,0.9078,57.1554z M53.1694,87.7993c-0.0108,0.0082,0.0566,0.1192,0.0878,0.1826
		c0.1068-0.0607,0.2134-0.1212,0.3199-0.1818c-0.0314-0.064-0.0626-0.1275-0.0938-0.1909
		C53.377,87.6699,53.2662,87.7256,53.1694,87.7993z M102.6822,107.9945c-0.1206,0.0927-0.3146,0.1673-0.3439,0.2833
		c-0.0454,0.1795,0.1245,0.312,0.3232,0.2576c0.1335-0.0365,0.3152-0.153,0.3419-0.2653
		C103.0467,108.0863,102.8882,107.9823,102.6822,107.9945z M34.2228,88.7843c0.1981-0.2261-0.0764-0.4081-0.2924-0.5057
		c-0.136-0.0612-0.2869-0.0891-0.4329-0.1284c0.0546,0.1407,0.097,0.2892,0.176,0.4147
		C33.8006,88.7672,34.0297,89.005,34.2228,88.7843z M33.4646,88.1419c0.0108,0.0031,0.022,0.0054,0.0329,0.0084
		c-0.0042-0.0108-0.0078-0.0219-0.0121-0.0326L33.4646,88.1419z M41.5853,98.488c0.0591-0.0186,0.1341-0.1096,0.1351-0.1685
		c0.0027-0.2031-0.1186-0.282-0.3234-0.2357c-0.0471,0.057-0.1343,0.1143-0.1343,0.1716
		C41.2632,98.4603,41.388,98.55,41.5853,98.488z M55.6959,111.8186c-0.1329,0.0583-0.2655,0.1163-0.3984,0.1746
		c0.1331,0.0811,0.2596,0.1783,0.4022,0.2352c0.0558,0.0222,0.1889-0.0243,0.2158-0.0762
		C56.0054,111.9765,55.9176,111.8577,55.6959,111.8186z M99.1061,107.0325c-0.0383,0.2038,0.064,0.2729,0.251,0.1688
		c0.0497-0.0277,0.0611-0.1241,0.0903-0.1891c-0.0579-0.0361-0.1188-0.1046-0.1732-0.0999
		C99.2127,106.9179,99.1157,106.981,99.1061,107.0325z M251.029,78.3881c-0.5862-0.3727-1.2372-0.4877-1.9175-0.4836
		C249.6933,78.2923,250.3549,78.3647,251.029,78.3881z M251.029,78.3881c0.0146,0.0093,0.0304,0.0143,0.045,0.024l0.0208-0.0204
		C251.0727,78.391,251.051,78.3888,251.029,78.3881z M118.6436,107.8947c-0.012,0.0146,0.0748,0.1092,0.1159,0.1669
		c0.0909-0.0811,0.1819-0.1622,0.2722-0.2439c-0.0422-0.0579-0.0839-0.1154-0.1259-0.1728
		C118.8158,107.726,118.719,107.8016,118.6436,107.8947z M141.8984,124.6518c-0.042,0.0397-0.0612,0.1485-0.0367,0.1999
		c0.0193,0.0416,0.1202,0.0446,0.1852,0.065c0.0471-0.0551,0.1361-0.1119,0.1335-0.1642
		C142.1701,124.5448,142.0552,124.5036,141.8984,124.6518z M31.8417,86.9264c-0.021,0.0173,0.1204,0.2725,0.2209,0.3865
		c0.0961,0.1093,0.2273,0.1879,0.3474,0.2762c-0.0352-0.1424-0.0567-0.2925-0.1259-0.4155
		C32.1925,87.0115,32.1593,86.6658,31.8417,86.9264z M159.3294,89.6002c-0.0204,0.0383,0.032,0.1155,0.0524,0.1756
		c0.0607-0.0232,0.15-0.0308,0.1732-0.0739c0.0206-0.0381-0.033-0.116-0.0538-0.1763
		C159.4413,89.5491,159.3523,89.557,159.3294,89.6002z M203.4399,11.1144c-0.3234-0.2356-0.3527,0.0819-0.4143,0.2706
		c-0.0432,0.1328-0.041,0.2807-0.0517,0.4243c0.1151-0.0911,0.2452-0.1716,0.326-0.2867
		C203.383,11.4041,203.4765,11.1411,203.4399,11.1144z M155.3044,86.614c-0.5425,0.0049-1.0407,0.1438-1.472,0.4855
		C154.4526,87.3383,154.9548,87.2123,155.3044,86.614z M153.8017,87.12c0.0098-0.0081,0.0208-0.0128,0.0307-0.0206
		c-0.0186-0.0072-0.0349-0.0069-0.0537-0.0147L153.8017,87.12z M155.3044,86.614c0.0135-0.0001,0.0262-0.0026,0.0398-0.0026
		c0.0027-0.0098,0.0049-0.0198,0.0076-0.0297c-0.009,0.0003-0.0159,0.0029-0.025,0.0032
		C155.3202,86.597,155.3113,86.6022,155.3044,86.614z M35.4909,94.2944l0.0367-0.0287c-0.0139-0.0043-0.0273-0.0098-0.0413-0.0142
		C35.4878,94.2658,35.4894,94.28,35.4909,94.2944z M35.0709,93.8204c-0.0187,0.2725,0.1981,0.3616,0.4154,0.431
		c-0.0223-0.2093-0.0449-0.4186-0.0671-0.6282C35.2973,93.6885,35.076,93.7473,35.0709,93.8204z M124.7109,5.6714l-0.1642-0.028
		l0.0515,0.1527L124.7109,5.6714z M212.7804,23.6464c0.0699,0.2402,0.1924,0.2527,0.3,0.0308
		c0.0287-0.0595,0.0059-0.1734-0.0369-0.2278c-0.0314-0.0397-0.1345-0.0231-0.2054-0.0312
		C212.8169,23.4946,212.7615,23.5814,212.7804,23.6464z M43.115,101.3082c-0.0679,0.021-0.1929,0.0402-0.1935,0.0636
		c-0.0041,0.1302,0.0214,0.2616,0.0369,0.3925c0.0676-0.0234,0.192-0.0441,0.1932-0.0706
		C43.1576,101.5662,43.1307,101.4365,43.115,101.3082z M163.0548,84.579c-0.0108-0.0159-0.0244-0.0275-0.0349-0.0438
		c-0.0101-0.0024-0.0205-0.0043-0.0307-0.0067c0.0008,0.0125,0.0056,0.0217,0.0062,0.0344
		C163.0164,84.5665,163.0341,84.575,163.0548,84.579z M164.5102,85.5416c-0.3544-0.5192-0.8369-0.8439-1.4554-0.9626
		C163.4089,85.0982,163.8978,85.4135,164.5102,85.5416z M174.4609,0.9326l-0.1832,0.0039l0.1059,0.152L174.4609,0.9326z
		 M179.9061,0.9617l-0.1597-0.0295l0.0436,0.1501L179.9061,0.9617z M202.5962,7.7755l-0.1444,0.0118l0.0809,0.1147L202.5962,7.7755z
		 M109.206,10.8403l-0.1384,0.0393l0.1121,0.1082L109.206,10.8403z M165.5482,84.5142l-0.0412-0.142l-0.11,0.1147L165.5482,84.5142z
		 M221.2518,85.2092l0.1434-0.0409l-0.1161-0.1117L221.2518,85.2092z M163.2224,88.4498l0.1481-0.0435l-0.1269-0.077
		L163.2224,88.4498z M161.2909,88.9871l0.0477,0.1673l0.1298-0.1341L161.2909,88.9871z M27.3138,90.1954
		c0.0184,0.0183,0.0368,0.0367,0.0552,0.055c-0.0099-0.0269-0.0253-0.0483-0.0341-0.0764L27.3138,90.1954z M28.2837,91.1617
		c-0.3049-0.3038-0.6099-0.6075-0.9147-0.9113C27.5325,90.6949,27.8499,90.9862,28.2837,91.1617z M193.3099,90.6879l0.1314-0.1552
		l-0.2051-0.0312L193.3099,90.6879z M58.4202,96.8435l0.1398-0.1474l-0.1946-0.0354L58.4202,96.8435z M130.6236,105.5312
		l0.1312-0.0906l-0.1321-0.0669L130.6236,105.5312z M99.5265,108.5378l0.1288,0.065l-0.0121-0.1472L99.5265,108.5378z
		 M86.4331,5.7576c-0.0711-0.0245-0.1424-0.0487-0.2135-0.0732l-0.0216,0.021C86.2764,5.7227,86.3548,5.7402,86.4331,5.7576z
		 M259.2918,60.9864l-0.02,0.0196c0.0709,0.0167,0.1416,0.0334,0.2125,0.0501C259.4201,61.0328,259.356,61.0096,259.2918,60.9864z
		 M248.8431,77.8313c0.0646,0.0234,0.1288,0.0473,0.1935,0.0709c0.0252-0.0005,0.0496,0.0024,0.0748,0.0023
		c-0.0171-0.0114-0.0358-0.0168-0.0527-0.0287C248.987,77.8611,248.915,77.8462,248.8431,77.8313z M187.086,87.1004
		c-0.344-0.1696-0.6877-0.3393-1.0317-0.5086l-0.0169,0.019c0.3445,0.1681,0.6891,0.336,1.0339,0.5041L187.086,87.1004z
		 M32.4418,87.6119c-0.0103-0.0079-0.0213-0.0151-0.0318-0.0228c0.0038,0.0156,0.0067,0.0317,0.011,0.047
		c0.3477,0.1687,0.6954,0.3372,1.0435,0.5059l0.0209-0.0244c-0.3478-0.1685-0.6954-0.3372-1.0435-0.506L32.4418,87.6119z
		 M157.5848,95.8734c-0.0673-0.0233-0.1343-0.0465-0.2017-0.0693c-0.0132,0.0042-0.0233,0.0117-0.0364,0.0161
		c0.0048,0.0033,0.0095,0.0067,0.0143,0.0099C157.4357,95.8446,157.5102,95.8589,157.5848,95.8734z M156.3581,96.8288
		l-0.0208,0.0247c0.0743,0.0171,0.1489,0.034,0.2233,0.0509C156.4933,96.8791,156.4258,96.8541,156.3581,96.8288z M28.8601,91.7061
		c-0.1703-0.1714-0.3409-0.3425-0.5115-0.5137c-0.0233-0.0085-0.0422-0.0215-0.0649-0.0308
		c0.0159,0.0159,0.0319,0.0318,0.0479,0.0477c0.1711,0.1703,0.3421,0.3409,0.5133,0.5117c0.1699,0.171,0.34,0.3419,0.5102,0.5131
		l0.0181-0.0183C29.2022,92.046,29.0311,91.876,28.8601,91.7061z M29.3551,92.2341c0.1699,0.1722,0.3399,0.345,0.51,0.5174
		l0.0253-0.0253c-0.1724-0.1702-0.3447-0.3401-0.5172-0.5101L29.3551,92.2341z M20.3016,73.5541
		c0.0357,0.0383,0.1614,0.0356,0.2154,0.0022c0.0499-0.0305,0.0591-0.1273,0.0862-0.1948
		c-0.0613-0.0432-0.1288-0.1298-0.1826-0.1219C20.206,73.2711,20.1579,73.399,20.3016,73.5541z"/>
</g>
</svg>
