<?xml version="1.0" encoding="utf-8"?>
<!-- Generator: Adobe Illustrator 21.0.0, SVG Export Plug-In . SVG Version: 6.00 Build 0)  -->
<svg version="1.1" id="B1_Brush_Frame_6" xmlns="http://www.w3.org/2000/svg" xmlns:xlink="http://www.w3.org/1999/xlink" x="0px"
	 y="0px" viewBox="0 0 243.7687 181.4569" enable-background="new 0 0 243.7687 181.4569" xml:space="preserve">
<g id="P">
	<path id="b1-brush-frame-6-p" fill="#FF4568" d="M144.4933,53.8664c0.0024-0.0111,0.0056-0.0219,0.0081-0.033
		c-0.0093,0.0042-0.0153,0.0113-0.0247,0.0154L144.4933,53.8664z M109.9744,7.6798c0.0029-0.0054,0.0049-0.0089,0.0078-0.0142
		c-0.0092-0.0021-0.0179-0.0046-0.0271-0.0067L109.9744,7.6798z M114.9679,70.4712c0.0013-0.0013,0.0031-0.002,0.0043-0.0033
		c-0.0084-0.0038-0.0128-0.0112-0.0214-0.0149L114.9679,70.4712z M51.7543,73.1583c0.0085-0.0017,0.0168-0.0046,0.0253-0.0063
		l-0.0172-0.0134C51.7595,73.146,51.7571,73.151,51.7543,73.1583z M156.2758,74.4791c-0.0012,0.0029-0.0026,0.0056-0.0037,0.0085
		c0.0078,0.0043,0.0157,0.0086,0.0235,0.0129L156.2758,74.4791z M34.4011,129.7348c0.0021-0.0073,0.0026-0.0132,0.0047-0.0204
		c-0.0076,0.0008-0.0148,0.0009-0.0223,0.0017L34.4011,129.7348z M215.2327,73.5407c0.0155-0.0015,0.0306-0.0052,0.0461-0.0065
		c0.03-0.021,0.06-0.042,0.09-0.0629c-0.0375,0.0117-0.0735,0.0261-0.1107,0.0385
		C215.2504,73.5208,215.2404,73.5297,215.2327,73.5407z M203.4535,79.2272c-1.0344,0.5847-2.2498,0.9177-3.2746,1.5917
		c-0.8296,0.5457-1.6367,1.1254-2.4732,1.6599c-0.3085,0.1971-0.7468,0.4734-1.0303,0.1357
		c-0.3311-0.3939,0.1182-0.6719,0.401-0.888c0.6071-0.4637,1.2803-0.8472,1.853-1.3478c1.6987-1.4849,3.7993-2.501,5.1535-4.3878
		c-2.0287,1.0081-4.0247,2.0902-6.0975,2.9969c-2.3555,1.0304-4.0892,2.9373-6.2921,4.1898
		c-5.8449,3.3239-11.8498,6.3768-17.3184,10.3477c-1.4643,1.0631-3.2316,1.7452-4.9255,2.4427
		c-1.0844,0.4468-1.3848,0.1287-1.3082-1.088c0.0259-0.4091,0.1025-0.7828-0.3654-0.9518
		c-0.3973-0.1433-0.7698-0.0292-1.0248,0.3008c-0.3632,0.4694-0.4466,1.206-1.1579,1.3394
		c-2.2523,0.4224-4.0674,1.9883-6.3411,2.3765c-0.8966,0.1531-1.8122,0.418-2.6192,0.8292
		c-2.3138,1.1794-4.8634,1.7712-7.1508,3.0433c-1.3188,0.7338-2.8627,1.0815-4.3292,1.5239
		c-0.7148,0.2159-1.6387,0.4977-2.1387-0.2163c-0.5353-0.7644,0.6326-0.85,0.8336-1.3641c0.0736-0.1889,0.0908-0.4508,0.0186-0.6336
		c-0.0931-0.2347-0.3667-0.2668-0.5918-0.1827c-0.2855,0.1069-0.6054,0.2046-0.8208,0.4035
		c-1.483,1.3704-3.2192,1.1763-4.9822,0.8533c-1.1568-0.2119-1.3378-0.5585-0.5201-1.4285c1.9873-2.1151,3.8599-4.4124,6.1472-6.152
		c2.8006-2.1306,4.7883-4.9801,7.3234-7.3218c0.7192-0.6646,1.199-1.5834,1.8231-2.3575c0.4316-0.5353,0.6495-0.265,0.9869,0.2106
		c0.4767,0.6711,0.31,1.0817-0.2261,1.5566c-0.7437,0.6584-1.5723,1.2361-2.119,2.0933c-0.0793,0.1241-0.1948,0.3332-0.1464,0.4113
		c0.174,0.279,0.3906,0.1,0.5554-0.0408c0.3494-0.2987,0.6972-0.6024,1.0181-0.9307c1.4444-1.4775,2.902-2.9434,4.3042-4.46
		c0.447-0.4838,1.6606-0.6502,1.3382-1.3152c-0.4847-0.9995-1.4725-0.2151-2.2333-0.0182
		c-0.4422,0.1142-0.8662,0.3094-1.2863,0.4949c-0.5598,0.2471-1.0944,0.5755-1.7363,0.5414
		c-0.4535-0.0242-1.0363,0.0205-1.2126-0.4543c-0.2039-0.5493,0.3604-0.8073,0.7522-0.9673c1.6384-0.6681,2.97-1.8976,4.6519-2.4874
		c0.4913-0.1724,1.0595-0.456,1.0336-1.0947c-0.023-0.5677-0.5966-0.5822-1.0129-0.7522c-1.483-0.6054-1.5179-0.6843-1.0706-2.1852
		c0.108-0.3626,0.2842-0.7047,0.4298-1.056c-0.3015-0.1658-0.6026-0.3318-0.9034-0.4976l0.0215,0.023
		c-2.8378,1.171-5.5171,2.5935-7.9022,4.5714c-1.1873,0.9847-1.2487,0.8705-2.3118-0.2439
		c-1.1949-1.2522-2.3542-2.6788-4.3461-1.2202c-0.2839,0.2081-0.7324,0.1978-1.1076,0.274
		c-0.8192,0.1672-1.7164,0.5167-2.3798-0.2299c-0.6909-0.7773,0.1096-1.392,0.4046-2.0563c0.0809-0.182,0.0977-0.4671,0.0092-0.6324
		c-0.1238-0.2308-0.3949-0.1498-0.5989-0.0416c-1.0085,0.5361-2.0624,1.0064-3.005,1.6407
		c-0.9271,0.624-1.7095,0.7332-2.7504,0.1902c-1.7994-0.939-3.05-0.5681-4.3857,1.0137c-0.3911,0.463-0.8334,0.8829-1.2528,1.3219
		c-0.2339-0.5243-0.1248-1.1951-0.6868-1.5809c-0.5012-0.3442-0.5223-0.7863-0.0228-1.0761
		c1.8882-1.0953,3.154-2.9437,5.0018-4.0798c-1.1055-0.0516-1.9739,0.4194-2.8253,1.1167c-1.3495,1.1052-2.6071,2.559-4.2849,2.9644
		c-2.354,0.569-4.2922,1.8641-6.3969,2.8753c-0.3418,0.1642-0.6859,0.3475-1.0497,0.437c-0.4658,0.1147-1.0662,0.0517-1.1938-0.4102
		c-0.363-1.3127-1.1612-1.1592-2.1185-0.8224c-0.3533,0.1243-0.8027,0.1736-0.9846-0.27c-0.1744-0.4257,0.177-0.7065,0.4619-0.9556
		c0.7484-0.6542,1.7735-1.2941,1.8975-2.2159c0.2101-1.5652,1.3334-2.2525,2.2772-3.1625c0.0005,0.0016,0.0019,0.0026,0.0024,0.0043
		c1.1725-0.4933,1.996-1.3001,2.6292-2.4366c0.8594-1.5421,1.971-2.924,3.6215-3.7313c1.4254-0.6976,2.4537-1.8216,3.2758-3.1256
		c1.3869-2.199,3.0255-4.231,4.2706-6.5264c0.381-0.7024,0.8631-1.718,1.907-1.1307c1.2451,0.7001,1.817,0.1406,2.3448-0.8541
		c0.1069-0.2011,0.3234-0.4012,0.5531-0.2904c0.3531,0.1701,0.3098,0.5799,0.1247,0.7753c-1.2317,1.3007-1.0727,3.1623-1.904,4.6186
		c-0.0615,0.1077-0.0624,0.3433,0.0111,0.4171c0.2127,0.2136,0.4156,0.0454,0.5298-0.1396c1.1025-1.7856,1.7212-3.8931,3.496-5.2297
		c-0.0328-1.4056,1.8253-1.8605,1.68-3.3524c-0.0281-0.2881,0.3643-0.489,0.6811-0.5204c0.9543-0.095,1.5199-0.6125,1.8153-1.5091
		c0.1362-0.4135,0.5267-0.5893,0.9252-0.4857c0.9405,0.2441,1.5553-0.1596,2.2396-0.7698c0.5408-0.4822,1.3413-0.6788,2.0374-0.9766
		c0.1128-0.0483,0.3249-0.0098,0.4186,0.0718c0.1981,0.1722,0.1841,0.4435,0.0264,0.6175c-0.738,0.815-1.571,1.8348-1.3853,2.8048
		c0.2972,1.5536-0.3351,2.8102-0.6376,4.1817c0.9108-0.4116,1.3703-1.2465,1.6199-2.0997c0.4732-1.6199,1.1183-3.1767,1.6128-4.7818
		c0.3341-1.0855,0.522-2.2479,0.2483-3.4033c-0.1418-0.5997-0.4562-1.0449-1.1279-0.6031c-0.6493,0.4268-1.5381,0.9813-2.0262,0.504
		c-0.4583-0.4483,0.4669-1.1434,0.7159-1.7595c0.2822-0.6987,0.4572-1.433,1.1926-1.8948c1.0834-0.6801,1.1842-1.8425,0.8315-2.8709
		c-0.7353-2.1442-2.5446-3.5593-3.9213-5.2673c-0.0399-0.0488-0.1418-0.0513-0.2163-0.0673
		c-1.4841-0.3201-2.8729-0.7481-3.8323-2.1024c-0.2956-0.4173-0.9104-0.188-0.9717,0.4113c-0.0619,0.6017,0.0632,1.22,0.0663,1.8314
		c0.0031,0.6901-0.0203,1.3886-0.4129,1.9965c-0.4058,0.6286-0.9851,0.9562-1.7453,0.8807
		c-0.7966-0.0792-0.9137-0.6587-0.9775-1.3162c-0.1211-1.248-0.8924-2.2651-1.2831-3.421c-0.1163-0.3445-0.336-0.8621-0.7043-0.83
		c-0.5812,0.051-0.4688,0.6888-0.576,1.1058c-0.1339,0.5184-0.2003,1.0558-0.355,1.5672c-0.055,0.1805-0.2736,0.414-0.437,0.4305
		c-0.1724,0.0176-0.4295-0.1517-0.5435-0.3138c-0.5001-0.7114-0.6456-1.544-0.725-2.3906
		c-0.0735-0.7832-0.3182-1.4961-0.8646-2.0823c-0.4744-0.5091-0.975-0.402-1.142,0.2895c-0.1209,0.4996,0.0644,1.3824-0.5347,1.3539
		c-1.4064-0.0669-2.1699,1.0238-3.2261,1.5345c-1.1771,0.5694-2.7901,0.8326-2.9908,2.6144
		c-0.0355,0.3157-0.3372,0.5269-0.6457,0.584c-1.0991,0.2032-1.6191,0.6529-1.2024,1.8992c0.2527,0.757-0.3205,1.307-1.0475,1.5373
		c-0.711,0.2255-1.1944-0.1215-1.4331-0.7853c-0.4651-1.2925-1.4011-2.1647-2.4967-2.9136
		c-0.2476-0.1692-0.4744-0.3885-0.6572-0.6263c-0.1423-0.1852-0.132-0.4454,0.059-0.6135c0.0989-0.0872,0.304-0.1663,0.4033-0.1215
		c0.4133,0.1882,0.7913,0.4548,1.2072,0.6361c0.5694,0.2488,0.8451-0.0466,0.9445-0.5939c0.2678-1.4758-0.6129-2.465-2.0463-2.1254
		c-0.6859,0.1624-1.4816-0.0531-2.0019,0.2761c-0.901,0.5699,0.0989,1.3463,0.0711,2.059c-0.0414,1.049-0.1138,2.0961-1.1917,2.522
		c-0.9234,0.365-1.8517,0.3822-2.6965-0.5395c-0.9685-1.0559-1.1068-0.9644-2.1393,0.4054
		c-0.3043-0.0386-0.788-0.0865-0.7487-0.3512c0.1729-1.1617-0.5464-1.4137-1.4167-1.5821c-0.3004-0.058-0.6012-0.1177-0.8972-0.1946
		c-0.3203-0.0832-0.5673-0.2669-0.5102-0.6334c0.0523-0.3368,0.3159-0.5397,0.6315-0.5788c0.5276-0.0649,1.066-0.046,1.5938-0.1115
		c0.2339-0.0292,0.4458-0.2451,0.3859-0.4882c-0.046-0.1855-0.2339-0.387-0.4116-0.4753c-0.1916-0.095-0.4481-0.1056-0.6703-0.0861
		c-1.8019,0.1584-3.5875,0.9346-5.4188,0.1044c-0.1525-0.0692-0.4209,0.1147-0.6347,0.1835
		c-2.6713,0.8619-5.3104,1.753-8.2196,1.4631c-1.4863-0.1479-1.4907,0.046-1.6151-1.4164c-0.123-1.4474,0.6909-2.4674,1.5995-3.392
		c0.5834-0.5935,1.3062-1.07,2.0208-1.5109c1.7551-1.0825,3.3644-2.4383,5.3199-3.149c1.0898-0.3964,2.4782-0.1431,2.8485-1.7494
		c0.0837-0.3627,0.6483-0.3021,1.0099-0.4115c1.0026-0.3024,2.2655-0.5784,2.687-1.4685c0.9945-2.1011,3.4208-2.2,4.7281-3.771
		c2.395-0.324,3.8327-2.0678,5.4073-3.6225c0.8834-0.8721,1.8578-1.6113,3.1951-1.6207c0.2261-0.0017,0.4629-0.0381,0.6749-0.114
		c0.3642-0.1301,0.7662-0.3288,0.6928-0.7776c-0.082-0.5012-0.5598-0.5327-0.9099-0.3813c-1.1112,0.4813-2.4241,0.433-3.3757,1.3507
		c-0.4537,0.4376-1.0789,0.5713-1.7161,0.5186c-0.5119-0.0422-1.0357-0.3292-0.8453-0.8311
		c0.4774-1.2585-0.3878-1.7977-1.0985-2.4567c-0.9125-0.8455-0.9177-0.8463-1.6263,0.4697
		c0.6485,0.1483,1.2609,0.3741,0.7249,1.1942c-0.4183,0.6403-0.999,1.1735-1.691,1.527c-0.6596,0.337-1.2468-0.0701-1.2016-0.8259
		c0.0176-0.2955,0.1635-0.5847,0.2571-0.8748c0.0975-0.3021,0.1582-0.6169-0.0997-0.8531c-0.2703-0.248-0.5612-0.0977-0.8361,0.0464
		c-1.2959,0.6792-2.6052,1.3593-3.2698,2.765c-0.5663,1.1978-1.4407,1.4183-2.6541,1.0989
		c-0.8817-0.2312-1.8042-0.2801-2.6901-0.5612c-0.8533-0.2707-1.6858-0.0323-2.3542,0.5696
		c-0.5225,0.4708-0.5675,1.1154-0.2309,1.6812c0.3125,0.5259,0.8141,0.2874,1.1961,0.0226
		c1.0646-0.7372,1.9929-0.6755,2.7943,0.3908c0.4922,0.6553,1.1882,0.5516,1.886,0.5476c1.1484-0.0067,2.3017,0.0026,3.4434,0.1084
		c0.6939,0.0644,0.8568,0.4387,0.4525,1.1229c-0.5381,0.9106-1.645,1.1583-2.1843,1.9739
		c-0.7686,1.1629-1.7072,1.2798-2.9791,1.0292c-1.3323-0.2628-2.8118-1.226-4.0245,0.3487
		c-0.0582,0.0759-0.3282,0.0906-0.4182,0.024c-1.1915-0.8842-2.1847-0.0215-3.2183,0.3654
		c-0.4365,0.1632-0.8439,0.3799-1.3198,0.2165c-1.5647-0.537-3.0526-0.1071-4.4713,0.4755
		c-2.568,1.0552-5.2579,1.5807-7.9637,2.0908c-1.1865,0.2236-2.4388,0.16-3.5413,0.7935c-2.2553,1.2961-4.7529,1.6639-7.2914,1.777
		c-1.361,0.0609-2.5554,0.4446-3.5911,1.3191c-0.5345,0.4515-1.0859,0.8443-1.8221,0.8897
		c-2.0891,0.1289-3.9555,1.1173-5.9641,1.5616c-0.6824,0.1512-1.2413,0.5184-1.7952,0.9664
		c-1.6365,1.3233-3.9554,1.4618-5.4531,3.0784c-0.1512,0.163-0.588,0.0762-0.8924,0.0797
		c-1.4969,0.0176-2.7139,0.7993-3.5505,1.8505c-1.6166,2.0308-4.0015,2.7657-6.0917,3.9861
		c-0.62,0.3621-1.5309,0.5382-2.2264,0.3964c-1.6739-0.341-2.7897,0.2914-3.7949,1.5244c-0.4753,0.583-1.1141,1.0547-1.7419,1.485
		c-0.584,0.401-1.1206,0.7947-1.3409,1.5048c-0.2841,0.9153-0.8611,0.9813-1.7784,0.8874c-2.1623-0.2207-2.575,0.0947-3.3825,2.1856
		c-0.3904,1.0106-0.9686,1.6961-2.0446,1.9693c-1.0103,0.2565-1.7186,0.9423-2.3412,1.7598
		c-0.98,1.2861-2.0695,2.4925-3.4547,3.3443c-3.2916,2.0237-5.9027,4.8274-8.6719,7.4498
		c-0.7851,0.7437-1.0637,1.6706-0.6833,2.7303c0.2775,0.7745,0.2874,1.4971-0.3587,2.1097
		c-0.6604,0.3983-0.9752,0.9523,0.0058,1.1794c1.0265,0.238,2.1459,0.2039,3.1949-0.063c1.0064-0.2563,1.9923-0.5052,2.7192,0.4899
		c0.7045,0.9648,0.3634,1.8844-0.2782,2.7451c-0.0458,0.0613-0.0873,0.1272-0.1191,0.1964
		c-0.1004,0.2192-0.1617,0.4865,0.0697,0.6093c0.1736,0.0919,0.4483,0.0843,0.6449,0.0201c0.2855-0.0937,0.5414-0.278,0.8096-0.4246
		c1.2664-0.6926,1.347-0.7577,2.3375,0.476c0.9422,1.1735,2.0207,1.7742,3.5275,1.6174c0.4537-0.0472,0.9185,0.0251,1.3785,0.0362
		c2.1471,0.0498,4.2921,0.037,6.2834,1.0803c0.8713,0.4568,1.8122,0.1292,2.6895-0.1422c0.5821-0.1799,1.1214-0.4931,1.695-0.7062
		c2.189-0.8126,2.4829-0.6746,3.3275,1.5472c0.255-0.2733,0.4772-0.5914,0.7748-0.8062c2.9897-2.1588,5.8897-4.5348,10.0074-3.7167
		c1.362,0.2707,1.379,0.1855,0.9509,1.5977c-0.4265,1.4081,0.2163,2.3523,2.0117,2.9552c1.4703,0.4944,1.7639,0.3335,2.4065-1.3306
		c-0.8538,0.1741-1.6578,0.7652-2.5891,0.2947c-0.2762-0.1393-0.545-0.2924-0.6211-0.6093c-0.1027-0.429,0.1565-0.71,0.4757-0.9313
		c1.1027-0.7646,2.0186-0.5418,3.2316,0.7735c0.7064,0.0966,1.3087,0.3612,1.7696,0.9458c0.328,0.4158,0.7209,0.7827,1.1024,1.153
		c0.3046,0.2957,1.0185,0.237,0.9214,0.8501c-0.0759,0.4772-0.6052,0.6799-1.0116,0.8558c-1.634,0.7073-2.3042,2.1567-2.914,3.6639
		c-0.1125,0.2781-0.3173,0.6066,0.0224,0.8174c0.2925,0.1818,0.6102-0.0281,0.8351-0.2253c0.6319-0.5523,1.2233-1.1506,1.8552-1.703
		c0.3447-0.3018,0.7853-0.6276,1.1987-0.1968c0.4091,0.4259,0.0353,0.8399-0.2174,1.2191
		c-0.5687,0.8533-1.3141,1.4498-2.2935,1.8155c-1.0414,0.3889-1.9268,0.4443-2.6282-0.5889
		c-0.1956-0.2881-0.3416-0.8219-0.8255-0.5916c-0.3847,0.183-0.3,0.6611-0.2637,1.0361c0.0443,0.4568,0.1462,0.9081,0.1815,1.3651
		c0.0644,0.8338-0.2245,1.5543-0.9813,1.9272c-2.6447,1.3035-4.4856,4.025-7.6849,4.3515
		c-0.2126,0.0216-0.4182,0.1835-0.6115,0.3052c-0.42,0.2638-0.7783,0.6539-0.4784,1.1299c0.8613,1.367,0.0056,1.9427-1.0419,2.4615
		c-1.1112,0.55-2.0682,1.6993-3.5466,0.8165c-0.2402-0.1435-0.6286,0.2843-0.3477,0.5623c0.7062,0.6993,1.0945,1.7047,1.9898,2.1952
		c0.8489,0.4651,0.596,0.9213,0.1124,1.4296c-0.3157,0.3318-0.6044,0.7327-0.9916,0.9449
		c-2.0034,1.0985-3.8259,2.4839-5.7918,3.6261c-0.7911,0.4595-1.1376,0.9167-1.1342,1.7568
		c0.002,0.5353-0.0408,1.0716-0.0255,1.6063c0.0283,0.9874,0.3105,1.1827,1.2819,0.946c0.765-0.186,1.3913-0.6142,1.9998-1.0887
		c0.4395-0.3423,0.9175-0.6027,1.4529-0.173c0.3905,0.3133,0.5909,0.7166,0.3798,1.2087c-0.2288,0.5326-0.2021,1.0281,0.0517,1.5438
		c0.3663,0.7451,0.1234,1.2493-0.5546,1.7382c-1.2047,0.8688-2.1912,1.9163-1.9469,3.6064
		c0.0596,0.4121-0.2468,0.6721-0.4782,0.9846c-0.9939,1.3428-0.7899,2.2892,0.6373,3.1184c0.528,0.3071,1.0851,0.5633,1.6282,0.8439
		c0.4822,0.2487,0.4851,0.5587,0.0759,0.8673c-1.0953,0.8261-2.0815,1.7908-3.2843,2.4839
		c-0.6905,0.3977-1.2292,0.9792-0.926,1.8848c0.2761,0.8234,0.9236,1.1775,1.7618,1.2253c0.0764,0.0044,0.1538-0.0023,0.2295,0.0073
		c2.5554,0.3278,3.3996,1.7027,2.6465,4.3021c0.6495-0.0667,1.2029,0.0228,1.4209,0.7812c0.1965,0.6823-0.282,0.9133-0.7058,1.2683
		c-1.3943,1.1681-1.3806,1.7457,0.0555,2.7949c0.3719,0.2715,0.8597,0.4387,0.9721,0.9139
		c0.6192,2.6151,2.9805,3.3004,4.9004,4.4747c0.4847,0.2964,0.9965,0.3437,1.5425,0.1465c0.4268-0.1539,0.9179-0.3659,1.2457,0.1307
		c0.2888,0.4372,0.038,0.8809-0.1586,1.2972c-0.3785,0.8032-0.9087,1.1875-1.8358,0.7857c-0.329-0.1425-0.7765-0.2086-1.1082-0.1075
		c-0.7975,0.2441-1.6562,0.4763-2.3073,0.9597c-0.6882,0.5106,0.1218,1.2773,0.0157,1.9346
		c-0.035,0.2171-0.0722,0.4897-0.215,0.6217c-0.2964,0.2744-0.5502,0.0305-0.7513-0.2004
		c-0.5621-0.6459-1.2269-0.9738-2.0209-0.4838c-0.8215,0.507-1.3708,1.2234-1.2938,2.2678
		c0.0685,0.9305,0.2799,1.8041,0.8627,2.5743c0.2632,0.3481,0.1943,0.7489-0.2372,0.9572
		c-0.5167,0.2493-1.0943,0.3707-1.3627-0.2949c-0.1948-0.4824-0.2864-1.0416-0.2767-1.5635
		c0.0165-0.9005-0.5008-0.8326-1.0495-0.6395c-2.1238,0.7466-4.3897,1.188-6.1365,2.7685c1.8813-0.3459,3.661,0.2026,5.2252,1.0602
		c1.6354,0.8964,2.9968,0.861,4.4935-0.106c1.0838-0.7001,2.1831-1.4001,3.3463-1.9505c3.6233-1.7139,7.619-1.3461,11.4463-1.924
		c0.5062-0.0764,1.1294-0.014,1.5676,0.2244c1.0276,0.5588,1.8777,0.268,2.8102-0.2126c0.7989-0.4116,1.6332-1.1204,2.5598-0.7853
		c1.003,0.3625,1.5657,0.1224,2.0948-0.7125c0.2161-0.3408,0.676-0.3793,1.0237-0.1174c0.341,0.257,0.3699,0.6541,0.2462,1.0421
		c-0.146,0.4577-0.4594,0.8016-0.8749,1.0206c-0.6089,0.3209-1.2328,0.615-1.8619,0.8951c-3.0861,1.3743-6.0724,2.8926-8.147,5.7045
		c-0.2818,0.3818-0.4883,0.7773-1.0744,0.6003c-0.8138-0.2458-1.1667,0.2406-1.2361,0.9279
		c-0.2036,2.0099-1.4681,3.4014-2.6802,4.849c-0.6133,0.7328-1.2137,1.3857-2.2678,1.3149
		c-0.6983-0.0469-1.1457,0.3192-1.4794,0.8911c-0.2347,0.4029-0.5287,0.7911-0.9976,0.9016
		c-1.0403,0.2452-1.8007,0.5745-1.0095,1.8367c0.2258,0.3602-0.0115,0.7217-0.2642,1.0388
		c-0.4288,0.5381-0.888,1.0641-1.2303,1.6555c-0.4639,0.8008-0.7857,1.4022-1.8983,0.6592
		c-0.7305-0.4876-1.6183,0.3113-1.1501,0.8611c0.741,0.8702,0.1575,1.1562-0.3159,1.64c-1.1769,1.2006-2.3405,2.4147-3.4966,3.6351
		c-0.254,0.2684-0.7361,0.7512-0.5119,0.9179c0.7918,0.5901,0.4813,1.5583,0.9401,2.2168c0.2429,0.3487,0.7209,0.5184,0.9964,0.1981
		c0.9627-1.12,2.1331-0.9659,3.3771-0.7493c1.2344,0.2147,1.2508,0.1743,1.5051-1.3644c0.4359,0.1111,0.8842,0.1888,1.304,0.3436
		c1.5718,0.5805,1.863,1.0417,1.7785,2.8115c-0.0197,0.4123,0.0211,0.7817,0.4185,0.9658c0.4192,0.1943,0.7129-0.0778,0.975-0.3704
		c0.5615-0.6271,1.1629-1.4729,2.0864-0.8964c1.3204,0.8246,2.4583,0.237,3.3983-0.423c1.8044-1.2672,3.8226-2.226,5.4487-3.7524
		c0.3265-0.3065,0.7228-0.5742,1.1346-0.7453c0.4598-0.191,0.9286-0.1713,0.9341,0.5353c0.0053,0.6754,0.0066,1.351,0.0096,2.0266
		c1.2682-0.2738,2.0204-1.3406,2.9911-2.0422c4.5948-3.3217,8.8101-7.1064,12.9534-10.9698
		c1.2305-1.1476,2.3591-2.4117,3.9504-3.1144c0.8702-0.3845,1.5909-1.0123,1.7678-1.9894c0.2529-1.4012,1.3091-2.0178,2.3865-2.6042
		c0.6688-0.3644,1.4183-0.5782,2.1193-0.8876c0.6292-0.2778,1.3583-0.5159,1.5837-1.2371c0.5416-1.736,1.9412-2.4789,3.4359-3.1485
		c1.5372-0.6888,3.0477-1.4296,4.608-2.0776c1.8948-0.7869,3.7764-1.7076,5.4691-2.8571c2.601-1.7666,5.2858-3.408,8.0604-4.8326
		c4.1586-2.1352,8.1729-4.5461,12.4042-6.5289c2.2732-1.0648,4.2892-2.7358,6.8942-3.0538l-0.0201,0.0186
		c0.0216,0.0179,0.0432,0.0358,0.0648,0.0536c-0.0104-0.0276-0.0237-0.052-0.043-0.0698c0.8805-0.6495,1.7483-1.3167,2.6463-1.9409
		c0.616-0.4282,1.2773-0.7558,2.0081-0.2181c-0.1593,0.1497-0.319,0.2996-0.478,0.4495l0.0159,0.0168
		c0.1606-0.1514,0.3213-0.3027,0.4819-0.454l-0.0003-0.0003c0.0001,0,0.0001,0.0001,0.0001,0.0001l-0.0151-0.0162
		c1.0143-0.0092,1.78-0.4678,2.3454-1.2885c0.8525-0.3307,1.7389-0.5948,2.5507-1.0057c2.937-1.4867,5.8277-3.0656,8.7755-4.5295
		c3.0784-1.5292,6.0919-3.312,9.3365-4.3502c3.4907-1.1171,6.6373-2.7266,9.6666-4.6818c0.8459-0.546,1.723-1.1708,2.7175-1.1407
		c1.2061,0.0364,2.085-0.5814,2.792-1.2721c1.088-1.0637,2.2906-1.6862,3.7535-1.9348c0.2883-0.0493,0.5475-0.2659,0.8224-0.4008
		c2.2675-1.1106,4.5542-2.1833,6.7956-3.3436c1.4916-0.7719,2.9485-1.6214,4.3676-2.5199c2.5075-1.5881,4.7663-3.5989,7.7142-4.4216
		c0.2874-0.0801,0.6192-0.2175,0.7972-0.4368c1.2449-1.5328,2.9448-2.0442,4.8002-2.3835c0.8638-0.1583,1.9449-0.5914,2.0172-1.6141
		c0.0717-1.0142,0.6976-1.5178,1.2725-2.0682c2.2036-2.1096,4.4631-4.161,6.707-6.2285c0.1634-0.1508,0.4631-0.2653,0.3654-0.5052
		c-0.109-0.2678-0.3926-0.133-0.5907-0.0427c-0.4169,0.1902-0.8113,0.4366-1.2403,0.5889c-0.1784,0.0634-0.4941,0.018-0.6202-0.1063
		c-0.272-0.2692-0.1259-0.6384,0.1454-0.7652c1.754-0.8209,2.9374-2.3809,3.7945-3.8821c1.0846-1.8996,2.7619-2.9943,4.2172-4.4088
		c1.3589-1.3203,2.9559-2.3998,4.0598-3.9794c-0.6896,0.0657-1.3651,0.265-1.8367,0.7516
		C210.6646,77.1102,206.6823,77.4022,203.4535,79.2272z M144.2466,79.1245l-0.0728,0.1395l-0.0912-0.1347L144.2466,79.1245z
		 M136.7801,50.087c0.1046,0.0439,0.2299,0.2581,0.2038,0.3569c-0.1471,0.5665-0.4534,0.9876-1.1246,0.8725
		c-0.0967-0.0165-0.16-0.2289-0.2391-0.3506C135.6703,50.4978,136.3992,49.9276,136.7801,50.087z M134.515,35.5991l0.0757,0.1138
		l-0.1412,0.0074L134.515,35.5991z M125.6674,56.8791l-0.0964,0.1071l-0.0485-0.1362L125.6674,56.8791z M110.4208,11.8447
		l-0.0272,0.1389l-0.103-0.0933L110.4208,11.8447z M105.7294,12.2594c-0.3063-0.097-0.4922-0.3177-0.4529-0.7031
		c0.3248-0.5912,0.8589-0.742,1.4841-0.5359c0.1521,0.0502,0.3242,0.3263,0.3245,0.4987
		C107.0866,12.0722,106.3613,12.4592,105.7294,12.2594z M20.0839,71.349c-0.0375,0.0118-0.0954-0.042-0.1445-0.0673
		c0.0257-0.0483,0.042-0.1253,0.0787-0.137c0.0375-0.0117,0.095,0.0416,0.1439,0.0663
		C20.1369,71.2599,20.1207,71.3377,20.0839,71.349z M45.1973,51.0147c-0.3209-0.0079-0.5539-0.1638-0.5892-0.5198
		c0.0717-0.3586,0.3355-0.4606,0.6493-0.4409c0.31,0.0197,0.6154,0.147,0.588,0.5068
		C45.8192,50.906,45.5084,51.0219,45.1973,51.0147z M48.5175,37.6324c-0.0592,0.3649-0.3137,0.5312-0.671,0.4048
		c-0.3136-0.1109-0.4914-0.3552-0.464-0.7294c0.1002-0.3358,0.3535-0.4813,0.6951-0.3866
		C48.4159,37.0149,48.5723,37.2945,48.5175,37.6324z M50.4186,121.0033c0.3589-0.0301,0.5347,0.2211,0.542,0.5521
		c0.0058,0.2531-0.172,0.4537-0.4186,0.3868c-0.1815-0.0493-0.3188-0.2625-0.4291-0.3613
		C50.0875,121.2527,50.1634,121.0247,50.4186,121.0033z M46.1543,145.2355c-0.4745-0.1391-0.58-0.5922-0.7756-0.8549
		c0.0192-0.2899,0.1263-0.4052,0.2778-0.3418c0.4255,0.1783,0.7045,0.5037,0.7583,0.9708
		C46.4229,145.078,46.2183,145.2542,46.1543,145.2355z M51.748,140.8739c-0.4396,0.7748-0.1889,1.5831-0.1216,2.4151
		c0.1192,1.4729-1.2081,2.9297-2.5483,2.9292c-0.3759-0.0004-0.8102-0.0793-0.8359-0.5583
		c-0.0197-0.3611,0.3316-0.4183,0.6349-0.5087c1.6967-0.5045,1.8668-0.8978,0.8547-2.2251
		c-0.4213-0.5529-1.0369-0.9916-0.4761-1.7463c0.5163-0.6959,1.2396-1.1526,2.1072-1.1813
		C51.9106,139.9801,51.8212,140.4703,51.748,140.8739z M52.3722,91.0207c-0.0347,0.1061-0.1948,0.1709-0.2991,0.2542
		c-0.1851,0.0403-0.3104-0.0414-0.2571-0.2059c0.0341-0.1053,0.1801-0.2021,0.2971-0.246
		C52.2881,90.7574,52.4249,90.8607,52.3722,91.0207z M55.7319,89.1715c-0.0546,0.0054-0.1489-0.0491-0.1692-0.0991
		c-0.063-0.1542,0.0107-0.2678,0.1881-0.2874c0.0543-0.0057,0.1167,0.0634,0.1754,0.0983
		C55.974,89.045,55.9106,89.1535,55.7319,89.1715z M36.9148,176.9124c0.0812,0.0591,0.1063,0.1954,0.1467,0.3104
		c-0.1122-0.0474-0.2464-0.0807-0.3008-0.1653C36.6642,176.9078,36.7714,176.807,36.9148,176.9124z M39.7378,177.0067l0.0282-0.1322
		l0.0979,0.1006L39.7378,177.0067z M117.5123,68.1913c-0.1042,1.6352-1.7296,1.4864-2.5401,2.2766
		c0.4196,0.1878,0.7042,0.4995,0.8553,0.9334c-0.8516,0.0859-1.7656,0.9056-2.4816-0.4613c-0.191-0.3647-1.0923,0.2353-1.653,0.4547
		c-0.5564,0.2172-1.4208,0.6772-1.6641,0.1657c-0.3339-0.7033,0.6924-0.7271,1.1294-1.0409
		c1.5945-1.1455,3.5798-1.7183,4.8281-3.3912c0.3002-0.4023,0.9271-0.6271,1.4379-0.1971
		C117.847,67.2872,117.5407,67.7487,117.5123,68.1913z M119.793,65.3918c-0.1255,0.0023-0.3314-0.0971-0.3657-0.1964
		c-0.1276-0.3707,0.1272-0.5433,0.429-0.6631c0.2533-0.0295,0.4752,0.0571,0.4976,0.3142
		C120.3854,65.2136,120.1275,65.3863,119.793,65.3918z M122.3884,49.5994c-0.5736,0.5861-1.2089,1.1193-1.8618,1.6176
		c-0.3368,0.2571-0.846,0.681-1.1853,0.3422c-0.4171-0.4171,0.2224-0.7451,0.4307-1.0927c0.3077-0.5136,0.6345-1.0189,0.992-1.4986
		c0.2767-0.3709,0.6372-0.642,1.1539-0.5289C122.5089,48.5142,122.8082,49.1709,122.3884,49.5994z M120.6973,46.2305
		c0.1899-0.231,0.5569-0.3178,0.843-0.1354c0.33,0.2101,0.2761,0.5761,0.0529,0.7947c-1.5333,1.5024-2.9374,3.1125-4.2043,4.8458
		c-0.1328,0.1818-0.3916,0.264-0.5995,0.1096c-0.0981-0.0728-0.1104-0.2613-0.1615-0.3973c0.017-0.0745,0.0107-0.1671,0.0534-0.2207
		C118.0135,49.5563,119.341,47.8817,120.6973,46.2305z M116.0251,38.3422c0.5349-0.0423,1.1562-0.0615,1.3549,0.5629
		c0.2134,0.6707-0.2805,0.9454-0.8571,1.0679c-0.4526,0.0962-0.8257,0.1414-0.7809,0.8282
		c0.0767,1.1792,0.0084,1.1836-1.2386,1.0997c-0.1113-0.0126-0.4158-0.0341-0.7148-0.0865
		c-0.2336-0.0412-0.4297-0.1736-0.4497-0.4311C113.2659,40.4498,115.0472,38.4192,116.0251,38.3422z M112.4148,43.3202
		c0.3648-0.077,0.291,0.2027,0.2617,0.3996c-0.0197,0.1345-0.087,0.2614-0.1395,0.3906c-0.0694-0.1286-0.1672-0.2524-0.1906-0.389
		C112.3234,43.5896,112.3625,43.3313,112.4148,43.3202z M110.5106,55.8984c0.8942-0.4575,1.6302-1.1036,2.2881-1.8565
		c0.2366-0.2705,0.5706-0.6964,0.9282-0.3972c0.4556,0.3813,0.1002,0.8387-0.1924,1.1842
		c-0.4887,0.5768-1.1585,1.0173-1.4369,1.7474c-0.1532,0.4023,0.1635,0.4782,0.4847,0.4716
		c-0.2297,0.7262-0.6501,1.1897-1.4917,1.0092c-0.5891-0.1266-1.2537-0.1929-1.4024-0.9499
		C109.5602,56.4538,110.0165,56.1511,110.5106,55.8984z M106.1005,36.0993c0.358-0.4703,0.791-0.8837,1.1937-1.3201
		c0.7654,0.4425,1.0444,1.101,0.6923,1.9125c-0.251,0.5781-0.8574,0.5687-1.3884,0.5365
		C105.9547,37.1892,105.6986,36.6272,106.1005,36.0993z M105.7214,60.1431c0.1852-0.1152,0.4385-0.2623,0.6005-0.054
		c0.159,0.204-0.0305,0.4286-0.1939,0.5717c-0.9734,0.8547-1.9572,1.6977-2.9378,2.5447l0.0225-0.0213
		c-1.3427,0.4681-1.5823,2.1086-2.8337,2.6739c-0.0343-1.1299,0.4291-2.0197,1.2685-2.7714
		C102.9043,61.9611,104.2952,61.029,105.7214,60.1431z M102.1403,32.1812c0.2374,0.0663,0.3087,0.3198,0.1872,0.5139
		c-0.0997,0.159-0.3002,0.3309-0.4725,0.3502c-0.2422,0.0274-0.3253-0.2023-0.3125-0.4359
		C101.6266,32.3057,101.8052,32.0875,102.1403,32.1812z M99.9692,65.7773c0.1245,0.0093,0.2458,0.0651,0.368,0.1074
		c-0.1125,0.0729-0.2196,0.1661-0.3429,0.199c-0.1219,0.0328-0.3673,0.0215-0.3799-0.0222
		C99.5192,65.7342,99.7768,65.7625,99.9692,65.7773z M98.7463,32.9991l-0.0669,0.1234l-0.0822-0.1265L98.7463,32.9991z
		 M96.0001,33.004c0.2575,0.0207,0.4456,0.2234,0.2483,0.4518c-0.2732,0.3167-0.6891,0.3025-1.0687,0.2182
		c-0.0893-0.0199-0.1395-0.2146-0.2096-0.3322C95.2344,32.9895,95.6213,32.9736,96.0001,33.004z M94.9385,69.3961
		c0.2855,0.2484-0.0764,0.5145-0.2786,0.6884c-0.2661,0.2286-0.5709,0.412-0.8622,0.6118c0.1439-0.3184,0.2655-0.6514,0.4511-0.9438
		C94.3984,69.5174,94.6924,69.1814,94.9385,69.3961z M91.1221,33.9783c1.2488,0.0507,1.9584,0.4885,1.9289,1.1899
		c-0.0297,0.7083-0.8276,1.1754-1.9689,1.1523c-1.3156-0.0262-2.4615-0.6931-2.3494-1.3677
		C88.8277,34.3802,89.9314,33.9302,91.1221,33.9783z M78.3274,34.9578c0.3773,0.0303,0.8886-0.0054,0.8378,0.501
		c-0.0655,0.6531-0.6909,0.711-1.2097,0.7593c-0.4025,0.0375-0.8173-0.132-0.8039-0.5793
		C77.1751,34.8588,77.8539,35.0406,78.3274,34.9578z M68.6374,36.3689c0.6219-0.7686,1.7368-1.0654,1.9774-2.2724
		c0.0454-0.227,1.2552-0.2216,1.6218-0.2772c1.0917,0.0012,1.8199,0.2334,2.5378,0.4976c0.577,0.2129,0.8359,0.638,0.7479,1.2545
		c-0.0942,0.6604-0.355,1.2338-1.1212,1.1959c-0.8043-0.0394-1.4892,0.2104-2.1827,0.5596c-1.1918,0.6-2.3322-0.4165-3.5443-0.1738
		C68.4615,37.1958,68.4449,36.6066,68.6374,36.3689z M73.4365,39.8389c-0.378-0.0979-0.8466-0.196-0.9427-0.7297
		c-0.0464-0.2558,0.1699-0.4271,0.4182-0.387c0.4615,0.0745,0.86,0.3125,1.0012,0.7748
		C73.9936,39.7602,73.7488,39.8621,73.4365,39.8389z M70.4303,63.7252c-0.0636,0.0994-0.2397,0.1699-0.368,0.1743
		c-0.177,0.006-0.2463-0.1282-0.2044-0.2952c0.127-0.0607,0.2521-0.1652,0.3813-0.1699
		C70.4134,63.4273,70.519,63.5869,70.4303,63.7252z M65.2299,66.3267c0.2391-0.1166,0.4207,0.0449,0.52,0.2527
		c0.1075,0.2249,0.0634,0.4573-0.2106,0.5c-0.2441,0.038-0.3952-0.1425-0.4556-0.381C65.129,66.5706,65.141,66.3703,65.2299,66.3267
		z M55.2535,33.0064c0.142-0.215,0.2283-0.4401,0.3903-0.5751c1.0263-0.8577,2.2595-1.1997,3.5579-1.2654
		c0.7166-0.0366,0.9188,0.414,0.6255,1.0522c-0.1571,0.3414-0.3508,0.6669-0.5403,0.9926
		c-0.8239,1.4162-1.0041,1.4817-2.4944,0.8983c-0.4192-0.164-0.852-0.3109-1.2386-0.5347
		C55.4,33.4853,55.3544,33.2094,55.2535,33.0064z M60.2399,79.0931c-0.1216,0.1663-0.3186,0.3134-0.5132,0.3793
		c-0.1583,0.0533-0.2468-0.1053-0.1843-0.3508c0.1387-0.0901,0.3054-0.252,0.5029-0.3102
		C60.2037,78.7651,60.3389,78.958,60.2399,79.0931z M59.5212,71.6701c-0.2156,0.7328-0.8907,1.0188-1.5645,1.201
		c-0.7115,0.1921-1.5511,0.7203-2.1432,0.0722c-0.5386-0.5895,0.1565-1.2775,0.3899-1.8766
		c0.5723-1.4681,1.2694-2.7818,3.2799-2.4521c0.7612,0.1247,1.4375-0.428,2.0703-0.8606c0.4937-0.3372,0.9819-0.3872,1.4689,0.0065
		c0.5104,0.4125,0.4732,0.9378,0.2291,1.448c-0.3234,0.675-0.2563,1.8582-1.5848,1.3461
		C60.6487,70.357,59.8603,70.5167,59.5212,71.6701z M73.7108,125.5517l-0.0042-0.1385l0.1179,0.056L73.7108,125.5517z
		 M66.2083,77.8209c-1.1654,0.7083-2.4636,1.2047-3.7217,1.7504c-0.4937,0.214-0.8734,0.0143-0.9815-0.4891
		c0.1556-0.7004,0.6842-0.8861,1.1699-1.0903c4.0388-1.6976,7.5175-4.3633,11.2873-6.5256
		c1.4561-0.8348,2.8552-1.7678,4.2944-2.6322c0.3862-0.2318,0.8138-0.4165,1.2461-0.5374c0.1575-0.0439,0.4761,0.1147,0.5531,0.2665
		c0.0786,0.1537,0.0236,0.4932-0.1031,0.61c-0.3311,0.3062-0.723,0.5511-1.1087,0.792
		C74.6381,72.5937,70.4468,75.2457,66.2083,77.8209z M78.8796,88.6236c-0.1989,0.7958-1.2014,1.4078-1.9356,1.1844
		c-0.1215-0.037-0.2067-0.1929-0.3087-0.2939c0.0262-0.142,0.0033-0.3329,0.0872-0.4172c0.4973-0.4984,1.1539-0.7169,1.8065-0.9045
		C78.7965,88.1153,78.9429,88.3708,78.8796,88.6236z M86.1407,119.1275c-0.0506,0.0529-0.1238,0.1144-0.1889,0.1172
		c-0.1995,0.009-0.2681-0.0981-0.2033-0.2849c0.1226-0.069,0.265-0.2138,0.3638-0.1885
		C86.2718,118.8123,86.2723,118.9889,86.1407,119.1275z M96.2089,87.4165c-0.0929,0.0054-0.1971-0.1718-0.296-0.2653
		c0.0098-0.3357,0.1353-0.6,0.5-0.6212c0.0928-0.0051,0.2681,0.1663,0.2811,0.2717C96.7358,87.1435,96.5697,87.3943,96.2089,87.4165
		z M89.5035,80.7059c-0.4983,0.3314-1.0434,0.592-1.5685,0.8828c0.1665-0.6806,0.5974-1.1894,1.0554-1.699
		c0.2623-0.2922,0.9788-0.5756,0.4949-1.0323c-0.3096-0.2922-0.8694,0.1655-1.1903,0.4728
		c-0.9669,0.9259-2.155,1.6149-2.3922,3.2035c-0.1247,0.8336-0.9217,1.6318-1.8509,1.9151
		c-2.0046,0.6118-3.842,1.5141-5.5081,2.7843c-0.2113,0.1608-0.574,0.3912-0.7713-0.0118
		c-0.0621-0.1273,0.1284-0.4203,0.2613-0.5928c0.5202-0.6765,1.1528-1.2415,1.909-1.635c1.4401-0.7495,2.6989-1.663,3.7436-2.9619
		c0.7012-0.8723,1.7005-1.5746,2.6914-2.131c2.6389-1.4821,4.8049-3.4921,6.7783-5.7367c0.8284-0.9426,1.759-1.6869,2.9573-2.1084
		c0.4192-0.1475,0.8624-0.3958,1.1489-0.725c3.2869-3.7734,7.5002-6.5233,11.0409-10.0148
		c0.3224-0.3182,0.7125-0.6161,1.1275-0.7851c3.3723-1.3719,6.1524-3.6878,9.1369-5.678c0.2523-0.1684,0.5386-0.2917,0.821-0.4071
		c0.2153-0.0881,0.468-0.1104,0.6234,0.0996c0.1516,0.2048,0.0753,0.4495-0.0755,0.6221c-1.3558,1.5499-2.4911,3.3058-4.3574,4.3672
		c-1.0621,0.6042-2.0247,1.3811-3.0518,2.0492c-3.7698,2.4536-6.653,5.8648-9.6653,9.108
		c-1.7455,1.8795-3.7066,3.4371-5.7639,4.8973C94.6094,77.3552,92.0454,79.0159,89.5035,80.7059z M99.6065,77.619
		c-0.2864-0.4719,0.3445-0.9286,0.72-1.3139c1.6817-1.7274,3.873-2.7276,5.8138-4.0846c0.091-0.0636,0.2587-0.0176,0.3906-0.0228
		c0.0038,0.1441,0.0435,0.2987,0.0046,0.4299c-0.1617,0.5494-0.6575,0.8181-1.0217,1.2049
		c-1.2568,1.3349-3.0782,2.0131-4.1315,3.576c-0.068,0.0209-0.1362,0.0523-0.2042,0.0518
		C100.6312,77.456,100.0522,78.3528,99.6065,77.619z M104.0352,79.9145c-0.9901,0.5031-2.1122,0.1607-3.1646,0.3929
		c-0.6498,0.1432-0.7895-0.4158-0.4529-0.8794c0.4494-0.619,0.9199-1.2026,0.9777-2.0011c0.7912-0.0441,1.4591-0.4099,2.0355-0.9022
		c1.6252-1.3875,3.5769-2.2526,5.3439-3.4116c0.191-0.1251,0.3849-0.2899,0.5975-0.3305c0.8611-0.1649,2.0413-0.9585,2.5184-0.0485
		c0.5209,0.993-0.7991,1.4-1.5141,1.8931c-0.6211,0.4284-1.7628,0.5763-0.7357,1.7588c0.2828,0.3257-0.197,0.6732-0.5322,0.8525
		C107.4228,78.1405,105.7394,79.0482,104.0352,79.9145z M110.8066,81.6996c-0.3452,0.433-0.7945,0.2006-1.1959,0.0638
		c-0.2195-0.0749-0.3514-0.2527-0.2188-0.5269c0.3686-0.3422,0.7849-0.2843,1.1957-0.072
		C110.7927,81.2707,110.9576,81.5103,110.8066,81.6996z M123.5197,79.8889c-0.045,0.0305-0.1529,0.0261-0.1953-0.0081
		c-0.145-0.1171-0.1331-0.2485,0.0134-0.3665c0.0671,0.0046,0.1563-0.0203,0.1979,0.0136
		C123.6802,79.645,123.6739,79.7847,123.5197,79.8889z M195.384,83.8563c-0.0377,0.1075-0.191,0.2004-0.3128,0.2462
		c-0.1791,0.0674-0.3127-0.0374-0.2558-0.2054c0.036-0.1056,0.1979-0.1684,0.3033-0.2504
		C195.3069,83.6157,195.4387,83.7005,195.384,83.8563z M54.5856,177.7901c-0.0001-0.0081-0.0001-0.0162-0.0001-0.0243
		c-0.0062,0.0013-0.0116,0.004-0.0179,0.0053L54.5856,177.7901z M35.6163,74.4922c-0.0047-0.0125-0.0085-0.0208-0.0132-0.0331
		c-0.0045,0.0049-0.0087,0.0103-0.0132,0.0151L35.6163,74.4922z M239.1077,45.7491c-0.5911-0.1418-1.2001-0.2705-1.8187-0.1272
		c-0.293,0.0678-0.7458,0.2607-0.847-0.0303c-0.5536-1.5894-1.3303-0.5893-2.1191-0.2774
		c-1.0664,0.4219-2.1659,0.9962-3.2685,1.0374c-1.8875,0.0699-3.1177,0.4774-3.6169,2.593
		c-0.309,1.3098-1.2084,1.2374-2.1962,0.0255c-1.7404-0.1738-3.2884,0.4926-4.8383,1.1282
		c-0.5144,0.2111-0.9712,0.5803-0.9781,1.1731c-0.0134,1.1229-0.5715,1.468-1.612,1.377c-0.3665-0.032-0.7619,0.087-1.1229,0.2032
		c-4.309,1.3925-8.738,2.1948-13.1993,2.9293c-1.9295,0.3179-3.9026,0.7752-5.7302,1.5963
		c-0.1897,0.0854-0.4592,0.2845-0.4612,0.4335c-0.0034,0.2845,0.3022,0.2351,0.5056,0.2047
		c1.5116-0.2257,3.0652-0.1179,4.545-0.6094c1.0325-0.3428,2.1268-0.4912,3.1799-0.2696c3.202,0.675,6.2191-0.4757,9.3115-0.8554
		c0.4255-0.0521,0.8905-0.3083,1.2106-0.6058c2.0367-1.8929,4.4793-2.1362,7.0766-1.8517c0.4658,0.051,0.9673,0.0245,1.1241,0.5788
		c0.1501,0.5305-0.1744,0.8462-0.6169,1.0886c-0.2431,0.1329-0.6642,0.2974-0.3893,0.6434c0.2007,0.2529,0.5759,0.027,0.8387-0.111
		c1.8266-0.9572,3.6526-1.9163,5.4656-2.8987c0.4041-0.219,0.8207-0.5399,0.7571-1.0621c-0.0969-0.7953,0.3548-1.0576,0.9813-1.3038
		c0.8012-0.3148,1.3806-0.9583,1.9562-1.572c0.642-0.6847,1.4074-1.0625,2.2806-1.4304c1.153-0.4857,2.2581-0.5869,3.4628-0.5999
		c0.6379-0.0071,1.2711-0.4395,1.9066-0.6796C240.4543,45.8589,239.7337,45.8991,239.1077,45.7491z M228.5762,49.8676
		c-0.0751,0.0146-0.1854-0.1517-0.2826-0.2368c0.0649-0.3903,0.2496-0.6796,0.6805-0.6841c0.1-0.001,0.2891,0.1586,0.2885,0.2429
		C229.2581,49.619,228.9417,49.7962,228.5762,49.8676z M44.2627,74.6874c0.1964-0.1174,0.3981-0.2289,0.5834-0.3625
		c0.1964-0.142,0.3344-0.3719,0.1339-0.5518c-0.142-0.1274-0.4291-0.1902-0.6186-0.1453c-0.2863,0.0684-0.6317,0.1884-0.7995,0.4045
		c-1.1899,1.5336-3.1058,1.8009-4.6741,2.6525c-0.6508,0.3533-1.215,0.5157-1.2744,1.3427c-0.0479,0.67-0.5656,1.0399-0.988,1.485
		c-0.5826,0.614,0.0096,0.7336,0.4437,0.8738c0.2169,0.0698,0.4464,0.1,0.6705,0.1476c0.4179-0.5122,0.9444-0.6637,1.6058-0.5731
		c0.441,0.0607,0.915,0.0303,1.3506-0.0659c0.3692-0.0812,0.7596-0.3452,0.7698-0.7521c0.0159-0.6338-0.4916-0.3675-0.8252-0.3617
		c-0.3422,0.0057-0.6169-0.1035-0.6115-0.4849c0.0048-0.3366,0.2513-0.5857,0.5518-0.6478
		c0.5184-0.1077,1.0539-0.1335,1.5827-0.1891c0.5293-0.0555,1.0805-0.0322,1.5829-0.1783c0.4973-0.1451,0.8234-0.5869,0.3249-1.0206
		C43.2876,75.5783,43.5232,75.1294,44.2627,74.6874z M37.7402,80.534c-0.0002-0.0001-0.0005-0.0001-0.0007-0.0001
		c-0.0065,0.0079-0.0142,0.0121-0.0206,0.0202L37.7402,80.534z M181.5918,107.1794c-1.6515,0.9552-3.3049,1.9082-4.9314,2.9056
		c-0.9736,0.597-1.8975,1.2758-2.8456,1.9149c-0.1979,0.1333-0.416,0.3159-0.2941,0.5366c0.0841,0.1525,0.3578,0.2316,0.5619,0.2786
		c0.2192,0.05,0.456,0.0236,0.7278,0.032c1.0179,0.3063,1.7545-0.1334,2.2394-1.049c0.3874-0.7324,1.0095-1.0914,1.7701-1.3382
		c1.1453-0.3713,2.1488-1.1652,3.478-0.9794c0.5023,0.0703,0.8148-0.386,0.8438-0.9001c0.0299-0.5319,0.06-1.1166-0.313-1.5306
		C182.4258,106.6025,181.9742,106.9579,181.5918,107.1794z M217.6098,57.2472c-2.1626,0.1964-4.2294,0.7901-6.3725,0.8198
		c-0.6752,0.0092-1.3532,0.1832-2.0188,0.3315c-0.2753,0.0615-0.5213,0.2529-0.7809,0.3853
		c0.2435,0.2753,0.5566,0.1569,0.8334,0.1159c2.3574-0.3492,4.6883-0.5139,6.9124,0.6422c0.4786,0.2488,1.0502,0.2615,1.5656,0.1008
		c0.8501-0.2654,2.1622-0.4569,2.0986-1.3925C219.7749,57.1791,218.3947,57.5197,217.6098,57.2472z M134.419,66.9176
		c0.0015-0.0098,0.0051-0.0183,0.0067-0.0281c-0.0068,0.0045-0.0139,0.0084-0.0207,0.0129L134.419,66.9176z M140.6154,59.3011
		c0.0101-0.0042,0.0189-0.0096,0.0291-0.0138c0.0011-0.0113,0.002-0.0227,0.003-0.034c-0.0101,0.0023-0.0201,0.005-0.0302,0.0074
		C140.6169,59.274,140.616,59.2877,140.6154,59.3011z M136.3139,63.9329c-0.2338,0.598-0.47,1.1047-0.9865,1.4631
		c-0.5284,0.3669-0.7991,0.8777-0.9018,1.4935c0.6245-0.4135,1.2775-0.7558,2.0243-0.9069c0.4501-0.091,1.0179-0.268,1.0945-0.6995
		c0.2974-1.672,1.4818-2.7037,2.5226-3.8718c0.5056-0.5671,0.5206-1.3633,0.5484-2.1104
		C138.4758,60.1867,137.1299,61.8449,136.3139,63.9329z M156.5596,126.5252c-0.002-0.0001-0.004,0.0001-0.0059,0
		c-0.0041,0.0038-0.0076,0.0098-0.0117,0.0134L156.5596,126.5252z M157.9503,126.1322c-0.0071-0.0095-0.0125-0.0125-0.0195-0.0217
		c-0.0002,0.0001-0.0003,0.0001-0.0005,0.0002L157.9503,126.1322z M160.2551,124.2355c-1.534,0.4642-3.2198,0.0151-4.6998,0.7773
		c-0.5278,0.2719-1.5065,0.4052-1.4164,0.9521c0.1387,0.8403,1.1192,0.4077,1.7361,0.53c0.2195,0.0435,0.4518,0.0226,0.6786,0.0303
		c0.3945-0.3614,0.578-1.4553,1.3772-0.4146c0.9164-0.2029,1.6777-0.7073,2.41-1.2593c0.1064-0.0803,0.202-0.251,0.1974-0.3759
		C160.535,124.3874,160.3251,124.2144,160.2551,124.2355z M99.377,10.4588c0.8872,0.181,1.8484-0.4067,1.8616-1.144
		c0.0071-0.4059-0.2297-0.7198-0.5997-0.8549c-0.4926-0.1795-1.701,0.7863-1.7766,1.3057
		C98.844,10.2128,99.069,10.3958,99.377,10.4588z M212.164,84.4736c0.0031,0.0118,0.0035,0.0226,0.0064,0.0344
		c0.0038-0.0049,0.0082-0.0093,0.012-0.0142L212.164,84.4736z M207.919,88.5044c0.0097-0.0111,0.0206-0.021,0.0304-0.032
		c-0.017,0.0028-0.0322,0.0093-0.0492,0.012L207.919,88.5044z M207.9494,88.4723c1.1998-0.1996,2.2139-0.7858,3.1904-1.4846
		c0.8816-0.6307,1.2949-1.4055,1.0306-2.4798C210.979,86.0586,209.2323,87.0189,207.9494,88.4723z M166.2364,118.9773
		c-0.0209,0.0281,0.0461,0.1766,0.0759,0.1776c1.5817,0.0636,2.4534-1.347,3.7731-1.8515c0.2599-0.0992,0.3758-0.5754,0.5495-0.8999
		c-0.3447,0.1194-0.7043,0.209-1.0259,0.3736C168.4079,117.3909,167.084,117.8239,166.2364,118.9773z M170.6349,116.4035
		c0.0134-0.0046,0.0271-0.0085,0.0404-0.0132c0.0093-0.0105,0.0183-0.0215,0.0276-0.0321
		c-0.0164,0.0018-0.0325,0.0037-0.0489,0.0054C170.647,116.3756,170.6416,116.391,170.6349,116.4035z M214.8307,83.5674
		c-0.8307-0.041-0.3424,0.8173-0.4683,1.2441c-0.018,0.1776-0.0358,0.3293-0.0485,0.4814
		c-0.0261,0.3167-0.0402,0.6604,0.3841,0.6878c0.3313,0.0217,0.5518-0.2228,0.7016-0.501c0.0709-0.1315,0.1406-0.2838,0.1441-0.4282
		C215.5581,84.428,215.5226,83.6015,214.8307,83.5674z M93.3702,14.9128c0.2742-0.0992,0.5318-0.2592,0.7744-0.4247
		c0.2506-0.1709,0.4949-0.414,0.2763-0.726c-0.1029-0.1469-0.379-0.1724-0.5441-0.2394c-0.3439,0.0651-0.6401,0.0998-0.9229,0.1799
		c-0.3741,0.106-0.7397,0.3104-0.636,0.757C92.446,15.0141,92.8978,15.0833,93.3702,14.9128z M31.6936,111.2655
		c0.017-0.0084,0.0347-0.0157,0.0515-0.0244l-0.0242-0.0212C31.7118,111.2351,31.7028,111.2504,31.6936,111.2655z M29.3807,112.8308
		c-0.1465,0.2786-0.1337,0.5924,0.1529,0.7905c0.2822,0.1953,0.6136,0.1493,0.7932-0.1232c0.4799-0.728,0.9152-1.4857,1.3668-2.2325
		C30.8516,111.6834,29.8703,111.901,29.3807,112.8308z M142.2315,58.2516c0.0676-0.1772,0.0374-0.4573-0.0626-0.6188
		c-0.1899-0.3062-0.5125-0.2559-0.7857-0.1006c-0.6766,0.3855-0.6756,1.0689-0.7356,1.7211
		C141.2926,59.1034,141.9585,58.966,142.2315,58.2516z M113.0189,6.7558c0.3738-0.0392,0.5451-0.2688,0.5476-0.5901
		c0.0032-0.4939-0.1807-0.8901-0.7579-0.8621c-0.3206,0.0151-0.5491,0.2479-0.5644,0.5734
		C112.219,6.4094,112.5361,6.6782,113.0189,6.7558z M148.034,131.8392c0.021-0.0058,0.0413-0.0126,0.0623-0.0183l-0.0172-0.0214
		C148.0646,131.8136,148.0486,131.8253,148.034,131.8392z M143.9192,134.4158c1.5743-0.5351,2.9213-1.4335,4.1147-2.5767
		C146.4053,132.2879,144.9214,132.9678,143.9192,134.4158z M143.8847,134.4608c0.0109-0.0161,0.0236-0.0291,0.0345-0.0449
		c-0.0183,0.0062-0.0348,0.0154-0.0532,0.0215L143.8847,134.4608z M130.1452,71.8195c-0.0157,0.005-0.031,0.0104-0.0467,0.0153
		c-0.0148,0.009-0.0281,0.0199-0.0429,0.029c0.0226,0.001,0.0421-0.005,0.0649-0.0035
		C130.1293,71.8473,130.1367,71.8328,130.1452,71.8195z M132.2905,70.1234c0.0107-0.033-0.0977-0.1521-0.1498-0.1514
		c-1.2215,0.0164-1.4901,1.0591-1.9954,1.8475C131.0729,71.525,131.9496,71.1641,132.2905,70.1234z M160.6676,77.2807
		c0.4119-0.0771,0.8466-0.1533,1.2789-0.2421c0.2337-0.0481,0.4382-0.1766,0.3997-0.4399
		c-0.0368-0.2498-0.2623-0.3541-0.4976-0.3458c-0.5261,0.0182-1.0103,0.1948-1.4394,0.4926
		c-0.0883,0.0612-0.1684,0.278-0.1265,0.3483C160.3398,77.1901,160.5173,77.2146,160.6676,77.2807z M147.2229,130.409
		c0.0071-0.0098,0.0162-0.0167,0.0234-0.0264c-0.0132,0.0026-0.0241,0.0086-0.0374,0.0111L147.2229,130.409z M147.2463,130.3825
		c1.3716-0.2682,2.404-1.0403,3.207-2.1534C149.1799,128.6419,148.0574,129.2799,147.2463,130.3825z M150.4532,128.229
		c0.0185-0.006,0.0354-0.0145,0.054-0.0204c0.0081-0.0089,0.0162-0.0175,0.0243-0.0264c-0.0142,0.0011-0.0281,0.0025-0.0423,0.0036
		C150.4781,128.2015,150.4644,128.2135,150.4532,128.229z M170.7029,116.3582c0.8863-0.0947,1.7691-0.1992,2.2181-1.1472
		c0.018-0.0387-0.0521-0.1726-0.0908-0.1768C171.7702,114.9128,171.2794,115.7046,170.7029,116.3582z M131.7554,63.6189
		l-0.019-0.0205c-0.0032,0.0114-0.0083,0.0215-0.0116,0.0328C131.7355,63.6278,131.7447,63.6222,131.7554,63.6189z
		 M129.9739,65.3403c0.2552,0.2464,0.5579-0.0281,0.7908-0.2157c0.4858-0.3901,0.7866-0.9022,0.9601-1.4934
		c-0.5887,0.1873-1.0578,0.5674-1.5096,0.9666C129.9953,64.792,129.6909,65.0671,129.9739,65.3403z M225.6954,45.6363
		c0.2111-0.0049,0.4502-0.1462,0.3337-0.427c-0.0372-0.0893-0.254-0.1039-0.4042-0.1581c-0.5681,0.1467-1.188,0.2-1.6356,0.671
		c-0.0374,0.0394-0.0324,0.1929-0.0151,0.1987C224.5935,46.1288,225.1035,45.6508,225.6954,45.6363z M159.0993,74.7707
		c0.3891-0.1174,0.6403-0.3709,0.619-0.7859c-0.0176-0.3556-0.269-0.5416-0.6068-0.4211c-0.387,0.1383-0.5345,0.4838-0.4807,0.8798
		C158.6634,74.6832,158.8522,74.7893,159.0993,74.7707z M234.0932,56.221c-0.2782-0.0403-0.5947,0.0314-0.865,0.1324
		c-0.2495,0.0933-0.6466,0.1791-0.509,0.5724c0.0492,0.1404,0.3671,0.1871,0.4919,0.2443c0.3914-0.0441,0.6922-0.0738,0.9917-0.1136
		c0.2123-0.028,0.5249-0.0239,0.5165-0.285C234.709,56.4396,234.3757,56.262,234.0932,56.221z M54.0873,178.223
		c-0.0056,0.0083-0.0121,0.0153-0.0177,0.0236c0.0128-0.0004,0.0228-0.0044,0.0357-0.0046L54.0873,178.223z M51.2981,180.4258
		c1.2358-0.3288,2.0834-1.1523,2.7715-2.1791C52.6174,178.2969,52.1015,179.5453,51.2981,180.4258z M77.4935,12.7533
		c0.4039-0.0565,0.6795-0.3068,0.6849-0.7339c0.004-0.314-0.1521-0.6225-0.5107-0.5532c-0.4255,0.0824-0.4845,0.4974-0.5521,0.8459
		C77.1255,12.5745,77.2165,12.7921,77.4935,12.7533z M152.8085,128.9317c0.0305,0.0845,0.409,0.0979,0.6104,0.0562
		c0.6951-0.1443,1.2292-0.5568,1.6747-1.094c-0.699-0.0017-1.3337,0.2075-1.9088,0.601
		C153.016,128.6102,152.7183,128.682,152.8085,128.9317z M144.5422,66.7496l0.0155,0.0173
		c0.0049-0.0147,0.0128-0.0274,0.0178-0.0421C144.5632,66.7322,144.5547,66.7423,144.5422,66.7496z M146.4503,64.0896
		c-0.8626,0.7094-1.507,1.5744-1.8748,2.6352C145.5832,66.1192,146.1484,65.198,146.4503,64.0896z M158.5518,48.188
		c0.0004-0.032-0.1452-0.1096-0.1701-0.0918c-0.6833,0.4838-0.7323,1.2485-0.8719,1.9729
		C158.1443,49.6034,158.5412,49.0017,158.5518,48.188z M157.5099,50.0691c-0.0111,0.0082-0.0192,0.0181-0.0305,0.0261l0.0001,0.0001
		c-0.0038,0.014-0.0064,0.0286-0.0098,0.0428c0.0104-0.0076,0.0214-0.0146,0.0316-0.0224
		C157.5043,50.1003,157.5069,50.0846,157.5099,50.0691z M150.5314,128.1822c0.7454-0.0591,1.4817-0.1396,1.8622-0.933
		c0.0205-0.0429-0.0431-0.182-0.0671-0.182C151.5011,127.0725,151.0228,127.6383,150.5314,128.1822z M119.5813,70.9762
		c-0.0045,0.0726,0.1802,0.1569,0.2787,0.2363c0.2851-0.0552,0.5585-0.1464,0.5793-0.4859
		c0.0044-0.0732-0.1852-0.2293-0.2792-0.2243C119.8702,70.5177,119.6023,70.6375,119.5813,70.9762z M123.7201,68.2354
		c0.0013,0.0862,0.173,0.2454,0.2598,0.2408c0.3272-0.0172,0.4996-0.2408,0.4885-0.5567c-0.0035-0.0895-0.1659-0.1732-0.2562-0.2602
		C123.8994,67.7249,123.7149,67.9217,123.7201,68.2354z M3.0195,57.7393c-0.2398,0.1063-0.3173,0.3205-0.3109,0.5489
		c0.0067,0.2385,0.1274,0.4858,0.3948,0.2952c0.1418-0.1014,0.1786-0.3899,0.1981-0.6002
		C3.3082,57.911,3.1187,57.8206,3.0195,57.7393z M113.7386,1.0552c0.2941,0.0916,0.607,0.0665,0.7487-0.2341
		c0.1135-0.2404-0.1128-0.3789-0.3205-0.4431c-0.2826-0.0876-0.5662-0.1176-0.7464,0.2
		C113.3838,0.8326,113.5216,0.9878,113.7386,1.0552z M136.7525,57.136c-0.0115-0.2228-0.1033-0.4441-0.3583-0.4565
		c-0.0705-0.0034-0.1512,0.2044-0.2269,0.3154c-0.0034,0.2194-0.0155,0.4887,0.2321,0.5452
		C136.6649,57.6004,136.7642,57.3663,136.7525,57.136z M4.6706,53.6635c-0.0962,0.0994-0.2693,0.1964-0.2734,0.3002
		c-0.0111,0.2789,0.1927,0.3691,0.4207,0.2504c0.0958-0.0502,0.1688-0.2341,0.1689-0.3575
		C4.9873,53.6871,4.8445,53.6227,4.6706,53.6635z M148.4687,62.1373c0.3261-0.0107,0.5221-0.2548,0.6844-0.5109
		c0.1065-0.1684,0.0557-0.3295-0.1226-0.3273c-0.3311,0.004-0.5194,0.251-0.6817,0.5089
		C148.2514,61.9829,148.2928,62.1433,148.4687,62.1373z M26.2508,159.6848c-0.1279,0.1371-0.1226,0.3123,0.0456,0.3391
		c0.1953,0.0308,0.4131-0.0353,0.6129-0.0901c0.1761-0.048,0.2523-0.2194,0.1373-0.3008
		C26.7877,159.4494,26.5076,159.5249,26.2508,159.6848z M144.573,95.3372c0.0096-0.0028,0.0195-0.0049,0.0291-0.0078
		c0.1588-0.1489,0.3182-0.2977,0.4772-0.4464l-0.0161-0.0178c-0.1586,0.1498-0.3169,0.2994-0.4752,0.4495
		C144.5829,95.322,144.5782,95.3297,144.573,95.3372z M143.6661,96.1402c0.0644,0.0552,0.3163-0.0069,0.3961-0.0939
		c0.1955-0.2136,0.3449-0.4688,0.5109-0.7092c-0.2784,0.0807-0.572,0.1316-0.8246,0.2616
		C143.5383,95.7066,143.4447,95.9523,143.6661,96.1402z M27.2915,112.1739c-0.0806,0.1195-0.2416,0.2764-0.296,0.4642
		c-0.0468,0.1602,0.132,0.2682,0.2728,0.1604c0.1579-0.1207,0.3112-0.2957,0.3732-0.4788
		C27.694,112.1645,27.5371,112.0855,27.2915,112.1739z M27.5731,148.5668c0.2303,0.0276,0.41-0.0565,0.4466-0.288
		c0.0089-0.0563-0.1732-0.2006-0.2665-0.1998c-0.1155,0.0008-0.2638,0.0876-0.3303,0.1839
		C27.3915,148.3087,27.5179,148.4629,27.5731,148.5668z M97.3154,0.4404c0.1979,0.0006,0.3962-0.0793,0.5941-0.1276
		c-0.0644-0.1081-0.1192-0.2991-0.1946-0.3077c-0.1964-0.0225-0.4023,0.0356-0.6301,0.0649
		C97.1832,0.2354,97.2489,0.4402,97.3154,0.4404z M78.7106,8.4805c0.0038-0.1167-0.1172-0.2377-0.1829-0.3565
		c-0.1774-0.0588-0.3317-0.0018-0.3382,0.1758c-0.0042,0.1163,0.0903,0.2809,0.1909,0.3455
		C78.5321,8.7432,78.7047,8.6573,78.7106,8.4805z M137.3622,32.4285c0.0492-0.005,0.09-0.0974,0.1346-0.1497
		c0.0192-0.1741-0.0616-0.2736-0.2385-0.2571c-0.049,0.0044-0.1176,0.0923-0.1291,0.1511
		C137.0959,32.3454,137.1861,32.4462,137.3622,32.4285z M204.1788,75.9199c-0.018,0.0027-0.032,0.0112-0.0504,0.0135
		c-0.0142,0.0203-0.0311,0.0374-0.0455,0.0574c0.022-0.0109,0.0438-0.0223,0.0659-0.0332
		C204.1581,75.9439,204.1694,75.9334,204.1788,75.9199z M205.9962,74.6436c-0.7814,0.176-1.3677,0.6293-1.8174,1.2762
		C204.9949,75.7963,205.5356,75.2773,205.9962,74.6436z M206.0166,74.618c-0.0065,0.009-0.014,0.0167-0.0205,0.0256
		c0.0121-0.0027,0.0221-0.0085,0.0343-0.011L206.0166,74.618z M50.1094,181.4005c0.0596,0.0514,0.3102-0.0316,0.4048-0.1232
		c0.2601-0.2515,0.4869-0.5375,0.7254-0.8113c-0.3376,0.1312-0.6868,0.2402-1.0038,0.4101
		C50.0538,180.9734,49.8636,181.1876,50.1094,181.4005z M51.2396,180.466c0.0118-0.0046,0.0238-0.0087,0.0356-0.0133
		c0.0079-0.0085,0.015-0.0182,0.0229-0.0269c-0.0123,0.0033-0.0219,0.0099-0.0342,0.0131
		C51.2559,180.448,51.2476,180.4568,51.2396,180.466z M31.7208,111.2198l0.0244,0.0214c0.0035-0.0175,0.0063-0.0353,0.0096-0.0528
		C31.7436,111.1989,31.7317,111.2091,31.7208,111.2198z M32.3448,110.5969c0.1222-0.1652,0.2027-0.432-0.1211-0.4996
		c-0.0787-0.0165-0.255,0.1598-0.2935,0.2778c-0.0859,0.2623-0.1231,0.5404-0.1754,0.8134
		C31.9575,110.9958,32.181,110.8183,32.3448,110.5969z M169.9505,93.9306c0.0805-0.1048,0.1606-0.21,0.2405-0.3149
		c-0.1335-0.0155-0.2681-0.0477-0.3998-0.0383c-0.05,0.0038-0.1278,0.1004-0.1324,0.1594
		C169.6436,93.9215,169.7543,93.987,169.9505,93.9306z M209.6605,85.1208c-0.1027,0.0422-0.2056,0.0841-0.308,0.1265
		c0.0212,0.0582,0.0423,0.1159,0.0636,0.1736c0.1025-0.0429,0.2073-0.0818,0.304-0.1354
		C209.7281,85.2807,209.6817,85.1781,209.6605,85.1208z M0.0143,60.2824c-0.0015,0.053-0.0308,0.1383-0.0008,0.1772
		c0.1024,0.1306,0.2238,0.1226,0.3094-0.0176c0.0297-0.0485,0.0412-0.147,0.0121-0.1851
		C0.234,60.1257,0.1196,60.1384,0.0143,60.2824z M147.0314,32.2398c-0.0998-0.0582-0.1998-0.1157-0.3-0.1734
		c-0.0301,0.0558-0.0923,0.1552-0.0854,0.16c0.0927,0.068,0.195,0.1228,0.2952,0.1807
		C146.9713,32.3513,147.0014,32.2957,147.0314,32.2398z M171.0364,31.5744c0.0061-0.0988-0.1458-0.2078-0.2259-0.3121
		c-0.1208,0.0527-0.3174,0.082-0.3427,0.164c-0.0307,0.0998,0.0475,0.2989,0.1406,0.3581
		C170.8215,31.9209,171.0199,31.8381,171.0364,31.5744z M100.2031,0.4034c0.1232-0.0364,0.3019-0.036,0.3561-0.118
		c0.0826-0.1251-0.0308-0.2422-0.213-0.2247c-0.1257,0.0123-0.3021,0.0314-0.3573,0.1136
		C99.9073,0.2959,100.0201,0.4002,100.2031,0.4034z M163.7693,122.2373c-0.0748,0.1055-0.118,0.2335-0.1726,0.3532
		c0.1273-0.0318,0.2585-0.0535,0.3782-0.1036c0.1864-0.0782,0.442-0.2188,0.2801-0.4226
		C164.0995,121.8681,163.8887,122.0683,163.7693,122.2373z M163.5847,122.6153c0.004-0.0083,0.0082-0.0164,0.0121-0.0248
		c-0.0095,0.0024-0.0187,0.0052-0.0282,0.0078L163.5847,122.6153z M8.5837,73.8557c-0.0536-0.0094-0.1203,0.0579-0.1813,0.0902
		c0.0142,0.0624,0.0087,0.1558,0.0474,0.1808c0.0479,0.0309,0.1529,0.033,0.1971-0.0005
		C8.813,74.0009,8.7872,73.8902,8.5837,73.8557z M123.6371,132.8119c-0.1275-0.1059-0.2553-0.2115-0.383-0.3171
		C123.3194,132.6692,123.2532,132.9877,123.6371,132.8119z M213.2388,88.3649c-0.1678-0.0326-0.2651,0.0563-0.246,0.2284
		c0.0056,0.0502,0.0919,0.0919,0.1412,0.1375c0.1671,0.0159,0.2631-0.064,0.2487-0.2372
		C213.3788,88.4452,213.2951,88.3756,213.2388,88.3649z M54.0748,22.7979c-0.009-0.0335-0.26-0.0314-0.3853,0.0031
		c-0.1225,0.0334-0.2311,0.1177-0.3441,0.1852c0.126,0.0207,0.2534,0.0542,0.3761,0.0417
		C53.8708,23.0128,54.1735,23.1698,54.0748,22.7979z M53.3455,22.9862c-0.0139-0.0023-0.0278-0.0054-0.0416-0.0073l0.0176,0.0222
		C53.3296,22.9966,53.3374,22.991,53.3455,22.9862z M27.6592,93.963l-0.1068,0.1114l0.1499,0.0304L27.6592,93.963z
		 M142.3326,49.0979l-0.1054,0.1103l0.1483,0.0297L142.3326,49.0979z M213.5412,52.614c0.0548,0.0178,0.1566,0.0142,0.1815-0.0205
		c0.0991-0.1379,0.0372-0.2213-0.1525-0.2035c-0.0536,0.0054-0.1023,0.0646-0.1538,0.0999
		C213.457,52.5335,213.4913,52.5977,213.5412,52.614z M157.3568,50.5196c0.0618-0.114,0.0814-0.2509,0.1129-0.3815
		c-0.1096,0.0798-0.2283,0.1512-0.3162,0.2502c-0.0931,0.1038-0.2251,0.3368-0.2062,0.3525
		C157.2325,50.9773,157.2737,50.6731,157.3568,50.5196z M143.4618,54.9199c0.2753,0.2444,0.3146-0.0657,0.4003-0.2071
		c0.0661-0.109,0.0877-0.2451,0.1227-0.3729c-0.11,0.0763-0.2313,0.1421-0.3198,0.238
		C143.573,54.6778,143.4413,54.9019,143.4618,54.9199z M143.9848,54.3399c0.009-0.0062,0.0173-0.0131,0.0262-0.0195
		c0.1607-0.1514,0.3215-0.3027,0.4822-0.4539l-0.0165-0.0178c-0.1607,0.1514-0.3217,0.3029-0.4824,0.4545
		C143.9906,54.3152,143.9881,54.3278,143.9848,54.3399z M116.3059,73.6862c-0.0261,0.0412-0.0027,0.1567,0.0363,0.1841
		c0.0435,0.0306,0.1302,0.0002,0.1982-0.0034c0.0303-0.0621,0.1029-0.146,0.0839-0.182
		C116.5377,73.5204,116.41,73.5207,116.3059,73.6862z M150.4671,130.4771c0.1157-0.0377,0.2339-0.0701,0.3428-0.1223
		c0.0374-0.0175,0.0437-0.0994,0.0642-0.1519C150.6363,130.1502,150.5702,130.3401,150.4671,130.4771z M150.4452,130.5078
		c0.008-0.0093,0.0145-0.0208,0.022-0.0308c-0.0128,0.0042-0.0252,0.0092-0.0379,0.0135L150.4452,130.5078z M27.5007,114.8145
		l0.0303,0.122l0.0975-0.0943L27.5007,114.8145z M170.7536,114.6056c-0.0481,0.009-0.0849,0.0782-0.1268,0.1199
		c0.1609-0.0515,0.3217-0.1031,0.4827-0.1547C170.9902,114.5792,170.8701,114.5836,170.7536,114.6056z M184.9418,105.4434
		l0.0036-0.1348l-0.115,0.0741L184.9418,105.4434z M34.8821,78.2176l0.0927,0.0957l0.0269-0.1252L34.8821,78.2176z
		 M210.3838,82.6727l0.1261,0.0678l0.0036-0.1519L210.3838,82.6727z M35.537,74.9687c0.0143-0.1326,0.0283-0.2653,0.0425-0.3979
		c-0.045,0.087-0.0933,0.1729-0.1248,0.2645C35.444,74.8665,35.5077,74.9236,35.537,74.9687z M35.6165,74.4923l-0.0267-0.0182
		c-0.0034,0.0322-0.0069,0.0644-0.0103,0.0966C35.5929,74.5449,35.6037,74.5184,35.6165,74.4923z M215.6324,73.3796
		c0.0381-0.0176,0.0488-0.0941,0.0724-0.1435c-0.112,0.0786-0.2241,0.1569-0.3361,0.2352
		C215.4579,73.4436,215.5484,73.4185,215.6324,73.3796z M140.8733,70.8122l-0.1295,0.0463l0.1014,0.0912L140.8733,70.8122z
		 M224.3327,57.5073l0.023-0.1255l-0.1435,0.0425L224.3327,57.5073z M217.869,51.0392l-0.0636,0.1173l0.1368-0.0068L217.869,51.0392
		z M225.285,48.8869c0.2713-0.2595,0.5427-0.5189,0.814-0.7784C225.7195,48.2547,225.4479,48.514,225.285,48.8869z M226.1645,48.046
		c-0.0218,0.0208-0.0435,0.0416-0.0653,0.0624c0.0295-0.0114,0.0543-0.0275,0.085-0.0375L226.1645,48.046z M225.285,48.8869
		c-0.0213,0.0204-0.0425,0.0407-0.0638,0.0611c0.0067,0.0084,0.0132,0.0139,0.0199,0.0221
		c0.0009,0.0001,0.0018,0.0001,0.0027,0.0001C225.2552,48.9399,225.2725,48.9159,225.285,48.8869z M243.617,39.5911l0.1066,0.0962
		l0.0451-0.1327L243.617,39.5911z M110.1821,30.6106l-0.1318-0.0276l0.0314,0.1256L110.1821,30.6106z M143.8845,134.4608
		l-0.0184-0.0234c-0.0322,0.0146-0.0643,0.0292-0.0965,0.0438C143.808,134.4747,143.8453,134.4655,143.8845,134.4608z
		 M142.9452,134.8871c0.0243-0.026,0.0523-0.0439,0.0779-0.0671c-0.0328,0.0149-0.0656,0.0298-0.0984,0.0447L142.9452,134.8871z
		 M143.7696,134.4812c-0.2788,0.0471-0.5338,0.1465-0.7465,0.3387C143.272,134.7071,143.5208,134.5941,143.7696,134.4812z
		 M155.5896,127.4208c-0.1598,0.1516-0.3198,0.3035-0.4797,0.455l0.0002,0.0002c-0.0052,0.0063-0.0112,0.0115-0.0165,0.0178
		c0.0106,0,0.0204-0.0022,0.031-0.0021c0.1611-0.1504,0.3223-0.301,0.4836-0.4514c0.3127-0.1398,0.6249-0.2797,0.9373-0.4197
		l-0.0192-0.0165C156.214,127.1428,155.9019,127.2819,155.5896,127.4208z M172.8002,92.0405l-0.0128-0.0136
		c-0.311,0.1423-0.6221,0.2845-0.933,0.4268l0.0161,0.0176C172.1806,92.3278,172.4902,92.1843,172.8002,92.0405z M148.0793,131.7993
		l0.017,0.0216c0.3123-0.1439,0.6244-0.2877,0.9367-0.4312l-0.0157-0.0169C148.7046,131.515,148.3921,131.6573,148.0793,131.7993z
		 M226.1647,48.046l0.0195,0.0249c0.0519-0.0433,0.1035-0.0866,0.1556-0.1301C226.2814,47.9761,226.2231,48.0112,226.1647,48.046z
		 M25.7588,151.2279c0.0555-0.0324,0.1113-0.065,0.1671-0.097c0.0116-0.0107,0.0245-0.0187,0.0361-0.0292
		c-0.0179,0.0033-0.0355,0.0037-0.0534,0.0072C25.8585,151.1485,25.8088,151.188,25.7588,151.2279z M53.3039,22.979
		c-0.0494,0.0377-0.0991,0.0759-0.1487,0.1136c0.0554-0.0306,0.1107-0.0611,0.1661-0.0916L53.3039,22.979z M54.1053,178.2418
		c0.16-0.1506,0.3198-0.3012,0.4799-0.452l-0.0176-0.0188c-0.1602,0.1506-0.3201,0.3012-0.4801,0.4518L54.1053,178.2418z
		 M156.5455,127.0206c0.0048-0.165,0.0092-0.3299,0.014-0.4951l-0.0175,0.013c-0.0056,0.1552-0.0107,0.3102-0.0159,0.4654
		L156.5455,127.0206z M163.1028,123.0701c0.1608-0.1514,0.3213-0.3031,0.4819-0.4547l-0.0161-0.0172
		c-0.1609,0.1511-0.3217,0.3023-0.483,0.4535L163.1028,123.0701z M171.6684,114.1179l-0.0176-0.0193
		c-0.1579,0.1502-0.3156,0.3002-0.4736,0.4506c-0.0226,0.0073-0.0452,0.0145-0.0677,0.0217c0.0272-0.0019,0.054-0.0056,0.081-0.0079
		C171.3497,114.4146,171.5094,114.2661,171.6684,114.1179z M30.0159,92.2903c0.0486-0.0387,0.0975-0.0776,0.1462-0.1161
		c-0.0536,0.0333-0.1073,0.0667-0.1611,0.1002c-0.1602,0.1516-0.3205,0.3029-0.4811,0.4545
		c-0.1578,0.1487-0.3159,0.2973-0.4742,0.4462l0.0136,0.0142c0.1581-0.1487,0.3161-0.2972,0.4744-0.446
		C29.6944,92.5922,29.8551,92.4412,30.0159,92.2903z M160.7554,79.2398l-0.0155-0.017c-0.1592,0.149-0.3184,0.2983-0.4777,0.4473
		l0.0173,0.0184C160.4382,79.5389,160.5966,79.3895,160.7554,79.2398z M51.7626,73.1386l0.017,0.0134
		c0.1627-0.1498,0.3253-0.3,0.488-0.4498c-0.0056-0.006-0.0106-0.0103-0.0162-0.0162c-0.0004-0.0001-0.0007-0.0002-0.001-0.0002
		C52.0877,72.8367,51.925,72.9876,51.7626,73.1386z M206.9787,73.7396c0.1581-0.1489,0.3159-0.2973,0.4738-0.446l-0.0119-0.0132
		c-0.1578,0.1489-0.3157,0.2977-0.4738,0.4464c-0.1583,0.1485-0.3163,0.2974-0.4746,0.4458
		c-0.1584,0.1487-0.3168,0.297-0.4753,0.4454l0.0135,0.0146c0.1581-0.149,0.316-0.2979,0.4738-0.447
		C206.6622,74.0368,206.8206,73.8883,206.9787,73.7396z M207.9171,72.8315c-0.1586,0.1496-0.3177,0.2994-0.4763,0.4489
		l0.0117,0.0132c0.159-0.1498,0.3178-0.2993,0.4764-0.4487L207.9171,72.8315z M146.9546,63.6222l-0.0193-0.0212
		c-0.1573,0.1504-0.3144,0.3008-0.472,0.4512c-0.0035,0.0131-0.0094,0.0245-0.0129,0.0375
		c0.0092-0.0075,0.0166-0.0162,0.0258-0.0237C146.6355,63.918,146.7953,63.77,146.9546,63.6222z M152.1974,57.7912l-0.0148-0.0159
		c-0.1586,0.1496-0.3171,0.2993-0.4753,0.4489l0.0126,0.014C151.879,58.0891,152.0381,57.9401,152.1974,57.7912z M57.2266,71.4534
		l0.1318-0.0465l-0.1042-0.0941L57.2266,71.4534z"/>
</g>
</svg>
