<?xml version="1.0" encoding="utf-8"?>
<!-- Generator: Adobe Illustrator 23.0.1, SVG Export Plug-In . SVG Version: 6.00 Build 0)  -->
<svg version="1.1" id="XMLID_2_" xmlns="http://www.w3.org/2000/svg" xmlns:xlink="http://www.w3.org/1999/xlink" x="0px" y="0px"
	 viewBox="0 0 301.7785 201.43" enable-background="new 0 0 301.7785 201.43" xml:space="preserve">
<path id="lq12" fill="#D2D6E2" d="M36.1975,13.7565c22.8-12.5,50.1-16.7,75.7-11.7s49.2,19.3,65.6,39.5c11,13.5,19,29.8,33,40.2
	c14.1,10.4,32,13.3,48.9,18c32.1,9,50.6,32.5,38.8,57.6c-13.2,28.1-44.4,25.8-64.5,31.2c-22.9,6.2-49.7,17.3-81.7,11
	c-26.4-5.2-49.2-24.8-72.1-38.8c-27.5-16.9-49.3-20.5-67.1-45.2C-12.6025,80.5565,2.1975,32.3565,36.1975,13.7565z"/>
</svg>
