<?xml version="1.0"?>
<svg version="1.1" id="XMLID_1_" xmlns="http://www.w3.org/2000/svg" xmlns:xlink="http://www.w3.org/1999/xlink" x="0px" y="0px" viewBox="0 0 265.2726 204.2798" enable-background="new 0 0 265.2726 204.2798" xml:space="preserve">
	<g id="P">
		<path id="_x32_4.2brush3" d="M254.7119,61.5026c0.5129-0.3392,1.0274-0.3074,1.5869-0.2339  c0.2621,0.0346,0.5439-0.0535,0.8129-0.1063c0.3646-0.0715,0.7266-0.238,1.0873-0.2314c1.4483,0.0267,2.8979,0.0692,4.3419,0.1755  c0.9062,0.0667,1.8051,0.1745,2.7318,0.0664c-0.2541-0.1983-0.5249-0.3128-0.807-0.3561c-1.1606-0.1776-2.3325-0.2918-3.4854-0.5081  c-1.3588-0.2549-2.698-0.5969-4.1002-0.5575c-0.3645,0.0106-0.7337-0.1737-1.1024-0.2618c-0.7353-0.1763-1.467-0.3735-2.209-0.5147  c-0.8426-0.1601-1.6924-0.2926-2.544-0.3933c-1.3325-0.1578-2.6701-0.2695-4.0037-0.4191c-0.6774-0.0761-1.3489-0.2019-2.0255-0.289  c-1.0509-0.135-2.1011-0.298-3.1571-0.3674c-0.6126-0.0405-1.2377,0.1327-1.8534,0.1097c-0.4845-0.0182-1.0271,0.022-1.3527-0.5439  c-0.1038-0.1804-0.4514-0.266-0.702-0.3077c-0.8117-0.1358-1.6305-0.2278-2.4457-0.3431c-0.7586-0.1071-1.5344-0.1929-1.7416-1.0827  c-1.0907-0.1983-2.1757,0.3571-3.1595-0.301c-0.113-0.0756-0.3369,0.0328-0.5065,0.0192c-0.4368-0.0349-0.8721-0.1297-1.3079-0.1279  c-0.5324,0.0023-1.1201-0.0486-1.5836,0.1535c-0.6279,0.2744-0.9869,0.4578-1.304,0.0505  c-0.3784-0.4863-0.8329-0.5183-1.3546-0.5724c-1.0996-0.1137-2.201-0.2372-3.2875-0.4353c-0.4204-0.0768-0.846-0.3095-1.1896-0.5746  c-0.3307-0.2552-0.2113-0.7294,0.1655-0.8024c0.5037-0.0976,1.0177-0.1617,1.5303-0.1912c1.549-0.0884,3.0993-0.1534,4.649-0.2267  c1.653-0.0784,3.3053-0.1921,4.9593-0.2208c1.1319-0.0195,2.2664,0.1278,3.3985,0.1137c1.4401-0.0179,2.8789-0.126,4.3185-0.1901  c0.4404-0.0197,0.8816-0.0228,1.3222-0.0336c-0.2754-0.4752-0.776-0.3884-1.2-0.4557c-0.6469-0.1028-1.3023-0.1502-1.9533-0.2275  c-1.5741-0.1873-3.1461-0.3943-4.7225-0.5606c-0.6505-0.0687-1.31-0.0548-1.9653-0.0756c-1.5531-0.0487-3.108-0.0686-4.659-0.1575  c-0.5716-0.0328-1.2159-0.0907-1.6855-0.3728c-1.4033-0.8429-2.859-1.5236-4.4413-1.9425c-0.33-0.0874-0.6651-0.2058-0.9559-0.3797  c-0.5838-0.3495-1.1408-0.7445-1.7052-1.1263c-0.2188-0.1481-0.4276-0.3113-0.775-0.5654c0.3674-0.2672,0.6197-0.4671,0.889-0.641  c0.1991-0.1286,0.4783-0.1742,0.62-0.3426c0.4107-0.4872,0.9367-0.5385,1.5052-0.5129c0.2421,0.0111,0.4852,0.031,0.726,0.0164  c0.2037-0.0123,0.4046-0.0684,0.6067-0.105c-1.2123-0.3177-2.4054-0.4668-3.6027-0.5693c-2.718-0.2331-5.4383-0.4399-8.1571-0.6656  c-0.7235-0.0602-1.4511-0.1132-2.1654-0.2362c-1.1893-0.2052-2.3722-0.4499-3.5499-0.7135  c-0.2117-0.0474-0.3851-0.2657-0.5762-0.4053c0.0292-0.0841,0.0581-0.1681,0.0873-0.2521c0.6049,0,1.2183-0.0649,1.8124,0.0146  c0.9915,0.1327,1.9674,0.3791,2.9563,0.5375c1.0883,0.1739,2.1887,0.2746,3.2755,0.457c1.7365,0.2913,3.4659,0.6264,5.2001,0.9316  c0.0948,0.0166,0.2078-0.0702,0.4463-0.1589c-0.3323-0.1537-0.5116-0.2554-0.7033-0.3223  c-2.2924-0.7993-4.6746-1.2338-7.0493-1.6842c-1.8646-0.3536-3.7513-0.5906-5.6198-0.9267  c-2.3454-0.4222-4.6823-0.8936-7.0232-1.3415c-0.848-0.1624-1.7022-0.2969-2.5445-0.4842c-0.6974-0.155-0.897-0.5764-0.7341-1.3632  c0.109-0.5263-0.0158-0.9328-0.559-1.1808c-0.9379-0.4287-1.8129-1.0064-2.8874-1.0843c-0.2764-0.02-0.5446-0.1555-0.9172-0.2685  c0.4989-0.5477,0.8893-0.9764,1.2946-1.4214c-1.4611-0.4496-3.0495-0.869-4.2928-2.2674c0.351,0,0.5733-0.022,0.7901,0.0036  c1.4198,0.1671,2.8089,0.7943,4.2752,0.2788c0.0561-0.0197,0.1355,0.0182,0.2018,0.0369c1.8278,0.5116,3.6545,1.0273,5.4838,1.5338  c0.3599,0.0997,0.726,0.1922,1.0955,0.2416c1.2833,0.1714,2.594,0.1668,3.8076,0.7348c0.4312,0.2017,0.9144,0.31,1.3855,0.401  c0.1971,0.0379,0.4246-0.081,0.7338-0.1499c-0.6082-0.9764-1.0883-1.7168-2.3622-1.7752c-1.8134-0.083-3.6688-0.2244-5.3197-1.1698  c-0.1394-0.0797-0.3441-0.1384-0.4899-0.0997c-1.2902,0.3436-2.5363-0.0909-3.7935-0.2185  c-1.7527-0.1778-3.4948-0.4586-5.2416-0.6941c-0.4847-0.0656-0.8893,0.0169-1.1086,0.5329c-0.0879,0.207-0.2495,0.383-0.4389,0.6638  c0.3838,0.1617,0.7115,0.2626,0.9979,0.433c0.1868,0.1112,0.3137,0.3233,0.4674,0.4904c-0.1976,0.1591-0.3744,0.3669-0.5988,0.4622  c-0.1686,0.0715-0.404,0.0253-0.6002-0.0141c-0.6395-0.1286-1.2695-0.3556-1.9129-0.3989  c-0.6776-0.0454-1.2661-0.2526-1.8712-0.5263c-0.6577-0.2971-1.3469-0.5759-2.0512-0.7091c-2.13-0.4033-4.2634-0.8345-6.4157-1.0627  c-2.2971-0.2434-4.5722-0.7192-6.8962-0.7156c-0.352,0.0008-0.704-0.1135-1.2858-0.2144c0.5229-0.5975,0.8867-1.0133,1.2689-1.4504  c-0.4278-0.5731-1.095-0.6635-1.7101-0.8534c-0.4722,0.6274-1.1504,0.2649-1.7296,0.3369c-0.8137,0.101-1.6722,0.2652-2.4534,0.1099  c-1.3878-0.2759-2.7316-0.7714-4.0797-1.1708c0.1183-0.8901,1.3022-0.5034,1.4716-1.3627  c-0.2004-0.0344-0.3305-0.0833-0.4568-0.0746c-3.397,0.2326-6.7529,0.0302-10.0425-0.9162  c-0.2306-0.0661-0.4758-0.0953-0.7161-0.1117c-1.6523-0.1124-3.3101-0.167-4.9565-0.3361c-2.2228-0.2283-4.4386-0.5306-6.654-0.8255  c-1.1247-0.1496-2.2405-0.3671-3.3642-0.5244c-0.5787-0.081-1.2187,0.0364-1.74-0.1681c-1.5526-0.6085-3.2013-0.4914-4.7969-0.7286  c-1.2859-0.1911-2.6217-0.0405-3.9352-0.0538c-0.4143-0.0044-0.8299-0.0344-1.2418-0.0787  c-0.2908-0.0315-0.4379-0.1862-0.2621-0.5575c0.28,0,0.6356,0.1017,0.8764-0.0212c0.4912-0.2509,0.919-0.1714,1.3917-0.0059  c0.5245,0.1839,1.0645,0.3645,1.5037-0.2116c0.0673-0.0884,0.2539-0.1187,0.3858-0.1197c0.9295-0.0072,1.8605-0.0297,2.7888,0.0103  c1.5469,0.0663,3.091,0.2003,4.6379,0.2608c1.5188,0.0597,3.0414,0.0253,4.5588,0.1007c2.106,0.1045,4.2076,0.2938,6.3133,0.4063  c1.3423,0.0717,2.693,0.0141,4.0318,0.1166c1.4012,0.1076,2.7906,0.3617,4.1897,0.5072c1.6499,0.1714,3.3057,0.2877,4.9569,0.4476  c0.2703,0.0261,0.6287,0.0008,0.742,0.4927c-1.1834,0.3085-2.3537-0.5521-3.4766,0.1007c0.5031,0.0259,0.9991-0.0077,1.4675,0.0902  c0.6326,0.1322,1.3604,0.2177,1.8349,0.5923c0.6031,0.4763,1.0637,0.5301,1.5661,0.1073c0.3362,0.1868,0.5867,0.424,0.8645,0.462  c0.8723,0.1196,1.767,0.0983,2.6306,0.2549c1.0043,0.1821,2.0837-0.0351,3.0173,0.5634c0.1916,0.1229,0.4665,0.113,0.7002,0.175  c0.4888,0.1291,0.9756,0.2654,1.4959,0.4076c0.2321-0.3684,0.5972-0.3405,0.9756-0.1804c0.5765,0.2439,1.1424,0.1796,1.7204,0.0021  c0.7302-0.224,1.4224-0.1246,2.0939,0.2518c0.2901,0.1624,0.6219,0.2939,0.9487,0.3402c2.0522,0.2908,4.1056,0.5762,6.1645,0.8137  c0.7417,0.0856,1.479,0.2467,2.2571,0.008c0.5132-0.1573,1.0868-0.0134,1.5585,0.373c0.2287,0.187,0.5323,0.3702,0.8139,0.3907  c1.5751,0.1153,3.1341,0.1496,4.6152,0.8959c1.0371,0.5227,2.1974,0.8206,3.326,1.1353c0.8467,0.2359,1.7242,0.5595,2.6058,0.0386  c0.1332-0.0786,0.34-0.0661,0.5073-0.0474c0.9113,0.1023,1.8536,0.0241,2.6808,0.5834c0.3042,0.2057,0.7015,0.3121,1.0715,0.3748  c0.829,0.1404,1.6668,0.4709,2.49,0.0034c1.1885,1.3934,3.1553,1.6655,4.3426,0.5413c-0.6569-0.6618-1.526-0.8721-2.3404-1.2003  c-0.8626-0.3474-1.6961-0.7665-2.5461-1.1457c-0.7943-0.3541-1.5933-0.6966-2.3904-1.0443  c0.1607-0.1811,0.2908-0.2362,0.3982-0.2073c1.8651,0.5012,3.7333,0.9926,5.5887,1.5285c1.5216,0.4397,2.9863,1.0781,4.5988,1.1873  c0.3707,0.0248,0.8024,0.1263,1.0535,0.5049c-0.1978,0.1876-0.3508,0.3323-0.5155,0.4886c0.3328,0.2321,0.6925,0.3574,0.8068,0.599  c0.1081,0.2293-0.0408,0.58-0.0751,0.8649c0.2962,0.0633,0.6946,0.1481,1.196,0.2552c0.1808-0.3556,0.3738-0.7348,0.5856-1.1513  c-0.2026-0.0613-0.2949-0.103-0.3912-0.1166c-0.9992-0.1407-1.1339-0.31-1.117-1.2856c0.0043-0.2575-0.0987-0.5168-0.1089-0.5652  c-0.5639-0.2744-0.9415-0.4622-1.3228-0.6428c-1.0547-0.4999-2.2394-0.4799-3.3331-0.8263  c-0.0223-0.0069-0.063,0.0257-0.0882,0.0477c-0.5024,0.4419-0.9799,0.0909-1.4572-0.0551c-0.1924-0.0589-0.359-0.2339-0.5503-0.2603  c-2.087-0.2874-4.1095-0.7606-5.9352-1.88c-0.2543-0.156-0.5874-0.1821-0.8823-0.2739c-0.6761-0.2103-1.3512-0.4237-2.098-0.6584  c0.1896-0.4043,0.3128-0.6669,0.4808-1.0253c-0.5072-0.1745-0.9794-0.3917-1.4757-0.4983c-2.8323-0.609-5.6702-1.1931-8.5071-1.7809  c-0.3981-0.0825-0.7927-0.1545-1.1426-0.6581c0.332-0.1028,0.5713-0.2468,0.8039-0.2365c1.031,0.0464,2.067,0.085,3.0877,0.2265  c0.9795,0.1355,1.9392,0.4084,2.9125,0.5951c2.1296,0.4084,4.2627,0.7983,6.3935,1.2008c0.9794,0.185,1.9494,0.4438,2.9368,0.5588  c1.5654,0.1822,3.0326,0.6607,4.4556,1.2969c0.5972,0.2669,1.3361,0.4747,1.7006,0.9479c0.6672,0.8662,1.4629,1.3525,2.4911,1.5644  c0.166,0.0341,0.3264,0.1189,0.476,0.2037c0.4558,0.2582,0.8757,0.3994,1.2761-0.1202c0.1069-0.1386,0.3664-0.247,0.5421-0.2298  c0.8465,0.0817,1.6881,0.2114,2.4629,0.3146c0.1558-0.319,0.3128-0.6413,0.486-0.9958c-1.0653-0.4171-2.087-0.971-3.1774-1.208  c-1.6502-0.359-3.1551-1.1806-4.8488-1.3845c-0.6418-0.0771-1.2523-0.3848-1.8895-0.536c-2.0788-0.4929-4.163-0.9636-6.2462-1.4383  c-0.2006-0.0456-0.4076-0.0669-0.6125-0.0894c-1.9528-0.2127-3.9081-0.4028-5.8575-0.64c-2.0573-0.2503-4.1151-0.5065-6.1616-0.8296  c-2.7621-0.4363-5.5132-0.9405-8.2699-1.4104c-0.2004-0.034-0.4281-0.0878-0.6088-0.0284  c-0.9023,0.2977-1.7762,0.0907-2.6614-0.0758c-0.4732-0.0892-0.9599-0.1745-1.4375-0.1591  c-1.5923,0.0512-3.1482-0.2575-4.7195-0.4141c-2.028-0.2018-4.0563-0.4035-6.086-0.5887c-1.6848-0.1535-3.3726-0.2734-5.0576-0.4266  c-1.0958-0.0996-2.1862-0.2664-3.2832-0.343c-2.1672-0.1512-4.3375-0.2552-6.5057-0.3948c-0.235-0.0152-0.4635-0.1363-0.6948-0.2083  c1.8905-0.1263,3.7389-0.0771,5.6766-0.4279c-4.0213-0.5441-7.9619-0.2014-11.8821-0.6633  c0.1584-0.1542,0.3285-0.2593,0.5073-0.2767c1.2721-0.1253,2.5477-0.2175,3.8184-0.3543c0.3818-0.041,0.752-0.1901,1.2457-0.321  c0.4017,0.2677,0.9195,0.4296,1.4462-0.1028c0.1284-0.1301,0.3713-0.1662,0.5696-0.2044c0.61-0.1184,1.2243-0.2144,1.8364-0.3233  c0.5252-0.0935,1.4819,0.0407,2.1193,0.3382c-1.2764,0.116-2.456,0.2234-3.6934,0.3361c0.1166,0.0815,0.1681,0.1488,0.2221,0.1509  c2.3463,0.0904,4.6923,0.1811,7.0391,0.2541c0.3764,0.0118,0.8101,0.0495,1.1224-0.1101c0.9956-0.5093,2.0373-0.3792,3.0468-0.2549  c2.43,0.2995,4.8485,0.6953,7.2714,1.0547c1.2938,0.1919,2.5838,0.4138,3.8815,0.5744c0.712,0.0884,1.4383,0.1251,2.1546,0.0982  c0.7158-0.0272,1.4255-0.1837,2.1413-0.2445c0.6423-0.0548,1.2777-0.0935,1.9968-0.6415c-0.4029-0.1301-0.6315-0.2454-0.87-0.2739  c-1.3351-0.1593-2.6714-0.3128-4.0103-0.4342c-0.4184-0.0379-0.8268,0.0392-0.9482-0.5427  c-0.0197-0.0945-0.4202-0.1529-0.6451-0.1537c-0.69-0.0023-1.3827,0.0792-2.0699,0.0418c-1.5192-0.083-3.0341-0.2501-4.5534-0.3238  c-1.3676-0.0667-2.4083-0.7756-3.4241-1.6454c2.2978-0.0512,4.5957-0.1024,6.9978-0.1562  c-0.2298-0.2957-0.3766-0.4848-0.5849-0.7533c1.113-0.1811,2.1068-0.4189,3.1108-0.4788c0.6272-0.0374,1.2687,0.2049,1.9072,0.2972  c0.1883,0.0271,0.4493,0.0435,0.5731-0.0597c0.6036-0.5042,1.2369-0.2736,1.8736-0.1445c0.3694,0.0748,0.7368,0.1862,1.1098,0.2119  c0.7566,0.0525,1.5198,0.0197,2.2741,0.0899c2.1602,0.2011,4.3254,0.3146,6.4729,0.6994c1.7895,0.3205,3.6247,0.3795,5.435,0.5941  c1.3709,0.1627,2.7334,0.3954,4.1023,0.5768c0.1998,0.0266,0.4147-0.0587,0.6228-0.0925c-0.7896-0.381-1.5844-0.5721-2.3737-0.7843  c-0.2273-0.0609-0.5903-0.1401-0.6302-0.2833c-0.1666-0.5998-0.6072-0.7525-1.1174-0.908  c-0.4826-0.1473-0.9466-0.3656-1.4042-0.5836c-1.5959-0.7599-3.358-0.7353-5.0425-1.0709  c-0.9106-0.1814-1.8441-0.2424-2.7652-0.3733c-2.3201-0.33-4.5552-1.134-6.9228-1.2198c-0.5413-0.0195-1.0732-0.2408-1.615-0.3364  c-0.4374-0.0773-0.8932-0.063-1.3231-0.165c-0.6274-0.1491-1.3863-0.0579-1.6635-0.6984c-0.674,0-1.3491,0.175-1.8741-0.0312  c-1.9509-0.7668-3.9956-0.9554-6.0384-1.2216c-2.0498-0.2672-4.092-0.5944-6.1344-0.9151c-0.1865-0.0292-0.35-0.204-0.5242-0.3111  c0.3948-0.1965,0.7315-0.2221,1.0684-0.2264c2.1469-0.029,4.2857,0.0561,6.4004,0.4693c0.385,0.0753,0.7575,0.1081,0.9297-0.4837  c-0.3159-0.1857-0.6169-0.4929-0.9525-0.5372c-1.3646-0.1807-2.7378-0.3036-4.1113-0.4048  c-1.964-0.1448-3.9308-0.2496-5.8964-0.3751c-3.623-0.2316-7.2451-0.4819-10.8693-0.6933c-2.2082-0.1289-4.42-0.197-6.63-0.2977  c-2.2084-0.1004-4.4166-0.2078-6.6248-0.3108c-0.5874-0.0274-1.1749-0.0712-1.7626-0.0707  c-2.7322,0.0021-5.4645,0.0518-8.1961,0.018c-3.0744-0.038-6.1483-0.1374-9.2217-0.2363c-0.4322-0.0138-0.8565-0.198-1.2905-0.2628  c-0.3674-0.0551-0.7501-0.1066-1.1137-0.0607c-0.5608,0.0707-1.0983,0.4578-1.6786,0.0146c-0.094-0.0718-0.363-0.0149-0.4888,0.0722  c-0.6118,0.4248-1.2449,0.2998-1.9,0.0689c-0.4704,0.689-1.1498,0.7317-1.8628,0.7059C97.6944,0.866,97.313,0.887,96.9346,0.9134  c-3.3114,0.2306-6.6222,0.4652-9.9334,0.7015c-0.1719,0.0123-0.342,0.0507-0.5129,0.0771c0.5683,0.2011,1.116,0.2687,1.6648,0.2813  c1.3138,0.0302,2.6284,0.0274,3.9422,0.0553c0.3194,0.0067,0.7076-0.1002,0.9512,0.4655C92.737,2.5733,92.467,2.685,92.1901,2.7052  c-0.9985,0.0723-2.0002,0.101-2.9991,0.1696c-1.9297,0.1328-3.8584,0.2775-5.7868,0.4256c-0.6897,0.053-1.3807,0.1086-2.0627,0.2155  c-0.1368,0.0212-0.2805,0.2656-0.3307,0.4342c-0.0187,0.0636,0.208,0.2724,0.342,0.2936c0.2667,0.0423,0.5488,0.0205,0.8203-0.0115  c0.444-0.0523,0.8821-0.166,1.3269-0.197c1.2736-0.0884,2.549-0.1535,3.8243-0.2175c1.3471-0.0677,2.6945-0.1299,4.0423-0.1796  c0.2734-0.01,0.6062-0.042,0.814,0.0896c0.8308,0.5268,1.7327,0.3618,2.6209,0.3636c0.7169,0.0013,1.4334,0.0002,2.1503,0.0002  c-0.001,0.0782-0.0018,0.1563-0.0026,0.2342c-0.8926,0.0646-1.7854,0.1227-2.6773,0.1952  c-1.1024,0.0894-2.2153,0.1256-3.3003,0.3177c-0.4512,0.08-0.8578,0.1071-1.3051,0.0587c-2.1016-0.228-4.2068-0.4343-6.1439,0.7389  c-0.0456,0.0276-0.1322-0.0123-0.307-0.0338c-0.1352-0.4492-0.4565-0.7838-1.0378-0.6444  c-0.6764,0.1622-0.5317,0.7673-0.7043,1.1701c0.4878,0.2567,0.9543,0.4178,1.3117,0.7117c0.4709,0.3871,0.959,0.5285,1.5346,0.4143  c0.5668-0.1125,1.0822-0.0236,1.6018,0.2441c0.4863,0.2506,1.0179,0.4156,1.6338,0.0838c-0.125-0.2536-0.2342-0.474-0.3451-0.6989  c0.7978-0.7722,1.6428-0.8893,2.6025-0.466c0.5277,0.2331,1.0778,0.4191,1.6266,0.6008c0.2828,0.0935,0.5342,0.1721,0.4417,0.61  c-0.258,0.1255-0.5442,0.2651-0.8304,0.4045c0.3062,0.1448,0.5691,0.135,0.8309,0.1478c0.2347,0.0113,0.4681,0.0477,0.702,0.0733  c-1.5165,0.7548-3.2028,0.0782-4.6577,0.8219c-0.0538,1.5423,0.1975,1.7404,1.6002,1.2526  c-0.0477-0.2096-0.0966-0.4246-0.143-0.6295c0.8793-0.435,2.9233-0.6257,3.7564-0.3454c-0.137,0.4822-0.2749,0.9667-0.4191,1.4745  c-0.783,0.0714-1.5259,0.1391-2.2533,0.2057c-0.0487,1.1872-0.062,1.1995-1.2123,1.1952c-0.0346-0.0003-0.0692-0.0011-0.1038-0.0011  c-2.0322,0.0005-4.0536-0.3264-6.0696-0.3581c-2.7803-0.0438-5.5752-0.3977-8.3565,0.0479  c-0.1601,0.0256-0.3336-0.0323-0.5093-0.0526c-0.0566-0.2216-0.1043-0.4076-0.1681-0.6561c-1.447,0.473-3.0162-0.0507-4.3928,0.734  c-0.134,0.0764-0.34,0.0241-0.5121,0.0359c-0.5519,0.0379-1.104,0.0725-1.6551,0.1184c-1.5807,0.1317-3.1633,0.2457-4.7397,0.4178  c-0.4245,0.0464-0.8267,0.2818-1.2433,0.4184c-0.32,0.1048-0.6408,0.239-0.9705,0.2767c-1.5431,0.177-3.0934,0.2964-4.6339,0.4922  c-1.332,0.1691-2.6575,0.3966-3.9808,0.6282c-1.735,0.3033-3.4672,0.6253-5.1945,0.971c-0.1814,0.0363-0.3205,0.2841-0.4793,0.4337  c0.1575,0.1619,0.2902,0.4151,0.4783,0.4663c0.3605,0.0984,0.7555,0.0622,1.1303,0.1212c0.2314,0.0364,0.4515,0.145,0.8196,0.2695  c-0.5577,0.5667-1.0947,0.505-1.5874,0.5242c-1.489,0.0576-2.9691,0.1529-4.4082,0.5882c-0.2608,0.0789-0.5554,0.1463-0.8167,0.1053  c-1.5877-0.249-3.0427,0.3385-4.6378,0.6792c0.3818,0.4481,0.7469,0.7596,1.3125,0.7768c0.8283,0.0248,1.6633,0.0072,2.4821,0.1109  c1.0217,0.1297,2.0335,0.3482,3.0408,0.567c0.1994,0.0436,0.36,0.2634,0.5245,0.3907c-0.3041,0.7207-0.8298,0.8834-1.468,0.8511  c-0.6697-0.0338-1.27,0.1514-1.8831,0.6003c0.9023,0.7594,1.8951,1.0202,2.9571,1.0402c0.0571,0.324,0.1027,0.5826,0.1598,0.9074  c1.1017,0.1143,2.1606,0.2659,3.2246,0.3251c1.8971,0.1053,3.7973,0.1509,5.696,0.2283c3.4134,0.1391,6.8244,0.1507,10.2301-0.1701  c0.1015-0.0095,0.206,0.0141,0.309,0.0148c2.5569,0.0154,5.1148,0.0723,7.6706,0.0241c1.093-0.0205,2.1265,0.0805,3.1216,0.5283  c0.4053,0.1824,0.8321,0.2434,1.1564-0.103c0.4592-0.4903,0.9698-0.4132,1.5636-0.2751c0.0472,0.3084,0.092,0.6005,0.155,1.0127  c-0.993,0.1824-1.923,0.4522-2.862,0.4868c-0.5285,0.0195-1.0097,0.0933-1.5057,0.2329c-0.5982,0.1686-1.2018,0.33-1.8133,0.4358  c-0.8166,0.1414-1.6433,0.2244-2.4652,0.3366c-0.8957,0.1225-1.5152,0.6042-1.851,1.4447  c-0.0738,0.1848-0.1376,0.3736-0.1953,0.5311c-1.4396,0.0851-2.811,0.1568-4.1809,0.2501c-0.847,0.0579-1.7048,0.0822-2.5338,0.2434  c-0.8063,0.1565-1.5826,0.467-2.3711,0.713c-1.373,0.4278-2.8664,0.6338-3.6988,2.0491c-0.0802,0.1363-0.2652,0.218-0.4132,0.3054  c-1.0728,0.633-2.1355,1.2018-3.451,1.2945c-0.8655,0.0608-1.8706,0.1881-2.3633,1.205c-0.3579-0.0187-0.7168,0.022-1.0409-0.0656  c-0.8936-0.2419-1.7604-0.1379-2.6412,0.0586c-1.1631,0.2598-2.378,0.2539-3.4402,0.9628c-0.742,0.4953-0.8009,0.4387-0.3344,1.3405  c0.6026-0.0828,1.2418-0.0661,1.8024-0.2678c1.4345-0.5159,1.5851-0.177,2.3332,1.0036c-0.8321,0.7847-1.8643,0.8329-2.9117,0.8941  c-0.1576-0.3825-0.2816-0.6835-0.4009-0.9738c-0.4686,0.0205-0.7369,0.1776-0.7584,0.6116  c-0.032,0.6471-0.4601,0.8698-1.0151,0.9861c-0.496,0.1037-1.0096,0.188-1.4552,0.6717c0.5127,0.3707,0.9715,0.7023,1.5103,1.0917  c-0.6717,0.4586-0.1235,0.8565-0.0097,1.2823c-0.3928,0.405-0.8859,0.4107-1.3581,0.4504  c-1.1332,0.0955-2.2756,0.1173-3.4001,0.2718c-2.4293,0.3333-4.9098,0.1939-7.3076,0.8216  c-0.7878,0.2063-1.6004,0.3167-2.4226,0.475c0.1332,0.9721-0.2449,1.7084-0.5954,2.4626c-0.5288,1.1386-0.9792,1.4168-2.2497,1.2997  c-0.3394-0.0312-0.6776-0.0617-0.7745,0.4238c0.5801,0.1104,1.1183,0.1803,1.6369,0.3223c0.4227,0.1155,0.8129,0.3461,1.2333,0.4737  c0.6287,0.1909,1.2757,0.321,1.9059,0.507c0.3805,0.1122,0.7625,0.3323,0.6677,0.7901c-0.1246,0.6024,0.167,0.886,0.6141,1.1704  c0.4173,0.2656,0.3833,0.6599,0.042,0.9558c-0.2465,0.2135-0.5713,0.3539-0.8819,0.4722c-0.372,0.142-0.7662,0.2257-1.3117,0.3802  c0.3379,0.2888,0.5278,0.4512,0.7571,0.6472c-0.5824,0.9782-1.2213,1.7908-2.4905,1.7332  c-0.5847-0.0264-1.1704-0.0415-1.7558-0.0479c-0.7376-0.008-1.4754-0.0018-2.1344-0.0018c-0.1985,0.8564-0.3192,1.676-0.5823,2.4469  c-0.5055,1.4822-1.3136,2.6448-3.1126,2.7073c-1.9561,0.0684-3.678,1.0056-5.6743,1.5997c0.2705,0.1673,0.4263,0.3456,0.5549,0.3277  c0.373-0.052,0.7402-0.1665,1.1004-0.2852c1.3561-0.446,2.7239-0.797,4.1717-0.6171c0.7276,0.0904,0.8921,0.4114,0.5267,1.0414  c-0.1468,0.2531-0.3033,0.5006-0.5118,0.8432c1.0309,0.1721,1.481,0.8954,1.9737,1.5418c0.4345,0.5698,0.309,0.9346-0.3633,1.1641  c-0.4891,0.1671-1.0107,0.2401-1.4975,0.413c-0.1837,0.0651-0.4112,0.2762-0.4403,0.4507c-0.0554,0.332,0.2157,0.4906,0.5254,0.494  c0.3787,0.0043,0.7581-0.0241,1.1362-0.05c1.1391-0.0776,2.0468,0.5006,2.4278,1.5531c0.1716,0.4739-0.0564,1.0886-0.5183,1.3171  c-0.2775,0.1373-0.5795,0.2249-0.8711,0.3341c-0.9039,0.3389-1.8082,0.6774-2.7124,1.0158c-1.0968,0.4107-2.1984,0.8096-3.288,1.239  c-0.3436,0.1355-0.6667,0.3346-0.9787,0.536c-0.7835,0.5044-1.5557,0.9743-2.5149,1.1488  c-0.8992,0.1634-1.8538,0.3807-2.4787,1.4706c0.9092-0.35,1.6399-0.6559,2.3875-0.9116c0.6531-0.2234,1.3182-0.3505,1.8549,0.2887  c-1.1644,0.8232-2.2671,1.6384-3.4064,2.3986c-1.123,0.7491-2.3714,1.3097-3.5733,2.253c0.606,0.3794,1.0579,0.6625,1.5109,0.9462  c0.7486-0.3544,1.4588-0.6295,2.1062-1.0115c0.9302-0.5493,1.508-0.4696,2.1026,0.4242c0.206,0.3095,0.3815,0.6393,0.546,0.918  c0.2085,0,0.3192,0.0254,0.4114-0.0051c0.2275-0.0753,0.4491-0.1706,0.6687-0.2677c0.6628-0.2929,0.9982-0.2327,1.4386,0.3356  c0.5798,0.7481,0.5047,1.5951,0.3707,2.5423c-1.3048-0.2606-2.2566,0.4496-3.2863,0.8984c0.3502,0.2919,0.6577,0.5478,0.9241,0.7699  c-0.251,0.5729-0.4557,1.0407-0.6369,1.4534c0.8329,0.8578,1.633,1.5624,2.6355,2.0855c0.7451,0.3887,1.3899,0.5214,2.159,0.2959  c0.2309-0.0676,0.4776-0.1314,0.7128-0.1186c0.2477,0.0136,0.6226,0.0471,0.7086,0.2019c0.2017,0.3633-0.1849,0.5221-0.4283,0.6984  c-0.0825,0.0597-0.1819,0.112-0.2808,0.1304c-0.5437,0.102-0.71,0.5344-0.9454,0.9651c0.9356,0.1909,1.7896-0.3433,2.7757-0.0802  c-0.2303,0.2654-0.381,0.4389-0.6495,0.7484c1.2216-0.2088,2.2869-0.2524,3.2386-0.6036c0.6075-0.2242,1.165-0.3441,1.7875-0.3395  c0.4819,0.0036,0.9641-0.0418,1.4465-0.0471c0.1827-0.0023,0.3659,0.0461,0.5931,0.0773c-0.1122,0.5209-0.4101,0.7023-0.8077,0.7861  c-1.082,0.2285-2.1634,0.4586-3.2435,0.695c-0.2347,0.0515-0.534,0.0623-0.6803,0.2122c-0.4096,0.4199-0.9102,0.4222-1.3655,0.4019  c-0.0138,0.2291,0.0471,0.5183-0.0474,0.5844c-0.9408,0.6569-1.6866,1.6728-3.0114,1.6456  c-0.4299-0.0087-0.8008,0.1755-1.0076,0.6531c0.2116,0.3358,0.4243,0.6735,0.6241,0.9907c-0.1988,0.4327-0.4868,0.383-0.8119,0.3108  c-0.8985-0.1991-1.7657-0.1346-2.6363,0.2211c-0.4673,0.1908-1.0058,0.259-1.5162,0.2802  c-0.6528,0.0272-1.0122,0.3077-1.1549,0.9203c0.2536,0.1978,0.4988,0.34,0.6802,0.5398c0.4919,0.5416,0.5552,1.4012,0.0835,1.7289  c-0.6011,0.4178-0.951,0.9453-1.1742,1.6394c-0.4148,1.2897-1.2876,2.0006-2.7142,1.8677  c-0.1363-0.0126-0.2874-0.0195-0.4114,0.0259c-0.1525,0.0561-0.3203,0.1411-0.4174,0.2641c-0.31,0.392-0.5905,0.8075-0.9925,1.3676  c0.4099,0.299,0.8785,0.6407,1.2236,0.8923c-0.1204,0.6426-0.3115,1.064-0.2423,1.4371c0.0966,0.5193-0.0992,0.7752-0.4781,1.0245  c-0.1937,0.1276-0.3507,0.311-0.4842,0.4327c0.1693,0.5767,0.3192,1.0876,0.5014,1.7089c0.2282,0.1071,0.6435,0.1947,0.8936,0.4463  c0.3208,0.3228,0.6446,0.754,0.7197,1.1818c0.0912,0.5217-0.4387,0.7159-0.8703,0.8744c-0.1297,0.0474-0.2796,0.0564-0.3936,0.1263  c-0.3689,0.2263-0.7258,0.4725-1.0704,0.7c0.6541,1.3929,0.6541,1.3929,1.5754,1.2105c0.2191-0.8669,0.4096-1.1039,0.9146-0.8529  c0.6598,0.3282,1.3246,0.2998,2.0063,0.3574c0.6031,0.0508,0.7796,0.2875,0.7971,0.8765c0.0197,0.6677-0.122,0.9469-0.7786,1.167  c-0.3856,0.1294-0.8237,0.1017-1.2777,0.1486c1.2303,0.8864,2.5512,0.9776,3.9857,0.3167c-0.2198,1.0086-0.815,1.2648-1.7076,1.1183  c0.8406,0.9371,1.2967,1.0596,2.2372,0.6825c0.6546-0.2626,1.0655-0.1245,1.2871,0.5377c0.1586,0.4743,0.3912,0.794,0.7486,0.8701  c0.5314-0.1555,0.9636-0.4166,1.3412-0.353c0.3556,0.0594,0.6539,0.4611,1.0161,0.7427c0.6902-1.1219,1.8237-1.1773,2.9814-1.1878  c0.6208-0.0056,1.2441-0.0125,1.8606-0.0758c1.0294-0.1056,2.0547-0.2508,3.0802-0.391c0.4087-0.0561,0.6728,0.1415,0.8371,0.4704  c0.1942,0.3892-0.0295,0.6533-0.3333,0.8734c-0.6762,0.4894-1.4632,0.5849-2.2615,0.6469c-0.3085,0.0241-0.6972-0.0464-0.909,0.1127  c-0.7184,0.5399-1.8257,0.5145-2.1116,1.5283c-0.4407-0.0479-0.7738-0.0843-1.1453-0.1248  c-0.3725,1.0522-1.3619,1.2267-2.171,1.6574c-0.8196,0.436-1.7478,0.7652-2.408,1.3783c-0.7617,0.7079-1.5685,1.2072-2.5312,1.5316  c-0.702,0.2367-1.3841,0.5313-2.1742,0.8388c0.2401,0.3494,0.3715,0.5849,0.5452,0.7834c0.3185,0.3638,0.6743,0.6949,0.9925,1.0589  c0.6836,0.7812,0.5163,1.5303-0.3845,2.0058c-0.4504,0.238-0.9195,0.5081-1.2575,0.876c-0.5147,0.5605-1.1101,0.9187-1.8233,1.1275  c-0.2301,0.0671-0.497,0.1163-0.6656,0.2657c-0.5188,0.4591-1.1401,0.6046-1.7878,0.7555c-0.4975,0.1161-1.042,0.2403-1.4849,0.8311  c0.6366,0.0479,1.1111,0.093,1.5869,0.1168c0.4791,0.0236,0.9953-0.0312,1.0791,0.7236c-0.3904,0.217-0.8703,0.3499-1.1478,0.6627  c-0.8954,1.0097-1.8577,1.9174-3.0116,2.632c-0.2065,0.1278-0.3287,0.5272-0.3241,0.7986c0.002,0.1181,0.4112,0.2767,0.6551,0.3353  c1.1536,0.2777,2.2717,0.6108,3.1167,1.5216c0.1132,0.1219,0.2702,0.2162,0.4242,0.2854c0.9459,0.4243,1.5961,1.1895,2.262,1.9382  c0.1811,0.2039,0.332,0.5203,0.5552,0.5854c0.7271,0.2119,0.9269,0.8539,1.3981,1.4134c-0.5145,0.1184-0.92,0.2119-1.3253,0.3052  c-0.0049,0.0809-0.0098,0.1621-0.0146,0.2431c0.272,0.0838,0.559,0.1366,0.8126,0.2585c0.4251,0.2042,1.0246,0.3551,1.199,0.704  c0.3208,0.6416,0.7955,0.7912,1.392,0.898c0.8495,0.1525,1.7065,0.29,2.5364,0.5199c1.261,0.3494,2.4912,0.83,3.8422,0.5551  c0.1596-0.0325,0.3702-0.0182,0.5042,0.0626c0.6138,0.3699,1.2277,0.209,1.7952-0.0367c0.7412-0.321,1.4754-0.195,2.2819-0.1821  c0,0.3069,0,0.5603,0,0.787c0.9436,0.4163,1.8081,0.5736,2.746,0.1127c0.5434-0.2667,1.1255-0.0297,1.3563,0.412  c0.2027,0.3881,0.3638,0.7978,0.5511,1.2159c-0.3259,0.732-0.8693,1.1803-1.6912,1.3394c-0.7099,0.1376-1.4183,0.3205-2.0975,0.5655  c-0.4778,0.1721-0.88,0.5713-1.3619,0.7117c-0.9241,0.2695-1.8795,0.4337-2.8244,0.6285c-0.8178,0.1685-1.6392,0.3189-2.4587,0.4773  c-0.0036,0.074-0.0075,0.148-0.0111,0.2221c0.3129,0.0571,0.6236,0.1347,0.9393,0.1665c0.55,0.0556,1.1093,0.0454,1.6514,0.1399  c0.2286,0.0397,0.5575,0.2462,0.597,0.4296c0.0441,0.2032-0.1337,0.5301-0.3146,0.6915c-0.445,0.3964-0.9692,0.586-1.6041,0.5985  c-1.8464,0.0372-3.0014,1.1895-3.1871,3.1228c0.1762,0.0718,0.3753,0.1302,0.5518,0.2286c1.0189,0.5672,2.3043,0.7624,2.8172,2.0447  c0.0638,0.1601,0.3033,0.3348,0.4765,0.352c0.99,0.0981,1.9841,0.1542,2.9776,0.216c0.2757,0.0172,0.5567-0.0231,0.8293,0.012  c0.5929,0.0764,0.7474,0.3149,0.7379,0.9047c-0.0123,0.7527-0.5409,1.0501-1.124,1.2723c0.0236,0.5618,0.4194,0.7068,0.7614,0.8067  c0.7394,0.2158,1.2116,0.6282,1.2321,1.4522c0.8942,0.3359,1.9653,0.1542,2.5136,1.1426c0.7509-0.1588,1.4483-0.3212,2.1523-0.4447  c0.183-0.0321,0.4258,0.001,0.5757,0.1017c0.9144,0.6149,1.9141,0.8859,3.0114,0.9108c0.3149,0.0069,0.681,0.1529,0.9259,0.3543  c0.5826,0.4783,0.4929,0.8306-0.154,1.2631c-0.3594,0.2403-0.7345,0.5382-0.9441,0.9018c-0.3067,0.5316-0.093,0.8647,0.485,1.0958  c0.3103,0.124,0.5813,0.3448,0.8883,0.4801c0.7714,0.3397,1.3501,1.0166,2.4379,0.6838c1.1032-0.3374,2.0456,0.6054,3.0475,1.0189  c0.2063,0.6587,0.8396,0.8857,1.2964,1.2925c0.0636,0.0566,0.0725,0.1747,0.1145,0.2844c-0.2474,0.1565-0.4744,0.3-0.7506,0.4747  c0.7127,0.2524,1.1836,0.0531,1.5034-0.446c0.3873,0.0907,0.7475,0.2923,1.0396,0.2198c0.6902-0.1714,1.2055,0.083,1.713,0.4371  c0.0855,1.1713,0.1873,1.4014,0.9751,1.6081c1.4944,0.3925,2.9888,0.8417,4.5127,1.0418c0.7857,0.1029,1.4157,0.2659,1.8574,0.8398  c0.3008-0.2544,0.5304-0.6103,0.7942-0.6377c0.5353-0.0559,1.218-0.115,1.6033,0.1594c0.5045,0.3594,0.8945,0.1685,1.3469,0.1316  c0.1786-0.0146,0.3594-0.0025,0.5391-0.0025c-0.151,0.2723-0.3262,0.4542-0.5348,0.5093c-0.8644,0.2275-1.7344,0.4376-2.6104,0.6149  c-1.1144,0.2257-2.2394,0.3997-3.3529,0.63c-0.2085,0.043-0.4834,0.2057-0.5569,0.3838c-0.3042,0.7368-0.9342,0.8951-1.5977,0.9453  c-1.7865,0.1356-3.575,0.2555-5.3651,0.3331c-1.115,0.0484-2.2338,0.009-3.4313,0.009c0.3577,0.7171,0.7087,1.263,1.5705,1.1959  c0.2193-0.0169,0.493,0.0828,0.6715,0.2198c0.9554,0.7333,2.0145,0.9254,3.18,0.7205c0.3397-0.06,0.6922-0.0492,1.1726-0.0792  c-0.177,0.2065-0.2103,0.2754-0.2644,0.3015c-0.0915,0.0446-0.1996,0.0954-0.2949,0.0859c-1.0097-0.1007-1.9156,0.4007-2.562,0.9538  c-0.6392,0.547-1.3676,0.7128-2.037,1.0771c-0.3584,0.1947-0.7901,0.2498-1.166,0.4181c-0.6656,0.2982-0.6828,0.6172-0.1473,1.1457  c1.1147-0.5833,2.1826-1.2228,3.3178-1.7045c0.6389-0.271,1.2636-0.4939,1.8041-0.9594c0.6933-0.597,1.5267-0.9365,2.446-1.0418  c0.714-0.0817,1.427-0.1749,2.1418-0.2492c0.2275-0.0239,0.4594-0.0039,0.6833-0.0039c0.0974,1.0855,0.0215,1.1798-0.8144,1.3604  c-0.3974,0.0859-0.7699,0.2811-1.165,0.3838c-0.4232,0.1099-0.8595,0.1694-1.1544,0.2252c-0.2772,0.5901-0.4953,1.0543-0.712,1.5152  c1.0371,0.1791,1.0371,0.1791,1.066,1.2213c0.0195,0.7002,0.3211,0.9515,0.9918,0.7824c0.2634-0.0661,0.5498-0.1619,0.7514-0.332  c1.1314-0.9554,2.48-1.4206,3.8853-1.7373c1.21-0.2728,2.43-0.5124,3.6557-0.7017c2.3071-0.3559,4.6175-0.9098,6.9392-0.0354  c0.2383,0.0897,0.5483,0.0261,0.8178-0.013c0.8506-0.1243,1.6968-0.276,2.5461-0.4072c1.137-0.1752,2.274-0.096,3.407,0.0421  c0.1718,0.021,0.3281,0.1685,0.5136,0.2695c-0.6653,0.6392-0.9594,0.7934-2.0826,0.8416c-1.3809,0.0592-2.7652,0.0448-4.1479,0.0651  c-0.4284,0.0064-0.8567,0.0215-1.2851,0.0328c0.0925,0.3261,0.2196,0.5203,0.3728,0.5439c0.578,0.0889,1.1787,0.2316,1.7447,0.1563  c1.6394-0.2181,3.2373,0.1578,4.8545,0.2288c0.6138,0.0266,1.2515,0.0248,1.8313,0.1954c0.9487,0.2788,1.9059,0.6013,2.7708,1.0694  c0.6851,0.371,1.332,0.6743,2.1213,0.6956c0.2116,0.0056,0.4163,0.2685,0.6241,0.4132c-0.1914,0.164-0.3622,0.433-0.5777,0.4753  c-1.5229,0.3003-3.0585,0.5365-4.5829,0.8298c-0.8086,0.1555-1.6087,0.3643-2.4019,0.5878c-0.5296,0.1491-1.0279,0.417-1.561,0.5436  c-1.7099,0.4058-3.4656,0.631-5.093,1.3522c-0.1845,0.0818-0.4033,0.1169-0.6067,0.1184c-0.7942,0.0069-1.4762,0.3264-2.1393,0.7168  c-0.2067,0.1217-0.413,0.2652-0.6392,0.3293c-1.3271,0.3766-2.6622,0.7255-3.9893,1.1026  c-0.2329,0.0661-0.4404,0.2214-0.6599,0.3354c0.2513,0.1809,0.4468,0.2234,0.6433,0.2306c1.1959,0.0441,2.3181-0.3103,3.4548-0.6162  c0.5924-0.1593,1.2331-0.3082,1.8296-0.2454c1.1659,0.1227,2.3086-0.0159,3.444-0.1624c2.0548-0.2655,4.0952-0.6393,6.1442-0.9487  c0.9211-0.1392,1.8519-0.2145,2.7734-0.3508c1.3635-0.2016,2.7162-0.5493,4.0851-0.6261c3.2425-0.1822,6.4916-0.2555,9.7389-0.3354  c0.505-0.0123,1.0738,0.0633,1.506,0.2964c0.4278,0.2306,0.7481,0.185,1.1634,0.0815c0.6305-0.1571,1.2812-0.3197,1.9243-0.3241  c1.7942-0.012,3.5891,0.0523,5.3833,0.0986c0.1599,0.0041,0.3174,0.0971,0.5201,0.1632c-0.05,0.4328-0.0961,0.8311-0.1543,1.3361  c0.5278,0.132,1.0253,0.2565,1.5987,0.3997c-0.3902,0.258-1.0729-0.1627-1.0496,0.6802c0.24,0,0.4706,0.0233,0.6953-0.0038  c1.0543-0.1287,2.0509-0.0877,2.9622,0.5954c0.3072,0.23,0.7696,0.2672,1.169,0.3558c0.5027,0.1117,1.0161,0.1748,1.5203,0.2803  c0.37,0.0774,0.7048,0.0653,1.0984-0.2139c-1.0986-0.4714-2.3102-0.3164-3.2628-1.0366c0.6785-0.7268,1.4724-0.3315,2.1516-0.5127  c-0.6502-0.1345-1.3266-0.3568-1.931-0.231c-1.7227,0.3581-2.748-0.6195-3.8363-1.6935c0.1581-0.0999,0.2372-0.1814,0.3295-0.2014  c0.167-0.0359,0.3461-0.0671,0.5126-0.0443c1.8482,0.2521,3.6957,0.5119,5.5421,0.7775c0.4784,0.0687,0.9518,0.2327,1.4289,0.2388  c2.7188,0.0351,5.4381,0.0331,8.1569,0.051c0.3755,0.0026,0.7532,0.0284,1.1257,0.0748c1.8516,0.2308,3.6982,0.5073,5.5544,0.6874  c0.5193,0.0502,1.0658-0.1704,1.599-0.2711c0.1327-0.0248,0.2644-0.103,0.393-0.096c1.6796,0.0919,3.3585,0.1947,5.0376,0.2951  c1.5173,0.0907,3.0337,0.2019,4.5522,0.2665c1.2377,0.0527,2.4803,0.0076,3.7159,0.083c1.3794,0.084,2.7508,0.3015,4.1305,0.3776  c2.119,0.1171,4.2429,0.6003,6.363-0.0033c0.0638-0.0182,0.1409-0.0144,0.2062,0.0015c1.0955,0.2641,2.0839-0.3612,3.1459-0.3799  c0.1312-0.0023,0.2808-0.0574,0.3881-0.1348c0.742-0.5355,1.5785-0.4337,2.4032-0.3559c0.7227,0.0682,1.4385,0.2173,2.1618,0.2701  c1.8879,0.1378,3.7592,0.5247,5.6784,0.1862c0.7238-0.1276,1.5072,0.0666,2.2617,0.135c0.7143,0.0649,1.4414,0.2883,2.1357,0.2083  c1.1486-0.1322,2.2782-0.1196,3.4124,0.0287c0.7511,0.0984,1.4915,0.3024,2.2445,0.362c1.4442,0.1146,2.8515,0.3057,4.2745,0.6667  c2.3334,0.5921,4.7409,0.899,7.1233,1.2882c0.6946,0.1134,1.4099,0.0981,2.1698,0.1452c-0.4471-0.3336-0.9474-0.538-1.1611-0.9082  c-0.2777-0.4814-0.6536-0.5596-1.0978-0.6341c-0.7076-0.1186-1.4245-0.0579-2.1265-0.3638  c-1.2917-0.5631-2.6114-1.0914-3.9641-1.4778c-1.7914-0.5116-3.6227-0.8854-5.4425-1.2938  c-0.8772-0.1967-1.7253-0.3945-2.3714-1.1093c-0.2685-0.297-0.6751-0.4666-1.0094-0.7074c-0.1904-0.1371-0.4448-0.2654-0.527-0.4589  c-0.3331-0.7832-0.958-1.015-1.7988-1.0737c0.0008,0.5724-0.3451,0.7256-0.818,0.6841c-0.9231-0.081-1.8465-0.1599-2.7673-0.2624  c-0.4773-0.053-0.9464-0.1827-1.4239-0.2295c-1.5951-0.1563-3.1925-0.2908-4.7889-0.4335c0.0041-0.0751,0.0082-0.1499,0.0125-0.225  c0.5137,0,1.031,0.0354,1.5403-0.0138c0.2875-0.0279,0.7058-0.1158,0.8145-0.3141c0.3-0.5465,0.7465-0.5578,1.2405-0.5316  c0.725,0.0384,1.4491,0.1007,2.1744,0.1324c0.7245,0.0318,1.4664,0.1458,2.172,0.0372c2.426-0.3738,4.8286-0.0953,7.2349,0.1424  c0.3241,0.0321,0.6338,0.207,0.9359,0.3108c-0.03,0.1624-0.0428,0.2283-0.0541,0.2946c-0.0159,0.0938-0.0308,0.1878-0.0556,0.3423  c1.6269,0.4935,3.1833,0.2949,4.6598-0.3735c0.499-0.2257,0.9351-0.3682,1.4703-0.3123c0.4435,0.0463,0.9508,0.1565,1.3312-0.0005  c0.856-0.3533,1.6108-0.1799,2.4078,0.1283c0.3161,0.1225,0.6858,0.1066,1.0314,0.1537c0.0436-0.0725,0.0874-0.145,0.1312-0.2172  c-0.269-0.422-0.6315-0.8127-0.7865-1.2731c-0.2667-0.7934-0.8486-1.0548-1.5303-0.9041c-1.3338,0.2946-2.6189-0.0215-3.9129-0.1676  c-1.4225-0.1606-2.8047-0.6874-4.2658-0.4417c0.5608,0.6029,1.2444,0.9152,2.0747,0.7271c1.187-0.269,2.3307,0.0328,3.49,0.1889  c0.5088,0.0686,1.0297,0.043,1.5426,0.0876c0.2382,0.0205,0.4706,0.1068,0.7058,0.1632c-0.0054,0.0984-0.0108,0.197-0.0159,0.2954  c-0.3154,0.0364-0.6366,0.1309-0.9451,0.0991c-1.498-0.1534-3.0057-0.1135-4.5048-0.2803  c-1.2664-0.1411-2.5535-0.0994-3.8179-0.2526c-0.8841-0.1071-1.747-0.2785-2.6501-0.1803  c-0.3325,0.0361-0.7461-0.0951-0.8132-0.6808c0.4691,0,0.8849,0.0569,1.2787-0.012c0.804-0.1404,1.7765,0.3833,2.3868-0.6318  c0.1083-0.1804,0.571-0.1768,0.8746-0.2016c0.2345-0.0192,0.4804,0.0945,0.7143,0.073c1.7517-0.1604,3.5025-0.3326,5.2519-0.517  c0.6851-0.0723,1.3681-0.1712,2.0475-0.2844c0.4543-0.0756,0.7492-0.3267,0.7492-0.8352c0-0.2011,0.0353-0.402,0.065-0.7105  c2.4365-0.4729,4.8965-0.4081,7.3653-0.3645c-0.1161-0.9162-0.7174-1.0054-1.3072-1.0748  c-1.3391-0.1578-2.6821-0.2831-4.0208-0.4458c-0.5651-0.0684-1.1744-0.0853-1.5646-0.6915  c0.2565-0.1552,0.4745-0.2872,0.8086-0.4896c-0.2547-0.0914-0.3748-0.1716-0.495-0.1721c-1.1734-0.0041-2.3476,0.0371-3.5192-0.0044  c-0.5029-0.0177-1.0091-0.1701-1.4933-0.3253c-0.134-0.0431-0.2516-0.3116-0.2647-0.4853  c-0.0067-0.0891,0.2234-0.2593,0.3646-0.2821c0.2318-0.0374,0.4783,0.0308,0.7184,0.0264c0.4757-0.0092,0.9953,0.0777,1.417-0.0835  c0.7314-0.2795,1.4765-0.3208,2.2279-0.3697c1.3059-0.0848,2.6227-0.2705,3.9191-0.1827c2.7559,0.1868,5.5024,0.517,8.2514,0.7991  c0.958,0.0981,1.9118,0.2347,2.869,0.3413c1.0624,0.1186,2.1259,0.2298,3.1902,0.3318c0.787,0.0753,1.5789,0.1042,2.3632,0.1998  c1.7472,0.2132,3.4897,0.466,5.2372,0.6771c0.4332,0.0526,0.8782,0.008,1.2651,0.008c0.1166-0.4686,0.1004-0.9659,0.2906-1.064  c0.6228-0.3221,1.1687-0.8821,1.9691-0.7978c0.207,0.0217,0.4255-0.0664,0.8132-0.1348c-0.5788-0.5134-1.1048-0.5811-1.6543-0.6397  c-0.8532-0.0907-1.7147-0.1417-2.3952-0.8194c-0.2211-0.2203-0.6195-0.3171-0.9518-0.3627  c-1.983-0.2719-3.9714-0.5035-5.9551-0.7704c-0.3871-0.0523-0.7617-0.2001-1.1732-0.3123c0.1981-0.6213,0.6316-0.7048,1.0254-0.7264  c1.0681-0.0581,2.1392-0.0737,3.2091-0.0763c0.4809-0.0013,0.9646,0.1184,1.4422,0.0927c0.4686-0.0248,0.931-0.1642,1.532-0.2795  c-2.1254-0.1916-4.0261-0.7489-5.965-1.1887c0.9827-0.2655,1.9529-0.464,2.9329-0.5785c2.0916-0.2442,4.1881-0.4443,6.2826-0.6639  c0.0684-0.0071,0.136-0.0258,0.2026-0.0438c2.8464-0.7701,5.765-0.963,8.6913-1.1413c1.2644-0.0772,2.5187-0.3234,3.7549-0.4896  c0.2203-1.2049,0.2101-1.2987,1.4234-1.4307c1.9549-0.2126,3.8548-0.8177,5.8468-0.7747c0.4222,0.009,0.868-0.1873,1.2695-0.3646  c0.3653-0.1616,0.6853-0.426,1.0676-0.6725c-0.1384-0.2939-0.2944-0.6246-0.4594-0.9746c-0.2808,0.0151-0.5242,0.0008-0.7561,0.0456  c-2.19,0.423-4.4069,0.4194-6.6145,0.3154c-2.312-0.1091-4.6173-0.3587-6.9249-0.5516c-0.5083-0.0425-1.0204-0.0743-1.5208-0.1655  c-0.7581-0.1384-1.5018-0.4238-2.2625-0.4696c-1.5441-0.0933-3.0951-0.0805-4.6436-0.0869  c-1.0624-0.0046-2.1257,0.0254-3.1882,0.0525c-1.0253,0.0264-2.0583-0.3061-3.0782,0.0682  c-0.0863,0.0318-0.2042-0.0164-0.3062-0.0348c-1.4134-0.255-2.8233-0.0974-4.2396-0.0034  c-1.4421,0.0958-2.8907,0.1112-4.3367,0.1179c-0.2118,0.001-0.425-0.2401-0.6376-0.3692c0.1437-0.207,0.2475-0.5396,0.4373-0.5993  c0.8552-0.269,1.7237-0.5467,2.6081-0.6597c1.229-0.157,2.4772-0.1622,3.7162-0.2462c1.5869-0.1076,3.1715-0.2685,4.76-0.3325  c1.4126-0.0569,2.8307,0.0243,4.2441-0.0213c3.3153-0.1071,6.6374,0.0774,9.9485-0.3005c1.0546-0.1204,2.166,0.1752,3.2025-0.0031  c1.5242-0.2623,3.0358-0.0892,4.5499-0.1668c0.5813-0.0297,1.1647-0.0146,1.7473-0.0212c0.4768-0.0054,0.9538-0.0013,1.4298-0.0218  c1.8911-0.0812,3.7872-0.2954,5.6708-0.2137c1.3048,0.0566,2.5461-0.1096,3.7999-0.3418c0.2234-0.0412,0.4181-0.2385,0.7489-0.4376  c-1.3038-0.5546-2.6622-0.2408-3.7441-1.0719c0.4624-0.5424,1.0914-0.3156,1.663-0.4681c-1.1775-0.1127-2.2756-0.2193-3.3739-0.3223  c-0.7891-0.074-1.5772-0.1634-2.3678-0.2098c-1.3463-0.0789-2.6965-0.1004-4.0403-0.2068  c-0.5032-0.0399-0.9874-0.3305-1.4903-0.3671c-1.4111-0.1027-2.8274-0.1263-4.2411-0.1939  c-0.7364-0.0354-1.5342,0.1629-2.1124-0.5391c-0.0661-0.0804-0.2606-0.0694-0.3969-0.0763  c-1.6555-0.0846-3.3106-0.1873-4.9674-0.2391c-1.6912-0.053-3.3844-0.0494-5.0764-0.0817c-0.654-0.0125-1.3076-0.0858-1.9609-0.0799  c-2.1347,0.0195-4.2634,0.199-6.4037,0.1417c-2.7465-0.0738-5.496-0.0521-8.244-0.0277c-1.7576,0.0154-3.5146,0.1127-5.2721,0.1632  c-0.113,0.0033-0.2283-0.0807-0.5014-0.1847c0.3005-0.1653,0.4519-0.3029,0.6223-0.3328c0.6794-0.1197,1.2072-0.3085,1.4081-1.1217  c0.1593-0.6456,0.8649-0.8121,1.5167-0.5716c0.3474,0.1281,0.7217,0.2173,1.0904,0.2491c1.0317,0.0891,2.0721,0.0932,3.0987,0.2172  c1.0502,0.1271,1.9528-0.206,2.5712-0.9664c0.4463-0.5487,0.9582-0.7163,1.5167-0.6517c1.7473,0.2021,3.5292-0.1107,5.2575,0.4258  c0.7563,0.2346,1.5027,0.1327,1.9804-0.6741c0.1192-0.2009,0.3887-0.3128,0.7638-0.599c-0.5344-0.0333-0.9103-0.1307-1.2564-0.0663  c-2.5354,0.4701-5.0285-0.1169-7.5382-0.2693c-0.2695-0.0164-0.5224-0.1007-0.5767-0.474c2.1997,0.0149,4.4115,0.3262,6.2362-1.3063  c0.8705,0.6704,1.7331,0.5428,2.6111,0.0548c0.1625-0.0902,0.4128-0.1225,0.5898-0.0705c1.6991,0.5001,3.3975,0.1158,5.092,0.0008  c0.6133-0.0415,1.1959-0.1822,1.8387-0.0669c0.5524,0.0992,1.1983,0.0323,1.7261-0.166c0.8229-0.3092,1.716-0.3743,2.4336-0.1266  c0.8849,0.3054,1.5995,0.1889,2.3883-0.1006c0.2222-0.0818,0.475-0.1102,0.7138-0.11c1.7206,0.0018,3.4412,0.0249,5.1619,0.0241  c0.5477-0.0002,1.0952-0.0627,1.6433-0.0786c0.7209-0.0213,1.4424-0.0177,2.1631-0.0387c0.3453-0.0103,0.6894-0.0602,1.0345-0.0789  c0.8747-0.0472,1.7186,0.1301,2.6314-0.2214c0.7817-0.3008,1.7755,0.0075,2.6522-0.1178c1.5928-0.2278,3.1684-0.5762,4.7497-0.8821  c0.0292-0.0057,0.0392-0.1107,0.0646-0.1886c-0.0884-0.0394-0.175-0.1043-0.2678-0.114c-0.1709-0.0182-0.3461-0.0164-0.5175-0.0015  c-2.5492,0.2213-5.084,0.2521-7.6312-0.1509c-1.5987-0.2529-3.2358-0.2626-4.856-0.3795c-1.5846-0.1142-3.1694-0.2249-4.754-0.3392  c-0.5168-0.0371-1.0323-0.1027-1.5493-0.1173c-1.8984-0.0538-3.7974-0.0838-5.6958-0.1373  c-2.6596-0.0754-5.3192-0.1517-7.9781-0.2524c-1.242-0.0469-2.4826-0.1419-3.7215-0.2424  c-0.1889-0.0151-0.3659-0.1783-0.5483-0.2728c0.0151-0.0707,0.0302-0.1414,0.0453-0.2121c1.2306-0.0715,2.4604-0.1761,3.6916-0.2024  c0.7884-0.0167,1.5821,0.1493,2.3678,0.1127c0.9313-0.0436,1.8564-0.2168,2.9932-0.36c-0.8529-0.4168-1.6438,0.1117-2.3404-0.5582  c2.117-0.3241,4.121-0.2998,6.127-0.4074c-0.2846-0.1627-0.5713-0.2155-0.8598-0.228c-1.5195-0.0659-3.0397-0.1171-4.5596-0.185  c-0.2741-0.0123-0.5808-0.0107-0.8131-0.1304c-0.8575-0.4422-1.7255-0.3846-2.6284-0.2032c-0.3543,0.0713-0.7727,0.1484-1.1951-0.28  c0.6072-0.1078,1.2251-0.0366,1.5072-0.3108c0.413-0.4012,0.6776-0.4347,1.1254-0.1701c0.1535,0.0905,0.3974,0.049,0.5978,0.0351  c0.5477-0.0371,1.0944-0.0917,1.6417-0.1391c1.683-0.1458,3.3721-0.2426,5.0476-0.4496c2.2257-0.2747,4.4492-0.3146,6.6817-0.1707  c0.2396,0.0157,0.4984,0.059,0.7187-0.0076c1.385-0.4184,2.7956-0.288,4.2065-0.2639c0.6123,0.0105,1.2324-0.0661,1.8395-0.1625  c1.1896-0.1888,2.374-0.4112,3.5571-0.6382c0.2649-0.0509,0.5152-0.179,0.7722-0.2715c-2.0291-0.278-3.9921-0.3971-5.9556-0.5106  c-0.4409-0.0256-0.8885-0.0187-1.149-0.5183c1.3832-0.8847,2.9221-0.011,4.3077-0.5078c-0.7074-0.1609-1.4114-0.2168-2.1167-0.2454  c-1.2408-0.0508-2.5062,0.0522-3.718-0.1591c-1.6697-0.2908-3.3268-0.6008-5.0256-0.6616  c-1.3802-0.0494-2.7585-0.1509-4.1382-0.2211c-1.6553-0.084-3.315-0.1129-4.9639-0.2633c-0.5997-0.0549-1.3053-0.1517-1.6158-0.7064  c0.2278-0.3499,0.3951-0.5808,0.5349-0.827c0.3364-0.5923,0.7858-0.6938,1.455-0.5342c0.9661,0.2304,1.9592,0.3497,2.9427,0.5024  c0.0492,0.0075,0.1194-0.1199,0.2094-0.2159c-0.5207-0.133-0.9923-0.2327-1.4504-0.3756c-0.493-0.154-0.9677-0.3666-1.4606-0.5201  c-0.3974-0.1238-0.9626,0.1276-1.1737-0.5152c1.3302,0.0328,2.5953,0.0566,3.8599,0.0968c1.755,0.0556,3.5095,0.1245,5.2644,0.1837  c0.1371,0.0046,0.2752-0.0289,0.413-0.0353c0.6518-0.0298,1.3036-0.0731,1.9553-0.0805c1.1617-0.0131,2.3235-0.0036,3.6822-0.0036  c-0.3044-0.1299-0.5091-0.2172-0.7138-0.3046c0.0566-0.0835,0.1132-0.1673,0.1698-0.2508c1.7089-0.1863,3.4224-0.3098,5.1453-0.1976  c0.4432,0.0287,0.8957,0.1066,1.3156,0.2468c0.4988,0.1662,0.921,0.0945,1.1985-0.321c0.445-0.6664,1.1214-0.782,1.8065-0.8081  c1.86-0.0705,3.7223-0.0863,5.5836-0.1312c0.2934-0.0069,0.5857-0.052,0.8869-0.0804c-0.031-0.1719-0.021-0.2552-0.0576-0.2998  c-0.6433-0.7791-0.5734-0.9956,0.3956-1.3004c0.5603-0.1763,1.1055-0.4015,1.6676-0.5719c0.5275-0.1599,1.0758-0.4138,1.601-0.3833  c1.0225,0.0592,2.035,0.2877,3.0516,0.4466c-0.073-0.2134-0.1463-0.4271-0.2329-0.6802c1.0619-0.1476,2.2364,0.3435,3.0752-0.7038  c-1.4268-0.7786-3.1034-0.5957-4.492-1.5641c0.3456-0.2457,0.5893-0.4189,0.9395-0.6677c-0.8124-0.1229-1.4609-0.2139-2.1065-0.322  c-0.299-0.0502-0.6682-0.0505-0.8654-0.2285c-0.1707-0.154-0.1435-0.5273-0.173-0.6633c-0.5762-0.2988-1.0401-0.5888-1.541-0.7848  c-0.5019-0.1967-1.0381-0.3105-1.5649-0.4383c-0.2293-0.0559-0.4783-0.0305-0.7073-0.0869  c-1.2329-0.3023-2.4519-0.6723-3.6954-0.9182c-1.9987-0.3951-4.0119-0.7171-6.0207-1.0591c-1.3277-0.226-2.663-0.4094-3.9865-0.6567  c-0.7571-0.1414-0.7499-0.1824-0.7748-1.1521c0.577,0.0546,1.2211,0.301,1.6861,0.1107c0.5431-0.2227,1.232,0.5201,1.6893-0.3221  c-0.9751-0.6663-2.1339-0.2608-3.3003-0.8178c0.6681-0.1006,1.1393-0.2679,1.5902-0.2244c3.6068,0.3474,7.2271,0.5544,10.8204,1.043  c1.5756,0.2144,3.1484,0.4722,4.7315,0.6062c1.3376,0.113,2.688,0.0927,4.0331,0.0981c0.7573,0.0031,1.5149-0.0676,2.2727-0.0928  c0.2977-0.0097,0.6057,0.0364,0.8683-0.4004c-0.415-0.0794-0.7394-0.1691-1.0692-0.1991c-0.9973-0.0901-2.0109-0.0781-2.9934-0.2482  c-3.1641-0.5478-6.3174-1.1583-9.4743-1.746c-2.4449-0.455-4.8867-0.9259-7.335-1.361c-0.8767-0.1557-1.7716-0.2067-2.6527-0.3422  c-0.8157-0.1256-1.623-0.3052-2.4357-0.4517c-0.4071-0.0736-0.8321-0.0792-1.2238-0.1988  c-1.1693-0.3572-2.3788-0.4686-3.5341-1.0248c-0.9991-0.4809-2.2791-0.382-3.4361-0.5306  c-0.7304-0.0938-1.5275,0.0748-2.1016-0.6011c-0.0938-0.1101-0.3098-0.1457-0.4742-0.1611c-0.785-0.0735-1.568-0.2711-2.3484,0.0981  c-0.3799,0.1799-0.7696,0.1176-1.139-0.4135c1.0734-0.1066,1.9958-0.2606,2.9206-0.2767c1.9641-0.0341,3.9304-0.0333,5.8937,0.0231  c1.7585,0.0504,3.5263,0.0983,5.2685,0.3194c2.7726,0.3516,5.5265,0.8527,8.2914,1.2695c0.2554,0.0384,0.5339-0.0684,0.8003-0.1155  c0.4312-0.0764,0.8593-0.2081,1.2926-0.2263c0.4801-0.0199,0.964,0.0769,1.4475,0.093c0.3228,0.0108,0.6074-0.0789,0.642-0.4358  c-0.0889-0.0973-0.1268-0.1803-0.1806-0.1921c-1.9233-0.4217-3.8473-0.8398-5.7729-1.2508  c-0.7761-0.1655-1.5711-0.2628-2.3276-0.4898c-0.3672-0.1102-0.7624-0.383-0.9728-0.6977  c-0.3023-0.4519-0.6882-0.6407-1.1721-0.7637c-0.6118-0.156-1.2154-0.3446-1.8229-0.519c0.0056-0.0805,0.0115-0.1612,0.0172-0.2419  c0.3943-0.0502,0.7896-0.1501,1.1823-0.1412c1.1399,0.0257,2.2782,0.1143,3.418,0.1376c0.4706,0.0097,0.9718-0.0031,1.4068-0.155  c0.391-0.1371,0.6948-0.1002,1.0806-0.0177c0.8378,0.1789,1.6974,0.276,2.5528,0.3464c0.7199,0.0595,1.4468,0.0351,2.1705,0.0451  c0.2883,0.0038,0.5765,0.0005,1.0428,0.0005c-1.2152-0.6041-1.25-0.6274-1.3855-0.922c0.6171-0.5306,1.3819-0.5931,2.1323-0.5662  c2.2049,0.0783,4.4077,0.208,6.6112,0.3123c0.317,0.0151,0.6349,0.002,0.9523,0.002c0.0167-0.0912,0.0336-0.1824,0.0503-0.2734  c-0.2206-0.0901-0.4335-0.2175-0.6628-0.2638c-0.9136-0.1845-1.8342-0.3344-2.747-0.5214  c-0.1594-0.0325-0.2949-0.1824-0.4412-0.2782c0.0151-0.0754,0.0302-0.1507,0.0456-0.226c0.6372-0.0218,1.2756-0.0815,1.911-0.0564  c1.1081,0.0433,2.2008,0.1568,3.129-0.6915c0.2539-0.2321,0.6807-0.3051,1.043-0.3822c1.5193-0.3223,1.5213-0.3128,1.7078-1.8598  c0.816,0.0818,1.6394,0.1637,2.4629,0.246c0.0174-0.0638,0.0345-0.1279,0.0517-0.1919c-0.1875-0.1173-0.3753-0.2347-0.7402-0.4627  c1.8662-0.1952,3.4713,0.2703,5.1031,0.4596c0.1503-0.2987,0.2695-0.5357,0.3976-0.7904c0.2339,0.0213,0.4463,0.0082,0.6389,0.0638  c0.9103,0.2626,1.8106,0.3392,2.7647,0.1804c0.5564-0.0925,1.1593,0.0817,1.7398,0.1491c0.4556,0.0528,0.909,0.1253,1.3636,0.1893  c-0.0774-0.2275-0.1833-0.311-0.3034-0.3512c-1.1096-0.371-2.2315-0.7069-3.3306-1.106c-1.9505-0.7082-3.9268-1.3074-5.9597-1.7409  c-1.0771-0.2296-2.1193-0.6223-3.1762-0.9456c-0.7883-0.2414-1.5728-0.495-2.3619-0.7335c-1.057-0.3195-2.2573-0.4159-3.1423-0.9956  c-1.232-0.8073-2.5184-1.0072-3.8947-1.1465c-1.992-0.2019-3.978-0.4637-5.9661-0.703c-0.5145-0.062-1.0325-0.1102-1.5403-0.2083  c-2.3056-0.4461-4.6106-0.8962-6.9102-1.3715c-0.6626-0.1368-1.3758-0.2216-1.7202-0.9789  c-0.0676-0.1489-0.3343-0.2193-0.5206-0.299c-0.2756-0.1178-0.5616-0.2119-1.026-0.3835c0.4089-0.1645,0.6492-0.2613,1.0268-0.4133  c-0.3269-0.1127-0.4832-0.2021-0.6464-0.2175c-1.3302-0.1245-2.665-0.1304-3.9944-0.3569  c-1.3222-0.2252-2.7144-0.0105-3.9826-0.6159c-0.1074-0.5211,0.1017-0.7606,0.6479-0.7617c0.8626-0.0018,1.7255-0.052,2.5879-0.0461  c0.9989,0.0067,2.0009,0.0115,2.9957,0.091c1.1012,0.0878,2.1946,0.269,3.2937,0.3881c0.2688,0.029,0.7397,0.0584,0.7896-0.0561  c0.4369-0.9969,1.2275-0.4606,1.8775-0.484c0.7196-0.0258,1.4408-0.0417,2.1603-0.0212c0.4365,0.0125,0.8705,0.104,1.3061,0.155  c0.0968,0.0115,0.196,0.0018,0.3471,0.0018c0.0528-0.2362,0.1017-0.4543,0.1445-0.6456c-0.3018-0.1433-0.5426-0.2578-0.7835-0.3721  c1.2736-0.3056,2.6896,0.6723,3.6255-0.8031c-1.5689-0.2834-3.1955-0.5696-4.8188-0.8727  c-1.6113-0.3005-3.2192-0.6177-4.8181-0.9259c-0.0075-0.7109,0.3989-0.7061,0.7827-0.6912c1.097,0.042,2.1933,0.1027,3.2901,0.1509  c1.4081,0.0618,2.8164,0.1163,4.2245,0.1794c0.3937,0.0174,0.7701,0.0176,0.9192-0.3736c-0.1027-0.2844-0.1947-0.5147-0.2698-0.7507  c-0.0902-0.2841-0.166-0.5731-0.2697-0.9359c-1.7868-0.2661-3.5287-0.5254-5.2706-0.7847  c-0.0038-0.0743-0.0077-0.1483-0.0115-0.2224c0.6753-0.199,1.3463-0.4143,2.0283-0.5862c0.1881-0.0474,0.4673-0.0389,0.6052,0.0697  c0.7138,0.5634,1.4518,0.5175,2.2363,0.2017c0.1525-0.0613,0.3446-0.0587,0.5135-0.04c1.9202,0.2139,3.8376,0.4547,5.7596,0.6505  c1.2005,0.1219,2.4065,0.227,3.6116,0.2528c1.3717,0.0295,2.7373-0.0153,4.0939,0.297c1.1575,0.2662,2.3447,0.3587,3.5455,0.2862  c-1.3158-0.4297-2.6307-0.8691-3.9811-1.0922c-2.1462-0.3546-4.2532-0.8667-6.2374-1.715  c-1.7493-0.7479-3.5317-1.1434-5.4027-1.2915c-0.3667-0.029-0.7282-0.1786-1.0825-0.3006  c-0.5124-0.1762-1.0015-0.4511-1.5262-0.5564c-2.5044-0.5017-5.0184-0.9556-7.5266-1.4381  c-0.4863-0.0932-1.0241-0.1229-1.4245-0.8485c1.2256,0.238,2.0798-0.5998,3.1884-0.5034c1.0222,0.0891,2.0688,0.0563,3.0903-0.0543  c1.0202-0.1102,2.0752,0.2787,3.0818-0.2486c-0.5086-0.1796-1.0266-0.2897-1.5472-0.302c-1.3109-0.0313-2.623-0.0149-3.9344-0.0246  c-0.619-0.0046-1.2342-0.0328-1.5006-0.8445c0.258-0.1019,0.4663-0.2331,0.6887-0.2646c1.2945-0.184,2.5889-0.3848,3.8903-0.4986  c0.8212-0.0715,1.6551,0.0203,2.4821,0.0013c1.2034-0.0277,2.4057-0.1212,3.6089-0.1273c1.3483-0.0072,2.6967,0.0569,4.0454,0.0763  c0.1836,0.0026,0.3681-0.0732,0.5997-0.123c-0.4327-0.4808-0.4506-0.5316-0.7591-0.4217c-0.8529,0.3031-1.4358-0.0889-2.0944-0.7673  c1.8136,0.2754,3.4464-0.3315,5.1601-0.1486c1.0443,0.1115,2.1495-0.3471,3.2276-0.548c0.2693-0.0502,0.5388-0.1248,0.8103-0.136  c1.6889-0.0707,3.367-0.0418,5.0564,0.1596c1.2416,0.1481,2.5131-0.1891,3.7741,0.2131c0.6062,0.1935,1.3005,0.1197,1.9558,0.144  c0.2698,0.0103,0.5434-0.0294,0.8129-0.0643c0.4394-0.0566,0.8752-0.1511,1.3161-0.1883c1.2844-0.1086,2.5731-0.1729,3.8543-0.3082  c0.3492-0.0369,0.6784-0.2636,1.0512-0.4173c-0.6331-0.6523-1.6656-0.1822-2.1439-0.9513c0.4279-0.8911,1.6789-0.0187,2.1134-1.0415  c-0.2723-0.106-0.4822-0.2236-0.7068-0.2695c-1.3863-0.2846-2.7752-0.5547-4.1643-0.8247  c-0.1681-0.0325-0.3431-0.0295-0.5126-0.0553c-0.502-0.0759-1.0039-0.1517-1.5037-0.2388  c-1.2546-0.2183-2.5028-0.4873-3.7649-0.6482c-0.7806-0.0997-1.583-0.0184-2.3739-0.0553  c-0.9969-0.0469-1.9938-0.1128-2.9871-0.2086c-0.4327-0.042-0.8557-0.1827-1.284-0.2731c-1.0919-0.2301-2.0678-0.8864-3.2617-0.7773  c-0.6761,0.0617-1.4127,0.0435-2.0445-0.1691c-0.5839-0.1968-1.108-0.2969-1.7068-0.1939c-0.2544,0.0438-0.5326-0.0764-0.8008-0.08  c-0.6108-0.0084-1.2644-0.123-1.8214,0.0543c-0.5406,0.1719-0.9856,0.1522-1.4983,0.0141  c-0.5287-0.1424-1.0778-0.2754-1.6207-0.2885c-1.4411-0.0345-2.884,0.0188-4.3257-0.002c-1.4439-0.0208-2.8868-0.113-4.3308-0.1302  c-1.7956-0.0215-3.5929,0.039-5.3876-0.0079c-1.1011-0.0287-2.2013-0.1719-3.2957-0.312c-0.2193-0.0282-0.5376-0.2398-0.5908-0.4287  c-0.1568-0.5577-0.5713-0.6556-1.0215-0.7035c-1.5316-0.1632-3.0683-0.2833-4.5978-0.4632  c-1.7849-0.2098-3.5647-0.465-5.3466-0.7005c0.9974-0.1529,1.9914-0.2741,2.9883-0.3043c2.0296-0.0615,4.0495,0.4873,6.0876,0.1119  c0.0994-0.0184,0.2068,0.0052,0.3105,0.01c3.1369,0.1481,6.2743,0.286,9.4105,0.4515c0.8613,0.0456,1.7168,0.1967,2.5779,0.2587  c0.953,0.0687,1.8123-0.1468,2.4764-1.0327c-0.8165-0.2908-1.5959-0.5685-2.5648-0.9136c0.5024-0.2724,0.785-0.4253,1.3012-0.7054  c-0.6992-0.1601-1.1508-0.3302-1.6107-0.3576c-2.2379-0.1337-4.4889-0.05-6.7045-0.5224c-0.9436-0.2011-1.9151-0.2659-2.8687-0.4253  c-0.2234-0.0371-0.425-0.2057-0.6367-0.3138c0.0095-0.0861,0.019-0.1719,0.0285-0.258c0.4125-0.1358,0.8175-0.3072,1.24-0.3977  c0.4292-0.0917,0.8757-0.1035,1.3146-0.1503c-1.4914-0.2821-3.0314,0.4514-4.473-0.3833c0.8165-0.0121,1.6289,0.1207,2.3898-0.339  c0.1957-0.1183,0.5436-0.0322,0.8091,0.0216c0.5757,0.1163,1.1488,0.2531,1.7127,0.4176c0.6671,0.1944,1.3396,0.5113,1.777-0.372  c0.0256-0.0515,0.1109-0.0925,0.1742-0.103c0.8124-0.1358,1.6317-0.4005,2.437-0.3638c1.1623,0.0533,2.3101,0.3712,3.4728,0.4901  c0.7786,0.0794,1.5725,0.0138,2.3593-0.0011c0.0863-0.0017,0.1898-0.0809,0.2534-0.1526c0.6735-0.7569,1.642-1.0812,2.5274-1.113  c2.7252-0.0984,5.4573,0.0023,8.1869,0.0226c0.8201,0.0059,1.6402,0.0007,2.4761,0.0007c0.0331-0.2562,0.0626-0.4834,0.099-0.7663  c1.7201,0,3.4033,0,5.0865,0c-0.5367-0.168-1.0735-0.2697-1.6148-0.334c-1.1983-0.1428-2.3965-0.2978-3.5994-0.389  c-1.1306-0.086-2.2965,0.0454-3.3925-0.1811c-1.0784-0.2229-2.2977,0.2524-3.253-0.6228c-0.0964-0.0881-0.3349-0.0082-0.5024-0.0356  c-0.176-0.0287-0.3462-0.0928-0.6895-0.1894c0.3298-0.1949,0.4881-0.3566,0.6667-0.383c0.9215-0.137,1.873-0.4299,2.7679-0.3136  c1.8183,0.2365,3.6414-0.4662,5.4394,0.1161c0.1148,0.0371,0.2662-0.0571,0.402-0.0633c0.6133-0.0284,1.2364-0.1196,1.838-0.0451  c0.435,0.0541,0.8009,0.0482,1.1888-0.1529c0.7027-0.3649,1.4629-0.3047,2.221-0.256c0.2902,0.0187,0.5843-0.0282,0.8767-0.0266  c0.5101,0.0023,1.1096-0.1491,1.5121,0.0643c0.8926,0.4732,1.8869,0.3479,2.7925,0.6676c0.2816,0.0994,0.6628,0.2388,0.938-0.1588  c-0.4778-0.6536-1.5562-0.2426-1.9084-1.2013c0.4614-0.0215,0.8659-0.0377,1.2699-0.0602  C254.1743,61.5654,254.5112,61.6351,254.7119,61.5026z M186.9277,23.937c-0.8255,0.2903-6.303-0.6348-7.4821-1.3458  C181.9397,23.0398,184.4337,23.4884,186.9277,23.937z M176.9977,22.3619c0.4051,0.0459,0.8099,0.0941,1.2147,0.1415  c-0.0118,0.075-0.0236,0.1501-0.0354,0.2254c-0.8054-0.094-1.6107-0.188-2.6089-0.3044  C176.1902,21.8713,176.5905,22.3158,176.9977,22.3619z M153.5392,13.8961c-0.0067,0.0789-0.0133,0.1578-0.02,0.2367  c-1.1677-0.1186-2.3353-0.2375-3.503-0.3561C151.2094,13.5825,152.3761,13.7175,153.5392,13.8961z M85.5519,6.0556  c-0.0008-0.0546-0.0018-0.1094-0.0025-0.1643c0.4158,0,0.8313,0,1.2469,0c0.001,0.0549,0.0018,0.1097,0.0028,0.1643  C86.3833,6.0556,85.9677,6.0556,85.5519,6.0556z M90.1576,5.938c-0.0136-0.0592-0.0271-0.1181-0.0407-0.1773  c0.1985-0.0461,0.3968-0.0922,0.5954-0.1386c0.0146,0.0638,0.0292,0.1278,0.0438,0.1916  C90.5565,5.8552,90.3572,5.8965,90.1576,5.938z M16.6551,96.716c-0.6389,0.3733-1.3158,0.648-2.0639,0.6516  c0.5639-0.7069,1.2579-1.0459,2.2038-1.0866C16.7312,96.4926,16.732,96.6709,16.6551,96.716z M20.9805,95.9341  c-0.8154,0.1458-1.6448,0.2147-2.6134,0.33c0.7578-0.9172,2.0242-1.2505,3.3434-0.8936  C21.3923,95.6254,21.2068,95.8936,20.9805,95.9341z M41.9733,41.404c-0.6991,0.3251-1.3663,0.3395-2.0124-0.2396  c0.3604-0.706,0.9945-0.9809,1.6599-1.0493c0.2782-0.0287,0.7243,0.2756,0.8677,0.5477  C42.6822,41.0305,42.2905,41.2567,41.9733,41.404z M48.3563,189.0969c-0.0097-0.0569-0.0195-0.1135-0.0292-0.1704  c0.2119-0.0469,0.4235-0.0938,0.6354-0.1406c0.0058,0.084,0.0115,0.168,0.0174,0.2518  C48.7721,189.0574,48.5643,189.0772,48.3563,189.0969z M55.5914,190.5419c-0.0359-0.0456-0.0712-0.0912-0.1069-0.1366  c0.0495-0.0287,0.1053-0.0868,0.1466-0.0779c0.0438,0.0095,0.074,0.0828,0.1099,0.1281  C55.6913,190.4842,55.6413,190.5129,55.5914,190.5419z M58.8933,190.0671c-0.0215-0.0469-0.0456-0.0925-0.0589-0.1409  c-0.0021-0.0067,0.0589-0.0469,0.0737-0.0389c0.0464,0.0241,0.0846,0.0638,0.1258,0.0976  C58.987,190.0123,58.9402,190.0397,58.8933,190.0671z M60.2007,189.8845c0.6105-0.3782,1.1411-0.2683,1.6822-0.0364  C61.3633,190.2672,60.8345,190.3336,60.2007,189.8845z M57.426,20.3298c-2.9519,0.0484-5.9033,0.1252-8.8558,0.1175  c-0.4591-0.001-0.9179-0.0904-1.3758-0.2528c0.7135-0.4358,1.4996-0.4922,2.2556-0.5219c0.9946-0.0389,1.9953,0.0792,2.9937,0.1189  c0.9298,0.0366,1.86,0.0812,2.79,0.0832c2.314,0.0049,4.6393,0.1269,6.9387-0.0604c2.3225-0.1888,4.6095,0.3246,6.9169,0.1109  c0.0787-0.0072,0.1655,0.0725,0.2482,0.1117c-0.01,0.0743-0.02,0.1489-0.0299,0.2232c-2.0312,0.032-4.0621,0.0804-6.0933,0.0914  C61.2849,20.3618,59.3547,20.2982,57.426,20.3298z M114.5602,20.9272c-0.8573,0.0951-1.7171,0.1778-2.5782,0.2221  c-0.9638,0.0497-1.9358-0.0064-2.8935,0.0902c-2.1213,0.2134-4.2527,0.1151-6.3763,0.288  c-2.0988,0.1709-4.2114,0.1701-6.3143,0.3015c-1.5826,0.0989-3.1572,0.319-4.7395,0.424c-0.8877,0.059-1.7836-0.0033-2.6757-0.0164  c-0.6267-0.0092-1.2031,0.0733-1.7786,0.4066c-0.3525,0.204-0.8641,0.1755-1.3048,0.1776c-2.4866,0.0115-4.9736-0.021-7.4603,0.0059  c-1.4134,0.0154-2.8259,0.1263-4.2396,0.168c-0.2989,0.009-0.6008-0.0965-0.902-0.146c-0.7046-0.1155-1.4071-0.3026-2.1155-0.3287  c-1.7913-0.0656-3.5855-0.0541-5.3784-0.0874c-0.1634-0.003-0.3248-0.1058-0.5893-0.1977  c-0.4988,0.6192-1.0632,0.7926-1.8215,0.3453c0.2697-0.487,0.5667-0.8357,1.1554-0.8844c1.8226-0.1501,3.6552-0.5226,5.4625-0.4219  c1.6543,0.0924,3.2112-0.2788,4.8696-0.3559c0-0.268,0-0.4881,0-0.8621c1.5185,0.8985,3.0849,0.6225,4.6277,0.6418  c3.4487,0.043,6.8964,0.1506,10.3448,0.1831c1.31,0.0123,2.6205-0.1252,3.9317-0.168c2.7967-0.0912,5.5936-0.1817,8.3913-0.2414  c2.7962-0.0597,5.5934-0.0848,8.39-0.1183c1.1724-0.0141,2.3453-0.0216,3.5177-0.008c0.2959,0.0036,0.5908,0.0997,1.1157,0.195  C114.8577,20.7533,114.7164,20.91,114.5602,20.9272z M116.7997,20.9011c-0.279-0.0123-0.5583-0.0249-0.8373-0.0372  c0.0057-0.104,0.0111-0.208,0.0164-0.312c0.2814,0.0507,0.5627,0.1014,0.844,0.1519  C116.815,20.7696,116.8074,20.8352,116.7997,20.9011z M153.0706,26.5406c-0.7345,0-1.4693,0-2.1715,0  c-0.1871-0.4525,0.0338-0.557,0.2938-0.5163c0.6387,0.1004,1.2703,0.2478,1.9043,0.3761  C153.0885,26.447,153.0797,26.4939,153.0706,26.5406z M156.1322,27.2323c0.4937-0.0313,0.9871-0.0625,1.5641-0.0992  C157.2966,27.7759,157.2966,27.7759,156.1322,27.2323z M171.4968,184.9293c-0.2229-0.0582-0.4069-0.2634-0.5703-0.5283  c1.4839-0.446,2.9222-0.3018,4.5447-0.0715C174.7383,184.8014,172.2921,185.1373,171.4968,184.9293z M226.229,93.7577  c0.061,0.0069,0.1309-0.0021,0.1801,0.0256c0.04,0.0226,0.0549,0.0894,0.0969,0.1655c-0.1071-0.0123-0.196-0.0164-0.2798-0.0394  C226.2142,93.906,226.2276,93.8105,226.229,93.7577z M213.4491,100.3779c-0.806,0.3566-0.809,0.3551-1.7076-0.157  C212.3804,99.8314,212.9156,100.0702,213.4491,100.3779z M187.6969,125.0871c0.5531-0.0853,1.104-0.1911,1.6599-0.2516  c1.3707-0.1493,2.7452-0.2641,4.1154-0.4199c0.8877-0.1007,1.7688-0.3423,2.655-0.3528c1.1998-0.0143,2.4018,0.1297,3.6024,0.2116  c0.3776,0.0257,0.7558,0.0574,1.1304,0.1094c0.3148,0.0439,0.6251,0.121,0.9707,0.1901c-0.1773,0.6774-0.4658,0.9623-1.0668,0.907  c-0.3695-0.0341-0.7476,0.0297-1.1222,0.0443c-0.5513,0.0218-1.1055,0.0812-1.654,0.0492  c-1.2034-0.0702-2.4034-0.1939-3.6058-0.2813c-0.2369-0.0172-0.4852,0.0015-0.7168,0.0535  c-0.9449,0.2129-1.8741-0.0043-2.8121-0.0356c-0.7804-0.0258-1.6112-0.3873-2.3919,0.1566  c-0.1491,0.1037-0.5147-0.1028-0.7801-0.166C187.6864,125.2301,187.6915,125.1586,187.6969,125.0871z M183.0517,163.4093  c0.7517-0.4899,1.8857-0.5719,2.6766-0.1932C184.886,163.8509,183.9205,163.9206,183.0517,163.4093z M187.4324,142.7367  c-0.9016-0.3894-1.6317-0.3679-2.4375,0.0656c-0.1388-0.0717-0.2795-0.1114-0.3758-0.1993  c-0.6375-0.5834-1.3225-0.5877-2.0937-0.2759c-0.4389,0.1775-0.9277,0.2536-1.4019,0.312c-0.2083,0.0256-0.4507-0.0763-0.652-0.1734  c-0.4153-0.2001-0.8135-0.4361-1.259-0.6792c0.7181-0.215,9.9008-0.0072,11.2582,0.2703c0.0351,0.2221,0.0748,0.4734,0.1191,0.7553  C189.4816,143.2922,188.3712,143.1423,187.4324,142.7367z M190.1449,127.2151c1.2446-0.3351,2.5064-0.083,3.7561-0.1368  c0.1105-0.0046,0.2296,0.1906,0.3664,0.3126C193.4973,127.7716,191.185,127.7065,190.1449,127.2151z M204.9567,143.1192  c0.9142,0.142,1.8055,0.4133,2.7478,0.3541c0.1432-0.009,0.2949,0.1202,0.5682,0.2408c-0.2357,0.1527-0.3717,0.317-0.4844,0.3024  c-1.2833-0.1681-2.632,0.2285-3.8602-0.4428c-0.1399-0.0763-0.3366-0.085-0.5029-0.0714c-1.9279,0.156-3.8423-0.0157-5.7609-0.1819  c-0.714-0.0618-1.4453,0.0973-2.1631,0.0579c-0.9477-0.0523-1.8903-0.2009-2.8349-0.308c-0.0002-0.0699-0.0008-0.1396-0.001-0.2096  c0.291-0.0599,0.5826-0.175,0.8726-0.1706c1.3028,0.0202,2.6048,0.0861,3.9076,0.1102c0.444,0.0082,0.8895-0.0815,1.3345-0.0843  C200.8481,142.7021,202.9135,142.8021,204.9567,143.1192z M209.6093,67.5454c0.5919-0.4663,1.1314,0.0517,1.6533,0.0048  C210.7372,67.7024,210.2047,68.078,209.6093,67.5454z" fill="#222222" />
	</g>
</svg>
