<?xml version="1.0"?>
<svg version="1.1" id="XMLID_2_" xmlns="http://www.w3.org/2000/svg" xmlns:xlink="http://www.w3.org/1999/xlink" x="0px" y="0px" viewBox="0 0 337.0543 94.7532" enable-background="new 0 0 337.0543 94.7532" xml:space="preserve">
	<g id="P">
		<path id="_x32_4.2brush4" d="M2.3183,46.6261c0.2711-0.4929,0.6195-0.8106,1.2508-0.7875c0.2828,0.0102,0.57-0.2186,0.8621-0.319  c0.363-0.1248,0.733-0.229,1.0986-0.341c-0.1094,0.6492-0.1094,0.6492,0.5551,0.4755c-0.2254-0.1757-0.4035-0.3143-0.5818-0.4532  c0.1548-0.2588,0.3098-0.5175,0.4783-0.7991c-0.343-0.0797-0.7165-0.1665-1.1341-0.2636c0.3922-0.4763,0.8229-0.7935,0.9412-1.2011  c0.1186-0.4081,0.0069-0.9377-0.1517-1.3581c-0.2082-0.5537-0.755-0.6441-1.7195-0.3894c-0.0536-0.4825,0.3379-0.4691,0.5989-0.5696  c0.2972-0.1142,0.6095-0.3171,0.9013-0.2948c1.6597,0.1257,3.2697-0.3649,4.9165-0.3495c0.8393,0.0077,1.4214-0.9351,2.4911-0.4338  c0.6978,0.3272,1.6957,0.0216,2.5586-0.014c0.2496-0.0103,0.4963-0.0774,0.7461-0.101c0.6502-0.0612,1.107-0.3151,1.0207-1.0683  c0.7399-0.1056,1.4078-0.2009,2.1664-0.3093c-0.2606-0.7089,0.1455-0.8762,0.7107-0.9133  c-0.1038-0.7404-0.2003-1.4291-0.3151-2.2466c0.4148-0.5665,0.9177-1.2534,1.4616-1.9964c-0.3271-0.1918-0.587-0.3443-0.983-0.5767  c0.189-0.1078,0.2756-0.1939,0.3717-0.2062c1.3886-0.1778,2.7752-0.3871,4.1694-0.5045c1.3622-0.1145,2.7413-0.0571,4.0974-0.2131  c1.6343-0.1881,3.2502-0.5324,4.8778-0.7845c0.4181-0.0648,0.8524-0.0174,1.2759-0.0571c0.311-0.029,0.5754-0.1474,0.4071-0.6285  c-0.3013,0-0.6244,0-1.0363,0c0.0725-0.1896,0.0845-0.3635,0.1711-0.4173c0.1783-0.1107,0.3963-0.1563,0.598-0.2296  c1.2471-0.4532,1.3542-0.3884,1.4893,0.9044c0.6102,0.3881,0.7422-0.9136,1.3901-0.3933c0.4694-0.2505,0.941-0.4978,1.4058-0.7568  c0.0489-0.0272,0.0592-0.1237,0.147-0.3241c-0.3702-0.1081-0.7232-0.2511-1.0893-0.3069c-0.3421-0.0518-0.6982-0.011-1.0512-0.011  c0.0466-0.5995,0.0466-0.5995,1.3494-0.8181c0.0748-0.3594-0.1153-0.4388-0.4217-0.4004c-0.5693,0.0709-1.1406,0.2098-1.7073,0.1937  c-0.5947-0.0167-1.1849-0.1822-1.9292-0.3088c-0.0764,0.0656-0.2836,0.2437-0.4958,0.4261  c-0.8032-0.3986-1.5779-0.7904-2.3609-1.1642c-0.1209-0.0579-0.3071-0.0922-0.4176-0.0404  c-0.9799,0.4583-2.0593,0.1247-3.0454,0.3832c-1.0971,0.2877-2.3132,0.1161-3.2963,0.8363c0.001-0.0008,0.0033-0.0469,0.0033-0.0469  c0.0577,1.0402-0.6369,0.2452-0.9435,0.3874c-0.3638,0.7857-1.0592,0.9566-1.9597,1.0417c-0.2626-0.4935-0.5344-1.0048-0.9223-1.734  c-0.713-0.0899-1.5577,0.2132-2.3863,0.6641c-0.7922,0.4312-1.5746,0.3902-2.1039-0.1204c-0.351-0.3385-0.6415-0.7394-0.9828-1.1401  c1.4944-0.0997,2.8956-0.3039,4.2345-0.8496c0.2851-0.116,0.6292-0.0845,0.9454-0.1276c0.353-0.0481,0.6346-0.166,0.5344-0.6866  c-0.9133-0.0756-1.674,0.5057-2.5884,0.6641c-0.3156-0.6667-0.3505-1.3799-0.3546-2.075c-0.0038-0.6051,0.2107-0.7156,0.8286-0.6612  c0.6643,0.0584,1.3304,0.095,1.9958,0.1411c0.023-0.0694,0.0458-0.1388,0.0687-0.2083c-0.1694-0.1506-0.3549-0.2872-0.5035-0.4563  c-0.137-0.1557-0.2344-0.3463-0.3843-0.5756c-1.0814,0.25-2.1357,0.5777-3.2143,0.7168c-0.8544,0.1102-1.6701,0.2247-2.4951,0.6733  c0.1583-0.2677,0.3167-0.5352,0.5265-0.8898c-0.4814-0.217-0.9792-0.3469-1.3545-0.6356c-0.4164-0.3205-0.7497-0.765-1.0658-1.1947  c-0.2842-0.3861-0.496-0.8252-0.7397-1.241c0.0615-0.0471,0.1228-0.094,0.184-0.1412c0.6005,0.4994,1.1327,1.155,1.8203,1.4565  c0.7647,0.3357,1.676,0.3277,2.5149,0.5086c0.869,0.1875,1.5879-0.2311,2.2922-0.4888c-0.453-0.4433-0.9236-0.9037-1.394-1.3641  c0.0517-0.0635,0.1035-0.127,0.1552-0.1906c0.5647,0.2509,1.1442,0.2916,1.6038,0.9659c0.3866,0.567,1.3195,0.5285,2.0086,0.3313  c0.6359-0.1822,1.2132-0.5683,1.8416-0.8773c-0.2598-0.6968-0.4891-1.3117-0.7601-2.039c-1.4929,0.1585-2.9274,0.2577-4.3401,0.4906  c-0.4791,0.0789-0.9028,0.495-1.5023,0.6482c0.085-0.1935,0.1173-0.4807,0.2644-0.5632c0.4957-0.2785,1.0169-0.5313,1.5566-0.7068  c0.9557-0.3108,1.9333-0.5534,2.8992-0.8342c0.2045-0.0597,0.4671-0.1061,0.5826-0.2529c0.4576-0.5831,0.9859-0.6338,1.6338-0.3769  c0.1691,0.0672,0.4068-0.0238,0.6098-0.0609c0.6697-0.1225,1.3335-0.3108,2.0083-0.3643c0.5777-0.0459,1.0284-0.1015,0.8562-0.865  c0.9311,0,1.7794,0,2.6351,0c-0.4079,0.1366-0.823,0.2754-1.3889,0.4648c0.7368,0.4478,1.2385,0.0784,1.7047-0.1599  c0.2214-0.113,0.3282-0.4501,0.5765-0.8191c-1.3848-0.4642-2.5569-1.025-3.3849-2.0442c-0.8055-0.9917-1.5147-2.0619-2.4114-3.2978  c0.9846,0.1135,1.4916,0.5004,1.8073,1.0909c0.5569,1.043,1.3845,1.8116,2.3865,2.3711c0.3389,0.1891,0.8293,0.1361,1.2512,0.1407  c0.534,0.0059,1.0686-0.0425,1.6225-0.0684c0.1456,0.8903,0.7435,1.2482,1.466,1.3084c1.0666,0.0886,2.1226,0.2093,3.2199,0.0518  c1.8498-0.2655,3.728-0.3313,5.5944-0.4814c0.5001-0.0403,0.9997-0.09,1.5006-0.1192c0.7842-0.0461,1.5823-0.1135,1.9822,0.7863  c0.5075-0.2913,0.5075-0.2913,0.858-0.825c0.6741,0.0861,1.3763-0.1929,2.0238,0.5265c0.3566,0.3961,1.1682,0.094,1.5856-0.2877  c0.4045-0.3702,0.7737-0.3666,1.2541-0.3769c1.2185-0.0253,2.4347-0.1509,3.6524-0.2262c0.7378-0.0456,1.5085-0.2792,2.1269,0.3974  c0.0974,0.1066,0.3377,0.0955,0.5145,0.114c1.3125,0.136,2.6296,0.2926,3.9403,0.0425c0.4092-0.0781,0.7886-0.3115,1.299-0.5221  c0.7227,0.6062,1.6586,0.8398,2.7902,0.2836c-0.1655-0.4184-0.3171-0.8009-0.4719-1.1913c0.3705-0.4704,0.8806-0.4133,1.3041-0.3049  c2.5043,0.6418,5.0627,0.6448,7.6163,0.6969c0.6315,0.0128,1.2595,0.1995,1.912-0.0661c0.2526-0.1028,0.6477,0.2187,0.9736,0.2088  c1.065-0.0328,2.1211-0.256,3.1961-0.0047c0.3233,0.0756,0.6984-0.1078,1.0489-0.1024c0.6294,0.01,1.2881-0.0321,1.881,0.1363  c1.0617,0.3018,2.0749,0.1168,3.0695-0.1614c0.3805-0.1064,0.671-0.535,1.0471-0.8545c0.2252,0.0608,0.5559,0.1499,0.9226,0.2488  c-0.1207-1.323-0.6336-1.4947-2.1962-2.1534c-0.8716,0.5199-1.7826,0.6316-2.7078,0.165c-0.7286-0.3676-1.3742-0.7086-2.1618-0.0025  c-0.4606,0.413-1.014,0.0107-1.3724-0.2288c-0.1968-0.6892-0.3198-1.2856-0.537-1.8454c-0.4484-1.155-1.0737-1.4391-2.2946-1.1204  c-0.1291,0.0338-0.0745-0.4898,0.9977-0.5652c-0.0561-0.652,2.872-1.0327,4.6869-1.9876c0.4653-0.2449,0.9303-0.4903,1.5346-0.5762  c-0.3289,0.5475-0.6579,1.0953-1.0222,1.702c0.403,0.1878,0.6815,0.3172,1.1314,0.5267c-0.3623,0.1358-0.5757,0.2157-0.9697,0.3636  c0.671,0.2905,1.0419,0.5933,1.726,0.4396c0.7084-0.1591,1.507,0.084,2.2663,0.1501c0.2101,0.0185,0.4289,0.0792,0.629,0.0416  c1.4089-0.2642,2.8144-0.5468,4.2194-0.8312c0.1334-0.0269,0.2564-0.1063,0.4588-0.1939c-0.2277-0.5206-0.6489-0.9636-0.4453-1.5887  c0.0426-0.1309-0.2618-0.3904-0.4281-0.5703c-0.2931-0.3167-0.6533-0.5841-0.888-0.9372c-0.1544-0.2329-0.2715-0.6418-0.1688-0.8606  c0.1676-0.3563,0.5601-0.2167,0.8578-0.0645c0.64,0.3274,1.2577,0.7027,1.912,0.9974c0.8144,0.3663,1.6468,0.6991,2.4903,0.9922  c0.5093,0.1768,1.0491,0.2539,1.5448-0.1178c0.1056-0.0792,0.2721-0.0974,0.4133-0.1071c2.9342-0.2034,5.8682-0.4099,8.8035-0.5977  c1.7965-0.1151,3.5986-0.1566,5.3905-0.3182c0.8126-0.0733,1.6012-0.3836,2.4101-0.5386c0.5167-0.0991,1.0496-0.1452,1.5764-0.1562  c1.6875-0.0354,3.3926,0.0896,5.0563-0.1205c0.7771-0.0981,1.5121-0.145,2.2853-0.1081c0.5155,0.0244,1.0399-0.1458,1.6074-0.2364  c-0.1447-0.2575-0.227-0.4038-0.3881-0.691c0.7617-0.0835,1.4419-0.1583,2.1221-0.2332c0.0261,0.0705,0.0525,0.1412,0.0786,0.2117  c-0.1399,0.1219-0.2797,0.2439-0.4178,0.3643c0.0389,0.0287,0.0894,0.0981,0.1393,0.0973c0.3943-0.0041,0.7922,0.008,1.1816-0.042  c0.6697-0.0856,1.2749-0.1973,1.9828,0.1181c0.5224,0.2329,1.262-0.0141,1.904-0.0604c0.3077-0.0223,0.6131-0.0754,1.1248-0.1407  c-0.2565,0.361-0.3877,0.5457-0.6013,0.8467c2.2566,0.3482,4.5163,0.3723,6.6489,1.2857c-0.1922,0.0671-0.3846,0.1345-0.8004,0.2797  c0.4466,0.1896,0.7309,0.3105,1.1688,0.4968c0.0866-0.5634,0.1488-0.9692,0.2213-1.4406c0.3987-0.0454,0.8373-0.3815,1.1383,0.2828  c0.0892,0.1976,1.4952,0.1643,1.7499,0.0105c0.6671-0.4025,2.1036-0.1352,2.5615,0.4791c0.0425,0.0572,0.0597,0.1343,0.1053,0.1878  c0.4939,0.5816,2.903,0.4202,3.3283-0.2198c0.0971-0.1463,0.1919-0.2959,0.3046-0.4299c0.0394-0.0471,0.1291-0.052,0.2649-0.1012  c0.5434,0.7361,1.4216,0.5844,2.2056,0.7084c0.5255,0.083,1.0802-0.0074,1.5242,0.4022c0.094,0.0869,0.2677,0.1253,0.4037,0.123  c1.4383-0.0238,2.8774-0.042,4.3142-0.1107c0.2505-0.012,0.4911-0.25,0.7353-0.3858c0.4896-0.2726,0.9502-0.6333,1.6335-0.5639  c0.0292,0.3067,0.0538,0.5659,0.0763,0.8027c1.2091-0.0423,2.384-0.1166,3.5587-0.1089c0.4847,0.0031,0.5503-0.3177,0.7276-0.7038  c0.4881,0.5724,1.077,0.621,1.7498,0.5513c0.9961-0.1032,2.0035-0.1104,3.0066-0.1301c0.342-0.0067,0.6858,0.073,1.1523,0.1276  c-0.2462,0.4527-0.4204,0.7732-0.5944,1.0937c0.0354,0.0584,0.0707,0.1171,0.1064,0.1755c0.3884-0.1499,0.7768-0.2998,1.1946-0.4609  c-0.0599-0.2949-0.1076-0.5283-0.1811-0.8895c0.5716-0.0787,1.0899-0.1922,1.6122-0.214c1.5419-0.0643,3.0862-0.0748,4.628-0.1416  c0.876-0.0382,1.6338,0.165,2.2203,0.8485c0.5006,0.0395,0.9943-0.4507,1.5103,0.0551c0.1101,0.1078,0.6059-0.0641,0.8431-0.2257  c0.3567-0.2437,0.6659-0.2409,1.0899-0.2168c0.8319,0.0472,1.7086,0.3636,2.622-0.1401c-0.1597-0.1996-0.2785-0.3484-0.4077-0.5104  c0.0111-0.0115,0.0554-0.0866,0.081-0.0807c0.2375,0.0543,0.5362-0.2218,0.7066,0.2327c0.1845,0.4919,0.4248,0.0901,0.6177-0.0538  c0.1066,0.166,0.1939,0.4565,0.3241,0.4773c0.5093,0.0812,1.0765,0.2162,1.538,0.0681c0.5387-0.1729,0.8372-0.1947,1.1529,0.3246  c0.096,0.1583,0.5155,0.2086,0.7629,0.1665c0.4233-0.0714,0.8142-0.27,1.2162,0.0907c0.0958,0.0859,0.3646,0.0705,0.5034,0.0011  c0.7205-0.3597,1.3748-0.2286,2.0122,0.3059c0.1217-0.3364,0.2101-0.5808,0.3841-1.062c0.134,0.4476,0.1967,0.6572,0.2672,0.8926  c1.6233,0,3.2535,0.0149,4.8827-0.0102c0.4222-0.0064,0.8418-0.1415,1.2635-0.2111c0.247-0.041,0.5473-0.1766,0.7353-0.0861  c0.7617,0.3661,1.5987-0.1343,2.3414,0.2536c0.8135-0.4301,1.7225,0.2767,2.5812-0.2736c0.4041-0.259,1.0541-0.2224,1.5823-0.1827  c1.6187,0.1225,3.23,0.3362,4.8481,0.4678c1.9628,0.1597,3.9306,0.2578,5.8944,0.41c1.073,0.0832,2.14,0.2441,3.2128,0.332  c0.9991,0.082,2.0139,0.0377,3.0013,0.1857c1.3807,0.2073,2.7936-0.0164,4.1592,0.3887c0.395,0.1171,0.8536,0.0261,1.283,0.02  c0.6049-0.0087,1.2226-0.1614,1.7817,0.2341c0.0955,0.0677,0.2815,0.0551,0.4101,0.0211c1.3266-0.3513,2.5451-0.1302,3.8013,0.4322  c0.6177,0.2767,1.3906,0.3881,2.1802,0.0802c0.7087-0.2765,1.5354-0.2501,2.3955-0.369c0.2247-0.2536,0.5027-0.6264,0.8414-0.932  c0.3133-0.2834,0.6317-0.2327,0.9274,0.1158c0.8767,1.0327,1.973,1.3612,3.3475,1.3112c1.7514-0.0638,3.5233,0.0579,5.267,0.2631  c2.078,0.2447,4.1568,0.3428,6.2423,0.3654c2.4165,0.0264,4.8017,0.2733,7.1749,0.7447c1.0855,0.2158,2.2148,0.2081,3.3239,0.3077  c3.367,0.3029,6.7296,0.6936,10.1035,0.8665c1.1575,0.0592,2.3314,0.0533,3.4838,0.1893c1.1373,0.134,2.2533,0.4397,3.3852,0.6329  c0.8088,0.138,1.6341,0.1806,2.4413,0.3248c2.7636,0.4932,5.5222,1.0133,8.2832,1.5206c0.2834,0.052,0.5693,0.093,0.8555,0.1268  c1.8203,0.2144,3.6365,0.496,5.4629,0.6177c1.8649,0.1242,3.7403,0.0789,5.6105,0.1296c1.4366,0.039,2.8741,0.0871,4.3075,0.1845  c0.4174,0.0282,0.8319,0.2147,1.2311,0.3712c1.2305,0.4824,2.4521,0.9887,3.6811,1.4752c0.1193,0.0472,0.2677,0.0218,0.5475,0.039  c-0.2637,0.6046-0.4479,1.1441-0.7248,1.6312c-0.288,0.5067-0.3108,0.9441,0.0902,1.3783c0.4675,0.5065,0.518,1.0799,0.3015,1.7102  c-0.154,0.4478-0.1017,0.7919,0.3553,1.1044c0.5545,0.379,1.0238,0.8827,1.5337,1.3356c-0.2519,0.5339-1.3722,1.3394-2.9702,2.1162  c1.0558,0,2.0729,0,3.0906,0c0.0627,0.7369,0.052,0.7297-0.5703,0.6341c-0.4189-0.0643-0.8534-0.0976-1.2741-0.0625  c-0.3956,0.0331-0.6961,0.2888-0.6146,0.7269c0.1767,0.9517-0.4307,1.6225-0.7889,2.3849  c-0.1583,0.3369-0.3097,0.6772-0.4944,1.0814c-0.483,0.1258-1.0863,0.2898-1.6933,0.4389  c-0.6033,0.1483-1.0727,0.6828-1.0642,1.2334c0.0082,0.5262,0.2513,0.8249,0.952,0.9686c1.4063,0.2888,2.8139,0.6126,4.2378,0.7648  c1.2918,0.1381,2.3109,0.7145,3.2728,1.5013c0.2636,0.2158,0.5705,0.3784,0.9271,0.6108c-0.156,0.5532,0.248,0.9569,0.7645,1.2413  c0.4878,0.2685,0.8324,0.4445,0.807,1.1824c-0.0186,0.5393,0.6211,1.0056,1.2839,1.0294c0.0517,0.1089,0.1114,0.1739,0.1073,0.2349  c-0.0994,1.4852-0.1006,1.4852,1.3192,1.6776c0.1765,0.0238,0.4194-0.0182,0.5183,0.082c0.6451,0.6543,1.3968,0.3746,2.1351,0.3077  c0.4089-0.0369,0.824-0.0067,1.2931-0.0067c0-0.2974-0.0164-0.5385,0.0056-0.7763c0.0159-0.1739,0.0326-0.3894,0.1381-0.5039  c0.1589-0.1719,0.401-0.3776,0.5978-0.3679c0.1531,0.0077,0.3455,0.3,0.4253,0.5032c0.1764,0.4494,0.2928,0.922,0.4944,1.5859  c-0.0541,0.229-0.7937,0.4678-0.3707,1.1185c0.3282-0.0248,0.6684-0.0504,1.0904-0.0825c-0.0216,0.3415-0.0385,0.61-0.0654,1.0351  c0.3559,0.1124,0.7402,0.2698,1.1399,0.3517c0.634,0.1299,1.3693,0.0008,1.5794,0.927c0.039,0.1711,0.5368,0.2705,0.8373,0.342  c0.4719,0.1125,0.9561,0.1732,1.4257,0.2541c-0.0328,0.8235-0.6594,0.3569-0.9835,0.6902  c-0.1773,0.3941-0.1304,0.8609,0.0735,1.3502c0.257,0.6164,0.0697,1.1191-0.5183,1.5441c-0.4527,0.3275-0.6628,0.3008-1.344-0.1821  c-0.3582,0.7189-1.004,0.3323-1.5252,0.3528c-0.4419,0.0174-0.8972-0.1625-1.0107,0.4727c-0.5364-0.9534-1.0025-1.8588-1.5464-2.715  c-0.2646-0.4166-0.6612-0.755-1.022-1.1042c-0.434-0.4204-0.9021-0.567-1.5613-0.4507c-1.3617,0.2401-2.7505,0.3267-4.2593,0.4909  c0.2352-0.2641,0.4076-0.4578,0.598-0.6715c-0.0846-0.092-0.1468-0.2224-0.2229-0.2311c-0.2764-0.0315-0.7079-0.1401-0.8116-0.0082  c-0.5514,0.7005-1.3664,0.5562-2.0535,0.733c-0.0607,0.0781-0.1347,0.1302-0.1414,0.1896c-0.0464,0.4099,0.0566,0.93-0.1586,1.198  c-0.1655,0.2065-0.7317,0.0615-1.1078,0.1347c-1.4696,0.2862-2.934,0.597-4.4005,0.8985c-0.0041,0.0723-0.0085,0.1448-0.0128,0.217  c0.8475,0.1668,1.6948,0.3359,2.543,0.4991c0.2701,0.0518,0.5419,0.1079,0.8153,0.1248c0.1814,0.0113,0.3794-0.0103,0.5482-0.0743  c0.6572-0.2485,0.8145-0.2129,1.1983,0.3523c0.0802-0.0666,0.1686-0.123,0.2336-0.1991c0.0687-0.0802,0.1151-0.1793,0.207-0.3282  c0.3401,0.3628,0.599,0.8278,1.0584,0.322c0.0466-0.0512,0.2098-0.0292,0.3057,0.0013c1.5845,0.5032,3.2242,0.0628,4.8245,0.2867  c0.5521,0.0774,1.1044,0.1512,1.8497,0.2526c-0.9992,0.7077-1.9148-0.259-2.8423,0.3805c1.1204,0.301,1.8331,1.1739,2.943,1.4629  c0.7148,0.186,1.3725,0.5629,2.1623,0.3674c0.1276,0.4412,0.2381,0.8224,0.3482,1.2036c0.0679-0.0008,0.1355-0.0015,0.2034-0.0023  c0.1174-0.281,0.2347-0.5624,0.3695-0.8849c0.0945,0.0704,0.206,0.1107,0.2362,0.1842c0.0953,0.2326,0.1645,0.4763,0.2362,0.7181  c0.301,1.0138,0.8511,1.7417,2.0138,1.7886c0.0999,0.0041,0.1995,0.0684,0.2946,0.1142c0.0269,0.0128,0.0374,0.0597,0.0553,0.091  c-0.3822,0.2777-0.3822,0.2777-1.0012,0.1171c-0.3116,0.415-0.631,0.8405-0.981,1.3068c-1.0456-0.4009-1.9323-0.0899-2.687,0.6054  c-0.7069,0.6515-1.4542,0.2147-2.0045-0.0643c-0.969-0.4916-1.8872-0.5723-2.9169-0.3991  c-0.5933,0.0999-1.2159,0.0379-1.8252,0.0294c-0.4132-0.0059-0.8259-0.0456-1.2389-0.0702  c-0.0213,0.0864-0.0423,0.1727-0.0636,0.259c0.6213,0.2926,1.2426,0.5852,1.9054,0.8975c-0.3564,0.4074-0.8132,0.1891-1.157,0.0694  c-0.5785-0.2013-1.3907-0.054-1.5826-0.9897c-0.0366-0.178-0.6082-0.3266-0.9418-0.3479c-0.8226-0.0525-1.6506-0.0261-2.4764-0.0253  c-0.5011,0.0005-0.5011,0.0056-1.0642-0.4064c0.7926-0.6115,1.6637,0.1445,2.4936-0.2206c0.7137-0.3138,1.5833-0.2733,2.4198-0.3948  c-0.062-0.5867-0.4051-0.7704-0.8035-0.8121c-0.6023-0.0633-1.2256-0.1542-1.8152-0.0664c-1.1618,0.1735-2.3104,0.0005-3.464,0.0139  c-1.1511,0.013-2.3015,0.093-3.4526,0.1206c-0.3615,0.0087-0.6874-0.0253-0.9948,0.2711c-0.1845,0.1778-0.5283,0.3008-0.783,0.2752  c-0.8777-0.0884-1.4306,0.4975-2.3298,0.931c0.4173,0.1035,0.6072,0.1937,0.7955,0.1901c1.1142-0.0203,2.2279-0.062,3.3418-0.0979  c0.1069-0.0033,0.2406-0.0604,0.3164-0.0156c1.4138,0.836,3.0563,0.24,4.5299,0.7279c0.394,0.1304,0.8083,0.0517,1.1099,0.5016  c0.3533,0.5265,0.8257,0.1729,1.0391,0.0394c0.5383,0.2316,0.9149,0.4533,1.3212,0.5529c0.4855,0.1189,1.0046,0.0961,1.494,0.204  c0.4086,0.0901,0.8019,0.2641,1.19,0.4296c0.619,0.2639,1.2282,0.5516,1.9653,0.8852c-0.2849,0.2341-0.5101,0.4194-0.7522,0.6184  c0.0313,0.0838,0.0441,0.2434,0.1061,0.2657c0.7898,0.2829,1.5139,0.4822,2.2658-0.2495c1.2421-1.209,2.8072-1.2746,4.4235-0.959  c0.329,0.0641,0.6687,0.0736,1.1383,0.1222c0.1369,0.1912,0.3516,0.5214,0.5965,0.8268c0.4537,0.5657,0.7524,0.5306,1.1065-0.1319  c0.1325-0.2473,0.2175-0.5196,0.3771-0.9103c0.5422,0.3566,1.0528,0.6927,1.7166,1.1296c-0.527,0.4101-0.9597,0.7614-1.4106,1.0873  c-0.1041,0.075-0.3213,0.1358-0.4005,0.0804c-0.8852-0.6184-1.445,0.174-1.983,0.5562c-0.6279,0.4463-0.5954,1.2549-0.4363,1.9679  c-0.4051,0.3133-0.6746,0.2016-0.9403-0.145c-0.229-0.2987-0.5026-0.7712-0.7757-0.785c-0.576-0.029-1.2147-0.1483-1.7601,0.2759  c-0.2713,0.2111-0.6241,0.3169-0.9349,0.4681c0.1745,0.0343,0.3869,0.133,0.58,0.104c1.0264-0.154,1.8445,0.1837,2.4818,1.0189  c-0.3,0.0185-0.613,0.0377-1.1936,0.0733c0.515,0.1796,0.7886,0.2746,1.0745,0.3743c0,0.3518,0,0.662,0,1.1255  c0.8168-0.0866,1.5828-0.1599,2.3463-0.2547c0.1737-0.0215,0.3441-0.1816,0.5055-0.1662c0.3369,0.032,0.8021,0.0348,0.9618,0.2433  c0.1593,0.2083,0.0676,0.6692-0.0223,0.9892c-0.0741,0.2632-0.3139,0.4768-0.4663,0.7212c-0.1706,0.2739-0.446,0.5498-0.4645,0.8386  c-0.0515,0.8014-0.6297,1.2477-1.0545,1.8016c-0.2355,0.3072-0.486,0.6026-0.7981,0.9874c0.3805,0.157,0.6543,0.27,0.9149,0.3774  c-0.0187,0.1296-0.0049,0.2159-0.0418,0.2603c-0.7017,0.8459-1.7283,1.0788-2.7026,1.3904  c-0.4335,0.1386-1.0497-0.2168-1.2585,0.4954c-0.3873-0.0935-0.7747-0.187-1.3468-0.3248c-0.2898,0.198-0.7671,0.1514-1.2982-0.0572  c-0.7453-0.2923-1.5136-0.2731-2.4395,0.1387c0.3951,0.2567,0.63,0.4091,0.9313,0.6048c-0.2883,0.2165-0.5291,0.3971-0.7763,0.5829  c0.1276,0.5647,0.5003,0.6087,0.9139,0.5562c1.9647-0.2508,3.9101,0.1576,5.868,0.1783c0.8959,0.0095,0.9981,0.2739,0.7145,1.1217  c-1.5756,0.5208-3.1323,0.3164-4.7077,0.063c-1.1203-0.1801-2.2371-0.4402-3.4113-0.0369  c-0.5239,0.1798-1.1964-0.0848-1.8026-0.1276c-0.2045-0.0146-0.4133,0.0328-0.6418,0.0541c0,0.4209,0,0.7883,0,1.333  c-0.7957-0.682-1.4444-1.3799-2.3942-1.3443c-0.9528,0.0353-1.9276,0.0681-2.8863,0.5226c0.3064,0.2442,0.5549,0.4422,0.8675,0.6915  c-0.5342,0.3397-0.9254,0.0876-1.3056-0.0484c-1.446-0.5175-2.3922-0.4197-3.8241,0.443c0.2214,0.6994,0.6636,0.9195,1.4207,0.9389  c2.3029,0.0585,4.6021,0.2557,6.9051,0.3295c0.816,0.0259,1.6368-0.1778,2.4585-0.2229c0.744-0.041,1.4921-0.0087,2.2458-0.0087  c-0.185,0.7924-0.226,0.8332-0.9531,0.8188c-0.8967-0.0179-1.7928-0.0717-2.689-0.0671c-0.9623,0.0049-1.9254,0.0436-2.8864,0.0958  c-2.7221,0.1479-5.444,0.307-8.1651,0.4725c-0.2329,0.014-0.4609,0.1094-0.7055,0.1706c0.3223,1.0427,1.4057,0.4391,1.9968,1.075  c-1.0704,0.4745-2.1583-0.0612-3.1595,0.26c0.1186,0.2106,0.2055,0.4635,0.3748,0.6349c0.1484,0.1499,0.38,0.2585,0.5911,0.2975  c0.5416,0.1001,1.1296-0.0006,1.7357,0.4109c-1.3821,0.6303-2.6247,0.0961-4.0551-0.1427c0.4642,0.7215,1.0059,0.8393,1.5654,0.8475  c0.7186,0.0108,1.4393-0.0256,2.1572-0.0722c0.3292-0.0216,0.5844-0.02,0.5575,0.4547c-0.4668,0.0584-0.983,0.0179-1.3958,0.2052  c-0.3932,0.1786-0.6787,0.5952-1.0491,0.9426c-0.7107-1.1414-1.8916-0.6884-2.9079-0.7415  c-0.6023-0.0312-1.1498,0.1043-1.7132-0.3335c-0.3645-0.2834-0.9405-0.3464-1.4327-0.3918  c-0.2259-0.0207-0.5172,0.196-0.7112,0.3772c-0.7361,0.6881-1.5969,0.7822-2.2276,0.0699  c-0.5819-0.6574-1.1829-0.7227-1.9244-0.4158c-0.1985,0.0822-0.4452,0.0789-0.6151,0.1952  c-1.4532,0.9936-3.2317,1.1255-4.8083,1.808c-0.7331,0.3175-0.8114,0.9454-1.2144,1.4071  c-0.0672,0.0766-0.1036,0.1801-0.2027,0.3589c-0.9167-0.2567-1.7944-0.1271-2.6506,0.3582  c-0.3539,0.2006-0.8371,0.185-1.2649,0.2406c-1.5659,0.2039-3.1333,0.395-4.6992,0.5977c-0.0518,0.0069-0.0941,0.0855-0.2201,0.2075  c0.5014,0.081,0.942,0.1368,1.3758,0.227c0.4015,0.0835,0.9059-0.3961,1.2923,0.2687c-0.3149,0.0631-0.5598,0.1123-0.9254,0.1853  c0.2387,0.3346,0.4124,0.5777,0.6628,0.9282c-1.4691-0.2741-2.7429-0.7074-3.8702-1.6628  c-1.0038,0.6282-2.1662,0.5053-3.2947,0.5199c-1.3986,0.0179-2.7985-0.0561-4.1981-0.0769  c-0.2119-0.0033-0.4238,0.0776-0.638,0.0976c-0.4998,0.0469-1.0368,0.2157-1.4949,0.0943c-1.4373-0.382-2.904-0.2203-4.3523-0.3453  c-0.6992-0.0605-1.415,0.1063-2.1242,0.124c-1.2208,0.0302-2.4569,0.1457-3.659-0.0011c-1.146-0.1401-2.2469-0.1071-3.3854,0.0113  c-1.1373,0.1179-2.2976,0.0359-3.4472,0.0102c-0.754-0.0166-1.518-0.0233-2.2571-0.1516c-1.0107-0.176-1.9833-0.1143-2.9942,0.0325  c-1.5229,0.2214-3.0719,0.2554-4.6047,0.4161c-1.5364,0.1611-3.0647,0.3986-4.6004,0.5672  c-1.0996,0.1207-2.2061,0.1742-3.3077,0.2767c-0.3923,0.0364-0.7766,0.1619-1.1686,0.1899  c-1.3263,0.094-2.6417,0.1593-3.9854,0.0548c-1.2329-0.0958-2.497,0.2006-3.7459,0.3343c-0.3887,0.0418-0.7738,0.1171-1.1824,0.1804  c0,0.3425,0,0.6369,0,1.2259c-0.7307-1.0845-1.6468-0.7373-2.439-0.7599c-1.3607-0.0387-2.7257,0.1038-4.0897,0.1371  c-0.8973,0.0218-1.796-0.0126-2.694-0.0259c-1.645-0.0246-3.3275-0.2764-4.9231-0.009c-1.3061,0.2188-2.5418,0.1568-3.8223,0.1143  c-0.7842-0.0259-1.5407,0.0525-2.3111-0.2595c-0.597-0.2419-1.2337,0.2006-1.6103,1.1078c-0.1819,0.4378-0.3487,0.4701-0.7586,0.289  c-0.1537-0.3741,0.2675-1.0553-0.486-1.1952c-0.6505-0.1207-1.2974-0.4027-1.8864,0.2603  c-0.1932,0.2173-0.6548,0.2851-0.9869,0.2708c-0.6812-0.0297-1.2861,0.0843-1.8182,0.6459  c-0.8537-0.9131-1.7255-0.155-2.5948-0.0951c-0.1686,0.0116-0.3436,0.1922-0.494,0.1671c-2.0565-0.3454-4.0326,0.1962-6.0281,0.5206  c-0.9215,0.1499-1.8387,0.3302-2.7626,0.465c-2.6268,0.3825-5.2552,0.755-7.8848,1.1165c-0.569,0.0784-1.1465,0.0966-1.7207,0.1376  c-1.6478,0.1173-3.2949,0.2505-4.9446,0.3361c-0.4584,0.0236-0.9326-0.0597-1.3848-0.1606  c-0.7209-0.1612-1.4121-0.1686-2.1244,0.0702c-1.1765,0.395-2.3486,0.0545-3.5248-0.0738  c-0.5918-0.0646-1.1987,0.0097-1.7988,0.0174c-0.7488,0.01-1.5082,0.0984-2.2448,0.0062c-1.3963-0.1748-2.7562-0.2455-4.1773-0.0467  c-1.0953,0.153-2.2574-0.1883-3.3916-0.2913c-0.3828-0.0348-0.7891-0.0904-1.1532-0.0036  c-1.9566,0.4668-3.7746-0.0481-5.5746-0.7235c-0.1599-0.0602-0.3856-0.1698-0.4207-0.2997  c-0.1734-0.6426-0.6661-0.7686-1.2582-0.7753c0.0971-0.2272,0.1647-0.3858,0.2913-0.6822c-0.3138,0-0.567-0.0285-0.8111,0.0056  c-0.7153,0.0994-1.3566,0.7248-2.159,0.2795c-0.0897-0.0497-0.3087,0.1266-0.4645,0.2042c-0.3154,0.157-0.6175,0.3487-0.9459,0.4694  c-0.3651,0.134-0.6461,0.3128-0.7112,0.7232c-0.0823,0.5175-0.4527,0.6987-0.9082,0.7832  c-1.2336,0.2285-2.4637,0.5947-3.7093,0.0436c-0.1604-0.071-0.3712-0.1463-0.5224-0.1005  c-1.1731,0.3559-2.0821-0.3533-3.0721-0.7309c-0.2001-0.0763-0.3825-0.1983-0.5818-0.2772  c-1.5106-0.5993-1.6989-1.0087-1.2157-2.6655l-0.0312,0.0292c1.5366,0.0271,3.0736,0.0438,4.61,0.0848  c1.0738,0.0287,2.1488,0.0589,3.2187,0.1471c0.8823,0.0725,1.2812-0.1015,1.2948-1.0974c0.3822-0.1388,0.9705-0.105,0.7061-0.869  c-0.4443,0-0.8578,0-1.3615,0c0.2849,0.3718,0.4866,0.6344,0.6879,0.897c-0.4921-0.0413-0.9845-0.0807-1.4762-0.1261  c-0.1068-0.01-0.2244-0.0843-0.3151-0.0569c-1.4755,0.4453-2.9204-0.3035-4.388-0.1068c-0.1411,0.019-0.2951,0.0318-0.4296-0.0038  c-0.9608-0.2544-1.8961-0.2063-2.8743,0.0041c-0.6789,0.146-1.4212-0.0274-2.1334-0.0062  c-2.5279,0.0759-5.0543,0.2045-7.5825,0.2544c-2.1846,0.0428-4.371,0.0018-6.5567,0.0105  c-0.2021,0.0011-0.4032,0.0976-0.6061,0.1435c-0.1122,0.0254-0.2988,0.0912-0.3308,0.0482  c-0.518-0.6907-0.9876-0.2424-1.3271,0.1291c-0.4834,0.5293-0.9631,0.9607-1.7821,0.8647c0.6328,0.7396,1.4037,0.2316,2.077,0.3433  c0.6979,0.1158,1.4201,0.0853,2.1887,0.1214c-0.228-0.2657-0.4942-0.5298-0.0551-0.753c0.4725-0.24,1.2283-0.0205,1.7555,0.5096  c-0.1581,0.092-0.2936,0.1894-0.4437,0.2526c-0.1251,0.0531-0.2672,0.0666-0.4164,0.101c0.7294,1.2525,0.5393,1.6046-0.8923,1.8146  c-0.9356,0.1374-1.861,0.1002-2.7872-0.062c-0.5985-0.1045-1.0456-0.3615-1.3392-0.9525c-0.2544-0.5114-0.6661-0.9444-1.0168-1.4242  c0.3876-0.2724,0.8426-0.5918,1.456-1.0228c-0.4489-0.1094-0.7107-0.2293-0.9723-0.2285c-3.1192,0.0077-6.2392,0.0876-9.3572,0.0369  c-2.3893-0.0387-4.7756-0.2506-7.1646-0.3554c-0.8857-0.0386-1.7755,0.019-2.6632,0.009c-0.2427-0.0026-0.4886-0.0761-0.7243-0.1463  c-0.1325-0.0394-0.2496-0.2049-0.3697-0.2008c-1.5469,0.0553-3.0347-0.4663-4.5706-0.4666c-1.2572,0-2.5039,0.0431-3.7405-0.3067  c-0.4776-0.1352-1.0253-0.022-1.5931-0.022c0.268-0.4816,0.4778-0.8588,0.6925-1.2451c0.804,0.1698,2.3458,0.0182,3.0101-0.3052  c-0.0297-0.0609-0.0551-0.1719-0.0897-0.1749c-0.7368-0.0633-1.4746-0.1189-2.2128-0.1668  c-1.3399-0.0869-2.6803-0.1678-4.1158-0.2573c0.205,0.1007,0.3781,0.1425,0.4894,0.2491c0.3017,0.2895,0.1744,0.8211-0.2096,0.7978  c-0.8273-0.05-1.6482-0.2086-2.4701-0.3333c-0.0376-0.0057-0.0594-0.1153-0.1299-0.2626c0.4269-0.0761,0.8378-0.1497,1.3687-0.2445  c-0.4061-0.6871-0.8242-0.5851-1.2385-0.3158c-0.4409,0.2866-0.8549,0.6148-1.2861,0.9292  c-0.6418-1.0397-0.6369-1.0084-1.7594-0.8337c-0.5229,0.0812-1.0686,0.0146-1.604,0.0149  c-0.4479,0.0002-0.8957,0.0002-1.3522,0.0984c1.1946,1.0061,2.8215,0.5854,4.1732,1.2784  c-0.4291,0.4904-0.9761,0.4045-1.2736,0.2716c-1.1611-0.5191-2.4088-0.3246-3.5939-0.5762c-0.7031-0.1491-1.4202-0.238-2.116-0.4125  c-0.2534-0.0633-0.5155-0.2544-0.6838-0.4607c-0.3953-0.4847-0.8701-0.5449-1.3384-0.238  c-0.8142,0.5337-1.4698,0.3234-2.1428-0.2551c-0.2306-0.1983-0.5642-0.3367-0.8683-0.3802  c-2.6214-0.3764-5.2152-0.8486-7.904-0.7722c-3.5558,0.1009-7.1198-0.1117-10.681-0.153c-1.0023-0.0115-2.0319-0.0164-3.0032,0.1906  c-1.4239,0.3036-2.7933-0.0151-4.1801-0.126c-0.9021-0.0723-1.7891-0.2268-2.6607,0.1399c-0.0656,0.0274-0.1396,0.0584-0.2073,0.054  c-1.6458-0.1096-3.2929-0.2075-4.9356-0.3538c-0.2737-0.0243-0.5278-0.2639-0.9882-0.5091c0.9889-0.4288,1.8528-0.003,2.5909-0.353  c-0.176-1.0563-1.0855-1.9171-2.1011-1.9397c-0.8241-0.0182-1.6506,0.0794-2.4751,0.0664c-0.4102-0.0064-0.818-0.1466-1.2546-0.2314  c0.041-0.3307,0.0663-0.5347,0.0984-0.7942c-0.3787-0.0361-0.744-0.071-1.2162-0.1161c0.5652-1.0096,1.5631-0.0097,2.1549-0.6407  c-0.2052-0.5598-0.6933-0.5716-1.1381-0.6272c-0.2467-0.031-0.5019,0.011-0.7527,0.0033c-0.5503-0.0166-0.6784-0.1732-0.6246-0.7345  c0.0748-0.7801,0.1481-1.5603,0.227-2.3939c-0.3364-0.0379-0.6026-0.0679-1.0499-0.1184c0.371-0.3138,0.6172-0.5221,0.9128-0.7724  c-0.1839-0.2099-0.3399-0.3879-0.517-0.5901c0.0413-0.0794,0.0769-0.177,0.1361-0.2572c0.186-0.2531,0.4996-0.4786,0.549-0.7535  c0.1315-0.7301,0.6062-0.9146,1.2272-0.9684c0.5134-0.0443,0.9623-0.2185,1.3845-0.6631c-0.282-0.2451-0.5088-0.4424-0.7619-0.6625  c0.0233-0.2931,0.0481-0.6059,0.0745-0.9413c-0.6402-0.3927-1.3094-0.4283-1.9919-0.4124c-0.6682,0.0156-1.2429-0.0797-1.653-0.7517  c-0.1917-0.3134-0.6849-0.4425-1.0515-0.6613c0.2621-0.7791,0.2603-0.9033-0.5324-1.0909c-1.043-0.2465-2.1154-0.3866-3.1825-0.5057  c-0.3833-0.0431-0.6323-0.1376-0.9172-0.4205c-0.499-0.4954-1.0819-0.9197-1.6778-1.2981c-0.2339-0.1486-0.6213-0.1873-0.897-0.1153  c-1.0512,0.2741-1.9082-0.0315-2.6678-0.7455c-0.3359-0.3154-0.6764-0.6265-1.0773-0.9974  c0.0704-0.4028,0.1496-0.8555,0.2313-1.3228c-0.7993-1.146-1.9217-2.1336-1.974-3.814c0.9451,1.8041,1.5692,2.14,2.6148,2.1712  c0.0277,0.1645,0.0551,0.3293,0.1009,0.6034c0.4673-0.1143,0.897-0.2193,1.5518-0.3797c-1.3043-0.7232-1.3978-2.2971-2.8635-2.6855  c-0.0776,0.0497-0.2501,0.1604-0.4307,0.2762c-0.3499-0.1663-0.7537-0.2736-1.0437-0.5167  c-0.402-0.3367-0.7789-0.7382-1.0533-1.1819c-0.2352-0.3805,0.0008-0.6436,0.5276-0.6118  c-0.1579-0.2157-0.2901-0.3472-0.3621-0.5057C3.3582,54.947,3.111,54.554,3.2094,54.401c0.1639-0.2549,0.5697-0.5157,0.8557-0.4972  c0.6336,0.0415,1.3194,0.1329,1.8705,0.4211c1.5082,0.7884,3.0564,0.9631,4.7018,0.649c0.3095-0.0592,0.6461,0.0407,0.9671,0.02  c0.3464-0.0223,0.6892-0.0999,1.0335-0.1535l-0.0182,0.001c1.0284-0.2059,2.0309-0.2723,3.0911-0.0263  c0.7373,0.1711,1.5567-0.0108,2.3509-0.1658c-2.3824-1.0335-4.8983-1.3512-7.4506-1.6738  c-0.1547,0.4007-0.2662,0.6884-0.3674,0.9498c-0.1334,0-0.2516,0.022-0.2626-0.0031c-0.4271-0.9733-1.3558-1.3312-2.2192-1.6876  c-1.241-0.5124-2.448-0.2465-3.5647,0.4699c-0.4469,0.2867-0.9034,0.5577-1.3556,0.836c-0.0446-0.0556-0.0889-0.1112-0.1335-0.1666  c0.4115-0.3328,0.8109-0.6815,1.2372-0.9935c0.4619-0.3382,0.9472-0.6446,1.4253-0.9605c0.4647-0.3069,0.9333-0.6082,1.4816-0.9649  c-1.5826-1.0729-3.0298-2.0326-4.4531-3.0267C1.4782,46.7847,0.4836,46.2024,0,45.1017c1.0519,0.2865,1.8779,0.8194,2.3447,1.5062  c1.3402,0.8819,2.5786,1.9113,4.1276,2.4662c0.6354,0.2275,1.0707,0.1466,1.6435-0.3294c-0.2492-0.2862-0.4217-0.6385-0.6953-0.7576  c-0.3146-0.1371-0.7191-0.0674-1.1713-0.0925c0.1317-0.4476,0.2157-0.7338,0.3205-1.0899  c-0.4548-0.0968-0.8596-0.1829-1.2259-0.2608c-0.2596,0.392-0.4602,0.6948-0.7653,1.1557  c-0.1811-0.5011-0.2949-0.8155-0.4397-1.2157C3.5168,46.5324,2.9175,46.5792,2.3183,46.6261z M146.4556,89.2173  c0.3272-0.6118,0.8089-0.2915,1.2513-0.2072l-0.0261-0.0121c1.406,0.5903,2.1826,0.3961,2.9468-0.7773  c-1.2113-0.609-2.4723-0.4468-3.7264-0.3015c-0.1604,0.0184-0.3282,0.1432-0.4532,0.2605c-0.2557,0.2401-0.4986,0.3321-0.866,0.2178  c-0.5168-0.1612-0.8606,0.0815-1.1165,0.7204c0.7481,0.0351,1.3771,0.0646,1.9953,0.1005  c-0.4791,0.6735-0.9685,1.3286-2.0993,0.9802c0.9756,0.8044,1.7406,0.6817,2.3721-0.2306  C146.6396,89.7138,146.5476,89.4656,146.4556,89.2173z M25.6261,41.8567c-0.0016-0.0845-0.0028-0.1693-0.0041-0.2539  c-0.1963-0.0579-0.3925-0.1652-0.589-0.1655c-1.507-0.0023-3.0142-0.2229-4.5225,0.0969c-0.5895,0.1247-1.2208,0.0981-1.83,0.073  c-0.9328-0.039-0.9736-0.1071-1.0356-1.095c-1.7183-0.2675-3.4369-0.0279-5.1526,0.0879c-0.2832,0.0189-0.5914,0.2377-0.8166,0.4429  c-0.6059,0.5526-0.8167,0.6246-1.4608,0.1227c-0.3226-0.2515-0.6269-0.385-0.9815-0.2449c-0.5988,0.2365-1.1598,0.235-1.7714,0.018  c-0.3243-0.1151-0.7035-0.0495-0.9423,0.3312c-0.216,0.3443-0.0502,0.5929,0.0866,0.8965c0.411,0.9123,0.7853,1.8413,1.1747,2.7633  c0.1074,0.2542,0.2188,0.5065,0.3141,0.7274c1.2046,0.0935,1.3602-1.0143,2.2387-1.5236c-0.4735-0.071-0.722-0.0884-0.9595-0.1497  c-0.2283-0.0586-0.4448-0.1626-0.6664-0.2469c0.0044-0.07,0.009-0.1402,0.0133-0.2101c2.5749-0.1768,5.1494-0.3536,7.7334-0.5309  c0-0.4068,0-0.671,0-0.9215c0.1276-0.0331,0.2019-0.0769,0.2632-0.063c0.1376,0.0315,0.2651,0.1058,0.4027,0.1375  c0.8245,0.1919,1.6581,0.558,2.4749,0.5255c1.6487-0.0656,3.2899-0.3407,4.9313-0.5495  C24.8985,42.0778,25.26,41.9484,25.6261,41.8567z M318.6343,71.4214c0.6908,0.3462,0.8388,0.3421,1.455,0.1942  c0.4468-0.1073,0.9085-0.1934,1.366-0.2085c1.2221-0.0402,2.4486,0.0074,3.6683-0.0636c1.2131-0.0707,2.4618,0.1965,3.6342-0.3292  c0.8603,0.2729,1.3633-0.6159,2.1552-0.6441c-0.1894-0.1468-0.3738-0.2083-0.5621-0.2554c-0.4842-0.1219-0.968-0.248-1.4563-0.3528  c-0.4786-0.103-0.9787-0.3061-1.4411-0.2464c-1.0873,0.1398-2.1252,0.186-3.0385-0.5437c-0.3397,0.6764-0.783,0.9851-1.4683,0.7891  c-0.0825-0.2649-0.1499-0.4817-0.2321-0.7466c-0.2444,0.0876-0.4671,0.0974-0.5591,0.2122  c-0.4516,0.5636-1.0501,0.4496-1.5738,0.2813c-1.2072-0.3887-2.2832-0.0379-3.494,0.3812c0.6502,0.2418,1.1708,0.4355,1.6952,0.6305  C318.722,70.8901,318.6769,71.1637,318.6343,71.4214z M19.2139,24.1149c0.7368,0.6602,0.7909,0.6661,1.4908,0.3241  c0.2188-0.1069,0.4515-0.2183,0.688-0.2501c0.7775-0.1035,1.5592-0.1809,2.3411-0.2477c0.2795-0.0241,0.6149-0.0846,0.837,0.0348  c0.8636,0.4642,1.6317,0.0495,2.4467-0.175c-0.2772-0.1885-0.5685-0.2805-0.8585-0.3756c-0.1991-0.0653-0.4753-0.0761-0.5803-0.2147  c-0.3392-0.447-0.7919-0.4593-1.2638-0.4242c-0.4797,0.0353-0.9388,0.0556-1.1225-0.4502  c-0.5605,0.3923-1.0724,0.6977-1.5169,1.0809c-0.2713,0.2339-0.4963,0.3251-0.8598,0.2834  C20.2513,23.636,19.6702,23.6532,19.2139,24.1149z M17.0267,48.7052c-0.4352-0.6999-1.253-0.9892-2.0793-0.5744  c-0.4278,0.2147-0.7827,0.2073-1.219,0.1729c-0.4202-0.033-0.9466-0.1258-1.2513,0.5393c0.5222,0.2965,1.0159,0.361,1.5114,0.0894  c0.4265-0.2336,0.6361-0.1275,0.7896,0.34c-0.4361,0.0933-0.814,0.174-1.3138,0.2806c1.8364,0.5546,3.4902,0.1129,5.208-0.0134  c0.0438-0.3176,0.0894-0.6481,0.1537-1.1152C18.1707,48.5266,17.6524,48.6076,17.0267,48.7052z M326.9721,64.9073  c-0.281,1.0763-0.4056,1.1857-1.3422,1.0407c-0.6193-0.0958-1.1998-0.1645-1.6735,0.3771c2.4631,0.8255,4.4991,0.0289,4.9039-2.0119  c-1.7852,0.0112-3.5525-0.1725-5.2757,0.3448c0.0026,0.083,0.0054,0.1663,0.008,0.2493  C324.7106,64.9073,325.8284,64.9073,326.9721,64.9073z M318.1671,57.3399c0.6912,0.1327,0.6563,1.1357,1.4618,1.0973  c0.6769-0.0325,1.3564-0.0023,2.0345-0.0061c0.25-0.0016,0.5137,0.0258,0.7466-0.0428c0.3773-0.1115,0.8518-0.091,1.1651-0.7871  C321.7146,57.3409,319.9991,56.9136,318.1671,57.3399z M113.3187,7.4808c-0.4673-1.107-0.8939-1.3417-1.7701-1.034  c-0.6809,0.2393-1.3335,0.433-2.0795,0.2185c-0.5378-0.1544-0.9146,0.174-1.0907,0.8663  C110.0102,7.1608,111.6122,7.9328,113.3187,7.4808z M52.0291,28.7047c-0.8453-0.7061-1.671-0.5818-2.4537-0.4145  c-0.7235,0.1547-1.4168,0.4498-2.1246,0.6791c-0.3067,0.0994-0.5158,0.2404-0.3119,0.6521c0.8071-0.1379,1.598-0.3195,2.3988-0.3961  C50.3225,29.1505,51.1651,29.4397,52.0291,28.7047z M13.3764,65.4743c-0.1084,0.7609,0.4202,0.9113,0.9192,0.9576  c0.6019,0.0561,1.2162,0.0034,1.8234-0.033c0.3556-0.0215,0.6326-0.1955,0.6054-0.6062c-0.0243-0.3676-0.239-0.6187-0.6149-0.6264  C15.1839,65.1476,14.2493,65.0953,13.3764,65.4743z M93.0605,7.5764c0.9728-0.1092,1.7537-0.0948,2.4685-0.3046  c0.8003-0.2352,1.5443,0.4814,2.3816,0.1178C96.9019,5.9844,95.115,6.0343,93.0605,7.5764z M114.6566,4.2565  c0.4145,0,0.6961,0.0733,0.9149-0.0128c0.8583-0.3387,1.7258-0.4368,2.6363-0.2923c0.8444,0.1337,1.5515-0.2511,2.2633-0.693  c-0.3751-0.1276-0.9121-0.3016-1.0827-0.124c-0.5878,0.6118-1.04,0.1109-1.5713-0.0971c-0.4189,0.6244-1.0335,0.3523-1.5874,0.3822  C115.9704,4.1256,115.1178,3.4234,114.6566,4.2565z M87.2555,86.144c0.0131,0.1199,0.0261,0.2398,0.0392,0.3599  c1.5956,0.2467,3.19,0.5104,4.9698,0.2949c-0.8709-0.6159-1.9528-0.8516-3.9309-0.8731  C87.9752,85.9218,87.615,86.0674,87.2555,86.144z M320.5325,73.7326c0.7566,0.0274,1.4926,0.0374,1.9382-0.7496  c0.2239-0.3956,0.0807-0.7125-0.3421-0.8107C321.2332,71.9646,320.4656,72.6812,320.5325,73.7326z M327.5975,39.9752  c0.6551,1.0558,1.3302,1.4101,2.2571,1.116c0.1906-0.0605,0.4279-0.3231,0.4373-0.5034c0.009-0.1696-0.3005-0.5278-0.3912-0.504  c-0.7614,0.2006-1.4393-0.1663-2.1551-0.2406C327.7012,39.8386,327.6469,39.9288,327.5975,39.9752z M13.6298,44.5532  c1.0681,0.4673,2.1188,0.5109,3.1623,0.5526c0.148,0.0059,0.3051-0.2152,0.4737-0.343  C16.3522,44.0285,15.197,43.9614,13.6298,44.5532z M11.2074,47.6302c-0.7371-0.5585-1.7273,0.0856-2.2561-0.6569  c-0.0361-0.0507-0.3156,0.072-0.4822,0.1137C8.9088,48.6119,9.7466,48.8415,11.2074,47.6302z M9.2516,46.5267  c0.4235,0.2847,0.7722,0.1202,1.1029,0.1002c0.3551-0.0213,0.7079-0.0953,1.0625-0.1022c0.3904-0.0075,0.7822,0.0325,1.1729,0.0571  c0.3563,0.0223,0.7127,0.0774,1.0681,0.0702c0.3169-0.0061,0.7058,0.1747,0.9827-0.2708c-0.9289-0.2547-1.7552-0.382-2.6711-0.0894  C11.1477,46.5541,10.1905,45.8873,9.2516,46.5267z M33.3887,23.3283c-0.7235-0.7112-1.9056-0.7975-3.0378-0.2216  C31.7718,23.7457,32.1835,23.7757,33.3887,23.3283z M333.1901,46.2014c0.137-0.196,0.2662-0.3802,0.4542-0.6487  c-0.6402-0.0915-1.2077-0.3239-1.5428,0.2792c-0.2206,0.3971,0.33,0.9162,1.1647,1.1217c0.1258,0.0307,0.2895-0.0923,0.5534-0.186  C333.5442,46.5198,333.3702,46.3633,333.1901,46.2014z M124.5116,2.9092c-0.4683-0.7458-1.249-0.3413-1.8172-0.6431  c-0.3208,0.4666-0.2898,0.8885,0.1852,0.9872C123.4046,3.3624,124.0143,3.4134,124.5116,2.9092z M301.7659,81.0415  c1.7134,0.5055,1.7134,0.5055,2.191-0.4727C303.084,80.0682,302.4299,80.494,301.7659,81.0415z M325.9998,62.7744  c-0.6843,0.4015-1.5351-0.3254-2.1787,0.4189c0.7781,0.4509,2.1157,0.5795,2.4367,0.2016  C326.1897,63.2307,326.111,63.0416,325.9998,62.7744z M52.4774,28.8438c0.922,0,1.7227,0,2.6657,0  C53.9439,27.9415,53.4012,27.9471,52.4774,28.8438z M82.8002,86.4158c0.8926,0.085,1.7875,0.3456,2.8325,0.0561  C84.7296,85.8978,84.7296,85.8978,82.8002,86.4158z M159.5756,87.1823c0.4443-0.0822,0.7313-0.1299,1.0156-0.1901  c0.1573-0.0333,0.3638-0.1752,0.4563-0.1186c0.5606,0.3433,0.7871-0.0996,1.2413-0.405c-0.9497-0.2626-1.6963,0.0143-2.4462,0.1826  C159.7629,86.6689,159.7253,86.8739,159.5756,87.1823z M19.6479,48.6135c0.9077,0.4847,1.3873,0.4862,2.0212,0.0064  C20.7493,48.1259,20.2126,48.1241,19.6479,48.6135z M44.8411,13.5725c-0.6139-0.3008-2.2072-0.1102-2.8105,0.268  C42.9596,13.6709,43.9275,13.9832,44.8411,13.5725z M143.7632,88.7511c0.008-0.0433,0.0162-0.0866,0.0244-0.1299  c-1.2252,0-2.4506,0-3.6757,0c-0.0003,0.0433-0.0005,0.0866-0.0005,0.1299C141.3286,88.7511,142.5458,88.7511,143.7632,88.7511z   M125.5436,2.6153c0.5329,0.2483,0.8544,0.464,1.2046,0.5322c0.1666,0.0325,0.4107-0.193,0.5731-0.3498  c0.0672-0.0648,0.0618-0.3402,0.0044-0.3735c-0.1634-0.0945-0.3792-0.1755-0.5583-0.1499  C126.4369,2.3217,126.118,2.4488,125.5436,2.6153z M130.6194,2.7701c0.322-0.1245,0.5273-0.2037,0.7853-0.3036  c-0.6277-0.463-0.7077-0.4904-0.9044-0.1599c-0.1999,0.3359-0.3162,0.7217-0.5475,1.2723c0.5252-0.1355,0.8085-0.2088,1.1411-0.2949  C130.9092,3.0839,130.7964,2.9617,130.6194,2.7701z M335.4992,44.3419c-0.5852,0-1.0402,0-1.7373,0  c0.3034,0.3041,0.4712,0.5641,0.5539,0.5395C334.6755,44.7741,335.21,45.1999,335.4992,44.3419z M17.2955,46.3195  c-0.7976-0.3062-1.3269-0.1148-1.9102,0.3118C16.3668,46.8895,16.3668,46.8895,17.2955,46.3195z M114.4083,4.1154  c-0.726-0.7453-1.2517-0.1289-1.7987-0.0113C113.1476,4.3221,113.6846,4.4669,114.4083,4.1154z M37.8233,14.0149  c0.5344,0.463,0.5344,0.463,1.263,0.289C38.7422,13.7429,38.3331,13.8092,37.8233,14.0149z M74.3115,22.3707  c0.0187,0.0986,0.0372,0.1972,0.0559,0.2959c0.4516-0.071,0.9031-0.142,1.3545-0.2129  C75.2051,21.9723,74.7509,22.0878,74.3115,22.3707z M143.3221,90.2188c-0.7563-0.269-0.7563-0.269-1.1161,0.3397  C142.6278,90.5416,143.0492,90.7176,143.3221,90.2188z M320.2989,65.7763c0.0115,0.1015,0.023,0.2029,0.0345,0.3044  c0.349-0.0343,0.6977-0.0687,1.1688-0.1151C321.0224,65.3989,320.6627,65.4771,320.2989,65.7763z M315.8387,45.2268  c-0.0351-0.112-0.07-0.2239-0.1051-0.3357c-0.3838,0.0111-0.724,0.1266-0.8985,0.6744  C315.1697,45.4525,315.5041,45.3395,315.8387,45.2268z M35.9778,13.9112c-0.0087,0.0853-0.0176,0.1709-0.0263,0.2562  c0.2931,0.2142,0.5854,0.3377,1.0168-0.1455C36.5481,13.975,36.263,13.943,35.9778,13.9112z M310.2827,23.4157  c-0.0061,0.4245-0.0658,0.7573,0.4609,0.7607C310.8735,23.7869,310.8026,23.5482,310.2827,23.4157z M15.1309,45.2739  c0.303,0.4922,0.3028,0.4976,0.6297,0.5078c0.0412,0.0013,0.0853-0.0925,0.1942-0.2193  C15.6996,45.473,15.4801,45.3961,15.1309,45.2739z M32.1897,24.9813c0.1245-0.2244,0.2554-0.3671,0.2249-0.4255  c-0.063-0.1209-0.2083-0.2024-0.3318-0.2813c-0.0102-0.0067-0.1734,0.1475-0.1598,0.1985  C31.9601,24.6119,32.0541,24.7356,32.1897,24.9813z M327.3585,63.3027c0.2218,0.0797,0.374,0.1873,0.445,0.1481  c0.1163-0.0643,0.1798-0.2242,0.2654-0.3438c-0.1214-0.0379-0.2503-0.1192-0.3625-0.1005  C327.6077,63.0229,327.5278,63.1513,327.3585,63.3027z M308.9805,23.4444c0.127-0.1384,0.2331-0.2534,0.3389-0.3684  c-0.0948-0.0733-0.2411-0.2273-0.2749-0.2058c-0.1276,0.0818-0.2236,0.217-0.3128,0.3451  C308.7245,23.2253,308.8603,23.3347,308.9805,23.4444z M317.1919,44.7738c-0.0079-0.0397-0.0156-0.0797-0.0235-0.1196  c-0.1909,0.0299-0.3818,0.0599-0.5727,0.0899c0.0126,0.0564,0.0252,0.1125,0.0377,0.1688  C316.8197,44.8666,317.0057,44.8202,317.1919,44.7738z M129.6423,1.4883c-0.0029,0.0643-0.0057,0.1286-0.0085,0.1929  c0.1725,0,0.3446,0,0.517,0c-0.0087-0.0643-0.0128-0.1834-0.0269-0.1847C129.9643,1.4834,129.8032,1.4883,129.6423,1.4883z   M177.6677,3.4408c0.0151,0.0612,0.03,0.1225,0.0451,0.1837c0.1673-0.0436,0.3343-0.0874,0.5016-0.1309  c-0.014-0.0546-0.0284-0.1092-0.0425-0.1637C178.0038,3.3668,177.8358,3.4039,177.6677,3.4408z M171.5415,3.3142  c-0.0172,0.0649-0.0344,0.1299-0.0515,0.1948c0.2006,0.0468,0.4009,0.0937,0.6015,0.1406c0.0144-0.054,0.0287-0.1081,0.0428-0.1622  C171.9368,3.4298,171.739,3.3719,171.5415,3.3142z M319.6409,51.5828c-0.0079,0.0549-0.0156,0.1094-0.0235,0.1643  c0.1419,0.0222,0.2836,0.0466,0.426,0.0594c0.0059,0.0005,0.0213-0.1076,0.0321-0.1653  C319.9307,51.6218,319.7857,51.6023,319.6409,51.5828z M162.7169,3.7359c-0.0318,0.0756-0.0635,0.1512-0.095,0.2268  c0.197,0.043,0.3937,0.0863,0.5908,0.1296c0.013-0.0446,0.0263-0.0891,0.0394-0.134C163.0738,3.8843,162.8952,3.81,162.7169,3.7359z   M139.7768,2.8815c0.0448-0.0487,0.116-0.0912,0.1229-0.1422c0.0077-0.0571-0.043-0.1222-0.0681-0.1837  c-0.0617,0.0641-0.1302,0.1235-0.1783,0.1965C139.6458,2.7632,139.733,2.8364,139.7768,2.8815z M158.7668,86.8178  c-0.0543-0.0797-0.0776-0.1532-0.1214-0.1684c-0.0566-0.0194-0.1294,0.0072-0.1955,0.0139  c0.0059,0.0561,0.0069,0.1598,0.0182,0.1609C158.5596,86.8331,158.6531,86.8231,158.7668,86.8178z" fill="#222222" />
	</g>
</svg>
