<?xml version="1.0"?>
<svg version="1.1" id="XMLID_2_" xmlns="http://www.w3.org/2000/svg" xmlns:xlink="http://www.w3.org/1999/xlink" x="0px" y="0px" viewBox="0 0 260.989 161.7158" enable-background="new 0 0 260.989 161.7158" xml:space="preserve">
	<g id="P">
		<path id="_x32_4.2brush14" d="M238.7442,57.1882c-0.1637,0.2004-0.3272,0.401-0.556,0.6813  c-0.1214-0.3075-0.1765-0.4476-0.1839-0.4663c-0.6818,0.2091-1.3128,0.3971-1.9387,0.6c-0.1201,0.039-0.3243,0.1771-0.3146,0.2027  c0.0827,0.217,0.1681,0.5582,0.3238,0.6005c0.63,0.1711,1.2854,0.2488,1.9602,0.3656c0.0495,0.2477,0.1058,0.5291,0.1578,0.7888  c-0.3451,0.1694-0.6999,0.3439-0.981,0.482c-0.4183,0.085-0.775,0.1834-1.1377,0.2241c-0.4215,0.0472-0.8509,0.0215-1.2721,0.0687  c-0.3904,0.0438-0.7919,0.0973-1.1542,0.236c-0.1793,0.0686-0.2815,0.3384-0.4652,0.5782c0.3607,0.0945,0.5859,0.1535,0.8114,0.2124  c-0.0039,0.0474-0.008,0.0948-0.0118,0.1419c-0.1794,0.0735-0.3587,0.1471-0.5378,0.2204  c-0.0018,0.0558-0.0036,0.1117-0.0054,0.1672c0.4986,0,0.9974,0,1.498,0c-0.0143,0.678-0.4673,1.084-1.2323,1.0612  c-0.4194-0.0123-0.7189-0.0084-0.8741,0.4871c-0.0638,0.2039-0.4046,0.321-0.6346,0.4885c0.5124,0.3203,0.9423,0.589,1.4895,0.9311  c-0.2923,0-0.4834,0-0.6582,0c-0.2403,0.6102-0.1199,0.8331,0.4381,0.8849c0.4591,0.0425,0.9938-0.1814,1.3243,0.3756  c0.0144,0.0241,0.3861-0.1312,0.5639-0.2457c0.2327-0.1494,0.4343-0.3461,0.6564-0.5129c0.0999-0.0751,0.2665-0.0997,0.3187-0.194  c0.4358-0.7842,1.1317-0.4342,1.7455-0.4017c0.0825,0.0044,0.1558,0.1842,0.2332,0.2831c-0.121,0.0418-0.2422,0.0838-0.401,0.1389  c-0.0418,0.2139-0.0956,0.4873-0.1576,0.8042c0.3036,0.0909,0.6303,0.1586,0.9288,0.29c0.1709,0.0751,0.4404,0.3315,0.4181,0.373  c-0.1332,0.2478-0.3115,0.4878-0.525,0.6723c-0.704,0.608-1.4232,0.2636-2.1541,0.0197c-0.5426-0.1809-1.1449-0.4627-1.6589-0.3674  c-0.4801,0.0889-1.0491,0.5322-1.2664,0.9736c-0.2267,0.4604-0.3661,0.6282-0.8549,0.5075  c-0.1358-0.0333-0.3152,0.1099-0.6808,0.2526c0.69,0.4761,1.2152,0.8383,1.7107,1.1798c-0.0887,0.0733-0.0887,0.0733-1.1555-0.0343  c0,0.2029,0,0.4004,0,0.6279c-0.2083,0.1043-0.424,0.2122-0.7909,0.3956c0.6826,0.103,1.2114,0.1827,1.8224,0.2749  c-0.7063,1.1796-1.6492,0.2498-2.4754,0.4896c-0.0433,0.3856-0.0874,0.7755-0.1314,1.1655  c0.0602,0.0092,0.1204,0.0184,0.1806,0.0276c0.0922-0.1703,0.2152-0.332,0.2667-0.5141c0.0394-0.1389-0.0118-0.3036,0.0815-0.5601  c0.1127,0.1432,0.3274,0.2921,0.3194,0.4281c-0.0253,0.4268,0.2183,0.5045,0.5414,0.639c0.2628,0.1096,0.5244,0.3589,0.6587,0.6136  c0.2908,0.5511,1.3763,1.0947,1.953,0.8841c0.1222-0.0446,0.2439-0.1624,0.3095-0.2785c0.4281-0.7583,1.2292-0.9559,1.9894-0.5044  c0.3415,0.2029,0.6571,0.5569,1.1472,0.2521c0.0884-0.0549,0.3456,0.156,0.5219,0.25c0.2362,0.1261,0.4694,0.2578,0.8268,0.455  c-0.0195-0.4686-0.3282-0.9305,0.2823-0.9384c0.5782-0.008,0.4432,0.4122,0.3164,0.786c0.9326-0.3287,1.7724-0.6249,2.5451-0.8972  c0.0643-0.4845,0.0979-0.9702,0.2132-1.436c0.0279-0.1133,0.3615-0.2647,0.4896-0.2183c0.3679,0.1332,0.7027,0.3584,1.056,0.5506  c-0.0707,0.9728-0.0579,0.9856,0.8916,1.3758c0.2862,0.1176,0.5554,0.2756,0.8396,0.3986c0.3533,0.153,0.6294,0.0861,0.9799-0.1458  c0.445-0.2943,0.8422,0.0454,1.2892,0.4568c-0.3756,0.0672-0.6269,0.1123-0.878,0.1571c-0.0007,0.0451-0.0013,0.0902-0.0018,0.135  c0.3062,0,0.6126-0.0033,0.9188,0.0005c1.4654,0.0185,2.9306,0.0395,4.3958,0.0574c0.1048,0.0013,0.2452,0.0269,0.309-0.0282  c1.013-0.8769,2.0614,0.0141,3.0911-0.0571c0.589-0.0407,1.1893,0.1271,1.7867,0.155c0.7958,0.0371,1.5938,0.0228,2.3901,0.0502  c0.105,0.0036,0.206,0.1238,0.3428,0.2119c-0.7525,0.1132-1.4211,0.2224-2.0929,0.3079c-0.1348,0.0172-0.2846-0.0919-0.4209-0.0778  c-0.3518,0.0358-0.7428,0.0292-1.0361,0.1895c-0.2547,0.1392-0.3925,0.2293-0.6513,0.0349  c-0.1514-0.1135-0.3896-0.1745-0.5813-0.1599c-0.8132,0.0612-1.6225,0.2106-2.4352,0.2252c-0.4732,0.0087-0.9469-0.196-1.426-0.2672  c-0.2364-0.0351-0.4857,0.0172-0.7291,0.0251c-0.3285,0.011-0.6654-0.0228-0.9825,0.041c-0.1922,0.0387-0.5063,0.228-0.5043,0.3454  c0.0098,0.62-0.4263,0.767-0.8639,0.9323c-0.156,0.0589-0.3533,0.053-0.4742,0.1491c-0.1312,0.104-0.2534,0.2874-0.2672,0.4463  c-0.0087,0.0984,0.1745,0.2787,0.3008,0.3125c0.54,0.144,1.0914,0.2455,1.6379,0.3662c0.1276,0.0281,0.2521,0.0704,0.4189,0.1178  c-0.1868,0.2526-0.328,0.4435-0.4838,0.6543c-0.2515-0.1045-0.6077-0.3899-0.7944-0.3046c-0.5457,0.2496-1.0571,0.608-1.5155,1.001  c-0.2679,0.2298-0.1152,0.5641,0.2196,0.6023c0.5129,0.0587,1.0376,0.0254,1.5567,0.0092c0.2008-0.0061,0.3999-0.0714,0.6346-0.1165  c-0.2224,0.5974-1.1878,0.7763-3.0383,0.6182c0,0.1258,0,0.2485,0,0.4119c-0.0891-0.0548-0.1524-0.0745-0.1827-0.1175  c-0.0338-0.0482-0.0645-0.1248-0.0504-0.1766c0.229-0.8375-0.0341-1.3537-0.9203-1.5518c-0.1248-0.0279-0.2723-0.3873-0.2493-0.5733  c0.1471-1.1855,0.9492-1.9446,1.8295-2.6266c0.1425-0.1107,0.3918-0.0835,0.5916-0.1202c0.2157-0.0397,0.4315-0.0794,0.6472-0.1191  c-0.0069-0.0651-0.0141-0.1302-0.021-0.1955c-0.8211-0.0563-1.6607-0.2457-2.459-0.1353c-0.9892,0.1369-1.9441,0.5217-2.9136,0.7999  c-0.4924,0.1414-0.9773,0.2424-1.4303-0.2419c0.2636-0.074,0.4791-0.1345,0.6943-0.1949c-0.0069-0.0572-0.0138-0.1145-0.0205-0.1719  c-1.2254,0-2.4508,0.0051-3.6762-0.0016c-1.1335-0.0061-2.2679-0.0018-3.3995-0.0545c-0.2893-0.0136-0.5693-0.226-0.7394-0.2985  c-0.3469,0.3-0.6011,0.5198-0.9505,0.8219c0.56,0.0879,1.0171,0.1468,1.4677,0.2367c0.1725,0.0343,0.38,0.0963,0.4876,0.2191  c0.5721,0.6548,1.0232,0.5913,1.3512-0.2117c0.0461-0.1127,0.1222-0.2134,0.2001-0.3466c0.3979,0.1632,0.5895,0.3323,0.2713,0.7404  c-0.4384,0.5626,0.1668,0.9054,0.3623,1.2997c0.1585,0.32,0.53,0.2342,0.8364,0.0574c0.1205-0.0697,0.2865-0.1014,0.4261-0.0886  c0.4204,0.0389,0.6718-0.1425,0.8403-0.5181c0.248-0.5526,0.6785-0.9031,1.2808-1.0089c0.1084-0.0189,0.2531,0.0243,0.3402,0.0915  c0.0456,0.0351,0.0308,0.197-0.0048,0.2813c-0.3536,0.8349-0.32,0.9687,0.4719,1.4562c-0.3615,0.3966-0.7492,0.7607-1.0589,1.1819  c-0.2367,0.322-0.4594,0.1837-0.7076,0.0986c-0.4181-0.1435-0.8291-0.3097-1.2521-0.4355  c-0.4012-0.1192-0.8244-0.2616-1.0891,0.2636c-0.03,0.0594-0.1924,0.0876-0.2854,0.074c-0.611-0.0894-1.2167-0.2277-1.83-0.2828  c-0.4548-0.041-1.0061-0.2913-1.1942,0.5034c-0.0758,0.321-0.4639,0.5683-0.7542,0.8993c0.5754,0.2506,1.1846,0.0735,1.7775,0.0023  c1.1524-0.1386,2.3309-0.5421,3.442-0.3981c0.9949,0.1286,1.8367-0.0451,2.7191-0.319c0.2406-0.0746,0.4489-0.2531,0.6633-0.2811  c0.3917,0,0.7837,0,1.19,0c0.0128,0.2275,0.03,0.5299,0.0564,0.9928c-1.169,0.0597-2.3176,0.1655-3.4656,0.1599  c-0.7271-0.0036-1.3937-0.1107-2.1324,0.2367c-0.6143,0.2888-1.4211,0.1665-2.1423,0.2311  c-0.1855,0.0167-0.3733,0.0351-0.5534,0.0802c-0.4486,0.1125-0.8934,0.2408-1.3748,0.3725c0.0041,0.5906-0.094,0.6059-0.8764,0.6267  c-0.3377,0.0089-0.669,0.3446-0.991,0.5506c-0.0126,0.0082,0.1055,0.312,0.1532,0.3092c0.6341-0.0367,1.189,0.1163,1.6973,0.5175  c0.1248,0.0984,0.393,0.0149,0.5954,0.0149c0.0023,0.0863,0.0049,0.1729,0.0072,0.2595c-0.4161,0.0518-0.8321,0.1038-1.2479,0.1555  c0.0094,0.0684,0.0192,0.1366,0.0289,0.205c0.2782-0.0131,0.5565-0.0262,0.8744-0.041c0.0571,0.5559-0.3535,0.671-0.6902,0.6999  c-0.5629,0.0482-0.9607,0.2685-1.2149,0.7666c-0.0366,0.072-0.0853,0.1555-0.1517,0.1921  c-0.4442,0.2467-1.6737-0.5288-1.6868-1.0737c-0.6138-0.145-0.9436,0.1381-1.1332,0.7022  c-0.0822,0.2452-0.3161,0.4517-0.3563,0.6964c-0.062,0.3751-0.0164,0.7678-0.0164,1.2943c-0.0308,0.0149-0.2478,0.0856-0.423,0.2134  c-0.1722,0.1261-0.3021,0.31-0.4507,0.4686c0.1853,0.0753,0.3684,0.1565,0.5568,0.2221c0.054,0.019,0.1232-0.0066,0.3264-0.0238  c-0.1661,0.4594-0.3095,0.857-0.4586,1.2697c1.0109,0.3041,1.9181,0.0082,2.833-0.2098c0.6477-0.1545,1.2931-0.3556,1.9507-0.4161  c0.259-0.0238,0.7453,0.2419,0.7804,0.4384c0.0653,0.3625-0.2915,0.5352-0.6802,0.5577c-0.1376,0.008-0.2677,0.1476-0.4763,0.2714  c0.1607,0.0868,0.2314,0.117,0.2936,0.1598c0.2719,0.1868,0.5719,0.349,0.7894,0.5865c0.0512,0.0558-0.1535,0.5142-0.2823,0.5357  c-0.3639,0.0604-0.8017,0.0984-1.1148-0.053c-0.5134-0.2481-1.0058-0.3024-1.5505,0.1137c0.3928,0.3646,0.6605,0.8452,1.3374,0.7107  c0.1696-0.0336,0.4176,0.0474,0.5516,0.1647c0.3758,0.3293,0.6902,0.1917,1.0153-0.052c0.1148-0.0861,0.2582-0.2764,0.3333-0.2516  c1.1204,0.3708,2.034-0.6986,3.1438-0.4373c0.2398,0.0566,0.5603-0.0341,0.7866-0.1599c0.3612-0.2006,0.6576-0.1532,1.0563-0.0932  c0.4965,0.0748,1.0414-0.1822,1.5674-0.2864c0.3274-0.0651,0.6892-0.216,0.9756-0.1294c0.1729,0.0522,0.2488,0.4796,0.3354,0.7488  c0.0681,0.2129,0.0863,0.442,0.114,0.5937c-0.4102,0.1975-0.7755,0.3735-1.2203,0.5879c-0.1063-0.0886-0.31-0.258-0.5506-0.4575  c-0.1721,0.2982-0.3251,0.5639-0.4783,0.8293l0.0172-0.0174c-0.1853,0.1319-0.3705,0.2638-0.6185,0.4404  c-0.249-0.5939-1.0876-0.7581-1.0748-1.5749c0.0011-0.0794-0.2387-0.2134-0.3794-0.2331c-0.2672-0.0377-0.5436-0.0108-0.8016-0.0108  c-0.4374,0.7394-0.5191,1.7463-1.6103,1.8895c-0.3392,0.0446-0.7701-0.0246-0.9984,0.1586  c-0.4898,0.3932-1.2469,0.5964-1.2456,1.4467c0.0003,0.1668-0.1881,0.3339-0.4058,0.6923c0.3809-0.0761,0.6197-0.1235,0.8636-0.1722  c0.082,0.2847,0.082,0.2847-0.7837,0.9728c0.2747,0.072,0.4722,0.175,0.6638,0.165c0.628-0.0325,1.2557-0.1663,1.8795-0.145  c0.4737,0.0159,1.0094-0.2237,1.4398,0.2636c0.1153,0.1307,0.4625,0.0564,0.71,0.0766c0.0399,0.6277-0.5086,0.8545-1.196,0.8837  c-0.631,0.0269-1.2453,0.476-1.8595,0.7557c-0.0153,0.0072,0.0239,0.2445,0.0959,0.3116c0.166,0.154,0.3679,0.269,0.6871,0.4919  c0.2201-0.3208,0.4545-0.6208,0.642-0.9477c0.1612-0.2805,1.6794-0.5875,1.8608-0.3274c0.0725,0.1043,0.0354,0.3125-0.0028,0.4604  c-0.0951,0.3681-0.2193,0.7286-0.3889,1.2774c-0.3889-0.7389-0.6485-0.8009-0.9308-0.1576  c-0.1184,0.2695-0.4156,0.4607-0.6507,0.7076c0.1872,0.2578,1.0547-0.251,0.6182,0.6116c0.3215-0.0366,0.5667-0.0648,0.839-0.0961  c-0.2649,0.4497-0.2649,0.4497-1.4562,0.1486c0.0235,0.1327,0.0405,0.2424,0.063,0.3508c0.0249,0.1204,0.0543,0.24,0.1027,0.4501  c0.6503-0.0869,1.2813-0.1714,1.9948-0.2667c-0.085,0.1581-0.1132,0.2957-0.1752,0.3131c-0.7479,0.2093-0.6272,0.7437-0.5314,1.3033  c0.1258,0.7345-0.0553,0.9246-0.7893,0.9102c-0.0423-0.0007-0.0887,0.008-0.1261-0.0064c-1.2098-0.4621-1.6222,0.5229-2.2827,1.2239  c0.6136,0.4355,1.5482-0.7896,1.9035,0.537c-0.8272-0.4765-1.8338,0.4947-2.5738-0.4891c-0.4555,0.1386-0.9681,0.2116-0.6187,0.9275  c0.0369,0.0753-0.2726,0.32-0.4214,0.486c-0.1486-0.1668-0.2972-0.3339-0.4781-0.5368c-0.2275,0.1906-0.5585,0.4673-1.0087,0.844  c0.0211,0.0707,0.0861,0.2887,0.1704,0.5705c0.2319-0.146,0.3812-0.24,0.5311-0.3343c0.0344,0.0284,0.0905,0.054,0.0897,0.0776  c-0.0174,0.5562,0.3535,0.8168,0.9802,0.9379c0.7207,0.1394,1.4332,0.3805,2.1085,0.6718c0.3492,0.1504,0.648,0.4747,0.8944,0.7809  c0.1051,0.1304,0.0177,0.4158-0.1255,0.4801c-0.3928,0.1896-0.7696,0.4417-1.1839,0.5475c-0.2895,0.0741-0.63-0.0522-0.9479-0.0891  c0.0568-0.185,0.0804-0.39,0.177-0.5514c0.1983-0.331-0.0784-1.1449-0.4356-1.1562c-0.2077,0.0725-0.4275,0.1227-0.6202,0.2239  c-0.1776,0.093-0.3098,0.2788-0.4909,0.3574c-0.4222,0.1832-0.8762,0.2969-1.2897,0.4965  c-0.2608,0.1258-0.5165,0.3216-0.6902,0.5501c-0.125,0.1645-0.1115,0.4345-0.1596,0.6574c0.2544-0.0056,0.5211,0.0348,0.7604-0.0282  c0.3136-0.0827,0.6015-0.2577,0.9095-0.3684c0.0794-0.0287,0.1919,0.0351,0.3489,0.0694c-0.2054,0.3836-0.3761,0.6728-0.8598,0.5714  c-0.4155-0.0872-0.7004,0.1216-0.9269,0.541c0.7863,0.1315,1.4368,0.4422,2.2671,0.1338c1.1147-0.414,2.3658-0.4609,3.4795-0.8762  c1.1078-0.4133,2.4554-0.2032,3.3295-1.2329c0.8114-0.0269,1.5547-0.2989,2.3192-0.5493c0.6087-0.1993,1.3015-0.135,1.9535-0.2146  c0.0953-0.0118,0.1565-0.2065,0.2621-0.2568c0.1488-0.0704,0.3243-0.0853,0.4886-0.124c-0.0264,0.1868,0.0148,0.4602-0.092,0.5432  c-0.2893,0.2252-0.6449,0.3638-0.9672,0.5485c-0.1335,0.0766-0.2498,0.1834-0.3738,0.2767  c0.0876,0.0992,0.1714,0.2021,0.2642,0.2964c0.0873,0.0892,0.1791,0.1758,0.2777,0.2521c0.6115,0.4725,0.6126,0.5176,0.0197,0.9608  c-0.0435,0.0325-0.0625,0.0981-0.1532,0.2482c0.3874-0.0325,0.7002-0.0589,0.9802-0.0825c0.1625,0.2837,0.3029,0.5286,0.516,0.9006  c-0.3289,0.1722-0.6722,0.3517-1.0156,0.5311c-0.054-0.0533-0.1078-0.1066-0.1619-0.1599c0.1033-0.1655,0.2309-0.3215,0.3003-0.5001  c0.0423-0.1091-0.0051-0.2529-0.0123-0.3812c-0.1086,0.0341-0.2749,0.0353-0.3159,0.1076  c-0.2816,0.4955-0.4845,0.3156-0.7935-0.0041c-0.4611-0.4776-1.4062-0.2383-1.7698,0.4148  c-0.2075,0.3722-0.382,0.7632-0.6464,1.2976c0.7433-0.2703,1.3968-0.5134,2.0553-0.7432c0.1527-0.0535,0.3215-0.0617,0.4829-0.0907  c-0.0589,0.1732-0.0961,0.3587-0.1829,0.5165c-0.0864,0.1571-0.2229,0.2867-0.3861,0.4888c0.3984,0.049,0.6658,0.0818,0.9454,0.1158  c-0.3272,0.3551-0.5775,0.6626-0.8678,0.9259c-0.1453,0.1317-0.3569,0.2053-0.5511,0.2642  c-0.2198,0.0666-0.4891,0.0277-0.6753,0.1381c-0.6728,0.3994-1.2049,0.1493-1.7463-0.3397  c0.0602-0.1479,0.1317-0.3236,0.2859-0.7023c-0.7732,0.3036-1.3898,0.5193-1.9771,0.7973  c-0.1281,0.0607-0.1506,0.3441-0.2218,0.5247c0.2078,0.0518,0.486,0.2137,0.61,0.1343c0.3664-0.2342,0.5511-0.039,0.8744,0.1024  c0.3833,0.1676,0.9315,0.1438,1.3427,0.0064c0.3713-0.1237,0.627-0.2236,0.9636,0.0438c0.145,0.1153,0.4248,0.0518,0.5882,0.1561  c0.2609,0.166,0.6664,0.4025,0.6685,0.6125c0.0038,0.3959-0.1876,0.8096-0.7561,0.8358c-0.2147,0.0097-0.4319,0.1947-0.6272,0.33  c-0.1872,0.1296-0.343,0.3038-0.5226,0.4463c-0.063,0.0499-0.2203,0.0563-0.2244,0.0942c-0.1025,0.9859-1.5485,0.9147-1.5667,1.9858  c-0.0015,0.0982-0.3341,0.1907-0.5129,0.2857c0.0515,0.0769,0.103,0.1537,0.1547,0.2303c0.1289,0.0213,0.3216,0.1079,0.3769,0.0538  c0.5849-0.5713,1.0471-0.3584,1.4788,0.2178c-0.5583,0.5526-1.1309,1.1196-1.7035,1.6863c0.0461,0.0602,0.0925,0.1202,0.1386,0.1804  c0.0887-0.0144,0.237-0.0023,0.2572-0.0474c0.3308-0.7407,1.0656-0.7284,1.6641-0.7561c0.3215-0.0151,0.6484,0.4643,1.0043,0.6651  c0.2224,0.1258,0.5031,0.1489,0.7576,0.2178l-0.0144-0.009c0.0797,0.1668,0.1594,0.3336,0.2355,0.493  c-0.7433,0.559-1.4581,1.0965-2.1731,1.6343c0.0343,0.0573,0.0686,0.1147,0.103,0.1721c0.2866-0.0233,0.5736-0.0466,0.8603-0.0699  c0.0151,0.0512,0.0302,0.1027,0.0453,0.154c-0.1522,0.0835-0.3174,0.1504-0.4524,0.2559c-0.1079,0.0843-0.2695,0.2334-0.2521,0.3236  c0.166,0.8516-0.4174,1.1334-1.1522,1.4222c0.3736,0.3474,0.6885,0.6399,1.0033,0.9328c-0.0161,0.0753-0.0325,0.1509-0.0489,0.2262  c-0.505-0.0415-1.011-0.1253-1.5144-0.1107c-0.3725,0.011-0.8009,0.0669-1.0855,0.2695c-0.1297,0.0923-0.0797,0.6698,0.0814,0.8788  c0.1989,0.258,0.6774,0.5729,0.8955,0.4909c0.5628-0.2111,0.7686,0.2944,1.1511,0.4038c0.0638,0.0182,0.1388,0.3013,0.0871,0.3681  c-0.3131,0.4058-0.6618,0.7842-0.9559,1.1229c-0.4747-0.3187-0.9018-0.6054-1.4263-0.9571  c-0.1473,0.0592-0.4009,0.1611-0.6797,0.2733c0.5158,0.6321,0.494,0.6582-0.1422,1.064c-0.88,0.5616-1.7613,0.5258-2.6644,0.0884  c0.4491-0.2057,0.901-0.4055,1.346-0.6189c0.4397-0.2112,0.9139-0.5286,0.7007-1.041c-0.199-0.4781-0.6617-0.8475-1.0171-1.2574  c-0.0246-0.0285-0.1201,0.0056-0.1826,0.009c-0.3421,0.0189-0.6849,0.0609-1.0261,0.0497c-0.4407-0.0144-0.742,0.0143-0.6521,0.6118  c0.0954,0.6317-0.2328,1.0137-0.8941,1.2079c-0.8145,0.2391-1.0799,0.6387-0.8647,1.4161c0.8624-0.1299,1.7353-0.2611,2.6081-0.3923  c-0.3302,0.6341-0.7273,1.1501-1.542,1.1944c-0.4917,0.0269-0.9205,0.2329-1.1778,0.7302  c-0.0758,0.1463-0.3592,0.2503-0.5518,0.2577c-0.4356,0.0169-0.8739-0.0387-1.2749-0.0625  c-0.0673,0.4637-0.1148,0.7904-0.1852,1.2767c-1.0402-1.2357-1.8749-0.1-2.7675-0.143c0.0923,0.8531,0.3338,1.0228,1.0159,0.766  c0.3604-0.1355,0.7124-0.3205,1.0729,0.2355c-0.2495,0.1386-0.4704,0.319-0.7222,0.3889c-0.4917,0.1363-0.9526,0.2034-1.1309,0.8339  c-0.0986,0.3487-0.425,0.6841-0.7358,0.9008c-0.1706,0.1189-0.5216-0.021-0.7847-0.0438c0.0259-0.8967-0.1942-1.0614-0.9526-0.7545  c-0.3845,0.1558-0.7704,0.5754-1.105,0.527c-0.5913-0.0856-0.9348,0.2475-1.3261,0.494c-0.2267,0.1427-0.4798,0.4593-0.4819,0.6999  c-0.0043,0.5252-0.1019,1.2234,0.5186,1.4432c0.3891,0.1381,0.908-0.0187,1.3499-0.1225c0.3341-0.0781,0.6387-0.2818,1.0156-0.457  c-0.2565-0.1404-0.5624-0.2096-0.6052-0.3554c-0.0581-0.1996,0.0574-0.6446,0.1448-0.6569  c0.3295-0.0466,0.6789-0.8483,1.0404-0.0169c0.0625,0.1435,0.4212,0.2885,0.5806,0.2375c1.0207-0.3269,1.2254-0.2593,1.7885,0.8163  c-0.9843-0.5591-0.856,0.8587-1.6118,0.685c0.2747,0.6979,0.6408,0.8445,1.2324,0.6147c0.4035-0.1571,0.828-0.2606,1.243-0.3879  c0.0362,0.0955,0.072,0.1911,0.1079,0.2869c-0.8147,0.3695-1.6028,0.8298-2.4526,1.0814c-0.7768,0.2301-1.7132,0.0333-2.0176,1.0686  c-0.8375-0.4491-1.2797-0.2241-1.6243,0.5542c-0.1465,0.3308-0.5208,0.5816-0.8329,0.8132c-0.4353,0.323-0.8864,0.641-1.3727,0.8734  c-0.5037,0.2408-1.052,0.3963-1.5908,0.5544c-1.2231,0.3589-2.4674,0.6525-3.6728,1.0617c-0.5847,0.1983-1.0771,0.6574-1.6553,0.888  c-0.598,0.2385-1.2549,0.3251-1.8759,0.5119c-0.6195,0.1862-1.2139,0.4693-1.8414,0.6133  c-1.8402,0.4225-3.6872,0.8198-5.5403,1.1826c-1.54,0.3018-3.0908,0.5521-4.6403,0.8045c-1.6794,0.2739-3.3646,0.5124-5.0438,0.7868  c-1.9061,0.3115-3.8028,0.6879-5.714,0.9602c-2.7121,0.3866-5.4302,0.7415-8.1536,1.0389c-2.0363,0.2224-4.0894,0.29-6.1267,0.5057  c-1.9026,0.2017-3.7933,0.5145-5.6913,0.762c-0.3228,0.042-0.6668-0.0525-0.9827,0.0095c-0.6954,0.1368-1.3715,0.3773-2.0691,0.4942  c-0.8355,0.1396-1.6861,0.1878-2.5285,0.2882c-0.6799,0.0812-1.356,0.1955-2.0365,0.2703c-1.5064,0.1652-3.016,0.3044-4.5219,0.4734  c-1.2723,0.1433-2.5392,0.3336-3.8128,0.4622c-0.5198,0.0525-1.0519,0.0149-1.5756-0.0217  c-0.1332-0.0093-0.3474-0.1584-0.362-0.2655c-0.0213-0.1575,0.0558-0.3848,0.1732-0.4952c0.5413-0.5106,1.2008-0.6274,1.9327-0.5652  c0.495,0.0423,1.0018-0.0056,1.4993-0.054c0.6367-0.062,1.2818-0.1153,1.8992-0.2683c0.3974-0.0986,0.7317-0.4486,1.1288-0.5498  c1.4811-0.3774,2.9617-0.8057,4.4702-1.011c1.5744-0.2141,3.1554-0.3333,4.6844-0.8085c0.9756-0.3034,1.963-0.5696,2.9501-0.8334  c0.2398-0.0641,0.4994-0.0641,0.7504-0.0743c1.2277-0.05,2.4114-0.3006,3.5307-0.8086c0.155-0.0705,0.2444-0.2852,0.3643-0.4327  c-0.1801-0.0787-0.364-0.2332-0.5395-0.2239c-1.2995,0.0686-2.5974,0.2444-3.8953,0.24c-1.3348-0.0043-2.6829,0.1719-4.0046-0.3264  c-0.8657-0.3261-1.8127-0.4363-2.7234-0.6436c-0.0508,0.0779-0.1015,0.1558-0.1525,0.2337c0.1345,0.1394,0.2457,0.3313,0.4097,0.405  c0.2044,0.092,0.4786,0.0369,0.674,0.1384c0.176,0.0915,0.2865,0.3092,0.4261,0.4711c-0.2065,0.1133-0.4737,0.3713-0.6087,0.3144  c-0.5316-0.2231-0.8555,0.062-1.3128,0.2406c-0.6236,0.2436-1.3914,0.1101-2.0965,0.1555  c-0.8875,0.0569-1.7757,0.1137-2.6604,0.2026c-0.7409,0.0743-1.4757,0.2083-2.2166,0.2821  c-0.1427,0.0141-0.3418-0.0912-0.4453-0.2047c-0.4627-0.508-1.0402-0.6869-1.7334-0.7717c0.6953-0.1796,1.3819-0.4101,2.0872-0.5282  c1.4314-0.2401,2.8746-0.4092,4.3101-0.6257c2.3048-0.3482,4.6065-0.7156,6.9105-1.066c1.4949-0.2273,2.9931-0.4322,4.4876-0.6613  c0.4353-0.0669,0.8595-0.2103,1.2956-0.2687c0.6213-0.0833,1.035-0.2888,1.1826-1.002c0.0561-0.2711,0.5539-0.577,0.8918-0.638  c0.8007-0.1445,1.6287-0.1281,2.4403-0.2231c0.4863-0.0569,0.9344-0.2429,1.1911-0.8373c-0.2216-0.0838-0.434-0.2459-0.6195-0.2195  c-0.61,0.0871-1.21,0.2421-1.8136,0.3722c-0.2263,0.0489-0.4509,0.143-0.6774,0.146c-1.4268,0.0185-2.8556-0.023-4.2801,0.0408  c-0.6438,0.0289-1.2766,0.268-1.9192,0.3856c-0.4419,0.0809-0.8923,0.1135-1.3384,0.1737  c-0.3382,0.0456-0.6738,0.1158-1.0133,0.1478c-0.694,0.0653-1.3924,0.0897-2.0841,0.1732c-0.845,0.1017-1.6864,0.2375-2.5264,0.3748  c-1.4701,0.2398-2.9379,0.494-4.4074,0.7386c-1.0789,0.1799-2.1621,0.3377-3.2356,0.5455  c-0.2116,0.0407-0.3876,0.2654-0.5803,0.4055c0.0115,0.0677,0.0228,0.1356,0.0343,0.2035c0.4397,0.042,0.8911,0.1688,1.3167,0.1096  c1.2046-0.1678,2.3954-0.4322,3.5983-0.6138c0.3594-0.0544,0.7412,0.0374,1.1903,0.0676c-0.2821,0.7007-0.8001,0.6413-1.228,0.7348  c-0.485,0.1058-0.9733,0.2124-1.4657,0.2646c-0.6187,0.0654-1.2436,0.0664-1.8644,0.1156c-0.1767,0.0141-0.3727,0.062-0.5177,0.1578  c-0.9641,0.6364-1.5493,0.4491-1.8877-0.6182c-0.0233-0.0733-0.0805-0.184-0.135-0.1924c-0.9375-0.1476-1.755-0.7235-2.8154-0.5006  c-1.3415,0.2823-2.7339,0.3236-4.1051,0.4609c-0.2301,0.023-0.4683-0.0177-0.6948,0.0194c-0.1256,0.0208-0.3418,0.1543-0.3349,0.216  c0.1063,0.9318-0.5485,0.5619-1.001,0.5416c0.1586-0.103,0.3172-0.2062,0.6572-0.4268c-0.4627-0.0615-0.7522-0.1476-1.035-0.1294  c-1.1929,0.0779-2.385,0.1755-3.5748,0.2908c-0.3894,0.0377-0.7683,0.186-1.1575,0.2198c-0.4832,0.0418-0.9726,0.0069-1.4588,0.0241  c-0.4238,0.0151-0.9449-0.104-0.9541,0.5941c-0.001,0.0772-0.0284,0.2009-0.0792,0.2237c-0.4998,0.2234-0.9902,0.5093-1.5164,0.6218  c-0.6659,0.1422-1.3635,0.1325-2.0455,0.206c-0.1056,0.0113-0.2918,0.1237-0.2875,0.177c0.0792,0.9795-0.6097,1.3343-1.3248,1.6797  c-0.1245,0.0602-0.226,0.1673-0.4814,0.362c2.1529,0.5831,4.0849-0.5673,6.1442-0.3405c-0.1166,0.2836-0.1911,0.4655-0.267,0.6494  c0.6129,0,1.2129,0,1.8129,0c0.0039,0.0795,0.0074,0.1589,0.0113,0.2386c-0.3356,0.023-0.6707,0.0602-1.0066,0.065  c-0.3087,0.0047-0.7018-0.1206-0.7046,0.372c-0.0025,0.4973,0.3705,0.4779,0.7307,0.4279c0.0569-0.0079,0.1181,0.0136,0.1735,0.0213  c0.013,0.0548,0.0376,0.1237,0.0289,0.1283c-0.7909,0.4146-1.5182,1.0822-2.5187,0.4176c-0.4978-0.3305-0.6741-0.1455-0.692,0.6659  c-2.2971,0.641-4.6423,0.4535-6.9863,0.3592c-0.6218-0.0249-1.2487,0.0779-1.8731,0.1248  c-0.0835,0.0061-0.1652,0.0376-0.2488,0.0427c-1.0004,0.0615-2.0011,0.1212-3.0019,0.1794  c-0.6517,0.0379-1.3035,0.0978-1.9558,0.1027c-0.9443,0.0074-1.1613-0.2833-0.9433-1.2136c-0.4066-0.3-0.7794-0.7266-1.3779-0.4722  c-0.217,0.0923-0.4007,0.2603-0.6069,0.3818c-0.1586,0.0935-0.3282,0.1678-0.4932,0.2508c-0.0692-0.1663-0.145-0.33-0.206-0.4991  c-0.0525-0.1458-0.0676-0.4145-0.135-0.4263c-0.2534-0.0446-0.599-0.1081-0.7681,0.021c-0.3866,0.2959-0.6192,0.1734-1.0015-0.0231  c-0.2884-0.1483-0.7996-0.0973-1.1021,0.0666c-0.4991,0.2708-0.8583,0.1978-1.3143-0.1511c0.259-0.154,0.4604-0.2736,0.6617-0.3933  c0.0008-0.0748,0.0018-0.1496,0.0026-0.2242c-0.4983-0.0796-0.9964-0.1596-1.5001-0.24c0.05-0.4794-0.2162-0.6561-0.9976-0.4842  c0.0943,0.2106,0.1816,0.4055,0.2559,0.571c-0.1691,0.2493-0.2828,0.5457-0.498,0.7028c-0.2862,0.2083-0.6397,0.3646-0.9864,0.4371  c-0.2982,0.0622-0.629-0.0105-0.9423-0.049c-0.3377-0.0412-0.5237,0.0418-0.6666,0.3992c-0.1197,0.299-0.4251,0.5232-0.5291,0.6433  c-0.6095-0.0794-1.1011-0.1552-1.5956-0.2047c-0.538-0.0538-1.0786-0.0825-1.6181-0.1232  c-0.8076-0.0607-1.6177-0.0987-2.4219-0.1909c-0.6802-0.0779-1.3535-0.2188-2.0255-0.4179c1.2474-0.6274,2.5448,0.1256,3.802-0.0589  c0.0072-0.0725,0.0143-0.1452,0.0215-0.2177c-0.5257-0.0813-1.0519-0.1602-1.5769-0.2447c-0.4107-0.0661-0.8204-0.1384-1.23-0.2104  c-0.0776-0.0135-0.1719-0.0768-0.2273-0.0509c-1.1393,0.5326-2.3306,0.1496-3.4889,0.1524c-0.7963,0.002-1.592-0.3333-2.3909-0.5052  c-0.4291-0.0923-0.8641-0.1576-1.3537-0.2452c0-0.0776,0-0.2191,0-0.332c-0.7394,0.3069-1.4445,0.6074-2.1575,0.8877  c-0.1222,0.0482-0.2964,0.0525-0.416,0.0033c-0.4338-0.1788-0.8634-0.3722-1.2762-0.5944c-0.1952-0.105-0.3284-0.3287-0.5252-0.4273  c-0.3892-0.1947-0.817-0.4981-1.2026-0.4632c-0.4345,0.0392-1.023,0.2019-0.9408,0.9364c0.0316,0.2813-0.0476,0.5882-0.1334,0.8659  c-0.0828,0.268-0.2391,0.5132-0.4166,0.878c0.3213,0.4658,0.9671,0.5504,1.5067,0.0833c0.0699-0.0605,0.392,0.0174,0.4448,0.1145  c0.3755,0.6895,1.1472,0.8965,1.6396,0.5629c0.1125-0.5444,0.1955-0.9469,0.2836-1.374c0.3006,0.05,0.4937,0.0559,0.6677,0.1163  c0.4076,0.1417,0.6825,0.0774,0.8419-0.3722c0.0499-0.141,0.2567-0.2263,0.3917-0.3372c0.112,0.1601,0.3231,0.3236,0.3177,0.4796  c-0.0179,0.5152,0.1852,0.7978,0.5585,0.8298c0.1153,0.6785,0.0541,1.3991,0.3733,1.8516c0.248,0.3512,0.343,0.7345,0.5631,1.0632  c0.1315,0.1965,0.3994,0.3474,0.6359,0.4163c0.3351,0.0979,0.6976,0.1012,1.0389,0.2437c-0.8119-0.0543-1.6246-0.0971-2.4349-0.1673  c-0.5606-0.0487-1.1427-0.0587-1.6692-0.2283c-0.4586-0.1478-0.9251-0.426-1.2569-0.7727c-0.3922-0.4099-0.7909-0.661-1.3535-0.6699  c-0.661-0.0108-1.2672-0.133-1.5064-0.9272c-0.3057,0.1291-0.5678,0.2398-0.958,0.4048c0.3964,0.3443,0.7199,0.6079,1.0197,0.8964  c0.094,0.0905,0.1873,0.2611,0.1642,0.3702c-0.0202,0.0953-0.1957,0.1986-0.3182,0.2245c-1.1193,0.2367-1.9735-0.2201-2.4682-1.2964  c-0.0597-0.1304-0.1237-0.3349-0.2203-0.3572c-0.227-0.0525-0.4748-0.0158-0.7143-0.0153c0.0333,0.1819,0.0443,0.372,0.1066,0.5436  c0.0471,0.1294,0.1596,0.2352,0.3194,0.4581c-0.7109,0.1671-1.3376,0.3446-1.976,0.4458c-0.1978,0.0313-0.4515-0.1097-0.6395-0.2329  c-0.549-0.3597-1.0776-0.7504-1.6238-1.1357c0.0669-0.0592,0.1791-0.1584,0.4212-0.3723c-0.6123,0-1.0666,0.0023-1.5206-0.0008  c-0.475-0.0033-0.9653-0.105-1.3127,0.3851c-0.0695,0.0979-0.3546,0.1514-0.4681,0.0907c-0.5142-0.2751-1.0176-0.5767-1.496-0.9105  c-0.4962-0.3467-0.9589-0.7412-1.4365-1.115c-0.0663,0.0628-0.1327,0.1253-0.1993,0.1878c0.0687,0.1199,0.1496,0.2344,0.2027,0.3607  c0.0571,0.1355,0.0878,0.2821,0.1301,0.4238c-0.1547-0.0151-0.3423,0.0192-0.457-0.0564c-0.2068-0.1365-0.3923-0.3213-0.5473-0.5167  c-0.5944-0.7492-1.2959-1.2193-2.3142-1.0479c-0.2368,0.04-0.496-0.0533-0.7451-0.0851c-0.0233-0.0948-0.0463-0.1895-0.0694-0.2841  c0.373-0.1952,0.7268-0.457,1.1232-0.5716c0.8244-0.2377,1.6712-0.3978,2.5092-0.5887c0.3351-0.0764,0.4963-0.4865,0.3077-0.7889  c-0.2052-0.3297-1.0901-0.3917-1.4227-0.1724c-0.3694,0.2437-0.4586,0.7973-1.0414,0.8173  c-0.5701,0.0195-1.011-0.0935-1.3474-0.5864c-0.0956-0.1399-0.3333-0.2504-0.5096-0.2562  c-1.8085-0.0605-3.6196-0.0638-5.4268-0.1486c-2.0706-0.0971-4.1412-0.226-6.2059-0.41c-1.0661-0.095-2.1337-0.2795-3.1738-0.5326  c-1.0981-0.2672-2.1818-0.6187-3.2407-1.0158c-1.3551-0.5081-2.6581-1.1596-4.0257-1.6254  c-0.5987-0.2036-1.304-0.0796-1.9568-0.1455c-0.3223-0.0323-0.6526-0.1186-0.9488-0.2495  c-0.6256-0.2765-1.2192-0.6269-1.8492-0.8921c-0.4445-0.187-0.6851-0.6251-0.6479-1.2357c0.0141-0.2323-0.0561-0.6066-0.2078-0.6858  c-0.4066-0.2116-0.5063-0.5288-0.549-0.9208c-0.0556-0.5106-0.3715-0.6302-0.8119-0.4965c-1.1102,0.3371-2.1647-0.072-3.2307-0.2529  c-0.1812-0.0307-0.4243-0.3292-0.4502-0.5283c-0.1009-0.7786-0.1639-1.5669-0.1652-2.3516  c-0.001-0.4901,0.0456-0.9362-0.6695-1.0602c0.1732-0.1842,0.2611-0.3348,0.392-0.4053c0.2962-0.1591,0.4719-0.3215,0.3139-0.6966  c-0.0469-0.1117,0.034-0.3407,0.1337-0.4284c0.0669-0.0589,0.2685,0.0415,0.4112,0.061c0.1509,0.0205,0.3154,0.0733,0.4532,0.0359  c0.5844-0.1594,1.167-0.3305,1.7394-0.5291c0.5931-0.2057,0.6758-0.5559,0.2651-0.9945c-0.496-0.5299-0.4714-0.9193,0.0677-1.3766  c0.2605-0.2208,0.5001-0.4663,0.6756-0.827c-0.1681,0.012-0.3359,0.0243-0.504,0.0366c-0.0312-0.0487-0.0625-0.0973-0.0938-0.146  c0.2537-0.1504,0.4907-0.35,0.7638-0.4427c1.2067-0.4102,2.4239-0.7894,3.68-1.1937c-0.2193-0.5047-0.6656-0.5308-1.1003-0.4773  c-0.7658,0.0946-1.5567,0.0828-2.2318,0.5898c-0.2065,0.1553-0.5465,0.1325-0.8667,0.2001c0.095-0.321,0.1627-0.548,0.2657-0.8959  c-0.7553,0.1091-1.3935,0.2016-2.0796,0.3007c-0.6879-1.3086-1.7809-1.5487-3.223-0.8452c0.1178-0.4222,0.1696-0.6072,0.2672-0.9558  c-0.4133,0.2103-0.6869,0.3891-0.9866,0.4862c-0.1637,0.0531-0.3723-0.0323-0.5606-0.0553c0.0948-0.1609,0.156-0.4215,0.2898-0.4663  c0.8042-0.2695,0.9856-0.9846,1.2118-1.6504c0.0607-0.1781-0.0807-0.4248-0.1404-0.6892c0.1094-0.0208,0.3146-0.06,0.5196-0.0992  c0.01-0.0768,0.02-0.1534,0.0299-0.23c-0.3556-0.0441-0.7114-0.0882-1.0604-0.1312c0.1002-0.2785,0.1002-0.2785,0.9754-0.3761  c-0.4063-0.5567-0.9395-0.4107-1.4724-0.3218c-0.5167,0.0863-1.0386,0.1396-1.6515,0.2196  c0.0582-0.2762,0.0497-0.3736,0.0943-0.4271c0.4999-0.6003,0.4374-0.8624-0.2708-1.1337c-0.1873-0.0717-0.364-0.1704-0.5457-0.2565  c0.1881-0.1316,0.3771-0.2613,0.5624-0.396c0.0312-0.0228,0.0463-0.0682,0.1662-0.2539c-0.5457-0.0769-1.0314-0.2216-1.509-0.1986  c-1.6748,0.0812-3.3482,0.3279-5.0194,0.3041c-1.4168-0.0202-2.6417,0.4356-3.8802,0.9795  c-0.2849,0.125-0.5854,0.2142-0.9023,0.3282c-0.1169-0.162-0.2122-0.2929-0.3067-0.4243c-0.4081-0.5672-0.2933-0.8537,0.3792-0.9953  c0.2339-0.0492,0.4565-0.1512,0.7214-0.2419c-0.0753-0.1755-0.0894-0.2977-0.1578-0.3536  c-0.4248-0.3468-0.3589-0.7063-0.0743-1.1024c0.3787-0.527,0.2337-0.8411-0.4107-0.9397c-0.268-0.0413-0.5331-0.0999-0.7939-0.1494  c-0.2111,0.2242-0.4064,0.484-0.6515,0.6818c-0.6065,0.4896-0.9019,0.455-1.485-0.018c-0.2242-0.1819-0.5229-0.2756-0.795-0.3927  c-0.1532-0.0661-0.3405-0.0659-0.4801-0.1496c-1.3522-0.8109-2.7224-1.6069-3.5455-3.0327  c-0.0708-0.1227-0.1046-0.3374-0.0451-0.4522c0.2551-0.4927,0.5692-0.9543,0.8265-1.446c0.1806-0.3453,0.3948-0.4445,0.7668-0.3043  c0.4719,0.1778,0.9553,0.3315,1.4444,0.4534c0.2222,0.0554,0.4696,0.0095,0.7056,0.0095c0.0236-0.0543,0.0471-0.1084,0.0707-0.1624  c-0.1852-0.2101-0.3674-0.423-0.5567-0.629c-0.1845-0.2011-0.4022-0.3766-0.5611-0.5954c-1.0256-1.4122-2.4598-2.0391-4.1486-2.1336  c-1.0625-0.0595-2.1403,0.043-3.1907-0.0905c-0.6659-0.0845-1.3359-0.3971-1.9246-0.7427  c-0.4317-0.2531-0.8045-0.3448-1.2928-0.3085c-0.3016,0.0226-0.7304-0.1147-0.9072-0.3358  c-0.2639-0.3303,0.0643-0.6682,0.3518-0.8155c0.9243-0.4737,1.0542-1.485,1.5702-2.2292c0.6725-0.9705,1.6886-1.28,2.7749-0.7709  c0.2754,0.1291,0.5964,0.1606,0.8964,0.237c0.0264-0.0723,0.0528-0.1448,0.0792-0.2173c-0.147-0.102-0.2839-0.2252-0.4432-0.3021  c-0.4427-0.2131-0.701-0.4965-0.5959-1.0406c0.1065-0.5509-0.4458-0.6469-0.7312-0.9124c-0.2429-0.2257-0.5665-0.3627-0.826-0.5736  c-0.3487-0.2831-0.567-0.6139-0.321-1.1006c0.0707-0.1402,0.0379-0.4953-0.0123-0.5088c-0.6177-0.165-0.2783-0.5673-0.276-0.9067  c0.0021-0.2893-0.0335-0.6188-0.1721-0.8624c-0.5696-1.0015-1.1465-1.9912-1.3676-3.1456  c-0.0361-0.1881-0.1722-0.3805-0.3126-0.5209c-0.4983-0.4983-0.4401-1.1232,0.1537-1.5377  c0.1302-0.0909,0.3308-0.2383,0.3223-0.3456c-0.0671-0.8444,0.5872-1.2733,1.02-1.8185c0.4675-0.5888,0.3371-1.8293-0.3533-2.0955  c-0.31-0.1194-0.7812,0.1461-1.167,0.2739c-0.1571,0.0523-0.2708,0.2726-0.4228,0.2957c-0.5915,0.0894-0.7545,0.3727-0.5062,0.9225  c0.0684,0.1514,0.1309,0.3538,0.0863,0.4994c-0.1706,0.5605-0.3868,1.107-0.5833,1.6596c-0.0339,0.0948-0.0541,0.1945-0.1363,0.4968  c-0.3831-0.3771-0.8055-0.6162-0.9405-0.9661c-0.2191-0.568-0.3387-1.2088-0.3372-1.8185c0.0018-0.7612,0.681-1.0359,1.2723-1.0733  c1.2941-0.0822,1.7273-1.0837,2.2786-1.9514c0.268-0.422-0.0394-0.8765-0.517-0.7674c-0.4873,0.1115-0.9336,0.4061-1.394,0.6288  c-0.2763,0.1332-0.532,0.3623-0.82,0.4104c-1.6796,0.2816-2.7357,1.4084-2.8604,3.078c-0.0159,0.2135-0.1046,0.4737-0.2527,0.6136  c-0.2661,0.2516-0.5938,0.2547-0.5979-0.2093c-0.0092-1.0617-0.1156-2.1595,0.9843-2.8753c0.2695-0.1753,0.4368-0.5503,0.5793-0.866  c0.1527-0.3376,0.2277-0.7119,0.3241-1.0737c0.1296-0.4865,0-0.8578-0.5122-1.0053c0.0192-0.0825,0.0182-0.1507,0.0395-0.1584  c0.7058-0.2577,0.8029-0.7993,0.7591-1.4667c-0.0318-0.4799,0.0597-0.9677,0.1017-1.5218  c-0.1617,0.1178-0.4291,0.2129-0.5162,0.3945c-0.2739,0.5726-0.472,1.1811-0.7187,1.7673c-0.0617,0.1468-0.197,0.2626-0.2982,0.3927  c-0.1358-0.1642-0.413-0.3615-0.3838-0.4875c0.1868-0.8027-0.2003-1.8457,0.8908-2.2953c0.0182-0.0074,0.0405-0.0251,0.0456-0.0425  c0.3482-1.2129,1.5321-1.3026,2.4073-1.818c0.4117-0.2427,0.7663-0.5908,1.1201-0.92c0.4514-0.4202,0.8757-0.8698,1.2979-1.2928  c-0.1091-0.1812-0.3953-0.4453-0.3692-0.6738c0.0254-0.2199,0.3689-0.4077,0.5811-0.6006c0.2841-0.2587,0.5764-0.5088,0.9141-0.8055  c0.1463,0.2939,0.236,0.4735,0.3674,0.7369c0.6056-0.3293,1.1946-0.6362,1.7698-0.9669c0.3771-0.217,0.7384-0.4627,1.0978-0.7084  c0.0928-0.0636,0.1694-0.166,0.2245-0.2662c0.372-0.6754,0.5139-0.7279,1.305-0.3966c-0.1316,0.2339-0.2659,0.4563-0.3843,0.6869  c-0.1801,0.351-0.0602,0.5428,0.3282,0.5016c0.2227-0.0236,0.4812-0.0738,0.6472-0.207c0.7189-0.5783,1.4242-1.1757,2.1037-1.7998  c0.2779-0.2552,0.6376-0.5675,0.1117-0.9738c-0.0497-0.0385,0.0932-0.3623,0.1872-0.5311c0.0334-0.06,0.2534-0.0254,0.2762-0.0802  c0.3226-0.7817,1.2946-1.1537,1.3279-2.1196c0.0077-0.22,0.0953-0.4376,0.1522-0.682c-0.7771-0.2316-1.23,0.3761-1.7785,0.6467  c-0.6762,0.3333-0.7743,0.3271-0.876-0.4392c-0.0487-0.3673-0.6597-0.6248-1.2052-0.466c-0.6661,0.1942-1.3166,0.4415-1.9812,0.641  c-0.3955,0.1189-0.8119,0.1681-1.2072,0.2872c-0.7973,0.2401-1.5823,0.5201-2.3816,0.7522  c-0.1763,0.051-0.3905-0.0297-0.5872-0.0497c-0.0159-0.1117-0.0318-0.2231-0.0477-0.3346c0.4679-0.1742,0.94-0.3371,1.4022-0.5249  c0.6116-0.2485,1.2141-0.5193,1.8229-0.775c0.519-0.2181,1.0489-0.4122,1.5602-0.6467c0.4656-0.2134,0.896-0.5124,1.3725-0.6917  c0.652-0.2449,1.333-0.412,2.0396-0.6241c-0.1002-0.5734,0.5672-0.731,0.9316-1.1078c0.0671-0.0695,0.1954-0.0756,0.2856-0.1279  c0.3531-0.2044,0.9943-2.4577,0.8383-2.8456c-0.0528-0.1314-0.0269-0.3046-0.0038-0.4535c0.0384-0.2472,0.1726-0.4983,0.1447-0.7335  c-0.0871-0.7306,0.6023-0.7686,0.9387-1.1167c0.029-0.03,0.1412-0.0269,0.1771,0.0043c0.7235,0.6282,1.3619,0.206,1.9266-0.2226  c0.7086-0.5385,1.3468-1.1703,2.0153-1.7616c-0.0574-0.0769-0.1148-0.1538-0.1725-0.2306c-0.7399,0.2569-1.48,0.5137-2.2253,0.7724  c-0.3377-0.8593,0.5326-0.8365,0.8109-1.3227c-0.7694-0.4171-1.319,0.6369-2.0053,0.2505c0.4478-0.5857,0.4368-0.5675-0.2539-0.9269  c-0.1558-0.081-0.2962-0.3543-0.2972-0.5398c-0.0028-0.6805-0.3695-0.9059-0.981-0.9779c-0.2877-0.0341-0.5549-0.2263-0.8367-0.3328  c-0.1827-0.069-0.3726-0.1481-0.5632-0.1602c-0.3891-0.0248-0.7811-0.0074-1.201-0.0074c0.1352-0.4632,1.2869-1.509,1.5538-1.4101  c0.332,0.1227,0.8742,0.4125,0.8631,0.6038c-0.0571,1.0008,0.7915,0.978,1.3195,1.2698c0.5818,0.3212,1.0914-0.0859,1.5951-0.3833  c-0.1553,0.01-0.3103,0.02-0.5521,0.0356c-0.0233-0.2772-0.1614-0.6172-0.0526-0.8316c0.6421-1.2646,1.2636-2.5454,2.6404-3.2404  c0.6429-0.3246,0.6813-1.1132,0.1784-1.6474c-0.7276-0.7727-0.6961-0.7473,0.0002-1.6202c0.6239-0.7819,1.5713-1.2646,2.0025-2.2274  c0.0786-0.1755,0.3669-0.258,0.5593-0.382c0.4409-0.2839,0.7053-0.2885,0.6702,0.3617c-0.0208,0.3808,0.4332,0.6913,0.7332,0.4978  c0.62-0.3996,1.2224-0.8331,1.7929-1.3004c0.3098-0.2537,0.5396-0.6052,0.9134-1.0371c0.1194,0.4068,0.1703,0.58,0.2249,0.766  c0.1688,0.0274,0.3536,0.0574,0.6595,0.1071c-0.1589,0.2746-0.2224,0.5408-0.3866,0.6405c-0.606,0.3679-0.7556,0.909-0.855,1.5677  c-0.0563,0.3728-0.033,0.4271,0.2988,0.5567c0.9886,0.3861,1.9929,0.2306,2.9867,0.1337c0.2409-0.0235,0.4499-0.3748,0.7953-0.6845  c-0.7289-0.0694-1.2234-0.1192-1.7184-0.1627c-0.3932-0.0348-0.4386-0.2244-0.198-0.4906c0.6423-0.7107,1.3773-1.2472,2.3619-1.4342  c0.4048-0.0769,0.7604-0.2342,1.188-0.0774c0.1145,0.042,0.3425-0.1668,0.4909-0.2928c0.1365-0.1161,0.2818-0.4153,0.3451-0.3948  c0.6986,0.228,1.1852-0.3697,1.8016-0.4292c0.1417-0.0138,0.2828-0.0671,0.4171-0.1201c0.4176-0.1653,0.8288-0.3464,1.2479-0.5073  c0.3392-0.1302,0.7271-0.1975,0.5055-0.7302c-0.0453-0.1086,0.0018-0.351,0.0864-0.404c0.7306-0.4581,1.2241-1.3251,2.2435-1.3  c0.1945,0.0049,0.403-0.0999,0.5867-0.1911c0.7471-0.3705,1.4867-0.7563,2.231-1.1327c0.0305-0.0153,0.0804,0.008,0.1675,0.0193  c0.0172,0.313,0.0349,0.6353,0.0531,0.9707c0.5511,0.1117,0.767-0.122,0.7048-0.6062c-0.0787-0.6102,0.145-1.0033,0.6453-1.3786  c0.4492-0.3366,0.7335-0.8844,1.1442-1.2838c0.4343-0.4227,0.9372-0.7742,1.4002-1.1685c0.2603-0.2216,0.5003-0.4673,0.7494-0.702  c-0.0323-0.0607-0.0644-0.1215-0.0966-0.1822c-0.154,0.0297-0.3321,0.0198-0.4576,0.0961c-0.8032,0.4878-1.559,1.0691-2.4011,1.4711  c-0.6672,0.3182-1.4258,0.4852-2.1623,0.601c-0.4297,0.0674-0.9219-0.0279-1.3369-0.1821c-0.2972-0.1104-0.382-0.4681-0.0556-0.7146  c0.352-0.2654,0.735-0.4896,1.1017-0.7358c0.2518-0.1691,0.4988-0.3451,0.6561-0.4542c-0.2567-0.2086-0.6326-0.3761-0.6328-0.5442  c-0.0003-0.3025,0.2242-0.6054,0.3715-0.9466c-0.5662-0.131-1.0786-0.3031-1.6018-0.3472c-0.2503-0.0212-0.56,0.1512-0.7745,0.3218  c-0.5234,0.4168-1.3171,0.3628-1.6504-0.2367c-0.2344-0.4215-0.4755-0.455-0.7937-0.2011  c-0.4202,0.3356-0.9019,0.6517-1.1865,1.0875c-0.6085,0.9311-1.3207,1.5726-2.5077,1.498c-0.403-0.0253-0.537,0.2298-0.5564,0.6059  c-0.0508,0.98-0.761,1.786-1.6887,1.9556c-0.5979,0.1094-0.7055,0.6743-0.8055,1.0863c-0.1921,0.794-0.5275,1.5444-1.1362,1.9838  c-0.5157,0.3722-1.2748,0.4842-1.941,0.5428c-0.4035,0.0354-0.54-0.5833-0.3266-1.3009c-0.1632-0.1297-0.3369-0.2678-0.5104-0.4056  c0.0039-0.0684,0.0077-0.1366,0.0113-0.2047c0.2964,0,0.6551-0.1027,0.8718,0.0287c0.2209,0.134,0.3021,0.498,0.4812,0.8296  c0.7476-0.0059,2.4049-2.033,2.726-3.5651c-0.4223,0-0.8476,0.0684-1.2372-0.0199c-0.3561-0.0807-0.6736-0.3308-1.0082-0.5063  c0.0203-0.0728,0.0405-0.1458,0.0607-0.2185c-0.8595,0.32-1.7823,0.5326-2.5609,0.9902c-0.7658,0.4506-1.3925,0.3656-2.1698-0.0741  c0.1981-0.1575,0.3789-0.3013,0.5598-0.4452c0.6405-0.5106,1.2846-1.0171,1.9207-1.5329c0.359-0.291,0.6049-0.7135,1.2032-0.6623  c0.1921,0.0164,0.4819-0.3804,0.6217-0.6443c0.2222-0.4191,0.4458-0.558,0.9011-0.3223c0.2485,0.1286,0.5749,0.2075,0.847,0.1696  c0.6292-0.0874,1.0122,0.1891,1.341,0.672c0.0443,0.0653,0.3873,0.0472,0.4422-0.0338c0.2992-0.4417,0.5884-0.6295,1.0119,0.033  c0.3341-1.037,1.1207-1.2989,1.9387-1.6196c0.7089-0.278,0.6236-1.1378,0.95-1.7117c-0.0494-0.0469-0.0986-0.0938-0.1481-0.1409  c-0.1693,0.1068-0.4276,0.175-0.4934,0.3266c-0.369,0.8509-1.0707,1.3008-1.8214,1.7066c-0.0481-0.0477-0.096-0.0953-0.1442-0.143  c0.1407-0.1263,0.2762-0.2595,0.4235-0.3776c0.3197-0.2567,0.7302-0.4502,0.9449-0.7745c0.2039-0.3077,0.2408-0.7458,0.2785-1.1334  c0.0146-0.1509-0.1691-0.3211-0.3134-0.5698c-0.2987,0.2213-0.5577,0.445-0.8465,0.6197c-0.4012,0.2426-0.7919,0.4389-1.0265-0.2411  c-0.1156-0.3353-0.7305-0.2595-0.9213,0.1279c-0.1105,0.2241-0.0951,0.5103-0.1404,0.7952  c-0.5191,0.3666-1.0646,0.8122-1.6669,1.1593c-0.5331,0.3072-1.1209,0.5296-1.7042,0.733c-0.1484,0.0518-0.3718-0.1117-0.5608-0.176  c0.115-0.1555,0.2257-0.3144,0.3461-0.4658c0.227-0.2859,0.4301-0.599,0.6953-0.8449c1.0069-0.9339,1.62-2.2738,2.987-2.8449  c0.4153-0.1734,0.7704-0.4947,1.1458-0.7588c0.2582-0.1819,0.4827-0.5027,0.7593-0.5519c1.0904-0.1929,1.9456-0.8477,2.8395-1.3973  c0.7207-0.443,1.5744-0.6894,2.0942-1.4911c0.2436-0.3756,0.8029-0.6395,1.2687-0.7547c0.6315-0.1561,1.3243-0.0544,1.9645-0.1894  c0.4932-0.104,0.9713-0.3594,1.4107-0.6231c0.8434-0.5062,1.6566-1.0637,2.4777-1.6066c0.1391-0.092,0.2982-0.1942,0.3751-0.3323  c0.2118-0.3809,0.3919-0.7576,0.9466-0.5687c0.361,0.1227,0.7655,0.1537,1.0919,0.3325c0.4617,0.2529,1.1148,0.1729,1.4179-0.3495  c0.2377-0.4094,0.3799-0.881,0.5106-1.3404c0.0312-0.1094-0.1532-0.2803-0.2473-0.4373c1.021-1.4224,2.5121-1.0294,3.9168-1.0592  c-0.0092,0.0997-0.0038,0.143-0.0177,0.1791c-0.1045,0.2701-0.2129,0.5386-0.32,0.8076c0.3129-0.019,0.67,0.0538,0.9306-0.0728  c1.0048-0.4878,1.1244-0.4537,1.6537,0.5744c0.0982,0.1909,0.3654,0.2952,0.6946,0.5462c-0.2416,0.4189-0.5214,0.9044-0.8078,1.4012  c0.8765,0.7004,1.9817,0.4624,2.5853-0.5742c0.455-0.7811,1.0015-1.4562,1.9579-1.769c0.7445-0.2437,1.4193-0.7202,2.0978-1.1381  c0.3753-0.2313,0.7224-0.1368,0.8516,0.1604c0.0904,0.2083-0.0966,0.5795-0.2388,0.8337c-0.1163,0.2078-0.3856,0.3267-0.517,0.5303  c-0.0774,0.1197-0.0177,0.3277-0.0195,0.496c0.135-0.0638,0.2736-0.1211,0.4048-0.1924c0.4115-0.2236,0.8201-0.4527,1.229-0.6789  c-0.1304,0.2229-0.2598,0.445-0.4076,0.6989c0.5467,0.1763,0.8483,0.0761,0.8757-0.5016c-0.1776-0.0677-0.3305-0.1261-0.4835-0.1845  c0.3958-0.2331,0.7758-0.5006,1.1911-0.691c0.548-0.2516,1.1301-0.4281,1.6855-0.6645c0.4466-0.1901,0.5017-1.1545,0.0528-1.5139  c-0.3097-0.2483-0.7066-0.3874-1.1788-0.6354c-0.0807-0.2782,0.1079-0.5334,0.4991-0.6733c0.258-0.0922,0.5442-0.1299,0.7776-0.2626  c0.4278-0.2434,0.8231-0.5434,1.2374-0.8116c0.7845-0.5083,1.6023-0.9708,2.3524-1.5249c1.1722-0.866,2.5106-0.8283,3.8548-0.8519  c0.1901-0.0033,0.3866-0.1384,0.565-0.2396c0.8224-0.466,1.6263-0.827,2.6101-0.3656c0.6738,0.3162,1.9541-0.2813,2.4562-1.0278  c0.3144-0.4668,0.9802-0.6569,1.5183-0.4499c0.3922,0.1511,0.6453,0.116,0.9218-0.3262c0.2093-0.3351,0.7337-0.4878,1.1365-0.6838  c0.4122-0.2011,0.8375-0.3871,1.2753-0.5206c0.3093-0.0942,0.6764-0.1895,0.9677-0.1073c0.4578,0.1291,0.7417-0.0213,1.0891-0.2764  c0.2987-0.2191,0.6871-0.3295,1.0496-0.4446c0.515-0.1632,1.0402-0.2956,1.5654-0.4219c0.1573-0.0377,0.3695-0.0766,0.4889-0.0039  c0.754,0.4597,1.4342,0.3016,2.1267-0.146c0.1394-0.0902,0.4693-0.0917,0.5628,0.0069c0.113,0.1189,0.0674,0.3882,0.0705,0.4164  c-0.5467,0.1196-0.9595,0.1995-1.3668,0.3012c-1.0899,0.2726-2.1434,0.6393-2.911,1.5121  c-0.5001,0.5691-1.2425,0.5422-1.8428,0.8537c-0.1435,0.0743-0.3759,0.1286-0.4087,0.2393  c-0.1849,0.6215-0.7393,0.6753-1.2131,0.8852c-0.5475,0.2423-1.0675,0.5464-1.5984,0.8262c-0.4196,0.2214-0.838,0.445-1.2554,0.6705  c-0.1427,0.0771-0.2808,0.1624-0.4212,0.2441c0.0385,0.0551,0.0769,0.1099,0.1153,0.165c0.3331,0.0976,0.6661,0.1953,0.9777,0.2865  c-0.114,0.4947-0.5511,0.9415-0.0554,1.4508c0.0269,0.0277-0.1304,0.3103-0.2554,0.3971c-0.393,0.2724-0.8114,0.5081-1.1813,0.8627  c1.7004-0.4876,3.5676-0.2811,5.1673-1.3738c-0.1176-0.135-0.216-0.2477-0.3421-0.3925c0.6713-0.5752,0.8481-1.374,1.0476-2.2043  c0.2309-0.9608,1.156-1.5114,2.1939-1.55c0.2792-0.0103,0.6069-0.2921,0.8209-0.2104c1.0296,0.3935,1.5669-0.0207,1.904-0.9638  c0.0584-0.163,0.3095-0.3185,0.4986-0.3628c1.0092-0.237,1.6471-0.9784,2.3501-1.6443c0.3338-0.3159,0.6923-0.6177,1.0794-0.8626  c0.5475-0.3464,1.1216-0.6239,1.4583-1.2385c0.3533-0.6453,1.0996-0.528,1.6753-0.7386c0.8249-0.3018,1.6653-0.5639,2.4823-0.8859  c1.3412-0.5286,2.655-1.1304,4.0111-1.6156c0.385-0.1376,0.8769,0.0202,1.3194,0.0474c0.145,0.0089,0.2923,0.0614,0.4327,0.0448  c1.3937-0.1655,2.7936-0.2977,4.1758-0.5326c0.7094-0.1207,1.3768-0.5727,2.0811-0.6226c1.2657-0.0897,2.4434-0.3848,3.5648-0.9513  c2.1321-1.0768,4.4471-1.4813,6.7814-1.6745c1.56-0.1291,3.1522-0.0605,4.7138,0.0907c1.032,0.0999,1.9015-0.3981,2.8799-0.4617  c0.8854-0.0574,1.1498,0.1243,0.927,1.0002c-0.0362,0.142-0.1586,0.3113-0.1146,0.4128c0.0754,0.1726,0.2975,0.4509,0.3774,0.426  c0.6497-0.2021,1.4148-0.0889,1.9179-0.7278c0.2104-0.267,0.5488-0.433,0.8086-0.6295c0.2754,0.219,0.4855,0.4698,0.753,0.5733  c0.2329,0.09,0.5306,0.0136,0.7996,0.0108c-0.0884-0.2219-0.1766-0.444-0.3126-0.786c0.2157-0.1322,0.5278-0.3479,0.8606-0.5237  c1.3258-0.7009,2.6435-1.3932,4.2457-1.0563c0.5903,0.124,1.2277,0.0128,1.8252,0.1153c0.4571,0.0784,0.8834,0.3295,1.3274,0.4927  c0.1726,0.0635,0.3592,0.1468,0.5344,0.1363c0.8198-0.0492,1.5544,0.1629,2.2318,0.6215c0.3825,0.2593,0.6689,0.2426,1.0988-0.1004  c1.6983-1.3551,3.6939-2.0184,5.8542-2.115c0.7491-0.0333,1.5138,0.0866,2.2571,0.2176c0.2708,0.0479,0.4855,0.3589,0.7517,0.5021  c0.7755,0.4184,1.6181,0.5209,2.4895,0.4996c0.8149-0.02,1.6307-0.0044,2.418-0.0044C164.2845,1.382,164.2051,0.7648,164.107,0  c0.8196,0.0567,1.5802,0.1059,2.3398,0.1666c0.0736,0.0059,0.164,0.0666,0.2086,0.1288c0.2667,0.3718,0.5196,0.7574,0.9469,0.1479  c0.0062-0.0087,0.3313,0.1263,0.391,0.2503c0.1824,0.3794,0.3082,0.7863,0.4896,1.2725c-0.2434,0.0866-0.6659,0.2368-1.0917,0.3882  c0.0205,0.3351,0.7642,1.126,1.1601,1.1703c0.5329,0.0597,1.0386,0.291,1.6081-0.074c0.4056-0.2601,0.9106-0.2596,1.2739,0.332  c0.1767,0.288,0.6751,0.3784,1.087,0.5885c0.1714-0.2262,0.3431-0.4527,0.5191-0.6848c0.3715,0.0348,0.7473,0.0699,1.1229,0.105  c0.042,0.0038,0.1099-0.009,0.1227,0.0123c0.4381,0.7271,0.9528,0.2954,1.5175,0.1798c0.7389-0.1511,1.4639,0.0592,1.9374,0.7318  c0.2424-0.1274,0.454-0.2386,0.6656-0.3498c0.0653,0.04,0.1309,0.08,0.1962,0.1197c-0.8777,0.7555-0.785,1.4652,0.0672,2.1403  c-0.3802,0.1606-0.7694,0.2154-0.9446,0.4381c-0.113,0.1437,0.0873,0.5342,0.1311,0.7389c-0.3156,0.0266-0.7832,0.0661-1.251,0.1053  c-0.0154,0.0735-0.031,0.1468-0.0464,0.2203c0.1973,0.113,0.4556,0.1832,0.5742,0.3515c0.1099,0.156,0.0704,0.4171,0.1176,0.8006  c-0.8219-0.4844-0.9198-1.6299-1.9956-1.3881c0.051-0.6594,0.141-1.2564,0.1202-1.8497c-0.0077-0.2214-0.2288-0.5293-0.4338-0.627  c-0.2687-0.1275-0.622-0.1291-0.9305-0.0986c-0.1601,0.0159-0.4045,0.1952-0.4353,0.3385  c-0.1998,0.9264-0.9182,1.0909-1.6793,1.2366c-0.2806,0.0538-0.5486,0.1742-0.7722,0.248c0.0179,0.3623,0.032,0.6469,0.0461,0.9316  c-0.7399-0.6341-1.0297-0.5867-1.5172,0.126c-0.133,0.1947-0.4494,0.3126-0.702,0.3638c-0.2841,0.0574-0.5965-0.0387-0.8878-0.0002  c-0.5503,0.0722-0.0743,0.5165-0.2387,0.7573c-0.1087,0.1586-0.112,0.3889-0.135,0.4794c-1.0085,0.3284-1.9556,0.6371-2.9115,0.9487  c0.2342,0.5633,1.0227,0.9379,1.5736,0.942c0.7717,0.0054,1.542,0.1076,2.3142,0.1378c0.4571,0.018,0.9211-0.0714,1.3738-0.0276  c1.0655,0.1025,2.1251,0.2654,3.1891,0.3861c1.0623,0.1204,2.1319,0.1852,3.1895,0.3369c1.0914,0.1568,2.1744,0.3781,3.2558,0.5977  c0.1875,0.0379,0.3407,0.2231,0.5234,0.3125c0.134,0.0656,0.3453,0.1684,0.4273,0.1133c0.5009-0.3361,0.6121,0.0576,0.8147,0.433  c-1.0455-0.0513-2.0562-0.1007-3.0669-0.1499c-0.0144,0.085-0.0287,0.1704-0.0431,0.2554c0.238,0.0869,0.4948,0.1425,0.7077,0.2708  c0.1486,0.0897,0.3627,0.3369,0.3279,0.4115c-0.0825,0.1775-0.2821,0.3945-0.4581,0.4178  c-0.7478,0.0987-1.5036,0.1479-2.2579,0.1843c-0.3938,0.0189-0.796,0.0058-1.1836-0.0582c-0.1535-0.0254-0.268-0.2411-0.4166-0.3477  c-0.3087-0.2216-0.6282-0.4278-0.898-0.6097c0.1086-0.1955,0.2321-0.4174,0.3554-0.6395c-0.442-0.2047-0.8727-0.4478-1.3351-0.5836  c-0.1007-0.0297-0.3144,0.3248-0.476,0.5024c0.0499,0.0571,0.0996,0.1142,0.1493,0.1716c0.144-0.0517,0.288-0.1035,0.432-0.1555  c0.0369,0.063,0.0735,0.1258,0.1102,0.1886c-0.307,0.1811-0.6141,0.3625-0.9718,0.5736c0.0728,0.1799,0.1535,0.3797,0.2449,0.6052  c-0.4655,0.1634-0.9087,0.3187-1.3655,0.4788c0.1527,0.2695,0.2357,0.4852,0.3802,0.6461c0.093,0.1038,0.3533,0.2168,0.4066,0.1712  c0.3863-0.331,0.6904-0.28,1.0258,0.0807c0.0889,0.0955,0.3692,0.1365,0.4799,0.0692c0.7814-0.4768,1.5515-0.0011,2.3201,0.0138  c0.786,0.0151,1.5718,0.176,2.3512,0.3108c0.1714,0.0297,0.4486,0.2165,0.4501,0.3335c0.0087,0.6779,0.5019,0.752,0.9505,0.7328  c0.5934-0.0254,1.1849-0.2829,1.7703-0.2601c1.0338,0.0405,2.0627,0.2147,3.0931,0.3377c0.9349,0.1114,1.8729,0.2042,2.8018,0.353  c0.6357,0.1017,1.2516,0.3392,1.8888,0.4179c0.7265,0.0897,1.4667,0.0635,2.2005,0.1012c0.3322,0.0169,0.6689,0.0371,0.9927,0.1061  c0.9405,0.2001,1.8736,0.3092,2.7862-0.1005c0.1214-0.0545,0.3023-0.1926,0.2959-0.2805c-0.0441-0.611,0.391-0.58,0.7878-0.6666  c0.4863-0.1058,0.9528-0.3044,1.4399-0.4033c0.2572-0.0523,0.5529-0.0228,0.8096,0.0477c1.0232,0.2813,2.0296,0.6279,3.0587,0.8841  c1.0302,0.2565,2.0086,0.6244,3.1449,0.5711c1.1478-0.0541,2.3237,0.3015,3.4702,0.5546c0.2826,0.0623,0.4894,0.4358,0.7497,0.6429  c0.1534,0.1224,0.3353,0.2626,0.5185,0.2861c1.271,0.1632,2.5456,0.2977,3.8192,0.4425c0.0625,0.0072,0.1432,0.0059,0.1827,0.043  c0.8849,0.8373,1.7713,0.2583,2.7024,0.083c0.8977-0.1691,1.9199-0.3633,2.5535,0.681c0.0553,0.0907,0.2011,0.1732,0.309,0.1786  c1.222,0.0602,2.4549,0.5393,3.6642-0.0735c0.0497-0.0251,0.1204-0.0088,0.2111-0.0131c-0.0818,0.1209-0.1492,0.2206-0.2165,0.3202  c0.1209,0.0613,0.2387,0.1666,0.3638,0.1758c0.5034,0.0371,1.0225,0.1214,1.51,0.0382c0.3792-0.0651,0.7204-0.3526,1.1921-0.6011  c0.9203,0.5175,1.9525,1.1012,2.9904,1.6751c0.0873,0.0484,0.2124,0.0292,0.32,0.0415c-0.0187-0.1099-0.0039-0.2455-0.0636-0.3241  c-0.0989-0.1297-0.28-0.2009-0.3668-0.3351c-0.3979-0.6162-0.1627-1.102,0.5308-1.3894c1.229-0.5093,2.1267,0.227,3.0782,0.7519  c0.1276,0.0702,0.1346,0.3592,0.1996,0.5534c0.2096,0.0413,0.4842,0.0953,0.9377,0.1845c-0.4412,0.299-0.6943,0.4706-0.9474,0.6423  c0.0241,0.0512,0.0482,0.1022,0.0725,0.1534c0.5567-0.3963,1.3356,0.2032,1.9228-0.5195c-0.3162-0.1445-0.5662-0.259-0.8165-0.3733  c0.0164-0.0656,0.0328-0.1312,0.0492-0.1968c0.3632,0.102,0.7509,0.1543,1.0845,0.3172c0.5618,0.2744,1.085,0.6264,1.6335,0.9298  c0.1814,0.1001,0.395,0.2223,0.5857,0.2098c0.6894-0.0454,0.8016,0.3028,0.7514,0.8923c-0.0643,0.751-0.0863,1.4891-1.0912,1.6003  c0.019,0.2518,0.0344,0.4532,0.0526,0.6971c-0.2662,0.0758-0.5235,0.1491-0.7807,0.2221c0.0141-0.0489,0.0282-0.0981,0.0423-0.1471  c-0.4202-0.1696-0.867-0.2931-1.2544-0.5183c-0.7086-0.4119-1.541-0.4934-2.222-1.0683c-0.4486-0.3787-1.2728-0.3684-1.9371-0.4174  c-0.4996-0.0368-0.8547-0.1473-1.0389-0.6371c-0.0397-0.1056-0.1358-0.2624-0.2162-0.269  c-0.7225-0.0582-1.4473-0.0884-2.2323-0.1299c0.1322,0.4716,0.3961,0.4575,0.7366,0.3784c0.1796-0.0415,0.3866,0.0207,0.5759,0.0602  c0.0179,0.0038,0.0215,0.2587-0.0061,0.2667c-0.1942,0.0566-0.4207,0.1524-0.5957,0.0997c-0.9062-0.2732-1.7706,0.1093-2.6532,0.117  c-0.6602,0.0059-1.323-0.1027-1.9817-0.1847c-0.246-0.0307-0.4799-0.1696-0.7253-0.1909c-0.6144-0.0538-1.2685,0.0882-1.775-0.4191  c-0.0131-0.0131-0.0397-0.0177-0.0599-0.0177c-0.9011-0.0051-1.8126-0.0953-2.6996,0.0136  c-0.6982,0.0858-1.1196-0.3471-1.6692-0.5457c-0.714-0.258-1.4606-0.4261-2.193-0.6331c-0.0318,0.0851-0.0636,0.1699-0.0953,0.2547  c0.2352,0.116,0.4701,0.2324,0.7547,0.373c-0.0986,0.0889-0.1898,0.1712-0.3668,0.3308c0.5198,0.3074,1.0032,0.6138,1.5092,0.8764  c0.1138,0.0592,0.3241,0.0018,0.4604-0.0638c0.4466-0.2152,0.8199-0.1755,1.237,0.1253c0.2021,0.1461,0.5628,0.0502,0.8341,0.1266  c0.6385,0.1798,1.2544,0.455,1.9005,0.5877c1.2726,0.2613,2.5587,0.4576,3.8412,0.6684c0.289,0.0474,0.5857,0.0523,0.8796,0.0628  c0.2721,0.0097,0.59,0.1768,0.7478-0.2457c0.0256-0.0692,0.3162-0.0989,0.4558-0.0553c0.4957,0.1542,0.9723,0.3717,1.4701,0.518  c0.2872,0.0843,0.6018,0.0751,0.9033,0.1132c0.3572,0.0454,0.713,0.1007,1.0704,0.143c0.1632,0.0192,0.3339-0.0049,0.4925,0.03  c0.4027,0.0884,0.8887,0.0889,1.1828,0.3236c0.6454,0.5152,1.343,0.6225,2.1188,0.6141c0.3638-0.0041,0.7373,0.0761,1.0912,0.1734  c0.7427,0.2042,1.4636,0.5275,2.2171,0.6328c0.3236,0.0451,0.7033-0.3366,1.0625-0.5142c0.187-0.0927,0.4306-0.2754,0.5675-0.2193  c0.2382,0.0976,0.7709-0.0779,0.6407,0.5242c-0.0274,0.1276,0.1158,0.2918,0.1965,0.4765c-0.5318,0.227-0.7996,0.5601-0.2767,1.02  c-0.299,0.3771-0.56,0.7066-0.8211,1.0358c0.041,0.0443,0.082,0.0884,0.123,0.1325c-0.6418,0.167-1.4222-0.6815-1.9871,0.3617  c0.4816,0.2513,0.9894,0.5437,1.5203,0.7853c0.5208,0.2369,1.0653,0.4219,1.5994,0.6297c-0.0158,0.0584-0.0317,0.1168-0.0476,0.1755  c-0.6167-0.1898-1.2339-0.3779-1.8498-0.5695c-0.6136-0.1907-1.2233-0.3933-1.8397-0.5739  c-0.3364-0.0987-0.7489-0.0702-1.0126-0.2588c-0.9428-0.6751-2.0816-0.6938-3.1171-1.0466  c-0.4953-0.1685-0.9475-0.4627-1.4225-0.6935c-0.1242-0.0605-0.2572-0.1258-0.3912-0.1394c-0.867-0.0889-1.735-0.1642-2.647-0.1665  c0.4429,0.2595,0.89,0.5129,1.3271,0.7822c0.1406,0.0866,0.2805,0.1965,0.3784,0.3271c0.5954,0.7948,1.3304,1.1089,2.3235,0.8096  c0.3535-0.1065,0.7453-0.0983,0.8885,0.4387c0.0507,0.1895,0.3615,0.31,0.5534,0.4621c0.0394-0.0463,0.0789-0.0925,0.1183-0.1388  c-0.0794-0.1291-0.1591-0.2583-0.24-0.3897c0.6128-0.3179,0.7578-0.2685,0.8659,0.3415c0.0677,0.382,0.2319,0.5434,0.6313,0.5373  c0.1512-0.0023,0.3054,0.1773,0.4007,0.3791c-1.0699-0.1291-2.1844-0.0299-3.0052-0.8903c-0.0892-0.0932-0.2552-0.1319-0.3928-0.157  c-0.8959-0.165-1.789-0.3756-2.6932-0.4555c-0.5257-0.0467-1.0706,0.1217-1.6068,0.1934c0.0074,0.0715,0.0148,0.143,0.0222,0.2144  c0.9208,0.4087,1.826,0.8596,2.7688,1.2085c0.5127,0.1901,1.0973,0.1771,1.634,0.3154c0.2268,0.0587,0.4135,0.2718,0.6188,0.4148  c-0.0236,0.0495-0.0472,0.0989-0.071,0.1483c-0.8665,0-1.7329,0-2.6214,0c-0.2309,0.4576,0.1437,0.6567,0.4165,0.7417  c0.1653,0.0515,0.4256-0.2011,0.7838-0.3919c-0.1428-0.0131-0.0746-0.0228-0.0651-0.0036c0.3743,0.7565,1.0683,0.809,1.7872,0.8398  c0.1684,0.0072,0.3351,0.1207,0.4932,0.2034c0.0162,0.0082-0.0269,0.2047-0.0538,0.2075c-0.177,0.0187-0.3574,0.0016-0.536,0.0087  c-0.3968,0.0162-0.7934,0.0382-1.1898,0.0613c-0.0968,0.0056-0.1947,0.0423-0.2895,0.0346  c-0.6569-0.0551-1.3132-0.1179-1.9696-0.1781c-0.0172,0.06-0.0344,0.1199-0.0515,0.1799c0.1678,0.1027,0.3461,0.3069,0.5021,0.291  c0.7633-0.0776,1.3617,0.288,1.9741,0.639c0.0507,0.0292,0.1332,0.0873,0.155,0.0709c0.6225-0.4691,1.0883,0.1079,1.5249,0.1845  c-0.142,0.4212-0.2757,0.8186-0.4092,1.2162c-0.0133,0.0394-0.0205,0.1132-0.0364,0.115c-0.9179,0.0951-0.4755,0.9113-0.7202,1.3612  c-0.1444,0.2654-0.0837,0.4053,0.2255,0.5767c0.6028,0.3344,1.2887,0.3082,1.8569,0.4968c0.7374,0.2447,1.5572-0.0894,2.24,0.4734  c0.2813,0.2322,0.8544,0.0956,1.29,0.1599c0.5265,0.0782,1.0481,0.1916,1.5718,0.2895c0.001,0.0889,0.002,0.1776,0.0033,0.2662  c-0.1996,0.0879-0.3992,0.1755-0.6318,0.2777c0.186,0.1732,0.3551,0.3308,0.5726,0.5337c-0.5416,0.2836-0.9689,0.7512-1.5303,0.3459  c-0.1081-0.0782,0.0328-0.5014,0.0751-0.9326c-0.3679,0.0428-0.8552,0.0717-1.3207,0.1878  c-0.0602,0.0148-0.0082,0.4804-0.0082,0.8982c-0.3162-0.0717-0.6697-0.1885-1.0312-0.2224  c-0.2903-0.0269-0.597,0.0216-0.8778,0.1012c-0.0461,0.0131-0.0686,0.4702,0.0231,0.5299c0.176,0.1147,0.4419,0.0914,0.6705,0.1258  c0.302,0.0451,0.6277-0.2168,0.8915,0.2813c0.1243,0.2349,0.7592,0.1947,1.1601,0.2892c0.2206,0.0523,0.4361,0.1256,0.7302,0.2119  c-0.1496,0.1634-0.1778,0.2208-0.2052,0.2203c-0.8137-0.0136-1.6292-0.0051-2.4406-0.0574  c-1.4667-0.0945-2.9299-0.2464-4.3972-0.3317c-0.6341-0.0369-1.2753,0.0176-1.9112,0.0627  c-0.175,0.0123-0.3418,0.1391-0.5211,0.2173c0.4266,0.5157,3.8986,1.2051,4.5529,0.9269c1.1616,1.052,1.4565,1.1004,2.3132,0.3807  c0.3787,0.6113,1.1173,0.8957,1.8788,0.7925c0.1883-0.0257,0.4032,0.1457,0.6061,0.2264c-0.1555,0.1225-0.2946,0.309-0.4701,0.3541  c-0.3451,0.0887-0.7176,0.0884-0.8065,0.6397c0.2808,0.0436,0.5385,0.0987,0.7991,0.1199c0.2454,0.02,0.4937,0.0044,0.767,0.0928  c-0.4019,0.2052-0.8039,0.4104-1.2072,0.6161c0.4281,0.8107,0.4281,0.8107-0.3256,1.2447c0.3487,0.4506,0.3623,0.4524,1.1875,0.1327  c0.4427,0.3712,0.7122,1.2392,1.5123,0.7204c-0.1063-0.4422-0.2019-0.8403-0.2977-1.2387c0.3723-0.0167,0.7443-0.0331,0.9605-0.0425  c0.1017,0.6743,0.1778,1.1782,0.2521,1.6714c0.486,0.0602,0.899,0.1114,1.458,0.1806c-0.2144,0.5824-0.3643,1.1657-0.6397,1.6825  c-0.2301,0.4322-0.8385,0.4752-1.0855,0.218c-0.6405-0.6671-1.2951-0.269-1.9277-0.1675c-0.6082,0.0971-1.1936,0.3353-1.8343,0.5249  c0.3671,0.1314,0.8016,0.2744,1.2254,0.4443c0.1875,0.075,0.353,0.2047,0.5285,0.3095c-0.1266,0.1924-0.2111,0.4783-0.3881,0.5577  c-0.3966,0.1778-0.8452,0.2349-1.2603,0.3779c-0.1798,0.0617-0.351,0.1924-0.4837,0.3323c-0.0827,0.0874-0.1545,0.291-0.1079,0.3681  c0.0567,0.0938,0.2808,0.1878,0.3669,0.1463c0.5842-0.2833,1.333,0.1561,1.8531-0.4268c0.0369-0.0415,0.3674,0.0618,0.3843,0.1376  c0.1583,0.7045,0.7594,0.805,1.2949,1.0007L238.7442,57.1882z M104.4316,155.2055c0.3897,0.062,0.7794,0.1243,1.169,0.1863  c0.0077-0.0626,0.0151-0.1251,0.0228-0.1876c-0.8498-0.3902-0.8498-0.3902-1.1987,0.0218c-0.1202-0.5314-0.5509-0.4578-0.898-0.3884  c-0.1117,0.0223-0.1583,0.3699-0.2347,0.5685c0.0513,0.0395,0.1025,0.0787,0.154,0.1181  C103.7737,155.4194,104.1014,155.3149,104.4316,155.2055z M74.7132,36.0141c0.826-0.2644,1.1234-0.9659,1.4967-1.7973  c-0.4491,0.0702-0.7845,0.1228-1.1473,0.1796c-0.0092-0.1504-0.0182-0.2984-0.0261-0.4301  c-0.6198-0.1371-0.6526,0.207-0.5857,0.6105c0.0805,0.4855,0.1827,0.9674,0.2729,1.448c-0.2831,0.0549-0.6129,0.0405-0.8327,0.1891  c-0.1427,0.0966-0.1253,0.4304-0.1793,0.6577c0.0584,0.0172,0.1171,0.0343,0.1757,0.0515  C74.1628,36.6203,74.438,36.3172,74.7132,36.0141z M230.6093,83.5205c-0.6282-0.3254-1.0238,0.1084-1.469,0.404  c0.1521,0.3098,0.2849,0.5793,0.4217,0.8575c0.8549-0.0628,1.7027-0.125,2.5504-0.1873c0.0072-0.0589,0.0144-0.1178,0.0213-0.177  c-0.2047-0.0738-0.4163-0.226-0.6128-0.2083c-0.8165,0.0733-0.8147,0.0922-0.9298-0.7063c0.3226,0.0909,0.6449,0.1819,0.9674,0.2728  c0.0656-0.0871,0.1312-0.1739,0.1968-0.2611c-0.2795-0.2016-0.6121-0.3607-0.8204-0.6194c-0.148-0.1843-0.0474-0.5893-0.4675-0.5176  c-0.258,0.0441-0.5239,0.113-0.7515,0.2357c-0.1124,0.0608-0.146,0.268-0.2152,0.4087c0.1445,0.0525,0.2949,0.1609,0.432,0.1463  C230.254,83.1341,230.5332,83.1116,230.6093,83.5205z M96.9918,25.7074c-0.0118-0.165-0.0143-0.3313-0.0377-0.4945  c-0.0294-0.2062-0.0758-0.4101-0.1147-0.6151c-0.2514,0.0523-0.5204,0.0643-0.7492,0.1663  c-0.2805,0.1253-0.5318,0.3197-0.7875,0.4957c-0.1576,0.1084-0.3,0.2388-0.4986,0.3989c0.6157,0.2053,1.2549-0.6484,1.6494,0.2391  c0.1993-0.0754,0.3772-0.1425,0.5547-0.2093c-0.3349,0.3481-0.67,0.6963-1.0117,1.0517c0.1552,0.2244,0.3264,0.4711,0.4352,0.6284  c0.5347-0.1212,1.0343-0.1673,1.4745-0.3541c0.3827-0.1621,0.6981-0.4834,1.0432-0.7342c-0.2247-0.2834-0.4478-0.5683-0.6766-0.8483  c-0.0202-0.0249-0.0771-0.0197-0.1424-0.0338C97.7809,25.5557,97.5396,26.2206,96.9918,25.7074z M112.5718,21.9187  c-0.0184-0.2703-0.0366-0.5406-0.055-0.8111c-0.2652,0.0515-0.5322,0.0948-0.7945,0.1573  c-0.1404,0.0333-0.2888,0.0766-0.4043,0.1573c-0.1268,0.0889-0.2347,0.2168-0.3164,0.349  c-0.0185,0.0299,0.1276,0.2221,0.1593,0.2123c0.1576-0.0476,0.307-0.1301,0.4486-0.2172c0.0649-0.0397,0.1059-0.1186,0.1604-0.1829  c0.2877,0.1109,0.555,0.2141,0.8222,0.3174c-0.237,0.0794-0.4696,0.2062-0.712,0.2293c-0.628,0.0599-0.7461,0.517-0.7227,0.9823  c0.021,0.4222,0.198,0.837,0.3153,1.2907c0.4492-0.0382,0.8875-0.0756,1.4604-0.1245c-0.4084-0.5519-0.5606-0.9036-0.0497-1.2285  c0.1732-0.1102,0.4163-0.4465,0.3827-0.4898C113.0755,22.3146,112.8111,22.1265,112.5718,21.9187z M80.1561,20.1189  c-0.0576,0.1376-0.1153,0.2754-0.2075,0.4953c0.4512-0.1558,0.784-0.2711,1.1168-0.3861c-0.0256-0.0764-0.0513-0.1525-0.0766-0.2288  c-0.2844,0.0466-0.5685,0.0932-0.8529,0.1399c-0.2485-0.3582-0.3169-0.6218,0.278-0.6095c0.1322,0.0025,0.29-0.0754,0.3958-0.164  c0.3528-0.2954,0.6874-0.6126,1.0281-0.9205c0.0902-0.2634,0.3449-0.6267,0.2565-0.8606c-0.0787-0.2086-0.6072-0.2052-0.8124-0.4166  c-0.4148-0.4273-0.6587-0.3167-1.0179,0.0725c-0.5895,0.6392-1.165,1.3589-1.8992,1.7757c-0.6118,0.3472-0.7881,0.774-1.0164,1.5165  c0.4704-0.0935,0.8281-0.0974,1.1204-0.2373C79.0232,20.03,79.5528,19.7982,80.1561,20.1189z M67.339,25.1051  c-0.2209,0.186-0.3551,0.3771-0.5327,0.4345c-0.5572,0.1799-0.6533,0.5554-0.6287,1.0822c0.0103,0.2188-0.1494,0.5434-0.3325,0.6564  c-0.7492,0.4611-1.4776,0.8839-1.7199,1.8462c-0.1015,0.4032-0.3889,0.8019-0.6938,1.0978c-0.246,0.239-0.6356,0.3464-0.9782,0.4645  c-0.3125,0.1078-0.6489,0.145-0.9717,0.2257c-0.3344,0.0835-0.66,0.2162-0.9985,0.2667c-0.694,0.103-1.4137,0.0891-2.088,0.2608  c-1.3204,0.3356-2.365,1.4347-3.8245,1.4224c-0.0579-0.0005-0.1233,0.0361-0.1735,0.072c-0.5016,0.3595-0.9953,0.7302-1.5021,1.0819  c-0.4488,0.3116-1.0112,0.5222-1.3391,0.9267c-0.3223,0.3974-0.6595,0.6492-1.1253,0.7056  c-0.9574,0.1158-1.4508,0.7386-1.818,1.5372c0.783,0.207,0.7953,0.1798,1.4189-0.163c0.8611-0.4732,1.7334-0.9302,2.6265-1.3383  c0.2173-0.0995,0.5593-0.0415,0.7989,0.0556c0.2531,0.1027,0.4519,0.3386,0.5959,0.4534c0.1496-0.3663,0.1798-0.7079,0.352-0.8103  c0.4553-0.2708,0.972-0.4379,1.623-0.7136c-0.2108,0.4238-0.3384,0.6805-0.466,0.937c0.0535,0.0476,0.1071,0.0953,0.1606,0.1427  c0.4225-0.3474,0.8173-0.7384,1.2741-1.033c0.7556-0.4876,1.4983-1.0684,2.5059-0.8345c0.0897,0.021,0.2524-0.0169,0.2936-0.0825  c0.401-0.6364,1.0935-0.7967,1.7037-1.1021c0.1607-0.0802,0.2439-0.3234,0.3523-0.4981c0.0979-0.1583,0.144-0.4196,0.2777-0.4729  c0.7676-0.3062,1.5542-0.5637,2.4234-0.8693c-0.3512,0.9828-1.655,0.4832-1.8172,1.4944c-0.5011-0.3264-0.5411-0.2962-0.8247,0.6971  c0.2903-0.0274,0.5608-0.0525,0.8311-0.0779c-0.1762,0.2239-0.4068,0.3108-0.5913,0.4563  c-0.1294,0.1022-0.2839,0.2964-0.2664,0.4279c0.0199,0.1499,0.1949,0.3253,0.3466,0.3984c0.1588,0.0766,0.3753,0.0807,0.5577,0.0548  c1.6776-0.2396,3.3542-0.4858,5.0287-0.7453c0.473-0.0735,0.9382-0.198,1.4071-0.299c0.0246,0.0759,0.0494,0.1517,0.0743,0.2275  c-0.6339,0.2621-1.2679,0.5245-2.0658,0.8547c0.3823,0.4048,0.7125,0.7543,1.0579,1.1199c-1.1509,0.0835-0.2695,0.8477-0.434,1.4083  c0.4248-0.1007,0.7852-0.155,1.1234-0.2731c0.7745-0.2701,1.5406-0.566,2.303-0.8688c0.0725-0.0289,0.0984-0.1786,0.1435-0.2734  c0.1035-0.2172,0.2057-0.4347,0.3241-0.6855c-0.1079-0.0172-0.2173-0.0685-0.3041-0.0431c-0.566,0.166-1.0538,0.1045-1.5188-0.3146  c-0.2375-0.2139-0.4494-0.0761-0.6418,0.2298c-0.1048,0.1665-0.5065,0.1604-0.7788,0.1981  c-0.0674,0.0092-0.2252-0.1625-0.2201-0.1702c0.1191-0.1796,0.246-0.3563,0.3917-0.5144c0.0677-0.0735,0.1766-0.1463,0.2706-0.1522  c0.6041-0.0366,0.7025-0.4868,0.7327-0.9359c0.0387-0.5741,0.0095-1.1526,0.0095-1.6914c-0.4225-0.1853-0.7622-0.3341-1.3207-0.5788  c0.7747-0.4194,1.3796-0.7745,2.0096-1.0765c0.3369-0.162,0.7325-0.1991,1.0758-0.3508c0.8754-0.3866,1.7386-0.8019,2.6007-1.2177  c0.1155-0.0556,0.1973-0.1811,0.2946-0.2744c-0.1101-0.0758-0.2119-0.1978-0.3315-0.2193  c-0.3308-0.0592-0.6823-0.0248-0.6928-0.5372c-0.0018-0.0887-0.3671-0.2506-0.5523-0.2347  c-0.2619,0.0225-0.5053,0.2162-0.7697,0.2644c-0.1596,0.0289-0.344-0.0794-0.664-0.1655c0.2285-0.1563,0.2615-0.1804,0.2959-0.2022  c0.2042-0.1306,0.425-0.2436,0.5982-0.4071c0.0315-0.0297-0.1319-0.2657-0.2052-0.4063c-0.2103,0.1143-0.4266,0.2185-0.629,0.3454  c-0.1832,0.1147-0.34,0.343-0.5275,0.3658c-0.6523,0.0799-0.9454,0.4975-0.6582,1.2185c-0.3353-0.0623-0.8129-0.061-0.8406-0.1724  c-0.0968-0.3864-0.0374-0.8117-0.0374-1.3635c-0.4655-0.4443-0.6451-0.4409-1.3084,0.0346  c-0.2306,0.1652-0.5316,0.2323-0.8006,0.3443c-0.041-0.0984-0.0817-0.197-0.1225-0.2954c0.4522-0.2503,0.9047-0.5004,1.3571-0.7504  c-0.0043-0.0487-0.0084-0.0974-0.0128-0.146c-0.2708,0.0202-0.5413,0.0404-0.846,0.0632  C67.5388,25.4904,67.4537,25.3264,67.339,25.1051z M76.732,31.361c0.0297,0.1224,0.0595,0.2447,0.0892,0.3671  c0.3328-0.0172,0.6743,0.0064,0.9958-0.0633c0.2788-0.0607,0.4543-0.1309,0.7028,0.1504c0.1529,0.1732,0.5703,0.113,0.869,0.1576  c0.0077-0.2106,0.0133-0.4215,0.0238-0.6321c0.0152-0.3082,0.0341-0.6164,0.0492-0.8874c1.4637-0.6923,2.852-1.4547,4.3185-2.0122  c1.4527-0.5527,2.984-0.8985,4.481-1.3348c0.0302,0.0561,0.0604,0.1124,0.0907,0.1685c-0.9685,0.5719-1.9707,1.1066-2.5674,2.2713  c0.6682,0,1.2756,0,1.8828,0c-1.3655,0.9418-1.4042,1.0196-0.8672,1.987c0.1163-0.0827,0.2646-0.1378,0.332-0.2444  c0.3489-0.5503,0.8867-0.7952,1.4621-0.6218c1.0335,0.3121,1.4637-0.5677,2.2082-0.8723c-0.6085-0.723-0.6085-0.723-0.3507-1.529  c-1.055-0.0879-1.7565,0.187-1.9143,0.7947c0.2467,0,0.4806,0,0.7148,0c-0.1676,0.2029-0.3738,0.3277-0.5747,0.3197  c-0.3092-0.012-0.618-0.1042-0.9213-0.1842c-0.1686-0.0445-0.3254-0.1337-0.4873-0.2026c0.1194-0.2221,0.1852-0.548,0.3702-0.6433  c0.3228-0.1666,0.7287-0.1632,1.0817-0.2834c0.3233-0.1096,0.6228-0.2885,0.9177-0.4296c-0.1002-0.2145-0.1729-0.3708-0.1688-0.3623  c0.5265-0.4309,0.943-0.8093,1.397-1.1357c1.312-0.9439,2.8682-1.1004,4.4015-1.3251c0.1717-0.0254,0.3572-0.0612,0.5009-0.1499  c0.2378-0.146,0.4222-0.4012,0.6725-0.5009c0.7553-0.3007,1.5449-0.5172,2.2941-0.8311c0.3661-0.1537,0.6722-0.4506,1.0055-0.6827  c-0.031-0.0649-0.0617-0.1297-0.0924-0.1948c-1.123-0.0594-2.0422,0.6813-3.1052,0.9006c0.3687-0.2782,0.7945-0.4438,1.156-0.7  c0.1965-0.1391,0.3023-0.4252,0.3963-0.6658c0.0123-0.0313-0.2892-0.1858-0.4332-0.2754c0.0597-0.0741,0.1286-0.1596,0.1975-0.2455  c-0.0369-0.0674-0.074-0.135-0.1109-0.2024c-0.4801,0.2063-1.1083,0.29-1.4037,0.6485c-0.4015,0.4868-0.8501,0.6264-1.3933,0.7178  c-0.1926,0.0326-0.3722,0.1399-0.5649,0.1755c-1.0089,0.186-1.4534,1.0569-2.1331,1.6602c-0.422,0.3746-1.1137,0.4668-1.6999,0.6287  c-0.5421,0.1497-1.1647,0.1079-1.6463,0.3556c-0.9334,0.4802-1.7893,1.0579-2.9151,1.0535c-0.497-0.0018-1.0145,0.2268-1.4875,0.432  c-0.4757,0.2067-0.8856,0.568-1.364,0.7653c-0.7017,0.2895-1.5108,0.2672-2.1346,0.819c-0.2511,0.2222-0.6423,0.3797-0.9774,0.3941  c-0.9323,0.0402-1.6997,0.434-2.395,0.9892c-0.2096,0.1672-0.3049,0.4773-0.5296,0.849c0.5568-0.0792,0.8806-0.1253,1.2047-0.1717  c0.009,0.0459,0.0177,0.0915,0.0266,0.1374C77.8017,30.9336,77.267,31.1473,76.732,31.361z M39.1114,37.0896  c0.0258,0.0641,0.0517,0.1279,0.0776,0.1919c0.094,0,0.1893,0.0105,0.2818-0.0018c0.8485-0.1109,1.6886-0.364,2.5553-0.0448  c0.1443,0.0533,0.3792-0.1138,0.5632-0.1988c0.5262-0.2442,0.9297-0.8575,1.6107-0.6318c0.6961,0.2306,1.2321,0.186,1.4652-0.6093  c0.8034,0.37,0.8006,0.3679,1.3609-0.4137c0.0526-0.0733,0.1676-0.1148,0.2621-0.143c0.7586-0.2262,1.5078-0.5144,2.283-0.6479  c0.7709-0.133,1.3087-0.6029,1.929-0.9879c0.6694-0.4156,1.4167-0.7097,2.141-1.0323c0.6264-0.279,1.2908-0.4798,1.8977-0.7937  c0.8244-0.4263,1.5118-1.1582,2.5666-1.0301c0.1332,0.0164,0.2887-0.1515,0.434-0.234c-0.0184-0.0556-0.0369-0.1114-0.0553-0.167  c-0.9485,0.093-1.9144,0.1076-2.8395,0.3085c-0.5641,0.1224-1.0668,0.53-1.5953,0.8129c-0.2796,0.1496-0.5404,0.3515-0.8363,0.4512  c-0.7276,0.2451-1.4721,0.4399-2.2069,0.6638c-0.8665,0.2641-1.734,0.5249-2.593,0.8114c-0.5867,0.1954-1.1706,0.4078-1.7329,0.663  c-0.2388,0.1081-0.4194,0.3448-0.5573,0.4635c-0.1601-0.2821-0.3007-0.5299-0.4414-0.7779  c-0.1942,0.2178-0.3894,0.434-0.5805,0.6544c-0.0259,0.0294-0.0282,0.0789-0.0441,0.1178  c-0.3759,0.9216-0.5836,1.0387-1.5226,0.7018c-0.3843-0.1381-0.6362-0.0715-0.8934,0.2118  c-0.5009,0.5511-1.4367,0.3293-1.8661,1.0325c-0.0295,0.0484-0.2142-0.021-0.3041,0.0174  C40.0137,36.672,39.5638,36.8839,39.1114,37.0896z M234.9965,129.15c-0.1273-0.2058-0.2724-0.6569-0.4448-0.6677  c-0.2636-0.0167-0.5449,0.2734-0.8216,0.4281c-0.1325,0.0741-0.3387,0.2301-0.3969,0.1886  c-0.4914-0.3508-0.5813,0.104-0.7901,0.3515c-0.2026,0.2398-0.4307,0.4581-0.6474,0.6858c0.0507,0.0687,0.1017,0.1374,0.1524,0.206  c0.1899-0.041,0.4054-0.0384,0.5644-0.1317c0.37-0.2172,0.5604-0.1201,0.7387,0.2514c0.0607,0.1263,0.3504,0.2531,0.4873,0.2134  c0.5856-0.1701,1.1534-0.402,1.6998-0.6011c-0.1186-0.2956-0.2656-0.5531-0.2275-0.5846c0.2245-0.1837,0.4925-0.3146,0.8125-0.5027  c0,0.3354,0,0.5262,0,0.7143c0.4734,0.0351,1.8274-0.8516,1.9163-1.231c0.0139-0.0582-0.0084-0.1246-0.0112-0.1873  c-0.017-0.3777-0.0592-0.7568-0.0367-1.1322c0.009-0.1539,0.1407-0.414,0.2467-0.4304c0.72-0.1112,0.5921-0.6269,0.4873-1.2026  c-0.4978,0.4348-0.9953,0.8693-1.5069,1.3164c0.0758,0.1565,0.1532,0.3159,0.2587,0.5336c-0.32,0.1053-0.5882,0.1937-0.7729,0.2547  c-0.1848-0.373-0.3292-0.6648-0.4128-0.8342c0.2298-0.4517,0.4228-0.8306,0.6157-1.2095c-0.2129,0.0054-0.3241,0.0671-0.4146,0.1509  c-0.6707,0.622-0.879,0.6282-1.5638,0.0236c-0.1891-0.1671-0.3589-0.358-0.5575-0.5122c-0.105-0.0817-0.2846-0.1852-0.3761-0.147  c-0.516,0.2144-1.1455,0.3545-1.4847,0.7411c-0.3538,0.4033-0.9051,0.9298-0.4545,1.6515c0.0661,0.1061-0.0563,0.32-0.0658,0.4855  c-0.0115,0.2001-0.0746,0.4968,0.0264,0.5806c0.165,0.1368,0.4809,0.2377,0.6687,0.1714c0.4311-0.1525,0.8049-0.4648,1.2351-0.6213  c0.7263-0.2639,1.3538-1.0118,2.3532-0.455c-0.1568,0.1952-0.3056,0.3802-0.4606,0.5728c0.052,0.1074,0.1186,0.2457,0.1667,0.3454  C235.5947,128.7949,235.255,128.9965,234.9965,129.15z M93.5495,19.1379c-0.1822,0.2447-0.3267,0.4694-0.5014,0.6667  c-0.2856,0.322-0.5636,0.6604-0.8959,0.9287c-0.3151,0.2541-0.712,0.4053-1.041,0.6456c-0.1401,0.1025-0.1988,0.3162-0.2946,0.4791  c0.2045,0.0746,0.4156,0.2257,0.6121,0.2088c0.4993-0.0425,0.991-0.2254,1.488-0.2352c1.2213-0.0241,2.2479-0.9059,3.523-0.7355  c0.3459,0.0463,0.7353-0.2314,1.0199-0.3308c-0.0366-0.7035-0.0005-1.3163-0.1242-1.8948c-0.0728-0.341-0.3492-0.6854-0.6249-0.9226  c-0.2844-0.2449-0.4804,0.0615-0.7186,0.2511c-0.2601,0.207-0.6446,0.362-0.9726,0.3574c-0.6597-0.0093-0.9336,0.2705-0.8711,1.0348  C93.9031,19.4054,93.7688,19.3037,93.5495,19.1379z M85.6713,22.736c-0.023-0.0517-0.0458-0.1032-0.0689-0.155  c-0.756,0.2898-1.594,0.4601-2.2445,0.9046c-0.5962,0.4074-1.1355,0.6439-1.8454,0.5878c-0.2578-0.0203-0.5388,0.0878-0.7902,0.1862  c-0.7775,0.3036-1.5513,0.619-2.3132,0.9592c-0.1547,0.069-0.2521,0.2665-0.3758,0.4048c0.1511,0.1017,0.2913,0.2296,0.456,0.2995  c0.2693,0.1143,0.5549,0.1901,0.8329,0.2839c0.1745,0.0587,0.373,0.2088,0.5173,0.1673c1.0335-0.2985,2.0588-0.6272,3.0795-0.9672  c0.2226-0.074,0.4171-0.2323,0.7163-0.4045c-0.2544-0.0587-0.3971-0.0912-0.5395-0.124c-0.0254-0.0551-0.0505-0.1099-0.0759-0.165  C83.9038,24.0544,84.7875,23.3952,85.6713,22.736z M89.6445,19.2466c1.7155-0.7153,3.6219-0.0456,5.1568-1.2972  c-0.9923-0.4855,0.2603-0.9448-0.0192-1.407c-0.3064,0-0.5895,0.0653-0.8219-0.0154c-0.3502-0.1214-0.6528-0.3787-1.002-0.5068  c-0.1235-0.0453-0.3387,0.0959-0.486,0.1917c-0.3751,0.2439-0.741,0.5029-1.1001,0.7699c-0.2317,0.1724-0.6518,0.3994-0.6303,0.5513  c0.0904,0.6372-0.4676,0.7942-0.7204,1.167C89.923,18.8454,89.8223,18.9891,89.6445,19.2466z M120.4492,22.5272  c-0.1073-0.2093-0.1163-0.2608-0.1465-0.2808c-0.349-0.2319-0.6661-0.4896-0.4617-0.9689c0.206-0.4832,0.5764-0.1253,0.8749-0.1486  c0.1294-0.0103,0.2749-0.0672,0.3677-0.1522c0.0333-0.0305-0.0372-0.236-0.1115-0.3098c-0.1719-0.1711-0.3605-0.415-0.5685-0.4447  c-0.7489-0.1071-1.2395-0.5749-1.7147-1.0843c-0.3508-0.3756-0.7182-0.2313-0.8796,0.1082c-0.1924,0.404-0.2121,0.89-0.3207,1.4078  c-0.121,0.0679-0.3241,0.1819-0.6039,0.3387c0.4553,0.168,0.795,0.2936,1.1731,0.4329c-0.1232,0.2363-0.2049,0.3936-0.3133,0.6013  c0.3231,0.0597,0.5339,0.1522,0.4422,0.5204c-0.0218,0.0871,0.2721,0.3717,0.3925,0.3556  C119.1859,22.8203,119.7834,22.6686,120.4492,22.5272z M142.3049,150.7758c0.0192-0.0582,0.0381-0.1163,0.0571-0.1745  c-0.2288-0.1901-0.4332-0.4957-0.6905-0.5495c-1.0312-0.2163-1.9852,0.0274-2.8387,0.7673  c-0.147-0.2306-0.2408-0.4133-0.3679-0.5685c-0.1557-0.1899-0.3538-0.515-0.5072-0.5006c-0.2944,0.0276-0.6864,0.1832-0.8265,0.4137  c-0.2037,0.3364-0.3866,0.5611-0.7876,0.63c-0.093,0.0159-0.1406,0.297-0.2091,0.4561c0.4292,0.1345,0.6749,0.6958,1.2854,0.4419  c0.6697-0.2782,1.3835-0.6502,2.1147-0.4706C140.5681,151.4747,141.3813,150.9057,142.3049,150.7758z M121.5114,155.1122  c-0.4629,0-0.9451-0.023-1.4239,0.0062c-0.5445,0.033-1.0866,0.1066-1.6279,0.1745c-0.5806,0.073-0.4443,0.5977-0.5299,0.9443  c-0.0353,0.143,0.163,0.4765,0.3018,0.5068c0.6659,0.1445,1.3487,0.2098,2.0238,0.3138c0.24,0.0369,0.4752,0.1033,0.7073,0.1553  c-0.0348,0.2416-0.0591,0.4112-0.103,0.7161c0.4238-0.3961,1.1255-0.3728,0.9877-1.0471c-0.1102-0.5378-0.5006-0.8662-1.1314-0.8081  C121.2427,155.9833,121.6513,155.8273,121.5114,155.1122z M77.3671,34.7984c1.6933,0.1273,4.5724-1.5111,4.9099-2.8005  c-0.1243-0.0169-0.2465-0.0561-0.3646-0.0466c-0.877,0.0714-1.7568,0.1263-2.6289,0.2377  c-0.8741,0.1117-1.2636,0.6234-1.1593,1.4839c0.4847-0.1568,0.9626-0.311,1.5134-0.4891c-0.1222,0.6664-0.3577,0.947-0.9682,0.8137  c-0.2093-0.0456-0.4927,0.0582-0.6864,0.1817C77.7576,34.3229,77.5936,34.5632,77.3671,34.7984z M81.8624,156.7153  c-0.013,0.0669-0.0261,0.1337-0.0392,0.2006c0.1783-0.0469,0.3805-0.0546,0.5306-0.1473c0.5603-0.3454,1.0868-0.1845,1.6248,0.0458  c0.2091,0.0894,0.443,0.2188,0.6505,0.1955c0.6375-0.0717,0.9718,0.187,1.0092,0.9203c0.3635-0.669,1.0135-1.2131,0.3863-1.8703  c-0.2346-0.2459-0.714-0.6453-1.2786-0.1189c0.2298,0,0.3789-0.0368,0.4908,0.0116c0.0889,0.0384,0.1814,0.1806,0.1827,0.278  c0.001,0.096-0.1271,0.2846-0.1693,0.2766c-0.526-0.0986-1.311-0.0555-1.5185-0.3778c-0.5875-0.9124-1.4465-0.9193-2.3048-1.0156  c-0.2224-0.0249-0.4676,0.1545-0.7025,0.2398c0.144,0.2134,0.2703,0.4417,0.436,0.6364  C81.3782,156.2457,81.627,156.4747,81.8624,156.7153z M137.7391,10.8417c0.6513,0.7032,1.113,1.356,2.0888,0.91  c0.3036-0.1389,0.7056-0.051,1.0584-0.0979c0.2206-0.0292,0.4335-0.1163,0.7835-0.2152c-0.3728-0.1786-0.5811-0.2785-0.7891-0.3781  c0.4229-0.1333,0.8385-0.09,1.2031-0.2068c0.2452-0.0784,0.4181-0.3833,0.6236-0.5867c-0.2475-0.1376-0.4909-0.2836-0.7453-0.4066  c-0.0651-0.0312-0.1796-0.0154-0.247,0.0226c-0.8083,0.4522-1.7106,0.3599-2.5794,0.4798  C138.6876,10.4248,138.2631,10.6557,137.7391,10.8417z M216.4955,143.3165c0.297-0.1603,0.6085-0.2459,0.786-0.4486  c0.1704-0.1947,0.2836-0.5195,0.2583-0.7706c-0.0121-0.1207-0.4563-0.3408-0.6111-0.2793  c-0.7214,0.2862-1.4098,0.6551-2.1103,0.9946c0.0177,0.0651,0.0354,0.1301,0.0531,0.1952c0.3489,0,0.6981,0,1.0471,0  c0.0381,0.0661,0.0763,0.1322,0.1145,0.1983c-0.4407,0.4599-0.8814,0.92-1.3907,1.4516c0.8096-0.0538,1.6079-0.0771,2.3963-0.178  c0.2198-0.0282,0.6043-0.3464,0.5792-0.4251c-0.0863-0.2715-0.289-0.5331-0.5119-0.7222  C216.9969,143.2402,216.7451,143.3165,216.4955,143.3165z M228.1488,112.8308c-0.143,0.2078-0.2903,0.3638-0.3684,0.549  c-0.1151,0.2721-0.0805,0.5211,0.2982,0.5147c0.6461-0.0112,1.2938-0.0205,1.9374-0.0735c0.4555-0.0377,0.5257-0.4279,0.2987-0.6759  c-0.3308-0.3607-0.3221-0.6358-0.0238-0.9438c-0.536-0.704-1.0789-0.6694-2.7145,0.1576  C227.7711,112.5192,227.9525,112.6691,228.1488,112.8308z M123.3525,155.3123c0.1119,0.029,0.2242,0.0838,0.3361,0.0828  c1.4885-0.0126,1.4998,0.0041,0.8183,1.3151c0.752,0.5226,1.1404,0.4711,2.0378-0.2878c-0.269-0.3481-0.467-0.6843,0.0067-1.0706  c0.1181-0.0963,0.0177-0.4609,0.0177-0.6034C125.3209,154.4751,124.3353,154.8302,123.3525,155.3123z M100.3698,24.2412  c0,0.7312,0,1.3829,0,2.1326c0.2385,0.0774,0.6228,0.2024,0.8562,0.2785c0.5603-0.257,0.9941-0.4558,1.4276-0.6546  c0.0074-0.0597,0.0148-0.1194,0.022-0.1788c-0.9997-0.1105-1.736-0.4335-1.2941-1.7063  C100.925,24.1707,100.6099,24.2107,100.3698,24.2412z M54.6466,41.1089c-1.2021-0.483-2.1839,0.0622-3.1585,0.4929  c-0.9618,0.425-2.1083,0.4332-2.9148,1.2088c0.0223,0.0638,0.0446,0.1275,0.0669,0.1916  C50.6424,42.3712,52.6443,41.7402,54.6466,41.1089z M109.3045,13.7111c0.6697-0.3177,1.6671-0.0051,2.0409-1.0765  c0.1012-0.2901,0.298-0.5296,0.0384-0.7287c-0.1268-0.0971-0.454,0.0064-0.662,0.0899c-0.3994,0.1607-0.7863,0.3577-1.1629,0.567  c-0.2295,0.1276-0.4845,0.2672-0.6313,0.4712C108.7209,13.3212,108.9499,13.717,109.3045,13.7111z M112.5864,155.2375  c0.0023,0.0654,0.0049,0.1307,0.0072,0.1958c0.05,0.031,0.0994,0.0876,0.1496,0.0883c0.5691,0.01,1.1148,0.0259,1.6041,0.4248  c0.1934,0.1576,0.5675,0.195,0.8314,0.1438c0.6213-0.121,1.2297-0.3154,1.8336-0.5104c0.1258-0.0405,0.2093-0.2119,0.3123-0.3231  c-0.1371-0.053-0.2726-0.147-0.4115-0.1519c-0.6425-0.0218-1.3255,0.1166-1.9202-0.0564  C114.1075,154.7907,113.4145,155.432,112.5864,155.2375z M237.7225,114.5606c0.3002,0.5309-0.0459,0.6306-0.4484,0.7651  c-0.2703,0.0901-0.496,0.3141-0.7417,0.478c0.0507,0.0987,0.1015,0.1973,0.1522,0.2957c0.258-0.1117,0.5114-0.237,0.7758-0.3303  c0.1521-0.0535,0.3525-0.125,0.4801-0.0696c0.8629,0.373,1.0004,0.2741,1.3396-0.5473c0.1955-0.4734-0.2515-0.643-0.2549-0.9858  c-0.2262,0.044-0.457,0.0727-0.6774,0.1373C238.1498,114.3618,237.9633,114.4597,237.7225,114.5606z M222.3868,30.8885  c0.1417,0.1215,0.3318,0.2042,0.3433,0.3067c0.1015,0.9093,0.8783,0.6923,1.4053,0.8094c0.2103,0.0468,0.5267-0.1922,0.7261-0.3759  c0.0861-0.0794,0.063-0.3907-0.0231-0.5244C224.3527,30.3482,223.1803,30.2309,222.3868,30.8885z M56.9472,39.968  c0.2985-0.0753,0.5006-0.1317,0.7048-0.177c0.4696-0.1043,0.9459-0.1822,1.4086-0.3105c0.3677-0.1023,0.7868-0.1876,1.054-0.4251  c0.175-0.1557,0.1197-0.57,0.1676-0.8685c-0.2168,0.0479-0.4476,0.0636-0.6474,0.1504c-0.5222,0.2265-1.0187,0.5168-1.5495,0.7179  c-0.3423,0.1296-0.7366,0.1176-1.0884,0.2295c-0.1334,0.0426-0.2633,0.2439-0.2966,0.3946  C56.6826,39.76,56.8734,39.8868,56.9472,39.968z M233.6466,102.3968c0,0.3348,0,0.6144,0,0.9328  c0.2815-0.258,0.5236-0.4799,0.7657-0.7015c0.0357,0.0333,0.0715,0.0666,0.1071,0.1c-0.0991,0.1334-0.1985,0.2667-0.3064,0.4117  c0.7899,0.2672,1.1119,0.2198,1.4645-0.1789c-0.1645-0.1942-0.4991-0.4926-0.4584-0.5585c0.1586-0.2559,0.4356-0.4386,0.6702-0.6469  c0.1251-0.1112,0.2534-0.2188,0.3802-0.3279c-0.0353-0.0589-0.0707-0.1176-0.106-0.1765  C235.1497,101.1691,234.5725,102.1411,233.6466,102.3968z M231.238,93.1931c-0.0174,0.0763-0.0717,0.2449-0.0904,0.4173  c-0.0174,0.1581,0.0033,0.3203,0.0074,0.4806c0.2009-0.0673,0.5626-0.1101,0.5772-0.2062c0.1053-0.6874,0.5219-0.4481,0.8898-0.3379  c0.3367,0.1007,0.6454,0.1511,0.9149-0.1092c-0.5777-0.1844-1.0768-0.3259-1.5618-0.506c-0.2518-0.0935-0.465-0.3041-0.7199-0.374  c-0.3646-0.1002-0.754-0.1689-1.1273-0.1486c-0.1363,0.0072-0.2569,0.3069-0.4463,0.5531  C230.2809,93.0511,230.6895,93.1118,231.238,93.1931z M111.9193,14.8568c0.4783,0.8616,0.7558,0.9685,1.4665,0.7361  c0.2764-0.0904,0.5782-0.1035,0.868-0.1537c0.1865-0.0326,0.3725-0.0684,0.5588-0.1025c-0.0036-0.0625-0.0072-0.125-0.0108-0.1873  c-0.3556-0.0177-0.7112-0.0351-1.1088-0.0548c0.093-0.2903,0.1742-0.5447,0.2557-0.7991c-0.0446-0.0441-0.0892-0.0881-0.1335-0.1322  C113.1908,14.3918,112.5662,14.6201,111.9193,14.8568z M30.3409,53.5856c-1.1906,0.0348-1.5242,1.0711-2.167,1.7821  c0.3928,0.4245,0.7632,0.258,1.1083,0.0538C29.9115,55.0497,30.449,54.1087,30.3409,53.5856z M169.0667,7.5767  c0.0049-0.0818,0.0095-0.1635,0.0144-0.2452c-1.1362-0.1056-2.2725-0.2111-3.421-0.318c0,0.3208,0,0.4801,0,0.6187  c0.2761,0.0321,0.6535-0.0348,0.7655,0.1074c0.567,0.7191,1.232,0.2436,1.9394,0.3574c-0.1386-0.2208-0.196-0.3126-0.2603-0.415  C168.4573,7.6433,168.7619,7.61,169.0667,7.5767z M75.3508,23.6337c0.0567,0.0502,0.1135,0.1005,0.1702,0.1507  c0.075-0.0287,0.1632-0.041,0.2229-0.0887c0.4432-0.3528,0.8149-0.8359,1.5074-0.3617c0.1579,0.1081,0.5888-0.1824,0.8942-0.2898  c-0.0595-0.1478-0.0766-0.3635-0.1858-0.4314c-0.3458-0.2147-0.7181-0.3935-1.0975-0.5427  c-0.1092-0.0427-0.3331,0.0167-0.4079,0.1079C76.0692,22.6492,75.7157,23.1459,75.3508,23.6337z M170.0009,4.2724  c-0.123,0.0287-0.3354,0.0146-0.4317,0.1135c-0.2081,0.214-0.3884,0.4722-0.5048,0.7446c-0.0253,0.0591,0.2462,0.3299,0.4135,0.3707  c0.4581,0.1117,0.9318,0.1706,1.403,0.2121c0.1604,0.0141,0.3308-0.0863,0.4968-0.1342c-0.1243-0.1686-0.2257-0.3626-0.3779-0.5004  C170.7016,4.8089,170.3749,4.5707,170.0009,4.2724z M9.9258,81.5083c-0.2306,0.3999-0.4099,0.6615-0.5377,0.9464  c-0.144,0.3205-0.2416,0.662-0.4328,1.2011c0.4107-0.1261,0.7576-0.1276,0.918-0.3013c0.5234-0.5673,0.9789-1.1973,1.52-1.8782  C10.833,81.3315,10.459,82.3125,9.9258,81.5083z M126.3961,11.3746c-0.2405,0.0958-0.4178,0.2336-0.5846,0.2216  c-0.8183-0.0579-0.7625,0.6584-0.9997,1.1052c-0.0269,0.0505,0.0945,0.2544,0.1773,0.277c0.5685,0.1542,1.1449,0.279,1.7188,0.4132  c-0.0858-1.1267-0.7245-0.1601-1.0847-0.4985c-0.0062-0.3008,0.0727-0.5419,0.4855-0.608c0.209-0.0333,0.4032-0.1591,0.6044-0.2429  C126.6106,11.826,126.5078,11.61,126.3961,11.3746z M206.4899,22.2544c-0.1217,0.5744,0.3074,0.6517,0.6769,0.7898  c0.2205,0.0825,0.4258,0.2114,0.6502,0.2777c0.2859,0.0848,0.5913,0.1863,0.8731,0.153c0.0861-0.0103,0.2401-0.5086,0.1522-0.6638  c-0.1201-0.2127-0.4273-0.3969-0.6805-0.4404C207.6343,22.28,207.0897,22.2895,206.4899,22.2544z M104.6004,24.936  c0.0579,0.3261,0.7169,0.5931,1.1332,0.2787c0.3436-0.2595,0.6187-0.6223,1.126-0.5777c0.0302,0.0026,0.1765-0.3748,0.1163-0.4458  c-0.2375-0.28-1.5318-0.0822-1.7575,0.2047C105.0729,24.5809,104.8605,24.7136,104.6004,24.936z M235.471,31.0435  c-0.8173-1.1705-1.6958-1.427-2.7011-0.7655c0.6566,0.0915,0.9469,1.0843,1.7821,0.5378c0.0733-0.0479,0.2623,0.094,0.402,0.1314  C235.0956,30.9849,235.2429,31.002,235.471,31.0435z M231.3582,81.0856c-0.1061-0.5701-0.5908-1.1455-1.0269-1.0653  c-0.1765,0.0325-0.3671,0.4463-0.4001,0.7058c-0.0682,0.538,0.3125,0.9039,0.892,0.8432  C231.0164,81.5488,231.1806,81.2546,231.3582,81.0856z M113.1099,11.4576c-0.0751-0.0451-0.1504-0.0902-0.2255-0.1353  c-0.1783,0.1622-0.3887,0.3015-0.5255,0.4932c-0.1147,0.1609-0.1437,0.383-0.2111,0.5777c-0.075,0.217-0.2026,0.4345-0.2006,0.6508  c0.0008,0.0848,0.3367,0.2733,0.4404,0.229c0.2424-0.1038,0.5639-0.2846,0.6236-0.4983  C113.1275,12.3589,113.086,11.899,113.1099,11.4576z M95.2253,155.1855c-0.1986-0.5787-0.5992-0.7509-1.0701-0.4184  c-0.1648,0.1161-0.2619,0.4092-0.2711,0.6267c-0.0041,0.0958,0.2823,0.2798,0.4466,0.2921c0.4132,0.031,0.8349,0.0102,1.2474-0.039  c0.1624-0.0192,0.3092-0.1693,0.4629-0.2598c-0.0181-0.0556-0.0363-0.1111-0.0548-0.1667  C95.7469,155.2093,95.5074,155.1983,95.2253,155.1855z M44.9988,39.9959c0.0377,0.0428,0.0754,0.0856,0.1133,0.1287  c0.1783-0.0815,0.3569-0.1627,0.5254-0.2396c0.1771,0.2503,0.3364,0.4758,0.496,0.701c0.1743-0.5288,0.2988-0.8639,0.401-1.2057  c0.0651-0.2173,0.2085-0.5385,0.1184-0.6454c-0.1453-0.1719-0.4545-0.2049-0.5224-0.2308  C45.6762,39.1028,45.3375,39.5494,44.9988,39.9959z M233.1116,115.9493c-0.0807,0.435-0.1037,0.9018,0.3789,0.9302  c0.5265,0.031,1.0689-0.1593,1.5985-0.2792c0.0745-0.0167,0.155-0.1789,0.1588-0.2767c0.0026-0.0628-0.1247-0.1796-0.2037-0.1886  C234.4108,116.0627,233.7749,116.0105,233.1116,115.9493z M114.3511,154.3234c0.0387-0.1135,0.0772-0.227,0.1158-0.3405  c-0.3092-0.1693-0.6054-0.3733-0.9318-0.4983c-0.3169-0.1214-0.6763-0.2534-0.9955-0.2126  c-0.3254,0.0415-0.6247,0.2877-0.9931,0.4734C112.5078,153.9435,113.4293,154.1336,114.3511,154.3234z M224.3488,138.4247  c0.3951,0.538,0.7889,0.7522,1.2398,0.4588c0.3612-0.2352,1.097-0.2549,0.8247-1.1552  C225.7507,137.9517,225.1289,138.1615,224.3488,138.4247z M100.9911,16.0594c-0.3459-0.2339-0.6269-0.5575-0.784-0.5057  c-0.5565,0.1834-1.0727,0.4914-1.5953,0.7689c-0.0298,0.0158-0.0034,0.1967,0.0425,0.2736  c0.0259,0.0433,0.1524,0.0571,0.2216,0.0389C99.5123,16.4681,100.1464,16.291,100.9911,16.0594z M230.6495,43.2815  c0.4092,0.2451,0.6413,0.4445,0.909,0.5249c0.2012,0.0605,0.4978,0.0387,0.6598-0.0763c0.148-0.1053,0.1719-0.3849,0.2505-0.5875  c-0.3272-0.1058-0.6579-0.3026-0.9805-0.2895C231.2147,42.8641,230.9508,43.1175,230.6495,43.2815z M108.2956,21.5285  c0.7046,0,1.3632,0,2.0222,0c0.0123-0.0714,0.0246-0.1432,0.0371-0.2147c-0.3715-0.0868-0.7504-0.1501-1.1126-0.2654  C108.4076,20.783,108.4106,20.7727,108.2956,21.5285z M219.2807,143.573c0.5101-0.0515,1.0919,0.2877,1.3074-0.3213  c0.0609-0.1727-0.441-0.5442-0.7253-0.8716C219.6381,142.8403,219.4851,143.1541,219.2807,143.573z M58.6932,35.9216  c0.0497,0.0863,0.0997,0.1729,0.1497,0.2595c0.3735-0.1053,0.7703-0.1647,1.1096-0.3374c0.1388-0.0707,0.1649-0.3843,0.2057-0.5944  c0.0043-0.0228-0.2852-0.1716-0.3533-0.1281C59.4198,35.3654,59.0609,35.6503,58.6932,35.9216z M232.881,97.5359  c-0.4883-0.4007-1.5459-0.1596-1.8861,0.4581C231.559,97.5989,232.3379,98.306,232.881,97.5359z M82.9523,18.4815  c-0.5852,0.244-1.1703,0.4879-1.8482,0.7707C81.8455,19.7223,82.3156,19.5343,82.9523,18.4815z M236.9024,97.7783  c-0.5063,0.0735-0.9308,0.1183-1.3461,0.2065c-0.1074,0.0228-0.2398,0.1701-0.2621,0.2802c-0.021,0.103,0.115,0.34,0.1368,0.3346  c0.4881-0.1204,0.9756-0.2505,1.4455-0.4268C236.937,98.1503,236.8985,97.8644,236.9024,97.7783z M46.949,147.4882  c0.4061,0.733,1.0156,0.7802,1.9664,0.1881C48.2979,147.6174,47.6807,147.5582,46.949,147.4882z M102.1342,19.1741  c0.082-0.3372,0.0733-0.6831,0.2399-0.8844c0.1798-0.2178,0.5229-0.3008,0.7947-0.4425c-0.3618-0.2693-0.9367-0.1122-1.2925,0.3264  C101.5729,18.5479,101.5504,18.852,102.1342,19.1741z M50.4303,139.0073c0.0074-0.081,0.0148-0.1622,0.0223-0.2434  c-0.3938-0.0595-0.7879-0.1571-1.1819-0.1568c-0.1268,0-0.2534,0.2577-0.3799,0.3973c0.1516,0.0869,0.312,0.2578,0.454,0.2437  C49.7109,139.2114,50.069,139.0931,50.4303,139.0073z M234.8043,59.4174c0.0754-0.0312,0.1507-0.0622,0.2263-0.0935  c0.0453-0.2887,0.0907-0.5774,0.136-0.8659c-0.2349-0.0172-0.4778-0.0754-0.7017-0.0333c-0.1069,0.02-0.2783,0.3013-0.2488,0.343  C234.3834,59.0044,234.6027,59.2048,234.8043,59.4174z M232.7406,62.1293c-0.5408-0.6894-0.5966-0.6935-1.1928-0.2372  c-0.1069,0.0817-0.2726,0.0845-0.3838,0.1627c-0.0828,0.0581-0.1212,0.179-0.1794,0.272c0.0854,0.0413,0.1794,0.1299,0.255,0.1164  C231.7189,62.3561,232.1944,62.2464,232.7406,62.1293z M43.0686,47.8654c0.0356,0.0771,0.0712,0.154,0.1069,0.2311  c0.4235-0.1932,0.8472-0.3864,1.2707-0.5793c-0.0143-0.0707-0.0287-0.1414-0.043-0.2121c-0.2081-0.071-0.4948-0.2626-0.6083-0.1886  C43.5111,47.302,43.3056,47.6079,43.0686,47.8654z M233.643,25.1768c-0.0446,0.1171-0.0894,0.2339-0.134,0.351  c0.7473,0.249,1.4944,0.4981,2.2417,0.7471c0.0203-0.0553,0.0405-0.1107,0.061-0.166  C235.0887,25.7981,234.3657,25.4876,233.643,25.1768z M159.2561,153.531c-0.2165-0.228-0.361-0.4789-0.4563-0.4614  c-0.2613,0.0476-0.5017,0.208-0.7504,0.3238c0.2206,0.1898,0.4219,0.4176,0.674,0.5454  C158.7954,153.9755,159.0145,153.7226,159.2561,153.531z M84.2997,31.6328c0.0286,0.0423,0.0576,0.0846,0.0863,0.1266  c0.3448-0.1271,0.7048-0.2252,1.0274-0.3946c0.1416-0.0745,0.2075-0.2938,0.3077-0.4473c-0.1935-0.0277-0.4489-0.1465-0.5686-0.0656  C84.8369,31.0658,84.5799,31.3666,84.2997,31.6328z M221.2601,28.0393c0.3148,0.5481,0.7558,0.68,1.3412,0.431  C222.3005,27.9156,221.8788,27.7693,221.2601,28.0393z M240.7589,125.3228c0.3065,0.1107,1.2078-0.2761,1.278-0.5498  c0.0176-0.0696-0.1051-0.1752-0.1632-0.2646C241.5265,124.803,240.8668,124.6859,240.7589,125.3228z M127.3863,20.742  c-0.1642-0.0874-0.2902-0.1545-0.4837-0.2572c0.3441,0.7079,0.9754,0.7488,1.7238,0.1227  c-0.4402-0.0584-0.8089-0.1074-1.1827-0.1571C127.4263,20.5388,127.4081,20.6313,127.3863,20.742z M125.338,9.8471  c-0.8024-0.1758-1.1316-0.0136-1.2177,0.578C124.7029,10.6085,125.0411,10.3129,125.338,9.8471z M222.3315,144.3716  c0.7724,0.3435,1.2044,0.1629,1.4009-0.5706C223.2,144.018,222.7658,144.1948,222.3315,144.3716z M233.5469,104.4969  c0.011,0.0625,0.022,0.125,0.0331,0.1875c0.4893-0.1156,0.9786-0.2311,1.4962-0.353  C234.7633,103.9048,234.3875,103.9601,233.5469,104.4969z M226.9695,129.7005c-0.0582,0.0941-0.1161,0.1883-0.1742,0.2824  c0.2152,0.1811,0.4304,0.362,0.6456,0.5431c0.114-0.1509,0.2278-0.3021,0.3418-0.453  C227.5116,129.9488,227.2405,129.8245,226.9695,129.7005z M209.7411,28.7385c-0.0157,0.1222-0.0313,0.2444-0.0469,0.3664  c0.2872,0.0494,0.5744,0.0986,0.8616,0.1481c0.0061-0.153,0.0348-0.4356,0.0146-0.4392  C210.298,28.7662,210.0188,28.757,209.7411,28.7385z M209.5597,26.7886c0.0082-0.0725,0.0166-0.145,0.0248-0.2178  c-0.4568-0.4499-0.6184-0.4578-1.0788,0.1079C208.9289,26.723,209.2443,26.7558,209.5597,26.7886z M45.1333,41.6743  c0.1924-0.291,0.3848-0.5821,0.6013-0.9098C45.0219,40.6969,44.8605,40.9021,45.1333,41.6743z M225.274,143.273  c0.0228,0.0702,0.0458,0.1404,0.0686,0.2106c0.7397,0.0789,0.8199,0.0479,1.0018-0.5239  C225.9291,143.0813,225.6014,143.1772,225.274,143.273z M229.6624,43.1139c-0.0328,0.1237-0.0656,0.2472-0.0984,0.371  c0.2824,0.0648,0.5632,0.1391,0.8491,0.1778c0.0253,0.0033,0.0822-0.226,0.1245-0.3472  C230.2458,43.2484,229.9542,43.181,229.6624,43.1139z M67.0149,36.3925c-0.0459-0.0817-0.0918-0.1635-0.1376-0.2452  c-0.4233,0.28-0.8465,0.5603-1.2695,0.8403c0.0359,0.0554,0.072,0.1107,0.1081,0.1661C66.1489,36.9,66.5819,36.6461,67.0149,36.3925  z M93.7055,27.1396c0.4202,0.0284,0.8926,0.2062,1.1168-0.3018c-0.0318-0.0733-0.0638-0.1468-0.0956-0.2201  C94.3862,26.7917,94.046,26.9656,93.7055,27.1396z M40.8123,143.9804c0.0361,0.0953,0.0725,0.1906,0.1089,0.2859  c0.2472-0.0859,0.4944-0.1717,0.7419-0.2578c-0.0512-0.1188-0.1022-0.2377-0.1535-0.3569  C41.2773,143.7613,41.0446,143.871,40.8123,143.9804z M212.6753,144.0818c0.3882-0.0702,0.6687-0.1209,0.9492-0.1716  c-0.0602-0.1135-0.0922-0.2844-0.1857-0.3303C213.1027,143.4152,212.8362,143.4884,212.6753,144.0818z M217.6576,140.5065  c-0.0002,0.0789-0.0002,0.1576-0.0005,0.2365c0.3761,0.3372,0.6667-0.0845,0.9846-0.2365  C218.3138,140.5065,217.9856,140.5065,217.6576,140.5065z M55.9757,27.6425c-0.062,0.0756-0.1237,0.1514-0.1857,0.2272  c0.175,0.1786,0.3502,0.3572,0.5252,0.5358c0.0402-0.1443,0.157-0.3362,0.1035-0.4225  C56.3272,27.8349,56.1289,27.7524,55.9757,27.6425z M137.9049,8.6878c-0.1412-0.1681-0.2237-0.2662-0.3062-0.3643  c-0.1273,0.1652-0.2749,0.32-0.3663,0.5032c-0.0221,0.0438,0.1434,0.1813,0.2229,0.2756  C137.5898,8.9783,137.7243,8.8543,137.9049,8.6878z" fill="#222222" />
	</g>
</svg>
