<?xml version="1.0"?>
<svg version="1.1" id="XMLID_2_" xmlns="http://www.w3.org/2000/svg" xmlns:xlink="http://www.w3.org/1999/xlink" x="0px" y="0px" viewBox="0 0 338.7487 139.5515" enable-background="new 0 0 338.7487 139.5515" xml:space="preserve">
	<g id="P">
		<path id="_x32_4.2brush12" d="M23.881,77.9463c0.2769-0.6679,0.5539-1.3358,0.8554-2.0626  c-2.305-0.4845-4.4515,0.5259-6.6612,0.7657c-0.0443-0.1275-0.0884-0.2554-0.1324-0.383c1.9373-0.9077,3.8747-1.8152,6.2415-2.924  c-1.324-0.536-2.0891-0.1281-2.8866,0.0285c-0.7878,0.1547-1.5001,1.034-2.634,0.2339c0.5314-0.3041,0.9218-0.5278,1.416-0.8107  c-1.1893-1.2505-2.1428-0.3866-3.0949,0.1492c-0.8618,0.4849-1.7024,1.0073-2.687,1.3793c0.3776-0.9036,0.8847-1.5969,0.9369-2.6227  c0.0379-0.7448,1.0576-1.466,2.0414-1.2328c1.1657,0.2762,1.6889-0.3354,2.1011-1.4593c-1.2595,0.3056-2.6289,0.3984-3.7484,0.9756  c-1.1717,0.6041-2.1029,1.674-3.2638,2.6442c-1.086-0.8329-1.8971-1.6053-2.8471-2.1234c-0.5181-0.2823-1.2915-0.2569-1.9149-0.1557  c-1.904,0.3097-3.7805,0.3125-5.6274-0.2611c-0.474-0.1471-0.8947-0.466-1.3427-0.7076c0.8682-1.8705,1.6478-3.5499,2.4039-5.1786  c-2.3522-2.129-2.3712-2.3294-0.5475-5.5437c0.9774,1.105,1.9517,0.6308,3.0413,0.0974c1.0174-0.4978,2.156-0.7689,3.2627-1.0576  c1.4847-0.3876,2.7901-0.9802,3.6301-2.364c0.2301-0.3791,0.6485-0.6438,0.9972-0.9771c-1.7112-0.8772-2.6853-0.5662-3.325,0.9989  c-0.4094,1.002-0.9874,1.3084-1.9771,0.7486c-0.7509-0.4247-1.2095-0.2738-1.8052,0.193c-0.4678,0.3666-1.023,0.6543-1.5815,0.8667  c-1.3097,0.4988-2.7237,0.7719-3.6539,1.9876C0.9639,59.2998,0.6052,59.2614,0,59.3808c0.3815-0.632,0.5153-1.1111,0.8296-1.3279  c1.1091-0.7645,2.3017-1.407,3.4198-2.16c0.6456-0.4348,1.2095-0.991,1.8082-1.4949c0.3556-0.2993,0.6592-0.7259,1.0681-0.8852  c2.9471-1.1509,5.8204-2.4816,8.9704-3.1008c2.5171-0.495,4.9831-1.2679,7.4477-1.9986c0.6523-0.1934,1.2152-0.6874,2.0278-1.1662  c-1.3343-1.0991-2.3009-1.8682-3.8222-0.9423c-1.2603,0.767-2.6609,1.3012-3.9896,1.9584  c-0.6261,0.3097-1.2282,0.6205-1.8923-0.1025c0.4023-1.3215,2.1454-0.6554,2.7298-1.8119c-1.1155-0.9774-2.1256,0.166-3.195,0.2219  c-0.4199-0.7417-0.0287-1.2415,0.4263-1.6133c0.7811-0.6379,1.6315-1.1924,2.4613-1.7696c0.1038-0.0725,0.3495-0.0358,0.3774-0.1086  c0.6564-1.6958,2.4185-1.9005,3.6847-2.7705c0.0773-0.0531,0.0576-0.2473,0.1206-0.5652c-1.7655-0.0946-3.4287,0.0668-5.0507,0.7804  c-1.4124,0.6212-2.922,1.0424-4.2819,1.7552c-1.366,0.7161-2.6014,1.6819-3.8917,2.542c-0.3141,0.2091-0.6189,0.4317-1.0394,0.7263  c-0.0694-0.3648-0.1962-0.6241-0.1229-0.7073c1.4567-1.6551,2.8407-3.3839,5.0558-4.1428c2.428-0.8316,4.8138-1.7867,7.2395-2.6255  c2.4892-0.8611,5.0107-1.6289,7.5066-2.4716c1.5293-0.5165,3.0365-1.0978,4.5545-1.6479c0.7286-0.2641,1.1611-0.724,1.5331-1.4662  c1.5472-3.0857,4.1451-4.8688,7.4739-5.6697c0.8142-0.196,1.5917-0.5444,2.7331-0.9444c-0.961-1.2392-1.7757-2.1192-2.385-3.1238  c-0.5826-0.9615-2.1446-0.9541-2.348-2.5687c0.6054,0.1853,1.1249,0.1986,1.427,0.4617c1.3107,1.1414,2.9822,1.8759,3.8348,3.5515  c0.3653,0.7178,1.8723,0.9561,2.5138,0.4409c0.2611-0.2096,0.2198-0.7953,0.3041-1.1575c0.8376-0.0354,1.8244,0.0604,2.7475-0.1386  c5.1991-1.1217,10.2027-2.8728,15.0766-5.0989c-1.022,0.2236-2.1008,0.31-3.0531,0.703c-1.4668,0.6054-2.552,0.2139-3.7759-0.9861  c2.4383-0.4942,4.6565-0.9362,6.8713-1.3948c2.447-0.5068,4.8909-1.0279,7.3353-1.5456c0.198-0.0421,0.4212-0.0626,0.5821-0.1694  c2.9058-1.9294,6.4016-2.078,9.5775-3.1876c1.7075-0.5965,3.4026-1.2293,5.0835-1.8385c-0.1373-0.5347-0.2109-0.8217-0.3028-1.1793  c0.269,0.0225,0.5213-0.0343,0.6397,0.0661c0.8168,0.6948,1.6996,0.6236,2.6799,0.4273c2.254-0.4506,4.5229-0.8339,6.7946-1.1872  c0.9375-0.1455,1.6938-0.4258,1.8823-1.7009c1.5152,1.3581,3.1457,1.0076,4.7192,0.838c6.6656-0.7189,13.3447-1.4475,19.8225-3.2278  c3.3096-0.9098,6.6563-0.6723,9.9823-0.9675c3.4333-0.3048,6.8915-0.3315,10.3236-0.6471c3.0957-0.2847,6.1706-0.7955,9.2547-1.2067  c0.3325-0.0443,0.7312-0.2309,0.9874-0.1115c2.7067,1.2603,5.4204,0.2672,8.1287,0.0766c0.4007-0.0281,0.8514-0.2767,1.186-0.1593  c1.9829,0.6961,3.8796-0.0823,5.8147-0.2247c6.415-0.4727,12.8305-0.8744,19.2703-0.4094c4.7115,0.3405,9.4312,0.567,14.1469,0.849  c0.4621,0.0277,0.9223,0.0876,1.4488,0.4284c-0.5504,0.2142-1.1007,0.4281-1.9687,0.7658c1.2106,0.5306,2.1726,0.1573,3.1941,0.2987  c0.1094-0.4875,0.1929-0.8613,0.299-1.3343c0.5654-0.0305,1.1741-0.1563,1.7554-0.0784c2.6732,0.3584,5.329,0.8716,8.0101,1.1386  c2.3233,0.2313,4.6716,0.2172,7.0094,0.292c2.6325,0.0843,5.2657,0.1466,7.8987,0.2188c2.8394,0.0784,5.6881,0.0436,8.5166,0.2652  c3.4415,0.2695,6.8677,0.7422,10.2977,1.1509c4.2854,0.5103,8.4769,1.7721,12.8548,1.5753c0.6589-0.0294,1.3599,0.132,1.9912,0.3505  c3.0147,1.0435,6.1311,0.9082,9.2467,0.9382c2.1447,0.0205,4.2876,0.217,6.4312,0.3349c0.0133,0.1532,0.0266,0.3066,0.04,0.4601  c-0.3211,0.1171-0.6359,0.2588-0.9657,0.3418c-0.1903,0.0479-0.4045,0.0048-0.6079-0.0039  c-2.3555-0.1007-4.709-0.1929-6.8232,1.6643c0.0049,0.3105-0.1719,0.9382,0.0518,1.3463c1.301,2.3722,2.5853,4.8051,5.4056,5.7533  c2.038,0.6853,4.0876,1.336,6.1229,2.3483c-0.5045,0.0599-1.0087,0.1199-1.601,0.1903c1.2861,0.8435,2.488,1.6162,3.7877-0.0489  c1.2156,2.0324,2.9283,2.7567,5.219,2.4273c-0.0728,1.8343,1.1483,2.1856,2.4403,2.4818c0.527,0.1206,1.0261,0.3758,1.5557,0.4678  c1.1421,0.1983,1.6855,0.8011,1.9732,1.9679c0.5442,2.2063,2.3468,3.566,3.8604,5.0976c0.4233,0.4286,1.0638,0.7739,1.2457,1.2851  c0.5429,1.5264,1.7611,1.9604,3.1259,2.2425c3.1195,0.6451,6.2538,1.2239,9.3579,1.9351c1.3018,0.2984,2.5413,0.8682,3.8113,1.3084  c0.9548,0.3307,1.9189,0.6354,2.8686,0.9805c0.9849,0.3574,1.9574,0.7493,2.9353,1.1265c-0.021,0.156-0.042,0.312-0.0628,0.4678  c-0.6535,0.1734-1.3071,0.3469-2.1884,0.5805c0.436,0.7707,0.8093,1.4299,1.4032,2.4793c-0.9941-0.1978-1.7288-0.2127-2.3453-0.4904  c-2.1989-0.9902-4.4614-0.8175-6.7749-0.6658c-2.6855,0.1757-5.3864,0.1847-8.079,0.1501c-0.9216-0.0118-1.723-0.0743-2.3102,0.9018  c2.425,1.5503,5.4753,0.6426,7.8369,2.0409c-0.0274,0.174-0.0551,0.3479-0.0827,0.5219c-1.6328-0.1507-3.282-0.2027-4.895-0.4717  c-3.9506-0.6594-7.945-0.7166-11.901-0.519c-2.4277,0.1211-4.8358,0.1073-7.2548,0.0935c-0.3905-0.0023-1.0386,0.0289-1.1296,0.2367  c-0.4814,1.0973-1.5469,0.897-2.4042,1.2933c5.4799,0.7335,10.9826,1.1959,16.6517,2.6102  c-0.9341,0.8375-1.8008,0.6207-2.5906,0.5236c-2.5528-0.3141-5.0905-0.7788-7.6499-0.9999c-2.8964-0.2501-5.8096-0.308-8.7162-0.434  c-3.4484-0.1499-6.8969-0.328-10.3472-0.4069c-2.0211-0.0461-4.0479,0.0436-6.0686,0.1443  c-0.6243,0.031-1.2366,0.2997-1.9776,0.4914c0.503,1.1964,1.3774,1.4547,2.2039,1.591c1.8013,0.2974,3.619,0.5195,5.4381,0.6786  c3.9726,0.348,7.9504,0.637,11.9258,0.9508c1.0776,0.0853,2.1552,0.1696,3.2322,0.2606c5.3354,0.4498,10.641,1.0696,15.8527,2.3783  c1.4959,0.3755,3.0772,0.3994,4.6029,0.6761c0.4832,0.0873,1.0873,0.3574,1.3373,0.7391c1.3799,2.108,3.5445,3.0675,5.6953,4.0462  c1.3139,0.5977,1.3341,0.5529,1.6346,2.4088c-0.7473,0.0089-1.4701,0.0884-2.1764,0.0125c-1.9341-0.2083-3.7767-0.5216-5.712,0.4696  c-1.0268,0.5258-2.5082,0.2211-3.7823,0.1937c-1.6847-0.0361-3.3667-0.1993-5.0512-0.2365  c-0.4297-0.0094-1.0189,0.1194-1.2697,0.412c-0.8242,0.9615-1.8411,1.0433-2.9599,0.9134  c-1.7388-0.2019-3.4754-0.4276-5.2175-0.5936c-0.7317-0.0697-1.5075-0.1476-2.2059,0.0189  c-0.9749,0.2321-1.8703,0.8373-2.8474,1.0074c-0.8719,0.1517-1.8088-0.071-2.7829-0.1327c0.0459,0.2938,0.0141,0.5969,0.1133,0.6487  c1.4693,0.765,2.7744,1.9802,4.6223,1.7493c0.1976-0.0246,0.4668-0.0817,0.5929,0.0169c1.3548,1.0584,3.1115,1.0837,4.5908,1.8224  c2.6614,1.3289,5.403,2.2699,8.4403,2.4915c2.1326,0.1558,4.2255,0.8908,6.3291,1.3966c4.2763,1.0278,8.6309,1.8241,12.7937,3.1986  c3.0487,1.0066,5.9686,2.5794,8.7164,4.2727c2.9258,1.8028,5.5593,4.0753,8.3631,6.0832c1.715,1.2279,2.283,3.0918,3.0629,4.8637  c-1.631,0.8301-1.6922,0.8237-2.4931-0.3689c-0.2641-0.3933-0.5288-0.792-0.7373-1.2157c-0.8035-1.6335-2.032-2.384-3.9921-2.5082  c-0.348-0.0223-0.7863-0.2616-0.9969-0.5411c-1.489-1.9756-3.7416-2.6868-5.9049-3.3795c-1.3597-0.4356-2.5694-1.1094-3.8558-1.6512  c-1.3089-0.5516-2.5792-1.1957-3.8917-1.7379c-0.9228-0.3812-1.839-0.5328-2.9156-0.4793  c-1.0248,0.0507-2.5668,0.2618-3.0938-1.4347c-0.1181-0.3807-1.0118-0.5206-1.558-0.7671c-0.6123-0.124-1.2151-0.2521-1.8177-0.3802  c-0.0128,0.1337-0.0254,0.2672-0.0382,0.401c0.6287-0.0098,1.2574-0.0195,1.8862-0.0295c-0.6093,0.8877-0.6093,0.8877-2.035,0.9198  c0.1698,0.4399,0.3235,0.837,0.4844,1.253c-0.7991,0.4648-1.5295,0.6457-2.1759-0.1834c-0.0415-0.0533-0.085-0.1325-0.1393-0.1442  c-1.8857-0.4064-3.4956-1.3602-5.1161-2.3668c-0.5718-0.3551-1.5075-0.124-2.6448-0.1781c1.6502,2.3358,4.0829,2.1065,5.9324,3.0093  c-0.2673,1.8508-0.2358,1.9815,1.45,2.7498c1.082,0.4932,1.9889,1.0507,2.488,2.2336c0.2764,0.6556,0.9374,1.1419,1.3837,1.7355  c0.3416,0.4542,0.6185,0.9574,1.1304,1.7639c-1.9802-0.2313-2.3927-1.7629-3.4203-2.4918  c-1.0389-0.7368-1.9978-1.6309-3.4443-1.6942c-0.7189,1.0768-0.111,1.7601,0.6628,2.3703c2.6706,2.1063,5.7932,3.3814,8.8353,4.8122  c2.0816,0.979,4.06,2.1952,6.1834,3.0642c4.289,1.756,8.0974,4.351,12.0908,6.6261c1.9382,1.1045,3.9245,2.1244,5.8683,3.2194  c0.3697,0.2083,0.6415,0.59,0.8813,1.0243c-2.901-0.7366-5.3953-2.9286-8.7223-2.1447c-0.269,1.2206,0.9812,1.8045,1.3578,3.0301  c-0.4342-0.1404-0.7189-0.1709-0.931-0.3113c-1.0164-0.6743-1.8803-0.7875-2.894,0.1686c-0.9969,0.9398-2.9955,0.662-3.5228-0.5324  c-0.9034-2.0465-2.501-2.709-4.5132-2.8789c-0.5693-0.0482-1.1327-0.1645-1.8844-0.2775c0.6236,1.2198,2.1367,1.7576,1.898,3.3363  c-1.1819,0.0717-1.7143-0.691-2.3773-1.2077c-1.4785-1.1524-1.8124-1.1729-3.4305-0.1978  c-0.0654,2.4615,2.9063,4.0297,1.9694,6.8113c-0.1458-0.3981-0.2903-0.7847-0.4289-1.1736  c-0.9338-2.622-2.3504-4.8325-4.8573-6.2762c-1.7575-1.0122-3.3821-2.2527-5.1012-3.3352  c-0.5885-0.3705-1.2838-0.5708-2.2461-0.9846c0.2893,1.2728,0.4865,2.1406,0.6838,3.0083  c-0.1396,0.0707-0.2795,0.1412-0.4194,0.2119c-0.3843-0.5688-0.8083-1.115-1.1455-1.7101c-1.0102-1.7829-2.3729-2.923-4.4445-3.5379  c-3.1298-0.9292-6.2997-1.5646-9.4963-2.1434c-5.7323-1.0376-11.4409-2.2294-17.1982-3.1005  c-5.0113-0.7583-10.0746-1.18-15.1197-1.7027c-0.652-0.0674-1.4334-0.0289-1.9814,0.2741  c-1.2183,0.6741-2.4373,0.5849-3.7393,0.5117c-1.1921-0.0674-2.4006,0.1524-3.6751,0.6197c0.7219,0.1845,1.4349,0.421,2.1671,0.545  c5.0052,0.8464,10.0272,1.5989,15.017,2.5256c3.0608,0.5685,6.0742,1.3922,9.1701,2.4569  c-0.7045,0.1417-1.5177,0.5824-2.0947,0.3725c-2.4282-0.8831-4.9531-0.6515-7.4341-0.8936  c-4.2465-0.4143-8.4879-0.8962-12.7414-1.2218c-3.4256-0.2623-6.8656-0.3343-10.2989-0.495  c-0.4702-0.022-0.9723,0.0256-1.4022-0.1242c-0.9336-0.3259-1.7261-0.1873-2.4526,0.4596  c-0.6836,0.6087-1.4035,0.6477-2.2543,0.2967c-0.9979-0.4115-2.0273-0.2862-3.0545,0.4004  c1.2728,0.1911,2.5415,0.4153,3.8195,0.5629c0.9402,0.1089,1.8969,0.0768,2.8379,0.1816c1.2682,0.1412,2.5628,0.176,3.6078,1.1417  c0.2949,0.2723,0.869,0.2728,1.3238,0.3361c1.3345,0.186,2.6763,0.3197,4.009,0.5162c0.6877,0.1015,1.0714,0.5165,0.9884,1.5562  c-0.6264-0.0069-1.251,0.009-1.8728-0.0261c-0.9274-0.052-1.8539-0.2127-2.7792-0.2001c-3.9673,0.054-7.8987,0.561-11.9116,0.054  c-3.5242-0.4453-7.1431-0.1486-10.7201-0.1668c-3.0457-0.0156-6.0917-0.0202-9.1374-0.0115  c-0.4747,0.0013-0.9495,0.0994-1.7686,0.1914c1.3566,0.7724,3.9153,1.2208,4.8876,1.0537c0.5913-0.1014,1.2059-0.21,1.7954-0.1565  c5.5872,0.508,11.1706,1.0571,16.7568,1.5761c0.8957,0.0833,1.7995,0.0774,2.7839,0.1164  c-0.2934,1.1646-0.9856,1.1267-1.6684,1.1267c-4.5962,0.0005-9.1927,0.0428-13.7884-0.0066  c-2.365-0.0257-4.7269-0.2475-7.0922-0.319c-4.6041-0.1394-9.2099-0.3441-13.8138-0.3169  c-4.1127,0.0241-8.2232,0.3392-12.3357,0.4983c-5.3246,0.2062-10.6341,0.8688-15.9831,0.4383  c-1.0309-0.083-2.0967,0.3229-3.1523,0.4594c-0.4414,0.0571-0.8977,0.0056-1.3471-0.0049c-0.984-0.023-1.9681-0.0515-3.0464,0.2842  c0.6174,0.3341,1.2351,0.6679,2.1187,1.146c-1.1854,0.9553-2.7193,1.0855-2.9706,2.6042c-0.0259,0.1571-0.7261,0.3277-1.085,0.2795  c-0.8544-0.1145-1.6917-0.3563-2.7016-0.5844c0.2984-0.5569,0.5019-0.9361,0.7148-1.3335c-0.8347-1.2774-1.9218-1.6847-3.448-1.6281  c-6.9163,0.2569-13.7536,1.0353-20.4975,2.6242c-0.9085,0.2142-1.8977,0.0679-2.8195,0.2447  c-4.978,0.9543-9.948,1.9497-14.9172,2.9481c-2.6453,0.5314-5.2857,1.0868-7.9228,1.6568  c-0.5915,0.1276-1.1585,0.3662-1.7396,0.5445c-1.1595,0.3561-2.3214,0.7043-3.4812,1.0586  c-0.3192,0.0976-0.7043,0.123-0.9418,0.3218c-1.7424,1.4598-3.9714,1.7093-6.0151,2.2999  c-4.8117,1.3896-9.7166,2.4534-14.5424,3.7976c-2.3406,0.6523-4.6362,1.5285-6.8656,2.5016  c-2.663,1.1623-5.4043,1.7316-8.2845,1.6614c-2.1365-0.052-3.9253,0.8391-5.6828,1.8962c-1.7726,1.066-3.5714,2.0888-5.568,2.872  c0.8826-0.7996,1.7655-1.5992,3.0083-2.7252c-0.8531-0.0451-1.2495-0.1917-1.4457-0.0538  c-0.7148,0.5029-1.6189,0.9684-1.9894,1.6868c-1.2933,2.5069-3.8141,2.7526-5.9413,3.7285  c-1.1539-1.8175-1.2244-1.837-3.0372-0.9113c-0.1179,0.0602-0.2483,0.2433-0.3229,0.2188  c-2.3801-0.7876-3.4407,1.1705-4.8888,2.3257c-0.3002,0.2398-0.6382,0.4322-1.1247,0.7576  c0.5503-1.3914,1.0189-2.5761,1.5716-3.9739c-1.4153,0.1094-2.2731,0.6049-3.0101,1.3179c-0.876,0.8472-1.6963,1.7521-2.5743,2.5971  c-1.3113,1.2625-2.5943,2.5643-3.9957,3.7203c-1.4576,1.2021-3.4418,1.3158-4.9521,0.3628  c0.4181-0.1937,0.7278-0.4364,1.0617-0.4756c1.7429-0.2052,3.2168-0.8411,4.3492-2.2586c0.5867-0.7343,1.3346-1.3445,2.0381-1.9792  c0.6689-0.6031,1.7601-0.9146,1.4058-2.1766c-0.0131-0.0469,0.0443-0.1292,0.0896-0.174c1.1063-1.0904,2.1849-2.2118,3.3386-3.2499  c0.4803-0.4325,1.1211-0.6863,1.6888-1.0215c0.1012,0.123,0.2024,0.246,0.3036,0.369c-0.9005,0.798-1.801,1.5961-2.7018,2.3942  c0.0678,0.096,0.1355,0.1921,0.2031,0.2882c1.7071-0.9946,3.4139-1.9892,5.1699-3.0124c-0.1781-0.514-0.3028-0.8744-0.4891-1.4122  c1.1506-0.9028,2.3483-1.8428,3.5463-2.7828c-0.0546-0.0951-0.1091-0.1901-0.1637-0.2849c-0.4281,0.228-0.8393,0.5862-1.2892,0.6438  c-0.3746,0.0479-0.9057-0.1583-1.1552-0.4401c-0.167-0.1886-0.0925-0.8058,0.1009-1.0564c0.4433-0.5749,1.0254-1.043,1.5262-1.5302  c-1.4291,0.3243-2.9865,0.6773-4.5439,1.0306c-0.0623-0.1363-0.1248-0.2723-0.1871-0.4086c0.743-0.9192,1.6092-1.7137,2.6935-2.2653  c3.4966-1.7796,7.0329-3.4856,10.4811-5.3541c1.4073-0.7624,2.6619-1.8272,3.9145-2.8425c0.4138-0.3354,0.6036-0.9472,0.95-1.5226  c-1.7647,0.632-3.3478,1.0868-4.8296,1.7632c-1.3446,0.6136-2.5759,1.4741-3.8648,2.2128c-0.2736,0.157-0.5798,0.2572-1.0481,0.4606  c0.0351-1.2169,0.8672-1.4381,1.541-1.7867c1.4409-0.7453,2.9012-1.4553,4.3211-2.2387c0.2826-0.1558,0.4196-0.5752,0.734-1.0338  c-1.8103-0.4496-3.0657,0.3625-4.3444,1.0435c-2.7626,1.4711-5.2647,3.2814-7.46,5.5352c-0.5142,0.5278-1.3558,0.7371-2.2246,1.1847  c-0.113-0.7143-0.1791-1.1329-0.2721-1.7214c-4.7551,3.1917-10.322,3.8566-15.4673,6.2285  c-0.2731-1.3715-1.2818-1.6215-2.2448-1.7143c-0.6843-0.0661-1.4652,0.0994-2.0965,0.3912  c-2.2079,1.0207-4.3649,2.1508-6.5539,3.213c-0.3197,0.1551-0.7094,0.1663-1.0665,0.244c-0.0648-0.134-0.1297-0.268-0.1945-0.402  c1.2208-0.7481,2.3819-1.6272,3.6752-2.2162c2.3281-1.0604,4.742-1.9309,7.1067-2.9132c1.3412-0.5572,1.5875-1.3317,1.0702-3.2479  c2.067-1.9353,5.1053-2.4134,7.1831-4.4922c-2.2851-0.281-4.2914,1.4022-6.395,1.0328c-2.2679-0.3984-4.1536,1.043-6.3479,0.7909  c-0.4919-1.0443,0.0082-1.5372,0.9082-1.8142c0.9695-0.2985,1.9945-0.4665,2.9094-0.8808c2.4034-1.0881,4.7597-2.2802,7.1357-3.4287  c0.7163-0.3462,1.4355-0.6861,2.2392-0.9021c-1.1391,1.6737-3.5837,1.8826-4.2609,3.9488c0.8122,0.0448,4.2496-0.8439,5.2652-1.2551  c1.8131-0.734,3.6649-1.3712,5.4947-2.0645c0.5011-0.1898,0.9943-0.4099,1.4691-0.6579c4.1894-2.1879,8.4003-4.3372,12.5486-6.6005  c2.0625-1.1252,4.0009-2.4762,6.011-3.6998c0.456-0.2774,0.9815-0.4386,1.4647-0.6745c0.7107-0.3474,1.4119-0.7138,2.0545-1.0402  c-0.421-0.7568-0.7589-1.3648-1.0968-1.9728c-0.1258,0.0357-0.2516,0.0713-0.3777,0.1069  c-0.0566,0.3781-0.1135,0.7563-0.2008,1.3366c-3.5545,1.9784-7.2471,4.0651-10.972,6.0927  c-1.6556,0.901-3.3668,1.7022-5.0738,2.5033c-0.4051,0.1901-0.9203,0.3382-1.3425,0.2641  c-1.7317-0.3036-1.8908-0.3348-3.3263,0.1417c0.4476-1.4826,3.2402-1.2472,2.3374-3.5207  c-0.6726,0.2508-1.3963,0.4269-2.0271,0.7725c-2.4769,1.3576-4.939,2.7434-7.3704,4.1806  c-0.4962,0.2934-0.8552,0.8368-1.2407,1.2959c-0.4461,0.5311-0.8985,0.8022-1.6671,0.1394c1.0196-1.2324,2.0224-2.4442,3.0252-3.656  c-0.0564-0.0943-0.113-0.1886-0.1696-0.2828c-1.3697,0.6633-2.7475,1.3102-4.1067,1.9942  c-1.3829,0.6961-2.8235,1.3151-4.1017,2.1726c-1.7939,1.2034-3.4792,2.573-5.175,3.9168c-1.0222,0.8098-2.0829,1.2136-3.5568,0.6425  c0.3507-0.3533,0.6156-0.6866,0.9461-0.9318c0.2652-0.1967,0.6444-0.2385,0.9139-0.4317c2.7862-1.9988,5.5618-4.0126,8.3347-6.0302  c0.2142-0.156,0.5839-0.437,0.547-0.548c-0.4553-1.3589,0.8734-1.8215,1.4306-2.6647c-0.6379-1.0924-1.5252-0.8788-2.3573-0.6461  c-0.6479,0.1811-1.2531,0.5113-1.8856,0.7529c-1.0815,0.413-2.105,0.7153-3.326,0.2073c-0.7351-0.3062-1.7002-0.0597-2.7421-0.0617  c-0.103-0.2035-0.2949-0.544-0.4517-0.9001c-0.3838-0.8711-0.2867-1.5449,0.6961-1.9845c0.8403-0.3764,1.404-1.0294,1.4947-2.1416  c-1.1524-0.1363-2.291-0.6197-2.9207,0.9018c-0.0733,0.1768-0.4517,0.2975-0.6997,0.3198c-1.311,0.1176-2.6253,0.1952-4.0377,0.2938  c0.1007-0.1867,0.1442-0.4173,0.2654-0.4701c2.7836-1.2146,5.5567-2.4564,8.3726-3.5922c1.868-0.7534,3.8002-1.3478,5.7023-2.0175  c2.3637-0.8319,4.7379-1.6361,7.0839-2.5154c1.2046-0.4514,2.3463-1.054,2.9998-2.746c-1.7247,0.9946-3.0564-0.1883-4.4778-0.2003  c-1.9441-0.0167-3.8914,0.4135-5.8386,0.6415c-0.994,0.1166-1.9909,0.2101-3.1592,0.3321c0.0441-0.5655,0.0728-0.9344,0.1179-1.5109  c-2.2717-0.602-4.4507,0.5076-6.8298,0.4779c0.3551-0.9726,1.1678-1.0751,1.8969-1.2641c1.7614-0.4568,3.5299-0.886,5.2916-1.3418  c0.2354-0.0607,0.4481-0.2095,0.8605-0.4096c-1.2102-1.0527-2.4162-1.0297-3.6746-0.803c-0.5842,0.1053-1.1747,0.1732-1.7596,0.2744  c-0.3192,0.0551-0.806,0.0421-0.9205,0.2352c-0.9359,1.581-2.6786,0.9859-3.9991,1.4927c-0.818,0.3138-1.4649-0.4328-1.9973-1.2536  c0.2798-0.2857,0.5001-0.712,0.8139-0.7986c2.2807-0.6297,4.564-1.2743,6.8823-1.7317c0.8745-0.1726,1.8439,0.1376,2.7767,0.2273  c0.5842,0.1642,1.1529,0.3781,1.7409,0.4819c0.8401,0.1483,1.6784,0.1745,2.3122-0.8726  C26.3966,77.0017,25.1714,77.8641,23.881,77.9463z M179.7384,101.3051c2.9161-0.0748,5.8306-0.1709,8.7231-0.619  c-2.6888-0.1048-5.3633,0.039-8.0352,0.2198c-0.2275,0.0154-0.4383,0.2773-0.6699,0.4123  c-1.6907-0.6513-3.3391-0.0784-4.9952,0.2536C176.4204,101.4829,178.0793,101.394,179.7384,101.3051z M301.859,86.1078  c-1.8954-4.3064-7.5233-5.3597-11.2608-3.8514c0.3272,0.2198,0.5744,0.4757,0.8729,0.5716  c1.8492,0.5936,3.7154,1.1349,5.5654,1.7273c0.9951,0.3187,2.1078,0.2761,2.9094,1.2202  C300.2193,86.0976,301.0104,85.9802,301.859,86.1078z M289.5624,77.2238c-1.4247-1.6911-3.0206-2.5197-5.0095-2.3916  c-1.6017,0.1033-3.0331-0.2093-4.3572-1.1611c-0.4765-0.3428-1.1185-0.8121-1.9924,0.0546  C281.602,76.3028,285.4998,76.661,289.5624,77.2238z M64.3688,108.7388c3.4115-0.1812,5.4411-1.1378,7.1656-3.4165  C69.0221,106.3825,66.301,106.5103,64.3688,108.7388z M19.8051,44.5581c1.5536,0.0779,2.9276,0.1716,4.3031,0.1996  c0.3756,0.0074,0.8122-0.0976,1.1209-0.3021c0.59-0.3902,1.108-0.8887,1.8989-1.5433  C24.2355,42.2666,22.1741,43.9107,19.8051,44.5581z M42.4995,27.6215c-4.5493,2.1298-5.5137,2.8607-6.1375,4.5624  C38.7211,31.1765,41.1791,29.4082,42.4995,27.6215z M43.976,82.1721c2.2195-0.8119,4.4389-1.6238,6.6586-2.4357  c-0.0522-0.1373-0.1042-0.2746-0.1562-0.4122C48.1047,79.731,45.744,80.1719,43.976,82.1721z M35.9062,109.1558  c1.4978,0.0731,2.5203-0.6871,3.6301-1.8256C37.6637,107.036,36.8388,108.2133,35.9062,109.1558z M79.2773,103.2945  c1.7283,0.3702,2.7603,0.0213,3.9813-1.1334C81.8872,102.5515,80.5824,102.923,79.2773,103.2945z M31.178,79.0816  c-0.0638-0.1458-0.1278-0.2916-0.1916-0.4371c-0.2839-0.0935-0.5859-0.2967-0.8467-0.2529  c-0.3272,0.0548-0.6375,0.2898-0.9126,0.5019c-0.0523,0.0405,0.0638,0.4712,0.1524,0.4904c0.2844,0.0617,0.5993,0.053,0.8888-0.0008  C30.5796,79.3252,30.8755,79.1856,31.178,79.0816z M29.626,82.0353c-0.0459-0.1302-0.092-0.2606-0.1379-0.3907  c-1.9909,0.1547-1.9909,0.1547-3.2204,1.2036C27.6819,82.5059,28.654,82.2705,29.626,82.0353z M21.443,95.5755  c1.5021,0.1959,1.5023,0.1952,2.2494-1.0802C22.8669,94.8917,22.26,95.1832,21.443,95.5755z M48.5584,25.0374  c1.363,0.3275,1.363,0.3275,2.1282-0.599C49.9429,24.6478,49.4546,24.7851,48.5584,25.0374z M58.1662,108.0947  c0.0945,0.1468,0.189,0.2933,0.2836,0.4401c0.5218-0.3246,1.0437-0.6489,1.5656-0.9735c-0.062-0.0977-0.124-0.1955-0.186-0.2934  C59.275,107.5436,58.7206,107.8192,58.1662,108.0947z M172.4839,101.5675c-0.0034-0.0684-0.0067-0.1366-0.0103-0.205  c-0.5588,0.0056-1.1173,0.011-1.676,0.0166c0.0082,0.1261,0.0161,0.2519,0.0243,0.3779  C171.3758,101.694,171.93,101.6307,172.4839,101.5675z M61.3172,109.9242c0.9676,0.0469,0.9676,0.0469,1.5343-0.6518  C62.2769,109.5166,61.797,109.7205,61.3172,109.9242z M278.7267,46.0907c0.001,0.0932,0.002,0.1865,0.003,0.2797  c0.433,0.0141,0.866,0.0282,1.2992,0.0426c0.0005-0.1245,0.0013-0.2488,0.0021-0.3733  C279.5962,46.0569,279.1614,46.0738,278.7267,46.0907z M207.1183,100.6024c-0.0087-0.1827-0.0172-0.3656-0.0257-0.5483  c-0.374,0.0817-0.7478,0.1632-1.1216,0.2449c0.0207,0.1312,0.0415,0.2626,0.0623,0.394  C206.3948,100.6628,206.7565,100.6326,207.1183,100.6024z M47.6174,119.8489c0.1355,0.1463,0.2708,0.2925,0.4063,0.4391  c0.2936-0.2859,0.5872-0.5718,0.8808-0.8575c-0.1019-0.1143-0.2039-0.2285-0.3061-0.3428  C48.2715,119.3416,47.9443,119.5952,47.6174,119.8489z M164.6913,102.106c0.0095,0.1112,0.0187,0.2226,0.0279,0.3341  c0.3948-0.0538,0.7896-0.1076,1.1844-0.1617c-0.0079-0.0817-0.0156-0.1634-0.0235-0.2452  C165.4837,102.0576,165.0876,102.0816,164.6913,102.106z M14.3583,68.8374c-0.019-0.1053-0.0377-0.2109-0.0564-0.3162  c-0.3172,0.0559-0.6346,0.1117-0.9518,0.1679c0.0197,0.1053,0.0392,0.2106,0.0589,0.3161  C13.7254,68.9494,14.0418,68.8932,14.3583,68.8374z M35.5837,82.4101c0.0489,0.1378,0.0978,0.2754,0.147,0.4133  c0.3118-0.1007,0.6239-0.2014,0.9359-0.3021c-0.0302-0.1107-0.0604-0.2211-0.0907-0.3315  C36.2452,82.263,35.9144,82.3366,35.5837,82.4101z M41.5659,113.8187c-0.0837-0.1199-0.1678-0.2398-0.2518-0.3597  c-0.2657,0.0971-0.5314,0.1942-0.7973,0.2913c0.0973,0.1452,0.1947,0.2903,0.2921,0.4355  C41.0612,114.0634,41.3136,113.9411,41.5659,113.8187z M26.1424,94.0787c-0.0973-0.1662-0.1947-0.3328-0.2923-0.4993  c-0.2231,0.1386-0.4465,0.2772-0.67,0.4158c0.0977,0.1394,0.1955,0.279,0.2931,0.4184  C25.6964,94.3021,25.9195,94.1904,26.1424,94.0787z M295.2124,79.9503c-0.1963,0.0192-0.3136,0.0308-0.431,0.0423  c0.0667,0.1427,0.1064,0.3123,0.2112,0.4168c0.0525,0.0523,0.2236-0.0143,0.341-0.0271  C295.2921,80.2342,295.2503,80.0859,295.2124,79.9503z M68.7111,88.8392c0.0789-0.1202,0.1657-0.2521,0.2526-0.3843  c-0.1102-0.041-0.2554-0.1461-0.3233-0.1089c-0.1322,0.072-0.2209,0.2237-0.3277,0.3425  C68.4226,88.73,68.5323,88.7715,68.7111,88.8392z" fill="#222222" />
	</g>
</svg>
