<?xml version="1.0"?>
<svg version="1.1" id="XMLID_1_" xmlns="http://www.w3.org/2000/svg" xmlns:xlink="http://www.w3.org/1999/xlink" x="0px" y="0px" viewBox="0 0 274.9126 162.5806" enable-background="new 0 0 274.9126 162.5806" xml:space="preserve">
	<g id="P">
		<path id="_x32_4.2brush13" d="M87.4951,12.6945c0.1171-0.0046,0.2636-0.0574,0.3474-0.0066  c1.499,0.9054,2.8641,0.4163,4.2478-0.3259c0.4489-0.2408,1.0217-0.2388,1.5203-0.4015c0.9948-0.3248,1.9799-0.6799,2.9642-1.0361  c0.4945-0.1788,0.9682-0.4191,1.4683-0.5774c2.8461-0.9019,5.7069-1.7576,8.544-2.6863c2.8328-0.9274,5.5627-2.1972,8.5781-2.4969  c0.1719-0.0172,0.3654-0.0548,0.5027-0.1499c2.2433-1.5541,4.9016-1.9056,7.4585-2.4436c4.2965-0.9042,8.6291-1.6448,12.9624-2.3583  c1.4847-0.2445,2.9914-0.1205,4.5235,0.0269c2.3066,0.2221,4.6674-0.0608,7.0007-0.203c0.9894-0.0604,1.8776-0.0814,2.8919,0.2427  c1.3538,0.4324,2.8966,0.5354,4.3275,0.4153c4.9828-0.4189,9.9593-0.3697,14.9472-0.2022c2.8123,0.0946,5.6364-0.1109,8.4457,0.0215  c4.0346,0.1904,8.0603,0.5709,12.0906,0.8604c1.7536,0.126,3.5137,0.1814,5.2628,0.352c2.5643,0.25,5.122,0.5698,7.6806,0.8749  c0.2772,0.0333,0.5427,0.1668,0.8588,0.2682c-0.176,1.1268-0.8444,0.9106-1.5628,0.7968c-2.1892-0.3461-4.381-0.7027-6.5849-0.9202  c-1.9176-0.1894-3.8542-0.1753-5.7803-0.287c-2.3807-0.1378-4.7592-0.3126-7.1557-0.209c4.0316,0.6484,8.0629,1.2968,12.0944,1.9453  c0.0133,0.0766,0.0267,0.1532,0.04,0.2298c-0.2685,0.0745-0.5473,0.2377-0.804,0.2088c-1.5033-0.1696-2.9983-0.4153-4.5027-0.5749  c-1.5736-0.1673-3.1523-0.3123-4.7328-0.3866c-3.8627-0.1814-7.7272-0.321-11.5915-0.4671  c-1.3876-0.0522-2.6545,0.2824-3.7333,1.4107c-0.6938-1.0996-1.694-1.1888-2.789-1.1168c-0.8754,0.0574-1.7591-0.0223-2.6389-0.0146  c-0.5121,0.0046-1.023-0.0638-1.3202,0.6c-0.1178,0.2629-0.6584,0.3935-1.0302,0.4722c-0.6269,0.1332-1.2902,0.1153-1.9025,0.2874  c-0.2587,0.0728-0.5324,0.4415-0.599,0.723c-0.0415,0.1766,0.2432,0.5422,0.4637,0.6433c0.36,0.165,0.784,0.2276,1.1865,0.257  c4.5522,0.3341,9.1007,0.8032,13.6593,0.9421c6.6358,0.2021,13.2163,0.9676,19.8104,1.6058  c2.7406,0.2655,5.494,0.5406,8.1912,1.0684c2.3343,0.4568,4.6004,1.2671,6.8882,1.9486c0.3259,0.0969,0.6436,0.3062,0.9001,0.5358  c1.8067,1.6176,4.0033,2.3936,6.3063,2.9163c1.6323,0.3704,3.3165,0.5444,4.918,1.0109c3.4108,0.9938,6.7837,2.1191,10.1689,3.2  c0.1452,0.0464,0.2598,0.1893,0.6123,0.4576c-1.5864-0.0029-2.8392-0.3203-4.1069-0.6954c-1.0504-0.3107-2.1531-0.4962-3.2453-0.591  c-0.4786-0.0418-1.044,0.1914-1.4736,0.4563c-0.9088,0.5608-0.9219,1.3214-0.0403,1.9576c0.4668,0.3369,1.0348,0.5383,1.5672,0.7783  c0.3551,0.1599,0.7281,0.2801,1.2431,0.4748c-0.445,0.4253-0.7835,0.7155-1.0837,1.0412c-1.3138,1.4249-1.1706,3.1056,0.2792,4.403  c0.8519,0.762,1.7747,1.2687,2.8915,1.5544c0.8232,0.2108,1.5682,0.7155,2.3614,1.0589c2.9478,1.2751,5.9026,2.5345,8.8515,3.8071  c0.662,0.2856,1.0337,0.7004,1.2912,1.4834c0.5536,1.6822,2.0099,2.7221,3.5171,3.4554c1.788,0.8698,3.6186,1.6207,5.2298,2.8246  c0.3807,0.2843,0.9672,0.3069,1.4662,0.4155c0.6877,0.1496,1.4158,0.2288,1.4258,1.4519c-0.5734,0.0167-1.1178,0.0976-1.6448,0.0338  c-1.0714-0.1296-2.1039-0.2121-3.0129,0.5473c-0.1681,0.1401-0.4289,0.2177-0.6533,0.2336  c-1.4773,0.1038-2.0612,1.0387-2.4539,2.3435c-0.5198,1.7275,0.0497,3.1366,1.6878,3.8204  c0.9646,0.4028,1.8975,0.8814,2.9159,1.3594c-0.1599,0.5117-0.2726,0.8729-0.4364,1.3966c0.9651,0.5234,1.9451,1.055,2.9251,1.5864  c-0.0346,0.1276-0.0692,0.2551-0.1038,0.3827c-0.8073-0.0538-1.6146-0.1078-2.416-0.1611c-0.148,1.5577-0.0809,1.7173,1.1127,2.098  c1.3384,0.4268,2.6986,0.7842,4.0441,1.1883c0.3116,0.0935,0.6031,0.2538,1.1668,0.4967c-0.5534,0.1783-0.8219,0.3469-1.083,0.3356  c-1.8723-0.0801-3.7443-0.1788-5.6138-0.3084c-1.3909-0.0966-2.7757-0.3085-3.8874,0.8905  c-0.1862,0.2009-0.6548,0.2306-0.9766,0.1942c-0.5198-0.0589-1.0291-0.2277-1.5377-0.3689c-1.8093-0.5032-2.326-0.2841-3.183,1.4258  c-0.5386-0.1007-1.0999-0.2055-1.6612-0.3106c-0.0193,0.081-0.0385,0.162-0.0577,0.2429c1.8851,0.4755,3.7592,1.0005,5.6577,1.4158  c3.8309,0.838,7.6865,1.5654,11.5103,2.4331c3.8266,0.8685,7.6299,1.8408,11.4367,2.7944c0.9654,0.2418,1.9387,0.5093,2.8444,0.91  c0.5262,0.2329,0.9249,0.754,1.3812,1.1455c-0.0487,0.1455-0.0977,0.291-0.1463,0.4365c-0.6559,0.0098-1.3287,0.1182-1.9643,0.0093  c-1.4445-0.2473-2.8643-0.6351-4.3062-0.8995c-0.8934-0.1638-1.8301-0.3595-2.6458,0.2554c0.0579,0.8787,0.7002,0.9305,1.252,1.0883  c2.4657,0.7048,4.9339,1.4007,7.3963,2.117c0.4286,0.1248,0.8332,0.3318,1.4629,0.588c-0.6859,0.5444-1.178,0.9354-1.8367,1.4585  c0.7817,0.4466,1.3461,0.7689,1.9105,1.0912c-0.02,0.0822-0.04,0.1642-0.06,0.2464c-0.5951-0.0397-1.1905-0.1145-1.7854-0.1101  c-0.6931,0.0051-1.3917,0.0351-2.0763,0.1347c-0.9139,0.133-1.2935,0.7246-1.1885,1.6308c0.0202,0.1739,0.0981,0.343,0.1058,0.5162  c0.1051,2.3091,0.1358,2.345,2.3632,3.1531c0.6554,0.2377,1.2964,0.5152,1.6674,0.6635c0.1772,0.8967,0.1573,1.6569,0.4847,2.212  c0.3305,0.5601,1.0053,0.9172,1.6335,1.4519c-0.5019,0.1753-0.9753,0.3234-1.4355,0.5055  c-0.6917,0.2739-1.2523,0.6246-1.1073,1.5459c0.0461,0.2946-0.0702,0.7297-0.2774,0.9262  c-0.5181,0.4914-1.1829,0.9213-0.9913,1.7245c0.1512,0.6333,0.5393,1.2097,0.8862,1.9476c-0.5977,0.1276-1.209,0.2677-1.8244,0.3871  c-1.4888,0.2885-1.9059,0.7848-1.9456,2.4849c-0.6774-0.0133-1.3637-0.0415-2.0498-0.0369c-1.57,0.0103-3.141,0.0082-4.7092,0.0692  c-0.6849,0.0266-0.9618,0.559-1.1381,1.1698c-0.1616,0.5606-0.1911,1.1188,0.3659,1.3937c0.7755,0.3828,1.6046,0.6718,2.4344,0.9221  c0.4168,0.1253,0.8859,0.0761,1.4119,0.2685c-0.7645,0.6146-1.8436,0.8544-1.7639,2.1239c0.0118,0.1867-0.796,0.425-1.3894,0.7219  c1.2098,1.0694,2.5113,1.4048,3.7877,1.7453c1.0742,0.2867,2.1966,0.3917,3.2704,0.6792c1.4782,0.3958,2.9096,0.8629,3.3877,2.6404  c0.112,0.4168,0.6479,0.8318,1.087,1.0263c0.9595,0.4248,1.9828,0.7051,2.9781,1.0494c0.3039,0.105,0.6023,0.2262,0.9034,0.3402  c-0.0346,0.1174-0.0689,0.2347-0.1033,0.3521c-1.5479-0.4069-3.0949-0.8171-4.6436-1.2196  c-1.7568-0.4563-3.5061-0.9482-5.2772-1.3404c-0.9131-0.2021-1.8272-0.1663-2.7375,0.2846c-1.581,0.783-3.2381,0.0613-4.8611,0.0602  c-0.6954-0.0005-1.3876-0.2252-2.0865-0.2946c-0.6549-0.0648-1.331-0.3994-1.9333,0.3095  c-0.1778,0.2091-0.7817,0.0989-1.1847,0.0664c-1.4621-0.1179-2.9204-0.2826-4.3828-0.3946  c-0.9349-0.0712-1.8746-0.1076-2.8121-0.1086c-0.6586-0.0008-1.2915,0.1245-1.5108,0.9966  c0.8068,0.8467,1.8975,1.0971,2.9591,1.3379c3.4872,0.7919,6.9915,1.5095,10.4771,2.3083c2.283,0.5235,4.5424,1.1476,6.8172,1.7079  c0.9193,0.2265,1.8508,0.4035,2.7485,0.7478c-3.6208,0.2898-7.1792-0.0971-10.8716-0.8444  c0.8468,1.3689,2.6307,0.1068,3.3299,1.7967c-1.3825-0.1906-2.6163-0.3605-4.0062-0.5521  c-0.2214-0.2964-0.5219-0.6992-0.8168-1.0947c-0.2493,0.0632-0.4796,0.0499-0.5718,0.1565  c-0.6275,0.7261-1.385,0.6915-2.2505,0.5613c-2.0112-0.302-4.0064-0.8936-6.0847-0.3781c-0.4184,0.1037-0.9236-0.0876-1.3776-0.1917  c-4.0101-0.9161-8.0483-1.6568-12.1734-1.7267c-1.738-0.0295-3.4792,0.1055-5.2124,0.282  c7.5152,1.4719,15.0856,2.4562,22.5982,3.8197c-2.7101,1.0522-5.3467,0.0874-8.0988,0.0505c0.3067,0.1947,0.5888,0.4791,0.9234,0.57  c3.1635,0.858,6.3355,1.6856,9.5065,2.5175c2.0284,0.5321,4.08,0.9873,6.082,1.605c1.79,0.5522,3.3549,1.5413,4.763,2.8088  c0.4906,0.4414,1.2062,0.7473,1.8646,0.8685c2.9381,0.5406,5.8921,0.9969,8.842,1.4719c0.6663,0.1073,1.4034,0.0409,1.8956,1.044  c-3.4487-0.3505-6.6753-1.1729-10.0587-0.7627c-0.0955,0.4304-0.1788,0.8067-0.2695,1.2149  c-0.1517,0.0343-0.3328,0.1368-0.4763,0.0986c-1.5244-0.4048-3.0295-0.8893-4.5657-1.239c-2.0522-0.4668-4.122-0.8613-6.1934-1.2379  c-4.7266-0.8596-9.4487-1.7527-14.1925-2.509c-3.2319-0.5152-6.4931-0.8611-9.7486-1.2141  c-6.7096-0.7276-13.4413-1.0661-20.1917-0.9915c-0.2697,0.0028-0.5387,0.0492-1.025,0.0963  c0.6684,0.9157,1.4437,0.7033,2.1498,0.7484c3.7848,0.2423,7.5689,0.5003,11.3514,0.9264  c-1.4701,0.5547-2.9148,0.8675-4.4927,0.7717c-3.0331-0.1837-6.1227-0.5283-9.1082-0.1566  c-4.9185,0.6121-9.8265,0.2685-14.734,0.463c-0.9831,0.0389-1.963,0.1578-2.9443,0.2398c-0.0092,0.1245-0.0184,0.249-0.0274,0.3735  c2.0363,0.2695,4.0672,0.7099,6.1099,0.7737c4.5675,0.143,9.1412,0.1163,13.7123,0.1225c2.7539,0.0038,5.5116-0.1627,8.2614-0.0694  c3.9204,0.1334,7.8369,0.4096,11.7517,0.6745c2.2192,0.1502,4.4286,0.4443,6.6481,0.5903c1.6184,0.1069,2.985,0.7271,4.3154,1.6699  c-0.1852,0.0866-0.2992,0.1909-0.3748,0.1678c-2.6601-0.8062-5.4045-0.9041-8.1528-1.0714  c-2.8515-0.1739-5.6915-0.5311-8.5379-0.7947c-0.9223-0.0853-1.8592-0.3-2.7,0.381c-0.1825,0.1475-0.5555,0.1006-0.836,0.0791  c-1.6953-0.1296-3.3865-0.3525-5.0835-0.4055c-4.5102-0.1407-9.0224-0.2898-13.5338-0.2849  c-4.0413,0.0041-8.0836,0.1814-12.1234,0.3364c-1.972,0.0758-3.9391,0.2751-5.9215,0.7417  c0.9051,0.1037,1.8085,0.2782,2.7154,0.2979c2.7562,0.06,5.5237-0.0815,8.2676,0.1189c3.5135,0.2562,7.0173,0.0994,10.5247,0.1478  c6.7967,0.0943,13.5901,0.4517,20.384,0.7279c1.8057,0.0735,3.6081,0.239,5.4105,0.3817c0.4516,0.0359,0.8972,0.1478,1.3209,0.4894  c-2.697,0.0084-5.394,0.0169-8.1266,0.0256c-0.4533,0.6802-0.2104,1.1449,0.456,1.3671c0.4922,0.1642,1.0435,0.251,1.5605,0.2236  c1.9899-0.1058,3.9327,0.0433,5.8027,0.9052c0.0082,0.2851-0.6608,0.7796,0.1094,1.0056c0.7832,0.23,1.5997,0.3517,2.4057,0.4978  c0.5455,0.0989,1.0981,0.1578,1.6476,0.2346c0.0108,0.1512,0.0215,0.3021,0.0323,0.4533c-0.6241,0.1368-1.2482,0.2736-2.065,0.4527  c-0.055,0.4811-0.117,1.0209-0.1872,1.633c-1.7835-0.1191-3.5781-0.2388-5.3728-0.3587c-0.0251,0.1091-0.0502,0.2183-0.0751,0.3274  c0.8975,0.2173,1.7975,0.4261,2.6924,0.6539c0.9549,0.2428,1.9051,0.5036,2.8689,1.0299c-0.2738,0.0768-0.5605,0.2503-0.8195,0.2157  c-3.1959-0.4279-6.3874-0.8882-9.5809-1.3338c-0.4056-0.0563-0.8165-0.106-1.2251-0.1068  c-3.6299-0.0057-7.2636-0.0961-10.8888,0.0369c-2.3875,0.0876-4.762,0.5134-7.1444,0.7678  c-3.8404,0.4102-7.675,0.8603-11.5544,0.7689c-1.2136-0.0287-2.4331,0.2972-3.6539,0.4212  c-0.8595,0.0873-1.7526,0.2661-2.5845,0.127c-2.3148-0.3868-4.5909-0.5405-6.9195-0.0381  c-0.8867,0.1913-1.8915,0.0945-2.7933-0.0989c-1.6973-0.3644-3.3762-0.1243-5.0666-0.1461  c-2.0481-0.0264-4.081-0.1429-6.1217,0.1681c-4.0005,0.6092-8.0206,1.0991-12.0111,1.765  c-5.5516,0.9264-11.0827,1.9742-16.6254,2.9547c-0.561,0.0994-1.1406,0.0935-1.9438,0.1537  c0.5447-1.0066,1.3764-1.0939,2.0988-1.2687c1.3097-0.3166,2.6353-0.5756,3.9635-0.8062c4.7932-0.8327,9.5918-1.6336,14.3846-2.4701  c1.0273-0.1793,2.0375-0.4562,3.3505-0.7552c-1.6358-0.5368-3.0013-0.2227-4.341-0.1307c-6.633,0.4566-13.111,1.8249-19.5527,3.3977  c-3.9288,0.9592-7.8815,1.8249-11.7908,2.8569c-5.382,1.4206-10.7545,2.8861-16.0912,4.4676  c-4.8293,1.4312-9.6041,3.0463-14.4046,4.5755c-3.071,0.9782-6.1431,1.9525-9.2191,2.9153  c-0.3873,0.1214-0.8075,0.2577-1.1995,0.2262c-2.3742-0.1911-4.4568,0.8107-6.6281,1.5034  c-2.2864,0.7294-4.5981,1.4037-6.9356,1.9415c-1.9356,0.4453-3.9401,0.5846-5.8855,0.9956  c-1.4275,0.3015-2.8228,0.7819-4.2055,1.2605c-1.0668,0.3692-2.0703,0.8393-3.1259-0.0538  c-0.2247-0.1898-0.6702-0.1189-0.9963-0.1655c-0.2977-1.4555,0.1688-2.283,1.4793-2.6589c0.4478-0.1283,0.943-0.1442,1.3496-0.3463  c0.2954-0.1471,0.4807-0.5163,0.8921-0.9905c-1.7475-0.2244-2.8141,0.8178-4.0848,1.0507  c-1.3202,0.2418-2.6632,0.3581-3.9947,0.5411c-1.3066,0.1798-2.5513,0.8539-4.0057,0.5429  c0.0779-0.7817,0.6479-0.8422,1.1321-0.8499c2.2976-0.0363,4.3314-0.9781,6.3894-1.8228c1.282-0.526,2.3486-1.4645,3.7961-1.7281  c1.0048-0.1829,1.0146-0.5621,0.5263-2.0468c0.8698-0.6512,1.7332-1.2976,2.5968-1.9438c-0.0412-0.0817-0.0822-0.1632-0.1232-0.2446  c-1.1032,0.1119-2.2284,0.1232-3.304,0.3599c-1.5397,0.3392-2.7311,0.0574-3.6429-1.3153  c-0.2652-0.3989-0.8091-0.6123-1.2182-0.9054c0.6377-0.4776,1.3473-1.0092,2.0573-1.5408c-0.0556-0.1086-0.111-0.2175-0.1666-0.3261  c-1.9817,0.603-3.9626,1.211-5.9868,1.5994c-0.0474-0.125-0.0948-0.2498-0.1422-0.3748c0.2049-0.1414,0.3914-0.352,0.6182-0.4133  c1.8889-0.5101,3.597-1.376,5.206-2.4805c0.3594-0.247,0.8662-0.2813,1.3074-0.4066c1.374-0.3902,2.11-1.1772,2.2983-2.5625  c-1.3502-0.0082-2.4785,0.5752-3.5863,1.1875c-3.3449,1.849-6.7703,3.4513-10.5567,4.2463  c-1.7488,0.3673-3.6093,0.2685-5.2559,1.1723c-0.2754,0.1514-0.7978-0.0297-1.1593-0.1739  c-1.3392-0.534-1.3197-0.5422-2.2623,0.5895c-0.3569,0.4283-0.7842,0.798-1.2602,1.2753c-1.0889-2.0293,0.7148-3.5373,0.6466-5.4627  c-2.179,0.5199-3.7121,1.6141-5.0276,3.1336c0.259-1.0517,0.6538-1.965,1.645-2.4902c1.3453-0.713,2.6911-1.4255,4.0282-2.1537  c2.3622-1.2863,4.8356-2.3872,6.8813-4.2001c0.3869-0.3428,0.8726-0.5972,1.3489-0.8121c3.7423-1.6874,7.4974-3.3458,11.2398-5.0334  c1.8169-0.8195,3.6336-1.645,5.4083-2.5502c0.4781-0.2439,0.9995-0.7271,1.1522-1.2105c0.258-0.817,0.796-1.1716,1.5016-1.291  c3.2555-0.5503,5.8749-2.5989,8.885-3.7267c1.2451-0.4665,2.4193-1.1224,3.5586-1.9978c-0.2828,0.0079-0.5941-0.0595-0.8442,0.0353  c-3.729,1.4112-7.449,2.8451-11.1726,4.2704c-1.5864,0.6074-3.1718,1.2174-4.7661,1.8041  c-0.4258,0.1566-0.9979,0.4051-1.1703-0.2411c-0.0689-0.258,0.2926-0.6848,0.5431-0.9561c0.1858-0.2011,0.4999-0.3003,0.7727-0.402  c2.3038-0.8585,4.6283-1.6643,6.9128-2.5709c2.1741-0.8627,4.3039-1.836,6.4604-2.7437c0.971-0.4089,1.9525-0.7947,2.9411-1.1583  c1.27-0.4668,2.4531-1.0483,3.2182-2.4231c-0.4561,0.1235-0.9375,0.1898-1.3638,0.3802c-1.8708,0.8349-3.6757,1.8449-5.5972,2.5328  c-3.4198,1.2244-6.9051,2.2653-10.3682,3.3675c-0.1924,0.0612-0.4299-0.0192-1.0317-0.0592  c1.8616-1.7855,4.1963-2.2459,6.1893-3.8515c-0.6851-0.0458-1.0156-0.147-1.302-0.0743c-2.0911,0.5311-4.1914,1.0392-6.2528,1.6712  c-1.6172,0.4958-3.1877,1.1468-4.7707,1.7506c-1.478,0.5639-2.9619,1.1184-4.4102,1.7527c-0.72,0.3151-1.3656,0.8006-2.0455,1.2077  c-0.1456,0.0871-0.2852,0.1922-0.4417,0.2506c-3.4926,1.3033-7.0176,2.5269-10.4673,3.9347  c-1.506,0.6146-2.8572,1.6069-4.2822,2.4219c-0.3543,0.2026-0.7406,0.5757-1.0801,0.5424c-2.4255-0.2368-3.7715,1.7042-5.4937,2.77  c-2.428,1.5021-4.6262,3.3747-6.9343,5.073c-0.3254,0.2396-0.7005,0.4309-1.0796,0.5734c-0.6887,0.2585-1.2472,0.1798-1.5378-0.6418  c-0.148-0.4181-0.4429-0.7842-0.7078-1.2362c0.2744-0.424,0.5956-0.8431,0.8311-1.3061c0.2078-0.4084,0.4242-0.8582,0.454-1.302  c0.0727-1.0863-0.7435-1.7429-1.6753-1.2054c-1.1414,0.6579-2.1242,1.5984-3.1474,2.4503c-0.6915,0.5759-1.3348,1.21-2.0151,1.8321  c-0.5621-0.7827-0.0686-1.0802,0.2591-1.3545c1.1677-0.9787,2.3801-1.9041,3.5478-2.8828c0.4199-0.3518,0.7617-0.7965,1.3041-1.3748  c-1.1816-0.3622-2.5843,0.9779-2.9873-0.9121c0.5741-0.6187,1.9182-0.3253,2.0762-1.6376  c-0.8705-0.7117-1.8315-1.0448-3.0162-0.6861c-1.4901,0.4512-2.7808-0.061-4.3636-0.8916c1.9776-1.066,3.7905-1.7762,4.8955-3.7781  c-1.0435,0.2528-1.8298,1.2387-2.8175,0.1949c0.9049-0.8956,1.6753-1.8705,1.6187-3.3531c-0.5137-0.082-0.973-0.0964-1.3845-0.2442  c-0.2211-0.0791-0.4901-0.3815-0.4993-0.5933c-0.0093-0.2101,0.2731-0.6144,0.4414-0.6221c1.746-0.0792,1.4324-1.4421,1.8295-2.6622  c-0.4996,0.1046-0.8485,0.07-1.0045,0.227c-1.3523,1.3617-2.9046,2.5633-3.654,4.4269c-0.1306,0.3244-0.3279,0.6226-0.5011,0.9292  c-0.8311,1.4714-0.8283,1.3984-2.5945,1.3046c-0.6843-0.0364-1.3904,0.3377-2.2738,0.5752  c3.4136-3.3329,6.6015-6.7081,9.3664-10.5239c-1.5659,0.8198-3.0672,1.6197-5.0753,0.982c0.2846-0.3003,0.4366-0.6123,0.6423-0.6528  c1.364-0.2685,2.2543-1.2126,3.1541-2.1375c2.1695-2.2305,4.3946-4.3408,7.1807-5.8701c1.2751-0.6999,2.2177-2.0595,3.2023-3.2127  c0.5211-0.6105,0.8334-1.4168,0.2495-2.5033c-0.4591,0.2902-0.8944,0.5095-1.2646,0.8096c-1.0471,0.848-2.0557,1.7437-3.1026,2.5919  c-0.725,0.5875-1.5005,1.0866-2.5676,0.8486c-0.0348-0.8785,0.6487-0.9375,1.0993-1.2467c1.5818-1.0855,3.1534-2.1869,4.6995-3.3224  c0.4607-0.3387,0.876-0.7906,0.5232-1.684c-2.1457,0.9013-3.6903,2.8087-5.9451,3.3367c1.1362-1.5062,2.8689-2.1385,4.3187-3.1704  c0.8355-0.5944,1.5772-1.3792,2.1941-2.2031c0.4827-0.6451,0.713-1.4683,0.3925-2.3373c-0.3256-0.8834,0.029-1.5557,0.6769-2.1936  c1.1268-1.1091,2.1277-2.3499,3.2929-3.4136c0.8258-0.7535,1.2365-1.5052,0.9339-2.6191c-0.0999-0.3669-0.0208-0.7827-0.0233-1.164  c-1.6061-0.1729-2.7257,0.5496-4.6547,2.9248l0.0354,0.0269c-1.1142-1.6358-0.4799-3.0872,0.4932-4.4878  c0.2997-0.4315,0.6912-0.7991,0.9951-1.2285c0.4317-0.6095,0.6584-1.291,0.1442-1.9489c-0.4983-0.6382-1.1701-0.9505-2.016-0.774  c-0.577,0.1204-1.1614,0.2047-2.137,0.3733c0.3992-0.6249,0.497-0.9162,0.6994-1.0717c1.0005-0.7696,1.7704-1.642,2.0793-2.9419  c0.1166-0.4907,0.732-0.8757,1.1486-1.2795c1.0975-1.064,1.0714-1.1565,0.5139-2.6904c-0.1747-0.4806-0.0797-1.1306,0.081-1.6437  c0.2078-0.6628,0.7135-1.2375,0.8905-1.9031c0.1712-0.6423,0.2427-1.3909,0.0838-2.0242c-0.342-1.3638-0.3169-1.6418,0.7963-2.507  c0.4135-0.3215,0.8477-0.6353,1.1903-1.025c0.6238-0.7102,0.653-1.4409,0.1432-2.0573c-0.5857-0.7081-1.2326-0.5001-1.8779-0.0886  c-0.3462,0.2205-0.6626,0.5101-1.0356,0.6607c-0.4404,0.1775-0.928,0.2388-1.5546,0.3887c0.064-0.9593,0.1091-1.6366,0.1583-2.3719  c-0.9984-0.4522-1.8685-0.3159-2.6768,0.261c-0.6989,0.4986-1.3632,1.0453-2.3342,1.7965c0.1345-1.0963,0.6971-1.3932,1.1344-1.8152  c0.5278-0.5088,0.9613-1.1155,1.435-1.6806c0.4819-0.5752,0.9185-1.1968,1.4534-1.7176c1.2974-1.2644,2.5731-2.5659,3.9832-3.6957  c1.5897-1.2733,3.3085-2.3873,4.9897-3.5438c0.4784-0.3289,1.0966-0.4796,1.5229-0.8562c3.1756-2.8069,7.1019-4.2498,10.8334-6.0514  c1.8469-0.8919,3.666-1.8416,5.4917-2.7767c0.2556-0.1309,0.611-0.2806,0.693-0.5045c0.7412-2.0281,2.7795-2.3821,4.3113-3.3695  c0.9818-0.6326,2.0709-1.096,3.09-1.6735c0.3743-0.2121,0.6859-0.5344,0.9057-1.0955c-0.2987,0.0082-0.6436-0.0797-0.889,0.0387  c-3.6373,1.7534-7.2597,3.5373-10.8901,5.3051c-0.7132,0.3474-1.326,0.7801-2.286,0.412c-0.9211-0.3531-1.3709,0.5854-1.7099,1.3227  c-1.2167-0.588-2.1954,0.0087-2.8694,0.7225c-0.6428,0.681-1.3249,0.9615-2.1396,0.9889c-1.4959,0.0503-2.6442,0.8837-3.8701,1.5575  c-0.1502,0.0825-0.3497,0.1857-0.3989,0.3246c-0.5055,1.4257-1.6251,2.211-2.8654,2.9291c-0.488,0.2826-0.8841,0.7727-1.2333,1.2354  c-0.6169,0.8168-1.2598,1.4824-2.3694,1.6458c-0.5741,0.0848-1.0955,0.5281-1.7895,0.5978  c0.9971-0.7671,1.9945-1.5337,2.9909-2.3017c0.5569-0.4294,1.0893-0.8186,1.1139-1.6723c0.011-0.3771,0.4266-0.817,0.7673-1.0944  c0.6795-0.5529,1.4337-1.0141,2.1583-1.5116c1.7834-1.2252,3.5358-2.4995,5.363-3.6557c1.076-0.6808,2.2758-1.1637,3.4098-1.755  c0.4432-0.2314,0.8854-0.4809,1.282-0.7827c1.3704-1.0422,2.3509-2.7526,4.4868-2.4634c0.3003,0.0405,0.7297-0.3343,0.9897-0.6174  c2.436-2.6535,5.7002-4.079,8.7341-5.8196c0.8537-0.4896,2.0435-0.5895,3.0662-0.5485c2.5129,0.1002,4.5125-0.8844,6.4091-2.4101  c2.1467-1.7268,4.5781-2.9601,7.179-3.928c1.8211-0.6777,3.5084-1.7156,5.3333-2.6315c-0.5977-0.6561-1.1334-0.3179-1.6568-0.1271  c-1.9271,0.7023-3.9024,1.2995-5.7655,2.1434c-1.7622,0.7986-3.6686,0.6861-5.4661,1.1844  c-0.5613,0.1555-1.1467,0.2578-1.727,0.2962c-0.301,0.02-0.6149-0.153-0.9231-0.2385c0.1504-0.3433,0.2216-0.7691,0.4719-1.0077  c0.2808-0.2677,0.7182-0.3784,1.0961-0.5362c2.6998-1.1275,5.4073-2.2366,8.1013-3.3775c2.1912-0.9279,4.3633-1.9007,6.5525-2.8338  c0.5921-0.2521,1.2075-0.5844,1.8255-0.6146c1.6801-0.0825,2.9232-1.0709,4.3064-1.8062c0.6482-0.3449,1.4132-0.4812,2.1362-0.6708  c0.7889-0.2072,1.5956-0.3469,2.385-0.5531c0.8447-0.2206,1.2572-0.8063,1.2848-1.6717L87.4951,12.6945z M71.9845,149.9332  c-1.3225,0.2406-2.6499,0.4578-3.9665,0.7278c-1.4473,0.2965-2.8687,0.5132-4.3113-0.0778  c-0.6887-0.2821-1.3776-0.1371-1.7171,0.5418c-0.4265,1.0684-0.8529,2.1367-1.3348,3.3439  c0.4504-0.0696,0.7963-0.0655,1.0968-0.1801c1.0886-0.4155,2.1567-0.8844,3.2422-1.3081c1.9569-0.7638,3.9284-1.4906,5.8752-2.2792  c0.4002-0.1621,0.7187-0.5267,1.0827-0.7921c0.5921-0.1207,1.1842-0.2411,1.7762-0.3618c-0.0425-0.1253-0.0848-0.2506-0.1273-0.3758  C73.0618,149.4256,72.5233,149.6794,71.9845,149.9332z M174.5637,125.7889c1.25,0.7189,1.2369,0.6938,2.3654,0.1012  c0.339-0.1781,0.8391-0.3446,1.1535-0.2244c1.7034,0.6522,3.3259,0.2129,5.0515-0.2478c-4.2314-0.8165-8.3529-0.589-12.4842,0.3613  c0.5867,0.1158,1.1734,0.2316,1.7952,0.3545c-4.0151,0.6505-7.9491,1.2877-12.1328,1.9656  c0.3956,0.1353,0.5516,0.2442,0.6953,0.2298c3.5509-0.3569,7.1031-0.7027,10.649-1.1078  C172.7892,127.0919,174.04,127.1058,174.5637,125.7889z M81.0688,136.6313c-0.0566-0.194-0.1132-0.3879-0.1698-0.5819  c-4.4517,1.4888-8.9896,2.7119-13.3521,4.4707c-1.3569,0.547-2.622,1.3215-3.9291,1.9917c0.0584,0.1204,0.1171,0.2406,0.1755,0.361  C69.5519,140.7923,75.3105,138.7116,81.0688,136.6313z M62.6634,141.6971c1.849-0.1171,3.0683-0.6771,3.9916-1.8287  C65.1022,140.0482,63.8299,140.5673,62.6634,141.6971z M54.7771,146.6454c1.716-0.1143,2.3601-0.4456,3.1197-1.643  C56.6573,145.6552,55.7171,146.1501,54.7771,146.6454z M156.3668,128.913c-0.0128-0.103-0.0256-0.206-0.0384-0.3087  c-0.3339,0.0458-0.6679,0.0917-1.002,0.1376c0.0128,0.093,0.0253,0.186,0.0381,0.279  C155.6986,128.985,156.0327,128.9489,156.3668,128.913z M55.4176,32.5698c-0.227-0.2081-0.3313-0.382-0.4453-0.3887  c-0.147-0.0085-0.351,0.0812-0.4348,0.1978c-0.0512,0.0712,0.0887,0.3963,0.1228,0.3933  C54.8683,32.7529,55.0704,32.6722,55.4176,32.5698z" fill="#222222" />
	</g>
</svg>
