<?xml version="1.0" encoding="utf-8"?>
<!-- Generator: Adobe Illustrator 23.0.1, SVG Export Plug-In . SVG Version: 6.00 Build 0)  -->
<svg version="1.1" id="XMLID_2_" xmlns="http://www.w3.org/2000/svg" xmlns:xlink="http://www.w3.org/1999/xlink" x="0px" y="0px"
	 viewBox="0 0 207.9516 198.2404" enable-background="new 0 0 207.9516 198.2404" xml:space="preserve">

<g id="P">
<path fill="#EA992F" d="M12.2258,106.4903l5.3289,5.3288c0.0888-0.484,0.4769-1.0418,0.6866-0.1924
	c-0.0118-0.0471,0.1569,0.2946-0.1917,0.5423c-0.0345,0.0245-0.0613,0.0356-0.0919,0.0532l0.9663,0.9663
	c-0.0339-0.3762,0.0128-0.7884,0.1206-0.8578c0.1775-0.1139,0.358,0.1191,0.4561,0.4345c0.0132,0.0306,0.0255,0.0587,0.023,0.0867
	c0.0778,0.3085,0.0706,0.6615-0.0815,0.8548l0.541,0.541c0.0048-0.001,0.0149-0.0109,0.0191-0.011
	c-0.0171,0.0005-0.0122,0.0138,0.0033,0.0334l0.0642,0.0642c0.1865,0.1643,0.6469,0.4907,0.7355,0.6069
	c0.0371,0.0485,0.0651,0.1265,0.0883,0.2169l1.0525,1.0525c0.041-0.1615,0.0755-0.3161,0.0951-0.4324
	c-0.0158,0.1776,0.0085,0.3712,0.0393,0.5668l0.3922,0.3922c0.1271-0.906,1.7445-0.7824,1.5018,0.3434
	c-0.0139,0.0646-0.2832,0.2017-0.2865,0.246c-0.0252,0.3329,0.1799,0.6063,0.2199,0.8458l0.5934,0.5933
	c0.0205-0.3949,0.0488-0.8607,0.1074-0.8982c0.1719-0.1106,0.481,0.1303,0.5739,0.0379c0.2432-0.2404-0.0248-0.6539,0.2409-1.3029
	c0.1659-0.4038,0.6681-0.4774,0.266-0.9262c0.2467-0.0722,0.1699,0.1966,0.4162,0.1243c-0.1777-0.1861-0.1299-0.3128-0.094-0.4648
	c-0.102,0.0079-0.1597-0.0745-0.1831-0.1746c-0.489,0.7739-1.1914,0.3834-1.6125-0.2586c-0.1583-0.0476-0.2556-0.2814-0.2449-0.489
	c-0.0627-0.1723-0.1042-0.3465-0.1126-0.5101c0.3299,0.2622,0.446,0.2375,0.4214,0.0222c-0.5754,0.3529,0.1178-1.9147-0.0632-2.3882
	c-0.1193-0.3121-0.4229-0.1297-0.4767-0.3473c-0.0386-0.1536,0.0805-1.8502,0.1676-2.0553c0.0179-0.0416,0.6174-0.5191,0.644-0.5723
	c-0.0086,0.0173-0.063-0.3544,0.0507-0.3818c0.288-0.07,0.8321,0.8794,1.185,1.7495c0.006-0.0041,0.0078-0.0122,0.0145-0.0156
	c-0.0055,0.0065-0.0064,0.0187-0.0092,0.0286c0.0788,0.1954,0.1471,0.3844,0.2011,0.5586c0.2748,0.4562,0.7438,0.8923,0.9191,0.1728
	c-0.0778,0.3189-0.3539-0.7473-0.1312-0.7483c0.0775-0.0007,0.5785,1.594,1.146,1.2874c-0.2352,0.1272,0.2025-0.7476,0.3622-0.705
	c0.1593,0.0423,0.2847,0.6883,0.4784,1.1484c0.0924-0.055,0.1845-0.1114,0.2935-0.1345c0.1135-0.0241,0.2553,0.0215,0.4038,0.1013
	c-0.0584-0.3173-0.212-0.6473,0.1695-0.5221c-0.345-0.2262-0.4904-0.6642-0.6432-1.0934c0.1508,0.5378,0.7078,0.4775,0.7811,0.7058
	c0.2116,0.6607,0.0357-0.0244,0.534-0.5648c-0.2656-0.1253-0.2251,0.1948-0.5587,0.1881c-1.2748-0.0268-0.195-1.9917,0.5613-1.4001
	c0.196,0.1535-0.0567,0.983-0.0124,1.0609c0.2393,0.4181,0.4484,0.2263,0.9954,0.2379c-0.059,0.2475-0.2214,0.5319-0.0213,0.9097
	c0.0263,0.0504,0.2523-0.1369,0.3193-0.0964c0.4746,0.2844,0.2647,1.8256,0.7541,1.5405c-0.0114,0.0323-0.0388,0.0638-0.054,0.096
	c0.0144,0.0226,0.0386,0.0606,0.0843,0.1325c0.0257,0.0405,0.0377,0.0594,0.0486,0.0767c-0.0325-0.0511-0.1017-0.1601-0.1329-0.2092
	c-0.2115,0.4489-0.7612,0.8855-1.2484,1.2009c-0.1654,0.1069-0.1816,0.3602-0.3866,0.3278
	c-0.3671-0.0574-0.0128-0.8374-0.5321-0.6462c-0.9028,0.3323,0.2657,2.0605,1.3949,1.3471
	c-0.1645,0.5205-0.3995,1.1136-0.7795,1.4843c0.1575-0.067,0.4837,0.2417,0.1714,0.4484c-0.2768,0.1828-0.3275-0.2657-0.2171-0.4112
	c-0.1045,0.0944-0.219,0.173-0.3454,0.2294c0.0878,0.044,0.1646,0.1701,0.0547,0.2955c-0.1271,0.1448-0.2237-0.1616-0.1759-0.2677
	c-0.0965,0.0309-0.1916,0.0647-0.3023,0.0672c0.2131,0.1142,0.2,0.6006,0.3307,0.9433c0.0176,0.0286,0.0366,0.0669,0.0572,0.1155
	c0.0464,0.0807,0.1023,0.151,0.1839,0.191c-0.0527-0.01-0.0749-0.002-0.1134-0.0034c0.0397,0.1185,0.0769,0.2521,0.1075,0.3871
	c0.1368,0.0246,0.2494-0.0719,0.1632-0.4699c0.3761-0.1546,0.3029,1.0774,0.1509,1.0504c0.2915,0.0519,0.3055-0.222,0.3241-0.4781
	c-0.1525-0.0059-0.1982-0.8596,0.0924-0.6049c0.0579,0.0507,0.0781,0.1247,0.0758,0.217c0.0305-0.0073,0.0595-0.0163,0.1037-0.006
	c-0.0998-0.0235,0.2847,0.2256,0.106,0.3714c0.3731-0.3048,0.1487-0.9479,0.4238-1.0121c0.7049,0.4746-0.2853,1.5963-0.12,1.9009
	c0.0177,0.0327,0.044,0.0543,0.0685,0.0783c0.014-0.0281,0.0308-0.0525,0.0442-0.0811c0.2506-0.5344,0.4416-1.5544,0.9692-0.9518
	c-0.0589-0.2162-0.0811-0.4158,0.1244-0.563c0.0958-0.0688,0.1778-0.0849,0.2534-0.0777c0.0147-0.0371,0.0328-0.0695,0.0568-0.0897
	c0.1508-0.127,0.5298,0.2287,0.3088,0.4633c0.3287,0.7445,0.3817,2.2051,0.8466,0.8948c-0.1407,0.477,0.7248,1.0418,0.1803,1.5028
	c-0.0146,0.0128-0.243,0.0035-0.2437,0.016c-0.0146,0.2526,0.8692,1.7174,1.089,1.6698c0.1173-0.0252,0.4049-1.5632,0.8498-0.7372
	c0.2118,0.393-0.1757,1.143-0.2511,1.1523c-0.7601,0.0971,0.4792,0.4651,0.599,0.4151c0.3132-0.1316-0.0732-0.409,0.3002-0.3984
	c-0.1274-0.0034,0.7423,0.5221,0.6037,0.4906c0.4477,0.1006,0.5737-0.0685,0.4462,0.5765c0.052-0.0574,0.2281-0.3825,0.4398-0.6337
	c0.1026-0.2721,0.3265-0.4937,0.5235-0.278c0.0431,0.0161,0.0857,0.036,0.1252,0.083c0.029,0.0346,0.018,0.1009-0.0057,0.1777
	c0.0225,0.1894-0.0976,0.3875-0.2114,0.4783c-0.0322,0.0679-0.0595,0.1336-0.0855,0.2002c0.1143-0.0165,0.2337,0.0252,0.3461,0.1653
	c0.075-0.1149,0.1704-0.1994,0.2892-0.2058c0.4682-0.0254,0.7661,0.8136,0.3846,1.1924c0.0816,0.0198,0.1821,0.0352,0.3151,0.0442
	c-0.3244,0.2361-0.6059,0.8426-0.6636,1.0406c-0.02-0.0015-0.0524,0.0048-0.0856,0.0119c-0.0469,0.0644-0.1113,0.1206-0.2183,0.1502
	c-0.0339,0.0093-0.0611,0.011-0.0916,0.0163c0.0647,0.6322,1.2219-0.1584,1.3359,0.5044c-0.2392-0.3527-0.0603-0.6125,0.1805-0.8131
	c-0.094-0.3886,0.0803-1.0523,0.4702-0.8437c-0.1497-0.5219-0.3486-1.287,0.4633-1.0512c-0.0174-0.1244-0.0165-0.2741,0.0155-0.4659
	c-0.4118,0.8047-0.6084,0.0104-0.3965-0.2767c0.0936-0.1273,0.2964,0.1107,0.2355,0.1358c0.3479-0.1463,0.0966-0.4487,0.2572-0.6982
	c0.4228-0.6555,0.9109-0.4462,0.6802-1.1804c-0.2032-0.6455,0.6632-0.9709,0.3629-1.3869
	c-0.1597-0.2209-1.8345,0.2941-1.4964-0.8859c0.0824-0.2878,0.2031-0.0119,0.1311-0.3115
	c-0.0928-0.3855,0.4788-2.1845,0.8649-0.6623c0.0433,0.1704-0.1988,0.4336-0.1914,0.5426c0.0327,0.4764,0.6329,0.4034,0.8035,0.7041
	c0.0975,0.1737-0.241,0.4837-0.0408,0.5329c0.5026,0.1242,0.5393-0.7846,0.5974-0.841c-0.1517-0.1853-0.8101-0.1012-0.4555-0.4554
	c0.1241-0.1243,1.0573,0.222,1.1509,0.2272c0.6406,0.0379,0.5316-0.2201,0.7932,0.5538c0.1748,0.5166-0.148,1.327-0.2829,1.4571
	c-0.5299,0.5109-0.0769,0.0456,0.3212,0.282c0.3956,0.2348,0.5308,0.7702,0.4756,1.3095c0.3862-0.2906,0.7107-0.4314,0.8169-0.1154
	c-0.0052-0.0315,0.0072-0.0773,0.0632-0.1472c0.2165,0.1456-0.0069,0.2421-0.0563,0.1686c0.0176,0.0614,0.029,0.1355,0.0309,0.2296
	c0.0825-0.777,1.2655,1.7199,1.5974,0.9326c0.0636-0.1503,0.0492-0.2156,0.0273-0.2437c0.0397,0.0095,0.1206,0.0151,0.2833-0.0036
	c0.0043-0.0005,0.0086-0.0031,0.0129-0.0037l0,0l0,0c0.0039-0.0045,0.0091-0.0103,0.0125-0.0143
	c-0.0026,0.003-0.0094,0.0107-0.0125,0.0143c0.2462-0.0337,0.4991-0.2121,0.7491-0.3567c0.0959-0.1585,0.2647-0.288,0.4111-0.1713
	c0.2459-0.0454,0.4833,0.049,0.7014,0.4842c0.3257,0.6497,0.217-0.6004,0.0414-0.6086c-0.1075-0.0048-0.1744-0.1317-0.2157-0.3098
	c-0.1289-0.0426-0.1219-0.1296-0.0363-0.224c-0.041-0.4377,0.0243-1.0231,0.1334-1.2756c-0.0254,0.4916,0.1429,0.7422,0.2427,1.0312
	c0.1059-0.0398,0.1961-0.0497,0.2189,0.0033c0.0564,0.1295-0.0363,0.2417-0.1554,0.3265c0.0061,0.1069,0.0022,0.2223-0.0294,0.3626
	c0.367-0.2626,0.1687-0.5893,0.5195-0.7912c-0.2388,0.2607-0.0904,0.6456,0.1106,0.8625c0.035-0.0182,0.0775-0.0184,0.1375,0.0342
	c0.0066,0.006,0.0124,0.0447,0.0174,0.0919c0.1537,0.0853,0.2904,0.0372,0.2716-0.2667c0.0003,0.0033-0.0159-0.0022-0.0263-0.0047
	c-0.0111,0.0345-0.0229,0.0694-0.0417,0.0895c-0.1223-0.0207-0.1339-0.0632-0.1231-0.1239
	c-0.0628-0.0069-0.1218-0.0011-0.1343,0.0605c0.0014-0.0062,0.0749-0.1189,0.1614-0.2611c0.0014-0.0388,0.0053-0.0766-0.0094-0.1229
	c0.029-0.0017,0.0448,0.0171,0.0658,0.0281c0.1233-0.2093,0.2472-0.444,0.2159-0.5055c-0.0526-0.1038-0.3152-0.1087-0.5726-0.1219
	c-0.1574,0.1731-0.3462,0.2934-0.4692,0.1933c-0.053-0.0429-0.0161-0.1401,0.0572-0.2506c-0.0379-0.0139-0.0698-0.031-0.0922-0.0533
	c-0.1951-0.1942,0.0065-0.7273,0.0356-1.1442c-0.2722,0.1231-0.5444-0.0282-0.6215-0.7636
	c-0.0029-0.0011-0.0058-0.0023-0.0087-0.0034c-0.0945,0.2403-0.5998,1.3417-0.4886,1.6842
	c-0.0182-0.0542,0.3342,1.1995-0.3426,0.5524c-0.3148-0.3011,0.5387-1.4454,0.592-2.3298c-0.154-0.0651-0.2735-0.1398-0.2948-0.2685
	c-0.0463-0.2796,0.1053-0.3559,0.2448-0.4255c0.0001-0.1467,0.037-0.2974,0.1203-0.4427c-0.1385-0.181-0.4084-0.1037-0.5474-0.1514
	c0.0328-0.0473-0.3233-0.6556-0.3282-0.5369c0.0276-0.7397,0.8317-0.4467,1.0617,0.0061c-0.1809-0.427,0.2733-0.0783,0.5495-0.3388
	c-0.1974,0.1865,0.2451-1.2799,0.5763-1.1735c0.1775,0.0569-0.2251,0.8678-0.1696,1.1469
	c-0.0003-0.0011,0.0221,0.0135,0.0527,0.0349c0.0459-0.148,0.1532-0.2458,0.339-0.1321c0.1233,0.0758,0.1536,0.4002,0.0346,0.5278
	c-0.0008,0.0008-0.0012,0.0006-0.002,0.0014c0.0473,0.1284-0.0042,0.2519-0.2935,0.3164c-0.5279,0.1175-0.089,0.242,0.2497,0.4735
	c0.0078-0.0116,0.0094-0.0196,0.0198-0.0326c0.0649,0.0438,0.0851,0.082,0.0871,0.1139c0.1671,0.1416,0.269,0.3186,0.1238,0.5497
	c0.1773,0.0788,0.3251-0.2277,0.5588-0.1882c0.3699,0.0619,0.1313,0.4303,0.4466,0.5759c0.0013,0.0006,0.0019-0.0002,0.0031,0.0004
	c0.5857-0.7605,1.4372-1.9896,0.3245-1.7586c0.7327-0.4207-0.0615-1.0484-0.5367-1.2519c-0.0081-0.3848,0.2842,0.2497,0.4625,0.1213
	c0.373-0.2696-0.2286-0.9101-0.0989-1.5077c0.0198-0.0931,0.5921-0.581,0.5734-0.4923c0.1124-0.539-0.6041-0.4671,0.116-0.5376
	c0.5606-0.0543,0.7409-1.0594,1.1221-1.3607c0.023-0.0179,0.974,0.0358,0.951-0.5167c-0.9372,0.7793-1.4966-0.5429-1.1101-0.7599
	c0.0223-0.0128-0.2676-0.7637,0.5534-0.7933c0.4482-0.0162,0.2561,0.1576,0.8145-0.2806c0.4736-0.3714-0.1263,1.6562,0.0486,1.8896
	c0.3035,0.4064,0.4225-0.2117,0.4917,0.5733c0.1248,1.4179,0.9215,4.2406-1.2719,4.8537c-0.4422,0.1234-0.8092-0.0846-1.1255,0.1496
	c-0.4086,0.3019-0.638,0.9677-0.8815,1.6185c0.0175,0.0078,0.0313,0.0029,0.0518,0.0209c0.0695,0.0619-0.1022,0.4297,0.0346,0.5282
	c0.1131,0.0818,0.2924,0.0696,0.4746,0.0515c0.12-0.1447,0.2814-0.264,0.3786-0.1789c0.0498,0.0438,0.0373,0.1032-0.0005,0.1648
	c0.0935,0.012,0.1716,0.0445,0.2184,0.1197c0.1499,0.2401-0.1871,0.8127,0.2693,0.6222c-0.1288,0.1647-0.2215,0.76-0.2397,0.9661
	c0.034,0.0364,0.0615,0.0668,0.0949,0.1041c0.2422-0.0024,0.711-0.3753,0.6961-0.3836c0.2377,0.1331-0.0855,0.827-0.4472,1.1465
	c-0.0497,0.1639-0.106,0.2718,0.0632,0.3219c-0.0968-0.0289,0.9394-1.4539,1.2122-0.566c0.0039-0.0788,0.0097-0.1551,0.0338-0.2019
	c-0.0212,0.0424,0.5889-0.3773,0.631-0.3439c0.4261,0.3291-0.2744,1.1545-0.4224,1.6795c0.3149,0.0843,0.5848,0.3365,0.4767,0.5968
	c-0.0508,0.1223-0.1447,0.2121-0.2529,0.2805c0.1605,0.039,0.1953,0.1517-0.1825,0.345c-0.0124,0.0064-0.2265,0.1736-0.3208,0.097
	c-0.1791-0.1457-0.1704-0.257-0.081-0.334c-0.0461-0.0095-0.0846-0.0304-0.1246-0.049c0.0258,0.5548-0.025,1.0881-0.4656,1.4425
	c-0.0038,0.1178,0.0008,0.2343,0.0289,0.3454c0.0189,0.0743,0.0831,0.1109,0.1434,0.1438c0.2656-0.2811,0.5517-0.554,0.7835-0.8057
	c-0.0688,0.3734-0.3688,0.7236-0.7063,1.0631c-0.0033,0.0088-0.0059,0.0176-0.0097,0.0264
	c0.0698-0.0316,0.2326-0.0926,0.2525-0.0747c0.1256,0.1096-0.2366,0.2578-0.3001,0.1795c-0.2714,0.4436-0.9999,0.8739-1.206,1.2109
	c0.0478-0.0155,0.0984-0.026,0.158-0.0149c0.2838,0.0527,0.2619,0.3974,0.1461,0.6314c0.0562,0.062,0.0984,0.1378,0.0941,0.2567
	c-0.0094,0.2522-0.6001,0.8843-0.8499,0.7374c0.0015,0.001,0.0455-0.0951,0.0761-0.223c-0.0168,0.0249-0.0215,0.0452-0.051,0.0745
	c-0.0144,0.0139-0.2105,0.1702-0.2968,0.095c-0.3763-0.3299,0.2278-0.4815,0.3727-0.3457c0.0079-0.129-0.0124-0.2608-0.1064-0.3488
	c-0.0419,0.0689-0.1599,0.1078-0.2251,0.1618c-0.2721,0.2251-0.3137-0.016-0.2377-0.2221c-0.6785,0.0181-2.1543,0.0338-2.035-0.012
	c-0.2082,0.08-0.9035,2.0676-0.8449,0.8127c-0.0539,0.0685-0.1136,0.1105-0.1758,0.1385c0.0047,0.031,0.0011,0.063-0.0211,0.0948
	c-0.0638,0.091-0.1557,0.0995-0.2374,0.0715c-0.0079,0.0107-0.014,0.0225-0.0226,0.0324c-0.228,0.26-0.3732-0.1296-0.2562-0.2772
	c-0.2287-0.1211-0.4344-0.3004-0.531-0.3571c0.0254,0.0149-0.5594-0.1498-0.4921-0.0435c-0.2429-0.3843,0.1467-0.8497,0.1842-0.9208
	c0.1023-0.1925,0.0714-0.34-0.0147-0.463c-0.0118,0.3186-0.1432,0.5476-0.587,0.4312c-0.0902-0.0235-0.1856-0.131-0.2489-0.2699
	c-0.2793-0.0446-0.5191-0.2401-0.3366-0.6016c0.0772-0.1528,0.2292-0.2065,0.3845-0.1977c0.0133-0.1291,0.2917-0.5407,0.4504-0.5416
	c0.0794-0.0001,0.3964,0.3625,0.4306,0.3505c0.52-0.1814-0.2515-0.8271,0.5959-0.8719c-0.6373,0.1084-0.7993-0.8237-1.5226-0.8088
	c-0.2271,0.0046-1.3352,0.5682-1.4135,0.8501c-0.0314,0.1124,0.2254,0.1561,0.1269,0.2685c0.0109,0.0083,0.017,0.0129,0.0345,0.0262
	c0.1535,0.1171,0.0341,0.026-0.0345-0.0262c-0.0077,0.0089-0.0131,0.0174-0.0258,0.0272c-0.1956,0.152-0.7781-0.1541-1.2957,0.1609
	c0.2806-0.1706-0.2653,0.403-0.133,0.4633c0.1035,0.0468,0.2158-0.0422,0.3074-0.1293c0.0084-0.194,0.137-0.4837,0.2998-0.3605
	c0.1989,0.1501,0.0981,0.284-0.0058,0.3724c0.2454,0.3664-0.2089,0.7296-0.1354,0.995c0.1177,0.4286,0.4341-0.0036,0.5223,0.4958
	c-0.5511-0.3265-0.4125-0.0198-0.3619,0.3562c0.044-0.0633,0.0817-0.0672,0.0586,0.1228c-0.0016,0.0127,0.013,0.066,0.0049,0.0753
	c-0.0247,0.0281-0.037,0.0345-0.0554,0.0516c-0.0023,0.0333-0.0013,0.0673-0.0081,0.0994
	c-0.1131,0.5313-0.6403,0.8102-0.4899,1.2435c0.0595,0.1719,0.1154,0.2182,0.1445,0.2277
	c-0.0276,0.0066-0.0869,0.0367-0.2014,0.1548c-0.0474,0.0489-0.0658,0.1629-0.0743,0.2976
	c0.1934-0.2159,0.4939-0.3083,0.8886-0.1197c0.4141,0.1982,0.0032,0.7629,0.1446,1.0506c0.0326,0.0666,0.4215,0.2422,0.5606,0.4577
	c0.2816-0.1964,0.5518-0.5413,1.0844-0.57c0.1503,0.2425-0.6249,0.4984-0.4477,0.6352c0.0243,0.0188,0.0622,0.0438,0.1059,0.0719
	c0.0096-0.0041,0.0189-0.0041,0.0285-0.0077c0.136-0.1568,0.2584-0.524,0.4975-0.4039c0.1647,0.0826,0.1977,0.2628,0.1566,0.4694
	c0.2165,0.1516,0.317,0.4282,0.1521,0.7243c0.0021,0.0973-0.0622,0.1885-0.2306,0.2651c-0.202,0.1506-0.4446,0.1401-0.6573,0.1039
	c-0.1413,0.0051-0.2353,0.0574-0.3556,0.3869c0.0138-0.2314,0.0193-0.3678,0.0173-0.4395
	c-0.0172-0.0004-0.0296,0.0039-0.0444,0.0058c-0.0693,0.2031-0.217,0.8033-0.4313,0.9178c0.0206-0.0108-0.0654-0.0852-0.1795-0.1548
	c0.0243,0.0858-0.0119,0.1817-0.0739,0.257c-0.0694,0.2842-0.5383,0.8499,0.2121,0.5063c0.1489-0.1963-0.2269,0.6849-0.0419,0.6086
	c0.0708-0.0292,0.1133-0.0679,0.1538-0.1072c0.0073-0.0136,0.0184-0.021,0.0334-0.0232c0.3123-0.3689-0.4079-1.0736,0.1306-1.2531
	c0.126-0.0423,0.1677,0.3596,0.187,0.3658c0.421,0.1471,0.8582-0.3785,1.0715,0.1574c0.1206,0.3019-0.3739,0.085-0.3817,0.4035
	c-0.0055,0.2151,0.9253,0.1432,1.1277-0.3524c-0.0766-0.1381-0.0873-0.3421-0.0416-0.5246
	c-0.0254-0.0552-0.0545-0.1119-0.0937-0.1723c0.0237,0.0657,0.0568,0.1182,0.0968,0.1593c0.0406-0.1517,0.1159-0.2831,0.2308-0.328
	c-0.0599,0.0235,0.3258,0.3181,0.479,0.3303c0.1844-0.0957,0.3595-0.243,0.4762-0.4159c-0.2352-0.1567-0.4323-0.352-0.5765-0.5766
	c-0.0653,0.026-0.1691,0.0067-0.1917-0.0357c-0.042-0.0788,0.0285-0.1267,0.1048-0.1338c-0.053-0.1041-0.1018-0.2087-0.1342-0.319
	c-0.0001,0.0001-0.0002,0.0002-0.0002,0.0003c-0.1525,0.1608-0.3327-0.0506-0.2535-0.1347
	c0.0373-0.0396,0.1442-0.0544,0.2209-0.0362c-0.0974-0.5108,0.0184-1.0511,0.4363-1.4726c0.2045-0.2063,0.4323-0.3417,0.6692-0.4287
	c-0.0607-0.2814,0.1929-0.8582,0.4871-0.6c0.1122,0.0981,0.0534,0.3269-0.0355,0.4983c0.0335-0.0031,0.0665-0.0113,0.1-0.0127
	c-0.0008-0.0005-0.0008-0.0005-0.0015-0.0011c-0.0066-0.005-0.0074-0.0056-0.013-0.0099c0.0051,0.0038,0.0094,0.0071,0.0145,0.011
	c0.5285-0.0209,1.0557,0.1839,1.4711,0.511c0.043-0.0784,0.1082-0.1238,0.1927-0.0497c0.0257,0.0225,0.0348,0.0528,0.0348,0.0854
	c0.0462,0.0432,0.0654,0.1228,0.0435,0.2057c0.4151,0.4449,0.6347,1.0318,0.4596,1.6142c-0.0101,0.0324-0.3912,0.6961-0.4478,0.7399
	c-0.0035,0.0029-0.3736-0.1361-0.4172-0.1214c-0.0115,0.0039-0.0196,0.0091-0.0307,0.013c-0.1111,0.1532-0.2279,0.3116-0.3308,0.467
	c0.1118-0.0362,0.2617-0.0118,0.3092,0.0808c0.0767,0.1475-0.2818,0.4516-0.415,0.1469c-0.0108-0.0244,0.0028-0.0369,0.0003-0.0577
	c-0.1706,0.294-0.2514,0.5631-0.0647,0.7393c0.134,0.1264,0.7443-0.5559,0.8274,0.1728c-0.6499-0.1633-0.2455,0.1077-0.3469,0.9315
	c-0.1138,0.9287-0.1193,0.5004,0.4013-0.1023c0.3787-0.4373,0.3424,0.0763,0.707-0.4246c0.1017-0.1392,0.2012-0.6712,0.2088-1.0991
	c-0.0152-0.0266-0.0187-0.064,0.0004-0.1176c-0.0044-0.1632-0.0243-0.3032-0.0687-0.3828c0.1912,0.3429-0.7916-0.2601-0.4413-0.5011
	c0.0626-0.0429,0.1885-0.0249,0.3387-0.0283c0.082-0.3919,0.5214-1.1473,0.588-1.3149c0.3134-0.7906,0.3527-0.818,0.0751-0.0049
	c-0.1128,0.3309-0.1477,0.8672-0.2641,1.2166c0.3269-0.1996,0.0631-0.5521,0.2604-0.8423c0.0916-0.1352,0.4509-0.3469,0.8528-0.5265
	c0.0613-0.1224,0.1299-0.2083,0.1868-0.2185c-0.0033,0.0005,0.0939-0.0356,0.2234-0.0815c-0.0044-0.006-0.0079-0.006-0.0125-0.0128
	c-0.2842-0.4247,0.6642-0.4386,0.4298-0.1275c0.1676-0.052,0.3072-0.0877,0.3244-0.0686c0.0565,0.0616,0.0914,0.1334,0.1128,0.2103
	c0.0084,0.0029,0.0247-0.001,0.0323,0.0025c-0.0408-0.0188,0.1915,0.6303,0.4803,0.985c0.0393-0.1635,0.3158-0.1002,0.3275,0.0169
	c0.0065,0.0632-0.0695,0.1282-0.1514,0.1521c0.1617,0.1065,0.3277,0.0752,0.4648-0.2432c0.0064-0.0147-0.0131-0.1282-0.0174-0.1885
	c0.2579,0.0646,2.071-0.0106,1.187-0.6453c-0.1861-0.134-0.1802,0.2957-0.1426,0.3124c-0.1391-0.0607-0.0897-0.3232-0.187-0.3665
	c-0.1927-0.0855-0.6201,0.4684-0.9563,0.3655c0.6323-0.1341,0.1104-1.039,0.5766-1.1736c0.3169-0.0911,0.9581,0.8102,1.36,0.8195
	c0.6955,0.0162,1.0714-0.5078,1.3915-1.0792c-0.3321,0.1153-0.7397,0.0951-1.0988-0.0637c-0.2391,0.2533-0.5061,0.4088-0.788-0.1873
	c-0.1871-0.3966-1.1264-1.2532-0.5254-1.7827c0.873-0.7689,2.4621-1.715,2.6526-3.1269c-1.1078,1.2008-1.0754-0.4337,0.209-0.5437
	c-0.4383,0.4684,0.2541,0.1894,0.4413,0.5011c0.0451,0.0749,0.0029,0.1728-0.0745,0.2886c0.0199-0.0013,0.0362-0.0077,0.0615-0.0021
	c0.5743,0.1255-0.477,1.1161-0.2603,0.2928c0.0031-0.0116,0.0061-0.0217,0.0091-0.0331c-0.1239,0.1631-0.2544,0.3479-0.3169,0.5517
	c-0.226,0.7362-0.1923,1.7537,0.0196,2.4396c0.1265,0.0753,0.2296,0.2018,0.2814,0.4222c0.0135,0.0574,0.0055,0.1023,0.0123,0.1559
	c0.2858,0.3163,0.6834,0.2225,1.1455-0.6907c0.1125,1.7837,1.5736-0.6125,1.3177-1.0702c-0.0004-0.0013-0.5763-0.1716-0.5837-0.1885
	c-0.1068-0.2575,0.0787-1.0266,0.2408-1.3034c0.2235-0.3812,1.3531-1.8712,0.9362-0.6669c-0.1589,0.4588-0.189,0.8298-0.2191,1.2434
	c0.0777-0.0885,0.1489-0.1696,0.0127-0.0142c-0.0062,0.0071-0.007,0.008-0.0127,0.0145c-0.0223,0.3057-0.044,0.6316-0.1203,1.0498
	c-0.103,0.5642-0.4565,0.9785-0.5403,1.2906c0.039-0.0969,0.1396-0.0948,0.3244,0.1652c0.0196,0.0284,0.1477,0.1215,0.0959,0.2206
	c-0.0624,0.1193-0.1211,0.1732-0.1748,0.1906c0.0781,0.1015,0.1516,0.1835,0.1843,0.1845c0.6791,0.0219,0.7056-2.0293,0.7517-2.8126
	c-0.0488,0.0418-0.1313,0.0985-0.1821,0.054c-0.1788-0.1568,0.0584-0.3017,0.2066-0.3099c0.0006-0.0029,0.0011-0.0085,0.0017-0.0111
	c0.0101-0.0429,0.0583-0.2598,0.1213-0.5257c-0.0014-0.0034-0.0059-0.0032-0.0068-0.0073
	c-0.0085-0.0357,0.0068-0.0652,0.0299-0.0903c0.1246-0.5178,0.2973-1.1744,0.3869-1.229c0.8371-0.5065-0.7896,3.2464,0.7176,2.2249
	c0.1064-0.0721,1.3734-1.1071,1.303-1.2969c-0.0915-0.2481-0.5782,0.0822-0.7366-0.0274c-0.36-0.2489-0.0709-0.9889,0.1744-1.0718
	c0.5135-0.1722,0.4832,0.3475,0.6754,0.3344c0.4717-0.0319,0.7012-0.508,0.9112-1.0388c-0.0377,0.0305-0.0956,0.0621-0.1931,0.0876
	c0.0818-0.186,0.1942-0.2165,0.2318-0.186c0.1691-0.4351,0.3343-0.89,0.6137-1.1611c0.6172-0.599,0.9224-1.485,0.9628-1.5016
	c0.1901-0.0782,0.5593,0.557,1.0152,0.539c0.5324-0.0212,0.4979-0.5695,0.5841,0.1892c0.0479,0.4244,0.2758-0.1743,0.1969,0.5167
	c-0.045,0.3933-0.8753,1.7308-1.7195,1.1729c-0.242-0.1604-0.314-0.8049-0.6651-0.1836c-0.1328,0.2356-0.0193,0.6236-0.1847,0.9208
	c-0.4043,0.7288-1.5374,1.4869-1.8985,2.1687c-0.3134,0.5927-0.1864,1.3173-0.6795,2.0889
	c-0.3072,0.4814-1.6514,1.1421-1.6897,1.6249c-0.0131,0.1643,0.071,0.3372,0.2108,0.5037c0.0567,0.0024,0.1079,0.0168,0.1314,0.055
	c0.0112,0.0182-0.0005,0.0456-0.0064,0.0708c0.5107,0.4859,1.5016,0.8731,2.2024,0.7185c0.0275-0.006,0.0789-0.0351,0.1446-0.0775
	c-0.0429-0.213-0.0492-0.4502,0.06-0.7134c0.4206-1.014,2.4403-1.8053,3.3775-0.9629c-0.0268-0.0241,0.0093,0.0392,0.0748,0.1445
	c0.0145-0.0154,0.0341-0.0362,0.0693-0.0735c0.2159-0.2282-0.0004,0.0007-0.0692,0.0735c0.0374,0.0601,0.083,0.132,0.137,0.216
	c0.2933-0.1011,0.5057-0.2138,0.4963-0.4024c0.4406,0.4049,0.6865-0.3522,1.0319-0.4461c0.3137-0.085,0.7493,0.5026,0.8948-0.0587
	c-0.0505,1.2682,2.2221-0.6376,2.2934-1.0168c-0.1271,0.1546-1.7312-0.2335-1.6413-0.2374
	c-0.0017,0.0001-0.0049,0.0032-0.0068,0.0036c-0.0323,0.032-0.0711,0.0581-0.1079,0.086c-0.1284,0.1243-0.3203,0.3115-0.444,0.0984
	c-0.2529-0.4346,0.3587-0.2257,0.4531-0.5597c0.0093-0.0327,0.0089-0.07,0.0043-0.1093c-0.2112-0.042-0.365-0.2109-0.2601-0.5478
	c0.0055-0.0174,0.0193-0.03,0.0281-0.0456c-0.082-0.1912-0.1445-0.3878-0.1004-0.5628c0.0141-0.0557,0.7866-0.7314,0.9263-0.8179
	c0.1874-0.1163,0.8509-1.3576,1.1448-1.2107c0.4215,0.2104-0.2967,0.4364-0.108,0.84c0.1073,0.229,0.6774-0.0666,0.9039,0.0919
	c0.1692,0.1184-0.097,0.491,0.1262,0.6732c-0.072-0.0586,0.6857-0.2204,0.7415,0.1029c0.1021,0.5931-0.4675,0.2003-0.6206,0.4951
	c-0.0779,0.1494,0.1915,0.3611,0.1919,0.4416c0.0013,0.2616-0.4653,0.2916-0.6059,0.7208
	c-0.0482,0.1484,0.0644,0.4076,0.0297,0.4528c-0.4942,0.6443-2.0491,1.1733-1.884,2.3948c0.0385,0.2826,0.3814,0.1607,0.5744,0.0381
	c-0.2775,0.7278-1.0949,2.8061-2.5048,2.89c-0.0227,0.0013-0.7258-0.2081-0.9194-0.3184c-0.1502-0.086-0.307-0.3225-0.4622-0.56
	c-0.0808-0.0199-0.1457-0.0831-0.1583-0.2127c-0.0007-0.0068,0.0032-0.0119,0.0031-0.0187c-0.0835-0.12-0.166-0.2278-0.2453-0.2926
	c-0.4029,0.2997-0.8481,0.5887-1.0983,0.7423c0.1867,0.5024,0.555,0.0958,0.9664,0.1042c-0.1741,0.0594-0.2447,0.1618-0.2858,0.2838
	c0.2683,0.0373,0.5076,0.0937,0.5602,0.2342c0.1142,0.3032-0.3086,0.2042-0.3748,0.3038c-0.2322,0.3491,0.3128,0.1524-0.1139,0.601
	c-0.3926,0.4123-1.0487,0.2119-1.2926,0.3904c-0.0364,0.0267-0.0514,0.1104-0.0606,0.1872
	c0.1328,0.1091,0.3648,0.2636,0.4071,0.2389c-0.0093,0.1746-0.4716,0.4581-0.2683,0.883c0.0789,0.1636,0.3331,0.062,0.3308,0.0539
	c0.0366,0.1249,0.0825,1.2265,0.155,1.1255c-0.3079,0.4264-0.791-0.075-1.3007,0.0854c0.1568-0.0493-0.7228,0.538-0.7019,0.5003
	c-0.0755,0.1358,0.2009,0.4124,0.1258,0.6732c-0.155,0.5359-0.6245,0.4313-0.6678,1.0281
	c-0.0231,0.3299-0.8938,1.2093-1.3937,1.1515c-1.1057-0.1279-0.3565-1.9745-1.902-1.6169c-0.0337-1.42-1.5815,1.1427-1.8871,1.1083
	c-0.0213-0.0024-0.0335-0.0126-0.0446-0.0236c0.0103,0.0916-0.0288,0.1573-0.1908,0.0794c-0.0795-0.0383-0.0062-0.0629-0.0104-0.106
	c-0.036-0.3725,0.1189-0.2208,0.1803-0.0568c0.05-0.3968,1.2075-1.7404-0.0235-1.2501c-0.4068,0.1623,0.0149,0.8919-0.2561,1.0767
	c-0.3297,0.2252-1.0073-0.303-1.4779-0.1302c0.0144-0.0053-0.4801,0.8512-0.4184,1.0874c0.1112,0.4262,0.5406,0.3208,0.1357,0.824
	c0.0855,0.218,0.1104-0.1828,0.3201-0.0967c-0.4175,0.2812-0.2172,0.5739,0.3501,0.3556c-0.5861,0.6093-1.3724,0.599-1.0589,1.2811
	c0.0251,0.0545,1.4673,0.9006,1.2886,0.9754c0.9295-0.3874-0.5198-1.0761-0.1187-1.8096c0.3741-0.6843,0.5726,1.0741,0.8157,1.234
	c0.3395,0.2231,0.1393-0.1892,0.4777-0.1831c0.3645,0.0067,0.6826,0.7177,0.8377,0.3237c0.0856-0.2161-0.72-0.2382-0.3698-0.6569
	c0.221-0.2639,0.806,0.2467,0.6568,0.4327c0.3747-0.0983,0.589-0.0001,0.7126,0.1868c0.0794-0.1282,0.1653-0.2305,0.2457-0.2669
	c0.0231,0.1228-0.0397,0.3577-0.126,0.5849c0.0601,0.4107-0.0677,0.9602-0.202,1.318c0.0032,0.0014,0.0053,0.0027,0.0085,0.0042
	c0.2864,0.13,0.163-0.1894,0.3337-0.1389c0.142,0.0421,0.2729,0.1072,0.3899,0.1867c0.1021-0.5936,0.385-1.2361,0.6207-1.3406
	c0.331-0.1469,0.7067,0.5075,0.9045-0.0593c0.0979-0.2804-0.473-0.6964-0.5066-0.7996c0.0221,0.0662,0.0259-0.5413,0.0408-0.5325
	c-0.2955-0.1718-0.8707,0.3732-1.0455,0.2197c-0.2422-0.2119,0.2755-0.6757,0.393-0.9342c0.1163,0.875,0.7518-0.0498,1.1913-0.3056
	c0.3515-0.2043,0.9286-0.1077,1.0455-0.2198c0.23-0.2204-0.2175-0.7037,0.4028-0.7835c0.2171-0.028-0.0292,0.2997,0.0248,0.377
	c0.1358,0.1924,0.6934-0.3642,0.9802-0.0643c0.123,0.1285-0.1107,0.6437-0.0866,0.9899c0.0125,0.1818-0.0035,0.4179-0.0439,0.6681
	c0.5918-0.093,1.6697,0.0665,1.9062,0.2193c0.3431,0.2225-0.1184,0.7446,0.6516,0.6345c-0.7379,0.5487,0.3055,0.832,0.2779,1.2078
	c-0.0133,0.183-0.4918,0.2398-0.5111,0.2641c-0.1413,0.1775,0.1084,0.3623,0.0033,0.5902
	c-0.0086,0.0186-0.0316,0.0459-0.0627,0.0777c0.245,0.2087,0.3706,0.602,0.2859,0.9424c0.1142,0.0151,0.2556,0.0355,0.3991,0.0499
	c-0.1347-0.1397-0.2123-0.3219-0.1695-0.5015c0.0624-0.261,0.2155-0.3918,0.3954-0.4335c0.049-0.2088,0.1744-0.3602,0.331-0.4915
	c-0.0147-0.0235-0.0362-0.037-0.0399-0.0758c-0.0093-0.0954,0.1448-0.1216,0.2594-0.0873c0.3641-0.2381,0.8034-0.4423,1.0147-0.8782
	c-0.3869,0.5963,0.5479,0.5574,0.6139,0.6411c0.0079,0.01,0.01,0.016,0.0168,0.0252c0.0088-0.0212,0.0177-0.0424,0.0267-0.0636
	c-0.0459-0.0296-0.091-0.0639-0.1347-0.1071c-0.3615-0.3575,0.033-1.4646,0.2212-1.6045c0.1561-0.116,0.134,0.1449,0.3352,0.1297
	c0.3711-0.0291,0.9035-0.7168,1.6876-0.4135c-0.2254,0.3806-0.7194,0.1559-0.8697,0.4354
	c-0.1356,0.2516,0.2934,0.1396,0.3448,0.2803c0.1551,0.4215-0.5526,1.4066-1.2339,1.3892c-0.0771,0.217-0.1714,0.4356-0.2694,0.6545
	c0.0802,0.0572,0.1639,0.1075,0.2156,0.1546c0.356-0.3697,1.0698-0.4892,1.3413-0.9858c0.1169-0.2144-0.0018-0.5019,0.1064-0.6884
	c0.0517-0.0895,0.4285-0.2001,0.4279-0.4067c-0.0021-0.3671-0.3884-0.1306-0.256-0.4375c0.1119-0.259,0.516-0.3461,0.5879-0.2658
	c0.1827,0.2023-0.1083,0.7328,0.0693,1.0556c0.0816,0.1482,0.4401,0.0354,0.6983,0.2571c0.361,0.309,0.2376,0.7313,1.0758,0.2323
	c-0.932,0.8389,0.2852,0.5009,0.4262,0.729c-0.0808-0.1304-0.0928,1.5976-0.1128,1.7492c-0.0288,0.2237-0.5468,0.8095-0.6635,1.3116
	c0.083-0.1061,0.1703-0.2038,0.2495-0.2694c0.0061,0.2534-0.0759,0.338-0.2396,0.53c0.0101,0.0389,0.0188,0.0716,0.0294,0.1073
	c0.0509-0.0668,0.1229-0.1388,0.2361-0.2201c0.0429-0.0308,0.1048-0.0576,0.1754-0.0822c0.0002-0.0002,0.0001-0.0003,0.0003-0.0005
	c0.0002,0.0001,0.0002,0.0002,0.0003,0.0003c0.6052-0.2107,2.1249-0.1975,3.0104-0.0357c0.0346-0.1902,0.1232-0.3897,0.2163-0.4035
	c0.2815-0.0414,0.2559,0.2749,0.1637,0.4948c0.1941,0.0642,0.3054,0.1409,0.2842,0.2286c-0.0447,0.1857-0.3181,0.3095-0.667,0.3957
	c0.1094,0.0856,0.1892,0.1726,0.1903,0.2574c0.0042,0.3321-0.2131,0.5522-0.4928,0.66c0.0651,0.2207,0.0163,0.4853-0.2079,0.6568
	c-0.1852,0.1419-0.4128,0.0979-0.6273,0.0748c0.0914,0.1216,0.2512,0.1729,0.6352,0.0806c0.2593-0.0621,0.8153-0.6607,0.8738-0.6899
	c0.0649-0.1359,0.1119-0.2921-0.0286-0.274c0.935-0.1202,0.5742,1.9697-0.047,1.5933c0.0159,0.0092-0.138-0.5274-0.1098-0.5232
	c-0.2334-0.0361-1.2259,0.7473-1.6798,0.9433c-0.1366,0.0591-0.2961,0.1314-0.463,0.2071c0.0473,0.2362,0.2713,0.578,0.2082,0.865
	c-0.0252,0.1162-0.3425,0.2295-0.3798,0.2477c-0.0487,0.1047-0.4982,0.8585-0.44,0.9419c0.0864,0.1241,0.5547-0.0041,0.3961-0.1773
	c0.0308,0.0331,0.4212,0.5578,0.0543,0.8292c-0.0297,0.022-0.0685,0.0234-0.1107,0.0175c0.071,0.0614,0.1495,0.1555,0.2729,0.2467
	c0.0693-0.1876,0.1869-0.3757,0.3291-0.5169c-0.1037,0.0518-0.226,0.0494-0.2836-0.1006c-0.0564-0.1466,0.014-0.2193,0.1138-0.2443
	c0.0138-0.1914,0.2555-0.5163,0.4425-0.2097c0.0704,0.1155-0.0978,0.2021-0.148,0.2366c-0.0091,0.0063-0.013,0.0052-0.0216,0.0108
	c0.0268,0.0161,0.0496,0.0346,0.0615,0.057c0.0215,0.0403,0.0014,0.0947-0.0375,0.1455c0.2752-0.1977,0.6037-0.2043,0.8454,0.2614
	c0.1594,0.3078-0.0192,0.6279-0.2613,0.8325c0.0413-0.0239,0.087-0.0397,0.1425-0.0403c0.4024-0.0052-0.1395,0.1118,0.0666,0.288
	c0.1399,0.1192,0.2538-0.0004,0.4041-0.0714c0.0211-0.0239,0.0182-0.0205,0.0003-0.0001c0.0924-0.0436,0.1984-0.0689,0.333-0.0089
	c0.7024,0.313-0.2133,1.2264,0.1133,1.7374c0.2393-0.0564,0.5686,0.0086,0.7228-0.0906c0.1622-0.1046,0.3071-0.3718,0.4603-0.648
	c-0.2887-0.2108-0.4444-0.5463-0.2551-0.9732c0.4513-1.017,1.897-0.5947,2.0564,0.165c0.1841,0.0404,0.367,0.0134,0.458-0.3033
	c-0.082,0.1637-0.1153,0.281-0.119,0.3702c0.467-0.3213,1.1193-0.4081,1.5537-0.1708c0.3992-0.1295,0.744-0.2048,0.8389-0.0385
	c0.0581,0.1019-0.2371,0.1906-0.5796,0.2697c0.0286,0.0384,0.0692,0.0637,0.0911,0.1087c0.1222,0.2513,0.1149,0.5047,0.0365,0.7405
	c0.458,0.1293,0.7897,0.3323,0.3081,0.9336c-0.3275,0.4093-0.0153,0.8159-0.0718,1.0266c-0.0073,0.028-0.2942,0.246-0.2667,0.4152
	c0.4627-0.38,0.9259-0.7595,1.3842-1.1254c-0.4904-0.5133-0.9254-1.2001,0.2146-1.6159c0.1064-0.039,0.2683-0.0616,0.4536-0.0782
	c-0.3324-0.0697-0.0717-1.1371,0.4735-0.6939c0.2366,0.192-0.0084,0.4342-0.1281,0.5382c-0.0945,0.0824-0.1734,0.1278-0.2393,0.1477
	c0.5162-0.0391,1.1646-0.0465,1.3795-0.2046c0.6943-0.5103,0.3361-0.6293,0.8443-0.2409c0.1437,0.11,0.237,0.5033,0.6051,0.2651
	c0.0846-0.0548,0.925-1.0999,0.8443-0.2408c-0.0196,0.2119-0.3992,0.1741-0.3851,0.1971c0.165,0.289,1.1658,0.3132,1.1991,0.4234
	c0.0994,0.3215-1.0877,0.6405-0.5195,1.176c0.1656,0.1567,0.2663,0.1953,0.3111,0.2018c-0.0358,0.0078-0.1074,0.0409-0.217,0.1651
	c-0.327,0.3705-0.239,0.4535-0.0455,0.5807c0.2257-0.1011,0.6424-0.1113,0.6727,0.2019c0.0203,0.2086-0.1724,0.3294-0.377,0.3533
	c-0.0673,0.0585-0.1327,0.1164-0.1236,0.1402c0.0819,0.2129,0.5014,0.2178,0.5532,0.323c0.1903,0.3885-0.4717,0.7508-0.3643,1.0007
	c0.2928,0.6824,0.8915-0.0522,1.5752,0.1193c0.0555,0.0142,0.4115,0.7044,0.897,0.2909c0.3458-0.2942,0.0046-0.9576,0.9266-1.1606
	c0.2201-0.0483,1.6676-0.2304,1.7003,0.2147c0.0187,0.2654-0.4529,0.0534-0.5634,0.161c-0.2422,0.2353,0.074,0.868,0.0848,0.8504
	c-0.2366,0.3927-0.6924,0.1627-0.9198,0.4185c0.0959,0.0195,0.1768,0.0852,0.1887,0.2207c0.0099,0.1151-0.1093,0.153-0.2382,0.1432
	c0.0727,0.3163,0.2029,0.7823-0.3122,0.9353c0.0281,0.0258,0.0501,0.0569,0.0536,0.0924c0.003,0.0315-0.0167,0.0627-0.037,0.0928
	c0.2286,0.123,0.2934,0.3396-0.2411,0.5353c-0.061,0.0223-0.1221,0.04-0.1814,0.0516c0.1153,0.0628,0.248,0.1085,0.3792,0.1512
	c0.1724-0.0135,0.3756,0.0617,0.4745,0.1734c0.0951,0.008,0.1738,0.0523,0.2099,0.1491c0.0397,0.1065-0.1025,0.2623-0.2808,0.3615
	c-0.0398,0.1997-0.086,0.3827-0.0613,0.3622c-0.1955,0.163-0.9072-0.0464-1.4657,0.1635c0.2067-0.2597,0.1749-0.7048-0.349-0.3679
	c-0.422,0.2719,0.0547,0.2922,0.0428,0.425c-0.0008,0.0059-0.3556,0.1385-0.1977,0.3405c0.0243,0.0314,0.0549,0.0493,0.0878,0.0625
	c0.4865-0.1864,1.1498-0.2145,1.4857,0.0267c-0.0032-0.0233-0.0066-0.0451-0.0095-0.0755c-0.0011-0.008-0.066-0.0416-0.0628-0.0478
	c0.1699-0.3254,0.183,0.0197,0.1514,0.1873c0.1098,0.1135,0.1615,0.2703,0.1212,0.4787c-0.0913,0.4703-0.7926,0.7111-1.3936,0.6798
	c-0.0168,0.1808,0.1784,0.4901-0.0025,0.7456c-0.2431,0.3433-1.1906,0.3059-0.9735,0.6743
	c-0.3306-0.1785-0.9398-0.0372-1.2475-0.3029c-0.5414-0.4692-0.3409-0.5355-1.3146-0.4123
	c-0.1185,0.0147-0.367-0.0147-0.5208-0.0046c-0.7256,0.0472-0.4994,0.1667-0.3855,0.7878
	c-0.5531-0.6532-0.4556-0.0203-0.0037,0.2647c0.0484-0.0427,0.119-0.0786,0.1288-0.0717c0.0472,0.0351,0.021,0.0927-0.0236,0.1339
	c0.0864,0.0379,0.1804,0.0643,0.2852,0.0659c-0.1585-0.0026,0.4275-0.522,0.5629-0.1605c0.0806,0.2147-0.9944,0.9413-0.0613,1.1325
	c-1.534,0.0677,0.2331,1.0325,0.7315,1.5412c0.267,0.272,0.3233,0.6797,0.3802,1.0447c0.1684,0.1593,0.2722,0.3532,0.2005,0.4966
	c-0.0132,0.0263-0.0384,0.0413-0.0573,0.0623c0.0889,0.1902,0.2053,0.3612,0.3334,0.4541c0.0941-0.0068,0.1908,0.0127,0.2387,0.0647
	c0.0853-0.018,0.1707-0.0796,0.2518-0.2105c0.1034-0.1666,0.5368-0.2886,0.8295-0.2237c0.3383-0.0777,0.5398,0.2122,0.578,0.5332
	c0.1736-0.0332,0.4129-0.1139,0.6993-0.0796c0.1854,0.2263-0.2856,0.1728-0.6934,0.2292c-0.0085,0.2081-0.0862,0.4037-0.2428,0.492
	c0.3305,0.0957,0.8526,0.2535,0.9165,0.2467c0.0627-0.0068,0.1278-0.0318,0.1929-0.0589c-0.2613-0.1227-0.4947-0.2429-0.5943-0.2899
	c0.194-0.0873,0.5725-0.0176,0.9246,0.1005c0.0631-0.0453,0.126-0.0925,0.188-0.1416c-0.1856-0.1342,0.1658-0.4709,0.4076-0.312
	c0.2354-0.1618,0.4345-0.2301,0.5488,0.0076c0.0557,0.1154-0.1441,0.2218-0.377,0.337c0.1219,0.1229,0.2799,0.5521-0.0289,0.2381
	c-0.0086-0.0093-0.0616-0.0365-0.0627-0.0478c-0.0064-0.065-0.0057-0.1089-0.0021-0.1438
	c-0.1222,0.0606-0.2425,0.1246-0.3366,0.1935c0.27,0.1232,0.4664,0.2583,0.4412,0.3381c-0.0362,0.1161-0.2946,0.0548-0.6001-0.0615
	c0.0166,0.0728,0.076,0.1511,0.2067,0.2377c0.1691,0.1126,0.411-0.1625,0.5105-0.102c0.28,0.1708,0.2355,1.0284,0.9291,0.61
	c0.0799-0.0483-0.1491-0.3697-0.1464-0.3078c-0.0025-0.0597,0.0019-0.1087,0.0099-0.1518
	c-0.0749,0.0552-0.1767,0.0776-0.2634-0.0111c-0.1752-0.1791,0.265-0.4224,0.3645-0.1721c0.0017,0.0042-0.0037,0.0115-0.003,0.0163
	c0.2827-0.1839,1.0505,0.4117,1.4145,0.4965c-0.4855,0.1217-0.226,0.3577,0.0138,0.6375c0.5168-0.128,1.0343-0.2479,1.55-0.3878
	c-0.3289,0.2986-0.9085,0.4436-1.4614,0.4978c0.1398,0.1833,0.2348,0.3806,0.087,0.5762c-0.3191,0.422-1.2515-0.2414-1.5432,0.1997
	c-0.1452,0.2192,0.2246,0.188,0.1987,0.2494c-0.1435,0.3383-0.6776,0.5207-0.0828,0.9202
	c-0.0106-0.0071,1.2701,0.4419,1.6693,0.4861c0.73,0.0808,1.1482,0.1305,1.7941,0.5821c-0.8846-0.1103-1.2266,0.3663-2.1063,0.3601
	c-0.8214-0.0064-1.6049-0.9093-2.3469-0.9054c-0.0202,0.0001-1.0008,0.6201-1.2089,0.6509
	c-0.173,0.0258-0.4154-0.3706-0.5321-0.1107c0.1282,0.0522,0.2018,0.1376,0.2447,0.2278c0.0656-0.0095,0.136-0.0174,0.2097-0.024
	c0.1339-0.0969,0.4473-0.1098,0.7467-0.0656c0.022-0.0038,0.0488-0.0066,0.0671-0.011c-0.0052,0.0071-0.0159,0.0127-0.0219,0.0196
	c0.2867,0.048,0.5451,0.1435,0.584,0.2622c0.004,0.0127-0.1147,0.2485-0.1473,0.3221c-0.058,0.1302-0.3935,0.4426-0.5917,0.4431
	c-0.2801,0.0005-0.79-0.3271-0.7883-0.6745c-0.0116,0.0009-0.021,0.0001-0.0324,0.0008c-0.0435,0.2221-0.4843,0.3132-0.7647,0.2289
	c-0.0175,0.1088,0.0167,0.2141,0.0886,0.3167c0.0157-0.0238,0.086-0.1032,0.0939-0.1044c0.2017-0.0189,0.0817,0.1721-0.0167,0.1987
	c0.3019,0.333,0.9189,0.644,1.1758,0.9796c-0.439,0.0674-0.5065,0.1702-0.4306,0.3025c0.3787-0.1623,1.1461,0.0155,0.4773,0.4229
	c-0.0193,0.0118-0.0411,0.0203-0.0615,0.031c0.0927,0.1121,0.158,0.2339,0.1546,0.3635c0.6937-0.1411,1.377-0.2934,1.941-0.375
	c1.0198-0.1476-0.3902,0.5027-0.7512,0.5556c-0.366,0.054-0.8899,0.1107-1.4208,0.1958c-0.0581,0.0467-0.125,0.094-0.2097,0.1424
	c-0.0821,0.0468-0.2613,0.0329-0.4814-0.0096c-0.3834,0.0881-0.7363,0.1985-0.989,0.3472c-0.3816,0.2242-0.521,0.499-0.4758,0.7652
	c0.116,0.018,0.2242,0.0746,0.3129,0.2038c0.0102,0.0014,0.0183-0.0026,0.029,0c0.0929,0.0224,0.1464,0.0793,0.1822,0.1445
	c0.2244-0.0307,0.6782,0.247,0.5153,0.3999c0.0385,0.0233,0.0724,0.0493,0.0742,0.089c0.016,0.3377-0.4284,0.4506-0.8836,0.552
	c0.0812,0.1305,0.0585,0.2927-0.2141,0.4539c-0.0056,0.0034-0.0125,0.0039-0.0182,0.0071c0.2123,0.2196,0.584,0.3586,0.9422,0.4813
	c0.2942-0.0725,0.7419,0.0935,0.7737,0.3193c0.2974,0.1957,0.4034,0.3999,0.3697,0.6115c0.1712-0.0357,0.3696,0.0163,0.5747,0.229
	c0.1853,0.1924,0.1232,0.7055-0.2488,0.8549c0.0024,0.005,0.0096,0.009,0.0114,0.0142c0.0219,0.0604-0.0518,0.2133-0.1682,0.3947
	c0.2543-0.076,0.4991-0.1227,0.7089-0.0078c0.1222-0.1632,0.3002-0.3914,0.2967-0.4234c0.1563-0.0779,0.6367-0.0918,0.9022-0.2928
	c0.3682-0.2784,0.6181-0.2108,0.9846-0.3638c0.0883-0.0371,0.0309-0.2756,0.1341-0.2813c0.2747-0.0148,0.4632,0.3481,0.6684,0.2571
	c0.038-0.0168,0.0606-0.0288,0.0802-0.0398c0.002-0.0422,0.0988-0.055,0,0c-0.0014,0.0296,0.0462,0.0729,0.2496,0.1155
	c0.2241,0.0474,0.3089-0.2984,0.5797-0.1102c0.0043,0.0036-0.1489,0.1672-0.1444,0.1753c0.2456,0.4217,1.2183,1.4068,1.1906,1.763
	c-0.0448,0.5688-1.2231,0.5349-1.6192,1.016c-0.0995,0.1207,0.2089,0.5295-0.1508,0.6584c-0.3461,0.1243-0.1937-0.3708-0.429-0.5487
	c-0.2599-0.196-1.343-0.4231-1.8903-0.6758c-0.1927-0.089-0.4347-0.2467-0.6297-0.4302c-0.3067,0.2221-1.042,0.2016-1.4189,0.2341
	l0.7455,0.7455c0.1694,0.0377,0.343,0.1182,0.5139,0.1713c-0.1151-0.0277-0.2263-0.0137-0.3368,0.0058l1.6559,1.6559
	c0.3377-0.0456,0.6605,0.0005,0.7429,0.2317c0.0605,0.1697,0.0227,0.3215-0.0512,0.46l0.4136,0.4135
	c0.2738-0.2622,0.9862-0.1514,1.6616-0.4788c0.3903-0.189,1.1314-0.8152,1.4959-0.6279c0.23,0.1181,0.2189,0.5769,0.3327,0.6653
	c0.1214,0.0946,0.1556-0.1977,0.2504-0.1851c0.3565,0.0475,0.5063,0.3009,0.532,0.5812c0.2758,0.0639,0.512,0.1751,0.5269,0.2776
	c0.0105,0.0729-0.3251,0.2857-0.6744,0.3648c-0.1504,0.2373-0.385,0.321-0.5903-0.0226c-0.1539-0.258-0.2231-0.0831-0.2697,0.2323
	c0.2794,0.1517,0.5173,0.34,0.4781,0.5314c-0.0302,0.147-0.3,0.2835-0.6621,0.3877c0.4021,0.2155,0.7203,0.5082,0.7175,0.8388
	c-0.0002,0.052-0.3105,0.4754-0.5505,0.6835l1.4858,1.4858l4.777-4.7771c-0.0258-0.055,0.0049-0.1281,0.1053-0.1052l4.674-4.674
	c-0.0587-0.0065-0.1042-0.0176-0.1172-0.0341c-0.0822-0.1062,0.1297-0.1718,0.3394-0.1881l9.6821-9.6821
	c-0.0818-0.0124-0.1648-0.0384-0.2508-0.0929c0.1194,0.0202,0.2335-0.016,0.3519-0.0082l77.7972-77.7973
	c-0.2361-0.1164,0.1149-0.2934,0.0538-0.0537l0.9138-0.9139c-0.3577-0.3413-0.7013-0.7502-0.7453-0.9002
	c-0.1226-0.4154,0.0054-0.9978,0.3254-1.2146c0.708-0.4799,1.1126,0.3976,1.2689,1.2658l2.9477-2.9476
	c-0.1966-1.0688-1.3707-2.7224-0.714-3.2447c0.4188-0.3333,0.7898,1.8663,0.9379,3.0208l1.6287-1.6287l-7.7881-7.7881
	c-0.0065,0.3319-0.0366,0.5733-0.1074,0.6432c-0.2596,0.2566-0.223-0.4982-0.183-0.9336l-3.1187-3.1188
	c0.0053,0.5846-0.5436,1.3859,0.0299,2.0046c0.1308,0.1405,0.4234,0.1062,0.2329,0.4807c-0.6319-0.7747-0.6945,1.6866-1.3934,0.6041
	c-0.319-0.4944-0.8643-0.9252-0.6724-1.6095c0.0757-0.2715,0.6321-0.5791,0.6532-0.6844c0.0793-0.394-0.5804-0.8666-0.1746-1.2929
	c0.2004-0.2109,0.4204-0.2471,0.6188-0.2082l-8.2282-8.2282c-0.0053,0.0921-0.0338,0.2057-0.1276,0.3598
	c-0.1939-0.3074-0.1493-0.4882-0.0624-0.5497l-1.0452-1.0453c0.0031,0.1388-0.0606,0.3312-0.1902,0.2645
	c-0.1751-0.0905-0.0163-0.2468,0.0522-0.3336c0.0144-0.0184,0.025-0.0221,0.0372-0.0317l-3.3505-3.3505
	c-0.2041,0.0556-0.4298-0.0048-0.7049-0.326c-0.473-0.5519-0.0658,0.6349,0.1066,0.6005c0.1056-0.0212,0.2012,0.0858,0.2843,0.2487
	c0.1353,0.0102,0.1494,0.0964,0.0891,0.2085c0.1455,0.4149,0.2235,0.9988,0.1786,1.2701c-0.0941-0.4831-0.3178-0.6858-0.4844-0.9421
	c-0.0932,0.0641-0.1783,0.0956-0.2133,0.0497c-0.086-0.1122-0.0231-0.2434,0.072-0.3545c-0.0318-0.1023-0.0558-0.2151-0.059-0.3589
	c-0.2928,0.3435-0.0215,0.6127-0.3132,0.8933c0.1689-0.3107-0.0681-0.6484-0.3155-0.8104
	c-0.0296,0.0261-0.0707,0.0366-0.1416,0.0001c-0.008-0.0042-0.0228-0.0405-0.0391-0.085c-0.1698-0.0457-0.2909,0.034-0.1993,0.3243
	c-0.0009-0.0031,0.0161-0.0017,0.0268-0.0018c0.0024-0.0362,0.0054-0.0728,0.0188-0.0968c0.1238-0.0095,0.1452,0.029,0.1493,0.0905
	c0.0627-0.0084,0.1185-0.0283,0.1157-0.0911c0.0002,0.0063-0.044,0.1335-0.0935,0.2923c0.008,0.0379,0.0133,0.0756,0.0388,0.117
	c-0.0277,0.0086-0.0476-0.0058-0.0707-0.0114c-0.0691,0.2329-0.1327,0.4905-0.0874,0.5427c0.0761,0.088,0.3321,0.0293,0.585-0.0199
	c0.111-0.2061,0.2652-0.3684,0.4087-0.301c0.0618,0.0289,0.0494,0.1321,0.0049,0.257c0.0402,0.0044,0.0753,0.0133,0.1024,0.0295
	c0.2363,0.1414,0.1692,0.7075,0.2417,1.119c0.2344-0.1851,0.5351-0.1042,0.7874,0.5909c0.0032,0.0004,0.0062,0.0008,0.0093,0.0012
	c0.0338-0.256,0.2582-1.4468,0.0676-1.7523c0.0308,0.0481-0.6139-1.0834,0.1991-0.6188c0.3782,0.2162-0.1738,1.5328-0.012,2.4039
	c0.1652,0.026,0.2992,0.0696,0.3509,0.1893c0.1124,0.2601-0.0163,0.3708-0.1348,0.472c0.0361,0.1457,0.0363,0.305-0.0134,0.4702
	c0.1781,0.1431,0.4246-0.0095,0.5712,0.0033c-0.0205,0.0538,0.472,0.5581,0.4481,0.4418c0.1518,0.7244-0.6992,0.6342-1.0317,0.2503
	c0.2786,0.3707-0.2464,0.142-0.4515,0.4615c0.1465-0.2288,0.0712,1.3012-0.2759,1.2778c-0.1861-0.0124,0.009-0.8964-0.1123-1.1538
	c0.0006,0.0011-0.0247-0.0077-0.0596-0.0211c-0.0088,0.1547-0.0894,0.2755-0.2971,0.2099c-0.1379-0.0438-0.2456-0.3512-0.161-0.5037
	c0.0006-0.001,0.0011-0.0009,0.0017-0.0019c-0.0769-0.1132-0.0569-0.2455,0.2084-0.3779c0.4839-0.2415,0.0281-0.2563-0.3566-0.3993
	c-0.0047,0.0132-0.0044,0.0213-0.0114,0.0365c-0.0735-0.0269-0.1024-0.0589-0.1121-0.0895
	c-0.1962-0.0971-0.3378-0.2442-0.2528-0.5035c-0.1911-0.0337-0.2605,0.2994-0.4968,0.3174
	c-0.3739,0.0294-0.2313-0.3857-0.5724-0.4509c-0.0014-0.0003-0.0017,0.0006-0.0031,0.0003
	c-0.3848,0.8794-0.9144,2.2777,0.1097,1.7849c-0.6096,0.5852,0.3127,1.0026,0.8229,1.0853c0.1009,0.3715-0.336-0.1738-0.478-0.006
	c-0.2969,0.3516,0.4415,0.8279,0.4599,1.4392c0.0033,0.0951-0.4343,0.7068-0.4376,0.6161c0.0211,0.5503,0.6991,0.3075,0.0173,0.5497
	c-0.5309,0.1881-0.4632,1.2069-0.7605,1.5914c-0.0179,0.0229-0.9538,0.2004-0.7981,0.731c0.7214-0.9825,1.5834,0.1655,1.2607,0.4694
	c-0.0185,0.0178,0.444,0.6766-0.3455,0.9035c-0.431,0.1238-0.2866-0.0912-0.7227,0.4689c-0.3698,0.4747-0.2773-1.6377-0.5033-1.822
	c-0.3926-0.3211-0.3588,0.3074-0.6156-0.4376c-0.4633-1.3459-1.918-3.8927,0.0626-5.0171c0.3993-0.2266,0.8057-0.1133,1.056-0.417
	c0.3237-0.3916,0.3856-1.0932,0.4647-1.7835c-0.0188-0.0034-0.0311,0.0047-0.0552-0.0077
	c-0.0825-0.0434-0.0047-0.4416-0.1611-0.5043c-0.1295-0.0521-0.3006,0.0031-0.473,0.0646
	c-0.0815,0.1695-0.2094,0.3242-0.3242,0.2651c-0.059-0.0306-0.0612-0.0912-0.0394-0.1601
	c-0.0936,0.0109-0.1773-0.0018-0.2408-0.0634c-0.2034-0.1968-0.0147-0.8338-0.4116-0.5388c0.085-0.1906,0.0317-0.7887-0.0004-0.9942
	c-0.04-0.026-0.0789-0.0519-0.1185-0.0788c-0.2345,0.0621-0.5982,0.5354-0.5818,0.5399c-0.2639-0.0722-0.1154-0.8299,0.1606-1.2259
	c0.0092-0.1658,0.0305-0.2842-0.1425-0.2919c0.1009,0.0047-0.5606,1.6379-1.0397,0.8418c0.0154,0.0775,0.028,0.153,0.0159,0.2043
	c0.0104-0.0464-0.4803,0.5083-0.5292,0.486c-0.4929-0.2165-0.0124-1.1865,0.0044-1.7318c-0.3259-0.0058-0.6487-0.1853-0.6067-0.4641
	c0.0198-0.1309,0.0892-0.2408,0.1778-0.3332c-0.1652,0.0009-0.2262-0.1001,0.0937-0.3789c0.0105-0.0092,0.178-0.2231,0.2879-0.1715
	c0.209,0.098,0.2275,0.2082,0.1593,0.3045c0.047-0.0019,0.0894,0.0091,0.1327,0.0175c-0.159-0.5321-0.2384-1.062,0.1036-1.5122
	c-0.0248-0.1153-0.0574-0.2272-0.1115-0.3282c-0.0362-0.0676-0.1073-0.0877-0.1739-0.1051
	c-0.1899,0.337-0.4016,0.6709-0.5657,0.9711c-0.0234-0.3788,0.1833-0.7912,0.4287-1.2021c0.0012-0.0093,0.0016-0.0185,0.0031-0.0279
	c-0.0601,0.0475-0.2034,0.1458-0.2271,0.1334c-0.1483-0.0761,0.1675-0.3074,0.248-0.2467c0.1563-0.4961,0.7594-1.0893,0.8781-1.4662
	c-0.0428,0.0266-0.0894,0.049-0.1499,0.0526c-0.2884,0.0174-0.3536-0.324-0.2974-0.5791c-0.0682-0.0466-0.1259-0.11-0.15-0.2248
	c-0.0442-0.211,0.256-0.7895,0.5177-0.9035l-0.1331-0.1332c-0.0111,0.0169-0.0202,0.0377-0.0345,0.0473
	c-0.2716,0.1856-0.539-0.2252-0.4185-0.5003l-1.335-1.335c-0.0077,0.0051-0.0119,0.008-0.0199,0.0133
	c0.0057,0.0047,0.0091,0.0039,0.0152,0.0094c0.3783,0.3436-0.5388,0.586-0.3863,0.2275c-0.1501,0.0909-0.2769,0.1592-0.2982,0.1449
	c-0.0697-0.0462-0.1209-0.1074-0.1602-0.1768c-0.0089-0.0008-0.0238,0.0069-0.032,0.0053c0.0441,0.0084-0.338-0.5654-0.7039-0.8399
	c0.0012,0.1681-0.2823,0.1734-0.3219,0.0626c-0.0216-0.0597,0.0365-0.1411,0.1102-0.1841
	c-0.1827-0.0644-0.3361,0.0061-0.3923,0.3483c-0.0027,0.0157,0.0436,0.1212,0.0624,0.1786
	c-0.2659-0.0003-2.0072,0.5104-0.9962,0.9128c0.2131,0.0851,0.1036-0.3304,0.063-0.3376c0.1496,0.0254,0.165,0.292,0.2699,0.3105
	c0.2077,0.0365,0.4887-0.6043,0.8398-0.5856c-0.5812,0.2829,0.1438,1.035-0.2762,1.2782c-0.2856,0.1649-1.1253-0.5549-1.5175-0.4671
	c-0.6789,0.1523-0.9173,0.7515-1.09,1.3833c0.2945-0.1922,0.6949-0.2708,1.0818-0.2034c0.1708-0.3035,0.3924-0.5189,0.8099-0.0085
	c0.2773,0.3397,1.3956,0.9442,0.9402,1.6032c-0.6615,0.9568-1.9752,2.2586-1.8192,3.6747c0.7851-1.4327,1.1482,0.1613-0.0716,0.578
	c0.3123-0.5602-0.2922-0.1223-0.5491-0.3796c-0.0619-0.0618-0.0446-0.1671,0.0025-0.298c-0.019,0.0061-0.0332,0.0161-0.0591,0.0168
	c-0.5876,0.0168,0.1934-1.1982,0.1819-0.347c-0.0002,0.012-0.0007,0.0225-0.0008,0.0344c0.0808-0.1882,0.1629-0.399,0.1743-0.612
	c0.0415-0.769-0.2367-1.7482-0.608-2.3626c-0.1409-0.0426-0.2715-0.1404-0.3751-0.3418c-0.0269-0.0525-0.03-0.098-0.0496-0.1484
	c-0.3537-0.2379-0.7168-0.0509-0.9448,0.9468c-0.5397-1.7037-1.3792,0.9743-1.0203,1.3568c0.0007,0.0011,0.6006,0.0273,0.6119,0.042
	c0.1659,0.2241,0.1715,1.0152,0.081,1.3229c-0.1249,0.4239-0.8613,2.1426-0.7475,0.8732c0.0434-0.4836-0.017-0.8508-0.0876-1.2595
	c-0.054,0.1046-0.1034,0.2005-0.0088,0.0169c0.0043-0.0084,0.0049-0.0095,0.0088-0.0171c-0.0523-0.3021-0.1098-0.6236-0.1368-1.0478
	c-0.0362-0.5725,0.2068-1.0598,0.2128-1.3829c-0.0145,0.1035-0.1126,0.1256-0.3547-0.082c-0.0258-0.0228-0.1726-0.0823-0.1463-0.191
	c0.0317-0.1308,0.0757-0.1973,0.1236-0.2271c-0.1002-0.0797-0.1914-0.1415-0.2234-0.1347c-0.6643,0.1428-0.1948,2.1397-0.0504,2.911
	c0.0373-0.0523,0.1036-0.1274,0.1637-0.0964c0.2113,0.109,0.0161,0.3069-0.1258,0.3507c0.0002,0.003,0.0011,0.0085,0.0011,0.0112
	c0.0006,0.044,0.0062,0.2661,0.0092,0.5393c0.0022,0.003,0.0065,0.0018,0.0084,0.0054c0.009,0.0177-0.006,0.0335-0.0077,0.0508
	c0.005,0.5388-0.0023,1.2534-0.0783,1.3302c-0.6901,0.6936-0.0175-3.341-1.2336-1.9858c-0.0858,0.0956-1.0654,1.4058-0.9513,1.573
	c0.1488,0.2187,0.5412-0.2193,0.7215-0.1511c0.4094,0.1546,0.3075,0.9425,0.0895,1.082c-0.4567,0.2912-0.5528-0.2205-0.7362-0.1613
	c-0.45,0.1448-0.5578,0.6622-0.6335,1.228c0.0294-0.0387,0.0778-0.0833,0.1663-0.1315c-0.0344,0.2001-0.1362,0.257-0.18,0.2364
	c-0.0591,0.463-0.1096,0.9444-0.3153,1.2749c-0.4544,0.7303-0.5366,1.6638-0.5717,1.6896c-0.1657,0.1218-0.6773-0.4055-1.1153-0.278
	c-0.5116,0.1492-0.3457,0.6729-0.6126-0.0426c-0.1489-0.4003-0.2256,0.2357-0.3158-0.4539
	c-0.0513-0.3924,0.4316-1.8908,1.3855-1.5533c0.2735,0.0973,0.499,0.7054,0.6897,0.0177c0.0721-0.2607-0.1318-0.6099-0.043-0.9382
	c0.2164-0.8048,1.1329-1.8141,1.3187-2.5629c0.1611-0.6509-0.137-1.3233,0.1551-2.1911c0.182-0.5413,1.3269-1.507,1.2475-1.9849
	c-0.027-0.1625-0.1503-0.3101-0.3262-0.4379c-0.0556,0.0114-0.1087,0.0099-0.1408-0.0216c-0.0152-0.015-0.0105-0.0443-0.0108-0.0702
	c-0.613-0.3482-1.668-0.4848-2.3108-0.1656c-0.0252,0.0125-0.068,0.0531-0.1216,0.1102c0.093,0.1963,0.1564,0.425,0.114,0.7067
	c-0.1634,1.0856-1.9323,2.3411-3.0452,1.7498c0.032,0.0169-0.0183-0.0358-0.1074-0.1221c-0.0104,0.0184-0.0243,0.0433-0.0495,0.0881
	c-0.1544,0.2735,0.0003-0.0008,0.0495-0.0881c-0.0508-0.0493-0.1125-0.1081-0.1851-0.1765
	c-0.2603,0.1689-0.4392,0.3295-0.3846,0.5103c-0.5253-0.2866-0.5811,0.5075-0.8936,0.682
	c-0.2839,0.1583-0.8486-0.3068-0.8542,0.2729c-0.2571-1.2428-2.0024,1.1553-1.9801,1.5405c0.086-0.1807,1.7363-0.1914,1.65-0.1659
	c0.0017-0.0005,0.0041-0.0043,0.0058-0.0052c0.0235-0.0389,0.055-0.0735,0.0839-0.1095c0.0948-0.1516,0.2356-0.3796,0.4072-0.2026
	c0.3502,0.3607-0.2936,0.3055-0.3045,0.6525c-0.0011,0.0341,0.0082,0.07,0.0222,0.107c0.2151-0.0102,0.405,0.1166,0.3845,0.4689
	c-0.001,0.0182-0.0115,0.0337-0.0162,0.051c0.1257,0.1657,0.2339,0.3415,0.2332,0.5219c-0.0001,0.0575-0.5866,0.8998-0.7013,1.0174
	c-0.1538,0.1581-0.498,1.5228-0.8186,1.4513c-0.4599-0.1025,0.1825-0.4952-0.0981-0.8413c-0.1594-0.1963-0.6412,0.2281-0.8993,0.129
	c-0.1928-0.0739-0.0245-0.4998-0.285-0.6227c0.084,0.0395-0.6123,0.3794-0.7444,0.0791c-0.2423-0.5509,0.4053-0.3073,0.4828-0.6302
	c0.0394-0.1639-0.2732-0.3043-0.293-0.3823c-0.0644-0.2535,0.3812-0.3953,0.414-0.8457c0.0109-0.1557-0.161-0.38-0.1381-0.4323
	c0.324-0.7445,1.7052-1.6333,1.25-2.7788c-0.1055-0.2649-0.4088-0.0639-0.5665,0.1017c0.0936-0.7733,0.385-2.9874,1.733-3.4092
	c0.0218-0.0068,0.7546,0.0268,0.969,0.0871c0.1666,0.0471,0.3758,0.2388,0.5838,0.4318c0.0832-0.0001,0.1615,0.0454,0.2049,0.1681
	c0.0023,0.0065-0.0002,0.0124,0.0016,0.0189c0.11,0.0963,0.2161,0.1811,0.3087,0.2248c0.3186-0.3881,0.6809-0.776,0.8866-0.9856
	c-0.3025-0.4424-0.5617,0.0411-0.9629,0.1323c0.1545-0.0997,0.1983-0.2161,0.2087-0.3445
	c-0.2693,0.0287-0.5151,0.0317-0.6002-0.0919c-0.184-0.2667,0.2502-0.2727,0.2905-0.3853c0.1409-0.3948-0.3404-0.0724-0.0346-0.6108
	c0.2815-0.4948,0.9666-0.4588,1.1601-0.6908c0.0289-0.0348,0.0233-0.1197,0.0136-0.1964c-0.1552-0.0738-0.4177-0.1677-0.4527-0.1335
	c-0.0332-0.1717,0.347-0.5584,0.0471-0.9217c-0.116-0.1397-0.3382,0.0203-0.3339,0.0275c-0.0658-0.1122-0.3763-1.1702-0.4222-1.0547
	c0.1958-0.4881,0.7857-0.1182,1.2416-0.3968c-0.1403,0.0857,0.5716-0.6967,0.5604-0.6551c0.0405-0.15-0.2946-0.3516-0.2846-0.6229
	c0.021-0.5575,0.5019-0.5693,0.3998-1.1589c-0.0572-0.3257,0.5754-1.3892,1.0745-1.4539c1.1039-0.1429,0.8226,1.83,2.2361,1.1099
	c0.3755,1.3699,1.2588-1.4907,1.5637-1.5311c0.0213-0.0028,0.0356,0.0041,0.0491,0.0122c-0.0321-0.0864-0.0102-0.1597,0.1659-0.1232
	c0.0864,0.0181,0.0212,0.0596,0.0357,0.1004c0.1248,0.3527-0.0621,0.2429-0.1613,0.0987c0.0474,0.3971-0.7516,1.9804,0.3246,1.2074
	c0.3556-0.2558-0.2297-0.862-0.0114-1.1067c0.2485-0.279,0.9485,0.0024,1.3778-0.1901l-2.87-2.87
	c-0.0036,0.0398-0.0136,0.084-0.0403,0.1389c-0.1507,0.3096-0.8417-0.0448-0.7418-0.2612
	c-0.3399,0.1857-0.5715,0.1422-0.7366-0.0093c-0.0461,0.1435-0.1048,0.2636-0.1741,0.3183c-0.052-0.1136-0.0477-0.3567-0.0188-0.598
	c-0.1576-0.384-0.1662-0.9482-0.1222-1.3277c-0.0035-0.0007-0.0058-0.0014-0.0093-0.0021c-0.3093-0.057-0.1124,0.2231-0.2903,0.2154
	c-0.1479-0.0066-0.2907-0.0381-0.4234-0.0871c0.0441,0.6007-0.0752,1.2925-0.2787,1.4508c-0.2858,0.2225-0.8083-0.3219-0.8634,0.276
	c-0.0274,0.2956,0.6271,0.5615,0.6847,0.6536c-0.0375-0.0589,0.1055,0.5315,0.0889,0.5265
	c0.3282,0.0955,0.7548-0.5723,0.9615-0.4655c0.2862,0.1471-0.1042,0.7222-0.1558,1.0013c-0.3242-0.821-0.7176,0.2299-1.0824,0.5842
	c-0.2917,0.2831-0.875,0.3288-0.9614,0.4658c-0.17,0.2694,0.381,0.6303-0.2018,0.8575c-0.2039,0.0796-0.044-0.2979-0.115-0.3599
	c-0.1782-0.1538-0.5851,0.5209-0.9357,0.299c-0.1504-0.0949-0.048-0.6513-0.155-0.9814c-0.0559-0.1734-0.0975-0.4064-0.1186-0.6589
	c-0.5519,0.233-1.6364,0.3385-1.9028,0.2473c-0.3867-0.1331-0.0649-0.7512-0.7855-0.4584c0.5835-0.7105-0.4973-0.7336-0.5612-1.1049
	c-0.0313-0.1808,0.4193-0.3515,0.4321-0.3798c0.0942-0.2063-0.1927-0.3254-0.1457-0.5719c0.0038-0.0202,0.0196-0.0522,0.0421-0.0905
	c-0.2881-0.1434-0.5049-0.4947-0.5049-0.8456c-0.1144,0.013-0.2567,0.0273-0.3994,0.048c0.1644,0.103,0.2838,0.2611,0.2856,0.4457
	c0.0024,0.2684-0.1146,0.4323-0.2791,0.5162c0.0029,0.2144-0.0822,0.3916-0.2025,0.5568c0.02,0.0193,0.0441,0.0272,0.057,0.0639
	c0.0321,0.0904-0.1112,0.1531-0.2307,0.1473c-0.2958,0.3189-0.6728,0.6233-0.7726,1.0974c0.2316-0.6722-0.6662-0.4087-0.7506-0.4741
	c-0.01-0.0078-0.0135-0.013-0.0223-0.0204c-0.0034,0.0228-0.007,0.0454-0.0106,0.0681c0.0517,0.0177,0.1038,0.0401,0.1567,0.0715
	c0.437,0.2597,0.3214,1.4293,0.1727,1.6105c-0.1236,0.1502-0.1652-0.1083-0.3567-0.045c-0.3531,0.1179-0.7037,0.9138-1.5378,0.8088
	c0.1268-0.4238,0.6604-0.325,0.7388-0.6325c0.0708-0.2769-0.3184-0.0647-0.4022-0.1888c-0.2523-0.3716,0.1966-1.4985,0.862-1.6461
	c0.0224-0.2291,0.0611-0.464,0.1034-0.7c-0.0885-0.035-0.1693-0.0645-0.2311-0.0963c-0.2546,0.4467-0.9351,0.7298-1.0791,1.2787
	c-0.0617,0.2362,0.123,0.4866,0.063,0.6937c-0.0286,0.0993-0.3676,0.2976-0.3171,0.498c0.0907,0.3558,0.4084,0.033,0.354,0.3627
	c-0.046,0.2784-0.4171,0.4604-0.5064,0.3998c-0.226-0.1521-0.0717-0.7372-0.3219-1.0075c-0.1151-0.1241-0.4357,0.0719-0.7398-0.0809
	c-0.425-0.2128-0.4071-0.6524-1.1001,0.0343c0.7019-1.0391-0.3977-0.4173-0.5896-0.6046c0.1099,0.107-0.2956-1.5727-0.3128-1.7248
	c-0.026-0.224,0.3352-0.9175,0.3272-1.4328c-0.0549,0.123-0.116,0.2388-0.177,0.3216c-0.0671-0.2445-0.008-0.3464,0.1045-0.5722
	c-0.0192-0.0354-0.0355-0.0649-0.0544-0.097c-0.0333,0.0771-0.0858,0.1643-0.176,0.2706c-0.0342,0.0403-0.0877,0.0811-0.1503,0.1221
	c-0.0001,0.0002-0.0001,0.0003-0.0002,0.0005c-0.0002,0-0.0002-0.0001-0.0004-0.0002c-0.5363,0.3506-2.0142,0.7047-2.9127,0.7614
	c0.0124,0.193-0.0256,0.408-0.1125,0.4438c-0.2632,0.1081-0.3147-0.205-0.2783-0.4407c-0.2038-0.0154-0.3304-0.063-0.331-0.1532
	c-0.0014-0.191,0.2339-0.3771,0.5517-0.545c-0.1268-0.0566-0.2252-0.1218-0.2468-0.2038c-0.0842-0.3213,0.0735-0.5873,0.319-0.7595
	c-0.1166-0.1984-0.133-0.467,0.0431-0.6875c0.1455-0.1825,0.377-0.1947,0.5907-0.224c-0.1182-0.0959-0.2855-0.1072-0.6359,0.075
	c-0.2367,0.123-0.6317,0.838-0.6813,0.8805c-0.0303,0.1475-0.0381,0.3104,0.0939,0.259c-0.8784,0.3423-1.0329-1.7728-0.3391-1.5575
	c-0.0177-0.0052,0.2612,0.4785,0.2329,0.4811c0.2352-0.0213,1.0092-1.0211,1.4023-1.3209c0.1183-0.0903,0.2556-0.199,0.3993-0.3127
	c-0.1028-0.2177-0.4028-0.4953-0.4109-0.7891c-0.0035-0.1189,0.2771-0.3054,0.3087-0.3321
	c0.0221-0.1134,0.2763-0.9534,0.1997-1.0202c-0.1138-0.0997-0.5372,0.1378-0.3415,0.2677c-0.0379-0.0247-0.5435-0.4396-0.253-0.7916
	c0.0235-0.0286,0.0608-0.0393,0.1032-0.0437c-0.0837-0.0425-0.1825-0.1149-0.3244-0.1735c-0.022,0.1988-0.0906,0.4097-0.1946,0.5811
	c0.0882-0.0754,0.2074-0.1026,0.2996,0.0291c0.0901,0.1287,0.0394,0.2161-0.0515,0.2645c0.0328,0.1891-0.1233,0.5627-0.3787,0.3103
	c-0.0963-0.095,0.0461-0.2196,0.0864-0.2653c0.0073-0.0083,0.0114-0.0082,0.0184-0.0156c-0.0299-0.0093-0.0565-0.0218-0.0735-0.0406
	c-0.0305-0.0339-0.0241-0.0915,0.0014-0.1502c-0.2194,0.2583-0.5365,0.344-0.8835-0.0496c-0.2291-0.2602-0.1331-0.6139,0.0525-0.871
	c-0.0343,0.0333-0.0748,0.0595-0.1286,0.0735c-0.3892,0.1022,0.1084-0.1422-0.1341-0.2633
	c-0.1589-0.0791-0.2458,0.0478-0.3671,0.1516c-0.0272,0.0525-0.0209,0.0403-0.0003,0.0003
	c-0.0815,0.0696-0.1756,0.1312-0.3288,0.1041c-0.7571-0.1341-0.0891-1.2417-0.5294-1.6586
	c-0.2186,0.1124-0.5538,0.1289-0.6795,0.2624c-0.1322,0.1406-0.2083,0.4348-0.2902,0.74c0.331,0.1349,0.5631,0.4228,0.4825,0.8827
	c-0.1925,1.096-1.6974,1.0351-2.0355,0.3364c-0.1884,0.0052-0.3594,0.0757-0.3712,0.4049c0.0401-0.1787,0.044-0.3005,0.0261-0.388
	c-0.3757,0.4244-0.9876,0.6661-1.4664,0.5408c-0.3562,0.222-0.6726,0.3784-0.8049,0.2399c-0.0809-0.0849,0.184-0.2423,0.4973-0.4016
	c-0.0369-0.0305-0.0824-0.0451-0.1146-0.0836c-0.1792-0.2142-0.2333-0.462-0.2141-0.7096
	c-0.4757-0.0149-0.8467-0.1319-0.5244-0.8316c0.2189-0.4763-0.1822-0.7955-0.1783-1.0137c0.0005-0.0287,0.2225-0.3053,0.1601-0.4635
	c-0.3576,0.4807-0.7156,0.957-1.0723,1.423c0.5995,0.3797,1.1867,0.9409,0.1811,1.6195c-0.0937,0.0634-0.2454,0.1245-0.4213,0.1853
	c0.3395-0.0126,0.3442,1.0862-0.292,0.7877c-0.2758-0.1292-0.0966-0.4234-0.0056-0.5532c0.0719-0.1028,0.1374-0.1659,0.1966-0.2011
	c-0.4915,0.1626-1.1189,0.3263-1.2893,0.5316c-0.5506,0.6628-0.1742,0.6918-0.7612,0.4376
	c-0.166-0.0721-0.3515-0.4312-0.6511-0.1112c-0.0689,0.0736-0.6322,1.2906-0.7613,0.4375
	c-0.0321-0.2104,0.3454-0.2653,0.3261-0.2842c-0.2298-0.2406-1.2069-0.0226-1.2658-0.1215
	c-0.1741-0.2879,0.9009-0.884,0.2203-1.2666c-0.1986-0.112-0.3057-0.1251-0.3507-0.1206c0.0328-0.0163,0.0944-0.0656,0.1707-0.2127
	c0.2279-0.4384,0.1224-0.4978-0.096-0.5744c-0.1946,0.1526-0.5965,0.263-0.7016-0.0336c-0.07-0.1975,0.0877-0.3612,0.2805-0.4338
	c0.0512-0.073,0.1009-0.1451,0.0863-0.166c-0.131-0.1868-0.5392-0.0903-0.6149-0.1799c-0.2784-0.331,0.2765-0.8424,0.1119-1.059
	c-0.4489-0.5916-0.8525,0.2658-1.5575,0.2645c-0.0571-0.0004-0.5693-0.5842-0.9405-0.0658c-0.2646,0.369,0.2266,0.9305-0.6191,1.35
	c-0.2019,0.1001-1.5627,0.6262-1.7018,0.2022c-0.0822-0.253,0.4266-0.1612,0.5078-0.2923c0.1783-0.2868-0.2813-0.8244-0.2875-0.8047
	c0.1348-0.4382,0.6326-0.3251,0.7915-0.6282c-0.0977,0.0042-0.1922-0.0401-0.2364-0.1688
	c-0.0374-0.1091,0.0692-0.1748,0.1966-0.1963c-0.147-0.2895-0.3857-0.7102,0.0772-0.983c-0.0335-0.0183-0.0623-0.0432-0.0743-0.0768
	c-0.0106-0.0297,0.001-0.0648,0.0135-0.0989c-0.2516-0.0642-0.3667-0.2588,0.1047-0.5777c0.0538-0.0364,0.1088-0.0683,0.1635-0.0939
	c-0.127-0.0331-0.2668-0.0454-0.4045-0.0552c-0.164,0.0547-0.3793,0.0309-0.5022-0.0536c-0.0942,0.0151-0.1813-0.0089-0.2398-0.0941
	c-0.0642-0.0938,0.0362-0.2793,0.1853-0.4185c-0.0095-0.2035-0.009-0.3922-0.028-0.3664c0.1504-0.2053,0.8916-0.1739,1.3829-0.5125
	c-0.1379,0.3019,0.0005,0.7262,0.4275,0.2728c0.3439-0.3657-0.1236-0.2704-0.1441-0.4022
	c-0.0007-0.0058,0.3116-0.2202,0.1097-0.3781c-0.0313-0.0246-0.0653-0.0346-0.1004-0.0394
	c-0.427,0.2983-1.0639,0.4857-1.4482,0.3327c0.0087,0.0218,0.0173,0.0422,0.0275,0.071c0.003,0.0075,0.074,0.0244,0.0725,0.0312
	c-0.0864,0.3568-0.1823,0.0251-0.1922-0.1451c-0.1339-0.0837-0.222-0.2233-0.2331-0.4354
	c-0.0251-0.4784,0.5974-0.8814,1.1882-0.9961c-0.0274-0.1795-0.2914-0.4325-0.1776-0.7241
	c0.1531-0.3919,1.0815-0.5843,0.7819-0.8894c0.3639,0.0935,0.921-0.1908,1.2837-0.0073c0.6387,0.3246,0.4602,0.4374,1.3753,0.0827
	c0.1114-0.0429,0.3597-0.0742,0.5065-0.1212c0.6927-0.221,0.4444-0.2823,0.1839-0.8575c0.6943,0.5002,0.4471-0.0903-0.0603-0.2578
	c-0.0366,0.0531-0.0965,0.105-0.1076,0.1007c-0.0544-0.0227-0.0429-0.0849-0.0096-0.1356
	c-0.0929-0.0159-0.1905-0.0189-0.2926,0.0048c0.1545-0.0357-0.2888,0.6098-0.5074,0.2917c-0.1301-0.1889,0.7376-1.1535-0.214-1.1139
	c1.4722-0.4359-0.4755-0.9456-1.0819-1.3189c-0.3249-0.1995-0.4779-0.5816-0.6213-0.9221c-0.2018-0.114-0.3494-0.277-0.3144-0.4335
	c0.0064-0.0286,0.0273-0.0493,0.0406-0.0742c-0.1322-0.1632-0.2865-0.3011-0.4332-0.3603
	c-0.0897,0.0293-0.1882,0.0338-0.2473-0.0051c-0.0784,0.038-0.1464,0.1185-0.1935,0.2651c-0.06,0.1866-0.4512,0.4096-0.7509,0.4173
	c-0.3095,0.1571-0.575-0.0756-0.6896-0.3778c-0.1605,0.0741-0.3732,0.2102-0.6595,0.2459
	c-0.2345-0.1747,0.2354-0.2366,0.6176-0.3897c-0.042-0.2041-0.0139-0.4126,0.1169-0.5362c-0.3439-0.013-0.8887-0.0401-0.949-0.0181
	c-0.0593,0.0217-0.1163,0.0618-0.173,0.1038c0.2833,0.0561,0.5387,0.1163,0.6467,0.1379c-0.1671,0.1315-0.5513,0.1552-0.9214,0.1256
	c-0.0503,0.0591-0.1,0.1203-0.1483,0.1829c0.2125,0.0851-0.0473,0.4971-0.3203,0.4011c-0.1894,0.2139-0.366,0.3282-0.5344,0.1251
	c-0.0818-0.0985,0.0864-0.25,0.2845-0.418c-0.1479-0.0898-0.4049-0.4683-0.0294-0.238c0.0105,0.0069,0.0686,0.0205,0.0724,0.0312
	c0.0219,0.0615,0.0318,0.1043,0.0368,0.1391c0.1039-0.0883,0.2052-0.1795,0.2799-0.2691c-0.2917-0.0544-0.515-0.1381-0.5099-0.2216
	c0.0072-0.1215,0.2728-0.1243,0.5973-0.0852c-0.0337-0.0667-0.1102-0.1283-0.2579-0.1807
	c-0.1914-0.0685-0.3597,0.2569-0.4708,0.2221c-0.313-0.0981-0.4769-0.9411-1.0489-0.3676
	c-0.0659,0.0662,0.2339,0.3228,0.2163,0.2634c0.017,0.0573,0.0245,0.1059,0.0271,0.1497c0.0594-0.0717,0.1527-0.118,0.2583-0.0529
	c0.2133,0.1316-0.1552,0.474-0.3123,0.255c-0.0025-0.0036,0.0009-0.012-0.0009-0.0164c-0.23,0.2466-1.1189-0.146-1.4926-0.1404
	c0.4418-0.2353,0.1331-0.4017-0.1672-0.6153c-0.4706,0.249-0.9438,0.4902-1.4106,0.7505c0.2471-0.3692,0.7745-0.6498,1.298-0.8359
	c-0.18-0.144-0.3197-0.3126-0.2236-0.5381c0.2078-0.4866,1.2729-0.0679,1.4494-0.5664c0.0881-0.2477-0.2634-0.1282-0.253-0.194
	c0.0575-0.363,0.5318-0.6689-0.1418-0.913c0.012,0.0043-1.3392-0.1222-1.7372-0.0687c-0.728,0.0978-1.1458,0.1506-1.8816-0.1318
	c0.7768-0.0935,1.0394-0.5246,1.6702-0.7682c0.0878-0.0339,0.1823-0.0645,0.2868-0.0897c0.7986-0.1921,1.777,0.4949,2.4961,0.312
	c0.0195-0.0049,0.8215-0.8434,1.016-0.9235c0.1617-0.0668,0.4926,0.2594,0.5431-0.021c-0.137-0.0198-0.2291-0.0848-0.2925-0.1621
	c-0.0614,0.0251-0.1277,0.0498-0.1977,0.074c-0.1065,0.1263-0.4075,0.2145-0.7088,0.244c-0.0204,0.0089-0.0458,0.0181-0.0625,0.0268
	c0.0034-0.0081,0.0125-0.0162,0.0165-0.0243c-0.2897,0.0226-0.5635-0.0076-0.6298-0.1135c-0.007-0.0113,0.0512-0.2688,0.065-0.3481
	c0.0249-0.1404,0.2751-0.5245,0.4673-0.5728c0.2717-0.0681,0.8455,0.1267,0.9278,0.4643c0.0111-0.0038,0.0204-0.0052,0.0313-0.0087
	c-0.0115-0.226,0.3943-0.4209,0.6867-0.4067c-0.0092-0.1099-0.0678-0.2038-0.1623-0.286c-0.0095,0.0269-0.0586,0.121-0.066,0.124
	c-0.1912,0.067-0.1209-0.1473-0.0318-0.1969c-0.3733-0.2502-1.0471-0.403-1.3774-0.6667c0.4097-0.1714,0.4504-0.2874,0.3447-0.3975
	c-0.3283,0.2489-1.1159,0.2617-0.5651-0.2953c0.0158-0.016,0.0349-0.0295,0.0521-0.0448c-0.1171-0.0864-0.2099-0.1889-0.2378-0.3155
	c-0.6391,0.3044-1.2654,0.6172-1.7931,0.8326c-0.9539,0.3894,0.2573-0.5821,0.5949-0.7205c0.3421-0.1408,0.8368-0.3223,1.3314-0.533
	c0.0451-0.0594,0.0986-0.1215,0.1692-0.1889c0.0684-0.0652,0.2458-0.095,0.4696-0.1069c0.3507-0.1781,0.6665-0.3704,0.8758-0.5757
	c0.3162-0.3097,0.3851-0.61,0.277-0.8574c-0.1169,0.0105-0.2356-0.0184-0.3528-0.1223c-0.0102,0.0011-0.0172,0.007-0.0281,0.0071
	c-0.0956,0.0006-0.1613-0.0417-0.2118-0.0963c-0.2104,0.0839-0.7178-0.076-0.5965-0.2637
	c-0.0431-0.0134-0.0823-0.0304-0.0936-0.0684c-0.0971-0.3239,0.3071-0.5408,0.7243-0.7491c-0.1103-0.107-0.1275-0.2699,0.098-0.4921
	c0.0047-0.0046,0.0113-0.0068,0.0161-0.0112c-0.259-0.1618-0.6532-0.2071-1.0305-0.2397c-0.2679,0.1415-0.7426,0.0884-0.828-0.123
	c-0.3358-0.1181-0.4879-0.2906-0.5063-0.5042c-0.1575,0.076-0.3627,0.0734-0.6129-0.0834c-0.2265-0.142-0.29-0.655,0.0349-0.8897
	c-0.0034-0.0043-0.0114-0.0065-0.0144-0.011c-0.0359-0.0534-0.0013-0.2196,0.0679-0.4237c-0.2285,0.1351-0.4548,0.2395-0.686,0.1787
	c-0.0792,0.1879-0.1969,0.4524-0.1858,0.4825c-0.1329,0.1133-0.5957,0.2429-0.8048,0.502c-0.2902,0.359-0.5489,0.3537-0.8676,0.5907
	c-0.0768,0.0573,0.0365,0.2749-0.0622,0.3054c-0.263,0.0807-0.5336-0.226-0.7107-0.0881c-0.0329,0.0254-0.0519,0.0425-0.0683,0.0579
	c0.0083,0.0414-0.0825,0.0772,0,0c-0.0058-0.0291-0.0625-0.0595-0.2701-0.0518c-0.2289,0.0081-0.2277,0.3641-0.536,0.2468
	c-0.005-0.0024,0.1042-0.1981,0.0978-0.2049c-0.3401-0.3499-1.5218-1.0711-1.581-1.4235c-0.0938-0.5627,1.0578-0.8143,1.3261-1.3767
	c0.0674-0.1412-0.3306-0.4634-0.0127-0.6754c0.3059-0.2042,0.2776,0.313,0.5489,0.4289c0.2995,0.1275,1.4054,0.0864,1.9975,0.1995
	c0.2085,0.0398,0.4814,0.1344,0.7149,0.2654c0.3229-0.3831,1.4784-0.5354,1.5271-0.6807c0.0529-0.1574-0.4032-0.0332-0.3242-0.396
	c0.2421-0.0721,0.4782,0.1195,0.7258,0.3131c0.4132-0.2366,1.3471-0.4584,2.0049-0.624c-0.1278-0.1783-0.1592-0.4188-0.365-0.5237
	c-0.0844,0.1491-0.1828,0.2951-0.2291,0.3102c-0.0947,0.0308-0.8293-0.2268-1.3902-0.5129
	c-0.2237-0.0117-0.4159-0.0621-0.4614-0.1428c-0.0274-0.0485-0.0275-0.0972-0.0117-0.1447
	c-0.0047-0.0036-0.0117-0.0075-0.0161-0.011c-0.195-0.1581-0.0196-0.3987-0.1797-0.5036c-0.5418-0.3552-1.4492,0.0617-1.9901-0.0934
	c0.0271,0.0079-0.1282-0.0767-0.3416-0.1907c0.0025,0.0364,0.0143,0.0615,0.0134,0.102c-0.0084,0.3662-1.2416,1.0574-1.5433,0.6033
	c-0.259-0.3902,0.0345-0.8369,0.4321-1.0832c-0.0102-0.0298-0.0202-0.0602-0.0274-0.0998c-0.0094-0.051,0.0069-0.0796,0.0297-0.1083
	c-0.0466-0.0262-0.0758-0.0435-0.081-0.0488c-0.01-0.01-0.0002-0.0269,0.0066-0.0428c-0.2697,0.0282-0.5308,0.0669-0.7633,0.1382
	c-0.0105,0.0032-0.0164,0.0086-0.0265,0.012c-0.0246,0.1921-0.0671,0.3685-0.1251,0.4658
	c-0.1955,0.3273-0.9234,0.3878-1.5045,0.8725c-0.3331,0.2776-0.9011,1.0642-1.3001,0.9704
	c-0.2516-0.059-0.3517-0.5069-0.4835-0.5652c-0.1406-0.0625-0.1032,0.2294-0.1983,0.24c-0.3574,0.04-0.5639-0.1698-0.6565-0.4356
	c-0.283,0.0046-0.5392-0.0463-0.5783-0.1422c-0.0278-0.0681,0.2464-0.3557,0.5663-0.5168c0.0887-0.2666,0.2962-0.4043,0.5783-0.1206
	c0.2117,0.2132,0.2367,0.0269,0.2057-0.2905c-0.3078-0.0798-0.5841-0.2051-0.5922-0.4002c-0.0063-0.15,0.2226-0.3476,0.5489-0.5362
	c-0.4422-0.112-0.8217-0.3192-0.8988-0.6407c-0.0147-0.0604,0.2745-0.7656,0.474-0.9316c0.2463-0.2051,0.9941-0.2651,1.0472-0.4647
	c0.0357-0.1341-0.1999-0.1163-0.3583-0.0574c-0.0199,0.0436-0.0604,0.0869-0.1145,0.1274c0.0091,0.0097,0.0137,0.0198,0.0345,0.0284
	c-0.0176-0.0072-0.0276-0.0153-0.0418-0.023c-0.1898,0.1376-0.537,0.2222-0.8028,0.0215c0.0345,0.0257,0.0425-0.0964,0.0302-0.2268
	c-0.0435,0.0072-0.0814,0.0079-0.1028-0.0032c-0.0838-0.0434-0.0227-0.1144,0.0725-0.1684
	c-0.0165-0.0593-0.0378-0.1032-0.0639-0.106c0.1771-0.1117,0.7807-0.1149,0.9565,0.1444c0.2934-0.1537,0.8042-0.2141,0.7818,0.0962
	c-0.0058,0.0797-0.3214,0.1945-0.286,0.2468c0.1341,0.1996,0.3493,0.0068,0.4165,0.0176c0.3232,0.0528,0.5608,0.2049,0.7246,0.3982
	c0.2178-0.0715,0.531-0.0537,0.6244,0.1846c0.0904,0.2316-0.1508,0.3097-0.3986,0.2844c0.0097,0.0619,0.0075,0.1247,0.0045,0.1875
	c0.3795-0.0831,0.7325-0.0666,1.0821,0.1913c0.0313,0.0229-0.1701,0.1416-0.1371,0.2405c0.2697-0.1377,0.5912-0.3072,0.9284-0.4489
	c-0.0156-0.0074-0.0322-0.0154-0.0446-0.0213c0.0094,0.0044,0.0303,0.0144,0.0446,0.0213c0.0573-0.0242,0.1122-0.0536,0.17-0.0749
	c-0.1788-0.0691-0.3163-0.1707-0.3307-0.3368c-0.045-0.5213,1.3504-0.2555,0.6581,0.253c0.0299-0.0071,0.0598-0.0171,0.0895-0.0227
	c0.313-0.1484,0.8258-0.4184,0.6981-0.6288c-0.1459-0.2405-0.7695,0.1209-0.9159-0.1859c-0.0937-0.1964,0.8201-0.8204,0.8291-0.8602
	c0.002-0.0095-0.0241-0.0458-0.0568-0.0847c-0.5493,0.3703-1.3242,0.5009-1.9179,0.3202c-0.5546-0.1687-0.6206-0.8279-0.8557-0.9678
	c-0.4686,0.0846-0.9375,0.1627-1.3693,0.2359c0.2246-0.1462,0.4961-0.2652,0.7937-0.3634
	c-0.0683-0.2109,0.1691-0.0226,0.3031-0.1717c0.0762-0.085,0.0785-0.2418,0.0699-0.4214c-0.08,0.0363-0.189,0.0342-0.317-0.0627
	c-0.1447-0.1096,0.1326-0.1849,0.3075-0.1602c-0.0028-0.0652-0.0058-0.1309-0.0034-0.1962
	c0.0103-0.2696,0.0219-0.5717,0.0301-0.8764c-0.0618,0.001-0.1246-0.0125-0.1537-0.0541c-0.0328-0.0467-0.0274-0.0775-0.0035-0.0978
	c-0.0328-0.0125-0.0639-0.0271-0.0835-0.0526c-0.0793-0.1035,0.0621-0.2372,0.2477-0.3268
	c-0.0002-0.3231-0.0083-0.6366-0.0409-0.8984c-0.0125-0.1012-0.0055-0.2131,0.0021-0.3243
	c-0.0658-0.0003-0.1236-0.0082-0.1459-0.0341c-0.0794-0.0933,0.0392-0.2122,0.1797-0.2479c0.0628-0.367,0.1759-0.7174,0.2254-0.8698
	c0.0013-0.0042,0.0023-0.0051,0.0036-0.009c-0.3618,0.0726-0.8674-0.1175-0.9335-0.299c-0.1248-0.3415,0.1893-0.51,0.5599-0.5909
	l-0.6165-0.6165c0.0084,0.664-0.2533,1.4392-0.7561,1.5763c-0.228,0.0619-1.2856-0.1076-1.3542-0.1438
	c-0.0371-0.02-0.0498-0.4109-0.2469-0.5361c-0.7441-0.4731,0.0763-0.2997-1.0259-0.6569c0.2541-0.1732,0.743-0.5322,0.7966-0.7922
	c-0.0113,0.054-0.1265-0.3583-0.208-0.2664c0.3901-0.4411,0.9995,0.0528,1.5435-0.4319l-0.0031-0.003
	c-0.3097,0.0145-0.4975-0.0932-0.6325-0.2601c-0.2326,0.2923-0.4617,0.3372-0.4647-0.2757
	c-0.4116,1.1527-2.7476,0.9222-2.7953-0.1009C110.57,0.1241,110.5946,0.0689,110.6286,0c-0.0827,0.0109-0.1654,0.0183-0.2488,0.0244
	c-0.2847,0.7738-1.2304,0.9004-2.0185,0.7792c0.1126,0.0172,0.0015-0.0524-0.1506-0.1396
	c-0.5944,0.3343-1.2062,0.8737-1.7616,0.9261c-0.2668,0.0251-0.5001-0.1131-0.7552-0.0565
	c-0.3857,0.0855-1.0493,0.8699-1.5812,0.786c-0.3962-0.0624-0.1406-0.03-0.6575,0.08c-0.1688,0.0357-0.6492,0.3011-0.8585,0.4129
	c-0.3275,0.174-1.1014,0.5036-1.1449,0.5502c-0.3771,0.3986,0.0728,0.4089-0.511,0.2847c-0.108-0.023-0.2451,0.0361-0.3902,0.1178
	c0.1103-0.0104,0.2174-0.0049,0.2543,0.037c0.1838,0.2059-0.4471,0.4141-0.5632,0.1571c-0.1295,0.0902-0.2594,0.1818-0.3831,0.2555
	c-0.0023,0.1002,0.0101,0.2434,0.0238,0.2492c0.8503,0.3656,1.3819-0.1264,0.8657,0.8845c-0.0905,0.178,0.2222,0.1117,0.1078,0.3021
	c-0.2917,0.4856-0.7218-0.2516-0.6506-0.2809c-0.2817,0.1162-0.2569,0.5105,0.36,0.6665c-0.1074,0.1319-0.9,0.1382-1.0136,0.0731
	c-0.0572-0.033-0.6426-0.7976-0.893-1.1301c-0.2172,0.1087-0.4637,0.2181-0.6451,0.3376c-0.4813,0.3166-1.2448,0.4227-1.7531,0.6986
	c-0.3569,0.1932-0.1852,0.2456-0.6346,0.2655c-0.2441,0.0109-0.3264,0.1908-0.5725,0.2752
	c-0.5325,0.1829-1.2447,0.4423-1.8125,0.6623c0.0806,0.0479,0.1841,0.1095,0.0583,0.035c-0.0281-0.0167-0.0404-0.024-0.0586-0.0349
	c-0.1801,0.0698-0.3475,0.1361-0.4876,0.1941c-0.0978,0.0404-1.0572,0.1064-1.0314,0.325c0.0113,0.0949,1.7076-0.3327,1.3816,0.7
	c-0.0334,0.1059-0.1245,0.181-0.2371,0.2428c0.9918-0.1167,2.3545-0.074,3.4296,0.3043c-0.0172-0.7758-2.1594-0.6517-2.0773-1.377
	c0.0786-0.6962,1.6326,0.0482,2.1215-0.4111c0.1735-0.1635-0.1377-0.2984,0.0943-0.3734c0.2977-0.0961,1.1343,0.3508,1.0071-0.3567
	c-0.1346-0.7481,2.6959,0.7185,2.9682,1.4992c0.1661,0.4783-0.1502,1.429-0.4428,1.6305c-0.0303,0.0203-1.5923,0.2734-1.7189,0.2686
	c-0.26-0.0105-0.5414-0.1089-0.825-0.2171c0.0813,0.0787,0.1706,0.1517,0.2363,0.2415c0.1846,0.2524,0.3051,0.8855,0.069,1.2217
	c-0.7483,1.067-3.4857,0.6484-4.6369,0.2754c0.1008,0.1477,0.1324,0.3355,0.0587,0.5668c-0.2484,0.7791-2.3374,0.4498-2.3841-0.3247
	c-0.0858,0.182-0.5214,0.0111-0.5293-0.0603c-0.0227-0.2065,0.4684-0.3941,0.5395-0.0777c0.1024-0.4175,0.8991-0.6047,1.55-0.4978
	c0.1641-0.0759,0.5902-0.2098,0.8082-0.7583c0.003-0.0075-0.0428-0.4142-0.0712-0.3715c0.1601-0.2406,0.7011-0.3486,0.725-0.5381
	c0.0609-0.4699-0.8651-0.2895-1.3818-0.5119c-0.7146,0.091-1.7321-0.1266-1.9173-0.4171c-0.0351-0.0549,0.0589-0.2905,0.0028-0.3029
	c-0.1129-0.0245-0.2451,0.041-0.3971,0.1475c-0.2357,0.1652-0.5199,0.4311-0.8618,0.6281
	c-0.1273,0.0734-0.2626,0.1355-0.3995,0.1935c0.5475,0.5864,0.1047,0.7936-0.4224,0.7826
	c-0.1773,0.0868-0.4599,0.1174-0.5342,0.0602c-0.0485-0.0373-0.0291-0.0864,0.0238-0.1357
	c-0.1882-0.0534-0.3465-0.1307-0.4188-0.2254c-0.0814,0.0355-0.156,0.0719-0.2135,0.1119
	c-0.1492,0.1036-0.1773,0.3298-0.2764,0.3816c-0.1406,0.0746-0.4016,0.0191-0.4586,0.0505
	c-0.3147,0.1701-0.5227,0.4079-0.8447,0.5588c0.1618,0.0521,0.0927,0.2519-0.3663,0.4017c-0.2581,0.0841-0.296,0.284-0.6883,0.4713
	c-0.8363,0.3995-1.9666,0.7199-2.9356,1.0469l-0.2531,0.2531c0.0444,0.0066,0.0883,0.0158,0.1366,0.0037
	c0.2465-0.0618,0.6435,0.1733,0.9434,0.5381c0.1131-0.0125,0.1821,0.1208,0.1217,0.1596c0.194,0.2906,0.3176,0.638,0.2692,0.9855
	c-0.1938,1.3899-2.7554,1.6333-4.4097,1.2518L25.2441,69.0203c0.0446,0.1654-0.1113,0.2984-0.1568,0.3624
	c-0.0953,0.1337-0.1524,0.0826-0.1791-0.0265L13.5724,80.6921c0.0789,0.1812,0.357,0.8814,0.3034,1.313
	c-0.1034,0.84-1.3386,1.0737-1.941,0.3245l-0.1059,0.1059c0.1368,0.1759-0.0103,0.2946-0.0948,0.3916
	c-0.0961,0.1097-0.1476,0.0026-0.1583-0.1385L7.4574,86.807c-0.0019,0.0027-0.0026,0.0084-0.0046,0.0109
	c-0.0082,0.0102-0.0146,0.0081-0.0225,0.0163l-4.9894,4.9893c0.3452,0.4513,0.3284,1.2763,0.5874,1.4173
	c0.097,0.0528,0.1756-0.1002,0.141-0.1605c0.2753,0.4837,0.224,1.4167,0.2904,2.2218c-0.0363-0.1731-0.0874-0.2963-0.1669-0.3371
	c-0.0719-0.037-0.9584,0.5137-1.2572,0.4606c-0.6837-0.1206-1.0859-1.2366-1.0707-2.1261L0,94.2645l12.2162,12.2162
	C11.8176,106.0268,12.1274,104.9101,12.2258,106.4903z"/>
</g>
</svg>
