<?xml version="1.0" encoding="utf-8"?>
<!-- Generator: Adobe Illustrator 23.0.1, SVG Export Plug-In . SVG Version: 6.00 Build 0)  -->
<svg version="1.1" id="XMLID_2_" xmlns="http://www.w3.org/2000/svg" xmlns:xlink="http://www.w3.org/1999/xlink" x="0px" y="0px"
	 viewBox="0 0 207.4425 168.5443" enable-background="new 0 0 207.4425 168.5443" xml:space="preserve">

<g id="P">
<path fill="#FFC033" d="M206.7998,114.3811c-0.0601-0.0258-0.1378,0.0097-0.2068,0.0046c-0.5533-0.0414-1.1066-0.0857-1.66-0.1292
	c-0.0043-0.0532-0.0086-0.1064-0.0129-0.1595c0.5802-0.1777,1.1611-0.3525,1.7401-0.5354c0.1162-0.0368,0.3155,0.1192,0.3366-0.1385
	c0.0186-0.2267-0.1826-0.1978-0.3032-0.248c-0.0973-0.0405-0.2002-0.0844-0.3015-0.0872c-1.1169-0.0315-2.2453,0.0515-3.3036-0.5105
	c-0.082-0.0437-0.2806-0.0202-0.2918,0.021c-0.128,0.4706-0.3423,0.1393-0.3971,0.0149c-0.1112-0.2532-0.3074-0.2054-0.4626-0.3011
	c-0.5155-0.3178-1.1779-0.0478-1.6303-0.5764c-0.0961-0.0768-0.2472,0.0047-0.3169-0.1488
	c-0.1952-0.4302-0.5223-0.3669-0.8485-0.3071c-0.1005-0.0136-0.2009-0.0271-0.3013-0.0407
	c-0.6073-0.1869-1.2342-0.2537-1.8425-0.4699c-0.2924-0.1039-0.762-0.2082-1.039,0.253c-0.0519,0.0866-0.1325,0.1262-0.2265,0.0847
	c-0.5097-0.2251-1.063-0.0652-1.578-0.2428c-0.0086-0.1212,0.1647-0.2453-0.0809-0.3587c-0.3724-0.1721-0.694-0.2816-0.9865,0.1369
	c-0.6698-0.0603-1.3183-0.2042-1.9562-0.4771c-0.3839-0.1643-0.7135-0.6097-1.1956-0.4042
	c-0.0238,0.0101-0.0822-0.0505-0.1079-0.0921c-0.1895-0.306-0.5015-0.1391-0.7427-0.2569c-0.0895-0.0438-0.2674-0.0006-0.2419,0.207
	c0.0189,0.1551,0.1709,0.1846,0.2473,0.1281c0.3347-0.2472,0.575,0.1217,0.8637,0.1496c0.2253,0.0216,0.1767,0.229,0.1489,0.3551
	c-0.0456,0.2079-0.1664,0.2337-0.3061,0.0714c-0.1966-0.2283-0.5438-0.1558-0.5902-0.0086
	c-0.2198,0.6982-0.5533,0.2882-0.8541,0.175c-0.3178-0.1198-0.6067-0.2752-0.976-0.2215c-0.5641,0.0819-1.1343,0.1986-1.7098,0.1231
	c-0.0317-0.0774-0.0632-0.1547-0.0949-0.232c0.1908-0.159,0.0939-0.2818-0.0572-0.3284c-0.1507-0.0464-0.362,0.013-0.3785,0.1915
	c-0.022,0.2381,0.1967,0.1012,0.305,0.1457c-0.0163,0.3703-0.28,0.1646-0.4209,0.2448c-0.6851-0.1472-1.3772-0.2193-2.0719-0.2644
	c-0.1963-0.3471-0.1693-0.52,0.2408-0.4929c0.407,0.0269,0.8156,0.1915,1.2251,0.0164c0.0912-0.1207,0.3308-0.1496,0.2206-0.395
	c-0.0734-0.1636-0.2096-0.0766-0.3185-0.0176c-0.1436,0.0777-0.2667-0.0351-0.4-0.0513c-0.5903-0.0723-1.151-0.4224-1.7752-0.2089
	c-0.2636,0.0901-0.3363,0.1705-0.1322,0.4177c-0.0452,0.1569-0.3149,0.1591-0.2516,0.3367c0.214,0.6012-0.2347,0.2895-0.3765,0.3949
	c-0.1133-0.0338-0.1995-0.1297-0.3395-0.1128c-1.3683,0.1659-2.7369-0.015-4.1148,0.0005c0.3639-0.0819,0.7045-0.2176,0.9727-0.4926
	c0.1582-0.1622,0.3021-0.2135,0.5055-0.2242c0.8627-0.0448,0.8623-0.0553,0.9759-1.0565c0.0022-0.0199,0.009-0.0392,0.0137-0.0586
	c0.2388-0.2466,0.4394-0.5877,0.839-0.3083c0.1087,0.0761,0.3141-0.0365,0.3459-0.1872c0.1125-0.5322,0.4797-0.5332,0.8285-0.6221
	c0.184-0.0469,0.4955,0.0853,0.4875-0.3475c0.0417-0.0702,0.0836-0.1403,0.1253-0.2105c0.7321-0.3194,1.509-0.458,2.2373-0.8178
	c0.4646-0.2295,0.9814-0.3194,1.4004-0.6861c0.5463-0.1048,0.8522-0.5749,1.1865-1.0074c-0.5349,0.06-1.0159,0.2727-1.4946,0.4912
	c-0.0347,0.0104-0.0689,0.0239-0.1016,0.0464h-0.0002c-0.3325-0.0487-0.543,0.2994-0.8446,0.3514l-0.001,0.0007
	c-0.1511-0.0473-0.2659,0.0561-0.3805,0.1362c-0.5237,0.3662-1.0981,0.4782-1.6972,0.4763c-0.0001,0-0.0001,0-0.0001,0
	c-0.3898-0.258-0.7758-0.5186-1.2499-0.2602c-0.1059,0.0578-0.2541,0.0661-0.3216-0.0794c-0.0931-0.2002,0.0703-0.289,0.1752-0.3708
	c0.2389-0.1865,0.5388-0.2755,0.6882-0.601c0.1544,0.0024,0.3041-0.0005,0.4566,0.071c0.3451,0.1619,1.6032-0.2148,1.6866-0.592
	c0.1855-0.8399,0.7154-0.7707,1.2467-0.8325c0.3141-0.0367,0.7115,0.0687,0.9185-0.2803c0.4544-0.7658,1.1501-0.9553,1.847-1.1698
	c0.5489,0.0299,0.9004-0.346,1.0665-0.8726c0.1678-0.5326,0.4392-0.8049,0.9006-0.8492c0.1721-0.0164,0.3288-0.033,0.3041-0.2906
	c-0.0334-0.3453,0.1511-0.6098,0.2254-0.9144c0.6575-0.3846,1.0346-1.1725,1.6783-1.5799c0.1261-0.0799,0.1293-0.2821,0.2025-0.4059
	c0.2859-0.4823,0.4124-1.1743,0.9685-1.3371c1.1237-0.3286,1.7676-1.4226,2.6358-2.1528c0.304-0.2557,0.5524-0.5958,0.9194-0.7597
	c0.3885-0.1735,0.6169-0.564,0.5178-0.9996c-0.1733-0.7608,0.0917-1.258,0.5146-1.7631c0.167-0.1993,0.3193-0.4612,0.4704-0.6739
	c0.2726-0.3838,0.4657-0.9258,0.9642-1.0443c0.3238,0.0745,0.4231-0.3304,0.6965-0.4366c0.5957-0.2312,1.1063-0.6985,1.6002-1.1675
	c0.1667-0.1582-0.0153-0.8937,0.5301-0.4553c0.0096,0.0077,0.0672-0.0959,0.112-0.1122c0.6583-0.239,0.6834-1.0318,1.0137-1.5568
	c0.2438-0.3876,0.0471-0.4934-0.244-0.5223c-0.117-0.0116-0.2379,0.0408-0.3577,0.0567c-0.5764,0.0766-0.9405-0.1601-1.1159-0.713
	c-0.015-0.0473-0.0893-0.1164-0.1126-0.1056c-0.3058,0.1394-0.4332-0.1062-0.6644-0.2688
	c-0.3602-0.2536-0.4771-0.6372-0.5718-0.9682c-0.201-0.7022-0.5623-1.1781-1.0923-1.5258c-0.0001,0-0.0001,0.0001-0.0001,0.0001
	c-0.04-0.2558-0.0747-0.2944-0.4022-0.3601c-0.1513-0.0302-0.388,0.0024-0.3729-0.2201c0.0304-0.4475-0.2147-0.9212-0.001-1.3244
	c0.3938-0.7432-0.2089-1.062-0.4764-1.4263c-0.2333-0.3179-0.2531,0.2794-0.4298,0.3736c-0.0454,0.0242-0.1028,0.03-0.1535,0.0261
	c-0.4829-0.0365-0.88,0.2766-1.3185,0.4162c-0.4515,0.1438-0.9446,0.2447-1.4028,0.1864c-0.4306-0.0547-0.8334-0.2177-1.2449,0.0655
	c-0.1254,0.0863-0.2819,0.1157-0.3377-0.1051c-0.0869-0.345-0.2064-0.6954-0.2155-1.0469
	c-0.0132-0.5169-0.1893-0.7537-0.6289-0.7293c-0.213-0.193-0.5885-0.1234-0.653-0.5629c-0.0202-0.1376-0.1127-0.1282-0.1864-0.0365
	c-0.5017,0.6237-0.938,0.3349-1.3624-0.1296l0,0c-0.0185-0.058-0.0214-0.1183-0.0348-0.177
	c0.1256-0.0714,0.2406-0.1732,0.308-0.3399c0.1637-0.0548,0.2701-0.3452,0.4476-0.2503c0.8668,0.4635,1.3562-0.5642,2.0733-0.7315
	c0.27-0.0632,0.6041-0.3747,0.9501-0.457c0.1869-0.0444,0.3722-0.0565,0.4661-0.289c0.4177-0.3356,0.9702-0.3288,1.3637-0.7258
	c0.1966-0.0596,0.4743-0.0635,0.4641-0.3735c-0.012-0.3585-0.2961-0.1328-0.4503-0.1978c-0.4424-0.1867-0.7683,0.1919-1.1496,0.2784
	c-1.164,0.264-2.2231,0.8784-3.3464,1.2742c-0.4524,0.1595-0.9027,0.3541-1.3614,0.4566c-0.1975-0.3139-0.5966-0.4248-1.11-0.2057
	c0.2827,0.0028,0.4223,0.1428,0.5431,0.2787c-0.2668,0.0061-0.4373,0.0328-0.5652,0.2798
	c-0.1355-0.1782-0.2739-0.4627-0.3986,0.1231c-0.0223,0.1054-0.1467,0.062-0.2293,0.057c-0.1376-0.0081-0.0814-0.114-0.0908-0.2075
	c-0.0869-0.8608-0.2729-1.0533-1.0264-1.0859c-0.0395-0.0086-0.079-0.0117-0.1185-0.0169c0.3776-0.4786,0.859-0.8358,1.1278-1.4138
	c0.2281-0.4909,0.7622-0.607,1.0145-1.0765c0.9353-0.9816,1.795-2.0484,2.6179-3.1565c0.2155-0.0714,0.314-0.3323,0.3381-0.4995
	c0.1481-1.0283,0.8935-1.7699,0.9731-2.8249c0.0164-0.2161,0.0653-0.4442,0.2535-0.5723c0.0995-0.0113,0.1372-0.0953,0.1811-0.1867
	c0.3931-0.8202-0.0137-1.5459-0.2756-2.2264c-0.2095-0.544-0.4551-1.1455-0.9673-1.4591c-0.5193-0.7051-1.1705-1.1831-1.9241-1.4638
	c-0.4473-0.1668-0.8846-0.3653-1.2635-0.6772c-0.8299-0.6829-1.7838-1.015-2.7193-1.4176c-0.8951-0.385-1.8065-0.7553-2.6311-1.5318
	c1.1292-0.1902,2.1142-0.7588,3.2066-0.6336c-0.0662,0.1457-0.3918,0.0373-0.2788,0.3111c0.0674,0.1637,0.2846,0.0354,0.4352,0.0321
	c0.2407-0.0053,0.2377-0.159,0.1694-0.3581c0.6728,0.0298,1.3472,0.0998,2.0118-0.098c0.267-0.0795,0.5176,0.034,0.7683,0.1012
	c0.2046,0.0548,0.3661,0.142,0.3158,0.4909c-0.0146,0.1024-0.0929,0.3609,0.165,0.5775c0.4979,0.4187,1.0234,0.2534,1.5309,0.36
	c1.719,0.3609,3.3107-0.1903,4.8685-0.9499c0.2219-0.1083,0.4254-0.0567,0.6469-0.0562c0.4572,0.0006,0.9173,0.4779,1.4741-0.0132
	c-0.5106-0.1109-0.9263-0.2202-1.3472-0.2838c-0.1851-0.0279-0.3479-0.0729-0.4923-0.2063c0.2121-0.1936-0.0871-0.4621,0.036-0.6014
	c0.1373-0.1552,0.3728-0.1125,0.5432-0.0125c0.2655,0.1558,0.4542,0.0542,0.7131-0.1747c-0.4733-0.1207-0.8681-0.279-1.27-0.3093
	c-0.508-0.0384-0.4539-0.4534-0.4419-0.7976c0.0139-0.4026,0.3022-0.2508,0.5091-0.2494c0.6854,0.0045,1.3707,0.0017,2.0561,0.0017
	c-0.4914-0.2788-1.0052-0.1678-1.5077-0.2087c-0.1722-0.014-0.4088,0.032-0.4105-0.2266c-0.0022-0.3042-0.2153-0.5318-0.1835-0.8778
	c0.641,0.047,1.2611,0.0927,1.8812,0.138c0.0959,0.007,0.23,0.0756,0.2492-0.099c0.0261-0.2369-0.136-0.1626-0.2482-0.1676
	c-0.5154-0.0232-1.0305-0.0578-1.546-0.0722c-0.3398-0.0096-0.6548,0.0009-0.3953-0.5756c0.0582-0.1293-0.0402-0.3088-0.0648-0.4636
	c-0.0882-0.5564-0.4597-1.0143-0.5251-1.5124c-0.1278-0.9719-0.7118-1.43-1.3093-1.7769c-1.6402-0.9523-3.2389-2.0556-5.0972-2.3876
	c-0.084-0.2037-0.3129-0.0769-0.4128-0.2446c0.0287-0.0158,0.0589-0.022,0.0905-0.0187c0.1179-0.0045,0.2411,0.0152,0.3527-0.0181
	c0.5548-0.1658,0.956-0.5282,1.2004-1.1604c0.0771-0.1994,0.3224-0.3379,0.2064-0.6023c-0.1059-0.2417-0.3236-0.1532-0.5068-0.1264
	c-0.095-0.0176-0.19-0.0351-0.2849-0.0528c-0.1515-0.177-0.3437-0.0921-0.5201-0.1098c-0.1946-0.1567-0.4004-0.2695-0.6466-0.2259
	c-0.1631-0.2163-0.1247-0.6696-0.5262-0.6053c-0.1712-0.0858-0.3424-0.1717-0.5136-0.2575
	c-0.3937-0.5761-0.9966-0.2538-1.4752-0.4652c-0.03-0.006-0.0595-0.0141-0.0885-0.0246c0.1463-0.3404,0.0377-0.6347-0.1643-0.9043
	c0.4592-0.1983,0.8986-0.1349,1.3288-0.164c0.2592-0.0177,0.4786-0.0869,0.6062-0.3755c0.6025-0.3626,1.3154-0.3394,2.0688-0.7352
	c-0.3947-0.1362-0.644-0.1548-0.8977-0.1418c-0.2932-0.2701-0.4813-0.5174,0.0897-0.622c0.0983-0.018,0.2287-0.0403,0.2508-0.1651
	c0.0316-0.1784-0.1339-0.2048-0.2259-0.2707c-0.0993-0.0713-0.2188-0.1042-0.3294-0.1538
	c-0.0079-0.0802,0.1957-0.1748,0.0461-0.2057c-0.4816-0.0996-0.9044-0.5011-1.4267-0.3778c0,0-0.0023-0.0013-0.0022-0.0013
	c-0.0001,0-0.0001,0-0.0001,0c0.0187-0.5117,0.4414-0.9536,0.1606-1.5374c-0.0623-0.1296,0.1374-0.389,0.3687-0.4129
	c0.1057-0.011,0.2337-0.0738,0.1143-0.2217c-0.2015-0.2495-0.1334-0.4754,0.0077-0.7009c0.1247-0.1996,0.0425-0.3124-0.1165-0.3476
	c-0.4119-0.0913-0.3115-0.5509-0.4624-0.828c0.3097-0.1597,0.2686-0.7635,0.6215-0.7792c0.3357-0.0149,0.2543-0.2825,0.3326-0.4599
	c0.0431-0.098-0.0922-0.2489,0.0511-0.3191c0.4649-0.2277,0.112-0.3909-0.0349-0.5545c-0.1769-0.1969-0.396-0.2274-0.6282-0.1611
	c-0.3063-0.0868-0.6126-0.1738-0.919-0.2607c-0.0815-0.1875-0.3994,0.0321-0.385-0.2776c0.0099-0.2121,0.1524-0.3483,0.3395-0.4029
	c0.066-0.0192,0.1381-0.0509,0.1866-0.1032c0.2165-0.2334,0.3702-0.4618-0.051-0.6403c-0.2373-0.1004-0.4641-0.2344-0.7043-0.3576
	c0.1713-0.3993,0.4224-0.589,0.7615-0.5774c0.3566,0.0122,0.6312-0.1761,0.8936-0.4176c0.1653-0.042,0.3477-0.0466,0.4916-0.1355
	c0.1835-0.1136,0.5424-0.0376,0.4801-0.4706c-0.0518-0.3598-0.2226-0.6068-0.5721-0.6049l-0.0009-0.0005
	c-0.5305-0.6073-1.204-0.9163-1.88-1.2199l0.0019-0.0008c-0.3563-0.2796-0.7358-0.4991-1.1605-0.5979
	c-0.1546-0.036-0.3336-0.0551-0.3753-0.265c-0.067-0.3374-0.3328-0.3548-0.515-0.5174c-0.4383-0.3913-1.2626-0.1053-1.3776-1.0556
	c-0.0051-0.0406-0.0805-0.1015-0.1218-0.1001c-0.7316,0.0252-1.3444-0.471-2.0344-0.6219c-0.8305-0.1815-1.6593-0.335-2.4737-0.6405
	c-0.6267-0.2351-1.2641-0.575-1.9625-0.4768c-0.3064-0.0642-0.6107-0.1494-0.9194-0.1886
	c-1.4093-0.1789-2.7575-0.7951-4.1919-0.7915c-0.5107-0.2583-1.0532-0.2084-1.5892-0.2215c-1.2188-0.14-2.455-0.1053-3.6577-0.3841
	c-1.0048-0.2329-2.0053-0.4021-3.03-0.3471c-1.3764-0.1195-2.7363-0.4004-4.119-0.4902c-1.5195-0.0988-3.0301-0.3753-4.5461-0.5571
	c-0.446-0.0536-0.9235,0.0546-1.3405-0.0904c-1.1083-0.3855-2.2301-0.4973-3.3739-0.4539l-0.0004,0.0025
	c-0.2254-0.2314-0.5097-0.2035-0.7787-0.2338c-1.2765-0.1438-2.5675-0.1342-3.8232-0.4951
	c-0.5176-0.1037-1.0437-0.0992-1.5655-0.2122c-0.3824-0.0828-0.8021-0.2038-1.2062-0.0409
	c-0.0044-0.0033-0.0089-0.0063-0.0134-0.0098c-0.0619-0.0316-0.1432-0.0394-0.1807-0.1032
	c-0.2659-0.4509-0.614-0.5108-1.0286-0.3214c-0.1268,0.0578-0.2711,0.0025-0.4045,0.0417
	c-0.0742,0.0194-0.1484,0.0346-0.2228,0.0477c-0.0627-0.0031-0.1254-0.0062-0.1881-0.0092
	c-0.4928,0.0496-0.9749-0.0681-1.4609-0.1258c-0.3218-0.239-0.7148-0.041-1.0431-0.2268c-0.2713-0.1538-0.4628-0.4043-0.8351-0.4281
	c-0.475-0.0302-0.9656-0.0024-1.4357-0.1241c-0.2481-0.0642-0.3437,0.1042-0.4543,0.2862c-0.748,0.058-1.4616-0.3228-2.2129-0.2364
	c-0.0576,0.0066-0.1576-0.0294-0.175-0.0769c-0.1787-0.4871-0.3925-0.1124-0.6042-0.0116c0.03-0.4324,0.3346-0.7481,0.2696-1.1765
	c-0.09-0.5938,0.1364-1.0908,0.3258-1.6151c0.1718-0.4753,0.2154-1.0011,0.2246-1.522c0.0975-0.0311,0.195-0.0625,0.2925-0.0936
	c0.0309,0.0083,0.062,0.0144,0.0935,0.0185c0.4425,0.3039,0.9025,0.3034,1.3737,0.1065c0.0001,0,0.0001,0,0.0001,0
	c0.4591-0.0885,0.7482,0.3761,1.1487,0.4779c1.5279,0.6413,3.1042,0.8495,4.7188,0.7144c0.2769,0.0047,0.5531,0.0143,0.8105,0.1559
	c0.7373,0.4117,1.5221,0.3954,2.3104,0.3479c0.165,0.0468,0.3292,0.0973,0.495,0.1397c1.2176,0.3128,2.4499,0.5237,3.6849,0.7157
	c0.199,0.3429,0.4246,0.6225,0.8307,0.4717c0.0002,0,0.0003,0,0.0003,0s-0.0001,0-0.0003,0.0001
	c0.4999,0.0027,0.9935,0.3542,1.5034,0.0262c0.0713-0.0461,0.1781-0.0248,0.2303,0.1455c0.1243,0.4057,0.4055,0.3703,0.6876,0.2531
	c0.1293-0.0537,0.2573-0.1633,0.3902-0.0446c0.4326,0.3863,0.9263,0.2088,1.3999,0.2191l-0.0001-0.0001c0,0,0.0001,0,0.0002,0.0001
	c0.2386,0.0226,0.479,0.079,0.7155,0.0617c0.6957-0.0507,1.2937,0.4698,1.9829,0.4357l-0.0066,0.0158
	c0.6291,0.1181,1.2584,0.2362,1.8876,0.3543c0.0318,0.0089,0.0642,0.0129,0.097,0.0119c0.3499,0.1853,0.7155,0.0887,1.0743,0.0685
	c0.1081-0.006,0.2639-0.0379,0.2697-0.2234c0.0066-0.2072-0.1541-0.1711-0.2639-0.2094c-0.1342-0.047-0.3242,0.0377-0.3771-0.2106
	c-0.0783-0.3676-0.7696-0.8391-1.0841-0.8132c-0.4291,0.0352-0.8925,0.2492-1.2739-0.1799
	c-0.1674-0.1882-1.079-0.2703-1.2486-0.0963c-0.0232,0.0237-0.0594,0.0747-0.0531,0.0865c0.3942,0.7315-0.2408,0.3357-0.3839,0.476
	c-0.1082-0.0368-0.2163-0.0736-0.3243-0.1104c-0.0001,0-0.0001,0-0.0001,0c-0.7311-0.3025-1.4086-0.8273-2.2632-0.5509
	c-0.3133,0.1012-0.6698-0.055-1.0214-0.2284c0.2426-0.1632,0.485,0.0044,0.7361-0.203c-0.3214,0-0.5807,0-0.8399,0
	c-0.1938-0.0002-0.3542-0.0141-0.4745-0.2644c-0.2278-0.474-0.8786-0.4889-1.1627-0.052c-0.2007,0.3087-0.4997,0.2163-0.7037,0.1264
	c-0.2283-0.1006,0.2281-0.2013,0.0227-0.4701c-0.5852,0.4191-1.1891-0.0079-1.8132-0.0578
	c-0.2644-0.0267-0.529-0.0531-0.8815-0.0887c0.312-0.2649,0.5741-0.3838,0.9292-0.5119c-0.3681-0.2564-0.6469-0.5846-1.0011-0.3961
	c-0.3121,0.166-0.6028,0.1402-0.9121,0.1123c-0.0736-0.3617-0.2534-0.5171-0.579-0.6377c-0.5207-0.1928-0.5758,0.4181-0.8892,0.5492
	h0.0001c0,0,0,0-0.0001,0.0001c-0.2675,0.1553-0.5432,0.173-0.8422,0.1459c-0.3483-0.0317-0.7147-0.173-1.0511,0.0799V9.8601
	c-0.2733-0.0068-0.5466-0.0139-0.8199-0.0206c0-0.0002,0-0.0002,0.0001-0.0002c-0.0659-0.1959-0.4622-0.0764-0.3216-0.4904
	c0.0783-0.2306,0.2491-0.2986,0.4073-0.4046c-0.4538-0.1059-0.8747-0.2293-1.3021-0.293c-0.206-0.0307-0.5233-0.1394-0.611,0.1266
	c-0.0885,0.2688,0.3091,0.1733,0.384,0.3857c0.0097,0.0274-0.014,0.0706-0.0485,0.2208c-0.3956-0.5326-0.8203,0.1517-1.2411-0.1217
	c-0.2793-0.2965-0.6405-0.1554-0.9598-0.2387c-0.3158-0.0824-0.5994-0.1455-0.2042-0.5623c0.0674-0.071,0.1212-0.1557,0.0662-0.2593
	c-0.0819-0.1543-0.1734-0.0031-0.2583-0.0045c-0.4265-0.0071-0.6997,0.5006-1.1355,0.4397
	c-0.4929-0.5359-1.0121-0.8775-1.6854-0.3815c-0.1047,0.0773-0.2832,0.0712-0.3733-0.0802
	c-0.0377-0.0632-0.0349-0.2274,0.008-0.2764c0.3866-0.4419-0.0211-0.2951-0.1773-0.3341c-0.2954-0.2027-0.2028-0.597-0.1494-0.8052
	c0.1908-0.7436-0.2077-0.6887-0.583-0.6572c-0.6242,0.0523-1.2302-0.0246-1.8204-0.2616c-0.1835-0.0737-0.3689-0.0745-0.5589-0.0926
	c-0.9216-0.0879-1.8471,0.3172-2.7682-0.0403c-0.1145-0.0443-0.3073-0.0012-0.3973,0.0901
	c-0.2949,0.2984-0.6099,0.2227-0.9271,0.1263c-0.3441-0.1044-0.6879-0.0835-1.0345-0.0522
	c-0.7017-0.1562-1.4381,0.0503-2.1108-0.1324c-0.7376-0.2003-1.3936,0.014-2.0818,0.1393c-0.6989-0.1993-1.4077-0.3617-2.093-0.6111
	c-0.4439-0.1615-0.8256,0.1765-1.2442,0.0887c-0.0894-0.0812-0.2498-0.1553-0.2563-0.2445
	c-0.034-0.4704-0.0205-0.4717-0.3815-0.5887c0,0,0,0,0.0002,0.0002c-0.0002-0.0002-0.0002-0.0002-0.0002-0.0002
	c-0.101-0.0446-0.202-0.0894-0.3029-0.1339c0.0638-0.3855,0.151-0.6117,0.5329-0.2787c0.2659,0.232,1.1842-0.0565,1.5395-0.4554
	c-0.7831,0.1135-1.4823-0.208-2.2222-0.0311c-0.631,0.1508-1.2702-0.0823-1.9043-0.1715c-0.1728-0.0243-0.5026-0.1335-0.4829,0.0944
	c0.0336,0.3885-0.1585,0.2345-0.2521,0.2082c-0.2216-0.0627-0.4477-0.0595-0.6675-0.1018
	c-0.9607-0.1855-2.0019,0.0531-2.8579-0.7127c-0.0403-0.0359-0.1327,0.0068-0.2009,0.0128
	c-0.4464-0.0468-0.8903-0.0846-1.3364-0.1731c-1.6329-0.3239-3.2761-0.576-4.9114-0.8839c-1.25-0.2355-2.4857-0.5945-3.7669-0.521
	c-0.1774,0.0102-0.368-0.0099-0.4955-0.1499c-0.5259-0.5779-1.1738-0.6214-1.8444-0.6527
	c-0.5334-0.0246-1.0658-0.0615-1.5903-0.2643c-0.5248-0.2029-1.091-0.2409-1.6463-0.2528
	c-1.3897-0.0298-2.7802-0.0741-4.1694-0.0494c-3.4221,0.0613-6.8495-0.0861-10.2623,0.3779
	c-1.4325,0.1947-2.8842,0.2202-4.3085,0.468c-2.108,0.3669-4.199,0.8654-6.2982,1.3014c-0.2207,0.0459-0.4699,0.1283-0.6685,0.0557
	c-0.6361-0.2324-1.2336,0.0256-1.8455,0.1091c-0.7862-0.1479-1.5398,0.3302-2.3207,0.1756
	c-0.3441-0.0682-0.6634-0.0378-0.965,0.1312c-0.2949,0.1653-0.5971,0.2113-0.9134,0.1878c-1.2027-0.0892-2.3964,0.1084-3.59,0.2059
	c-0.5896,0.0481-1.176-0.0824-1.765,0.0622c-0.8784,0.2157-1.7367,0.5328-2.664,0.4924c-0.5187-0.0225-1.0459,0.2161-1.5691,0.3371
	c-0.6537-0.0338-1.251,0.2834-1.8731,0.4356c-0.2875,0.0704-0.6075-0.1068-0.8542,0.1384
	c-0.5051,0.5017-1.0681,0.7518-1.7327,0.9206c-1.178,0.2994-2.313,0.699-3.4951,0.0634c-0.3093-0.1664-0.6284-0.0019-0.7477,0.3283
	c-0.1643,0.4544-0.4605,0.4992-0.7934,0.5312c-0.6217,0.0597-1.2369,0.1629-1.8394,0.3557
	c-0.8598,0.0877-1.7197,0.1753-2.5796,0.263c-0.5137-0.0886-0.986,0.1938-1.4868,0.2281c-0.1068,0.0074-0.1762,0.076-0.126,0.25
	c0.1159,0.4015-0.1416,0.5586-0.3844,0.714c-0.2882,0.0244-0.5765,0.049-0.8648,0.0733c0.0025,0.0509,0.0051,0.1015,0.0075,0.1524
	c0.2864,0.0175,0.5727,0.0351,0.8592,0.0528c0.2778,0.2179,0.2917,0.237,0.2048,0.3255c-0.257,0.2623-0.4524,0.5941-0.8547,0.6615
	c-0.2693,0.0449-0.5989,0.0346-0.8115,0.3288c-0.3606,0.0104-0.7149,0.0563-1.0435,0.2484
	c-0.2768,0.0177-0.5473-0.0392-0.8212-0.0722c-0.9634-0.1158-1.9068,0.0752-2.8446,0.3104l-0.0477-0.0047l-0.0449,0.0193
	c-0.9029-0.0423-1.8016-0.1701-2.6993-0.2636c-1.248-0.13-2.4958,0.0877-3.7426-0.1435c-0.9245-0.1715-1.8705-0.1544-2.8097-0.0508
	c-0.3622,0.04-0.7141,0.1667-1.0854,0.134c-1.7993-0.1582-3.5984-0.4153-5.399-0.4317c-2.1701-0.0198-4.3236,0.3205-6.4257,1.0001
	c-0.3952-0.1306-0.8461-0.1657-1.1689-0.4206C7.358,9.831,7.1057,9.8246,6.8234,9.8716c-0.2371,0.0395-0.422,0.1689-0.1543,0.4718
	c0.1117,0.1262,0.2663,0.326,0.1788,0.4619c-0.3092,0.48,0.0349,0.5758,0.2782,0.7452c-0.243,0.223-0.5674,0.094-0.8242,0.2576
	c-0.2993-0.0126-0.4125,0.3373-0.2298,0.4067c0.4366,0.166,0.6029,0.7603,1.0752,0.8047c0.5694-0.0732,1.0893,0.1405,1.606,0.3743
	c0.1315,0.0596,0.2404,0.121,0.2889,0.3088c0.2253,0.8745,0.3721,0.9796,1.1213,1.0664c0.5981,0.0692,1.1662-0.2343,1.7606-0.139
	c0.1898,0.1359,0.4059,0.108,0.6069,0.0942c0.5783-0.0396,1.1425,0.0404,1.8581,0.1842c-0.5747,0.2148-1.0372,0.68-1.4358,0.3952
	c-0.3477-0.2481-0.5797-0.1477-0.8822-0.0894c-0.6658,0.1284-1.3342,0.239-2.0015,0.3569
	c-0.1365-0.2503-0.2568-0.3613-0.4606-0.0438c-0.1776,0.2765-0.451,0.3545-0.7548,0.4248c-0.2606,0.0605-0.7364-0.195-0.7766,0.4424
	c-0.0389-0.0336-0.0779-0.0671-0.1168-0.1006c0.0312-0.1806,0.0667-0.3642-0.1779-0.3609c0.1374-0.2535,0.2379-0.4513-0.1812-0.3678
	c-0.317,0.063-0.7089,0.1817-0.7063-0.5332c-0.1843,0.3488-0.1104,0.701-0.2412,0.9768C6.643,16.0295,6.6316,16.048,6.6207,16.071
	H6.6206c-0.0185,0.0326-0.024,0.0713-0.0237,0.1128c-0.1138,0.4536-0.4053,0.5232-0.8082,0.3706
	c0.2193-0.0473,0.4852-0.0398,0.4489-0.4084c-0.0351-0.3555-0.3145-0.2285-0.4891-0.3053c-0.145-0.0637-0.2665,0.0085-0.3783,0.1119
	c-0.4356-0.0924-0.8626-0.1513-1.2355,0.2346c-0.192,0.199-0.4785-0.0944-0.6719,0.149c-0.4312-0.1151-0.8932,0.0257-1.3068-0.1678
	c-0.016,0.1322-0.0374,0.3094-0.0588,0.4866c-0.0815,0.067-0.078,0.1641-0.0692,0.2633c-0.0814,0.0316-0.1643,0.0943-0.2439,0.0892
	c-0.2119-0.0131-0.4323,0.0648-0.4234,0.2983c0.0063,0.1678,0.1954,0.3398,0.425,0.3452c0.3711,0.0088,0.7454,0.0035,1.1161,0.0347
	c0.2445,0.0205,0.4163,0.2744,0.4322,0.2467c0.2644-0.4574,0.4013,0.0231,0.5524,0.1311c0.214-0.2588-0.002-0.456,0.0103-0.6653
	c0.1836,0.0334,0.3782,0.1299,0.5487,0.0891c0.7553-0.1803,1.4659,0.0333,2.1786,0.267c0.1686,0.1513-0.1397,0.4779,0.1803,0.5979
	c0.2767,0.1038,0.0245-0.3578,0.287-0.2511c0.0234,0.3073,0.1958,0.5214,0.4648,0.634c-0.0688,0.0964-0.2616,0.0812-0.2177,0.2665
	c0.0327,0.1388,0.1685,0.1078,0.2658,0.0959c0.3023-0.0368,0.6037-0.0835,0.9055-0.1264c0.531,0.0101,1.0622,0.0186,1.5934,0.031
	c0.3838,0.0089,0.7736,0.1054,1.1397-0.1164c0.0591-0.0039,0.1181-0.0077,0.1773-0.0115c0.2758,0.5994,0.8373,0.7613,1.3302,0.3957
	c0.0644-0.0477,0.1642-0.0305,0.2476-0.0432l-0.0015,0.0025c0.1638,0.3123,0.3548,0.1117,0.5245,0.0221
	c0.125-0.0658,0.2761-0.2248,0.3757-0.1397c0.4103,0.3507,0.7966,0.0125,1.1915-0.0062c0.1872,0.1178,0.4119,0.1291,0.5355-0.0413
	c0.2808-0.3871,0.4671-0.2877,0.754,0.0122c0.2247,0.235,0.5859,0.3041,0.8523,0.0569c0.2529-0.2348-0.1546-0.3086-0.153-0.5033
	c0.5049-0.1267,1.0122-0.0976,1.5232-0.0577c0.2599,0.0203,0.5242-0.0341,0.7865-0.0546c0.2518-0.0498,0.422,0.1372,0.6133,0.2755
	c0.5781,0.4186,1.8761,0.2823,2.3431-0.247c0.1477-0.1673,0.3227-0.2295,0.4561-0.0575c0.2064,0.2663,0.47,0.2807,0.7179,0.2531
	c0.5811-0.0645,0.9193,0.3857,1.333,0.704c-0.101,0.1718-0.1803,0.0417-0.2588,0.0531c-1.7694,0.2539-3.5561,0.1251-5.3306,0.3451
	c-1.1137,0.138-2.2461,0.0581-3.3683,0.1198c-0.9848,0.0539-1.9678,0.2469-2.9502,0.2334c-0.8472-0.0116-1.6594,0.1417-2.5669,0.321
	c0.1649,0.0433,0.2444,0.0808,0.3244,0.0827c1.2748,0.0299,2.5448,0.1156,3.8252-0.0063c1.3372-0.1275,2.6863-0.1057,4.0301-0.1084
	c0.7821-0.0017,1.5662-0.3139,2.3586,0.0506c0.118,0.0542,0.377,0.0871,0.5751,0.0456c1.4471-0.3019,2.9212-0.1734,4.3754-0.3674
	c0.6612-0.0881,1.3132,0.1191,1.9729,0.105c0.0913,0.0894,0.2456-0.0354,0.3159,0.1256c-0.0284,0.0719-0.0568,0.1438-0.0851,0.2157
	c-0.0013,0.3451-0.2918,0.4291-0.4326,0.6482c-0.6194,0.2234-1.2567,0.0432-1.8829,0.1136
	c-0.2751,0.0039-0.5502,0.008-0.8253,0.0119c0,0.0001,0,0.0001,0,0.0001c-0.2751,0.065-0.446,0.2121-0.3372,0.5794
	c-0.5621,0.0948-1.0151-0.5375-1.6213-0.4202c0.0868,0.3213,0.3496,0.2587,0.4342,0.4477c-0.1736,0.085-0.3272,0.1604-0.481,0.2356
	c-0.0359-0.0373-0.072-0.0746-0.108-0.112c0.0253-0.1876,0.0053-0.3736-0.1166-0.5012c-0.1413-0.1478-0.417-0.187-0.3728,0.0632
	c0.0741,0.4204-0.2121,0.38-0.3413,0.5377c-0.1042,0.0826-0.2084,0.165-0.3125,0.2474v0.0001
	c-0.3514-0.2467-0.7438-0.2627-1.137-0.2739c-0.0089,0.0195-0.0158,0.0399-0.0207,0.061c-0.0042-0.0004-0.0086-0.0011-0.0129-0.0015
	c0.0112-0.0199,0.0224-0.0398,0.0336-0.0595c-0.245-0.4928,0.3775-0.1916,0.3406-0.5251c-0.3485-0.115-0.6332-0.0799-0.7377,0.4242
	c-0.5033-0.6095-0.5157-0.6112-0.976-0.1217c-0.0469,0.0499-0.0621,0.0598-0.1452,0.0409
	c-0.2883-0.0658-0.6078-0.1507-0.8113,0.2324c-0.3186-0.029-0.6436-0.1538-0.945,0.0832c-0.1464-0.1275-0.2942,0.0174-0.4436-0.0013
	c-0.1258-0.0156-0.3048-0.0526-0.3161,0.1753c-0.0103,0.2054,0.1497,0.2535,0.2894,0.2577c0.4492,0.0139,0.9132,0.1715,1.3316-0.162
	c0.2182,0.2776,0.4752,0.1968,0.7331,0.1075l0.003,0.0011c0.2668,0.1468,0.5469,0.1629,0.8336,0.1149
	c0.0287,0.0152,0.0588,0.0232,0.0903,0.0239c0.1955,0.2388,0.3686,0.0673,0.5381-0.0474c0.1266-0.0856,0.2216-0.2575,0.401-0.1716
	c0.0408,0.1712-0.1184,0.3346-0.0223,0.5102c0.1921-0.021,0.3762-0.0411,0.5601-0.0611c0.0333-0.0022,0.0652,0.0043,0.0958,0.0194
	c0.38,0.245,0.5553-0.0907,0.754-0.3598c-0.0125-0.0168-0.0251-0.0335-0.0377-0.0501c0.0005-0.0007,0.001-0.0011,0.0015-0.0018
	c0.0121,0.0173,0.0242,0.0346,0.0362,0.0519c0.1041,0.224,0.1875,0.5285,0.4343,0.1319c0.0624-0.1001,0.1348-0.152,0.2625-0.0849
	c0.2917,0.1532,0.5818,0.093,0.8588-0.0765c0.0702-0.0506,0.4214,0.0119,0.5703,0.0075c0.0888-0.0026,0.5074,0.2725,0.281-0.2722
	c-0.0474-0.1142,0.1195-0.0283,0.1759-0.0724c0.2704,0.2952,0.5934,0.3934,0.9556,0.3447c0.3421,0.5379,0.5212,0.5416,0.8552,0.0018
	c0.0757-0.1222,0.1631-0.127,0.2686-0.1116c0.3411,0.0502,0.5058,0.2913,0.5041,0.8912c0.1798-0.3961,0.3404-0.4591,0.5655-0.4307
	c0.295,0.0373,0.2682-0.2168,0.2167-0.4499c0.4308-0.1402,0.8823,0.3039,1.3295-0.0858c0.077-0.0671,0.3547-0.0118,0.3861-0.2165
	c0.0304-0.1983-0.1913-0.238-0.3197-0.3227c-0.0606-0.0401-0.124-0.0757-0.0981-0.1924c0.5477-0.3234,1.0816,0.0425,1.6235,0.0654
	c0.0792,0.1676,0.4189,0.3457-0.0108,0.4934c-0.0982,0.0337-0.1564,0.0651-0.096,0.1956c0.0433,0.0934,0.102,0.1766,0.1936,0.1723
	c0.2344-0.0106,0.423-0.1815,0.5787-0.3433c0.2066-0.2149-0.0667-0.256-0.1512-0.3725c-0.1082-0.1494,0.1053-0.1629,0.1095-0.2741
	c0.0658-0.0304,0.1317-0.0607,0.1975-0.0911c0.0014,0.2283,0.2754,0.3367,0.2027,0.5881c-0.0619,0.2141-0.1624,0.437,0.0742,0.572
	c0.2933,0.1673,0.2823-0.2678,0.4576-0.3455c0.3896,0.0556,0.7799,0.1079,1.1532,0.2606c0.3443,0.4031,0.3889-0.0647,0.5316-0.2475
	c0.0729-0.002,0.1459-0.004,0.2188-0.0061c0.0784,0.0404,0.1712,0.0614,0.2326,0.1242c0.4033,0.413,0.7744,0.3801,1.1993,0.0011
	c0.1208-0.1076,0.3506-0.3544,0.5935-0.1303c0.0451,0.0415,0.137,0.0149,0.1694-0.0745c0.0452-0.1253-0.0228-0.1839-0.1114-0.2162
	c-0.0956-0.0348-0.1939-0.0597-0.291-0.0888c-0.1168-0.7188-0.1168-0.7188,0.5017-0.7094c0.0328,0.2252-0.0703,0.5697,0.3149,0.486
	c0.0636,0.1184,0.8999,0.6579,1.0384,0.6725c0.0865,0.0091,0.1723,0.0302,0.259,0.0355c0.4631,0.0282,1.0174,0.2392,1.3668,0.0967
	c0.8094-0.3302,1.6435-0.0136,2.422-0.3371c0.103-0.5415,0.3264-0.6559,1.0966-0.5613c-0.5659-0.0401-0.5659-0.0401-0.754,0.2229
	c0.7256,0.3453,1.4749,0.5995,2.3534,0.7507c-0.5538,0.2083-1.0447,0.2099-1.4404,0.5191c-0.3204,0.2503-0.6777,0.0113-0.9965,0.164
	c-0.0577-0.2575-0.17-0.4176-0.4253-0.323c-0.3729-0.1416-0.735-0.1578-1.0704,0.1275c-0.6071-0.4447-1.2618,0.0531-1.8979-0.1357
	c-0.4604-0.1366-0.9457,0.1814-1.4325,0.1147c-0.3223,0.0782-0.6495-0.1389-1.0377-0.0024c0.2239,0.1807,0.3939,0.318,0.5518,0.4454
	c-0.4037,0.1724-0.8327,0.1371-1.2573,0.1112c-0.2807-0.0171,0.0129-0.1126-0.0064-0.1704
	c0.0648-0.0077,0.1858-0.0147,0.1538-0.0899c-0.0666-0.1568-0.1862-0.2947-0.3585-0.288c-0.4502,0.0176-0.9,0.0637-1.3499-0.0086
	c-0.0818-0.0131-0.1909-0.0351-0.2001,0.1012c-0.0071,0.1047,0.0733,0.1726,0.1622,0.2048c-0.0001,0-0.0001,0-0.0003,0
	c0.0275,0.1287,0.2053,0.0189,0.22,0.1896c-0.0499,0.024-0.0958,0.045-0.141,0.068c-0.1127,0.0574-0.337-0.0145-0.304,0.2143
	c0.0315,0.2178,0.2279,0.0964,0.3529,0.0975c0.5489,0.005,1.0979,0.0023,1.6469,0.0023c-0.1107,0.0995-0.2429,0.0821-0.3208,0.2132
	c-0.144,0.0401-0.1936,0.1253-0.0285,0.1959c0.2458,0.1052,0.5079,0.0765,0.7655,0.051c0.4833-0.0704,0.9813,0.1267,1.4556-0.1084
	c0.3866,0.1051,0.7726,0.1615,1.1555-0.0202c0.07,0.0031,0.14,0.0064,0.2099,0.0097c0.9379-0.0055,1.8883,0.236,2.8023-0.1883
	c-0.1313-0.2918-0.3783-0.1064-0.5573-0.1856c-0.2007-0.089-0.4093,0.0913-0.7222-0.0672c1.8387-0.4339,3.5538-0.5973,5.3718-0.1261
	c-1.286,0.3383-2.5192,0.0415-3.7126,0.3678c0.4742,0.0437,0.9385,0.2872,1.3877,0.1939c0.4984-0.1036,0.9947-0.1026,1.4866-0.1068
	c1.1406-0.0098,2.2861,0.0643,3.4221,0.0424c1.1881-0.023,2.3704-0.237,3.5614,0.0103c0.2523,0.0524,0.4593-0.3667,0.7609-0.1906
	c0.1606,0.5487-0.3486,0.2491-0.4436,0.474c-0.3216,0.0088-0.6242,0.2426-0.9623,0.0957c-0.0937-0.0407-0.2535-0.297-0.3006,0.0124
	c-0.0229,0.1499-0.0454,0.447,0.2745,0.4063c0.2473-0.0313,0.4861,0.0985,0.7137,0.2199c0.3922,0.2162,0.8074,0.2864,1.2373,0.2627
	c0.036,0.0268,0.0733,0.04,0.1112,0.0469c0.2944,0.1203,0.5962,0.208,0.9098,0.1942c0.1586-0.007,0.4245,0.0003,0.2239-0.3515
	c-0.2173-0.2644-0.1957-0.4359,0.1453-0.4045c0.8826,0.0815,1.7722,0.1263,2.6424,0.2991c0.5513,0.1095,1.1225,0.0952,1.664,0.3335
	c-1.4201,0.6032-2.8809,0.2954-4.3403,0.2558c0.083,0.2569,0.2645,0.294,0.4295,0.3302c0.6652,0.1455,1.3309,0.2912,1.9997,0.4105
	c0.8404,0.1499,1.7055,0.1969,2.3867,0.9092c0.0506,0.0528,0.2121,0.0235,0.1038,0.1787c-0.0334,0.0478-0.1265,0.0393-0.1923,0.0565
	c-0.1308-0.2019-0.224-0.0133-0.33,0.043c-0.9587,0.0501-1.8981,0.2534-2.8344,0.4818c-0.745,0.1416-1.5028,0.2268-2.2302,0.4471
	c-0.4025,0.122-0.8347,0.0343-1.2099,0.278c-0.8369,0.0945-1.6768,0.1762-2.4138,0.7229c-1.2439-0.0656-2.3456,0.3957-3.3478,1.2251
	c-0.9241-0.0523-1.7862,0.5316-2.7229,0.3623c-0.0389-0.0072-0.1232,0.0425-0.1228,0.0644c0.0092,0.5556-0.3467,0.3097-0.549,0.3125
	c-0.2443,0.0033-0.4923-0.027-0.7224,0.0684c-0.8095,0.3359-1.6496,0.1739-2.4724,0.1918c-1.3703,0.03-2.7344-0.258-4.1095-0.1785
	c-0.3815,0.0221-0.7584-0.0086-1.1407-0.0562c-0.5839-0.0728-1.1981-0.1618-1.7593-0.0235
	c-0.4408,0.1086-0.8617,0.2174-1.3139,0.2033c-1.4008-0.0438-2.7899-0.3822-4.2018-0.1951
	c-0.3699,0.0491-0.778,0.0672-1.1189-0.1803c-0.3564-0.2588-0.7395-0.254-1.1089-0.1572c-0.3666,0.0961-0.7301,0.1149-1.0874,0.056
	c-1.4211-0.2341-2.8468-0.3388-4.2787-0.229c-0.4369,0.0335-0.8877-0.0168-1.4004,0.1599c0.1885,0.0891,0.2933,0.1648,0.406,0.1877
	c0.7461,0.152,1.4974,0.2711,2.2396,0.4442c0.5686,0.1325,1.1185,0.3935,1.69,0.4837c1.4087,0.2226,2.8249,0.3797,4.2381,0.563
	c0.1258,0.185,0.4861,0.1317,0.4484,0.4173c-0.0418,0.3161-0.3489,0.1196-0.5281,0.1933c-0.0924,0.0379-0.1791,0.0939-0.2918,0.1542
	c0.1671,0.1606,0.304,0.313,0.4591,0.4338c0.1023,0.0797,0.2315,0.1275,0.197,0.3029c-0.033,0.1683-0.1742,0.1855-0.2901,0.1949
	c-0.4867,0.0393-0.9074,0.3222-1.3605,0.4842c-0.3121-0.0418-0.622,0.1472-0.935,0.0127c-0.1475-0.3801-0.4468-0.2904-0.6817-0.2405
	c-0.7928,0.1684-1.595,0.1598-2.384,0.0978c-0.7831-0.0616-1.4341,0.2368-2.0843,0.6141c0.2425,0.5112,0.6377,0.8354,1.053,0.8359
	c0.8149,0.0008,1.6192,0.1416,2.4319,0.1562c0.3832,0.0067,0.7824-0.2374,1.1428,0.0043c0.2208,0.1479,0.4194,0.147,0.6426,0.0967
	c0.0323-0.0122,0.0621-0.0066,0.0894,0.0169c0.1026,0.8659,0.4199,1.5008,1.2555,1.5766c0.3081,0.1252,0.577,0.4483,0.9483,0.2546
	c0.2682-0.0046,0.4184,0.0728,0.5912,0.403c0.3541,0.677,1.0082,0.9142,1.6636,0.9391c0.7866,0.0297,1.5495,0.2395,2.3102,0.3999
	c0.8694,0.1834,1.7461,0.4129,2.6152,0.4477c1.6119,0.0645,3.1332,0.7592,4.742,0.7865c0.3034,0.0051,0.6051,0.1381,0.9076,0.2122
	c-1.5791,0.2561-3.1276-0.0963-4.6838-0.2599c-1.5566-0.1635-3.1091-0.3927-4.668-0.51c-1.5524-0.1168-3.0615-0.6693-4.6792-0.7188
	c0.5367,0.6782,1.1668,0.6549,1.7772,0.7677c1.3017,0.241,2.6289,0.2868,3.9094,0.6872c0.0207,0.0138,0.0417,0.025,0.0629,0.0343
	c0.3966,0.1939,0.9066-0.0691,1.3042,0.4021c-0.3897,0.1607-0.7302,0.0008-1.0577,0.0645l0.0031-0.0128
	c-0.3421-0.3022-0.6996-0.1842-1.1326-0.0621c0.2506,0.2123,0.4663,0.3009,0.71,0.3088c0.2796,0.054,0.391,0.5932,0.7175,0.4124
	c0.3272-0.1809,0.6324-0.0913,0.9505-0.07c0.2742,0.0777,0.5149,0.4057,0.8337,0.1516l0.0043,0.0036
	c-0.0407,0.2273,0.4014,0.4341,0.0669,0.6277c-0.1644,0.0949-0.2887,0.461-0.5712,0.2356
	c-0.0663-0.0528-0.1837-0.0158-0.1983,0.1104c-0.0105,0.0908,0.0005,0.2085,0.0441,0.2787c0.06,0.0968,0.1666,0.0632,0.2204-0.021
	c0.1785-0.2798,0.3662-0.0642,0.4951,0.0263c0.2461,0.1726,0.4874,0.2466,0.781,0.1447c-0.0467,0.3719-0.3398,0.4486-0.5416,0.7571
	c0.2322,0,0.395,0,0.5578,0c0.0273,0.0716,0.0545,0.1433,0.0819,0.2149c0.0468,0.1222-0.1799,0.3291,0.0679,0.3769
	c0.1743,0.0335,0.2017-0.0937,0.2014-0.297c-0.0002-0.1993,0.1194-0.136,0.1825-0.0101c0.0738,0.1473,0.1618,0.1957,0.2908,0.0953
	c0.2061,0.0832,0.4122,0.1665,0.6184,0.2498c0.0014,0.0321-0.0006,0.0639-0.0061,0.0954c-0.0296-0.0008-0.0589,0.0032-0.0876,0.0121
	c-0.3545-0.0055-0.5542,0.3974-0.9147,0.4557c-0.1552,0.025-0.0528,0.3593,0.1968,0.3822c0.0194,0.0266,0.0422,0.0512,0.0564,0.0811
	c0.0059,0.0125-0.0013,0.0436-0.0117,0.0547c-0.3046,0.3258-0.6851-0.1504-0.9951,0.127c-0.1451-0.1571-0.1081-0.5271-0.4212-0.4878
	c0.0561-0.6469,0.0561-0.6463-0.5615-0.6074c-0.0155,0.0011-0.0335-0.052-0.0485-0.0766c0.028-0.2146,0.3296-0.0531,0.3145-0.3186
	c-0.0068-0.1191-1.0553-0.7627-1.0898-0.6759c-0.1168,0.2943-0.3586,0.1203-0.5756,0.2672c0.449-0.071,0.12,0.5816,0.4874,0.5738
	c0.0043,0.3275,0.2154,0.401,0.4285,0.4719c0.1715,0.0878-0.0345,0.1597-0.0075,0.2414c-0.1894-0.0714-0.4689-0.0769-0.5501-0.2274
	c-0.1908-0.3533-0.4225-0.3236-0.6939-0.2612c-0.3347-0.041-0.6039-0.3433-0.869-0.4304c-0.6762-0.2221-1.3731-0.5559-2.1227-0.3278
	c-0.1864,0.0567-0.4443,0.1057-0.5454-0.272c-0.0421-0.1569-0.241-0.232-0.4048-0.1063c-0.1014,0.0777-0.1793,0.1281-0.3255,0.0955
	c-0.664-0.148-1.3331-0.2689-1.987,0.0835c-0.1117,0.0601-0.2419,0.0752-0.2485,0.2556c-0.0069,0.1871,0.1097,0.225,0.2374,0.2544
	c0.1348,0.0312,0.2672,0.076,0.4005,0.1161c0.1587,0.0478,0.2146,0.159,0.2072,0.356c-0.0129,0.3461-0.403,0.3119-0.438,0.6227
	c-0.0681-0.0971-0.1453-0.1875-0.2027-0.2925c-0.1738-0.3176-0.409-0.5419-0.7254-0.354c-0.2279,0.1354-0.4233,0.0957-0.6488,0.0751
	c-0.2668-0.0243-0.5782-0.1454-0.7224,0.317c-0.0429,0.1374-0.1713,0.0399-0.1961-0.109c0.0043-0.1377,0.0086-0.2752,0.0128-0.4129
	c0.6311-0.19,1.2783-0.3365,1.8474-0.8243c-0.3392-0.3166-0.6176,0.0159-0.8373-0.0587c-0.499-0.1693-0.9703-0.5155-1.377,0.1737
	c-0.0132,0.0222-0.0662,0.0224-0.0991,0.0179c-0.5179-0.0729-1.0701,0.0397-1.5245-0.3785
	c-0.3809-0.0053-0.7618-0.0106-1.1427-0.0158H20.835c-0.1767-0.3755-0.4855-0.3609-0.7297-0.2135
	c-0.1721,0.104-0.4807-0.0331-0.5235,0.3369c-0.0999,0.0024-0.1997,0.0046-0.2996,0.0069
	c-0.2232-0.0204-0.5087,0.0516-0.6558-0.0822c-0.2394-0.2184-0.4373-0.1352-0.6151-0.0118
	c-0.1953,0.1357-0.3326,0.3252-0.4593-0.0648c-0.0337-0.1042-0.153-0.1098-0.2318-0.0765
	c-0.1491,0.0632,0.0097,0.1617-0.0055,0.2339c-0.0602,0.2864,0.0929,0.6598-0.3143,0.8067c0.1756,0.0967,0.2829,0.1559,0.4341,0.239
	c-0.1505,0.0296-0.2589,0.0508-0.3709,0.0729c0.049,0.166,0.2902,0.0271,0.2611,0.2212c-0.0231,0.1549-0.2675,0.3064-0.2912,0.2709
	c-0.1608-0.2407-0.5187,0.2764-0.5372-0.1506c-0.0181-0.4194-0.242-0.4201-0.4653-0.4949
	c-1.4013-0.2932-2.8108-0.5786-4.1998,0.0132c-0.5585,0.2379-1.0673,0.2404-1.6002-0.0258
	c-0.0967-0.0483-0.2237-0.084-0.3357,0.0963c0.3133,0.0987,0.6069,0.1914,0.9006,0.284c0.1836,0.0578,0.3255,0.0794,0.2688,0.4212
	c-0.067,0.4029,0.069,0.7006,0.5368,0.6162c0.2207-0.0399,0.6877-0.1776,0.4503,0.4842c-0.0412,0.1148,0.0326,0.2854,0.053,0.4286
	c-0.5999,0.0858-1.1526-0.1894-1.75-0.0948c0.3208,0.1051,0.7207,0.8675,0.6228,1.2746c-0.1564,0.65,0.1792,1.1867,0.2234,1.7489
	c0.0766,0.971,0.7381,0.4716,1.0359,0.7881c0.0127,0.0136,0.0229,0.0305,0.0343,0.0457c-0.4635,0.0548-0.8694,0.2353-1.1409,0.7086
	c-0.0184,0.0231-0.029,0.048-0.0325,0.0744c-0.0041-0.0022-0.0084-0.0042-0.0124-0.0065c0.0148-0.0227,0.0298-0.0453,0.0449-0.0679
	c-0.1129-0.1837-0.3747,0.0455-0.457-0.2232c0.0062-0.3122-0.1719-0.3933-0.3902-0.405c-0.0799-0.0043-0.1851-0.0052-0.2109,0.1237
	c-0.0415,0.2068,0.1723,0.1609,0.2175,0.2848c-0.0678,0.1837-0.2889,0.0305-0.3549,0.2183
	c-0.0575,0.0035-0.115,0.0071-0.1725,0.0105c-0.0552-0.1187-0.0851-0.2963-0.1701-0.3458
	c-0.3263-0.1902-0.2188-0.3857-0.0406-0.6031c0.0937-0.0661,0.2718-0.0517,0.2468-0.2311
	c-0.0131-0.0939-0.1481-0.1788-0.2572-0.1389c-0.3958,0.1444-0.8245,0.0113-1.2124,0.201c-0.1302,0.0637-0.3496-0.006-0.36,0.2501
	c-0.0112,0.2767,0.2782,0.0772,0.3433,0.2565c-0.0907,0.0526-0.1849,0.0988-0.2714,0.1596
	c-0.0766,0.0537-0.2298,0.0595-0.1713,0.2249c0.0366,0.1034,0.1287,0.2151,0.2447,0.1626c0.2036-0.0923,0.5138-0.0966,0.3894-0.5246
	c0.2289,0.1693,0.8708-0.2408,0.6215,0.5998c-0.1,0.0075-0.1999,0.015-0.2998,0.0224c-0.4196-0.0971-0.5661,0.472-0.9045,0.5727
	c0.0003,0,0.0008,0,0.0011,0c-0.0007,0-0.0013,0-0.002,0.0001c0.0003-0.0001,0.0007-0.0001,0.0009-0.0001
	c-0.0501,0.0012-0.1001,0.005-0.1497,0.0127c-0.1485-0.0527-0.297-0.1053-0.4684-0.1661c0.3762-0.3269,0.3762-0.3269-0.0369-0.5775
	c-0.0456-0.256-0.1465-0.6314-0.3531-0.5443c-0.3096,0.1306-0.7341-0.0178-0.9334,0.4304
	c-0.3577-0.0147-0.8069,0.1252-1.0556-0.0739c-0.6821-0.5459-1.0755-0.6084-1.6117,0.0011c0.2114,0.2171,0.5722-0.1994,0.6563,0.069
	c0.2114,0.6752,0.7364,0.3484,1.0539,0.5754c-0.1854-0.0044-0.4044-0.0088-0.5792,0.1341C3.9912,53.621,3.486,53.66,2.9632,53.6205
	c-0.2235-0.0169-0.5318,0.1551-0.5006-0.3781c0.008-0.1382-0.2062-0.1806-0.3526-0.1017c-0.4922,0.2652-1.0525,0.2555-1.5427,0.5042
	c-0.1976,0.1003-0.5795-0.0943-0.567,0.2145c0.0143,0.3509,0.4172,0.2069,0.6423,0.3037c0.0601,0.026,0.1378-0.0096,0.2068-0.0045
	c0.5534,0.0415,1.1066,0.0858,1.66,0.1292c0.0043,0.0532,0.0086,0.1065,0.0129,0.1595c-0.5802,0.1777-1.1611,0.3524-1.7401,0.5354
	c-0.1162,0.0368-0.3155-0.1191-0.3366,0.1384c-0.0186,0.2268,0.1826,0.1979,0.3032,0.2481
	c0.0973,0.0405,0.2002,0.0843,0.3015,0.0873c1.117,0.0313,2.2453-0.0516,3.3036,0.5105c0.082,0.0435,0.2807,0.0202,0.2918-0.021
	c0.128-0.4707,0.3423-0.1394,0.3971-0.015c0.1113,0.2531,0.3074,0.2053,0.4626,0.3012c0.5155,0.3177,1.178,0.0477,1.6303,0.5763
	c0.0962,0.0769,0.2472-0.0047,0.3169,0.1488c0.1952,0.4303,0.5224,0.3668,0.8485,0.307c0.1005,0.0136,0.2009,0.0272,0.3014,0.0409
	c0.6072,0.1867,1.2341,0.2536,1.8424,0.4699c0.2924,0.1038,0.762,0.2082,1.039-0.2531c0.052-0.0865,0.1325-0.1261,0.2265-0.0846
	c0.5097,0.2249,1.063,0.0651,1.578,0.2426c0.0086,0.1213-0.1647,0.2453,0.081,0.3589c0.3723,0.172,0.6939,0.2815,0.9864-0.1371
	c0.6699,0.0605,1.3183,0.2043,1.9562,0.4772c0.3839,0.1643,0.7135,0.6098,1.1956,0.4042c0.0238-0.0101,0.0822,0.0505,0.1079,0.092
	c0.1895,0.3061,0.5015,0.1392,0.7427,0.257c0.0895,0.0439,0.2674,0.0007,0.2419-0.207c-0.0189-0.1551-0.1709-0.1846-0.2473-0.1282
	c-0.3347,0.2472-0.575-0.1217-0.8636-0.1494c-0.2254-0.0218-0.1768-0.229-0.149-0.3553c0.0456-0.2078,0.1664-0.2335,0.3061-0.0712
	c0.1966,0.2282,0.5439,0.1557,0.5902,0.0084c0.2198-0.6981,0.5533-0.2882,0.8541-0.1749c0.3178,0.1198,0.6068,0.2752,0.976,0.2216
	c0.5641-0.0819,1.1343-0.1986,1.7098-0.1231c0.0317,0.0772,0.0633,0.1546,0.095,0.232c-0.1909,0.1588-0.094,0.2818,0.0571,0.3283
	c0.1507,0.0464,0.362-0.013,0.3785-0.1914c0.022-0.2383-0.1967-0.1014-0.305-0.1459c0.0163-0.3701,0.28-0.1646,0.4209-0.2448
	c0.6851,0.1474,1.3773,0.2195,2.0719,0.2646c0.1963,0.3471,0.1693,0.5199-0.2408,0.4928c-0.407-0.027-0.8156-0.1916-1.2251-0.0163
	c-0.0912,0.1206-0.3308,0.1496-0.2206,0.3949c0.0734,0.1635,0.2096,0.0766,0.3185,0.0177c0.1436-0.0777,0.2667,0.0349,0.4,0.0512
	c0.5903,0.0724,1.151,0.4223,1.7752,0.2088c0.2636-0.0901,0.3363-0.1704,0.1322-0.4176c0.0452-0.157,0.3149-0.159,0.2516-0.3368
	c-0.214-0.601,0.2347-0.2895,0.3765-0.3949c0.1134,0.0339,0.1995,0.1299,0.3395,0.1128c1.3684-0.1659,2.7369,0.015,4.1148-0.0005
	c-0.3639,0.082-0.7045,0.2176-0.9727,0.4927c-0.1581,0.1622-0.3021,0.2135-0.5055,0.2241
	c-0.8627,0.0448-0.8623,0.0555-0.9759,1.0566c-0.0022,0.0199-0.009,0.0391-0.0137,0.0586c-0.2388,0.2465-0.4394,0.5877-0.839,0.3082
	c-0.1087-0.076-0.3141,0.0367-0.3458,0.1874c-0.1126,0.5321-0.4798,0.533-0.8286,0.622c-0.184,0.047-0.4955-0.0852-0.4875,0.3474
	c-0.0417,0.0702-0.0835,0.1404-0.1253,0.2107c-0.732,0.3194-1.5089,0.4579-2.2373,0.8177
	c-0.4645,0.2295-0.9814,0.3194-1.4004,0.6861c-0.5463,0.1048-0.8522,0.575-1.1864,1.0075c0.5348-0.06,1.0159-0.2727,1.4945-0.4914
	c0.0347-0.0103,0.0689-0.0238,0.1017-0.0464h0.0001c0.3325,0.0489,0.543-0.2993,0.8446-0.3513l0.001-0.0008
	c0.1511,0.0475,0.2659-0.0561,0.3805-0.1361c0.5237-0.3662,1.0981-0.4782,1.6972-0.4764c0.0001,0,0.0001,0.0002,0.0001,0.0002
	c0.3898,0.2578,0.7758,0.5185,1.2499,0.26c0.1059-0.0576,0.2541-0.0659,0.3216,0.0794c0.0931,0.2002-0.0703,0.2892-0.1752,0.3709
	c-0.2389,0.1865-0.5388,0.2754-0.6882,0.6009c-0.1544-0.0023-0.3041,0.0005-0.4566-0.0709
	c-0.3451-0.1618-1.6032,0.2149-1.6866,0.5921c-0.1855,0.8399-0.7154,0.7705-1.2467,0.8324
	c-0.3141,0.0366-0.7115-0.0688-0.9185,0.2802c-0.4544,0.7658-1.1501,0.9554-1.847,1.1698
	c-0.5489-0.0298-0.9004,0.3462-1.0664,0.8727c-0.1679,0.5327-0.4393,0.8049-0.9007,0.8491
	c-0.1721,0.0165-0.3288,0.0331-0.304,0.2907c0.0333,0.3453-0.1511,0.6098-0.2255,0.9144c-0.6575,0.3847-1.0346,1.1726-1.6783,1.58
	c-0.126,0.0797-0.1293,0.282-0.2025,0.4057c-0.2859,0.4823-0.4124,1.1745-0.9685,1.3371c-1.1236,0.3286-1.7676,1.4226-2.6358,2.1529
	c-0.304,0.2558-0.5524,0.5958-0.9194,0.7597c-0.3885,0.1735-0.6169,0.5639-0.5178,0.9995c0.1734,0.761-0.0917,1.2582-0.5146,1.7632
	c-0.1669,0.1994-0.3193,0.4611-0.4704,0.674c-0.2726,0.3836-0.4657,0.9257-0.9642,1.0442
	c-0.3238-0.0744-0.4231,0.3305-0.6965,0.4367C7.0106,81.4507,6.5,81.9179,6.0061,82.3869
	c-0.1667,0.1582,0.0153,0.8937-0.5301,0.4554c-0.0096-0.0078-0.0672,0.0959-0.112,0.112c-0.6583,0.239-0.6834,1.0318-1.0137,1.5569
	c-0.2438,0.3876-0.0471,0.4934,0.244,0.5224c0.117,0.0115,0.2379-0.0409,0.3577-0.0568c0.5764-0.0767,0.9405,0.1601,1.1159,0.7131
	c0.015,0.0473,0.0893,0.1162,0.1126,0.1056c0.3059-0.1396,0.4332,0.106,0.6644,0.2688c0.3602,0.2534,0.4771,0.637,0.5719,0.9682
	c0.2009,0.7022,0.5622,1.1779,1.0922,1.5257c0.0001,0,0.0001-0.0001,0.0001-0.0001c0.04,0.2557,0.0747,0.2944,0.4022,0.36
	c0.1514,0.0304,0.3881-0.0023,0.3729,0.2202c-0.0304,0.4474,0.2147,0.9211,0.001,1.3243c-0.3938,0.7433,0.2089,1.062,0.4764,1.4264
	c0.2333,0.3178,0.2531-0.2793,0.4298-0.3736c0.0454-0.0241,0.1028-0.0301,0.1536-0.0262c0.4828,0.0367,0.8799-0.2766,1.3185-0.4162
	c0.4514-0.1436,0.9445-0.2446,1.4027-0.1862c0.4306,0.0546,0.8334,0.2176,1.245-0.0656c0.1253-0.0862,0.2819-0.1157,0.3376,0.1051
	c0.0869,0.345,0.2064,0.6954,0.2155,1.0468c0.0132,0.5171,0.1893,0.7538,0.6289,0.7293c0.2131,0.1932,0.5885,0.1235,0.653,0.563
	c0.0202,0.1375,0.1127,0.1283,0.1864,0.0365c0.5018-0.6236,0.938-0.3349,1.3625,0.1297v-0.0002
	c0.0184,0.0581,0.0214,0.1184,0.0347,0.1771c-0.1256,0.0715-0.2406,0.1732-0.3079,0.3398
	c-0.1638,0.0549-0.2701,0.3454-0.4477,0.2504c-0.8668-0.4634-1.3562,0.5642-2.0733,0.7316
	c-0.2699,0.0631-0.6041,0.3746-0.9501,0.4569c-0.1869,0.0444-0.3722,0.0566-0.4661,0.289
	c-0.4177,0.3356-0.9701,0.3288-1.3637,0.7258c-0.1966,0.0596-0.4743,0.0634-0.464,0.3734c0.012,0.3586,0.296,0.1328,0.4502,0.1978
	c0.4424,0.1868,0.7683-0.1918,1.1496-0.2783c1.164-0.264,2.2231-0.8783,3.3464-1.2743c0.4524-0.1594,0.9027-0.354,1.3614-0.4564
	c0.1976,0.3139,0.5966,0.4248,1.11,0.2056c-0.2827-0.0028-0.4223-0.1427-0.5431-0.2786c0.2667-0.0062,0.4373-0.0329,0.5652-0.2799
	c0.1355,0.1782,0.274,0.4627,0.3986-0.1232c0.0223-0.1052,0.1467-0.0618,0.2293-0.057c0.1376,0.0082,0.0814,0.1141,0.0908,0.2076
	c0.0869,0.8609,0.2729,1.0532,1.0264,1.0858c0.0395,0.0087,0.079,0.0119,0.1185,0.017c-0.3776,0.4786-0.859,0.8358-1.1277,1.4138
	c-0.2282,0.4909-0.7623,0.6071-1.0146,1.0765c-0.9353,0.9817-1.795,2.0484-2.6179,3.1565c-0.2155,0.0713-0.314,0.3324-0.3381,0.4994
	c-0.1481,1.0285-0.8935,1.7699-0.9731,2.825c-0.0164,0.2161-0.0653,0.4441-0.2535,0.5724
	c-0.0995,0.0113-0.1372,0.0952-0.1811,0.1867c-0.3931,0.8201,0.0137,1.5458,0.2757,2.2262c0.2094,0.544,0.455,1.1457,0.9672,1.4593
	c0.5193,0.705,1.1705,1.183,1.9241,1.4638c0.4473,0.1668,0.8846,0.3653,1.2635,0.677c0.8299,0.6831,1.7838,1.0152,2.7193,1.4176
	c0.8951,0.3851,1.8066,0.7554,2.6311,1.5318c-1.1291,0.1903-2.1142,0.7589-3.2066,0.6336c0.0662-0.1455,0.3918-0.0371,0.2788-0.3111
	c-0.0674-0.1635-0.2846-0.0354-0.4352-0.0321c-0.2407,0.0055-0.2377,0.159-0.1694,0.3581
	c-0.6728-0.0296-1.3472-0.0996-2.0117,0.0981c-0.267,0.0795-0.5177-0.034-0.7684-0.1012c-0.2045-0.0547-0.3661-0.1421-0.3158-0.4908
	c0.0146-0.1026,0.0929-0.3609-0.165-0.5777c-0.4979-0.4187-1.0234-0.2533-1.5309-0.3599c-1.719-0.3609-3.3107,0.1903-4.8685,0.95
	c-0.2218,0.1082-0.4253,0.0566-0.6468,0.0562c-0.4573-0.0007-0.9174-0.4779-1.4741,0.0132
	c0.5105,0.1109,0.9263,0.2201,1.3472,0.2837c0.185,0.0279,0.3478,0.0728,0.4922,0.2064c-0.2121,0.1936,0.0871,0.4621-0.036,0.6012
	c-0.1373,0.1552-0.3728,0.1126-0.5432,0.0125c-0.2655-0.1557-0.4542-0.054-0.7131,0.1748c0.4734,0.1207,0.8681,0.279,1.27,0.3093
	c0.5081,0.0383,0.4539,0.4534,0.4419,0.7976c-0.0139,0.4026-0.3022,0.2509-0.5091,0.2495
	c-0.6853-0.0047-1.3707-0.0017-2.0561-0.0017c0.4914,0.2788,1.0052,0.1677,1.5078,0.2086c0.1721,0.014,0.4087-0.0321,0.4105,0.2267
	c0.0021,0.304,0.2152,0.5318,0.1834,0.8778c-0.641-0.0471-1.2611-0.0927-1.8812-0.1381c-0.0959-0.0071-0.2299-0.0757-0.2492,0.099
	c-0.0261,0.2368,0.136,0.1626,0.2483,0.1677c0.5153,0.0231,1.0304,0.0577,1.5459,0.0722c0.3398,0.0094,0.6548-0.0009,0.3953,0.5755
	c-0.0582,0.1294,0.0402,0.3088,0.0649,0.4637c0.0881,0.5562,0.4596,1.0142,0.525,1.5122c0.1278,0.9721,0.7118,1.4301,1.3093,1.777
	c1.6403,0.9523,3.2389,2.0556,5.0972,2.3876c0.084,0.2038,0.3129,0.0769,0.4128,0.2446c-0.0287,0.0158-0.0589,0.022-0.0905,0.0186
	c-0.1179,0.0047-0.2411-0.0152-0.3527,0.0182c-0.5548,0.1658-0.956,0.5283-1.2004,1.1605
	c-0.0771,0.1994-0.3224,0.3378-0.2064,0.6022c0.1059,0.2417,0.3236,0.1532,0.5068,0.1264c0.095,0.0175,0.19,0.0352,0.2849,0.0528
	c0.1515,0.177,0.3438,0.0921,0.5201,0.1098c0.1946,0.1566,0.4004,0.2695,0.6466,0.2258c0.1631,0.2164,0.1247,0.6697,0.5262,0.6053
	c0.1712,0.086,0.3424,0.1718,0.5136,0.2575c0.3937,0.5763,0.9966,0.2539,1.4752,0.4653c0.03,0.006,0.0595,0.0142,0.0885,0.0247
	c-0.1463,0.3402-0.0377,0.6346,0.1643,0.9043c-0.4592,0.1981-0.8985,0.1347-1.3288,0.164
	c-0.2592,0.0177-0.4786,0.0868-0.6062,0.3753c-0.6025,0.3628-1.3154,0.3395-2.0688,0.7353c0.3948,0.1361,0.644,0.1549,0.8978,0.1417
	c0.2932,0.2702,0.4812,0.5174-0.0898,0.6221c-0.0982,0.018-0.2287,0.0402-0.2508,0.1651c-0.0316,0.1784,0.1339,0.2048,0.2259,0.2708
	c0.0993,0.0711,0.2189,0.104,0.3294,0.1537c0.0079,0.0802-0.1957,0.1749-0.0461,0.2058c0.4817,0.0996,0.9044,0.5011,1.4267,0.3778
	l0.0023,0.0011l0,0c-0.0187,0.5119-0.4414,0.9536-0.1606,1.5375c0.0623,0.1296-0.1374,0.389-0.3686,0.413
	c-0.1058,0.0108-0.2338,0.0736-0.1144,0.2215c0.2015,0.2495,0.1334,0.4754-0.0077,0.7011
	c-0.1246,0.1994-0.0425,0.3122,0.1166,0.3475c0.4118,0.0913,0.3115,0.5509,0.4623,0.828c-0.3097,0.1597-0.2686,0.7636-0.6214,0.7791
	c-0.3358,0.015-0.2544,0.2826-0.3327,0.4599c-0.0431,0.0981,0.0923,0.2489-0.0511,0.3192c-0.4648,0.2276-0.1119,0.391,0.0349,0.5545
	c0.1769,0.1969,0.396,0.2275,0.6282,0.1611c0.3063,0.0869,0.6126,0.1738,0.919,0.2606c0.0815,0.1875,0.3994-0.0321,0.385,0.2777
	c-0.0098,0.2121-0.1523,0.3483-0.3395,0.4029c-0.066,0.0193-0.1381,0.0509-0.1866,0.1031c-0.2165,0.2334-0.3702,0.4619,0.051,0.6404
	c0.2373,0.1005,0.4641,0.2344,0.7043,0.3577c-0.1713,0.3993-0.4224,0.589-0.7615,0.5774c-0.3565-0.0122-0.6312,0.1759-0.8936,0.4175
	c-0.1653,0.0421-0.3477,0.0466-0.4916,0.1356c-0.1835,0.1134-0.5424,0.0376-0.4801,0.4704c0.0519,0.3598,0.2227,0.607,0.5721,0.6051
	l0.0009,0.0003c0.5305,0.6073,1.204,0.9164,1.88,1.2201l-0.0019,0.0008c0.3563,0.2796,0.7358,0.499,1.1605,0.5979
	c0.1547,0.036,0.3336,0.0551,0.3753,0.265c0.0671,0.3373,0.3328,0.3547,0.515,0.5174c0.4383,0.3912,1.2626,0.1051,1.3776,1.0555
	c0.0051,0.0407,0.0805,0.1015,0.1218,0.1001c0.7316-0.0253,1.3445,0.471,2.0345,0.6218c0.8304,0.1817,1.6592,0.3351,2.4736,0.6405
	c0.6267,0.2352,1.2641,0.5751,1.9625,0.477c0.3064,0.0641,0.6107,0.1493,0.9194,0.1885c1.4093,0.1788,2.7575,0.7951,4.1919,0.7915
	c0.5107,0.2583,1.0532,0.2084,1.5892,0.2215c1.2188,0.14,2.455,0.1052,3.6577,0.384c1.0048,0.2331,2.0054,0.4021,3.03,0.3472
	c1.3765,0.1195,2.7364,0.4003,4.1191,0.4902c1.5194,0.0987,3.03,0.3753,4.5461,0.5572c0.4459,0.0534,0.9235-0.0547,1.3404,0.0904
	c1.1083,0.3855,2.2301,0.4972,3.3739,0.4538l0.0005-0.0025c0.2253,0.2313,0.5096,0.2036,0.7786,0.2338
	c1.2765,0.1438,2.5675,0.1341,3.8232,0.4952c0.5177,0.1037,1.0437,0.0991,1.5655,0.2121c0.3824,0.0828,0.8021,0.2039,1.2062,0.041
	c0.0044,0.0033,0.0089,0.0063,0.0134,0.0097c0.0619,0.0315,0.1432,0.0395,0.1807,0.1031c0.2659,0.4511,0.614,0.5108,1.0286,0.3216
	c0.1268-0.0578,0.2711-0.0027,0.4045-0.0417c0.0742-0.0196,0.1485-0.0346,0.2228-0.0478c0.0627,0.003,0.1254,0.0062,0.1882,0.0093
	c0.4927-0.0497,0.9748,0.0681,1.4608,0.1256c0.3218,0.2392,0.7148,0.0411,1.0431,0.227c0.2713,0.1537,0.4628,0.4041,0.8351,0.4279
	c0.475,0.0304,0.9656,0.0025,1.4357,0.1242c0.2481,0.0641,0.3438-0.1043,0.4543-0.2863c0.748-0.0578,1.4616,0.323,2.2129,0.2365
	c0.0576-0.0067,0.1576,0.0293,0.175,0.0769c0.1787,0.4871,0.3925,0.1125,0.6043,0.0116c-0.0301,0.4324-0.3347,0.748-0.2697,1.1764
	c0.09,0.5939-0.1363,1.091-0.3258,1.6153c-0.1717,0.4751-0.2154,1.0011-0.2246,1.5219c-0.0975,0.0312-0.195,0.0625-0.2925,0.0937
	c-0.0309-0.0083-0.062-0.0144-0.0934-0.0185c-0.4426-0.304-0.9026-0.3034-1.3738-0.1066c-0.0001,0-0.0001,0-0.0001,0
	c-0.459,0.0886-0.7482-0.376-1.1487-0.478c-1.5278-0.6411-3.1042-0.8493-4.7188-0.7143c-0.2769-0.0047-0.5531-0.0144-0.8105-0.1558
	c-0.7373-0.4118-1.522-0.3954-2.3104-0.3481c-0.165-0.0468-0.3292-0.0971-0.4949-0.1397c-1.2177-0.3128-2.45-0.5236-3.685-0.7157
	c-0.199-0.3429-0.4246-0.6225-0.8307-0.4716c-0.0001,0-0.0003,0.0001-0.0003,0.0001c0-0.0001,0.0002-0.0001,0.0003-0.0003
	c-0.4999-0.0025-0.9935-0.3541-1.5034-0.026c-0.0713,0.0459-0.1781,0.0246-0.2302-0.1455
	c-0.1244-0.4059-0.4056-0.3705-0.6877-0.2533c-0.1293,0.0537-0.2572,0.1634-0.3902,0.0447
	c-0.4326-0.3863-0.9263-0.2089-1.3999-0.2192l0.0001,0.0002c0,0-0.0001,0-0.0002-0.0002c-0.2386-0.0225-0.479-0.0788-0.7155-0.0616
	c-0.6957,0.0508-1.2937-0.4699-1.9829-0.4357l0.0066-0.0157c-0.6291-0.1181-1.2583-0.2364-1.8875-0.3545
	c-0.0319-0.0088-0.0642-0.0127-0.0971-0.0119c-0.3499-0.1853-0.7155-0.0885-1.0743-0.0684
	c-0.1081,0.0059-0.2639,0.038-0.2697,0.2235c-0.0066,0.2071,0.1541,0.171,0.2639,0.2093c0.1343,0.047,0.3242-0.0378,0.3771,0.2106
	c0.0784,0.3675,0.7697,0.839,1.0841,0.8133c0.4291-0.0354,0.8925-0.2493,1.2739,0.1798c0.1674,0.1882,1.0791,0.2704,1.2486,0.0964
	c0.0232-0.0238,0.0594-0.0749,0.0531-0.0866c-0.3942-0.7314,0.2408-0.3357,0.3839-0.4759c0.1082,0.0368,0.2163,0.0736,0.3243,0.1104
	c0.0001,0,0.0001,0,0.0001,0c0.7312,0.3025,1.4086,0.8272,2.2632,0.5509c0.3133-0.1013,0.6698,0.0549,1.0214,0.2284
	c-0.2426,0.1631-0.4849-0.0044-0.7361,0.203c0.3214,0,0.5807-0.0001,0.8399,0c0.1938,0,0.3542,0.0141,0.4745,0.2643
	c0.2278,0.474,0.8786,0.489,1.1627,0.052c0.2007-0.3088,0.4998-0.2162,0.7037-0.1264c0.2283,0.1005-0.2281,0.2014-0.0227,0.4702
	c0.5852-0.4192,1.1891,0.0078,1.8132,0.0578c0.2645,0.0266,0.5291,0.0531,0.8815,0.0885c-0.312,0.265-0.5741,0.3839-0.9292,0.5119
	c0.3681,0.2564,0.6469,0.5846,1.0011,0.3963c0.3122-0.1662,0.6028-0.1403,0.9121-0.1123c0.0736,0.3615,0.2534,0.5169,0.579,0.6375
	c0.5207,0.1929,0.5758-0.418,0.8893-0.5491h-0.0002c0,0,0,0,0.0002-0.0001c0.2674-0.1553,0.5431-0.1729,0.8421-0.1458
	c0.3484,0.0315,0.7147,0.1729,1.0511-0.08v0.0001c0.2733,0.0069,0.5466,0.0138,0.8199,0.0207c0,0,0,0-0.0001,0
	c0.0659,0.196,0.4622,0.0766,0.3216,0.4905c-0.0783,0.2305-0.2491,0.2985-0.4073,0.4046c0.4538,0.1059,0.8747,0.2293,1.3021,0.293
	c0.206,0.0307,0.5233,0.1394,0.611-0.1267c0.0885-0.2688-0.3091-0.1731-0.384-0.3855c-0.0097-0.0274,0.014-0.0708,0.0485-0.2209
	c0.3957,0.5326,0.8203-0.1517,1.2411,0.1216c0.2793,0.2965,0.6405,0.1555,0.9598,0.2387c0.3158,0.0824,0.5994,0.1456,0.2042,0.5624
	c-0.0674,0.0711-0.1212,0.1558-0.0661,0.2592c0.0818,0.1543,0.1733,0.0033,0.2582,0.0047c0.4265,0.0069,0.6998-0.5008,1.1355-0.4397
	c0.4929,0.5357,1.0121,0.8775,1.6854,0.3814c0.1047-0.0772,0.2832-0.0712,0.3734,0.0802c0.0376,0.0632,0.0349,0.2275-0.0081,0.2765
	c-0.3865,0.4419,0.0212,0.295,0.1773,0.334c0.2954,0.2028,0.2028,0.5971,0.1494,0.8051c-0.1908,0.7437,0.2077,0.6888,0.583,0.6573
	c0.6243-0.0523,1.2302,0.0247,1.8204,0.2617c0.1835,0.0736,0.3689,0.0744,0.5589,0.0925c0.9216,0.0878,1.8472-0.3172,2.7683,0.0402
	c0.1144,0.0445,0.3072,0.0013,0.3972-0.0899c0.2949-0.2984,0.6099-0.2228,0.9271-0.1264c0.3441,0.1043,0.6879,0.0836,1.0345,0.0522
	c0.7017,0.1561,1.4381-0.0503,2.1108,0.1323c0.7376,0.2005,1.3936-0.0139,2.0818-0.1392c0.6989,0.1992,1.4077,0.3616,2.0931,0.611
	c0.4438,0.1615,0.8255-0.1764,1.2441-0.0885c0.0894,0.0811,0.2498,0.1552,0.2563,0.2444c0.034,0.4704,0.0206,0.4716,0.3815,0.5888
	c0,0,0-0.0002-0.0002-0.0002c0.0002,0,0.0002,0,0.0002,0.0002c0.101,0.0446,0.202,0.0893,0.3029,0.1339
	c-0.0638,0.3855-0.151,0.6116-0.5329,0.2785c-0.2658-0.2318-1.1841,0.0566-1.5394,0.4555c0.7831-0.1134,1.4823,0.2079,2.2221,0.0311
	c0.631-0.1509,1.2702,0.0823,1.9043,0.1715c0.1728,0.0243,0.5026,0.1334,0.4829-0.0945c-0.0336-0.3883,0.1585-0.2345,0.2521-0.208
	c0.2216,0.0625,0.4477,0.0594,0.6675,0.1018c0.9608,0.1853,2.0019-0.0531,2.8579,0.7126c0.0403,0.036,0.1327-0.0068,0.2009-0.0129
	c0.4464,0.047,0.8903,0.0846,1.3364,0.1731c1.6329,0.3241,3.2761,0.5761,4.9114,0.8841c1.2501,0.2354,2.4857,0.5943,3.7669,0.5208
	c0.1774-0.0101,0.368,0.0099,0.4956,0.1501c0.5258,0.5777,1.1737,0.6214,1.8443,0.6526c0.5334,0.0247,1.0658,0.0615,1.5903,0.2642
	c0.5248,0.203,1.091,0.241,1.6463,0.2529c1.3897,0.0297,2.7802,0.0742,4.1694,0.0494c3.4221-0.0612,6.8495,0.0862,10.2624-0.3778
	c1.4324-0.1947,2.8841-0.2202,4.3084-0.4682c2.108-0.3668,4.199-0.8653,6.2982-1.3013c0.2207-0.0458,0.4699-0.1283,0.6685-0.0557
	c0.6361,0.2323,1.2336-0.0256,1.8455-0.109c0.7862,0.1479,1.5399-0.3303,2.3207-0.1757c0.3442,0.0681,0.6634,0.0377,0.965-0.1313
	c0.2949-0.1651,0.5971-0.2112,0.9134-0.1877c1.2027,0.0892,2.3964-0.1084,3.59-0.2058c0.5896-0.0482,1.176,0.0824,1.765-0.0622
	c0.8784-0.2158,1.7367-0.5329,2.664-0.4925c0.5188,0.0226,1.0459-0.2161,1.5691-0.3372c0.6537,0.0338,1.251-0.2834,1.8731-0.4355
	c0.2875-0.0704,0.6075,0.1067,0.8542-0.1383c0.5051-0.5019,1.0681-0.7519,1.7327-0.9207c1.178-0.2994,2.313-0.699,3.4951-0.0633
	c0.3094,0.1663,0.6284,0.0017,0.7477-0.3285c0.1643-0.4544,0.4605-0.4992,0.7934-0.5311c0.6217-0.0597,1.2369-0.1628,1.8394-0.3558
	c0.8599-0.0876,1.7197-0.1753,2.5796-0.263c0.5137,0.0887,0.986-0.1937,1.4869-0.228c0.1067-0.0074,0.1761-0.0759,0.1259-0.2499
	c-0.1159-0.4015,0.1416-0.5586,0.3844-0.7141c0.2883-0.0245,0.5765-0.0489,0.8648-0.0733
	c-0.0025-0.0508-0.0051-0.1015-0.0075-0.1523c-0.2864-0.0177-0.5727-0.0352-0.8591-0.0528c-0.2779-0.218-0.2918-0.237-0.2049-0.3256
	c0.257-0.2623,0.4524-0.5942,0.8548-0.6614c0.2692-0.0451,0.5988-0.0346,0.8114-0.3289c0.3606-0.0104,0.7149-0.0563,1.0436-0.2483
	c0.2767-0.0177,0.5472,0.039,0.8211,0.0721c0.9634,0.1157,1.9068-0.0752,2.8446-0.3104l0.0477,0.0047l0.0449-0.0194
	c0.9029,0.0423,1.8017,0.1701,2.6993,0.2638c1.248,0.13,2.4958-0.0877,3.7427,0.1435c0.9244,0.1714,1.8705,0.1543,2.8096,0.0507
	c0.3622-0.0399,0.7141-0.1668,1.0854-0.134c1.7993,0.1582,3.5984,0.4152,5.3991,0.4317c2.17,0.0198,4.3235-0.3204,6.4256-1.0002
	c0.3953,0.1308,0.8462,0.1659,1.1689,0.4207c0.289,0.2281,0.5413,0.2347,0.8236,0.1877c0.2371-0.0395,0.422-0.169,0.1543-0.4718
	c-0.1117-0.1263-0.2663-0.3261-0.1788-0.4621c0.3092-0.4798-0.0348-0.5757-0.2782-0.745c0.243-0.2232,0.5674-0.0941,0.8242-0.2577
	c0.2993,0.0126,0.4125-0.3372,0.2299-0.4068c-0.4367-0.166-0.603-0.7603-1.0753-0.8045c-0.5694,0.073-1.0893-0.1405-1.606-0.3745
	c-0.1315-0.0594-0.2404-0.1208-0.2889-0.3087c-0.2253-0.8746-0.3721-0.9797-1.1213-1.0665
	c-0.5981-0.0692-1.1662,0.2344-1.7606,0.1391c-0.1898-0.1358-0.4058-0.108-0.6069-0.0943
	c-0.5782,0.0398-1.1425-0.0404-1.8581-0.1842c0.5747-0.2147,1.0372-0.6798,1.4358-0.3952c0.3477,0.2483,0.5797,0.1479,0.8822,0.0896
	c0.6658-0.1286,1.3342-0.2392,2.0015-0.357c0.1365,0.2503,0.2568,0.3614,0.4606,0.0439c0.1776-0.2766,0.451-0.3545,0.7548-0.425
	c0.2606-0.0604,0.7364,0.1951,0.7766-0.4422c0.0389,0.0335,0.0779,0.0669,0.1168,0.1004c-0.0312,0.1808-0.0667,0.3642,0.1779,0.3611
	c-0.1374,0.2534-0.2379,0.4511,0.1812,0.3678c0.317-0.0631,0.7089-0.1819,0.7063,0.533c0.1843-0.3488,0.1104-0.7008,0.2412-0.9768
	c0.0112-0.0205,0.0226-0.0391,0.0335-0.062l0.0001-0.0002c0.0185-0.0325,0.024-0.0712,0.0237-0.1126
	c0.1138-0.4538,0.4053-0.5233,0.8082-0.3708c-0.2193,0.0475-0.4852,0.0398-0.4489,0.4084c0.0351,0.3556,0.3146,0.2287,0.4892,0.3053
	c0.1449,0.0638,0.2664-0.0085,0.3782-0.1117c0.4356,0.0923,0.8627,0.1513,1.2356-0.2348c0.1919-0.1988,0.4785,0.0945,0.6718-0.1488
	c0.4312,0.1151,0.8932-0.0257,1.3068,0.1676c0.016-0.1322,0.0374-0.3094,0.0588-0.4865c0.0815-0.0669,0.078-0.1642,0.0692-0.2632
	c0.0814-0.0318,0.1643-0.0943,0.2439-0.0893c0.212,0.0132,0.4323-0.0648,0.4235-0.2982c-0.0064-0.1679-0.1955-0.3398-0.4251-0.3453
	c-0.3711-0.0089-0.7454-0.0035-1.1161-0.0346c-0.2445-0.0206-0.4162-0.2744-0.4322-0.2467
	c-0.2644,0.4574-0.4013-0.0232-0.5524-0.1311c-0.214,0.2586,0.002,0.4558-0.0102,0.6651c-0.1837-0.0332-0.3783-0.1298-0.5488-0.089
	c-0.7552,0.1803-1.4659-0.0332-2.1786-0.2669c-0.1686-0.1514,0.1397-0.478-0.1803-0.598c-0.2767-0.1039-0.0245,0.3579-0.287,0.2511
	c-0.0234-0.3074-0.1958-0.5215-0.4648-0.634c0.0688-0.0963,0.2616-0.0813,0.2177-0.2666c-0.0327-0.1387-0.1684-0.1077-0.2658-0.0958
	c-0.3023,0.0369-0.6036,0.0835-0.9054,0.1264c-0.5311-0.0101-1.0623-0.0185-1.5935-0.0309
	c-0.3838-0.0091-0.7736-0.1056-1.1397,0.1164c-0.0591,0.0038-0.1181,0.0075-0.1773,0.0114
	c-0.2758-0.5993-0.8373-0.7614-1.3302-0.3958c-0.0643,0.0478-0.1642,0.0306-0.2475,0.0434l0.0014-0.0027
	c-0.1638-0.3122-0.3548-0.1115-0.5245-0.0221c-0.125,0.066-0.2761,0.2248-0.3757,0.1398c-0.4103-0.3506-0.7966-0.0124-1.1914,0.0062
	c-0.1873-0.1178-0.4119-0.1292-0.5356,0.0412c-0.2808,0.3872-0.4671,0.2878-0.754-0.0122c-0.2247-0.2348-0.5859-0.304-0.8523-0.0567
	c-0.2529,0.2348,0.1546,0.3086,0.153,0.5033c-0.5049,0.1267-1.0121,0.0974-1.5232,0.0576c-0.2599-0.0203-0.5242,0.034-0.7865,0.0547
	c-0.2517,0.0498-0.422-0.1372-0.6133-0.2757c-0.5781-0.4185-1.8761-0.2822-2.343,0.2471c-0.1478,0.1674-0.3228,0.2294-0.4562,0.0574
	c-0.2064-0.2661-0.47-0.2805-0.7179-0.253c-0.5811,0.0644-0.9193-0.3856-1.333-0.7039c0.101-0.172,0.1803-0.0418,0.2588-0.0531
	c1.7694-0.2541,3.5561-0.1252,5.3306-0.3451c1.1137-0.138,2.2461-0.0581,3.3683-0.1198c0.9848-0.054,1.9679-0.2469,2.9502-0.2336
	c0.8472,0.0116,1.6594-0.1416,2.5669-0.3209c-0.1649-0.0433-0.2444-0.0808-0.3244-0.0827
	c-1.2748-0.0298-2.5448-0.1156-3.8252,0.0064c-1.3372,0.1274-2.6863,0.1057-4.0301,0.1084
	c-0.7821,0.0016-1.5662,0.3139-2.3586-0.0506c-0.118-0.0543-0.377-0.0871-0.5751-0.0457c-1.447,0.3018-2.9211,0.1735-4.3754,0.3674
	c-0.6612,0.0882-1.3132-0.1192-1.9729-0.1049c-0.0913-0.0895-0.2456,0.0354-0.3159-0.1258
	c0.0284-0.0719,0.0568-0.1438,0.0851-0.2157c0.0013-0.3451,0.2918-0.429,0.4326-0.6482c0.6194-0.2233,1.2567-0.0431,1.8829-0.1134
	c0.2751-0.004,0.5502-0.008,0.8254-0.012c0-0.0002,0-0.0002,0-0.0002c0.275-0.0649,0.4459-0.2121,0.3371-0.5793
	c0.5621-0.0949,1.0152,0.5375,1.6213,0.4203c-0.0868-0.3214-0.3496-0.2588-0.4342-0.4477c0.1736-0.0852,0.3273-0.1604,0.481-0.2357
	c0.036,0.0373,0.072,0.0747,0.108,0.112c-0.0253,0.1876-0.0053,0.3736,0.1167,0.5012c0.1412,0.1478,0.4169,0.1869,0.3727-0.0631
	c-0.0741-0.4206,0.2121-0.38,0.3414-0.5379c0.1041-0.0824,0.2083-0.1649,0.3124-0.2473v-0.0002
	c0.3514,0.2467,0.7438,0.2628,1.137,0.2741c0.0089-0.0196,0.0158-0.0399,0.0207-0.0611c0.0042,0.0005,0.0086,0.0011,0.013,0.0016
	c-0.0113,0.0199-0.0224,0.0396-0.0337,0.0595c0.245,0.4928-0.3775,0.1915-0.3406,0.5249c0.3485,0.115,0.6332,0.0799,0.7377-0.4241
	c0.5033,0.6096,0.5157,0.6113,0.976,0.1218c0.0469-0.05,0.0621-0.06,0.1452-0.041c0.2883,0.0658,0.6078,0.1507,0.8113-0.2325
	c0.3186,0.029,0.6436,0.154,0.945-0.083c0.1464,0.1274,0.2942-0.0175,0.4436,0.0011c0.1258,0.0158,0.3048,0.0526,0.3162-0.1753
	c0.0102-0.2052-0.1498-0.2533-0.2894-0.2577c-0.4492-0.0139-0.9133-0.1715-1.3316,0.162c-0.2183-0.2774-0.4753-0.1967-0.7332-0.1074
	l-0.003-0.001c-0.2668-0.1469-0.5469-0.1629-0.8335-0.115c-0.0288-0.0152-0.0589-0.0232-0.0904-0.0239
	c-0.1955-0.2388-0.3686-0.0674-0.5381,0.0474c-0.1266,0.0856-0.2215,0.2575-0.401,0.1717
	c-0.0408-0.1712,0.1184-0.3347,0.0223-0.5103c-0.1921,0.021-0.3762,0.041-0.5601,0.0612c-0.0333,0.0021-0.0651-0.0044-0.0958-0.0194
	c-0.38-0.245-0.5553,0.0907-0.754,0.3597c0.0126,0.0167,0.0251,0.0335,0.0377,0.0502c-0.0005,0.0005-0.001,0.0011-0.0015,0.0017
	c-0.0121-0.0173-0.0242-0.0346-0.0362-0.0519c-0.1041-0.2239-0.1875-0.5286-0.4343-0.1319c-0.0623,0.1001-0.1348,0.152-0.2624,0.085
	c-0.2918-0.1533-0.5819-0.0932-0.8589,0.0764c-0.0701,0.0506-0.4214-0.0119-0.5703-0.0075
	c-0.0887,0.0027-0.5074-0.2725-0.281,0.2721c0.0474,0.1142-0.1195,0.0284-0.1759,0.0725c-0.2704-0.2952-0.5934-0.3934-0.9556-0.3447
	c-0.3421-0.5378-0.5211-0.5417-0.8552-0.0018c-0.0757,0.1222-0.1631,0.1271-0.2686,0.1116
	c-0.3411-0.0503-0.5058-0.2912-0.504-0.8912c-0.1799,0.396-0.3405,0.459-0.5656,0.4307c-0.295-0.0372-0.2682,0.2169-0.2167,0.45
	c-0.4308,0.14-0.8822-0.3039-1.3295,0.0858c-0.077,0.0669-0.3547,0.0116-0.3861,0.2165c-0.0304,0.1982,0.1913,0.2379,0.3197,0.3227
	c0.0607,0.0399,0.124,0.0756,0.0981,0.1923c-0.5477,0.3235-1.0816-0.0424-1.6235-0.0654c-0.0792-0.1676-0.4189-0.3457,0.0108-0.4934
	c0.0982-0.0337,0.1564-0.0651,0.096-0.1957c-0.0433-0.0932-0.102-0.1764-0.1935-0.1722c-0.2345,0.0107-0.4231,0.1816-0.5788,0.3434
	c-0.2066,0.2149,0.0667,0.2558,0.1512,0.3724c0.1082,0.1494-0.1053,0.163-0.1095,0.2741c-0.0658,0.0304-0.1317,0.0607-0.1975,0.0911
	c-0.0014-0.2282-0.2754-0.3366-0.2027-0.588c0.0619-0.2143,0.1625-0.4372-0.0742-0.5721c-0.2933-0.1673-0.2823,0.2679-0.4576,0.3456
	c-0.3896-0.0556-0.7798-0.1081-1.1532-0.2607c-0.3442-0.403-0.3889,0.0647-0.5316,0.2475
	c-0.0729,0.0019-0.1459,0.0041-0.2188,0.0061c-0.0784-0.0404-0.1712-0.0614-0.2326-0.1242c-0.4033-0.413-0.7744-0.38-1.1993-0.0011
	c-0.1208,0.1076-0.3506,0.3545-0.5935,0.1302c-0.0451-0.0414-0.137-0.0149-0.1694,0.0746c-0.0452,0.1253,0.0228,0.184,0.1114,0.2161
	c0.0956,0.0348,0.1939,0.0597,0.2911,0.089c0.1167,0.7187,0.1167,0.7187-0.5018,0.7093c-0.0328-0.2253,0.0703-0.5697-0.3149-0.4861
	c-0.0636-0.1184-0.8999-0.6579-1.0383-0.6724c-0.0866-0.0091-0.1724-0.0303-0.2591-0.0356
	c-0.4631-0.0282-1.0174-0.2392-1.3668-0.0966c-0.8094,0.3302-1.6435,0.0136-2.422,0.3371c-0.103,0.5415-0.3264,0.6558-1.0966,0.5613
	c0.5659,0.0401,0.5659,0.0401,0.754-0.2229c-0.7256-0.3453-1.4749-0.5996-2.3534-0.7506c0.5538-0.2085,1.0447-0.21,1.4404-0.5191
	c0.3204-0.2505,0.6777-0.0113,0.9965-0.164c0.0577,0.2575,0.17,0.4176,0.4253,0.3229c0.3729,0.1417,0.735,0.1578,1.0705-0.1276
	c0.607,0.4448,1.2617-0.0529,1.8978,0.1358c0.4605,0.1366,0.9457-0.1815,1.4325-0.1146c0.3223-0.0783,0.6495,0.1389,1.0377,0.0023
	c-0.2239-0.1807-0.3939-0.318-0.5518-0.4454c0.4037-0.1724,0.8327-0.1371,1.2573-0.1113c0.2807,0.0171-0.0129,0.1128,0.0064,0.1706
	c-0.0648,0.0075-0.1857,0.0146-0.1538,0.0899c0.0666,0.1567,0.1862,0.2945,0.3585,0.2879c0.4503-0.0175,0.9-0.0637,1.35,0.0086
	c0.0817,0.0132,0.1908,0.0351,0.2-0.1013c0.0071-0.1045-0.0733-0.1725-0.1622-0.2046c0.0001-0.0001,0.0002-0.0001,0.0003-0.0001
	c-0.0274-0.1288-0.2053-0.019-0.22-0.1896c0.0499-0.0241,0.0958-0.0451,0.141-0.068c0.1127-0.0574,0.337,0.0145,0.304-0.2144
	c-0.0315-0.2177-0.2279-0.0963-0.3529-0.0974c-0.5489-0.005-1.0979-0.0022-1.6469-0.0022c0.1107-0.0996,0.2429-0.0822,0.3208-0.2134
	c0.144-0.0399,0.1937-0.1253,0.0285-0.1958c-0.2457-0.1051-0.5079-0.0764-0.7655-0.0509c-0.4833,0.0702-0.9813-0.1267-1.4556,0.1084
	c-0.3866-0.1052-0.7726-0.1616-1.1555,0.0202c-0.07-0.0033-0.14-0.0065-0.2099-0.0098c-0.9379,0.0056-1.8883-0.2361-2.8022,0.1884
	c0.1312,0.2917,0.3782,0.1062,0.5572,0.1856c0.2007,0.0888,0.4093-0.0913,0.7222,0.0672c-1.8387,0.4338-3.5538,0.5973-5.3718,0.126
	c1.286-0.3384,2.5193-0.0414,3.7126-0.3677c-0.4742-0.0438-0.9384-0.2873-1.3877-0.194c-0.4984,0.1036-0.9947,0.1027-1.4866,0.1069
	c-1.1406,0.0097-2.2861-0.0644-3.4221-0.0426c-1.1881,0.0231-2.3704,0.237-3.5614-0.0102
	c-0.2522-0.0524-0.4593,0.3667-0.7609,0.1905c-0.1606-0.5487,0.3486-0.2489,0.4436-0.474c0.3216-0.0087,0.6242-0.2425,0.9624-0.0957
	c0.0936,0.0407,0.2534,0.297,0.3005-0.0122c0.0229-0.1499,0.0455-0.4471-0.2745-0.4065c-0.2473,0.0315-0.4861-0.0984-0.7137-0.2198
	c-0.3922-0.2163-0.8074-0.2863-1.2373-0.2628c-0.0359-0.0268-0.0733-0.0399-0.1112-0.0467
	c-0.2944-0.1203-0.5962-0.2082-0.9098-0.1944c-0.1585,0.0071-0.4245-0.0003-0.2239,0.3515
	c0.2173,0.2644,0.1957,0.4361-0.1453,0.4046c-0.8825-0.0816-1.7722-0.1264-2.6424-0.299c-0.5513-0.1095-1.1225-0.0954-1.664-0.3335
	c1.4201-0.6034,2.8809-0.2956,4.3403-0.2559c-0.083-0.2568-0.2644-0.294-0.4295-0.3301c-0.6652-0.1455-1.3309-0.2912-1.9997-0.4107
	c-0.8403-0.1499-1.7055-0.1969-2.3867-0.909c-0.0506-0.0529-0.212-0.0236-0.1038-0.1789c0.0334-0.0477,0.1265-0.0393,0.1923-0.0564
	c0.1308,0.2019,0.224,0.0133,0.33-0.043c0.9587-0.0502,1.8982-0.2535,2.8344-0.4819c0.745-0.1416,1.5028-0.2268,2.2302-0.447
	c0.4025-0.1219,0.8347-0.0342,1.2099-0.2781c0.8369-0.0944,1.6768-0.1762,2.4138-0.7227c1.2439,0.0655,2.3456-0.3958,3.3478-1.2251
	c0.9242,0.0522,1.7862-0.5318,2.7229-0.3623c0.0389,0.007,0.1232-0.0426,0.1228-0.0644c-0.0092-0.5556,0.3467-0.3098,0.549-0.3125
	c0.2443-0.0034,0.4923,0.0269,0.7224-0.0686c0.8095-0.3357,1.6496-0.1739,2.4724-0.1917c1.3703-0.03,2.7344,0.258,4.1095,0.1785
	c0.3815-0.0222,0.7584,0.0085,1.1407,0.0561c0.5839,0.0729,1.1981,0.1618,1.7594,0.0235c0.4407-0.1085,0.8617-0.2174,1.3138-0.2032
	c1.4008,0.0439,2.7899,0.3821,4.2018,0.1951c0.3699-0.0491,0.778-0.0672,1.119,0.1804c0.3564,0.2588,0.7394,0.2539,1.1088,0.1571
	c0.3666-0.096,0.7301-0.1148,1.0874-0.056c1.4211,0.2341,2.8468,0.3388,4.2787,0.2291c0.4369-0.0335,0.8877,0.0166,1.4004-0.1601
	c-0.1885-0.0891-0.2933-0.1647-0.406-0.1876c-0.746-0.152-1.4974-0.2712-2.2396-0.4441c-0.5686-0.1327-1.1185-0.3935-1.6899-0.4839
	c-1.4088-0.2224-2.825-0.3795-4.2382-0.5629c-0.1258-0.1849-0.4861-0.1318-0.4483-0.4172c0.0417-0.3162,0.3488-0.1197,0.528-0.1933
	c0.0924-0.038,0.1792-0.094,0.2918-0.1543c-0.1671-0.1607-0.304-0.3131-0.4591-0.4339c-0.1023-0.0797-0.2315-0.1275-0.197-0.3028
	c0.033-0.1682,0.1742-0.1856,0.2901-0.195c0.4867-0.0393,0.9074-0.3222,1.3605-0.484c0.3121,0.0417,0.622-0.1474,0.935-0.0127
	c0.1475,0.38,0.4469,0.2903,0.6817,0.2403c0.7928-0.1684,1.595-0.1598,2.384-0.0976c0.7831,0.0616,1.4341-0.237,2.0843-0.6142
	c-0.2425-0.5112-0.6377-0.8355-1.053-0.8358c-0.8149-0.0008-1.6192-0.1418-2.4319-0.1562
	c-0.3832-0.0069-0.7824,0.2373-1.1428-0.0044c-0.2208-0.148-0.4194-0.1469-0.6425-0.0968
	c-0.0324,0.0123-0.0622,0.0066-0.0895-0.0169c-0.1026-0.8659-0.4199-1.5006-1.2555-1.5766
	c-0.3081-0.1251-0.577-0.4483-0.9483-0.2544c-0.2682,0.0044-0.4184-0.073-0.5911-0.403c-0.3542-0.677-1.0083-0.9143-1.6637-0.9391
	c-0.7866-0.0299-1.5495-0.2395-2.3101-0.3999c-0.8695-0.1834-1.7462-0.413-2.6153-0.4478c-1.6119-0.0645-3.1331-0.7591-4.742-0.7865
	c-0.3034-0.0052-0.6051-0.1382-0.9076-0.2121c1.5791-0.2563,3.1276,0.0962,4.6838,0.2597c1.5566,0.1637,3.1091,0.3927,4.668,0.51
	c1.5524,0.1169,3.0615,0.6694,4.6792,0.7189c-0.5366-0.6782-1.1668-0.6548-1.7772-0.7677c-1.3017-0.241-2.6289-0.2867-3.9094-0.6872
	c-0.0207-0.0138-0.0417-0.0251-0.0629-0.0343c-0.3966-0.1938-0.9066,0.0692-1.3042-0.4021
	c0.3897-0.1607,0.7302-0.0008,1.0577-0.0644l-0.0031,0.0127c0.3421,0.3021,0.6996,0.1842,1.1327,0.062
	c-0.2507-0.2122-0.4664-0.3008-0.7101-0.3087c-0.2796-0.0541-0.391-0.5931-0.7175-0.4125c-0.3272,0.181-0.6324,0.0915-0.9505,0.0702
	c-0.2742-0.0778-0.5149-0.4057-0.8337-0.1518l-0.0043-0.0036c0.0407-0.2273-0.4014-0.434-0.0669-0.6275
	c0.1644-0.0951,0.2887-0.4611,0.5712-0.2357c0.0663,0.0529,0.1837,0.0158,0.1983-0.1105c0.0105-0.0907-0.0005-0.2083-0.0441-0.2786
	c-0.06-0.0967-0.1666-0.0632-0.2204,0.0211c-0.1785,0.2796-0.3662,0.0641-0.4951-0.0263c-0.246-0.1728-0.4874-0.2467-0.781-0.1449
	c0.0467-0.3717,0.3398-0.4485,0.5416-0.757c-0.2322,0-0.395,0-0.5578,0c-0.0273-0.0716-0.0545-0.1434-0.0819-0.2148
	c-0.0468-0.1222,0.1799-0.3291-0.0679-0.3769c-0.1743-0.0337-0.2017,0.0937-0.2014,0.2969
	c0.0002,0.1992-0.1194,0.1359-0.1825,0.0101c-0.0738-0.1474-0.1618-0.1956-0.2908-0.0952
	c-0.2061-0.0833-0.4122-0.1667-0.6184-0.2499c-0.0014-0.0321,0.0006-0.0639,0.0061-0.0955
	c0.0296,0.0009,0.0589-0.0031,0.0876-0.0119c0.3545,0.0053,0.5542-0.3976,0.9147-0.4557c0.1552-0.0252,0.0528-0.3593-0.1968-0.3823
	c-0.0194-0.0267-0.0422-0.0511-0.0563-0.0812c-0.006-0.0124,0.0012-0.0435,0.0116-0.0546c0.3047-0.3257,0.6852,0.1505,0.9951-0.1271
	c0.1451,0.1573,0.1081,0.5271,0.4212,0.4878c-0.0561,0.6469-0.0561,0.6463,0.5615,0.6075c0.0156-0.001,0.0335,0.052,0.0485,0.0767
	c-0.028,0.2146-0.3296,0.0531-0.3144,0.3186c0.0067,0.1189,1.0553,0.7627,1.0897,0.6758c0.1168-0.2942,0.3586-0.1202,0.5756-0.2671
	c-0.4489,0.0708-0.12-0.5818-0.4874-0.5738c-0.0043-0.3277-0.2154-0.4011-0.4285-0.4721c-0.1715-0.0877,0.0345-0.1596,0.0075-0.2414
	c0.1894,0.0715,0.4689,0.0769,0.5501,0.2275c0.1909,0.3533,0.4225,0.3236,0.6939,0.2612c0.3347,0.0409,0.6039,0.3434,0.869,0.4305
	c0.6762,0.2221,1.3731,0.5558,2.1227,0.3277c0.1864-0.0567,0.4443-0.1057,0.5454,0.2719c0.0421,0.157,0.241,0.232,0.4049,0.1065
	c0.1013-0.0778,0.1792-0.1283,0.3254-0.0957c0.664,0.1482,1.3331,0.269,1.987-0.0833c0.1118-0.0602,0.2419-0.0753,0.2485-0.2557
	c0.0069-0.1871-0.1097-0.225-0.2374-0.2545c-0.1348-0.031-0.2672-0.076-0.4005-0.1159c-0.1587-0.0478-0.2146-0.1591-0.2072-0.3561
	c0.0129-0.3461,0.4031-0.312,0.438-0.6228c0.0682,0.0972,0.1453,0.1875,0.2028,0.2926c0.1737,0.3177,0.4089,0.542,0.7253,0.3539
	c0.2279-0.1352,0.4233-0.0956,0.6488-0.075c0.2669,0.0244,0.5782,0.1453,0.7224-0.3171c0.0429-0.1373,0.1713-0.0398,0.1961,0.1092
	c-0.0043,0.1375-0.0086,0.2752-0.0128,0.4128c-0.6311,0.1901-1.2783,0.3364-1.8474,0.8242
	c0.3392,0.3167,0.6177-0.0158,0.8373,0.0588c0.499,0.1694,0.9703,0.5156,1.377-0.1736c0.0132-0.0223,0.0662-0.0226,0.0991-0.0179
	c0.5179,0.0727,1.0701-0.0398,1.5245,0.3783c0.3809,0.0054,0.7619,0.0107,1.1427,0.016l0.0004-0.0002
	c0.1767,0.3755,0.4855,0.3609,0.7297,0.2135c0.1721-0.104,0.4807,0.0332,0.5235-0.3369c0.0999-0.0022,0.1997-0.0045,0.2996-0.0069
	c0.2232,0.0205,0.5088-0.0515,0.6558,0.0824c0.2394,0.2182,0.4374,0.1352,0.6151,0.0117c0.1953-0.1357,0.3326-0.3253,0.4593,0.0649
	c0.0337,0.104,0.153,0.1097,0.2318,0.0764c0.1491-0.0632-0.0097-0.1616,0.0055-0.234c0.0602-0.2863-0.0929-0.6597,0.3143-0.8067
	c-0.1756-0.0966-0.2829-0.1557-0.4341-0.2389c0.1505-0.0296,0.259-0.0509,0.3709-0.0728c-0.049-0.1662-0.2902-0.0272-0.2611-0.2212
	c0.0231-0.1549,0.2675-0.3065,0.2912-0.271c0.1608,0.2406,0.5187-0.2763,0.5372,0.1506c0.0181,0.4194,0.242,0.4201,0.4653,0.4949
	c1.4013,0.2931,2.8108,0.5785,4.1999-0.0133c0.5584-0.2379,1.0672-0.2403,1.6001,0.0259c0.0967,0.0482,0.2238,0.084,0.3357-0.0963
	c-0.3133-0.0987-0.6069-0.1915-0.9005-0.2839c-0.1837-0.0578-0.3256-0.0796-0.2689-0.4212c0.0671-0.403-0.069-0.7007-0.5368-0.6164
	c-0.2207,0.04-0.6877,0.1777-0.4503-0.484c0.0412-0.115-0.0325-0.2856-0.053-0.4286c0.5999-0.086,1.1526,0.1894,1.75,0.0948
	c-0.3208-0.1053-0.7207-0.8676-0.6228-1.2747c0.1564-0.65-0.1792-1.1866-0.2234-1.7489c-0.0766-0.9711-0.7381-0.4716-1.0358-0.7881
	c-0.0128-0.0136-0.023-0.0304-0.0344-0.0458c0.4635-0.0548,0.8694-0.2352,1.1409-0.7085c0.0184-0.0231,0.029-0.0479,0.0325-0.0744
	c0.0041,0.0022,0.0084,0.0041,0.0124,0.0065c-0.0148,0.0227-0.0298,0.0454-0.0449,0.0679c0.113,0.1838,0.3747-0.0454,0.457,0.2231
	c-0.0062,0.3123,0.1719,0.3933,0.3902,0.4051c0.08,0.0042,0.1852,0.0052,0.2109-0.1236c0.0415-0.2068-0.1723-0.1609-0.2175-0.2848
	c0.0678-0.1839,0.2889-0.0307,0.3549-0.2185c0.0575-0.0034,0.115-0.0069,0.1725-0.0105c0.0552,0.1189,0.0851,0.2965,0.1701,0.346
	c0.3264,0.19,0.2188,0.3855,0.0406,0.603c-0.0937,0.0661-0.2718,0.0518-0.2468,0.2311c0.0131,0.094,0.1481,0.1788,0.2573,0.139
	c0.3957-0.1446,0.8244-0.0113,1.2123-0.201c0.1302-0.0639,0.3496,0.0058,0.36-0.2503c0.0112-0.2765-0.2782-0.0771-0.3433-0.2564
	c0.0907-0.0525,0.1849-0.0989,0.2714-0.1595c0.0766-0.0539,0.2298-0.0597,0.1713-0.2251c-0.0365-0.1032-0.1286-0.215-0.2447-0.1624
	c-0.2036,0.0922-0.5138,0.0965-0.3893,0.5244c-0.229-0.1692-0.8709,0.2409-0.6216-0.5997c0.1-0.0076,0.1999-0.0151,0.2998-0.0224
	c0.4196,0.0971,0.5661-0.472,0.9045-0.5726c-0.0003,0-0.0007-0.0001-0.0011-0.0001c0.0007,0,0.0013,0,0.002-0.0002
	c-0.0003,0.0002-0.0006,0.0002-0.0009,0.0003c0.0501-0.0014,0.1001-0.005,0.1497-0.0128c0.1485,0.0526,0.297,0.1052,0.4684,0.166
	c-0.3762,0.3269-0.3762,0.3269,0.037,0.5776c0.0455,0.2559,0.1464,0.6314,0.353,0.5443c0.3097-0.1305,0.7341,0.0178,0.9334-0.4305
	c0.3577,0.0148,0.8069-0.1251,1.0556,0.074c0.6821,0.5459,1.0755,0.6085,1.6118-0.0011c-0.2115-0.217-0.5723,0.1994-0.6564-0.069
	c-0.2114-0.6751-0.7363-0.3485-1.0539-0.5754c0.1854,0.0043,0.4045,0.0087,0.5792-0.134c0.4518-0.369,0.9569-0.408,1.4797-0.3686
	c0.2235,0.017,0.5318-0.155,0.5007,0.3782c-0.0081,0.1381,0.2061,0.1806,0.3525,0.1016c0.4922-0.265,1.0525-0.2553,1.5428-0.5042
	c0.1975-0.1001,0.5794,0.0943,0.5669-0.2143C207.4279,114.334,207.0249,114.4779,206.7998,114.3811z"/>
</g>
</svg>
