<?xml version="1.0" encoding="utf-8"?>
<!-- Generator: Adobe Illustrator 19.1.0, SVG Export Plug-In . SVG Version: 6.00 Build 0)  -->
<svg version="1.1" id="_x32_225" xmlns="http://www.w3.org/2000/svg" xmlns:xlink="http://www.w3.org/1999/xlink" x="0px" y="0px"
	 viewBox="0 0 500.1 500" enable-background="new 0 0 500.1 500" xml:space="preserve">
<g id="p_x32_225-p">
	<path fill="#EDCB48" d="M313.4,500h-42.9L0,229.5v-42.9L313.4,500z M0,67.7v42.9L389.4,500h42.9L0,67.7z M0,127.2v42.9L329.9,500
		h42.9L0,127.2z M32.7,500h42.9L0,424.4v42.9L32.7,500z M0,364.9v42.9L92.2,500h42.9L0,364.9z M0,305.5v42.9L151.6,500h42.9L0,305.5
		z M500,16.2V0h-16.2L500,16.2z M0,8.3v42.9L448.8,500h42.9L0,8.3z M0,246v42.9l211,211h42.9L0,246z M51.2,0H8.3L500,491.8v-42.9
		L51.2,0z M348.4,0h-42.9L500,194.5v-42.9L348.4,0z M407.9,0H365l135.1,135.1V92.2L407.9,0z M0,483.8V500h16.2L0,483.8z M467.3,0
		h-42.9L500,75.6V32.7L467.3,0z M110.7,0H67.8l432.3,432.3v-42.9L110.7,0z M170.1,0h-42.9l372.9,372.9V330L170.1,0z M289,0h-42.9
		l254,254v-42.9L289,0z M229.5,0h-42.9L500,313.4v-42.9L229.5,0z"/>
</g>
</svg>
