<?xml version="1.0" encoding="utf-8"?>
<!-- Generator: Adobe Illustrator 16.0.0, SVG Export Plug-In . SVG Version: 6.00 Build 0)  -->
<!DOCTYPE svg PUBLIC "-//W3C//DTD SVG 1.1//EN" "http://www.w3.org/Graphics/SVG/1.1/DTD/svg11.dtd">
<svg version="1.1" id="Layer_1" xmlns="http://www.w3.org/2000/svg" xmlns:xlink="http://www.w3.org/1999/xlink" x="0px" y="0px"
	 width="500px" height="500px" viewBox="0 0 500 500" enable-background="new 0 0 500 500" xml:space="preserve">
<g id="P">
	<path d="M498.037,251.497c-30.576,0.005-21.84-37.124-21.84-37.124c0-8.429-3.981-15.922-10.164-20.716
		c2.957-7.242,2.66-15.723-1.552-23.021c0,0-24.872-28.517,0.353-43.074c-26.479,15.288-37.478-21.232-37.478-21.232
		c-4.216-7.299-11.413-11.796-19.164-12.856c-1.061-7.751-5.559-14.948-12.854-19.162c0,0-35.796-12.258-21.232-37.476
		c-15.288,26.479-43.071,0.348-43.071,0.348c-7.301-4.215-15.783-4.51-23.028-1.551c-4.793-6.184-12.287-10.168-20.716-10.168
		c0,0-37.127,6.555-37.127-21.836c0,29.116-37.125,21.836-37.125,21.836c-8.428,0-15.92,3.984-20.714,10.166
		c-7.243-2.957-15.725-2.661-23.023,1.553c0,0-28.876,24.236-43.072-0.348c14.562,25.218-21.23,37.476-21.23,37.476
		c-7.297,4.214-11.795,11.41-12.856,19.16c-7.75,1.061-14.947,5.558-19.162,12.855c0,0-12.889,35.431-37.476,21.235
		c25.218,14.558,0.351,43.068,0.351,43.068c-4.213,7.3-4.51,15.784-1.552,23.027c-6.181,4.793-10.164,12.286-10.164,20.715
		c0,0,6.548,37.129-21.84,37.124c29.119,0.005,21.837,37.128,21.837,37.128c0.002,8.428,3.986,15.922,10.168,20.716
		c-2.957,7.242-2.66,15.723,1.554,23.021c0,0,24.236,28.882-0.348,43.068c25.218-14.558,37.473,21.24,37.473,21.24
		c4.215,7.295,11.413,11.792,19.165,12.854c1.061,7.75,5.559,14.945,12.859,19.156c0,0,35.427,12.896,21.232,37.478
		c14.558-25.213,43.065-0.345,43.065-0.345c7.296,4.211,15.776,4.509,23.021,1.555c4.794,6.181,12.286,10.164,20.714,10.164
		c0,0,37.125-7.283,37.125,21.839c0-30.577,37.127-21.839,37.127-21.839c8.429,0,15.923-3.984,20.716-10.167
		c7.243,2.956,15.725,2.657,23.022-1.557c0,0,28.513-24.863,43.07,0.354c-15.286-26.479,21.229-37.477,21.229-37.477
		c7.303-4.215,11.801-11.411,12.86-19.164c7.75-1.062,14.947-5.56,19.16-12.855c0,0,12.26-35.793,37.478-21.234
		c-26.479-15.283-0.349-43.07-0.349-43.07c4.213-7.297,4.51-15.777,1.554-23.021c6.183-4.794,10.165-12.288,10.165-20.716
		C476.198,288.625,468.92,251.497,498.037,251.497z"/>
</g>
</svg>
