<?xml version="1.0" encoding="utf-8"?>
<!-- Generator: Adobe Illustrator 23.0.1, SVG Export Plug-In . SVG Version: 6.00 Build 0)  -->
<svg version="1.1" id="XMLID_2_" xmlns="http://www.w3.org/2000/svg" xmlns:xlink="http://www.w3.org/1999/xlink" x="0px" y="0px"
	 viewBox="0 0 348.3179 192.3737" enable-background="new 0 0 348.3179 192.3737" xml:space="preserve">

<g id="P">
<path id="lq2" fill="#7B9CAB" d="M289.1069,148.0093c-10.6,14.1-2.3,34.6-28.8,42.8s-55.8-18.2-79.7-24.5
	c-23.9-6.4-65.4,7.1-65.4,7.1s-38.5,9.2-71-4.4c-24.7-10.3-45.9-33.6-44.1-84c0-0.4,0-0.7,0.1-1.1c2.7-61,45.8-79.5,85.8-83.3
	c33-3.2,65.7,6.4,93.7,24.2c41.8,26.6,66.7,11.2,66.7,11.2s74.7-25.5,97.3,26.7
	C366.2068,114.9094,299.6069,133.9093,289.1069,148.0093z"/>
</g>
</svg>
