<?xml version="1.0" encoding="utf-8"?>
<!-- Generator: Adobe Illustrator 23.0.1, SVG Export Plug-In . SVG Version: 6.00 Build 0)  -->
<svg version="1.1" id="Layer_1" xmlns="http://www.w3.org/2000/svg" xmlns:xlink="http://www.w3.org/1999/xlink" x="0px" y="0px"
	 viewBox="0 0 790.5 793.4" style="enable-background:new 0 0 790.5 793.4;" xml:space="preserve">

<g id="P">
<path fill="#D4BAB3" d="M516.2,732.2c49.6-48.8,68.1-119.8,102.1-179.3c42.1-73.6,84.2-147.1,126.4-220.7
	c15.8-27.5,31.6-55.3,40.3-85.9c15.9-56-4.4-120.6-38.9-166.1C693.3,10.6,592.2-20.5,512,14.4c-50.3,21.8-87.7,64.6-130.5,98.8
	c-60.4,48.3-132.4,79.6-203.3,110.4c-72,31.1-141.9,53-166.3,136.8c-26.2,90-8,192,42.1,270.6c58.3,91.6,158.2,151.4,266.3,161.1
	c63.9,5.7,130.8-6.7,181.9-47.6C507.1,740.7,511.8,736.5,516.2,732.2z"/>
</g>
</svg>
