<?xml version="1.0" encoding="utf-8"?>
<!-- Generator: Adobe Illustrator 23.0.1, SVG Export Plug-In . SVG Version: 6.00 Build 0)  -->
<svg version="1.1" id="Layer_1" xmlns="http://www.w3.org/2000/svg" xmlns:xlink="http://www.w3.org/1999/xlink" x="0px" y="0px"
	 viewBox="0 0 777 735.8" style="enable-background:new 0 0 777 735.8;" xml:space="preserve">

<g id="P">
<path fill="#995EEA" d="M776.5,374.2c4.4-74.2-21-148-61.4-210.4c-34.3-52.9-91.3-129-151.8-153.8c-76.5-31.4-147.2,20-220.9,30.1
	c-66,9.1-134.3-19.6-198.6-2.7c-46.2,12-84.3,46.9-107.4,88.5C13.2,167.6,3.7,215.6,0.9,263.3c-5.4,92,14.3,185,55.2,267.6
	c20.4,41.2,48.9,73.6,74.4,110.9c25.9,38,43.7,70.6,90.7,86.5c41.8,14,89.8,8,126.9-16c33.1-21.4,56.4-55.4,88.6-78.2
	c59.5-42.2,138.6-38.1,205.7-59.9C727.8,546.3,771.4,461.1,776.5,374.2z"/>
</g>
</svg>
