<?xml version="1.0" encoding="utf-8"?>
<!-- Generator: Adobe Illustrator 23.0.1, SVG Export Plug-In . SVG Version: 6.00 Build 0)  -->
<svg version="1.1" id="XMLID_1_" xmlns="http://www.w3.org/2000/svg" xmlns:xlink="http://www.w3.org/1999/xlink" x="0px" y="0px"
	 viewBox="0 0 252.1326 218.888" enable-background="new 0 0 252.1326 218.888" xml:space="preserve">

<g id="P">
<path id="lq5" fill="#046D8A" d="M100.3562,181.7485c-20.2-16.1-34.2-1.2-59.5-14.2c-20.6-10.6-42.1-36.2-40.8-67.8
	c1.1-24.7,19.3-45.1,41.8-53.2c28-10.1,42.8,10.4,70.6-1.4c18.3001-7.8,16.1-20.3,38.6-34.4c11.9-7.4,28.8-14.5,53-8.5
	c43.7,10.8,59.7,60.7,39.3,97.4c-9.6,17.3-28.5,12-37.9,30.9c-10,20.4,7.7,32.8-2.2,55.6c-7.8,17.9-27.9,31.3-47.8,32.6
	c-3.1,0.2-10.3,0.6-18.7-2.3C117.2562,209.6485,115.3562,193.6485,100.3562,181.7485z"/>
</g>
</svg>
